<?xml version="1.0" encoding="utf-8"?>
<!-- Generator: Adobe Illustrator 16.0.4, SVG Export Plug-In . SVG Version: 6.00 Build 0)  -->
<!DOCTYPE svg PUBLIC "-//W3C//DTD SVG 1.1//EN" "http://www.w3.org/Graphics/SVG/1.1/DTD/svg11.dtd">
<svg version="1.1" id="Layer_0103" xmlns="http://www.w3.org/2000/svg" xmlns:xlink="http://www.w3.org/1999/xlink" x="0px" y="0px"
	 width="128px" height="128px" viewBox="0 0 128 128" enable-background="new 0 0 128 128" xml:space="preserve">
<g>
	<g>
		<g>
			<path fill="#FFFFFF" d="M9.298,48.71c-2.64-0.628-5.048-1.133-7.406-1.808c-0.679-0.195-1.216-0.887-1.817-1.352
				c0.658-0.218,1.299-0.493,1.969-0.634C2.7,44.78,3.382,44.78,4.131,44.713c-0.188-2.095-1.936-4.337,0.615-5.675
				c1.773-0.929,3.277,0.328,4.45,1.588c1.676,1.798,0.494,3.345-0.725,4.767c1.095,1.291,2.031,1.228,2.974-0.034
				c0.591-0.789,1.243-1.533,1.906-2.264c6.641-7.343,15.212-11.2,24.633-13.325c14.649-3.303,29.319-2.521,43.87,0.592
				c8.021,1.718,15.54,5.006,22.893,8.637c0.722,0.356,1.869,0.525,2.532,0.199c2.468-1.208,4.817-2.66,7.413-4.135
				c0.104,1.416,0.23,3.044,0.384,5.041c2.835-0.531,5.558-1.042,8.509-1.596c0.534,2.876-0.738,4.967-2.576,6.793
				c-1.547,1.535-3.258,2.908-4.803,4.448c-0.352,0.352-0.534,1.127-0.438,1.64c0.504,2.625,1.104,5.237,1.727,7.838
				c0.123,0.523,0.416,1.055,0.768,1.466c1.236,1.444,2.576,2.799,3.789,4.259c1.057,1.268,2.086,2.344,3.917,2.547
				c1.745,0.191,2.442,1.402,1.597,3.064c-0.697,1.369-1.446,2.763-2.434,3.918c-1.184,1.381-2.758,1.757-4.599,1.079
				c-0.841-0.309-1.948-0.433-2.772-0.155c-7.994,2.67-15.918,2.623-23.837-0.29c-0.975-0.36-2.048-0.579-3.087-0.618
				c-3.105-0.116-3.885,0.652-4.561,3.745c-0.494,2.266-1.171,4.493-1.832,6.722c-0.791,2.672-0.358,5.146,1.029,7.515
				c0.354,0.601,0.572,1.278,0.875,1.909c0.869,1.809,0.381,2.733-1.691,2.896c-0.517,0.041-0.99,0.66-1.481,1.018
				c-0.37,0.269-0.712,0.591-1.106,0.803c-0.302,0.16-0.672,0.204-1.018,0.266c-6.222,1.088-8.096-0.384-8.096-6.689
				c0.006-4.154,0.314-8.29-1.436-12.254c-0.547-1.236-1.061-1.631-2.478-1.504c-9.5,0.863-19.005,1.246-28.454-0.598
				c-0.489-0.096-0.97-0.189-1.45-0.314c-4.469-1.182-4.421-1.15-7.119,2.536c-2.883,3.938-3.943,7.976-1.499,12.584
				c0.721,1.364,0.851,3.046,1.316,4.839c-1.056,0.077-1.748,0.072-2.412,0.193c-0.442,0.081-1.197,0.318-1.209,0.527
				c-0.134,1.992-1.603,1.579-2.802,1.647c-0.634,0.035-1.272,0.036-1.905,0.01c-5.829-0.255-5.794-0.915-6.135-5.724
				c-0.217-3.081-0.827-6.145-1.434-9.183c-0.443-2.22-0.605-4.327,0.693-6.313c0.867-1.323,0.784-2.632,0.039-3.987
				c-2.23-4.067-4.364-8.191-6.676-12.213c-2.302-4.009-2.469-8.14-1.164-12.451C8.977,50.013,9.081,49.54,9.298,48.71z"/>
		</g>
	</g>
	<g>
		<g>
			<path d="M9.298,48.71c-2.64-0.628-5.048-1.133-7.406-1.808c-0.679-0.195-1.216-0.887-1.817-1.352
				c0.658-0.218,1.299-0.493,1.969-0.634C2.7,44.78,3.382,44.78,4.131,44.713c-0.188-2.095-1.936-4.337,0.615-5.675
				c1.773-0.929,3.277,0.328,4.45,1.588c1.676,1.798,0.494,3.345-0.725,4.767c1.095,1.291,2.031,1.228,2.974-0.034
				c0.591-0.789,1.243-1.533,1.906-2.264c6.641-7.343,15.212-11.2,24.633-13.325c14.649-3.303,29.319-2.521,43.87,0.592
				c8.021,1.718,15.54,5.006,22.893,8.637c0.722,0.356,1.869,0.525,2.532,0.199c2.468-1.208,4.817-2.66,7.413-4.135
				c0.104,1.416,0.23,3.044,0.384,5.041c2.835-0.531,5.558-1.042,8.509-1.596c0.534,2.876-0.738,4.967-2.576,6.793
				c-1.547,1.535-3.258,2.908-4.803,4.448c-0.352,0.352-0.534,1.127-0.438,1.64c0.504,2.625,1.104,5.237,1.727,7.838
				c0.123,0.523,0.416,1.055,0.768,1.466c1.236,1.444,2.576,2.799,3.789,4.259c1.057,1.268,2.086,2.344,3.917,2.547
				c1.745,0.191,2.442,1.402,1.597,3.064c-0.697,1.369-1.446,2.763-2.434,3.918c-1.184,1.381-2.758,1.757-4.599,1.079
				c-0.841-0.309-1.948-0.433-2.772-0.155c-7.994,2.67-15.918,2.623-23.837-0.29c-0.975-0.36-2.048-0.579-3.087-0.618
				c-3.105-0.116-3.885,0.652-4.561,3.745c-0.494,2.266-1.171,4.493-1.832,6.722c-0.791,2.672-0.358,5.146,1.029,7.515
				c0.354,0.601,0.572,1.278,0.875,1.909c0.869,1.809,0.381,2.733-1.691,2.896c-0.517,0.041-0.99,0.66-1.481,1.018
				c-0.37,0.269-0.712,0.591-1.106,0.803c-0.302,0.16-0.672,0.204-1.018,0.266c-6.222,1.088-8.096-0.384-8.096-6.689
				c0.006-4.154,0.314-8.29-1.436-12.254c-0.547-1.236-1.061-1.631-2.478-1.504c-9.5,0.863-19.005,1.246-28.454-0.598
				c-0.489-0.096-0.97-0.189-1.45-0.314c-4.469-1.182-4.421-1.15-7.119,2.536c-2.883,3.938-3.943,7.976-1.499,12.584
				c0.721,1.364,0.851,3.046,1.316,4.839c-1.056,0.077-1.748,0.072-2.412,0.193c-0.442,0.081-1.197,0.318-1.209,0.527
				c-0.134,1.992-1.603,1.579-2.802,1.647c-0.634,0.035-1.272,0.036-1.905,0.01c-5.829-0.255-5.794-0.915-6.135-5.724
				c-0.217-3.081-0.827-6.145-1.434-9.183c-0.443-2.22-0.605-4.327,0.693-6.313c0.867-1.323,0.784-2.632,0.039-3.987
				c-2.23-4.067-4.364-8.191-6.676-12.213c-2.302-4.009-2.469-8.14-1.164-12.451C8.977,50.013,9.081,49.54,9.298,48.71z"/>
		</g>
	</g>
</g>
</svg>
