<?xml version="1.0" encoding="utf-8"?>
<!-- Generator: Adobe Illustrator 16.0.4, SVG Export Plug-In . SVG Version: 6.00 Build 0)  -->
<!DOCTYPE svg PUBLIC "-//W3C//DTD SVG 1.1//EN" "http://www.w3.org/Graphics/SVG/1.1/DTD/svg11.dtd">
<svg version="1.1" id="Layer_0104" xmlns="http://www.w3.org/2000/svg" xmlns:xlink="http://www.w3.org/1999/xlink" x="0px" y="0px"
	 width="128px" height="128px" viewBox="0 0 128 128" enable-background="new 0 0 128 128" xml:space="preserve">
<path fill-rule="evenodd" clip-rule="evenodd" d="M127.111,29.188c-1.69-1.383-3.205-2.942-4.745-4.481
	c-1.279-1.285-2.547-2.585-3.845-3.856c-0.677-0.667-1.103-1.551-1.86-2.148c-0.773-0.609-3.471-2.237-3.451-3.195
	c0.026-1.246,2.405-2.353,3.084-3.262c0.072-0.099,0.125-0.221,0.021-0.329c-0.107-0.113-0.222-0.042-0.33,0.016
	c-1.358,0.742-2.793,1.406-4.25,1.927c-0.325,0.116-0.642,0.256-0.955,0.403c-0.021-0.034-0.025-0.063-0.057-0.101
	c-0.066-0.081-0.132-0.172-0.218-0.233c-1.647-1.194-2.954-2.805-4.701-3.864c-0.458-0.275-0.97-0.456-1.46-0.671
	c-0.172-0.076-0.294-0.01-0.35,0.212c0.072,0.115,0.135,0.261,0.23,0.381c1.27,1.579,2.7,3.026,3.785,4.753
	c0.174,0.275,0.383,0.449,0.646,0.493c-0.293,0.106-0.594,0.192-0.902,0.25c-0.094-0.188-0.282-0.417-0.59-0.728
	c-1.428-1.439-2.93-2.803-4.443-4.157c-0.809-0.724-1.889-1.011-2.812-1.558c-0.074-0.043-0.23-0.056-0.279-0.01
	c-0.148,0.139-0.061,0.302,0.055,0.402c1.467,1.275,2.324,3.073,3.787,4.354c0.58,0.507,0.839,1.238,1.086,1.953
	c0.038,0.106,0.084,0.202,0.136,0.291c-1.616,0.384-3.001,1.051-4.198,2.816c-0.805,1.188-1.742,2.293-2.225,3.703
	c-0.232,0.679-0.824,1.229-1.221,1.859c-0.723,1.155-1.443,2.312-2.125,3.496c-0.398,0.69-1.074,1.146-1.457,1.843
	c-1.477,2.67-3.51,4.94-5.787,6.867c-1.854,1.568-3.975,2.905-6.596,3.185c-2.543,0.273-5.049,0.862-7.578,1.271
	c-4.281,0.692-8.562,1.341-12.92,1.501c-3.485,0.125-6.952-0.015-10.422-0.16c-2.012-0.087-4.016-0.487-6.019-0.778
	c-3.802-0.548-7.588-1.181-11.429-1.469c-2.07-0.154-4.132-0.248-6.197-0.137c-3.321,0.177-6.5,0.931-9.652,2.046
	c-2.188,0.776-4.148,1.869-5.948,3.214c-0.88,0.658-1.687,1.408-2.397,2.237c0.018-0.064,0.021-0.13-0.025-0.199
	c-0.116-0.178-0.37-0.146-0.576-0.149c-0.929-0.019-1.861,0.191-2.638,0.602c-1.482,0.782-2.685,1.919-3.184,3.613
	c-0.253,0.87-0.554,1.737-0.48,2.674c0.312,2.37,0.697,4.71,1.568,6.974c0.694,1.801,1.465,3.594,1.743,5.532
	c0.017,0.122,0.058,0.243,0.108,0.354c0.131,0.285,0.234,0.697,0.431,0.917c0.106,1.263,0.192,2.526,0.253,3.792
	c-0.844,2.668-1.109,5.399-0.645,8.21c0.078,0.472,0.27,0.898,0.454,1.328c-0.304,2.308-0.909,4.567-1.517,6.829
	c-0.908,3.391-2.16,6.682-2.87,10.129c-0.335,1.626-0.351,3.284-0.639,4.91c-0.438,2.496-0.546,5.016-0.486,7.543
	c0.042,1.699,0.283,3.379,0.48,5.062c0.09,0.735,0.386,1.222,1.22,1.291c0.821,0.067,1.629,0.251,2.445,0.364
	c0.383,0.053,0.566-0.1,0.373-0.496c-0.158-0.327-0.332-0.651-0.496-0.979c-0.01,0.001-0.017-0.002-0.027-0.001
	c-0.008-0.034-0.019-0.069-0.029-0.103c0.016,0.029,0.032,0.058,0.047,0.087c0.003,0.005,0.005,0.011,0.008,0.017
	c0.359-0.035,0.6,0.173,0.832,0.406c0.175,0.174,0.354,0.35,0.631,0.34l0.029-0.029c-0.053-0.152-0.058-0.348-0.164-0.453
	c-1.336-1.364-1.679-3.094-1.748-4.896c-0.108-2.948,0.229-5.844,1.096-8.682c0.602-1.973,1.359-3.896,1.875-5.9
	c0.232-0.918,0.677-1.77,1.135-2.608c0.549-1.017,1.042-2.065,1.565-3.099c0.226-0.447,0.455-0.893,0.717-1.317
	c-0.043,0.891-0.098,1.788-0.332,2.067c-0.25,0.3-0.14,0.604-0.037,0.931c0.364,1.14,0.668,2.302,1.065,3.431
	c0.623,1.762,0.917,3.587,1.221,5.42c0.454,2.768,0.939,5.53,1.521,8.272c0.325,1.528,0.871,3.011,1.315,4.515
	c0.132,0.442,0.417,0.67,0.884,0.736c1.059,0.152,2.115,0.342,3.176,0.502c0.36,0.055,0.57-0.083,0.45-0.488
	c-0.06-0.195-0.152-0.383-0.235-0.57c-0.162-0.369-0.326-0.738-0.492-1.106c0.456,0.041,0.557,0.522,0.89,0.713
	c0.105,0.061,0.261,0.192,0.314,0.161c0.192-0.116,0.079-0.301-0.011-0.42c-0.644-0.849-1.352-1.647-1.909-2.571
	c-0.264-0.437-0.499-0.878-0.543-1.364c-0.178-2.068-0.854-4.033-1.166-6.072c-0.34-2.241-0.837-4.469-0.639-6.773
	c-0.132-1.772,0.137-3.536,0.34-5.299c0.031-0.271,0.349-1.646,0.607-2.987c0.23,0.198,0.324,0.494,0.345,0.907
	c0.109,2.375,0.622,4.671,1.523,6.871c0.187,0.451,0.307,1.234,0.853,1.135c0.641-0.115,0.441-0.899,0.482-1.43
	c0.014-0.215,0-0.43,0-0.743c-0.193-1.822-0.232-3.759-0.678-5.649c-0.048-0.207-0.067-0.425-0.078-0.639
	c-0.052-0.951,0.631-1.59,1.581-1.516c0.318,0.026,0.468,0.219,0.556,0.457c0.35,0.971,0.965,1.816,1.267,2.814
	c0.482,1.6,1.584,2.829,2.601,4.101c0.162,0.202,0.359,0.396,0.655,0.241c0.269-0.141,0.334-0.406,0.266-0.663
	c-0.45-1.698-0.779-3.437-1.727-4.964c-0.455-0.729-0.855-1.488-1.31-2.215c-0.249-0.393-0.141-0.562,0.247-0.778
	c2.252-1.255,3.93-2.867,4.935-5.116c0.797,0.27,1.595,0.534,2.406,0.76c1.634,0.453,3.254,0.904,4.959,1.068
	c1.27,0.121,2.514,0.477,3.778,0.684c2.123,0.35,4.263,0.505,6.421,0.553c4.157,0.096,8.231-0.451,12.324-1.145
	c2.571-0.435,5.099-1.001,7.628-1.596c1.125-0.268,2.254-0.527,3.37-0.832c0.578-0.158,1.442-0.251,2.309-0.211
	c0.224,1.908,0.562,3.822,0.795,5.725c0.317,2.58,0.622,5.16,0.932,7.74c0.079,0.656,0.127,1.316,0.235,1.965
	c0.512,3.143,0.143,6.258-0.174,9.387c-0.22,2.178-0.283,4.387-0.049,6.569c0.148,1.354,0.782,2.603,1.247,3.882
	c0.093,0.26,0.29,0.408,0.541,0.459c1.051,0.217,2.099,0.437,3.155,0.613c0.516,0.089,0.567-0.027,0.38-0.53
	c-0.222-0.606-0.751-1.062-0.837-1.733c-0.008-0.01-0.017-0.018-0.025-0.026c-0.016-0.022-0.029-0.046-0.046-0.068
	c0.021,0.019,0.042,0.036,0.061,0.053c0.001,0.015,0.009,0.026,0.011,0.042c0.537,0.548,1.072,1.099,1.61,1.646
	c0.056,0.055,0.164,0.141,0.198,0.123c0.143-0.08,0.09-0.208,0.031-0.321c-0.48-0.912-0.963-1.823-1.446-2.736
	c-1.021-1.928-1.274-4.013-1.04-6.128c0.372-3.368-0.037-7.214,1.348-10.391c0.524,2.123,1.029,4.252,1.387,6.413
	c0.156,0.937,0.217,1.89,0.299,2.837c0.271,3.154,1.085,6.185,2.125,9.156c0.247,0.71,0.431,1.424,0.572,2.151
	c0.119,0.624,0.424,0.948,1.084,0.938c1.288-0.021,2.551,0.216,3.816,0.42c0.207,0.031,0.449,0.098,0.562-0.103
	c0.111-0.195-0.07-0.385-0.174-0.561c-0.186-0.307-0.436-0.589-0.436-0.979c-0.008-0.002-0.011-0.009-0.018-0.012
	c-0.018-0.016-0.033-0.031-0.05-0.047c0.022,0.01,0.034,0.029,0.063,0.033c0,0.009,0.004,0.017,0.004,0.025
	c0.344,0.137,0.398,0.575,0.736,0.721c0.066-0.79-0.322-1.453-0.758-2.041c-1.927-2.623-2.6-5.657-2.951-8.797
	c-0.417-3.732-0.842-7.461-1.375-11.18c-0.525-3.688-0.545-7.402,0.058-11.107c0.246-1.508,0.728-3.039,0.877-4.556
	c0.146-1.489,0.347-1.255,1.806-1.873c2.207-0.936,4.064-2.487,5.661-4.253c1.341-1.481,2.344-3.186,3.231-4.945
	c0.774-1.533,1.096-3.211,0.844-4.938c-0.287-1.948-0.047-3.845,0.252-5.778c0.334-2.21,1.135-4.208,2.154-6.15
	c0.592-1.134,0.908-2.406,1.645-3.462c1.486-2.127,2.424-4.602,4.156-6.573c0.028-0.03,0.057-0.065,0.07-0.102
	c0.679-1.861,2.255-3.135,3.174-4.85c0.512-0.962,1.406-1.597,2.396-2.082c0.761-0.374,1.526-0.268,2.301-0.081
	c0.636,0.155,1.401,0.142,1.869,0.507c0.49,0.383,0.115,1.169,0.144,1.777c0.04,0.884,0.188,1.732,0.688,2.474
	c0.417,0.631,0.616,1.347,0.908,2.026c0.04,0.092,0.183,0.198,0.274,0.197c0.127-0.003,0.15-0.161,0.156-0.279
	c0.014-0.415,0.014-0.826,0.034-1.239c0.021-0.456,0.077-0.901,0.466-1.215c-0.004-0.007-0.006-0.014-0.01-0.021
	c0.008-0.004,0.018-0.01,0.026-0.015c0.02-0.079,0.044-0.102,0.066-0.038c0,0-0.035,0.02-0.066,0.038
	c-0.003,0.012-0.007,0.012-0.01,0.028c-0.003,0.002-0.004,0.005-0.007,0.008c0.184,0.328,0.182,0.698,0.238,1.058
	c0.265,1.599,1.23,2.848,2.081,4.154c0.056,0.084,0.185,0.177,0.298,0.077c0.043-0.037,0.045-0.154,0.024-0.222
	c-0.069-0.195-0.163-0.38-0.24-0.574c-0.795-2.028-0.829-4.107-0.401-6.212c0.049-0.239,0.137-0.474,0.236-0.698
	c0.463-1.047,0.568-1.126,1.676-1.075c0.738,0.034,1.48,0.105,2.216,0.19c0.999,0.115,1.985,0.043,2.958-0.182
	c1.254-0.293,2.357-1.676,2.4-2.977c0.014-0.495-0.076-0.997,0.161-1.465C128.282,30.596,127.86,29.802,127.111,29.188z
	 M87.054,117.05c0.01,0.023,0.024,0.043,0.035,0.064c-0.017-0.016-0.033-0.032-0.051-0.049c-0.013-0.025-0.025-0.05-0.039-0.074
	C87.017,117.011,87.034,117.031,87.054,117.05z M110.894,15.055l-0.005-0.053l0.103,0.017L110.894,15.055z M125.487,30.396
	c-0.021-0.008-0.042-0.015-0.066-0.022c-0.005-0.032-0.021-0.07-0.012-0.095c0.037-0.088,0.081-0.08,0.107,0.024
	C125.522,30.33,125.498,30.364,125.487,30.396z"/>
</svg>
