<?xml version="1.0" encoding="utf-8"?>
<!-- Generator: Adobe Illustrator 16.0.4, SVG Export Plug-In . SVG Version: 6.00 Build 0)  -->
<!DOCTYPE svg PUBLIC "-//W3C//DTD SVG 1.1//EN" "http://www.w3.org/Graphics/SVG/1.1/DTD/svg11.dtd">
<svg version="1.1" id="Layer_1_5" xmlns="http://www.w3.org/2000/svg" xmlns:xlink="http://www.w3.org/1999/xlink" x="0px" y="0px"
	 width="128px" height="128px" viewBox="0 0 128 128" enable-background="new 0 0 128 128" xml:space="preserve">
<path fill-rule="evenodd" clip-rule="evenodd" d="M75.488,127.774c0.008-0.289-0.041-0.564-0.133-0.843
	c-0.256-0.769-0.822-1.349-1.234-2.019c-0.322-0.521-0.991-0.617-1.561-0.503c-1.391,0.282-2.521-0.452-3.74-0.849
	c-0.177-0.059-0.346-0.172-0.488-0.294c-0.181-0.154-0.166-0.362,0.031-0.479c0.787-0.471,1.52-1.036,2.398-1.357
	c1.35-0.49,2.73-0.854,4.132-1.139c0.529-0.109,1.041-0.08,1.543,0.276c0.655,0.466,1.401,0.282,1.944-0.358
	c0.525-0.617,0.717-0.676,1.434-0.432c0.149,0.051,0.291,0.135,0.439,0.189c0.051,0.02,0.133,0.021,0.172-0.01
	c0.104-0.074,0.045-0.18-0.012-0.242c-0.32-0.357-0.688-0.658-1.111-0.892c-1.625-0.896-3.365-1.132-5.177-0.859
	c-1.259,0.188-2.483,0.546-3.709,0.886c-1.354,0.377-2.722,0.613-4.134,0.637c-0.752,0.013-1.288-0.239-1.655-0.887
	c-0.219-0.387-0.492-0.748-0.681-1.147c-0.584-1.235-1.421-2.353-1.841-3.661c-0.66-2.061-1.551-4.037-2.142-6.119
	c-0.286-1.01-0.323-2.076-0.692-3.066c-0.037-0.099,0.02-0.201,0.113-0.222c0.082-0.019,0.197-0.003,0.264,0.046
	c0.193,0.139,0.234,0.37,0.299,0.582c0.592,1.979,1.19,3.953,1.773,5.934c0.424,1.441,1.109,2.771,1.729,4.131
	c0.107,0.229,0.246,0.449,0.312,0.69c0.167,0.569,0.331,1.118,1.089,1.081c0.894,0.697,2.003,0.963,2.978,1.492
	c0.52,0.282,1.008,0.312,1.551,0.164c0.981-0.266,1.971-0.51,2.954-0.766c0.185-0.049,0.368-0.105,0.549-0.158
	c0.216-0.062,0.481,0.077,0.652-0.165c-0.205-0.124-0.44-0.113-0.652-0.081c-1.583,0.241-2.718-0.7-3.917-1.469
	c-0.141-0.089-0.266-0.26-0.047-0.361c1.289-0.597,2.415-1.52,3.872-1.797c1.034-0.196,2.06-0.387,3.115-0.385
	c0.386,0,0.753,0.015,1.103,0.227c0.727,0.438,1.459,0.368,1.965-0.29c0.443-0.575,0.865-0.519,1.395-0.259
	c0.111,0.057,0.221,0.123,0.338,0.178c0.079,0.037,0.176,0.104,0.238-0.019c0.025-0.047,0.02-0.122,0-0.177
	c-0.156-0.422-0.336-0.826-0.79-1.023c-1.165-0.502-2.3-0.989-3.64-0.986c-2.052,0.007-4.053,0.256-6.049,0.689
	c-1.145,0.249-2.309,0.416-3.492,0.41c-0.525-0.002-0.865-0.174-1.193-0.602c-0.877-1.146-1.553-2.379-1.993-3.758
	c-0.305-0.969-0.727-1.9-1.104-2.846c-0.105-0.266-0.201-0.483,0.246-0.477c2.368,0.039,4.567-0.713,6.766-1.463
	c0.404-0.137,0.732-0.395,1.064-0.625c1.355-0.938,2.624-1.952,3.752-3.197c1.281-1.418,2.424-2.939,3.673-4.381
	c0.437-0.501,0.774-1.092,1.238-1.562c0.979-0.997,1.614-2.275,2.686-3.195c0.335-0.287,0.604-0.65,0.802-1.06
	c0.314-0.651,1.044-0.913,1.418-1.525c0.971-1.586,2.574-2.403,4.113-3.285c0.338-0.195,0.621-0.444,0.918-0.675
	c1.357-1.046,2.801-1.973,4-3.225c0.447-0.467,1.045-0.823,1.503-1.309c1.567-1.666,3.146-3.352,4.375-5.271
	c0.847-1.327,1.921-2.542,2.454-4.071c0.166-0.477,0.467-0.903,0.703-1.354c1.319-2.483,2.211-5.144,3.014-7.814
	c0.639-2.122,0.988-4.335,1.398-6.519c0.291-1.56,0.507-3.138,0.686-4.715c0.213-1.873,0.199-3.758,0-5.629
	c-0.246-2.34-0.715-4.646-1.229-6.944c-0.584-2.606-1.2-5.195-2.079-7.723c-0.551-1.587-0.88-3.25-1.545-4.806
	c-0.301-0.701-0.624-1.393-0.838-2.129c-0.082-0.278,0.012-0.359,0.256-0.319c0.531,0.088,1.06,0.201,1.592,0.293
	c1.186,0.206,2.256-0.221,3.327-0.633c0.058-0.022,0.112-0.062,0.156-0.107c1.696-1.697,2.505-3.439,1.194-5.9
	c-0.18-0.337-0.371-0.666-0.512-1.019c-0.297-0.74,0.123-1.353,0.915-1.231c1.204,0.185,2.412,0.17,3.62,0.194
	c0.254,0.005,0.512-0.006,0.764-0.027c0.285-0.025,0.41-0.17,0.256-0.446c-0.181-0.335-0.35-0.684-0.578-0.986
	c-0.781-1.034-1.466-2.167-2.693-2.765c-0.217-0.105-0.338-0.236-0.297-0.519c0.201-1.505-0.529-2.569-1.705-3.374
	c-0.303-0.208-0.391-0.38-0.348-0.743c0.117-0.956-0.291-1.732-0.967-2.385c-0.089-0.087-0.191-0.194-0.316-0.114
	c-0.059,0.038-0.086,0.173-0.076,0.258c0.07,0.676-0.158,1.252-0.584,1.763c-0.059,0.07-0.158,0.187-0.205,0.171
	c-0.098-0.031-0.047-0.149-0.037-0.237c0.16-1.449-0.445-2.519-1.654-3.273c-0.264-0.165-0.57-0.581-0.803-0.414
	c-0.341,0.244,0.137,0.529,0.212,0.811c0.226,0.849,0.3,1.69,0.013,2.537c-0.027,0.081-0.084,0.191-0.148,0.208
	c-0.111,0.032-0.137-0.088-0.164-0.178c-0.285-0.951-1.008-1.606-1.607-2.342c-0.221-0.275-0.543-0.43-0.891-0.523
	c-0.492-0.132-0.979-0.282-1.467-0.422c-0.121-0.034-0.275-0.091-0.352,0.033c-0.072,0.118,0.041,0.219,0.137,0.306
	c0.889,0.816,1.393,1.865,1.781,2.981c0.037,0.106,0.068,0.257-0.061,0.325c-0.037,0.02-0.155-0.089-0.223-0.153
	c-0.141-0.13-0.279-0.263-0.406-0.406c-0.43-0.482-0.963-0.71-1.61-0.692c-0.476,0.015-0.954,0.008-1.433,0.022
	c-0.082,0.002-0.223,0.055-0.229,0.101c-0.02,0.117,0.125,0.111,0.197,0.164c0.556,0.418,1.162,0.78,1.566,1.374
	c0.482,0.703,0.455,0.809-0.33,1.026c-0.678,0.188-1.318,0.471-1.955,0.759c-0.75,0.339-1.441,0.802-2.221,1.084
	c-0.615,0.224-0.981,0.809-1.527,1.128c-1.311,0.766-2.357,1.869-3.324,2.968c-0.906,1.03-2.002,1.955-2.574,3.287
	c-0.285,0.665-0.908,1.134-1.267,1.783c-1.208,2.202-2.3,4.454-3.274,6.775c-1.1,2.625-1.713,5.382-2.512,8.09
	c-0.377,1.279-0.678,2.583-1.082,3.854c-0.212,0.66-0.58,1.27-0.874,1.904c-0.386,0.834-0.925,1.585-1.335,2.413
	c-0.316,0.636-0.975,1.091-1.371,1.698c-0.805,1.238-2.016,2.061-3.168,2.843c-1.51,1.026-3.239,1.729-5.061,2.143
	c-3.155,0.717-6.188,0.227-9.192-0.768c-0.964-0.319-1.868-0.804-2.869-1.032c-0.534-0.125-0.937-0.534-1.426-0.762
	c-0.951-0.442-1.77-1.118-2.75-1.514c-0.596-0.24-0.972-0.826-1.514-1.148c-1.512-0.899-2.773-2.12-4.166-3.171
	c-0.536-0.405-0.75-0.857-0.73-1.534c0.068-2.204-0.268-4.372-0.662-6.535c-0.157-0.874-0.161-1.771-0.389-2.64
	c-0.436-1.662-0.981-3.288-1.498-4.924c-0.411-1.304-0.811-2.606-1.43-3.831c-0.912-1.806-1.595-3.739-2.925-5.316
	c-0.438-1.329-1.707-2.029-2.405-3.162c-0.216-0.351-0.529-0.445-0.907-0.31c-1.163,0.42-2.357,0.767-3.42,1.431
	c-0.081,0.051-0.154,0.121-0.242,0.151c-2.004,0.732-3.667,2.031-5.263,3.376c-1.967,1.658-3.744,3.519-5.127,5.719
	c-0.356,0.565-0.764,1.096-1.159,1.635c-0.494,0.674-0.689,1.493-1.071,2.226c-0.743,1.432-1.401,2.897-1.725,4.522
	c-0.283,1.428-0.692,2.834-0.928,4.28c-0.182,1.112-0.102,2.223-0.179,3.333c-0.082,2.345,0.278,4.637,0.927,6.877
	c0.311,1.075,0.279,2.135,0.201,3.215c-0.158,2.25-0.402,4.491-0.188,6.761c0.159,1.677,0.224,3.364,0.394,5.041
	c0.181,1.786,0.708,3.485,1.251,5.181c0.268,0.847,0.596,1.677,0.848,2.529c0.239,0.807,0.671,1.512,1.073,2.229
	c0.795,1.408,1.405,2.939,2.615,4.082c0.573,1.332,1.926,2.012,2.677,3.197c0.036,0.052,0.081,0.105,0.133,0.137
	c1.179,0.695,2.068,1.793,3.314,2.385c0.483,0.229,0.714,0.519,0.771,1.075c0.125,1.222,0.7,2.293,1.316,3.335
	c0.082,0.137,0.2,0.258,0.257,0.401c0.768,1.894,2.2,3.31,3.497,4.813c1.583,1.834,3.416,3.428,5.209,5.047
	c1.133,1.021,2.287,2.029,3.296,3.156c0.938,1.047,1.908,2.07,2.992,2.924c1.18,0.932,2.293,1.998,3.771,2.55
	c0.755,0.283,1.454,0.76,2.19,1.13c0.832,0.42,1.678,0.773,2.59,0.937c0.609,0.11,1.013,0.37,1.275,0.974
	c0.87,1.981,1.75,3.968,2.246,6.069c0.502,2.132,0.818,4.315,0.811,6.517c-0.006,1.188-0.346,2.303-1.148,3.252
	c-0.471,0.555-1.037,1.039-1.365,1.711c-0.146,0.305-0.438,0.346-0.733,0.336c-0.925-0.029-1.454,0.543-1.897,1.239
	c-0.045,0.071-0.088,0.187-0.061,0.251c0.043,0.104,0.159,0.076,0.246,0.028c0.77-0.431,1.369-0.191,1.938,0.415
	c0.641,0.68,1.381,0.636,2.658-0.244c0.393-0.27,0.748-0.587,1.131-0.871c0.213-0.159,0.424-0.172,0.521,0.133
	c0.436,1.369,1.667,1.391,2.762,1.586c0.525,0.095,1.08,0.066,1.609-0.107c0.247-0.082,0.5-0.109,0.731,0.059
	c1.56,1.146,3.399,1.549,5.238,1.936c0.601,0.127,1.145,0.299,1.635,0.703c0.535,0.445,1.215,0.639,1.885,0.411
	c0.777-0.263,1.359-0.079,1.873,0.507"/>
</svg>
