<?xml version="1.0" encoding="utf-8"?>
<!-- Generator: Adobe Illustrator 16.0.4, SVG Export Plug-In . SVG Version: 6.00 Build 0)  -->
<!DOCTYPE svg PUBLIC "-//W3C//DTD SVG 1.1//EN" "http://www.w3.org/Graphics/SVG/1.1/DTD/svg11.dtd">
<svg version="1.1" id="Layer_1_6" xmlns="http://www.w3.org/2000/svg" xmlns:xlink="http://www.w3.org/1999/xlink" x="0px" y="0px"
	 width="128px" height="128px" viewBox="0 0 128 128" enable-background="new 0 0 128 128" xml:space="preserve">
<g id="_x30_USU36.tif">
	<g>
		<g>
			<path fill-rule="evenodd" clip-rule="evenodd" d="M50.581,51.563c2.002-0.146,3.533,0.142,5.078-0.706
				c0.869-0.474,2.279-0.333,3.328-0.044c5.503,1.517,11.098,0.344,16.634,0.694c1.748,0.111,3.51,0.018,5.267,0.018
				c1.156,1.708,3.367-0.096,4.72,1.439c0.384,0.435,1.681,0.069,2.558,0.064c0.439-0.002,0.614-0.242,0.684-0.671
				c0.422-2.582,1.986-4.529,3.674-6.373c1.427-1.558,2.222-3.649,2.155-5.429c-0.067-1.81-0.448-3.951-1.718-5.618
				c-2.653-3.482-4.763-7.186-5.688-11.578c-0.641-3.034-0.941-5.39-0.154-8.132c0.39-1.353,0.576-2.767,0.995-4.107
				c0.31-0.992,0.644-1.983,1.395-2.816c1.873-2.077,3.311-2.525,6.162-1.452c0.888,0.335,1.024,0.313,1.514-0.607
				c1.36-2.558,3.804-3.139,6.532-2.891c1.155,0.104,1.881,1.031,2.221,1.777c1.154,2.544,2.68,4.98,2.506,8.006
				c-0.164,2.875-0.303,5.798,0.03,8.644c0.452,3.866,0.999,7.724,2.081,11.521c0.585,2.053,1.75,2.995,3.334,3.938
				c2.424,1.442,5.133,2.409,7.195,4.475c0.824,0.826,1.766,1.545,1.598,2.798c-0.288,2.165,0.548,4.013,1.557,5.76
				c1.47,2.542,2.711,5.114,3.408,8.009c0.824,3.429,0.043,5.363-2.898,7.591c-2.489,1.886-5.086,2.894-8.196,3.005
				c-2.364,0.085-3.774,1.495-4.415,3.883c-1.236,4.605-2.928,9.031-5.182,13.281c-2.369,4.47-5.283,8.275-9.99,10.385
				c-2.322,1.041-3.621,2.646-3.607,5.229c0.002,0.251,0.035,0.509-0.006,0.753c-0.229,1.341-1.553,2.569-0.375,4.051
				c0.85,1.07-0.134,2.719,1.133,3.669c0.293,3.466,3.005,4.78,5.676,5.23c2.895,0.488,4.383,2.429,6.205,4.146
				c0.392,0.369,0.158,0.864-0.221,1.274c-0.762,0.824-1.849,1.001-2.789,1.46c-0.303,0.147-0.747,0.065-1.116,0.017
				c-3.458-0.461-6.669,0.477-9.833,1.706c-3.26,1.269-6.477,0.874-9.238-1.043c-1.15-0.8-2.126-2.19-3.051-3.403
				c-1.943-2.553-3.6-5.336-5.657-7.787c-1.749-2.084-1.339-4.094-0.239-6.017c0.987-1.73,2.309-3.337,2.545-5.327
				c0.128-1.068,1.859-1.52,0.917-2.826c-0.903,0.459-1.928,0.77-2.688,1.401c-2.837,2.354-6.396,3.557-9.235,5.839
				c-1.238,0.996-2.664,1.545-3.981,2.271c-2.522,1.389-4.524,3.456-6.993,4.887c-0.629,0.364-1.154,0.984-1.592,1.585
				c-0.572,0.786,0.118,1.88,1.137,1.952c1.305,0.092,2.615-0.26,3.881,0.678c0.566,0.418,1.848,0.367,2.555,0.02
				c2.981-1.467,6.1-0.577,9.122-0.596c1.647-0.009,3.433,0.642,4.726,2.161c1.732,2.038,1.416,4.403-1.161,5.172
				c-1.202,0.358-2.378,1.055-3.808,0.896c-1.139-0.127-2.448-0.497-3.498,0.646c-0.213,0.231-1.086,0.042-1.718-0.217
				c-3.46-1.412-7.04-2.228-10.841-2.021c-2.751,0.149-5.523,0.146-8.274-0.009c-2.108-0.119-3.941,1.144-6.094,0.838
				c-1.917-0.271-4.807-2.206-5.493-3.941c-0.231-0.582,0.313-0.525,0.363-0.812c0.057-0.335,0.219-0.759,0.083-1.002
				c-0.34-0.604-0.597,0.012-0.757,0.201c-1.613,1.9-4.144,1.514-6.136,2.471c-0.406,0.195-0.877-0.143-1.339-0.349
				c-1.617-0.725-3.46-0.747-4.999-0.112c-2.456,1.014-4.897,0.287-7.329,0.398c-0.703,0.031,0.257-0.639,0.229-0.95
				c-0.062-0.692-0.692-0.39-1.106-0.471c-0.718-0.141-1.854,0.542-1.833-1.065c0.007-0.549-0.765-0.434-1.243-0.435
				c-1.471-0.001-2.807-0.145-3.313-1.92c-0.141-0.497-0.791-0.493-1.243-0.13c-0.333,0.269-1.095,0.781-0.829,0.002
				c0.482-1.408-2.065-0.199-1.234-1.834c0.507-0.998-0.827-1.287-1.661-1.567c-0.269-0.091-0.214-0.36,0.113-0.515
				c0.364-0.17,1.091,0.167,1.013-0.529c-0.024-0.223-0.954-0.246-1.185-0.565c-0.364-0.505-0.844-1.538-0.653-1.73
				c0.926-0.935-1.347-2.317,0.499-2.968c-0.332-1.432,1.111-1.055,1.67-1.449c0.702-0.496,1.493-1.25,2.533-1.086
				c1.454,0.229,1.986-0.283,1.85-1.801c-0.145-1.617,0.036-3.261-0.047-4.888c-0.151-2.931,0.561-5.666,1.46-8.427
				c0.469-1.438,1.021-2.893,0.882-4.566c-0.159-1.899,0.583-3.643,1.819-5.248c1.351-1.753,2.207-3.885,3.531-5.661
				c4.323-5.802,9.45-10.743,15.792-14.356c3.044-1.735,6.111-3.305,9.493-4.371c1.2-0.378,2.84,0.423,3.666-1.109
				C46.039,52.693,48.397,50.707,50.581,51.563z"/>
		</g>
	</g>
</g>
</svg>
