<?xml version="1.0" encoding="utf-8"?>
<!-- Generator: Adobe Illustrator 16.0.4, SVG Export Plug-In . SVG Version: 6.00 Build 0)  -->
<!DOCTYPE svg PUBLIC "-//W3C//DTD SVG 1.1//EN" "http://www.w3.org/Graphics/SVG/1.1/DTD/svg11.dtd">
<svg version="1.1" id="Layer_0203" xmlns="http://www.w3.org/2000/svg" xmlns:xlink="http://www.w3.org/1999/xlink" x="0px" y="0px"
	 width="128px" height="128px" viewBox="0 0 128 128" enable-background="new 0 0 128 128" xml:space="preserve">
<path fill-rule="evenodd" clip-rule="evenodd" d="M109.402,22.733c-0.305-1.316-0.655-2.625-0.908-3.953
	c-0.481-2.524,0.297-4.661,2.19-6.365c1.285-1.156,1.979-0.895,2.404,0.82c0.021,0.088,0.031,0.178,0.056,0.266
	c0.276,0.996-0.281,2.32,0.946,2.932c1.068,0.532,1.829-0.493,2.734-0.797c0.917-0.307,1.63-0.001,2.06,0.816
	c0.331,0.634,0.758,1.34,0.748,2.009c-0.033,2.251,1.385,3.196,3.167,3.905c0.336,0.134,0.684,0.246,1.002,0.414
	c0.877,0.466,1.917,0.875,1.946,2.051c0.032,1.345-1.145,1.782-2.112,2.201c-1.497,0.647-3.103,0.988-4.723,1.194
	c-2.062,0.262-2.083,0.255-1.108,1.907c3.511,5.95,3.079,11.904,0.038,17.862c-3.022,5.919-7.907,10.101-13.223,13.781
	c-7.586,5.254-16.051,8.666-24.854,11.302c-11.45,3.43-23.119,5.197-35.091,4.628c-2.349-0.111-4.691-0.372-7.037-0.563
	c-0.063-0.048-0.127-0.096-0.191-0.145c0.076,0.037,0.153,0.072,0.229,0.109c5.593,3.271,11.651,5.391,17.882,7.002
	c8.615,2.227,17.343,2.689,26.12,1.067c5.624-1.037,11.029-2.845,16.318-5c1.174-0.478,2.358-0.935,3.504-1.472
	c3.848-1.802,7.378-1.221,10.679,1.329c0.415,0.323,0.858,0.966,1.336,0.703c0.266-0.146,0.174-0.991,0.193-1.522
	c0.062-1.646,0.347-3.228,1.102-4.721c0.78-1.539,1.985-2.564,3.582-3.141c1.498-0.543,2.102-0.085,1.887,1.438
	c-0.113,0.801-0.409,1.583-0.476,2.386c-0.101,1.188,0.331,1.868,1.734,1.722c2.638-0.276,3.583,0.547,2.964,3.113
	c-0.566,2.354,0.245,3.8,1.923,5.171c0.964,0.788,2.244,1.691,1.591,3.129c-0.64,1.407-2.204,1.413-3.55,1.338
	c-1.258-0.069-2.508-0.332-3.754-0.556c-2.269-0.409-2.33-0.411-1.864,1.953c0.318,1.624,0.407,3.21,0.16,4.85
	c-0.926,6.181-4.509,10.534-9.515,13.896c-6.786,4.553-14.509,6.406-22.436,7.572c-5.846,0.86-11.75,0.959-17.634,0.613
	c-14.786-0.865-29.045-3.895-42.202-11.013c-4.915-2.658-9.175-6.133-12.395-10.786c-2.011-2.906-3.354-6.017-3.046-9.626
	c0.121-1.418-0.569-1.023-1.259-0.693c-1.742,0.833-3.544,1.332-5.5,1.269c-1.634-0.052-2.998-0.692-4.135-1.8
	c-1.037-1.009-0.879-1.684,0.436-2.179c0.334-0.127,0.712-0.131,1.059-0.231c2.778-0.796,2.859-0.871,1.565-3.366
	c-0.701-1.353-0.373-2.238,0.823-2.938c0.462-0.272,0.978-0.547,1.496-0.613c2.045-0.266,2.868-1.686,3.392-3.42
	c0.104-0.346,0.128-0.716,0.239-1.061c0.338-1.048,0.681-2.217,1.983-2.31c1.279-0.092,1.889,0.994,2.365,1.96
	c0.557,1.13,0.945,2.345,1.381,3.531c0.258,0.704,0.408,1.48,1.352,0.547c1.451-1.437,3.247-2.272,5.183-2.843
	c0.881-0.262,0.957-0.628,0.147-1.161c-3.125-2.053-5.443-4.747-6.541-8.385c-0.267-0.885-0.672-0.608-1.115-0.152
	c-1.017,1.043-2.131,1.957-3.403,2.683c-1.855,1.058-3.776,1.222-5.747,0.427c-1.591-0.641-1.703-1.441-0.409-2.525
	c0.207-0.174,0.446-0.31,0.667-0.468c2.358-1.698,2.381-1.724,0.162-3.774c-1.013-0.936-0.999-1.833-0.197-2.837
	c0.112-0.14,0.233-0.293,0.385-0.379c2.621-1.488,3.563-3.636,2.815-6.605c-0.216-0.855,0.012-1.917,0.872-2.42
	c0.992-0.581,1.927-0.078,2.727,0.599c1.182,1,2.216,2.138,3.09,3.419c0.384,0.563,0.805,0.743,1.187,0.003
	c3.428-6.632,9.315-7.105,15.658-6.093c5.833,0.93,11.675,1.416,17.581,1.351c16.284-0.18,30.433-5.741,42.479-16.688
	c1.811-1.645,3.693-3.211,5.464-4.896c2.705-2.575,5.87-3.018,9.337-2.181c0.704,0.169,1.377,0.451,2.12,0.377l0.049,0.117
	L109.402,22.733z M76.223,70.067c-0.188,0.079-0.376,0.159-0.564,0.237c0.062,0.019,0.155,0.071,0.186,0.048
	c0.122-0.096,0.227-0.217,0.338-0.328c0.198-0.068,0.396-0.138,0.596-0.208c-0.061-0.018-0.145-0.071-0.179-0.049
	C76.465,69.855,76.347,69.967,76.223,70.067z M77.347,44.519c-1.193,0.083-2.256,0.602-3.361,0.989
	c-7.637,2.681-15.497,4.221-23.589,4.536c-6.523,0.254-13.015-0.186-19.485-0.963c-2.478-0.297-4.678,0.158-6.445,2.028
	c-0.368,0.389-0.8,0.853-0.644,1.405c0.173,0.61,0.828,0.584,1.361,0.673c4.456,0.737,8.917,1.375,13.426,1.748
	c9.711,0.801,19.143-0.27,28.166-4.02c3.817-1.587,7.585-3.371,10.53-6.44c0.065-0.017,0.14-0.022,0.194-0.056
	c0.029-0.02,0.026-0.091,0.038-0.139C77.473,44.36,77.41,44.44,77.347,44.519z M62.467,92.823c1.533,0.106,3.939-0.426,6.358-0.727
	c2.057-0.253,4.094-0.71,6.07-1.379c0.248-0.085,0.542-0.085,0.645-0.4c-0.25-0.076-0.496-0.199-0.751-0.218
	c-0.542-0.04-1.085-0.024-1.629-0.034c-9.662-0.182-19.052-1.776-28.123-5.197c-5.083-1.918-10.053-4.073-14.918-6.481
	c-2.066-1.021-4.182-1.12-6.244-0.022c-1.34,0.713-1.368,1.257-0.031,1.994c3.402,1.881,6.808,3.766,10.301,5.47
	C42.782,90.044,51.89,92.498,62.467,92.823z M102.133,107.115c0.176-1.608-0.673-1.249-1.476-0.876
	c-4.696,2.188-9.572,3.815-14.673,4.759c-1.014,0.188-1.747,0.761-1.472,1.864c0.255,1.019,1.177,0.582,1.828,0.498
	c4.777-0.62,9.347-2.055,13.913-3.532C101.748,109.344,102.31,108.49,102.133,107.115z M93.859,63.309
	c0.321-0.163,0.646-0.321,0.963-0.491c4.294-2.312,8.229-5.156,12.099-8.105c1.219-0.93,1.42-1.872,0.773-3.238
	c-0.458-0.97-0.688-1.344-1.599-0.365c-3.4,3.651-7.483,6.462-11.596,9.23c-0.444,0.299-0.93,0.556-1.321,0.914
	c-0.481,0.437-0.245,1.007-0.104,1.522C93.179,63.157,93.431,63.381,93.859,63.309z M115.876,40.533
	c0.039-1.248-0.061-2.415-0.504-3.531c-0.085-0.217-0.043-0.552-0.36-0.571c-0.123-0.008-0.346,0.191-0.381,0.331
	c-0.52,2.119-1.399,4.095-2.308,6.069c-0.272,0.594,1.219,3.644,1.616,3.513c1.113-0.371,1.021-1.549,1.34-2.423
	C115.681,42.816,115.981,41.672,115.876,40.533z M108.988,102.075c0.052,0.355,0.052,0.73,0.169,1.064
	c0.166,0.463-0.007,1.191,0.714,1.271c0.482,0.054,0.748-0.441,1.042-0.767c1.605-1.768,2.741-3.788,3.193-6.15
	c0.118-0.616,0.364-1.581-0.057-1.797c-0.68-0.352-0.875,0.634-1.263,1.059c-1.032,1.128-1.998,2.319-3.073,3.402
	C109.151,100.727,108.881,101.299,108.988,102.075z M70.342,113.97c0,0.041,0,0.083,0,0.126c1.624,0,3.248,0.004,4.871-0.003
	c0.571-0.002,1.221-0.156,1.21-0.786c-0.014-0.916-0.77-0.447-1.216-0.41c-3.054,0.254-6.105,0.536-9.157,0.817
	c-0.284,0.025-0.562,0.112-0.842,0.172c0.269,0.028,0.537,0.078,0.805,0.08C67.456,113.974,68.898,113.97,70.342,113.97z
	 M85.825,66.543c-0.039-0.679-0.437-0.848-0.912-0.63c-2.049,0.941-4.078,1.921-6.106,2.906c-0.164,0.079-0.534,0.161-0.325,0.484
	c0.059,0.092,0.352,0.106,0.501,0.054c2.128-0.735,4.255-1.478,6.368-2.254C85.562,67.026,85.687,66.714,85.825,66.543z"/>
</svg>
