<?xml version="1.0" encoding="utf-8"?>
<!-- Generator: Adobe Illustrator 16.0.4, SVG Export Plug-In . SVG Version: 6.00 Build 0)  -->
<!DOCTYPE svg PUBLIC "-//W3C//DTD SVG 1.1//EN" "http://www.w3.org/Graphics/SVG/1.1/DTD/svg11.dtd">
<svg version="1.1" id="Layer_2_3" xmlns="http://www.w3.org/2000/svg" xmlns:xlink="http://www.w3.org/1999/xlink" x="0px" y="0px"
	 width="128px" height="128px" viewBox="0 0 128 128" enable-background="new 0 0 128 128" xml:space="preserve">
<g>
	<g>
		<path fill-rule="evenodd" clip-rule="evenodd" d="M122.223,58.738c-0.092,10.673-1.959,20.161-5.508,29.357
			c-4.924,12.758-12.57,23.548-22.857,32.525c-4.664,4.07-9.805,4.943-15.43,2.505c-1.508-0.653-1.924-0.198-2.244,1.125
			c-0.203,0.841-0.554,1.647-0.871,2.456c-0.252,0.642-0.719,1.039-1.445,1.025c-0.75-0.014-1.157-0.527-1.379-1.134
			c-0.411-1.124-0.621-2.31-0.545-3.503c0.07-1.107-0.445-1.579-1.457-1.753c-1.094-0.189-2.17-0.456-3.158-0.995
			c-0.584-0.318-1.111-0.741-1.068-1.443c0.045-0.76,0.514-1.311,1.253-1.584c0.074-0.026,0.153-0.043,0.228-0.068
			c1.25-0.43,3.174-0.01,3.674-1.062c0.459-0.973-0.471-2.539-0.594-3.862c-0.441-4.729,1.053-8.732,4.686-11.872
			c4.038-3.492,7.617-7.389,10.525-11.885c4.094-6.33,6.88-13.176,8.109-20.624c1.031-6.236,1.086-12.493-0.417-18.646
			C90.76,37.177,82.255,29.243,69.251,27.814c-4.603-0.506-9.188-0.448-13.72,0.517c-9.458,2.01-16.061,7.497-19.761,16.455
			C33.543,50.178,33,55.84,33.29,61.577c0.789,15.632,7.372,28.456,19.089,38.716c4.277,3.747,5.766,8.365,4.496,13.891
			c-0.509,2.213-0.499,2.155,1.679,2.691c1.233,0.302,3.066,0.121,3.144,1.924c0.08,1.914-1.844,2.067-3.104,2.259
			c-1.899,0.29-2.551,1.156-2.477,2.965c0.033,0.77-0.205,1.577-0.452,2.323c-0.224,0.674-0.606,1.328-1.458,1.385
			c-0.861,0.059-1.291-0.521-1.559-1.219c-0.337-0.887-0.639-1.789-0.906-2.699c-0.309-1.045-0.732-1.336-1.855-0.797
			c-3.59,1.727-7.282,1.936-11.067,0.521c-1.677-0.626-3.096-1.591-4.415-2.737C18.813,107.248,9.581,90.207,6.587,69.801
			c-1.994-13.596-0.378-26.77,5.684-39.15c6.258-12.78,16.133-21.775,29.587-26.69c8.623-3.15,17.53-4.112,26.654-3.538
			c7.092,0.446,13.963,1.798,20.51,4.642c10.107,4.391,18.08,11.229,23.963,20.568c4.998,7.937,7.625,16.657,8.816,25.86
			C122.145,54.158,122.121,56.872,122.223,58.738z M49.847,9.782c-0.405,0.113-0.86,0.243-1.315,0.365
			c-3.84,1.023-7.473,2.51-10.95,4.466c-6.208,3.491-11.3,8.211-15.155,14.118c-7.744,11.871-9.802,25.043-8.191,38.92
			c1.023,8.815,3.619,17.166,7.733,25.038c2.911,5.57,6.371,10.764,10.679,15.357c1.277,1.362,2.671,1.498,3.751,0.527
			c1.121-1.006,1.044-2.584-0.205-3.977c-5.122-5.708-9.153-12.084-12.079-19.195c-5.756-13.994-7.549-28.214-2.764-42.869
			c4.072-12.47,11.963-21.414,24.311-26.201c1.693-0.657,3.445-1.16,5.161-1.757c1.36-0.473,1.796-1.529,1.521-2.835
			C52.08,10.494,51.072,10.019,49.847,9.782z"/>
	</g>
</g>
</svg>
