<?xml version="1.0" encoding="utf-8"?>
<!-- Generator: Adobe Illustrator 16.0.4, SVG Export Plug-In . SVG Version: 6.00 Build 0)  -->
<!DOCTYPE svg PUBLIC "-//W3C//DTD SVG 1.1//EN" "http://www.w3.org/Graphics/SVG/1.1/DTD/svg11.dtd">
<svg version="1.1" id="Layer_0206" xmlns="http://www.w3.org/2000/svg" xmlns:xlink="http://www.w3.org/1999/xlink" x="0px" y="0px"
	 width="128px" height="128px" viewBox="0 0 128 128" enable-background="new 0 0 128 128" xml:space="preserve">
<g>
	<path fill-rule="evenodd" clip-rule="evenodd" d="M35.481,103.339c-2.656-4.907-5.663-9.601-8.645-14.313
		c-4.885-7.719-5.846-16.068-3.522-24.83c1.856-6.996,5.373-12.998,10.959-17.684c0.786-0.659,1.109-1.363,1.095-2.345
		c-0.021-1.596,0.068-3.194,0.027-4.79c-0.053-2.045-0.157-2.164-2.118-2.225c-2.28-0.069-4.562-0.042-6.843-0.065
		c-0.799-0.008-1.602,0.01-2.394-0.075c-2.125-0.229-3.473-1.72-3.612-3.827c-0.219-3.34,3.6-7.542,7.142-6.26
		c1.978,0.716,4.067,0.375,6.107,0.484c0.828,0.045,1.246-0.431,1.239-1.257c-0.042-5.274-0.282-10.493-3.609-14.986
		c-0.812-1.095-1.353-2.417-2.263-3.408c-1.063-1.156-0.8-2.295-0.365-3.466c0.844-2.27,4.494-4.457,6.884-4.281
		c1.267,0.093,2.11,0.743,2.768,1.75c0.81,1.239,1.566,2.521,2.462,3.695c1.092,1.429,1.569,1.486,3.166,0.654
		c0.605-0.314,1.193-0.67,1.758-1.053c0.993-0.674,1.715-2.072,3.202-1.485c1.693,0.669,3.415,1.406,4.185,3.277
		c0.345,0.838,0.733,1.687,0.887,2.568c0.266,1.519,0.191,2.969-1.528,3.758c-0.5,0.229-0.848,0.778-1.338,1.047
		c-3.55,1.947-4.46,5.229-4.576,8.923c-0.022,0.685,0.006,1.372-0.049,2.052c-0.127,1.548-0.098,2.966,1.895,3.326
		c0.116,0.021,0.127,0.627,0.187,0.96c-0.745,0.208-0.548,0.882-0.687,1.39c-0.188,0.254-0.438,0.484-0.546,0.769
		c-0.103,0.268-0.114,0.609,0.221,0.805c0.063-0.21,0.151-0.417,0.182-0.632c0.048-0.33,0.055-0.665,0.08-0.998
		c0.614-0.274,0.598-0.858,0.688-1.391c2.628-3.424,5.313-6.807,7.865-10.287c1.921-2.618,2.668-5.482,1.154-8.62
		c-0.295-0.608-0.416-1.298-0.645-1.94c-0.602-1.69-0.309-3.208,1.109-4.305c1.552-1.199,3.373-1.265,5.209-0.739
		c0.609,0.175,0.85,0.773,0.918,1.334c0.123,1.017,0.143,2.046,0.207,3.07c0.06,0.921,0.088,2.001,1.177,2.208
		c1.082,0.205,1.535-0.852,1.977-1.61c0.569-0.979,1.023-2.031,1.468-3.076c0.864-2.033,1.925-2.577,3.916-1.883
		c1.363,0.475,2.32,1.394,2.846,2.763c0.431,1.125-0.57,1.62-0.995,2.363c-0.282,0.492-0.635,0.946-0.94,1.425
		c-0.362,0.565-0.97,1.285-0.292,1.788c0.569,0.423,1.241-0.298,1.725-0.687c0.795-0.637,1.545-1.363,2.18-2.158
		c0.812-1.017,1.699-1.504,2.923-0.826c1.161,0.645,1.989,1.532,1.831,2.998c-0.023,0.226-0.041,0.468-0.137,0.667
		c-1.447,3.022,0.037,5.246,1.996,7.332c1.168,1.243,2.562,2.29,3.431,3.793c0.45,0.779,0.981,1.544,0.983,2.516
		c0.002,0.679,0.294,1.114,1.045,0.875c1.992-0.635,4.123-0.123,6.09-0.692c1.211-0.352,1.955,0.035,2.704,0.83
		c2.181,2.314,2.879,7.156,1.442,9.949c-0.479,0.931-1.287,1.098-2.238,1.272c-3.131,0.572-6.339,0.444-9.456,1.2
		c-1.699,0.412-3.269,1.016-4.661,2.004c-1.335,0.947-3.004,1.587-3.561,3.372c1.453,0.473,2.93-0.045,4.385,0.095
		c4.123,0.397,8.158-0.507,12.229-0.833c1.436-0.114,2.473,0.065,3.121,1.365c0.762,1.527,1.633,3.107,0.807,4.849
		c-0.533,1.121-1.653,1.461-2.869,1.528c-0.613,0.033-1.301-0.13-1.821,0.392c0.671,0.082,1.339,0.18,2.012,0.24
		c0.453,0.041,0.913,0.015,1.367,0.047c2.212,0.16,2.747,0.666,3.013,2.854c0.041,0.338,0.062,0.686,0.036,1.024
		c-0.265,3.485,0.993,3.838-3.88,4.095c-0.975,0.051-0.858,0.343-0.586,0.949c1.957,4.354,3.934,8.699,5.861,13.065
		c2.134,4.833,3.212,9.868,3.484,15.18c0.327,6.368,0.672,12.728,0.627,19.106c-0.027,3.919-0.719,7.666-2.175,11.306
		c-1.265,3.161-3.459,5.282-6.611,6.474c-4.333,1.637-8.899,2.162-13.413,1.778c-3.379-0.286-6.785-0.409-10.172-0.942
		c-9.862-1.553-19.238-4.439-28.038-9.168l0.039,0.033c-0.502-0.744-1.13-1.298-2.072-1.383l-0.011-0.01
		c-0.065-0.389-0.293-0.613-0.68-0.679l-0.001-0.001c-0.227-0.227-0.453-0.453-0.679-0.68l-0.008-0.008
		c0.038-0.535-0.073-0.998-0.603-1.262l-0.15-0.17c-0.19-0.193-0.381-0.387-0.571-0.58l-0.082-0.08
		c-0.091-0.324-0.239-0.594-0.624-0.626l-0.041-0.045c-0.065-0.507-0.157-1-0.638-1.304l-0.054-0.062
		c-0.217-0.217-0.434-0.436-0.65-0.652l-0.018-0.018c-0.207-0.208-0.413-0.416-0.619-0.625l-0.12-0.119
		c-0.17-0.175-0.341-0.349-0.511-0.523l-0.202-0.217c-0.02-0.492-0.111-0.95-0.582-1.229l-0.021-0.024
		c-0.093-0.343-0.255-0.617-0.654-0.656l-0.046-0.053c-0.101-0.476-0.108-0.996-0.615-1.275l-0.083-0.097
		c-0.105-0.302-0.22-0.596-0.61-0.616l-0.081-0.095c-0.093-0.45-0.109-0.938-0.57-1.216L35.481,103.339z M66.325,28.744
		c0.402-0.054,0.672-0.24,0.679-0.686c3.122,0.361,6.231-0.103,9.347-0.144c0.319-0.004,0.701-0.116,0.723-0.516
		c0.022-0.41-0.352-0.506-0.669-0.554c-1.661-0.252-3.259-0.825-4.985-0.772c-1.785,0.055-3.332,0.444-4.354,2.043
		c-0.228,0.227-0.455,0.454-0.684,0.681c-0.075,0.054-0.158,0.101-0.223,0.165c-0.04,0.039-0.053,0.105-0.076,0.158
		C66.163,28.994,66.245,28.869,66.325,28.744z M99.226,32.129c0.256-1.229-0.264-2.672-1.365-3.92
		c-0.202-0.228-0.508-0.491-0.775-0.502c-0.366-0.015-0.497,0.384-0.498,0.72c0,1.463-0.175,2.964,0.098,4.377
		c0.219,1.128,0.27,3.128,1.498,3.04C99.257,35.766,99.192,33.821,99.226,32.129z M35.35,1.309
		c-2.644-0.086-4.518,1.126-5.747,3.389c-0.142,0.259-0.172,0.706-0.044,0.958c0.26,0.511,0.726,0.299,1.154,0.152
		c1.957-0.674,3.405-2.129,5.052-3.278c0.26-0.182,0.629-0.518,0.602-0.738C36.297,1.242,35.736,1.374,35.35,1.309z M47.119,35.098
		c-0.21-0.288,0.169-0.759-0.327-1.009c-0.066,0.438-0.181,0.876-0.182,1.314c0,0.36-0.167,0.797,0.26,1.066
		C46.95,36.032,47.03,35.594,47.119,35.098z M65.297,36.821l0.103-0.191l-0.152-0.021L65.297,36.821z M64.607,35.465l0.112-0.232
		l-0.166-0.021L64.607,35.465z"/>
</g>
</svg>
