<?xml version="1.0" encoding="utf-8"?>
<!-- Generator: Adobe Illustrator 16.0.4, SVG Export Plug-In . SVG Version: 6.00 Build 0)  -->
<!DOCTYPE svg PUBLIC "-//W3C//DTD SVG 1.1//EN" "http://www.w3.org/Graphics/SVG/1.1/DTD/svg11.dtd">
<svg version="1.1" id="Layer_0207" xmlns="http://www.w3.org/2000/svg" xmlns:xlink="http://www.w3.org/1999/xlink" x="0px" y="0px"
	 width="128px" height="128px" viewBox="0 0 128 128" enable-background="new 0 0 128 128" xml:space="preserve">
<g>
	<g>
		<path fill="#FFFFFF" d="M22.185,34.565c-0.031-0.498,0.211-0.899,0.432-1.32c0.191-0.366,0.207-0.804-0.373-0.712
			c-0.761,0.121-1.516,0.431-1.744,1.252c-0.194,0.696-0.434,1.518,0.59,1.881c-0.29,0.836-0.939,1.139-1.76,1.189
			c-0.385-1.434-1.325-1.055-2.231-0.656c-1.002,0.441-1.484,1.261-1.164,2.302c0.23,0.749,0.754-0.076,1.146,0.015
			c-0.463,1.303-0.655,2.604,0.46,3.672c0.863,0.826,1.973,1.077,3.158,1.071c2.719-0.011,5.448,0.593,7.624,1.997
			c2.139,1.379,3.821,1,5.763,0.157c1.306-0.567,2.612-1.136,3.923-1.689c0.441-0.186,1.046-0.324,1.11-0.787
			c0.076-0.541-0.603-0.612-0.981-0.795c-2.873-1.387-5.42-3.126-7.062-5.979c-0.37-0.644-0.949-1.188-1.497-1.707
			C26.671,31.699,24.938,31.734,22.185,34.565z"/>
		<path fill="#FFFFFF" d="M7.859,52.321c-0.043-1.509,0.352-3.023-0.237-4.528c-0.362-0.925-0.825-1.439-1.882-1.289
			s-1.821,0.58-1.922,1.738c-0.066,0.763-0.128,1.581,0.384,2.204c0.731,0.889,0.578,1.54-0.092,2.442
			c-0.812,1.09-1.22,2.4-0.289,3.719c0.778,1.103,1.696,1.016,2.298-0.261c0.197-0.419,0.192-0.938,0.644-1.224
			c-0.018,0.286-0.053,0.571-0.052,0.857c0.006,2.145,0.371,2.621,2.354,2.681c1.329,0.04,2.702,0.065,3.989-0.211
			c6.685-1.431,12.422,0.517,17.498,4.797c3.276,2.763,6.441,5.659,9.685,8.46c1.006,0.869,2.009,1.85,3.193,2.385
			c4.884,2.213,9.916,3.73,15.412,3.604c4.781-0.109,8.23-2.691,9.912-7.209c2.317-6.23,1.566-12.346-1.139-18.252
			c-1.308-2.857-2.916-5.605-5.417-7.634c-4.81-3.899-10.22-4.841-16.117-3.049c-2.732,0.831-5.37,1.91-7.989,3.049
			c-3.137,1.364-6.283,2.691-9.551,3.753c-3.572,1.16-7.057,1.26-10.663,0.308c-2.751-0.727-5.562-1.227-8.333-1.888
			c-0.997-0.238-1.263,0.189-1.074,1.006C8.841,49.387,8.902,50.92,7.859,52.321z"/>
		<path fill="#FFFFFF" d="M115.601,87.254c2.511,1.012,4.566,0.213,6.385-1.584c0.951-0.939,2.009-1.779,2.881-2.783
			c3.891-4.477,4.793-11.426-1.906-15.004c-2.703-1.441-4.035-3.937-5.062-6.674c-1.102-2.938-1.901-5.988-3.336-8.803
			c-1.744-3.418-4.197-6.078-7.748-7.696c-3.078-1.402-6.266-2.137-9.65-2.287c-4.999-0.221-9.871,0.759-14.775,1.388
			c-5.238,0.673-10.418,1.001-15.555-0.609c-0.99-0.311-2.03-0.484-3.059-0.637c-0.405-0.061-0.949-0.564-1.227,0
			c-0.171,0.346,0.399,0.565,0.684,0.801c3.714,3.09,6.076,7.049,7.341,11.667c1.733,6.319,1.476,12.43-2.077,18.166
			c-1.867,3.016-4.49,4.832-7.993,5.451c-1.905,0.336-3.794,0.271-5.67-0.023c-6.012-0.947-11.686-2.68-16.065-7.258
			c-0.198-0.207-0.392-0.42-0.609-0.605c-2.901-2.478-5.772-4.991-8.721-7.41c-1.729-1.419-1.796-1.33-2.802,0.615
			c-1.637,3.16-2.53,6.566-3.308,10c-0.696,3.073-1.98,5.734-4.563,7.682c-0.909,0.685-1.73,1.497-2.531,2.311
			c-2.075,2.107-4.028,4.326-5.536,6.885c-0.715,1.212-0.539,1.506,0.754,1.623c0.569,0.052,1.151-0.004,1.717,0.064
			c4.241,0.51,8.577,0.275,12.708,1.652c1.351,0.45,2.71,0.909,4.101,1.195c5.335,1.094,10.774,1.41,16.186,1.541
			c8.587,0.205,17.184,0.023,25.778-0.003c0.665-0.002,1.336-0.035,1.992-0.13c0.247-0.035,0.541-0.236,0.674-0.449
			c0.195-0.312-0.156-0.436-0.354-0.618c-2.548-2.36-2.834-4.019-1.207-7.026c1.012-1.869,2.375-3.451,3.992-4.82
			c1.675-1.416,3.406-2.77,5.025-4.247c3.238-2.956,6.502-5.893,9.369-9.228c0.178-0.207,0.292-0.469,0.436-0.706
			c-0.268-0.075-0.535-0.22-0.8-0.214c-1.729,0.042-3.429-0.212-5.097-0.597c-4.715-1.089-8.688-3.317-11.346-7.536
			c-1.918-3.046-1.847-6.527-2.242-9.907c-0.019-0.147,0.133-0.415,0.264-0.461c0.465-0.165,0.374,0.257,0.396,0.479
			c0.059,0.567,0.068,1.14,0.104,1.71c0.408,6.645,5.125,12.738,11.131,14.518c2.748,0.812,5.556,1.195,8.418,1.235
			c0.275,0.005,0.695,0.015,0.797,0.178c0.236,0.382-0.16,0.653-0.396,0.907c-3.375,3.631-6.709,7.299-10.49,10.531
			c-1.811,1.549-3.512,3.236-5.158,4.958c-1.249,1.308-2.336,2.745-2.791,4.587c-0.536,2.169-0.015,4.01,1.725,5.312
			c1.002,0.752,2.137,1.324,3.359,1.534c1.963,0.339,3.918,0.708,5.943,0.711c2.492,0.003,4.938-0.343,7.402-0.563
			c5.328-0.477,10.541-1.559,15.675-2.988c2.692-0.75,5.056-2.182,6.925-4.355c0.79-0.92,0.654-1.68-0.075-2.488L115.601,87.254z"/>
		<path fill-rule="evenodd" clip-rule="evenodd" d="M115.609,87.244c0.729,0.809,0.865,1.568,0.075,2.488
			c-1.869,2.174-4.232,3.605-6.925,4.355c-5.134,1.43-10.347,2.512-15.675,2.988c-2.465,0.221-4.91,0.566-7.402,0.563
			c-2.025-0.003-3.98-0.372-5.943-0.711c-1.223-0.21-2.357-0.782-3.359-1.534c-1.739-1.303-2.261-3.144-1.725-5.312
			c0.455-1.842,1.542-3.279,2.791-4.587c1.646-1.722,3.348-3.409,5.158-4.958c3.781-3.232,7.115-6.9,10.49-10.531
			c0.236-0.254,0.633-0.525,0.396-0.907c-0.102-0.163-0.521-0.173-0.797-0.178c-2.862-0.04-5.67-0.423-8.418-1.235
			c-6.006-1.779-10.723-7.873-11.131-14.518c-0.078-1.282,0.016-2.562-0.059-3.846c-0.185-0.083-0.326-0.115-0.497-0.141
			c-0.594-0.086,0.079,5.269,0.124,5.664c0.252,2.27,0.674,4.539,1.91,6.502c2.657,4.219,6.631,6.447,11.346,7.536
			c1.668,0.385,3.367,0.639,5.097,0.597c0.265-0.006,0.532,0.139,0.8,0.214c-0.144,0.237-0.258,0.499-0.436,0.706
			c-2.867,3.335-6.131,6.271-9.369,9.228c-1.619,1.478-3.351,2.831-5.025,4.247c-1.617,1.369-2.98,2.951-3.992,4.82
			c-1.627,3.008-1.341,4.666,1.207,7.026c0.197,0.183,0.549,0.306,0.354,0.618c-0.133,0.213-0.427,0.414-0.674,0.449
			c-0.656,0.095-1.327,0.128-1.992,0.13c-8.594,0.026-17.19,0.208-25.778,0.003c-5.412-0.131-10.851-0.447-16.186-1.541
			c-1.39-0.286-2.75-0.745-4.101-1.195c-4.131-1.377-8.467-1.143-12.708-1.652c-0.566-0.068-1.147-0.013-1.717-0.064
			c-1.292-0.117-1.469-0.411-0.754-1.623c1.508-2.559,3.461-4.777,5.536-6.885c0.801-0.813,1.622-1.626,2.531-2.311
			c2.583-1.947,3.867-4.608,4.563-7.682c0.778-3.434,1.671-6.84,3.308-10c1.006-1.945,1.073-2.034,2.802-0.615
			c2.948,2.419,5.82,4.933,8.721,7.41c0.217,0.186,0.412,0.398,0.609,0.605c4.379,4.578,10.053,6.311,16.065,7.258
			c1.876,0.295,3.765,0.359,5.67,0.023c3.503-0.619,6.126-2.436,7.993-5.451c3.553-5.736,3.811-11.847,2.077-18.166
			c-1.265-4.617-3.627-8.576-7.341-11.667c-0.284-0.236-0.854-0.455-0.684-0.801c0.277-0.564,0.821-0.06,1.227,0
			c1.028,0.153,2.068,0.327,3.059,0.637c5.137,1.61,10.316,1.282,15.555,0.609c4.904-0.629,9.776-1.609,14.775-1.388
			c3.385,0.149,6.572,0.884,9.65,2.287c3.551,1.618,6.004,4.278,7.748,7.696c1.435,2.814,2.234,5.865,3.336,8.803
			c1.027,2.737,2.359,5.232,5.062,6.674c6.699,3.578,5.797,10.527,1.906,15.004c-0.872,1.004-1.93,1.844-2.881,2.783
			c-1.818,1.797-3.874,2.596-6.385,1.584c-0.182-0.618-0.724-0.484-1.166-0.559c-0.415-0.67-1.109-0.496-1.722-0.57
			c-0.229-0.154-0.437-0.371-0.688-0.452c-3.282-1.058-4.128-2.642-3.617-5.974c0.436-2.842,1.434-5.521,2.166-8.264
			c1.036-3.877-0.237-6.678-3.01-9.146c-3.02-2.688-6.686-4.363-10.104-6.423c-1.125-0.678-2.409-0.585-3.345,0.533
			c-1.13,1.349-2.396,1.157-3.869,0.64c-2.979-1.049-5.804-2.418-8.501-4.021c-2.865-1.705-5.654-3.543-7.979-5.982
			c-0.256-0.27-0.586-0.465-0.882-0.695c-0.086,0.463-0.186,0.922-0.254,1.387c-0.026,0.186,0.016,0.381,0.025,0.57
			c-0.144,0.207-0.363,0.399-0.408,0.627c-0.047,0.234,0.074,0.502,0.123,0.756c0.08-0.207,0.199-0.408,0.23-0.621
			c0.038-0.264,0.003-0.537,0-0.807c0.357,0.113,0.809,0.127,1.057,0.357c2.525,2.359,5.492,4.091,8.415,5.864
			c2.759,1.675,5.587,3.247,8.659,4.331c1.037,0.367,1.739,0.344,2.482-0.585c1.223-1.528,2.965-1.907,4.634-1.049
			c3.721,1.915,7.466,3.866,10.14,7.255c1.47,1.863,2.168,3.863,1.646,6.366c-0.544,2.6-1.054,5.206-1.717,7.78
			c-0.435,1.687-0.419,3.404-0.316,5.111c0.093,1.565,0.759,2.194,2.306,2.322c0.947,0.078,1.904,0.046,2.856,0.062
			c0.358,0.84,1.104,0.514,1.722,0.573C114.612,87.302,115.129,87.24,115.609,87.244z"/>
		<path fill-rule="evenodd" clip-rule="evenodd" fill="#FFFFFF" d="M72.175,48.226c0.168-1.15,0.693-2.134,1.591-1.19
			c2.325,2.439,5.114,4.277,7.979,5.982c2.697,1.604,5.521,2.973,8.501,4.021c1.474,0.518,2.739,0.709,3.869-0.64
			c0.936-1.118,2.22-1.211,3.345-0.533c3.418,2.06,7.084,3.735,10.104,6.423c2.772,2.469,4.046,5.27,3.01,9.146
			c-0.732,2.742-1.73,5.422-2.166,8.264c-0.511,3.332,0.335,4.916,3.617,5.974c0.252,0.081,0.46,0.298,0.688,0.452l0.049-0.057
			c-0.952-0.017-1.909,0.016-2.856-0.062c-1.547-0.128-2.213-0.757-2.306-2.322c-0.103-1.707-0.118-3.425,0.316-5.111
			c0.663-2.574,1.173-5.181,1.717-7.78c0.522-2.503-0.176-4.503-1.646-6.366c-2.674-3.389-6.419-5.34-10.14-7.255
			c-1.669-0.858-3.411-0.479-4.634,1.049c-0.743,0.929-1.445,0.952-2.482,0.585c-3.072-1.084-5.9-2.656-8.659-4.331
			c-1.905-1.156-3.83-2.29-5.636-3.599c-0.535-0.389-1.947-1.989-2.533-2.049c-0.965-0.1-0.586,0.618-0.813,1.409
			c-0.216,0.058-0.563,0.06-0.777-0.005C72.11,49.838,72.063,48.994,72.175,48.226z"/>
		<path fill-rule="evenodd" clip-rule="evenodd" fill="#FFFFFF" d="M72.601,48.252c0.003,0.27,0.038,0.543,0,0.807
			c-0.031,0.213-0.15,0.414-0.23,0.621c-0.049-0.254-0.17-0.521-0.123-0.756c0.045-0.228,0.265-0.42,0.408-0.627L72.601,48.252z"/>
		<path fill-rule="evenodd" clip-rule="evenodd" fill="#FFFFFF" d="M114.483,86.642c-0.618-0.06-1.363,0.267-1.722-0.573
			l-0.049,0.057c0.612,0.074,1.307-0.1,1.722,0.57L114.483,86.642z"/>
		<path fill-rule="evenodd" clip-rule="evenodd" fill="#FFFFFF" d="M115.609,87.244c-0.48-0.004-0.997,0.058-1.126-0.603
			l-0.049,0.054c0.442,0.074,0.984-0.06,1.166,0.559L115.609,87.244z"/>
		<path fill-rule="evenodd" clip-rule="evenodd" fill="#FFFFFF" d="M7.292,54.053c0.14-0.62-0.146-1.387,0.618-1.792
			C7.83,52.9,7.93,53.605,7.292,54.053z"/>
		<path fill-rule="evenodd" clip-rule="evenodd" fill="#FFFFFF" d="M6.715,55.195c0.076-0.471-0.013-1.026,0.622-1.209
			C7.245,54.449,7.36,55.018,6.715,55.195z"/>
		<path fill-rule="evenodd" clip-rule="evenodd" fill="#FFFFFF" d="M18.164,37.424c0.25-0.509,0.739-0.555,1.216-0.623
			C19.168,37.387,18.646,37.367,18.164,37.424z"/>
		<path fill-rule="evenodd" clip-rule="evenodd" fill="#FFFFFF" d="M17.025,38.58c0.028-0.394,0.242-0.604,0.635-0.635
			C17.562,38.271,17.368,38.501,17.025,38.58z"/>
		<path fill-rule="evenodd" clip-rule="evenodd" fill="#FFFFFF" d="M17.598,38.007c0.019-0.4,0.295-0.547,0.629-0.637
			C18.203,37.766,17.92,37.905,17.598,38.007z"/>
		<path fill-rule="evenodd" clip-rule="evenodd" fill="#FFFFFF" d="M21.032,35.71c0.086-0.336,0.289-0.558,0.635-0.635
			C21.628,35.461,21.417,35.673,21.032,35.71z"/>
		<path fill-rule="evenodd" clip-rule="evenodd" fill="#FFFFFF" d="M21.605,35.139c0.086-0.339,0.226-0.624,0.639-0.632
			C22.165,34.853,21.993,35.105,21.605,35.139z"/>
	</g>
	<path fill-rule="evenodd" clip-rule="evenodd" d="M70.425,52.018c-1.431-3.123-3.189-6.127-5.924-8.344
		c-5.257-4.262-11.17-5.292-17.617-3.333c-2.13,0.647-4.206,1.437-6.261,2.286c-1.234-0.658-4.611-2.803-4.989-3.04
		c-2.084-1.31-3.915-2.987-5.152-5.137c-0.405-0.704-1.038-1.298-1.637-1.866c-2.451-2.324-4.141-2.821-6.165-1.513
		c-1.013-0.283-2.777-0.284-3.077-0.087c-1.046,0.687-1.242,2.516-0.171,3.142c0.003,0.002,0.009,0.002,0.012,0.004
		c-0.287,0.592-0.772,0.895-1.381,1.009c-0.003-0.022,0.005-0.045,0.001-0.067c-1.229-0.489-1.248-1.293-2.862-0.582
		c-1.731,0.764-1.569,2.388-0.276,3.417c-0.265,1.119-0.204,2.204,0.762,3.129c0.943,0.904,2.157,1.178,3.453,1.172
		c2.684-0.011,5.611,0.515,7.97,1.864c1.082,0.619,2.117,1.921,3.272,2.777c-0.884,0.325-1.773,0.636-2.672,0.927
		c-3.905,1.27-7.713,1.378-11.655,0.337c-3.007-0.794-6.081-1.341-9.109-2.063c-1.083-0.259-1.376,0.204-1.175,1.09
		c-0.442-0.012-0.898,0.047-1.347-0.231c-0.652-0.406-0.185-1.36-1.636-1.152c-1.154,0.163-1.99,0.634-2.1,1.9
		c-0.072,0.834-0.141,1.728,0.42,2.408c0.798,0.973,0.632,1.686-0.1,2.67c-0.888,1.191-1.335,2.623-0.317,4.064
		c0.737,1.042,1.46,0.849,2.248,0.017C3.621,56.093,3.018,55.5,3.855,55.5c0.004,0,0.011,0,0.016,0
		c-0.008,0-0.021,0.366-0.021,0.484c0.006,2.345,0.406,2.929,2.572,2.995c1.453,0.043,2.955,0.102,4.361-0.199
		c7.307-1.564,13.58,0.581,19.127,5.258c3.581,3.021,7.04,6.195,10.586,9.257c1.1,0.948,2.196,2.025,3.49,2.61
		c5.339,2.419,10.84,4.08,16.847,3.941c5.226-0.119,8.996-2.942,10.834-7.88C74.2,65.156,73.38,58.474,70.425,52.018z"/>
</g>
</svg>
