<?xml version="1.0" encoding="utf-8"?>
<!-- Generator: Adobe Illustrator 16.0.4, SVG Export Plug-In . SVG Version: 6.00 Build 0)  -->
<!DOCTYPE svg PUBLIC "-//W3C//DTD SVG 1.1//EN" "http://www.w3.org/Graphics/SVG/1.1/DTD/svg11.dtd">
<svg version="1.1" id="Layer_0209" xmlns="http://www.w3.org/2000/svg" xmlns:xlink="http://www.w3.org/1999/xlink" x="0px" y="0px"
	 width="128px" height="128px" viewBox="0 0 128 128" enable-background="new 0 0 128 128" xml:space="preserve">
<g>
	<path d="M131.945,32.297c0-0.871-0.091-1.865,0.021-2.835c0.149-1.306-0.411-1.841-1.619-2.195
		c-10.056-2.938-20.405-4.101-30.775-5.078c-7.574-0.715-15.121-1.505-22.364-4.002c-1.168-0.402-2.105-0.267-3.139,0.364
		c-6.79,4.141-14.171,7.031-21.525,9.946c-5.412,2.145-10.934,4.009-16.385,6.059c-8.813,3.315-17.723,6.375-26.45,9.924
		c-4.181,1.701-8.311,3.506-12.36,5.502c-0.824,0.406-1.133,0.927-1.081,1.848c0.517,9.052,0.14,18.094-0.396,27.131
		c-0.067,1.145,0.379,1.868,1.195,2.505c6.863,5.365,14.468,9.388,22.582,12.49c8.13,3.109,16.549,5.374,24.676,8.507
		c4.772,1.839,9.488,3.832,13.817,6.5c2.303,1.42,4.21,1.317,6.408,0.382c5.349-2.277,10.068-5.584,14.622-9.116
		c5.271-4.089,10.253-8.526,15.246-12.948c7.104-6.293,14.1-12.71,21.534-18.624c4.723-3.757,9.618-7.216,15.125-9.725
		c0.9-0.41,1.182-0.846,1.011-1.776c-0.444-2.394-0.369-4.834-0.503-7.252C131.264,44.069,131.535,38.237,131.945,32.297z"/>
	<path fill-rule="evenodd" clip-rule="evenodd" fill="#FFFFFF" d="M134.16,31.264c-0.423,6.133-0.703,12.156-0.371,18.18
		c0.138,2.498,0.061,5.016,0.519,7.49c0.177,0.959-0.114,1.41-1.044,1.833c-5.686,2.59-10.741,6.162-15.616,10.041
		c-7.679,6.107-14.901,12.733-22.238,19.23c-5.154,4.566-10.3,9.149-15.742,13.372c-4.703,3.646-9.577,7.062-15.1,9.412
		c-2.269,0.967-4.239,1.073-6.616-0.393c-4.471-2.756-9.34-4.814-14.268-6.713c-8.392-3.234-17.085-5.573-25.48-8.784
		C9.825,91.728,1.971,87.575-5.116,82.036c-0.842-0.658-1.303-1.406-1.233-2.589c0.553-9.33,0.943-18.668,0.409-28.015
		c-0.054-0.95,0.265-1.487,1.116-1.908c4.181-2.061,8.446-3.925,12.763-5.681c9.012-3.666,18.212-6.825,27.313-10.248
		c5.628-2.117,11.331-4.041,16.918-6.256c7.595-3.01,15.216-5.994,22.228-10.27c1.066-0.651,2.035-0.792,3.241-0.376
		c7.479,2.578,15.271,3.395,23.094,4.132c10.708,1.01,21.395,2.21,31.778,5.245c1.248,0.364,1.827,0.917,1.672,2.266
		C134.066,29.338,134.16,30.364,134.16,31.264z M98.361,67.083c-0.13,0.144-0.261,0.285-0.391,0.429
		c-0.273,0.113-0.546,0.228-0.817,0.342c-2.17,1.337-4.372,2.624-6.505,4.021c-8.492,5.561-17.304,10.564-26.564,14.71
		c-2.131,0.954-2.997,2.003-2.634,4.189c0.021,0.128-0.005,0.262-0.001,0.393c0.041,1.581,0.163,1.722,1.5,0.932
		c2.702-1.594,5.336-3.301,7.989-4.976c8.185-5.164,16.013-10.84,23.681-16.731c0.908-0.698,2.296-1.116,2.506-2.567
		c0.328,0.021,0.636-0.011,0.819-0.339c0.135-0.131,0.271-0.263,0.405-0.395l0.083-0.063L98.361,67.083z M20.412,81.669
		c-0.096-0.03-0.069-0.319-0.272-0.13c0.1,0.035,0.2,0.067,0.3,0.1c0.09,0.092,0.165,0.206,0.272,0.27
		c4.321,2.493,9.116,3.58,13.935,4.445c5.854,1.051,11.754,1.843,17.64,2.708c1.826,0.267,3.511,1.03,5.312,1.369
		c0.494,0.091,0.993,0.433,1.227-0.398c0.614-2.18-0.095-3.501-2.272-4.106c-0.377-0.105-0.758-0.2-1.142-0.277
		c-4.906-0.979-9.889-0.972-14.857-1.178c-4.185-0.174-8.354-0.522-12.511-1.063C25.438,83.068,23.027,81.933,20.412,81.669z
		 M60.542,77.387c0.199-0.054,0.586-0.13,0.956-0.259c5.687-1.961,10.751-5.105,15.615-8.541c5.818-4.112,11.478-8.442,17.058-12.88
		c5.778-4.597,11.554-9.201,17.439-13.669c4.59-3.484,9.169-6.952,14.23-9.732c0.248-0.137,0.685-0.194,0.572-0.631
		c-0.071-0.275-0.376-0.324-0.633-0.394c-1.959-0.525-3.893-1.175-5.877-1.566c-7.921-1.561-15.947-2.223-23.995-2.764
		c-6.272-0.421-12.541-1.031-18.529-3.148c-1.043-0.368-1.882-0.269-2.771,0.284c-5.415,3.365-11.314,5.72-17.216,8.009
		c-7.991,3.098-16.062,5.995-24.142,8.854c-9.497,3.36-19.024,6.626-28.206,10.803c-0.825,0.376-2.018,0.519-2.213,1.384
		c-0.088,0.39,1.105,1.148,1.796,1.625c5.701,3.922,11.883,6.897,18.454,9.011c5.667,1.824,11.395,3.459,17.106,5.14
		c6.558,1.929,12.83,4.515,18.735,7.972C59.369,77.146,59.779,77.504,60.542,77.387z M126.119,48.266
		c-0.16,0.102-0.408,0.21-0.599,0.384c-2.898,2.647-6.072,4.962-9.057,7.498c-3.835,3.259-7.778,6.381-11.722,9.499
		c-7.333,5.8-14.684,11.584-22.312,17.003c-6.449,4.583-12.736,9.428-20.094,12.552c-0.754,0.319-0.912,0.798-0.897,1.519
		c0.031,1.573,0.003,3.148,0.012,4.722c0.012,1.92,0.04,1.98,1.823,1.321c3.838-1.419,7.279-3.63,10.501-6.054
		c5.17-3.89,10.147-8.049,14.988-12.352c7.378-6.555,14.668-13.213,22.344-19.421c4.782-3.868,9.682-7.588,15.413-9.995
		c0.743-0.312,1.077-0.69,0.882-1.459c-0.389-1.526-0.671-3.067-0.7-4.648C126.696,48.539,126.729,48.124,126.119,48.266z
		 M2.012,65.922c-0.418-0.043-0.42,0.224-0.457,0.482c-0.25,1.772,0.052,3.289,1.421,4.653c2.769,2.757,6.312,3.899,9.872,4.978
		c6.43,1.949,13.125,2.404,19.746,3.202c8.5,1.024,17.12,1.181,25.408,3.663c0.241,0.073,0.51,0.255,0.701-0.045
		c0.194-0.309,0.126-0.656-0.094-0.908c-0.209-0.24-0.489-0.43-0.767-0.594c-4.576-2.705-9.427-4.815-14.411-6.637
		c-6.822-2.494-13.875-4.269-20.732-6.664C15.987,65.71,9.661,62.674,3.783,58.68c-0.77-0.523-1.43-1.838-2.317-1.378
		c-0.562,0.291,0.229,1.69,0.052,2.589c-0.401,2.045,0.727,3.154,2.349,3.989c0.116,0.061,0.219,0.145,0.332,0.21
		c6.987,4.121,14.019,8.156,21.568,11.195c0.423,0.171,0.834,0.38,1.228,0.611c0.15,0.088,0.237,0.285,0.353,0.433
		c-0.192,0.021-0.386,0.075-0.574,0.057c-1.107-0.113-2.241-0.124-3.314-0.382C16.07,74.226,9.182,71.34,3.132,66.641
		C2.773,66.361,2.364,66.146,2.012,65.922z M126.357,40.532c0-1.181,0.018-1.904-0.005-2.625c-0.051-1.665-0.157-1.718-1.639-0.85
		c-4.633,2.715-8.968,5.853-13.258,9.075C103.345,52.223,95.54,58.702,87.5,64.88c-7.778,5.977-15.473,12.089-24.436,16.294
		c-0.21,0.099-0.625,0.081-0.582,0.358c0.069,0.424,0.502,0.324,0.812,0.303c2.939-0.206,5.583-1.401,8.186-2.619
		c8.56-4.003,16.555-9.009,24.458-14.143c9.212-5.985,18.177-12.336,26.969-18.923C124.906,44.651,127.482,43.386,126.357,40.532z
		 M58.839,98.389c0.004,0,0.008,0,0.012,0c0-0.919-0.034-1.839,0.01-2.756c0.041-0.846-0.277-1.414-1.105-1.599
		c-1.474-0.33-2.83-1.001-4.302-1.365c-6.809-1.681-13.729-2.74-20.638-3.872c-9.234-1.515-17.846-4.556-25.352-10.335
		c-1.919-1.478-3.737-3.062-5.51-4.705c-0.215-0.199-0.431-0.604-0.746-0.139c-0.618,0.914,0.006,3.675,0.968,4.438
		c7.281,5.778,15.552,9.607,24.361,12.371c4.431,1.392,8.899,2.667,13.306,4.128c6.154,2.041,12.217,4.323,17.875,7.547
		c0.718,0.41,1.111,0.326,1.12-0.566C58.846,100.486,58.839,99.438,58.839,98.389z"/>
	<path fill-rule="evenodd" clip-rule="evenodd" d="M60.542,77.387c-0.763,0.117-1.172-0.24-1.622-0.504
		c-5.905-3.457-12.177-6.043-18.735-7.972c-5.711-1.681-11.439-3.316-17.106-5.14c-6.571-2.114-12.753-5.089-18.454-9.011
		c-0.691-0.477-1.884-1.235-1.796-1.625c0.196-0.866,1.389-1.008,2.213-1.384c9.182-4.177,18.709-7.443,28.206-10.803
		c8.08-2.858,16.15-5.756,24.142-8.854c5.902-2.289,11.801-4.644,17.216-8.009c0.89-0.553,1.729-0.652,2.771-0.284
		c5.988,2.118,12.257,2.727,18.529,3.148c8.048,0.541,16.074,1.204,23.995,2.764c1.984,0.391,3.918,1.041,5.877,1.566
		c0.257,0.07,0.562,0.119,0.633,0.394c0.112,0.437-0.324,0.495-0.572,0.631c-5.062,2.781-9.641,6.249-14.23,9.732
		c-5.886,4.468-11.661,9.072-17.439,13.669c-5.58,4.438-11.239,8.769-17.058,12.88c-4.863,3.436-9.928,6.58-15.615,8.541
		C61.127,77.257,60.74,77.333,60.542,77.387z"/>
	<path fill-rule="evenodd" clip-rule="evenodd" d="M126.119,48.266c0.609-0.142,0.577,0.273,0.583,0.568
		c0.029,1.582,0.312,3.122,0.7,4.648c0.195,0.769-0.139,1.146-0.882,1.459c-5.731,2.406-10.631,6.127-15.413,9.995
		c-7.676,6.208-14.966,12.866-22.344,19.421c-4.841,4.303-9.818,8.462-14.988,12.352c-3.222,2.424-6.663,4.635-10.501,6.054
		c-1.783,0.659-1.811,0.599-1.823-1.321c-0.009-1.573,0.02-3.148-0.012-4.722c-0.015-0.721,0.143-1.199,0.897-1.519
		c7.357-3.124,13.645-7.969,20.094-12.552c7.628-5.419,14.979-11.203,22.312-17.003c3.943-3.118,7.887-6.24,11.722-9.499
		c2.984-2.536,6.158-4.851,9.057-7.498C125.711,48.477,125.959,48.368,126.119,48.266z"/>
	<path fill-rule="evenodd" clip-rule="evenodd" d="M2.012,65.922c0.352,0.224,0.762,0.439,1.121,0.719
		c6.049,4.699,12.938,7.585,20.327,9.364c1.073,0.258,2.207,0.269,3.314,0.382c0.188,0.019,0.382-0.036,0.574-0.057
		c-0.116-0.147-0.202-0.345-0.353-0.433c-0.394-0.231-0.805-0.44-1.228-0.611c-7.549-3.039-14.581-7.074-21.568-11.195
		c-0.112-0.065-0.216-0.15-0.332-0.21c-1.622-0.835-2.75-1.944-2.349-3.989c0.176-0.899-0.614-2.298-0.052-2.589
		c0.887-0.46,1.547,0.855,2.317,1.378c5.877,3.994,12.204,7.03,18.915,9.373c6.858,2.396,13.91,4.17,20.732,6.664
		c4.983,1.821,9.835,3.932,14.411,6.637c0.278,0.164,0.558,0.354,0.767,0.594c0.22,0.252,0.289,0.6,0.094,0.908
		c-0.191,0.3-0.46,0.118-0.701,0.045c-8.288-2.482-16.908-2.639-25.408-3.663c-6.621-0.798-13.316-1.253-19.746-3.202
		c-3.56-1.078-7.104-2.221-9.872-4.978c-1.369-1.364-1.67-2.881-1.421-4.653C1.591,66.146,1.593,65.879,2.012,65.922z"/>
	<path fill-rule="evenodd" clip-rule="evenodd" d="M126.357,40.532c1.125,2.854-1.451,4.119-3.451,5.618
		c-8.792,6.587-17.757,12.938-26.969,18.923c-7.903,5.134-15.898,10.14-24.458,14.143c-2.603,1.218-5.246,2.413-8.186,2.619
		c-0.31,0.021-0.742,0.121-0.812-0.303c-0.043-0.277,0.371-0.26,0.582-0.358C72.027,76.969,79.722,70.856,87.5,64.88
		c8.04-6.178,15.845-12.657,23.956-18.748c4.29-3.222,8.625-6.36,13.258-9.075c1.481-0.868,1.588-0.815,1.639,0.85
		C126.375,38.628,126.357,39.351,126.357,40.532z"/>
	<path fill-rule="evenodd" clip-rule="evenodd" d="M58.839,98.389c0,1.049,0.007,2.098-0.002,3.147
		c-0.009,0.893-0.401,0.977-1.12,0.566c-5.657-3.224-11.72-5.506-17.875-7.547c-4.406-1.461-8.875-2.736-13.306-4.128
		c-8.809-2.764-17.08-6.593-24.361-12.371c-0.962-0.764-1.586-3.524-0.968-4.438c0.314-0.466,0.53-0.061,0.746,0.139
		c1.773,1.643,3.591,3.228,5.51,4.705c7.506,5.779,16.118,8.82,25.352,10.335c6.909,1.132,13.83,2.191,20.638,3.872
		c1.472,0.364,2.828,1.035,4.302,1.365c0.829,0.185,1.146,0.753,1.105,1.599c-0.043,0.917-0.01,1.837-0.01,2.756
		C58.847,98.389,58.844,98.389,58.839,98.389z"/>
	<path fill-rule="evenodd" clip-rule="evenodd" d="M20.412,81.669c2.615,0.264,5.025,1.399,7.632,1.738
		c4.157,0.541,8.326,0.89,12.511,1.063c4.968,0.206,9.951,0.199,14.857,1.178c0.384,0.077,0.765,0.172,1.142,0.277
		c2.177,0.605,2.886,1.927,2.272,4.106c-0.234,0.831-0.733,0.489-1.227,0.398c-1.802-0.339-3.487-1.103-5.312-1.369
		c-5.886-0.865-11.786-1.657-17.64-2.708c-4.819-0.865-9.614-1.952-13.935-4.445c-0.107-0.063-0.182-0.178-0.272-0.27L20.412,81.669
		z"/>
	<path fill-rule="evenodd" clip-rule="evenodd" d="M97.125,67.823c-0.21,1.451-1.598,1.869-2.506,2.567
		c-7.668,5.892-15.496,11.567-23.681,16.731c-2.652,1.675-5.287,3.382-7.989,4.976c-1.337,0.79-1.459,0.649-1.5-0.932
		c-0.004-0.131,0.021-0.265,0.001-0.393c-0.363-2.187,0.502-3.235,2.634-4.189c9.26-4.146,18.072-9.149,26.564-14.71
		c2.133-1.396,4.335-2.684,6.505-4.021L97.125,67.823z"/>
	<path fill-rule="evenodd" clip-rule="evenodd" d="M20.44,81.639c-0.1-0.032-0.2-0.064-0.3-0.1c0.203-0.189,0.176,0.1,0.272,0.13
		L20.44,81.639z"/>
	<path fill-rule="evenodd" clip-rule="evenodd" d="M97.153,67.854c0.271-0.114,0.544-0.229,0.817-0.342l-0.026-0.027
		c-0.184,0.328-0.491,0.359-0.819,0.339L97.153,67.854z"/>
	<path fill-rule="evenodd" clip-rule="evenodd" d="M97.971,67.512c0.13-0.144,0.261-0.285,0.391-0.429L98.35,67.09
		c-0.135,0.132-0.271,0.264-0.405,0.395L97.971,67.512z"/>
	<polygon fill-rule="evenodd" clip-rule="evenodd" points="98.361,67.083 98.433,67.026 98.35,67.09 	"/>
</g>
</svg>
