<?xml version="1.0" encoding="utf-8"?>
<!-- Generator: Adobe Illustrator 16.0.4, SVG Export Plug-In . SVG Version: 6.00 Build 0)  -->
<!DOCTYPE svg PUBLIC "-//W3C//DTD SVG 1.1//EN" "http://www.w3.org/Graphics/SVG/1.1/DTD/svg11.dtd">
<svg version="1.1" id="Layer_0301" xmlns="http://www.w3.org/2000/svg" xmlns:xlink="http://www.w3.org/1999/xlink" x="0px" y="0px"
	 width="128px" height="128px" viewBox="0 0 128 128" enable-background="new 0 0 128 128" xml:space="preserve">
<g>
	<path fill="#FFFFFF" d="M18.814,72.709c0.333-0.014,0.508-0.191,0.534-0.52c1.004-0.721,2.052-1.175,3.363-1.049
		c1.125,0.107,2.253-0.118,3.39-0.307c3.149-0.523,6.303-0.272,9.402,0.5c0.212,0.053,0.495,0.316,0.519,0.509
		c0.033,0.271-0.299,0.339-0.546,0.372c-0.359,0.051-0.684,0.146-0.819,0.534l0.049-0.05c-1.81,0.137-3.451,0.862-5.052,1.605
		c-1.078,0.5-0.178,0.808,0.286,1.078l-0.021-0.024c0.435,0.606,0.973,0.574,1.59,0.301c0.854-0.381,1.651-0.964,2.67-0.792
		l-0.039-0.044c-0.239,0.523-0.844,0.499-1.225,0.814c-0.241,0.197-0.735,0.292-0.64,0.624c0.089,0.311,0.555,0.295,0.897,0.271
		c0.336-0.023,0.674-0.046,1.01-0.07l-0.049-0.048c0.312,0.851,1.039,0.497,1.624,0.562l-0.038-0.045
		c0.217,0.274,0.44,0.546,0.651,0.826c0.764,1.011,1.635,1.202,2.928,0.881c3.567-0.892,7.218-1.454,10.774-2.381
		c1.74-0.453,3.369-0.668,5.119-0.238c2.723,0.668,5.468,1.239,8.198,1.87c6.435,1.488,12.92,2.545,19.556,2.203
		c1.753-0.089,3.495-0.367,5.248-0.416c3.614-0.101,7.173-0.689,10.695-1.354c8.315-1.566,16.075-4.936,23.994-7.772
		c1.645-0.589,3.071-1.712,4.386-2.884c0.913-0.816,0.782-1.347-0.321-1.991c-0.15-0.087-0.33-0.125-0.482-0.213
		c-0.22-0.127-0.429-0.276-0.642-0.416c0.244-0.091,0.496-0.165,0.732-0.276c1.844-0.867,1.938-1.566,0.374-2.741
		c-0.718-0.539-1.546-0.799-2.394-1.059c-2.774-0.852-5.497-1.816-7.713-3.82c-1.152-1.041-2.628-1.418-4.1-1.666
		c-4.925-0.828-9.851-1.661-14.797-2.345c-1.772-0.245-3.397-0.679-4.979-1.521c-1.216-0.647-2.354-1.552-3.817-1.655l0.047,0.047
		c-0.157-0.607-0.636-0.544-1.096-0.528c-0.02-0.218-0.092-0.413-0.353-0.339c-0.078,0.022-0.104,0.219-0.152,0.337
		c-0.707-0.081-1.155-0.595-1.673-0.992c-0.454-0.349-0.874-0.781-1.533-0.631l0.054,0.051c-0.147-0.398-0.487-0.552-0.773-0.294
		c-0.219,0.195-0.344,0.602-0.344,0.915c0.001,0.891-0.491,1.011-1.175,0.816c-0.48-0.137-0.879-0.571-1.445-0.397
		c-0.182-0.393-0.354-0.346-0.518,0.011c-0.696-0.511-1.473-0.898-2.321-0.974c-0.732-0.065-1.503-0.394-2.226,0.076
		c0.511,0.432,1.036,0.846,1.52,1.305c0.171,0.161,0.238,0.43,0.351,0.65l0.041-0.04c-0.933,0.074-1.697-0.78-2.671-0.484
		c-0.17-0.437-0.339-0.354-0.504,0.003c-0.232-0.119-0.459-0.251-0.698-0.354c-0.416-0.177-0.912-0.301-1.198,0.102
		c-0.323,0.453,0.113,0.802,0.428,1.07c0.395,0.337,0.849,0.605,1.271,0.91c0.28,0.202,0.551,0.416,0.826,0.625
		c-0.357,0.3-0.786,0.187-1.175,0.17c-3.421-0.147-6.828,0.297-10.174,0.769c-2.532,0.359-4.623,0.03-6.696-1.27
		c-0.513-0.321-1.054-0.611-1.613-0.84c-0.243-0.1-0.479,0.109-0.564,0.393l0.037-0.037c-0.693,0.049-1.114-0.431-1.566-0.829
		c-0.87-0.765-1.898-1.256-2.974-1.602c-1.797-0.578-3.457-0.52-4.495,1.413l0.047-0.047c-0.703,0.386-1.366,0.812-1.636,1.632
		l0.048-0.048c-1.574,1.193-2.673,2.734-3.45,4.543c-0.137,0.318-0.979,0.374-0.616,0.902c0.377,0.553,0.734,0.689-0.249,0.989
		c-5.568,1.697-11.229,2.78-17.053,3.015c-2.041,0.083-3.989-0.083-5.937-0.831c-4.289-1.649-8.847-2.142-13.359-2.776
		c-0.954-0.134-1.934-0.096-2.901-0.09c-0.228,0.001-0.455,0.191-0.682,0.294c0.2,0.146,0.42,0.27,0.589,0.445
		c0.102,0.104,0.744-0.021,0.265,0.324c-0.536,0.387-0.709,0.798-0.44,1.317c0.286,0.552,0.905,0.41,1.416,0.479
		c0.78,0.106,1.552,0.263,2.332,0.366c4.17,0.55,8.34,1.091,12.432,2.106c0.841,0.208,1.72,0.298,2.256,1.109l0,0
		c-0.526-0.02-1.063,0.025-1.575-0.07c-3.271-0.605-6.532-1.252-9.8-1.864c-1.893-0.354-3.794-0.666-5.69-1.002
		c-0.257-0.046-0.516-0.153-0.703,0.134c-0.209,0.322-0.25,0.688-0.012,0.975c0.505,0.606,0.997,1.25,1.608,1.734
		c0.94,0.744,1.775,1.78,3.171,1.654c4.694-0.426,9.218,1.123,13.872,1.186c0.506,0.006,1.013,0.26,1.512,0.42
		c0.155,0.05,0.286,0.173,0.428,0.263c-0.14,0.071-0.278,0.201-0.418,0.202c-0.613,0.007-1.245,0.068-1.837-0.054
		c-3.871-0.803-7.846-0.732-11.73-1.421c-0.408-0.074-1.145-0.047-1.229,0.147c-0.198,0.46,0.365,0.671,0.72,0.877
		c0.463,0.269,0.582,0.645,0.355,1.097c-0.498,0.997,0.162,1.048,0.829,0.987c2.615-0.238,5.224-0.546,7.841-0.762
		c1.427-0.118,2.909-0.753,4.268,0.278c-0.264-0.017-0.536-0.082-0.79-0.038c-3.892,0.657-7.808,1.036-11.756,1.055
		c-0.742,0.003-1.416,0.204-1.93,0.708c-1.001,0.979-2.012,1.963-2.641,3.252c-0.107,0.219-0.333,0.475-0.085,0.664
		c0.172,0.133,0.503,0.185,0.718,0.118c3.685-1.117,7.385-2.191,10.982-3.591c1.788-0.694,3.541-1.541,5.503-1.685
		c-0.177,0.177-0.321,0.436-0.533,0.517c-3.6,1.375-7.192,2.772-10.821,4.067c-1.808,0.646-3.667,1.167-5.538,1.604
		c-0.88,0.207-1.705,0.564-1.451,1.428c0.213,0.725,1.044,0.118,1.608-0.016c3.584-0.85,7.048-2.078,10.494-3.356
		c0.659-0.244,1.276-0.589,2.011-0.486l-0.052-0.048c-0.274,0.208-0.531,0.444-0.826,0.619c-3.748,2.227-7.901,3.356-12.065,4.46
		c-0.612,0.163-1.749-0.014-1.512,0.981c0.19,0.799,1.239,0.463,1.873,0.342c2.247-0.429,4.368-1.286,6.519-2.046
		c2.487-0.876,4.714-2.285,7.125-3.309c-1.287,1.95-3.362,2.771-5.383,3.557c-3.102,1.206-6.248,2.328-9.562,2.846
		C1.746,80.257,1.28,80.468,1.43,81.16c0.124,0.574,0.613,0.583,1.042,0.442c3.504-1.139,7.221-1.604,10.593-3.116
		c2.345-1.054,4.248-2.73,5.205-5.251C18.605,73.218,18.756,73.012,18.814,72.709z"/>
	<path fill-rule="evenodd" clip-rule="evenodd" d="M74.859,49.489c0.974-0.296,1.738,0.558,2.671,0.484
		c0.029,0.076,0.043,0.167,0.093,0.226c0.031,0.036,0.118,0.025,0.179,0.035c-0.103-0.073-0.207-0.147-0.312-0.221
		c-0.112-0.22-0.18-0.489-0.351-0.65c-0.483-0.459-1.009-0.874-1.52-1.305c0.723-0.47,1.493-0.141,2.226-0.076
		c0.849,0.076,1.625,0.463,2.321,0.974l-0.036-0.038c0.185,0.399,0.377,0.313,0.573,0.01l-0.02,0.018
		c0.566-0.173,0.965,0.26,1.445,0.397c0.684,0.195,1.176,0.075,1.175-0.816c0-0.313,0.125-0.72,0.344-0.915
		c0.286-0.257,0.626-0.104,0.773,0.294c-0.136,0.072-0.271,0.144-0.406,0.216c0.132,0.084,0.265,0.169,0.396,0.253
		c0.057,0.293,0.211,0.493,0.522,0.541c0.032,0.319,0.194,0.511,0.526,0.532c0.024,0.33,0.207,0.499,0.53,0.525
		c0.039,0.313,0.208,0.494,0.527,0.527c0.181,0.18,0.36,0.36,0.54,0.54c0.106,0.087,0.015,0.562,0.358,0.186
		c-0.136-0.046-0.271-0.093-0.408-0.139c-0.046-0.31-0.196-0.518-0.532-0.543c0.005-0.354-0.19-0.512-0.525-0.531
		c-0.006-0.342-0.16-0.538-0.521-0.533c0.005-0.364-0.183-0.529-0.537-0.522c-0.006-0.348-0.234-0.474-0.531-0.533
		c0.002-0.19,0.004-0.38,0.007-0.57c0.659-0.15,1.079,0.283,1.533,0.631c0.518,0.397,0.966,0.911,1.673,0.992l-0.029-0.027
		c0.196,0.469,0.386,0.404,0.571-0.006l-0.037,0.036c0.46-0.016,0.938-0.079,1.096,0.528c-0.417,0.149-0.396,0.315-0.019,0.495
		c0.05,0.054,0.098,0.107,0.146,0.16c-0.06-0.042-0.12-0.085-0.179-0.129c0.002-0.191,0.003-0.382,0.004-0.573
		c1.463,0.104,2.602,1.008,3.817,1.655c1.582,0.842,3.207,1.276,4.979,1.521c4.946,0.684,9.872,1.518,14.797,2.345
		c1.472,0.248,2.947,0.625,4.1,1.666c2.216,2.003,4.938,2.968,7.713,3.82c0.848,0.26,1.676,0.521,2.394,1.059
		c1.564,1.174,1.47,1.874-0.374,2.741c-0.236,0.111-0.488,0.186-0.732,0.276c0.213,0.14,0.422,0.289,0.642,0.416
		c0.152,0.088,0.332,0.126,0.482,0.213c1.104,0.645,1.234,1.175,0.321,1.991c-1.314,1.172-2.741,2.295-4.386,2.884
		c-7.919,2.837-15.679,6.206-23.994,7.772c-3.522,0.665-7.081,1.254-10.695,1.354c-1.753,0.049-3.495,0.327-5.248,0.416
		c-6.636,0.342-13.121-0.715-19.556-2.203c-2.73-0.631-5.476-1.202-8.198-1.87c-1.75-0.43-3.379-0.215-5.119,0.238
		c-3.557,0.927-7.207,1.489-10.774,2.381c-1.293,0.321-2.164,0.13-2.928-0.881c-0.211-0.28-0.434-0.552-0.651-0.826
		c0.246-0.008,0.498,0.015,0.737-0.031c0.194-0.035,0.373-0.15,0.558-0.23c-0.23-0.038-0.479-0.146-0.687-0.096
		c-0.209,0.052-0.381,0.261-0.569,0.402c-0.584-0.064-1.312,0.289-1.624-0.562c0.065-0.029,0.135-0.052,0.193-0.09
		c0.036-0.023,0.055-0.072,0.082-0.11c-0.075,0.084-0.151,0.166-0.226,0.248c-0.336,0.024-0.673,0.047-1.01,0.07
		c-0.342,0.024-0.808,0.04-0.897-0.271c-0.096-0.332,0.399-0.427,0.64-0.624c0.381-0.315,0.986-0.291,1.225-0.814
		c0.914,0.057,1.718-0.221,2.427-0.791c-0.059-0.045-0.115-0.132-0.177-0.136c-0.903-0.059-1.7,0.134-2.211,0.971
		c-1.019-0.172-1.816,0.411-2.67,0.792c-0.617,0.273-1.155,0.306-1.59-0.301c0.456,0.03,0.926,0.083,1.044-0.541
		c0.446,0.01,0.923,0.083,1.071-0.521c0.245-0.052,0.506-0.067,0.729-0.167c0.124-0.056,0.031-0.239-0.189-0.245
		c-0.285-0.006-0.459,0.164-0.503,0.454c-0.453-0.023-0.9-0.036-1.069,0.523c-0.427,0.025-0.888-0.02-1.062,0.521
		c-0.464-0.271-1.364-0.578-0.286-1.078c1.602-0.743,3.243-1.469,5.052-1.605c0.032,0.067,0.055,0.145,0.102,0.2
		c0.028,0.032,0.096,0.032,0.146,0.047c-0.099-0.066-0.198-0.132-0.297-0.197c0.135-0.389,0.46-0.483,0.819-0.534
		c0.247-0.033,0.58-0.102,0.546-0.372c-0.024-0.192-0.306-0.456-0.519-0.509c-3.1-0.772-6.253-1.023-9.402-0.5
		c-1.136,0.188-2.264,0.414-3.39,0.307c-1.312-0.126-2.359,0.328-3.363,1.049l0.025,0.023c-0.176-0.36-0.359-0.38-0.548-0.012
		l0.005-0.005c-0.187,0.185-0.374,0.368-0.561,0.552l0.049-0.047c-0.305,0.081-0.506,0.266-0.58,0.578l0.059-0.052
		c-0.315,0.075-0.539,0.244-0.585,0.588l0.06-0.053c-2.412,1.023-4.639,2.433-7.125,3.309c-2.151,0.76-4.272,1.617-6.519,2.046
		c-0.634,0.121-1.683,0.457-1.873-0.342c-0.236-0.995,0.9-0.818,1.512-0.981c4.164-1.104,8.317-2.233,12.065-4.46
		c0.294-0.175,0.551-0.411,0.826-0.619c0.075-0.034,0.156-0.061,0.222-0.106c0.037-0.027,0.05-0.088,0.074-0.132
		c-0.082,0.095-0.162,0.191-0.244,0.286c-0.735-0.103-1.352,0.242-2.011,0.486c-3.446,1.278-6.91,2.507-10.494,3.356
		c-0.564,0.134-1.396,0.74-1.608,0.016c-0.253-0.863,0.571-1.221,1.451-1.428c1.87-0.438,3.73-0.959,5.538-1.604
		c3.629-1.295,7.222-2.692,10.821-4.067c0.212-0.081,0.356-0.34,0.533-0.517l-0.05,0.049c0.246-0.105,0.671,0.059,0.671-0.386
		c0-0.065-0.435-0.129-0.669-0.193l0.047,0.047c-1.359-1.031-2.841-0.396-4.268-0.278c-2.617,0.216-5.226,0.523-7.841,0.762
		c-0.667,0.061-1.327,0.01-0.829-0.987c0.227-0.452,0.107-0.828-0.355-1.097c-0.355-0.206-0.917-0.417-0.72-0.877
		c0.084-0.194,0.821-0.222,1.229-0.147c3.885,0.688,7.859,0.618,11.73,1.421c0.592,0.122,1.224,0.061,1.837,0.054
		c0.14-0.001,0.279-0.131,0.418-0.202c-0.142-0.09-0.273-0.213-0.428-0.263c-0.499-0.16-1.005-0.414-1.512-0.42
		c-4.654-0.062-9.178-1.611-13.872-1.186c-1.396,0.126-2.231-0.911-3.171-1.654c-0.611-0.484-1.103-1.128-1.608-1.734
		C0.809,61.625,0.85,61.26,1.06,60.938c0.187-0.287,0.446-0.18,0.703-0.134c1.896,0.336,3.797,0.648,5.69,1.002
		c3.268,0.611,6.53,1.258,9.8,1.864c0.512,0.095,1.049,0.05,1.575,0.07c0.092,0.124,0.158,0.293,0.281,0.36
		c0.222,0.122,0.463,0.109,0.634-0.13c-0.143-0.076-0.276-0.181-0.428-0.218c-0.154-0.039-0.324-0.011-0.487-0.012
		c-0.536-0.811-1.415-0.9-2.256-1.109C12.48,61.616,8.31,61.075,4.14,60.525c-0.78-0.103-1.552-0.26-2.332-0.366
		c-0.511-0.069-1.13,0.073-1.416-0.479c-0.269-0.519-0.096-0.93,0.44-1.317c0.479-0.345-0.164-0.22-0.265-0.324
		c-0.169-0.175-0.39-0.299-0.589-0.445c0.228-0.104,0.454-0.293,0.682-0.294c0.968-0.005,1.948-0.043,2.901,0.09
		c4.512,0.634,9.07,1.127,13.359,2.776c1.948,0.749,3.896,0.914,5.937,0.831c5.824-0.234,11.485-1.318,17.053-3.015
		c0.983-0.3,0.626-0.437,0.249-0.989c-0.362-0.528,0.479-0.583,0.616-0.902c0.776-1.809,1.876-3.35,3.45-4.543
		c0.031,0.067,0.05,0.141,0.094,0.196c0.027,0.034,0.091,0.038,0.138,0.055c-0.093-0.068-0.187-0.135-0.281-0.204
		c0.27-0.82,0.933-1.246,1.636-1.632c0.028,0.077,0.042,0.167,0.09,0.227c0.03,0.037,0.116,0.029,0.176,0.042
		c-0.104-0.073-0.208-0.147-0.313-0.222c1.038-1.933,2.698-1.99,4.495-1.413c1.076,0.346,2.104,0.837,2.974,1.602
		c0.452,0.398,0.873,0.878,1.566,0.829c-0.012,0.374,0.2,0.516,0.541,0.524c-0.013,0.359,0.168,0.527,0.52,0.527
		c0.003,0.348,0.197,0.506,0.527,0.53c0.016,0.334,0.195,0.506,0.526,0.529c0.027,0.08,0.04,0.171,0.087,0.238
		c0.028,0.039,0.11,0.04,0.168,0.057c-0.101-0.083-0.201-0.166-0.303-0.249c-0.017-0.332-0.206-0.495-0.524-0.529
		c-0.035-0.316-0.222-0.481-0.524-0.533c-0.036-0.311-0.221-0.474-0.52-0.523c-0.075-0.282-0.198-0.515-0.535-0.534
		c0.085-0.284,0.321-0.493,0.564-0.393c0.559,0.229,1.1,0.519,1.613,0.84c2.073,1.3,4.164,1.629,6.696,1.27
		c3.346-0.472,6.753-0.916,10.174-0.769c0.389,0.016,0.817,0.129,1.175-0.17c-0.275-0.209-0.546-0.423-0.826-0.625
		c-0.423-0.305-0.877-0.572-1.271-0.91c-0.314-0.268-0.751-0.617-0.428-1.07c0.286-0.403,0.782-0.278,1.198-0.102
		c0.239,0.103,0.466,0.235,0.698,0.354l-0.046-0.049c0.094,0.287,0.297,0.45,0.585,0.516c0.058,0.299,0.215,0.5,0.532,0.545
		c0.393,0.659,0.853,1.241,1.671,1.383c0.041,0.007,0.151-0.137,0.146-0.143c-0.482-0.612-1.006-1.167-1.865-1.193
		c-0.016-0.341-0.234-0.481-0.536-0.54c0.019-0.189,0.037-0.378,0.057-0.567L74.859,49.489z M81.23,50.496
		c0.178,0.182,0.356,0.364,0.537,0.546c0.074,0.275,0.229,0.472,0.525,0.525c0.342,0.622,0.678,0.452,1.012-0.007
		c0.19-0.003,0.381-0.008,0.573-0.011c0.03,0.074,0.048,0.154,0.093,0.217c0.026,0.036,0.095,0.042,0.144,0.063
		c-0.095-0.077-0.19-0.153-0.287-0.23c-0.165-0.419-0.326-0.267-0.483,0.006c-0.365,0.001-0.73,0.003-1.097,0.005
		c0.014-0.368-0.185-0.521-0.53-0.521c-0.02-0.339-0.189-0.526-0.535-0.54c-0.018-0.072-0.023-0.149-0.056-0.214
		c-0.021-0.041-0.078-0.063-0.119-0.095C81.081,50.326,81.156,50.411,81.23,50.496z M91.813,52.078
		c0.083,0.125-0.019,0.533,0.348,0.228c-0.134-0.059-0.269-0.119-0.401-0.177c-0.037-0.055-0.069-0.116-0.115-0.166
		c-0.025-0.029-0.072-0.038-0.11-0.056C91.627,51.963,91.72,52.021,91.813,52.078z M82.264,75.881
		c0.428-0.021,0.891,0.032,1.062-0.518c0.429-0.066,0.89-0.057,1.282-0.214c3.659-1.467,7.336-2.854,11.325-3.132
		c0.416-0.028,0.844-0.235,1.214-0.449c0.372-0.214,0.806-0.513,0.803-0.969c-0.004-0.63-0.609-0.445-0.988-0.534
		c-1.188-0.279-2.376-0.565-3.573-0.795c-0.192-0.037-0.543,0.161-0.638,0.346c-0.246,0.478,0.248,0.308,0.418,0.35
		c0.673,0.169,1.42-0.076,2.05,0.324c0.204,0.129,0.331,0.38,0.493,0.575c-0.151,0.083-0.293,0.195-0.455,0.242
		c-2.602,0.737-5.212,1.442-7.806,2.205c-1.487,0.439-3.008,0.848-4.109,2.07c-0.441-0.003-0.916-0.066-1.035,0.544
		c-0.271,0.081-0.538,0.161-0.81,0.241C81.873,76.395,82.086,76.186,82.264,75.881z M45.766,52.671
		c-0.048-0.163,0.024-0.497-0.329-0.236c0.127,0.062,0.254,0.124,0.382,0.187c0.23,0.417,0.635,0.487,1.054,0.525
		c0.198,0.456,0.591,0.546,1.031,0.551c0.176,0.568,0.658,0.475,1.084,0.504c0.183,0.51,0.647,0.469,1.055,0.535
		c0.124,0.243,0.318,0.386,0.594,0.378c0.067-0.002,0.131-0.079,0.197-0.122c-0.217-0.321-0.545-0.189-0.837-0.207
		c-0.113-0.641-0.627-0.5-1.05-0.538c-0.127-0.59-0.579-0.581-1.037-0.558c-0.163-0.596-0.646-0.493-1.081-0.495
		C46.703,52.559,46.178,52.729,45.766,52.671z M79.605,71.637c0.388-0.104,0.917,0.073,1.062-0.525
		c0.567-0.052,1.242,0.219,1.578-0.522c0.569-0.071,1.24,0.168,1.603-0.527c0.082,0.003,0.167,0.017,0.248,0.007
		c0.487-0.057,0.979-0.102,1.461-0.186c0.148-0.025,0.096-0.24-0.133-0.245c-0.551-0.009-1.182-0.189-1.534,0.473
		c-0.562,0.09-1.247-0.195-1.606,0.522c-0.574,0.019-1.206-0.124-1.568,0.53c-0.41,0.055-0.814,0.127-1.057,0.524
		c-0.08,0.03-0.171,0.05-0.241,0.095c-0.038,0.027-0.045,0.102-0.066,0.155C79.52,71.967,79.604,71.868,79.605,71.637z
		 M53.708,53.192c-0.028-0.063-0.05-0.131-0.089-0.187c-0.023-0.033-0.076-0.046-0.116-0.068c0.083,0.07,0.167,0.141,0.25,0.212
		c0.226,0.263,0.431,0.546,0.683,0.779c0.104,0.096,0.379,0.169,0.451,0.107c0.364-0.311-0.09-0.436-0.213-0.506
		C54.383,53.364,54.034,53.298,53.708,53.192z M9.319,59.492c0.79,0.802,1.754,0.498,2.651,0.342
		c0.264-0.046,0.303,0.046,0.106-0.051c-0.788-0.391-1.682-0.215-2.537-0.252c-0.086-0.005-0.172,0.004-0.258,0.007
		c-0.749-0.907-1.783-0.386-2.684-0.517c-0.203-0.03-0.438,0.155-0.657,0.241c0.248,0.072,0.493,0.199,0.743,0.208
		C7.561,59.5,8.44,59.488,9.319,59.492z M84.409,73.285c-1.312,0.017-2.42,0.443-3.181,1.575c-0.523,0.005-1.185,0.214-1.541-0.028
		c-0.753-0.509-1.287-0.763-1.946,0.104c-0.308,0.406-0.875,0.754-1.287,0.119c-0.303-0.463-0.473-0.359-0.671-0.013
		c-0.161,0.284,0.065,0.555,0.291,0.596c1.792,0.311,3.576,0.472,5.118-0.818c1.291-0.061,2.2-0.883,3.172-1.583
		c0.249-0.052,0.512-0.072,0.743-0.168c0.123-0.049,0.032-0.22-0.196-0.224C84.637,72.841,84.425,72.966,84.409,73.285z
		 M80.698,59.532c-1.427,1.953-1.427,2.168,0.003,3.664c0.084,0.107-0.042,0.548,0.324,0.202c-0.119-0.056-0.238-0.113-0.355-0.169
		c-0.008-1.25-0.014-2.5-0.02-3.75c0.081-0.006,0.173,0.008,0.24-0.026c0.043-0.022,0.053-0.113,0.075-0.174
		C80.877,59.362,80.787,59.447,80.698,59.532z M70.651,72.709c0.035,0.068,0.062,0.144,0.111,0.202
		c0.025,0.029,0.091,0.027,0.137,0.04c-0.099-0.063-0.196-0.128-0.295-0.192c0.005-1.248,0.011-2.496,0.017-3.744
		c0.063-0.03,0.139-0.05,0.188-0.097c0.033-0.026,0.029-0.093,0.041-0.142c-0.062,0.093-0.124,0.187-0.187,0.279
		C69.152,70.483,69.15,71.054,70.651,72.709z M67.485,59.002c-1.481,1.583-1.481,2.141,0.001,3.662
		c0.07,0.135-0.051,0.564,0.332,0.215c-0.123-0.059-0.246-0.119-0.369-0.177c-0.002-1.248-0.003-2.495-0.005-3.742
		c0.175-0.035,0.488,0.029,0.229-0.318C67.61,58.762,67.547,58.881,67.485,59.002z M48.983,59.541
		c-1.346,1.317-1.509,2.255-0.595,3.526c0.092,0.128,0.258,0.203,0.39,0.302c0.052-0.16,0.147-0.32,0.149-0.481
		c0.014-1.131,0.008-2.262,0.008-3.394c0.064-0.027,0.134-0.043,0.188-0.084c0.033-0.023,0.04-0.083,0.06-0.125
		C49.117,59.37,49.049,59.455,48.983,59.541z M56.897,71.141c0.061,0.146-0.029,0.528,0.331,0.211
		c-0.111-0.069-0.223-0.138-0.334-0.207c0.137-1.104-0.204-2.249,0.302-3.324c0.062-0.132-0.002-0.321-0.009-0.484
		c-0.12,0.048-0.265,0.066-0.354,0.148C55.625,68.565,55.651,69.808,56.897,71.141z M42.64,64.83
		c-1.268,0.559-1.547,1.503-1.107,2.758c0.147,0.421,0.333,1.049,0.696,0.997c0.744-0.104,0.24-0.785,0.281-1.199
		c0.084-0.863,0.061-1.734,0.081-2.604c0.063-0.029,0.133-0.053,0.188-0.094c0.033-0.026,0.043-0.081,0.063-0.122
		C42.774,64.653,42.707,64.742,42.64,64.83z M3.483,62.704c-0.072-0.266-0.259-0.398-0.519-0.371
		c-0.223,0.023-0.282,0.176-0.136,0.224c0.219,0.072,0.462,0.072,0.694,0.102c3.253,1.091,6.633,1.388,10.027,1.587
		c0.229,0.436,0.638,0.486,1.057,0.47c0.237-0.01,0.472-0.093,0.707-0.143c-0.189-0.077-0.373-0.201-0.568-0.223
		c-0.41-0.045-0.827-0.038-1.24-0.052C10.266,63.132,6.949,62.455,3.483,62.704z M101.854,62.712
		c-3.438,3.49-3.436,5.998,0.013,9.453c0.116,0.206-0.169,0.677,0.354,0.575c0.052-0.01-0.151-0.427-0.407-0.531
		c-1.276-3-1.302-6.011-0.066-9.033c0.063-0.153,0.041-0.341,0.057-0.512c0.07-0.026,0.147-0.04,0.208-0.081
		c0.035-0.025,0.041-0.092,0.06-0.141C102.001,62.533,101.928,62.623,101.854,62.712z M113.121,58.995
		c-2.126-0.008-3.554,0.913-3.794,2.45c-0.268,1.686,0.769,3.32,2.238,4.031c1.585,0.765,4.99-1.462,5.094-3.367
		C116.77,60.086,115.629,59.006,113.121,58.995z M21.716,65.985c-0.067-0.08-0.11-0.186-0.178-0.208
		c-1.491-0.472-2.988-0.924-4.57-0.949c-0.159-0.003-0.32,0.11-0.48,0.17c0.143,0.088,0.275,0.224,0.43,0.261
		c1.522,0.36,3.046,0.707,4.574,1.036C21.543,66.305,21.643,66.091,21.716,65.985z M92.788,71.057
		c0.274-0.049,0.517-0.093,0.759-0.137c-0.23-0.066-0.459-0.175-0.692-0.186c-0.236-0.01-0.478,0.077-0.717,0.122
		C92.36,70.925,92.583,70.993,92.788,71.057z M2.776,58.898c0.285-0.042,0.605-0.09,0.927-0.137
		c-0.229-0.068-0.455-0.172-0.687-0.192c-0.236-0.02-0.671,0.006-0.685,0.077C2.272,58.952,2.59,58.789,2.776,58.898z
		 M88.735,69.332c-0.681-0.123-0.917-0.2-1.153-0.198c-0.249,0.002-0.499,0.079-0.748,0.123c0.15,0.064,0.3,0.181,0.451,0.184
		C87.62,69.447,87.954,69.396,88.735,69.332z M43.297,56.434c-0.362,0.017-0.686-0.107-0.871,0.242
		c0.152,0.055,0.309,0.165,0.455,0.153c0.314-0.025,0.624-0.114,0.934-0.176C43.622,56.571,43.428,56.489,43.297,56.434z
		 M41.785,73.532c-0.155-0.049-0.308-0.131-0.465-0.139c-0.165-0.008-0.334,0.055-0.501,0.086c0.156,0.055,0.31,0.148,0.467,0.157
		C41.45,73.646,41.618,73.571,41.785,73.532z M46.674,56.123c-0.217-0.094-0.361-0.208-0.501-0.205
		c-0.234,0.003-0.467,0.082-0.7,0.128c0.143,0.067,0.286,0.186,0.431,0.189C46.138,56.241,46.372,56.171,46.674,56.123z
		 M83.571,71.953c-0.042-0.035-0.081-0.095-0.129-0.105c-0.067-0.013-0.153-0.01-0.212,0.022c-0.137,0.075-0.086,0.144,0.14,0.151
		C83.437,72.023,83.505,71.978,83.571,71.953z M86.26,70.871c0.058,0.038,0.118,0.112,0.174,0.11
		c0.143-0.009,0.281-0.053,0.421-0.082c-0.06-0.042-0.122-0.121-0.178-0.118C86.535,70.791,86.398,70.839,86.26,70.871z
		 M43.377,55.558c-0.045-0.033-0.086-0.085-0.135-0.094c-0.074-0.013-0.164-0.016-0.229,0.014c-0.154,0.07-0.101,0.136,0.146,0.145
		C43.231,55.625,43.305,55.581,43.377,55.558z M46.5,55.005c0.146,0.054,0.291,0.123,0.442,0.151
		c0.055,0.011,0.128-0.076,0.193-0.118c-0.146-0.053-0.288-0.122-0.438-0.149C46.641,54.878,46.567,54.963,46.5,55.005z
		 M45.078,54.439c0.019,0.04,0.031,0.103,0.061,0.113c0.069,0.024,0.155,0.047,0.222,0.028c0.212-0.058,0.188-0.135-0.064-0.182
		C45.229,54.387,45.151,54.425,45.078,54.439z M43.906,54.011c-0.021-0.04-0.033-0.104-0.064-0.116
		c-0.065-0.024-0.148-0.044-0.212-0.024c-0.191,0.058-0.167,0.134,0.068,0.179C43.763,54.063,43.837,54.026,43.906,54.011z
		 M88.959,70.309c0.021,0.031,0.036,0.085,0.063,0.093c0.071,0.02,0.15,0.035,0.221,0.022c0.214-0.043,0.192-0.105-0.065-0.146
		C89.11,70.266,89.032,70.297,88.959,70.309z M90.719,68.701c-0.067,0.021-0.135,0.044-0.202,0.066c0.04,0.032,0.089,0.1,0.12,0.093
		c0.099-0.021,0.192-0.07,0.286-0.107C90.855,68.735,90.786,68.718,90.719,68.701z M123.729,65.606
		c-0.043-0.035-0.083-0.09-0.131-0.1c-0.074-0.013-0.162-0.016-0.229,0.014c-0.155,0.074-0.104,0.143,0.144,0.153
		C123.583,65.678,123.655,65.63,123.729,65.606z M45.447,75.603c-0.145,0-0.293,0-0.442,0c0.064,0.043,0.125,0.103,0.194,0.119
		c0.071,0.018,0.155-0.005,0.228-0.023C45.444,75.693,45.443,75.627,45.447,75.603z M41.241,76.741
		c-0.021-0.041-0.032-0.104-0.062-0.113c-0.072-0.022-0.158-0.042-0.229-0.022c-0.215,0.056-0.192,0.13,0.065,0.175
		C41.086,76.794,41.165,76.756,41.241,76.741z M38.146,73.529c-0.062-0.038-0.128-0.114-0.185-0.107
		c-0.145,0.017-0.285,0.067-0.428,0.104c0.064,0.041,0.131,0.12,0.189,0.114C37.867,73.624,38.005,73.569,38.146,73.529z
		 M39.764,74.049c-0.148-0.054-0.294-0.125-0.448-0.152c-0.057-0.01-0.133,0.081-0.201,0.127c0.064,0.053,0.132,0.157,0.188,0.151
		C39.46,74.157,39.611,74.095,39.764,74.049z M87.83,71.853l-0.107,0.107l0.188,0.023L87.83,71.853z M86.111,72.447l0.173,0.081
		l0.016-0.112L86.111,72.447z M38.132,74.468l-0.117,0.131l0.207,0.021L38.132,74.468z M48.167,55.618l0.101-0.096l-0.174-0.024
		L48.167,55.618z"/>
	<path fill-rule="evenodd" clip-rule="evenodd" d="M20.439,69.005c-1.962,0.144-3.715,0.99-5.503,1.685
		c-3.597,1.399-7.297,2.474-10.982,3.591c-0.214,0.066-0.545,0.015-0.718-0.118c-0.248-0.189-0.022-0.445,0.085-0.664
		c0.629-1.289,1.64-2.272,2.641-3.252c0.515-0.504,1.188-0.705,1.93-0.708c3.948-0.019,7.864-0.397,11.756-1.055
		c0.254-0.044,0.526,0.021,0.79,0.038l-0.047-0.047c-0.001,0.193-0.001,0.387-0.002,0.579L20.439,69.005z"/>
	<path fill-rule="evenodd" clip-rule="evenodd" d="M18.27,73.235c-0.958,2.521-2.86,4.197-5.205,5.251
		c-3.372,1.513-7.089,1.978-10.593,3.116c-0.43,0.141-0.918,0.132-1.042-0.442c-0.15-0.692,0.316-0.903,0.896-0.995
		c3.314-0.518,6.46-1.64,9.562-2.846c2.021-0.786,4.097-1.606,5.383-3.557l-0.06,0.053c0.34-0.051,0.55-0.233,0.585-0.588
		l-0.059,0.052c0.194,0,0.389,0,0.583,0L18.27,73.235z"/>
	<path fill-rule="evenodd" clip-rule="evenodd" d="M19.348,72.189c-0.026,0.328-0.201,0.506-0.534,0.52l0.037,0.039
		c-0.007-0.183-0.014-0.367-0.021-0.552l-0.005,0.005c0.183,0.004,0.366,0.008,0.548,0.012L19.348,72.189z"/>
	<path fill-rule="evenodd" clip-rule="evenodd" d="M18.814,72.709c-0.058,0.303-0.209,0.509-0.544,0.526l0.052,0.044
		c-0.001-0.192-0.002-0.384-0.004-0.578l-0.049,0.047c0.194,0,0.388,0,0.582,0L18.814,72.709z"/>
	<path fill-rule="evenodd" clip-rule="evenodd" d="M80.166,48.956c0.164-0.356,0.336-0.403,0.518-0.011l0.02-0.018
		c-0.191-0.003-0.383-0.007-0.573-0.01L80.166,48.956z"/>
	<path fill-rule="evenodd" clip-rule="evenodd" d="M74.355,49.492c0.165-0.357,0.334-0.44,0.504-0.003l0.04-0.044
		c-0.197,0-0.394,0-0.59-0.001L74.355,49.492z"/>
	<path fill-rule="evenodd" clip-rule="evenodd" d="M87.573,49.479c0.049-0.118,0.074-0.315,0.152-0.337
		c0.261-0.074,0.333,0.121,0.353,0.339l0.037-0.036c-0.19,0.002-0.381,0.004-0.571,0.006L87.573,49.479z"/>
	<path fill-rule="evenodd" clip-rule="evenodd" fill="#FFFFFF" d="M113.121,58.995c2.508,0.011,3.648,1.091,3.538,3.114
		c-0.104,1.904-3.509,4.131-5.094,3.367c-1.47-0.711-2.506-2.345-2.238-4.031C109.567,59.908,110.995,58.987,113.121,58.995z"/>
	<path fill-rule="evenodd" clip-rule="evenodd" fill="#FFFFFF" d="M83.341,75.383c1.102-1.223,2.622-1.631,4.109-2.07
		c2.594-0.763,5.204-1.468,7.806-2.205c0.162-0.047,0.304-0.159,0.455-0.242c-0.162-0.195-0.289-0.446-0.493-0.575
		c-0.63-0.4-1.377-0.155-2.05-0.324c-0.17-0.042-0.664,0.128-0.418-0.35c0.095-0.185,0.445-0.383,0.638-0.346
		c1.197,0.229,2.386,0.516,3.573,0.795c0.379,0.089,0.984-0.096,0.988,0.534c0.003,0.456-0.431,0.755-0.803,0.969
		c-0.37,0.214-0.798,0.421-1.214,0.449c-3.989,0.278-7.666,1.665-11.325,3.132c-0.393,0.157-0.854,0.147-1.282,0.214L83.341,75.383z
		"/>
	<path fill-rule="evenodd" clip-rule="evenodd" fill="#FFFFFF" d="M101.867,72.165c-3.448-3.455-3.451-5.963-0.013-9.453
		l-0.05-0.049c-0.016,0.171,0.007,0.359-0.057,0.512c-1.235,3.022-1.21,6.033,0.066,9.033L101.867,72.165z"/>
	<path fill-rule="evenodd" clip-rule="evenodd" fill="#FFFFFF" d="M13.55,64.246c-3.395-0.199-6.774-0.497-10.027-1.587
		l-0.039,0.045c3.465-0.249,6.782,0.428,10.022,1.595L13.55,64.246z"/>
	<path fill-rule="evenodd" clip-rule="evenodd" fill="#FFFFFF" d="M81.192,74.819c-1.542,1.29-3.326,1.129-5.118,0.818
		c-0.226-0.041-0.452-0.312-0.291-0.596c0.198-0.347,0.368-0.45,0.671,0.013c0.412,0.635,0.979,0.287,1.287-0.119
		c0.659-0.866,1.193-0.612,1.946-0.104c0.356,0.242,1.018,0.033,1.541,0.028L81.192,74.819z"/>
	<path fill-rule="evenodd" clip-rule="evenodd" fill="#FFFFFF" d="M42.59,64.781c-0.021,0.87,0.003,1.741-0.081,2.604
		c-0.041,0.414,0.463,1.096-0.281,1.199c-0.363,0.052-0.549-0.576-0.696-0.997c-0.439-1.255-0.161-2.199,1.107-2.758L42.59,64.781z"
		/>
	<path fill-rule="evenodd" clip-rule="evenodd" fill="#FFFFFF" d="M21.716,65.985c-0.074,0.105-0.173,0.319-0.224,0.31
		c-1.528-0.329-3.052-0.676-4.574-1.036c-0.155-0.037-0.287-0.173-0.43-0.261c0.16-0.06,0.321-0.173,0.48-0.17
		c1.582,0.025,3.079,0.478,4.57,0.949C21.606,65.8,21.649,65.905,21.716,65.985z"/>
	<path fill-rule="evenodd" clip-rule="evenodd" fill="#FFFFFF" d="M56.897,71.141c-1.247-1.333-1.272-2.575-0.065-3.656
		c0.09-0.082,0.235-0.101,0.354-0.148c0.006,0.163,0.07,0.353,0.009,0.484c-0.505,1.075-0.165,2.221-0.302,3.324L56.897,71.141z"/>
	<path fill-rule="evenodd" clip-rule="evenodd" fill="#FFFFFF" d="M48.935,59.493c0,1.132,0.006,2.263-0.008,3.394
		c-0.001,0.161-0.097,0.321-0.149,0.481c-0.132-0.099-0.298-0.173-0.39-0.302c-0.914-1.271-0.751-2.209,0.595-3.526L48.935,59.493z"
		/>
	<path fill-rule="evenodd" clip-rule="evenodd" fill="#FFFFFF" d="M67.486,62.664c-1.482-1.521-1.482-2.08-0.001-3.662l-0.041-0.042
		c0.002,1.247,0.003,2.494,0.005,3.742L67.486,62.664z"/>
	<path fill-rule="evenodd" clip-rule="evenodd" fill="#FFFFFF" d="M70.621,69.015c-0.006,1.248-0.012,2.496-0.017,3.744l0.047-0.05
		c-1.501-1.655-1.499-2.226,0.012-3.653L70.621,69.015z"/>
	<path fill-rule="evenodd" clip-rule="evenodd" fill="#FFFFFF" d="M80.701,63.195c-1.43-1.496-1.43-1.711-0.003-3.664l-0.048-0.053
		c0.006,1.25,0.012,2.5,0.02,3.75L80.701,63.195z"/>
	<path fill-rule="evenodd" clip-rule="evenodd" fill="#FFFFFF" d="M84.364,73.236c-0.972,0.7-1.881,1.522-3.172,1.583l0.036,0.041
		c0.761-1.132,1.868-1.559,3.181-1.575L84.364,73.236z"/>
	<path fill-rule="evenodd" clip-rule="evenodd" fill="#FFFFFF" d="M9.319,59.492C8.44,59.488,7.561,59.5,6.683,59.47
		c-0.25-0.008-0.495-0.135-0.743-0.208c0.22-0.086,0.454-0.271,0.657-0.241c0.901,0.131,1.935-0.39,2.684,0.517L9.319,59.492z"/>
	<path fill-rule="evenodd" clip-rule="evenodd" fill="#FFFFFF" d="M34.178,74.867c0.512-0.837,1.309-1.029,2.211-0.971
		c0.062,0.004,0.118,0.091,0.177,0.136c-0.709,0.57-1.514,0.848-2.427,0.791L34.178,74.867z"/>
	<path fill-rule="evenodd" clip-rule="evenodd" fill="#FFFFFF" d="M75.379,50.551c0.859,0.026,1.383,0.582,1.865,1.193
		c0.005,0.006-0.105,0.15-0.146,0.143c-0.818-0.142-1.278-0.724-1.671-1.383L75.379,50.551z"/>
	<path fill-rule="evenodd" clip-rule="evenodd" fill="#FFFFFF" d="M9.281,59.539c0.086-0.003,0.172-0.012,0.258-0.007
		c0.855,0.037,1.749-0.139,2.537,0.252c0.197,0.097,0.157,0.004-0.106,0.051c-0.897,0.156-1.862,0.459-2.651-0.342L9.281,59.539z"/>
	<path fill-rule="evenodd" clip-rule="evenodd" fill="#FFFFFF" d="M13.506,64.298c0.414,0.014,0.83,0.007,1.24,0.052
		c0.195,0.021,0.379,0.146,0.568,0.223c-0.235,0.05-0.47,0.133-0.707,0.143c-0.419,0.016-0.829-0.034-1.057-0.47L13.506,64.298z"/>
	<path fill-rule="evenodd" clip-rule="evenodd" fill="#FFFFFF" d="M53.708,53.192c0.326,0.106,0.675,0.172,0.966,0.338
		c0.124,0.07,0.578,0.195,0.213,0.506c-0.072,0.062-0.348-0.012-0.451-0.107c-0.252-0.233-0.457-0.516-0.683-0.779L53.708,53.192z"
		/>
	<path fill-rule="evenodd" clip-rule="evenodd" fill="#FFFFFF" d="M92.788,71.057c-0.205-0.063-0.428-0.132-0.65-0.2
		c0.239-0.045,0.48-0.132,0.717-0.122c0.233,0.011,0.462,0.119,0.692,0.186C93.305,70.964,93.062,71.008,92.788,71.057z"/>
	<path fill-rule="evenodd" clip-rule="evenodd" fill="#FFFFFF" d="M83.89,70.11c0.353-0.662,0.983-0.481,1.534-0.473
		c0.229,0.005,0.281,0.22,0.133,0.245c-0.482,0.084-0.974,0.129-1.461,0.186c-0.081,0.01-0.166-0.004-0.248-0.007L83.89,70.11z"/>
	<path fill-rule="evenodd" clip-rule="evenodd" fill="#FFFFFF" d="M2.776,58.898c-0.186-0.109-0.503,0.053-0.445-0.252
		c0.014-0.071,0.449-0.097,0.685-0.077c0.232,0.02,0.458,0.124,0.687,0.192C3.381,58.809,3.061,58.856,2.776,58.898z"/>
	<path fill-rule="evenodd" clip-rule="evenodd" fill="#FFFFFF" d="M88.735,69.332c-0.781,0.064-1.115,0.115-1.45,0.108
		c-0.151-0.003-0.301-0.119-0.451-0.184c0.249-0.044,0.499-0.121,0.748-0.123C87.818,69.132,88.055,69.209,88.735,69.332z"/>
	<path fill-rule="evenodd" clip-rule="evenodd" fill="#FFFFFF" d="M43.297,56.434c0.131,0.056,0.325,0.137,0.518,0.219
		c-0.31,0.062-0.619,0.151-0.934,0.176c-0.146,0.012-0.303-0.099-0.455-0.153C42.611,56.326,42.935,56.451,43.297,56.434z"/>
	<path fill-rule="evenodd" clip-rule="evenodd" fill="#FFFFFF" d="M82.245,70.589c-0.336,0.741-1.011,0.471-1.578,0.522l0.048,0.052
		c0.362-0.654,0.994-0.512,1.568-0.53L82.245,70.589z"/>
	<path fill-rule="evenodd" clip-rule="evenodd" fill="#FFFFFF" d="M83.848,70.062c-0.362,0.695-1.033,0.456-1.603,0.527l0.038,0.044
		c0.359-0.718,1.044-0.433,1.606-0.522L83.848,70.062z"/>
	<path fill-rule="evenodd" clip-rule="evenodd" fill="#FFFFFF" d="M41.785,73.532c-0.167,0.039-0.335,0.113-0.5,0.104
		c-0.158-0.009-0.312-0.103-0.467-0.157c0.167-0.031,0.337-0.094,0.501-0.086C41.477,73.401,41.63,73.483,41.785,73.532z"/>
	<path fill-rule="evenodd" clip-rule="evenodd" fill="#FFFFFF" d="M35.755,76.976c0.188-0.142,0.36-0.351,0.569-0.402
		c0.208-0.051,0.457,0.058,0.687,0.096c-0.185,0.08-0.364,0.195-0.558,0.23c-0.239,0.046-0.491,0.023-0.737,0.031L35.755,76.976z"/>
	<path fill-rule="evenodd" clip-rule="evenodd" fill="#FFFFFF" d="M46.674,56.123c-0.302,0.048-0.537,0.119-0.77,0.112
		c-0.146-0.003-0.288-0.122-0.431-0.189c0.233-0.046,0.465-0.125,0.7-0.128C46.313,55.915,46.458,56.028,46.674,56.123z"/>
	<path fill-rule="evenodd" clip-rule="evenodd" fill="#FFFFFF" d="M83.571,71.953c-0.066,0.024-0.135,0.07-0.201,0.068
		c-0.226-0.008-0.276-0.076-0.14-0.151c0.059-0.032,0.145-0.035,0.212-0.022C83.49,71.858,83.529,71.918,83.571,71.953z"/>
	<path fill-rule="evenodd" clip-rule="evenodd" fill="#FFFFFF" d="M80.667,71.111c-0.145,0.599-0.674,0.421-1.062,0.525l0.053,0.051
		c0.242-0.397,0.646-0.47,1.057-0.524L80.667,71.111z"/>
	<path fill-rule="evenodd" clip-rule="evenodd" fill="#FFFFFF" d="M86.26,70.87c0.139-0.031,0.275-0.079,0.417-0.089
		c0.056-0.003,0.118,0.076,0.178,0.118c-0.14,0.029-0.278,0.073-0.421,0.082C86.378,70.983,86.317,70.909,86.26,70.87z"/>
	<path fill-rule="evenodd" clip-rule="evenodd" fill="#FFFFFF" d="M84.409,73.285c0.016-0.319,0.228-0.444,0.502-0.44
		c0.229,0.004,0.319,0.175,0.196,0.224c-0.231,0.096-0.494,0.116-0.743,0.168L84.409,73.285z"/>
	<path fill-rule="evenodd" clip-rule="evenodd" fill="#FFFFFF" d="M101.814,72.209c0.256,0.104,0.459,0.521,0.407,0.531
		c-0.523,0.102-0.238-0.369-0.354-0.575L101.814,72.209z"/>
	<path fill-rule="evenodd" clip-rule="evenodd" fill="#FFFFFF" d="M43.377,55.558c-0.072,0.023-0.146,0.068-0.218,0.065
		c-0.247-0.009-0.3-0.075-0.146-0.145c0.065-0.03,0.155-0.026,0.229-0.014C43.292,55.473,43.333,55.525,43.377,55.558z"/>
	<path fill-rule="evenodd" clip-rule="evenodd" fill="#FFFFFF" d="M82.247,51.611c0.366-0.002,0.731-0.004,1.097-0.005l-0.039-0.045
		c-0.334,0.458-0.67,0.628-1.012,0.007L82.247,51.611z"/>
	<path fill-rule="evenodd" clip-rule="evenodd" fill="#FFFFFF" d="M49.997,54.787c0.292,0.017,0.62-0.114,0.837,0.207
		c-0.065,0.042-0.13,0.12-0.197,0.122c-0.276,0.008-0.471-0.135-0.594-0.378L49.997,54.787z"/>
	<path fill-rule="evenodd" clip-rule="evenodd" fill="#FFFFFF" d="M46.5,55.005c0.067-0.042,0.141-0.127,0.198-0.116
		c0.15,0.027,0.292,0.096,0.438,0.149c-0.065,0.042-0.139,0.129-0.193,0.118C46.791,55.128,46.646,55.059,46.5,55.005z"/>
	<path fill-rule="evenodd" clip-rule="evenodd" fill="#FFFFFF" d="M48.947,54.249c0.423,0.038,0.937-0.104,1.05,0.538l0.046-0.05
		c-0.408-0.066-0.872-0.024-1.055-0.535L48.947,54.249z"/>
	<path fill-rule="evenodd" clip-rule="evenodd" fill="#FFFFFF" d="M45.078,54.439c0.073-0.014,0.15-0.052,0.219-0.04
		c0.252,0.046,0.276,0.124,0.064,0.182c-0.067,0.019-0.152-0.004-0.222-0.028C45.109,54.542,45.097,54.479,45.078,54.439z"/>
	<path fill-rule="evenodd" clip-rule="evenodd" fill="#FFFFFF" d="M48.988,54.202c-0.426-0.029-0.908,0.063-1.084-0.504l0.006-0.007
		c0.458-0.023,0.909-0.032,1.037,0.558L48.988,54.202z"/>
	<path fill-rule="evenodd" clip-rule="evenodd" fill="#FFFFFF" d="M43.906,54.011c-0.069,0.015-0.143,0.052-0.208,0.04
		c-0.236-0.045-0.26-0.122-0.068-0.179c0.063-0.02,0.146,0,0.212,0.024C43.873,53.908,43.885,53.972,43.906,54.011z"/>
	<path fill-rule="evenodd" clip-rule="evenodd" fill="#FFFFFF" d="M47.904,53.698c-0.439-0.005-0.833-0.095-1.031-0.551
		l-0.044,0.049c0.435,0.002,0.918-0.101,1.081,0.495L47.904,53.698z"/>
	<path fill-rule="evenodd" clip-rule="evenodd" fill="#FFFFFF" d="M46.874,53.147c-0.419-0.039-0.824-0.108-1.054-0.525l-0.054,0.05
		c0.412,0.058,0.937-0.112,1.063,0.524L46.874,53.147z"/>
	<path fill-rule="evenodd" clip-rule="evenodd" fill="#FFFFFF" d="M88.959,70.309c0.073-0.012,0.151-0.043,0.219-0.031
		c0.258,0.041,0.279,0.104,0.065,0.146c-0.07,0.013-0.149-0.003-0.221-0.022C88.995,70.394,88.98,70.34,88.959,70.309z"/>
	<path fill-rule="evenodd" clip-rule="evenodd" fill="#FFFFFF" d="M90.719,68.701c0.067,0.017,0.137,0.034,0.204,0.052
		c-0.094,0.037-0.188,0.086-0.286,0.107c-0.031,0.007-0.08-0.061-0.12-0.093C90.584,68.745,90.651,68.722,90.719,68.701z"/>
	<path fill-rule="evenodd" clip-rule="evenodd" fill="#FFFFFF" d="M20.389,69.054c0.001-0.192,0.001-0.386,0.002-0.579
		c0.234,0.064,0.669,0.128,0.669,0.193C21.06,69.112,20.635,68.948,20.389,69.054z"/>
	<path fill-rule="evenodd" clip-rule="evenodd" fill="#FFFFFF" d="M123.729,65.606c-0.073,0.023-0.146,0.071-0.217,0.067
		c-0.247-0.011-0.299-0.079-0.144-0.153c0.067-0.029,0.155-0.026,0.229-0.014C123.646,65.517,123.686,65.571,123.729,65.606z"/>
	<path fill-rule="evenodd" clip-rule="evenodd" fill="#FFFFFF" d="M18.828,63.74c0.163,0.001,0.333-0.026,0.487,0.012
		c0.151,0.037,0.285,0.142,0.428,0.218c-0.17,0.24-0.412,0.252-0.634,0.13C18.986,64.034,18.92,63.864,18.828,63.74L18.828,63.74z"
		/>
	<path fill-rule="evenodd" clip-rule="evenodd" fill="#FFFFFF" d="M3.522,62.658c-0.232-0.03-0.476-0.03-0.694-0.102
		c-0.146-0.047-0.086-0.2,0.136-0.224c0.26-0.027,0.447,0.105,0.519,0.371L3.522,62.658z"/>
	<path fill-rule="evenodd" clip-rule="evenodd" fill="#FFFFFF" d="M45.447,75.603c-0.004,0.024-0.003,0.091-0.02,0.096
		c-0.073,0.019-0.157,0.041-0.228,0.023c-0.07-0.017-0.13-0.076-0.194-0.119C45.154,75.603,45.302,75.603,45.447,75.603z"/>
	<path fill-rule="evenodd" clip-rule="evenodd" fill="#FFFFFF" d="M82.306,75.927c0.119-0.61,0.594-0.547,1.035-0.544l-0.016-0.02
		c-0.171,0.55-0.634,0.496-1.062,0.518L82.306,75.927z"/>
	<path fill-rule="evenodd" clip-rule="evenodd" fill="#FFFFFF" d="M82.264,75.881c-0.178,0.305-0.391,0.514-0.768,0.287
		c0.271-0.08,0.539-0.16,0.81-0.241L82.264,75.881z"/>
	<path fill-rule="evenodd" clip-rule="evenodd" fill="#FFFFFF" d="M41.241,76.741c-0.076,0.015-0.155,0.053-0.226,0.039
		c-0.257-0.045-0.28-0.119-0.065-0.175c0.07-0.02,0.156,0,0.229,0.022C41.208,76.637,41.22,76.7,41.241,76.741z"/>
	<path fill-rule="evenodd" clip-rule="evenodd" fill="#FFFFFF" d="M29.939,75.383c0.174-0.54,0.634-0.495,1.062-0.521l-0.039-0.045
		c-0.119,0.624-0.588,0.571-1.044,0.541L29.939,75.383z"/>
	<path fill-rule="evenodd" clip-rule="evenodd" fill="#FFFFFF" d="M32.07,74.339c0.044-0.29,0.218-0.46,0.503-0.454
		c0.221,0.006,0.313,0.189,0.189,0.245c-0.223,0.1-0.484,0.115-0.729,0.167L32.07,74.339z"/>
	<path fill-rule="evenodd" clip-rule="evenodd" fill="#FFFFFF" d="M31.001,74.862c0.169-0.56,0.616-0.547,1.069-0.523l-0.037-0.042
		c-0.148,0.604-0.625,0.53-1.071,0.521L31.001,74.862z"/>
	<path fill-rule="evenodd" clip-rule="evenodd" fill="#FFFFFF" d="M38.146,73.529c-0.141,0.04-0.279,0.095-0.423,0.11
		c-0.058,0.006-0.125-0.073-0.188-0.114c0.142-0.036,0.282-0.087,0.427-0.104C38.019,73.415,38.085,73.491,38.146,73.529z"/>
	<path fill-rule="evenodd" clip-rule="evenodd" fill="#FFFFFF" d="M39.764,74.049c-0.152,0.046-0.304,0.108-0.46,0.126
		c-0.057,0.006-0.125-0.099-0.188-0.151c0.068-0.046,0.144-0.137,0.201-0.127C39.469,73.924,39.615,73.995,39.764,74.049z"/>
	<polygon fill-rule="evenodd" clip-rule="evenodd" fill="#FFFFFF" points="87.83,71.853 87.911,71.983 87.723,71.96 	"/>
	<path fill-rule="evenodd" clip-rule="evenodd" fill="#FFFFFF" d="M16.209,72.763c0.082-0.095,0.162-0.191,0.244-0.286
		c-0.024,0.044-0.037,0.104-0.074,0.132c-0.066,0.046-0.147,0.072-0.222,0.106L16.209,72.763z"/>
	<path fill-rule="evenodd" clip-rule="evenodd" fill="#FFFFFF" d="M18.851,72.748c-0.194,0-0.387,0-0.582,0
		c0.188-0.184,0.375-0.367,0.561-0.552C18.837,72.381,18.843,72.565,18.851,72.748z"/>
	<polygon fill-rule="evenodd" clip-rule="evenodd" fill="#FFFFFF" points="86.111,72.447 86.3,72.416 86.284,72.528 	"/>
	<path fill-rule="evenodd" clip-rule="evenodd" fill="#FFFFFF" d="M18.318,72.701c0.001,0.194,0.002,0.386,0.004,0.578
		c-0.194,0-0.389,0-0.583,0C17.812,72.967,18.013,72.782,18.318,72.701z"/>
	<path fill-rule="evenodd" clip-rule="evenodd" fill="#FFFFFF" d="M34.656,72.749c0.099,0.065,0.198,0.131,0.297,0.197
		c-0.05-0.015-0.118-0.015-0.146-0.047c-0.047-0.056-0.07-0.133-0.102-0.2L34.656,72.749z"/>
	<path fill-rule="evenodd" clip-rule="evenodd" fill="#FFFFFF" d="M70.604,72.759c0.099,0.064,0.196,0.129,0.295,0.192
		c-0.046-0.013-0.111-0.011-0.137-0.04c-0.05-0.059-0.076-0.134-0.111-0.202L70.604,72.759z"/>
	<path fill-rule="evenodd" clip-rule="evenodd" fill="#FFFFFF" d="M67.485,59.002c0.062-0.121,0.125-0.24,0.188-0.36
		c0.26,0.347-0.054,0.283-0.229,0.318L67.485,59.002z"/>
	<path fill-rule="evenodd" clip-rule="evenodd" fill="#FFFFFF" d="M48.983,59.541c0.066-0.086,0.134-0.171,0.2-0.257
		c-0.02,0.043-0.027,0.102-0.06,0.125c-0.054,0.041-0.125,0.057-0.188,0.084L48.983,59.541z"/>
	<path fill-rule="evenodd" clip-rule="evenodd" fill="#FFFFFF" d="M80.698,59.532c0.089-0.085,0.179-0.169,0.268-0.253
		c-0.022,0.061-0.032,0.152-0.075,0.174c-0.067,0.034-0.159,0.02-0.24,0.026L80.698,59.532z"/>
	<path fill-rule="evenodd" clip-rule="evenodd" fill="#FFFFFF" d="M101.854,62.712c0.073-0.09,0.146-0.18,0.218-0.27
		c-0.019,0.048-0.024,0.115-0.06,0.141c-0.061,0.041-0.138,0.055-0.208,0.081L101.854,62.712z"/>
	<path fill-rule="evenodd" clip-rule="evenodd" fill="#FFFFFF" d="M67.449,62.702c0.123,0.059,0.246,0.118,0.369,0.177
		c-0.383,0.349-0.262-0.08-0.332-0.215L67.449,62.702z"/>
	<path fill-rule="evenodd" clip-rule="evenodd" fill="#FFFFFF" d="M80.67,63.228c0.117,0.057,0.236,0.113,0.355,0.169
		c-0.366,0.346-0.24-0.095-0.324-0.202L80.67,63.228z"/>
	<path fill-rule="evenodd" clip-rule="evenodd" fill="#FFFFFF" d="M42.64,64.83c0.067-0.088,0.134-0.177,0.201-0.265
		c-0.021,0.041-0.03,0.096-0.063,0.122c-0.055,0.041-0.124,0.064-0.188,0.094L42.64,64.83z"/>
	<path fill-rule="evenodd" clip-rule="evenodd" fill="#FFFFFF" d="M70.663,69.056c0.062-0.093,0.124-0.187,0.187-0.279
		c-0.012,0.049-0.008,0.115-0.041,0.142c-0.049,0.047-0.124,0.066-0.188,0.097L70.663,69.056z"/>
	<path fill-rule="evenodd" clip-rule="evenodd" fill="#FFFFFF" d="M56.894,71.145c0.111,0.069,0.223,0.138,0.334,0.207
		c-0.359,0.317-0.27-0.065-0.331-0.211L56.894,71.145z"/>
	<path fill-rule="evenodd" clip-rule="evenodd" fill="#FFFFFF" d="M19.374,72.213c-0.183-0.004-0.366-0.008-0.548-0.012
		C19.015,71.833,19.198,71.853,19.374,72.213z"/>
	<path fill-rule="evenodd" clip-rule="evenodd" fill="#FFFFFF" d="M79.605,71.637c-0.002,0.231-0.086,0.33-0.255,0.301
		c0.021-0.054,0.028-0.128,0.066-0.155c0.07-0.045,0.161-0.064,0.241-0.095L79.605,71.637z"/>
	<path fill-rule="evenodd" clip-rule="evenodd" fill="#FFFFFF" d="M17.798,73.228c-0.035,0.354-0.245,0.537-0.585,0.588
		C17.259,73.472,17.482,73.303,17.798,73.228z"/>
	<polygon fill-rule="evenodd" clip-rule="evenodd" fill="#FFFFFF" points="38.132,74.468 38.222,74.619 38.015,74.599 	"/>
	<path fill-rule="evenodd" clip-rule="evenodd" fill="#FFFFFF" d="M34.181,76.462c0.075-0.082,0.151-0.164,0.226-0.248
		c-0.026,0.038-0.046,0.087-0.082,0.11c-0.059,0.038-0.128,0.061-0.193,0.09L34.181,76.462z"/>
	<path fill-rule="evenodd" clip-rule="evenodd" fill="#FFFFFF" d="M84.41,48.375c-0.131-0.084-0.264-0.169-0.396-0.253
		c0.136-0.073,0.271-0.144,0.406-0.216l-0.054-0.051c-0.003,0.19-0.005,0.38-0.007,0.57L84.41,48.375z"/>
	<path fill-rule="evenodd" clip-rule="evenodd" fill="#FFFFFF" d="M84.933,48.917c-0.312-0.048-0.466-0.248-0.522-0.541l-0.05,0.05
		c0.297,0.059,0.525,0.185,0.531,0.533L84.933,48.917z"/>
	<path fill-rule="evenodd" clip-rule="evenodd" fill="#FFFFFF" d="M80.13,48.917c0.19,0.003,0.382,0.006,0.573,0.01
		C80.507,49.231,80.314,49.316,80.13,48.917z"/>
	<path fill-rule="evenodd" clip-rule="evenodd" fill="#FFFFFF" d="M84.892,48.958c0.354-0.006,0.542,0.159,0.537,0.522l0.03-0.032
		c-0.332-0.021-0.494-0.213-0.526-0.532L84.892,48.958z"/>
	<path fill-rule="evenodd" clip-rule="evenodd" fill="#FFFFFF" d="M74.31,49.443c0.196,0,0.393,0.001,0.59,0.001
		c-0.02,0.188-0.038,0.378-0.057,0.567l0.052-0.052C74.606,49.893,74.403,49.73,74.31,49.443z"/>
	<path fill-rule="evenodd" clip-rule="evenodd" fill="#FFFFFF" d="M85.989,49.974c-0.323-0.026-0.506-0.195-0.53-0.525l-0.03,0.032
		c0.36-0.004,0.515,0.191,0.521,0.533L85.989,49.974z"/>
	<path fill-rule="evenodd" clip-rule="evenodd" fill="#FFFFFF" d="M87.544,49.451c0.19-0.002,0.381-0.004,0.571-0.006
		C87.93,49.855,87.74,49.92,87.544,49.451z"/>
	<path fill-rule="evenodd" clip-rule="evenodd" fill="#FFFFFF" d="M45.765,50.011c0.105,0.074,0.209,0.148,0.313,0.222
		c-0.061-0.012-0.146-0.005-0.176-0.042c-0.049-0.061-0.062-0.15-0.09-0.227L45.765,50.011z"/>
	<path fill-rule="evenodd" clip-rule="evenodd" fill="#FFFFFF" d="M82.293,51.567c-0.297-0.054-0.451-0.25-0.525-0.525l-0.051,0.047
		c0.346,0,0.544,0.154,0.53,0.521L82.293,51.567z"/>
	<path fill-rule="evenodd" clip-rule="evenodd" fill="#FFFFFF" d="M83.344,51.605c0.157-0.273,0.318-0.425,0.483-0.006l0.051-0.05
		c-0.192,0.003-0.383,0.008-0.573,0.011L83.344,51.605z"/>
	<path fill-rule="evenodd" clip-rule="evenodd" fill="#FFFFFF" d="M87.007,51.088c0.137,0.046,0.272,0.092,0.408,0.139
		c-0.344,0.376-0.252-0.099-0.358-0.186L87.007,51.088z"/>
	<path fill-rule="evenodd" clip-rule="evenodd" fill="#FFFFFF" d="M44.176,51.596c0.094,0.068,0.188,0.136,0.281,0.204
		c-0.047-0.018-0.111-0.021-0.138-0.055c-0.044-0.055-0.063-0.129-0.094-0.196L44.176,51.596z"/>
	<path fill-rule="evenodd" clip-rule="evenodd" fill="#FFFFFF" d="M55.297,51.6c0.299,0.049,0.484,0.212,0.52,0.523l0.043-0.042
		c-0.352,0-0.533-0.168-0.52-0.527L55.297,51.6z"/>
	<path fill-rule="evenodd" clip-rule="evenodd" fill="#FFFFFF" d="M83.827,51.599c0.097,0.077,0.192,0.153,0.287,0.23
		c-0.049-0.021-0.117-0.027-0.144-0.063c-0.045-0.063-0.062-0.143-0.093-0.217L83.827,51.599z"/>
	<path fill-rule="evenodd" clip-rule="evenodd" fill="#FFFFFF" d="M91.813,52.078c-0.094-0.057-0.187-0.114-0.279-0.171
		c0.038,0.018,0.085,0.027,0.11,0.056c0.046,0.049,0.078,0.11,0.115,0.166L91.813,52.078z"/>
	<path fill-rule="evenodd" clip-rule="evenodd" fill="#FFFFFF" d="M45.819,52.622c-0.128-0.062-0.255-0.125-0.382-0.187
		c0.353-0.26,0.28,0.073,0.329,0.236L45.819,52.622z"/>
	<path fill-rule="evenodd" clip-rule="evenodd" fill="#FFFFFF" d="M55.817,52.123c0.303,0.052,0.49,0.217,0.524,0.533l0.046-0.045
		c-0.33-0.024-0.524-0.182-0.527-0.53L55.817,52.123z"/>
	<path fill-rule="evenodd" clip-rule="evenodd" fill="#FFFFFF" d="M91.76,52.128c0.133,0.059,0.268,0.118,0.401,0.177
		c-0.366,0.306-0.265-0.103-0.348-0.228L91.76,52.128z"/>
	<path fill-rule="evenodd" clip-rule="evenodd" fill="#FFFFFF" d="M53.754,53.15c-0.083-0.071-0.167-0.142-0.25-0.212
		c0.04,0.021,0.092,0.035,0.116,0.068c0.04,0.056,0.061,0.124,0.089,0.187L53.754,53.15z"/>
	<path fill-rule="evenodd" clip-rule="evenodd" fill="#FFFFFF" d="M56.342,52.656c0.319,0.035,0.507,0.198,0.524,0.529l0.047-0.046
		c-0.331-0.022-0.51-0.194-0.526-0.529L56.342,52.656z"/>
	<path fill-rule="evenodd" clip-rule="evenodd" fill="#FFFFFF" d="M56.866,53.185c0.102,0.083,0.202,0.167,0.303,0.249
		c-0.058-0.017-0.14-0.018-0.168-0.057c-0.048-0.066-0.06-0.158-0.087-0.238L56.866,53.185z"/>
	<polygon fill-rule="evenodd" clip-rule="evenodd" fill="#FFFFFF" points="48.167,55.618 48.094,55.499 48.268,55.522 	"/>
	<path fill-rule="evenodd" clip-rule="evenodd" fill="#FFFFFF" d="M75.427,50.505c-0.317-0.045-0.475-0.247-0.532-0.545
		l-0.052,0.052c0.302,0.059,0.521,0.199,0.536,0.54L75.427,50.505z"/>
	<path fill-rule="evenodd" clip-rule="evenodd" fill="#FFFFFF" d="M77.489,50.012c0.105,0.074,0.21,0.148,0.312,0.221
		c-0.061-0.01-0.147,0.001-0.179-0.035c-0.05-0.059-0.063-0.149-0.093-0.226L77.489,50.012z"/>
	<path fill-rule="evenodd" clip-rule="evenodd" fill="#FFFFFF" d="M81.23,50.496c-0.074-0.085-0.149-0.17-0.224-0.256
		c0.041,0.031,0.099,0.054,0.119,0.095c0.032,0.065,0.038,0.143,0.056,0.214L81.23,50.496z"/>
	<path fill-rule="evenodd" clip-rule="evenodd" fill="#FFFFFF" d="M85.949,50.014c0.335,0.019,0.53,0.177,0.525,0.531l0.042-0.043
		c-0.319-0.033-0.488-0.214-0.527-0.527L85.949,50.014z"/>
	<path fill-rule="evenodd" clip-rule="evenodd" fill="#FFFFFF" d="M89.155,50.503c-0.377-0.179-0.398-0.345,0.019-0.495
		l-0.047-0.047c-0.001,0.191-0.002,0.382-0.004,0.573L89.155,50.503z"/>
	<path fill-rule="evenodd" clip-rule="evenodd" fill="#FFFFFF" d="M81.182,50.549c0.346,0.014,0.516,0.201,0.535,0.54l0.051-0.047
		c-0.181-0.182-0.359-0.364-0.537-0.546L81.182,50.549z"/>
	<path fill-rule="evenodd" clip-rule="evenodd" fill="#FFFFFF" d="M86.475,50.544c0.336,0.025,0.486,0.233,0.532,0.543l0.05-0.047
		c-0.18-0.18-0.359-0.359-0.54-0.54L86.475,50.544z"/>
	<path fill-rule="evenodd" clip-rule="evenodd" fill="#FFFFFF" d="M89.123,50.535c0.059,0.043,0.119,0.086,0.179,0.129
		c-0.049-0.053-0.097-0.106-0.146-0.16L89.123,50.535z"/>
	<path fill-rule="evenodd" clip-rule="evenodd" fill="#FFFFFF" d="M55.341,51.554c-0.341-0.008-0.553-0.15-0.541-0.524l-0.037,0.037
		c0.336,0.019,0.46,0.251,0.535,0.534L55.341,51.554z"/>
</g>
</svg>
