<?xml version="1.0" encoding="utf-8"?>
<!-- Generator: Adobe Illustrator 16.0.4, SVG Export Plug-In . SVG Version: 6.00 Build 0)  -->
<!DOCTYPE svg PUBLIC "-//W3C//DTD SVG 1.1//EN" "http://www.w3.org/Graphics/SVG/1.1/DTD/svg11.dtd">
<svg version="1.1" id="Layer_0304" xmlns="http://www.w3.org/2000/svg" xmlns:xlink="http://www.w3.org/1999/xlink" x="0px" y="0px"
	 width="128px" height="128px" viewBox="0 0 128 128" enable-background="new 0 0 128 128" xml:space="preserve">
<g>
	<path fill-rule="evenodd" clip-rule="evenodd" d="M48.682,38.104c13.259,0.135,24.036,1.928,34.716,4.479
		c3.912,0.934,7.797,1.96,11.535,3.448c0.998,0.398,1.517,0.251,2.093-0.608c1.479-2.206,3.156-4.261,4.916-6.254
		c3.141-3.555,6.76-6.531,10.67-9.196c2.617-1.783,5.12-3.73,7.716-5.546c1.339-0.937,1.51-0.83,1.58,0.776
		c0.159,3.592,0.301,7.186,0.427,10.78c0.463,13.21,2.134,26.248,5.505,39.046c0.087,0.331,0.141,0.671,0.224,1.003
		c0.237,0.948,0.156,1.521-1.082,1.15c-2.455-0.733-4.94-1.371-7.395-2.115c-5.238-1.586-10.449-3.262-15.479-5.438
		c-1.721-0.743-3.517-1.428-4.895-2.767c-0.866-0.843-1.528-0.671-2.442-0.033c-3.58,2.498-7.176,4.974-10.842,7.338
		c-7.536,4.857-15.588,8.562-24.398,10.439c-1.032,0.222-1.45,0.62-1.54,1.624c-0.182,2.045-0.492,4.077-0.648,6.122
		c-0.107,1.409-0.751,1.692-2.03,1.391c-5.451-1.291-10.326-3.646-14.208-7.756c-1.161-1.229-2.459-1.946-4.073-2.42
		c-8.065-2.373-15.273-6.414-21.875-11.569c-2.9-2.264-5.856-4.46-8.557-6.976c-0.819-0.762-1.075-1.394-0.458-2.414
		c6.686-11.055,15.377-19.678,28.266-23.095C41.146,38.258,46.029,37.997,48.682,38.104z M45.704,61.082
		c0.207-1.996-0.364-4.041-1.25-6.011c-1.573-3.505-4.025-6.325-6.94-8.77c-0.32-0.269-0.698-0.498-1.086-0.646
		c-0.4-0.152-0.91-0.157-1.179,0.184c-0.102,0.129,0.181,0.621,0.356,0.904c3.603,5.804,4.691,12.215,4.468,18.907
		c-0.125,3.72-0.763,7.323-3.568,10.129c-0.244,0.243-0.537,0.505-0.244,0.838c0.377,0.431,0.795,0.173,1.118-0.109
		c2.523-2.21,4.722-4.686,6.354-7.648C45.039,66.489,45.817,64.005,45.704,61.082z M117.061,36.312
		c-0.059-0.526,0.442-1.304-0.222-1.576c-0.573-0.235-1.016,0.49-1.508,0.797c-0.359,0.224-0.662,0.538-0.983,0.818
		c-4.904,4.283-9.179,9.15-13.184,14.264c-0.197,0.25-0.625,0.523-0.356,0.81c0.274,0.292,0.582-0.14,0.822-0.317
		c4.186-3.091,8.292-6.299,12.572-9.252C116.252,40.439,117.321,38.798,117.061,36.312z M117.621,49.434
		c-0.053-2.973-0.126-3.028-2.678-2.047c-4.805,1.848-9.329,4.254-13.73,6.905c-0.201,0.121-0.525,0.369-0.496,0.482
		c0.128,0.5,0.5,0.212,0.786,0.146c4.912-1.12,9.82-2.25,14.734-3.36C117.519,51.27,117.856,50.461,117.621,49.434z M24.173,55.173
		c-0.007,1.548,1.387,3.115,2.797,3.145c1.309,0.028,2.574-1.245,2.642-2.654c0.073-1.552-1.541-3.337-2.986-3.3
		C25.333,52.396,24.179,53.717,24.173,55.173z"/>
	<path fill-rule="evenodd" clip-rule="evenodd" d="M26.187,106.414c-10.294,0.131-20.644-5.995-24.521-16.248
		c-2.21-5.849-1.918-11.704,0.19-17.548c0.472-1.308,1.048-1.459,2.276-0.988c3.289,1.269,3.354,1.228,2.491,4.71
		c-0.622,2.507-1.103,4.996-0.761,7.602c1.351,10.325,9.788,15.324,16.365,16.482c8.558,1.509,15.173-1.818,20.393-8.443
		c0.211-0.268,0.379-0.569,0.571-0.852c0.145-0.214,0.253-0.48,0.451-0.62c1.787-1.258,2.603,0.808,3.913,1.199
		c0.917,0.272,1.392,0.962,0.728,1.979c-3.885,5.956-9.078,10.166-16.031,12.019C30.176,106.261,28.055,106.495,26.187,106.414z"/>
	<path fill-rule="evenodd" clip-rule="evenodd" d="M26.695,84.094c0.517,3.317,2.036,6.318,3.011,9.491
		c0.226,0.734,0.499,1.453,0.73,2.187c0.639,2.029,0.592,2.228-1.388,2.564c-2.541,0.431-5.086,0.392-7.638-0.164
		c-1.312-0.284-1.449-0.863-1.047-1.98c1.303-3.609,2.542-7.242,3.843-10.854c0.206-0.572,0.386-1.127,0.403-1.731
		c0.033-0.154,0.439-0.188,0.146-0.447c-0.035,0.161-0.071,0.322-0.106,0.483c-1.734,2.237-2.794,4.852-4.1,7.329
		c-0.757,1.435-1.598,2.828-2.288,4.294c-0.579,1.227-1.24,1.121-2.199,0.464c-2.149-1.472-3.963-3.241-5.259-5.517
		c-0.979-1.722-0.968-1.857,0.785-2.646c2.648-1.191,5.322-2.323,7.985-3.479c0.94-0.408,1.889-0.797,2.814-1.234
		c0.262-0.123,0.457-0.39,0.684-0.591c-0.333,0.006-0.683-0.055-0.995,0.026c-3.552,0.913-7.099,1.846-10.646,2.776
		c-2.536,0.667-2.709,0.544-2.854-2.155c-0.115-2.143-0.09-4.278,0.58-6.348c0.644-1.987,0.784-2.095,2.669-1.264
		c3.672,1.617,7.421,3.115,10.92,5.056c2.057,1.141,4.209,1.895,6.336,2.786c2.362,0.991,4.678,2.09,7.012,3.146
		c1.323,0.599,2.621,1.256,3.966,1.796c0.968,0.39,1.085,0.912,0.617,1.776c-1.467,2.713-3.668,4.697-6.208,6.348
		c-1.036,0.672-1.317-0.224-1.67-0.89c-1.676-3.172-3.345-6.347-5.019-9.521c-0.314-0.595-0.496-1.282-1.127-1.663
		c-0.056-0.215-0.113-0.43-0.169-0.643c-0.056,0.05-0.155,0.097-0.161,0.151C26.294,83.908,26.395,84.089,26.695,84.094z"/>
	<path fill-rule="evenodd" clip-rule="evenodd" d="M62.861,34.439c-6.21-0.255-12.522-0.87-18.866-0.195
		c-1.622,0.172-3.198,0.571-4.817,0.706c-0.289,0.024-0.703,0.287-0.808-0.206c-0.043-0.204,0.105-0.519,0.269-0.684
		c1.328-1.35,2.816-2.506,4.481-3.404c6.55-3.532,13.561-5.622,20.918-6.607c0.169-0.022,0.34-0.041,0.51-0.053
		c2.27-0.172,2.543,0.114,1.732,2.143c-0.926,2.321-1.533,4.708-1.835,7.182C64.337,34.201,64.06,34.851,62.861,34.439z"/>
	<path fill-rule="evenodd" clip-rule="evenodd" fill="#FFFFFF" d="M45.704,61.082c0.113,2.924-0.665,5.408-1.971,7.776
		c-1.632,2.963-3.832,5.438-6.354,7.648c-0.322,0.282-0.741,0.54-1.118,0.109c-0.292-0.333,0-0.595,0.244-0.838
		c2.805-2.806,3.443-6.409,3.568-10.129c0.224-6.691-0.865-13.103-4.468-18.907c-0.176-0.283-0.458-0.774-0.356-0.904
		c0.269-0.341,0.779-0.335,1.179-0.184c0.389,0.148,0.766,0.378,1.086,0.646c2.915,2.445,5.367,5.265,6.94,8.77
		C45.34,57.041,45.911,59.085,45.704,61.082z"/>
	<path fill-rule="evenodd" clip-rule="evenodd" fill="#FFFFFF" d="M117.061,36.312c0.261,2.487-0.809,4.128-2.858,5.544
		c-4.28,2.954-8.387,6.161-12.572,9.252c-0.24,0.177-0.548,0.609-0.822,0.317c-0.269-0.287,0.159-0.56,0.356-0.81
		c4.005-5.114,8.279-9.981,13.184-14.264c0.321-0.28,0.624-0.594,0.983-0.818c0.492-0.308,0.935-1.032,1.508-0.797
		C117.503,35.007,117.002,35.786,117.061,36.312z"/>
	<path fill-rule="evenodd" clip-rule="evenodd" fill="#FFFFFF" d="M117.621,49.434c0.235,1.028-0.103,1.836-1.384,2.126
		c-4.914,1.11-9.822,2.24-14.734,3.36c-0.286,0.066-0.658,0.354-0.786-0.146c-0.029-0.114,0.295-0.361,0.496-0.482
		c4.401-2.65,8.926-5.057,13.73-6.905C117.495,46.406,117.568,46.46,117.621,49.434z"/>
	<path fill-rule="evenodd" clip-rule="evenodd" fill="#FFFFFF" d="M24.173,55.173c0.006-1.456,1.16-2.778,2.453-2.81
		c1.445-0.037,3.059,1.748,2.986,3.3c-0.067,1.41-1.333,2.682-2.642,2.654C25.56,58.288,24.166,56.721,24.173,55.173z"/>
	<path fill-rule="evenodd" clip-rule="evenodd" fill="#FFFFFF" d="M24.648,83.643c0.035-0.161,0.071-0.322,0.106-0.483
		c0.294,0.26-0.113,0.293-0.146,0.447L24.648,83.643z"/>
	<path fill-rule="evenodd" clip-rule="evenodd" fill="#FFFFFF" d="M26.695,84.094c-0.3-0.005-0.401-0.186-0.374-0.452
		c0.005-0.055,0.104-0.102,0.161-0.151c0.056,0.213,0.113,0.428,0.169,0.643L26.695,84.094z"/>
</g>
</svg>
