<?xml version="1.0" encoding="utf-8"?>
<!-- Generator: Adobe Illustrator 16.0.4, SVG Export Plug-In . SVG Version: 6.00 Build 0)  -->
<!DOCTYPE svg PUBLIC "-//W3C//DTD SVG 1.1//EN" "http://www.w3.org/Graphics/SVG/1.1/DTD/svg11.dtd">
<svg version="1.1" id="Layer_0305" xmlns="http://www.w3.org/2000/svg" xmlns:xlink="http://www.w3.org/1999/xlink" x="0px" y="0px"
	 width="128px" height="128px" viewBox="0 0 128 128" enable-background="new 0 0 128 128" xml:space="preserve">
<g>
	<path fill-rule="evenodd" clip-rule="evenodd" d="M60.938,126.975c-6.134,0.415-12.348-0.055-18.542-0.501
		c-6.43-0.463-12.886-1.022-19.117-2.896c-2.066-0.621-4.092-1.365-5.851-2.669c-3.11-2.304-3.171-5.618,0.064-7.751
		c1.341-0.884,1.607-1.83,1.6-3.258c-0.046-9.209-0.022-18.418-0.022-27.627c0-4.388-0.036-8.775,0.018-13.162
		c0.016-1.256-0.329-2.104-1.353-2.945c-2.194-1.802-2.064-3.886,0.273-5.534c2.844-2.005,6.153-2.798,9.531-3.334
		c5.317-0.842,10.663-1.565,16.03-1.827c8.44-0.411,16.885-1.016,25.35-0.359c3.881,0.301,7.785,0.172,11.673,0.585
		c2.797,0.298,5.603,0.51,8.385,0.94c0.316,0.049,0.651-0.027,0.979-0.046c-0.157-0.274-0.269-0.593-0.479-0.817
		c-3.074-3.266-5.929-6.717-8.494-10.391c-4.858-6.959-9.184-14.204-11.443-22.484c-1.101-4.027-1.754-8.097-0.797-12.266
		c0.545-2.366,1.396-4.544,3.008-6.451c2.697-3.191,6.107-3.934,9.882-2.847c4.899,1.411,9.326,3.663,12.922,7.512
		c9.616,10.293,15.558,22.386,17.943,36.202c0.588,3.405,0.612,6.938-0.246,10.382c-0.866,3.474-2.871,5.983-5.899,7.948
		c-2.082,1.35-3.754,3.142-3.729,6.128c0.11,13.438,0.062,26.879,0.029,40.319c-0.003,1.564,0.232,2.704,1.661,3.792
		c2.67,2.031,2.468,5.084-0.224,7.135c-2.287,1.743-5.002,2.552-7.723,3.299c-4.009,1.102-8.131,1.553-12.25,1.923
		C76.439,126.664,68.753,127.266,60.938,126.975z M108.206,49.504c0.014-3.335-0.559-6.581-1.454-9.782
		c-2.716-9.711-7.388-18.422-13.812-26.14c-3.338-4.008-7.564-6.927-12.764-8.157c-2.555-0.605-4.054,0.043-5.443,2.295
		c-1.779,2.885-2.128,6.068-1.732,9.334c0.377,3.127,1.17,6.17,2.375,9.093c3.893,9.445,9.578,17.737,16.341,25.331
		c2.481,2.785,5.02,5.504,8.345,7.348c2.209,1.223,3.496,1.176,5.443-0.389c0.999-0.804,1.641-1.842,2.057-3.041
		C108.225,53.48,108.195,51.49,108.206,49.504z M52.558,104.026c1.246,0,2.464-0.035,3.708-0.25
		c5.199-0.894,9.775-2.953,13.598-6.662c1.601-1.552,2.386-1.48,4.019-0.04c0.372,0.327,0.688,0.719,1.05,1.059
		c1.401,1.313,2.99,2.353,4.726,3.169c0.282,0.133,0.634,0.342,0.867-0.034c0.112-0.183,0.082-0.466,0.077-0.703
		c-0.005-0.161-0.071-0.322-0.122-0.479c-1.305-4.018-2.627-8.019-1.932-12.365c0.144-0.889-0.527-0.896-1.122-0.457
		c-1.131,0.836-2.287,1.646-3.35,2.564c-2.222,1.92-2.417,1.968-4.488,0.056c-3.36-3.104-7.175-5.226-11.759-5.981
		c-9.086-1.5-17.101,0.297-23.56,7.254c-2.09,2.252-2.116,2.612-0.036,4.875C39.164,101.393,45.354,103.878,52.558,104.026z
		 M58.718,67.771c6.931-0.08,11.981-0.127,17.035-0.447c6.372-0.404,12.7-1.053,18.977-2.205c1.382-0.253,2.745-0.613,4.116-0.923
		c0.236-0.053,0.508-0.088,0.537-0.39c0.029-0.298-0.25-0.356-0.443-0.493c-1.191-0.838-2.589-1.098-3.964-1.357
		c-8.319-1.576-16.734-2.318-25.183-2.531c-10.939-0.275-21.883-0.266-32.783,0.972c-4.605,0.523-9.19,1.192-13.712,2.231
		c-0.562,0.129-1.117,0.297-1.666,0.479c-0.14,0.047-0.302,0.195-0.346,0.332c-0.091,0.277,0.145,0.453,0.352,0.521
		c0.547,0.182,1.109,0.326,1.671,0.456c6.223,1.438,12.549,2.25,18.899,2.709C48.322,67.565,54.452,67.97,58.718,67.771z
		 M90.756,92.417c-0.016,0-0.032,0-0.049,0c0,6.632-0.002,13.266,0.003,19.898c0.001,0.658-0.097,1.34,0.2,1.961
		c0.301,0.632,0.803,1.093,1.521,1.125c0.8,0.034,1.106-0.572,1.368-1.221c0.258-0.641,0.243-1.299,0.243-1.959
		c0.001-13.102-0.001-26.202-0.001-39.303c0-0.747-0.017-1.48-0.297-2.2c-0.242-0.624-0.639-0.944-1.297-0.939
		c-0.73,0.005-1.371,0.298-1.543,1.011c-0.17,0.713-0.143,1.48-0.143,2.224C90.752,79.481,90.756,85.948,90.756,92.417z
		 M98.123,91.138c0-6.875,0.017-13.748-0.025-20.623c-0.004-0.711,0.51-2.034-0.687-1.988c-1.079,0.043-0.608,1.35-0.61,2.088
		c-0.029,13.666-0.027,27.332-0.002,40.998c0.001,0.761-0.387,2.13,0.586,2.118c1.197-0.015,0.709-1.421,0.714-2.219
		C98.14,104.721,98.122,97.929,98.123,91.138z M74.166,121.598c-1.264,0-2.174-0.014-3.083,0.007
		c-0.348,0.008-0.669,0.172-0.687,0.562c-0.025,0.523,0.361,0.691,0.8,0.729c0.328,0.027,0.665,0.029,0.992-0.012
		c4.833-0.625,9.726-0.541,14.55-1.371c4.324-0.743,8.602-1.61,12.781-2.948c0.559-0.179,1.111-0.337,1.572-0.702
		c0.191-0.15,0.32-0.393,0.188-0.623c-0.064-0.112-0.281-0.182-0.433-0.188c-0.243-0.008-0.504,0.009-0.73,0.089
		c-4.536,1.601-9.247,2.434-13.969,3.241C82.062,121.081,77.927,121.198,74.166,121.598z"/>
</g>
</svg>
