<?xml version="1.0" encoding="utf-8"?>
<!-- Generator: Adobe Illustrator 16.0.4, SVG Export Plug-In . SVG Version: 6.00 Build 0)  -->
<!DOCTYPE svg PUBLIC "-//W3C//DTD SVG 1.1//EN" "http://www.w3.org/Graphics/SVG/1.1/DTD/svg11.dtd">
<svg version="1.1" id="Layer_0306" xmlns="http://www.w3.org/2000/svg" xmlns:xlink="http://www.w3.org/1999/xlink" x="0px" y="0px"
	 width="128px" height="128px" viewBox="0 0 128 128" enable-background="new 0 0 128 128" xml:space="preserve">
<g id="Hw3Ml1.tif">
	<g>
		<path d="M60.171,4.163c-2.663,1.219-5.603,1.52-8.321,2.658C38.291,12.5,31.135,23.162,27.997,37.019
			c-0.431,1.904-0.318,2.005,1.619,1.409c7.339-2.256,14.765-4.166,22.31-5.58c7.914-1.484,15.885-2.483,23.959-1.851
			c4.024,0.316,8.008,0.979,11.418,3.359c4.266,2.977,5.52,7.287,4.998,12.23c-0.533,5.078-3.57,8.328-8.156,10
			c-2.074,0.755-3.481,1.789-4.574,3.681c-2.188,3.784-4.553,7.467-6.916,11.146c-0.704,1.098-0.682,2.121-0.365,3.302
			c1.545,5.805,4.17,10.984,8.502,15.235c0.688,0.676,1.499,1.276,1.927,2.194l0.037-0.035c-1.987-0.567-3.26-2.155-4.642-3.482
			c-4.336-4.16-7.277-9.199-8.959-14.986c-0.299-1.029-0.244-1.843,0.228-2.791c1.712-3.432,3.362-6.893,4.991-10.363
			c0.949-2.022,0.828-2.084-1.461-2.011c-1.246,0.041-1.919,0.622-2.527,1.616c-2.794,4.564-5.604,9.121-8.499,13.623
			c-0.891,1.385-0.7,2.719-0.303,4.1c1.426,4.949,3.703,9.453,7.144,13.334c0.588,0.662,1.104,1.386,1.652,2.08l0.041-0.037
			c-2.938-1.051-4.637-3.539-6.439-5.803c-2.572-3.227-4.321-6.931-5.553-10.89c-0.404-1.299-0.293-2.351,0.306-3.554
			c2.023-4.065,3.969-8.17,5.862-12.298c0.297-0.647,1.623-1.583,0.291-2.148c-1.05-0.446-2.562-1.08-3.509,0.633
			c-0.948,1.712-2.042,3.345-3.079,5.006c-2.451,3.932-4.895,7.868-7.366,11.785c-0.615,0.976-0.685,1.935-0.404,3.048
			c1.537,6.1,4.383,11.446,8.904,15.866c0.311,0.306,0.554,0.679,0.83,1.019l-0.133,0.138c-4.623-2.597-7.589-6.731-9.995-11.242
			c-3.639-6.821-3.55-6.882-0.243-13.826c1.804-3.786,3.648-7.556,5.503-11.32c1.062-2.153,1.015-2.342-1.265-2.726
			c-10.235-1.724-20.188-4.561-30.094-7.588c-0.17-0.052-0.354-0.074-0.514-0.149c-0.475-0.224-1.314-0.239-1.332-0.719
			c-0.019-0.536,0.772-0.614,1.283-0.737c1.475-0.354,2.957-0.68,4.431-1.039c0.326-0.08,0.741-0.004,0.928-0.412
			c-0.333-0.076-0.664-0.198-1.001-0.222c-4.812-0.344-9.624-0.667-14.435-1.021c-0.473-0.035-1.253,0.253-1.331-0.417
			c-0.07-0.61,0.719-0.651,1.2-0.819c1.856-0.646,3.683-1.413,5.583-1.88c2.251-0.554,3.166-1.724,3.187-4.116
			c0.052-6.065,1.653-11.849,4.113-17.345c3.947-8.821,10.33-15.321,19.196-19.29c0.799-0.358,1.587-0.872,2.546-0.658l-0.034-0.044
			c-1.613,1.442-3.723,1.99-5.543,3.083c-9.147,5.488-14.715,13.559-17.387,23.732c-0.905,3.444-1.658,6.947-1.686,10.537
			c-0.006,0.766-0.577,2.045,0.744,2.173c1.203,0.116,2.19-0.493,2.397-1.963c0.324-2.305,1.168-4.481,1.921-6.669
			c3.046-8.847,8.034-16.309,16-21.441c4.822-3.107,9.973-5.54,15.899-5.672L60.171,4.163z M48.61,44.928
			c2.223,0.062,4.287-1.877,4.406-4.138c0.128-2.47-1.753-4.417-4.292-4.444c-2.283-0.025-4.274,1.919-4.302,4.198
			C44.395,42.768,46.4,44.867,48.61,44.928z"/>
		<path d="M99.934,96.406c0.188,1.003,1.09,1.361,1.762,1.906c1.814,1.467,1.834,1.453,0.087,3.158
			c-2.37,2.312-5.034,4.266-7.63,6.305c-1.033,0.812-1.737,0.42-2.573-0.28c-1.991-1.669-3.733-3.579-5.543-5.433
			c-1.142-1.17-0.986-1.832,0.198-2.992c4.527-4.428,8.158-9.461,9.395-15.865c1.87-9.708-1.451-17.348-9.309-23.138
			c-1.85-1.366-1.905-1.367,0.115-2.35c7.338-3.572,8.816-11.915,6.752-18.411c-0.162-0.508-0.444-0.976-0.631-1.477
			c-0.146-0.391-0.519-0.869-0.045-1.188c0.194-0.131,0.694,0.074,0.995,0.237c2.437,1.314,4.882,2.623,7.114,4.263
			c2.523,1.854,4.762,4.037,6.992,6.233c1.398,1.374,1.492,2.641,0.412,4.212c-1.52,2.208-2.963,4.464-4.961,6.295
			c-0.276,0.253-0.877,0.54-0.48,1.011c0.213,0.251,0.62-0.15,0.908-0.333c2.354-1.485,4.545-3.179,6.32-5.333
			c0.893-1.081,1.48-1.057,2.127,0.18c1.533,2.933,2.854,5.925,3.717,9.154c0.504,1.887-0.139,2.855-1.623,3.674
			c-1.645,0.906-3.314,1.75-5.078,2.41c-0.482,0.18-1.419,0.484-1.294,0.703c0.339,0.592,1.11,0.25,1.659,0.125
			c1.824-0.423,3.65-0.865,5.431-1.438c1.327-0.427,1.71-0.023,1.771,1.297c0.166,3.79-0.424,7.476-1.342,11.127
			c-0.246,0.972-0.805,1.444-1.824,1.662c-2.213,0.469-4.439,0.412-6.672,0.437c-0.363,0.004-0.881-0.291-1.059,0.271
			c-0.023,0.073,0.527,0.403,0.85,0.503c1.625,0.501,3.299,0.77,4.996,0.902c1.379,0.11,2.182,0.504,1.412,2.162
			c-1.896,4.088-4.412,7.746-7.349,11.14c-0.652,0.756-1.386,0.599-2.191,0.323c-1.177-0.404-2.146-1.312-3.444-1.408
			c-0.215-0.463-0.697-0.389-1.068-0.54l-0.096-0.106l0.09,0.1C99.17,96.122,99.471,96.445,99.934,96.406z"/>
		<path d="M82.771,120.602c-1.146,0.943-1.488,2.381-2.172,3.604c-0.533,0.949-0.961,1.086-1.801,0.348
			c-2.131-1.881-2.219-2.394-0.852-4.949c0.58-1.082,1.338-2.104,1.501-3.377l0.198-0.035l-0.16,0.078
			c-1.305,0.726-1.92,2.09-2.877,3.137c-0.601,0.654-1.159,1.171-1.94,0.24c-0.629-0.75-1.423-1.383-0.421-2.49
			c1.059-1.168,2.662-1.877,3.102-3.578c0.32-0.027,0.494-0.205,0.537-0.52l0.031,0.033c-0.318,0.033-0.484,0.219-0.527,0.526
			c-1.564,0.329-2.537,1.593-3.768,2.438c-0.896,0.617-1.548,0.723-2.248-0.226c-0.838-1.133,0.014-1.539,0.77-2.063
			c1.375-0.953,3.047-1.479,4.129-2.854l0.035,0.036c-1.941,0.377-3.637,1.415-5.479,2.05c-1.381,0.476-4.179-1.531-3.968-2.875
			c0.102-0.638,0.711-0.722,1.218-0.875c1.45-0.438,2.905-0.86,4.351-1.325c0.219-0.07,0.381-0.322,0.568-0.49
			c-0.24-0.064-0.492-0.213-0.721-0.182c-1.854,0.252-3.703,0.54-5.557,0.811c-0.789,0.115-1.666,0.364-2.107-0.595
			c-0.397-0.866-0.298-1.77,0.304-2.522c0.687-0.857,1.594-1.438,2.698-1.604c4.76-0.715,9.525-1.398,14.285-2.113
			c1.162-0.174,2.031,0.155,2.818,1.074c1.686,1.967,3.504,3.818,5.553,5.41c0.851,0.66,0.965,1.319,0.655,2.311
			c-1.517,4.847-2.924,9.729-4.469,14.564c-0.495,1.553-1.295,3.006-3.304,2.997c-1.217-0.005-1.812-0.438-1.514-1.812
			c0.375-1.73,1.254-3.361,1.084-5.205c0.604-0.398,0.463-1.034,0.517-1.608l0.091-0.069l-0.073,0.077
			C82.863,119.441,82.662,119.977,82.771,120.602z"/>
	</g>
</g>
</svg>
