<?xml version="1.0" encoding="utf-8"?>
<!-- Generator: Adobe Illustrator 16.0.4, SVG Export Plug-In . SVG Version: 6.00 Build 0)  -->
<!DOCTYPE svg PUBLIC "-//W3C//DTD SVG 1.1//EN" "http://www.w3.org/Graphics/SVG/1.1/DTD/svg11.dtd">
<svg version="1.1" id="Layer_0307" xmlns="http://www.w3.org/2000/svg" xmlns:xlink="http://www.w3.org/1999/xlink" x="0px" y="0px"
	 width="128px" height="128px" viewBox="0 0 128 128" enable-background="new 0 0 128 128" xml:space="preserve">
<g id="tC6pvY.tif">
	<g>
		<path d="M34.713,40.178l-0.023-0.024c0.055,0.62-0.284,1.062-0.647,1.507c-3.218,3.945-6.444,7.88-9.64,11.843
			c-6.39,7.923-12.719,15.896-19.18,23.762c-1.183,1.442-1.371,2.633-0.667,4.29c1.013,2.384,1.72,4.897,2.729,7.282
			c1.231,2.916,2.627,5.764,4.37,8.421c0.555,0.847,1.16,1.061,1.757,0.061c0.928-1.552,1.819-3.125,2.732-4.687
			c6.795-11.608,13.559-23.235,20.405-34.814c2.286-3.866,4.305-7.9,7.033-11.498l-0.051-0.046c0.235,1.23-0.497,2.179-0.965,3.187
			c-6.717,14.461-13.451,28.914-20.176,43.371c-1.574,3.383-3.123,6.777-4.696,10.16c-0.526,1.134-0.382,1.982,0.555,2.957
			c4.043,4.203,8.563,7.73,13.773,10.371c1.626,0.824,1.667,0.88,2.196-0.896c1.613-5.404,3.175-10.825,4.761-16.237
			c3.613-12.338,7.147-24.701,10.89-37c1.265-4.159,2.068-8.476,3.947-12.443l-0.069-0.059c0.181,3.338-0.959,6.479-1.581,9.677
			c-3.749,19.284-7.658,38.537-11.509,57.799c-0.542,2.711-0.529,2.715,2.044,3.421c0.545,0.148,1.094,0.28,1.641,0.423
			c4.715,1.229,9.528,1.838,14.369,2.27c1.172,0.104,1.955-0.155,1.952-1.605c-0.005-2.942,0.292-5.872,0.498-8.808
			c0.363-5.193,0.196-10.408,0.668-15.616c0.47-5.181,0.334-10.403,0.664-15.613c0.578-9.159,0.672-18.349,0.967-27.525
			c0.022-0.68,0.02-1.362,0.056-2.042c0.011-0.219,0.107-0.433,0.164-0.65c0.094,0.196,0.262,0.389,0.271,0.588
			c0.055,1.359,0.581,2.625,0.615,4.013c0.128,5.32,0.295,10.641,0.542,15.96c0.492,10.635,0.873,21.273,1.433,31.907
			c0.305,5.767,0.177,11.553,0.732,17.313c0.198,2.049,0.138,2.179,2.158,2.058c4.968-0.295,9.923-0.897,14.701-2.274
			c4.415-1.271,3.657-0.312,2.864-4.712c-1.542-8.549-3.471-17.027-5.17-25.55c-2.604-13.062-5.143-26.138-7.747-39.199
			c-0.188-0.943-0.734-1.818-0.182-2.793c0.291,0.85,0.617,1.691,0.868,2.554c5.077,17.461,10.144,34.926,15.219,52.388
			c1.103,3.797,2.202,7.595,3.365,11.374c0.737,2.4,0.861,2.452,2.96,1.365c4.967-2.571,9.443-5.807,13.389-9.795
			c1.024-1.037,1.276-1.827,0.607-3.219c-2.844-5.915-5.533-11.901-8.303-17.852c-5.396-11.595-10.813-23.18-16.206-34.776
			c-0.565-1.218-1.307-2.385-1.345-3.794l-0.02,0.017c0.666,0.091,0.88,0.668,1.152,1.135c6.571,11.246,13.127,22.501,19.689,33.753
			c3.081,5.283,6.147,10.576,9.265,15.837c0.828,1.396,1.238,1.363,2.102,0.018c3.016-4.695,5.188-9.771,6.979-15.049
			c0.679-1.998,0.598-3.464-0.814-5.185c-8.913-10.861-17.763-21.777-26.498-32.784c-1.513-1.906-3.674-3.398-4.335-5.942
			l-0.054,0.057c4.672,3.969,8.816,8.484,13,12.933c6.456,6.867,13.22,13.426,19.769,20.199c1.051,1.088,1.674,0.903,1.935-0.573
			c0.741-4.228,1.192-8.457,0.933-12.785c-0.394-6.547-3.006-11.476-8.599-15.265C102.439,32.152,86.376,20.315,70.211,8.626
			c-4.688-3.391-7.652-3.393-12.345-0.045C41.073,20.562,24.294,32.564,7.444,44.464c-3.242,2.29-5.29,5.227-6.216,8.986
			c-1.444,5.864-0.947,11.688,0.643,17.447c0.434,1.575,0.727,1.646,1.949,0.398c2.698-2.756,5.304-5.603,8.006-8.355
			c6.919-7.051,13.865-14.077,20.822-21.092C33.267,41.226,33.716,40.35,34.713,40.178z M87.961,10.124c0,0.004,0,0.01,0,0.015
			c-3.276,0-6.554-0.007-9.831,0.011c-0.32,0.002-0.852,0.078-0.921,0.26c-0.177,0.457,0.232,0.779,0.576,1.052
			c0.267,0.21,0.538,0.414,0.813,0.611c4.227,3.008,8.453,6.014,12.681,9.021c2.206,1.569,4.398,3.157,6.627,4.694
			c1.043,0.72,1.5,0.544,1.506-0.546c0.027-4.521-0.009-9.041,0.024-13.56c0.009-1.194-0.543-1.575-1.646-1.566
			C94.515,10.139,91.238,10.124,87.961,10.124z M40.744,10.141c0-0.007,0-0.014,0-0.02c-3.278,0-6.557,0.036-9.834-0.019
			c-1.312-0.022-1.789,0.485-1.774,1.784c0.047,4.408,0.003,8.817,0.036,13.226c0.01,1.268,0.252,1.383,1.338,0.621
			c4.618-3.239,9.211-6.513,13.817-9.768c2.211-1.562,4.439-3.1,6.638-4.679c0.249-0.178,0.361-0.547,0.535-0.828
			c-0.307-0.105-0.614-0.301-0.922-0.303C47.299,10.133,44.021,10.141,40.744,10.141z"/>
		<path fill-rule="evenodd" clip-rule="evenodd" d="M43.581,46.32c-2.728,3.598-4.747,7.632-7.033,11.498
			c-6.847,11.579-13.61,23.206-20.405,34.814c-0.913,1.562-1.804,3.135-2.732,4.687c-0.598,1-1.203,0.786-1.757-0.061
			c-1.743-2.657-3.139-5.505-4.37-8.421c-1.008-2.385-1.716-4.898-2.729-7.282c-0.704-1.657-0.516-2.848,0.667-4.29
			c6.461-7.865,12.79-15.839,19.18-23.762c3.196-3.962,6.422-7.898,9.64-11.843c0.363-0.444,0.702-0.887,0.647-1.507
			c0.457-0.004,0.641-0.271,0.668-0.691c0.427-0.025,0.624-0.281,0.68-0.678c0.375-0.078,0.581-0.324,0.677-0.68
			c0.038-0.167,0.642-0.049,0.224-0.445c-0.051,0.17-0.103,0.339-0.154,0.509c-0.482-0.033-0.683,0.22-0.687,0.674
			c-0.483-0.039-0.687,0.211-0.693,0.667c-0.459-0.014-0.679,0.22-0.693,0.668c-0.997,0.171-1.446,1.047-2.065,1.671
			c-6.957,7.015-13.902,14.041-20.822,21.092c-2.702,2.752-5.308,5.599-8.006,8.355c-1.223,1.248-1.515,1.177-1.949-0.398
			c-1.59-5.76-2.087-11.583-0.643-17.447c0.926-3.759,2.974-6.696,6.216-8.986c16.85-11.9,33.628-23.902,50.421-35.883
			c4.693-3.348,7.658-3.346,12.345,0.045c16.165,11.688,32.229,23.525,48.744,34.712c5.593,3.789,8.205,8.717,8.599,15.265
			c0.26,4.328-0.191,8.557-0.933,12.785c-0.261,1.477-0.884,1.661-1.935,0.573c-6.549-6.773-13.312-13.333-19.769-20.199
			c-4.184-4.449-8.328-8.964-13-12.933c-0.054-0.406-0.275-0.638-0.692-0.668c-0.051-0.401-0.26-0.646-0.679-0.68
			c-0.076-0.376-0.285-0.62-0.677-0.684c-0.038-0.084-0.069-0.176-0.119-0.253c-0.032-0.049-0.094-0.079-0.144-0.117
			c0.108,0.103,0.218,0.206,0.326,0.308c0.098,0.356,0.311,0.596,0.682,0.678c0.06,0.391,0.253,0.65,0.674,0.683
			c0.03,0.426,0.212,0.697,0.683,0.676c0.661,2.544,2.822,4.036,4.335,5.942c8.735,11.006,17.585,21.922,26.498,32.784
			c1.412,1.721,1.493,3.187,0.814,5.185c-1.791,5.277-3.964,10.354-6.979,15.049c-0.863,1.346-1.273,1.379-2.102-0.018
			c-3.117-5.261-6.184-10.554-9.265-15.837C98.711,70.625,92.155,59.37,85.584,48.124c-0.272-0.467-0.486-1.044-1.152-1.135
			c0.012-0.575,0.037-1.156-0.699-1.34c-0.032-0.549-0.022-1.119-0.677-1.357c-0.177-0.06,0.098-0.65-0.396-0.336
			c0.154,0.089,0.309,0.178,0.462,0.268c0.063,0.535-0.112,1.188,0.67,1.372c0.017,0.557-0.123,1.188,0.66,1.378
			c0.038,1.409,0.779,2.577,1.345,3.794c5.393,11.596,10.81,23.181,16.206,34.776c2.77,5.95,5.459,11.937,8.303,17.852
			c0.669,1.392,0.417,2.182-0.607,3.219c-3.945,3.988-8.422,7.224-13.389,9.795c-2.099,1.087-2.223,1.035-2.96-1.365
			c-1.163-3.779-2.263-7.577-3.365-11.374C84.908,86.206,79.842,68.741,74.765,51.28c-0.251-0.863-0.577-1.704-0.868-2.554
			c-0.553,0.975-0.006,1.851,0.182,2.793c2.604,13.062,5.143,26.137,7.747,39.199c1.699,8.522,3.628,17.001,5.17,25.55
			c0.793,4.399,1.551,3.44-2.864,4.712c-4.778,1.377-9.733,1.979-14.701,2.274c-2.021,0.121-1.96-0.009-2.158-2.058
			c-0.556-5.761-0.428-11.547-0.732-17.313c-0.56-10.634-0.94-21.272-1.433-31.907c-0.247-5.319-0.414-10.64-0.542-15.96
			c-0.034-1.389-0.561-2.654-0.615-4.013c-0.009-0.199-0.177-0.392-0.271-0.588c-0.057,0.217-0.153,0.431-0.164,0.65
			c-0.036,0.68-0.034,1.362-0.056,2.042c-0.295,9.176-0.389,18.366-0.967,27.525c-0.329,5.21-0.194,10.433-0.664,15.613
			c-0.472,5.208-0.305,10.423-0.668,15.616c-0.205,2.936-0.502,5.865-0.498,8.808c0.003,1.45-0.78,1.71-1.952,1.605
			c-4.841-0.432-9.654-1.04-14.369-2.27c-0.547-0.143-1.096-0.274-1.641-0.423c-2.573-0.706-2.585-0.71-2.044-3.421
			c3.851-19.263,7.76-38.516,11.509-57.799c0.622-3.198,1.762-6.339,1.581-9.677c0.356-0.101,0.532-0.372,0.542-0.705
			c0.009-0.309-0.079-0.623-0.124-0.934c-0.1,0.24-0.242,0.473-0.289,0.723c-0.06,0.317-0.044,0.649-0.06,0.974
			c-1.878,3.967-2.682,8.284-3.947,12.443c-3.743,12.298-7.276,24.662-10.89,37c-1.585,5.412-3.148,10.833-4.761,16.237
			c-0.529,1.776-0.57,1.721-2.196,0.896c-5.21-2.641-9.73-6.168-13.773-10.371c-0.938-0.975-1.082-1.823-0.555-2.957
			c1.573-3.383,3.122-6.777,4.696-10.16c6.725-14.457,13.459-28.91,20.176-43.371c0.468-1.008,1.2-1.957,0.965-3.187
			c0.861-0.147,0.638-0.823,0.668-1.375c0.308-0.035,0.691-0.021,0.319-0.496c-0.084,0.188-0.169,0.377-0.253,0.565
			C43.644,45.221,43.604,45.767,43.581,46.32z"/>
		<path fill-rule="evenodd" clip-rule="evenodd" d="M87.961,10.124c3.277,0,6.554,0.016,9.83-0.009
			c1.103-0.008,1.654,0.373,1.646,1.566c-0.033,4.52,0.003,9.039-0.024,13.56c-0.006,1.09-0.463,1.266-1.506,0.546
			c-2.229-1.537-4.421-3.125-6.627-4.694c-4.228-3.006-8.454-6.013-12.681-9.021c-0.275-0.197-0.547-0.401-0.813-0.611
			c-0.344-0.273-0.753-0.596-0.576-1.052c0.069-0.182,0.601-0.258,0.921-0.26c3.277-0.018,6.555-0.011,9.831-0.011
			C87.961,10.133,87.961,10.128,87.961,10.124z"/>
		<path fill-rule="evenodd" clip-rule="evenodd" d="M40.744,10.141c3.278,0,6.556-0.008,9.833,0.014
			c0.308,0.002,0.615,0.198,0.922,0.303c-0.174,0.281-0.286,0.65-0.535,0.828c-2.199,1.579-4.427,3.117-6.638,4.679
			c-4.606,3.255-9.199,6.529-13.817,9.768c-1.086,0.762-1.329,0.646-1.338-0.621c-0.032-4.409,0.012-8.818-0.036-13.226
			c-0.014-1.298,0.463-1.806,1.774-1.784c3.277,0.055,6.556,0.019,9.834,0.019C40.744,10.127,40.744,10.134,40.744,10.141z"/>
		<path fill-rule="evenodd" clip-rule="evenodd" d="M53.815,49.744c0.016-0.325,0-0.657,0.06-0.974
			c0.047-0.25,0.189-0.483,0.289-0.723c0.045,0.311,0.133,0.625,0.124,0.934c-0.01,0.333-0.185,0.604-0.542,0.705L53.815,49.744z"/>
		<path fill-rule="evenodd" clip-rule="evenodd" d="M84.451,46.972c-0.783-0.19-0.644-0.821-0.66-1.378l-0.059,0.055
			c0.736,0.184,0.711,0.765,0.699,1.34L84.451,46.972z"/>
		<path fill-rule="evenodd" clip-rule="evenodd" d="M44.199,44.899c-0.031,0.551,0.193,1.227-0.668,1.375l0.051,0.046
			c0.023-0.554,0.062-1.1,0.684-1.352L44.199,44.899z"/>
		<path fill-rule="evenodd" clip-rule="evenodd" d="M83.791,45.594c-0.782-0.184-0.606-0.836-0.67-1.372l-0.065,0.069
			c0.654,0.238,0.645,0.808,0.677,1.357L83.791,45.594z"/>
		<path fill-rule="evenodd" clip-rule="evenodd" d="M44.265,44.969c0.084-0.188,0.169-0.376,0.253-0.565
			c0.372,0.474-0.011,0.46-0.319,0.496L44.265,44.969z"/>
		<path fill-rule="evenodd" clip-rule="evenodd" d="M83.121,44.222c-0.153-0.089-0.308-0.178-0.462-0.268
			c0.494-0.314,0.22,0.276,0.396,0.336L83.121,44.222z"/>
		<path fill-rule="evenodd" clip-rule="evenodd" d="M35.358,39.463c-0.027,0.419-0.211,0.687-0.668,0.691l0.023,0.024
			c0.014-0.448,0.234-0.682,0.693-0.668L35.358,39.463z"/>
		<path fill-rule="evenodd" clip-rule="evenodd" d="M36.038,38.785c-0.056,0.397-0.252,0.653-0.68,0.678l0.048,0.047
			c0.006-0.456,0.21-0.706,0.693-0.667L36.038,38.785z"/>
		<path fill-rule="evenodd" clip-rule="evenodd" d="M91.972,38.772c-0.471,0.021-0.652-0.25-0.683-0.676l-0.063,0.065
			c0.417,0.03,0.639,0.262,0.692,0.668L91.972,38.772z"/>
		<path fill-rule="evenodd" clip-rule="evenodd" d="M36.099,38.843c0.003-0.454,0.205-0.707,0.687-0.674l-0.07-0.063
			c-0.096,0.356-0.303,0.602-0.677,0.68L36.099,38.843z"/>
		<path fill-rule="evenodd" clip-rule="evenodd" d="M90.547,37.481c0.419,0.034,0.628,0.278,0.679,0.68l0.063-0.065
			c-0.421-0.032-0.614-0.292-0.674-0.683L90.547,37.481z"/>
		<path fill-rule="evenodd" clip-rule="evenodd" d="M36.785,38.169c0.051-0.169,0.103-0.338,0.154-0.509
			c0.417,0.396-0.186,0.279-0.224,0.445L36.785,38.169z"/>
		<path fill-rule="evenodd" clip-rule="evenodd" d="M90.615,37.413c-0.371-0.082-0.584-0.322-0.682-0.678l-0.063,0.062
			c0.392,0.064,0.601,0.308,0.677,0.684L90.615,37.413z"/>
		<path fill-rule="evenodd" clip-rule="evenodd" d="M89.934,36.735c-0.108-0.103-0.218-0.206-0.326-0.308
			c0.05,0.039,0.111,0.068,0.144,0.117c0.05,0.077,0.081,0.168,0.119,0.253L89.934,36.735z"/>
	</g>
</g>
</svg>
