<?xml version="1.0" encoding="utf-8"?>
<!-- Generator: Adobe Illustrator 16.0.4, SVG Export Plug-In . SVG Version: 6.00 Build 0)  -->
<!DOCTYPE svg PUBLIC "-//W3C//DTD SVG 1.1//EN" "http://www.w3.org/Graphics/SVG/1.1/DTD/svg11.dtd">
<svg version="1.1" id="Layer_0401" xmlns="http://www.w3.org/2000/svg" xmlns:xlink="http://www.w3.org/1999/xlink" x="0px" y="0px"
	 width="128px" height="128px" viewBox="0 0 128 128" enable-background="new 0 0 128 128" xml:space="preserve">
<g>
	<path fill-rule="evenodd" clip-rule="evenodd" d="M30.219,27.983c13.972,0,27.611,0,41.579,0c0,33.164,0,66.113,0,99.716
		c-13.912-1.721-27.546-3.41-41.579-5.148C30.219,91.188,30.219,59.792,30.219,27.983z"/>
	<g>
		<path d="M83.338,6.422c0.94-1.451,2.119-4.235,2.135-6.422C71.99,0,59.251,0,45.75,0c-3.574,9.96-12.33,16.353-15.211,26.875
			c14.135,0,27.755,0.093,41.271,0.093c0.647-1.953,4.572-8.789,6.601-12.086C80.415,11.622,82.246,8.103,83.338,6.422z
			 M54.379,22.376c-3.583,0.08-5.959-2.079-6.011-5.459c-0.057-3.685,3.661-7.346,7.463-7.351c3.336-0.006,5.8,2.524,5.697,5.849
			C61.415,19.121,58.158,22.291,54.379,22.376z"/>
		<path d="M85.288,5.122c-0.321,0.75-11.611,20.577-11.696,21.333c-0.017,0.141-0.026,0.26-0.036,0.385
			c3.883-0.4,18.257-1.675,22.609-2.197C93.47,17.988,88.854,11.441,85.288,5.122z"/>
		<g>
			<path d="M73.581,28.02c0,32.931,0,66.307,0,99.592c8.103-2.688,15.753-5.223,23.226-7.698c0-31.387,0-63.064,0-94.329
				L73.581,28.02z"/>
		</g>
	</g>
</g>
</svg>
