<?xml version="1.0" encoding="utf-8"?>
<!-- Generator: Adobe Illustrator 16.0.4, SVG Export Plug-In . SVG Version: 6.00 Build 0)  -->
<!DOCTYPE svg PUBLIC "-//W3C//DTD SVG 1.1//EN" "http://www.w3.org/Graphics/SVG/1.1/DTD/svg11.dtd">
<svg version="1.1" id="Layer_0406" xmlns="http://www.w3.org/2000/svg" xmlns:xlink="http://www.w3.org/1999/xlink" x="0px" y="0px"
	 width="128px" height="128px" viewBox="0 0 128 128" enable-background="new 0 0 128 128" xml:space="preserve">
<g>
	<path fill-rule="evenodd" clip-rule="evenodd" d="M61.807,20.533c17.716-0.005,33.093,1.513,47.995,6.422
		c3.776,1.244,7.398,2.838,10.755,4.995c1.678,1.078,3.229,2.31,4.504,3.856c2.979,3.608,2.968,7.554-0.033,11.122
		c-1.756,2.084-3.931,3.639-6.297,4.942c-5.352,2.949-11.107,4.803-17.007,6.247c-9.876,2.416-19.911,3.696-30.07,4.039
		c-3.62,0.123-3.699,0.097-3.754-3.525c-0.083-5.483-0.055-10.969-0.048-16.455c0.002-1.746-0.492-2.049-1.955-0.952
		c-7.833,5.876-15.727,11.67-23.548,17.562c-1.538,1.158-2.958,2.164-5.047,1.738c-8.448-1.705-16.881-3.432-24.792-7.021
		c-3.309-1.504-6.461-3.264-8.979-5.957c-3.817-4.086-3.817-8.31,0.05-12.403c3.03-3.212,6.897-5.147,10.91-6.787
		c8.032-3.287,16.459-5.081,25.017-6.253C47.602,20.992,55.745,20.354,61.807,20.533z"/>
	<path fill-rule="evenodd" clip-rule="evenodd" d="M67.818,86.15c0-5.942-0.014-11.887,0.008-17.829
		c0.01-3.425,0.035-3.334,3.322-3.488c14.229-0.671,28.297-2.351,41.811-7.194c4.402-1.582,8.607-3.584,12.322-6.494
		c0.438-0.342,0.861-1.01,1.449-0.777c0.811,0.316,0.49,1.193,0.49,1.816c0.035,6.178,0.021,12.356,0.021,18.531
		c0,4.661-0.209,9.334,0.062,13.979c0.267,4.606-1.719,7.804-5.257,10.365c-4.599,3.328-9.782,5.357-15.165,6.981
		c-11.575,3.494-23.478,4.877-35.504,5.417c-3.27,0.145-3.309,0.051-3.32-3.104c-0.026-6.067-0.01-12.136-0.01-18.203
		C67.971,86.15,67.896,86.15,67.818,86.15z"/>
	<path fill-rule="evenodd" clip-rule="evenodd" d="M39.972,84.818c0,6.188-0.035,12.375,0.019,18.565
		c0.017,1.859-0.219,2.65-2.538,2.275c-8.435-1.352-16.705-3.217-24.562-6.635c-3.33-1.448-6.475-3.223-9.086-5.819
		c-1.989-1.977-3.104-4.261-3.086-7.159C0.785,74.96,0.751,63.876,0.773,52.793c0-0.804-0.117-2.088,0.285-2.31
		c0.954-0.528,1.592,0.633,2.3,1.149c5.466,3.975,11.667,6.354,18.108,8.057c5.05,1.334,10.219,2.224,15.331,3.325
		c3.287,0.704,3.292,0.716,3.297,3.949c0.005,5.951,0,11.904,0,17.854C40.055,84.818,40.015,84.818,39.972,84.818z"/>
	<path fill-rule="evenodd" clip-rule="evenodd" d="M42.698,83.354c0-6.415,0.021-12.83-0.016-19.247
		c-0.006-1.472,0.2-2.637,1.58-3.588c6.33-4.383,12.588-8.87,18.875-13.311c0.556-0.395,1.149-1.154,1.786-0.893
		c0.936,0.381,0.438,1.422,0.439,2.15c0.034,12.845,0.011,25.692,0.051,38.537c0,1.489-0.222,2.647-1.604,3.571
		c-3.873,2.602-7.695,5.283-11.455,8.051c-1.284,0.946-1.711,0.507-2.157-0.707c-0.453-1.244-1.113-2.5-2.687-2.283
		c-1.823,0.252-2.251,1.789-2.551,3.342c-0.222,1.171-0.057,2.326,0.109,3.482c0.166,1.141-0.428,1.963-1.42,2.008
		c-1.299,0.06-0.806-1.166-0.808-1.844c-0.044-6.42-0.025-12.845-0.025-19.27C42.776,83.354,42.739,83.354,42.698,83.354z
		 M58.113,63.15c-0.327-1.016-0.646-2.12-1.035-3.196c-0.337-0.924-0.898-1.6-2.027-1.542c-1.041,0.051-1.768,0.56-2.127,1.491
		c-0.82,2.127-0.979,4.299,0.051,6.393c0.896,1.816,3.027,1.921,4.184,0.261C57.843,65.569,57.812,64.368,58.113,63.15z
		 M62.506,85.188c-0.68-1.445-0.262-4-2.881-4.01c-2.21-0.01-2.516,2.032-2.628,3.786c-0.131,1.99,0.301,4.259,2.447,4.502
		C61.943,89.747,61.901,87.157,62.506,85.188z M47.691,77.751c0.373,2.095,0.223,4.798,3.318,4.595
		c2.522-0.164,2.771-2.771,2.882-4.515c0.128-2.137-0.665-4.83-3.246-4.922C47.677,72.811,48.021,75.702,47.691,77.751z"/>
</g>
</svg>
