<?xml version="1.0" encoding="utf-8"?>
<!-- Generator: Adobe Illustrator 16.0.4, SVG Export Plug-In . SVG Version: 6.00 Build 0)  -->
<!DOCTYPE svg PUBLIC "-//W3C//DTD SVG 1.1//EN" "http://www.w3.org/Graphics/SVG/1.1/DTD/svg11.dtd">
<svg version="1.1" id="Layer_0409" xmlns="http://www.w3.org/2000/svg" xmlns:xlink="http://www.w3.org/1999/xlink" x="0px" y="0px"
	 width="128px" height="128px" viewBox="0 0 128 128" enable-background="new 0 0 128 128" xml:space="preserve">
<g>
	<path d="M114.5,93.147c0.041-0.152,0.094-0.302,0.121-0.457c0.303-1.73-0.273-2.809-2.179-2.715
		c-0.604,0.03-1.338,0.309-1.317,1.076c0.041,1.582,1.082,2.115,2.518,2.096c0.314-0.004,0.628-0.051,0.941-0.078
		c1.93,2.488,4.315,4.289,7.491,4.807c1.115,0.182,2.335,0.227,3.049-0.875c0.749-1.154,0.156-2.172-0.709-2.979
		c-0.907-0.849-2.483-1.518,0.345-1.84c1.61-0.184,3.068-1.405,3.139-3.205c0.081-2.076-1.811-1.803-3.153-2.114
		c-0.441-0.103-0.842-0.386-1.256-0.595c-3.794-1.91-5.624-0.869-5.427,3.49c0.083,1.816-0.432,2.211-1.944,2.412
		C115.546,92.246,115.038,92.808,114.5,93.147z"/>
	<path d="M16.977,99.724c-1.706,0.024-3.157,0.45-3.862-2.207c-0.934-3.521-3.372-3.958-6.052-1.551
		c-0.863,0.775-1.954,1.113-2.746,1.896c-1.338,1.322-1.103,3.039,0.523,4.002c1.438,0.85,3.111,0.718,4.674,1.048l-0.064-0.062
		c-0.321,0.354-0.668,0.69-0.959,1.067c-0.708,0.916-1.375,1.958-0.541,3.036c1.001,1.293,2.261,0.674,3.479,0.176
		c3.232-1.322,4.941-3.9,5.968-7.068c0.47-0.066,0.996-0.018,1.397-0.219c0.871-0.434,1.643-1.043,1.374-2.198
		c-0.16-0.686-0.72-1.126-1.371-1.08c-1.027,0.072-1.786,0.666-1.947,1.747C16.783,98.765,16.928,99.251,16.977,99.724z"/>
	<path d="M96.058,120.323c-2.058-0.365-3.55-1.195-3.842-3.598c-0.124-1.02-1.236-1.566-2.257-0.945
		c-1.022,0.623-1.025,1.905-0.231,2.471c1.909,1.361,2.238,3.457,3.026,5.361c0.7,1.693,1.873,2.996,3.395,3.998
		c0.983,0.646,2.034,1.149,3.12,0.34c0.91-0.68,0.896-1.677,0.428-2.614c-0.629-1.261-0.229-1.726,1.107-1.761
		c1.116-0.029,2.272-0.049,3.329-0.354c0.999-0.289,1.79-1.372,1.24-2.244c-1.167-1.848-2.516-3.669-4.134-5.116
		c-1.144-1.022-2.774-0.675-3.938,0.505c-1.081,1.097-1.536,2.439-1.282,3.988L96.058,120.323z"/>
	<path d="M114.566,60.09l-0.063-0.062c-1.236,1.811-2.62,3.139-5.146,2.459c-0.628-0.169-1.537,0.609-1.371,1.613
		c0.188,1.142,1.289,1.952,2.042,1.332c2.146-1.767,4.628-0.949,6.929-1.376c1.44-0.268,2.825-0.697,3.998-1.607
		c2.192-1.703,2.018-3.234-0.706-4.336c-1.121-0.453-1.664-0.688-1.107-1.931c0.257-0.572,0.388-1.24,0.409-1.87
		c0.094-2.715-1.115-3.567-3.518-2.301c-1.007,0.531-1.962,0.835-3.055,1.113c-2.496,0.634-3.27,3.278-1.712,5.317
		C112.062,59.479,113.109,60.254,114.566,60.09z"/>
	<path d="M78.179,63.083c5.44-0.488,11.841-1.287,18.153-2.73c4.25-0.973,6.072-2.471,6.475-6.038
		c0.435-3.849-0.256-7.472-3.623-9.983c-2.178-1.623-4.64-0.991-7.035-0.621c-13.946,2.152-27.91,3.274-42.05,1.943
		c-6.286-0.592-12.518-1.438-18.768-2.254c-4.239-0.552-7.759,2.125-8.31,6.306c-0.635,4.817-0.628,9.214,5.499,10.61
		c5.847,1.333,11.787,1.961,17.718,2.656c2.066,0.241,4.368,0.512,6.236-0.148c1.966-0.695,1.382-3.383,2.202-5.08
		c1.579-3.268,3.866-5.55,7.769-5.622c3.722-0.068,6.804,1.934,8.308,5.548c0.431,1.031,0.712,2.15,0.888,3.257
		c0.248,1.558,1.037,2.265,2.619,2.168C75.227,63.034,76.199,63.083,78.179,63.083z"/>
	<path d="M63.459,82.362c5.239-0.273,11.075-0.33,16.849-0.957c5.28-0.572,10.56-1.305,15.774-2.471
		c2.732-0.611,4.197-2.068,5.079-4.553c0.845-2.377,0.958-4.701,0.214-7.121c-1.15-3.743-2.483-4.559-6.369-3.875
		c-5.725,1.009-11.465,2.101-17.274,2.249c-3.595,0.091-6.166,0.662-8.444,4.065c-3.665,5.475-9.733,5.01-13.631-0.413
		c-0.282-0.392-0.532-0.817-0.728-1.258c-0.756-1.706-2.095-2.258-3.895-2.259c-7.141-0.002-14.134-1.295-21.133-2.522
		c-2.994-0.525-4.466,0.39-5.517,3.299c-2.374,6.568,0.718,11.824,7.64,13.029C42.235,81.354,52.547,81.966,63.459,82.362z"/>
	<path d="M64.072,100.226c7.281-0.085,16.156-0.032,24.977-1.765c4.123-0.81,6.171-3.262,7.544-6.679
		c0.654-1.628,0.962-3.442,1.145-5.202c0.383-3.696-0.989-4.903-4.769-4.444c-0.804,0.098-1.611,0.172-2.409,0.312
		c-16.396,2.883-32.861,2.523-49.339,0.967c-3.215-0.305-6.4-0.955-9.582-1.539c-1.66-0.306-2.87,0.033-3.507,1.707
		c-1.992,5.246,2.311,13.4,7.759,14.688C44.643,100.341,53.558,100.198,64.072,100.226z"/>
	<path d="M63.203,43.558c1.904,0,4.177,0.116,6.435-0.021c7.744-0.468,15.489-1.022,23.104-2.608
		c3.144-0.654,4.291-2.119,4.249-4.869c-0.075-5.001-4.298-9.214-9.329-9.185c-1.935,0.01-3.869,0.257-5.801,0.43
		c-9.657,0.864-19.29,2.044-29.024,0.764c-4.962-0.652-9.987-0.816-14.98-1.236c-2.83-0.238-5.03,0.852-6.791,3.004
		c-4.468,5.465-2.659,10.674,4.228,11.657C44.421,42.799,53.584,43.862,63.203,43.558z"/>
	<path d="M41.12,101.703c-0.646-0.05-1.291-0.145-1.937-0.144c-3.163,0.006-4.137,1.191-3.356,4.158
		c0.459,1.744,1.322,3.363,2.488,4.686c8.096,9.172,17.85,14.62,30.438,11.843c9.086-2.005,16.203-7.251,20.536-15.651
		c1.971-3.819,0.704-5.359-3.62-5.062c-5.484,0.378-10.925,1.237-16.445,1.26C59.836,102.831,50.452,103.001,41.12,101.703z"/>
	<path d="M63.462,25.96c6.213,0.35,12.808-0.304,19.407-0.855c0.976-0.081,1.986-0.129,2.445-1.194
		c0.457-1.062-0.129-1.874-0.825-2.568c-1.144-1.14-2.329-2.238-3.515-3.334c-4.287-3.967-8.813-7.987-10.864-13.463
		c-1.618-4.323-4.027-5.342-8.002-4.766c-0.63,0.091-1.297,0.036-1.934-0.049c-1.914-0.253-3.068,0.583-3.647,2.375
		c-1.535,4.748-4.681,8.453-8.01,11.982c-2.212,2.344-4.697,4.43-7.049,6.644c-0.823,0.775-1.858,1.601-1.492,2.842
		c0.451,1.524,1.918,1.443,3.221,1.566C49.797,25.759,56.4,26.228,63.462,25.96z"/>
	<path d="M4.796,55.025c-0.381-0.042-1.021-0.194-1.656-0.171c-2.45,0.087-3.398,1.704-2.214,3.794
		c0.309,0.546,0.745,1.121,1.272,1.426c2.53,1.464,0.812,1.677-0.544,2.199c-0.901,0.348-1.774,1.017-1.506,2.169
		c0.185,0.796,0.878,1.278,1.656,1.64c2.41,1.12,4.739,0.485,7.072-0.225c1.322-0.402,2.375-1.692,4.042-0.963
		c0.909,0.396,1.966,0.24,2.501-0.794c0.184-0.354,0.192-0.993-0.012-1.32c-0.752-1.206-1.828-1.099-2.934-0.493
		c-0.28,0.152-0.52,0.445-0.811,0.498c-2,0.368-2.714-0.535-2.029-2.521C11.081,56.065,9.881,54.687,4.796,55.025z"/>
	<path fill-rule="evenodd" clip-rule="evenodd" d="M78.179,63.083c-1.979,0-2.952-0.049-3.92,0.011
		c-1.582,0.097-2.371-0.61-2.619-2.168c-0.176-1.106-0.457-2.226-0.888-3.257c-1.504-3.614-4.586-5.616-8.308-5.548
		c-3.902,0.072-6.189,2.354-7.769,5.622c-0.82,1.697-0.236,4.385-2.202,5.08c-1.869,0.66-4.17,0.39-6.236,0.148
		c-5.931-0.695-11.871-1.323-17.718-2.656c-6.126-1.396-6.134-5.793-5.499-10.61c0.551-4.181,4.071-6.858,8.31-6.306
		c6.25,0.815,12.481,1.662,18.768,2.254c14.14,1.332,28.104,0.209,42.05-1.943c2.396-0.37,4.857-1.002,7.035,0.621
		c3.367,2.511,4.058,6.134,3.623,9.983c-0.402,3.567-2.225,5.065-6.475,6.038C90.02,61.795,83.619,62.594,78.179,63.083z"/>
	<path fill-rule="evenodd" clip-rule="evenodd" d="M63.459,82.362c-10.912-0.396-21.224-1.009-31.435-2.785
		c-6.922-1.205-10.014-6.461-7.64-13.029c1.051-2.91,2.523-3.825,5.517-3.299c6.999,1.227,13.992,2.52,21.133,2.522
		c1.8,0.001,3.138,0.553,3.895,2.259c0.195,0.44,0.445,0.866,0.728,1.258c3.897,5.423,9.966,5.888,13.631,0.413
		c2.278-3.403,4.85-3.975,8.444-4.065c5.81-0.147,11.55-1.24,17.274-2.249c3.886-0.685,5.219,0.132,6.369,3.875
		c0.744,2.42,0.631,4.744-0.214,7.121c-0.882,2.484-2.347,3.941-5.079,4.553c-5.215,1.166-10.494,1.898-15.774,2.471
		C74.534,82.032,68.698,82.089,63.459,82.362z"/>
	<path fill-rule="evenodd" clip-rule="evenodd" d="M64.072,100.226c-10.515-0.027-19.43,0.115-28.182-1.954
		c-5.448-1.288-9.751-9.442-7.759-14.688c0.637-1.674,1.847-2.013,3.507-1.707c3.182,0.584,6.367,1.234,9.582,1.539
		c16.478,1.557,32.942,1.916,49.339-0.967c0.798-0.141,1.605-0.215,2.409-0.312c3.779-0.459,5.151,0.748,4.769,4.444
		c-0.183,1.76-0.49,3.574-1.145,5.202c-1.373,3.417-3.421,5.869-7.544,6.679C80.229,100.193,71.354,100.141,64.072,100.226z"/>
	<path fill-rule="evenodd" clip-rule="evenodd" d="M63.203,43.558c-9.618,0.304-18.782-0.759-27.91-2.062
		c-6.887-0.983-8.696-6.192-4.228-11.657c1.76-2.153,3.96-3.242,6.791-3.004c4.993,0.42,10.019,0.583,14.98,1.236
		c9.734,1.28,19.367,0.1,29.024-0.764c1.932-0.173,3.866-0.42,5.801-0.43c5.031-0.029,9.254,4.184,9.329,9.185
		c0.042,2.75-1.105,4.214-4.249,4.869c-7.614,1.585-15.359,2.14-23.104,2.608C67.38,43.674,65.106,43.558,63.203,43.558z"/>
	<path fill-rule="evenodd" clip-rule="evenodd" d="M41.12,101.703c9.332,1.298,18.716,1.128,28.104,1.09
		c5.521-0.022,10.961-0.882,16.445-1.26c4.324-0.298,5.591,1.242,3.62,5.062c-4.333,8.4-11.45,13.646-20.536,15.651
		c-12.588,2.777-22.341-2.671-30.438-11.843c-1.166-1.322-2.029-2.941-2.488-4.686c-0.78-2.967,0.193-4.152,3.356-4.158
		C39.829,101.559,40.474,101.653,41.12,101.703z"/>
	<path fill-rule="evenodd" clip-rule="evenodd" d="M63.462,25.96c-7.062,0.268-13.665-0.201-20.265-0.822
		c-1.303-0.123-2.77-0.042-3.221-1.566c-0.366-1.241,0.669-2.066,1.492-2.842c2.352-2.213,4.836-4.299,7.049-6.644
		c3.329-3.529,6.475-7.234,8.01-11.982c0.579-1.792,1.733-2.628,3.647-2.375c0.637,0.085,1.304,0.141,1.934,0.049
		c3.975-0.577,6.384,0.443,8.002,4.766c2.051,5.477,6.577,9.496,10.864,13.463c1.186,1.097,2.371,2.194,3.515,3.334
		c0.696,0.695,1.282,1.507,0.825,2.568c-0.459,1.065-1.47,1.113-2.445,1.194C76.27,25.656,69.675,26.31,63.462,25.96z"/>
	<path fill-rule="evenodd" clip-rule="evenodd" d="M4.796,55.025c5.085-0.339,6.285,1.04,4.837,5.24
		c-0.685,1.985,0.029,2.889,2.029,2.521c0.291-0.053,0.531-0.346,0.811-0.498c1.106-0.605,2.182-0.713,2.934,0.493
		c0.204,0.327,0.196,0.966,0.012,1.32c-0.535,1.035-1.592,1.191-2.501,0.794c-1.667-0.729-2.72,0.561-4.042,0.963
		c-2.333,0.71-4.663,1.345-7.072,0.225c-0.778-0.362-1.471-0.844-1.656-1.64c-0.268-1.152,0.604-1.821,1.506-2.169
		c1.357-0.522,3.075-0.735,0.544-2.199c-0.527-0.305-0.963-0.88-1.272-1.426c-1.184-2.091-0.236-3.707,2.214-3.794
		C3.775,54.832,4.415,54.983,4.796,55.025z M6.977,60.264l0.137-0.268l-0.128-0.055L6.977,60.264z"/>
	<path fill-rule="evenodd" clip-rule="evenodd" d="M114.566,60.09c-1.457,0.164-2.505-0.611-3.3-1.65
		c-1.558-2.039-0.784-4.684,1.712-5.317c1.093-0.278,2.048-0.582,3.055-1.113c2.402-1.267,3.611-0.415,3.518,2.301
		c-0.021,0.63-0.152,1.298-0.409,1.87c-0.557,1.244-0.014,1.478,1.107,1.931c2.724,1.102,2.898,2.633,0.706,4.336
		c-1.173,0.91-2.558,1.34-3.998,1.607c-2.301,0.428-4.783-0.391-6.929,1.376c-0.753,0.62-1.854-0.189-2.042-1.332
		c-0.166-1.004,0.743-1.782,1.371-1.613c2.525,0.68,3.909-0.648,5.146-2.459c0.084-0.085,0.168-0.17,0.252-0.256
		C114.691,59.877,114.629,59.984,114.566,60.09z"/>
	<path fill-rule="evenodd" clip-rule="evenodd" d="M96.02,120.354c-0.254-1.549,0.201-2.892,1.282-3.988
		c1.163-1.18,2.794-1.527,3.938-0.505c1.618,1.447,2.967,3.269,4.134,5.116c0.55,0.872-0.241,1.955-1.24,2.244
		c-1.057,0.305-2.213,0.324-3.329,0.354c-1.337,0.035-1.736,0.5-1.107,1.761c0.468,0.938,0.482,1.935-0.428,2.614
		c-1.086,0.81-2.137,0.307-3.12-0.34c-1.521-1.002-2.694-2.305-3.395-3.998c-0.788-1.904-1.117-4-3.026-5.361
		c-0.794-0.565-0.791-1.848,0.231-2.471c1.021-0.621,2.133-0.074,2.257,0.945c0.292,2.402,1.784,3.232,3.842,3.598l0.169,0.199
		L96.02,120.354z"/>
	<path fill-rule="evenodd" clip-rule="evenodd" d="M9.515,102.912c-1.563-0.33-3.236-0.198-4.674-1.048
		c-1.626-0.963-1.861-2.68-0.523-4.002c0.792-0.783,1.883-1.121,2.746-1.896c2.68-2.407,5.118-1.971,6.052,1.551
		c0.705,2.657,2.156,2.231,3.862,2.207c0.147,0.104,0.288,0.216,0.42,0.338c-1.027,3.168-2.735,5.746-5.968,7.068
		c-1.218,0.498-2.478,1.117-3.479-0.176c-0.834-1.078-0.167-2.12,0.541-3.036c0.292-0.377,0.638-0.713,0.959-1.067l0.152-0.199
		L9.515,102.912z M11.429,99.889l0.156,0.19l-0.199-0.15c-0.323-0.324-0.646-0.648-0.97-0.973l-0.138-0.2l0.185,0.15
		C10.785,99.233,11.107,99.562,11.429,99.889z"/>
	<path fill-rule="evenodd" clip-rule="evenodd" d="M114.5,93.147c0.538-0.34,1.046-0.901,1.618-0.977
		c1.513-0.201,2.027-0.596,1.944-2.412c-0.197-4.359,1.633-5.4,5.427-3.49c0.414,0.209,0.814,0.492,1.256,0.595
		c1.343,0.312,3.234,0.038,3.153,2.114c-0.07,1.8-1.528,3.021-3.139,3.205c-2.828,0.322-1.252,0.991-0.345,1.84
		c0.865,0.807,1.458,1.824,0.709,2.979c-0.714,1.102-1.934,1.057-3.049,0.875c-3.176-0.518-5.562-2.318-7.491-4.807L114.5,93.147z"
		/>
	<path fill-rule="evenodd" clip-rule="evenodd" d="M114.584,93.069c-0.313,0.027-0.627,0.074-0.941,0.078
		c-1.436,0.02-2.477-0.514-2.518-2.096c-0.021-0.768,0.714-1.046,1.317-1.076c1.905-0.094,2.481,0.984,2.179,2.715
		c-0.027,0.155-0.08,0.305-0.121,0.457L114.584,93.069z"/>
	<path fill-rule="evenodd" clip-rule="evenodd" d="M16.977,99.724c-0.049-0.473-0.194-0.959-0.126-1.412
		c0.161-1.081,0.919-1.675,1.947-1.747c0.651-0.046,1.211,0.395,1.371,1.08c0.269,1.155-0.502,1.765-1.374,2.198
		c-0.401,0.201-0.928,0.152-1.397,0.219C17.265,99.939,17.125,99.827,16.977,99.724z"/>
	<polygon fill-rule="evenodd" clip-rule="evenodd" points="6.977,60.264 6.985,59.942 7.113,59.997 	"/>
	<path fill-rule="evenodd" clip-rule="evenodd" d="M114.566,60.09c0.062-0.106,0.125-0.213,0.188-0.318
		c-0.084,0.086-0.168,0.171-0.252,0.256L114.566,60.09z"/>
	<polygon fill-rule="evenodd" clip-rule="evenodd" points="96.02,120.354 96.227,120.522 96.058,120.323 	"/>
	<polygon fill-rule="evenodd" clip-rule="evenodd" points="10.463,98.906 10.278,98.756 10.416,98.956 	"/>
	<path fill-rule="evenodd" clip-rule="evenodd" d="M10.416,98.956c0.323,0.324,0.646,0.648,0.97,0.973l0.043-0.04
		c-0.322-0.327-0.644-0.655-0.966-0.982L10.416,98.956z"/>
	<polygon fill-rule="evenodd" clip-rule="evenodd" points="11.386,99.929 11.585,100.079 11.429,99.889 	"/>
	<polygon fill-rule="evenodd" clip-rule="evenodd" points="9.515,102.912 9.604,102.651 9.451,102.851 	"/>
</g>
</svg>
