<?xml version="1.0" encoding="utf-8"?>
<!-- Generator: Adobe Illustrator 16.0.4, SVG Export Plug-In . SVG Version: 6.00 Build 0)  -->
<!DOCTYPE svg PUBLIC "-//W3C//DTD SVG 1.1//EN" "http://www.w3.org/Graphics/SVG/1.1/DTD/svg11.dtd">
<svg version="1.1" id="Layer_0410" xmlns="http://www.w3.org/2000/svg" xmlns:xlink="http://www.w3.org/1999/xlink" x="0px" y="0px"
	 width="128px" height="128px" viewBox="0 0 128 128" enable-background="new 0 0 128 128" xml:space="preserve">
<path fill-rule="evenodd" clip-rule="evenodd" d="M33.62,27.676c-2.922-4.024-7.206-6.43-9.142-10.636
	c1.635-5.796,4.714-6.793,8.812-2.956c1.675,1.567,3.188,3.305,4.677,4.863c7.396-6.196,1.039-12.811,1.266-19.29
	c16.519,0,32.878,0,49.504,0c0.506,6.362-6.172,13.026,1.874,19.631c1.397-1.728,2.917-3.847,4.687-5.728
	c1.945-2.07,4.473-2.51,6.609-0.565c2.34,2.128,2.014,4.732-0.182,6.902c-2.408,2.38-4.974,4.602-7.854,7.247
	c6.258,6.062,5.346,13.254,5.303,20.326c-0.143,22.587-0.296,45.173-0.136,67.759c0.036,4.675-1.885,7.079-5.829,8.799
	c-6.21,2.704-12.826,3.336-19.406,3.861c-11.748,0.939-23.471,0.549-34.952-2.472c-3.579-0.94-7.095-2.229-9.888-6.17
	c0-12.606,0.008-25.885-0.002-39.161c-0.008-11.45,0.109-22.9-0.104-34.346C28.731,39.182,28.579,32.756,33.62,27.676z"/>
</svg>
