<?xml version="1.0" encoding="utf-8"?>
<!-- Generator: Adobe Illustrator 16.0.4, SVG Export Plug-In . SVG Version: 6.00 Build 0)  -->
<!DOCTYPE svg PUBLIC "-//W3C//DTD SVG 1.1//EN" "http://www.w3.org/Graphics/SVG/1.1/DTD/svg11.dtd">
<svg version="1.1" id="Layer_0501" xmlns="http://www.w3.org/2000/svg" xmlns:xlink="http://www.w3.org/1999/xlink" x="0px" y="0px"
	 width="128px" height="128px" viewBox="0 0 128 128" enable-background="new 0 0 128 128" xml:space="preserve">
<path fill-rule="evenodd" clip-rule="evenodd" d="M48.716,73.335c-1.126-0.252-2.138-0.213-2.738,0.999
	c-0.559,1.13-0.319,2.602,0.65,3.572c0.824,0.826,1.706,1.542,2.89,1.86c4.08,1.099,6.464-2.508,6.254-5.338
	c-0.085-1.16-0.293-2.308-0.714-3.401c-1.494-3.882-1.263-7.634,0.665-11.339c0.95-1.825,1.987-3.609,2.748-5.54
	c0.834-2.119,0.828-4.187,0.026-6.284c-0.041-0.107-0.14-0.271-0.217-0.274c-0.28-0.013-0.174,0.239-0.181,0.373
	c-0.16,2.925-1.556,5.427-2.777,7.976c-0.67,1.399-1.284,2.818-1.831,4.263c-0.921,2.428-0.83,4.889-0.058,7.339
	c0.116,0.369,0.302,0.718,0.197,1.121l0.018-0.016c-1.489-2.801-2.208-5.715-1.453-8.897c0.389-1.64,1.065-3.16,1.688-4.709
	c0.675-1.679,1.182-3.43,0.958-5.259c-0.15-1.229-0.478-2.441-0.789-3.644c-0.236-0.911-0.566-1.797-0.868-2.692
	c-0.063-0.185,0-0.443-0.265-0.533c-0.02,0.211-0.06,0.422-0.058,0.633c0.022,1.932,0.146,3.863,0.034,5.796
	c-0.077,1.333-0.235,2.651-0.82,3.876c-0.181,0.379-0.29,0.82-0.761,0.975l-0.002-0.002c1.266-3.109,0.238-5.999-0.913-8.849
	c-0.659-1.634-1.338-3.258-1.823-4.953c-0.596-2.083-0.688-4.148,0.328-6.153c0.083-0.165,0.369-0.375,0.116-0.54
	c-0.15-0.098-0.387,0.11-0.536,0.268c-1.256,1.318-2.427,2.687-2.609,4.614c-0.02,0.213-0.042,0.43-0.093,0.637
	c-0.028,0.114-0.097,0.271-0.187,0.306c-0.259,0.101-0.246-0.162-0.28-0.292c-0.505-1.907-0.709-3.806,0.216-5.66
	c0.172-0.345,0.376-0.683,0.341-1.093c0.095-0.084,0.189-0.169,0.283-0.253l0.05-0.077l-0.03,0.097
	c-0.159,0.011-0.248,0.102-0.284,0.252c-2.057,1.403-3.831,3.09-4.677,5.482c-1.077,3.044-0.569,6,0.787,8.864
	c0.445,0.94,1.043,1.77,1.656,2.597c-0.059,0.059-0.116,0.117-0.174,0.176c-1.962-1.278-3.596-2.888-4.983-4.771
	c-1.365-1.853-1.643-4.012-1.823-6.2c-0.256-3.108-0.076-6.168,1.229-9.063c0.48-1.064,1.197-1.974,2.047-2.776l0.032-0.047
	l-0.04,0.058c-1.878,0.015-3.534,0.729-4.991,1.817c-1.632,1.22-1.901,2.992-0.945,5.095c0.248,0.544,0.553,1.062,0.827,1.596
	c0.092,0.179,0.268,0.388,0.023,0.545c-0.056,0.036-0.297-0.143-0.402-0.265c-1.774-2.062-2.894-4.352-2.462-7.169
	c0.058-0.38,0.212-0.745,0.168-1.14c0.033-0.002,0.068,0.003,0.098-0.007c0.019-0.007,0.028-0.038,0.041-0.059
	c-0.04,0.028-0.08,0.058-0.12,0.085c-1.406,1.546-2.386,3.316-2.842,5.365c-0.045,0.201-0.08,0.493-0.32,0.498
	c-0.285,0.007-0.213-0.303-0.247-0.486c-0.505-2.812-0.499-5.539,1.332-7.96l0.013,0.013c-1.327,0.383-2.557,1.002-3.821,1.544
	c-2.978,1.277-4.354,3.654-4.604,6.757c-0.208,2.571,0.097,5.071,1.409,7.368c0.134,0.235,0.467,0.536,0.141,0.78
	c-0.169,0.127-0.451-0.163-0.653-0.317c-2.142-1.646-3.159-3.948-3.571-6.507c-0.697-4.32,0.149-8.295,3.012-11.723
	c0.232-0.278,0.361-0.556,0.354-0.93c-0.115-5.537,2.417-9.964,6.095-13.77C32.861,3.41,38.401,1.155,44.614,0.4
	c7.181-0.87,13.915,0.667,20.456,3.535c4.204,1.845,8.111,4.159,11.686,7.013c6.551,5.228,11.741,11.574,15.276,19.2
	c1.78,3.839,3.062,7.834,3.365,12.109c0.209,2.966-0.295,5.819-0.958,8.678c-0.603,2.593-1.368,5.144-1.774,7.788
	c-0.77,5.021,0.617,9.122,4.706,12.311c3.58,2.796,6.125,6.477,8.23,10.459c1.634,3.089,3.016,6.283,3.469,9.786
	c0.638,4.93-0.867,9.157-4.32,12.707c-1.045,1.074-2.116,2.121-3.568,2.651l0.019,0.021c2.84-3.029,4.173-6.735,4.945-10.732
	c0.824-4.275-0.616-7.868-3.136-11.177c-2.862-3.759-6.495-6.724-10.059-9.763c-2.199-1.875-4.289-3.859-5.312-6.68
	c-0.521-1.434-0.684-2.887-0.547-4.427c0.302-3.44,0.324-6.88-0.959-10.18c-0.076-0.196-0.203-0.372-0.306-0.557
	c-0.116,0.212,0.01,0.401,0.05,0.601c0.512,2.572,0.289,5.151-0.011,7.717c-0.369,3.16-0.387,6.275,0.914,9.255
	c0.927,2.128,2.405,3.861,4.151,5.356c3.172,2.714,6.276,5.502,8.935,8.732c2.096,2.547,3.74,5.342,4.349,8.665
	c0.644,3.512-1.695,8.467-5.024,9.783c-2.449,0.969-4.932,1.152-7.437,0.257c-1.973-0.705-3.42-2.865-3.265-4.784
	c0.134-1.649,2-3.149,3.862-3.104c1.651,0.039,3.311,1.585,3.389,3.159c0.024,0.517-0.2,0.913-0.617,1.205
	c-0.208,0.145-0.45,0.354-0.688,0.145c-0.221-0.192,0.061-0.374,0.143-0.542c0.371-0.763,0.077-1.341-0.513-1.81
	c-0.824-0.654-2.034-0.404-2.998,0.589c-0.708,0.729-0.709,1.345-0.003,2.276c2.346,3.1,6.866,2.672,8.929-0.892
	c1.468-2.535,1.43-5.184,0.198-7.79c-1.276-2.7-3.375-4.743-5.613-6.65c-2.061-1.757-4.326-3.256-6.288-5.142
	c-3.055-2.937-5.161-6.396-6.177-10.518c-0.08-0.324-0.046-0.699-0.324-0.961c0.008-1.381,0.016-2.762,0.023-4.143
	c0.053-0.104,0.107-0.209,0.153-0.318c0.009-0.02-0.026-0.057-0.041-0.086c-0.03,0.141-0.062,0.282-0.093,0.422
	c-0.451,1.369-0.402,2.74-0.027,4.113c-0.028,2.037,0.807,3.843,1.517,5.685c1.067,2.766,2.825,5.079,4.679,7.352
	c1.651,2.025,3.396,3.992,4.545,6.39c0.469,0.977,0.863,1.958,1.071,3.021c0.363,1.863-0.436,3.301-2.206,3.99
	c-1.278,0.496-2.611,0.848-3.833,1.496c-2.041,1.08-2.833,3.513-1.721,5.511c0.394,0.706,0.874,1.361,1.517,1.904
	c1.414,1.197,2.919,2.263,4.529,3.167c5.737,3.221,7.496,9.268,6.767,13.689c-0.334,2.024-1.142,3.865-2.64,5.339
	c-0.148,0.146-0.289,0.323-0.532,0.319l0.021,0.02c1.844-3.708,0.82-7.161-0.879-10.588c-1.541-3.106-3.904-5.376-6.829-7.166
	c-1.498-0.917-2.897-2.002-4.168-3.235c-1.101-1.07-1.896-2.329-2.36-3.787c-0.568-1.78-0.132-3.409,0.914-4.878
	c0.546-0.768,1.194-1.466,1.839-2.157c2.498-2.68,2.82-4.716,1.036-7.922c-0.895-1.608-1.901-3.169-3.264-4.452
	c-0.037-0.199-0.086-0.393-0.295-0.482c-0.017-0.008-0.081,0.057-0.079,0.058c0.109,0.157,0.162,0.37,0.396,0.404
	c0.113,1.06,0.826,1.87,1.176,2.835c1.315,3.627,0.636,6.852-1.889,9.717c-0.829,0.939-1.566,1.945-2.212,3.011
	c-1.168,1.926-1.016,3.854,0.342,5.637c1.294,1.701,2.967,2.969,4.697,4.175c1.727,1.202,3.486,2.362,5.035,3.801
	c2.941,2.73,3.883,6.029,2.592,9.838c-1.289,3.793-4.694,6.31-8.656,6.465c-3.34,0.129-6.264-0.873-8.548-3.436
	c-2.08-2.333-2.225-6.619-0.391-8.991c1.925-2.489,5.738-3.687,8.889-1.594c2.076,1.379,3.324,3.476,3.815,5.917
	c0.25,1.244-0.361,2.27-1.488,2.907c-2.541,1.439-6.428,0.143-7.6-2.525c-0.495-1.126-0.294-2.219,0.54-2.934
	c0.935-0.801,2.463-1.01,3.38-0.43c0.534,0.339,0.888,0.813,0.808,1.496c-0.034,0.3-0.088,0.723-0.338,0.788
	c-0.295,0.076-0.175-0.379-0.319-0.559c-0.312-0.39-0.716-0.457-1.16-0.31c-0.458,0.15-0.716,0.51-0.726,0.971
	c-0.016,0.774,0.247,1.456,0.969,1.837c0.617,0.326,1.292,0.466,2,0.353c1.16-0.187,1.731-0.893,1.66-2.06
	c-0.136-2.214-2.098-3.9-4.524-3.89c-2.182,0.01-3.802,1.543-3.986,3.771c-0.219,2.648,1.574,5.109,4.335,6.197
	c3.521,1.389,7.289-1.149,7.451-4.931c0.175-4.115-1.468-7.521-4.8-10.015c-1.123-0.841-2.477-1.195-3.855-1.362
	c-4.021-0.484-6.954-2.596-8.918-6.052c-1.146-2.016-0.835-4.171-0.106-6.25c0.682-1.944,1.604-3.8,2.131-5.805
	c0.986-3.757-0.159-6.833-2.917-9.438c-1.32-1.248-2.803-2.278-4.298-3.282c-2.562-1.718-4.917-3.616-6.386-6.411
	c-0.033-0.086-0.065-0.173-0.098-0.259c-0.01,0.028-0.036,0.068-0.026,0.082c0.043,0.057,0.097,0.105,0.146,0.157
	c0.09,0.981,0.29,1.942,0.293,2.944c0.013,3.532-1.615,6.009-4.785,7.403c-2.879,1.269-5.775,1.246-8.489-0.538
	c-2.49-1.637-3.084-5.573-1.236-7.91c1.128-1.427,2.665-1.568,4.437-0.406L48.716,73.335z M37.596,16.237
	c-1.161-0.054-2.567,0.166-3.978,0.328c-0.859,0.099-1.677,0.381-2.479,0.688c-1.57,0.601-3.087,1.307-4.378,2.417
	c-0.128,0.111-0.328,0.22-0.262,0.399c0.075,0.203,0.282,0.078,0.438,0.062c0.342-0.036,0.686-0.063,1.027-0.104
	c5.236-0.623,10.288,0.214,15.2,2.002c3.295,1.2,6.273,3,9.074,5.094c2.574,1.924,4.729,4.225,6.306,7.05
	c1.654,2.965,2.66,6.138,3.149,9.486c0.025,0.167,0.07,0.33,0.105,0.495c0.014-0.168,0.041-0.335,0.038-0.504
	c-0.025-2.463-0.408-4.894-0.921-7.284c-0.992-4.614-3.013-8.745-6.186-12.287C50.224,19.048,44.699,16.239,37.596,16.237z
	 M57.04,65.385c-0.045,0.312,0.168,0.886,0.255,1.476c0.016,0.109,0.084,0.211,0.129,0.316c0.013-0.126,0.039-0.253,0.036-0.379
	c-0.039-1.537-0.055-3.074,0.269-4.592c0.025-0.118-0.017-0.25-0.028-0.377c-0.229,0.021-0.171,0.222-0.198,0.348
	C57.294,63.138,57.1,64.101,57.04,65.385z M57.691,68.292c-0.013-0.034-0.025-0.068-0.038-0.103
	c-0.021,0.027-0.055,0.052-0.062,0.082c-0.023,0.103,0.011,0.15,0.075,0.12C57.687,68.382,57.684,68.326,57.691,68.292z"/>
</svg>
