<?xml version="1.0" encoding="utf-8"?>
<!-- Generator: Adobe Illustrator 16.0.4, SVG Export Plug-In . SVG Version: 6.00 Build 0)  -->
<!DOCTYPE svg PUBLIC "-//W3C//DTD SVG 1.1//EN" "http://www.w3.org/Graphics/SVG/1.1/DTD/svg11.dtd">
<svg version="1.1" id="Layer_0502" xmlns="http://www.w3.org/2000/svg" xmlns:xlink="http://www.w3.org/1999/xlink" x="0px" y="0px"
	 width="128px" height="128px" viewBox="0 0 128 128" enable-background="new 0 0 128 128" xml:space="preserve">
<g>
	<g>
		<path fill="none" stroke="#000000" stroke-miterlimit="10" d="M0.021,83.055c0.612-2.926-0.004-6.193-0.026-9.259
			c-0.062-8.473,1.39-16.19,4.625-24.054c4.56-11.083,15.429-31.936,30.542-22.385c6.507,4.112,9.371,11.624,10.182,18.916
			c0.77,6.907,1.046,20.074-5.147,25.074c-12.063,9.737-29.964-25.053-5.958-31.835c7.558-2.134,16.329,0.155,20.96,6.758
			c4.591,6.543,4.282,16.765-4.454,19.476C32.749,71.33,26.524,39.863,49.06,41.93c17.896,1.64,11.019,26.68-5.553,23.778
			c-0.828-0.145-15.874-7.097-8.915-8.432c5.287-1.015,9.664,8.94,9.733,12.746c0.043,2.366-0.623,7.327-3.704,7.585
			c-2.221,0.186-10.82-13.16-12.327-15.174c-9.084-12.14-11.07-33.685,9.191-35.623c5.547-0.53,15.176,2.407,17.006,8.589
			c2.064,6.971-4.535,5.234-7.668,1.804C35.456,24.762,51.302,6.507,65.562,8.317c13.8,1.751,12.763,18.204,4.088,25.632
			c-3.608,3.088-9.099,4.733-13.775,3.129c-2.284-0.784-5.293-2.341-2.135-4.387c7.637-4.948,13.312,16.859,0.051,12.427
			c-6.938-2.319-3.875-12.889-1.453-17.345c1.929-3.55,5.579-6.673,6.441-10.598c-2.124-0.648-4.618-0.317-6.849-0.926
			c-2.443-0.667-3.513-2.499-5.442-3.26c-4.138-1.632-9.217,0.217-13.444-1.731c-0.167,0.423-0.334,0.845-0.501,1.267"/>
		<path fill="none" stroke="#000000" stroke-miterlimit="10" d="M87.447,13.368c-1.979-2.389-7.446-3.167-10.538-2.921
			c-10.176,0.809-16.197,12.252-16.036,21.531c0.084,4.832,1.944,11.382,7.672,12.243c5.005,0.75,9.025-4.491,7.97-9.291
			c-0.611-2.776-4.803-7.023-7.995-6.424c-4.579,0.858-4.807,9.379-3.451,12.684c3.913,9.54,10.106-6.193,1.626-9.154
			C55.515,28.133,53.018,50,57.42,50.589c5.057,0.677,3.424-18.532-8.457-13.013c-12.496,5.806-8.45,43.509,4.592,31.952
			c11.284-10-0.806-31.248-14.244-20.844c-18.588,14.39,4.74,45.738,24.542,40.686c13.098-3.344,34.769-38.408,10.364-38.866
			c-7.641-0.145-18.443,4.283-21.683,11.767c-3.376,7.799,2.229,17.556,11.225,17.109c7.682-0.383,15.396-9.915,16.365-17.179
			c1.141-8.545-8.35-18.725-16.793-13.38c-7.501,4.748-6.64,19.099-2.989,25.767c4.827,8.816,14.443,5.451,20.407-0.507
			c6.084-6.079,7.937-14.532,5.07-22.644c-2.195-6.211-8.712-10.755-6.451-17.765c1.729-5.367,10.906-13.461,16.577-14.347
			c2.101-0.328,3.924-0.981,3.749,0.801"/>
		<path fill="none" stroke="#000000" stroke-miterlimit="10" d="M91.67,33.641c-9.905-10.364-33.01-0.589-34.33,12.661
			c-1.795,18.023,15.151,34.063,32.709,27.04c5.912-2.365,13.498-7.711,13.955-14.818c0.58-9.015-12.57-14.777-19.114-17.797
			c-48.573-22.417-0.234,76.733,17.405,45.156c6.978-12.492,1.713-43.215-14.41-47.241c-15.857-3.961-30.058,17.145-27.32,30.944
			c4.47,22.536,28.679,11.641,33.814-4.221c2.17-6.703,0.804-12.685-5.093-16.909c-3.712-2.659-10.405-4.91-14.553-1.709
			c-12.061,9.305,8.046,24.076,18.243,20.707c16.505-5.452,10.017-23.55-2.208-29.728c-5.51-2.785-18.852-0.319-10.893,7.358
			c2.341,2.259,6.62,3.213,8.734,0.133c3.084-4.495-2.948-10.359-6.069-12.712c-10.146-7.648-18.619-4.362-27.538,2.512
			c-6.586,5.075-14.845,10.048-8.524,18.896"/>
		<path fill="none" stroke="#000000" stroke-miterlimit="10" d="M108.142,39.553c0.995,13.635-11.81,13.884-21.605,12.237
			c6.309,3.515,8.872,9.869,5.627,16.529c-4.867,9.985-13.81,10.213-17.724-0.108c-3.165-8.346-3.084-22.83,9.535-17.243
			c7.593,3.361,23.063,21.45,8.504,26.679C77.492,83.032,72.848,56.224,77.31,47.17c6.329-12.844,21.756-0.992,22.941,9.289
			c0.856,7.438-2.682,14.187-10.859,13.807c-3.57-0.165-7.041-1.776-9.859-3.896c-2.781-2.089-7.334-10.52-10.995-10.444
			c-6.249,0.129,0.35,16.188,2.341,19.024c5.347,7.611,13.023,7.183,19.106,0.485c17.796-19.595-27.064-34.229-21.061-5.826
			c1.72,8.134,12.063,21.562,18.563,9.173c4.742-9.039-4.694-17.464-13.533-17.055c-19.215,0.888-12.408,33.765-4.248,43.224
			c0.521,0.156,0.663-0.103,0.425-0.779"/>
		<path fill="none" stroke="#000000" stroke-miterlimit="10" d="M30.008,86.012C20.711,62.507,68.984,37.027,73.52,62.327
			c2.269,12.656-15.011,19.216-24.553,14.398c-3.97-2.006-8.217-6.122-7.165-11.055c1.548-7.258,12.112-8.071,17.889-7.587
			c5.344,0.448,13.986,2.687,14.455,9.411c0.45,6.437-7.581,10.196-12.522,11.779c-5.019,1.608-35.068,0.946-30.079-9.862
			c1.988-4.306,14.281-2.546,17.384-1.93c6.711,1.331,14.752,5.196,16.5,12.529c3.253,13.649-14.937,23.734-26.562,22.447
			c-0.945-2.406,1.364-4.946,2.966-6.733"/>
		<path fill="none" stroke="#000000" stroke-miterlimit="10" d="M50.703,42.088c-17.225-14.799-37.201,6.313-36.315,24.965
			c0.364,7.649,4.63,15.712,12.134,18.528c9.047,3.395,18.189-2.438,24.161-8.819c5.009-5.354,11.12-15.013,9.339-22.885
			c-1.825-8.063-12.839-11.108-19.919-11.295c-13.707-0.36-23.395,8.838-19.798,22.738c1.308,5.057,5.978,15.082,12.654,14.882
			c7.018-0.211,9.6-9.217,7.173-14.825c-1.904-4.397-7.319-7.864-12.183-7.266c-5.886,0.723-8.586,6.002-10.504,11
			c-5.179,13.49-3.635,24.896,1.159,38.019"/>
		<path fill="none" stroke="#000000" stroke-miterlimit="10" d="M95.048,68.272c4.068,11.652,1.076,20.573-9.977,26.917
			c-10.412,5.976-51.573,18.395-50.379-6.005c1.019-20.826,37.903-27.604,46.505-8.989c4.558,9.864-4.017,17.367-12.815,19.882
			c-9.483,2.71-21.52,0.299-28.249-7.353c-12.659-14.39,15.913-23.662,26.323-20.641c6.669,1.936,13.677,8.555,6.697,14.759
			c-5.048,4.486-16.845,5.481-21.652,0.074c-3.587-4.033-3.008-7.659,1.329-10.604c6.193-4.203,17.339-1.422,22.341,3.311
			c9.719,9.196,4.66,33.907-4.617,42.286"/>
		<path fill="none" stroke="#000000" stroke-miterlimit="10" d="M79.845,64.472c-6.184-4.164-3.178-14.032,0.408-18.863
			c7.265-9.789,24.333-14.098,34.604-6.492c12.279,9.092,0.567,23.536-10.476,26.135c-8.666,2.038-25.348-2.958-17.272-14.616
			c5.015-7.242,17.911-8.096,24.318-2.63c11.118,9.483-0.877,22.583-12.077,23.708c-10.478,1.053-18.681-6.954-8.685-14.463
			c4.453-3.344,10.047-4.971,14.939-7.526c7.413-3.873,14.061-8.934,20.698-13.973"/>
		<path fill="none" stroke="#000000" stroke-miterlimit="10" d="M69.709,58.138c-4.068-1.518-3.899,4.267-3.839,6.735
			c0.268,10.848,8.864,28.182,19.927,31.659c12.453,3.914,19.167-15.201,16.91-24.522c-1.883-7.781-16.5-19.218-23.652-10.967
			c-5.394,6.22,0.652,21.917,9.612,20.441c8.486-1.397,10.268-16.032,4.347-20.947c-6.999-5.81-9.644,5.024-7.215,10.293
			c1.571,3.406,7.953,8.039,10.107,2.901c-10.212,6.581-0.787,30.608,12.235,20.727"/>
	</g>
	<g>
		<path fill="none" stroke="#000000" stroke-miterlimit="10" d="M6.461,31.951c2.535-1.584,4.468-4.291,6.666-6.428
			c6.071-5.908,12.647-10.202,20.562-13.31c11.156-4.38,33.729-10.969,37.297,6.55c1.536,7.542-1.905,14.808-6.605,20.441
			c-4.453,5.337-13.766,14.65-21.66,13.64c-15.377-1.968-2.658-38.967,18.853-26.334c6.772,3.978,11.19,11.893,9.63,19.805
			c-1.546,7.843-9.136,14.694-17.139,10.266c-16.489-9.124,1.915-35.395,16.021-17.701C81.288,52.931,58.455,65.3,49.08,51.33
			c-0.468-0.697-5.865-16.369-0.084-12.271c4.392,3.113,0.236,13.164-2.462,15.847c-1.678,1.668-5.72,4.621-8.038,2.576
			c-1.672-1.474,2.008-16.917,2.42-19.399c2.475-14.96,16.65-31.306,32.072-18.023c4.223,3.637,8.767,12.619,5.571,18.22
			c-3.604,6.314-6.917,0.35-6.61-4.285c1.111-16.817,25.257-18.015,33.82-6.47c8.285,11.172-4.306,21.812-15.67,20.692
			c-4.729-0.468-9.716-3.292-11.793-7.778c-1.017-2.189-1.975-5.439,1.688-4.577c8.855,2.086-2.957,21.277-8.935,8.638
			c-3.129-6.612,6.619-11.718,11.513-13.054c3.897-1.064,8.678-0.592,12.107-2.687c-1.003-1.981-2.968-3.552-4.073-5.584
			c-1.209-2.225-0.627-4.265-1.413-6.185c-1.686-4.116-6.536-6.502-8.055-10.901c-0.421,0.172-0.842,0.343-1.262,0.515"/>
		<path fill="none" stroke="#000000" stroke-miterlimit="10" d="M117.27,46.817c0.354-3.081-2.868-7.565-5.186-9.627
			c-7.627-6.784-20.053-3.209-26.64,3.329c-3.429,3.405-6.87,9.282-3.524,14.012c2.921,4.131,9.487,3.405,12.222-0.681
			c1.58-2.361,1.743-8.327-0.898-10.217c-3.788-2.71-10.098,3.023-11.544,6.29c-4.176,9.427,11.466,3.007,7.732-5.163
			c-4.92-10.771-22.431,2.562-19.811,6.148c3.013,4.119,15.747-10.355,3.539-15.11c-12.838-5.002-37.251,24.014-19.883,25.429
			c15.027,1.223,21.995-22.209,5.185-24.708C35.21,33.062,28.731,71.597,46.084,82.392c11.478,7.141,51.786-1.487,35.225-19.421
			c-5.185-5.614-15.856-10.347-23.5-7.505c-7.965,2.961-11.128,13.76-4.58,19.943c5.593,5.28,17.812,4.25,23.727-0.077
			c6.957-5.092,7.735-18.987-1.965-21.382c-8.619-2.128-18.382,8.426-20.668,15.677c-3.022,9.587,6.063,14.198,14.491,14.378
			c8.6,0.184,15.982-4.329,19.853-12.014c2.964-5.883,1.733-13.73,8.356-16.952c5.071-2.467,17.265-1.444,21.83,2.035
			c1.69,1.29,3.424,2.153,2.017,3.26"/>
		<path fill="none" stroke="#000000" stroke-miterlimit="10" d="M105.561,63.897c0.625-14.323-22.423-24.234-32.899-16.016
			C58.41,59.061,58.562,82.395,75.783,90.207c5.801,2.63,14.91,4.404,20.354-0.186c6.908-5.82,1.965-19.301-0.383-26.114
			c-17.44-50.574-55.546,52.941-20.545,43.815c13.845-3.608,32.376-28.672,24.123-43.097c-8.118-14.187-33.179-9.83-41.246,1.699
			c-13.17,18.824,11.45,28.757,26.453,21.485c6.34-3.073,9.711-8.2,8.678-15.38c-0.649-4.52-3.658-10.908-8.839-11.687
			c-15.063-2.264-11.809,22.471-2.318,27.5c15.358,8.139,23.932-9.072,19.929-22.169c-1.805-5.906-12.817-13.829-12.852-2.77
			c-0.009,3.252,2.264,7.002,5.95,6.396c5.379-0.886,5.437-9.297,4.974-13.179c-1.502-12.617-9.738-16.457-20.872-18.137
			c-8.223-1.24-17.528-3.759-19.54,6.927"/>
		<path fill="none" stroke="#000000" stroke-miterlimit="10" d="M112.692,79.879c-9.15,10.155-18.194,1.084-23.785-7.125
			c1.83,6.984-0.981,13.233-8.034,15.5c-10.578,3.398-16.93-2.896-12.19-12.866c3.834-8.062,14.345-18.026,19.046-5.052
			c2.829,7.806,0.48,31.492-13.371,24.604C60.1,87.85,76.233,65.942,85.855,62.896c13.651-4.321,15.774,15.017,9.174,22.987
			c-4.773,5.768-12.095,7.884-17.481,1.72c-2.351-2.691-3.59-6.312-4.012-9.813c-0.418-3.452,2.518-12.573-0.073-15.164
			c-4.416-4.42-11.44,11.456-12.109,14.856c-1.793,9.128,3.831,14.371,12.875,14.127c26.459-0.719,5.973-43.226-10.373-19.232
			c-4.679,6.869-7.214,23.63,6.228,19.746c9.807-2.834,9.355-15.475,2.944-21.572C59.086,57.296,40.068,84.965,38.89,97.4
			c0.248,0.485,0.533,0.408,0.855-0.231"/>
		<path fill="none" stroke="#000000" stroke-miterlimit="10" d="M25.083,55.641c10.53-22.98,62.333-5.773,47.21,15.011
			c-7.565,10.397-24.259,2.466-27.386-7.755c-1.301-4.252-1.271-10.167,3.02-12.823c6.311-3.905,14.208,3.157,17.858,7.661
			c3.374,4.166,7.74,11.953,3.212,16.947c-4.335,4.779-12.606,1.585-17.17-0.886c-4.635-2.509-24.955-24.655-13.701-28.535
			c4.485-1.546,11.723,8.545,13.426,11.21c3.685,5.766,6.459,14.245,2.377,20.581c-7.601,11.795-27.469,5.647-34.586-3.634
			c1.082-2.348,4.514-2.438,6.913-2.521"/>
		<path fill="none" stroke="#000000" stroke-miterlimit="10" d="M71.108,40.175c-1.24-22.675-30.305-22.48-43.154-8.931
			c-5.27,5.557-8.136,14.216-4.974,21.581C26.792,61.705,37.33,64.267,46.07,64.16c7.33-0.088,18.532-2.364,22.98-9.099
			c4.557-6.897-0.869-16.956-5.635-22.194c-9.227-10.143-22.571-10.768-30.114,1.448c-2.744,4.444-6.748,14.754-1.983,19.434
			c5.01,4.92,13.298,0.55,15.665-5.084c1.856-4.417,0.61-10.725-3.188-13.823C39.2,31.094,33.52,32.8,28.585,34.874
			C15.265,40.474,8.1,49.483,1.948,62.025"/>
		<path fill="none" stroke="#000000" stroke-miterlimit="10" d="M82.902,90.306c-5.595,11.001-14.104,15.016-26.332,11.428
			c-11.52-3.378-48.973-24.49-30.537-40.517C41.77,47.538,72.192,69.467,64.71,88.56c-3.965,10.117-15.315,9.123-23.22,4.513
			c-8.519-4.97-15.11-15.326-14.246-25.479c1.624-19.097,28.092-4.891,33.117,4.713c3.218,6.154,3.291,15.793-6.016,15.049
			c-6.733-0.539-15.615-8.365-15.041-15.576c0.428-5.38,3.446-7.472,8.573-6.379c7.321,1.56,13.029,11.53,13.074,18.416
			c0.088,13.379-21.247,26.83-33.717,25.936"/>
		<path fill="none" stroke="#000000" stroke-miterlimit="10" d="M75.123,76.7c-1.275-7.344,7.928-12.004,13.896-12.76
			c12.094-1.532,27.019,7.806,28.638,20.482c1.936,15.156-16.596,16.7-26.114,10.528c-7.47-4.845-15.409-20.342-1.406-22.584
			c8.698-1.393,18.24,7.325,18.73,15.733c0.851,14.588-16.906,14.997-25.471,7.692c-8.012-6.836-7.911-18.297,4.428-16.279
			c5.497,0.898,10.543,3.811,15.773,5.573c7.926,2.67,16.179,3.966,24.41,5.268"/>
		<path fill="none" stroke="#000000" stroke-miterlimit="10" d="M72.68,65.001c-1.722-3.986-5.779,0.138-7.519,1.892
			c-7.644,7.701-14.205,25.904-9.059,36.295c5.794,11.698,24.237,3.312,29.405-4.769c4.311-6.743,2.45-25.211-8.459-24.662
			c-8.221,0.414-15.365,15.641-8.1,21.086c6.886,5.158,18.68-3.685,18.129-11.36C86.427,74.41,76.777,80,74.654,85.399
			c-1.37,3.492-0.296,11.304,4.902,9.304c-11.818-2.816-22.637,20.617-6.492,23.176"/>
	</g>
</g>
</svg>
