<?xml version="1.0" encoding="utf-8"?>
<!-- Generator: Adobe Illustrator 16.0.4, SVG Export Plug-In . SVG Version: 6.00 Build 0)  -->
<!DOCTYPE svg PUBLIC "-//W3C//DTD SVG 1.1//EN" "http://www.w3.org/Graphics/SVG/1.1/DTD/svg11.dtd">
<svg version="1.1" id="Layer_0506" xmlns="http://www.w3.org/2000/svg" xmlns:xlink="http://www.w3.org/1999/xlink" x="0px" y="0px"
	 width="128px" height="128px" viewBox="0 0 128 128" enable-background="new 0 0 128 128" xml:space="preserve">
<g>
	<g>
		<path fill-rule="evenodd" clip-rule="evenodd" d="M57.677,122.231c0.244-0.717,0.798-0.97,2.312-0.246
			c2.314,1.104,3.888,0.887,5.335,0.479c0.965-0.271,1.236-0.751,0.259-1.999c-1.399-1.79-2.116-3.428-2.04-4.982
			c0.086-1.758-0.24-3.712-0.602-5.654c-0.411-2.199-0.132-4.076,0.458-5.791c1.46-4.245,3.334-8.249,5.688-11.977
			c4.891-7.744,9.697-15.543,13.392-24.016c0.815-1.872,1.881-3.597,2.578-5.528c1.705-4.728,4.152-9.02,6.378-13.44
			c2.738-5.44,6.346-10.331,10.618-14.792c2.176-2.271,4.566-4.356,7.399-6.124c1.318-0.823,3.117-0.967,5.542-0.406
			c0.923,0.213,2.278,0.944,2.586,0.236c0.26-0.593,0.372-1.295,0.314-2.042c-0.035-0.455-0.497-1.083-0.8-1.637
			c-0.535-0.981-0.987-1.987-0.298-2.441c1.011-0.666,0.949-1.856,0.269-3.259c-0.216-0.444-0.668-0.418-0.094-1.308
			c0-0.001-0.001-0.001-0.002-0.002c0.001,0.001,0.002,0.001,0.002,0.002l0,0c0.019,0.011-0.185,0.025-0.165,0.039
			c0.001-0.003-0.158-0.094-0.156-0.097l-0.028,0.044c0-0.001,0.139,0.114,0.139,0.113c0,0.001,0.07,0.062,0.068,0.064
			c1.12,1.735,2.376,3.583,1.09,4.496c-0.836,0.595-0.682,1.474,0.04,2.665c0.688,1.135,1.143,2.191,0.758,3.02
			c-0.258,0.552,0.431,0.823,1.063,0.838c2.248,0.055,4.173-0.258,5.269-1.365c4.374-4.412-1.763-14.041-11.203-19.162
			c-2.496-1.353-4.978-2.418-7.373-2.794c-0.366-0.058-0.876-0.2-0.904,0.094c-0.032,0.354,0.522,0.53,0.888,0.751
			c0.4,0.243,0.826,0.467,1.196,0.741c2.889,2.127,6.083,4.153,7.442,6.874c0.536,1.073,0.926,2.123,1.377,3.182
			c-0.008-0.005-0.014-0.012-0.022-0.018c-0.004,0.01-0.001,0.02-0.004,0.03c-1.228-0.857-1.304-1.689-1.671-2.506
			c-0.697-1.548-1.919-2.983-3.676-4.452c-1.719-1.437-3.635-2.55-5.517-3.736c-0.931-0.586-1.369-0.525-1.274,0.161
			c0.113,0.816-0.585,1.078-1.503,1.005c-1.849-0.147-2.449,0.69-3.092,1.573c-1.629,2.235-2.129,5.084-2.824,7.831
			c-0.093,0.37-0.172,0.822-0.943,0.493c-0.854-0.365-0.708-0.857-0.8-1.26c-0.102-0.437-0.222-0.901-0.14-1.256
			c0.852-3.725,1.046-7.854,5.434-9.407c0.702-0.249,1.01-0.708,0.047-1.767c-0.843-0.929-1.643-1.397-2.757-1.526
			c-1.742-0.203-3.127-0.062-4.126,0.605c-2.981,1.993-3.531,5.32-3.199,9.113c0.307,3.505-0.337,6.518-1.564,9.27
			c-1.171,2.624-2.589,5.098-4.135,7.484c-3.562,5.498-6.182,11.574-9.813,17.024c-1.983,2.977-3.499,6.232-4.913,9.542
			c-0.708,1.656-1.6,3.207-2.19,4.925c-1.261,3.67-2.707,7.248-4.572,10.554c-3.603,6.382-7.651,12.492-11.519,18.711
			c-1.472,2.367-3.984,3.879-7.432,4.64c-5.094,1.123-10.703,1.642-16.53,1.885c-2.504,0.104-2.816,1.67-3.439,3.074
			c-0.052,0.117,0.273,0.454,0.423,0.689c0.243-0.006,0.521,0.021,0.723-0.028c0.571-0.145,1.037-0.415,1.678-0.47
			c3.018-0.256,7.757,1.426,10.969,5.635c0.446,0.584,0.593,1.123,1.693,1.732c1.822,1.009,2.623,0.799,3.517,0.357
			c1.465-0.726,3.234-0.264,5.716,1.111c2.188,1.213,3.361,2.691,4.512,4.228c1.547,2.065,1.355,2.716-1.026,2.636
			c-0.946-0.032-0.956,0.19-0.128,0.906c2.589,2.242,2.776,3.866,1.903,5.258c-0.599,0.957-1.241,1.895-1.321,3.153
			c-0.016,0.253-0.28,0.521,0.102,0.781c0.403,0.272,0.581-0.021,0.685-0.217c0.307-0.572,0.989-0.79,2.072-0.5
			c1.106,0.296,1.556,0.151,1.467-0.639C57.227,122.964,57.54,122.633,57.677,122.231z"/>
		<path fill-rule="evenodd" clip-rule="evenodd" d="M33.812,101.476c-3.485-2.171-7.123-2.536-8.319-0.835
			c-1.148,1.631,1.056,5.271,4.464,7.378c3.25,2.008,7.406,2.406,8.398,0.804C39.46,107.037,37.403,103.712,33.812,101.476z"/>
		<path fill-rule="evenodd" clip-rule="evenodd" d="M53.113,121.534c0.438-0.723,0.617-1.573,0.734-2.449
			c0.217-1.605-1.667-3.48-5.366-5.423c-2.879-1.513-1.432,0.771-2.214,1.101c-0.06,0.026-0.067,0.098-0.121,0.184
			c-0.337,0.775-1.165,1.336-0.688,2.591c0.586,1.539,1.348,3.111,2.446,4.726c0.67,0.985,1.577,1.947,2.937,2.605
			c0.579,0.281,1.41,0.604,1.228-0.068C51.661,123.292,52.534,122.488,53.113,121.534z"/>
		<path fill-rule="evenodd" clip-rule="evenodd" d="M45.431,113.896c0.458-0.568,0.659-1.429-0.385-2.806
			c-1.033-1.361-2.556-2.423-4.096-3.48c-0.547-0.376-0.714-0.199-0.696,0.119c0.127,2.168-1.333,3.155-3.932,3.259
			c-1.009,0.04-0.725,0.498,0.015,1.26c1.279,1.317,2.736,1.562,4.152,2.104C43.813,115.629,44.396,115.595,45.431,113.896z"/>
		<path fill-rule="evenodd" clip-rule="evenodd" d="M45.564,110.615c1.964,2.228,5.457,3.85,7.636,3.559
			c0.649-0.087,0.745-0.497,0.324-1.12c-1.076-1.594-2.054-3.233-4.479-4.499c-0.346-0.217-0.734-0.489-1.139-0.712
			c-1.799-0.988-3.257-1.081-4.361-0.405c-1.042,0.636,0.801,1.475,1.329,2.219C45.1,109.978,45.289,110.303,45.564,110.615z"/>
		<path fill-rule="evenodd" clip-rule="evenodd" d="M67.375,123.752c-0.181-0.551-0.553-0.922-1.23-0.709
			c-1.695,0.528-3.681,0.629-6.426-0.589c-0.97-0.431-1.372-0.244-1.41,0.236c-0.052,0.664-0.73,1.176,0.497,2.231
			c2.348,2.021,4.547,2.763,6.395,2.134c0.799-0.272,1.55-0.605,1.907-1.294C67.518,125.276,67.654,124.603,67.375,123.752z"/>
		<path fill-rule="evenodd" clip-rule="evenodd" d="M98.734,7.625c-0.62,1.082-1.259,2.151-1.884,3.23
			c-0.148,0.256-0.295,0.516-0.396,0.798c-0.031,0.089,0.083,0.26,0.13,0.394c0.137-0.037,0.407-0.138,0.464-0.225
			c0.493-0.741,0.936-1.462,1.5-2.359c0.027,0.017,0.054,0.034,0.081,0.051c0.565-0.896,0.992-1.753,1.668-2.584
			c0.429-0.528,1.666-0.177,2.458-0.358c0.604-0.138,0.866-0.513,0.511-1.218c-0.1-0.199-0.404-0.468-0.66-0.624
			c-0.295-0.18-0.564-0.188-0.584,0.073c-0.048,0.601-0.368,1.024-1.114,1.132C99.682,6.111,99.181,6.848,98.734,7.625z"/>
		<path fill-rule="evenodd" clip-rule="evenodd" d="M44.04,116.267c-0.338-0.196-1.045-0.385-1.082-0.291
			c-0.12,0.303,0.472,0.711,0.828,1.062c0.224,0.222,0.526,0.346,0.731,0.228C44.458,116.949,44.677,116.637,44.04,116.267z"/>
		<path fill-rule="evenodd" clip-rule="evenodd" d="M96.114,13.457c-0.174,0.285-0.405,0.556,0.049,1.092
			c0.174-0.286,0.363-0.562,0.503-0.866c0.07-0.152,0.034-0.366,0.046-0.552C96.262,13.025,96.224,13.28,96.114,13.457z"/>
		<path fill-rule="evenodd" clip-rule="evenodd" d="M96.191,14.644c0.004-0.015,0.01-0.029,0.013-0.044
			c-0.017-0.018-0.025-0.033-0.041-0.05c-0.008,0.013-0.016,0.027-0.023,0.041C96.159,14.608,96.174,14.625,96.191,14.644z"/>
		<path fill-rule="evenodd" clip-rule="evenodd" d="M96.409,15.159c0.099-0.127-0.005-0.316-0.218-0.516
			c-0.038,0.142-0.097,0.277-0.082,0.44C96.117,15.195,96.322,15.271,96.409,15.159z"/>
	</g>
	<g>
		<path fill-rule="evenodd" clip-rule="evenodd" d="M3.868,104.059c0.783-0.438,1.144-1.192,1.583-1.896
			c0.245-0.389,0.46-0.8,0.74-1.161c0.826-1.07,1.697-1.34,2.948-0.908c0.396,0.138,0.779,0.324,1.205,0.294
			c0.667-0.046,1.205,0.252,1.749,0.577c1.02,0.607,1.885,1.358,2.509,2.388c0.302,0.495,0.652,0.976,1.059,1.387
			c0.563,0.571,0.816,1.238,0.903,2.009c0.076,0.669,0.04,1.335-0.056,1.996c-0.048,0.332-0.14,0.666,0.025,0.98
			c0.439,0.851,0.497,1.73,0.393,2.676c-0.092,0.828,0.787,1.705,1.476,1.428c1.053-0.425,2.059-1.014,2.987-1.672
			c0.537-0.381,0.459-1.1,0.384-1.75c-0.112-0.963,0.066-1.182,0.986-1.393c0.73-0.168,1.478-0.27,2.203-0.465
			c0.781-0.211,0.868-0.374,0.605-1.142c-0.134-0.391-0.15-0.717,0.063-1.067c0.387-0.631,0.252-1.196-0.271-1.68
			c-0.611-0.565-0.736-1.282-0.667-2.063c0.041-0.456,0.066-0.917,0.141-1.368c0.621-3.682,1.863-7.181,3.352-10.576
			c1.489-3.394,3.132-6.723,4.811-10.029c1.697-3.343,3.158-6.802,5.019-10.066c1.814-3.189,3.517-6.442,5.292-9.653
			c1.11-2.009,2.314-3.968,3.376-6c0.715-1.37,1.592-2.651,2.25-4.039c1.004-2.119,2.259-4.089,3.419-6.11
			c2.724-4.744,5.637-9.376,8.399-14.097c0.969-1.656,1.916-3.327,2.915-4.966c0.131-0.211,0.348-0.444,0.244-0.684
			c-0.346-0.798,0.147-1.37,0.497-1.964c0.465-0.791,0.97-1.561,1.489-2.318c0.791-1.152,1.75-2.124,3.09-2.634
			c0.668-0.254,0.99-0.752,0.962-1.44c-0.014-0.392,0.017-0.801,0.205-1.089c0.406-0.619,0.424-1.282,0.468-1.968
			c0.022-0.378-0.001-0.746-0.022-1.121c-0.075-1.357-0.338-2.735,0.361-4.026c0.054-0.101,0.097-0.301,0.046-0.351
			c-0.47-0.446-0.155-0.83,0.07-1.224c0.133-0.23,0.163-0.466,0.067-0.719c-0.128-0.337-0.088-0.655,0.132-0.946
			c0.425-0.561,0.365-1.154,0.167-1.784c-0.075-0.237-0.354-0.589-0.1-0.726c0.18-0.095,0.507,0.243,0.659,0.483
			c0.199,0.315,0.342,0.668,0.482,1.014c0.148,0.371,0.403,0.624,0.75,0.804c0.282,0.147,0.481,0.08,0.586-0.213
			c0.211-0.591,0.153-1.156-0.241-1.654c-0.946-1.188-2.233-1.85-3.636-2.322c-0.353-0.119-0.628,0.058-0.916,0.26
			c-1.087,0.767-2.299,1.362-3.236,2.338c-0.267,0.278-0.608,0.438-0.952,0.586c-1.894,0.815-2.573,2.375-2.614,4.303
			c-0.015,0.712-0.033,1.415-0.204,2.111c-0.43,1.752-1.065,3.421-1.993,4.97c-1.201,2.004-2.472,3.964-3.573,6.032
			c-1.154,2.173-2.5,4.241-3.727,6.377C50.417,31.802,48,35.755,45.78,39.823c-1.57,2.88-3.193,5.731-4.808,8.588
			c-1.786,3.16-3.558,6.328-5.394,9.459c-2.13,3.634-4.413,7.174-6.536,10.815c-2.419,4.15-4.973,8.223-7.657,12.208
			c-1.539,2.285-3.179,4.504-4.549,6.896c-1.46,2.548-3.591,4.302-6.184,5.562c-1.088,0.529-2.169,1.075-3.275,1.564
			c-0.673,0.297-1.251,0.644-1.547,1.36c-0.142,0.344-0.335,0.688-0.798,0.694c-0.579,0.006-0.767,0.39-0.883,0.877
			c-0.156,0.648-0.364,1.283-0.513,1.934c-0.189,0.827-0.542,1.477-1.462,1.67c-0.448,0.096-0.671,0.411-0.755,0.882
			c-0.125,0.716,0.153,1.198,0.708,1.604C2.693,104.352,3.234,104.412,3.868,104.059z"/>
		<path fill-rule="evenodd" clip-rule="evenodd" d="M17.309,117.087c-1.018-1.074-1.112-1.542-0.504-2.808
			c0.148-0.311,0.371-0.645,0.105-0.923c-0.446-0.466-0.38-0.97-0.273-1.509c0.083-0.42,0.086-0.866-0.113-1.229
			c-0.453-0.823-0.393-1.656-0.279-2.543c0.117-0.909,0.139-1.895-0.468-2.643c-0.709-0.877-1.31-1.832-2.024-2.692
			c-0.773-0.932-1.665-1.821-2.937-1.97c-0.667-0.079-1.333-0.146-1.931-0.412c-0.776-0.342-1.361-0.108-1.954,0.362
			c-0.636,0.506-1.093,1.137-1.391,1.89c-0.357,0.9-1.044,1.471-1.879,1.911c-0.701,0.37-1.185-0.099-1.724-0.384
			c-0.055-0.03-0.139-0.002-0.21,0c0.015,0.118-0.014,0.277,0.053,0.35c1.108,1.232,2.344,2.262,4.096,2.379
			c1.004,0.067,1.964,0.3,2.924,0.6c1.441,0.449,2.318,1.355,2.708,2.823c0.43,1.616,1.099,3.146,2.017,4.555
			c0.504,0.773,1.065,1.496,1.79,1.882c0.833,0.524,1.32,0.694,1.851,0.657c0.079-0.006,0.168-0.049,0.22-0.104
			C17.407,117.255,17.354,117.137,17.309,117.087z"/>
		<path fill-rule="evenodd" clip-rule="evenodd" d="M82.28,10.732c-0.125-0.719-0.103-1.464-0.144-2.198
			c-0.626-0.664-0.757-1.542-0.997-2.367c-0.116-0.4-0.207-0.555-0.672-0.344c-2.917,1.322-5.642,1.099-8.049-1.144
			c-0.416-0.389-0.454-0.207-0.635,0.178c-0.313,0.667-0.111,1.398-0.282,2.02c-0.234,0.848,0.127,1.839-0.595,2.562
			c-0.046,0.047-0.036,0.161-0.033,0.243c0.037,1.433,0.05,2.867,0.144,4.297c0.02,0.295,0.126,0.619-0.062,0.822
			c-0.732,0.79-0.477,1.895-0.934,2.765c-0.044,0.082-0.002,0.264,0.066,0.333c0.101,0.102,0.207-0.015,0.299-0.091
			c1.997-1.647,4.341-2.612,6.763-3.42c0.66-0.22,1.291-0.286,1.884,0.218c0.215,0.18,0.509,0.284,0.784,0.37
			c1.193,0.376,1.325,0.323,2.005-0.742c0.177-0.277,0.341-0.563,0.51-0.845C82.016,12.513,82.436,11.624,82.28,10.732z"/>
		<path fill-rule="evenodd" clip-rule="evenodd" d="M82.333,13.389c0.002,0.008,0.005,0.016,0.009,0.024
			c0-0.003,0.001-0.006,0.002-0.009c-0.002-0.009-0.001-0.018-0.002-0.027C82.339,13.381,82.335,13.386,82.333,13.389z"/>
		<path fill-rule="evenodd" clip-rule="evenodd" d="M90.191,12.943c0.667-2.051,0.209-3.95-0.72-5.787
			c-0.4-0.789-0.965-1.447-1.716-1.952c-1.688-1.134-3.529-1.154-5.418-0.769c-1.006,0.206-1.123,0.443-0.917,1.501
			c0.088,0.45,0.219,0.882,0.427,1.301c0.195,0.396,0.428,0.809,0.303,1.289c0.296,0.2,0.436,0.505,0.434,0.836
			c-0.01,1.351,0.204,2.717-0.24,4.042c0.083,0.649-0.475,1.005-0.714,1.506c-0.211,0.438-0.392,0.938-0.01,1.27
			c0.719,0.624,1.482,1.209,2.564,1.062c1.49-0.2,2.816-0.813,4.017-1.645C89.126,14.958,89.825,14.066,90.191,12.943z"/>
		<path fill-rule="evenodd" clip-rule="evenodd" d="M82.15,8.526c-0.005-0.003-0.01-0.007-0.014-0.01c0,0.006,0,0.012,0,0.019
			c0.004,0.004,0.007,0.008,0.01,0.011C82.148,8.54,82.148,8.534,82.15,8.526z"/>
		<path fill-rule="evenodd" clip-rule="evenodd" d="M25.694,109.049c0.04-0.065,0.03-0.16,0.043-0.242
			c-0.118-0.019-0.257-0.087-0.347-0.047c-0.585,0.26-1.23,0.226-1.831,0.398c-0.438,0.127-0.957,0.137-1.302,0.386
			c-0.484,0.35-0.101,0.931-0.11,1.406c-0.012,0.702-0.096,1.473-0.745,1.745c-0.817,0.345-1.533,0.803-2.265,1.271
			c-0.347,0.222-0.767,0.314-1.204,0.195c-0.248-0.067-0.502-0.043-0.686,0.174c-0.472,0.554-0.592,1.176-0.368,1.87
			c0.267,0.828,1.078,0.733,1.664,0.885c0.614,0.156,0.997-0.398,1.116-0.951c0.114-0.537,0.433-0.768,0.885-0.937
			c0.234-0.088,0.442-0.254,0.68-0.314c0.682-0.175,1.07-0.604,1.22-1.276c0.044-0.197,0.049-0.486,0.299-0.486
			c1.033,0.004,1.175-0.931,1.649-1.512C24.977,110.833,25.194,109.869,25.694,109.049z"/>
		<path fill-rule="evenodd" clip-rule="evenodd" d="M69.359,18.491c-0.357-0.328-0.748,0.124-1.071,0.318
			c-0.424,0.254-0.855,0.549-1.169,0.923c-0.668,0.793-1.442,1.51-1.796,2.297c-0.521,0.841-0.99,1.483-1.165,2.279
			c-0.066,0.302-0.039,0.553,0.328,0.404c0.547-0.223,1.144-0.256,1.682-0.465c1.274-0.495,1.981-1.582,2.62-2.7
			c0.126-0.22,0.044-0.572,0.021-0.86c-0.034-0.468,0.113-0.901,0.193-1.351C69.064,18.999,69.597,18.709,69.359,18.491z"/>
	</g>
</g>
</svg>
