<?xml version="1.0" encoding="utf-8"?>
<!-- Generator: Adobe Illustrator 16.0.4, SVG Export Plug-In . SVG Version: 6.00 Build 0)  -->
<!DOCTYPE svg PUBLIC "-//W3C//DTD SVG 1.1//EN" "http://www.w3.org/Graphics/SVG/1.1/DTD/svg11.dtd">
<svg version="1.1" id="Layer_0509" xmlns="http://www.w3.org/2000/svg" xmlns:xlink="http://www.w3.org/1999/xlink" x="0px" y="0px"
	 width="128px" height="128px" viewBox="0 0 128 128" enable-background="new 0 0 128 128" xml:space="preserve">
<g>
	<path fill-rule="evenodd" clip-rule="evenodd" d="M36.916,84.403c0.24,1.543,0.605,3.08,0.698,4.633
		c0.269,4.527-2.814,7.83-7.126,7.76c-3.993-0.065-7.039-3.438-6.841-7.701c0.175-3.758,2.026-6.867,4.062-9.88
		c2.16-3.196,2.06-3.021-1.243-5.038c-2.651-1.621-5.061-3.658-7.485-5.625c-4.726-3.832-10.018-6.951-13.33-12.446
		c-4.071-6.75-5.309-13.941-4.064-21.492C4.023,19.841,12.747,9.871,26.366,4.234c7.469-3.091,15.12-2.238,22.53,0.665
		c2.566,1.004,5.007,2.332,7.49,3.543c2.009,0.98,3.708,1.996,3.321,4.865c-0.231,1.707,1.204,2.335,2.986,2.064
		c2.639-0.403,5.188,0.866,5.903,3.299c0.396,1.354,1.265,1.667,2.095,2.435c2.645,2.44,5.027,5.167,7.45,7.839
		c8.815,9.726,18.465,18.548,28.606,26.869c2.419,1.983,5.733,3.288,6.397,6.975c0.067,0.37,0.636,0.712,1.04,0.95
		c11.41,6.686,15.644,19.572,10.576,31.599c-1.936,4.598-4.519,8.772-7.558,12.631c-1.877,2.382-3.077,5.157-4.991,7.476
		c-0.305,0.368-0.587,0.776-0.786,1.209c-1.003,2.18-4.368,0.458-4.725,2.192c-0.503,2.434-1.816,3.556-3.73,4.354
		c-1.769,0.737-3.612,1.631-5.471,1.759c-5.252,0.359-10.496,1.41-15.807,0.173c-8.544-1.994-16.095-5.908-22.077-12.24
		c-4.729-5.005-8.839-10.583-12.607-16.414c-2.842-4.397-5.791-8.833-10.12-12.039L36.916,84.403z M52.824,67.767l0.038-0.021
		c-0.248,0.679-0.406,1.408-0.76,2.026c-0.825,1.445-2.227,1.186-3.536,0.997c-1.36-0.196-2.112-1.073-2.31-2.407
		c-0.188-1.273-0.027-2.791,1.243-3.087c3.612-0.842,1.651-2.104,0.398-3.324c-7.831-7.64-16.244-14.607-24.674-21.568
		c-5.389-4.449-10.399-9.299-12.965-16.072c-0.147-0.387,0-1.106-0.582-1.037c-0.309,0.037-0.565,0.692-0.807,1.091
		c-1.704,2.822-2.545,5.957-3.215,9.139c-2.19,10.394,1.188,21.236,9.998,27.868c6.433,4.845,13.457,8.893,19.105,14.932
		c6.081,6.503,12.23,12.877,17.103,20.356c0.693,1.064,0.798,1.74,2.16,0.457c1.394-1.313,3.262-0.913,4.328,0.801
		c1.03,1.658,0.347,3.106-1.337,3.831c-1.505,0.648-1.125,1.636-0.31,2.116c2.71,1.599,3.848,4.512,5.905,6.603
		c5.062,5.151,11.153,8.756,18.19,10.49c3.69,0.908,7.505,2.031,11.208-0.232c0.741-0.454,1.607-0.214,2.454-0.021
		c4.426,1,7.289-0.479,8.963-4.552l-0.063,0.062c1.227-1.178,2.547-1.987,4.329-2.342c2.282-0.453,3.1-2.568,1.996-4.503
		c-0.444-0.778-0.935-1.463-0.332-2.287c0.647-0.883,1.561-1.145,2.537-0.574c0.733,0.43,1.328,0.545,1.806-0.282
		c1.381-2.393,3.661-4.171,4.648-6.818c0.135-0.357,0.934-0.585,0.328-1.088c-0.095-0.078-0.595,0.287-0.881,0.486
		c-3.561,2.495-7.35,4.362-11.627,5.484c-8.271,2.169-15.474-2.235-23.206-3.291c-2.64-0.359-2.282-3.515-4.141-4.644
		c-0.203-0.125-0.369-0.31-0.565-0.451c-2.547-1.837-4.846-3.962-7.003-6.232c-0.956-1.007-1.885-1.549-3.366-1.651
		c-3.123-0.218-4.668-2.35-4.167-5.409c0.135-0.818,0.615-1.535-0.08-2.341C60.037,76.099,57.202,71.267,52.824,67.767z
		 M35.914,6.341c-2.018-0.045-4.542,0.081-6.978,0.871c-1.259,0.409-2.386,0.875-0.817,2.378c0.703,0.674,1.24,1.695,0.09,2.449
		c-1.137,0.746-2.654,0.732-3.06-0.609c-0.891-2.94-2.211-1.445-3.555-0.615c-0.818,0.505-1.681,0.963-2.418,1.57
		c-4.792,3.949-7.822,7.468-3.194,14.816c3.211,5.1,7.752,8.919,12.334,12.547c14.021,11.095,26.975,23.206,37.816,37.483
		c0.706,0.93,1.327,1.905,2.731,2.148c2.331,0.404,3.3,2.101,3.611,4.354c0.325,2.352,7.078,9.438,9.329,9.856
		c0.561,0.104,1.181-0.089,1.771-0.156c2.228-0.256,3.86,0.612,4.403,2.798c0.42,1.695,1.564,2.171,2.978,2.708
		c9.035,3.429,17.372,2.706,24.989-3.687c5.234-4.394,9.121-9.757,5.35-17.978c-1.872-4.077-3.901-8.28-8.666-10.062
		c-1.616-0.605-2.771-1.996-3.406-3.584c-0.476-1.188-1.19-1.977-2.172-2.749c-11.168-8.79-21.576-18.401-31.269-28.809
		c-2.896-3.108-5.158-6.988-9.485-8.596c-0.912-0.338-1.279-1.387-1.365-2.41c-0.133-1.594-0.721-2.135-2.566-1.979
		c-3.377,0.285-5.737-1.581-6.549-4.895c-0.319-1.307-0.862-2.061-1.979-2.732C48.471,8.235,42.77,6.226,35.914,6.341z M27.798,89.2
		c0.8-0.129,1.134-0.715,1.164-1.472c0.031-0.861-0.08-1.739-1.26-1.673c-0.794,0.047-1.333,0.575-1.363,1.356
		C26.304,88.322,26.82,88.94,27.798,89.2z"/>
	<path fill-rule="evenodd" clip-rule="evenodd" d="M51.479,109.502c0.03,2.472-2.024,4.587-4.237,4.365
		c-2.264-0.227-4.088-2.585-3.779-4.895c0.032-0.235,0.101-0.471,0.187-0.693c0.857-2.21,1.511-4.705,3.935-5.641
		C48.671,102.218,51.453,107.275,51.479,109.502z M46.151,108.703c-0.073-0.073-0.147-0.145-0.221-0.216
		c-0.076,0.166-0.174,0.328-0.214,0.502c-0.015,0.062,0.12,0.153,0.185,0.232C45.983,109.051,46.065,108.878,46.151,108.703z"/>
	<path fill-rule="evenodd" clip-rule="evenodd" d="M21.429,79.354c-0.002,2.555-1.834,4.453-4.209,4.36
		c-2.299-0.088-3.756-1.804-3.708-4.388c0.046-2.564,1.509-4.474,2.997-6.361c0.435-0.552,1.078-0.688,1.534-0.153
		C19.67,74.724,21.338,76.64,21.429,79.354z M15.685,78.131c-0.067,0.187-0.204,0.38-0.187,0.559
		c0.027,0.265,0.281,0.39,0.494,0.237c0.137-0.097,0.261-0.393,0.208-0.525C16.146,78.265,15.868,78.217,15.685,78.131z"/>
	<path fill-rule="evenodd" clip-rule="evenodd" d="M27.798,89.2c-0.978-0.26-1.494-0.878-1.459-1.788
		c0.029-0.781,0.568-1.31,1.363-1.356c1.18-0.066,1.292,0.812,1.26,1.673C28.932,88.485,28.598,89.071,27.798,89.2z"/>
	<path fill-rule="evenodd" clip-rule="evenodd" d="M52.862,67.746l-0.038,0.021L52.862,67.746z"/>
	<path fill-rule="evenodd" clip-rule="evenodd" d="M36.916,84.403l-0.025,0.034L36.916,84.403z"/>
	<path fill-rule="evenodd" clip-rule="evenodd" d="M46.149,108.705c-0.084,0.173-0.166,0.346-0.248,0.517
		c-0.065-0.079-0.2-0.171-0.185-0.232c0.04-0.174,0.139-0.336,0.214-0.502C46.004,108.559,46.078,108.63,46.149,108.705z"/>
	<path fill-rule="evenodd" clip-rule="evenodd" d="M15.687,78.131c0.181,0.086,0.458,0.134,0.513,0.271
		c0.052,0.133-0.072,0.429-0.208,0.525c-0.213,0.152-0.466,0.027-0.494-0.237C15.481,78.511,15.618,78.317,15.687,78.131z"/>
	<path fill-rule="evenodd" clip-rule="evenodd" d="M67.354,68.264c0.022,1.482-0.826,2.173-2.191,2.312
		c-1.667,0.169-3.561-1.322-3.577-2.83c-0.017-1.462,0.899-2.151,2.228-2.324C65.483,65.203,67.274,66.675,67.354,68.264z"/>
	<path fill-rule="evenodd" clip-rule="evenodd" d="M37.74,36.821c1.061,1.987,0.414,3.193-1.743,3.532
		c-1.253,0.198-2.335-0.237-2.995-1.438c-0.49-0.896-0.691-1.815,0.031-2.646c1.167-1.34,2.518-0.99,3.867-0.29l-0.052-0.058
		c0.204,0.194,0.405,0.389,0.609,0.583C37.553,36.61,37.647,36.715,37.74,36.821z"/>
	<path fill-rule="evenodd" clip-rule="evenodd" d="M35.2,29.217c-0.058,1.65-0.997,2.377-2.332,2.368
		c-1.683-0.012-3.119-0.683-3.318-2.612c-0.164-1.582,0.988-2.155,2.277-2.187C33.547,26.745,34.827,27.519,35.2,29.217z"/>
	<path fill-rule="evenodd" clip-rule="evenodd" d="M114.106,77.973c1.153-0.104,2.229-0.855,3.472-0.268
		c1.275,0.604,2.281,1.373,2.131,2.931c-0.088,0.905-0.628,1.521-1.624,1.603c-1.484,0.119-3.004,0.087-3.662-1.502
		c-0.344-0.83-0.178-1.87-0.241-2.815L114.106,77.973z"/>
	<path fill-rule="evenodd" clip-rule="evenodd" d="M105.542,71.453c-0.273,1.31-1.062,2.247-2.453,1.957
		c-1.423-0.294-2.747-1.027-2.684-2.849c0.053-1.544,1.084-2.099,2.419-1.974C104.453,68.74,105.374,69.751,105.542,71.453z"/>
	<path fill-rule="evenodd" clip-rule="evenodd" d="M28.617,13.967c1.675,0.07,2.873,0.875,3.104,2.48
		c0.217,1.502-0.906,2.15-2.257,2.13c-1.623-0.023-2.803-0.791-2.837-2.563C26.601,14.75,27.383,14.063,28.617,13.967z"/>
	<path fill-rule="evenodd" clip-rule="evenodd" d="M88.72,77.953c-1.268-0.334-2.484-0.97-2.673-2.44
		c-0.179-1.387,0.984-1.877,2.116-1.895c1.479-0.025,2.652,0.784,2.77,2.287C91.027,77.13,90.019,77.756,88.72,77.953z"/>
	<path fill-rule="evenodd" clip-rule="evenodd" d="M52.569,37.502c-0.16,1.175-0.682,2.138-1.971,2.067
		c-1.518-0.083-2.774-0.778-2.913-2.503c-0.103-1.282,0.649-2.017,1.915-2.04C51.254,34.995,52.229,35.887,52.569,37.502z"/>
	<path fill-rule="evenodd" clip-rule="evenodd" d="M95.965,89.507c-1.503-0.303-2.63-1.137-2.655-2.788
		c-0.021-1.392,1.075-1.692,2.256-1.607c1.42,0.102,2.629,0.637,2.742,2.226C98.415,88.832,97.335,89.349,95.965,89.507z"/>
	<path fill-rule="evenodd" clip-rule="evenodd" d="M109.404,83.796c1.482,0.232,2.685,0.664,2.767,2.332
		c0.054,1.107-0.407,1.871-1.629,1.811c-1.436-0.072-2.577-0.677-2.694-2.259C107.769,84.618,108.346,83.892,109.404,83.796z"/>
	<path fill-rule="evenodd" clip-rule="evenodd" d="M108.566,92.146c0.019,1.491-0.616,2.154-1.734,2.014
		c-1.232-0.154-2.34-0.764-2.337-2.212c0.002-1.051,0.624-1.808,1.797-1.739C107.673,90.29,108.368,91.145,108.566,92.146z"/>
	<path fill-rule="evenodd" clip-rule="evenodd" d="M96.866,94.368c-0.104,1.335-0.894,1.635-1.968,1.647
		c-1.364,0.017-2.396-0.435-2.446-1.934c-0.04-1.173,0.806-1.754,1.873-1.624C95.5,92.601,96.691,92.95,96.866,94.368z"/>
	<path fill-rule="evenodd" clip-rule="evenodd" d="M62.742,46.427c-0.021-1.231,0.492-1.906,1.656-1.919
		c1.351-0.015,2.307,0.681,2.541,1.985c0.208,1.156-0.604,1.723-1.686,1.774C63.902,48.332,63.016,47.704,62.742,46.427z"/>
	<path fill-rule="evenodd" clip-rule="evenodd" d="M86.122,50.701c-0.151,1.294-1.025,1.562-2.043,1.47
		c-1.111-0.102-2.159-0.484-2.246-1.812c-0.08-1.231,0.803-1.647,1.851-1.609C84.954,48.795,85.998,49.241,86.122,50.701z"/>
	<path fill-rule="evenodd" clip-rule="evenodd" d="M72.833,43.04c1.321,0.023,2.016,0.838,2.153,2.004
		c0.121,1.021-0.65,1.566-1.596,1.525c-1.12-0.048-2.271-0.405-2.37-1.746C70.938,43.705,71.686,43.084,72.833,43.04z"/>
	<path fill-rule="evenodd" clip-rule="evenodd" d="M45.458,17.887c1.188,0.203,1.957,0.948,2.037,2.114
		c0.065,0.967-0.681,1.491-1.627,1.5c-1.24,0.013-2.125-0.687-2.247-1.863C43.507,18.531,44.341,17.973,45.458,17.887z"/>
	<path fill-rule="evenodd" clip-rule="evenodd" d="M97.261,70.08c-0.013,1.018-0.603,1.571-1.548,1.52
		c-1.213-0.067-2.426-0.358-2.407-1.966c0.015-1.112,0.883-1.278,1.74-1.299C96.239,68.306,97.118,68.744,97.261,70.08z"/>
	<path fill-rule="evenodd" clip-rule="evenodd" d="M62.758,24.039c1.356,0.278,2.391,0.587,2.291,1.999
		c-0.076,1.057-0.868,1.316-1.75,1.293c-1.225-0.033-2.018-0.61-1.958-1.939C61.386,24.337,62.134,24.095,62.758,24.039z"/>
	<path fill-rule="evenodd" clip-rule="evenodd" d="M59.026,29.76c0.134-0.958,0.683-1.541,1.654-1.385
		c1.142,0.183,2.075,0.877,1.948,2.109c-0.092,0.897-0.973,1.267-1.897,1.161C59.627,31.521,59.076,30.867,59.026,29.76z"/>
	<path fill-rule="evenodd" clip-rule="evenodd" d="M74.103,77.894c-0.994-0.261-1.79-0.785-1.845-1.876
		c-0.053-1.052,0.706-1.485,1.637-1.398c1.036,0.097,1.826,0.729,1.868,1.799C75.802,77.411,75.011,77.794,74.103,77.894z"/>
	<path fill-rule="evenodd" clip-rule="evenodd" d="M69.735,59.967c-1.035-0.182-1.797-0.685-1.79-1.828
		c0.006-1.08,0.8-1.376,1.702-1.33c1.086,0.056,1.796,0.691,1.8,1.786C71.45,59.634,70.637,59.916,69.735,59.967z"/>
	<path fill-rule="evenodd" clip-rule="evenodd" d="M114.182,77.921c-0.321-0.156-0.635-0.329-0.964-0.462
		c-1.047-0.421-2.082-0.869-1.422-2.306c0.348-0.753,1.053-1.039,1.782-0.688c1.066,0.514,1.69,1.334,1.081,2.594
		c-0.156,0.319-0.367,0.61-0.553,0.914L114.182,77.921z"/>
	<path fill-rule="evenodd" clip-rule="evenodd" d="M36.901,35.98c0.201-0.546,0.287-1.18,0.626-1.618
		c0.594-0.766,1.442-0.695,2.243-0.289c0.571,0.289,0.898,0.791,0.836,1.436c-0.103,1.095-0.933,1.216-1.803,1.248
		c-0.355,0.013-0.708,0.042-1.063,0.065c-0.093-0.106-0.187-0.211-0.282-0.316c-0.204-0.194-0.406-0.389-0.609-0.583L36.901,35.98z"
		/>
	<path fill-rule="evenodd" clip-rule="evenodd" d="M105.546,82.452c-0.04,0.929-0.559,1.294-1.372,1.335
		c-1.14,0.058-1.835-0.477-1.871-1.621c-0.029-0.942,0.434-1.616,1.486-1.546C104.922,80.696,105.382,81.48,105.546,82.452z"/>
	<path fill-rule="evenodd" clip-rule="evenodd" d="M88.373,69.884c1.021,0.093,1.612,0.75,1.494,1.893
		c-0.09,0.869-0.754,1.165-1.567,1.089c-1.143-0.108-1.775-0.807-1.681-1.907C86.691,70.112,87.423,69.845,88.373,69.884z"/>
	<path fill-rule="evenodd" clip-rule="evenodd" d="M84.161,44.85c-0.104,0.834-0.557,1.276-1.416,1.24
		c-1.084-0.045-1.839-0.519-1.904-1.674c-0.062-1.086,0.646-1.438,1.6-1.415C83.63,43.029,84.078,43.777,84.161,44.85z"/>
	<path fill-rule="evenodd" clip-rule="evenodd" d="M92.942,84.699c-0.237,0.788-0.79,1.178-1.578,1.062
		c-1.006-0.15-1.845-0.623-1.592-1.821c0.169-0.796,0.866-1.059,1.642-0.865C92.253,83.282,92.93,83.693,92.942,84.699z"/>
	<path fill-rule="evenodd" clip-rule="evenodd" d="M66.511,41.633c-0.055,0.938-0.645,1.294-1.403,1.296
		c-0.858,0.003-1.682-0.269-1.863-1.255c-0.156-0.855,0.389-1.318,1.179-1.412C65.494,40.135,66.207,40.628,66.511,41.633z"/>
	<path fill-rule="evenodd" clip-rule="evenodd" d="M66.627,32.451c-0.142,0.817-0.586,1.346-1.408,1.239
		c-1.021-0.133-1.765-0.728-1.664-1.846c0.077-0.87,0.809-1.053,1.561-0.949C66.016,31.02,66.616,31.479,66.627,32.451z"/>
	<path fill-rule="evenodd" clip-rule="evenodd" d="M60.893,61.909c-0.88-0.105-1.59-0.459-1.644-1.485
		c-0.045-0.856,0.438-1.325,1.278-1.342c0.962-0.019,1.599,0.439,1.67,1.444C62.258,61.396,61.729,61.798,60.893,61.909z"/>
	<path fill-rule="evenodd" clip-rule="evenodd" d="M54.272,18.847c-0.204,0.788-0.721,1.25-1.521,1.14
		c-1.061-0.147-1.737-0.8-1.565-1.92c0.132-0.859,0.883-1.021,1.635-0.912C53.773,17.291,54.224,17.91,54.272,18.847z"/>
	<path fill-rule="evenodd" clip-rule="evenodd" d="M113.198,92.608c-0.301,0.784-0.857,1.108-1.686,0.937
		c-0.805-0.167-1.355-0.636-1.188-1.48c0.157-0.786,0.755-1.204,1.605-1.024C112.759,91.216,113.032,91.878,113.198,92.608z"/>
	<path fill-rule="evenodd" clip-rule="evenodd" d="M105.463,96.749c0.856,0.132,1.527,0.562,1.535,1.549
		c0.008,0.837-0.533,1.289-1.354,1.247c-0.926-0.047-1.58-0.54-1.601-1.517C104.026,97.183,104.606,96.81,105.463,96.749z"/>
	<path fill-rule="evenodd" clip-rule="evenodd" d="M118.293,86.838c0.847,0.249,1.691,0.581,1.617,1.622
		c-0.062,0.854-0.774,1.16-1.562,1.104c-0.818-0.059-1.324-0.533-1.337-1.38C117,87.351,117.399,86.841,118.293,86.838z"/>
	<path fill-rule="evenodd" clip-rule="evenodd" d="M36.303,10.691c-0.034,0.898-0.509,1.332-1.35,1.333
		c-0.817,0.001-1.365-0.47-1.521-1.232c-0.168-0.825,0.283-1.463,1.099-1.496C35.42,9.261,36.092,9.767,36.303,10.691z"/>
	<path fill-rule="evenodd" clip-rule="evenodd" d="M83.853,72.943c-0.223,0.854-0.803,1.239-1.604,1.055
		c-0.887-0.205-1.523-0.735-1.299-1.792c0.149-0.709,0.685-0.947,1.334-0.879C83.243,71.429,83.783,71.981,83.853,72.943z"/>
	<path fill-rule="evenodd" clip-rule="evenodd" d="M85.349,77.801c0.065,1.132-0.323,1.565-0.975,1.632
		c-1.133,0.115-1.835-0.482-1.896-1.597c-0.037-0.693,0.591-1.036,1.198-1.046C84.594,76.775,85.233,77.239,85.349,77.801z"/>
	<path fill-rule="evenodd" clip-rule="evenodd" d="M43.692,25.763c-0.824-0.138-1.629-0.388-1.658-1.446
		c-0.021-0.689,0.494-1.125,1.105-1.173c0.942-0.074,1.614,0.409,1.679,1.411C44.865,25.257,44.327,25.564,43.692,25.763z"/>
	<path fill-rule="evenodd" clip-rule="evenodd" d="M41.101,21.291c-0.202,0.873-0.725,1.08-1.375,1.017
		c-0.805-0.078-1.376-0.475-1.288-1.368c0.071-0.731,0.635-0.972,1.29-0.93C40.59,20.065,40.867,20.721,41.101,21.291z"/>
	<path fill-rule="evenodd" clip-rule="evenodd" d="M101.828,78.818c-0.771,0.072-1.281-0.24-1.421-0.877
		c-0.187-0.852,0.284-1.387,1.13-1.414c0.64-0.021,1.126,0.34,1.172,1.058C102.753,78.271,102.423,78.696,101.828,78.818z"/>
	<path fill-rule="evenodd" clip-rule="evenodd" d="M85.044,110.268c2.128-0.053,3.947,1.6,4.024,3.656
		c0.071,1.828-1.412,3.527-3.189,3.657c-2.026,0.151-4.204-1.896-4.229-3.976C81.626,111.706,83.039,110.316,85.044,110.268z"/>
	<path fill-rule="evenodd" clip-rule="evenodd" d="M45.977,78.969c-0.272,1.508-1.265,2.546-3.026,2.667
		c-1.831,0.126-3.323-1.498-3.253-3.425c0.061-1.726,0.961-2.577,2.69-2.603C44.409,75.581,46.002,76.955,45.977,78.969z"/>
	<path fill-rule="evenodd" clip-rule="evenodd" d="M26.623,51.767c-1.985,0.029-3.603-1.616-3.487-3.238
		c0.122-1.695,1.095-2.553,2.801-2.513c1.917,0.044,2.802,1.37,2.917,2.967C28.968,50.579,27.81,51.494,26.623,51.767z"/>
	<path fill-rule="evenodd" clip-rule="evenodd" d="M43.408,60.596c-0.216,1.503-0.919,2.517-2.552,2.401
		c-1.693-0.12-2.605-1.147-2.604-2.824c0-1.478,1.032-2.147,2.344-2.179C42.287,57.953,43.213,58.934,43.408,60.596z"/>
	<path fill-rule="evenodd" clip-rule="evenodd" d="M9.926,34.557c1.497,0.157,2.434,0.953,2.478,2.528
		c0.046,1.638-0.973,2.546-2.467,2.452c-1.465-0.094-2.43-1.204-2.373-2.691C7.612,35.536,8.44,34.635,9.926,34.557z"/>
	<path fill-rule="evenodd" clip-rule="evenodd" d="M95.958,110.669c-1.492-0.118-2.458-0.776-2.465-2.215
		c-0.009-1.408,0.875-2.277,2.27-2.277c1.567-0.001,2.465,1.071,2.537,2.518C98.375,110.245,97.154,110.616,95.958,110.669z"/>
	<path fill-rule="evenodd" clip-rule="evenodd" d="M13.35,46.768c-1.3-0.181-2.382-0.733-2.424-2.183
		c-0.041-1.412,0.781-2.213,2.256-2.206c1.421,0.007,2.295,0.687,2.405,2.129C15.706,46.065,14.708,46.604,13.35,46.768z"/>
	<path fill-rule="evenodd" clip-rule="evenodd" d="M33.818,55.348c-1.354-0.121-2.191-0.893-2.343-2.239
		c-0.151-1.329,0.668-1.994,1.91-2.069c1.354-0.083,2.48,0.542,2.615,1.899C36.132,54.266,35.254,55.145,33.818,55.348z"/>
	<path fill-rule="evenodd" clip-rule="evenodd" d="M77.955,102.532c-1.56,0.005-2.478-0.832-2.497-2.329
		c-0.017-1.218,0.892-1.955,2.081-1.942c1.454,0.017,2.526,0.761,2.491,2.35C80.004,101.828,79.235,102.519,77.955,102.532z"/>
	<path fill-rule="evenodd" clip-rule="evenodd" d="M91.481,106.161c-0.164,1.456-0.973,2.189-2.407,2.103
		c-1.537-0.094-2.042-1.203-1.991-2.499c0.048-1.229,0.797-2.045,2.129-1.893C90.529,104.022,91.459,104.688,91.481,106.161z"/>
	<path fill-rule="evenodd" clip-rule="evenodd" d="M103.42,116.154c-0.947-0.013-1.928,0.122-2.835-0.08
		c-1.048-0.233-1.506-1.149-1.46-2.194c0.049-1.073,0.675-1.792,1.74-1.97c1.211-0.203,2.087,0.321,2.537,1.478
		c0.368,0.943,0.042,1.888-0.046,2.829L103.42,116.154z"/>
	<path fill-rule="evenodd" clip-rule="evenodd" d="M70.981,109.481c-0.138,1.002-0.891,1.663-2.115,1.572
		c-1.283-0.097-2.323-0.733-2.285-2.167c0.038-1.396,1.027-2.203,2.337-2.053C70.141,106.977,71.063,107.774,70.981,109.481z"/>
	<path fill-rule="evenodd" clip-rule="evenodd" d="M23.293,60.501c1.483-0.002,2.372,0.613,2.468,1.847
		c0.088,1.167-0.451,2.154-1.833,2.167c-1.227,0.011-2.049-0.616-2.232-1.878C21.496,61.266,22.31,60.703,23.293,60.501z"/>
	<path fill-rule="evenodd" clip-rule="evenodd" d="M17.043,54.214c-0.03,1.073-0.696,1.792-1.726,1.852
		c-1.304,0.077-2.379-0.486-2.419-2.013c-0.036-1.335,0.836-1.971,2.042-1.981C16.233,52.062,16.765,53.018,17.043,54.214z"/>
	<path fill-rule="evenodd" clip-rule="evenodd" d="M39.169,69.438c1.141,0.225,1.997,0.823,2.021,2.068
		c0.023,1.212-0.597,2.111-1.917,2.014c-1.158-0.086-2.026-0.824-2.109-2.023C37.076,70.209,37.965,69.631,39.169,69.438z"/>
	<path fill-rule="evenodd" clip-rule="evenodd" d="M36.849,35.922c0.204,0.194,0.405,0.389,0.609,0.583
		C37.254,36.311,37.053,36.116,36.849,35.922z"/>
</g>
</svg>
