<?xml version="1.0" encoding="utf-8"?>
<!-- Generator: Adobe Illustrator 16.0.4, SVG Export Plug-In . SVG Version: 6.00 Build 0)  -->
<!DOCTYPE svg PUBLIC "-//W3C//DTD SVG 1.1//EN" "http://www.w3.org/Graphics/SVG/1.1/DTD/svg11.dtd">
<svg version="1.1" id="Layer_0510" xmlns="http://www.w3.org/2000/svg" xmlns:xlink="http://www.w3.org/1999/xlink" x="0px" y="0px"
	 width="128px" height="128px" viewBox="0 0 128 128" enable-background="new 0 0 128 128" xml:space="preserve">
<path fill-rule="evenodd" clip-rule="evenodd" d="M127.916,57.474c0.236,7.633-1.271,15.769-3.571,23.819
	c-2.825,9.892-8.596,17.576-17.001,23.351c-9.179,6.307-19.27,10.397-30.338,11.705c-7.941,0.939-15.649-0.389-22.887-3.884
	c-2.409-1.164-4.839-1.89-7.524-1.822c-0.984,0.025-2.048-0.002-2.95-0.341c-6.842-2.566-14.256-3.67-20.437-7.951
	c-0.594-0.412-1.342-0.689-2.057-0.815c-1.723-0.305-2.489,0.634-2.026,2.383c0.127,0.48,0.361,0.932,0.479,1.414
	c0.409,1.656-0.706,3.009-2.358,2.621c-0.976-0.229-1.923-0.412-2.918-0.464c-2.405-0.128-4.473,0.326-5.526,2.843
	c-0.185,0.442-0.531,0.85-0.888,1.182c-1.767,1.637-2.962,1.531-4.16-0.597C0.399,104.956-0.79,98.56,0.679,91.856
	c1.104-5.038,6.591-9.697,11.896-9.905c10.312-0.406,20.627-0.271,30.84,1.518c3.444,0.604,6.676,1.94,9.929,3.183
	c2.552,0.975,5.097,1.854,7.887,2.103c5.905,0.527,10.298-3.126,12.536-8.207c4.848-11.013,2.353-20.938-5.478-29.621
	c-4.836-5.361-10.132-10.301-14.399-16.174c-2.356-3.244-4.292-6.704-5.809-10.406c-0.712-1.734-1.286-3.503-1.265-5.412
	c0.022-1.977,1.388-3.183,3.061-2.289c2.787,1.491,4.932,0.555,7.242-0.986c2.271-1.513,3.655-0.823,4.163,1.829
	c0.877,4.568,2.551,8.85,4.975,12.786c0.94,1.526,2.133,3.718,3.986,3.533c1.694-0.169,2.046-2.598,2.696-4.159
	c1.388-3.333,2.771-6.623,4.801-9.663c4.892-7.331,13.081-10.069,21.314-7.907c13.402,3.521,26.572,15.326,28.153,32.706
	C127.569,48.758,127.825,52.719,127.916,57.474z"/>
</svg>
