<?xml version="1.0" encoding="utf-8"?>
<!-- Generator: Adobe Illustrator 16.0.4, SVG Export Plug-In . SVG Version: 6.00 Build 0)  -->
<!DOCTYPE svg PUBLIC "-//W3C//DTD SVG 1.1//EN" "http://www.w3.org/Graphics/SVG/1.1/DTD/svg11.dtd">
<svg version="1.1" id="Layer_0511" xmlns="http://www.w3.org/2000/svg" xmlns:xlink="http://www.w3.org/1999/xlink" x="0px" y="0px"
	 width="128px" height="128px" viewBox="0 0 128 128" enable-background="new 0 0 128 128" xml:space="preserve">
<g>
	<polygon fill-rule="evenodd" clip-rule="evenodd" points="59.865,91.46 59.858,91.447 59.855,91.449 	"/>
	<polygon fill-rule="evenodd" clip-rule="evenodd" points="125.422,88.414 125.424,88.417 125.432,88.423 	"/>
	<polygon fill-rule="evenodd" clip-rule="evenodd" points="62.902,82.093 62.897,82.085 62.893,82.083 	"/>
	<path fill-rule="evenodd" clip-rule="evenodd" d="M127.928,94.006c-0.351-2.093-1.31-3.887-2.504-5.589
		c-0.017-0.011-0.03-0.024-0.046-0.036c-0.152-0.193-0.343-0.362-0.542-0.517c-0.036-0.048-0.081-0.087-0.114-0.141
		c-1.763-2.805-3.47-5.622-4.36-8.868c-0.487-1.769-1.037-3.538-2.024-5.122l0.004,0.003c-1.356-1.64-2.827-3.131-4.509-4.374
		c-0.09-0.085-0.185-0.167-0.268-0.251c-0.212-0.219-0.326-0.238-0.584-0.349c-0.032-0.022-0.066-0.041-0.1-0.062
		c-0.141-0.088-0.267-0.222-0.412-0.296c-0.073-0.039-0.137-0.06-0.202-0.08c-0.468-0.278-0.947-0.547-1.45-0.787
		c-1.411-0.672-1.371-0.747-1.107-2.239c0.2-1.134,0.22-2.293-0.099-3.383c-0.744-2.545-2.66-4.249-4.584-5.887
		c-0.823-0.7-1.612-0.358-1.91,0.682c-0.208,0.727-0.466,1.481-0.452,2.22c0.018,1.05-0.794,1.88-0.524,3.016
		c0.332,1.396,0.629,2.783,1.285,4.07c0.119,0.234,0.43,0.693,0.039,0.73c-1.36,0.129-2.164,1.276-3.354,1.677l0.007-0.008
		c-1.744,1.67-3.896,2.606-6.139,3.356c-0.264,0.089-0.543,0.138-0.824,0.163c-0.222-0.029-0.43-0.088-0.659-0.1
		c-0.307-0.018-0.447-0.087-0.729-0.212c-0.516-0.231-1.168-0.458-1.721-0.521c-0.184-0.021-0.36-0.062-0.536-0.108
		c-0.202-0.069-0.404-0.139-0.605-0.212c-0.704-0.297-1.365-0.73-2.037-1.062c-0.216-0.105-0.435-0.191-0.653-0.274
		c-0.01-0.007-0.021-0.013-0.03-0.019l0.009,0.008c-0.476-0.158-0.823-0.476-0.973-0.925c0.128-1.103,0.079-2.238-0.071-3.319
		c-0.104-0.743-0.238-1.473-0.367-2.205c-0.031-0.173-0.105-0.317-0.133-0.49c-0.022-0.151,0.034-0.31,0.013-0.46
		c-0.054-0.361-0.266-0.715-0.346-1.075c-0.014-0.061-0.021-0.123-0.034-0.184c-0.154-1.753-0.194-3.519-0.533-5.257
		c-0.025-0.121-0.014-0.255,0.01-0.378c0.419-2.108,0.003-4.18-0.315-6.245c-0.417-2.697-0.817-5.393-1.043-8.114
		c-0.09-1.086-0.254-2.16-0.451-3.229c-0.023-0.633-0.17-1.249-0.355-1.854c-0.05-0.163-0.089-0.326-0.122-0.491
		c-0.002-0.008-0.004-0.016-0.006-0.024c-0.072-0.359-0.132-0.718-0.238-1.067c-0.021-0.089-0.039-0.178-0.06-0.267
		c-0.451-1.996-1.51-3.724-2.579-5.436l0.01,0.009c-1.008-1.34-1.954-2.727-3.099-3.963c-0.627-0.677-1.241-1.38-1.76-2.141
		c-1.284-1.886-2.684-3.659-4.519-5.046l0.011,0.01c-2.219-1.371-4.427-2.759-6.756-3.941c-2.939-1.491-6.527-1.254-8.573,0.886
		c-0.275,0.288-0.567,0.548-0.868,0.797c-0.318,0.191-0.647,0.343-0.959,0.571c-0.351,0.258-0.71,0.438-1.081,0.647
		c-0.339,0.19-0.595,0.454-0.882,0.707c-0.023,0.021-0.053,0.041-0.078,0.062c-0.232,0.159-0.461,0.327-0.68,0.504
		c-0.15,0.098-0.303,0.198-0.456,0.27c-0.317,0.15-0.564,0.384-0.871,0.544c-0.272,0.142-0.542,0.28-0.812,0.419
		c-1.516,0.625-2.919,1.476-4.32,2.331l0.01-0.01c-1.246,1.419-2.933,2.245-4.445,3.305c-0.359,0.252-0.678,0.083-0.833-0.262
		c-0.586-1.3-1.741-1.496-2.953-1.525c-1.276-0.031-2.515-0.257-3.735-0.601c-0.536-0.151-1.072-0.242-1.622-0.185
		c-0.521,0.054-1.043,0.221-1.255,0.729c-0.941,2.26-2.48,4.201-3.416,6.458c-0.276,0.669-0.606,1.126-1.388,1.281
		c-1.376,0.271-2.583,0.818-3.438,2.075c-0.97,1.423-2.36,2.397-3.986,2.992c-2.673,0.978-5.469,1.415-8.284,1.589
		c-0.511,0.032-0.927,0.152-1.298,0.333c-0.075,0.018-0.149,0.037-0.229,0.045c-0.009,0.031-0.016,0.059-0.026,0.089
		c-0.362,0.225-0.678,0.52-0.969,0.903c-0.177,0.233-0.294,0.539-0.616,0.602c-1.884,0.368-2.854,1.828-3.838,3.244
		c-0.55,0.792-0.377,1.09,0.587,1.192c0.28,0.03,0.497-0.084,0.643,0.353c0.333,0.994,0.611,1.125,1.565,0.727
		c1.194-0.499,2.409-1.001,3.499-1.686c2.807-1.765,5.864-2.924,8.974-3.993c1.228-0.421,2.522-0.558,3.548-1.442
		c0.969-0.835,2.111-1.466,3.111-2.036c0-0.002,0-0.005,0-0.008l0.075,0.005c-0.002,0.001,0.031,0.002,0.029,0.003
		c-0.02,0.538-0.156,1.152,0.442,1.469c1.405,0.745,2.755,0.104,3.162-1.464c0.063-0.245,0.155-0.489,0.173-0.737
		c0.063-0.833,0.548-1.015,1.294-0.953c0.98,0.08,1.946-0.033,2.904-0.203c0.383,0.038,0.754,0.118,1.147,0.12
		c0.411,0.002,0.684-0.142,1.073-0.22c0.442-0.088,0.882-0.122,1.327-0.238c0.901-0.235,1.809-0.245,2.719-0.429
		c0.049-0.01-0.468-0.022-0.419-0.032c0.257,0.019,0.073,0.032,0.073,0.039c0,0.001,0,0.002,0,0.002
		c0,0.002,0.797,0.059,0.908,0.129c0.536,0.586,1.364,1.165,1.906,1.746l0.156,0.016c0.178,0.121,0.428,0.237,0.607,0.355
		c0.022,0.026,0.077,0.052,0.102,0.078c0.078,0.079,0.133,0.088,0.22,0.142c0.195,0.119,0.289,0.145,0.457,0.35
		c0.13,0.161,0.238,0.297,0.418,0.391c0.454,0.241,0.913,0.495,1.361,0.735c0.374,0.201,0.717,0.538,1.091,0.766
		c0.053,0.032,0.098,0.071,0.15,0.105c0.45,0.353,0.887,0.723,1.304,1.123l-0.009-0.008c0.051,0.019,0.102,0.04,0.151,0.058
		c0.312,0.303,0.567,0.595,0.991,0.775c0.343,0.146,0.797,0.386,1.063,0.644c0.303,0.294,0.154,1.039,0.154,1.446
		c0,0.243-0.004,0.486-0.001,0.729c0.005,0.293-0.125,0.44-0.121,0.733c0.004,0.296-0.002,0.591-0.001,0.887
		c0.001,0.332-0.464,0.521-0.522,0.828c-0.106,0.557-0.387,1.272-0.387,1.84c0,0.007,0,0.017,0,0.023
		c0,0.295,0.355,0.589,0.335,0.884c-0.03,0.062,0.138,0.123,0.126,0.196c-0.021,0.12,0.131,0.249,0.11,0.368
		c-0.048,0.279-0.082,0.46-0.079,0.759c0.004,0.43-0.084,0.792-0.102,1.208c-0.023,0.558,0.015,1.123,0.015,1.681
		c0,0.588-0.043,1.187,0.103,1.743c0.054,0.206-0.012,0.407,0.024,0.612c0.041,0.234,0.164,0.473,0.222,0.708
		c0.073,0.294,0.154,0.576,0.235,0.862c0.096,0.583,0.205,1.165,0.354,1.744c0.076,0.295,0.134,0.594,0.2,0.89
		c0.02,0.108,0.045,0.202,0.074,0.326c0.04,0.17-0.013,0.336,0.02,0.5c0.1,0.475,0.208,0.951,0.252,1.438
		c0.02,0.229,0.105,0.41,0.125,0.639c0.026,0.294,0.06,0.574,0.149,0.864c0.076,0.25,0.052,0.481,0.12,0.735
		c0.064,0.244-0.253,0.484-0.19,0.729c0.117,0.446-0.095,0.852-0.095,1.321c0,0.15,0,0.301,0,0.452c0,0.22,0.188,0.436,0.1,0.648
		c-0.012,0.01,0.137,0.015,0.124,0.026c-0.166,0.138-0.143,0.281-0.256,0.492c-0.152,0.284-0.359,0.396-0.579,0.616
		c-0.012,0.031-0.024,0.039-0.044,0.061c-1.213,0.789-2.488,1.447-3.749,2.15c-1.895,1.056-3.497,2.34-4.714,4.237
		c-0.696,1.084-1.42,2.16-2.266,3.147c-0.041,0.024-0.083,0.046-0.121,0.076c-0.378,0.296-0.831,0.726-1.134,1.112
		c-0.149,0.191-0.324,0.359-0.498,0.527c-0.156,0.126-0.311,0.254-0.476,0.372c-0.851,0.61-1.62,1.439-2.262,2.347
		c-1.045,1.477-2.253,2.814-3.908,3.653l0.007-0.007c-0.42,0.275-0.851,0.534-1.255,0.829c-3.711,2.693-7.668,4.94-11.938,6.622
		c-0.371,0.146-0.719,0.311-0.875,0.661c-0.383,0.862-1.087,1.481-1.606,2.236l-0.059,0.061c-0.102,0.104-0.216,0.182-0.328,0.264
		c-0.058,0.031-0.122,0.056-0.172,0.096c-0.041,0.033-0.071,0.063-0.104,0.093c-0.5,0.284-1.065,0.42-1.64,0.536l0.008-0.007
		c-0.091,0.087-0.182,0.084-0.273-0.001l0.01,0.01c-1.052,0.173-1.452,0.565-1.524,1.748c-0.061,0.996-0.354,1.878-0.863,2.725
		c-0.419,0.694-0.324,1.556,0.18,1.957c0.613,0.487,1.111,0.053,1.587-0.271c1.233-0.84,2.565-1.491,3.915-2.116l-0.007,0.007
		c0.997-0.721,2.312-0.808,3.268-1.568c1.775-1.415,4.027-2.017,5.77-3.51c0.632-0.54,1.398-0.873,1.665-1.754
		c0.096-0.318,0.288-0.597,0.658-0.704c0.744-0.216,1.28-0.781,1.919-1.173c0.953-0.584,1.815-1.329,2.912-1.663
		c0.004-0.004,0.009-0.009,0.013-0.013c0.007-0.002,0.015-0.006,0.023-0.008c0.84-0.791,1.929-1.208,2.844-1.888
		c0.066-0.018,0.13-0.023,0.198-0.052c0.212-0.092,0.418-0.209,0.64-0.304c0.639-0.271,0.999-0.886,1.597-1.232
		c0.659-0.38,1.316-0.723,1.956-1.129c0.306-0.195,0.631-0.367,0.95-0.546c0.114-0.04,0.222-0.093,0.336-0.131
		c2.361-0.787,4.392-2.113,6.223-3.773c0.215-0.195,0.449-0.37,0.675-0.556c0.36-0.591,0.898-1.003,1.468-1.355
		c0.934-0.578,1.804-1.24,2.653-1.932c0.471-0.381,0.841-0.383,1.01,0.272c0.574,2.216,1.87,4.025,3.229,5.802
		c0.897,0.669,1.478,1.601,2.083,2.509c0.297,0.448,0.247,0.78-0.356,0.904c-2.147,0.442-4.181,1.32-6.312,1.777
		c-1.259,0.27-2.53,0.954-3.806,1.044c-0.149-0.033-0.301,0.416-0.435,0.416c-0.488,0-0.976,0-1.464,0
		c-0.128,0-0.256-0.445-0.384-0.41c-0.804-0.055-1.609-0.41-2.414-0.619c-0.87-0.226-1.772-0.382-2.636-0.209
		c-1.511,0.305-3.01,0.128-4.515-0.004c-0.502-0.044-0.903,0.099-1.301,0.353c-0.704,0.45-1.432,0.84-2.24,1.077
		c-0.005,0.005-0.012,0.001-0.018,0.006c-0.006,0.002-0.012,0.002-0.018,0.004c-0.365,0.397-0.774,0.759-1.081,1.196
		c-0.448,0.642-1.104,1.33-0.6,2.16c0.438,0.725,1.288,0.438,1.98,0.44c0.668,0,1.317-0.331,1.999-0.152
		c2.384,0.628,4.801,0.737,7.24,0.437c2.623-0.322,5.287-0.465,7.708-1.706c0.303-0.155,0.62-0.237,0.972-0.219
		c0.385,0.021,0.771,0.043,1.157,0.063c0.029,0.003,0.061,0.004,0.089,0.006c2.953,0.157,5.899,0.219,8.787-0.628
		c0.021-0.003,0.044-0.001,0.065-0.006c0.035-0.008,0.069-0.025,0.105-0.043c0.063-0.02,0.127-0.034,0.19-0.056
		c0.11-0.01,0.235,0.004,0.344,0.004c0.118,0,0.255-0.02,0.371-0.004c0.117,0.016,0.186,0.081,0.27,0.099
		c0.066,0.015,0.148,0.018,0.225,0.025c0.024,0.041,0.048,0.081,0.068,0.133c0.068-0.03,0.128-0.076,0.188-0.123
		c0.113-0.002,0.228-0.007,0.321-0.036c0.258-0.076,0.533-0.259,0.713-0.48c1.338-0.248,1.893-1.443,2.553-2.407
		c0.778-1.137,1.068-2.459,0.272-3.782l0.007,0.007c-0.773-0.904-1.342-1.929-1.767-3.037c-0.003,0-0.007-0.002-0.01-0.002
		l0.006-0.005c0.001,0.001,0.003,0.005,0.004,0.007c0.31,0.076,0.584,0.204,0.752,0.497c0.997,0.456,2.006,0.877,3.023,1.278
		c0.077,0.04,0.156,0.071,0.233,0.116c0.231,0.133,0.488,0.209,0.735,0.334c0.438,0.222,0.879,0.474,1.333,0.655
		c0.196,0.079,0.398,0.129,0.596,0.199c0.288,0.104,0.5,0.27,0.771,0.406c0.647,0.33,1.311,0.12,1.953,0.394
		c0.785,0.333,1.628,0.224,2.443,0.425c1.644,0.406,3.206,0.817,4.907,0.771c0.399-0.01,0.779-0.188,1.172-0.28
		c0.039-0.01,0.078-0.012,0.117-0.02c1.658-0.215,3.322-0.313,4.976-0.502c2.17-0.247,4.188,0.167,6.187,0.873
		c0.805,0.284,1.605,0.472,2.466,0.475c2.24,0.008,4.452-0.112,6.658-0.595c1.692-0.367,3.455-0.583,4.686,1.148
		c0.069,0.098,0.203,0.149,0.299,0.229c2.835,2.359,6.395,3.337,9.581,5.023c0.072,0.039,0.169,0.027,0.245,0.06
		c1.192,0.527,2.432,1.027,3.314,2.009c0.959,1.065,2.127,1.79,3.375,2.403c1.794,0.88,3.558,0.301,5.027-0.644
		C127.739,96.363,128.121,95.164,127.928,94.006z M17.937,91.867c0.412-0.177,0.822-0.36,1.228-0.552
		c-0.135,0.104-0.27,0.208-0.424,0.282c-0.237,0.115-0.486,0.134-0.735,0.242C17.983,91.852,17.96,91.857,17.937,91.867z
		 M29.33,28.58c0.011-0.218,0.266-0.424,0.528-0.441c0.28-0.018,0.771,0.051,0.755,0.225c-0.048,0.518-0.617,0.059-0.815,0.361
		C29.611,28.626,29.311,28.982,29.33,28.58z M35.904,23.476c0.118,0.033,0.223,0.083,0.324,0.138
		C36.122,23.563,36.013,23.517,35.904,23.476z M53.319,80.998c0.053,0.085,0.11,0.17,0.165,0.255
		c-0.178-0.233-0.345-0.472-0.508-0.713C53.098,80.674,53.21,80.817,53.319,80.998z M103.544,58.823
		c0.016,0.033,0.047,0.067,0.045,0.099c-0.004,0.03-0.042,0.056-0.066,0.083C103.452,58.932,103.46,58.872,103.544,58.823z
		 M39.601,24.618l0.007,0.006c-0.004,0.001-0.006,0.003-0.009,0.004c-0.012,0.027-0.016,0.056-0.021,0.084
		c-0.163,0.077-0.326,0.145-0.498,0.203c0.153-0.125,0.324-0.226,0.52-0.287C39.6,24.625,39.6,24.622,39.601,24.618z M19.864,36.016
		c-0.093,0.046-0.187,0.092-0.281,0.139c0.004-0.005,0.01-0.01,0.015-0.014c0.087-0.044,0.173-0.087,0.26-0.131
		c0.003-0.001,0.003-0.003,0.005-0.004c0-0.04-0.007-0.073-0.011-0.11c0.075-0.07,0.166-0.125,0.245-0.189
		c-0.034,0.117-0.1,0.222-0.234,0.3C19.863,36.009,19.864,36.013,19.864,36.016z M22.761,34.206
		c-0.025,0.013-0.055,0.016-0.084,0.022c-0.01,0.005-0.019,0.011-0.028,0.017c-0.17,0.083-0.338,0.167-0.508,0.251
		c-0.085,0.084-0.171,0.167-0.256,0.252l-0.002-0.002c0.084-0.085,0.168-0.17,0.252-0.255c0.169-0.084,0.338-0.168,0.507-0.253
		c0.012-0.003,0.023-0.007,0.035-0.009c0.052-0.029,0.102-0.058,0.152-0.088C22.807,34.163,22.788,34.193,22.761,34.206z
		 M12.428,99.854c0.071-0.042,0.148-0.079,0.225-0.114c-0.016,0.011-0.032,0.019-0.047,0.028
		C12.554,99.802,12.491,99.832,12.428,99.854z M29.573,88.902c0.214-0.26,0.422-0.327,0.711-0.421
		C30.047,88.623,29.811,88.766,29.573,88.902z M49.393,75.846c-0.052,0.057-0.105,0.113-0.157,0.169
		c-0.161,0.079-0.321,0.155-0.48,0.234c-0.012,0.005-0.024,0.011-0.035,0.017c-0.083,0.087-0.168,0.173-0.251,0.259
		c-0.084,0.084-0.169,0.169-0.253,0.253c-0.007,0.002-0.015,0.004-0.023,0.007c-0.249,0.281-0.544,0.499-0.873,0.666
		c0.156-0.184,0.319-0.362,0.479-0.544c0.128-0.046,0.261-0.087,0.395-0.122c0.004-0.006,0.011-0.01,0.016-0.015
		c0.084-0.085,0.168-0.168,0.253-0.253c0.086-0.084,0.172-0.167,0.259-0.251c0.011-0.006,0.023-0.012,0.035-0.017
		c0.156-0.082,0.312-0.163,0.469-0.244C49.28,75.951,49.337,75.898,49.393,75.846c0.027-0.028,0.054,0.314,0.082,0.285
		c0.007,0,0.01,0.369,0.018,0.369c0.002,0,0.003,0,0.005,0c-0.005,0-0.01-0.368-0.015-0.365
		C49.453,76.162,49.423,75.817,49.393,75.846z M36.331,89.048c-0.598,0.172-1.194,0.434-1.813,0.422
		c-0.272-0.006-0.481,0.077-0.724,0.11C34.27,89.022,34.867,89.004,36.331,89.048z M33.086,92.911
		c0.08-0.003,0.161-0.009,0.233-0.005c0.15,0.008,0.293,0.036,0.436,0.074c-0.092-0.008-0.184-0.016-0.276-0.022
		C33.327,92.944,33.2,92.929,33.086,92.911z"/>
	<polygon fill-rule="evenodd" clip-rule="evenodd" points="53.787,82.852 53.786,82.85 53.779,82.844 	"/>
	<polygon fill-rule="evenodd" clip-rule="evenodd" points="45.431,80.057 45.425,80.062 45.422,80.066 	"/>
</g>
</svg>
