<?xml version="1.0" encoding="utf-8"?>
<!-- Generator: Adobe Illustrator 16.0.4, SVG Export Plug-In . SVG Version: 6.00 Build 0)  -->
<!DOCTYPE svg PUBLIC "-//W3C//DTD SVG 1.1//EN" "http://www.w3.org/Graphics/SVG/1.1/DTD/svg11.dtd">
<svg version="1.1" id="Layer_0603" xmlns="http://www.w3.org/2000/svg" xmlns:xlink="http://www.w3.org/1999/xlink" x="0px" y="0px"
	 width="128px" height="128px" viewBox="0 0 128 128" enable-background="new 0 0 128 128" xml:space="preserve">
<g>
	<path fill-rule="evenodd" clip-rule="evenodd" d="M66.783,46.207c-0.735,1.613-0.921,3.349-1.276,5.062
		c-0.388,1.877-0.056,3.779-0.521,5.623c-0.094,0.376,0.127,0.571,0.514,0.543c0.059-0.005,0.115-0.079,0.171-0.076
		c0.731,0.029,1.301-0.865,2.11-0.365c-0.47,0.509-0.939,1.021-1.414,1.527c-0.303,0.325-0.589,0.673-0.93,0.954
		c-0.486,0.401-0.589,0.901-0.647,1.502c-0.245,2.58-0.395,5.161-0.396,7.753c0,0.74-0.246,1.478-0.301,2.222
		c-0.055,0.729,0.079,0.804,0.725,0.555c0.294-0.114,0.564-0.295,0.863-0.382c0.254-0.075,0.294,0.156,0.249,0.33
		c-0.108,0.44-0.696,0.56-0.738,1.055c-0.238,0.022-0.351,0.164-0.376,0.391c-0.084,0.077-0.421-0.039-0.203,0.267
		c0.061-0.096,0.119-0.192,0.178-0.289c0.213-0.042,0.384-0.125,0.39-0.378c0.127,0.002,0.272,0.048,0.379,0.002
		c2.056-0.897,3.795-0.156,5.448,1.036c0.205,0.147,0.388,0.326,0.595,0.47c1.051,0.726,1.09,1.067,0.1,1.732
		c-1.876,1.26-3.881,1.366-5.956,0.54c-0.233-0.092-0.446-0.235-0.678-0.333c-0.309-0.13-0.645-0.616-0.946-0.109
		c-0.189,0.319-0.004,0.694,0.236,1.044c0.87,1.267,2.01,2.283,3.046,3.395c0.262,0.278,0.551,0.534,0.771,0.841
		c0.095,0.132,0.063,0.404-0.157,0.473c-1.032,0.323-2.085,0.37-3.083-0.063c-0.306-0.132-0.481-0.557-0.717-0.849
		c-0.301,0.396-0.149,0.854-0.151,1.281c-0.01,2.484,0.036,4.97-0.006,7.453c-0.014,0.783,0.226,1.493,0.386,2.226
		c0.08,0.377,0.382,0.648,0.803,0.709c0.125,0.019,0.27,0.051,0.378,0.007c0.28-0.115,0.129-0.309,0.002-0.41
		c-0.574-0.46-0.76-1.115-1.026-1.763c-0.447-1.087-0.13-1.987,0.5-2.822c0.282-0.374,0.595-0.974,1.095-0.862
		c0.253,0.056,0.37,0.74,0.544,1.143c0.049,0.114,0.065,0.332,0.117,0.338c0.225,0.026,0.219-0.198,0.276-0.34
		c0.234-0.581,0.441-1.174,0.693-1.748c0.201-0.461,0.56-0.524,0.842-0.141c1,1.367,1.182,2.209,0.052,3.59
		c-0.761,0.929-1.021,1.665-0.303,2.642c0.245,0.334,0.189,0.727,0.255,1.098c0.02,0.111,0.097,0.214,0.147,0.32
		c0.046-0.115,0.125-0.229,0.131-0.348c0.094-1.636,0.668-3.187,0.852-4.817c0.151-1.353,0.686-2.657,0.971-4
		c0.748-3.491,1.606-6.953,2.804-10.318c0.301-0.851,0.26-1.551-0.256-2.271c-0.322-0.453-0.585-0.951-0.875-1.429l0.003-0.004
		c0.127-0.009,0.255-0.012,0.381-0.026c0.592-0.07,1.147,0.727,1.595,0.342c0.487-0.419,0.843-1.131,0.996-1.776
		c0.426-1.798,1.408-3.36,2.028-5.073c0.233-0.643,0.422-1.142,0.024-1.769c-0.153-0.241-0.044-0.633-0.136-0.933
		c-0.125-0.41-0.601-0.911-0.211-1.205c0.443-0.334,0.649,0.361,0.935,0.611c0.477,0.419,0.854,0.281,1.081-0.173
		c0.822-1.637,1.646-3.267,2.756-4.738c0.25-0.33,0.034-0.676-0.207-1.023c-1.308-1.879-2.08-4.026-2.265-6.253
		c-0.102-1.224,0.131-2.615,0.977-3.762c0.746-1.01,1.404-2.101,1.635-3.38c0.04-0.225,0.211-0.327,1.064-0.845
		c0.16-0.098,0.304-0.233,0.427-0.376c1.625-1.892,3.688-3.269,5.657-4.743c1.718-1.286,2.915-2.958,3.848-4.823
		c0.305-0.609,0.432-0.441,0.706-0.106c0.115,0.141,0.144,0.35,0.239,0.511c0.207,0.345,0.369,0.595,0.826,0.169
		c0.896-0.835,0.93-0.798,1.791-0.14c0.051,0.038,0.096,0.086,0.137,0.134c0.496,0.587,1.26,0.137,1.786,0.439
		c0.503,0.291,0.37,1.22,1.146,1.331c0.673,0.096,1.166,0.346,1.216,1.131c0.009,0.141,0.23,0.288,0.38,0.396
		c1.006,0.736,1.084,0.793,0.396,1.657c-0.878,1.103-1.116,2.392-1.259,3.694c-0.225,2.063-0.631,4.083-1.086,6.103
		c-0.551,2.439-1.617,4.607-3.215,6.518c-0.607,0.727-1.208,1.466-1.825,2.178c-1.426,1.646-3.367,2.364-5.503,2.58
		c-0.681,0.069-1.343-0.03-2.035,0.306c-1.023,0.496-1.627-0.363-2.213-1.028c-0.356-0.407-0.629-0.33-0.873,0.08
		c-1.438,2.427-2.891,4.839-3.992,7.458c-0.533,1.268-1.141,2.498-1.474,3.834c-0.084,0.335-0.606,0.69-0.189,0.981
		c0.192,0.135,0.729-0.082,1.031-0.268c1.424-0.873,3.106-1.182,4.389-2.456c0.986-0.981,2.385-1.61,3.994-1.33
		c0.641,0.111,1.23,0.267,1.779,0.57c1.256,0.694,2.232,1.831,3.676,2.252c0.382,0.111,0.193,0.521-0.048,0.77
		c-0.857,0.883-1.913,1.601-3.082,1.732c-2.325,0.262-4.707,0.412-6.686-1.302c-0.284-0.244-0.636-0.407-0.931-0.64
		c-0.213-0.166-0.502-0.362-0.666-0.169c-0.603,0.704-1.644,0.627-2.235,1.365c-0.476,0.591-1.064,1.095-1.629,1.608
		c-0.675,0.614-1.134,1.318-1.339,2.233c-0.232,1.035-0.599,2.041-0.906,3.059c-0.165,0.541,0.109,0.979,0.638,1.017
		c0.059,0.004,0.126,0.031,0.174,0.012c0.646-0.263,1.294-0.469,1.959-0.06c-0.369,0.644-1.059,0.976-1.644,1.224
		c-2.051,0.87-2.565,2.652-2.798,4.526c-0.225,1.816-0.738,3.555-1.118,5.327c-0.137,0.636,0.072,0.924,0.607,1.147
		c0.635,0.265,1.219,0.22,1.819-0.11c0.209-0.115,0.587-0.167,0.699,0.061c0.182,0.366-0.222,0.496-0.457,0.647
		c-0.796,0.512-1.6,0.997-2.337,1.605c-0.526,0.433-0.929,0.802-0.827,1.533c0.078,0.565-0.706,1.252-0.229,1.562
		c0.386,0.249,0.959-0.528,1.468-0.817c2.661-1.519,4.511-0.966,7.011,0.732c0.625,0.425,1.181,0.954,1.815,1.363
		c1.154,0.745,1.15,0.703,0.147,1.624c-0.531,0.487-1.233,0.64-1.792,1.046c-0.308,0.225-0.871-0.009-0.959,0.391
		c-0.069,0.323,0.167,0.717,0.285,1.075c0.077,0.237,0.225,0.458,0.272,0.7c0.135,0.678-0.117,1.395,0.188,2.061
		c0.654-0.22,1.257-0.541,1.943-0.717c0.937-0.239,1.844-0.407,2.801-0.294c0.419,0.048,0.59,0.398,0.427,0.669
		c-0.864,1.424-0.713,3.178-1.599,4.611c-0.535,0.869-1.118,1.621-1.907,2.264c-0.783,0.638-1.619,0.939-2.619,0.896
		c-1.646-0.071-3.285-0.021-4.865,0.522c-0.236,0.081-0.447,0.23-0.67,0.348c0.181,0.13,0.37,0.248,0.537,0.391
		c1.432,1.219,2.428,2.662,2.795,4.573c0.234,1.217,0.751,2.388,1.225,3.547c0.209,0.51-0.04,0.547-0.374,0.56
		c-2.715,0.104-3.177-1.136-3.566-3.638c-0.153-0.994,0.004-2.035-0.04-3.052c-0.02-0.464,0.247-1.05-0.383-1.351
		c-0.659-0.313-1.291-0.756-2.085-0.476c-0.471,0.166-0.944,0.324-1.412,0.499c-0.468,0.176-0.714,0.509-0.678,1.024
		c0.006,0.063-0.002,0.128,0.001,0.191c0.136,2.795-0.524,5.55-0.402,8.35c0.043,0.978-0.03,1.082-1.035,1.063
		c-0.893-0.016-0.877,0.427-0.873,1.059c0.006,0.744,0.182,1.492-0.278,2.224c-0.38,0.602-0.765,1.467-1.356,1.472
		c-0.637,0.006-0.396-1.022-0.545-1.54c-0.481-1.68-0.833-3.423-0.876-5.183c-0.018-0.726-0.359-1.328-0.447-2.023
		c-0.295-2.311-0.661-4.612-0.729-6.944c-0.035-1.136-0.705-1.861-1.479-2.542c-0.069-0.06-0.26-0.093-0.295-0.053
		c-0.071,0.085-0.104,0.225-0.107,0.344c-0.01,0.573-0.004,1.146-0.006,1.72c-0.002,5.352-0.004,10.702-0.01,16.055
		c0,0.235,0.073,0.541-0.193,0.645c-0.102,0.04-0.3-0.196-0.468-0.282c-0.819-0.42-1.184-1.285-1.832-1.876
		c-0.36-0.327-0.185-0.849-0.187-1.282c-0.01-2.166-0.029-4.333,0.021-6.498c0.02-0.828-0.149-1.517-0.838-1.998
		c-0.791-0.553-0.975-1.644-1.884-2.085c-0.075-0.035-0.109-0.153-0.161-0.232c0.113-0.04,0.232-0.122,0.344-0.114
		c0.625,0.051,1.172,0.437,1.838,0.38c0.47-0.039,0.685-0.198,0.681-0.682c-0.019-1.655-0.007-3.312-0.039-4.969
		c-0.007-0.461-0.341-0.49-0.656-0.282c-0.897,0.591-1.391,1.485-1.51,2.508c-0.23,1.978-1.439,2.854-3.198,3.515
		c-2.051,0.769-4.022,0.909-6.094,0.297c-1.019-0.301-1.285-0.569-1.096-1.608c0.19-1.049,0.47-2.089,1.229-2.92
		c0.433-0.475,0.327-0.729-0.336-0.855c-1.572-0.298-2.972-0.953-4.079-2.154c-0.206-0.225-0.288-0.461,0.011-0.608
		c1.331-0.651,2.147-1.951,3.426-2.673c0.771-0.436,1.505-1.028,2.4-1.03c0.736-0.001,0.859-0.492,1-0.923
		c0.51-1.545,0.913-3.126,1.422-4.672c0.415-1.256,0.928-2.467,2.222-3.13c0.255-0.132,0.616-0.502,0.574-0.681
		c-0.088-0.382-0.553-0.403-0.911-0.543c-1.164-0.45-2.361-0.368-3.558-0.374c-2.868-0.012-4.852-1.506-5.764-4.259
		c-0.374-1.129-0.552-2.315-1.064-3.406c-0.183-0.389,0.018-0.732,0.531-0.77c1.28-0.094,2.523,0.035,3.694,0.595
		c0.469,0.224,0.618,0.069,0.763-0.423c0.282-0.956,0.345-1.979,0.898-2.863c0.474-0.755,0.698-0.921,1.504-0.684
		c1.163,0.342,2.199,0.94,3.052,1.799c0.458,0.46,0.507,0.161,0.724-0.21c0.633-1.087,1.353-2.123,1.997-3.206
		c0.32-0.535,0.687-1.084,0.53-1.772c-0.029-0.121-0.073-0.238-0.111-0.356c-0.102,0.068-0.218,0.124-0.307,0.209
		c-0.37,0.35-0.727,0.716-1.099,1.062c-1.836,1.712-5.606,1.745-7.28,0.492c-0.345-0.258-0.381-0.544-0.084-0.754
		c1.075-0.763,1.771-1.935,2.836-2.671c0.924-0.639,2.056-0.998,3.176-0.658c0.57,0.173,1.28,0.17,1.708,0.749
		c0.155,0.21,0.407,0.331,0.654,0.149c0.24-0.177,0.137-0.47,0.144-0.715c0.017-0.61-0.409-0.825-0.877-1.099
		c-0.919-0.538-1.776-1.181-2.65-1.793c-0.083-0.059-0.17-0.246-0.135-0.304c0.052-0.088,0.201-0.132,0.319-0.162
		c0.48-0.123,0.799,0.324,1.256,0.357c0.987,0.072,1.458-0.305,1.309-1.322c-0.257-1.734-0.559-3.467-0.966-5.169
		c-0.144-0.6-0.45-1.318-0.419-1.805c0.096-1.461-0.864-1.988-1.787-2.626c-0.669-0.464-1.366-0.89-2.036-1.354
		c-0.193-0.134-0.094-0.356,0.017-0.5c0.061-0.081,0.241-0.156,0.321-0.122c0.466,0.191,0.908,0.444,1.377,0.618
		c0.514,0.19,0.867-0.083,0.85-0.653c-0.033-1.208-0.495-2.323-0.823-3.465c-0.699-2.437-2.59-3.779-4.641-4.95
		c-0.718-0.409-1.288-0.324-1.976,0.318c-2.328,2.174-7.266,2.352-9.718-0.118c-0.213-0.214-0.573-0.473-0.117-0.73
		c1.212-0.68,2.166-1.721,3.427-2.342c2.18-1.075,4.62-0.89,6.264,0.887c1.399,1.51,3.344,1.675,5.011,2.502
		c0.348,0.173,0.193-0.292,0.125-0.466c-0.583-1.511-1.078-3.067-1.796-4.513c-1.227-2.472-2.59-4.877-3.908-7.302
		c-0.229-0.419-0.526-0.499-0.867-0.072c-0.198,0.248-0.458,0.442-0.666,0.684c-0.436,0.512-1.038,0.627-1.547,0.34
		c-0.678-0.385-1.359-0.272-2.043-0.28c-2.012-0.025-3.747-0.901-5.081-2.218c-1.771-1.75-3.481-3.642-4.466-5.995
		c-0.848-2.023-1.508-4.098-1.694-6.33c-0.197-2.373-0.499-4.751-1.826-6.854c-0.511-0.81-0.446-0.861,0.356-1.357
		c0.375-0.232,0.741-0.41,0.771-0.959c0.021-0.401,0.388-0.632,0.768-0.75c0.178-0.057,0.382-0.037,0.556-0.1
		c0.658-0.238,0.501-1.186,1.196-1.398c0.538-0.165,1.212,0.188,1.64-0.292c0.669-0.752,1.132-0.489,1.704,0.125
		c0.489,0.526,0.725,0.475,0.935-0.34c0.184-0.723,0.395-0.725,0.756-0.211c0.395,0.565,0.694,1.197,1.047,1.792
		c1.096,1.841,2.803,3.08,4.441,4.354c1.449,1.129,2.91,2.227,4.199,3.542c0.2,0.203,0.443,0.76,0.764,0.035
		c0.125-0.282,0.305-0.029,0.321,0.126c0.146,1.417,0.786,2.639,1.567,3.778c1.282,1.864,1.802,3.886,1.094,6.042
		c-0.561,1.706-1.061,3.479-2.283,4.891c-0.18,0.206-0.253,0.348-0.06,0.625c1.151,1.649,2.166,3.378,2.958,5.233
		c0.134,0.315,0.409,0.464,0.719,0.099c0.246-0.291,0.515-0.566,0.794-0.824c0.123-0.113,0.34-0.269,0.441-0.227
		c0.213,0.086,0.165,0.353,0.053,0.489c-0.477,0.577-0.298,1.332-0.569,1.987c-0.24,0.582-0.227,1.355,0.123,2.035
		c0.923,1.792,1.514,3.716,2.205,5.603c0.34,0.925,0.47,0.969,1.391,0.652c0.474-0.163,0.935-0.364,1.41-0.521
		c0.095-0.032,0.229,0.054,0.344,0.085c-0.044,0.103-0.075,0.215-0.138,0.305c-0.071,0.104-0.179,0.183-0.257,0.282
		c-1.8,2.305-1.738,2.288-0.944,5.04c0.779,2.704,1.675,5.382,1.941,8.218c0.093,0.984,0.451,1.945,0.706,2.912
		c0.181,0.689,0.394,1.37,0.591,2.055c0.168-0.666,0.297-1.346,0.516-1.994c0.236-0.695,0.967-0.886,1.508-1.244
		c0.229-0.151,0.355,0.198,0.448,0.448c0.35,0.939,0.738,1.864,1.113,2.795c0.057,0.142,0.037,0.353,0.258,0.35
		c0.031-0.001,0.063-0.225,0.086-0.347c0.014-0.062,0.01-0.127,0.006-0.19c-0.198-3.941,0.543-7.848,0.439-11.785
		c-0.004-0.128,0.011-0.255,0.004-0.382c-0.06-0.8,0.733-1.584,0.13-2.369c-0.461-0.602-1.055-1.103-1.583-1.655
		c-0.153-0.161-0.468-0.292-0.295-0.571c0.067-0.11,0.339-0.093,0.519-0.139c0.522-0.132,0.947,0.625,1.403,0.267
		c0.432-0.339,0.123-0.96,0.204-1.45c0.383-2.362,0.756-4.729,0.75-7.129c-0.001-0.632,0.654-1.198,0.227-1.814
		c-0.361-0.516-0.854-0.939-1.293-1.399c-0.176-0.184-0.378-0.345-0.541-0.539c-0.098-0.117-0.328-0.255-0.091-0.436
		c0.089-0.068,0.235-0.082,0.355-0.083c0.543-0.009,1.117,0.774,1.558,0.191c0.342-0.451,0.577-1.124,0.51-1.764
		c-0.081-0.788,0.317-1.474,0.394-2.219c0.1-0.936,0.009-1.237-0.935-1.174c-1.149,0.076-1.938-0.388-2.692-1.373
		c-0.616-0.805-1.594-1.403-2.373-2.145c-1.56-1.489-2.51-3.244-2.834-5.416c-0.142-0.951-0.075-1.808-0.016-2.739
		c0.116-1.808,0.433-3.665-0.233-5.464c-0.156-0.422,0.179-0.346,0.417-0.213c0.545,0.303,0.627-0.134,0.773-0.472
		c0.689-1.618,1.184-3.313,2.059-4.858c0.652-1.15,1.251-2.332,1.882-3.493c0.863-1.591,1.42-3.348,1.68-5.164
		c0.16-1.121,0.454-2.225,0.406-3.375c-0.017-0.382,0.221-0.38,0.464-0.137c0.136,0.135,0.265,0.28,0.418,0.393
		c0.345,0.253,0.543,0.845,1.034,0.729c0.602-0.142,0.298-0.747,0.337-1.14c0.058-0.604,0.402-0.723,0.899-0.722
		c1.067,0.002,2.136,0.149,3.172-0.328c0.297-0.137,0.734-0.051,0.951,0.398c0.434,0.893,1.163,0.881,1.935,0.514
		c0.46-0.219,0.973-0.268,1.176,0.183c0.426,0.937,1.178,0.776,1.921,0.758c0.527-0.014,0.483,0.16,0.427,0.665
		c-0.22,1.948-0.196,3.872,0.369,5.82c0.786,2.699,1.683,5.367,2.285,8.127c0.251,1.147,0.152,2.264,0.301,3.383
		c0.261,1.966-0.164,3.82-0.798,5.646c-0.408,1.18-0.589,2.41-1.055,3.594c-1.084,2.76-3.011,4.621-5.566,5.914
		c-0.509,0.256-0.949,0.435-1.265,0.972c-0.374,0.643-1.076,1.045-1.79,0.681c-0.754-0.386-0.859-0.292-1.038,0.535
		c-0.335,1.567-0.201,3.156-0.418,4.709c-0.185,1.321-0.403,2.636-0.269,3.952c0.065,0.631,0.397-0.141,0.628-0.055
		C66.692,46.105,66.739,46.154,66.783,46.207z M53.345,102.69c0.073,0.081-0.006,0.39,0.262,0.173
		c-0.095-0.049-0.19-0.098-0.287-0.147c-0.743-1.285-0.973-1.402-1.871-0.92c-0.102,0.055-0.225,0.173-0.236,0.272
		c-0.029,0.264,0.221,0.236,0.349,0.21C52.227,102.144,52.701,102.776,53.345,102.69z M60.226,85.897
		c-0.094,0.071-0.278,0.154-0.271,0.212c0.151,1.1,0.311,2.198,0.508,3.291c0.041,0.224,0.202,0.504,0.39,0.605
		c0.265,0.145,0.667,0.169,0.8-0.198c0.382-1.049-0.104-2.547-1.009-3.351c-0.181-0.158-0.298-0.389-0.441-0.585
		c0.246-0.015,0.496-0.008,0.739-0.047c0.679-0.107,0.366-0.649,0.418-1.022c0.014-0.103-0.094-0.319-0.123-0.315
		c-0.338,0.045-0.472,0.316-0.604,0.589C60.502,85.352,60.362,85.624,60.226,85.897z M73.607,108.807
		c-0.069,0.351-0.307,0.823-0.165,1.021c0.209,0.285,0.708,0.134,1.071,0.057c0.364-0.079,0.723-0.214,1.068-0.36
		c0.267-0.113,0.291-0.369,0.29-0.635c-0.002-0.225-0.121-0.364-0.296-0.43c-0.735-0.274-1.418-0.22-1.994,0.376
		c0.035-0.567,0.31-1.061-0.195-1.685c-0.613-0.756-1.009-1.774-0.905-2.793c0.1-0.979-0.392-1.527-1.047-2.058
		c-0.348-0.282-0.735-0.19-0.779,0.239c-0.085,0.814,0.07,1.693-0.179,2.442c-0.481,1.432-0.205,2.877-0.332,4.309
		c-0.023,0.259,0.026,0.603,0.292,0.612c0.729,0.026,1.508,0.325,2.168-0.275C72.925,109.338,73.129,108.904,73.607,108.807z
		 M54.084,90.459c0.745-0.181,0.729,0.557,1.06,0.876c0.41,0.397,0.785,0.884,1.465,0.536c0.716-0.362,1.009-0.957,0.964-1.73
		c-0.117-2.019,0.06-4.056-0.421-6.049c-0.155-0.644,0.357-1.602-0.339-1.881c-0.463-0.186-0.644,0.948-1.238,1.21
		c-0.056,0.025-0.098,0.093-0.155,0.106c-0.591,0.144-0.637,0.533-0.458,1.016c0.63,1.715,0.468,3.351-0.516,4.888
		c-0.217,0.335-0.376,0.655-0.333,1.057c-0.54-0.417-1.167-0.389-1.797-0.355c-0.433,0.023-0.549,0.28-0.357,0.622
		c0.2,0.356,0.269,0.83,0.868,0.864c0.486,0.027,0.96,0.23,1.444,0.337c0.112,0.024,0.265,0.013,0.357-0.048
		c0.246-0.163,0.004-0.307-0.058-0.444C54.418,91.123,54.247,90.793,54.084,90.459z M66.843,101.221
		c0.418,0.342,0.537,0.166,0.77-0.272c0.372-0.709,0.003-1.539,0.483-2.198c0.109-0.152,0.126-0.363-0.048-0.506
		c-0.223-0.182-0.521-0.175-0.701-0.021c-0.613,0.524-1.158,1.134-1.79,1.635c-0.613,0.485-0.738,1.062-0.776,1.816
		c-0.123,2.479,0.424,4.904,0.508,7.368c0.03,0.84,0.261,1.724,0.335,2.601c0.035,0.429,0.22,0.845,0.321,1.27
		c0.04,0.179,0.037,0.393,0.302,0.313c0.107-0.031,0.245-0.142,0.271-0.241c0.078-0.302,0.167-0.619,0.149-0.923
		c-0.14-2.286,0.527-4.518,0.441-6.799c-0.014-0.308,0.019-0.647,0.142-0.922c0.356-0.796,0.23-1.46-0.372-2.078
		c-0.169-0.173-0.238-0.442-0.353-0.666C66.322,101.207,66.585,101.218,66.843,101.221z M58.29,97.395h-0.015
		c0-0.318-0.021-0.638,0.004-0.953c0.086-1.058-0.198-1.878-1.315-2.228c-0.239-0.074-0.464-0.207-0.674-0.347
		c-1.061-0.699-1.058-0.703-1.965-0.053c-0.902,0.648-0.888,1.693,0.094,2.123c1.13,0.494,2.061,1.206,2.884,2.106
		c0.311,0.338,0.32,1.183,0.867,0.977c0.356-0.135,0.059-0.936,0.119-1.435C58.295,97.523,58.29,97.458,58.29,97.395z
		 M61.365,80.964c-0.007,0-0.014,0-0.021,0c0-0.631,0-1.262,0-1.893c0-0.063,0.004-0.128-0.004-0.189
		c-0.094-0.754-1.238-1.56-1.928-1.359c-0.534,0.155-0.852,0.818-0.641,1.579c0.365,1.323,0.555,2.672,0.712,4.029
		c0.098,0.843,0.069,0.768,1.042,0.522c0.606-0.152,0.881-0.358,0.848-0.985C61.342,82.102,61.365,81.532,61.365,80.964z
		 M67.847,95.306c-0.06-0.529-0.312-0.876-0.672-0.96c-0.388-0.091-0.873-0.251-1.188,0.268c-0.52,0.857-1.11,1.667-1.341,2.679
		c-0.084,0.376,0.05,0.416,0.334,0.422c0.731,0.014,1.362-0.272,1.899-0.722C67.428,96.534,67.698,95.893,67.847,95.306z
		 M60.997,74.212c0.005-0.597-0.992-2.094-1.259-1.905c-0.422,0.297-0.749,0.799-0.967,1.282c-0.147,0.328-0.224,0.706-0.368,1.056
		c-0.136,0.329,0.094,0.625,0.382,0.78C59.669,75.9,60.985,75.167,60.997,74.212z M61.025,103.696h0.006
		c0,0.566,0.031,1.136-0.009,1.697c-0.034,0.477,0.219,0.845,0.382,1.241c0.105,0.256,0.393,0.262,0.65,0.252
		c0.322-0.012,0.426-0.217,0.428-0.489c0.002-0.881-0.006-1.762-0.01-2.643c-0.002-0.251-0.023-0.61-0.292-0.604
		c-0.861,0.019-0.85-0.546-0.875-1.134c-0.004-0.116-0.079-0.23-0.121-0.347c-0.054,0.109-0.149,0.218-0.152,0.329
		C61.018,102.563,61.025,103.131,61.025,103.696z M56.582,106.133c-0.232,0-0.359,0.004-0.485,0
		c-0.397-0.014-0.837,0.035-0.99,0.412c-0.221,0.549,0.428,0.465,0.657,0.639c0.799,0.608,1.96,0.547,2.744-0.064
		c0.154-0.121,0.166-0.407-0.055-0.452C57.782,106.529,57.206,106.043,56.582,106.133z M64.789,92.84
		c-0.371,0.071-0.375,0.341-0.366,0.588c0.014,0.29-0.121,0.767,0.3,0.759c0.477-0.008,0.948-0.249,1.417-0.406
		c0.013-0.004,0.002-0.229-0.06-0.288C65.714,93.13,65.236,92.976,64.789,92.84z M61.567,94.816
		c-0.057,0.061-0.185,0.132-0.185,0.206c-0.009,0.5-0.007,1.001,0.028,1.5c0.007,0.107-0.057,0.469,0.273,0.269
		c0.148-0.09,0.346-0.289,0.33-0.416c-0.058-0.48-0.188-0.952-0.301-1.427C61.699,94.898,61.622,94.865,61.567,94.816z
		 M58.046,105.214c0.128,0.048,0.238,0.102,0.353,0.12c0.037,0.007,0.09-0.075,0.136-0.116c-0.086-0.055-0.171-0.143-0.261-0.15
		C58.205,105.061,58.128,105.158,58.046,105.214z M56.983,104.766c-0.107-0.021-0.22-0.068-0.322-0.053
		c-0.2,0.03-0.207,0.128-0.013,0.186c0.096,0.028,0.215-0.016,0.322-0.036C56.98,104.86,56.979,104.799,56.983,104.766z
		 M55.398,104.442c0.121,0.042,0.224,0.094,0.335,0.111c0.04,0.006,0.092-0.067,0.139-0.104c-0.082-0.053-0.16-0.141-0.247-0.147
		C55.558,104.297,55.481,104.388,55.398,104.442z M71.622,97.17c-0.037-0.048-0.075-0.094-0.113-0.14
		c-0.042,0.041-0.115,0.081-0.121,0.127c-0.002,0.04,0.069,0.088,0.107,0.132C71.537,97.25,71.58,97.21,71.622,97.17z
		 M61.171,76.056l-0.081,0.111l0.128,0.018L61.171,76.056z"/>
	<path fill-rule="evenodd" clip-rule="evenodd" d="M66.64,46.06c0.17-0.921,0.222-1.884,0.539-2.751
		c0.414-1.135,1.237-1.99,2.475-2.295c1.333-0.327,2.685-0.555,4.058-0.642c0.668-0.042,0.743,0.348,0.657,0.833
		c-0.427,2.439-3.224,4.89-5.31,4.949c-0.758,0.022-1.518,0.035-2.275,0.052C66.739,46.154,66.692,46.105,66.64,46.06z"/>
</g>
</svg>
