<?xml version="1.0" encoding="utf-8"?>
<!-- Generator: Adobe Illustrator 16.0.4, SVG Export Plug-In . SVG Version: 6.00 Build 0)  -->
<!DOCTYPE svg PUBLIC "-//W3C//DTD SVG 1.1//EN" "http://www.w3.org/Graphics/SVG/1.1/DTD/svg11.dtd">
<svg version="1.1" id="Layer_0604" xmlns="http://www.w3.org/2000/svg" xmlns:xlink="http://www.w3.org/1999/xlink" x="0px" y="0px"
	 width="128px" height="128px" viewBox="0 0 128 128" enable-background="new 0 0 128 128" xml:space="preserve">
<g id="eZgbt9.tif">
	<g>
		<path fill-rule="evenodd" clip-rule="evenodd" d="M106.53,36.388c0.424-0.354,1.176-0.561,0.264-1.278
			c-2.619-2.06-3.437-4.833-2.978-8.052c0.059-0.413,0.116-0.847,0.285-1.22c1.189-2.593,1.368-2.552,3.378-1.029
			c1.036,0.788,1.118,0.773,1.39-0.478c0.368-1.681,1.352-3.067,2.042-4.59c0.142-0.316,0.416-0.331,0.635-0.041
			c1.893,2.511,3.994,4.916,4.231,8.274c0.09,1.269,0.057,2.522-0.49,3.708c-0.102,0.225-0.356,0.535,0.056,0.653
			c0.298,0.084,0.521-0.224,0.604-0.48c0.171-0.531,0.272-1.084,0.408-1.628c0.844-3.384,3.083-5.925,5.165-8.562
			c0.453-0.572,1.153-0.784,1.702-1.216c0.267-0.21,0.665-0.497,0.932-0.28c0.161,0.129,0.001,0.64-0.003,0.977
			c-0.017,1.263-0.015,2.524-0.042,3.784c-0.092,3.936-2.497,7.168-6.768,7.381c-0.341,0.018-0.73,0.006-1.01,0.167
			c-0.472,0.274-0.872,0.674-1.304,1.022c0.524,0.348,0.974-0.113,1.463-0.148c3.276-0.24,6.087,0.563,8.11,3.367
			c0.652,0.903,1.521,1.646,1.938,2.728c0.212,0.549,0.29,0.833-0.475,1.004c-2.93,0.652-5.812,0.878-8.624-0.48
			c-0.233-0.113-0.533-0.088-0.801-0.127c0.096,0.24,0.179,0.485,0.288,0.719c0.328,0.705,0.518,1.451,0.636,2.216
			c0.125,0.828,0.629,1.89,0.292,2.424c-0.434,0.688-1.531,0.063-2.329-0.013c-0.801-0.075-0.929,0.36-1.118,0.918
			c-0.52,1.52-0.817,3.1-1.261,4.64c-0.97,3.379-3.465,4.928-6.506,5.907c-1.403,0.45-2.867,0.584-4.359,0.556
			c-0.76-0.016-0.074,0.396-0.022,0.614v-0.043c-0.516,0.333-0.982-0.372-1.496-0.077c-0.148-0.054-0.294-0.111-0.441-0.166
			c0.028,0.043,0.052,0.117,0.085,0.12c0.115,0.013,0.236,0.002,0.354,0c2.088,1.469,3.92,3.178,5.011,5.544
			c1.824,3.959,0.969,7.634-1.263,11.138c-0.291,0.456-0.675,1.158-1.054,1.185c-0.684,0.047-0.371-0.879-0.72-1.28
			c-0.596-0.682-1.104-1.444-1.735-2.087c-2.148-2.183-3.389-4.761-3.601-7.827c-0.015-0.184-0.119-0.519-0.172-0.517
			c-0.265,0.009-0.234,0.268-0.291,0.464c-0.326,1.133-0.562,2.278-1.195,3.329c-1.073,1.791-2.688,2.99-4.261,4.255
			c-0.483,0.389-0.883,0.45-1.03-0.309c-0.124-0.624-0.354-1.185-0.725-1.727c-1.453-2.128-1.958-4.445-1.256-6.977
			c0.089-0.325,0.169-0.914,0.042-0.981c-0.36-0.191-0.479,0.306-0.716,0.5c-1.823,1.501-3.918,2.414-6.221,2.883
			c-0.714,0.146-0.957-0.098-1.049-0.846C79.87,59.046,81.458,55.468,87,53.262c0.194-0.076,0.405-0.121,0.59-0.215
			c0.175-0.09,0.43-0.202,0.463-0.346c0.057-0.248-0.208-0.298-0.415-0.342c-0.273-0.057-0.576-0.24-0.815-0.174
			c-1.616,0.438-3.458,0.472-4.531,2.015c-0.378,0.543-0.834,0.933-1.312,1.324c-1.792,1.458-3.501,2.999-4.95,4.806
			c-0.357,0.451-0.832,0.733-1.3,1.051c-0.518,0.354-1.108,0.82-1.031,1.486c0.146,1.266-0.605,1.439-1.521,1.41
			c-0.821-0.027-1.515,0.292-2.191,0.648c-3.559,1.868-7.227,3.53-10.585,5.782c-1.872,1.257-2.809,3.282-4.292,4.852
			c-0.341,0.364-0.297,0.706,0.2,1.004c0.972,0.583,1.614,1.453,2.251,2.405c2.168,3.261,1.08,6.439-0.053,9.635
			c-0.127,0.361-0.516,0.653-0.825,0.928c-1.145,1.016-1.153,1.241,0.293,1.86c1.076,0.464,2.063,1.197,3.297,1.257
			c0.05-1.188-0.556-2.201-0.915-3.274c-0.256-0.758-0.206-1.511-0.248-2.275c-0.17-3.045,1.086-5.661,2.431-8.246
			c0.181-0.351,0.534-0.692,0.891-0.854c1.351-0.606,2.531-1.485,3.765-2.277c0.535-0.344,0.945-0.469,0.98,0.309
			c0.071,1.489,0.628,2.867,0.959,4.289c0.396,1.699,0.356,3.315-0.021,4.973c-0.054,0.24-0.265,0.479-0.036,0.736
			c0.152-0.136,0.353-0.247,0.454-0.415c1.421-2.421,3.807-3.427,6.295-4.227c0.873-0.281,1.728-0.581,2.554-0.965
			c1.448-0.672,1.459-0.676,1.452,0.819c-0.006,1.329-0.014,2.662-0.067,3.99c-0.092,2.312-0.919,4.354-2.346,6.165
			c-0.128,0.163-0.229,0.346-0.342,0.521c0.201-0.023,0.414-0.007,0.599-0.073c4.308-1.577,7.909-0.398,11.054,2.749
			c1.232,1.231,2.491,2.458,4.056,3.286c0.585,0.31,0.481,0.659,0.01,0.888c-2.638,1.276-5.22,2.717-7.965,3.709
			c-2.24,0.809-4.565,0.284-6.672-0.908c-0.608-0.345-1.23-0.665-1.846-0.999c0.184,0.692,0.329,1.396,0.558,2.072
			c1.216,3.646,0.547,7.155-0.714,10.635c-0.256,0.705-0.639,0.616-1.101,0.249c-2.024-1.614-4.042-3.238-6.068-4.849
			c-0.692-0.549-0.975-1.347-1.365-2.088c-0.28-0.529-0.554-0.773-0.951,0.012c-0.978,1.931-2.258,3.668-3.688,5.291
			c-0.471,0.533-0.74,0.686-1.474,0.09c-1.996-1.621-2.968-3.683-3.865-6.052c-1.542-4.074,0.222-7.223,2.186-10.354
			c1.259-2.008,1.429-1.904-0.683-2.964c-0.312-0.153-0.626-0.303-0.952-0.424c-0.438-0.165-0.538-0.036-0.515,0.457
			c0.284,5.677-2.966,8.157-7.432,9.815c-1.756,0.651-3.582,0.084-5.169-0.991c-0.265-0.178-0.455-0.353-0.275-0.648
			c1.071-1.74,1.427-3.782,2.383-5.567c1.076-2.007,2.948-2.874,5.029-3.403c0.664-0.168,1.418-0.034,1.938-0.639
			c-0.017,0.016,0.229,0.011,0.004,0.046c-2.188-0.783-4.247-0.532-6.139,0.831c-0.838,0.603-1.727,0.92-2.759,0.708
			c-2.394-0.488-3.53,1.233-4.775,2.737c-0.278,0.334-0.098,0.613,0.28,0.819c2.536,1.397,3.367,5.902,2.526,8.188
			c-0.634,1.725-1.676,2.258-3.204,1.245c-1.555-1.033-3.184-2.017-4.377-3.539c-0.963-1.225-1.039-1.229-2.058-0.224
			c-6.587,6.49-13.987,12.016-21.068,17.922c-2.253,1.879-4.429,3.852-6.651,5.773c-0.579,0.503-1.192,0.968-1.789,1.451
			c-0.546-0.441-1.092-0.88-1.64-1.32c1.76-1.688,3.56-3.34,5.266-5.081c1.057-1.08,2.279-1.858,3.565-2.623
			c1.252-0.742,2.337-1.768,3.471-2.7c3.989-3.283,7.987-6.555,11.932-9.892c0.748-0.629,1.65-1.237,1.458-2.569
			c-0.118-0.816,0.612-1.38,1.401-1.619c0.703-0.213,1.029-0.651,1.038-1.359c0.007-0.727,0.222-1.359,0.719-1.916
			c0.33-0.371,0.487-0.851,0.505-1.354c0.01-0.189-0.006-0.442-0.119-0.565c-0.189-0.206-0.364,0.023-0.491,0.155
			c-0.292,0.302-0.544,0.642-0.842,0.936c-2.308,2.279-3.668,2.125-6.686,1.341c-0.919-0.239-1.747-0.849-2.599-1.321
			c-1.094-0.607-1.138-0.801-0.513-1.894c0.14-0.242,0.324-0.458,0.48-0.689c0.683-1.021,0.701-1.094-0.418-1.411
			c-1.535-0.435-2.473-1.722-3.778-2.487c-1.664-0.976-1.665-1.109-0.662-2.739c0.988-1.604,2.093-3.108,3.857-4.031
			c1.17-0.611,1.104-0.775,0.031-1.407c-1.926-1.135-3.521-2.744-5.485-3.828c-0.351-0.193-0.151-0.415,0.121-0.597
			c2.027-1.354,3.93-2.974,6.317-3.632c3.236-0.891,6.455-1.075,9.288,1.267l0.008,0.115l-0.05-0.111
			c0.354-0.994,0.068-1.5-1.024-1.764c-3.142-0.753-4.516-3.409-3.927-6.635c0.48-2.648,1.394-5.098,2.461-7.526
			c0.453-1.028,0.787-2.094,0.85-3.225c0.055-0.979,0.526-0.804,1.038-0.361c1.061,0.919,2.248,1.643,3.418,2.413
			c1.417,0.935,2.462,2.208,2.468,4.102c0.004,0.967,0.212,1.941,0.354,2.896c0.524,3.483-1.457,5.667-3.838,7.57
			c-0.809,0.649-1.271,1.139-1.051,2.167c0.146,0.684,0.168,1.391,0.276,2.083c0.025,0.165,0.177,0.449,0.253,0.441
			c0.232-0.015,0.262-0.265,0.306-0.466c0.931-4.133,3.948-6.381,7.375-8.341c2.253-1.287,4.653-1.76,7.176-1.902
			c0.194-0.012,0.527-0.13,0.543-0.233c0.067-0.462-0.335-0.278-0.562-0.329c-0.27-0.061-0.573-0.049-0.813-0.169
			c-2.33-1.161-2.302-0.313-1.335-2.968c0.91-2.503,2.694-4.167,4.464-5.926c0.055,0.032,0.108,0.088,0.166,0.096
			c0.041,0.004,0.087-0.06,0.13-0.092c-0.098,0.013-0.196,0.027-0.293,0.042c-1.299-0.143-2.61-0.21-3.892-0.444
			c-2.366-0.434-4.461-1.404-5.998-3.354c-0.719-0.911-1.455-1.81-2.184-2.714l0.002,0.02c2.167-0.947,4.04-2.504,6.393-3.063
			c0.12-0.028,0.296-0.147,0.307-0.242c0.031-0.233-0.155-0.367-0.362-0.43c-3.054-0.912-4.799-3.221-6.252-5.847
			c-0.236-0.429-0.585-0.812-0.742-1.264c-0.205-0.591-1.125-1.004-0.836-1.503c0.194-0.335,1.155-0.21,1.767-0.326
			c0.89-0.17,1.803-0.292,2.663-0.577c1.793-0.593,3.568-0.572,5.358-0.053c0.201,0.058,0.391,0.15,0.585,0.228
			c-0.056-0.237-0.056-0.506-0.173-0.708c-2.72-4.693-2.109-9.374,0.001-14.068c0.313-0.695,0.461-1.464,0.722-2.187
			c0.112-0.315,0.375-0.412,0.608-0.105c0.25,0.331,0.443,0.708,0.674,1.057c0.771,1.163,1.722,2.11,2.832,2.999
			c3.17,2.538,4.973,5.791,4.462,10.017c-0.027,0.206-0.12,0.465,0.115,0.545c0.113,0.04,0.364-0.122,0.464-0.259
			c1.918-2.612,4.831-3.442,7.715-4.329c0.717-0.219,0.975-0.076,0.925,0.777c-0.139,2.369-0.26,4.743-0.733,7.064
			c-0.169,0.833,0.092,0.782,0.648,0.685c0.757-0.134,1.518-0.247,2.268-0.419c1.442-0.333,1.46-0.349,1.454,1
			c-0.019,2.719,0.023,5.449-1.623,7.845c-0.355,0.516,0.088,0.486,0.462,0.521c4.284,0.418,4.073-0.115,2.828,4.177
			c-1.082,3.738-3.67,5.442-7.29,5.942c-1.316,0.182-2.651,0.286-3.983,0.074c-0.882-0.142-1.155,0.284-1.008,1.087
			c0.076,0.415,0.146,0.833,0.276,1.23c0.106,0.324,0.246,0.83,0.463,0.884c0.463,0.114,0.276-0.527,0.527-0.71
			c0.776-0.561,1.593-1.032,2.558-1.221c1.159-0.226,2.219,0.152,3.295,0.45c0.116,0.032,0.249,0.14,0.299,0.246
			c0.113,0.248-0.077,0.391-0.262,0.488c-1.261,0.668-2.627,1.016-4.032,1.082c-0.98,0.046-1.141,0.521-1.086,1.336
			c0.076,1.148,0.831,2.288,0.082,3.458c-0.425-0.404-0.306-0.984-0.469-1.473c0-0.055,0.008-0.107,0-0.161
			c-0.004-0.027-0.029-0.054-0.045-0.082c0.031,0.08,0.061,0.157,0.093,0.234c-0.294,0.426-0.302,0.926-0.297,1.405
			c0.003,0.197-0.296,0.606,0.167,0.598c0.187-0.004,0.367-0.373,0.547-0.577c0.327,0.657-0.515,0.938-0.486,1.511
			c0.013,0.284-0.013,0.567,0.203,0.78c0.256,0.255,0.534,0.092,0.762-0.038c4.67-2.667,9.42-5.199,13.951-8.078
			c1.897-1.207,3.417-3.071,4.933-4.791c0.932-1.057,1.936-2.04,2.977-2.947c2.124-1.849,3.813-4.05,5.574-6.208
			c0.24-0.293,0.374-0.509,0.363-0.893c-0.053-2.621,0.239-5.162,1.729-7.435c0.176-0.264,0.167-0.667,0.186-1.006
			c0.009-0.192-0.044-0.482-0.175-0.563c-0.377-0.235-0.417,0.173-0.553,0.375c-2.417,3.596-5.892,4.464-9.943,3.865
			c-0.588-0.087-0.802-0.269-0.677-0.953c0.723-3.897,3.531-5.978,7.542-5.525c0.555,0.063,1.116,0.058,1.675,0.079
			c0.577,0.022,1.077,0.478,1.69,0.288c-0.199-0.598-0.396-1.195-0.6-1.789c-0.763-2.222-0.744-2.183-2.78-1.224
			c-4.068,1.913-7.957,1.866-11.594-1.098c-1.143-0.932-1.717-2.361-2.979-3.186c-0.364-0.237-0.092-0.641,0.253-0.819
			c1.732-0.894,3.356-2.049,5.379-2.258c0.262-0.026,0.604-0.069,0.541-0.449c-0.026-0.165-0.214-0.356-0.38-0.437
			c-2.441-1.176-4.062-3.178-5.35-5.459c-0.429-0.76-1.487-1.016-1.516-2.04c0.819-0.138,1.663-0.206,2.46-0.432
			c1.721-0.486,3.427-0.582,5.187-0.214c0.995,0.208,1.203-0.026,0.71-0.729c-1.669-2.373-1.555-5.171-2.021-7.833
			c-0.098-0.556,0.041-1.093,0.188-1.648c0.406-1.564,0.482-3.178,0.551-4.791c0.009-0.188,0.114-0.451,0.259-0.534
			c0.222-0.126,0.366,0.12,0.452,0.299c0.543,1.132,1.593,1.773,2.52,2.495c3.466,2.699,5.574,6.192,6.366,10.498
			c0.08,0.429,0.189,0.655,0.612,0.245c0.635-0.622,1.349-1.083,1.784-1.982c0.882-1.826,2.146-3.431,3.688-4.788
			c0.411-0.362,0.666-0.177,0.681,0.238c0.068,1.842,0.835,3.548,1.049,5.346c0.27,2.263-0.076,4.41-1.378,6.424
			c-0.924,1.426-1.816,2.802-3.208,3.82c-0.629,0.461-1.269,1.021-2.011,1.069c-1.321,0.087-1.491,0.92-1.581,1.915
			c-0.502-0.236-0.736-1.045-1.568-0.584c-0.467,0.258-1.071,0.269-1.612,0.391c0.238,0.864,1.163,0.865,1.711,1.347
			c0.521,0.458,1.14,0.803,1.716,1.199c-0.069,0.302-0.038,0.527,0.361,0.468c-0.116-0.157-0.233-0.313-0.35-0.47
			c0.323-0.844-0.646-1.543-0.266-2.393c0.699,0.375,0.653,1.151,0.936,1.749c0.314,0.664,0.293,1.493,0.996,1.958
			c-0.033,0.048-0.082,0.093-0.094,0.147c-0.008,0.034,0.036,0.08,0.059,0.121c-0.004-0.088-0.007-0.176-0.009-0.265
			c0.226-0.948,0.229-1.931,0.565-2.871c1.261-3.531,3.963-5.493,7.299-6.716c1.106-0.406,2.313-0.546,3.48-0.776
			c0.709-0.14,0.928,0.211,0.646,0.832c-0.437,0.961-0.757,1.958-0.856,3.003c-0.076,0.801-0.943,1.613-0.722,2.078
			c0.303,0.637,1.329-0.044,2.082,0.169c2.266,0.645,3.475,3.501,2.438,5.977l-0.098,0.001c0.034-2.088-1.231-3.271-2.903-4.177
			c-2.121-1.149-2.118-1.151-3.806,0.478c-0.151,0.146-0.342,0.248-0.498,0.389c-0.147,0.135-0.273,0.292-0.409,0.439
			c0.18,0.03,0.364,0.098,0.542,0.086c0.769-0.056,1.522-0.122,2.277,0.184c0.531,0.217,0.751,0.4,0.606,1.065
			c-0.522,2.438-1.609,4.264-4.25,4.903c-1.151,0.278-2.274,0.669-3.454,0.867c-1.052,0.175-1.104,0.371-0.843,1.431
			c0.162,0.652,0.513,1.138,1.009,1.553c0.538,0.451,0.988,0.967,1.348,1.583c0.858,1.467,0.974,1.484,2.238,0.422
			c0.37-0.312,0.653-0.726,0.988-1.08c0.9-0.949,1.648-2.248,2.753-2.754c1.77-0.811,2.937-2.081,4.024-3.547h0.014
			c0.321,0.679-0.087,1.189-0.402,1.718c-0.218,0.366-0.469,0.781-0.245,1.166c0.28,0.483,0.741,0.084,1.12,0.06
			c1.553-0.103,3.111-0.5,4.649,0.098c-0.18,0.269-0.469,0.256-0.74,0.294c-0.335,0.044-0.754-0.068-0.918,0.309
			c-0.035,0.081,0.363,0.368,0.579,0.538c2.717,2.144,3.79,4.764,2.336,8.104c-0.163,0.375-0.178,0.454,0.273,0.348
			c1.681-0.39,3.44-0.389,5.066-1.036c0.059,0.032,0.114,0.08,0.175,0.086c0.035,0.004,0.117-0.081,0.111-0.09
			c-0.068-0.126-0.168-0.113-0.283,0.031c-2.892-1.17-4.475-3.433-4.944-6.397C108.023,37.389,107.642,36.696,106.53,36.388z
			 M97.366,62.517c0.061-0.208,0.098-0.414-0.082-0.588c0.594-1.393,0.692-2.982,1.7-4.214c0.229-0.278,0.066-0.508-0.226-0.645
			c-1.444-0.674-2.888-1.351-4.342-2.009c-0.091-0.042-0.25,0.069-0.38,0.107c0.056,0.108,0.084,0.246,0.169,0.318
			c2.008,1.679,2.582,4.049,3.127,6.437c0.028,0.196,0.054,0.394,0.083,0.589c-0.023,0.049-0.052,0.096-0.062,0.147
			c-0.006,0.031,0.02,0.067,0.032,0.103C97.378,62.679,97.373,62.598,97.366,62.517z M68.623,95.552
			c0.006,0.06-0.005,0.153,0.024,0.167c0.09,0.049,0.194,0.065,0.294,0.092c0.302,0.088,0.551,0.396,0.915,0.207
			c0.345,0.239,0.693,0.476,1.04,0.716c0.731,0.51,1.408,1.121,2.351,1.233c-0.558-0.707-0.84-1.618-1.615-2.162l0.006,0.049
			c0.879-0.158,1.094-0.987,1.564-1.554c0.072-0.087,0.118-0.196,0.178-0.293c-0.133,0.019-0.271,0.022-0.398,0.062
			c-1.173,0.369-2.344,0.743-3.516,1.119c-0.217-0.118-0.419-0.115-0.598,0.073C68.599,95.201,68.5,95.284,68.623,95.552z
			 M49.219,57.254c-0.057,0.011-0.111,0.026-0.168,0.039c0.054-0.029,0.109-0.057,0.162-0.087c0.197-0.014,0.395-0.03,0.592-0.046
			c0.969,0.051,1.926-0.25,2.917-0.01c0.431,0.104,0.965,0.636,1.3,0.23c0.332-0.403-0.212-0.892-0.41-1.31
			c-0.677-1.432-0.733-1.445-2.034-0.324c-0.579,0.499-1.369,0.747-1.771,1.458C49.602,57.086,49.408,57.128,49.219,57.254z
			 M54.667,91.368l0.121-0.021l-0.116,0.059l-0.157-0.045L54.667,91.368z M51.116,50.131c0.096-0.115,0.191-0.228,0.288-0.342
			c0.9,0.783,0.891,2.011,1.457,2.959c0.107,0.182,0.18,0.409,0.433,0.325c0.069-0.021,0.087-0.251,0.097-0.388
			c0.107-1.457,0.096-2.918,0.565-4.335c0.335-1.007,0.265-1.111-0.883-0.993c-0.657,0.066-1.502-0.552-1.902,0.095
			c-0.347,0.564,0.198,1.325,0.331,2.002c0.021,0.118-0.06,0.258-0.093,0.387c-0.53-0.308-0.629-0.883-0.833-1.382
			c-0.163-0.399-0.402-0.534-0.786-0.361c-0.25,0.111-0.596,0.209-0.694,0.413c-0.214,0.44,0.239,0.563,0.518,0.657
			c0.599,0.199,0.875,0.897,1.547,0.958C51.152,50.187,51.152,50.333,51.116,50.131z M109.794,35.738
			c-0.182,0.227-0.361,0.455-0.543,0.682c-0.063,0.005-0.124,0.012-0.189,0.017c0.062-0.02,0.123-0.042,0.186-0.062
			c1.337-0.039,2.598,0.293,3.825,0.782c0.255,0.104,0.581,0.218,0.722-0.051c0.244-0.473-0.941-1.864-1.471-1.785
			c-0.862,0.127-1.64,0.761-2.577,0.424c0.438-0.634,1.218-0.562,1.807-0.884c0.2-0.108,0.653-0.203,0.331-0.518
			c-0.479-0.471-1.029-1.052-1.627-1.161c-0.448-0.083-0.501,0.817-0.781,1.25c-0.146,0.226-0.257,0.49-0.318,0.753
			C109.028,35.731,109.666,35.45,109.794,35.738z M85.394,51.262c-0.05-0.022-0.098-0.058-0.15-0.066
			c-0.029-0.004-0.066,0.038-0.102,0.06c0.083-0.012,0.167-0.023,0.248-0.035c0.333,0.07,0.668,0.197,1.004,0.199
			c0.656,0.006,1.548,0.605,1.903-0.06c0.312-0.582-0.618-1.106-0.901-1.706c-0.398-0.847-0.743-0.43-1.197-0.037
			C85.676,50.068,85.776,50.774,85.394,51.262z M55.561,58.044c0.481-0.647,0.374-1.475,0.67-2.181
			c0.243-0.577,0.45-1.172,0.671-1.76c-0.61-0.042-1.221-0.076-1.832-0.128c-0.278-0.025-0.55-0.087-0.828-0.131
			c-0.667-0.11-0.74,0.326-0.557,0.752c0.521,1.209,0.893,2.51,1.914,3.443c-0.089,0.202-0.063,0.264,0.063,0.171
			C55.665,58.205,55.597,58.102,55.561,58.044z M30.35,85.306c0.309-0.838-0.06-1.64-0.146-2.455
			c-0.087-0.823-0.028-2.157-0.441-2.341c-0.675-0.298-1.261,0.784-1.931,1.215c-0.347,0.224-0.733,0.387-1.091,0.596
			c-0.163,0.094-0.399,0.205-0.433,0.348c-0.067,0.285,0.246,0.265,0.421,0.329c1.385,0.509,2.639,1.226,3.665,2.304
			c-0.014,0.052-0.038,0.103-0.04,0.154c0,0.028,0.034,0.059,0.052,0.089C30.387,85.467,30.369,85.386,30.35,85.306z M65.822,94.964
			c0.17-0.328,0.822-0.202,0.693-0.847c-0.453-2.265,0.211-4.389,0.905-6.501c0.049-0.154,0.096-0.308,0.142-0.464
			c-0.044,0.033-0.128,0.064-0.128,0.099c-0.004,0.12,0.021,0.241,0.036,0.361c-0.502,0.657-1.015,1.304-1.498,1.974
			c-0.817,1.131-1.778,2.088-3.013,2.77c-0.469,0.258-1.303,0.239-1.353,0.767c-0.05,0.523,0.917,0.459,1.182,0.979
			c-0.003,0.354-1.082-0.085-0.498,0.45c0.976,0.895,1.888,1.811,2.582,2.927c0.378,0.609,0.638,0.726,0.826-0.063
			C65.89,96.61,67.125,95.846,65.822,94.964z M52.992,89.476l-0.106-0.002l0.102-0.033c0.445,0.191,0.887,0.397,1.341,0.568
			c0.249,0.093,0.544,0.239,0.754-0.056c0.171-0.242,0.125-0.511,0.028-0.788c-0.26-0.751-0.861-1.249-1.318-1.854
			c-1.071-1.423-2.424-2.708-2.41-4.701c0.002-0.395,0.134-1.016-0.269-1.139c-0.359-0.11-0.577,0.482-0.811,0.794
			c-0.292,0.386-0.515,0.824-0.77,1.238c-1.109,1.792-1.074,2.069,0.413,3.478c0.567,0.535,1.208,0.921,1.966,1.134
			c0.467,0.131,0.976,0.241,1.354,0.517C53.842,89.049,53.383,89.286,52.992,89.476z M55.283,60.481
			c-0.425,0.39-0.535,0.952-0.791,1.436c-1.241,2.348-2.941,4.117-5.694,4.637c-0.509,0.096-1.134-0.019-1.524,0.5
			c-0.06-0.033-0.115-0.081-0.178-0.092c-0.038-0.007-0.086,0.043-0.129,0.067c0.101-0.006,0.201-0.015,0.303-0.021
			c0.888,0.188,1.764,0.322,2.69,0.172c0.623-0.104,0.735,0.33,0.356,0.756c-0.718,0.81-0.984,1.822-1.432,2.763
			c-0.67,1.411-1.374,2.873-2.382,4.041c-3.968,4.586-8.915,6.447-14.927,4.873c-0.755-0.199-1.086-0.003-0.998,0.766
			c0.229,2.014,0.442,4.032,0.74,6.038c0.117,0.783,0.483,0.341,0.793,0.047c3.874-3.66,8.369-4.495,13.375-2.901
			c1.479,0.471,1.472,0.518,2.348-0.676c0.247-0.336,0.444-0.712,0.685-1.053c1.801-2.57,3.582-5.154,5.424-7.692
			c0.744-1.024,1.619-2.005,1.816-3.267c0.547-3.488,0.927-6.99-0.519-10.388l-0.027-0.132L55.283,60.481z M103.135,37.153
			c-0.418-0.204-0.826-0.173-1.074,0.01c-1.519,1.122-3.802,1.075-4.734,3.113c-0.125,0.27-0.521,0.518-0.834,0.581
			c-1.23,0.248-2.051,1.145-3.037,1.787c-0.729,0.474-0.954,1.02-0.847,1.918c0.213,1.789-0.485,3.43-1.154,5.047
			c-0.342,0.822-1.162,1.188-1.767,1.761c-0.251,0.237-0.594,0.618-0.13,0.823c1.206,0.54,2.468,0.959,3.708,1.427
			c0.531-0.947,0.147-1.985,0.3-2.97c0.031-0.207,0.061-0.417,0.08-0.625c0.193-2.191,1.024-4.007,2.872-5.342
			c1.506-1.089,3.123-1.798,4.963-2.023c1.489-0.185,1.805-0.381,1.525-1.808c-0.189-0.969-0.05-1.952,0.112-2.924
			C103.159,37.663,103.132,37.386,103.135,37.153z M38.745,93.504c0.617-0.652,0.572-0.839-0.421-1.238
			c-2.284-0.925-4.487-1.95-5.928-4.092c-0.159-0.234-0.402-0.428-0.693-0.251c-0.272,0.167-0.248,0.486-0.217,0.761
			c0.149,1.319,0.331,2.634,0.472,3.955c0.217,2.002,0.206,2.008,2.229,2.123c0.486,0.029,1-0.07,1.462,0.043
			C37.03,95.147,37.861,94.287,38.745,93.504z M100.391,52.326c-0.19,0.084-0.386,0.153-0.566,0.251
			c-0.853,0.462-1.706,0.923-2.663,1.132c-0.807,0.175-1.616,0.334-2.424,0.503c0.52,0.952,1.681,0.846,2.414,1.451
			c0.146,0.123,0.394,0.119,0.588,0.19c1.65,0.6,1.638,0.6,2.048-1.039c0.168-0.67,0.402-1.322,0.602-1.985
			C100.437,52.667,100.561,52.496,100.391,52.326z M92.143,54.045c-0.012-0.008-0.237-0.2-0.497-0.268
			c-0.793-0.208-1.439-0.869-2.333-0.758c0.258,0.633,0.518,1.267,0.777,1.901c0.022,0.063,0.033,0.133,0.057,0.198
			c0.254,0.766-0.128,1.62,0.334,2.354c0.587-0.581,1.173-1.165,1.762-1.742c0.05-0.048,0.114-0.081,0.172-0.118
			C93.164,55.111,93.033,54.64,92.143,54.045z M90.722,30.676c-0.562,0.077-1.112,0.181-1.666,0.226
			c-1.854,0.151-1.979,0.333-1.397,2.126c0.065,0.2,0.141,0.394,0.219,0.588c0.203,0.514,0.412,1.027,0.62,1.541
			c0.597-0.364,0.407-1.061,0.631-1.583c0.393-0.922,0.969-1.687,1.577-2.454C90.788,31.015,91.1,30.823,90.722,30.676z
			 M105.117,45.625c-0.054-0.043-0.105-0.087-0.16-0.129c-0.945-0.742-0.947-0.742-1.213,0.378
			c-0.187,0.788-0.759,1.777-0.098,2.312c0.42,0.34,1.108-0.693,1.811-0.943c0.907-0.323,0.889-0.638,0.165-1.259
			C105.465,45.851,105.285,45.746,105.117,45.625z M29.438,91.188c0.258,0.133,0.719,0.317,1.113,0.596
			c0.436,0.306,0.58,0.203,0.554-0.28c-0.02-0.349-0.05-0.699-0.12-1.039c-0.124-0.605,0.02-1.682-0.389-1.717
			c-0.61-0.052-0.917,0.888-1.346,1.406c-0.088,0.11-0.167,0.227-0.236,0.347C28.837,90.803,28.905,91.02,29.438,91.188z
			 M51.483,41.085c-0.144,0.011-0.319-0.03-0.404,0.039c-0.469,0.385-1.141,0.707-1.065,1.414c0.104,0.951,0.37,1.884,0.551,2.83
			c0.035,0.181,0.093,0.297,0.204,0.226c0.091-0.058,0.162-0.2,0.181-0.312c0.216-1.286,0.424-2.573,0.624-3.862
			C51.588,41.314,51.513,41.195,51.483,41.085z M32.613,97.532c0.122-0.579,0.262-1.313,0.064-2.072
			c-0.021-0.072-0.282-0.171-0.342-0.128c-0.579,0.408-0.463,1.102-0.645,1.676c-0.086,0.265-0.126,0.543-0.175,0.819
			c-0.021,0.136-0.066,0.359-0.005,0.4c0.205,0.137,0.306-0.096,0.445-0.201C32.121,97.901,32.287,97.779,32.613,97.532z
			 M83.348,19.285c-0.281,0.776,0.276,1.456,0.517,2.191c0.053,0.17,0.265,0.251,0.283,0.152c0.084-0.464,0.088-0.943,0.122-1.416
			c0.02-0.274,0.062-0.547,0.054-0.819c-0.008-0.221,0.214-0.596-0.176-0.614C83.929,18.769,83.695,19.05,83.348,19.285z
			 M74.051,98.982c-0.062-0.018-0.123-0.032-0.187-0.049c0.045,0.099,0.062,0.227,0.135,0.289c0.065,0.058,0.192,0.045,0.291,0.064
			C74.212,99.187,74.132,99.083,74.051,98.982z M27.981,102.804l-0.071-0.065l-0.09,0.165L27.981,102.804z M32.645,99.016
			l-0.056-0.058l-0.082,0.144L32.645,99.016z"/>
	</g>
</g>
</svg>
