<?xml version="1.0" encoding="utf-8"?>
<!-- Generator: Adobe Illustrator 16.0.4, SVG Export Plug-In . SVG Version: 6.00 Build 0)  -->
<!DOCTYPE svg PUBLIC "-//W3C//DTD SVG 1.1//EN" "http://www.w3.org/Graphics/SVG/1.1/DTD/svg11.dtd">
<svg version="1.1" id="Layer_0701" xmlns="http://www.w3.org/2000/svg" xmlns:xlink="http://www.w3.org/1999/xlink" x="0px" y="0px"
	 width="128px" height="128px" viewBox="0 0 128 128" enable-background="new 0 0 128 128" xml:space="preserve">
<path d="M70.394,102.83c-1.477,0-2.952,0-4.429,0c-1.134-0.16-2.265-0.418-3.404-0.465c-7.388-0.308-14.579-1.801-21.759-3.431
	c-2.397-0.544-3.829-1.95-4.691-4.185c-0.953-2.47-1.562-5.006-1.871-7.625c-0.035-0.303-0.156-0.594-0.238-0.891
	c-0.051,0.305-0.131,0.607-0.147,0.912c-0.149,2.76,0.396,5.441,0.966,8.115c0.307,1.445-0.051,1.947-1.602,1.508
	c-2.322-0.654-4.707-1.086-7.031-1.734c-3.431-0.959-6.226-2.859-8.562-5.605c-3.681-4.324-7.498-8.535-11.35-12.707
	c-1.722-1.863-3.282-3.785-4.215-6.162c0-0.633,0-1.266,0-1.898c0.189-0.479,0.39-0.955,0.569-1.438
	c2.989-8.059,7.925-14.087,16.745-16.063c8.517-1.909,16.989-4.054,25.564-5.645c7.809-1.449,15.512-0.826,22.701,3.088
	c2.887,1.572,6.026,2.461,9.285,2.912c6.902,0.956,13.863,1.03,20.803,1.192c9.615,0.225,17.119,5.202,24.63,10.294
	c0.426,0.289,0.754,0.732,1.097,1.132c2.406,2.81,2.944,6.009,1.76,9.453c-1.269,3.694-3.869,6.468-6.624,9.108
	c-0.872,0.835-1.663,0.633-2.487-0.108c-1.156-1.038-1.615-2.431-2.081-3.833c-0.094-0.281-0.259-0.537-0.39-0.805
	c-0.061,0.302-0.17,0.602-0.174,0.904c-0.031,1.861,0.639,3.51,1.65,5.02c0.514,0.768,0.771,1.468,0.207,2.312
	c-4.179,6.27-9.535,10.9-17.141,12.484c-1.842,0.385-3.133-0.181-3.83-1.885c-0.836-2.04-1.554-4.129-2.341-6.189
	c-0.106-0.277-0.319-0.513-0.483-0.768c-0.058,0.295-0.174,0.592-0.165,0.885c0.069,2.348,0.88,4.536,1.584,6.732
	c0.388,1.209,0.005,1.834-1.091,2.115c-2.036,0.522-4.084,1.004-6.136,1.464C80.67,102.154,75.484,102.09,70.394,102.83z
	 M39.156,61.098c0.067-1.174-1.142-2.087-2.421-1.694c-1.584,0.487-2.73,1.573-3.375,3.096c-0.48,1.135,0.156,1.839,1.185,2.139
	C36.081,65.085,39.06,62.752,39.156,61.098z M73.538,55.253c0.067-1.174-1.142-2.087-2.421-1.694
	c-1.584,0.487-2.73,1.573-3.375,3.096c-0.48,1.135,0.156,1.839,1.185,2.139C70.463,59.24,73.441,56.907,73.538,55.253z"/>
</svg>
