<?xml version="1.0" encoding="utf-8"?>
<!-- Generator: Adobe Illustrator 16.0.4, SVG Export Plug-In . SVG Version: 6.00 Build 0)  -->
<!DOCTYPE svg PUBLIC "-//W3C//DTD SVG 1.1//EN" "http://www.w3.org/Graphics/SVG/1.1/DTD/svg11.dtd">
<svg version="1.1" id="Layer_0704" xmlns="http://www.w3.org/2000/svg" xmlns:xlink="http://www.w3.org/1999/xlink" x="0px" y="0px"
	 width="128px" height="128px" viewBox="0 0 128 128" enable-background="new 0 0 128 128" xml:space="preserve">
<g>
	<path fill-rule="evenodd" clip-rule="evenodd" d="M14.905,73.198c0.626,1.862,1.614,3.573,2.148,5.483
		c0.418,1.5,1.467,2.488,3.051,2.934c2.446,0.687,4.848,1.533,7.295,2.217c1.004,0.281,1.535,0.816,1.752,1.805
		c0.265,1.199,0.668,2.369,0.896,3.573c0.801,4.226,2.499,8.146,4.015,12.13c0.129,0.34,0.587,0.771,0.14,1.092
		c-0.249,0.178-0.549-0.247-0.797-0.455c-1.695-1.423-3.859-1.893-5.861-2.458c-3.77-1.065-5.736-3.614-6.854-7.063
		c-0.747-2.301-1.843-4.379-3.37-6.247c-0.276-0.339-0.545-0.6-0.996-0.609c-0.021-0.292-0.228-0.42-0.463-0.523l-0.083-0.087
		l0.101,0.076c0.16,0.166,0.321,0.332,0.482,0.498c1.186,3.062,2.418,6.107,3.545,9.192c1.181,3.232,3.441,5.235,6.59,6.516
		c2.638,1.073,5.42,1.776,7.822,3.499c1.831,1.312,2.955,3.021,4.008,4.879c0.728,1.285,1.444,2.576,2.191,3.851
		c0.638,1.089,0.566,1.421-0.66,1.663c-3.528,0.695-6.658-0.291-9.481-2.418c-1.586-1.195-2.875-2.711-4.104-4.227
		c-1.734-2.139-3.854-3.728-6.07-5.305c-3.591-2.558-6.598-5.695-8.17-9.945c-0.646-1.748-1.273-3.457-0.641-5.449
		c0.328-1.029,0.119-2.306-0.104-3.419c-0.596-2.978-1.256-5.946-2.037-8.88c-0.408-1.535-0.641-2.848,0.797-4.001
		c0.752-0.603,0.937-1.513,0.596-2.476c-0.453-1.282-0.494-2.272,1.088-2.986c1.307-0.591,1.334-1.588,0.629-2.906
		c-0.455-0.852-1.211-1.311-1.971-1.801c-0.269-0.174-0.592-0.413-0.47-0.773c0.05-0.147,0.404-0.266,0.624-0.271
		c3.477-0.095,6.727-1.555,10.196-1.69c0.656-0.025,1.313-0.211,1.962-0.179c3.848,0.193,6.075-2.091,7.716-5.126
		c1.53-2.83,2.524-5.878,3.119-9.047c0.365-1.948,0.999-3.785,1.876-5.578c1.176-2.402,3.005-3.577,5.633-3.659
		c2.483-0.078,4.934,0.175,7.338,0.767c1.057,0.26,2.109,0.353,3.179,0.308c3.133-0.13,5.195-1.859,5.872-4.94
		c0.158-0.718,0.219-1.46,0.287-2.195c0.168-1.816,0.188-1.857,2.104-1.813c1.316,0.03,2.63,0.154,3.945,0.165
		c2.392,0.019,4.041-0.976,4.82-3.383c0.637-1.967,0.738-1.889,2.846-1.807c1.668,0.065,3.305-0.164,4.557-1.438
		c1.535-1.559,1.408-3.092-0.344-4.365c-0.463-0.336-1.004-0.562-1.486-0.874c-0.365-0.237-0.604-0.596-0.43-1.043
		c0.23-0.588,0.801-0.645,1.232-0.432c1.027,0.504,2.09,1.011,2.969,1.726c2.225,1.811,4.729,3.271,6.701,5.405
		c0.512,0.555,1.014,1.071,1.221,1.806c0.898,3.184,3.432,4.786,6.178,5.934c2.496,1.043,5.182,1.573,7.955,0.984
		c0.717-0.151,1.473-0.143,2.213-0.155c2.768-0.049,3.621,0.554,4.697,3.05c0.359,0.834,0.377,1.486-0.113,2.29
		c-0.654,1.072-0.734,2.289-0.635,3.566c0.354,4.609,0.24,9.129-1.303,13.627c-1.656,4.828-0.836,9.5,1.848,13.929
		c1.496,2.47,3.178,4.791,4.877,7.1c2.219,3.013,2.588,5.282,0.451,8.341c-1.695,2.426-2.506,4.932-2.289,7.842
		c0.107,1.435-0.352,2.722-1.049,3.988c-0.787,1.432-1.672,2.828-2.09,4.451c-0.229,0.892-0.408,1.78-0.252,2.679
		c0.205,1.185,0.607,2.304,2.121,2.246c1.215-0.046,1.123,0.595,0.828,1.391c-1.186,3.197-2.773,6.216-5.285,8.517
		c-2.775,2.541-5.668,4.961-8.951,6.906c-4.852,2.874-10.096,3.194-15.496,2.859c-4.482-0.277-8.736-1.456-12.785-3.37
		c-1.184-0.56-2.347-1.181-3.453-1.881c-1.309-0.831-2.66-1.14-4.208-0.96c-3.907,0.452-7.496-0.369-10.709-2.756
		c-1.342-0.996-2.295-2.335-3.465-3.479c-0.688-0.673-0.689-1.479-0.204-2.256c1.176-1.876,1.991-3.949,3.383-5.716
		c2.926-3.717,6.856-5.508,11.394-6.176c1.623-0.239,3.287-0.485,4.91-0.382c3.466,0.222,6.187-1.321,8.759-3.31
		c1.623-1.254,3.178-2.597,4.768-3.894c1.205-0.983,2.627-1.276,4.143-1.34c2.463-0.104,4.934,0.054,7.387-0.374
		c2.691-0.468,3.9-1.511,4.34-4.145c0.424-2.54,1.711-4.386,4.029-5.532c0.789-0.391,1.715-0.678,1.959-1.714
		c0.291-0.032,0.422-0.224,0.48-0.485c0.17-0.162,0.338-0.324,0.506-0.485l0.088-0.067l-0.064,0.092
		c-0.164,0.166-0.328,0.332-0.492,0.498c-0.268,0.055-0.471,0.172-0.482,0.482c-1.414,0.386-2.721,1.082-4.197,1.315
		c-1.523,0.241-2.406,1.347-2.934,2.719c-0.262,0.688-0.439,1.414-0.59,2.137c-0.346,1.667-1.408,2.511-3.023,2.821
		c-1.379,0.266-2.781,0.568-4.164,0.387c-4.471-0.59-7.961,1.256-11.137,4.14c-3.139,2.851-6.672,4.606-11.13,4.37
		c-3.107-0.165-6.164,0.431-9.161,1.556c-4.51,1.692-7.502,4.86-9.718,8.933c-1.521,2.795-1.396,2.748-3.316,0.367
		c-1.627-2.016-2.689-4.356-3.747-6.626c-1.764-3.78-3.282-7.7-4.294-11.789c-0.227-0.916-0.157-1.51,0.473-2.194
		c3.637-3.954,6.291-8.598,9.174-13.088c1.458-2.271,3.193-4.361,4.782-6.55c1.442-1.987,3.564-3.172,5.509-4.505
		c5.834-3.998,12.347-6.107,19.431-6.264c3.381-0.075,6.711-0.521,10.057-0.916c3.201-0.378,5.486-2.001,7.166-4.642
		c0.623-0.979,1.387-1.821,2.248-2.604c1.277-1.164,2.713-1.812,4.467-1.734c0.57,0.025,1.158-0.018,1.717-0.135
		c1.879-0.395,2.678-1.272,2.848-3.195c0.08-0.897,0.047-1.811-0.004-2.712c-0.061-1.099-0.053-2.143,0.908-2.925
		c0.156-0.127,0.338-0.499,0.279-0.57c-0.266-0.322-0.594-0.121-0.875,0.04c-0.674,0.386-1.158,0.929-1.264,1.725
		c-0.066,0.488-0.076,0.982-0.113,1.474c-0.248,3.387-0.777,4.009-4.105,4.214c-1.533,0.095-2.838,0.585-4.174,1.28
		c-1.713,0.89-2.777,2.42-3.656,3.912c-1.574,2.671-3.922,3.53-6.723,3.919c-4.246,0.59-8.539,0.419-12.791,0.917
		c-4.292,0.502-8.335,1.732-12.185,3.66c-3.162,1.584-6.224,3.316-8.859,5.721c-3.198,2.918-5.42,6.578-7.704,10.174
		c-1.896,2.985-3.915,5.879-5.962,8.757c-0.143,0.2-0.312,0.384-0.492,0.554c-1.173,1.108-1.611,0.984-2.066-0.658
		c-1.094-3.954-2.399-7.854-3.062-11.922c-0.132-0.807-0.419-1.587-0.648-2.375c-0.091-0.312-0.221-0.613-0.332-0.918
		c-0.041,0.289-0.143,0.585-0.111,0.867c0.227,2.123,0.46,4.246,0.73,6.363c0.385,3.017,0.793,6.029,1.214,9.041
		c0.145,1.037,0,1.569-1.272,1.219c-1.897-0.524-3.838-0.889-5.754-1.344c-1.79-0.426-3.131-1.359-3.705-3.223
		c-0.469-1.521-1.211-2.879-2.695-3.672l-0.072-0.074L14.905,73.198z"/>
	<path fill-rule="evenodd" clip-rule="evenodd" d="M53.854,5.475c4.694-0.146,9.092,0.308,13.303,1.909
		c2.416,0.918,4.912,1.289,7.467,1.396c1.002,0.042,1.967,0.213,2.83,0.735c1.09,0.658,1.521,1.78,1.027,2.71
		c-0.57,1.079-1.484,0.8-2.365,0.504c-0.543-0.183-1.057-0.485-1.611-0.604c-0.975-0.207-1.945-0.262-2.803,0.459
		c-1.213,1.021-1.23,2.146,0.102,2.994c0.898,0.572,1.889,1.006,2.652,1.773c0.912,0.915,0.877,1.364-0.094,2.217
		c-0.934,0.822-1.996,1.121-3.201,0.794c-0.473-0.128-0.92-0.353-1.385-0.512c-2.191-0.749-2.203-0.739-2.559,1.522
		c-0.523,3.316-2.674,4.875-5.925,4.292c-0.322-0.058-0.637-0.167-0.961-0.218c-3.542-0.548-4.067-0.143-4.56,3.464
		c-0.078,0.569-0.192,1.135-0.314,1.696c-0.508,2.328-1.908,3.523-4.289,3.663c-2.319,0.136-4.583-0.245-6.844-0.71
		c-2.189-0.452-4.362-0.594-6.549,0.194c-2.346,0.846-3.871,2.377-4.57,4.763c-0.783,2.677-1.699,5.322-2.344,8.032
		c-0.521,2.194-1.478,4.177-2.507,6.126c-1.313,2.488-3.342,4.04-6.297,4.022c-3.319-0.02-6.466,1.072-9.719,1.478
		c-1.222,0.152-2.456,0.221-3.667,0.427c-0.525,0.089-1.248,0.113-1.435,0.762c-0.194,0.676,0.412,1.024,0.871,1.342
		c0.813,0.562,1.662,1.076,2.237,1.908c0.525,0.762,0.719,1.41-0.327,2.009c-1.313,0.753-1.661,1.959-1.184,3.399
		c0.279,0.842,0.249,1.596-0.528,2.215c-1.52,1.213-1.496,2.795-1.023,4.484c0.774,2.766,1.629,5.51,2.029,8.368
		c0.184,1.308,0.307,2.614,0.226,3.931c-0.013,0.201-0.172,0.468-0.343,0.566c-0.252,0.144-0.454-0.107-0.615-0.285
		c-0.729-0.808-1.221-1.775-1.559-2.781c-0.653-1.951-1.931-3.484-3.447-4.703c-1.85-1.487-2.54-3.37-1.986-5.447
		c0.978-3.67,0.234-6.977-1.349-10.25c-0.69-1.43-0.581-2.759,0.336-4.172c2.495-3.843,3.917-8.058,4.448-12.654
		c0.375-3.25,1.26-6.444,1.974-9.651c0.489-2.193,2.273-3.574,3.523-5.281c0.586-0.8,1.168-1.536,1.459-2.522
		c0.752-2.551,2.448-4.366,4.634-5.828c2.611-1.746,4.896-3.806,6.629-6.516c1.703-2.667,4.195-4.618,6.955-6.125
		c2.735-1.494,5.557-2.811,8.589-3.67C43.791,6.281,48.833,5.223,53.854,5.475z"/>
	<path fill-rule="evenodd" clip-rule="evenodd" d="M125.588,65.668c0.102,1.811-0.199,2.977-0.719,4.127
		c-0.676,1.501-0.584,2.894,0.299,4.426c1.057,1.833,1.822,3.858,2.52,5.868c0.922,2.665,0.004,4.264-2.662,5.032
		c-2.389,0.688-2.572,0.905-2.842,3.342c-0.209,1.898-0.268,1.995-2.188,2.273c-0.973,0.142-1.967,0.129-2.947,0.22
		c-1.777,0.164-2.1,0.465-2.27,2.248c-0.084,0.898-0.035,1.808-0.08,2.711c-0.121,2.462-1.953,4.778-4.277,5.434
		c-1.584,0.446-2.283-0.142-2.277-1.837c0.004-1.309,0.641-2.394,1.266-3.426c1.566-2.581,2.613-5.228,2.396-8.35
		c-0.139-2.014,0.744-3.848,1.893-5.496c2.818-4.047,2.139-6.766-0.186-9.616c-1.805-2.216-3.451-4.591-4.928-7.039
		c-2.197-3.64-3.283-7.659-1.891-11.797c1.617-4.804,1.547-9.679,1.441-14.604c-0.021-0.983-0.035-1.981,0.104-2.95
		c0.137-0.953,0.721-1.552,1.734-0.979c1.336,0.758,2.643,0.581,4.033,0.195c2.014-0.559,2.051-0.49,2.883,1.496
		c0.875,2.089,0.906,4.332,1.133,6.525c0.32,3.115,0.977,5.973,3.814,7.888c1.223,0.825,1.723,2.189,1.705,3.664
		c-0.035,3.055-0.021,6.075,1.764,8.778C125.766,64.494,125.559,65.406,125.588,65.668z"/>
	<path fill-rule="evenodd" clip-rule="evenodd" d="M128.207,53.083c-0.078,2.375-0.033,4.444-1.176,6.292
		c-0.219,0.354-0.412,0.803-0.861,0.731c-0.428-0.067-0.605-0.509-0.684-0.934c-0.295-1.619-0.598-3.244-0.5-4.896
		c0.145-2.458-0.943-4.377-2.832-5.702c-1.383-0.969-1.852-2.261-2.127-3.707c-0.566-2.98-1.045-5.979-1.537-8.973
		c-0.125-0.747-0.453-1.396-0.779-2.061c-0.482-0.981-1.273-1.231-2.256-1.018c-0.641,0.14-1.314,0.265-1.885,0.565
		c-2.393,1.265-4.367-0.104-5.488-2.505c-1.305-2.797-1.949-3.247-5.127-3.118c-2.771,0.113-5.508,0.501-8.287-0.301
		c-3.072-0.887-5.617-2.265-6.949-5.328c-1.201-2.758-3.506-4.48-5.848-6.14c-1.02-0.722-1.83-1.301-1.012-2.766
		c0.518-0.928,0.395-2.101,0.08-3.144c-0.244-0.811-0.133-1.228,0.811-1.258c3.961-0.125,7.701,0.423,10.711,3.343
		c0.99,0.96,2.305,1.313,3.568,1.545c2.086,0.383,3.588,1.404,4.768,3.151c1.553,2.304,3.617,3.858,6.389,4.715
		c3.344,1.033,5.975,3.366,8.465,5.785c3.846,3.737,7.084,7.938,9.607,12.676c1.09,2.046,1.779,4.262,2.223,6.506
		C127.926,48.792,128.002,51.111,128.207,53.083z"/>
</g>
</svg>
