<?xml version="1.0" encoding="utf-8"?>
<!-- Generator: Adobe Illustrator 16.0.4, SVG Export Plug-In . SVG Version: 6.00 Build 0)  -->
<!DOCTYPE svg PUBLIC "-//W3C//DTD SVG 1.1//EN" "http://www.w3.org/Graphics/SVG/1.1/DTD/svg11.dtd">
<svg version="1.1" id="Layer_0705" xmlns="http://www.w3.org/2000/svg" xmlns:xlink="http://www.w3.org/1999/xlink" x="0px" y="0px"
	 width="128px" height="128px" viewBox="0 0 128 128" enable-background="new 0 0 128 128" xml:space="preserve">
<g>
	<path fill-rule="evenodd" clip-rule="evenodd" d="M68.944,121.243c-4.039,0.127-8.116-0.774-12.12-2.101
		c-1.024-0.339-1.968-0.845-2.839-1.471c-2.868-2.061-3.522-4.329-2.402-7.696c0.912-2.746,2.935-4.716,4.625-6.92
		c0.9-1.173,1.95-2.231,2.827-3.42c1.811-2.455,0.811-4.691-2.24-5.096c-2.902-0.383-5.503,0.737-8.124,1.705
		c-0.768,0.283-1.472,0.734-2.309,0.833c-2.1,0.246-3.17-0.651-3.032-2.782c0.164-2.535,1.396-4.705,2.73-6.784
		c1.156-1.801,2.326-3.592,3.178-5.555c1.134-2.61,0.738-3.841-1.572-5.451c-3.077-2.146-6.5-3.486-10.147-4.229
		c-2.36-0.482-3.589,0.705-3.36,3.134c0.085,0.895,0.327,1.777,0.54,2.655c1.641,6.796-1.712,9.448-6.586,10.962
		c-3.364,1.045-6.784,0.644-10.062-0.987c-5.092-2.534-6.481-7.577-4.443-12.511c0.938-2.269,1.932-4.544,3.561-6.46
		c1.171-1.376,1.662-3.024,1.563-4.818c-0.102-1.835-1.233-2.673-3.018-2.175c-1.833,0.51-3.515,1.402-5.108,2.431
		c-1.502,0.972-3.146,1.4-4.904,1.441c-3.632,0.085-5.721-2.205-5.179-5.805c0.393-2.61,1.232-5.136,2.313-7.518
		c1.866-4.112,4.016-8.07,6.855-11.647c2.787-3.514,5.911-6.607,9.805-8.835c1.89-1.082,3.132-2.631,3.997-4.545
		c1.695-3.749,3.61-7.379,5.927-10.779c1.336-1.962,2.75-3.875,4.561-5.46c2.134-1.87,4.392-1.861,6.617-0.014
		c1.492,1.238,2.44,2.88,3.54,4.411c1.674,2.33,3.202,2.764,5.926,1.728c1.796-0.683,3.068-2.208,4.851-2.901
		c0.377-0.146,0.693-0.445,1.061-0.625c2.588-1.261,4.507-0.429,5.326,2.313c0.332,1.11,0.396,2.256,0.474,3.411
		c0.15,2.222,1.32,2.793,3.062,1.415c2.397-1.895,3.675-4.407,3.38-7.537c-0.125-1.326-0.185-2.613,0.234-3.904
		c0.647-1.999,2.179-3.098,4.273-2.885c1.486,0.152,2.911,0.559,4.09,1.565c0.312,0.268,0.629,0.533,0.972,0.759
		c1.097,0.727,2.126,1.759,3.333,2.056c1.184,0.29,2.066-1.07,3.098-1.662c5.041-2.891,10.291-2.554,15.536-0.96
		c2.572,0.781,5.074,1.881,7.188,3.705c0.898,0.773,1.635,1.582,2.16,2.632c1.172,2.342,0.438,4.585-1.96,5.738
		c-1.883,0.904-3.904,1.25-5.977,1.356c-1.56,0.08-3.136,0.105-4.597,0.76c-1.235,0.553-1.473,1.226-0.682,2.321
		c2.629,3.636,7.641,6.665,12.128,5.22c2.772-0.892,4.069,0.601,3.395,3.427c-0.286,1.197-0.797,2.342-0.825,3.599
		c-0.024,1.052,0.446,1.555,1.512,1.341c0.643-0.129,1.281-0.296,1.899-0.512c2.219-0.772,4.334-0.546,6.464,0.411
		c2.742,1.231,4.307,3.292,4.523,6.251c0.285,3.893-0.352,7.637-3.139,10.565c-2.311,2.426-1.183,6.431,0.627,7.997
		c0.744,0.646,1.521,1.258,2.321,1.831c3.509,2.51,3.737,7.927,0.37,10.638c-3.109,2.504-6.476,3.244-10.363,1.685
		c-2.66-1.065-4.855-2.725-7.042-4.451c-0.914-0.72-1.86-1.373-2.904-1.852c-2.026-0.927-3.148-0.274-3.379,1.943
		c-0.059,0.555,0.086,1.138,0.172,1.702c0.408,2.683,1.027,5.339,1.123,8.06c0.152,4.374-2.938,7.135-7.345,6.571
		c-1.629-0.208-3.263-0.464-4.816-1.035c-3.171-1.164-4.968,0.416-5.454,3.4c-0.464,2.853-0.484,5.772,0.462,8.559
		c1.1,3.237,1.44,6.594,1.61,9.949c0.215,4.233-1.866,6.892-6.496,8.867C77.044,120.782,73.145,121.312,68.944,121.243z
		 M60.199,102.976c-0.164,0.166-0.326,0.334-0.49,0.501c-0.16,0.175-0.351,0.331-0.468,0.53c-0.095,0.16,0.07,0.26,0.199,0.093
		c0.136-0.175,0.163-0.435,0.235-0.658c0.163-0.169,0.324-0.337,0.486-0.506c0.175-0.167,0.35-0.335,0.522-0.502
		c1.889-0.931,2.683-2.78,3.692-4.438c2.42-3.97-0.922-8.089-4.336-8.396c-3.23-0.291-6.172,0.383-8.709,2.494
		c-0.136,0.144-0.593-0.175-0.459,0.294c0.019,0.069,0.367-0.095,0.422-0.335c0.99,0.133,1.944-0.093,2.905-0.28
		c1.653-0.324,3.265-0.035,4.806,0.521c3.313,1.192,4.491,4.393,2.877,7.52c-0.441,0.854-1.157,1.602-1.165,2.65
		C60.544,102.635,60.372,102.805,60.199,102.976z M101.235,55.524l-0.092,0.066l0.066-0.093l0.093-0.069L101.235,55.524z
		 M99.272,58.487c-0.317-0.038-0.472,0.146-0.565,0.413c-1.855,2.195-3.753,4.35-5.78,6.392c-2.494,2.509-5.327,4.494-8.876,4.972
		c-5.229,0.704-10.508,0.688-15.778,0.654c-0.926-0.006-1.576-0.347-1.979-1.181c-0.856-1.774-1.759-3.527-2.561-5.325
		c-0.565-1.264-0.347-1.575,1.16-1.427c2.971,0.294,5.926,0.057,8.874-0.173c4.522-0.353,8.747-1.52,11.905-5.103
		c0.867-0.984,1.841-1.91,2.528-3.011c1.378-2.206,3.332-4.057,4.115-6.628c0.615-0.306,0.82-0.879,0.969-1.489
		c0.175-0.169,0.35-0.338,0.524-0.508l0.103-0.067l-0.064,0.105c-0.174,0.17-0.349,0.34-0.522,0.51
		c-0.448,0.413-0.921,0.809-0.973,1.481c-2.882,2.67-4.974,6.075-8.077,8.552c-1.817,1.45-3.687,2.768-5.96,3.319
		c-4.725,1.146-9.623,1.093-14.386,1.998c-0.76,0.146-1.15-0.204-1.529-0.88c-1.174-2.088-1.877-4.379-2.917-6.521
		c-0.474-0.974,0.137-1.092,0.875-1.19c2.198-0.294,4.414-0.508,6.582-0.951c4.059-0.826,7.998-1.967,10.59-5.595
		c1.849-2.589,4.055-4.966,4.897-8.159c0.733-0.225,0.994-0.763,0.986-1.48c0.229-0.07,0.271-0.134,0.12-0.163
		c-0.016-0.003-0.058,0.127-0.087,0.196c-0.74,0.219-0.93,0.804-0.982,1.479c-1.192,1.545-2.376,3.098-3.577,4.635
		c-1.782,2.28-3.735,4.546-6.415,5.605c-4.197,1.66-8.688,2.413-13.111,3.327c-0.64,0.132-1.188,0.068-1.465-0.554
		c-0.88-1.972-2.274-3.607-3.465-5.373c-0.603-0.892-0.341-1.254,0.63-1.486c3.134-0.75,6.003-2.203,8.954-3.439
		c4.083-1.711,5.955-5.149,7.047-9.171c0.494-0.181,0.43-0.626,0.484-1.016c0.341-0.236,0.466-0.584,0.502-0.978
		c0.282-0.144,0.59-0.282,0.174-0.622c-0.046,0.218-0.093,0.436-0.138,0.654c-0.483,0.168-0.382,0.629-0.496,0.983
		c-0.445,0.196-0.494,0.589-0.494,1.004c-0.715,0.99-1.482,1.948-2.135,2.979c-1.304,2.058-3.004,3.545-5.191,4.717
		c-3.216,1.724-6.836,2.318-10.051,3.976c-0.565,0.291-1.122,0.294-1.501-0.326c-0.792-1.299-2.245-1.919-3.159-3.091
		c-0.695-0.892-2.498-1.355-2.232-2.362c0.309-1.164,2.075-0.887,3.215-1.126c4.229-0.885,6.699-3.181,7.666-8.743
		c0.106-0.105,0.224-0.203,0.314-0.321c0.024-0.031-0.033-0.125-0.053-0.189c-0.073,0.184-0.146,0.367-0.219,0.549
		c-0.789,1.245-1.642,2.453-2.348,3.742c-0.804,1.469-2.074,2.288-3.553,2.861c-1.068,0.414-2.155,0.781-3.247,1.127
		c-2.432,0.771-4.808,1.106-6.804-1.04c-0.105-0.114-0.282-0.163-0.425-0.243c-1.134-0.638-2.435-0.943-3.479-1.755
		c1.131-0.862,2.554-0.881,3.832-1.323c1.081-0.374,2.205-0.653,2.794-1.81c0.741-1.456,1.61-2.852,1.931-4.486
		c0.276-0.221,0.417-0.462,0.113-0.767c-0.099,0.204-0.196,0.408-0.293,0.612c-0.727,0.492-0.949,1.326-1.316,2.041
		c-0.885,1.725-2.349,2.879-4.095,3.33c-2.688,0.693-5.458,1.361-8.263,1.114c-6.032-0.532-10.586,2.128-14.523,6.338
		c-2.888,3.09-5.081,6.651-6.861,10.437C9.79,51.541,8.166,54.53,7.798,57.95C7.679,58.244,7.54,58.53,7.45,58.833
		c-0.041,0.138-0.008,0.431,0.04,0.441c0.412,0.094,0.194-0.262,0.219-0.396c0.06-0.312,0.04-0.64,0.052-0.96
		c0.889-1.262,1.44-2.69,2.063-4.09c2.243-5.04,5.021-9.75,9.058-13.573c1.593-1.51,3.367-2.873,5.445-3.731
		c2.205-0.912,2.252-0.815,3.491,1.095c1.459,2.249,1.606,4.556,0.764,7.013c-0.838,1.186-1.726,2.348-1.824,3.879
		c-0.003,0.036,0.086,0.078,0.133,0.118c0.811-1.235,1.623-2.47,1.657-4.025c1.373-1.703,1.47-3.534,0.565-5.477
		c-0.278-0.595-0.517-1.208-0.753-1.819c-0.751-1.945-0.698-2.164,1.271-2.341c4.358-0.391,8.208,1.115,11.799,3.435
		c0.362,0.234,0.553,0.588,0.65,1.004c0.555,2.379,1.442,4.743,0.334,7.2c-1.031,0.816-2.06,1.633-2.46,2.972
		c-0.653,0.286-0.972,0.793-0.986,1.499c-1.947,1.321-1.386,3.313-1.364,5.154c0.003,0.191,0.139,0.38,0.213,0.569
		c0.061-0.23,0.185-0.465,0.175-0.693c-0.08-1.762,0.439-3.411,0.939-5.063c0.566-0.343,0.931-0.821,0.984-1.501
		c1.46-0.452,1.957-1.713,2.483-2.952c1.342-0.664,1.495-1.852,1.272-3.12c-0.156-0.884-0.498-1.735-0.733-2.606
		c-0.108-0.395-0.193-0.868,0.211-1.106c0.281-0.166,0.612,0.062,0.879,0.281c3.547,2.918,7.059,5.865,9.79,9.621
		c1.351,1.856,1.427,3.734,0.151,5.643c-0.866,1.299-1.61,2.679-2.508,3.954c-1.557,2.212-1.187,4.509-0.435,6.84
		c0.09,0.277,0.338,0.505,0.514,0.755c-0.008-0.321,0.041-0.656-0.032-0.961c-0.672-2.765-0.583-5.383,1.37-7.678
		c1.229-1.444,2.399-2.917,2.806-4.849c0.155-0.737,0.484-0.415,0.733-0.014c0.173,0.278,0.351,0.559,0.486,0.855
		c1.935,4.259,3.929,8.493,5.77,12.792c1.107,2.584,1.15,5.104-1.22,7.195c-0.598,0.529-1.13,1.203-1.235,2.077
		c-0.628,0.249-0.905,0.783-1.113,1.374c-1.003,0.93-1.17,2.191-1.058,3.403c0.128,1.394,0.203,2.783,0.254,4.179
		c0.01,0.283-0.064,0.616,0.256,0.811c0.059-0.313,0.175-0.629,0.169-0.941c-0.043-2.443-0.575-4.922,0.588-7.266
		c0.419-0.459,0.851-0.911,0.872-1.588c1.644-1.145,2.931-2.603,3.74-4.437c0.412-0.934,0.844-0.981,1.296-0.118
		c2.267,4.333,5.227,8.11,8.908,11.329c0.361,0.316,0.862,0.708,0.91,1.111c0.314,2.643,1.684,5.229,0.498,7.961
		c-2.015,1.091-3.178,2.86-3.936,4.949c-0.532,0.15-0.474,0.598-0.501,1.001c-0.885,1.24-0.271,2.645-0.423,3.965
		c-0.031,0.268-0.076,0.602,0.219,0.809c0.057-0.309,0.157-0.619,0.162-0.93c0.018-1.291,0.006-2.582,0.004-3.875
		c0.423-0.207,0.419-0.627,0.5-1.004c1.445-1.543,2.754-3.195,3.957-4.933c1.447-1.024,0.914-2.501,0.832-3.847
		c-0.055-0.897-0.326-1.779-0.393-2.678c-0.062-0.815,0.413-1.059,1.074-0.602c1.033,0.718,2.178,1.152,3.372,1.474
		c0.302,0.08,0.639,0.028,0.959,0.036c-0.038-0.369-0.375-0.474-0.614-0.626c-3.077-1.942-5.858-4.245-8.248-6.984
		c-1.454-1.663-3.002-3.267-4.074-5.237c-0.504-0.926-0.136-1.213,0.762-1.116c5.127,0.548,10.175-0.405,15.249-0.825
		c2.865-0.236,5.421-1.22,7.385-3.48c2.527-2.91,5.188-5.711,7.012-9.157c0.258-0.105,0.376-0.307,0.399-0.575
		c0.171-0.168,0.343-0.334,0.514-0.503c0.156-0.323,0.312-0.646,0.468-0.969c0.041-0.044,0.081-0.087,0.12-0.132
		c-0.026,0.057-0.055,0.113-0.082,0.169c-0.37,0.224-0.4,0.608-0.467,0.977C99.483,58.018,99.294,58.167,99.272,58.487z
		 M19.159,71.286c0.283-0.043,0.496-0.156,0.49-0.487c0.333,0.004,0.478-0.184,0.497-0.494c1.617-1.298,2.732-2.946,3.401-4.898
		c0.374-1.095,0.587-2.178,0.168-3.346c-0.826-2.312-2.294-3.996-4.721-4.495c-2.5-0.513-4.667,0.238-6.221,2.385
		c-0.043,0.05-0.085,0.1-0.128,0.148c0.03-0.063,0.06-0.124,0.089-0.187c0.857-0.238,1.731-0.431,2.57-0.727
		c0.887-0.314,1.721-0.298,2.611,0.006c2.854,0.975,4.172,3.282,3.717,6.521c-0.23,1.627-1.04,3.063-1.449,4.627
		c-0.272,0.059-0.443,0.218-0.497,0.495c-0.27,0.055-0.437,0.216-0.49,0.489c-0.223,0.077-0.265,0.141-0.121,0.157
		C19.096,71.483,19.131,71.354,19.159,71.286z M76.51,11.984c0.172,0.167,0.345,0.333,0.518,0.501
		c0.847,1.618,1.91,3.052,3.536,3.969c1.609,0.907,2.921,0.713,4.187-0.613c0.563-0.59,1.104-1.203,1.464-1.959
		c0.39-0.821,0.931-1.529,1.681-2.079c0.417-0.305,1.303-0.588,1.033-1.048c-0.261-0.447-1.068,0.006-1.545,0.291
		c-0.91,0.545-1.773,1.168-2.653,1.766c-0.54,0.369-1.075,0.749-1.609,1.126c-1.314,0.925-2.557,0.822-3.845-0.129
		c-0.696-0.514-1.235-1.379-2.285-1.292c-0.021-0.327-0.201-0.482-0.521-0.49c-0.004-0.401-0.164-0.732-0.444-1.012l-0.088-0.085
		l0.102,0.075C76.196,11.332,76.354,11.658,76.51,11.984z M27.592,55.474c0.077,0.168,0.156,0.336,0.234,0.505
		c0.018-0.066,0.072-0.162,0.049-0.19c-0.094-0.106-0.211-0.189-0.319-0.283c0.137-1.764-1.083-3.258-1.011-5.013
		c0.006-0.143-0.117-0.291-0.179-0.436c-0.065,0.208-0.194,0.418-0.186,0.624C26.252,52.393,26.419,54.083,27.592,55.474z
		 M56.737,16.948c-1.526,0.623-2.815,1.648-4.224,2.465c-4.5,2.61-8.095,2.072-11.006-2.344c-0.403-0.612-0.685-1.306-1.246-1.806
		c-0.155-0.137-0.356-0.219-0.535-0.327c0.051,0.22,0.063,0.459,0.161,0.657c0.789,1.616,1.451,3.315,2.419,4.818
		c2.306,3.578,6.246,4.376,9.56,1.927c1.968-1.453,3.808-3.101,4.833-5.431c0.063-0.008,0.131-0.003,0.186-0.028
		c0.035-0.015,0.049-0.074,0.072-0.113C56.883,16.828,56.81,16.888,56.737,16.948z M40.35,66.416
		c-1.004,0.05-1.685-0.014-2.317,0.132c-4.62,1.066-6.903,3.023-6.896,7.018c0.001,0.349,0.106,0.698,0.163,1.048
		c0.051-0.323,0.097-0.647,0.154-0.97c0.467-2.636,2.905-4.67,5.399-4.274c4.421,0.701,8.691,1.958,12.343,4.656
		c2.317,1.712,4.187,3.793,3.3,7.084c-0.059,0.217,0.027,0.476,0.045,0.714c0.147-0.164,0.337-0.306,0.438-0.496
		c1.842-3.479,1.346-7.706-1.349-10.236C48.382,68.038,44.435,66.605,40.35,66.416z M102.847,65.868
		c-3.935-0.03-6.696,2.456-6.501,6.079c0.161,2.989,1.337,5.711,2.776,8.311c0.087,0.158,0.165,0.474,0.451,0.294
		c0.084-0.054,0.083-0.31,0.058-0.463c-0.239-1.452-0.476-2.905-0.746-4.354c-0.389-2.079-0.199-4.067,0.768-5.978
		c0.491-0.974,1.226-1.465,2.308-1.562c1.785-0.161,3.411,0.262,4.932,1.177c0.913,0.548,1.826,1.094,2.742,1.636
		c0.211,0.125,0.457,0.26,0.645,0.007c0.05-0.065-0.059-0.293-0.144-0.411C108.311,68.091,106.264,65.917,102.847,65.868z
		 M101.591,33.595c-0.158,0,0.011,0.023,0.171-0.005c0.371-0.065,0.976,0.148,1.03-0.348c0.057-0.496-0.588-0.438-0.927-0.542
		c-3.506-1.083-6.318-3.082-8.322-6.177c-1.126-1.742-1.321-3.49,0.004-5.236c0.138-0.181,0.392-0.503,0.349-0.555
		c-0.289-0.345-0.59-0.071-0.856,0.087c-1.862,1.104-3.137,2.548-3.235,4.884c-0.11,2.622,1.174,4.341,3.225,5.693
		C95.534,33.049,98.392,33.346,101.591,33.595z M115.535,58.327c-0.295,4.331,2.484,6.925,4.854,7.74
		c0.233,0.079,0.474,0.228,0.651-0.033c0.037-0.054-0.135-0.274-0.235-0.396c-0.209-0.253-0.441-0.485-0.652-0.735
		c-3.453-4.096-3.502-7.488-0.135-11.636c1.07-1.32,1.454-2.911,1.893-4.484c0.062-0.217,0.037-0.64-0.07-0.686
		c-0.253-0.109-0.283,0.222-0.368,0.397c-0.997,2.016-2.472,3.637-4.08,5.187C116.038,54.986,115.4,56.673,115.535,58.327z
		 M71.562,16.563c-0.024-0.539-0.012-0.953-0.07-1.356c-0.046-0.331,0.108-0.714-0.21-0.989c-0.051,0.319-0.126,0.637-0.146,0.958
		c-0.146,2.299-1.165,4.248-2.516,6.028c-1.74,2.292-3.769,4.083-6.979,3.429c-0.138-0.029-0.292,0.015-0.438,0.025
		c0.136,0.159,0.242,0.396,0.414,0.459c0.3,0.111,0.644,0.101,0.962,0.165C66.823,26.144,72.093,21.097,71.562,16.563z M38.35,59.5
		c-0.059-0.367-0.108-0.669-0.158-0.974c-0.046,0.291-0.125,0.58-0.131,0.869c-0.007,0.308,0.055,0.617,0.087,0.926
		C38.22,60.032,38.291,59.744,38.35,59.5z M122.167,46.674c0.083-0.305,0.139-0.427,0.145-0.551c0.01-0.243,0.013-0.49-0.023-0.729
		c-0.028-0.19-0.108-0.144-0.118,0.13C122.158,45.845,122.167,46.167,122.167,46.674z M90.474,10.367
		c0.107-0.041,0.217-0.081,0.324-0.121c-0.065-0.029-0.136-0.089-0.194-0.081c-0.111,0.018-0.217,0.075-0.324,0.115
		C90.344,10.309,90.408,10.338,90.474,10.367z M52.117,83.059l-0.131-0.011l0.052,0.222L52.117,83.059z"/>
</g>
</svg>
