<?xml version="1.0" encoding="utf-8"?>
<!-- Generator: Adobe Illustrator 16.0.4, SVG Export Plug-In . SVG Version: 6.00 Build 0)  -->
<!DOCTYPE svg PUBLIC "-//W3C//DTD SVG 1.1//EN" "http://www.w3.org/Graphics/SVG/1.1/DTD/svg11.dtd">
<svg version="1.1" id="Layer_0707" xmlns="http://www.w3.org/2000/svg" xmlns:xlink="http://www.w3.org/1999/xlink" x="0px" y="0px"
	 width="128px" height="128px" viewBox="0 0 128 128" enable-background="new 0 0 128 128" xml:space="preserve">
<g id="nGgfBp.tif">
	<g>
		<path fill-rule="evenodd" clip-rule="evenodd" d="M127.965,19.149c-0.228,3.139-0.703,5.251-2.131,7.133
			c-1.722,2.271-2.718,4.894-3.147,7.722c-0.511,3.354-1.285,6.624-2.729,9.728c-1.24,2.663-2.745,5.162-4.339,7.612
			c-1.346,2.066-2.781,4.075-4.188,6.102c-0.733,1.055-1.312,2.123-1.159,3.497c0.15,1.354-0.686,2.114-1.857,2.568
			c-1.517,0.587-2.895,1.365-4.001,2.598c-0.489,0.545-0.73,1.078-0.734,1.835c-0.016,1.979-0.681,2.62-2.723,2.645
			c-0.82,0.012-1.437,0.31-1.986,0.853c-1.388,1.373-2.757,2.766-4.168,4.111c-0.533,0.509-0.727,1.127-0.916,1.794
			c-0.368,1.285-1.075,2.378-2.483,2.576c-2.76,0.388-4.752,2.125-6.873,3.664c-6.101,4.422-12.603,8.142-19.423,11.346
			c-4.989,2.343-10.135,4.271-15.274,6.229c-1.184,0.451-2.331,0.963-3.361,1.71c-1.094,0.792-2.331,1.293-3.658,1.401
			c-3.221,0.263-6.096,1.555-8.94,2.917c-2.589,1.239-5.18,2.419-8.003,3.063c-2.118,0.484-4.194,1.145-6.218,1.976
			c-2.44,1.001-4.89,1.012-7.334-0.16c-1.715-0.822-3.617-1.082-5.462-1.458c-1.647-0.336-2.995-0.985-4.001-2.39
			c-0.935-1.306-1.935-2.556-2.572-4.051c-0.388-0.909-0.361-1.729,0.17-2.603c0.751-1.231,1.245-2.609,1.474-4.016
			c0.248-1.523,1.179-2.386,2.455-2.833c1.572-0.551,2.647-1.534,3.415-2.955c0.862-1.6,2.133-2.524,4.036-2.361
			c1.055,0.091,1.88-0.313,2.564-1.123c1.18-1.393,2.551-2.483,4.493-2.556c0.367-0.014,0.66-0.147,0.87-0.463
			c0.845-1.271,2.171-1.832,3.521-2.335c0.974-0.361,1.903-0.769,2.707-1.458c0.846-0.727,1.99-0.848,2.959-1.346
			c3.776-1.942,7.435-4.094,11.056-6.305c3.131-1.912,6.194-3.936,9.317-5.862c0.805-0.496,1.494-1.041,1.942-1.883
			c0.424-0.796,1.089-1.271,1.96-1.558c2.647-0.874,4.995-2.354,7.149-4.054c2.833-2.235,5.5-4.686,8.231-7.051
			c1.14-0.987,2.12-2.066,2.504-3.611c0.215-0.861,0.79-1.512,1.757-1.698c2.057-0.397,3.464-1.745,4.623-3.349
			c1.032-1.429,2.157-2.661,3.92-3.173c0.911-0.265,1.547-0.966,2.205-1.606c2.963-2.878,5.812-5.877,8.979-8.543
			c3.65-3.074,7.505-5.839,11.883-7.811c1.641-0.739,3.355-1.219,5.144-1.267c1.495-0.04,2.481-0.795,3.253-1.928
			c2.425-3.567,5.987-5.029,10.089-5.368C125.936,14.809,128.208,16.886,127.965,19.149z"/>
	</g>
</g>
</svg>
