<?xml version="1.0" encoding="utf-8"?>
<!-- Generator: Adobe Illustrator 16.0.4, SVG Export Plug-In . SVG Version: 6.00 Build 0)  -->
<!DOCTYPE svg PUBLIC "-//W3C//DTD SVG 1.1//EN" "http://www.w3.org/Graphics/SVG/1.1/DTD/svg11.dtd">
<svg version="1.1" id="Layer_0708" xmlns="http://www.w3.org/2000/svg" xmlns:xlink="http://www.w3.org/1999/xlink" x="0px" y="0px"
	 width="128px" height="128px" viewBox="0 0 128 128" enable-background="new 0 0 128 128" xml:space="preserve">
<g>
	<g id="_x34_Sn1ku.tif">
		<g>
			<path fill-rule="evenodd" clip-rule="evenodd" d="M51.471,52.705c14.027-0.193,22.501,9.814,20.791,21.696
				c-0.934,6.47-3.673,12.205-7.266,17.515c-8.293,12.251-18.234,22.931-31.063,30.537c-6.609,3.915-13.65,6.372-21.521,3.638
				c-7.833-2.717-12.895-10.175-12.387-18.48c0.515-8.414,4.339-15.485,9.139-22.086c8.098-11.126,17.465-20.982,29.368-28.138
				C43.211,54.574,48.242,52.725,51.471,52.705z M5.424,119.946c0.429-2.12,0.379-3.807,2.906-3.525
				c4.402,0.494,5.223-0.297,5.462-4.699c0.07-1.295,0.257-2.425,1.771-2.522c2.69-0.172,5.398-0.197,7.75,1.424
				c2.958,2.036,4.99,1.953,7.683-0.415c2.763-2.429,2.725-3.776-0.149-5.905c-2.402-1.778-2.522-2.644-0.582-5.027
				c0.564-0.695,1.225-1.308,1.847-1.954c2.805-2.917,2.805-2.917,5.84-0.287c1.234,1.062,5.033,0.969,6.278-0.226
				c1.616-1.548,0.525-3.011-0.353-4.333c-1.192-1.8-1.001-3.207,0.523-4.763c1.825-1.867,1.662-3.482-0.272-5.318
				c-1.662-1.582-3.648-2.562-5.923-2.996c-3.26-0.623-3.569-1.337-1.613-3.874c0.861-1.109,0.909-1.943,0.004-3.077
				c-1.613-2.018-0.792-3.854,1.844-4.151c1.324-0.149,2.696,0.158,4.026,0.019c2.53-0.266,3.358-2.128,2.008-4.224
				c-0.695-1.081-1.729-1.477-2.934-1.67c-1.766-0.283-3.581-0.523-4.435-2.359c-1.482,0.406-2.436,1.249-3.433,1.992
				c-8.621,6.448-16.01,14.124-22.417,22.753c-4.594,6.184-8.316,12.812-9.671,20.52C0.672,110.524,1.8,115.248,5.424,119.946z
				 M60.547,95.36c5.073-4.753,12.129-18.148,10.439-27.344c-0.439-2.397-1.093-4.844-3.143-6.693
				c-0.693,1.501-0.791,2.943-0.715,4.356c0.181,3.249-0.629,5.94-3.379,8.011c-1.916,1.438-2.638,3.542-2.135,5.983
				c0.307,1.462,0.154,2.784-0.957,3.984c-1.031,1.109-1.211,2.441,0.064,3.555c1.231,1.077,1.124,2.052,0.112,3.208
				C59.499,91.947,59.576,93.59,60.547,95.36z"/>
			<path fill-rule="evenodd" clip-rule="evenodd" d="M33.506,65.781C21.171,79.029,8.024,90.796,4.143,108.683
				c-0.546-4.01,0.566-8.002,2.213-11.85c4-9.348,10.441-16.91,17.773-23.777C26.856,70.5,29.583,67.91,33.506,65.781z"/>
		</g>
	</g>
	<g id="_x34_Sn1ku.tif_1_">
		<g>
			<path fill-rule="evenodd" clip-rule="evenodd" d="M127.596,42.926c2.429,13.816-6.099,23.779-18.101,23.988
				c-6.538,0.115-12.64-1.676-18.453-4.376c-13.415-6.232-25.544-14.34-35.102-25.791c-4.921-5.896-8.473-12.455-7.031-20.666
				c1.437-8.163,7.992-14.352,16.266-15.177c8.393-0.835,15.984,1.812,23.266,5.5c12.271,6.215,23.499,13.89,32.466,24.501
				C124.43,35.078,127.059,39.746,127.596,42.926z M53.863,8.207c2.162,0.081,3.819-0.235,3.939,2.303
				c0.22,4.428,1.131,5.109,5.518,4.642c1.288-0.135,2.433-0.131,2.769,1.348c0.603,2.626,1.061,5.296-0.166,7.88
				c-1.537,3.242-1.13,5.238,1.638,7.518c2.836,2.337,4.164,2.086,5.804-1.09c1.377-2.655,2.211-2.908,4.869-1.378
				c0.779,0.447,1.489,1.003,2.224,1.514c3.325,2.302,3.325,2.302,1.22,5.72c-0.857,1.384-0.155,5.12,1.226,6.162
				c1.785,1.347,3.054,0.037,4.219-1.042c1.587-1.467,3.007-1.501,4.785-0.245c2.134,1.503,3.702,1.088,5.207-1.117
				c1.296-1.896,1.946-4.013,2.013-6.327c0.093-3.315,0.749-3.738,3.569-2.208c1.227,0.671,2.06,0.584,3.035-0.491
				c1.731-1.914,3.671-1.397,4.393,1.16c0.356,1.283,0.274,2.689,0.624,3.978c0.668,2.456,2.637,2.975,4.488,1.307
				c0.959-0.856,1.183-1.941,1.183-3.159c-0.004-1.792-0.057-3.622,1.621-4.752c-0.638-1.405-1.621-2.208-2.515-3.07
				c-7.741-7.484-16.502-13.554-26.043-18.503C82.645,4.805,75.51,2.188,67.686,2.082C62.405,2.009,57.923,3.876,53.863,8.207z
				 M86.935,58.695c5.501,4.25,19.851,9.076,28.656,5.941c2.298-0.816,4.608-1.851,6.107-4.171c-1.592-0.445-3.033-0.313-4.415-0.01
				c-3.179,0.697-5.966,0.329-8.446-2.055c-1.73-1.661-3.919-2.04-6.252-1.151c-1.39,0.532-2.723,0.595-4.083-0.312
				c-1.266-0.84-2.602-0.803-3.495,0.632c-0.869,1.389-1.851,1.438-3.153,0.622C90.131,57.116,88.523,57.455,86.935,58.695z"/>
			<path fill-rule="evenodd" clip-rule="evenodd" d="M111.816,27.281C96.767,17.217,83.055,6.118,64.773,5.141
				c3.876-1.175,7.996-0.718,12.055,0.293c9.868,2.458,18.361,7.608,26.31,13.751C106.098,21.471,109.088,23.748,111.816,27.281z"/>
		</g>
	</g>
</g>
</svg>
