<?xml version="1.0" encoding="utf-8"?>
<!-- Generator: Adobe Illustrator 16.0.4, SVG Export Plug-In . SVG Version: 6.00 Build 0)  -->
<!DOCTYPE svg PUBLIC "-//W3C//DTD SVG 1.1//EN" "http://www.w3.org/Graphics/SVG/1.1/DTD/svg11.dtd">
<svg version="1.1" id="Layer_0709" xmlns="http://www.w3.org/2000/svg" xmlns:xlink="http://www.w3.org/1999/xlink" x="0px" y="0px"
	 width="128px" height="128px" viewBox="0 0 128 128" enable-background="new 0 0 128 128" xml:space="preserve">
<g>
	<path fill-rule="evenodd" clip-rule="evenodd" d="M14.604,46.65c0.062-0.015,0.141-0.011,0.183-0.048
		c2.494-2.234,3.93-2.228,6.597-0.085c3.295,2.646,5.419,6.164,7.344,9.815c2.106,3.996,3.701,8.192,4.416,12.677
		c0.301,1.886,0.392,3.788-0.222,5.645c-0.544,1.646-1.632,2.791-3.403,2.881c-5.396,0.273-10.16-1.16-13.744-5.47
		c-1.182-1.419-1.956-3.103-2.862-4.696c-0.437-0.767-0.622-1.661-0.608-2.563c0.059-3.928,0.061-7.859,0.59-11.76
		c0.103-0.76,0-1.332-0.542-1.891c-1.773-1.828-3.61-3.574-6.083-4.403c-0.708-0.238-0.791-0.69-0.888-1.269
		c-0.396-2.357-0.132-4.673,0.432-6.964c1.248-5.068,3.506-9.625,6.996-13.531c1.317-1.474,2.773-2.803,4.687-3.467
		c0.652-0.226,0.901-0.595,0.884-1.254c-0.02-0.696,0.033-1.394,0.025-2.091c-0.026-2.456,1.06-4.396,2.836-5.977
		c0.801-0.713,1.668-1.373,2.583-1.932c1.36-0.831,1.929-0.736,2.843,0.605c0.578,0.848,0.822,0.672,1.271-0.042
		c0.812-1.29,1.75-2.488,2.879-3.524c1.227-1.125,2.562-1.928,4.285-1.183c0.641,0.276,0.771-0.159,0.976-0.539
		c0.45-0.835,0.863-1.691,1.345-2.508c0.286-0.487,0.635-0.952,1.022-1.364c1.44-1.528,2.657-1.479,3.942,0.157
		c1.033,1.314,1.588,2.873,2.174,4.412c0.242,0.635,0.514,1.258,0.771,1.887c0.109-0.681,0.254-1.358,0.32-2.042
		c0.1-1.015,0.207-2.024,0.741-2.919c0.604-1.014,1.378-1.237,2.397-0.64c0.484,0.283,0.932,0.667,1.312,1.082
		c1.912,2.087,3.136,4.587,4.2,7.175c0.066,0.162,0.144,0.417,0.068,0.521c-0.217,0.294-0.453,0.017-0.645-0.088
		c-1.335-0.731-2.417-0.321-3.412,0.682c-0.964,0.97-0.996,0.973-1.994,0.031c-1.203-1.137-2.506-2.128-3.942-2.955
		c-2.083-1.199-4.032-1.177-5.981,0.353c-1.416,1.112-2.611,2.396-3.6,3.883c-0.412,0.622-0.752,0.948-1.453,0.27
		c-1.075-1.04-2.38-1.026-3.724-0.57c-1.466,0.498-2.71,1.37-3.884,2.343c-2.312,1.914-4.229,4.179-5.926,6.648
		c-0.501,0.729-0.609,1.484-0.623,2.328c-0.062,3.936,0.621,7.835,0.549,11.769c-0.029,1.583-0.09,3.164-0.145,4.746
		c-0.018,0.515-0.025,1.108-0.74,1.096c-1.102-0.019-1.992,0.369-2.633,1.243c-0.78,1.065-1.676,2.095-1.585,3.555
		c-0.058,0.097-0.351,0.103-0.118,0.31C14.545,46.873,14.575,46.761,14.604,46.65z"/>
	<path fill-rule="evenodd" clip-rule="evenodd" d="M80.927,106.001c3.551,0.1,7.074,0.422,10.493,1.473
		c1.579,0.485,3.102,1.111,4.396,2.178c1.747,1.441,2.082,2.73,1.293,4.83c-0.08,0.211-0.38,0.456-0.053,0.639
		c0.078,0.044,0.392-0.262,0.552-0.445c1.379-1.574,2.538-3.217,1.584-5.469c-0.286-0.676,0.273-0.891,0.669-1.167
		c1.617-1.126,3.378-2.001,5.176-2.788c2.721-1.192,5.465-2.338,8.207-3.48c0.988-0.412,1.629-1.098,2.1-2.063
		c1.336-2.746,2.41-5.571,2.934-8.592c0.219-1.26,0.248-2.527,0.084-3.786c-0.162-1.236-0.621-2.372-1.862-2.897
		c-0.886-0.376-0.909-0.8-0.488-1.589c0.929-1.74,1.521-3.582,1.701-5.584c0.179-1.994-0.636-3.423-2.098-4.604
		c-1.288-1.041-2.727-1.831-4.239-2.497c-1.237-0.544-1.262-0.567-0.816-1.89c0.426-1.266,0.336-2.368-0.79-3.23
		c-0.2-0.152-0.47-0.267-0.428-0.557c0.05-0.342,0.373-0.273,0.603-0.282c2.482-0.088,4.937,0.116,7.317,0.865
		c0.535,0.168,1.063,0.434,1.519,0.762c1.096,0.792,1.207,1.672,0.371,2.763c-0.748,0.977-1.798,1.58-2.846,2.179
		c-0.21,0.119-0.469,0.214-0.502,0.516c0.248,0.016,0.5,0.062,0.746,0.044c0.693-0.052,1.388-0.118,2.079-0.202
		c1.278-0.154,2.543-0.034,3.763,0.325c1.532,0.451,2.082,1.542,1.632,3.087c-0.45,1.546-1.31,2.873-2.322,4.104
		c-0.306,0.372-0.508,0.656-0.018,1.084c1.409,1.231,1.212,2.825,0.843,4.401c-0.351,1.488-1.021,2.86-1.768,4.187
		c-0.359,0.64-0.211,0.792,0.492,0.948c1.55,0.346,1.907,0.816,1.811,2.367c-0.1,1.578-0.38,3.139-0.999,4.615
		c-0.804,1.92-2.24,3.199-4.126,3.973c-1.137,0.467-1.604,1.094-1.393,2.425c0.251,1.58-0.26,3.15-0.791,4.641
		c-1.92,5.38-5.112,9.864-9.658,13.341c-1.256,0.96-2.655,1.701-4.174,2.206c-0.627,0.208-1.032,0.142-1.463-0.407
		c-1.613-2.052-4.068-2.691-6.317-3.676c-0.633-0.277-1.099,0-1.563,0.357c-2.625,2.025-5.702,3.27-8.535,4.936
		c-1.46,0.857-3.006,1.266-4.732,0.789c-0.781-0.215-1.641-0.119-2.449-0.26c-3.131-0.546-5.629-2.205-7.699-4.544
		c-1.308-1.476-2.379-3.124-3.197-4.921c-1.221-2.679-0.602-4.744,1.922-6.33c2.189-1.375,4.662-1.977,7.173-2.326
		C76.994,106.176,78.95,105.901,80.927,106.001z"/>
	<path fill-rule="evenodd" clip-rule="evenodd" d="M59.516,74.835c-2.718,1.679-5.743,2.613-8.744,3.607
		c-0.417,0.139-0.93,0.447-1.254,0.13c-0.441-0.433,0.199-0.739,0.384-1.073c1.313-2.377,1.236-4.852,0.582-7.376
		c-0.351-1.351-0.796-2.677-1.417-3.922c-0.414-0.828-0.243-1.402,0.362-2.025c1.876-1.928,3.937-3.607,6.475-4.557
		c3.144-1.177,5.817-3.051,8.275-5.278c2.683-2.43,5.052-5.157,7.464-7.845c0.438-0.488,0.887-1.441,1.561-1.154
		c0.837,0.358,0.145,1.255,0.034,1.857c-1.145,6.249-2.83,12.331-5.798,17.997c-0.144,0.273-0.204,0.59-0.304,0.886
		c-0.051,0.018-0.108,0.024-0.149,0.055c-0.023,0.017-0.018,0.072-0.024,0.109c0.048-0.064,0.096-0.128,0.144-0.192
		c1.758-1.032,3.076-2.615,4.728-3.781c0.361-0.255,0.688-0.56,1.051-0.813c0.193-0.136,0.388-0.381,0.669-0.235
		c0.368,0.19,0.281,0.527,0.184,0.824c-0.336,1.021-0.667,2.044-1.041,3.052c-1.48,3.979-2.825,7.991-3.41,12.224
		c-0.244,1.772-0.312,3.544-0.099,5.305c0.32,2.643-0.171,5.162-0.886,7.674c-0.266,0.937-0.656,1.49-1.812,1.469
		c-1.316-0.025-2.659,0.166-3.955,0.434c-2.442,0.501-4.561,1.542-5.644,4c-0.105,0.24-0.245,0.49-0.544,0.353
		c-0.135-0.062-0.237-0.288-0.272-0.458c-1.387-6.635-1.306-13.088,2.347-19.111c0.417-0.688,1.025-1.303,1.068-2.184
		c0.067-0.04,0.135-0.081,0.203-0.121c-0.035,0.003-0.084-0.006-0.102,0.013C59.558,74.733,59.542,74.788,59.516,74.835z"/>
	<path fill-rule="evenodd" clip-rule="evenodd" d="M44.706,45.911c-0.061,2.92-1.257,5.263-2.809,7.472
		c-0.307,0.437-0.639,0.518-1.123,0.244c-0.549-0.31-1.127-0.584-1.721-0.795c-2.279-0.812-4.251-0.224-5.73,1.689
		c-0.586,0.756-0.988,1.617-1.375,2.486c-0.096,0.215-0.185,0.56-0.44,0.512c-0.189-0.035-0.376-0.322-0.481-0.538
		c-0.689-1.422-1.286-2.895-2.047-4.278c-1.955-3.557-4.066-7.015-7.346-9.554c-0.609-0.472-0.719-1.005-0.489-1.66
		c0.125-0.355,0.31-0.692,0.495-1.022c2.591-4.604,5.734-8.804,9.356-12.643c0.692-0.733,1.464-1.41,2.282-1.999
		c1.265-0.912,2.004-0.7,2.691,0.727c0.299,0.621,0.525,1.298,0.656,1.974c0.232,1.213,0.78,2.249,1.459,3.262
		c1.762,2.628,3.619,5.199,4.993,8.067C44.018,41.818,44.655,43.856,44.706,45.911z"/>
	<path fill-rule="evenodd" clip-rule="evenodd" d="M37.812,91.751c0.065-0.777-0.141-1.654-0.51-2.456
		c-0.767-1.665-1.591-3.309-2.683-4.795c-0.722-0.982-1.563-1.868-2.734-2.276c-0.935-0.326-0.814-0.775-0.367-1.4
		c0.838-1.172,2.037-1.457,3.357-1.291c1.189,0.148,2.398,0.309,3.536,0.664c2.315,0.725,4.615,0.594,6.938,0.163
		c0.249-0.046,0.487-0.145,0.736-0.185c1.187-0.194,1.419-0.02,1.215,1.146c-0.36,2.054-0.862,4.084-1.2,6.142
		c-0.718,4.354-2.609,8.152-5.245,11.642c-1.257,1.666-2.436,3.395-3.585,5.137c-1.743,2.641-2.736,5.531-2.854,8.725
		c-0.061,1.642-0.249,3.29-0.738,4.866c-0.603,1.941-1.773,2.299-3.434,1.095c-0.508-0.368-0.985-0.802-1.4-1.273
		c-2.363-2.691-4.082-5.774-5.455-9.066c-0.592-1.422-0.614-2.811,0.019-4.228c1.472-3.29,2.933-6.586,4.365-9.893
		c0.28-0.646,0.602-0.667,1.164-0.377c0.729,0.376,1.487,0.704,2.255,0.997c0.888,0.338,1.806,0.574,2.77,0.587
		C36.578,95.708,37.833,94.478,37.812,91.751z"/>
	<path fill-rule="evenodd" clip-rule="evenodd" d="M91.517,86.367c1.989,0.101,4.794,0.587,7.586,1.126
		c1.329,0.258,2.625,0.343,3.943,0.01c0.365-0.092,0.744-0.154,1.12-0.171c1.856-0.082,2.443,0.521,2.157,2.375
		c-0.162,1.056-0.461,2.101-0.807,3.114c-1.392,4.079-3.182,7.981-5.354,11.706c-0.382,0.654-0.792,1.297-1.246,1.903
		c-1.003,1.34-1.058,1.228-2.257,0.553c-2.689-1.517-5.687-2.092-8.715-2.398c-1.945-0.196-3.9-0.422-5.87-0.328
		c-0.338,0.016-0.817,0.227-1.005-0.217c-0.139-0.328,0.264-0.533,0.451-0.767c0.517-0.644,0.976-1.317,1.314-2.075
		c0.961-2.146,0.584-4.068-0.966-5.786c-0.337-0.374-0.688-0.771-1.111-1.026c-0.896-0.537-0.716-1.145-0.341-1.916
		C82.503,88.19,85.958,86.224,91.517,86.367z"/>
	<path fill-rule="evenodd" clip-rule="evenodd" d="M63.004,49.964c1.014,2.797-1.02,4.226-3.435,5.423
		c-0.623,0.309-1.241,0.642-1.892,0.883c-3.227,1.193-5.9,3.142-8.097,5.782c-0.834,1.002-0.898,0.99-1.51-0.134
		c-1.25-2.298-2.706-4.443-4.665-6.192c-0.709-0.633-0.578-1.097-0.081-1.75c0.968-1.268,1.635-2.699,2.118-4.222
		c0.979-3.083,0.887-6.118-0.401-9.089c-0.327-0.754-0.524-1.345,0.265-1.985c2.066-1.676,4.064-3.439,6.376-4.784
		c2.652-1.544,3.594-1.319,5.274,1.317c0.68,1.066,1.239,2.207,1.876,3.301c0.509,0.874,0.923,1.851,1.604,2.569
		c1.974,2.08,2.608,4.567,2.566,7.322C62.999,48.785,63.004,49.166,63.004,49.964z"/>
	<path fill-rule="evenodd" clip-rule="evenodd" d="M91.977,76.573c-0.05,2.274-0.651,4.733-1.184,7.207
		c-0.159,0.741-0.489,1.057-1.267,1.09c-4.919,0.213-8.26,2.818-10.438,7.068c-0.42,0.818-0.82,0.938-1.627,0.576
		c-2.215-0.998-4.582-1.429-6.988-1.613c-0.785-0.061-1.033-0.334-0.716-1.056c1.52-3.462,1.604-7.089,1.443-10.796
		c-0.23-5.281-0.13-5.291,4.688-7.43c2.09-0.928,4.145-1.315,6.432-0.534c1.346,0.46,2.863,0.421,4.306,0.589
		c0.439,0.053,0.887,0.033,1.327,0.075C91.405,72.078,92.127,72.896,91.977,76.573z"/>
	<path fill-rule="evenodd" clip-rule="evenodd" d="M53.839,27.799c0.26,1.276-0.371,2.064-1.769,2.654
		c-2.594,1.096-4.643,3.044-6.778,4.832c-0.341,0.285-0.667,0.585-1.004,0.873c-0.354,0.302-0.723,0.306-0.94-0.12
		c-1.562-3.05-3.929-5.601-5.389-8.709c-0.265-0.565-0.403-1.197-0.543-1.812c-0.214-0.945-0.598-1.809-1.219-2.543
		c-0.559-0.662-1.249-1.014-2.179-0.835c-1.146,0.22-1.167,0.18-0.884-0.986c0.935-3.841,2.685-7.194,5.664-9.89
		c1.583-1.433,3.164-1.681,4.975-0.575c0.377,0.231,0.776,0.428,1.148,0.667C49.842,14.52,53.798,21.73,53.839,27.799z"/>
	<path fill-rule="evenodd" clip-rule="evenodd" d="M50.016,73.581c0.008,3.738-2.272,5.897-6.219,5.711
		c-3.352-0.158-6.656-0.783-9.947-1.422c-1.23-0.239-1.347-0.553-0.719-1.612c1.539-2.599,1.257-5.351,0.718-8.117
		c-0.483-2.484-1.049-4.957-2.081-7.279c-0.461-1.036-0.377-1.873,0.273-2.809c1.737-2.5,3.916-3.214,6.744-2.095
		c1.314,0.52,2.46,1.314,3.486,2.261c3.877,3.578,6.431,7.931,7.547,13.104c0.08,0.37,0.158,0.745,0.19,1.121
		C50.042,72.82,50.016,73.202,50.016,73.581z"/>
	<path fill-rule="evenodd" clip-rule="evenodd" d="M102.606,70.146c4.462,0.035,7.927,0.887,10.98,3.04
		c2.715,1.915,3.042,2.933,2.128,6.125c-0.972,3.396-2.948,6.142-5.567,8.45c-0.797,0.701-0.939,0.67-1.147-0.332
		c-0.269-1.288-1.128-1.756-2.284-1.895c-0.437-0.052-0.914-0.111-1.324,0.006c-2.421,0.693-4.765,0.121-7.127-0.332
		c-1.18-0.227-2.377-0.365-3.569-0.518c-1.496-0.19-1.6-0.288-1.25-1.806c0.512-2.223,1.007-4.446,1.181-6.726
		c0.058-0.756,0.205-1.548,0.051-2.267c-0.244-1.128,0.305-1.632,1.168-2.069C98.214,70.624,100.721,70.078,102.606,70.146z"/>
	<path fill-rule="evenodd" clip-rule="evenodd" d="M81.267,100.839c0.072,1.04-0.283,1.973-0.727,2.898
		c-0.481,1.001-1.146,1.541-2.345,1.549c-2.672,0.018-5.253,0.641-7.806,1.402c-2.254,0.672-4.21,1.736-5.363,3.895
		c-0.346,0.646-0.696,0.645-1.145,0.16c-0.215-0.23-0.42-0.475-0.596-0.734c-1.555-2.306-3.158-4.58-4.515-7.012
		c-0.553-0.992-1.042-2.014-1.313-3.135c-0.59-2.434,0.178-4.376,2.307-5.666c1.492-0.904,3.162-1.319,4.861-1.471
		c4.173-0.371,8.194,0.242,11.957,2.182c1.533,0.789,2.934,1.746,3.873,3.25C80.967,98.977,81.324,99.841,81.267,100.839z"/>
	<path fill-rule="evenodd" clip-rule="evenodd" d="M46.348,121.702c-0.552,0.06-1.142-0.274-1.576-0.873
		c-1.375-1.894-2.726-3.811-3.632-5.982c-0.901-2.161-0.594-3.559,1.156-5.096c1.858-1.631,3.984-2.898,6.048-4.246
		c2.328-1.522,4.708-2.976,6.706-4.941c0.536-0.525,0.868-0.672,1.172,0.203c1.367,3.947,3.959,7.168,6.284,10.551
		c0.426,0.619,1.509,0.971,1.336,1.668c-0.182,0.738-1.208,1.025-1.9,1.451c-4.21,2.588-8.645,4.729-13.199,6.632
		C48.043,121.36,47.342,121.654,46.348,121.702z"/>
	<path fill-rule="evenodd" clip-rule="evenodd" d="M59.767,34.144c0.065-2.446,0.506-4.608,1.573-6.594
		c1.778-3.309,3.802-3.438,5.996-0.438c0.788,1.077,1.447,2.229,2.041,3.417c0.764,1.53,1.616,2.977,2.7,4.328
		c2.338,2.912,2.193,6.549-0.229,9.377c-1.772,2.068-3.618,4.07-5.58,5.961c-0.262,0.253-0.537,0.685-0.929,0.499
		c-0.371-0.176-0.215-0.67-0.245-1.031c-0.107-1.261-0.17-2.526-0.316-3.782c-0.23-1.988-0.911-3.813-2.215-5.358
		c-0.781-0.925-1.398-1.946-2.006-2.987C59.899,36.408,59.407,35.277,59.767,34.144z"/>
	<path fill-rule="evenodd" clip-rule="evenodd" d="M85.51,69.583c-0.817-0.058-1.649-0.009-2.44-0.289
		c-2.926-1.039-5.721-0.564-8.468,0.688c-0.662,0.302-1.503,1.131-2.004,0.673c-0.624-0.569,0.097-1.536,0.33-2.28
		c0.68-2.169,1.421-4.324,2.24-6.444c1.224-3.167,4.198-4.741,7.485-3.883c1.859,0.485,3.72,0.716,5.622,0.738
		c1.214,0.014,2.397,0.227,3.546,0.583c2.305,0.715,2.96,2.198,1.928,4.397c-1.036,2.205-2.867,3.664-4.857,4.941
		C87.37,69.683,87.359,69.667,85.51,69.583z"/>
	<path fill-rule="evenodd" clip-rule="evenodd" d="M20.628,33.614c0.123-2.72-0.336-5.166-0.392-7.636
		c-0.021-0.922,0.091-1.747,0.59-2.527c2.005-3.133,4.555-5.747,7.552-7.926c0.503-0.366,1.095-0.652,1.687-0.849
		c2.046-0.683,3.81,0.886,3.208,2.957c-0.529,1.82-1.136,3.617-1.49,5.484c-0.103,0.545-0.505,0.853-0.849,1.222
		c-3.583,3.857-6.952,7.877-9.534,12.5c-0.14,0.25-0.228,0.737-0.587,0.621c-0.292-0.094-0.184-0.551-0.184-0.858
		C20.627,35.524,20.628,34.448,20.628,33.614z"/>
	<path fill-rule="evenodd" clip-rule="evenodd" d="M116.938,89.142c-0.497,3.632-1.571,7.441-3.633,10.939
		c-0.422,0.716-1.075,1.033-1.784,1.325c-3.044,1.253-6.121,2.431-8.977,4.098c-0.152,0.089-0.404,0.214-0.505,0.151
		c-0.335-0.209-0.044-0.445,0.074-0.627c2.878-4.449,4.588-9.415,6.569-14.283c0.897-2.207,3.21-3.659,5.168-5.109
		c0.86-0.638,2.196,0.065,2.676,1.107C116.818,87.378,116.956,88.067,116.938,89.142z"/>
	<path fill-rule="evenodd" clip-rule="evenodd" d="M58.531,33.116c-0.333,0.03-0.472-0.19-0.594-0.406
		c-0.538-0.945-1.211-1.775-2.108-2.398c-0.534-0.371-0.635-0.871-0.619-1.479c0.124-4.829-1.266-9.202-3.982-13.179
		c-0.67-0.981-0.413-2.062,0.567-2.725c0.579-0.392,1.129-0.248,1.522,0.224c2.701,3.234,5.748,6.235,7.122,10.387
		c0.168,0.507,0.243,0.925-0.001,1.437c-1.107,2.317-1.481,4.807-1.647,7.34C58.772,32.601,58.875,32.951,58.531,33.116z"/>
	<path fill-rule="evenodd" clip-rule="evenodd" d="M98.362,63.803c1.131,0.127,2.288,0.14,3.386,0.405
		c2.084,0.504,4.147,1.109,6.192,1.756c1.168,0.37,1.395,0.857,1.1,1.804c-0.362,1.162-0.813,1.507-1.897,1.311
		c-4.372-0.789-8.561-0.386-12.485,1.837c-0.393,0.223-0.787,0.436-1.229,0.123c-0.959-0.679-2.062-0.928-3.195-1.102
		c-0.161-0.025-0.305-0.158-0.457-0.241c0.097-0.154,0.16-0.354,0.296-0.454c0.354-0.264,0.743-0.479,1.113-0.721
		c1.381-0.9,2.81-1.791,3.764-3.148C95.827,64.125,96.933,63.706,98.362,63.803z"/>
	<path fill-rule="evenodd" clip-rule="evenodd" d="M11.5,66.922c-0.768-0.396-1.162-1.138-1.621-1.803
		c-2.461-3.558-4.19-7.479-5.655-11.527c-0.283-0.782-0.438-1.588-0.388-2.416c0.073-1.201,0.748-1.716,1.908-1.41
		c1.05,0.277,1.96,0.859,2.814,1.522c0.35,0.271,0.689,0.555,1.047,0.815c1.578,1.15,2.31,2.514,2.101,4.639
		c-0.326,3.322-0.226,6.688-0.066,10.035C11.591,66.825,11.545,66.873,11.5,66.922z"/>
	<path fill-rule="evenodd" clip-rule="evenodd" d="M57.093,10.26c1.3,0.133,2.425,0.664,3.412,1.504
		c1.263,1.075,2.268,2.366,3.166,3.75c1.908,2.941,3.205,6.147,4.173,9.499c0.068,0.237,0.167,0.534-0.059,0.707
		c-0.257,0.197-0.441-0.08-0.611-0.231c-1.01-0.897-2.023-1.732-3.538-1.32c-0.459,0.125-0.631-0.294-0.779-0.653
		c-1.5-3.615-3.866-6.646-6.476-9.5c-0.663-0.725-0.826-1.508-0.777-2.427C55.657,10.618,56.218,10.278,57.093,10.26z"/>
	<path fill-rule="evenodd" clip-rule="evenodd" d="M91.185,127.383c-2.662,0.07-5.303-0.087-7.896-0.738
		c-0.365-0.092-0.734-0.183-1.083-0.32c-0.145-0.058-0.241-0.235-0.359-0.358c0.102-0.067,0.194-0.155,0.306-0.201
		c3.105-1.262,6.039-2.855,8.898-4.594c0.696-0.424,1.422-0.49,2.176-0.184c1.527,0.619,2.958,1.428,4.265,2.418
		c0.69,0.523,1.432,1.198,1.208,2.206c-0.228,1.022-1.181,1.2-2.047,1.423C94.851,127.495,93.01,127.327,91.185,127.383z"/>
	<path fill-rule="evenodd" clip-rule="evenodd" d="M36.393,91.653c0.01,2.021-0.71,2.699-2.359,2.637
		c-1.163-0.043-2.23-0.471-3.254-0.951c-1.371-0.643-2.684-1.407-4.023-2.117c-0.563-0.299-0.646-0.684-0.299-1.229
		c1.257-1.971,2.262-4.096,3.663-5.979c0.447-0.602,0.968-0.899,1.584-0.356C34.253,85.906,35.842,88.706,36.393,91.653z"/>
	<path fill-rule="evenodd" clip-rule="evenodd" d="M97.624,57.309c2.909,0.183,5.555,0.346,8.053,1.394
		c1.252,0.525,2.351,1.243,3.121,2.377c0.965,1.42,0.421,2.568-1.292,2.791c-0.522,0.067-0.987-0.125-1.471-0.281
		c-3.194-1.035-6.425-1.886-9.827-1.808c-0.576,0.013-1.159,0.027-1.336-0.732c-0.271-1.162-1.168-1.746-2.135-2.264
		c-0.27-0.144-0.758-0.247-0.702-0.537c0.073-0.384,0.586-0.432,0.938-0.473C94.604,57.59,96.24,57.445,97.624,57.309z"/>
	<path fill-rule="evenodd" clip-rule="evenodd" d="M11.639,66.778c0.031,0.046,0.096,0.099,0.088,0.136
		c-0.026,0.124-0.114,0.124-0.227,0.008C11.545,66.873,11.591,66.825,11.639,66.778z"/>
</g>
</svg>
