<?xml version="1.0" encoding="utf-8"?>
<!-- Generator: Adobe Illustrator 16.0.4, SVG Export Plug-In . SVG Version: 6.00 Build 0)  -->
<!DOCTYPE svg PUBLIC "-//W3C//DTD SVG 1.1//EN" "http://www.w3.org/Graphics/SVG/1.1/DTD/svg11.dtd">
<svg version="1.1" id="Layer_0710" xmlns="http://www.w3.org/2000/svg" xmlns:xlink="http://www.w3.org/1999/xlink" x="0px" y="0px"
	 width="128px" height="128px" viewBox="0 0 128 128" enable-background="new 0 0 128 128" xml:space="preserve">
<path d="M128.176,81.649c-0.598-2.592-1.58-4.897-4.067-6.499c-3.855-2.482-7.554-5.227-11.193-8.023
	c-8.182-6.288-16.409-12.481-25.178-17.971C77.353,42.655,66.328,37.69,54.683,33.988c-12.021-3.822-24.381-6.459-36.326-10.539
	c-0.426-0.145-0.821-0.222-1.067,0.225c0.009,0.006,0.018,0.013,0.027,0.019c0.052,0.063,0.104,0.125,0.157,0.188
	c0.171,0.104,0.29,0.251,0.362,0.438c0.052,0.061,0.102,0.122,0.152,0.182c0.006,0.03,0.019,0.054,0.026,0.082
	c0.339-0.013,0.521,0.157,0.559,0.496c0.031,0.001,0.055,0.011,0.09,0.009c0.063,0.068,0.126,0.135,0.188,0.203
	c-0.087-0.042-0.175-0.085-0.264-0.127c-0.001-0.033-0.011-0.055-0.015-0.085c-0.319-0.013-0.478-0.208-0.559-0.496
	c-0.036,0.001-0.064-0.006-0.104,0c-0.016-0.094-0.041-0.182-0.074-0.264c-0.121-0.146-0.242-0.291-0.362-0.438
	c-0.071-0.042-0.148-0.08-0.239-0.105c0.017-0.039,0.036-0.068,0.055-0.102c-5.3-3.596-10.365-7.507-15.36-11.51
	c-0.432-0.347-0.741-1.102-1.363-0.869c-0.811,0.304-0.544,1.182-0.457,1.784c0.425,2.914,1.937,5.402,3.452,7.82
	c3.344,5.335,5.215,11.218,6.688,17.251c1.794,7.351,2.858,14.853,4.72,22.205c2.886,11.4,8.528,21.25,16.092,30.053
	c5.158,6.003,10.816,11.561,16.886,16.648c4.31,3.611,8.869,6.864,14.317,8.711c7.408,2.512,14.018,1.051,20.08-3.597
	c1.593-1.221,1.491-1.46-0.586-2.206c-0.433-0.155-0.845-0.374-1.283-0.501c-10.212-2.968-17.468-9.605-23.303-18.255
	c-6.02-8.919-9.955-18.829-14.24-28.584c-0.394-0.896-0.848-1.853-0.762-2.908c-0.023-0.001-0.046-0.006-0.07-0.006
	c0.004-0.033-0.004-0.06-0.002-0.092c-0.725-0.228-0.542-0.811-0.524-1.33c-0.026-0.032-0.048-0.064-0.076-0.095
	c-0.043-0.059-0.086-0.116-0.129-0.174c-0.215-0.138-0.329-0.35-0.427-0.574c-0.099-0.135-0.2-0.27-0.3-0.405
	c0.002-0.044,0.006-0.09,0.009-0.134c-0.454-0.339-0.541-0.822-0.529-1.343c-0.031-0.014-0.056-0.031-0.092-0.043
	c-0.034-0.092-0.068-0.183-0.102-0.274c-0.075-0.072-0.147-0.146-0.212-0.225c-0.029-0.036,0.029-0.144,0.048-0.219
	c0.054,0.148,0.11,0.296,0.165,0.444c0.065,0.063,0.133,0.125,0.198,0.188c-0.002,0.043-0.002,0.086-0.004,0.129
	c0.625,0.267,0.564,0.81,0.529,1.343c0.026,0.018,0.046,0.039,0.075,0.058c0.086,0.151,0.147,0.319,0.216,0.481
	c0.143,0.191,0.285,0.382,0.427,0.574c0.061,0.039,0.127,0.073,0.205,0.099c0.004,0.055,0.002,0.113,0,0.17
	c0.325,0.384,0.556,0.805,0.524,1.33c0.027,0.009,0.045,0.021,0.074,0.028c-0.002,0.024,0,0.047-0.002,0.07
	c0.711,0.032,1.207,0.519,1.753,0.879c9.486,6.271,19.347,11.809,29.739,16.503c12.555,5.672,25.514,9.681,39.174,11.392
	c3.67,0.46,7.353,0.436,10.921-0.767C126.921,86.66,128.77,84.222,128.176,81.649z M35.121,30.899
	c0.157-0.119,0.454-0.159,0.651-0.104c2.292,0.638,4.578,1.298,6.862,1.964c0.212,0.062,0.4,0.207,0.599,0.312
	c-0.262,0.194-0.514,0.536-0.791,0.559c-2.021,0.161-3.43,1.549-5.079,2.452c0.002,0.043,0.009,0.083,0.01,0.126
	c-0.074,0.032-0.152,0.061-0.22,0.101c-0.039,0.052-0.078,0.104-0.117,0.156c0.027-0.049,0.043-0.115,0.084-0.142
	c0.01-0.006,0.022-0.009,0.033-0.015c0.045-0.061,0.09-0.122,0.137-0.183c0.025-0.014,0.049-0.03,0.074-0.044
	c-0.053-1.772-0.975-3.127-2.128-4.384C35.06,31.507,34.747,31.182,35.121,30.899z M38.069,50.667l-0.166-0.09l0.245,0.036
	c0.001,0.066-0.003,0.133-0.007,0.202c0.172,0.358,0.345,0.715,0.518,1.073c0.042,0.009,0.075,0.023,0.124,0.029
	c0.021,0.095,0.045,0.188,0.066,0.283c0.064,0.095,0.127,0.192,0.181,0.293c0.023,0.045-0.041,0.137-0.064,0.208
	c-0.039-0.167-0.078-0.334-0.117-0.501c-0.046-0.068-0.093-0.135-0.138-0.203c-0.018-0.037-0.035-0.073-0.052-0.109
	c-0.627-0.137-0.548-0.617-0.518-1.073C38.118,50.765,38.094,50.716,38.069,50.667z M35.286,45.855l-0.191-0.13l0.269,0.061
	c-0.01,0.033-0.016,0.064-0.023,0.097c0.534,0.249,0.531,0.736,0.543,1.217c0.029,0.012,0.053,0.026,0.084,0.037
	c0.031,0.074,0.063,0.148,0.095,0.222c0.24,0.243,0.324,0.551,0.379,0.873c0.055,0.125,0.109,0.251,0.164,0.376
	c0.013,0.014,0.021,0.036,0.03,0.058c0.234-0.036,0.493,0.114,0.437,0.189c-0.427,0.555-0.354,0.024-0.437-0.189
	c-0.041,0.006-0.081,0.016-0.118,0.035c-0.027-0.156-0.048-0.314-0.076-0.47c-0.126-0.292-0.252-0.582-0.379-0.873
	c-0.05-0.052-0.109-0.102-0.175-0.147c-0.002-0.037-0.003-0.075-0.004-0.112c-0.559-0.237-0.682-0.669-0.543-1.217
	C35.321,45.875,35.308,45.863,35.286,45.855z M35.236,39.529c-0.03-0.541,0.322-0.784,0.821-0.745
	c0.082,0.007,0.212,0.372,0.189,0.555c-0.043,0.347-0.232,0.63-0.644,0.659C35.477,39.844,35.246,39.693,35.236,39.529z
	 M27.134,33.231c-0.011,0.045-0.019,0.09-0.027,0.134c0.213,0.441,0.493,0.864,0.426,1.384c0.023,0.016,0.042,0.033,0.067,0.048
	c0.25,0.214,0.501,0.427,0.751,0.64c0.007,0.047,0.024,0.085,0.037,0.128c0.319,0.086,0.513,0.277,0.532,0.618
	c0.033,0.016,0.062,0.036,0.098,0.051c0.058,0.05,0.116,0.1,0.175,0.149c-0.087-0.021-0.175-0.043-0.261-0.064
	c0.004-0.052-0.009-0.09-0.012-0.136c-0.266-0.133-0.451-0.331-0.532-0.618c-0.044-0.012-0.08-0.029-0.127-0.037
	c-0.249-0.218-0.497-0.437-0.746-0.654c0.011-0.043,0.013-0.084,0.018-0.125c-0.518-0.35-0.533-0.848-0.426-1.384
	c-0.012-0.023-0.023-0.046-0.034-0.069c0.009-0.023,0.021-0.038,0.03-0.061c-0.96,0.184-1.362-0.343-1.5-1.206h-0.001
	c-0.02,0.021-0.042,0.038-0.062,0.06c0.002-0.031-0.01-0.049-0.01-0.078c-0.354-0.053-0.495-0.303-0.582-0.602
	c-0.044-0.011-0.087-0.024-0.132-0.035c-0.006-0.054-0.003-0.106-0.005-0.16c-1.521-0.953-2.562-2.424-3.861-3.617
	c-0.193-0.177-0.209-0.543-0.308-0.822c0.32-0.003,0.66-0.082,0.953,0.003c1.083,0.312,2.149,0.677,3.222,1.023
	c2.089,0.672,2.088,0.671,0.387,2.333c-0.308,0.301-0.408,0.674-0.393,1.08c0.033,0.021,0.063,0.045,0.098,0.066
	c0.011,0.044,0.026,0.085,0.039,0.128c0.312,0.081,0.572,0.214,0.582,0.602c0.025,0.004,0.043,0.017,0.071,0.018
	c1.161-1.222,2.597-1.641,4.249-1.401c0.332,0.049,0.656,0.167,0.983,0.253c-0.279,0.135-0.571,0.245-0.832,0.408
	c-0.987,0.616-2.378,0.647-2.898,1.946C27.114,33.233,27.123,33.234,27.134,33.231z M31.125,81.247
	c-0.047-0.057-0.095-0.114-0.142-0.171c-0.04-0.092-0.08-0.185-0.121-0.278c-0.033-0.074-0.066-0.147-0.1-0.22
	c0.094,0.171,0.188,0.344,0.283,0.516C31.273,81.041,31.301,81.092,31.125,81.247z M31.826,40.401
	c-0.042-0.007-0.078-0.021-0.125-0.023c-0.25-0.219-0.502-0.438-0.752-0.658c0.008-0.055,0.013-0.11,0.019-0.164
	c-0.341-0.346-0.482-0.761-0.429-1.24c-0.025-0.021-0.046-0.043-0.074-0.063c-0.08-0.041-0.158-0.082-0.238-0.123
	c0.107,0.017,0.214,0.032,0.321,0.047c-0.01,0.048-0.005,0.091-0.01,0.139c0.396,0.33,0.473,0.765,0.429,1.24
	c0.026,0.027,0.044,0.058,0.073,0.084c0.251,0.215,0.502,0.431,0.753,0.646C31.801,40.328,31.815,40.362,31.826,40.401
	c0.324,0.054,0.519,0.247,0.595,0.567c0.043,0.004,0.076,0.019,0.123,0.018c0.058,0.126,0.115,0.254,0.172,0.38
	c0.082,0.125,0.137,0.262,0.183,0.403c0.089,0.201,0.18,0.401,0.271,0.603c0.006,0.034,0.014,0.066,0.022,0.1
	c0.355,0.005,0.541,0.228,0.66,0.541c0.04-0.01,0.079-0.017,0.125-0.034c0.022,0.122,0.045,0.245,0.068,0.367
	c0.055,0.088,0.117,0.173,0.164,0.266c0.021,0.039-0.051,0.125-0.08,0.189c-0.028-0.151-0.057-0.304-0.083-0.455
	c-0.057-0.086-0.107-0.175-0.163-0.261c-0.009-0.026-0.021-0.047-0.03-0.072c-0.437,0.108-0.577-0.177-0.66-0.541
	c-0.039,0-0.069-0.012-0.113-0.007c-0.067-0.229-0.11-0.468-0.18-0.695c-0.046-0.141-0.102-0.278-0.183-0.403
	c-0.067-0.104-0.152-0.201-0.263-0.287c-0.006-0.041-0.021-0.072-0.031-0.111C32.08,40.932,31.906,40.717,31.826,40.401z
	 M47.262,98.583c6.479,4.275,12.694,9.015,20.406,11.057c1.819,0.481,3.606,0.555,5.437,0.589c0.288,0.006,0.572,0.133,0.857,0.204
	c-0.204,0.256-0.354,0.632-0.62,0.751c-3.88,1.73-7.783,1.648-11.687,0.064c-4.741-1.925-8.645-5.128-12.552-8.307
	c-4.719-3.84-8.908-8.218-12.72-12.953c-0.275-0.342-0.384-0.816-0.569-1.228c-0.918-0.433-1.197-1.206-1.208-2.124
	c-0.032-0.016-0.056-0.038-0.089-0.053c-0.018-0.051-0.032-0.104-0.047-0.157c-0.698-0.404-1.235-0.926-1.283-1.8
	c-0.029-0.007-0.051-0.019-0.083-0.023c-0.005-0.045-0.01-0.091-0.016-0.138c-0.416-0.309-0.477-0.763-0.506-1.23
	c-0.033-0.028-0.062-0.058-0.1-0.085c-0.039-0.02-0.057-0.076-0.067-0.145c-0.128-0.044-0.256-0.088-0.385-0.133
	c0.375-0.359,0.353-0.068,0.385,0.133c0.053,0.018,0.105,0.036,0.157,0.055c0.004,0.058,0.007,0.116,0.011,0.175
	c0.372,0.323,0.453,0.771,0.506,1.23c0.031,0.023,0.057,0.047,0.091,0.068c0,0.033,0.006,0.061,0.008,0.093
	c0.979,0.207,1.061,1.055,1.283,1.8c0.044,0.026,0.087,0.053,0.133,0.078c-0.001,0.045,0.003,0.088,0.003,0.132
	c0.796,0.393,1.246,1.053,1.434,1.916C39.792,91.884,43.032,95.791,47.262,98.583z M44.622,36.723
	c-1.625,0.155-3.144,0.55-4.546,1.425c-0.287,0.178-0.706,0.868-1.078,0.232c-0.138-0.238,0.189-0.835,0.423-1.189
	c1.016-1.541,2.609-1.703,4.256-1.709c0.345,0.024,0.691,0.03,1.03,0.084c0.681,0.113,1.716,0.286,1.644,0.913
	C46.284,37.065,45.231,36.665,44.622,36.723z M50.134,47.93c-0.675,0.085-2.499-1.088-2.356-1.579
	c0.283-0.977,1.325-1.49,2.039-1.472c1.23,0.031,0.46,1.377,0.828,2.056C50.695,47.38,50.793,47.847,50.134,47.93z M59.305,41.945
	c-2.192,0.024-4.001,1.335-6.061,1.787c-0.012,0.025-0.025,0.049-0.037,0.076c-0.025,0.004-0.051,0.007-0.077,0.011
	c-0.046,0.134-0.093,0.269-0.138,0.403c-0.407-0.369-0.107-0.373,0.138-0.403c0.008-0.021,0.015-0.042,0.021-0.062
	c0.032-0.006,0.062-0.017,0.092-0.024c1.273-2.646,3.292-3.594,5.892-2.761c0.299,0.095,0.674,0.167,0.634,0.565
	C59.754,41.693,59.469,41.943,59.305,41.945z M63.284,54.886c-1.098-0.544-2.171-1.146-3.228-1.77
	c-0.282-0.167-0.483-0.613-0.087-0.792c1.023-0.462,2.007-0.955,2.879-1.682c0.302-0.252,0.642-0.001,0.703,0.357
	c0.186,1.103,0.325,2.213,0.482,3.32C64.141,54.942,63.765,55.125,63.284,54.886z M66.413,49.518
	c-0.067-0.188-0.084-0.45-0.005-0.625c1.104-2.385,4.942-3.448,7.332-2.016c0.245,0.146,0.358,0.514,0.532,0.779
	c-0.193,0.064-0.392,0.193-0.581,0.183c-2.448-0.128-4.713,0.396-6.723,1.868C66.734,49.829,66.511,49.792,66.413,49.518z
	 M76.868,62.269c-0.315-0.12-0.605-0.312-0.893-0.493c-1.145-0.717-2.283-1.443-3.425-2.165c0.896-1.04,2.37-0.917,3.402-1.689
	c1.286-0.962,1.459-0.278,1.35,0.902c-0.041,0.447,0.052,0.906,0.091,1.469c0.107,0.333,0.283,0.756,0.376,1.197
	C77.928,62.247,77.614,62.553,76.868,62.269z M80.252,56.83c-0.013,0.044-0.032,0.084-0.044,0.129
	c0.065-0.117-0.348,0.253-0.076-0.074C80.172,56.867,80.212,56.848,80.252,56.83c0.922-3.071,4.493-4.433,6.754-2.515
	c0.133,0.113,0.255,0.444,0.188,0.542c-0.099,0.144-0.38,0.252-0.567,0.231C84.265,54.824,82.282,55.912,80.252,56.83z
	 M90.194,65.788c-0.062,3.094-0.069,3.104-2.838,1.89c-0.468-0.206-1.16-0.267-1.233-0.854c-0.024-0.188,0.684-0.478,1.066-0.703
	c0.387-0.229,0.806-0.408,1.177-0.659c0.553-0.376,1.119-1.147,1.711-0.833C90.383,64.792,90.199,65.877,90.194,65.788z
	 M91.843,60.007c-0.332-2.392-1.215-4.556-2.73-6.446c-0.043,0.008-0.084,0.012-0.129,0.023c0.007-0.087-0.01-0.158-0.025-0.228
	c-0.122-0.162-0.242-0.323-0.364-0.485c-0.074-0.048-0.153-0.092-0.235-0.133c-0.01-0.025-0.022-0.044-0.033-0.068
	c-0.532,0.091-0.961-0.119-1.337-0.478c-0.049,0.018-0.099,0.034-0.148,0.054c0.016-0.042,0.023-0.081,0.034-0.121
	c-2.25-0.645-4.448-0.793-6.449,0.747c-0.947,0.728-1.098,0.024-1.249-0.676c-0.576-2.667-2.174-4.8-3.639-7.002
	c-0.059-0.021-0.115-0.047-0.175-0.068c-0.104-0.047-0.207-0.093-0.311-0.139c-0.403-0.035-0.825-0.031-1.045-0.467
	c-0.049-0.022-0.099-0.044-0.147-0.066c-0.046-0.027-0.095-0.05-0.142-0.077c-2.426,0.118-4.968-0.278-7.13,1.143
	c-1.265,0.831-1.495,0.136-1.885-0.781c-0.76-1.784-1.484-3.579-3.354-4.593c-2.642-1.433-5.296-1.578-7.808,0.08
	c-1.551,1.024-2.094,0.518-2.639-0.965c-0.594-1.619-1.445-3.117-2.999-4.07c-0.286-0.174-0.501-0.463-0.748-0.699
	c0.303-0.236,0.606-0.134,0.935-0.042c8.86,2.493,17.561,5.393,25.628,9.927c0.073-0.003,0.146-0.005,0.219-0.01
	c0.02,0.061,0.046,0.104,0.07,0.153c0.349,0.156,0.697,0.312,1.045,0.467c0.136,0.012,0.271,0.029,0.394,0.071
	c0.031,0.046,0.062,0.09,0.092,0.136c3.925,1.395,7.185,4.012,10.825,5.93c0.335,0.176,0.632,0.532,0.512,1.002
	c0.019,0.005,0.036,0.01,0.054,0.015c0.02,0.02,0.041,0.033,0.061,0.052c0.561-0.199,1.051-0.177,1.337,0.478
	c0.037-0.006,0.069-0.001,0.108-0.011c0.054,0.071,0.106,0.142,0.16,0.212c0.182,0.117,0.315,0.27,0.364,0.485
	c0.035,0.047,0.072,0.095,0.107,0.143c0.017,0.021,0.031,0.042,0.047,0.062c1.81-0.344,2.771,1.168,4.028,1.976
	c1.432,0.92,2.763,1.998,4.137,3.006c-1.422,0.776-3.168,0.806-4.426,2C92.213,61.15,91.939,60.712,91.843,60.007z M99.472,62.816
	c-2.185,0.042-4.392,0.006-6.186,1.569c-0.234,0.205-0.437,0.237-0.531-0.067c-0.061-0.192,0.007-0.47,0.108-0.658
	c0.902-1.661,2.315-2.486,4.344-2.505c0.819-0.057,1.663,0.296,2.466,0.759c0.185,0.106,0.398,0.323,0.427,0.515
	C100.176,62.941,99.761,62.811,99.472,62.816z M102.208,74.055c-0.352,0.029-0.657-0.073-0.727-0.452
	c-0.107-0.583,0.347-0.781,0.771-0.847c0.398-0.062,0.47,0.318,0.491,0.636C102.77,73.766,102.564,73.977,102.208,74.055z
	 M103.911,63.517c0.254-0.129,0.818,0.257,1.195,0.491c0.484,0.3,0.956,0.641,1.366,1.034c0.896,0.854,2.104,1.383,2.694,2.556
	c-1.072,0.278-2.144,0.565-3.218,0.834c-0.314,0.079-0.637,0.118-0.956,0.173c0.008,0.024,0.015,0.05,0.021,0.073
	c-0.059,0.048-0.117,0.098-0.177,0.146c0.038-0.072,0.077-0.142,0.114-0.213c0.014-0.002,0.027-0.004,0.041-0.007
	c-0.384-1.282-0.766-2.566-1.155-3.849C103.703,64.315,103.492,63.731,103.911,63.517z M110.151,70.639
	c-2.079,0.127-3.425,1.586-4.966,2.695c-0.146,0.105-0.356,0.119-0.537,0.177c-0.018-0.208-0.087-0.426-0.045-0.62
	c0.47-2.156,3.052-3.711,5.222-3.129c0.299,0.08,0.555,0.326,0.873,0.523C110.465,70.441,110.315,70.629,110.151,70.639z"/>
</svg>
