<?xml version="1.0" encoding="utf-8"?>
<!-- Generator: Adobe Illustrator 16.0.4, SVG Export Plug-In . SVG Version: 6.00 Build 0)  -->
<!DOCTYPE svg PUBLIC "-//W3C//DTD SVG 1.1//EN" "http://www.w3.org/Graphics/SVG/1.1/DTD/svg11.dtd">
<svg version="1.1" id="Layer_0711" xmlns="http://www.w3.org/2000/svg" xmlns:xlink="http://www.w3.org/1999/xlink" x="0px" y="0px"
	 width="128px" height="128px" viewBox="0 0 128 128" enable-background="new 0 0 128 128" xml:space="preserve">
<g>
	<path fill-rule="evenodd" clip-rule="evenodd" d="M127,27.062c0.4,2.283-0.139,4.439-0.877,6.571
		c-1.662,4.8-4.271,9.074-7.084,13.274c-6.531,9.754-14.619,18.136-23.1,26.127c-5.812,5.477-11.605,10.994-17.785,16.074
		c-5.568,4.574-11.088,9.209-16.707,13.717c-4.678,3.753-9.601,7.139-15.037,9.755c-5.795,2.788-11.622,5.484-17.871,7.101
		c-2.994,0.773-6.039,0.52-9.016-0.199c-5.68-1.37-10.757-4.133-14.011-8.918c-5.641-8.295-7.166-17.586-0.876-27.024
		C9.392,76.403,15.53,70.827,22.6,66.033c7.403-5.021,15.246-9.333,22.567-14.471c5.993-4.205,11.631-8.751,16.32-14.472
		c4.579-5.583,9.639-10.774,15.336-15.232c6.783-5.308,13.896-10.156,22.273-12.674c4.111-1.236,8.346-1.663,12.637-1.081
		c2.664,0.361,5.252,0.963,7.83,1.796c3.855,1.245,6.158,3.691,7.191,7.527c0.867,3.22,0.875,6.444,0.246,9.694
		c-0.139-0.12-0.275-0.238-0.414-0.357l0.014-0.113l0.021,0.111c-0.094,0.364-0.188,0.727-0.283,1.091
		c-0.141,0.377-0.564,0.669-0.346,1.155c-0.375,0.579-0.822,1.125-1.119,1.742c-2.033,4.237-4.531,8.152-7.414,11.883
		c-7.311,9.457-15.721,17.861-24.674,25.69c-5.73,5.011-11.41,10.118-17.611,14.586c-3.162,2.278-6.102,4.864-9.236,7.183
		c-5.429,4.017-11.026,7.814-16.375,11.934c-3.668,2.825-7.624,5.1-11.682,7.254c-1.138,0.604-2.601,0.475-3.515,1.57
		c-0.07,0.01-0.141,0.021-0.209,0.031c0.068-0.03,0.137-0.06,0.205-0.089c0.613,0.223,1.188,0.022,1.779-0.132
		c5.357-1.41,10.2-3.865,14.611-7.19c2.012-1.517,3.943-3.144,6.006-4.585c8.679-6.063,17.037-12.557,25.312-19.146
		c7.812-6.222,15.244-12.899,22.438-19.84c5.584-5.39,10.756-11.118,14.943-17.676c2.654-4.157,5.525-8.221,6.482-13.216
		c0.115-0.385,0.234-0.77,0.352-1.155C126.525,27.589,126.762,27.325,127,27.062z M117.666,10.917
		c0.066,0.015,0.129,0.039,0.195,0.042c0.035,0.001,0.072-0.035,0.109-0.054c-0.102,0.024-0.201,0.048-0.301,0.073
		c-0.758-0.49-1.496-0.559-2.203,0.099c-0.68-0.53-1.484-0.485-2.248-0.382c-3.453,0.468-6.85,1.241-10.02,2.698
		c-6.01,2.758-11.689,6.087-16.871,10.216c-6.318,5.035-12.639,10.059-18.363,15.794c-3.744,3.751-7.542,7.464-11.519,10.964
		c-4.881,4.296-9.838,8.468-15.63,11.634c-5.854,3.199-11.395,6.974-16.858,10.822c-2.414,1.699-4.68,3.601-6.75,5.719
		c-0.178,0.182-0.3,0.42-0.448,0.631c0.382,0.154,0.506-0.207,0.692-0.379c1.552-1.425,3.488-2.271,5.181-3.484
		c4.882-3.496,10.235-6.188,15.431-9.158c4.512-2.578,9.203-4.907,13.146-8.382c6.91-6.089,13.708-12.299,20.378-18.647
		c7.371-7.013,15.076-13.595,23.541-19.288c4.711-3.169,9.59-5.87,15.023-7.581c1.754-0.552,3.625-0.461,5.309-1.229
		C116.211,11.313,116.934,11.011,117.666,10.917z M88.65,66.312l0.125,0.026l-0.121,0.025c-3.252,0.588-4.402-0.165-4.324-2.832
		c0.012-0.401,0.41-1.07,0.012-1.138c-0.562-0.096-0.609,0.712-0.865,1.129c-0.73,1.185-0.516,2.313,0.369,3.323
		c0.893,1.021,2.035,1.27,3.285,0.832C87.797,67.446,88.227,66.86,88.65,66.312z M26.497,93.896
		c-0.062-0.009-0.126-0.019-0.189-0.026c0.062-0.012,0.125-0.021,0.188-0.031c3.143-0.051,5.859-1.578,8.573-2.811
		c5.462-2.48,10.405-5.911,15.164-9.542c4.481-3.419,8.689-7.195,13.159-10.63c6.402-4.923,12.464-10.253,18.677-15.397
		c6.682-5.53,13.045-11.443,19.523-17.217c1.684-1.502,3.277-3.105,4.908-4.667c4.584-4.385,9.117-8.821,13.311-13.588
		c0.217-0.246,0.379-0.537,0.568-0.806c-0.408-0.149-0.656,0.168-0.912,0.362c-0.412,0.312-0.791,0.677-1.146,1.055
		c-3.514,3.734-7.254,7.221-11.059,10.664c-7.08,6.402-14.082,12.876-21.502,18.898c-5.793,4.701-11.617,9.366-17.367,14.119
		c-4.545,3.758-9.245,7.326-13.76,11.114c-7.334,6.15-15.07,11.678-23.495,16.236C29.618,92.452,27.768,92.583,26.497,93.896z
		 M111.912,22.566c0.123-0.189,0.297-0.458,0.471-0.725c-0.328,0.091-0.654,0.197-0.986,0.273c-2.764,0.641-4.254-0.531-3.877-3.027
		c0.072-0.487,0.832-1.105,0.123-1.395c-0.336-0.138-0.855,0.715-1.014,1.332c-0.109,0.417-0.283,0.821-0.359,1.242
		c-0.402,2.22,1.01,3.695,3.258,3.45C110.428,23.618,111.129,23.141,111.912,22.566z M32.922,74.444
		c-1.162,1.245-1.406,3.65-0.488,4.802c0.826,1.035,2.225,1.157,4.029,0.352c0.157-0.069,0.316-0.138,0.469-0.22
		c0.362-0.195,0.925-0.385,0.752-0.845c-0.113-0.303-0.601,0.056-0.925,0.121c-2.671,0.53-3.88-0.683-3.438-3.431
		c0.028-0.168,0.115-0.328,0.141-0.497c0.033-0.212,0.163-0.494-0.144-0.581C33.221,74.118,33.055,74.335,32.922,74.444z
		 M56.816,62.792c1.124,0.951,3.19,0.842,4.253-0.234c0.111-0.113,0.165-0.286,0.245-0.431c-0.218-0.018-0.435-0.052-0.651-0.054
		c-3.039-0.031-3.794-0.961-3.179-3.929c0.048-0.235,0.087-0.471,0.13-0.707c-0.136,0.103-0.279,0.198-0.408,0.31
		C55.751,59.02,55.545,61.718,56.816,62.792z M33.786,98.96c-0.293-0.111-0.459,0.078-0.605,0.273
		c-1.181,1.572-1.083,3.943,0.196,4.92c1.294,0.984,3.645,0.563,4.878-0.89c0.139-0.163,0.195-0.395,0.29-0.594
		c-0.16,0.042-0.327,0.067-0.481,0.13c-0.397,0.16-0.775,0.389-1.186,0.5c-2.13,0.584-3.355-0.409-3.229-2.619
		c0.023-0.422,0.188-0.836,0.25-1.258C33.918,99.276,33.827,99.113,33.786,98.96z M59.668,82.931
		c-1.406,1.504-1.638,3.787-0.551,4.997c0.99,1.104,3.393,0.978,4.711-0.272c0.151-0.144,0.178-0.42,0.263-0.635
		c-0.163,0.021-0.327,0.047-0.491,0.064c-3.332,0.357-4.342-0.714-3.61-3.811c0.063-0.27,0.444-0.454,0.214-0.798
		C60.006,82.644,59.809,82.81,59.668,82.931z M81.547,36.286c-0.396,0.386-0.504,0.914-0.691,1.392
		c-0.611,1.558-0.285,2.772,0.957,3.637c1.119,0.779,2.365,0.703,3.574-0.257c0.178-0.139,0.248-0.415,0.367-0.626
		c-0.172,0.011-0.344,0.049-0.51,0.029c-2.996-0.364-3.6-1.092-3.252-3.911c0.031-0.252,0.096-0.5,0.145-0.751
		C81.939,35.961,81.744,36.124,81.547,36.286z M18.073,112.187c-0.096,0.155,0.031-0.052,0.159-0.259
		c-0.237,0.097-0.468,0.212-0.712,0.286c-2.432,0.748-3.949-0.141-4.042-2.322c-0.021-0.502,0.628-1.251-0.091-1.424
		c-0.398-0.096-0.901,0.781-1.003,1.372c-0.209,1.208-0.258,2.515,0.736,3.388c0.904,0.793,2.089,0.741,3.196,0.287
		C16.875,113.286,17.444,113.048,18.073,112.187z M111.623,44.014c0.074-0.149,0.25-0.381,0.205-0.434
		c-0.242-0.299-0.58-0.124-0.895-0.125c-2.576-0.006-3.391-0.995-2.896-3.468c0.066-0.332,0.088-0.672,0.129-1.009
		c-0.238,0.23-0.525,0.429-0.707,0.698c-0.438,0.645-0.758,1.348-0.824,2.142c-0.088,1.081,0.037,2.087,1.109,2.672
		C108.75,45.038,110.914,44.753,111.623,44.014z M7.468,90.131c-1.481,1.541-1.643,3.716-0.446,4.994
		c1.054,1.126,2.706,1.13,4.198-0.014c0.186-0.142,0.448-0.468,0.397-0.575c-0.12-0.25-0.404-0.044-0.628-0.018
		c-3.013,0.355-3.726-0.381-3.29-3.393c0.038-0.255,0.115-0.504,0.163-0.758c0.032-0.164,0.045-0.332,0.065-0.498
		C7.742,89.976,7.556,90.081,7.468,90.131z"/>
</g>
</svg>
