<?xml version="1.0" encoding="utf-8"?>
<!-- Generator: Adobe Illustrator 16.0.4, SVG Export Plug-In . SVG Version: 6.00 Build 0)  -->
<!DOCTYPE svg PUBLIC "-//W3C//DTD SVG 1.1//EN" "http://www.w3.org/Graphics/SVG/1.1/DTD/svg11.dtd">
<svg version="1.1" id="Layer_0712" xmlns="http://www.w3.org/2000/svg" xmlns:xlink="http://www.w3.org/1999/xlink" x="0px" y="0px"
	 width="128px" height="128px" viewBox="0 0 128 128" enable-background="new 0 0 128 128" xml:space="preserve">
<g>
	<path fill-rule="evenodd" clip-rule="evenodd" d="M0.107,106.18c1.41-1.195,2.994-1.09,4.621-0.606
		c3.052,0.906,6.055,1.979,9.175,2.655c11.64,2.521,23.138,1.973,34.34-2.069c17.196-6.206,31.626-16.453,43.115-30.67
		c5.736-7.1,9.618-15.175,11.138-24.275c0.258-1.549,0.294-3.105,0.312-4.664c0.021-1.821,0.692-3.305,2.151-4.412
		c1.295-0.982,2.651-1.287,4.145-0.411c3.907,2.292,8.095,3.244,12.637,2.825c2.07-0.191,3.365,1.231,4.456,2.794
		c0.908,1.302,1.098,2.887,1.695,4.311c0,1.562,0,3.124,0,4.686c-0.808,4.11-1.94,8.118-3.869,11.859
		c-3.771,7.313-7.788,14.481-12.587,21.184c-7.231,10.1-15.8,18.751-26.876,24.647c-7.562,4.027-15.743,6.318-23.993,8.408
		c-3.778,0.957-7.656,1.336-11.476,2.054c-4.118,0-8.235,0-12.353,0c-0.189-0.089-0.374-0.239-0.569-0.26
		c-10.449-1.096-19.955-4.942-29.08-9.916c-2.76-1.504-5.255-3.311-6.983-6.01C0.107,107.599,0.107,106.89,0.107,106.18z"/>
	<path fill-rule="evenodd" clip-rule="evenodd" d="M111.28,3.525c6.477,2.406,8.808,7.745,9.862,13.97
		c0.561,3.311,0.432,6.618,0.143,9.962c-0.423,4.883-0.246,9.782,0.424,14.648c0.27,1.959,0.285,1.929-1.744,2.004
		c-3.719,0.14-7.156-0.786-10.372-2.625c-0.636-0.364-1.03-0.668-0.384-1.425c3.919-4.584,5.382-10.212,6.678-15.902
		c0.599-2.629,1.17-5.266,0.897-7.995c-0.373-3.728-2.154-6.55-5.464-8.338c-1.825-0.987-3.72-1.23-5.73-0.441
		c-1.068,0.419-2.549,1.215-3.207-0.179c-0.592-1.251,0.87-2.066,1.719-2.875c0.347-0.33,0.553-0.446,1.188-0.755
		C107.397,3.037,109.494,2.678,111.28,3.525z"/>
</g>
</svg>
