<?xml version="1.0" encoding="utf-8"?>
<!-- Generator: Adobe Illustrator 16.0.4, SVG Export Plug-In . SVG Version: 6.00 Build 0)  -->
<!DOCTYPE svg PUBLIC "-//W3C//DTD SVG 1.1//EN" "http://www.w3.org/Graphics/SVG/1.1/DTD/svg11.dtd">
<svg version="1.1" id="Layer_0713" xmlns="http://www.w3.org/2000/svg" xmlns:xlink="http://www.w3.org/1999/xlink" x="0px" y="0px"
	 width="128px" height="128px" viewBox="0 0 128 128" enable-background="new 0 0 128 128" xml:space="preserve">
<g>
	<path fill-rule="evenodd" clip-rule="evenodd" d="M28.243,13.033c15.537,0.006,26.881,13.435,24.244,28.799
		c-0.635,3.695-1.718,7.312-2.37,11.005c-1.88,10.641,0.692,20.361,6.709,29.145c6.432,9.39,5.43,22.848-2.608,31.183
		c-8.186,8.487-21.217,9.892-30.941,3.305c-4.471-3.027-8.081-6.995-10.636-11.648C3.649,88.444-1.043,70.942,0.35,52.157
		c0.555-7.475,1.8-14.902,4.199-22.076C8.048,19.616,17.159,13.028,28.243,13.033z M2.299,62.121
		C2.103,77.273,7.31,93.633,17.41,108.48c5.902,8.676,17.853,12.305,27.284,8.293c10.506-4.47,15.999-14.515,13.873-25.299
		c-0.393-1.995-0.996-3.354-3.467-3.635c-9.383-1.063-9.774-1.569-10.581-10.878c-0.044-0.512-0.151-1.041-0.072-1.536
		c0.682-4.265-1.01-7.558-3.94-10.523c-3.02-3.057-3.68-6.689-2.47-10.896c1.463-5.081,4.378-8.996,8.967-11.334
		c3.185-1.622,3.941-3.836,3.574-7.037c-0.855-7.449-4.325-13.336-10.689-17.235c-12.56-7.692-28.755-1.596-33.324,12.616
		C3.623,40.166,2.063,49.604,2.299,62.121z"/>
	<path fill-rule="evenodd" clip-rule="evenodd" d="M127.85,40.903c-1.732,19.928-3.763,39.812-10.853,58.771
		c-1.875,5.015-4.648,9.493-8.041,13.637c-9.832,12.007-29.224,8.422-34.945-4.99c-3.308-7.752-4.027-15.894-3.562-24.144
		c0.965-17.127,3.677-34.004,8.226-50.547c1.724-6.267,4.054-12.332,8.119-17.594c5.287-6.845,11.95-9.717,20.644-8.302
		c8.805,1.434,14.689,6.173,17.685,14.443C127.3,28.193,128.091,34.468,127.85,40.903z M72.58,85.074
		c0.027,6.299,0.235,12.782,2.173,19.066c2.236,7.265,6.856,12.154,14.413,13.773c8.058,1.729,14.353-1.32,19.293-7.645
		c4.168-5.334,6.854-11.421,8.779-17.829c4.691-15.613,6.877-31.676,8.095-47.875c0.565-7.535,0.129-15.042-2.526-22.245
		c-2.771-7.521-8.503-11.271-16.164-12.405c-7.413-1.098-13.446,1.292-17.944,7.371c-3.606,4.876-5.973,10.352-7.611,16.136
		C76.317,50.247,73.599,67.418,72.58,85.074z"/>
	<path fill-rule="evenodd" clip-rule="evenodd" d="M100.071,72.493c-1.837,1.826-0.81,4.212-1.229,6.314l0.104-0.063
		c-1.436,1.123-1.004,2.714-1.046,4.187c-0.808,0.748-1.125,1.681-0.857,2.736c0.104,0.41,0.567,0.451,0.614,0.152
		c0.129-0.818,0.146-1.656,0.197-2.488c0.012-0.165-0.03-0.335-0.047-0.502c0.386,0.051,0.771,0.104,1.158,0.153l-0.106-0.048
		c-0.017,1.657,0.176,3.351-0.603,4.899c-0.445,0.887,0.131,3.002-2.118,1.889c0.049,0.658,0.002,1.341,0.166,1.969
		c0.438,1.674,0.609,3.278-0.595,4.729c-0.081-0.399-0.163-0.799-0.244-1.198c-0.058,0.11-0.192,0.26-0.16,0.326
		c0.139,0.277,0.327,0.53,0.498,0.793c-0.6,5.257-2.328,10.227-3.886,15.24c-0.148,0.478-0.359,1.098-0.92,0.971
		c-0.206-0.047-0.331-0.913-0.315-1.4c0.14-4.576-0.298-9.194,0.821-13.703c0.586-2.354,0.357-4.729,0.403-7.101
		c0.036-1.864-0.08-3.757,0.933-5.455c-0.386,1.62-0.484,3.239,0.106,4.832c0.123,0.331,0.562,0.272,0.61-0.162
		c0.178-1.598,0.662-3.285-0.803-4.606c0.019-1.01,0-2.019,0.061-3.026c0.069-1.164,0.207-2.326,0.315-3.488
		c1.143,0.734,0.501,1.938,0.764,2.903c0.101,0.367-0.105,0.929,0.523,0.956c0.057,0.003,0.19-0.607,0.203-0.935
		c0.064-1.85,0.104-3.699,0.152-5.55l-0.093,0.087c1.916-3.26,1.374-7.04,2.222-10.526l-0.069,0.131
		c2.151,0.114,4.28,0.088,6.226-1.036l-0.104-0.09c0.105,1.708-1.478,3.013-1.135,4.8c0.064,0.331,0.219,0.898-0.397,1.068
		c-0.11-0.465-0.242-0.926-0.325-1.395c-0.085-0.485-0.048-1.063-0.702-1.114c-0.108-0.01-0.365,0.548-0.376,0.852
		c-0.052,1.329-0.039,2.66-0.049,3.99L100.071,72.493z"/>
	<path fill-rule="evenodd" clip-rule="evenodd" d="M101.952,30.55c0.868-5.742,2.656-11.25,4.229-16.814
		c0.184-0.651,0.353-1.581,1.087-1.497c1.226,0.141,0.715,1.331,0.688,2.005c-0.287,6.809-1.296,13.586-0.867,20.427l0.082-0.057
		c-4.73-2.261-5.09-2.195-8.482,1.605c-0.54,0.604-0.889,1.442-1.875,1.476l0.076,0.046c0.299-3.424,4.161-4.328,5.145-7.268
		l0.187,0.332L101.952,30.55z M105.504,31.42c0.254,0.14,0.326-0.033,0.194-0.521c-0.003-0.011-0.186,0.006-0.186,0.018
		C105.5,31.082,105.504,31.249,105.504,31.42z"/>
	<path fill-rule="evenodd" clip-rule="evenodd" d="M96.9,65.378c-0.396,0.544-0.696,1.425-1.206,1.569
		c-1.524,0.433-0.71-0.925-0.856-1.457c-1.254-4.55-2.854-9.068-2.097-13.912c0.748-4.798,0.935-9.775,4.148-13.838l-0.076-0.046
		c0.239,1.955-0.858,3.577-1.363,5.339c-2.194,7.665-3.028,15.225,1.381,22.476L96.9,65.378z"/>
	<path fill-rule="evenodd" clip-rule="evenodd" d="M109.128,40.886c1.76,4.566,0.749,8.918-1.02,13.211l0.095,0.088
		c-0.263-4.512,1.443-8.872,1.031-13.395L109.128,40.886z"/>
	<path fill-rule="evenodd" clip-rule="evenodd" d="M94.771,75.817c-0.161-0.297-0.383-0.577-0.473-0.895
		c-0.37-1.297-0.722-2.604,0.033-3.896c0.668,1.239,0.203,2.576,0.331,3.861c0.033,0.336,0.012,0.677,0.016,1.016L94.771,75.817z"/>
	<path fill-rule="evenodd" clip-rule="evenodd" d="M99.968,72.584c0.602,0.617,0.996,1.336,0.923,2.217
		c-0.047,0.582,0.166,1.295-0.62,1.601c-0.104-0.475-0.283-0.947-0.296-1.425c-0.022-0.826,0.06-1.655,0.097-2.483L99.968,72.584z"
		/>
	<path fill-rule="evenodd" clip-rule="evenodd" d="M98.842,78.808c1.429,1.369,1.027,2.746,0.017,4.127l0.106,0.048
		c-0.007-1.412-0.013-2.825-0.02-4.238L98.842,78.808z"/>
	<path fill-rule="evenodd" clip-rule="evenodd" d="M108.109,36.768c1.788,1.015,1.037,2.657,1.019,4.119l0.106-0.096
		c-1.36-1.114-1.067-2.644-1.034-4.108L108.109,36.768z"/>
	<path fill-rule="evenodd" clip-rule="evenodd" d="M106.071,60.316c-0.151,1.375-0.532,2.596-2.051,3.053l0.074,0.079
		c0.109-1.412,0.629-2.551,2.056-3.085L106.071,60.316z"/>
	<path fill-rule="evenodd" clip-rule="evenodd" d="M107.065,57.207c0.179,1.199,0.308,2.383-0.994,3.109l0.079,0.046
		c-0.17-1.2-0.116-2.327,1.025-3.092L107.065,57.207z"/>
	<path fill-rule="evenodd" clip-rule="evenodd" d="M108.108,54.098c-0.035,1.141,0.413,2.444-1.043,3.109l0.11,0.064
		c0.066-1.12-0.09-2.315,1.027-3.085L108.108,54.098z"/>
	<path fill-rule="evenodd" clip-rule="evenodd" d="M107.089,34.67c1.04,0.358,1.038,1.224,1.021,2.097c0,0,0.091-0.084,0.091-0.084
		c-0.833-0.446-0.986-1.231-1.029-2.07L107.089,34.67z"/>
	<path fill-rule="evenodd" clip-rule="evenodd" d="M104.021,63.37c-0.056,0.654-0.375,1.03-1.068,1.013c0,0,0.104,0.091,0.104,0.091
		c0.146-0.544,0.396-0.983,1.038-1.025L104.021,63.37z"/>
	<path fill-rule="evenodd" clip-rule="evenodd" d="M96.357,53.292c0.089-5.59,1.533-10.753,4.487-15.48
		c0.624-0.999,1.312-2.188,2.711-1.951c1.4,0.237,1.715,1.603,1.932,2.737c1.486,7.763,0.632,15.188-3.422,22.101
		c-0.617,1.052-1.447,2.233-2.668,2.101c-1.46-0.158-2.229-1.52-2.421-2.929C96.677,57.691,96.555,55.486,96.357,53.292z
		 M97.964,53.088c-0.01,2.492-0.042,4.05,0.611,5.485c0.307,0.674-0.021,1.883,1.2,1.865c0.729-0.011,1.11-0.728,1.41-1.342
		c2.923-5.97,4.314-12.192,2.991-18.832c-0.15-0.753-0.038-1.944-1.246-1.813c-0.516,0.056-1.085,0.772-1.401,1.319
		C98.986,44.182,98.416,49.098,97.964,53.088z"/>
</g>
</svg>
