<?xml version="1.0" encoding="utf-8"?>
<!-- Generator: Adobe Illustrator 16.0.4, SVG Export Plug-In . SVG Version: 6.00 Build 0)  -->
<!DOCTYPE svg PUBLIC "-//W3C//DTD SVG 1.1//EN" "http://www.w3.org/Graphics/SVG/1.1/DTD/svg11.dtd">
<svg version="1.1" id="Layer_0714" xmlns="http://www.w3.org/2000/svg" xmlns:xlink="http://www.w3.org/1999/xlink" x="0px" y="0px"
	 width="128px" height="128px" viewBox="0 0 128 128" enable-background="new 0 0 128 128" xml:space="preserve">
<path fill-rule="evenodd" clip-rule="evenodd" d="M109.266,21.23c-0.284-1.048-1.308-1.317-2.243-1.507
	c-4.777-0.971-9.314,0.779-13.966,1.264c-0.024,0.049-0.059,0.09-0.082,0.142c-0.074,0.065-0.168,0.095-0.27,0.111
	c-0.459,0.539-1.365,0.907-1.384,0.763c-0.153-1.22,0.789-0.67,1.384-0.763c0.064-0.075,0.119-0.152,0.163-0.232
	c0.063-0.006,0.126-0.015,0.188-0.021c0.807-1.557,2.516-1.885,3.877-2.572c2.191-1.106,3.805-2.786,5.359-4.559
	c1.391-1.584,3.627-3.568,2.479-5.439c-1.494-2.435-4.317-0.515-6.449-0.076c-3.731,0.769-6.535,3.449-9.696,5.388
	c-0.008,0.052-0.012,0.106-0.021,0.157c-0.049,0-0.078,0.02-0.124,0.022c-0.162,0.682-0.604,1.078-1.257,1.256
	c-0.013,0.057-0.033,0.105-0.042,0.165c-0.065,0.012-0.115,0.04-0.176,0.056c-0.193,0.608-0.595,1.005-1.203,1.193
	c-0.019,0.062-0.048,0.115-0.063,0.181c-0.498,0.496-0.996,0.992-1.493,1.488c-0.124,0.107-0.248,0.214-0.374,0.321
	c0.089-0.144,0.178-0.289,0.266-0.432c0.495-0.499,0.989-0.997,1.484-1.495c0.066-0.015,0.118-0.044,0.181-0.064
	c0.188-0.612,0.573-1.026,1.203-1.193c0.02-0.059,0.048-0.107,0.062-0.17c0.057-0.011,0.102-0.036,0.155-0.051
	c0.143-0.69,0.473-1.197,1.257-1.256c0.01-0.039,0.029-0.069,0.037-0.11c0.036-0.022,0.071-0.047,0.107-0.069
	c0.099-0.658,0.07-1.401,0.405-1.901c2.325-3.454,4.18-7.236,2.982-11.318c-0.503-1.714-6.451,3.136-9.28,8.628
	c-0.11,0.212-0.14,0.466-0.254,0.674c-0.58,1.044-1.176,2.08-1.766,3.119c-1.085-1.308,0.035-2.615-0.022-3.907
	c-0.087-1.896-0.398-3.788-0.69-5.669c-0.186-1.204-0.535-2.583-1.854-2.822c-1.497-0.271-1.796,1.307-2.24,2.283
	c-2.08,4.568-2.124,9.276-0.822,14.08c0.236,0.873-0.029,1.881-0.063,2.826c-0.613-0.603-1.32-1.137-1.823-1.82
	c-2.128-2.885-3.534-6.353-6.575-8.494c-1.468-1.033-3.119-3.355-4.813-2.043c-1.855,1.436,0.065,3.574,0.938,5.123
	c2.048,3.644,5.447,6.054,8.691,8.517c1.852,1.405,2.762,2.877,2.556,4.547c-0.197,0.223-0.396,0.436-0.59,0.666
	c-0.431,0.511-0.997,0.8-1.517,1.186c-0.219,0.162-0.417,0.345-0.649,0.495c-0.077,0.011-0.152,0.028-0.228,0.05
	c-0.034,0.079-0.085,0.146-0.15,0.202c-0.354,0.266-0.78,0.36-1.143,0.575c-0.093,0.056-0.171,0.2-0.284,0.269
	c-0.089,0.04-0.177,0.082-0.265,0.125c-0.134,0.072-0.253,0.154-0.378,0.223c-0.305,0.171-0.616,0.353-0.905,0.55
	c-0.724,0.492-1.514,0.876-2.205,1.396c-0.608,0.458-1.357,0.703-1.975,1.128c-0.258,0.177-0.531,0.346-0.772,0.549
	c-0.059,0.05-0.161,0.152-0.271,0.253c-0.405-0.274-0.727-0.562-0.779-0.892c-0.827-5.192-3.827-5.828-8.126-4.257
	c-1.376,0.503-3.521-1.743-4.232,0.92c-0.433,1.625-0.69,3.211-2.022,4.37c2.426,2.77,0.728,5.449,0.469,8.386
	c-0.17,1.933,2.338,5.197,0.807,7.156c-2.519,3.224,0.806,5.23,0.738,7.91c-0.112,4.387-0.822,7.746-4.892,10.225
	c-2.044,1.246-4.107,2.386-6.248,3.418c-4.121,1.988-7.156,4.881-7.658,9.668c-0.238,2.268-1.036,4.278-2.582,5.8
	c-7.051,6.934-8.399,15.903-8.979,25.079c-0.181,2.856-1.834,7.092,2.27,8.063c3.543,0.839,4.77-3.283,6.56-5.706
	c2.653-3.59,3.845-8.104,7.104-11.315c0-0.051,0-0.101,0-0.15c0.043-0.057,0.08-0.116,0.123-0.174
	c1.216-7.534,4.27-14.498,6.812-21.615c0.273-0.763,1.514-1.853,2.044-1.722c1.624,0.398,0.861,1.878,0.598,2.845
	c-1.998,7.358-4.864,14.329-9.455,20.492c-0.013,0.08-0.032,0.158-0.044,0.238c-0.028,0.027-0.051,0.059-0.079,0.086
	c-0.021,7.394-0.064,14.788-0.044,22.182c0.003,1.426,0.063,3.083,1.791,3.533c1.728,0.451,2.458-1.109,3.333-2.193
	c4.162-5.157,6.746-11.089,7.887-17.548c0.674-3.807,1.781-7.449,2.924-11.104c0.234-0.751-0.13-1.81,1.008-2.144
	c0.112,0.698,0.391,1.414,0.308,2.088c-0.405,3.327-1.218,6.639-1.269,9.967c-0.037,2.441-1.834,6.61-0.236,6.886
	c2.469,0.428,4.756-2.715,6.563-4.963c1.808-2.248,3.317-4.707,3.964-7.597c0.3-1.341-0.112-3.607,1.383-3.704
	c1.954-0.126,1.748,2.415,2.383,3.764c3.547,7.541,8.451,13.948,15.198,18.865c1.082,0.788,2.335,1.997,3.843,1.257
	c1.873-0.919,1.572-2.778,1.382-4.45c-0.079-0.704-0.506-1.374-0.557-2.075c-0.624-8.721-4.565-16.368-7.784-24.25
	c-0.072-0.037-0.133-0.084-0.207-0.119c-0.037-0.133-0.093-0.25-0.145-0.368c-0.325-0.325-0.65-0.651-0.976-0.976
	c-0.118-0.048-0.232-0.101-0.372-0.127c-0.456-0.961-0.911-1.921-1.367-2.882l-0.232-0.275l0.304,0.204
	c0.472,0.941,0.943,1.886,1.416,2.829c0.084,0.084,0.168,0.168,0.252,0.251c0.461,0.187,0.775,0.521,0.976,0.976
	c0.085,0.086,0.171,0.17,0.257,0.256c0.031,0.078,0.063,0.155,0.095,0.231c2.855,1.466,4.108,4.374,5.881,6.781
	c1.459,1.981,2.945,4.358,5.408,4.373c4.775,0.029,8.018,2.733,11.512,5.257c1.312,0.946,2.876,2.144,4.555,0.908
	c1.518-1.115,1.575-2.907,1.177-4.614c-0.892-3.836-2.818-6.993-5.746-9.736c-5.411-5.066-10.301-10.434-14.162-17.022
	c-4.568-7.789-11.755-13.407-21.038-14.992c-3.295-0.562-3.964-1.961-3.72-4.695c0.31-3.465,0.192-6.98,0.331-10.378
	c0.131-3.21-0.688-6.947,0.843-10.09c0.026-0.016,0.051-0.034,0.078-0.049c0.333-0.191,0.646-0.486,0.937-0.741
	c0.221-0.193,0.291-0.367,0.55-0.491c0.152-0.073,0.301-0.12,0.452-0.194c0.333-0.163,0.612-0.442,0.934-0.646
	c0.271-0.171,0.388-0.429,0.647-0.621c0.236-0.174,0.539-0.241,0.781-0.411c0.289-0.202,0.478-0.457,0.78-0.62
	c0.189-0.103,0.342-0.236,0.51-0.385c0.404-0.356,0.824-0.607,1.293-0.87c0.479-0.268,0.962-0.544,1.419-0.843
	c0.37-0.243,0.813-0.388,1.16-0.641c0.283-0.207,0.437-0.386,0.754-0.523c0.184-0.079,0.251-0.22,0.41-0.327
	c0.235-0.159,0.516-0.167,0.755-0.32c0.177-0.113,0.369-0.211,0.552-0.324c0.012-0.006,0.021-0.014,0.031-0.021
	c3.576,0.415,6.181,2.325,8.115,5.748c2.333,4.125,5.005,8.1,9.26,10.624c0.825,0.49,1.766,1.19,2.604,0.636
	c1.322-0.873,0.445-2.182,0.051-3.174c-0.977-2.455-2.621-4.45-4.519-6.315c-1.438-1.415-3.524-2.366-3.958-4.646
	c-0.044,0-0.088-0.006-0.132-0.006c-0.101-0.078-0.198-0.158-0.297-0.238c-0.429-0.131-0.857-0.262-1.284-0.393
	c0.178-0.061,0.419-0.226,0.525-0.164c0.268,0.159,0.514,0.357,0.759,0.557c0.132,0.041,0.265,0.081,0.396,0.121
	c0.007,0.044,0.024,0.08,0.032,0.123c2.897,0.004,5.477,1.323,8.151,2.144c3.312,1.016,6.594,0.963,9.933,0.618
	c0.686-0.071,1.369-0.32,1.519-1.203c0.145-0.855-0.366-1.288-0.973-1.685c-3.525-2.306-7.419-3.167-11.593-3.058
	c-0.933,0.024-1.873-0.266-2.809-0.411c0.861-0.173,1.72-0.493,2.581-0.498c5.36-0.03,10.438-1.135,15.09-3.869
	C108.45,22.797,109.594,22.446,109.266,21.23z"/>
</svg>
