<?xml version="1.0" encoding="utf-8"?>
<!-- Generator: Adobe Illustrator 16.0.4, SVG Export Plug-In . SVG Version: 6.00 Build 0)  -->
<!DOCTYPE svg PUBLIC "-//W3C//DTD SVG 1.1//EN" "http://www.w3.org/Graphics/SVG/1.1/DTD/svg11.dtd">
<svg version="1.1" id="Layer_0802" xmlns="http://www.w3.org/2000/svg" xmlns:xlink="http://www.w3.org/1999/xlink" x="0px" y="0px"
	 width="128px" height="128px" viewBox="0 0 128 128" enable-background="new 0 0 128 128" xml:space="preserve">
<g>
	<path fill-rule="evenodd" clip-rule="evenodd" d="M69.812,76.384c-0.364,10.161-0.565,20.814-2.018,31.406
		c-0.079,0.584,0.296,1.468-0.63,1.666c-0.619,0.133-0.896-0.654-1.343-1.014c-4.2-3.387-6.7-7.139-6.92-12.535
		c-0.424-10.432-0.495-20.855-0.536-31.286c-0.008-2.11,1.127-3.784,2.791-5.231c2.14-1.861,4.539-3.5,6.362-5.634
		c0.359-0.42,0.796-1.105,1.428-0.776c0.363,0.19,0.389,0.981,0.432,1.51C69.952,61.619,69.739,68.762,69.812,76.384z"/>
	<path fill-rule="evenodd" clip-rule="evenodd" d="M47.131,57.468c0.798-10.549,2.815-20.94,5.48-31.251
		c0.772-2.984,3.586-4.433,5.842-6.265c1.047-0.85,1.015,0.344,1.003,0.901c-0.083,4.068-0.81,8.093-1.114,12.151
		c-0.864,11.527-1.498,23.054-1.447,34.607c0.003,0.55,0.023,1.101-0.018,1.649c-0.047,0.631,0.321,1.521-0.357,1.824
		c-0.9,0.4-1.155-0.611-1.637-1.041c-1.319-1.184-2.543-2.451-3.882-3.617C48.147,63.941,46.798,60.988,47.131,57.468z"/>
	<path fill-rule="evenodd" clip-rule="evenodd" d="M80.833,57.797c0.77,3.458-1.564,6.966-5.271,9.962
		c-1.344,1.087-2.062,3.33-3.899,3.099c-0.824-0.104-0.268-2.813-0.316-4.339c-0.465-14.617-1.037-29.229-2.777-43.786
		c-0.052-0.437-0.133-0.878-0.111-1.314c0.026-0.532-0.066-1.323,0.273-1.531c0.603-0.369,1.02,0.374,1.52,0.661
		c3.479,1.994,5.136,4.794,5.951,8.366C78.297,38.089,80.009,47.292,80.833,57.797z"/>
	<path fill-rule="evenodd" clip-rule="evenodd" d="M46.653,75.506c0-3.181-0.007-6.362,0.009-9.543
		c0.002-0.42-0.034-0.972,0.596-1.055c0.257-0.034,0.635,0.284,0.87,0.511c2.104,2.042,4.241,4.062,6.265,6.162
		c1.592,1.651,2.278,3.676,2.45,5.783c0.663,8.111,0.011,16.017-5.188,23.139c-0.262,0.359-0.555,0.967-0.865,0.982
		c-0.933,0.049-0.599-0.765-0.733-1.195c-1.828-5.852-2.423-11.865-2.917-17.88c-0.188-2.29-0.03-4.603-0.03-6.905
		C46.956,75.505,46.804,75.505,46.653,75.506z"/>
	<path fill-rule="evenodd" clip-rule="evenodd" d="M81.286,73.341c-0.231,8.787-0.98,17.527-3.006,26.156
		c-0.146,0.621-0.064,1.506-0.984,1.574c-0.607,0.044-0.762-0.779-1.104-1.225c-5.806-7.543-5.647-15.953-4.528-24.441
		c0.393-2.984,2.911-5.061,5.268-7.053c1.316-1.113,2.695-3.69,3.721-3.176c1.544,0.773,0.451,3.174,0.615,4.873
		C81.372,71.14,81.286,72.243,81.286,73.341z"/>
	<path fill-rule="evenodd" clip-rule="evenodd" d="M28.312,77.09c0-2.96-0.019-5.919,0.014-8.879
		c0.008-0.644-0.033-1.54,0.673-1.779c0.95-0.32,0.942,0.755,1.413,1.165c4.074,3.557,5.314,7.879,5.521,12.846
		c0.261,6.227,1.398,12.43,3.397,18.467c0.2,0.604,0.744,1.402,0.042,1.826c-0.67,0.405-1.368-0.308-2.018-0.6
		c-2.218-1-3.66-2.672-4.913-4.459c-2.584-3.682-4.408-7.577-4.279-12.006c0.064-2.193,0.011-4.388,0.011-6.58
		C28.219,77.09,28.265,77.09,28.312,77.09z"/>
	<path fill-rule="evenodd" clip-rule="evenodd" d="M45.953,54.926c-0.536,5.358-0.853,10.751-0.508,16.1
		c0.406,6.29-2.767,11.47-5.683,16.802c-0.19,0.347-0.344,0.941-1.019,0.641c-0.266-0.119-0.466-0.511-0.519-0.803
		c-0.233-1.299-0.451-2.603-0.584-3.912c-0.669-6.555-1.14-13.113-0.538-19.698c0.116-1.27,0.67-2.324,1.558-3.281
		c1.978-2.131,3.964-4.256,5.954-6.379c0.306-0.326,0.584-0.881,1.152-0.647C46.283,53.962,46.006,54.513,45.953,54.926z"/>
	<path fill-rule="evenodd" clip-rule="evenodd" d="M82.854,67.352c0.217-3.282-0.556-7.534-0.742-11.812
		c-0.021-0.49-0.322-1.204,0.449-1.415c0.74-0.202,0.982,0.529,1.399,0.895c0.177,0.154,0.283,0.375,0.474,0.513
		c8.199,5.943,7.026,14.069,6.515,21.92c-0.22,3.372-0.196,6.816-1.247,10.13c-0.141,0.447,0.306,1.208-0.608,1.25
		c-0.269,0.013-0.67-0.594-0.851-0.974C83.136,77.116,82.675,80.921,82.854,67.352z"/>
	<path fill-rule="evenodd" clip-rule="evenodd" d="M99.597,70.973c0.533,4.946,0.061,9.888-0.094,14.829
		c-0.161,5.133-2.988,9.211-6.735,12.908c-0.649,0.641-1.585,1.07-2.423,1.553c-0.512,0.295-1.145,0.785-1.695,0.473
		c-0.596-0.338-0.206-0.981-0.057-1.512c2.229-7.914,3.618-15.934,4.14-24.071c0.224-3.479,3.472-5.503,5.411-8.149
		c0.494-0.675,1.141-0.361,1.228,0.355C99.517,68.558,99.528,69.767,99.597,70.973z"/>
	<path fill-rule="evenodd" clip-rule="evenodd" d="M30.394,95.874c2.676,2.777,5.533,5.361,9.294,7.076
		c1.317,0.6,1.772,1.836,2.239,2.971c3.16,7.674,7.854,14.488,14.745,20.09c0.358,0.292,0.946,0.844,0.849,1
		c-0.397,0.639-1.067,0.165-1.589,0.04c-4.47-1.072-8.46-2.945-11.749-5.787c-8.122-7.015-12.342-15.653-13.728-25.433
		L30.394,95.874z"/>
	<path fill-rule="evenodd" clip-rule="evenodd" d="M70.728,126.894c6.172-5.573,11.491-11.681,14.49-19.031
		c1.308-3.205,3.309-5.584,6.812-7.029c2.162-0.892,3.453-2.496,4.602-4.232c0.162-0.246,0.699-0.564,0.871-0.494
		c0.391,0.158,0.185,0.567,0.1,0.883c-2.826,10.437-6.943,20.25-17.613,26.752c-2.769,1.688-5.664,3.326-9.324,3.1L70.728,126.894z"
		/>
	<path fill-rule="evenodd" clip-rule="evenodd" d="M58.502,52.049c0.355-5.884,0.664-11.459,1.057-17.03
		c0.065-0.921-0.266-2.274,0.901-2.617c0.978-0.287,1.482,0.991,2.174,1.588c0.893,0.77,1.698,1.613,2.559,2.413
		c5.313,4.942,5.597,12.151,0.519,17.25c-2.009,2.018-3.944,4.186-6.944,5.247C58.027,56.53,58.805,54.124,58.502,52.049z"/>
	<path fill-rule="evenodd" clip-rule="evenodd" d="M82.88,81.3c2.137,2.617,3.504,5.555,4.67,8.568
		c0.32,0.824,0.648,1.722,0.597,2.568c-0.448,7.258-3.019,13.936-7.491,20.062c-0.266,0.362-0.666,0.668-1.061,0.936
		c-1.211,0.816-2.882,1.92-4.033,1.283c-1.388-0.768,0.193-2.17,0.604-3.209c3.386-8.574,4.863-17.459,5.891-26.424
		c0.15-1.301-0.043-2.655,0.873-3.822L82.88,81.3z"/>
	<path fill-rule="evenodd" clip-rule="evenodd" d="M44.918,81.501c0.987,0.087,0.682,0.777,0.732,1.223
		c0.7,6.124,1.392,12.246,2.907,18.275c1.026,4.088,2.454,8.068,4.007,12.021c0.194,0.495,0.696,1.062,0.267,1.534
		c-0.607,0.672-1.386,0.15-2.068-0.033c-2.475-0.667-4.021-2.228-5.078-4.18c-2.703-4.994-4.543-10.243-5.946-15.615
		c-0.259-0.991-0.045-1.957,0.182-2.936c0.792-3.387,2.662-6.393,4.352-9.463C44.433,82.036,44.693,81.785,44.918,81.501z"/>
	<path fill-rule="evenodd" clip-rule="evenodd" d="M90.425,56.843c-0.174,0.706,0.572,1.707-0.517,2.024
		c-0.751,0.219-1.142-0.703-1.67-1.141c-5.866-4.861-7.257-11.202-8.533-17.831c-0.915-4.752,1.13-8.874,1.724-13.288
		c0.039-0.294,0.043-0.734,0.588-0.619c0.543,0.115,0.689,0.574,0.853,0.992c1.629,4.164,3.009,8.39,4.202,12.663
		C88.653,45.315,89.576,51.082,90.425,56.843z"/>
	<path fill-rule="evenodd" clip-rule="evenodd" d="M48.6,36.656c-0.547,3.087-1.104,7.566-2.186,11.947
		c-1.016,4.117-4.575,6.965-7.685,9.974c-0.218,0.211-0.73,0.441-0.946,0.356c-0.526-0.207-0.37-0.719-0.323-1.129
		c1.222-10.503,3.816-20.746,7.762-30.73c0.155-0.394,0.515-1.048,0.74-1.036c0.55,0.031,0.509,0.62,0.554,1.014
		C46.835,29.894,49.154,32.318,48.6,36.656z"/>
	<path fill-rule="evenodd" clip-rule="evenodd" d="M68.38,34.418c0,0.137,0.033,0.688-0.006,1.235
		c-0.074,1.009-0.701,1.121-1.408,0.47c-2.491-2.292-5.446-4.243-6.456-7.565c-0.59-1.938,0.08-3.715,0.294-5.539
		c0.746-6.333,1.648-12.654,2.521-18.976c0.086-0.621,0.052-1.542,0.914-1.611c0.436-0.035,0.337,0.925,0.425,1.446
		C66.364,13.876,67.431,23.934,68.38,34.418z"/>
	<path fill-rule="evenodd" clip-rule="evenodd" d="M37.484,46.682c-0.673,5.822-1.167,10.965-1.91,16.08
		c-0.306,2.099,0.3,4.159-0.068,6.226c-0.055,0.307-0.132,0.713-0.374,0.871c-0.555,0.361-0.89-0.119-1.23-0.418
		c-2.997-2.635-4.695-5.828-4.3-9.509c0.682-6.356,2.654-12.503,4.708-18.617c0.141-0.419,0.308-0.946,0.88-0.956
		c0.585-0.011,0.64,0.563,0.812,0.936C36.899,43.246,37.533,45.248,37.484,46.682z"/>
	<path fill-rule="evenodd" clip-rule="evenodd" d="M90.429,47.137c-0.135-2.046,0.75-3.882,1.524-5.74
		c0.171-0.407,0.284-0.945,0.907-0.891c0.586,0.051,0.589,0.612,0.731,1.006c2.05,5.665,3.53,11.439,4.575,17.31
		c0.734,4.116-0.594,7.569-3.896,10.508c-0.332,0.295-0.599,0.83-1.189,0.586c-0.227-0.094-0.372-0.542-0.368-0.828
		C92.794,61.704,91.288,54.445,90.429,47.137z"/>
	<path fill-rule="evenodd" clip-rule="evenodd" d="M76.681,104.956c-0.145,1.445-0.811,2.873-1.322,4.338
		c-1.771,5.072-4.309,9.824-7.816,14.168c-0.232,0.288-0.5,0.82-1.062,0.521c-0.149-0.079-0.048-0.613,0.036-0.918
		c2.447-9,3.027-18.203,3.977-27.367c0.055-0.533,0.24-1.508,0.385-1.511c0.963-0.021,0.85,0.857,1.168,1.368
		c1.082,1.732,2.112,3.49,3.136,5.25C75.924,102.081,76.528,103.404,76.681,104.956z"/>
	<path fill-rule="evenodd" clip-rule="evenodd" d="M61.592,124.194c-2.367-1.311-3.188-3.582-4.473-5.543
		c-1.881-2.871-3-6.035-4.397-9.094c-1.567-3.434-1.049-6.655,0.822-9.835c0.918-1.562,1.824-3.128,2.713-4.702
		c0.213-0.377,0.279-0.959,0.874-0.891c0.652,0.074,0.452,0.682,0.485,1.069c0.23,2.735,0.479,5.472,0.626,8.212
		c0.379,7.029,2.024,13.902,3.302,20.822L61.592,124.194z"/>
	<path fill-rule="evenodd" clip-rule="evenodd" d="M67.591,1.433c1.155,0.188,1.498,1.093,2.043,1.796
		c3.605,4.654,6.348,9.707,9.057,14.78c2.09,3.911,1.907,7.852,0.557,11.858c-0.134,0.395-0.124,1.013-0.644,1.038
		c-0.562,0.026-0.696-0.583-0.798-0.995c-1.041-4.291-2.404-8.507-3.734-12.735c-1.701-5.403-4.48-10.463-6.423-15.785L67.591,1.433
		z"/>
	<path fill-rule="evenodd" clip-rule="evenodd" d="M60.021,1.353c0.167,1.036-0.353,1.94-0.776,2.846
		c-3.661,7.838-6.475,15.899-8.579,24.156c-0.188,0.74-0.034,2.08-1.146,2.036c-1.048-0.042-1.066-1.366-1.266-2.183
		c-0.581-2.378-0.984-4.87-0.057-7.165c2.846-7.039,6.65-13.675,11.876-19.643L60.021,1.353z"/>
	<path fill-rule="evenodd" clip-rule="evenodd" d="M36.42,36.867c0.023-1.153,0.423-2.198,0.882-3.224
		c2.699-6.042,5.885-11.888,9.417-17.594c0.239-0.386,0.474-0.784,0.785-1.123c0.356-0.389,0.685-1.046,1.443-0.576
		c0.518,0.321,0.212,0.797,0.019,1.194c-0.783,1.615-1.595,3.22-2.363,4.84c-3.136,6.611-5.399,13.462-7.435,20.377
		c-0.152,0.518-0.534,1.441-0.702,1.423c-0.85-0.092-1.021-0.833-1.179-1.45C36.96,39.453,36.705,38.157,36.42,36.867z"/>
	<path fill-rule="evenodd" clip-rule="evenodd" d="M91.233,37.477c0.068,1.24-0.287,2.519-0.767,3.779
		c-0.157,0.412-0.287,0.948-0.916,0.873c-0.595-0.071-0.526-0.636-0.651-1.035c-1.121-3.605-2.203-7.22-3.385-10.809
		c-1.604-4.872-3.899-9.518-6.248-14.146c-0.277-0.547-1.029-1.347-0.244-1.776c0.861-0.472,1.197,0.513,1.539,0.997
		c4.305,6.125,7.475,12.713,10.369,19.409C91.295,35.61,91.298,36.493,91.233,37.477z"/>
	<path fill-rule="evenodd" clip-rule="evenodd" d="M66.944,114.045c-0.467,3.315-1.229,6.526-2.139,9.712
		c-0.117,0.408-0.33,1.059-0.618,1.111c-0.514,0.096-0.754-0.445-0.88-0.879c-1.595-5.526-2.503-11.154-3.263-16.804
		c-0.064-0.481-0.305-1.165,0.521-1.375c0.547-0.14,0.902,0.302,1.202,0.639C63.861,108.804,67.267,110.495,66.944,114.045z"/>
	<path fill-rule="evenodd" clip-rule="evenodd" d="M61.684,6.25c-0.489,2.711-0.947,5.427-1.476,8.132
		c-0.494,2.523-2.318,4.341-4.406,5.988c-0.244,0.193-0.733,0.373-0.984,0.286c-0.393-0.137-0.271-0.574-0.17-0.885
		c1.777-5.5,3.7-10.957,6.496-16.146c0.143-0.265,0.53-0.428,0.804-0.64c-0.001,0.322,0.032,0.647-0.009,0.965
		c-0.101,0.764-0.238,1.524-0.359,2.286C61.614,6.242,61.648,6.246,61.684,6.25z"/>
	<path fill-rule="evenodd" clip-rule="evenodd" d="M66.556,3.516c0.234,0.254,0.533,0.468,0.668,0.743
		c2.447,5.048,4.514,10.215,6.236,15.484c0.091,0.28-0.066,0.622-0.108,0.936c-0.336-0.107-0.737-0.145-0.999-0.331
		c-2.078-1.482-4-3.176-4.518-5.515c-0.734-3.327-1.111-6.715-1.62-10.08C66.155,4.355,66.08,3.914,66.556,3.516z"/>
	<path fill-rule="evenodd" clip-rule="evenodd" d="M50.665,115.995c1.605,0.375,3.345,0.489,4.244,1.921
		c1.933,3.079,3.757,6.215,6.59,8.786c0.209,0.189,0.365,0.66,0.241,0.84c-0.257,0.371-0.593,0.09-0.885-0.119
		c-4.105-2.947-7.773-6.24-10.646-10.162C49.786,116.684,49.297,116.056,50.665,115.995z"/>
	<path fill-rule="evenodd" clip-rule="evenodd" d="M66.91,126.886c1.86-3.121,4.612-5.77,6.267-9.002
		c0.189-0.367,0.65-0.676,1.066-0.896c1.188-0.63,2.997-1.475,3.77-0.83c0.939,0.786-0.68,1.863-1.395,2.656
		c-2.782,3.094-5.393,6.373-9.736,8.047L66.91,126.886z"/>
	<path fill-rule="evenodd" clip-rule="evenodd" d="M53.246,8.011c-0.063,0.206-0.073,0.442-0.199,0.614
		c-0.767,1.045-0.978,2.417-2.387,3.08c-0.017,0.008-0.218-0.168-0.202-0.232c0.391-1.487,1.039-2.819,2.844-3.419L53.246,8.011z"/>
	<path fill-rule="evenodd" clip-rule="evenodd" d="M75.181,8.711c1.39,0.484,1.982,1.488,2.261,2.674
		c0.024,0.103-0.239,0.256-0.37,0.386c-0.899-0.905-1.407-1.986-1.84-3.1L75.181,8.711z"/>
	<path fill-rule="evenodd" clip-rule="evenodd" d="M60.899,0.746c0.055-0.156,0.109-0.312,0.165-0.469
		c-0.017,0.063-0.02,0.132-0.053,0.188c-0.046,0.081-0.113,0.152-0.172,0.228L60.899,0.746z"/>
	<path fill-rule="evenodd" clip-rule="evenodd" d="M67.648,1.392c-0.14-0.169-0.28-0.337-0.421-0.505
		c0.686-0.101,0.25,0.361,0.363,0.547L67.648,1.392z"/>
	<path fill-rule="evenodd" clip-rule="evenodd" d="M53.302,8.054c-0.028-0.553,0.021-1.076,0.696-1.355L53.94,6.649
		c-0.042,0.527-0.246,0.991-0.694,1.361L53.302,8.054z"/>
	<path fill-rule="evenodd" clip-rule="evenodd" d="M74.503,7.351c0.5,0.35,0.673,0.824,0.678,1.36l0.051-0.04
		c-0.228-0.454-0.453-0.907-0.681-1.36L74.503,7.351z"/>
	<path fill-rule="evenodd" clip-rule="evenodd" d="M30.455,95.831c-0.14-0.143-0.28-0.286-0.42-0.429
		c0.612-0.126,0.235,0.317,0.359,0.472L30.455,95.831z"/>
	<path fill-rule="evenodd" clip-rule="evenodd" d="M74.551,7.311l-0.048,0.04L74.551,7.311z"/>
	<polygon fill-rule="evenodd" clip-rule="evenodd" points="53.998,6.699 54.164,6.493 53.94,6.649 	"/>
	<path fill-rule="evenodd" clip-rule="evenodd" d="M60.074,1.4c0.108-0.377,0.359-0.618,0.825-0.654l-0.061-0.053
		c-0.153,0.331-0.37,0.604-0.817,0.66L60.074,1.4z"/>
	<path fill-rule="evenodd" clip-rule="evenodd" d="M66.101,127.511c-0.019,0.07-0.036,0.139-0.053,0.209
		c0.037-0.053,0.072-0.105,0.11-0.156C66.158,127.562,66.101,127.511,66.101,127.511z"/>
	<path fill-rule="evenodd" clip-rule="evenodd" d="M70.665,126.841c-0.02,0.072-0.039,0.145-0.059,0.219
		c0.041-0.056,0.08-0.111,0.121-0.166L70.665,126.841z"/>
	<path fill-rule="evenodd" clip-rule="evenodd" d="M66.882,126.86c-0.031,0.426-0.279,0.652-0.781,0.65l0.058,0.051
		c0.049-0.395,0.297-0.621,0.752-0.676L66.882,126.86z"/>
	<path fill-rule="evenodd" clip-rule="evenodd" d="M61.545,124.233l0.047-0.039L61.545,124.233z"/>
	<path fill-rule="evenodd" clip-rule="evenodd" d="M82.929,81.263L82.88,81.3L82.929,81.263z"/>
</g>
</svg>
