<?xml version="1.0" encoding="utf-8"?>
<!-- Generator: Adobe Illustrator 16.0.4, SVG Export Plug-In . SVG Version: 6.00 Build 0)  -->
<!DOCTYPE svg PUBLIC "-//W3C//DTD SVG 1.1//EN" "http://www.w3.org/Graphics/SVG/1.1/DTD/svg11.dtd">
<svg version="1.1" id="Layer_0803" xmlns="http://www.w3.org/2000/svg" xmlns:xlink="http://www.w3.org/1999/xlink" x="0px" y="0px"
	 width="128px" height="128px" viewBox="0 0 128 128" enable-background="new 0 0 128 128" xml:space="preserve">
<g>
	<path fill-rule="evenodd" clip-rule="evenodd" d="M92.633,97.205c6.576,1.614,12.147,5.632,18.982,5.491
		c3.771-0.084,4.277,3.234,4.971,5.911c0.699,2.718,0.08,4.679-2.489,6.85c-27.168,22.923-66.258,10.696-87.131-7.491
		C14.169,96.819,4.789,83.704,1.725,66.848c-1.799-9.891-1.578-19.945,1.389-29.717c1.964-6.448,5.457-11.809,11.097-15.803
		c5.239-3.709,7.413-9.178,7.536-15.501c0.115-5.858,2.347-7.171,7.533-4.412c2.948,1.571,3.859,1.77,9.181,1.982
		c1.528,2.179,1.071,4.407-0.026,6.634c-2.236,4.542-1.996,8.833,0.832,13.136c1.458,2.221,2.68,4.707,3.453,7.242
		c6.806,22.296,33.713,35.908,51.263,35.75c6.562-0.058,13.129,0.426,19.691,0.614c1.784,0.051,3.76,0.405,5.31-0.217
		c3.921-1.565,5.878,0.432,7.583,3.396c1.658,2.876,0.709,4.88-1.211,7.563C117.254,88.835,105.826,94.169,92.633,97.205z
		 M24.694,18.26c-2.504,3.1-4.229,5.955-7.062,7.739c-4.248,2.681-6.904,6.596-8.447,11.229C4.987,49.862,5.024,62.6,9.912,74.936
		c8.968,22.638,26.29,36.573,48.824,44.134c13.975,4.688,28.138,4.555,41.944-1.615c3.709-1.655,4.615-3.83,3.523-7.615
		c-0.592-2.04-1.67-3.01-3.472-3.594c-4.397-1.423-8.737-3.059-13.198-4.252c-8.231-2.201-16.355-4.526-23.656-9.184
		C46.054,81.438,32.759,66.534,28.742,45.262C27.1,36.581,25.658,27.773,24.694,18.26z M30.588,21.267
		c0.901,4.789,2.422,9.555,2.591,14.372c0.572,16.01,7.693,28.921,18.357,40.145c10.278,10.821,22.153,18.108,38.051,15.454
		c9.831-1.64,19.058-4.431,26.336-11.603c-3.707-7.498-3.707-7.519-11.572-7.654c-3.58-0.062-7.16,0.04-10.743-0.055
		C72.464,71.378,44.965,56.459,37.51,32.764C36.167,28.502,33.664,24.828,30.588,21.267z"/>
</g>
</svg>
