<?xml version="1.0" encoding="utf-8"?>
<!-- Generator: Adobe Illustrator 16.0.4, SVG Export Plug-In . SVG Version: 6.00 Build 0)  -->
<!DOCTYPE svg PUBLIC "-//W3C//DTD SVG 1.1//EN" "http://www.w3.org/Graphics/SVG/1.1/DTD/svg11.dtd">
<svg version="1.1" id="Layer_0804" xmlns="http://www.w3.org/2000/svg" xmlns:xlink="http://www.w3.org/1999/xlink" x="0px" y="0px"
	 width="128px" height="128px" viewBox="0 0 128 128" enable-background="new 0 0 128 128" xml:space="preserve">
<g>
	<path fill-rule="evenodd" clip-rule="evenodd" d="M0.83,48.641c-0.215-4.333,0.359-9.436,1.763-14.446
		c1.093-3.909,1.192-7.805,0.393-11.827C0.773,11.226,10.868,0.828,21.976,3.021c3.895,0.769,7.547,0.755,11.302-0.151
		c23.94-5.768,44.18,0.547,61.233,18.241c8.008,8.311,13.149,18.021,15.251,29.163c1.927,10.228,6.021,19.244,12.153,27.537
		c6.344,8.57,6.885,17.85,2.195,27.279c-4.441,8.927-11.307,15.596-20.449,19.66c-8.526,3.793-17.052,3.252-24.672-2.05
		c-9.135-6.354-18.799-10.657-29.77-13.204C20.206,102.757,1.127,78.498,0.83,48.641z M7.081,47.868
		C7.208,75.91,26.186,99.064,53.01,103.947c10.444,1.898,19.562,6.38,27.938,12.493c7.494,5.471,14.941,5.677,22.805,1.208
		c5.012-2.846,9.064-6.821,12.34-11.436c6.473-9.107,6.291-16.652-0.127-25.69c-6.134-8.645-10.262-18.004-12.23-28.579
		C98.019,21.206,66.586,1.265,36.251,8.657c-4.868,1.188-9.697,1.771-14.771,0.638C14.29,7.687,7.651,14.3,9.292,21.435
		c1.125,4.899,0.723,9.554-0.549,14.251C7.601,39.885,6.889,44.123,7.081,47.868z"/>
	<path fill-rule="evenodd" clip-rule="evenodd" d="M29.254,55.895c-0.426-8.201,3.163-14.814,1.437-21.992
		c-0.453-1.9,2.064-3.582,4.693-3.148c3.657,0.598,7.245,0.269,10.869-0.546c19.172-4.306,37.601,7.599,41.372,27.028
		c1.366,7.048,4.178,13.242,8.191,19.033c4.271,6.153,3.69,11.001-2.038,16.803c-6.438,6.516-10.922,7.249-17.487,2.773
		c-6.11-4.164-12.612-7.095-19.998-8.505C41.024,84.434,29.51,70.193,29.254,55.895z M35.534,35.266
		c-0.746,3.986-0.253,7.641-1.123,11.216c-4.18,17.172,6.258,33.729,23.54,37.027c7.698,1.468,14.485,4.574,20.831,8.967
		c4.306,2.979,7.037,2.543,11.334-1.665c4.638-4.544,5.378-7.488,2.485-11.68c-4.681-6.793-7.582-14.168-9.438-22.259
		c-3.816-16.626-17.39-25.266-33.786-23.01C44.949,34.47,40.568,35.353,35.534,35.266z"/>
	<path fill-rule="evenodd" clip-rule="evenodd" d="M52.635,73.654c-0.435,1.913-1.381,3.178-3.389,3.001
		c-1.957-0.171-3.023-1.483-2.89-3.354c0.131-1.87,1.386-3.048,3.328-2.919C51.65,70.514,52.481,71.885,52.635,73.654z"/>
	<path fill-rule="evenodd" clip-rule="evenodd" d="M40.437,55.14c1.96,0.225,3.226,1.256,3.31,3.139
		c0.087,1.975-1.299,3.109-3.108,3.112c-1.764,0.003-3.27-0.987-3.208-3.024C37.49,56.529,38.547,55.319,40.437,55.14z"/>
	<path fill-rule="evenodd" clip-rule="evenodd" d="M76.938,52.188c1.871,0.429,3.098,1.42,2.895,3.414
		c-0.191,1.875-1.383,3.086-3.283,2.965c-1.922-0.124-2.918-1.558-2.859-3.395C73.755,53.208,75.146,52.375,76.938,52.188z"/>
	<path fill-rule="evenodd" clip-rule="evenodd" d="M40.724,46.938c2.097,0.372,3.124,1.527,2.966,3.458
		c-0.161,1.98-1.483,2.967-3.385,2.791c-1.885-0.176-3.06-1.37-2.872-3.341C37.625,47.885,39.094,47.173,40.724,46.938z"/>
	<path fill-rule="evenodd" clip-rule="evenodd" d="M64.869,75.762c2.156,0.051,3.419,0.951,3.52,2.888
		c0.097,1.9-0.934,3.139-2.901,3.179c-1.859,0.039-3.206-0.933-3.272-2.861C62.151,77.135,63.128,75.9,64.869,75.762z"/>
	<path fill-rule="evenodd" clip-rule="evenodd" d="M65.956,60.776c-0.196,0.95-0.28,1.945-0.619,2.842
		c-0.671,1.777-2.086,2.595-3.867,1.919c-1.687-0.639-2.508-2.099-1.924-3.938c0.604-1.91,2.222-2.282,3.935-1.955
		c0.91,0.178,1.726,0.82,2.589,1.25L65.956,60.776z"/>
	<path fill-rule="evenodd" clip-rule="evenodd" d="M82.737,69.293c1.977,0.285,3.127,1.286,3.179,3.229
		c0.047,1.974-1.014,3.099-2.978,3.159c-2.001,0.064-3.039-1.053-3.065-3.033C79.85,70.678,81.019,69.703,82.737,69.293z"/>
	<path fill-rule="evenodd" clip-rule="evenodd" d="M48.711,45.854c1.929,0.299,3.083,1.474,2.942,3.294
		c-0.163,2.081-2.018,2.329-3.669,2.394c-1.903,0.07-2.62-1.303-2.558-2.86C45.503,46.74,46.899,45.941,48.711,45.854z"/>
	<path fill-rule="evenodd" clip-rule="evenodd" d="M72.095,69.564c-1.975-0.234-3.171-1.339-3.156-3.182
		c0.018-1.816,1.176-3.146,3.09-3.108c1.841,0.033,3.021,1.143,2.988,3.128C74.981,68.326,73.937,69.375,72.095,69.564z"/>
	<path fill-rule="evenodd" clip-rule="evenodd" d="M69.628,43.051c-0.471,1.94-1.402,3.421-3.285,3.199
		c-1.644-0.194-3.123-1.316-3.054-3.269c0.069-1.957,1.457-2.882,3.286-2.856C68.503,40.15,69.449,41.355,69.628,43.051z"/>
	<path fill-rule="evenodd" clip-rule="evenodd" d="M76.58,82.473c-0.378,1.844-1.494,2.911-3.419,2.717
		c-1.93-0.191-2.951-1.512-2.793-3.378c0.162-1.876,1.397-2.912,3.356-2.753C75.761,79.224,76.4,80.652,76.58,82.473z"/>
	<path fill-rule="evenodd" clip-rule="evenodd" d="M60.969,68.726c-0.326,2.029-1.165,3.253-3.192,3.222
		c-1.931-0.029-3.186-1.043-3.189-2.939c0-1.885,1.341-2.939,3.161-3.078C59.801,65.773,60.506,67.245,60.969,68.726z"/>
	<path fill-rule="evenodd" clip-rule="evenodd" d="M78.067,74.664c-0.021,1.816-1.115,2.912-3.004,2.965
		c-1.941,0.051-3.016-1.139-3.121-3.053c-0.111-1.981,0.979-3.197,2.889-3.187C76.677,71.399,77.796,72.595,78.067,74.664z"/>
	<path fill-rule="evenodd" clip-rule="evenodd" d="M86.937,83.427c-1.781-0.145-3.049-0.983-3.152-2.964
		c-0.101-1.912,0.887-3.217,2.778-3.378c1.911-0.156,3.077,1.017,3.222,2.911C89.928,81.906,88.897,83.047,86.937,83.427z"/>
	<path fill-rule="evenodd" clip-rule="evenodd" d="M65.33,68.041c1.793,0.152,3.231,1.027,3.419,2.884
		c0.193,1.927-1.1,3.071-2.966,3.269c-1.947,0.206-3.251-0.871-3.397-2.76C62.242,69.563,63.396,68.403,65.33,68.041z"/>
	<path fill-rule="evenodd" clip-rule="evenodd" d="M82.874,64.8c-0.342,1.764-1.346,3.073-3.303,2.852
		c-1.833-0.208-2.981-1.506-2.837-3.424c0.142-1.903,1.39-3.073,3.297-2.919C81.941,61.461,82.848,62.811,82.874,64.8z"/>
	<path fill-rule="evenodd" clip-rule="evenodd" d="M66.069,60.894c-0.012-1.128-0.286-2.34,0.035-3.362
		c0.475-1.511,1.696-2.474,3.408-1.999c1.538,0.43,2.525,1.506,2.447,3.229c-0.076,1.739-1.15,2.778-2.775,2.842
		c-1.064,0.044-2.148-0.528-3.229-0.827L66.069,60.894z"/>
	<path fill-rule="evenodd" clip-rule="evenodd" d="M51.684,56.543c-0.155,1.885-1.417,2.887-3.199,3.122
		c-1.739,0.229-2.938-0.7-3.062-2.482c-0.149-2.125,1.354-2.818,3.139-3.087C50.381,53.823,51.403,54.642,51.684,56.543z"/>
	<path fill-rule="evenodd" clip-rule="evenodd" d="M43.024,39.133c1.636,0.285,2.882,1.279,2.865,3.199
		c-0.017,1.921-1.199,3.126-3.143,3.019c-1.806-0.101-3.204-1.111-3.082-3.124C39.776,40.405,40.783,39.166,43.024,39.133z"/>
	<path fill-rule="evenodd" clip-rule="evenodd" d="M51.052,43.011c-1.828-0.48-3.599-1.298-3.438-3.463
		c0.123-1.569,1.531-2.53,3.176-2.465c1.876,0.076,3.105,1.13,2.998,3.104C53.701,41.771,52.956,43.005,51.052,43.011z"/>
	<path fill-rule="evenodd" clip-rule="evenodd" d="M80.874,89.708c-2.004-0.049-3.028-1.091-3.021-3.079
		c0.003-1.759,1-2.786,2.695-2.91c1.931-0.133,3.217,0.869,3.293,2.832C83.922,88.457,82.895,89.617,80.874,89.708z"/>
	<path fill-rule="evenodd" clip-rule="evenodd" d="M58.703,37.085c1.716,0.322,2.461,1.66,2.36,3.169
		c-0.118,1.756-1.188,3.187-3.185,2.949c-1.648-0.196-2.606-1.495-2.526-3.127C55.45,38.152,56.8,37.283,58.703,37.085z"/>
	<path fill-rule="evenodd" clip-rule="evenodd" d="M43.6,63.828c2.243,0.054,3.429,0.866,3.407,3.008
		c-0.02,2.131-1.296,3.004-3.169,3.021c-1.742,0.01-2.77-1.064-2.891-2.811C40.808,65.003,41.95,64.024,43.6,63.828z"/>
	<path fill-rule="evenodd" clip-rule="evenodd" d="M60.248,76.602c-0.125,2.312-1.101,3.426-3.142,3.246
		c-1.639-0.147-2.813-0.973-2.891-2.766c-0.087-2.015,1.058-3.079,2.961-3.18C59.2,73.791,60.12,75.01,60.248,76.602z"/>
	<path fill-rule="evenodd" clip-rule="evenodd" d="M54.853,64.232c-0.49,1.805-1.529,2.887-3.485,2.744
		c-1.996-0.147-2.954-1.519-2.904-3.267c0.049-1.68,1.296-2.674,3.035-2.348C53.083,61.659,54.759,62.099,54.853,64.232z"/>
	<path fill-rule="evenodd" clip-rule="evenodd" d="M75.927,47.756c-0.109,1.937-1.066,3.021-3.073,3.047
		c-1.761,0.026-2.877-0.884-2.961-2.596c-0.087-1.808,0.657-3.239,2.757-3.351C74.638,44.758,75.66,45.834,75.927,47.756z"/>
	<path fill-rule="evenodd" clip-rule="evenodd" d="M54.297,47.482c0.057-1.695,0.814-2.743,2.723-2.633
		c1.697,0.095,2.829,0.838,2.959,2.659c0.138,1.793-0.7,2.888-2.498,2.983C55.502,50.598,54.393,49.58,54.297,47.482z"/>
	<path fill-rule="evenodd" clip-rule="evenodd" d="M63.336,48.499c1.944,0.974,5.017,0.747,4.257,4.076
		c-0.43,1.871-2.42,2.282-4.012,1.326C61.172,52.457,61.478,50.57,63.336,48.499z"/>
	<path fill-rule="evenodd" clip-rule="evenodd" d="M60.365,56.142c-0.48,1.599-1.43,2.681-3.116,2.595
		c-1.702-0.087-2.662-1.05-2.434-2.892c0.208-1.686,1.095-2.783,2.854-2.582C59.261,53.447,60.237,54.492,60.365,56.142z"/>
</g>
</svg>
