<?xml version="1.0" encoding="utf-8"?>
<!-- Generator: Adobe Illustrator 16.0.4, SVG Export Plug-In . SVG Version: 6.00 Build 0)  -->
<!DOCTYPE svg PUBLIC "-//W3C//DTD SVG 1.1//EN" "http://www.w3.org/Graphics/SVG/1.1/DTD/svg11.dtd">
<svg version="1.1" id="Layer_0805" xmlns="http://www.w3.org/2000/svg" xmlns:xlink="http://www.w3.org/1999/xlink" x="0px" y="0px"
	 width="128px" height="128px" viewBox="0 0 128 128" enable-background="new 0 0 128 128" xml:space="preserve">
<g>
	<path fill-rule="evenodd" clip-rule="evenodd" d="M62.788,127.385c-7.65,0.01-15.151-1.366-22.697-2.357
		c-5.658-0.743-11.103-2.134-17.078-1.595c-10.732,0.969-19.721-7.418-19.47-18.189c0.204-8.771-1.244-17.263-2.242-25.832
		C-1.314,56.986,3.93,36.67,16.938,18.336C27.837,2.977,41.365-2.725,59.408,2.19c35.158,9.576,57.426,32.721,66.607,67.781
		c3.515,13.425,0.151,25.626-10.693,35.795C102.443,117.843,79.907,128.927,62.788,127.385z M89.07,101.643
		c20.282,0.328,28.523-8.079,27.903-24.267c-0.406-10.559-4.595-19.912-10.211-28.566c-12.316-18.972-28.59-32.888-51.346-37.434
		C40.14,8.324,23.926,13.849,25.97,37.09c0.16,1.818,0.428,3.655,0.898,5.417c6.194,23.169,21.174,39.416,41.093,51.624
		C75.685,98.86,84.168,101.505,89.07,101.643z"/>
	<path fill-rule="evenodd" clip-rule="evenodd" d="M88.884,95.868c-6.592-0.438-13.838-3.348-20.755-7.289
		c-2.092-1.189-2.981-2.592-2.074-5.134c2.73-7.663,5.256-15.395,7.871-23.099c0.944-2.78,2.38-2.508,3.593-0.326
		c5.873,10.557,11.753,21.112,17.394,31.794C96.703,95.206,95.75,95.932,88.884,95.868z"/>
	<path fill-rule="evenodd" clip-rule="evenodd" d="M31.799,35.8c0.059-0.873,0.057-2.195,0.255-3.487
		c0.354-2.301,1.583-3.368,3.805-2.017c9.642,5.862,19.249,11.78,28.858,17.691c0.944,0.58,1.706,1.463,1.119,2.55
		c-0.288,0.532-1.265,0.857-1.977,0.968c-7.512,1.181-15.041,2.251-22.548,3.458c-3.057,0.492-5.038-0.495-6.125-3.447
		C33.366,46.571,31.784,41.587,31.799,35.8z"/>
	<path fill-rule="evenodd" clip-rule="evenodd" d="M65.515,55.686c2.952-0.093,4.653,0.45,3.412,4.048
		c-2.304,6.683-4.46,13.42-6.511,20.185c-0.946,3.118-2.542,2.921-4.552,1.251c-6.29-5.23-11.839-11.157-16.271-18.053
		c-1.074-1.671-1.548-3.523,1.398-3.975C50.499,57.991,58.007,56.838,65.515,55.686z"/>
	<path fill-rule="evenodd" clip-rule="evenodd" d="M82.488,59.388c9.607,3.69,17.641,10.1,26.392,15.271
		c2.183,1.291,2.612,3.281,2.145,5.421c-0.498,2.281-1.186,4.58-2.193,6.676c-1.5,3.122-3.604,6.453-7.205,6.619
		c-3.379,0.155-3.714-3.908-5.065-6.246c-4.068-7.035-7.898-14.212-11.72-21.388c-1.07-2.008-2.961-3.802-2.249-6.458L82.488,59.388
		z"/>
	<path fill-rule="evenodd" clip-rule="evenodd" d="M49.777,16.376c2.395-0.367,4.379,0.417,5.65,2.841
		c3.991,7.615,8.038,15.198,12.016,22.819c0.324,0.619,0.629,1.633,0.348,2.109c-0.817,1.373-1.896,0.258-2.636-0.191
		c-9.135-5.541-18.195-11.208-27.348-16.721c-3.361-2.025-2.625-3.955-0.28-6.078C40.946,18.059,44.936,16.378,49.777,16.376z"/>
	<path fill-rule="evenodd" clip-rule="evenodd" d="M100.296,50.415c0.464-0.118,2.24-0.274,3.504,1.623
		c3.246,4.866,5.311,10.243,6.418,15.93c0.476,2.443-1.221,2.457-2.88,1.47c-7.432-4.422-14.842-8.877-22.254-13.33
		c-0.941-0.566-1.745-1.433-1.468-2.502c0.112-0.431,1.328-0.692,2.077-0.82C90.08,52.038,94.48,51.351,100.296,50.415z"/>
	<path fill-rule="evenodd" clip-rule="evenodd" d="M73.82,43.279c-1.152-0.154-1.904-0.822-2.421-1.788
		c-3.699-6.915-7.411-13.826-11.068-20.764c-0.45-0.854-1.214-1.997,0.021-2.745c0.55-0.333,1.534-0.195,2.238,0.01
		c5.312,1.546,10.235,3.95,14.845,6.986c1.358,0.896,2.54,2.094,1.957,3.886c-1.459,4.47-3.04,8.9-4.62,13.329
		C74.62,42.62,74.138,42.929,73.82,43.279z"/>
	<path fill-rule="evenodd" clip-rule="evenodd" d="M84.251,48.235c-4.742,0.778-6.084-0.382-5.03-3.586
		c1.215-3.695,2.473-7.377,3.746-11.053c0.938-2.709,2.487-3.022,4.551-1.072c3.934,3.718,8.348,7.023,10.545,12.236
		C93.62,48.843,87.552,46.27,84.251,48.235z"/>
	<polygon fill-rule="evenodd" clip-rule="evenodd" points="82.592,59.284 82.257,59.135 82.488,59.388 	"/>
</g>
</svg>
