<?xml version="1.0" encoding="utf-8"?>
<!-- Generator: Adobe Illustrator 16.0.4, SVG Export Plug-In . SVG Version: 6.00 Build 0)  -->
<!DOCTYPE svg PUBLIC "-//W3C//DTD SVG 1.1//EN" "http://www.w3.org/Graphics/SVG/1.1/DTD/svg11.dtd">
<svg version="1.1" id="Layer_0806" xmlns="http://www.w3.org/2000/svg" xmlns:xlink="http://www.w3.org/1999/xlink" x="0px" y="0px"
	 width="128px" height="128px" viewBox="0 0 128 128" enable-background="new 0 0 128 128" xml:space="preserve">
<g>
	<path fill-rule="evenodd" clip-rule="evenodd" d="M15.472,57.643c0.102-4.965,1.752-9.179,5.279-12.853
		c2.554-2.661,5.354-4.452,8.932-5.115c0.936-0.173,1.591-0.668,2.224-1.441c2.549-3.106,5.719-5.362,9.636-6.454
		c0.647-0.18,1.31-0.298,1.853-0.723c4.131-3.23,9.097-3.989,14.062-4.745c0.413-0.063,0.833-0.09,1.25-0.117
		c3.174-0.205,4.881-1.332,5.831-4.947c1.802-6.865,5.611-12.815,11.575-17.06c1.289-0.918,2.34-2.145,3.833-2.805
		c2.646-1.172,5.334-0.206,6.466,2.389c1.175,2.692,0.134,5.123-2.671,6.283c-2.457,1.016-4.4,2.604-5.839,4.891
		c-1.64,2.606-3.744,4.918-4.648,7.971c-0.752,2.541-0.783,2.667,1.729,3.121c3.71,0.669,7.366,1.602,10.952,2.693
		c3.592,1.093,6.448,3.473,8.597,6.583c0.809,1.172,1.661,2.251,2.705,3.245c2.189,2.086,4.062,4.46,5.188,7.313
		c0.358,0.91,0.957,1.481,1.704,2.069c8.78,6.888,10.871,16.772,5.467,25.761c-2.294,3.815-5.654,6.836-10.304,7.797
		c-1.051,0.217-1.902,0.496-2.325,1.568c-0.425,1.08-1.44,1.618-2.298,2.25c-1.312,0.966-1.969,2.024-1.73,3.778
		c0.389,2.856-0.065,5.695-1.047,8.397c-1.704,4.691-4.425,8.594-9.089,10.796c-1.042,0.492-1.396,1.122-1.48,2.272
		c-0.275,3.745-1.714,7.218-3.598,10.336c-3.764,6.23-13.289,8.072-19.409,4.151c-4.422-2.83-7.736-6.349-8.177-11.899
		c-0.074-0.935-0.351-1.747-1.558-1.937c-7.372-1.148-13.005-10.616-12.922-17.729c0.012-1.04-0.112-1.88-0.97-2.67
		c-3.922-3.618-5.876-8.261-6.469-13.464c-0.172-1.509-0.545-2.322-2.081-2.848C21.42,72.887,14.951,64.797,15.472,57.643z
		 M64.654,41.331c-5.407,0-9.648,4.691-9.89,10.47c-0.194,4.643,4.241,10.904,9.935,10.81c4.638-0.076,10.083-5.615,10.151-10.591
		C74.92,46.831,69.264,40.781,64.654,41.331z M50.768,72.306c-0.031,3.33,0.909,5.89,2.685,8.086
		c3.786,4.686,10.636,4.761,14.382,0.216c1.207-1.464,1.905-3.172,1.593-5.055c-0.318-1.909-0.527-3.838-0.34-5.724
		c0.182-1.824-0.511-1.947-1.945-1.646c-3.319,0.696-6.423,0.08-9.414-1.508c-3.822-2.031-5.042-1.489-6.368,2.65
		C51.005,70.438,50.706,71.573,50.768,72.306z M91.911,70.562c-0.006-0.121,0-0.626-0.065-1.122
		c-0.492-3.668-2.422-6.624-5.71-7.971c-5.079-2.08-8.656,0.788-10.697,6.104c-1.479,3.851,0,7.208,2.278,10.521
		c1.761,2.559,6.997,3.408,9.29,1.688C89.897,77.616,91.978,74.829,91.911,70.562z M83.723,90.646
		c-0.046-0.397-0.166-0.979-0.17-1.558c-0.012-1.645-0.611-2.621-2.435-2.73c-1.429-0.086-2.679-0.818-3.96-1.466
		c-1.106-0.56-2.254-1.792-3.234-1.611c-1.133,0.209-1.985,1.662-3.088,2.378c-1.743,1.13-2.438,2.689-2.305,4.673
		c0.122,1.84,0.285,3.708,0.908,5.435c1.001,2.776,2.887,4.691,5.973,5.068c2.86,0.349,4.786-1.168,6.26-3.368
		C83.005,95.478,83.621,93.228,83.723,90.646z M72.219,108.487c-0.093-0.977,0.233-2.122-1.135-2.907
		c-2.603-1.495-5.074-3.211-6.505-6.013c-0.564-1.104-0.896-0.553-1.188,0.186c-0.624,1.58-1.566,2.909-2.838,4.063
		c-1.213,1.102-1.731,2.538-1.854,4.234c-0.163,2.253,0.319,4.355,1.225,6.317c0.999,2.164,2.8,3.512,5.258,3.759
		c2.484,0.251,4.119-1.026,5.301-3.055C71.643,113.081,72.273,110.943,72.219,108.487z M37.969,48.89
		c0.372,5.809,3.261,9.249,9.593,8.003c1.178-0.232,1.833-0.71,1.541-2.013c-0.74-3.293-0.179-6.415,1.031-9.531
		c0.918-2.364,0.293-3.514-2.092-4.399C41.834,38.646,38.214,43.908,37.969,48.89z M24.669,57.822
		c0.146,1.787,0.771,3.553,1.688,5.291c2.075,3.934,9.53,4.055,11.966,0.613c0.844-1.193,0.916-1.791-0.356-2.784
		c-3.506-2.737-6.367-5.965-6.349-10.815c0.004-1.307-0.611-1.302-1.604-0.902C27.048,50.418,24.611,54.221,24.669,57.822z
		 M83.011,54.926c3.195,0.011,6.208,0.893,8.827,2.805c1.06,0.774,1.475,0.629,2.014-0.453c1.725-3.457,1.284-9.517-3.579-12.219
		c-2.411-1.339-4.757-1.134-7.075,0.322c-2.161,1.357-3.373,3.036-2.621,5.753c0.232,0.842,0.054,1.824-0.054,2.728
		c-0.118,0.975,0.121,1.447,1.186,1.227C82.113,55.006,82.533,54.984,83.011,54.926z M58.752,92.879
		c-0.376-0.946,0.388-2.677-1.212-3.276c-1.738-0.65-3.506-2.002-5.486-0.139c-1.495,1.406-3.51,1.922-5.562,1.994
		c-1.104,0.038-1.463,0.594-1.449,1.576c0.039,2.575,0.635,4.996,2.264,7.033c2.567,3.209,6.717,3.137,9.226-0.126
		C58.065,97.947,58.648,95.621,58.752,92.879z M37.299,75.947c0.099,0.68,0.179,2.022,0.5,3.305
		c1.169,4.661,4.304,6.557,9.018,5.548c1.988-0.427,1.947-0.402,0.912-2.238c-3.283-5.817-4.121-11.745-0.709-17.841
		c0.175-0.312,0.597-0.71,0.196-1.066c-0.199-0.177-0.632-0.087-0.959-0.125c-0.954-0.112-1.203,0.594-1.63,1.244
		c-1.375,2.091-2.723,4.433-4.882,5.604C37.501,71.593,37.337,73.281,37.299,75.947z M103.529,63.913
		c-0.067-2.447-0.962-5.083-2.135-6.326c-0.631-0.668-1.093-0.765-1.386,0.246c-0.566,1.953-1.685,3.629-2.661,5.379
		c-0.276,0.496-0.776,0.959-0.498,1.604c0.898,2.07,0.771,4.259,0.74,6.427c-0.016,1.146,0.357,1.379,1.29,0.771
		C101.816,70.1,103.31,67.365,103.529,63.913z M69.123,34.1c-0.515-0.164-0.728,0.127-0.836,0.591
		c-0.096,0.41-0.251,0.822,0.22,1.103c0.287,0.171,0.58,0.347,0.893,0.456c2.946,1.027,5.786,2.209,7.702,4.87
		c0.239,0.332,0.557,0.66,0.993,0.183c1.338-1.467,3.101-2.238,4.892-2.959c0.216-0.087,0.51-0.124,0.508-0.407
		s-0.271-0.377-0.513-0.463C78.479,35.873,73.844,34.809,69.123,34.1z M61.495,35.24c-0.188-0.506-0.652-0.35-1.013-0.296
		c-1.892,0.281-3.783,0.571-5.665,0.913c-0.748,0.135-1.97,0.024-1.966,0.922c0.004,0.749,1.324,0.8,1.976,1.303
		c0.416,0.321,0.768-0.031,1.138-0.187c1.608-0.676,3.22-1.345,4.834-2.009C61.101,35.762,61.438,35.692,61.495,35.24z"/>
</g>
</svg>
