<?xml version="1.0" encoding="utf-8"?>
<!-- Generator: Adobe Illustrator 16.0.4, SVG Export Plug-In . SVG Version: 6.00 Build 0)  -->
<!DOCTYPE svg PUBLIC "-//W3C//DTD SVG 1.1//EN" "http://www.w3.org/Graphics/SVG/1.1/DTD/svg11.dtd">
<svg version="1.1" id="Layer_0807" xmlns="http://www.w3.org/2000/svg" xmlns:xlink="http://www.w3.org/1999/xlink" x="0px" y="0px"
	 width="128px" height="128px" viewBox="0 0 128 128" enable-background="new 0 0 128 128" xml:space="preserve">
<g id="_x39_lnW5g.tif">
	<g>
		<path fill-rule="evenodd" clip-rule="evenodd" d="M46.389,127.369c-12.491-0.202-29.041-6.281-43.197-18.69
			c-3.265-2.862-3.266-2.877-0.264-5.879c33.32-33.326,66.637-66.657,99.979-99.96c2.579-2.575,2.025-3.385,5.22,0.219
			c31.067,35.054,23.457,88.663-16.243,113.518C79.961,124.041,66.768,127.51,46.389,127.369z M50.593,121.894
			c14.356-0.001,25.689-2.65,36.006-8.659c20.092-11.699,31.902-29.078,34.557-52.318c2.12-18.571-2.606-35.352-13.891-50.265
			c-1.965-2.599-1.929-2.464-4.223-0.177c-1.52,1.515-0.134,2.203,0.519,3.094c14.052,19.207,17.497,40.187,9.448,62.548
			c-10.592,29.433-41.086,46.493-71.766,40.89c-10.775-1.968-20.493-6.178-29.032-13.001c-1.681-1.344-2.312-0.273-3.268,0.659
			c-1.277,1.245,0.154,1.616,0.722,2.212c0.466,0.489,1.049,0.871,1.596,1.279C23.648,117.378,37.608,121.819,50.593,121.894z
			 M87.684,70.536c-1.345-0.001-1.611,0.842-1.526,1.956c0.17,2.234,3.602,5.716,5.862,5.944c1.139,0.116,1.927-0.286,2.044-1.516
			C94.285,74.587,90.101,70.416,87.684,70.536z M26.818,101.646c-0.101-2.216-3.505-5.759-5.765-5.998
			c-1.745-0.186-2.608,0.813-1.968,2.525c0.976,2.606,2.898,4.374,5.528,5.252C26.029,103.899,26.885,103.119,26.818,101.646z
			 M98.54,53.313c1.68,0.184,2.312-0.552,1.949-2.272c-0.453-2.151-3.451-5.089-5.635-5.519c-1.469-0.289-2.309,0.426-2.182,1.857
			C92.875,49.663,96.234,53.061,98.54,53.313z M68.987,70.627c-0.089-2.889-3.76-6.582-6.044-6.644
			c-1.345-0.037-1.995,0.612-1.874,1.968c0.188,2.12,3.727,5.66,5.928,5.92C68.351,72.03,69.005,71.395,68.987,70.627z
			 M61.094,99.489c-0.055-2.631-3.645-6.378-5.967-6.592c-1.387-0.127-1.955,0.588-1.892,1.922c0.106,2.25,3.434,5.692,5.765,5.967
			C60.29,100.938,61.082,100.51,61.094,99.489z"/>
	</g>
</g>
</svg>
