<?xml version="1.0" encoding="utf-8"?>
<!-- Generator: Adobe Illustrator 16.0.4, SVG Export Plug-In . SVG Version: 6.00 Build 0)  -->
<!DOCTYPE svg PUBLIC "-//W3C//DTD SVG 1.1//EN" "http://www.w3.org/Graphics/SVG/1.1/DTD/svg11.dtd">
<svg version="1.1" id="Layer_0808" xmlns="http://www.w3.org/2000/svg" xmlns:xlink="http://www.w3.org/1999/xlink" x="0px" y="0px"
	 width="128px" height="128px" viewBox="0 0 128 128" enable-background="new 0 0 128 128" xml:space="preserve">
<g>
	<path fill-rule="evenodd" clip-rule="evenodd" d="M65.957,127.018c-3.473,0.156-5.992,0.073-8.453,0.414
		c-10.03,1.396-18.541-2.17-24.867-9.401C16.322,99.377,8.422,78.05,15.362,53.167c4.821-17.291,18.852-25.729,36.647-22.844
		c2.541,0.412,6.023,2.625,7.451-0.017c1.165-2.158-1.654-4.901-3.422-6.978c-1.126-1.322-2.432-2.498-3.695-3.697
		c-2.039-1.932-3.1-4.084-0.927-6.484c2.054-2.267,4.442-1.881,6.659-0.152c4.832,3.769,8.511,8.435,10.229,14.379
		c0.951,3.291,2.683,4.163,6.049,3.57c26.082-4.594,37.324,10.774,40.052,29.339c3.479,23.677-5.259,43.542-21.438,60.414
		c-5.065,5.28-11.506,7.709-19.024,6.759C70.98,127.083,67.971,127.119,65.957,127.018z M24.518,70.375
		c-0.1,14.586,4.511,26.453,12.455,37.147c1.502,2.02,3.299,4.213,6.163,2.294c3.106-2.079,2.101-4.558,0.235-7.022
		c-4.415-5.827-7.872-12.256-9.312-19.393c-2.742-13.585-4.324-27.066,10.885-35.245c2.082-1.119,2.55-3.11,1.634-5.143
		c-1.168-2.596-3.421-2.655-5.702-1.679c-5.964,2.552-10.43,6.727-13.118,12.675C25.251,59.557,24.241,65.402,24.518,70.375z"/>
	<path fill-rule="evenodd" clip-rule="evenodd" d="M81.713,27.519c-5.76-0.194-10.63-3.029-11.961-7.339
		c-1.582-5.129,0.631-9.285,4.13-12.792c7.146-7.159,24.045-9.364,33.009-4.554c2.614,1.402,3.481,2.854,2.265,5.93
		C105.12,18.963,92.34,27.875,81.713,27.519z M94.41,7.424c-6.022,0.049-11.596,0.982-15.96,5.28
		c-1.389,1.368-2.775,3.143-1.831,5.257c0.876,1.963,2.814,2.744,4.918,2.743c6.001-0.005,11.049-2.483,15.389-6.41
		c1.757-1.59,4.722-3.36,3.548-5.865C99.663,6.704,96.39,7.678,94.41,7.424z"/>
</g>
</svg>
