<?xml version="1.0" encoding="utf-8"?>
<!-- Generator: Adobe Illustrator 16.0.4, SVG Export Plug-In . SVG Version: 6.00 Build 0)  -->
<!DOCTYPE svg PUBLIC "-//W3C//DTD SVG 1.1//EN" "http://www.w3.org/Graphics/SVG/1.1/DTD/svg11.dtd">
<svg version="1.1" id="Layer_0809" xmlns="http://www.w3.org/2000/svg" xmlns:xlink="http://www.w3.org/1999/xlink" x="0px" y="0px"
	 width="128px" height="128px" viewBox="0 0 128 128" enable-background="new 0 0 128 128" xml:space="preserve">
<path fill-rule="evenodd" clip-rule="evenodd" d="M9.991,71.009c-0.118-7.519,0.778-14.668,3.038-21.583
	c2.889-8.842,7.117-16.961,15.092-22.245c4.694-3.11,10.067-4.956,15.831-5.235c4.918-0.239,9.714,0.265,14.351,2.062
	c1.958,0.759,2.066,0.655,2.034-1.471c-0.062-4.173,0.776-8.164,2.152-12.079c0.88-2.502,2.571-4.506,4.053-6.61
	c0.96-1.36,2.511-2.201,4.133-2.774c2.501-0.884,4.087-0.389,5.388,1.715c1.26,2.037,1.127,4.519-0.889,5.822
	c-4.821,3.115-5.507,7.922-5.814,12.941c-0.142,2.294,0.104,2.569,2.333,2.318c6.663-0.749,13.066,0.486,19.311,2.568
	c3.694,1.232,6.727,3.749,9.695,6.217c4.645,3.861,8.461,8.563,11.048,13.914c2.349,4.857,4.176,10.042,5.193,15.45
	c2.19,11.618,1,22.844-3.117,33.906c-1.687,4.53-3.68,8.85-6.671,12.585c-2.393,2.987-4.561,6.238-7.617,8.639
	c-7.465,5.868-15.606,10.095-25.399,10.192c-4.608,0.047-8.996-1.019-13.222-2.741c-1.319-0.537-2.471-0.635-3.848-0.25
	c-7.276,2.034-14.124,0.976-20.458-3.152c-2.029-1.321-4.462-2.057-6.106-3.926c-4.346-4.943-9.14-9.424-12.111-15.584
	c-2.817-5.841-5.624-11.592-7.156-17.924C10.195,79.475,9.94,75.142,9.991,71.009z M40.828,70.637
	c-0.478,10.079,2.882,19.607,6.914,28.836c1.85,4.231,4.895,7.989,8.453,11.181c3.959,3.551,8.373,6.169,13.659,7.082
	c9.715,1.679,17.6-2.282,24.511-8.495c4.914-4.417,8.316-9.923,10.66-16.209c2.198-5.898,3.676-11.872,3.768-18.128
	c0.112-7.651-1.784-14.868-4.535-22.028c-2.255-5.868-5.968-10.38-10.322-14.609c-0.979-0.951-1.987-1.91-3.234-2.351
	c-3.857-1.364-7.644-2.946-11.904-2.859c-5.143,0.105-10.131,0.839-15.184,1.857c-5.906,1.189-10.15,4.557-14.173,8.525
	c-0.752,0.742-1.593,1.438-2.15,2.42C42.973,53.463,40.533,61.552,40.828,70.637z M19.146,70.78c0,1.344-0.019,2.688,0.005,4.029
	c0.023,1.34-0.018,2.687,0.295,4.01c3.013,12.732,8.148,24.289,18.604,32.763c3.803,3.083,8.196,4.882,13.222,4.681
	c0.464-0.019,1.138,0.179,1.329-0.364c0.194-0.554-0.47-0.81-0.815-1.123c-4.975-4.533-8.236-10.297-11.381-16.104
	c-1.966-3.628-2.843-7.66-3.767-11.682c-1.514-6.593-2.2-13.227-1.86-19.973c0.296-5.898,1.302-11.737,3.367-17.208
	c2.686-7.116,7.426-12.819,14.089-16.752c0.413-0.243,1.079-0.426,1.03-0.961c-0.058-0.629-0.779-0.49-1.232-0.585
	c-6.228-1.302-12.177-0.742-17.682,2.7c-1.836,1.149-3.987,1.915-5.24,3.809c-3.003,4.539-6.007,9.034-7.551,14.4
	C19.824,58.451,18.98,64.533,19.146,70.78z"/>
</svg>
