<?xml version="1.0" encoding="utf-8"?>
<!-- Generator: Adobe Illustrator 16.0.4, SVG Export Plug-In . SVG Version: 6.00 Build 0)  -->
<!DOCTYPE svg PUBLIC "-//W3C//DTD SVG 1.1//EN" "http://www.w3.org/Graphics/SVG/1.1/DTD/svg11.dtd">
<svg version="1.1" id="Layer_0810" xmlns="http://www.w3.org/2000/svg" xmlns:xlink="http://www.w3.org/1999/xlink" x="0px" y="0px"
	 width="128px" height="128px" viewBox="0 0 128 128" enable-background="new 0 0 128 128" xml:space="preserve">
<g>
	<path fill-rule="evenodd" clip-rule="evenodd" d="M31.979,51.039c0.291,4.88,0.145,10.343,0.912,15.797
		c0.535,3.804,1.803,5.317,5.983,6.116c11.219,2.143,18.838,9.22,21.484,20.385c2.479,10.459-0.356,19.865-8.625,27.123
		c-11.834,10.387-29.467,8.766-39.351-3.468c-10.013-12.394-7.725-30.558,5.702-39.46c4.632-3.072,6.123-5.662,5.393-11.219
		c-1.866-14.196-1.832-28.479,1.714-42.509c0.615-2.431,0.295-3.114-2.16-2.44c-2.06,0.565-4.113,1.229-6.214,1.547
		c-4.419,0.669-7.094-0.819-7.898-4.139c-0.827-3.413,0.771-6.097,4.792-7.554c2.449-0.888,5.025-1.425,7.54-2.135
		c8.912-2.516,17.819-5.047,26.734-7.549c1.141-0.32,2.311-0.584,3.485-0.739c4.229-0.559,7.009,1.023,7.777,4.357
		c0.752,3.263-1.03,6.089-5.031,7.474c-3.136,1.085-6.361,1.924-9.575,2.765c-1.909,0.5-2.151,1.381-1.176,3.006
		C51.469,31.73,60.44,44.202,73.263,53.482c3.153,2.283,5.419,1.153,8.358-0.314c12.895-6.439,27.051-2.799,35.237,9.052
		c6.08,8.802,6.484,18.293,1.645,27.675c-4.688,9.086-12.239,13.961-22.766,14.729c-20.713,1.509-34.482-19.734-27.18-37.094
		c1.405-3.34,1.189-5.178-2.006-7.484c-11.944-8.62-20.838-20.061-28.585-32.453c-0.71-1.136-1.162-3.193-2.599-2.849
		c-1.207,0.29-1.298,2.335-1.625,3.729C32.046,35.718,31.985,43.086,31.979,51.039z M73.858,76.97c0,1.115-0.031,1.357,0.005,1.589
		c0.349,2.257-0.024,5.441,3.358,5.157c2.606-0.221,1.711-2.994,1.653-4.721c-0.135-4.049,0.829-7.51,4.238-10.023
		c1.243-0.917,2.156-2.247,1.065-3.618c-1.312-1.648-2.961-0.901-4.417,0.12C75.466,68.487,74.235,72.968,73.858,76.97z
		 M13.703,100.184c0,0.704-0.039,1.411,0.008,2.111c0.124,1.909,0.281,4.182,2.77,4.058c2.598-0.131,2.328-2.457,2.187-4.332
		c-0.314-4.201,0.545-7.909,4.013-10.717c1.103-0.894,2.141-2.121,0.632-3.49c-1.241-1.127-2.664-0.686-3.854,0.182
		C15.333,90.997,13.618,95.182,13.703,100.184z"/>
</g>
</svg>
