<?xml version="1.0" encoding="utf-8"?>
<!-- Generator: Adobe Illustrator 16.0.4, SVG Export Plug-In . SVG Version: 6.00 Build 0)  -->
<!DOCTYPE svg PUBLIC "-//W3C//DTD SVG 1.1//EN" "http://www.w3.org/Graphics/SVG/1.1/DTD/svg11.dtd">
<svg version="1.1" id="Layer_0813" xmlns="http://www.w3.org/2000/svg" xmlns:xlink="http://www.w3.org/1999/xlink" x="0px" y="0px"
	 width="128px" height="128px" viewBox="0 0 128 128" enable-background="new 0 0 128 128" xml:space="preserve">
<path fill-rule="evenodd" clip-rule="evenodd" d="M68.077,69.236c-0.185,0.347-0.248,0.713-0.268,1.109
	c-0.148,2.954-0.335,5.905-0.478,8.859c-0.285,5.956-0.578,11.911-0.813,17.868c-0.165,4.16-0.208,8.322-0.029,12.484
	c0.052,1.2,0.037,1.23,1.155,1.516c3.642,0.936,5.128,4.277,4.892,7.361c-0.203,2.671-1.274,4.984-3.843,6.064
	c-1.246,0.524-1.609,1.103-1.392,2.301c0.096,0.534-0.019,0.782-0.555,0.311c-0.324-0.283-0.421,0.027-0.504,0.278
	c-0.049,0.148-0.103,0.297-0.155,0.445c-0.079-0.147-0.137-0.314-0.246-0.436c-0.139-0.154-0.099-0.656-0.44-0.421
	c-1.033,0.708-0.648-0.178-0.628-0.55c0.07-1.261,0.084-1.254-1.153-1.638c-1.553-0.48-2.661-1.467-3.392-2.922
	c-1.533-3.052-0.733-6.997,1.159-9.024c0.67-0.719,1.469-1.135,2.382-1.432c1.125-0.367,1.136-0.401,1.088-1.515
	c-0.23-5.321-0.055-10.642,0.069-15.962c0.076-3.302,0.509-6.587,0.545-9.893c0.002-0.258,0.028-0.516,0.021-0.771
	c-0.002-0.121-0.021-0.308-0.096-0.348c-0.168-0.094-0.314,0.036-0.413,0.179c-0.683,0.984-1.396,1.949-2.038,2.96
	c-1.667,2.627-3.351,5.244-4.674,8.074c-0.275,0.592-0.294,0.832,0.338,1.171c1.286,0.691,2.418,1.589,3.194,2.887
	c0.944,1.575,1.25,3.287,1.04,5.067c-0.233,1.988-0.91,3.799-2.454,5.22c-1.179,1.085-2.514,1.752-4.092,1.939
	c-1.257,0.149-1.27,0.147-1.397,1.454c-0.013,0.127-0.008,0.257-0.022,0.386c-0.022,0.198,0.082,0.489-0.136,0.563
	c-0.245,0.084-0.331-0.198-0.436-0.381c-0.291-0.502-0.5-0.319-0.668,0.09c-0.082,0.197-0.134,0.408-0.226,0.598
	c-0.051,0.106-0.156,0.188-0.237,0.278c-0.043-0.108-0.098-0.214-0.126-0.326c-0.02-0.08,0.004-0.172-0.004-0.256
	c-0.081-0.783-0.085-0.789-0.779-0.39c-0.136,0.078-0.249,0.305-0.401,0.21c-0.15-0.093-0.07-0.313-0.019-0.477
	c0.076-0.243,0.192-0.48,0.227-0.731c0.063-0.464,0.307-0.925,0.173-1.392c-0.158-0.55-0.767-0.443-1.158-0.659
	c-3.779-2.086-4.867-6.622-2.77-10.038c1.171-1.907,2.606-3.459,4.637-4.468c0.939-0.466,1.888-0.535,2.875-0.433
	c0.548,0.057,0.828-0.059,1.04-0.627c0.903-2.427,2.415-4.527,3.789-6.688c1.098-1.728,2.254-3.448,3.607-4.974
	c1.105-1.246,1.431-2.552,1.528-4.148c0.164-2.694,0.223-5.394,0.381-8.088c0.201-3.426,0.405-6.851,0.501-10.279
	c0.136-4.891,0.112-9.786,0.014-14.678c-0.024-1.2-0.172-2.396-0.228-3.596c-0.025-0.597-0.269-0.704-0.819-0.588
	c-1.528,0.319-2.767,1.146-3.844,2.201c-1.975,1.934-3.474,4.208-4.634,6.72c-0.847,1.833-1.557,3.701-1.927,5.693
	c-0.199,1.07-0.199,1.04,0.796,1.509c3.272,1.544,5.348,3.98,5.828,7.686c0.298,2.308,0.13,4.551-0.755,6.674
	c-1.179,2.832-3.152,4.864-6.31,5.474c-0.336,0.066-0.664,0.172-1.001,0.229c-1.051,0.183-1.068,0.174-1.188,1.258
	c-0.064,0.596-0.06,1.199-0.093,1.798c-0.006,0.118,0.001,0.296-0.066,0.34c-0.121,0.076-0.214-0.079-0.316-0.151
	c-0.361-0.255-0.341-1.038-0.891-0.893c-0.363,0.095-0.292,0.75-0.483,1.129c-0.095,0.188-0.167,0.397-0.407,0.456
	c-0.033-0.2-0.068-0.401-0.097-0.604c-0.012-0.085,0.003-0.173-0.012-0.256c-0.049-0.271,0.156-0.655-0.19-0.788
	c-0.254-0.098-0.438,0.203-0.622,0.379c-0.062,0.058-0.125,0.116-0.192,0.169c-0.132,0.11-0.315,0.254-0.443,0.156
	c-0.094-0.068-0.124-0.337-0.068-0.471c0.303-0.727,0.288-1.511,0.433-2.266c0.113-0.591-0.081-0.87-0.718-1.098
	c-3.581-1.274-5.599-3.735-5.851-7.632c-0.278-4.337,1.367-7.955,4.791-10.662c1.372-1.085,3.015-1.594,4.799-1.509
	c1.141,0.054,1.112-0.105,1.151-1.013c0.077-1.75,0.796-3.335,1.48-4.888c1.419-3.222,3.182-6.254,5.654-8.809
	c1.047-1.081,2.211-2.009,3.655-2.533c0.409-0.148,0.82-0.308,1.248-0.252c0.745,0.099,0.85-0.276,0.812-0.896
	c-0.154-2.527-0.401-5.055-0.854-7.537c-0.443-2.438-0.873-4.888-1.54-7.286c-1.381-4.957-3.421-9.582-6.689-13.607
	c-1.054-1.297-1.259-1.314-1.987,0.161c-0.87,1.765-1.589,3.603-2.046,5.522c-0.258,1.08-0.703,2.109-0.805,3.234
	c-0.059,0.652,0.108,0.961,0.767,1.229c3.614,1.474,5.771,4.077,6.281,8.05c0.436,3.392-0.104,6.465-2.286,9.17
	c-1.21,1.5-2.822,2.302-4.646,2.783c-1.358,0.358-1.35,0.387-1.346,1.735c0.001,0.515-0.017,1.03,0.107,1.538
	c0.027,0.11-0.017,0.238-0.027,0.357c-0.103-0.075-0.22-0.137-0.305-0.229c-0.116-0.125-0.208-0.271-0.31-0.409
	c-0.178-0.241-0.353-0.551-0.67-0.521c-0.09,0.008-0.139,0.452-0.208,0.696c-0.012,0.041-0.025,0.082-0.043,0.121
	c-0.134,0.296-0.008,0.858-0.405,0.841c-0.332-0.015-0.178-0.546-0.238-0.846c-0.142-0.697-0.246-0.748-0.791-0.309
	c-0.166,0.133-0.295,0.311-0.459,0.446c-0.197,0.161-0.328,0.056-0.319-0.158c0.016-0.385,0.065-0.769,0.114-1.151
	c0.049-0.382,0.145-0.76,0.167-1.143c0.062-1.053,0.05-1.052-0.991-1.356c-3.669-1.068-6.433-4.709-6.5-8.484
	c-0.057-3.189,1.074-5.82,3.011-8.245c1.09-1.364,2.295-2.5,3.93-3.196c0.83-0.353,1.657-0.409,2.51-0.397
	c0.521,0.008,0.749-0.162,0.852-0.703c0.664-3.511,1.886-6.822,3.647-9.936c0.671-1.186,0.642-1.185-0.467-2.008
	c-4.49-3.334-9.602-4.559-15.102-4.487c-0.214,0.003-0.429,0.022-0.643,0.016c-0.757-0.02-0.82-0.123-0.852-0.92
	c-0.023-0.582,0.241-0.731,0.766-0.739c5.357-0.075,10.509,0.73,15.164,3.586c3.032,1.861,5.459,4.346,7.397,7.33
	c2.088,3.22,3.556,6.692,4.608,10.381c0.883,3.093,1.608,6.208,2.012,9.395c0.084,0.657,0.375,0.955,0.992,1.147
	c1.508,0.47,3.03,0.904,4.432,1.671c2.568,1.405,4.386,3.499,5.697,6.079c0.603,1.185,1.192,2.371,1.506,3.672
	c0.109,0.456,0.364,0.654,0.843,0.507c1.732-0.532,3.219,0.188,4.616,1.035c1.246,0.755,2.222,1.836,3.126,3
	c1.006,1.295,1.895,2.629,2.337,4.219c1.311,4.693-0.399,9.383-4.879,11.614c-0.527,0.263-0.715,0.517-0.625,1.061
	c0.118,0.717,0.156,1.447,0.448,2.131c0.094,0.221,0.35,0.514,0.143,0.693c-0.256,0.225-0.417-0.138-0.6-0.286
	c-0.065-0.054-0.125-0.118-0.195-0.166c-0.563-0.392-0.717-0.326-0.785,0.322c-0.035,0.327,0.143,0.842-0.156,0.92
	c-0.223,0.057-0.343-0.509-0.468-0.82c-0.047-0.121-0.1-0.238-0.143-0.358c-0.12-0.347-0.305-0.387-0.521-0.091
	c-0.127,0.172-0.206,0.376-0.317,0.559c-0.094,0.154-0.235,0.281-0.414,0.226c-0.057-0.019-0.062-0.23-0.073-0.354
	c-0.056-0.598-0.113-1.193-0.154-1.793c-0.049-0.703-0.33-1.004-1.117-1.017c-2.126-0.035-3.878-0.997-5.315-2.509
	c-1.646-1.729-2.557-3.827-2.841-6.189c-0.227-1.887-0.175-3.754,0.362-5.606c0.522-1.798,1.601-3.188,2.974-4.39
	c0.386-0.338,0.797-0.649,1.211-0.951c1.032-0.754,1.066-0.759,0.636-1.973c-1.083-3.056-2.75-5.706-5.534-7.494
	c-1.298-0.833-2.752-1.365-4.203-1.884c-0.476-0.169-0.52,0.114-0.49,0.45c0.095,1.024,0.187,2.049,0.314,3.069
	c0.373,2.987,0.445,5.99,0.477,8.994c0.068,6.523,0.079,13.046-0.224,19.565c-0.037,0.786,0.141,1.411,0.675,1.982
	c1.583,1.69,2.866,3.608,4.116,5.546c1.391,2.154,2.806,4.294,3.7,6.72c0.109,0.296,0.249,0.525,0.649,0.467
	c2.959-0.433,5.099,1.072,6.97,3.07c1.789,1.91,3.129,4.072,3.295,6.792c0.186,3.037-0.913,5.521-3.229,7.461
	c-0.65,0.547-1.354,1.062-2.193,1.302c-0.589,0.169-0.701,0.548-0.568,1.064c0.16,0.622,0.35,1.237,0.509,1.858
	c0.038,0.151,0.177,0.337,0.005,0.473c-0.148,0.118-0.323,0.044-0.469-0.051c-0.143-0.093-0.271-0.214-0.418-0.297
	c-0.223-0.124-0.379-0.127-0.424,0.202c-0.06,0.453,0.123,1.289-0.137,1.287c-0.597-0.004-0.451-0.794-0.695-1.218
	c-0.158-0.275-0.324-0.396-0.564-0.099c-0.134,0.167-0.254,0.344-0.371,0.522c-0.07,0.107-0.136,0.22-0.279,0.195
	c-0.155-0.027-0.176-0.172-0.186-0.297c-0.052-0.598-0.132-1.198-0.13-1.796c0.002-0.678-0.229-0.992-0.959-1.03
	c-4.469-0.234-7.04-3.688-7.789-7.459c-0.37-1.865-0.318-3.739,0.224-5.6c0.496-1.709,1.434-3.088,2.821-4.168
	c0.571-0.443,1.18-0.843,1.788-1.236c0.714-0.463,0.729-0.521,0.369-1.333c-1.056-2.389-2.357-4.641-3.751-6.846
	c-0.915-1.448-1.957-2.805-2.957-4.193l-0.061-0.009L68.077,69.236z"/>
</svg>
