<?xml version="1.0" encoding="utf-8"?>
<!-- Generator: Adobe Illustrator 16.0.4, SVG Export Plug-In . SVG Version: 6.00 Build 0)  -->
<!DOCTYPE svg PUBLIC "-//W3C//DTD SVG 1.1//EN" "http://www.w3.org/Graphics/SVG/1.1/DTD/svg11.dtd">
<svg version="1.1" id="Layer_0901" xmlns="http://www.w3.org/2000/svg" xmlns:xlink="http://www.w3.org/1999/xlink" x="0px" y="0px"
	 width="128px" height="128px" viewBox="0 0 128 128" enable-background="new 0 0 128 128" xml:space="preserve">
<g>
	<path fill-rule="evenodd" clip-rule="evenodd" d="M123.235,70.282c3.813,11.197,5.469,22.007,1.881,33.116
		c-1.27,3.931-3.111,7.525-5.863,10.622c-0.456,0.512-0.932,1.246-1.681,1.123c-0.836-0.137-0.83-1.03-0.89-1.692
		c-1.322-14.615-10.941-23.371-21.854-31.353c-6.336-4.634-13.319-8.52-18.657-14.368c-6.148-6.735-8.819-14.928-8.268-24.027
		c0.29-4.806,1.81-6.431,6.448-7.575c6.233-1.537,12.297-0.634,18.127,1.801C107.65,44.266,117.092,56.032,123.235,70.282z"/>
	<path fill-rule="evenodd" clip-rule="evenodd" d="M43.753,5.458c-11.089,7.677-15.32,18.613-14.969,31.678
		c0.183,6.793,2.087,13.32,3.293,19.955c1.413,7.767,2.541,15.557,1.792,23.485c-0.649,6.866-2.906,13.179-6.834,18.838
		c-2.625,3.782-3.46,3.999-7.613,1.798C12.4,97.49,7.608,91.646,4.839,84.329c-5.678-15.003-4.913-30.094,0.297-45.044
		C9.257,27.463,15.625,17.102,26.35,10.13c5.179-3.366,10.813-5.984,17.373-4.599L43.753,5.458z"/>
	<path fill-rule="evenodd" clip-rule="evenodd" d="M64.756,40.864c-4.115,7.795,0.466,24.223,8.795,31.525
		c4.252,3.731,9.013,6.668,13.542,9.96c6.944,5.048,13.953,9.981,19.013,17.122c3.5,4.938,5.626,10.356,6.086,16.398
		c0.29,3.833-0.465,4.748-4.419,5.824c-7.818,2.126-15.362,1.26-22.611-2.179c-21.59-10.238-35.081-35.88-31.832-58.416
		c1.056-7.326,3.879-13.767,9.321-18.909c0.593-0.561,1.421-0.875,2.139-1.303L64.756,40.864z"/>
	<path fill-rule="evenodd" clip-rule="evenodd" d="M39.467,101.498c-0.655,0.254-1.305,0.527-1.967,0.761
		c-1.986,0.699-4.753,1.901-5.924,0.562c-1.274-1.459,1.291-3.302,2.227-4.89c5.027-8.522,5.752-17.764,5.066-27.333
		c-0.635-8.873-2.754-17.485-4.425-26.172c-2.111-10.97-0.002-21.092,6.284-30.139c6.68-9.615,10.763-9.366,18.517-1.881
		c5.664,5.468,8.323,12.574,10.255,20.008c0.359,1.389,0.105,2.247-1.337,3.039c-14.899,8.189-20.593,19.5-18.434,36.548
		c0.638,5.033,1.568,10.052,3.846,14.626c1.401,2.815,0.605,4.658-1.485,6.626C48.677,96.464,43.698,99.901,39.467,101.498z"/>
	<polygon fill-rule="evenodd" clip-rule="evenodd" points="43.723,5.531 43.917,5.563 43.753,5.458 	"/>
	<polygon fill-rule="evenodd" clip-rule="evenodd" points="64.789,40.888 64.824,40.735 64.756,40.864 	"/>
</g>
</svg>
