<?xml version="1.0" encoding="utf-8"?>
<!-- Generator: Adobe Illustrator 16.0.4, SVG Export Plug-In . SVG Version: 6.00 Build 0)  -->
<!DOCTYPE svg PUBLIC "-//W3C//DTD SVG 1.1//EN" "http://www.w3.org/Graphics/SVG/1.1/DTD/svg11.dtd">
<svg version="1.1" id="Layer_0903" xmlns="http://www.w3.org/2000/svg" xmlns:xlink="http://www.w3.org/1999/xlink" x="0px" y="0px"
	 width="128px" height="128px" viewBox="0 0 128 128" enable-background="new 0 0 128 128" xml:space="preserve">
<g id="lMcXOS.tif">
	<g>
		<path fill-rule="evenodd" clip-rule="evenodd" d="M25.411,94.366c1.179-5.466,3.017-10.688,5.438-15.737
			c0.854-1.783,1.931-2.438,3.871-2.433c19.479,0.052,38.958,0.054,58.436-0.004c1.955-0.006,3.029,0.643,3.849,2.441
			c2.401,5.28,4.277,10.721,5.586,16.365c0,1.265,0,2.53,0,3.796c-0.128,0.286-0.322,0.562-0.374,0.861
			c-2.347,13.688-10.954,21.643-23.685,25.748c-2.468,0.796-5.046,1.248-7.573,1.856c-4.639,0-9.277,0-13.917,0
			c-2.425-0.596-4.889-1.069-7.268-1.811c-11.85-3.694-20.118-11.032-23.482-23.309c-0.361-1.316-0.227-2.735-0.88-3.98
			C25.411,96.896,25.411,95.632,25.411,94.366z"/>
		<path fill-rule="evenodd" clip-rule="evenodd" d="M91.835,0.739c1.185,0.861,0.84,2.02,0.584,3.137
			c-0.564,2.462-1.152,4.917-1.746,7.372c-0.468,1.934-0.954,3.716,0.342,5.709c1.013,1.555,0.037,3.741-1.901,4.327
			c-1.87,0.563-2.327,1.85-2.862,3.337c-2.564,7.132-5.144,14.258-7.736,21.378c-0.893,2.452-4.271,3.766-6.646,2.648
			c-1.021-0.48-0.572-1.247-0.352-1.882c0.899-2.584,1.858-5.147,2.798-7.718c2.097-5.734,4.179-11.473,6.307-17.195
			c0.49-1.317,0.779-2.354-0.269-3.729c-1.315-1.726-0.553-4.069,1.657-4.888c1.83-0.678,2.576-1.984,3.398-3.444
			c1.705-3.026,3.439-6.035,5.162-9.052C90.992,0.739,91.413,0.739,91.835,0.739z"/>
		<path fill-rule="evenodd" clip-rule="evenodd" d="M64.006,72.878c-8.748-0.001-17.496,0.013-26.244-0.008
			c-3.201-0.008-3.251-0.114-2.582-3.225c0.733-3.396,1.578-6.76,2.756-10.035c0.648-1.802,1.6-3.413,2.76-4.937
			c1.454-1.911,3.221-2.698,5.689-2.676c11.698,0.108,23.397,0.121,35.096-0.006c2.621-0.029,4.387,0.896,5.909,2.886
			c2.646,3.464,3.576,7.576,4.592,11.655c1.579,6.337,1.548,6.345-4.895,6.345C79.395,72.878,71.7,72.878,64.006,72.878z"/>
	</g>
</g>
</svg>
