<?xml version="1.0" encoding="utf-8"?>
<!-- Generator: Adobe Illustrator 16.0.4, SVG Export Plug-In . SVG Version: 6.00 Build 0)  -->
<!DOCTYPE svg PUBLIC "-//W3C//DTD SVG 1.1//EN" "http://www.w3.org/Graphics/SVG/1.1/DTD/svg11.dtd">
<svg version="1.1" id="Layer_0904" xmlns="http://www.w3.org/2000/svg" xmlns:xlink="http://www.w3.org/1999/xlink" x="0px" y="0px"
	 width="128px" height="128px" viewBox="0 0 128 128" enable-background="new 0 0 128 128" xml:space="preserve">
<g id="LCfi2T.tif">
	<g>
		<path d="M87.651,127.104c-14.929,0-29.857,0-44.786,0c-6.542-3.986-12.657-8.476-17.881-14.164
			C11.338,98.084,9.629,80.052,17.406,62.348c2.394-5.449,6.432-9.784,10.274-14.225c2.784-3.217,4.935-6.728,5.783-10.995
			c0.429-2.154,0.191-3.794-1.284-5.617c-5.242-6.473-4.664-14.175,1.195-20.125c3.21-3.261,7.091-5.427,11.337-6.945
			c12.025-4.3,24.293-4.51,36.6-1.591c6.107,1.448,11.844,3.915,16.393,8.538c5.854,5.95,6.487,13.754,1.178,20.111
			c-1.979,2.37-1.896,4.675-1.367,7.241c0.223,1.078,0.732,2.106,1.18,3.126c1.606,3.651,4.299,6.531,6.931,9.413
			c9.892,10.833,13.308,23.733,11.681,37.979c-1.155,10.117-6.615,18.242-13.529,25.454
			C99.029,119.662,93.453,123.529,87.651,127.104z M66.445,32.391c1.955,0.291,4.815-0.261,7.665-0.666
			c2.199-0.312,4.372-0.898,6.513-1.513c3.25-0.935,6.287-2.369,8.852-4.611c2.582-2.257,2.643-4.277,0.248-6.652
			c-1.811-1.796-4.061-2.933-6.373-3.953c-0.82-0.361-1.281-0.031-1.953,0.466c-2.895,2.144-6.129,1.846-9.332,0.884
			c-1.498-0.45-2.494-1.464-1.501-3.153c0.551-0.936,0.191-1.125-0.644-1.184c-2.888-0.199-5.775-0.215-8.662,0
			c-0.678,0.05-1.414,0.02-0.792,1.096c1.071,1.854-0.003,2.853-1.625,3.296c-3.208,0.877-6.441,1.232-9.286-1.064
			c-0.588-0.475-1.047-0.676-1.735-0.375c-2.488,1.086-4.918,2.288-6.782,4.32c-1.947,2.123-1.925,3.784,0.091,5.861
			c1.37,1.41,3.041,2.451,4.82,3.293C52.137,31.368,58.715,32.346,66.445,32.391z M55.294,90.356c0,5.312,0,10.623,0,15.935
			c0,5.08,0,5.08,5.218,5.009c2.638-0.037,2.699-0.052,2.737-2.611c0.049-3.261,0.001-6.522,0.028-9.784
			c0.022-2.783,0.043-2.832,2.75-2.805c2.522,0.024,5.061-0.116,7.478-0.694c6.264-1.501,9.56-6.973,8.992-14.479
			c-0.422-5.572-4.373-10.054-9.821-10.96c-4.992-0.83-10.041-0.147-15.055-0.408c-1.83-0.095-2.396,0.505-2.364,2.347
			C55.36,78.054,55.295,84.206,55.294,90.356z M86.395,43.621c0.004-3.675,0.022-3.608-3.191-2.702
			c-10.41,2.936-20.923,3.154-31.492,0.964c-1.907-0.395-3.77-0.999-5.65-1.518c-0.646-0.178-1.175-0.44-1.384,0.629
			c-0.829,4.24,0.112,6.52,3.86,8.68c1.122,0.646,2.327,1.191,3.554,1.608c6.831,2.323,13.824,2.698,20.91,1.53
			c3.502-0.578,6.906-1.502,9.977-3.389C85.27,48.016,86.94,46.275,86.395,43.621z"/>
		<path fill-rule="evenodd" clip-rule="evenodd" d="M65.492,27.552c-1.565,0.157-2.969-0.336-4.347-0.903
			c-0.808-0.333-1.465-0.914-1.509-1.835c-0.044-0.943,0.614-1.547,1.402-1.902c2.946-1.328,5.922-1.351,8.89-0.052
			c0.8,0.35,1.479,0.905,1.505,1.832c0.031,1.074-0.745,1.668-1.64,2.023C68.408,27.264,66.992,27.733,65.492,27.552z"/>
		<path fill-rule="evenodd" clip-rule="evenodd" d="M67.385,75.412c6.4,0.04,9.05,3.493,7.478,9.744
			c-0.827,3.286-2.716,4.911-6.146,4.916c-6.493,0.009-5.316,0.741-5.441-5.142c-0.049-2.321,0.082-4.648-0.03-6.966
			c-0.088-1.848,0.434-2.848,2.469-2.563C66.261,75.478,66.827,75.413,67.385,75.412z"/>
	</g>
</g>
</svg>
