<?xml version="1.0" encoding="utf-8"?>
<!-- Generator: Adobe Illustrator 16.0.0, SVG Export Plug-In . SVG Version: 6.00 Build 0)  -->
<!DOCTYPE svg PUBLIC "-//W3C//DTD SVG 1.1//EN" "http://www.w3.org/Graphics/SVG/1.1/DTD/svg11.dtd">
<svg version="1.1" id="Layer_0905" xmlns="http://www.w3.org/2000/svg" xmlns:xlink="http://www.w3.org/1999/xlink" x="0px" y="0px"
	 width="128px" height="128px" viewBox="0 0 128 128" enable-background="new 0 0 128 128" xml:space="preserve">
<g id="codKiO.tif_1_">
	<g>
		<path fill-rule="evenodd" clip-rule="evenodd" d="M103.573,10.794c-0.196,10.538-2.779,20.576-7.156,30.072
			c-1.601,3.474-1.303,6.812-1.309,10.289c0,0.254-0.078,0.635,0.359,0.622c0.157-0.004,0.335-0.153,0.458-0.279
			c0.199-0.203,0.365-0.439,0.537-0.667c8.573-11.371,16.312-23.242,21.733-36.487c0.368-0.899,1.495-2.119,0.592-2.766
			c-0.769-0.551-1.81,0.741-2.557,1.412c-1.557,1.398-2.992,2.933-4.496,4.393c-0.34,0.329-0.768,0.63-1.249,0.239
			c-0.345-0.278-0.29-0.697-0.154-1.051c1.669-4.336,3.862-8.307,7.864-10.961c1.324-0.878,2.826-1.385,4.318-0.602
			c1.558,0.817,1.668,2.401,1.652,3.985c-0.017,1.753-0.559,3.375-1.113,4.996c-5.164,15.096-12.713,28.917-22.261,41.675
			c-0.649,0.868-2.014,1.735-1.521,2.783c0.374,0.796,1.912,0.541,2.943,0.606c7.77,0.499,14.546,3.653,20.819,7.972
			c3.64,2.505,3.97,5.971,0.996,9.619c-3.335,4.091-7.389,7.431-11.809,10.302c-3.615,2.348-7.482,4.159-11.672,5.267
			c-2.451,0.647-2.465,0.708-1.601,2.926c3.003,7.701,3.124,15.611,1.704,23.623c-0.196,1.111-0.587,2.217-1.058,3.247
			c-1.405,3.077-3.488,4.154-6.687,3.192c-10.777-3.242-19.555-9.262-25.682-18.862c-0.256-0.401-0.5-0.812-0.729-1.229
			c-1.218-2.222-1.283-1.801-2.876-0.636c-6.169,4.512-13.039,7.073-20.737,7.06c-1.579-0.003-2.692,0.58-3.81,1.566
			c-4.716,4.167-9.566,8.178-14.589,11.972c-0.834,0.629-1.819,1.987-2.91,0.849c-0.947-0.987,0.12-2.141,0.718-3.05
			c1.681-2.556,3.726-4.825,5.756-7.104c0.264-0.295,0.894-0.53,0.494-1.072c-0.068-0.093-0.685,0.156-1.009,0.322
			c-7.213,3.693-14.61,6.971-22.2,9.81c-0.802,0.3-1.603,0.621-2.428,0.837c-0.733,0.191-1.102-0.168-0.883-0.924
			c0.298-1.03,0.948-1.857,1.654-2.641c1.672-1.855,3.652-3.346,5.682-4.773c4.604-3.241,9.454-6.088,14.39-8.78
			c1.336-0.729,2.047-1.453,1.708-3.083c-0.316-1.522,0.138-3.025,0.662-4.474c3.148-8.706,8.052-16.169,15.46-21.864
			c1.442-1.109,1.451-1.154,0.061-2.364c-8.53-7.419-12.871-17.07-14.821-27.96c-0.595-3.318,1.134-5.767,4.638-6.319
			c8.11-1.277,15.942-0.18,23.411,3.295c2.082,0.969,4.045,2.146,5.865,3.537c0.987,0.755,1.547,0.873,2-0.539
			c2.966-9.237,9.125-15.92,17.093-21.12c0.795-0.519,1.62-1.021,2.492-1.383c2.84-1.181,5.297-0.413,6.878,2.23
			c0.827,1.383,1.437,2.897,2.122,4.361c0.258,0.549,0.503,0.771,0.863,0.097c0.135-0.251,0.238-0.519,0.354-0.778
			c2.688-6.019,4.905-12.191,6.023-18.711c0.339-1.977,0.333-3.988,0.241-5.991c-0.025-0.544,0.129-1.265-0.525-1.509
			c-0.785-0.294-1.223,0.407-1.594,0.908c-0.963,1.299-1.896,2.626-2.744,4.003c-0.948,1.539-1.779,3.15-2.685,4.718
			c-0.173,0.3-0.362,0.771-0.819,0.572c-0.32-0.14-0.606-0.452-0.81-0.753c-0.351-0.522-0.163-1.124-0.045-1.668
			c0.899-4.122,2.772-7.686,6.072-10.409c0.366-0.302,0.767-0.569,1.179-0.807c3.438-1.987,6.283-0.584,6.713,3.401
			C103.718,7.537,103.573,9.174,103.573,10.794z M37.266,47.442c-0.856,0-1.717-0.045-2.57,0.009
			c-2.493,0.157-2.609,0.241-2.12,2.71c1.67,8.44,5.377,15.793,11.698,21.75c3.616,3.407,7.839,5.645,12.646,6.816
			c0.345,0.084,0.759,0.403,1.049,0.012c0.255-0.345-0.004-0.697-0.229-1.01c-0.279-0.387-0.536-0.788-0.8-1.184
			c-1.64-2.454-3.284-4.91-4.491-7.614c-1.201-2.692-0.703-3.546,2.242-4.038c0.375-0.062,0.762-0.049,1.137-0.109
			c3.12-0.504,6.267-0.425,9.408-0.406c1.223,0.007,1.268-0.481,0.714-1.344c-0.359-0.561-0.731-1.113-1.104-1.666
			C58.256,51.573,48.69,47.649,37.266,47.442z M41.312,106.136c2.459,0.067,4.825-0.17,7.164-0.663
			c7.585-1.601,13.708-5.529,18.458-11.628c0.229-0.294,0.607-0.802,0.51-0.956c-0.296-0.474-0.811-0.142-1.241-0.065
			c-2.53,0.448-5.046,1.018-7.593,1.319c-3.861,0.456-4.633-0.449-3.853-4.302c0.283-1.395,0.68-2.776,1.148-4.12
			c0.355-1.018,0.256-1.536-0.903-1.864c-1.644-0.464-3.278-1.035-4.818-1.768c-1.278-0.608-2.276-0.502-3.438,0.263
			c-7.732,5.087-12.595,12.287-15.622,20.893c-0.46,1.309,0.062,1.694,1.186,1.935C35.301,105.819,38.312,106.231,41.312,106.136z
			 M96.024,110.056c0-0.992,0.004-1.468-0.001-1.943c-0.078-7.756-2.763-14.485-7.979-20.21c-0.309-0.339-0.77-0.871-1.072-0.817
			c-0.721,0.127-0.502,0.896-0.549,1.421c-0.29,3.222-0.627,6.438-1.666,9.523c-0.855,2.542-1.57,2.85-4.009,1.839
			c-0.612-0.254-1.202-0.577-1.767-0.926c-1.617-0.999-3.217-2.024-4.82-3.046c-0.562-0.358-1.041-0.752-1.773-0.188
			c-2.557,1.972-2.967,3.695-1.312,6.543c5.019,8.636,12.635,14.014,21.861,17.376c1.381,0.504,1.922-0.075,2.177-1.31
			C95.712,115.422,96.103,112.505,96.024,110.056z M99.833,64.545c-4.68,0.046-8.914,1.007-12.973,2.79
			c-0.447,0.196-0.927,0.395-0.991,0.912c-0.085,0.677,0.42,0.981,0.971,1.23c1.561,0.703,3.115,1.42,4.667,2.144
			c1.729,0.806,3.403,1.716,4.914,2.883c2.135,1.65,2.176,2.53,0.24,4.289c-0.633,0.575-1.357,1.048-2.005,1.608
			c-1.117,0.967-3.338,1.393-3.286,2.723c0.047,1.21,1.814,2.305,2.687,3.546c0.725,1.031,1.583,1.212,2.716,0.961
			c2.33-0.518,4.577-1.288,6.777-2.194c6.396-2.634,11.565-6.889,16.029-12.1c0.932-1.089,0.838-1.717-0.434-2.344
			c-2.304-1.136-4.554-2.381-6.858-3.514C108.29,65.514,104.011,64.729,99.833,64.545z M89.722,51.412
			c-0.011-6.578-1.479-12.818-4.362-18.733c-0.47-0.965-0.882-1.583-2.112-0.797c-6.84,4.372-12.283,9.924-15.114,17.693
			c-1.805,4.954-1.694,5.167,1.503,9.232c0.714,0.908,1.192,1.02,2.015,0.227c1.238-1.193,2.603-2.24,4.183-2.954
			c2.23-1.008,3.734-0.651,5.316,1.218c0.935,1.103,1.508,2.416,2.153,3.688c0.206,0.408,0.306,0.9,0.875,1.033
			c1.305,0.305,4.485-1.785,4.827-3.23C89.575,56.365,89.761,53.9,89.722,51.412z"/>
	</g>
</g>
</svg>
