<?xml version="1.0" encoding="utf-8"?>
<!-- Generator: Adobe Illustrator 16.0.0, SVG Export Plug-In . SVG Version: 6.00 Build 0)  -->
<!DOCTYPE svg PUBLIC "-//W3C//DTD SVG 1.1//EN" "http://www.w3.org/Graphics/SVG/1.1/DTD/svg11.dtd">
<svg version="1.1" id="Layer_0906" xmlns="http://www.w3.org/2000/svg" xmlns:xlink="http://www.w3.org/1999/xlink" x="0px" y="0px"
	 width="128px" height="128px" viewBox="0 0 128 128" enable-background="new 0 0 128 128" xml:space="preserve">
<g id="ZEChxW.tif_1_">
	<g>
		<path fill-rule="evenodd" clip-rule="evenodd" d="M1.73,95.094c0.141-1.063,0.262-2.131,0.426-3.191
			c1.007-6.484,4.279-9.88,10.723-10.927c27.628-4.491,55.263-8.945,82.895-13.416c5.475-0.887,10.943-1.806,16.42-2.676
			c6.172-0.98,9.525,0.69,12.094,6.251c1.857,4.02,2.477,8.283,1.57,12.667c-1.116,5.394-3.476,7.641-8.9,8.522
			c-14.814,2.409-29.635,4.789-44.452,7.188c-17.486,2.831-34.97,5.675-52.457,8.502c-1.468,0.237-2.947,0.415-4.424,0.584
			c-1.558,0.178-2.958-0.266-4.158-1.257c-0.72-0.594-1.628-1.206-1.305-2.311c0.279-0.955,1.306-0.834,2.054-0.958
			c6.404-1.062,12.816-2.077,19.224-3.113c27.767-4.486,55.509-9.138,83.316-13.361c7.977-1.212,7.931-4.442,7.355-10.555
			c-0.21-2.227-1.293-4.137-2.629-5.854c-1.941-2.49-4.336-2.151-5.582,0.769c-0.817,1.916-0.924,3.934-0.354,5.963
			c0.899,3.207,0.902,3.231-2.416,3.774c-9.476,1.551-18.953,3.085-28.433,4.618C58.005,90.309,33.31,94.296,8.617,98.3
			c-1.605,0.261-3.198,0.536-4.828,0.297C3.103,97.429,2.417,96.261,1.73,95.094z"/>
		<path fill-rule="evenodd" clip-rule="evenodd" d="M115.464,32.044c1.3,5.515-0.597,9.464-5.179,12.883
			c-6.494,4.844-12.672,10.141-18.711,15.55c-2.871,2.573-6.172,3.117-9.639,3.663c-0.554,0.087-1.172,0.17-1.481-0.309
			c-0.554-0.856,0.374-1.16,0.812-1.527c6.321-5.296,12.665-10.563,19.005-15.836c2.805-2.332,5.625-4.646,8.414-6.996
			c3.342-2.817,3.885-4.634,1.918-8.423c-1.57-3.027-3.816-5.619-7.146-6.887c-3.199-1.218-5.146,0.327-4.646,3.666
			c0.35,2.346,1.271,4.589,3.485,5.646c2.386,1.14,1.42,1.982,0.129,3.062c-5.598,4.683-11.173,9.391-16.79,14.048
			c-5.826,4.831-11.745,9.553-17.504,14.463c-1.318,1.124-2.656,1.762-4.286,2.022c-8.278,1.327-16.552,2.683-24.838,3.96
			c-0.84,0.129-2.03,0.973-2.577-0.124c-0.559-1.119,0.813-1.491,1.468-2.037c11.414-9.529,22.846-19.037,34.278-28.544
			c6.858-5.702,13.745-11.37,20.581-17.1c6.123-5.132,10.431-5.164,16.443-0.011c0.713,0.611,1.433,1.217,2.148,1.825
			C112.721,27.375,114.092,29.709,115.464,32.044z"/>
	</g>
</g>
</svg>
