<?xml version="1.0" encoding="utf-8"?>
<!-- Generator: Adobe Illustrator 16.0.0, SVG Export Plug-In . SVG Version: 6.00 Build 0)  -->
<!DOCTYPE svg PUBLIC "-//W3C//DTD SVG 1.1//EN" "http://www.w3.org/Graphics/SVG/1.1/DTD/svg11.dtd">
<svg version="1.1" id="Layer_0909" xmlns="http://www.w3.org/2000/svg" xmlns:xlink="http://www.w3.org/1999/xlink" x="0px" y="0px"
	 width="128px" height="128px" viewBox="0 0 128 128" enable-background="new 0 0 128 128" xml:space="preserve">
<g>
	<path fill-rule="evenodd" clip-rule="evenodd" d="M45,41.067c-2.893-10.217-3.01-20.582-1.671-31.026
		c0.136-1.056,0.12-2.146,0.375-3.169c0.553-2.223,0.434-5.326,2.986-5.92c2.512-0.583,4.029,2.077,5.349,3.93
		c6.073,8.523,11.642,17.327,14.239,27.66c0.224,0.891-0.255,2.345,1.069,2.539c0.875,0.128,1.188-1.036,1.562-1.786
		c4.957-9.928,14.337-15.536,22.184-22.632c1.239-1.121,2.846-2.104,4.641-1.008c1.757,1.074,1.77,2.982,1.383,4.587
		c-2.435,10.081-2.93,20.733-8.636,29.873c-0.417,0.668-1.376,1.394-0.832,2.158c0.577,0.812,1.606,0.164,2.36-0.089
		c10.003-3.356,20.152-2.783,30.322-1.101c2.268,0.375,4.938,0.755,5.494,3.556c0.469,2.363-1.369,3.97-2.994,5.309
		c-7.824,6.442-16.537,11.205-26.424,13.714c-0.869,0.221-2.289-0.042-2.396,1.247c-0.032,0.381,1.271,0.947,2.021,1.31
		c8.538,4.127,14.18,11.427,20.074,18.418c1.67,1.98,2.98,4.399,1.533,7.05c-1.631,2.986-4.561,2.793-7.345,2.304
		c-8.831-1.552-17.568-3.435-25.279-8.38c-0.685-0.438-1.432-1.293-2.184-0.707c-0.847,0.659,0.079,1.545,0.319,2.257
		c3.226,9.566,2.873,19.301,1.363,29.07c-0.41,2.664-0.45,6.051-3.701,6.788c-3.137,0.711-4.933-2.115-6.588-4.262
		c-5.775-7.489-10.188-15.691-12.535-24.929c-0.22-0.864,0.236-2.323-1.141-2.422c-0.424-0.03-1.039,1.198-1.403,1.932
		c-4.934,9.936-14.086,15.768-22.111,22.679c-1.22,1.051-2.796,2.224-4.627,1.136c-2.032-1.207-1.972-3.325-1.483-5.142
		c2.695-10.01,2.925-20.76,8.85-29.812c0.334-0.513,0.833-1.41,0.637-1.686c-0.576-0.806-1.453-0.347-2.256-0.083
		c-10.5,3.443-21.107,1.345-31.687,0.568c-1.748-0.128-3.534-0.501-4.167-2.385c-0.737-2.19,0.657-3.743,2.245-4.859
		c8.011-5.63,15.971-11.377,25.497-14.313c1.371-0.423,2.767-0.76,4.152-1.137c-0.566-2.024-2.631-1.963-4.019-2.77
		c-7.326-4.259-13.096-10.161-18.069-16.893c-1.78-2.41-3.622-5.194-1.605-8.184c1.99-2.948,5.309-2.35,8.219-1.794
		c9.02,1.72,17.781,4.269,25.836,8.844c0.251,0.256,0.682,0.764,0.724,0.734C46.07,41.669,45.585,41.348,45,41.067z M45.866,107.698
		c-0.617,0.289-1.21,0.595-1.045,1.448c-3.408,0.521-7.4,2.282-7.738-3.687c-0.02-0.336-0.411-0.949-0.567-0.93
		c-0.772,0.095-0.634,0.842-0.678,1.349c-0.23,2.665-1.653,6.019,0.819,7.713c2.417,1.656,4.507-1.303,6.556-2.608
		c0.647-0.412,1.005-1.28,1.496-1.94c0.889-0.102,1.282-0.554,1.034-1.46C45.784,107.621,45.825,107.66,45.866,107.698z
		 M71.551,111.805l-0.196-0.452l0.311,0.336c0.113,0.741,0.374,1.32,1.293,1.173c0.53,3.2,2.55,6.247,5.429,5.913
		c3.456-0.401,2.808-4.534,3.363-7.303c0.042-0.203,0.049-0.424,0.021-0.629c-0.099-0.722,0.327-1.579-0.534-2.107
		c-0.239,0.558-0.552,1.095-0.705,1.675c-1.264,4.771-4.22,4.396-7.673,2.556C72.797,112.158,72.422,111.702,71.551,111.805z
		 M19.172,72.104c-0.81,0.174-1.112,0.696-1.021,1.487c-4.158,0.065-7.442,2.68-7.436,6.147c0.005,3.535,4.625,2.492,7.257,3.362
		c0.584,0.193,1.258,0.156,1.891,0.153c0.63-0.003,1.259-0.097,1.89-0.149c-0.113-1.125-1.104-0.629-1.674-0.878
		c-6.355-2.781-6.512-3.421-2.052-8.768c0.39-0.471,0.778-0.942,1.167-1.414l0.187-0.228L19.172,72.104z M44.745,77.24l-0.327,0.187
		l0.202-0.315c0.427-0.521,0.853-1.041,1.279-1.562c3.574-0.033,5.466-2.732,7.599-4.938c1.167-1.207,1.159-2.594-0.442-3.7
		c-2.047-1.415-4.369-1.371-6.663-1.297c-1.238,0.04-1.186,0.261-0.208,1.215c4.207,4.105,4.134,4.18-0.171,8.855
		C45.591,76.203,45.168,76.723,44.745,77.24z M52.425,46.552c-0.386-0.127-0.325-0.447-0.055-0.344
		c0.79,0.304,0.084-0.582-0.023,0.264c0.545,0.354,1.091,0.707,1.637,1.06c0.083,3.339,2.548,5.194,4.652,7.193
		c1.221,1.16,2.804,1.191,3.822-0.382c1.449-2.235,1.521-4.813,1.377-7.383c-0.018-0.317-0.291-0.62-0.445-0.929
		c-0.209,0.331-0.384,0.691-0.631,0.991c-3.925,4.741-3.928,4.739-8.911,0.63C53.373,47.286,52.898,46.919,52.425,46.552z
		 M21.745,47.763c-0.197-0.771-0.554-1.343-1.49-1.188c0.666-2.595-3.328-6.339,1.958-7.812c1.296-0.36,2.8,0.404,3.923-0.769
		c-1.395-0.417-2.765-1.01-4.19-1.212c-2.037-0.29-4.476-1.093-5.925,0.877c-1.823,2.478,0.63,4.24,1.799,6.082
		c0.654,1.029,1.692,1.815,2.558,2.712c0.259,0.703,0.716,1.153,1.508,1.171c0.446,0.43,0.892,0.859,1.339,1.289
		c0.1,0.076,0.2,0.152,0.299,0.229c-0.097,0.076-0.195,0.152-0.292,0.229c-0.044-0.113-0.089-0.227-0.132-0.34
		C22.647,48.61,22.196,48.187,21.745,47.763z M48.688,50.16l-0.264-0.114l0.36,0.183c0.122,0.763,0.649,1.062,1.343,1.168
		c1.522,7.011,1.521,7.005-5.274,8.335c-0.441,0.086-1.095-0.425-1.271,0.344c-0.024,0.104,0.667,0.415,1.053,0.567
		c3.229,1.273,7.23,2.443,9.613,0.124c2.692-2.62-0.901-5.184-2.443-7.513c-0.45-0.68-1.208-1.157-1.824-1.728
		C49.55,51.071,49.12,50.615,48.688,50.16z M79.238,24.792c-0.057,0.395-0.359,0.425-0.365,0.085
		c-0.011-0.847-0.463,0.257,0.27-0.18c0.451-0.521,0.904-1.043,1.356-1.564c1.009,0.007,2.025,0.034,2.671-0.965
		c0.507-0.349,1.014-0.696,1.52-1.045c3.836-1.001,6.199,0.048,6.223,4.426c0.001,0.397,0.215,0.793,0.33,1.189
		c0.221-0.164,0.612-0.31,0.633-0.497c0.322-2.858,2.185-5.98,0.048-8.516c-2.095-2.486-4.146,0.036-6.012,1.125
		c-0.679,0.396-1.112,1.214-1.657,1.84c-0.777,0.264-1.314,0.668-0.942,1.605c-1.138-0.327-1.944,0.28-2.726,0.963
		C80.138,23.77,79.688,24.282,79.238,24.792z M48.521,81.026l-0.279,0.215l0.16-0.324c0.438-0.521,0.876-1.043,1.314-1.564
		c2.68,0.603,5.511-3.102,8.13,0.342c0.806,1.059,0.053,2.946,1.889,3.388c0.204-1.454,0.547-2.905,0.572-4.362
		c0.029-1.614,0.469-3.577-1.562-4.391c-1.522-0.608-2.892,0.236-4.066,1.139c-1.667,1.279-3.241,2.68-4.854,4.028
		C49.389,80.006,48.955,80.517,48.521,81.026z M79.398,79.656c-0.458-0.45-0.916-0.9-1.373-1.351
		c-1.732-5.728-1.732-5.727,3.393-7.624c0.539-0.199,1.071-0.416,1.607-0.625c-0.373-0.178-0.737-0.487-1.121-0.514
		c-2.854-0.196-6.315-2.147-8.384,0.482c-2.14,2.722,0.969,4.915,2.487,7.054c0.475,0.667,1.174,1.211,2.127,1.114
		c0.029,0.901,0.543,1.295,1.397,1.329C79.883,79.966,79.853,80.024,79.398,79.656z M104.922,80.819
		c-0.408,0.148-0.45,0.066-0.125-0.247c0.063,0.114,0.127,0.228,0.189,0.342c0.479,0.395,0.956,0.79,1.435,1.186
		c-0.177,1.808,0.739,3.095,2.004,4.218c0.776,3.248-0.135,5.402-3.739,5.906c-0.564,0.078-1.087,0.459-1.628,0.7
		c0.247,0.208,0.484,0.58,0.745,0.597c2.717,0.179,6.011,1.55,7.99-0.415c2.355-2.338-0.516-4.5-1.875-6.495
		c-0.221-0.325-0.664-0.499-1.006-0.742c-0.354-1.593-1.645-2.514-2.624-3.657C105.832,81.747,105.377,81.283,104.922,80.819z
		 M74.215,82.236c-0.186-0.722-0.502-1.297-1.384-1.243c-0.567-3.197-2.711-6.142-5.528-5.733c-3.363,0.488-2.867,4.533-3.241,7.368
		c-0.054,0.411-0.047,0.841,0.005,1.253c0.053,0.407,0.236,1.157,0.295,1.15c0.785-0.088,0.702-0.812,0.844-1.346
		c1.231-4.671,4.281-4.296,7.739-2.807c0.021,0.926,0.497,1.325,1.411,1.214c0.336,0.965,0.67,1.93,1.005,2.894
		c0.297-0.261,0.427,0.01,0.147,0.106c-0.798,0.274,0.365,0.378-0.25-0.211C75.146,83.907,75.168,82.88,74.215,82.236z
		 M80.355,55.133c1.188,0.285,2.053-0.409,2.965-0.967c-0.24-0.326,0.049-0.44,0.13-0.141c0.222,0.812,0.405-0.328-0.237,0.233
		c-0.992,0.1-2.014,0.117-2.707,1.015c-0.625,0.235-1.189,0.53-1.284,1.293c-2.722,0.916-5.577,2.555-5.219,5.444
		c0.416,3.361,4.216,2.627,6.715,3.306c0.395,0.107,0.841,0.089,1.255,0.045c0.587-0.062,1.166-0.201,1.749-0.307
		c-0.521-0.3-1.009-0.695-1.567-0.885c-3.967-1.355-4.379-3.99-2.729-7.4C80.27,56.528,80.661,56.028,80.355,55.133z M76.567,51.403
		c-3.26,1.606-6.045,1.967-7.196-2.536c-0.207-0.808-1.171-1.554-1.372-0.116c-0.338,2.422-1.329,5.318,0.674,7.192
		c1.904,1.782,3.909-0.104,5.521-1.344c1.058-0.813,2.745-1.394,2.252-3.331c0.289-0.03,0.576-0.061,0.865-0.092
		c-0.102-0.031-0.227-0.117-0.3-0.085C76.85,51.165,76.713,51.295,76.567,51.403z M110.021,57.86
		c1.794-0.211,3.062-1.397,4.314-2.493c1.529-1.34,3.928-2.551,3.037-5.017c-0.818-2.264-3.386-2.207-5.427-2.493
		c-1.222-0.171-2.497,0.041-3.748,0.08c0.31,1.607,1.919,1.06,2.855,1.647c2.339,1.467,2.517,3.154,1.146,5.304
		c-0.666,1.043-1.891,1.713-2.064,3.086l-0.371,0.158L110.021,57.86z M57.496,20.908c0.388-0.087,0.418,0.215,0.098,0.211
		c-0.843-0.011,0.219,0.483-0.16-0.281c-0.521-1.152-0.839-2.471-1.608-3.424c-1.822-2.255-3.271-6.289-6.367-5.517
		c-3.467,0.865-2.728,5.205-3.244,8.227c-0.135,0.794,0.162,1.661,0.26,2.495c0.966-0.437,0.649-1.454,0.98-2.178
		c2.314-5.062,3.663-5.39,7.824-1.805C56.077,19.325,56.76,20.147,57.496,20.908z M62.812,65.021
		c0.41,1.365,0.991,1.705,1.578,1.468c0.574-0.232,0.812-0.931,0.488-1.522c-0.151-0.277-0.673-0.538-0.99-0.5
		C63.248,64.543,62.793,64.942,62.812,65.021z"/>
</g>
</svg>
