<?xml version="1.0" encoding="utf-8"?>
<!-- Generator: Adobe Illustrator 16.0.0, SVG Export Plug-In . SVG Version: 6.00 Build 0)  -->
<!DOCTYPE svg PUBLIC "-//W3C//DTD SVG 1.1//EN" "http://www.w3.org/Graphics/SVG/1.1/DTD/svg11.dtd">
<svg version="1.1" id="Layer_0910" xmlns="http://www.w3.org/2000/svg" xmlns:xlink="http://www.w3.org/1999/xlink" x="0px" y="0px"
	 width="128px" height="128px" viewBox="0 0 128 128" enable-background="new 0 0 128 128" xml:space="preserve">
<g>
	<path fill-rule="evenodd" clip-rule="evenodd" d="M79.69,69.311c-1.773,0.463-3.729,0.463-4.887,2.342
		c-0.662,1.07-1.794,1.119-3.01,0.936c-1.466-0.224-2.827-1.039-4.373-0.764l0.097,0.001C63.127,69.596,58.993,67,55.545,63.43
		l0.038,0.096c0.139-1.048-0.623-1.572-1.258-2.17l0.03,0.07c0.491-3.885,0.525-4.27,4.602-4.116l-0.096,0
		c0.878,0.623,1.801,0.875,2.822,0.359l-0.103,0c0.408,0.179,0.805,0.196,1.179-0.084l-0.104,0.007
		c0.412,0.258,0.803,0.213,1.176-0.081l-0.102,0.015c2.328,0.368,4.258-0.412,5.89-2.047l-0.099,0.033
		c1.107,0.241,1.567-0.631,2.17-1.258l-0.092,0.017c1.59,0.097,2.379-1.275,3.467-2.019c1.269-0.871,2.031-0.513,2.906,0.433
		c1.259,1.369,1.526,3.127,1.979,4.819l0.014-0.082c-0.581,0.666-1.322,1.266-0.948,2.322l0.014-0.103
		c-0.588,0.882-0.853,1.805-0.358,2.823l-0.002-0.103c-0.226,0.41-0.219,0.804,0.086,1.177l-0.007-0.104
		c-0.267,0.413-0.23,0.805,0.08,1.175l-0.006-0.102c-0.258,0.41-0.212,0.803,0.081,1.176l-0.015-0.1
		c-0.289,1.391-0.18,2.7,0.818,3.817L79.69,69.311z"/>
	<path fill-rule="evenodd" clip-rule="evenodd" d="M28.127,28.104c3.696-1.775,5.642-4.774,6.101-8.787
		c0.055-0.479-0.099-1.16,0.44-1.238c0.374-0.055,0.918,0.381,1.233,0.737c3.474,3.906,3.249,8.715-0.422,13.851
		c-1.52,2.125-3.808,3.287-5.616,5.034l0.099-0.027c-1.277-0.036-2.307,0.53-3.244,1.323l0.1-0.022
		c-1.052-0.259-1.962,0.014-2.744,0.747l0.101-0.014c-0.411-0.253-0.8-0.19-1.176,0.079l0.101-0.013
		c-1.849-0.254-3.669-0.1-5.468,0.381l0.104,0.006c-1.042-0.639-2.16-0.985-3.397-0.866l0.1,0.01
		c-1.378-1.224-3.13-2.142-3.293-4.317c-0.102-1.373-0.518-2.893,0.174-4.053c0.918-1.544,2.383,0.125,3.598-0.145
		c0.354-0.079,0.713-0.146,1.069-0.222l-0.098,0.003c1.254,0.726,2.55,0.867,3.896,0.281l-0.104,0.002
		c0.411,0.242,0.805,0.231,1.178-0.083l-0.104,0.013c1.409,0.363,2.691,0.132,3.82-0.814l-0.099,0.023
		c0.769,0.3,1.241-0.136,1.669-0.678l-0.097,0.033c1.096,0.222,1.577-0.612,2.167-1.261L28.127,28.104z"/>
	<path fill-rule="evenodd" clip-rule="evenodd" d="M29.766,56.484c-3.568-0.89-6.796-2.315-9.32-5.17
		c-1.258-1.423-0.504-1.852,0.707-2.332l-0.093,0.006c1.233,0.956,2.551,0.774,3.892,0.286l-0.099,0.009
		c1.385,0.252,2.698,0.169,3.817-0.819l-0.099,0.025c0.73,0.2,1.229-0.171,1.672-0.679l-0.101,0.028
		c0.777,0.315,1.232-0.163,1.672-0.678l-0.095,0.013c3.905-0.97,6.255-3.96,8.741-6.761c0.409-0.461,0.61-1.1,0.933-1.644
		c0.467-0.79,1.031-1.207,1.597-0.122c0.891,1.71,2.262,3.026,3.46,4.495c1.437,1.769,1.389,2.924-0.254,4.631
		c-0.666,0.694-1.136,1.318-1.169,2.24c-0.058,1.646-0.923,2.85-2.055,3.926l0.093-0.012c-1.081-0.195-1.581,0.606-2.167,1.258
		l0.099-0.029c-1.071-0.329-1.947,0.059-2.746,0.741l0.099-0.022c-1.042-0.217-1.964,0.003-2.744,0.747l0.1-0.013
		c-0.412-0.273-0.796-0.166-1.174,0.079l0.101-0.006c-0.409-0.191-0.805-0.25-1.175,0.084l0.103-0.007
		c-0.412-0.274-0.808-0.279-1.176,0.082h0.103c-0.875-0.625-1.808-0.815-2.821-0.362L29.766,56.484z"/>
	<path fill-rule="evenodd" clip-rule="evenodd" d="M124.057,35.305c0.355-0.068,0.79-0.03,1.046-0.227
		c0.896-0.685,1.546-0.788,1.938,0.484c0.55,1.789,0.062,3.455-0.417,5.176c-0.541,1.962-1.781,2.928-3.688,3.279
		c-0.337,0.06-0.623,0.4-0.933,0.613l0.101-0.019c-0.412-0.278-0.804-0.215-1.178,0.08l0.104-0.009
		c-0.409-0.228-0.801-0.182-1.178,0.082l0.105-0.007c-0.411-0.208-0.806-0.242-1.175,0.084l0.103,0.001
		c-0.887-0.562-1.807-0.833-2.822-0.36l0.101,0.012c-0.522-0.392-1.039-0.794-1.749-0.44l0.1,0.019
		c-1.906-1.671-4.379-2.308-6.548-3.509c-3.584-1.985-6.11-5.036-8.864-7.885l0.03,0.069c0.028-1.528,0.482-2.971,1.108-4.323
		c0.892-1.932,2.486-2.346,4.959-1.463l-0.02-0.1c-0.095,2.835,1.834,4.564,3.728,6.048c2.396,1.871,4.912,3.816,8.308,3.419
		l-0.104-0.006c1.907,1.048,3.723,0.834,5.469-0.382l-0.099,0.024c0.785,0.339,1.222-0.182,1.668-0.676L124.057,35.305z"/>
	<path fill-rule="evenodd" clip-rule="evenodd" d="M10.619,77.734c0.333-0.77-0.009-1.492-0.183-2.211
		c-0.453-1.869-0.019-3.494,1.231-4.932c0.828-0.953,1.604-1.955,2.475-2.867c0.767-0.801,1.581-2.252,2.652-1.789
		c1.206,0.523-0.563,1.92,0.08,2.926c0.067,0.105,0.109,0.228,0.162,0.343l-0.007-0.097c-0.243,0.412-0.27,0.807,0.084,1.176
		l-0.001-0.104c-0.632,0.795-0.558,1.545,0.155,2.248l-0.019-0.101c0.196,7.226,6.322,13.88,14.053,15.263l-0.103-0.018
		c1.483,1.205,3.127,1.781,5.042,1.285l-0.094,0.01c-1.252,3.738-3.732,5.148-7.287,4.457c-2.103-0.408-3.798-1.963-6.014-1.92
		l0.093,0.004c-1.963-2.137-4.771-3.148-6.778-5.318c-2.347-2.543-3.929-5.488-5.552-8.449L10.619,77.734z"/>
	<path fill-rule="evenodd" clip-rule="evenodd" d="M33.494,82.742c-0.122,2.645,2.172,3.635,3.577,5.234l-0.006-0.078
		c-0.174,0.207-0.346,0.408-0.521,0.615l0.095-0.008c-1.599-0.754-3.214-1.438-5.043-1.289l0.102,0.02
		c-0.903-0.93-2.135-1.281-3.261-1.785c-5.231-2.348-8.535-6.295-10.027-11.812c-0.157-0.58-0.505-1.111-0.765-1.666l0.018,0.102
		c0.273-0.771,0.201-1.519-0.156-2.248l0.002,0.104c0.233-0.41,0.234-0.805-0.085-1.176l0.008,0.097
		c0.821-1.394,1.151-3.048,2.424-4.208c1.82-1.657,2.872-1.502,3.92,0.668c0.324,0.67,0.729,1.301,1.097,1.951l-0.023-0.1
		c0.404,3.207,2.432,5.398,4.78,7.293c1.849,1.492,3.225,3.061,2.901,5.648c-0.125,0.998,0.139,2.006,0.974,2.734L33.494,82.742z"/>
	<path fill-rule="evenodd" clip-rule="evenodd" d="M70.366,16.348c3.284,0.144,4.71,1.504,4.386,4.332
		c-0.458,3.998-2.004,7.489-5.041,10.23l0.1-0.032c-1.047-0.135-1.57,0.63-2.171,1.262l0.099-0.027
		c-1.094-0.417-1.948,0.061-2.747,0.741l0.103-0.023c-1.128-0.216-2.238-0.167-3.321,0.23l0.102-0.001
		c-0.41-0.197-0.806-0.235-1.176,0.085l0.103-0.001c-0.875-0.642-1.807-0.831-2.822-0.354l0.102,0.006
		c-1.4-0.962-2.257-2.194-2.513-3.959c-0.344-2.349-0.936-4.662-1.434-6.987c-0.252-1.182,0.138-1.24,1.153-0.841
		c1.004,0.396,1.861,1.362,3.114,0.97l-0.091-0.001c0.521,0.393,1.037,0.802,1.749,0.441l-0.103-0.011
		c1.536,0.911,3.008,0.924,4.395-0.308l-0.101,0.021c3.654-0.549,5.124-1.957,6.128-5.872L70.366,16.348z"/>
	<path fill-rule="evenodd" clip-rule="evenodd" d="M114.298,51.768c1.787,1.116,3.65,0.345,5.477,0.195
		c1.965-0.161,2.292,0.155,1.645,2.002c-0.631,1.802-1.571,3.161-3.568,4.028c-2.74,1.193-5.561,1.311-8.392,1.668l0.095-0.005
		c-0.407-0.201-0.806-0.242-1.175,0.085l0.103,0.005c-0.515-0.425-1.032-0.826-1.749-0.44l0.103,0.013
		c-0.509-0.44-1.022-0.864-1.75-0.439l0.103,0.017c-3.325-1.985-7.032-3.387-9.679-6.403l0.02,0.093
		c0.215-1.115-0.56-1.89-1.014-2.74c-0.637-1.187-0.75-2.396-0.475-3.659c0.266-1.209,0.608-2.403,0.918-3.604
		c1.154,0.4,1.386,1.665,2.251,2.376c2.779,2.29,5.219,5.078,9.022,5.76l-0.093-0.004c0.97,0.923,2.041,1.45,3.395,0.863
		l-0.104-0.006c1.249,0.791,2.549,0.874,3.896,0.281l-0.103,0.001c0.41,0.241,0.808,0.26,1.177-0.083L114.298,51.768z"/>
	<path fill-rule="evenodd" clip-rule="evenodd" d="M69.66,86.951c-0.759,1.076-1.827,1.109-3.006,0.98
		c-2.225-0.246-4.454-0.695-6.701-0.246c-1.028,0.203-1.644-0.453-2.29-1.01c-1.517-1.303-2.996-2.646-4.489-3.977l0.033,0.1
		c0.047-1.342-1.09-1.871-1.836-2.67l0.037,0.098c0.094-1.299-0.642-2.258-1.321-3.242l0.02,0.1
		c0.235-1.047,0.018-1.972-0.747-2.744l0.012,0.102c0.285-0.412,0.255-0.805-0.081-1.176l0.007,0.104
		c0.243-0.412,0.23-0.807-0.083-1.179l0.002,0.104c0.85-1.625,0.777-3.287,0.207-4.969l0.02,0.074
		c0.217-0.416,0.506-0.809,0.637-1.25c0.56-1.904,0.964-0.373,1.419,0.051L51.5,66.104c-1.346,2.664,0.265,4.303,2.037,5.89
		l-0.018-0.091c0.554,2.176,2.381,3.174,4.096,4.138c2.754,1.55,5.707,2.651,8.877,3.069c0.998,0.131,2,0.283,2.973,0.527
		c2.521,0.631,2.479,0.635,1.302,2.838c-0.58,1.086-1.412,2.121-1.188,3.492l-0.005-0.09c-0.178,0.408-0.236,0.805,0.09,1.174
		L69.66,86.951z"/>
	<path fill-rule="evenodd" clip-rule="evenodd" d="M30.068,38.357c4.346-0.806,6.282-4.137,8.066-7.654
		c0.369-0.73,0.284-2.116,1.33-1.983c0.873,0.11,0.74,1.447,1.049,2.242c1.753,4.501-0.352,7.802-3.467,10.667
		c-1.847,1.7-3.913,3.16-5.88,4.726l0.094-0.013c-0.733-0.213-1.219,0.191-1.671,0.678l0.101-0.028
		c-0.745-0.235-1.211,0.215-1.673,0.678l0.1-0.024c-1.391-0.283-2.696-0.167-3.816,0.82l0.098-0.009
		c-1.245-0.805-2.561-0.656-3.892-0.287l0.093-0.005c-4.111-0.295-5.711-3.465-7.417-6.498c-1.033-1.84,0.589-1.464,1.459-1.707
		l-0.098-0.009c0.984,0.867,2.023,1.522,3.396,0.865l-0.104-0.007c1.897,0.939,3.715,0.767,5.467-0.381l-0.101,0.014
		c0.414,0.287,0.802,0.209,1.176-0.08l-0.101,0.015c1.078,0.354,1.979,0.048,2.745-0.745l-0.1,0.021
		c1.422,0.395,2.394-0.317,3.245-1.323L30.068,38.357z"/>
	<path fill-rule="evenodd" clip-rule="evenodd" d="M106.372,50.099c-2.478-2.093-5.469-3.456-7.842-5.741
		c-2.603-2.504-3.601-5.227-2.421-8.722c0.453-1.337,1.14-2.178,2.599-2.231l-0.028-0.07c3.216,6.398,8.817,9.569,15.414,11.395
		l-0.102-0.018c0.523,0.39,1.032,0.831,1.747,0.439l-0.102-0.012c0.863,0.741,1.806,0.848,2.824,0.358l-0.105,0.001
		c0.412,0.241,0.809,0.243,1.179-0.084l-0.104,0.007c0.414,0.27,0.806,0.244,1.177-0.081l-0.104,0.008
		c0.414,0.284,0.802,0.216,1.175-0.081l-0.1,0.017c0.768,0.34,2.083-0.01,1.405,1.775c-0.902,2.375-2.301,3.627-4.885,3.625
		c-1.222,0-2.44,0.3-3.66,0.462l0.1,0.004c-0.405-0.185-0.803-0.215-1.174,0.083l0.103-0.002c-1.255-0.712-2.555-0.773-3.896-0.279
		l0.104,0.006c-1.045-0.631-2.124-1.122-3.396-0.862L106.372,50.099z"/>
	<path fill-rule="evenodd" clip-rule="evenodd" d="M15.747,30.049c-0.797-0.727-1.842-0.818-2.816-0.985
		c-1.746-0.3-1.949-1.333-1.496-2.757c0.19-0.598,0.492-1.167,0.64-1.774c0.441-1.798,1.438-1.899,3.104-1.484
		c2.105,0.523,4.291,0.43,5.916-1.456l-0.096,0.027c2.92-1.106,3.955-3.237,3.396-6.236l0.017,0.084
		c2.618-1.878,5.106-0.665,7.431,0.535c1.382,0.715,1.518,3.132,0.78,5.231c-0.92,2.622-3.102,4.276-4.734,6.353l0.089-0.017
		c-1.027-0.107-1.559,0.647-2.168,1.26l0.097-0.033c-0.76-0.278-1.244,0.125-1.668,0.678l0.099-0.023
		c-1.406-0.348-2.675-0.057-3.82,0.815l0.103-0.014c-0.411-0.242-0.804-0.214-1.177,0.083l0.103-0.001
		c-1.253-0.727-2.552-0.811-3.896-0.281L15.747,30.049z"/>
	<path fill-rule="evenodd" clip-rule="evenodd" d="M65.146,41.044c-1.742-0.66-3.474-1.356-5.229-1.974
		c-1.939-0.684-2.511-2.225-2.801-4.052c-0.215-1.356,0.851-1.267,1.572-1.604l-0.103-0.006c0.882,0.588,1.8,0.891,2.822,0.354
		l-0.102,0c0.41,0.238,0.806,0.271,1.177-0.084l-0.104,0.002c1.173,0.873,2.281,0.809,3.322-0.231l-0.102,0.023
		c1.079,0.354,1.966,0.009,2.745-0.739l-0.096,0.025c1.07,0.178,1.584-0.6,2.17-1.261l-0.102,0.032
		c2.409-0.445,3.393-2.413,4.25-4.297c0.773-1.692,1.286-3.548,1.613-5.385c0.256-1.423,0.761-1.817,2.19-1.697
		c2.726,0.229,2.724,0.129,1.791,2.644c-0.121,0.326-0.056,0.72-0.079,1.082l0.005-0.092c-0.913,1.167-1.54,2.431-1.37,3.968
		l0.018-0.1c-0.38,0.523-0.745,1.052-0.439,1.749l0.015-0.102c-0.43,0.511-0.854,1.024-0.437,1.748l0.016-0.103
		c-0.422,0.514-0.843,1.028-0.438,1.75l0.015-0.102c-0.465,0.503-0.854,1.023-0.445,1.748l0.008-0.101
		c-0.941,1.347-0.485,2.848-0.467,4.299c0.017,1.179-0.461,1.645-1.569,1.059c-1.494-0.783-2.826-0.578-4.073,0.497l0.093-0.007
		c-0.766-0.287-1.229,0.167-1.671,0.68l0.1-0.019c-0.413-0.308-0.8-0.218-1.174,0.078l0.099-0.014
		c-1.129-0.26-2.229-0.081-3.317,0.229L65.146,41.044z"/>
	<path fill-rule="evenodd" clip-rule="evenodd" d="M18.465,97.715c-1.297-0.998-2.473-2.252-3.918-2.934
		c-2.917-1.369-4.368-4.109-6.403-6.295c-0.675-0.721-1.008-1.727-0.894-2.809c0.253-2.375,0.422-4.762,0.744-7.129
		c0.083-0.617-0.056-1.736,1.002-1.623c0.402,0.041,0.715,0.943,1.068,1.455l-0.011-0.096c-0.051,0.361-0.251,0.787-0.127,1.074
		c2.51,5.836,6.17,10.557,12.457,12.697l-0.092-0.008c1.589,1.582,3.736,2.023,5.721,2.803c0.32,0.125,0.74,0.314,0.846,0.58
		c0.167,0.416-0.278,0.6-0.605,0.799c-2.356,1.43-4.7,2.895-7.66,2.402l0.091,0.008c-0.68-0.549-1.28-1.293-2.323-0.945
		L18.465,97.715z"/>
	<path fill-rule="evenodd" clip-rule="evenodd" d="M105.33,26.58c0.028-1.737,1.192-1.962,2.576-1.985
		c4.166-0.066,8.033,1.016,11.566,3.167c1.608,0.979,3.397,1.707,4.675,3.208c1.142,1.346,1.512,2.618,0.041,3.952l0.091-0.016
		c-0.725-0.185-1.211,0.213-1.672,0.677l0.101-0.024c-1.841-0.149-3.668-0.079-5.466,0.383l0.102,0.006
		c-5.098-1.774-9.538-4.387-12.035-9.466L105.33,26.58z"/>
	<path fill-rule="evenodd" clip-rule="evenodd" d="M80.965,23.845c0.251-0.282,0.511-0.56,0.754-0.851
		c2.169-2.581,3.655-2.522,5.434,0.21c2.822,4.342,0.129,13.849-4.56,16.008c-0.68,0.312-1.438,0.472-2.177,0.624
		c-1.226,0.253-1.85-0.263-2.071-1.529c-0.237-1.364,0.23-2.792-0.436-4.099l-0.005,0.101c0.51-0.489,0.729-1.052,0.442-1.746
		l-0.015,0.1c0.354-0.531,0.734-1.056,0.438-1.75l-0.016,0.103c0.395-0.522,0.867-1.021,0.437-1.746l-0.016,0.101
		c0.399-0.521,0.827-1.033,0.44-1.751L79.6,27.722c1.035-1.123,1.542-2.427,1.368-3.968L80.965,23.845z"/>
	<path fill-rule="evenodd" clip-rule="evenodd" d="M90.319,56.259c0.064-0.478,0.27-0.989,0.166-1.429
		c-0.429-1.84,0.62-2.847,2.074-3.352c1.382-0.482,1.351,1.485,2.399,1.76l-0.02-0.091c2.082,3.865,5.492,5.724,9.68,6.402
		l-0.102-0.017c0.512,0.432,1.042,0.784,1.746,0.44l-0.101-0.014c0.521,0.392,1.055,0.735,1.749,0.44l-0.103-0.005
		c0.411,0.205,0.807,0.262,1.174-0.086l-0.093,0.005c1.973,1.349,2.067,1.451,0.674,2.77c-1.916,1.812-3.958,3.509-6.646,4.11
		l0.076,0.018c-0.702-0.498-1.305-1.234-2.323-0.946l0.1,0.025c-3.133-3.013-7.332-4.801-9.82-8.553l0.032,0.098
		c0.229-0.74-0.22-1.207-0.677-1.672L90.319,56.259z"/>
	<path fill-rule="evenodd" clip-rule="evenodd" d="M79.626,88.379c1.624-1.896,3.195-3.846,4.885-5.68
		c1.825-1.98,4.219-3.068,6.735-3.896c0.448-0.146,1.007-0.375,1.36,0.064c0.347,0.43,0.062,0.967-0.112,1.424
		c-0.299,0.785-1.168,1.365-0.836,2.373V82.57c-1.01,1.133-1.735,2.361-1.365,3.969l0.018-0.102
		c-0.904,0.975-1.519,2.021-0.862,3.396l0.006-0.104c-0.738,1.164-0.795,2.279,0.231,3.32l-0.025-0.1
		c-0.287,0.764,0.237,1.203,0.678,1.672l-0.025-0.076c-1.157,1.088-2.691,1.23-4.118,1.604c-1.004,0.26-2.146,0.26-2.769-0.605
		c-1.6-2.232-4.113-4.023-3.792-7.262L79.626,88.379z"/>
	<path fill-rule="evenodd" clip-rule="evenodd" d="M4.664,99.918c-0.562-1.434-0.675-2.791,0.068-4.271
		c0.666-1.326,1.011-2.812,1.487-4.234c0.51-1.525,1.009-1.721,1.876-0.428c2.176,3.25,5.513,5.031,8.579,7.174
		c0.429,0.299,0.898,0.408,1.414,0.268l-0.102-0.02c0.693,0.512,1.292,1.258,2.323,0.945l-0.091-0.008
		c0.291,0.492,1.023,0.969,0.265,1.57c-1.671,1.32-3.38,2.588-5.083,3.863c-1.311,0.984-2.65-0.465-3.971,0.031l0.093,0.002
		c-2.312-1.635-4.888-2.902-6.881-4.975L4.664,99.918z"/>
	<path fill-rule="evenodd" clip-rule="evenodd" d="M101.003,81.475c0.48-0.582,0.952-1.172,1.44-1.748
		c1.992-2.35,3.235-2.4,5.526-0.24c2.182,2.061,3.252,8.73,1.798,11.326c-0.178,0.316-0.415,0.715-0.719,0.83
		c-2.18,0.803-4.471,0.59-6.719,0.545c-1.499-0.031-1.819-1.549-2.459-2.6c-0.128-0.207-0.333-0.373-0.502-0.559l0.016,0.102
		c0.753-1.248,0.782-2.551,0.284-3.893l-0.012,0.102c0.896-1.172,1.572-2.416,1.367-3.967L101.003,81.475z"/>
	<path fill-rule="evenodd" clip-rule="evenodd" d="M98.675,89.021c-0.529,1.238,1.153,2.369,0.406,3.387
		c-0.738,1.012-2.264,0.822-3.442,1.135c-1.527,0.406-2.991,1.246-4.666,0.891l0.024,0.076c0.191-0.727-0.216-1.211-0.676-1.674
		l0.023,0.1c0.265-1.131,0.177-2.234-0.231-3.32l-0.005,0.104c0.606-1.053,1.01-2.152,0.863-3.395l-0.018,0.1
		c0.974-1.145,1.607-2.406,1.365-3.971l-0.003,0.098c0.661-0.918,1.362-1.809,1.974-2.758c1.529-2.371,4.459-3.465,7.126-2.631
		c0.921,0.287,0.747,0.793,0.344,1.389c-0.615,0.904-1.685,1.588-1.449,2.914l0.02-0.104c-1.069,1.111-1.6,2.41-1.367,3.971
		l0.012-0.102c-0.741,1.25-0.826,2.547-0.283,3.891L98.675,89.021z"/>
	<path fill-rule="evenodd" clip-rule="evenodd" d="M46.814,84.268c-0.051,1.373,1.036,2.213,1.547,3.324
		c0.14,0.301,0.214,0.633,0.32,0.951c-0.363,0.049-0.765,0.223-1.083,0.127c-4.49-1.361-8.915-2.842-11.25-7.457l0.021,0.1
		c0.388-0.777,0.193-1.516-0.153-2.244l0.002,0.098c0.143-0.402,0.187-0.799-0.084-1.176l-0.005,0.104
		c2.229-5.388,2.648-5.764,9.147-8.188l-0.002-0.097c-0.748,1.253-0.874,2.548-0.28,3.897l0.004-0.102
		c-0.843,2.607-0.907,5.16,0.526,7.609l-0.023-0.098c-0.218,0.738,0.171,1.23,0.679,1.672l-0.028-0.098
		c-0.307,0.771,0.163,1.229,0.676,1.67L46.814,84.268z"/>
	<path fill-rule="evenodd" clip-rule="evenodd" d="M25.197,66.582c0.284-0.619,0.081-1.232-0.107-1.805
		c-0.351-1.067-0.15-2.022,0.664-2.71c0.978-0.828,1.462,0.45,2.203,0.681c2.061,0.641,3.844,2.417,6.276,1.532l-0.099,0
		c0.581,0.608,1.352,0.621,2.095,0.596c1.686-0.053,2.484,0.314,1.079,1.957c-0.141,0.164-0.249,0.594-0.158,0.686
		c2.452,2.461-0.1,3.742-1.14,5.506c-0.708,1.201-1.688,2.566-0.924,4.191l0.004-0.104c-0.228,0.41-0.234,0.805,0.084,1.176
		l-0.002-0.098c-0.331,0.398-0.662,0.797-0.993,1.195h-0.022c-1.096-1.166,0.222-3.102-1.336-4.135
		c-3.349-2.223-5.422-5.564-7.648-8.77L25.197,66.582z"/>
	<path fill-rule="evenodd" clip-rule="evenodd" d="M58.24,21.42c-0.61-0.437-1.189-0.927-1.833-1.31
		c-2.533-1.498-2.778-3.179-0.499-5.108c3-2.54,6.511-3.221,10.25-2.03c1.574,0.5,3.599,0.601,4.048,2.819l0.009-0.101
		c-1.668,2.348-3.48,4.546-6.128,5.873l0.102-0.022c-1.475-0.049-2.954-0.149-4.394,0.309l0.103,0.01
		c-0.518-0.413-1.052-0.758-1.751-0.439L58.24,21.42z"/>
	<path fill-rule="evenodd" clip-rule="evenodd" d="M93.322,69.473c0.418,0.448,1.16,0.881,1.186,1.354
		c0.048,0.864-0.875,0.633-1.409,0.641c-4.119,0.055-8.291,0.413-12.105-1.71l0.016,0.091c0.249-1.384,0.137-2.691-0.817-3.818
		l0.014,0.104c0.275-0.414,0.227-0.805-0.081-1.178l0.007,0.103c0.258-0.41,0.206-0.8-0.081-1.176l0.008,0.104
		c0.21-0.41,0.257-0.808-0.086-1.178v0.104c0.763-0.859,0.812-1.81,0.358-2.823l-0.013,0.103c0.609-0.654,1.25-1.295,0.949-2.322
		l-0.016,0.083c0.728-0.198,1.463-0.376,2.185-0.599c1.253-0.384,1.875,0.004,1.982,1.369c0.169,2.142,0.372,4.306,2.231,5.816
		l-0.031-0.101c1.095,2.65,3.093,4.266,5.81,5.056L93.322,69.473z"/>
	<path fill-rule="evenodd" clip-rule="evenodd" d="M51.637,65.633c0.536-0.573,0.551-1.31,0.632-2.023
		c0.09-0.784,0.342-1.408,1.297-1.368l-0.028-0.071c-0.198,1.081,0.649,1.557,1.257,2.17l-0.039-0.097
		c2.71,4.625,6.788,7.302,11.974,8.395h-0.096c0.937,0.954,2.222,1.074,3.406,1.465c1.4,0.459,1.464,1.039,0.291,2.041
		c-1.393,1.188-2.825,1.822-4.803,1.273c-4.396-1.221-8.609-2.697-11.875-6.084l0.016,0.092c-0.537-2.013-1.869-3.75-2.035-5.89
		L51.637,65.633z"/>
	<path fill-rule="evenodd" clip-rule="evenodd" d="M8.441,113.27c-1.847-0.721-3.695-1.443-5.544-2.158
		c-1.608-0.625-2.218-1.781-2.179-3.502c0.051-2.303,0.683-4.416,1.649-6.463c0.441-0.936,1.162-0.732,1.898-0.5l-0.025-0.08
		c1.262,3.084,3.74,4.49,6.883,4.973h-0.094c0.706,1.031,2.937,0.727,2.18,3.148c-0.631,2.021-0.855,3.955-3.401,4.307
		c-0.491,0.066-0.976,0.18-1.465,0.273L8.441,113.27z"/>
	<path fill-rule="evenodd" clip-rule="evenodd" d="M70.261,41.126c0.202,0.183,0.402,0.364,0.604,0.546l-0.006-0.077
		c-0.545,0.816-1.491,1.551-1.071,2.661c0.414,1.09,0.878,2.089,0.097,3.187c-0.73,1.024-1.887,1.155-2.961,1.492
		c-0.34,0.108-0.625,0.393-0.935,0.595l0.098-0.016c-0.41-0.255-0.802-0.227-1.176,0.081l0.104-0.008
		c-0.412-0.264-0.807-0.244-1.177,0.083l0.103-0.002c-1.254-0.72-2.554-0.798-3.897-0.278l0.104,0.01
		c-0.41-0.286-0.786-0.724-1.238-0.833c-2.382-0.566-2.783-2.221-2.537-4.313c0.146-1.248-0.083-2.867,0.83-3.575
		c1.049-0.812,2.179,0.65,3.329,0.936c1.297,0.323,2.53,1.238,3.958,0.463l-0.1-0.005c1.173,0.888,2.274,0.72,3.321-0.229
		l-0.102,0.015c0.412,0.288,0.802,0.201,1.175-0.077l-0.1,0.018c0.727,0.189,1.229-0.172,1.671-0.68L70.261,41.126z"/>
	<path fill-rule="evenodd" clip-rule="evenodd" d="M58.509,56.539c-2.622-1.415-2.165-3.895-2.116-6.213
		c0.018-0.87,0.62-0.868,1.311-0.736c0.833,0.156,1.606,0.738,2.515,0.375l-0.104-0.011c1.25,0.771,2.553,0.81,3.896,0.28l-0.103,0
		c0.409,0.25,0.804,0.243,1.176-0.082L64.98,50.16c0.412,0.259,0.802,0.17,1.177-0.081l-0.098,0.016
		c1.448,0.395,2.703-0.053,3.896-0.853c0.513-0.343,1.079-0.844,1.625-0.852c0.967-0.008,2.187,0.008,2.646,1.039
		c0.326,0.727-0.486,1.343-0.992,1.889c-0.682,0.74-1.389,1.455-2.083,2.181l0.092-0.017c-1.039-0.127-1.566,0.634-2.169,1.258
		l0.1-0.032c-2.062,0.402-4.04,1.044-5.892,2.045l0.103-0.013c-0.415-0.277-0.805-0.229-1.176,0.081l0.104-0.007
		c-0.412-0.226-0.807-0.236-1.178,0.083l0.103-0.002c-0.866-0.704-1.808-0.816-2.821-0.357L58.509,56.539z"/>
	<path fill-rule="evenodd" clip-rule="evenodd" d="M88.201,64.329c-0.409-1.554-0.886-3.095-1.202-4.667
		c-0.169-0.846-0.145-1.753-0.058-2.615c0.09-0.909,0.554-1.862,1.493-1.887c0.446-0.012,0.919,0.97,1.381,1.501l-0.012-0.095
		c-0.33,0.781,0.201,1.216,0.675,1.672l-0.03-0.098c1.495,4.887,5.757,6.607,9.818,8.552l-0.099-0.025
		c0.704,0.486,1.256,1.346,2.321,0.943l-0.077-0.016c-1.302,2.133-2.881,2.799-5.37,2.443c-1.091-0.158-1.989-1.034-3.17-0.775
		l0.104,0.021c-1.937-1.685-3.871-3.369-5.806-5.053L88.201,64.329z"/>
	<path fill-rule="evenodd" clip-rule="evenodd" d="M43.028,54.737c0.315,0.358,0.869,0.546,0.862,1.137
		c-0.052,3.749-3.156,6.994-6.894,7.243c-0.854,0.058-1.702,0.2-2.552,0.3l0.099-0.001c-1.524-0.563-3.049-1.126-4.573-1.694
		c-0.952-0.354-1.835-0.821-2.538-1.58c-0.561-0.606-0.744-1.368-0.55-2.103c0.293-1.112,1.232-0.364,1.875-0.5
		c0.356-0.077,0.71-0.168,1.065-0.255l-0.101-0.006c0.853,0.792,1.812,0.774,2.821,0.361l-0.103,0.001
		c0.409,0.216,0.802,0.187,1.177-0.083l-0.104,0.007c0.408,0.215,0.801,0.209,1.174-0.084l-0.1,0.007
		c0.409,0.239,0.8,0.209,1.174-0.079l-0.101,0.013c1.095,0.414,1.993,0.101,2.745-0.747l-0.099,0.021
		c1.107,0.471,1.949-0.051,2.745-0.74l-0.099,0.029c1.086,0.206,1.585-0.6,2.168-1.259L43.028,54.737z"/>
	<path fill-rule="evenodd" clip-rule="evenodd" d="M45.778,69.852c0.936-0.919,1.334-2.529,3.089-2.391l-0.021-0.074
		c-0.887,1.621-0.691,3.29-0.206,4.969l-0.003-0.104c-0.188,0.407-0.159,0.8,0.083,1.178l-0.008-0.105
		c-0.229,0.412-0.194,0.803,0.081,1.178L48.781,74.4c-0.306,1.066-0.146,2.006,0.748,2.744l-0.022-0.1
		c-0.42,1.432,0.135,2.467,1.322,3.244l-0.038-0.098c-0.095,1.375,1.06,1.893,1.837,2.668l-0.034-0.098
		c0.246,2.127,2.218,2.855,3.418,4.209c0.571,0.641,0.966,1.156-0.312,1.516c-3.516,0.99-4.242,0.76-6.644-2.322
		c-0.535-0.688-1.157-1.303-1.74-1.951l0.013,0.092c0.31-0.77-0.189-1.217-0.675-1.67l0.03,0.1c0.215-0.738-0.155-1.236-0.681-1.672
		l0.022,0.098c0.146-2.559-0.027-5.098-0.525-7.611l-0.005,0.104c0.8-1.249,0.789-2.555,0.281-3.898L45.778,69.852z"/>
	<path fill-rule="evenodd" clip-rule="evenodd" d="M71.065,86.484c0.491-0.723,1.149-1.387,1.448-2.182
		c1.053-2.824,3.095-3.793,5.943-3.449c0.249,0.031,0.521-0.039,0.75,0.037c1.259,0.426,3.109-0.643,3.723,0.652
		c0.393,0.824-1.658,1.266-2.217,2.27c-0.772,1.393-2.071,2.547-2.001,4.33l0.007-0.098c-0.607,1.836-1.746,2.525-3.611,1.697
		c-1.4-0.619-3.31-0.35-3.963-2.275l0.003,0.102c0.221-0.41,0.274-0.809-0.087-1.174L71.065,86.484z"/>
	<path fill-rule="evenodd" clip-rule="evenodd" d="M20.854,21.242c-1.853,0.08-3.587,1.062-5.498,0.694
		c-1.029-0.199-1.913-0.84-1.055-1.741c2.669-2.803,5.385-5.723,9.87-5.079l-0.015-0.083c-0.873,2.222-1.408,4.625-3.396,6.235
		L20.854,21.242z"/>
	<path fill-rule="evenodd" clip-rule="evenodd" d="M9.482,114.752c-2.393,1.807-4.433,0.307-6.5-0.732
		c-0.264-0.133-0.368-0.588-0.547-0.895c0.344-0.08,0.721-0.293,1.024-0.217c0.715,0.182,1.381,0.555,2.092,0.752
		c0.935,0.256,1.885,0.721,2.866,0.127l-0.098-0.002c0.389,0.348,0.778,0.693,1.168,1.037L9.482,114.752z"/>
	<polygon fill-rule="evenodd" clip-rule="evenodd" points="37.89,88.916 38.175,88.842 37.884,88.84 	"/>
	<path fill-rule="evenodd" clip-rule="evenodd" d="M9.813,114.883c0.097-0.043,0.194-0.084,0.292-0.129
		c-0.1,0.02-0.199,0.039-0.297,0.057L9.813,114.883z"/>
	<path fill-rule="evenodd" clip-rule="evenodd" d="M71.518,41.452c0.083-0.027,0.164-0.054,0.249-0.083
		c-0.085,0.003-0.169,0.003-0.254,0.004L71.518,41.452z"/>
	<path fill-rule="evenodd" clip-rule="evenodd" d="M40.22,72.225c-0.774,0-1.591,0.061-2.352-0.025
		c-0.302-0.549-0.136-1.295-0.183-1.912c-2.062,0.953-3.703,2.053-3.793,4.505c-0.055,1.483,0.104,3.198,0.34,4.669
		c0.426,2.66,3.63,4.848,6.128,5.348"/>
</g>
</svg>
