<?xml version="1.0" encoding="utf-8"?>
<!-- Generator: Adobe Illustrator 16.0.4, SVG Export Plug-In . SVG Version: 6.00 Build 0)  -->
<!DOCTYPE svg PUBLIC "-//W3C//DTD SVG 1.1//EN" "http://www.w3.org/Graphics/SVG/1.1/DTD/svg11.dtd">
<svg version="1.1" id="Layer_0910" xmlns="http://www.w3.org/2000/svg" xmlns:xlink="http://www.w3.org/1999/xlink" x="0px" y="0px"
	 width="128px" height="128px" viewBox="0 0 128 128" enable-background="new 0 0 128 128" xml:space="preserve">
<g>
	<path fill="#020202" d="M127.585,37.068c-0.106-1.382-0.453-2.667-1.008-3.874c-0.087-0.24-0.172-0.481-0.267-0.715
		c-4.031-9.932-18.611-13.985-26.874-6.78c-4.01,3.497-6.2,8.28-8.053,13.168c-2.342,6.183-3.468,13.58-9.125,17.384
		c-0.584-1.847-1.859-3.407-3.159-4.958c-1.559-1.858-3.255-3.567-4.055-5.912c-0.871-2.554,1.854-2.482,4.062-2.503
		c0.69,0.285,1.388,0.533,2.13,0.536c2.177,0.011,3.688-2.936,4.64-4.511c2.204-3.648,5.63-9.466,3.421-13.897
		c-0.403-0.809-0.807-1.476-1.213-2.045c-0.158-0.454-0.334-0.902-0.536-1.343c-1.15-2.506-3.987-2.927-6.337-2.603
		c-1.228,0.169-3.024-1.271-4.426-1.308c-1.631-0.042-3.03-1.117-4.077-2.273c-3.849-4.246-12.466-5.801-17.318-2.324
		c-0.326,0.142-0.638,0.293-0.917,0.466c-3.145,1.953-2.277,9.433-1.858,12.574c0.555,4.168-0.232,10.226,1.581,13.923
		c0.736,1.501,0.926,5.186,0.757,8.668c-0.012,0.084-0.016,0.167-0.011,0.251c-0.117,2.173-0.374,4.229-0.723,5.614
		c-0.009,0.017-0.02,0.027-0.028,0.044c-2.926,5.942-6.976,11.354-13.042,14.274c2.157-4.598,4.186-9.297,5.976-14.029
		c0.111-0.293,0.21-0.582,0.309-0.87c0.122-0.357,0.234-0.71,0.336-1.06c0.192-0.659,0.347-1.305,0.47-1.941
		c0.707-2.241,1.368-4.583,1.012-6.871c-0.419-2.701-2.106-4.639-3.508-6.829c-4.131-9.669-5.218-23.168-17.743-25.025
		c-0.364-0.054-0.685,0.014-0.957,0.155c-0.763-0.061-1.534-0.079-2.299-0.037c-1.076,0.06-2.136,0.204-3.124,0.392
		c-3.017,0.578-5.504,2.07-7.465,4.081c-2.814,2.297-4.386,5.706-5.106,9.354c-0.073,0.182-0.111,0.374-0.108,0.563
		c-0.538,3.121-0.471,6.382-0.021,9.254c0.409,2.602,1.601,4.965,3.08,7.146c0.482,1.083,1.003,2.115,1.563,3.051
		c0.08,0.134,0.177,0.264,0.267,0.396c0.423,0.208,0.775,0.433,1.228,0.815c-0.453-0.382-0.805-0.492-1.228-0.7
		c1.467,2.155,4.141,4.187,6.403,6.159c0.301,0,0.592,0.427,0.874,0.703c0.053,0.012,0.106,0.032,0.159,0.046
		c0.249,0.248,0.489,0.5,0.715,0.755c0.985,1.759,0.406,3.209-1.584,5.052c-2.728,2.526-6.286,4.26-8.631,7.191
		c-3.334,4.168-5.554,9.144-6.271,14.431c-0.042,0.316-0.07,0.634-0.089,0.949c-0.188,0.298-0.275,0.668-0.185,1.099
		c0.05,0.237,0.119,0.464,0.176,0.696c0.055,1.269,0.213,2.534,0.337,3.805c0.419,4.262-1.769,6.935-3.855,10.251
		c-2.725,4.332-2.51,9.829-1.888,14.689c0.001,0.011,0.006,0.019,0.008,0.03c0.058,2.247,0.412,4.84,2.355,6.016
		c2.508,1.519,5.17,1.276,7.474-0.617c2.78-2.283,4.688-5.307,6.699-8.248c3.465-5.069,8.981-9.817,13.884-13.446
		c3.385-2.505,6.891-7.776,11.286-6.995c5.226,0.929,10.499,2.041,15.833,2.023c2.244-0.007,4.493-0.672,6.654-1.185
		c4.509-1.069,7.271,0.937,10.422,3.895c2.34,2.197,4.363,3.702,7.634,3.982c5.2,0.446,10.332-2.285,15.621-1.924
		c4.207,0.288,7.089-0.167,10.301-3.088c5.004-4.553,4.566-13.943-1.424-17.355c-5.669-3.229-14.049,1.645-19.506,3.193
		c-4.045,1.147-8.657-1.265-12.476,0.79c-0.428,0.23-0.823,0.47-1.198,0.717c-0.112-0.238-0.296-0.455-0.579-0.625
		c-1.812-1.084,0.747-4.338,1.433-5.215c1.001-1.282,2.159-1.818,3.534-2.082c2.234-0.304,4.726,0.242,6.988,0.549
		c5.657,0.77,11.71,0.54,16.622-2.938c2.69-1.909,5.305-3.99,7.947-6.025c0.229-0.152,0.457-0.306,0.685-0.452
		c5.81-3.75,11.634-6.801,15.232-12.982C127.722,46.668,128.343,41.668,127.585,37.068z M56.516,16.007
		c2.356-2.309,8.915-2.233,11.505-0.377c0.356,0.255,0.698,0.561,1.036,0.883c-3.03,5.978-9.406,5.213-14.507,2.137
		c-0.042-0.674,0.296-1.413,1.189-2.234C56.006,16.371,56.273,16.246,56.516,16.007z M101.361,65.909
		c-0.159-0.2-0.374-0.371-0.661-0.479c-2.724-1.027-5.098-2.401-7.098-4.54c-2.101-2.246-2.414-5.049-2.896-7.889
		c0.045-0.045,0.078-0.095,0.13-0.138c2.346-1.931,1.908,0.609,3.628,1.061c0.278,0.223,0.538,0.449,0.793,0.674
		c0.616,0.68,1.282,1.306,1.989,1.892c1.454,1.406,2.896,2.648,5.278,3.329c1.555,0.757,3.207,1.421,4.923,2.031
		C105.394,63.178,103.413,64.593,101.361,65.909z M81.833,69.322c-1.679-3.015-1.03-6.448,0.31-9.481
		c0.02-0.041,0.027-0.082,0.041-0.123c0.847-0.407,1.631-0.872,2.348-1.396c-0.325,4.358,0.615,8.805,3.931,11.411
		c-0.934-0.021-1.877-0.071-2.847-0.154C84.323,69.47,83.06,69.362,81.833,69.322z M93.286,69.4
		c-0.139-0.386-0.435-0.723-0.933-0.883c-0.175-0.058-0.333-0.131-0.498-0.198c-1.085-0.949-2.183-1.898-3.186-2.735
		c-1.508-2.547-1.502-6.09-0.954-9.055c0.029-0.157,0.028-0.303,0.016-0.444c0.188,0.007,0.411,0.091,0.678,0.279
		c0.557,2.356,1.335,4.478,3.102,6.62c1.781,2.158,4.301,3.591,6.868,4.682C96.691,68.548,95.002,69.095,93.286,69.4z
		 M123.281,43.931c-9.923,1.556-19.132-4.522-24.29-12.683c0.146-0.514,0.334-1.016,0.559-1.508c0.709-0.792,1.479-1.474,2.3-2.055
		c0.374-0.07,0.769-0.078,1.176-0.035c1.486,7.172,8.179,10.417,14.936,10.16c0.812,0.13,1.624,0.049,2.406-0.239
		c1.37-0.222,2.716-0.591,3.995-1.099c0.154,0.737,0.263,1.487,0.331,2.245c-0.023,0.272-0.053,0.549-0.098,0.834
		c-0.061,0.387,0.02,0.724,0.179,1.005c0,0.729-0.025,1.459-0.099,2.182C124.256,43.158,123.785,43.552,123.281,43.931z
		 M123.509,33.637c-7.129,2.785-16.601,1.017-17.794-7.727c-0.003-0.02-0.01-0.035-0.013-0.054c0.093-0.051,0.191-0.097,0.293-0.138
		c0.145-0.04,0.289-0.083,0.436-0.118c5.372,1.072,13.32,2.524,16.694,7.143C123.265,33.034,123.388,33.335,123.509,33.637z
		 M51.222,87.868c-0.31-0.188-0.593-0.374-0.852-0.55c-0.024-0.042-0.041-0.085-0.069-0.127c-3.687-5.395-5.36-12.029-3.091-18.302
		c0.284-0.312,0.599-0.57,1.037-0.767c-0.6,7.472,0.623,15.661,7.092,19.927 M52.168,65.106c0.154-0.789,0.183-1.7,0.708-2.099
		c3.65,6.208,10.524,10.762,17.515,12.31c-0.195,0.39-0.367,0.79-0.511,1.194c-0.174-0.086-0.374-0.145-0.604-0.157
		c-6.66-0.408-14.459-4.104-16.819-10.749C52.388,65.407,52.287,65.244,52.168,65.106z M56.429,51.053
		c0.006-0.292,0.147-0.477,0.365-0.593c4.023,1.514,8.079,1.567,11.766-0.072c0.844-0.319,1.588-0.673,2.033-0.948
		c0.962-0.594,4.039-0.142,3.442,1.361c-3.748,4.898-11.466,4.97-17.196,4.216c-0.073-0.225-0.199-0.427-0.359-0.596
		C56.284,53.358,56.405,52.186,56.429,51.053z M56.409,45.064c0.227-1.943,0.624-2.857,1.167-3.199
		c3.586,2.55,7.826,2.805,12.142,2.169c-0.077,0.324-0.117,0.663-0.079,1.033c0.132,0.348,0.265,0.685,0.364,1.02
		c-3.754,3.018-8.381,3.328-12.8,1.375c-0.191-0.085-0.38-0.123-0.562-0.133C56.389,46.771,56.292,46.058,56.409,45.064z
		 M78.367,39.291c0.061-6.044,2.494-11.098,4.795-16.644c0.474-0.215,0.919-0.27,1.333-0.192c1.904,1.712,1.58,6.33,1.128,8.179
		c-1.187,4.854-3.091,7.852-7.181,8.891C78.413,39.451,78.393,39.37,78.367,39.291z M36.555,87.369
		c-0.391,0.215-0.778,0.479-1.163,0.775c-2.898-1.508-8.712-4.839-10.559-7.282c-3.923-5.188-4.972-13.153-4.555-15.405
		c0.747-0.847,1.583-1.427,2.39-1.25c0.88,2.714,1.728,5.823,3.875,7.715c1.955,1.722,3.523,2.542,3.801,5.442
		c0.15,1.564,0.569,2.737,1.272,4.134c0.717,1.427,1.695,2.652,2.842,3.694C34.996,86.013,35.797,86.672,36.555,87.369z
		 M35.534,21.735c0.146-0.366,0.285-0.732,0.414-1.101c0.562,0.842,1.045,1.756,1.483,2.709c-0.001,0.002-0.001,0.003-0.002,0.005
		c-1.816,4.294-4.494,7.845-7.933,10.984c-5.289,4.83-11.285,5.324-17.388,2.039c-0.245-0.878-0.441-1.774-0.533-2.703
		c-0.023-0.229-0.039-0.467-0.055-0.705c0.103-0.343,0.248-0.688,0.455-1.035c0.08-0.133,0.192-0.229,0.315-0.311
		c2.271,0.792,4.462,1.266,6.568,1.341c0.161,0.019,0.312,0.046,0.491,0.046c0.223,0,0.46,0.012,0.71-0.032
		c0.031-0.005,0.054-0.011,0.084-0.017c0.333-0.015,0.664-0.042,0.992-0.079c0.104,0.035,0.209,0.22,0.313,0.222
		c0.164,0.004,0.327,0.401,0.488,0.401h0.243c0.779,0,1.667-0.384,2.678-0.77c0.224-0.086,0.451-0.477,0.677-0.55
		c0.522-0.169,1.113-0.398,1.711-0.716c0.153-0.082,0.313-0.178,0.474-0.256c0.478-0.233,1.019-0.506,1.553-0.9
		c0.161-0.119,0.309-0.246,0.453-0.367c0.141-0.118,0.251-0.213,0.332-0.259c0.784-0.44,1.089-0.908,1.335-1.348
		c0.014-0.025,0.029-0.052,0.046-0.082l0.005-0.003c0.153-0.109,0.385-0.273,0.623-0.525c0.398-0.42,0.601-0.859,0.735-1.15
		c0.028-0.062,0.053-0.125,0.05-0.131l0.087-0.087c0.092-0.092,0.186-0.186,0.278-0.291c0.44-0.499,0.619-0.949,0.75-1.278
		l0.074-0.182c0.036-0.084,0.146-0.229,0.263-0.382c0.259-0.341,0.614-0.807,0.841-1.471C35.264,22.41,35.399,22.073,35.534,21.735z
		 M24.204,52.189c0.286,0.042,0.707,0.083,1.19-0.043c0.494-0.128,0.898-0.357,1.192-0.524c0.092-0.052,0.182-0.108,0.273-0.147
		c0.166-0.072,0.336-0.14,0.509-0.209c0.553-0.222,1.18-0.473,1.793-0.864c0.816-0.52,1.593-0.988,2.376-1.432
		c0.054-0.031,0.112-0.052,0.167-0.078c0.218-0.096,0.516-0.228,0.83-0.457c0.081-0.059,0.157-0.123,0.228-0.193
		c0.058-0.058,0.114-0.118,0.167-0.18c0.042-0.017,0.087-0.037,0.134-0.059c0.714-0.33,1.305-0.79,1.831-1.251
		c0.001-0.001,0.002-0.002,0.004-0.002c0.001-0.001,0.003-0.002,0.004-0.004c1.609-0.973,2.974-2.317,4.261-3.733
		c0.145-0.153,0.288-0.307,0.434-0.448c0.322-0.314,0.568-0.626,0.833-0.97c0.094-0.107,0.189-0.215,0.285-0.322
		c0.004-0.005,0.01-0.016,0.015-0.022c0.055-0.053,0.109-0.104,0.163-0.155c0.207-0.197,0.411-0.397,0.614-0.636
		c0.282-0.331,0.444-0.651,0.552-0.862c0.026-0.051,0.05-0.104,0.082-0.154c0.039-0.056,0.186-0.197,0.293-0.299
		c0.066-0.062,0.142-0.14,0.214-0.212c0.187,0.061,0.376,0.241,0.562,0.599c0.219,0.421,0.506,0.819,0.814,1.208
		c0.729,1.574,1.352,3.18,1.678,4.93c-1.779,8.22-13.32,10.749-20.394,8.795c-0.278-0.761-0.71-1.504-1.241-2.23
		C24.114,52.221,24.163,52.205,24.204,52.189z M23.812,23.179c2.396-1.811,3.78-4.634,5.009-7.329
		c1.034,0.084,2.058,0.358,2.874,0.851c-0.093,0.188-0.15,0.409-0.149,0.667c0.027,9.567-12.499,11.049-19.405,8.394
		c0.209-0.314,0.497-0.66,0.845-1.028C16.914,25.113,20.389,25.767,23.812,23.179z M10.357,78.269
		c0.094,0.256,0.178,0.514,0.278,0.767c-0.011,0.173-0.022,0.39-0.034,0.651c1.02,2.371,2.232,4.34,3.65,6.029
		c3.132,4.359,7.449,7.688,12.893,8.821c0.173,0.091,0.338,0.181,0.498,0.269c-1.113,0.957-2.221,1.919-3.32,2.895
		c-0.083-0.035-0.168-0.067-0.265-0.089c-7.479-1.71-13.753-6.795-15.738-14.283c-0.037-1.647,0.184-3.303,0.616-4.925
		C9.311,77.834,9.787,77.702,10.357,78.269z M72.021,88.188c0.434-5.175,4.233-6.062,8.277-6.069
		c-1.742,2.194-2.985,5.014-3.356,7.829c-0.769,0.278-1.709,0.228-2.629-0.03C73.588,89.297,72.838,88.709,72.021,88.188z
		 M108.339,82.328c1.416,3.933-0.932,8.051-4.268,10.072c-0.77-0.009-1.562-0.046-2.338-0.062c-0.017-0.001-0.028-0.009-0.045-0.01
		c-1.312-4.933-0.857-9.276,2.122-13.704c0.495-0.18,1.019-0.206,1.589-0.028C106.637,79.274,107.659,80.446,108.339,82.328z
		 M98.063,86.296c-0.334,1.019-0.285,2.128,0.056,2.896c0.002,0.014,0.003,0.027,0.004,0.041c-1.104,2.606,1.079,3.027-1.181,3.888
		c-0.166-0.017-0.334-0.034-0.492-0.045c-1.709-0.117-3.546,0.313-5.229,0.583c-0.059,0.009-0.116,0.021-0.175,0.031
		c-0.396-4.593,1.439-9.214,3.67-13.137c0.229-0.401,0.249-0.79,0.141-1.129c1.937-0.683,3.985-1.319,5.912-1.528
		C99.098,80.617,98.233,83.408,98.063,86.296z M109.366,59.395c-7.354-2.481-13.543-5.658-15.483-13.75
		c0.158-0.618,0.319-1.235,0.481-1.853c1.99,1.983,4.062,3.807,6.359,5.375c0.626,0.463,1.277,0.882,1.961,1.243
		c0.682,0.397,1.38,0.779,2.107,1.129c4.347,2.089,8.412,1.452,12.731,1.56c0.79,0.047,1.559,0.105,2.183,0.235
		c-2.697,2.699-6.156,4.764-9.482,6.791C110.065,59.806,109.79,59.537,109.366,59.395z M54.3,21.971
		c0.027-0.016,0.056-0.022,0.084-0.035c2,1.017,4.136,1.688,6.231,1.906c0.902,0.349,1.799,0.339,2.573,0.023
		c3.229-0.29,6.153-1.869,8.065-5.193c0.669,0.595,1.378,1.094,2.18,1.338c0.324,0.099,0.641,0.181,0.961,0.268
		c0.19,0.701,0.213,1.495,0.102,2.338c-0.928,3.198-3.191,5.977-5.84,7.981c-3.54,2.679-7.758,2.037-11.866,1.889
		c-1.897-2.541-1.968-6.621-2.589-9.516C54.233,22.637,54.267,22.304,54.3,21.971z M24.649,16.328
		c-0.374,0.932-0.793,2.061-1.306,3.137c-0.224,0.284-0.458,0.562-0.709,0.831c-2.205,2.365-5.216,2.046-8.122,1.671
		c0.042-0.175,0.168-0.382,0.403-0.63c0.219-0.229,0.44-0.458,0.662-0.687c0.088,0.003,0.173,0.004,0.261,0.008
		c0.337,0.017,0.708,0.035,0.973,0.012c0.274-0.133,0.566-0.225,0.873-0.273c0.228-0.039,0.444-0.038,0.623-0.025
		c0.2-0.125,0.468-0.276,0.8-0.386c0.1-0.033,0.185-0.058,0.261-0.078c0.091-0.075,0.172-0.15,0.254-0.223
		c0.277-0.25,0.623-0.561,1.095-0.831c0.164-0.093,0.268-0.233,0.595-0.739c0.318-0.49,0.658-0.882,0.958-1.228
		c0.18-0.207,0.35-0.406,0.488-0.592C23.361,16.232,23.987,16.233,24.649,16.328z"/>
	<path fill="#020202" d="M40.481,72.916c0.188-0.135,0.394-0.259,0.593-0.387c-0.227,0.078-0.422,0.14-0.595,0.187L40.481,72.916z"
		/>
</g>
</svg>
