<?xml version="1.0" encoding="utf-8"?>
<!-- Generator: Adobe Illustrator 16.0.0, SVG Export Plug-In . SVG Version: 6.00 Build 0)  -->
<!DOCTYPE svg PUBLIC "-//W3C//DTD SVG 1.1//EN" "http://www.w3.org/Graphics/SVG/1.1/DTD/svg11.dtd">
<svg version="1.1" id="Layer_1001" xmlns="http://www.w3.org/2000/svg" xmlns:xlink="http://www.w3.org/1999/xlink" x="0px" y="0px"
	 width="128px" height="128px" viewBox="0 0 128 128" enable-background="new 0 0 128 128" xml:space="preserve">
<g>
	<path fill-rule="evenodd" clip-rule="evenodd" d="M127.263,54.582c-0.71,13.924-4.902,26.333-11.094,38.12
		c-2.66,5.062-6.927,8.416-12.333,10.365c-3.205,1.154-5.855,0.648-8.197-1.896c-3.378-3.671-5.757-8.005-5.833-12.885
		c-0.255-16.342,2.733-31.976,11.872-45.922c2.885-4.402,6.928-7.296,12.143-8.601c2.693-0.674,4.798-0.114,6.808,1.682
		c3.67,3.282,5.52,7.478,6.184,12.224C127.153,50.108,127.144,52.597,127.263,54.582z M102.226,96.027
		c-0.18,1.066-0.741,2.406,0.408,3.021c1.147,0.616,2.352,1.601,3.791,1.283c1.022-0.227,1.839-0.839,0.824-2.042
		c-1.34-1.591-3.095-2.194-5.116-2.177c-0.021-0.682-0.193-1.399-0.041-2.039c2.319-9.704,4.405-19.454,7.898-28.857
		c2.129-5.735,4.331-11.538,4.49-17.809c1.012-0.823,1.159-1.646,0-2.468c-1.143-1.672-3.212-1.306-4.746-2.143
		c-1.377-0.752-2.511-2.683-4.119-2.097c-1.625,0.592-2.371,2.571-3.39,4.023c-0.862,1.23-1.618,2.548-2.294,3.893
		c-4.101,8.163-6.404,16.864-7.707,25.87c-0.689,4.76-1.378,9.524-0.733,14.326c0.548,4.086,0.961,4.324,4.974,4.306
		c0.542-0.002,1.111,0.033,1.624,0.192c1.832,0.571,2.441-0.127,2.44-1.964c-0.004-3.849,0.626-7.646,1.293-11.426
		c1.994-11.319,7.178-21.531,11.268-32.122c0.076-0.198,0.426-0.29,0.646-0.431c-0.045,2.792-1.262,5.284-2.137,7.839
		c-3.571,10.432-7.863,20.662-9.084,31.749C102.185,89.949,100.659,92.957,102.226,96.027z M125.509,54.472
		c-0.131-2.086-0.217-4.284-0.416-6.472c-0.188-2.069-1.002-3.285-3.456-2.641c-0.998,0.263-2.182-0.018-3.251-0.214
		c-1.602-0.295-2.175,0.28-2.308,1.898c-0.729,8.83-3.37,17.194-6.227,25.524c-2.136,6.229-3.984,12.559-5.859,18.874
		c-0.312,1.044-1.152,2.249,0.246,3.353c4.791,3.784,5.942,3.623,9.518-1.562c0.312-0.452,0.62-0.913,0.874-1.398
		C120.696,80.132,124.896,67.89,125.509,54.472z M115.458,35.015c-1.599-0.084-2.753,0.297-3.85,0.857
		c-1.006,0.515-1.078,1.317-0.087,1.758c2.979,1.319,6.107,2.202,9.373,2.395c1.1,0.066,1.436-0.665,0.75-1.575
		C120.018,36.289,117.997,34.814,115.458,35.015z M96.364,94.472c-0.896,0.073-2.354-0.135-2.593,1.119
		c-0.28,1.453,0.944,2.009,2.294,2.153c0.798,0.085,1.584,0.285,2.367,0.465c0.774,0.178,1.679,0.579,1.968-0.553
		c0.229-0.898,0.283-1.903-0.754-2.488C98.677,94.622,97.624,94.442,96.364,94.472z M108.438,37.333
		c-0.567,0.791-1.68,1.102-0.819,2.103c1.678,1.95,3.922,2.853,6.444,3.053c0.544,0.042,1.095-0.262,1.193-0.875
		c0.057-0.35-0.012-0.967-0.225-1.078C112.903,39.431,110.483,38.99,108.438,37.333z M119.663,44.074
		c1.148,0,1.697,0.062,2.227-0.014c0.905-0.129,2.086-0.16,2.04-1.414c-0.04-1.146-0.9-1.51-2.038-1.281
		c-1.073,0.217-2.142,0.047-3.21-0.196c-0.86-0.195-2.013-0.75-2.352,0.602c-0.371,1.471,0.938,1.743,1.945,2.064
		C118.908,44.038,119.599,44.063,119.663,44.074z M100.835,102.348c0.875-0.386,2.542,0.046,2.772-0.936
		c0.181-0.77-1.408-0.922-2.322-1.147c-0.787-0.193-1.531-0.551-2.314-0.75c-0.644-0.163-1.566-0.524-1.907,0.088
		c-0.497,0.894,0.582,1.317,1.077,1.863C98.823,102.216,99.721,102.494,100.835,102.348z"/>
	<path fill-rule="evenodd" clip-rule="evenodd" d="M48.497,67.006c-0.008-8.141,1.14-16.169,2.664-24.122
		c1.252-6.532,4.352-12.139,9.932-16.088c4.677-3.311,7.037-3.307,11.48,0.213c5.485,4.345,8.837,9.868,9.871,16.957
		c0.774,5.301,1.512,10.586,1.927,15.93c0.695,8.992,0.074,17.874-2.378,26.539c-1.874,6.626-5.013,12.479-11.56,15.829
		c-2.661,1.362-5.021,1.509-7.784,0.085c-5.516-2.845-8.678-7.514-10.669-13.076C49.413,82.095,48.481,74.611,48.497,67.006z
		 M64.99,90.308c3.14,1.505,6.837,0.677,9.91,2.282c1.947,1.018,2.672,0.098,3.413-1.445c1.619-3.363,2.628-6.914,3.288-10.566
		c1.622-8.986,1.578-18.032,0.568-27.064c-0.572-5.144-0.547-10.438-3.066-15.218c-0.827-1.567-1.193-3.54-2.729-4.5
		c-1.401-0.876-2.718,0.871-4.212,0.847c-0.407-0.006-0.82,0.168-1.223,0.14c-2.72-0.18-2.737,1.217-2.259,3.36
		c1.494,6.715,2.449,13.565,1.922,20.413c-0.735,9.559-2.064,19.072-3.146,28.604c-0.054,0.475,0.038,1.294-0.585,1.187
		c-0.556-0.096-0.381-0.948-0.369-1.469c0.086-3.841,0.149-7.678,0.56-11.51c0.817-7.632,1.6-15.263,1.291-22.973
		c-0.214-5.348-0.448-10.668-1.525-15.933c-0.505-2.469-0.168-2.752,2.346-2.607c1.1,0.062,2.189,0.139,3.237-0.31
		c0.98-0.421,2.355-0.55,2.475-1.841c0.127-1.381-1.148-2.072-2.102-2.808c-0.829-0.64-1.852-0.268-2.795-0.342
		c-2.038-0.159-4.025,0.4-6.114,0.078c-3.383-0.524-4.184,0.217-5.424,3.945c-3.747,2.533-4.765,6.635-5.555,10.597
		c-2.273,11.424-3.275,22.978-1.81,34.599c0.58,4.602,1.569,9.168,3.686,13.376c0.4,0.795,0.871,2.381,1.772,1.847
		C59.196,91.427,62.52,92.22,64.99,90.308z M65.602,95.976c-1.21,0.037-3.427-0.353-5.544,0.463
		c-1.162,0.447-1.425,1.069-0.446,2.098c3.903,4.095,9.415,4.216,13.542,0.312c1.243-1.176,0.765-1.944-0.475-2.421
		C70.713,95.672,68.622,95.949,65.602,95.976z M75.975,95.49c0.078-0.688-0.25-0.93-0.583-1.165c-2.4-1.688-5.115-1.663-7.856-1.394
		c-0.328,0.032-0.844,0.242-0.669,0.799c0.068,0.218,0.287,0.528,0.47,0.552c2.679,0.339,5.416,0.342,7.891,1.693
		C75.6,96.179,75.922,95.708,75.975,95.49z M62.703,92.782c-2.096,0.061-3.97,0.328-5.466,1.748
		c-0.345,0.325-0.362,0.726-0.06,1.054c0.154,0.168,0.549,0.338,0.693,0.256c1.97-1.111,4.138-1.298,6.322-1.478
		c0.336-0.028,0.751-0.401,0.545-0.892c-0.089-0.217-0.341-0.457-0.56-0.507C63.65,92.842,63.098,92.825,62.703,92.782z
		 M66.805,27.375c0.612-0.176,2.13,0.558,2.132-0.539c0.001-1.308-1.565-1.041-2.576-1.043c-0.512-0.001-1.041,0.192-1.53,0.378
		c-0.21,0.08-0.419,0.341-0.493,0.566c-0.208,0.621,0.321,0.598,0.674,0.627C65.54,27.407,66.074,27.375,66.805,27.375z"/>
	<path fill-rule="evenodd" clip-rule="evenodd" d="M33.408,103.658c-3.842-0.095-8.557-3.019-12.698-7.009
		c-7.224-6.959-12.2-15.457-16.417-24.451c-1.399-2.98-2.807-5.932-3.33-9.251c-0.642-4.08,0.138-7.934,1.612-11.668
		c1.055-2.672,3.098-3.996,6.096-3.987c4.855,0.013,9.414,1.21,12.942,4.463c9.895,9.124,18.018,19.567,22.251,32.581
		c1.424,4.381,1.782,8.881,0.221,13.342C42.411,102.469,40.594,103.715,33.408,103.658z M5.562,49.855
		c0.423,0.133,0.768,0.042,0.957-0.379c0.02-0.041-0.16-0.243-0.257-0.25c-0.494-0.038-0.71,0.208-0.627,0.703
		c-0.121,0.018-0.255,0.007-0.353,0.062c-0.056,0.032-0.081,0.245-0.07,0.248C5.441,50.328,5.562,50.194,5.562,49.855z
		 M35.297,93.592c0.277,0.288,0.557,0.229,0.837,0.002c1.627-0.723,3.193-1.751,4.896-2.088c2.138-0.422,2.19-1.517,1.905-3.223
		c-0.549-3.276-1.546-6.401-3.001-9.365c-4.704-9.586-11.02-17.981-18.77-25.317c-1.326-1.255-2.915-2.039-4.482-2.874
		c-0.598-0.318-1.562-0.632-1.872,0.033c-0.948,2.043-3.797,2.967-3.386,5.775c-0.323,0.025-0.647,0.05-0.971,0.076
		c0.031-0.7-0.088-1.344-0.688-1.803l-0.171-0.096l0.23,0.114c-0.013,0.673,0.016,1.331,0.708,1.713
		c0.141,0.611,0.107,1.316,0.867,1.59c-0.185,0.893,0.34,1.564,0.691,2.301c3.681,7.733,8.663,14.594,14.066,21.185
		c1.361,1.662,3.179,3.081,3.409,5.465c-1.101-0.074-1.599-0.954-2.227-1.667c-7.189-8.167-13.984-16.589-17.684-27.036
		c-0.269-0.759-0.623-1.976-1.482-1.539c-1.721,0.874-3.968,0.692-5.251,1.971c-1.21,1.205-0.248,3.126,0.051,4.72
		c0.128,0.672,0.231,1.367,0.479,1.996C7.764,76.47,13.3,86.669,21.644,95.129c1.738,1.763,3.685,3.29,5.905,4.434
		c0.6,0.31,1.464,0.92,1.801,0.2c1.176-2.515,4.567-3.146,5.08-6.151C34.719,93.604,35.007,93.598,35.297,93.592z M33.703,97.817
		c0.38-0.087,0.798-0.102,1.133-0.277c0.413-0.218,1.117-0.554,0.779-1.05c-0.384-0.563-0.923,0.051-1.3,0.332
		c-0.295,0.221-0.475,0.593-0.705,0.897c-1.008,0.069-1.564,0.618-1.698,1.609c-0.77,0.113-0.973,0.729-1.136,1.344
		c-0.018,0.069,0.351,0.358,0.455,0.32c0.71-0.269,0.827-0.883,0.8-1.556C32.88,99.199,33.51,98.733,33.703,97.817z M38.706,94.582
		c0.761-0.258,1.529-0.495,2.281-0.78c0.586-0.224,1.735-0.095,1.639-0.694c-0.101-0.626-1.177-0.395-1.808-0.243
		c-0.919,0.22-1.791,0.603-2.333,1.463c-0.418-0.011-0.751,0.14-0.923,0.533c-0.017,0.039,0.157,0.226,0.261,0.248
		C38.261,95.196,38.57,95.024,38.706,94.582z M8.081,51.537c-2.58-0.518-3.989,1.033-5.132,2.969
		c-0.337,0.569-0.675,1.317-0.194,1.911c0.445,0.553,1.174,0.534,1.887,0.393c2.737-0.543,3.467-1.685,3.37-5.368
		c0.315,0.256,0.673,0.473,0.936,0.773c1.539,1.758,2.636,0.538,3.595-0.619c0.538-0.648,1.487-1.651,0.385-2.388
		c-1.157-0.773-2.537-0.753-3.75,0.296C8.521,50.071,8.032,50.635,8.081,51.537z M35.541,102.403
		c4.253-0.08,6.585-1.951,7.349-5.542c0.302-1.418-0.439-1.966-1.503-1.446c-2.801,1.37-5.511,2.956-7.747,5.183
		c-0.815,0.812-0.465,1.453,0.608,1.669C34.778,102.373,35.328,102.383,35.541,102.403z"/>
	<path fill-rule="evenodd" clip-rule="evenodd" d="M114.55,44.889c0.004,0.855,0.009,1.711,0.013,2.567
		c-0.304,0.003-0.606,0.006-0.911,0.01C113.669,46.508,113.752,45.575,114.55,44.889z"/>
	<path fill-rule="evenodd" clip-rule="evenodd" d="M65.03,90.399c-1.307-3.066-1.493-6.339-1.65-9.592
		c-0.531-11.007,1.057-21.936,1.325-32.915c0.081-3.292,0.132-6.585,0.283-9.873c0.09-1.932-0.345-3.099-2.635-3.167
		c-1.608-0.048-3.311-0.465-4.001-2.334c1.189,0.312,2.364,0.733,3.574,0.908c1.516,0.219,3.146,0.399,3.269-1.91
		c0.022-0.377,0.105-0.938,0.638-0.86c0.434,0.064,0.453,0.546,0.42,0.959c-0.57,6.995,0.715,13.961,0.331,20.952
		c-0.369,6.71-0.654,13.43-1.25,20.121C64.807,78.598,65.482,84.503,65.03,90.399z"/>
	<path fill-rule="evenodd" clip-rule="evenodd" d="M35.343,92.029c-0.3-0.028-0.603-0.058-0.904-0.086l0.082,0.082
		c-0.18-0.434-0.39-0.84-0.926-0.913l0.085,0.104c0.067-0.775-0.101-1.431-0.893-1.771l0.091,0.105
		c-1.095-3.322-3.227-6.06-5.347-8.71c-5.5-6.878-10.526-14.064-15.025-21.629c-0.279-0.464-0.547-0.957-1.171-1.039
		c-0.003-0.576-0.007-1.152-0.01-1.728c2.008,0.704,2.542,2.731,3.649,4.202c4.598,6.108,9.177,12.234,13.575,18.485
		C31.354,83.118,34.248,87.116,35.343,92.029z"/>
	<path fill-rule="evenodd" clip-rule="evenodd" d="M36.173,93.677c-0.306,0-0.611,0-0.918,0c0.002-0.585,0.004-1.169,0.006-1.754
		C36.155,92.201,36.095,92.975,36.173,93.677z"/>
	<path fill-rule="evenodd" clip-rule="evenodd" d="M34.439,91.943c0.021,0.582,0.042,1.163,0.062,1.745
		c-1.898-2.068-4.213-3.826-5.026-6.708c1.662,0.157,1.857,2.258,3.402,2.57l-0.091-0.105c-0.055,0.768,0.15,1.404,0.893,1.771
		l-0.085-0.104c0.309,0.305,0.616,0.608,0.926,0.913L34.439,91.943z"/>
</g>
</svg>
