<?xml version="1.0" encoding="utf-8"?>
<!-- Generator: Adobe Illustrator 16.0.4, SVG Export Plug-In . SVG Version: 6.00 Build 0)  -->
<!DOCTYPE svg PUBLIC "-//W3C//DTD SVG 1.1//EN" "http://www.w3.org/Graphics/SVG/1.1/DTD/svg11.dtd">
<svg version="1.1" id="Layer_1002" xmlns="http://www.w3.org/2000/svg" xmlns:xlink="http://www.w3.org/1999/xlink" x="0px" y="0px"
	 width="128px" height="128px" viewBox="0 0 128 128" enable-background="new 0 0 128 128" xml:space="preserve">
<g>
	<path fill-rule="evenodd" clip-rule="evenodd" d="M70.24,103.541c-5.311,2.18-10.091,1.154-13.971-3.114
		c-4.387-4.824-6.11-10.737-7.017-17.049c-2.45-17.045,0.988-33.353,5.999-49.473c1.311-4.221,2.783-8.397,4.911-12.294
		c0.801-1.467,1.629-2.928,2.89-4.091c1.636-1.511,3.207-1.496,4.846-0.008c1.62,1.472,2.656,3.342,3.588,5.258
		c4.836,9.949,7.723,20.516,9.631,31.356c1.804,10.246,2.779,20.533,0.928,30.918c-0.925,5.179-2.392,10.089-5.677,14.283
		c-1.606,2.052-3.349,3.995-6.202,4.282c-0.357-0.314-0.716-0.627-1.069-0.94c1.156-0.718,2.348-1.389,3.456-2.176
		c0.628-0.444,1.011-1.048,0.508-1.932c-0.905-1.596-4.285-3.303-5.465-2.203c-1.427,1.326-1.838,1.605-3.304,0.037
		c-1.109-1.185-5.117,0.771-5.541,2.593c-0.408,1.761,1.323,2.092,2.398,2.738c2.521,1.525,5.303,0.988,8.021,0.884
		C69.527,102.921,69.883,103.232,70.24,103.541z M80.219,72.198c-0.499-14.756-3.792-28.96-9.111-42.733
		c-0.356-0.928-0.718-1.873-1.657-2.411c-0.74-0.426-1.522-1.014-2.376-0.658c-0.993,0.415-0.717,1.441-0.612,2.23
		c0.167,1.265,0.585,2.497,0.73,3.763c2.092,18.02,2.504,36.065,0.507,54.119c-0.22,1.993-0.134,3.343,2.141,3.742
		c1.584,0.277,2.994,1.032,4.068,2.205c1.373,1.499,2.001,0.72,2.635-0.628C79.467,85.617,79.91,78.951,80.219,72.198z
		 M51.125,74.266c-0.093,3.892,1.18,11.424,3.466,16.615c1.349,3.062,1.33,3.034,3.958,1.234c0.928-0.636,1.921-1.326,2.983-1.586
		c2.158-0.527,2.537-1.846,2.358-3.801c-0.479-5.241-0.871-10.49-1.245-15.738c-1.002-14.109-0.055-28.148,1.549-42.16
		c0.105-0.916,1.118-2.065-0.059-2.655c-0.868-0.434-1.834,0.484-2.675,1.023c-0.93,0.594-1.165,1.604-1.502,2.515
		C55.037,42.997,51.802,56.642,51.125,74.266z M66.316,62.68c-0.027,0-0.055,0-0.085,0c0-8.109,0.009-16.218-0.008-24.329
		c-0.002-1.135-0.088-2.273-0.187-3.405c-0.037-0.409-0.166-0.911-0.744-0.795c-0.157,0.033-0.302,0.422-0.338,0.664
		c-0.065,0.419-0.051,0.851-0.056,1.277C64.684,53.73,64.418,71.37,65.7,88.986c0.044,0.618-0.152,1.301,0.376,1.826
		c0.081-0.557,0.229-1.113,0.229-1.67C66.32,80.323,66.316,71.502,66.316,62.68z"/>
	<path fill-rule="evenodd" clip-rule="evenodd" d="M127.029,44.058c-0.312,15.122-3.044,29.767-9.455,43.582
		c-2.058,4.428-4.689,8.473-8.27,11.856c-1.553,1.47-3.222,2.732-5.214,3.564c-6.843,2.856-13.744-0.346-15.979-7.381
		c-1.626-5.119-0.996-10.192,0.174-15.259c1.229-5.333,3.106-10.437,5.595-15.317c5.472-10.736,12.312-20.505,20.611-29.239
		c1.883-1.979,3.88-3.856,6.307-5.171c2.92-1.583,4.394-1.007,5.503,2.109c0.304,0.854,0.667,1.743,0.695,2.626
		C127.084,38.303,127.029,41.182,127.029,44.058z M101.039,87.826c1.059-0.598,1.071-1.536,0.837-2.558
		c1.251-0.456,1.422-1.688,1.835-2.688c2.719-6.564,5.459-13.122,8.045-19.742c1.494-3.82,3.437-7.5,4.024-11.637
		c1.128-1.25,1.564-2.744,1.555-4.395c1.083-0.616,0.86-1.632,0.795-2.599c0.197-0.13,0.404-0.247,0.58-0.4
		c0.041-0.035-0.032-0.201-0.052-0.306c-0.147,0.263-0.293,0.526-0.44,0.79c-0.782,0.696-1.033,1.561-0.809,2.574
		c-1.426,0.993-1.84,2.462-1.927,4.086c-3.985,7.551-6.906,15.56-9.906,23.517c-1.342,3.562-3.3,6.949-3.621,10.862
		c-1.097,0.59-0.866,1.612-0.834,2.568c-0.837,0.333-0.739,1.114-0.859,1.791c-0.788,0.648-0.735,1.587-0.842,2.469l-0.138,0.106
		l0.079-0.17c0.75-0.673,0.754-1.589,0.809-2.488C101.006,89.28,100.943,88.515,101.039,87.826z M124.257,46.97
		c0-1.85,0.006-3.7-0.008-5.549c-0.003-0.279-0.062-0.574-0.169-0.832c-0.394-0.964-1.104-1.928-2.069-1.902
		c-0.824,0.022-1.084,1.154-1.274,2.013c-3.52,15.944-9.639,30.934-16.917,45.471c-1.585,3.163-3.516,5.937,0.861,8.339
		c0.43,0.236,0.652,0.913,0.892,1.423c0.641,1.363,1.377,1.048,2.266,0.237c3.104-2.824,5.336-6.262,7.173-9.995
		C121.086,73.81,123.099,60.489,124.257,46.97z M94.487,90.234c4.005,1.346,4.646-1.735,5.427-4.747
		c0.5-1.929,1.132-3.821,1.731-5.724c4.387-13.906,10.134-27.225,17.267-39.948c0.352-0.628,1.416-1.35,0.463-2.16
		c-0.676-0.575-1.675-0.46-2.403,0.061c-0.804,0.573-1.535,1.274-2.203,2.006c-1.536,1.685-3.088,3.365-4.506,5.148
		c-8.301,10.44-15.707,21.379-18.912,34.604c-0.74,3.054-1.319,6.131-1.212,9.294c0.052,1.538,0.519,2.521,2.343,1.877
		C93.013,90.456,93.596,90.411,94.487,90.234z M99.4,100.012c1.075-0.248,2.914,0.58,3.316-1.391c0.281-1.382-0.813-2.326-1.88-3.11
		c-0.941-0.691-1.681-0.705-2.567,0.255c-0.61,0.661-1.086,0.426-0.964-0.08c0.442-1.812-0.709-1.896-1.894-1.932
		c-1.124-0.032-2.464-0.18-3.105,0.918c-0.734,1.258,0.476,2.107,1.209,2.865C95.045,99.118,96.932,100.061,99.4,100.012z"/>
	<path fill-rule="evenodd" clip-rule="evenodd" d="M44.338,89.917c-0.073,1.118-0.082,2.019-0.194,2.906
		c-1.12,8.866-9.261,13.275-17.238,9.273c-4.952-2.486-8.472-6.566-11.502-11.058c-4.206-6.232-7.163-13.087-9.533-20.194
		c-2.75-8.242-4.604-16.689-5.594-25.32c-0.204-1.776-0.295-3.581-0.255-5.369c0.052-2.354-0.482-5.291,1.736-6.633
		c2.676-1.62,5.263,0.5,7.322,2.01c7.517,5.514,13.984,12.161,19.364,19.768c3.178,4.494,6.843,8.645,9.359,13.632
		C41.192,75.652,44.14,82.453,44.338,89.917z M29.276,85.282c-0.123,0.773-0.136,1.495,0.833,1.747
		c0.027,0.694,0.047,1.393,0.89,1.645c-0.002,0.704,0.08,1.371,0.783,1.765c0.177,0.407,0.297,0.473,0.297,0.189
		c0-0.036-0.246-0.071-0.378-0.108c0.006-0.708,0.001-1.415-0.78-1.776c-0.057-0.679-0.062-1.386-0.889-1.648
		c0.122-0.775,0.149-1.504-0.835-1.747c0.05-0.723,0.059-1.425-0.718-1.82c-0.127-0.547-0.16-1.139-0.398-1.633
		c-5.239-10.879-11-21.487-16.778-32.084c-0.435-0.798-0.575-1.979-1.859-2.053c0.04-0.731,0.097-1.472-0.882-1.661
		C8.52,45.41,8.555,44.694,7.86,44.256l0.071-0.063c-0.044,0.719,0.262,1.302,0.705,1.832c0.158,0.628,0.297,1.266,0.877,1.673
		c0.096,0.411,0.125,0.853,0.3,1.229c5.322,11.43,11.377,22.483,17.294,33.608c0.247,0.466,0.756,0.795,1.144,1.188
		C28.302,84.433,28.359,85.141,29.276,85.282z M9.49,39.097c-2.91,1.018-2.946,1.044-1.256,3.431
		c9.091,12.827,16.443,26.603,22.512,41.084c0.873,2.083,1.145,4.802,2.923,6.006c1.421,0.964,3.828-0.399,5.784,0.104
		c1.759,0.454,1.887-0.586,1.878-1.857c-0.029-3.624-1.133-7.005-2.386-10.336c-4.186-11.115-11.383-20.3-19.118-29.054
		c-3.074-3.479-6.237-7.032-10.39-9.397l0.178-0.095L9.49,39.097z M2.911,44.094c0.079,0.575,0.128,0.857,0.156,1.14
		C4.254,57.082,7.17,68.478,12.024,79.36c2.568,5.761,5.715,11.157,10.277,15.602c1.114,1.086,2.247,2.746,3.693,2.692
		c1.343-0.049,1.175-2.306,2.132-3.312c0.195-0.205,0.294-0.531,0.519-0.671c2.756-1.718,1.314-3.392,0.109-5.267
		c-5.703-8.872-10.994-17.98-15.38-27.587C10.656,54.864,7.964,48.9,5.879,42.68c-0.19-0.564-0.368-1.524-1.237-1.441
		c-0.751,0.071-1.127,0.821-1.383,1.494C3.061,43.252,2.979,43.816,2.911,44.094z M32.646,100.041
		c3.198-0.12,5.587-1.619,7.207-4.375c0.441-0.752,0.752-1.555-0.095-2.253c-1.176-0.966-4.217-0.5-4.694,0.995
		c-0.39,1.224-0.199,1.491-1.66,0.892c-1.495-0.611-3.403,1.532-3.315,3.314C30.174,100.384,31.645,99.777,32.646,100.041z"/>
</g>
</svg>
