<?xml version="1.0" encoding="utf-8"?>
<!-- Generator: Adobe Illustrator 16.0.0, SVG Export Plug-In . SVG Version: 6.00 Build 0)  -->
<!DOCTYPE svg PUBLIC "-//W3C//DTD SVG 1.1//EN" "http://www.w3.org/Graphics/SVG/1.1/DTD/svg11.dtd">
<svg version="1.1" id="Layer_1002" xmlns="http://www.w3.org/2000/svg" xmlns:xlink="http://www.w3.org/1999/xlink" x="0px" y="0px"
	 width="128px" height="128px" viewBox="0 0 128 128" enable-background="new 0 0 128 128" xml:space="preserve">
<g>
	<path fill-rule="evenodd" clip-rule="evenodd" d="M70.467,103.957c-4.94,2.026-9.387,1.073-12.995-2.896
		c-4.081-4.488-5.683-9.987-6.526-15.856c-2.278-15.854,0.919-31.022,5.579-46.015c1.221-3.927,2.589-7.811,4.569-11.436
		c0.745-1.364,1.515-2.723,2.688-3.805c1.522-1.405,2.983-1.392,4.508-0.008c1.506,1.37,2.47,3.108,3.336,4.891
		c4.498,9.253,7.184,19.082,8.958,29.164c1.677,9.529,2.585,19.098,0.862,28.757c-0.859,4.814-2.223,9.382-5.278,13.284
		c-1.495,1.908-3.115,3.716-5.77,3.982c-0.332-0.292-0.665-0.583-0.995-0.875c1.075-0.668,2.184-1.291,3.215-2.023
		c0.584-0.414,0.939-0.974,0.473-1.796c-0.842-1.483-3.985-3.072-5.084-2.05c-1.325,1.234-1.709,1.493-3.073,0.035
		c-1.031-1.103-4.759,0.717-5.152,2.411c-0.38,1.639,1.23,1.944,2.229,2.548c2.346,1.418,4.933,0.917,7.462,0.82
		C69.804,103.38,70.135,103.669,70.467,103.957z M80.682,75.559c-0.496-14.677-3.772-28.805-9.062-42.505
		c-0.355-0.922-0.715-1.863-1.648-2.398c-0.736-0.423-1.514-1.008-2.362-0.654c-0.988,0.412-0.713,1.434-0.609,2.218
		c0.165,1.259,0.58,2.484,0.726,3.744c2.081,17.924,2.491,35.873,0.505,53.83c-0.219,1.983-0.133,3.325,2.128,3.723
		c1.576,0.276,2.979,1.028,4.048,2.194c1.366,1.491,1.989,0.716,2.62-0.625C79.935,88.906,80.375,82.277,80.682,75.559z
		 M51.743,77.615c-0.093,3.87,1.173,11.363,3.447,16.528c1.342,3.045,1.323,3.018,3.937,1.227c0.923-0.633,1.911-1.319,2.968-1.577
		c2.146-0.524,2.523-1.836,2.347-3.781c-0.478-5.213-0.868-10.434-1.238-15.655c-0.999-14.032-0.055-27.996,1.54-41.934
		c0.104-0.911,1.111-2.054-0.059-2.641c-0.864-0.432-1.825,0.481-2.662,1.017c-0.924,0.592-1.157,1.597-1.493,2.502
		C55.634,46.514,52.416,60.086,51.743,77.615z M66.854,66.092c-0.027,0-0.055,0-0.084,0c0-8.066,0.008-16.132-0.007-24.199
		c-0.002-1.129-0.089-2.261-0.188-3.387c-0.036-0.407-0.165-0.906-0.74-0.791c-0.154,0.032-0.3,0.419-0.336,0.66
		c-0.065,0.417-0.051,0.846-0.055,1.27c-0.215,17.545-0.479,35.091,0.797,52.613c0.043,0.614-0.151,1.294,0.374,1.815
		c0.08-0.553,0.229-1.106,0.229-1.661C66.858,83.64,66.854,74.866,66.854,66.092z"/>
	<path fill-rule="evenodd" clip-rule="evenodd" d="M128.207,48.948c-0.292,14.132-2.844,27.817-8.837,40.726
		c-1.921,4.139-4.382,7.918-7.727,11.081c-1.451,1.374-3.01,2.555-4.874,3.332c-6.394,2.669-12.843-0.323-14.932-6.898
		c-1.52-4.783-0.93-9.525,0.163-14.259c1.149-4.983,2.903-9.753,5.229-14.314c5.113-10.032,11.506-19.162,19.262-27.324
		c1.759-1.849,3.625-3.603,5.893-4.832c2.729-1.479,4.106-0.941,5.143,1.971c0.284,0.797,0.623,1.629,0.649,2.454
		C128.259,43.57,128.207,46.26,128.207,48.948z M103.556,91.104c1.052-0.595,1.064-1.528,0.832-2.544
		c1.244-0.454,1.414-1.679,1.825-2.673c2.705-6.531,5.431-13.054,8.003-19.637c1.485-3.801,3.417-7.461,4.003-11.576
		c1.122-1.243,1.556-2.729,1.546-4.371c1.078-0.613,0.854-1.624,0.791-2.586c0.194-0.13,0.401-0.245,0.576-0.398
		c0.041-0.035-0.031-0.2-0.052-0.304c-0.146,0.262-0.291,0.523-0.438,0.785c-0.777,0.692-1.027,1.552-0.805,2.56
		c-1.417,0.988-1.83,2.449-1.917,4.065c-3.962,7.511-6.869,15.476-9.853,23.392c-1.335,3.541-3.283,6.912-3.602,10.804
		c-1.091,0.587-0.862,1.604-0.83,2.556c-0.831,0.33-0.734,1.107-0.854,1.78c-0.785,0.646-0.732,1.578-0.838,2.456l-0.138,0.104
		l0.079-0.168c0.746-0.67,0.75-1.58,0.805-2.475C103.521,92.55,103.459,91.788,103.556,91.104z M126.649,50.465
		c0-1.84,0.008-3.68-0.008-5.52c-0.002-0.278-0.063-0.57-0.168-0.827c-0.392-0.959-1.099-1.917-2.059-1.893
		c-0.82,0.022-1.078,1.149-1.268,2.002c-3.5,15.859-9.587,30.77-16.826,45.228c-1.576,3.146-3.497,5.905,0.856,8.295
		c0.428,0.235,0.648,0.908,0.888,1.415c0.637,1.356,1.368,1.042,2.252,0.237c3.088-2.811,5.309-6.229,7.136-9.943
		C123.495,77.162,125.498,63.912,126.649,50.465z M97.038,93.5c3.983,1.338,4.622-1.728,5.397-4.723
		c0.496-1.917,1.126-3.801,1.724-5.692c4.363-13.833,10.079-27.08,17.175-39.736c0.349-0.625,1.408-1.343,0.46-2.148
		c-0.672-0.572-1.667-0.458-2.392,0.06c-0.799,0.57-1.525,1.268-2.189,1.996c-1.53,1.676-3.072,3.347-4.483,5.121
		c-8.257,10.384-15.622,21.265-18.812,34.42c-0.735,3.036-1.311,6.097-1.204,9.244c0.053,1.53,0.516,2.507,2.331,1.866
		C95.572,93.72,96.152,93.676,97.038,93.5z M101.926,103.225c1.069-0.247,2.897,0.578,3.297-1.384
		c0.281-1.373-0.81-2.313-1.868-3.093c-0.937-0.688-1.671-0.7-2.555,0.254c-0.606,0.657-1.08,0.422-0.957-0.079
		c0.439-1.803-0.706-1.889-1.885-1.923c-1.118-0.032-2.451-0.178-3.089,0.913c-0.729,1.251,0.475,2.098,1.202,2.85
		C97.594,102.335,99.47,103.274,101.926,103.225z"/>
	<path fill-rule="evenodd" clip-rule="evenodd" d="M41.776,92.157c-0.069,1.059-0.078,1.912-0.184,2.752
		c-1.061,8.398-8.772,12.575-16.329,8.784c-4.691-2.355-8.024-6.221-10.896-10.475c-3.983-5.904-6.784-12.396-9.029-19.128
		C2.734,66.284,0.977,58.282,0.04,50.107c-0.193-1.683-0.28-3.392-0.242-5.085c0.049-2.23-0.457-5.012,1.644-6.283
		c2.536-1.534,4.985,0.473,6.936,1.904c7.122,5.223,13.248,11.519,18.342,18.725c3.011,4.257,6.482,8.189,8.865,12.912
		C38.797,78.645,41.588,85.088,41.776,92.157z M27.846,88.574c-0.123,0.77-0.135,1.486,0.83,1.738
		c0.026,0.69,0.046,1.384,0.884,1.635c-0.002,0.701,0.08,1.364,0.78,1.755c0.175,0.406,0.295,0.47,0.295,0.188
		c0-0.035-0.244-0.071-0.376-0.107c0.005-0.705,0.001-1.406-0.776-1.768c-0.056-0.676-0.062-1.378-0.883-1.64
		c0.121-0.771,0.149-1.494-0.831-1.737c0.049-0.718,0.057-1.417-0.714-1.811c-0.127-0.544-0.16-1.132-0.395-1.623
		c-5.212-10.822-10.942-21.373-16.69-31.914c-0.432-0.793-0.571-1.968-1.849-2.042c0.04-0.727,0.096-1.463-0.877-1.651
		c-0.042-0.684-0.007-1.396-0.698-1.831l0.071-0.063c-0.044,0.715,0.26,1.295,0.701,1.823c0.157,0.625,0.294,1.259,0.872,1.664
		c0.096,0.409,0.124,0.849,0.298,1.221C13.78,63.78,19.803,74.775,25.688,85.84c0.245,0.465,0.752,0.791,1.137,1.183
		C26.878,87.729,26.935,88.433,27.846,88.574z M8.166,42.635c-2.895,1.012-2.931,1.039-1.249,3.412
		c9.042,12.759,16.354,26.461,22.392,40.867c0.868,2.071,1.139,4.776,2.908,5.974c1.414,0.959,3.807-0.396,5.753,0.104
		c1.75,0.451,1.877-0.584,1.868-1.848c-0.029-3.604-1.126-6.968-2.373-10.28C33.3,69.807,26.141,60.671,18.449,51.963
		c-3.058-3.46-6.204-6.995-10.335-9.348l0.178-0.094L8.166,42.635z M1.622,47.605c0.078,0.573,0.127,0.853,0.155,1.134
		c1.18,11.785,4.082,23.121,8.909,33.945c2.555,5.73,5.684,11.098,10.223,15.519c1.108,1.079,2.235,2.732,3.674,2.678
		c1.335-0.048,1.167-2.294,2.121-3.294c0.194-0.204,0.292-0.529,0.516-0.669c2.741-1.707,1.308-3.373,0.107-5.237
		c-5.672-8.825-10.935-17.885-15.297-27.44c-2.704-5.922-5.38-11.855-7.456-18.041c-0.188-0.561-0.366-1.515-1.23-1.434
		c-0.747,0.071-1.122,0.817-1.375,1.486C1.771,46.768,1.689,47.329,1.622,47.605z M31.198,103.254
		c3.18-0.119,5.558-1.61,7.169-4.353c0.439-0.747,0.749-1.546-0.094-2.24c-1.17-0.961-4.196-0.497-4.67,0.991
		c-0.387,1.216-0.198,1.481-1.651,0.887c-1.487-0.608-3.384,1.522-3.298,3.297C28.74,103.594,30.202,102.991,31.198,103.254z"/>
</g>
</svg>
