<?xml version="1.0" encoding="utf-8"?>
<!-- Generator: Adobe Illustrator 16.0.4, SVG Export Plug-In . SVG Version: 6.00 Build 0)  -->
<!DOCTYPE svg PUBLIC "-//W3C//DTD SVG 1.1//EN" "http://www.w3.org/Graphics/SVG/1.1/DTD/svg11.dtd">
<svg version="1.1" id="Layer_1003" xmlns="http://www.w3.org/2000/svg" xmlns:xlink="http://www.w3.org/1999/xlink" x="0px" y="0px"
	 width="128px" height="128px" viewBox="0 0 128 128" enable-background="new 0 0 128 128" xml:space="preserve">
<g>
	<path fill-rule="evenodd" clip-rule="evenodd" d="M47.245,73.549c0.194-18.803,3.108-33.226,8.668-47.108
		c1.505-3.761,2.507-7.6,2.797-11.636c0.066-0.921,0.15-1.854,0.358-2.749c0.298-1.279,0.183-2.996,2.25-2.854
		c1.687,0.115,1.697,1.493,1.889,2.708c0.167,1.062,0.391,2.119,0.533,3.185c1.135,8.492,5.257,16.074,7.366,24.285
		c5.462,21.283,5.973,42.306-2.056,63.149c-1.874,4.863-5.262,9.104-5.881,14.475c-0.102,0.885-0.822,1.208-1.657,1.309
		c-1.245,0.148-2.129-0.376-2.575-1.494C52.9,101.653,46.238,86.639,47.245,73.549z M65.774,32.53
		c-0.056-0.559-0.111-1.118-0.166-1.676c-0.118,0.028-0.324,0.033-0.338,0.088c-0.175,0.639,0.263,1.053,0.589,1.506
		c0.102,0.567,0.204,1.135,0.306,1.703c0.112-0.052,0.31-0.086,0.324-0.158C66.625,33.332,66.246,32.905,65.774,32.53z
		 M56.159,100.803c0.002,0.53-0.127,1.091,0.359,1.506c0.059-0.112,0.196-0.264,0.164-0.336c-0.174-0.381-0.391-0.742-0.593-1.11
		c0.13-1.197-0.132-2.342-0.379-3.507c-2.938-13.799-4.641-27.695-3.319-41.839c0.22-2.347,0.104-4.723,0.144-7.085
		c0.8-0.825,0.844-1.849,0.685-2.884c-0.064-0.416-0.41-0.454-0.451-0.128c-0.107,0.872-0.138,1.752-0.191,2.63
		c-0.01,0.146,0.018,0.294,0.029,0.441c-0.277,0.324-0.735,0.612-0.804,0.976c-2.594,13.644-3.034,27.288,0.397,40.856
		C53.114,93.936,53.487,97.824,56.159,100.803z M65.767,101.626c1.685-1.604,2.065-3.828,2.744-5.888
		c4.108-12.457,4.688-25.254,3.392-38.175c-0.664-6.625-1.987-13.156-3.968-19.531c-0.162-0.523-0.308-1.455-0.789-1.33
		c-0.54,0.139-0.311,1.017-0.213,1.596c0.024,0.145,0.089,0.282,0.12,0.426c3.291,15.06,3.353,30.217,1.629,45.473
		c-0.665,5.895-2.286,11.61-2.837,17.508c-0.142,0.224-0.297,0.439-0.415,0.675c-0.03,0.059,0.061,0.18,0.096,0.271
		C65.606,102.309,65.687,101.968,65.767,101.626z M67.864,66.258c0-2.37,0.057-4.739-0.01-7.105
		c-0.301-10.584-2.384-20.854-5.582-30.916c-0.25-0.784-0.43-1.871-1.408-1.905c-0.316-0.011-0.759,1.161-1.002,1.843
		c-2.146,6-3.754,12.141-4.723,18.447c-1.996,12.992-1.631,25.989,0.18,38.944c1.003,7.176,2.559,14.269,4.698,21.21
		c0.187,0.608,0.24,1.605,1.123,1.551c0.364-0.023,0.782-0.825,0.991-1.347c0.327-0.819,0.507-1.7,0.734-2.559
		C66.165,91.914,68.105,79.224,67.864,66.258z M60.545,17.831c-0.044,1.396-0.161,2.505,0.989,3.053
		c0.581,0.277,0.721-0.283,0.7-0.698c-0.069-1.323-0.225-2.633-1.27-3.621C60.789,17.096,60.614,17.625,60.545,17.831z
		 M54.073,41.733c-0.055-0.13-0.108-0.261-0.163-0.392c-0.084,0.107-0.218,0.206-0.245,0.327c-0.089,0.401,0.045,0.589,0.305,0.459
		C54.05,42.088,54.042,41.87,54.073,41.733z"/>
	<path fill-rule="evenodd" clip-rule="evenodd" d="M37.985,96.361c-0.686,7.001,0.057,13.886,1.645,20.71
		c0.27,1.162,0.797,2.566-0.885,3.139c-1.588,0.54-2.273-0.716-2.753-1.837c-3.297-7.681-9.386-13.377-14.139-20.021
		C8.17,79.229-0.035,58.298,0.637,34.412c0.147-5.245,1.688-10.402,0.945-15.706c-0.144-1.026,0.43-1.796,1.391-2.16
		c0.964-0.365,1.89-0.198,2.385,0.777c2.873,5.662,8.338,9.051,12.116,13.947c14.185,18.383,20.032,39.444,20.508,62.304
		C38.001,94.505,37.985,95.433,37.985,96.361z M27.261,100.323l0.12,0.149l-0.168-0.109c-0.104-0.499-0.385-0.8-0.916-0.823
		c-0.061-0.542-0.371-0.829-0.905-0.886c0.018-0.738-0.109-1.415-0.788-1.858c-0.165-1.173-0.703-2.093-1.795-2.637
		c0.155-0.979-0.492-1.66-0.911-2.426c-4.19-7.658-7.926-15.514-10.633-23.844c-3.206-9.869-5.356-19.952-6.619-30.247
		c-0.181-1.474,0.016-3.125-1.059-4.421c-0.109,1.47-0.307,2.937-0.314,4.407c-0.101,20.373,6.78,38.487,17.938,55.205
		c0.397,0.594,0.793,1.266,1.667,1.268c-0.11,1.361,0.436,2.276,1.796,2.635c-0.033,0.745,0.253,1.346,0.808,1.831
		c0.3,0.295,0.601,0.592,0.901,0.887C26.534,99.887,26.777,100.227,27.261,100.323z M33.563,108.389l-0.209-0.159l0.291,0.084
		c0.198,1.85,1.099,3.304,2.517,4.465l-0.052,0.048C36.449,110.666,36.104,108.896,33.563,108.389z M34.515,82.426
		c0.05,0.972,0.097,1.945,0.151,2.918c0.022,0.394,0.232,0.4,0.318-0.034c0.196-0.991-0.059-1.932-0.544-2.81
		c-0.526-10.871-3.401-21.17-7.905-30.999c-3.436-7.494-7.355-14.744-13.461-20.52c-0.062-0.104-0.109-0.224-0.191-0.307
		c-0.041-0.041-0.148-0.017-0.225-0.022c0.165,0.082,0.331,0.162,0.495,0.243c-0.038,1.77,1.155,2.973,1.982,4.351
		c8.41,14.022,15.12,28.738,18.31,44.889C33.614,80.993,33.581,81.931,34.515,82.426z M33.52,97.345c-0.057,0-0.114,0-0.171,0
		c0-1.774,0.152-3.566-0.022-5.325C30.955,68.105,21.417,47.027,7.739,27.598c-0.331-0.469-0.641-1.206-1.252-1.075
		c-0.998,0.215-0.594,1.178-0.585,1.816c0.115,9.225,1.61,18.277,3.755,27.208c4.092,17.028,10.98,32.796,21.751,46.733
		c0.435,0.562,0.782,1.526,1.558,1.367c0.922-0.191,0.51-1.203,0.536-1.858C33.562,100.31,33.52,98.827,33.52,97.345z"/>
	<path fill-rule="evenodd" clip-rule="evenodd" d="M83.855,118.784c-1.184-0.487-2.527-1.08-2.178-2.644
		c1.607-7.19-0.046-14.534,1.24-21.767c2.662-14.99,9.681-27.69,19.708-38.91c2.967-3.319,6.067-6.529,9.623-9.191
		c4.491-3.362,8.457-7.157,11.562-11.845c0.765-1.156,1.5-2.604,3.358-1.487c1.609,0.967,0.772,2.213,0.386,3.337
		c-2.988,8.667-2.09,17.894-3.949,26.739c-3.694,17.564-11.188,32.916-24.884,44.923c-4.176,3.663-9.594,5.679-13.16,10.114
		C85.143,118.578,84.552,118.787,83.855,118.784z M106.253,56.323l0.19-0.116l-0.115,0.194c-0.323,0.325-0.647,0.651-0.971,0.978
		c-0.301,0.287-0.603,0.573-0.903,0.859c-0.941,0.646-1.819,1.335-1.73,2.651c-0.665-0.094-0.904,0.266-0.918,0.863
		c-3.385,2.365-5.044,6.086-7.13,9.402c-5.276,8.389-8.375,17.561-8.905,27.518c-0.032,0.633-0.359,1.628,0.469,1.785
		c0.45,0.085,0.397-0.973,0.519-1.526c2.752-12.537,7.466-24.275,14.283-35.16c0.39-0.623,0.819-1.241,0.745-2.037
		c0.61-0.001,0.861-0.342,0.87-0.915c1.079-0.561,1.531-1.524,1.714-2.663c0.305-0.284,0.608-0.57,0.911-0.854
		C105.606,56.976,105.93,56.649,106.253,56.323z M125.521,49.426c-0.205,0.162-0.424,0.309-0.604,0.495
		c-0.04,0.042,0.055,0.214,0.087,0.328c0.181-0.299,0.362-0.599,0.543-0.897l0.069-0.178L125.521,49.426z M126.416,40.449
		c-1.467,0.398-1.755,1.258-0.967,2.517c0.137,0.22,0.343,0.395,0.518,0.591c0.608-0.687,0.344-1.553,0.463-2.337
		c0.041-0.269-0.054-0.559-0.087-0.837c0.197-0.138,0.515-0.242,0.565-0.421c0.093-0.325-0.151-0.471-0.325-0.238
		C126.447,39.905,126.467,40.202,126.416,40.449z M94.601,106.105c1.692,0.046,2.613-1.259,3.677-2.213
		c5.423-4.865,10.069-10.363,13.577-16.796c4.862-8.91,7.866-18.426,9.419-28.424c0.101-0.647,0.303-1.401-0.357-1.95
		c-0.153,0.552-0.317,1.102-0.458,1.656c-2.981,11.829-7.481,22.99-14.407,33.109c-3.505,5.123-7.424,9.918-11.366,14.698
		c-0.045,0.088-0.09,0.175-0.134,0.263C94.567,106.335,94.584,106.22,94.601,106.105z M119.79,50.155
		c-0.185-1.183,0.747-2.468-0.44-3.018c-0.846-0.391-1.452,0.777-2.132,1.297c-4.406,3.358-7.956,7.566-11.258,11.929
		c-9.1,12.026-14.497,25.716-17.554,40.39c-0.481,2.318-0.757,4.678-1.115,7.021c-0.085,0.562-0.288,1.272,0.332,1.564
		c0.643,0.302,1.042-0.393,1.469-0.754c0.563-0.479,1.057-1.038,1.592-1.551c7.671-7.35,13.75-15.921,18.853-25.168
		C115.026,71.918,118.317,61.205,119.79,50.155z M125.079,52.783c-0.064,0.12-0.164,0.235-0.182,0.362
		c-0.021,0.137,0.038,0.286,0.061,0.429c0.067-0.122,0.173-0.237,0.191-0.367C125.17,53.073,125.106,52.924,125.079,52.783z"/>
	<path fill-rule="evenodd" clip-rule="evenodd" d="M59.799,64.396c-0.383-9.637,0.42-19.242,0.775-28.859
		c0.021-0.578,0.189-1.149,0.288-1.725c0.813,0.381,0.501,1.154,0.546,1.748c1.452,19.082,1.442,38.167,0.084,57.254
		c-0.021,0.295-0.001,0.599-0.066,0.884c-0.129,0.564-0.304,1.119-0.458,1.678c-0.133-0.559-0.359-1.113-0.384-1.676
		C60.153,83.936,59.451,74.18,59.799,64.396z"/>
	<path fill-rule="evenodd" clip-rule="evenodd" d="M11.229,40.812c2.493,3.702,3.822,7.937,5.358,12.051
		c5.07,13.571,9.902,27.227,13.607,41.252c0.144,0.548,0.219,1.114,0.327,1.673c-0.93,0.003-0.906-0.887-1.121-1.384
		c-4.916-11.419-9.136-23.099-12.955-34.927c-1.409-4.36-2.844-8.712-4.165-13.1c-0.548-1.822-1.332-3.64-0.975-5.633L11.229,40.812
		z"/>
	<path fill-rule="evenodd" clip-rule="evenodd" d="M8.081,38.594c-0.469-0.036-0.689-0.327-0.669-0.759
		c0.005-0.109,0.266-0.206,0.409-0.309c0.061,0.379,0.123,0.757,0.183,1.135L8.081,38.594z"/>
	<path fill-rule="evenodd" clip-rule="evenodd" d="M115.107,55.497c-0.262,3.497-2.054,6.448-3.538,9.468
		c-5.721,11.64-11.185,23.426-18.644,34.118l0.088,0.089c-0.203-1.241,0.276-2.335,0.764-3.415
		c6.147-13.644,12.658-27.103,20.688-39.767c0.134-0.209,0.479-0.285,0.725-0.424L115.107,55.497z"/>
	<path fill-rule="evenodd" clip-rule="evenodd" d="M115.189,55.565c-0.14-0.788,0.14-1.387,0.817-1.807l-0.082-0.084
		c0.049,0.752,0.219,1.558-0.817,1.822L115.189,55.565z"/>
	<path fill-rule="evenodd" clip-rule="evenodd" d="M92.926,99.083c-0.079,0.112-0.159,0.225-0.238,0.336
		c0.109-0.082,0.218-0.165,0.326-0.247L92.926,99.083z"/>
	<path fill-rule="evenodd" clip-rule="evenodd" d="M116.007,53.759c0.067-0.096,0.135-0.191,0.2-0.286
		c-0.094,0.067-0.188,0.135-0.282,0.202L116.007,53.759z"/>
</g>
</svg>
