<?xml version="1.0" encoding="utf-8"?>
<!-- Generator: Adobe Illustrator 16.0.0, SVG Export Plug-In . SVG Version: 6.00 Build 0)  -->
<!DOCTYPE svg PUBLIC "-//W3C//DTD SVG 1.1//EN" "http://www.w3.org/Graphics/SVG/1.1/DTD/svg11.dtd">
<svg version="1.1" id="Layer_1003" xmlns="http://www.w3.org/2000/svg" xmlns:xlink="http://www.w3.org/1999/xlink" x="0px" y="0px"
	 width="128px" height="128px" viewBox="0 0 128 128" enable-background="new 0 0 128 128" xml:space="preserve">
<g>
	<path fill-rule="evenodd" clip-rule="evenodd" d="M48.389,73.045c0.18-17.382,2.874-30.715,8.013-43.549
		c1.392-3.476,2.318-7.026,2.586-10.757c0.061-0.852,0.139-1.714,0.332-2.542c0.275-1.182,0.169-2.769,2.08-2.638
		c1.559,0.106,1.569,1.38,1.746,2.503c0.154,0.982,0.361,1.958,0.493,2.944c1.05,7.851,4.86,14.859,6.81,22.451
		c5.05,19.674,5.521,39.108-1.9,58.377c-1.732,4.496-4.864,8.417-5.437,13.381c-0.095,0.818-0.76,1.117-1.532,1.209
		c-1.151,0.138-1.969-0.347-2.38-1.381C53.617,99.025,47.458,85.146,48.389,73.045z M65.7,33.901
		c-0.054-0.539-0.106-1.078-0.16-1.615c-0.112,0.027-0.311,0.031-0.326,0.085c-0.168,0.615,0.254,1.015,0.568,1.451
		c0.099,0.547,0.196,1.095,0.295,1.642c0.108-0.051,0.298-0.083,0.312-0.153C66.52,34.674,66.155,34.262,65.7,33.901z
		 M56.435,99.692c0.002,0.511-0.123,1.051,0.346,1.45c0.057-0.109,0.189-0.254,0.158-0.323c-0.168-0.367-0.376-0.716-0.571-1.07
		c0.125-1.153-0.127-2.256-0.366-3.379c-2.831-13.299-4.472-26.688-3.198-40.319c0.212-2.261,0.101-4.55,0.138-6.828
		c0.771-0.794,0.813-1.781,0.66-2.779c-0.062-0.401-0.395-0.437-0.435-0.124c-0.104,0.84-0.133,1.688-0.184,2.534
		C52.974,48.996,53,49.138,53.01,49.28c-0.267,0.312-0.708,0.59-0.775,0.94c-2.499,13.147-2.923,26.296,0.383,39.37
		C53.5,93.074,53.859,96.821,56.435,99.692z M65.692,100.484c1.623-1.545,1.991-3.688,2.646-5.674
		c3.959-12.003,4.518-24.336,3.268-36.787c-0.641-6.383-1.915-12.677-3.823-18.821c-0.156-0.503-0.297-1.402-0.762-1.282
		c-0.519,0.134-0.298,0.98-0.204,1.538c0.023,0.139,0.086,0.272,0.115,0.411c3.173,14.512,3.231,29.118,1.57,43.819
		c-0.642,5.681-2.203,11.188-2.733,16.872c-0.137,0.215-0.286,0.424-0.4,0.65c-0.028,0.057,0.059,0.173,0.093,0.262
		C65.538,101.143,65.615,100.814,65.692,100.484z M67.714,66.402c0-2.282,0.056-4.567-0.009-6.847
		c-0.29-10.199-2.297-20.095-5.379-29.791c-0.24-0.756-0.414-1.803-1.356-1.836c-0.305-0.011-0.731,1.119-0.966,1.775
		c-2.068,5.783-3.618,11.7-4.551,17.777C53.529,60,53.88,72.524,55.625,85.008c0.967,6.916,2.466,13.751,4.527,20.439
		c0.18,0.586,0.23,1.547,1.081,1.494c0.351-0.021,0.753-0.795,0.955-1.298c0.315-0.79,0.489-1.638,0.708-2.465
		C66.077,91.127,67.946,78.896,67.714,66.402z M60.661,19.736c-0.043,1.346-0.155,2.414,0.953,2.942
		c0.559,0.267,0.695-0.273,0.674-0.672c-0.066-1.275-0.217-2.538-1.224-3.489C60.896,19.027,60.727,19.538,60.661,19.736z
		 M54.424,42.77c-0.053-0.125-0.105-0.252-0.157-0.378c-0.082,0.104-0.21,0.199-0.236,0.315c-0.085,0.387,0.044,0.566,0.294,0.442
		C54.402,43.111,54.394,42.901,54.424,42.77z"/>
	<path fill-rule="evenodd" clip-rule="evenodd" d="M35.083,92.187c-0.632,6.46,0.052,12.81,1.517,19.105
		c0.25,1.072,0.736,2.367-0.816,2.896c-1.465,0.497-2.097-0.661-2.54-1.693c-3.042-7.086-8.659-12.342-13.043-18.471
		C7.58,76.382,0.01,57.075,0.629,35.04c0.136-4.839,1.558-9.597,0.872-14.489c-0.132-0.946,0.396-1.657,1.283-1.992
		c0.89-0.337,1.743-0.183,2.2,0.717c2.65,5.223,7.692,8.349,11.178,12.866C29.248,49.101,34.641,68.529,35.08,89.617
		C35.099,90.474,35.083,91.33,35.083,92.187z M25.479,97.157l0.115,0.145l-0.162-0.105c-0.1-0.48-0.371-0.771-0.883-0.794
		c-0.059-0.522-0.357-0.798-0.873-0.853c0.018-0.712-0.105-1.364-0.759-1.791c-0.159-1.131-0.678-2.018-1.729-2.54
		c0.149-0.945-0.474-1.601-0.878-2.338c-4.038-7.381-7.639-14.95-10.246-22.977c-3.09-9.512-5.162-19.228-6.378-29.148
		c-0.174-1.421,0.015-3.012-1.02-4.26c-0.106,1.416-0.296,2.831-0.303,4.247C2.266,56.375,8.896,73.829,19.648,89.938
		c0.383,0.573,0.765,1.221,1.607,1.223c-0.105,1.311,0.42,2.193,1.73,2.539c-0.032,0.718,0.245,1.297,0.779,1.765
		c0.289,0.285,0.579,0.57,0.868,0.854C24.777,96.737,25.012,97.064,25.479,97.157z M31.552,104.93l-0.202-0.153l0.28,0.081
		c0.191,1.783,1.06,3.184,2.426,4.303l-0.05,0.046C34.333,107.124,34.001,105.419,31.552,104.93z M32.469,79.91
		c0.048,0.937,0.094,1.875,0.145,2.812c0.021,0.38,0.224,0.387,0.307-0.033c0.188-0.955-0.056-1.861-0.524-2.707
		c-0.507-10.476-3.278-20.401-7.618-29.871c-3.311-7.222-7.088-14.208-12.972-19.774c-0.06-0.101-0.104-0.216-0.185-0.296
		c-0.04-0.039-0.143-0.016-0.217-0.021c0.16,0.078,0.319,0.156,0.478,0.234c-0.036,1.706,1.113,2.865,1.91,4.193
		c8.104,13.511,14.57,27.693,17.645,43.256C31.601,78.529,31.569,79.433,32.469,79.91z M31.511,94.288c-0.055,0-0.11,0-0.165,0
		c0-1.711,0.146-3.437-0.021-5.132c-2.287-23.045-11.477-43.357-24.658-62.08c-0.319-0.452-0.617-1.163-1.206-1.036
		c-0.962,0.208-0.572,1.135-0.565,1.75c0.112,8.89,1.552,17.613,3.619,26.219c3.942,16.41,10.581,31.604,20.96,45.035
		c0.419,0.542,0.754,1.471,1.502,1.317c0.888-0.185,0.491-1.16,0.517-1.791C31.55,97.145,31.511,95.716,31.511,94.288z"/>
	<path fill-rule="evenodd" clip-rule="evenodd" d="M87.57,114.271c-1.064-0.439-2.272-0.973-1.959-2.379
		c1.446-6.472-0.041-13.08,1.115-19.589c2.396-13.49,8.713-24.919,17.736-35.015c2.67-2.986,5.461-5.875,8.661-8.271
		c4.04-3.026,7.609-6.44,10.404-10.66c0.688-1.04,1.349-2.343,3.022-1.338c1.448,0.87,0.696,1.992,0.347,3.004
		c-2.688,7.799-1.881,16.103-3.554,24.062c-3.324,15.805-10.068,29.621-22.392,40.427c-3.76,3.296-8.635,5.11-11.844,9.102
		C88.729,114.086,88.198,114.274,87.57,114.271z M107.815,56.829l0.184-0.111l-0.111,0.187c-0.312,0.313-0.623,0.627-0.935,0.942
		c-0.292,0.276-0.581,0.552-0.871,0.828c-0.907,0.623-1.752,1.287-1.667,2.555c-0.643-0.091-0.871,0.256-0.886,0.832
		c-3.262,2.278-4.859,5.864-6.87,9.06c-5.085,8.084-8.071,16.922-8.582,26.518c-0.031,0.609-0.346,1.568,0.451,1.72
		c0.436,0.083,0.384-0.937,0.501-1.471c2.651-12.081,7.194-23.393,13.764-33.881c0.375-0.6,0.789-1.196,0.719-1.963
		c0.588-0.001,0.83-0.33,0.838-0.882c1.039-0.54,1.477-1.469,1.652-2.565c0.292-0.274,0.585-0.549,0.878-0.823
		C107.191,57.458,107.504,57.144,107.815,56.829z M123.275,50.183c-0.199,0.156-0.409,0.297-0.582,0.477
		c-0.039,0.041,0.053,0.207,0.084,0.316c0.174-0.289,0.349-0.577,0.522-0.864l0.068-0.172L123.275,50.183z M124.139,41.532
		c-1.414,0.384-1.692,1.213-0.933,2.426c0.132,0.211,0.331,0.38,0.499,0.57c0.586-0.662,0.332-1.497,0.446-2.252
		c0.039-0.259-0.052-0.539-0.083-0.808c0.189-0.132,0.495-0.232,0.544-0.406c0.089-0.312-0.146-0.453-0.313-0.229
		C124.168,41.008,124.187,41.294,124.139,41.532z M96.588,104.801c1.631,0.045,2.519-1.213,3.541-2.131
		c5.226-4.689,9.704-9.987,13.085-16.186c4.686-8.587,7.58-17.757,9.076-27.392c0.097-0.623,0.291-1.351-0.345-1.878
		c-0.147,0.532-0.307,1.061-0.44,1.596c-2.873,11.399-7.209,22.154-13.884,31.905c-3.379,4.937-7.154,9.558-10.954,14.164
		c-0.042,0.084-0.086,0.169-0.129,0.253C96.555,105.022,96.571,104.911,96.588,104.801z M120.86,50.885
		c-0.177-1.139,0.721-2.378-0.424-2.907c-0.815-0.377-1.399,0.749-2.056,1.25c-4.245,3.236-7.666,7.291-10.848,11.495
		c-8.769,11.589-13.971,24.781-16.916,38.922c-0.464,2.234-0.729,4.508-1.074,6.765c-0.083,0.542-0.277,1.227,0.32,1.508
		c0.619,0.291,1.003-0.378,1.414-0.727c0.543-0.46,1.019-1,1.534-1.494c7.394-7.082,13.251-15.343,18.168-24.253
		C116.271,71.856,119.44,61.533,120.86,50.885z M122.85,53.417c-0.062,0.117-0.158,0.227-0.176,0.349
		c-0.019,0.132,0.037,0.275,0.059,0.414c0.065-0.117,0.166-0.229,0.185-0.353C122.938,53.697,122.876,53.554,122.85,53.417z"/>
	<path fill-rule="evenodd" clip-rule="evenodd" d="M59.942,64.608c-0.369-9.287,0.405-18.542,0.747-27.811
		c0.021-0.557,0.182-1.107,0.278-1.662c0.784,0.367,0.483,1.112,0.526,1.685c1.399,18.388,1.39,36.779,0.082,55.172
		c-0.021,0.284-0.001,0.578-0.064,0.853c-0.124,0.544-0.292,1.078-0.441,1.616c-0.128-0.538-0.347-1.072-0.371-1.614
		C60.283,83.438,59.606,74.037,59.942,64.608z"/>
	<path fill-rule="evenodd" clip-rule="evenodd" d="M10.029,39.81c2.402,3.567,3.683,7.648,5.164,11.613
		C20.079,64.5,24.735,77.66,28.305,91.175c0.139,0.528,0.211,1.073,0.316,1.612c-0.896,0.003-0.874-0.854-1.08-1.333
		c-4.738-11.004-8.804-22.259-12.484-33.657c-1.357-4.201-2.74-8.396-4.013-12.623c-0.528-1.755-1.283-3.508-0.939-5.429
		L10.029,39.81z"/>
	<path fill-rule="evenodd" clip-rule="evenodd" d="M10.104,39.745c-0.452-0.036-0.665-0.314-0.645-0.731
		c0.005-0.105,0.255-0.198,0.394-0.297c0.059,0.365,0.118,0.729,0.177,1.093L10.104,39.745z"/>
	<path fill-rule="evenodd" clip-rule="evenodd" d="M116.348,56.033c-0.251,3.37-1.979,6.213-3.409,9.124
		c-5.512,11.217-10.777,22.574-17.966,32.878l0.085,0.086c-0.196-1.196,0.267-2.25,0.735-3.291
		c5.925-13.148,12.2-26.117,19.936-38.321c0.129-0.203,0.462-0.275,0.699-0.409L116.348,56.033z"/>
	<path fill-rule="evenodd" clip-rule="evenodd" d="M116.428,56.1c-0.135-0.76,0.134-1.337,0.787-1.741l-0.078-0.081
		c0.046,0.725,0.21,1.5-0.789,1.755L116.428,56.1z"/>
	<path fill-rule="evenodd" clip-rule="evenodd" d="M94.973,98.034c-0.076,0.108-0.152,0.217-0.229,0.325
		c0.105-0.08,0.21-0.16,0.314-0.239L94.973,98.034z"/>
	<path fill-rule="evenodd" clip-rule="evenodd" d="M117.215,54.358c0.065-0.092,0.13-0.184,0.193-0.276
		c-0.091,0.065-0.181,0.131-0.271,0.195L117.215,54.358z"/>
</g>
</svg>
