<?xml version="1.0" encoding="utf-8"?>
<!-- Generator: Adobe Illustrator 16.0.0, SVG Export Plug-In . SVG Version: 6.00 Build 0)  -->
<!DOCTYPE svg PUBLIC "-//W3C//DTD SVG 1.1//EN" "http://www.w3.org/Graphics/SVG/1.1/DTD/svg11.dtd">
<svg version="1.1" id="Layer_1004" xmlns="http://www.w3.org/2000/svg" xmlns:xlink="http://www.w3.org/1999/xlink" x="0px" y="0px"
	 width="128px" height="128px" viewBox="0 0 128 128" enable-background="new 0 0 128 128" xml:space="preserve">
<g>
	<path fill-rule="evenodd" clip-rule="evenodd" d="M125.599,20.764c1.827,1.242,0.694,2.806,0.154,3.976
		c-2.802,6.074-3.126,12.668-4.243,19.091c-3.307,19.028-7.141,37.925-13.467,56.229c-1.927,5.582-4.479,10.855-7.657,15.827
		c-1.371,2.143-2.954,4.129-5.144,5.459c-3.928,2.385-8.846,2.277-10.751-3.748c-1.579-4.991-0.772-10.006,0.308-14.94
		c2.715-12.399,8.054-23.819,13.551-35.146c6.087-12.544,12.925-24.686,20.221-36.571c1.209-1.971,2.061-4.161,3.078-6.25
		c0.357,0.363,0.716,0.726,1.072,1.088c-0.044,0.631-0.088,1.263-0.131,1.894c-0.148,0.265-0.312,0.522-0.434,0.799
		c-0.032,0.073,0.059,0.201,0.092,0.304c0.086-0.399,0.173-0.798,0.261-1.198c0.924-0.504,1.178-1.058,0.13-1.712
		c-0.356-0.366-0.715-0.73-1.073-1.096c0.24-0.727-0.216-1.772,0.651-2.129c0.285-0.117,0.955,0.702,1.449,1.093
		c0.161,0.227-0.02,1.16,0.622,0.345c0.112-0.14-0.359-0.411-0.706-0.254c0.046-1.035,0.092-2.069,0.138-3.103l-0.108,0.058
		c0.37,0,0.741,0.001,1.113,0.001l-0.112-0.103c0.177,0.407,0.354,0.815,0.529,1.223c0.195-0.403,0.391-0.807,0.586-1.209
		L125.599,20.764z M115.494,39.764c0.108-0.253,0.875-0.124,0.412-0.709c-0.102,0.268-0.202,0.537-0.306,0.806
		c-0.915,0.453-1.067,1.238-0.936,2.147c-0.78,0.038-1.153,0.623-1.479,1.192c-9.687,16.908-18.814,34.094-25.005,52.652
		c-1.804,5.41-3.138,10.984-2.874,16.793c0.077,1.688,0.208,3.349,0.965,4.902c0.322,0.66,0.803,1.12,1.526,1.049
		c0.718-0.071,1.414-0.669,1.276-1.302c-0.902-4.159,2.763-6.468,3.872-9.812c3.005-9.075,6.401-18.024,9.236-27.149
		c1.783-5.734,4.529-11.182,5.315-17.223c1.036-0.762,0.742-1.975,1.017-2.996l0.142-0.169l-0.118,0.232
		c-0.36-0.034-0.724-0.067-1.085-0.101c2.829-5.87,6.035-11.592,7.122-18.146C115.572,41.501,115.499,40.617,115.494,39.764z
		 M120.538,32.661c0.105-0.126,0.209-0.251,0.315-0.377c-0.077,0.157-0.152,0.313-0.229,0.47c-0.094,0.27-0.185,0.541-0.278,0.811
		C120.411,33.264,120.476,32.962,120.538,32.661z M88.314,120.646c-0.109-0.162-0.22-0.324-0.33-0.485
		c0.014,0.095-0.006,0.235,0.048,0.274c0.103,0.074,0.245,0.089,0.373,0.127c0.987,1.455,1.995,1.38,3.017,0.039
		c3.894,0.307,5.609-2.677,7.392-5.207c3.3-4.686,5.567-9.944,7.542-15.306c4.006-10.879,6.71-22.131,9.169-33.432
		c1.853-8.515,3.346-17.106,4.982-25.668c0.124-0.648,0.299-1.695-0.284-1.823c-0.645-0.141-0.827,0.909-0.998,1.512
		c-0.954,3.376-2.512,6.533-3.11,10.059c-1.07,6.272-2.31,12.531-3.832,18.708c-4.199,17.013-9.703,33.514-19.947,48.022
		c-0.719,1.018-1.248,1.979-0.826,3.237C90.445,120.684,89.381,120.664,88.314,120.646z M92.392,114.457
		c1.306-1.113,2.013-2.651,2.841-4.09c6.641-11.545,11.268-23.904,14.547-36.767c2.064-8.094,4.416-16.15,4.816-24.577
		c0.189-0.26,0.436-0.496,0.557-0.784c0.179-0.418,0.349-0.884-0.118-1.263c-0.129,0.384-0.302,0.76-0.373,1.155
		c-0.058,0.31,0.012,0.644,0.023,0.968c-1.582,1.43-1.809,3.49-2.433,5.349c-5.28,15.725-10.55,31.453-15.784,47.193
		c-1.421,4.27-3.652,8.291-3.996,12.895L92.392,114.457z"/>
	<path fill-rule="evenodd" clip-rule="evenodd" d="M64.018,31.694c2.223,4.605,1.027,9.584,1.407,14.368
		c1.281,16.088,0.634,32.237,0.893,48.36c0.104,6.539,0.295,13.077,0.338,19.615c0.009,1.277,0.15,1.931,1.568,1.572l-0.088-0.084
		c0.036,0.332,0.058,0.666,0.108,0.998c0.16,1.049-0.62,2.54,1.109,2.887c1.433,0.287,2.052-0.924,2.645-1.904
		c1.131-1.871,1.935-3.892,2.415-6.031c0.992-4.418,1.717-8.864,1.859-13.406c0.494-15.805-1.412-31.423-3.605-47.016
		c-0.954-6.789-1.913-13.583-3.47-20.27c-0.11-0.473-0.273-0.933-0.412-1.398c-0.838,0.277-0.456,1-0.47,1.497
		c-0.095,3.681-0.126,7.364-0.177,11.047l0.098-0.094c-1.688-2.092-1.803-4.765-1.706-7.103c0.301-7.194,1.095-14.369,1.727-21.549
		c0.036-0.412,0.332-0.803,0.508-1.204c0.106,0.482,0.31,0.965,0.307,1.446c-0.061,13.863,4.096,27.137,5.691,40.776
		c1.931,16.513,4.219,32.964,2.629,49.662c-0.386,4.062-1.3,7.961-2.75,11.707c-1.003,2.595-2.057,5.438-5.424,6.048
		c-0.756-1.347-1.843-1.592-3.184-0.94c-0.131,0.063-0.304,0.335-0.294,0.345c0.909,0.886,2.044,0.451,3.098,0.51
		c0.158,0.009,0.316-0.016,0.476-0.023c-3.377,1.671-4.931,1.431-7.737-1.411c-3.758-3.804-4.713-8.843-5.452-13.779
		c-1.95-13.035-0.945-26.091,0.436-39.105c1.626-15.329,4.318-30.489,7.479-45.573c0.763-3.641,0.023-7.355-0.052-11.036
		c-0.027-1.335-0.109-2.684,0.043-4.003c0.091-0.8,0.541-1.7,1.652-1.362c0.7,0.214,1.156,1.149,0.891,1.586
		c-1.951,3.205-0.263,6.53-0.449,9.778c-0.184,3.175-0.285,6.374-0.097,9.543c0.132,2.238-2.635,3.306-1.914,5.622
		c-0.197,0.267-0.517,0.511-0.573,0.805c-4.425,23.141-7.98,46.362-6.392,70.053c0.259,3.883,1.228,7.615,2.432,11.292
		c0.584,1.781,1.644,3.304,2.907,4.677c0.459,0.498,1.021,0.965,1.742,0.731c1.064-0.345,0.936-1.278,0.751-2.075
		c-0.613-2.611-1.417-5.185-1.931-7.814c-3.984-20.429-2.365-40.829,0.592-61.184C64.448,42.708,64.503,37.227,64.018,31.694z
		 M65.378,82.257c-0.032,0-0.064,0-0.097,0c0-0.84,0.007-1.681,0-2.52c-0.055-6.885-0.107-13.771-0.18-20.655
		c-0.004-0.493-0.156-1.416-0.22-1.415c-0.875,0.024-0.68,0.84-0.836,1.359c-0.288,0.962-0.595,1.945-0.678,2.938
		c-1.233,14.752-1.834,29.498,0.75,44.186c0.112,0.638,0.003,1.811,0.542,1.755c0.973-0.102,0.691-1.26,0.694-1.972
		C65.391,98.042,65.378,90.148,65.378,82.257z"/>
	<path fill-rule="evenodd" clip-rule="evenodd" d="M20.953,61.07c-0.347,0.042-0.693,0.086-1.04,0.128l-0.095-0.37L20,61.118
		c4.835,16.64,10.428,33.036,16.702,49.174c1.018,2.619,2.342,5.003,2.662,7.89c0.224,2.013-0.798,2.265-2.237,2.432
		c0.201-1.89-1.123-3.057-2.053-4.433c-3.672-5.438-6.869-11.122-9.393-17.206c-5.294-12.757-9.236-25.899-11.875-39.455
		c-1.182-6.07-2.017-12.237-4.351-18.03c-0.238-0.593-0.41-1.629-1.08-1.511c-0.607,0.108-0.43,1.112-0.323,1.727
		c0.924,5.287,1.816,10.581,2.831,15.851c2.987,15.508,6.551,30.874,12.337,45.618c2.081,5.306,4.257,10.618,8.382,14.801
		c1.559,1.581,3.072,3.192,5.625,2.532c1.368,2.194,2.512,0.921,3.395-0.354c2.418-3.494,2.771-7.467,2.293-11.552
		c-0.547-4.673-1.682-9.228-3.133-13.69c-1.761-5.416-3.759-10.746-6.15-15.924c-0.697-1.509-1.593-2.965-1.628-4.708l0.198-0.194
		c0.981,0.427,1.535,1.229,1.956,2.17c4.131,9.188,7.761,18.556,9.751,28.469c0.663,3.298,0.669,6.671,0.374,10.025
		c-0.276,3.151-1.302,6.268-4.234,7.532c-3.376,1.456-6.525-0.145-9.111-2.602c-2.091-1.984-3.627-4.377-4.967-6.908
		c-6.407-12.104-10.006-25.173-13.108-38.398c-3.136-13.375-5.515-26.897-7.5-40.483c-0.521-3.568-2.06-6.693-3.259-9.984
		c-0.148-0.405-0.68-1.446,0.416-1.426c0.466,0.01,0.917,0.864,1.372,1.335l-0.089-0.093c0.241,0.725,0.349,1.531,1.176,1.892
		c0.286,0.356-0.482,1.202,0.559,1.208c-0.219-0.373-0.438-0.744-0.657-1.117c0.012-0.665,0.026-1.331,0.041-1.996l-0.097,0.12
		c0.923-0.425,1.095-1.239,1.106-2.137l-0.104,0.12C8.358,29.854,13.15,36.744,17.353,43.9c4.916,8.374,9.208,17.059,13.628,25.685
		c0.315,0.612,1.323,1.599,0.303,2.11c-0.774,0.389-1.276-0.807-1.644-1.494c-4.012-7.521-7.96-15.078-12.009-22.581
		c-1.427-2.643-3.085-5.161-4.637-7.736c-0.315-0.442-0.467-0.485-0.374-0.15c0.016,0.055,0.308,0.032,0.472,0.045
		c0.932,5.096,2.514,9.96,4.955,14.551c1.157,2.176,2.895,4.145,2.808,6.841L20.953,61.07z M35.094,112.548
		c0.106,0.423,0.215,0.845,0.321,1.266c0.175-0.142,0.484-0.271,0.5-0.432c0.053-0.506-0.193-0.856-0.754-0.892
		c0.211-1.386-0.28-2.634-0.742-3.896C28.434,92.26,22.998,75.745,17.772,59.151c-0.97-3.081-1.638-6.484-3.902-9.093
		c0.023-0.495,0.092-0.993,0.051-1.483c-0.026-0.313-0.215-0.612-0.331-0.918c-0.571,0.251-0.582,0.743-0.499,1.242
		c0.085,0.509,0.331,0.922,0.864,1.091c0.016,1.67-0.255,3.402,0.092,5.001c3.624,16.74,7.916,33.288,15.398,48.802
		C30.947,106.906,32.311,110.215,35.094,112.548z M7.523,31.928l-0.142-0.411l-0.138,0.409L7.523,31.928z"/>
	<path fill-rule="evenodd" clip-rule="evenodd" d="M71.257,99.429c0.101-14.483,0.219-28.968-1.009-43.42l-0.094,0.041
		c0.63,0.627,0.774,1.44,0.872,2.272c1.414,12.073,1.562,24.188,1.152,36.317c-0.054,1.621,0.222,3.363-1.015,4.753L71.257,99.429z"
		/>
	<path fill-rule="evenodd" clip-rule="evenodd" d="M68.224,115.609c0.656-5.46,1.616-10.863,3.033-16.181l-0.093-0.037
		c0.081,5.583-0.312,11.076-3.028,16.134L68.224,115.609z"/>
	<path fill-rule="evenodd" clip-rule="evenodd" d="M70.248,56.009c-1.723-4.575-1.853-9.377-2.012-14.175l-0.098,0.094
		c1.358,4.609,2.51,9.248,2.016,14.122L70.248,56.009z"/>
	<path fill-rule="evenodd" clip-rule="evenodd" d="M4.27,18.02c-0.558,0.684,0.258,2.507-1.668,2.029
		c-0.527-0.131-1.298,0.243-1.491-0.695c-0.349-1.688,1.314-1.596,2.067-2.227C3.729,16.666,4.312,17.198,4.27,18.02z"/>
	<path fill-rule="evenodd" clip-rule="evenodd" d="M123.727,17.688c1.104-1.511,2.107-0.309,2.751,0.343
		c1.207,1.22-0.274,1.905-0.879,2.733l0.129-0.071c-0.372-0.005-0.743-0.01-1.115-0.014l0.112,0.103
		c-0.027-1.168,0.09-2.387-1.098-3.151L123.727,17.688z"/>
	<path fill-rule="evenodd" clip-rule="evenodd" d="M32.214,86.139c-1.645-1.193-1.944-2.986-2.15-4.821l-0.089,0.081
		c1.512,1.255,2.087,2.927,2.146,4.828L32.214,86.139z"/>
	<path fill-rule="evenodd" clip-rule="evenodd" d="M38.114,107.549c-0.16,0.398-0.27,0.675-0.38,0.951
		c-0.169-0.348-0.468-0.694-0.471-1.044c-0.003-0.357,0.284-0.721,0.443-1.081C37.853,106.798,38,107.221,38.114,107.549z"/>
	<path fill-rule="evenodd" clip-rule="evenodd" d="M36.989,102.49c-0.189,0.272-0.315,0.454-0.439,0.635
		c-0.072-0.291-0.207-0.583-0.2-0.873c0.007-0.281,0.158-0.559,0.245-0.838C36.734,101.793,36.873,102.172,36.989,102.49z"/>
	<path fill-rule="evenodd" clip-rule="evenodd" d="M33.004,89.461c1.133,0.62,0.977,1.777,1.16,2.792l0.093-0.091
		c-1.405-0.503-0.981-1.77-1.159-2.784L33.004,89.461z"/>
	<path fill-rule="evenodd" clip-rule="evenodd" d="M34.164,92.253c0.16,0.263,0.35,0.512,0.473,0.791
		c0.169,0.389,0.408,0.806-0.065,1.169c-0.107-0.377-0.248-0.747-0.312-1.131c-0.05-0.299-0.006-0.612-0.003-0.92L34.164,92.253z"/>
	<path fill-rule="evenodd" clip-rule="evenodd" d="M32.12,86.227c0.936,0.902,0.906,2.069,0.884,3.234l0.095-0.083
		c-1.131-0.852-0.824-2.095-0.885-3.239L32.12,86.227z"/>
	<path fill-rule="evenodd" clip-rule="evenodd" d="M27.977,76.338c1.3,0.638,0.968,1.843,1.016,2.916l0.106-0.096
		c-0.878-0.78-0.996-1.829-1.023-2.909L27.977,76.338z"/>
	<path fill-rule="evenodd" clip-rule="evenodd" d="M4.921,21.775c0.078-0.743-0.15-2.159,0.289-2.098
		c1.122,0.156,0.306,1.411,0.617,2.133l0.104-0.12c-0.373,0.003-0.745,0.006-1.117,0.008L4.921,21.775z"/>
	<path fill-rule="evenodd" clip-rule="evenodd" d="M123.72,20.723c-1.188-1.015-1.08-2.026,0.007-3.034l-0.1-0.058
		c-0.005,1.051-0.012,2.101-0.016,3.15L123.72,20.723z"/>
	<path fill-rule="evenodd" clip-rule="evenodd" d="M35.657,98.753c-0.145-0.267-0.396-0.529-0.405-0.8
		c-0.01-0.27,0.223-0.547,0.351-0.82c0.146,0.266,0.399,0.527,0.409,0.798C36.021,98.2,35.787,98.479,35.657,98.753z"/>
	<path fill-rule="evenodd" clip-rule="evenodd" d="M3.891,23.815c0.112-0.796-0.144-1.779,1.03-2.04L4.813,21.7
		c0.002,0.709,0.007,1.419,0.011,2.129l0.097-0.12c-0.373,0.004-0.746,0.009-1.119,0.013L3.891,23.815z"/>
	<path fill-rule="evenodd" clip-rule="evenodd" d="M28.993,79.254c1.091,0.365,0.881,1.326,0.981,2.145l0.089-0.081
		c-0.644-0.576-0.83-1.355-0.964-2.159L28.993,79.254z"/>
	<path fill-rule="evenodd" clip-rule="evenodd" d="M23.929,67.271c1.018,0.202,0.988,1.058,1.128,1.808l0.088-0.082
		c-1.053-0.182-1-1.05-1.125-1.81L23.929,67.271z"/>
	<path fill-rule="evenodd" clip-rule="evenodd" d="M26.201,70.975c-1.063-0.278-0.956-1.185-1.057-1.978l-0.088,0.082
		c0.349,0.662,0.698,1.325,1.048,1.987L26.201,70.975z"/>
	<path fill-rule="evenodd" clip-rule="evenodd" d="M26.105,71.066c0.191,0.407,0.382,0.814,0.572,1.222
		c-1.08-0.104-0.25-0.9-0.476-1.313L26.105,71.066z"/>
	<path fill-rule="evenodd" clip-rule="evenodd" d="M28.076,76.249c-0.204-0.241-0.427-0.472-0.599-0.733
		c-0.041-0.064,0.082-0.237,0.13-0.359c0.123,0.394,0.247,0.788,0.37,1.182L28.076,76.249z"/>
	<path fill-rule="evenodd" clip-rule="evenodd" d="M22.998,65.211c0.971,0.389,0.836,1.276,0.931,2.061l0.091-0.084
		c-0.705-0.512-0.853-1.273-0.932-2.067L22.998,65.211z"/>
	<path fill-rule="evenodd" clip-rule="evenodd" d="M20.854,61.171c0.148,0.024,0.297,0.047,0.447,0.07
		c-0.116-0.057-0.232-0.114-0.349-0.171L20.854,61.171z"/>
	<path fill-rule="evenodd" clip-rule="evenodd" d="M32.004,74.278c-0.203-0.186-0.406-0.37-0.609-0.556
		c0.604-0.628,0.682-0.08,0.807,0.361L32.004,74.278z"/>
	<polygon fill-rule="evenodd" clip-rule="evenodd" points="23.088,65.12 22.81,64.884 22.998,65.211 	"/>
	<path fill-rule="evenodd" clip-rule="evenodd" d="M90.891,107.37c-0.111-0.312-0.276-0.587-0.295-0.872
		c-0.02-0.293,0.106-0.595,0.169-0.895c0.592,0.131,0.39,0.629,0.4,0.979C91.174,106.833,90.994,107.091,90.891,107.37z"/>
	<path fill-rule="evenodd" clip-rule="evenodd" d="M105.56,65.199c-0.09,0.316-0.106,0.683-0.283,0.939
		c-0.353,0.517-0.791,0.975-1.193,1.455c-0.645-0.986,0.301-1.474,0.712-2.097c0.117-0.179,0.566-0.141,0.862-0.203L105.56,65.199z"
		/>
	<path fill-rule="evenodd" clip-rule="evenodd" d="M92.353,99.326c0.327-1.287-0.107-2.807,1.153-3.812l-0.107-0.097
		c-0.306,1.296,0.208,2.838-1.146,3.819L92.353,99.326z"/>
	<path fill-rule="evenodd" clip-rule="evenodd" d="M92.252,99.237c0.03,0.476,0.107,0.954,0.076,1.426
		c-0.036,0.553,0.135,1.57-0.437,1.496c-0.689-0.088-0.427-1.046-0.251-1.618c0.136-0.436,0.467-0.812,0.712-1.215L92.252,99.237z"
		/>
	<path fill-rule="evenodd" clip-rule="evenodd" d="M94.401,92.292c0.044-0.329,0.077-0.66,0.135-0.988
		c0.056-0.323,0.136-0.644,0.208-0.965c0.748,0.237,0.415,0.749,0.23,1.136c-0.136,0.285-0.445,0.486-0.678,0.726L94.401,92.292z"/>
	<path fill-rule="evenodd" clip-rule="evenodd" d="M94.297,92.2c0.018,1.16,0.246,2.382-0.898,3.218l0.107,0.097
		c-0.003-1.159-0.264-2.388,0.896-3.223L94.297,92.2z"/>
	<path fill-rule="evenodd" clip-rule="evenodd" d="M97.467,83.341c-0.143,1.043-0.205,2.116-1.091,2.878l0.105,0.093
		c0.195-1.022-0.197-2.267,1.085-2.88L97.467,83.341z"/>
	<path fill-rule="evenodd" clip-rule="evenodd" d="M97.566,83.432c-0.055-1.141-0.241-2.319,0.92-3.097l-0.104-0.094
		c0.03,1.132,0.087,2.273-0.916,3.1L97.566,83.432z"/>
	<path fill-rule="evenodd" clip-rule="evenodd" d="M100.379,75.171c0.012,1.1,0.213,2.261-0.976,2.967l0.1,0.088
		c-0.074-1.12,0.081-2.164,0.982-2.961L100.379,75.171z"/>
	<path fill-rule="evenodd" clip-rule="evenodd" d="M107.549,59.995c0.005,1.053,0.011,2.107,0.015,3.16
		c-0.357-0.042-0.715-0.086-1.071-0.129l0.105,0.096C106.529,61.962,106.605,60.847,107.549,59.995z"/>
	<path fill-rule="evenodd" clip-rule="evenodd" d="M96.376,86.219c-0.072,0.444-0.146,0.888-0.216,1.333
		c-0.165-0.114-0.465-0.225-0.468-0.342c-0.013-0.505,0.259-0.833,0.789-0.898L96.376,86.219z"/>
	<path fill-rule="evenodd" clip-rule="evenodd" d="M102.548,71.191c0.041-0.428-0.166-0.934,0.375-1.207
		c0.053,0.126,0.187,0.305,0.146,0.367c-0.18,0.269-0.411,0.502-0.622,0.749L102.548,71.191z"/>
	<path fill-rule="evenodd" clip-rule="evenodd" d="M102.447,71.101c-0.067,0.809-0.188,1.587-1.057,1.962l0.103,0.092
		c0.149-0.763-0.041-1.709,1.055-1.963L102.447,71.101z"/>
	<path fill-rule="evenodd" clip-rule="evenodd" d="M99.403,78.138c-0.122,0.807-0.096,1.686-1.021,2.104l0.104,0.094
		c0.172-0.784,0.039-1.715,1.017-2.109L99.403,78.138z"/>
	<path fill-rule="evenodd" clip-rule="evenodd" d="M101.391,73.062c-0.12,0.807,0.135,1.793-1.012,2.108l0.106,0.094
		c0.11-0.811,0.135-1.662,1.008-2.11L101.391,73.062z"/>
	<path fill-rule="evenodd" clip-rule="evenodd" d="M106.492,63.026c-0.312,0.724-0.622,1.448-0.933,2.173l0.098,0.095
		c0-0.86-0.208-1.811,0.94-2.172L106.492,63.026z"/>
</g>
</svg>
