<?xml version="1.0" encoding="utf-8"?>
<!-- Generator: Adobe Illustrator 16.0.0, SVG Export Plug-In . SVG Version: 6.00 Build 0)  -->
<!DOCTYPE svg PUBLIC "-//W3C//DTD SVG 1.1//EN" "http://www.w3.org/Graphics/SVG/1.1/DTD/svg11.dtd">
<svg version="1.1" id="Layer_1005" xmlns="http://www.w3.org/2000/svg" xmlns:xlink="http://www.w3.org/1999/xlink" x="0px" y="0px"
	 width="128px" height="128px" viewBox="0 0 128 128" enable-background="new 0 0 128 128" xml:space="preserve">
<g>
	<path fill-rule="evenodd" clip-rule="evenodd" d="M47.051,54.604c0-2.512-0.012-5.025,0.002-7.537
		c0.026-4.617,2.319-7.726,6.444-9.585c3.342-1.506,6.92-1.598,10.498-1.765c4.246-0.198,8.477-0.279,12.622,0.83
		c5.248,1.403,8.101,4.499,8.402,9.738c0.577,10.071,0.469,20.12-2.389,29.931c-0.742,2.549-1.604,5.056-3.278,7.172
		c-0.482,0.61-1.114,1.102-1.679,1.647c-0.599-0.793-0.01-1.5,0.201-2.206c1.243-4.181,2.502-8.358,3.793-12.525
		c3.276-10.562-2.154-18.597-13.174-19.418c-3.321-0.247-6.624-0.127-9.812,0.988c-7.075,2.474-10.709,9.224-8.709,16.451
		c1.411,5.098,3.032,10.138,4.57,15.198c0.152,0.499,0.577,1.23,0.142,1.445c-0.699,0.345-0.995-0.548-1.361-0.985
		c-2.622-3.147-3.792-6.961-4.629-10.844C47.38,67.043,46.739,60.855,47.051,54.604z"/>
	<path fill-rule="evenodd" clip-rule="evenodd" d="M58.184,83.523c-0.042,0.74,0.352,1.783-0.644,2.011
		c-0.845,0.192-0.862-0.81-1.042-1.396c-1.758-5.686-3.709-11.324-5.185-17.082c-1.547-6.035,2.156-11.96,8.403-13.819
		c4.279-1.272,8.664-1.249,12.931,0.101c6.409,2.026,9.734,7.821,8.041,14.347c-1.461,5.629-3.305,11.159-5.006,16.726
		c-0.167,0.547-0.276,1.516-1.203,0.993c-0.645-0.361-0.27-1.204-0.322-1.837c0.71-0.978,0.628-2.131,0.723-3.245
		c1.016-0.524,0.767-1.492,0.825-2.353c0.713-0.709,0.76-1.606,0.712-2.53c0.672-0.506,0.959-1.181,0.771-1.998
		c-0.073-0.313-0.411-0.38-0.453-0.18c-0.131,0.61-0.176,1.24-0.247,1.862c-0.014,0.125,0.003,0.255,0.007,0.382
		c-0.949,0.646-0.669,1.637-0.71,2.538c-1.168,0.469-0.789,1.48-0.823,2.348c-0.987,0.912-0.795,2.093-0.735,3.243
		c-0.995,0.38-1.541,1.421-3.002,1.205c-3.47-0.513-7.015-0.476-10.496-0.027c-1.344,0.175-1.826-0.666-2.623-1.223
		c0.062-0.923,0.258-1.885-0.706-2.52c-0.112-1.078,0.092-2.241-0.826-3.104c-0.061-0.373-0.122-0.746-0.183-1.118
		c-0.137,0.097-0.389,0.191-0.392,0.291c-0.01,0.418,0.192,0.715,0.653,0.759c0.055,1.096-0.216,2.277,0.821,3.112
		C57.396,81.938,57.322,82.862,58.184,83.523z M75.703,66.741c0.132,0.448,0.401,0.737,0.891,0.772
		c-0.033,0.392-0.116,0.788-0.087,1.176c0.028,0.383,0.17,0.756,0.262,1.134c0.747-0.228,0.462-0.806,0.347-1.237
		c-0.096-0.359-0.392-0.666-0.599-0.996c-0.292-0.263-0.583-0.527-0.873-0.791c-0.014-0.542-0.326-0.755-0.832-0.754
		c-0.019-0.479-0.315-0.723-0.733-0.863c-0.351-0.672-0.944-0.805-1.63-0.731c-0.548-1.158-1.549-0.792-2.459-0.73
		c-2.564-1.285-5.132-1.338-7.699-0.014c-0.875,0.046-1.943-0.526-2.433,0.758c-0.686-0.074-1.304,0.002-1.625,0.735
		c-0.449,0.12-0.762,0.352-0.719,0.876c-0.541-0.029-0.822,0.219-0.823,0.768c-0.518-0.002-0.787,0.282-0.883,0.765
		c-0.383,0.322-0.703,0.702-0.614,1.231c0.049,0.295,0.361,0.351,0.411,0.127c0.105-0.462,0.094-0.952,0.131-1.431
		c0.509-0.006,0.737-0.339,0.883-0.764c0.274-0.256,0.55-0.512,0.824-0.769c0.398-0.162,0.67-0.426,0.718-0.875
		c0.664,0.02,1.293-0.039,1.64-0.732c0.894,0.018,1.751-0.082,2.422-0.767c2.612,0.003,5.226,0.006,7.838,0.009
		c0.662,0.747,1.535,0.803,2.442,0.747c0.304,0.806,0.971,0.777,1.649,0.723c0.008,0.49,0.295,0.74,0.733,0.862
		C74.995,66.4,75.189,66.739,75.703,66.741z M54.949,72.436c-0.084-0.284-0.168-0.568-0.253-0.853
		c-0.04,0.091-0.141,0.224-0.111,0.267c0.127,0.188,0.292,0.349,0.444,0.52c0.009,0.384-0.006,0.77,0.036,1.148
		c0.041,0.374,0.141,0.742,0.214,1.113c0.667-0.283,0.375-0.824,0.264-1.238C55.45,73.046,55.155,72.753,54.949,72.436z"/>
	<path fill-rule="evenodd" clip-rule="evenodd" d="M40.563,75.877c-0.018,2.512-0.092,4.353-1.074,6.013
		c-1.496-1.484-0.966-3.449-1.22-5.221c-0.544-3.791-0.398-7.673-1.428-11.398c-1.604-5.805-5.61-8.863-11.582-8.879
		c-4.833-0.013-9.07,1.639-12.763,4.704C6.792,65.828,5.941,72.459,10.455,78.3c2.748,3.557,5.78,6.892,8.652,10.353
		c0.367,0.441,1.183,0.853,0.631,1.578c-0.105,0.141-0.938-0.194-1.388-0.408c-2.209-1.053-3.88-2.76-5.336-4.66
		c-5.358-6.994-9.41-14.703-12.208-23.043c-2.088-6.226-0.669-10.062,4.914-13.495c3.963-2.437,8.209-4.492,12.713-5.49
		c7.901-1.749,11.169,0.317,14.012,6.22c3.63,7.542,6.594,15.293,7.82,23.625C40.438,74.155,40.51,75.346,40.563,75.877z"/>
	<path fill-rule="evenodd" clip-rule="evenodd" d="M35.088,77.197c0.063,6.427,0.062,6.426-5.829,8.991
		c-1.326,0.577-2.687,1.091-3.958,1.771c-1.154,0.617-2.003,0.176-2.871-0.493c-0.132-0.424-0.398-0.708-0.84-0.807
		c-0.099-0.428-0.352-0.69-0.8-0.74c-0.051-0.528-0.27-0.863-0.872-0.76c0.085-1.164-0.521-1.913-1.475-2.451
		c-0.28-0.258-0.561-0.515-0.841-0.771c-0.021-0.512-0.217-0.851-0.798-0.808c-0.232-1.203-0.756-2.252-1.644-3.108
		c0.002-1.128,0.005-2.256,0.008-3.384c0.841-0.897,1.561-1.855,1.555-3.171c0.581,0.03,0.847-0.254,0.826-0.825
		c0.676,0.083,1.256-0.072,1.659-0.669c0.452-0.13,0.788-0.356,0.746-0.896c0.646-0.039,1.349,0.044,1.644-0.756
		c0.916,0.099,1.805,0.106,2.45-0.718c1.418-0.044,2.837-0.074,4.254-0.142c0.374-0.017,0.742-0.146,1.112-0.224
		c-0.311-0.112-0.637-0.352-0.929-0.316c-1.469,0.183-3.125-0.671-4.374,0.756c-0.902-0.057-1.857-0.291-2.446,0.72
		c-0.62,0.091-1.203,0.259-1.634,0.757c-0.444,0.136-0.784,0.358-0.748,0.896c-0.666-0.06-1.228,0.14-1.656,0.669
		c-0.278,0.273-0.557,0.546-0.835,0.819c-1.168,0.735-1.478,1.893-1.547,3.165c-1.078,1.083-0.97,2.169-0.013,3.259
		c0.118,1.259,0.314,2.477,1.633,3.104c0.009,0.53,0.277,0.797,0.808,0.8c0.096,0.458,0.337,0.757,0.841,0.77
		c-0.025,1.129,0.753,1.771,1.483,2.441c0.131,0.429,0.372,0.737,0.858,0.776c0.08,0.449,0.33,0.715,0.802,0.739
		c0.033,0.53,0.276,0.837,0.846,0.797c0.115,0.641,0.549,1.603,0.286,1.866c-0.914,0.913-1.309-0.269-1.734-0.764
		c-3.094-3.605-6.233-7.177-9.179-10.901c-4.181-5.286-3.339-11.59,2.007-15.652c3.584-2.723,7.646-4.119,12.19-3.906
		c4.505,0.21,7.752,2.651,9.028,6.991c1.2,4.079,1.283,8.343,1.52,12.541c0.109,1.929,1.481,3.895,0.125,5.857
		c-1.654-1.571-0.263-3.823-1.242-5.543c-0.128-0.225-0.318-0.415-0.48-0.621c-0.229-1.875,0.76-3.913-0.753-5.616
		c-0.018-0.649,0.103-1.362-0.752-1.625c-0.096-0.456-0.307-0.781-0.839-0.745c-0.025-0.496-0.292-0.765-0.781-0.825
		c-0.06-0.288,0.071-0.835-0.527-0.388c0.201,0.104,0.401,0.209,0.602,0.314c0.26,0.274,0.52,0.551,0.779,0.825
		c0.125,0.422,0.393,0.684,0.837,0.747c-0.018,0.669,0.108,1.271,0.758,1.631C34.534,73.458,34.11,75.42,35.088,77.197z"/>
	<path fill-rule="evenodd" clip-rule="evenodd" d="M117.888,53.252c3.801,2.446,5.502,6.342,6.935,10.343
		c1.93,5.392,2.754,11.04,3.229,16.716c0.403,4.845-1.227,7.504-5.783,9.252c-6.652,2.551-13.624,3.277-20.679,2.597
		c-4.663-0.45-6.705-2.428-7.75-7.177c-1.578-7.174-1.921-14.423-0.571-21.684c0.415-2.227,1.334-4.292,2.687-6.13
		c0.205-0.279,0.597-0.422,0.9-0.627c0.059,0.377,0.234,0.78,0.159,1.129c-0.756,3.488-1.604,6.956-2.328,10.449
		c-1.24,5.973,1.142,10.313,6.842,11.984c6.283,1.843,12.377,0.916,17.979-2.367c4.752-2.787,6.164-7.695,3.847-12.717
		c-1.494-3.241-3.226-6.374-4.878-9.542c-0.375-0.716-0.766-1.396-0.531-2.242L117.888,53.252z"/>
	<path fill-rule="evenodd" clip-rule="evenodd" d="M99.42,59.481c1.526-3.472,1.525-3.489,5.959-3.856
		c3.137-0.26,6.217-1.092,9.395-0.914c0.006,0.666-0.104,1.39,0.806,1.602c-0.142,0.718-0.238,1.417,0.712,1.67
		c-0.043,0.679,0.041,1.293,0.791,1.574c0.042,0.658,0.236,1.25,0.73,1.714c0.071,0.63,0.123,1.269,0.844,1.543
		c-0.006,1.051-0.011,2.102-0.017,3.151c-0.641,0.359-0.741,0.972-0.759,1.623c-0.444,0.107-0.722,0.383-0.835,0.825
		c-0.97,0.259-1.972,0.472-2.276,1.648c-0.92-0.036-1.845-0.09-2.537,0.697c-2.605,0.028-5.211,0.044-7.814,0.102
		c-0.295,0.006-0.586,0.248-0.876,0.381c0.232,0.097,0.473,0.292,0.698,0.274c2.649-0.195,5.438,0.887,7.925-0.833
		c0.907-0.013,1.828,0.021,2.548-0.686c1.008-0.205,1.869-0.608,2.265-1.652c0.468-0.083,0.746-0.36,0.834-0.826
		c0.824-0.278,0.774-0.958,0.744-1.627c0.981-0.996,0.972-1.998,0.019-3.007c-0.043-0.642,0.156-1.413-0.827-1.555
		c-0.03-0.662,0.036-1.366-0.739-1.707c-0.016-0.65,0.017-1.323-0.785-1.583c0.061-0.684-0.155-1.249-0.721-1.662
		c-0.264-0.535-0.528-1.07-0.792-1.604c0.082-0.46,0-1.266,0.764-0.856c0.52,0.279,0.863,0.976,1.165,1.55
		c1.728,3.275,3.522,6.522,5.101,9.871c2.276,4.829,0.734,9.34-4.033,11.672c-4.916,2.404-10.133,2.945-15.446,1.634
		c-4.814-1.188-7.039-4.957-6.009-9.937c0.75-3.625,1.596-7.228,2.4-10.842c0.109-0.49,0.116-1.34,0.566-1.289
		c0.53,0.062,0.372,0.879,0.374,1.39c0.002,0.528-0.062,1.056-0.098,1.583c-0.663,0.9-0.865,1.917-0.615,2.985
		c0.082,0.352,0.45,0.35,0.474,0.061c0.073-0.905,0.083-1.813,0.112-2.723C99.469,59.743,99.436,59.612,99.42,59.481z
		 M99.567,71.534c-0.261,0.028-0.281-0.166-0.071-0.162c0.524,0.009-0.129-0.294,0.102,0.183c0.273,0.268,0.547,0.536,0.82,0.804
		l0.117,0.178l-0.17-0.126C100.099,72.118,99.833,71.827,99.567,71.534z M98.702,66.857c-0.065-0.48-0.132-0.961-0.197-1.442
		c-0.089,0.056-0.243,0.1-0.255,0.168c-0.089,0.512-0.023,0.972,0.531,1.208c-0.041,0.919,0.104,1.768,0.742,2.502
		c0.424,0.488,1.175,1.276,1.436,1.027c0.71-0.678-0.419-0.877-0.689-1.32C99.811,68.247,99.231,67.568,98.702,66.857z"/>
	<path fill-rule="evenodd" clip-rule="evenodd" d="M66.304,86.546c1.715,0,3.43-0.019,5.143,0.012
		c0.51,0.008,1.095,0.074,1.367,0.584c0.316,0.591-0.137,1.043-0.539,1.333c-1.602,1.157-3.223,2.29-4.882,3.364
		c-1.538,0.994-2.872,0.109-3.945-0.821c-1.413-1.227-4.453-1.743-3.827-3.831c0.441-1.475,3.318-0.525,5.1-0.702
		c0.522-0.051,1.055-0.007,1.583-0.007C66.304,86.5,66.304,86.523,66.304,86.546z"/>
	<path fill-rule="evenodd" clip-rule="evenodd" d="M103.911,54.13c-1.259,0.023-2.259,0.296-2.683-0.421
		c-0.441-0.742,0.298-1.464,0.769-2.082c3.068-4.028,6.697-4.171,10.248-0.458c1.052,1.099,0.468,1.67-0.619,1.855
		C108.909,53.488,106.17,53.815,103.911,54.13z"/>
	<path fill-rule="evenodd" clip-rule="evenodd" d="M30.45,92.294c-0.265-0.023-0.679,0.011-1.045-0.106
		c-1.45-0.46-3.881-0.295-4.055-1.664c-0.215-1.687,2.248-1.709,3.566-2.369c1.748-0.876,3.613-1.533,5.462-2.184
		c0.594-0.209,1.363-0.157,1.414,0.794C35.897,88.714,32.497,92.299,30.45,92.294z"/>
	<polygon fill-rule="evenodd" clip-rule="evenodd" points="117.944,53.237 117.764,53.163 117.888,53.252 	"/>
</g>
</svg>
