<?xml version="1.0" encoding="utf-8"?>
<!-- Generator: Adobe Illustrator 16.0.0, SVG Export Plug-In . SVG Version: 6.00 Build 0)  -->
<!DOCTYPE svg PUBLIC "-//W3C//DTD SVG 1.1//EN" "http://www.w3.org/Graphics/SVG/1.1/DTD/svg11.dtd">
<svg version="1.1" id="Layer_1006" xmlns="http://www.w3.org/2000/svg" xmlns:xlink="http://www.w3.org/1999/xlink" x="0px" y="0px"
	 width="128px" height="128px" viewBox="0 0 128 128" enable-background="new 0 0 128 128" xml:space="preserve">
<g>
	<path fill-rule="evenodd" clip-rule="evenodd" d="M82.267,64.081c-0.159,10.559-1.096,21.021-4.132,31.198
		c-1.171,3.919-2.69,7.677-5.285,10.93c-3.937,4.933-8.281,5.012-12.092-0.065c-2.563-3.414-4.487-7.317-5.531-11.404
		c-5.22-20.452-5.251-40.966,0.014-61.432c0.971-3.781,2.392-7.439,4.608-10.711c4.104-6.06,9.104-6.197,13.446-0.304
		c4.043,5.487,5.688,11.955,6.767,18.485C81.333,48.474,82.446,56.225,82.267,64.081z M80.182,64.44
		c-0.225-5.051-0.302-9.981-0.71-14.882c-0.252-3.025-0.946-6.021-1.551-9.009c-1.215-6.019-2.835-11.938-6.408-17.029
		c-3.023-4.31-6.192-4.255-9.415-0.162c-2.579,3.275-3.983,7.136-4.958,11.08C52.5,53.195,52.198,72.01,56.455,90.919
		c1.177,5.229,2.683,10.146,6.242,14.272c2.772,3.216,5.301,3.35,8.006,0.163c2.679-3.159,4.269-6.92,5.438-10.849
		C79.076,84.655,79.817,74.506,80.182,64.44z"/>
	<path fill-rule="evenodd" clip-rule="evenodd" d="M38.746,89.833c-0.14,5.292-0.05,9.91-1.804,14.282
		c-2.576,6.419-7.449,7.743-12.864,3.376c-3.475-2.802-6.334-6.264-8.502-10.113C5.541,79.559-0.301,60.609,0.639,39.909
		c0.134-2.935,0.73-5.759,1.856-8.428c2.404-5.703,6.741-6.925,11.84-3.473c4.046,2.739,6.96,6.525,9.355,10.666
		C32.966,54.708,38.28,71.922,38.746,89.833z M36.632,88.29c-0.688-16.547-6.067-33.864-15.665-49.9
		c-1.753-2.928-3.998-5.509-6.659-7.665c-4.707-3.813-8.078-2.938-10.092,2.664c-0.859,2.388-1.438,4.854-1.51,7.452
		c-0.55,19.371,4.802,37.237,13.951,54.067c2.263,4.163,5.134,8.041,8.958,11.013c4.07,3.162,7.103,2.324,9.188-2.425
		C36.632,99.322,36.496,94.883,36.632,88.29z"/>
	<path fill-rule="evenodd" clip-rule="evenodd" d="M94.706,82.095c0.325-11.412,1.934-23.298,6.445-34.687
		c1.772-4.48,4.509-8.37,7.13-12.322c0.9-1.357,2.412-2.411,3.832-3.303c4.183-2.627,8.314-1.43,10.742,2.92
		c2.623,4.695,3.927,9.805,4.325,15.089c1.164,15.365-1.35,30.214-7.08,44.466c-1.774,4.411-4.594,8.359-7.812,11.902
		c-5.231,5.762-10.563,5.021-14.119-1.89C94.69,97.506,94.898,90.132,94.706,82.095z M96.454,84.479
		c-0.284,5.107,0.262,12.001,3.407,18.468c2.697,5.549,7.004,6.245,11.244,1.723c1.037-1.104,1.912-2.388,2.708-3.682
		c9.542-15.512,12.042-32.647,11.281-50.435c-0.188-4.384-1.1-8.812-2.803-12.912c-2.367-5.695-6.729-6.514-11.191-2.293
		c-1.857,1.757-3.313,3.756-4.525,6.072C99.821,54.32,96.429,68.003,96.454,84.479z"/>
	<path fill-rule="evenodd" clip-rule="evenodd" d="M69.141,55.246c-2.458,1.976-2.174,4.74-2.172,7.444
		c0.009,10.7,0.002,21.399-0.026,32.099c-0.002,0.932,0.246,1.925-0.37,2.787c-0.097-0.834-0.268-1.666-0.279-2.502
		c-0.164-10.521-0.645-21.038-0.311-31.567c0.102-3.163,0.184-6.354-2.468-8.903c-1.524-1.464-1.593-3.755-1.874-5.723
		c-0.906-6.36-1.628-12.755,0.467-19.058l-0.1-0.08c0.016,5.101-0.051,10.206,0.09,15.303c0.056,2.02,0.465,4.053,0.932,6.028
		c0.297,1.261,1.008,3.522,1.914,3.135c1.409-0.601-0.187-2.18-0.456-3.331c-1.701-7.238-1.843-14.489-0.155-21.73
		c0.323-1.382,0.369-3.581,2.252-3.512c1.338,0.05,1.641,2.016,1.889,3.335c1.46,7.781,1.617,15.563-0.593,23.229
		c-0.487,1.696-1.116,2.934,1.35,3.121L69.141,55.246z"/>
	<path fill-rule="evenodd" clip-rule="evenodd" d="M72.262,38.833c-1.376-3.26-0.931-6.709-1.04-10.099l-0.097,0.08
		c2.223,3.175,0.702,6.737,1.046,10.106L72.262,38.833z"/>
	<path fill-rule="evenodd" clip-rule="evenodd" d="M71.187,50.081c0.036-1.333-0.037-2.683,0.14-3.999
		c0.162-1.197-0.312-2.52,0.609-3.589c0.659,1.259,0.286,2.619,0.309,3.922c0.022,1.272,0.288,2.734-1.154,3.58L71.187,50.081z"/>
	<path fill-rule="evenodd" clip-rule="evenodd" d="M70.289,25.519c-1.529-1.218-3.193-2.078-5.223-1.975l0.092,0.093
		c2.811-1.611,3.598-1.307,5.041,1.957L70.289,25.519z"/>
	<path fill-rule="evenodd" clip-rule="evenodd" d="M69.229,55.323c0.237-1.902,1.06-3.585,1.957-5.242l-0.097-0.086
		c0.141,2.043,0.327,4.105-1.949,5.252L69.229,55.323z"/>
	<path fill-rule="evenodd" clip-rule="evenodd" d="M62.108,29.822c0.03-1.123-0.411-2.413,1.073-3.017l-0.105-0.091
		c-0.216,1.057,0.16,2.324-1.068,3.028L62.108,29.822z"/>
	<path fill-rule="evenodd" clip-rule="evenodd" d="M71.222,28.734c-1.104-0.842-0.941-2.051-0.933-3.215l-0.09,0.075
		c1.22,0.812,0.938,2.054,0.926,3.22L71.222,28.734z"/>
	<path fill-rule="evenodd" clip-rule="evenodd" d="M64.021,24.585c0.014,0.855-0.286,1.572-0.946,2.13l0.105,0.091
		c-0.1-0.889-0.266-1.808,0.922-2.142L64.021,24.585z"/>
	<polygon fill-rule="evenodd" clip-rule="evenodd" points="72.171,38.92 72.354,39.049 72.262,38.833 	"/>
	<path fill-rule="evenodd" clip-rule="evenodd" d="M65.066,23.544c-0.086,0.612-0.429,0.963-1.045,1.04l0.082,0.08
		c0.007-0.695,0.388-1.005,1.054-1.026C65.158,23.637,65.066,23.544,65.066,23.544z"/>
	<path fill-rule="evenodd" clip-rule="evenodd" d="M12.908,44.12c2.9,5.02,3.906,10.715,5.598,16.146
		c2.811,9.029,5.254,18.171,7.813,27.278c0.501,1.781,1.117,3.559,0.995,5.462l0.099-0.08c-1.85-1.916-2.134-4.507-2.842-6.874
		c-3.49-11.667-6.912-23.354-10.274-35.058c-0.647-2.256-1.538-4.508-1.293-6.949L12.908,44.12z"/>
	<path fill-rule="evenodd" clip-rule="evenodd" d="M10.37,34.95c0.085,0.061,0.221,0.106,0.25,0.187
		c0.042,0.132,0.067,0.316,0.006,0.427c-0.181,0.327-0.355,0.245-0.404-0.216C10.208,35.222,10.316,35.083,10.37,34.95z"/>
	<path fill-rule="evenodd" clip-rule="evenodd" d="M27.313,93.005c0.263,0.392,0.605,0.754,0.763,1.185
		c0.158,0.427,0.165,0.958-0.478,1.052c-0.053,0.008-0.256-0.564-0.272-0.872c-0.024-0.479,0.052-0.964,0.086-1.444L27.313,93.005z"
		/>
	<path fill-rule="evenodd" clip-rule="evenodd" d="M13.002,44.044c-1.174-0.712-0.993-1.906-1.068-3.01l-0.091,0.086
		c1.517,0.587,1.072,1.871,1.064,2.999L13.002,44.044z"/>
	<path fill-rule="evenodd" clip-rule="evenodd" d="M11.935,41.034c-0.372-0.553-0.79-1.09-0.647-1.828
		c1.091,0.375,0.296,1.298,0.556,1.914L11.935,41.034z"/>
	<path fill-rule="evenodd" clip-rule="evenodd" d="M29.048,98.507c-0.09,0.207-0.178,0.413-0.268,0.619
		c-0.056-0.128-0.173-0.269-0.152-0.384c0.039-0.215,0.161-0.414,0.247-0.619C28.933,98.251,28.99,98.379,29.048,98.507z"/>
	<polygon fill-rule="evenodd" clip-rule="evenodd" points="29.891,101.783 30.002,102.253 29.687,102.205 	"/>
	<path fill-rule="evenodd" clip-rule="evenodd" d="M115.208,49.502c-1.23,7.575-2.424,15.104-3.684,22.62
		c-0.583,3.463-0.887,6.885-0.57,10.433c0.53,5.95-0.037,11.858-2.207,17.497c-0.525,1.36-1.068,3.38-2.956,2.843
		c-1.565-0.447-1.745-2.441-1.623-3.927c0.449-5.572,0.512-11.322,3.059-16.404c2.342-4.67,3.172-9.621,3.801-14.62
		c0.785-6.232,1.854-12.401,3.106-18.546c0.132-0.647,0.296-1.289,0.446-1.933C115.604,47.956,114.697,48.885,115.208,49.502z"/>
	<path fill-rule="evenodd" clip-rule="evenodd" d="M101.792,101.324c1.082,2.162,2.846,3.448,5.17,4.011l-0.081-0.09
		c-3.252,1.16-4.368,0.265-4.989-4.002L101.792,101.324z"/>
	<path fill-rule="evenodd" clip-rule="evenodd" d="M101.892,101.243c-1.906-1.826-0.328-4.086-0.757-6.097
		c1.099,0.318,0.329,1.156,0.427,1.725c0.197,1.135,0.192,2.304,0.256,3.461c0.018,0.329-0.017,0.662-0.025,0.992L101.892,101.243z"
		/>
	<path fill-rule="evenodd" clip-rule="evenodd" d="M113.998,85.004c-0.195,0.933,0.131,1.771-0.482,2.428
		c-0.091-0.66-0.261-1.32-0.252-1.978c0.007-0.754-0.29-1.596,0.412-2.231C113.794,83.873,113.911,84.523,113.998,85.004z"/>
	<path fill-rule="evenodd" clip-rule="evenodd" d="M110.106,102.295c0.262-2.17,0.325-4.405,2.045-6.086l-0.087-0.071
		c0.283,2.349-0.586,4.312-2.048,6.074L110.106,102.295z"/>
	<path fill-rule="evenodd" clip-rule="evenodd" d="M106.962,105.335c0.972-1.093,1.657-2.481,3.145-3.04l-0.09-0.083
		c-0.118,1.969-1.212,2.928-3.136,3.033L106.962,105.335z"/>
	<path fill-rule="evenodd" clip-rule="evenodd" d="M116.021,43.271c-0.12,0.225-0.271,0.504-0.421,0.785
		c-0.137-0.463-0.355-0.922-0.382-1.391c-0.015-0.267,0.284-0.552,0.441-0.829C116.107,42.208,116.112,42.703,116.021,43.271z"/>
	<path fill-rule="evenodd" clip-rule="evenodd" d="M112.151,96.209c-0.005-0.334-0.065-0.681,0-1c0.117-0.558,0.313-1.1,0.477-1.649
		c0.426,0.607,0.344,1.265,0.097,1.884c-0.11,0.275-0.434,0.465-0.66,0.694L112.151,96.209z"/>
	<path fill-rule="evenodd" clip-rule="evenodd" d="M102.346,87.913c0.093,0.064,0.271,0.141,0.264,0.192
		c-0.037,0.28-0.122,0.555-0.188,0.831c-0.091-0.065-0.265-0.142-0.259-0.194C102.197,88.463,102.279,88.189,102.346,87.913z"/>
	<path fill-rule="evenodd" clip-rule="evenodd" d="M105.858,78.746c-0.112,0.751-0.326,1.449-1.007,1.901l0.091,0.093
		c0.2-0.708,0.294-1.469,1.009-1.903L105.858,78.746z"/>
	<path fill-rule="evenodd" clip-rule="evenodd" d="M104.852,80.647c-0.072,0.294-0.143,0.589-0.216,0.883
		c-0.349-0.439,0.238-0.515,0.307-0.79L104.852,80.647z"/>
	<path fill-rule="evenodd" clip-rule="evenodd" d="M103.47,85.066c-0.095-0.046-0.271-0.09-0.271-0.139
		c-0.004-0.138,0.064-0.277,0.104-0.417c0.095,0.046,0.274,0.091,0.274,0.137C103.578,84.787,103.512,84.927,103.47,85.066z"/>
	<path fill-rule="evenodd" clip-rule="evenodd" d="M105.951,78.837c0.336-0.346,0.67-0.691,1.005-1.038l-0.085-0.085
		c-0.337,0.344-0.676,0.688-1.013,1.032L105.951,78.837z"/>
	<polygon fill-rule="evenodd" clip-rule="evenodd" points="106.956,77.799 107.094,77.614 106.871,77.714 	"/>
</g>
</svg>
