<?xml version="1.0" encoding="utf-8"?>
<!-- Generator: Adobe Illustrator 16.0.4, SVG Export Plug-In . SVG Version: 6.00 Build 0)  -->
<!DOCTYPE svg PUBLIC "-//W3C//DTD SVG 1.1//EN" "http://www.w3.org/Graphics/SVG/1.1/DTD/svg11.dtd">
<svg version="1.1" id="Layer_1006" xmlns="http://www.w3.org/2000/svg" xmlns:xlink="http://www.w3.org/1999/xlink" x="0px" y="0px"
	 width="128px" height="128px" viewBox="0 0 128 128" enable-background="new 0 0 128 128" xml:space="preserve">
<g>
	<path fill-rule="evenodd" clip-rule="evenodd" d="M84.471,64.096c-0.184,12.174-1.262,24.239-4.764,35.972
		c-1.35,4.52-3.1,8.853-6.094,12.604c-4.539,5.687-9.547,5.777-13.942-0.076c-2.955-3.938-5.174-8.438-6.377-13.15
		c-6.019-23.581-6.055-47.234,0.016-70.832c1.12-4.36,2.759-8.578,5.314-12.35c4.732-6.987,10.497-7.146,15.502-0.351
		c4.662,6.327,6.559,13.784,7.804,21.314C83.395,46.101,84.68,55.038,84.471,64.096z M81.319,64.482
		c-0.245-5.542-0.331-10.949-0.78-16.327c-0.276-3.32-1.037-6.607-1.7-9.884c-1.333-6.603-3.111-13.097-7.03-18.683
		c-3.317-4.728-6.794-4.668-10.33-0.178c-2.83,3.594-4.37,7.829-5.439,12.157c-5.091,20.578-5.422,41.221-0.752,61.966
		c1.292,5.736,2.943,11.132,6.848,15.658c3.041,3.529,5.815,3.674,8.784,0.179c2.939-3.467,4.682-7.592,5.967-11.901
		C80.106,86.66,80.919,75.525,81.319,64.482z"/>
	<path fill-rule="evenodd" clip-rule="evenodd" d="M44.135,93.675c-0.162,6.13-0.057,11.48-2.09,16.545
		c-2.984,7.435-8.628,8.97-14.901,3.91c-4.025-3.245-7.337-7.256-9.848-11.716C5.671,81.772-1.096,59.823-0.008,35.844
		c0.155-3.398,0.847-6.671,2.15-9.763c2.785-6.605,7.809-8.021,13.715-4.023c4.687,3.173,8.063,7.559,10.837,12.355
		C37.44,52.988,43.595,72.927,44.135,93.675z M40.646,90.649c-0.754-18.155-6.657-37.153-17.187-54.747
		c-1.923-3.212-4.386-6.044-7.307-8.409C10.989,23.31,7.29,24.27,5.08,30.417c-0.942,2.62-1.577,5.325-1.657,8.175
		C2.82,59.844,8.691,79.444,18.729,97.91c2.483,4.566,5.633,8.822,9.829,12.082c4.465,3.469,7.792,2.55,10.08-2.661
		C40.646,102.754,40.497,97.881,40.646,90.649z"/>
	<path fill-rule="evenodd" clip-rule="evenodd" d="M90.601,84.429c0.373-13.074,2.215-26.689,7.382-39.737
		c2.033-5.132,5.167-9.588,8.17-14.116c1.03-1.554,2.763-2.761,4.389-3.783c4.792-3.01,9.524-1.638,12.307,3.345
		c3.004,5.379,4.499,11.233,4.956,17.286c1.332,17.601-1.548,34.612-8.112,50.938c-2.031,5.054-5.263,9.576-8.948,13.635
		c-5.993,6.601-12.103,5.753-16.175-2.165C90.582,102.082,90.819,93.635,90.601,84.429z M93.312,86.468
		c-0.312,5.602,0.287,13.166,3.738,20.261c2.96,6.088,7.683,6.851,12.337,1.89c1.136-1.212,2.098-2.619,2.97-4.039
		c10.469-17.02,13.213-35.818,12.377-55.333c-0.205-4.81-1.206-9.667-3.076-14.167c-2.595-6.248-7.382-7.146-12.277-2.515
		c-2.036,1.926-3.634,4.12-4.964,6.662C97.006,53.38,93.283,68.391,93.312,86.468z"/>
	<path fill-rule="evenodd" clip-rule="evenodd" d="M69.206,54.396c-2.697,2.168-2.384,5.2-2.382,8.167
		c0.01,11.739,0.001,23.477-0.03,35.216c-0.002,1.023,0.271,2.112-0.405,3.058c-0.106-0.913-0.294-1.826-0.307-2.743
		c-0.18-11.544-0.707-23.082-0.341-34.634c0.11-3.47,0.201-6.972-2.708-9.769c-1.672-1.606-1.747-4.119-2.055-6.278
		c-0.994-6.978-1.786-13.995,0.512-20.91l-0.109-0.088c0.018,5.598-0.057,11.197,0.099,16.79c0.061,2.216,0.51,4.447,1.022,6.614
		c0.326,1.383,1.106,3.864,2.102,3.439c1.545-0.659-0.205-2.392-0.502-3.654c-1.866-7.94-2.021-15.896-0.169-23.84
		c0.355-1.516,0.404-3.928,2.471-3.853c1.467,0.054,1.8,2.211,2.072,3.659c1.601,8.537,1.772,17.075-0.65,25.485
		c-0.536,1.861-1.225,3.219,1.48,3.424L69.206,54.396z"/>
	<path fill-rule="evenodd" clip-rule="evenodd" d="M72.631,36.389c-1.511-3.577-1.021-7.36-1.142-11.08l-0.105,0.088
		c2.438,3.483,0.771,7.391,1.147,11.087L72.631,36.389z"/>
	<path fill-rule="evenodd" clip-rule="evenodd" d="M71.45,48.729c0.039-1.463-0.041-2.944,0.154-4.387
		c0.177-1.313-0.344-2.765,0.668-3.938c0.722,1.382,0.315,2.874,0.339,4.303c0.023,1.396,0.315,3-1.268,3.927L71.45,48.729z"/>
	<path fill-rule="evenodd" clip-rule="evenodd" d="M70.466,21.781c-1.678-1.336-3.504-2.279-5.729-2.167l0.101,0.102
		c3.082-1.768,3.946-1.434,5.531,2.147L70.466,21.781z"/>
	<path fill-rule="evenodd" clip-rule="evenodd" d="M69.304,54.479c0.26-2.086,1.162-3.933,2.146-5.75l-0.106-0.095
		c0.153,2.242,0.36,4.503-2.138,5.762L69.304,54.479z"/>
	<path fill-rule="evenodd" clip-rule="evenodd" d="M61.49,26.502c0.033-1.231-0.45-2.646,1.177-3.309l-0.115-0.1
		c-0.237,1.16,0.175,2.55-1.171,3.321L61.49,26.502z"/>
	<path fill-rule="evenodd" clip-rule="evenodd" d="M71.489,25.309c-1.211-0.924-1.034-2.25-1.023-3.527l-0.098,0.083
		c1.336,0.89,1.028,2.253,1.016,3.532L71.489,25.309z"/>
	<path fill-rule="evenodd" clip-rule="evenodd" d="M63.589,20.757c0.016,0.938-0.313,1.725-1.038,2.336l0.115,0.1
		c-0.109-0.976-0.291-1.983,1.012-2.351L63.589,20.757z"/>
	<polygon fill-rule="evenodd" clip-rule="evenodd" points="72.531,36.483 72.732,36.626 72.631,36.389 	"/>
	<path fill-rule="evenodd" clip-rule="evenodd" d="M64.736,19.615c-0.096,0.67-0.471,1.057-1.147,1.14l0.089,0.088
		c0.008-0.763,0.426-1.103,1.157-1.126C64.837,19.717,64.736,19.615,64.736,19.615z"/>
	<path fill-rule="evenodd" clip-rule="evenodd" d="M14.617,42.188c3.183,5.508,4.286,11.756,6.142,17.713
		c3.084,9.906,5.764,19.936,8.572,29.926c0.549,1.955,1.225,3.906,1.091,5.993l0.108-0.088c-2.029-2.103-2.341-4.944-3.118-7.542
		c-3.83-12.799-7.583-25.621-11.272-38.462c-0.71-2.475-1.688-4.946-1.419-7.623L14.617,42.188z"/>
	<path fill-rule="evenodd" clip-rule="evenodd" d="M9.707,32.128c0.094,0.067,0.243,0.117,0.274,0.206
		c0.046,0.144,0.074,0.346,0.007,0.468c-0.198,0.358-0.39,0.269-0.442-0.237C9.529,32.426,9.648,32.274,9.707,32.128z"/>
	<path fill-rule="evenodd" clip-rule="evenodd" d="M23.316,95.821c0.288,0.43,0.664,0.827,0.837,1.3
		c0.173,0.468,0.181,1.052-0.523,1.153c-0.059,0.009-0.282-0.618-0.3-0.957c-0.026-0.524,0.058-1.057,0.095-1.584L23.316,95.821z"/>
	<path fill-rule="evenodd" clip-rule="evenodd" d="M14.721,42.106c-1.288-0.782-1.089-2.091-1.171-3.302l-0.1,0.095
		c1.665,0.645,1.176,2.052,1.167,3.29L14.721,42.106z"/>
	<path fill-rule="evenodd" clip-rule="evenodd" d="M11.423,38.804c-0.408-0.607-0.867-1.196-0.71-2.005
		c1.197,0.411,0.325,1.424,0.61,2.1L11.423,38.804z"/>
	<path fill-rule="evenodd" clip-rule="evenodd" d="M25.22,101.857c-0.099,0.228-0.196,0.453-0.294,0.68
		c-0.062-0.141-0.19-0.295-0.167-0.421c0.042-0.235,0.176-0.453,0.271-0.679C25.092,101.576,25.156,101.718,25.22,101.857z"/>
	<polygon fill-rule="evenodd" clip-rule="evenodd" points="26.144,105.453 26.266,105.968 25.92,105.915 	"/>
	<path fill-rule="evenodd" clip-rule="evenodd" d="M113.885,48.094c-1.349,8.31-2.657,16.569-4.04,24.817
		c-0.64,3.799-0.972,7.553-0.625,11.445c0.581,6.528-0.04,13.01-2.423,19.196c-0.574,1.493-1.171,3.708-3.241,3.118
		c-1.718-0.489-1.915-2.679-1.782-4.308c0.495-6.113,0.562-12.422,3.357-17.997c2.568-5.123,3.479-10.556,4.17-16.041
		c0.861-6.836,2.031-13.605,3.407-20.347c0.146-0.711,0.326-1.414,0.49-2.121C114.32,46.398,113.326,47.417,113.885,48.094z"/>
	<path fill-rule="evenodd" clip-rule="evenodd" d="M99.713,104.949c1.189,2.372,3.123,3.783,5.673,4.399l-0.089-0.098
		c-3.567,1.273-4.792,0.29-5.474-4.392L99.713,104.949z"/>
	<path fill-rule="evenodd" clip-rule="evenodd" d="M103.012,104.859c-2.091-2.003-0.359-4.482-0.831-6.688
		c1.206,0.348,0.361,1.268,0.47,1.892c0.216,1.245,0.211,2.527,0.28,3.797c0.02,0.361-0.018,0.727-0.029,1.089L103.012,104.859z"/>
	<path fill-rule="evenodd" clip-rule="evenodd" d="M109.371,87.044c-0.215,1.021,0.144,1.941-0.53,2.663
		c-0.099-0.724-0.285-1.448-0.275-2.169c0.009-0.827-0.318-1.751,0.452-2.45C109.146,85.802,109.277,86.516,109.371,87.044z"/>
	<path fill-rule="evenodd" clip-rule="evenodd" d="M112.024,106.014c0.287-2.381,0.357-4.833,2.243-6.676l-0.095-0.08
		c0.312,2.578-0.644,4.731-2.245,6.664L112.024,106.014z"/>
	<path fill-rule="evenodd" clip-rule="evenodd" d="M108.574,109.349c1.067-1.199,1.819-2.722,3.45-3.335l-0.097-0.092
		c-0.132,2.161-1.332,3.213-3.441,3.329L108.574,109.349z"/>
	<path fill-rule="evenodd" clip-rule="evenodd" d="M114.778,41.259c-0.132,0.247-0.296,0.553-0.461,0.86
		c-0.15-0.508-0.39-1.012-0.418-1.526c-0.017-0.292,0.311-0.605,0.483-0.909C114.874,40.091,114.878,40.634,114.778,41.259z"/>
	<path fill-rule="evenodd" clip-rule="evenodd" d="M111.079,99.338c-0.004-0.368-0.07-0.749,0.001-1.1
		c0.129-0.611,0.344-1.205,0.523-1.809c0.467,0.667,0.377,1.388,0.104,2.067c-0.121,0.302-0.476,0.51-0.723,0.761L111.079,99.338z"
		/>
	<path fill-rule="evenodd" clip-rule="evenodd" d="M96.588,90.234c0.102,0.071,0.296,0.155,0.289,0.212
		c-0.042,0.307-0.134,0.609-0.208,0.911c-0.1-0.071-0.291-0.154-0.283-0.213C96.425,90.838,96.515,90.538,96.588,90.234z"/>
	<path fill-rule="evenodd" clip-rule="evenodd" d="M103.631,80.178c-0.125,0.824-0.359,1.59-1.106,2.087l0.1,0.101
		c0.22-0.776,0.322-1.611,1.106-2.088L103.631,80.178z"/>
	<path fill-rule="evenodd" clip-rule="evenodd" d="M99.336,82.265c-0.079,0.321-0.158,0.645-0.236,0.968
		c-0.383-0.481,0.26-0.565,0.335-0.867L99.336,82.265z"/>
	<path fill-rule="evenodd" clip-rule="evenodd" d="M97.82,87.112c-0.104-0.051-0.297-0.099-0.298-0.152
		c-0.003-0.151,0.071-0.304,0.115-0.457c0.105,0.05,0.301,0.1,0.302,0.149C97.939,86.806,97.865,86.959,97.82,87.112z"/>
	<path fill-rule="evenodd" clip-rule="evenodd" d="M103.73,80.277c0.367-0.379,0.735-0.759,1.104-1.139l-0.094-0.094
		c-0.37,0.377-0.74,0.756-1.109,1.133L103.73,80.277z"/>
	<polygon fill-rule="evenodd" clip-rule="evenodd" points="101.646,79.139 101.796,78.937 101.551,79.045 	"/>
</g>
</svg>
