<?xml version="1.0" encoding="utf-8"?>
<!-- Generator: Adobe Illustrator 16.0.0, SVG Export Plug-In . SVG Version: 6.00 Build 0)  -->
<!DOCTYPE svg PUBLIC "-//W3C//DTD SVG 1.1//EN" "http://www.w3.org/Graphics/SVG/1.1/DTD/svg11.dtd">
<svg version="1.1" id="Layer_1007" xmlns="http://www.w3.org/2000/svg" xmlns:xlink="http://www.w3.org/1999/xlink" x="0px" y="0px"
	 width="128px" height="128px" viewBox="0 0 128 128" enable-background="new 0 0 128 128" xml:space="preserve">
<g id="GVoMXD.tif_1_">
	<g>
		<path fill-rule="evenodd" clip-rule="evenodd" d="M75.771-0.007c0.83,4.615,0.812,9.204-0.621,13.703
			c-1.762,5.533-5.333,9.452-10.665,11.812c-1.597,0.707-2.302,0.481-2.58-1.357c-0.996-6.605,0.975-12.277,5.133-17.342
			c2.279-2.775,5.307-4.643,8.086-6.816C75.34-0.007,75.556-0.007,75.771-0.007z"/>
		<path fill-rule="evenodd" clip-rule="evenodd" d="M79.012,27.86c-2.008,5.547-5.732,9.441-11.219,11.634
			c-2.288,0.916-2.764,0.675-2.979-1.839c-0.276-3.197,0.536-6.181,2.17-8.924c2.288-3.845,5.794-6.231,9.731-8.141
			c1.19-0.578,1.755-0.119,2.297,0.791C79.012,23.54,79.012,25.699,79.012,27.86z"/>
		<path fill-rule="evenodd" clip-rule="evenodd" d="M62.967,38.609c0.041,2.266-1.066,6.26-3.098,10.01
			c-1.414,2.611-1.889,2.657-3.646,0.148c-4.667-6.663-5.605-13.81-2.518-21.383c0.645-1.583,1.471-3.108,2.363-4.568
			c1.476-2.42,1.779-2.417,3.092-0.066C61.555,27.043,62.902,31.635,62.967,38.609z"/>
		<path fill-rule="evenodd" clip-rule="evenodd" d="M49.095,49.635c0.246-1.442-0.696-3.865,0.579-4.387
			c1.636-0.669,2.701,1.624,3.795,2.819c3.451,3.765,6.27,7.9,7.15,13.104c0.451,2.673-0.165,5.104-1.285,7.481
			c-0.595,1.262-1.438,1.45-2.58,0.717c-2.341-1.499-3.954-3.603-5.078-6.107C49.747,58.964,49.177,54.406,49.095,49.635z"/>
		<path fill-rule="evenodd" clip-rule="evenodd" d="M76.571,40.373c-0.241,8.433-5.443,15.72-12.515,18.489
			c-1.838,0.719-2.389,0.013-2.379-1.613c0.024-4.099,1.248-7.814,3.702-11.115c2.358-3.172,5.403-5.524,8.854-7.369
			c2.099-1.122,2.279-0.982,2.338,1.411C76.578,40.497,76.571,40.82,76.571,40.373z"/>
		<path fill-rule="evenodd" clip-rule="evenodd" d="M73.018,62.499c-0.234,6.092-1.321,11.391-5.881,15.302
			c-3.309,2.837-4.9,2.279-5.656-2.062c-0.474-2.707-0.16-5.351,1.065-7.872c1.884-3.873,4.773-6.872,8.077-9.53
			c1.101-0.885,1.919-1.032,2.057,0.759C72.777,60.383,72.933,61.666,73.018,62.499z"/>
		<path fill-rule="evenodd" clip-rule="evenodd" d="M61.033,81.194c-0.019,0.43-0.002,0.864-0.067,1.287
			c-0.245,1.587-0.263,3.604-1.759,4.282c-1.711,0.775-3.241-0.688-4.514-1.818c-3.236-2.873-4.787-11.161-2.892-14.805
			c0.441-0.851,0.981-0.568,1.592-0.342C57.622,71.378,61.102,76.563,61.033,81.194z"/>
		<path fill-rule="evenodd" clip-rule="evenodd" d="M73.587,83.805c-0.032,4.832-2.188,8.269-6.302,10.576
			c-1.37,0.77-2.157,0.425-2.803-0.905c-1.023-2.105-1.417-4.254-0.795-6.556c1.062-3.928,3.668-6.729,6.656-9.27
			c1.045-0.89,1.702-0.604,2.158,0.581C73.205,80.057,73.438,81.973,73.587,83.805z"/>
		<path fill-rule="evenodd" clip-rule="evenodd" d="M64.236,97.491c0.25,1.374-0.506,1.789-1.835,1.804
			c-2.044,0.022-3.782-0.683-5.339-1.946c-1.106-0.899-2.038-1.991-2.57-3.28c-0.83-2.01-2.911-4.664-1.246-6.098
			c1.397-1.206,4.192,0.613,6.115,1.812C62.13,91.513,64.159,94.752,64.236,97.491z"/>
		<path fill-rule="evenodd" clip-rule="evenodd" d="M72.633,119.488c0.054,2.229-0.187,4.9-1.578,7.329
			c-0.376,0.656-0.891,1.355-1.762,1.155c-0.986-0.228-0.854-1.157-0.775-1.875c0.128-1.175,0.36-2.341,0.595-3.501
			c1.028-5.049,0.885-10.08-0.216-15.097c-0.11-0.502-0.427-1.22,0.11-1.411c0.479-0.171,0.851,0.505,1.105,0.997
			C72.036,110.825,72.664,114.836,72.633,119.488z"/>
		<path fill-rule="evenodd" clip-rule="evenodd" d="M72.702,96.531c-0.026,2.854-1.705,5.575-3.986,6.503
			c-1.086,0.442-1.803,0.37-2.106-1.001c-0.668-3.036,0.65-6.054,3.331-7.356C72.187,93.587,72.727,93.948,72.702,96.531z"/>
		<path fill-rule="evenodd" clip-rule="evenodd" d="M65.953,106.846c-4.102-0.634-6.637-2.247-8.16-5.271
			c-0.536-1.061-0.571-1.855,1.017-1.828c2.91,0.049,6.711,2.462,7.793,5.023C67.295,106.409,66.887,106.96,65.953,106.846z"/>
	</g>
</g>
</svg>
