<?xml version="1.0" encoding="utf-8"?>
<!-- Generator: Adobe Illustrator 16.0.0, SVG Export Plug-In . SVG Version: 6.00 Build 0)  -->
<!DOCTYPE svg PUBLIC "-//W3C//DTD SVG 1.1//EN" "http://www.w3.org/Graphics/SVG/1.1/DTD/svg11.dtd">
<svg version="1.1" id="Layer_1008" xmlns="http://www.w3.org/2000/svg" xmlns:xlink="http://www.w3.org/1999/xlink" x="0px" y="0px"
	 width="128px" height="128px" viewBox="0 0 128 128" enable-background="new 0 0 128 128" xml:space="preserve">
<g>
	<path fill-rule="evenodd" clip-rule="evenodd" d="M100.403,77.075c-5.1-1.312-9.227-3.717-9.744-9.575
		c-0.305-3.452,0.842-6.65,2.725-9.537c3.371-5.166,8.303-8.14,14.192-9.42c4.071-0.885,8.114-1.697,11.657-4.021
		c1.164-0.763,1.703-0.263,1.826,0.858c0.496,4.5,2.74,8.294,4.666,12.256c3.668,7.546,3.807,14.982-1.502,21.958
		c-3.256,4.277-7.371,5.358-12.381,3.283c-2.004-0.83-3.957-1.783-5.934-2.682l-0.09,0.08c1.268-0.28,3.25,0.688,3.657-0.979
		c0.415-1.702-1.508-2.392-2.774-3.205c-0.781-0.504-1.6-0.77-2.531-0.602l0.103,0.08c-3.093-1.414-3.526-1.238-3.929,1.577
		L100.403,77.075z M107.343,72.384c3.061-3.904,4.682-8.562,6.697-13c1.054-2.323,2.712-4.465,2.665-7.209
		c0.193-0.131,0.509-0.232,0.552-0.403c0.084-0.324-0.158-0.472-0.322-0.248c-0.133,0.181-0.108,0.475-0.154,0.718
		c-4.184,6.242-7.291,12.983-9.369,20.201c-0.431,0.201-0.938,0.378-0.295,0.922C107.191,73.039,107.268,72.712,107.343,72.384z"/>
	<path fill-rule="evenodd" clip-rule="evenodd" d="M14.76,48.339c1.501-0.985,2.933-2.104,4.517-2.929
		c4.498-2.347,9.384-1.509,12.718,2.275c3.564,4.046,5.368,8.724,4.93,14.257c-0.291,3.662-1.038,7.122-2.509,10.495
		c-1.245,2.855-1.905,5.915-2.039,9.048c-0.062,1.475-0.549,1.696-1.908,1.091c-3.709-1.65-7.668-2.102-11.693-2.508
		c-7.609-0.77-13.956-3.859-17.511-11.131c-3.248-6.643-1.626-11.721,4.838-15.369c0.786-0.444,1.571-0.889,2.357-1.332L8.412,52.16
		c-0.132,3.105,0.166,3.362,2.879,2.488c0.482-0.155,0.923-0.358,1.026-0.932c0.7,0.109,1.295-0.001,1.584-0.753
		c0.518-0.005,0.823-0.221,0.775-0.784c1.026,0.003,1.547-0.515,1.583-1.535c1.163-1.832,1.027-2.036-1.59-2.389L14.76,48.339z
		 M27.949,76.361c-0.05-0.089-0.088-0.19-0.155-0.267c-0.035-0.038-0.122-0.031-0.185-0.043c0.138,0.077,0.277,0.156,0.415,0.232
		l0.112,0.281L27.949,76.361z M15.485,56.098c-0.049-0.087-0.086-0.187-0.152-0.257c-0.034-0.037-0.123-0.021-0.186-0.029
		c0.137,0.071,0.273,0.141,0.41,0.212c-0.078,0.676-0.105,1.33,0.714,1.608c2.607,5.921,5.892,11.422,10.125,16.334
		c0.026,0.098,0.033,0.207,0.085,0.285c0.028,0.044,0.134,0.034,0.206,0.049c-0.118-0.09-0.236-0.179-0.354-0.268
		c0.248-0.996-0.354-1.728-0.809-2.484c-2.379-3.96-4.75-7.925-7.197-11.843c-0.51-0.815-0.896-1.902-2.128-2.014
		C16.357,56.983,16.088,56.467,15.485,56.098z"/>
	<path fill-rule="evenodd" clip-rule="evenodd" d="M61.091,46.125c7.648-0.523,14.41,0.741,21.177,1.842
		c3.505,0.57,3.921,1.663,2.702,5.122c-3.896,11.052-9.981,20.701-18.241,29.007c-2.207,2.219-3.599,2.387-5.342-0.115
		c-5.09-7.309-10.582-14.39-13.235-23.127c-0.783-2.58-2.344-4.915-2.914-7.593c-0.69-3.244,0.084-4.228,3.432-4.432
		C53.053,46.562,57.385,45.431,61.091,46.125z M48.2,49.904l-0.092-0.123l0.137,0.082c0.25,0.261,0.5,0.521,0.75,0.783
		c0.337,0.642,0.892,0.817,1.568,0.728c0.899,2.444,3.34,3.065,5.188,4.388c1.238,0.886,2.841,1.346,3.366,3.045
		c0.695,2.255,1.942,4.207,3.377,6.064c1.059,1.371,1.475,2.92,1.395,4.71c-0.125,2.843-0.018,5.697,0.017,8.548
		c0.005,0.353,0.153,1.005,0.241,1.006c0.481,0.004,0.536-0.478,0.633-0.836c0.729-2.667,0.58-5.405,0.53-8.114
		c-0.038-2.15,0.114-3.999,2.083-5.461c1.327-0.984,2.309-2.548,2.578-4.236c0.267-1.673,1.303-2.292,2.626-3.007
		c3.381-1.829,7.091-3.158,9.792-6.086l0.17-0.073l-0.105,0.137c-1.592,0.125-3.052,0.766-4.303,1.63
		c-4.81,3.328-9.961,4.252-15.708,3.129c-2.057-0.401-3.945-0.785-5.774-1.868c-1.945-1.155-3.632-2.964-6.163-2.909
		c-0.246-0.85-0.905-0.803-1.578-0.728C48.846,50.3,48.608,50.025,48.2,49.904z"/>
	<path fill-rule="evenodd" clip-rule="evenodd" d="M10.051,50.648c0.461-0.972,1.348-1.307,2.304-1.539l-0.038-0.079
		c-0.301,0.476-0.604,0.951-0.904,1.427c-0.478,0.045-0.956,0.089-1.434,0.135L10.051,50.648z"/>
	<path fill-rule="evenodd" clip-rule="evenodd" d="M12.355,49.109c0.629-0.794,1.531-0.738,2.404-0.77l-0.09-0.084
		c-0.586,0.859-1.477,0.793-2.352,0.775L12.355,49.109z"/>
	<path fill-rule="evenodd" clip-rule="evenodd" d="M105.909,80.196c-0.83-0.126-1.775,0.103-2.357-0.776l-0.083,0.077
		c0.856,0.04,1.741-0.006,2.351,0.779L105.909,80.196z"/>
	<path fill-rule="evenodd" clip-rule="evenodd" d="M103.552,79.42c-0.646,0.012-1.166-0.235-1.558-0.752l-0.086,0.056
		c0.643,0.01,1.358-0.127,1.561,0.773L103.552,79.42z"/>
	<path fill-rule="evenodd" clip-rule="evenodd" d="M101.994,78.668c-0.263-0.267-0.524-0.532-0.786-0.8l-0.08,0.059
		c0.42,0.109,0.705,0.351,0.78,0.797L101.994,78.668z"/>
	<path fill-rule="evenodd" clip-rule="evenodd" d="M101.208,77.868c-0.462-0.068-0.71-0.353-0.805-0.793l-0.059,0.073
		c0.455,0.065,0.755,0.286,0.783,0.778L101.208,77.868z"/>
	<path fill-rule="evenodd" clip-rule="evenodd" d="M8.461,52.235c0.269-0.261,0.537-0.521,0.806-0.782l-0.06-0.077
		C9.1,51.797,8.866,52.091,8.412,52.16L8.461,52.235z"/>
	<path fill-rule="evenodd" clip-rule="evenodd" d="M9.267,51.453c0.06-0.464,0.351-0.704,0.785-0.804l-0.072-0.057
		c0.024,0.539-0.269,0.766-0.773,0.784L9.267,51.453z"/>
	<path fill-rule="evenodd" clip-rule="evenodd" d="M104.171,75.491c0.814,1.262,2.459,1.27,3.445,2.286
		c0.355,0.366,1.004,0.771,0.795,1.191c-0.316,0.64-1.068,0.439-1.658,0.219c-1.074-0.403-2.188-0.743-3.189-1.287
		c-0.832-0.451-2.025-0.862-1.804-2.055c0.045-0.239,1.636-0.19,2.514-0.274L104.171,75.491z"/>
	<path fill-rule="evenodd" clip-rule="evenodd" d="M14.711,52.214c-0.502,0.023-0.847,0.201-0.771,0.789
		c-0.699-0.096-1.312-0.018-1.568,0.779c-0.125-0.026-0.25-0.075-0.375-0.074c-0.746,0.006-1.969,0.301-2.15-0.012
		c-0.59-1.018,0.704-1.348,1.163-2.008c0.215-0.309,0.468-0.591,0.704-0.886c0.962-0.366,1.929-0.72,2.884-1.103
		c0.95-0.38,1.464-0.038,1.642,0.927C15.372,50.812,14.908,51.384,14.711,52.214z"/>
	<path fill-rule="evenodd" clip-rule="evenodd" d="M64.357,57.675c1.449,0.332,3.232-0.195,4.224,1.313
		c0.609,0.927-1.309,4.404-2.7,5.311c-0.754,0.491-1.446,0.541-2.057-0.176c-1.286-1.509-1.944-3.346-2.594-5.173
		c-0.225-0.63,0.216-0.952,0.794-1.031C62.792,57.814,63.568,57.756,64.357,57.675z M66.62,60.371
		c-0.162-0.92-0.946-0.958-1.68-0.973c-0.596-0.012-1.358-0.076-1.292,0.875c0.064,0.935,0.497,1.989,1.349,2.085
		C66.005,62.472,66.177,61.239,66.62,60.371z"/>
</g>
</svg>
