<?xml version="1.0" encoding="utf-8"?>
<!-- Generator: Adobe Illustrator 16.0.4, SVG Export Plug-In . SVG Version: 6.00 Build 0)  -->
<!DOCTYPE svg PUBLIC "-//W3C//DTD SVG 1.1//EN" "http://www.w3.org/Graphics/SVG/1.1/DTD/svg11.dtd">
<svg version="1.1" id="Layer_1101" xmlns="http://www.w3.org/2000/svg" xmlns:xlink="http://www.w3.org/1999/xlink" x="0px" y="0px"
	 width="128px" height="128px" viewBox="0 0 128 128" enable-background="new 0 0 128 128" xml:space="preserve">
<g>
	<g id="nO0By6.tif_1_">
		<g>
			<polygon points="19.68,58.274 19.788,58.361 19.71,58.263 			"/>
			<path d="M11.468,24.344c2.45,2.067,4.524,4.756,8.799,4.987c-1.307-2.143-2.416-3.967-3.528-5.791l0.02,0.046
				c-0.272-0.272-0.546-0.546-0.818-0.818l0.047,0.021c1.219-1.541,0.481-3.922,2.241-5.23l-0.047-0.057
				c0.205,0.951,0.408,1.903,0.692,3.212c2.93-1.974,4.76-4.684,7.021-6.923c2.893-2.869,6.007-4.48,10.341-4.235
				c6.902,0.395,13.729,0.534,20.368,2.988c4.119,1.521,8.537,0.469,12.609-0.731c7.822-2.301,14.28-0.643,19.744,5.441
				c2.27,2.526,4.465,5.122,8.801,4.226c2.208-0.456,4.471,1.485,6.168,3.208c1.34,1.362,2.521,1.399,3.874,0.184
				c0.159,0.159,0.318,0.317,0.476,0.477c-3.521,5.709-9.297,8.1-15.176,10.442c8.404,0.076,16.297-1.563,23.012-7.281
				c-1.715,4.639-7.202,7.738-13.911,8.821c-10.097,1.63-20.037-0.176-30.021-1.065c-11.941-1.062-23.8-2.762-35.862-2.803
				c-7.812-0.025-15.771-1.138-22.986-4.785c-2.688-1.355-3.814-4.035-5.607-6.826c2.036-0.097,2.867,0.783,3.686,1.69l0.045-0.021
				c-0.011,0.258-0.021,0.513-0.031,0.771L11.468,24.344z"/>
			<path d="M109.469,22.788c0.071,0.646,0.063,1.266-0.566,1.673c-0.116-0.117-0.23-0.237-0.348-0.354
				c0.322-0.422,0.644-0.844,0.967-1.265L109.469,22.788z"/>
			<path d="M3.044,31.167c0.156,0.055,0.313,0.112,0.37,0.133c-0.044-0.026-0.184-0.104-0.321-0.184L3.044,31.167z"/>
			<path d="M4.631,34.93c0-0.285,0-0.569,0-0.854C4.631,34.36,4.631,34.645,4.631,34.93z"/>
			<path d="M4.683,34.163c-0.277-0.276-0.554-0.554-0.831-0.831C4.129,33.609,4.405,33.887,4.683,34.163z"/>
			<path d="M3.944,33.383c-0.287,0-0.573,0.001-0.859,0C3.371,33.383,3.657,33.383,3.944,33.383z"/>
			<path d="M11.407,23.54c0.021,0.27,0.038,0.535,0.061,0.803l-0.047-0.054c0.011-0.258,0.021-0.513,0.031-0.771L11.407,23.54z"/>
			<path d="M108.9,24.461c-0.209,0.294-0.418,0.59-0.627,0.885c-0.156-0.158-0.315-0.316-0.476-0.476
				c0.255-0.255,0.503-0.51,0.757-0.764C108.671,24.224,108.785,24.344,108.9,24.461z"/>
			<path d="M109.521,22.842c0.037-0.09,0.061-0.189,0.119-0.263c0.03-0.039,0.127-0.024,0.189-0.035
				c-0.117,0.081-0.241,0.162-0.361,0.244L109.521,22.842z"/>
			<path d="M18.228,17.558l-0.047-0.056L18.228,17.558z"/>
			<path d="M22.678,25.069l0.05,0.042L22.678,25.069z"/>
			<path d="M23.51,24.358l-0.04-0.042L23.51,24.358z"/>
			<path d="M58.944,15.97l0.045,0.04L58.944,15.97z"/>
		</g>
	</g>
	<g>
		<path d="M121.827,49.193c7.546-2.281,7.517-2.382,4.034-9.682c-0.592-1.245-1.163-2.506-1.836-3.708
			c-0.982-1.76-0.864-3.472-0.463-5.426c2.889-14.064,3.313-12.49-8.42-18.524C99.518,3.819,82.438,1.809,65.109,1.487
			c-9.963-0.137-19.824,1.02-29.625,2.525C25.062,5.615,14.782,7.895,5.237,12.697c-2.009,1.01-2.855,2.161-2.901,4.6
			c-0.081,4.11-0.904,8.203-1.368,12.309c-0.377,3.371-0.173,6.835,3.04,8.672c5.805,3.32,8.072,6.942,6.017,14.294
			c-3.152,11.293-0.428,22.656,3.513,33.545c0.77,2.128,0.67,3.762-0.745,5.527c-3.766,4.701-7.504,9.436-11.119,14.254
			c-2.95,3.933-2.307,6.309,2.242,8.3c3.785,1.653,7.804,1.686,11.848,1.116c10.304-1.45,20.387-1.709,30.224,2.949
			c5.052,2.396,10.662,3.651,16.059,5.282c13.566,4.099,26.896,4.657,39.7-2.763c6.729-3.902,13.584-7.525,20.914-10.279
			c5.418-2.033,5.807-4.234,1.623-8.48c-3.823-3.875-6.525-8.246-7.646-13.553c-0.248-1.171-0.953-2.561,0.106-3.596
			c2.493-2.43,2.548-5.479,1.937-8.438c-1.701-8.209-0.191-16.239,0.892-24.312C119.766,50.711,120.064,49.726,121.827,49.193z
			 M23.422,99.818l0.044-0.049L23.422,99.818z M37.076,79.409h-1.898l-2.83-10.327c-0.064-0.234-0.124-0.393-0.18-0.475
			s-0.151-0.149-0.286-0.203c-0.234-0.094-0.352-0.248-0.352-0.465c0-0.17,0.073-0.301,0.22-0.392s0.352-0.137,0.615-0.137h4.113
			c0.258,0,0.434,0.034,0.527,0.104c0.123,0.088,0.185,0.209,0.185,0.36c0,0.183-0.103,0.334-0.308,0.457
			c-0.17,0.101-0.279,0.185-0.329,0.251c-0.05,0.066-0.075,0.168-0.075,0.303c0,0.064,0.009,0.129,0.026,0.193l1.635,6.074
			L37.076,79.409z M41.892,79.409h-1.916l-2.048-7.726l1.046-4.271h1.811l2.109,7.998L41.892,79.409z M45.757,68.085
			c-0.05,0.062-0.134,0.118-0.251,0.171c-0.264,0.117-0.457,0.24-0.58,0.369c-0.27,0.27-0.472,0.659-0.606,1.169l-1.092,4.21
			l-0.457-1.783l0.642-2.603c0.053-0.205,0.079-0.363,0.079-0.476c0-0.176-0.048-0.326-0.145-0.451
			c-0.097-0.127-0.257-0.246-0.479-0.356c-0.146-0.076-0.247-0.149-0.303-0.22c-0.056-0.071-0.084-0.161-0.084-0.272
			c0-0.151,0.049-0.262,0.146-0.329c0.097-0.066,0.25-0.102,0.461-0.102h2.092c0.24,0,0.409,0.033,0.506,0.102
			s0.145,0.18,0.145,0.338C45.831,67.945,45.807,68.023,45.757,68.085z M52.018,79.409h-0.23h-3.92H47.64
			c-0.211,0-0.373-0.039-0.487-0.118c-0.114-0.079-0.172-0.191-0.172-0.339c0-0.24,0.117-0.397,0.352-0.476
			c0.193-0.063,0.307-0.104,0.339-0.117c0.032-0.014,0.065-0.049,0.101-0.103c0.07-0.094,0.105-0.243,0.105-0.448v-8.797
			c0-0.205-0.035-0.354-0.105-0.449c-0.035-0.053-0.068-0.086-0.101-0.101c-0.033-0.015-0.146-0.055-0.339-0.119
			c-0.234-0.075-0.352-0.233-0.352-0.475c0-0.146,0.058-0.259,0.172-0.338c0.114-0.079,0.276-0.119,0.487-0.119h0.229h3.92h0.229
			c0.416,0,0.624,0.151,0.624,0.457c0,0.246-0.111,0.403-0.334,0.475l-0.272,0.089c-0.17,0.059-0.255,0.252-0.255,0.58v8.797
			c0,0.328,0.085,0.521,0.255,0.58l0.272,0.088c0.223,0.07,0.334,0.229,0.334,0.476C52.642,79.257,52.434,79.409,52.018,79.409z
			 M53.95,79.41h-0.246c-0.41,0-0.615-0.155-0.615-0.467c0-0.245,0.111-0.406,0.334-0.482l0.281-0.097
			c0.17-0.054,0.255-0.249,0.255-0.589v-4.062h-1.433v-0.87h1.433v-3.832c0-0.328-0.085-0.521-0.255-0.58l-0.281-0.088
			c-0.223-0.07-0.334-0.229-0.334-0.475c0-0.305,0.211-0.457,0.633-0.457h0.229h3.911h0.237c0.439,0,0.659,0.152,0.659,0.457
			c0,0.24-0.117,0.398-0.352,0.475c-0.193,0.064-0.306,0.104-0.338,0.119c-0.032,0.016-0.066,0.048-0.102,0.102
			c-0.07,0.094-0.105,0.242-0.105,0.447v8.764c0,0.322,0.088,0.519,0.264,0.589l0.281,0.097c0.234,0.076,0.352,0.237,0.352,0.482
			c0,0.312-0.22,0.467-0.659,0.467h-0.237H53.95z M58.242,114.867l-0.058,0.053l-0.122-0.238L58.242,114.867z M63.279,117.369
			c-1.295-0.301-2.526-0.727-3.455-1.748c-0.036,0.003-0.07,0.001-0.106,0.005c-0.012-0.041-0.03-0.068-0.045-0.104
			c-0.416-0.189-0.831-0.381-1.246-0.571c-0.083-0.006-0.164-0.014-0.243-0.028l0.059-0.056c0.061,0.028,0.123,0.056,0.184,0.084
			c0.487,0.034,1.012-0.014,1.246,0.571c0.033,0.015,0.065,0.029,0.097,0.044c0.017,0.02,0.037,0.036,0.054,0.055
			c1.458-0.115,2.686,0.458,3.822,1.306C63.524,117.073,63.401,117.223,63.279,117.369z M65.184,67.412v11.997h-3.912h-0.229
			c-0.211,0-0.373-0.039-0.487-0.118c-0.114-0.079-0.172-0.191-0.172-0.339c0-0.24,0.117-0.397,0.352-0.476
			c0.193-0.063,0.307-0.104,0.339-0.117c0.032-0.014,0.065-0.049,0.101-0.103c0.07-0.094,0.105-0.243,0.105-0.448v-8.797
			c0-0.205-0.035-0.354-0.105-0.449c-0.035-0.053-0.068-0.086-0.101-0.101c-0.033-0.015-0.146-0.055-0.339-0.119
			c-0.234-0.075-0.352-0.233-0.352-0.475c0-0.146,0.058-0.259,0.172-0.338c0.114-0.079,0.276-0.119,0.487-0.119h0.229L65.184,67.412
			L65.184,67.412z M65.965,67.412L65.965,67.412h3.542v3.111c0,0.182-0.034,0.312-0.104,0.396s-0.182,0.123-0.334,0.123
			c-0.129,0-0.223-0.026-0.281-0.079s-0.114-0.161-0.167-0.324c-0.224-0.681-0.55-1.199-0.979-1.557
			c-0.432-0.357-0.988-0.57-1.675-0.643L65.965,67.412L65.965,67.412z M66.677,72.255c0.164-0.192,0.284-0.45,0.36-0.772
			c0.047-0.224,0.107-0.377,0.186-0.461c0.076-0.086,0.185-0.129,0.324-0.129c0.188,0,0.316,0.073,0.387,0.221
			c0.041,0.076,0.062,0.248,0.062,0.519v3.349c0,0.275-0.031,0.467-0.092,0.571c-0.062,0.105-0.176,0.158-0.34,0.158
			c-0.135,0-0.239-0.041-0.315-0.123s-0.138-0.22-0.185-0.413c-0.101-0.404-0.242-0.715-0.426-0.932
			c-0.187-0.219-0.425-0.361-0.718-0.432v-1.02C66.261,72.627,66.514,72.448,66.677,72.255z M69.631,79.41h-3.656v-0.001V78.46
			c0.381-0.06,0.694-0.142,0.944-0.246c0.248-0.104,0.499-0.267,0.751-0.483c0.252-0.215,0.452-0.439,0.604-0.672
			c0.147-0.23,0.291-0.537,0.426-0.918c0.064-0.188,0.132-0.314,0.201-0.383c0.07-0.068,0.168-0.102,0.291-0.102
			c0.164,0,0.277,0.049,0.343,0.146s0.097,0.265,0.097,0.505V79.41z M73.163,79.409h-2.231c-0.218,0-0.39-0.045-0.515-0.136
			c-0.127-0.092-0.188-0.217-0.188-0.375c0-0.17,0.129-0.311,0.387-0.422c0.24-0.104,0.418-0.199,0.531-0.285
			c0.114-0.084,0.225-0.2,0.33-0.348c0.164-0.24,0.299-0.56,0.403-0.958l1.986-7.241l0.448,1.819l-1.557,5.679
			c-0.047,0.164-0.07,0.315-0.07,0.457c0,0.368,0.174,0.633,0.52,0.791l0.309,0.141c0.192,0.088,0.289,0.234,0.289,0.439
			C73.805,79.264,73.591,79.409,73.163,79.409z M80.686,79.408H76.3c-0.176,0-0.315-0.042-0.422-0.127
			c-0.106-0.086-0.157-0.198-0.157-0.34c0-0.116,0.022-0.205,0.069-0.264s0.151-0.132,0.315-0.22
			c0.117-0.06,0.199-0.123,0.246-0.192c0.047-0.07,0.07-0.158,0.07-0.265c0-0.101-0.009-0.188-0.025-0.265l-0.281-1.273h-2.452
			l0.237-1.046h1.969l-1.617-7.146l0.221-0.859h3.543l2.442,10.327c0.047,0.182,0.101,0.343,0.158,0.483
			c0.053,0.11,0.17,0.201,0.352,0.271c0.152,0.064,0.259,0.129,0.316,0.193c0.058,0.063,0.088,0.151,0.088,0.264
			C81.372,79.256,81.143,79.408,80.686,79.408z M82.893,70.496l-0.088,0.536c-0.029,0.17-0.094,0.304-0.188,0.399
			c-0.099,0.098-0.22,0.146-0.365,0.146c-0.151,0-0.276-0.054-0.373-0.158c-0.099-0.104-0.146-0.243-0.146-0.413v-3.594h2.312v1.062
			c-0.274,0.158-0.489,0.36-0.642,0.606C83.15,69.479,82.98,69.951,82.893,70.496z M89.52,79.302
			c-0.111,0.07-0.299,0.105-0.562,0.105h-0.29h-3.92h-0.29c-0.258,0-0.452-0.039-0.585-0.118c-0.131-0.079-0.197-0.198-0.197-0.355
			c0-0.259,0.142-0.42,0.423-0.483c0.229-0.06,0.362-0.095,0.403-0.109c0.041-0.014,0.082-0.052,0.123-0.11
			c0.088-0.1,0.132-0.264,0.132-0.491V67.412h3.902v10.327c0,0.229,0.044,0.393,0.132,0.491c0.047,0.06,0.091,0.097,0.132,0.11
			c0.041,0.015,0.176,0.052,0.404,0.109c0.281,0.063,0.422,0.226,0.422,0.483C89.748,79.085,89.672,79.208,89.52,79.302z
			 M91.699,67.413v3.594c0,0.17-0.049,0.308-0.146,0.413c-0.096,0.105-0.221,0.158-0.373,0.158c-0.146,0-0.268-0.049-0.365-0.145
			c-0.096-0.098-0.158-0.23-0.188-0.4l-0.088-0.536c-0.088-0.545-0.258-1.017-0.51-1.415c-0.158-0.246-0.372-0.448-0.643-0.605
			v-1.063H91.699L91.699,67.413L91.699,67.413z M107.697,49.547c2.783,1.281,5.371,0.022,7.877,0.942
			c-1.6,3.727-4.578,2.522-7.102,2.06c-9.016-1.65-17.773-4.325-26.543-6.929c-11.291-3.348-22.711-6.132-34.476-7.193
			c-1.262-0.113-2.694-0.577-4.578,0.964c13.929,1.188,26.722,4.623,40.201,8.642c-14.882,0.619-28.911,1.2-42.938,1.787
			c-1.507,0.064-3.032,0.015-4.514,0.246c-13.863,2.148-23.097-5.077-30.938-15.177c-0.788-0.253-1.308-0.772-1.562-1.56
			C2.554,32.6,2.714,31.86,3.092,31.116l-0.048,0.05c-0.568-5.203,1.51-10.069,1.98-15.148c0.139-1.485,2.004-1.735,3.224-2.284
			c10.178-4.58,21.017-6.647,31.975-8.049c15.378-1.963,30.792-2.207,46.188-0.08c10.36,1.431,20.473,3.732,29.801,8.703
			c7.349,3.915,9.034,7.113,5.804,14.751c-1.857,4.39-0.548,7.325,1.471,10.709c1.07,1.798,2.5,3.467,2.693,5.894
			C120.486,48.451,114.08,48.023,107.697,49.547z"/>
	</g>
</g>
</svg>
