<?xml version="1.0" encoding="utf-8"?>
<!-- Generator: Adobe Illustrator 16.0.4, SVG Export Plug-In . SVG Version: 6.00 Build 0)  -->
<!DOCTYPE svg PUBLIC "-//W3C//DTD SVG 1.1//EN" "http://www.w3.org/Graphics/SVG/1.1/DTD/svg11.dtd">
<svg version="1.1" id="Layer_1107" xmlns="http://www.w3.org/2000/svg" xmlns:xlink="http://www.w3.org/1999/xlink" x="0px" y="0px"
	 width="128px" height="128px" viewBox="0 0 128 128" enable-background="new 0 0 128 128" xml:space="preserve">
<g>
	<g id="nO0By6.tif_15_">
		<g>
			<path d="M60.045,115.626c1.505-0.153,2.764,0.433,3.928,1.301c-0.122,0.146-0.246,0.296-0.368,0.442
				c-1.32-0.307-2.575-0.739-3.508-1.803L60.045,115.626z"/>
			<path d="M58.511,114.923c0.571,0.106,1.291-0.116,1.534,0.703l0.052-0.06c-0.51-0.231-1.019-0.467-1.528-0.699L58.511,114.923z"
				/>
			<polygon points="58.569,114.867 58.389,114.682 58.511,114.92 			"/>
			<path d="M23.75,99.818l0.044-0.049L23.75,99.818z"/>
			<polygon points="20.007,58.274 20.115,58.361 20.038,58.263 			"/>
			<path d="M11.795,24.344c2.451,2.067,4.525,4.756,8.799,4.987c-1.306-2.143-2.416-3.967-3.528-5.791l0.02,0.046
				c-0.272-0.272-0.546-0.546-0.818-0.818l0.046,0.021c1.219-1.541,0.482-3.922,2.241-5.23l-0.046-0.057
				c0.205,0.951,0.408,1.903,0.692,3.212c2.93-1.974,4.76-4.684,7.021-6.923c2.893-2.869,6.006-4.48,10.34-4.235
				c6.903,0.395,13.729,0.534,20.368,2.988c4.119,1.521,8.537,0.469,12.61-0.731c7.821-2.301,14.28-0.643,19.743,5.441
				c2.271,2.526,4.466,5.122,8.801,4.226c2.209-0.456,4.471,1.485,6.168,3.208c1.34,1.362,2.521,1.399,3.875,0.184
				c0.158,0.159,0.318,0.317,0.475,0.477c-3.521,5.709-9.297,8.1-15.176,10.442c8.404,0.076,16.297-1.563,23.012-7.281
				c-1.715,4.639-7.203,7.738-13.912,8.821c-10.094,1.63-20.035-0.176-30.021-1.065c-11.941-1.062-23.799-2.762-35.862-2.803
				c-7.812-0.025-15.771-1.138-22.987-4.785c-2.688-1.355-3.814-4.035-5.607-6.826c2.037-0.097,2.867,0.783,3.686,1.69l0.044-0.021
				c-0.01,0.258-0.02,0.513-0.031,0.771L11.795,24.344z"/>
			<path d="M109.797,22.788c0.07,0.646,0.062,1.266-0.568,1.673c-0.115-0.117-0.229-0.237-0.348-0.354
				c0.324-0.422,0.645-0.844,0.967-1.265L109.797,22.788z"/>
			<path d="M3.371,31.167c0.156,0.055,0.313,0.112,0.37,0.133c-0.044-0.026-0.183-0.104-0.321-0.184L3.371,31.167z"/>
			<path d="M4.958,34.93c0-0.285,0-0.569,0-0.854C4.958,34.36,4.958,34.645,4.958,34.93z"/>
			<path d="M5.01,34.163c-0.277-0.276-0.554-0.554-0.831-0.831C4.456,33.609,4.733,33.887,5.01,34.163z"/>
			<path d="M4.271,33.383c-0.287,0-0.573,0.001-0.859,0C3.699,33.383,3.985,33.383,4.271,33.383z"/>
			<path d="M11.735,23.54c0.02,0.27,0.038,0.535,0.06,0.803l-0.047-0.054c0.011-0.258,0.021-0.513,0.031-0.771L11.735,23.54z"/>
			<path d="M109.229,24.461c-0.209,0.294-0.418,0.59-0.627,0.885c-0.156-0.158-0.315-0.316-0.475-0.476
				c0.255-0.255,0.502-0.51,0.757-0.764C108.998,24.224,109.113,24.344,109.229,24.461z"/>
			<path d="M109.848,22.842c0.039-0.09,0.062-0.189,0.12-0.263c0.031-0.039,0.126-0.024,0.19-0.035
				c-0.117,0.081-0.241,0.162-0.361,0.244L109.848,22.842z"/>
			<path d="M18.555,17.558l-0.046-0.056L18.555,17.558z"/>
			<path d="M23.005,25.069l0.049,0.042L23.005,25.069z"/>
			<path d="M23.837,24.358l-0.04-0.042L23.837,24.358z"/>
			<path d="M59.272,15.97l0.044,0.04L59.272,15.97z"/>
		</g>
	</g>
	<g>
		<path d="M122.154,49.193c7.547-2.281,7.517-2.382,4.035-9.682c-0.592-1.245-1.164-2.506-1.836-3.708
			c-0.982-1.76-0.865-3.472-0.463-5.426c2.889-14.064,3.313-12.49-8.42-18.524C99.846,3.819,82.766,1.809,65.438,1.487
			c-9.964-0.137-19.825,1.02-29.623,2.525C25.392,5.615,15.111,7.895,5.566,12.697c-2.009,1.01-2.855,2.161-2.901,4.6
			C2.584,21.407,1.76,25.5,1.297,29.606c-0.377,3.371-0.173,6.835,3.04,8.672c5.805,3.32,8.071,6.942,6.017,14.294
			c-3.153,11.293-0.429,22.656,3.512,33.545c0.77,2.128,0.67,3.762-0.745,5.527c-3.766,4.701-7.504,9.436-11.119,14.254
			c-2.95,3.933-2.307,6.309,2.242,8.3c3.784,1.653,7.804,1.686,11.848,1.116c10.304-1.45,20.387-1.709,30.224,2.949
			c5.052,2.396,10.661,3.651,16.058,5.282c13.567,4.099,26.897,4.657,39.7-2.763c6.73-3.902,13.585-7.525,20.914-10.279
			c5.418-2.033,5.807-4.234,1.623-8.48c-3.823-3.875-6.524-8.246-7.646-13.553c-0.248-1.171-0.954-2.561,0.107-3.596
			c2.493-2.43,2.547-5.479,1.936-8.438c-1.7-8.209-0.19-16.239,0.892-24.312C120.092,50.711,120.393,49.726,122.154,49.193z
			 M37.746,68.473c-0.041,0.018-0.085,0.053-0.132,0.105c-0.088,0.105-0.132,0.27-0.132,0.492v10.339h-0.001H33.57h-0.229
			c-0.211,0-0.374-0.039-0.488-0.118c-0.114-0.079-0.171-0.191-0.171-0.339c0-0.24,0.117-0.397,0.352-0.476
			c0.193-0.063,0.306-0.104,0.338-0.117c0.032-0.014,0.066-0.049,0.101-0.103c0.07-0.094,0.105-0.243,0.105-0.448v-8.797
			c0-0.205-0.035-0.354-0.105-0.449c-0.035-0.053-0.069-0.086-0.101-0.101c-0.032-0.015-0.145-0.055-0.338-0.119
			c-0.234-0.075-0.352-0.233-0.352-0.475c0-0.146,0.057-0.259,0.171-0.338c0.114-0.079,0.277-0.119,0.488-0.119h0.229h3.92h0.299
			c0.258,0,0.442,0.034,0.554,0.104c0.152,0.094,0.229,0.217,0.229,0.369c0,0.258-0.141,0.42-0.422,0.483
			C37.921,68.421,37.787,68.456,37.746,68.473z M41.55,79.409h-3.357v-0.984c0.287-0.053,0.514-0.11,0.681-0.176
			s0.327-0.158,0.479-0.281c0.246-0.192,0.472-0.46,0.677-0.8c0.205-0.34,0.372-0.718,0.501-1.134
			c0.094-0.322,0.18-0.534,0.259-0.638c0.079-0.103,0.195-0.153,0.347-0.153c0.164,0,0.284,0.067,0.36,0.202
			c0.035,0.063,0.053,0.193,0.053,0.387V79.409z M47.07,67.412v11.997h-3.911H42.93c-0.211,0-0.374-0.039-0.488-0.118
			c-0.114-0.079-0.171-0.191-0.171-0.339c0-0.24,0.117-0.397,0.352-0.476c0.193-0.063,0.306-0.104,0.338-0.117
			c0.032-0.014,0.066-0.049,0.101-0.103c0.07-0.094,0.105-0.243,0.105-0.448v-8.797c0-0.205-0.035-0.354-0.105-0.449
			c-0.035-0.053-0.069-0.086-0.101-0.101c-0.032-0.015-0.145-0.055-0.338-0.119c-0.234-0.075-0.352-0.233-0.352-0.475
			c0-0.146,0.057-0.259,0.171-0.338c0.114-0.079,0.277-0.119,0.488-0.119h0.229L47.07,67.412L47.07,67.412z M47.853,67.412
			L47.853,67.412h3.542v3.111c0,0.182-0.035,0.312-0.105,0.396s-0.182,0.123-0.334,0.123c-0.129,0-0.223-0.026-0.281-0.079
			c-0.058-0.053-0.114-0.161-0.167-0.324c-0.223-0.681-0.549-1.199-0.98-1.557c-0.431-0.357-0.989-0.57-1.674-0.643L47.853,67.412
			L47.853,67.412z M48.565,72.255c0.164-0.192,0.284-0.45,0.36-0.772c0.047-0.224,0.108-0.377,0.185-0.461
			c0.077-0.086,0.185-0.129,0.325-0.129c0.188,0,0.316,0.073,0.387,0.221c0.041,0.076,0.062,0.248,0.062,0.519v3.349
			c0,0.275-0.031,0.467-0.092,0.571c-0.061,0.105-0.174,0.158-0.338,0.158c-0.135,0-0.24-0.041-0.316-0.123
			c-0.076-0.082-0.138-0.22-0.185-0.413c-0.1-0.404-0.242-0.715-0.426-0.932s-0.425-0.361-0.718-0.432v-1.02
			C48.149,72.627,48.401,72.448,48.565,72.255z M51.517,79.41h-3.656v-0.001V78.46c0.381-0.06,0.696-0.142,0.945-0.246
			s0.5-0.267,0.751-0.483c0.251-0.215,0.453-0.439,0.602-0.672c0.149-0.231,0.292-0.537,0.426-0.918
			c0.064-0.188,0.132-0.314,0.202-0.383c0.07-0.068,0.167-0.102,0.29-0.102c0.164,0,0.278,0.049,0.343,0.146
			s0.097,0.265,0.097,0.505V79.41z M57.415,68.15c-0.516,0.123-0.773,0.533-0.773,1.23v8.184c0,0.315,0.044,0.56,0.132,0.729
			c0.076,0.141,0.237,0.262,0.483,0.359v0.994c-0.188,0-0.359-0.016-0.514-0.045c-0.155-0.028-0.362-0.088-0.62-0.176
			c-0.615-0.211-1.172-0.533-1.67-0.967s-0.908-0.952-1.23-1.557c-0.498-0.942-0.747-2.06-0.747-3.348
			c0-1.248,0.223-2.355,0.668-3.322s1.084-1.727,1.916-2.276c0.48-0.322,0.996-0.554,1.547-0.694
			c0.228-0.058,0.497-0.087,0.808-0.087V68.15z M62.613,74.098c-0.044,0.072-0.125,0.149-0.242,0.231
			c-0.117,0.082-0.19,0.157-0.22,0.229c-0.03,0.07-0.044,0.198-0.044,0.387v2.996h0.001c-0.234,0.233-0.546,0.474-0.936,0.717
			c-0.39,0.242-0.757,0.435-1.103,0.574c-0.316,0.123-0.667,0.224-1.05,0.3c-0.383,0.075-0.722,0.114-1.015,0.114v-0.994
			c0.17-0.041,0.297-0.09,0.382-0.148c0.085-0.059,0.157-0.141,0.215-0.246c0.1-0.182,0.149-0.412,0.149-0.693v-2.566
			c0-0.229-0.044-0.393-0.132-0.492c-0.041-0.059-0.082-0.095-0.123-0.109c-0.041-0.014-0.176-0.049-0.404-0.102
			c-0.281-0.07-0.422-0.234-0.422-0.492c0-0.152,0.066-0.27,0.198-0.352c0.132-0.082,0.327-0.123,0.584-0.123h0.29h3.217
			c0.264,0,0.45,0.037,0.558,0.109c0.108,0.074,0.163,0.201,0.163,0.383C62.679,73.932,62.657,74.023,62.613,74.098z M58.136,68.133
			v-0.949c0.955,0.088,1.74,0.265,2.355,0.527c0.182,0.082,0.322,0.123,0.422,0.123c0.094,0,0.166-0.021,0.215-0.064
			c0.049-0.045,0.151-0.17,0.303-0.375c0.105-0.146,0.237-0.22,0.396-0.22c0.164,0,0.28,0.046,0.347,0.138
			c0.067,0.09,0.101,0.24,0.101,0.451v3.42c0,0.444-0.164,0.668-0.492,0.668c-0.164,0-0.286-0.045-0.365-0.133
			s-0.154-0.261-0.224-0.519c-0.088-0.328-0.246-0.71-0.475-1.146c-0.229-0.437-0.448-0.781-0.659-1.033
			c-0.24-0.293-0.51-0.508-0.809-0.646S58.581,68.156,58.136,68.133z M69.641,79.645h-0.193c-0.762,0-1.396-0.067-1.898-0.203
			c-0.592-0.157-1.109-0.393-1.556-0.702s-0.763-0.659-0.949-1.046c-0.198-0.408-0.299-1.006-0.299-1.791v-6.892
			c0-0.204-0.035-0.354-0.104-0.448c-0.035-0.053-0.07-0.086-0.102-0.101c-0.033-0.015-0.146-0.055-0.339-0.119
			c-0.234-0.075-0.352-0.231-0.352-0.466c0-0.152,0.057-0.268,0.171-0.348c0.114-0.078,0.277-0.118,0.488-0.118h0.229h3.92h0.229
			l0.316,0.034c0.1,0.029,0.182,0.082,0.246,0.158s0.097,0.168,0.097,0.272c0,0.233-0.117,0.39-0.353,0.466
			c-0.192,0.064-0.305,0.104-0.338,0.119c-0.031,0.016-0.065,0.048-0.102,0.102c-0.07,0.094-0.105,0.242-0.105,0.447v7.374
			c0,0.498,0.014,0.847,0.041,1.042c0.024,0.196,0.08,0.373,0.162,0.531c0.075,0.146,0.16,0.252,0.254,0.316
			c0.095,0.063,0.272,0.138,0.537,0.22V79.645z M74.721,68.176c-0.029,0.029-0.154,0.108-0.378,0.237
			c-0.258,0.142-0.46,0.356-0.606,0.646c-0.146,0.291-0.219,0.619-0.219,0.988v5.739c0,0.983-0.218,1.793-0.65,2.426
			c-0.316,0.47-0.771,0.845-1.362,1.125c-0.294,0.142-0.646,0.245-1.056,0.31v-1.151c0.586-0.076,1.074-0.315,1.468-0.722
			c0.444-0.463,0.668-1.127,0.668-1.994v-5.73c0-0.803-0.308-1.361-0.923-1.679c-0.182-0.095-0.301-0.175-0.355-0.241
			c-0.057-0.066-0.084-0.166-0.084-0.295c0-0.152,0.057-0.261,0.168-0.325c0.11-0.063,0.293-0.097,0.545-0.097h2.152
			c0.182,0,0.303,0.005,0.365,0.014c0.061,0.01,0.121,0.03,0.18,0.065c0.152,0.088,0.229,0.208,0.229,0.36
			C74.861,67.98,74.814,68.088,74.721,68.176z M79.002,79.409h-2.206c-0.438,0-0.659-0.146-0.659-0.438
			c0-0.095,0.02-0.166,0.059-0.216c0.037-0.05,0.111-0.106,0.224-0.172c0.649-0.353,0.976-0.961,0.976-1.828v-5.294l-0.002-0.006
			h0.002v0.006l0.931,2.648v2.646c0,0.271,0.01,0.463,0.03,0.58s0.065,0.246,0.137,0.388c0.123,0.258,0.293,0.45,0.51,0.579
			l0.325,0.212c0.223,0.135,0.334,0.283,0.334,0.447C79.661,79.26,79.441,79.409,79.002,79.409z M80.803,79.41l-3.41-10.116
			c-0.117-0.34-0.24-0.567-0.369-0.687c-0.075-0.075-0.207-0.131-0.396-0.166c-0.381-0.082-0.571-0.265-0.571-0.545
			c0-0.152,0.055-0.271,0.162-0.355c0.109-0.085,0.266-0.128,0.471-0.128h4.113v-0.001l1.731,4.931l0.765-2.663v2.918L81.27,79.41
			H80.803z M88.043,78.258c0.035,0.053,0.068,0.088,0.102,0.102c0.031,0.016,0.146,0.055,0.338,0.119
			c0.234,0.076,0.353,0.233,0.353,0.475c0,0.305-0.22,0.457-0.659,0.457h-0.236h-3.912h-0.289c-0.258,0-0.453-0.039-0.584-0.118
			c-0.133-0.079-0.198-0.198-0.198-0.356c0-0.258,0.142-0.418,0.422-0.482c0.229-0.059,0.363-0.096,0.404-0.109
			s0.081-0.049,0.122-0.102c0.089-0.105,0.133-0.272,0.133-0.501V67.412h3.902h0.236c0.439,0,0.659,0.152,0.659,0.457
			c0,0.24-0.117,0.398-0.353,0.475c-0.192,0.064-0.307,0.104-0.338,0.119c-0.033,0.016-0.065,0.048-0.102,0.102
			c-0.07,0.094-0.105,0.242-0.105,0.447v8.799C87.938,78.016,87.973,78.164,88.043,78.258z M95.076,67.412v11.997h-3.911h-0.229
			c-0.211,0-0.373-0.039-0.486-0.118c-0.115-0.079-0.172-0.191-0.172-0.339c0-0.24,0.117-0.397,0.352-0.476
			c0.193-0.063,0.307-0.104,0.338-0.117c0.033-0.016,0.066-0.049,0.102-0.103c0.07-0.094,0.105-0.243,0.105-0.448v-8.797
			c0-0.205-0.035-0.354-0.105-0.449c-0.034-0.053-0.067-0.086-0.102-0.101c-0.031-0.015-0.145-0.055-0.338-0.119
			c-0.234-0.075-0.352-0.233-0.352-0.475c0-0.146,0.057-0.259,0.172-0.338c0.113-0.079,0.275-0.119,0.486-0.119h0.229L95.076,67.412
			L95.076,67.412z M95.857,67.412h0.002H99.4v3.111c0,0.182-0.035,0.312-0.105,0.396s-0.182,0.123-0.334,0.123
			c-0.129,0-0.223-0.026-0.281-0.079c-0.058-0.053-0.113-0.161-0.166-0.324c-0.224-0.681-0.551-1.199-0.979-1.557
			c-0.433-0.357-0.989-0.57-1.675-0.643v-1.027H95.857z M96.57,72.255c0.164-0.192,0.283-0.45,0.359-0.772
			c0.047-0.224,0.108-0.377,0.186-0.461c0.076-0.086,0.185-0.129,0.324-0.129c0.188,0,0.316,0.073,0.388,0.221
			c0.041,0.076,0.062,0.248,0.062,0.519v3.349c0,0.275-0.031,0.467-0.092,0.571c-0.062,0.105-0.175,0.158-0.339,0.158
			c-0.135,0-0.24-0.041-0.315-0.123c-0.076-0.082-0.139-0.22-0.186-0.413c-0.1-0.404-0.242-0.715-0.426-0.932
			c-0.186-0.219-0.424-0.361-0.717-0.432v-1.02C96.154,72.627,96.406,72.448,96.57,72.255z M99.523,79.41h-3.656v-0.001V78.46
			c0.381-0.06,0.695-0.142,0.945-0.246c0.248-0.104,0.498-0.267,0.75-0.483c0.252-0.215,0.453-0.439,0.604-0.672
			c0.148-0.23,0.291-0.537,0.426-0.918c0.064-0.188,0.133-0.314,0.202-0.383s0.167-0.102,0.29-0.102
			c0.164,0,0.277,0.049,0.343,0.146s0.097,0.265,0.097,0.505V79.41z M108.025,49.547c2.783,1.281,5.373,0.022,7.877,0.942
			c-1.6,3.727-4.577,2.522-7.103,2.06c-9.014-1.65-17.772-4.325-26.543-6.929c-11.291-3.348-22.71-6.132-34.475-7.193
			c-1.262-0.113-2.695-0.577-4.578,0.964c13.929,1.188,26.721,4.623,40.2,8.642c-14.881,0.619-28.91,1.2-42.938,1.787
			c-1.507,0.064-3.032,0.015-4.514,0.246C22.09,52.214,12.855,44.989,5.015,34.889c-0.788-0.253-1.308-0.772-1.562-1.56
			C2.881,32.6,3.041,31.86,3.419,31.116l-0.048,0.05c-0.567-5.203,1.511-10.069,1.981-15.148c0.139-1.485,2.004-1.735,3.224-2.284
			c10.177-4.58,21.016-6.647,31.975-8.049c15.378-1.963,30.795-2.207,46.188-0.08c10.361,1.431,20.474,3.732,29.802,8.703
			c7.349,3.915,9.035,7.113,5.803,14.751c-1.856,4.39-0.547,7.325,1.472,10.709c1.07,1.798,2.5,3.467,2.694,5.894
			C120.814,48.451,114.409,48.023,108.025,49.547z"/>
	</g>
</g>
</svg>
