<?xml version="1.0" encoding="utf-8"?>
<!-- Generator: Adobe Illustrator 16.0.0, SVG Export Plug-In . SVG Version: 6.00 Build 0)  -->
<!DOCTYPE svg PUBLIC "-//W3C//DTD SVG 1.1//EN" "http://www.w3.org/Graphics/SVG/1.1/DTD/svg11.dtd">
<svg version="1.1" id="Layer_1107" xmlns="http://www.w3.org/2000/svg" xmlns:xlink="http://www.w3.org/1999/xlink" x="0px" y="0px"
	 width="128px" height="128px" viewBox="0 0 128 128" enable-background="new 0 0 128 128" xml:space="preserve">
<g id="nO0By6.tif_18_">
	<g>
		<path fill-rule="evenodd" clip-rule="evenodd" d="M65.143,1283.722c17.328,0.322,34.408,2.332,50.033,10.366
			c11.733,6.034,11.308,4.46,8.419,18.524c-0.401,1.954-0.519,3.666,0.464,5.426c0.672,1.202,1.244,2.463,1.836,3.708
			c3.482,7.3,3.511,7.401-4.035,9.682c-1.763,0.533-2.062,1.518-2.254,2.932c-1.083,8.073-2.592,16.104-0.892,24.312
			c0.612,2.959,0.558,6.009-1.936,8.438c-1.06,1.035-0.354,2.425-0.106,3.595c1.12,5.308,3.822,9.678,7.645,13.554
			c4.184,4.245,3.795,6.447-1.623,8.48c-7.33,2.754-14.185,6.377-20.914,10.279c-12.804,7.42-26.133,6.861-39.701,2.763
			c-5.397-1.631-11.006-2.887-16.058-5.282c-9.837-4.659-19.92-4.4-30.224-2.949c-4.044,0.569-8.064,0.537-11.848-1.117
			c-4.549-1.991-5.192-4.367-2.242-8.299c3.615-4.819,7.353-9.553,11.119-14.255c1.415-1.765,1.515-3.399,0.745-5.527
			c-3.941-10.888-6.665-22.252-3.512-33.545c2.054-7.352-0.212-10.974-6.017-14.294c-3.213-1.837-3.417-5.301-3.04-8.672
			c0.463-4.106,1.287-8.199,1.368-12.309c0.046-2.439,0.892-3.59,2.901-4.6c9.545-4.802,19.826-7.082,30.249-8.685
			C45.317,1284.741,55.177,1283.584,65.143,1283.722z M3.124,1313.351c-0.378,0.744-0.538,1.483,0.034,2.213
			c0.254,0.788,0.774,1.307,1.562,1.56c7.84,10.1,17.075,17.325,30.938,15.177c1.482-0.231,3.007-0.182,4.514-0.246
			c14.027-0.587,28.056-1.168,42.938-1.787c-13.48-4.019-26.273-7.454-40.201-8.642c1.883-1.541,3.316-1.077,4.578-0.964
			c11.765,1.061,23.184,3.845,34.475,7.193c8.77,2.604,17.528,5.279,26.543,6.929c2.524,0.462,5.502,1.667,7.102-2.06
			c-2.505-0.92-5.094,0.339-7.877-0.942c6.383-1.524,12.789-1.096,18.483-3.885c-0.194-2.427-1.624-4.096-2.694-5.894
			c-2.018-3.384-3.328-6.319-1.471-10.709c3.231-7.638,1.545-10.836-5.803-14.751c-9.328-4.971-19.441-7.272-29.801-8.703
			c-15.395-2.127-30.81-1.883-46.188,0.08c-10.959,1.401-21.798,3.469-31.975,8.049c-1.22,0.549-3.085,0.799-3.224,2.284
			c-0.47,5.079-2.548,9.945-1.981,15.148L3.124,1313.351z"/>
		<path fill-rule="evenodd" clip-rule="evenodd" d="M59.75,1397.86c1.505-0.153,2.764,0.432,3.928,1.301
			c-0.122,0.146-0.246,0.295-0.368,0.442c-1.32-0.307-2.575-0.739-3.508-1.802L59.75,1397.86z"/>
		<path fill-rule="evenodd" clip-rule="evenodd" d="M58.215,1397.157c0.571,0.107,1.291-0.116,1.534,0.703l0.052-0.059
			c-0.51-0.232-1.019-0.467-1.528-0.7L58.215,1397.157z"/>
		<polygon fill-rule="evenodd" clip-rule="evenodd" points="58.274,1397.102 58.094,1396.915 58.215,1397.154 		"/>
		<path fill-rule="evenodd" clip-rule="evenodd" d="M23.454,1382.054l0.044-0.049L23.454,1382.054z"/>
		<polygon fill-rule="evenodd" clip-rule="evenodd" points="19.712,1340.509 19.82,1340.596 19.742,1340.497 		"/>
		<path fill-rule="evenodd" clip-rule="evenodd" d="M11.5,1306.578c2.451,2.067,4.525,4.756,8.799,4.987
			c-1.306-2.143-2.416-3.967-3.528-5.791l0.02,0.046c-0.272-0.272-0.546-0.546-0.818-0.818l0.046,0.021
			c1.219-1.541,0.482-3.922,2.241-5.23l-0.046-0.057c0.205,0.951,0.408,1.903,0.692,3.212c2.93-1.974,4.76-4.684,7.021-6.923
			c2.893-2.869,6.006-4.48,10.34-4.235c6.903,0.395,13.729,0.534,20.368,2.988c4.119,1.521,8.538,0.469,12.61-0.731
			c7.822-2.301,14.28-0.643,19.744,5.441c2.27,2.526,4.465,5.122,8.801,4.226c2.208-0.456,4.471,1.485,6.168,3.208
			c1.34,1.362,2.521,1.399,3.874,0.184c0.159,0.159,0.318,0.317,0.476,0.477c-3.521,5.709-9.297,8.1-15.177,10.442
			c8.405,0.076,16.297-1.563,23.013-7.281c-1.716,4.639-7.203,7.738-13.912,8.821c-10.096,1.63-20.037-0.176-30.021-1.065
			c-11.941-1.062-23.799-2.762-35.861-2.803c-7.812-0.025-15.771-1.138-22.987-4.785c-2.688-1.355-3.814-4.035-5.607-6.826
			c2.037-0.097,2.867,0.783,3.686,1.69l0.044-0.021c-0.01,0.258-0.02,0.513-0.031,0.771L11.5,1306.578z"/>
		<path fill-rule="evenodd" clip-rule="evenodd" d="M109.501,1305.022c0.071,0.646,0.063,1.266-0.567,1.673
			c-0.116-0.117-0.23-0.237-0.348-0.354c0.323-0.422,0.644-0.844,0.967-1.265L109.501,1305.022z"/>
		<path fill-rule="evenodd" clip-rule="evenodd" d="M3.076,1313.401c0.156,0.055,0.313,0.112,0.37,0.133
			c-0.044-0.026-0.183-0.104-0.321-0.184L3.076,1313.401z"/>
		<path fill-rule="evenodd" clip-rule="evenodd" d="M4.663,1317.164c0-0.285,0-0.569,0-0.854
			C4.663,1316.595,4.663,1316.879,4.663,1317.164z"/>
		<path fill-rule="evenodd" clip-rule="evenodd" d="M4.715,1316.397c-0.277-0.276-0.554-0.554-0.831-0.831
			C4.161,1315.844,4.438,1316.121,4.715,1316.397z"/>
		<path fill-rule="evenodd" clip-rule="evenodd" d="M3.976,1315.617c-0.287,0-0.573,0.001-0.859,0
			C3.403,1315.617,3.689,1315.617,3.976,1315.617z"/>
		<path fill-rule="evenodd" clip-rule="evenodd" d="M11.439,1305.774c0.02,0.27,0.038,0.535,0.06,0.803l-0.047-0.054
			c0.011-0.258,0.021-0.513,0.031-0.771L11.439,1305.774z"/>
		<path fill-rule="evenodd" clip-rule="evenodd" d="M108.934,1306.695c-0.209,0.294-0.418,0.59-0.627,0.885
			c-0.157-0.158-0.316-0.316-0.476-0.476c0.255-0.255,0.503-0.51,0.757-0.764C108.703,1306.458,108.817,1306.578,108.934,1306.695z"
			/>
		<path fill-rule="evenodd" clip-rule="evenodd" d="M109.553,1305.076c0.038-0.09,0.061-0.189,0.119-0.263
			c0.031-0.039,0.127-0.024,0.19-0.035c-0.117,0.081-0.241,0.162-0.361,0.244L109.553,1305.076z"/>
		<path fill-rule="evenodd" clip-rule="evenodd" d="M18.259,1299.792l-0.046-0.056L18.259,1299.792z"/>
		<path fill-rule="evenodd" clip-rule="evenodd" d="M22.71,1307.304l0.049,0.042L22.71,1307.304z"/>
		<path fill-rule="evenodd" clip-rule="evenodd" d="M23.542,1306.593l-0.04-0.042L23.542,1306.593z"/>
		<path fill-rule="evenodd" clip-rule="evenodd" d="M58.977,1298.204l0.044,0.04L58.977,1298.204z"/>
	</g>
</g>
<g>
	<path fill="#F9F7F7" d="M38.171,1357.39l-1.063,4.254h-1.898l-2.83-10.327c-0.064-0.234-0.125-0.393-0.18-0.475
		s-0.151-0.149-0.286-0.202c-0.234-0.094-0.352-0.249-0.352-0.466c0-0.17,0.073-0.3,0.22-0.391s0.352-0.137,0.615-0.137h4.113
		c0.258,0,0.434,0.035,0.527,0.105c0.123,0.088,0.185,0.208,0.185,0.36c0,0.182-0.103,0.334-0.308,0.457
		c-0.17,0.1-0.28,0.184-0.33,0.251s-0.075,0.168-0.075,0.303c0,0.064,0.009,0.129,0.026,0.193L38.171,1357.39z M39.006,1349.646
		h1.811l2.109,7.998l-1.002,3.999h-1.916l-2.048-7.726L39.006,1349.646z M43.26,1356.238l-0.457-1.784l0.642-2.602
		c0.053-0.205,0.079-0.363,0.079-0.475c0-0.176-0.048-0.326-0.145-0.452s-0.256-0.245-0.479-0.356
		c-0.146-0.076-0.248-0.149-0.303-0.22s-0.083-0.161-0.083-0.272c0-0.152,0.048-0.262,0.145-0.329s0.25-0.102,0.461-0.102h2.092
		c0.24,0,0.409,0.034,0.505,0.102s0.145,0.18,0.145,0.338c0,0.094-0.025,0.172-0.075,0.233s-0.133,0.118-0.25,0.171
		c-0.264,0.117-0.457,0.24-0.58,0.369c-0.27,0.27-0.472,0.659-0.606,1.169L43.26,1356.238z"/>
	<path fill="#F9F7F7" d="M51.82,1361.644H47.9h-0.229c-0.211,0-0.374-0.039-0.488-0.118s-0.171-0.192-0.171-0.339
		c0-0.24,0.117-0.398,0.352-0.475c0.193-0.064,0.306-0.104,0.338-0.118s0.066-0.049,0.101-0.102c0.07-0.094,0.105-0.243,0.105-0.448
		v-8.798c0-0.205-0.035-0.354-0.105-0.448c-0.035-0.053-0.069-0.086-0.101-0.101s-0.145-0.055-0.338-0.119
		c-0.234-0.076-0.352-0.234-0.352-0.475c0-0.146,0.057-0.259,0.171-0.338s0.277-0.119,0.488-0.119H47.9h3.92h0.229
		c0.416,0,0.624,0.152,0.624,0.457c0,0.246-0.111,0.404-0.334,0.475l-0.272,0.088c-0.17,0.059-0.255,0.252-0.255,0.58v8.798
		c0,0.328,0.085,0.521,0.255,0.58l0.272,0.088c0.223,0.07,0.334,0.229,0.334,0.475c0,0.305-0.208,0.457-0.624,0.457H51.82z
		 M52.559,1355.078h1.433v-3.832c0-0.328-0.085-0.521-0.255-0.58l-0.281-0.088c-0.223-0.07-0.334-0.229-0.334-0.475
		c0-0.305,0.211-0.457,0.633-0.457h0.229h3.911h0.237c0.439,0,0.659,0.152,0.659,0.457c0,0.24-0.117,0.398-0.352,0.475
		c-0.193,0.064-0.306,0.104-0.338,0.119s-0.066,0.048-0.101,0.101c-0.07,0.094-0.105,0.243-0.105,0.448v8.763
		c0,0.322,0.088,0.519,0.264,0.589l0.281,0.097c0.234,0.076,0.352,0.237,0.352,0.483c0,0.311-0.22,0.466-0.659,0.466h-0.237h-3.911
		h-0.246c-0.41,0-0.615-0.155-0.615-0.466c0-0.246,0.111-0.407,0.334-0.483l0.281-0.097c0.17-0.053,0.255-0.249,0.255-0.589v-4.061
		h-1.433V1355.078z"/>
	<path fill="#F9F7F7" d="M65.215,1349.646v11.997h-3.911h-0.229c-0.211,0-0.374-0.039-0.488-0.118s-0.171-0.192-0.171-0.339
		c0-0.24,0.117-0.398,0.352-0.475c0.193-0.064,0.306-0.104,0.338-0.118s0.066-0.049,0.101-0.102c0.07-0.094,0.105-0.243,0.105-0.448
		v-8.798c0-0.205-0.035-0.354-0.105-0.448c-0.035-0.053-0.069-0.086-0.101-0.101s-0.145-0.055-0.338-0.119
		c-0.234-0.076-0.352-0.234-0.352-0.475c0-0.146,0.057-0.259,0.171-0.338s0.277-0.119,0.488-0.119h0.229H65.215z M65.953,1356.045
		v-1.02c0.34-0.164,0.592-0.343,0.756-0.536s0.284-0.451,0.36-0.773c0.047-0.223,0.108-0.376,0.185-0.461s0.185-0.128,0.325-0.128
		c0.188,0,0.316,0.073,0.387,0.22c0.041,0.076,0.062,0.249,0.062,0.519v3.349c0,0.275-0.031,0.466-0.092,0.571
		c-0.062,0.105-0.175,0.158-0.339,0.158c-0.135,0-0.24-0.041-0.316-0.123s-0.138-0.22-0.185-0.413
		c-0.1-0.404-0.242-0.715-0.426-0.932C66.484,1356.259,66.246,1356.115,65.953,1356.045z M65.997,1349.646h3.542v3.111
		c0,0.182-0.035,0.313-0.105,0.396s-0.182,0.123-0.334,0.123c-0.129,0-0.223-0.026-0.281-0.079s-0.114-0.161-0.167-0.325
		c-0.223-0.68-0.55-1.198-0.979-1.556c-0.432-0.357-0.989-0.571-1.675-0.642V1349.646z M66.006,1361.644v-0.949
		c0.381-0.059,0.695-0.141,0.945-0.246c0.248-0.105,0.499-0.267,0.751-0.483s0.452-0.44,0.603-0.672
		c0.148-0.231,0.291-0.538,0.426-0.919c0.064-0.188,0.132-0.314,0.202-0.382s0.167-0.102,0.29-0.102
		c0.164,0,0.278,0.049,0.343,0.146s0.097,0.265,0.097,0.505v3.103H66.006z"/>
	<path fill="#F9F7F7" d="M73.898,1351.879l0.448,1.819l-1.556,5.678c-0.047,0.164-0.07,0.316-0.07,0.457
		c0,0.369,0.173,0.633,0.519,0.791l0.308,0.141c0.193,0.088,0.29,0.234,0.29,0.439c0,0.293-0.214,0.439-0.642,0.439h-2.232
		c-0.217,0-0.389-0.045-0.514-0.136c-0.127-0.091-0.189-0.216-0.189-0.374c0-0.17,0.129-0.311,0.387-0.422
		c0.24-0.105,0.418-0.2,0.531-0.285c0.115-0.085,0.225-0.201,0.33-0.348c0.164-0.24,0.299-0.56,0.404-0.958L73.898,1351.879z
		 M74.505,1349.646h3.542l2.443,10.327c0.047,0.182,0.1,0.343,0.158,0.483c0.053,0.111,0.17,0.202,0.352,0.272
		c0.152,0.064,0.258,0.129,0.316,0.193s0.088,0.152,0.088,0.264c0,0.305-0.229,0.457-0.686,0.457h-4.386
		c-0.176,0-0.316-0.042-0.422-0.127s-0.158-0.198-0.158-0.339c0-0.117,0.023-0.205,0.07-0.264s0.152-0.132,0.316-0.22
		c0.117-0.059,0.199-0.123,0.246-0.193s0.07-0.158,0.07-0.264c0-0.1-0.009-0.188-0.026-0.264l-0.281-1.274h-2.452l0.237-1.046h1.969
		l-1.617-7.146L74.505,1349.646z"/>
	<path fill="#F9F7F7" d="M81.765,1349.646h2.312v1.063c-0.275,0.158-0.489,0.36-0.642,0.606c-0.252,0.398-0.422,0.87-0.51,1.415
		l-0.088,0.536c-0.029,0.17-0.093,0.304-0.188,0.4c-0.098,0.097-0.219,0.145-0.365,0.145c-0.152,0-0.277-0.053-0.373-0.158
		c-0.098-0.105-0.146-0.243-0.146-0.413V1349.646z M88.69,1349.646v10.327c0,0.229,0.044,0.393,0.132,0.492
		c0.047,0.059,0.091,0.096,0.132,0.11s0.176,0.051,0.404,0.109c0.281,0.064,0.422,0.226,0.422,0.483
		c0,0.152-0.076,0.275-0.229,0.369c-0.111,0.07-0.299,0.105-0.562,0.105h-0.29h-3.92h-0.29c-0.258,0-0.452-0.039-0.585-0.118
		c-0.131-0.079-0.197-0.198-0.197-0.356c0-0.258,0.141-0.419,0.422-0.483c0.229-0.059,0.363-0.095,0.404-0.109
		s0.082-0.052,0.123-0.11c0.088-0.1,0.132-0.264,0.132-0.492v-10.327H88.69z M91.731,1349.646v3.595c0,0.17-0.048,0.308-0.146,0.413
		c-0.096,0.105-0.221,0.158-0.373,0.158c-0.146,0-0.268-0.048-0.365-0.145c-0.096-0.097-0.159-0.23-0.188-0.4l-0.088-0.536
		c-0.088-0.545-0.258-1.017-0.51-1.415c-0.158-0.246-0.372-0.448-0.642-0.606v-1.063H91.731z"/>
</g>
<g>
	<g id="nO0By6.tif_15_">
		<g>
			<path fill-rule="evenodd" clip-rule="evenodd" d="M65.438,1.487c17.328,0.322,34.408,2.332,50.032,10.366
				c11.734,6.034,11.309,4.46,8.42,18.524c-0.402,1.954-0.519,3.666,0.463,5.426c0.672,1.202,1.245,2.463,1.836,3.708
				c3.482,7.3,3.512,7.401-4.035,9.682c-1.762,0.533-2.062,1.518-2.254,2.932c-1.082,8.073-2.592,16.104-0.891,24.312
				c0.611,2.959,0.558,6.009-1.936,8.438c-1.061,1.035-0.355,2.425-0.107,3.595c1.121,5.308,3.822,9.678,7.645,13.554
				c4.184,4.245,3.795,6.447-1.623,8.48c-7.329,2.754-14.184,6.377-20.914,10.279c-12.803,7.42-26.133,6.861-39.7,2.763
				c-5.397-1.631-11.006-2.887-16.058-5.282c-9.837-4.659-19.92-4.4-30.224-2.949c-4.044,0.569-8.064,0.537-11.848-1.117
				c-4.549-1.991-5.192-4.367-2.242-8.299c3.615-4.819,7.353-9.553,11.119-14.255c1.415-1.765,1.515-3.399,0.745-5.527
				c-3.941-10.888-6.665-22.252-3.512-33.545c2.054-7.352-0.212-10.974-6.017-14.294c-3.213-1.837-3.417-5.301-3.04-8.672
				c0.463-4.106,1.287-8.199,1.368-12.309c0.046-2.439,0.892-3.59,2.901-4.6c9.545-4.802,19.826-7.082,30.249-8.685
				C45.613,2.507,55.473,1.35,65.438,1.487z M3.419,31.116C3.041,31.86,2.881,32.6,3.453,33.329c0.254,0.788,0.774,1.307,1.562,1.56
				c7.84,10.1,17.075,17.325,30.938,15.177c1.482-0.231,3.007-0.182,4.514-0.246c14.027-0.587,28.056-1.168,42.938-1.787
				c-13.48-4.019-26.272-7.454-40.201-8.642c1.883-1.541,3.316-1.077,4.578-0.964c11.765,1.061,23.184,3.845,34.475,7.193
				c8.771,2.604,17.529,5.279,26.543,6.929c2.525,0.462,5.503,1.667,7.102-2.06c-2.504-0.92-5.094,0.339-7.877-0.942
				c6.384-1.524,12.789-1.096,18.484-3.885c-0.195-2.427-1.624-4.096-2.695-5.894c-2.018-3.384-3.328-6.319-1.471-10.709
				c3.232-7.638,1.546-10.836-5.803-14.751c-9.328-4.971-19.44-7.272-29.801-8.703c-15.394-2.127-30.81-1.883-46.188,0.08
				C29.592,7.087,18.753,9.154,8.576,13.734c-1.22,0.549-3.085,0.799-3.224,2.284c-0.47,5.079-2.548,9.945-1.981,15.148
				L3.419,31.116z"/>
			<path fill-rule="evenodd" clip-rule="evenodd" d="M60.045,115.626c1.505-0.153,2.764,0.432,3.928,1.301
				c-0.122,0.146-0.246,0.295-0.368,0.442c-1.32-0.307-2.575-0.739-3.508-1.802L60.045,115.626z"/>
			<path fill-rule="evenodd" clip-rule="evenodd" d="M58.511,114.923c0.571,0.107,1.291-0.116,1.534,0.703l0.052-0.059
				c-0.51-0.232-1.019-0.467-1.528-0.7L58.511,114.923z"/>
			<polygon fill-rule="evenodd" clip-rule="evenodd" points="58.569,114.867 58.389,114.681 58.511,114.92 			"/>
			<path fill-rule="evenodd" clip-rule="evenodd" d="M23.75,99.819l0.044-0.049L23.75,99.819z"/>
			<polygon fill-rule="evenodd" clip-rule="evenodd" points="20.007,58.274 20.115,58.361 20.038,58.263 			"/>
			<path fill-rule="evenodd" clip-rule="evenodd" d="M11.795,24.344c2.451,2.067,4.525,4.756,8.799,4.987
				c-1.306-2.143-2.416-3.967-3.528-5.791l0.02,0.046c-0.272-0.272-0.546-0.546-0.818-0.818l0.046,0.021
				c1.219-1.541,0.482-3.922,2.241-5.23l-0.046-0.057c0.205,0.951,0.408,1.903,0.692,3.212c2.93-1.974,4.76-4.684,7.021-6.923
				c2.893-2.869,6.006-4.48,10.34-4.235c6.903,0.395,13.729,0.534,20.368,2.988c4.119,1.521,8.537,0.469,12.61-0.731
				c7.821-2.301,14.28-0.643,19.743,5.441c2.271,2.526,4.466,5.122,8.801,4.226c2.209-0.456,4.471,1.485,6.168,3.208
				c1.34,1.362,2.521,1.399,3.875,0.184c0.158,0.159,0.318,0.317,0.475,0.477c-3.521,5.709-9.297,8.1-15.176,10.442
				c8.404,0.076,16.297-1.563,23.012-7.281c-1.715,4.639-7.203,7.738-13.912,8.821c-10.095,1.63-20.036-0.176-30.021-1.065
				c-11.941-1.062-23.799-2.762-35.862-2.803c-7.812-0.025-15.771-1.138-22.987-4.785c-2.688-1.355-3.814-4.035-5.607-6.826
				c2.037-0.097,2.867,0.783,3.686,1.69l0.044-0.021c-0.01,0.258-0.02,0.513-0.031,0.771L11.795,24.344z"/>
			<path fill-rule="evenodd" clip-rule="evenodd" d="M109.797,22.788c0.07,0.646,0.063,1.266-0.568,1.673
				c-0.115-0.117-0.23-0.237-0.348-0.354c0.324-0.422,0.645-0.844,0.967-1.265L109.797,22.788z"/>
			<path fill-rule="evenodd" clip-rule="evenodd" d="M3.371,31.167c0.156,0.055,0.313,0.112,0.37,0.133
				c-0.044-0.026-0.183-0.104-0.321-0.184L3.371,31.167z"/>
			<path fill-rule="evenodd" clip-rule="evenodd" d="M4.958,34.93c0-0.285,0-0.569,0-0.854C4.958,34.36,4.958,34.645,4.958,34.93z"
				/>
			<path fill-rule="evenodd" clip-rule="evenodd" d="M5.01,34.163c-0.277-0.276-0.554-0.554-0.831-0.831
				C4.456,33.609,4.733,33.887,5.01,34.163z"/>
			<path fill-rule="evenodd" clip-rule="evenodd" d="M4.271,33.383c-0.287,0-0.573,0.001-0.859,0
				C3.699,33.383,3.985,33.383,4.271,33.383z"/>
			<path fill-rule="evenodd" clip-rule="evenodd" d="M11.735,23.54c0.02,0.27,0.038,0.535,0.06,0.803l-0.047-0.054
				c0.011-0.258,0.021-0.513,0.031-0.771L11.735,23.54z"/>
			<path fill-rule="evenodd" clip-rule="evenodd" d="M109.229,24.461c-0.209,0.294-0.418,0.59-0.627,0.885
				c-0.156-0.158-0.316-0.316-0.475-0.476c0.255-0.255,0.502-0.51,0.757-0.764C108.998,24.224,109.113,24.344,109.229,24.461z"/>
			<path fill-rule="evenodd" clip-rule="evenodd" d="M109.848,22.842c0.039-0.09,0.062-0.189,0.12-0.263
				c0.031-0.039,0.126-0.024,0.19-0.035c-0.117,0.081-0.241,0.162-0.361,0.244L109.848,22.842z"/>
			<path fill-rule="evenodd" clip-rule="evenodd" d="M18.555,17.558l-0.046-0.056L18.555,17.558z"/>
			<path fill-rule="evenodd" clip-rule="evenodd" d="M23.005,25.069l0.049,0.042L23.005,25.069z"/>
			<path fill-rule="evenodd" clip-rule="evenodd" d="M23.837,24.358l-0.04-0.042L23.837,24.358z"/>
			<path fill-rule="evenodd" clip-rule="evenodd" d="M59.272,15.97l0.044,0.04L59.272,15.97z"/>
		</g>
	</g>
	<g>
		<path fill="#F9F7F7" d="M37.481,79.409H33.57h-0.229c-0.211,0-0.374-0.039-0.488-0.118s-0.171-0.192-0.171-0.339
			c0-0.24,0.117-0.398,0.352-0.475c0.193-0.064,0.306-0.104,0.338-0.118s0.066-0.049,0.101-0.102
			c0.07-0.094,0.105-0.243,0.105-0.448v-8.798c0-0.205-0.035-0.354-0.105-0.448c-0.035-0.053-0.069-0.086-0.101-0.101
			s-0.145-0.055-0.338-0.119c-0.234-0.076-0.352-0.234-0.352-0.475c0-0.146,0.057-0.259,0.171-0.338s0.277-0.119,0.488-0.119h0.229
			h3.92h0.299c0.258,0,0.442,0.035,0.554,0.105c0.152,0.094,0.229,0.217,0.229,0.369c0,0.258-0.141,0.419-0.422,0.483
			c-0.229,0.053-0.363,0.088-0.404,0.105s-0.085,0.053-0.132,0.105c-0.088,0.105-0.132,0.27-0.132,0.492V79.409z M38.193,79.409
			v-0.984c0.287-0.053,0.514-0.111,0.681-0.176s0.327-0.158,0.479-0.281c0.246-0.193,0.472-0.46,0.677-0.8s0.372-0.718,0.501-1.134
			c0.094-0.322,0.18-0.534,0.259-0.637s0.195-0.154,0.347-0.154c0.164,0,0.284,0.067,0.36,0.202
			c0.035,0.064,0.053,0.193,0.053,0.387v3.577H38.193z"/>
		<path fill="#F9F7F7" d="M47.07,67.412v11.997h-3.911h-0.229c-0.211,0-0.374-0.039-0.488-0.118s-0.171-0.192-0.171-0.339
			c0-0.24,0.117-0.398,0.352-0.475c0.193-0.064,0.306-0.104,0.338-0.118s0.066-0.049,0.101-0.102
			c0.07-0.094,0.105-0.243,0.105-0.448v-8.798c0-0.205-0.035-0.354-0.105-0.448c-0.035-0.053-0.069-0.086-0.101-0.101
			s-0.145-0.055-0.338-0.119c-0.234-0.076-0.352-0.234-0.352-0.475c0-0.146,0.057-0.259,0.171-0.338s0.277-0.119,0.488-0.119h0.229
			H47.07z M47.809,73.811v-1.02c0.34-0.164,0.592-0.343,0.756-0.536s0.284-0.451,0.36-0.773c0.047-0.223,0.108-0.376,0.185-0.461
			s0.185-0.128,0.325-0.128c0.188,0,0.316,0.073,0.387,0.22c0.041,0.076,0.062,0.249,0.062,0.519v3.349
			c0,0.275-0.031,0.466-0.092,0.571s-0.174,0.158-0.338,0.158c-0.135,0-0.24-0.041-0.316-0.123s-0.138-0.22-0.185-0.413
			c-0.1-0.404-0.242-0.715-0.426-0.932S48.102,73.881,47.809,73.811z M47.853,67.412h3.542v3.111c0,0.182-0.035,0.313-0.105,0.396
			s-0.182,0.123-0.334,0.123c-0.129,0-0.223-0.026-0.281-0.079s-0.114-0.161-0.167-0.325c-0.223-0.68-0.549-1.198-0.98-1.556
			s-0.989-0.571-1.674-0.642V67.412z M47.861,79.409V78.46c0.381-0.059,0.696-0.141,0.945-0.246s0.5-0.267,0.751-0.483
			s0.453-0.44,0.602-0.672s0.292-0.538,0.426-0.919c0.064-0.188,0.132-0.314,0.202-0.382s0.167-0.102,0.29-0.102
			c0.164,0,0.278,0.049,0.343,0.146s0.097,0.265,0.097,0.505v3.103H47.861z"/>
		<path fill="#F9F7F7" d="M57.415,67.175v0.976c-0.516,0.123-0.773,0.533-0.773,1.23v8.183c0,0.316,0.044,0.56,0.132,0.729
			c0.076,0.141,0.237,0.261,0.483,0.36v0.993c-0.188,0-0.359-0.015-0.514-0.044s-0.362-0.088-0.62-0.176
			c-0.615-0.211-1.172-0.533-1.67-0.967s-0.908-0.952-1.23-1.556c-0.498-0.943-0.747-2.06-0.747-3.349
			c0-1.248,0.223-2.355,0.668-3.322s1.084-1.726,1.916-2.276c0.48-0.322,0.996-0.554,1.547-0.694
			C56.835,67.204,57.104,67.175,57.415,67.175z M62.108,77.941c-0.234,0.234-0.546,0.474-0.936,0.717s-0.757,0.435-1.103,0.575
			c-0.316,0.123-0.667,0.223-1.05,0.299s-0.722,0.114-1.015,0.114v-0.993c0.17-0.041,0.297-0.091,0.382-0.149
			s0.157-0.141,0.215-0.246c0.1-0.182,0.149-0.413,0.149-0.694v-2.566c0-0.229-0.044-0.393-0.132-0.492
			c-0.041-0.059-0.082-0.095-0.123-0.109s-0.176-0.049-0.404-0.102c-0.281-0.07-0.422-0.234-0.422-0.492
			c0-0.152,0.066-0.27,0.198-0.352s0.327-0.123,0.584-0.123h0.29h3.217c0.264,0,0.45,0.037,0.558,0.11s0.163,0.2,0.163,0.382
			c0,0.111-0.022,0.204-0.066,0.277s-0.125,0.15-0.242,0.232s-0.19,0.158-0.22,0.229s-0.044,0.199-0.044,0.387V77.941z
			 M58.136,68.133v-0.949c0.955,0.088,1.74,0.264,2.355,0.527c0.182,0.082,0.322,0.123,0.422,0.123c0.094,0,0.166-0.021,0.215-0.065
			s0.151-0.169,0.303-0.374c0.105-0.146,0.237-0.22,0.396-0.22c0.164,0,0.28,0.046,0.347,0.137s0.101,0.241,0.101,0.452v3.419
			c0,0.445-0.164,0.668-0.492,0.668c-0.164,0-0.286-0.044-0.365-0.132s-0.154-0.261-0.224-0.519
			c-0.088-0.328-0.246-0.71-0.475-1.146s-0.448-0.781-0.659-1.033c-0.24-0.293-0.51-0.508-0.809-0.646S58.581,68.156,58.136,68.133z
			"/>
		<path fill="#F9F7F7" d="M64.745,75.902v-6.891c0-0.205-0.035-0.354-0.105-0.448c-0.035-0.053-0.069-0.086-0.101-0.101
			c-0.033-0.015-0.146-0.055-0.339-0.119c-0.234-0.076-0.352-0.231-0.352-0.466c0-0.152,0.057-0.268,0.171-0.347
			s0.277-0.119,0.488-0.119h0.229h3.92h0.229l0.316,0.035c0.1,0.029,0.182,0.082,0.246,0.158s0.097,0.167,0.097,0.272
			c0,0.234-0.117,0.39-0.352,0.466c-0.193,0.064-0.306,0.104-0.339,0.119c-0.031,0.015-0.065,0.048-0.101,0.101
			c-0.07,0.094-0.105,0.243-0.105,0.448v7.374c0,0.498,0.013,0.846,0.04,1.042c0.025,0.196,0.08,0.373,0.162,0.531
			c0.076,0.146,0.161,0.252,0.255,0.316s0.272,0.138,0.536,0.22v1.151h-0.193c-0.762,0-1.395-0.067-1.898-0.202
			c-0.592-0.158-1.11-0.393-1.556-0.703s-0.762-0.659-0.949-1.046C64.845,77.285,64.745,76.688,64.745,75.902z M70.449,79.646
			v-1.151c0.586-0.076,1.075-0.316,1.468-0.721c0.445-0.463,0.668-1.128,0.668-1.995v-5.73c0-0.803-0.308-1.362-0.923-1.679
			c-0.182-0.094-0.301-0.174-0.355-0.241c-0.057-0.067-0.084-0.166-0.084-0.295c0-0.152,0.056-0.261,0.167-0.325
			s0.293-0.097,0.545-0.097h2.153c0.182,0,0.303,0.005,0.365,0.014c0.061,0.009,0.121,0.03,0.18,0.065
			c0.152,0.088,0.229,0.208,0.229,0.36c0,0.129-0.047,0.237-0.141,0.325c-0.029,0.029-0.155,0.108-0.378,0.237
			c-0.258,0.141-0.46,0.356-0.606,0.646s-0.22,0.619-0.22,0.988v5.739c0,0.984-0.217,1.793-0.65,2.426
			c-0.316,0.469-0.771,0.844-1.362,1.125C71.211,79.479,70.859,79.582,70.449,79.646z"/>
		<path fill="#F9F7F7" d="M80.803,67.412l1.731,4.931l0.765-2.663v2.918l-2.03,6.812h-0.466l-3.41-10.116
			c-0.117-0.34-0.24-0.568-0.369-0.686c-0.076-0.076-0.208-0.132-0.396-0.167c-0.381-0.082-0.571-0.264-0.571-0.545
			c0-0.152,0.055-0.271,0.162-0.355c0.109-0.085,0.266-0.128,0.471-0.128H80.803z M77.393,71.455l0.932,2.654v2.646
			c0,0.27,0.01,0.463,0.031,0.58c0.02,0.117,0.065,0.246,0.136,0.387c0.123,0.258,0.293,0.451,0.51,0.58l0.325,0.211
			c0.223,0.135,0.334,0.284,0.334,0.448c0,0.299-0.22,0.448-0.659,0.448h-2.206c-0.439,0-0.659-0.146-0.659-0.439
			c0-0.094,0.019-0.165,0.058-0.215c0.037-0.05,0.112-0.107,0.224-0.172c0.65-0.352,0.976-0.961,0.976-1.828V71.455z M84.037,67.412
			h3.902h0.237c0.439,0,0.659,0.152,0.659,0.457c0,0.24-0.117,0.398-0.352,0.475c-0.193,0.064-0.307,0.104-0.338,0.119
			c-0.033,0.015-0.066,0.048-0.102,0.101c-0.07,0.094-0.105,0.243-0.105,0.448v8.798c0,0.205,0.035,0.354,0.105,0.448
			c0.035,0.053,0.068,0.087,0.102,0.102c0.031,0.015,0.145,0.054,0.338,0.118c0.234,0.076,0.352,0.234,0.352,0.475
			c0,0.305-0.22,0.457-0.659,0.457h-0.237h-3.911h-0.29c-0.258,0-0.453-0.039-0.584-0.118c-0.133-0.079-0.198-0.198-0.198-0.356
			c0-0.258,0.141-0.419,0.422-0.483c0.229-0.059,0.363-0.095,0.404-0.109s0.082-0.049,0.123-0.102
			c0.088-0.105,0.132-0.272,0.132-0.501V67.412z"/>
		<path fill="#F9F7F7" d="M95.076,67.412v11.997h-3.911h-0.229c-0.211,0-0.374-0.039-0.487-0.118
			c-0.115-0.079-0.172-0.192-0.172-0.339c0-0.24,0.117-0.398,0.352-0.475c0.193-0.064,0.307-0.104,0.338-0.118
			c0.033-0.015,0.066-0.049,0.102-0.102c0.07-0.094,0.105-0.243,0.105-0.448v-8.798c0-0.205-0.035-0.354-0.105-0.448
			c-0.035-0.053-0.068-0.086-0.102-0.101c-0.031-0.015-0.145-0.055-0.338-0.119c-0.234-0.076-0.352-0.234-0.352-0.475
			c0-0.146,0.057-0.259,0.172-0.338c0.113-0.079,0.276-0.119,0.487-0.119h0.229H95.076z M95.814,73.811v-1.02
			c0.34-0.164,0.592-0.343,0.756-0.536s0.284-0.451,0.36-0.773c0.047-0.223,0.108-0.376,0.185-0.461s0.185-0.128,0.325-0.128
			c0.188,0,0.316,0.073,0.387,0.22c0.041,0.076,0.062,0.249,0.062,0.519v3.349c0,0.275-0.031,0.466-0.092,0.571
			c-0.062,0.105-0.175,0.158-0.339,0.158c-0.135,0-0.24-0.041-0.316-0.123s-0.138-0.22-0.185-0.413
			c-0.1-0.404-0.242-0.715-0.426-0.932C96.346,74.024,96.107,73.881,95.814,73.811z M95.858,67.412H99.4v3.111
			c0,0.182-0.035,0.313-0.105,0.396s-0.182,0.123-0.334,0.123c-0.129,0-0.223-0.026-0.281-0.079s-0.114-0.161-0.167-0.325
			c-0.223-0.68-0.55-1.198-0.979-1.556c-0.432-0.357-0.989-0.571-1.675-0.642V67.412z M95.867,79.409V78.46
			c0.381-0.059,0.695-0.141,0.945-0.246c0.248-0.105,0.499-0.267,0.751-0.483s0.452-0.44,0.603-0.672
			c0.148-0.231,0.291-0.538,0.426-0.919c0.064-0.188,0.132-0.314,0.202-0.382s0.167-0.102,0.29-0.102
			c0.164,0,0.278,0.049,0.343,0.146s0.097,0.265,0.097,0.505v3.103H95.867z"/>
	</g>
</g>
</svg>
