<?xml version="1.0" encoding="utf-8"?>
<!-- Generator: Adobe Illustrator 16.0.4, SVG Export Plug-In . SVG Version: 6.00 Build 0)  -->
<!DOCTYPE svg PUBLIC "-//W3C//DTD SVG 1.1//EN" "http://www.w3.org/Graphics/SVG/1.1/DTD/svg11.dtd">
<svg version="1.1" id="Layer_1108" xmlns="http://www.w3.org/2000/svg" xmlns:xlink="http://www.w3.org/1999/xlink" x="0px" y="0px"
	 width="128px" height="128px" viewBox="0 0 128 128" enable-background="new 0 0 128 128" xml:space="preserve">
<g>
	<g id="nO0By6.tif_11_">
		<g>
			<path d="M60.045,115.626c1.505-0.153,2.764,0.433,3.928,1.301c-0.122,0.146-0.246,0.296-0.368,0.442
				c-1.32-0.307-2.575-0.739-3.508-1.803L60.045,115.626z"/>
			<path d="M58.511,114.923c0.571,0.106,1.291-0.116,1.534,0.703l0.052-0.06c-0.51-0.231-1.019-0.467-1.528-0.699L58.511,114.923z"
				/>
			<polygon points="58.569,114.867 58.389,114.682 58.511,114.92 			"/>
			<path d="M23.75,99.818l0.044-0.049L23.75,99.818z"/>
			<polygon points="20.007,58.274 20.115,58.361 20.038,58.263 			"/>
			<path d="M11.795,24.344c2.451,2.067,4.525,4.756,8.799,4.987c-1.306-2.143-2.416-3.967-3.528-5.791l0.02,0.046
				c-0.272-0.272-0.546-0.546-0.818-0.818l0.046,0.021c1.219-1.541,0.482-3.922,2.241-5.23l-0.046-0.057
				c0.205,0.951,0.408,1.903,0.692,3.212c2.93-1.974,4.76-4.684,7.021-6.923c2.893-2.869,6.006-4.48,10.34-4.235
				c6.903,0.395,13.729,0.534,20.368,2.988c4.119,1.521,8.537,0.469,12.61-0.731c7.821-2.301,14.28-0.643,19.743,5.441
				c2.271,2.526,4.466,5.122,8.801,4.226c2.209-0.456,4.471,1.485,6.168,3.208c1.34,1.362,2.521,1.399,3.875,0.184
				c0.158,0.159,0.318,0.317,0.475,0.477c-3.521,5.709-9.297,8.1-15.176,10.442c8.404,0.076,16.297-1.563,23.012-7.281
				c-1.715,4.639-7.203,7.738-13.912,8.821c-10.094,1.63-20.034-0.176-30.021-1.065c-11.941-1.062-23.799-2.762-35.862-2.803
				c-7.812-0.025-15.771-1.138-22.987-4.785c-2.688-1.355-3.814-4.035-5.607-6.826c2.037-0.097,2.867,0.783,3.686,1.69l0.044-0.021
				c-0.01,0.258-0.02,0.513-0.031,0.771L11.795,24.344z"/>
			<path d="M109.797,22.788c0.07,0.646,0.062,1.266-0.568,1.673c-0.115-0.117-0.229-0.237-0.348-0.354
				c0.324-0.422,0.645-0.844,0.967-1.265L109.797,22.788z"/>
			<path d="M3.371,31.167c0.156,0.055,0.313,0.112,0.37,0.133c-0.044-0.026-0.183-0.104-0.321-0.184L3.371,31.167z"/>
			<path d="M4.958,34.93c0-0.285,0-0.569,0-0.854C4.958,34.36,4.958,34.645,4.958,34.93z"/>
			<path d="M5.01,34.163c-0.277-0.276-0.554-0.554-0.831-0.831C4.456,33.609,4.733,33.887,5.01,34.163z"/>
			<path d="M4.271,33.383c-0.287,0-0.573,0.001-0.859,0C3.699,33.383,3.985,33.383,4.271,33.383z"/>
			<path d="M11.735,23.54c0.02,0.27,0.038,0.535,0.06,0.803l-0.047-0.054c0.011-0.258,0.021-0.513,0.031-0.771L11.735,23.54z"/>
			<path d="M109.229,24.461c-0.209,0.294-0.418,0.59-0.627,0.885c-0.156-0.158-0.314-0.316-0.475-0.476
				c0.255-0.255,0.502-0.51,0.757-0.764C108.998,24.224,109.113,24.344,109.229,24.461z"/>
			<path d="M109.848,22.842c0.039-0.09,0.062-0.189,0.12-0.263c0.031-0.039,0.126-0.024,0.19-0.035
				c-0.117,0.081-0.241,0.162-0.361,0.244L109.848,22.842z"/>
			<path d="M18.555,17.558l-0.046-0.056L18.555,17.558z"/>
			<path d="M23.005,25.069l0.049,0.042L23.005,25.069z"/>
			<path d="M23.837,24.358l-0.04-0.042L23.837,24.358z"/>
			<path d="M59.272,15.97l0.044,0.04L59.272,15.97z"/>
		</g>
	</g>
	<g>
		<path d="M122.154,49.193c7.547-2.281,7.517-2.382,4.035-9.682c-0.592-1.245-1.164-2.506-1.836-3.708
			c-0.982-1.76-0.865-3.472-0.463-5.426c2.889-14.064,3.312-12.49-8.42-18.524C99.846,3.819,82.766,1.809,65.438,1.487
			c-9.963-0.137-19.825,1.02-29.623,2.525C25.392,5.615,15.111,7.895,5.566,12.697c-2.009,1.01-2.855,2.161-2.901,4.6
			C2.584,21.407,1.76,25.5,1.297,29.606c-0.377,3.371-0.173,6.835,3.04,8.672c5.805,3.32,8.071,6.942,6.017,14.294
			c-3.153,11.293-0.429,22.657,3.512,33.545c0.77,2.128,0.67,3.762-0.745,5.527c-3.766,4.701-7.504,9.436-11.119,14.254
			c-2.95,3.933-2.307,6.309,2.242,8.3c3.784,1.653,7.804,1.686,11.848,1.116c10.304-1.45,20.387-1.709,30.224,2.949
			c5.052,2.396,10.661,3.65,16.058,5.281c13.567,4.1,26.897,4.657,39.7-2.763c6.73-3.902,13.585-7.525,20.914-10.279
			c5.418-2.032,5.807-4.233,1.623-8.479c-3.823-3.875-6.524-8.246-7.646-13.553c-0.248-1.172-0.953-2.562,0.107-3.597
			c2.492-2.431,2.547-5.479,1.936-8.438c-1.699-8.209-0.189-16.239,0.893-24.312C120.092,50.711,120.393,49.726,122.154,49.193z
			 M36.053,79.646c-0.48,0-1.011-0.139-1.591-0.412c-0.217-0.102-0.366-0.164-0.448-0.193s-0.161-0.044-0.237-0.044
			c-0.117,0-0.205,0.021-0.264,0.058c-0.059,0.038-0.152,0.133-0.281,0.285c-0.105,0.129-0.22,0.193-0.343,0.193
			c-0.328,0-0.492-0.252-0.492-0.756v-3.199c0-0.164,0.047-0.303,0.141-0.417c0.094-0.114,0.211-0.175,0.352-0.181
			c0.129-0.006,0.23,0.029,0.303,0.108c0.073,0.079,0.136,0.22,0.189,0.417c0.135,0.504,0.33,0.977,0.584,1.415
			c0.254,0.438,0.552,0.812,0.892,1.116c0.346,0.314,0.744,0.52,1.195,0.605V79.646z M40.596,77.564
			c-0.374,0.627-0.891,1.119-1.547,1.477c-0.352,0.188-0.737,0.336-1.156,0.443s-0.81,0.162-1.173,0.162v-1.002
			c0.51-0.123,0.877-0.293,1.103-0.515c0.226-0.22,0.338-0.519,0.338-0.894c0-0.393-0.176-0.737-0.527-1.036
			c-0.234-0.193-0.68-0.435-1.336-0.722c-0.721-0.315-1.214-0.543-1.481-0.678s-0.523-0.293-0.769-0.475
			c-1.102-0.785-1.652-1.831-1.652-3.139c0-0.668,0.138-1.283,0.413-1.851s0.659-1.021,1.151-1.366
			c0.687-0.479,1.537-0.744,2.55-0.799v1.012c-0.363,0.101-0.64,0.254-0.831,0.463c-0.191,0.207-0.286,0.463-0.286,0.769
			c0,0.293,0.079,0.55,0.237,0.771c0.158,0.221,0.416,0.43,0.773,0.627c0.246,0.137,0.803,0.395,1.67,0.773
			c0.527,0.229,0.936,0.436,1.226,0.62s0.564,0.414,0.822,0.688c0.691,0.728,1.037,1.592,1.037,2.594
			C41.158,76.246,40.97,76.938,40.596,77.564z M37.205,68.186v-0.967c0.352,0.023,0.656,0.069,0.914,0.137
			c0.258,0.068,0.624,0.201,1.099,0.399c0.117,0.047,0.214,0.07,0.29,0.07c0.111,0,0.193-0.038,0.246-0.114l0.193-0.255
			c0.094-0.129,0.208-0.192,0.343-0.192c0.158,0,0.274,0.057,0.347,0.172c0.073,0.113,0.11,0.293,0.11,0.539v2.9
			c0,0.17-0.048,0.311-0.145,0.418s-0.221,0.162-0.374,0.162c-0.117,0-0.226-0.038-0.325-0.114
			c-0.053-0.047-0.095-0.104-0.127-0.171c-0.032-0.066-0.063-0.181-0.092-0.339c-0.064-0.287-0.176-0.583-0.334-0.888
			c-0.158-0.305-0.343-0.577-0.554-0.817C38.374,68.65,37.843,68.338,37.205,68.186z M43.339,70.496l-0.088,0.536
			c-0.029,0.17-0.092,0.304-0.189,0.399c-0.097,0.094-0.218,0.146-0.365,0.146c-0.152,0-0.277-0.054-0.374-0.158
			c-0.097-0.104-0.145-0.243-0.145-0.413v-3.594h0.001h2.312v1.062c-0.275,0.157-0.489,0.359-0.642,0.605
			C43.597,69.479,43.427,69.951,43.339,70.496z M49.966,79.302c-0.111,0.07-0.299,0.105-0.562,0.105h-0.29h-3.92h-0.29
			c-0.258,0-0.453-0.039-0.584-0.118c-0.131-0.079-0.198-0.198-0.198-0.355c0-0.259,0.141-0.42,0.422-0.482
			c0.229-0.061,0.363-0.096,0.404-0.109c0.041-0.014,0.082-0.052,0.123-0.109c0.088-0.101,0.132-0.265,0.132-0.491V67.412h3.902
			v10.327c0,0.229,0.044,0.393,0.132,0.491c0.047,0.06,0.091,0.097,0.132,0.109c0.041,0.016,0.176,0.053,0.404,0.109
			c0.281,0.062,0.422,0.226,0.422,0.482C50.195,79.085,50.119,79.208,49.966,79.302z M52.146,67.413v3.594
			c0,0.17-0.048,0.308-0.145,0.413s-0.221,0.158-0.374,0.158c-0.146,0-0.268-0.049-0.365-0.145c-0.097-0.099-0.16-0.23-0.189-0.4
			l-0.088-0.536c-0.088-0.545-0.258-1.017-0.51-1.415c-0.158-0.246-0.372-0.448-0.642-0.605v-1.062L52.146,67.413L52.146,67.413
			L52.146,67.413z M55.442,79.409H53.21c-0.217,0-0.388-0.045-0.514-0.136c-0.126-0.092-0.189-0.217-0.189-0.375
			c0-0.17,0.129-0.312,0.387-0.422c0.24-0.104,0.417-0.199,0.532-0.285c0.115-0.084,0.224-0.2,0.33-0.349
			c0.164-0.239,0.299-0.56,0.404-0.958l1.985-7.24l0.448,1.818l-1.556,5.68c-0.047,0.164-0.07,0.314-0.07,0.457
			c0,0.367,0.173,0.633,0.519,0.791l0.308,0.141c0.193,0.088,0.29,0.234,0.29,0.439C56.084,79.264,55.87,79.409,55.442,79.409z
			 M62.964,79.408H58.58c-0.176,0-0.316-0.042-0.422-0.127C58.052,79.195,58,79.084,58,78.943c0-0.117,0.023-0.205,0.07-0.264
			c0.047-0.061,0.152-0.134,0.316-0.222c0.117-0.06,0.199-0.123,0.246-0.192c0.047-0.07,0.07-0.158,0.07-0.265
			c0-0.101-0.009-0.188-0.026-0.265l-0.281-1.273h-2.452l0.237-1.046h1.969l-1.617-7.146l0.219-0.859h3.542l2.443,10.327
			c0.047,0.182,0.1,0.343,0.158,0.483c0.053,0.109,0.17,0.2,0.352,0.271c0.152,0.063,0.258,0.129,0.316,0.192
			s0.088,0.151,0.088,0.265C63.65,79.256,63.421,79.408,62.964,79.408z M70.031,79.302c-0.111,0.07-0.295,0.105-0.553,0.105H69.18
			h-3.92h-0.229c-0.211,0-0.374-0.039-0.488-0.118c-0.114-0.079-0.171-0.191-0.171-0.339c0-0.24,0.117-0.398,0.351-0.476
			c0.193-0.063,0.307-0.104,0.34-0.117c0.031-0.016,0.064-0.049,0.102-0.104c0.068-0.094,0.104-0.242,0.104-0.447v-8.799
			c0-0.203-0.035-0.354-0.104-0.447c-0.035-0.054-0.066-0.086-0.102-0.102c-0.033-0.016-0.146-0.055-0.34-0.119
			c-0.232-0.074-0.351-0.232-0.351-0.475c0-0.146,0.057-0.26,0.171-0.34c0.114-0.077,0.277-0.117,0.488-0.117h0.229h3.91v0.003
			v10.327c0,0.229,0.045,0.393,0.133,0.49c0.047,0.061,0.09,0.098,0.131,0.11c0.041,0.015,0.176,0.052,0.404,0.109
			c0.281,0.063,0.422,0.226,0.422,0.483C70.26,79.085,70.184,79.208,70.031,79.302z M75.74,78.402
			c-0.174,0.262-0.389,0.494-0.646,0.699c-0.24,0.191-0.5,0.332-0.781,0.418c-0.279,0.084-0.611,0.127-0.994,0.127
			c-0.771,0-1.377-0.223-1.811-0.664s-0.65-1.061-0.65-1.852v-1.479c0-0.326-0.002-0.519-0.008-0.569
			c-0.029-0.233-0.111-0.438-0.246-0.604c-0.17-0.205-0.414-0.326-0.729-0.36v-0.94c0.314-0.047,0.543-0.129,0.678-0.246
			c0.117-0.104,0.197-0.226,0.241-0.358c0.044-0.136,0.063-0.335,0.063-0.599v-2.33c0-0.369-0.069-0.645-0.215-0.826
			c-0.144-0.18-0.4-0.323-0.775-0.43v-0.977h0.229c0.649,0,1.202,0.023,1.659,0.07c0.681,0.062,1.287,0.287,1.82,0.668
			c0.768,0.545,1.149,1.32,1.149,2.328c0,0.826-0.259,1.504-0.772,2.029c-0.218,0.225-0.47,0.404-0.761,0.547
			c-0.289,0.141-0.73,0.299-1.322,0.475c0.539,0.082,0.953,0.173,1.242,0.271c0.291,0.101,0.553,0.234,0.787,0.404
			c0.246,0.182,0.436,0.397,0.565,0.649s0.198,0.52,0.198,0.799v1.82c0,0.188,0.062,0.28,0.186,0.28
			c0.047,0,0.086-0.013,0.117-0.039c0.032-0.026,0.078-0.077,0.139-0.153c0.146-0.199,0.295-0.299,0.445-0.299
			c0.102,0,0.199,0.053,0.301,0.157c0.1,0.104,0.149,0.213,0.149,0.317C76,77.921,75.913,78.143,75.74,78.402z M81.792,79.646
			c-1.138,0-2.123-0.295-2.961-0.889c-0.738-0.521-1.295-1.223-1.67-2.104c-0.375-0.883-0.562-1.928-0.562-3.135
			c0-0.885,0.121-1.709,0.362-2.475c0.243-0.766,0.599-1.429,1.062-1.99c0.469-0.568,1.027-1.025,1.683-1.371
			c0.653-0.347,1.282-0.52,1.886-0.52l0.199,0.009v1.063c-0.346,0.053-0.604,0.205-0.773,0.457c-0.168,0.252-0.254,0.611-0.254,1.08
			v7.261v0.378c0,0.135,0.027,0.277,0.084,0.427c0.055,0.15,0.127,0.276,0.215,0.382c0.096,0.117,0.193,0.201,0.299,0.252
			c0.106,0.049,0.248,0.082,0.432,0.102L81.792,79.646L81.792,79.646z M85.857,77.432c-0.203,0.375-0.463,0.721-0.778,1.036
			c-0.388,0.388-0.783,0.675-1.19,0.861c-0.406,0.187-0.867,0.294-1.377,0.317v-1.072c0.457-0.035,0.938-0.208,1.441-0.52
			c0.27-0.171,0.51-0.396,0.721-0.682s0.369-0.598,0.475-0.938c0.061-0.188,0.129-0.319,0.207-0.398
			c0.08-0.079,0.186-0.119,0.312-0.119c0.141,0,0.258,0.055,0.352,0.158s0.143,0.236,0.143,0.396
			C86.161,76.736,86.059,77.057,85.857,77.432z M82.486,68.247v-1.063c0.287,0.047,0.52,0.099,0.697,0.149
			c0.176,0.051,0.504,0.164,0.973,0.334c0.299,0.104,0.498,0.158,0.598,0.158c0.17,0,0.299-0.076,0.387-0.229l0.113-0.211
			c0.07-0.141,0.203-0.211,0.396-0.211c0.158,0,0.279,0.047,0.363,0.141c0.086,0.096,0.129,0.231,0.129,0.414v3.655
			c0,0.234-0.055,0.404-0.158,0.511c-0.105,0.105-0.229,0.157-0.361,0.157c-0.141,0-0.253-0.045-0.338-0.136
			s-0.154-0.239-0.207-0.443c-0.123-0.464-0.242-0.826-0.359-1.091c-0.252-0.557-0.539-1.008-0.861-1.354
			c-0.217-0.232-0.434-0.412-0.648-0.538C82.992,68.361,82.75,68.282,82.486,68.247z M92.7,79.409h-0.229h-3.92h-0.229
			c-0.211,0-0.374-0.039-0.488-0.118c-0.113-0.079-0.172-0.191-0.172-0.339c0-0.24,0.117-0.397,0.352-0.476
			c0.193-0.063,0.307-0.104,0.34-0.117c0.031-0.014,0.064-0.049,0.102-0.104c0.068-0.094,0.104-0.242,0.104-0.447v-8.797
			c0-0.205-0.035-0.354-0.104-0.449c-0.035-0.054-0.066-0.086-0.102-0.102c-0.033-0.016-0.146-0.055-0.34-0.119
			c-0.234-0.074-0.352-0.232-0.352-0.475c0-0.146,0.059-0.26,0.172-0.338c0.114-0.079,0.277-0.119,0.488-0.119h0.229h3.92H92.7
			c0.416,0,0.623,0.15,0.623,0.457c0,0.246-0.111,0.402-0.335,0.475l-0.271,0.09c-0.17,0.059-0.256,0.252-0.256,0.58v8.797
			c0,0.328,0.086,0.521,0.256,0.58l0.271,0.088c0.224,0.069,0.335,0.229,0.335,0.476C93.323,79.257,93.116,79.409,92.7,79.409z
			 M98.807,78.364l0.281,0.097c0.234,0.076,0.352,0.237,0.352,0.482c0,0.312-0.219,0.467-0.656,0.467h-0.238h-3.91h-0.244
			c-0.41,0-0.615-0.155-0.615-0.467c0-0.245,0.109-0.406,0.334-0.482l0.281-0.097c0.17-0.054,0.254-0.249,0.254-0.589v-4.062H93.21
			v-0.87h-0.001h0.001h1.431v-3.832c0-0.327-0.084-0.521-0.254-0.579l-0.281-0.089c-0.223-0.069-0.334-0.229-0.334-0.475
			c0-0.306,0.211-0.457,0.633-0.457h0.229h3.91h0.238c0.438,0,0.657,0.151,0.657,0.457c0,0.239-0.116,0.397-0.353,0.475
			c-0.192,0.064-0.306,0.104-0.338,0.119c-0.032,0.017-0.065,0.048-0.103,0.103c-0.069,0.094-0.104,0.242-0.104,0.446v8.765
			C98.543,78.098,98.631,78.294,98.807,78.364z M108.025,49.547c2.783,1.281,5.373,0.022,7.877,0.942
			c-1.601,3.727-4.577,2.521-7.104,2.06c-9.014-1.65-17.771-4.325-26.543-6.929c-11.291-3.348-22.71-6.132-34.475-7.193
			c-1.262-0.113-2.695-0.577-4.578,0.964c13.929,1.188,26.721,4.623,40.199,8.642c-14.881,0.619-28.909,1.2-42.938,1.787
			c-1.507,0.064-3.032,0.015-4.514,0.246C22.09,52.214,12.855,44.989,5.015,34.889c-0.788-0.253-1.308-0.772-1.562-1.56
			C2.881,32.6,3.041,31.86,3.419,31.116l-0.048,0.05c-0.567-5.203,1.511-10.069,1.981-15.148c0.139-1.485,2.004-1.735,3.224-2.284
			c10.177-4.58,21.016-6.647,31.975-8.049c15.378-1.963,30.795-2.207,46.188-0.08c10.361,1.431,20.475,3.732,29.803,8.703
			c7.35,3.915,9.035,7.113,5.803,14.751c-1.855,4.39-0.547,7.325,1.473,10.709c1.07,1.798,2.5,3.467,2.693,5.894
			C120.814,48.451,114.409,48.023,108.025,49.547z"/>
	</g>
</g>
</svg>
