<?xml version="1.0" encoding="utf-8"?>
<!-- Generator: Adobe Illustrator 16.0.0, SVG Export Plug-In . SVG Version: 6.00 Build 0)  -->
<!DOCTYPE svg PUBLIC "-//W3C//DTD SVG 1.1//EN" "http://www.w3.org/Graphics/SVG/1.1/DTD/svg11.dtd">
<svg version="1.1" id="Layer_1108" xmlns="http://www.w3.org/2000/svg" xmlns:xlink="http://www.w3.org/1999/xlink" x="0px" y="0px"
	 width="128px" height="128px" viewBox="0 0 128 128" enable-background="new 0 0 128 128" xml:space="preserve">
<g id="nO0By6.tif_18_">
	<g>
		<path fill-rule="evenodd" clip-rule="evenodd" d="M65.143,1283.722c17.328,0.322,34.408,2.332,50.033,10.366
			c11.733,6.034,11.308,4.46,8.419,18.524c-0.401,1.954-0.519,3.666,0.464,5.426c0.672,1.202,1.244,2.463,1.836,3.708
			c3.482,7.3,3.511,7.401-4.035,9.682c-1.763,0.533-2.062,1.518-2.254,2.932c-1.083,8.073-2.592,16.104-0.892,24.312
			c0.612,2.959,0.558,6.009-1.936,8.438c-1.06,1.035-0.354,2.425-0.106,3.595c1.12,5.308,3.822,9.678,7.645,13.554
			c4.184,4.245,3.795,6.447-1.623,8.48c-7.33,2.754-14.185,6.377-20.914,10.279c-12.804,7.42-26.133,6.861-39.701,2.763
			c-5.397-1.631-11.006-2.887-16.058-5.282c-9.837-4.659-19.92-4.4-30.224-2.949c-4.044,0.569-8.064,0.537-11.848-1.117
			c-4.549-1.991-5.192-4.367-2.242-8.299c3.615-4.819,7.353-9.553,11.119-14.255c1.415-1.765,1.515-3.399,0.745-5.527
			c-3.941-10.888-6.665-22.252-3.512-33.545c2.054-7.352-0.212-10.974-6.017-14.294c-3.213-1.837-3.417-5.301-3.04-8.672
			c0.463-4.106,1.287-8.199,1.368-12.309c0.046-2.439,0.892-3.59,2.901-4.6c9.545-4.802,19.826-7.082,30.249-8.685
			C45.317,1284.741,55.177,1283.584,65.143,1283.722z M3.124,1313.351c-0.378,0.744-0.538,1.483,0.034,2.213
			c0.254,0.788,0.774,1.307,1.562,1.56c7.84,10.1,17.075,17.325,30.938,15.177c1.482-0.231,3.007-0.182,4.514-0.246
			c14.027-0.587,28.056-1.168,42.938-1.787c-13.48-4.019-26.273-7.454-40.201-8.642c1.883-1.541,3.316-1.077,4.578-0.964
			c11.765,1.061,23.184,3.845,34.475,7.193c8.77,2.604,17.528,5.279,26.543,6.929c2.524,0.462,5.502,1.667,7.102-2.06
			c-2.505-0.92-5.094,0.339-7.877-0.942c6.383-1.524,12.789-1.096,18.483-3.885c-0.194-2.427-1.624-4.096-2.694-5.894
			c-2.018-3.384-3.328-6.319-1.471-10.709c3.231-7.638,1.545-10.836-5.803-14.751c-9.328-4.971-19.441-7.272-29.801-8.703
			c-15.395-2.127-30.81-1.883-46.188,0.08c-10.959,1.401-21.798,3.469-31.975,8.049c-1.22,0.549-3.085,0.799-3.224,2.284
			c-0.47,5.079-2.548,9.945-1.981,15.148L3.124,1313.351z"/>
		<path fill-rule="evenodd" clip-rule="evenodd" d="M59.75,1397.86c1.505-0.153,2.764,0.432,3.928,1.301
			c-0.122,0.146-0.246,0.295-0.368,0.442c-1.32-0.307-2.575-0.739-3.508-1.802L59.75,1397.86z"/>
		<path fill-rule="evenodd" clip-rule="evenodd" d="M58.215,1397.157c0.571,0.107,1.291-0.116,1.534,0.703l0.052-0.059
			c-0.51-0.232-1.019-0.467-1.528-0.7L58.215,1397.157z"/>
		<polygon fill-rule="evenodd" clip-rule="evenodd" points="58.274,1397.102 58.094,1396.915 58.215,1397.154 		"/>
		<path fill-rule="evenodd" clip-rule="evenodd" d="M23.454,1382.054l0.044-0.049L23.454,1382.054z"/>
		<polygon fill-rule="evenodd" clip-rule="evenodd" points="19.712,1340.509 19.82,1340.596 19.742,1340.497 		"/>
		<path fill-rule="evenodd" clip-rule="evenodd" d="M11.5,1306.578c2.451,2.067,4.525,4.756,8.799,4.987
			c-1.306-2.143-2.416-3.967-3.528-5.791l0.02,0.046c-0.272-0.272-0.546-0.546-0.818-0.818l0.046,0.021
			c1.219-1.541,0.482-3.922,2.241-5.23l-0.046-0.057c0.205,0.951,0.408,1.903,0.692,3.212c2.93-1.974,4.76-4.684,7.021-6.923
			c2.893-2.869,6.006-4.48,10.34-4.235c6.903,0.395,13.729,0.534,20.368,2.988c4.119,1.521,8.538,0.469,12.61-0.731
			c7.822-2.301,14.28-0.643,19.744,5.441c2.27,2.526,4.465,5.122,8.801,4.226c2.208-0.456,4.471,1.485,6.168,3.208
			c1.34,1.362,2.521,1.399,3.874,0.184c0.159,0.159,0.318,0.317,0.476,0.477c-3.521,5.709-9.297,8.1-15.177,10.442
			c8.405,0.076,16.297-1.563,23.013-7.281c-1.716,4.639-7.203,7.738-13.912,8.821c-10.096,1.63-20.037-0.176-30.021-1.065
			c-11.941-1.062-23.799-2.762-35.861-2.803c-7.812-0.025-15.771-1.138-22.987-4.785c-2.688-1.355-3.814-4.035-5.607-6.826
			c2.037-0.097,2.867,0.783,3.686,1.69l0.044-0.021c-0.01,0.258-0.02,0.513-0.031,0.771L11.5,1306.578z"/>
		<path fill-rule="evenodd" clip-rule="evenodd" d="M109.501,1305.022c0.071,0.646,0.063,1.266-0.567,1.673
			c-0.116-0.117-0.23-0.237-0.348-0.354c0.323-0.422,0.644-0.844,0.967-1.265L109.501,1305.022z"/>
		<path fill-rule="evenodd" clip-rule="evenodd" d="M3.076,1313.401c0.156,0.055,0.313,0.112,0.37,0.133
			c-0.044-0.026-0.183-0.104-0.321-0.184L3.076,1313.401z"/>
		<path fill-rule="evenodd" clip-rule="evenodd" d="M4.663,1317.164c0-0.285,0-0.569,0-0.854
			C4.663,1316.595,4.663,1316.879,4.663,1317.164z"/>
		<path fill-rule="evenodd" clip-rule="evenodd" d="M4.715,1316.397c-0.277-0.276-0.554-0.554-0.831-0.831
			C4.161,1315.844,4.438,1316.121,4.715,1316.397z"/>
		<path fill-rule="evenodd" clip-rule="evenodd" d="M3.976,1315.617c-0.287,0-0.573,0.001-0.859,0
			C3.403,1315.617,3.689,1315.617,3.976,1315.617z"/>
		<path fill-rule="evenodd" clip-rule="evenodd" d="M11.439,1305.774c0.02,0.27,0.038,0.535,0.06,0.803l-0.047-0.054
			c0.011-0.258,0.021-0.513,0.031-0.771L11.439,1305.774z"/>
		<path fill-rule="evenodd" clip-rule="evenodd" d="M108.934,1306.695c-0.209,0.294-0.418,0.59-0.627,0.885
			c-0.157-0.158-0.316-0.316-0.476-0.476c0.255-0.255,0.503-0.51,0.757-0.764C108.703,1306.458,108.817,1306.578,108.934,1306.695z"
			/>
		<path fill-rule="evenodd" clip-rule="evenodd" d="M109.553,1305.076c0.038-0.09,0.061-0.189,0.119-0.263
			c0.031-0.039,0.127-0.024,0.19-0.035c-0.117,0.081-0.241,0.162-0.361,0.244L109.553,1305.076z"/>
		<path fill-rule="evenodd" clip-rule="evenodd" d="M18.259,1299.792l-0.046-0.056L18.259,1299.792z"/>
		<path fill-rule="evenodd" clip-rule="evenodd" d="M22.71,1307.304l0.049,0.042L22.71,1307.304z"/>
		<path fill-rule="evenodd" clip-rule="evenodd" d="M23.542,1306.593l-0.04-0.042L23.542,1306.593z"/>
		<path fill-rule="evenodd" clip-rule="evenodd" d="M58.977,1298.204l0.044,0.04L58.977,1298.204z"/>
	</g>
</g>
<g>
	<path fill="#F9F7F7" d="M38.171,1357.39l-1.063,4.254h-1.898l-2.83-10.327c-0.064-0.234-0.125-0.393-0.18-0.475
		s-0.151-0.149-0.286-0.202c-0.234-0.094-0.352-0.249-0.352-0.466c0-0.17,0.073-0.3,0.22-0.391s0.352-0.137,0.615-0.137h4.113
		c0.258,0,0.434,0.035,0.527,0.105c0.123,0.088,0.185,0.208,0.185,0.36c0,0.182-0.103,0.334-0.308,0.457
		c-0.17,0.1-0.28,0.184-0.33,0.251s-0.075,0.168-0.075,0.303c0,0.064,0.009,0.129,0.026,0.193L38.171,1357.39z M39.006,1349.646
		h1.811l2.109,7.998l-1.002,3.999h-1.916l-2.048-7.726L39.006,1349.646z M43.26,1356.238l-0.457-1.784l0.642-2.602
		c0.053-0.205,0.079-0.363,0.079-0.475c0-0.176-0.048-0.326-0.145-0.452s-0.256-0.245-0.479-0.356
		c-0.146-0.076-0.248-0.149-0.303-0.22s-0.083-0.161-0.083-0.272c0-0.152,0.048-0.262,0.145-0.329s0.25-0.102,0.461-0.102h2.092
		c0.24,0,0.409,0.034,0.505,0.102s0.145,0.18,0.145,0.338c0,0.094-0.025,0.172-0.075,0.233s-0.133,0.118-0.25,0.171
		c-0.264,0.117-0.457,0.24-0.58,0.369c-0.27,0.27-0.472,0.659-0.606,1.169L43.26,1356.238z"/>
	<path fill="#F9F7F7" d="M51.82,1361.644H47.9h-0.229c-0.211,0-0.374-0.039-0.488-0.118s-0.171-0.192-0.171-0.339
		c0-0.24,0.117-0.398,0.352-0.475c0.193-0.064,0.306-0.104,0.338-0.118s0.066-0.049,0.101-0.102c0.07-0.094,0.105-0.243,0.105-0.448
		v-8.798c0-0.205-0.035-0.354-0.105-0.448c-0.035-0.053-0.069-0.086-0.101-0.101s-0.145-0.055-0.338-0.119
		c-0.234-0.076-0.352-0.234-0.352-0.475c0-0.146,0.057-0.259,0.171-0.338s0.277-0.119,0.488-0.119H47.9h3.92h0.229
		c0.416,0,0.624,0.152,0.624,0.457c0,0.246-0.111,0.404-0.334,0.475l-0.272,0.088c-0.17,0.059-0.255,0.252-0.255,0.58v8.798
		c0,0.328,0.085,0.521,0.255,0.58l0.272,0.088c0.223,0.07,0.334,0.229,0.334,0.475c0,0.305-0.208,0.457-0.624,0.457H51.82z
		 M52.559,1355.078h1.433v-3.832c0-0.328-0.085-0.521-0.255-0.58l-0.281-0.088c-0.223-0.07-0.334-0.229-0.334-0.475
		c0-0.305,0.211-0.457,0.633-0.457h0.229h3.911h0.237c0.439,0,0.659,0.152,0.659,0.457c0,0.24-0.117,0.398-0.352,0.475
		c-0.193,0.064-0.306,0.104-0.338,0.119s-0.066,0.048-0.101,0.101c-0.07,0.094-0.105,0.243-0.105,0.448v8.763
		c0,0.322,0.088,0.519,0.264,0.589l0.281,0.097c0.234,0.076,0.352,0.237,0.352,0.483c0,0.311-0.22,0.466-0.659,0.466h-0.237h-3.911
		h-0.246c-0.41,0-0.615-0.155-0.615-0.466c0-0.246,0.111-0.407,0.334-0.483l0.281-0.097c0.17-0.053,0.255-0.249,0.255-0.589v-4.061
		h-1.433V1355.078z"/>
	<path fill="#F9F7F7" d="M65.215,1349.646v11.997h-3.911h-0.229c-0.211,0-0.374-0.039-0.488-0.118s-0.171-0.192-0.171-0.339
		c0-0.24,0.117-0.398,0.352-0.475c0.193-0.064,0.306-0.104,0.338-0.118s0.066-0.049,0.101-0.102c0.07-0.094,0.105-0.243,0.105-0.448
		v-8.798c0-0.205-0.035-0.354-0.105-0.448c-0.035-0.053-0.069-0.086-0.101-0.101s-0.145-0.055-0.338-0.119
		c-0.234-0.076-0.352-0.234-0.352-0.475c0-0.146,0.057-0.259,0.171-0.338s0.277-0.119,0.488-0.119h0.229H65.215z M65.953,1356.045
		v-1.02c0.34-0.164,0.592-0.343,0.756-0.536s0.284-0.451,0.36-0.773c0.047-0.223,0.108-0.376,0.185-0.461s0.185-0.128,0.325-0.128
		c0.188,0,0.316,0.073,0.387,0.22c0.041,0.076,0.062,0.249,0.062,0.519v3.349c0,0.275-0.031,0.466-0.092,0.571
		c-0.062,0.105-0.175,0.158-0.339,0.158c-0.135,0-0.24-0.041-0.316-0.123s-0.138-0.22-0.185-0.413
		c-0.1-0.404-0.242-0.715-0.426-0.932C66.484,1356.259,66.246,1356.115,65.953,1356.045z M65.997,1349.646h3.542v3.111
		c0,0.182-0.035,0.313-0.105,0.396s-0.182,0.123-0.334,0.123c-0.129,0-0.223-0.026-0.281-0.079s-0.114-0.161-0.167-0.325
		c-0.223-0.68-0.55-1.198-0.979-1.556c-0.432-0.357-0.989-0.571-1.675-0.642V1349.646z M66.006,1361.644v-0.949
		c0.381-0.059,0.695-0.141,0.945-0.246c0.248-0.105,0.499-0.267,0.751-0.483s0.452-0.44,0.603-0.672
		c0.148-0.231,0.291-0.538,0.426-0.919c0.064-0.188,0.132-0.314,0.202-0.382s0.167-0.102,0.29-0.102
		c0.164,0,0.278,0.049,0.343,0.146s0.097,0.265,0.097,0.505v3.103H66.006z"/>
	<path fill="#F9F7F7" d="M73.898,1351.879l0.448,1.819l-1.556,5.678c-0.047,0.164-0.07,0.316-0.07,0.457
		c0,0.369,0.173,0.633,0.519,0.791l0.308,0.141c0.193,0.088,0.29,0.234,0.29,0.439c0,0.293-0.214,0.439-0.642,0.439h-2.232
		c-0.217,0-0.389-0.045-0.514-0.136c-0.127-0.091-0.189-0.216-0.189-0.374c0-0.17,0.129-0.311,0.387-0.422
		c0.24-0.105,0.418-0.2,0.531-0.285c0.115-0.085,0.225-0.201,0.33-0.348c0.164-0.24,0.299-0.56,0.404-0.958L73.898,1351.879z
		 M74.505,1349.646h3.542l2.443,10.327c0.047,0.182,0.1,0.343,0.158,0.483c0.053,0.111,0.17,0.202,0.352,0.272
		c0.152,0.064,0.258,0.129,0.316,0.193s0.088,0.152,0.088,0.264c0,0.305-0.229,0.457-0.686,0.457h-4.386
		c-0.176,0-0.316-0.042-0.422-0.127s-0.158-0.198-0.158-0.339c0-0.117,0.023-0.205,0.07-0.264s0.152-0.132,0.316-0.22
		c0.117-0.059,0.199-0.123,0.246-0.193s0.07-0.158,0.07-0.264c0-0.1-0.009-0.188-0.026-0.264l-0.281-1.274h-2.452l0.237-1.046h1.969
		l-1.617-7.146L74.505,1349.646z"/>
	<path fill="#F9F7F7" d="M81.765,1349.646h2.312v1.063c-0.275,0.158-0.489,0.36-0.642,0.606c-0.252,0.398-0.422,0.87-0.51,1.415
		l-0.088,0.536c-0.029,0.17-0.093,0.304-0.188,0.4c-0.098,0.097-0.219,0.145-0.365,0.145c-0.152,0-0.277-0.053-0.373-0.158
		c-0.098-0.105-0.146-0.243-0.146-0.413V1349.646z M88.69,1349.646v10.327c0,0.229,0.044,0.393,0.132,0.492
		c0.047,0.059,0.091,0.096,0.132,0.11s0.176,0.051,0.404,0.109c0.281,0.064,0.422,0.226,0.422,0.483
		c0,0.152-0.076,0.275-0.229,0.369c-0.111,0.07-0.299,0.105-0.562,0.105h-0.29h-3.92h-0.29c-0.258,0-0.452-0.039-0.585-0.118
		c-0.131-0.079-0.197-0.198-0.197-0.356c0-0.258,0.141-0.419,0.422-0.483c0.229-0.059,0.363-0.095,0.404-0.109
		s0.082-0.052,0.123-0.11c0.088-0.1,0.132-0.264,0.132-0.492v-10.327H88.69z M91.731,1349.646v3.595c0,0.17-0.048,0.308-0.146,0.413
		c-0.096,0.105-0.221,0.158-0.373,0.158c-0.146,0-0.268-0.048-0.365-0.145c-0.096-0.097-0.159-0.23-0.188-0.4l-0.088-0.536
		c-0.088-0.545-0.258-1.017-0.51-1.415c-0.158-0.246-0.372-0.448-0.642-0.606v-1.063H91.731z"/>
</g>
<g>
	<g id="nO0By6.tif_11_">
		<g>
			<path fill-rule="evenodd" clip-rule="evenodd" d="M65.438,1.487c17.328,0.322,34.408,2.332,50.032,10.366
				c11.734,6.034,11.309,4.46,8.42,18.524c-0.402,1.954-0.519,3.666,0.463,5.426c0.672,1.202,1.245,2.463,1.836,3.708
				c3.482,7.3,3.512,7.401-4.035,9.682c-1.762,0.533-2.062,1.518-2.254,2.932c-1.082,8.073-2.592,16.104-0.891,24.312
				c0.611,2.959,0.558,6.009-1.936,8.438c-1.061,1.035-0.355,2.425-0.107,3.595c1.121,5.308,3.822,9.678,7.645,13.554
				c4.184,4.245,3.795,6.447-1.623,8.48c-7.329,2.754-14.184,6.377-20.914,10.279c-12.803,7.42-26.133,6.861-39.7,2.763
				c-5.397-1.631-11.006-2.887-16.058-5.282c-9.837-4.659-19.92-4.4-30.224-2.949c-4.044,0.569-8.064,0.537-11.848-1.117
				c-4.549-1.991-5.192-4.367-2.242-8.299c3.615-4.819,7.353-9.553,11.119-14.255c1.415-1.765,1.515-3.399,0.745-5.527
				c-3.941-10.888-6.665-22.252-3.512-33.545c2.054-7.352-0.212-10.974-6.017-14.294c-3.213-1.837-3.417-5.301-3.04-8.672
				c0.463-4.106,1.287-8.199,1.368-12.309c0.046-2.439,0.892-3.59,2.901-4.6c9.545-4.802,19.826-7.082,30.249-8.685
				C45.613,2.507,55.473,1.35,65.438,1.487z M3.419,31.116C3.041,31.86,2.881,32.6,3.453,33.329c0.254,0.788,0.774,1.307,1.562,1.56
				c7.84,10.1,17.075,17.325,30.938,15.177c1.482-0.231,3.007-0.182,4.514-0.246c14.027-0.587,28.056-1.168,42.938-1.787
				c-13.48-4.019-26.272-7.454-40.201-8.642c1.883-1.541,3.316-1.077,4.578-0.964c11.765,1.061,23.184,3.845,34.475,7.193
				c8.771,2.604,17.529,5.279,26.543,6.929c2.525,0.462,5.503,1.667,7.102-2.06c-2.504-0.92-5.094,0.339-7.877-0.942
				c6.384-1.524,12.789-1.096,18.484-3.885c-0.195-2.427-1.624-4.096-2.695-5.894c-2.018-3.384-3.328-6.319-1.471-10.709
				c3.232-7.638,1.546-10.836-5.803-14.751c-9.328-4.971-19.44-7.272-29.801-8.703c-15.394-2.127-30.81-1.883-46.188,0.08
				C29.592,7.087,18.753,9.154,8.576,13.734c-1.22,0.549-3.085,0.799-3.224,2.284c-0.47,5.079-2.548,9.945-1.981,15.148
				L3.419,31.116z"/>
			<path fill-rule="evenodd" clip-rule="evenodd" d="M60.045,115.626c1.505-0.153,2.764,0.432,3.928,1.301
				c-0.122,0.146-0.246,0.295-0.368,0.442c-1.32-0.307-2.575-0.739-3.508-1.802L60.045,115.626z"/>
			<path fill-rule="evenodd" clip-rule="evenodd" d="M58.511,114.923c0.571,0.107,1.291-0.116,1.534,0.703l0.052-0.059
				c-0.51-0.232-1.019-0.467-1.528-0.7L58.511,114.923z"/>
			<polygon fill-rule="evenodd" clip-rule="evenodd" points="58.569,114.867 58.389,114.681 58.511,114.92 			"/>
			<path fill-rule="evenodd" clip-rule="evenodd" d="M23.75,99.819l0.044-0.049L23.75,99.819z"/>
			<polygon fill-rule="evenodd" clip-rule="evenodd" points="20.007,58.274 20.115,58.361 20.038,58.263 			"/>
			<path fill-rule="evenodd" clip-rule="evenodd" d="M11.795,24.344c2.451,2.067,4.525,4.756,8.799,4.987
				c-1.306-2.143-2.416-3.967-3.528-5.791l0.02,0.046c-0.272-0.272-0.546-0.546-0.818-0.818l0.046,0.021
				c1.219-1.541,0.482-3.922,2.241-5.23l-0.046-0.057c0.205,0.951,0.408,1.903,0.692,3.212c2.93-1.974,4.76-4.684,7.021-6.923
				c2.893-2.869,6.006-4.48,10.34-4.235c6.903,0.395,13.729,0.534,20.368,2.988c4.119,1.521,8.537,0.469,12.61-0.731
				c7.821-2.301,14.28-0.643,19.743,5.441c2.271,2.526,4.466,5.122,8.801,4.226c2.209-0.456,4.471,1.485,6.168,3.208
				c1.34,1.362,2.521,1.399,3.875,0.184c0.158,0.159,0.318,0.317,0.475,0.477c-3.521,5.709-9.297,8.1-15.176,10.442
				c8.404,0.076,16.297-1.563,23.012-7.281c-1.715,4.639-7.203,7.738-13.912,8.821c-10.095,1.63-20.036-0.176-30.021-1.065
				c-11.941-1.062-23.799-2.762-35.862-2.803c-7.812-0.025-15.771-1.138-22.987-4.785c-2.688-1.355-3.814-4.035-5.607-6.826
				c2.037-0.097,2.867,0.783,3.686,1.69l0.044-0.021c-0.01,0.258-0.02,0.513-0.031,0.771L11.795,24.344z"/>
			<path fill-rule="evenodd" clip-rule="evenodd" d="M109.797,22.788c0.07,0.646,0.063,1.266-0.568,1.673
				c-0.115-0.117-0.23-0.237-0.348-0.354c0.324-0.422,0.645-0.844,0.967-1.265L109.797,22.788z"/>
			<path fill-rule="evenodd" clip-rule="evenodd" d="M3.371,31.167c0.156,0.055,0.313,0.112,0.37,0.133
				c-0.044-0.026-0.183-0.104-0.321-0.184L3.371,31.167z"/>
			<path fill-rule="evenodd" clip-rule="evenodd" d="M4.958,34.93c0-0.285,0-0.569,0-0.854C4.958,34.36,4.958,34.645,4.958,34.93z"
				/>
			<path fill-rule="evenodd" clip-rule="evenodd" d="M5.01,34.163c-0.277-0.276-0.554-0.554-0.831-0.831
				C4.456,33.609,4.733,33.887,5.01,34.163z"/>
			<path fill-rule="evenodd" clip-rule="evenodd" d="M4.271,33.383c-0.287,0-0.573,0.001-0.859,0
				C3.699,33.383,3.985,33.383,4.271,33.383z"/>
			<path fill-rule="evenodd" clip-rule="evenodd" d="M11.735,23.54c0.02,0.27,0.038,0.535,0.06,0.803l-0.047-0.054
				c0.011-0.258,0.021-0.513,0.031-0.771L11.735,23.54z"/>
			<path fill-rule="evenodd" clip-rule="evenodd" d="M109.229,24.461c-0.209,0.294-0.418,0.59-0.627,0.885
				c-0.156-0.158-0.316-0.316-0.475-0.476c0.255-0.255,0.502-0.51,0.757-0.764C108.998,24.224,109.113,24.344,109.229,24.461z"/>
			<path fill-rule="evenodd" clip-rule="evenodd" d="M109.848,22.842c0.039-0.09,0.062-0.189,0.12-0.263
				c0.031-0.039,0.126-0.024,0.19-0.035c-0.117,0.081-0.241,0.162-0.361,0.244L109.848,22.842z"/>
			<path fill-rule="evenodd" clip-rule="evenodd" d="M18.555,17.558l-0.046-0.056L18.555,17.558z"/>
			<path fill-rule="evenodd" clip-rule="evenodd" d="M23.005,25.069l0.049,0.042L23.005,25.069z"/>
			<path fill-rule="evenodd" clip-rule="evenodd" d="M23.837,24.358l-0.04-0.042L23.837,24.358z"/>
			<path fill-rule="evenodd" clip-rule="evenodd" d="M59.272,15.97l0.044,0.04L59.272,15.97z"/>
		</g>
	</g>
	<g>
		<path fill="#F9F7F7" d="M36.51,67.175v1.011c-0.363,0.1-0.64,0.254-0.831,0.462s-0.286,0.464-0.286,0.769
			c0,0.293,0.079,0.55,0.237,0.77s0.416,0.429,0.773,0.628c0.246,0.135,0.803,0.393,1.67,0.773c0.527,0.229,0.936,0.436,1.226,0.62
			s0.564,0.414,0.822,0.689c0.691,0.727,1.037,1.591,1.037,2.593c0,0.756-0.188,1.447-0.562,2.074s-0.891,1.119-1.547,1.477
			c-0.352,0.188-0.737,0.336-1.156,0.444s-0.81,0.162-1.173,0.162v-1.002c0.51-0.123,0.877-0.294,1.103-0.514
			s0.338-0.518,0.338-0.893c0-0.393-0.176-0.738-0.527-1.037c-0.234-0.193-0.68-0.434-1.336-0.721
			c-0.721-0.316-1.214-0.542-1.481-0.677s-0.523-0.293-0.769-0.475c-1.102-0.785-1.652-1.831-1.652-3.138
			c0-0.668,0.138-1.284,0.413-1.85s0.659-1.021,1.151-1.367C34.647,67.494,35.497,67.228,36.51,67.175z M36.053,78.645v1.002
			c-0.48,0-1.011-0.138-1.591-0.413c-0.217-0.1-0.366-0.164-0.448-0.193s-0.161-0.044-0.237-0.044c-0.117,0-0.205,0.02-0.264,0.058
			s-0.152,0.133-0.281,0.285c-0.105,0.129-0.22,0.193-0.343,0.193c-0.328,0-0.492-0.252-0.492-0.756v-3.199
			c0-0.164,0.047-0.303,0.141-0.417s0.211-0.175,0.352-0.181c0.129-0.006,0.23,0.031,0.303,0.11s0.136,0.218,0.189,0.417
			c0.135,0.504,0.33,0.976,0.584,1.415s0.552,0.812,0.892,1.116C35.204,78.354,35.602,78.557,36.053,78.645z M37.205,68.186v-0.967
			c0.352,0.023,0.656,0.069,0.914,0.137s0.624,0.2,1.099,0.399c0.117,0.047,0.214,0.07,0.29,0.07c0.111,0,0.193-0.038,0.246-0.114
			l0.193-0.255c0.094-0.129,0.208-0.193,0.343-0.193c0.158,0,0.274,0.058,0.347,0.172s0.11,0.294,0.11,0.54v2.9
			c0,0.17-0.048,0.31-0.145,0.418s-0.221,0.162-0.374,0.162c-0.117,0-0.226-0.038-0.325-0.114c-0.053-0.047-0.095-0.104-0.127-0.171
			s-0.063-0.181-0.092-0.339c-0.064-0.287-0.176-0.583-0.334-0.888s-0.343-0.577-0.554-0.817
			C38.374,68.651,37.843,68.338,37.205,68.186z"/>
		<path fill="#F9F7F7" d="M42.179,67.412h2.312v1.063c-0.275,0.158-0.489,0.36-0.642,0.606c-0.252,0.398-0.422,0.87-0.51,1.415
			l-0.088,0.536c-0.029,0.17-0.092,0.304-0.189,0.4s-0.218,0.145-0.365,0.145c-0.152,0-0.277-0.053-0.374-0.158
			s-0.145-0.243-0.145-0.413V67.412z M49.105,67.412v10.327c0,0.229,0.044,0.393,0.132,0.492c0.047,0.059,0.091,0.096,0.132,0.11
			s0.176,0.051,0.404,0.109c0.281,0.064,0.422,0.226,0.422,0.483c0,0.152-0.076,0.275-0.229,0.369
			c-0.111,0.07-0.299,0.105-0.562,0.105h-0.29h-3.92h-0.29c-0.258,0-0.453-0.039-0.584-0.118s-0.198-0.198-0.198-0.356
			c0-0.258,0.141-0.419,0.422-0.483c0.229-0.059,0.363-0.095,0.404-0.109s0.082-0.052,0.123-0.11c0.088-0.1,0.132-0.264,0.132-0.492
			V67.412H49.105z M52.146,67.412v3.595c0,0.17-0.048,0.308-0.145,0.413s-0.221,0.158-0.374,0.158c-0.146,0-0.268-0.048-0.365-0.145
			s-0.16-0.23-0.189-0.4l-0.088-0.536c-0.088-0.545-0.258-1.017-0.51-1.415c-0.158-0.246-0.372-0.448-0.642-0.606v-1.063H52.146z"/>
		<path fill="#F9F7F7" d="M56.145,69.645l0.448,1.819l-1.556,5.678c-0.047,0.164-0.07,0.316-0.07,0.457
			c0,0.369,0.173,0.633,0.519,0.791l0.308,0.141c0.193,0.088,0.29,0.234,0.29,0.439c0,0.293-0.214,0.439-0.642,0.439h-2.232
			c-0.217,0-0.388-0.045-0.514-0.136s-0.189-0.216-0.189-0.374c0-0.17,0.129-0.311,0.387-0.422c0.24-0.105,0.417-0.2,0.532-0.285
			s0.224-0.201,0.33-0.348c0.164-0.24,0.299-0.56,0.404-0.958L56.145,69.645z M56.751,67.412h3.542l2.443,10.327
			c0.047,0.182,0.1,0.343,0.158,0.483c0.053,0.111,0.17,0.202,0.352,0.272c0.152,0.064,0.258,0.129,0.316,0.193
			s0.088,0.152,0.088,0.264c0,0.305-0.229,0.457-0.686,0.457H58.58c-0.176,0-0.316-0.042-0.422-0.127S58,79.084,58,78.943
			c0-0.117,0.023-0.205,0.07-0.264s0.152-0.132,0.316-0.22c0.117-0.059,0.199-0.123,0.246-0.193s0.07-0.158,0.07-0.264
			c0-0.1-0.009-0.188-0.026-0.264l-0.281-1.274h-2.452l0.237-1.046h1.969l-1.617-7.146L56.751,67.412z"/>
		<path fill="#F9F7F7" d="M69.17,67.412v10.327c0,0.229,0.045,0.393,0.133,0.492c0.047,0.059,0.09,0.096,0.131,0.11
			s0.176,0.051,0.404,0.109c0.281,0.064,0.422,0.226,0.422,0.483c0,0.152-0.076,0.275-0.229,0.369
			c-0.111,0.07-0.295,0.105-0.553,0.105H69.18h-3.92h-0.229c-0.211,0-0.374-0.039-0.488-0.118s-0.171-0.192-0.171-0.339
			c0-0.24,0.117-0.398,0.351-0.475c0.193-0.064,0.307-0.104,0.339-0.118s0.065-0.049,0.101-0.102
			c0.07-0.094,0.105-0.243,0.105-0.448v-8.798c0-0.205-0.035-0.354-0.105-0.448c-0.035-0.053-0.068-0.086-0.101-0.101
			s-0.146-0.055-0.339-0.119c-0.234-0.076-0.351-0.234-0.351-0.475c0-0.146,0.057-0.259,0.171-0.338s0.277-0.119,0.488-0.119h0.229
			H69.17z M71.869,73.529c0.539,0.082,0.953,0.173,1.243,0.272s0.552,0.234,0.786,0.404c0.246,0.182,0.436,0.398,0.567,0.65
			s0.198,0.519,0.198,0.8v1.819c0,0.188,0.061,0.281,0.184,0.281c0.047,0,0.087-0.013,0.119-0.039s0.078-0.078,0.137-0.154
			c0.146-0.199,0.295-0.299,0.447-0.299c0.1,0,0.199,0.053,0.299,0.158S76,77.634,76,77.739c0,0.182-0.087,0.403-0.26,0.664
			s-0.389,0.493-0.646,0.698c-0.24,0.193-0.5,0.333-0.781,0.418s-0.613,0.127-0.994,0.127c-0.773,0-1.377-0.221-1.811-0.663
			s-0.65-1.06-0.65-1.851v-1.477c0-0.328-0.002-0.519-0.008-0.571c-0.029-0.234-0.111-0.437-0.246-0.606
			c-0.17-0.205-0.414-0.325-0.73-0.36v-0.94c0.316-0.047,0.543-0.129,0.678-0.246c0.117-0.105,0.197-0.226,0.241-0.36
			s0.065-0.334,0.065-0.598v-2.329c0-0.369-0.071-0.645-0.215-0.826s-0.402-0.325-0.777-0.431v-0.976h0.229
			c0.65,0,1.203,0.023,1.66,0.07c0.68,0.064,1.287,0.287,1.82,0.668c0.768,0.545,1.15,1.321,1.15,2.329
			c0,0.826-0.258,1.503-0.773,2.03c-0.217,0.223-0.47,0.404-0.76,0.545S72.461,73.354,71.869,73.529z"/>
		<path fill="#F9F7F7" d="M81.791,67.175v1.063c-0.346,0.053-0.604,0.205-0.773,0.457s-0.254,0.612-0.254,1.081v7.26v0.378
			c0,0.135,0.027,0.277,0.083,0.427s0.128,0.276,0.216,0.382c0.094,0.117,0.193,0.201,0.299,0.251s0.248,0.083,0.43,0.101v1.072
			c-1.137,0-2.123-0.296-2.961-0.888c-0.738-0.521-1.295-1.223-1.67-2.104s-0.562-1.927-0.562-3.134
			c0-0.885,0.121-1.709,0.364-2.474s0.597-1.429,1.06-1.991c0.469-0.568,1.029-1.025,1.683-1.371s1.282-0.519,1.886-0.519
			L81.791,67.175z M82.486,68.247v-1.063c0.287,0.047,0.52,0.097,0.698,0.149s0.503,0.164,0.972,0.334
			c0.299,0.105,0.498,0.158,0.598,0.158c0.17,0,0.299-0.076,0.387-0.229l0.113-0.211c0.07-0.141,0.203-0.211,0.396-0.211
			c0.158,0,0.279,0.047,0.364,0.141s0.128,0.231,0.128,0.413v3.656c0,0.234-0.053,0.404-0.158,0.51s-0.227,0.158-0.361,0.158
			c-0.141,0-0.253-0.045-0.338-0.136s-0.154-0.239-0.207-0.444c-0.123-0.463-0.242-0.826-0.359-1.09
			c-0.252-0.557-0.539-1.008-0.861-1.354c-0.217-0.234-0.434-0.414-0.65-0.54S82.75,68.282,82.486,68.247z M82.512,79.646v-1.072
			c0.457-0.035,0.938-0.208,1.441-0.519c0.27-0.17,0.51-0.396,0.721-0.681s0.369-0.597,0.475-0.937
			c0.059-0.188,0.128-0.32,0.207-0.399s0.184-0.119,0.312-0.119c0.141,0,0.258,0.053,0.352,0.158s0.141,0.237,0.141,0.396
			c0,0.264-0.102,0.583-0.304,0.958s-0.462,0.721-0.778,1.037c-0.387,0.387-0.783,0.674-1.19,0.861S83.021,79.623,82.512,79.646z"/>
		<path fill="#F9F7F7" d="M92.471,79.409h-3.92h-0.229c-0.211,0-0.374-0.039-0.488-0.118s-0.172-0.192-0.172-0.339
			c0-0.24,0.117-0.398,0.352-0.475c0.193-0.064,0.307-0.104,0.339-0.118s0.065-0.049,0.101-0.102
			c0.07-0.094,0.105-0.243,0.105-0.448v-8.798c0-0.205-0.035-0.354-0.105-0.448c-0.035-0.053-0.068-0.086-0.101-0.101
			s-0.146-0.055-0.339-0.119c-0.234-0.076-0.352-0.234-0.352-0.475c0-0.146,0.058-0.259,0.172-0.338s0.277-0.119,0.488-0.119h0.229
			h3.92h0.229c0.416,0,0.623,0.152,0.623,0.457c0,0.246-0.111,0.404-0.334,0.475l-0.271,0.088c-0.17,0.059-0.256,0.252-0.256,0.58
			v8.798c0,0.328,0.086,0.521,0.256,0.58l0.271,0.088c0.223,0.07,0.334,0.229,0.334,0.475c0,0.305-0.207,0.457-0.623,0.457H92.471z
			 M93.209,72.844h1.432v-3.832c0-0.328-0.084-0.521-0.254-0.58l-0.281-0.088c-0.223-0.07-0.334-0.229-0.334-0.475
			c0-0.305,0.211-0.457,0.633-0.457h0.229h3.91h0.238c0.439,0,0.658,0.152,0.658,0.457c0,0.24-0.117,0.398-0.352,0.475
			c-0.193,0.064-0.306,0.104-0.338,0.119s-0.066,0.048-0.102,0.101c-0.07,0.094-0.105,0.243-0.105,0.448v8.763
			c0,0.322,0.088,0.519,0.264,0.589l0.281,0.097c0.234,0.076,0.352,0.237,0.352,0.483c0,0.311-0.219,0.466-0.658,0.466h-0.238h-3.91
			h-0.246c-0.41,0-0.615-0.155-0.615-0.466c0-0.246,0.111-0.407,0.334-0.483l0.281-0.097c0.17-0.053,0.254-0.249,0.254-0.589v-4.061
			h-1.432V72.844z"/>
	</g>
</g>
</svg>
