<?xml version="1.0" encoding="utf-8"?>
<!-- Generator: Adobe Illustrator 16.0.4, SVG Export Plug-In . SVG Version: 6.00 Build 0)  -->
<!DOCTYPE svg PUBLIC "-//W3C//DTD SVG 1.1//EN" "http://www.w3.org/Graphics/SVG/1.1/DTD/svg11.dtd">
<svg version="1.1" id="Layer_1201" xmlns="http://www.w3.org/2000/svg" xmlns:xlink="http://www.w3.org/1999/xlink" x="0px" y="0px"
	 width="128px" height="128px" viewBox="0 0 128 128" enable-background="new 0 0 128 128" xml:space="preserve">
<g>
	<path fill-rule="evenodd" clip-rule="evenodd" d="M67.691,39.424c-12.161-0.156-22.393-7.143-25.537-17.047
		C38.642,11.313,45.227,1.163,57.175-0.146C68.376-1.372,79.342,3.444,84.746,14.12c5.77,11.396-1.227,23.846-14.166,25.12
		C69.427,39.354,68.265,39.389,67.691,39.424z M66.065,3.553l0.08,0.099L66.05,3.573l-0.129-0.155L66.065,3.553z M69.006,7.137
		c0.238,0.243,0.478,0.486,0.716,0.729c0.232,0.246,0.464,0.492,0.695,0.737l0.114,0.164L70.351,8.67
		c-0.229-0.25-0.458-0.499-0.688-0.749c-0.234-0.256-0.471-0.514-0.705-0.771l-0.126-0.097L69.006,7.137z M66.317,36.963
		c1.42-0.077,2.504-0.084,3.574-0.203c10.74-1.185,16.652-11.357,12.338-21.137c-0.734-1.668-1.623-2.627-3.674-2.755
		c-5.486-0.34-10.01-2.877-12.738-7.616c-1.717-2.981-3.895-3.369-6.813-3.11C47.015,3.208,40.526,14.624,46.331,24.766
		C50.788,32.552,57.742,36.442,66.317,36.963z M77.198,9.718c0.161-0.058,0.365-0.132,0.57-0.204
		c-0.101-0.215-0.155-0.472-0.309-0.637c-2.242-2.411-5.111-3.844-8.084-5.102c-0.164-0.07-0.489,0.032-0.619,0.169
		c-0.079,0.084,0.014,0.432,0.131,0.585C70.991,7.294,73.72,9.076,77.198,9.718z M75.696,11.147
		c-0.154-0.023-0.309-0.048-0.463-0.071c0.07,0.051,0.135,0.132,0.211,0.143C75.523,11.231,75.612,11.175,75.696,11.147z"/>
	<path fill-rule="evenodd" clip-rule="evenodd" d="M42.884,109.995c0.117-12.959,9.423-24.006,21.109-25.738
		c8.463-1.254,15.973,3.228,18.775,11.206c4.742,13.493-4.753,29.721-19.023,32.513c-10.273,2.01-19.533-4.644-20.686-14.884
		C42.918,111.838,42.915,110.569,42.884,109.995z M45.769,107.67c0.045,14.676,11.009,21.616,22.426,16.169
		c7.617-3.634,13.355-13.313,12.916-21.784c-0.631-12.15-11.595-18.996-22.141-13.586C50.462,92.831,46.18,100.1,45.769,107.67z"/>
	<path fill-rule="evenodd" clip-rule="evenodd" d="M42.925,64.076c0.182-8.495,3.859-15.712,11.193-20.936
		c11.88-8.464,26.098-2.776,28.724,11.367c2.065,11.12-4.478,23.349-14.672,27.888c-12.249,5.454-23.792-2.725-25.052-14.496
		C42.998,66.773,43,65.636,42.925,64.076z M70.452,44.767c0.534-1.828-0.688-2.343-2.059-2.646c-3.039-0.672-5.949-0.12-8.813,0.979
		c-9.138,3.508-15.665,14.926-13.433,25.734c2.153,10.421,11.55,15.245,21.128,11.123c10.753-4.629,16.249-19.403,11.146-29.943
		c-1.241-2.562-3.166-4.464-5.479-6.079c-1.34-0.936-1.895-0.09-2.568,0.763L70.452,44.767z"/>
	<path fill-rule="evenodd" clip-rule="evenodd" d="M56.026,77.932c0.434-3.38,2.281-6.26,3.346-9.419
		c0.38-1.13,0.597-2.164,0.498-3.438c-0.553-7.131,1.424-13.235,7.969-17.046c1.392-0.811,1.312-2.535,2.613-3.263l-0.078-0.068
		c-0.24,1.943-0.545,3.774-0.094,5.852c1.048,4.84-3.01,12.983-7.107,15.199c0.246-0.501,0.492-1.001,0.738-1.5
		c0.875-0.475,1.457-1.141,1.441-2.199c1.291-0.847,2.072-2.003,2.17-3.574c0.832-0.543,0.701-1.398,0.715-2.206
		c1.367-1.798,1.65-3.876,1.204-5.979c-0.396-1.865-1.423-1.944-2.575-0.455c-0.436,0.062-0.719,0.271-0.718,0.751
		c-0.504-0.033-0.726,0.227-0.735,0.707c-0.498-0.012-0.702,0.268-0.729,0.727c-0.574,0.321-0.749,0.837-0.708,1.458
		c-1.305,0.55-1.485,1.658-1.43,2.882c-0.915,0.139-0.755,0.825-0.734,1.441c-0.985,0.781-0.738,1.867-0.72,2.897
		c-1.446,3.611-0.991,4.653,2.167,4.967c-1.529,1.002-2.299,2.545-3.026,4.146c-1.259,2.771-2.351,5.635-4.275,8.054L56.026,77.932z
		"/>
	<path fill-rule="evenodd" clip-rule="evenodd" d="M55.957,77.864c-0.056,0.215-0.111,0.43-0.166,0.646
		c-0.375-0.376,0.19-0.373,0.235-0.578L55.957,77.864z"/>
	<path fill-rule="evenodd" clip-rule="evenodd" d="M64.632,51.961c0.531,0.053,0.699-0.262,0.726-0.717
		c0.451-0.027,0.665-0.296,0.724-0.719c0.402-0.093,0.676-0.312,0.73-0.744c0.945,0.752,0.264,1.493-0.037,2.214
		c-0.588,1.407-1.568,2.688-1.361,4.344c-1.847,1.617-2.113,4.062-3.197,6.078c-0.204,0.378-0.587,0.659-0.887,0.984
		c-0.071-0.454-0.16-0.908-0.211-1.365c-0.052-0.465-0.065-0.934-0.096-1.4c0.944-0.791,0.646-1.891,0.723-2.896
		c0.79-0.199,0.732-0.83,0.724-1.433c0.731-0.838,1.307-1.756,1.446-2.891C64.566,53.135,64.632,52.563,64.632,51.961z"/>
	<path fill-rule="evenodd" clip-rule="evenodd" d="M68.305,56.336c-0.859,0.518-0.724,1.367-0.724,2.172
		c-1.354,0.821-1.807,2.185-2.169,3.604c-0.921,0.435-1.406,1.159-1.441,2.179c-1.13-0.115-1.236-0.636-0.888-1.667
		c0.717-2.122,2.271-3.946,2.274-6.32c1.3-1.244,1.716-2.997,2.604-4.478c0.158-0.266,0.502-0.418,0.76-0.622
		c0.079,0.334,0.24,0.673,0.223,1.001C68.866,53.601,67.974,54.872,68.305,56.336z"/>
</g>
</svg>
