<?xml version="1.0" encoding="utf-8"?>
<!-- Generator: Adobe Illustrator 16.0.0, SVG Export Plug-In . SVG Version: 6.00 Build 0)  -->
<!DOCTYPE svg PUBLIC "-//W3C//DTD SVG 1.1//EN" "http://www.w3.org/Graphics/SVG/1.1/DTD/svg11.dtd">
<svg version="1.1" id="Layer_1205" xmlns="http://www.w3.org/2000/svg" xmlns:xlink="http://www.w3.org/1999/xlink" x="0px" y="0px"
	 width="128px" height="128px" viewBox="0 0 128 128" enable-background="new 0 0 128 128" xml:space="preserve">
<g>
	<path d="M125.418,20.259c-1.553-1.521-3.438-2.26-5.757-2.26c-0.414,0-0.847,0.023-1.291,0.07
		c-1.504,0.162-2.819,0.703-4.021,1.654c-2.312,1.836-4.677,3.624-7.033,5.406c-0.965,0.73-1.931,1.461-2.893,2.194l-9.547,7.287
		l-2.107,1.6c-1.222,0.926-2.442,1.85-3.654,2.793c-0.383,0.296-0.983,0.689-1.791,0.689c-0.452,0-0.899-0.119-1.368-0.366
		c-0.961-0.503-2.037-0.898-2.972-1.228c-3.637-1.286-7.631-2-12.192-2.185l-0.197-0.005c-0.794,0-1.514,0.215-2.401,0.72
		c-2.477,1.407-4.96,2.799-7.444,4.191c-1.496,0.838-2.99,1.676-4.486,2.518c-0.433,0.243-0.885,0.366-1.34,0.366
		c-0.292,0-0.583-0.048-0.885-0.148c-1.422-0.468-2.897-0.764-4.41-1.051c-1.231-0.234-2.346-0.348-3.407-0.348
		c-1.991,0-3.752,0.409-5.382,1.249c-2.168,1.119-4.148,2.806-6.051,5.157c-2.084,2.575-3.844,5.473-5.382,8.86
		c-0.398,0.877-0.999,1.528-1.835,1.988c-1.936,1.064-3.863,2.144-5.792,3.221l-4.618,2.585c-1.959,1.099-3.92,2.192-5.951,3.323
		c-0.031,0.306-0.066,0.609-0.102,0.919c-0.085,0.726-0.172,1.476-0.196,2.187c-0.167,4.906,0.719,9.049,2.709,12.664
		c0.321,0.582,0.396,1.146,0.221,1.676c-0.261,0.793-0.96,1.113-1.224,1.233c-1.395,0.636-2.785,1.425-4.132,2.345
		c-2.548,1.74-4.501,3.631-5.968,5.776c-1.51,2.211-2.163,4.274-1.997,6.312c0.253,3.097,1.974,5.549,5.402,7.713
		c0.053,0.025,0.225,0.072,0.342,0.105l0.124,0.034C7.948,109.945,9.591,110,10.848,110l0.366-0.002
		c1.771-0.008,3.537-0.161,5.339-0.333c5.577-0.531,11.603-1.524,18.425-3.038c2.548-0.564,5.557-1.277,8.548-2.277
		c1.697-0.568,2.67-1.675,3.058-3.479c0.272-1.267,0.895-2.112,2.023-2.744c1.888-1.055,3.828-2.22,5.539-3.245
		c0,0,1.558-0.934,2.283-1.365l4.174-2.473c2.425-1.436,4.851-2.869,7.27-4.312c1.887-1.121,3.77-2.25,5.648-3.377l0.351-0.209
		c2.073-1.242,4.146-2.484,6.224-3.722c5.864-3.491,11.735-6.972,17.604-10.444c0.595-2.672,1.031-5.082,1.337-7.365
		c0.612-4.572,0.054-8.482-1.702-11.951c-0.927-1.828-0.266-2.662,1.105-3.415c1.672-0.919,10.957-5.993,10.957-5.993
		c4.051-2.213,8.102-4.427,12.146-6.648c0.291-0.16,0.593-0.309,0.893-0.458c0.619-0.304,1.203-0.591,1.608-0.961
		c1.956-1.784,3.058-3.682,3.366-5.798C127.768,23.929,127.116,21.923,125.418,20.259z M13.118,72.873
		c0-0.529,0.041-1.059-0.008-1.582c-0.09-0.954,0.302-1.525,1.153-1.988c3.408-1.843,6.782-3.75,10.168-5.632
		c0.135-0.076,0.267-0.159,0.408-0.223c0.075-0.033,0.183-0.065,0.242-0.035c0.096,0.051,0.051,0.16,0.021,0.248
		c-0.3,0.88-0.597,1.759-0.899,2.638c-0.112,0.329-0.418,0.445-0.687,0.596c-2.436,1.36-4.865,2.731-7.319,4.061
		c-0.521,0.279-0.627,0.574-0.583,1.15c0.296,3.795,0.999,7.492,2.389,11.043c0.211,0.539,0.088,0.687-0.446,0.793
		c-1.558,0.312-1.54,0.328-2.253-1.092C13.725,79.708,13.071,76.365,13.118,72.873z M23.354,69.46
		c-0.191,0.759-0.427,1.504-0.627,2.258c-0.876,3.312-1.598,6.658-2.215,10.027c-0.03,0.168,0.022,0.44-0.159,0.475
		c-0.229,0.041-0.227-0.239-0.29-0.401c-0.946-2.489-1.365-5.098-1.761-7.713c-0.034-0.221-0.034-0.445-0.066-0.666
		c-0.276-1.869-0.433-1.493,1.246-2.479c0.898-0.526,1.818-1.021,2.733-1.522c0.292-0.16,0.6-0.295,0.873-0.431
		C23.536,68.982,23.395,69.297,23.354,69.46z M46.475,84.698c-0.419,0.942-0.977,1.796-1.51,2.669
		c-0.271,0.443-0.706,0.611-1.155,0.705c-0.637,0.135-0.68,0.476-0.504,1.005c0.711,2.153,1.2,4.362,1.533,6.604
		c0.188,1.266,0.219,2.539,0.069,3.81c-0.202,1.7-1.06,2.546-2.795,3.065c-5.713,1.709-11.547,2.896-17.423,3.848
		c-4.438,0.715-8.89,1.418-13.408,1.375c-0.87,0-1.74,0.037-2.605-0.01c-1.04-0.057-1.972-0.362-2.803-1.078
		c-1.045-0.902-2.003-1.844-2.616-3.103c-1.099-2.264-0.51-4.366,0.66-6.373c1.256-2.151,3.035-3.836,5.032-5.297
		c3.017-2.205,6.279-3.858,10.013-4.473c1.192-0.199,2.344-0.037,3.505,0.204c0.882,0.182,0.985,0.104,1.062-0.758
		c0.506-5.582,1.708-11.021,3.275-16.393c1.412-4.832,3.143-9.542,5.471-14.014c1.682-3.232,3.627-6.282,6.296-8.821
		c2.929-2.786,6.332-3.869,10.338-3.118c3.676,0.689,7.198,1.841,10.636,3.292c6.104,2.578,11.886,5.758,17.484,9.288
		c0.61,0.385,0.62,0.402-0.007,0.802c-3.771,2.396-7.547,4.784-11.32,7.175c-3.852,2.442-7.704,4.889-11.556,7.33
		c-1.756,1.111-3.505,2.237-5.28,3.318c-0.544,0.329-0.747,0.729-0.754,1.357C48.082,79.747,47.55,82.279,46.475,84.698z
		 M47.382,91.993l-0.168-0.745c-0.117-0.531-0.235-1.062-0.381-1.586c-0.125-0.452-0.063-0.838,0.196-1.216
		c1.938-2.824,3.04-6.138,3.373-10.126c0.06-0.719,0.459-1.062,0.802-1.274c1.214-0.769,2.427-1.541,3.64-2.313
		c1.09-0.694,2.181-1.39,3.273-2.08l13.531-8.557l15.197-9.625c1.047-0.662,2.094-1.324,3.133-1.994l-5.039-2.518
		c-5.146-2.569-10.291-5.137-15.422-7.735c-0.375-0.191-0.687-0.279-0.979-0.279c-0.328,0-0.664,0.116-1.057,0.363
		c-0.762,0.48-1.562,0.915-2.334,1.334c-0.659,0.357-1.319,0.716-1.961,1.105c-0.504,0.306-0.94,0.448-1.368,0.448
		c-0.389,0-0.775-0.124-1.144-0.367c-0.052-0.035-0.2-0.076-0.309-0.105c-0.295-0.082-0.845-0.233-0.868-0.779
		c-0.026-0.654,0.587-0.907,0.918-1.044c0.083-0.035,0.168-0.067,0.239-0.107c1.097-0.618,2.198-1.232,3.298-1.845
		c1.771-0.988,3.541-1.975,5.301-2.982c0.604-0.344,1.205-0.347,1.788-0.348c0.159,0,0.327,0,0.503-0.007
		c6.678,0.401,12.225,2.044,17.012,5.021c3.412,2.124,5.834,4.721,7.402,7.94c0.564,1.16,0.484,1.451-0.553,2.115l-5.631,3.607
		c-3.948,2.532-7.897,5.063-11.853,7.586c-4.411,2.813-8.827,5.619-13.241,8.425l-5.766,3.664l-1.227,0.787
		c-0.953,0.614-1.904,1.229-2.875,1.807c-0.517,0.309-0.73,0.651-0.816,1.315c-0.547,4.201-1.49,7.259-3.058,9.909
		c-0.527,0.891-1.171,1.744-1.97,2.609c-0.271,0.291-0.504,0.517-0.825,0.517C47.597,92.915,47.462,92.337,47.382,91.993z
		 M97.127,57.757c-0.02,3.465-0.714,6.46-1.298,9.474c-0.065,0.332-0.272,0.465-0.513,0.605c-3.465,2.062-6.934,4.121-10.398,6.186
		c-3.227,1.922-6.447,3.849-9.673,5.768c-4.104,2.443-8.216,4.88-12.32,7.323c-3.332,1.983-6.66,3.975-9.991,5.961
		c-1.305,0.778-2.61,1.556-3.921,2.325c-0.139,0.082-0.329,0.305-0.468,0.104c-0.129-0.184,0.106-0.314,0.247-0.427
		c1.372-1.095,2.508-2.394,3.461-3.866c1.646-2.547,2.514-5.379,3.159-8.299c0.147-0.666,0.307-1.342,0.339-2.018
		c0.027-0.58,0.299-0.883,0.75-1.166c5.239-3.326,10.474-6.655,15.702-9.994c7.111-4.543,14.218-9.097,21.328-13.641
		c0.836-0.535,1.68-1.058,2.527-1.577c0.602-0.367,0.631-0.365,0.771,0.372C97.03,55.957,97.174,57.033,97.127,57.757z"/>
	<path d="M48.97,92.398c0.799-0.865,1.443-1.72,1.97-2.609c1.567-2.65,2.51-5.708,3.058-9.909c0.086-0.664,0.3-1.008,0.816-1.315
		c0.972-0.578,1.923-1.191,2.875-1.807l1.227-0.787l5.766-3.664c4.414-2.806,8.83-5.61,13.241-8.425
		c3.954-2.522,7.903-5.054,11.853-7.586l5.631-3.607c1.037-0.664,1.117-0.956,0.553-2.115c-1.568-3.219-3.99-5.816-7.402-7.94
		c-4.787-2.977-10.334-4.62-17.012-5.021c-0.176,0.007-0.344,0.007-0.503,0.007c-0.583,0.001-1.187,0.003-1.788,0.348
		c-1.76,1.007-3.529,1.994-5.301,2.982c-1.101,0.613-2.201,1.227-3.298,1.845c-0.07,0.04-0.155,0.073-0.239,0.107
		c-0.331,0.137-0.944,0.39-0.918,1.044c0.022,0.546,0.572,0.697,0.868,0.779c0.108,0.029,0.256,0.07,0.309,0.105
		c0.369,0.243,0.755,0.367,1.144,0.367c0.428,0,0.864-0.144,1.368-0.448c0.642-0.389,1.302-0.748,1.961-1.105
		c0.772-0.42,1.572-0.854,2.334-1.334c0.393-0.247,0.729-0.363,1.057-0.363c0.293,0,0.604,0.088,0.979,0.279
		c5.131,2.598,10.275,5.166,15.422,7.735l5.039,2.518c-1.039,0.67-2.086,1.332-3.133,1.994l-15.197,9.625l-13.531,8.557
		c-1.092,0.689-2.183,1.385-3.273,2.079c-1.213,0.772-2.426,1.546-3.64,2.313c-0.342,0.214-0.742,0.556-0.802,1.274
		c-0.333,3.988-1.436,7.302-3.373,10.126c-0.259,0.378-0.321,0.764-0.196,1.216c0.146,0.521,0.264,1.055,0.381,1.586l0.168,0.745
		c0.08,0.344,0.215,0.922,0.763,0.922C48.466,92.915,48.699,92.689,48.97,92.398z M47.892,91.873
		c-0.183-0.785-0.339-1.576-0.554-2.354c-0.085-0.304-0.046-0.532,0.123-0.777c2.146-3.129,3.151-6.643,3.463-10.379
		c0.036-0.436,0.225-0.664,0.56-0.876c2.308-1.46,4.607-2.934,6.914-4.395c4.509-2.854,9.022-5.7,13.532-8.557
		c4.771-3.019,9.541-6.042,14.312-9.064c1.361-0.863,2.728-1.723,4.083-2.597c0.631-0.408,0.618-0.502-0.027-0.825
		c-6.851-3.426-13.71-6.833-20.543-10.294c-0.94-0.477-1.667-0.449-2.552,0.108c-1.389,0.875-2.881,1.583-4.286,2.435
		c-0.678,0.411-1.276,0.539-1.954,0.092c-0.308-0.203-0.93-0.195-0.941-0.468c-0.017-0.391,0.557-0.486,0.891-0.674
		c2.865-1.614,5.748-3.196,8.603-4.829c0.627-0.358,1.254-0.253,2.053-0.287c5.847,0.354,11.557,1.737,16.714,4.944
		c3.084,1.918,5.595,4.411,7.208,7.724c0.449,0.923,0.461,0.917-0.364,1.445c-5.828,3.731-11.647,7.472-17.481,11.193
		c-6.33,4.038-12.67,8.06-19.006,12.089c-1.361,0.864-2.703,1.762-4.089,2.585c-0.678,0.404-0.965,0.908-1.068,1.697
		c-0.442,3.4-1.216,6.711-2.988,9.709c-0.54,0.914-1.188,1.746-1.905,2.521C48.116,92.552,48.041,92.513,47.892,91.873z"/>
	<path d="M22.213,69.438c-0.915,0.502-1.835,0.996-2.733,1.522c-1.679,0.985-1.521,0.608-1.246,2.479
		c0.033,0.221,0.033,0.445,0.066,0.666c0.396,2.615,0.814,5.224,1.761,7.713c0.063,0.162,0.061,0.442,0.29,0.401
		c0.182-0.032,0.129-0.307,0.159-0.475c0.617-3.369,1.339-6.715,2.215-10.027c0.2-0.754,0.436-1.499,0.627-2.258
		c0.041-0.163,0.183-0.478-0.268-0.453C22.813,69.143,22.505,69.275,22.213,69.438z M22.909,70.504
		c-0.159,0.628-0.355,1.249-0.521,1.876c-0.727,2.749-1.328,5.528-1.84,8.325c-0.025,0.14,0.02,0.368-0.132,0.395
		c-0.191,0.035-0.189-0.197-0.241-0.334c-0.787-2.066-1.134-4.232-1.463-6.404c-0.027-0.183-0.027-0.37-0.054-0.555
		c-0.23-1.553-0.361-1.24,1.034-2.058c0.747-0.438,1.509-0.849,2.27-1.265c0.243-0.133,0.499-0.246,0.726-0.358
		C23.061,70.107,22.943,70.367,22.909,70.504z"/>
	<path d="M35.93,98.996c-0.796,0.043-1.318,0.656-1.29,1.509c0.028,0.804,0.658,1.403,1.438,1.366
		c0.782-0.034,1.388-0.688,1.367-1.467C37.423,99.566,36.761,98.951,35.93,98.996z"/>
	<path d="M8.802,103.135c-0.556,0.018-1.062,0.522-1.077,1.068c-0.014,0.584,0.515,1.139,1.099,1.148
		c0.589,0.013,1.115-0.52,1.112-1.119C9.932,103.646,9.384,103.116,8.802,103.135z"/>
	<path d="M20.549,103.518c-0.589-0.009-1.137,0.545-1.121,1.129c0.017,0.545,0.544,1.052,1.1,1.058
		c0.568,0.004,1.087-0.476,1.12-1.032C21.681,104.098,21.135,103.523,20.549,103.518z"/>
	<path d="M60.986,63.734c0.609,0.015,1.145-0.509,1.134-1.11c-0.01-0.562-0.512-1.069-1.071-1.083
		c-0.609-0.015-1.146,0.513-1.134,1.115C59.927,63.243,60.399,63.721,60.986,63.734z"/>
	<path d="M52.52,68.811c0.544-0.011,1.03-0.521,1.045-1.098c0.016-0.623-0.477-1.128-1.094-1.122
		c-0.589,0.007-1.017,0.454-1.028,1.077C51.431,68.312,51.913,68.822,52.52,68.811z"/>
	<path d="M41.762,95.743c0.016,0.563,0.516,1.075,1.063,1.091c0.601,0.018,1.096-0.5,1.089-1.136
		c-0.007-0.617-0.432-1.054-1.045-1.07C42.255,94.609,41.745,95.126,41.762,95.743z"/>
	<path d="M29.353,97.29c-0.629-0.002-1.059,0.407-1.077,1.021c-0.02,0.637,0.46,1.146,1.073,1.146
		c0.564-0.002,1.062-0.479,1.092-1.048C30.475,97.777,30.001,97.292,29.353,97.29z"/>
	<path d="M12.972,103.95c-0.582,0.016-1.025,0.479-1.037,1.085c-0.012,0.631,0.462,1.121,1.091,1.128
		c0.573,0.004,1.019-0.47,1.018-1.083C14.043,104.393,13.608,103.934,12.972,103.95z"/>
	<path d="M38.777,88.379c-0.579,0.002-1.078,0.471-1.099,1.036c-0.022,0.597,0.5,1.134,1.105,1.134c0.583,0,1.071-0.466,1.095-1.046
		C39.905,88.893,39.402,88.377,38.777,88.379z"/>
	<path d="M36.609,94.417c0.604,0.03,1.105-0.466,1.112-1.103c0.006-0.644-0.479-1.143-1.091-1.119
		c-0.572,0.021-1.018,0.501-1.023,1.1C35.603,93.88,36.059,94.389,36.609,94.417z"/>
	<path d="M16.674,97.688c0.001-0.648-0.379-1.071-0.99-1.098c-0.611-0.023-1.13,0.477-1.13,1.092c0,0.631,0.491,1.107,1.122,1.092
		C16.296,98.758,16.673,98.348,16.674,97.688z"/>
	<path d="M22.538,97.352c-0.65-0.008-1.105,0.451-1.089,1.101c0.017,0.592,0.474,1.062,1.044,1.071
		c0.612,0.012,1.094-0.489,1.081-1.121C23.561,97.771,23.153,97.357,22.538,97.352z"/>
	<path d="M16.985,101.577c-0.561,0.004-1.074,0.505-1.078,1.053c-0.004,0.615,0.5,1.142,1.091,1.136
		c0.597-0.004,1.032-0.438,1.053-1.055C18.073,102.061,17.616,101.573,16.985,101.577z"/>
	<path d="M57.418,67.646c0.635-0.008,1.007-0.396,1.017-1.062c0.009-0.681-0.426-1.146-1.062-1.128
		c-0.523,0.012-1.061,0.552-1.077,1.081C56.279,67.122,56.815,67.652,57.418,67.646z"/>
	<path d="M24.938,102.507c-0.598,0.011-1.06,0.476-1.062,1.069c-0.003,0.607,0.536,1.13,1.138,1.097
		c0.585-0.028,1.006-0.507,0.991-1.128C25.989,102.914,25.562,102.497,24.938,102.507z"/>
	<path d="M54.891,64.054c0.608,0.012,1.064-0.437,1.062-1.042c-0.004-0.606-0.459-1.082-1.041-1.083
		c-0.587-0.002-1.069,0.474-1.065,1.054C53.85,63.594,54.288,64.042,54.891,64.054z"/>
	<path d="M49.587,63.889c0.004,0.611,0.441,1.059,1.045,1.072c0.608,0.012,1.063-0.438,1.062-1.043
		c-0.004-0.607-0.46-1.082-1.041-1.083C50.065,62.833,49.584,63.309,49.587,63.889z"/>
	<path d="M38.483,96.927c-0.602,0.002-1.024,0.421-1.054,1.046c-0.027,0.609,0.39,1.079,0.982,1.109
		c0.635,0.031,1.15-0.43,1.169-1.042C39.599,97.432,39.102,96.927,38.483,96.927z"/>
	<path d="M42.478,84.036c-0.48-0.002-0.892,0.399-0.901,0.879c-0.011,0.533,0.413,0.95,0.94,0.924
		c0.495-0.024,0.857-0.415,0.852-0.918C43.363,84.439,42.954,84.036,42.478,84.036z"/>
	<path d="M42.66,72.891c-0.481,0-0.893,0.401-0.902,0.879c-0.011,0.533,0.414,0.95,0.94,0.927c0.496-0.026,0.857-0.417,0.852-0.919
		C43.544,73.298,43.136,72.891,42.66,72.891z"/>
	<path d="M43.966,68.896c0.496-0.027,0.858-0.418,0.852-0.92c-0.006-0.479-0.414-0.886-0.891-0.886c-0.48,0-0.891,0.4-0.901,0.879
		C43.016,68.504,43.439,68.923,43.966,68.896z"/>
	<path d="M63.863,63.793c0.482,0.016,0.882-0.369,0.905-0.87c0.024-0.535-0.39-0.979-0.902-0.97
		c-0.47,0.008-0.869,0.428-0.864,0.914C63.003,63.368,63.385,63.778,63.863,63.793z"/>
	<path d="M49.213,70.672c-0.484,0.03-0.865,0.456-0.835,0.932c0.029,0.48,0.447,0.864,0.923,0.852
		c0.491-0.016,0.885-0.409,0.888-0.891C50.192,71.057,49.736,70.641,49.213,70.672z"/>
	<path d="M44.54,77.542c-0.509-0.032-0.889,0.303-0.926,0.812c-0.039,0.559,0.326,0.97,0.864,0.972
		c0.521,0.004,0.863-0.329,0.879-0.856C45.372,77.946,45.043,77.575,44.54,77.542z"/>
	<path d="M54.988,58.757c0.521,0.003,0.864-0.331,0.879-0.858c0.016-0.519-0.314-0.893-0.816-0.924
		c-0.508-0.033-0.888,0.3-0.925,0.811C54.085,58.343,54.451,58.754,54.988,58.757z"/>
	<path d="M39.126,81.702c-0.537-0.021-0.937,0.385-0.921,0.928c0.015,0.484,0.424,0.881,0.895,0.869
		c0.489-0.015,0.868-0.399,0.871-0.89C39.975,82.098,39.625,81.721,39.126,81.702z"/>
	<path d="M45.74,61.679c-0.536-0.021-0.936,0.383-0.92,0.927c0.015,0.484,0.423,0.882,0.893,0.868
		c0.491-0.013,0.869-0.399,0.873-0.889C46.59,62.074,46.239,61.697,45.74,61.679z"/>
	<path d="M49.248,60.122c0.49-0.013,0.869-0.399,0.872-0.889c0.004-0.512-0.346-0.888-0.845-0.906
		c-0.537-0.02-0.938,0.383-0.922,0.927C48.369,59.738,48.778,60.135,49.248,60.122z"/>
</g>
</svg>
