<?xml version="1.0" encoding="utf-8"?>
<!-- Generator: Adobe Illustrator 16.0.0, SVG Export Plug-In . SVG Version: 6.00 Build 0)  -->
<!DOCTYPE svg PUBLIC "-//W3C//DTD SVG 1.1//EN" "http://www.w3.org/Graphics/SVG/1.1/DTD/svg11.dtd">
<svg version="1.1" id="Layer_1207" xmlns="http://www.w3.org/2000/svg" xmlns:xlink="http://www.w3.org/1999/xlink" x="0px" y="0px"
	 width="128px" height="128px" viewBox="0 0 128 128" enable-background="new 0 0 128 128" xml:space="preserve">
<g>
	<path fill-rule="evenodd" clip-rule="evenodd" d="M110.086,66.411c-1.697,22.099-10.712,41.867-30.581,55.791
		c-10.402,7.289-20.995,7.186-31.367-0.05c-16.79-11.713-26.195-28.043-29.386-48.078c-3.403-21.365,3.68-38.98,19.15-53.711
		c6.057-5.766,12.613-10.986,18.226-17.248c3.366-3.757,11.853-3.56,15.613,0.049c7.731,7.426,15.52,14.806,22.976,22.505
		C105.241,36.535,109.686,49.934,110.086,66.411z M104.815,66.417c-0.163-16.359-5.243-28.938-15.481-39.231
		C82.7,20.517,75.748,14.157,68.807,7.803c-3.364-3.078-6.795-2.858-10.349,0.404c-5.97,5.48-12.001,10.906-17.75,16.613
		c-6.923,6.873-12.548,14.583-15.423,24.175c-7.288,24.312,5.256,56.89,27.039,69.847c8.324,4.951,16.482,4.637,24.279-0.804
		C95.149,105.1,103.244,86.528,104.815,66.417z"/>
	<path fill-rule="evenodd" clip-rule="evenodd" d="M102.522,69.925c-0.821,16.269-9.542,33.372-26.609,45.901
		c-8.79,6.451-14.638,6.229-23.758,0.277C32.598,103.34,21.197,75.311,26.406,53.054c1.842-7.87,5.654-14.604,11.401-20.16
		c7.885-7.618,15.995-15.001,23.97-22.528c1.309-1.234,2.586-1.923,3.943-0.333C72.884,18.42,82.191,24.51,89.689,32.55
		C99.07,42.607,102.591,51.254,102.522,69.925z"/>
</g>
</svg>
