<?xml version="1.0" encoding="utf-8"?>
<!-- Generator: Adobe Illustrator 16.0.0, SVG Export Plug-In . SVG Version: 6.00 Build 0)  -->
<!DOCTYPE svg PUBLIC "-//W3C//DTD SVG 1.1//EN" "http://www.w3.org/Graphics/SVG/1.1/DTD/svg11.dtd">
<svg version="1.1" id="Layer_1210" xmlns="http://www.w3.org/2000/svg" xmlns:xlink="http://www.w3.org/1999/xlink" x="0px" y="0px"
	 width="128px" height="128px" viewBox="0 0 128 128" enable-background="new 0 0 128 128" xml:space="preserve">
<g>
	<path fill-rule="evenodd" clip-rule="evenodd" d="M102.337,75.932c1.111,0,2.011-0.037,2.906,0.006
		c7.843,0.375,8.695,1.694,5.373,9.023c-5.124,11.303-14.667,17.409-25.872,21.332c-4.506,1.577-9.177,2.739-13.987,2.989
		c-3.997,0.207-4.146-0.007-3.933-3.826c0.834-15.077,10.249-25.917,25.02-28.595C95.362,76.225,98.928,75.611,102.337,75.932z"/>
	<path fill-rule="evenodd" clip-rule="evenodd" d="M25.403,75.895c5.88-0.019,11.704,0.659,17.194,2.746
		c10.827,4.115,16.428,12.415,18.141,23.64c1.153,7.57,0.652,8.05-6.842,6.673c-9.691-1.78-18.788-4.89-26.551-11.235
		c-5.609-4.585-9.595-10.196-11.513-17.241c-0.622-2.29-0.376-3.666,2.422-4.008C20.637,76.178,23.005,75.939,25.403,75.895z"/>
	<path fill-rule="evenodd" clip-rule="evenodd" d="M25.915,45.319c0.93,0.329,2.101,0.63,3.17,1.139
		c7.695,3.665,13.92,9.185,19.485,15.533c1.104,1.26,1.522,2.477,0.375,3.961c-1.743,2.25-1.561,6.064-3.906,7.279
		c-2.199,1.141-5.052-1.041-7.666-1.538c-3.676-0.7-7.395-1.104-11.139-1.041c-1.692,0.028-2.971-0.303-3.266-2.201
		c-1.062-6.828-1.712-13.653,0.34-20.423C23.681,46.8,23.8,45.251,25.915,45.319z"/>
	<path fill-rule="evenodd" clip-rule="evenodd" d="M105.775,60.219c-0.041,1.656,0.02,4.943-0.776,8.184
		c-0.382,1.562-1.1,2.256-2.742,2.268c-6.158,0.039-12.225,0.76-18.066,2.84c-1.319,0.47-1.87-0.085-2.264-1.31
		c-0.733-2.277-1.682-4.482-2.988-6.501c-0.764-1.179-0.687-2.223,0.23-3.255c6.109-6.863,12.675-13.094,21.442-16.562
		c2.449-0.969,3.488-0.428,4.163,2.032C105.74,51.436,105.838,54.996,105.775,60.219z"/>
	<path fill-rule="evenodd" clip-rule="evenodd" d="M77.302,75.222c0.18,1.399-0.672,2.233-1.687,2.918
		c-4.716,3.183-7.979,7.553-10.382,12.63c-0.735,1.55-1.281,2.5-2.393,0.124c-2.436-5.209-5.771-9.752-10.677-12.948
		c-1.502-0.979-1.677-2.17-1.196-3.843c1.84-6.416,6.248-10.723,11.501-14.367c0.912-0.633,1.897-0.765,2.917-0.076
		c5.311,3.579,9.776,7.835,11.578,14.259C77.085,74.351,77.188,74.787,77.302,75.222z"/>
	<path fill-rule="evenodd" clip-rule="evenodd" d="M45.039,50.687c-0.306-0.188-0.704-0.381-1.044-0.648
		c-3.646-2.866-7.338-5.656-11.564-7.652c-1.429-0.676-1.783-1.827-1.46-3.353c1.46-6.907,3.393-13.629,7.589-19.459
		c2.078-2.888,2.542-2.988,5.222-0.646c4.46,3.896,7.555,8.818,10.209,14.053c0.717,1.414,0.377,2.54-0.494,3.717
		c-2.768,3.741-4.936,7.816-6.69,12.125C46.493,49.597,46.312,50.618,45.039,50.687z"/>
	<path fill-rule="evenodd" clip-rule="evenodd" d="M97.143,39.936c0.276,1.105-0.525,1.904-1.693,2.477
		c-4.054,1.987-7.684,4.616-11.119,7.506c-1.552,1.305-2.321,0.711-2.952-0.825c-1.884-4.581-4.211-8.919-7.165-12.899
		c-0.694-0.936-0.948-1.752-0.363-2.851c2.891-5.433,6.023-10.647,10.801-14.729c2.011-1.717,3.382-1.423,4.721,0.58
		C93.517,25.395,95.836,32.286,97.143,39.936z"/>
	<path fill-rule="evenodd" clip-rule="evenodd" d="M68.746,30.259c-3.113-3.833-6.357-2.498-9.729-0.28
		c-0.509,0.335-1.099-0.796-1.485-1.436c-0.85-1.408-1.52-3-2.634-4.161c-3.295-3.431-3.191-6.895-1.057-10.925
		c2.179-4.116,4.375-8.149,7.559-11.604c1.834-1.993,3.433-1.986,5.254-0.061c4.412,4.665,7.259,10.212,9.225,16.25
		c0.213,0.656,0.225,1.615-0.107,2.17c-1.846,3.073-3.813,6.074-5.775,9.076C69.776,29.625,69.33,29.815,68.746,30.259z"/>
	<path fill-rule="evenodd" clip-rule="evenodd" d="M64.1,53.256c-3.164,0.674-5.301,2.863-7.707,4.568
		c-2.672,1.893-4.423,1.499-5.803-1.376c-0.508-1.058-0.278-2.051,0.064-3.035c2.336-6.701,5.8-12.706,10.683-17.925
		c2.089-2.232,3.556-1.762,5.458,0.164c5.05,5.113,8.091,11.373,10.731,17.914c1.062,2.632-0.85,3.851-2.262,5.286
		c-1.784,1.815-2.565-0.425-3.599-1.124C69.22,56.072,67.024,54.012,64.1,53.256z"/>
	<path fill-rule="evenodd" clip-rule="evenodd" d="M68.848,120.421c0.002,0.148,0.002,0.298,0.002,0.447
		c-0.007,7.049-0.209,7.154-7.209,6.55c-1.945-0.167-2.625-0.958-2.621-2.729c0.005-1.784-0.034-3.569-0.034-5.354
		c-0.003-7.185-0.057-5.641,5.676-5.692c4.124-0.036,4.127,0.029,4.184,4.102C68.858,118.637,68.847,119.528,68.848,120.421z"/>
</g>
</svg>
