<?xml version="1.0" encoding="utf-8"?>
<!-- Generator: Adobe Illustrator 16.0.0, SVG Export Plug-In . SVG Version: 6.00 Build 0)  -->
<!DOCTYPE svg PUBLIC "-//W3C//DTD SVG 1.1//EN" "http://www.w3.org/Graphics/SVG/1.1/DTD/svg11.dtd">
<svg version="1.1" id="Layer_1211" xmlns="http://www.w3.org/2000/svg" xmlns:xlink="http://www.w3.org/1999/xlink" x="0px" y="0px"
	 width="128px" height="128px" viewBox="0 0 128 128" enable-background="new 0 0 128 128" xml:space="preserve">
<g>
	<path fill-rule="evenodd" clip-rule="evenodd" d="M104.019,24.489c-0.102,5.449-1.002,10.734-2.955,15.851
		c-1.463,3.829-1.344,3.714,2.513,4.524c5.659,1.188,11.435,1.834,16.769,4.455c10.988,5.4,9.588,13.615,2.426,20.254
		c-6.252,5.798-13.846,9.361-22.125,11.292c-2.718,0.634-3.411,1.579-2.664,4.409c2.572,9.74,2.27,19.52-0.344,29.245
		c-2.215,8.238-9.002,10.788-16.193,6.326c-7.248-4.498-11.843-11.339-16.547-18.071c-2.629-3.764-2.43-3.89-5.838-0.887
		c-6.307,5.554-13.647,9.145-21.766,11.147c-2.104,0.519-4.314,0.48-6.463,0.181c-6.016-0.838-8.319-3.679-8.481-9.834
		c-0.169-6.468,2.491-12.12,5.019-17.76c2.914-6.502,3.047-6.321-3.738-8.975c-5.266-2.059-10.738-3.621-15.584-6.739
		c-2.317-1.49-4.353-3.201-6.096-5.261c-3.394-4.01-2.992-9.36,0.736-13.113c4.578-4.607,10.662-6.224,16.455-8.368
		c2.642-0.979,5.438-1.774,8.225-2.051c2.771-0.275,2.967-1.273,2.234-3.599c-2.13-6.764-3.008-13.694-2.129-20.781
		c0.117-0.936,0.281-1.87,0.508-2.783c2.074-8.41,8.417-11.211,16.053-7.105c5.651,3.038,10.531,7.053,14.907,11.717
		c1.288,1.373,2.458,3.269,4.062,3.825c1.764,0.613,2.623-1.871,3.939-2.893c7.258-5.638,15.461-8.159,24.559-7.868
		C103.155,12.001,104.315,15.688,104.019,24.489z M89.804,19.81c-13.885,0.282-25.346,8.818-26.323,25.646
		c-0.128,2.206,0.7,4.249,1.436,6.276c0.29,0.798,1.12,1.684,1.521,0.304c1.189-4.095,5.01-7.146,4.582-11.864
		c-0.221-2.44,1.111-3.839,3.43-4.221c2.025-0.334,3.852,0.214,4.797,2.182c1.058,2.195,0.236,4.169-1.729,5.202
		c-4.303,2.264-5.51,6.462-6.924,10.49c-1.1,3.126-0.428,3.865,2.996,3.356c5.002-0.743,9.08-3.359,12.398-7.078
		c5.877-6.585,8.605-14.542,9.837-23.136C96.827,19.978,96.658,19.732,89.804,19.81z M41.265,71.814
		c2.174-0.035,4.346-0.005,6.447-0.634c2.343-0.7,4.612-1.59,6.354-3.386c1.146-1.182,1.439-2.665-0.54-3.019
		c-3.994-0.711-8.056-2.729-12.085,0.007c-0.951,0.646-2.01,0.634-3.098,0.187c-2.318-0.952-3.428-3.371-2.531-5.642
		c0.814-2.058,3.406-3.145,5.852-1.919c3.48,1.745,7.279,1.893,10.93,2.766c0.484,0.116,1.256,0.138,1.518-0.146
		c0.542-0.586-0.006-1.2-0.379-1.748c-3.518-5.174-8.264-8.384-14.53-9.311c-8.817-1.306-16.79,1.699-24.749,4.754
		c-1.371,0.526-2.678,1.303-3.889,2.145c-3.215,2.241-3.158,2.875-0.393,5.465c1.941,1.817,4.359,2.71,6.656,3.787
		C24.574,68.757,32.597,71.499,41.265,71.814z M91.493,100.662c0.156-7.94-0.688-13.611-3.268-18.999
		c-2.904-6.067-7.826-9.467-14.104-11.221c-0.654-0.184-1.449-0.329-1.891,0.229c-0.181,0.229,0.116,1.106,0.447,1.431
		c3.246,3.174,3.437,8.546,8.119,10.807c1.879,0.907,1.656,3.323,0.951,5.158c-0.719,1.868-2.402,2.566-4.305,2.296
		c-2.108-0.3-3.867-1.743-3.513-3.772c0.892-5.115-2.918-8.182-4.694-12.112c-0.393-0.869-1.08-2.202-2.339-1.83
		c-1.039,0.308-1.579,1.52-1.724,2.599c-0.518,3.903-1.023,7.958,0.582,11.616c4.492,10.246,10.483,19.498,19.335,26.604
		c2.594,2.082,3.47,1.835,4.661-1.267C91.436,107.826,91.374,103.195,91.493,100.662z M43.768,79.836
		c-1.462,0.544-3.976-1.07-5.134,1.392c-2.916,6.202-6.469,12.146-7.932,18.965c-1.029,4.805,0.16,6.189,4.934,5.089
		c7.53-1.736,13.793-5.929,19.646-10.776c2.465-2.04,3.975-4.381,2.054-7.682c-0.696-1.194-0.438-2.638-0.561-3.978
		c-0.058-0.647,0.018-1.455-0.759-1.717c-0.762-0.257-1.202,0.426-1.669,0.871c-0.486,0.465-0.878,1.031-1.376,1.481
		c-1.83,1.651-3.006,3.796-4.43,5.754c-1.016,1.397-2.439,1.977-3.838,0.935c-1.42-1.059-0.654-2.45,0.228-3.553
		c1.009-1.261,2.177-2.393,3.163-3.668c0.73-0.944,2.07-2.13,1.646-3.064c-0.586-1.289-2.073-0.022-3.174-0.046
		C45.758,79.823,44.948,79.836,43.768,79.836z M95.433,60.224c0.518-0.053,0.788-0.072,1.057-0.109
		c1.646-0.235,3.652-0.541,3.972,1.582c0.397,2.647-2.126,2.331-3.688,2.598c-2.926,0.501-5.895,0.73-8.842,1.106
		c-0.747,0.096-1.851-0.228-2.046,0.799c-0.167,0.878,0.804,1.303,1.421,1.798c1.477,1.182,3.191,2.165,4.181,3.8
		c1.038,1.717,2.46,1.829,4.175,1.669c5.945-0.554,11.11-3.229,16.254-5.937c2.405-1.267,4.528-3.015,6.307-5.028
		c2.516-2.851,2.211-4.275-1.283-5.692c-6.298-2.553-12.869-4.066-19.68-4.442c-1.394-0.076-2.651,0.008-3.559,1.355
		c-1.6,2.374-3.64,4.334-6.005,5.957c-0.425,0.291-1.075,0.698-0.755,1.231c0.168,0.279,0.994,0.26,1.512,0.217
		C90.874,60.928,93.216,60.092,95.433,60.224z M34.917,21.256c0.582,4.903,1.324,9.528,2.553,14.109
		c0.916,3.417,2.108,5.854,6.17,6.07c1.797,0.097,3.539,1.214,5.31,1.859c0.466,0.169,0.901,0.805,1.407,0.397
		c0.564-0.455-0.023-0.979-0.225-1.399c-1.156-2.431-2.373-4.833-3.557-7.251c-0.66-1.352-1.511-2.883,0.393-3.804
		c1.727-0.835,2.678,0.348,3.412,1.837c1.132,2.294,2.342,4.552,3.611,6.772c0.495,0.867,1.365,1.129,1.658-0.12
		c0.682-2.89,1.502-5.728,2.52-8.515c0.255-0.7-0.068-1.293-0.539-1.831c-4.902-5.59-10.096-10.907-16.417-14.876
		c-3.393-2.13-4.771-1.316-5.629,2.562C35.267,18.508,35.114,19.986,34.917,21.256z"/>
</g>
</svg>
