<?xml version="1.0" encoding="utf-8"?>
<!-- Generator: Adobe Illustrator 16.0.0, SVG Export Plug-In . SVG Version: 6.00 Build 0)  -->
<!DOCTYPE svg PUBLIC "-//W3C//DTD SVG 1.1//EN" "http://www.w3.org/Graphics/SVG/1.1/DTD/svg11.dtd">
<svg version="1.1" id="Layer_1212" xmlns="http://www.w3.org/2000/svg" xmlns:xlink="http://www.w3.org/1999/xlink" x="0px" y="0px"
	 width="128px" height="128px" viewBox="0 0 128 128" enable-background="new 0 0 128 128" xml:space="preserve">
<path fill-rule="evenodd" clip-rule="evenodd" d="M96.188,64.877c-1.283,17.611-5.681,34.722-15.907,49.977
	c-3.013,4.491-6.737,8.313-11.524,11.071c-3.535,2.036-6.944,2.093-10.31,0.01c-4.572-2.832-8.604-6.06-11.498-10.933
	C25.821,79.44,27.207,45.757,48.634,12.122c2.138-3.357,4.743-6.412,8.062-8.75c5.408-3.81,8.879-3.79,14.21,0.028
	c3.447,2.469,6.069,5.708,8.363,9.183C89.634,28.287,95.014,45.627,96.188,64.877z M57.476,10.734
	c0.329-0.362,0.657-0.724,0.986-1.085c0.903,0.128,1.664-0.05,2.085-0.964c0.311-0.055,0.716-0.008,0.911-0.189
	c0.274-0.252,0.055-0.585-0.35-0.464c-0.214,0.064-0.321,0.486-0.476,0.747c-0.86-0.039-1.609,0.166-2.089,0.956
	c-0.33,0.36-0.659,0.721-0.989,1.082c-0.366,0.384-0.732,0.77-1.098,1.154c-0.318,0.307-0.638,0.613-0.956,0.919
	c-0.395,0.375-0.787,0.751-1.18,1.126c-0.352,0.346-0.704,0.692-1.056,1.038c-0.35-0.01-0.7-0.021-1.051-0.031
	c0.004-0.728,0.008-1.457,0.011-2.185c3.611-1.934,5.846-5.778,9.892-7.123c0.628-0.208,1.377-0.686,0.994-1.429
	c-0.366-0.71-1.252-0.484-1.839-0.162c-3.8,2.09-7.126,4.683-8.957,8.79c-1.308,0.642-2.051,1.653-2.071,3.145
	c-1.259,0.619-1.896,1.688-2.176,3.015c-0.352,0.675-0.704,1.352-1.055,2.027c-0.29,0.793-0.579,1.586-0.869,2.38
	c-1.036,0.229-0.98,1.125-1.15,1.883c-0.91,0.517-0.896,1.409-0.928,2.282c-1.488,1.333-2.065,3.065-2.195,4.994
	c-0.84,0.534-0.873,1.415-0.972,2.266c-0.438,0.92-0.875,1.842-1.312,2.762c-0.239,1.183-0.478,2.364-0.717,3.546
	c-0.185,0.445-1.234,0.658-0.366,1.381c0.091-0.49,0.184-0.98,0.275-1.471c1.023-1.021,0.936-2.274,0.739-3.548
	c1.271-0.527,1.246-1.657,1.286-2.756c0.974-0.478,0.994-1.364,0.969-2.268c1.548-1.302,2.062-3.062,2.211-4.984
	c0.708-0.599,1.031-1.354,0.921-2.283c0.844-0.346,1.134-1.033,1.159-1.884c0.291-0.798,0.58-1.595,0.871-2.393
	c0.829-0.427,1.21-1.083,1.04-2.024c0.75-0.31,1.499-0.622,2.25-0.932c0.36,0.729,0.72,1.458,1.079,2.188
	c-1.032,3.148-2.749,5.958-4.211,8.885c-12.262,24.551-12.327,49.305,0.167,73.912c2.286,4.504,4.971,8.745,8.594,12.318
	c0.588,0.581,1.2,1.424,2.172,1.016c0.95-0.4,0.813-1.428,0.854-2.251c0.067-1.386,0.049-2.774,0.047-4.161
	c-0.051-30.009-0.086-60.016-0.196-90.023c-0.008-2.193,1.315-5.432-0.475-6.359c-2.16-1.12-2.841,2.856-4.958,3.569
	c-0.04-0.724-0.081-1.448-0.12-2.172c0.353-0.347,0.706-0.694,1.059-1.041c0.395-0.376,0.788-0.752,1.182-1.129
	c0.317-0.309,0.635-0.618,0.952-0.928C56.737,11.497,57.105,11.116,57.476,10.734z M54.355,119.299
	c-0.399-0.393-0.799-0.785-1.198-1.178l-0.105-0.24l0.191,0.168c0.396,0.389,0.793,0.777,1.188,1.166l0.176,0.222L54.355,119.299z
	 M77.266,110.855c-0.441,0.05-0.883,0.1-1.324,0.15c1.897-3.676,4.078-7.234,5.645-11.048c6.539-15.927,9.802-32.303,6.043-49.51
	c0.354-1.091,0.707-2.184,1.062-3.275c1.576,1.561,1.589,3.702,2.02,5.66c1.561,7.078,1.048,14.275,1.117,21.438
	c-1.312,1.511-0.808,3.416-1.119,5.144c-1.009,1.641-0.936,3.471-0.926,5.287c-1.029,0.779-0.998,1.952-1.137,3.062
	c-0.364,1.026-0.726,2.053-1.088,3.078c-0.342,1.045-0.684,2.088-1.025,3.133c-0.346,1.039-0.691,2.077-1.035,3.117
	c-0.071,0.241-0.141,0.482-0.212,0.724c0.049-0.271,0.098-0.543,0.146-0.814c1.062-0.809,1.113-1.943,1.016-3.128
	c1.171-0.772,1.088-1.956,1.026-3.133c1.255-0.704,1.121-1.902,1.089-3.065c1.379-0.648,0.881-1.988,1.129-3.056
	c1.21-1.603,0.99-3.459,0.939-5.285c1.503-1.47,0.936-3.387,1.108-5.144c3.021-16.57-0.689-31.951-8.243-46.653
	c0.046-0.894,0.032-1.758-1.036-2.103c-2.431-8.22-7.381-14.703-13.948-20.024c-0.843-0.682-2.278-2.068-3.062-0.994
	c-1.034,1.418,1.001,1.74,1.853,2.348c2.37,1.694,5.017,3.099,5.879,6.21c-1.776-0.429-2.559-2.125-3.926-3.073
	c-0.939-0.653-2.406-2.127-2.889-1.478c-1.058,1.425,1.035,1.636,1.766,2.324c1.585,1.491,3.332,2.811,5.012,4.201
	c0.092,0.621,0.421,0.999,1.07,1.048c-0.045,1.523,0.656,2.548,2.07,3.096c0.021,0.872,0.216,1.658,1.043,2.136
	c0.003,0.716,0.005,1.432,0.009,2.148c-2.53-1.946-3.548-5.07-5.695-7.312c-0.582-0.607-1.108-1.558-2.038-1.36
	c-1.389,0.296-0.934,1.625-1.058,2.574c-0.09,0.682-0.03,1.384-0.032,2.078c-0.031,31.001-0.067,62.004-0.069,93.006
	c0,2.006-0.556,4.245,1.595,5.681c-0.004,0.358-0.008,0.716-0.015,1.073c-0.355,0.374-0.712,0.748-1.067,1.122
	c-4.023,1.904-7.749,0.548-11.453-1.042c-0.362-0.381-0.725-0.764-1.088-1.145c-0.32-0.315-0.641-0.632-0.962-0.948
	c-0.352-0.34-0.702-0.678-1.053-1.018c-0.363-0.328-0.727-0.655-1.089-0.982c-0.286-0.433-0.571-0.864-0.855-1.297
	c-0.478-0.023-0.956-0.048-1.434-0.071c-0.226,0.224-0.492,0.292-0.799,0.204l-0.183-0.171l0.159,0.177
	c0.224-0.189,0.472-0.269,0.743-0.238c0.535,0.015,1.07,0.028,1.604,0.042c0.283,0.424,0.564,0.848,0.846,1.271
	c0.367,0.327,0.734,0.652,1.1,0.979c0.348,0.343,0.697,0.686,1.045,1.028c0.319,0.312,0.641,0.624,0.962,0.937
	c0.36,0.386,0.721,0.772,1.083,1.158c4.403,4.41,6.859,4.636,11.298,1.04c0.355-0.376,0.712-0.751,1.067-1.127
	c1.189-0.137,1.82-0.859,2.07-1.98c0.346-0.35,0.691-0.699,1.038-1.051c0.35-0.343,0.697-0.685,1.045-1.028
	c0.385-0.327,0.771-0.653,1.155-0.979l0.067-0.157l-0.112,0.228c-0.376-0.038-0.752-0.074-1.129-0.112
	c0.22-1.284,0.869-2.286,1.972-2.988c0.415-0.045,0.829-0.091,1.244-0.137l0.116-0.169L77.266,110.855z M37.299,46.404
	c-0.086,0.113-0.232,0.22-0.244,0.339c-0.014,0.13,0.098,0.273,0.154,0.41c0.09-0.115,0.237-0.223,0.251-0.347
	C37.476,46.681,37.357,46.54,37.299,46.404z M63.22,119.875l0.162-0.253l-0.256-0.033L63.22,119.875z"/>
</svg>
