<?xml version="1.0" encoding="utf-8"?>
<!-- Generator: Adobe Illustrator 16.0.0, SVG Export Plug-In . SVG Version: 6.00 Build 0)  -->
<!DOCTYPE svg PUBLIC "-//W3C//DTD SVG 1.1//EN" "http://www.w3.org/Graphics/SVG/1.1/DTD/svg11.dtd">
<svg version="1.1" id="Layer_1214" xmlns="http://www.w3.org/2000/svg" xmlns:xlink="http://www.w3.org/1999/xlink" x="0px" y="0px"
	 width="128px" height="128px" viewBox="0 0 128 128" enable-background="new 0 0 128 128" xml:space="preserve">
<g id="NrVqdM.tif_1_">
	<g>
		<path fill-rule="evenodd" clip-rule="evenodd" d="M113.052,122.914c-13.125-0.353-25.856-3.048-38.055-7.638
			c-14.181-5.337-27.377-12.43-38.865-22.719C23.208,80.981,11.387,65.094,6.787,48.707c-2.07-7.375-4.992-14.802-4.318-22.817
			c0.16-1.895,0.728-4.05-1.375-5.595c-0.46-0.338-0.139-1.63-0.349-2.438c-0.866-3.334,1.343-5.865,2.207-8.744
			c2.874,1.345,3.917,3.534,5.101,6.648c3.686,9.691,9.234,18.548,15.365,26.941c9.509,13.019,20.315,24.947,32.289,35.688
			c10.564,9.477,21.998,17.902,34.222,25.233c9.154,5.492,18.561,10.186,29.118,12.319c1.533,0.31,3.483,1.074,4.209,2.26
			c0.986,1.613,3.997,0.296,3.532,2.344c-0.236,1.044-2.603,2.1-4.103,2.262C119.509,123.153,116.268,122.914,113.052,122.914z"/>
		<path fill-rule="evenodd" clip-rule="evenodd" d="M10.969,5.404c5.743-1.242,9.764,2.57,14.405,1.497
			c4.67-1.083,8.885,1.168,13.292,1.873c4.271,0.682,8.632,1.732,12.549,3.51c9.16,4.156,18.475,7.873,26.687,14.166
			c4.15,3.181,7.669,7.198,12.504,9.766c5.047,2.681,7.356,8.579,11.081,12.883c6.256,7.226,11.881,15.274,15.136,24.342
			c3.67,10.225,8.833,20.08,9.056,31.392c0.054,2.635,2.121,5.021,1.721,8.058c-0.449,3.396-0.302,3.145-4.103,1.789
			c-2.996-1.068-4.178-3.015-5.493-5.571c-7.383-14.347-16.385-27.543-27.029-39.771c-4.705-5.405-9.168-11.071-14.51-15.791
			C59.83,39.023,42.601,25.576,22.175,16.908c-2.487-1.056-4.975-2.57-7.557-2.796c-2.375-0.209-3.792-1.25-5.001-2.818
			C8.318,9.607,4.924,8.653,6.365,5.926C7.398,3.971,10.167,5.796,10.969,5.404z"/>
		<path fill-rule="evenodd" clip-rule="evenodd" d="M49.978,64.605c0.003-9.877,5.859-15.969,14.283-15.543
			c1.482,0.075,2.806,0.061,3.83,1.411c1.739,2.291,4.325,3.491,6.618,5.102c2.02,1.419,4.924,3.1,4.959,5.683
			c0.041,3.04-3.81,2.244-5.58,3.677c-4.19,3.39-8.331,6.938-9.973,12.313c-0.642,2.097-1.63,1.956-3.075,1.351
			c-4.361-1.829-7.264-5.452-10.412-8.718C49.054,68.248,50.534,65.952,49.978,64.605z"/>
		<path fill-rule="evenodd" clip-rule="evenodd" d="M67.629,80.664c-0.177-3.919-0.237-6.816,2.844-9.183
			c3.142-2.409,5.962-4.83,10.231-4.881c2.483-0.03,4.32,0.459,6.021,2.438c2.45,2.854,5.32,5.346,7.932,8.067
			c1.337,1.395,2.024,2.707-0.647,3.66c-6.051,2.159-10.285,6.307-12.335,12.422c-0.559,1.666-0.763,1.029-2.028,0.669
			c-4.538-1.29-6.376-6.081-10.791-7.642C66.211,85.281,68.205,82.023,67.629,80.664z"/>
		<path fill-rule="evenodd" clip-rule="evenodd" d="M44.703,63.147c-1.108,0.3-1.437-0.754-2.112-1.22
			c-4.104-2.831-5.29-8.112-9.277-11.033c-1.126-0.826-0.867-2-0.92-3.125c-0.203-4.386,2.754-7.021,5.152-10.155
			c2.358-3.083,6.013-3.291,8.865-3.934c2.07-0.467,5.003,2.797,7.524,4.441c2.586,1.686,3.598,5.323,7.26,5.752
			c0.845,0.1,1.247,0.909,0.259,1.67c-0.458,0.353-0.767,1.061-1.255,1.191c-7.819,2.071-11.274,8.095-13.727,15.037
			C46.164,62.643,45.823,63.363,44.703,63.147z"/>
		<path fill-rule="evenodd" clip-rule="evenodd" d="M111.497,104.175c0.298,3.356-3.379,6.245-6.285,4.337
			c-5.243-3.443-11.585-4.8-16.346-9.059c-1.629-1.456-5.049-1.463-5.175-3.729c-0.1-1.762,2.682-3.521,3.078-5.503
			c1.129-5.648,7.207-4.427,9.984-7.675c0.33-0.384,1.661-0.262,2.265,0.638c4.402,6.556,9.042,12.964,12.464,20.126
			C111.595,103.547,111.497,103.884,111.497,104.175z"/>
		<path fill-rule="evenodd" clip-rule="evenodd" d="M24.988,20.902c2.591,1.219,5.827,2.551,8.86,4.246
			c1.646,0.918,2.664,2.569,4.775,3.244c1.29,0.414,3.115,0.984,4.282,2.203c-1.239,1.045-2.489,2.006-3.902,2.875
			c-3,1.848-5.626,4.342-7.089,8.032c-1.729,4.362-3.48,4.64-5.167,0.723c-1.722-4.001-5.907-5.81-7.17-10.094
			c-0.519-1.759-2.768-4.205-2.257-5.383c0.966-2.226,3.4-3.836,5.313-5.608C22.958,20.839,23.721,21.01,24.988,20.902z"/>
	</g>
</g>
</svg>
