<?xml version="1.0" encoding="utf-8"?>
<!-- Generator: Adobe Illustrator 16.0.0, SVG Export Plug-In . SVG Version: 6.00 Build 0)  -->
<!DOCTYPE svg PUBLIC "-//W3C//DTD SVG 1.1//EN" "http://www.w3.org/Graphics/SVG/1.1/DTD/svg11.dtd">
<svg version="1.1" id="Layer_1302" xmlns="http://www.w3.org/2000/svg" xmlns:xlink="http://www.w3.org/1999/xlink" x="0px" y="0px"
	 width="128px" height="128px" viewBox="0 0 128 128" enable-background="new 0 0 128 128" xml:space="preserve">
<g id="MMFlQE.tif">
	<g>
		<path fill-rule="evenodd" clip-rule="evenodd" d="M63.918,128.316c-6.534-0.805-13.023-0.115-19.426-1.231
			c-2.088-0.364-3.355-1.112-4.021-3.304c-3.633-11.973-7.471-23.894-9.414-36.293c-1.538-9.811-2.013-19.628,0.987-29.308
			c2.198-7.091,6.044-13.034,12.091-17.464c1.836-1.346,3.657-2.715,5.44-4.13c0.785-0.623,1.586-1.296,2.156-2.104
			c1.502-2.128,0.909-3.576-1.655-3.944c-1.266-0.182-2.491-0.377-3.647-0.925c-3.853-1.823-5.85-5.718-4.759-9.282
			c1.147-3.751,5.601-6.453,9.595-5.769c0.865,0.148,1.732,0.411,2.539,0.758c1.331,0.574,2.02,0.097,1.921-1.234
			c-0.179-2.442,1.055-2.988,3.209-2.922c3.666,0.113,7.34,0.085,11.009,0.009c1.598-0.033,2.191,0.513,2.283,2.158
			c0.245,4.354,1.578,8.44,3.641,12.267c0.836,1.551,1.152,3.016,0.32,4.671c-1.251,2.488-0.281,4.375,1.764,5.915
			c1.819,1.368,3.618,2.766,5.454,4.109c8.849,6.479,13.119,15.471,14.326,26.125c1.45,12.806-1.017,25.179-4.331,37.429
			c-1.782,6.584-3.881,13.082-5.703,19.657c-0.631,2.278-1.906,3.213-4.206,3.601C76.956,128.205,70.343,127.484,63.918,128.316z
			 M63.891,107.877c15.002,0.061,25.648-13.77,21.416-27.905c-1.41-4.711-4.31-8.582-7.606-12.118
			c-5.141-5.516-9.398-11.583-12.31-18.563c-0.438-1.05-0.956-2.066-1.464-3.086c-0.497-0.996-1.032-0.996-1.495,0.023
			c-0.627,1.382-1.271,2.758-1.824,4.168c-2.423,6.184-5.747,11.809-10.116,16.829c-2.077,2.388-3.934,4.958-5.502,7.719
			c-2.164,3.812-3.583,7.884-3.269,12.295C42.562,99.078,52.045,107.828,63.891,107.877z M50.087,18.859
			c-2.481-0.016-4.589,1.646-4.539,3.58c0.044,1.708,2.595,3.944,4.491,3.938c1.801-0.006,3.688-2.379,3.646-4.583
			C53.648,19.896,52.395,18.873,50.087,18.859z"/>
		<path fill-rule="evenodd" clip-rule="evenodd" d="M64.17-0.266c2.146,0.002,4.293,0.036,6.438-0.008
			c1.841-0.038,2.857,0.648,2.781,2.641c-0.068,1.765-0.061,3.536-0.004,5.301c0.062,2.031-0.812,3.076-2.889,3.07
			c-4.293-0.012-8.585-0.038-12.877,0.009c-2.068,0.023-2.985-0.91-3.002-2.958c-0.08-9.92-0.394-7.849,7.28-8.055
			C62.654-0.286,63.412-0.268,64.17-0.266z"/>
		<path fill-rule="evenodd" clip-rule="evenodd" d="M58.864,84.357c-0.09-2.088-2.737-2.967-2.425-5.339
			c0.139-1.052-0.016-1.763,1.381-1.237c2.156,0.812,2.312-0.699,2.329-2.173c0.009-0.868-0.551-2.327-0.243-2.513
			c2.023-1.226,2.021-3.988,4.031-5.074c0.543-0.294,4.037,4.894,4.123,6.121c0.043,0.625-0.064,1.26-0.033,1.887
			c0.069,1.446,0.373,2.564,2.271,1.748c1.419-0.609,1.185,0.258,1.26,1.293c0.132,1.814-1.235,2.656-2.003,3.893
			c-0.252,0.406-0.784,0.908-0.395,1.293c0.465,0.459,0.785-0.251,1.151-0.5c2.757-1.879,5.603-3.506,9.127-3.18l-0.056-0.053
			c-0.508,2.745-1.049,5.47-3.117,7.582c-0.236,0.24-0.493,0.852-0.381,0.98c2.564,2.969-1.104,2.506-1.973,3.174
			c-1.039,0.801-1.928,0.807-0.879,2.488c1.277,2.052,1,2.114-1.587,2.152c-2.04,0.031-3.781-0.959-5.695-1.337
			c-1.146-0.228-1.245,0.089-1.413,0.962c-0.316,1.656,0.581,3.437-0.53,5.002c-0.704-1.564-0.211-3.221-0.372-4.827
			c-0.092-0.92-0.248-1.093-1.368-0.959c-2.066,0.248-3.963,1.081-6.094,1.216c-2.644,0.168-1.62-0.84-1.062-1.967
			c0.162-0.328,0.323-0.682,0.572-0.938c0.857-0.879,0.506-1.133-0.52-1.383c-0.833-0.202-1.563-0.787-2.383-1.085
			c-0.975-0.355-1.826-0.414-0.799-1.851c1.104-1.543-1.37-2.178-1.373-3.579c-0.003-0.987-1.045-1.458-1.27-2.247
			c-0.318-1.116-0.271-2.336-0.379-3.513c1.113,0.128,2.42-0.073,3.303,0.446c2.221,1.305,4.924,1.631,6.861,3.455
			c0.049,0.345,0.127,0.406,0.233,0.186C59.062,84.44,58.963,84.398,58.864,84.357z"/>
	</g>
</g>
</svg>
