<?xml version="1.0" encoding="utf-8"?>
<!-- Generator: Adobe Illustrator 16.0.0, SVG Export Plug-In . SVG Version: 6.00 Build 0)  -->
<!DOCTYPE svg PUBLIC "-//W3C//DTD SVG 1.1//EN" "http://www.w3.org/Graphics/SVG/1.1/DTD/svg11.dtd">
<svg version="1.1" id="Layer_1401" xmlns="http://www.w3.org/2000/svg" xmlns:xlink="http://www.w3.org/1999/xlink" x="0px" y="0px"
	 width="128px" height="128px" viewBox="0 0 128 128" enable-background="new 0 0 128 128" xml:space="preserve">
<g>
	<path fill-rule="evenodd" clip-rule="evenodd" d="M12.012,87.99c13.5-0.221,13.088,1.734,13.068-12.076
		c-0.011-7.462-0.159-7.555-7.405-7.642c-3.995-0.049-7.99-0.039-11.984,0.026c-2.853,0.048-4.384-1.1-4.44-4.106
		c-0.057-3.159,1.145-4.821,4.525-4.751c4.699,0.096,9.401-0.083,14.1,0.004c3.423,0.063,5.23-1.148,5.24-4.871
		c0.05-17.571,1.083-14.137-13.287-14.511c-1.879-0.049-3.765-0.098-5.64,0.002c-3.674,0.2-4.987-1.651-5.017-5.12
		c-0.032-3.701,1.802-4.97,5.245-4.898c3.992,0.081,7.99-0.021,11.983-0.078c6.427-0.09,6.545-0.197,6.717-6.858
		c0.073-2.818,0.099-5.644-0.001-8.458c-0.141-3.989,1.979-5.373,5.652-5.444c3.976-0.077,5.462,1.939,5.387,5.661
		c-0.063,3.054-0.06,6.114,0.055,9.165c0.092,2.48-0.528,5.625,3.355,5.794c3.99,0.174,3.521-2.962,3.599-5.475
		c0.099-3.288,0.087-6.58,0.043-9.87c-0.041-2.997,0.851-5.156,4.33-4.974c3.287,0.171,6.069,0.903,5.906,5.208
		c-0.142,3.754,0.007,7.52,0.073,11.278c0.036,2.017,0.476,3.778,3.027,3.889c2.779,0.12,3.724-1.507,3.767-3.952
		c0.067-3.76,0.143-7.52,0.115-11.279c-0.025-3.372,1.298-5.398,4.912-5.407c3.524-0.009,5.952,1.223,6.01,5.22
		c0.057,3.993,0.088,7.99,0.24,11.979c0.069,1.786,0.781,3.215,2.938,3.183c2.183-0.033,2.759-1.555,2.822-3.304
		c0.127-3.521,0.2-7.048,0.139-10.57c-0.068-3.858,1.172-6.444,5.521-6.442c4.138,0.002,5.89,2.083,5.722,6.189
		c-0.145,3.519,0,7.048,0.069,10.572c0.04,2.098,0.759,3.688,3.227,3.725c2.396,0.037,3.34-1.31,3.388-3.524
		c0.085-3.994,0.197-7.988,0.249-11.981c0.043-3.438,1.651-5.127,5.172-5.224c3.721-0.103,5.866,1.366,5.94,5.224
		c0.067,3.524,0.103,7.05,0.016,10.573c-0.087,3.517,1.394,5.195,5.025,5.072c3.52-0.119,7.048,0.068,10.573,0.031
		c3.399-0.033,4.433,1.843,4.448,4.922c0.016,3.063-0.964,4.987-4.369,4.987c-3.759,0-7.519,0.096-11.278,0.122
		c-2.864,0.021-4.363,1.405-4.374,4.297c-0.016,3.761-0.026,7.52-0.009,11.278c0.012,2.259,0.979,3.324,3.447,3.333
		c3.75,0.015,7.496,0.513,11.248,0.62c3.126,0.09,5.522,0.526,5.402,4.596c-0.127,4.354-3.107,3.972-5.914,4.023
		c-3.289,0.061-6.581,0.078-9.869,0.032c-3.477-0.047-5.252,1.576-5.264,5.076c0,0.236-0.015,0.471-0.034,0.705
		c-1.126,13.423-0.755,13.71,12.626,14.113c3.233,0.097,8.144-1.989,8.305,4.44c0.084,3.345-0.853,5.471-4.679,5.373
		c-3.523-0.088-7.062,0.189-10.573-0.033c-4.358-0.272-5.936,1.72-5.717,5.846c0.16,3.048-0.006,6.11,0.084,9.164
		c0.089,3.132-0.401,5.733-4.356,5.733c-3.92-0.001-6.243-1.61-6.045-5.901c0.108-2.346,0.276-4.733-0.035-7.041
		c-0.384-2.843,1.838-7.688-3.484-7.505c-5.114,0.177-2.838,4.95-3.236,7.816c-0.354,2.537-0.182,5.164-0.077,7.744
		c0.168,4.08-1.998,5.147-5.696,5.219c-4.009,0.074-5.521-1.669-5.431-5.465c0.083-3.523-0.072-7.051-0.021-10.574
		c0.05-3.524-1.561-5.144-5.119-5.078c-4.697,0.085-9.4,0.062-14.097-0.046c-3.685-0.085-4.964,1.743-4.859,5.217
		c0.111,3.756-0.05,7.52-0.074,11.279c-0.025,3.859-2.394,4.508-5.647,4.463c-3.374-0.047-4.564-1.665-4.512-4.815
		c0.066-3.993,0.009-7.99-0.062-11.984c-0.037-1.996-0.485-3.792-2.996-3.98c-2.518-0.19-4.249,1.023-4.516,3.421
		c-0.388,3.486-0.344,7.024-0.435,10.543c-0.086,3.314,0.377,6.817-4.728,6.793c-5.092-0.023-5.509-3.283-5.468-7.113
		c0.033-3.054-0.111-6.111-0.049-9.164c0.066-3.252-1.427-4.712-4.665-4.665c-4.23,0.061-8.461-0.06-12.689-0.011
		c-3.551,0.04-6.557-0.121-6.478-5.064c0.071-4.539,2.833-4.743,6.109-4.701C9.316,88.013,11.431,87.99,12.012,87.99z
		 M22.999,96.301c0-0.018,0-0.036,0-0.054c5.137,0,10.274,0.026,15.412-0.014c2.15-0.017,4.47-0.084,4.494-3.085
		c0.023-2.77-2.025-3.526-4.273-3.546c-10.042-0.085-20.083-0.096-30.125-0.064c-2.198,0.007-4.434,0.466-4.471,3.286
		c-0.044,3.345,2.56,3.434,4.95,3.46C13.655,96.339,18.328,96.301,22.999,96.301z M23.323,38.474c4.911,0,9.823,0.05,14.733-0.024
		c2.286-0.034,5.009,0.292,4.929-3.312c-0.069-3.079-2.576-3.099-4.562-3.142c-10.048-0.212-20.099-0.28-30.15-0.316
		c-2.282-0.009-4.209,0.717-4.125,3.589c0.087,2.996,2.259,3.176,4.441,3.196C13.5,38.508,18.411,38.479,23.323,38.474z
		 M106.858,96.232c0-0.045,0-0.091,0-0.137c4.446,0,8.895,0.043,13.341-0.018c2.115-0.029,4.465-0.01,4.62-3.007
		c0.172-3.364-2.263-3.672-4.729-3.676c-8.891-0.019-17.781,0-26.672,0.049c-2.149,0.012-4.419,0.1-4.583,3.066
		c-0.186,3.372,2.217,3.682,4.688,3.709C97.969,96.267,102.413,96.232,106.858,96.232z M107.436,38.369c0,0.039,0,0.078-0.002,0.118
		c4.661,0,9.323,0.042,13.982-0.018c2.16-0.028,3.543-1.086,3.534-3.414c-0.008-2.414-1.566-3.234-3.667-3.238
		c-9.556-0.016-19.113-0.019-28.669,0.053C90.528,31.886,89,32.863,89,35.23c0,2.492,1.719,3.105,3.755,3.125
		C97.648,38.401,102.541,38.369,107.436,38.369z M45.038,99.949c-0.014,0-0.027,0-0.042,0c0,4.204-0.043,8.405,0.019,12.606
		c0.032,2.099-0.042,4.557,2.966,4.593c2.76,0.032,3.43-2.105,3.437-4.351c0.024-8.399-0.021-16.799-0.105-25.198
		c-0.019-1.915-0.23-3.83-2.944-3.817c-2.971,0.016-3.317,2.002-3.327,4.261C45.026,92.013,45.038,95.981,45.038,99.949z
		 M86.918,28.131c0.018,0,0.034-0.001,0.052-0.001c0-3.993,0.022-7.988-0.01-11.981c-0.018-2.292-0.515-4.289-3.42-4.288
		c-2.868,0.003-3.484,1.956-3.486,4.263c-0.008,7.987,0.028,15.975,0.076,23.961c0.015,2.438,0.915,4.099,3.739,3.925
		c2.511-0.154,3.021-1.866,3.038-3.901C86.942,36.118,86.918,32.124,86.918,28.131z M51.507,28.034c0.029,0,0.059,0,0.088,0
		c0-4.198,0.026-8.396-0.01-12.595c-0.021-2.201-1.067-3.508-3.409-3.483c-1.993,0.021-3.057,1.108-3.067,3.029
		c-0.04,8.63-0.032,17.26,0.006,25.888c0.009,1.884,0.937,3.068,2.962,3.148c2.361,0.094,3.413-1.145,3.423-3.39
		C51.52,36.432,51.507,32.233,51.507,28.034z M23.679,61.281c-5.156,0-10.312-0.043-15.467,0.022
		c-1.884,0.026-3.992,0.109-3.864,2.853c0.106,2.259,1.949,2.448,3.581,2.457c10.311,0.059,20.622,0.059,30.931,0.021
		c1.921-0.006,4.018-0.218,3.847-2.899c-0.174-2.729-2.481-2.406-4.265-2.438C33.523,61.211,28.601,61.268,23.679,61.281z
		 M107.573,61.147c-4.904,0-9.811-0.047-14.715,0.024c-1.911,0.027-3.913,0.262-3.815,2.94c0.081,2.218,1.81,2.581,3.471,2.591
		c9.576,0.051,19.151,0.041,28.726-0.021c1.665-0.01,3.384-0.341,3.46-2.58c0.092-2.688-1.898-2.911-3.812-2.942
		C116.451,61.089,112.012,61.137,107.573,61.147z M80.082,100.526c0.019,0,0.034,0.001,0.053,0.001
		c0,4.455-0.047,8.911,0.025,13.367c0.024,1.513,0.746,2.775,2.433,2.929c2.053,0.185,3.059-1.072,3.135-2.947
		c0.354-8.658,0.679-17.319,0.89-25.981c0.044-1.841-0.095-3.893-2.825-4.001c-2.815-0.111-3.695,1.519-3.706,3.964
		C80.071,92.081,80.082,96.303,80.082,100.526z M82.802,75.336c0,0.016,0,0.03,0,0.045c-2.792,0-5.584-0.034-8.374,0.012
		c-2.018,0.033-3.787,0.506-3.718,3.069c0.062,2.295,1.451,3.351,3.596,3.392c5.813,0.108,11.629,0.163,17.442,0.188
		c2.153,0.01,3.555-0.934,3.583-3.303c0.026-2.337-1.242-3.377-3.458-3.396C88.852,75.315,85.825,75.336,82.802,75.336z
		 M65.258,38.385c0-0.015,0-0.029,0-0.045c3.023,0,6.05,0.085,9.07-0.03c1.947-0.074,2.874-1.379,2.873-3.258
		c0-1.919-1.002-3.117-2.955-3.147c-5.812-0.09-11.627-0.148-17.44-0.092c-2.272,0.022-3.26,1.432-3.142,3.693
		c0.109,2.081,1.396,2.824,3.218,2.863C59.672,38.43,62.465,38.385,65.258,38.385z M65.55,96.258c0-0.018,0.001-0.037,0.001-0.054
		c2.344,0,4.692,0.076,7.033-0.023c2.12-0.091,4.526-0.142,4.565-3.124c0.046-3.358-2.543-3.482-4.946-3.509
		c-4.688-0.05-9.378-0.032-14.066,0.035c-2.174,0.03-4.391,0.221-4.518,3.185c-0.125,2.947,1.929,3.42,4.193,3.476
		C60.39,96.309,62.97,96.258,65.55,96.258z M47.813,82.066c0-0.035,0.001-0.071,0.001-0.107c3.025,0,6.053,0.082,9.073-0.026
		c2.25-0.081,3.311-1.39,3.165-3.678c-0.134-2.08-1.445-2.81-3.264-2.823c-5.588-0.039-11.176-0.028-16.762-0.006
		c-2.183,0.01-3.585,1.004-3.563,3.331c0.021,2.358,1.58,3.232,3.671,3.294C42.691,82.122,45.254,82.066,47.813,82.066z
		 M82.737,52.562c3.051,0,6.103,0.047,9.152-0.018c2.21-0.046,3.459-1.112,3.428-3.492c-0.032-2.489-1.587-3.356-3.663-3.262
		c-6.082,0.28-12.159,0.695-18.232,1.14c-1.628,0.119-2.497,1.133-2.377,2.855c0.112,1.606,0.83,2.72,2.538,2.756
		C76.633,52.608,79.686,52.562,82.737,52.562z M68.609,78.619c-0.012,0-0.025,0-0.037,0c0-2.339,0.057-4.682-0.02-7.018
		c-0.062-1.92-1.113-3.028-3.082-3.087c-1.932-0.06-3.263,0.898-3.323,2.82c-0.136,4.439-0.107,8.888-0.042,13.33
		c0.029,1.917,1.146,3.012,3.106,3.06c2.354,0.057,3.368-1.265,3.393-3.489C68.627,82.363,68.609,80.49,68.609,78.619z
		 M48.298,52.481c0.001,0.128,0.003,0.259,0.004,0.389c3.015-0.132,6.034-0.194,9.041-0.425c1.539-0.119,2.537-1,2.518-2.715
		c-0.019-1.696-1.026-2.694-2.542-2.717c-6.03-0.09-12.062-0.082-18.089,0.049c-1.469,0.033-2.558,1.01-2.564,2.716
		c-0.005,1.731,1.096,2.592,2.587,2.662C42.263,52.579,45.283,52.481,48.298,52.481z M65.168,66.506
		c0.002,0.113,0.005,0.227,0.006,0.34c3.25-0.145,6.506-0.212,9.746-0.47c1.275-0.103,1.99-1.061,1.992-2.415
		c0.002-1.354-0.698-2.297-1.984-2.418c-6.269-0.589-12.551-0.365-18.827-0.097c-1.257,0.054-2.153,0.795-2.289,2.167
		c-0.165,1.687,0.686,2.775,2.29,2.851C59.119,66.606,62.147,66.506,65.168,66.506z M103.865,78.193
		c-0.019-0.001-0.037-0.001-0.056-0.001c0-2.331,0.094-4.666-0.033-6.99c-0.085-1.577-1.068-2.52-2.72-2.592
		c-1.592-0.068-2.863,0.646-3.14,2.177c-0.874,4.844-0.9,9.736-0.105,14.594c0.252,1.541,1.509,2.285,3.087,2.254
		c2.032-0.04,2.903-1.27,2.953-3.147C103.909,82.391,103.865,80.291,103.865,78.193z M68.525,49.608c0.006,0,0.01,0,0.016,0
		c0-2.113,0.052-4.227-0.019-6.337c-0.052-1.556-0.769-2.677-2.474-2.864c-1.951-0.216-3.339,0.666-3.564,2.552
		c-0.556,4.664-0.657,9.366,0.057,14.026c0.246,1.608,1.577,2.213,3.148,2.177c1.644-0.036,2.716-0.887,2.803-2.513
		C68.618,54.308,68.525,51.955,68.525,49.608z M104.06,49.248c-0.035-0.001-0.07-0.001-0.106-0.001c0-2.096,0.109-4.2-0.03-6.288
		c-0.13-1.947-1.403-2.794-3.316-2.813c-2.052-0.02-3.002,1.062-3.019,3.005c-0.039,4.195-0.127,8.394,0.019,12.583
		c0.075,2.21,1.591,3.308,3.772,3.222c2.136-0.085,2.616-1.662,2.666-3.412C104.105,53.447,104.06,51.346,104.06,49.248z
		 M51.569,63.953c-0.014,0-0.027,0-0.039,0c0-1.876,0.019-3.752-0.006-5.628c-0.025-1.943-1.018-3.127-2.968-3.203
		c-2.306-0.091-3.429,1.208-3.437,3.465c-0.013,3.753,0.015,7.505,0.018,11.257c0.003,2.223,0.926,3.601,3.324,3.55
		c2.497-0.055,3.07-1.744,3.103-3.812C51.591,67.706,51.569,65.829,51.569,63.953z M103.855,107.469
		c0-2.105,0.057-4.212-0.018-6.313c-0.067-1.896-0.999-3.045-3.043-3.075c-1.965-0.028-3.199,0.899-3.251,2.849
		c-0.104,3.972-0.089,7.949-0.004,11.922c0.041,1.85,1.008,3.117,3.025,3.14c2.398,0.029,3.258-1.44,3.279-3.609
		C103.859,110.743,103.847,109.107,103.855,107.469z M80.193,64.254c-0.024,0-0.049,0-0.072,0c0,1.625-0.036,3.253,0.009,4.877
		c0.052,1.903,0.132,3.869,2.697,4.096c2.718,0.238,3.816-1.398,3.88-3.79c0.096-3.479,0.035-6.965-0.039-10.446
		c-0.047-2.145-1-3.551-3.392-3.442c-2.457,0.111-3.003,1.817-3.072,3.83C80.149,61.001,80.193,62.628,80.193,64.254z
		 M68.666,21.374c0.039,0,0.079,0,0.117,0c0-1.869,0.056-3.742-0.016-5.609c-0.076-2.018-0.604-3.779-3.144-3.742
		c-2.375,0.035-3.334,1.652-3.415,3.659c-0.151,3.729-0.119,7.472,0.004,11.204c0.061,1.878,1.229,2.99,3.186,2.993
		c1.91,0.003,3.136-0.936,3.245-2.9C68.747,25.115,68.666,23.243,68.666,21.374z M33.36,78.627c0.005,0,0.011,0,0.017,0
		c0-2.562,0.098-5.129-0.043-7.682c-0.067-1.233-0.936-2.117-2.272-2.24c-1.629-0.149-2.837,0.634-3.022,2.211
		c-0.573,4.874-0.618,9.769,0.137,14.633c0.199,1.28,1.162,1.938,2.493,1.956c1.75,0.024,2.559-1.061,2.656-2.587
		C33.461,82.829,33.36,80.726,33.36,78.627z M33.755,49.911c-0.095-0.002-0.191-0.004-0.287-0.007c0-2.314,0.122-4.637-0.043-6.938
		c-0.11-1.517-1.07-2.519-2.761-2.479c-1.676,0.038-2.585,1.053-2.703,2.579c-0.359,4.62-0.524,9.251,0.077,13.862
		c0.162,1.24,1.043,2.039,2.365,2.136c1.621,0.12,2.781-0.659,2.971-2.229C33.655,54.545,33.644,52.22,33.755,49.911z
		 M33.455,107.12c0.011,0,0.021,0,0.032,0c0-1.619,0.079-3.242-0.021-4.854c-0.111-1.82-0.025-3.944-2.668-4.051
		c-2.615-0.104-2.893,1.899-2.948,3.787c-0.096,3.233-0.091,6.474,0.013,9.708c0.059,1.827,0.096,3.948,2.683,4.073
		c2.646,0.128,2.78-1.935,2.889-3.809C33.529,110.361,33.455,108.738,33.455,107.12z M98.162,20.313
		c0.092,2.11,0.131,4.226,0.293,6.333c0.144,1.864,1,3.127,3.119,2.941c1.778-0.156,2.361-1.454,2.391-2.934
		c0.076-3.989,0.096-7.985-0.033-11.973c-0.048-1.522-0.961-2.609-2.704-2.604c-1.731,0.007-2.56,1.095-2.746,2.607
		C98.252,16.542,98.254,18.43,98.162,20.313z M33.764,20.919c-0.111-1.916-0.165-4.263-0.413-6.589
		c-0.134-1.256-0.957-2.1-2.33-2.192c-1.694-0.113-2.824,0.768-2.883,2.352c-0.158,4.212-0.176,8.436-0.071,12.65
		c0.039,1.534,1.011,2.579,2.753,2.518c1.729-0.06,2.504-1.148,2.651-2.686C33.65,25.106,33.661,23.227,33.764,20.919z
		 M95.152,71.101c0.064-2.108-1.295-2.764-3.07-2.731c-1.717,0.032-3.218,0.584-3.128,2.733c0.071,1.723,1.279,2.292,2.767,2.352
		C93.396,73.521,94.984,73.338,95.152,71.101z M57.088,68.517c-1.713,0.019-3.355,0.186-3.337,2.482
		c0.013,1.79,1.242,2.338,2.768,2.376c1.725,0.041,3.359-0.211,3.376-2.471C59.908,69.077,58.58,68.669,57.088,68.517z
		 M42.729,71.163c-0.104-1.93-1.409-2.567-3.201-2.578c-1.485-0.01-2.779,0.442-2.884,2.158c-0.131,2.165,1.427,2.611,3.148,2.651
		C41.257,73.432,42.513,73.05,42.729,71.163z M73.919,68.494c-1.167,0.197-2.962,0.378-2.896,2.621
		c0.052,1.758,1.508,2.23,2.998,2.255c1.494,0.025,2.866-0.379,2.993-2.203C77.135,69.405,76.068,68.658,73.919,68.494z
		 M42.606,85.085c-0.779-1.351-2.293-1.439-3.907-1.227c-1.569,0.207-2.653,1.08-2.187,2.701c0.485,1.686,2.153,1.342,3.445,1.268
		C41.358,87.746,42.698,87.384,42.606,85.085z M95.01,56.752c0.098-1.706-0.865-2.238-2.127-2.316
		c-1.767-0.111-3.263,0.4-3.72,2.346c-0.242,1.028,0.188,1.991,1.305,1.989C92.276,58.766,94.232,58.773,95.01,56.752z
		 M39.378,59.323c0.933-0.243,2.734,0.02,2.999-1.707c0.373-2.426-1.764-2.194-3.259-2.426c-1.505-0.231-2.897,0.12-2.98,1.919
		C36.051,58.979,37.54,59.215,39.378,59.323z M94.911,41.544c-0.461-1.539-1.909-1.465-3.248-1.368
		c-1.501,0.109-2.801,0.793-2.184,2.553c0.559,1.591,2.164,1.378,3.497,1.217C94.188,43.803,95.118,43.234,94.911,41.544z
		 M59.762,42.183c-0.349-1.753-1.705-1.971-3.113-1.912c-1.401,0.058-2.887,0.319-2.608,2.25c0.205,1.423,1.505,1.55,2.635,1.574
		C58.066,44.125,59.46,43.995,59.762,42.183z M42.676,42.165c-0.338-1.747-1.669-1.959-3.085-1.902
		c-1.136,0.045-2.433,0.177-2.616,1.595c-0.246,1.9,1.246,2.155,2.626,2.228C41.013,44.16,42.348,43.921,42.676,42.165z
		 M95.027,85.502c-0.434-1.485-1.739-1.769-3.163-1.663c-1.396,0.105-2.915,0.358-2.611,2.311c0.225,1.448,1.544,1.524,2.683,1.528
		C93.332,87.679,94.759,87.576,95.027,85.502z M56.527,59.277c1.501-0.003,3.103-0.102,3.143-1.86
		c0.039-1.75-1.566-1.983-2.957-1.963c-1.119,0.018-2.413,0.153-2.653,1.538C53.721,58.949,55.257,59.079,56.527,59.277z
		 M76.782,85.785c-0.32-1.812-1.729-1.872-3.109-1.841c-1.143,0.023-2.449,0.159-2.586,1.605c-0.174,1.84,1.243,2.212,2.67,2.233
		C75.151,87.805,76.526,87.597,76.782,85.785z M57.314,87.791c0.938-0.191,2.298-0.344,2.315-1.782
		c0.03-2.405-1.896-2.14-3.463-2.102c-1.254,0.029-2.331,0.615-2.19,2.026C54.162,87.798,55.728,87.724,57.314,87.791z
		 M71.417,57.578c0.325,1.452,1.474,1.7,2.672,1.688c1.185-0.011,2.563-0.189,2.624-1.687c0.077-1.93-1.472-2.098-2.929-2.061
		C72.481,55.552,71.604,56.193,71.417,57.578z M76.636,42.83c0.416-1.089-0.09-1.859-1.013-2.258
		c-1.149-0.498-2.47-0.438-3.178,0.641c-0.762,1.166-0.305,2.257,1.143,2.629C74.778,44.147,75.902,44.022,76.636,42.83z"/>
</g>
</svg>
