<?xml version="1.0" encoding="utf-8"?>
<!-- Generator: Adobe Illustrator 16.0.0, SVG Export Plug-In . SVG Version: 6.00 Build 0)  -->
<!DOCTYPE svg PUBLIC "-//W3C//DTD SVG 1.1//EN" "http://www.w3.org/Graphics/SVG/1.1/DTD/svg11.dtd">
<svg version="1.1" id="Layer_1402" xmlns="http://www.w3.org/2000/svg" xmlns:xlink="http://www.w3.org/1999/xlink" x="0px" y="0px"
	 width="128px" height="128px" viewBox="0 0 128 128" enable-background="new 0 0 128 128" xml:space="preserve">
<g id="eQtrKq.tif">
	<g>
		<path fill-rule="evenodd" clip-rule="evenodd" d="M63.813,61.174c-0.005-0.299-0.129-0.568-0.218-0.844
			c-0.176-0.543-0.373-1.08-0.557-1.62c-0.04-0.115-0.09-0.224-0.153-0.329c-0.695-1.168-0.909-2.416-0.632-3.752
			c0.084-0.406,0.209-0.797,0.368-1.18c0.126-0.305,0.198-0.316,0.485-0.182c0.347,0.164,0.507,0.495,0.699,0.775
			c0.363,0.53,0.636,1.117,0.692,1.777c0.07,0.824-0.1,1.596-0.524,2.303c-0.129,0.215-0.169,0.402-0.1,0.648
			c0.23,0.818,0.473,1.633,0.756,2.436c0.023,0.066,0.032,0.18,0.105,0.17c0.123-0.016,0.069-0.133,0.062-0.209
			c-0.067-0.642-0.11-1.282-0.028-1.927c0.031-0.253,0.015-0.511-0.032-0.763c-0.227-1.235,0.078-2.357,0.829-3.328
			c0.364-0.472,0.87-0.843,1.507-0.941c0.322-0.049,0.354-0.018,0.388,0.297c0.137,1.306-0.225,2.48-0.935,3.558
			c-0.192,0.292-0.461,0.534-0.758,0.728c-0.217,0.143-0.306,0.315-0.354,0.584c-0.159,0.867-0.041,1.722,0.051,2.576
			c0.035,0.333,0.17,0.657,0.266,0.983c0.059,0.198,0.143,0.153,0.235,0.017c0.148-0.222,0.349-0.405,0.466-0.651
			c0.08-0.167,0.217-0.281,0.41-0.214c0.181,0.062,0.244,0.225,0.242,0.41c-0.001,0.049-0.014,0.096-0.019,0.145
			c-0.003,0.043-0.033,0.101,0.03,0.117c0.02,0.006,0.059-0.033,0.08-0.059c0.175-0.203,0.359-0.396,0.502-0.625
			c0.559-0.9,1.02-1.845,1.4-2.838c0.24-0.629,0.334-1.229,0.299-1.906c-0.053-1,0.131-1.988,0.635-2.879
			c0.246-0.436,0.622-0.783,1.023-1.073c0.33-0.24,0.676-0.477,1.075-0.606c0.415-0.135,0.581-0.013,0.627,0.415
			c0.088,0.8-0.05,1.567-0.261,2.335c-0.288,1.039-0.796,1.946-1.55,2.718c-0.146,0.149-0.296,0.284-0.489,0.37
			c-0.268,0.117-0.463,0.309-0.56,0.59c-0.394,1.154-0.976,2.223-1.52,3.308c-0.032,0.065-0.056,0.134-0.083,0.2l-0.005-0.004
			c0.397-0.155,0.63-0.521,0.972-0.754c0.763-0.521,1.469-1.119,2.162-1.728c0.075-0.065,0.135-0.133,0.158-0.235
			c0.232-0.977,0.678-1.853,1.34-2.6c0.826-0.931,1.83-1.554,3.126-1.554c0.462,0,0.509,0.086,0.511,0.546
			c0.003,0.64-0.264,1.194-0.594,1.698c-0.657,1.003-1.514,1.8-2.654,2.244c-0.146,0.057-0.299,0.106-0.453,0.134
			c-0.574,0.102-1.041,0.404-1.451,0.791c-1.062,1.004-2.261,1.835-3.416,2.722c-0.475,0.364-0.463,0.326,0.023,0.589
			c0.508,0.273,0.963,0.613,1.397,0.984c0.175,0.148,0.357,0.231,0.581,0.273c0.579,0.107,1.112,0.346,1.609,0.656
			c0.365,0.229,0.625,0.555,0.837,0.939c0.314,0.573,0.825,0.951,1.431,1.181c0.273,0.103,0.545,0.208,0.815,0.316
			c0.164,0.066,0.28,0.191,0.392,0.319c0.14,0.16,0.168,0.347-0.004,0.484c-0.263,0.213-0.127,0.584-0.357,0.81
			c-0.06,0.058,0.053,0.146,0.112,0.204c0.288,0.279,0.579,0.557,0.868,0.834c0.07,0.066,0.153,0.125,0.21,0.202
			c0.121,0.169,0.119,0.339-0.036,0.493c-0.163,0.162-0.316,0.103-0.438-0.043c-0.274-0.328-0.614-0.588-0.907-0.895
			c-0.229-0.239-0.698-0.26-0.884,0.02c-0.374,0.564-0.93,0.254-1.067-0.254c-0.223-0.82-0.79-1.408-1.418-1.935
			c-0.59-0.495-1.148-1.011-1.518-1.698c-0.246-0.459-0.623-0.84-0.799-1.343c-0.029-0.083-0.12-0.152-0.195-0.212
			c-0.473-0.365-0.974-0.684-1.525-0.916c-0.234-0.099-0.279-0.07-0.271,0.189c0.025,0.789,0.214,1.537,0.592,2.234
			c0.14,0.258,0.337,0.4,0.642,0.475c0.783,0.193,1.395,0.689,1.887,1.302c0.212,0.264,0.312,0.621,0.555,0.886
			c0.423,0.462,0.857,0.869,1.521,0.989c0.517,0.095,0.683,0.553,0.423,1.009c-0.115,0.199-0.142,0.436-0.303,0.617
			c-0.114,0.129,0.011,0.225,0.107,0.297c0.332,0.25,0.615,0.549,0.898,0.852c0.077,0.082,0.141,0.164,0.16,0.277
			c0.023,0.133-0.003,0.242-0.13,0.31c-0.112,0.06-0.226,0.099-0.339,0.002c-0.072-0.063-0.156-0.114-0.205-0.203
			c-0.107-0.194-0.258-0.354-0.398-0.521c-0.461-0.545-0.812-0.582-1.412-0.152c-0.266,0.189-0.442,0.165-0.666-0.07
			c-0.174-0.182-0.283-0.396-0.351-0.631c-0.191-0.668-0.662-1.119-1.179-1.532c-0.94-0.756-1.549-1.692-1.614-2.929
			c-0.006-0.11-0.011-0.223-0.062-0.32c-0.297-0.564-0.439-1.184-0.657-1.776c-0.021-0.056-0.019-0.138-0.089-0.146
			c-0.098-0.01-0.096,0.088-0.124,0.149c-0.193,0.425-0.285,0.884-0.36,1.334c-0.142,0.858-0.459,1.661-0.695,2.489
			c-0.17,0.596-0.369,1.182-0.489,1.792c-0.044,0.222-0.154,0.433-0.251,0.642c-0.104,0.225-0.1,0.371,0.13,0.55
			c0.709,0.552,1.47,1.032,2.149,1.624c0.799,0.693,1.59,1.398,2.285,2.193c0.63,0.723,1.271,1.438,1.832,2.219
			c0.532,0.738,1.068,1.476,1.61,2.206c0.11,0.147,0.204,0.304,0.281,0.468c0.499,1.053,1.119,2.045,1.612,3.1
			c0.287,0.617,0.574,1.234,0.881,1.842c0.48,0.954,0.958,1.915,1.748,2.668c0.088,0.084,0.174,0.264,0.305,0.193
			c0.09-0.051,0.011-0.226-0.004-0.345c-0.211-1.675-0.502-3.339-0.55-5.034c-0.025-0.898-0.161-1.791-0.203-2.69
			c-0.054-1.155-0.103-2.31-0.067-3.464c0.044-1.447,0.204-2.881,0.462-4.31c0.238-1.317,0.536-2.618,0.901-3.903
			c0.106-0.374,0.235-0.742,0.375-1.105c0.262-0.68,0.427-1.393,0.736-2.057c0.678-1.451,1.178-2.982,1.963-4.385
			c0.255-0.455,0.561-0.882,0.855-1.312c0.495-0.721,1.002-1.435,1.502-2.151c0.403-0.579,0.893-1.087,1.338-1.633
			c0.683-0.836,1.393-1.649,2.1-2.466c0.518-0.596,1.048-1.182,1.576-1.77c0.302-0.334,0.571-0.693,0.818-1.07
			c0.094-0.145,0.209-0.27,0.341-0.377c0.089-0.072,0.192-0.105,0.306-0.049c0.117,0.059,0.127,0.158,0.123,0.276
			c-0.012,0.341-0.064,0.679-0.102,1.015c-0.094,0.829,0.058,1.644,0.079,2.465c0.025,0.971,0.106,1.941,0.079,2.912
			c-0.023,0.863,0.062,1.729,0.002,2.588c-0.086,1.26-0.219,2.516-0.416,3.766c-0.138,0.877-0.324,1.741-0.498,2.609
			c-0.055,0.271-0.162,0.534-0.268,0.792c-0.264,0.642-0.455,1.306-0.659,1.966c-0.24,0.779-0.561,1.529-0.875,2.278
			c-0.114,0.271-0.17,0.558-0.277,0.829c-0.255,0.646-0.612,1.241-0.899,1.871c-0.385,0.838-0.825,1.65-1.17,2.507
			c-0.031,0.078-0.076,0.151-0.121,0.224c-0.675,1.096-1.315,2.212-1.934,3.34c-0.326,0.596-0.74,1.132-1.068,1.725
			c-0.472,0.85-1.008,1.666-1.438,2.534c-0.354,0.714-0.794,1.391-1.028,2.163c-0.092,0.302-0.213,0.594-0.308,0.895
			c-0.021,0.068-0.11,0.178-0.015,0.218c0.062,0.025,0.117-0.109,0.159-0.176c0.238-0.38,0.463-0.77,0.696-1.153
			c0.611-1.008,1.229-2.012,1.837-3.021c0.457-0.76,0.924-1.512,1.402-2.258c0.599-0.932,1.257-1.818,1.925-2.697
			c0.793-1.047,1.586-2.092,2.4-3.121c0.664-0.838,1.393-1.621,2.138-2.39c2.004-2.066,4.149-3.966,6.567-5.532
			c1.376-0.893,2.847-1.617,4.366-2.246c0.616-0.254,1.224-0.537,1.841-0.793c1.38-0.572,2.781-1.092,4.193-1.586
			c0.916-0.32,1.823-0.656,2.663-1.165c0.304-0.184,0.663-0.292,0.991-0.448c0.081-0.039,0.162-0.058,0.238,0.008
			c0.092,0.081,0.063,0.178,0.021,0.268c-0.047,0.099-0.091,0.204-0.159,0.286c-0.511,0.611-0.872,1.319-1.272,1.997
			c-0.58,0.985-1.272,1.894-1.883,2.857c-0.357,0.564-0.658,1.17-1.047,1.706c-0.463,0.642-0.854,1.328-1.309,1.974
			c-0.977,1.383-2.064,2.664-3.274,3.85c-0.728,0.714-1.444,1.439-2.159,2.168c-0.416,0.424-0.859,0.824-1.315,1.205
			c-0.887,0.738-1.701,1.562-2.636,2.244c-0.863,0.63-1.697,1.306-2.596,1.879c-0.919,0.586-1.86,1.144-2.847,1.618
			c-0.403,0.194-0.795,0.415-1.163,0.675c-0.348,0.244-0.751,0.391-1.125,0.59c-1.725,0.919-3.473,1.795-5.191,2.727
			c-0.874,0.473-1.686,1.054-2.486,1.643c-0.027,0.021-0.074,0.059-0.068,0.074c0.021,0.069,0.076,0.027,0.113,0.014
			c0.469-0.168,0.945-0.314,1.401-0.512c1.237-0.537,2.433-1.162,3.631-1.783c1.747-0.906,3.464-1.875,5.233-2.738
			c1.027-0.502,1.979-1.141,3.001-1.651c1.87-0.935,3.759-1.827,5.73-2.537c1.006-0.362,1.996-0.769,3.009-1.112
			c1.357-0.461,2.742-0.836,4.135-1.177c1.584-0.387,3.182-0.672,4.804-0.866c1.575-0.188,3.144-0.292,4.726-0.244
			c0.521,0.016,1.043,0.062,1.561,0.122c1.352,0.153,2.7,0.304,4.037,0.584c1.187,0.248,2.376,0.512,3.585,0.647
			c0.485,0.056,0.94,0.244,1.421,0.326c0.242,0.041,0.484,0.045,0.725,0.07c0.135,0.014,0.286,0.035,0.331,0.183
			c0.049,0.16-0.092,0.253-0.201,0.313c-0.661,0.361-1.267,0.812-1.92,1.186c-0.422,0.242-0.825,0.504-1.206,0.809
			c-0.312,0.25-0.668,0.443-1.004,0.662c-1.268,0.827-2.657,1.408-4.047,1.986c-0.416,0.173-0.809,0.392-1.221,0.573
			c-0.922,0.407-1.824,0.854-2.74,1.274c-0.605,0.277-1.232,0.502-1.869,0.707c-0.994,0.322-2.011,0.561-3.008,0.87
			c-1.476,0.456-2.975,0.812-4.506,1.038c-0.938,0.139-1.867,0.323-2.799,0.494c-0.91,0.166-1.832,0.223-2.75,0.322
			c-0.7,0.074-1.391,0.211-2.092,0.281c-0.799,0.082-1.6,0.112-2.398,0.162c-1.235,0.076-2.469,0.128-3.7,0.27
			c-1.12,0.128-2.254,0.143-3.382,0.191c-1.045,0.044-2.089,0.062-3.129,0.189c-0.648,0.078-1.306,0.088-1.957,0.158
			c-0.919,0.1-1.826,0.264-2.735,0.422c-0.214,0.038-0.437,0.031-0.652,0.059c-0.137,0.018-0.347-0.035-0.385,0.121
			c-0.043,0.18,0.173,0.242,0.301,0.317c0.367,0.215,0.748,0.404,1.142,0.568c1.055,0.439,2.145,0.78,3.231,1.132
			c1.54,0.498,3.132,0.803,4.684,1.258c1.457,0.426,2.92,0.839,4.362,1.312c1.338,0.439,2.648,0.957,3.976,1.43
			c1.272,0.452,2.534,0.948,3.708,1.608c1.396,0.785,2.804,1.554,4.102,2.51c1.193,0.878,2.393,1.749,3.514,2.72
			c0.964,0.836,1.994,1.596,2.9,2.494c1.366,1.355,2.878,2.538,4.359,3.757c0.344,0.282,0.649,0.616,1.041,0.845
			c0.069,0.041,0.125,0.115,0.173,0.185c0.116,0.173,0.066,0.297-0.138,0.348c-0.095,0.024-0.195,0.03-0.288-0.003
			c-0.614-0.209-1.256-0.275-1.892-0.373c-1.179-0.182-2.328-0.489-3.479-0.795c-1.057-0.279-2.121-0.531-3.161-0.863
			c-0.995-0.318-2.028-0.496-3.014-0.842c-0.688-0.243-1.366-0.513-2.06-0.735c-1.089-0.35-2.123-0.835-3.186-1.251
			c-0.43-0.167-0.853-0.361-1.253-0.588c-0.497-0.281-1.026-0.489-1.528-0.756c-0.739-0.394-1.408-0.908-2.138-1.313
			c-1.072-0.597-2.085-1.286-3.108-1.955c-0.728-0.477-1.444-0.979-2.141-1.507c-0.579-0.438-1.137-0.905-1.73-1.324
			c-0.336-0.235-0.623-0.541-0.928-0.818c-0.574-0.521-1.13-1.064-1.748-1.534c-0.357-0.272-0.688-0.575-1.034-0.86
			c-0.375-0.309-0.755-0.607-1.147-0.893c-0.039-0.027-0.084-0.051-0.119-0.084c-0.891-0.846-1.908-1.533-2.877-2.283
			c-0.191-0.146-0.409-0.26-0.604-0.408c-0.077-0.058-0.188-0.165-0.286-0.071c-0.079,0.077,0.009,0.183,0.05,0.267
			c0.258,0.523,0.527,1.039,0.777,1.567c0.586,1.241,1.152,2.493,1.746,3.73c0.463,0.966,0.895,1.944,1.262,2.948
			c0.373,1.016,0.78,2.016,1.127,3.041c0.386,1.141,0.704,2.301,1.016,3.461c0.258,0.96,0.465,1.938,0.549,2.934
			c0.025,0.303,0.12,0.593,0.158,0.896c0.081,0.63,0.038,1.263,0.084,1.89c0.055,0.744-0.031,1.481-0.042,2.221
			c-0.016,1.068-0.124,2.133-0.383,3.178c-0.19,0.766-0.304,1.55-0.497,2.314c-0.295,1.166-0.35,2.354-0.369,3.546
			c-0.004,0.265,0.06,0.53-0.027,0.796c-0.035,0.107-0.06,0.219-0.199,0.221c-0.131,0.002-0.186-0.096-0.226-0.203
			c-0.013-0.035-0.028-0.068-0.035-0.104c-0.234-1.229-0.812-2.33-1.267-3.479c-0.308-0.78-0.592-1.573-0.974-2.318
			c-0.343-0.671-0.693-1.335-0.972-2.036c-0.246-0.62-0.48-1.244-0.691-1.878c-0.279-0.841-0.578-1.675-0.828-2.527
			c-0.197-0.667-0.301-1.353-0.445-2.028c-0.164-0.771-0.323-1.544-0.417-2.33c-0.214-1.8-0.415-3.6-0.33-5.416
			c0.026-0.557,0.088-1.117,0.089-1.672c0.002-0.68,0.043-1.359,0.036-2.039c-0.009-0.85,0.021-1.699,0.044-2.548
			c0.017-0.618-0.031-1.239-0.068-1.856c-0.045-0.764-0.184-1.517-0.273-2.275c-0.031-0.259-0.135-0.39-0.372-0.546
			c-0.451-0.298-0.829-0.175-1.272-0.042c-0.85,0.252-1.678,0.568-2.536,0.797c-0.702,0.188-1.396,0.422-2.091,0.639
			c-0.42,0.129-0.852,0.201-1.276,0.301c-0.606,0.144-1.17,0.402-1.765,0.57c-0.758,0.214-1.522,0.405-2.282,0.613
			c-0.901,0.248-1.798,0.512-2.701,0.752c-0.751,0.2-1.499,0.452-2.265,0.551c-1.385,0.18-2.765,0.4-4.125,0.695
			c-1.106,0.24-2.225,0.369-3.339,0.523c-0.522,0.072-1.058,0.109-1.586,0.167c-0.809,0.089-1.614,0.206-2.416,0.343
			c-0.673,0.113-1.354,0.107-2.027,0.205c-0.518,0.074-1.04,0.135-1.56,0.128c-0.681-0.009-1.312,0.186-1.958,0.346
			c-0.439,0.108-0.894,0.112-1.343,0.101c-0.241-0.006-0.425,0.072-0.595,0.215c-0.91,0.764-1.864,1.475-2.736,2.283
			c-0.239,0.221-0.477,0.449-0.684,0.699c-0.367,0.442-0.827,0.786-1.218,1.202c-0.325,0.344-0.683,0.655-1.003,1.002
			c-0.811,0.877-1.783,1.571-2.646,2.387c-0.635,0.601-1.365,1.079-2.012,1.667c-1.066,0.971-2.097,1.977-3.162,2.948
			c-0.573,0.522-1.122,1.071-1.679,1.609c-0.19,0.184-0.426,0.187-0.65,0.136c-0.81-0.185-1.447-0.621-1.843-1.363
			c-0.235-0.439-0.148-0.88,0.226-1.307c0.378-0.429,0.818-0.793,1.25-1.164c0.534-0.459,1.056-0.932,1.567-1.416
			c0.37-0.35,0.767-0.674,1.176-0.976c0.559-0.413,1.085-0.859,1.598-1.325c0.889-0.812,1.895-1.479,2.796-2.275
			c0.518-0.457,1.08-0.858,1.56-1.364c0.534-0.563,1.111-1.085,1.686-1.606c0.396-0.359,0.759-0.754,1.157-1.109
			c1.195-1.069,2.326-2.204,3.492-3.305c1.051-0.992,2.065-2.021,3.032-3.096c0.117-0.13,0.335-0.287,0.256-0.439
			c-0.073-0.141-0.31,0.005-0.474,0.008c-0.622,0.011-1.087,0.383-1.587,0.674c-0.157,0.092-0.315,0.182-0.469,0.278
			c-0.415,0.265-0.646,0.673-0.88,1.089c-0.405,0.727-0.911,1.394-1.589,1.874c-0.787,0.558-1.66,0.947-2.667,0.907
			c-0.385-0.014-0.502-0.146-0.348-0.5c0.723-1.66,1.801-2.942,3.668-3.346c0.483-0.104,0.857-0.406,1.25-0.658
			c0.54-0.346,1.114-0.583,1.726-0.748c0.094-0.025,0.188-0.051,0.279-0.082c0.032-0.01,0.059-0.033,0.088-0.051
			c-0.035-0.01-0.069-0.024-0.105-0.027c-0.23-0.021-0.46-0.055-0.69-0.059c-0.679-0.01-1.357-0.062-2.037-0.066
			c-0.568-0.004-1.111,0.065-1.649,0.235c-0.943,0.298-1.901,0.31-2.881,0.208c-0.897-0.093-1.7-0.367-2.41-0.918
			c-0.159-0.124-0.17-0.259-0.035-0.402c0.177-0.188,0.397-0.334,0.619-0.441c0.583-0.283,1.195-0.462,1.856-0.482
			c1.172-0.035,2.267,0.215,3.29,0.785c0.097,0.054,0.194,0.101,0.308,0.104c0.485,0.012,0.971,0.041,1.456,0.029
			c0.684-0.015,1.356,0.101,2.033,0.16c0.302,0.025,0.601,0.08,0.902,0.116c0.069,0.009,0.159,0.024,0.201-0.046
			c0.043-0.072-0.019-0.141-0.062-0.195c-0.302-0.38-0.59-0.776-0.962-1.093c-0.407-0.347-0.836-0.668-1.252-1.003
			c-0.334-0.268-0.702-0.365-1.138-0.376c-0.933-0.024-1.819-0.271-2.614-0.781c-0.397-0.255-0.814-0.489-1.126-0.856
			c-0.321-0.379-0.674-0.736-0.862-1.209c-0.134-0.335-0.088-0.379,0.255-0.458c1.33-0.306,2.391,0.29,3.407,1.011
			c0.496,0.352,0.937,0.773,1.304,1.264c0.074,0.1,0.158,0.178,0.279,0.225c0.944,0.361,1.769,0.91,2.505,1.598
			c0.043,0.039,0.088,0.117,0.144,0.079c0.063-0.043-0.011-0.105-0.029-0.157c-0.322-0.908-0.865-1.709-1.247-2.588
			c-0.051-0.118-0.144-0.192-0.241-0.268c-0.97-0.746-1.753-1.645-2.208-2.795c-0.271-0.687-0.399-1.4-0.282-2.143
			c0.019-0.119,0.049-0.239,0.094-0.352c0.13-0.328,0.31-0.387,0.627-0.227c0.258,0.13,0.429,0.357,0.623,0.555
			c0.874,0.895,1.522,1.921,1.802,3.156c0.067,0.297,0.118,0.598,0.076,0.902c-0.052,0.378,0.024,0.718,0.219,1.045
			c0.385,0.646,0.76,1.301,1.079,1.985c0.015,0.03,0.04,0.077,0.063,0.079c0.075,0.006,0.056-0.061,0.059-0.104
			c0.042-0.515-0.088-1.015-0.116-1.524c-0.022-0.4-0.095-0.799-0.082-1.199c0.012-0.377-0.127-0.716-0.227-1.064
			c-0.222-0.78-0.31-1.572-0.215-2.379c0.051-0.428,0.211-0.82,0.447-1.181c0.173-0.263,0.319-0.545,0.53-0.783
			c0.229-0.26,0.484-0.247,0.633,0.061c0.523,1.078,0.771,2.207,0.49,3.396c-0.138,0.579-0.36,1.136-0.802,1.569
			c-0.085,0.083-0.115,0.177-0.102,0.296c0.061,0.543,0.117,1.088,0.177,1.632c0.006,0.054-0.013,0.146,0.049,0.148
			c0.055,0.001,0.056-0.094,0.072-0.151c0.197-0.697,0.446-1.381,0.502-2.119c0.049-0.654,0.399-1.211,0.725-1.767
			c0.129-0.22,0.248-0.45,0.407-0.646c0.395-0.481,0.948-0.753,1.496-1.008c0.315-0.146,0.504-0.013,0.593,0.327
			c0.157,0.598,0.094,1.178-0.125,1.751c-0.289,0.755-0.799,1.361-1.328,1.946c-0.25,0.275-0.61,0.439-0.964,0.572
			c-0.164,0.062-0.261,0.162-0.319,0.322c-0.448,1.223-0.571,2.48-0.394,3.769c0.021,0.147,0.008,0.369,0.165,0.417
			c0.161,0.051,0.264-0.146,0.361-0.26c0.335-0.387,0.739-0.702,1.095-1.067c0.397-0.409,0.752-0.855,1.158-1.259
			c0.276-0.273,0.597-0.49,0.865-0.775c0.481-0.512,0.994-0.997,1.504-1.481c0.164-0.156,0.186-0.298,0.129-0.516
			c-0.131-0.498-0.154-1.001,0.012-1.509c0.175-0.535,0.205-1.078,0.124-1.648c-0.119-0.828-0.219-1.662-0.226-2.504
			c-0.003-0.387-0.127-0.764-0.182-1.148c-0.108-0.756-0.254-1.51-0.421-2.253c-0.445-1.979-0.972-3.94-1.645-5.855
			c-0.568-1.616-1.144-3.229-1.735-4.837c-0.688-1.87-1.392-3.733-2.119-5.588c-0.523-1.334-1.1-2.647-1.657-3.969
			c-0.377-0.895-0.763-1.787-1.145-2.682c-0.014-0.033-0.027-0.068-0.045-0.099c-0.043-0.069-0.043-0.193-0.138-0.195
			c-0.1-0.001-0.108,0.118-0.134,0.195c-0.44,1.3-0.871,2.604-1.277,3.916c-0.55,1.78-1.222,3.518-2.195,5.112
			c-0.982,1.61-2.115,3.104-3.468,4.439c-0.905,0.894-1.896,1.662-2.887,2.441c-0.39,0.307-0.732,0.676-1.13,0.977
			c-0.842,0.638-1.688,1.271-2.533,1.906c-0.515,0.386-0.998,0.812-1.49,1.225c-1.097,0.918-2.226,1.811-3.031,3.022
			c-0.048,0.072-0.109,0.131-0.183,0.175c-0.089,0.052-0.188,0.085-0.272,0.011c-0.095-0.085-0.086-0.194-0.019-0.297
			c0.286-0.435,0.327-0.944,0.334-1.431c0.012-0.881,0.205-1.736,0.282-2.606c0.044-0.499,0.226-0.97,0.371-1.445
			c0.277-0.916,0.537-1.84,0.923-2.716c0.352-0.799,0.782-1.565,1.143-2.361c0.419-0.926,1.024-1.736,1.558-2.59
			c0.21-0.335,0.473-0.648,0.797-0.895c0.372-0.282,0.626-0.675,0.959-0.996c0.576-0.557,1.18-1.086,1.725-1.677
			c0.362-0.394,0.821-0.684,1.246-1.008c0.232-0.179,0.455-0.365,0.659-0.572c0.112-0.114,0.232-0.212,0.366-0.298
			c0.785-0.504,1.567-1.008,2.339-1.533c1.047-0.713,2.05-1.475,3.004-2.301c0.414-0.359,0.896-0.626,1.28-1.019
			c0.042-0.044,0.1-0.071,0.14-0.116c0.086-0.096,0.265-0.198,0.206-0.309c-0.055-0.104-0.215,0.029-0.327,0.057
			c-1.472,0.376-2.95,0.725-4.442,1.012c-0.619,0.119-1.23,0.283-1.843,0.435c-1.503,0.37-3.026,0.587-4.576,0.616
			c-0.935,0.018-1.87,0.078-2.805,0.066c-1.275-0.018-2.543-0.134-3.811-0.305c-1.375-0.184-2.734-0.446-4.091-0.713
			c-1.332-0.264-2.666-0.552-3.906-1.145c-0.195-0.093-0.418-0.125-0.625-0.195c-1.327-0.449-2.574-1.082-3.788-1.762
			c-1.536-0.859-2.988-1.861-4.459-2.828c-1.213-0.799-2.302-1.744-3.444-2.628c-0.583-0.451-1.147-0.947-1.891-1.14
			c-0.082-0.021-0.164-0.052-0.236-0.095c-0.173-0.105-0.163-0.269,0.023-0.36c0.063-0.031,0.139-0.049,0.209-0.055
			c0.86-0.053,1.713-0.222,2.58-0.164c0.123,0.008,0.24-0.014,0.36-0.037c0.311-0.061,0.623-0.094,0.941-0.075
			c0.715,0.042,1.429,0.04,2.146-0.009c0.409-0.027,0.823,0.027,1.236,0.038c0.947,0.024,1.894,0.052,2.84,0.134
			c0.615,0.054,1.236,0.04,1.854,0.095c1.813,0.162,3.631,0.243,5.427,0.593c0.963,0.186,1.941,0.319,2.905,0.508
			c0.868,0.169,1.74,0.338,2.592,0.572c1.53,0.423,3.068,0.82,4.57,1.349c0.896,0.315,1.768,0.679,2.638,1.052
			c0.126,0.054,0.251,0.089,0.386,0.1c0.935,0.56,1.942,0.973,2.92,1.443c0.629,0.303,1.255,0.614,1.918,0.861
			c0.829,0.309,1.647,0.645,2.501,0.875c0.644,0.174,1.292,0.344,1.963,0.377c0.044,0.003,0.089-0.016,0.134-0.023
			c-0.014-0.057-0.065-0.063-0.108-0.083c-0.32-0.146-0.67-0.197-0.998-0.335c-1.657-0.695-3.401-1.149-5.076-1.799
			c-0.892-0.347-1.792-0.668-2.638-1.124c-0.186-0.101-0.39-0.203-0.62-0.188c-0.728-0.466-1.524-0.803-2.28-1.216
			c-1.976-1.08-3.875-2.267-5.615-3.711c-1.141-0.947-2.26-1.916-3.327-2.944c-0.279-0.269-0.494-0.602-0.771-0.874
			c-0.801-0.787-1.414-1.722-2.097-2.604c-0.693-0.896-1.203-1.906-1.838-2.837c-0.298-0.437-0.47-0.958-0.725-1.428
			c-0.494-0.91-0.787-1.904-1.224-2.837c-0.046-0.099-0.068-0.214-0.129-0.301c-0.492-0.703-0.766-1.518-1.119-2.284
			c-0.381-0.827-0.767-1.648-1.175-2.461c-0.15-0.298-0.391-0.523-0.579-0.79c-0.027-0.039-0.074-0.065-0.102-0.104
			c-0.083-0.115-0.225-0.23-0.105-0.384c0.108-0.137,0.26-0.088,0.401-0.029c1.61,0.682,3.197,1.416,4.78,2.158
			c1.011,0.474,2.038,0.917,3.04,1.408c1.047,0.514,2.058,1.095,3.017,1.762c0.688,0.479,1.403,0.916,2.061,1.44
			c0.742,0.589,1.549,1.098,2.237,1.753c1.167,1.112,2.372,2.185,3.389,3.449c0.278,0.346,0.613,0.654,0.931,0.97
			c0.742,0.736,1.394,1.556,2.128,2.298c0.101,0.102,0.164,0.24,0.244,0.361c0.168,0.254,0.348,0.498,0.617,0.657
			c0.028,0.131,0.114,0.219,0.22,0.29c0.023,0.05,0.046,0.1,0.069,0.148c0.025,0.025,0.051,0.051,0.076,0.076
			c0.023,0.048,0.047,0.096,0.07,0.144c0.025,0.024,0.051,0.05,0.076,0.075c0.008,0.055,0.027,0.105,0.071,0.145
			c0.025,0.023,0.05,0.049,0.076,0.074c0.008,0.055,0.025,0.106,0.07,0.145c0.024,0.023,0.049,0.048,0.074,0.072l-0.004,0.004
			c-0.024-0.024-0.049-0.049-0.073-0.072c-0.023-0.049-0.047-0.097-0.07-0.145c-0.025-0.025-0.051-0.05-0.076-0.075
			c-0.023-0.048-0.047-0.097-0.07-0.144c-0.025-0.025-0.051-0.051-0.077-0.075c-0.023-0.048-0.046-0.096-0.069-0.144
			c-0.026-0.025-0.051-0.051-0.077-0.076c-0.023-0.049-0.046-0.098-0.069-0.147c-0.043-0.12-0.105-0.226-0.221-0.29
			c-0.17-0.418-0.447-0.775-0.681-1.156c-0.509-0.829-1.084-1.614-1.565-2.461c-0.803-1.416-1.606-2.832-2.304-4.304
			c-0.427-0.9-0.825-1.814-1.254-2.713c-0.593-1.241-1.087-2.521-1.533-3.822c-0.289-0.839-0.496-1.702-0.73-2.558
			c-0.328-1.198-0.552-2.409-0.716-3.642c-0.211-1.58-0.28-3.167-0.363-4.753c-0.052-1.004-0.022-2.014,0.104-3.02
			c0.147-1.181,0.195-2.374,0.351-3.553c0.147-1.116,0.09-2.23,0.107-3.345c0.001-0.084-0.023-0.167-0.031-0.251
			c-0.013-0.136-0.028-0.285,0.151-0.32c0.155-0.032,0.263,0.062,0.304,0.202c0.085,0.289,0.276,0.505,0.454,0.738
			c0.878,1.146,1.752,2.296,2.612,3.457c0.499,0.672,0.972,1.363,1.448,2.051c0.333,0.479,0.761,0.885,1.087,1.365
			c0.675,0.992,1.392,1.954,2.018,2.983c0.625,1.029,1.207,2.078,1.786,3.131c0.207,0.376,0.285,0.798,0.484,1.173
			c0.545,1.03,0.938,2.129,1.423,3.188c0.285,0.622,0.529,1.271,0.693,1.949c0.265,1.097,0.629,2.17,0.882,3.269
			c0.289,1.254,0.612,2.499,0.892,3.753c0.099,0.445,0.079,0.918,0.181,1.37c0.169,0.745,0.345,1.488,0.496,2.236
			c0.103,0.511,0.177,1.028,0.253,1.543c0.104,0.708,0.227,1.411,0.398,2.105c0.078,0.318,0.14,0.644,0.187,0.965
			c0.155,1.046,0.375,2.079,0.576,3.115c0.157,0.807,0.319,1.615,0.49,2.42c0.168,0.793,0.35,1.588,0.446,2.396
			c0.059,0.492,0.181,0.979,0.229,1.473c0.043,0.451,0.183,0.877,0.271,1.315c0.034,0.167,0.064,0.335,0.139,0.489
			c0.049,0.102,0.023,0.294,0.167,0.28c0.111-0.011,0.12-0.195,0.156-0.308c0.277-0.872,0.373-1.78,0.526-2.677
			c0.258-1.511,0.334-3.042,0.51-4.562c0.233-2.029,0.363-4.069,0.734-6.081c0.168-0.908,0.397-1.804,0.583-2.708
			c0.273-1.324,0.711-2.602,1.053-3.906c0.04-0.151,0.117-0.294,0.18-0.438c0.204-0.469,0.386-0.944,0.493-1.446
			c0.123-0.577,0.44-1.079,0.643-1.625c0.346-0.929,0.839-1.784,1.364-2.611c0.473-0.747,0.953-1.494,1.442-2.232
			c0.59-0.892,1.245-1.736,1.851-2.615c0.798-1.161,1.505-2.383,2.355-3.508c0.368-0.487,0.616-1.047,0.914-1.575
			c0.352-0.625,0.748-1.222,1.125-1.831c0.285-0.461,0.477-0.982,0.688-1.486c0.075-0.178,0.18-0.312,0.323-0.428
			c0.067-0.055,0.133-0.117,0.227-0.076c0.103,0.044,0.139,0.137,0.131,0.239c-0.027,0.387-0.041,0.776-0.094,1.16
			c-0.143,1.021-0.317,2.039-0.453,3.062c-0.107,0.804-0.163,1.616-0.265,2.421c-0.062,0.497-0.036,0.997-0.107,1.491
			c-0.176,1.216-0.185,2.445-0.288,3.667c-0.1,1.186-0.174,2.377-0.394,3.544c-0.189,1.002-0.395,2.002-0.596,3.003
			c-0.31,1.538-0.769,3.029-1.336,4.495c-0.369,0.953-0.805,1.874-1.197,2.814c-0.146,0.35-0.337,0.674-0.525,0.999
			c-0.461,0.797-0.906,1.604-1.416,2.375c-0.339,0.516-0.719,1.006-1.022,1.548c-0.326,0.583-0.764,1.094-1.149,1.638
			c-0.361,0.512-0.687,1.05-1.02,1.581c-0.262,0.417-0.545,0.832-0.856,1.219c-0.533,0.663-0.982,1.384-1.465,2.081
			c-0.429,0.618-0.818,1.262-1.25,1.879c-0.238,0.339-0.399,0.721-0.576,1.093c-0.02,0.042-0.058,0.095-0.003,0.13
			c0.046,0.029,0.093-0.013,0.129-0.041c0.18-0.145,0.371-0.279,0.535-0.439c1.112-1.094,2.324-2.066,3.568-3.003
			c1.448-1.089,2.966-2.071,4.555-2.94c0.938-0.514,1.913-0.953,2.916-1.328c0.705-0.264,1.394-0.587,2.117-0.782
			c1.3-0.352,2.594-0.735,3.921-0.981c0.835-0.156,1.663-0.369,2.503-0.488c0.779-0.111,1.569-0.16,2.355-0.225
			c0.492-0.041,0.97,0.027,1.454,0.031c0.667,0.008,1.335,0.012,2.003,0.031c0.982,0.027,1.967,0.045,2.949,0.107
			c0.72,0.047,1.43-0.046,2.144-0.073c0.19-0.007,0.437-0.097,0.507,0.138c0.061,0.209-0.18,0.289-0.334,0.371
			c-1.055,0.553-2.09,1.145-3.095,1.778c-0.747,0.472-1.491,0.954-2.243,1.418c-1.082,0.67-2.164,1.345-3.291,1.943
			c-0.879,0.468-1.761,0.931-2.674,1.321c-0.757,0.324-1.541,0.588-2.304,0.9c-0.34,0.139-0.711,0.184-1.039,0.328
			c-0.784,0.348-1.633,0.43-2.439,0.67c-1.071,0.318-2.17,0.499-3.25,0.77c-0.794,0.198-1.603,0.193-2.404,0.285
			c-0.639,0.072-1.278,0.137-1.917,0.203c-0.736,0.074-1.471,0.188-2.208,0.209c-0.64,0.02-1.256,0.148-1.872,0.274
			c-0.568,0.116-1.147,0.183-1.708,0.36c-0.578,0.183-1.005,0.516-1.341,1c-0.078,0.113-0.086,0.205-0.029,0.334
			c0.468,1.055,0.877,2.133,1.319,3.197c0.44,1.062,0.874,2.131,1.366,3.174c0.314,0.666,0.552,1.373,0.826,2.061
			c0.444,1.117,0.916,2.225,1.305,3.361c0.236,0.688,0.547,1.348,0.736,2.055c0.125,0.467,0.346,0.903,0.498,1.367
			c0.468,1.428,0.946,2.855,1.481,4.26c0.364,0.955,0.608,1.945,0.922,2.914c0.185,0.57,0.296,1.168,0.375,1.771
			c0.071,0.539,0.23,1.065,0.359,1.595c0.229,0.944,0.294,1.919,0.502,2.866c0.15,0.687,0.318,1.369,0.483,2.051
			c0.017,0.07,0.059,0.135,0.093,0.198c0.141,0.257,0.154,0.261,0.359,0.065c0.255-0.242,0.519-0.477,0.75-0.739
			c0.546-0.618,1.12-1.215,1.548-1.928c0.16-0.266,0.236-0.556,0.286-0.858c0.092-0.555,0.711-0.793,1.158-0.441
			c0.141,0.111,0.225,0.076,0.35-0.004c0.621-0.407,1.133-0.912,1.489-1.568c0.145-0.268,0.298-0.531,0.459-0.788
			c0.104-0.165,0.096-0.312,0.003-0.477c-0.56-0.995-1.062-2.027-1.685-2.979c-0.563-0.861-1.146-1.719-1.818-2.505
			c-0.118-0.139-0.222-0.29-0.342-0.427c-0.166-0.188-0.281-0.489-0.634-0.301c-0.041,0.022-0.131,0-0.172-0.034
			c-0.299-0.247-0.739-0.346-0.837-0.805c-0.041-0.188-0.157-0.208-0.331-0.138c-0.314,0.128-0.638,0.234-0.96,0.345
			c-0.174,0.06-0.343,0.124-0.477,0.257c-0.07,0.07-0.151,0.117-0.25,0.141c-0.309,0.076-0.499,0.004-0.531-0.208
			c-0.042-0.272,0.145-0.538,0.426-0.518c0.369,0.028,0.691-0.116,1.032-0.191c0.216-0.048,0.403-0.167,0.604-0.255
			c0.135-0.06,0.172-0.154,0.142-0.294c-0.094-0.433,0.055-0.839,0.174-1.238c0.075-0.252,0.333-0.384,0.586-0.339
			c1.027,0.178,1.909-0.236,2.794-0.646c0.548-0.253,1.127-0.388,1.721-0.433c0.423-0.031,0.844-0.1,1.271-0.086
			c0.213,0.008,0.391-0.121,0.556-0.25c0.912-0.707,1.961-1.109,3.07-1.375c0.305-0.072,0.327-0.094,0.118-0.331
			c-0.706-0.805-1.326-1.677-2.009-2.499c-0.078-0.094-0.166-0.182-0.228-0.285c-0.17-0.283-0.405-0.436-0.729-0.545
			c-0.601-0.201-1.165-0.54-1.624-0.953c-0.522-0.472-0.997-1.031-1.248-1.726c-0.115-0.319-0.304-0.608-0.385-0.944
			c-0.029-0.122-0.042-0.23-0.006-0.354c0.078-0.268,0.152-0.341,0.41-0.255c1.651,0.541,2.986,1.453,3.623,3.16
			c0.004,0.012,0.012,0.023,0.013,0.035c0.033,0.843,0.65,1.309,1.184,1.828L63.813,61.174z M59.07,95.043
			c-0.362,0.017-0.738,0.104-1.084,0.039c-0.78-0.146-1.547-0.331-2.271-0.708c-0.633-0.329-1.136-0.774-1.463-1.367
			c-0.221-0.401-0.544-0.595-0.908-0.704c-1.035-0.31-2.085-0.582-3.184-0.451c-0.405,0.049-0.81,0.101-1.162,0.357
			c-0.326,0.238-0.597,0.529-0.881,0.81c-0.604,0.594-1.25,1.146-1.814,1.78c-0.306,0.344-0.624,0.678-0.911,1.037
			c-0.247,0.309-0.197,0.424,0.187,0.438c0.543,0.019,1.088,0.084,1.633-0.027c0.234-0.047,0.487-0.061,0.724-0.028
			c0.792,0.104,1.571-0.001,2.349-0.108c0.719-0.1,1.429-0.263,2.158-0.287c0.568-0.02,1.138,0.01,1.704-0.062
			c0.626-0.08,1.253-0.193,1.881-0.201c0.667-0.009,1.294-0.199,1.938-0.307c0.366-0.062,0.743-0.104,1.102-0.214
			c0.101-0.022,0.201-0.046,0.301-0.067c1.213-0.176,2.406-0.467,3.619-0.653c0.453-0.069,0.894-0.212,1.356-0.255
			c0.94-0.088,1.805-0.472,2.704-0.723c0.468-0.131,0.928-0.283,1.403-0.389c0.853-0.189,1.707-0.387,2.543-0.639
			c1.07-0.324,2.136-0.655,3.233-0.883c0.605-0.125,1.191-0.336,1.774-0.545c0.077-0.027,0.194-0.047,0.208-0.129
			c0.018-0.112-0.109-0.152-0.188-0.195c-0.564-0.309-1.125-0.629-1.718-0.882c-1.838-0.78-3.604-1.691-5.286-2.771
			c-1.157-0.744-2.288-1.518-3.293-2.463c-0.549-0.517-1.039-1.088-1.536-1.653c-0.597-0.677-1.104-1.415-1.614-2.153
			c-0.373-0.54-0.693-1.111-1.019-1.68c-0.171-0.299-0.245-0.299-0.464-0.03c-0.13,0.16-0.251,0.327-0.379,0.489
			c-0.309,0.392-0.69,0.721-0.999,1.107c-0.539,0.673-1.114,1.313-1.641,1.996c-0.563,0.729-1.214,1.385-1.792,2.104
			c-0.348,0.434-0.716,0.858-1.15,1.211c-0.946,0.77-1.792,1.635-2.577,2.564c-0.037,0.044-0.094,0.092-0.05,0.154
			c0.032,0.047,0.092,0.027,0.136,0.012c0.541-0.193,1.206-0.139,1.529-0.768c0.016-0.031,0.048-0.056,0.077-0.077
			c1.057-0.761,2.205-1.218,3.538-1.073c0.411,0.045,0.823,0.076,1.235,0.104c0.133,0.01,0.288-0.031,0.346,0.127
			c0.058,0.156-0.044,0.277-0.157,0.377c-0.292,0.256-0.581,0.515-0.878,0.764c-0.503,0.423-1.011,0.822-1.672,1
			c-0.855,0.228-1.706,0.211-2.566,0.084c-0.23-0.034-0.449-0.045-0.682,0.026c-0.584,0.181-1.101,0.504-1.659,0.739
			c-0.042,0.018-0.11,0.029-0.084,0.092c0.02,0.047,0.083,0.031,0.13,0.031c0.073-0.002,0.146-0.002,0.219-0.008
			c0.917-0.079,1.82,0.023,2.718,0.198c0.241,0.047,0.48,0.081,0.721,0.008c0.292-0.089,0.596-0.108,0.896-0.159
			c0.782-0.131,1.535-0.018,2.234,0.33c0.737,0.367,1.185,1.021,1.536,1.742c0.123,0.254,0.053,0.359-0.236,0.419
			c-0.439,0.091-0.877,0.19-1.318,0.276c-0.187,0.037-0.25,0.123-0.104,0.261c0.418,0.396,0.608,0.929,0.889,1.408
			c0.106,0.181,0.128,0.331,0.024,0.506C59.269,94.99,59.162,94.984,59.07,95.043z M64.78,64.7
			c-0.174,0.015-0.429,0.034-0.667,0.135c-0.773,0.327-1.516,0.709-2.194,1.21c-0.118,0.088-0.209,0.193-0.301,0.309
			c-0.482,0.604-0.846,1.307-1.474,1.787c-0.515,0.395-1.064,0.702-1.728,0.802c-0.538,0.081-1.069,0.226-1.542,0.517
			c-0.12,0.074-0.321,0.132-0.293,0.289c0.034,0.191,0.256,0.198,0.418,0.227c0.286,0.051,0.583,0.055,0.863,0.125
			c0.789,0.197,1.586,0.366,2.334,0.699c0.198,0.088,0.281,0.081,0.321-0.182c0.214-1.389,0.954-2.454,2.126-3.199
			c0.315-0.2,0.586-0.412,0.807-0.704c0.052-0.067,0.113-0.127,0.169-0.19c0.477-0.534,0.943-1.077,1.45-1.584
			c0.043-0.043,0.102-0.086,0.082-0.151c-0.026-0.085-0.109-0.083-0.183-0.087C64.934,64.698,64.897,64.7,64.78,64.7z"/>
	</g>
</g>
</svg>
