<?xml version="1.0" encoding="utf-8"?>
<!-- Generator: Adobe Illustrator 16.0.0, SVG Export Plug-In . SVG Version: 6.00 Build 0)  -->
<!DOCTYPE svg PUBLIC "-//W3C//DTD SVG 1.1//EN" "http://www.w3.org/Graphics/SVG/1.1/DTD/svg11.dtd">
<svg version="1.1" id="Layer_1403" xmlns="http://www.w3.org/2000/svg" xmlns:xlink="http://www.w3.org/1999/xlink" x="0px" y="0px"
	 width="128px" height="128px" viewBox="0 0 128 128" enable-background="new 0 0 128 128" xml:space="preserve">
<g id="u3RGgW.tif">
	<g>
		<path fill-rule="evenodd" clip-rule="evenodd" d="M110.673,3.834c-0.103,0.53-0.385,0.964-0.694,1.399
			c-1.318,1.851-2.512,3.781-3.679,5.732c-0.882,1.472-1.929,2.844-2.883,4.273c-1.57,2.353-3.096,4.736-4.695,7.068
			c-1.868,2.724-3.71,5.47-5.497,8.243c-1.299,2.018-2.822,3.893-3.958,6.008c-1.28,2.384-3.174,4.344-4.487,6.705
			c-1.275,2.293-3.002,4.282-4.482,6.439c-0.239,0.349-0.502,0.686-0.705,1.055c-0.561,1.026-1.316,1.913-1.984,2.863
			c-1.778,2.53-3.517,5.089-5.343,7.584c-1.745,2.385-3.31,4.884-4.925,7.354c-0.777,1.188-1.656,2.315-2.436,3.51
			c-0.07,0.108-0.239,0.206-0.19,0.326c0.382,0.945,0.146,1.938,0.248,2.902c0.013,0.128,0.036,0.291,0.12,0.368
			c0.397,0.37,0.455,0.741,0.1,1.173c-0.105,0.127-0.098,0.264,0.026,0.422c0.319,0.403,0.069,0.658-0.261,0.907
			c-1.053,0.798-2.102,1.597-3.077,2.494c-1.177,1.083-2.156,2.321-3.065,3.624c-0.198,0.283-0.4,0.57-0.298,0.947
			c0.064,0.237-0.022,0.417-0.207,0.555c-0.247,0.186-0.314,0.479-0.47,0.718c-0.227,0.346-0.138,0.572,0.143,0.802
			c0.355,0.289,0.375,0.598,0.063,0.945c-0.364,0.405-0.45,0.949-0.677,1.424c-0.131,0.273-0.226,0.516-0.617,0.632
			c-0.399,0.118-0.653,0.561-0.88,0.951c-0.59,1.018-1.115,2.079-1.917,2.96c-0.071,0.078-0.121,0.191-0.208,0.236
			c-1.347,0.711-1.777,2.127-2.406,3.324c-0.966,1.843-1.907,3.717-2.598,5.689c-0.874,2.492-1.682,5.007-2.327,7.57
			c-0.09,0.357-0.141,0.717-0.43,0.999c-0.26,0.253-0.25,0.633-0.33,0.961c-0.223,0.925-0.461,1.843-0.748,2.751
			c-0.55,1.739-0.964,3.516-1.283,5.31c-0.185,1.043-0.106,2.115-0.057,3.169c0.039,0.834-0.502,1.224-1.008,1.679
			c-0.037,0.032-0.108,0.069-0.144,0.054c-0.686-0.283-0.852,0.288-1.085,0.688c-0.215,0.369-0.442,0.432-0.845,0.287
			c-0.449-0.162-0.91-0.234-1.312-0.557c-0.313-0.25-0.699-0.301-1.009,0.166c-0.25,0.377-0.891,0.391-0.987,0.956
			c-0.159,0-0.317,0-0.477,0c-0.015-0.157-0.032-0.313-0.045-0.472c-0.021-0.24-0.039-0.515-0.317-0.57
			c-0.253-0.05-0.232,0.238-0.313,0.385c-0.298,0.536-0.804,0.272-1.208,0.283c-0.365,0.01-0.382-0.362-0.404-0.662
			c-0.02-0.267-0.05-0.571-0.376-0.623c-0.795-0.126-1.605-0.096-2.408-0.176c-0.368-0.037-0.752-0.094-1.132-0.109
			c-0.263-0.01-0.579-0.217-0.522-0.583c0.058-0.375-0.127-0.438-0.429-0.485c-0.255-0.039-0.495-0.168-0.749-0.229
			c-0.415-0.098-0.624-0.26-0.355-0.709c0.23-0.383,0.101-0.656-0.331-0.774c-0.184-0.05-0.403-0.101-0.439-0.291
			c-0.074-0.391-0.165-0.415-0.468-0.149c-0.61,0.534-1.094,0.524-1.679,0.003c-0.334-0.298-0.641-0.628-0.956-0.948
			c-0.165-0.166-0.24-0.35-0.063-0.558c0.081-0.095,0.208-0.279-0.008-0.255c-0.401,0.045-0.676-0.29-1.051-0.26
			c-0.965,0.076-1.481-0.677-2.117-1.184c-0.249-0.199,0.036-0.539-0.01-0.816c-0.266,0.197-0.547,0.271-0.86,0.113
			c-0.047-0.023-0.104-0.035-0.142-0.068c-0.335-0.307-0.6-0.215-0.955,0.039c-0.539,0.386-0.859,0.289-1.394-0.148
			c-0.195-0.159-0.344-0.411-0.637-0.437c0-0.159,0-0.317,0-0.477c0.792-0.772,1.576-1.554,2.382-2.312
			c0.293-0.277,0.322-0.518,0.052-0.807c-0.145-0.153-0.277-0.319-0.431-0.464c-0.297-0.279-0.357-0.524,0.072-0.724
			c0.23-0.107,0.264-0.227,0.055-0.404c-0.28-0.237-0.535-0.5-0.831-0.725c-0.463-0.352-0.464-0.544-0.08-0.973
			c0.391-0.438,0.881-0.755,1.361-1.084c0.631-0.433,0.645-0.499,0.256-1.189c-0.204-0.361-0.008-0.831,0.421-0.984
			c3.638-1.295,6.822-3.314,9.618-5.972c1.109-1.055,2.242-2.083,3.601-2.842c0.785-0.438,1.355-1.173,2.005-1.791
			c2.222-2.113,4.424-4.248,6.629-6.38c0.3-0.29,0.499-0.58,0.485-1.086c-0.028-1.057,0.478-1.906,1.349-2.539
			c0.565-0.411,0.996-0.885,0.968-1.698c-0.021-0.622,0.514-0.981,1.051-1.159c0.393-0.131,0.551-0.307,0.565-0.708
			c0.018-0.515,0.394-0.785,0.808-0.992c0.206-0.103,0.25-0.142,0.198-0.437c-0.115-0.652,0.291-1.207,0.818-1.516
			c1.148-0.676,1.827-1.734,2.496-2.809c0.633-1.016,1.022-2.143,1.38-3.279c0.301-0.957,0.622-1.908,0.925-2.865
			c0.201-0.636,0.473-1.223,0.956-1.703c0.133-0.132,0.238-0.292,0.431-0.319c0.332-0.047,0.479-0.281,0.635-0.536
			c0.255-0.417,0.604-0.627,1.131-0.521c0.586,0.117,1.208-0.031,1.77,0.322c0.276,0.173,0.483-0.103,0.638-0.323
			c0.367-0.518,0.727-1.039,1.091-1.559c3.488-4.973,7.126-9.84,10.48-14.908c0.595-0.9,1.282-1.743,1.961-2.585
			c1.629-2.02,2.946-4.26,4.516-6.321c0.191-0.251,0.339-0.537,0.529-0.791c2.555-3.408,4.74-7.066,7.154-10.571
			c3.553-5.159,7.131-10.297,10.873-15.32c0.586-0.787,1.081-1.628,1.591-2.463c0.966-1.581,2.138-3.023,3.136-4.577
			c1.071-1.668,2.199-3.298,3.267-4.968c0.669-1.046,1.466-2.009,2.05-3.11c0.229-0.431,0.775-0.452,1.017-0.849
			c0.477,0,0.952,0,1.429,0c0.142,0.061,0.277,0.147,0.426,0.177c1.146,0.229,1.726,1.037,2.114,2.045
			C110.673,3.093,110.673,3.463,110.673,3.834z"/>
	</g>
</g>
</svg>
