<?xml version="1.0" encoding="utf-8"?>
<!-- Generator: Adobe Illustrator 16.0.0, SVG Export Plug-In . SVG Version: 6.00 Build 0)  -->
<!DOCTYPE svg PUBLIC "-//W3C//DTD SVG 1.1//EN" "http://www.w3.org/Graphics/SVG/1.1/DTD/svg11.dtd">
<svg version="1.1" id="Layer_1404" xmlns="http://www.w3.org/2000/svg" xmlns:xlink="http://www.w3.org/1999/xlink" x="0px" y="0px"
	 width="128px" height="128px" viewBox="0 0 128 128" enable-background="new 0 0 128 128" xml:space="preserve">
<g id="rR2GFp.tif">
	<g>
		<path fill-rule="evenodd" clip-rule="evenodd" d="M13.532,111.057c-0.765,0.258-1.248,0.911-1.889,1.344
			c-0.142,0.097-0.261,0.288-0.457,0.149c-0.132-0.095-0.068-0.265-0.041-0.396c0.152-0.724,0.452-1.34,1.083-1.791
			c4.146-2.96,8.135-6.126,12.207-9.18c2.122-1.591,4.224-3.209,6.336-4.814c0.34-0.26,0.59-0.498,0.766,0.197
			c0.228,0.89,0.906,1.546,1.523,2.185c2.186,2.262,4.649,4.17,7.463,5.598c0.543,0.273,1.104,0.563,1.727,0.561
			c0.548-0.002,0.553,0.235,0.384,0.629c-0.93,2.175-1.865,4.35-2.792,6.527c-1.951,4.585-3.899,9.17-5.848,13.759
			c-0.139,0.328-0.27,0.662-0.393,1.001c-0.388,1.072-0.814,1.356-1.945,1.229c-0.462-0.052-0.919-0.154-1.375-0.256
			c-0.684-0.156-0.704-0.173-0.419-0.842c0.799-1.879,1.615-3.752,2.431-5.625c0.071-0.165,0.167-0.317,0.121-0.506
			c0.207-0.246,0.38-0.505,0.414-0.833c0.05-0.093,0.105-0.183,0.149-0.275c0.035-0.079,0.061-0.161,0.091-0.243
			c-0.072,0.068-0.172,0.125-0.206,0.21c-0.036,0.088-0.007,0.202-0.006,0.305c-0.155,0.269-0.525,0.432-0.413,0.836
			c-0.92,1.34-1.439,2.879-2.133,4.33c-0.293,0.612-0.546,1.249-0.765,1.893c-0.133,0.393-0.29,0.59-0.75,0.537
			c-0.723-0.085-1.426,0.063-2.108,0.329c-1.015,0.395-1.806-0.079-2.558-0.692c-0.315-0.26-0.148-0.496-0.005-0.753
			c0.839-1.503,1.661-3.017,2.514-4.512c0.853-1.496,1.737-2.975,2.606-4.462c0.063-0.106,0.19-0.195,0.12-0.351
			c-0.101,0.1-0.224,0.181-0.299,0.296c-0.708,1.082-1.415,2.164-2.105,3.255c-1.113,1.759-2.227,3.52-3.2,5.359
			c-0.262,0.495-0.487,0.529-0.854,0.101c-0.588-0.688-1.344-1.188-2.053-1.738c-0.645-0.501-0.656-0.51-0.227-1.164
			c1.004-1.531,2.022-3.054,3.032-4.583c0.075-0.113,0.122-0.246,0.182-0.37c-0.105,0.092-0.225,0.173-0.313,0.281
			c-1.16,1.378-2.054,2.947-3.14,4.379c-0.657,0.867-0.699,0.885-1.673,0.498c-0.232-0.093-0.448-0.225-0.667-0.349
			c-1.421-0.805-1.456-0.968-0.49-2.197c0.178-0.226,0.354-0.453,0.521-0.688c0.054-0.075,0.075-0.175,0.111-0.265
			c-0.082,0.067-0.172,0.127-0.245,0.203c-0.372,0.389-0.736,0.785-1.108,1.175c-0.272,0.284-0.489,0.315-0.767-0.049
			c-0.5-0.66-1.211-1.31-1.312-2.062c-0.104-0.803,0.929-1.167,1.459-1.713c2.374-2.444,4.861-4.778,7.047-7.403
			c0.434-0.082,0.577-0.485,0.832-0.762c0.067-0.072,0.09-0.184,0.134-0.278c-0.076,0.052-0.168,0.092-0.225,0.159
			c-0.25,0.297-0.493,0.6-0.737,0.902c-1.05,0.637-1.792,1.614-2.675,2.434c-1.92,1.782-3.785,3.623-5.681,5.431
			c-0.577,0.551-0.642,0.529-1.106-0.157c-0.14-0.209-0.277-0.417-0.418-0.625c-0.74-1.08-0.747-1.087,0.198-2.062
			c0.825-0.853,1.667-1.684,2.498-2.527c0.07-0.073,0.108-0.181,0.162-0.272c-0.168-0.079-0.222,0.082-0.311,0.155
			c-1.086,0.881-2.158,1.781-3.257,2.647c-0.658,0.519-0.808,0.468-1.204-0.259c-0.575-1.055-0.487-1.467,0.431-2.298
			c0.558-0.505,1.086-1.043,1.625-1.565c0.12-0.074,0.245-0.141,0.356-0.226c0.049-0.037,0.114-0.151,0.103-0.163
			c-0.129-0.139-0.137,0.048-0.184,0.09C13.7,110.827,13.622,110.946,13.532,111.057z"/>
		<path fill-rule="evenodd" clip-rule="evenodd" d="M33.495,94.548c-0.229-0.556-0.177-1.063,0.075-1.633
			c1.262-2.866,2.486-5.75,3.695-8.639c0.25-0.599,0.602-1.134,0.896-1.702c0.172,0.004,0.346-0.033,0.511,0.077
			c0.088,0.06,0.166,0.204,0.314,0.108c-0.074-0.074-0.144-0.154-0.22-0.224c-0.221-0.198-0.428-0.234-0.601,0.06
			c0.385-1.527,0.614-1.529,2.188-1.487c0.91,0.025,1.365,0.306,1.718,1.021c0.046,0.095,0.076,0.204,0.212,0.208
			c0-0.095,0.023-0.196-0.005-0.281c-0.189-0.559,0.041-0.524,0.459-0.368c0.709,0.267,1.373,0.564,1.677,1.331
			c-0.08,0.102-0.08,0.203,0.003,0.305l0.001,0.06l-0.009-0.059c-0.009-0.102-0.018-0.202-0.026-0.302
			c0.023-0.308,0.146-0.498,0.46-0.279c0.621,0.434,0.908,0.083,1.264-0.411c2.044-2.827,4.125-5.627,6.183-8.443
			c3.46-4.734,51.744-66.976,55.197-71.712c0.256-0.349,0.502-0.704,0.758-1.05c0.924-1.247,1.496-1.476,2.941-0.935
			c1.648,0.614,3.113,1.564,4.295,2.88c0.479,0.532,0.656,1.26,1.139,1.838c0.48,0.582,0.289,1.333-0.25,1.965
			c-1.77,2.083-48.336,61.701-50.092,63.794c-1.805,2.148-3.629,4.278-5.431,6.428c-2.681,3.197-5.326,6.423-8.041,9.59
			c-0.542,0.632-0.758,1.368-1.105,2.066c-0.104-0.108-0.207-0.045-0.311,0.004c-0.021,0.064-0.068,0.047-0.04-0.003
			c0.072-0.123-0.087-0.002,0.057-0.003c0.106,0.094,0.202,0.074,0.292-0.024c0.824,0.047,2.003,0.936,2.228,1.771
			c0.096,0.354-0.316,0.06-0.439,0.194c-0.075-0.017-0.151-0.031-0.227-0.047c0.017,0.021,0.038,0.062,0.05,0.06
			c0.059-0.008,0.116-0.028,0.174-0.046c0.411,0.342,1.066,0.36,1.265,0.99c0.064,0.206,0.13,0.391,0.005,0.589
			c-0.058-0.036-0.113-0.079-0.173-0.108c-0.075-0.036-0.155-0.063-0.233-0.095c0.011,0.123,0.108,0.159,0.202,0.181
			c0.063,0.015,0.134-0.005,0.201-0.009c0.193,0.156,0.422,0.276,0.48,0.547c0.051,0.231,0.259,0.484,0.042,0.693
			c-0.2,0.188-0.382-0.055-0.564-0.133c-0.097-0.039-0.189-0.085-0.283-0.128c0.084,0.086,0.164,0.18,0.253,0.261
			c0.104,0.097,0.216,0.184,0.328,0.273c0.369,0.295,0.374,0.609-0.021,0.853c-0.266,0.163-0.447,0.479-0.809,0.479
			c0-0.406-0.33-0.529-0.602-0.703c-0.111-0.46-0.546-0.619-0.849-0.901c-0.08-0.074-0.202-0.103-0.306-0.152
			c0.074,0.074,0.144,0.153,0.222,0.224c0.319,0.275,0.642,0.549,0.963,0.825c0.092,0.323,0.297,0.554,0.597,0.702
			c-0.423,0.453-0.781,0.993-1.46,1.108c0.06-0.087,0.122-0.17,0.178-0.26c0.055-0.088,0.101-0.183,0.15-0.272
			c-0.078,0.053-0.159,0.102-0.231,0.157c-0.083,0.062-0.159,0.134-0.238,0.2c-0.025,0.021-0.048,0.043-0.073,0.063
			c-0.022,0.016-0.044,0.032-0.065,0.049c0.047-0.045,0.093-0.091,0.141-0.136c0.057,0.064,0.115,0.129,0.171,0.194
			c-0.309,0.489-0.701,0.862-1.308,0.937c0.017-0.058,0.034-0.116,0.052-0.174c-0.01,0.057-0.019,0.112-0.026,0.169
			c-0.584,0.8-1.471,1.237-2.223,1.837c-1.313,1.048-2.681,2.032-3.972,3.106c-0.64,0.531-1.244,0.581-1.98,0.302
			c-1.662-0.624-3.125-1.594-4.548-2.617c-1.749-1.258-3.344-2.693-4.689-4.393c-0.11-0.138-0.259-0.246-0.392-0.368l0.015,0.035
			c0.078-0.225-0.117-0.324-0.216-0.47L33.495,94.548z"/>
		<path fill-rule="evenodd" clip-rule="evenodd" d="M36.548,101.048c-1.63-1.248-3.019-2.539-4.196-4.048
			c-0.154-0.195-0.28-0.413-0.419-0.621c-0.242-0.361-0.076-0.663,0.23-0.805c0.389-0.185,0.334,0.266,0.433,0.437
			c0.361,0.629,0.806,1.192,1.326,1.686c2.327,2.205,4.798,4.214,7.706,5.619c0.32,0.156,0.668,0.259,1.004,0.38
			c0.192,0.067,0.483,0.082,0.37,0.382c-0.095,0.253-0.23,0.595-0.604,0.475c-0.441-0.139-0.886-0.302-1.285-0.53
			C39.493,103.092,37.894,102.132,36.548,101.048z"/>
		<path fill-rule="evenodd" clip-rule="evenodd" d="M33.69,94.951c0.503,1.152,1.456,1.937,2.339,2.757
			c1.874,1.735,3.86,3.328,6.187,4.443c0.458,0.219,0.932,0.368,1.421,0.481c0.127,0.029,0.322,0.009,0.312,0.191
			c-0.008,0.125-0.106,0.268-0.202,0.361c-0.282,0.275-0.597,0.138-0.907,0.043c-0.934-0.291-1.785-0.771-2.599-1.28
			c-2.599-1.631-4.921-3.602-6.931-5.929c-0.208-0.241-0.38-0.524-0.515-0.812c-0.14-0.302,0.036-0.564,0.244-0.771
			c0.182-0.181,0.312,0.036,0.455,0.112l-0.005-0.031c-0.104,0.237,0.098,0.334,0.216,0.47L33.69,94.951z"/>
	</g>
</g>
</svg>
