<?xml version="1.0" encoding="utf-8"?>
<!-- Generator: Adobe Illustrator 16.0.0, SVG Export Plug-In . SVG Version: 6.00 Build 0)  -->
<!DOCTYPE svg PUBLIC "-//W3C//DTD SVG 1.1//EN" "http://www.w3.org/Graphics/SVG/1.1/DTD/svg11.dtd">
<svg version="1.1" id="Layer_1502" xmlns="http://www.w3.org/2000/svg" xmlns:xlink="http://www.w3.org/1999/xlink" x="0px" y="0px"
	 width="128px" height="128px" viewBox="0 0 128 128" enable-background="new 0 0 128 128" xml:space="preserve">
<g>
	<path d="M77.014,69.269c5.867-4.146,11.574-8.514,17.202-12.989c5.828-4.637,11.653-9.28,17.588-13.785
		c4.629-3.514,9.246-7.011,14.351-9.816c0.252-0.138,0.691-0.196,0.578-0.637c-0.07-0.278-0.379-0.327-0.638-0.397
		c-1.975-0.529-3.925-1.185-5.927-1.579c-7.988-1.574-16.084-2.243-24.198-2.788c-6.326-0.426-12.649-1.041-18.688-3.176
		c-1.052-0.371-1.898-0.27-2.796,0.287c-5.46,3.394-11.41,5.769-17.363,8.078c-8.059,3.124-16.199,6.046-24.348,8.929
		c-9.578,3.388-19.186,6.683-28.446,10.896c-0.832,0.379-2.034,0.522-2.232,1.395c-0.088,0.394,1.114,1.159,1.812,1.639
		c5.749,3.956,11.984,6.956,18.611,9.088c5.715,1.839,11.492,3.489,17.252,5.183c6.614,1.945,12.939,4.554,18.895,8.042
		c0.452,0.265,0.866,0.624,1.635,0.506c0.2-0.054,0.591-0.131,0.963-0.259C67.001,75.905,72.108,72.733,77.014,69.269z"/>
	<path d="M127.025,49.348c-0.004-0.296,0.026-0.716-0.587-0.572c-0.162,0.102-0.413,0.212-0.604,0.386
		c-2.923,2.671-6.125,5.004-9.134,7.562c-3.869,3.286-7.845,6.436-11.82,9.579c-7.397,5.85-14.812,11.683-22.503,17.147
		c-6.504,4.622-12.846,9.51-20.265,12.659c-0.761,0.322-0.92,0.805-0.905,1.533c0.032,1.586,0.003,3.174,0.013,4.76
		c0.011,1.937,0.04,1.998,1.838,1.333c3.87-1.431,7.34-3.661,10.589-6.104c5.216-3.924,10.235-8.118,15.116-12.456
		c7.441-6.611,14.792-13.327,22.535-19.588c4.823-3.901,9.763-7.653,15.543-10.08c0.751-0.315,1.088-0.696,0.891-1.472
		C127.341,52.497,127.055,50.943,127.025,49.348z"/>
	<path d="M0.775,60.5c-0.404,2.062,0.732,3.181,2.369,4.022c0.116,0.062,0.221,0.147,0.334,0.214
		c7.047,4.155,14.139,8.225,21.751,11.289c0.427,0.172,0.842,0.384,1.239,0.616c0.152,0.089,0.239,0.289,0.355,0.438
		c-0.193,0.021-0.39,0.075-0.579,0.056c-1.117-0.112-2.26-0.124-3.342-0.385c-7.452-1.794-14.399-4.704-20.5-9.442
		c-0.362-0.282-0.775-0.5-1.13-0.726c-0.422-0.044-0.424,0.226-0.46,0.485c-0.252,1.788,0.052,3.317,1.433,4.694
		c2.792,2.779,6.366,3.932,9.956,5.021c6.484,1.965,13.237,2.424,19.915,3.229c8.572,1.032,17.266,1.19,25.625,3.694
		c0.243,0.073,0.514,0.258,0.706-0.046c0.197-0.311,0.127-0.662-0.094-0.916c-0.211-0.241-0.494-0.433-0.773-0.599
		c-4.615-2.729-9.508-4.856-14.534-6.693c-6.881-2.514-13.993-4.305-20.91-6.721c-6.769-2.362-13.148-5.424-19.076-9.453
		c-0.777-0.527-1.442-1.853-2.337-1.389C0.155,58.182,0.953,59.593,0.775,60.5z"/>
	<path d="M126.674,38.328c-0.052-1.678-0.16-1.732-1.653-0.856c-4.671,2.738-9.044,5.903-13.371,9.152
		c-8.181,6.143-16.052,12.678-24.161,18.907c-7.843,6.027-15.604,12.192-24.643,16.433c-0.213,0.102-0.632,0.084-0.586,0.362
		c0.068,0.428,0.505,0.327,0.817,0.306c2.966-0.208,5.631-1.414,8.257-2.643c8.631-4.037,16.695-9.085,24.664-14.263
		c9.291-6.036,18.332-12.44,27.198-19.083c2.02-1.512,4.615-2.789,3.481-5.667C126.678,39.784,126.696,39.055,126.674,38.328z"/>
	<path d="M57.491,94.934c-1.487-0.333-2.854-1.01-4.338-1.375c-6.866-1.697-13.846-2.764-20.814-3.907
		c-9.312-1.526-17.998-4.594-25.567-10.423c-1.936-1.49-3.77-3.088-5.558-4.745c-0.217-0.201-0.435-0.609-0.752-0.139
		c-0.624,0.921,0.006,3.706,0.977,4.476c7.343,5.827,15.684,9.688,24.568,12.478c4.469,1.401,8.976,2.689,13.419,4.162
		c6.207,2.058,12.321,4.359,18.027,7.612c0.724,0.412,1.12,0.414,1.128-0.484c0.009-1.059,0.002-2.088,0.002-3.088
		c0.004,0,0.008,0,0.013,0c0-1-0.034-1.941,0.01-2.865C58.648,95.781,58.327,95.12,57.491,94.934z"/>
	<path d="M56.28,86.757c-0.38-0.106-0.765-0.203-1.152-0.279c-4.948-0.988-9.974-0.981-14.984-1.189
		c-4.221-0.175-8.426-0.526-12.618-1.072c-2.608-0.338-5.021-1.466-7.633-1.743c0.075,0.084,0.146,0.177,0.238,0.231
		c4.358,2.514,9.193,3.61,14.054,4.483c5.904,1.061,11.854,1.858,17.791,2.73c1.841,0.271,3.541,1.041,5.358,1.381
		c0.498,0.093,1.001,0.437,1.237-0.401C59.19,88.699,58.476,87.367,56.28,86.757z"/>
	<path d="M61.217,92.041c0.042,1.595,0.164,1.736,1.513,0.939c2.724-1.607,5.38-3.329,8.056-5.019
		c8.254-5.208,16.149-10.931,23.883-16.874c0.902-0.694,2.271-1.117,2.513-2.531c-2.175,1.339-4.381,2.629-6.516,4.027
		c-8.565,5.608-17.453,10.655-26.792,14.836c-2.151,0.962-3.024,2.021-2.656,4.225C61.239,91.773,61.212,91.909,61.217,92.041z"/>
</g>
</svg>
