<?xml version="1.0" encoding="utf-8"?>
<!-- Generator: Adobe Illustrator 16.0.0, SVG Export Plug-In . SVG Version: 6.00 Build 0)  -->
<!DOCTYPE svg PUBLIC "-//W3C//DTD SVG 1.1//EN" "http://www.w3.org/Graphics/SVG/1.1/DTD/svg11.dtd">
<svg version="1.1" id="Layer_1509" xmlns="http://www.w3.org/2000/svg" xmlns:xlink="http://www.w3.org/1999/xlink" x="0px" y="0px"
	 width="128px" height="128px" viewBox="0 0 128 128" enable-background="new 0 0 128 128" xml:space="preserve">
<g>
	<path fill-rule="evenodd" clip-rule="evenodd" d="M60.06,127.692c-3.53-0.057-7.061,0.036-10.576-0.503
		c-2.919-0.448-5.333-1.364-7.244-3.95c-6.059-8.199-11.615-16.653-15.129-26.297c-1.392-3.821-2.242-7.773-2.352-11.846
		c-0.155-5.74,1.704-10.992,4.123-16.084c1.884-3.965,4.476-7.419,7.562-10.526c1.4-1.409,2.716-2.904,4.118-4.311
		c4.058-4.069,6.141-9.089,7.1-14.65c0.714-4.14,0.892-8.313,0.968-12.515c0.073-3.946-1.58-6.741-4.71-8.891
		c-2.875-1.973-6.078-3.284-9.249-4.658c-2.838-1.23-2.852-1.204-0.97-3.71c2.545-3.392,5.857-4.714,10.067-3.88
		c2.617,0.519,5.065,1.511,7.562,2.38c1.186,0.414,1.231,0.391,1.256-0.855c0.036-1.84-0.015-3.682,0.021-5.523
		c0.029-1.447,0.102-1.55,1.49-1.56c4.05-0.027,8.1-0.021,12.15,0.02c1.476,0.015,1.533,0.073,1.604,1.646
		c0.096,2.058,0.086,4.121,0.123,6.181c0.011,0.589,0.019,1.178,0.042,1.766c0.024,0.629,0.298,0.973,0.981,0.793
		c0.213-0.056,0.421-0.133,0.635-0.187c2.473-0.623,2.479-0.623,2.471,1.841c-0.01,2.798-0.047,5.596-0.041,8.395
		c0.002,1.087,0.169,1.203,1.116,0.639c3.849-2.293,8.014-3.232,12.462-3.044c8.293,0.35,15.215,5.889,17.163,13.777
		c0.797,3.227,0.439,6.431-0.396,9.595c-1.248,4.725-3.471,9.055-5.512,13.457c-1.207,2.603-2.451,5.189-3.338,7.924
		c-1.188,3.664-1.344,7.203,0.169,10.949c2.776,6.881,2.53,13.953,0.333,20.979c-2.307,7.372-6.05,14.029-10.271,20.441
		c-2.146,3.261-4.453,6.402-6.921,9.43c-0.591,0.725-1.264,1.15-2.141,1.432c-3.702,1.188-7.528,1.259-11.355,1.342
		C62.269,127.712,61.166,127.692,60.06,127.692z M67.612,25.628c0-2.577-0.011-5.153,0.005-7.729
		c0.012-2.058,0.021-2.151-1.998-2.061c-4.801,0.215-9.321-0.888-13.769-2.57c-2.883-1.09-5.724-2.327-8.764-2.97
		c-0.804-0.17-1.597-0.261-2.408-0.151c-0.364,0.05-0.729,0.127-0.952,0.474c0.247,0.148,0.486,0.312,0.742,0.442
		c2.558,1.299,5.143,2.544,7.391,4.373c3.481,2.83,5.192,6.497,5.242,10.953c0.049,4.42-0.143,8.826-0.89,13.192
		c-1.007,5.888-2.914,11.371-6.848,16.029c-1.622,1.92-3.417,3.66-5.183,5.425c-4.683,4.679-7.952,10.174-9.857,16.495
		c-0.901,2.988-1.276,6.054-0.987,9.159c0.356,3.833,1.409,7.504,2.889,11.056c3.481,8.354,8.428,15.818,13.857,23
		c0.918,1.215,2.078,1.703,3.544,1.922c2.852,0.426,5.717,0.531,8.585,0.545c4.192,0.021,8.386,0.098,12.56-0.534
		c1.697-0.257,3.048-0.8,4.003-2.327c0.895-1.432,2.007-2.723,2.984-4.104c4.563-6.446,8.587-13.191,11.382-20.618
		c1.88-4.993,2.669-10.173,1.687-15.399c-1.13-6.01-3.784-11.422-7.702-16.169c-1.973-2.391-4.243-4.497-6.395-6.715
		c-3.722-3.839-6.187-8.349-7.502-13.537C67.713,37.829,67.408,31.751,67.612,25.628z M84.314,22.841
		c-3.031-0.059-5.789,0.816-8.424,2.26c-3.189,1.746-4.409,4.354-3.781,7.905c0.117,0.663,0.344,0.734,0.812,0.336
		c0.95-0.81,1.878-1.647,2.838-2.448c2.828-2.359,6.028-3.534,9.771-3.302c4.86,0.3,9.358,4.579,8.304,10.057
		c-0.619,3.219-1.859,6.189-3.184,9.142c-1.295,2.886-2.711,5.719-3.959,8.624c-1.792,4.169-1.735,4.176,1.338,7.643
		c0.538,0.606,0.689,0.531,0.908-0.195c1.32-4.386,3.324-8.487,5.319-12.589c1.388-2.85,2.637-5.758,3.537-8.795
		c1.254-4.23,1.504-8.403-1.088-12.31C93.761,24.728,89.499,22.881,84.314,22.841z M89.561,36.082
		c0.039-1.627-1.522-3.493-3.38-3.848c-1.993-0.381-3.988-0.274-5.747,0.854c-2.233,1.433-4.209,3.173-5.901,5.242
		c-1.181,1.444-1.405,2.955-0.894,4.726c1.162,4.02,3.092,7.589,5.881,10.708c2.022,2.261,2.002,2.277,3.184-0.582
		c0.196-0.475,0.424-0.937,0.63-1.407c1.653-3.761,3.621-7.377,5.064-11.235C88.941,39.087,89.284,37.597,89.561,36.082z"/>
	<path fill-rule="evenodd" clip-rule="evenodd" d="M75.84,60.881c1.104,0.145,1.832,0.595,2.51,1.505
		c2.749,3.693,7.492,11.107,8.822,15.551c2.162,7.214,1.021,15.929-2.607,22.423c-3.254,5.824-9.939,14.949-11.408,16.594
		c-0.769,0.859-1.652,1.158-2.734,1.123c-6.274-0.206-17.272,1.031-23.358-0.503c-1.035-0.261-1.82-0.785-2.364-1.795
		c-3.604-6.683-6.869-13.509-9.011-20.818c-1.354-4.616-2.256-9.284-1.528-14.141c0.329-2.206,0.949-4.296,1.911-6.304
		c2.63-5.488,6.367-10.029,11.362-13.542c0.85-0.598,1.62-0.808,2.64-0.655C54.805,61.03,71.096,60.257,75.84,60.881z
		 M39.286,80.626c-0.653,4.816,0.146,8.615,1.163,12.389c0.076,0.28,0.172,0.576,0.339,0.807c0.53,0.734,1.273,0.972,2.137,0.747
		c0.814-0.212,1.239-0.81,1.246-1.616c0.005-0.575-0.14-1.157-0.258-1.729c-0.282-1.363-0.664-2.711-0.867-4.086
		c-0.403-2.718-0.401-5.428,0.738-8.006c1.562-3.539,3.647-6.704,6.682-9.177c0.398-0.323,0.789-0.665,1.132-1.045
		c0.862-0.954,0.952-1.981,0.283-2.771c-0.681-0.805-1.542-0.833-2.741-0.018c-1.781,1.209-3.248,2.766-4.571,4.438
		C41.994,73.812,39.915,77.329,39.286,80.626z"/>
</g>
</svg>
