<?xml version="1.0" encoding="utf-8"?>
<!-- Generator: Adobe Illustrator 16.0.0, SVG Export Plug-In . SVG Version: 6.00 Build 0)  -->
<!DOCTYPE svg PUBLIC "-//W3C//DTD SVG 1.1//EN" "http://www.w3.org/Graphics/SVG/1.1/DTD/svg11.dtd">
<svg version="1.1" id="Layer_1518" xmlns="http://www.w3.org/2000/svg" xmlns:xlink="http://www.w3.org/1999/xlink" x="0px" y="0px"
	 width="128px" height="128px" viewBox="0 0 128 128" enable-background="new 0 0 128 128" xml:space="preserve">
<path fill-rule="evenodd" clip-rule="evenodd" d="M97.243,80.647c0,12.092,0,24.184,0,36.275c0,0.556-0.021,1.11,0.002,1.663
	c0.117,2.887-1.431,4.619-3.892,5.798c-2.938,1.407-6.092,2.01-9.258,2.537c-8.569,1.428-17.217,1.538-25.865,1.311
	c-6.542-0.172-13.046-0.816-19.434-2.331c-1.734-0.412-3.381-1.085-4.941-1.93c-2.204-1.194-3.132-3.085-3.128-5.605
	c0.034-19.469,0.023-38.938,0.017-58.407c-0.001-3.938-0.043-7.876-0.055-11.813c-0.013-4.448,0.371-8.877,1.422-13.189
	c1.135-4.661,3.132-8.964,6.144-12.777c2.652-3.357,5.881-5.993,9.57-8.089c1.102-0.625,2.291-1.104,3.463-1.593
	c0.666-0.277,1.09-0.56,1.099-1.415c0.01-1.077,0.623-1.927,1.689-2.228c0.779-0.219,0.869-0.671,0.842-1.342
	c-0.04-0.997,0.024-1.998-0.014-2.994c-0.092-2.444,1.602-4.733,4.631-4.788c2.995-0.054,5.992-0.091,8.984,0.006
	c3.08,0.101,4.49,1.673,4.79,4.654c0.105,1.043,0.06,2.108,0.012,3.16c-0.031,0.702,0.159,1.099,0.882,1.335
	c0.984,0.321,1.605,1.133,1.56,2.139c-0.047,1.046,0.58,1.353,1.3,1.635c2.072,0.814,3.979,1.916,5.828,3.149
	c5.335,3.562,8.99,8.429,11.404,14.325c2.533,6.184,2.984,12.678,3.001,19.239c0.025,10.425,0.007,20.85,0.007,31.274
	C97.282,80.647,97.263,80.647,97.243,80.647z M91.922,42.938c-0.136-2.712-0.378-5.404-1.287-8
	c-1.287-3.676-2.876-7.187-5.34-10.248c-1.338-1.661-2.901-3.051-4.813-4.014c-1.959-0.985-2.705-0.697-3.767,1.155
	c-1.676,2.925-2.654,6.072-3.166,9.378c-0.835,5.395-0.187,10.507,3.146,15.017c2.413,3.267,5.356,5.566,9.778,5.118
	c2.689-0.273,4.602-1.811,5.073-4.436C91.78,45.6,92.005,44.282,91.922,42.938z"/>
</svg>
