<?xml version="1.0" encoding="utf-8"?>
<!-- Generator: Adobe Illustrator 16.0.0, SVG Export Plug-In . SVG Version: 6.00 Build 0)  -->
<!DOCTYPE svg PUBLIC "-//W3C//DTD SVG 1.1//EN" "http://www.w3.org/Graphics/SVG/1.1/DTD/svg11.dtd">
<svg version="1.1" id="Layer_1522" xmlns="http://www.w3.org/2000/svg" xmlns:xlink="http://www.w3.org/1999/xlink" x="0px" y="0px"
	 width="128px" height="128px" viewBox="0 0 128 128" enable-background="new 0 0 128 128" xml:space="preserve">
<g id="f0awSz.tif">
	<g>
		<path fill-rule="evenodd" clip-rule="evenodd" d="M19.926,77.555c0.002-10.665,0.092-21.331-0.027-31.995
			c-0.092-8.134,3.305-14.453,9.47-19.471c2.386-1.942,3.732-4.399,3.938-7.46c0.106-1.57,0.234-3.15,0.168-4.718
			c-0.073-1.733,0.847-1.994,2.266-1.962c1.493,0.033,2.5,0.267,2.598,2.151c0.33,6.403-1.227,11.843-6.504,16.093
			c-4.844,3.902-7.414,9.141-7.34,15.534c0.064,5.574-0.016,11.15,0.025,16.724c0.02,2.751,0.078,2.748,2.886,2.794
			c5.244,0.088,10.365-0.828,15.461-1.915c7.33-1.563,14.579-3.49,21.973-4.776c10.584-1.841,20.74-0.85,30.354,4.203
			c1.732,0.91,3.606,1.393,5.519,1.729c1.419,0.249,2.353-0.095,2.34-1.811c-0.046-6.664,0.259-13.347-0.165-19.985
			c-0.311-4.839-2.594-9.156-6.561-12.126c-5.705-4.271-7.17-10.019-6.643-16.699c0.135-1.71,1.112-1.863,2.439-1.907
			c1.468-0.048,2.448,0.428,2.225,2.032c-0.887,6.353,2.055,10.688,6.709,14.706c5.021,4.335,6.924,10.51,6.967,17.001
			c0.139,20.835,0.051,41.673,0.074,62.51c0.003,2.687-0.388,5.274-1.172,7.854c-2.236,7.354-9.776,11.906-16.569,11.883
			c-10.181-0.034-20.36-0.008-30.54-0.007c-7.515,0-15.029,0.064-22.542-0.017c-7.857-0.086-14.824-5.393-16.839-12.602
			c-0.533-1.905-0.5-3.837-0.502-5.77C19.914,98.885,19.923,88.219,19.926,77.555z M25.336,96.588c0,2.055-0.104,4.115,0.025,6.161
			c0.189,3.015,0.666,5.995,1.76,8.837c0.125,0.324,0.384,0.598,0.582,0.896c0.069-0.29,0.229-0.593,0.193-0.87
			c-1.06-8.155-1.429-16.354-1.535-24.567c-0.004-0.362-0.021-0.725-0.032-1.087c-0.13,0.419-0.273,0.834-0.389,1.258
			C25.097,90.295,25.45,93.46,25.336,96.588z"/>
		<path fill-rule="evenodd" clip-rule="evenodd" d="M64.063,0.045c9.689,0,19.379,0,29.067,0.001c0.849,0,1.698,0.044,2.543,0
			c1.711-0.089,2.457,0.641,2.246,2.383c-0.248,2.042-0.453,4.09-0.615,6.14c-0.08,1.017-0.516,1.562-1.553,1.577
			c-0.848,0.012-1.695,0.033-2.543,0.033c-19.621,0.002-39.241,0.002-58.862,0.002c-0.605,0-1.213-0.037-1.816-0.001
			c-1.577,0.094-2.146-0.768-2.202-2.2c-0.082-2.057-0.16-4.116-0.311-6.168c-0.095-1.296,0.544-1.752,1.708-1.756
			c1.816-0.006,3.633-0.01,5.45-0.01C46.138,0.044,55.101,0.045,64.063,0.045z"/>
	</g>
</g>
</svg>
