<?xml version="1.0" encoding="utf-8"?>
<!-- Generator: Adobe Illustrator 16.0.0, SVG Export Plug-In . SVG Version: 6.00 Build 0)  -->
<!DOCTYPE svg PUBLIC "-//W3C//DTD SVG 1.1//EN" "http://www.w3.org/Graphics/SVG/1.1/DTD/svg11.dtd">
<svg version="1.1" id="Layer_1602" xmlns="http://www.w3.org/2000/svg" xmlns:xlink="http://www.w3.org/1999/xlink" x="0px" y="0px"
	 width="128px" height="128px" viewBox="0 0 128 128" enable-background="new 0 0 128 128" xml:space="preserve">
<g>
	<path fill-rule="evenodd" clip-rule="evenodd" d="M30.95,97.578c-2.373-0.105-4.754-0.001-7.118-0.351
		c-9.225-1.358-15.617-6.562-19.635-14.955C-2.169,68.977-0.15,48.83,9.664,39.205c4.662-4.572,10.253-7.33,17.335-7.383
		c4.361-0.033,8.614-0.569,12.879-1.07c1.728-0.202,3.528-0.101,5.287-0.189c5.143-0.255,10.322-0.307,15.481-0.424
		c2.851-0.067,5.747-0.186,8.709,0.101c3.779,0.364,7.571,0.425,11.375,0.767c4.427,0.401,8.76,1.41,13.034,2.894
		c5.709,1.98,10.14,5.739,13.361,10.741c6.757,10.486,8.363,21.096,3.865,31.597c-2.827,6.604-8.068,10.959-14.658,13.816
		c-5.309,2.301-11.037,3.521-17.08,3.839c-8.092,0.426-16.181,0.87-24.23,1.504c-5.592,0.444-11.1,1.301-16.679,1.817
		c-2.432,0.225-4.951,0.057-7.428,0.066C30.926,97.379,30.938,97.478,30.95,97.578z M46.109,63.656
		c-1.084-8.975-5.05-16.239-10.57-20.658c-1.667-1.334-3.455-2.287-5.529-2.838c-3.564-0.946-6.584-0.071-9.408,1.369
		c-5.345,2.723-8.448,7.332-10.271,12.879c-1.62,4.93-1.979,10.176-1.477,15.51c0.416,4.415,1.701,8.763,4.372,12.741
		c2.075,3.091,4.851,5.353,8.434,6.278c5.884,1.519,11.126,0.564,15.343-3.027C44.125,79.84,46.147,71.404,46.109,63.656z
		 M72.076,45.892c0.02,0.155,11.152,0.469,16.688,0.38c3.195-0.051,6.402,0.454,9.603,0.688c0.447,0.033,1.148,0.035,1.28-0.214
		c0.281-0.527-0.31-1.039-0.685-1.472c-2.397-2.76-5.617-3.998-8.873-5.083c-4.691-1.564-9.466-1.823-14.184-2.005
		c-9.723-0.375-19.381-0.154-29.033,0.083c-0.697,0.018-1.76-0.087-1.972,0.284c-0.327,0.573,0.564,1.185,1.042,1.712
		c0.924,1.018,1.654,2.139,2.289,3.321c1.28,2.379,1.284,2.393,4.031,2.385C58.87,45.952,65.473,45.918,72.076,45.892z"/>
	<path fill-rule="evenodd" clip-rule="evenodd" d="M112.107,68.057c-0.026-1.827,0.002-3.546-0.088-5.273
		c-0.242-4.643-1.509-9.234-2.484-13.84c-0.099-0.459-0.318-0.906-0.406-1.364c-0.225-1.174,0.153-2.159,1.299-2.374
		c1.106-0.212,2.178,0.359,2.515,1.594c0.544,1.985,1.087,0.936,1.597,0.217c1.273-1.797,2.551-3.595,4.186-5.09
		c0.619-0.567,1.325-1.51,2.329-0.902c1.155,0.699,0.812,1.892,0.562,2.862c-0.251,0.971-0.678,1.882-0.97,2.84
		c-0.642,2.104-0.419,2.807,1.586,4.147c1.334,0.892,2.823,1.536,4.176,2.402c1.69,1.085,1.793,1.733,0.51,2.992
		c-0.783,0.767-1.721,1.384-2.554,2.106c-2.24,1.938-2.277,2.376-0.522,5.265c0.569,0.94,1.21,1.846,1.722,2.808
		c0.526,0.992,0.191,1.528-0.909,1.499c-2.439-0.062-4.697-1.098-6.927-2.142c-1.35-0.632-1.704-0.262-1.52,1.019
		c0.081,0.573,0.117,1.174,0.035,1.725c-0.161,1.077-0.691,1.925-1.944,1.925C113.252,70.47,112.286,69.302,112.107,68.057z"/>
	<path fill-rule="evenodd" clip-rule="evenodd" d="M30.651,63.781c0.294,1.832-0.028,2.985-0.769,4.008
		c-0.871,1.204-2.132,1.556-3.674,1.185c-1.341-0.322-2.227-1.521-2.494-3.263c-0.241-1.563,0.021-2.986,0.927-4.174
		c0.69-0.905,1.589-1.547,2.934-1.26c1.464,0.312,2.329,1.318,2.85,2.623C30.603,63.341,30.659,63.813,30.651,63.781z"/>
	<path fill-rule="evenodd" clip-rule="evenodd" d="M14.896,56.661c0.096-0.399,0.16-1.09,0.426-1.677
		c0.507-1.129,1.218-2.142,2.762-1.943c1.251,0.162,2.746,1.992,2.813,3.439c0.028,0.669-0.119,1.353-0.339,1.964
		c-0.559,1.543-2.137,2.38-3.447,1.917C15.917,59.94,14.943,58.426,14.896,56.661z"/>
	<path fill-rule="evenodd" clip-rule="evenodd" d="M17.399,72.783c-0.008-0.118-0.018-0.233-0.024-0.35
		c-0.1-2.025,0.948-3.613,2.526-3.832c1.25-0.171,2.608,0.961,3.109,2.592c0.571,1.853-0.299,4.11-1.781,4.626
		C19.26,76.504,17.656,75.233,17.399,72.783z"/>
	<path fill-rule="evenodd" clip-rule="evenodd" d="M40.245,72.376c0.159,0.956,0.025,1.834-0.433,2.627
		c-0.66,1.154-1.649,1.773-3.137,1.465c-1.234-0.256-1.989-1.311-2.14-3.015c-0.059-0.683-0.046-1.396,0.119-2.028
		c0.381-1.467,1.757-2.438,2.958-2.223C38.881,69.428,39.994,70.771,40.245,72.376z"/>
	<path fill-rule="evenodd" clip-rule="evenodd" d="M32.512,83.832c0.158,1.067,0.046,2.055-0.558,2.903
		c-0.707,0.992-1.728,1.353-3.013,1.061c-1.432-0.327-1.923-1.404-2.111-2.636c-0.125-0.809-0.119-1.594,0.149-2.354
		c0.565-1.59,1.588-2.348,2.98-2.13C31.245,80.876,32.255,82.126,32.512,83.832z"/>
	<path fill-rule="evenodd" clip-rule="evenodd" d="M35.009,61.07c-0.269-2.432,0.938-4.243,2.768-4.15
		c1.42,0.074,2.745,1.487,2.986,3.186c0.313,2.202-1.041,4.06-2.941,4.044C36.146,64.138,35.239,63.144,35.009,61.07z"/>
</g>
</svg>
