<?xml version="1.0" encoding="utf-8"?>
<!-- Generator: Adobe Illustrator 16.0.0, SVG Export Plug-In . SVG Version: 6.00 Build 0)  -->
<!DOCTYPE svg PUBLIC "-//W3C//DTD SVG 1.1//EN" "http://www.w3.org/Graphics/SVG/1.1/DTD/svg11.dtd">
<svg version="1.1" id="Layer_1603" xmlns="http://www.w3.org/2000/svg" xmlns:xlink="http://www.w3.org/1999/xlink" x="0px" y="0px"
	 width="128px" height="128px" viewBox="0 0 128 128" enable-background="new 0 0 128 128" xml:space="preserve">
<g id="zrDiLh.tif">
	<g>
		<path d="M23.386,74.645c-0.358-11.372,0.124-22.742,0.011-34.112c-0.067-6.78,2.778-12.101,8.313-16.003
			c2.99-2.108,4.192-5.316,3.379-8.798c-0.175-0.75-0.685-0.754-1.245-0.814c-0.889-0.096-1.996,0.339-2.619-0.347
			c-0.729-0.805-0.272-2.001-0.31-3.024c-0.053-1.463-0.049-2.932,0.001-4.396c0.137-3.967,3.253-7.1,7.237-7.264
			c1.463-0.061,2.931-0.016,4.396-0.016c15.561,0,31.123-0.007,46.686,0.006c4.06,0.004,7.179,2.423,7.844,6.142
			c0.206,1.154,0.111,2.363,0.127,3.548c0.02,1.255,0.027,2.513-0.004,3.768c-0.04,1.452-0.074,1.464-1.574,1.56
			c-0.068,0.005-0.141,0.005-0.208,0.004c-2.864-0.043-2.28,0.298-2.429,2.408c-0.234,3.313,1.056,5.641,3.822,7.562
			c5.205,3.618,7.844,8.782,7.901,15.143c0.066,6.979,0.013,13.956,0.013,20.934c0.002,16.182,0.021,32.364-0.004,48.544
			c-0.015,8.466-5.527,15.661-13.675,17.961c-1.549,0.437-3.125,0.688-4.743,0.688c-14.794-0.008-29.588,0.032-44.381-0.019
			c-10.33-0.034-18.514-8.34-18.534-18.728C23.368,97.811,23.386,86.229,23.386,74.645z"/>
	</g>
</g>
</svg>
