<?xml version="1.0" encoding="utf-8"?>
<!-- Generator: Adobe Illustrator 16.0.0, SVG Export Plug-In . SVG Version: 6.00 Build 0)  -->
<!DOCTYPE svg PUBLIC "-//W3C//DTD SVG 1.1//EN" "http://www.w3.org/Graphics/SVG/1.1/DTD/svg11.dtd">
<svg version="1.1" id="Layer_1604" xmlns="http://www.w3.org/2000/svg" xmlns:xlink="http://www.w3.org/1999/xlink" x="0px" y="0px"
	 width="128px" height="128px" viewBox="0 0 128 128" enable-background="new 0 0 128 128" xml:space="preserve">
<g id="oQhoZz.tif">
	<g>
		<path fill-rule="evenodd" clip-rule="evenodd" d="M76.929,55.328c0.103,2.533,0.063,5.074,0.015,7.602
			c-0.062,3.251-0.474,6.498-0.796,9.742c-0.247,2.49-0.229,4.84,1.191,7.116c1.546,2.477,2.769,5.155,4.128,7.747
			c0.107,0.205,0.312,0.437,0.155,0.657c-0.172,0.242-0.453,0.089-0.676,0.026c-1.924-0.548-3.852-1.079-5.761-1.673
			c-0.781-0.243-1.076-0.103-1.252,0.759c-1.036,5.068-2.323,10.074-3.97,14.98c-0.283,0.842,0.027,1.356,0.467,1.979
			c4.258,6.047,6.464,12.745,6.291,20.175c-0.065,2.815-0.406,3.029-2.989,1.989c-3.106-1.249-5.46-3.354-7.077-6.284
			c-0.141-0.256-0.25-0.531-0.401-0.78c-0.2-0.329-0.237-0.941-0.587-0.94c-0.339,0.002-0.362,0.598-0.485,0.947
			c-0.575,1.625-1.382,3.119-2.475,4.457c-1.448,1.772-3.24,3.096-5.321,4.023c-1.251,0.559-1.643,0.36-1.925-1.002
			c-0.985-4.745-0.459-9.422,0.754-14.047c0.809-3.082,2-6.02,3.732-8.707c0.388-0.602,0.425-1.098,0.161-1.752
			c-2.121-5.252-3.869-10.628-5.229-16.13c-0.283-1.146-0.311-1.146-1.421-0.573c-1.171,0.602-2.333,1.224-3.507,1.82
			c-0.233,0.117-0.484,0.449-0.76,0.16c-0.182-0.189,0.02-0.457,0.087-0.682c0.756-2.522,1.493-5.051,2.279-7.564
			c0.688-2.199,1.073-4.385,0.631-6.719c-0.617-3.259-0.911-6.574-0.945-9.887c-0.051-4.921-0.303-9.849,0.138-14.767
			c0.052-0.583,0.068-1.17,0.071-1.755c0.001-0.31,0.168-0.763-0.285-0.842c-0.307-0.053-0.707,0.055-0.971,0.231
			c-0.391,0.263,0.028,0.481,0.164,0.689c0.195,0.301,0.118,0.442-0.225,0.441c-0.244-0.001-0.493-0.005-0.729-0.056
			c-1.608-0.345-3.186-0.289-4.75,0.257c-0.484,0.169-0.901,0.226-0.499-0.565c0.188-0.373-0.35-0.316-0.583-0.385
			c-0.323-0.094-0.596-0.005-0.601,0.394c-0.005,0.39,0.027,0.78,0.051,1.169c0.272,4.431,0.426,8.857,0.323,13.306
			c-0.065,2.818-0.038,5.637-0.33,8.443c-0.186,1.785-0.53,3.544-0.612,5.353c-0.072,1.608,0.409,2.956,1.16,4.281
			c1.516,2.673,3.046,5.339,4.558,8.014c0.132,0.233,0.443,0.502,0.223,0.77c-0.214,0.259-0.554,0.026-0.816-0.042
			c-1.981-0.518-3.967-1.023-5.93-1.607c-0.868-0.258-1.192-0.045-1.389,0.848c-1.087,4.959-2.46,9.842-4.136,14.635
			c-0.251,0.719-0.052,1.188,0.368,1.723c3.356,4.27,5.434,9.113,6.362,14.447c0.386,2.215,0.604,4.453,0.266,6.7
			c-0.205,1.358-0.529,1.554-1.874,1.148c-3.975-1.198-7.007-3.558-8.922-7.284c-0.198-0.387-0.53-1.105-0.628-1.076
			c-0.529,0.154-0.485,0.771-0.654,1.204c-1.503,3.854-4.24,6.487-7.981,8.13c-1.422,0.624-1.776,0.436-2.11-1.101
			c-0.902-4.146-0.511-8.257,0.469-12.325c0.839-3.486,2.194-6.774,4.202-9.761c0.427-0.636,0.525-1.136,0.208-1.867
			c-2.2-5.062-3.991-10.271-5.425-15.603c-0.346-1.285-0.371-1.289-1.53-0.731c-1.274,0.614-2.537,1.253-3.81,1.868
			c-0.202,0.097-0.445,0.311-0.65,0.143c-0.222-0.182-0.047-0.453,0.025-0.68c0.776-2.413,1.508-4.844,2.348-7.236
			c0.888-2.529,1.273-5.082,0.762-7.74c-0.451-2.346-0.778-4.746-0.883-7.098c-0.256-5.739-0.415-11.5,0.109-17.245
			c0.014-0.146,0.03-0.291,0.04-0.437c0.076-1.139,0.071-1.159-1.093-0.894c-1.854,0.422-3.702,0.879-5.556,1.305
			c-0.406,0.094-0.95,0.428-1.204,0.056c-0.197-0.288,0.351-0.624,0.586-0.916c2.604-3.229,5.214-6.453,7.846-9.66
			c0.542-0.66,0.87-1.354,1.031-2.208c2.115-11.244,5.78-21.96,11.001-32.143c0.111-0.217,0.207-0.445,0.345-0.645
			c0.563-0.814,1.188-0.82,1.705,0c0.206,0.328,0.34,0.701,0.497,1.059c4.798,10.912,8.112,22.255,9.872,34.046
			c0.137,0.915,0.47,1.637,1.161,2.269c1.152,1.053,2.247,2.17,3.335,3.29c0.44,0.453,0.701,0.489,1.11-0.065
			c1.652-2.237,3.346-4.444,5.041-6.649c0.35-0.455,0.416-0.971,0.508-1.5c2.004-11.404,5.453-22.348,10.451-32.798
			c0.281-0.589,0.393-1.433,1.252-1.453c0.976-0.023,1.043,0.903,1.307,1.54c4.666,11.283,7.826,22.976,9.506,35.068
			c0.09,0.644,0.23,1.228,0.704,1.718c1.321,1.37,2.629,2.753,3.921,4.149c0.431,0.465,0.745,0.68,1.262,0.05
			c1.484-1.812,3.021-3.58,4.546-5.357c0.405-0.472,0.505-1.046,0.617-1.619c2.114-10.805,5.84-21.033,10.993-30.75
			c0.206-0.387,0.397-0.794,0.672-1.129c0.476-0.582,1.004-0.564,1.457,0.031c0.203,0.267,0.329,0.596,0.473,0.905
			c4.949,10.636,8.364,21.742,10.184,33.332c0.131,0.834,0.497,1.432,1.093,1.985c2.396,2.225,4.772,4.47,7.142,6.724
			c0.227,0.216,0.731,0.401,0.553,0.746c-0.153,0.294-0.634,0.083-0.96,0.048c-1.648-0.175-3.293-0.395-4.942-0.564
			c-1.771-0.183-1.805-0.163-1.647,1.563c0.302,3.31,0.316,6.627,0.348,9.946c0.018,1.852-0.124,3.7-0.037,5.555
			c0.114,2.443-0.493,4.834-0.721,7.255c-0.138,1.458-0.132,2.917-0.249,4.374c-0.082,1.021,0.562,1.926,1.081,2.799
			c1.57,2.643,3.149,5.279,4.719,7.922c0.146,0.246,0.432,0.541,0.271,0.789c-0.181,0.279-0.531,0.06-0.807-0.01
			c-2.08-0.527-4.17-1.021-6.236-1.598c-0.735-0.205-1.025-0.072-1.2,0.693c-1.123,4.902-2.562,9.715-4.287,14.438
			c-0.227,0.619-0.03,0.988,0.34,1.432c3.483,4.18,5.659,8.972,6.578,14.325c0.355,2.07,0.572,4.16,0.221,6.263
			c-0.209,1.247-0.549,1.49-1.793,1.127c-4.015-1.17-7.199-3.414-9.182-7.188c-0.091-0.173-0.178-0.348-0.269-0.52
			c-0.109-0.207-0.188-0.498-0.453-0.482c-0.104,0.007-0.207,0.305-0.282,0.48c-0.191,0.448-0.35,0.912-0.552,1.354
			c-1.654,3.62-4.494,5.947-8.13,7.378c-1.098,0.432-1.469,0.23-1.755-0.964c-0.894-3.734-0.643-7.466,0.186-11.169
			c0.85-3.797,2.303-7.351,4.571-10.535c0.386-0.543,0.453-0.982,0.174-1.596c-2.266-4.982-4.138-10.11-5.594-15.387
			c-0.218-0.789-0.469-1.048-1.281-0.624c-1.34,0.696-2.731,1.296-4.106,1.925c-0.203,0.093-0.434,0.324-0.657,0.108
			c-0.213-0.206-0.016-0.462,0.052-0.675c0.31-0.977,0.625-1.951,0.972-2.914c0.857-2.383,1.564-4.811,2.298-7.232
			c0.411-1.356-0.062-2.618-0.247-3.898c-0.866-6-1.255-12.012-0.962-18.078c0.104-2.142,0.254-4.285,0.316-6.43
			c0.019-0.643-0.124-0.895-0.818-0.733c-2.185,0.508-4.374,1.002-6.571,1.451c-0.817,0.167-0.821,0.686-0.758,1.309
			C76.925,51.228,76.899,53.279,76.929,55.328z M68.399,31.771c-0.281,0.07-0.569,0.121-0.843,0.214
			c-3.77,1.274-7.38,0.922-10.836-1.046c-0.254-0.145-0.51-0.285-0.761-0.433c-0.204-0.12-0.377-0.106-0.455,0.132
			c-0.179,0.544-0.512,1.131,0.311,1.468c0.54,0.221,1.067,0.484,1.621,0.661c3.787,1.204,7.459,1.111,10.938-1.019
			c0.044-0.011,0.09-0.02,0.132-0.036c0.031-0.014,0.06-0.039,0.089-0.058C68.53,31.692,68.465,31.731,68.399,31.771z
			 M102.667,33.53c-0.85,0.191-1.696,0.403-2.552,0.569c-3.584,0.694-6.944,0.017-10.141-1.672
			c-0.261-0.138-0.588-0.551-0.882-0.153c-0.252,0.34-0.393,0.827-0.123,1.221c0.145,0.211,0.479,0.311,0.743,0.421
			c1.998,0.832,4.095,1.291,6.244,1.228c2.324-0.067,4.647-0.32,6.687-1.638c0.055-0.066,0.233,0.063,0.208-0.132
			C102.79,33.425,102.729,33.478,102.667,33.53z M33.859,32.655c-4.314,1.137-8.468,0.906-12.361-1.474
			c-0.46-0.281-0.583-0.01-0.705,0.345c-0.237,0.69,0.026,1.07,0.688,1.338c2.477,1.008,5.04,1.515,7.699,1.183
			c1.614-0.203,3.279-0.379,4.657-1.417c0.113-0.018,0.254,0.036,0.312-0.122c-0.035-0.013-0.088-0.046-0.104-0.034
			C33.978,32.527,33.92,32.594,33.859,32.655z M37.353,83.865c0.082-0.115,0.217-0.223,0.237-0.348
			c0.441-2.741,0.943-5.476,1.287-8.229c0.951-7.623,0.937-15.274,0.461-22.927c-0.273-4.382-0.824-8.734-1.648-13.048
			c-0.038-0.196,0.058-0.466-0.226-0.573c-0.021,0.192-0.067,0.386-0.06,0.578c0.093,2.338,0.168,4.678,0.298,7.015
			c0.402,7.21,0.137,14.43,0.326,21.643c0.049,1.849-0.127,3.694-0.263,5.543c-0.252,3.446-0.545,6.9-0.391,10.366
			c-0.016,0.073-0.218,0.107-0.047,0.221C37.336,84.025,37.344,83.945,37.353,83.865z M56.362,50.309
			c0-4.291,0.003-7.171-0.007-10.05c0-0.203,0.087-0.442-0.111-0.616c-0.054,0.182-0.13,0.361-0.157,0.548
			c-0.496,3.33-0.919,6.674-1.061,10.035c-0.268,6.342-0.171,12.68,0.499,19.002c0.577,5.448,1.793,10.771,3.06,16.084
			c0.062,0.261,0.219,0.501,0.332,0.751c0.006-0.24,0.039-0.483,0.013-0.721c-0.493-4.46-1.022-8.916-1.481-13.381
			c-0.309-3.003-0.548-6.015-0.764-9.026c-0.087-1.214,0.071-2.447-0.056-3.653C56.265,55.824,56.499,52.355,56.362,50.309z
			 M21.799,49.656c0-2.731,0.003-5.461-0.003-8.191c-0.001-0.428-0.046-0.855-0.07-1.283c-0.269,0.368-0.305,0.816-0.362,1.235
			c-1.095,7.997-1.394,16.014-0.545,24.055c0.332,3.146,0.67,6.294,1.086,9.427c0.409,3.083,1.166,6.123,2.005,9.13
			c0.117,0.417,0.189,0.849,0.448,1.212c0.245-0.465,0.029-0.924-0.027-1.383c-0.567-4.588-1.084-9.184-1.729-13.762
			c-0.241-1.709-0.041-3.408-0.203-5.104C21.911,59.892,21.834,54.773,21.799,49.656z M73.083,55.958
			c0-0.83,0.013-1.659-0.002-2.488c-0.084-4.842-0.808-9.617-1.509-14.395c-0.05-0.334-0.104-0.674-0.35-0.939
			c-0.153,0.315-0.063,0.647-0.046,0.967c0.382,7.018,0.406,14.043,0.489,21.068c0.033,2.823,0.077,5.633-0.193,8.451
			c-0.14,1.446-0.243,2.927,0.021,4.379c0.214,1.173,0.178,2.328-0.03,3.489c-0.441,2.462-0.395,4.954-0.445,7.439
			c-0.005,0.211-0.069,0.464,0.17,0.619c0.061-0.18,0.14-0.354,0.178-0.535c0.773-3.82,1.025-7.711,1.453-11.573
			c0.326-2.947,0.22-5.937,0.362-8.897C73.304,61.003,73.175,58.486,73.083,55.958z M89.867,50.648c0-0.951,0.002-1.731,0-2.512
			c-0.007-2.194-0.027-4.389,0.111-6.581c0.01-0.15,0.108-0.36-0.109-0.45c-0.018-0.007-0.163,0.224-0.201,0.358
			c-0.065,0.233-0.098,0.476-0.136,0.716c-1.307,8.227-1.303,16.493-0.545,24.755c0.517,5.637,1.644,11.183,3.198,16.632
			c0.104,0.365,0.146,0.768,0.423,1.069c0.189-0.382,0.044-0.763-0.009-1.143c-1.035-7.472-1.976-14.945-2.312-22.499
			C90.132,57.49,90.215,53.974,89.867,50.648z M107.96,56.223c-0.233-5.583-0.812-10.711-1.767-15.796
			c-0.034-0.184-0.1-0.361-0.15-0.542c-0.282,0.135-0.165,0.396-0.159,0.595c0.038,1.51,0.066,3.022,0.152,4.53
			c0.365,6.42,0.302,12.853,0.514,19.278c0.035,1.065-0.329,2.093-0.282,3.187c0.115,2.674-0.233,5.35-0.029,8.03
			c0.036,0.478-0.039,0.977-0.135,1.451c-0.415,2.066-0.3,4.169-0.448,6.253c-0.011,0.142,0.03,0.288,0.047,0.432
			c0.245-0.051,0.182-0.273,0.206-0.42c0.346-2.058,0.792-4.091,0.948-6.189c0.166-2.223,0.71-4.405,0.872-6.65
			c0.184-2.531,0.034-5.066,0.213-7.58C108.108,60.457,107.839,58.136,107.96,56.223z M31.575,25.932
			c2.203-0.021,3.991-1.852,3.938-4.032c-0.053-2.129-1.826-3.867-3.963-3.882c-2.198-0.016-4.004,1.778-4,3.976
			C27.553,24.194,29.352,25.954,31.575,25.932z M99.828,19.514c-2.188,0.007-3.934,1.693-3.959,3.824
			c-0.026,2.177,1.8,3.963,4.019,3.93c2.194-0.032,3.945-1.723,3.973-3.835C103.888,21.28,102.063,19.507,99.828,19.514z
			 M69.386,21.153c-0.001-2.248-1.641-4.009-3.752-4.03c-2.082-0.021-3.851,1.774-3.883,3.942c-0.033,2.239,1.75,4.142,3.866,4.127
			C67.704,25.178,69.388,23.373,69.386,21.153z M76.584,46.448c0.127,0.302-0.195,0.783,0.317,0.96
			c0.169,0.058,1.264-1.202,1.202-1.378c-0.145-0.407-0.552-0.288-0.851-0.361C76.583,45.505,76.557,45.952,76.584,46.448z"/>
		<path fill-rule="evenodd" clip-rule="evenodd" d="M33.837,22.011c-0.014,1.265-1.082,2.273-2.374,2.242
			c-1.22-0.029-2.223-1.021-2.252-2.227c-0.029-1.255,1.027-2.317,2.307-2.318C32.81,19.707,33.851,20.741,33.837,22.011z"/>
		<path fill-rule="evenodd" clip-rule="evenodd" d="M102.179,23.431c-0.027,1.186-1.053,2.151-2.298,2.164
			c-1.271,0.012-2.41-1.063-2.386-2.254c0.023-1.212,1.152-2.187,2.473-2.133C101.236,21.258,102.206,22.233,102.179,23.431z"/>
		<path fill-rule="evenodd" clip-rule="evenodd" d="M67.766,21.172c-0.014,1.225-1.028,2.332-2.16,2.355
			c-1.177,0.023-2.206-1.153-2.16-2.47c0.045-1.292,1.019-2.284,2.206-2.248C66.827,18.846,67.778,19.909,67.766,21.172z"/>
	</g>
</g>
</svg>
