<?xml version="1.0" encoding="utf-8"?>
<!-- Generator: Adobe Illustrator 16.0.0, SVG Export Plug-In . SVG Version: 6.00 Build 0)  -->
<!DOCTYPE svg PUBLIC "-//W3C//DTD SVG 1.1//EN" "http://www.w3.org/Graphics/SVG/1.1/DTD/svg11.dtd">
<svg version="1.1" id="Layer_1605" xmlns="http://www.w3.org/2000/svg" xmlns:xlink="http://www.w3.org/1999/xlink" x="0px" y="0px"
	 width="128px" height="128px" viewBox="0 0 128 128" enable-background="new 0 0 128 128" xml:space="preserve">
<g>
	<path d="M83.147,70.627c1.207,0.561,2.559,0.012,3.082-1.251c0.472-1.136-0.099-2.521-1.232-2.993
		c-1.105-0.461-2.557,0.119-3.031,1.211C81.487,68.692,82.042,70.113,83.147,70.627z"/>
	<path d="M127.298,57.54c-0.389-13.239-11.445-21.934-22.461-21.91c-27.066,0.058-54.133,0.019-81.2,0.021
		c-1.079,0-2.154,0.021-3.227,0.221c-2.863,0.534-2.824,0.518-2.781-2.351c0.015-0.99,0.282-1.384,1.321-1.348
		c1.918,0.068,3.841,0.037,5.761,0.014c3.594-0.044,6.08-2.509,6.16-6.117c0.035-1.619-0.043-3.243,0.016-4.861
		c0.101-2.766-2.343-6.235-6.158-6.156c-5.999,0.125-12.003,0.013-18.005,0.042c-3.47,0.017-5.902,2.327-6.086,5.79
		c-0.092,1.735-0.085,3.482-0.013,5.22c0.155,3.756,2.6,6.062,6.366,6.084c1.86,0.011,3.722,0.04,5.581-0.011
		c0.945-0.026,1.287,0.327,1.233,1.259c-0.059,1.017-0.13,2.057,0.019,3.056c0.256,1.731-1.085,2.356-2.351,2.535
		c-0.59,0.083-1.199,0.02-1.799,0.031c-3.146,0.061-4.253,1.121-4.244,4.242c0.003,1.302-0.258,2.434-0.951,3.561
		c-2.194,3.565-3.085,7.513-3.099,11.665C1.348,69.147,1.3,79.768,1.351,90.387c0.018,3.696,0.82,7.266,2.704,10.506
		c0.887,1.525,1.461,3.043,1.41,4.893c-0.067,2.408,1.266,3.607,3.662,3.744c0.598,0.034,1.2,0.027,1.8,0.008
		c0.74-0.025,1.398,0.16,2.054,0.525c3.698,2.059,7.746,2.91,11.995,2.884c13.143-0.079,25.52-0.028,39.52-0.028
		c0-0.017,0-0.033,0-0.049c14,0,27.877,0.111,41.858-0.041c8.957-0.098,17.833-7.494,20.11-16.146
		c0.885-3.357,0.916-6.736,0.898-10.164C127.315,76.857,127.581,67.191,127.298,57.54z M5.474,63.025
		c-0.035,4.553-0.041,9.107-0.061,13.66C5.386,82.92,5.409,89.152,5.41,95.387c0,0.479-0.009,0.959-0.025,1.438
		c-0.006,0.164-0.027,0.381-0.229,0.393c-0.216,0.013-0.261-0.219-0.313-0.379c-0.432-1.309-0.9-2.641-0.921-4.01
		C3.737,80.367,3.616,67.904,3.946,55.443c0.041-1.581,0.503-3.143,1.312-4.553c-0.002-0.018-0.003-0.037-0.005-0.055l0.022,0.023
		c-0.006,0.011-0.012,0.021-0.018,0.032C5.678,54.928,5.506,58.984,5.474,63.025z M7.213,29.888
		c-2.717-0.007-4.12-1.377-4.173-4.042c-0.029-1.496-0.033-2.994,0-4.491c0.056-2.53,1.361-3.873,3.894-3.915
		c2.934-0.048,5.868-0.011,8.802-0.011c2.814-0.003,5.629-0.021,8.443,0.002c2.94,0.026,4.262,1.323,4.351,4.276
		c0.043,1.375,0.055,2.757-0.021,4.13c-0.149,2.715-1.532,4.036-4.229,4.046C18.59,29.905,12.901,29.904,7.213,29.888z
		 M9.896,107.059c-1.972-0.008-2.037-0.078-2.038-2.018C7.853,94.779,7.855,84.52,7.855,74.259c0-10.199-0.003-20.397,0.001-30.597
		c0.001-2.177,0.024-2.201,2.218-2.206c3.72-0.01,7.44-0.005,11.16-0.002c2.402,0.001,2.418,0.004,2.419,2.375
		c0.004,16.081,0.002,32.162,0.001,48.243c-0.001,4.38,0.007,8.759-0.013,13.138c-0.008,1.695-0.152,1.842-1.865,1.85
		C17.815,107.078,13.855,107.073,9.896,107.059z M124.472,94.64c-1.424,7.683-8.714,14.606-16.45,15.623
		c-1.613,0.212-3.22,0.304-4.842,0.303c-26.165-0.007-52.328-0.01-78.493,0.002c-1.81,0.001-3.589-0.2-5.355-0.55
		c-0.21-0.041-0.495-0.043-0.588-0.334c0.217-0.046,0.434-0.129,0.651-0.133c0.9-0.017,1.801-0.01,2.7-0.01
		c0.79,0,1.681,0.006,2.226-0.541c1.077-1.083,2.349-0.965,3.667-0.965c23.763,0.009,47.525,0.007,71.287,0
		c3.755-0.002,7.414-0.51,10.812-2.245c2.168-1.107,4.051-2.44,5.633-4.01c2.638-2.616,4.44-5.894,5.338-9.89
		c0.293-1.307,0.303-2.621,0.305-3.938c0.016-9.121-0.067-18.242,0.028-27.362c0.083-7.885-4.537-14.179-10.532-17.451
		c-0.545-0.297-1.102-0.57-1.667-0.816c-2.261-0.986-4.664-1.555-7.049-1.638c-1.14-0.04-2.28-0.072-3.42-0.072
		c-23.886-0.004-47.768-0.005-71.653,0.007l0,0c0,0-0.001,0-0.002,0c-0.86,0.001-1.601-0.044-2.275-0.738
		c-0.769-0.792-1.759-0.828-2.754-0.826c-0.164,0-0.328,0.001-0.491,0c-0.167,0-0.333-0.004-0.498-0.013
		c-0.384-0.021-0.772,0.024-1.157,0.032c-0.389,0.01-0.776-0.017-1.153-0.183c0.668-0.602,1.541-0.496,2.332-0.681
		c1.072-0.251,2.161-0.319,3.252-0.326c1.079-0.007,2.16,0.046,3.235,0.043c12.302-0.043,24.937-0.021,36.937-0.021
		c0,0.012,0,0.023,0,0.035c13,0,26.614-0.01,39.937,0.003c9.226,0.009,17.06,5.823,19.786,14.678c0.621,2.02,0.707,4.13,0.709,6.231
		c0.006,8.7-0.017,17.4-0.021,26.101C124.905,88.189,125.067,91.424,124.472,94.64z M35.929,67.638
		c-0.368-0.457-0.35-0.698,0.188-0.97c1.367-0.686,1.642-0.627,2.644,0.57c0.415,0.495,0.768,1.059,1.346,1.399
		c-0.116-0.777-0.653-1.352-0.979-2.028c-0.206-0.432-0.351-0.814,0.271-1.019c0.501-0.163,0.977-0.433,1.328,0.291
		c0.367,0.753,0.406,1.679,1.137,2.244c0.131-0.833-0.289-1.562-0.462-2.335c-0.128-0.573-0.05-0.919,0.564-1.078
		c0.734-0.191,0.767,0.316,0.877,0.799c0.196,0.863,0.134,1.784,0.578,2.591c0.185-1.026,0.018-2.062,0.071-3.094
		c0.04-0.785,1.605-1.779,2.233-1.403c0.298,0.178,0.219,0.5,0.193,0.783c-0.073,0.813-0.154,1.626-0.213,2.439
		c-0.009,0.124,0.085,0.256,0.132,0.383c0.08-0.106,0.204-0.202,0.234-0.322c0.247-0.977,0.475-1.96,0.712-2.939
		c0.102-0.418,0.152-0.906,0.721-0.934c0.514-0.023,0.944,0.207,1.199,0.658c0.291,0.517,0.398,1.086,0.259,1.671
		c-0.601,2.522-1.216,5.04-1.815,7.562c-0.147,0.615-0.486,0.984-1.104,1.192c-1.32,0.447-2.611,0.983-3.818,1.687
		c-0.501,0.293-0.854,0.217-1.285-0.137c-2.117-1.732-4.273-3.416-6.38-5.16c-0.675-0.56-1.24-1.252-0.832-2.254
		c0.247-0.606,0.583-0.815,1.21-0.391c0.776,0.525,1.409,1.271,2.338,1.567C37.024,68.672,36.393,68.215,35.929,67.638z
		 M70.012,75.424c-1.718-2.314-3.431-4.634-5.097-6.985c-0.514-0.724-1.217-0.896-1.987-0.975c-2.761-0.283-5.467-0.052-8.098,0.888
		c-0.43,0.153-0.876,0.265-1.316,0.393c-0.014,0.016-0.03,0.027-0.044,0.043l-0.012-0.027c0.019-0.006,0.037-0.011,0.056-0.016
		c1.112-1.218,2.674-1.568,4.148-2.008c2.129-0.637,4.331-0.766,6.557-0.584c0.73,0.059,1.233,0.326,1.714,0.867
		c1.623,1.828,3.284,3.625,4.966,5.4c0.264,0.278,0.465,1.129,1.015,0.578c0.434-0.436,1.055-1.063,0.39-1.881
		c-0.665-0.818-1.261-1.692-1.882-2.545c-1.473-2.015-2.947-4.027-4.408-6.049c-0.363-0.504-0.828-0.731-1.44-0.814
		c-3.356-0.459-6.6-0.111-9.717,1.258c-0.215,0.094-0.45,0.141-0.676,0.211l-0.042-0.095c2.228-1.788,4.889-2.438,7.625-2.733
		c4.141-0.447,4.152-0.39,6.957,2.658c1.529,1.663,3.042,3.342,4.549,5.025c0.863,0.964,0.967,0.979,1.617-0.084
		c2.918-4.766,6.337-9.168,9.841-13.508c0.06-0.075,0.108-0.163,0.177-0.228c0.207-0.192,0.385-0.608,0.627-0.521
		c0.271,0.098,0.152,0.509,0.11,0.789c-0.118,0.808-0.255,1.614-0.372,2.422c-0.025,0.179-0.146,0.371,0.02,0.547
		c0.105-0.151,0.232-0.292,0.312-0.456c1.139-2.334,2.268-4.674,3.412-7.006c0.112-0.229,0.125-0.678,0.477-0.581
		c0.318,0.088,0.18,0.49,0.167,0.764c-0.051,1.057-0.034,2.124-0.183,3.167c-0.176,1.236,0.225,1.928,1.416,2.419
		c3.02,1.245,5.586,3.208,7.838,5.542c3.613,3.746,5.577,8.241,5.777,13.468c0.018,0.457,0.104,0.937-0.163,1.362
		c0.004,0.011,0.005,0.022,0.009,0.033l-0.028,0.009c0.01-0.014,0.011-0.028,0.02-0.042c-0.381-1.086-0.238-2.238-0.416-3.354
		c-0.903-5.674-3.815-10.077-8.362-13.458c-1.537-1.145-3.136-2.225-4.924-2.96c-0.382-0.157-0.906-0.699-1.235-0.065
		c-0.3,0.577-0.194,1.193,0.499,1.592c1.086,0.625,2.004,1.484,2.945,2.301c3.807,3.3,6.533,7.292,7.494,12.304
		c0.578,3.004,0.756,6.036-0.334,8.995c0.001,0.026-0.003,0.053-0.002,0.08l-0.026,0.007c0.011-0.029,0.018-0.059,0.028-0.087
		c-0.057-1.548,0.365-3.052,0.343-4.611c-0.11-7.917-3.999-13.635-10.292-17.988c-0.864-0.598-0.938-0.562-1.029,0.525
		c-0.348,4.12-0.887,8.214-1.697,12.269c-0.85,4.251-1.952,8.434-3.893,12.341c-0.967,1.947-2.099,3.804-3.973,5.028
		c-2.346,1.533-4.75,1.293-7.115,0.039c-2.43-1.287-3.442-3.457-3.355-6.086c0.039-1.188-0.194-2.099-0.92-3.024
		c-1.45-1.854-2.814-3.776-4.178-5.696c-0.406-0.572-0.923-0.768-1.576-0.846c-3.21-0.396-6.325-0.125-9.32,1.184
		c-0.463,0.202-0.915,0.473-1.44,0.515c-0.01,0.012-0.023,0.02-0.033,0.032l-0.011-0.025c0.015-0.001,0.029-0.006,0.044-0.007
		c0.684-0.851,1.713-1.169,2.64-1.587c2.951-1.329,6.059-1.785,9.288-1.462c0.573,0.058,0.97,0.249,1.349,0.675
		c1.371,1.545,2.768,3.064,4.174,4.576c0.819,0.881,0.875,0.834,1.299-0.325C70.541,76.38,70.387,75.928,70.012,75.424z
		 M53.391,83.389c4.474,2.886,8.957,2.762,13.431,0.001c1.053-0.649,1.064-0.677,1.15,0.53c0.309,4.384,4.18,6.801,7.84,7.074
		c0.286,0.021,0.576-0.026,0.865-0.02c0.225,0.006,0.537-0.083,0.602,0.218c0.026,0.123-0.177,0.331-0.318,0.45
		c-1.146,0.951-2.292,1.91-3.561,2.696c-1.433,0.888-2.974,1.567-4.52,2.241c-0.967,0.421-1.619,0.215-2.187-0.643
		c-0.798-1.201-1.635-2.377-2.147-3.742c-0.07-0.19-0.094-0.547-0.408-0.444c-0.168,0.056-0.05,0.34-0.018,0.521
		c0.27,1.475,0.676,2.91,1.395,4.23c0.361,0.663,0.23,0.951-0.518,1.026c-1.773,0.176-3.533,0.235-5.32,0.017
		c-1.043-0.128-1.398-0.643-1.509-1.55c-0.123-1.004-0.208-2.008-0.183-3.021c0.007-0.277,0.042-0.808-0.092-0.788
		c-0.363,0.051-0.349,0.504-0.396,0.805c-0.156,0.995-0.302,1.996-0.374,3.002c-0.054,0.748-0.332,0.859-1.003,0.623
		c-1.928-0.679-3.649-1.713-5.289-2.908c-0.437-0.316-0.562-0.691-0.464-1.244c0.211-1.201,0.687-2.301,1.122-3.421
		c0.071-0.183,0.323-0.382,0.078-0.583c-0.031-0.027-0.308,0.182-0.421,0.322c-0.578,0.713-1.048,1.494-1.456,2.314
		c-0.332,0.668-0.69,0.99-1.364,0.271c-1.661-1.77-2.982-3.762-4.088-5.91c-0.246-0.479-0.021-0.812,0.279-1.16
		c0.432-0.499,1.063-0.802,1.378-1.412c-0.52-0.084-0.876,0.276-1.275,0.497c-1.098,0.611-1.095,0.624-1.595-0.592
		c-0.679-1.648-1.118-3.372-1.616-5.079c-0.197-0.68,0.141-0.952,0.658-1.229c1.234-0.66,2.539-1.146,3.827-1.678
		c0.814-0.335,1.113-0.125,1.456,0.701C48.654,78.658,50.438,81.483,53.391,83.389z"/>
</g>
</svg>
