<?xml version="1.0" encoding="utf-8"?>
<!-- Generator: Adobe Illustrator 16.0.0, SVG Export Plug-In . SVG Version: 6.00 Build 0)  -->
<!DOCTYPE svg PUBLIC "-//W3C//DTD SVG 1.1//EN" "http://www.w3.org/Graphics/SVG/1.1/DTD/svg11.dtd">
<svg version="1.1" id="Layer_1701" xmlns="http://www.w3.org/2000/svg" xmlns:xlink="http://www.w3.org/1999/xlink" x="0px" y="0px"
	 width="128px" height="128px" viewBox="0 0 128 128" enable-background="new 0 0 128 128" xml:space="preserve">
<g id="SX7tKB.tif">
	<g>
		<path fill-rule="evenodd" clip-rule="evenodd" d="M10.807,29.751c0-3.395-0.025-6.791,0.007-10.185
			c0.032-3.389,1.86-5.32,5.257-5.352c6.869-0.063,13.739-0.06,20.607,0.002c3.228,0.029,5.06,1.984,5.073,5.261
			c0.027,6.79-0.044,13.581,0.066,20.37c0.017,1.066-1.144,2.436,0.121,3.139c0.855,0.475,2.16,0.157,3.263,0.166
			c1.895,0.016,3.791-0.028,5.685,0.022c3.409,0.092,5.376,1.905,5.441,5.242c0.131,6.707,0.191,13.415,0.174,20.123
			c-0.008,3.569-1.995,5.555-5.571,5.682c-2.759,0.098-5.525,0.007-8.289,0.033c-0.552,0.005-1.437-0.232-1.231,0.846
			c0.736,3.838,0.183,7.708,0.338,11.56c0.022,0.552,0.06,1.109,0.01,1.656c-0.108,1.211,0.382,1.599,1.614,1.659
			c5.698,0.28,10.865-0.999,15.669-4.245c8.307-5.617,17.025-10.541,26.204-14.637c6.264-2.795,12.749-4.966,19.453-6.209
			c4.211-0.779,8.547-1.476,12.91-0.944c4.88,0.594,9.764,5.482,10.348,10.356c0.562,4.691-3.197,8.203-7.954,7.373
			c-19.329-3.374-37.675-0.253-55.11,8.494c-6.197,3.109-11.563,7.312-15.794,12.934c-11.868,15.773-35.264,12.324-44.469,1.483
			c-1.859-2.19-3.385-4.551-4.291-7.291c-1.215-3.675,0.849-6.923,4.709-7.295c1.33-0.127,2.687-0.113,4.022-0.029
			c1.339,0.082,1.787-0.426,1.76-1.757c-0.071-3.393-0.033-6.79-0.022-10.185c0.012-3.971,1.602-5.559,5.527-5.778
			c2.593-0.146,5.176-0.034,7.762,0.023c0.945,0.021,1.432-0.081,1.311-1.295c-0.372-3.761-0.358-7.524-0.103-11.313
			c0.255-3.773,0.093-7.577,0.032-11.365c-0.015-0.998,0.841-2.219,0.142-2.862c-0.764-0.701-2.116-0.233-3.209-0.254
			c-1.973-0.037-3.947,0.001-5.921-0.017c-3.825-0.036-5.51-1.691-5.535-5.462C10.79,36.384,10.807,33.067,10.807,29.751z
			 M53.51,71.109c0.664-0.65,0.851-1.441,0.848-2.359c-0.025-6.621,0.006-13.243-0.028-19.864c-0.013-2.667-1.06-3.691-3.76-3.704
			c-6.543-0.029-13.086-0.029-19.63,0c-2.638,0.012-3.565,0.909-3.574,3.551c-0.021,6.776,0.006,13.553,0.062,20.329
			c0.02,2.336,1.048,3.363,3.379,3.183c5.501-0.427,10.996,0.312,16.485,0.014c2.104-0.114,4.489,0.857,6.252-1.184L53.51,71.109z
			 M39.759,29.629c-0.004,0-0.009,0-0.014,0c0-3.315,0.03-6.63-0.009-9.945c-0.03-2.542-0.906-3.446-3.408-3.458
			c-6.708-0.034-13.417-0.038-20.126-0.007c-2.341,0.01-3.354,0.994-3.366,3.286c-0.036,6.787-0.033,13.574-0.002,20.361
			c0.01,2.406,0.872,3.264,3.3,3.275c6.708,0.032,13.417,0.032,20.125,0.005c2.702-0.011,3.482-0.842,3.496-3.573
			C39.771,36.258,39.759,32.944,39.759,29.629z M26.088,89.943c0,0.006,0,0.013,0,0.019c3.861,0,7.722,0.012,11.583-0.006
			c2.054-0.011,2.08-0.034,2.089-2.137c0.014-3.389,0.014-6.776-0.027-10.164c-0.031-2.479-0.79-3.347-3.221-3.367
			c-6.854-0.058-13.71-0.057-20.563,0.002c-2.257,0.019-3.085,0.952-3.111,3.242c-0.041,3.545,0.06,7.093-0.046,10.635
			c-0.045,1.549,0.595,1.827,1.952,1.802C18.523,89.897,22.306,89.943,26.088,89.943z"/>
	</g>
</g>
</svg>
