<?xml version="1.0" encoding="utf-8"?>
<!-- Generator: Adobe Illustrator 16.0.0, SVG Export Plug-In . SVG Version: 6.00 Build 0)  -->
<!DOCTYPE svg PUBLIC "-//W3C//DTD SVG 1.1//EN" "http://www.w3.org/Graphics/SVG/1.1/DTD/svg11.dtd">
<svg version="1.1" id="Layer_1703" xmlns="http://www.w3.org/2000/svg" xmlns:xlink="http://www.w3.org/1999/xlink" x="0px" y="0px"
	 width="128px" height="128px" viewBox="0 0 128 128" enable-background="new 0 0 128 128" xml:space="preserve">
<g id="cjBuuF.tif">
	<g>
		<path fill-rule="evenodd" clip-rule="evenodd" d="M72.996,57.207c0.494-0.402,0.979-0.818,1.487-1.203
			c0.657-0.499,1.365-0.891,2.203-1.01c1.366-0.194,2.095,0.242,2.522,1.537c0.449,1.366,0.565,2.791,0.622,4.206
			c0.155,3.807-0.087,7.6-0.536,11.382c-0.202,1.692-0.4,3.385-0.695,5.063c-0.023,0.14-0.022,0.285-0.058,0.422
			c-0.049,0.196-0.064,0.493-0.311,0.466c-0.14-0.015-0.069-0.314-0.057-0.487c0.17-2.447,0.311-4.894,0.313-7.347
			c0.003-2.42-0.104-4.833-0.407-7.234c-0.13-1.023-0.312-2.043-0.766-2.98c-0.617-1.282-1.371-1.391-2.388-0.375
			c-0.639,0.639-1.06,1.425-1.459,2.218c-1.401,2.772-2.287,5.734-3.188,8.692c-0.205,0.679-0.36,1.375-0.584,2.047
			c-0.76,2.271-0.763,4.593-0.61,6.952c0.165,2.552,0.22,5.111,0.451,7.66c0.036,0.408-0.057,0.673-0.522,0.354
			c-0.183-0.125-0.539-0.253-0.562-0.153c-0.074,0.3,0.322,0.206,0.46,0.365c0.069,0.08,0.17,0.142,0.214,0.232
			c0.15,0.312,0.435,0.63,0.217,0.986c-0.178,0.292-0.515,0.138-0.789,0.129c-0.071-0.002-0.142-0.014-0.212-0.013
			c-0.33,0.007-0.661-0.085-0.985,0.029c0.343,0.081,0.686,0.167,1.03,0.242c0.103,0.023,0.213,0.011,0.318,0.024
			c0.936,0.118,0.99,0.248,0.453,1.111c-0.592-0.284-1.151-0.682-1.854-0.592c-0.167,0.02-0.492,0.039-0.406,0.282
			c0.044,0.118,0.309,0.497,0.557,0.319c0.589-0.427,1.148,0.048,1.715-0.021c0.125,0.527,0.054,1.061-0.007,1.58
			c-0.272,2.325-0.298,4.647,0.022,6.969c0.02,0.14,0.021,0.281,0.026,0.423c0.024,0.673,0.011,0.703-0.588,0.438
			c-0.467-0.208-0.867-0.329-1.186,0.198c-0.672,0.013-1.389,0.236-1.919-0.409c-0.013-0.062-0.008-0.137-0.041-0.184
			c-0.044-0.059-0.105-0.021-0.086,0.061c0.012,0.046,0.091,0.075,0.14,0.112c0.408,0.789,1.011,0.925,1.923,0.44
			c0.423-0.076,0.847-0.121,1.256,0.063c0.275,0.124,0.483,0.31,0.461,0.646c-0.022,0.354-0.275,0.479-0.573,0.519
			c-0.316,0.041-0.637,0.046-0.956,0.074c-0.104,0.008-0.207,0.036-0.311,0.057c0.097,0.027,0.189,0.062,0.288,0.079
			c0.104,0.019,0.214,0.012,0.317,0.031c0.453,0.084,0.947,0.104,1.313,0.393c0.434,0.341-0.045,0.756-0.054,1.138
			c-0.043,1.947-0.299,3.889-0.233,5.849c0.03,0.927,0.23,1.831,0.255,2.755c0.016,0.62-0.022,0.675-0.545,0.432
			c-0.455-0.211-0.811-0.229-1.278,0.038c-0.495,0.283-1.103,0.18-1.668,0.085l0.019,0.016c-0.199-0.63-0.225-0.639-0.657-0.219
			l0.016-0.014c-0.255-0.384-0.049-0.767,0.051-1.119c0.733-2.602,0.61-5.202,0.059-7.81c-0.036-0.173-0.021-0.415-0.13-0.507
			c-0.688-0.578-0.351-1.276-0.24-1.929c0.489-2.861,1.084-5.71,0.861-8.642c-0.026-0.354-0.062-0.722,0.002-1.065
			c0.104-0.554,0.041-0.933-0.582-1.124c-0.333-0.102-0.556-0.414-0.187-0.728c0.345-0.292-0.07-0.402-0.088-0.601
			c-0.029-0.296-0.096-0.556,0.403-0.477c0.655,0.102,1.267-0.377,1.948-0.236c0.079,0.017,0.202-0.085,0.188-0.213
			c-0.002-0.023-0.114-0.049-0.176-0.051c-0.392-0.006-0.802-0.084-1.167,0.011c-0.563,0.146-0.588-0.124-0.56-0.533
			c0.085-1.205,0.129-2.415,0.251-3.617c0.413-4.06,0.191-8.089-0.426-12.116c-0.633-4.117-1.458-8.183-2.82-12.127
			c-0.605-1.752-1.335-3.447-2.342-5.013c-0.485-0.754-1.043-1.445-1.742-2.006c-1.146-0.919-2.399-1.166-3.792-0.586
			c-1.718,0.714-2.937,1.974-3.892,3.517c-1.21,1.958-1.937,4.11-2.436,6.342c-0.716,3.206-0.957,6.453-0.874,9.732
			c0.026,1.017,0.412,1.941,0.617,2.912c0.362,1.707,0.539,3.447,0.616,5.183c0.122,2.768,0.38,5.54,0.082,8.315
			c-0.022,0.212-0.019,0.427-0.043,0.638c-0.011,0.103-0.057,0.283-0.092,0.284c-0.191,0.007-0.156-0.17-0.172-0.287
			c-0.22-1.549-0.488-3.086-0.85-4.61c-0.444-1.87-0.958-3.714-1.692-5.495c-0.592-1.437-0.74-2.966-0.856-4.486
			c-0.207-2.696-0.275-5.399-0.198-8.104l-0.011,0.012c0.226-0.317,0.144-0.683,0.153-1.034c0.056-2.529,0.345-5.031,0.909-7.499
			c0.366-1.596,1.15-2.98,2.243-4.186c2.306-2.546,5.05-4.344,8.497-4.943c1.006-0.175,1.984-0.085,2.956,0.175
			c0.906,0.244,1.548,0.834,2.041,1.615c0.749,1.185,1.206,2.494,1.597,3.825c0.943,3.213,1.481,6.509,1.922,9.822
			c0.178,1.337,0.306,2.681,0.454,4.022c0.026,0.23,0.045,0.45,0.373,0.29c0.461-0.23,0.844-0.844,1.473-0.285
			c0.085,0.075,0.147-0.106,0.2-0.191c0.092-0.15,0.179-0.415,0.285-0.424c0.943-0.081,0.742-0.767,0.74-1.342
			c-0.003-3.415-0.012-6.831,0.275-10.236c0.258-3.079,0.527-6.161,1.427-9.143c0.176-0.58,0.398-1.137,0.646-1.69
			c0.623-1.393,1.746-1.986,3.201-2.104c1.522-0.124,2.976,0.165,4.388,0.697c1.849,0.697,3.504,1.718,5.009,2.997
			c1.847,1.569,3.078,3.505,3.677,5.864c0.911,3.589,1.513,7.253,0.455,10.848c-1.33,4.527-1.537,9.158-1.914,13.792
			c-0.134,1.633-0.175,3.267-0.246,4.9c-0.011,0.247-0.059,0.493-0.107,0.736c-0.02,0.097-0.081,0.255-0.138,0.261
			c-0.222,0.023-0.151-0.183-0.159-0.29c-0.066-0.886-0.125-1.772-0.179-2.658c-0.326-5.36-0.678-10.719-0.509-16.095
			c0.036-1.18,0.502-2.28,0.545-3.466c0.138-3.833-0.386-7.522-2.274-10.917c-0.955-1.718-2.297-3.069-4.155-3.833
			c-1.591-0.654-2.776-0.405-3.937,0.865c-0.874,0.956-1.477,2.084-1.979,3.27c-1.016,2.401-1.655,4.914-2.176,7.458
			c-0.57,2.786-0.941,5.604-1.271,8.427c-0.045,0.388-0.046,0.78-0.057,1.171c-0.002,0.104,0.034,0.206,0.053,0.309
			c0.171-0.043,0.186-0.2,0.205-0.327c0.182-1.229,0.354-2.461,0.532-3.691c0.454-3.129,0.991-6.242,1.708-9.324
			c0.351-1.513,1.095-2.635,2.498-3.378c1.702-0.901,3.402-1.78,5.306-2.17c1.398-0.286,1.827-0.083,2.48,1.181
			c0.393,0.756,0.772,1.521,1.137,2.293c0.342,0.726,0.308,0.781-0.473,0.742c-2.148-0.108-4.246,0.205-6.338,0.669
			c-1.389,0.308-2.303,1.001-2.637,2.429c-0.177,0.754-0.594,1.446-0.646,2.241c-0.232,0.163-0.193,0.414-0.21,0.647
			c-0.23,0.16-0.183,0.414-0.213,0.642c-0.219,0.17-0.221,0.44-0.287,0.67c-0.886,3.067-1.715,6.15-2.465,9.254
			c-0.217,0.894-0.432,1.789-0.629,2.688c-0.036,0.165,0.019,0.349,0.03,0.523c0.155-0.121,0.102-0.307,0.143-0.462
			c0.777-3.024,1.562-6.045,2.317-9.074c0.3-1.202,0.77-2.363,0.876-3.612c0.24-0.158,0.196-0.409,0.215-0.641
			C72.983,57.679,72.96,57.434,72.996,57.207z M67.872,102.485c-0.046-0.041-0.089-0.088-0.139-0.125
			c-0.013-0.008-0.051,0.017-0.075,0.026c0.044,0.112,0.143,0.081,0.227,0.084c0.087,0.051,0.168,0.128,0.262,0.148
			c0.09,0.019,0.192-0.019,0.29-0.032c-0.084-0.024-0.165-0.06-0.251-0.075C68.083,102.495,67.978,102.495,67.872,102.485z"/>
		<path fill-rule="evenodd" clip-rule="evenodd" d="M52.284,24.336c1.317-0.164,2.666-0.146,3.907,0.226
			c0.942,0.282,1.849,0.844,2.662,1.472c2.307,1.782,3.855,4.155,5.207,6.682c1.667,3.119,2.595,6.43,2.82,9.972
			c0.163,2.59,0.416,5.174,0.431,7.772c0.001,0.14,0.027,0.28,0.042,0.42c0.125-0.135,0.077-0.307,0.077-0.459
			c-0.001-1.708,0.015-3.417-0.024-5.124c-0.061-2.535,0.316-5.033,0.568-7.542c0.229-2.264,0.473-4.524,0.72-6.786
			c0.319-2.931,0.606-5.867,0.987-8.79c0.553-4.252,0.636-6.082,0.159-10.352c-0.426-3.814-0.873-7.623-1.508-11.407
			c-0.024-0.138-0.085-0.334,0.049-0.396c0.202-0.095,0.294,0.105,0.373,0.257c1.342,2.564,2.337,5.257,2.991,8.076
			c0.542,2.33,0.797,2.287,0.844,4.671c0.085,4.341,0.117,8.684-0.021,13.022c-0.143,4.511-0.364,9.024-1.053,13.495
			c-0.232,1.509-0.572,2.99-1.236,4.396c-0.675,1.427-0.871,2.999-1.065,4.548c-0.504,4.027-0.657,8.076-0.737,12.132
			c-0.03,1.6-0.117,3.2-0.104,4.8c0,0.105,0.004,0.214-0.008,0.319c-0.02,0.169,0.004,0.375-0.227,0.426
			c-0.211,0.046-0.31-0.11-0.417-0.257c-0.021-0.028-0.122-0.672-0.189-0.004c-0.086,0.852-0.884,0.926-1.418,1.275
			c-0.185,0.122-0.341-0.029-0.365-0.234c-0.029-0.246-0.028-0.497-0.036-0.745c-0.034-1.03-0.123-2.063-0.09-3.092
			c0.081-2.507-0.853-4.803-1.409-7.177c-0.812-3.459-1.602-6.924-2.58-10.341c-0.312-1.096-0.632-2.194-1.341-3.115
			c-1.173-1.526-2.665-2.399-4.658-2.346c-1.187,0.031-1.941,0.582-2.384,1.631c-0.617,1.463-0.935,3.028-0.868,4.578
			c0.067,1.544-0.443,2.56-1.742,3.302c-0.551,0.316-1.02,0.772-1.545,1.137c-0.449,0.312-0.539,0.265-0.535-0.263
			c0.01-1.423,0.095-2.844,0.287-4.254c0.263-1.937,0.568-3.869,1.234-5.72c0.012-0.034,0.02-0.069,0.031-0.103
			c1.136-3.484,3.175-4.675,7.258-3.615c0.794,0.207,1.525,0.58,2.244,0.975c1.874,1.032,3.074,2.462,3.466,4.682
			c0.532,3.009,1.063,6.015,1.429,9.049c0.069,0.564,0.141,1.127,0.217,1.69c0.012,0.088,0.053,0.172,0.081,0.258
			c0.014-0.104,0.051-0.208,0.043-0.31c-0.08-1.028-0.122-2.06-0.257-3.079c-0.508-3.838-0.87-7.697-1.67-11.492
			c-0.184-0.868-0.397-1.73-0.623-2.588c-0.734-2.767-2.658-4.32-5.323-4.975c-2.895-0.71-5.567,0.083-8.066,1.542
			c-0.816,0.477-1.301,1.297-1.754,2.113c-1.008,1.816-1.65,3.776-2.232,5.754c-1.255,4.266-2.118,8.623-2.841,13.005
			c-0.532,3.224-0.987,6.46-1.484,9.69c-0.027,0.181,0.075,0.499-0.229,0.487c-0.241-0.009-0.255-0.302-0.292-0.508
			c-0.296-1.615-0.424-3.244-0.357-4.883c0.186-4.518,0.735-8.994,1.644-13.422c1.01-4.919,2.267-9.765,4.493-14.301
			c0.818-1.667,1.795-3.223,3.141-4.54c0.937-0.915,2.154-1.187,3.296-1.648L52.284,24.336z M67.596,57.519
			c-0.008,0-0.015,0-0.021,0c0-1.381,0.001-2.76-0.002-4.141c0-0.176-0.018-0.351-0.028-0.527c-0.013,0.167-0.037,0.333-0.036,0.499
			c0.007,2.725,0.018,5.45,0.029,8.174c0.001,0.151,0.024,0.302,0.037,0.452c0.006-0.142,0.019-0.282,0.02-0.422
			C67.596,60.208,67.596,58.864,67.596,57.519z M65.05,54.758c-0.026-0.123-0.058-0.262-0.09-0.402
			c-0.006,0.136-0.025,0.274-0.017,0.409c0.007,0.133,0.043,0.264,0.065,0.396C65.022,55.034,65.035,54.907,65.05,54.758z"/>
		<path fill-rule="evenodd" clip-rule="evenodd" d="M66.805,114.859c0.733-0.307,1.381,0.145,2.067,0.249
			c0.304,0.046,0.3,0.36,0.265,0.613c-0.375,2.736-0.111,5.453,0.275,8.164c0.075,0.525,0.166,1.05,0.255,1.574
			c0.092,0.535-0.021,0.92-0.656,0.959c-0.128,0.008-0.253,0.053-0.379,0.081c0.141,0.017,0.283,0.023,0.421,0.052
			c0.591,0.124,0.549,0.534,0.46,0.987c-0.097,0.493-0.402,0.527-0.787,0.393c-0.726-0.253-1.444-0.271-2.195-0.077
			c-0.599,0.154-1.099-0.214-1.569-0.518c-0.315-0.201-0.268-0.535,0.064-0.663c0.377-0.146,0.559-0.233,0.317-0.682
			c-0.121-0.228,0.045-0.382,0.409-0.39c0.957-0.019,1.905-0.18,2.807-0.538c0.077-0.03,0.243,0.008,0.151-0.165
			c-0.029-0.055-0.103-0.105-0.166-0.12c-0.1-0.022-0.261-0.059-0.303-0.009c-0.605,0.693-1.399,0.286-2.104,0.369
			c-0.485,0.06-0.625-0.201-0.555-0.646c0.489-3.131-0.072-6.228-0.299-9.335c-0.018-0.229-0.084-0.394-0.273-0.536
			c-0.331-0.251-0.339-0.518,0.023-0.764c0.075-0.051,0.238-0.154,0.178-0.188c-0.869-0.484-0.067-1.064-0.106-1.59l-0.016,0.014
			c0.278-0.104,0.465,0.067,0.657,0.219l-0.019-0.016c0.499,0.637,1.145,0.425,1.698,0.188c0.474-0.201,0.874-0.223,1.319-0.015
			c0.286,0.134,0.459,0.335,0.415,0.665c-0.039,0.29-0.24,0.42-0.508,0.461c-0.141,0.021-0.284,0.023-0.426,0.039
			c-0.068,0.008-0.137,0.029-0.205,0.044c0.079,0.016,0.156,0.041,0.235,0.045c0.214,0.013,0.427,0.017,0.64,0.022
			c0.36,0.011,0.69,0.139,0.615,0.542c-0.067,0.359-0.356,0.638-0.778,0.568c-0.383-0.063-0.757-0.187-1.13-0.299
			c-0.354-0.106-0.631-0.057-0.786,0.314c-0.179-0.006-0.334,0.04-0.426,0.212c-0.15,0.001-0.301,0.002-0.452,0.002
			c-0.051-0.021-0.102-0.043-0.152-0.062c0.055,0.016,0.109,0.031,0.166,0.049c0.143,0.205,0.285,0.183,0.428,0
			C66.547,115.051,66.711,115.023,66.805,114.859z"/>
		<path fill-rule="evenodd" clip-rule="evenodd" d="M65.176,26.973c0.092-2.671,0.071-4.733,0.303-6.787
			c0.267-2.366,0.562-4.724,1.219-7.02c0.049-0.171,0.09-0.346,0.16-0.508c0.039-0.09,0.144-0.229,0.202-0.22
			c0.205,0.029,0.104,0.199,0.093,0.317c-0.202,2.195-0.35,4.395-0.262,6.599c0.18,4.544,0.281,9.095,0.78,13.619
			c0.278,2.534,0.062,5.026-0.317,7.521c-0.024,0.165-0.028,0.441-0.219,0.433c-0.178-0.007-0.148-0.28-0.168-0.446
			c-0.275-2.404-0.966-4.727-1.369-7.106C65.203,31.05,65.296,28.7,65.176,26.973z"/>
	</g>
</g>
</svg>
