<?xml version="1.0" encoding="utf-8"?>
<!-- Generator: Adobe Illustrator 16.0.0, SVG Export Plug-In . SVG Version: 6.00 Build 0)  -->
<!DOCTYPE svg PUBLIC "-//W3C//DTD SVG 1.1//EN" "http://www.w3.org/Graphics/SVG/1.1/DTD/svg11.dtd">
<svg version="1.1" id="Layer_1802" xmlns="http://www.w3.org/2000/svg" xmlns:xlink="http://www.w3.org/1999/xlink" x="0px" y="0px"
	 width="128px" height="128px" viewBox="0 0 128 128" enable-background="new 0 0 128 128" xml:space="preserve">
<g>
	<path fill-rule="evenodd" clip-rule="evenodd" d="M105.346,23.223c-6.357,0.76-11.758,3.832-17.01,7.172
		c-10.906,6.93-22.646,12.48-33.062,20.251C42.877,59.899,31.472,70.204,21.09,81.659c-1.45,1.608-2.95,3.177-4.487,4.816
		c-0.631-0.837-0.084-1.546,0.172-2.222c6.896-17.898,17.522-33.061,33.118-44.438c5.708-4.169,12.004-7.337,18.963-8.975
		c4.78-1.125,9.247-3.103,13.49-5.49c4.697-2.643,9.491-4.975,14.742-6.276l0.172-0.013l-0.11-0.013
		C92,17.545,87.54,19.853,83.172,21.89c-5.265,2.465-10.589,4.593-16.27,6c-11.914,2.959-21.528,9.825-30.064,18.401
		c-6.923,6.952-12.714,14.721-17.243,23.429c-0.173,0.34-0.442,0.626-1.091,1.521c0.472-4.236,1.62-7.574,3.34-10.571
		c6.462-11.283,14.025-21.757,23.812-30.463c9.144-8.13,19.99-12.242,32.01-13.765c4.81-0.608,9.572-1.616,14.405-2.658
		c-6.592-0.83-13.286-1.164-20.646-3.028c9.158-1.707,17.506-1.517,25.863-1.28c4.116,0.119,7.753,1.354,10.646,4.34
		c1.349,1.398,2.474,3.021,3.86,4.748c3.191-2.536,6.153-5.393,9.777-7.37c2.021-1.105,3.664-1.036,5.121,0.957
		c2.153,2.925,1.938,3.836-1.255,5.797c-3.042,1.871-6.358,3.389-8.971,6.125c1.962,2.534,4.06,4.671,4.995,7.63
		c1.586,5.031,0.96,10.019-1.116,14.542c-5.301,11.565-10.554,23.212-17.265,34.023c-6.969,11.212-17,19.442-28.49,25.791
		c-10.202,5.645-20.897,10.38-32.61,11.495c-10.253,0.979-20.632,2.108-30.888-0.389c-6.991-1.702-10.344-5.598-11.058-12.772
		c-0.764-7.692,1.696-14.95,3.041-22.364c3.523-19.484,17.857-38.722,31.69-50.736c0.435,0.703-0.278,1.002-0.508,1.429
		c-0.248,0.45-0.615,0.83-0.931,1.242C27.7,41.159,22.674,48.764,17.947,56.571c-5.349,8.835-7.274,18.843-9.697,28.676
		c-0.944,3.816-1.863,7.614-1.651,11.614c0.359,6.738,3.331,10.474,9.87,12.12c2.543,0.642,5.126,0.781,7.713,0.6
		c7.842-0.55,15.752-0.264,23.497-1.92c1.977-0.425,4.102-0.505,5.767-1.9c0.363,0.342,0.628,0.228,0.845-0.166
		c0.325,0.093,0.654,0.192,0.974,0.286c0.356-0.4,0.707-0.801,1.059-1.194c0.355,0.04,0.702,0.073,1.065,0.109
		c0.312-0.297,0.644-0.598,0.966-0.892c0.414,0.053,0.826,0.102,1.23,0.154c-0.045,0-0.065,0-0.094,0.002
		c-0.369-0.041-0.726-0.081-1.097-0.122c-0.325,0.32-0.658,0.641-0.991,0.956c-0.352-0.045-0.705-0.087-1.059-0.128
		c-0.67,0.095-0.861,0.629-1.058,1.15c-0.261-0.358-0.564-0.564-0.989-0.246c-0.337-0.253-0.611-0.179-0.839,0.151
		c-4.881,0.394-9.757,0.788-14.632,1.184l0.105,0.007c3.441-2.286,7.59-2.416,11.355-3.731
		c17.533-6.119,33.221-14.889,44.444-30.234c1.839-2.507,3.479-5.174,4.649-8.055c2.874-7.086,7.844-12.896,11.634-19.428
		c2.423-4.181,4.515-8.424,2.998-13.476c-0.045-0.039-0.088-0.079-0.13-0.124c0.079,0.036,0.156,0.071,0.232,0.105
		c-2.671,11.245-11.448,19.018-16.419,28.926c-4.16,8.289-9.446,15.582-16.521,21.5c-11.642,9.728-25.04,16.025-39.701,19.696
		c-6.556,1.639-13.2,2.623-19.979,2.309c-0.597-0.029-1.239,0.189-2.087-0.736c35.055-15.707,63.106-39.974,86.595-69.829
		c-7.061,5.661-14.032,11.39-20.322,17.975C66.634,71.875,44.838,88.084,19.497,99.287c-1.59,0.701-3.239,1.349-5.02,1.428
		c-1.83-1.727-1.139-3.263,0.045-4.95c7.527-10.771,16.949-19.771,26.575-28.595c13.896-12.723,29.878-22.469,45.739-32.407
		c5.777-3.621,11.137-7.937,17.6-10.379c0.528-0.198,0.834-0.578,0.87-1.156l0.121,0.134L105.346,23.223z"/>
	<path fill-rule="evenodd" clip-rule="evenodd" d="M38.826,107.006c0.035-0.042,0.065-0.088,0.096-0.132
		c0.009,0.044,0.015,0.09,0.019,0.136L38.826,107.006z"/>
</g>
</svg>
