<?xml version="1.0" encoding="utf-8"?>
<!-- Generator: Adobe Illustrator 16.0.0, SVG Export Plug-In . SVG Version: 6.00 Build 0)  -->
<!DOCTYPE svg PUBLIC "-//W3C//DTD SVG 1.1//EN" "http://www.w3.org/Graphics/SVG/1.1/DTD/svg11.dtd">
<svg version="1.1" id="Layer_1806" xmlns="http://www.w3.org/2000/svg" xmlns:xlink="http://www.w3.org/1999/xlink" x="0px" y="0px"
	 width="128px" height="128px" viewBox="0 0 128 128" enable-background="new 0 0 128 128" xml:space="preserve">
<g id="nUe29l.tif_1_">
	<g>
		<path fill-rule="evenodd" clip-rule="evenodd" d="M98.562,72.339c-0.615,0.648-0.652,1.46-0.649,2.287
			c0.005,1.362,0.002,2.725,0.002,4.087c0,15.162-0.046,30.326,0.056,45.488c0.014,1.989-1.24,2.783-2.36,3.845
			c-0.176,0.167-0.555,0.146-0.843,0.163c-0.413,0.026-0.828,0.008-1.244,0.008c-18.717,0.001-37.434,0.001-56.15,0.001
			c-0.356,0-0.714-0.032-1.066,0.007c-0.671,0.072-1.097-0.254-1.492-0.75c-1.379-1.733-1.389-1.726-1.389-4.004
			c0-14.866-0.009-29.733,0.016-44.601c0.002-1.276-0.261-2.435-0.78-3.587c-1.088-2.418-2.092-4.874-3.178-7.293
			c-1.283-2.859-2.997-5.485-4.508-8.222c-0.889-1.609-1.899-3.136-3.128-4.499c-0.513-0.567-0.53-1.151-0.377-1.807
			c0.2-0.858,0.486-1.703,0.606-2.571c0.152-1.094,0.28-1.38,1.723-1.607c0.813-0.127,1.614-0.392,2.434-0.4
			c0.699-0.008,1.073-0.389,1.446-0.867c0.981-1.256,2.002-2.483,2.946-3.768c0.338-0.461,0.642-0.633,1.159-0.392
			c0.105,0.049,0.236,0.036,0.347,0.075c0.637,0.228,1.486,0.793,1.899,0.383c0.459-0.455-0.203-1.296-0.305-1.986
			c-0.461-3.137-2.11-5.852-3.271-8.739c-0.989-2.46-2.066-4.886-3.137-7.312c-0.255-0.579-0.366-1.083-0.028-1.674
			c1.553-2.717,3.091-5.443,4.608-8.181c0.281-0.508,0.506-0.592,0.85-0.106c0.376,0.529,0.74,1.069,1.115,1.6
			c0.205,0.288,0.401,0.588,0.642,0.845c0.325,0.348,0.769,0.333,1.155,0.171c0.312-0.13,0.244-0.498,0.244-0.787
			c0.001-2.369,0.001-4.739,0.001-7.108c0-0.533-0.006-1.065,0.001-1.599c0.02-1.427,0.022-1.443,1.476-1.443
			C49.701,7.988,62.021,7.99,74.342,7.99c0.296,0,0.592-0.004,0.887,0.01c0.33,0.016,0.556,0.172,0.602,0.519
			c0.222,1.689,0.576,3.377,0.605,5.071c0.014,0.886-0.564,1.776-0.844,2.675c-0.225,0.718-0.335,1.394-0.191,2.212
			c0.416,2.368,1.186,4.744,0.735,7.176c-0.501,2.712-0.191,5.429-0.297,8.141c-0.017,0.432-0.062,0.775,0.647,0.601
			c1.022-0.253,2.103-0.117,3.152-0.405c1.291-0.354,2.582,0.188,3.85,0.374c1.207,0.179,2.354,0.017,3.469-0.204
			c0.92-0.183,1.863-0.24,2.785-0.443c0.756-0.166,1.625,0.099,2.429,0.247c0.812,0.15,1.614,0.305,2.442,0.368
			c0.975,0.074,1.098,0.246,1.127,1.219c0.025,0.888,0.017,1.776,0.002,2.665c-0.008,0.51,0.188,0.771,0.724,0.749
			c0.354-0.015,0.715-0.027,1.065,0.019c1.404,0.187,3.011-0.037,3.671,1.733c0.019,0.051,0.078,0.089,0.123,0.126
			c0.354,0.301,0.966,0.57,1.003,0.904c0.051,0.46-0.324,0.972-0.531,1.454c-0.164,0.379-0.389,0.735-0.521,1.125
			c-0.224,0.658-0.486,1.202-1.342,1.087c-0.436-0.059-0.611,0.215-0.667,0.634c-0.046,0.347-0.203,0.679-0.261,1.025
			c-0.125,0.756-0.308,1.6-0.181,2.265c0.099,0.518,1.19,0.543,1.847,0.761c0.695,0.231,1.094,0.593,1.133,1.377
			c0.033,0.641,0.234,1.271,0.322,1.911c0.191,1.406,0.182,1.407,1.483,1.748c0.058,0.015,0.11,0.045,0.169,0.054
			c0.971,0.153,1.971,0.193,2.832,0.754c-0.197,0.918-0.377,1.839-0.6,2.751c-0.264,1.085-0.619,2.143-0.742,3.266
			c-0.093,0.839-0.658,1.505-1.043,2.232l0.021-0.022c-0.301,0.278-0.663,0.514-0.893,0.842c-1.558,2.217-3.091,4.451-4.616,6.689
			c-0.125,0.184-0.138,0.444-0.202,0.669L98.562,72.339z M65.426,126.299L65.426,126.299c9.24,0.002,18.48,0.004,27.721,0.001
			c2.066-0.001,2.846-0.793,2.846-2.885c0.004-7.581,0.002-15.163,0.004-22.745c0.002-9.122,0.02-18.244-0.004-27.366
			c-0.002-1.128,0.306-2.02,1.046-2.893c0.989-1.165,1.815-2.471,2.7-3.723c0.092-0.13,0.195-0.345,0.146-0.457
			c-0.099-0.229-0.297-0.05-0.449-0.002c-1.567,0.48-3.131,0.971-4.699,1.444c-5.23,1.58-10.465,3.149-15.694,4.734
			c-1.745,0.527-3.479,1.095-5.224,1.627c-0.833,0.254-0.995,0.197-1.213-0.696c-0.148-0.614-0.377-0.931-1.041-0.942
			c-2.304-0.041-4.584,0.037-6.859,0.513c-2.99,0.625-6.016,1.08-9.017,1.653c-0.679,0.129-1.261,0.026-1.869-0.246
			c-3.279-1.471-6.56-2.935-9.85-4.379c-1.346-0.591-2.729-1.097-4.069-1.695c-1.652-0.737-3.285-1.519-4.915-2.305
			c-1.479-0.716-3.161-0.979-4.496-2.02c-0.134-0.104-0.342-0.108-0.488-0.202c-0.134-0.086-0.237-0.114-0.282,0.027
			c-0.029,0.093-0.001,0.225,0.047,0.315c0.637,1.189,1.37,2.337,1.907,3.57c0.94,2.16,1.654,4.418,2.722,6.524
			c0.739,1.456,0.977,2.964,0.973,4.603c-0.042,14.927-0.028,29.853-0.021,44.78c0,2.086,0.682,2.762,2.713,2.762
			C47.181,126.299,56.304,126.299,65.426,126.299z M35.902,53.577c0-1.066,0-2.132,0-3.198c0-3.244-0.009-3.212-3.116-4.138
			c-0.717-0.213-1.114-0.016-1.516,0.494c-0.585,0.742-1.318,1.401-1.756,2.22c-0.839,1.569-2.208,1.992-3.8,2.113
			c-0.351,0.026-0.708,0.066-1.045,0.161c-0.214,0.061-0.452,0.19-0.583,0.363c-0.608,0.801-0.579,2.494,0.078,3.305
			c1.6,1.973,3.229,3.921,4.836,5.889c0.232,0.285,0.503,0.484,0.835,0.629c1.562,0.682,3.105,1.41,4.685,2.048
			c1.352,0.545,1.378,0.5,1.381-0.886C35.908,59.577,35.904,56.577,35.902,53.577z M95.74,53.172c0,3.786,0.003,7.573-0.002,11.358
			c-0.002,0.45,0.055,0.579,0.588,0.428c2-0.568,3.865-1.364,5.602-2.536c0.898-0.605,1.506-1.216,1.614-2.337
			c0.083-0.86,0.356-1.703,0.544-2.553c-0.77-0.621-1.727-0.652-2.633-0.765c-0.669-0.083-0.911-0.486-1.061-1.01
			c-0.094-0.335-0.069-0.702-0.121-1.053c-0.229-1.542-0.225-3.229-2.443-3.374c-0.409-0.027-0.605-0.677-1.139-0.754
			c-0.209-0.03-0.257-0.353-0.213-0.608c0.322-1.851,0.678-3.697,0.935-5.557c0.097-0.7,0.416-0.903,1.036-0.885
			c0.235,0.007,0.48,0.011,0.707-0.043c0.359-0.084,0.771-0.784,0.68-1.099c-0.125-0.431-1.093-1.229-1.566-1.259
			c-0.412-0.025-0.828-0.015-1.242-0.009c-1.262,0.014-1.278,0.015-1.281,1.228C95.735,45.954,95.74,49.563,95.74,53.172z
			 M77.579,47.497c0,3.134-0.001,6.269,0.001,9.403c0,0.473,0.002,0.945,0.02,1.418c0.004,0.11,0.073,0.218,0.113,0.326
			c0.098-0.055,0.215-0.089,0.29-0.165c0.968-0.985,1.687-1.998,1.659-3.546C79.57,49.791,79.62,44.645,79.631,39.5
			c0.002-1.253,0.027-1.274,1.285-1.278c3.371-0.013,6.742-0.047,10.111,0.022c0.976,0.02,1.531-0.244,1.879-1.16
			c0.317-0.834,0.347-0.904-0.525-0.906c-4.611-0.013-9.225-0.013-13.838,0c-0.925,0.003-0.954,0.037-0.957,1.029
			C77.571,40.638,77.58,44.066,77.579,47.497z M57.671,47.518c0,3.133,0,6.266,0,9.398c0,0.473,0.002,0.945,0.021,1.418
			c0.004,0.105,0.084,0.209,0.128,0.313c0.1-0.062,0.217-0.107,0.294-0.189c0.939-0.989,1.919-1.949,1.408-3.539
			c-0.121-0.376-0.025-0.822-0.02-1.235c0.066-4.663-0.125-9.328,0.107-13.99c0.072-1.447,0.016-1.468,1.426-1.472
			c3.369-0.012,6.739-0.051,10.107,0.025c0.996,0.022,1.514-0.296,1.857-1.188c0.313-0.813,0.33-0.882-0.559-0.883
			c-4.552-0.01-9.104-0.01-13.654,0.001c-1.091,0.003-1.11,0.028-1.114,1.232C57.665,40.778,57.671,44.147,57.671,47.518z
			 M57.674,21.019c-0.001,0-0.002,0-0.002,0c0,1.895-0.001,3.788,0,5.683c0.001,1.656,0.001,3.314,0.008,4.972
			c0.002,0.271,0.121,0.495,0.391,0.229c0.915-0.897,2.064-1.682,1.475-3.293c-0.153-0.42-0.042-0.938-0.042-1.412
			c-0.002-3.314-0.003-6.629,0-9.943c0.002-1.528,0.025-3.056,0.012-4.583c-0.005-0.502,0.152-0.8,0.68-0.815
			c0.414-0.013,0.828-0.012,1.242-0.012c3.137-0.001,6.275-0.03,9.411,0.017c0.979,0.015,1.687-0.157,2.103-1.166
			c0.332-0.809,0.373-0.884-0.514-0.887c-4.559-0.012-9.115-0.013-13.673-0.001c-1.053,0.003-1.081,0.031-1.086,1.091
			C57.665,14.271,57.674,17.646,57.674,21.019z M37.755,47.372c0,3.133-0.005,6.266,0.006,9.398
			c0.002,0.523-0.167,1.435,0.133,1.493c0.655,0.126,0.962-0.689,1.401-1.122c0.477-0.468,0.289-1.116,0.29-1.691
			c0.011-5.143,0.002-10.285,0.009-15.428c0.002-1.787,0.017-1.8,1.751-1.804c3.311-0.006,6.622-0.056,9.93,0.031
			c1.032,0.027,1.488-0.381,1.831-1.229c0.317-0.785,0.319-0.844-0.608-0.846c-4.551-0.009-9.103-0.01-13.654,0.001
			c-1.051,0.002-1.078,0.029-1.082,1.088C37.749,40.633,37.756,44.003,37.755,47.372z M37.756,21.036c-0.003,0-0.006,0-0.009,0
			c0,3.02-0.001,6.04,0.001,9.06c0,0.533,0.005,1.066,0.024,1.599c0.011,0.302,0.146,0.439,0.415,0.196
			c0.843-0.762,1.473-1.515,1.447-2.849c-0.1-5.269-0.046-10.54-0.037-15.811c0.003-1.358,0.023-1.379,1.374-1.384
			c3.376-0.013,6.752-0.045,10.126,0.021c0.979,0.02,1.54-0.271,1.904-1.172c0.349-0.864,0.391-0.889-0.488-0.891
			c-4.56-0.009-9.12-0.011-13.68,0.001c-1.042,0.003-1.069,0.032-1.073,1.103C37.748,14.284,37.756,17.66,37.756,21.036z
			 M35.903,28.095c-0.108-1.571,0.113-3.636-0.102-5.699c-0.119-1.141-0.042-1.183-1.19-1.201c-0.634-0.01-1.09-0.14-1.489-0.707
			c-0.643-0.916-0.698-0.88-1.226,0.046c-0.437,0.768-0.8,1.586-1.313,2.297c-1.198,1.66-1.654,3.302-0.31,5.116
			c0.305,0.411,0.415,0.968,0.613,1.458c1.562,3.857,3.509,7.559,4.729,11.557c0.017,0.057,0.027,0.115,0.047,0.171
			c0.057,0.16,0.117,0.32,0.176,0.479c0.021-0.174,0.062-0.348,0.062-0.522C35.904,36.921,35.903,32.753,35.903,28.095z
			 M65.529,62.785c0-0.001,0-0.001,0-0.002c-2.308,0-4.614,0.014-6.921-0.009c-0.652-0.007-0.968,0.159-0.954,0.891
			c0.04,2.009,0.025,4.02,0.012,6.029c-0.003,0.561,0.124,0.88,0.788,0.85c0.875-0.039,0.986-0.09,1.007-1.023
			c0.022-1.064-0.042-2.133,0.02-3.193c0.078-1.336,0.283-1.53,1.598-1.521c1.571,0.011,3.131-0.166,4.721,0
			c1.752,0.184,3.549-0.091,5.314,0.025c1.107,0.073,1.572-0.402,1.956-1.294c0.239-0.557,0.157-0.756-0.442-0.755
			C70.261,62.787,67.895,62.785,65.529,62.785z M85.584,62.786c-2.128,0-4.255-0.001-6.383,0c-0.354,0-0.709-0.002-1.063,0.009
			c-0.343,0.01-0.555,0.188-0.554,0.536c0.01,1.714,0.037,3.426,0.041,5.139c0.001,0.573,0.315,0.681,0.797,0.64
			c0.52-0.045,1.145,0.073,1.188-0.71c0.042-0.767,0.012-1.537,0.034-2.306c0.036-1.228,0.043-1.275,1.318-1.286
			c3.311-0.027,6.622-0.016,9.933-0.005c1.499,0.005,1.474,0.011,2.095-1.297c0.293-0.614,0.036-0.721-0.487-0.72
			C90.196,62.787,87.89,62.786,85.584,62.786z M45.77,62.782c-0.296,0-0.592,0-0.889,0c-2.131,0.002-4.263,0-6.394,0.009
			c-0.281,0.001-0.624-0.037-0.685,0.372c-0.053,0.354,0.187,0.498,0.461,0.656c0.983,0.564,2.012,1.019,3.157,1.014
			c3.28-0.014,6.56,0.006,9.841-0.182c0.833-0.047,1.306-0.23,1.695-0.876c0.15-0.248,0.469-0.479,0.346-0.771
			c-0.128-0.307-0.504-0.219-0.788-0.219C50.266,62.781,48.018,62.783,45.77,62.782z"/>
		<path fill-rule="evenodd" clip-rule="evenodd" d="M86.309,30.438c-1.717-0.04-1.783-0.074-1.946-1.78
			c-0.14-1.462,0.074-2.956-0.423-4.386c-0.251-0.722-0.465-1.456-0.704-2.182c-0.278-0.842-0.617-1.669-0.106-2.556
			c0.196-0.342,0.004-0.678-0.158-1.002c-0.665-1.321-1.057-2.723-1.4-4.164c-0.296-1.244-0.883-2.427-1.411-3.605
			c-0.321-0.717-0.51-1.425-0.494-2.214c0.024-1.301-0.017-2.603-0.014-3.904c0.003-1.259,0.095-1.368,1.347-1.606
			c1.326-0.253,2.657-0.479,3.984-0.728c4.271-0.802,8.54-1.612,12.812-2.409c0.405-0.076,0.825-0.069,1.235-0.122
			c0.684-0.088,0.884,0.235,1.004,0.885c1.005,5.427,2.072,10.842,3.085,16.266c0.55,2.944,1.017,5.904,1.562,8.85
			c0.097,0.522,0.053,0.721-0.521,0.796c-1.339,0.175-2.66,0.511-4.002,0.627c-2.595,0.225-5.101,0.796-7.567,1.604
			c-1.563,0.513-3.15,0.953-4.709,1.481C87.351,30.467,86.835,30.423,86.309,30.438z M97.488,1.979
			c-0.59,0.031-1.191-0.002-1.768,0.104c-4.273,0.792-8.541,1.614-12.812,2.422c-0.959,0.182-1.166,0.378-0.979,1.265
			c0.291,1.382,0.518,2.772,0.768,4.162c0.756,4.219,1.588,8.424,2.382,12.636c0.261,1.385,0.492,2.776,0.752,4.161
			c0.028,0.149,0.125,0.341,0.247,0.404c0.178,0.093,0.317-0.089,0.426-0.221c0.869-1.059,1.336-2.207,0.842-3.594
			c-0.117-0.327-0.139-0.688-0.205-1.033c-0.67-3.521-1.34-7.039-2.008-10.559c-0.273-1.443-0.557-2.885-0.805-4.332
			c-0.145-0.846,0.012-1.037,0.834-1.188c1.329-0.244,2.661-0.47,3.988-0.724c2.365-0.453,4.719-0.979,7.096-1.352
			c0.764-0.12,0.991-0.528,1.146-1.104c0.09-0.336,0.065-0.702,0.092-1.055c0.053-0.015,0.114-0.016,0.153-0.047
			c0.025-0.02,0.029-0.117,0.021-0.12C97.546,1.767,97.487,1.828,97.488,1.979z"/>
		<path fill-rule="evenodd" clip-rule="evenodd" d="M81.684,19.071c-0.09,0.282-0.148,0.575-0.277,0.831
			c-0.119,0.237-0.363,0.303-0.576,0.114c-0.711-0.625-1.209-1.425-1.736-2.196c-0.205-0.301,0.057-0.557,0.243-0.768
			c0.171-0.193,0.413-0.224,0.615-0.032c0.553,0.522,1.099,1.052,1.636,1.591C81.706,18.729,81.805,18.891,81.684,19.071z"/>
		<path fill-rule="evenodd" clip-rule="evenodd" d="M82.979,26.688c0.007,1.23-0.034,1.288-0.888,1.313
			c-0.82,0.024-0.885-0.077-0.735-1.004c0.084-0.517,0.101-1.046,0.205-1.558c0.042-0.206,0.196-0.471,0.372-0.553
			c0.311-0.144,0.5,0.188,0.704,0.359C83.111,25.645,82.922,26.217,82.979,26.688z"/>
		<path fill-rule="evenodd" clip-rule="evenodd" d="M104.227,64.188c0.198,0.039,0.313,0.161,0.351,0.358l0.03-0.03
			c-0.199-0.035-0.318-0.153-0.359-0.351L104.227,64.188z"/>
		<path fill-rule="evenodd" clip-rule="evenodd" d="M104.577,64.547c0.083,0.043,0.165,0.087,0.248,0.13
			c-0.248,0.186-0.147-0.104-0.218-0.16L104.577,64.547z"/>
		<path fill-rule="evenodd" clip-rule="evenodd" d="M98.537,72.366c0.082,0.041,0.165,0.083,0.248,0.124
			c-0.238,0.191-0.15-0.098-0.223-0.151L98.537,72.366z"/>
		<path fill-rule="evenodd" clip-rule="evenodd" d="M65.176,123.592c-8.229,0-16.457,0-24.686,0c-0.236,0-0.474,0.003-0.71-0.003
			c-1.312-0.032-1.312-0.033-1.309-1.262c0.004-1.245,0.004-1.26,1.489-1.26c10.064-0.004,20.127-0.002,30.192-0.002
			c6.038,0,12.076,0,18.114-0.001c0.474,0,0.947-0.004,1.421-0.009c0.434-0.005,0.643-0.231,0.646-0.659
			c0.004-0.474,0.008-0.947,0.008-1.42c0.001-12.433,0.001-24.863,0.001-37.296c0-0.354,0.038-0.715-0.008-1.064
			c-0.119-0.916,0.268-1.465,1.141-1.703c0.055-0.015,0.101-0.063,0.154-0.088c1.566-0.731,1.664-0.682,1.667,1.009
			c0.009,5.446,0.006,10.893,0.005,16.339c-0.001,8.11-0.002,16.22-0.006,24.33c0,2.143-0.922,3.079-3.078,3.081
			c-8.347,0.008-16.693,0.003-25.041,0.003C65.176,123.588,65.176,123.59,65.176,123.592z"/>
		<path fill-rule="evenodd" clip-rule="evenodd" d="M75.748,80.293c-0.656,0.061-1.207-0.255-1.623-0.639
			c-1.468-1.351-3.023-1.322-4.687-0.472c-0.104,0.054-0.22,0.083-0.327,0.131c-1.592,0.719-1.607,0.979-2.727-0.664
			c-0.562-0.825-0.975-0.25-1.459-0.091c-0.582,0.19-0.898,0.041-1.016-0.511c-0.012-0.057-0.077-0.108-0.074-0.158
			c0.043-0.763,1.951-1.961,2.587-1.506c1.429,1.022,2.844,0.77,4.327,0.274c0.331-0.11,0.719-0.063,1.041-0.189
			c1.347-0.527,2.412-0.343,3.093,1.064c0.301,0.62,0.763,0.683,1.456,0.538c1.779-0.373,3.594-0.581,5.386-0.904
			c0.358-0.064,0.692-0.227,0.982,0.065c0.317,0.317,0.899,0.562,0.793,1.05c-0.087,0.397-0.643,0.409-1.054,0.5
			c-1.775,0.396-3.543,0.833-5.315,1.246C76.675,80.135,76.21,80.205,75.748,80.293z"/>
		<path fill-rule="evenodd" clip-rule="evenodd" d="M37.054,69.164c1.365,0.338,2.605,0.998,3.873,1.567
			c2.623,1.181,5.203,2.454,7.796,3.699c0.547,0.262,1.062,0.445,1.678,0.154c0.303-0.145,0.717-0.042,1.035-0.168
			c0.736-0.292,1.347-0.168,1.928,0.352c0.864,0.773,1.803,0.897,2.931,0.514c0.803-0.273,1.71-0.239,2.571-0.342
			c-0.58,0.734-1.461,1.02-2.224,1.479c-0.806,0.485-1.646,0.913-2.447,1.405c-0.548,0.337-1.034,0.362-1.335-0.244
			c-0.516-1.037-1.222-1.023-2.193-0.655c-0.997,0.376-1.943,0.29-2.907-0.443c-2.81-2.137-5.985-3.747-8.768-5.929
			c-0.627-0.492-1.646-0.447-1.919-1.406L37.054,69.164z"/>
		<path fill-rule="evenodd" clip-rule="evenodd" d="M53.891,81.652c-0.474,0-0.953-0.049-1.42,0.01
			c-0.898,0.114-1.647-0.069-2.162-0.87c-0.37-0.575-0.87-0.58-1.346-0.216c-1.028,0.787-2.019,0.531-3.123,0.133
			c-1.935-0.698-3.921-1.256-5.885-1.875c-0.279-0.088-0.572-0.156-0.824-0.295c-0.383-0.211-0.387-0.588-0.228-0.927
			c0.143-0.307,0.457-0.35,0.763-0.256c1.236,0.383,2.47,0.772,3.704,1.162c0.73,0.229,1.477,0.419,2.183,0.71
			c1.209,0.498,2.311,0.525,3.49-0.196c0.988-0.604,1.116-0.52,1.898,0.46c0.562,0.704,1.069,1.15,2.084,0.791
			c0.639-0.227,1.408-0.126,2.117-0.104c2.134,0.063,4.239-0.321,6.366-0.382c0.585-0.018,0.9,0.181,0.854,0.802
			c-0.025,0.325-0.16,0.562-0.51,0.612c-0.176,0.025-0.355,0.048-0.531,0.04C58.832,81.132,56.375,81.628,53.891,81.652z"/>
		<path fill-rule="evenodd" clip-rule="evenodd" d="M79.162,75.884c-0.15,0.007-0.346-0.313-0.446-0.647
			c-0.126-0.415,0.28-0.468,0.528-0.544c2.191-0.666,4.385-1.323,6.584-1.959c1.127-0.326,2.266-0.611,3.402-0.898
			c1.107-0.28,2.056-0.865,2.982-1.497c0.291-0.198,0.562-0.432,0.871-0.598c0.402-0.218,1.062-0.726,1.214-0.477
			c0.306,0.501-0.438,0.779-0.708,1.174c-0.23,0.339-0.48,0.672-0.765,0.965c-0.698,0.722-1.44,1.443-2.45,1.652
			c-3.282,0.681-6.475,1.704-9.725,2.505C80.252,75.657,79.848,75.734,79.162,75.884z"/>
		<path fill-rule="evenodd" clip-rule="evenodd" d="M37.072,69.146c-0.084-0.046-0.168-0.092-0.252-0.138
			c0.249-0.206,0.173,0.078,0.234,0.155L37.072,69.146z"/>
		<polygon fill-rule="evenodd" clip-rule="evenodd" points="96.586,70.104 96.555,70.012 96.641,70.025 		"/>
		<path fill-rule="evenodd" clip-rule="evenodd" d="M25.342,53.522c-0.067-0.354-0.014-0.684,0.107-1.033
			c0.198-0.571,0.51-0.948,1.15-0.814c1.631,0.342,2.496-0.569,3.202-1.844c0.369-0.667,0.826-1.286,1.271-1.906
			c0.157-0.219,0.361-0.498,0.706-0.236c0.263,0.199,0.372,0.425,0.167,0.745c-0.632,0.991-1.252,1.99-1.873,2.988
			c-0.301,0.484-0.691,0.771-1.301,0.736c-1.349-0.077-2.478,0.438-3.448,1.347L25.342,53.522z"/>
		<path fill-rule="evenodd" clip-rule="evenodd" d="M30.389,54.205c0.05,0.014-0.115-0.033-0.279-0.079
			c0.053-0.145,0.067-0.376,0.165-0.418c1.267-0.555,1.575-1.784,2.044-2.889c0.198-0.466,0.471-0.689,0.926-0.423
			c0.369,0.217,0.327,0.562,0.123,0.91c-0.413,0.704-0.867,1.393-1.195,2.136C31.846,54.184,31.303,54.312,30.389,54.205z"/>
		<path fill-rule="evenodd" clip-rule="evenodd" d="M25.324,53.505c-0.043,0.082-0.087,0.164-0.13,0.246
			c-0.198-0.237,0.077-0.167,0.148-0.229L25.324,53.505z"/>
		<path fill-rule="evenodd" clip-rule="evenodd" d="M100.473,59.944c0.297-0.607-0.057-0.661-0.547-0.726
			c-1.279-0.169-1.301-0.19-1.357-1.346c-0.045-0.94-0.023-1.886-0.018-2.828c0-0.103,0.096-0.205,0.146-0.308
			c0.066,0.081,0.156,0.152,0.193,0.244c0.043,0.106,0.043,0.23,0.056,0.348c0.171,1.544,0.847,2.506,2.554,2.712
			c1.167,0.141,1.147,0.304,0.769,1.554c-0.334,1.103-0.486,1.217-1.396,1.073C100.422,60.597,100.26,60.377,100.473,59.944z"/>
		<path fill-rule="evenodd" clip-rule="evenodd" d="M32.544,22.253c0.208,0.116,0.331,0.153,0.41,0.233
			c0.355,0.364,0.776,0.494,1.282,0.461c0.283-0.018,0.729-0.039,0.827,0.115c0.23,0.36-0.246,0.56-0.401,0.839
			c-0.18,0.325-0.471,0.434-0.842,0.538c-1.125,0.316-1.446,1.031-0.893,1.99c0.265,0.457,0.385,0.938,0.186,1.34
			c-0.422,0.852-0.071,1.467,0.435,2.074c0.48,0.578,0.447,1.32,0.663,1.982c0.061,0.188,0.073,0.501-0.239,0.521
			c-0.118,0.008-0.316-0.188-0.361-0.33c-0.109-0.332-0.125-0.692-0.22-1.03c-0.147-0.521-0.453-0.952-0.838-1.332
			c-0.252-0.249-0.555-0.523-0.517-0.894c0.118-1.144-0.369-2.058-1.003-2.931c-0.356-0.49-0.334-0.918,0.075-1.413
			c0.447-0.54,0.779-1.174,1.164-1.767C32.363,22.507,32.464,22.368,32.544,22.253z"/>
	</g>
</g>
</svg>
