<?xml version="1.0" encoding="utf-8"?>
<!-- Generator: Adobe Illustrator 16.0.0, SVG Export Plug-In . SVG Version: 6.00 Build 0)  -->
<!DOCTYPE svg PUBLIC "-//W3C//DTD SVG 1.1//EN" "http://www.w3.org/Graphics/SVG/1.1/DTD/svg11.dtd">
<svg version="1.1" id="Layer_1903" xmlns="http://www.w3.org/2000/svg" xmlns:xlink="http://www.w3.org/1999/xlink" x="0px" y="0px"
	 width="128px" height="128px" viewBox="0 0 128 128" enable-background="new 0 0 128 128" xml:space="preserve">
<path fill-rule="evenodd" clip-rule="evenodd" d="M127.578,58.479c-0.241-0.209-0.432,0.131-0.597,0.264
	c-1.676,1.35-3.456,2.512-5.489,3.253c-1.106,0.404-2.145,1-3.339,1.139c-2.196,0.256-4.337,0.789-6.473,1.325
	c-3.482,0.876-6.67,2.446-9.724,4.312c-1.389,0.85-2.66,1.854-3.955,2.834c-1.404,1.062-2.75,2.189-4.068,3.352
	c-1.469,1.295-2.884,2.651-4.359,3.938c-1.422,1.243-2.816,2.527-4.45,3.508c-0.915,0.549-1.852,1.06-2.734,1.665
	c-1.191,0.817-2.409,1.602-3.645,2.35c-0.816,0.496-1.689,0.897-2.527,1.358c-1.635,0.898-3.126,2.049-4.854,2.789
	c-0.205,0.089-0.407,0.187-0.631,0.203c-0.098,0.007-0.247,0.082-0.296-0.044c-0.033-0.087,0.004-0.225,0.054-0.315
	c0.071-0.136,0.161-0.277,0.279-0.37c0.528-0.416,0.93-0.956,1.408-1.421c1.454-1.409,2.764-2.956,4.188-4.396
	c1.671-1.689,2.944-3.737,4.684-5.381c0.384-0.362,0.669-0.83,0.978-1.266c0.31-0.438,0.632-0.861,0.979-1.268
	c0.347-0.407,0.652-0.849,1.008-1.248c0.326-0.365,0.396-0.929,0.9-1.151c0.017-0.008,0.024-0.037,0.036-0.057
	c0.359-0.559,0.787-1.069,1.188-1.599c0.369-0.485,0.88-0.814,1.271-1.259c1.59-1.806,3.104-3.675,4.334-5.748
	c1.061-1.785,2.251-3.471,3.592-5.055c0.476-0.561,0.856-1.189,1.22-1.83c1.032-1.823,1.816-3.76,2.681-5.664
	c1.387-3.057,1.697-6.288,1.922-9.555c0.065-0.943-0.114-1.863-0.294-2.778c-0.305-1.552-0.366-3.139-0.664-4.689
	c-0.205-1.07-0.473-2.127-0.633-3.208c-0.246-1.648-0.627-3.275-0.569-4.964c0.048-1.446-0.021-2.896-0.014-4.344
	c0.006-0.963-0.252-1.898-0.27-2.858c-0.002-0.155-0.044-0.341-0.223-0.368c-0.238-0.037-0.267,0.187-0.327,0.347
	c-0.022,0.062-0.029,0.13-0.04,0.196c-0.137,0.862-0.432,1.681-0.675,2.514c-0.546,1.873-1.588,3.458-2.805,4.956
	c-0.974,1.198-2.122,2.217-3.214,3.295c-1.441,1.421-2.96,2.759-4.483,4.089c-0.671,0.585-1.344,1.154-1.935,1.828
	c-1.454,1.659-2.56,3.509-3.385,5.557c-0.54,1.341-0.987,2.713-1.496,4.062c-0.943,2.5-1.769,5.029-2.333,7.638
	c-0.648,3.001-1.356,5.993-1.731,9.046c-0.089,0.728-0.397,1.424-0.363,2.154c0.028,0.618-0.072,1.192-0.244,1.771
	c-0.05,0.168-0.058,0.35-0.08,0.527c-0.167,1.283-0.429,2.544-0.854,3.769c-0.476,1.365-1,2.716-1.42,4.098
	c-0.744,2.446-1.51,4.886-2.345,7.302c-0.283,0.82-0.579,1.636-0.889,2.445c-0.375,0.975-0.756,1.948-1.174,2.903
	c-0.111,0.256-0.25,0.679-0.63,0.565c-0.292-0.088-0.173-0.472-0.169-0.724c0.025-1.85,0.309-3.681,0.499-5.517
	c0.198-1.925,0.68-3.812,0.874-5.742c0.202-1.996,0.669-3.95,1.021-5.922c0.445-2.479,0.701-4.982,1.009-7.479
	c0.233-1.883,0.638-3.73,0.996-5.587c0.214-1.112,0.396-2.234,0.726-3.326c0.492-1.638,1.064-3.249,1.249-4.975
	c0.177-1.658,0.595-3.294,0.58-4.97c-0.016-1.755,0.033-3.511-0.147-5.267c-0.199-1.944-0.387-3.881-1.053-5.737
	c-0.285-0.796-0.58-1.591-0.805-2.405c-0.286-1.042-0.711-2.004-1.331-2.892c-0.496-0.71-1.048-1.395-1.387-2.198
	c-0.529-1.256-1.303-2.377-1.926-3.581c-0.764-1.482-1.613-2.93-2.131-4.523c-0.952-2.932-1.518-5.947-1.865-9.007
	c-0.034-0.296-0.007-0.794-0.298-0.813c-0.389-0.025-0.377,0.473-0.441,0.781c-0.216,1.046-0.421,2.095-0.606,3.148
	c-0.32,1.833-0.979,3.547-1.685,5.263c-1.034,2.513-2.12,4.996-3.413,7.386c-0.573,1.058-1.141,2.114-1.468,3.282
	c-0.102,0.364-0.21,0.729-0.413,1.055c-1.472,2.376-1.944,5.056-2.266,7.759c-0.16,1.343-0.376,2.679-0.489,4.029
	c-0.119,1.404-0.18,2.789,0.127,4.175c0.213,0.957,0.406,1.918,0.564,2.885c0.233,1.427,0.598,2.819,0.994,4.208
	c0.375,1.313,0.992,2.528,1.54,3.766c0.759,1.715,1.343,3.49,1.905,5.267c0.555,1.757,1.011,3.553,1.293,5.385
	c0.269,1.742,0.921,3.392,1.305,5.104c0.575,2.566,1.387,5.066,2.064,7.604c0.655,2.454,1.316,4.903,1.695,7.417
	c0.085,0.562,0.246,1.138,0.071,1.718c-0.021,0.073,0.013,0.192-0.103,0.199c-0.042,0.003-0.1-0.08-0.132-0.135
	c-1.253-2.126-2.623-4.187-3.549-6.494c-0.773-1.921-1.874-3.693-2.611-5.633c-0.586-1.538-1.128-3.095-1.768-4.611
	c-0.941-2.231-1.95-4.434-2.933-6.647c-0.732-1.649-1.297-3.362-1.947-5.04c-1.038-2.674-1.982-5.387-3.144-8.013
	c-0.604-1.364-1.153-2.752-2.052-3.959c-1.399-1.877-2.877-3.686-4.597-5.285c-0.228-0.212-0.457-0.428-0.654-0.667
	c-1.739-2.101-4.012-3.491-6.354-4.788c-1.149-0.637-2.329-1.237-3.333-2.084c-1.911-1.611-3.652-3.393-5.152-5.4
	c-0.252-0.339-0.485-0.693-0.74-1.031c-0.125-0.166-0.204-0.488-0.47-0.38c-0.309,0.125-0.065,0.389-0.015,0.575
	c0.253,0.923,0.634,1.805,0.876,2.733c0.639,2.444,0.914,4.942,1.08,7.451c0.114,1.727,0.089,3.459,0.248,5.188
	c0.255,2.769,0.432,5.54,1.105,8.257c0.599,2.418,1.368,4.764,2.795,6.818c1.319,1.901,2.799,3.701,4.422,5.341
	c1.531,1.545,3.247,2.906,4.731,4.508c0.138,0.148,0.311,0.249,0.54,0.169c0.114-0.041,0.274,0.021,0.211,0.145
	c-0.186,0.365,0.137,0.47,0.297,0.649c1.234,1.378,2.592,2.632,3.893,3.943c0.974,0.979,1.786,2.106,2.813,3.036
	c1.928,1.748,3.744,3.617,5.701,5.335c1.422,1.248,2.822,2.519,4.312,3.69c0.94,0.74,1.765,1.63,2.639,2.455
	c0.095,0.09,0.214,0.188,0.162,0.34c-0.056,0.165-0.208,0.121-0.339,0.127c-0.442,0.017-0.49,0.127-0.255,0.541
	c0.083,0.147,0.352,0.289,0.242,0.418c-0.116,0.137-0.373-0.012-0.564-0.052c-0.127-0.027-0.248-0.096-0.371-0.147
	c-0.967-0.398-1.937-0.793-2.901-1.196c-1.784-0.747-3.614-1.377-5.319-2.325c-1.223-0.682-2.43-1.404-3.706-1.989
	c-1.968-0.902-3.838-1.984-5.647-3.156c-2.734-1.77-5.627-3.234-8.545-4.66c-2.991-1.463-6.198-2.351-9.289-3.549
	c-1.443-0.56-2.974-0.946-4.568-0.874c-0.555,0.026-1.114,0.013-1.669-0.016c-1.293-0.062-2.581-0.053-3.857,0.206
	c-0.37,0.073-0.747,0.106-1.127,0.12c-1.535,0.055-3.07,0.124-4.605,0.199c-1.667,0.08-3.337,0.114-4.996-0.078
	c-0.811-0.094-1.603-0.347-2.405-0.517c-0.235-0.05-0.614-0.171-0.686,0.022c-0.112,0.303,0.279,0.407,0.499,0.502
	c1.29,0.562,2.393,1.452,3.663,2.046c0.141,0.064,0.263,0.166,0.395,0.249c1.357,0.856,2.624,1.832,3.847,2.872
	c0.919,0.781,1.818,1.575,2.527,2.552c0.45,0.619,0.98,1.15,1.542,1.656c0.397,0.357,0.794,0.717,1.188,1.078
	c1.4,1.284,2.971,2.342,4.567,3.354c1.408,0.893,2.871,1.703,4.36,2.454c1.229,0.62,2.448,1.269,3.832,1.525
	c2.518,0.468,5.046,0.845,7.594,1.107c1.352,0.14,2.711,0.164,4.058,0.359c0.991,0.144,1.99,0.26,2.991,0.271
	c1.473,0.019,2.934,0.2,4.395,0.327c3.307,0.286,6.609,0.575,9.93,0.604c0.4,0.004,0.807-0.013,1.189,0.133
	c0.409,0.155,0.803,0.4,1.239,0.048c0.1-0.08,0.258-0.021,0.39,0.012c0.442,0.11,0.883,0.08,1.325-0.013
	c0.329-0.068,0.665-0.095,0.997-0.047c0.314,0.046,0.807-0.033,0.849,0.335c0.05,0.438-0.453,0.473-0.787,0.559
	c-1.771,0.452-3.471,1.119-5.189,1.734c-1.945,0.695-3.712,1.824-5.771,2.256c-1.77,0.371-3.337,1.339-5.057,1.895
	c-1.883,0.607-3.664,1.526-5.384,2.485c-2.227,1.24-4.458,2.49-6.418,4.182c-1.621,1.397-3.241,2.794-4.648,4.4
	c-1.234,1.408-2.547,2.735-3.827,4.097c-0.979,1.041-2.074,1.951-3.173,2.858c-0.143,0.117-0.408,0.224-0.28,0.457
	c0.114,0.206,0.365,0.101,0.552,0.061c0.239-0.049,0.472-0.128,0.707-0.196c0.406-0.119,0.806-0.269,1.219-0.353
	c2.115-0.43,4.233-0.857,6.354-1.253c1.011-0.189,2.004-0.429,2.966-0.783c2.481-0.913,5.006-1.716,7.383-2.893
	c0.491-0.243,1.05-0.179,1.538-0.418c0.896-0.437,1.857-0.764,2.633-1.417c0.413-0.349,1.004-0.27,1.386-0.605
	c0.49-0.432,1.068-0.694,1.609-1.032c2.057-1.285,4.037-2.688,5.937-4.199c0.699-0.555,1.415-1.066,2.196-1.507
	c1.221-0.689,2.436-1.408,3.393-2.461c0.523-0.577,1.043-1.155,1.617-1.686c1.38-1.276,2.457-2.813,3.611-4.282
	c0.49-0.624,0.953-0.571,1.783-0.744c0.038-0.009,0.075,0.616,0.111,0.616c0.229,0,0.619,0,0.854,0c0.027,0,0.057-0.663,0.084-0.666
	c0.043,0.038,0.098-0.264,0.151-0.24c0.663,0.287,1.094,0.643,1.483,1.23c0.23,0.348,0.524,0.582,0.835,0.865
	c0.551,0.5,0.961,1.066,1.399,1.654c0.398,0.535,0.771,1.073,1.204,1.581c2.139,2.506,4.695,4.528,7.356,6.438
	c0.866,0.622,1.714,1.272,2.678,1.748c0.939,0.464,1.834,1.002,2.732,1.54c1.182,0.709,2.346,1.454,3.573,2.082
	c1.228,0.631,2.441,1.277,3.641,1.957c1.144,0.648,2.322,1.228,3.618,1.52c0.634,0.144,1.224,0.403,1.788,0.716
	c0.373,0.208,0.771,0.36,1.181,0.459c1.558,0.374,3.114,0.757,4.684,1.074c1.114,0.224,2.256,0.262,3.392,0.28
	c1.25,0.022,2.481,0.269,3.726,0.334c3.189,0.169,6.323,0.701,9.438,1.369c0.392,0.085,0.787,0.154,1.181,0.222
	c0.084,0.014,0.194,0.008,0.209-0.109c0.006-0.055-0.027-0.129-0.066-0.175c-0.229-0.278-0.531-0.476-0.819-0.683
	c-1.895-1.363-3.891-2.581-5.656-4.125c-1.643-1.433-3.376-2.761-4.772-4.459c-0.522-0.636-1.142-1.187-1.837-1.637
	c-2.675-1.73-5.418-3.336-8.312-4.679c-1.536-0.714-3.102-1.366-4.699-1.907c-1.789-0.608-3.607-1.134-5.392-1.757
	c-1.24-0.432-2.512-0.757-3.744-1.219c-1.521-0.569-3.044-1.136-4.569-1.69c-1.966-0.715-3.975-1.31-5.908-2.116
	c-1.068-0.445-2.153-0.852-3.23-1.274c-0.278-0.11-0.743-0.124-0.695-0.487c0.048-0.37,0.505-0.339,0.83-0.378
	c2.252-0.276,4.514-0.474,6.762-0.79c2.514-0.353,5.002-0.853,7.5-1.295c2.244-0.398,4.378-1.218,6.602-1.676
	c1.882-0.389,3.714-0.905,5.486-1.647c1.497-0.626,2.986-1.271,4.496-1.873c1.566-0.624,3.003-1.544,4.544-2.247
	c1.844-0.841,3.476-2.068,5.247-3.051c0.648-0.36,1.267-0.781,1.82-1.276c0.518-0.462,1.081-1.019,1.362-1.659
	c0.03-0.067,0.067-0.138,0.105-0.199c0.082-0.128,0.147-0.253,0.219-0.386c0.177-0.323,0.384-0.59,0.611-0.881
	c0.081-0.104,0.134-0.228,0.214-0.331c0.048-0.061,0.115-0.098,0.158-0.165c0.031-0.049,0.042-0.107,0.079-0.154
	c0.113-0.145,0.196-0.308,0.33-0.438c0.082-0.079,0.088-0.134,0.136-0.234c0.048-0.102,0.129-0.175,0.195-0.26
	c0.137-0.177,0.238-0.387,0.371-0.566c0.154-0.21,0.3-0.428,0.434-0.653c0.127-0.21,0.224-0.456,0.383-0.645
	c0.14-0.164,0.209-0.332,0.308-0.522c0.119-0.229,0.26-0.456,0.309-0.712c0.031-0.161,0.112-0.326,0.18-0.484
	c0.05-0.121,0.133-0.239,0.191-0.356c0.074-0.144,0.092-0.285,0.165-0.43c0.074-0.15,0.129-0.289,0.223-0.438
	c0.047-0.076,0.064-0.162,0.106-0.236c0.043-0.069,0.076-0.123,0.111-0.204c0.142-0.33,0.394-0.598,0.551-0.918
	c0.179-0.363,0.363-0.726,0.558-1.081c0.466-0.854,1.029-1.638,1.538-2.463c0.064-0.104,0.104-0.224,0.163-0.331
	c0.129-0.233,0.272-0.513,0.443-0.718c0.064-0.077,0.086-0.134,0.133-0.216c0.032-0.056,0.086-0.098,0.115-0.154
	c0.088-0.161,0.134-0.314,0.271-0.452c0.092-0.095,0.217-0.142,0.31-0.232c0.141-0.138,0.234-0.339,0.341-0.502
	c0.117-0.18,0.235-0.36,0.354-0.54c0.473-0.718,0.949-1.435,1.36-2.19c0.04-0.076,0.081-0.152,0.121-0.228
	C127.544,58.923,127.798,58.669,127.578,58.479z"/>
</svg>
