<?xml version="1.0" encoding="utf-8"?>
<!-- Generator: Adobe Illustrator 16.0.4, SVG Export Plug-In . SVG Version: 6.00 Build 0)  -->
<!DOCTYPE svg PUBLIC "-//W3C//DTD SVG 1.1//EN" "http://www.w3.org/Graphics/SVG/1.1/DTD/svg11.dtd">
<svg version="1.1" id="Layer_1904" xmlns="http://www.w3.org/2000/svg" xmlns:xlink="http://www.w3.org/1999/xlink" x="0px" y="0px"
	 width="128px" height="128px" viewBox="0 0 128 128" enable-background="new 0 0 128 128" xml:space="preserve">
<g>
	<g>
		<path fill="none" d="M34.938,35.223c1.593,0.314,3.016,1.025,4.324,1.972c0.282,0.206,0.482,0.33,0.734-0.074
			c1.145-1.845,2.681-3.261,4.678-4.154c0.092-0.041,0.168-0.118,0.246-0.173c-0.048-0.197-0.204-0.289-0.335-0.398
			c-2.146-1.786-5.183-2.037-7.665-0.456c-1.01,0.643-1.775,1.547-2.284,2.65C34.474,34.939,34.473,35.131,34.938,35.223z"/>
		<path fill="none" d="M54.963,33.433c1.864,1.107,3.34,2.589,4.234,4.601c0.059,0.13,0.033,0.384,0.282,0.352
			c0.148-0.02,0.191-0.181,0.256-0.305c0.634-1.216,1.497-2.239,2.555-3.118c1.081-0.899,2.267-1.598,3.579-2.088
			c0.131-0.049,0.299-0.066,0.336-0.208c0.063-0.23-0.177-0.26-0.303-0.345c-1.62-1.096-3.49-1.286-5.351-1.478
			c-0.601,0.063-1.192,0.097-1.774,0.192c-1.345,0.22-2.645,0.571-3.798,1.35C54.007,33.044,54.298,33.038,54.963,33.433z"/>
		<path fill="none" d="M37.86,45.303c-1.852,0.406-3.411,1.353-4.658,2.79c-0.448,0.517-0.726,1.081-0.389,1.83
			c0.386,0.855,0.468,1.866,0.564,2.8c0.083,0.787,0.08,0.732,0.847,0.735c2.156,0.01,4.312,0.042,6.467,0.042
			c0.661,0,1.322,0,1.982,0c1.565,0,3.13-0.053,4.694-0.035c0.515,0.006,0.701-0.337,0.615-0.817
			c-0.093-0.512-0.164-0.985-0.304-1.485C46.497,46.945,42.147,44.363,37.86,45.303z"/>
		<path fill="none" d="M40.69,42.205c0.02,0.881,0.006,0.899,0.893,1.062c1.422,0.262,2.731,0.771,3.923,1.6
			c0.922,0.642,1.725,1.399,2.414,2.282c0.125,0.16,0.214,0.455,0.416,0.405c0.126-0.032,0.188-0.346,0.264-0.539
			c0.141-0.356,0.264-0.718,0.408-1.071c0.57-1.401,1.41-2.623,2.458-3.712c1.402-1.459,3.066-2.484,4.979-3.131
			c0.903-0.306,0.899-0.347,0.39-1.116c-1.729-2.611-4.238-3.804-7.427-4.02c-0.456,0.05-1.047,0.088-1.628,0.186
			C43.882,34.806,40.604,38.148,40.69,42.205z"/>
		<path fill="none" d="M82.61,38.905c0.201,0.491,0.481,0.708,0.946,0.824c2.037,0.507,3.786,1.538,5.278,2.997
			c0.355,0.35,0.533,0.414,0.872-0.013c1.21-1.522,2.448-3.021,3.696-4.513c0.328-0.393,0.287-0.734,0.037-1.128
			c-1.582-2.503-3.843-3.831-6.51-3.969c-2.485,0.013-4.338,0.833-5.933,2.31c-0.343,0.318-0.317,0.539-0.02,0.848
			C81.708,37.023,82.218,37.945,82.61,38.905z"/>
		<path fill="none" d="M64.288,41.371c-3.474-1.492-8.138-0.927-11.123,2.082c-2.494,2.513-3.405,5.507-2.958,8.958
			c0.13,1.007,0.177,1.009,1.176,1.01c2.957,0.004,5.913,0.001,8.87,0.002c2.925,0,5.849,0.003,8.773-0.001
			c1.147-0.002,1.17-0.027,1.333-1.108C71.045,47.731,68.536,43.197,64.288,41.371z"/>
		<path fill="none" d="M72.153,45.548c-0.339,0.451-0.441,0.878-0.245,1.438c0.633,1.804,0.662,3.673,0.452,5.555
			c-0.097,0.857,0.036,0.874,0.888,0.876c2.71,0.01,5.252,0.003,8.252,0.003c0,0.001,0,0.003,0,0.004c2,0,5.3,0.005,8.01-0.002
			c0.838-0.002,0.895-0.058,0.967-0.847c0.262-2.941-0.5-5.612-2.511-7.811c-2.379-2.602-5.377-3.786-8.918-3.319
			C76.18,41.824,73.884,43.243,72.153,45.548z"/>
		<path fill="none" d="M62.092,38.158c-0.155,0.218-0.183,0.367,0.128,0.435c0.204,0.044,0.407,0.087,0.61,0.135
			c2.785,0.679,5.139,2.058,6.946,4.311c0.825,1.028,0.83,1.041,1.733,0.08c2.062-2.191,4.593-3.427,7.576-3.769
			c0.425-0.049,1.071,0.194,1.218-0.24c0.141-0.423-0.362-0.849-0.665-1.225c-2.219-2.754-5.229-3.764-8.379-3.901
			c-2.524,0.029-4.655,0.581-6.594,1.774C63.653,36.381,62.785,37.18,62.092,38.158z"/>
		<path fill="none" d="M87.582,114.227c-10.474-0.004-20.95-0.002-31.423-0.002c-10.754,0-21.509,0.009-32.265,0.01
			c-0.139,0-0.278,0.011-0.417,0.013c-0.992,0.011-0.998,0.04-1.004,0.991c-0.007,0.906-0.004,1.865,0,2.771
			c0.006,1.421-0.103,1.827,1.307,1.827c10.616,0.004,21.232,0.664,31.847,0.664c10.543,0,21.087,0,31.632,0
			c0.243,0,0.487-0.656,0.73-0.662c0.748-0.021,0.762-0.465,0.771-1.185c0.013-1.01,0.007-2.128,0.002-3.138
			C88.756,114.223,88.866,114.227,87.582,114.227z"/>
		<path fill="none" d="M120.715,8.604c-1.427,0.159-2.573,0.84-3.612,1.717c-1.437,1.212-2.688,2.619-3.898,4.055
			c-3.932,4.657-7.366,9.683-10.783,14.715C99.003,34.13,95.5,39.096,91.546,43.733c-0.225,0.265-0.456,0.526-0.668,0.801
			c-0.124,0.161-0.239,0.316-0.114,0.562c0.331,0.649,0.635,1.313,0.942,1.975c0.115,0.25,0.25,0.176,0.39,0.037
			c0.121-0.123,0.23-0.26,0.347-0.388c3.959-4.356,8.216-8.404,12.668-12.25c3.816-3.296,7.614-6.613,11.258-10.099
			c2.488-2.381,4.894-4.842,6.955-7.612c0.906-1.218,1.498-2.577,1.652-4.792C125.122,10.542,122.961,8.354,120.715,8.604z"/>
		<path fill="none" d="M92.576,53.3c0.426,0.377,1.202,0.08,1.744,0.125c0.53,0,0.981-0.014,1.433,0.004
			c0.438,0.018,0.701-0.161,0.873-0.574c0.904-2.195,0.919-4.39,0.023-6.585c-0.25-0.612-0.36-0.632-0.849-0.122
			c-0.741,0.778-1.394,1.652-2.194,2.363c-0.944,0.838-1.331,1.785-1.08,3.014C92.648,52.129,92.123,52.897,92.576,53.3z"/>
		<path fill="none" d="M13.431,53.457c0.243,0.013,0.486,0.043,0.73,0.043c2.608,0,5.216,0,7.825,0c2.748,0,5.495-0.035,8.243-0.041
			c1.139-0.001,1.165-0.05,1.056-1.193c-0.013-0.138-0.025-0.336-0.056-0.471c-0.85-3.886-3.151-6.425-7.021-7.401
			c-3.956-0.997-7.724,0.707-9.913,3.941c-0.887,1.31-1.396,2.761-1.532,4.353C12.709,53.32,12.787,53.424,13.431,53.457z"/>
		<path fill="none" d="M4.788,54.5c-0.279,0-0.559,0.523-0.835,0.499c-0.522-0.048-0.657,0.541-0.648,1.015
			c0.021,1.045-0.013,2.175,0.012,3.219c0.013,0.511-0.245,1.187,0.094,1.545c0.351,0.37,0.989,0.109,1.497,0.109
			c13.301,0.011,26.602,0.02,39.903,0.021c0.314,0,0.628-0.01,0.94,0.02c0.67,0.064,1.057,0.481,1.034,1.073
			c-0.021,0.554-0.386,0.917-1.032,0.957c-0.555,0.035-1.112,0.014-1.669,0.014c-12.43,0-24.861-0.001-37.292-0.002
			c-0.901,0-1.805-0.009-2.706,0.002c-0.747,0.009-0.762,0.015-0.771,0.744c-0.013,1.148-0.011,2.291-0.004,3.439
			c0.01,1.411-0.113,1.286,1.238,1.286c17.026,0.006,34.054,0.06,51.08,0.06c16.992,0,33.983,0,50.976,0
			c0.277,0,0.557-0.06,0.835-0.052c0.342,0.011,0.511-0.134,0.51-0.497c-0.008-1.461-0.01-2.932,0.003-4.394
			c0.003-0.416-0.19-0.826-0.572-0.81c-0.278,0.012-0.558-0.248-0.836-0.248c-5.085,0-10.168,0-15.251,0
			c-0.314,0-0.631,0.256-0.938,0.214c-0.523-0.072-0.908-0.405-0.934-0.882c-0.024-0.469,0.343-0.853,0.871-0.952
			c0.271-0.05,0.555,0,0.832-0.001c1.567-0.003,3.135,0.011,4.701,0.011c3.656,0,7.312,0.001,10.969-0.001
			c1.152-0.002,1.153-0.022,1.156-1.127c0.002-0.871,0.006-1.78-0.001-2.649c-0.018-1.98,0.235-2.106-1.738-2.106
			C87.861,54.998,69.515,54.5,51.167,54.5C35.707,54.5,20.248,54.5,4.788,54.5z"/>
		<path fill="none" d="M30.992,46.376c0.425,0.522,0.441,0.517,0.961-0.004c1.398-1.401,2.993-2.472,4.941-2.945
			c0.405-0.098,0.81-0.196,1.221-0.26c0.321-0.05,0.497-0.168,0.488-0.525c-0.021-0.869-0.022-1.739,0.218-2.586
			c0.07-0.31-0.064-0.53-0.281-0.738c-0.302-0.288-0.62-0.549-0.972-0.78c-2.106-1.384-4.438-1.824-6.874-1.404
			c-2.769,0.478-4.931,1.968-6.383,4.412c-0.355,0.599-0.346,0.621,0.295,0.78C27.188,42.964,29.313,44.315,30.992,46.376z"/>
		<path fill="none" d="M106.623,71.488C91.304,71.486,75.982,72.5,60.663,72.5c-15.25,0-30.5,0-45.751,0
			c-0.278,0-0.558-1.018-0.836-1.01c-0.762,0.023-0.807-0.596-0.792,0.123c0.079,3.859-0.226,7.534,0.261,11.388
			c0.412,3.262,1.236,6.312,2.503,9.345c1.958,4.691,4.936,8.646,8.365,12.343c0.189,0.204,0.396,0.376,0.538,0.61
			c0.241,0.398,0.16,0.956-0.135,1.249c-0.36,0.359-0.874,0.393-1.333,0.056c-0.222-0.162-0.405-0.383-0.593-0.587
			c-3.318-3.603-6.227-7.482-8.256-11.979c-2.131-4.72-3.312-9.656-3.402-14.837c-0.045-2.645-0.001-5.292-0.01-7.937
			c-0.003-0.761-0.021-0.78-0.741-0.782c-2.124-0.012-4.249-0.012-6.372-0.003c-0.767,0.004-0.789,0.019-0.795,0.729
			c-0.012,1.879,0.008,3.757-0.007,5.637c-0.018,2.334,0.031,4.648,0.43,6.962c0.499,2.893,1.223,5.701,2.373,8.399
			c2.003,4.695,4.968,8.727,8.419,12.455c2.08,2.248,4.319,4.287,6.426,6.508c0.585,0.616,1.204,1.174,2.093,1.17
			c11.662-0.031,23.324,0.16,34.986,0.16c9.99,0,19.981,0,29.972,0c0.209,0,0.419-0.197,0.626-0.178
			c0.566,0.057,0.979-0.156,1.372-0.564c1.356-1.4,2.753-2.857,4.123-4.243c3.211-3.246,6.243-6.68,8.622-10.613
			c3.509-5.802,5.183-12.065,5.232-18.816c0.014-2.052-0.016-3.673-0.032-5.726C107.936,70.883,108.131,71.488,106.623,71.488z"/>
		<path d="M20.436,119.681c0.003,0.142-0.004,0.284,0.003,0.426c0.039,0.698,0.332,1.012,1.022,1.087
			c0.448,0.047,0.904,0.022,1.357,0.022c14.409-0.001,28.818-0.005,43.227-0.005c7.661,0,15.321,0.006,22.981,0.01
			c0.174,0,0.437,0.004,0.61-0.01c0.346-0.025,0.863-0.099,0.863-0.199v-7.548l5.293-4.149c0.021-0.435,0.163-0.755,0.469-1.076
			c1.82-1.916,3.611-3.843,5.24-5.93c2.823-3.621,5.071-7.545,6.522-11.926c1.101-3.322,1.704-6.732,1.979-10.208
			c0.062-0.76,0.081-1.53-0.036-2.292c-0.061-0.381-0.024-0.76,0.011-1.144c0.079-0.866,0.101-1.736-0.013-2.602
			c-0.18-1.357,0.073-2.709,0.065-4.065c-0.027-4.942-0.012-9.885-0.012-14.83c0-0.208,0.017-0.418-0.004-0.625
			c-0.079-0.79-0.387-1.113-1.193-1.176c-0.554-0.042-1.113-0.016-1.671-0.017c-2.576-0.002-5.151,0.003-7.728-0.006
			c-0.738-0.003-0.74-0.022-0.522-0.745c0.817-2.723,0.637-5.353-0.711-7.884c-0.393-0.735-0.379-0.746,0.183-1.31
			c2.356-2.37,4.835-4.606,7.361-6.792c2.236-1.934,4.439-3.905,6.657-5.86l3.146-2.841c0.071-0.1,0.158-0.197,0.266-0.289
			c0.608-0.519,1.186-1.075,1.762-1.63c2.557-2.464,5.044-4.993,7.213-7.816c1.167-1.519,1.931-3.196,2.146-5.127
			c0.377-3.406-2.326-6.523-5.749-6.575c-1.785-0.025-3.296,0.676-4.71,1.665c-0.063,0.391-2.986,2.512-3.432,3.219l-0.057,0.004
			c-0.084,0.159-0.183,0.314-0.315,0.467c-4.516,5.128-8.329,10.778-12.168,16.409c-1.353,1.983-2.73,3.949-4.096,5.921
			c-0.08,0.114-0.161,0.228-0.246,0.336c-0.083,0.107-0.164,0.256-0.318,0.226c-0.078-0.016-0.105-0.061-0.119-0.112
			c-0.348,0.159-0.392-0.29-0.965-0.562c-0.418-0.198-0.779-0.25-1.11-0.33c-0.063,0.007-0.126-0.013-0.189-0.052
			c-0.315-0.097-0.602-0.271-0.882-0.667c-2.971-2.151-6.259-2.546-9.762-1.235c-1.142,0.428-2.182,1.1-3.057,1.979
			c-0.633,0.634-0.676,0.637-1.392,0.186c-2.145-1.357-4.528-1.921-7.023-2.071c-0.587-0.036-1.186,0.027-1.772,0.091
			c-0.48,0.053-0.837-0.056-1.21-0.405c-1.86-1.733-4.135-2.511-6.626-2.714c-2.663-0.216-5.197,0.22-7.547,1.554
			c-0.676,0.384-1.225,0.914-1.793,1.423c-0.241,0.214-0.442,0.418-0.814,0.316c-1.194-0.33-2.415-0.325-3.624-0.15
			c-0.604,0.088-0.956-0.142-1.348-0.546c-3.027-3.12-7.587-3.55-11.125-1.048c-1.37,0.968-2.37,2.25-2.888,3.86
			c-0.152,0.472-0.367,0.646-0.875,0.67c-3.063,0.139-5.65,1.368-7.751,3.582c-0.791,0.833-1.432,1.798-1.897,2.857
			c-0.183,0.417-0.38,0.641-0.89,0.682c-3.335,0.271-6.056,1.761-8.104,4.382c-1.283,1.641-2.087,3.525-2.258,5.636
			c-0.02,0.243-0.043,0.486-0.046,0.729c-0.003,0.39-0.19,0.61-0.577,0.604C9.874,53.454,9.56,53.5,9.247,53.5
			c-0.151,0-0.302,0-0.453,0H0.5c0,2,0,4.592,0,6.471c0,8.129,0.251,16.258,0.299,24.387c0.613,2.038,1.731,4.663,2.625,6.887
			c0.029,0.035,0.099,0.086,0.119,0.135c0.166,0.407,0.347,0.814,0.507,1.222c0.038,0.095,0.09,0.193,0.128,0.283
			c1.562,3.855,3.82,7.284,6.448,10.484c2.811,3.425,6.007,6.482,9.16,9.575c0.445,0.438,0.579,0.88,0.614,1.338 M80.998,35.412
			c1.595-1.477,3.447-2.297,5.933-2.31c2.667,0.138,4.928,1.466,6.51,3.969c0.25,0.395,0.291,0.735-0.037,1.128
			c-1.248,1.491-2.486,2.99-3.696,4.513c-0.339,0.427-0.517,0.363-0.872,0.013c-1.492-1.459-3.241-2.49-5.278-2.997
			c-0.465-0.116-0.745-0.333-0.946-0.824c-0.393-0.96-0.902-1.881-1.632-2.645C80.681,35.951,80.655,35.73,80.998,35.412z
			 M87.918,44.766c2.012,2.199,2.726,4.87,2.462,7.811c-0.072,0.79-0.032,0.845-0.87,0.847c-2.71,0.007-6.01,0.002-8.01,0.002
			c0-0.001,0-0.003,0-0.004c-3,0-5.542,0.006-8.252-0.003c-0.852-0.003-0.889-0.02-0.795-0.876c0.211-1.881,0.136-3.75-0.497-5.555
			c-0.197-0.561-0.117-0.987,0.222-1.438c1.73-2.306,3.99-3.724,6.859-4.102C82.578,40.98,85.539,42.164,87.918,44.766z
			 M71.26,33.984c3.15,0.137,6.16,1.147,8.379,3.901c0.303,0.376,0.806,0.802,0.665,1.225c-0.146,0.434-0.793,0.191-1.218,0.24
			c-2.983,0.342-5.514,1.578-7.576,3.769c-0.903,0.96-0.908,0.948-1.733-0.08c-1.808-2.253-4.161-3.632-6.946-4.311
			c-0.203-0.048-0.406-0.091-0.61-0.135c-0.312-0.067-0.284-0.216-0.128-0.435c0.693-0.978,1.561-1.777,2.574-2.4
			C66.604,34.564,68.735,34.013,71.26,33.984z M70.358,52.314c-0.163,1.082-0.186,1.106-1.333,1.108
			c-2.924,0.004-5.848,0.001-8.773,0.001c-2.957-0.001-5.913,0.001-8.87-0.002c-0.999-0.001-1.045-0.003-1.176-1.01
			c-0.447-3.451,0.464-6.445,2.958-8.958c2.985-3.009,7.649-3.574,11.123-2.082C68.536,43.197,71.045,47.731,70.358,52.314z
			 M54.979,32.387c1.153-0.779,2.453-1.13,3.798-1.35c0.582-0.096,1.173-0.129,1.774-0.192c1.861,0.192,3.731,0.382,5.351,1.478
			c0.126,0.084,0.366,0.114,0.303,0.345c-0.037,0.142-0.205,0.159-0.336,0.208c-1.312,0.49-2.498,1.189-3.579,2.088
			c-1.059,0.878-1.921,1.901-2.555,3.118c-0.065,0.124-0.108,0.285-0.256,0.305c-0.249,0.033-0.224-0.221-0.282-0.352
			c-0.894-2.012-2.37-3.494-4.234-4.601C54.298,33.038,54.007,33.044,54.979,32.387z M47.779,34.152
			c0.581-0.098,1.172-0.136,1.628-0.186c3.189,0.216,5.698,1.409,7.427,4.02c0.51,0.769,0.513,0.81-0.39,1.116
			c-1.913,0.647-3.577,1.672-4.979,3.131c-1.048,1.089-1.887,2.311-2.458,3.712c-0.144,0.353-0.268,0.715-0.408,1.071
			c-0.076,0.192-0.138,0.507-0.264,0.539c-0.201,0.05-0.291-0.245-0.416-0.405c-0.689-0.883-1.492-1.64-2.414-2.282
			c-1.192-0.829-2.501-1.338-3.923-1.6c-0.887-0.164-0.874-0.181-0.893-1.062C40.604,38.148,43.882,34.806,47.779,34.152z
			 M47.367,53.465c-1.564-0.018-3.128,0.035-4.694,0.035c-0.661,0-1.322,0-1.982,0c-2.155,0-4.312-0.032-6.467-0.042
			c-0.767-0.003-0.764-0.04-0.847-0.828c-0.096-0.934-0.178-1.898-0.564-2.753c-0.337-0.749-0.059-1.29,0.389-1.807
			c1.248-1.437,2.807-2.373,4.658-2.779c4.287-0.939,8.636,1.694,9.818,5.912c0.14,0.5,0.211,0.93,0.304,1.441
			C48.068,53.125,47.882,53.472,47.367,53.465z M34.635,34.59c0.509-1.103,1.274-2.007,2.284-2.65
			c2.482-1.582,5.519-1.331,7.665,0.456c0.131,0.109,0.287,0.201,0.335,0.398c-0.078,0.056-0.154,0.132-0.246,0.173
			c-1.997,0.894-3.533,2.31-4.678,4.154c-0.251,0.404-0.452,0.28-0.734,0.074c-1.308-0.947-2.731-1.658-4.324-1.972
			C34.473,35.131,34.474,34.939,34.635,34.59z M24.312,41.545c1.452-2.444,3.614-3.935,6.383-4.412
			c2.436-0.419,4.768,0.021,6.874,1.404c0.352,0.231,0.669,0.492,0.972,0.78c0.217,0.208,0.351,0.428,0.281,0.738
			c-0.241,0.848-0.24,1.717-0.218,2.586c0.009,0.357-0.167,0.475-0.488,0.525c-0.411,0.063-0.816,0.162-1.221,0.26
			c-1.949,0.473-3.543,1.544-4.941,2.945c-0.52,0.521-0.537,0.526-0.961,0.004c-1.679-2.061-3.804-3.412-6.384-4.051
			C23.966,42.167,23.957,42.144,24.312,41.545z M12.762,52.784c0.136-1.59,0.645-3.128,1.532-4.438
			c2.189-3.234,5.957-4.927,9.913-3.929c3.871,0.976,6.171,3.538,7.021,7.423c0.031,0.135,0.043,0.379,0.056,0.518
			c0.109,1.143,0.083,1.1-1.056,1.101c-2.748,0.005-5.495,0.041-8.243,0.041c-2.608,0-5.217,0-7.825,0
			c-0.244,0-0.487-0.03-0.73-0.043C12.787,53.424,12.709,53.418,12.762,52.784z M92.526,51.526c-0.251-1.229,0.136-2.176,1.08-3.014
			c0.801-0.71,1.453-1.584,2.194-2.363c0.488-0.511,0.599-0.49,0.849,0.122c0.896,2.195,0.881,4.39-0.023,6.585
			c-0.172,0.413-0.435,0.591-0.873,0.574c-0.451-0.019-0.902-0.004-1.433-0.004c-0.542-0.045-1.318,0.252-1.744-0.125
			C92.123,52.897,92.648,52.129,92.526,51.526z"/>
	</g>
	<path d="M83.165,36.365c1.038-0.946,2.241-1.471,3.857-1.479c1.733,0.087,3.203,0.938,4.232,2.54
		c0.162,0.252,0.188,0.471-0.025,0.722c-0.811,0.955-1.616,1.914-2.402,2.888c-0.221,0.273-0.336,0.232-0.566,0.008
		c-0.97-0.933-2.108-1.593-3.432-1.917c-0.303-0.074-0.483-0.214-0.614-0.527c-0.256-0.615-0.587-1.205-1.062-1.692
		C82.96,36.709,82.942,36.568,83.165,36.365z"/>
	<path d="M85.543,45.709c1.308,1.408,1.772,3.116,1.602,4.999c-0.047,0.505,0.043,0.541-0.503,0.542
		c-1.761,0.004-4.142,0.001-5.142,0.001c0,0,0-0.001,0-0.002c-2,0-3.666,0.003-5.428-0.002c-0.554-0.002-0.611-0.012-0.547-0.561
		c0.137-1.204,0.071-2.401-0.342-3.555c-0.128-0.359-0.082-0.632,0.137-0.92c1.127-1.476,2.592-2.383,4.456-2.625
		C82.077,43.287,83.999,44.044,85.543,45.709z"/>
	<path d="M71.223,35.755c2.048,0.087,4.004,0.734,5.446,2.496c0.197,0.241,0.524,0.513,0.433,0.784
		c-0.096,0.277-0.517,0.122-0.792,0.153c-1.938,0.219-3.584,1.01-4.924,2.412c-0.587,0.614-0.591,0.606-1.127-0.051
		c-1.176-1.442-2.704-2.324-4.517-2.759c-0.131-0.031-0.263-0.058-0.396-0.087c-0.203-0.042-0.184-0.138-0.083-0.278
		c0.45-0.625,1.015-1.137,1.673-1.536C68.196,36.127,69.582,35.774,71.223,35.755z"/>
	<path d="M66.831,50.402c-0.105,0.692-0.119,0.708-0.865,0.709c-1.901,0.002-3.801,0-5.702,0c-1.922,0-3.844,0-5.766-0.001
		c-0.649-0.001-0.68-0.003-0.764-0.647c-0.29-2.208,0.302-4.125,1.922-5.733c1.941-1.926,4.973-2.288,7.23-1.333
		C65.646,44.566,67.278,47.468,66.831,50.402z"/>
	<path d="M56.836,33.189c0.75-0.499,1.595-0.723,2.469-0.864c0.378-0.062,0.763-0.083,1.153-0.124
		c1.21,0.124,2.425,0.244,3.478,0.946c0.083,0.055,0.238,0.074,0.198,0.221c-0.025,0.091-0.135,0.102-0.219,0.133
		c-0.854,0.314-1.624,0.761-2.327,1.336c-0.688,0.562-1.249,1.216-1.66,1.995c-0.043,0.079-0.071,0.183-0.167,0.195
		c-0.162,0.021-0.146-0.141-0.183-0.225c-0.581-1.288-1.541-2.236-2.753-2.944C56.393,33.606,56.205,33.61,56.836,33.189z"/>
	<path d="M48.183,36.532c0.378-0.062,0.762-0.087,1.058-0.119c2.073,0.139,3.704,0.902,4.828,2.573
		c0.332,0.492,0.334,0.519-0.253,0.713c-1.244,0.415-2.325,1.071-3.237,2.004c-0.681,0.698-1.226,1.479-1.597,2.376
		c-0.094,0.227-0.173,0.458-0.265,0.686c-0.05,0.123-0.09,0.324-0.172,0.345c-0.13,0.032-0.189-0.157-0.27-0.259
		c-0.447-0.565-0.969-1.049-1.569-1.46c-0.775-0.531-1.626-0.856-2.55-1.024c-0.576-0.104-0.568-0.116-0.581-0.68
		C43.519,39.09,45.65,36.951,48.183,36.532z"/>
	<path d="M44.905,51.744c-1.017-0.012-2.034-0.244-3.051-0.244c-0.43,0-0.859,0-1.289,0c-1.401,0-2.802,0.246-4.204,0.239
		c-0.498-0.002-0.497,0.108-0.55-0.396c-0.062-0.598-0.116-1.148-0.366-1.696c-0.219-0.479-0.038-0.793,0.253-1.124
		c0.81-0.92,1.824-1.501,3.027-1.761c2.787-0.601,5.614,1.092,6.382,3.792c0.091,0.319,0.137,0.466,0.197,0.794
		C45.361,51.657,45.24,51.748,44.905,51.744z"/>
	<path d="M36.417,34.427c0.331-0.706,0.829-1.284,1.484-1.695c1.614-1.013,3.588-0.852,4.983,0.292
		c0.085,0.069,0.187,0.128,0.218,0.254c-0.05,0.036-0.1,0.085-0.16,0.11c-1.298,0.573-2.296,1.479-3.041,2.659
		c-0.163,0.258-0.293,0.179-0.477,0.048c-0.851-0.606-1.775-1.062-2.811-1.262C36.312,34.774,36.312,34.651,36.417,34.427z"/>
	<path d="M26.814,41.663c0.944-1.564,2.349-2.518,4.149-2.823c1.583-0.269,3.099,0.013,4.468,0.898
		c0.229,0.148,0.436,0.315,0.631,0.5c0.141,0.133,0.229,0.274,0.183,0.472c-0.156,0.542-0.155,1.099-0.142,1.655
		c0.006,0.229-0.108,0.304-0.316,0.336c-0.268,0.041-0.531,0.104-0.795,0.166c-1.266,0.303-2.303,0.988-3.212,1.885
		c-0.337,0.333-0.348,0.336-0.624,0.002c-1.091-1.319-2.473-2.184-4.15-2.593C26.589,42.061,26.583,42.046,26.814,41.663z"/>
	<path d="M16.009,51.4c0.088-1.018,0.418-2.002,0.995-2.84c1.423-2.069,3.872-3.153,6.443-2.515
		c2.516,0.625,4.012,2.264,4.564,4.751c0.02,0.086,0.028,0.243,0.037,0.332c0.07,0.731,0.054,0.526-0.687,0.527
		c-1.786,0.003-3.572-0.154-5.358-0.154c-1.695,0-3.391,0-5.086,0c-0.158,0-0.317,0.16-0.475,0.152
		C16.024,51.63,15.974,51.806,16.009,51.4z"/>
	<path d="M93.339,50.848c-0.161-0.787,0.09-1.393,0.702-1.93c0.521-0.454,0.945-1.014,1.428-1.512
		c0.316-0.327,0.389-0.313,0.551,0.079c0.581,1.405,0.571,2.809-0.016,4.214c-0.111,0.265-0.282,0.378-0.567,0.367
		c-0.294-0.012-0.586-0.003-0.931-0.003c-0.354-0.029-0.857,0.161-1.132-0.081C93.079,51.725,93.419,51.234,93.339,50.848z"/>
</g>
</svg>
