<?xml version="1.0" encoding="utf-8"?>
<!-- Generator: Adobe Illustrator 16.0.4, SVG Export Plug-In . SVG Version: 6.00 Build 0)  -->
<!DOCTYPE svg PUBLIC "-//W3C//DTD SVG 1.1//EN" "http://www.w3.org/Graphics/SVG/1.1/DTD/svg11.dtd">
<svg version="1.1" id="Layer_2001" xmlns="http://www.w3.org/2000/svg" xmlns:xlink="http://www.w3.org/1999/xlink" x="0px" y="0px"
	 width="128px" height="128px" viewBox="0 0 128 128" enable-background="new 0 0 128 128" xml:space="preserve">
<g id="qvUUj5.tif_1_">
	<g>
		<path fill-rule="evenodd" clip-rule="evenodd" d="M75.551,30.184c0.407,1.529,1.534,1.832,3.123,1.897
			c3.629,0.149,6.576,1.798,8.636,4.833c6.314,9.305,8.463,19.65,7.593,30.73c-0.081,1.047-0.178,2.102-0.396,3.123
			c-0.276,1.289-0.183,2.2,0.92,3.28c1.976,1.935,0.892,5.267-1.81,5.943c-1.083,0.271-1.598,0.729-1.983,1.768
			c-2.232,6.004-5.336,11.534-9.313,16.564c-0.656,0.829-1.091,1.634-1.061,2.813c0.051,1.932-1.239,3.385-3.172,3.523
			c-1.282,0.094-1.986,0.744-2.817,1.519c-5.878,5.472-12.382,10.021-19.757,13.273c-1.007,0.444-1.835,0.871-2.182,2.218
			c-0.722,2.8-3.703,3.706-5.965,1.878c-0.818-0.661-1.534-0.735-2.459-0.68c-4.691,0.29-8.425-1.577-10.759-5.578
			c-2.462-4.225-2.253-8.569,0.634-12.639c0.849-1.196,1.741-2.365,2.696-3.479c0.954-1.112,1.772-2.109,1.713-3.805
			c-0.065-1.869,1.417-3.107,3.455-3.253c0.905-0.064,1.56-0.264,2.159-0.979c2.872-3.428,5.786-6.822,8.701-10.211
			c0.696-0.812,0.996-1.483,0.249-2.551c-0.925-1.323-0.707-2.841,0.256-4.12c0.916-1.214,2.252-1.786,3.709-1.351
			c1.201,0.36,1.622-0.242,2.107-1.058c4.316-7.247,6.746-15.028,6.662-23.518c-0.021-1.959-0.066-3.917-0.146-5.874
			c-0.179-4.492,1.552-8.07,5.263-10.564c1.153-0.773,1.17-1.292,0.384-2.264c-1.743-2.161-3.809-3.889-6.342-5.044
			c-0.317-0.145-0.654-0.25-0.972-0.395c-1.374-0.634-1.876-1.531-1.453-2.576c0.434-1.07,1.457-1.456,2.833-0.922
			C69.948,24.193,73.055,26.713,75.551,30.184z M79.815,71.626c1.765-1.214,2.18-3.629,0.925-5.374
			c-1.193-1.661-3.513-2.021-5.225-0.812c-1.671,1.181-2.095,3.561-0.924,5.216C75.767,72.313,78.168,72.761,79.815,71.626z
			 M66.654,85.643c-1.184-1.702-3.474-2.135-5.197-0.979c-1.763,1.179-2.206,3.659-0.959,5.362c1.2,1.64,3.575,2.022,5.238,0.843
			C67.379,89.705,67.803,87.294,66.654,85.643z M59.287,104.774c-0.848,0.649-1.009,1.735-0.379,2.582
			c0.608,0.819,1.771,0.98,2.593,0.359c0.836-0.631,0.985-1.729,0.351-2.584C61.213,104.27,60.143,104.121,59.287,104.774z
			 M48.791,102.857c0.769-0.607,0.931-1.851,0.343-2.632c-0.608-0.807-1.767-0.953-2.609-0.324c-0.822,0.61-0.981,1.804-0.351,2.596
			C46.823,103.308,48.011,103.473,48.791,102.857z M38.615,114.765c-0.855,0.581-1.074,1.756-0.482,2.583
			c0.579,0.812,1.813,1.037,2.614,0.479c0.806-0.559,1.03-1.801,0.471-2.613C40.65,114.387,39.469,114.184,38.615,114.765z
			 M82.287,81.549c-0.567-0.854-1.72-1.096-2.574-0.534c-0.842,0.553-1.102,1.743-0.563,2.577c0.524,0.812,1.762,1.064,2.602,0.534
			C82.596,83.593,82.845,82.392,82.287,81.549z M76.688,50.649c0.869-0.61,1.046-1.702,0.416-2.567
			c-0.635-0.872-1.754-1.067-2.575-0.453c-0.8,0.6-1.009,1.817-0.449,2.627C74.635,51.061,75.841,51.242,76.688,50.649z"/>
	</g>
</g>
<path d="M97.626,26.018c-5.033-3.637-5.539-7.374-2.648-13.2c3.417-6.89,0.071-12.337-7.664-12.425
	c-3.843-0.045-7.687-0.01-11.53-0.01c-12.17,0.002-24.342,0.036-36.513-0.015c-3.272-0.014-6.145,0.666-6.841,4.291
	c-0.476,2.476-0.549,5.111,0.314,7.601c2.837,8.19,2.507,9.446-4.087,14.8c-6.149,4.992-9.59,11.031-9.412,19.203
	c0.214,9.817,0.254,29.308,0.355,29.308c0,10.536-0.044,20.227,0.012,30.262c0.072,12.659,9.562,22.341,22.137,22.405
	c14.52,0.074,29.04,0.085,43.56,0.049c13.358-0.033,22.915-9.477,23.03-22.871c0.161-18.788-0.016-37.573,0.413-56.354
	C108.976,39.24,105.585,31.768,97.626,26.018z M64.29,9.574c-7.865,0.001-15.731,0.053-23.597-0.046
	c-1.465-0.019-3.865,0.776-3.812-1.959c0.039-1.982,1.706-2.802,3.54-2.958c1.48-0.125,2.974-0.114,4.461-0.115
	C57.638,4.488,70.396,4.49,83.151,4.493c1.063,0,2.126,0.002,3.188,0.029c2.243,0.055,4.716,0.466,4.706,3.126
	c-0.01,2.976-2.821,1.836-4.432,1.866 M84.789,13.918c0.783,0.004,1.696,0.278,2.478,0.426c-0.827,0.12-1.587,0.343-2.414,0.346
	c-14.441,0.035-28.852,0.048-43.293,0.049c-0.616,0-1.215-0.169-1.83-0.26c0.457-0.874,1.053-0.567,1.725-0.571
	c7.433-0.033,15.046-0.021,22.046-0.021c0,0.004,0,0.008,0,0.011C69.5,13.899,77.78,13.885,84.789,13.918z M102.45,109.286
	c-1.832,9.021-8.408,14.073-19.172,14.133c-13.45,0.074-26.901,0.121-40.35-0.033c-9.222-0.106-16.07-6.052-17.81-14.1
	c0,0-0.908-59.829-0.78-63.393c0.217-6.06,2.777-11.126,7.773-14.754c2.444-1.775,5.099-3.556,6.023-6.446
	c1.352-4.227,3.995-4.582,7.683-4.46C51.786,20.43,57.5,20.287,63.5,20.287c0,0.004,0,0.009,0,0.014c6,0,13.046,0.083,19.445-0.037
	c2.87-0.054,4.893,0.689,5.974,3.659c1.119,3.07,3.691,5.181,6.312,7.104c5.553,4.073,8.39,9.452,7.984,16.488
	C103.041,50.539,102.45,109.286,102.45,109.286z"/>
</svg>
