<?xml version="1.0" encoding="utf-8"?>
<!-- Generator: Adobe Illustrator 16.0.4, SVG Export Plug-In . SVG Version: 6.00 Build 0)  -->
<!DOCTYPE svg PUBLIC "-//W3C//DTD SVG 1.1//EN" "http://www.w3.org/Graphics/SVG/1.1/DTD/svg11.dtd">
<svg version="1.1" id="Layer_2003" xmlns="http://www.w3.org/2000/svg" xmlns:xlink="http://www.w3.org/1999/xlink" x="0px" y="0px"
	 width="128px" height="128px" viewBox="0 0 128 128" enable-background="new 0 0 128 128" xml:space="preserve">
<path fill-rule="evenodd" clip-rule="evenodd" d="M95.556,65.557c-12.743-4.146-25.838-5.16-39.109-4.145
	c-8.062,0.615-16.055,1.835-23.844,4.117c-0.616,0.182-1.809-0.127-1.629,1.073c0.094,0.626,0.963,0.614,1.547,0.776
	c6.303,1.766,12.742,2.811,19.225,3.609c0.925,0.115,1.865,0.109,2.791,0.221c1.264,0.15,1.957,0.857,1.893,2.18
	c-0.075,1.553-1.202,1.715-2.32,1.535c-3.066-0.494-6.123-1.062-9.167-1.684c-4.577-0.93-9.068-2.189-13.318-4.154
	c-3.917-1.811-4.326-2.769-3.377-6.927c3.542-15.531,18.231-27.641,34.183-28.502c21.733-1.173,32.991,11.812,37.556,29.737
	c0.744,2.921-0.684,4.411-2.887,5.608c-3.996,2.172-8.308,3.455-12.74,4.361c-2.589,0.529-5.166,1.131-7.775,1.52
	c-5.165,0.773-5.309,0.729-5.028,6.119c0.42,8.072,0.199,16.189,1.512,24.203c0.392,2.4-0.644,3.934-2.689,4.854
	c-2.299,1.033-4.747,1.441-7.278,1.311c-6.954-0.361-8.164-2.088-7.522-8.943c1.088-11.625,1.332-23.297,1.334-34.973
	c0.002-5.321,0.359-5.657,5.853-5.762c0.933-0.019,1.869-0.018,2.801,0.021c5.396,0.222,5.913,0.511,5.724,5.9
	c-0.117,3.34,1.146,3.775,4.021,3.512c7.145-0.656,14.14-2,21.033-3.928c0.593-0.166,1.813-0.174,0.955-1.299
	c-0.275-0.359-1.158-0.255-1.762-0.362L95.556,65.557z M35.915,54.454l-0.387,0.292l0.31-0.37c0.571-0.586,1.143-1.173,1.714-1.76
	c2.141-2.133,4.283-4.266,6.425-6.401c0.875-0.231,1.601-0.607,1.629-1.664c3.261-0.695,6.226-1.856,7.908-5.033
	c1.875,0.271,3.584-0.008,4.935-1.484c0.288-0.452,1.367,0.309,1.228-0.799c-0.368,0.308-0.736,0.615-1.104,0.922
	c-1.714,0.272-3.518,0.245-4.941,1.488c-2.948,1.181-6.072,2.086-7.906,5.024c-0.952,0.155-1.653,0.554-1.624,1.666
	c-3.585,0.677-5.138,3.412-6.46,6.38C37.066,53.295,36.491,53.874,35.915,54.454z M60.359,82.615c0-3.713,0.009-7.428-0.009-11.141
	c-0.002-0.613-0.12-1.227-0.185-1.838c-0.072,0.592-0.202,1.184-0.207,1.775c-0.07,9.701-0.658,19.375-1.509,29.035
	c-0.052,0.592,0.127,1.205,0.199,1.807c1.04-0.248,0.626-1.15,0.732-1.758C60.399,94.578,60.71,88.609,60.359,82.615z"/>
<path d="M97.512,25.811c-5.017-3.625-5.521-7.349-2.64-13.155c3.405-6.867,0.071-12.295-7.638-12.383
	c-3.83-0.044-7.661-0.01-11.491-0.01C63.614,0.265,51.484,0.299,39.355,0.249c-3.262-0.014-6.125,0.664-6.818,4.276
	C32.062,6.993,31.99,9.619,32.85,12.1c2.827,8.162,2.499,9.414-4.073,14.75c-6.128,4.975-9.558,10.993-9.379,19.138
	c0.213,9.783,0.253,29.208,0.354,29.208c0,10.5-0.044,20.158,0.011,30.158c0.072,12.617,9.53,22.265,22.062,22.329
	c14.47,0.074,28.94,0.085,43.41,0.05c13.314-0.034,22.838-9.445,22.953-22.794c0.159-18.725-0.016-37.446,0.411-56.163
	C108.823,38.987,105.443,31.541,97.512,25.811z M40.502,4.477c1.475-0.125,2.964-0.114,4.445-0.115
	c12.713-0.008,25.427-0.005,38.14-0.003c1.059,0,2.118,0.002,3.178,0.029c2.235,0.055,4.699,0.464,4.688,3.116
	c-0.009,2.966-2.812,1.83-4.416,1.859c-7.413,0.135-14.83,0.06-22.248,0.06c-7.838,0.001-15.678,0.053-23.516-0.046
	c-1.46-0.019-3.852,0.773-3.799-1.953C37.013,5.449,38.673,4.631,40.502,4.477z M84.718,13.753c0.78,0.003,1.689,0.277,2.469,0.424
	c-0.824,0.12-1.581,0.342-2.405,0.345c-14.393,0.035-28.753,0.048-43.146,0.049c-0.614,0-1.211-0.169-1.824-0.259
	c0.455-0.871,1.049-0.565,1.719-0.569c7.407-0.033,14.97-0.021,21.97-0.021c0,0.003,0,0.008,0,0.011
	C69.5,13.733,77.732,13.719,84.718,13.753z M102.319,108.795c-1.826,8.991-8.38,14.025-19.106,14.085
	c-13.405,0.074-26.81,0.121-40.213-0.033c-9.19-0.106-16.016-6.031-17.749-14.052c0,0-0.905-59.625-0.778-63.175
	c0.216-6.04,2.768-11.089,7.747-14.704c2.436-1.77,5.081-3.544,6.003-6.424c1.348-4.212,3.98-4.566,7.656-4.445
	c5.948,0.196,11.621,0.053,17.621,0.053c0,0.004,0,0.009,0,0.014c6,0,13.002,0.082,19.38-0.036c2.86-0.054,4.876,0.687,5.954,3.646
	c1.114,3.06,3.679,5.163,6.292,7.081c5.532,4.058,8.36,9.42,7.957,16.432C102.908,50.248,102.319,108.795,102.319,108.795z"/>
</svg>
