<?xml version="1.0" encoding="utf-8"?>
<!-- Generator: Adobe Illustrator 16.0.4, SVG Export Plug-In . SVG Version: 6.00 Build 0)  -->
<!DOCTYPE svg PUBLIC "-//W3C//DTD SVG 1.1//EN" "http://www.w3.org/Graphics/SVG/1.1/DTD/svg11.dtd">
<svg version="1.1" id="Layer_2004" xmlns="http://www.w3.org/2000/svg" xmlns:xlink="http://www.w3.org/1999/xlink" x="0px" y="0px"
	 width="128px" height="128px" viewBox="0 0 128 128" enable-background="new 0 0 128 128" xml:space="preserve">
<g>
	<path fill-rule="evenodd" clip-rule="evenodd" d="M93.411,88.283c-3.555,9.078-8.743,17.185-16.199,23.671
		c-7.983,6.949-16.834,12.229-27.71,13.091c-6.372,0.503-12.383-0.68-17.852-4.156c-3.745-2.379-4.14-5.724-0.852-8.782
		c5.005-4.654,10.189-9.111,14.932-14.059c4.218-4.4,7.406-9.508,10.764-14.526C67.747,66.709,75.43,48.142,83.183,29.603
		c0.205-0.491,0.402-0.988,0.608-1.479c1.29-3.094,1.268-3.036,4.277-1.756c2.77,1.179,5.677,1.383,8.635,0.798
		c2.468-0.49,2.475-0.498,2.878,2.083c1.967,12.664,1.874,25.31-0.265,37.948c-0.666,3.949-1.546,7.846-2.613,11.698
		C95.822,82.062,94.858,85.213,93.411,88.283z"/>
	<path fill-rule="evenodd" clip-rule="evenodd" d="M80.677,31.094c-1.194,2.876-2.417,5.738-3.562,8.633
		c-0.539,1.363-1.185,2.138-2.896,2.082c-5.134-0.171-8.946,2.24-11.083,6.828c-2.109,4.526-1.261,8.838,1.921,12.685
		c0.543,0.658,1.44,1.189,1.003,2.268c-0.534,1.32-1.113,2.685-2.19,3.603c-0.702,0.6-1.222-0.464-1.716-0.85
		c-2.785-2.162-5.917-2.808-9.309-2.2c-5.126,0.921-8.971,5.134-9.62,10.405c-0.565,4.584,2.301,9.629,6.693,11.778
		c1.937,0.95,1.989,1.033,0.792,2.796c-4.128,6.079-9.527,10.987-14.831,15.982c-0.609,0.574-1.333,0.861-2.142,0.981
		c-10.148,1.503-19.658,0.232-27.991-6.34c-1.701-1.342-3.116-2.909-4.328-4.668c-1.828-2.648-1.033-5.975,1.874-7.442
		c2.138-1.079,4.366-2.006,6.613-2.839c14.287-5.303,25.932-14.586,37.176-24.502c9.354-8.248,17.721-17.441,25.918-26.799
		c3.454-3.942,6.891-7.898,10.348-11.835c0.332-0.376,0.755-1.061,1.221-0.792c0.563,0.325-0.001,0.931-0.179,1.369
		c-1.205,2.966-2.44,5.919-3.668,8.877C80.706,31.107,80.69,31.101,80.677,31.094z M25.433,101.998
		c6.011,2.563,12.881-0.12,15.45-6.034c2.535-5.836-0.268-13.001-6.058-15.472c-6.037-2.577-12.963,0.077-15.465,5.931
		C16.683,92.68,19.295,99.383,25.433,101.998z"/>
	<path fill-rule="evenodd" clip-rule="evenodd" d="M87.267,17.429c0.51-1.231,0.984-2.477,1.547-3.685
		c0.256-0.552,0.571-1.299,1.049-1.492c2.522-1.019,2.683-3.21,2.923-5.411c0.196-1.821,0.877-3.438,2.172-4.76
		c0.763-0.779,1.639-1.4,2.767-1.446C98.692,0.597,99.487,0.99,99.752,2c0.246,0.925-0.212,1.636-1.06,1.881
		c-2.156,0.622-2.611,2.483-3.238,4.229c-0.109,0.308-0.244,0.775-0.1,0.975c0.324,0.447,0.814,0.129,1.199-0.029
		c1.487-0.611,3.002-1.132,4.598-1.325c2.673-0.321,5.323-0.406,7.668,1.298c0.43,0.312,0.902,0.608,1.478,0.427
		c3.607-1.14,7.027-0.015,10.456,0.889c1.549,0.409,3.08,0.838,4.707,0.783c0.892-0.03,1.647,0.287,1.632,1.316
		c-0.018,1.205-0.909,1.357-1.878,1.324c-2.782-0.091-5.408-0.956-8.078-1.61c-0.688-0.168-1.374-0.368-2.073-0.455
		c-2.883-0.36-2.964-0.287-2.935,2.641c0.013,1.369-0.284,2.636-1.041,3.789c-1.078,1.648-2.666,2.358-4.312,1.846
		c-1.795-0.561-2.395-1.992-2.507-3.701c-0.105-1.607,0.482-2.993,1.638-4.069c1.221-1.136,0.619-1.688-0.587-1.89
		c-2.999-0.5-5.804,0.272-8.516,1.511c-0.959,0.438-0.349,0.95-0.131,1.476c1.17,2.805,1.799,5.76,2.32,8.733
		c0.399,2.284,0.205,2.447-2.113,3.088c-3.67,1.014-7.013,0.294-10.166-1.736c-1.126-0.725-1.65-1.523-0.999-2.858
		c0.506-1.035,0.896-2.126,1.339-3.192C87.125,17.371,87.195,17.4,87.267,17.429z M109.268,16.034
		c0.243-0.9,0.691-2.207-0.172-2.606c-0.849-0.395-1.64,0.708-2.028,1.606c-0.373,0.854-0.426,1.84,0.548,2.253
		C108.589,17.699,108.917,16.766,109.268,16.034z"/>
</g>
</svg>
