<?xml version="1.0" encoding="utf-8"?>
<!-- Generator: Adobe Illustrator 16.0.4, SVG Export Plug-In . SVG Version: 6.00 Build 0)  -->
<!DOCTYPE svg PUBLIC "-//W3C//DTD SVG 1.1//EN" "http://www.w3.org/Graphics/SVG/1.1/DTD/svg11.dtd">
<svg version="1.1" id="Layer_2006" xmlns="http://www.w3.org/2000/svg" xmlns:xlink="http://www.w3.org/1999/xlink" x="0px" y="0px"
	 width="128px" height="128px" viewBox="0 0 128 128" enable-background="new 0 0 128 128" xml:space="preserve">
<g>
	<path fill-rule="evenodd" clip-rule="evenodd" d="M64.316,8.277c12.88,0.367,25.669,1.489,37.97,5.684
		c3.855,1.314,7.647,2.881,11.327,4.628c10.388,4.931,15.452,12.435,14.087,24.695c-2.325,20.89-11.072,38.293-26.154,52.523
		c-8.364,7.891-18.027,14.23-27.586,20.622c-6.502,4.349-13.06,4.635-19.64,0.209c-13.904-9.354-28.171-18.432-38.333-32.085
		C5.118,69.946-0.41,53.31,0.114,34.938c0.16-5.557,3.684-9.31,7.875-12.376C19.367,14.24,32.642,11.227,46.25,9.487
		C52.22,8.724,58.236,7.872,64.316,8.277z M63.426,10.599c-3.764,0.224-8.457,0.285-13.094,0.823
		c-12.657,1.47-25.088,3.916-35.802,11.393C3.69,30.379,3.38,39.859,13.68,48.04c10.008,7.949,22.251,9.867,34.326,11.796
		c14.768,2.361,29.575,0.829,44.048-2.05c8.656-1.724,17.195-5.034,24.091-11.163c7.622-6.773,7.662-14.744,0.137-21.567
		c-3.504-3.177-7.61-5.388-11.942-7.221C91.545,12.422,78.027,11.052,63.426,10.599z"/>
	<path fill-rule="evenodd" clip-rule="evenodd" d="M89.819,28.333c4.426-1.475,8.939-2.556,13.605-2.841
		c2.319-0.142,4.672-0.213,6.822,0.94c1.918,1.028,4.027,2.263,3.923,4.617c-0.123,2.762-2.902,2.96-4.857,3.236
		c-3.832,0.54-7.73,0.591-11.6,0.873c-0.716,0.052-1.426,0.237-2.138,0.361c0.75,0.137,1.494,0.314,2.25,0.404
		c4.044,0.487,8.09,0.943,12.135,1.428c1.806,0.216,3.726,0.762,4.173,2.616c0.528,2.188-1.319,3.43-2.915,4.561
		c-2.563,1.815-5.502,1.873-8.384,1.393c-3.601-0.601-7.373-0.532-10.707-2.367c-0.361,0.011-0.776-0.083-1.072,0.062
		c-0.317,0.155-1.253-1.002-0.966,0.423c0.702-0.178,1.404-0.354,2.106-0.532c0.38,3.528,3.94,3.222,5.962,4.661
		c2.636,1.877,2.977,2.675-0.131,4.121c-6.788,3.159-16.557,5.154-23.518-3.808c-0.922-1.187-2.171-2.119-3.269-3.169l0.228,0.211
		c-0.113-0.817-0.463-1.397-1.398-1.383l0.201,0.231c-1.955-5.94-1.956-5.938,4.43-4.696c0.37,0.072,0.76,0.045,1.141,0.064
		c0.623,0.238,1.246,0.476,1.868,0.714c0.015-0.243,0.031-0.484,0.047-0.727c-0.676,0.048-1.352,0.097-2.028,0.145
		c0.049-2.107-3.445-1.42-2.903-2.817c0.654-1.69,3.012-0.693,4.612-0.933c1.327-0.198,2.688-0.158,4.032-0.248
		c0.954-0.064,1.907-0.17,2.859-0.257c-0.981-0.138-1.959-0.324-2.945-0.403c-2.671-0.216-5.346-0.387-8.019-0.575
		c1.314-2.855,4.669-1.93,6.624-3.583c0.431-0.365,0.766-0.843,1.145-1.27c0.175-0.024,0.36-0.096,0.519-0.055
		c0.125,0.031,0.215,0.2,0.321,0.308c-0.255-0.128-0.511-0.257-0.766-0.386c-2.959,0.896-6.01,1.568-8.855,2.739
		c-4.51,1.855-3.909-0.68-3.258-3.459l-0.154,0.188c2.018-0.455,2.435-1.98,2.5-3.741l-0.199,0.231
		c0.869-0.053,1.212-0.641,1.403-1.381l-0.199,0.196c2.041-1.75,3.998-3.611,6.139-5.23c5.077-3.839,15.44-3.496,20.219,0.422
		c2.268,1.859,0.895,2.751-0.655,3.876c-2.606,1.892-6.316,1.865-8.304,4.811c-0.56-0.035-1.12-0.07-1.679-0.104
		C88.715,28.246,89.268,28.29,89.819,28.333z M81.5,41.281l0.41,0.241l0.062-0.365L81.5,41.281z"/>
	<path fill-rule="evenodd" clip-rule="evenodd" d="M37.389,44.436c-3.776-0.507-7.272,0.986-10.896,1.547
		c-3.768,0.584-7.367,0.517-10.541-1.992c-1.269-1.003-2.461-2.166-2.188-3.858c0.291-1.796,1.978-2.35,3.506-2.615
		c3.065-0.532,6.169-0.84,9.249-1.289c1.447-0.212,2.876-0.54,4.314-0.815c-1.543-0.151-3.088-0.286-4.629-0.456
		c-3.085-0.34-6.253-0.366-9.23-1.133c-3.909-1.006-4.292-3.583-1.166-6.2c3.328-2.786,7.268-2.214,11.161-1.925
		c2.698,0.201,5.249,1.625,8.046,0.947c1.369,1.84,3.008,0.843,4.591,0.438c0.904,0.041,0.492,0.62,0.433,1.055
		c-0.155-0.334-0.309-0.67-0.464-1.005c-1.551-0.125-3.103-0.249-4.655-0.373c-0.535-0.491-1.028-1.039-1.613-1.46
		c-1.815-1.31-5.338-1.385-5.199-3.977c0.157-2.923,3.676-2.911,5.928-3.781c8.851-3.418,15.333,0.527,20.989,6.905l-0.169-0.2
		c0.465,0.458,0.929,0.917,1.395,1.376l-0.21-0.232c1.169,2.408,2.337,4.817,3.507,7.227c-2.952,0.921-5.452-1.21-8.261-1.217
		c-0.769-0.001-1.537,0.178-2.307,0.273c-0.083-0.337-0.167-0.673-0.252-1.01c-0.189,0.123-0.378,0.245-0.569,0.368
		c0.329,0.156,0.657,0.311,0.985,0.467c1.461,1.503,5.197,0.763,4.933,2.881c-0.182,1.458-3.746,0.37-5.761,0.749
		c-0.562,0.105-1.157,0.035-1.731,0.088c-0.375,0.033-0.742,0.145-1.112,0.222c0.438,0.154,0.866,0.37,1.317,0.452
		c2.729,0.491,6.93-0.938,7.821,1.258c0.672,1.657-4.754,1.237-6.109,3.912c-0.586,0.116-1.395-0.72-1.744,0.408
		c0.532-0.167,1.064-0.335,1.597-0.503c2.071-0.487,4.25-0.711,6.19-1.513c4.435-1.833,5.422-0.468,3.855,3.725l0.174-0.217
		c-1.887,0.548-2.337,2.057-2.508,3.751l0.189-0.22c-0.837,0.089-1.237,0.619-1.401,1.388l0.195-0.207
		c-6.273,6.451-13.499,9.279-22.353,5.846c-1.755-0.682-4.2-0.926-4.477-3.099c-0.312-2.447,2.357-2.666,3.924-3.582
		c1.639-0.958,3.393-1.721,5.097-2.568c0.31-0.094,0.62-0.188,0.93-0.281c-0.115-0.133-0.232-0.264-0.349-0.397
		C37.677,43.875,37.533,44.156,37.389,44.436z"/>
	<path fill-rule="evenodd" clip-rule="evenodd" d="M55.026,24.45c-2.905-9.933-2.244-10.763,8.623-10.837
		c0.389-0.002,0.778,0.002,1.168,0.008c10.544,0.155,11.367,1.322,7.628,10.807l0.199-0.196c-0.468,0.461-0.936,0.921-1.403,1.381
		l0.199-0.231c-1.334,0.913-2.534,1.915-2.5,3.741l0.154-0.188c-4.157,4.588-7.556,3.782-10.522-1.354
		c-0.526-0.912-1.671-1.468-2.531-2.188l0.21,0.232c-0.161-0.767-0.505-1.349-1.395-1.376L55.026,24.45z"/>
	<path fill-rule="evenodd" clip-rule="evenodd" d="M71.24,45.313c0.109,0.371,0.131,0.802,0.34,1.104
		c5.529,7.94,5.437,10.913-6.903,11.871c-0.579,0.045-1.164,0.018-1.744,0.003c-9.814-0.257-10.991-1.843-7.883-10.615l-0.195,0.207
		c0.468-0.463,0.934-0.925,1.401-1.388l-0.189,0.22c1.246-0.977,2.471-1.968,2.508-3.751L58.4,43.18
		c4.289-5.416,7.974-4.058,11.343,1.002c0.084,0.125,0.348,0.129,0.527,0.191l-0.201-0.231c0.146,0.785,0.57,1.288,1.398,1.383
		L71.24,45.313z"/>
</g>
</svg>
