<?xml version="1.0" encoding="utf-8"?>
<!-- Generator: Adobe Illustrator 16.0.4, SVG Export Plug-In . SVG Version: 6.00 Build 0)  -->
<!DOCTYPE svg PUBLIC "-//W3C//DTD SVG 1.1//EN" "http://www.w3.org/Graphics/SVG/1.1/DTD/svg11.dtd">
<svg version="1.1" id="Layer_2007" xmlns="http://www.w3.org/2000/svg" xmlns:xlink="http://www.w3.org/1999/xlink" x="0px" y="0px"
	 width="128px" height="128px" viewBox="0 0 128 128" enable-background="new 0 0 128 128" xml:space="preserve">
<g id="cOJ5Br.tif_1_">
	<g>
		<path fill-rule="evenodd" clip-rule="evenodd" d="M97.985,27.867c0.813,0.493,1.641,0.967,2.441,1.483
			c2.787,1.794,5.154,4.016,6.905,6.856c0.653,1.057,1.228,2.157,1.45,3.402c0.034,0.188,0.072,0.378,0.068,0.567
			c-0.006,0.517-0.104,1.021-0.58,1.313c-0.516,0.316-1.053,0.25-1.56-0.057c-0.326-0.196-0.622-0.463-1.023-0.488
			c-0.742-0.049-1.232,0.449-1.749,0.858c-0.211,0.17-0.014,0.403,0.08,0.585c0.578,1.127,1.076,2.287,1.471,3.491
			c0.729,2.21,1.262,4.455,1.234,6.799c-0.025,1.956,0.07,3.915-0.127,5.87c-0.308,3.058-1.007,6.02-2.085,8.891
			c-2.085,5.569-5.229,10.544-8.683,15.341c-1.896,2.634-3.856,5.221-5.798,7.819c-1.739,2.332-3.509,4.643-5.21,7.002
			c-1.408,1.956-2.695,3.995-3.947,6.056c-1.732,2.856-3.479,5.703-5.2,8.567c-0.812,1.351-1.604,2.711-2.344,4.103
			c-0.328,0.618-0.755,0.842-1.425,0.835c-2.46-0.025-4.92-0.023-7.38-0.023c-8.79,0.003-17.579,0.01-26.368,0.016
			c-0.43,0-0.859-0.011-1.289,0c-0.553,0.014-0.916-0.199-1.207-0.706c-2.797-4.861-5.705-9.657-8.696-14.401
			c-2.002-3.174-4.24-6.18-6.465-9.194c-3.488-4.724-7.065-9.384-10.164-14.38c-2.701-4.352-5.041-8.881-6.451-13.84
			c-0.86-3.021-1.418-6.088-1.408-9.238c0.008-2.266-0.137-4.535,0.272-6.789c0.542-2.984,1.508-5.812,2.996-8.458
			c0.036-0.062,0.089-0.117,0.111-0.183c0.079-0.235,0.416-0.45,0.249-0.676c-0.131-0.174-0.446,0.022-0.679,0.044
			c-0.99,0.095-1.955-0.022-2.892-0.35c-0.156-0.056-0.309-0.129-0.453-0.212c-0.981-0.564-1.268-1.628-0.634-2.554
			c1.73-2.531,3.705-4.848,5.968-6.932c2.233-2.057,4.911-2.948,7.842-3.291c0.88-0.103,1.761-0.161,2.645-0.165
			c0.357-0.002,0.508-0.124,0.513-0.499c0.008-0.604,0.154-1.185,0.467-1.708c0.146-0.247,0.107-0.391-0.111-0.602
			c-0.494-0.473-0.495-0.918-0.005-1.424c0.202-0.207,0.257-0.333,0.109-0.593c-1.336-2.366,0.242-5.937,3.779-5.997
			c0.215-0.003,0.431-0.001,0.646-0.001c12.445-0.001,24.892-0.002,37.338-0.002c7.808,0,15.618,0.01,23.427-0.006
			c1.653-0.004,3.062,0.44,4.036,1.856c0.233,0.338,0.332,0.067,0.468-0.066c3.114-3.048,6.898-4.811,11.101-5.748
			c1.001-0.224,2.031-0.263,3.061-0.09c1.133,0.189,1.99,0.921,2.096,1.854c0.074,0.648-0.16,1.226-0.495,1.76
			c-0.894,1.422-1.94,2.718-3.203,3.833c-0.089,0.08-0.188,0.148-0.274,0.23c-0.098,0.092-0.277,0.167-0.212,0.329
			c0.06,0.145,0.241,0.13,0.382,0.143c1.458,0.126,2.878,0.412,4.23,0.992c0.488,0.208,0.95,0.456,1.362,0.781
			c1.213,0.958,1.547,2.243,0.271,3.468c-0.234,0.226-0.764,0.413-0.679,0.62c0.125,0.3,0.638,0.2,0.98,0.279
			c2.606,0.599,5.061,1.537,7.247,3.119c2.403,1.74,4.132,4.008,5.308,6.713c1.467,3.375,2.688,6.833,3.434,10.447
			c0.369,1.784,0.553,3.588,0.465,5.41c-0.021,0.459,0.047,0.709,0.561,0.876c1.991,0.649,3.159,3.05,2.503,5.05
			c-0.679,2.064-2.711,3.281-4.838,2.797c-1.861-0.425-3.031-1.777-3.225-3.722c-0.165-1.66,0.874-3.415,2.488-4.058
			c0.477-0.188,0.591-0.445,0.607-0.899c0.084-2.337-0.283-4.616-0.875-6.864c-0.916-3.492-2.058-6.911-3.835-10.069
			c-1.397-2.485-3.495-4.255-6.065-5.485c-2.515-1.205-5.188-1.736-7.947-1.93c-0.071-0.005-0.144-0.008-0.215-0.007
			c-0.391,0.008-0.74,0.165-1.094,0.306c0.229,0.286,0.581,0.355,0.893,0.483c3.195,1.315,6.066,3.114,8.453,5.636
			c2.692,2.845,4.316,6.227,4.847,10.094c0.557,4.066,1.005,8.149,1.232,12.251c0.045,0.833,0.041,1.671,0.031,2.507
			c-0.005,0.354,0.085,0.533,0.454,0.677c2.931,1.148,3.681,4.737,1.396,6.903c-1.192,1.13-2.664,1.454-4.252,0.828
			c-1.536-0.605-2.445-1.736-2.618-3.374c-0.21-1.976,0.772-3.595,2.598-4.323c0.431-0.172,0.51-0.419,0.521-0.805
			c0.038-1.315-0.062-2.63-0.157-3.938c-0.251-3.451-0.628-6.893-1.093-10.32c-0.568-4.188-2.457-7.694-5.637-10.484
			c-2.518-2.206-5.438-3.689-8.613-4.688c-0.59-0.186-1.161-0.444-1.789-0.493c-0.025-0.014-0.052-0.028-0.078-0.043
			C97.925,27.844,97.954,27.855,97.985,27.867z M55.548,92.414c0-0.008,0-0.016,0-0.023c5.853,0,11.705-0.035,17.556,0.017
			c2.425,0.021,3.935-1.871,3.924-3.901c-0.038-7.859-0.014-15.717-0.016-23.575c-0.001-2.36-1.543-3.912-3.892-3.919
			c-2.078-0.006-4.157-0.025-6.233,0.01c-0.693,0.012-1.112-0.211-1.382-0.863c-0.316-0.771-0.732-1.498-1.247-2.165
			c-2.664-3.45-6.208-4.878-10.459-4.234c-3.863,0.585-6.597,2.847-8.214,6.406c-0.28,0.613-0.653,0.862-1.316,0.854
			c-2.126-0.022-4.251-0.015-6.377-0.007c-2.22,0.009-3.806,1.566-3.809,3.788c-0.014,7.931-0.013,15.86-0.001,23.79
			c0.003,2.285,1.548,3.802,3.84,3.82c1.433,0.012,2.865,0.004,4.297,0.004C46.663,92.414,51.106,92.414,55.548,92.414z
			 M67.359,29.612c-5.756,0-11.512,0-17.27,0.001c-0.189,0-0.382-0.001-0.572,0.006c-0.064,0.002-0.128,0.025-0.192,0.039
			c0.045,0.05,0.081,0.11,0.136,0.147c0.455,0.319,0.531,0.747,0.411,1.264c-0.08,0.348-0.095,0.71-0.141,1.065
			c-0.237,1.832-0.317,3.661,0.08,5.485c0.162,0.744,0.43,1.407,1.12,1.834c1.178,0.728,2.367,1.436,3.596,2.072
			c0.107,0.057,0.238,0.16,0.326,0.1c0.147-0.104,0.016-0.257-0.014-0.389c-0.225-1.009-0.336-2.026-0.184-3.056
			c0.088-0.586,0.48-0.921,1.016-0.891c0.541,0.029,0.876,0.405,0.885,1.007c0.004,0.215-0.018,0.43-0.025,0.646
			c-0.045,1.223,0.229,2.363,0.86,3.42c0.204,0.343,0.386,0.486,0.79,0.258c1.644-0.928,3.338-1.799,4.738-3.068
			c1.568-1.419,2.22-3.231,1.76-5.362c-0.075-0.35-0.171-0.696-0.224-1.048c-0.086-0.567,0.186-1.07,0.635-1.235
			c0.496-0.182,1.014,0.037,1.321,0.579c0.202,0.358,0.276,0.756,0.338,1.161c0.063,0.424,0.037,0.867,0.198,1.27
			c0.962,2.392,2.314,4.487,4.479,5.985c0.833,0.575,1.786,0.905,2.665,1.384c0.142,0.076,0.329,0.252,0.448,0.146
			c0.17-0.148-0.028-0.346-0.08-0.519c-0.463-1.529-0.909-3.064-1.08-4.662c-0.073-0.68,0.232-1.131,0.816-1.205
			c0.539-0.069,0.955,0.267,1.079,0.906c0.088,0.443,0.118,0.899,0.213,1.341c0.37,1.731,0.846,3.429,1.681,5.005
			c0.289,0.544,0.301,0.542,0.775,0.201c0.639-0.46,1.262-0.943,1.918-1.379c1.471-0.977,2.943-1.94,4.73-2.295
			c0.83-0.163,1.533-0.658,2.088-1.313c0.467-0.551,0.453-0.723,0.023-1.312c-0.946-1.295-2.196-2.247-3.512-3.127
			c-0.933-0.625-1.918-1.157-2.925-1.656c-0.512-0.254-0.685-0.77-0.476-1.269c0.191-0.461,0.642-0.661,1.193-0.5
			c0.249,0.074,0.487,0.189,0.727,0.297c1.942,0.898,3.68,2.106,5.328,3.464c0.849,0.7,1.501,1.505,1.86,2.567
			c0.243,0.721,0.54,1.426,0.756,2.159c0.16,0.541,0.457,1.012,0.923,1.33c0.692,0.471,1.432,0.867,2.266,1.035
			c2.443,0.492,4.89,0.396,7.333,0.004c0.464-0.074,1.149-0.072,1.234-0.529c0.081-0.436-0.433-0.858-0.824-1.186
			c-0.903-0.758-1.916-1.327-3.017-1.749c-0.736-0.282-1.49-0.503-2.24-0.742c-0.668-0.213-0.928-0.865-0.595-1.415
			c0.253-0.417,0.659-0.542,1.263-0.388c1.042,0.269,2.059,0.62,3.033,1.069c1.533,0.705,2.961,1.569,3.901,3.036
			c0.219,0.343,0.402,0.214,0.635,0.064c0.786-0.508,1.63-0.781,2.582-0.618c0.153,0.026,0.358,0.181,0.452,0.014
			c0.056-0.097-0.066-0.31-0.139-0.456c-0.973-2.002-2.323-3.718-3.951-5.223c-2.806-2.594-6.108-4.311-9.725-5.452
			c-1.181-0.374-2.393-0.651-3.612-0.881c-0.321-0.06-0.618-0.12-0.84,0.3c-0.841,1.59-2.203,2.277-3.992,2.271
			C78.683,29.601,73.021,29.612,67.359,29.612z M38.917,40.22c0.757-0.024,1.963-0.153,3.143-0.486
			c0.413-0.118,0.479-0.304,0.237-0.653c-0.218-0.314-0.423-0.638-0.6-0.976c-0.289-0.547-0.171-1.059,0.273-1.309
			c0.52-0.293,1.029-0.181,1.375,0.327c0.188,0.275,0.334,0.58,0.514,0.86c0.382,0.602,0.378,0.592,0.855,0.096
			c0.251-0.259,0.459-0.545,0.653-0.848c1.266-1.975,1.995-4.163,2.562-6.416c0.088-0.349,0.155-0.703,0.441-0.958
			c0.067-0.061,0.199-0.164,0.191-0.178c-0.072-0.116-0.203-0.065-0.311-0.065c-2.005-0.003-4.011-0.002-6.018-0.002
			c-6.52,0-13.04-0.004-19.56,0.003c-1.353,0.002-2.466-0.498-3.317-1.538c-0.228-0.278-0.469-0.35-0.799-0.35
			c-1.365-0.001-2.724,0.068-4.066,0.313c-1.626,0.294-3.218,0.701-4.578,1.719c-2.103,1.575-3.819,3.523-5.44,5.567
			c-0.07,0.088-0.205,0.196-0.137,0.293c0.076,0.108,0.223,0.001,0.325-0.038c1.512-0.587,3.001-1.227,4.438-1.983
			c0.422-0.222,0.838-0.463,1.277-0.644c0.49-0.204,1.023,0,1.237,0.416c0.224,0.432,0.086,0.935-0.366,1.245
			c-0.234,0.161-0.49,0.295-0.744,0.426c-1.461,0.762-2.94,1.482-4.479,2.073c-0.103,0.04-0.196,0.107-0.293,0.161
			c0.121,0.059,0.23,0,0.346-0.024c0.957-0.208,1.895-0.475,2.82-0.794c2.439-0.837,4.817-1.821,7.158-2.902
			c0.608-0.281,1.073-0.208,1.362,0.174c0.307,0.407,0.235,0.939-0.178,1.429c-0.431,0.509-0.869,1.016-1.275,1.547
			c-0.436,0.567-0.846,1.155-1.177,1.791c-0.18,0.349-0.231,0.718,0.063,0.993c0.269,0.253,0.53-0.053,0.763-0.167
			c1.292-0.636,2.455-1.462,3.533-2.418c0.495-0.438,1.083-0.414,1.468,0.005c0.369,0.402,0.316,0.878-0.177,1.376
			c-0.674,0.681-1.437,1.254-2.236,1.779c-0.084,0.055-0.244,0.096-0.164,0.24c0.023,0.041,0.183,0.032,0.268,0.009
			c0.967-0.262,1.938-0.521,2.855-0.928c3.846-1.714,7.324-3.997,10.475-6.783c0.59-0.521,1.155-1.07,1.737-1.6
			c0.361-0.328,0.823-0.393,1.179-0.158c0.373,0.245,0.543,0.597,0.448,1.045c-0.051,0.239-0.226,0.414-0.359,0.611
			c-0.9,1.326-1.738,2.686-2.177,4.248c-0.043,0.152-0.188,0.344-0.064,0.47c0.164,0.166,0.353-0.029,0.504-0.1
			c0.911-0.417,1.801-0.88,2.718-1.281c0.616-0.271,1.131-0.078,1.336,0.415c0.219,0.529-0.003,1.115-0.591,1.346
			c-0.894,0.352-1.703,0.866-2.576,1.25c-0.146,0.064-0.39,0.08-0.394,0.264c-0.003,0.23,0.263,0.243,0.427,0.306
			C35.314,39.986,36.864,40.224,38.917,40.22z M53.605,21.319c0,0.006,0,0.011,0,0.015c1.025,0,2.052,0,3.078,0
			c9.099,0,18.199,0.001,27.298-0.002c0.381,0,0.768-0.002,1.143-0.059c0.596-0.091,1.075-0.346,1.246-1.007
			c0.082-0.32,0.251-0.618,0.394-0.919c0.085-0.177,0.133-0.344,0.096-0.548c-0.178-0.99-0.94-1.717-1.953-1.811
			c-0.403-0.037-0.812-0.027-1.218-0.027c-10.652-0.001-21.303,0-31.955,0c-9.507,0-19.013-0.001-28.52,0.001
			c-0.334,0-0.672-0.011-1,0.037c-1.645,0.239-2.404,2.117-1.425,3.448c0.549,0.747,1.297,0.879,2.146,0.879
			C33.159,21.318,43.382,21.319,53.605,21.319z M34.989,105.942c0.319,0,0.534-0.007,0.748,0.001
			c0.365,0.014,0.418-0.141,0.239-0.425c-0.203-0.323-0.422-0.638-0.614-0.967c-2.928-5.021-6.38-9.681-9.837-14.337
			c-3.23-4.349-6.488-8.676-9.326-13.301c-1.7-2.771-3.23-5.624-4.456-8.639c-0.305-0.75-0.761-1.026-1.343-0.81
			c-0.512,0.19-0.65,0.716-0.349,1.467c0.864,2.149,1.887,4.226,3.025,6.242c1.546,2.745,3.261,5.386,5.062,7.972
			c2.333,3.35,4.79,6.607,7.216,9.887c1.703,2.303,3.395,4.614,5.006,6.98c1.144,1.676,2.197,3.41,3.246,5.146
			C33.966,105.754,34.355,106.139,34.989,105.942z M98.652,20.875c-0.875-0.076-1.696,0.082-2.517,0.406
			c-1.49,0.592-3.053,0.952-4.642,1.14c-0.718,0.084-1.337,0.31-1.886,0.764c-0.126,0.106-0.324,0.181-0.315,0.361
			c0.01,0.205,0.243,0.208,0.388,0.258c1.012,0.354,2.006,0.762,3.053,1.009c1.884,0.447,3.775,0.817,5.729,0.686
			c2.211-0.149,4.242-0.853,6.153-1.944c0.402-0.231,1.055-0.395,1.021-0.875c-0.032-0.449-0.677-0.599-1.106-0.793
			C102.659,21.041,100.651,20.97,98.652,20.875z M101.374,12.798c-0.446,0.052-0.898,0.035-1.348,0.124
			c-2.029,0.401-3.936,1.143-5.752,2.107c-1.713,0.908-3.346,1.933-4.616,3.442c-0.495,0.59-0.931,1.204-1.091,1.979
			c-0.052,0.245-0.01,0.39,0.262,0.348c0.488-0.077,0.979-0.062,1.455-0.296c1.312-0.641,2.689-1.085,4.148-1.274
			c1.239-0.161,2.541-0.1,3.607-0.945c0.354-0.28,0.756-0.497,1.119-0.767c1.44-1.064,2.542-2.438,3.512-3.924
			c0.316-0.483,0.211-0.676-0.364-0.745C102,12.812,101.688,12.813,101.374,12.798z M67.209,115.186
			c0.648,0.111,1.105-0.129,1.57-0.606c1.96-2.016,3.972-3.981,5.962-5.969c0.199-0.196,0.585-0.405,0.502-0.63
			c-0.096-0.255-0.507-0.092-0.775-0.098c-0.437-0.008-0.86-0.092-1.253,0.308c-2.068,2.112-4.174,4.187-6.262,6.279
			c-0.197,0.198-0.581,0.426-0.506,0.631C66.544,115.36,66.95,115.122,67.209,115.186z M39.438,115.194
			c0.477-0.021,0.894,0.041,1.279-0.353c2.082-2.125,4.199-4.214,6.302-6.316c0.167-0.166,0.488-0.354,0.42-0.531
			c-0.104-0.271-0.455-0.095-0.696-0.112c-0.569-0.041-1.053,0.007-1.528,0.501c-1.979,2.056-4.03,4.044-6.051,6.062
			c-0.194,0.194-0.585,0.385-0.478,0.641C38.792,115.336,39.204,115.139,39.438,115.194z M60.582,107.86
			c-0.605-0.07-1.059,0.111-1.509,0.579c-1.655,1.718-3.368,3.381-5.058,5.066c-0.457,0.455-0.909,0.913-1.355,1.378
			c-0.09,0.093-0.229,0.293,0.037,0.287c0.729-0.021,1.449,0.188,2.109-0.508c1.971-2.077,4.035-4.061,6.059-6.087
			c0.193-0.193,0.52-0.342,0.461-0.654C61.313,107.856,60.841,107.879,60.582,107.86z M51.274,107.873
			c-0.384,0.066-0.808-0.114-1.182,0.27c-1.936,1.977-3.897,3.927-5.851,5.885c-0.269,0.271-0.549,0.53-0.812,0.805
			c-0.086,0.092-0.227,0.225-0.011,0.335c0.377,0.193,1.625-0.045,1.94-0.36c2.077-2.074,4.158-4.145,6.229-6.223
			c0.192-0.193,0.564-0.372,0.451-0.65C51.969,107.767,51.553,107.896,51.274,107.873z M69.813,107.883
			c-0.602-0.119-1.02,0.105-1.445,0.546c-1.389,1.443-2.834,2.832-4.251,4.247c-0.727,0.723-1.446,1.453-2.16,2.189
			c-0.069,0.072-0.297,0.178-0.049,0.308c0.366,0.193,1.696-0.066,2.001-0.372c2.056-2.057,4.114-4.111,6.172-6.168
			c0.198-0.199,0.58-0.401,0.495-0.639C70.481,107.723,70.072,107.93,69.813,107.883z M55.837,107.852
			c-0.331,0.131-0.729-0.106-1.095,0.27c-1.782,1.83-3.603,3.622-5.407,5.429c-0.439,0.438-0.875,0.88-1.307,1.327
			c-0.097,0.101-0.208,0.294,0.042,0.292c0.732-0.006,1.442,0.177,2.102-0.516c1.954-2.059,4.007-4.022,6.017-6.028
			c0.196-0.195,0.574-0.402,0.472-0.648C56.554,107.719,56.144,107.935,55.837,107.852z M65.341,107.906
			c-0.7-0.076-1.125,0.016-1.554,0.463c-1.649,1.717-3.367,3.369-5.058,5.047c-0.456,0.454-0.909,0.91-1.353,1.377
			c-0.09,0.095-0.319,0.245-0.029,0.374c0.471,0.209,1.604-0.049,1.985-0.431c2.04-2.039,4.082-4.074,6.121-6.113
			c0.198-0.197,0.579-0.41,0.497-0.637C65.856,107.722,65.444,107.938,65.341,107.906z M42.005,107.882
			c-0.632-0.126-1.063,0.123-1.502,0.585c-1.296,1.363-2.647,2.67-3.986,3.994c-0.587,0.58-0.595,0.572-0.164,1.291
			c0.289,0.481,0.298,0.48,0.701,0.078c1.752-1.749,3.504-3.495,5.254-5.246c0.182-0.183,0.537-0.392,0.456-0.586
			C42.65,107.723,42.26,107.938,42.005,107.882z M37.365,107.896c-0.658-0.183-1.088,0.117-1.492,0.592
			c-0.383,0.45-0.829,0.854-1.28,1.24c-0.32,0.271-0.373,0.518-0.112,0.846c0.103,0.129,0.196,0.27,0.271,0.418
			c0.145,0.286,0.275,0.234,0.472,0.035c0.803-0.814,1.625-1.61,2.429-2.421c0.195-0.196,0.583-0.396,0.483-0.636
			C38.038,107.732,37.623,107.927,37.365,107.896z M72.465,113.807c-0.018-0.036-0.034-0.072-0.052-0.107
			c-0.037,0.025-0.081,0.047-0.112,0.078c-0.337,0.336-0.679,0.669-1.006,1.014c-0.083,0.09-0.269,0.194-0.125,0.341
			c0.099,0.103,0.272,0.067,0.41,0.028C71.722,115.121,72.464,113.966,72.465,113.807z M33.309,107.859
			c-0.013,0.197-0.351-0.184-0.302,0.188c0.015,0.111,0.064,0.27,0.189,0.273c0.215,0.005,0.322-0.191,0.369-0.358
			C33.598,107.844,33.431,107.899,33.309,107.859z"/>
		<path fill-rule="evenodd" clip-rule="evenodd" d="M55.579,89.088c-5.324,0-10.648-0.018-15.973,0.015
			c-1.091,0.006-1.423-0.548-1.423-1.433c0.005-7.258,0.005-14.515,0.012-21.773c0.001-0.879,0.34-1.214,1.22-1.214
			c7.902-0.003,15.806,0,23.708,0c2.792,0,5.584-0.004,8.376-0.001c1.117,0.001,1.39,0.28,1.39,1.402
			c0.001,7.186,0.001,14.371,0,21.558c0,0.191,0.016,0.386-0.015,0.572c-0.085,0.534-0.428,0.844-0.966,0.884
			c-0.214,0.016-0.43,0.005-0.644,0.005c-5.229,0.001-10.458,0.001-15.686,0.001C55.579,89.099,55.579,89.094,55.579,89.088z
			 M55.607,66.593c-4.92,0-9.84-0.001-14.761,0.002c-0.713,0-0.728,0.008-0.728,0.63c-0.003,6.448-0.003,12.895,0,19.342
			c0.001,0.617,0.015,0.625,0.655,0.627c1.504,0.006,3.009,0.004,4.513,0.004c8.288,0,16.576,0,24.863,0
			c0.821,0,0.823-0.002,0.823-0.805c0.001-6.328,0.001-12.658,0-18.987c0-0.81-0.002-0.812-0.823-0.812
			C65.302,66.592,60.455,66.593,55.607,66.593z"/>
		<path fill-rule="evenodd" clip-rule="evenodd" d="M55.252,75.586c-3.937,0-7.873,0-11.811-0.002c-0.261,0-0.528,0.004-0.782-0.048
			c-0.506-0.101-0.767-0.417-0.78-0.884c-0.013-0.455,0.244-0.797,0.71-0.956c0.23-0.079,0.47-0.07,0.708-0.07
			c7.97-0.001,15.938-0.002,23.909-0.002c0.286,0,0.574-0.009,0.85,0.093c0.429,0.161,0.662,0.484,0.645,0.931
			c-0.016,0.445-0.255,0.758-0.71,0.874c-0.282,0.074-0.567,0.064-0.854,0.064C63.176,75.586,59.214,75.586,55.252,75.586z"/>
		<path fill-rule="evenodd" clip-rule="evenodd" d="M55.315,81.713c3.986,0,7.97,0,11.955,0.001c0.214,0,0.431,0.001,0.644,0.023
			c0.479,0.051,0.706,0.371,0.781,0.806c0.072,0.422-0.213,0.842-0.633,1.005c-0.23,0.09-0.467,0.086-0.705,0.086
			c-8.065,0-16.131,0.001-24.197-0.001c-0.827,0-1.25-0.317-1.277-0.929c-0.021-0.509,0.26-0.884,0.764-0.961
			c0.28-0.042,0.57-0.03,0.857-0.031c3.937-0.001,7.875-0.001,11.812-0.001C55.315,81.712,55.315,81.713,55.315,81.713z"/>
		<path fill-rule="evenodd" clip-rule="evenodd" d="M55.32,77.706c3.918,0,7.836,0,11.753,0.001c0.262,0,0.527-0.009,0.787,0.02
			c0.483,0.051,0.811,0.367,0.836,0.826c0.025,0.446-0.171,0.779-0.591,0.971c-0.226,0.102-0.462,0.104-0.702,0.104
			c-6.21-0.002-12.421-0.004-18.632-0.004c-1.862,0-3.726-0.002-5.588,0.007c-0.368,0.001-0.706-0.034-0.998-0.3
			c-0.304-0.279-0.363-0.617-0.268-0.98c0.094-0.354,0.369-0.557,0.722-0.615c0.233-0.039,0.476-0.025,0.714-0.025
			c3.99-0.001,7.979-0.001,11.967-0.001C55.32,77.708,55.32,77.707,55.32,77.706z"/>
		<path fill-rule="evenodd" clip-rule="evenodd" d="M55.263,71.579c-2.076,0-4.154,0.003-6.23,0c-0.889-0.002-1.4-0.378-1.377-0.999
			c0.022-0.613,0.481-0.954,1.352-0.955c3.128,0,6.256,0.012,9.383,0.014c0.977,0.002,1.955-0.012,2.933-0.018
			c0.167,0,0.335-0.006,0.501,0.007c0.71,0.06,1.08,0.407,1.071,0.998c-0.009,0.577-0.395,0.938-1.115,0.948
			c-1.623,0.02-3.247,0.005-4.87,0.005C56.361,71.579,55.813,71.579,55.263,71.579z"/>
	</g>
</g>
</svg>
