<?xml version="1.0" encoding="utf-8"?>
<!-- Generator: Adobe Illustrator 16.0.4, SVG Export Plug-In . SVG Version: 6.00 Build 0)  -->
<!DOCTYPE svg PUBLIC "-//W3C//DTD SVG 1.1//EN" "http://www.w3.org/Graphics/SVG/1.1/DTD/svg11.dtd">
<svg version="1.1" id="Layer_2008" xmlns="http://www.w3.org/2000/svg" xmlns:xlink="http://www.w3.org/1999/xlink" x="0px" y="0px"
	 width="128px" height="128px" viewBox="0 0 128 128" enable-background="new 0 0 128 128" xml:space="preserve">
<g id="_x33_rdoMb.tif_1_">
	<g>
		<path fill-rule="evenodd" clip-rule="evenodd" d="M104.137,46.494c0.143,1.79,0.348,3.174,0.35,4.557
			c0.021,18.909,0.08,37.818-0.012,56.726c-0.055,11.611-8.771,20.74-20.412,20.99c-13.486,0.289-26.989,0.287-40.477,0.013
			c-11.739-0.238-20.538-9.425-20.595-21.145c-0.091-18.819-0.021-37.64-0.018-56.458c0-0.267,0.002-0.533,0.013-0.8
			c0.212-5.496,2.422-7.328,7.903-6.393c2.091,0.357,4.164,0.891,6.198,1.5c7.318,2.188,14.494,1.993,21.611-0.906
			c5.005-2.039,10.124-3.798,15.112-5.876c4.643-1.934,8.809-1.347,12.719,1.707c0.629,0.49,1.324,0.896,1.969,1.364
			C93.074,45.098,97.654,48.399,104.137,46.494z M63.134,60.418c0-0.007,0-0.014,0-0.021c-5.325,0-10.651-0.039-15.977,0.012
			c-5.967,0.057-10.719,3.4-12.443,8.651c-2.656,8.083,3.053,16.354,11.831,16.553c11.177,0.252,22.365,0.081,33.548,0.019
			c1.301-0.007,2.646-0.347,3.889-0.776c5.811-2.013,9.111-7.671,8.203-13.902c-0.854-5.864-5.844-10.279-12.277-10.496
			C74.322,60.269,68.727,60.418,63.134,60.418z"/>
		<path fill-rule="evenodd" clip-rule="evenodd" d="M28.949,21.689c-5.236-2.73-8.104-6.712-7.329-12.557
			c0.775-5.849,5.349-10.009,11.298-10.041C53.503-1.017,74.09-1.001,94.676-0.912c5.008,0.022,9.182,3.259,10.746,7.755
			c1.645,4.722,0.26,9.488-3.754,12.921c-0.334,0.285-0.676,0.562-1.25,1.041c1.045,1.222,2.18,2.318,3.039,3.6
			c1.914,2.853,4.002,5.653,5.428,8.747c1.338,2.912,0.084,5.169-2.932,6.372c-3.961,1.581-7.975,1.846-11.777-0.428
			c-2.811-1.682-5.545-3.506-8.207-5.415c-3.615-2.591-7.398-3.153-11.551-1.518c-5.191,2.044-10.442,3.941-15.608,6.05
			c-7.2,2.939-14.475,3.178-21.852,0.883c-4.21-1.31-8.406-2.149-12.77-0.7c-0.729,0.242-1.589,0.222-2.37,0.142
			c-3.026-0.31-4.054-1.886-2.556-4.519c1.522-2.675,3.455-5.133,5.348-7.577C25.853,24.84,27.343,23.43,28.949,21.689z"/>
	</g>
</g>
</svg>
