<?xml version="1.0" encoding="utf-8"?>
<!-- Generator: Adobe Illustrator 16.0.4, SVG Export Plug-In . SVG Version: 6.00 Build 0)  -->
<!DOCTYPE svg PUBLIC "-//W3C//DTD SVG 1.1//EN" "http://www.w3.org/Graphics/SVG/1.1/DTD/svg11.dtd">
<svg version="1.1" id="Layer_2009" xmlns="http://www.w3.org/2000/svg" xmlns:xlink="http://www.w3.org/1999/xlink" x="0px" y="0px"
	 width="128px" height="128px" viewBox="0 0 128 128" enable-background="new 0 0 128 128" xml:space="preserve">
<g id="FUHTa2.tif_1_">
	<g>
		<path d="M82.633,127.643c-12.182,0-24.362,0-36.544,0c-0.154-0.058-0.304-0.134-0.463-0.166c-2.387-0.488-3.757-1.79-4.131-4.174
			c-0.307-1.958-0.451-3.943-0.652-5.919c-0.369-3.621-0.718-7.247-1.093-10.869c-0.538-5.186-1.102-10.368-1.638-15.555
			c-0.459-4.444-0.887-8.893-1.34-13.337c-0.551-5.435-1.089-10.871-1.686-16.3c-0.203-1.845-0.238-3.712-0.681-5.527
			c0-0.579,0-1.16,0-1.74c0.566-0.185,1.149-0.102,1.725-0.102c17.994-0.007,35.989-0.013,53.982-0.001
			c1.401,0.001,2.809-0.119,4.206,0.103c0,0.58,0,1.161,0,1.74c-0.534,2.681-0.643,5.413-0.941,8.121
			c-0.486,4.401-0.894,8.81-1.345,13.212c-0.464,4.528-0.94,9.055-1.413,13.581c-0.378,3.621-0.762,7.24-1.133,10.862
			c-0.457,4.445-0.895,8.893-1.354,13.337c-0.292,2.84-0.545,5.686-0.938,8.512c-0.307,2.211-1.764,3.583-3.973,4.038
			C83.02,127.499,82.829,127.579,82.633,127.643z M64.341,57.614c-8.241,0-16.482-0.001-24.723,0.003
			c-1.156,0-1.142,0.011-1.024,1.168c0.451,4.446,0.886,8.894,1.338,13.339c0.431,4.238,0.876,8.476,1.314,12.714
			c0.469,4.525,0.938,9.052,1.405,13.579c0.337,3.251,0.657,6.504,1.014,9.753c0.117,1.057,0.864,1.646,1.866,1.58
			c1.026-0.066,1.614-0.758,1.512-1.997c-0.209-2.556-0.486-5.106-0.747-7.657c-0.373-3.621-0.759-7.239-1.135-10.859
			c-0.283-2.717-0.544-5.435-0.844-8.149c-0.083-0.743,0.117-1.046,0.917-1.018c1.531,0.053,3.064,0.012,4.597,0.012
			c12.301,0.001,24.599,0.004,36.9,0.002c1.237,0,1.226-0.012,1.333-1.079c0.675-6.708,1.354-13.418,2.035-20.126
			c0.127-1.257,0.134-1.262-1.159-1.263C80.741,57.614,72.541,57.614,64.341,57.614z M76.655,85.559
			c-1.408,0-2.815-0.002-4.224,0.002c-0.663,0.002-1.328-0.023-1.986,0.032c-0.953,0.08-1.588,0.706-1.655,1.548
			c-0.07,0.867,0.554,1.605,1.546,1.788c0.323,0.06,0.659,0.068,0.988,0.068c3.603,0.005,7.207,0.002,10.809,0.005
			c0.459,0.001,0.918-0.009,1.343-0.192c0.726-0.315,1.106-0.907,1.04-1.672c-0.065-0.752-0.482-1.327-1.283-1.479
			c-0.403-0.076-0.822-0.094-1.235-0.096C80.218,85.553,78.437,85.558,76.655,85.559z"/>
		<path fill-rule="evenodd" clip-rule="evenodd" d="M63.739,0.357c1.75,0.316,3.533,0.288,5.286,0.643
			c11.621,2.354,20.518,11.474,22.38,23.13c1.427,8.936-0.988,16.792-6.953,23.564c-1.107,1.256-0.932,1.087-1.951,0.073
			c-11.917-11.864-23.831-23.732-35.745-35.6c-0.821-0.818-1.648-1.632-2.462-2.458c-0.927-0.938-0.932-0.954-0.008-1.801
			c3.813-3.487,8.251-5.752,13.301-6.854c1.871-0.407,3.778-0.403,5.655-0.697C63.408,0.357,63.573,0.357,63.739,0.357z
			 M77.017,29.271c-2.605,0-5.211-0.009-7.816,0.006c-0.61,0.004-1.646-0.229-1.738,0.119C67.3,30,68.211,30.329,68.604,30.831
			c0.103,0.13,0.229,0.239,0.347,0.356c3.927,3.91,7.851,7.823,11.783,11.73c0.804,0.798,0.833,0.797,1.462-0.042
			c2.746-3.66,4.365-7.753,4.672-12.337c0.083-1.257,0.067-1.264-1.167-1.266C82.808,29.271,79.911,29.272,77.017,29.271z
			 M62.903,15.234c-0.002,0-0.005,0-0.008,0c0-2.857,0.004-5.717-0.001-8.574c-0.002-1.331-0.013-1.38-1.272-1.284
			c-4.664,0.355-8.844,1.977-12.567,4.813c-0.686,0.522-0.358,0.83,0.055,1.241c4.345,4.323,8.683,8.654,13.027,12.979
			c0.17,0.169,0.345,0.486,0.57,0.413c0.355-0.114,0.188-0.501,0.189-0.766C62.908,21.116,62.903,18.175,62.903,15.234z
			 M65.044,15.402c0,0.786,0,1.571,0,2.357c0.002,2.316,0.003,4.632,0.014,6.948c0,0.183-0.101,0.46,0.183,0.506
			c0.12,0.019,0.279-0.137,0.409-0.23c0.099-0.072,0.18-0.17,0.267-0.258c4.221-4.202,8.43-8.415,12.675-12.592
			c0.62-0.612,0.514-0.923-0.1-1.428c-3.644-3.008-7.828-4.699-12.488-5.305c-0.814-0.106-0.98,0.205-0.972,0.944
			C65.064,9.363,65.044,12.384,65.044,15.402z M76.832,27.132c0,0.002,0,0.005,0,0.007c2.98,0,5.959,0.006,8.939-0.003
			c1.085-0.004,1.122-0.044,1.039-1.127c-0.04-0.534-0.139-1.064-0.237-1.593c-0.745-3.984-2.418-7.536-4.996-10.662
			c-0.385-0.467-0.677-0.888-1.342-0.218c-4.258,4.289-8.554,8.538-12.835,12.803c-0.172,0.171-0.468,0.344-0.391,0.586
			c0.114,0.36,0.496,0.199,0.759,0.2C70.789,27.136,73.811,27.132,76.832,27.132z"/>
		<path fill-rule="evenodd" clip-rule="evenodd" d="M68.047,45.83c0.015,2.374-1.947,4.305-4.199,4.199
			c-2.344-0.111-4.128-2.052-3.987-4.349c0.043-0.703,0.182-1.393,0.402-2.063c0.832-2.519,1.983-4.897,3.213-7.239
			c0.396-0.756,0.544-0.76,0.932-0.022c1.346,2.559,2.66,5.133,3.417,7.95C67.964,44.832,68.015,45.359,68.047,45.83z"/>
		<path fill-rule="evenodd" clip-rule="evenodd" d="M77.146,32.883c0.423-0.015,0.823,0.09,1.172,0.314
			c0.465,0.299,0.672,0.722,0.399,1.259c-0.271,0.535-0.737,0.623-1.255,0.448c-0.398-0.135-0.706-0.426-0.938-0.77
			c-0.197-0.29-0.531-0.586-0.276-0.986C76.451,32.828,76.822,32.894,77.146,32.883z"/>
		<path fill-rule="evenodd" clip-rule="evenodd" d="M59.291,14.95c-0.009,0.485,0.012,0.907-0.391,1.071
			c-0.333,0.134-0.626-0.119-0.886-0.316c-0.295-0.225-0.577-0.48-0.726-0.821c-0.237-0.544-0.209-1.082,0.388-1.365
			c0.561-0.267,1.056-0.083,1.334,0.485C59.169,14.331,59.303,14.683,59.291,14.95z"/>
		<path fill-rule="evenodd" clip-rule="evenodd" d="M68.923,14.704c-0.016-0.538,0.067-0.94,0.357-1.26
			c0.262-0.289,0.594-0.438,0.993-0.302c0.377,0.13,0.633,0.38,0.693,0.786c0.096,0.609-0.772,1.832-1.384,1.841
			C68.733,15.782,69.028,15.05,68.923,14.704z"/>
		<path fill-rule="evenodd" clip-rule="evenodd" d="M77.597,23.277c-0.495-0.027-1.001,0.021-1.159-0.427
			c-0.154-0.437,0.254-0.745,0.542-1.034c0.143-0.144,0.32-0.257,0.493-0.366c0.411-0.265,0.835-0.358,1.258-0.026
			c0.273,0.216,0.449,0.495,0.402,0.853c-0.068,0.514-0.424,0.785-0.888,0.914C78.011,23.256,77.758,23.258,77.597,23.277z"/>
	</g>
</g>
</svg>
