<?xml version="1.0" encoding="utf-8"?>
<!-- Generator: Adobe Illustrator 16.0.4, SVG Export Plug-In . SVG Version: 6.00 Build 0)  -->
<!DOCTYPE svg PUBLIC "-//W3C//DTD SVG 1.1//EN" "http://www.w3.org/Graphics/SVG/1.1/DTD/svg11.dtd">
<svg version="1.1" id="Layer_2101" xmlns="http://www.w3.org/2000/svg" xmlns:xlink="http://www.w3.org/1999/xlink" x="0px" y="0px"
	 width="128px" height="128px" viewBox="0 0 128 128" enable-background="new 0 0 128 128" xml:space="preserve">
<g>
	<path fill-rule="evenodd" clip-rule="evenodd" d="M63.619,12.696c-1.766,0-3.533,0.014-5.298-0.003
		c-6.64-0.062-7.121-0.564-6.904-7.136c0.166-4.999,0.448-5.391,5.212-5.492c5.076-0.108,10.157,0.058,15.232-0.049
		c2.986-0.063,4.624,1.052,4.564,4.175c-0.033,1.765-0.001,3.533-0.106,5.293c-0.126,2.098-1.301,3.173-3.428,3.17
		c-3.091-0.005-6.183-0.001-9.272-0.001C63.619,12.667,63.619,12.682,63.619,12.696z M63.636,8.46
		c2.246-1.123,6.761,1.675,6.811-2.327c0.035-2.828-4.371-1.641-6.739-1.556c-2.247,0.081-6.337-1.66-6.326,2.011
		C57.392,9.44,61.383,7.668,63.636,8.46z"/>
	<g>
		<path d="M88.473,46.644c-1.304-8.782-2.503-17.535-9.581-23.958c-1.79-1.625-2.322-3.635-2.339-5.939
			c-0.019-2.5-1.486-3.456-3.856-3.442c-5.959,0.034-11.919,0.006-17.879,0.028c-1.688,0.006-3.438,0.616-3.311,2.446
			c0.3,4.347-2.538,6.796-4.996,9.606c-2.817,3.222-4.725,7.1-5.347,11.228c-1.232,8.177-3.285,16.263-3.388,24.583
			c-0.108,8.609-0.024,17.221-0.021,25.831c0.002,9.713-0.104,19.428,0.036,29.14c0.113,7.908,4.041,11.744,11.765,11.78
			c9.934,0.043,19.868,0.067,29.801-0.015c5.949-0.05,9.895-3.617,10.669-9.487c0.201-1.522,0.135-3.089,0.086-4.63
			C89.394,91.429,91.786,68.976,88.473,46.644z M84.2,115.678c-0.13,4.973-1.499,6.303-6.363,6.367
			c-9.24,0.123-18.484,0.121-27.725,0.005c-4.926-0.061-6.297-1.341-6.43-6.304c-0.201-7.478,0.023-14.964-0.103-22.443
			c-0.055-3.293,1.571-4.136,4.482-4.079c5.28,0.102,10.563,0.028,15.844,0.028c5.28-0.003,10.565,0.122,15.841-0.047
			c3.459-0.109,4.629,1.354,4.562,4.688C84.159,101.153,84.389,108.42,84.2,115.678z M70.649,68.804
			c-0.924,2.067-2.406,3.619-4.309,4.801c-0.93,0.579-1.917,1.036-2.945,1.417c-1.611,0.594-3.143,1.336-4.48,2.441
			c-1.04,0.859-1.891,1.864-2.492,3.075c-0.061,0.123-0.08,0.316-0.237,0.327c-0.215,0.016-0.223-0.216-0.281-0.351
			c-0.671-1.556-0.664-3.172-0.167-4.74c1.446-4.568,4.471-7.564,9.106-8.882c0.619-0.176,1.261-0.227,2.109-0.227
			c1.138,0.013,2.37,0.354,3.455,1.179C70.77,68.118,70.843,68.372,70.649,68.804z M71.545,70.087
			c0.062-0.124,0.097-0.321,0.233-0.336c0.203-0.021,0.24,0.203,0.305,0.345c0.391,0.856,0.563,1.76,0.53,2.582
			c0.003,1.879-0.57,3.482-1.441,4.974c-1.652,2.826-3.992,4.876-7.12,5.923c-1.874,0.628-3.793,0.78-5.6-0.206
			c-1.669-0.913-1.484-0.926-0.7-2.369c1.075-1.982,2.855-3.195,4.862-4.105c1.273-0.579,2.611-1.007,3.842-1.687
			C68.652,73.993,70.407,72.351,71.545,70.087z M78.42,62.293c-4.845,0.043-9.69,0.008-14.535,0.008
			c-5.286-0.003-10.573,0.072-15.856-0.028c-4.047-0.077-5.421-1.097-4.199-4.519c2.198-6.15,1.753-12.545,2.976-18.724
			c0.988-4.99,3.313-9.56,7.293-13.049c0.991-0.869,2.4-1.65,2.783-2.759c1.942-5.623,6.526-3.848,10.428-3.952
			c0.603-0.016,1.566,0.244,1.775,0.667c3.191,6.438,10.746,9.976,11.756,17.917c0.246,1.935,0.856,3.857,0.869,5.841
			c0.024,3.958,0.303,7.729,1.899,11.57C85.799,60.536,84.26,62.24,78.42,62.293z"/>
	</g>
</g>
</svg>
