<?xml version="1.0" encoding="utf-8"?>
<!-- Generator: Adobe Illustrator 16.0.4, SVG Export Plug-In . SVG Version: 6.00 Build 0)  -->
<!DOCTYPE svg PUBLIC "-//W3C//DTD SVG 1.1//EN" "http://www.w3.org/Graphics/SVG/1.1/DTD/svg11.dtd">
<svg version="1.1" id="Layer_2103" xmlns="http://www.w3.org/2000/svg" xmlns:xlink="http://www.w3.org/1999/xlink" x="0px" y="0px"
	 width="128px" height="128px" viewBox="0 0 128 128" enable-background="new 0 0 128 128" xml:space="preserve">
<g id="kfc5vE.tif_1_">
	<g>
		<path fill-rule="evenodd" clip-rule="evenodd" d="M64.343,0.447c7.321,0,14.639-0.022,21.958,0.023
			c1.075,0.007,2.524-0.459,3.009,1.035c0.447,1.381-0.234,2.593-1.225,3.543c-1.463,1.403-3.762,2.025-4.504,4.056
			c-1.354,3.705-2.093,7.546-0.74,11.442c0.292,0.84,0.837,1.639,0.341,2.478c-3.217,5.452-2.66,11.618-2.929,17.483
			c-1.074,23.496,2.202,46.37,10.627,68.448c3.346,8.768,0.537,14.178-8.588,16.409c-12.117,2.963-24.372,2.974-36.496,0.024
			c-9.164-2.23-12.025-7.631-8.702-16.348c8.415-22.077,11.607-44.94,10.746-68.449c-0.128-3.505-0.482-7.004-0.812-10.498
			c-0.261-2.759-2.234-5.383-2.214-7.74c0.02-2.519,0.938-5.182,0.807-7.966c-0.173-3.633-1.111-6.591-4.49-8.419
			c-0.625-0.339-1.197-0.866-1.64-1.427c-0.745-0.944-1.285-2.084-0.723-3.257c0.54-1.125,1.763-0.821,2.737-0.824
			C49.119,0.438,56.731,0.448,64.343,0.447z M88.613,120.19c-16.402,4.641-32.803,4.665-49.203-0.013l-0.108-0.16l0.17,0.1
			c2.012,2.875,5.227,3.577,8.291,4.188c10.807,2.154,21.672,2.151,32.48,0.003c3.071-0.611,6.274-1.335,8.312-4.178L88.613,120.19z
			 M64.086,24.571c-4.245,0-8.491,0.087-12.733-0.033c-2.409-0.069-3.469,0.623-3.215,3.256c0.53,5.529,1.354,11.051,1.118,16.627
			c-0.097,2.285,1.144,2.636,3.014,2.611c4.391-0.06,8.782-0.029,13.173-0.01c4.635,0.021,4.648,0.033,4.82,4.542
			c0.317,8.334,0.592,16.67,0.951,25.002c0.045,1.037-0.574,2.835,1.027,2.889c1.974,0.066,1.138-1.887,1.35-3.02
			c0.105-0.566,0.022-1.168,0.026-1.753c0.062-7.904,0.12-15.808,0.192-23.711c0.02-2.104-0.096-4.286,3.111-4.02
			c1.633,0.136,1.847-1.116,1.81-2.37c-0.169-5.727,0.627-11.39,1.154-17.067c0.229-2.453-0.907-3.015-3.065-2.969
			C72.578,24.637,68.332,24.573,64.086,24.571z M64.011,23.18c5.26,0,10.52,0.01,15.779-0.01c0.846-0.003,1.938,0.017,1.819-1.218
			c-0.084-0.876-1.02-0.896-1.758-0.896c-10.518-0.006-21.037-0.009-31.555-0.006c-0.883,0-2.072-0.009-2.098,1.045
			c-0.024,1.068,1.157,1.082,2.035,1.083C53.494,23.186,58.752,23.182,64.011,23.18z M71.935,87.326
			c1.173,0.189,1.562-0.366,1.571-1.15c0.012-0.916,0.434-2.104-0.941-2.453c-0.899-0.228-1.309,0.412-1.295,1.193
			C71.286,85.812,70.832,86.947,71.935,87.326z"/>
	</g>
</g>
</svg>
