<?xml version="1.0" encoding="utf-8"?>
<!-- Generator: Adobe Illustrator 16.0.4, SVG Export Plug-In . SVG Version: 6.00 Build 0)  -->
<!DOCTYPE svg PUBLIC "-//W3C//DTD SVG 1.1//EN" "http://www.w3.org/Graphics/SVG/1.1/DTD/svg11.dtd">
<svg version="1.1" id="Layer_2104" xmlns="http://www.w3.org/2000/svg" xmlns:xlink="http://www.w3.org/1999/xlink" x="0px" y="0px"
	 width="128px" height="128px" viewBox="0 0 128 128" enable-background="new 0 0 128 128" xml:space="preserve">
<g id="wnPjbM.tif_1_">
	<g>
		<path fill-rule="evenodd" clip-rule="evenodd" d="M57.606,62.155c10.883,0,21.766,0.001,32.648-0.001
			c6.796,0,13.593-0.004,20.389-0.007c0.118,0,0.238,0.013,0.355-0.002c0.426-0.054,0.594,0.11,0.587,0.554
			c-0.024,1.544,0.021,3.089-0.037,4.631c-0.078,2.064-0.172,4.128-0.374,6.187c-0.761,7.745-2.568,15.199-6.173,22.149
			c-2.3,4.438-5.251,8.406-8.689,12.025c-2.9,3.053-6.104,5.781-9.161,8.668c-1.78,1.682-3.495,3.426-4.773,5.545
			c-0.896,1.484-1.508,3.062-1.616,4.812c-0.007,0.118-0.051,0.236-0.044,0.354c0.032,0.497-0.249,0.57-0.669,0.567
			c-1.948-0.017-3.897-0.011-5.846-0.011c-7.485-0.001-14.97-0.001-22.455-0.001c-5.513,0-11.025,0.001-16.537-0.001
			c-0.797,0-0.788,0.111-0.84-0.733c-0.178-2.893-1.572-5.235-3.387-7.375c-1.695-1.997-3.64-3.745-5.579-5.496
			c-3.991-3.599-7.888-7.288-11.096-11.635c-3.298-4.471-5.78-9.345-7.495-14.635c-1.471-4.541-2.378-9.188-2.86-13.918
			c-0.372-3.664-0.521-7.345-0.434-11.031c0.016-0.661,0.02-0.661,0.692-0.661c14.519,0.006,29.038,0.012,43.556,0.017
			c3.28,0.001,6.558,0,9.838,0C57.606,62.157,57.606,62.156,57.606,62.155z M34.719,114.921c0.033,0.018-0.004,0.108,0.078,0.074
			c-0.03-0.021-0.06-0.041-0.09-0.062c0.022-0.164,0.026-0.323-0.13-0.433c-0.304-1.303-0.882-2.501-1.432-3.706
			c-1.545-3.383-3.597-6.468-5.652-9.55c-1.713-2.568-3.366-5.174-4.726-7.952c-2.758-5.635-3.984-11.643-4.289-17.866
			c-0.115-2.351-0.077-4.703-0.018-7.055c0.009-0.373-0.001-0.624-0.506-0.619c-1.948,0.017-3.896,0.002-5.844-0.022
			c-0.413-0.005-0.535,0.146-0.518,0.542c0.048,1.114,0.086,2.228,0.164,3.342c0.233,3.392,0.684,6.747,1.465,10.06
			c1.427,6.048,4.108,11.449,8.166,16.172c1.967,2.289,4.096,4.426,6.14,6.643c2.245,2.433,4.296,5.003,5.918,7.903
			c0.389,0.695,0.636,1.47,1.145,2.1C34.585,114.647,34.562,114.812,34.719,114.921z"/>
		<path fill-rule="evenodd" clip-rule="evenodd" d="M45.805,42.615c-0.045-3.763,1.236-7.061,3.474-10.036
			c1.598-2.124,3.184-4.256,4.732-6.416c1.334-1.858,2.453-3.837,3.075-6.062c0.79-2.821,0.629-5.636-0.077-8.443
			c-0.15-0.598-0.35-1.183-0.507-1.778c-0.062-0.238-0.331-0.552-0.124-0.7c0.179-0.126,0.446,0.191,0.658,0.332
			c1.76,1.173,3.434,2.46,4.995,3.89c2.129,1.951,4.022,4.101,5.46,6.619c1.396,2.446,2.16,5.051,1.909,7.9
			c-0.148,1.68-0.735,3.227-1.411,4.75c-1.372,3.099-3.434,5.728-5.635,8.261c-1.682,1.935-3.396,3.842-4.805,5.996
			c-2.063,3.155-3.153,6.617-3.297,10.38c-0.011,0.273,0.117,0.687-0.132,0.786c-0.281,0.113-0.511-0.252-0.734-0.45
			c-2.476-2.195-4.574-4.682-5.947-7.727C46.39,47.594,45.822,45.165,45.805,42.615z"/>
		<path fill-rule="evenodd" clip-rule="evenodd" d="M97.087,59.946c-0.736,0-1.472,0.009-2.209-0.003
			c-0.521-0.009-0.549-0.05-0.321-0.526c1.225-2.568,2.443-5.141,3.691-7.7c2.922-5.993,5.964-11.925,9.298-17.702
			c1.294-2.24,2.661-4.435,3.999-6.648c0.549-0.909,1.363-1.452,2.262-1.877c2.511-1.19,5.03-1.269,7.499,0.131
			c0.69,0.391,1.231,0.943,1.569,1.693c0.193,0.429,0.149,0.735-0.17,1.085c-2.59,2.844-5.065,5.786-7.443,8.809
			c-2.688,3.416-5.236,6.93-7.687,10.518c-2.611,3.821-5.09,7.727-7.458,11.703c-0.24,0.404-0.498,0.558-0.965,0.526
			c-0.686-0.046-1.377-0.012-2.065-0.012C97.087,59.942,97.087,59.944,97.087,59.946z"/>
		<path fill-rule="evenodd" clip-rule="evenodd" d="M73.407,26.751c0.012-1.528-0.207-3.027-0.573-4.507
			c-0.029-0.115-0.095-0.271,0.016-0.32c0.106-0.047,0.19,0.104,0.258,0.202c1.968,2.931,3.505,6.033,3.785,9.626
			c0.207,2.671-0.361,5.193-1.526,7.587c-1.288,2.645-3.056,4.965-4.942,7.202c-1.575,1.869-3.192,3.708-4.606,5.706
			c-1.316,1.861-2.386,3.833-2.558,6.168c-0.028,0.364-0.153,0.405-0.437,0.219c-1.628-1.067-2.612-2.533-2.738-4.506
			c-0.101-1.573,0.336-3.047,0.901-4.498c0.984-2.52,2.604-4.616,4.33-6.652c1.857-2.19,3.757-4.347,5.262-6.812
			C72.343,33.273,73.438,30.184,73.407,26.751z"/>
		<path fill-rule="evenodd" clip-rule="evenodd" d="M47.938,27.628c0.492-1.051,0.971-2.102,1.2-3.257
			c0.324-1.632,0.257-3.254,0.033-4.885c-0.324-2.351-0.949-4.645-1.266-7c-0.518-3.852,0.41-7.239,3.01-10.156
			c0.587-0.659,1.211-1.27,1.887-1.831c0.07-0.059,0.176-0.153,0.231-0.134c0.092,0.032,0.059,0.148,0.031,0.24
			c-0.746,2.484-0.786,5.009-0.355,7.543c0.298,1.752,0.674,3.492,1.025,5.234c0.716,3.563-0.014,6.834-2.002,9.842
			c-1.074,1.625-2.279,3.148-3.727,4.464C47.983,27.669,47.961,27.649,47.938,27.628z"/>
		<path fill-rule="evenodd" clip-rule="evenodd" d="M101.799,59.945c-0.994,0.001-1.01-0.009-0.518-0.851
			c2.845-4.857,5.905-9.574,9.173-14.158c3.778-5.3,7.817-10.394,12.167-15.239c0.8-0.891,0.773-0.886,1.648-0.092
			c0.343,0.311,0.278,0.508,0.001,0.806c-1.328,1.424-2.588,2.908-3.844,4.397c-3.397,4.032-6.588,8.224-9.611,12.542
			c-2.751,3.929-5.35,7.956-7.759,12.101C102.71,60.047,102.27,59.919,101.799,59.945z"/>
		<path fill-rule="evenodd" clip-rule="evenodd" d="M48.005,27.69c-0.022,0.06-0.047,0.155-0.122,0.1
			c-0.064-0.046-0.009-0.121,0.055-0.161C47.961,27.649,47.983,27.669,48.005,27.69z"/>
	</g>
</g>
</svg>
