<?xml version="1.0" encoding="utf-8"?>
<!-- Generator: Adobe Illustrator 16.0.4, SVG Export Plug-In . SVG Version: 6.00 Build 0)  -->
<!DOCTYPE svg PUBLIC "-//W3C//DTD SVG 1.1//EN" "http://www.w3.org/Graphics/SVG/1.1/DTD/svg11.dtd">
<svg version="1.1" id="Layer_2105" xmlns="http://www.w3.org/2000/svg" xmlns:xlink="http://www.w3.org/1999/xlink" x="0px" y="0px"
	 width="128px" height="128px" viewBox="0 0 128 128" enable-background="new 0 0 128 128" xml:space="preserve">
<g>
	<path fill-rule="evenodd" clip-rule="evenodd" d="M39.94,48.523c0-12.309,0-24.618,0-36.927c0-4.439,2.08-7.667,5.823-9.883
		c1.316-0.779,2.747-1.308,4.318-1.315c3.485-0.015,6.971-0.073,10.456-0.037c1.659,0.017,1.795,0.217,1.432,1.986
		c-0.376,1.831-0.361,3.682-0.415,5.526c-0.054,1.859,0.009,3.687,1.644,5.076c0.532,0.452,0.751,1.297,1.056,1.987
		c2.688,6.083,7.76,8.81,14,8.922c3.548,0.064,5.855,1.96,8.504,3.544c0.692,0.414,0.805,1.277,0.867,2.036
		c0.07,0.866,0.041,1.741,0.041,2.612c0.003,16.884-0.002,33.769,0.012,50.652c0.002,1.53-0.134,3.029-0.396,4.537
		c-0.979,5.625-5.343,9.447-11.12,9.49c-8.278,0.062-16.562-0.138-24.835,0.07c-5.948,0.148-11.522-5.306-11.438-11.351
		C40.059,73.144,39.939,60.833,39.94,48.523z"/>
	<path fill-rule="evenodd" clip-rule="evenodd" d="M66.935,111.867c0,3.477-0.026,6.955,0.014,10.432
		c0.016,1.227-0.17,2.368-0.75,3.451c-0.84,1.571-2.067,2.517-3.923,2.346c-1.787-0.164-2.971-1.164-3.688-2.787
		c-0.366-0.83-0.34-1.694-0.34-2.56c-0.006-7.063-0.02-22.021,0.004-29.085c0.008-2.334,0.054-2.348,2.325-2.388
		c1.412-0.026,2.826-0.031,4.238,0.004c2.057,0.05,2.092,0.067,2.112,2.261C66.956,97.019,66.935,108.39,66.935,111.867z"/>
	<path fill-rule="evenodd" clip-rule="evenodd" d="M86.855,25.116c-0.666-0.048-1.25-0.38-1.606-0.93
		c-0.893-1.378-2.196-1.855-3.732-2.281c-3.942-1.092-6.981-3.475-8.844-7.182c-0.597-1.189-1.386-2.042-2.487-2.852
		c-3.369-2.484-4.93-6.27-6.532-9.966C63.322,1.14,63.622,0.37,64.457,0.01c0.94-0.406,1.44,0.242,1.787,0.94
		c0.966,1.946,1.801,3.955,3.056,5.753c1.064,1.525,2.057,3.096,4.039,3.569c0.863,0.206,1.163,0.884,1.391,1.64
		c1.343,4.453,4.58,6.688,8.948,7.501c2.354,0.437,3.245,2.357,4.353,4.052C88.383,24.005,87.556,25.079,86.855,25.116z"/>
</g>
</svg>
