<?xml version="1.0" encoding="utf-8"?>
<!-- Generator: Adobe Illustrator 16.0.4, SVG Export Plug-In . SVG Version: 6.00 Build 0)  -->
<!DOCTYPE svg PUBLIC "-//W3C//DTD SVG 1.1//EN" "http://www.w3.org/Graphics/SVG/1.1/DTD/svg11.dtd">
<svg version="1.1" id="Layer_2201" xmlns="http://www.w3.org/2000/svg" xmlns:xlink="http://www.w3.org/1999/xlink" x="0px" y="0px"
	 width="128px" height="128px" viewBox="0 0 128 128" enable-background="new 0 0 128 128" xml:space="preserve">
<g id="fVRyFO.tif_1_">
	<g>
		<path fill-rule="evenodd" clip-rule="evenodd" d="M56.987,127.348c-6.771,0.001-13.54-0.005-20.312,0.003
			c-2.136,0.004-4.112-0.503-5.806-1.841c-2.142-1.69-3.377-3.892-3.42-6.653c-0.046-3.032-0.019-6.065-0.006-9.098
			c0.002-0.438-0.079-0.732-0.49-0.997c-0.684-0.44-1.018-1.15-1.037-1.962c-0.028-1.194-0.034-2.393,0-3.587
			c0.023-0.813,0.391-1.492,1.082-1.937c0.354-0.228,0.446-0.496,0.445-0.897c-0.012-6.428-0.012-12.856-0.002-19.285
			c0.001-0.418-0.095-0.691-0.475-0.944c-0.696-0.463-1.047-1.175-1.059-2.018c-0.016-1.131-0.016-2.264,0.002-3.396
			c0.014-0.888,0.375-1.617,1.125-2.111c0.303-0.2,0.41-0.429,0.408-0.79c-0.015-2.285-0.014-4.57,0-6.854
			c0.002-0.342-0.107-0.549-0.393-0.731c-0.786-0.498-1.134-1.254-1.146-2.163c-0.015-1.089-0.004-2.178,0-3.268
			c0.003-0.895,0.366-1.627,1.097-2.129c0.348-0.239,0.447-0.5,0.444-0.899c-0.022-2.396,0.923-4.404,2.578-6.081
			c3.721-3.768,7.467-7.509,11.201-11.266c2.679-2.695,5.347-5.401,8.034-8.088c0.283-0.283,0.426-0.565,0.391-0.956
			c-0.018-0.212-0.017-0.428-0.001-0.641c0.053-0.702-0.045-1.256-0.718-1.739c-0.77-0.552-1.083-1.457-1.083-2.429
			c-0.001-4.378-0.017-8.756,0.008-13.134c0.008-1.454,0.799-2.449,2.104-3.01c0.322-0.139,0.412-0.288,0.409-0.604
			c-0.011-1.367-0.011-2.733-0.003-4.1c0.012-1.876,1.214-3.075,3.1-3.082c2.584-0.009,5.169,0.03,7.752-0.015
			c2.055-0.035,3.342,1.52,3.259,3.301c-0.058,1.258,0,2.52-0.016,3.78c-0.004,0.383,0.093,0.59,0.483,0.771
			c1.321,0.608,2.01,1.674,2.012,3.145c0.006,3.759,0.002,7.518,0.003,11.277c0,0.15-0.002,0.299,0,0.449
			c0.009,0.567,0.01,0.576,0.561,0.579c1.132,0.007,2.264,0.002,3.396,0.002c8.223,0,16.444,0,24.667,0.002
			c0.49,0,0.981-0.012,1.471,0.064c2.485,0.388,3.807,1.831,3.969,4.343c0.007,0.107,0.01,0.213,0.013,0.32
			c0.022,0.624,0.021,0.641,0.666,0.675c0.299,0.015,0.415,0.109,0.405,0.417c-0.021,0.576-0.016,1.152-0.006,1.729
			c0.006,0.293-0.101,0.417-0.409,0.416c-1.517-0.01-3.033-0.011-4.549,0.002c-0.37,0.003-0.488-0.152-0.478-0.498
			c0.016-0.512,0.021-1.026,0-1.538c-0.019-0.386,0.126-0.523,0.515-0.532c0.63-0.015,0.641-0.071,0.552-0.673
			c-0.098-0.662-0.461-1.076-1.079-1.304c-0.534-0.196-1.084-0.212-1.642-0.211c-6.344,0.001-12.686,0-19.029,0
			c-3.097,0-6.194,0-9.291,0c-0.256,0-0.514-0.013-0.769,0.011c-0.472,0.044-0.758,0.356-0.769,0.835
			c-0.012,0.534,0.012,1.069-0.016,1.601c-0.019,0.35,0.189,0.552,0.398,0.763c1.065,1.078,2.133,2.155,3.202,3.229
			c3.119,3.13,6.241,6.257,9.361,9.385c2.201,2.206,4.41,4.403,6.601,6.62c1.672,1.693,2.627,3.715,2.659,6.124
			c0.005,0.373,0.088,0.623,0.443,0.827c0.893,0.513,1.279,1.344,1.292,2.353c0.014,1.003,0.007,2.007,0.001,3.011
			c-0.006,1.084-0.412,1.962-1.391,2.492c-0.275,0.15-0.35,0.332-0.35,0.606c0.006,2.285,0.013,4.57,0.006,6.855
			c-0.001,0.299,0.114,0.465,0.369,0.601c0.915,0.494,1.333,1.304,1.355,2.312c0.026,1.13,0.035,2.264-0.001,3.395
			c-0.03,0.942-0.488,1.684-1.307,2.143c-0.344,0.193-0.416,0.416-0.415,0.766c0.006,6.408,0.005,12.814-0.001,19.222
			c0,0.365,0.056,0.605,0.435,0.816c0.815,0.457,1.257,1.217,1.285,2.157c0.034,1.131,0.026,2.264,0.008,3.394
			c-0.016,0.937-0.392,1.739-1.214,2.193c-0.445,0.245-0.517,0.517-0.515,0.955c0.014,2.904,0.002,5.809,0.008,8.714
			c0.004,1.946-0.555,3.716-1.744,5.248c-1.637,2.105-3.781,3.325-6.477,3.501c-1.877,0.12-3.756,0.029-5.634,0.052
			c-0.788,0.01-1.578,0.004-2.367,0.004C66.427,127.348,61.707,127.348,56.987,127.348z M57.645,74.068c0,0,0-0.001,0-0.002
			c-9.075,0-18.149,0-27.224,0.002c-0.235,0-0.471-0.01-0.704,0.016c-0.675,0.076-1.279,0.561-1.417,1.214
			c-0.15,0.714-0.125,1.45-0.017,2.168c0.06,0.404,0.306,0.749,0.665,0.98c0.391,0.254,0.826,0.316,1.285,0.316
			c4.697-0.003,9.394,0.002,14.091,0.002c12.448,0.001,24.896-0.001,37.344-0.001c1.216,0,2.435,0.012,3.65-0.006
			c0.994-0.016,1.681-0.601,1.755-1.513c0.045-0.551,0.032-1.11-0.003-1.663c-0.047-0.718-0.491-1.153-1.127-1.42
			c-0.306-0.13-0.631-0.092-0.949-0.092C75.88,74.068,66.763,74.068,57.645,74.068z M57.646,107.375c0,0.001,0,0.002,0,0.003
			c8.371,0,16.741,0,25.112,0c0.896,0,1.793,0.018,2.689-0.012c0.912-0.03,1.559-0.664,1.635-1.571
			c0.033-0.381,0.033-0.768,0.021-1.151c-0.046-1.388-0.637-1.957-2.043-1.959c-6.086-0.004-12.171-0.006-18.256-0.006
			c-11.766,0-23.531,0-35.296,0c-0.534,0-1.069-0.022-1.601,0.008c-1.002,0.058-1.612,0.678-1.671,1.675
			c-0.021,0.339-0.013,0.682-0.006,1.022c0.023,1.389,0.626,1.99,2,1.99C39.369,107.376,48.507,107.375,57.646,107.375z
			 M57.584,62.796c7.453,0,14.904,0,22.357,0c1.792,0,3.587,0.006,5.381,0.002c0.935-0.004,1.631-0.572,1.745-1.454
			c0.079-0.614,0.078-1.239-0.015-1.853c-0.109-0.735-0.685-1.26-1.426-1.34c-0.213-0.022-0.427-0.023-0.641-0.023
			c-3.946-0.003-7.893-0.006-11.84-0.007c-10.994,0-21.99,0-32.984,0c-3.201,0-6.402,0-9.604,0.001
			c-0.256,0-0.513-0.004-0.769,0.019c-0.893,0.078-1.503,0.686-1.551,1.573c-0.027,0.51-0.029,1.027,0.006,1.536
			c0.057,0.837,0.701,1.468,1.535,1.531c0.319,0.025,0.64,0.013,0.961,0.013C39.688,62.796,48.636,62.796,57.584,62.796z
			 M57.408,8.198c1.792,0,3.585,0.003,5.377-0.002c0.561-0.001,0.572-0.012,0.576-0.573c0.008-1.301,0.018-2.603,0-3.904
			c-0.018-1.21-0.902-2.083-2.128-2.09c-2.539-0.013-5.078-0.012-7.618,0.002c-1.313,0.008-2.157,0.857-2.173,2.166
			c-0.014,1.237-0.008,2.475-0.004,3.712c0.002,0.683,0.008,0.688,0.721,0.689C53.909,8.201,55.658,8.199,57.408,8.198z
			 M82.125,24.993c-4.868,0-9.735-0.001-14.604,0.001c-0.543,0-0.874,0.313-0.807,0.928c0.044,0.405,0.474,0.142,0.724,0.19
			c0.227,0.044,0.468,0.016,0.703,0.016c8.988-0.002,17.977-0.005,26.965-0.01c0.644,0,1.281,0.042,1.902,0.212
			c1.196,0.327,1.659,0.891,1.771,2.128c0.014,0.149,0.04,0.299,0.034,0.447c-0.012,0.325,0.134,0.447,0.457,0.459
			c0.64,0.024,0.708-0.022,0.71-0.642c0.002-0.192,0.002-0.385-0.012-0.576c-0.114-1.52-0.892-2.535-2.236-2.953
			c-0.603-0.188-1.218-0.2-1.837-0.2C91.305,24.992,86.715,24.992,82.125,24.993z M57.461,24.348c-1.174,0-2.349,0-3.523,0
			c-1.345,0-2.69-0.005-4.035,0.002c-0.519,0.003-0.556,0.064-0.43,0.56c0.255,1.002,1.095,1.719,2.123,1.723
			c3.864,0.014,7.728,0.012,11.592,0c0.986-0.003,1.801-0.656,2.09-1.595c0.195-0.637,0.16-0.688-0.517-0.688
			C62.329,24.346,59.895,24.348,57.461,24.348z M57.385,30.11c0,0,0-0.002,0-0.003c2.008,0,4.015,0.003,6.022-0.002
			c0.568-0.001,0.571-0.011,0.583-0.562c0.006-0.321,0.004-0.641,0.002-0.961c-0.005-0.65-0.006-0.652-0.685-0.653
			c-1.666-0.001-3.332,0-4.998,0c-2.307,0-4.613-0.001-6.92,0.001c-0.566,0.001-0.568,0.009-0.575,0.557
			c-0.005,0.342-0.005,0.684,0,1.025c0.007,0.587,0.009,0.594,0.612,0.595C53.412,30.112,55.399,30.11,57.385,30.11z M99.424,31.082
			c0.447,0,0.894-0.011,1.339,0.004c0.314,0.01,0.4-0.138,0.397-0.426c-0.004-0.276-0.07-0.438-0.391-0.435
			c-0.914,0.011-1.828,0.012-2.741-0.001c-0.316-0.005-0.396,0.127-0.385,0.422c0.011,0.27,0.044,0.452,0.379,0.44
			C98.489,31.07,98.957,31.082,99.424,31.082z"/>
	</g>
</g>
</svg>
