<?xml version="1.0" encoding="utf-8"?>
<!-- Generator: Adobe Illustrator 16.0.4, SVG Export Plug-In . SVG Version: 6.00 Build 0)  -->
<!DOCTYPE svg PUBLIC "-//W3C//DTD SVG 1.1//EN" "http://www.w3.org/Graphics/SVG/1.1/DTD/svg11.dtd">
<svg version="1.1" id="Layer_2202" xmlns="http://www.w3.org/2000/svg" xmlns:xlink="http://www.w3.org/1999/xlink" x="0px" y="0px"
	 width="128px" height="128px" viewBox="0 0 128 128" enable-background="new 0 0 128 128" xml:space="preserve">
<g>
	<path fill-rule="evenodd" clip-rule="evenodd" d="M64.42,128.074c-3.333,0-6.665,0.002-9.998-0.001
		c-1.375,0-2.752-0.02-4.105-0.279c-1.312-0.25-2.505-0.812-3.616-1.549c-0.146-0.098-0.293-0.191-0.45-0.273
		c-0.584-0.303-1.092-0.7-1.519-1.207c-0.463-0.553-1.084-0.955-1.494-1.562c-1.441-2.138-2.508-4.396-2.477-7.057
		c0.027-2.309,0.021-4.618-0.011-6.928c-0.01-0.688,0.219-1.179,0.777-1.567c0.749-0.518,1.352-1.184,1.769-1.996
		c0.619-1.2,0.539-2.338-0.223-3.487c-0.51-0.771-1.118-1.383-1.883-1.882c-0.348-0.227-0.42-0.637-0.422-1.036
		c-0.004-0.811,0.006-1.622,0.004-2.433c-0.001-1.357,0.047-2.719-0.029-4.072c-0.059-1.04,0.439-1.642,1.209-2.227
		c1.613-1.225,2.354-3.244,1.178-5.051c-0.414-0.639-0.918-1.154-1.518-1.581c-0.603-0.428-0.865-0.966-0.858-1.702
		c0.021-2.151,0.025-4.303-0.003-6.454c-0.01-0.69,0.238-1.18,0.788-1.567c0.899-0.633,1.582-1.445,1.976-2.484
		c0.26-0.687,0.298-1.385,0.026-2.066c-0.433-1.087-1.088-2.021-2.104-2.632c-0.437-0.261-0.596-0.618-0.66-1.069
		c-0.017-0.121-0.014-0.246-0.014-0.369c0-3.703,0.004-7.406,0.002-11.108c0-1.482,0.362-2.897,0.797-4.296
		c0.312-1.009,0.629-2.018,1.012-3.002c0.268-0.688,0.366-1.426,0.644-2.119c0.509-1.275,1.065-2.539,1.478-3.846
		c0.506-1.602,1.276-3.09,1.822-4.667c0.605-1.751,1.455-3.399,2.086-5.133c0.549-1.511,1.315-2.924,1.854-4.428
		c0.559-1.564,1.37-3.013,1.945-4.562c0.645-1.736,1.53-3.363,2.216-5.079c0.092-0.229,0.177-0.46,0.256-0.692
		c0.263-0.773,0.868-1.066,1.617-1.151c0.157-0.018,0.317-0.014,0.476-0.014c4.725,0,9.451,0.01,14.176-0.005
		c0.961-0.003,1.562,0.38,1.966,1.274c0.601,1.331,1.147,2.682,1.739,4.015c0.451,1.014,1.002,1.991,1.358,3.035
		c0.401,1.173,0.991,2.255,1.441,3.4c0.532,1.358,1.071,2.716,1.669,4.046c0.951,2.12,1.719,4.314,2.652,6.442
		c0.357,0.815,0.591,1.692,0.944,2.517c0.667,1.556,1.181,3.167,1.749,4.759c0.456,1.277,0.984,2.531,1.334,3.842
		c0.429,1.614,0.965,3.205,1.192,4.869c0.042,0.299,0.06,0.597,0.061,0.896c0.003,3.649,0.004,7.299,0.003,10.949
		c0,0.654-0.268,1.102-0.811,1.544c-0.977,0.793-1.922,1.675-2.184,3.017c-0.197,1.007,0.094,1.904,0.711,2.67
		c0.484,0.598,1.035,1.148,1.643,1.636c0.432,0.347,0.655,0.788,0.649,1.374c-0.022,2.169-0.013,4.338-0.007,6.508
		c0.002,0.609-0.265,1.055-0.705,1.466c-0.562,0.526-1.215,0.966-1.646,1.626c-0.571,0.873-0.924,1.805-0.59,2.849
		c0.285,0.89,0.819,1.632,1.532,2.239c0.294,0.25,0.601,0.484,0.886,0.745c0.34,0.312,0.518,0.708,0.518,1.174
		c0.002,2.274,0.008,4.55-0.006,6.824c-0.004,0.535-0.271,0.915-0.709,1.275c-0.977,0.804-1.941,1.657-2.251,2.974
		c-0.247,1.053,0.039,1.998,0.716,2.811c0.539,0.649,1.139,1.249,1.795,1.784c0.33,0.27,0.461,0.614,0.461,1.02
		c-0.002,2.469,0.027,4.938-0.025,7.405c-0.027,1.292-0.423,2.518-0.853,3.742c-0.801,2.285-2.292,4.032-4.148,5.477
		c-0.95,0.74-2.042,1.303-3.183,1.748c-1.409,0.552-2.885,0.658-4.361,0.673C71.262,128.097,67.842,128.073,64.42,128.074
		L64.42,128.074z M63.983,124.856c0-0.01,0-0.02,0-0.029c3.651,0,7.301-0.003,10.952,0.002c1.724,0.003,3.285-0.561,4.761-1.385
		c0.599-0.334,1.05-0.881,1.581-1.314c0.903-0.736,1.397-1.762,1.911-2.752c0.633-1.221,0.869-2.56,0.859-3.94
		c-0.01-1.499-0.034-2.999,0.014-4.495c0.021-0.703-0.156-1.202-0.703-1.687c-1.236-1.093-2.01-2.503-2.27-4.13
		c-0.432-2.711,0.71-4.839,2.654-6.611c0.223-0.202,0.31-0.386,0.308-0.671c-0.01-1.376-0.024-2.752,0.007-4.126
		c0.01-0.434-0.103-0.754-0.454-0.986c-0.953-0.631-1.474-1.601-1.956-2.576c-0.549-1.109-0.771-2.299-0.616-3.545
		c0.175-1.404,0.799-2.621,1.619-3.736c0.298-0.405,0.716-0.727,1.102-1.059c0.221-0.191,0.304-0.398,0.301-0.687
		c-0.013-1.411-0.015-2.822,0-4.232c0.004-0.326-0.084-0.548-0.343-0.765c-1.162-0.972-1.953-2.211-2.428-3.637
		c-0.948-2.854,0.489-5.791,2.452-7.431c0.268-0.224,0.313-0.425,0.313-0.708c-0.002-3.228-0.002-6.455-0.002-9.682
		c0-0.265-0.019-0.526-0.068-0.789c-0.315-1.702-0.914-3.325-1.388-4.982c-0.702-2.461-1.692-4.815-2.562-7.211
		c-0.802-2.213-1.729-4.386-2.613-6.572c-0.442-1.09-0.912-2.17-1.325-3.276c-0.621-1.663-1.451-3.245-2.073-4.914
		c-0.559-1.499-1.331-2.907-1.898-4.408c-0.44-1.166-1.053-2.266-1.559-3.41c-0.143-0.322-0.31-0.445-0.666-0.444
		c-3.949,0.012-7.899,0.012-11.848-0.002c-0.383-0.001-0.558,0.151-0.705,0.476c-0.336,0.736-0.613,1.496-0.928,2.238
		c-0.613,1.441-1.279,2.858-1.896,4.298c-1.006,2.347-1.965,4.711-2.98,7.053c-0.364,0.839-0.654,1.713-1.018,2.544
		c-1.029,2.358-1.877,4.785-2.842,7.166c-0.37,0.912-0.747,1.819-1.003,2.779c-0.235,0.881-0.616,1.725-0.952,2.576
		c-0.53,1.347-0.842,2.758-1.232,4.145c-0.347,1.227-0.554,2.461-0.527,3.75c0.047,2.344,0.014,4.689,0.014,7.035
		c0,0.6-0.001,1.199,0.003,1.799c0.001,0.154-0.026,0.321,0.148,0.42c0.656,0.373,0.962,1.064,1.437,1.602
		c0.243,0.275,0.46,0.572,0.644,0.898c0.462,0.821,0.659,1.71,0.705,2.631c0.063,1.281-0.063,2.526-0.713,3.683
		c-0.507,0.902-1.207,1.64-1.905,2.378c-0.209,0.223-0.326,0.416-0.322,0.725c0.014,1.428,0.013,2.856-0.001,4.285
		c-0.003,0.293,0.084,0.501,0.312,0.682c0.43,0.339,0.771,0.77,1.113,1.188c0.889,1.089,1.473,2.313,1.522,3.748
		c0.042,1.19,0.011,2.386-0.576,3.451c-0.515,0.937-1.108,1.835-1.947,2.537c-0.209,0.175-0.431,0.327-0.426,0.677
		c0.02,1.518,0.011,3.033,0.006,4.55c0,0.211,0.075,0.353,0.243,0.491c0.756,0.622,1.292,1.437,1.84,2.229
		c0.684,0.988,0.875,2.145,0.869,3.324c-0.004,0.773-0.041,1.552-0.308,2.292c-0.471,1.308-1.36,2.329-2.319,3.294
		c-0.216,0.217-0.322,0.424-0.319,0.732c0.012,1.816,0.014,3.633,0.005,5.448c-0.008,1.444,0.422,2.798,1.004,4.075
		c0.496,1.088,1.312,1.998,2.232,2.778c1.657,1.405,3.59,2.126,5.761,2.183c1.058,0.029,2.116,0.027,3.174,0.027
		C58.764,124.858,61.374,124.856,63.983,124.856z"/>
	<path fill-rule="evenodd" clip-rule="evenodd" d="M63.951,12.499c-2.644,0-5.286,0.001-7.93,0c-0.583,0-0.594-0.003-0.592-0.576
		c0.003-1.814,0.014-3.629,0.021-5.443c0.004-0.896-0.046-1.792,0.012-2.689c0.055-0.827,0.404-1.507,0.84-2.185
		c0.751-1.166,1.861-1.652,3.174-1.668c2.994-0.035,5.991-0.009,8.987-0.013c1.748-0.002,2.873,0.971,3.714,2.378
		c0.202,0.338,0.235,0.734,0.257,1.124c0.084,1.461,0.027,2.923,0.037,4.385c0.01,1.357,0.002,2.714,0.002,4.07
		c0,0.613,0,0.615-0.593,0.615C69.236,12.499,66.594,12.499,63.951,12.499z"/>
	<g>
		<path d="M80.748,111.119c-0.295-0.283-0.473-0.653-0.73-0.964c-0.775-0.932-1.387-1.971-1.705-3.131
			c-0.292-1.066-0.444-2.172-0.398-3.294c0.037-0.921,0.158-1.839,0.428-2.706c0.308-0.988,0.785-1.924,1.471-2.726
			c0.344-0.401,0.545-0.905,0.939-1.271c0.124-0.115,0.111-0.289,0.111-0.449c0-0.599,0-1.197,0.002-1.797
			c0.001-0.182-0.058-0.319-0.184-0.469c-0.621-0.742-1.168-1.543-1.66-2.373c-0.516-0.869-0.79-1.826-0.957-2.83
			c-0.295-1.78-0.164-3.52,0.421-5.211c0.442-1.275,1.243-2.355,2.107-3.382c0.138-0.165,0.271-0.313,0.268-0.55
			c-0.009-0.652-0.003-1.305-0.001-1.958c0.001-0.145-0.02-0.286-0.126-0.392c-0.266-0.262-0.444-0.588-0.673-0.877
			c-0.738-0.932-1.355-1.934-1.718-3.07c-0.197-0.62-0.288-1.271-0.366-1.918c-0.189-1.563-0.016-3.106,0.494-4.584
			c0.44-1.273,1.278-2.34,2.094-3.398c0.211-0.273,0.305-0.526,0.303-0.859c-0.008-1.921-0.072-3.846,0.017-5.764
			c0.093-2.002-0.237-3.931-0.755-5.836c-0.551-2.021-1.414-3.939-2.043-5.939c-0.553-1.76-1.377-3.424-1.977-5.175
			c-0.562-1.646-1.374-3.199-1.959-4.844c-0.412-1.158-0.972-2.265-1.439-3.405c-0.141-0.344-0.322-0.471-0.704-0.469
			c-5.36,0.013-10.72,0.012-16.08,0.001c-0.375,0-0.562,0.112-0.709,0.463c-0.549,1.333-1.016,2.701-1.625,4.012
			c-0.459,0.987-0.814,2.02-1.196,3.041c-0.603,1.615-1.343,3.175-1.882,4.818c-0.579,1.771-1.369,3.463-1.887,5.263
			c-0.397,1.385-0.9,2.743-1.281,4.137c-0.135,0.492-0.267,0.987-0.266,1.506c0,2.75,0.003,5.5-0.006,8.251
			c-0.002,0.338,0.098,0.593,0.326,0.851c0.466,0.525,0.962,1.044,1.275,1.674c0.235,0.471,0.471,0.946,0.678,1.432
			c0.82,1.926,1.008,3.909,0.48,5.945c-0.212,0.82-0.559,1.584-0.93,2.35c-0.328,0.676-0.678,1.317-1.23,1.819
			c-0.501,0.454-0.688,0.99-0.604,1.647c0.026,0.209,0.018,0.424,0.002,0.635c-0.047,0.605,0.015,1.154,0.604,1.512
			c0.127,0.077,0.201,0.241,0.299,0.365c0.382,0.487,0.674,1.025,0.963,1.572c1.114,2.105,1.501,4.324,0.949,6.648
			c-0.334,1.41-0.953,2.716-1.805,3.908c-0.33,0.463-0.9,0.789-0.985,1.382c-0.083,0.57-0.011,1.161-0.026,1.743
			c-0.01,0.337,0.078,0.604,0.328,0.849c1.037,1.024,1.675,2.302,2.167,3.643c1.155,3.149,0.464,6.063-1.249,8.812
			c-0.258,0.413-0.617,0.768-0.953,1.127c-0.207,0.224-0.285,0.463-0.283,0.762c0.011,1.305,0.007,2.609,0.006,3.914
			c-0.001,1.957,0.789,3.535,2.285,4.775c1.143,0.947,2.176,1.42,3.667,1.416c3.578-0.009,6.461-0.002,10.461-0.002
			c0,0.003,0,0.006,0,0.01c3,0,7.433,0.008,11.012-0.003c2.027-0.007,3.754-0.938,5.006-2.462c0.707-0.861,1.11-1.913,1.213-3.02
			c0.146-1.582,0.074-3.171,0.096-4.757C80.828,111.376,80.855,111.222,80.748,111.119z M75.123,66.041
			c-1.396,2.517-3.16,4.763-5.197,6.767c-1.021,1.004-2.327,1.712-3.438,2.636c-1.143,0.95-2.507,1.415-3.845,1.936
			c-1.031,0.399-2.109,0.392-3.053,0.083c-1.763-0.406-2.897-1.469-3.85-2.783c-1.295-1.789-2.348-3.768-2.946-5.837
			c-1.062-3.674-1.941-7.44-1.208-11.333c0.259-1.375,0.848-2.614,1.665-3.752c0.299-0.417,0.622-0.541,1.116-0.361
			c0.5,0.184,1.311,0.148,1.477,0.471c0.23,0.447-0.506,0.816-0.792,1.239c-1.355,2.021-1.547,4.267-1.351,6.589
			c0.059,0.704,0.167,1.406,0.123,2.113c-0.059,0.976,0.359,1.842,0.606,2.743c0.65,2.382,1.664,4.599,2.931,6.726
			c1.131,1.896,4.113,2.629,5.939,1.568c2.118-1.23,4.012-2.693,5.774-4.372c1.027-0.98,2-2,2.768-3.193
			c1.533-2.381,2.73-4.862,2.4-7.825c-0.092-0.814-0.028-0.822,0.761-0.625c1.519,0.38,1.549,0.414,1.554,2.016
			C76.562,62.709,76.021,64.421,75.123,66.041z M57.25,61.95c-0.19,0.814-0.877,1.43-1.432,1.28
			c-0.498-0.134-0.852-0.978-0.72-1.722c0.159-0.898,0.906-1.64,1.496-1.481C57.158,60.178,57.459,61.06,57.25,61.95z
			 M58.341,65.631c0.586,0.114,0.955,1.05,0.737,1.874c-0.224,0.849-0.849,1.457-1.399,1.363c-0.562-0.094-0.912-1.002-0.726-1.883
			C57.126,66.171,57.79,65.524,58.341,65.631z M62.268,67.806c-0.438-0.092-0.691-0.378-0.754-0.83
			c-0.101-0.73,0.052-1.401,0.479-2.001c0.245-0.347,0.581-0.592,1.024-0.492c0.456,0.102,0.588,0.496,0.671,0.909
			c0.083,0.406,0.027,0.799-0.118,1.293c-0.059,0.184-0.152,0.465-0.346,0.711C62.974,67.716,62.667,67.89,62.268,67.806z
			 M62.471,72.337c-0.23,0.873-0.85,1.432-1.417,1.275c-0.526-0.145-0.816-0.865-0.689-1.715c0.135-0.903,0.867-1.643,1.468-1.479
			C62.395,70.573,62.697,71.479,62.471,72.337z M61.915,60.997c-0.233,0.947-0.856,1.551-1.441,1.396
			c-0.583-0.152-0.859-0.967-0.651-1.914c0.189-0.855,0.832-1.451,1.4-1.295C61.746,59.33,62.099,60.251,61.915,60.997z
			 M67.327,62.587c-0.206,0.832-0.823,1.473-1.36,1.416c-0.502-0.055-0.719-0.689-0.604-1.717c0.035-0.309,0.148-0.582,0.3-0.846
			c0.225-0.39,0.481-0.789,1.007-0.638c0.456,0.132,0.688,0.501,0.722,0.987C67.412,62.062,67.398,62.325,67.327,62.587z
			 M67.654,69.281c-0.246,0.908-0.832,1.468-1.385,1.325c-0.613-0.158-0.891-0.957-0.655-1.891c0.204-0.812,0.907-1.44,1.435-1.282
			C67.57,67.59,67.867,68.496,67.654,69.281z M69.832,62.552c0.119-0.884,0.856-1.655,1.459-1.527
			c0.54,0.115,0.892,1.102,0.686,1.921c-0.212,0.84-0.863,1.438-1.42,1.304C70.016,64.118,69.715,63.415,69.832,62.552z
			 M77.207,57.036c0.048,0.789-0.121,0.953-0.908,0.932c-1.063-0.027-1.951-0.476-2.729-1.162c-0.385-0.342-0.496-0.216-0.496,0.229
			c0.001,0.717-0.162,1.405-0.418,2.068c-0.344,0.892-0.754,1.081-1.533,0.545c-1.255-0.863-2.394-1.863-2.8-3.438
			c-0.036-0.145-0.021-0.369-0.235-0.357c-0.068,0.004-0.133,0.215-0.187,0.336c-0.633,1.417-1.271,2.816-2.56,3.805
			c-1.324,1.018-2.313,0.709-2.772-0.898c-0.369-1.295-0.781-2.577-0.699-3.95c0.009-0.134,0.01-0.321-0.119-0.351
			c-0.092-0.021-0.227,0.112-0.334,0.19c-1.006,0.739-2.145,1.106-3.381,1.17c-1.213,0.062-1.466-0.228-1.271-1.396
			c0.032-0.199,0.082-0.396,0.118-0.566c0.159-0.473,0.287-0.928,0.54-1.332c0.073-0.117,0.159-0.276,0.066-0.367
			c-0.066-0.063-0.256-0.038-0.374-0.004c-0.989,0.293-1.932,0.146-2.845-0.281c-0.889-0.416-0.957-0.666-0.402-1.436
			c0.098-0.137,0.188-0.291,0.32-0.387c0.324-0.236,0.373-0.428-0.002-0.664c-0.221-0.139-0.504-0.301-0.393-0.627
			c0.137-0.402,0.514-0.402,0.85-0.379c2.025,0.136,4.034-0.082,6.039-0.311c1.83-0.209,3.695-0.195,5.465-0.842
			c0.375-0.137,0.641-0.308,0.855-0.635c0.922-1.404,2.338-2.195,3.773-2.944c0.5-0.262,0.994-0.18,1.311,0.354
			c0.359,0.604,0.222,1.464-0.305,1.826c-0.188,0.13-0.426,0.192-0.647,0.266c-0.256,0.084-0.522,0.135-0.777,0.22
			c-0.663,0.22-1.274,0.661-1.541,1.224c-0.229,0.482,0.476,0.884,0.802,1.266c0.499,0.58,1.126,1.039,1.771,1.48
			c1.472,1.002,2.885,2.088,4.372,3.07c0.872,0.576,1.791,1.067,2.681,1.608c0.201,0.123,0.486,0.229,0.424,0.499
			c-0.068,0.301-0.375,0.199-0.602,0.201c-0.033,0.001-0.068-0.008-0.101,0c-0.353,0.085-0.816-0.244-1.035,0.072
			C76.988,56.278,77.186,56.707,77.207,57.036z"/>
	</g>
</g>
</svg>
