<?xml version="1.0" encoding="utf-8"?>
<!-- Generator: Adobe Illustrator 16.0.4, SVG Export Plug-In . SVG Version: 6.00 Build 0)  -->
<!DOCTYPE svg PUBLIC "-//W3C//DTD SVG 1.1//EN" "http://www.w3.org/Graphics/SVG/1.1/DTD/svg11.dtd">
<svg version="1.1" id="Layer_2206" xmlns="http://www.w3.org/2000/svg" xmlns:xlink="http://www.w3.org/1999/xlink" x="0px" y="0px"
	 width="128px" height="128px" viewBox="0 0 128 128" enable-background="new 0 0 128 128" xml:space="preserve">
<g>
	<path d="M82.801,115.75c0.007-17.516,0-35.03,0.017-52.544c0.001-1.356,0.114-2.709-0.058-4.066
		c-0.354-2.79-1.235-5.323-3.319-7.336c-0.85-0.822-1.583-1.754-2.234-2.748c-1.061-1.618-1.678-3.374-1.645-5.322
		c0.057-3.429-0.188-6.825-0.79-10.209c-1.05-5.914-2.011-11.845-2.988-17.772c-0.225-1.362-0.548-2.71-0.611-4.099
		c-0.027-0.569,0.094-1.041,0.571-1.385c0.36-0.259,0.434-0.615,0.448-1.048c0.021-0.626-0.156-1.183-0.372-1.75
		c-0.259-0.679-0.631-1.326-0.713-2.057c-0.114-1.012-0.078-1.036,0.907-1.11c0.233-0.018,0.424-0.013,0.485-0.332
		c0.411-2.103-0.587-3.456-2.721-3.655c-0.226-0.021-0.453-0.016-0.68-0.017c-1.686-0.001-3.372,0-5.058,0
		c-1.787,0-3.573,0.002-5.36-0.001c-0.639-0.001-1.251,0.114-1.832,0.379c-0.86,0.393-1.305,1.072-1.358,2.009
		c-0.014,0.251-0.004,0.503-0.003,0.755c0.002,0.827,0.004,0.865,0.8,0.848c0.531-0.011,0.643,0.221,0.632,0.677
		c-0.011,0.407-0.051,0.795-0.209,1.178c-0.26,0.626-0.551,1.25-0.718,1.903c-0.218,0.851-0.404,1.745,0.47,2.404
		c0.291,0.22,0.329,0.526,0.345,0.871c0.055,1.222-0.244,2.396-0.441,3.584c-0.887,5.306-1.766,10.612-2.682,15.913
		c-0.749,4.341-1.432,8.683-1.251,13.114c0.062,1.517-0.4,2.927-1.118,4.256c-0.749,1.385-1.718,2.608-2.833,3.704
		c-1.845,1.81-2.712,4.066-3.139,6.548c-0.28,1.625-0.154,3.259-0.153,4.893c0.008,17.288,0.003,34.577,0.009,51.865
		c0.001,0.859-0.071,1.7-0.244,2.545c-0.436,2.136-0.151,4.139,1.146,5.962c1.123,1.575,2.736,2.312,4.518,2.799
		c3.255,0.888,6.596,1.101,9.94,1.157c3.845,0.065,7.694,0.117,11.532-0.258c1.979-0.192,3.946-0.464,5.851-1.064
		c1.107-0.35,2.182-0.777,3.044-1.599c1.884-1.79,2.518-3.994,2.154-6.526C83.021,117.392,82.801,116.59,82.801,115.75z M73.5,105.5
		h-21v-43h21V105.5z"/>
</g>
</svg>
