<?xml version="1.0" encoding="utf-8"?>
<!-- Generator: Adobe Illustrator 16.0.4, SVG Export Plug-In . SVG Version: 6.00 Build 0)  -->
<!DOCTYPE svg PUBLIC "-//W3C//DTD SVG 1.1//EN" "http://www.w3.org/Graphics/SVG/1.1/DTD/svg11.dtd">
<svg version="1.1" id="Layer_2208" xmlns="http://www.w3.org/2000/svg" xmlns:xlink="http://www.w3.org/1999/xlink" x="0px" y="0px"
	 width="128px" height="128px" viewBox="0 0 128 128" enable-background="new 0 0 128 128" xml:space="preserve">
<g>
	<path d="M84.595,119.595c-0.388-7.574-0.109-15.099-0.194-22.675c-0.035-3.212-0.01-6.397-0.095-9.608
		c-0.242-9.136-0.363-18.257,0.013-27.393c0.245-5.971-1.127-11.272-6.414-14.908c-1.009-0.695-1.875-1.598-2.782-2.435
		c-0.419-0.389-0.938-0.824-0.878-1.431c0.219-2.236-0.738-4.408-0.404-6.618c0.715-4.716,0.12-9.366-0.735-13.969
		c-0.532-2.867-1.271-5.486-0.793-8.626c0.488-3.201,0-6.705-0.175-10.07c-0.068-1.329-0.766-2.144-2.193-2.144
		c-3.79-0.001-7.579,0.006-11.369-0.005c-1.284-0.004-2.105,0.627-2.167,1.872c-0.187,3.778-0.624,7.595-0.115,11.332
		c0.256,1.888,0.174,3.571-0.352,5.301c-0.722,2.374-0.956,4.824-1.381,7.249c-0.82,4.674,0.375,9.338-0.289,14.014
		c-0.227,1.592-0.533,2.825-1.738,3.827c-0.822,0.684-1.588,1.443-2.451,2.068c-3.732,2.703-5.433,6.425-5.855,10.934
		c-0.232,2.479,0.056,4.923,0.081,7.38c0.17,16.472-0.418,32.937-0.338,49.407c0.024,4.897-0.786,9.937,1.211,14.682
		c0.12,0.285,0.143,0.722,0.087,0.722h37.92c-0.072,0-0.023-0.585,0.126-1.003C84.213,125.002,84.732,122.265,84.595,119.595z
		 M75.5,114.5h-24v-49h24V114.5z"/>
</g>
</svg>
