<?xml version="1.0" encoding="utf-8"?>
<!-- Generator: Adobe Illustrator 16.0.4, SVG Export Plug-In . SVG Version: 6.00 Build 0)  -->
<!DOCTYPE svg PUBLIC "-//W3C//DTD SVG 1.1//EN" "http://www.w3.org/Graphics/SVG/1.1/DTD/svg11.dtd">
<svg version="1.1" id="Layer_2301" xmlns="http://www.w3.org/2000/svg" xmlns:xlink="http://www.w3.org/1999/xlink" x="0px" y="0px"
	 width="128px" height="128px" viewBox="0 0 128 128" enable-background="new 0 0 128 128" xml:space="preserve">
<g>
	<g id="Udfjp2.tif_3_">
		<g>
			<path fill-rule="evenodd" clip-rule="evenodd" d="M55.921,3.238c0.95,1.42,1.751,2.924,1.22,4.678
				c-0.473,1.562,0.165,2.135,1.597,2.381c0.759,0.131,1.523,0.411,2.207,0.772c2.389,1.259,3.569,3.891,2.835,6.156
				c-0.752,2.326-3.269,4.118-5.831,3.28c-3.174-1.039-5.168,0.362-7.413,2.059c-4.543,3.437-9.159,6.781-13.823,10.051
				c-1.669,1.17-2.474,2.502-2.599,4.586c-0.227,3.77-2.94,5.995-6.444,5.644c-3.133-0.314-5.064-2.928-4.601-6.611
				c0.216-1.717-0.215-2.225-1.922-2.209c-1.959,0.019-3.591-0.982-4.824-2.475c-2.721-3.291-1.223-7.476,2.958-8.308
				c0.857-0.17,1.837-0.438,2.612-0.192c2.84,0.905,4.835-0.455,6.948-2.042c4.791-3.598,9.652-7.106,14.57-10.527
				c1.732-1.205,2.775-2.433,2.801-4.728c0.036-3.055,1.383-4.773,3.388-5.271C51.918-0.093,54.39,0.984,55.921,3.238z"/>
		</g>
	</g>
	<g id="Udfjp2.tif_6_">
		<g>
			<path fill-rule="evenodd" clip-rule="evenodd" d="M55.921,31.5c0.95,1.42,1.751,2.924,1.22,4.678
				c-0.473,1.562,0.165,2.135,1.597,2.382c0.759,0.129,1.523,0.41,2.207,0.771c2.389,1.26,3.569,3.891,2.835,6.157
				c-0.752,2.326-3.269,4.118-5.831,3.28c-3.174-1.038-5.168,0.362-7.413,2.06c-4.543,3.437-9.159,6.782-13.823,10.052
				c-1.669,1.169-2.474,2.501-2.599,4.585c-0.227,3.77-2.94,5.995-6.444,5.644c-3.133-0.313-5.064-2.928-4.601-6.61
				c0.216-1.718-0.215-2.226-1.922-2.21c-1.959,0.018-3.591-0.982-4.824-2.474c-2.721-3.292-1.223-7.477,2.958-8.308
				c0.857-0.171,1.837-0.439,2.612-0.192c2.84,0.904,4.835-0.455,6.948-2.042c4.791-3.599,9.652-7.106,14.57-10.527
				c1.732-1.205,2.775-2.433,2.801-4.729c0.036-3.055,1.383-4.773,3.388-5.27C51.918,28.17,54.39,29.246,55.921,31.5z"/>
		</g>
	</g>
	<g id="Udfjp2.tif_8_">
		<g>
			<path fill-rule="evenodd" clip-rule="evenodd" d="M55.921,59.763c0.95,1.42,1.751,2.924,1.22,4.678
				c-0.473,1.563,0.165,2.135,1.597,2.381c0.759,0.131,1.523,0.411,2.207,0.772c2.389,1.259,3.569,3.89,2.835,6.156
				c-0.752,2.325-3.269,4.118-5.831,3.279c-3.174-1.038-5.168,0.363-7.413,2.06c-4.543,3.438-9.159,6.781-13.823,10.052
				c-1.669,1.17-2.474,2.501-2.599,4.586c-0.227,3.769-2.94,5.995-6.444,5.644c-3.133-0.313-5.064-2.929-4.601-6.611
				c0.216-1.717-0.215-2.225-1.922-2.209c-1.959,0.018-3.591-0.982-4.824-2.475c-2.721-3.291-1.223-7.477,2.958-8.309
				c0.857-0.17,1.837-0.438,2.612-0.192c2.84,0.905,4.835-0.454,6.948-2.041c4.791-3.598,9.652-7.106,14.57-10.527
				c1.732-1.204,2.775-2.433,2.801-4.729c0.036-3.055,1.383-4.773,3.388-5.27C51.918,56.433,54.39,57.509,55.921,59.763z"/>
		</g>
	</g>
	<g id="Udfjp2.tif_10_">
		<g>
			<path fill-rule="evenodd" clip-rule="evenodd" d="M55.921,88.025c0.95,1.42,1.751,2.924,1.22,4.678
				c-0.473,1.563,0.165,2.136,1.597,2.382c0.759,0.131,1.523,0.41,2.207,0.771c2.389,1.26,3.569,3.892,2.835,6.156
				c-0.752,2.327-3.269,4.118-5.831,3.281c-3.174-1.039-5.168,0.361-7.413,2.059c-4.543,3.438-9.159,6.782-13.823,10.052
				c-1.669,1.17-2.474,2.501-2.599,4.587c-0.227,3.768-2.94,5.993-6.444,5.643c-3.133-0.314-5.064-2.929-4.601-6.611
				c0.216-1.717-0.215-2.226-1.922-2.209c-1.959,0.019-3.591-0.983-4.824-2.475c-2.721-3.291-1.223-7.477,2.958-8.309
				c0.857-0.171,1.837-0.438,2.612-0.192c2.84,0.905,4.835-0.454,6.948-2.04c4.791-3.6,9.652-7.107,14.57-10.527
				c1.732-1.205,2.775-2.434,2.801-4.729c0.036-3.055,1.383-4.773,3.388-5.271C51.918,84.694,54.39,85.771,55.921,88.025z"/>
		</g>
	</g>
	<g id="Udfjp2.tif_7_">
		<g>
			<path fill-rule="evenodd" clip-rule="evenodd" d="M104.976,3.238c0.95,1.42,1.751,2.924,1.22,4.678
				c-0.473,1.562,0.164,2.135,1.597,2.381c0.758,0.131,1.523,0.411,2.206,0.772c2.389,1.259,3.569,3.891,2.836,6.156
				c-0.753,2.326-3.269,4.118-5.831,3.28c-3.175-1.039-5.168,0.362-7.413,2.059c-4.543,3.437-9.158,6.781-13.823,10.051
				c-1.669,1.17-2.473,2.502-2.599,4.586c-0.227,3.77-2.939,5.995-6.444,5.644c-3.132-0.314-5.063-2.928-4.601-6.611
				c0.216-1.717-0.215-2.225-1.923-2.209c-1.959,0.019-3.59-0.982-4.824-2.475c-2.721-3.291-1.222-7.476,2.958-8.308
				c0.858-0.17,1.837-0.438,2.612-0.192c2.84,0.905,4.834-0.455,6.947-2.042c4.791-3.598,9.651-7.106,14.57-10.527
				c1.732-1.205,2.774-2.433,2.802-4.728c0.035-3.055,1.382-4.773,3.387-5.271C100.973-0.093,103.443,0.984,104.976,3.238z"/>
		</g>
	</g>
	<g id="Udfjp2.tif_5_">
		<g>
			<path fill-rule="evenodd" clip-rule="evenodd" d="M104.976,31.5c0.95,1.42,1.751,2.924,1.22,4.678
				c-0.473,1.562,0.164,2.135,1.597,2.382c0.758,0.129,1.523,0.41,2.206,0.771c2.389,1.26,3.569,3.891,2.836,6.157
				c-0.753,2.326-3.269,4.118-5.831,3.28c-3.175-1.038-5.168,0.362-7.413,2.06c-4.543,3.437-9.158,6.782-13.823,10.052
				c-1.669,1.169-2.473,2.501-2.599,4.585c-0.227,3.77-2.939,5.995-6.444,5.644c-3.132-0.313-5.063-2.928-4.601-6.61
				c0.216-1.718-0.215-2.226-1.923-2.21c-1.959,0.018-3.59-0.982-4.824-2.474c-2.721-3.292-1.222-7.477,2.958-8.308
				c0.858-0.171,1.837-0.439,2.612-0.192c2.84,0.904,4.834-0.455,6.947-2.042c4.791-3.599,9.651-7.106,14.57-10.527
				c1.732-1.205,2.774-2.433,2.802-4.729c0.035-3.055,1.382-4.773,3.387-5.27C100.973,28.17,103.443,29.246,104.976,31.5z"/>
		</g>
	</g>
	<g id="Udfjp2.tif_4_">
		<g>
			<path fill-rule="evenodd" clip-rule="evenodd" d="M104.976,59.763c0.95,1.42,1.751,2.924,1.22,4.678
				c-0.473,1.563,0.164,2.135,1.597,2.381c0.758,0.131,1.523,0.411,2.206,0.772c2.389,1.259,3.569,3.89,2.836,6.156
				c-0.753,2.325-3.269,4.118-5.831,3.279c-3.175-1.038-5.168,0.363-7.413,2.06c-4.543,3.438-9.158,6.781-13.823,10.052
				c-1.669,1.17-2.473,2.501-2.599,4.586c-0.227,3.769-2.939,5.995-6.444,5.644c-3.132-0.313-5.063-2.929-4.601-6.611
				c0.216-1.717-0.215-2.225-1.923-2.209c-1.959,0.018-3.59-0.982-4.824-2.475c-2.721-3.291-1.222-7.477,2.958-8.309
				c0.858-0.17,1.837-0.438,2.612-0.192c2.84,0.905,4.834-0.454,6.947-2.041c4.791-3.598,9.651-7.106,14.57-10.527
				c1.732-1.204,2.774-2.433,2.802-4.729c0.035-3.055,1.382-4.773,3.387-5.27C100.973,56.433,103.443,57.509,104.976,59.763z"/>
		</g>
	</g>
	<g id="Udfjp2.tif_1_">
		<g>
			<path fill-rule="evenodd" clip-rule="evenodd" d="M104.976,88.025c0.95,1.42,1.751,2.924,1.22,4.678
				c-0.473,1.563,0.164,2.136,1.597,2.382c0.758,0.131,1.523,0.41,2.206,0.771c2.389,1.26,3.569,3.892,2.836,6.156
				c-0.753,2.327-3.269,4.118-5.831,3.281c-3.175-1.039-5.168,0.361-7.413,2.059c-4.543,3.438-9.158,6.782-13.823,10.052
				c-1.669,1.17-2.473,2.501-2.599,4.587c-0.227,3.768-2.939,5.993-6.444,5.643c-3.132-0.314-5.063-2.929-4.601-6.611
				c0.216-1.717-0.215-2.226-1.923-2.209c-1.959,0.019-3.59-0.983-4.824-2.475c-2.721-3.291-1.222-7.477,2.958-8.309
				c0.858-0.171,1.837-0.438,2.612-0.192c2.84,0.905,4.834-0.454,6.947-2.04c4.791-3.6,9.651-7.107,14.57-10.527
				c1.732-1.205,2.774-2.434,2.802-4.729c0.035-3.055,1.382-4.773,3.387-5.271C100.973,84.694,103.443,85.771,104.976,88.025z"/>
		</g>
	</g>
</g>
</svg>
