<?xml version="1.0" encoding="utf-8"?>
<!-- Generator: Adobe Illustrator 16.0.4, SVG Export Plug-In . SVG Version: 6.00 Build 0)  -->
<!DOCTYPE svg PUBLIC "-//W3C//DTD SVG 1.1//EN" "http://www.w3.org/Graphics/SVG/1.1/DTD/svg11.dtd">
<svg version="1.1" id="Layer_2303" xmlns="http://www.w3.org/2000/svg" xmlns:xlink="http://www.w3.org/1999/xlink" x="0px" y="0px"
	 width="128px" height="128px" viewBox="0 0 128 128" enable-background="new 0 0 128 128" xml:space="preserve">
<g id="nO0By6.tif_10_">
	<g>
		<path fill-rule="evenodd" clip-rule="evenodd" d="M65.111,1.487c17.328,0.322,34.408,2.332,50.033,10.366
			c11.732,6.034,11.307,4.46,8.418,18.524c-0.401,1.954-0.518,3.666,0.464,5.426c0.672,1.202,1.245,2.463,1.837,3.708
			c3.482,7.3,3.51,7.401-4.035,9.682c-1.764,0.533-2.063,1.518-2.254,2.932c-1.084,8.073-2.593,16.104-0.893,24.311
			c0.612,2.959,0.559,6.01-1.936,8.439c-1.06,1.035-0.354,2.424-0.105,3.594c1.119,5.309,3.821,9.678,7.644,13.555
			c4.185,4.244,3.796,6.447-1.622,8.48c-7.33,2.754-14.186,6.377-20.914,10.279c-12.805,7.42-26.133,6.861-39.701,2.762
			c-5.397-1.631-11.006-2.887-16.058-5.281c-9.837-4.66-19.92-4.4-30.224-2.949c-4.044,0.568-8.064,0.537-11.848-1.117
			c-4.549-1.992-5.192-4.367-2.242-8.299c3.615-4.82,7.353-9.553,11.119-14.256c1.415-1.764,1.515-3.398,0.745-5.527
			c-3.941-10.887-6.665-22.252-3.512-33.544c2.054-7.352-0.212-10.974-6.017-14.294c-3.213-1.837-3.417-5.301-3.04-8.672
			c0.463-4.106,1.287-8.199,1.368-12.309c0.046-2.439,0.892-3.59,2.901-4.6c9.545-4.802,19.826-7.082,30.249-8.685
			C45.286,2.506,55.146,1.349,65.111,1.487z M3.092,31.116c-0.378,0.744-0.538,1.483,0.034,2.213
			c0.254,0.788,0.774,1.307,1.562,1.56c7.84,10.1,17.075,17.325,30.938,15.177c1.482-0.231,3.007-0.182,4.514-0.246
			c14.027-0.587,28.056-1.168,42.939-1.787c-13.48-4.019-26.273-7.454-40.202-8.642c1.883-1.541,3.316-1.077,4.578-0.964
			c11.765,1.061,23.184,3.845,34.475,7.193c8.771,2.604,17.528,5.279,26.544,6.929c2.523,0.462,5.502,1.667,7.102-2.06
			c-2.506-0.92-5.095,0.339-7.878-0.942c6.384-1.524,12.789-1.096,18.483-3.885c-0.194-2.427-1.623-4.096-2.694-5.894
			c-2.017-3.384-3.328-6.319-1.47-10.709c3.23-7.638,1.545-10.836-5.804-14.751c-9.327-4.971-19.44-7.272-29.8-8.703
			c-15.395-2.127-30.811-1.883-46.188,0.08C29.265,7.086,18.426,9.154,8.249,13.734c-1.22,0.549-3.085,0.799-3.224,2.284
			c-0.47,5.079-2.548,9.945-1.981,15.148L3.092,31.116z"/>
		<path fill-rule="evenodd" clip-rule="evenodd" d="M59.718,115.625c1.505-0.152,2.764,0.432,3.929,1.301
			c-0.123,0.146-0.246,0.295-0.368,0.443c-1.319-0.307-2.575-0.74-3.509-1.803L59.718,115.625z"/>
		<path fill-rule="evenodd" clip-rule="evenodd" d="M58.184,114.922c0.571,0.107,1.291-0.115,1.534,0.703l0.052-0.059
			c-0.509-0.232-1.018-0.467-1.527-0.699L58.184,114.922z"/>
		<polygon fill-rule="evenodd" clip-rule="evenodd" points="58.242,114.867 58.062,114.68 58.184,114.92 		"/>
		<path fill-rule="evenodd" clip-rule="evenodd" d="M23.422,99.818l0.044-0.049L23.422,99.818z"/>
		<polygon fill-rule="evenodd" clip-rule="evenodd" points="19.68,58.274 19.788,58.361 19.71,58.262 		"/>
		<path fill-rule="evenodd" clip-rule="evenodd" d="M11.468,24.343c1.379,1.164,2.645,2.416,4.123,3.46
			c0.359,0.253,0.945,1.031,1.381,0.861c0.623-0.243,0.317-1.268,0.43-1.748c0.068-0.289,0.212-0.369,0.256-0.697
			c0.04-0.302-0.097-0.68-0.017-0.971c0.106-0.381,0.477-0.879,0.661-1.232c0.523-1,0.678-2.106,1.311-3.032
			c1.762-2.578,4.063-4.995,6.281-7.195c2.893-2.869,6.006-4.48,10.34-4.235c6.903,0.395,13.729,0.534,20.368,2.988
			c4.119,1.521,8.537,0.469,12.61-0.731c7.821-2.301,14.279-0.643,19.744,5.441c2.27,2.526,4.465,5.122,8.801,4.226
			c1.946-0.402,3.789,0.997,5.142,2.219c0.604,0.546,1.055,1.145,1.573,1.757c0.55,0.649,1.411,0.986,1.889,1.701
			c0.348,0.521,0.279,0.908,0.404,1.454c0.049,0.217,0.212,0.235,0.264,0.452c0.055,0.234-0.08,0.505-0.025,0.739
			c0.052,0.216,0.211,0.236,0.264,0.452c0.049,0.202-0.011,0.517-0.013,0.727c-0.005,0.551,0.061,0.919,0.187,1.429
			c0.161,0.656,0.186,1.572,1.175,1.288c0.634-0.182,1.116-1.038,1.726-1.361c2.057-1.092,3.992-2.316,5.769-3.829
			c-1.716,4.639-7.202,7.738-13.911,8.821c-10.096,1.63-20.037-0.176-30.021-1.065c-11.941-1.062-23.799-2.762-35.862-2.803
			c-7.812-0.025-15.771-1.138-22.987-4.785c-2.688-1.355-3.814-4.035-5.607-6.826c2.037-0.097,2.867,0.783,3.686,1.69l0.044-0.021
			c-0.01,0.258-0.02,0.513-0.031,0.771L11.468,24.343z"/>
		<path fill-rule="evenodd" clip-rule="evenodd" d="M3.044,31.167c0.156,0.055,0.313,0.112,0.37,0.133
			c-0.044-0.026-0.183-0.104-0.321-0.184L3.044,31.167z"/>
		<path fill-rule="evenodd" clip-rule="evenodd" d="M4.631,34.929c0-0.285,0-0.569,0-0.854C4.631,34.36,4.631,34.644,4.631,34.929z"
			/>
		<path fill-rule="evenodd" clip-rule="evenodd" d="M4.683,34.163c-0.277-0.276-0.554-0.554-0.831-0.831
			C4.129,33.609,4.406,33.886,4.683,34.163z"/>
		<path fill-rule="evenodd" clip-rule="evenodd" d="M3.944,33.382c-0.287,0-0.573,0.001-0.859,0
			C3.372,33.382,3.658,33.382,3.944,33.382z"/>
		<path fill-rule="evenodd" clip-rule="evenodd" d="M11.408,23.54c0.02,0.27,0.038,0.535,0.06,0.803l-0.047-0.054
			c0.011-0.258,0.021-0.513,0.031-0.771L11.408,23.54z"/>
		<path fill-rule="evenodd" clip-rule="evenodd" d="M109.521,22.841c0.037-0.09,0.061-0.189,0.119-0.263
			c0.031-0.039,0.127-0.024,0.189-0.035c-0.117,0.081-0.24,0.162-0.361,0.244L109.521,22.841z"/>
		<path fill-rule="evenodd" clip-rule="evenodd" d="M18.228,17.557l-0.046-0.056L18.228,17.557z"/>
		<path fill-rule="evenodd" clip-rule="evenodd" d="M22.678,25.069l0.049,0.042L22.678,25.069z"/>
		<path fill-rule="evenodd" clip-rule="evenodd" d="M23.51,24.358l-0.04-0.042L23.51,24.358z"/>
		<path fill-rule="evenodd" clip-rule="evenodd" d="M58.945,15.969l0.044,0.04L58.945,15.969z"/>
	</g>
</g>
</svg>
