<?xml version="1.0" encoding="utf-8"?>
<!-- Generator: Adobe Illustrator 16.0.4, SVG Export Plug-In . SVG Version: 6.00 Build 0)  -->
<!DOCTYPE svg PUBLIC "-//W3C//DTD SVG 1.1//EN" "http://www.w3.org/Graphics/SVG/1.1/DTD/svg11.dtd">
<svg version="1.1" id="Layer_2307" xmlns="http://www.w3.org/2000/svg" xmlns:xlink="http://www.w3.org/1999/xlink" x="0px" y="0px"
	 width="128px" height="128px" viewBox="0 0 128 128" enable-background="new 0 0 128 128" xml:space="preserve">
<g>
	<path fill-rule="evenodd" clip-rule="evenodd" d="M37.327,83.002c0.941,5.396-1.311,10.005-4.17,14.264
		c-6.213,9.254-17.154,10.248-25.021,2.352C1.157,92.612-0.81,83.973,0.592,74.455c0.636-4.316,2.187-8.351,5.041-11.781
		c6.667-8.013,17.006-8.294,24.333-0.873c4.705,4.766,7.012,10.415,7.351,16.983C37.388,80.17,37.327,81.564,37.327,83.002z
		 M17.95,99.245c0.025,0.424,0.112,0.524,0.257,0.301c-0.117-0.071-0.233-0.142-0.35-0.213c-1.573-1.666-3.568-2.839-4.998-4.717
		c-6.278-8.25-7.923-22.881,1.374-32.138c-4.205,1.091-6.978,4.323-8.293,9.312c-1.91,7.245-0.873,14.189,2.508,20.67
		C10.355,96.116,12.784,99.801,17.95,99.245z M22.359,92.391c0.138-2.134,0.327-3.965-1.794-4.736
		c-1.335,0.291-1.985,1.057-2.312,2.331C18.727,91.846,19.163,93.857,22.359,92.391z"/>
	<path fill-rule="evenodd" clip-rule="evenodd" d="M61.027,69.441c6.87-0.281,11.552,3.295,14.895,8.642
		c5.802,9.28,6.658,19.129,2.063,29.158c-2.125,4.64-5.575,8.18-10.62,9.761c-4.762,1.492-9.198,0.536-13.204-2.274
		c-6.052-4.245-9.207-10.312-10.289-17.47c-0.845-5.587-0.182-11.061,1.645-16.453c1.592-4.697,4.836-7.818,8.889-10.268
		C56.454,69.3,58.749,68.954,61.027,69.441z M61.804,112.389c-7.292-4.904-9.825-11.271-10.464-18.7
		c-0.63-7.32,0.846-13.858,7.525-19.309c-3.35,0.857-5.276,2.048-6.642,4.022c-5.651,8.168-4.919,22.459,1.548,30.062
		C55.604,110.619,57.747,112.276,61.804,112.389z M64.641,105.864c1.959-3.753,1.894-3.966-1.415-5.478
		C60.795,103.58,60.957,104.336,64.641,105.864z"/>
	<path fill-rule="evenodd" clip-rule="evenodd" d="M64.594,41.502c0.104,5.869-1.468,11.588-5.542,16.43
		c-6.259,7.438-15.16,8.159-22.553,1.908c-10.292-8.701-12.411-26.193-4.503-37.19c6.056-8.423,16.64-9.568,24.215-2.435
		C62.185,25.842,64.666,33.005,64.594,41.502z M42.788,20.952c-5.428,1.069-7.58,4.222-8.956,7.903
		c-3.056,8.167-2.131,16.119,2.151,23.608c2.136,3.736,5.204,6.444,10.083,6.436C33.062,48.151,31.373,31.699,42.788,20.952z
		 M47.866,52.473c2.616-3.107,2.513-3.861-0.594-5.883C44.971,49.487,44.994,49.877,47.866,52.473z"/>
	<path fill-rule="evenodd" clip-rule="evenodd" d="M88.599,120.763c-0.224-0.71,0.228-1.146,0.648-1.591
		c7.175-7.555,8.462-16.958,8.149-26.745c-0.157-4.948-1.367-9.837-2.798-14.534c-1.816-5.969-5.086-11.239-10.122-15.197
		c-0.607-0.477-1.213-0.957-1.8-1.457c-0.094-0.08-0.09-0.273-0.132-0.415c9.694-2.63,15.985-0.85,23.241,6.566
		c0.744,0.761,1.206,1.824,2.317,2.202l-0.111-0.124c2.086,5.928,4.849,11.621,5.385,18.057c0.505,6.06,0.607,12.084-1.582,17.798
		c-4.519,11.787-9.365,15.032-23.269,15.363L88.599,120.763z M108.536,106.986c-3.747,0.634-7.785,0.404-11.115,2.8
		C101.311,109.68,105.179,109.519,108.536,106.986z M99.306,89.158c3.937,0.319,7.793-0.12,11.534-1.514
		C106.945,87.66,103.01,87.134,99.306,89.158z M93.961,69.435c5.535,1.504,6.806,1.454,9.673-0.263
		C100.166,68.498,97.062,68.476,93.961,69.435z"/>
	<path fill-rule="evenodd" clip-rule="evenodd" d="M92.786,57.545c-4.758,0.33-9.348,0.649-14.033,0.974
		c4.648-19.662,3.9-37.673-13.27-52.178c4.627,0,8.622-0.13,12.605,0.047c2.551,0.112,4.647,1.625,6.625,3.124
		c5.22,3.954,8.755,9.068,10.623,15.382c2.511,8.486,3.127,16.997,0.729,25.601C95.4,52.883,94.53,55.199,92.786,57.545z
		 M83.293,34.969c3.445,1.213,8.677,0.62,11.902-1.123C90.854,32.918,87.125,34.529,83.293,34.969z M80.768,55.717
		c4.833,0.931,9.594-0.246,11.765-2.894C88.578,53.822,84.841,54.071,80.768,55.717z M77.887,16.158
		c3.397,0.756,6.792,0.698,10.185,0.024C84.672,14.703,81.277,14.612,77.887,16.158z"/>
	<path fill-rule="evenodd" clip-rule="evenodd" d="M76.07,74.508c1.624-1.682,3.565-1.016,4.839-2.565
		c-2.503-1.603-4.616,0.991-7.783,0.077c-3.341-3.366-8.312-5.029-14.224-4.326c5.181-4.863,11.703-5.66,17.57-2.124
		c6.377,3.845,10.198,9.486,12.166,16.726c2.208,8.125,2.408,16.088-0.097,24.112c-1.22,3.904-3.176,7.367-6.289,10.102
		c-4.105,3.604-8.235,6.232-16.563,2.748c5.699-1.103,9.643-4.346,12.545-8.104c2.319-0.913,4.476,1.013,6.204-0.93
		c-1.158-1.44-3.168-0.094-4.425-2.062c2.417-5.012,3.154-10.763,3.146-16.12c1.281-1.663,3.073-0.669,4.116-1.9
		c-1.378-0.843-2.81,0.364-4.421-0.56c-1.184-2.283-1.157-5.303-2.476-7.902C79.13,79.22,77.681,76.883,76.07,74.508z"/>
	<path fill-rule="evenodd" clip-rule="evenodd" d="M67.8,61.133c-3.89,1.48-7.924,3.028-11.726,5.096
		c-1.766,0.962-3.465,0.701-6.084-0.339c5.167-1.962,9.275-4.19,11.616-7.923c2.406-1.366,5.068,0.527,6.903-1.673
		c-1.456-1.1-3.147-0.192-4.788-1.083c2.224-5.365,3.505-10.988,3.387-16.712c1.452-1.154,3.321-0.388,4.638-1.846
		c-1.325-1.692-3.226,0.15-5.087-1.283c-1.28-4.826-3.141-10.171-6.828-14.474c1.019-1.832,3.294-1.072,4.654-2.648
		c-2.452-1.501-4.339,0.712-7.137,0.068c-1.735-0.879-3.864-2.697-6.523-3.64c-2.55-0.905-5.158-0.734-7.976-0.889
		c7.939-5.985,14.145-4.984,20.867,0.49c4.063,3.308,6.515,7.795,8.162,12.713c2.721,8.116,3.108,16.345,0.87,24.626
		C71.819,55.058,70.444,58.332,67.8,61.133z"/>
	<path fill-rule="evenodd" clip-rule="evenodd" d="M73.326,61.65c2.896-1.091,5.614-0.941,8.185,0.849
		c4.1,2.854,7.394,6.242,9.727,10.872c5.044,10.008,5.841,20.379,3.854,31.14c-1.322,7.162-4.848,12.979-11.036,16.93
		c-1.741,0.406-3.378,0.291-5.773,0.016c10.421-6.011,13.512-15.378,13.736-25.831c0.207-9.591-2.269-18.626-8.325-26.346
		c-2.031-2.587-4.758-4.396-7.714-5.853C75.073,62.981,73.735,63.167,73.326,61.65z"/>
	<path fill-rule="evenodd" clip-rule="evenodd" d="M111.602,63.283c4.957,1.418,7.85,4.78,10.85,8.127
		c-1.137,1.47-2.44-0.437-3.638,0.724c1.745,0.896,3.426,1.758,5.189,2.663c1.727,3.103,2.89,6.39,2.95,9.931
		c-1.245,1.392-3.477,0.029-4.6,1.82c1.467,1.492,3.423,0.032,5.146,1.371c0.974,3.44-0.449,6.947-0.995,10.274
		c-1.372,2.049-4.104,2.06-5.068,4.186c1.08,1.23,2.007-0.648,3.43,0.339c-1.438,3.497-3.742,6.335-7.687,9.084
		C123.229,94.372,121.377,78.526,111.602,63.283z"/>
	<path fill-rule="evenodd" clip-rule="evenodd" d="M56.89,8.618c2.553-1.813,4.825-1.71,7.189-0.481
		c3.213,1.669,5.901,3.952,8.078,6.836c7.936,10.508,10.722,31.325,4.032,43.755c-1.247,1.158-3.026,0.468-4.236,1.465
		c-0.953-0.948-0.197-1.603,0.078-2.16c4.868-9.837,4.803-20.015,1.823-30.261C71.283,18.93,66.386,11.885,56.89,8.618z"/>
	<path fill-rule="evenodd" clip-rule="evenodd" d="M101.623,57.547c-0.447-1.137,0.232-2.06,0.543-3.072
		c3.94-12.871,2.941-25.406-2.47-37.688c-1.041-2.361-3.106-4.14-3.617-6.76L96.006,10.1c4.569,0.943,7.396,4.074,9.936,7.633
		c-1.122,1.045-2.199-0.669-3.379,0.501c0.995,2,3.33,1.565,5.125,2.64c1.949,2.943,2.787,6.447,3.196,9.951
		c-1.476,1.287-3.427,0.43-4.581,2.131c1.261,1.67,3.241-0.406,4.905,1.25c1.144,3.339-0.494,6.992-0.675,10.105
		c-1.614,2.222-4.015,2.338-5.104,4.083c1.114,1.397,2.05-0.178,2.997,0.126c1.161,1.15-2.955,6.48-6.878,8.942L101.623,57.547z"/>
	<path fill-rule="evenodd" clip-rule="evenodd" d="M101.552,61.28c1.074,0.019,2.151,0.008,3.222,0.067
		c0.764,0.043,1.521,0.179,2.128,0.256c13.7,10.279,16.067,39.955,6.824,52.173c-1.634,0.888-3.441,2.03-5.645,2.251l0.077,0.074
		c-0.136-1.051,0.666-1.673,1.146-2.425c8.245-12.908,7.414-26.299,1.98-39.852c-0.651-1.624-1.643-3.326-3.293-4.356l0.111,0.124
		c-1.175-3.556-4.613-5.365-6.471-8.395L101.552,61.28z"/>
	<path fill-rule="evenodd" clip-rule="evenodd" d="M85.322,7.488c2.232-0.579,4.012,0.815,5.814,0.82
		c11.66,8.308,16.019,36.103,7.783,49.536c-1.104,0.768-2.265,0.55-3.617-0.039C101.962,39.22,100.757,22.136,85.322,7.488z"/>
	<path fill-rule="evenodd" clip-rule="evenodd" d="M44.499,66.823c0.798,2.729,1.569,5.365,2.38,8.14
		c-2.063,1.929-4.482,1.888-7.069,1.943c-1.583-5.388-3.618-10.5-7.034-14.784c0.917-1.892,2.273-1.625,3.13-0.691
		C38.186,63.912,41.302,64.957,44.499,66.823z"/>
	<path fill-rule="evenodd" clip-rule="evenodd" d="M22.508,106.343c5.833-1.075,9.436-4.061,12.438-7.921
		c2.376-0.265,4.629-0.229,6.883,0.228C40.863,105.834,31.31,109.953,22.508,106.343z"/>
	<path fill-rule="evenodd" clip-rule="evenodd" d="M32.427,59.195c-5.51-1.679-10.195-5.777-16.932-4.136
		c3.417-2.962,7.521-4.555,12.028-4.884C29.032,53.057,30.681,55.961,32.427,59.195z"/>
	<path fill-rule="evenodd" clip-rule="evenodd" d="M36.682,96.231c1.798-5.77,3.639-11.158,3.271-16.81
		c1.369-0.877,2.495-1.084,4.084-0.52c-1.681,5.589-3.23,11.201-2.489,17.088C39.982,96.96,38.496,96.595,36.682,96.231z"/>
	<path fill-rule="evenodd" clip-rule="evenodd" d="M42.392,102.795c1.635,0.736,1.617,1.752,1.965,2.56
		c-0.548,1.57-1.933,2.273-3.24,3.144c-1.588,0.336-3.22,0.561-5.285-0.106C38.216,106.473,40.766,105.157,42.392,102.795z"/>
	<path fill-rule="evenodd" clip-rule="evenodd" d="M51.313,69.067c-0.527,1.662-1.515,2.72-3.362,3.35
		c-0.363-1.494-0.701-2.886-1.1-4.525C48.72,67.602,50.062,68.054,51.313,69.067z"/>
	<polygon fill-rule="evenodd" clip-rule="evenodd" points="96.079,10.028 95.798,9.916 96.006,10.1 	"/>
	<path fill-rule="evenodd" clip-rule="evenodd" d="M101.549,57.463c-0.14,0.151-0.278,0.302-0.445,0.482
		c-0.033-0.375,0.141-0.488,0.52-0.398L101.549,57.463z"/>
	<polygon fill-rule="evenodd" clip-rule="evenodd" points="101.633,61.197 101.353,61.008 101.552,61.28 	"/>
	<polygon fill-rule="evenodd" clip-rule="evenodd" points="45.056,108.08 45.351,107.977 45.317,108.253 	"/>
	<polygon fill-rule="evenodd" clip-rule="evenodd" points="108.081,116.026 107.943,116.198 108.158,116.101 	"/>
	<polygon fill-rule="evenodd" clip-rule="evenodd" points="88.526,120.686 88.293,120.93 88.599,120.763 	"/>
</g>
</svg>
