<?xml version="1.0" encoding="utf-8"?>
<!-- Generator: Adobe Illustrator 16.0.4, SVG Export Plug-In . SVG Version: 6.00 Build 0)  -->
<!DOCTYPE svg PUBLIC "-//W3C//DTD SVG 1.1//EN" "http://www.w3.org/Graphics/SVG/1.1/DTD/svg11.dtd">
<svg version="1.1" id="Layer_2402" xmlns="http://www.w3.org/2000/svg" xmlns:xlink="http://www.w3.org/1999/xlink" x="0px" y="0px"
	 width="128px" height="128px" viewBox="0 0 128 128" enable-background="new 0 0 128 128" xml:space="preserve">
<g id="_x37_kOBOu.tif">
	<g>
		<path fill-rule="evenodd" clip-rule="evenodd" d="M0.258,85.117c9.614-0.003,27.113-0.007,36.728-0.007
			c16.19-0.002,32.38-0.001,48.571,0c11.445,0.002,22.892-0.008,34.337,0.012c4.707,0.009,7.822,3.147,7.84,7.844
			c0.011,2.955,0.013,5.911-0.001,8.865c-0.023,4.819-3.181,8.016-7.976,8.018c-19.77,0.013-39.539,0.008-59.309,0.008
			c-17.356,0-42.76-0.005-60.116,0L0.258,85.117z M78.656,89.437c-10.157,0-20.316-0.001-30.474,0.002
			c-1.315,0.001-1.327,0.013-1.328,1.303c-0.003,4.455-0.003,8.91,0.008,13.364c0.002,1.188,0.022,1.19,1.169,1.217
			c0.292,0.006,0.583,0.001,0.874,0.001c11.074,0,22.147-0.001,33.22-0.001c8.491,0,16.985,0.002,25.477,0
			c1.225-0.001,1.225-0.009,0.902-1.113c-0.46-1.568-0.214-2.057,1.34-2.652c1.349-0.518,1.427-1.02,0.29-1.981
			c-1.017-0.859-2.052-1.698-3.068-2.558c-0.729-0.615-0.719-0.698,0.086-1.256c1.266-0.877,2.533-1.751,3.806-2.618
			c0.438-0.298,0.837-0.652,0.659-1.218c-0.263-0.839-0.754-1.582-1.315-2.244c-0.391-0.461-1.024-0.236-1.548-0.236
			C98.722,89.434,88.688,89.437,78.656,89.437z"/>
		<path fill-rule="evenodd" clip-rule="evenodd" d="M112.493,83.165c-0.125,0-0.249,0.001-0.374,0
			c-1.759-0.01-1.697-0.004-1.519-1.796c0.304-3.075-0.787-5.664-3.066-7.694c-2.651-2.362-5.794-3.88-9.149-4.97
			c-4.259-1.385-8.655-1.974-13.105-2.299c-4.892-0.357-9.8-0.472-14.68-0.982c-5.394-0.565-10.705-1.514-15.705-3.74
			c-3.146-1.4-5.803-3.312-7.54-6.435c-2.375-4.269-1.968-9.545,2.862-12.533c1.61-0.997,3.375-1.6,5.167-2.152
			c1.826-0.562,3.689-1.023,5.387-1.948c0.986-0.536,1.744-1.272,2.169-2.322c0.628-1.548,0.141-2.705-1.416-3.296
			c-0.502-0.191-1.027-0.342-1.553-0.459c-6.138-1.356-7.66-7.85-4.148-12.581c0.321-0.433,0.672-0.857,1.074-1.212
			c0.932-0.824,2.064-0.792,2.925,0.029c0.828,0.789,0.892,1.963,0.094,2.914c-0.593,0.708-1.202,1.41-1.442,2.311
			c-0.686,2.56,0.207,3.728,2.084,4.341c0.987,0.322,1.995,0.595,2.957,0.98c2.986,1.194,4.48,4.007,3.82,7.135
			c-0.587,2.779-2.195,4.791-4.65,6.177c-1.798,1.014-3.775,1.515-5.735,2.073c-1.482,0.422-2.949,0.885-4.29,1.671
			c-2.82,1.652-3.441,4.375-1.621,7.118c0.897,1.353,2.168,2.286,3.539,3.098c3.599,2.131,7.541,3.262,11.627,3.952
			c3.695,0.624,7.426,0.88,11.166,1.06c6.144,0.297,12.295,0.535,18.321,1.964c5.327,1.263,10.317,3.249,14.564,6.802
			c2.382,1.991,4.188,4.399,4.877,7.498c0.29,1.31,0.32,2.642-0.064,3.95c-0.385,1.302-0.447,1.341-1.826,1.354
			c-0.25,0.003-0.5,0.001-0.75,0.001C112.493,83.17,112.493,83.167,112.493,83.165z"/>
		<path fill-rule="evenodd" clip-rule="evenodd" d="M120.415,83.159c-0.666,0-1.331,0.008-1.997-0.002
			c-0.456-0.008-0.587-0.251-0.418-0.659c0.096-0.23,0.22-0.448,0.326-0.674c2.022-4.368,3.436-8.914,4.037-13.702
			c0.685-5.445-2.227-11.354-6.985-14.082c-1.582-0.908-3.309-1.335-5.127-1.384c-1.541-0.041-3.082-0.122-4.578-0.5
			c-2.444-0.618-4.421-1.908-5.605-4.211c-1.075-2.091-0.713-4.034,0.723-5.811c1.046-1.297,2.447-2.099,3.979-2.708
			c2.56-1.018,5.056-2.17,7.136-4.031c1.575-1.409,2.62-3.077,2.582-5.315c-0.026-1.503-0.497-2.74-1.553-3.809
			c-0.805-0.814-0.896-1.626-0.421-2.495c0.472-0.863,1.334-1.298,2.288-1.188c0.581,0.067,0.979,0.417,1.374,0.794
			c2.724,2.594,3.484,7.232,1.77,10.884c-1.127,2.4-2.884,4.252-5.056,5.738c-1.76,1.204-3.66,2.141-5.621,2.962
			c-0.844,0.354-1.701,0.689-2.47,1.193c-1.253,0.823-1.325,1.844-0.21,2.861c1.193,1.087,2.703,1.208,4.202,1.295
			c2.245,0.132,4.488,0.26,6.613,1.096c4.365,1.716,7.412,4.833,9.437,8.992c1.979,4.064,2.275,8.378,1.77,12.795
			c-0.421,3.67-1.504,7.14-2.968,10.522c-0.494,1.146-1.146,1.639-2.354,1.45c-0.285-0.045-0.582-0.007-0.874-0.007
			C120.415,83.163,120.415,83.161,120.415,83.159z"/>
	</g>
</g>
</svg>
