<?xml version="1.0" encoding="utf-8"?>
<!-- Generator: Adobe Illustrator 16.0.4, SVG Export Plug-In . SVG Version: 6.00 Build 0)  -->
<!DOCTYPE svg PUBLIC "-//W3C//DTD SVG 1.1//EN" "http://www.w3.org/Graphics/SVG/1.1/DTD/svg11.dtd">
<svg version="1.1" id="Layer_2403" xmlns="http://www.w3.org/2000/svg" xmlns:xlink="http://www.w3.org/1999/xlink" x="0px" y="0px"
	 width="128px" height="128px" viewBox="0 0 128 128" enable-background="new 0 0 128 128" xml:space="preserve">
<path fill-rule="evenodd" clip-rule="evenodd" d="M59.896,11.112c2.339-0.001,4.679-0.038,7.017,0.018
	c0.869,0.021,1.216-0.328,1.425-1.116c0.647-2.447-0.195-4.142-2.633-4.976c-0.579-0.198-0.853-0.443-0.912-1.055
	c-0.086-0.91-0.085-1.81-0.02-2.72c0.058-0.772,0.426-0.994,1.155-1.058c3.807-0.333,7.606-0.333,11.414-0.002
	c0.809,0.071,1.196,0.347,1.162,1.172c-0.019,0.432,0.014,0.866,0.031,1.298c0.056,1.272-0.078,2.199-1.664,2.686
	c-2.016,0.619-2.736,3.351-1.731,5.271c0.331,0.634,0.862,0.473,1.349,0.474c4.506,0.011,9.009-0.002,13.514,0.019
	c0.475,0.002,1.215-0.288,1.376,0.252c0.137,0.462-0.526,0.845-0.967,1.086c-0.523,0.286-0.685,0.685-0.776,1.24
	c-0.431,2.61-2.01,4.235-4.478,5.058c-2.247,0.75-4.592,0.823-6.925,0.963c-0.95,0.056-1.904,0.03-2.856,0.054
	c-1.069,0.026-1.568,0.417-1.832,1.446c-0.21,0.818-0.119,1.637,0.081,2.443c0.23,0.924,0.491,1.839,0.718,2.763
	c0.082,0.334,0.216,0.717,0.127,1.019c-0.314,1.076-0.547,2.066,0.726,2.725c0.25,0.13,0.135,0.461-0.017,0.698
	c-0.637,0.997-0.671,2.131-0.712,3.256c-0.063,1.78,0.024,3.561,0.449,5.291c0.252,1.024,0.168,1.779-0.873,2.257
	c-0.313,0.144-0.605,0.358-0.358,0.811c0.744,1.357,0.388,2.792,0.231,4.199c-0.114,1.036-0.208,2.068-0.141,3.109
	c0.065,1.009,0.498,1.831,1.365,2.383c0.738,0.47,1.181,0.392,1.612-0.363c0.299-0.521,0.472-1.114,0.727-1.663
	c0.729-1.564,2.205-1.838,3.456-0.643c0.55,0.525,0.895,1.161,0.952,1.935c0.067,0.881-0.276,1.513-1.107,1.851
	c-0.201,0.081-0.407,0.151-0.615,0.209c-0.664,0.182-1.48,0.133-1.938,0.651c-0.561,0.633,0.232,1.249,0.333,1.896
	c0.281,1.794-0.098,3.438-0.881,5.024c-0.19,0.387-0.449,0.739-0.664,1.115c-0.504,0.884-0.502,0.919,0.497,1.182
	c0.554,0.146,1.074,0.352,1.528,0.683c1.13,0.829,1.291,1.737,0.161,2.52c-1.124,0.779-1.183,1.604-1.051,2.803
	c0.21,1.932,0.237,3.891-0.141,5.823c-0.082,0.425-0.087,0.972-0.515,1.14c-1.093,0.428-0.996,1.213-0.83,2.115
	c0.103,0.549,0.124,1.154-0.086,1.672c-0.364,0.896-0.144,1.521,0.554,2.164c0.864,0.798,1.49,1.801,1.896,2.916
	c0.169,0.466,0.424,0.795,0.871,1.062c4.746,2.846,6.953,7.983,5.822,13.479c-0.261,1.264-0.264,1.281,1.062,1.539
	c3.186,0.622,6.4,1.096,9.551,1.887c2.571,0.646,5.077,1.476,7.248,3.075c2.323,1.712,3.339,3.984,3.017,6.883
	c-0.173,1.556-0.988,2.644-2.19,3.515c-1.918,1.391-4.083,2.26-6.323,2.961c-6.185,1.938-12.523,3.012-18.985,3.456
	c-6.579,0.453-13.074,0.009-19.449-1.671c-5.846-1.541-11.041-4.498-16.067-7.771c-1.161-0.756-2.324-1.511-3.457-2.308
	c-0.572-0.402-1.089-0.411-1.686-0.086c-0.766,0.417-1.506,0.856-2.077,1.531c-1.495,1.767-1.281,3.94,0.544,5.345
	c1.597,1.229,3.428,2.003,5.294,2.718c3.309,1.265,6.784,1.725,10.262,2.177c4.851,0.631,9.704,1.238,14.595,1.482
	c0.966,0.049,1.95-0.198,2.888-0.284c2.053-0.189,4.061,0.601,5.926,1.514c0.498,0.241,0.187,1.434-0.407,1.587
	c-1.724,0.442-3.59,0.966-5.245,0.654c-2.995-0.562-6.002-0.245-8.98-0.639c-2.959-0.393-5.944-0.598-8.904-0.989
	c-4.543-0.602-9.13-1.043-13.411-2.879c-2.089-0.896-3.995-2.071-5.548-3.761c-2.055-2.236-2.303-4.785-0.71-7.384
	c0.902-1.472,2.143-2.602,3.606-3.489c0.526-0.318,0.681-0.563,0.138-1.047c-3.836-3.415-6.362-7.745-8.415-12.362
	c-3.986-8.959-6.071-18.375-6.566-28.161c-0.295-5.833,0.073-11.599,1.588-17.255c1.237-4.626,3.205-8.88,6.674-12.292
	c3.938-3.874,8.628-5.465,14.124-4.502c1.892,0.332,3.451,1.322,4.986,2.398c1.406,0.987,2.595,2.242,4.228,2.972
	c0.929,0.416,1.571,1.456,2.367,2.189c1.75,1.611,3.64,3.075,5.21,4.88c0.195,0.225,0.4,0.544,0.744,0.384
	c0.833-0.388,1.082,0.177,1.509,0.721c1.338,1.7,2.75,3.344,4.175,4.972c0.562,0.643,1.198,0.569,1.761-0.106
	c0.551-0.662,0.73-1.454,0.755-2.297c0.04-1.394-0.282-2.755-0.357-4.138c-0.024-0.431-0.143-0.897-0.023-1.288
	c0.34-1.11,0.771-2.128-0.707-2.84c-0.478-0.229-0.236-0.958-0.124-1.459c0.449-2.001,0.555-4.027,0.459-6.068
	c-0.04-0.828-0.125-1.673-0.573-2.375c-0.403-0.635-0.276-1.032,0.306-1.38c0.622-0.372,0.779-0.822,0.425-1.503
	c-0.29-0.557-0.192-1.185-0.039-1.782c0.248-0.964,0.491-1.928,0.756-2.888c0.199-0.723,0.254-1.456,0.115-2.187
	c-0.218-1.143-0.789-1.612-1.967-1.618c-2.515-0.013-5.023-0.11-7.513-0.489c-1.25-0.19-2.456-0.526-3.571-1.133
	c-1.437-0.782-2.459-1.939-2.86-3.531c-0.268-1.061-0.474-2.083-1.585-2.629c-0.229-0.112-0.562-0.386-0.391-0.726
	c0.124-0.247,0.465-0.156,0.715-0.156C55.045,11.111,57.471,11.113,59.896,11.112z M24.689,63.262
	c-0.035,1.952,0.047,4.112,0.206,6.274c0.615,8.36,2.351,16.45,5.844,24.103c2.122,4.647,4.869,8.875,8.637,12.392
	c0.626,0.585,1.114,0.682,1.927,0.312c5.006-2.28,10.308-3.516,15.736-4.251c1.186-0.16,1.189-0.138,0.9-1.287
	c-1.635-6.502,0.096-11.022,5.611-14.631c0.261-0.17,0.479-0.342,0.585-0.659c0.474-1.43,1.334-2.614,2.407-3.65
	c0.344-0.331,0.505-0.66,0.325-1.148c-0.354-0.956-0.395-1.941-0.175-2.94c0.102-0.454,0.075-0.893-0.421-1.103
	c-0.929-0.391-0.988-1.234-1.107-2.047c-0.277-1.898-0.254-3.808-0.002-5.698c0.139-1.047,0.057-1.718-1.039-2.271
	c-1.25-0.633-1.109-1.964,0.144-2.625c0.534-0.279,1.082-0.564,1.658-0.728c0.685-0.193,0.766-0.343,0.356-1.009
	c-1.483-2.405-2.333-4.937-1.015-7.739c0.224-0.476,0.136-0.965-0.386-1.223c-1.902-0.937-3.576-2.303-5.622-2.955
	c-0.548-0.175-1.011-0.385-0.735-1.082c0.216-0.542-0.13-0.783-0.476-1.064c-3.115-2.536-6.093-5.169-8.723-8.268
	c-1.898-2.235-4.745-3.505-7.757-3.856c-3.398-0.396-6.286,0.868-8.727,3.203c-1.548,1.48-2.78,3.202-3.783,5.087
	C25.957,50.227,24.694,56.49,24.689,63.262z M71.952,119.865c6.879-0.003,11.98-0.691,17.064-1.528
	c3.46-0.571,6.899-1.252,10.156-2.617c1.245-0.522,2.432-1.145,3.358-2.161c1.006-1.102,1.11-2.449,0.29-3.688
	c-0.463-0.699-1.091-1.228-1.794-1.668c-1.146-0.719-2.388-1.215-3.674-1.613c-3.955-1.222-8.04-1.68-12.136-2.049
	c-1.776-0.157-2.74,0.792-2.845,2.605c-0.054,0.908,0.418,1.55,0.913,2.219c1.264,1.702,1.086,3.279-0.511,4.679
	c-0.861,0.754-1.878,1.239-2.957,1.584c-4.472,1.434-9.019,1.498-13.601,0.677c-1.801-0.322-3.536-0.851-5.055-1.925
	c-1.708-1.206-2.17-3.153-0.953-4.729c0.599-0.775,0.868-1.686,0.781-2.683c-0.121-1.402-0.424-1.693-1.84-1.694
	c-4.876-0.005-9.502,1.233-14.047,2.855c-0.686,0.245-1.85,0.364-1.901,0.875c-0.066,0.672,0.96,1.08,1.575,1.525
	C53.394,116.77,62.984,119.997,71.952,119.865z"/>
</svg>
