<?xml version="1.0" encoding="utf-8"?>
<!-- Generator: Adobe Illustrator 16.0.4, SVG Export Plug-In . SVG Version: 6.00 Build 0)  -->
<!DOCTYPE svg PUBLIC "-//W3C//DTD SVG 1.1//EN" "http://www.w3.org/Graphics/SVG/1.1/DTD/svg11.dtd">
<svg version="1.1" id="Layer_2504" xmlns="http://www.w3.org/2000/svg" xmlns:xlink="http://www.w3.org/1999/xlink" x="0px" y="0px"
	 width="128px" height="128px" viewBox="0 0 128 128" enable-background="new 0 0 128 128" xml:space="preserve">
<path fill-rule="evenodd" clip-rule="evenodd" d="M7.085,74.984c-0.573-1.125-5.686-9.977-4.401-9.98
	c4.046-0.012,8.092-0.021,12.138,0.004c1.861,0.013,2.803,1.395,3.612,2.753c2.986,5.017,5.835,10.116,8.881,15.095
	c0.83,1.355,0.854,2.43,0.118,3.723c-2.046,3.594-4.022,7.226-6.093,10.805c-0.754,1.305-1.136,0.066-1.411-0.396
	c-2.42-4.054-4.801-8.132-7.18-12.21C10.849,81.52,8.96,78.256,7.085,74.984L5.868,76.27c4.426,7.482,8.923,14.924,13.261,22.458
	c0.897,1.559,2.251,1.844,3.613,2.053c1.232,0.188,4.805,0.257,5.463,0.176c2.229-0.273,4.577-0.46,6.705-0.266
	c4.124,0.378,8.23,0.385,12.347,0.453c1.937,0.032,3.877-0.134,5.817-0.164l5.083,0.179l-0.062-0.049
	c0.306,0.01,0.609,0.005,0.906-0.039c6.288-0.916,12.616,0.015,18.927-0.551c4.002-0.359,8.04,0.361,12.146,0.117
	c4.913-0.292,9.925-0.604,14.87-0.162c2.941,0.265,4.406-1.09,5.695-3.462c5.521-10.157,12.151-19.679,17.262-30.079
	c0.824-1.677,1.152-3.1,0.168-4.797c-2.327-4.012-4.508-8.109-6.842-12.116c-3.928-6.747-8.001-13.41-11.856-20.197
	c-1.261-2.219-2.843-2.997-5.345-2.971c-10.18,0.109-20.363,0.045-30.544,0.045c-16.6,0-33.2,0.059-49.8-0.056
	c-2.835-0.02-4.513,0.913-5.815,3.422c-2.133,4.11-4.543,8.079-6.927,12.053C7.181,48.586,3.477,54.882,0.01,61.32
	c-0.935,1.736-0.886,3.232-0.023,4.84c0.688,1.28,5.051,8.99,5.782,10.214l0.099-0.104 M107.559,31.946
	c5.759,9.709,11.542,19.403,17.35,29.084c0.849,1.415-0.305,2.015-1.844,2.035c-1.938,0.026-4.564,0.007-6.564,0.007
	c0,0.004,0,0.01,0,0.015c-1,0-0.725-0.12-1.422,0.021c-3.836,0.772-5.477-1.159-7.146-4.38c-2.311-4.454-4.77-8.745-7.464-12.983
	c-0.952-1.497-1.288-2.845-0.407-4.348c1.882-3.21,3.956-6.335,5.841-9.543C106.625,30.623,106.975,30.961,107.559,31.946z
	 M35.308,51.858c4.334-0.033,8.668-0.024,13.002-0.104c2.801-0.052,5.619-0.073,8.391-0.418c1.603-0.2,3.021,0.396,4.561,0.395
	c9.504-0.01,19.01,0.176,28.511,0.05c2.545-0.033,4.014,0.815,5.153,2.958c1.354,2.546,2.887,5,4.418,7.447
	c0.844,1.348,1.015,2.419-0.018,3.888c-1.723,2.45-3.264,5.064-4.573,7.76c-0.958,1.973-2.296,2.457-4.315,2.408
	c-4.606-0.109-9.217-0.034-13.826-0.034c-6.836-0.054-13.692-0.437-20.495-0.316c-6.264,0.11-12.552,0.024-18.817,0.353
	c-1.917,0.1-2.965-0.478-3.89-2.244c-1.501-2.868-3.384-5.543-5.199-8.237c-0.685-1.017-0.913-1.966-0.341-3.035
	c1.762-3.294,3.579-6.559,5.308-9.87C33.676,51.898,34.451,51.865,35.308,51.858z M31.466,44.641
	c-0.208-0.499,0.419-0.756,0.936-0.77c0.849-0.021,1.697-0.037,2.545-0.037c11.521-0.002,23.046-0.195,34.562,0.065
	c8.008,0.181,16.007,0.774,24.029,0.688c2.004-0.022,2.17,0.375,1.244,2.059c-1.229,2.234-2.69,3.517-5.671,3.419
	c-8.602-0.281-17.218-0.099-25.828-0.099c-8.853,0-17.706,0.008-26.559-0.012c-1.055-0.003-2.328,0.342-3.003-0.787
	C32.857,47.724,32.113,46.195,31.466,44.641z M38.019,77.882c7.869-0.443,15.708-0.458,23.568-0.106
	c2.502,0.111,4.972-0.545,7.503-0.438c7.307,0.31,14.616,0.607,21.928,0.682c2.14,0.021,3.401,0.657,4.083,2.625
	c0.195,0.562,0.47,1.137,0.848,1.591c1.147,1.379,0.598,1.942-0.924,1.962c-2.385,0.031-4.785,0.138-7.152-0.076
	c-7.373-0.668-14.753-0.721-22.351-0.479c-4.975-0.086-10.15-0.175-15.342,0.063c-5.345,0.246-10.718-0.096-16.078-0.223
	c-2.248-0.053-2.298-0.195-1.335-2.256C33.812,78.988,35.209,78.04,38.019,77.882z M97.705,72.877
	c1.351-1.504,2.263-3.509,2.96-5.336c0.916-2.402,2.306-2.812,4.101-2.568c3.816-0.018,3.89,0.021,2.226,3.126
	c-2.33,4.349-4.752,8.649-7.196,12.936c-0.948,1.661-1.122,1.479-2.331-0.224C95.487,78.027,95.294,75.562,97.705,72.877z
	 M106.357,63.084c-0.361,0.014-0.724,0.002-1.387,0.002c-2.202,0.669-3.472-0.832-4.55-2.725c-1.186-2.079-2.365-4.164-3.627-6.196
	c-1.841-2.966-1.703-5.071,0.503-7.826c0.89-1.111,1.265-0.068,1.538,0.371c2.213,3.554,4.355,7.15,6.519,10.735
	c0.741,1.229,1.536,2.431,2.2,3.703C108.513,62.982,108.472,63.006,106.357,63.084z M25.45,28.54
	c3.398-0.049,6.807-0.171,10.193,0.034c3.132,0.19,6.239-0.07,9.357-0.056c8.619,0.04,17.287-0.541,25.844,0.196
	c10.183,0.877,20.331,0.157,30.484,0.541c0.485,0.018,0.972,0.002,1.456,0.022c1.272,0.053,1.869,0.547,1.123,1.827
	c-1.762,3.016-3.62,5.979-5.277,9.051c-1.051,1.946-2.439,2.651-4.656,2.573c-4.607-0.163-9.223-0.049-14.949-0.049
	c-5.371-0.299-11.853-0.039-18.361-0.493c-9.089-0.633-18.255-0.329-27.384-0.16c-2.68,0.049-4.313-0.841-5.496-3.075
	c-1.353-2.555-2.8-5.061-4.151-7.617C22.327,28.866,22.501,28.583,25.45,28.54z M17.986,61.047c-0.716,1.291-1.428,2.094-3.023,2.06
	c-3.752-0.08-7.507-0.037-11.261-0.026c-1.355,0.004-1.654-0.418-1.053-1.736c1.703-3.738,4.107-7.063,6.09-10.635
	c3.907-7.037,8.315-13.791,11.993-20.962l0.016,0.017c0.964,3.413,3.153,6.198,4.936,9.151c1.848,3.06,2.616,5.462,0.159,8.792
	C22.793,51.838,20.493,56.532,17.986,61.047z M20.313,60.627c2.689-4.835,5.646-9.52,8.473-14.278
	c0.347-0.584,0.668-0.6,1.055-0.121c0.145,0.179,0.132,0.48,0.269,0.67c1.771,2.461,2.205,4.751,0.022,7.393
	c-1.509,1.827-2.512,4.108-3.55,6.277c-0.909,1.897-2.202,2.823-4.028,2.518C19.478,63.087,19.109,62.792,20.313,60.627z
	 M26.183,76.594c-1.894-3.197-3.589-6.523-5.637-9.617c-1.023-1.547-1.015-2.007,0.875-2.073c0.704-0.024,1.394-0.468,2.022,0.005
	c1.812-0.545,2.463,0.208,3.225,1.813c1.224,2.577,3.089,4.845,4.615,7.284c1.564,2.501,1.239,5.676-0.702,7.832
	c-0.736,0.816-0.999,0.016-1.281-0.407C28.234,79.836,27.16,78.244,26.183,76.594z M102.655,98.797
	c-14.446,0.012-28.892,0.004-43.337,0.009c-1.091,0.001-2.185,0.022-3.272,0.097l-2.859-0.01c-0.602-0.057-1.208-0.084-1.813-0.085
	c-7.026-0.006-14.054-0.003-21.08-0.004c-0.971,0-4.099-0.065-4.808,0.022c-1.888,0.232-2.142-0.822-1.467-2.098
	c1.683-3.178,3.625-6.221,5.296-9.405c0.799-1.522,1.853-1.969,3.478-1.966c20.88,0.037,41.76,0.041,62.639-0.002
	c1.953-0.005,3.164,0.7,3.983,2.467c1.319,2.849,2.967,5.51,4.761,8.102C105.892,98.406,105.613,98.795,102.655,98.797z
	 M124.649,67.782c-1.982,3.72-4.124,7.355-6.24,11.002c-3.322,5.728-6.693,11.426-10.008,17.157
	c-0.619,1.07-1.013,1.533-1.838,0.128c-1.94-3.304-3.996-6.538-5.982-9.814c-0.705-1.165-0.37-2.188,0.314-3.325
	c3.035-5.043,6.196-10.025,8.689-15.367c0.867-1.859,1.895-2.9,4.093-2.629c1.554,0.193,3.15,0.037,4.729,0.037
	c1.456,0.001,2.913-0.027,4.368,0.008C125.703,65.048,125.958,65.328,124.649,67.782z"/>
</svg>
