<?xml version="1.0" encoding="utf-8"?>
<!-- Generator: Adobe Illustrator 16.0.4, SVG Export Plug-In . SVG Version: 6.00 Build 0)  -->
<!DOCTYPE svg PUBLIC "-//W3C//DTD SVG 1.1//EN" "http://www.w3.org/Graphics/SVG/1.1/DTD/svg11.dtd">
<svg version="1.1" id="Layer_2505" xmlns="http://www.w3.org/2000/svg" xmlns:xlink="http://www.w3.org/1999/xlink" x="0px" y="0px"
	 width="128px" height="128px" viewBox="0 0 128 128" enable-background="new 0 0 128 128" xml:space="preserve">
<g id="f70yKR.tif">
	<g>
		<path fill-rule="evenodd" clip-rule="evenodd" d="M32.894,77.818l2.003-6.78l-1.122-3.295l4.351-3.425l0.303-0.241l5.808-1.565
			l1.435-3.241l2.813-2.605l1.021-0.377l-1.656-1.843l1.931-6.366l2.531-1.788l4.833-0.548l0.231-2.021l1.752-3.234l4.751-3.644
			l1.786,0.328l1.232,1.588l3.821,7.353l-3.413,3.801l5.103,1.527l4.625-1.933l4.895,1.653l2.151,4.81l-0.442,1.677l0.303,1.221
			l5.347-2.615l0.769,0.069l4.564,0.804l1.152,5.745l0.785,3.636l-2.077,2.311l1.821,2.682l2.629-0.373l2.169,3.166l-0.407,2.261
			l4.027-0.349l4.529,3.127v3.291l1.506,4.469l3.638-0.999l2.812,1.458l0.257,4.933l4.548-0.508l4.181,0.84l1.913,2.88v1.873
			l-6.794,3.932l-2.973-1.965l-1.962-0.006l-3.642,2.001l-7.23-1.6l-0.156-5.02l1.36-2.751l-1.601-0.379l-2.566,0.95l0.92,2.167
			l-0.577,3.507l-2.741,2.246l-5.423-0.825l-0.143-2.835l-1.713-1.805l-2.086,4.252l-4.7,0.481l-1.925-0.72l0.061-3.057
			l-0.583-3.307l-0.161,3.413l-6.076,3.725l-2.765-0.782l-4.563-2.967l-6.24,2.93l-2.273-2.637v2.05l-2.218,1.801l-8.925,0.362
			l-3.949-4.904l1.882-2.675l-0.999-0.556l-1.428,4.644l-2.381,2.55l-4.314,0.508l-2.799-0.493l-4.643,0.145l-3.81-2.71
			l-2.487-1.083L24.6,93.842l-3.288,5.422l-1.18,2.438l-2.631-0.661l-2.534-0.188l-2.456-2.518l-1.717-1.063l-0.812,3.209
			l-2.805,3.229l-2.571-0.641l-0.889-0.377l-3.819-5.043l0.361-2.398l7.536-2.523l3.055,0.93l0.273-0.257l-1.836-3.018l4.185-3.604
			l4.776-1.984l2.92,1.426l1.543-2.86l-4.071-3.559l2.438-1.562l3.109-2.721l6.007-1.644l1.919,2.639L32.894,77.818L32.894,77.818z
			 M89.652,61.825l1.682-3.406l-1.852,0.097l0.173,0.286l-3.059,2.874l0.532,2.866l1.473-2.058l1.009-0.615l-0.182,0.88
			l-1.651,2.343l-0.102,0.488l0.956,0.229l1.46-1.557l1.2-0.875l-1.225,2.351l-0.352,1.205l1.42,0.995h2.405l1.597-2.323
			l-0.829-1.392l-0.684,0.466l-0.863,0.305l1.287-2.06l0.322-2.362l-1.487,1.631l-0.929,0.528l1.313-2.617l0.741-1.578l-1.081-0.055
			L89.652,61.825L89.652,61.825z M95.906,95.935l0.22-1.688l2.486-2.952l0.239-0.468l-1.144-1.07l-3.659,4.736l1.821,1.482
			l1.4,3.057l4.635-4.084l-0.078-1.368l-3.998,3.937l2.572-4.336l-1.311-1.173L95.906,95.935L95.906,95.935z M53.145,96.821
			l1.402-2.666l-1.19-1.317l-5.504,2.845v1.918l1.01,1.299h2.039l1.583-1.418l0.115,1.03l6.407,0.192l1.099-0.784l-0.069-1.004
			l-1.986,1.361l1.094-3.068l-1.77,0.792l-1.113-1.721L53.145,96.821L53.145,96.821z M81.757,86.626l0.318-1.055l2.159-2.887
			l0.872-0.331l1.688-2.426l-0.821-0.753l-3.432,2.748l1.981-3l-4.353-0.607l-5.657,1.062v2.057l0.977,0.589l0.399,2.992
			l3.021-3.496l3.148-2.331l-2.392,2.796l-3.81,4.662l-0.292,1.797l1.748-1.681l2.217-1.826l-0.789,1.449l-2.408,2.49l-0.07,0.418
			l1.17,0.602l2.096-1.039l0.261,0.751l1.845-0.575l2.76-4.943l-1.496,1.98L81.757,86.626L81.757,86.626z M74.02,59.443l0.315-0.662
			l5.093-5.515l0.902-1.28l-1.99-0.683l-5.266,6.252l0.894,1.919l3.274,2.861l1.856-2.024l2.63-1.842l-2.263,2.75l2.52,0.525
			l1.198-1.811l-0.848-3.506l-0.848-3.818l-5.896,5.967L74.02,59.443L74.02,59.443z M38.37,79.84l1.447,2.004l-0.611,2.429
			l0.307,0.234l3.526-3.045l-0.355,1.8l0.376,0.102l1.455-2.945l-1.08-3.538l-2.842,1.511l3.142-3.107l-1.053-1.834l-3.367,2.524
			l-0.24-0.342l2.233-1.747l-0.148-0.463l-2.637-1.24l-2.593-0.13l-0.474,7.339L38.37,79.84L38.37,79.84z M111.216,99.071
			l1.639,0.801l2.382-1.444v-2.413l-3.988,3.006l-0.415-0.497l5.222-4.479l0.459-3.889l-1.795-2.083l-4.889,3.979l3.634-4.545
			l-7.607,10.826l2.235,0.556l2.8-1.803l-1.166,1.756L111.216,99.071L111.216,99.071z M61.893,80.627l-0.857,1.129l1.37,2.941
			l3.748-1.9L63.78,84.84h2.583l4.039-3.327l1.566-0.194l-2.383,2.163h2.039l0.326-7.954l-4.505,0.211l-4.32,4.146l-0.57,0.082
			l0.449-1.204l3.231-3.344l-7.368,0.848v2.295l3.138-2.797l-2.531,3.92L61.893,80.627L61.893,80.627z M69.232,68.143l-0.469,0.889
			l-3.336,2.321l-0.914,0.955l4.335,1.787l1.651-1.963l2.551-1.366l-0.084-4.829l-3.69,2.163l4.078-3.091l1.148-0.995l-4.378-0.564
			l-1.35-1.44l-3.297,0.781l-3.197,1.304l-2.646,5.196l1.021,1.694l1.746-1.504l0.348,1.835l2.42-0.748l3.026-2.104L69.232,68.143
			L69.232,68.143z M30.201,86.188l-2.687,1.826l-0.453,2.688l-0.161,4.324l1.798-1.365l0.26,0.236l-1.083,1.687l1.311,0.972
			l1.512-0.609l-0.801,1.566l7.719,1.032l1.237,0.556l3.031-1.828l0.378,0.163l-0.694,1.506l2.713-2.033l1.671-5.168l-3.35-1.134
			l-1.727,1.143l-1.994,0.726l3.132-2.703v-1.857l-4.013-1.336l-2.563-2.364l-1.514,1.396l-1.93,1.061L30.201,86.188L30.201,86.188z
			 M21.155,95.017l1.589-1.231l1.18-4.535l-3.195-2.272l-1.791-0.677l-2.57-0.279l-1.486,3.056l-2.705,2.044l2.407-3.459
			L14.4,87.557l-3.337,2.404l1.346,2.873l-0.331,3.208l1.556,1.462l2.395-0.745l0.157,2.918l3.753,0.186L21.155,95.017
			L21.155,95.017z M47.424,79.024l3.524,1.461l1.535-0.047l3.327-2.87l0.868-2.202l-2.434,1.476l-0.271-0.398l3.391-2.901
			l1.612,0.914l-0.506-3.576l-3.096-1.454l-3.259-1.898l-6.693,4.254l0.259,2.104l3.055-2.7l3.03-1.833l-5.396,5.156L47.424,79.024
			L47.424,79.024z M59.538,84.493l-1.728-3.658l-6.684,1.21l-1.084,2.366l-2.41,3.956l-0.805,0.571l-0.326-0.25l2.936-5.76
			l-0.282-0.128l-1.528,2.877l-2.646,1.602l4.197,4.819l4.021-0.591l1.866,1.394l1.832-0.322l0.508-2.021l-2.216,1.346l2.568-3.646
			L59.538,84.493L59.538,84.493z M59.226,59.209l3.238,2.014l2.994,0.439l1.429-2.682h-1.324l3.325-2.752l2.944-2.734l-4.227-2.223
			l-2.151-0.67l-4.311,2.859l2.362-2.372l-3.178,1.559L59.226,59.209L59.226,59.209z M47.401,58.187l-1.222,4.483l2.746,3.489
			l0.673,0.095l-0.509,1.194l7.979-3.367l-4.407,2.283l3.55,0.513l2.411-2.259l-0.522-3.771l-3.82-3.126l-3.356-0.255L47.401,58.187
			L47.401,58.187z M82.289,63.363l-5.822,6.095l1.092,2.921l-0.783,1.937l0.678,1.102l2.127-1.334l-0.857,1.993l4.185-0.453
			l2.594-2.438l1.067-3.173l-3.327,2.352l3.069-3.434v-2.75L82.289,63.363L82.289,63.363z M101.202,88.808l-0.367-0.375l1.569-1.552
			l1.023-0.854l4.238-6.1l-0.928,0.016l-2.495,2.36l-4.286,4.616l1.836-3.064l2.126-2.521l2.276-2.68l-1.312-0.373l-2.701,2.373
			l-2.199,2.128l-1.039,0.662l1.972-2.873l2.709-3.163l-4.375,2.065l1.918,11.507l5.078-1.059l-1.599,0.528l-0.227-0.383l4.54-4.465
			l-1.6-3.832l-2.549,3.43L101.202,88.808L101.202,88.808z M87.758,75.88l3.722-5.561l-4.861,5.517l2.51,4.625l5.124,0.393
			l2.273-1.509l3.308-5.166l-0.952-1.396l-2.511,0.206l-5.081,4.389L94.9,73.97l-2.089-3.745L87.758,75.88L87.758,75.88z
			 M28.94,74.359l-5.786,5.696l-0.823,0.497l-0.202-0.24l1.082-1.643l-0.206-0.242l-3.152,1.985l0.685,1.233l3.235,0.438
			l0.191,0.511l1.199-0.291l-2.277,3.343l3.472,0.423l7.405-3.701l-1.261-3.115l-2.284-3.011L28.94,74.359L28.94,74.359z
			 M63.04,38.635l0.375,0.397l-1.917,1.308l-2.729,3.429l2.995,2.955l3.309-2.873l3.905-1.108l-5.871,4.445l2.946,1.904l4.026-4.369
			l-0.933-3.55l-4.758-3.004L63.04,38.635L63.04,38.635z M73.26,90.369l-1.643,3.959l3.188,3.45l0.749,0.202l4.896,0.83l1.176-0.883
			l0.433-1.741l0.022-1.954l-2.431-2.971l-0.696-0.243L76.39,91.52l-2.221,2.322l1.328-3.117L73.26,90.369L73.26,90.369z
			 M90.055,98.088l1.081-4.057l-0.085-2.434l1.326-5.033l0.299-3.31l-3.021,2.781l-4.459,6.09h1.085l-0.432,5.962H90.055
			L90.055,98.088z M51.002,55.531l5.718-0.062l1.059-1.513V52.02l1.549-3.054l-1.967-2.136l-5.346,1.319l-3.309,3.83l2.386,2.015
			L51.002,55.531L51.002,55.531z M62.468,94.506l4.713-6.434l0.455,0.416l-2.482,3.288l-2.115,3.521l2.664,1.982l2.356-2.969
			l1.065,0.697v-4.118l-0.291-0.039l-1.708,2.913l-0.688-1.339l2.216-2.654l-0.438-2.08l-2.069-1.001l-5.754,5.639l1.661-2.464
			l1.778-2.222l-0.298-0.271l-3.984,3.224l0.103,1.828L62.468,94.506L62.468,94.506z M42.448,62.972l-6.745,5.52l0.569,1.442
			l3.329,1.132l5.757-5.006L42.448,62.972L42.448,62.972z M7.549,102.486l1.362-3.824l1.185-3.918l-2.438-0.676L5.669,96.76
			l-2.002,2.344l-0.14,1.291l0.759,1.183L7.549,102.486L7.549,102.486z M121.81,94.241l-3.894,3.411l2.31,1.842l3.212,0.393
			l2.228-4.238l-4.255,3.532l2.587-4.14l-1.979,1.399l-2.114,0.67l4.027-3.417l-5.421,0.177l-0.959,2.417l0.213,0.122l3.452-2.881
			L121.81,94.241L121.81,94.241z M94.078,82.266l0.685,2.348l-1.827,5.677h2.319l2.141-1.911l-0.399-2.563L96.98,82.89
			L94.078,82.266L94.078,82.266z M45.064,76.439l0.009,1.36l0.216,0.938l-2.996,5.749l-1.811,0.975l2.675,1.364l3.583-2.649
			l2.322-2.889L45.064,76.439L45.064,76.439z M68.144,85.243l2.416,4.759l3.106-1.423l0.729-3.546l-0.886-2.192L68.144,85.243
			L68.144,85.243z M75.529,75.787l-0.469-4.921l-4.086,3.301l2.161,0.236l0.527,1.775l0.398,1.827l2.54-0.863L75.529,75.787
			L75.529,75.787z M67.722,60.772l2.201,0.311l1.522,1.332h2.39l-2.111-4.629l-3.387,1.436L67.722,60.772L67.722,60.772z
			 M72.529,55.977l4.63-4.896l-1.765-0.55l-1.642,0.796L72.529,55.977L72.529,55.977z M35.44,80.695l-0.401,2.315l2.988,1.092
			v-2.995L35.44,80.695L35.44,80.695z"/>
	</g>
</g>
</svg>
