<?xml version="1.0" encoding="utf-8"?>
<!-- Generator: Adobe Illustrator 16.0.4, SVG Export Plug-In . SVG Version: 6.00 Build 0)  -->
<!DOCTYPE svg PUBLIC "-//W3C//DTD SVG 1.1//EN" "http://www.w3.org/Graphics/SVG/1.1/DTD/svg11.dtd">
<svg version="1.1" id="Layer_2506" xmlns="http://www.w3.org/2000/svg" xmlns:xlink="http://www.w3.org/1999/xlink" x="0px" y="0px"
	 width="128px" height="128px" viewBox="0 0 128 128" enable-background="new 0 0 128 128" xml:space="preserve">
<g id="_x31_oxsNH.tif">
	<g>
		<path fill-rule="evenodd" clip-rule="evenodd" d="M0.194,83.583c0.55-5.807,0.255-11.512,0.416-17.205
			c0.111-3.932,0.446-7.858,0.338-11.795c-0.029-1.065,0.363-1.731,1.337-2.263c3.211-1.759,6.357-3.636,9.548-5.433
			c4.144-2.335,7.256-5.875,10.664-9.066c7.924-7.418,15.616-15.078,23.457-22.58c4.115-3.938,8.342-7.761,12.432-11.729
			c1.642-1.592,2.408-1.532,4.102,0.061c6.273,5.902,12.35,12.009,18.645,17.891c4.011,3.748,7.926,7.6,11.949,11.337
			c1.084,1.007,2.358,1.587,3.648,2.166c8.104,3.633,16.227,7.229,24.337,10.85c1.919,0.857,3.825,1.744,5.719,2.656
			c1.324,0.638,1.438,1.127,0.493,2.331c-2.313,2.944-5.126,5.417-7.73,8.085C109.129,69.567,98.491,80.033,88.71,91.318
			c-7.282,8.403-14.605,16.77-21.913,25.151c-2.36,2.709-4.709,5.429-7.104,8.106c-1.282,1.434-2.04,1.436-3.332-0.004
			c-6.75-7.52-13.476-15.06-20.212-22.591c-1.356-1.517-2.723-3.023-4.071-4.548c-0.606-0.685-1.283-0.949-2.168-0.561
			c-1.055,0.46-2.16,0.819-3.182,1.343c-1.07,0.549-1.992,0.523-3.062-0.065C16.417,94.162,9.15,90.204,1.864,86.286
			C0.668,85.644-0.19,84.962,0.194,83.583z M52.737,117.334l0.008-0.008c-0.14-0.135-0.28-0.27-0.419-0.402
			c-0.135-0.272-0.27-0.543-0.404-0.816c-1.51-3.486-3.497-6.726-5.223-10.101l-0.137-0.138
			c-5.416-9.862-10.854-19.713-16.228-29.598c-0.908-1.669-2.055-2.773-3.984-3.08c-1.67-0.265-3.312-0.698-4.967-1.059
			c-0.087-0.048-0.174-0.097-0.261-0.144c0.09,0.043,0.182,0.087,0.272,0.131c0.275,0.195,0.527,0.445,0.831,0.576
			c1.362,0.583,1.658,1.536,1.35,2.955c-0.358,1.646-0.379,3.365-0.722,5.016c-0.437,2.104,0.099,3.687,1.592,5.312
			c6.872,7.477,13.583,15.1,20.408,22.618c2.31,2.545,4.343,5.357,7.076,7.504c0.135,0.271,0.271,0.542,0.406,0.812
			C52.47,117.053,52.603,117.193,52.737,117.334z M117.075,58.277l0.009,0.009c-0.136,0.138-0.272,0.275-0.409,0.413
			c-1.399,0.559-2.562,1.497-3.765,2.369c-6.684,4.854-13.368,9.704-20.05,14.562c-3.943,2.867-7.883,5.743-11.821,8.617
			c-0.21,0.153-0.535,0.302-0.458,0.596c0.084,0.325,0.437,0.233,0.677,0.197c3.48-0.508,6.957-1.043,10.439-1.531
			c0.957-0.134,1.552-0.715,2.176-1.36c4.666-4.815,9.355-9.607,14.03-14.413c2.926-3.011,5.841-6.031,8.76-9.048
			C116.801,58.55,116.938,58.414,117.075,58.277z M27.081,92.089l0.012-0.012c-0.281,0.547-0.325,1.147-0.39,1.743
			c-0.068,0.616-0.678,1.413,0.005,1.799c0.538,0.305,1.204-0.383,1.821-0.605c0.752-0.271,0.617-0.71,0.203-1.206
			C28.222,93.195,27.768,92.53,27.081,92.089z M72.279,106.751c1.137-0.79,1.858-1.97,2.75-2.983
			c4.924-5.601,9.799-11.243,14.687-16.875c0.255-0.291,0.673-0.603,0.383-1.024c-0.204-0.297-0.636-0.146-0.962-0.092
			c-3.409,0.565-6.806,1.208-10.226,1.682c-1.534,0.213-2.363,0.959-3.008,2.312c-2.74,5.753-5.578,11.46-8.358,17.194
			c-1.859,3.84-3.889,7.601-5.433,11.588l-0.01-0.011c3.459-3.883,6.955-7.734,10.193-11.808L72.279,106.751z M12.022,49.333
			c-2.737,1.356-5.293,3.03-7.952,4.522c-1.021,0.574-1.357,1.317-1.409,2.452c-0.375,8.13-0.295,16.266-0.4,24.399
			c-0.025,1.946,0.095,2.05,1.932,1.237c5.206-2.3,10.383-4.668,15.585-6.979c0.87-0.386,0.941-0.645,0.085-1.123
			c-3.077-1.719-6.146-3.452-9.208-5.199c-1.449-0.827-1.561-1.485-0.432-2.665c0.937-0.979,1.844-2.025,2.929-2.817
			c1.153-0.84,0.94-1.552,0.278-2.525c-1.068-1.567-2.011-3.222-3.085-4.785c-0.831-1.209-0.946-2.31-0.045-3.543
			c0.676-0.924,1.306-1.897,1.711-2.987L12.022,49.333z M63.733,7.792l0.004-0.004c0.139,0.521,0.248,1.053,0.422,1.562
			c1.936,5.631,3.884,11.258,5.823,16.888c3.132,9.088,6.258,18.178,9.394,27.264c0.106,0.309,0.297,0.589,0.448,0.882
			c0.146-0.301,0.332-0.589,0.428-0.905c1.015-3.369,2.062-6.729,3.005-10.119c1.62-5.823,1.592-5.832,6.965-8.258
			c1.471-0.665,1.477-0.67,0.268-1.817c-4.271-4.053-8.556-8.089-12.818-12.15C73.014,16.696,68.377,12.239,63.733,7.792z
			 M55.597,9.428c-0.564,0.11-0.954,0.492-1.346,0.868c-6.02,5.758-12.11,11.445-18.037,17.295
			c-5.545,5.473-11.151,10.885-16.882,16.155c-2.822,2.594-4.595,5.818-6.705,8.864c-0.621,0.896-0.305,1.347,0.641,1.586
			c1.443,0.365,2.891,0.713,4.324,1.114c3.521,0.988,7.04,1.981,10.546,3.016c1.05,0.311,1.763,0.209,2.338-0.871
			c2.769-5.198,5.668-10.327,8.396-15.546c4.732-9.06,9.23-18.242,14.157-27.202c0.94-1.71,1.995-3.391,2.551-5.297l0.073-0.062
			L55.597,9.428z M54.798,58.703c0-0.024,0-0.046,0-0.068c6.853,0,13.705,0.007,20.558-0.004c2.607-0.004,3.282-0.946,2.442-3.441
			c-0.908-2.698-1.877-5.377-2.81-8.067c-4.663-13.451-9.322-26.902-13.995-40.348c-0.125-0.357-0.074-0.943-0.548-0.985
			c-0.452-0.042-0.555,0.504-0.742,0.847c-2.616,4.829-5.317,9.615-7.828,14.499c-5.024,9.77-10.171,19.474-15.34,29.167
			c-1.212,2.273-2.378,4.572-3.577,6.853c-0.519,0.987-0.36,1.546,0.873,1.521c0.542-0.012,1.086,0.026,1.628,0.026
			C41.906,58.703,48.352,58.703,54.798,58.703z M37.187,74.185c-0.949,0-1.898-0.012-2.848,0.002
			c-2.78,0.044-2.784,0.052-1.404,2.567c5.28,9.626,10.569,19.245,15.839,28.876c2.732,4.992,5.426,10.005,8.154,15
			c0.219,0.401,0.377,1.042,0.873,1.036c0.518-0.005,0.584-0.678,0.783-1.082c1.702-3.467,3.373-6.947,5.064-10.42
			c3.649-7.491,7.301-14.983,10.965-22.467c0.376-0.769,0.526-1.468,0.167-2.318c-1.318-3.119-2.676-6.228-3.807-9.415
			c-0.606-1.714-1.541-2.199-3.292-2.166C57.517,73.987,47.346,73.638,37.187,74.185z M77.104,84.382
			c0.467-0.078,0.828-0.375,1.212-0.663c2.005-1.504,4.004-3.019,6.044-4.474c11.587-8.256,22.907-16.88,34.596-24.996
			c1.502-1.042,2.933-2.186,4.405-3.269c0.769-0.563,0.679-0.92-0.229-1.139c-0.329-0.08-0.646-0.203-0.974-0.289
			c-11.396-2.996-22.799-5.971-34.185-9.009c-1.304-0.348-1.766,0.025-2.117,1.245c-1.431,4.946-2.991,9.853-4.408,14.802
			c-0.321,1.124-0.872,1.905-1.782,2.587c-2.98,2.234-5.895,4.561-8.887,6.776c-0.915,0.677-1.204,1.332-0.763,2.396
			c2.103,5.068,4.17,10.151,6.261,15.225C76.427,83.939,76.573,84.354,77.104,84.382z M56.408,60.411
			c-7.255-0.002-14.511-0.016-21.764,0.274c-2.879,0.116-2.882,0.037-2.104,2.852c0.573,2.076,0.573,2.067,2.741,2.069
			c9.022,0.009,18.052-0.202,27.062,0.136c4.053,0.153,7.257-0.872,10.02-3.669c0.462-0.468,1.516-0.736,1.333-1.343
			c-0.192-0.643-1.186-0.303-1.821-0.306C66.719,60.4,61.564,60.411,56.408,60.411z M21.25,78.314
			c0.057-1.535-0.148-1.731-1.494-1.134c-5.067,2.258-10.109,4.572-15.16,6.866c-0.879,0.399-1.032,0.776-0.04,1.29
			c1.982,1.024,3.937,2.105,5.898,3.172c4.281,2.325,8.568,4.642,12.833,6.997c0.83,0.457,1.203,0.364,1.329-0.62
			c0.128-1.004,0.292-2.013,0.553-2.989c0.337-1.256-0.02-2.214-0.898-3.127c-0.982-1.019-1.966-2.035-2.854-3.156
			c-0.852-1.075-1.014-2.123-0.758-3.395C20.926,80.895,21.068,79.547,21.25,78.314z M54.573,72.073
			c4.071,0,8.141,0.002,12.21-0.002c0.474,0,0.951,0,1.421-0.06c0.478-0.06,0.65-0.377,0.627-0.863
			c-0.112-2.291-1.652-3.808-3.923-3.808c-2.98-0.002-5.978,0.287-8.931,0.17c-7.258-0.291-14.509-0.038-21.76-0.136
			c-0.732-0.01-1.35,0.123-1.624,0.913c-0.377,1.09-0.771,2.172-1.335,3.185c-0.32,0.575-0.124,0.903,0.535,0.926
			c0.542,0.02,1.085,0.018,1.628,0.02C40.474,72.442,47.518,71.893,54.573,72.073z M27.988,71.739
			c0.544,0.201,0.937-0.079,1.202-0.645c0.401-0.854,0.828-1.694,1.219-2.553c0.553-1.212,0.242-1.658-0.976-1.949
			c-3.287-0.782-6.553-1.651-9.828-2.486c-3.453-0.88-3.453-0.88-5.912,1.656c-1.307,1.35-1.289,1.354,0.31,2.256
			c1.755,0.99,3.744,1.109,5.635,1.595C22.388,70.318,25.14,71.015,27.988,71.739z M29.912,64.882
			c0.646,0.098,0.694-0.305,0.696-0.744c0.007-1.691-1.117-3.248-2.781-3.743c-4.015-1.199-7.985-2.551-12.076-3.483
			c-0.643-0.147-1.536-0.802-1.864-0.352c-0.453,0.618,0.472,1.248,0.772,1.884c0.982,2.079,2.549,3.267,4.89,3.738
			c3.175,0.638,6.282,1.618,9.417,2.451C29.294,64.721,29.622,64.805,29.912,64.882z M114.513,45.276
			c-0.243-0.135-0.465-0.276-0.701-0.384c-3.39-1.539-6.778-3.082-10.175-4.605c-2.842-1.272-5.698-2.515-8.542-3.783
			c-1.057-0.471-2.048-0.47-3.092,0.112c-0.883,0.493-1.854,0.823-2.777,1.244c-0.296,0.135-0.781,0.21-0.772,0.552
			c0.011,0.406,0.516,0.286,0.806,0.364c4.833,1.314,9.67,2.619,14.506,3.919c3.334,0.896,6.67,1.783,10.006,2.67
			C113.997,45.426,114.244,45.625,114.513,45.276z"/>
		<polygon fill-rule="evenodd" clip-rule="evenodd" points="46.699,106.007 46.548,106.019 46.562,105.869 		"/>
		<path fill-rule="evenodd" clip-rule="evenodd" d="M72.295,106.734l-0.016,0.017L72.295,106.734z"/>
	</g>
</g>
</svg>
