<?xml version="1.0" encoding="utf-8"?>
<!-- Generator: Adobe Illustrator 16.0.4, SVG Export Plug-In . SVG Version: 6.00 Build 0)  -->
<!DOCTYPE svg PUBLIC "-//W3C//DTD SVG 1.1//EN" "http://www.w3.org/Graphics/SVG/1.1/DTD/svg11.dtd">
<svg version="1.1" id="Layer_2507" xmlns="http://www.w3.org/2000/svg" xmlns:xlink="http://www.w3.org/1999/xlink" x="0px" y="0px"
	 width="128px" height="128px" viewBox="0 0 128 128" enable-background="new 0 0 128 128" xml:space="preserve">
<g id="pMME3c.tif">
	<g>
		<path fill-rule="evenodd" clip-rule="evenodd" d="M44.21,43.961c-0.001-1.786-0.003-3.572,0-5.358
			c0-0.434-0.016-0.721-0.637-0.581c-1.143,0.258-2.342,0.297-3.462,0.62c-1.351,0.389-2.564,0.298-3.802-0.352
			c-1.256-0.659-2.578-1.193-3.832-1.858c-0.36-0.191-0.744-0.607-0.835-0.987c-0.365-1.52-0.712-3.056-0.865-4.606
			c-0.055-0.564,0.38-1.228,0.716-1.768c0.412-0.663,0.914-1.283,1.449-1.853c1.605-1.711,3.243-3.391,4.875-5.077
			c0.174-0.18,0.37-0.421,0.588-0.463c1.599-0.312,3.212-0.554,4.811-0.866c2.177-0.424,4.342-0.907,6.519-1.334
			c3.2-0.628,6.409-1.212,9.607-1.848c2.109-0.419,4.201-0.919,6.309-1.343c1.852-0.373,3.73-0.62,5.568-1.048
			c2.79-0.652,5.547-1.443,8.334-2.11c0.961-0.23,1.37-0.87,1.719-1.676c1.134-2.613,2.289-5.217,3.436-7.825
			c0.104-0.237,0.176-0.497,0.318-0.708C85.37,2.406,85.735,1.51,86.112,1.5c0.775-0.021,1.585,0.384,2.338,0.712
			c0.71,0.309,1.343,0.797,2.051,1.112c1.462,0.651,2.765,1.56,3.523,2.942c2.54,4.625,4.969,9.311,7.447,13.97
			c1.648,3.101,3.314,6.192,4.963,9.293c1.649,3.102,3.263,6.224,4.938,9.312c2.546,4.691,5.148,9.352,7.691,14.044
			c1.103,2.031,2.085,4.125,3.182,6.158c1.511,2.795,2.984,5.618,4.654,8.316c0.981,1.587,1.403,3.178,1.292,5.005
			c-0.159,2.614,0.217,5.245-0.36,7.855c-0.249,1.129-0.449,1.87-1.877,2.018c-1.392,0.146-2.734,0.798-4.091,1.251
			c-0.968,0.324-1.84,0.367-2.821-0.153c-1.413-0.753-2.919-1.354-4.436-1.874c-0.479-0.164-1.209-0.016-1.668,0.256
			c-3.227,1.901-6.334,4.021-9.634,5.783c-3.848,2.055-7.546,4.366-11.383,6.436c-1.859,1.003-3.605,2.212-5.441,3.26
			c-1.919,1.097-3.902,2.082-5.826,3.17c-3.402,1.923-6.778,3.896-10.175,5.832c-1.078,0.616-2.175,1.203-3.285,1.757
			c-0.78,0.39-1.063,0.895-0.637,1.712c0.329,0.63,0.532,1.354,0.966,1.897c2.097,2.622,2.267,5.455,1.183,8.521
			c-0.299,0.85-0.411,1.789-0.458,2.695c-0.04,0.749-0.33,1.331-0.923,1.641c-1.267,0.661-2.585,1.223-3.893,1.802
			c-1.163,0.516-2.266,0.252-3.381-0.239c-1.252-0.552-2.562-0.974-3.814-1.523c-1.2-0.526-2.28-1.083-2.734-2.584
			c-0.4-1.322-1.332-2.479-1.978-3.735c-0.415-0.803-0.974-0.774-1.628-0.402c-3.469,1.978-6.933,3.964-10.399,5.945
			c-0.057,0.033-0.11,0.074-0.167,0.108c-2.739,1.628-3.609,1.453-5.405-1.162c-0.44-0.642-1.168-1.426-1.067-2.025
			c0.178-1.048,0.754-2.114,1.418-2.978c1.591-2.069,3.33-4.024,5.009-6.025c0.042-0.051,0.097-0.093,0.124-0.15
			c0.989-2.135,2.794-3.327,4.839-4.288c0.911-0.427,0.942-0.758,0.453-1.719c-1.087-2.138-2.162-4.28-3.286-6.399
			c-0.145-0.271-0.551-0.572-0.839-0.576c-3.373-0.03-6.747-0.043-10.119,0.018c-1.607,0.029-3.211,0.214-4.814,0.351
			c-2.737,0.233-5.47,0.515-8.21,0.697c-0.448,0.03-1.021-0.233-1.371-0.546c-1.996-1.794-3.931-3.653-5.907-5.468
			c-1.199-1.101-2.384-2.226-3.669-3.219c-1.794-1.39-1.343-3.963,0.432-5.081c1.525-0.959,3.166-1.737,4.716-2.66
			c0.547-0.326,0.94-0.904,1.474-1.26c0.654-0.437,0.638-0.955,0.328-1.524c-0.896-1.643-2.012-3.193-2.688-4.919
			c-0.9-2.299-2.293-4.306-3.377-6.488c-0.892-1.797-1.811-3.58-2.736-5.36c-0.691-1.328-1.389-2.655-2.13-3.956
			c-0.413-0.726-0.988-1.363-1.372-2.101c-0.805-1.549-1.798-3.002-1.121-4.987c0.521-1.526,0.604-3.199,0.915-4.8
			c0.272-1.402,0.542-2.808,0.906-4.188c0.295-1.121,1.098-1.772,2.27-1.888c0.458-0.046,0.937-0.082,1.386-0.005
			c2.185,0.374,4.363,0.783,6.541,1.191c1.279,0.239,2.549,0.543,3.834,0.742c1.406,0.218,2.278,0.835,2.9,2.245
			c0.734,1.661,1.738,3.182,2.326,4.955c0.479,1.448,1.476,2.732,2.306,4.049c0.143,0.226,0.614,0.373,0.916,0.346
			c1.105-0.099,2.213-0.233,3.301-0.449c3.26-0.643,6.518-1.296,9.763-2.015c1.839-0.408,3.651-0.939,5.471-1.433
			c1.347-0.366,1.352-0.379,1.359-1.792C44.218,47.268,44.211,45.615,44.21,43.961z M109.825,81.684
			c0.024-0.034,0.047-0.069,0.071-0.104c-0.032,0.026-0.063,0.054-0.095,0.081c-0.023,0.037-0.047,0.074-0.071,0.11
			C109.762,81.742,109.794,81.713,109.825,81.684z M92.753,61.831c0.133-0.131,0.265-0.263,0.397-0.396
			c0.133-0.132,0.266-0.264,0.397-0.396c0.023-0.036,0.046-0.073,0.069-0.109c-0.032,0.027-0.064,0.054-0.097,0.081
			c-0.133,0.133-0.265,0.265-0.396,0.397c-0.133,0.133-0.264,0.267-0.394,0.401c-0.025,0.037-0.049,0.074-0.072,0.111
			C92.69,61.89,92.722,61.86,92.753,61.831z M74.873,101.892c-0.023,0.036-0.047,0.07-0.07,0.104
			c0.031-0.027,0.063-0.054,0.094-0.081c0.024-0.037,0.048-0.073,0.071-0.111C74.936,101.834,74.904,101.863,74.873,101.892z
			 M96.319,89.591c-0.265,0.133-0.529,0.266-0.794,0.398c-0.397,0.264-0.794,0.528-1.192,0.793
			c-0.059,0.023-0.121,0.042-0.178,0.072c-0.218,0.118-0.435,0.24-0.652,0.36c0.048,0.07,0.093,0.141,0.14,0.21
			c0.198-0.155,0.396-0.309,0.592-0.467c0.05-0.04,0.086-0.095,0.128-0.143c0.397-0.265,0.795-0.529,1.192-0.794
			c0.264-0.133,0.529-0.265,0.794-0.397c0.255-0.136,0.509-0.27,0.765-0.405c0.059-0.023,0.122-0.041,0.178-0.071
			c0.219-0.117,0.437-0.239,0.653-0.36c-0.047-0.069-0.092-0.14-0.138-0.209c-0.198,0.154-0.397,0.308-0.593,0.465
			c-0.05,0.04-0.087,0.095-0.129,0.143C96.83,89.321,96.575,89.456,96.319,89.591z M105.849,84.058
			c0.265-0.133,0.529-0.266,0.793-0.398c0.121-0.041,0.251-0.065,0.359-0.128c0.101-0.056,0.179-0.152,0.266-0.229
			c-0.127,0.017-0.27,0.006-0.379,0.061c-0.108,0.053-0.184,0.174-0.274,0.265c-0.264,0.133-0.529,0.266-0.793,0.398
			c-0.256,0.136-0.51,0.271-0.766,0.405c-1.332,0.791-2.665,1.583-3.998,2.375c-0.528,0.265-1.059,0.53-1.588,0.796
			c-0.117,0.043-0.244,0.071-0.349,0.136c-0.096,0.06-0.169,0.155-0.251,0.237c0.127-0.02,0.27-0.01,0.376-0.066
			c0.104-0.057,0.171-0.18,0.254-0.274c0.529-0.266,1.06-0.53,1.588-0.795c1.332-0.792,2.664-1.584,3.996-2.376
			C105.339,84.328,105.594,84.193,105.849,84.058z M44.314,65.802c0.146-0.07,0.292-0.143,0.438-0.214
			c-0.154,0.063-0.308,0.127-0.462,0.19c-0.023,0.037-0.047,0.074-0.071,0.111C44.251,65.86,44.283,65.831,44.314,65.802z
			 M81.226,15.337c-0.062,0.155-0.124,0.309-0.187,0.464c0.07-0.147,0.14-0.293,0.21-0.44c0.023-0.037,0.049-0.074,0.071-0.111
			C81.289,15.279,81.258,15.308,81.226,15.337z M84.018,96.771c0.263-0.135,0.526-0.271,0.788-0.406
			c0.061-0.022,0.123-0.041,0.179-0.07c0.219-0.119,0.435-0.241,0.652-0.361c-0.047-0.07-0.093-0.14-0.139-0.209
			c-0.198,0.155-0.397,0.309-0.593,0.467c-0.049,0.04-0.086,0.095-0.129,0.142c-0.26,0.139-0.521,0.277-0.782,0.414
			c-0.022,0.037-0.048,0.074-0.071,0.111C83.954,96.83,83.986,96.8,84.018,96.771z M77.652,100.304
			c-0.146,0.071-0.292,0.143-0.438,0.214c0.154-0.062,0.309-0.127,0.462-0.19c0.024-0.037,0.048-0.074,0.071-0.111
			C77.716,100.245,77.684,100.275,77.652,100.304z M89.18,93.595c0.263-0.135,0.525-0.271,0.787-0.405
			c0.538-0.262,1.077-0.524,1.616-0.786c0.27-0.15,0.54-0.299,0.81-0.447c-0.049-0.067-0.098-0.135-0.146-0.203
			c-0.231,0.206-0.464,0.411-0.694,0.616c-0.538,0.263-1.076,0.524-1.614,0.788c-0.262,0.139-0.521,0.275-0.782,0.414
			c-0.023,0.037-0.048,0.074-0.072,0.111C89.116,93.653,89.148,93.623,89.18,93.595z M81.636,97.962
			c0.263-0.136,0.524-0.27,0.786-0.406c0.148-0.068,0.297-0.137,0.444-0.205c-0.157,0.059-0.314,0.116-0.472,0.173
			c-0.262,0.139-0.521,0.276-0.782,0.415c-0.024,0.038-0.048,0.074-0.071,0.111C81.572,98.02,81.604,97.991,81.636,97.962z
			 M94.752,59.457c0.091-0.089,0.212-0.165,0.266-0.272c0.055-0.11,0.044-0.252,0.062-0.379c-0.079,0.087-0.175,0.164-0.231,0.264
			c-0.062,0.109-0.088,0.239-0.131,0.359c-0.094,0.083-0.219,0.149-0.274,0.253c-0.058,0.106-0.048,0.25-0.067,0.376
			c0.08-0.083,0.179-0.155,0.237-0.251C94.678,59.701,94.707,59.574,94.752,59.457z M72.894,95.174
			c0.123-0.028,0.245-0.07,0.37-0.082c0.532-0.051,1.066-0.094,1.599-0.14c-0.562-0.006-1.124-0.022-1.685-0.008
			c-0.106,0.003-0.209,0.127-0.312,0.195c-0.118,0.034-0.235,0.068-0.352,0.103c-0.142,0.041-0.282,0.081-0.424,0.123
			c0.172,0.009,0.351,0.049,0.516,0.021C72.711,95.368,72.799,95.247,72.894,95.174z M9.746,66.207
			c1.219,3.011,2.95,5.767,4.393,8.667c1.975,3.977,4.309,7.772,6.483,11.649c0.636,1.133,1.21,1.292,2.367,0.633
			c2.553-1.456,5.093-2.936,7.672-4.344c0.851-0.465,1.336-1.027,1.245-2.02c-0.129-1.414,0.089-2.83,0.087-4.245
			c-0.002-1.757-0.59-3.163-1.366-4.61c-0.351-0.656-0.785-0.995-1.543-0.903c-0.522,0.063-1.064,0.002-1.573,0.113
			c-2.929,0.641-5.86,1.272-8.764,2.014c-0.632,0.162-0.894,0.067-1.313-0.373c-0.8-0.84-1.701-1.587-2.585-2.342
			c-1.679-1.435-3.377-2.849-5.067-4.27c-0.414-1.551,0.314-2.837,1.119-3.999c0.774-1.116,1.793-2.063,2.714-3.076
			c1.286-1.416,2.319-3.161,4.545-3.32c0.71-0.051,1.411-0.261,2.115-0.4c1.507-0.298,1.564-0.349,0.971-1.681
			c-1.192-2.675-2.369-5.361-3.698-7.967c-0.299-0.586-1.15-1.115-1.829-1.246c-3.265-0.63-6.479-1.534-9.818-1.817
			c-0.684-0.058-0.986-0.012-1.167,0.571c-0.173,0.56-0.303,1.134-0.425,1.708c-0.458,2.168-0.832,4.357-1.388,6.5
			c-0.286,1.103-0.228,2.062,0.308,3.03c1.483,2.678,2.963,5.357,4.446,8.035c0.188,0.339,0.514,0.658,0.555,1.012
			C8.358,64.652,9.102,65.392,9.746,66.207z M60.583,34.83c0.037,0.023,0.074,0.047,0.111,0.071
			c-0.029-0.032-0.058-0.063-0.088-0.095c-1.383-2.724-2.761-5.45-4.152-8.169c-0.618-1.209-1.274-2.399-1.886-3.612
			c-0.219-0.432-0.447-0.391-0.759-0.135c-2.252,1.851-4.497,3.713-6.766,5.543c-0.853,0.688-1.079,1.529-1.07,2.6
			c0.044,5.622,0.02,11.244,0.021,16.866c0,0.331,0.023,0.663,0.001,0.991c-0.046,0.701,0.319,0.999,0.958,0.899
			c1.746-0.273,3.069,0.382,4.109,1.75c0.157,0.206,0.396,0.347,0.588,0.528c1.949,1.843,3.897,3.688,5.844,5.535
			c0.397,0.376,0.497,0.798,0.06,1.194c-0.856,0.779-1.642,1.698-2.626,2.26c-2.769,1.582-5.432,3.312-8.054,5.122
			c-0.644,0.445-0.89,0.861-0.886,1.582c0.017,2.646-0.005,5.291,0.021,7.937c0.004,0.357,0.089,0.848,0.328,1.05
			c1.583,1.341,3.241,2.594,4.826,3.934c0.534,0.452,0.733,0.369,1.215-0.115c1.516-1.527,2.697-3.371,4.19-4.846
			c2.124-2.098,2.744-4.478,2.735-7.243c-0.009-2.842-0.036-5.688,0.031-8.531c0.054-2.287,0.221-4.573,0.369-6.857
			c0.086-1.332-0.366-2.196-1.667-2.776c-1.715-0.765-3.299-1.818-4.994-2.633c-0.945-0.454-1.522-0.983-1.761-2.075
			c-0.264-1.208-0.654-2.365-0.781-3.629c-0.126-1.262-0.627-2.512-1.117-3.705c-0.562-1.369-0.538-1.82,0.634-2.664
			c1.272-0.916,2.553-1.82,3.854-2.694c0.866-0.582,1.785-0.834,2.763-0.191c0.546,0.36,1.102,0.71,1.68,1.015
			C59.056,34.127,59.825,34.468,60.583,34.83z M126.962,74.138c0.105-2.443-0.132-4.743-1.743-6.731
			c-0.202-0.248-0.287-0.589-0.437-0.881c-0.503-0.987-0.995-1.979-1.517-2.955c-1.074-2.019-2.16-4.032-3.247-6.043
			c-1.205-2.229-2.405-4.461-3.628-6.682c-1.54-2.795-3.226-5.519-4.623-8.383c-1.734-3.557-3.874-6.894-5.444-10.546
			c-0.965-2.242-2.478-4.243-3.657-6.399c-1.434-2.621-2.757-5.301-4.161-7.939c-1.261-2.37-2.655-4.672-3.829-7.084
			c-1.191-2.452-2.352-4.848-5.193-5.793c-0.236-0.079-0.428-0.298-0.636-0.457c-0.995-0.762-1.686-0.626-1.912,0.553
			c-0.651,3.379-2.488,6.305-3.516,9.539c-0.628,1.977-1.536,3.862-2.247,5.814c-0.161,0.442-0.2,1.082,0.002,1.479
			c1.084,2.121,2.197,4.232,3.425,6.273c1.779,2.955,3.369,5.997,4.86,9.109c1.124,2.344,2.594,4.522,3.922,6.767
			c0.992,1.676,2.054,3.313,2.997,5.016c1.098,1.986,2.08,4.036,3.151,6.037c0.939,1.756,1.925,3.488,2.907,5.221
			c1.822,3.222,3.659,6.437,5.489,9.654c1.162,2.042,2.295,4.1,3.505,6.112c0.317,0.526,0.802,1.037,1.333,1.337
			c2.368,1.337,4.766,2.621,7.186,3.862c0.737,0.38,1.617,0.864,2.359,0.766c1.132-0.148,2.202-0.76,3.297-1.182
			c0.539-0.208,0.773-0.56,0.817-1.188C126.544,77.65,126.775,75.896,126.962,74.138z M22.875,96.258
			c0.004,0.058,0.009,0.115,0.014,0.174c2.354-0.19,4.706-0.436,7.064-0.557c3.547-0.183,7.098-0.279,10.648-0.412
			c1.23-0.047,1.75-0.38,1.963-1.492c0.332-1.73,0.641-3.47,0.833-5.221c0.207-1.877,0.667-2.349,2.57-2.428
			c1.635-0.068,2.863,0.838,4.147,1.614c1.77,1.072,3.472,2.269,5.299,3.226c0.9,0.472,1.702,0.896,2.155,1.838
			c0.536,1.114,1.518,1.386,2.641,1.26c0.646-0.071,1.275-0.325,1.92-0.36c3.085-0.166,6.172-0.305,9.26-0.416
			c2.543-0.091,5.089-0.118,7.632-0.209c0.307-0.011,0.639-0.193,0.901-0.376c0.645-0.448,1.269-0.929,1.877-1.426
			c2.168-1.768,4.379-3.489,6.469-5.348c1.278-1.137,2.799-2.09,3.04-4.127c0.29-2.445,0.897-4.85,1.289-7.285
			c0.059-0.361-0.197-0.952-0.501-1.161c-1.123-0.782-2.352-1.417-3.496-2.174c-0.797-0.526-1.346-0.277-1.86,0.375
			c-1.138,1.439-2.239,2.907-3.424,4.306c-1.092,1.288-2.323,2.457-3.403,3.754c-2.459,2.954-4.892,5.931-7.271,8.947
			c-0.71,0.899-1.566,0.519-2.354,0.477c-0.806-0.043-0.933-0.826-1.034-1.472c-0.071-0.453-0.026-0.923-0.028-1.386
			c-0.008-1.495,0.032-2.991-0.031-4.483c-0.078-1.86-0.287-3.716-0.353-5.577c-0.063-1.783-0.05-3.57-0.002-5.355
			c0.023-0.881-0.337-1.188-1.167-1.116c-1.697,0.146-3.398,0.248-5.089,0.443c-0.257,0.03-0.573,0.437-0.671,0.731
			c-0.118,0.358-0.091,0.794-0.028,1.18c0.213,1.325-0.365,2.264-1.324,3.098c-0.644,0.561-1.303,1.162-1.762,1.868
			c-1.328,2.049-3.068,3.719-4.773,5.419c-1.126,1.123-2.015,1.017-3.124-0.234c-0.261-0.295-0.519-0.599-0.818-0.853
			c-1.488-1.267-3.061-2.446-4.449-3.812c-0.549-0.54-0.767-1.469-0.998-2.259c-0.143-0.488-0.022-1.052-0.03-1.58
			c-0.024-1.605-0.028-1.66-1.642-1.604c-2.625,0.09-5.248,0.259-7.871,0.401c-0.192,0.011-0.383,0.085-0.571,0.138
			c-1.176,0.339-1.166,0.338-0.943,1.539c0.072,0.387,0.116,0.788,0.097,1.179c-0.122,2.491-0.214,4.987-0.442,7.47
			c-0.052,0.562-0.513,1.172-0.948,1.592c-0.606,0.584-1.341,1.048-2.062,1.497c-1.919,1.194-3.859,2.357-5.795,3.524
			c-0.616,0.372-1.221,0.783-1.879,1.06c-1.484,0.624-3.34,0.072-4.007-1.167c-1.109-2.061-2.201-4.129-3.271-6.208
			c-0.53-1.033-0.551-1.096-1.468-0.518c-1.587,1.001-3.149,2.041-4.707,3.086c-1.902,1.276-1.928,1.349-0.254,2.878
			c2.403,2.193,4.859,4.33,7.286,6.498c0.853,0.763,1.767,1.193,2.98,1.072C20.353,96.161,21.619,96.258,22.875,96.258z
			 M43.442,98.313c0.199,0.688,0.309,1.545,0.678,2.268c1.944,3.814,3.955,7.596,5.938,11.39c1.646,3.148,3.264,6.311,4.946,9.439
			c0.292,0.544,0.766,1.074,1.289,1.392c0.833,0.506,1.76,0.872,2.678,1.216c1.027,0.385,2.15,1.071,3.117,0.917
			c1.374-0.22,2.702-0.99,3.923-1.734c0.396-0.242,0.387-1.144,0.574-1.739c0.137-0.437,0.311-0.862,0.439-1.302
			c0.521-1.787,0.627-3.426-0.389-5.227c-2.274-4.03-4.885-7.883-6.589-12.232c-0.614-1.565-1.512-3.024-2.339-4.498
			c-1.003-1.789-1.736-3.72-3.823-4.753c-2.199-1.089-4.219-2.539-6.328-3.814c-2.087-1.265-2.242-1.22-2.743,1.185
			c-0.359,1.724-0.566,3.479-0.866,5.215C43.828,96.737,43.642,97.429,43.442,98.313z M53.953,58.027
			c-0.506-0.562-0.777-0.927-1.111-1.222c-0.833-0.739-1.7-1.439-2.543-2.166c-0.929-0.8-1.868-1.588-2.761-2.426
			c-0.711-0.668-1.463-0.769-2.36-0.457c-0.737,0.256-1.5,0.452-2.264,0.613c-1.838,0.388-3.69,0.711-5.524,1.116
			c-1.717,0.379-3.417,0.838-5.128,1.247c-1.198,0.286-2.394,0.587-3.604,0.808c-1.155,0.209-2.349,0.233-3.488,0.5
			c-1.841,0.431-3.614,1.133-5.552,1.145c-0.481,0.002-1.102,0.243-1.418,0.591c-1.721,1.9-3.368,3.867-5.034,5.816
			c-0.082,0.096-0.084,0.258-0.165,0.354c-0.436,0.525-0.288,0.947,0.187,1.347c1.739,1.464,3.456,2.957,5.227,4.382
			c0.311,0.25,0.922,0.432,1.255,0.297c1.305-0.524,2.677-0.561,4.023-0.809c3.456-0.635,6.867-1.507,10.307-2.234
			c1.657-0.35,3.352-0.521,5.001-0.898c1.242-0.284,2.513-0.621,3.637-1.196c1.846-0.947,3.588-2.095,5.364-3.175
			c1.732-1.055,3.45-2.132,5.177-3.195C53.401,58.324,53.635,58.204,53.953,58.027z M85.88,60.188
			c-0.04,0.001-0.082,0.001-0.122,0.002c-0.093-2.03-0.027-4.083-0.331-6.082c-0.209-1.37-0.58-2.874-1.915-3.724
			c-2.201-1.4-4.42-2.774-6.666-4.1c-2.244-1.325-4.438-2.736-6.665-4.073c-3.109-1.868-6.419-3.413-9.504-5.354
			c-1.146-0.721-2.386-1.293-3.583-1.934c-1.223,0.728-2.468,1.421-3.661,2.194c-1.26,0.816-1.32,1.168-0.799,2.575
			c0.454,1.222,0.967,2.437,1.252,3.701c0.181,0.803,0.547,1.277,1.21,1.665c2.923,1.708,5.834,3.436,8.748,5.158
			c0.942,0.557,1.872,1.135,2.824,1.674c2.086,1.181,4.189,2.331,6.271,3.515c2.414,1.373,4.81,2.78,7.226,4.151
			c1.417,0.805,2.841,1.601,4.292,2.336c0.784,0.398,1.279,0.112,1.416-0.716C85.924,60.855,85.88,60.518,85.88,60.188z
			 M81.912,29.735c-1.315,0.243-2.409,0.422-3.491,0.648c-2.107,0.438-4.215,0.88-6.311,1.363c-2.541,0.586-5.076,1.203-7.606,1.833
			c-0.611,0.152-1.358,0.184-1.426,1.094c-0.065,0.886-0.06,1.734,0.825,2.269c0.729,0.44,1.45,0.894,2.188,1.318
			c3.478,2.002,6.97,3.977,10.435,6.001c2.647,1.548,5.253,3.169,7.895,4.73c1.082,0.639,1.273,0.545,1.997-0.582
			c0.24-0.375,0.57-0.691,0.828-1.058c0.788-1.123,1.603-2.231,2.312-3.402c0.184-0.303,0.169-0.892-0.004-1.218
			c-0.842-1.593-1.782-3.133-2.662-4.707c-1.397-2.5-2.762-5.018-4.177-7.507C82.515,30.165,82.114,29.925,81.912,29.735z
			 M71.8,76.304c0,1.785-0.034,3.572,0.016,5.356c0.022,0.773,0.241,1.539,0.33,2.314c0.069,0.599,0.26,0.695,0.655,0.222
			c1.911-2.29,3.939-4.497,5.702-6.896c2.735-3.724,6.008-7.012,8.441-10.991c1.467-2.396,3.831-4.202,5.03-6.844
			c0.134-0.294,0.325-0.577,0.547-0.813c1.01-1.075,2.022-2.15,3.071-3.187c0.604-0.597,0.694-1.041,0.193-1.86
			c-1.547-2.523-2.938-5.142-4.381-7.729c-0.393-0.703-0.798-0.756-1.344-0.08c-0.978,1.213-1.939,2.44-2.87,3.691
			c-0.173,0.232-0.331,0.713-0.213,0.888c0.8,1.182,0.513,2.55,0.781,3.812c0.592,2.786,0.789,5.582,0.718,8.414
			c-0.051,2.024-2.116,3.307-3.925,2.381c-1.741-0.893-3.485-1.792-5.165-2.794c-1.242-0.742-1.687-0.488-2.451,0.477
			c-1.418,1.789-2.854,3.564-4.258,5.362c-0.661,0.85-0.971,1.787-0.905,2.919C71.876,72.727,71.8,74.517,71.8,76.304z
			 M76.681,96.343c-2.598,0.176-5.018,0.42-7.441,0.483c-2.688,0.07-5.089,0.851-7.324,2.331c-0.561,0.371-0.731,0.613-0.422,1.202
			c0.942,1.784,1.864,3.579,2.787,5.375c0.337,0.653,0.882,0.521,1.327,0.267c1.419-0.812,2.794-1.701,4.201-2.533
			c4.189-2.479,8.383-4.947,12.58-7.413c3.876-2.275,7.761-4.534,11.636-6.811c3.741-2.197,7.477-4.404,11.213-6.609
			c1.352-0.798,2.699-1.605,4.045-2.415c0.745-0.446,0.87-1.046,0.46-1.81c-0.799-1.488-1.597-2.978-2.343-4.493
			c-0.28-0.57-0.729-0.562-1.156-0.429c-0.557,0.175-1.092,0.458-1.602,0.752c-3.2,1.849-6.4,3.7-9.581,5.583
			c-0.611,0.361-1.426,0.749-1.648,1.319c-0.49,1.259-0.802,2.63-0.925,3.979c-0.104,1.152-0.566,1.948-1.415,2.643
			c-2.52,2.061-5.035,4.125-7.527,6.221C81.504,95.702,79.437,97.283,76.681,96.343z M63.509,32.406
			c1.726-0.327,3.518-0.463,5.164-1.026c2.186-0.746,4.439-0.998,6.667-1.453c1.788-0.365,3.557-0.83,5.315-1.316
			c0.569-0.157,1.027-0.352,0.443-1.218c-1.192-1.771-2.208-3.668-3.19-5.567c-0.272-0.527-0.348-1.287-0.209-1.867
			c0.223-0.93,0.705-1.796,1.066-2.693c0.371-0.922,0.203-1.181-0.775-0.99c-1.724,0.336-3.436,0.746-5.147,1.146
			c-1.648,0.385-3.283,0.838-4.939,1.185c-2.869,0.599-5.764,1.082-8.624,1.721c-2.7,0.603-2.659,0.65-1.47,3.141
			c0.446,0.935,0.648,1.987,1.104,2.916c0.78,1.588,1.75,3.084,2.487,4.689C61.855,32.059,62.399,32.57,63.509,32.406z
			 M93.938,77.167c0.033,0.006,0.066,0.012,0.098,0.018c0,0.199-0.007,0.396,0.002,0.594c0.049,1.012,0.07,1.047,0.922,0.551
			c3.238-1.884,6.463-3.788,9.689-5.692c1.342-0.792,1.377-1.052,0.634-2.341c-1.366-2.368-2.678-4.77-4.036-7.142
			c-0.808-1.408-1.643-2.801-2.498-4.18c-0.623-1.005-0.86-1.047-1.392-0.169c-1.37,2.259-3.231,4.105-4.954,6.071
			c-0.949,1.084-1.922,2.149-2.834,3.264c-0.876,1.068-0.824,1.319,0.364,2.074c0.967,0.614,1.984,1.151,2.958,1.756
			c1.452,0.898,1.751,1.658,1.393,3.28C94.144,75.885,94.052,76.528,93.938,77.167z M61.75,64.698
			c0.042,0.004,0.083,0.007,0.125,0.01c0,0.792-0.015,1.584,0.003,2.375c0.03,1.331,0.038,1.354,1.276,1.375
			c1.517,0.024,3.039,0.079,4.551-0.016c1.637-0.102,3.174-0.49,4.306-1.887c1.312-1.619,2.74-3.144,4.081-4.74
			c0.695-0.827,0.671-1.029-0.301-1.59c-2.753-1.585-5.528-3.133-8.31-4.67c-1.313-0.726-2.672-1.369-3.985-2.092
			c-0.634-0.349-0.779-0.134-0.83,0.488C62.374,57.535,62.058,61.117,61.75,64.698z M32.704,32.96
			c0.242,0.713,0.271,1.721,0.77,2.08c1.183,0.854,2.542,1.527,3.916,2.042c1.94,0.727,3.801-0.226,5.683-0.583
			c0.792-0.15,1.215-0.506,1.167-1.458c-0.095-1.842,0.003-3.693-0.04-5.538c-0.021-0.873,0.241-1.4,1.04-1.889
			c2.382-1.457,4.612-3.136,6.53-5.19c0.106-0.114,0.153-0.283,0.228-0.427c-0.174,0.005-0.354-0.019-0.521,0.018
			c-3.3,0.722-6.605,1.418-9.892,2.197c-1.127,0.268-2.427,0.484-3.257,1.187c-1.564,1.323-2.896,2.938-4.224,4.517
			C33.406,30.745,32.577,31.615,32.704,32.96z M36.63,121.694c0.57-0.277,0.93-0.435,1.274-0.621
			c3.772-2.049,7.531-4.122,11.326-6.131c0.536-0.284,0.452-0.461,0.243-0.858c-0.547-1.046-1.041-2.12-1.593-3.163
			c-1.834-3.467-1.333-3.232-4.932-1.262c-0.226,0.123-0.412,0.327-0.6,0.51c-2.724,2.629-4.959,5.657-7.148,8.727
			c-0.372,0.521-0.392,0.952,0.043,1.4C35.717,120.786,36.203,121.265,36.63,121.694z M33.694,71.604
			c3.454-0.27,6.703-0.507,9.947-0.802c0.317-0.029,0.808-0.368,0.86-0.634c0.107-0.55-0.017-1.147-0.076-1.722
			c-0.006-0.06-0.218-0.148-0.328-0.14c-1.472,0.118-2.962,0.148-4.411,0.404c-2.485,0.441-4.942,1.037-7.417,1.544
			c-0.639,0.131-0.459,0.414-0.273,0.817C32.43,72.009,33.261,71.482,33.694,71.604z M69.1,95.498
			c0.606-0.04,1.193-0.078,1.779-0.116c-0.616-0.041-1.231-0.11-1.85-0.113c-0.557-0.002-1.114,0.068-1.671,0.106
			C67.943,95.416,68.529,95.458,69.1,95.498z M60.554,98.232c0.406-0.298,0.8-0.586,1.193-0.876
			c-0.087-0.035-0.172-0.077-0.262-0.104c-0.586-0.178-1.186,0.116-1.146,0.569C60.35,97.931,60.447,98.033,60.554,98.232z
			 M28.021,97.246c-0.193,0-0.386-0.011-0.578,0.003c-0.19,0.012-0.379,0.047-0.567,0.073c0.209,0.042,0.418,0.108,0.629,0.12
			c0.385,0.019,0.772,0.02,1.157-0.003c0.173-0.011,0.342-0.095,0.514-0.146c-0.192-0.016-0.383-0.039-0.575-0.046
			C28.408,97.239,28.215,97.245,28.021,97.246z M19.273,97.867c0.287-0.031,0.544-0.058,0.801-0.086
			c-0.238-0.046-0.476-0.129-0.714-0.129c-0.275-0.001-0.55,0.072-0.825,0.112C18.789,97.8,19.043,97.835,19.273,97.867z
			 M108.448,82.097c-0.115,0.173-0.216,0.325-0.317,0.478c0.095,0.034,0.21,0.121,0.28,0.094c0.105-0.041,0.194-0.153,0.259-0.255
			C108.686,82.386,108.584,82.286,108.448,82.097z M82.345,13.184c-0.087-0.092-0.136-0.144-0.184-0.195
			c-0.074,0.167-0.152,0.333-0.216,0.505c-0.005,0.014,0.087,0.064,0.133,0.098C82.169,13.452,82.26,13.312,82.345,13.184z
			 M31.72,97.38c-0.18-0.056-0.294-0.122-0.41-0.122c-0.177-0.001-0.355,0.043-0.533,0.067c0.114,0.039,0.227,0.105,0.342,0.109
			C31.297,97.442,31.478,97.405,31.72,97.38z M80.501,98.694c0.012-0.049,0.025-0.101,0.038-0.149
			c-0.109,0.021-0.224,0.034-0.327,0.07c-0.018,0.005,0.003,0.117,0.006,0.179C80.312,98.761,80.407,98.728,80.501,98.694z
			 M88.143,94.232c-0.092,0.087-0.186,0.17-0.268,0.263c-0.008,0.009,0.055,0.08,0.085,0.121c0.088-0.071,0.184-0.136,0.256-0.22
			C88.233,94.378,88.171,94.291,88.143,94.232z M86.81,94.918c-0.087,0.07-0.186,0.132-0.256,0.216
			c-0.021,0.022,0.038,0.112,0.061,0.171c0.096-0.086,0.194-0.168,0.282-0.26C86.904,95.037,86.841,94.961,86.81,94.918z
			 M9.231,68.823c0.093,0.09,0.185,0.177,0.277,0.265c0.033-0.05,0.104-0.134,0.093-0.146c-0.071-0.086-0.157-0.159-0.247-0.226
			C9.346,68.71,9.28,68.78,9.231,68.823z M111.087,81.107c0.047-0.099,0.096-0.197,0.144-0.296
			c-0.045-0.012-0.119-0.044-0.132-0.027c-0.071,0.085-0.128,0.183-0.189,0.275C110.969,81.076,111.026,81.092,111.087,81.107z
			 M40.231,96.973c0.052,0.013,0.104,0.025,0.155,0.039c-0.033-0.042-0.067-0.084-0.101-0.127
			C40.268,96.914,40.25,96.943,40.231,96.973z M78.832,99.79c0.051-0.014,0.103-0.026,0.153-0.041
			c-0.043-0.027-0.085-0.07-0.133-0.076s-0.101,0.024-0.152,0.038C78.744,99.737,78.788,99.765,78.832,99.79z M82.599,11.679
			c-0.013,0.051-0.025,0.104-0.039,0.155c0.042-0.034,0.084-0.067,0.127-0.101C82.656,11.715,82.628,11.697,82.599,11.679z
			 M30.909,69.188c-0.015-0.031-0.029-0.087-0.046-0.087c-0.053-0.004-0.108,0.014-0.162,0.024c0.016,0.03,0.03,0.086,0.047,0.087
			C30.801,69.215,30.854,69.197,30.909,69.188z"/>
		<path fill-rule="evenodd" clip-rule="evenodd" d="M125.112,79.738c0.044,0.048,0.124,0.099,0.121,0.145
			c-0.002,0.046-0.087,0.087-0.135,0.131c-0.044-0.048-0.123-0.099-0.121-0.145S125.064,79.781,125.112,79.738z"/>
	</g>
</g>
</svg>
