<?xml version="1.0" encoding="utf-8"?>
<!-- Generator: Adobe Illustrator 16.0.4, SVG Export Plug-In . SVG Version: 6.00 Build 0)  -->
<!DOCTYPE svg PUBLIC "-//W3C//DTD SVG 1.1//EN" "http://www.w3.org/Graphics/SVG/1.1/DTD/svg11.dtd">
<svg version="1.1" id="Layer_2510" xmlns="http://www.w3.org/2000/svg" xmlns:xlink="http://www.w3.org/1999/xlink" x="0px" y="0px"
	 width="128px" height="128px" viewBox="0 0 128 128" enable-background="new 0 0 128 128" xml:space="preserve">
<path d="M114.961,45.503c-0.239-0.843-0.4-1.564-0.497-2.206c-0.157-1.057-0.372-2.111-0.581-3.13l-0.202-1.005
	c-0.714-3.602-1.416-7.206-2.119-10.81l-0.253-1.297c-0.08-0.414-0.216-0.772-0.416-1.095l-0.403-0.655
	c-0.661-1.071-1.32-2.142-1.988-3.208l-0.854-1.37c-1.007-1.612-2.012-3.226-3.046-4.819c-0.121-0.186-0.236-0.375-0.352-0.565
	c-0.534-0.873-1.085-1.775-2.079-2.367c-0.39-0.232-0.741-0.527-1.113-0.84l-1.944-1.703c-0.889-0.803-1.789-1.593-2.69-2.382
	L95.641,7.36c-0.155-0.146-0.331-0.312-0.571-0.416c-0.611-0.265-1.218-0.586-1.806-0.897C92.926,5.869,92.59,5.69,92.249,5.52
	C91.58,5.186,90.9,4.87,90.222,4.555c-1.309-0.608-2.661-1.237-3.903-1.991C85.02,1.777,83.583,1.42,81.66,1.407
	c-1.413-0.011-2.888-0.069-4.511-0.176c-1.658-0.111-3.318-0.184-4.978-0.257c-1.483-0.066-2.967-0.131-4.449-0.224
	c-1.866-0.116-3.733-0.227-5.601-0.326c-3.511-0.187-6.704-0.389-9.763-0.617c-1.19-0.09-2.333,0.13-3.378,0.372
	c-1.814,0.421-3.625,0.849-5.438,1.278l-3.734,0.884c-1.567,0.373-3.135,0.747-4.707,1.102c-0.867,0.196-1.59,0.653-2.21,1.396
	c-0.693,0.83-1.358,1.681-2.024,2.531c-0.718,0.918-1.437,1.836-2.189,2.728c-0.521,0.618-1.018,1.259-1.512,1.9
	c-0.636,0.824-1.293,1.675-1.994,2.451c-1.479,1.639-2.645,3.5-3.773,5.299c-0.33,0.526-0.66,1.053-0.998,1.574
	c-0.368,0.566-0.719,1.145-1.07,1.722c-0.434,0.713-0.867,1.426-1.332,2.118l-0.076,0.113c-0.471,0.701-0.958,1.425-1.282,2.253
	c-1.116,2.848-2.316,5.719-3.478,8.496l-0.066,0.16c-0.242,0.578-0.355,1.077-0.356,1.573c-0.001,0.513-0.005,1.026-0.011,1.54
	c-0.012,1.292-0.024,2.626,0.029,3.944c0.073,1.796,0.084,3.626,0.095,5.397c0.009,1.511,0.019,3.022,0.064,4.533
	c0.047,1.557,0.053,3.115,0.059,4.674c0.003,0.803,0.006,1.607,0.015,2.41l0.084,6.739c0.01,0.911,0.007,1.824,0.004,2.763
	c-0.007,2.196-0.014,4.469,0.135,7.226l-0.002,8.044c-0.001,0.477,0.022,1.107,0.204,1.754c0.31,1.109,0.619,2.218,0.889,3.334
	c0.553,2.29,1.077,4.361,1.603,6.337c0.537,2.012,1.048,4.031,1.56,6.049l0.466,1.838c0.11,0.432,0.257,0.814,0.45,1.172
	l0.447,0.825c0.402,0.739,0.804,1.479,1.182,2.231c1.708,3.402,3.576,7.001,5.96,10.32c0.32,0.446,0.74,0.946,1.424,1.286
	c0.597,0.295,1.2,0.578,1.803,0.86c0.427,0.2,0.853,0.398,1.277,0.604c2.439,1.176,4.892,2.325,7.343,3.476l3.503,1.646
	c0.563,0.266,1.102,0.399,1.647,0.406c0.577,0.008,1.153,0.011,1.729,0.014c0.675,0.003,1.351,0.008,2.047,0.02
	c0.204,0,0.381-0.046,0.537-0.085c0.107-0.027,0.207-0.454,0.347-0.444c0.701,0.22,1.4-0.168,2.077-0.168h0.109
	c2.259,0,4.558,0.506,6.779,0.588l2.081,0.273c4.43,0.15,8.859,0.417,13.289,0.583l4.168,0.206c0.156,0.006,0.312,0.036,0.468,0.036
	c0.232,0,0.465,0,0.697-0.04l1.006-0.169c1.435-0.25,2.869-0.499,4.304-0.74c0.981-0.166,1.961-0.339,2.94-0.513
	c1.847-0.328,3.757-0.666,5.642-0.938c1.074-0.154,2.144-0.337,3.213-0.52l0.44-0.076c0.949-0.162,1.654-0.56,2.222-1.25
	c0.904-1.101,1.74-2.27,2.55-3.4c0.682-0.952,1.387-1.937,2.122-2.866c1.035-1.308,2.043-2.666,3.019-3.979
	c0.574-0.775,1.148-1.549,1.732-2.317c1.636-2.157,3.26-4.377,4.832-6.523l0.577-0.789c0.35-0.479,0.554-0.981,0.621-1.537
	l0.308-2.435c0.144-1.135,0.288-2.27,0.425-3.405c0.213-1.776,0.418-3.555,0.624-5.332l0.363-3.129
	c0.048-0.417,0.106-0.835,0.164-1.252c0.122-0.889,0.249-1.81,0.29-2.73c0.054-1.229,0.068-2.461,0.084-3.694
	c0.009-0.781,0.018-1.563,0.037-2.347c0.046-1.876,0.057-3.754,0.064-5.629c0.01-2.089,0.021-4.248,0.086-6.369
	c0.05-1.645,0.049-3.316,0.048-4.931c0-1.198-0.002-2.396,0.018-3.593c0.022-1.334,0.065-2.667,0.109-4
	c0.039-1.194,0.078-2.388,0.101-3.583l0.018-0.676C115.294,48.143,115.333,46.82,114.961,45.503z M50.834,125.449l-0.996,0.004
	c-1.547,0-2.952-0.094-4.507-0.194l-0.949-0.063c-0.043-0.002-0.065-0.005-0.1-0.008c0.018-0.028,0.046-0.058,0.07-0.092
	c0.961-1.398,1.949-2.787,2.932-4.175c0.62-0.875,1.241-1.75,1.854-2.627c0.165-0.235,0.369-0.337,0.68-0.339l1.497-0.015
	c0.733-0.008,1.466-0.017,2.199-0.017c1.409,0,2.547,0.032,3.583,0.104c0.285,0.018,0.571,0.098,0.789,0.164
	c3.436,1.051,6.873,2.102,10.309,3.147c0.567,0.172,1.03,0.422,1.418,0.764c1.041,0.917,2.089,1.825,3.136,2.735l1.568,1.363
	c-1.923-0.025-3.879-0.098-5.971-0.219c-1.354-0.079-2.822-0.116-4.24-0.154l-1.588-0.044c-1.544-0.046-3.433-0.092-5.054-0.138
	c-1.621-0.047-2.963-0.092-4.963-0.137v-0.06L50.834,125.449z M15.047,68.072c-0.09-1.362-0.097-2.754-0.105-4.1
	c-0.003-0.659-0.16-1.316-0.172-1.975c-0.113-5.87-0.27-11.758-0.27-16.744v-0.198c0-2.197,0.159-4.469,0.049-6.709
	c-0.022-0.448,0.126-0.896,0.287-1.33c0.958-2.574,2.021-5.079,2.807-6.975l0.227-0.5c0.15-0.359,0.311-0.718,0.455-1.08
	c0.012-0.028,0.027-0.05,0.035-0.066l0.046,0.017c1.078,0.556,2.099,1.217,3.042,1.849c0.187,0.125,0.275,0.394,0.378,0.704
	c0.032,0.094,0.063,0.188,0.097,0.278c0.292,0.784,0.575,1.572,0.856,2.359c0.284,0.793,0.568,1.585,0.861,2.374
	c0.461,1.237,0.929,2.472,1.398,3.708c0.504,1.329,1.007,2.658,1.502,3.99c0.4,1.076,0.792,2.156,1.184,3.235
	c0.577,1.589,1.154,3.178,1.757,4.756c0.539,1.41,1.036,2.946,1.034,4.628c-0.005,4.321,0.02,8.842,0.043,13.236l0.016,2.902
	c0.001,0.244,0.013,0.434,0.027,0.678c0.016,0.262,0.036,0.587,0.049,1.121l0.022,0.312c0,1.261-0.004,2.557-0.008,3.877
	c-0.011,3.987-0.022,8.11,0.044,12.193c0.022,1.329-0.445,2.28-1.059,3.384c-0.5,0.901-1.002,1.782-1.504,2.663
	c-0.488,0.857-0.977,1.716-1.464,2.592l-2.994,5.359c-0.283,0.51-0.376,0.51-0.451,0.51c-0.145,0-0.376-0.073-0.537-0.127
	c-0.467-0.159-0.93-0.331-1.393-0.503c-0.358-0.133-0.715-0.265-1.073-0.392c-0.297-0.104-0.459-0.286-0.542-0.606l-1.934-7.337
	c-0.544-2.079-1.08-4.162-1.614-6.244c-0.088-0.344-0.182-0.687-0.276-1.029c-0.231-0.841-0.47-1.71-0.601-2.564
	c-0.145-0.954-0.153-1.965-0.16-2.942l-0.004-0.45c-0.017-1.521-0.015-3.043-0.013-4.563c0.002-2.23,0.005-4.537-0.052-6.809
	c-0.013-0.487,0.001-0.979,0.014-1.468C15.072,69.425,15.091,68.742,15.047,68.072z M112.66,44.157
	c0.057,0.29,0.114,0.584,0.164,0.877c-0.163-0.137-0.321-0.284-0.486-0.437l-0.329-0.3c-0.776-0.692-1.542-1.396-2.307-2.101
	c-0.47-0.431-0.938-0.862-1.408-1.29l-2.021-1.827c-0.993-0.896-1.988-1.792-2.974-2.696c-0.855-0.783-1.705-1.573-2.554-2.362
	c-1.006-0.934-2.012-1.869-3.025-2.792c-0.398-0.364-0.644-0.821-0.769-1.437c-0.298-1.463-0.612-2.922-0.951-4.377
	c-0.193-0.831-0.328-1.707-0.45-2.533c-0.026-0.187,0.043-0.396,0.246-0.724l0.605-0.987c0.428-0.699,0.855-1.397,1.293-2.091
	c0.085-0.136,0.143-0.22,0.182-0.271c0.052,0.03,0.133,0.082,0.256,0.17c1.518,1.088,2.996,2.16,4.416,3.293
	c1.079,0.863,2.183,1.697,3.285,2.531c0.974,0.737,1.946,1.473,2.904,2.229c0.485,0.382,0.741,0.826,0.883,1.531
	c0.17,0.84,0.336,1.682,0.501,2.523c0.298,1.501,0.594,3.002,0.911,4.5c0.516,2.424,1.051,5.004,1.442,7.554
	C112.526,43.48,112.593,43.815,112.66,44.157z M76.798,125.689c-0.109,0-0.472-0.292-0.627-0.417
	c-1.385-1.118-2.843-2.378-4.586-3.964c-0.083-0.076-0.135-0.13-0.167-0.166c0.038-0.04,0.102-0.1,0.206-0.186
	c0.9-0.739,1.806-1.475,2.71-2.21l2.021-1.645c0.712-0.582,1.421-1.166,2.13-1.751c1.424-1.175,2.848-2.349,4.292-3.495
	c0.829-0.656,1.642-1.33,2.455-2.005c1.238-1.026,2.519-2.087,3.825-3.06c0.103-0.076,0.323-0.24,0.436-0.298
	c0.097,0.083,0.272,0.294,0.354,0.392c0.344,0.411,0.679,0.829,1.013,1.247l0.638,0.789c0.153,0.189,0.164,0.303,0.158,0.358
	l-0.137,0.679c-0.103,0.512-0.205,1.022-0.321,1.531c-0.076,0.333-0.138,0.669-0.2,1.007c-0.109,0.599-0.214,1.165-0.397,1.714
	c-0.123,0.371-0.302,0.639-0.575,0.867c-3.328,2.775-6.271,5.18-9.001,7.351c-0.434,0.345-0.859,0.699-1.284,1.055
	c-0.722,0.6-1.466,1.221-2.233,1.774C77.253,125.44,76.905,125.689,76.798,125.689z M94.044,8.612l0.169,0.514
	c0.001,0.001,0.027,0.024,0.056,0.121l0.315,1.06c0.252,0.851,0.503,1.701,0.776,2.543c0.045,0.142,0.395,1.432,0.439,1.623
	c0.173,0.752,0.381,1.497,0.588,2.24l0.049,0.177c0.056,0.199,0.043,0.338-0.045,0.48c-0.282,0.463-0.549,0.937-0.816,1.41
	c-0.518,0.917-1.054,1.866-1.754,2.779c-0.042,0.056-0.104,0.139-0.12,0.152c-0.657,0.152-1.315,0.297-1.974,0.441l-0.704,0.162
	c-0.152,0-0.291-0.083-0.506-0.249c-0.748-0.567-1.49-1.139-2.229-1.716l-0.258-0.177l-0.006,0.002l-1.014-0.766
	c-0.085-0.047-0.134-0.078-0.161-0.096l-1.061-0.839l-0.153-0.08c-0.045-0.014-0.097-0.045-0.158-0.093
	c-1.878-1.458-3.767-2.904-5.655-4.349l-1.267-0.97c-0.114-0.087-0.229-0.17-0.346-0.253c-0.094-0.068-0.188-0.136-0.29-0.212
	l2.807-0.631c1.207-0.271,2.416-0.522,3.626-0.774c1.336-0.278,2.673-0.555,4.004-0.86c1.282-0.293,2.604-0.541,3.882-0.781
	c0.578-0.108,1.155-0.217,1.73-0.33l0.126-0.021L94.044,8.612z M42.357,124.6c-0.103-0.035-0.41-0.328-0.511-0.424
	c-1.625-1.545-3.226-3.173-4.774-4.748l-0.237-0.242c-0.119-0.121-0.227-0.255-0.334-0.388l-0.094-0.115
	c-0.081-0.1-0.124-0.17,0.01-0.381l4.773-7.571c0.281-0.451,0.562-0.902,0.861-1.341c0.122-0.18,0.192-0.268,0.232-0.309
	c0.052,0.016,0.149,0.057,0.327,0.147c0.547,0.278,1.09,0.562,1.633,0.847c0.504,0.264,1.007,0.528,1.514,0.785
	c0.391,0.2,0.606,0.454,0.697,0.821c0.183,0.743,0.412,1.478,0.634,2.188c0.255,0.817,0.519,1.662,0.706,2.503l0.052,0.231
	c0.012,0.188-0.038,0.269-0.151,0.436c-1.48,2.18-3.21,4.706-5.019,7.104C42.418,124.482,42.312,124.582,42.357,124.6z
	 M34.365,117.343c-1.413-0.38-2.809-0.921-4.159-1.443L30,115.821c-0.219-0.086-0.375-0.239-0.536-0.53
	c-1.302-2.349-2.611-4.889-4.243-8.233c-0.244-0.502-0.247-0.845-0.009-1.265c0.53-0.937,1.045-1.884,1.56-2.829
	c0.423-0.778,0.847-1.557,1.279-2.33c0.767-1.373,1.543-2.741,2.32-4.108l1.307-2.307c0.041-0.072,0.13-0.23,0.214-0.363
	c0.091,0.124,0.191,0.272,0.236,0.341c1.313,1.973,2.563,4.037,3.772,6.033c0.981,1.621,1.995,3.296,3.041,4.919
	c0.362,0.562,0.709,1.134,1.057,1.705l0.467,0.766c0.088,0.143,0.142,0.234,0.144,0.383c0.005,0.044-0.073,0.168-0.125,0.25
	l-1.409,2.245c-1.012,1.614-2.023,3.229-3.046,4.833c-0.122,0.191-0.238,0.383-0.355,0.576c-0.274,0.454-0.534,0.884-0.851,1.273
	C34.54,117.526,34.504,117.383,34.365,117.343z M93.235,30.69c-0.231-0.957-0.452-1.916-0.65-2.879
	c-0.227-1.082-0.43-2.169-0.628-3.256c-0.047-0.255-0.056-0.368-0.086-0.368l0,0c0.042-0.022,0.148-0.058,0.399-0.117
	c0.402-0.095,0.808-0.176,1.215-0.242c0.09-0.015,0.166-0.026,0.231-0.031c0.015,0.047,0.034,0.121,0.061,0.238
	c0.377,1.772,0.737,3.548,1.091,5.325c0.018,0.09,0.04,0.18,0.062,0.27c0.051,0.206,0.095,0.384,0.074,0.54l0.02,0.267
	c0,0-0.025,0.025-0.112,0.048c-0.542,0.143-1.087,0.272-1.596,0.445C93.296,30.903,93.268,30.822,93.235,30.69z M83.938,19.549
	l1.399,0.989c0.572,0.46,1.163,0.897,1.752,1.335c0.817,0.605,1.662,1.231,2.436,1.906c0.296,0.257,0.451,0.517,0.493,0.814
	c0.169,1.222,0.436,2.435,0.692,3.607c0.193,0.887,0.389,1.772,0.542,2.667c0.025,0.143,0.059,0.285,0.072,0.315
	c0.021,0.307-0.06,0.472-0.22,0.668l-0.981,1.215c-0.608,0.754-1.216,1.508-1.831,2.257c-0.103,0.125-0.159,0.176-0.161,0.194
	c-0.031-0.013-0.097-0.048-0.222-0.14c-0.854-0.634-1.683-1.302-2.38-1.871c-1.554-1.27-3.102-2.548-4.649-3.825l-1.316-1.087
	c-1.642-1.353-3.283-2.707-4.919-4.066c-1.069-0.888-2.132-1.784-3.194-2.678l-0.661-0.558c-0.062-0.051-0.118-0.109-0.176-0.166
	c-0.076-0.077-0.154-0.153-0.238-0.224c-0.138-0.115-0.165-0.14-0.006-0.377c0.632-0.934,1.34-1.844,2.054-2.761
	c1.031-1.326,2.06-2.653,3.088-3.981c0.064-0.083,0.2-0.258,0.285-0.344c0.067,0.038,0.176,0.11,0.32,0.216l0.965,0.697
	c1.786,1.291,3.634,2.625,5.336,4.074c0.272,0.233,0.567,0.44,0.863,0.646C83.495,19.221,83.709,19.371,83.938,19.549z
	 M50.639,25.996c0.071-0.198,0.145-0.22,0.287-0.22l0.691,0.052c1.413,0.112,2.825,0.224,4.234,0.361
	c0.028,0.003,0.052,0.006,0.072,0.009c-0.007,0.027-0.017,0.061-0.03,0.101c-0.608,1.859-1.218,3.718-1.859,5.565
	c-0.188,0.539-0.188,0.539-0.823,0.539c-0.21,0-0.463-0.008-0.747-0.017l-0.944-0.07c-0.851-0.063-1.813-0.134-2.775-0.219
	c-0.104-0.01-0.178-0.02-0.229-0.028c0.011-0.053,0.029-0.127,0.061-0.231c0.414-1.375,0.923-2.749,1.416-4.078
	C50.21,27.172,50.428,26.584,50.639,25.996z M41.733,105.948c-0.956-1.588-1.968-3.174-2.947-4.708
	c-0.635-0.995-1.269-1.988-1.893-2.988c-0.467-0.751-0.919-1.509-1.372-2.269c-0.773-1.295-1.572-2.634-2.433-3.908
	c-0.444-0.657-1.38-1.278-1.378-2.067c0.01-4.241-0.211-30.389-0.211-30.419c0-1.321,0.471-2.642,0.468-3.962
	c-0.001-0.566,0.369-1.11,0.658-1.663l7.323-13.852c0.23-0.441,0.528-0.877,0.768-1.314c0.262-0.477,0.552-0.954,0.803-1.438
	c0.185-0.359,0.467-0.625,0.831-0.813c0.935-0.481,1.877-0.959,2.812-1.437l1.62-1.138c0.21-0.107,0.44-0.472,0.722-0.472
	c0,0,0,0,0.001,0c1.268,0,2.561,0.423,3.811,0.517c0.825,0.063,1.65,0.281,2.478,0.322c0.538,0.026,0.946,0.435,1.418,0.817
	c0.105,0.085,0.21,0.209,0.316,0.291c1.449,1.113,2.89,2.257,4.33,3.381l1.042,0.822c0.665,0.519,1.32,1.056,1.976,1.589
	c0.463,0.376,0.927,0.755,1.393,1.127c2.22,1.768,4.437,3.54,6.651,5.317c1.395,1.12,2.786,2.242,4.18,3.365l3.118,2.511
	c0.538,0.434,1.08,0.861,1.627,1.281c0.371,0.285,0.528,0.621,0.527,1.124c-0.01,3.481-0.004,6.962,0.01,10.445
	c0.003,0.722-0.404,8.603-0.375,9.937c0.02,0.985,0.312,4.387,0.314,5.1c0.001,0.508,0.056,1.017,0.053,1.526
	c-0.01,1.246,0.012,2.534,0.071,3.81c0.042,0.896-0.178,1.479-0.794,2.017l-2.626,2.302c-1.632,1.428-3.261,2.857-4.901,4.276
	c-0.996,0.863-1.987,1.732-2.979,2.602c-1.586,1.392-3.17,2.782-4.78,4.146c-0.775,0.656-1.543,1.319-2.312,1.982
	c-1.442,1.245-2.933,2.533-4.442,3.744c-0.449,0.359-0.885,0.748-1.319,1.136l-0.306,0.272c-0.255,0.227-0.559,0.327-1.048,0.348
	c-0.252,0.01-0.506,0.004-0.76-0.001c-0.648-0.014-1.357-0.049-2.133,0.24c-0.05,0.02-0.114,0.031-0.18,0.034
	c-0.698-0.294-1.399-0.332-1.933-0.332c-0.233,0-0.467,0.009-0.7,0.017c-0.221,0.008-0.442,0.016-0.663,0.016l-0.254-0.004
	c-0.64-0.021-1.137-0.144-1.609-0.396c-1.049-0.561-2.114-1.092-3.184-1.612C42.725,107.177,42.173,106.678,41.733,105.948z
	 M81.165,52.656c-0.045,0.125-0.089,0.25-0.146,0.37c-0.029,0.06-0.052,0.107-0.071,0.145c-0.035-0.021-0.078-0.049-0.133-0.084
	c-0.54-0.358-1.032-0.771-1.553-1.208c-0.342-0.286-0.684-0.572-1.037-0.842c-1.106-0.842-2.187-1.718-3.266-2.594
	c-1.178-0.955-2.396-1.942-3.632-2.872c-1.411-1.059-2.809-2.193-4.159-3.29c-0.701-0.568-1.4-1.136-2.105-1.697
	c-2.556-2.035-5.113-4.067-7.684-6.083c-0.376-0.296-0.724-0.623-1.071-0.948c-0.167-0.156-0.333-0.312-0.502-0.465
	c-0.04-0.037-0.116-0.105,0.025-0.525l0.411-1.217c0.29-0.851,0.579-1.702,0.849-2.559c0.202-0.639,0.439-1.262,0.677-1.885
	l0.083-0.219c0.133-0.35,0.312-0.532,0.662-0.673l0.354-0.142c3.03-1.217,6.162-2.475,9.288-3.586
	c0.118-0.042,0.24-0.076,0.332-0.102l0.034-0.01c0.188,0.003,0.298,0.066,0.453,0.194c2.128,1.738,4.256,3.472,6.388,5.204
	c1.735,1.409,3.451,2.839,5.168,4.27c1.829,1.523,3.658,3.048,5.508,4.546c0.421,0.34,0.897,0.726,0.939,0.844
	c0.002,0.058-0.077,0.256-0.148,0.432c-0.061,0.154-0.134,0.335-0.211,0.556c-1.371,3.892-2.878,7.724-4.306,11.315
	c-0.268,0.676-0.513,1.362-0.759,2.047L81.165,52.656z M70.959,16.479l-0.719,0.919c-0.276,0.355-0.531,0.728-0.784,1.099
	c-0.146,0.215-0.292,0.43-0.443,0.641c-0.423,0.591-1.001,1.05-1.626,1.292c-3.241,1.252-6.483,2.507-9.724,3.765
	c-0.333,0.129-0.799,0.104-1.256,0.06l-1.912-0.161c-0.866-0.07-1.731-0.141-2.596-0.218c-0.75-0.067-1.073-0.3-1.28-0.921
	c-0.305-0.915-0.632-1.821-0.959-2.727c-0.251-0.696-0.503-1.393-0.744-2.092c-0.419-1.218-0.845-2.335-1.302-3.414
	c-0.252-0.597-0.444-1.204-0.647-1.849c-0.091-0.289-0.182-0.577-0.278-0.864c-0.004-0.011-0.007-0.021-0.01-0.031
	c0.02-0.001,0.042-0.002,0.067-0.002c0.306-0.008,0.613-0.01,0.919-0.01l1.432,0.005c0.869-0.037,1.738,0.015,2.633,0.066
	c0.587,0.034,1.176,0.046,1.764,0.059c0.707,0.015,1.413,0.029,2.118,0.083c3.696,0.283,6.749,0.419,9.604,0.429
	c0.547,0.002,1.093,0.025,1.64,0.048c0.833,0.036,1.666,0.072,2.499,0.035c1.474-0.064,2.959-0.024,4.451,0.117
	C72.865,14.038,71.911,15.258,70.959,16.479z M39.834,35.587c0.033,0.098,0.056,0.199,0.087,0.34
	c-0.007,0.33-0.125,0.561-0.26,0.826L39.535,37c-0.87,1.707-1.74,3.414-2.632,5.109c-1.415,2.686-2.844,5.364-4.274,8.042
	l-0.153,0.287c-0.247,0.461-0.514,0.95-0.808,1.426c-0.394-0.94-0.748-1.872-1.045-2.669c-0.432-1.16-0.871-2.317-1.309-3.475
	c-0.391-1.031-0.781-2.062-1.168-3.094l-0.724-1.922c-0.729-1.931-1.483-3.927-2.162-5.909c-0.205-0.596-0.427-1.186-0.649-1.775
	c-0.297-0.788-0.604-1.604-0.859-2.416c-0.143-0.456-0.096-0.839,0.155-1.284c1.376-2.441,2.822-4.897,4.219-7.273l0.263-0.447
	c0.361-0.614,0.75-0.88,1.384-0.948c0.711-0.076,1.419-0.186,2.126-0.296c0.622-0.097,1.243-0.193,1.868-0.266
	c0.146-0.017,0.265-0.028,0.363-0.028c0.058,0,0.087,0.004,0.092,0.002c0.055,0.069,0.151,0.332,0.198,0.461l1.303,3.567
	c1.008,2.764,2.016,5.527,3.036,8.287c0.276,0.746,0.521,1.5,0.765,2.255L39.834,35.587z M57.339,110.621
	c0.518-0.428,1.023-0.869,1.529-1.312c0.545-0.477,1.089-0.953,1.65-1.41c0.887-0.725,1.752-1.493,2.589-2.238
	c0.582-0.517,1.163-1.034,1.755-1.538c1.598-1.364,3.184-2.742,4.769-4.119l11.003-9.553c0.096-0.085,0.192-0.17,0.292-0.245
	c0.038-0.03,0.069-0.054,0.096-0.072c0.017,0.03,0.037,0.065,0.06,0.11c0.733,1.42,1.461,2.842,2.188,4.264l2.058,4.008
	c0.913,1.771,1.859,3.602,2.73,5.428l0.271,0.577c0.079,0.17,0.109,0.269-0.168,0.507c-1.051,0.909-2.158,1.79-3.23,2.644
	c-0.535,0.426-1.07,0.853-1.602,1.284c-0.808,0.655-1.604,1.323-2.399,1.991c-0.726,0.609-1.45,1.218-2.184,1.816
	c-2.654,2.165-5.319,4.318-8.064,6.524c-0.306,0.246-0.571,0.461-0.944,0.501l-0.218-0.048c-0.22-0.046-0.46-0.097-0.692-0.172
	c-1.441-0.464-2.89-0.903-4.337-1.341c-1.824-0.552-3.708-1.122-5.541-1.735c-0.461-0.155-0.652-0.338-0.757-0.728
	c-0.436-1.609-0.822-2.914-1.215-4.104C56.827,111.217,56.912,110.973,57.339,110.621z M44.832,12.642
	c0.024,0.05,0.058,0.123,0.1,0.229c0.869,2.2,1.66,4.415,2.253,6.099c0.597,1.694,1.204,3.384,1.812,5.074
	c0.095,0.264,0.104,0.474,0.028,0.702c-0.753,2.271-1.583,4.601-2.539,7.123c-0.096,0.255-0.238,0.414-0.491,0.547
	c-0.791,0.419-1.577,0.848-2.364,1.276l-1.382,0.75c-0.086,0.046-0.181,0.076-0.317,0.122c-0.169,0.058-0.251,0.074-0.246,0.099
	c-0.017-0.024-0.053-0.084-0.107-0.221c-0.36-0.894-0.71-1.792-1.042-2.697c-1.145-3.127-2.288-6.254-3.411-9.388
	c-0.227-0.631-0.419-1.274-0.612-1.918l-0.231-0.763c-0.025-0.083-0.036-0.171-0.037-0.171c-0.015-0.185,0.021-0.217,0.241-0.418
	c0.862-0.801,1.819-1.533,2.745-2.242c0.422-0.323,0.844-0.646,1.26-0.976c0.833-0.662,1.685-1.302,2.535-1.941l0.896-0.674
	c0.231-0.175,0.468-0.347,0.715-0.498C44.723,12.7,44.786,12.666,44.832,12.642z M48.506,111.514c0.2-0.024,0.403-0.023,0.606-0.025
	c0.139,0,0.278-0.002,0.417-0.008c1.591-0.074,3.098-0.038,5.158,0.104c0.288,0.019,0.301,0.061,0.343,0.194
	c0.445,1.395,0.819,2.698,1.142,3.983c0.032,0.128,0.046,0.211,0.051,0.265c-0.054,0.009-0.142,0.019-0.279,0.021l-0.585,0.018
	c-0.777,0.026-1.504,0.055-2.378-0.022l-1.673-0.008c-0.393,0-0.786,0.005-1.221,0.016c-0.328,0-0.413-0.096-0.479-0.311
	l-0.303-0.976c-0.321-1.022-0.652-2.081-0.895-3.134c-0.009-0.04-0.016-0.073-0.021-0.102
	C48.42,111.526,48.458,111.52,48.506,111.514z M95.643,109.769c0,0.012-0.002,0.024-0.003,0.04
	c-0.144,1.321-0.448,2.735-0.932,4.324c-0.016,0.052-0.021,0.07-0.132,0.08c-0.255,0.022-0.511,0.036-0.765,0.048l-0.344,0.018
	c-0.434,0.019-0.747,0.015-0.878-0.002c0.018-0.119,0.059-0.297,0.097-0.461l0.094-0.418c0.134-0.629,0.282-1.255,0.43-1.882
	c0.105-0.449,0.212-1.072,0.313-1.521c0.068-0.306,0.135-0.494,0.336-0.494h0.119c0.263,0,0.525,0.152,0.787,0.131
	c0.229-0.021,0.456,0.047,0.775,0.047C95.579,109.678,95.62,109.769,95.643,109.769z M23.088,107.201
	c0.069,0.029,0.14,0.116,0.216,0.266l3.692,7.318l-1.603-0.545c-0.209-0.071-0.363-0.223-0.53-0.521
	c-0.661-1.175-1.359-2.432-1.997-3.728c-0.252-0.512-0.532-1.009-0.812-1.505c-0.362-0.643-0.737-1.308-1.032-1.987
	c-0.008-0.018-0.017-0.036-0.025-0.054C21.69,106.66,22.406,106.919,23.088,107.201z M113.134,57.835
	c-0.032,1.009-0.034,2.02-0.036,3.03c-0.002,1.05-0.004,2.099-0.04,3.146c-0.073,2.146-0.082,4.326-0.09,6.434
	c-0.008,1.855-0.015,3.711-0.064,5.565c-0.036,1.353-0.049,2.705-0.062,4.057c-0.007,0.777-0.015,1.556-0.026,2.334
	c-0.01,0.629-0.029,1.259-0.072,1.887c-0.018,0.257-0.105,0.494-0.268,0.726c-0.751,1.072-1.494,2.148-2.237,3.226
	c-0.748,1.083-1.496,2.167-2.251,3.247c-0.917,1.309-1.849,2.606-2.781,3.905l-3.042,4.244c-1.788,2.493-3.576,4.817-5.35,7.321
	c-0.357,0.506-0.721,0.543-1.286,0.543c-0.001,0-0.002,0-0.002,0l-0.196,0.166c-0.62,0-1.234,0.132-1.7,0.172
	c-0.353,0.032-0.573-0.008-0.774-0.28c-0.274-0.367-0.562-0.706-0.848-1.065c-0.498-0.624-1.013-1.26-1.438-1.931
	c-0.474-0.743-0.877-1.559-1.269-2.354c-0.163-0.329-0.326-0.657-0.493-0.984l-0.915-1.778c-1.123-2.182-2.244-4.362-3.352-6.552
	l-0.301-0.591c-0.602-1.187-1.226-2.413-1.745-3.654c-0.076-0.183-0.2-0.339-0.308-0.476c-0.062-0.077-0.842-3.046-0.932-4.416
	c-0.09-1.354-0.117-10.405-0.049-12.123c0.07-1.818,0.429-3.699,0.421-5.553c-0.011-2.751,0.215-5.552,0.296-8.261l0.134-2.154
	c0.008-0.343,0.174-0.707,0.317-1.081c0.845-2.212,1.718-4.425,2.573-6.638c0.929-2.404,1.866-4.809,2.783-7.213
	c0.193-0.508,0.399-1.016,0.601-1.524l0.337-0.855c0.31-0.792,0.859-1.441,1.437-2.129c0.194-0.23,0.388-0.459,0.571-0.695
	c0.333-0.423,0.679-0.838,1.023-1.252l0.549-0.661c0.327-0.4,0.638-0.597,1.033-0.659c0.595-0.092,1.224-0.238,1.866-0.434
	c0.179-0.054,0.349-0.082,0.505-0.082c0.376,0,0.713,0.157,1.061,0.493c0.568,0.551,1.155,1.082,1.742,1.612l2.075,1.873
	c1.024,0.923,2.049,1.846,3.062,2.783c0.626,0.579,1.258,1.152,1.892,1.724c1.047,0.947,2.093,1.893,3.11,2.872
	c0.967,0.933,1.962,1.836,2.958,2.739c0.439,0.4,0.881,0.8,1.318,1.202c0.254,0.232,0.361,0.454,0.361,0.74
	C113.237,51.64,113.231,54.732,113.134,57.835z M106.869,23.12c-0.826-0.618-1.64-1.251-2.455-1.883
	c-1.08-0.84-2.162-1.68-3.27-2.486c-0.229-0.167-0.454-0.35-0.678-0.532c-0.346-0.28-0.701-0.57-1.086-0.816
	c-0.873-0.559-1.256-1.418-1.539-2.264c-0.05-0.147-0.134-0.421-0.135-0.421l-0.6-2.625c-0.032-0.097-0.064-0.222-0.105-0.38
	c-0.035-0.14-0.078-0.303-0.131-0.491c-0.021-0.077-0.043-0.155-0.062-0.231c0.213,0.177,0.418,0.364,0.62,0.546l0.336,0.291
	l0.008-0.008l1.208,1.04c0.104,0.069,0.266,0.229,0.452,0.415c0.79,0.794,1.513,1.501,2.358,2.107
	c0.282,0.202,0.48,0.523,0.691,0.863l0.178,0.282c1.009,1.541,1.828,2.83,2.579,4.058c0.246,0.403,0.508,0.797,0.77,1.191
	C106.311,22.229,106.602,22.67,106.869,23.12z M91.549,7.637l-0.317,0.071c-0.65,0.146-1.298,0.299-1.947,0.452
	c-1.438,0.34-2.926,0.691-4.397,0.959c-1.414,0.258-2.821,0.549-4.229,0.84c-0.955,0.197-1.91,0.395-2.867,0.583
	c-1.386,0.271-2.753,0.281-4.201,0.291l-0.63,0.006l-1.895-0.055c-1.544-0.045-3.088-0.091-4.635-0.132
	c-1.276-0.034-2.552-0.085-3.828-0.136c-2.116-0.085-4.306-0.174-6.466-0.177c-0.718-0.001-1.437-0.038-2.155-0.075
	c-0.458-0.023-0.917-0.046-1.376-0.061c-2.003-0.064-4.006-0.121-6.009-0.171c-0.77-0.02-1.384-0.175-1.933-0.489
	c-2.732-1.562-5.191-2.978-7.608-4.508L37.04,5.025l0.071-0.02c1.518-0.465,3.1-0.827,4.629-1.178l0.912-0.21
	c0.78-0.181,1.56-0.37,2.339-0.558c1.69-0.409,3.438-0.832,5.171-1.169c0.847-0.165,1.869-0.186,2.908-0.126
	c1.853,0.106,3.706,0.222,5.558,0.338c1.831,0.114,3.66,0.229,5.49,0.334c1.218,0.071,2.437,0.125,3.655,0.179
	c1.026,0.046,2.054,0.091,3.08,0.146c1.336,0.072,2.671,0.15,4.007,0.229c1.757,0.103,3.513,0.206,5.27,0.295
	c0.349,0.018,0.698,0.031,1.047,0.044c0.661,0.025,1.321,0.051,1.981,0.105c0.438,0.036,0.762,0.114,1.05,0.253
	c2.874,1.385,5.297,2.581,7.688,3.873C91.779,7.586,91.665,7.611,91.549,7.637z M34.282,6.183c0.196-0.208,0.268-0.248,0.289-0.255
	c0.018,0.001,0.096,0.014,0.321,0.142c1.542,0.874,3.075,1.761,4.606,2.653c1.283,0.747,2.567,1.494,3.836,2.267
	c0.082,0.05,0.143,0.09,0.188,0.122c-0.037,0.035-0.087,0.079-0.154,0.133c-1.558,1.285-3.195,2.531-4.779,3.737
	c-0.624,0.476-1.248,0.951-1.87,1.43c-0.251,0.193-0.508,0.379-0.765,0.565c-0.319,0.231-0.639,0.461-0.947,0.707
	c-0.35,0.277-0.787,0.338-1.348,0.416l-4.812,0.659c-0.159,0-0.323-0.088-0.539-0.23c-0.656-0.433-1.429-0.953-2.184-1.523
	c-0.142-0.107-0.221-0.174-0.265-0.216c0.035-0.064,0.099-0.164,0.192-0.297c0.713-1.021,1.52-2.008,2.3-2.963
	c0.339-0.416,0.678-0.831,1.011-1.25c1.095-1.378,2.202-2.746,3.31-4.114l1.397-1.729C34.14,6.348,34.208,6.263,34.282,6.183z
	 M24.305,18.792l0.085-0.138c0.042-0.069,0.1-0.165,0.145-0.216c0.021,0.013,0.048,0.03,0.087,0.056l0.6,0.388
	c0.511,0.33,1.023,0.659,1.523,1.004c0.2,0.137,0.237,0.203,0.24,0.203c0,0.01-0.003,0.086-0.134,0.317
	c-1.544,2.738-2.979,5.196-4.383,7.515c-0.191,0.317-0.271,0.376-0.269,0.381c-0.021,0-0.114-0.014-0.408-0.185
	c-0.82-0.477-1.554-0.939-2.245-1.415c-0.133-0.091-0.153-0.144-0.153-0.144c0,0-0.004-0.053,0.078-0.19l0.177-0.305
	c0.079-0.14,0.158-0.28,0.246-0.416C21.361,23.36,22.83,21.074,24.305,18.792z M34.08,119.328c0.214,0.074,0.36,0.158,0.477,0.272
	l0.522,0.512c1.009,0.99,2.045,2.005,3.042,3.045c-1.042-0.429-2.068-0.917-3.069-1.393l-0.861-0.407
	c-0.874-0.411-1.74-0.836-2.607-1.262c-1-0.491-2-0.982-3.011-1.452c-0.784-0.363-1.21-1.055-1.634-1.803L34.08,119.328z
	 M79.896,125.769c0.248-0.216,0.497-0.432,0.751-0.639l9.966-8.362c0.432-0.352,0.888-0.501,0.888-0.501V115.5h0.513l0.123,0.636
	l0.144,0.067c0.275,0,0.567,0.002,0.843-0.031c0.235-0.028,0.481-0.04,0.72-0.04c0.058,0,0.119,0.009,0.213,0.014l0.527,0.007
	l0.361-0.002c0.198,0,0.353,0.08,0.502,0.257c0.062,0.074,0.118,0.156,0.174,0.236c0.127,0.18,0.27,0.384,0.472,0.55
	c0.619,0.505,0.717,1.049,0.349,1.936c-0.243,0.581-0.423,1.183-0.596,1.764c-0.192,0.645-0.375,1.253-0.635,1.84
	c-0.17,0.385-0.33,0.48-0.584,0.529c-1.816,0.354-3.675,0.663-5.473,0.963c-0.802,0.134-1.604,0.268-2.404,0.405l-2.078,0.364
	c-1.026,0.18-2.055,0.361-3.084,0.532C81.024,125.62,80.461,125.696,79.896,125.769z M112.122,89.542
	c-0.121,1.099-0.246,2.234-0.381,3.368c-0.054,0.454-0.119,0.906-0.186,1.358c-0.12,0.827-0.243,1.683-0.293,2.539
	c-0.055,0.973-0.402,1.846-1.125,2.827c-1.161,1.573-2.313,3.155-3.466,4.735c-1.075,1.475-2.149,2.947-3.23,4.416
	c-1.227,1.667-2.465,3.325-3.703,4.984l-1.654,2.216c-0.064,0.09-0.129,0.18-0.184,0.322l-0.112-0.114
	c-0.335-0.373-0.672-0.747-0.982-1.143c-0.15-0.189-0.196-0.399-0.141-0.643l0.428-1.878c0.261-1.149,0.521-2.298,0.789-3.445
	c0.06-0.257,0.229-0.505,0.408-0.768c2.104-3.07,4.326-6.133,6.478-9.098l0.682-0.938c1.045-1.44,2.061-2.899,3.076-4.36
	c0.512-0.733,1.021-1.468,1.536-2.199c0.637-0.905,1.298-1.794,1.958-2.683l0.186-0.251L112.122,89.542z"/>
</svg>
