<?xml version="1.0" encoding="utf-8"?>
<!-- Generator: Adobe Illustrator 16.0.4, SVG Export Plug-In . SVG Version: 6.00 Build 0)  -->
<!DOCTYPE svg PUBLIC "-//W3C//DTD SVG 1.1//EN" "http://www.w3.org/Graphics/SVG/1.1/DTD/svg11.dtd">
<svg version="1.1" id="Layer_2511" xmlns="http://www.w3.org/2000/svg" xmlns:xlink="http://www.w3.org/1999/xlink" x="0px" y="0px"
	 width="128px" height="128px" viewBox="0 0 128 128" enable-background="new 0 0 128 128" xml:space="preserve">
<path d="M127.803,77.063c-0.069-0.258-0.27-0.477-0.594-0.651c-0.42-0.227-0.854-0.425-1.276-0.618
	c-0.319-0.146-0.639-0.293-0.952-0.449c-2.274-1.143-4.575-2.168-6.802-3.159l-2.108-0.943c-2.287-1.025-4.653-2.086-7.009-3.067
	c-0.444-0.184-0.55-0.355-0.488-0.794c0.042-0.292-0.021-0.579-0.081-0.858c-0.03-0.138-0.061-0.278-0.075-0.417
	c-0.04-0.354-0.082-0.708-0.126-1.063c-0.113-0.93-0.229-1.892-0.266-2.837c-0.024-0.628-0.097-1.257-0.167-1.864
	c-0.047-0.392-0.092-0.785-0.125-1.178c-0.062-0.769-0.173-1.542-0.279-2.29c-0.152-1.062-0.308-2.159-0.331-3.249
	c-0.028-1.421-0.719-2.153-2.173-2.299l-0.182-0.017c-0.147-0.013-0.297-0.023-0.441-0.056c-0.185-0.042-0.396-0.09-0.424-0.106
	c-0.012-0.053,0.043-0.253,0.097-0.449c0.02-0.069,0.023-0.136,0.025-0.189c0.001-0.025,0.001-0.052,0.006-0.077
	c0.29-1.56,0.681-3.228,1.194-5.1c0.35-1.272,0.159-1.813-0.888-2.517c-0.948-0.639-1.887-1.295-2.823-1.952
	c-1.2-0.841-2.44-1.709-3.69-2.526c-0.855-0.56-1.699-1.175-2.516-1.77c-0.685-0.5-1.394-1.019-2.11-1.502
	c-3.809-2.575-6.713-4.569-9.419-6.464c-0.124-0.086-0.246-0.179-0.367-0.271c-0.501-0.382-1.02-0.777-1.757-0.827
	c-0.187-0.012-0.299-0.296-0.326-0.472c-0.112-0.722-0.334-1.413-0.55-2.081c-0.126-0.396-0.254-0.79-0.358-1.19l-0.272-1.038
	c-0.337-1.271-0.685-2.586-0.956-3.889c-0.277-1.328-0.714-2.234-2.033-2.645c-0.357-0.111-0.629-0.478-0.893-0.832l-0.163-0.218
	c-0.699-0.904-1.373-1.029-2.328-0.398l-0.29,0.188c-0.205,0.133-0.409,0.266-0.608,0.407c-0.607,0.432-1.213,0.866-1.817,1.3
	c-0.53,0.381-1.061,0.762-1.593,1.14c-0.093,0.066-0.185,0.142-0.276,0.219c-0.195,0.162-0.397,0.329-0.614,0.359
	c-0.1,0-0.164-0.095-0.287-0.311c-0.085-0.149-0.181-0.319-0.331-0.44c-0.791-0.644-1.66-1.185-2.5-1.708
	c-0.53-0.33-1.078-0.671-1.596-1.032c-0.823-0.574-1.676-1.132-2.5-1.672c-0.791-0.518-1.581-1.036-2.357-1.573
	c-1.778-1.231-3.875-2.698-5.947-4.245c-0.309-0.231-0.643-0.429-0.966-0.621c-0.638-0.377-1.241-0.735-1.667-1.327
	c-0.145-0.201-0.323-0.243-0.448-0.243c-0.164,0-0.312,0.07-0.439,0.136C49.224,5.479,49.129,5.768,49.052,6l-0.043,0.125
	c-0.353,0.968-0.585,1.978-0.812,2.955c-0.105,0.455-0.209,0.909-0.327,1.36c-0.088,0.339-0.19,0.674-0.293,1.009
	c-0.128,0.419-0.261,0.853-0.363,1.29c-0.462,1.99-0.992,4-1.504,5.944c-0.345,1.31-0.69,2.621-1.019,3.935
	c-0.307,1.229-0.657,2.472-0.996,3.672l-0.368,1.314c-0.15,0.541-0.27,1.095-0.385,1.631c-0.145,0.674-0.295,1.371-0.506,2.034
	c-0.239,0.748-0.426,1.519-0.608,2.264c-0.164,0.67-0.333,1.362-0.537,2.031c-0.452,1.482-0.799,2.944-1.03,4.345
	c-0.036,0.222-0.11,0.352-0.263,0.463c-0.507,0.369-1.004,0.752-1.501,1.135l-0.272,0.209c-0.173,0.132-0.311,0.227-0.49,0.194
	c-0.993-0.181-2.002-0.188-2.978-0.195c-0.516-0.004-1.05-0.008-1.569-0.038l-1.264-0.075c-1.472-0.089-2.995-0.181-4.498-0.223
	c-1.396-0.038-2.817-0.125-4.19-0.208c-1.315-0.08-2.675-0.163-4.016-0.204c-0.426-0.013-0.886-0.057-1.448-0.137
	c-1.033-0.144-1.142,0.426-1.149,0.938c-0.006,0.375-0.1,0.728-0.198,1.102c-0.04,0.149-0.079,0.299-0.113,0.451
	c-0.098,0.438-0.256,0.87-0.408,1.288c-0.169,0.465-0.345,0.946-0.448,1.452c-0.327,1.606-0.692,3.234-1.045,4.809l-0.359,1.608
	c-0.576,2.596-1.154,5.194-1.739,7.79c-0.115,0.504-0.261,0.827-0.708,1.083c-0.497,0.284-1.063,0.642-1.488,1.146
	c-0.464,0.551-1.032,1.058-1.84,1.646c-0.458,0.333-0.685,0.648-0.713,0.989c-0.026,0.324,0.133,0.656,0.488,1.017l0.508,0.512
	c0.795,0.802,1.618,1.628,2.362,2.501c0.154,0.181,0.357,0.383,0.634,0.466c-0.047,0.077-0.095,0.151-0.147,0.225
	c-0.289,0.404-0.58,0.809-0.872,1.213c-0.646,0.895-1.314,1.819-1.937,2.756L8.498,73.98c-0.282,0.44-0.435,0.611-0.853,0.453
	c-0.177-0.065-0.378,0-0.512,0.061c-0.036,0.015-0.071,0.03-0.108,0.042c-0.463,0.142-0.876,0.371-1.275,0.592
	c-0.175,0.098-0.351,0.194-0.53,0.284c-0.94,0.47-1.916,0.914-2.858,1.344c-0.509,0.231-1.019,0.465-1.525,0.701
	c-0.783,0.366-0.776,0.804-0.486,1.483c0.42,0.992,1.047,1.859,1.652,2.697c0.3,0.413,0.61,0.842,0.888,1.277
	c0.975,1.526,2.051,3.02,3.092,4.466c0.432,0.6,0.863,1.198,1.289,1.802c0.293,0.415,0.59,0.828,0.887,1.242
	c0.588,0.819,1.197,1.668,1.767,2.518c0.381,0.568,0.79,1.129,1.185,1.67c0.6,0.821,1.22,1.67,1.749,2.558l0.114,0.188
	c0.256,0.421,0.256,0.421-0.108,0.939c-0.161,0.229-0.326,0.454-0.492,0.68c-0.545,0.745-1.109,1.516-1.504,2.394
	c-0.141,0.312-0.247,0.718,0.187,1.073c0.528,0.435,1.016,0.936,1.488,1.422c0.242,0.248,0.485,0.498,0.734,0.74
	c0.495,0.48,0.997,0.956,1.499,1.43c0.975,0.922,1.981,1.872,2.918,2.863c0.838,0.887,1.746,1.729,2.623,2.543
	c0.681,0.632,1.386,1.286,2.051,1.954c1.514,1.521,3.075,3.044,4.584,4.52c0.763,0.743,1.526,1.488,2.287,2.236
	c0.125,0.122,0.251,0.244,0.379,0.364c0.381,0.365,0.774,0.74,1.09,1.151c0.28,0.364,0.623,0.6,0.954,0.827l0.225,0.157
	c0.157,0.11,0.317,0.169,0.475,0.169c0.229,0,0.432-0.12,0.573-0.339c0.284-0.44,0.73-0.652,1.203-0.876
	c0.102-0.049,0.203-0.097,0.304-0.147l0.086-0.044c0.584-0.295,1.188-0.6,1.535-1.259c0.338-0.643,0.917-1.049,1.723-1.209
	c1.36-0.27,2.547-0.997,3.5-1.581c0.792-0.483,1.646-0.734,2.615-0.768c1.159-0.04,2.373-0.306,3.819-0.838
	c1.015-0.371,2.064-0.677,3.08-0.973c0.352-0.102,0.703-0.204,1.053-0.31c0.672-0.2,1.173-0.424,1.625-0.729
	c1.04-0.695,2.434-1.521,3.989-1.699c1.069-0.124,1.94-0.452,2.741-1.035c0.025-0.018,0.046-0.03,0.063-0.038
	c0.001,0.015,0.004,0.031,0.005,0.055c0.049,0.699,0.64,0.846,0.958,0.922c0.337,0.084,0.647,0.223,0.977,0.368l0.135,0.06
	c0.761,0.334,1.526,0.656,2.291,0.979c0.449,0.189,0.897,0.379,1.346,0.57l2.002,0.853c1.776,0.754,3.614,1.533,5.406,2.331
	c0.57,0.255,0.905,0.354,1.197,0.354c0.422,0,0.71-0.215,1.144-0.539l0.259-0.191c0.096-0.069,0.169-0.156,0.233-0.233
	c0.04-0.047,0.08-0.095,0.125-0.135c0.313-0.276,0.667-0.592,0.83-0.592c0.154,0,0.412,0.401,0.711,0.863
	c0.618,0.96,1.273,1.916,1.906,2.842c0.347,0.507,0.694,1.015,1.037,1.524c0.377,0.562,0.857,0.736,1.461,0.526
	c1.614-0.556,3.309-0.943,4.945-1.316c0.985-0.227,2.002-0.457,2.995-0.726c1.334-0.358,2.798-0.69,4.476-1.013
	c0.687-0.133,1.369-0.31,2.03-0.48c0.846-0.219,1.719-0.442,2.596-0.576c1.004-0.15,2.372-0.546,2.645-2.23
	c0.061-0.374,0.206-0.755,0.347-1.122l0.062-0.164c0.047-0.124,0.089-0.257,0.131-0.392c0.104-0.334,0.211-0.678,0.407-0.836
	c0.732-0.591,0.549-1.225,0.387-1.785c-0.053-0.181-0.09-0.368-0.128-0.554c-0.026-0.132-0.054-0.265-0.085-0.394
	c-0.149-0.621-0.379-1.221-0.6-1.798c-0.166-0.432-0.337-0.878-0.47-1.324c-0.049-0.162-0.14-0.465-0.089-0.556
	c0.043-0.082,0.28-0.16,0.482-0.221c0.792-0.233,1.57-0.45,2.366-0.55c0.451-0.057,0.854-0.315,1.102-0.713
	c0.237-0.377,0.295-0.826,0.158-1.23c-0.036-0.107-0.085-0.217-0.134-0.326c-0.096-0.215-0.185-0.417-0.16-0.574
	c0.016-0.091,0.116-0.144,0.327-0.236c0.149-0.065,0.318-0.139,0.454-0.267l0.062-0.058c0.384-0.361,0.748-0.703,1.257-0.776
	c0.648-0.093,1.32-0.204,1.834-0.78c0.071-0.078,0.2-0.035,0.374-0.035h0.073c0.967,0,1.843-0.376,2.69-0.688
	c0.643-0.237,1.248-0.486,1.893-0.586c0.087-0.012,0.143-0.073,0.178-0.104c0.408-0.318,0.861-0.415,1.537-0.298
	c0.738,0.124,1.132-0.188,1.233-0.907c0.022-0.158,0.037-0.317,0.051-0.477c0.023-0.255,0.045-0.495,0.101-0.731
	c0.229-0.995,0.453-1.989,0.676-2.985c0.154-0.687,0.309-1.376,0.464-2.063c0.122-0.531,0.181-1.288-0.703-1.709
	c-0.165-0.078-0.318-0.197-0.48-0.322c-0.124-0.095-0.248-0.191-0.379-0.271c-0.091-0.057-0.129-0.091-0.143-0.091
	c0.012-0.021,0.044-0.064,0.126-0.139c0.509-0.465,1.004-0.941,1.499-1.419c0.505-0.486,1.011-0.973,1.529-1.442
	c0.83-0.756,1.669-1.501,2.508-2.246c0.799-0.711,1.597-1.421,2.389-2.139c0.473-0.428,0.823-0.84,1.103-1.293
	c0.29-0.472,0.478-0.98,0.659-1.472c0.18-0.488,0.351-0.951,0.612-1.378C127.82,77.514,127.862,77.28,127.803,77.063z
	 M112.865,98.528l0.299-0.028h-0.088c-0.27,0-0.577-0.187-0.836,0.003c-0.629,0.461-1.362,0.467-2.139,0.58
	c-0.138,0.021-0.275-0.011-0.412,0.011c-0.04,0.008-0.087-0.017-0.135-0.014c-0.162,0.008-0.364,0.006-0.483,0.155
	c-0.363,0.452-0.879,0.551-1.425,0.663c-0.25,0.052-0.508,0.101-0.756,0.188c-0.741,0.26-1.279,0.707-1.6,1.328
	c-0.104-0.481-0.301-0.922-0.492-1.349c-0.194-0.434-0.379-0.844-0.47-1.29c-0.181-0.882-0.491-1.027-1.337-1.221
	c-0.525-0.122-1.063-0.191-1.585-0.259c-0.783-0.1-1.592-0.203-2.342-0.484c-0.237-0.089-0.486-0.093-0.729-0.098
	c-0.078-0.002-0.156-0.004-0.233-0.008c-1.31-0.084-2.577-0.49-3.802-0.884c-0.252-0.08-0.504-0.162-0.757-0.24
	c-0.204-0.063-0.408-0.131-0.612-0.2c-0.758-0.255-1.541-0.52-2.383-0.52c-0.176,0-0.354,0.012-0.588,0.04
	c-0.118,0-0.249-0.054-0.389-0.11c-0.083-0.033-0.166-0.065-0.25-0.092c-0.057-0.018-0.112-0.038-0.168-0.058
	c-0.132-0.048-0.268-0.097-0.419-0.117c-0.075-0.009-0.153-0.016-0.229-0.016c-0.454,0-0.59,0.289-0.632,0.462
	c-0.104,0.429,0.254,0.625,0.474,0.745c0.638,0.355,1.232,0.52,1.776,0.484c1.14-0.07,2.184,0.317,3.199,0.694l0.133,0.049
	c1.128,0.418,2.297,0.633,3.427,0.84c0.33,0.061,0.659,0.12,0.989,0.187c0.505,0.102,1.015,0.184,1.522,0.266
	c1.062,0.171,2.16,0.348,3.193,0.699c0.398,0.137,0.601,0.252,0.672,0.545c0.192,0.788,0.461,1.559,0.722,2.306
	c0.184,0.53,0.375,1.077,0.534,1.621c0.052,0.179,0.118,0.401,0.108,0.446c-0.025,0.033-0.173,0.101-0.304,0.159l-0.16,0.072
	c-0.446,0.206-0.913,0.324-1.406,0.45c-0.465,0.118-0.945,0.24-1.404,0.442c-0.509,0.223-0.803,0.484-0.929,0.823
	c-0.126,0.343-0.071,0.734,0.171,1.235c0.522,1.089,0.941,2.299,1.315,3.811c0.074,0.299,0.086,0.346-0.289,0.44
	c-2.617,0.663-5.296,1.265-7.887,1.846c-1.268,0.284-2.535,0.568-3.802,0.859c-0.614,0.143-1.227,0.297-1.838,0.452
	c-1.251,0.312-2.544,0.639-3.838,0.851c-0.459,0.072-0.704,0.002-0.914-0.37c-0.455-0.807-1.011-1.554-1.549-2.276
	c-0.272-0.366-0.546-0.732-0.807-1.108c-0.413-0.595-0.85-1.178-1.286-1.761c-0.367-0.492-0.735-0.985-1.091-1.486
	c-0.987-1.392-1.957-2.794-2.927-4.197c-0.604-0.87-1.207-1.743-1.814-2.611c-0.408-0.585-0.802-1.181-1.195-1.776
	c-0.819-1.24-1.667-2.522-2.647-3.692c-0.309-0.369-0.56-0.777-0.827-1.209c-0.198-0.323-0.403-0.654-0.633-0.966
	c-0.233-0.318-0.461-0.643-0.687-0.967c-0.6-0.858-1.22-1.745-1.979-2.514c-0.054-0.055-0.103-0.13-0.153-0.21
	c-0.036-0.057-0.073-0.111-0.113-0.164c-0.066-0.089-0.085-0.137-0.096-0.142c0.019-0.015,0.073-0.051,0.23-0.105
	c0.656-0.225,1.326-0.297,2.036-0.376c0.333-0.036,0.665-0.072,0.997-0.125c0.882-0.143,1.787-0.252,2.661-0.359
	c0.386-0.047,0.772-0.095,1.168-0.146c0.173-0.031,0.318-0.038,0.532,0.352l0.355,0.646c0.517,0.94,1.032,1.88,1.533,2.827
	c0.73,1.381,1.512,2.865,2.261,4.366c0.193,0.386,0.366,0.794,0.533,1.189c0.116,0.275,0.233,0.548,0.355,0.819
	c0.137,0.299,0.313,0.618,0.681,0.618c0.126,0,0.261-0.04,0.414-0.122c0.351-0.189,0.773-0.124,1.184-0.021
	c0.545,0.139,1.105,0.238,1.646,0.337l0.464,0.084c0.799,0.149,1.229-0.348,1.467-0.71c0.699-1.066,1.411-2.124,2.122-3.181
	c0.591-0.878,1.181-1.754,1.764-2.636c1.453-2.197,2.91-4.394,4.38-6.579c0.232-0.347,0.471-0.69,0.709-1.035
	c0.646-0.933,1.314-1.896,1.858-2.903c0.442-0.819,1.011-1.558,1.559-2.271c0.283-0.366,0.566-0.734,0.835-1.114
	c0.259-0.365,0.391-0.527,0.491-0.527c0.119,0,0.359,0.143,0.64,0.315c0.73,0.45,1.458,0.905,2.186,1.36
	c0.646,0.403,1.289,0.806,1.935,1.206c1.267,0.783,2.536,1.563,3.804,2.343l4.025,2.478c1.866,1.147,3.732,2.295,5.589,3.457
	c0.127,0.08,0.253,0.162,0.377,0.244c0.354,0.233,0.721,0.476,1.136,0.652c0.174,0.072,0.297,0.163,0.189,0.595
	c-0.109,0.438-0.222,0.873-0.337,1.309c-0.304,1.165-0.62,2.371-0.821,3.59c-0.131,0.783-0.248,0.88-1.173,0.943
	c-0.229,0.015-0.879,0.033-1.094,0.267c-0.375,0.404-0.727,0.461-1.727,0.461v0.23L112.865,98.528z M11.438,63.769
	c-0.06,0.361-0.075,0.701-0.287,0.995c-0.172,0.238-0.219,0.475-0.178,0.701c0.042,0.229,0.203,0.434,0.456,0.604
	c0.228,0.151,0.411,0.373,0.6,0.606c0.275,0.339,0.562,0.69,1.026,0.878l-0.022,0.071c-0.089,0.118-0.17,0.251-0.252,0.383
	c-0.168,0.271-0.325,0.526-0.526,0.624c-0.071,0.037-0.112,0.042-0.13,0.042c-0.07,0-0.142-0.179-0.199-0.32
	c-0.06-0.147-0.122-0.303-0.227-0.415c-0.241-0.261-0.473-0.53-0.704-0.8c-0.512-0.594-1.041-1.208-1.666-1.729
	c-0.042-0.037-0.059-0.064-0.06-0.077c-0.001-0.011,0.009-0.042,0.051-0.089c0.443-0.494,0.878-0.932,1.38-1.356
	c0.298-0.253,0.801-0.512,0.801-0.774c0,0,0,0.002,0,0.003C11.5,63.33,11.474,63.552,11.438,63.769z M67.298,19.325
	c-0.667,0.567-1.397,1.08-2.104,1.575c-0.529,0.371-1.076,0.754-1.596,1.16l-0.86,0.672c-2.269,1.771-4.615,3.604-6.946,5.373
	c-1.068,0.811-2.122,1.64-3.176,2.469c-1.147,0.902-2.331,1.834-3.515,2.725c-0.295,0.221-0.591,0.441-0.888,0.661
	c-1.101,0.816-2.24,1.661-3.271,2.593c-0.408,0.369-0.872,0.686-1.321,0.992c-0.576,0.394-1.173,0.801-1.675,1.332
	c-0.021,0.021-0.053,0.042-0.089,0.062c0.349-0.692,0.485-1.438,0.617-2.159c0.062-0.337,0.123-0.674,0.206-1.004
	c0.175-0.691,0.363-1.379,0.552-2.067c0.299-1.092,0.608-2.222,0.855-3.351c0.138-0.631,0.309-1.27,0.474-1.888
	c0.107-0.403,0.215-0.806,0.314-1.209c0.313-1.267,0.645-2.53,0.976-3.791l0.028-0.107c0.327-1.249,0.669-2.493,1.011-3.738
	c0.275-1.002,0.551-2.005,0.819-3.01c0.176-0.663,0.34-1.328,0.504-1.994c0.17-0.693,0.342-1.386,0.526-2.075
	c0.278-1.035,0.568-2.067,0.858-3.099c0.186-0.657,0.37-1.314,0.552-1.972c0.027-0.099,0.065-0.167,0.092-0.167
	c0.028,0,0.098,0.014,0.247,0.111c0.452,0.29,0.895,0.594,1.337,0.897l1.58,1.082c1.292,0.883,2.585,1.767,3.872,2.658
	c0.73,0.506,1.456,1.018,2.18,1.53c1.404,0.991,2.856,2.016,4.319,2.976c0.456,0.299,0.9,0.634,1.331,0.957
	c0.694,0.521,1.412,1.06,2.206,1.479c0.135,0.072,0.171,0.115,0.178,0.115C67.485,19.127,67.455,19.191,67.298,19.325z
	 M50.887,33.706c1.41-1.084,2.869-2.206,4.274-3.349c1.325-1.077,2.715-2.125,4.058-3.139c1.175-0.885,2.388-1.802,3.557-2.735
	c2.112-1.688,4.303-3.292,6.366-4.791c0.519-0.377,1.03-0.765,1.544-1.153c1.147-0.868,2.334-1.766,3.585-2.523
	c0.122-0.074,0.259-0.149,0.35-0.149c0.031,0,0.114,0,0.289,0.215c0.21,0.259,0.439,0.502,0.669,0.746
	c0.256,0.271,0.521,0.553,0.75,0.849c0.021,0.026,0.043,0.052,0.064,0.077c0.059,0.068,0.075,0.091,0.081,0.074
	c-0.01,0.041-0.045,0.07-0.128,0.133c-0.046,0.034-0.092,0.068-0.133,0.107c-0.434,0.413-0.926,0.732-1.447,1.071
	c-0.316,0.206-0.634,0.412-0.935,0.639c-1.897,1.423-3.655,2.76-5.377,4.086c-0.528,0.407-1.067,0.8-1.606,1.193
	c-0.733,0.534-1.493,1.085-2.213,1.67c-1.613,1.311-3.307,2.581-4.943,3.809l-0.326,0.245c-0.784,0.588-1.556,1.217-2.301,1.825
	c-0.82,0.669-1.668,1.361-2.533,1.997c-0.848,0.624-1.686,1.284-2.498,1.922c-0.725,0.571-1.451,1.142-2.19,1.695
	c-1.609,1.202-3.255,2.465-5.03,3.86c-1.449,1.137-2.91,2.257-4.372,3.377L40.256,45.6c-0.224,0.171-0.473,0.354-0.599,0.354
	c-0.121,0-0.307-0.23-0.538-0.531l-0.316-0.409c-0.29-0.372-0.588-0.757-0.861-1.151c-0.089-0.13-0.102-0.179-0.107-0.179
	c0.006-0.011,0.032-0.042,0.146-0.116c0.695-0.453,1.349-0.975,1.982-1.479c0.282-0.225,0.564-0.449,0.852-0.669
	c0.847-0.649,1.704-1.289,2.56-1.927c1.322-0.987,2.69-2.006,4.002-3.054C48.536,35.514,49.731,34.595,50.887,33.706z
	 M106.746,66.807c0.013,0.145,0.143,0.292,0.144,0.389c-0.097-0.029-0.188-0.088-0.362-0.155l-0.166-0.074
	c-0.707-0.267-1.123-0.461-1.102-1.111c0.01-0.261-0.02-0.503-0.055-0.736c-0.028-0.192-0.052-0.377-0.053-0.559
	c-0.003-1.447-0.205-2.889-0.402-4.284c-0.15-1.062-0.305-2.16-0.368-3.244c-0.056-0.957-0.219-1.903-0.375-2.82
	c-0.073-0.42-0.145-0.843-0.208-1.266c-0.028-0.188-0.007-0.243-0.011-0.244c0.009-0.004,0.088-0.018,0.209-0.008l0.073,0.003
	c0.037,0,0.076-0.002,0.113-0.005l0.084-0.004c1.037,0,1.405,0.328,1.516,1.349l0.234,2.144c0.09,0.81,0.18,1.619,0.266,2.427
	l0.118,1.081c0.139,1.271,0.276,2.542,0.396,3.814c0.057,0.615,0.088,1.245,0.118,1.853c0.014,0.282-0.211,0.564-0.194,0.847
	l-0.221,0.12v0.044C106.5,66.507,106.733,66.646,106.746,66.807z M38.835,75.579l-0.093,0.044c-0.01-0.023-0.02-0.055-0.027-0.074
	l-0.032-0.088c-0.241-0.598-0.501-1.188-0.761-1.776c-0.448-1.014-0.911-2.063-1.262-3.136c-0.496-1.514-2.748-7.169-3.488-9.027
	l-0.107-0.27c-0.062-0.155-0.066,0.057-0.012-0.024c0.045-0.066,0.125,0.272,0.184,0.272h0.02c0.185,0,0.232-0.279,0.344-0.019
	c0.271,0.623,1.688,4.107,2.369,5.867l0.355,0.83c0.836,2.146,1.66,4.251,2.481,6.4c0.103,0.271,0.174,0.54,0.236,0.812
	C39.061,75.475,39.066,75.476,38.835,75.579z M93.065,81.659c-0.398,0.128-0.816,0.153-1.221,0.179
	c-0.437,0.025-0.849,0.051-1.241,0.193c-0.271,0.021-0.407-0.025-0.542-0.229c-0.862-1.293-1.775-2.581-2.658-3.825
	c-0.755-1.065-1.535-2.17-2.28-3.268c-0.811-1.195-1.671-2.385-2.505-3.536c-0.471-0.65-0.941-1.3-1.406-1.956
	c-2.016-2.84-4.154-5.907-6.539-9.375c-0.522-0.76-1.036-1.527-1.55-2.295c-1.16-1.734-2.36-3.528-3.663-5.213
	c-0.07-0.089-0.122-0.191-0.175-0.293c-0.046-0.087-0.091-0.175-0.144-0.257c-0.044-0.069-0.066-0.129-0.06-0.161
	c0.003-0.012,0.021-0.056,0.134-0.125c0.413-0.25,0.765-0.593,1.015-0.992c0.027-0.045,0.051-0.077,0.067-0.098
	c0.03,0.038,0.069,0.092,0.109,0.149c1.614,2.249,2.885,4.099,4.002,5.824c0.295,0.458,0.297,0.741,0.005,1.127
	c-0.031,0.04-0.068,0.084-0.108,0.128c-0.111,0.129-0.239,0.276-0.301,0.446c-0.088,0.241-0.023,0.471,0.182,0.649
	c0.116,0.1,0.242,0.151,0.376,0.151c0.247,0,0.438-0.171,0.606-0.323c0.065-0.06,0.129-0.12,0.194-0.16
	c0.128-0.079,0.228-0.187,0.317-0.281l0.085-0.09c0.226-0.225,0.48-0.481,0.553-0.492c0.077,0.029,0.271,0.348,0.4,0.559
	c0.767,1.253,1.643,2.454,2.49,3.614c0.57,0.779,1.158,1.586,1.706,2.399c1.585,2.353,3.261,4.731,4.979,7.071
	c1.591,2.166,3.128,4.425,4.614,6.61l0.23,0.337c0.496,0.73,1.016,1.448,1.534,2.168c0.282,0.392,0.566,0.785,0.847,1.181
	c0.031,0.044,0.065,0.084,0.097,0.122c0.002,0.002,0.002,0.002,0.004,0.003C93.184,81.619,93.134,81.638,93.065,81.659z
	 M43.947,60.946c-0.069-0.204-0.136-0.376-0.196-0.526c-0.274-0.694-0.309-0.783,0.69-1.607c0.132-0.108,0.254-0.23,0.376-0.353
	c0.093-0.093,0.185-0.186,0.283-0.271c0.154-0.135,0.228-0.175,0.258-0.186c0.021,0.025,0.065,0.097,0.13,0.293
	c0.957,2.882,2.009,5.781,3.026,8.584c0.498,1.37,0.995,2.741,1.484,4.114c0.057,0.163,0.127,0.321,0.198,0.481
	c0.139,0.312,0.271,0.608,0.297,0.925c0.015,0.225-0.061,0.271-0.096,0.292c-0.365,0.222-0.668,0.508-0.96,0.785
	c-0.144,0.137-0.29,0.274-0.442,0.402c-0.167,0.143-0.241,0.149-0.254,0.149c-0.018,0-0.079-0.048-0.157-0.259l-0.452-1.209
	c-0.262-0.7-0.525-1.399-0.78-2.103c-0.286-0.792-0.576-1.585-0.865-2.377C45.638,65.749,44.757,63.336,43.947,60.946z
	 M60.315,69.964c0.353-0.878,0.579-1.796,0.799-2.682c0.13-0.528,0.265-1.074,0.424-1.601c0.312-1.031,0.608-2.065,0.906-3.1
	c0.339-1.179,0.678-2.358,1.038-3.53c0.315-1.027,0.608-2.078,0.892-3.095l0.349-1.246c0.028-0.103,0.082-0.288,0.125-0.399
	c0.093,0.085,0.229,0.243,0.29,0.313c0.491,0.572,1.055,1.259,1.499,2.007c0.575,0.964,1.251,1.867,1.907,2.742
	c0.222,0.298,0.445,0.595,0.665,0.896l0.102,0.138c0.873,1.193,0.873,1.193-0.116,2.328c-0.732,0.84-1.479,1.667-2.227,2.495
	c-0.482,0.533-0.964,1.069-1.442,1.606c-0.606,0.682-1.198,1.394-1.77,2.082c-0.503,0.604-1.007,1.211-1.526,1.804
	c-0.241,0.276-0.502,0.537-0.762,0.796l-0.2,0.2c-0.052,0.053-0.11,0.099-0.167,0.142c-0.034-0.016-0.063-0.032-0.092-0.051
	C60.488,71.474,59.947,70.88,60.315,69.964z M66.967,51.142c-0.762,0.287-1.572,0.587-2.381,0.844
	c-0.387,0.124-0.588,0.34-0.676,0.725c-0.379,1.685-0.905,3.364-1.413,4.987c-0.152,0.486-0.304,0.973-0.453,1.459
	c-0.226,0.739-0.424,1.497-0.617,2.231c-0.152,0.579-0.304,1.16-0.471,1.736c-0.288,0.999-0.675,2.311-1.119,3.6
	c-0.131,0.379-0.211,0.77-0.29,1.145c-0.084,0.404-0.164,0.787-0.3,1.158c-0.032,0.088-0.061,0.177-0.088,0.266
	c-0.045,0.139-0.089,0.279-0.149,0.41c-0.288-0.322-0.611-0.61-0.923-0.887c-0.402-0.359-0.781-0.698-1.1-1.109
	c-0.65-0.844-1.403-1.606-2.132-2.345c-0.465-0.472-0.946-0.959-1.392-1.46c-0.353-0.396-0.72-0.778-1.088-1.16
	c-0.524-0.545-1.068-1.11-1.556-1.708c-0.233-0.286-0.464-0.574-0.696-0.863c-0.732-0.909-1.489-1.85-2.289-2.732
	c-0.297-0.328-0.642-0.585-0.976-0.833c-0.172-0.127-0.343-0.255-0.508-0.392c-0.294-0.245-0.599-0.258-0.947-0.025
	c-0.685,0.459-1.282,1.022-1.86,1.568c-0.295,0.278-0.591,0.557-0.899,0.823c-0.399,0.344-0.424,0.834-0.408,1.166
	c0.008,0.628,0.232,1.186,0.45,1.727c0.072,0.18,0.146,0.36,0.208,0.541c0.558,1.593,1.151,3.202,1.726,4.757
	c0.611,1.655,1.242,3.366,1.83,5.061l0.333,0.948c0.207,0.589,0.414,1.177,0.612,1.769c0.091,0.267,0.064,0.37,0.039,0.408
	c-0.039,0.061-0.163,0.103-0.35,0.12c-0.121,0.012-0.156,0.015-0.17-0.074c-0.124-0.809-0.444-1.55-0.753-2.268
	c-0.103-0.239-0.206-0.478-0.301-0.718c-0.296-0.745-0.57-1.497-0.845-2.25c-0.233-0.638-0.466-1.274-0.711-1.909
	c-0.797-2.053-1.572-4.116-2.345-6.18l-0.162-0.432c-0.324-0.861-0.642-1.727-0.959-2.591c-0.259-0.704-0.518-1.409-0.781-2.112
	c-0.07-0.189-0.188-0.506-0.143-0.599c0.047-0.099,0.379-0.205,0.504-0.246c0.833-0.268,1.65-0.599,2.44-0.921
	c0.444-0.181,0.888-0.361,1.336-0.53c0.882-0.335,1.759-0.683,2.636-1.03c1.468-0.582,2.985-1.182,4.497-1.709
	c1.201-0.418,2.398-0.898,3.555-1.361c0.995-0.399,2.024-0.811,3.049-1.182c0.664-0.24,1.326-0.489,1.987-0.739
	c1.212-0.457,2.466-0.929,3.719-1.335c0.172-0.055,0.32-0.145,0.463-0.231c0.094-0.057,0.188-0.113,0.286-0.157
	c0.165-0.072,0.333-0.109,0.498-0.109c0.414,0,0.755,0.232,0.909,0.622c0.261,0.658,0.508,1.321,0.755,1.984
	c0.221,0.596,0.442,1.191,0.675,1.783c0.033,0.087,0.044,0.158,0.027,0.195C67.22,51.046,67.062,51.106,66.967,51.142z
	 M61.735,45.992c-0.88,0.347-1.791,0.705-2.696,1.022c-0.679,0.237-3.622,1.384-8.747,3.409l-0.466,0.184
	c-0.386,0.151-0.772,0.3-1.158,0.451c-0.88,0.341-1.789,0.693-2.675,1.066c-0.818,0.344-1.674,0.653-2.5,0.952
	c-0.747,0.269-1.519,0.547-2.267,0.853c-0.165,0.068-0.332,0.132-0.499,0.197c-0.523,0.2-1.064,0.408-1.558,0.725
	c-0.161,0.104-0.306,0.155-0.443,0.155c-0.071,0-0.139-0.013-0.208-0.04c-0.582-0.222-1.162-0.454-1.735-0.697
	c-0.052-0.022-0.095-0.043-0.13-0.061c0.041-0.013,0.081-0.025,0.116-0.04c0.889-0.36,1.78-0.716,2.673-1.07
	c0.603-0.239,1.207-0.475,1.812-0.712c1.233-0.482,2.465-0.965,3.689-1.467c1.822-0.747,3.65-1.451,5.434-2.092
	c0.87-0.312,1.741-0.66,2.583-0.995c1.186-0.472,2.41-0.96,3.639-1.355c1.651-0.53,3.18-0.789,4.672-0.789
	c0.366,0,0.731,0.016,1.116,0.05L61.735,45.992z M37.684,55.931c0.536,0.162,0.722,0.526,0.965,1.109
	c0.77,1.844,1.512,3.713,2.206,5.555l0.024,0.064c0.857,2.273,1.742,4.623,2.654,6.921c0.445,1.122,0.871,2.275,1.282,3.392
	c0.198,0.536,0.396,1.073,0.597,1.606c0.147,0.396,0.178,0.661,0.091,0.791c-0.085,0.127-0.333,0.2-0.76,0.217
	c-0.071,0-0.143-0.01-0.225-0.022l-0.249-0.027l-0.059,0.027c-0.092,0.046-0.142,0.052-0.165,0.052
	c-0.069,0-0.142-0.145-0.244-0.391c-0.618-1.499-1.19-3.047-1.743-4.542l-0.39-1.054c-0.378-1.016-0.776-2.027-1.173-3.036
	c-0.487-1.235-0.99-2.513-1.447-3.783c-0.229-0.636-0.468-1.266-0.708-1.896c-0.248-0.65-0.496-1.301-0.73-1.956
	c-0.278-0.775-0.572-1.545-0.866-2.316c-0.145-0.381-0.291-0.762-0.434-1.144c-0.01-0.024-0.021-0.049-0.034-0.075
	c0.008,0.003,0.016,0.006,0.022,0.009l0.066,0.024c0.161,0.057,0.321,0.118,0.481,0.178C37.123,55.742,37.4,55.847,37.684,55.931z
	 M54.222,81.062c-0.73-0.913-1.441-1.84-2.153-2.768c-0.436-0.569-0.872-1.138-1.312-1.703c-0.219-0.28-0.454-0.55-0.689-0.819
	l-0.275-0.317c-0.175-0.203-0.259-0.333-0.253-0.384c0.003-0.022,0.036-0.091,0.28-0.259c0.271-0.188,0.493-0.413,0.707-0.632
	c0.17-0.175,0.332-0.339,0.513-0.481c0.069-0.055,0.157-0.096,0.241-0.138c0.017-0.008,0.034-0.017,0.049-0.024
	c0.093,0.019,0.154,0.073,0.25,0.162l0.08,0.073c0.197,0.171,0.333,0.397,0.477,0.636c0.08,0.133,0.161,0.266,0.251,0.392
	c0.708,0.979,1.478,1.929,2.222,2.849c0.595,0.734,1.21,1.496,1.787,2.261c0.625,0.829,1.292,1.642,1.935,2.428
	c0.79,0.962,1.606,1.958,2.345,2.982c0.767,1.065,1.611,2.095,2.428,3.091l0.167,0.204c0.129,0.158,0.153,0.228,0.149,0.257
	c-0.001,0.015-0.019,0.074-0.176,0.2c-0.478,0.373-0.958,0.796-1.14,1.45c-0.021,0.076-0.042,0.118-0.045,0.139
	c-0.023-0.015-0.061-0.046-0.116-0.111c-0.146-0.172-0.293-0.343-0.441-0.514c-0.362-0.423-0.737-0.858-1.075-1.301
	c-0.53-0.696-1.091-1.383-1.633-2.046c-0.42-0.514-0.839-1.027-1.247-1.548c-0.602-0.767-1.235-1.53-1.847-2.27
	C55.205,82.271,54.708,81.671,54.222,81.062z M46.796,100.614l-0.078-0.231c-0.168,0-0.203-0.032-0.203-0.032
	c-0.005-0.01-0.015-0.057,0.009-0.168c0.008-0.04,0.013-0.082,0.017-0.124c0.006-0.051,0.012-0.107,0.025-0.133
	c0.383-0.736,0.6-1.53,0.81-2.297c0.118-0.432,0.24-0.88,0.39-1.305c0.288-0.817,0.554-1.657,0.812-2.472
	c0.135-0.424,0.27-0.851,0.408-1.274c0.088-0.27,0.169-0.541,0.25-0.814c0.202-0.676,0.412-1.375,0.725-2.017
	c0.084-0.169,0.121-0.348,0.158-0.521l0.036-0.159c0.102-0.424,0.217-0.424,0.272-0.424c0.078,0,0.188,0.032,0.323,0.1
	c0.169,0.084,0.34,0.162,0.512,0.242c0.435,0.202,0.883,0.412,1.29,0.678c0.31,0.202,0.354,0.317,0.264,0.678
	c-0.147,0.596-0.359,1.186-0.563,1.756c-0.186,0.518-0.377,1.051-0.524,1.596c-0.359,1.322-0.783,2.654-1.195,3.941
	c-0.29,0.905-0.579,1.81-0.848,2.72c-0.104,0.354-0.146,0.354-0.19,0.354c-0.067,0-0.176-0.027-0.332-0.082
	c-0.614-0.221-1.28-0.249-1.851-0.249c-0.174,0-0.348,0.003-0.521,0.005L46.796,100.614z M47.88,91.429
	c-0.161,0.554-0.321,1.107-0.505,1.653c-0.48,1.421-0.924,2.88-1.353,4.292c-0.144,0.474-0.288,0.945-0.434,1.421
	c-0.168-0.479-0.2-0.985-0.233-1.52c-0.023-0.368-0.047-0.749-0.119-1.124L45.19,95.93c-0.098-0.496-0.2-1.008-0.173-1.534
	c-0.081-1.493-0.443-2.958-0.823-4.316c-0.158-0.565-0.318-1.237-0.315-1.953c0.001-0.493-0.055-0.975-0.112-1.426
	c-0.052-0.403,0.147-0.747,0.359-1.111c0.096-0.164,0.192-0.33,0.268-0.503c0.373-0.844,0.713-1.714,1.042-2.558
	c0.135-0.346,0.271-0.692,0.408-1.038c0.01-0.025,0.018-0.051,0.023-0.075c0.002,0.004,0.003,0.008,0.005,0.01l0.031,0.063
	c0.25,0.488,0.5,0.977,0.735,1.47c0.28,0.589,0.558,1.177,0.836,1.766c0.448,0.949,0.898,1.897,1.354,2.843
	c0.15,0.312,0.237,0.514,0.132,0.738C48.492,89.315,48.182,90.39,47.88,91.429z M50.621,87.334
	c-0.528-0.117-0.712-0.538-0.923-1.024c-0.055-0.127-0.111-0.255-0.171-0.375c-0.262-0.514-0.504-1.038-0.747-1.561
	c-0.304-0.66-0.619-1.341-0.971-1.993c-0.186-0.346-0.3-0.714-0.42-1.104c-0.124-0.402-0.252-0.816-0.482-1.237
	c0.018-0.007,0.039-0.017,0.062-0.025c0.627-0.255,1.428,0.111,1.643,0.734c0.403,1.162,0.982,2.251,1.543,3.304l0.348,0.656
	c0.563,1.076,1.047,2.097,1.47,3.105C51.544,87.625,51.1,87.439,50.621,87.334z M48.885,101.938
	c-0.085-0.004-0.171-0.006-0.255-0.009c0.035-0.002,0.069-0.008,0.104-0.008C48.789,101.922,48.832,101.935,48.885,101.938z
	 M25.676,81.767c0.056-0.096,0.112-0.192,0.165-0.291c0.023,0.089,0.033,0.188,0.043,0.29c0.014,0.138,0.029,0.282,0.078,0.428
	c0.267,0.796,0.444,1.638,0.616,2.45c0.172,0.813,0.35,1.655,0.619,2.468c0.305,0.92,0.496,1.911,0.666,2.846
	c0.224,1.226,0.526,2.451,0.819,3.637c0.188,0.764,0.376,1.526,0.545,2.296c0.093,0.419,0.191,0.836,0.291,1.253
	c0.193,0.817,0.394,1.665,0.538,2.505l0.025,0.15c0.088,0.521,0.179,1.061,0.401,1.578c0.066,0.152,0.1,0.327,0.13,0.482
	c0.014,0.071,0.026,0.135,0.034,0.139c0.004,0.396-0.63,1.271-0.92,1.408c-0.007-0.027-0.015-0.061-0.023-0.095l-1.81-8.01
	c-0.346-1.519-0.691-3.038-1.02-4.561c-0.335-1.553-0.653-3.107-0.971-4.663l-0.379-1.848c-0.016-0.076-0.025-0.156-0.036-0.234
	c-0.023-0.179-0.047-0.363-0.126-0.539C25.07,82.818,25.351,82.332,25.676,81.767z M13.863,83.326
	c-0.557-0.885-1.059-1.83-1.545-2.745c-0.224-0.421-0.448-0.842-0.678-1.259c-0.119-0.217-0.063-0.377,0.116-0.681
	c0.546-0.93,1.186-1.821,1.804-2.686c0.542-0.758,1.103-1.541,1.603-2.35c0.949-1.537,1.994-2.973,2.891-4.177
	c0.475-0.638,0.932-1.301,1.374-1.941c0.563-0.818,1.146-1.663,1.767-2.455c0.147-0.188,0.219-0.252,0.252-0.271
	c0.025,0.021,0.081,0.083,0.179,0.255c0.873,1.516,1.862,2.985,2.819,4.408c0.559,0.828,1.117,1.659,1.656,2.502l0.716,1.121
	c0.851,1.333,1.702,2.664,2.561,3.992c0.04,0.061,0.094,0.146,0.123,0.202c-0.036,0.015-0.1,0.037-0.209,0.064
	c-0.745,0.178-1.532,0.278-2.476,0.316c-0.669,0.025-1.105,0.359-1.196,0.913c-0.129,0.786-0.499,1.455-0.889,2.163
	c-0.176,0.319-0.352,0.638-0.504,0.968c-0.02,0.042-0.045,0.082-0.069,0.122c-0.033,0.053-0.065,0.107-0.091,0.162
	c-0.127,0.266-0.191,0.545-0.254,0.812c-0.118,0.51-0.22,0.95-0.7,1.299c-0.493,0.358-0.828,0.908-1.152,1.438
	c-0.135,0.223-0.27,0.442-0.416,0.648c-0.965,1.362-1.93,2.726-2.889,4.092c-0.133,0.19-0.257,0.325-0.382,0.417
	c-0.066-0.039-0.107-0.103-0.168-0.204c-0.351-0.592-0.714-1.177-1.078-1.76c-0.273-0.439-0.546-0.878-0.814-1.32
	c-0.36-0.596-0.7-1.201-1.041-1.808C14.756,84.827,14.326,84.061,13.863,83.326z M58.818,102.035
	c-0.108,0.111-0.32,0.363-0.628,0.329c-0.686-0.074-1.375,0.136-2.08,0.136h-0.3c-0.222,0-0.443-0.218-0.667-0.222l-0.723-0.119
	c-0.826-0.011-1.652-0.078-2.478-0.086c-0.427-0.004-0.857-0.044-1.286-0.055c0.205-0.189,0.346-0.478,0.362-0.81
	c0.026-0.561,0.062-1.03,0.244-1.456c0.272-0.633,0.46-1.3,0.64-1.941l0.147-0.513c0.578-1.971,1.268-4.032,2.24-6.688
	c0.11-0.302,0.34-0.933-0.036-1.346c-0.32-0.354-0.497-0.772-0.684-1.217c-0.086-0.206-0.174-0.412-0.274-0.61l-0.443-0.867
	c-0.641-1.251-1.302-2.545-1.834-3.859c-0.476-1.174-1.019-2.332-1.508-3.351c-0.12-0.253-0.286-0.611-0.775-0.611
	c-0.001,0-0.001,0-0.001,0l-0.333,0.027c-0.361,0.017-0.725-0.077-1.104-0.077c-0.483,0-0.904,0.801-1.325-0.199h-0.061
	c-0.651,0-0.852,0.806-0.96,1.178c-0.478,1.639-1.166,3.295-1.831,4.838l-0.209,0.511c-0.267,0.606-0.542,1.248-0.496,1.937
	l0.021,0.326c0.063,0.975,0.128,1.986,0.454,2.904c0.492,1.383,0.619,2.852,0.743,4.272c0.081,0.925,0.164,1.885,0.346,2.819
	c0.093,0.474,0.179,0.948,0.266,1.426c0.142,0.775,0.288,1.577,0.459,2.364c0.089,0.411,0.383,0.546,0.65,0.64
	c0.146,0.051,0.3,0.091,0.455,0.127c-0.176-0.004-0.352-0.013-0.528-0.015c-0.406-0.007-0.812-0.002-1.218,0.006
	c-0.275,0.004-0.55,0.007-0.824,0.007c-0.444,0-0.805-0.011-1.134-0.034c-0.844-0.062-1.683-0.071-2.392-0.071l-1.567,0.006
	c-0.935,0-1.939-0.015-2.949-0.122c-0.414-0.044-0.858-0.064-1.397-0.064c-0.373,0-0.747,0.01-1.119,0.019l-0.344,0.009
	c-0.383,0-0.533-0.125-0.642-0.533c-0.555-2.091-1.018-4.242-1.466-6.322c-0.218-1.015-0.437-2.027-0.666-3.04
	c-0.117-0.514-0.248-1.027-0.378-1.539c-0.25-0.98-0.51-1.995-0.656-3.001c-0.116-0.796-0.305-1.581-0.488-2.342
	c-0.22-0.913-0.447-1.856-0.543-2.808c-0.046-0.459-0.167-0.918-0.283-1.362c-0.077-0.295-0.155-0.592-0.211-0.889
	c-0.103-0.545-0.049-0.628,0.514-0.817c0.55-0.185,1.118-0.204,1.718-0.227c0.359-0.013,0.73-0.027,1.098-0.078
	c2.94-0.413,5.408-0.735,7.896-0.962l1.126-0.1c1.622-0.143,3.3-0.292,4.934-0.512l0.216-0.027c1.18-0.157,2.518-0.336,3.611-1.134
	c0.294-0.211,0.552-0.027,0.669,0.149c0.927,1.387,1.99,2.694,3.02,3.96l0.35,0.432c0.342,0.421,0.67,0.871,0.987,1.305
	c0.512,0.699,1.042,1.424,1.659,2.076c0.665,0.703,1.282,1.481,1.879,2.233c0.227,0.286,0.454,0.572,0.684,0.856
	c0.142,0.175,0.225,0.316,0.19,0.517c-0.063,1.456,0.139,2.902,0.335,4.301c0.041,0.294,0.082,0.585,0.12,0.876
	c0.122,0.913,0.216,1.846,0.309,2.747c0.082,0.8,0.164,1.6,0.263,2.397c0.036,0.28,0.072,0.559,0.11,0.84
	c0.121,0.893,0.244,1.815,0.275,2.73C58.979,101.68,58.93,101.918,58.818,102.035z M59.909,82.362
	c-0.698-0.87-1.391-1.746-2.082-2.623c-0.58-0.731-1.159-1.466-1.742-2.196c-0.229-0.288-0.463-0.572-0.698-0.856
	c-0.775-0.939-1.576-1.912-2.18-2.996c-0.12-0.213-0.281-0.394-0.438-0.568c-0.287-0.318-0.535-0.596-0.502-1.027
	c0.017-0.193-0.164-0.354-0.262-0.41c-0.607-0.353-0.78-0.958-0.963-1.597c-0.056-0.195-0.111-0.392-0.179-0.58l-0.04-0.11
	c-0.301-0.842-0.603-1.684-0.923-2.516c-0.869-2.257-1.67-4.583-2.446-6.833l-0.547-1.582c0.386,0.384,0.802,0.82,1.157,1.292
	c1.164,1.544,2.46,2.942,3.687,4.222c0.783,0.816,1.552,1.676,2.295,2.509c0.888,0.994,1.806,2.023,2.76,2.989
	c0.384,0.388,0.752,0.79,1.12,1.194c0.621,0.68,1.263,1.381,1.973,2.002c0.157,0.137,0.24,0.259,0.246,0.364
	c0.005,0.104-0.063,0.235-0.209,0.397c-0.206,0.224-0.381,0.472-0.552,0.71c-0.242,0.343-0.472,0.665-0.778,0.924
	c-0.288,0.246-0.574,0.699-0.299,1.472c0.185,0.521,0.403,1.013,0.651,1.463c1.124,2.045,2.268,3.579,3.602,4.825
	c0.625,0.583,1.141,1.224,1.494,1.853c0.613,1.093,1.377,2.167,2.409,3.379c0.023,0.029,0.044,0.055,0.059,0.074
	c-0.018,0.002-0.037,0.006-0.06,0.008c-0.3,0.03-0.6,0.069-0.898,0.107l-0.412,0.051l-0.06,0.004c-0.149,0-0.263-0.097-0.431-0.288
	C63.051,86.193,61.453,84.29,59.909,82.362z M64.139,82.789c-0.318-0.43-0.698-0.806-1.064-1.168
	c-0.326-0.322-0.663-0.655-0.946-1.018c-0.867-1.109-1.941-2.608-2.559-4.363c-0.069-0.196-0.072-0.259,0.066-0.415
	c0.991-1.122,1.966-2.29,2.911-3.419c1.06-1.27,2.158-2.581,3.28-3.836c0.461-0.514,0.918-1.033,1.375-1.552
	c1.135-1.29,2.308-2.623,3.536-3.873c0.112-0.115,0.229-0.233,0.293-0.281c0.057,0.062,0.152,0.205,0.219,0.304
	c0.628,0.946,1.292,1.89,1.935,2.802c0.986,1.402,2.007,2.853,2.916,4.337l0.044,0.073c0.127,0.217,0.304,0.514,0.645,0.514
	c0.124,0,0.253-0.044,0.386-0.128c0.177-0.11,0.284-0.253,0.322-0.422c0.066-0.299-0.116-0.58-0.236-0.766
	c-0.328-0.508-0.675-1.005-1.021-1.501c-0.298-0.426-0.596-0.853-0.883-1.286c-0.491-0.744-1.011-1.484-1.515-2.2
	c-0.582-0.828-1.185-1.684-1.74-2.546c-0.398-0.617-0.854-1.197-1.295-1.757c-0.46-0.583-0.935-1.188-1.334-1.822
	c-0.552-0.879-1.161-1.735-1.749-2.563c-0.63-0.884-1.281-1.8-1.858-2.738c-0.059-0.095-0.076-0.143-0.087-0.149
	c0.014-0.009,0.046-0.027,0.112-0.049c0.153-0.051,0.301-0.114,0.476-0.188c0.451-0.19,0.787-0.324,1.011-0.324
	c0.268,0,0.459,0.204,0.937,0.858c0.937,1.286,1.853,2.587,2.771,3.887l0.52,0.738c0.511,0.723,1.018,1.449,1.526,2.175
	c0.592,0.847,1.184,1.693,1.781,2.538c0.801,1.132,1.606,2.261,2.411,3.393c1.216,1.705,2.431,3.411,3.636,5.126l1.22,1.727
	c1.203,1.701,2.446,3.459,3.626,5.217c0.856,1.276,1.803,2.598,2.979,4.154c0.186,0.248,0.202,0.366,0.083,0.635
	c-0.146,0.327-0.312,0.613-0.506,0.879c-0.82,1.104-1.561,2.284-2.276,3.425c-0.576,0.916-1.172,1.865-1.802,2.765l-0.448,0.64
	c-1.092,1.558-2.221,3.17-3.31,4.769c-0.148,0.215-0.283,0.438-0.418,0.66c-0.24,0.393-0.466,0.767-0.754,1.102
	c-0.112,0.135-0.164,0.166-0.16,0.175c-0.015-0.009-0.067-0.051-0.168-0.217c-0.615-1.011-1.162-2.084-1.691-3.12
	c-0.377-0.737-0.766-1.499-1.177-2.237c-0.227-0.404-0.438-0.817-0.648-1.232c-0.421-0.823-0.856-1.579-1.41-2.356
	c-0.36-0.507-0.812-0.652-1.422-0.652h-0.024l-0.022-0.09c-0.618,0.126-1.248,0.143-1.916,0.21c-0.742,0.075-1.51,0.128-2.264,0.302
	c-0.22,0.049-0.411,0.077-0.528,0.077c-0.137,0-0.174-0.042-0.432-0.587c-0.203-0.426-0.495-0.789-0.777-1.135
	c-0.082-0.102-0.164-0.205-0.245-0.31c-0.483-0.621-0.95-1.273-1.404-1.905C64.757,83.636,64.451,83.21,64.139,82.789z
	 M80.325,98.05c0.277-0.419,0.556-0.835,0.836-1.252c0.316-0.472,0.632-0.943,0.945-1.419c0.821-1.24,1.658-2.472,2.494-3.703
	c1.543-2.271,3.138-4.619,4.604-7c0.63-1.021,1.293-1.448,2.292-1.47c0.474-0.011,1.092-0.046,1.683-0.226
	c0.028-0.008,0.064-0.021,0.099-0.027c-0.003,0.003-0.007,0.007-0.009,0.011c-0.032,0.036-0.063,0.074-0.087,0.111l-0.869,1.329
	c-0.819,1.259-1.64,2.518-2.479,3.762c-1.327,1.967-2.662,3.927-3.999,5.889c-0.887,1.305-1.775,2.606-2.661,3.913
	c-0.198,0.291-0.333,0.44-0.524,0.44c-0.038,0-0.081-0.007-0.153-0.023l-2.2-0.291C80.306,98.079,80.316,98.062,80.325,98.05z
	 M96.482,78.105c0.016,0.027-0.012,0.073-0.12,0.197c-0.033,0.038-0.066,0.074-0.093,0.111c-0.621,0.826-1.146,1.497-1.654,2.109
	c-0.023,0.028-0.05,0.062-0.075,0.096c-0.038,0.053-0.111,0.157-0.196,0.149c-0.221-0.154-0.392-0.373-0.503-0.634
	c0.636-0.125,0.915-0.606,1.164-1.034c0.105-0.183,0.206-0.355,0.329-0.496c0.104-0.12,0.2-0.249,0.296-0.377
	c0.055-0.07,0.107-0.142,0.163-0.213c0.059-0.074,0.113-0.113,0.163-0.116c0.074,0.029,0.153,0.051,0.231,0.07
	C96.346,78.011,96.444,78.042,96.482,78.105z M88.049,71.849c-0.102-0.144-0.27-0.384-0.287-0.419c0.049-0.058,0.354-0.16,0.5-0.207
	c0.843-0.281,1.683-0.563,2.524-0.844c2.235-0.749,4.547-1.522,6.833-2.244c0.404-0.127,0.811-0.244,1.218-0.362
	c0.663-0.191,1.349-0.39,2.014-0.629c0.229-0.083,0.484-0.173,0.602-0.173l0.007-0.009c0.051,0.071,0.046,0.463,0.043,0.685
	c0.006,0.137-0.021,0.295-0.051,0.465c-0.021,0.118-0.042,0.238-0.054,0.36c-0.033,0.35-0.213,0.45-0.645,0.608
	c-1.056,0.385-2.152,0.72-3.212,1.042c-0.818,0.251-1.664,0.508-2.49,0.791l-5.513,1.87c-0.31,0.105-0.506,0.17-0.624,0.17h-0.001
	c-0.117,0-0.186-0.077-0.487-0.551C88.306,72.213,88.177,72.031,88.049,71.849z M93.969,67.872l-1.255,0.412
	c-0.213,0.069-0.383,0.124-0.486,0.124c-0.054-0.046-0.124-0.355-0.155-0.488c-0.273-1.21-0.63-2.413-0.975-3.577
	c-0.344-1.158-0.697-2.357-0.969-3.552c-0.077-0.341-0.006-0.451,0.184-0.569c0.16-0.099,0.313-0.206,0.469-0.312
	c0.274-0.189,0.535-0.37,0.826-0.512c0.627-0.309,1.215-0.708,1.747-1.186c0.56-0.501,1.219-0.905,1.857-1.295
	c0.393-0.24,0.8-0.49,1.185-0.762c0.61-0.431,1.262-0.83,1.891-1.215c0.657-0.402,1.335-0.817,1.977-1.274
	c0.395-0.279,0.844-0.512,1.277-0.735c0.165-0.084,0.331-0.17,0.493-0.258c0.213-0.115,0.313-0.146,0.36-0.151
	c0.015,0.03,0.044,0.116,0.062,0.353c0.024,0.337,0.062,0.674,0.101,1.009c0.043,0.373,0.086,0.745,0.107,1.118
	c0.037,0.625,0.104,1.169,0.208,1.665c0.271,1.317,0.35,2.679,0.425,3.997c0.018,0.319,0.036,0.637,0.057,0.956
	c0.036,0.534,0.102,1.07,0.165,1.588c0.104,0.838,0.211,1.704,0.184,2.561l-0.147-0.042c-0.336-0.098-0.683-0.198-1.063-0.222
	c-0.87-0.057-1.712,0.085-2.749,0.44C97.824,66.604,95.864,67.25,93.969,67.872z M12.413,83.497
	c0.182,0.299,0.363,0.598,0.539,0.898c0.625,1.063,1.26,2.12,1.896,3.177c0.539,0.895,1.077,1.79,1.608,2.688
	c0.205,0.348,0.437,0.676,0.661,0.993l0.035,0.051c0.137,0.193,0.176,0.477,0.103,0.756c-0.076,0.291-0.257,0.53-0.484,0.64
	c-0.038,0.018-0.057,0.018-0.062,0.018c-0.025,0-0.095-0.099-0.118-0.131l-0.066-0.095c-0.227-0.324-0.455-0.65-0.663-0.987
	c-1.541-2.503-3.045-5.075-4.455-7.492c-0.285-0.489-0.559-0.987-0.832-1.484c-0.576-1.049-1.172-2.135-1.881-3.137
	c-0.061-0.085-0.103-0.198-0.147-0.318c-0.042-0.115-0.085,0.21-0.144,0.104C8.375,79.129,8.358,79.5,8.347,79.5
	c0.006,0,0.014,0,0.021,0c0.032,0,0.069-0.434,0.064-0.439c1.046,0.32,1.883,0.439,2.328,1.562
	C11.192,81.708,11.812,82.51,12.413,83.497z M57.594,104.587c-0.022,0.091-0.033,0.173-0.036,0.248
	c-0.07-0.035,0.291-0.059,0.241-0.077c-0.259-0.091-0.3-0.091-0.3-0.091v0.233l-0.938,0.6h-0.064c-0.526,0-1.054-0.412-1.58-0.406
	c-0.524,0.006-1.049-0.197-1.575-0.197c-0.789,0-1.438-0.116-2.041-0.14c-0.556-0.024-1.112-0.094-1.667-0.111
	c-1.258-0.04-2.558-0.107-3.832-0.212c-0.695-0.056-1.397,0.001-2.052,0.001l-0.944,0.065h-0.319c-0.929,0-1.859-0.083-2.789-0.085
	c-1.868,0-3.8-0.042-5.699-0.081c-0.483-0.008-0.967-0.06-1.452-0.091c-0.463-0.031-0.927-0.07-1.391-0.083
	c-0.169-0.003-0.28-0.04-0.307-0.091c-0.017-0.036,0.079-0.149,0.166-0.249c0.468-0.545,0.89-0.865,1.611-0.791
	c0.373,0.038,0.778,0.056,1.275,0.056c0.314,0,0.636-0.006,0.97-0.014c0.356-0.007,0.727-0.017,1.118-0.017
	c1.662-0.016,3.347,0.039,5.133,0.099c1.54,0.051,3.131,0.105,4.71,0.105c0.875,0,1.766,0.027,2.626,0.055
	c1.134,0.035,2.307,0.069,3.466,0.046c0.988-0.021,1.978,0,2.968,0.021c0.575,0.011,1.15,0.024,1.725,0.027
	c0.189,0.002,0.377,0.035,0.578,0.071c0.284,0.049,0.555,0.104,0.909,0.063c-0.001,0.002-0.002,0.004-0.003,0.004
	C57.845,103.896,57.677,104.235,57.594,104.587z M103.667,45.409c-0.252,0.748-0.33,1.525-0.411,2.316
	c-0.041,0.397-0.165,0.779-0.296,1.184c-0.21,0.653-0.429,1.327-0.264,2.039c-0.001,0.001-0.021,0.019-0.096,0.033
	c-0.993,0.208-1.783,0.763-2.548,1.301c-0.292,0.205-0.584,0.411-0.886,0.595c-0.47,0.288-0.947,0.558-1.426,0.827
	c-0.498,0.28-0.994,0.561-1.479,0.859c-0.43,0.264-0.847,0.56-1.25,0.845c-0.519,0.368-1.056,0.748-1.612,1.055
	c-0.625,0.345-1.194,0.772-1.744,1.186c-0.544,0.407-1.105,0.829-1.707,1.158c-0.127,0.07-0.32,0.176-0.329,0.198
	c-0.041-0.046-0.108-0.294-0.136-0.4c-0.091-0.34-0.162-0.687-0.234-1.033c-0.067-0.324-0.135-0.648-0.217-0.969
	c-0.233-0.904-0.472-1.806-0.711-2.709c-0.342-1.297-0.685-2.593-1.009-3.894c-0.771-3.083-1.643-6.579-2.55-9.954
	c-0.229-0.857-0.454-1.716-0.678-2.576c-0.44-1.686-0.895-3.43-1.392-5.133c-0.214-0.737-0.399-1.497-0.577-2.232
	c-0.074-0.304-0.147-0.607-0.218-0.873l0.07,0.042c1.37,0.804,2.787,1.634,4.083,2.612c0.57,0.431,1.179,0.838,1.767,1.231
	c0.291,0.195,0.582,0.39,0.869,0.588c0.808,0.556,1.61,1.117,2.414,1.678c1.262,0.882,2.566,1.793,3.866,2.669
	c2.567,1.732,5.172,3.548,7.963,5.552c0.038,0.027,0.077,0.051,0.116,0.076c0.031,0.019,0.062,0.038,0.095,0.062
	C104.016,44.371,104.016,44.371,103.667,45.409z M84.087,43.083c0.163,0.573,0.326,1.147,0.468,1.727l0.242,0.985
	c0.253,1.03,0.505,2.061,0.769,3.086c0.134,0.523,0.271,1.045,0.41,1.567c0.339,1.284,0.689,2.612,0.977,3.926
	c0.701,3.205,1.583,6.382,2.501,9.627c0.143,0.506,0.263,1.02,0.383,1.533c0.202,0.863,0.412,1.756,0.731,2.611
	c0.028,0.073,0.038,0.17,0.048,0.27c0.005,0.059,0.011,0.115,0.018,0.164c0.024,0.193-0.001,0.427-0.403,0.521
	c-0.672,0.156-1.319,0.396-1.945,0.63c-0.391,0.146-0.782,0.291-1.18,0.417c-0.083,0.025-0.142,0.038-0.185,0.038
	c-0.033,0-0.079,0-0.168-0.133c-0.483-0.72-0.998-1.417-1.441-2.017c-1.531-2.067-3.018-4.222-4.453-6.306
	c-0.454-0.659-0.907-1.316-1.362-1.972c-0.367-0.529-0.745-1.051-1.122-1.573c-0.467-0.644-0.949-1.31-1.401-1.978
	c-0.126-0.187-0.33-0.436-0.639-0.436c-0.085,0-0.172,0.02-0.257,0.06c-0.261,0.12-0.364,0.015-0.562-0.266l-0.058-0.08
	c-1.291-1.772-2.579-3.547-3.865-5.324c-0.089-0.123-0.163-0.26-0.234-0.396c-0.244-0.462-0.479-0.845-0.88-0.845
	c-0.27,0-0.537,0.18-0.884,0.47c-0.247,0.208-0.476,0.439-0.693,0.663l-0.21,0.211c-0.014,0.014-0.025,0.025-0.036,0.036
	c-0.008-0.016-0.018-0.036-0.027-0.062c-0.131-0.298-0.263-0.595-0.394-0.893c-0.492-1.109-0.998-2.256-1.388-3.42
	c-0.132-0.392-0.381-0.666-0.623-0.931c-0.208-0.228-0.403-0.443-0.501-0.716c-0.038-0.105-0.239-0.367-0.753-0.187
	c-0.442,0.154-0.909,0.176-1.347,0.176l-0.68-0.006c-0.147,0-0.295,0.002-0.442,0.01c-2.931,0.159-5.791,0.401-8.551,1.6
	c-2.169,0.943-4.426,1.796-6.606,2.62c-0.986,0.373-1.972,0.745-2.954,1.127l-0.435,0.168c-0.626,0.241-1.252,0.483-1.869,0.747
	c-0.139,0.059-0.247,0.089-0.322,0.089c-0.055,0-0.147,0-0.22-0.292c-0.221-0.896-0.58-1.75-0.927-2.578l-0.037-0.088
	c-0.159-0.379-0.095-0.594,0.253-0.854l1.222-0.905c0.917-0.677,1.833-1.355,2.741-2.044c0.409-0.311,0.809-0.635,1.208-0.959
	c0.41-0.332,0.818-0.664,1.238-0.981c1.007-0.761,2.019-1.517,3.03-2.273c1.382-1.033,2.763-2.066,4.135-3.113
	c1.262-0.965,2.512-1.949,3.76-2.933c0.735-0.578,1.469-1.157,2.207-1.732l0.082-0.063c1.878-1.464,3.756-2.928,5.646-4.376
	c3.316-2.541,6.109-4.672,8.956-6.816c0.456-0.344,0.949-0.662,1.425-0.97c0.345-0.222,0.689-0.445,1.024-0.679
	c0.124-0.087,0.18-0.091,0.189-0.092c0.001,0,0.046,0.03,0.093,0.214c0.038,0.148,0.065,0.3,0.093,0.451
	c0.032,0.172,0.063,0.344,0.108,0.513c0.214,0.811,0.432,1.621,0.649,2.43c0.394,1.462,0.788,2.926,1.158,4.395
	c0.279,1.108,0.568,2.214,0.857,3.319c0.279,1.067,0.558,2.133,0.828,3.202c0.268,1.057,0.581,2.178,0.931,3.331
	c0.465,1.538,0.837,3.062,1.139,4.351C83.711,41.754,83.902,42.43,84.087,43.083z M36.653,44.616c0.04,0.039,0.08,0.077,0.119,0.116
	c-0.318-0.086-0.607-0.124-0.717-0.128c-0.712-0.032-1.409-0.049-2.071-0.052c-1.268-0.004-2.557-0.08-3.804-0.153l-0.954-0.055
	c-0.655-0.037-1.312-0.07-1.967-0.104c-1.505-0.078-3.062-0.158-4.589-0.271c-1.55-0.115-2.901-0.175-4.131-0.185
	c-0.414-0.003-0.646-0.038-0.69-0.102c-0.046-0.066,0.004-0.309,0.15-0.721c0.012-0.033,0.027-0.064,0.042-0.097
	c0.033-0.07,0.07-0.15,0.088-0.244c0.063-0.335,0.196-0.363,0.326-0.363c0.059,0,0.127,0.009,0.204,0.027
	c0.146,0.034,0.328,0.034,0.519,0.023c0.065-0.004,0.129-0.008,0.175-0.009c1.664,0.138,3.357,0.207,4.995,0.274
	c0.967,0.04,1.934,0.079,2.899,0.132c1.118,0.062,2.059,0.104,3.017,0.104l0.316-0.001c0.92,0,1.855,0.082,2.76,0.16
	c0.915,0.08,1.861,0.162,2.8,0.162c0.119,0,0.238-0.001,0.374-0.004C35.918,43.766,36.306,44.282,36.653,44.616z M22.456,45.306
	c0.757,0.028,1.514,0.075,2.271,0.122c1.201,0.074,2.443,0.151,3.669,0.151l0.351-0.001c0.698,0,1.408,0.052,2.095,0.103
	c0.695,0.051,1.413,0.104,2.148,0.104c0.466,0,1.188,0.13,1.887,0.256c0.607,0.109,1.18,0.212,1.599,0.236
	c0.145,0.008,0.292,0.008,0.438,0l0.13-0.003c0.216-0.003,0.615-0.009,0.785-0.308c0.123,0.187,0.233,0.382,0.328,0.588
	c0.105,0.229,0.28,0.365,0.434,0.486c0.065,0.05,0.13,0.101,0.187,0.159c0.377,0.384,0.534,0.881,0.7,1.406
	c0.072,0.228,0.144,0.454,0.233,0.672c0.083,0.203,0.143,0.414,0.203,0.627c0.104,0.366,0.211,0.744,0.428,1.095
	c0.033,0.054,0.048,0.1,0.04,0.124c-0.008,0.027-0.056,0.073-0.162,0.116c-1.446,0.588-2.889,1.184-4.331,1.783l-0.163,0.065
	c-0.37,0.146-0.789,0.313-1.043,0.711c-0.295,0.46-0.307,1.022-0.034,1.503c0.558,0.981,0.933,2.065,1.295,3.113
	c0.148,0.428,0.296,0.856,0.456,1.278c0.553,1.463,1.124,2.918,1.696,4.375c0.533,1.351,1.049,2.711,1.565,4.071
	c0.371,0.975,0.74,1.949,1.117,2.92c0.152,0.392,0.308,0.783,0.464,1.173c0.385,0.967,0.784,1.966,1.112,2.977
	c0.069,0.211,0.139,0.43,0.149,0.455c-0.038,0.031-0.211,0.071-0.379,0.111l-0.145,0.036c-0.273,0.065-0.552,0.075-0.847,0.084
	c-0.19,0.006-0.384,0.011-0.579,0.033c0.175-0.326,0.021-0.663-0.128-0.989c-0.566-1.237-1.039-2.536-1.426-3.646
	c-0.259-0.741-0.565-1.474-0.861-2.182c-0.144-0.345-0.288-0.687-0.426-1.033c-0.396-0.985-2.408-6.079-2.612-6.801
	c-0.329-1.164-0.737-1.94-1.662-1.94c-0.398,0-0.872,0.144-1.535,0.466c-0.25,0.121-0.517,0.282-0.6,0.558
	c-0.082,0.267,0.045,0.535,0.165,0.74c0.609,1.04,2.054,4.995,2.917,7.357c0.249,0.68,0.451,1.233,0.575,1.558
	c0.15,0.392,0.318,0.774,0.487,1.154c0.12,0.273,0.24,0.545,0.352,0.818c0.236,0.577,0.44,1.181,0.637,1.765
	c0.278,0.823,0.565,1.676,0.952,2.481c0.039,0.082,0.045,0.124,0.052,0.131c-0.02,0.011-0.074,0.027-0.221,0.033
	c-0.443,0.016-0.877,0.093-1.296,0.165c-0.368,0.066-0.715,0.128-1.069,0.151c-0.795,0.053-1.592,0.158-2.363,0.261
	c-0.278,0.036-0.557,0.073-0.835,0.107c-0.318,0.038-0.542,0.023-0.792-0.372c-1.871-2.946-3.543-5.522-5.114-7.874
	c-0.36-0.539-0.736-1.069-1.11-1.598c-0.706-0.996-1.434-2.025-2.045-3.102c-0.602-1.06-1.459-1.808-2.55-2.223
	c-0.203-0.078-0.382-0.202-0.572-0.333c-0.076-0.052-0.151-0.105-0.229-0.154c-0.369-0.238-0.703-0.354-1.021-0.354
	c-0.522,0-0.963,0.307-1.349,0.938c-0.663,1.085-1.422,2.135-2.157,3.151c-0.28,0.386-0.559,0.774-0.835,1.164
	c-0.136,0.191-0.2,0.219-0.198,0.222c-0.008-0.003-0.066-0.034-0.171-0.211c-0.08-0.135-0.186-0.235-0.29-0.333
	c-0.06-0.057-0.121-0.113-0.172-0.179c-0.423-0.534-0.527-0.983-0.369-1.602c0.514-2.016,1.011-4.182,1.566-6.821
	c0.354-1.686,0.768-3.391,1.167-5.039c0.167-0.691,0.334-1.384,0.499-2.076c0.122-0.514,0.246-1.027,0.37-1.541
	c0.236-0.978,0.473-1.75,0.693-2.731c0.155-0.698,0.238-0.519,0.836-0.519h0.128c0.875,0,1.765-0.139,2.625-0.087
	C21.195,45.451,21.825,45.283,22.456,45.306z M10.968,72.84c0.704-0.969,1.433-1.971,2.11-2.985
	c0.686-1.025,1.434-2.036,2.157-3.013c0.733-0.991,1.491-2.015,2.188-3.059c0.131-0.198,0.291-0.425,0.475-0.62
	c0.287-0.304,0.49-0.34,0.785-0.145c0.357,0.235,0.764,0.311,1.157,0.383l0.174,0.033c0.141,0.027,0.226,0.07,0.286,0.152
	l-0.173,0.301c-0.619,1.049-1.335,2.062-2.028,3.041c-0.274,0.391-0.549,0.778-0.819,1.17c-0.487,0.708-0.98,1.411-1.474,2.114
	c-1.046,1.492-2.127,3.035-3.13,4.595c-0.231,0.358-0.479,0.704-0.727,1.053c-0.43,0.601-0.875,1.224-1.226,1.903
	c-0.085,0.164-0.148,0.27-0.28,0.219l-0.596-0.241c-0.539-0.218-1.078-0.435-1.623-0.636c-0.171-0.063-0.2-0.112-0.201-0.112
	c-0.001-0.006-0.003-0.063,0.172-0.297c0.366-0.492,0.733-0.985,1.083-1.492C9.829,74.406,10.398,73.623,10.968,72.84z
	 M7.048,76.162c-0.096,0.155-0.193,0.31-0.292,0.465c-0.502,0.771-0.488,1.585,0.043,2.415c1.351,2.113,2.627,4.322,3.861,6.457
	c0.399,0.692,0.799,1.385,1.201,2.073c0.959,1.645,1.985,3.286,2.976,4.872l0.162,0.259c0.098,0.157,0.174,0.328,0.255,0.511
	c0.124,0.278,0.252,0.566,0.472,0.817c0.027,0.031,0.052,0.061-0.023,0.175l-0.151,0.231c-0.351,0.539-0.702,1.078-1.07,1.606
	c-0.109,0.155-0.204,0.235-0.283,0.235c-0.057,0-0.163-0.037-0.34-0.208c-0.389-0.377-0.685-0.812-0.998-1.273
	c-0.151-0.222-0.303-0.444-0.464-0.657c-1.365-1.814-2.692-3.705-3.975-5.534l-0.428-0.609c-1.545-2.203-3.08-4.412-4.614-6.62
	l-1.54-2.215C1.661,78.903,1.636,78.8,1.647,78.76c0.011-0.042,0.083-0.12,0.368-0.257c1.696-0.816,3.395-1.629,5.094-2.439
	L7.048,76.162z M17.113,94.669c0.514-0.718,1.027-1.436,1.561-2.139c0.393-0.519,0.768-1.049,1.143-1.581
	c0.259-0.366,0.517-0.732,0.781-1.095c1.149-1.572,2.305-3.139,3.464-4.705c0.03-0.042,0.088-0.12,0.128-0.171
	c0.005,0.017,0.01,0.032,0.015,0.045c0.015,0.05,0.029,0.095,0.046,0.137c0.103,0.248,0.147,0.521,0.194,0.811
	c0.024,0.145,0.048,0.292,0.08,0.445c-0.084,0.308-0.306,0.599-0.54,0.905l-0.076,0.1c-0.543,0.718-1.068,1.45-1.592,2.183
	c-0.322,0.449-0.646,0.899-0.972,1.346l-0.579,0.789c-0.802,1.089-1.631,2.215-2.381,3.371c-0.444,0.684-0.937,1.355-1.413,2.004
	c-0.595,0.809-1.21,1.648-1.741,2.524c-0.419,0.696-0.842,0.983-1.504,1.029c-0.19,0.015-0.399,0.075-0.601,0.135
	c-0.177,0.051-0.36,0.104-0.485,0.126c-0.069-0.128,0.093-0.305,0.347-0.562c0.12-0.12,0.238-0.24,0.325-0.36
	c0.356-0.492,0.7-0.993,1.043-1.493c0.439-0.64,0.894-1.301,1.364-1.93C16.195,95.951,16.654,95.31,17.113,94.669z M12.953,102.197
	l0.127,0.271c0.452-0.144,0.878,0.032,1.354,0.032h0.11c0.36,0,0.677-0.21,1.019,0.136l0.66,0.511
	c1.358,1.371,2.763,2.712,4.179,4.072c0.693,0.667,1.423,1.275,2.129,1.9c0.494,0.438,0.988,0.857,1.473,1.303
	c0.338,0.312,0.664,0.628,0.99,0.952c0.483,0.479,0.982,0.97,1.515,1.416c0.683,0.574,1.308,1.229,1.913,1.866
	c0.446,0.468,0.907,0.953,1.393,1.404c1.202,1.122,2.563,2.39,3.969,3.566c0.242,0.204,0.265,0.297,0.263,0.328
	c-0.001,0.033-0.035,0.128-0.314,0.315c-0.169,0.114-0.356,0.204-0.553,0.299c-0.304,0.147-0.62,0.298-0.907,0.566
	c0,0-0.049,0-0.165-0.119c-0.351-0.35-0.719-0.676-1.164-1.056c-1.271-1.09-2.478-2.29-3.646-3.452
	c-0.524-0.521-1.047-1.04-1.578-1.554c-1.763-1.703-3.516-3.415-5.269-5.13c-1.01-0.987-2.02-1.973-3.031-2.958
	c-0.657-0.639-1.317-1.278-1.977-1.916c-0.854-0.825-1.708-1.652-2.558-2.482c-0.057-0.057-0.131-0.13-0.188-0.189
	C12.768,102.256,12.857,102.227,12.953,102.197z M26.802,111.387c-0.417-0.345-0.808-0.743-1.185-1.129
	c-0.152-0.157-0.304-0.312-0.458-0.463c-1.337-1.324-2.851-2.709-4.625-4.235c-0.798-0.685-1.564-1.465-2.342-2.381
	c-0.309-0.364-0.658-0.695-0.996-1.017c-0.214-0.203-0.429-0.407-0.634-0.621c-0.567-0.588-0.567-0.588-0.177-1.242
	c0.593-0.994,1.28-1.954,1.944-2.883c0.424-0.594,0.849-1.188,1.254-1.796c0.453-0.68,0.96-1.345,1.449-1.987
	c0.456-0.6,0.928-1.219,1.358-1.853c0.302-0.443,0.645-0.873,0.976-1.286c0.529-0.665,1.076-1.35,1.489-2.128
	c0.043-0.08,0.073-0.124,0.093-0.147c0.012,0.042,0.021,0.103,0.027,0.137l0.01,0.062c0.235,1.352,0.572,2.698,0.899,4.002
	l0.084,0.336c0.152,0.609,0.276,1.242,0.396,1.852c0.197,1.006,0.401,2.044,0.741,3.042c0.192,0.565,0.292,1.188,0.37,1.729
	c0.126,0.871,0.342,1.729,0.551,2.562c0.191,0.758,0.389,1.545,0.513,2.326c0.106,0.663,1.095,1.208,1.843,1.219l1.049,0.001
	c1.413,0.021,2.826,0.016,4.236,0.016h0.573c1.672,0,3.372,0.075,5.015,0.135c1.155,0.042,2.31,0.093,3.464,0.115l1.076,0.023
	c1.202,0.02,2.407,0.043,3.609,0.089c0.625,0.023,1.251,0.042,1.878,0.061c1.538,0.044,3.129,0.091,4.687,0.222
	c0.37,0.031,0.744,0.018,1.117,0.004l-0.083-0.004c0.581-0.022,0.496-0.36,0.496-0.642c0-0.013,0-0.023,0-0.036
	c0,0.023,0.354,0.034,0.414,0.034c0.264,0,0.534-0.202,0.676-0.388c0.313-0.4,0.542-0.857,0.667-1.253
	c0.001-0.002,0.03-0.002,0.031-0.004c0.001,0.013,0.017,0.023,0.018,0.036c0.108,0.636,0.183,1.296,0.249,1.938
	c0.029,0.291,0.054,0.585,0.074,0.878c0.057,0.798,0.118,1.623,0.361,2.427c0.071,0.234,0.062,0.512-0.544,0.781l-0.257,0.114
	c-0.834,0.375-1.623,0.73-2.53,0.743c-0.784,0.011-1.445,0.432-2.029,0.804l-0.195,0.124c-1.532,0.958-3.243,1.657-5.388,2.198
	c-0.587,0.147-1.168,0.343-1.728,0.53c-0.889,0.299-1.809,0.606-2.755,0.725c-0.387,0.049-0.771,0.113-1.155,0.179
	c-0.425,0.073-0.849,0.146-1.276,0.193c-0.394,0.045-0.716,0.167-1.015,0.388c-1.247,0.918-2.709,1.423-4.101,1.859
	c-0.647,0.204-1.266,0.436-1.712,1.025c-0.082,0.107-0.155,0.162-0.218,0.162c-0.046,0-0.132-0.025-0.278-0.146
	c-1.702-1.409-3.502-2.95-5.147-4.678C28.74,113.172,27.827,112.233,26.802,111.387z M59.296,92.04
	c-0.03-0.314-0.047-0.63-0.064-0.945c-0.038-0.719-0.078-1.462-0.271-2.211c-0.006-0.017-0.009-0.033-0.013-0.046
	c0.012,0.015,0.024,0.029,0.035,0.044l0.486,0.619c0.567,0.72,1.134,1.441,1.71,2.155c0.039,0.047,0.075,0.097,0.11,0.144
	c0.188,0.253,0.422,0.566,0.891,0.566c0.13,0,0.269-0.023,0.463-0.078c0.123,0,0.285,0.261,0.416,0.47
	c0.094,0.151,0.191,0.308,0.304,0.43c0.055,0.061,0.059,0.107,0.058,0.137c-0.005,0.079-0.068,0.177-0.164,0.259
	c-1.068,0.907-0.996,2.113-0.844,3.172c0.197,1.373,0.346,2.777,0.492,4.135c0.202,1.907,0.413,3.88,0.756,5.807
	c0.077,0.425,0.111,0.869,0.146,1.299c0.018,0.242,0.038,0.486,0.063,0.727c0.045,0.427-0.093,0.457-0.185,0.479
	c-0.426,0.097-0.79,0.3-1.142,0.495c-0.294,0.164-0.572,0.318-0.876,0.412c-0.097,0.028-0.169,0.045-0.229,0.045
	c-0.006-0.005-0.037-0.04-0.079-0.222c-0.14-0.605-0.17-1.239-0.201-1.851l-0.025-0.478c-0.034-0.545-0.121-1.08-0.207-1.598
	c-0.077-0.463-0.156-0.939-0.193-1.413c-0.087-1.122-0.223-2.256-0.354-3.352c-0.106-0.895-0.214-1.789-0.298-2.686
	c-0.102-1.095-0.25-2.198-0.394-3.266C59.544,94.227,59.396,93.126,59.296,92.04z M62.555,111.136
	c0.042-0.014,0.083-0.026,0.12-0.04l0.503-0.21c0.34-0.142,0.683-0.282,1.02-0.434c0.155-0.069,0.227-0.073,0.349-0.017
	c1.159,0.534,2.357,1.021,3.516,1.492c0.778,0.316,1.555,0.632,2.325,0.964c0.535,0.229,1.068,0.464,1.603,0.701
	c0.88,0.388,1.788,0.79,2.695,1.16c0.183,0.073,0.35,0.171,0.526,0.273c0.107,0.062,0.216,0.124,0.359,0.198
	c0.013,0.007,0.029,0.015,0.044,0.021c-0.029,0.022-0.057,0.046-0.079,0.069c-0.407,0.454-0.712,0.631-1.083,0.631
	c-0.215,0-0.456-0.061-0.736-0.185c-1.35-0.599-2.71-1.177-4.072-1.752c-1.064-0.452-2.128-0.901-3.188-1.364l-0.281-0.122
	c-0.979-0.43-1.989-0.873-3.052-1.149c-0.147-0.038-0.292-0.089-0.438-0.157c-0.042-0.018-0.109-0.049-0.148-0.076
	C62.544,111.139,62.55,111.137,62.555,111.136z M65.197,108.837c-0.052-0.654-0.135-1.312-0.215-1.949
	c-0.095-0.754-0.191-1.532-0.238-2.297c-0.024-0.404-0.109-0.789-0.191-1.16c-0.076-0.35-0.149-0.68-0.176-1.025
	c-0.027-0.336-0.047-0.673-0.067-1.01c-0.06-0.996-0.123-2.025-0.353-3.027c-0.055-0.244-0.052-0.499-0.047-0.769
	c0.004-0.24,0.007-0.486-0.032-0.732c0.036,0.037,0.071,0.075,0.106,0.113c0.288,0.308,0.559,0.598,0.735,0.977
	c0.286,0.615,0.708,1.142,1.117,1.653c0.176,0.219,0.351,0.438,0.515,0.663c0.921,1.261,1.829,2.564,2.707,3.827
	c0.688,0.989,1.378,1.977,2.079,2.956c0.23,0.322,0.466,0.644,0.702,0.964c0.503,0.683,1.023,1.39,1.484,2.105
	c0.282,0.441,0.602,0.863,0.908,1.273c0.485,0.648,0.984,1.313,1.347,2.049c-0.144-0.047-0.286-0.095-0.43-0.14
	c-0.675-0.221-1.372-0.448-2.026-0.732c-2.83-1.229-5.172-2.21-7.372-3.08C65.363,109.343,65.229,109.227,65.197,108.837z
	 M71.449,105.086c-0.344-0.424-0.629-0.891-0.931-1.383c-0.233-0.379-0.473-0.771-0.741-1.138c-0.605-0.836-1.227-1.661-1.847-2.485
	c-0.496-0.661-0.993-1.322-1.483-1.986c-0.319-0.436-0.655-0.862-0.991-1.29c-0.324-0.412-0.65-0.825-0.961-1.25
	c-0.382-0.517-0.515-0.812-0.074-1.276c0.427-0.45,0.448-1.135,0.049-1.745c-0.087-0.133-0.169-0.27-0.251-0.404
	c-0.186-0.31-0.379-0.63-0.631-0.92c-0.134-0.156-0.199-0.297-0.179-0.386c0.018-0.077,0.116-0.157,0.275-0.225
	c0.177-0.074,0.33-0.196,0.422-0.335c0.041-0.059,0.069-0.093,0.087-0.111c0.023,0.021,0.061,0.063,0.12,0.147
	c0.486,0.696,0.98,1.385,1.475,2.075c0.77,1.072,1.563,2.182,2.314,3.293c0.358,0.532,0.763,1.034,1.154,1.521
	c0.417,0.521,0.849,1.059,1.219,1.623c0.682,1.044,1.375,2.081,2.068,3.115c0.402,0.601,0.805,1.204,1.205,1.807
	c1.356,2.042,2.73,4.024,4.084,5.89c0.948,1.31,1.954,2.769,3.07,4.459c0.172,0.258,0.363,0.502,0.554,0.748
	c0.305,0.387,0.591,0.753,0.798,1.177c0.067,0.137,0.133,0.275,0.198,0.415l0.037,0.081c-0.104,0.271-0.172,0.548-0.238,0.815
	c-0.099,0.396-0.191,0.769-0.387,1.104c-0.132,0.229-0.244,0.467-0.354,0.705l-0.004-0.003c-0.173-0.216-0.348-0.429-0.51-0.652
	l-0.452-0.617c-0.929-1.277-1.859-2.553-2.775-3.839c-0.495-0.697-0.983-1.396-1.473-2.098c-0.687-0.985-1.372-1.971-2.078-2.943
	c-0.35-0.481-0.684-0.974-1.02-1.465C72.649,106.702,72.081,105.865,71.449,105.086z M82.765,119.757
	c0.175-0.377,0.303-0.771,0.428-1.153c0.142-0.434,0.289-0.884,0.503-1.295c0.177-0.341,0.367-0.505,0.679-0.581
	c0.217-0.055,0.433-0.111,0.647-0.17c0.458-0.122,0.931-0.247,1.408-0.331c1.236-0.219,2.475-0.528,3.674-0.829l1.976-0.49
	c1.604-0.396,3.263-0.809,4.91-1.133c0.697-0.137,1.39-0.287,2.083-0.437c0.485-0.106,0.971-0.21,1.457-0.31
	c0.132-0.027,0.279-0.057,0.37-0.059c-0.005,0.099-0.045,0.284-0.061,0.354c-0.025,0.122-0.063,0.242-0.107,0.358
	c-0.811,2.157-0.811,2.157-3.245,2.72c-0.917,0.213-1.837,0.421-2.757,0.63c-2.354,0.532-4.787,1.082-7.162,1.709
	c-0.631,0.166-1.28,0.308-1.909,0.444c-0.792,0.173-1.61,0.352-2.407,0.581c-0.117,0.034-0.238,0.057-0.317,0.073
	c-0.086,0.013-0.162,0.015-0.208,0.013C82.733,119.829,82.745,119.799,82.765,119.757z M116.444,87.865
	c-0.322,0.295-0.479,0.419-0.61,0.419c-0.126,0-0.313-0.102-0.594-0.278l-1.293-0.814c-0.705-0.444-1.41-0.887-2.118-1.328
	c-1.09-0.676-2.192-1.331-3.296-1.987c-1.137-0.676-2.313-1.373-3.454-2.085c-0.649-0.404-1.293-0.82-1.936-1.233
	c-1.316-0.847-2.678-1.724-4.069-2.503c-0.312-0.175-0.63-0.339-0.948-0.505c-0.513-0.266-1.043-0.541-1.536-0.854
	c-0.24-0.153-0.481-0.229-0.715-0.229c-0.36,0-0.696,0.184-0.974,0.529c-0.191,0.239-0.412,0.467-0.625,0.688
	c-0.409,0.424-0.831,0.861-1.11,1.428c-0.003-0.006-0.006-0.009-0.01-0.013c-0.362-0.461-0.699-0.954-1.026-1.434
	c-0.359-0.524-0.73-1.067-1.142-1.577c-0.235-0.292-0.451-0.614-0.659-0.928c-0.137-0.204-0.272-0.409-0.415-0.608
	c-0.113-0.156-0.107-0.222-0.104-0.238c0.005-0.019,0.035-0.082,0.229-0.171c0.962-0.445,1.953-0.778,3.057-1.139
	c1.988-0.65,4.022-1.279,5.988-1.888c0.803-0.247,1.604-0.495,2.406-0.744l0.479-0.147c0.073,0.016,0.146,0.03,0.219,0.045
	c0.179,0.035,0.348,0.067,0.485,0.133c1.068,0.511,2.181,0.96,3.257,1.396c0.948,0.385,1.929,0.779,2.872,1.217
	c1.468,0.678,3.215,1.474,5.042,2.231c0.932,0.386,1.856,0.845,2.749,1.291c0.944,0.471,1.921,0.957,2.918,1.363
	c0.775,0.314,1.543,0.69,2.285,1.053c0.832,0.406,1.692,0.826,2.576,1.169c0.315,0.124,0.368,0.191,0.373,0.191
	c0,0.009-0.02,0.093-0.293,0.326c-0.91,0.774-1.789,1.612-2.638,2.421c-0.947,0.903-1.927,1.838-2.952,2.685
	C118.123,86.355,117.331,87.05,116.444,87.865z M114.35,74.061c-0.726-0.322-1.456-0.633-2.187-0.942
	c-0.992-0.421-2.019-0.855-3.013-1.316c-1.641-0.76-3.329-1.484-4.963-2.185l-0.979-0.419c-0.358-0.152-0.431-0.207-0.388-0.446
	l0.069-0.444c0.057-0.367,0.114-0.737,0.163-1.107c0.004-0.027,0.008-0.045,0.009-0.055c0.026,0.002,0.062,0.008,0.113,0.019
	l0.122,0.029c0.359,0.08,0.698,0.156,1,0.314c0.854,0.445,1.756,0.812,2.627,1.166c0.703,0.288,1.432,0.583,2.124,0.918
	c1.085,0.524,2.209,0.997,3.297,1.454c0.813,0.342,1.627,0.683,2.43,1.047c3.831,1.74,6.958,3.187,9.847,4.551
	c0.239,0.112,0.478,0.23,0.716,0.348c0.277,0.139,0.557,0.274,0.839,0.406c0.089,0.042,0.122,0.071,0.117,0.062
	c-0.001,0.01-0.005,0.044-0.045,0.122c-0.154,0.305-0.26,0.631-0.36,0.945l-0.08,0.242c-0.09,0.267-0.17,0.267-0.217,0.267
	c-0.056,0-0.128-0.019-0.216-0.055c-1.573-0.642-3.144-1.361-4.662-2.057c-0.771-0.354-1.541-0.707-2.316-1.053l-1.855-0.831
	C115.811,74.712,115.08,74.387,114.35,74.061z"/>
</svg>
