<?xml version="1.0" encoding="utf-8"?>
<!-- Generator: Adobe Illustrator 16.0.4, SVG Export Plug-In . SVG Version: 6.00 Build 0)  -->
<!DOCTYPE svg PUBLIC "-//W3C//DTD SVG 1.1//EN" "http://www.w3.org/Graphics/SVG/1.1/DTD/svg11.dtd">
<svg version="1.1" id="Layer_2512" xmlns="http://www.w3.org/2000/svg" xmlns:xlink="http://www.w3.org/1999/xlink" x="0px" y="0px"
	 width="128px" height="128px" viewBox="0 0 128 128" enable-background="new 0 0 128 128" xml:space="preserve">
<g>
	<path fill-rule="evenodd" clip-rule="evenodd" d="M43,3183.316c-6.319,0.27-11.231,3.417-14.322,9.455
		c-0.525,1.029-0.42,2.798-2.224,2.545c-1.437-0.203-1.276-1.719-1.557-2.715c-4.251-15.122-8.392-30.277-12.722-45.374
		c-0.732-2.556,0.234-3.128,2.293-2.846c8.941,1.224,17.911,0.139,26.859,0.272c23.531,0.359,47.072-0.081,70.611-0.207
		c5.171-0.027,4.602-0.289,3.27,4.553c-3.835,13.924-7.747,27.825-11.631,41.734c-0.264,0.947-0.543,1.887-0.814,2.832
		c-0.236,0.807-0.435,1.721-1.473,1.781c-1.046,0.063-1.385-0.836-1.664-1.611c-0.883-2.43-2.276-4.499-4.205-6.207
		c-8.146-7.207-20.277-4.984-25.303,4.83c-1.172,2.287-2.277,3.527-4.981,3.17c-2.851-0.375-5.771,0.857-7.54-3.289
		C55.1,3186.387,49.954,3183.502,43,3183.316z"/>
	<path fill-rule="evenodd" clip-rule="evenodd" d="M91.142,3131.869c-10.091,0.04-20.205-0.498-30.261-0.237
		c-10.81,0.277-21.614-0.042-32.416,0.306c-4.768,0.153-9.551-0.203-14.32-0.097c-1.936,0.043-2.129-1.079-2.123-2.343
		c0.016-2.972,0.582-5.889,1.849-8.577c1.099-2.333,3.409-2.912,5.702-2.86c2.379,0.053,3.912-0.861,5.234-2.774
		c1.27-1.838,2.822-3.496,4.359-5.132c4.172-4.447,9.057-7.671,15.395-7.514c2.805,0.071,4.336-1.107,5.762-3.275
		c2.086-3.17,4.318-6.285,8.488-7.049c7.029-1.286,13.544-1.104,17.685,6.01c0.665,1.145,1.741,1.406,2.823,1.566
		c6.561,0.969,11.021,4.66,13.684,10.591c0.922,2.054,2.372,2.892,4.531,3.153c3.538,0.429,6.35,1.995,7.826,5.524
		c0.771,1.839,2.414,3.076,3.758,4.51c1.439,1.53,3.07,2.905,4.091,4.79c1.328,2.449,0.932,3.34-1.828,3.38
		C104.635,3131.934,97.889,3131.869,91.142,3131.869z M56.536,3097.563c1.971-0.169,3.444-1.659,5.442-1.935
		c1.368-0.188,2.93-0.141,4.118-1.152c-1.651-0.475-3.296-0.357-4.927,0.098c-1.843,0.517-3.863,0.75-4.744,2.863
		c-0.774-0.061-1.316,0.351-1.764,0.906c-0.386,0.48-1.134,0.813-0.752,1.651c0.459-0.286,0.971-0.513,1.365-0.869
		C55.771,3098.68,56.453,3098.352,56.536,3097.563z M33.609,3111.944l0.186,0.04l-0.279-0.071c1.039-1.371,2.461-2.257,3.943-3.042
		c2.602-1.372,5.311-2.469,8.201-3.08c0.527-0.111,1.266-0.296,1.275-0.893c0.012-0.738-0.764-0.578-1.246-0.578
		c-6.426,0.012-15.66,6.59-17.77,12.639l-0.217,0.086l0.132-0.175C30.283,3115.84,31.234,3113.058,33.609,3111.944z"/>
	<path fill-rule="evenodd" clip-rule="evenodd" d="M90.469,3142.914c-7.281-0.015-18.098-0.536-28.864-0.242
		c-10.362,0.283-20.7-0.605-31.073,0.121c-6.823,0.477-13.738-0.354-20.605,0.117c-2.382,0.165-3.396-0.695-3.085-3.098
		c0.108-0.832,0.081-1.688,0.02-2.527c-0.138-1.772,0.576-2.67,2.41-2.509c6.722,0.591,13.447-0.025,20.173,0.082
		c6.852,0.11,13.707,0.052,20.561,0.08c7.135,0.03,14.282-0.339,21.404,0.261c2.567,0.218,5.009-0.494,7.547-0.479
		c12.648,0.08,25.298,0.024,37.946,0.083c1.304,0.006,3.225-0.791,3.796,0.809c0.745,2.076,0.648,4.467-0.062,6.582
		c-0.423,1.264-1.994,0.688-3.041,0.693C109.725,3142.938,101.854,3142.914,90.469,3142.914z"/>
	<path fill-rule="evenodd" clip-rule="evenodd" d="M43.676,3185.146c8.123,0.132,14.264,6.495,14.131,14.646
		c-0.127,7.846-6.856,14.357-14.701,14.228c-7.758-0.129-14.355-7.013-14.176-14.791
		C29.118,3191.158,35.552,3185.017,43.676,3185.146z M43.184,3205.788c3.559,0.047,6.549-2.777,6.596-6.232
		c0.047-3.415-2.928-6.435-6.406-6.506c-3.379-0.067-6.356,3.015-6.329,6.545C37.07,3202.986,39.803,3205.745,43.184,3205.788z"/>
	<path fill-rule="evenodd" clip-rule="evenodd" d="M84.387,3185.143c8.104-0.068,14.471,6.185,14.49,14.229
		c0.018,7.749-6.695,14.621-14.303,14.641c-7.623,0.02-14.367-6.502-14.491-14.012C69.946,3191.623,76.117,3185.214,84.387,3185.143
		z M84.736,3193.051c-3.817,0.018-6.641,2.945-6.516,6.76c0.111,3.376,2.904,6.043,6.324,6.04c3.42-0.004,6.519-3.151,6.416-6.518
		C90.861,3196.053,87.876,3193.038,84.736,3193.051z"/>
</g>
<g>
	<path fill-rule="evenodd" clip-rule="evenodd" d="M42.141,95.7c-6.577,0.28-11.69,3.557-14.907,9.842
		c-0.548,1.071-0.438,2.912-2.315,2.648c-1.495-0.211-1.329-1.789-1.62-2.826c-4.425-15.74-8.734-31.515-13.242-47.229
		c-0.763-2.66,0.244-3.255,2.387-2.962c9.306,1.274,18.643,0.145,27.956,0.284c24.494,0.374,48.997-0.084,73.499-0.215
		c5.382-0.029,4.789-0.301,3.402,4.739c-3.991,14.493-8.063,28.962-12.105,43.44c-0.274,0.986-0.565,1.964-0.848,2.948
		c-0.246,0.84-0.453,1.791-1.533,1.854c-1.089,0.066-1.441-0.87-1.732-1.677c-0.919-2.529-2.369-4.683-4.377-6.461
		c-8.479-7.502-21.106-5.188-26.337,5.027c-1.22,2.381-2.37,3.672-5.185,3.3c-2.967-0.391-6.007,0.893-7.849-3.424
		C54.736,98.896,49.38,95.894,42.141,95.7z"/>
	<path fill-rule="evenodd" clip-rule="evenodd" d="M92.251,42.15c-10.503,0.041-21.031-0.519-31.498-0.248
		c-11.251,0.289-22.498-0.044-33.741,0.318c-4.963,0.16-9.941-0.211-14.906-0.101c-2.015,0.045-2.216-1.123-2.209-2.439
		c0.016-3.093,0.605-6.129,1.923-8.927c1.144-2.429,3.548-3.031,5.936-2.978c2.477,0.055,4.072-0.896,5.448-2.888
		c1.321-1.913,2.938-3.639,4.538-5.341c4.342-4.63,9.427-7.984,16.024-7.82c2.918,0.074,4.513-1.154,5.997-3.41
		c2.171-3.3,4.495-6.543,8.835-7.336c7.316-1.339,14.098-1.15,18.407,6.255c0.692,1.19,1.812,1.463,2.938,1.63
		c6.829,1.008,11.473,4.851,14.243,11.023c0.96,2.138,2.469,3.009,4.717,3.283c3.683,0.446,6.608,2.076,8.146,5.75
		c0.803,1.914,2.513,3.202,3.911,4.694c1.499,1.593,3.196,3.025,4.259,4.986c1.382,2.549,0.97,3.477-1.903,3.518
		C106.296,42.217,99.273,42.15,92.251,42.15z M56.231,6.442c2.051-0.176,3.585-1.728,5.665-2.014c1.424-0.196,3.049-0.147,4.287-1.2
		c-1.719-0.494-3.431-0.372-5.128,0.103c-1.918,0.538-4.021,0.78-4.938,2.98c-0.806-0.063-1.37,0.365-1.836,0.943
		c-0.401,0.5-1.18,0.846-0.783,1.718c0.478-0.297,1.011-0.534,1.421-0.904C55.435,7.604,56.145,7.262,56.231,6.442z M32.367,21.411
		l0.194,0.041l-0.291-0.074c1.082-1.427,2.561-2.35,4.104-3.166c2.708-1.428,5.528-2.569,8.537-3.207
		c0.549-0.116,1.317-0.307,1.327-0.928c0.012-0.769-0.794-0.602-1.297-0.602c-6.688,0.011-16.3,6.859-18.496,13.155l-0.227,0.09
		l0.138-0.182C28.904,25.465,29.895,22.569,32.367,21.411z"/>
	<path fill-rule="evenodd" clip-rule="evenodd" d="M91.551,53.646c-7.579-0.015-18.838-0.558-30.044-0.252
		c-10.786,0.295-21.545-0.63-32.343,0.126c-7.102,0.496-14.299-0.368-21.448,0.122c-2.479,0.172-3.534-0.724-3.211-3.224
		c0.112-0.866,0.085-1.758,0.021-2.631c-0.144-1.844,0.6-2.778,2.508-2.611c6.997,0.614,13.997-0.026,20.998,0.085
		c7.131,0.115,14.267,0.054,21.401,0.083c7.427,0.031,14.866-0.354,22.279,0.271c2.673,0.227,5.214-0.515,7.855-0.499
		c13.165,0.083,26.332,0.025,39.497,0.086c1.357,0.007,3.356-0.822,3.951,0.842c0.775,2.162,0.675,4.65-0.064,6.852
		c-0.44,1.315-2.076,0.715-3.166,0.722C111.594,53.67,103.401,53.646,91.551,53.646z"/>
	<path fill-rule="evenodd" clip-rule="evenodd" d="M42.846,97.604c8.455,0.138,14.846,6.761,14.708,15.244
		c-0.132,8.167-7.137,14.944-15.302,14.81c-8.076-0.134-14.943-7.3-14.755-15.396C27.692,103.862,34.389,97.47,42.846,97.604z
		 M42.333,119.09c3.704,0.049,6.817-2.891,6.866-6.486c0.048-3.555-3.048-6.698-6.669-6.772c-3.517-0.07-6.616,3.138-6.587,6.812
		C35.97,116.174,38.814,119.046,42.333,119.09z"/>
	<path fill-rule="evenodd" clip-rule="evenodd" d="M85.22,97.601c8.437-0.071,15.062,6.438,15.083,14.811
		c0.019,8.065-6.969,15.219-14.888,15.239c-7.935,0.02-14.954-6.769-15.083-14.585C70.189,104.346,76.612,97.675,85.22,97.601z
		 M85.584,105.832c-3.974,0.019-6.912,3.066-6.782,7.036c0.116,3.514,3.023,6.29,6.583,6.287c3.56-0.004,6.785-3.28,6.678-6.784
		C91.959,108.957,88.852,105.819,85.584,105.832z"/>
</g>
</svg>
