<?xml version="1.0" encoding="utf-8"?>
<!-- Generator: Adobe Illustrator 16.0.4, SVG Export Plug-In . SVG Version: 6.00 Build 0)  -->
<!DOCTYPE svg PUBLIC "-//W3C//DTD SVG 1.1//EN" "http://www.w3.org/Graphics/SVG/1.1/DTD/svg11.dtd">
<svg version="1.1" id="Layer_2514" xmlns="http://www.w3.org/2000/svg" xmlns:xlink="http://www.w3.org/1999/xlink" x="0px" y="0px"
	 width="128px" height="128px" viewBox="0 0 128 128" enable-background="new 0 0 128 128" xml:space="preserve">
<g>
	<path fill-rule="evenodd" clip-rule="evenodd" d="M42.141,95.7c-6.577,0.28-11.69,3.557-14.907,9.842
		c-0.548,1.071-0.438,2.912-2.315,2.648c-1.495-0.211-1.329-1.789-1.62-2.826c-4.425-15.74-8.734-31.515-13.242-47.229
		c-0.763-2.66,0.244-3.255,2.387-2.962c9.306,1.274,18.643,0.145,27.956,0.284c24.494,0.374,48.997-0.084,73.499-0.215
		c5.382-0.029,4.789-0.301,3.402,4.739c-3.991,14.493-8.063,28.962-12.105,43.44c-0.274,0.986-0.565,1.964-0.848,2.948
		c-0.246,0.84-0.453,1.791-1.533,1.854c-1.089,0.066-1.441-0.87-1.732-1.677c-0.919-2.529-2.369-4.683-4.377-6.461
		c-8.479-7.502-21.106-5.188-26.337,5.027c-1.22,2.381-2.37,3.672-5.185,3.3c-2.967-0.391-6.007,0.893-7.849-3.424
		C54.736,98.896,49.38,95.894,42.141,95.7z"/>
	<path fill-rule="evenodd" clip-rule="evenodd" d="M91.176,55.771c-7.579-0.015-18.838-0.558-30.044-0.252
		c-10.786,0.295-21.545-0.63-32.343,0.126c-7.102,0.496-14.299-0.368-21.448,0.122c-2.479,0.172-3.534-0.724-3.211-3.224
		c0.112-0.866,0.085-1.758,0.021-2.631c-0.144-1.844,0.6-2.778,2.508-2.611c6.997,0.614,13.997-0.026,20.998,0.085
		c7.131,0.115,14.267,0.054,21.401,0.083c7.427,0.031,14.866-0.354,22.279,0.271c2.673,0.227,5.214-0.515,7.855-0.499
		c13.165,0.083,26.332,0.025,39.497,0.086c1.357,0.007,3.356-0.822,3.951,0.842c0.775,2.162,0.675,4.65-0.064,6.852
		c-0.44,1.315-2.076,0.715-3.166,0.722C111.219,55.795,103.026,55.771,91.176,55.771z"/>
	<path fill-rule="evenodd" clip-rule="evenodd" d="M42.846,97.604c8.455,0.138,14.846,6.761,14.708,15.244
		c-0.132,8.167-7.137,14.944-15.302,14.81c-8.076-0.134-14.943-7.3-14.755-15.396C27.692,103.862,34.389,97.47,42.846,97.604z
		 M42.333,119.09c3.704,0.049,6.817-2.891,6.866-6.486c0.048-3.555-3.048-6.698-6.669-6.772c-3.517-0.07-6.616,3.138-6.587,6.812
		C35.97,116.174,38.814,119.046,42.333,119.09z"/>
	<path fill-rule="evenodd" clip-rule="evenodd" d="M85.22,97.601c8.437-0.071,15.062,6.438,15.083,14.811
		c0.019,8.065-6.969,15.219-14.888,15.239c-7.935,0.02-14.954-6.769-15.083-14.585C70.189,104.346,76.612,97.675,85.22,97.601z
		 M85.584,105.832c-3.974,0.019-6.912,3.066-6.782,7.036c0.116,3.514,3.023,6.29,6.583,6.287c3.56-0.004,6.785-3.28,6.678-6.784
		C91.959,108.957,88.852,105.819,85.584,105.832z"/>
</g>
<g id="YIe2yH.tif_1_">
	<g>
		<path fill-rule="evenodd" clip-rule="evenodd" d="M23.323,42.66c-0.315,0.039-0.532-0.12-0.708-0.295
			c-0.754-0.751-1.586-1.439-2.402-2.142c-0.531-0.459-0.45-0.791,0.164-1.17c0.568-0.352,1.11-0.732,1.568-1.192
			c0.327-0.329,0.771-0.572,1.188-0.775c0.454-0.22,0.588-0.515,0.683-0.874c0.488-1.836,0.969-3.675,1.45-5.514
			c0.396-1.514,0.806-3.025,1.171-4.545c0.161-0.669,0.538-1.272,0.713-1.937c0.1-0.377,0.257-0.735,0.264-1.133
			c0.008-0.466,0.198-0.568,0.735-0.503c0.407,0.05,0.818,0.088,1.229,0.099c2.282,0.059,4.558,0.238,6.839,0.292
			c1.602,0.037,3.2,0.132,4.796,0.21c1.255,0.061,2.521-0.03,3.766,0.163c0.229,0.035,0.395-0.06,0.562-0.168
			c0.489-0.32,0.976-0.641,1.475-0.949c0.183-0.114,0.261-0.25,0.296-0.435c0.201-1.035,0.493-2.054,0.853-3.054
			c0.36-1.004,0.577-2.038,0.953-3.039c0.318-0.851,0.463-1.737,0.744-2.6c0.385-1.176,0.789-2.349,1.138-3.534
			c0.687-2.335,1.981-1.997,2.622-4.342c0.15-0.548,0.381-1.078,0.547-1.624c0.309-1.014,0.519-2.051,0.943-3.04
			c0.078-0.183,0.115-0.382,0.346-0.482c0.17-0.075,0.352-0.14,0.492,0.025c0.569,0.672,1.492,0.941,2.236,1.414
			c1.629,1.032,3.292,2.026,4.962,3.008c1.333,0.785,2.197-1.144,3.528-0.357c1.119,0.663,2.338,1.197,3.402,1.933
			c0.263,0.181,0.308,0.613,0.695,0.564c0.285-0.036,0.537-0.278,0.798-0.435c0.948-0.575,1.892-1.154,2.841-1.728
			c0.242-0.146,0.494-0.279,0.742-0.418c0.689-0.386,1.164-0.322,1.681,0.245c0.282,0.311,0.55,0.687,0.976,0.8
			c1.048,0.277,1.356,0.91,1.562,1.749c0.287,1.173,0.67,2.333,1.025,3.495c0.236,0.769,0.608,1.504,0.752,2.299
			c0.035,0.188,0.174,0.458,0.451,0.474c0.701,0.04,1.156,0.442,1.672,0.749c2.601,1.547,5.223,3.066,7.854,4.577
			c1.305,0.749,2.539,1.587,3.857,2.318c1.839,1.021,3.605,2.128,5.426,3.168c0.814,0.465,0.924,0.787,0.66,1.6
			c-0.387,1.197-0.73,2.403-0.998,3.625c-0.012,0.057-0.004,0.118-0.021,0.174c-0.156,0.481-0.159,0.486,0.416,0.598
			c0.177,0.034,0.361,0.039,0.543,0.054c1.1,0.095,1.613,0.525,1.636,1.468c0.032,1.325,0.382,2.617,0.511,3.93
			c0.069,0.717,0.209,1.424,0.242,2.146c0.041,0.928,0.206,1.85,0.326,2.773c0.037,0.289,0.178,0.586,0.132,0.862
			c-0.067,0.407,0.103,0.589,0.524,0.737c2.553,0.903,5.068,1.881,7.594,2.837c1.898,0.718,3.8,1.438,5.66,2.232
			c0.611,0.261,1.246,0.477,1.852,0.753c0.392,0.18,0.524,0.428,0.322,0.709c-0.459,0.635-0.6,1.381-1.06,2.016
			c-0.247,0.341-0.55,0.623-0.884,0.881c-1.352,1.042-2.73,2.059-4.082,3.103c-0.855,0.661-1.668,1.363-2.523,2.026
			c-0.257,0.197-0.213,0.289,0.043,0.424c0.252,0.134,0.47,0.322,0.734,0.43c0.552,0.223,0.6,0.586,0.48,1.025
			c-0.318,1.189-0.627,2.382-0.95,3.571c-0.079,0.288-0.08,0.579-0.129,0.867c-0.069,0.417-0.312,0.571-0.803,0.5
			c-0.52-0.075-1.003-0.047-1.433,0.24c-0.019,0.012-0.037,0.028-0.058,0.031c-1.299,0.169-2.44,0.843-3.791,0.847
			c-0.183,0-0.386-0.01-0.518,0.115c-0.379,0.359-0.882,0.471-1.411,0.535c-0.51,0.061-0.861,0.361-1.203,0.633
			c-0.229,0.183-0.66,0.188-0.71,0.449c-0.044,0.229,0.157,0.479,0.252,0.717c0.208,0.523-0.249,1.092-0.892,1.16
			c-0.682,0.072-1.344,0.23-2.002,0.395c-0.603,0.15-0.638,0.246-0.459,0.755c0.262,0.743,0.674,1.444,0.889,2.2
			c0.064,0.225,0.104,0.457,0.18,0.679c0.138,0.402,0.247,0.744-0.258,1.089c-0.283,0.193-0.361,0.613-0.508,0.939
			c-0.137,0.309-0.29,0.621-0.352,0.942c-0.189,0.997-1.061,1.317-2.041,1.442c-1.313,0.168-2.565,0.535-3.862,0.748
			c-1.257,0.205-2.506,0.438-3.743,0.72c-2.203,0.504-4.466,0.815-6.631,1.449c-0.442,0.13-0.746,0.003-0.993-0.31
			c-0.815-1.029-1.659-2.044-2.45-3.086c-0.652-0.861-0.701-0.888-1.576-0.228c-0.103,0.077-0.177,0.183-0.285,0.25
			c-0.811,0.503-0.878,0.665-1.973,0.251c-2.047-0.775-4.115-1.508-6.176-2.255c-1.01-0.366-2.025-0.722-3.029-1.097
			c-0.314-0.117-0.623-0.24-0.959-0.311c-0.314-0.066-0.622-0.152-0.65-0.504c-0.018-0.217-0.151-0.266-0.365-0.133
			c-0.656,0.404-1.35,0.617-2.191,0.7c-1.239,0.122-2.369,0.638-3.41,1.231c-0.408,0.23-0.838,0.375-1.303,0.494
			c-1.154,0.293-2.316,0.556-3.455,0.91c-0.983,0.307-2.033,0.551-3.123,0.583c-0.801,0.022-1.562,0.196-2.274,0.567
			c-0.892,0.463-1.796,0.919-2.854,1.098c-0.667,0.113-1.234,0.399-1.57,0.94c-0.273,0.442-0.779,0.643-1.266,0.852
			c-0.488,0.21-1.01,0.36-1.331,0.782c-0.141,0.186-0.361,0.219-0.598,0.076c-0.332-0.203-0.676-0.369-0.941-0.663
			c-0.36-0.398-0.817-0.735-1.243-1.09c-1.908-1.594-3.836-3.171-5.724-4.78c-1.271-1.086-2.656-2.07-3.892-3.181
			c-1.179-1.06-2.458-2.029-3.687-3.044c-0.621-0.513-1.192-1.07-1.863-1.539c-0.247-0.172-0.219-0.344-0.102-0.565
			c0.418-0.789,1.066-1.449,1.645-2.148c0.417-0.503,0.362-0.466,0.003-0.976c-0.737-1.05-1.652-1.989-2.451-3
			c-0.713-0.902-1.476-1.776-2.215-2.665c-1.224-1.472-2.505-2.913-3.646-4.431c-0.698-0.929-1.586-1.756-2.102-2.788
			c-0.225-0.452-0.194-0.637,0.309-0.837c1.219-0.483,2.455-0.939,3.658-1.449c0.489-0.207,0.943-0.472,1.474-0.609
			c0.13-0.034,0.256-0.118,0.392-0.076c0.588,0.188,0.758-0.154,1.026-0.495c0.746-0.953,1.556-1.872,2.337-2.806
			c0.106-0.127,0.196-0.263,0.294-0.395L23.323,42.66z"/>
	</g>
</g>
</svg>
