<?xml version="1.0" encoding="utf-8"?>
<!-- Generator: Adobe Illustrator 16.0.4, SVG Export Plug-In . SVG Version: 6.00 Build 0)  -->
<!DOCTYPE svg PUBLIC "-//W3C//DTD SVG 1.1//EN" "http://www.w3.org/Graphics/SVG/1.1/DTD/svg11.dtd">
<svg version="1.1" id="Layer_2518" xmlns="http://www.w3.org/2000/svg" xmlns:xlink="http://www.w3.org/1999/xlink" x="0px" y="0px"
	 width="128px" height="128px" viewBox="0 0 128 128" enable-background="new 0 0 128 128" xml:space="preserve">
<path d="M127.54,68.065c-0.008-0.034-0.014-0.074-0.021-0.117c-0.02-0.126-0.043-0.282-0.111-0.434
	c-0.282-0.613-0.536-1.254-0.781-1.874c-0.676-1.707-1.374-3.472-2.747-4.928c-1.816-1.927-3.572-3.974-5.27-5.954
	c-2.573-3.001-5.234-6.105-8.178-8.868c-0.488-0.459-0.971-0.925-1.454-1.392c-1.416-1.369-2.881-2.785-4.498-3.99
	c-1.746-1.303-3.498-2.6-5.249-3.896c-2.418-1.789-4.835-3.578-7.238-5.385c-3.382-2.543-6.925-4.735-10.531-6.516
	c-4.701-2.322-9.548-4.543-14.235-6.69c-2.611-1.197-5.224-2.394-7.825-3.613c-0.957-0.448-1.62-0.254-2.321,0.176
	c-9.16,5.605-18.328,11.198-27.496,16.791L18.52,38.126c-0.631,0.385-1.27,0.76-1.909,1.135c-1.579,0.927-3.212,1.885-4.704,2.993
	c-1.935,1.438-3.812,3.013-5.628,4.537c-0.873,0.733-1.746,1.465-2.628,2.186c-0.501,0.409-0.787,0.854-0.928,1.44
	c-0.567,2.372-1.16,4.738-1.753,7.104l-0.415,1.656c-0.1,0.402-0.175,0.881,0.026,1.387l0.297,0.75
	c0.982,2.497,1.997,5.08,4.155,6.988c0.125,0.111,0.233,0.24,0.342,0.368c0.059,0.069,0.117,0.139,0.178,0.205
	c1.357,1.492,2.691,3.052,3.982,4.561c2.513,2.938,5.11,5.975,8.004,8.661c0.54,0.501,1.072,1.013,1.603,1.524
	c1.4,1.347,2.847,2.739,4.442,3.928l1.213,0.905c2.788,2.082,5.671,4.234,8.532,6.319c0.574,0.418,1.143,0.844,1.711,1.269
	c1.454,1.087,2.958,2.212,4.535,3.196c4.127,2.58,8.618,4.962,13.346,7.079c4.248,1.902,8.532,3.915,12.675,5.861l2.978,1.398
	c0.384,0.18,0.731,0.27,1.066,0.27c0.401,0,0.783-0.13,1.184-0.393c1.094-0.72,2.239-1.404,3.348-2.066
	c0.508-0.304,1.017-0.607,1.521-0.915l3.816-2.329c10.738-6.552,21.476-13.104,32.209-19.659c0.385-0.235,0.773-0.464,1.162-0.693
	c1.112-0.656,2.263-1.335,3.299-2.138c1.698-1.314,3.378-2.708,5.003-4.056c1.018-0.844,2.035-1.688,3.063-2.52
	c0.556-0.449,0.888-0.965,1.047-1.623c0.445-1.835,0.898-3.668,1.352-5.502l0.751-3.042c0.037-0.153,0.066-0.31,0.098-0.483
	l0.058-0.311L127.54,68.065z M92.654,67.245l-4.017,0.285c-0.027-0.001-0.062-0.001-0.105,0.001
	c-0.104,0.005-0.282,0.009-0.385-0.049c-1.417-0.788-2.834-1.615-4.154-2.391c-0.082-0.049-0.137-0.101-0.146-0.138
	c-0.016-0.069,0.08-0.216,0.15-0.322c0.038-0.059,0.075-0.115,0.106-0.17c1.06-1.899,2.13-3.793,3.201-5.688l1.508-2.659
	c0.966-1.7,1.964-3.457,2.922-5.2c0.146-0.265,0.267-0.448,0.385-0.48c0.016-0.004,0.034-0.007,0.054-0.007
	c0.106,0,0.266,0.063,0.476,0.188c5.297,3.159,10.604,6.299,15.912,9.44c2.958,1.75,5.916,3.5,8.871,5.254
	c0.079,0.047,0.174,0.087,0.271,0.126c0.153,0.063,0.234,0.104,0.275,0.138c-0.099,0.01-0.234,0.011-0.32,0.011
	c-0.097,0.001-0.191,0.002-0.271,0.008l-4.283,0.277c-4.118,0.266-8.235,0.532-12.353,0.81
	C98.069,66.858,95.388,67.05,92.654,67.245z M24.26,86.063c1.368-1.079,2.574-2.091,3.687-3.094c0.566-0.51,1.213-0.832,2.1-1.043
	c9.099-2.175,18.197-4.357,27.294-6.541c1.498-0.359,2.996-0.721,4.493-1.083c2.051-0.495,4.101-0.99,6.154-1.479
	c0.009-0.002,0.018-0.005,0.026-0.007c-0.082,0.069-0.163,0.138-0.245,0.206l-1.451,1.202c-4.267,3.538-8.534,7.075-12.803,10.611
	l-3.812,3.154c-3.484,2.882-7.086,5.861-10.611,8.814c-0.498,0.418-0.726,0.428-1.225,0.054c-4.782-3.582-9.229-6.877-13.597-10.072
	c-0.327-0.238-0.354-0.334-0.354-0.357C23.916,86.401,23.948,86.31,24.26,86.063z M34.784,79.671l-5.125,1.222
	c-0.15,0.036-0.297,0.082-0.4,0.114l-0.052,0.016c-0.357,0.048-0.421-0.094-0.538-0.435c-0.023-0.066-0.045-0.133-0.071-0.193
	c-0.798-1.919-1.586-3.841-2.375-5.763l-12.787-31.13c-0.347-0.845-0.347-0.845,0.495-1.358l28.413-17.34
	c4.946-3.02,9.89-6.043,14.836-9.069c0.479-0.293,0.733-0.449,0.961-0.449c0.259,0,0.484,0.2,0.965,0.627
	c6.582,5.841,13.167,11.678,19.753,17.516l2.922,2.59c0.967,0.856,1.934,1.711,2.901,2.565l2.665,2.356
	c0.385,0.341,0.663,0.732,0.852,1.193c0.954,2.34,1.96,4.711,2.829,6.75c0.192,0.451,0.181,0.779-0.044,1.172
	c-2.694,4.737-5.366,9.486-8.038,14.237c-0.188,0.335-0.463,0.581-0.891,0.797c-3.843,1.943-7.68,3.9-11.515,5.861
	c-0.428,0.221-0.882,0.34-1.348,0.453c-8.437,2.036-16.875,4.069-25.315,6.095C40.849,78.227,37.816,78.949,34.784,79.671z
	 M4.673,49.458c1.623-1.262,3.231-2.594,4.787-3.883c0.737-0.61,1.474-1.221,2.215-1.827c0.179-0.146,0.425-0.347,0.459-0.371
	c0.061,0.047,0.185,0.345,0.267,0.542l0.231-0.096l15.167,36.87l-0.231,0.095l0.295,0.707c0.006,0.101-0.046,0.156-0.22,0.293
	l-1.002,0.837c-1.073,0.9-2.146,1.801-3.207,2.717c-0.38,0.329-0.56,0.328-0.914-0.013c-1.604-1.537-3.262-3.069-4.866-4.551
	l-0.901-0.833c-0.397-0.368-0.697-0.816-0.943-1.411C11.226,67.403,7.698,58.873,4.371,50.873
	C4.088,50.193,4.093,49.91,4.673,49.458z M125.332,66.945c-0.7-0.191-1.402-0.378-2.104-0.564c-0.88-0.234-1.759-0.468-2.637-0.711
	c-0.991-0.274-1.874-0.838-2.727-1.383c-0.308-0.197-0.615-0.394-0.929-0.578c-3.93-2.315-7.855-4.637-11.78-6.96
	c-3.982-2.356-7.966-4.712-11.953-7.061c-0.639-0.377-1.019-0.813-1.271-1.458c-0.426-1.092-0.888-2.189-1.334-3.251
	c-0.284-0.677-0.569-1.354-0.847-2.034c-0.032-0.078-0.078-0.164-0.125-0.251c-0.051-0.092-0.145-0.264-0.153-0.303
	c0.046,0.004,0.169,0.104,0.235,0.159c0.077,0.062,0.153,0.124,0.226,0.166c4.011,2.354,8.019,4.715,12.022,7.08l6.24,3.685
	c5.11,3.018,10.22,6.036,15.336,9.041c0.729,0.429,1.119,0.869,1.349,1.521c0.286,0.815,0.635,1.62,0.972,2.398
	c0.095,0.22,0.19,0.439,0.284,0.659C125.887,67.097,125.627,67.026,125.332,66.945z"/>
</svg>
