<?xml version="1.0" encoding="utf-8"?>
<!-- Generator: Adobe Illustrator 16.0.4, SVG Export Plug-In . SVG Version: 6.00 Build 0)  -->
<!DOCTYPE svg PUBLIC "-//W3C//DTD SVG 1.1//EN" "http://www.w3.org/Graphics/SVG/1.1/DTD/svg11.dtd">
<svg version="1.1" id="Layer_2519" xmlns="http://www.w3.org/2000/svg" xmlns:xlink="http://www.w3.org/1999/xlink" x="0px" y="0px"
	 width="128px" height="128px" viewBox="0 0 128 128" enable-background="new 0 0 128 128" xml:space="preserve">
<g>
	<g>
		<g>
			<path d="M107.562,86.206c-0.075-0.211-0.095-0.48-0.15-0.709l0,0C107.467,85.726,107.486,85.996,107.562,86.206z"/>
			<path d="M107.411,85.497c0.023,0.008,0.042,0.02,0.065,0.027C107.453,85.517,107.435,85.505,107.411,85.497L107.411,85.497z"/>
			<polygon points="95.104,91.937 95.101,91.942 95.102,91.939 			"/>
			<path d="M95.115,91.91c-0.023,0.017-0.046,0.034-0.07,0.051l0,0C95.069,91.944,95.092,91.927,95.115,91.91z"/>
			<path d="M95.045,91.961c0,0.008-0.002,0.016-0.002,0.023C95.043,91.977,95.045,91.969,95.045,91.961L95.045,91.961z"/>
			<path d="M95.043,91.984c0.021-0.015,0.039-0.031,0.061-0.048l0,0C95.082,91.953,95.064,91.97,95.043,91.984z"/>
			<path d="M90.52,96.797c-0.175,0.261-0.344,0.523-0.511,0.786C90.176,97.32,90.347,97.058,90.52,96.797z"/>
			<path d="M107.574,86.249c0.03,0.073,0.069,0.14,0.124,0.188C107.644,86.389,107.604,86.323,107.574,86.249z"/>
			<path d="M101.033,85.345c0.021-0.021,0.038-0.045,0.058-0.067C101.071,85.3,101.055,85.323,101.033,85.345z"/>
			<path d="M107.477,85.486L107.477,85.486c1.201,0.584,1.662-0.422,2.206-1.141C109.139,85.064,108.678,86.07,107.477,85.486z"/>
			<polygon points="107.477,85.482 107.477,85.486 107.477,85.486 			"/>
			<path d="M91.525,27.929c4.312,0,8.626-0.02,12.938,0.01C100.151,27.909,95.838,27.929,91.525,27.929s-8.625,0.029-12.937-0.016
				C82.9,27.958,87.213,27.929,91.525,27.929z"/>
			<path d="M53.931,79.705c0.312-0.285,0.94-0.486,0.742-0.976c-0.248-0.613-0.935-0.303-1.419-0.305
				c-4.853-0.022-9.707-0.015-14.56-0.015c0,0,0-0.01,0-0.016c-5.123,0-10.247-0.003-15.37,0.011
				c-0.333,0.001-0.759,0.051-0.975,0.253c-0.245,0.23,0.123,0.468,0.311,0.619c3.928,3.13,5.411,7.25,4.917,12.161
				c-0.087,0.87,0.344,1.062,1.104,1.061c6.562-0.017,13.124-0.025,19.685-0.003c1.117,0.005,1.36-0.469,1.218-1.484
				C48.942,86.449,50.583,82.744,53.931,79.705z"/>
			<path d="M127.011,58.171c-2.9-4.319-5.7-8.704-8.533-13.067c-3.172-4.889-6.336-9.786-9.51-14.674
				c-0.338-0.521-0.604-1.114-1.303-1.425c-0.257,0.333-0.563,0.656-0.79,1.029c-1.021,1.687-1.935,3.446-3.055,5.064
				c-0.951,1.374-0.987,2.492,0.037,3.863c1.609,2.152,3.049,4.431,4.547,6.666c4.392,6.555,8.795,13.101,13.145,19.681
				c0.838,1.264,1.466,1.672,2.476,0.185c0.854-1.256,1.76-2.515,2.832-3.583C128.149,60.621,127.936,59.55,127.011,58.171z"/>
			<path d="M15.347,78.664C9.275,79.222,4.765,82.062,4.562,89.079C4.39,95.046,8.48,99.823,15.374,100.052
				c5.644,0.186,10.533-4.966,10.544-10.763C25.929,83.513,20.981,78.146,15.347,78.664z M15.286,93.57
				c-2.234,0.039-4.311-2.001-4.338-4.263c-0.026-2.128,1.886-4.153,4.042-4.286c2.167-0.131,4.419,1.937,4.495,4.127
				C19.561,91.384,17.523,93.529,15.286,93.57z"/>
			<path d="M75.284,28.717c-0.139-0.195-0.365-0.326-0.841-0.732c-0.2,0.348-0.322,0.715-0.566,0.965
				c-3.078,3.136-6.048,6.396-9.312,9.327c-2.192,1.969-2.332,3.982-1.368,6.464c1.201,3.091,2.303,6.221,3.503,9.314
				c0.169,0.435,0.051,1.227,0.739,1.231c0.595,0.004,0.758-0.7,1.031-1.136c2.285-3.648,4.585-7.287,6.802-10.977
				c1.287-2.141,3.55-4.071,3.617-6.473c0.069-2.497-2.057-4.668-3.094-7.042C75.654,29.331,75.489,29.007,75.284,28.717z"/>
			<path d="M93.886,36.537c2.503-0.04,5.369,0.848,7.409-0.391c2.028-1.23,2.674-4.144,4.088-6.219
				c0.049-0.074,0.097-0.15,0.138-0.229c0.874-1.62,0.826-1.746-1.057-1.759c-4.312-0.03-8.626-0.01-12.938-0.01
				s-8.625,0.029-12.937-0.016c-1.484-0.016-2.04,0.331-1.203,1.826c0.92,1.644,1.82,3.311,2.558,5.04
				c0.582,1.366,1.423,1.84,2.893,1.803C86.519,36.487,90.203,36.595,93.886,36.537z"/>
			<path d="M107.562,86.206c0.005,0.014,0.008,0.029,0.013,0.043C107.569,86.235,107.566,86.22,107.562,86.206z"/>
			<path d="M101.033,85.345c-1.934,2.235-3.462,4.84-5.93,6.592l0,0C97.571,90.185,99.101,87.58,101.033,85.345z"/>
			<path d="M95.104,91.937c0.004-0.008,0.008-0.015,0.012-0.026C95.111,91.922,95.107,91.929,95.104,91.937L95.104,91.937z"/>
			<path d="M90.165,98.493c1.561-2.248,3.87-3.932,4.936-6.551C94.035,94.562,91.725,96.245,90.165,98.493z"/>
			<path d="M101.091,85.277c0.282-0.324,0.573-0.64,0.878-0.943C101.664,84.638,101.373,84.953,101.091,85.277z"/>
			<path d="M107.402,85.451c0.004,0.016,0.006,0.031,0.009,0.046l0,0C107.408,85.482,107.406,85.467,107.402,85.451z"/>
			<path d="M107.411,85.497L107.411,85.497c-1.173-0.397-1.581-1.554-2.261-2.412C105.83,83.943,106.238,85.1,107.411,85.497z"/>
			<path d="M95.115,91.91l-0.072,0.074c0.021-0.015,0.039-0.031,0.061-0.048C95.107,91.929,95.111,91.922,95.115,91.91z"/>
			<path d="M105.15,83.085c-0.811-1.024-1.419-1.227-2.158,0.018c-0.27,0.454-0.646,0.856-1.023,1.231
				c-0.305,0.304-0.596,0.619-0.878,0.943c-0.02,0.022-0.036,0.046-0.058,0.067c-1.933,2.235-3.462,4.84-5.93,6.592
				c0,0-0.002,0.004-0.003,0.006c-1.065,2.619-3.375,4.303-4.936,6.551c-0.289,0.415-0.942,0.785-0.589,1.343
				c0.155,0.25,0.809,0.253,1.236,0.252c4.215-0.016,8.432-0.094,12.647-0.063c1.21,0.01,1.749-0.549,2.177-1.562
				c0.803-1.899,1.576-3.83,2.598-5.61c1.339-2.337,1.639-4.425-0.536-6.414c-0.055-0.049-0.094-0.115-0.124-0.188
				c-0.005-0.014-0.008-0.029-0.013-0.043c-0.075-0.21-0.095-0.48-0.15-0.709C106.238,85.1,105.83,83.943,105.15,83.085z"/>
			<path d="M107.411,85.497c0.023,0.008,0.042,0.02,0.065,0.027l-0.074-0.073C107.406,85.467,107.408,85.482,107.411,85.497z"/>
			<path d="M107.477,85.482c0.04-0.683-0.429-1.157-0.816-1.582C107.048,84.325,107.517,84.8,107.477,85.482z"/>
			<path d="M107.477,85.524c0.001-0.014,0-0.025,0-0.038l0,0C107.477,85.499,107.478,85.511,107.477,85.524z"/>
			<path d="M107.477,85.486c-0.025-0.013-0.049-0.021-0.074-0.035C107.428,85.465,107.451,85.474,107.477,85.486L107.477,85.486z"/>
			<path d="M107.402,85.451l0.074,0.073c0.001-0.014,0-0.025,0-0.038C107.451,85.474,107.428,85.465,107.402,85.451z"/>
			<rect x="107.477" y="85.486" width="0" height="0"/>
			<path d="M118.507,65.391c-3.916,5.56-7.857,11.103-11.806,16.64c-0.462,0.646-0.682,1.169-0.041,1.87
				c0.388,0.425,0.856,0.899,0.816,1.582v0.004c1.201,0.584,1.662-0.422,2.206-1.141c3.571-4.703,7.127-9.421,10.686-14.134
				c1.82-2.412,1.762-2.373,0.068-4.798C119.676,64.326,119.224,64.372,118.507,65.391z"/>
			<path d="M5.925,80.973c0.63-0.718,2.114-1.35,1.763-2.1c-0.426-0.905-1.915-0.362-2.94-0.459c-0.177-0.016-0.357,0-0.536,0.002
				c-3.885,0.019-3.885,0.019-3.939,4.254c-0.12,2-0.002,4.214,0.978,6.294c0.221,0.47,0.471,1.145,1.036,1.074
				c0.772-0.099,0.339-0.849,0.389-1.306C2.99,85.82,3.967,83.21,5.925,80.973z"/>
			<rect x="95.045" y="91.961" width="0" height="0"/>
			<path d="M95.045,91.961c0,0.008-0.002,0.016-0.002,0.023l0.072-0.074C95.092,91.927,95.069,91.944,95.045,91.961z"/>
			<g>
				<path d="M61.953,78.567c-5.975-0.05-10.75,4.764-10.714,10.795c0.036,5.901,4.777,10.702,10.583,10.714
					c5.916,0.012,10.786-4.907,10.731-10.841C72.5,83.324,67.821,78.614,61.953,78.567z M61.837,93.569
					c-2.139,0.041-4.053-1.858-4.138-4.108c-0.088-2.322,1.806-4.374,4.102-4.443c2.228-0.068,4.318,1.993,4.315,4.252
					C66.112,91.604,64.204,93.521,61.837,93.569z"/>
				<path d="M62.079,87.105c-1.392-0.131-2.283,0.668-2.409,1.948c-0.122,1.239,0.467,2.249,1.919,2.404
					c1.391,0.15,2.524-0.738,2.617-2.231C64.082,88.097,63.434,87.233,62.079,87.105z"/>
			</g>
			<path d="M15.339,87.121c-1.386-0.065-2.234,0.672-2.318,2.063c-0.083,1.389,0.669,2.229,2.057,2.313s2.161-0.682,2.378-2.2
				C17.332,88.131,16.763,87.188,15.339,87.121z"/>
		</g>
		<g>
			<path d="M43.957,43.472c0.268,0.014,0.534,0.025,0.791,0.029C44.49,43.498,44.225,43.486,43.957,43.472z"/>
			<path d="M33.852,54.77c0.251-0.9,0.627-1.776,1.179-2.622c0.099-0.152,0.19-0.31,0.276-0.47l-1.455,2.368V54.77z"/>
			<path d="M43.957,43.472c-1.204-0.064-2.493-0.182-3.661,0.081v0.001C41.464,43.29,42.753,43.408,43.957,43.472z"/>
			<path d="M37.326,46.076c-0.003,0.007-0.006,0.011-0.008,0.017l0,0C37.32,46.087,37.323,46.083,37.326,46.076z"/>
			<path d="M35.72,49.323c1.167-0.588,1.528-1.579,1.584-2.721C37.247,47.744,36.887,48.735,35.72,49.323z"/>
			<path d="M36.82,45.596L36.82,45.596c-0.882,0.905-1.322,2.034-1.616,3.234l0,0C35.499,47.63,35.938,46.501,36.82,45.596z"/>
			<path d="M35.27,48.896c0.145,0.146,0.292,0.291,0.437,0.435l0,0C35.561,49.187,35.415,49.041,35.27,48.896z"/>
			<path d="M34.756,49.416c0.147-0.194,0.292-0.389,0.447-0.576C35.049,49.025,34.9,49.218,34.756,49.416z"/>
			<path d="M36.769,45.543c0.017,0.018,0.034,0.035,0.052,0.052l0,0C36.802,45.579,36.786,45.562,36.769,45.543z"/>
			<path d="M35.205,48.83c-0.018-0.017-0.036-0.035-0.053-0.053C35.168,48.795,35.187,48.813,35.205,48.83L35.205,48.83z"/>
			<path d="M36.833,45.581c-0.005,0.004-0.008,0.01-0.013,0.015c0.166,0.166,0.332,0.331,0.498,0.497
				c0.002-0.006,0.005-0.01,0.008-0.017c0.705-1.575,1.772-2.251,2.97-2.522l0.733-1.192l-3.338-1l-0.322,0.624
				c0,0.063-0.001,0.118-0.001,0.183C37.368,43.366,36.573,44.382,36.833,45.581z"/>
			<rect x="35.205" y="48.83" width="0" height="0"/>
			<path d="M62.045,46.489c-0.683-1.588-1.077-3.198-1.028-4.956c0.068-2.352-0.005-2.378-2.299-2.382
				c-6.101-0.013-12.203,0.011-18.304-0.005c-2.896-0.009-3.04-0.028-3.045,2.839l0.322-0.624l3.338,1l-0.733,1.192
				c1.168-0.263,2.457-0.145,3.661-0.081c0.268,0.014,0.534,0.025,0.791,0.029c4.215,0.052,8.437,0.077,12.653,0.092
				c1.641,0.005,2.403,0.561,2.831,2.147c0.724,2.681,1.586,5.337,2.585,7.928c0.645,1.676,0.099,2.036-1.466,2.068
				c-5.476,0.114-10.952,0.291-16.427,0.467c-3.4,0.109-3.637,0.382-3.674,3.784c-0.051,4.745,0.19,3.85-3.877,3.821
				c-2.221-0.015-3.116-0.042-3.52-0.843c-0.281-0.558-0.328-1.487-0.409-3.064c-0.091-1.768-0.051-3.49,0.409-5.133v-0.724
				l1.455-2.368c0.374-0.707,0.584-1.49,0.393-2.343c0.002,0,0.004-0.002,0.004-0.002c-0.144-0.146-0.29-0.292-0.435-0.437
				c-0.021-0.022-0.043-0.043-0.065-0.065c0,0.003-0.001,0.006-0.001,0.006l-0.052-0.059c0.017,0.018,0.035,0.036,0.053,0.053
				c0.294-1.2,0.733-2.329,1.616-3.234c-0.018-0.017-0.035-0.034-0.052-0.052l0.064,0.038c-0.26-1.199,0.535-2.215,0.535-3.414
				c0-0.065,0.001-0.12,0.001-0.183l-5.688,11.059v2.96c-0.033,0.153-0.073,0.305-0.103,0.46c-0.457,2.424-0.114,5-0.118,7.512
				c-0.005,1.886,0.014,3.773-0.012,5.658c-0.005,0.485,0.179,1.33-0.401,1.312c-0.484-0.013-0.369-0.897-0.374-1.422
				c-0.015-1.257,0.038-2.515-0.004-3.771c-0.051-1.519,0.023-3.035-0.221-4.563c-0.186-1.161-0.648-1.558-1.73-1.469
				c-1.16,0.096-2.331,0.303-3.481,0.227c-6.821-0.45-13.646-0.121-20.467-0.182c-3.732-0.034-4.474,0.791-4.487,4.637
				c-0.012,3.235-0.007,6.468-0.004,9.704c0.001,2.729,0.003,2.745,2.805,2.746c13.825,0.004,27.649,0,41.474,0
				c6.019,0,12.04,0.013,18.058,0.002c2.696-0.006,2.701-0.026,2.705-2.627c0.005-3.234-0.229-6.488,0.05-9.698
				C65.92,58.172,64.521,52.247,62.045,46.489z"/>
			<rect x="36.82" y="45.596" width="0" height="0"/>
			<rect x="37.318" y="46.093" width="0" height="0"/>
			<path d="M35.72,49.323c1.167-0.588,1.527-1.579,1.584-2.721c0.009-0.165,0.012-0.33,0.009-0.5
				c0.001-0.003,0.002-0.006,0.002-0.006c-0.164-0.169-0.329-0.335-0.496-0.5c-0.882,0.905-1.322,2.034-1.616,3.234
				c0.021,0.022,0.043,0.043,0.065,0.065c0.145,0.146,0.292,0.291,0.437,0.435C35.711,49.329,35.715,49.325,35.72,49.323z"/>
			<path d="M36.833,45.581l-0.064-0.038c0.017,0.018,0.034,0.035,0.052,0.052C36.825,45.591,36.828,45.585,36.833,45.581z"/>
			<path d="M35.151,48.777l0.052,0.062c0,0,0.001-0.006,0.001-0.01C35.187,48.813,35.168,48.795,35.151,48.777z"/>
			<path d="M35.205,48.83c0.021,0.022,0.043,0.043,0.065,0.065C35.248,48.874,35.226,48.852,35.205,48.83L35.205,48.83z"/>
			<polygon points="35.205,48.83 35.203,48.836 35.205,48.83 			"/>
			<path d="M37.318,46.093L37.318,46.093c-0.166-0.166-0.332-0.331-0.498-0.497l0,0C36.987,45.761,37.152,45.927,37.318,46.093z"/>
			<polygon points="37.318,46.093 37.318,46.093 37.313,46.102 			"/>
			<polygon points="36.82,45.596 36.833,45.581 36.82,45.596 			"/>
			<path d="M33.443,59.902c0.082,1.577,0.128,2.506,0.409,3.064V54.77C33.392,56.412,33.352,58.135,33.443,59.902z"/>
			<path d="M37.378,46.152l-0.064-0.05c0.002,0.17,0,0.335-0.009,0.5c-0.056,1.142-0.417,2.133-1.584,2.721
				c-0.005,0.002-0.009,0.006-0.014,0.007c0.019,0.019,0.036,0.037,0.054,0.055l-0.06-0.05c0.191,0.853-0.02,1.636-0.393,2.343
				l4.989-8.124c-1.198,0.27-2.266,0.946-2.97,2.521c-0.003,0.007-0.006,0.011-0.008,0.017
				C37.338,46.112,37.357,46.132,37.378,46.152z"/>
			<rect x="35.706" y="49.33" width="0" height="0"/>
			<path d="M37.326,46.076c0.704-1.575,1.772-2.251,2.97-2.521v-0.001C39.098,43.824,38.031,44.5,37.326,46.076z"/>
			<polygon points="35.706,49.33 35.7,49.335 35.705,49.333 			"/>
			<path d="M37.313,46.102c0.002,0.17,0,0.335-0.009,0.5C37.313,46.437,37.316,46.271,37.313,46.102z"/>
			<path d="M35.76,49.385c-0.018-0.018-0.035-0.036-0.054-0.055l0,0C35.725,49.349,35.742,49.367,35.76,49.385z"/>
			<polygon points="35.706,49.33 35.72,49.323 35.706,49.33 			"/>
			<path d="M37.318,46.093L37.318,46.093c0.02,0.02,0.04,0.039,0.06,0.059C37.357,46.132,37.338,46.112,37.318,46.093z"/>
			<path d="M35.706,49.33c0,0-0.004,0.004-0.006,0.005l0.06,0.05C35.742,49.367,35.725,49.349,35.706,49.33z"/>
			<path d="M37.378,46.152c-0.021-0.02-0.04-0.04-0.06-0.059c0,0-0.003,0.005-0.004,0.009L37.378,46.152z"/>
		</g>
	</g>
	<polygon points="104.063,88.407 102.012,81.335 96.079,82.021 92.887,84.758 90.834,89.091 90.377,93.425 88.097,94.338 
		86.956,95.479 88.097,97.075 92.202,98.671 	"/>
	<path d="M96.079,85.213l-6.843-1.368c0,0-2.737,4.333-2.51,5.019c0.229,0.684,0,2.51,0.686,3.193
		c0.685,0.685,3.649,2.509,3.649,2.509l3.193-2.281L96.079,85.213z"/>
</g>
</svg>
