<?xml version="1.0" encoding="utf-8"?>
<!-- Generator: Adobe Illustrator 16.0.4, SVG Export Plug-In . SVG Version: 6.00 Build 0)  -->
<!DOCTYPE svg PUBLIC "-//W3C//DTD SVG 1.1//EN" "http://www.w3.org/Graphics/SVG/1.1/DTD/svg11.dtd">
<svg version="1.1" id="Layer_2520" xmlns="http://www.w3.org/2000/svg" xmlns:xlink="http://www.w3.org/1999/xlink" x="0px" y="0px"
	 width="128px" height="128px" viewBox="0 0 128 128" enable-background="new 0 0 128 128" xml:space="preserve">
<path fill-rule="evenodd" clip-rule="evenodd" d="M13.423,103.849c-0.157-6.646-0.303-13.738-0.512-20.826
	c-0.04-1.364,0.351-2.314,1.404-3.268c7.968-7.208,15.87-14.488,23.78-21.759c1.689-1.553,1.662-1.572-0.029-3.17
	c-6.583-6.221-13.179-12.429-19.713-18.701c-0.517-0.496-0.836-1.445-0.844-2.186c-0.039-4.636,0.036-9.272,0.078-13.908
	c0.006-0.773,0.04-1.544,0.049-2.317c0.023-2.29,0.939-4.056,2.586-5.723c3.153-3.194,6.075-6.619,9.044-9.992
	c1.88-2.135,2.495-2.288,4.632-0.369c5.329,4.786,10.611,9.625,15.888,14.47c5.223,4.797,10.446,9.597,15.599,14.47
	c1.063,1.006,1.647,0.758,2.586-0.105c6.309-5.795,12.699-11.504,18.991-17.318c1.575-1.454,3.265-2.546,5.244-3.38
	c5.626-2.369,11.184-4.898,16.771-7.361c2.142-0.944,2.507-0.775,3.032,1.457c0.998,4.232,2.047,8.453,2.926,12.709
	c0.278,1.347,0.104,2.792,0.104,4.193c0.008,5.62,0.047,11.242-0.042,16.861c-0.014,0.796-0.474,1.777-1.051,2.343
	c-4.061,3.983-8.206,7.878-12.32,11.806c-1.828,1.745-3.604,3.546-5.493,5.224c-0.88,0.781-0.542,1.231,0.108,1.823
	c2.286,2.081,4.572,4.161,6.828,6.272c2.308,2.158,4.623,4.311,6.836,6.563c0.525,0.533,0.943,1.465,0.924,2.2
	c-0.131,4.981-0.391,9.96-0.614,14.939c-0.024,0.561-0.191,1.138-0.105,1.679c0.75,4.727-1.54,8.258-4.543,11.463
	c-4.409,4.706-2.099,4.195-8.568,2.537c-2.378-0.609-4.695-1.466-7.085-2.015c-2.687-0.616-4.831-1.931-6.77-3.895
	c-4.586-4.646-9.343-9.122-13.969-13.729c-0.825-0.821-1.264-0.909-2.137-0.067c-8.088,7.802-16.292,15.486-24.316,23.354
	c-3.942,3.868-8.539,6.823-12.946,10.054c-3.791,2.778-7.654,5.46-11.438,8.247c-2.525,1.861-2.511,1.914-3.09-1.245
	c-0.632-3.445-1.456-6.878-1.758-10.354C13.187,111.339,13.423,107.806,13.423,103.849z M47.604,55.871l0.076,0.116l-0.108-0.084
	c-0.104-0.178-0.173-0.396-0.318-0.529c-5.216-4.798-10.436-9.59-15.667-14.371c-0.3-0.274-0.676-0.508-1.059-0.646
	c-1.976-0.714-3.964-1.397-5.953-2.075c-0.314-0.107-0.655-0.135-0.984-0.199c0.177,0.268,0.311,0.582,0.538,0.796
	c5.662,5.35,11.321,10.705,17.028,16.008c0.512,0.476,1.329,0.78,2.037,0.855C44.652,55.895,46.133,55.84,47.604,55.871z
	 M98.198,102.694l0.057,0.071l-0.061-0.063c-4.73-4.389-9.461-8.779-14.191-13.166c-6.689-6.205-13.379-12.41-20.081-18.603
	c-0.205-0.188-0.545-0.233-0.822-0.345c0.064,0.259,0.086,0.541,0.201,0.776c1.505,3.091,3.004,6.184,4.556,9.251
	c0.276,0.547,0.745,1.02,1.196,1.452c5.832,5.577,11.676,11.142,17.525,16.701c0.398,0.379,0.824,0.843,1.32,0.991
	C91.319,100.78,94.763,101.726,98.198,102.694z M109.323,73.909c-0.164-0.213-0.541-0.871-1.073-1.359
	c-3.309-3.038-6.673-6.016-9.979-9.055c-8.064-7.415-16.09-14.872-24.163-22.278c-8.949-8.21-17.934-16.383-26.909-24.565
	c-0.292-0.266-0.648-0.461-0.974-0.688c-0.079,0.388-0.218,0.775-0.229,1.165c-0.154,5.548-0.218,11.1-0.47,16.643
	c-0.089,1.95,0.562,3.234,1.998,4.524c6.686,6.009,13.268,12.136,19.891,18.216c6.725,6.175,13.469,12.331,20.18,18.522
	c6.604,6.094,13.175,12.225,19.769,18.328c0.181,0.168,0.464,0.225,0.7,0.332c0.066-0.256,0.177-0.51,0.191-0.768
	C108.608,86.757,108.952,80.589,109.323,73.909z M43.373,37.376c-2.756,0.672-5.28,1.265-7.789,1.914
	c-0.582,0.151-1.114,0.491-1.669,0.744c0.385,0.485,0.769,0.972,1.156,1.455c0.043,0.055,0.108,0.089,0.16,0.137
	c12.69,11.708,25.398,23.399,38.064,35.133c9.063,8.397,18.092,16.835,27.079,25.313c1.024,0.967,1.523,0.788,2.271-0.173
	c1.207-1.551,2.437-3.093,3.775-4.527c0.91-0.975,0.716-1.566-0.189-2.387c-3.538-3.207-7.007-6.488-10.521-9.722
	c-8.627-7.938-17.273-15.854-25.896-23.798C61.395,53.711,53,45.931,44.583,38.174C44.194,37.815,43.691,37.582,43.373,37.376z
	 M36.678,99.392c-0.039,0-0.077,0-0.117,0c0-3.371-0.033-6.743,0.019-10.114c0.017-1.106-0.292-1.542-1.444-1.299
	c-1.025,0.217-2.08,0.303-3.12,0.455c-4.574,0.669-9.143,1.383-13.725,1.987c-1.532,0.2-1.962,0.917-1.875,2.379
	c0.185,3.082,0.246,6.172,0.33,9.26c0.186,6.878,0.355,13.757,0.531,20.636c0.009,0.352,0.024,0.702,0.035,1.054
	c0.025,0.754,0.393,0.808,0.946,0.456c0.296-0.188,0.587-0.386,0.871-0.591c5.45-3.959,10.881-7.946,16.365-11.857
	c0.929-0.664,1.22-1.384,1.203-2.463C36.646,105.995,36.678,102.692,36.678,99.392z M38.257,98.064c0.04,0,0.08,0,0.12,0
	c0,0.985-0.004,1.969,0,2.952c0.012,2.39,0.033,4.779,0.039,7.17c0.003,0.723,0.189,0.965,0.794,0.368
	c0.25-0.246,0.526-0.466,0.78-0.708c8.547-8.139,17.082-16.288,25.653-24.4c0.828-0.783,0.844-1.345,0.314-2.334
	c-1.721-3.219-3.301-6.512-4.93-9.779c-1.744-3.495-1.685-3.434-4.609-0.727c-5.564,5.154-11.179,10.256-16.833,15.311
	c-0.928,0.83-1.376,1.631-1.35,2.872C38.302,91.88,38.257,94.973,38.257,98.064z M112.952,16.141
	c-0.08-0.53-0.097-0.741-0.145-0.945c-0.698-3.078-1.379-6.159-2.111-9.228c-0.379-1.587-0.484-1.598-1.781-0.419
	c-4.57,4.159-9.13,8.331-13.705,12.484c-6.916,6.278-13.826,12.564-20.784,18.795c-0.958,0.858-0.848,1.335,0.036,2.094
	c1.865,1.6,3.656,3.285,5.48,4.935c1.469,1.329,1.582,1.331,3.102-0.077c2.214-2.051,4.401-4.133,6.637-6.162
	c7.435-6.749,14.889-13.476,22.319-20.229C112.434,16.993,112.726,16.443,112.952,16.141z M113.416,28.381c-0.028,0-0.056,0-0.083,0
	c0-2.598,0.006-5.198-0.006-7.796c-0.002-0.414-0.079-0.826-0.121-1.24c-0.404,0.223-0.867,0.379-1.2,0.68
	c-3.957,3.577-7.892,7.179-11.84,10.767C94.765,35.7,89.37,40.619,83.937,45.493c-0.959,0.86-0.785,1.348,0.102,2.131
	c2.791,2.46,5.503,5.011,8.24,7.531c1.475,1.357,1.461,1.353,2.882,0.003c5.749-5.463,11.526-10.9,17.226-16.414
	c0.57-0.552,0.947-1.55,0.984-2.362C113.492,33.721,113.416,31.049,113.416,28.381z M18.067,88.655
	c0.295-0.043,0.504-0.07,0.712-0.102c5.405-0.807,10.818-1.564,16.208-2.462c1.037-0.173,2.165-0.686,2.943-1.386
	c6.418-5.763,12.761-11.611,19.136-17.425c1.504-1.372,1.52-1.356,0.096-2.677c-1.75-1.623-3.501-3.24-5.248-4.864
	c-1.428-1.328-1.412-1.317-2.771-0.073c-8.278,7.582-16.552,15.168-24.85,22.727c-2.021,1.84-4.132,3.578-6.189,5.379
	c-0.197,0.172-0.3,0.45-0.446,0.68C17.816,88.53,17.974,88.608,18.067,88.655z M32.072,20.426c-0.037,0-0.074,0-0.112,0
	c0,5.26-0.002,10.521,0.001,15.78c0.002,1.953,0.085,2.01,2.017,1.528c2.716-0.677,5.409-1.479,8.157-1.976
	c1.37-0.248,1.658-0.803,1.676-2.05c0.09-6.099,0.247-12.196,0.423-18.292c0.031-1.071-0.28-1.863-1.085-2.58
	c-3.353-2.979-6.666-6.006-10.002-9.005C32.9,3.611,32.583,3.469,32.3,3.289c-0.076,0.382-0.217,0.763-0.218,1.146
	C32.068,9.765,32.072,15.095,32.072,20.426z M30.343,21.024c-0.011,0-0.023,0-0.035,0c0-5.128,0.007-10.256-0.012-15.384
	c-0.001-0.38-0.177-0.759-0.272-1.138c-0.311,0.246-0.666,0.451-0.925,0.743c-2.896,3.249-5.748,6.537-8.686,9.746
	c-0.667,0.729-0.98,1.419-1,2.4c-0.098,4.983-0.229,9.966-0.42,14.946c-0.049,1.264,0.405,1.938,1.585,2.34
	c2.656,0.904,5.285,1.885,7.92,2.848c1.763,0.645,1.832,0.624,1.838-1.326C30.354,31.14,30.343,26.082,30.343,21.024z
	 M71.839,36.368c0.612-0.514,1.162-0.946,1.681-1.414c4.896-4.426,9.783-8.858,14.675-13.288C93.346,17,98.499,12.335,103.643,7.659
	c0.233-0.211,0.372-0.525,0.555-0.791c-0.317,0.045-0.66,0.028-0.948,0.145c-2.146,0.86-4.311,1.68-6.412,2.64
	c-2.912,1.332-5.98,2.302-8.412,4.629C82.491,19.96,76.428,25.503,70.397,31.08c-2.164,2.001-2.19,1.98,0.001,4.036
	C70.851,35.541,71.335,35.933,71.839,36.368z M41.958,57.502c-0.144,0.073-0.829,0.267-1.307,0.694
	c-2.25,2.011-4.442,4.087-6.657,6.138c-5.458,5.051-10.886,10.138-16.392,15.136c-2.959,2.688-3.058,2.798-2.009,6.633
	c0.233,0.853,0.537,0.875,1.104,0.33c1.417-1.36,2.802-2.758,4.262-4.071c7.881-7.089,15.778-14.157,23.674-21.229
	c0.889-0.796,1.818-1.549,2.696-2.356c0.676-0.622,0.365-0.984-0.399-1.036C45.46,57.638,43.985,57.595,41.958,57.502z
	 M15.008,97.269c-0.014-0.002-0.027-0.002-0.04-0.002c0-0.281,0.004-0.562-0.001-0.842c-0.009-0.423-0.024-0.844-0.036-1.265
	c-0.042,0.448-0.093,0.896-0.123,1.347c-0.019,0.279-0.017,0.562-0.004,0.842c0.03,0.672,0.073,1.343,0.109,2.014
	C14.945,98.665,14.977,97.966,15.008,97.269z"/>
</svg>
