<?xml version="1.0" encoding="utf-8"?>
<!-- Generator: Adobe Illustrator 16.0.4, SVG Export Plug-In . SVG Version: 6.00 Build 0)  -->
<!DOCTYPE svg PUBLIC "-//W3C//DTD SVG 1.1//EN" "http://www.w3.org/Graphics/SVG/1.1/DTD/svg11.dtd">
<svg version="1.1" id="Layer_2522" xmlns="http://www.w3.org/2000/svg" xmlns:xlink="http://www.w3.org/1999/xlink" x="0px" y="0px"
	 width="128px" height="128px" viewBox="0 0 128 128" enable-background="new 0 0 128 128" xml:space="preserve">
<g>
	<path fill-rule="evenodd" clip-rule="evenodd" d="M109.432,42.857c0,7.146-0.013,14.291,0.005,21.436
		c0.012,4.861,0.026,4.882,4.81,6.221c3.154,0.882,6.289,1.943,9.507,2.466c3.459,0.561,4.395,2.525,4.286,5.64
		c-0.126,3.667-0.335,7.356-0.07,11.005c0.286,3.919-1.665,5.912-4.812,7.691c-13.271,7.498-26.442,15.173-39.651,22.781
		c-2.174,1.252-4.276,2.655-6.542,3.713c-4.793,2.234-8.754-0.275-8.871-5.479c-0.2-8.849-0.205-8.826-8.693-10.798
		c-2.755-0.64-5.273-0.493-7.756,1.097c-3.084,1.977-6.322,3.712-9.501,5.538c-1.352,0.776-2.652,1.211-4.365,0.825
		c-4.907-1.104-5.274-1.399-5.366-6.452c-0.007-0.386,0.066-0.786-0.012-1.157c-0.522-2.453,1.471-5.829-1.788-7.222
		c-3.622-1.548-7.399-3.233-11.408-0.155c-2.729,2.094-6.031,3.428-8.976,5.265c-1.594,0.993-3.157,1.229-4.955,0.927
		c-4.468-0.75-5.159-1.444-5.239-5.98c-0.067-3.863,0.152-7.737-0.066-11.589c-0.181-3.164,1.163-4.892,3.873-6.351
		c5.431-2.924,10.499-6.522,16.18-8.986c3.23-1.403,4.479-3.535,4.403-7.152c-0.265-12.552-0.046-25.114-0.365-37.664
		c-0.103-4.033,1.268-6.285,4.756-8.186c8.973-4.894,17.792-10.08,26.564-15.326c2.696-1.612,5.276-1.988,8.232-1.176
		c13.737,3.773,27.455,7.631,41.259,11.134c3.51,0.891,4.732,2.371,4.626,5.914C109.276,28.17,109.431,35.516,109.432,42.857z
		 M108.007,74.57c0.502-0.191,1.056-0.304,1.489-0.597c0.36-0.242,0.577-0.695,0.858-1.057c-0.614-0.299-0.942,0.177-1.279,0.518
		c-0.367,0.371-0.669,0.81-0.999,1.219c-0.954,0.023-1.892,0.082-2.436,1.051c-2.479,0.272-4.414,1.408-5.694,3.586
		c-0.979-0.01-1.865,0.175-2.393,1.123c-4.651,1.137-4.741,1.068-4.734-2.978c0.024-14.264,0.453-28.544-0.133-42.783
		c-0.285-6.959,1.543-11.489,8.199-13.772c0.714-0.245,1.359-0.73,1.989-1.171c0.623-0.436,1.737-1.062,1.669-1.42
		c-0.192-0.996-1.298-1.167-2.225-1.412C88.742,13.298,75.171,9.706,61.601,6.104c-1.087-0.289-2.076-0.983-3.292-0.267
		c-3.982,2.349-8.007,4.625-11.997,6.964c-0.892,0.522-1.008,1,0.223,1.287c1.308,0.305,2.584,0.747,3.882,1.099
		c12.622,3.423,25.22,6.942,37.89,10.179c2.821,0.721,3.77,1.979,3.748,4.742c-0.135,17.934-0.174,35.869-0.244,53.804
		c-5.327,1.535-9.867,4.41-13.903,8.148c-0.996-0.046-1.829,0.262-2.409,1.114c-1.879,2.008-4.067,1.561-6.371,0.927
		c-13.15-3.619-26.289-7.285-39.49-10.708c-3.527-0.915-6.209-1.749-5.494-6.314c0.429-2.734-1.427-2.086-2.881-1.229
		c-3.319,1.95-6.605,3.953-9.891,5.958c-0.74,0.452-1.937,0.679-1.834,1.705c0.041,0.404,1.228,0.82,1.95,1.013
		c20.058,5.371,40.125,10.711,60.186,16.067c1.719,0.458,3.346,0.632,5.018-0.314c5.864-3.317,11.779-6.551,17.651-9.855
		c0.432-0.244,1.035-1.082,0.967-1.167c-0.453-0.562-0.989-0.118-1.531,0.047c-4.768,1.456-9.548,2.871-14.315,4.32
		c-1.438,0.438-2.918,1.418-4.031-0.526c0.912-0.138,1.832-0.259,2.411-1.116c4.848-2.351,9.658-4.764,13.903-8.143
		c2.19-0.714,4.357-1.467,5.739-3.505c0.951-0.048,1.832-0.247,2.396-1.122c2.045-0.967,4.44-1.343,5.814-3.444
		C106.608,75.644,107.391,75.268,108.007,74.57z M33.812,81.583l-0.1-0.073c5.551,2.781,11.331,3.824,17.448,2.295
		c0.171,0.625,0.572,1.015,1.196,1.179c0.103,0.765,0.15,1.632,0.958,1.97c5.157,2.162,10.705,2.963,16.032,4.544
		c0.639,0.19,1.729,0.35,2.035-0.566c1-2.987,0.393-6.098,0.491-9.153c0.076-2.398-2.032-0.876-2.94-1.546
		c-1.143-0.843-2.169-1.769-1.53-3.347c0.556-1.368,1.7-1.527,2.819-0.79c1.709,1.122,1.999,0.108,1.885-1.22
		C71.688,69.994,73.4,64.831,70.2,60.309c-0.465-0.657-0.7-1.649-0.188-2.168c2.46-2.496,0.436-2.781-1.462-3.391
		c-0.958-0.309-1.439-1.281-1.343-2.331c0.074-0.826,0.72-1.744,1.417-1.523c4.617,1.458,3.138-1.972,3.279-4.015
		c0.106-1.536-0.132-3.105,0.059-4.625c0.388-3.073-1.008-4.208-3.862-5.188c-2.896-0.995-5.364,0.986-7.783,0.334
		c-2.625-0.708-4.051-3.658-7.125-4.349c-7.304-1.642-14.49-3.802-21.733-5.719c-5.525-1.462-5.531-1.438-5.414,4.483
		c0.011,0.578-0.211,1.296,0.05,1.714c2.424,3.88,2.692,7.706-0.051,11.542c0.227,9.25,0.278,18.512,0.792,27.746
		c0.149,2.684,1.311,5.466,2.645,7.846C29.956,81.512,32.313,81.308,33.812,81.583z M71.878,35.81
		c2.204,0.339,3.239-0.078,4.271-0.686c2.824-1.663,5.689-3.257,8.532-4.89c0.821-0.473,1.936-0.938,1.891-1.948
		c-0.058-1.293-1.449-0.982-2.284-1.21c-10.208-2.778-20.702-4.779-30.562-8.475c-8.922-3.344-16.317-2.332-23.488,3.388
		c-0.15,0.12-0.31,0.233-0.479,0.322c-0.661,0.344-1.669,0.52-1.602,1.406c0.078,1.013,1.158,0.625,1.802,0.798
		c11.512,3.102,23.03,6.182,34.544,9.275C67.287,34.537,70.064,35.312,71.878,35.81z M81.177,112.123
		c-0.056,5.073,0.202,5.255,4.139,3.075c2.837-1.572,5.647-3.193,8.435-4.854c1.449-0.862,3.85-1.372,3.95-2.921
		c0.117-1.777-2.611-0.881-3.695-1.948c-0.27-0.267-0.681-0.536-0.732-0.854c-0.559-3.445-2.274-1.858-3.873-0.937
		c-1.652,0.953-3.293,1.933-4.993,2.795C81.883,107.762,80.716,109.701,81.177,112.123z M105.959,98.741
		c-0.004,4.464-0.002,4.466,3.658,2.415c2.01-1.126,4.015-2.264,6.019-3.402c3.963-2.251,3.942-2.229,0.438-5.313
		c-0.538-0.474-0.788-1.279-1.151-1.941c-0.254-0.462-0.271-0.963-1.144-0.859C110.002,90.086,105.964,94.706,105.959,98.741z
		 M46.701,107.551c1.171-0.618,2.469-1.038,3.278-2.193c-0.893-0.288-1.793-0.553-2.676-0.868c-1.441-0.515-1.651,0.391-1.624,1.441
		C45.697,106.617,45.512,107.546,46.701,107.551z M14.995,95.803c-1.603-0.217-1.9,0.812-1.801,2.123
		c0.038,0.51-0.038,1.288,0.905,1.02c1.131-0.322,2.378-0.786,2.646-1.961C16.918,96.229,15.877,95.876,14.995,95.803z"/>
	<path fill-rule="evenodd" clip-rule="evenodd" d="M45.397,36.369c-0.967,1.537-2.367,3.31-2.269,5.729
		c0.026,0.651-1.137,0.944-1.908,0.662c-1.421-0.52-2.354-1.67-1.785-3.081c0.518-1.281,1.93-2.117,0.382-3.736
		c-0.809-0.847-0.482-2.211,0.643-2.961c0.836-0.557,1.862-0.561,2.736-0.158C44.468,33.41,45.262,34.452,45.397,36.369z"/>
	<path fill-rule="evenodd" clip-rule="evenodd" d="M50.811,74.329c-0.117,1.427-0.586,2.738-2.289,2.631
		c-1.929-0.122-3.139-1.388-3.354-3.29c-0.175-1.544,0.704-2.616,2.292-2.656C49.598,70.959,50.31,72.561,50.811,74.329z"/>
	<path fill-rule="evenodd" clip-rule="evenodd" d="M52.266,85.053c-0.391-0.389-0.782-0.778-1.171-1.166
		c-0.243-2.364-0.01-4.469,3.177-3.84c1.911,0.379,3.108,1.929,2.624,3.793C56.192,86.546,54.117,85.772,52.266,85.053z"/>
	<path fill-rule="evenodd" clip-rule="evenodd" d="M66.177,42.022c0.25,1.784,0.353,3.58-1.824,4.223
		c-1.188,0.351-2.225-0.308-3.011-1.221c-0.929-1.078-1.533-2.31-0.621-3.634c0.75-1.09,1.978-1.12,3.099-0.681
		c0.869,0.34,1.635,0.938,2.448,1.421L66.177,42.022z"/>
	<path fill-rule="evenodd" clip-rule="evenodd" d="M36.164,38.159c-0.117,1.643-0.997,2.697-2.489,2.535
		c-1.836-0.201-3.1-1.502-3.303-3.36c-0.177-1.621,0.958-2.422,2.486-2.349C34.854,35.082,35.808,36.4,36.164,38.159z"/>
	<path fill-rule="evenodd" clip-rule="evenodd" d="M33.812,81.583c-0.388-0.415-0.775-0.832-1.165-1.246
		c-1.348-1.436-2.053-2.994,0.009-4.277c1.478-0.921,2.892-0.542,3.937,1.031c1.277,1.924,0.617,3.244-1.188,4.202
		c-0.47,0.25-1.124,0.155-1.693,0.217L33.812,81.583z"/>
	<path fill-rule="evenodd" clip-rule="evenodd" d="M50.952,33.859c1.918,0.169,3.108,1.429,3.518,3.17
		c0.349,1.481-0.586,2.683-2.138,2.755c-2.012,0.094-3.165-1.328-3.56-3.089C48.439,35.211,49.307,34.172,50.952,33.859z"/>
	<path fill-rule="evenodd" clip-rule="evenodd" d="M51.084,60.715c1.929,0.128,3.011,1.336,3.133,3.216
		c0.085,1.29-0.912,2.156-2.171,2.007c-1.767-0.209-3.316-1.021-3.3-3.14C48.758,61.463,49.75,60.897,51.084,60.715z"/>
	<path fill-rule="evenodd" clip-rule="evenodd" d="M66.166,67.573c0.037,1.618,0.968,3.562-1.389,4.366
		c-1.244,0.424-2.221-0.288-3-1.167c-0.779-0.879-1.38-1.897-0.641-3.085c0.718-1.153,1.762-1.292,2.973-0.776
		c0.696,0.295,1.428,0.504,2.142,0.751L66.166,67.573z"/>
	<path fill-rule="evenodd" clip-rule="evenodd" d="M36.478,46.836c1.874,0.255,3.21,1.161,3.452,3.204
		c0.146,1.239-0.136,2.424-1.56,2.639c-2.027,0.306-3.347-0.688-3.742-2.697C34.333,48.483,34.863,47.336,36.478,46.836z"/>
	<path fill-rule="evenodd" clip-rule="evenodd" d="M65.16,78.996c-0.312,1.552-1.277,2.569-2.731,2.25
		c-1.695-0.372-3.196-1.449-3.008-3.5c0.114-1.234,1.134-1.974,2.404-1.89C63.761,75.982,64.832,77.146,65.16,78.996z"/>
	<path fill-rule="evenodd" clip-rule="evenodd" d="M50.963,49.115c-0.182,1.48-0.953,2.502-2.533,2.39
		c-1.958-0.139-3.095-1.395-3.211-3.313c-0.094-1.54,0.864-2.609,2.396-2.478C49.518,45.877,50.498,47.292,50.963,49.115z"/>
	<path fill-rule="evenodd" clip-rule="evenodd" d="M64.86,53.775c-0.325,1.346-1.077,2.292-2.372,2.002
		c-1.798-0.401-3.036-1.656-2.887-3.604c0.068-0.896,0.922-1.768,1.994-1.636C63.496,50.771,64.527,52.015,64.86,53.775z"/>
	<path fill-rule="evenodd" clip-rule="evenodd" d="M34.274,63.21c-0.016,1.456-0.853,2.125-2.167,2.111
		c-1.808-0.019-2.815-1.067-2.974-2.833c-0.092-1.038,0.332-1.987,1.471-2.096C32.639,60.194,33.793,61.314,34.274,63.21z"/>
	<path fill-rule="evenodd" clip-rule="evenodd" d="M41.139,57.553c1.846,0.373,3.031,1.383,3.022,3.428
		c-0.004,1.087-0.579,1.859-1.673,1.854c-1.753-0.007-2.818-1.04-3.045-2.745C39.282,58.875,39.684,57.841,41.139,57.553z"/>
	<path fill-rule="evenodd" clip-rule="evenodd" d="M58.929,47.761c-0.369,1.26-0.877,2.111-2.026,1.955
		c-1.508-0.206-2.404-1.169-2.384-2.728c0.015-1.163,0.799-1.648,1.906-1.596C58.094,45.471,58.602,46.642,58.929,47.761z"/>
	<path fill-rule="evenodd" clip-rule="evenodd" d="M32.564,55.645c-0.001,1.249-0.474,2.212-1.549,2.153
		c-1.489-0.081-2.384-1.197-2.514-2.652c-0.068-0.758,0.485-1.469,1.366-1.542C31.443,53.472,32.354,54.246,32.564,55.645z"/>
	<path fill-rule="evenodd" clip-rule="evenodd" d="M66.268,42.13c-0.255-2.098-0.423-4.306,2.765-3.106
		c1.274,0.48,2.137,1.852,1.086,3.32c-1.402,1.96-2.666,0.318-3.941-0.321L66.268,42.13z"/>
	<path fill-rule="evenodd" clip-rule="evenodd" d="M32.652,30.642c0.086,1.351-0.312,2.164-1.474,2.241
		c-1.603,0.106-2.477-0.826-2.691-2.329c-0.157-1.105,0.536-1.993,1.514-2.039C31.479,28.445,32.452,29.357,32.652,30.642z"/>
	<path fill-rule="evenodd" clip-rule="evenodd" d="M54.575,57.863c-1.664,0.042-2.493-0.907-2.914-2.224
		c-0.344-1.078,0.228-1.896,1.293-1.992c1.499-0.136,2.419,0.835,2.852,2.166C56.17,56.934,55.415,57.496,54.575,57.863z"/>
	<path fill-rule="evenodd" clip-rule="evenodd" d="M61.234,63.912c-1.482-0.057-2.329-0.997-2.499-2.425
		c-0.09-0.753,0.49-1.49,1.327-1.532c1.574-0.078,2.445,0.843,2.521,2.358C62.623,63.066,62.246,63.77,61.234,63.912z"/>
	<path fill-rule="evenodd" clip-rule="evenodd" d="M66.251,67.662c0.132-0.917,0.048-1.947,0.451-2.724
		c0.515-0.987,1.594-0.894,2.475-0.37c0.658,0.389,1.178,1.043,1.111,1.851c-0.088,1.094-0.747,1.687-1.896,1.539
		c-0.746-0.098-1.484-0.255-2.226-0.385L66.251,67.662z"/>
	<path fill-rule="evenodd" clip-rule="evenodd" d="M65.475,89.208c-1.404-0.511-2.151-1.544-1.917-3.065
		c0.187-1.219,1.226-1.467,2.197-1.173c1.186,0.359,2.001,1.259,1.753,2.598C67.325,88.55,66.718,89.301,65.475,89.208z"/>
	<path fill-rule="evenodd" clip-rule="evenodd" d="M45.809,55.027c-0.052,1.189-0.582,2.034-1.674,1.974
		c-1.504-0.082-2.444-1.047-2.415-2.598c0.015-0.764,0.538-1.508,1.397-1.561C44.681,52.747,45.559,53.609,45.809,55.027z"/>
	<path fill-rule="evenodd" clip-rule="evenodd" d="M38.869,67.696c1.384-0.151,2.173,0.642,2.496,1.819
		c0.319,1.165-0.451,1.871-1.513,1.84c-1.256-0.037-2.108-0.906-2.296-2.144C37.429,68.378,38.008,67.838,38.869,67.696z"/>
	<path fill-rule="evenodd" clip-rule="evenodd" d="M56.806,74.578c-1.165-0.455-2.301-1.116-1.909-2.809
		c0.201-0.866,0.969-1.19,1.75-1.097c1.637,0.195,2.241,1.299,1.996,2.822C58.507,74.336,57.855,74.733,56.806,74.578z"/>
	<path fill-rule="evenodd" clip-rule="evenodd" d="M45.509,80.633c0.025,1.573-0.552,2.21-1.664,2.207
		c-1.308-0.003-2.063-0.75-2.227-2.033c-0.132-1.041,0.216-1.914,1.36-2.024C44.577,78.629,45.37,79.542,45.509,80.633z"/>
	<path fill-rule="evenodd" clip-rule="evenodd" d="M31.646,45.842c-0.072,1.199-0.601,2.037-1.746,1.898
		c-1.234-0.15-2.085-0.987-2.181-2.312c-0.073-1.015,0.168-2.049,1.405-2.071C30.758,43.33,31.458,44.441,31.646,45.842z"/>
	<path fill-rule="evenodd" clip-rule="evenodd" d="M31.221,71.052c-0.339,1.03-1.003,1.31-1.834,1.096
		c-1.097-0.282-1.59-1.054-1.317-2.163c0.219-0.89,0.921-1.19,1.762-0.965C30.919,69.313,31.344,70.095,31.221,71.052z"/>
</g>
</svg>
