<?xml version="1.0" encoding="utf-8"?>
<!-- Generator: Adobe Illustrator 16.0.4, SVG Export Plug-In . SVG Version: 6.00 Build 0)  -->
<!DOCTYPE svg PUBLIC "-//W3C//DTD SVG 1.1//EN" "http://www.w3.org/Graphics/SVG/1.1/DTD/svg11.dtd">
<svg version="1.1" id="Layer_2528" xmlns="http://www.w3.org/2000/svg" xmlns:xlink="http://www.w3.org/1999/xlink" x="0px" y="0px"
	 width="128px" height="128px" viewBox="0 0 128 128" enable-background="new 0 0 128 128" xml:space="preserve">
<path d="M119.693,11.97c-2.001-0.148-4.009-0.521-5.951-0.88c-0.885-0.164-1.771-0.328-2.658-0.473
	c-1.823-0.297-3.226-0.246-4.583,0.149l-2.332,0.679c-3.337,0.971-6.673,1.941-10.002,2.939c-2.312,0.694-4.683,1.339-6.978,1.964
	c-2.752,0.75-5.6,1.525-8.372,2.391c-4.633,1.445-9.49,2.801-14.851,4.146c-0.79,0.197-1.271,0.094-1.851-0.386
	c-3.828-3.168-7.853-6.21-11.746-9.152c-3.602-2.722-7.326-5.536-10.879-8.44c-2.131-1.741-4.532-2.781-7.137-3.091
	c-2.293-0.271-4.611-0.652-6.854-1.02l-1.786-0.291c-1.592-0.257-2.885-0.356-4.173-0.327c-0.69,0.018-1.463,0.172-1.948,1.18
	c-0.346,0.721-0.703,1.437-1.062,2.153c-1.289,2.585-2.624,5.259-3.423,8.115l-0.516,1.847c-0.84,3.019-1.71,6.141-2.651,9.184
	c-0.875,2.832-1.662,5.611-1.673,8.497l-0.01,2.975C8.236,41.484,8.211,49.09,7.944,56.566c-0.096,2.688-0.071,5.729-0.046,8.371
	c0.01,1.086,0.02,2.562,0.022,3.562H7.5v3.712c0,3.266,0.075,6.443,0.088,9.709c0.006,1.547,0.482,2.777,1.373,3.848
	c2.192,2.637,4.554,5.188,6.818,7.677c0.935,1.027,1.88,2.044,2.807,3.078c2.045,2.28,4.118,4.535,6.186,6.794
	c3.231,3.531,6.576,7.18,9.77,10.856c2.902,3.34,6.159,6.459,9.308,9.477c0.696,0.669,1.394,1.335,2.086,2.006
	c1.448,1.399,2.246,2.171,3.401,2.171c0.791,0,1.739-0.365,3.174-0.915c2.086-0.803,4.178-1.687,6.201-2.54
	c1.319-0.558,2.637-1.114,3.962-1.652c2.231-0.907,4.469-1.896,6.632-2.853c3.645-1.612,7.414-3.279,11.251-4.595
	c2.691-0.925,5.209-2.139,7.479-3.608c2.489-1.612,4.982-3.311,7.392-4.951c2.048-1.396,4.164-2.836,6.268-4.218
	c4.812-3.159,9.532-6.159,14.028-8.922c0.994-0.61,1.489-1.335,1.705-2.501c0.914-4.935,1.057-9.995,1.194-14.889
	c0.024-0.872,0.048-1.742,0.078-2.612c0.197-5.954,0.459-12.24,0.803-19.217c0.217-4.39,0.45-8.778,0.685-13.166
	c0.223-4.189,0.445-8.378,0.655-12.569c0.124-2.492,0.225-4.987,0.325-7.481c0.095-2.367,0.191-4.733,0.306-7.098
	C121.539,12.741,120.956,12.064,119.693,11.97z M10.375,69.507c-0.179-7.329-0.09-15.18,0.27-24.001l0.029-0.683
	c0.093-2.148,0.188-4.37-0.074-6.58c-0.18-1.52-0.061-3.085,0.053-4.599c0.085-1.12,0.028-2.278-0.001-3.427L10.5,30.109
	c0-0.004,0-0.008,0-0.012c0,0.028,0.238,0.065,0.286,0.109l0.231,0.148c1.285,1.196,2.608,2.393,3.867,3.617L16.37,35.4
	c3.752,3.652,7.642,7.429,11.578,11.023c1.309,1.195,2.614,2.448,3.872,3.66c1.111,1.071,2.226,2.142,3.358,3.19
	c0.61,0.564,0.655,1.203,0.65,2.044c-0.02,5.407-0.131,11.353-0.35,18.713c-0.143,4.833-0.23,9.749-0.314,14.501
	c-0.055,3.057-0.108,6.113-0.177,9.172c-0.064,2.833-0.167,5.666-0.272,8.5l-0.105,2.989c-0.002,0.153-0.009,0.561-0.111,0.605
	c-0.069-0.011-0.234-0.215-0.312-0.312c-0.06-0.072-0.117-0.144-0.174-0.204l-4.066-4.403c-4.109-4.449-8.22-8.899-12.317-13.359
	c-0.907-0.987-1.796-1.989-2.686-2.991c-1.255-1.41-2.552-2.87-3.876-4.265c-0.911-0.956-0.928-2.022-0.861-3.218
	C10.4,77.574,10.455,73.802,10.375,69.507z M15.622,13.989c0.074-0.332,0.153,0.511,0.146,0.511c-0.001,0-0.001,0-0.002,0
	L15.5,12.461v-0.159v0.373c0,0,0.336,0.051,0.684,0.296c2.206,1.552,4.314,3.383,6.288,5.154c0.535,0.479,1.102,0.959,1.639,1.434
	c1.707,1.505,3.547,2.916,5.311,4.281c1.741,1.347,3.551,2.741,5.224,4.215c3.241,2.857,6.702,5.462,9.965,7.885
	c0.334,0.248,0.633,0.542,0.946,0.854c0.424,0.423,0.863,0.861,1.418,1.189c0.085,0.051,0.198,0.142,0.231,0.365l-0.046,0.071
	c-0.083,0.133-0.176,0.286-0.293,0.418c-1.626,1.851-3.078,3.876-4.482,5.834c-1.251,1.745-2.545,3.549-3.951,5.212
	c-0.198,0.234-0.369,0.442-0.52,0.626c-0.37,0.45-0.719,0.875-0.85,0.875c-0.147,0-0.55-0.379-1.018-0.818l-0.458-0.428
	c-3.969-3.67-7.807-7.606-11.519-11.412l-1.243-1.274c-1.755-1.798-3.599-3.556-5.381-5.256c-1.713-1.634-3.485-3.322-5.169-5.039
	c-0.466-0.476-0.553-0.783-0.406-1.43c0.48-2.103,1.175-3.732,1.847-5.749C14.413,17.892,15.132,16.188,15.622,13.989z M20.354,2.75
	l0.053,0.006c1.858,0.345,3.712,0.545,5.504,0.739c3.162,0.342,6.148,0.665,9.057,1.715c1.216,0.439,2.127,1.205,3.092,2.017
	c0.375,0.315,0.749,0.629,1.141,0.924c5.018,3.771,10.064,7.684,14.944,11.467l1.758,1.363c0.623,0.483,1.224,1,1.824,1.515
	c0.681,0.585,1.384,1.19,2.118,1.741c0.387,0.291,0.477,0.468,0.483,0.565c0.014,0.194-0.268,0.503-0.482,0.719
	c-1.991,2.007-3.984,4.078-5.911,6.081c-0.936,0.973-1.871,1.945-2.81,2.915c-0.982,1.012-1.522,1.57-1.94,1.57
	c-0.409,0-1.016-0.523-2.09-1.45c-2.603-2.244-5.332-4.42-7.969-6.526c-1.692-1.352-3.385-2.702-5.057-4.079
	c-3.042-2.504-6.094-5.104-9.044-7.618c-1.74-1.482-3.48-2.964-5.228-4.436c-0.84-0.708-1.629-1.28-2.41-1.748
	c-0.548-0.328-0.636-0.64-0.347-1.237l0.405-0.837c0.735-1.521,1.471-3.041,2.241-4.546C19.871,3.247,20.125,2.75,20.354,2.75z
	 M108.401,12.942l1.961,0.275c2.229,0.314,4.316,0.607,6.401,0.906l-0.041,0.028c-0.658,0.487-1.328,0.96-1.999,1.434
	c-1.46,1.032-2.968,2.099-4.341,3.291c-2.767,2.402-6.04,3.449-8.878,4.156l-1.535,0.382c-4.856,1.208-9.877,2.456-14.747,3.931
	c-2.732,0.828-5.551,1.525-8.275,2.199c-2.677,0.662-5.443,1.346-8.136,2.154c-2.236,0.672-4.548,1.251-6.781,1.811
	c-1.44,0.361-2.88,0.722-4.313,1.11c-0.455,0.123-0.905,0.268-1.354,0.413c-0.914,0.295-1.777,0.574-2.695,0.678l1.153-1.161
	c1.179-1.19,2.399-2.421,3.645-3.576c1.377-1.275,2.515-2.458,3.482-3.616c0.803-0.962,1.801-1.581,3.24-2.007
	c1.49-0.441,3.028-0.826,4.516-1.198c2.398-0.6,4.878-1.22,7.25-2.099c2.506-0.929,5.127-1.646,7.662-2.341
	c1.324-0.363,2.649-0.727,3.966-1.12c1.124-0.335,2.252-0.654,3.381-0.973c2.075-0.586,4.222-1.192,6.311-1.9
	c1.808-0.611,3.698-1.105,5.528-1.583c1.323-0.346,2.692-0.704,4.028-1.105C108.056,12.962,108.312,12.947,108.401,12.942z
	 M95.349,86.215c0.075,2.174-0.059,4.385-0.189,6.522c-0.111,1.852-0.227,3.765-0.209,5.658c0.006,0.625-0.204,0.915-0.834,1.146
	c-2.105,0.774-4.206,1.556-6.308,2.339c-4.036,1.504-8.21,3.058-12.338,4.52l-1.161,0.411c-3.544,1.25-7.209,2.545-10.72,4.085
	c-1.005,0.441-1.69,0.73-2.032,0.73c-0.087,0-0.106-0.021-0.112-0.026c-0.19-0.201-0.13-1.309-0.081-2.197
	c0.239-4.392,0.482-9.468,0.331-14.1c0.284-3.918,0.356-7.794,0.425-11.543c0.061-3.363,0.126-6.839,0.346-10.231
	c0.213-3.275,0.266-6.605,0.318-9.826c0.046-2.915,0.095-5.93,0.262-8.888c0.061-1.071,0.323-1.41,1.277-1.644
	c7.331-1.799,15.012-3.952,23.479-6.583l2.024-0.626c1.785-0.551,3.57-1.103,5.351-1.671c0.232-0.075,0.566-0.173,0.773-0.173
	c0.127,0,0.365,0,0.393,0.903c0.051,1.689,0.156,3.411,0.156,5.075v0.757c0,1.43-0.1,2.86-0.094,4.291
	c0.014,3.6-0.024,7.324-0.108,10.979c-0.132,5.731-0.536,11.34-0.851,15.585C95.345,83.108,95.294,84.582,95.349,86.215z
	 M103.849,25.212c-0.386,0.811-0.742,1.634-1.1,2.458c-0.391,0.897-0.78,1.795-1.205,2.672c-0.502,1.036-0.961,2.105-1.404,3.139
	c-0.378,0.878-0.754,1.756-1.16,2.624c-0.164,0.351-0.334,0.701-0.504,1.052c-0.401,0.827-0.816,1.683-1.151,2.551
	c-0.636,1.642-1.741,2.467-3.585,2.675c-2.564,0.29-5.025,1.093-7.407,1.869l-0.938,0.305c-4.02,1.295-8.164,2.421-12.172,3.511
	c-2.981,0.81-6.064,1.648-9.077,2.549c-0.156,0.047-0.32,0.091-0.456,0.091c-0.128,0-0.274-0.035-0.483-0.286
	c-2.795-3.36-5.918-6.502-8.937-9.542l-1.065-1.072c-0.101-0.102-0.194-0.211-0.288-0.32c-0.134-0.156-0.269-0.312-0.418-0.451
	c-0.153-0.142-0.199-0.228-0.217-0.239c0.029-0.024,0.121-0.084,0.361-0.138c1.446-0.323,2.896-0.71,4.299-1.085l1.195-0.317
	c6.244-1.646,11.701-3.146,16.682-4.582c3.636-1.049,7.317-2.005,10.753-2.881c5.838-1.49,11.056-2.783,15.95-3.954
	c0.365-0.088,0.694-0.235,1.015-0.377c0.406-0.181,0.79-0.352,1.164-0.352l0.118,0.002l0.033-0.006
	c0.02-0.003,0.039-0.007,0.058-0.01C103.887,25.137,103.865,25.176,103.849,25.212z M37.15,104.851
	c0.099-3.102,0.197-6.204,0.31-9.304c0.04-1.065,0.123-2.154,0.203-3.208c0.157-2.057,0.318-4.183,0.166-6.267
	c-0.266-3.639-0.114-7.333,0.031-10.906c0.081-1.981,0.165-4.03,0.176-6.051c0.019-3.166,0.131-6.394,0.241-9.514
	c0.051-1.463,0.102-2.926,0.144-4.387c0.029-0.979,0.515-1.695,1.054-2.404c1.393-1.829,2.808-3.642,4.222-5.455l0.609-0.782
	c0.719-0.922,1.442-1.842,2.164-2.762c0.76-0.967,1.519-1.936,2.277-2.906c0.252-0.324,0.674-0.867,0.83-0.867
	c0.159,0,0.597,0.463,0.783,0.661c1.129,1.194,2.275,2.374,3.421,3.554c2.204,2.27,4.482,4.617,6.603,7.033
	c0.394,0.449,0.527,0.899,0.474,1.606c-0.089,1.194-0.172,2.39-0.252,3.584c-0.095,1.376-0.188,2.751-0.294,4.126
	c-0.075,0.977-0.027,1.953,0.021,2.898c0.047,0.959,0.097,1.951,0.014,2.923c-0.356,4.158-0.503,8.093-0.489,13.146
	c-0.043,1.274-0.106,2.656-0.173,4.114c-0.164,3.605-0.351,7.694-0.318,11.777c0.02,2.413-0.12,4.867-0.254,7.241
	c-0.179,3.135-0.365,6.378-0.186,9.586c0.036,0.648-0.128,1.151-0.529,1.635l-0.99,1.186c-2.655,3.181-5.399,6.47-7.946,9.835
	c-0.191,0.253-0.283,0.26-0.284,0.26c-0.077,0-0.285-0.226-0.397-0.347l-0.076-0.083c-0.405-0.436-0.809-0.872-1.211-1.311
	c-1.131-1.228-2.302-2.497-3.51-3.695c-0.949-0.942-1.864-1.952-2.751-2.93c-1.193-1.317-2.427-2.678-3.772-3.906
	c-0.392-0.358-0.547-0.831-0.521-1.585C37.012,109.181,37.081,107.016,37.15,104.851z M56.031,121.153
	c0.685-0.754,1.393-1.533,2.038-2.354c0.317-0.403,0.692-0.791,1.056-1.166c0.551-0.569,1.121-1.158,1.543-1.85
	c0.904-1.484,2.271-2.089,3.614-2.522c2.648-0.853,5.276-1.877,7.817-2.866c2.123-0.827,4.316-1.683,6.506-2.431
	c4.722-1.613,9.747-3.342,14.723-5.158c1.775-0.649,3.542-1.401,5.25-2.128c0.837-0.356,1.672-0.712,2.513-1.059
	c0.099-0.039,0.198-0.08,0.298-0.118c-0.485,0.456-1.068,0.814-1.641,1.168l-0.486,0.304c-4.148,2.653-7.286,4.727-10.174,6.724
	c-0.661,0.455-1.346,0.929-1.93,1.55c-0.345,0.367-0.631,0.567-0.955,0.673c-3.779,1.22-7.491,2.768-11.082,4.264
	c-2.055,0.856-4.18,1.742-6.289,2.555c-2.136,0.822-4.255,1.77-6.303,2.685c-2.411,1.077-4.903,2.192-7.426,3.104
	c-0.194,0.071-0.368,0.166-0.529,0.272C55.049,122.236,55.544,121.689,56.031,121.153z M97.478,98.149
	c-0.085-0.125-0.075-0.804-0.07-1.13c0.025-1.639,0.13-3.306,0.23-4.92c0.142-2.269,0.288-4.614,0.218-6.938
	c-0.095-3.115,0.09-6.28,0.27-9.342c0.106-1.822,0.216-3.707,0.266-5.566c0.036-1.303,0.082-2.604,0.129-3.906
	c0.12-3.447,0.246-7.011,0.163-10.518c-0.071-3.048-0.025-6.145,0.019-9.139c0.017-1.125,0.033-2.25,0.044-3.375
	c0.001-0.106-0.004-0.213-0.009-0.319c-0.016-0.355-0.018-0.583,0.129-0.79c1.505-2.091,2.503-4.454,3.47-6.739
	c0.398-0.941,0.795-1.882,1.227-2.805l0.697-1.475c0.81-1.704,1.645-3.466,2.36-5.249c0.501-1.247,1.322-2.196,2.662-3.079
	c3.544-2.337,6.549-4.603,9.185-6.927c0.129-0.112,0.231-0.168,0.282-0.187c0.006,0.061,0.001,0.165-0.004,0.285
	c-0.039,1.999-0.085,3.999-0.164,5.997c-0.056,1.436-0.13,2.872-0.205,4.308l-0.126,1.875c-0.063,1.868-0.108,3.738-0.154,5.608
	c-0.102,4.239-0.207,8.622-0.544,12.91c-0.464,5.886-0.75,11.053-0.872,15.796c-0.087,3.348-0.244,6.751-0.396,10.041
	c-0.189,4.079-0.385,8.297-0.448,12.453c-0.013,0.826-0.157,1.633-0.312,2.485c-0.174,0.961-0.353,1.956-0.323,2.979
	c0.01,0.363-0.253,0.507-0.812,0.726c-0.091,0.036-0.18,0.071-0.263,0.107c-1.263,0.554-2.567,1.078-3.829,1.586
	c-0.68,0.272-1.359,0.546-2.037,0.825c-3.275,1.349-6.548,2.706-9.819,4.065C98.121,97.923,97.642,98.122,97.478,98.149z"/>
</svg>
