<?xml version="1.0" encoding="utf-8"?>
<!-- Generator: Adobe Illustrator 16.0.4, SVG Export Plug-In . SVG Version: 6.00 Build 0)  -->
<!DOCTYPE svg PUBLIC "-//W3C//DTD SVG 1.1//EN" "http://www.w3.org/Graphics/SVG/1.1/DTD/svg11.dtd">
<svg version="1.1" id="Layer_2530" xmlns="http://www.w3.org/2000/svg" xmlns:xlink="http://www.w3.org/1999/xlink" x="0px" y="0px"
	 width="128px" height="128px" viewBox="0 0 128 128" enable-background="new 0 0 128 128" xml:space="preserve">
<path fill-rule="evenodd" clip-rule="evenodd" d="M97.702,86.943c-0.431,0.173-0.966,0.236-1.277,0.535
	c-2.657,2.547-6.274,3.751-8.873,6.369l0.008-0.008c-0.626,0.099-1.171,0.361-1.62,0.812l-0.01,0.009
	c-2.85,1.685-5.52,3.626-8.113,5.677l0.008-0.008c-1.314,0.508-2.459,1.24-3.252,2.441l0.009-0.008
	c-1.353,0.629-2.765,1.148-3.925,2.125c-0.842,0.709-1.715,0.916-2.805,0.537c-2.342-0.812-4.806-0.979-7.253-0.998
	c-1.294-0.01-2.54-0.294-3.816-0.33c-0.285-0.009-0.599-0.1-0.693-0.344c-0.576-1.498-2.011-1.479-3.197-2.035
	c-1.67-0.781-3.309-1.031-5.08-0.914c-1.063,0.071-1.831-0.171-2.492-1.23c-1.529-2.449-5.397-3.857-8.155-3.02
	c-1.622,0.492-3.177,0.391-4.777,0.125l0.007,0.008c-0.365-0.574-0.895-0.902-1.546-0.66c-3.086,1.145-5.06-0.635-6.979-2.592
	l0.007,0.008c-0.391-1.093-1.042-1.76-2.328-1.584c-0.607,0.084-1.189-0.16-1.732-0.447l-0.003-0.002
	c-2.316-1.187-4.859-1.764-7.27-2.701c-1.564-0.61-3.254-0.938-3.947-2.783c-0.097-0.26-0.487-0.452-0.782-0.586
	c-1.611-0.736-2.5-1.953-2.655-3.732c-0.11-1.265-0.84-1.59-1.978-1.153l0.007,0.007c-0.356-0.186-0.713-0.373-1.069-0.559
	c-0.815-0.424-1.885-0.625-1.835-1.865c0.049-1.199,0.872-2.072,1.793-2.471c2.084-0.9,3.771-2.332,5.57-3.627l-0.002,0.002
	c0.719-0.172,1.234-0.613,1.627-1.22L9.264,70.73c0.139-0.14,0.278-0.278,0.417-0.417l-0.009,0.008
	c0.984-0.237,1.329-0.813,0.872-1.749c-0.517-1.062-0.912-2.191-1.68-3.119l-0.005-0.006c-0.447-1.251-0.826-2.537-1.613-3.638
	l-0.015-0.016c-2.018-4.314-4.036-8.629-6.054-12.945l-0.05-0.05c-0.318-1.323-1.416-2.571-0.389-4.024l0.018-0.021
	c0.938-1.72,1.384-3.63,2.027-5.458c0.889-2.526,2.197-4.892,2.831-7.51l0.007-0.007c1.01-2.431,2.009-4.867,3.033-7.292
	c0.9-2.127,1.282-2.339,3.561-1.926c6.382,1.157,12.727,2.493,19.052,3.923c1.055,0.238,2.105,0.617,3.184,0.53
	c0.993-0.08,1.478,0.496,2,1.123l-0.008-0.008c0.783,2.443,1.969,4.696,3.253,6.904l-0.008-0.008
	c1.807,4.162,3.82,8.233,5.477,12.463c0.209,0.537,0.407,1.417,1.398,0.949l0.049-0.06c0.13-0.124,0.26-0.249,0.391-0.374
	l-0.009,0.008c3.38-1.719,6.393-4.023,9.589-6.036c4.174-2.628,8.321-5.298,12.485-7.943c0.863-0.548,1.815-0.969,2.827-1.028
	c4.378-0.257,8.734-0.724,13.088-1.233c4.806-0.561,9.638-0.844,14.441-1.472c2.729-0.357,5.519-0.831,8.272-0.514
	c2.528,0.292,5.008,1.01,7.513,1.518c4.169,0.847,8.34,1.675,12.511,2.511l-0.008-0.007c-0.923,4.817-1.853,9.633-2.769,14.451
	c-1.369,7.199-2.738,14.398-4.088,21.601c-0.342,1.828-1.888,2.511-3.174,3.432c-0.703,0.504-1.604,0.725-2.13,1.486l-0.007,0.007
	c-2.355,1.21-4.365,2.919-6.492,4.46l0.007-0.007c-0.265,0.132-0.53,0.265-0.796,0.397l-0.03,0.03
	c-0.797,0.527-1.594,1.055-2.391,1.582l-0.053,0.054c-1.701,1.604-4.156,2.148-5.661,4.028l0.007-0.007
	c-1.035,0.211-1.86,0.736-2.44,1.629L97.702,86.943z M90.806,80.867c-0.137,0.134-0.272,0.269-0.409,0.403
	c-0.531,0.085-0.943,0.349-1.222,0.813l0.007-0.007c-1.485,0.41-2.595,1.384-3.651,2.437l-0.003,0.004
	c-0.793,0.201-1.407,0.699-2.017,1.207l-0.019,0.018c-2.828,1.354-4.869,3.859-7.676,5.246l-0.04,0.041
	c-0.595,0.312-1.215,0.59-1.598,1.188l-0.015,0.014c-1.689,0.96-3.314,2.017-4.842,3.223l-0.034,0.035
	c-0.338,0.191-0.613,0.445-0.795,0.791c-0.141,0.048-0.349,0.049-0.283,0.273c0.02,0.064,0.185,0.088,0.282,0.131
	c-1.703,0.405-3.163,1.257-4.45,2.426l-0.022,0.021c-1.347,0.943-2.695,1.887-4.043,2.83c-0.223,0.104-0.616,0.238-0.395,0.495
	c0.358,0.417,0.812,0.153,1.201-0.096c1.145-0.232,2.208-0.27,3.278,0.454c0.805,0.545,1.903,0.528,2.716,0.041
	c0.909-0.543,1.472-0.157,2.121,0.316l0.06,0.063l-0.065-0.059c0.103-0.728,0.808-0.551,1.22-0.813
	c0.137,0.117,0.271,0.104,0.405-0.002c1.006-0.594,2.072-1.1,2.841-2.026v0.001c0.406-0.271,0.814-0.543,1.221-0.815l-0.008,0.009
	c0.261-0.129,0.521-0.258,0.781-0.387l0.058-0.057c2.291-1.612,4.581-3.225,6.873-4.836l-0.002,0.002
	c0.262-0.129,0.522-0.258,0.784-0.387l0.048-0.048c3.779-2.561,7.56-5.121,11.34-7.681l-0.003,0.002
	c1.406-0.874,2.85-1.693,4.062-2.844l-0.008,0.008c3.062-1.904,6.176-3.736,8.931-6.094l-0.006,0.008
	c0.265-0.132,0.529-0.264,0.794-0.395l0.032-0.033c0.235-0.129,0.477-0.248,0.705-0.388c2.644-1.616,5.024-3.621,7.718-5.17
	c0.672-0.388,1.47-1.108,0.709-1.949c-0.734-0.81-1.038-1.882-1.842-2.613l-0.003-0.003c-0.522-0.662-0.641-1.995-2.026-1.216
	v-0.001c-4.627,2.703-8.895,5.942-13.352,8.898l-0.06,0.061c-1.013,0.652-2.074,1.24-3.025,1.971
	c-1.952,1.502-4.287,2.506-5.874,4.484C91.072,80.748,90.938,80.754,90.806,80.867z M63.627,96.686
	c0.134-0.136,0.268-0.271,0.401-0.408c2.65-1.625,5.161-3.455,7.689-5.258l0.032-0.033c1.443-0.805,2.726-1.843,4.047-2.823
	L75.79,88.17c0.26-0.128,0.521-0.256,0.78-0.385l0.058-0.059c2.64-1.773,5.35-3.453,7.683-5.645
	c0.137,0.117,0.271,0.104,0.405-0.003c2.283-1.505,4.563-3.016,6.854-4.509c0.456-0.297,0.653-0.645,0.452-1.17l-0.009,0.007
	c1.091-0.04,1.996-0.515,2.812-1.198l0.054-0.054c0.385-0.25,0.769-0.5,1.153-0.751l0.07-0.069c1.912-1.298,3.879-2.518,5.646-4.019
	c0.136-0.136,0.271-0.271,0.408-0.406c1.495-0.395,2.583-1.4,3.653-2.434l-0.003,0.004c2.678-1.244,4.753-3.415,7.354-4.779
	c0.626-0.328,0.661-0.949,0.707-1.562c0.137-1.8,0.096-3.641,0.481-5.388c0.394-1.78-0.319-2.805-1.644-3.686l-0.002-0.001
	c-1.57-1.94-2.882-4.101-4.869-5.683l0.007,0.007c-0.47-1.277-1.43-1.558-2.712-1.573c-8.534-0.098-17.076,0.321-25.603-0.359
	c-0.664-0.053-1.325,0.085-1.992,0.184c-2.402,0.356-4.069,1.907-5.804,3.372l0.008-0.008c-1.734,1.074-3.883,1.597-4.877,3.658
	l0.009-0.008c-1.708-0.07-2.772,1.149-4.019,2.002l-0.069,0.07c-0.783,0.688-1.98,0.875-2.409,1.992l0.007-0.007
	c-1.994,0.699-3.612,2.009-5.273,3.251c-0.135,0.135-0.271,0.271-0.407,0.406c-1.022,0.226-1.851,0.742-2.438,1.622l0.006-0.005
	c-1.802,0.817-3.417,1.914-4.874,3.25l0.004-0.004c-4.511,2.562-8.742,5.55-12.984,8.522l0.004-0.003
	c-0.262,0.129-0.524,0.258-0.787,0.388l-0.045,0.046c-1.646,1.014-3.306,2.006-4.829,3.204l-0.034,0.034
	c-0.399,0.263-0.798,0.525-1.197,0.787l-0.01,0.011c-0.743,0.455-1.525,0.858-2.221,1.376c-1.321,0.984-3.061,1.45-3.864,3.083
	l0.007-0.007c-0.999,0.027-1.725,0.6-2.43,1.217L19,82.898c-1.652,1.049-3.303,2.098-4.956,3.143
	c-0.48,0.305-0.57,0.536,0.063,0.774c0.305,0.114,0.562,0.355,0.84,0.538c0.948-0.012,1.708,0.291,2.584,0.783
	c1.589,0.895,3.337,1.68,5.173,1.953c1.046,0.154,1.862,0.324,2.604,1.191c0.607,0.711,1.197,1.441,1.806,2.153l0.008,0.008
	c0.852,1.101,1.937,1.024,3.103,0.64c0.986-0.326,1.961-0.521,2.819,0.35c0.798,0.811,1.644,0.854,2.741,0.434
	c1.49-0.572,3.089-1.078,4.718-0.559c2.16,0.689,3.873,2.353,6.119,2.885c0.363,0.087,0.488,0.43,0.589,0.761
	c0.278,0.904,0.912,0.911,1.75,0.89c1.659-0.043,3.267,0.098,4.766,1.128c2.331,1.604,3.39,1.425,5.436-0.444
	c1.115-0.964,2.668-1.273,3.649-2.438C63.083,96.954,63.355,96.82,63.627,96.686z M25.496,27.318l-0.005,0.004
	c0.408,0.584,1.006,0.915,1.626,1.214c0.274,0.537,0.577,1.045,1.216,1.218c0.314,0.414,0.576,1.022,1.22,0.8
	c0.822-0.283,1.489-0.866,2.105-1.471c0.325-0.318,0.023-0.458-0.264-0.487c-1.294-0.13-2.499-1.011-3.873-0.464
	C27.055,27.341,26.244,27.408,25.496,27.318z M4.401,42.734c1.29-0.079,1.86-0.771,2.022-2.053c0.237-1.865,0.64-3.709,0.965-5.564
	c0.042-0.235,0.255-0.593-0.063-0.671c-0.251-0.062-0.366,0.342-0.462,0.58c-0.857,2.111-1.7,4.228-2.551,6.341
	C4.122,41.841,4.203,42.29,4.401,42.734c-0.146,0.12-0.563-0.047-0.409,0.388C4.128,42.994,4.264,42.864,4.401,42.734z
	 M120.822,41.92c1.148-1.356,1.928-2.948,2.834-4.459l0.004,0.003c-3.382,1.354-6.727,2.782-9.742,4.869l0.008-0.008
	c-1.266,0.064-2.291,0.787-3.375,1.305c-0.658,0.314-0.963,0.83-0.29,1.598c1.419,1.621,2.7,3.361,4.108,4.991
	c1.05,1.216,1.128,1.19,1.902-0.172c1.534-2.696,3.031-5.412,4.545-8.121L120.822,41.92z M120.405,47.614
	c-0.789,1.198-1.578,2.396-2.367,3.594l-0.104,0.104c-1.456,1.732-1.288,3.884-1.627,5.936c-0.544,3.301-0.698,6.433,1.848,9.079
	c0.306,0.317,0.353,1.057,0.88,0.955c0.509-0.098,0.4-0.771,0.484-1.221c1.266-6.829,2.534-13.658,3.796-20.488
	c0.189-1.028,0.508-2.044,0.353-3.112c-0.58,0.883-1.307,1.677-1.637,2.711l0.008-0.007c-0.791,0.642-1.281,1.483-1.614,2.43
	L120.405,47.614z M39.687,54.503c0.401-1.03,0.406-2.288,1.63-2.847l-0.005,0.006c2.515-1.148,2.586-1.193,1.56-3.519
	c-2.476-5.617-5.023-11.204-7.526-16.809c-0.437-0.979-0.953-1.066-1.89-0.538c-2.912,1.642-4.379,5.69-2.834,8.641
	c2.632,5.03,4.707,10.307,7.079,15.452c0.474,1.028,0.619,2.211,1.436,3.078c0.889-1.043,0.34-2.319,0.56-3.471L39.687,54.503z
	 M7.649,56.937l-0.008-0.008c1.391,3.882,3.357,7.507,5.048,11.253c0.37,0.819,0.958,1.216,1.861,1.319
	c1.874,0.217,3.732,0.577,5.608,0.759c0.965,0.094,2.292,0.946,2.826,0.032c0.517-0.885-0.528-1.947-1.144-2.819l0.008,0.008
	c-0.458-2.38-1.942-4.307-2.844-6.493h-0.001c-1.5-4.269-3.664-8.244-5.458-12.38c-0.893-2.058-2.811-2.59-4.452-3.572
	c-2.064-1.235-3.705,0.095-5.431,0.934c-0.697,0.339-1.123,0.71-0.683,1.553C4.6,50.628,5.767,53.96,7.649,56.937z M21.434,27.316
	l0.008,0.008c-0.191-0.355-0.464-0.627-0.818-0.819l0.007,0.008c-2.372-0.966-4.925-1.157-7.395-1.704
	c-1.678-0.372-1.929-0.148-2.239,1.604c-0.787,4.441-1.576,8.881-2.362,13.323c-0.118,0.666-0.232,1.347-0.048,2.006
	c0.344,1.225,5.465,3.663,6.566,3.013c2.033-1.202,4.353-1.829,6.275-3.23l0.015-0.015c1.891-0.741,3.579-1.871,5.368-2.81
	c0.767-0.403,1.238-1.056,1.333-1.917c0.139-1.27,0.357-2.553-0.22-3.785c0.026-0.042,0.079-0.088,0.074-0.127
	c-0.01-0.093-0.048-0.184-0.074-0.275C25.904,30.66,23.615,29.054,21.434,27.316z M37.269,59.788l-0.027-0.027
	c-0.217-0.563-0.407-1.139-0.656-1.688c-2.359-5.205-4.75-10.396-7.084-15.612c-0.905-2.023-0.856-2.065-2.894-1.062
	c-3.614,1.78-7.218,3.583-10.826,5.376l-0.04,0.04c-0.42,0.942,0.221,1.699,0.543,2.442c1.822,4.203,3.74,8.364,5.603,12.549
	c0.947,2.129,1.962,4.218,2.994,6.306c0.808,1.635,0.766,1.841,2.403,0.865c3.411-2.033,6.786-4.127,10.179-6.187
	c0.533-0.324,0.739-0.688,0.48-1.33C37.719,60.903,37.655,60.282,37.269,59.788z M31.998,71.516
	c0.606-0.307,1.222-0.602,1.612-1.199l-0.005,0.004c1.992-1.059,3.877-2.283,5.674-3.646l0.01-0.013
	c1.003-0.596,2.091-1.071,2.84-2.024l-0.008,0.007c0.607-0.106,1.141-0.36,1.589-0.786l0.067-0.069
	c0.127-0.259,0.254-0.517,0.381-0.774l-0.008,0.008c1.323-0.025,2.236-0.873,3.21-1.6l0.065-0.066
	c0.533-0.394,1.066-0.787,1.599-1.182L49.02,60.18c2.129-1.538,4.564-2.631,6.488-4.467c0.137-0.134,0.272-0.269,0.409-0.404
	c2.619-0.993,4.654-2.89,6.898-4.463l-0.004,0.003c0.707-0.697,1.787-0.833,2.432-1.623l0.005-0.005
	c2.697-1.752,5.395-3.504,8.092-5.256l0.033-0.034c0.579-0.431,1.79-0.702,0.387-1.621c-0.299-0.195-0.336-0.566-0.392-0.901
	c-0.282-1.717-1.337-3.067-2.143-4.538c-0.477-0.869-1.026-0.92-1.799-0.404c-2.74,1.831-5.493,3.642-8.242,5.46l0.007-0.008
	c-0.98,0.593-1.971,1.171-2.939,1.783c-4.905,3.101-9.796,6.226-14.712,9.308c-1.095,0.686-1.824,1.46-1.907,2.862
	c-0.103,1.747-0.48,3.476-0.647,5.221c-0.13,1.36-0.653,2.335-1.775,3.219c-0.953,0.75-1.935,1.402-2.982,1.966
	c-2.795,1.509-5.211,3.615-8.059,5.045c-0.9,0.453-1.716,1.104-1.869,2.242l0.007-0.008c-3.422-1.098-7.044-1.059-10.526-1.836
	c-1.236-0.277-2.559-0.418-3.74,0.332c-1.193,0.758-2.496,1.35-3.562,2.303l-0.039,0.039c-0.676,0.42-1.398,0.781-2.019,1.271
	c-0.926,0.734-2.72,1.291-2.613,2.182c0.136,1.132,1.995,0.826,3.048,1.3c0.119,0.054,0.257,0.065,0.386,0.097l-0.008-0.008
	c0.005,0.664,0.04,1.329,0.007,1.99c-0.047,0.971,0.31,1.675,1.213,2.074c0.272,0.222,0.542,0.258,0.811-0.006
	c0.587,0.35,1.069,0.814,1.484,1.354c0.314,0.405,0.758,0.749,1.195,0.371c0.85-0.734,2.111-0.97,2.6-2.134l-0.007,0.009
	c0.816-0.168,1.529-0.508,2.021-1.215l0.015-0.016c2.434-1.271,4.579-2.99,6.891-4.452c0.134-0.136,0.269-0.272,0.403-0.409
	c1.378-0.559,2.458-1.563,3.638-2.42l0.024-0.025c1.494-0.911,3.106-1.637,4.433-2.811L31.998,71.516z M103.713,43.096
	c1.389-0.16,2.717,0.253,3.923-0.354c4.704-2.363,9.392-4.757,14.085-7.14c0.232-0.119,0.579-0.185,0.588-0.479
	c0.012-0.349-0.352-0.354-0.605-0.404c-4.436-0.89-8.857-1.857-13.314-2.621c-1.77-0.304-3.594-0.275-5.434-0.045
	c-4.549,0.57-9.117,1.061-13.692,1.339c-4.909,0.298-9.749,1.258-14.676,1.365c-1.402,0.031-1.615,0.579-0.993,1.847
	c0.656,1.333,1.754,2.427,2.205,3.863c0.524,1.668,1.566,2.272,3.322,2.281C87.359,42.79,95.604,42.43,103.713,43.096z"/>
</svg>
