<?xml version="1.0" encoding="utf-8"?>
<!-- Generator: Adobe Illustrator 16.0.4, SVG Export Plug-In . SVG Version: 6.00 Build 0)  -->
<!DOCTYPE svg PUBLIC "-//W3C//DTD SVG 1.1//EN" "http://www.w3.org/Graphics/SVG/1.1/DTD/svg11.dtd">
<svg version="1.1" id="Layer_2609" xmlns="http://www.w3.org/2000/svg" xmlns:xlink="http://www.w3.org/1999/xlink" x="0px" y="0px"
	 width="128px" height="128px" viewBox="0 0 128 128" enable-background="new 0 0 128 128" xml:space="preserve">
<path fill-rule="evenodd" clip-rule="evenodd" d="M100.758,127.923c-13.739,0-27.584,0.197-41.412-0.187
	c-2.418-0.068-5.642-2.007-7.015-4.067c-12.783-19.178-25.195-38.604-37.844-57.871c-2.057-3.134-1.811-5.58,0.345-8.481
	C28.042,39.534,41.035,21.586,54.443,3.954c1.579-2.078,5.212-3.522,7.955-3.626c11.176-0.426,22.377-0.104,33.566-0.299
	c3.98-0.069,6.162,1.443,7.406,5.214c3.646,11.046,7.888,21.914,11.03,33.093c0.836,2.973-0.588,7.373-2.417,10.175
	c-10.955,16.778-11.539,9.753-0.375,26.535c3.628,5.456,4.312,10.009,1.911,16.077c-3.531,8.927-6.026,18.259-9.049,27.389
	C103.571,121.225,102.379,123.843,100.758,127.923z M110.778,89.116c-8.023,6.829-16.045,13.66-24.819,21.129
	c5.05,4.604,9.169,8.359,14.69,13.392c3.682-12.624,6.882-23.596,10.081-34.568l0.198-0.164L110.778,89.116z M16.708,63.611
	l0.069-0.069c8.105,12.813,16.171,25.65,24.328,38.43c4.772,7.476,9.688,14.859,14.815,22.707
	c9.101-5.021,17.609-9.716,26.843-14.809c-9.258-14.103-17.982-27.551-26.958-40.83c-0.93-1.377-3.298-2.31-5.095-2.489
	C39.392,65.42,28.046,64.56,16.708,63.611z M57.609,3.436c-14.03,19.021-27.644,37.48-42.142,57.138
	c13.288,1.161,24.583,2.227,35.894,3.048c1.56,0.112,3.868-0.485,4.712-1.601c8.717-11.51,17.202-23.195,24.544-33.188
	C72.646,20.032,65.377,12.009,57.609,3.436z M57.29,66.788c9.605,14.574,18.33,27.811,27.47,41.68
	c10.09-9.248,19.088-17.493,28.442-26.066c-3.858-5.891-7.23-11.399-11.033-16.593c-0.966-1.32-3.351-2.406-4.997-2.294
	C84.494,64.371,71.837,65.55,57.29,66.788z M84.145,28.406c-8.507,11.533-16.691,22.627-24.877,33.721
	c0.398,0.546,0.797,1.093,1.196,1.641c12.62-1.055,25.244-2.082,37.858-3.218c1.012-0.091,2.278-0.684,2.878-1.464
	c3.757-4.889,7.357-9.898,11.642-15.726C102.927,38.193,93.947,33.513,84.145,28.406z M85.661,26.411
	c8.838,4.525,16.745,8.572,24.652,12.619c0.457-0.395,0.916-0.79,1.374-1.186c-3.625-10.683-7.253-21.367-11.497-33.876
	C94.857,12.205,90.6,18.783,85.661,26.411z M65.692,3.365c5.778,6.431,11.895,13.239,18.505,20.596
	c4.454-6.848,8.732-13.427,13.395-20.596C85.547,3.365,74.824,3.365,65.692,3.365z M95.296,124.781
	c0.276-0.51,0.552-1.018,0.827-1.526c-3.966-3.702-7.933-7.402-12.104-11.296c-7.408,4.189-14.204,8.033-21.002,11.877
	c0.162,0.315,0.321,0.63,0.483,0.945C74.099,124.781,84.697,124.781,95.296,124.781z"/>
</svg>
