<?xml version="1.0" encoding="utf-8"?>
<!-- Generator: Adobe Illustrator 16.0.4, SVG Export Plug-In . SVG Version: 6.00 Build 0)  -->
<!DOCTYPE svg PUBLIC "-//W3C//DTD SVG 1.1//EN" "http://www.w3.org/Graphics/SVG/1.1/DTD/svg11.dtd">
<svg version="1.1" id="Layer_2610" xmlns="http://www.w3.org/2000/svg" xmlns:xlink="http://www.w3.org/1999/xlink" x="0px" y="0px"
	 width="128px" height="128px" viewBox="0 0 128 128" enable-background="new 0 0 128 128" xml:space="preserve">
<path fill-rule="evenodd" clip-rule="evenodd" d="M58.989,18.936c-0.002-3.543-2.303-5.947-5.831-6.023
	c-14.604-0.317-28.73,1.815-42.014,8.244c-0.356,0.175-0.709,0.365-1.08,0.5c-0.463,0.17-1.062,0.702-1.41,0.243
	c-0.56-0.734,0.289-1.137,0.727-1.524C19.584,11.332,31.548,6.732,45.134,6.271c2.776-0.095,5.557-0.141,8.334-0.152
	c2.824-0.011,4.941-0.955,6.487-3.553c2.101-3.529,5.882-3.581,7.855-0.085c1.501,2.66,3.575,3.607,6.413,3.635
	c6.609,0.062,13.193,0.282,19.72,1.594c9.357,1.88,17.221,6.526,24.358,12.619c0.488,0.417,0.824,1.014,1.229,1.524
	c-0.827,0.637-1.517-0.035-2.142-0.343c-9.974-4.925-20.545-7.438-31.604-8.301c-3.974-0.309-7.927-0.251-11.885-0.264
	c-2.331-0.008-5.072,2.851-5.021,5.212c0.422,19.17,1.025,71.418,0.976,78.375c-0.037,5.369-0.061,10.745,0.464,16.117
	c0.306,3.113,0.262,6.281,0.134,9.413c-0.144,3.497-3.029,6.03-6.557,6.05c-3.484,0.018-6.275-2.458-6.382-6.079
	c-0.137-4.715-0.291-9.47,0.145-14.151C58.148,102.649,58.997,29.915,58.989,18.936z"/>
</svg>
