<?xml version="1.0" encoding="utf-8"?>
<!-- Generator: Adobe Illustrator 16.0.4, SVG Export Plug-In . SVG Version: 6.00 Build 0)  -->
<!DOCTYPE svg PUBLIC "-//W3C//DTD SVG 1.1//EN" "http://www.w3.org/Graphics/SVG/1.1/DTD/svg11.dtd">
<svg version="1.1" id="Layer_2620" xmlns="http://www.w3.org/2000/svg" xmlns:xlink="http://www.w3.org/1999/xlink" x="0px" y="0px"
	 width="128px" height="128px" viewBox="0 0 128 128" enable-background="new 0 0 128 128" xml:space="preserve">
<g id="f70yKR.tif_4_">
	<g>
		<path fill-rule="evenodd" clip-rule="evenodd" d="M33.236,71.461l1.981-6.707l-1.109-3.259l4.303-3.388l0.299-0.238l5.744-1.548
			l1.419-3.206l2.783-2.576l1.009-0.374l-1.639-1.822l1.91-6.296l2.503-1.769l4.779-0.542l0.229-2l1.733-3.197l4.699-3.604
			l1.768,0.325l1.217,1.571l3.781,7.271l-3.378,3.76l5.047,1.511l4.573-1.912l4.842,1.635l2.127,4.756l-0.436,1.659l0.299,1.207
			l5.288-2.586l0.76,0.068l4.515,0.794l1.139,5.683l0.776,3.596l-2.055,2.285l1.803,2.652l2.6-0.368l2.145,3.13l-0.402,2.237
			l3.982-0.345l4.48,3.092v3.255l1.488,4.42l3.599-0.988l2.78,1.442l0.255,4.879l4.497-0.504l4.137,0.832l1.89,2.848v1.853
			l-6.718,3.888l-2.941-1.943l-1.939-0.006l-3.602,1.98l-7.149-1.582l-0.155-4.965l1.346-2.722l-1.585-0.374l-2.538,0.94l0.91,2.144
			l-0.57,3.467l-2.711,2.223l-5.363-0.816l-0.14-2.805l-1.695-1.785l-2.062,4.206l-4.648,0.476l-1.904-0.712l0.059-3.022
			l-0.575-3.271l-0.159,3.376l-6.011,3.684l-2.731-0.774l-4.516-2.933l-6.17,2.897l-2.249-2.609v2.028l-2.194,1.781l-8.827,0.358
			l-3.905-4.852l1.861-2.645l-0.987-0.551l-1.413,4.595l-2.354,2.521l-4.267,0.502l-2.769-0.488l-4.592,0.143l-3.768-2.681
			l-2.459-1.071l-0.869-2.288l-3.251,5.361l-1.167,2.41l-2.602-0.653l-2.506-0.187l-2.429-2.49l-1.698-1.051l-0.803,3.173
			l-2.774,3.193L5.26,96.431L4.38,96.058l-3.777-4.988l0.357-2.371l7.453-2.495l3.021,0.918l0.271-0.252L9.89,83.885l4.138-3.566
			l4.724-1.961l2.889,1.408l1.526-2.828l-4.027-3.519l2.411-1.545l3.075-2.69l5.941-1.627l1.898,2.611L33.236,71.461L33.236,71.461z
			 M89.37,55.641l1.663-3.369l-1.832,0.096l0.172,0.282l-3.024,2.843l0.525,2.834l1.457-2.035l0.997-0.608l-0.179,0.871
			l-1.634,2.317l-0.1,0.483l0.943,0.227l1.444-1.541l1.187-0.866l-1.208,2.325l-0.349,1.192l1.404,0.985h2.377l1.579-2.299
			l-0.819-1.376l-0.677,0.46l-0.854,0.301l1.273-2.038l0.319-2.335l-1.472,1.612l-0.917,0.522l1.298-2.588l0.734-1.56l-1.069-0.055
			L89.37,55.641L89.37,55.641z M81.562,80.17l0.314-1.042l2.135-2.856l0.863-0.327l1.668-2.398l-0.812-0.745l-3.395,2.718
			l1.96-2.968l-4.303-0.599l-5.596,1.051v2.032l0.966,0.584l0.395,2.958l2.987-3.457l3.116-2.305l-2.366,2.765l-3.769,4.61
			l-0.288,1.776l1.729-1.662l2.191-1.805l-0.78,1.434l-2.381,2.462l-0.069,0.413l1.157,0.596l2.073-1.027l0.258,0.743l1.822-0.57
			l2.73-4.89l-1.479,1.96L81.562,80.17L81.562,80.17z M73.909,53.287l0.312-0.655l5.037-5.454l0.893-1.266l-1.969-0.676
			l-5.209,6.184l0.886,1.899l3.237,2.829l1.837-2.001l2.601-1.822l-2.236,2.72l2.491,0.519l1.185-1.791l-0.84-3.467l-0.836-3.776
			l-5.832,5.901L73.909,53.287L73.909,53.287z M61.917,74.237l-0.849,1.117l1.355,2.909l3.708-1.881l-2.349,2.021h2.555l3.993-3.29
			l1.552-0.192l-2.359,2.14h2.019l0.321-7.866l-4.455,0.209l-4.272,4.101l-0.562,0.081l0.444-1.192l3.193-3.306l-7.286,0.837v2.271
			l3.104-2.766l-2.504,3.877L61.917,74.237L61.917,74.237z M69.176,61.89l-0.465,0.878l-3.298,2.296l-0.905,0.945l4.287,1.767
			l1.635-1.94l2.521-1.352l-0.083-4.776l-3.65,2.14l4.033-3.058l1.137-0.984l-4.33-0.559l-1.334-1.424l-3.263,0.773l-3.161,1.29
			l-2.617,5.14l1.011,1.675l1.725-1.487l0.344,1.814l2.394-0.739l2.994-2.081L69.176,61.89L69.176,61.89z M47.606,72.652
			l3.486,1.444l1.519-0.046l3.29-2.839l0.859-2.177l-2.407,1.459l-0.269-0.394l3.354-2.87l1.594,0.903l-0.5-3.536l-3.062-1.438
			l-3.223-1.878l-6.62,4.208l0.257,2.079l3.021-2.67l2.996-1.812l-5.337,5.1L47.606,72.652L47.606,72.652z M59.587,78.062
			l-1.708-3.618l-6.611,1.196l-1.073,2.341l-2.383,3.911l-0.796,0.566l-0.323-0.247l2.903-5.698l-0.278-0.126l-1.512,2.847
			l-2.617,1.582l4.151,4.767l3.976-0.584l1.845,1.379l1.812-0.319l0.502-1.999l-2.192,1.331l2.54-3.605L59.587,78.062L59.587,78.062
			z M100.794,82.328l-0.364-0.37l1.552-1.536l1.012-0.844l4.192-6.031l-0.918,0.015l-2.468,2.335l-4.238,4.564l1.815-3.03
			l2.103-2.494l2.252-2.65l-1.298-0.368l-2.673,2.347l-2.173,2.104l-1.03,0.656l1.951-2.842l2.68-3.128l-4.327,2.041l1.897,11.381
			l5.021-1.046l-1.58,0.522l-0.226-0.38l4.491-4.415l-1.582-3.789l-2.521,3.391L100.794,82.328L100.794,82.328z M29.326,68.038
			l-5.722,5.634l-0.814,0.492l-0.2-0.237l1.07-1.624l-0.203-0.24l-3.118,1.963l0.678,1.221l3.199,0.433l0.189,0.506l1.186-0.29
			l-2.251,3.307l3.433,0.418l7.324-3.661l-1.247-3.08L30.589,69.9L29.326,68.038L29.326,68.038z M63.05,32.707l0.372,0.393
			l-1.896,1.293l-2.699,3.391l2.961,2.922l3.272-2.841l3.863-1.096l-5.806,4.396l2.913,1.883l3.982-4.321l-0.923-3.511l-4.706-2.971
			L63.05,32.707L63.05,32.707z M51.145,49.418l5.656-0.062l1.047-1.496v-1.916l1.531-3.021l-1.945-2.112l-5.288,1.305l-3.272,3.788
			l2.359,1.993L51.145,49.418L51.145,49.418z M42.685,56.776l-6.671,5.459l0.562,1.427l3.292,1.118l5.694-4.95L42.685,56.776
			L42.685,56.776z M93.748,75.857l0.676,2.321l-1.806,5.614h2.293l2.117-1.89l-0.396-2.534l-0.015-2.894L93.748,75.857
			L93.748,75.857z M45.272,70.097l0.009,1.345l0.214,0.929l-2.962,5.685l-1.791,0.965l2.646,1.349l3.543-2.62l2.296-2.856
			L45.272,70.097L45.272,70.097z M68.098,78.803l2.39,4.707l3.072-1.407l0.722-3.508l-0.876-2.169L68.098,78.803L68.098,78.803z
			 M75.401,69.451l-0.462-4.868l-4.043,3.266l2.139,0.233l0.521,1.755l0.396,1.809l2.511-0.854L75.401,69.451L75.401,69.451z
			 M67.681,54.6l2.176,0.308l1.508,1.316h2.363l-2.09-4.578l-3.348,1.419L67.681,54.6L67.681,54.6z M72.437,49.858l4.578-4.841
			l-1.746-0.545l-1.623,0.788L72.437,49.858L72.437,49.858z M35.755,74.305l-0.397,2.29l2.956,1.079v-2.962L35.755,74.305
			L35.755,74.305z"/>
	</g>
</g>
</svg>
