<?xml version="1.0" encoding="utf-8"?>
<!-- Generator: Adobe Illustrator 16.0.4, SVG Export Plug-In . SVG Version: 6.00 Build 0)  -->
<!DOCTYPE svg PUBLIC "-//W3C//DTD SVG 1.1//EN" "http://www.w3.org/Graphics/SVG/1.1/DTD/svg11.dtd">
<svg version="1.1" id="Layer_2701" xmlns="http://www.w3.org/2000/svg" xmlns:xlink="http://www.w3.org/1999/xlink" x="0px" y="0px"
	 width="128px" height="128px" viewBox="0 0 128 128" enable-background="new 0 0 128 128" xml:space="preserve">
<path d="M100.895,1.92C76.543,1.804,52.184,1.468,27.848,2.13C11.541,2.571,1.039,10.737,0.901,28.294
	C0.714,52.642,0.55,77.001,1.1,101.337c0.341,14.899,8.2,24.156,23.761,24.691c13.498,0.471,27.028,0.104,40.546,0.104
	c0-0.172,0-0.342,0-0.508c12.17,0,24.356-0.4,36.509,0.095c16.302,0.666,24.566-8.658,25-22.979
	c0.799-26.328,0.242-52.779-1.398-79.07C124.665,9.933,115.305,1.982,100.895,1.92z M85.578,11.277
	c0.686-0.079,1.337-0.106,1.958-0.083c4.354,0.146,7.165,2.703,7.562,7.859c-0.09,3.497-1.174,6.28-3.342,7.863
	c-0.794,0.58-1.756,0.977-2.843,1.209c-0.699,0.15-1.434,0.247-2.256,0.24c-4.909-0.044-9.587-2.34-9.931-8.019
	C76.379,14.688,80.473,11.849,85.578,11.277z M19.005,31.729c6.146-0.464,7.409,4.715,9.719,8.145
	c-0.743,5.948-3.684,9.525-8.96,9.984c-5.652,0.494-9.314-3.259-9.197-8.442C10.673,36.765,13.164,32.169,19.005,31.729z
	 M19.831,95.206c-6.841-0.079-9.264-4.85-8.826-10.501c0.36-4.604,2.644-9.086,8.729-8.64c6.469,0.483,8.923,4.636,9.322,10.396
	C27.886,91.59,25.463,95.27,19.831,95.206z M34.308,19.542c0.487-5.865,4.154-8.464,9.491-7.765
	c4.567,0.605,6.776,4.517,6.659,8.806c-0.144,5.163-2.622,8.948-8.401,8.944C36.309,28.448,33.855,25.095,34.308,19.542z
	 M41.476,53.842c0.708-0.09,1.375-0.122,2.008-0.102c4.402,0.146,6.916,2.95,7.594,7.829c-0.032,0.666-0.092,1.312-0.178,1.934
	c-0.041,0.298-0.116,0.569-0.17,0.856c-0.058,0.297-0.104,0.611-0.181,0.896c-0.759,2.793-2.386,4.815-5.555,5.388
	c-0.63,0.116-1.323,0.172-2.084,0.165c-5.719-0.055-8.517-3.245-8.591-8.888C34.252,57.071,36.992,54.414,41.476,53.842z
	 M44.05,115.948c-5.595,0.184-9.169-1.946-9.405-7.696c-0.229-5.659,3.044-8.434,8.391-8.625c4.626-0.167,7.333,2.67,8.071,6.972
	C52.07,112.141,49.284,115.189,44.05,115.948z M55.218,40.368c0.607-4.522,3.363-8.96,9.23-8.755
	c5.884,0.208,7.379,4.743,8.627,9.438c-1.073,5.113-4.022,8.792-9.388,8.427C58.618,49.135,54.505,45.697,55.218,40.368z
	 M65.027,95.091c-7.144,0.43-9.684-4.408-9.341-10.268c0.284-4.854,2.878-9.062,8.982-8.879c6.068,0.178,7.61,4.514,8.77,8.805
	C72.437,90.159,71.008,94.733,65.027,95.091z M86.495,115.312c-5.064-0.524-9.081-2.95-8.644-8.689
	c0.412-5.494,4.454-7.656,9.431-8.189c5.628,0.564,8.576,3.649,8.396,9.119C95.479,113.254,92.009,115.885,86.495,115.312z
	 M93.428,67.596C85.371,74.244,80.309,69.233,76,62.233c4.093-8.595,9.932-11.748,17.534-5.569
	C96.676,59.217,96.839,64.785,93.428,67.596z M107.517,31.55c6.209-0.143,10.223,2.892,10.469,9.302
	c0.247,6.423-5.923,5.985-8.896,8.307c-5.415-1.223-9.984-2.509-9.921-8.604C99.229,35.144,101.839,31.68,107.517,31.55z
	 M110.321,94.554c-6.491-0.029-10.006-3.359-10.579-9.5c-0.504-5.327,1.7-9.016,7.518-9.477c5.692-0.449,10.864,0.185,11.34,7.537
	C118.98,89.18,116.477,93.275,110.321,94.554z"/>
</svg>
