<?xml version="1.0" encoding="utf-8"?>
<!-- Generator: Adobe Illustrator 16.0.4, SVG Export Plug-In . SVG Version: 6.00 Build 0)  -->
<!DOCTYPE svg PUBLIC "-//W3C//DTD SVG 1.1//EN" "http://www.w3.org/Graphics/SVG/1.1/DTD/svg11.dtd">
<svg version="1.1" id="Layer_2703" xmlns="http://www.w3.org/2000/svg" xmlns:xlink="http://www.w3.org/1999/xlink" x="0px" y="0px"
	 width="128px" height="128px" viewBox="0 0 128 128" enable-background="new 0 0 128 128" xml:space="preserve">
<g>
	<g>
		<g>
			<path d="M117.173,65.746c-0.055-2.234-1.64-3.939-2.093-6.038c-0.779-0.591-0.859-1.658-1.483-2.297
				c-0.628-0.641-0.89-1.564-1.614-2.054c-0.772-0.525-1.232-1.305-1.879-1.921c-0.206-0.193-0.365-0.45-0.603-0.583
				c-2.209-1.246-4.226-2.832-6.57-3.832c-0.474-0.202-0.437-0.395-0.271-0.959c2.829,0.508,5.63-0.369,8.492-0.369
				c0.394-0.395,0.764-0.822,1.189-1.177c1.123-0.941,1.53-2.1,1.51-3.577c-0.069-5.022-0.094-10.046-0.004-15.068
				c0.073-4-0.745-7.96-0.44-11.964c-0.479-0.925-0.082-2.165-1.046-2.917c-4.324,0-8.649,0.005-12.975-0.009
				c-0.468-0.001-0.992,0.192-1.4-0.143c-0.688-0.564-1.626-0.45-2.162-0.2c-1.155,0.542-2.285,0.28-3.417,0.34
				c-2.037,0.106-4.041,0.685-6.105,0.441c-0.168-0.019-0.396,0.092-0.529,0.214c-0.43,0.396-1.025,0.31-1.371,0.152
				c-0.848-0.384-1.6-0.046-2.394,0.037c-0.204,0.023-0.416,0.004-0.625,0.004c-1.328,0-2.658-0.084-3.977,0.025
				c-1.197,0.099-2.362-0.192-3.631,0.298c-1.152,0.445-2.614,0.077-3.939,0.102c-0.904,0.016-1.212,0.318-1.221,1.226
				c-0.021,1.883,0.014,3.768-0.025,5.65c-0.008,0.321,0.309,0.801-0.259,1.03c-0.33-1.638-0.551-3.276-1-4.851
				c-1.08-3.797-3.046-7.092-5.792-9.956c-1.741-1.817-3.716-3.31-5.878-4.54c-0.947-0.542-2.067-0.786-2.912-1.548
				c-1.741-0.009-3.3-1.118-5.096-0.844c-0.338,0.05-0.835,0.145-1.014-0.03c-1.089-1.056-2.393,0.283-3.486-0.381
				c-0.667,0.359-1.382,0.55-2.127,0.407c-0.851-0.164-1.542,0.357-2.333,0.473c-1.729,0.256-3.414,0.865-4.939,1.681
				c-1.425,0.763-2.732,1.768-4.209,2.479c-0.354,0.172-0.733,0.483-0.896,0.829c-0.609,1.289-1.793,2.047-2.681,3.074
				c-0.307,0.358-0.689,0.624-0.918,1.081c-0.695,1.387-1.559,2.681-2.089,4.161c-1.069,2.979-2.001,5.974-2.113,9.181
				c-0.03,0.918,0.354,1.695,0.44,2.55c0.06,0.622,0.046,1.256,0,1.881c-0.049,0.633,0.731,1.025,0.433,1.713
				c-0.321,0.732,0.708,1.249,0.394,1.907c-0.488,1.019,0.8,0.608,0.908,1.294c0.267,1.694,1.683,2.898,2.215,4.513
				c2.555,3.039,3.609,4.55,7.751,6.956c1.023,0.594,1.898,1.395,3.165,1.484c0.261,0.017,0.286,0.409,0.065,0.81
				c-0.189,0-0.453-0.012-0.715,0.002c-3.776,0.208-7.575-0.409-11.345,0.38c-1.137,0.237-2.378,0.148-3.545,0.006
				c-1.266-0.152-2.355,0.673-3.599,0.452c-1.444-0.258-2.77,0.72-4.222,0.417c-0.849,0.685-2.388,0.175-2.799,1.663
				c0,2.047,0,4.14,0,6.232c0,2.093,0,4.187,0,6.28c0,2.021-0.051,4.047,0.015,6.068c0.068,2.018-0.318,4.059,0.277,6.051
				c-0.704,2.025-0.036,4.112-0.327,6.049c1.151,1.613,2.696,2.091,4.492,1.991c0.487-0.025,1.091-0.186,1.444,0.034
				c0.836,0.525,1.716,0.438,2.567,0.35c0.876-0.091,1.707,0.508,2.591,0.044c0.644-0.339,1.123,0.31,1.698,0.439
				c0.768,0.176,1.213-0.656,1.927-0.448c0.122,0.035,0.262,0.081,0.343,0.17c0.39,0.43,0.68,0.241,1.024-0.085
				c0.218-0.203,0.504-0.121,0.587-0.01c0.286,0.602-0.087,0.829-0.35,0.989c-1.569,0.949-2.942,2.122-4.252,3.397
				c-0.645,0.627-0.869,1.516-1.592,2.085c-0.792,0.619-1.144,1.594-1.675,2.429c-1.607,2.528-2.422,5.317-2.871,8.225
				c-0.104,0.663-0.557,1.165-0.486,1.918c0.253,2.653-0.212,5.321,0.405,7.995c0.589,2.549,1.002,5.121,2.485,7.35
				c0.724,1.088,1.156,2.346,2.054,3.343c0.628,0.696,1.606,1.12,1.792,2.181c0.731,0.131,1.054,0.727,1.47,1.221l-0.023-0.329
				c1.715,1.15,4.493,2.471,6.267,3.252c2.132,0.938,4.321,1.475,6.663,1.401c2.506-0.078,5.058-0.443,7.512-0.935
				c1.174-0.237,2.332-0.537,3.487-0.848c0.907-0.242,1.815-0.491,2.634-0.967c0.891-0.52,1.685-1.169,2.588-1.676
				c0.267-0.148,0.505-0.305,0.723-0.469c-0.119,0.12-0.239,0.24-0.359,0.362c0.228-0.133,0.438-0.271,0.634-0.417
				c0.341-0.345,0.688-0.686,1.03-1.028c0.077-0.103,0.154-0.212,0.228-0.323c0.072,0.107,0.141,0.215,0.216,0.321
				c0.869-0.895,1.708-1.812,2.444-2.825c0.793-1.088,2.527-4.192,3.007-5.668c0.427-1.32,0.549-2.736,0.939-4.016
				c0.364-1.193,0.185-2.29,0.287-3.42c0.106-1.176,0.242-2.428-0.05-3.537c-0.209-0.797-0.452-1.577-0.312-2.349
				c0.161-0.883-0.523-1.527-0.452-2.344c0.112-1.311-0.452-2.445-0.964-3.576c-0.613-1.354-1.365-2.645-1.951-4.007
				c-0.609-1.425-1.66-2.537-2.562-3.738c-0.716-0.951-1.472-1.945-2.696-2.436c-1.32-0.53-2.507-1.355-3.77-2.014
				c-0.408-0.212-0.766-0.341-1.015-0.733c0.499-0.213,0.939-0.582,1.325-0.532c1.122,0.146,2.141-0.349,3.16-0.552
				c1.139-0.229,2.578-0.134,3.4-1.37c0-9.771,0-19.587,0-29.306c-0.802-0.819-1.534-1.565-2.334-2.382c-1.105,0-2.271,0-3.496,0
				c0.051-0.276,0.065-0.617,0.12-0.625c0.534-0.062,0.93-0.437,1.441-0.592c1.978-0.594,3.987-1.18,5.664-2.474
				c1.429-1.102,3.176-1.884,4.232-3.35c1.041-1.45,2.318-2.698,3.208-4.3c1.086-1.961,2.688-5.583,2.923-8.419
				c0.044-0.529,0.247-0.841,0.849-1.073c0,2.059,0.078,4.069-0.021,6.069c-0.097,2.064,0.612,4.032,0.475,6.107
				c-0.149,2.288-0.034,4.593-0.034,6.853c0.333,0.333,0.643,0.617,0.924,0.927c0.874,0.967,2.353,0.844,3.233,1.795
				c1.722-0.292,3.36,0.416,5.057,0.418c2.492,0.001,4.984,0,7.659,0c-0.272,0.315-0.371,0.553-0.513,0.577
				c-1.193,0.21-2.044,1.1-3.118,1.572c-1.187,0.524-2.276,1.33-3.255,2.271c-1.619,1.564-3.147,3.206-4.251,5.159
				c-1.502,2.657-2.858,5.368-3.287,8.487c-0.155,1.131-0.055,2.348-0.408,3.375c-0.88,2.524-0.326,4.975,0.251,7.345
				c0.481,1.993,1.48,3.856,2.841,5.523c0.92,1.131,1.958,2.203,2.688,3.476c0.619,1.078,1.43,1.841,2.47,2.539
				c0.757,0.508,1.801,0.839,2.212,1.808c-0.745,0.794-1.62,0.925-2.591,1.029c-1.198,0.128-2.219-0.57-3.39-0.472
				c-0.9,0.077-1.822,0.1-2.717-0.007c-0.92-0.109-1.637,0.521-2.552,0.474c-1.307-0.071-2.5,0.351-3.416,1.547
				c0.485,2.805-0.427,5.634-0.368,8.522c0.076,3.626,0.084,7.256-0.009,10.88c-0.036,1.444,0.304,2.925-0.028,4.356
				c-0.07,0.3-0.166,0.595-0.304,0.888c0.753,1.363,0.304,2.833,0.324,4.245c0.018,1.202,0.422,2.262,0.798,3.356
				c-0.062,0.01-0.132,0.019-0.197,0.029c0.894,0.326,1.8,0.61,2.733,0.823c0.456,0.104,0.912,0.193,1.371,0.276
				c1.387,0.25,2.791,0.413,4.19,0.555c3.89,0.394,7.798,0.342,11.701,0.527c3.716,0.179,7.431,0.404,11.15,0.114
				c1.931-0.15,3.852-0.416,5.772-0.675c1.754-0.234,3.807-0.326,5.383-1.206c1.605-0.893,1.826-2.767,2.17-4.401
				c0.4-1.935-0.065-5.132-0.248-5.135c-0.003-0.051-0.003-0.103-0.003-0.152c0.021-6.767,0.014-13.534,0.014-20.302
				c0-0.487,0.201-1.188-0.041-1.421c-0.599-0.572,0.176-0.927-0.003-1.513c-0.977-0.086-1.896-0.752-3.02-0.513
				c-0.569,0.122-0.835-0.263-1.088-0.724c2.957-1.856,5.405-4.263,7.547-7.014c0.299-0.383,0.291-0.87,0.694-1.202
				c0.432-0.355-0.36-0.673-0.202-0.978c0.144-0.275,0.893-0.033,0.717-0.715c0.698-0.281,0.199-1.039,0.566-1.44
				c1.087-1.185,0.868-2.844,1.527-4.182C117.785,72.767,118.632,69.166,117.173,65.746z M24.212,19.883
				c-0.003,0.058-0.199,0.173-0.255,0.146c-0.239-0.108-0.147-0.349-0.135-0.534c0.004-0.062,0.166-0.114,0.249-0.164
				C24.316,19.472,24.226,19.697,24.212,19.883z M33.648,13.404c0.304,0.283,0.304,0.563,0,0.847
				C33.344,13.967,33.344,13.687,33.648,13.404z M34.128,17.535c-0.089-0.049-0.181-0.099-0.271-0.15
				c0.048-0.045,0.103-0.138,0.138-0.131c0.1,0.023,0.188,0.086,0.281,0.131C34.229,17.432,34.183,17.479,34.128,17.535z
				 M27.821,117.543c-0.048-0.098-0.111-0.191-0.136-0.294c-0.008-0.034,0.088-0.094,0.136-0.143
				c0.053,0.096,0.105,0.189,0.155,0.281C27.919,117.445,27.868,117.495,27.821,117.543z M54.858,121.525
				c0.028,0.041,0.055,0.08,0.081,0.12c-0.164,0.167-0.328,0.333-0.494,0.499C54.589,121.956,54.727,121.749,54.858,121.525z
				 M50.695,115.181c0,0-0.013-0.022-0.021-0.035c-0.152-0.254-0.319-0.609-0.51-0.953
				C50.365,114.523,50.537,114.884,50.695,115.181z M41.175,106.78c-1.303,1.391-3.032,1.551-4.654,1.11
				c-1.35-0.369-2.495-1.237-3.142-2.746c-0.48-1.123-0.275-1.925,0.404-2.663c1.628-1.774,3.727-2.327,6.055-1.959
				c0.474,0.075,0.928,0.479,1.325,0.808c0.481,0.397,0.895,0.875,1.458,1.438C42.849,104.379,42.224,105.66,41.175,106.78z
				 M49.195,25.124c-0.152,0.146-0.211,0.283-0.278,0.479c-0.493,1.371-2.849,2.436-4.152,1.838
				c-1.252-0.576-2.256-1.351-3.14-2.553c-0.945-1.285-0.417-2.502-0.649-3.723c0.769-0.585,0.958-1.625,1.757-2.2
				c0.766-0.55,1.613-0.591,2.388-0.526c1.936-0.121,3.128,0.746,3.902,2.364c0.308,0.647,0.677,1.216,0.787,1.981
				C49.946,23.756,49.918,24.422,49.195,25.124z M49.904,5.793c-0.035,0.007-0.093-0.085-0.137-0.13
				c0.093-0.05,0.182-0.1,0.271-0.149c0.055,0.055,0.101,0.102,0.146,0.149C50.093,5.708,50.004,5.772,49.904,5.793z
				 M101.198,71.815c-0.448,0.592-0.505,1.36-0.999,1.895c-1.015,1.093-2.289,1.799-3.731,2.052
				c-1.19,0.209-2.373-0.284-3.508-0.579c-2.097-0.542-3.074-2.284-3.777-4.168c-0.135-0.356-0.059-0.729,0.164-1.141
				c0.716-1.341,2.297-2.851,3.669-3.188c0.59-0.146,1.223-0.104,1.836-0.143c2.995-0.134,4.812,1.618,6.291,3.903
				C101.417,70.87,101.425,71.51,101.198,71.815z M112.374,76.195c-0.057-0.004-0.171-0.2-0.146-0.256
				c0.106-0.24,0.35-0.146,0.533-0.135c0.063,0.006,0.114,0.166,0.166,0.249C112.786,76.298,112.563,76.207,112.374,76.195z"/>
		</g>
	</g>
</g>
</svg>
