<?xml version="1.0" encoding="utf-8"?>
<!-- Generator: Adobe Illustrator 16.0.4, SVG Export Plug-In . SVG Version: 6.00 Build 0)  -->
<!DOCTYPE svg PUBLIC "-//W3C//DTD SVG 1.1//EN" "http://www.w3.org/Graphics/SVG/1.1/DTD/svg11.dtd">
<svg version="1.1" id="Layer_2704" xmlns="http://www.w3.org/2000/svg" xmlns:xlink="http://www.w3.org/1999/xlink" x="0px" y="0px"
	 width="128px" height="128px" viewBox="0 0 128 128" enable-background="new 0 0 128 128" xml:space="preserve">
<g>
	<path d="M65.65,106.96c-9.545,0.049-18.15,0.309-21.15,0.742c0,0.021,0,0.042,0,0.062C47.5,107.329,56.107,107.038,65.65,106.96z"
		/>
	<path d="M36.746,124.078c-0.006,0.006-0.011,0.011-0.017,0.017C36.735,124.089,36.74,124.084,36.746,124.078L36.746,124.078z"/>
	<path d="M118.977,124.5H98.564c-0.08,0-0.159,0-0.239,0c2.768,2,6.031,2.693,9.555,2.834c10.76,0.43,19.508-7.607,19.814-18.078
		c0.266-8.996-6.061-16.645-14.557-18.471C128.963,97.506,130.979,113.5,118.977,124.5z"/>
	<path d="M17.689,92.1c-6.226,3.004-10.374,9.141-10.409,16.606c-0.027,6.104,3.074,11.578,7.842,14.947
		C4.82,110.12,5.464,102.499,17.689,92.1z"/>
	<path d="M25.358,127.536c4.233,0.169,8.143-1.036,11.362-3.036H15.804C18.572,126.5,21.835,127.396,25.358,127.536z"/>
	<path d="M36.746,124.078L36.746,124.078c5.94-6.099,6.687-8.096,7.709-16.231c0.094-0.027,0.045-0.055,0.045-0.082
		c0-0.021,0-0.041,0-0.062c0,0.027,0.049,0.054-0.044,0.082C43.433,115.92,42.686,117.979,36.746,124.078z"/>
	<path d="M89.97,107.768c-0.03-0.004-0.072-0.109-0.104-0.113c-0.023,0.383-0.062,0.914-0.064,1.305
		c-0.029,6.386,3.377,12.541,8.523,15.541c0.08,0,0.159,0,0.239,0C92.421,119.5,90.37,114.088,89.97,107.768z"/>
	<path d="M36.746,124.078c4.949-3.187,8.242-8.583,8.428-14.923c0.014-0.469-0.008-0.93-0.029-1.391
		c-0.146,0.027-0.274,0.055-0.367,0.082C43.754,115.982,42.686,117.979,36.746,124.078z"/>
	<path d="M15.456,124.095h0.348c-0.228-0.146-0.461-0.285-0.681-0.441C15.235,123.802,15.341,123.946,15.456,124.095z"/>
	<path d="M118.619,52.864c3.197-0.167,5.881-0.315,8.881-0.467c0-5.201,0-9.896,0-13.896c-42,0-84.543,0-127.188,0
		c0,2-0.039,5.247,0.011,7.566C0.372,48.331,0.511,50.5,0.632,53.5c14.813,0,29.083,0,43.584,0c-0.157,1-0.253,1.896-0.363,2.856
		c-10.75,1.294-21.213,2.382-32.169,3.702c2.258,11.021,4.402,21.403,6.511,31.699c-0.173,0.146-0.336,0.243-0.506,0.387
		c2.974-1.435,6.415-2.186,10.121-1.987c9.389,0.505,16.873,8.23,17.333,17.557c2.388-0.434,11.606-0.7,21.15-0.748
		c10.021-0.083,20.384,0.065,23.576,0.526c0.686-10.402,9.426-17.947,20.461-17.355c0.96,0.051,1.893,0.198,2.807,0.396
		c-0.403-0.172-0.949-0.342-1.371-0.502C114.015,77.747,116.324,65.397,118.619,52.864z"/>
	<path d="M36.72,124.095h0.009c0.006-0.006,0.011-0.011,0.017-0.017C36.737,124.083,36.729,124.089,36.72,124.095z"/>
	<path d="M89.87,107.49c0.029,0.005,0.07,0.211,0.1,0.215c0.4,6.32,2.451,11.795,8.595,16.795h20.412
		c12.003-11,9.986-27.045-5.839-33.766c-0.914-0.197-1.847-0.447-2.807-0.498C99.296,89.645,90.556,97.087,89.87,107.49z
		 M115.309,108.531c0.065,3.688-3.002,6.716-6.796,6.707c-3.615-0.009-6.537-2.749-6.719-6.303c-0.189-3.685,2.779-6.817,6.547-6.91
		C112.173,101.933,115.243,104.798,115.309,108.531z"/>
	<path d="M44.777,107.784c0.093-0.028,0.22-0.055,0.366-0.082c-0.46-9.326-7.945-17.062-17.333-17.567
		c-3.706-0.198-7.147,0.53-10.121,1.965c-12.225,10.399-12.869,18.223-2.567,31.756c0.22,0.156,0.453,0.645,0.681,0.645H36.72
		c0.009,0,0.017-0.215,0.025-0.219C42.686,118.182,43.754,115.92,44.777,107.784z M25.92,115.228
		c-3.593-0.145-6.464-3.07-6.449-6.574c0.019-3.934,3.234-6.844,7.323-6.624c3.522,0.189,6.299,3.229,6.194,6.785
		C32.878,112.55,29.758,115.38,25.92,115.228z"/>
	<path d="M89.866,107.553c0.002-0.021,0.002-0.042,0.004-0.062c-3.192-0.461-13.556-0.612-23.576-0.53
		C76.312,106.909,86.671,107.091,89.866,107.553z"/>
	<path d="M89.97,107.565c0.4,6.32,2.451,11.436,8.595,16.529c-6.144-5.094-8.194-10.271-8.595-16.592
		c-0.029-0.004-0.07-0.008-0.1-0.013c-0.002,0.021-0.002,0.042-0.004,0.062C89.897,107.558,89.939,107.562,89.97,107.565z"/>
	<path d="M17.26,32.83c14.282,0.005,28.565-0.018,42.848-0.029c14.579-0.013,29.157-0.016,43.735-0.039
		c2.796-0.004,5.591-0.113,8.387-0.124c1.994-0.006,3.382-0.602,3.12-3.756c-3.846-2.755-7.85-5.803-12.85-9.22
		c0-1.986,0-4.594,0-7.506c-3-0.557-4.752-1.056-7.027-1.565c-0.689-1.643-1.356-3.2-2.109-4.995
		c-3.372-1.259-6.837-2.551-10.148-3.788c-2.382,2.333-4.479,4.384-6.763,6.62c-3.626-0.252-7.32-0.51-10.953-0.764
		c-0.752-1.708-1.357-3.082-1.969-4.473c-5.369-0.967-10.532-1.897-16.068-2.895C46.8,3.375,46.208,6.069,45.644,8.77
		c-0.597,2.858-1.166,5.723-1.769,8.694c-7.461-0.599-14.509-1.933-21.678-0.903c-0.506,2.703-0.96,5.127-1.427,7.622
		c-3.107,1.202-6.11,2.363-9.413,3.64c0.306,1.677,0.567,3.108,0.867,4.75C14.194,32.677,15.727,32.829,17.26,32.83z"/>
</g>
</svg>
