<?xml version="1.0" encoding="utf-8"?>
<!-- Generator: Adobe Illustrator 16.0.4, SVG Export Plug-In . SVG Version: 6.00 Build 0)  -->
<!DOCTYPE svg PUBLIC "-//W3C//DTD SVG 1.1//EN" "http://www.w3.org/Graphics/SVG/1.1/DTD/svg11.dtd">
<svg version="1.1" id="Layer_2705" xmlns="http://www.w3.org/2000/svg" xmlns:xlink="http://www.w3.org/1999/xlink" x="0px" y="0px"
	 width="128px" height="128px" viewBox="0 0 128 128" enable-background="new 0 0 128 128" xml:space="preserve">
<g id="_x37_kogJK.tif">
	<g>
		<path d="M23.711-0.02c12.585,0,25.17,0,37.755,0c5.854,2.199,8.229,6.435,8.123,12.652c-0.201,11.83-0.057,23.666-0.054,35.5
			c0.001,0.959,0.048,1.918,0.032,2.877c-0.023,1.484,0.689,2.091,2.16,2.051c2.023-0.055,4.051-0.007,6.076-0.002
			c8.946,0.018,13.118,4.17,13.125,13.107c0.01,15.032,0.002,30.063,0.004,45.096c0.001,1.065-0.044,2.138,0.055,3.196
			c0.354,3.801,3.899,6.682,7.551,6.182c3.858-0.527,6.541-3.879,6.034-7.671c-1.084-8.125-2.231-16.241-3.335-24.364
			c-1.119-8.23-2.317-16.447-1.95-24.808c0.191-4.363,0.044-8.741,0.031-13.112c-0.019-6.342,0.265-5.061-5.043-5.176
			c-5.306-0.116-8.065-2.792-8.139-8.11c-0.067-4.903-0.052-9.809-0.001-14.712c0.016-1.579-0.389-2.834-1.509-4.025
			c-1.896-2.016-3.507-4.302-5.424-6.295c-1.638-1.703-0.388-2.576,0.683-3.627c1.052-1.035,1.81-2.214,3.627-0.71
			c6.753,5.591,13.016,11.669,18.746,18.289c3.257,3.763,4.776,8.149,4.713,13.216c-0.138,10.873-0.055,21.748-0.029,32.624
			c0.004,1.7,0.074,3.414,0.29,5.1c0.743,5.807,1.491,11.615,2.376,17.402c0.815,5.342,1.174,10.752,2.411,16.029
			c0,2.133,0,4.266,0,6.398c-1.821,5.432-5.457,9.049-10.879,10.879c-2.347,0-4.692,0-7.039,0c-0.251-0.178-0.477-0.418-0.755-0.525
			c-6.946-2.661-10.018-7.883-10.02-15.135c-0.004-14.93-0.003-29.859-0.006-44.787c0-1.066,0.037-2.137-0.037-3.199
			c-0.185-2.599-0.967-3.481-3.514-3.599c-2.659-0.123-5.33,0.003-7.994-0.051c-1.69-0.033-2.259,0.846-2.222,2.376
			c0.019,0.746-0.02,1.494-0.02,2.24c-0.001,19.621-0.003,39.242,0.004,58.863c0.001,1.275-0.112,2.562,0.245,3.816
			c-17.171,0-34.342-0.039-51.513,0.055c-1.91,0.01-2.296-0.386-2.293-2.295c0.07-39.354,0.053-78.71,0.053-118.065
			C17.391,3.899,20.112,1.5,23.711-0.02z M42.843,7.204c-4.798,0-9.595-0.018-14.393,0.005c-4.136,0.02-5.178,1.021-5.188,5.011
			c-0.02,7.889-0.022,15.779,0.001,23.668c0.011,3.696,1.073,4.823,4.715,4.837c9.809,0.041,19.617,0.04,29.426,0.001
			c3.572-0.015,4.606-1.062,4.617-4.527c0.025-8.103,0.022-16.205,0.002-24.308c-0.009-3.674-1.003-4.651-4.788-4.679
			C52.438,7.177,47.641,7.205,42.843,7.204z M42.248,85.73c-0.013-7.041-7.022-14.869-14.719-16.516
			c-4.439-0.95-4.629-0.76-3.691,3.679c1.576,7.458,8.69,14.071,15.788,14.688C41.078,87.708,42.555,87.9,42.248,85.73z
			 M61.971,70.41c0.236-1.633-0.667-1.792-2.111-1.58c-4.584,0.674-8.511,2.588-11.692,5.961c-2.256,2.394-4.148,4.886-2.303,8.459
			c0.367,0.71,0.333,1.658,0.37,2.502c0.056,1.259,0.506,1.582,1.814,1.328C54.732,85.784,61.837,77.402,61.971,70.41z
			 M47.326,68.566c-0.139-0.4-0.342-1.232-0.704-1.986c-1.001-2.084-1.886-5.214-4.028-5.245c-1.867-0.025-2.758,3.138-3.819,5.088
			c-1.163,2.139-1.124,3.915,1.025,5.502c1.082,0.8,1.825,2.789,2.791,2.837c1.35,0.066,1.954-1.958,3.004-2.973
			C46.39,71.023,47.598,70.436,47.326,68.566z M91.693,32.547c0,0.747,0,1.493,0,2.239c0.003,5.044,0.192,5.127,5.22,4.968
			c2.096-0.066,2.503-0.991,2.371-2.791c-0.2-2.743-1.75-4.766-3.442-6.691c-1.109-1.261-2.32-3.695-3.537-3.285
			c-1.401,0.472-0.384,2.99-0.605,4.6C91.656,31.902,91.693,32.227,91.693,32.547z"/>
	</g>
</g>
</svg>
