<?xml version="1.0" encoding="utf-8"?>
<!-- Generator: Adobe Illustrator 16.0.4, SVG Export Plug-In . SVG Version: 6.00 Build 0)  -->
<!DOCTYPE svg PUBLIC "-//W3C//DTD SVG 1.1//EN" "http://www.w3.org/Graphics/SVG/1.1/DTD/svg11.dtd">
<svg version="1.1" id="Layer_2707" xmlns="http://www.w3.org/2000/svg" xmlns:xlink="http://www.w3.org/1999/xlink" x="0px" y="0px"
	 width="128px" height="128px" viewBox="0 0 128 128" enable-background="new 0 0 128 128" xml:space="preserve">
<g>
	<g>
		<path fill-rule="evenodd" clip-rule="evenodd" d="M52.418,79.024c0.173-7.309,3.904-13.045,8.32-18.435
			c1.305-1.596,2.482-3.368,4.36-4.42c0.663,1.82,1.354,3.629,1.982,5.461c1.345,3.918,3.736,7.249,5.881,10.727
			c2.139,3.469,3.597,7.069,2.218,11.317c-2.002,6.167-6.514,9.133-12.971,8.298c-5.506-0.716-9.453-5.209-9.786-11.153
			C52.39,80.223,52.418,79.624,52.418,79.024z"/>
		<path fill-rule="evenodd" clip-rule="evenodd" d="M38.542,9.722c2.223-0.09,4.352,0.343,6.375,1.244
			c0.839,0.371,1.617,0.939,1.588,1.963c-0.027,1.002-0.778,1.604-1.629,1.955c-4.248,1.75-8.519,1.716-12.754-0.031
			c-0.828-0.343-1.617-0.954-1.598-1.972c0.019-1.007,0.789-1.559,1.643-1.927C34.199,10.073,36.32,9.623,38.542,9.722z"/>
	</g>
	<path fill-rule="evenodd" clip-rule="evenodd" d="M106.98,106.221c0.019-6.1,0.031-12.2-0.007-18.3
		c-0.008-1.356,0.31-2.439,1.19-3.554c2.081-2.636,2.161-5.292,0.152-7.977c-0.969-1.293-1.396-2.556-1.393-4.104
		c0.013-6.191,0.064-12.384-0.064-18.574c-0.039-1.893,0.174-3.505,1.457-4.979c1.687-1.933,2.177-4.35,0.585-6.333
		c-2.111-2.634-1.947-5.495-1.921-8.474c0.035-4.001,0.013-8.001,0-11.999c-0.004-1.212,0.153-2.234,1.058-3.272
		c3.029-3.474,2.444-7.61-1.275-10.356c-3.114-2.304-6.706-3.564-10.394-4.462C77.348-0.797,58.174-0.893,38.942,2.247
		C32.83,3.243,26.784,4.624,21.467,8.112c-2.392,1.564-3.331,3.652-3.327,6.561c0.004,2.689,2.165,3.928,3.095,5.947
		c0.005,0.011,0.011,0.021,0.016,0.031c0,0.001-0.001,0.003-0.001,0.005c-0.018-0.008-0.03-0.019-0.049-0.025
		c-0.729,5.266-0.202,10.567-0.294,15.851c-0.035,1.946-0.198,3.665-1.519,5.289c-1.507,1.851-1.865,4.316-0.377,6.145
		c2.075,2.551,1.86,5.331,1.863,8.198c0.004,5.5,0.007,11,0.032,16.5c0.007,1.325-0.253,2.458-1.086,3.61
		c-2.243,3.097-2.222,5.04,0.017,8.203c0.749,1.055,1.049,2.082,1.043,3.323c-0.021,6.199-0.02,12.399,0.009,18.598
		c0.004,1.14-0.237,2.052-0.993,3.002c-3.004,3.783-2.354,7.852,1.625,10.556c3.785,2.571,8.099,3.891,12.497,4.844
		c18.396,3.985,36.877,4.088,55.395,0.938c5.822-0.989,11.586-2.313,16.664-5.528c4.359-2.763,5.05-6.921,1.841-10.903
		C107.148,108.297,106.977,107.344,106.98,106.221z M25.61,25.444c0.001-0.003,0-0.006,0.002-0.009
		c0.002-0.004,0.005-0.008,0.007-0.012c-0.001,0.008-0.003,0.014-0.004,0.022C25.613,25.445,25.612,25.444,25.61,25.444z
		 M37.002,84.442c0.035,1.841-0.176,2.68-2.452,2.15c-8.45-1.955-8.469-1.872-8.469-10.446c0-6.577,0.051-13.154-0.029-19.732
		c-0.023-1.922,0.43-2.597,2.356-1.733c1.174,0.529,2.438,0.869,3.677,1.235c4.885,1.443,4.889,1.435,4.893,6.701
		c0.001,3.187,0,6.376,0,9.569C36.977,76.27,36.922,80.361,37.002,84.442z M38.033,116.994c-3.485-0.842-6.95-1.729-10.218-3.274
		c-1.247-0.595-1.764-1.379-1.751-2.767c0.05-6.488,0.062-12.975-0.001-19.459c-0.02-2.038,0.661-2.505,2.484-1.646
		c0.892,0.42,1.876,0.658,2.833,0.932c2.948,0.835,4.977,1.559,6.493,5.361c1.642,4.115,1.744,7.895,1.975,11.568
		c0,2.855-0.042,5.351,0.015,7.845C39.896,116.951,39.298,117.301,38.033,116.994z M39.83,44.683
		c-0.035,2.684-3.067,4.093-3.13,6.825c-0.002,0.054-0.163,0.155-0.244,0.152c-3.236-0.18-6.137-1.508-9.101-2.642
		c-1.689-0.647-1.248-2.09-1.255-3.311c-0.039-5.584-0.402-18.467-0.421-20.292c-0.006-0.019-0.014-0.035-0.022-0.051
		c0-0.001,0.002-0.002,0.002-0.004c0.017-0.045,0.022-0.096,0.021-0.144c0-0.02-0.007-0.041-0.008-0.062
		c0.355-2.198,1.517-2.459,3.679-1.648c2.688,1.007,5.533,1.66,8.358,2.203c1.59,0.304,2.193,0.895,2.171,2.519
		C39.807,33.711,39.903,39.197,39.83,44.683z M54.113,119.021c-8.146-0.436-6.562,0.281-6.605-6.585
		c-0.007-1.096-0.002-2.192-0.002-3.287c0.036,0.003,0.071,0.003,0.104,0.003c0-2.193,0.09-4.391-0.025-6.578
		c-0.104-1.96,0.748-2.312,2.52-2.143c5.758,0.545,5.802,0.486,5.931,6.282c0.079,3.484-0.016,6.974,0.037,10.46
		C56.093,118.605,55.528,119.098,54.113,119.021z M82.771,96.832c-6.459,0.705-12.95,0.685-19.435,0.668
		c-6.499-0.017-12.978-0.36-19.451-0.984c-2.63-0.254-3.609-1.312-3.55-3.979c0.144-6.595,0.046-13.191,0.046-19.789
		c-0.002-6.698-0.024-13.393,0.008-20.092c0.015-3.089,0.723-3.638,3.833-3.289c13.159,1.466,26.323,1.471,39.482,0.008
		c3.222-0.357,3.764,0.022,3.785,3.23c0.082,13.455,0.117,26.911,0.201,40.367C87.713,96.445,85.15,96.574,82.771,96.832z
		 M56.042,37.272c0.002,0,0.005,0,0.008,0c0,2.487,0.011,4.974-0.006,7.464c-0.005,0.987,0.121,2.167-1.396,2.09
		c-1.986-0.096-3.966-0.29-5.947-0.458c-1.145-0.098-1.075-0.988-1.078-1.772c-0.014-5.176-0.014-10.353-0.008-15.527
		c0-0.703-0.015-1.604,0.914-1.584c2.181,0.04,4.368,0.191,6.539,0.425c1.068,0.119,0.963,1.111,0.967,1.896
		C56.05,32.293,56.042,34.783,56.042,37.272z M101.828,100.96c0.006,0,0.009,0,0.014,0c0,3.283-0.028,6.569,0.014,9.855
		c0.017,1.294-0.199,2.31-1.574,2.863c-1.168,0.471-1.649,0.248-1.649-1.043c0.018-7.07,0.019-14.14,0-21.21
		c-0.002-1.499,1.105-1.859,2.169-1.961c1.565-0.149,0.975,1.227,0.993,1.936C101.874,94.585,101.828,97.772,101.828,100.96z
		 M102.064,76.78c-0.011,1.888-0.21,3.772-0.248,5.659c-0.026,1.5-1.159,1.858-2.199,1.979c-1.606,0.186-0.94-1.236-0.953-1.911
		c-0.079-4.282-0.04-8.566-0.04-12.849c0.002-4.178,0.086-8.358-0.036-12.53c-0.054-1.812,0.824-2.803,2.342-2.758
		c1.792,0.051,1.118,1.733,1.126,2.758C102.104,63.681,102.098,70.23,102.064,76.78z M101.828,45.78
		c-0.002,0.697,0.026,1.415-0.121,2.087c-0.224,1.058-1.172,1.356-2.055,1.418c-1.268,0.09-1.006-0.996-1.011-1.716
		c-0.035-3.798-0.018-7.599-0.018-11.4c0-3.401,0.057-6.802-0.025-10.201c-0.039-1.595,0.308-2.954,2.068-2.982
		c2.073-0.031,1.097,1.784,1.11,2.692C101.879,32.377,101.836,39.079,101.828,45.78z M102.825,14.628
		c-4.358,2.36-9.104,3.525-13.938,4.346c-18.217,3.106-36.391,3.013-54.478-0.981c-3.313-0.734-6.521-1.851-9.537-3.48
		c-2.093-1.134-2.125-2.132-0.011-3.229c5.66-2.946,11.816-4.22,18.028-5.233c7.118-1.162,14.305-1.48,20.379-1.407
		c12.467-0.017,23.684,0.88,34.547,4.4c1.7,0.549,3.335,1.323,4.959,2.085c0.784,0.369,1.848,0.697,1.874,1.736
		C104.676,13.931,103.588,14.214,102.825,14.628z"/>
</g>
</svg>
