<?xml version="1.0" encoding="utf-8"?>
<!-- Generator: Adobe Illustrator 16.0.4, SVG Export Plug-In . SVG Version: 6.00 Build 0)  -->
<!DOCTYPE svg PUBLIC "-//W3C//DTD SVG 1.1//EN" "http://www.w3.org/Graphics/SVG/1.1/DTD/svg11.dtd">
<svg version="1.1" id="Layer_2708" xmlns="http://www.w3.org/2000/svg" xmlns:xlink="http://www.w3.org/1999/xlink" x="0px" y="0px"
	 width="128px" height="128px" viewBox="0 0 128 128" enable-background="new 0 0 128 128" xml:space="preserve">
<g>
	<path d="M59.532,19.656C59.214,12.854,55.28,8.189,48.23,7.977C37.36,7.649,26.457,7.742,15.595,8.273
		C9.532,8.569,5.308,12.096,5.205,18.677C5.038,29.273,4.958,39.882,5.336,50.468c0.234,6.653,4.148,10.431,11.003,10.572
		c5.152,0.107,10.312,0.021,15.465,0.021c0,0.015,0,0.028,0,0.044c5.443,0,10.907,0.289,16.323-0.074
		c6.87-0.459,11.394-4.219,11.614-11.31C60.048,39.709,59.996,29.664,59.532,19.656z"/>
	<path d="M122.532,19.656c-0.318-6.802-4.252-11.467-11.302-11.679c-10.87-0.328-21.773-0.235-32.636,0.296
		c-6.062,0.296-10.287,3.823-10.39,10.404c-0.167,10.596-0.247,21.205,0.131,31.791c0.234,6.653,4.148,10.431,11.003,10.572
		c5.152,0.107,10.312,0.021,15.465,0.021c0,0.015,0,0.028,0,0.044c5.443,0,10.907,0.289,16.323-0.074
		c6.87-0.459,11.394-4.219,11.614-11.31C123.048,39.709,122.996,29.664,122.532,19.656z"/>
	<path d="M59.532,78.655c-0.318-6.802-4.252-11.467-11.302-11.679c-10.87-0.328-21.773-0.235-32.636,0.296
		c-6.062,0.296-10.287,3.823-10.39,10.404c-0.167,10.596-0.247,21.205,0.131,31.791c0.234,6.653,4.148,10.431,11.003,10.572
		c5.152,0.107,10.312,0.021,15.465,0.021c0,0.015,0,0.028,0,0.044c5.443,0,10.907,0.289,16.323-0.074
		c6.87-0.459,11.394-4.219,11.614-11.31C60.048,98.709,59.996,88.663,59.532,78.655z"/>
	<path d="M122.532,78.655c-0.318-6.802-4.252-11.467-11.302-11.679c-10.87-0.328-21.773-0.235-32.636,0.296
		c-6.062,0.296-10.287,3.823-10.39,10.404c-0.167,10.596-0.247,21.205,0.131,31.791c0.234,6.653,4.148,10.431,11.003,10.572
		c5.152,0.107,10.312,0.021,15.465,0.021c0,0.015,0,0.028,0,0.044c5.443,0,10.907,0.289,16.323-0.074
		c6.87-0.459,11.394-4.219,11.614-11.31C123.048,98.709,122.996,88.663,122.532,78.655z"/>
</g>
</svg>
