<?xml version="1.0" encoding="utf-8"?>
<!-- Generator: Adobe Illustrator 16.0.4, SVG Export Plug-In . SVG Version: 6.00 Build 0)  -->
<!DOCTYPE svg PUBLIC "-//W3C//DTD SVG 1.1//EN" "http://www.w3.org/Graphics/SVG/1.1/DTD/svg11.dtd">
<svg version="1.1" id="Layer_2709" xmlns="http://www.w3.org/2000/svg" xmlns:xlink="http://www.w3.org/1999/xlink" x="0px" y="0px"
	 width="128px" height="128px" viewBox="0 0 128 128" enable-background="new 0 0 128 128" xml:space="preserve">
<g id="KED5CM.tif">
	<g>
		<path fill-rule="evenodd" clip-rule="evenodd" d="M32.699,69.582c-0.507,0.093-1.035,0.124-1.515,0.293
			c-0.798,0.281-1.526,0.235-1.984-0.494c-0.467-0.742-1.024-0.772-1.708-0.468c-1.255,0.558-2.321,0.188-3.314-0.623
			c-1.329-1.086-2.695-2.13-3.982-3.262c-1.056-0.93-1.589-3.131-0.959-4.304c0.271-0.506,0.967-0.879,1.55-1.105
			c3.822-1.483,7.663-2.917,11.503-4.354c17.315-6.476,34.632-12.946,51.949-19.418c0.419-0.157,0.83-0.335,1.253-0.481
			c0.737-0.255,0.821-0.674,0.501-1.368c-0.939-2.029-1.834-4.081-2.719-6.134c-0.836-1.94-0.732-2.359,0.927-3.58
			c2.403-1.769,4.818-3.523,7.247-5.259c2.104-1.504,2.686-1.462,4.631,0.336c3.407,3.147,5.761,7.018,7.588,11.232
			c2.64,6.091,4.152,12.509,4.256,19.096c0.225,14.328,0.103,46.664,0.103,46.664h-1.283c0,0-0.058-4.141-0.058-4.738
			c-0.001-8.435,0-16.87,0-25.305c0-0.598-0.014-1.194-0.004-1.791c0.01-0.687-1.582-1.099-2.328-1.227
			c-1.32-0.228-2.616-0.636-3.943-0.782c-1.447-0.158-2.242-0.893-2.8-2.188c-1.915-4.451-3.898-8.874-5.868-13.302
			c-0.811-1.823-0.828-1.821-2.577-1.17c-4.47,1.664-8.94,3.33-13.408,5.001c-1.909,0.714-1.915,0.723-1.441,2.696
			c3.769,15.72,7.54,31.439,11.314,47.159c0.483,2.01,0.491,2.024,2.454,2.029c4.627,0.009,9.256,0.003,13.884,0.002
			c0.373-0.001,0.768,0.061,1.112-0.042c0.308-0.091,0.795-0.38,0.787-0.562c-0.018-0.361-0.238-0.817-0.524-1.039
			c-0.62-0.479-1.594-0.684-1.94-1.279c-0.366-0.631-0.18-1.586-0.22-2.399c-0.039-0.776,0.403-1.04,1.114-1.038
			c2.986,0.006,5.972,0.009,8.957-0.005c0.885-0.003,1.107,0.476,1.16,1.268c0.145,2.165-0.086,2.635-2.045,3.351
			c-0.533,0.193-0.996,0.316-0.953,0.998c0.061,0.942,0.799,0.731,1.34,0.736c2.985,0.023,5.972-0.005,8.957,0.025
			c0.735,0.008,1.502,0.064,2.197,0.278c1.359,0.419,2.309,1.362,2.773,2.712c0.338,0.984,0.609,1.996,0.852,3.009
			c0.282,1.181,0.236,1.221-1.047,1.287c-0.596,0.03-1.194,0.009-1.791,0.009c-39.264-0.011-78.528-0.021-117.791-0.031
			c-2.907-0.002-2.907-0.002-2.161-2.729c0.994-3.628,2.211-4.541,6.073-4.547c1.866-0.004,3.733-0.033,5.598,0.006
			c0.982,0.021,1.341-0.412,1.291-1.342c-0.032-0.596-0.038-1.198,0.016-1.791c0.175-1.953,1.184-2.949,3.146-3.121
			c0.519-0.045,1.044-0.023,1.567-0.02c0.65,0.004,1.311-0.146,1.259-0.893c-0.021-0.308-0.644-0.719-1.06-0.828
			c-2.45-0.642-4.918-1.208-7.381-1.797c-0.217-0.053-0.441-0.078-0.659-0.129c-2.571-0.61-3.089-0.975-1.075-3.506
			c0.735-0.924,1.691-1.677,2.57-2.48c1.895-1.729,3.979-2.584,6.522-1.41c0.463,0.213,1.068,0.138,1.511,0.376
			c2.286,1.228,4.295,0.028,6.357-0.669c0.228-0.076,0.478-0.378,0.537-0.619c1.236-4.982,2.445-9.971,3.66-14.957
			c0.031-0.054,0.062-0.107,0.092-0.162C32.745,69.458,32.722,69.52,32.699,69.582z M55.524,58.856
			c-0.333-0.028-0.628-0.139-0.856-0.059c-1.547,0.54-3.083,1.116-4.618,1.69c-3.142,1.174-6.287,2.338-9.415,3.547
			c-0.404,0.157-1.221,0.114-0.979,0.921c0.466,1.557-0.598,1.963-1.684,2.369c-0.766,0.285-1.468,0.486-1.72,1.502
			c-1.344,5.422-2.782,10.82-4.151,16.236c-0.092,0.365-0.015,0.9,0.203,1.192c1.797,2.407,1.928,2.474,5.029,3.221
			c1.014,0.243,2.029,0.483,3.053,0.678c1.266,0.241,2.213,0.913,2.749,2.068c0.718,1.551,1.368,3.134,2.035,4.709
			c0.215,0.507,0.396,1.03,0.592,1.546c0.205-0.534,0.472-1.053,0.604-1.604c2.967-12.311,5.919-24.624,8.875-36.936
			C55.311,59.65,55.392,59.364,55.524,58.856z M65.903,97.799c3.13,0,6.261,0.022,9.391-0.011c1.261-0.014,1.466-0.249,1.179-1.479
			c-0.812-3.477-1.727-6.93-2.525-10.408c-0.209-0.914-0.504-0.89-1.146-0.439c-5.489,3.85-10.987,7.688-16.473,11.543
			c-0.208,0.146-0.313,0.439-0.466,0.664c0.216,0.043,0.433,0.123,0.65,0.124C59.643,97.801,62.773,97.798,65.903,97.799z
			 M64.044,83.411c0-0.002,0-0.003,0-0.004c-1.717,0-3.435,0.004-5.151-0.002c-0.643-0.003-1.217,0.114-1.394,0.838
			c-0.742,3.039-1.471,6.084-2.194,9.127c-0.029,0.125,0.045,0.273,0.071,0.41c0.13-0.041,0.281-0.055,0.388-0.129
			c4.527-3.162,9.052-6.327,13.566-9.508c0.152-0.106,0.191-0.375,0.282-0.566c-0.214-0.056-0.427-0.157-0.642-0.158
			C67.329,83.405,65.686,83.411,64.044,83.411z M65.021,77.995c0,0.003,0,0.004,0,0.007c1.562,0,3.122,0.003,4.685-0.004
			c0.219-0.001,0.439-0.051,0.659-0.078c-0.093-0.179-0.14-0.42-0.284-0.526c-2.811-2.074-5.629-4.139-8.456-6.189
			c-0.581-0.422-0.936-0.221-1.1,0.473c-0.409,1.732-0.851,3.459-1.271,5.189c-0.174,0.717,0.024,1.145,0.859,1.135
			C61.749,77.982,63.385,77.995,65.021,77.995z M61.777,66.954c0.114,0.176,0.326,0.729,0.72,1.066
			c0.845,0.723,1.786,1.332,2.687,1.992c1.738,1.273,3.475,2.554,5.219,3.82c0.156,0.113,0.368,0.15,0.555,0.223
			c0.022-0.138,0.09-0.286,0.061-0.412c-0.597-2.529-1.19-5.058-1.82-7.578c-0.131-0.522-0.382-0.922-1.117-0.686
			c-1.664,0.535-3.38,0.531-5.059,0.102C61.983,65.216,61.894,65.805,61.777,66.954z M65.362,52.993
			c-2.021,0.012-3.52,1.526-3.504,3.539c0.015,1.955,1.627,3.55,3.568,3.53c1.956-0.02,3.517-1.621,3.501-3.595
			C68.914,54.457,67.398,52.98,65.362,52.993z M42.158,102.721c0,0.005,0,0.01,0,0.015c0.222,0,0.443,0.002,0.665,0
			c2.536-0.025,1.953,0.207,2.681-2.218c0.032-0.106-0.232-0.412-0.242-0.407c-1.353,0.719-2.551-0.15-3.789-0.397
			c-2.149-0.429-2.397-0.232-2.165,1.93c0.076,0.71,0.339,1.092,1.079,1.08C40.978,102.714,41.568,102.721,42.158,102.721z
			 M28.982,88.846c-1.161-0.01-1.993,0.759-2.055,1.899c-0.067,1.24,0.788,2.13,2.045,2.129c1.167,0,2.033-0.779,2.097-1.887
			C31.136,89.842,30.175,88.856,28.982,88.846z"/>
	</g>
</g>
</svg>
