<?xml version="1.0" encoding="utf-8"?>
<!-- Generator: Adobe Illustrator 16.0.4, SVG Export Plug-In . SVG Version: 6.00 Build 0)  -->
<!DOCTYPE svg PUBLIC "-//W3C//DTD SVG 1.1//EN" "http://www.w3.org/Graphics/SVG/1.1/DTD/svg11.dtd">
<svg version="1.1" id="Layer_2710" xmlns="http://www.w3.org/2000/svg" xmlns:xlink="http://www.w3.org/1999/xlink" x="0px" y="0px"
	 width="128px" height="128px" viewBox="0 0 128 128" enable-background="new 0 0 128 128" xml:space="preserve">
<g id="SCqOk3.tif">
	<g>
		<path fill-rule="evenodd" clip-rule="evenodd" d="M63.839,109.802c-20.315,0.002-40.63,0.002-60.946,0
			c-0.506,0-1.013-0.025-1.517,0.004c-1.152,0.07-1.478-0.449-1.246-1.539c0.739-3.457,1.458-6.918,2.143-10.387
			c0.278-1.406,1.326-1.32,2.338-1.324c3.709-0.014,7.419,0.014,11.127-0.021c2.198-0.02,2.207-0.061,2.246-2.303
			c0.021-1.18-0.02-2.361,0.009-3.541c0.032-1.316,0.108-2.588-1.773-2.664c-0.779-0.031-0.808-0.738-0.813-1.34
			c-0.012-1.518,0.019-3.035-0.02-4.551c-0.029-1.139,0.14-2.016,1.587-1.973c0.959,0.027,0.998-0.725,1-1.418
			c0.007-3.709-0.002-7.42,0.007-11.127c0.002-0.863-0.202-1.504-1.246-1.464c-1.187,0.045-1.347-0.731-1.338-1.667
			c0.013-1.349,0.025-2.698-0.009-4.046c-0.03-1.169-0.02-2.226,1.607-2.217c0.725,0.003,0.966-0.552,0.966-1.22
			c-0.002-3.878-0.001-17.209,0-21.086c0-0.756-0.213-1.371-1.104-1.354c-1.301,0.024-1.499-0.756-1.467-1.81
			c0.035-1.179,0.03-2.361-0.004-3.54c-0.042-1.41-0.156-2.767,1.967-2.614c0.862,0.062,0.871-0.833,1.082-1.469
			c1.694-5.112,4.083-6.811,9.533-6.821c5.845-0.011,8.186,1.551,9.919,6.634c0.294,0.863,0.4,1.835,1.715,1.757
			c0.905-0.053,1.07,0.653,1.073,1.38c0.008,1.686,0.011,3.372-0.004,5.057c-0.005,0.604-0.081,1.324-0.842,1.323
			c-1.729-0.003-1.52,10.618-1.517,11.717c0.007,3.372,0.006,6.744,0.005,10.116c0,0.929,0.042,1.535,1.217,2.07
			c2.475,1.129,0.734,3.557,1.107,5.373c0.192,0.934,0.456,2.364-1.31,2.422c-0.974,0.031-1.011,0.68-1.011,1.389
			c0,2.783,0.043,5.564-0.021,8.346c-0.027,1.207,0.439,1.564,1.609,1.648c4.443,0.314,5.361,1.342,5.367,5.746
			c0.005,3.711,0.013,7.418-0.007,11.127c-0.006,1.189,0.042,2.125,1.68,2.156c1.676,0.031,1.989-0.773,1.917-2.176
			c-0.07-1.346-0.051-2.699-0.003-4.047c0.043-1.203-0.078-2.186-1.619-2.27c-0.891-0.051-0.983-0.76-0.981-1.479
			c0.004-1.434,0.031-2.867-0.014-4.299c-0.038-1.217,0.08-2.186,1.679-2.156c0.989,0.02,0.906-0.836,0.909-1.488
			c0.017-3.625,0.001-7.25,0.013-10.873c0.003-0.941-0.155-1.678-1.346-1.644c-1.01,0.028-1.257-0.622-1.249-1.493
			c0.015-1.517,0.028-3.035-0.001-4.552c-0.02-1.025,0.109-1.843,1.426-1.86c1.023-0.013,1.167-0.76,1.166-1.59
			c-0.006-3.708,0.001-16.87-0.005-20.578c-0.001-0.69-0.031-1.489-0.958-1.475c-1.64,0.027-1.663-1.003-1.631-2.181
			c0.032-1.179,0.042-2.362-0.008-3.54c-0.057-1.309,0.057-2.375,1.806-2.25c0.872,0.064,1.033-0.64,1.215-1.331
			c1.935-7.373,7.912-8.05,14.624-6.294c2.67,0.699,4.026,3.18,4.824,5.793c0.29,0.949,0.388,2.011,1.845,1.935
			c0.921-0.049,0.99,0.748,0.995,1.446c0.012,1.601,0.006,3.203,0,4.805c-0.003,0.815-0.134,1.556-1.191,1.553
			c-1.064-0.002-1.186,0.662-1.18,1.514c0.021,3.704,0.002,16.861,0.034,20.565c0.006,0.608-0.267,1.543,0.764,1.561
			c1.65,0.027,1.618,1.08,1.593,2.237c-0.028,1.18-0.014,2.361,0.002,3.541c0.016,1.145,0.056,2.247-1.595,2.256
			c-0.838,0.006-0.788,0.734-0.79,1.316c-0.01,2.865,0.016,5.73-0.018,8.598c-0.012,0.963,0.373,1.398,1.326,1.389
			c1.096-0.01,2.193-0.018,3.288,0.021c2.883,0.104,4.348,1.482,4.407,4.391c0.083,4.045,0.006,8.094,0.046,12.139
			c0.008,0.785-0.407,1.891,0.565,2.264c1.174,0.451,2.514,0.432,3.717-0.004c0.78-0.285,0.516-1.162,0.522-1.797
			c0.025-3.541,0.027-7.082,0.023-10.621c-0.008-9.105-0.02-18.207-0.052-27.312c-0.002-0.759,0.421-1.719-0.836-2.059
			c-0.6-0.162-0.465-0.822-0.477-1.311c-0.037-1.601-0.063-3.201-0.079-4.802c-0.004-0.333-0.067-0.862,0.105-0.971
			c2.114-1.333,1.185-3.424,1.304-5.215c0.147-2.253,0.072-2.324,2.26-2.323c5.735,0.001,4.169-0.514,4.947,4.457
			c0.153,0.98-0.104,2.001,1.102,2.573c0.715,0.34,0.53,1.188,0.499,1.836c-0.109,2.235,0.313,4.464-0.524,6.716
			c-0.433,1.163-0.008,2.665,0.102,4.008c0.955,11.669,1.926,23.335,2.893,35.003c0.083,1.008,0.006,2.053,1.553,2.051
			c1.659-0.002,1.896-0.18,1.897-2.377c0.01-10.959,0.002-21.918,0.006-32.876c0-1.263,0.121-2.531,0.036-3.787
			c-0.077-1.117,0.665-2.613-1.245-3.076c-0.346-0.084-0.227-0.755-0.236-1.171c-0.037-1.516-0.085-3.032-0.097-4.548
			c-0.004-0.415-0.046-1.062,0.185-1.21c2.197-1.416,1.296-3.6,1.298-5.459c0.002-1.701,0.604-2.212,2.202-2.171
			c5.684,0.146,4.314-0.707,5.076,4.636c0.138,0.952-0.185,2.043,1.158,2.5c0.492,0.168,0.462,0.865,0.425,1.362
			c-0.167,2.248,0.218,4.492-0.386,6.766c-0.395,1.49-0.156,3.184-0.027,4.772c0.921,11.335,1.88,22.665,2.847,33.995
			c0.225,2.625,0.264,2.633,3,2.643c3.54,0.012,7.082-0.002,10.622,0.008c2.737,0.006,2.737,0.014,3.297,2.592
			c0.59,2.715,1.189,5.428,1.764,8.145c0.516,2.439,0.466,2.506-2.137,2.506c-20.063,0.006-40.126,0.002-60.189,0.002
			C64.85,109.802,64.345,109.802,63.839,109.802z M75.934,88.37c0-1.262-0.002-2.525,0-3.787c0.002-4.92-0.004-4.928-4.903-4.791
			c-0.417,0.012-0.832,0.072-1.247,0.111c0.24,0.455,0.747,0.182,1.066,0.381c1.058,0.658,1.13,7.41-0.01,7.645
			c-2.031,0.416-1.646,1.764-1.66,3.053c-0.014,1.432-0.006,2.861,0.008,4.291c0.004,0.486-0.101,1.191,0.546,1.23
			c1.841,0.107,3.703,0.227,5.521-0.117c0.855-0.162,0.657-1.064,0.665-1.705C75.942,92.577,75.928,90.472,75.934,88.37z
			 M42.839,88.312c-0.003,0-0.006,0-0.009,0c0-2.104-0.015-4.207,0.005-6.311c0.016-1.604-0.768-2.312-2.34-2.211
			c-0.5,0.031-1,0.061-1.5,0.092c0.215,0.59,0.808,0.199,1.168,0.449c0.398,0.275,0.501,0.666,0.503,1.088
			c0.011,1.85,0.007,3.701-0.006,5.551c-0.004,0.559-0.263,1.049-0.841,1.082c-1.616,0.094-1.532,1.199-1.511,2.33
			c0.026,1.43,0.109,2.869-0.016,4.287c-0.151,1.73,0.787,1.926,2.149,1.9c1.363-0.025,2.527-0.027,2.423-1.949
			C42.752,92.522,42.839,90.415,42.839,88.312z"/>
	</g>
</g>
</svg>
