<?xml version="1.0" encoding="utf-8"?>
<!-- Generator: Adobe Illustrator 16.0.4, SVG Export Plug-In . SVG Version: 6.00 Build 0)  -->
<!DOCTYPE svg PUBLIC "-//W3C//DTD SVG 1.1//EN" "http://www.w3.org/Graphics/SVG/1.1/DTD/svg11.dtd">
<svg version="1.1" id="Layer_2711" xmlns="http://www.w3.org/2000/svg" xmlns:xlink="http://www.w3.org/1999/xlink" x="0px" y="0px"
	 width="128px" height="128px" viewBox="0 0 128 128" enable-background="new 0 0 128 128" xml:space="preserve">
<g>
	<path fill-rule="evenodd" clip-rule="evenodd" d="M14.827,56.653c0.243-5.954,1.854-11.35,4.302-16.519
		c6.061-12.801,15.821-21.498,29.197-26.109c1.219-0.42,1.822-0.893,1.894-2.292c0.082-1.569-1.064-1.481-2.107-1.869
		c0-2.728,0.028-5.442-0.01-8.154c-0.02-1.303,0.664-1.612,1.807-1.61c9.366,0.02,18.73,0.025,28.097,0.001
		c1.232-0.004,1.71,0.465,1.673,1.706c-0.064,2.239,0,4.482-0.031,6.722c-0.01,0.589,0.234,1.485-0.657,1.566
		c-1.706,0.156-1.172,1.375-1.251,2.315c-0.105,1.25,0.907,1.341,1.721,1.596c8.468,2.658,15.516,7.531,21.404,14.057
		c6.721,7.449,11.699,18.376,12.059,28.588C80.318,56.653,47.722,56.653,14.827,56.653z M61.133,5.31
		c-0.235,0.738-0.362,1.416,0.23,2.26c1.292,0,2.708-0.016,4.123,0.006c0.908,0.012,1.275-0.412,1.263-1.301
		c-0.013-0.802-0.414-1.156-1.165-1.158C64.095,5.115,62.59,4.831,61.133,5.31z M73.101,7.487c0.184-0.988,0.607-1.977-0.429-2.247
		C71.31,4.884,69.778,4.72,68.49,5.356c-0.74,0.366-0.531,1.35,0.002,2.131C69.968,7.487,71.448,7.487,73.101,7.487z M66.451,3.774
		c0.361-0.887,0.636-1.928-0.174-2.21c-1.562-0.546-3.335-0.557-4.878-0.015c-0.873,0.307-0.542,1.449-0.144,2.225
		C63.058,3.774,64.764,3.774,66.451,3.774z M57,7.565c0.555,0,1.113,0.011,1.667-0.001c1.03-0.024,1.214-0.818,1.024-1.502
		c-0.477-1.7-1.965-0.861-3.01-0.942c-0.814-0.063-2.076-0.493-2.235,1.01c-0.081,0.76,0.112,1.456,1.124,1.44
		C56.047,7.561,56.525,7.567,57,7.565z M57.035,3.976c0.935-0.394,2.645,0.741,2.681-1.322c0.034-1.801-1.443-1.372-2.431-1.309
		c-1.075,0.068-2.839-0.764-2.793,1.407C54.531,4.644,56.138,3.608,57.035,3.976z M68.388,3.893
		c1.671-0.051,3.226,0.242,4.755-0.213c0.145-0.864,0.56-1.841-0.391-2.163c-1.343-0.454-2.863-0.473-4.184,0.017
		C67.729,1.846,68.057,2.861,68.388,3.893z M52.984,5.215c-1.23-0.172-2.37-0.346-3.595,0.208c0.106,0.735-0.285,1.456,0.443,2.055
		c1.063,0.109,2.149,0.295,3.188-0.153C53.278,6.668,53.294,6.055,52.984,5.215z M74.778,7.644c1.227-0.607,3.171,1.141,3.503-1.314
		c0.205-1.513-1.184-1.145-2.062-1.214C74.524,4.977,74.09,5.779,74.778,7.644z M74.695,3.864c1.29-0.333,3.019,1.094,3.597-1.072
		c0.363-1.364-0.773-1.449-1.805-1.503C74.825,1.202,74.028,1.768,74.695,3.864z M53.12,3.726c0.03-0.583,0.084-1.05,0.068-1.514
		c-0.008-0.219-0.146-0.431-0.216-0.619c-3.493-0.637-3.884-0.368-3.198,2.186C50.789,3.989,51.812,3.983,53.12,3.726z"/>
	<path fill-rule="evenodd" clip-rule="evenodd" d="M12.01,63.016c-1.549,0-2.815,0-4.121,0c-0.534-1.447-0.357-2.75-0.174-4.021
		c1.028-0.545,2.005-0.337,2.942-0.338c35.472-0.011,70.941-0.006,106.412-0.005c3.707,0,3.777,0.092,3.052,4.103
		c-1.295,0.687-2.823-0.103-4.287,0.577c0,19.789,0,39.601,0,59.582c1.427,0.081,2.762,0.158,4.067,0.233
		c1.348,3.81,0.748,4.752-2.985,4.752C81.839,127.9,46.765,127.9,11.689,127.9c-0.081,0-0.161,0-0.241,0
		c-4.34-0.019-4.456-0.163-3.558-4.71c1.284-0.092,2.613-0.185,4.119-0.289C12.01,102.999,12.01,83.177,12.01,63.016z
		 M35.898,77.907l-0.011-0.101l0.064,0.06c-0.085,0.623-0.244,1.247-0.245,1.87c-0.011,10.084-0.004,20.165-0.001,30.247
		c0,1.092,0,2.184,0,3.275c1.646-3.235,2.568-6.568,4.008-9.662c2.512-5.4,2.641-10.615,0.019-16
		C38.213,84.479,37.759,80.909,35.898,77.907z M96.029,113.479c1.908-5.343,3.819-10.686,5.726-16.028
		c0.295-0.823,0.746-1.659,0.432-2.553c-1.935-5.509-3.902-11.009-5.856-16.511c-0.471,0.791-0.564,1.491-0.565,2.188
		c-0.004,8.808-0.018,17.614,0.03,26.421c0.013,2.149-0.305,4.32,0.254,6.45l-0.079,0.089L96.029,113.479z M111.839,74.516
		c-2.914,6.654-4.738,13.702-7.369,20.459c-0.306,0.788,0.108,1.408,0.333,2.063c1.71,4.984,3.442,9.962,5.187,14.935
		c0.487,1.392,1.034,2.761,1.637,4.358c0.719-1.093,0.468-1.986,0.471-2.817c0.023-9.032,0.068-18.064-0.01-27.095
		c-0.034-3.982,0.402-7.983-0.282-11.948L111.839,74.516z M31.998,122.958c-2.863-8.203-5.633-16.132-8.619-24.684
		c-2.67,7.587-5.13,14.474-7.488,21.394c-0.34,0.996-0.444,2.176,0.206,3.29C21.289,122.958,26.463,122.958,31.998,122.958z
		 M103.573,98.944c-0.172,0.01-0.344,0.021-0.516,0.031c-2.368,6.913-4.759,13.82-7.078,20.75c-0.341,1.021-0.511,2.168,0.129,3.18
		c5.23,0,10.39,0,15.83,0C109.101,114.773,106.336,106.858,103.573,98.944z M43.514,98.675c-0.27,0.373-0.453,0.53-0.523,0.731
		c-2.339,6.63-4.687,13.256-6.98,19.902c-0.387,1.122-0.574,2.33,0.029,3.615c5.22,0,10.456,0,15.956,0
		C49.143,114.768,46.356,106.802,43.514,98.675z M91.852,122.951c-2.6-8.23-5.471-16.09-8.576-24.504
		c-2.565,7.386-4.938,14.164-7.259,20.96c-0.386,1.126-0.34,2.321,0.036,3.544C81.275,122.951,86.372,122.951,91.852,122.951z
		 M71.987,122.92c-2.859-8.154-5.63-16.051-8.397-23.948c-2.947,7.032-5.39,14.028-7.765,21.044
		c-0.297,0.875-0.28,1.874,0.163,2.904C61.158,122.92,66.328,122.92,71.987,122.92z M31.596,116.193
		c0.116-0.051,0.233-0.104,0.35-0.156c0-13.741,0-27.483,0-41.225c-2.229,5.256-3.926,10.647-6.006,15.885
		c-1.278,3.219-1.595,6.164-0.069,9.358c0.887,1.855,1.312,3.926,2.005,5.88C29.092,109.363,30.353,112.774,31.596,116.193z
		 M91.645,116.539c0.104-0.04,0.211-0.083,0.318-0.125c0-13.995,0-27.987,0-41.981c-2.027,4.98-3.503,10.13-5.628,14.998
		c-1.822,4.177-1.851,7.91-0.053,12.089C88.377,106.395,89.882,111.52,91.645,116.539z M51.651,116.557
		c0.153-0.028,0.304-0.058,0.458-0.085c0-14.009,0-28.021,0-42.029c-2.759,6.724-5.13,13.551-7.466,20.39
		c-0.146,0.424-0.159,0.982-0.013,1.402C46.95,103.018,49.303,109.784,51.651,116.557z M15.803,113.145
		c0.141,0.006,0.283,0.013,0.426,0.021c1.616-4.589,3.112-9.227,4.895-13.748c1.06-2.687,1.028-5.138-0.005-7.805
		c-1.741-4.498-3.256-9.085-4.866-13.634c-0.151,0.033-0.302,0.064-0.45,0.098C15.803,89.765,15.803,101.456,15.803,113.145z
		 M23.138,92.142c0.896-0.649,0.963-1.505,1.217-2.227c2.134-6.022,4.14-12.091,6.371-18.076c1.051-2.817,1.834-5.569,1.149-8.598
		c-5.402,0-10.705,0-16.088,0c0,2.766-0.595,5.501,0.11,7.845C18.03,78.156,20.667,85.075,23.138,92.142z M35.833,63.126
		c-0.145,3.612-0.523,6.991,0.718,10.346c1.826,4.939,3.475,9.943,5.217,14.915c0.452,1.287,0.968,2.552,1.622,4.262
		c2.998-8.485,5.852-16.445,8.599-24.445c0.54-1.576,0.247-3.283,0.106-5.078C46.669,63.126,41.421,63.126,35.833,63.126z
		 M55.749,63.142c0.087,3.644-0.54,7.106,0.888,10.511c1.012,2.42,1.665,4.988,2.545,7.467c1.296,3.646,2.651,7.276,3.98,10.911
		c3.268-8.034,6.075-16.046,8.705-24.113c0.47-1.443,0.257-3.127-0.061-4.775C66.47,63.142,61.299,63.142,55.749,63.142z
		 M103.203,92.366c0.351-0.653,0.529-0.902,0.627-1.179c2.682-7.598,5.394-15.187,7.997-22.81c0.564-1.655,0.411-3.437,0.003-5.23
		c-5.331,0-10.565,0-16.091,0c0.306,3.35-0.477,6.6,0.661,9.806C98.639,79.256,100.826,85.575,103.203,92.366z M91.969,63.199
		c-5.438,0-10.736,0-16.005,0c-0.641,6.717,3.138,21.139,7.59,28.977c2.851-8.183,5.704-16.146,8.349-24.174
		C92.371,66.578,91.969,64.871,91.969,63.199z M71.885,74.794c-0.11,0.008-0.218,0.016-0.326,0.022
		c-2.234,6.406-4.478,12.809-6.688,19.224c-0.277,0.802-0.491,1.586-0.153,2.537c2.342,6.6,4.597,13.231,6.879,19.853
		c0.097-0.019,0.191-0.039,0.288-0.058C71.885,102.515,71.885,88.654,71.885,74.794z M55.74,113.448
		c0.141,0.027,0.28,0.052,0.419,0.078c1.283-3.755,2.3-7.631,3.92-11.236c2.01-4.479,2.541-8.705,0.075-13.158
		c-0.797-1.438-1.063-3.166-1.612-4.744c-0.784-2.26-1.603-4.505-2.406-6.756c-0.132,0.048-0.264,0.094-0.396,0.143
		C55.74,89.666,55.74,101.556,55.74,113.448z M76.269,78.042c-0.11,0.014-0.221,0.029-0.33,0.046c0,11.686,0,23.372,0,35.057
		c2.269-5.658,4.285-11.355,6.27-17.062c0.118-0.34,0.095-0.799-0.024-1.144C80.228,89.3,78.245,83.672,76.269,78.042z"/>
	<path fill-rule="evenodd" clip-rule="evenodd" d="M43.314,104.071c0.497,0.607,0.706,1.058,0.62,1.708
		C42.782,105.544,42.812,105.001,43.314,104.071z"/>
	<path fill-rule="evenodd" clip-rule="evenodd" d="M83.368,104.15c0.726,1.182,0.766,1.853-0.486,2.17
		C82.479,105.461,82.979,104.932,83.368,104.15z"/>
	<path fill-rule="evenodd" clip-rule="evenodd" d="M65.355,110.001c-1.325,0-2.562,0-4.039,0c0.416-2.077,1.054-3.929,2.153-6.006
		C64.36,106.108,65.044,107.914,65.355,110.001z"/>
	<path fill-rule="evenodd" clip-rule="evenodd" d="M30.114,96.517c-3.177-2.368-3.372-2.887-2.295-5.956
		c0.623-1.771,1.304-3.523,2.295-5.231C30.114,88.953,30.114,92.578,30.114,96.517z"/>
	<path fill-rule="evenodd" clip-rule="evenodd" d="M89.233,102.926c-4.827-6.019-1.807-11.766,0.664-17.484
		C90.898,89.093,90.395,101.96,89.233,102.926z"/>
	<path fill-rule="evenodd" clip-rule="evenodd" d="M50.275,85.045c0,6.936,0,13.932,0,20.909
		C45.58,98.993,45.744,91.997,50.275,85.045z"/>
	<path fill-rule="evenodd" clip-rule="evenodd" d="M23.252,86.68c-1.721-7.23-6.71-13.573-5.593-21.655c4.197,0,8.297,0,12.982,0
		C29.043,72.655,25.992,79.529,23.252,86.68z"/>
	<path fill-rule="evenodd" clip-rule="evenodd" d="M37.547,64.995c4.249,0,8.371,0,12.503,0c0.546,0.865,0.49,1.815,0.228,2.584
		c-2.169,6.417-4.421,12.807-6.958,19.218C41.15,79.61,36.801,73.066,37.547,64.995z"/>
	<path fill-rule="evenodd" clip-rule="evenodd" d="M57.615,64.979c4.285,0,8.341,0,12.401,0c0.651,0.805,0.572,1.736,0.3,2.531
		c-2.191,6.397-4.444,12.771-6.975,19.177C61.136,79.597,56.776,73.145,57.615,64.979z"/>
	<path fill-rule="evenodd" clip-rule="evenodd" d="M110.16,65.069c0.254,2.629-3.811,15.446-7.026,21.602
		c-1.666-7.21-6.619-13.538-5.607-21.602C101.836,65.069,106.01,65.069,110.16,65.069z"/>
	<path fill-rule="evenodd" clip-rule="evenodd" d="M77.581,64.983c4.33,0,8.373,0,12.415,0c0.587,1.466,0.241,2.801-0.191,4.056
		c-2.024,5.861-4.121,11.699-6.52,17.583C81.312,79.481,76.535,73.137,77.581,64.983z"/>
	<path fill-rule="evenodd" clip-rule="evenodd" d="M70.395,85.308c0,6.861,0,13.723,0,20.584c-0.215,0.039-0.43,0.077-0.643,0.116
		c-0.779-4.796-5.108-8.837-2.271-14.428c1.023-2.016,1.597-4.263,2.375-6.404C70.034,85.219,70.215,85.265,70.395,85.308z"/>
	<path fill-rule="evenodd" clip-rule="evenodd" d="M97.517,96.565c0-2.974,0-5.635,0-8.337
		C100.374,92.276,100.462,94.547,97.517,96.565z"/>
	<path fill-rule="evenodd" clip-rule="evenodd" d="M57.648,103.105c0-5.238,0-10.039,0-14.938
		C60.824,93.042,60.629,97.844,57.648,103.105z"/>
	<path fill-rule="evenodd" clip-rule="evenodd" d="M37.694,102.532c0-4.964,0-9.566,0-14.14
		C40.794,92.866,40.881,97.565,37.694,102.532z"/>
	<path fill-rule="evenodd" clip-rule="evenodd" d="M77.686,88.506c3.111,4.745,3.028,9.348,0,14.15
		C77.686,97.909,77.686,93.336,77.686,88.506z"/>
</g>
</svg>
