<?xml version="1.0" encoding="utf-8"?>
<!-- Generator: Adobe Illustrator 16.0.4, SVG Export Plug-In . SVG Version: 6.00 Build 0)  -->
<!DOCTYPE svg PUBLIC "-//W3C//DTD SVG 1.1//EN" "http://www.w3.org/Graphics/SVG/1.1/DTD/svg11.dtd">
<svg version="1.1" id="Layer_2712" xmlns="http://www.w3.org/2000/svg" xmlns:xlink="http://www.w3.org/1999/xlink" x="0px" y="0px"
	 width="128px" height="128px" viewBox="0 0 128 128" enable-background="new 0 0 128 128" xml:space="preserve">
<g>
	<path d="M108.695,25.457c-0.451-0.201-1.192-0.735-0.778-1.35c0.231-0.343,1.047-0.394,1.603-0.401
		c2.449-0.034,3.51-1.035,3.446-3.674c-0.101-4.239,0.07-8.485,0.03-12.732c-0.028-3.148-1.501-4.775-4.271-5.663
		c-3.295-1.057-6.678-1.448-10.117-1.312c-11.674,0.46-23.354,0.161-35.03,0.14c-10.734,0-21.467-0.021-32.201,0.009
		c-4.128,0.012-8.27,0.077-12.254,1.355c-3.294,1.057-3.982,1.837-4.027,5.323c-0.057,4.36,0.263,8.726,0.196,13.085
		c-0.033,2.104,0.73,3.001,2.757,3.21c0.712,0.073,1.916-0.209,2.081,0.759c0.148,0.864-0.902,1.343-1.599,1.691
		c-3.807,1.904-4.732,5.116-4.648,9.088c0.179,8.489,0.099,16.983,0.195,25.475c0.189,16.615,0.119,33.233,0.885,49.843
		c0.215,4.676,2.13,7.782,6.164,9.872c2.321,1.202,4.752,2.055,7.257,2.736c20.717,5.654,41.63,6.265,62.711,2.42
		c5.217-0.951,10.432-1.911,15.242-4.329c5.112-2.569,7.905-6.549,7.786-12.39c-0.02-0.942,0.033-1.887,0.036-2.83
		c0.068-22.647,0.026-45.297,0.279-67.943C114.497,32.568,114.235,27.933,108.695,25.457z M93.5,79.53c0,0-9.407,2.36-29.285,2.36
		c-19.877,0-29.715-2.36-29.715-2.36V48.467c0,0,3.143,1.378,29.51,1.378c26.369,0,29.49-1.378,29.49-1.378V79.53z"/>
</g>
</svg>
