<?xml version="1.0" encoding="utf-8"?>
<!-- Generator: Adobe Illustrator 16.0.4, SVG Export Plug-In . SVG Version: 6.00 Build 0)  -->
<!DOCTYPE svg PUBLIC "-//W3C//DTD SVG 1.1//EN" "http://www.w3.org/Graphics/SVG/1.1/DTD/svg11.dtd">
<svg version="1.1" id="Layer_2715" xmlns="http://www.w3.org/2000/svg" xmlns:xlink="http://www.w3.org/1999/xlink" x="0px" y="0px"
	 width="128px" height="128px" viewBox="0 0 128 128" enable-background="new 0 0 128 128" xml:space="preserve">
<g id="G9FSwJ.tif">
	<g>
		<path fill-rule="evenodd" clip-rule="evenodd" d="M69.258,0.363c1.23,0.313,2.503,0.23,3.754,0.345
			c5.037,0.459,10,1.279,14.83,2.8c2.545,0.801,5.006,1.808,7.216,3.349c0.521,0.363,0.999,0.771,1.452,1.208
			c2.342,2.265,2.339,5-0.021,7.255c-1.887,1.804-4.192,2.902-6.598,3.81c-4.449,1.68-9.075,2.59-13.781,3.177
			c-4.775,0.595-9.564,0.861-14.372,0.732c-6.424-0.172-12.797-0.8-19.03-2.448c-3.462-0.915-6.849-2.044-9.822-4.135
			c-0.837-0.587-1.587-1.263-2.199-2.091c-1.295-1.754-1.293-3.681,0.041-5.425c1.362-1.781,3.241-2.865,5.22-3.795
			c3.867-1.817,7.981-2.811,12.164-3.542c3.314-0.579,6.653-0.976,10.019-1.105c0.203-0.008,0.404-0.089,0.607-0.136
			C62.243,0.363,65.75,0.363,69.258,0.363z"/>
		<path fill-rule="evenodd" clip-rule="evenodd" d="M99.188,45.127c0,1.508-0.057,3.018,0.013,4.522
			c0.132,2.856-1.106,5.069-3.103,6.958c-2.146,2.031-4.693,3.424-7.393,4.543c-5.02,2.081-10.275,3.199-15.66,3.811
			c-4.471,0.508-8.949,0.633-13.438,0.39c-6.821-0.369-13.505-1.465-19.882-4.024c-2.843-1.141-5.529-2.57-7.791-4.689
			c-2.037-1.907-3.222-4.159-3.14-7.05c0.09-3.224,0.028-6.452,0.017-9.678c-0.005-1.15,0.288-2.212,0.801-3.229
			c0.196-0.387,0.382-0.463,0.666-0.07c3.109,4.307,7.722,6.255,12.518,7.831c7.026,2.307,14.288,3.068,21.655,3.038
			c6.302-0.027,12.518-0.704,18.604-2.38c4.004-1.103,7.854-2.571,11.253-5.037c1.257-0.911,2.38-1.956,3.278-3.235
			c0.469-0.67,0.578-0.657,0.926,0.097c0.412,0.898,0.679,1.834,0.674,2.837c-0.006,1.789-0.002,3.577-0.002,5.366
			C99.186,45.127,99.187,45.127,99.188,45.127z"/>
		<path fill-rule="evenodd" clip-rule="evenodd" d="M99.188,65.834c0,1.507-0.057,3.018,0.014,4.521
			c0.135,2.896-1.119,5.133-3.159,7.036c-2.159,2.016-4.708,3.401-7.409,4.513c-5.057,2.081-10.348,3.193-15.768,3.802
			c-4.263,0.478-8.533,0.58-12.807,0.385c-6.965-0.32-13.788-1.43-20.303-4.026c-2.812-1.12-5.463-2.534-7.719-4.604
			c-2.116-1.942-3.333-4.241-3.243-7.215c0.097-3.223,0.028-6.45,0.02-9.676c-0.003-1.113,0.288-2.143,0.786-3.125
			c0.168-0.333,0.348-0.563,0.66-0.12c2.608,3.71,6.473,5.591,10.53,7.147c4.703,1.804,9.61,2.746,14.608,3.284
			c5.176,0.558,10.358,0.604,15.538,0.164c6.416-0.544,12.691-1.751,18.611-4.404c2.705-1.212,5.232-2.701,7.234-4.946
			c0.326-0.364,0.619-0.761,0.898-1.163c0.283-0.406,0.498-0.443,0.73,0.039c0.445,0.925,0.771,1.878,0.771,2.918
			c0.002,1.823,0,3.646,0,5.47C99.184,65.834,99.186,65.834,99.188,65.834z"/>
		<path fill-rule="evenodd" clip-rule="evenodd" d="M99.188,86.56c0,1.508-0.057,3.019,0.014,4.522
			c0.135,2.896-1.119,5.133-3.159,7.036c-2.159,2.015-4.708,3.401-7.409,4.513c-5.057,2.081-10.348,3.192-15.768,3.801
			c-4.263,0.479-8.533,0.581-12.807,0.385c-6.965-0.319-13.788-1.429-20.303-4.025c-2.812-1.12-5.463-2.534-7.719-4.604
			c-2.116-1.942-3.333-4.24-3.243-7.214c0.097-3.223,0.028-6.45,0.02-9.677c-0.003-1.112,0.288-2.142,0.786-3.124
			c0.168-0.333,0.348-0.563,0.66-0.12c2.608,3.711,6.473,5.591,10.53,7.146c4.703,1.805,9.61,2.747,14.608,3.285
			c5.176,0.558,10.358,0.604,15.538,0.164c6.416-0.545,12.691-1.751,18.611-4.404c2.705-1.213,5.232-2.701,7.234-4.946
			c0.326-0.364,0.619-0.761,0.898-1.163c0.283-0.406,0.498-0.443,0.73,0.039c0.445,0.924,0.771,1.878,0.771,2.918
			c0.002,1.822,0,3.646,0,5.469C99.184,86.56,99.186,86.56,99.188,86.56z"/>
		<path fill-rule="evenodd" clip-rule="evenodd" d="M99.188,107.286c0,1.508-0.057,3.018,0.014,4.522
			c0.135,2.896-1.119,5.132-3.159,7.036c-2.159,2.015-4.708,3.4-7.409,4.512c-5.057,2.081-10.348,3.193-15.768,3.802
			c-4.263,0.478-8.533,0.581-12.807,0.385c-6.965-0.319-13.788-1.43-20.303-4.026c-2.812-1.12-5.463-2.533-7.719-4.604
			c-2.116-1.942-3.333-4.24-3.243-7.214c0.097-3.224,0.028-6.45,0.02-9.677c-0.003-1.112,0.288-2.143,0.786-3.125
			c0.168-0.332,0.348-0.562,0.66-0.119c2.608,3.71,6.473,5.59,10.53,7.146c4.703,1.805,9.61,2.746,14.608,3.285
			c5.176,0.557,10.358,0.604,15.538,0.164c6.416-0.545,12.691-1.751,18.611-4.404c2.705-1.213,5.232-2.701,7.234-4.946
			c0.326-0.364,0.619-0.762,0.898-1.163c0.283-0.406,0.498-0.443,0.73,0.039c0.445,0.924,0.771,1.878,0.771,2.918
			c0.002,1.822,0,3.646,0,5.469C99.184,107.286,99.186,107.286,99.188,107.286z"/>
		<path fill-rule="evenodd" clip-rule="evenodd" d="M99.188,24.243c0,1.508-0.059,3.019,0.014,4.522
			c0.135,2.854-1.088,5.075-3.082,6.969c-2.168,2.061-4.75,3.468-7.482,4.595c-5.188,2.138-10.624,3.251-16.186,3.856
			c-3.846,0.418-7.697,0.527-11.551,0.379c-7.321-0.282-14.5-1.372-21.333-4.165c-3.302-1.35-6.402-3.032-8.754-5.818
			c-1.312-1.552-2.023-3.326-2.006-5.391c0.027-3.401,0.02-6.803,0.001-10.204c-0.006-1.084,0.306-2.068,0.771-3.021
			c0.043-0.09,0.117-0.215,0.193-0.229c0.181-0.032,0.191,0.153,0.229,0.271c0.781,2.441,2.735,3.749,4.818,4.878
			c3.67,1.989,7.662,3.042,11.727,3.852c7.681,1.529,15.448,1.821,23.239,1.418c6.662-0.344,13.246-1.281,19.566-3.558
			c2.314-0.833,4.545-1.846,6.449-3.457c0.979-0.828,1.791-1.772,2.174-3.029c0.043-0.142,0.021-0.393,0.252-0.37
			c0.094,0.009,0.194,0.189,0.248,0.311c0.387,0.868,0.715,1.747,0.709,2.722c-0.014,1.823-0.004,3.647-0.004,5.47
			C99.182,24.243,99.185,24.243,99.188,24.243z"/>
	</g>
</g>
</svg>
