<?xml version="1.0" encoding="utf-8"?>
<!-- Generator: Adobe Illustrator 16.0.4, SVG Export Plug-In . SVG Version: 6.00 Build 0)  -->
<!DOCTYPE svg PUBLIC "-//W3C//DTD SVG 1.1//EN" "http://www.w3.org/Graphics/SVG/1.1/DTD/svg11.dtd">
<svg version="1.1" id="Layer_2716" xmlns="http://www.w3.org/2000/svg" xmlns:xlink="http://www.w3.org/1999/xlink" x="0px" y="0px"
	 width="128px" height="128px" viewBox="0 0 128 128" enable-background="new 0 0 128 128" xml:space="preserve">
<g id="L9rYTw.tif">
	<g>
		<path fill-rule="evenodd" clip-rule="evenodd" d="M46.437,71.213c-3.233,0.001-6.466-0.022-9.698,0.012
			c-1.419,0.016-1.633-0.369-0.866-1.605c4.163-6.702,8.256-13.447,12.396-20.163c3.066-4.976,6.182-9.921,9.25-14.895
			c6.812-11.044,13.607-22.099,20.41-33.149c0.133-0.217,0.259-0.439,0.399-0.652c0.19-0.289,0.453-0.648,0.788-0.514
			c0.339,0.135,0.24,0.577,0.175,0.898c-0.562,2.744-1.02,5.503-1.46,8.27c-1.578,9.891-3.175,19.781-4.95,29.638
			c-0.949,5.27-1.389,10.612-2.455,15.855c-0.346,1.702,0.363,2.037,1.865,2.024c5.867-0.052,11.735-0.041,17.603-0.007
			c0.891,0.005,2.16-0.444,2.59,0.433c0.461,0.944-0.561,1.805-1.092,2.657c-4.529,7.276-9.024,14.573-13.539,21.859
			c-4.736,7.644-9.492,15.276-14.222,22.925c-4.552,7.36-9.084,14.734-13.62,22.105c-0.216,0.351-0.32,0.984-0.781,0.865
			c-0.539-0.139-0.155-0.701-0.122-1.066c0.569-6.096,1.858-12.084,2.792-18.124c1.558-10.065,3.271-20.108,4.935-30.158
			c0.291-1.757,0.643-3.503,0.99-5.25c0.278-1.396-0.156-2.021-1.691-1.982C52.904,71.269,49.669,71.212,46.437,71.213z"/>
		<path fill-rule="evenodd" clip-rule="evenodd" d="M120.747,65.579c-0.515,16.506-7.339,31.284-21.044,42.535
			c-10.989,9.021-23.815,13.125-38.075,12.498c-2.894-0.127-2.719-0.112-1.557-2.732c1.17-2.635,2.92-3.278,5.74-3.401
			c16.051-0.702,29.157-7.495,38.768-20.337c9.155-12.234,11.931-26.179,8.752-41.056c-2.374-11.117-8.176-20.388-16.937-27.756
			c-4.198-3.531-8.875-6.223-13.927-8.275c-1.244-0.506-1.77-1.196-1.555-2.477c0.098-0.586,0.249-1.162,0.348-1.748
			c0.454-2.692,0.567-2.747,3.181-1.689c12.471,5.047,22.229,13.307,28.907,24.979C118.331,44.826,120.735,54.315,120.747,65.579z"
			/>
		<path fill-rule="evenodd" clip-rule="evenodd" d="M7.325,63.888c0.553-16.03,6.104-29.874,17.959-41.011
			C36.48,12.358,49.763,7.33,65.059,7.5c4.456,0.049,4.336,0.056,2.272,3.903c-0.906,1.69-1.959,2.138-3.787,2.195
			c-15.094,0.476-27.828,6.095-37.74,17.677C15.761,43.009,11.968,56.633,14.189,71.792c1.51,10.303,5.946,19.327,13.235,26.957
			c5.329,5.578,11.51,9.723,18.66,12.47c1.112,0.427,1.408,1.005,1.258,2.075c-0.73,5.216-0.383,5.041-4.968,3.113
			c-9.349-3.932-17.144-9.875-23.312-17.925c-4.862-6.345-8.332-13.386-10.094-21.19C7.978,72.905,6.972,68.488,7.325,63.888z"/>
	</g>
</g>
</svg>
