<?xml version="1.0" encoding="utf-8"?>
<!-- Generator: Adobe Illustrator 16.0.4, SVG Export Plug-In . SVG Version: 6.00 Build 0)  -->
<!DOCTYPE svg PUBLIC "-//W3C//DTD SVG 1.1//EN" "http://www.w3.org/Graphics/SVG/1.1/DTD/svg11.dtd">
<svg version="1.1" id="Layer_2803" xmlns="http://www.w3.org/2000/svg" xmlns:xlink="http://www.w3.org/1999/xlink" x="0px" y="0px"
	 width="128px" height="128px" viewBox="0 0 128 128" enable-background="new 0 0 128 128" xml:space="preserve">
<g>
	<path fill-rule="evenodd" clip-rule="evenodd" d="M86.744,119.052c-7.501,0.469-14.656,0.307-21.806,0.272
		c-7.127-0.034-14.253-0.472-21.377-0.403c-8.777,0.087-17.542-0.14-26.294-0.652c-4.592-0.268-9.228-0.517-13.667-1.945
		c-3.635-1.172-4.138-2.584-2.135-5.777c2.537-4.041,2.533-4.016,7.313-3.404c7.278,0.928,14.584,1.472,21.927,1.396
		c0.744-0.006,1.544,0.248,2.232-0.278c-0.716-0.441-1.55-0.47-2.333-0.509c-4.982-0.247-9.903-0.979-14.805-1.847
		c-2.762-0.486-5.494-1.161-8.267-1.561c-1.885-0.271-2.539-1.049-2.515-3.011c0.144-11.958,3.688-22.751,10.685-32.446
		c5.249-7.274,11.959-13.055,18.844-18.667c3.158-2.573,6.387-5.063,9.326-7.891c0.903-0.867,1.788-1.233,3.142-0.988
		c9.625,1.733,19.124,0.982,28.409-1.999c2.014-0.646,3.176-0.484,4.599,1.242c3.178,3.852,7.225,6.828,11.068,9.991
		c6.439,5.3,12.703,10.778,17.663,17.563c7.213,9.866,11.059,20.856,11.165,33.137c0.018,1.915-0.596,2.728-2.467,3.091
		c-7.375,1.427-14.729,2.942-22.263,3.313c-1.066,0.052-2.119,0.36-3.179,0.552c1.028,0.629,2.159,0.285,3.236,0.292
		c7.887,0.057,15.728-0.633,23.536-1.658c1.702-0.223,2.878,0.041,3.961,1.504c1.174,1.587,2.765,2.858,4.04,4.383
		c1.471,1.762,1.178,2.828-0.954,3.693c-2.287,0.93-4.746,1.121-7.169,1.403c-9.188,1.074-18.424,1.097-27.654,1.203
		C89.469,119.067,87.928,119.052,86.744,119.052z M22.003,91.813c-0.06,0.143-0.501,0.126-0.178,0.43
		c0.044-0.155,0.088-0.312,0.134-0.47c0.438-0.253,0.561-0.653,0.53-1.127c1.311-0.716,1.655-2.107,2.179-3.31
		c3.312-7.585,7.243-14.78,12.761-21.028c2.581-2.921,5.482-5.52,8.162-8.332c2.21-2.32,4.814-4.488,5.172-8.041
		c0.065-0.061,0.14-0.114,0.188-0.186c0.035-0.052,0.031-0.128,0.043-0.195c-0.063,0.139-0.126,0.278-0.191,0.417
		c-2.336,3.976-5.813,6.875-9.276,9.778c-9.779,8.198-15.523,18.866-18.994,30.932C22.075,90.929,22.052,91.378,22.003,91.813z
		 M76.831,51.034c-0.015-0.154,0.021-0.345-0.056-0.456c-0.11-0.155-0.277-0.073-0.233,0.128c0.025,0.114,0.22,0.193,0.339,0.289
		c0.025,1.154,0.668,2.031,1.295,2.923c1.361,1.938,3.036,3.59,4.742,5.212c7.617,7.238,14.099,15.286,18.192,25.09
		c0.903,2.166,2.071,4.226,3.173,6.304c0.214,0.406,0.265,1.072,0.977,1.064c-0.106-0.419-0.172-0.855-0.327-1.256
		c-0.981-2.529-2.061-5.024-2.963-7.581c-2.421-6.859-6.363-12.758-11.187-18.129C86.436,59.778,80.839,56.223,76.831,51.034z
		 M59.616,50.484c-0.02,0.15,0.057-0.122,0.041-0.387c-0.021-0.36,0.474-0.942-0.241-1.016c-0.307-0.032-0.381,0.542-0.439,0.891
		c-0.255,1.518-0.689,2.973-1.202,4.428c-2.074,5.868-4.498,11.618-5.735,17.767c-1.09,5.409-1.766,10.86-2.159,16.354
		c-0.058,0.797-0.396,1.593-0.033,2.395c0.794-0.602,0.613-1.575,0.898-2.37c0.058-0.166,0.048-0.357,0.081-0.535
		c1.939-10.48,4.086-20.908,7.553-31.017C59.05,55.033,59.411,52.98,59.616,50.484z M77.389,88.068
		c-0.611-8.009-1.757-15.835-4.188-23.46c-1.534-4.81-3.876-9.338-4.907-14.318c-0.08-0.386,0.017-0.896-0.499-1.101
		c-0.055,0.438-0.194,0.885-0.151,1.315c0.333,3.338,1.238,6.539,2.278,9.72c2.98,9.114,4.838,18.497,6.549,27.914
		c0.138,0.753,0.103,1.625,0.759,2.228C77.718,89.604,77.312,88.784,77.389,88.068z"/>
	<path fill-rule="evenodd" clip-rule="evenodd" d="M58.515,31.392c-1.094,0-1.999-0.011-2.904,0.003
		c-2.86,0.045-5.066-0.422-6.041-3.859c-0.851-3.001-3.63-4.879-6.027-6.818c-1.76-1.423-3.546-2.814-5.08-4.487
		c-0.94-1.026-1.644-2.2-1.619-3.631c0.059-3.265,2.773-4.837,5.573-3.117c5.833,3.586,4.678,3.822,11.425,0.202
		c1.943-1.043,3.672-0.965,5.65-0.013c7.014,3.379,5.129,3.735,12.334-0.178c1.631-0.885,3.216-0.954,4.559,0.191
		c3.429,2.923,6.637,3.151,9.93-0.198c0.829-0.842,1.972-1.31,3.148-0.267c1.355,1.204,2.019,3.095,1.452,4.655
		c-0.508,1.396-1.474,2.477-2.602,3.416c-2.155,1.792-4.329,3.566-6.471,5.375c-0.759,0.641-1.715,1.233-2.124,2.07
		c-1.547,3.166-4.595,3.787-7.485,4.646C67.704,30.727,63.081,31.549,58.515,31.392z M50.793,20.546
		c0.008,0.32,0.164,0.526,0.469,0.619c0.07,0.737,0.453,1.266,1.084,1.63c0.05,0.44,0.207,0.83,0.625,1.039
		c0.166,0.084,0.329-0.039,0.29-0.228c-0.086-0.432-0.317-0.776-0.745-0.956c-0.112-0.723-0.489-1.259-1.138-1.6
		c-0.098-0.308-0.291-0.482-0.63-0.458c-0.045-0.042-0.089-0.083-0.134-0.124C50.673,20.495,50.732,20.521,50.793,20.546z
		 M68.169,20.598c-0.895,0.743-1.007,1.801-1.115,2.847c-0.023,0.232,0.131,0.484,0.202,0.727c0.154-0.171,0.37-0.317,0.453-0.517
		c0.405-0.991,0.652-2.013,0.426-3.092L68.169,20.598z M74.139,24.337c1.217-0.829,1.774-2.19,2.649-3.297
		c0.144-0.183,0.385-0.487,0.043-0.649c-0.14-0.066-0.504,0.136-0.644,0.313c-0.876,1.106-1.892,2.146-2.013,3.669L74.139,24.337z
		 M60.541,23.345c-0.182-0.749-0.145-1.614-0.87-2.109c-0.077-0.054-0.219,0.603-0.168,0.946c0.102,0.7,0.135,1.528,0.731,1.919
		C60.538,24.3,60.46,23.643,60.541,23.345z"/>
	<path fill-rule="evenodd" clip-rule="evenodd" d="M57.629,40.662c-2.152,0.124-5.111-0.311-8.069-0.736
		c-1.146-0.165-2.225-0.526-2.062-1.982c0.184-1.645,1.435-1.629,2.667-1.48c9.192,1.115,18.243,0.664,27.048-2.466
		c0.254-0.092,0.505-0.203,0.768-0.269c1.054-0.27,2.064-0.229,2.502,0.943c0.437,1.167-0.225,1.913-1.275,2.311
		c-1.353,0.513-2.708,1.038-4.099,1.431C69.676,39.944,64.126,40.669,57.629,40.662z"/>
	<path fill-rule="evenodd" clip-rule="evenodd" d="M59.226,36.328c-3.022,0.203-5.792-0.202-8.569-0.57
		c-1.206-0.161-2.178-0.554-2.004-1.98c0.162-1.316,1.207-1.388,2.261-1.337c2.971,0.139,5.905,0.695,8.904,0.579
		c5.449-0.211,10.768-1.032,15.914-2.865c0.086-0.031,0.165-0.078,0.25-0.106c1.212-0.418,2.618-1.012,3.294,0.567
		c0.719,1.676-0.793,2.151-1.959,2.606c-3.294,1.281-6.714,2.099-10.207,2.606C64.428,36.218,61.741,36.572,59.226,36.328z"/>
</g>
</svg>
