<?xml version="1.0" encoding="utf-8"?>
<!-- Generator: Adobe Illustrator 16.0.4, SVG Export Plug-In . SVG Version: 6.00 Build 0)  -->
<!DOCTYPE svg PUBLIC "-//W3C//DTD SVG 1.1//EN" "http://www.w3.org/Graphics/SVG/1.1/DTD/svg11.dtd">
<svg version="1.1" id="Layer_2808" xmlns="http://www.w3.org/2000/svg" xmlns:xlink="http://www.w3.org/1999/xlink" x="0px" y="0px"
	 width="128px" height="128px" viewBox="0 0 128 128" enable-background="new 0 0 128 128" xml:space="preserve">
<g>
	<path fill="none" d="M100.691,22.895c-1.761,0.028-2.109,1.388-2.069,2.985c0.081,3.4,0.025,6.804,0.025,10.208
		c0,3.803-0.018,7.607,0.017,11.407c0.006,0.721-0.256,1.807,1.012,1.717c0.883-0.062,1.832-0.36,2.057-1.419
		c0.146-0.672,0.118-1.391,0.122-2.089c0.007-6.706,0.05-13.412-0.051-20.115C101.789,24.681,102.766,22.864,100.691,22.895z"/>
	<path fill="none" d="M100.955,54.302c-1.52-0.045-2.397,0.946-2.345,2.759c0.122,4.174,0.039,8.358,0.037,12.539
		c0,4.285-0.04,8.572,0.041,12.857c0.011,0.675-0.655,2.098,0.953,1.911c1.039-0.121,2.173-0.479,2.2-1.979
		c0.037-1.889,0.237-3.775,0.247-5.664c0.033-6.554,0.041-13.107-0.007-19.664C102.073,56.036,102.747,54.353,100.955,54.302z"/>
	<path fill="none" d="M100.826,89.425c-1.063,0.102-2.173,0.469-2.17,1.97c0.018,7.075,0.016,14.161,0,21.235
		c0,1.292,0.48,1.54,1.649,1.071c1.377-0.555,1.592-1.334,1.574-2.629c-0.04-3.287-0.012-6.572-0.012-9.572
		c-0.006,0-0.009,0-0.014,0c0-3,0.046-6.666-0.036-9.852C101.801,90.939,102.394,89.275,100.826,89.425z"/>
	<path fill="none" d="M102.8,11.029c-1.624-0.763-3.261-1.537-4.961-2.086c-10.87-3.522-22.096-4.42-34.57-4.403
		C57.19,4.467,49.998,4.785,42.875,5.948c-6.214,1.013-12.375,2.289-18.04,5.236c-2.114,1.098-2.083,2.097,0.011,3.232
		c3.019,1.63,6.229,2.748,9.544,3.482c18.099,3.998,36.286,4.09,54.514,0.982c4.836-0.822,9.585-1.987,13.947-4.35
		c0.763-0.414,1.852-0.698,1.825-1.765C104.649,11.727,103.585,11.398,102.8,11.029z"/>
	<path d="M107.011,106.186c0.018-6.103,0.03-12.209-0.009-18.312c-0.008-1.357,0.312-2.44,1.191-3.556
		c2.082-2.637,2.162-5.296,0.152-7.981c-0.968-1.294-1.396-2.559-1.392-4.107c0.011-6.195,0.062-12.392-0.065-18.585
		c-0.04-1.895,0.173-3.508,1.457-4.983c1.688-1.934,2.18-4.353,0.586-6.337c-2.113-2.635-1.948-5.498-1.921-8.479
		c0.034-4.003,0.011-8.006,0-12.007c-0.005-1.213,0.153-2.235,1.057-3.274c3.031-3.477,2.445-7.615-1.275-10.363
		c-3.117-2.306-6.712-3.567-10.401-4.465C77.356-0.904,58.17-1,38.925,2.142c-6.116,0.997-12.166,2.379-17.487,5.87
		c-2.393,1.565-3.333,3.654-3.329,6.565c0.003,2.082,1.293,3.296,2.31,4.674c0.107,3.68,0.226,14.503,0.277,19.43
		c-0.185,1.056-0.556,2.052-1.338,3.013c-1.507,1.853-1.866,4.319-0.377,6.149c2.076,2.553,1.861,5.334,1.864,8.203
		c0.004,5.503,0.007,11.007,0.033,16.51c0.007,1.326-0.253,2.461-1.087,3.613c-2.244,3.1-2.224,5.044,0.017,8.209
		c0.749,1.056,1.05,2.083,1.045,3.325c-0.021,6.204-0.02,12.408,0.008,18.61c0.004,1.141-0.236,2.053-0.994,3.005
		c-3.007,3.785-2.355,7.857,1.627,10.562c3.787,2.572,8.103,3.893,12.505,4.848c18.408,3.986,36.901,4.09,55.431,0.937
		c5.826-0.99,11.594-2.313,16.675-5.532c4.364-2.764,5.054-6.925,1.843-10.911C107.178,108.263,107.006,107.31,107.011,106.186z
		 M61.365,69.446l-15.35-15.35l15.35-15.35l15.35,15.35L61.365,69.446z M101.854,101.5c0.005,0,0.008,0,0.014,0
		c0,3-0.028,6.285,0.012,9.572c0.018,1.295-0.197,2.168-1.574,2.722c-1.169,0.47-1.649,0.174-1.649-1.118
		c0.016-7.074,0.018-14.183,0-21.258c-0.003-1.501,1.106-1.88,2.17-1.981c1.567-0.149,0.975,1.508,0.992,2.217
		C101.9,94.84,101.854,98.5,101.854,101.5z M102.089,76.725c-0.01,1.889-0.21,3.775-0.247,5.664c-0.027,1.5-1.161,1.858-2.2,1.979
		c-1.608,0.187-0.942-1.236-0.953-1.911c-0.081-4.285-0.041-8.572-0.041-12.857c0.002-4.181,0.085-8.364-0.037-12.539
		c-0.053-1.813,0.825-2.804,2.345-2.759c1.792,0.051,1.118,1.734,1.127,2.759C102.13,63.617,102.122,70.171,102.089,76.725z
		 M101.854,45.704c-0.004,0.698,0.024,1.417-0.122,2.089c-0.225,1.059-1.174,1.357-2.057,1.419c-1.268,0.09-1.006-0.997-1.012-1.717
		c-0.034-3.8-0.017-7.604-0.017-11.407c0-3.404,0.056-6.807-0.025-10.208c-0.04-1.597,0.309-2.957,2.069-2.985
		c2.074-0.031,1.098,1.786,1.112,2.694C101.904,32.292,101.861,38.999,101.854,45.704z M102.852,14.531
		c-4.362,2.362-9.111,3.528-13.947,4.35c-18.229,3.108-36.415,3.015-54.514-0.982c-3.315-0.735-6.525-1.853-9.544-3.482
		c-2.094-1.135-2.125-2.134-0.011-3.232c5.664-2.948,11.825-4.223,18.04-5.236C49.998,4.785,57.19,4.467,63.269,4.54
		c12.475-0.017,23.7,0.881,34.57,4.403c1.7,0.549,3.337,1.323,4.961,2.086c0.785,0.369,1.85,0.698,1.877,1.737
		C104.703,13.833,103.614,14.118,102.852,14.531z"/>
</g>
</svg>
