<?xml version="1.0" encoding="utf-8"?>
<!-- Generator: Adobe Illustrator 16.0.4, SVG Export Plug-In . SVG Version: 6.00 Build 0)  -->
<!DOCTYPE svg PUBLIC "-//W3C//DTD SVG 1.1//EN" "http://www.w3.org/Graphics/SVG/1.1/DTD/svg11.dtd">
<svg version="1.1" id="Layer_2814" xmlns="http://www.w3.org/2000/svg" xmlns:xlink="http://www.w3.org/1999/xlink" x="0px" y="0px"
	 width="128px" height="128px" viewBox="0 0 128 128" enable-background="new 0 0 128 128" xml:space="preserve">
<g id="_x33_G7K92.tif">
	<g>
		<path fill-rule="evenodd" clip-rule="evenodd" d="M63.99,90.134c-14.234,0-28.469-0.014-42.704,0.008
			c-4.558,0.008-8.795-1.274-12.376-3.923c-5.224-3.862-8.255-9.184-8.676-15.786C-0.557,58.059,9.473,47.845,21.744,48.07
			c4.875,0.088,9.752,0.008,14.627,0.01c2.201,0,2.217,0.006,2.215,2.158c-0.006,8.415-0.022,16.83-0.034,25.244
			c-0.001,0.708,0.036,1.418,0.001,2.123c-0.043,0.858,0.275,1.35,1.181,1.362c0.86,0.013,1.583-0.151,1.604-1.231
			c0.001-0.079,0.003-0.158,0.01-0.236c0.285-3.016,0.286-3.071,3.249-2.991c1.884,0.05,3.751-0.235,5.648-0.078
			c1.233,0.103,1.681,0.581,1.654,1.711c-0.01,0.393,0.004,0.791-0.063,1.175c-0.188,1.066,0.133,1.555,1.313,1.66
			c1.209,0.107,1.49-0.438,1.625-1.441c0.128-0.948,0.049-1.883,0.049-2.824c-0.009-8.179-0.017-16.358-0.004-24.538
			c0.004-2.059,0.04-2.085,2.08-2.086c16.673-0.007,33.346-0.045,50.018,0.015c8.644,0.032,16.282,5.356,19.408,13.309
			c3.135,7.977,1.225,16.675-4.979,22.767c-4.071,3.999-9.021,5.913-14.651,5.938C92.46,90.176,78.225,90.135,63.99,90.134z"/>
		<path fill-rule="evenodd" clip-rule="evenodd" d="M64.011,41.957c-2.899,0-5.798,0.032-8.696-0.012
			c-1.616-0.024-2.155-0.503-2.269-1.764c-0.125-1.387,0.368-2.043,1.76-2.263c0.46-0.073,0.937-0.058,1.406-0.059
			c5.171-0.005,10.341-0.004,15.511-0.005c0.235,0,0.471-0.006,0.705,0.007c1.938,0.102,2.511,0.566,2.517,2.034
			c0.008,1.471-0.614,2.035-2.474,2.061c-2.819,0.039-5.641,0.01-8.46,0.01C64.011,41.962,64.011,41.96,64.011,41.957z"/>
		<path fill-rule="evenodd" clip-rule="evenodd" d="M63.98,47.155c-2.509,0-5.019,0.021-7.529-0.008
			c-1.677-0.02-1.68-0.053-1.736-1.734c-0.013-0.392,0.008-0.785,0.01-1.177c0.004-0.841,0.343-1.33,1.266-1.285
			c0.626,0.03,1.255,0.001,1.882,0.001c4.471-0.001,8.941-0.014,13.412,0.004c1.903,0.008,1.902,0.039,1.967,1.757
			c0.087,2.369,0.025,2.434-2.447,2.44C68.529,47.161,66.255,47.155,63.98,47.155z"/>
		<path fill-rule="evenodd" clip-rule="evenodd" d="M46.676,61.901c-0.314,0-0.632,0.029-0.943-0.005
			c-1.301-0.143-3.176,0.633-3.788-0.407c-0.879-1.497-0.339-3.509-0.246-5.3c0.036-0.69,0.624-0.834,1.209-0.835
			c2.593-0.004,5.185,0.002,7.778,0.004c0.774,0,1.129,0.367,1.115,1.159c-0.025,1.414-0.02,2.828,0,4.242
			c0.011,0.784-0.319,1.146-1.12,1.132c-1.335-0.022-2.67-0.006-4.006-0.006C46.676,61.891,46.676,61.896,46.676,61.901z"/>
		<path fill-rule="evenodd" clip-rule="evenodd" d="M46.354,71.428c-1.178,0-2.364-0.084-3.531,0.025
			c-0.904,0.086-1.09-0.373-1.171-1.065c-0.009-0.078-0.008-0.156-0.018-0.235c-0.59-5.194-0.573-5.214,4.619-5.21
			c1.101,0.002,2.201-0.002,3.302,0.011c2.223,0.026,2.225,0.03,2.251,2.14c0.008,0.708,0.007,1.416,0.001,2.122
			c-0.022,2.217-0.024,2.248-2.168,2.288c-1.092,0.021-2.188-0.097-3.281-0.152C46.357,71.376,46.356,71.402,46.354,71.428z"/>
		<path fill-rule="evenodd" clip-rule="evenodd" d="M46.525,52.409c-1.327,0-2.653,0.008-3.979-0.004
			c-0.385-0.004-0.868-0.02-0.88-0.531c-0.025-1.087-0.006-2.179,0.077-3.262c0.036-0.481,0.531-0.515,0.914-0.517
			c2.731-0.01,5.462-0.003,8.193-0.004c0.703,0,0.956,0.399,0.946,1.043c-0.002,0.156,0.007,0.312,0.008,0.468
			c0.005,3.455,0.058,2.712-2.705,2.817c-0.856,0.032-1.716,0.005-2.575,0.005C46.525,52.419,46.525,52.414,46.525,52.409z"/>
	</g>
</g>
</svg>
