<?xml version="1.0" encoding="utf-8"?>
<!-- Generator: Adobe Illustrator 16.0.4, SVG Export Plug-In . SVG Version: 6.00 Build 0)  -->
<!DOCTYPE svg PUBLIC "-//W3C//DTD SVG 1.1//EN" "http://www.w3.org/Graphics/SVG/1.1/DTD/svg11.dtd">
<svg version="1.1" id="Layer_2845" xmlns="http://www.w3.org/2000/svg" xmlns:xlink="http://www.w3.org/1999/xlink" x="0px" y="0px"
	 width="128px" height="128px" viewBox="0 0 128 128" enable-background="new 0 0 128 128" xml:space="preserve">
<g>
	<path d="M100.5,41.5v-6h-1c0-1,0-0.302,0-0.378c-1-3.251-0.646-6.528-1.357-9.746c-0.75-3.38-1.388-6.802-2.61-10.025
		c-1.164-3.069,0.19-6.243-1.021-9.384c-0.781-2.024-1.51-3.265-3.455-3.778c-1.533-0.404-3.064-0.781-4.637-0.942
		c-6.617-0.676-13.238-1.188-19.893-1.085c-7.079,0.109-21.172,0.192-28.121,1.803c-3.045,0.706-6.393,5.569-5.335,8.389
		c0.652,1.739,0.383,3.071-0.12,4.525C30.637,21.571,29.275,27.5,28.823,35.5H26.5v6h2.141c-0.024,12-0.021,25-0.094,38H26.5v6
		h2.014c-0.004,3,0.047,6.338,0.331,9.538c0.602,6.782,1.559,13.454,4.158,19.825c2.149,5.271,5.226,9.12,10.817,10.472
		c0.699,0.17,0.68,0.309,1.68,0.456v1.709h36v-1.787c1-0.133,1.77-0.27,2.369-0.419c5.238-1.304,9.075-4.727,11.145-9.738
		c1.606-3.89,2.602-7.879,3.232-12.049c0.471-3.122,0.254-6.237,1.254-9.355c0-2.933,0-6.651,0-8.651h1v-6h-1c0-13,0-26,0-38H100.5z
		 M85.604,73.309c-0.236-0.012-0.474,0.191-0.711,0.191c-6.797,0-13.595,0-20.393,0c-6.916,0-13.832-0.193-20.749-0.195
		c-0.196,0-0.506-0.047-0.565-0.142c-0.034-0.055-0.035-0.131-0.023-0.189c-0.003-0.156,0.156-0.321,0.24-0.466
		c6.02-10.432,12.044-20.866,18.068-31.295c0.929-1.607,1.859-3.215,2.791-4.82c0.233-0.401,0.242-0.404,0.473-0.003
		c2.579,4.461,5.156,8.924,7.734,13.386c3.96,6.855,7.92,13.711,11.88,20.566c0.474,0.82,0.942,1.705,1.42,2.523
		c0.062,0.105,0.093,0.238,0.072,0.306C85.822,73.238,85.75,73.315,85.604,73.309z"/>
</g>
</svg>
