<?xml version="1.0" encoding="utf-8"?>
<!-- Generator: Adobe Illustrator 16.0.4, SVG Export Plug-In . SVG Version: 6.00 Build 0)  -->
<!DOCTYPE svg PUBLIC "-//W3C//DTD SVG 1.1//EN" "http://www.w3.org/Graphics/SVG/1.1/DTD/svg11.dtd">
<svg version="1.1" id="Layer_2846" xmlns="http://www.w3.org/2000/svg" xmlns:xlink="http://www.w3.org/1999/xlink" x="0px" y="0px"
	 width="128px" height="128px" viewBox="0 0 128 128" enable-background="new 0 0 128 128" xml:space="preserve">
<g>
	<path fill-rule="evenodd" clip-rule="evenodd" d="M64.48,127.845c-6.167,0-12.335,0.047-18.501-0.012
		c-7.179-0.066-12.29-5.325-13.543-12.352c-0.238-1.333-0.531-2.681-0.557-4.026c-0.256-13.194-0.701-26.387,0.232-39.576
		c0.594-8.4,1.986-16.617,4.909-24.548c0.729-1.979,1.542-3.873,2.788-5.593c2.446-3.377,4.367-7.127,7.501-10.016
		c1.821-1.677,0.789-4.175,1.319-6.255c0.304-1.19-1.169-2.395-0.361-3.862c0.372-0.676-0.515-0.644-0.913-0.739
		c-2.121-0.503-2.557-2.049-2.552-3.932c0.012-4.195-0.054-8.391,0.011-12.584c0.051-3.353,1.018-4.305,4.53-4.336
		C56.499-0.05,63.655-0.008,70.81-0.008c2.716,0,5.432-0.061,8.144,0.026c3.321,0.106,4.402,1.176,4.476,4.521
		c0.087,3.947,0.049,7.896,0.018,11.844c-0.016,2.073-0.357,3.999-2.881,4.501c-0.315,0.063-0.881-0.024-0.845,0.394
		c0.365,4.21-1.425,8.785,2.41,12.4c3.819,3.6,6.629,8.075,8.607,12.818c2.071,4.963,3.313,10.279,4.163,15.66
		c1.506,9.549,1.561,19.157,1.553,28.775c-0.005,6.045-0.108,12.092-0.159,18.137c-0.027,3.228-0.366,6.438-1.535,9.442
		c-2.142,5.507-5.991,8.81-12.154,9.232C76.564,128.158,70.523,128.054,64.48,127.845z M37.306,96.247
		c0.113,2.778,0.253,7.538,0.515,12.291c0.275,5.03,2.194,7.068,7.056,8.176c4.247,0.971,8.368,0.051,12.514-0.514
		c4.162-0.567,8.264-1.356,12.508-0.381c2.681,0.617,5.461,0.879,8.213,1.094c6.69,0.52,12.103-1.89,12.294-10.182
		c0.269-11.628,0.638-23.235-0.229-34.851c-0.975-13.077-3.8-25.397-13.9-34.827c-0.738-0.689-1.25-1.469-1.242-2.587
		c0.015-2.694-0.029-2.743-2.595-2.765c-4.431-0.04-8.86-0.013-13.289-0.011c-1.44,0-2.88-0.004-4.32,0.021
		c-1.255,0.022-2.374,0.577-1.987,1.92c0.554,1.924-0.625,2.81-1.636,3.991c-3.085,3.605-6.24,7.156-8.248,11.553
		c-2.417,5.291-3.75,10.867-4.446,16.588C37.362,75.227,37.063,84.739,37.306,96.247z"/>
	<path fill-rule="evenodd" clip-rule="evenodd" d="M37.839,65.011c0.26,0,0.56,0.04,0.816,0.004
		c0.125,0.032,0.243,0.021,0.355-0.038c0.202-0.123,0.101-0.352,0.413-0.352c-0.011,0.154,0.042,0.421,0.243,0.416
		c0.328-0.008,0.086-0.266,0.237-0.395c0.61-0.52,0.513,0.459,0.982,0.339c0.196-0.049,0.176-0.328,0.394-0.396
		c0.182-0.055,0.458,0.104,0.634,0.03c0.496-0.21,0.005-0.9-0.167-1.231c-0.149-0.286-0.462-0.855-0.218-1.182
		c-0.004,0.005,0.4-0.182,0.415-0.188c0.354-0.147,0.46-0.156,0.727-0.462c0.222-0.255,0.607-0.683,1.015-0.37
		c0.447,0.344,0.249,1,1.024,1.018c0.04,0.443,0.226,0.71,0.264,1.154c0.367,0.094,0.806,0.031,1.188,0.029
		c0.194,0,0.422-0.029,0.614-0.004c0.197,0.025,0.305,0.13,0.445,0.162c0.469,0.104,0.751,0.011,1.173-0.208
		c0.203-0.105,0.407-0.212,0.614-0.31c0.074-0.035,0.541-0.273,0.604-0.269c0.308,0.022,0.409,0.46,0.649,0.589
		c0.29,0.154,0.81,0.032,1.132,0.085c0.233,0.038,0.111,0.164,0.446,0.118c0.243-0.033,0.343-0.306,0.629-0.138
		c0.261,0.153,0.069,0.378,0.223,0.543c0.201,0.214,0.51,0.235,0.776,0.248c0.379,0.019,0.864-0.104,1.229-0.015
		c0.183,0.043,0.202,0.205,0.39,0.229c0.287,0.034,0.256-0.096,0.457-0.169c0.73-0.26,1.362-0.308,1.836-1.009
		c0.224-0.331-0.009-0.711,0.189-1.028c0.203-0.326,0.65-0.304,0.974-0.204c0.477,0.147,0.687,0.374,1.217,0.365
		c0.138-0.002,0.503-0.066,0.624-0.014c0.339,0.147,0.114,0.325,0.178,0.635c0.254,1.244,1.189,0.142,1.837-0.027
		c0.292-0.076,0.918-0.062,1.03,0.203c0.076,0.178-0.116,0.398,0.016,0.583c0.182,0.256,0.539,0.181,0.781,0.238
		c0.434,0.103,0.748,0.283,1.222,0.213c0.438-0.065,0.486-0.307,0.853-0.562c0.662-0.459,1.451-0.723,2.131-0.202
		c0.631,0.482,1.181,1.028,2.04,0.719c0.33-0.118,0.706-0.472,1.06-0.624c0.191-0.083,0.366-0.138,0.564-0.197
		c0.335-0.098,0.155-0.14,0.502,0c0.337,0.137,0.566,0.211,0.919,0.296c0.194,0.047,0.125,0.248,0.4,0.134
		c0.094-0.04,0.357-0.491,0.411-0.583c0.427-0.719,0.614-1.503,1.669-1.232c1.099,0.283,0.846,1.544,1.664,2.003
		c0.18,0.101,0.378,0.027,0.57,0.035c0.316,0.014,0.508,0.167,0.81,0.219c0.437,0.077,0.976-0.011,1.422-0.01
		c0.192,0,0.423,0.032,0.613,0.004c0.412-0.059,0.275-0.117,0.593-0.36c0.363-0.278,0.786-0.609,1.224-0.663
		c0.201-0.025,0.418,0.036,0.619,0.008c0.427-0.057,0.317-0.054,0.553-0.415c0.209-0.319,0.492-0.439,0.811-0.573
		c0.301,0.208,0.345,0.663,0.459,0.984c0.183,0.515,0.317,0.564,0.755,0.789c0.159-0.394,0.544-0.365,0.816-0.637
		c0.225-0.224,0.303-0.469,0.508-0.709c0.188-0.221,0.469-0.543,0.756-0.624c0.32-0.089,0.326,0.045,0.614,0.123
		c0.271,0.073,0.532,0.044,0.812,0.044c0.179,0,0.445,0.052,0.618,0.011c0.143-0.035,0.253-0.261,0.399-0.238
		c0.377,0.06,0.179,0.753,0.194,1.035c0.031,0.554,0.25,1.078,0.36,1.623c0.164,0.816,0.249,1.627,0.411,2.439
		c0.289,1.438-0.17,2.982,0.091,4.424c0.103,0.569,0.122,1.167,0.306,1.715c0.192,0.572,0.409,1.175,0.653,1.716
		c0.18,0.397,0.381,0.567,0.431,1.03c0.03,0.284-0.015,0.61-0.015,0.896c-0.001,0.391,0.043,0.803,0.011,1.188
		c-0.03,0.357-0.186,0.653-0.225,1.009c-0.115,1.052,0.099,2.084,0.259,3.092c0.18,1.119,0.624,2.259,0.568,3.397
		c-0.028,0.569-0.186,1.044-0.18,1.625c0.008,0.798,0.025,1.596,0.025,2.395c0,0.746,0,1.492,0,2.238
		c0,0.662-0.131,1.177-0.234,1.822c-0.223,1.362-0.802,2.674-1.017,4.046c-0.153,0.973-0.307,1.735-0.059,2.691
		c0.218,0.835,0.042,1.93,0.042,2.797c0,0.488-0.013,0.979,0,1.468c0.011,0.446,0.177,0.783,0.206,1.215
		c0.058,0.838,0.162,2.043-0.05,2.84c-0.253,0.949-0.572,1.991-0.564,3c0.005,0.551-0.047,0.991-0.157,1.516
		c-0.13,0.62-0.035,1.208-0.199,1.82c-0.26,0.966-0.716,1.856-1.064,2.797c-0.164,0.445-0.197,0.926-0.605,1.233
		c-0.468,0.349-1.07,0.147-1.627,0.184c-0.555,0.034-1.149,0.313-1.7,0.455c-1.272,0.329-2.627,0.794-3.933,0.94
		c-0.771,0.086-1.539-0.041-2.307,0.073c-0.539,0.08-0.999,0.173-1.548,0.165c-1.11-0.018-2.146,0.209-3.254,0.191
		c-0.47-0.007-0.801,0.072-1.252,0.164c-0.478,0.097-0.952,0.003-1.431,0.089c-0.895,0.159-1.883,0.332-2.792,0.371
		c-1.764,0.078-3.555-0.01-5.321-0.01c-1.267,0-2.534-0.004-3.8,0c-0.761,0.002-1.349-0.068-2.085-0.254
		c-0.828-0.207-1.644-0.539-2.498-0.562c-0.602-0.017-1.208,0.009-1.81,0.005c-0.823-0.004-1.586,0.219-2.4,0.208
		c-0.691-0.01-1.385,0.018-2.076,0c-0.844-0.022-1.261-0.326-1.978-0.676c-0.768-0.373-1.595-0.548-2.437-0.548
		c-0.501,0.001-0.96,0.057-1.424-0.146c-0.173-0.076-0.462-0.165-0.615-0.253c-0.254-0.15-0.358-0.412-0.598-0.625
		c-0.333-0.296-0.572-0.472-1.016-0.35c-0.429,0.117-0.75,0.178-1.216,0.161c-1.079-0.038-1.28-1.213-1.41-2.033
		c-0.056-0.356-0.276-0.708-0.367-1.061c-0.146-0.569-0.287-1.155-0.405-1.73c-0.17-0.834-0.566-1.66-0.659-2.485
		c-0.041-0.359-0.188-0.652-0.208-1.016c-0.026-0.477-0.046-0.805-0.153-1.263c-0.119-0.509,0.029-1.024-0.091-1.534
		c-0.101-0.432-0.175-0.844-0.311-1.263c-0.264-0.82-0.296-1.619-0.501-2.444c-0.094-0.384-0.285-0.782-0.41-1.163
		c-0.105-0.317-0.22-0.71-0.356-1.06c-0.285-0.734-0.382-1.514-0.563-2.268c-0.09-0.374-0.007-0.712-0.035-1.086
		c-0.024-0.327-0.425-0.582-0.474-0.897c-0.097-0.626-0.237-1.35-0.237-1.989c0-2.047,0-4.093,0-6.142
		c0-0.943,0.153-1.954,0.294-2.885c0.167-1.099,0.399-2.316,0.292-3.445c-0.053-0.555-0.233-1.002-0.162-1.583
		c0.088-0.729,0.312-1.482,0.503-2.192c0.161-0.599,0.211-1.214,0.319-1.821c0.097-0.536-0.036-1.086,0.043-1.618
		c0.142-0.948,0.507-1.823,0.881-2.689c0.166-0.385,0.329-0.803,0.356-1.217c0.029-0.434-0.29-0.82-0.207-1.219L37.839,65.011z"/>
</g>
</svg>
