<?xml version="1.0" encoding="utf-8"?>
<!-- Generator: Adobe Illustrator 16.0.4, SVG Export Plug-In . SVG Version: 6.00 Build 0)  -->
<!DOCTYPE svg PUBLIC "-//W3C//DTD SVG 1.1//EN" "http://www.w3.org/Graphics/SVG/1.1/DTD/svg11.dtd">
<svg version="1.1" id="Layer_2850" xmlns="http://www.w3.org/2000/svg" xmlns:xlink="http://www.w3.org/1999/xlink" x="0px" y="0px"
	 width="128px" height="128px" viewBox="0 0 128 128" enable-background="new 0 0 128 128" xml:space="preserve">
<g>
	<g>
		<path d="M27.814,116.33c0,1.409-0.119,2.826,0.489,4.192c0.052,0.041,0.104,0.079,0.156,0.12l-0.004-0.002
			c0.191,0.279,0.31,0.581,0.523,0.86c0.756,0.994,1.994,1.618,3.08,2.354c1.045,0.709,2.321,1.132,3.59,1.565
			c1.838,0.631,8.283,1.18,10.244,1.553c1.194,0.227,2.417,0.298,3.635,0.415c1.738,0.167,3.478,0.245,5.226,0.301
			c2.409,0.075,4.8-0.175,7.18-0.391c3.357-0.306,12.544-1.301,15.553-2.431c1.565-0.588,2.794-1.519,4.06-2.405
			c0.173-0.121,0.305-0.271,0.455-0.41c1.266-1.186,1.691-2.581,1.694-4.063c0.01-10.864,0.004-3.177,0.004-14.042
			c0-22.287,0.004-43.415-0.002-65.703c-0.002-1.275-0.276-2.534-0.553-3.784c-0.356-1.607-1.328-3.049-2.38-4.453
			c-0.337-0.449-0.714-0.871-1.076-1.316c-3.311-4.071-15.442-6.133-17.145-6.788c-0.916-0.353-1.367-0.888-1.354-1.665
			c0.01-0.637,0.003-1.274,0-1.911c-0.006-1.212,0.137-0.837-1.443-0.848c-0.846-0.006-1.11,1.02-1.193,0.02h-4.057
			c-0.02,0-0.048-0.087-0.129-0.077c-0.361,0.042-0.797,0.255-1.06,0.102C53.266,17.5,53.222,17.5,53.179,17.5h-1.695
			c-0.068,1-0.228-0.003-0.525-0.004c-0.469-0.001-0.942-0.121-1.412-0.114c-0.676,0.01-0.725-0.019-0.73,0.483
			c-0.011,0.815,0,1.603-0.008,2.419c-0.007,0.743-0.438,1.277-1.314,1.621c-0.672,0.266-1.342,0.529-2,0.816
			c-1.088,0.474-9.983,2.664-13.218,6.664c-0.315,0.391-0.619,0.734-0.949,1.09c-0.845,0.914-1.486,1.913-2.088,2.925
			c-0.595,1.005-0.195,2.104-0.5,3.169c-0.208,0.733,0.228,1.485,0.228,2.243L27.814,116.33z"/>
		<g id="JPqyOo.tif_1_">
			<g>
				<path fill-rule="evenodd" clip-rule="evenodd" d="M55.839,0.087c1.769,0.017,3.519,0.147,5.214,0.711
					c1.229,0.41,1.971,1.149,1.775,2.556c-0.038,0.266-0.018,0.541-0.02,0.812c-0.037,3.192-0.71,4.057-3.767,4.744
					c-0.911,0.205-1.733,0.232-2.142,1.438c-0.336,0.995-2.286,0.858-2.601-0.209c-0.309-1.044-0.929-1.135-1.738-1.322
					C51.777,8.633,51,8.346,50.277,7.987c-0.97-0.481-1.475-1.254-1.522-2.426c-0.162-4.12,0.542-4.978,4.648-5.338
					C54.213,0.153,55.026,0.132,55.839,0.087z M61.773,2.989c-0.074-0.52-0.516-0.554-0.889-0.668
					c-2.781-0.851-5.598-0.954-8.452-0.414c-0.862,0.164-1.766,0.198-2.406,0.893c-0.156,0.169,0.097,0.372,0.263,0.439
					c1.045,0.423,2.068,1.084,3.26,0.473c0.176-0.089,0.291-0.319,0.468-0.379c1.124-0.374,2.427-0.658,3.284,0.173
					c0.669,0.646,1.155,0.707,1.913,0.536c0.796-0.177,1.605-0.286,2.306-0.739C61.626,3.234,61.689,3.097,61.773,2.989z"/>
				<path fill-rule="evenodd" clip-rule="evenodd" d="M57.777,13.851c0,0.908,0.032,1.817-0.008,2.723
					c-0.057,1.257-0.584,1.689-1.984,1.716c-1.429,0.028-2.199-0.493-2.348-1.605c-0.037-0.264-0.01-0.535-0.035-0.8
					c-0.061-0.597-0.078-1.107-0.938-0.548c-0.891,0.581-2.027,0.482-2.955,0.232c-1.475-0.397-1.198-1.837-1.231-2.958
					c-0.046-1.594,0.342-2.349,1.257-2.436c0.985-0.094,2.027-0.311,2.947,0.348c0.455,0.326,0.779-0.148,1.055-0.197
					c1.359-0.239,2.785-0.146,4.184-0.098c0.182,0.006,0.137,0.476,0.137,0.739c0.004,0.961,0.002,1.922,0.002,2.884
					C57.832,13.851,57.805,13.851,57.777,13.851z M50.342,12.854c-0.168-0.661,0.168-1.967-0.814-1.99
					c-0.676-0.016-0.595,1.351-0.536,2.107c0.055,0.717-0.194,1.958,0.748,1.957C50.441,14.926,50.268,13.703,50.342,12.854z"/>
			</g>
		</g>
	</g>
</g>
</svg>
