<?xml version="1.0" encoding="utf-8"?>
<!-- Generator: Adobe Illustrator 16.0.4, SVG Export Plug-In . SVG Version: 6.00 Build 0)  -->
<!DOCTYPE svg PUBLIC "-//W3C//DTD SVG 1.1//EN" "http://www.w3.org/Graphics/SVG/1.1/DTD/svg11.dtd">
<svg version="1.1" id="Layer_2901" xmlns="http://www.w3.org/2000/svg" xmlns:xlink="http://www.w3.org/1999/xlink" x="0px" y="0px"
	 width="128px" height="128px" viewBox="0 0 128 128" enable-background="new 0 0 128 128" xml:space="preserve">
<g>
	<g id="JPqyOo.tif">
		<g>
			<path d="M64.575,0.234c1.209,0.011,2.405,0.101,3.562,0.485C68.979,1,69.484,1.505,69.35,2.465
				c-0.024,0.182-0.011,0.369-0.013,0.554c-0.026,2.18-0.485,2.771-2.573,3.24c-0.621,0.14-1.184,0.159-1.463,0.982
				c-0.229,0.68-1.562,0.585-1.777-0.143c-0.211-0.714-0.634-0.775-1.187-0.903c-0.536-0.125-1.066-0.321-1.56-0.566
				c-0.663-0.328-1.008-0.856-1.04-1.657c-0.111-2.814,0.37-3.4,3.174-3.646C63.465,0.279,64.021,0.264,64.575,0.234z M68.63,2.215
				c-0.051-0.355-0.354-0.378-0.606-0.456c-1.899-0.582-3.824-0.651-5.774-0.282c-0.588,0.111-1.206,0.135-1.643,0.609
				c-0.107,0.116,0.066,0.254,0.18,0.3c0.714,0.288,1.412,0.74,2.226,0.323c0.12-0.062,0.199-0.218,0.321-0.259
				c0.767-0.256,1.657-0.449,2.242,0.118c0.457,0.442,0.788,0.483,1.308,0.367c0.542-0.121,1.098-0.195,1.574-0.505
				C68.529,2.384,68.572,2.289,68.63,2.215z"/>
			<path d="M66.268,11.171c0,0.788,0.027,1.578-0.008,2.364c-0.049,1.091-0.506,1.466-1.722,1.49
				c-1.241,0.024-1.91-0.428-2.04-1.394c-0.031-0.229-0.008-0.464-0.031-0.694c-0.052-0.518-0.068-0.961-0.813-0.476
				c-0.774,0.504-1.761,0.419-2.566,0.202c-1.281-0.345-1.041-1.596-1.069-2.569c-0.04-1.383,0.296-2.04,1.092-2.115
				c0.855-0.081,1.76-0.27,2.559,0.303c0.395,0.283,0.675-0.129,0.915-0.171c1.181-0.208,2.419-0.127,3.634-0.085
				c0.156,0.005,0.118,0.413,0.118,0.642c0.003,0.834,0.001,1.669,0.001,2.504C66.312,11.171,66.291,11.171,66.268,11.171z
				 M59.811,10.306c-0.146-0.574,0.145-1.708-0.708-1.728c-0.585-0.014-0.517,1.173-0.466,1.83c0.048,0.622-0.169,1.7,0.649,1.699
				C59.897,12.105,59.746,11.043,59.811,10.306z"/>
		</g>
	</g>
	<g>
		<path d="M48.889,117.771c0,1.238-0.08,2.453,0.327,3.652c0.035,0.036,0.07,0.075,0.104,0.075h-0.002
			c0.127,0,0.206,0.541,0.348,0.785c0.506,0.876,1.333,1.438,2.059,2.084c0.698,0.623,1.552,1.001,2.399,1.382
			c1.23,0.555,2.482,1.041,3.792,1.368c0.798,0.2,1.616,0.262,2.43,0.364c1.163,0.147,2.327,0.219,3.494,0.268
			c1.611,0.066,3.21-0.152,4.801-0.343c2.243-0.269,4.312-1.144,6.321-2.136c1.047-0.517,1.868-1.334,2.715-2.113
			c0.114-0.105,0.203-0.238,0.304-0.361c0.848-1.04,1.131-2.268,1.133-3.568c0.007-9.545,0.003-19.09,0.003-28.636
			c0.001-19.583,0.002-39.164-0.001-58.747c-0.002-1.12-0.186-2.227-0.37-3.325c-0.237-1.412-0.888-2.679-1.591-3.912
			c-0.225-0.394-0.461-0.784-0.719-1.156c-0.724-1.039-1.67-1.875-2.561-2.76c-0.073-0.073-0.163-0.131-0.248-0.193
			c-1.025-0.76-2.118-1.417-3.257-1.992c-0.612-0.31-0.914-0.78-0.906-1.463c0.009-0.56,0.003-1.119,0.001-1.679
			c-0.004-1.065,0.092-0.805-0.966-0.815c-0.563-0.005-0.741-0.053-0.797-0.053h-5.355c-0.013,0-0.032-0.006-0.085,0.002
			c-0.242,0.038-0.533,0.189-0.709,0.055c-0.029-0.021-0.057-0.057-0.086-0.057h-1.132c-0.046,0-0.153,0.067-0.351,0.067
			c-0.314-0.002-0.63-0.072-0.944-0.066c-0.452,0.009-0.483,0.001-0.488,0.442c-0.008,0.717,0,1.417-0.005,2.134
			c-0.005,0.653-0.292,1.126-0.878,1.429c-0.45,0.233-0.897,0.467-1.337,0.719c-0.728,0.416-1.458,0.843-2.089,1.388
			c-0.856,0.739-1.654,1.544-2.369,2.429c-0.245,0.302-0.414,0.646-0.635,0.959c-0.565,0.803-0.994,1.682-1.396,2.572
			c-0.399,0.883-0.13,1.848-0.333,2.784c-0.14,0.645,0.151,1.305,0.151,1.971L48.889,117.771z"/>
	</g>
</g>
</svg>
