<?xml version="1.0" encoding="utf-8"?>
<!-- Generator: Adobe Illustrator 16.0.4, SVG Export Plug-In . SVG Version: 6.00 Build 0)  -->
<!DOCTYPE svg PUBLIC "-//W3C//DTD SVG 1.1//EN" "http://www.w3.org/Graphics/SVG/1.1/DTD/svg11.dtd">
<svg version="1.1" id="Layer_2902" xmlns="http://www.w3.org/2000/svg" xmlns:xlink="http://www.w3.org/1999/xlink" x="0px" y="0px"
	 width="128px" height="128px" viewBox="0 0 128 128" enable-background="new 0 0 128 128" xml:space="preserve">
<g>
	<path fill="#FFFFFF" d="M92.693,87.336c-0.006-0.575,0.211-1.046,0.238-1.609c0.056-1.129-0.306-2.258-0.483-3.367
		c-0.159-0.998-0.331-2.021-0.217-3.063c0.039-0.353,0.213-0.646,0.243-0.999c0.032-0.383-0.002-0.791-0.001-1.178
		c0-0.284,0.05-0.607,0.02-0.889c-0.05-0.459-0.247-0.627-0.425-1.021c-0.242-0.536-0.455-1.134-0.646-1.7
		c-0.182-0.543-0.201-1.136-0.303-1.699c-0.258-1.429,0.197-2.959-0.089-4.384c-0.161-0.806-0.245-1.608-0.407-2.418
		c-0.109-0.541-0.326-1.06-0.357-1.608c-0.016-0.28,0.181-0.967-0.192-1.026c-0.146-0.022-0.255,0.202-0.396,0.236
		c-0.172,0.042-0.436-0.01-0.613-0.01c-0.101,0-0.197,0.002-0.295,0.004c0.562,3.136,0.924,6.354,1.167,9.62
		c0.859,11.509,0.493,23.011,0.228,34.533c-0.189,8.216-5.553,10.604-12.182,10.089c-2.728-0.213-5.482-0.473-8.139-1.084
		c-4.205-0.967-8.271-0.185-12.395,0.377c-4.108,0.56-8.192,1.471-12.4,0.51c-4.817-1.098-6.719-3.117-6.991-8.102
		c-0.259-4.71-0.398-9.426-0.51-12.18c-0.24-11.402,0.056-20.828,1.196-30.205c0.03-0.251,0.069-0.5,0.103-0.75
		c-0.082,0.022-0.166,0.03-0.255,0.008c-0.254,0.035-0.551-0.004-0.809-0.004l-1.006,5.43c-0.082,0.395,0.235,0.777,0.206,1.207
		c-0.027,0.41-0.187,0.825-0.351,1.206c-0.371,0.858-0.728,1.726-0.868,2.665c-0.078,0.527,0.063,1.072-0.032,1.604
		c-0.107,0.602-0.137,1.211-0.296,1.805c-0.189,0.703-0.37,1.449-0.458,2.172c-0.07,0.576,0.19,1.02,0.243,1.569
		c0.105,1.118-0.277,2.325-0.443,3.413c-0.141,0.923-0.28,1.924-0.28,2.859c0,2.029,0,4.057,0,6.085
		c0,0.634,0.127,1.352,0.223,1.972c0.049,0.312,0.275,0.564,0.298,0.889c0.027,0.371,0.025,0.706,0.114,1.076
		c0.18,0.747,0.316,1.52,0.598,2.247c0.135,0.347,0.268,0.735,0.373,1.05c0.124,0.378,0.323,0.772,0.417,1.152
		c0.203,0.818,0.239,1.609,0.501,2.423c0.135,0.415,0.21,0.823,0.311,1.251c0.118,0.505-0.027,1.016,0.091,1.52
		c0.105,0.454,0.126,0.779,0.152,1.252c0.021,0.359,0.167,0.65,0.207,1.006c0.092,0.817,0.484,1.637,0.653,2.463
		c0.117,0.57,0.257,1.15,0.401,1.715c0.09,0.35,0.308,0.697,0.363,1.051c0.129,0.812,0.328,1.977,1.397,2.015
		c0.462,0.017,0.78-0.044,1.205-0.159c0.44-0.121,0.677,0.053,1.007,0.346c0.238,0.211,0.341,0.471,0.593,0.619
		c0.151,0.088,0.438,0.176,0.609,0.251c0.46,0.201,0.915,0.146,1.411,0.146c0.835,0,1.654,0.173,2.415,0.543
		c0.71,0.346,1.124,0.646,1.96,0.669c0.685,0.018,1.372-0.01,2.057,0c0.807,0.011,1.562-0.21,2.378-0.206
		c0.597,0.004,1.197-0.021,1.794-0.005c0.846,0.023,1.654,0.353,2.475,0.558c0.729,0.184,1.312,0.254,2.066,0.252
		c1.255-0.004,2.511,0,3.766,0c1.751,0,3.525,0.087,5.272,0.01c0.901-0.039,1.881-0.21,2.767-0.368
		c0.475-0.085,0.945,0.008,1.418-0.088c0.447-0.091,0.775-0.17,1.24-0.163c1.099,0.018,2.124-0.207,3.225-0.189
		c0.544,0.008,1-0.084,1.534-0.163c0.76-0.113,1.521,0.013,2.285-0.073c1.294-0.145,2.636-0.605,3.896-0.932
		c0.546-0.141,1.136-0.417,1.686-0.451c0.551-0.035,1.148,0.164,1.611-0.182c0.405-0.305,0.438-0.781,0.601-1.222
		c0.345-0.933,0.797-1.814,1.055-2.771c0.163-0.607,0.068-1.189,0.197-1.804c0.109-0.52,0.161-0.956,0.157-1.502
		c-0.008-1,0.309-2.032,0.559-2.973c0.21-0.79,0.108-1.984,0.052-2.814c-0.029-0.428-0.19-0.762-0.201-1.203
		c-0.013-0.484,0.007-0.971,0.007-1.455c0-0.859,0.187-1.943-0.029-2.771c-0.246-0.947-0.069-1.703,0.083-2.666
		c0.213-1.36,0.517-2.659,0.737-4.01c0.104-0.64,0.014-1.149,0.014-1.806c0-0.739,0-1.479,0-2.218
		C92.5,88.918,92.701,88.127,92.693,87.336z"/>
	<path fill-rule="evenodd" clip-rule="evenodd" d="M94.62,62.173c-0.842-5.333-2.072-10.6-4.125-15.518
		c-1.961-4.7-4.744-9.134-8.529-12.702c-3.8-3.582-2.026-8.115-2.388-12.287c-0.036-0.414,0.524-0.328,0.837-0.39
		c2.5-0.498,2.839-2.406,2.854-4.46c0.031-3.912,0.068-7.826-0.018-11.736c-0.072-3.314-1.144-4.374-4.435-4.479
		c-2.688-0.086-5.379-0.026-8.069-0.026c-7.09,0-14.182-0.042-21.271,0.021c-3.48,0.031-4.438,0.975-4.489,4.296
		c-0.064,4.155,0.001,8.313-0.011,12.47c-0.005,1.865,0.427,3.397,2.528,3.896c0.395,0.094,1.272,0.063,0.904,0.732
		c-0.801,1.455,0.659,2.648,0.357,3.827c-0.525,2.062,0.498,4.537-1.307,6.199c-3.105,2.862-5.009,6.578-7.433,9.924
		c-1.235,1.705-2.04,3.581-2.763,5.542c-2.896,7.86-4.275,16-4.864,24.326c-0.924,13.069-0.483,26.142-0.229,39.216
		c0.025,1.333,0.316,2.668,0.552,3.989c1.242,6.962,6.307,12.173,13.42,12.239c6.11,0.058,12.223,0.012,18.333,0.012
		c5.988,0.207,11.975,0.311,17.961-0.101c6.106-0.419,9.921-3.692,12.043-9.148c1.158-2.978,1.494-6.158,1.521-9.356
		c0.051-5.99,0.153-11.981,0.158-17.972C96.166,81.156,96.112,71.635,94.62,62.173z M90.165,106.343
		c-0.189,8.216-5.553,10.604-12.182,10.089c-2.728-0.213-5.482-0.473-8.139-1.084c-4.205-0.967-8.271-0.185-12.395,0.377
		c-4.108,0.56-8.192,1.471-12.4,0.51c-4.817-1.098-6.719-3.117-6.991-8.102c-0.259-4.71-0.398-9.426-0.51-12.18
		c-0.24-11.402,0.056-20.828,1.196-30.205c0.055-0.455,0.122-0.908,0.186-1.362c0.005-0.002,0.009-0.002,0.014-0.004
		c0.2-0.122,0.1-0.349,0.409-0.349c-0.011,0.153,0.041,0.417,0.24,0.412c0.325-0.008,0.085-0.263,0.235-0.391
		c0.604-0.516,0.508,0.455,0.973,0.336c0.194-0.049,0.175-0.325,0.391-0.393c0.181-0.055,0.454,0.104,0.628,0.029
		c0.491-0.209,0.005-0.892-0.165-1.22c-0.147-0.284-0.458-0.848-0.216-1.172c-0.004,0.005,0.396-0.18,0.411-0.187
		c0.351-0.146,0.456-0.155,0.72-0.458c0.22-0.252,0.602-0.677,1.006-0.366c0.443,0.341,0.246,0.991,1.015,1.009
		c0.039,0.439,0.224,0.704,0.262,1.144c0.363,0.093,0.799,0.031,1.177,0.03c0.192,0,0.418-0.03,0.608-0.004
		c0.195,0.025,0.303,0.129,0.441,0.161c0.465,0.103,0.744,0.01,1.162-0.207c0.201-0.104,0.403-0.21,0.608-0.307
		c0.073-0.035,0.536-0.271,0.598-0.266c0.306,0.022,0.405,0.456,0.644,0.583c0.287,0.153,0.803,0.032,1.122,0.084
		c0.231,0.038,0.11,0.162,0.442,0.118c0.24-0.033,0.34-0.303,0.623-0.137c0.259,0.152,0.068,0.375,0.221,0.538
		c0.199,0.212,0.506,0.233,0.77,0.246c0.376,0.019,0.855-0.103,1.218-0.015c0.181,0.043,0.2,0.203,0.386,0.227
		c0.284,0.033,0.254-0.096,0.453-0.168c0.724-0.258,1.35-0.305,1.819-1c0.222-0.328-0.009-0.706,0.188-1.02
		c0.201-0.323,0.645-0.301,0.965-0.202c0.473,0.146,0.681,0.37,1.206,0.361c0.137-0.002,0.499-0.065,0.618-0.014
		c0.336,0.146,0.112,0.322,0.176,0.629c0.252,1.232,1.179,0.14,1.82-0.026c0.289-0.075,0.91-0.062,1.021,0.201
		c0.075,0.177-0.115,0.395,0.016,0.577c0.181,0.253,0.534,0.18,0.774,0.236c0.43,0.102,0.741,0.28,1.211,0.211
		c0.434-0.064,0.481-0.305,0.845-0.557c0.655-0.454,1.438-0.715,2.111-0.2c0.625,0.477,1.17,1.019,2.021,0.713
		c0.327-0.117,0.699-0.468,1.05-0.619c0.189-0.081,0.362-0.136,0.56-0.194c0.331-0.097,0.153-0.139,0.497,0
		c0.334,0.135,0.562,0.209,0.91,0.293c0.192,0.046,0.124,0.246,0.397,0.132c0.093-0.039,0.354-0.485,0.407-0.577
		c0.423-0.713,0.608-1.49,1.653-1.222c1.089,0.28,0.838,1.529,1.649,1.985c0.178,0.1,0.374,0.027,0.564,0.036
		c0.313,0.014,0.504,0.165,0.803,0.216c0.433,0.076,0.967-0.011,1.408-0.01c0.191,0,0.42,0.031,0.608,0.004
		c0.408-0.059,0.272-0.116,0.587-0.357c0.36-0.275,0.779-0.604,1.213-0.657c0.199-0.024,0.414,0.036,0.613,0.009
		c0.423-0.057,0.314-0.054,0.548-0.412c0.207-0.316,0.487-0.435,0.803-0.567c0.299,0.207,0.342,0.657,0.455,0.975
		c0.181,0.51,0.314,0.559,0.748,0.781c0.158-0.39,0.539-0.361,0.809-0.63c0.223-0.222,0.301-0.465,0.504-0.703
		c0.187-0.219,0.464-0.538,0.749-0.618c0.317-0.088,0.323,0.045,0.608,0.122c0.132,0.036,0.264,0.043,0.395,0.045
		c0.625,3.322,1.023,6.737,1.282,10.208C90.797,83.318,90.431,94.82,90.165,106.343z"/>
</g>
</svg>
