<?xml version="1.0" encoding="utf-8"?>
<!-- Generator: Adobe Illustrator 16.0.4, SVG Export Plug-In . SVG Version: 6.00 Build 0)  -->
<!DOCTYPE svg PUBLIC "-//W3C//DTD SVG 1.1//EN" "http://www.w3.org/Graphics/SVG/1.1/DTD/svg11.dtd">
<svg version="1.1" id="Layer_2903" xmlns="http://www.w3.org/2000/svg" xmlns:xlink="http://www.w3.org/1999/xlink" x="0px" y="0px"
	 width="128px" height="128px" viewBox="0 0 128 128" enable-background="new 0 0 128 128" xml:space="preserve">
<g id="nzL21d.tif">
	<g>
		<path fill-rule="evenodd" clip-rule="evenodd" d="M66.918,128.054c-6.394,0.002-12.788,0.028-19.182-0.023
			c-1.026-0.008-2.513,0.571-2.763-1.211c-0.128-0.911-0.072-1.856-0.012-2.782c0.073-1.123,0.979-1.129,1.794-1.186
			c0.653-0.046,0.905-0.433,0.379-0.806c-3.457-2.441-2.809-6.063-2.81-9.494c-0.006-23.136,0.033-46.272-0.046-69.408
			c-0.01-3.118,0.06-6.002,2.651-8.224c0.817-0.701,1.06-1.317-0.35-1.968c-1.611-0.743-0.986-2.438-0.789-3.739
			c0.162-1.075,1.147-1.398,2.16-1.306c1.498,0.136,2.318-0.337,2.67-1.96c0.445-2.053,1.927-3.377,3.872-4.171
			c0.756-0.308,1.412-0.678,0.023-1.08c-1.399-0.405-1.332-1.542-1.033-2.546c0.335-1.121,1.346-0.955,2.321-0.929
			c2.669,0.07,5.342,0.03,8.013-0.008c0.751-0.01,1.824,0.252,1.835-0.983c0.012-1.357-1.095-1.256-2.028-1.262
			c-1.627-0.012-3.254-0.003-4.881-0.015c-0.775-0.005-1.414-0.299-1.457-1.15c-0.043-0.84,0.51-1.295,1.317-1.242
			c1.475,0.097,1.647-0.809,1.78-1.963c0.344-2.994,0.844-5.97,1.164-8.965c0.143-1.341,0.767-1.771,2.024-1.747
			c2.441,0.047,4.885,0.061,7.324,0.001c1.501-0.036,2.028,0.684,2.139,2.08c0.191,2.427,0.512,4.844,0.749,7.269
			c0.159,1.62,0.062,3.367,2.439,3.443c0.511,0.017,0.718,0.567,0.734,1.047c0.022,0.682-0.411,1.107-1.037,1.163
			c-1.039,0.093-2.089,0.08-3.134,0.092c-0.813,0.009-1.628-0.027-2.44-0.013c-0.719,0.014-1.433,0.073-1.43,1.07
			c0.003,0.894,0.569,1.232,1.341,1.241c2.324,0.026,4.648,0.02,6.974,0c0.46-0.004,0.917-0.156,1.379-0.186
			c0.876-0.057,1.713,0.182,1.959,1.082c0.242,0.882,0.353,1.898-0.824,2.345c-0.78,0.297-1.434,0.618-0.171,1.147
			c2.177,0.912,3.668,2.387,4.209,4.741c0.237,1.032,0.842,1.58,1.982,1.496c1.081-0.079,2.282,0.013,2.497,1.313
			c0.214,1.301,0.766,2.944-0.78,3.777c-1.28,0.689-1.157,1.307-0.299,2.055c2.349,2.048,2.526,4.676,2.518,7.579
			c-0.072,24.181-0.064,48.365,0.005,72.545c0.008,2.472-0.362,4.58-2.313,6.25c-0.856,0.733-1.29,1.312,0.462,1.54
			c1.283,0.167,1.581,1.584,1.303,3.724c-0.173,1.322-1.054,1.359-2.009,1.36C80.404,128.056,73.661,128.052,66.918,128.054z
			 M54.728,78.677c0.004,0,0.008,0,0.012,0c0-11.852,0-23.704,0-35.555c0-0.581-0.01-1.162,0.001-1.742
			c0.019-1.031-0.519-1.341-1.501-1.432c-3.737-0.343-4.046-0.12-4.047,3.47c-0.003,23.471-0.002,46.942,0.001,70.414
			c0,0.812-0.005,1.628,0.076,2.435c0.031,0.307,0.242,0.784,0.468,0.85c1.469,0.424,3.051,0.538,4.437,0.013
			c0.96-0.365,0.54-1.661,0.541-2.55C54.735,102.61,54.728,90.644,54.728,78.677z M83.44,78.269c0,11.724-0.001,23.448,0.002,35.173
			c0,0.928,0.008,1.856,0.044,2.783c0.035,0.915,0.65,1.123,1.428,1.096c0.667-0.023,1.088-0.324,1.113-1.029
			c0.026-0.696,0.042-1.392,0.042-2.089c0.007-23.796,0.012-47.594,0.016-71.39c0-0.58-0.013-1.16-0.031-1.74
			c-0.031-0.938-0.651-1.104-1.425-1.083c-0.678,0.018-1.1,0.319-1.129,1.019c-0.037,0.927-0.054,1.855-0.054,2.783
			C83.443,55.284,83.444,66.776,83.44,78.269z M65.285,6.09c-0.077-0.784,0.028-1.878-0.957-1.947
			c-1.032-0.071-1.063,0.993-1.056,1.787c0.008,0.778-0.061,1.787,1.077,1.756C65.248,7.662,65.162,6.745,65.285,6.09z"/>
		<path fill-rule="evenodd" clip-rule="evenodd" d="M41.912,3.625c3.938,0.152,7.854,0.765,11.811,0.544
			c0.366-0.02,0.796,0.143,1.087-0.247c-0.342-0.055-0.681-0.125-1.024-0.163c-4.377-0.482-8.756-0.959-13.134-1.438
			c-0.347-0.038-0.698-0.05-1.037-0.123c-0.59-0.126-1.245-0.399-1.147-1.052c0.057-0.385,0.748-0.414,1.228-0.354
			c1.956,0.243,3.911,0.482,5.867,0.717c3.681,0.442,7.36,0.881,11.042,1.322c0.926,0.111,1.966,0.136,2.215,1.287
			c0.294,1.36,0.44,2.778-0.346,4.028c-0.185,0.293-0.813,0.372-1.254,0.43C53.54,9.054,49.86,9.524,46.176,9.958
			c-2.299,0.271-4.604,0.489-6.91,0.683c-0.258,0.021-0.542-0.276-0.813-0.426c0.22-0.245,0.413-0.669,0.664-0.707
			c2.633-0.396,5.273-0.759,7.918-1.075c2.53-0.303,5.068-0.537,7.602-0.808c0.342-0.037,0.681-0.116,1.021-0.176
			C55.329,7.39,55,7.281,54.67,7.278c-1.856-0.019-3.705,0.002-5.566,0.161c-3.235,0.276-6.489,0.334-9.736,0.454
			c-0.419,0.015-1.004,0.022-1.068-0.565c-0.065-0.601,0.465-0.746,0.928-0.767c2.438-0.108,4.875-0.207,7.314-0.27
			c2.207-0.057,4.416-0.058,6.623-0.099c0.34-0.006,0.68-0.097,1.019-0.149c-0.272-0.441-0.734-0.304-1.128-0.366
			c-3.915-0.616-7.869-0.541-11.812-0.667c-0.811-0.026-1.625-0.078-2.426-0.197c-0.343-0.051-0.589-0.392-0.505-0.766
			c0.038-0.167,0.301-0.396,0.469-0.401C39.824,3.606,40.868,3.625,41.912,3.625z"/>
	</g>
</g>
</svg>
