<?xml version="1.0" encoding="utf-8"?>
<!-- Generator: Adobe Illustrator 16.0.4, SVG Export Plug-In . SVG Version: 6.00 Build 0)  -->
<!DOCTYPE svg PUBLIC "-//W3C//DTD SVG 1.1//EN" "http://www.w3.org/Graphics/SVG/1.1/DTD/svg11.dtd">
<svg version="1.1" id="Layer_2920" xmlns="http://www.w3.org/2000/svg" xmlns:xlink="http://www.w3.org/1999/xlink" x="0px" y="0px"
	 width="128px" height="128px" viewBox="0 0 128 128" enable-background="new 0 0 128 128" xml:space="preserve">
<g>
	<path d="M36.839,84.574c0.303,0.029,0.62,0.021,0.908,0.105c0.643,0.188,1.107-0.069,1.556-0.492
		c0.558-0.526,0.831-1.145,0.767-1.807c0.002-1.54-0.493-2.137-1.917-2.376c-0.366-0.062-0.743-0.052-1.114-0.083
		c-0.391-0.034-0.55,0.174-0.597,0.527c-0.138,1.04-0.299,2.079-0.416,3.121C35.929,84.438,35.995,84.492,36.839,84.574z"/>
	<path d="M94.929,120.11c-0.003-23.126-0.008-46.255,0-69.381c0.001-2.72-0.131-5.417-0.723-8.085
		c-0.577-2.596-1.851-4.833-3.984-6.311c-1.953-1.353-2.636-3.099-2.839-5.278c-0.087-0.935,0.089-1.516,0.942-2.093
		c1.991-1.345,2.706-3.794,1.653-5.629c-0.519-0.905-0.606-1.786-0.605-2.749c0.01-5.429,0.018-10.857,0.014-16.286
		c-0.002-2.887-0.755-3.604-3.611-3.598c-8.424,0.02-16.849,0.032-25.271,0.031C54.455,0.73,48.406,0.696,42.357,0.692
		c-2.944-0.002-3.567,0.641-3.566,3.596c0.001,5.485,0.004,10.971,0.017,16.457c0.002,0.799-0.079,1.532-0.496,2.269
		c-1.172,2.068-0.521,4.609,1.443,5.98c1.601,1.117,1.587,1.114,1.096,3.068c-0.295,1.175-0.867,2.196-1.58,3.159
		c-0.488,0.66-1.345,0.833-1.846,1.467c-2.171,2.749-3.822,5.71-4.069,9.312c-0.214,3.108-0.073,6.212-0.083,9.318
		c-0.074,22.328,0.321,44.658-0.201,66.983c-0.02,0.879,0.188,1.657,0.696,2.39c1.09,1.574,2.211,2.254,4.125,2.248
		c8.651-0.032,16.606-0.015,25.606-0.015c0,0.002,0,0.004,0,0.006c6,0,11.885,0.002,17.654-0.001c3.053,0,6.281,0.035,9.334-0.023
		c2.719-0.054,4.454-1.862,4.396-4.591C94.868,121.581,94.929,120.846,94.929,120.11z M44.395,89.443
		c0.458-3.768,1.088-7.513,1.725-11.255c0.166-0.976-0.042-0.972,0.902-0.979c0.238-0.002,0.479,0,0.479,0c0,0.005,0,0.011,0,0.015
		c0,0,0.847-0.012,1.152,0.003c0.736,0.036,0.964,0.128,0.875,0.849c-0.116,0.941-0.236,1.874-0.396,2.81
		c-0.441,2.573-0.865,5.145-1.299,7.719c-0.576,3.414,1.668,4.016,3.988,3.656c1.101-0.172,1.892-0.877,2.253-1.99
		c0.537-1.651,0.778-3.364,1.1-5.062c0.423-2.23,0.812-4.468,1.23-6.699c0.225-1.206,0.303-1.235,1.553-1.162
		c0.607,0.035,1.222-0.024,1.829,0.018c0.647,0.045,0.767,0.172,0.652,0.744c-0.846,4.223-1.483,8.493-2.648,12.647
		c-0.478,1.705-1.451,3.139-3.02,4.082c-1.557,0.937-3.265,1.08-5.018,0.907c-0.571-0.056-1.146-0.171-1.695-0.337
		C45.275,94.571,44.082,92.03,44.395,89.443z M34.445,93.721c-0.001-0.099,0.044-0.198,0.052-0.299
		c0.118-1.431,0.147-2.846-0.454-4.204c-0.428-0.965-0.414-1.977-0.219-2.996c0.045-0.231,0.093-0.471,0.084-0.705
		c-0.082-2.188,0.583-4.291,0.711-6.459c0.04-0.674,0.104-1.35,0.106-2.025c0.001-0.487,0.214-0.688,0.683-0.631
		c0.47,0.057,0.938,0.135,1.408,0.187c0.942,0.104,1.883,0.202,2.832,0.257c1.442,0.083,2.475,0.859,3.037,2.204
		c0.359,0.857,0.526,1.755,0.454,2.586c0.083,1.96-0.532,3.501-2.078,4.602c-0.324,0.23-0.34,0.447-0.137,0.762
		c0.519,0.805,0.593,1.709,0.609,2.639c0.027,1.56-0.171,3.123,0.107,4.677c0.081,0.449-0.197,0.653-0.584,0.635
		c-0.607-0.032-1.214-0.115-1.816-0.213c-0.311-0.051-0.384-0.338-0.459-0.609c-0.175-0.638-0.141-1.282-0.057-1.922
		c0.106-0.812,0.12-1.628,0.075-2.44c-0.074-1.336-0.861-2.109-2.107-2.148c-0.62-0.021-0.799,0.117-0.889,0.711
		c-0.225,1.482-0.349,2.962,0.061,4.439c0.089,0.322,0.084,0.671,0.107,1.009c0.027,0.396-0.087,0.66-0.566,0.62
		C34.813,94.348,34.449,94.113,34.445,93.721z M55.589,104.787c-3.908,2.326-7.822,4.641-11.731,6.966
		c-1.84,1.096-8.407,6.056-8.733,5.861c-0.655-0.391,2.536-6.623,2.975-8.549c0.127-0.556-0.66-0.668-1.121-1.026
		c-0.232-0.18-0.443-2.016,4.466-8.819c0.315-0.438,0.649-0.617,1.189-0.581c2.404,0.16,4.811,0.295,7.218,0.421
		c0.917,0.047,1.835,0.035,2.752,0.067c0.323,0.011,0.771-0.159,0.923,0.199c0.121,0.287-0.28,0.492-0.473,0.713
		c-0.875,0.999-1.668,2.06-2.411,3.157c-0.474,0.702-0.448,0.736,0.359,0.802c1.457,0.118,2.916,0.201,4.378,0.194
		c0.261-0.002,0.677-0.112,0.75,0.109C56.229,104.6,55.806,104.659,55.589,104.787z M61.258,89.477
		c0.815-0.004,1.631-0.028,2.447-0.036c0.336-0.003,0.541,0.107,0.638,0.495c0.516,2.048,1.112,2.58,3.187,2.765
		c1.033,0.092,2.027-0.124,2.904-0.733c1.254-0.871,1.225-2.569-0.057-3.376c-0.615-0.387-1.305-0.575-1.995-0.751
		c-1.121-0.286-2.2-0.679-3.272-1.114c-3.454-1.403-3.267-5.812-1.452-7.72c1.379-1.45,3.104-2.002,5.007-2.189
		c0.336-0.033,0.679-0.006,1.136-0.006c1.131-0.064,2.32,0.149,3.425,0.753c1.677,0.917,2.407,2.407,2.56,4.25
		c0.043,0.53-0.19,0.739-0.702,0.73c-0.714-0.012-1.427-0.013-2.139,0.006c-0.483,0.014-0.705-0.179-0.851-0.661
		c-0.42-1.402-0.977-1.805-2.43-1.836c-0.779-0.019-1.553,0.004-2.288,0.37c-1.415,0.707-1.569,2.268-0.267,3.154
		c0.829,0.565,1.807,0.763,2.766,0.983c0.827,0.192,1.638,0.419,2.423,0.758c2.14,0.919,2.773,2.838,2.595,4.943
		c-0.25,2.959-2.719,4.982-5.21,5.341c-1.087,0.156-2.16,0.182-3.245,0.153c-0.442-0.014-0.872-0.077-1.228-0.366
		c-0.071-0.059-0.094-0.173-0.218-0.154c-1.452,0.225-2.322-0.73-3.152-1.647c-0.879-0.971-1.188-2.189-1.193-3.49
		C60.645,89.675,60.832,89.479,61.258,89.477z M90.646,79.179c-0.324,2.247-0.701,4.489-1.024,6.737
		c-0.343,2.385-0.653,4.773-0.967,7.161c-0.132,1.008-0.236,1.131-1.238,1.268c-1.702,0.235-1.861,0.05-1.579-1.636
		c0.274-1.639,0.51-3.282,0.734-4.928c0.111-0.824-0.011-0.968-0.861-0.924c-1.217,0.064-2.433,0.163-3.643,0.311
		c-0.956,0.117-0.971,0.154-1.145,1.107c-0.305,1.668-0.565,3.345-0.876,5.012c-0.348,1.857-0.155,1.701-1.826,1.731
		c-0.336,0.006-0.672,0.098-1.01,0.126c-0.946,0.079-1.104-0.092-0.94-1.01c0.186-1.035,0.378-2.068,0.563-3.104
		c0.738-4.106,1.476-8.214,2.215-12.321c0.071-0.4,0.156-0.797,0.22-1.198c0.077-0.483,0.349-0.693,0.837-0.699
		c0.644-0.009,1.287-0.037,1.931-0.127c0.624-0.088,0.732,0.024,0.705,0.648c-0.052,1.19-0.366,2.345-0.529,3.519
		c-0.085,0.606-0.226,1.202-0.297,1.808c-0.095,0.806,0.002,0.897,0.782,0.896c0.135-0.001,0.271-0.013,0.408-0.02
		c1.079-0.111,2.162-0.186,3.247-0.24c0.76-0.038,0.92-0.219,1.041-0.99c0.277-1.777,0.558-3.553,0.789-5.335
		c0.069-0.544,0.266-0.812,0.823-0.779c0.411,0.023,0.808-0.07,1.209-0.149c0.474-0.093,0.716,0.105,0.669,0.605
		C90.806,77.491,90.766,78.341,90.646,79.179z M91.006,50.285c-1.547,2.911-3.131,5.8-4.897,8.586
		c-0.581,0.918-1.17,1.833-1.714,2.776c-0.479,0.832-0.439,0.878,0.485,0.879c0.646,0.001,1.293-0.034,1.938-0.021
		c0.489,0.011,0.567,0.142,0.301,0.546c-0.693,1.047-1.39,2.094-2.134,3.106c-1.552,2.107-3.099,4.219-4.788,6.222
		c-0.348,0.412-0.691,0.575-1.195,0.618c-2.779,0.231-5.562,0.301-8.35,0.328c-1.02,0-2.041,0.008-3.061-0.006
		c-0.217-0.003-0.519,0.107-0.626-0.187c-0.077-0.209,0.127-0.365,0.253-0.52c0.647-0.788,1.299-1.573,1.945-2.36
		c0.303-0.367,0.613-0.73,0.894-1.113c0.396-0.545,0.338-0.677-0.318-0.718c-0.812-0.051-1.627-0.056-2.439-0.102
		c-0.91-0.052-1.818-0.131-2.728-0.191c-0.089-0.006-0.217,0.057-0.224-0.071c-0.004-0.063,0.117-0.15,0.196-0.2
		c1.334-0.814,2.67-1.624,4.005-2.437c5.69-3.465,11.402-6.899,16.715-10.943c1.867-1.421,3.668-2.917,5.405-4.493
		c0.145-0.131,0.332-0.425,0.466-0.319C91.377,49.853,91.106,50.096,91.006,50.285z M93.874,80.019
		c-0.242,0.378-0.573,0.581-1.023,0.503c-0.472-0.082-0.665-0.44-0.723-0.868c-0.127-0.93-0.03-1.824,0.48-2.641
		c0.263-0.422,0.574-0.799,1.127-0.671c0.52,0.121,0.595,0.594,0.649,1.04c0.024,0.202,0.027,0.405,0.039,0.606
		C94.437,78.72,94.271,79.398,93.874,80.019z"/>
</g>
</svg>
