<?xml version="1.0" encoding="utf-8"?>
<!-- Generator: Adobe Illustrator 16.0.4, SVG Export Plug-In . SVG Version: 6.00 Build 0)  -->
<!DOCTYPE svg PUBLIC "-//W3C//DTD SVG 1.1//EN" "http://www.w3.org/Graphics/SVG/1.1/DTD/svg11.dtd">
<svg version="1.1" id="Layer_2924" xmlns="http://www.w3.org/2000/svg" xmlns:xlink="http://www.w3.org/1999/xlink" x="0px" y="0px"
	 width="128px" height="128px" viewBox="0 0 128 128" enable-background="new 0 0 128 128" xml:space="preserve">
<g>
	<g>
		<polygon points="64.25,59.887 79.636,44.5 48.862,44.5 		"/>
		<path d="M94.766,25.638c-0.75-3.38-1.576-6.802-2.799-10.025c-1.164-3.069,0.096-6.243-1.116-9.384
			c-0.781-2.024-1.557-3.265-3.502-3.778c-1.533-0.404-3.088-0.781-4.66-0.942c-6.617-0.676-13.25-1.188-19.904-1.085
			c-7.079,0.109-14.177,0.192-21.127,1.803c-3.044,0.706-6.396,5.569-5.338,8.389c0.652,1.739,0.381,2.998-0.122,4.452
			c-2.86,8.271-4.293,16.781-4.31,25.531c-0.026,13.009-0.02,26.017-0.095,39.027c-0.03,5.204-0.163,10.409,0.298,15.601
			c0.602,6.782,1.559,13.491,4.158,19.862c2.15,5.271,5.727,9.139,11.319,10.49c10.986,2.656,22.059,2.711,33.048-0.022
			c5.238-1.304,8.824-4.727,10.894-9.738c1.606-3.89,2.854-7.879,3.484-12.049c0.471-3.122,0.506-6.237,1.506-9.355
			c0-19.677,0-39.353,0-59.03C95.5,32.133,95.477,28.856,94.766,25.638z M64.25,60.416L47.643,43.723l0.616-0.711L64.25,27.02
			l15.99,15.991l0.736,0.711L64.25,60.416z M64.25,95.415L47.643,78.722l0.616-0.711L64.25,62.02l15.99,15.991l0.736,0.711
			L64.25,95.415z"/>
	</g>
	<path fill-rule="evenodd" clip-rule="evenodd" d="M61.873,72.993c0.219,0.771,0.197,1.642,0.912,2.4
		c1.285-1.788,1.13-3.681,0.901-5.73c2.644,1.905,3.596,4.441,3.741,7.629c0.277-0.619,0.454-1.037,0.469-1.521
		c0.016-0.519,0.047-1.036,0.08-1.757c1.238,1.109,1.746,2.461,2.312,3.748c0.332,0.754,0.525,1.587,0.668,2.404
		c0.48,2.768-1.887,5.482-4.662,5.354c0.193-0.822,0.986-1.338,1.096-2.185c0.051-0.402,0.096-0.806,0.154-1.291
		c-0.695,0.151-0.418,1.015-1.086,1.14c-0.104-0.799-0.251-1.594-0.629-2.643c-0.162,1.113-0.25,1.938-0.406,2.746
		c-0.225,1.157-0.576,2.247-1.9,2.544c-4.151-0.505-5.318-4.601-4.481-7.381c0.58-1.925,1.556-3.63,2.534-5.349
		C61.613,73.037,61.757,73.032,61.873,72.993z"/>
</g>
</svg>
