<?xml version="1.0" encoding="utf-8"?>
<!-- Generator: Adobe Illustrator 16.0.4, SVG Export Plug-In . SVG Version: 6.00 Build 0)  -->
<!DOCTYPE svg PUBLIC "-//W3C//DTD SVG 1.1//EN" "http://www.w3.org/Graphics/SVG/1.1/DTD/svg11.dtd">
<svg version="1.1" id="Layer_2925" xmlns="http://www.w3.org/2000/svg" xmlns:xlink="http://www.w3.org/1999/xlink" x="0px" y="0px"
	 width="128px" height="128px" viewBox="0 0 128 128" enable-background="new 0 0 128 128" xml:space="preserve">
<g id="_x31_OjWqG.tif">
	<g>
		<path fill-rule="evenodd" clip-rule="evenodd" d="M14.602,41.5c0.43,0.168,0.885,0.266,1.285,0.514
			c1.449,0.899,2.266,2.215,2.52,3.879c0.269,1.762-0.06,3.472-0.541,5.159c-0.127,0.446-0.296,0.881-0.458,1.316
			c-0.067,0.179-0.111,0.289,0.161,0.315c0.792,0.078,1.58,0.201,2.374,0.272c1.224,0.109,2.45,0.203,3.676,0.277
			c0.713,0.043,1.429,0.031,2.144,0.054c0.202,0.007,0.299-0.087,0.37-0.257c0.192-0.462,0.449-0.888,0.726-1.304
			c0.513-0.771,1.199-1.328,2.057-1.673c1.743-0.702,3.516-0.779,5.313-0.234c1.359,0.413,2.314,1.26,2.801,2.615
			c0.17,0.474,0.186,0.457,0.682,0.397c1.054-0.128,2.111-0.238,3.166-0.364c0.873-0.105,1.746-0.214,2.616-0.339
			c1.231-0.177,2.461-0.365,3.69-0.558c1.311-0.206,2.622-0.411,3.929-0.639c1.96-0.343,3.918-0.703,5.875-1.062
			c1.534-0.281,3.064-0.579,4.599-0.853c2.009-0.359,4.019-0.706,6.029-1.052c1.259-0.216,2.519-0.429,3.779-0.628
			c1.049-0.165,2.101-0.313,3.151-0.458c1.184-0.163,2.367-0.325,3.554-0.466c1.055-0.126,2.112-0.229,3.17-0.33
			c1.041-0.099,2.083-0.183,3.126-0.272c0.596-0.051,1.193-0.07,1.791-0.103c2.955-0.165,5.916-0.188,8.874-0.096
			c1.775,0.055,3.548,0.178,5.319,0.34c2.514,0.23,5.01,0.581,7.492,1.024c2.681,0.478,5.327,1.102,7.947,1.84
			c2.829,0.796,5.609,1.738,8.348,2.806c0.541,0.211,1.062,0.471,1.6,0.693c0.219,0.091,0.309,0.23,0.288,0.46
			c-0.011,0.116-0.001,0.233-0.001,0.349c0,7.183,0,14.367,0,21.55c0,0.679,0.001,0.674-0.619,0.395
			c-1.482-0.673-3.019-1.21-4.555-1.746c-2.648-0.925-5.331-1.736-8.055-2.41c-2.4-0.593-4.817-1.102-7.262-1.48
			c-1.328-0.205-2.66-0.383-3.992-0.561c-0.049-0.007-0.1-0.009-0.148-0.012c-0.498-0.035-0.495-0.035-0.51,0.451
			c-0.021,0.664-0.053,1.328-0.068,1.992c-0.004,0.206-0.054,0.294-0.288,0.271c-1.091-0.108-2.183-0.196-3.272-0.294
			c-0.828-0.074-1.654-0.152-2.48-0.226c-0.794-0.07-1.588-0.146-2.383-0.201c-0.242-0.017-0.311-0.122-0.308-0.345
			c0.008-0.582,0.003-1.164-0.001-1.746c-0.004-0.415-0.006-0.418-0.4-0.423c-1.979-0.023-3.957,0.026-5.932,0.141
			c-1.641,0.095-3.28,0.229-4.916,0.391c-1.568,0.155-3.132,0.351-4.695,0.558c-2.961,0.393-5.906,0.879-8.846,1.398
			c-2.157,0.38-4.308,0.787-6.459,1.189c-2.983,0.559-5.97,1.102-8.959,1.631c-1.927,0.342-3.857,0.666-5.792,0.965
			c-1.344,0.209-2.696,0.359-4.045,0.54c-1.513,0.202-3.031,0.366-4.554,0.485c-0.218,0.016-0.318,0.132-0.425,0.286
			c-0.569,0.813-1.255,1.505-2.128,1.995c-0.708,0.396-1.463,0.619-2.279,0.629c-1.242,0.014-2.451-0.143-3.596-0.657
			c-0.791-0.355-1.454-0.871-1.95-1.582c-0.139-0.199-0.288-0.277-0.528-0.282c-1.013-0.023-2.026-0.061-3.04-0.102
			c-0.315-0.013-0.63-0.039-0.942-0.084c-0.336-0.048-0.538,0.073-0.726,0.363c-0.872,1.344-2.047,2.348-3.505,3.014
			c-0.362,0.165-0.729,0.324-1.119,0.414c-0.194,0.045-0.265,0.146-0.287,0.342c-0.092,0.808-0.208,1.611-0.468,2.389
			c-0.397,1.193-1.02,2.23-2.014,3.024c-0.513,0.409-1.085,0.702-1.701,0.92c-0.168,0.059-0.359,0.062-0.497,0.196
			c-1.098,0-2.195,0-3.292,0c-0.052-0.08-0.141-0.073-0.22-0.094c-0.809-0.214-1.573-0.525-2.238-1.049
			c-1.167-0.916-1.114-2.694-0.055-3.639c0.642-0.572,1.38-0.562,2.148-0.26c0.917,0.361,1.15,0.873,0.807,1.799
			c-0.152,0.409-0.404,0.761-0.625,1.131c-0.321,0.537-0.206,0.94,0.35,1.227c0.146,0.075,0.306,0.131,0.465,0.171
			c0.776,0.192,1.551,0.153,2.312-0.069c2.238-0.656,3.479-2.203,3.924-4.443c0.061-0.308,0.127-0.618,0.111-0.938
			c-0.007-0.141-0.052-0.221-0.203-0.213c-0.166,0.007-0.334,0-0.498,0.021c-0.817,0.102-1.627,0.02-2.429-0.122
			c-2.178-0.389-4.093-1.329-5.732-2.815c-1.309-1.186-2.247-2.614-2.736-4.32c-0.066-0.232-0.189-0.369-0.424-0.416
			c-0.542-0.105-1.035-0.352-1.544-0.55c-0.492-0.192-0.482-0.114-0.482-0.717c0-7.263,0-14.526,0.001-21.79
			c0-0.562,0.003-0.565,0.536-0.369c2.353,0.868,4.753,1.575,7.187,2.171c0.316,0.077,0.37,0.038,0.316-0.271
			c-0.095-0.557-0.146-1.117-0.21-1.678c-0.161-1.39-0.025-2.75,0.328-4.095c0.23-0.875,0.603-1.686,1.179-2.394
			c0.532-0.653,1.233-1.037,2.024-1.279C13.737,41.5,14.169,41.5,14.602,41.5z M92.035,48.908c-0.003,0-0.005,0-0.007,0
			c0-0.715,0.002-1.43-0.001-2.145c-0.001-0.447-0.005-0.443-0.472-0.452c-1.613-0.028-3.223,0.081-4.834,0.12
			c-0.613,0.015-1.229,0.046-1.841,0.095c-1.489,0.119-2.979,0.239-4.466,0.377c-1.008,0.094-2.016,0.202-3.019,0.333
			c-1.53,0.201-3.058,0.41-4.583,0.642c-1.41,0.215-2.817,0.444-4.223,0.684c-1.342,0.229-2.679,0.476-4.017,0.72
			c-2.479,0.453-4.958,0.914-7.438,1.366c-1.583,0.288-3.166,0.57-4.751,0.847c-1.307,0.229-2.614,0.456-3.924,0.666
			c-1.457,0.234-2.916,0.461-4.382,0.637c-0.906,0.108-1.809,0.243-2.715,0.35c-0.791,0.093-1.584,0.166-2.377,0.244
			c-0.446,0.044-0.893,0.078-1.339,0.122c-0.164,0.017-0.269,0.058-0.22,0.283c0.088,0.404,0.145,0.817,0.189,1.229
			c0.067,0.626,0.151,1.252,0.159,1.885c0.002,0.19-0.066,0.27-0.258,0.27c-1.164-0.002-2.327-0.001-3.491,0.004
			c-0.209,0.001-0.303-0.07-0.29-0.291c0.015-0.266,0.018-0.532,0.004-0.798c-0.034-0.688-0.183-1.345-0.543-1.945
			c-0.124-0.207-0.271-0.301-0.522-0.291c-0.665,0.027-1.33,0.039-1.995,0.032c-0.272-0.003-0.43,0.098-0.543,0.336
			c-0.188,0.394-0.308,0.803-0.363,1.235c-0.162,1.285,0.292,2.377,1.031,3.391c0.165,0.226,0.34,0.321,0.621,0.3
			c1.011-0.073,2.021-0.133,3.033-0.186c1.311-0.068,2.614-0.212,3.921-0.321c0.17-0.014,0.226-0.059,0.196-0.244
			c-0.085-0.523-0.147-1.051-0.217-1.577c-0.045-0.335-0.032-0.353,0.311-0.419c0.049-0.009,0.098-0.021,0.147-0.025
			c0.843-0.074,1.687-0.154,2.531-0.217c0.461-0.035,0.458-0.022,0.502,0.447c0.04,0.413,0.081,0.826,0.139,1.237
			c0.049,0.343,0.062,0.346,0.394,0.311c0.248-0.026,0.493-0.069,0.74-0.1c0.37-0.046,0.378-0.043,0.446-0.43
			c0.08-0.457,0.134-0.919,0.216-1.376c0.067-0.372,0.078-0.364,0.434-0.398c0.512-0.048,1.022-0.113,1.535-0.159
			c0.628-0.057,1.257-0.101,1.886-0.152c0.173-0.014,0.286,0.031,0.3,0.234c0.018,0.249,0.063,0.494,0.083,0.742
			c0.074,0.886,0.07,0.88,0.955,0.648c0.162-0.042,0.216-0.111,0.227-0.266c0.027-0.381,0.068-0.76,0.1-1.141
			c0.032-0.396,0.029-0.402,0.423-0.473c0.391-0.071,0.786-0.126,1.179-0.19c0.671-0.108,1.342-0.223,2.014-0.325
			c0.274-0.042,0.328,0.012,0.297,0.292c-0.031,0.28-0.079,0.558-0.128,0.835c-0.099,0.56-0.102,0.559,0.429,0.473
			c0.082-0.013,0.165-0.023,0.248-0.024c0.237-0.003,0.315-0.129,0.308-0.353c-0.01-0.315-0.004-0.632-0.002-0.947
			c0.003-0.476,0.004-0.48,0.482-0.565c0.523-0.093,1.047-0.173,1.571-0.263c1.16-0.2,2.319-0.404,3.479-0.603
			c0.296-0.051,0.305-0.045,0.309,0.267c0.006,0.382-0.004,0.764-0.008,1.146c-0.001,0.124,0.043,0.186,0.18,0.151
			c0.08-0.02,0.165-0.019,0.247-0.034c0.336-0.062,0.354-0.079,0.366-0.413c0.009-0.232,0.006-0.465,0.011-0.698
			c0.011-0.467,0.01-0.475,0.444-0.559c1.645-0.319,3.289-0.634,4.935-0.947c0.306-0.059,0.315-0.052,0.324,0.247
			c0.01,0.349,0.001,0.698,0.006,1.047c0.001,0.062,0.034,0.179,0.047,0.179c0.164-0.011,0.329-0.028,0.489-0.063
			c0.127-0.028,0.115-0.148,0.109-0.244c-0.016-0.298-0.039-0.596-0.062-0.895c-0.028-0.363-0.017-0.389,0.341-0.454
			c1.044-0.19,2.089-0.377,3.135-0.558c1.291-0.223,2.583-0.439,3.875-0.656c0.332-0.055,0.346-0.046,0.346,0.274
			c0.002,0.366-0.013,0.731-0.015,1.098c-0.001,0.074-0.027,0.195,0.085,0.196c0.164,0.002,0.337-0.012,0.492-0.063
			c0.156-0.052,0.109-0.229,0.124-0.351c0.097-0.773,0.181-1.549,0.27-2.324c0.05-0.428,0.103-0.856,0.151-1.285
			c0.021-0.194,0.117-0.285,0.322-0.298c0.945-0.058,1.889-0.132,2.833-0.19c0.304-0.019,0.329,0.018,0.245,0.305
			c-0.295,1.003-0.605,2.001-0.889,3.006c-0.068,0.242-0.305,0.569-0.134,0.72c0.182,0.161,0.538,0.024,0.813-0.035
			c0.018-0.003,0.033-0.007,0.05-0.008c0.173-0.006,0.217-0.113,0.223-0.265c0.015-0.398,0.037-0.796,0.057-1.194
			c0.017-0.35,0.018-0.373,0.354-0.409c0.842-0.091,1.687-0.157,2.529-0.244c0.263-0.027,0.387,0.078,0.467,0.324
			c0.123,0.378,0.291,0.742,0.422,1.118c0.072,0.206,0.188,0.288,0.407,0.262c0.263-0.031,0.529-0.045,0.794-0.055
			c0.246-0.009,0.348-0.113,0.338-0.37c-0.014-0.365,0.01-0.731,0.015-1.097c0.003-0.176,0.067-0.277,0.263-0.281
			c0.963-0.022,1.927-0.057,2.891-0.075c0.307-0.006,0.324,0.022,0.33,0.353c0.004,0.299-0.01,0.598-0.006,0.897
			c0.005,0.33,0.01,0.339,0.339,0.338c1.063-0.004,2.128-0.014,3.192-0.026c0.364-0.004,0.369-0.01,0.371-0.402
			C92.038,50.337,92.035,49.622,92.035,48.908z M92.109,65.269c-0.003,0-0.005,0-0.007,0c0-0.648,0.004-1.297-0.002-1.945
			c-0.002-0.366-0.009-0.378-0.348-0.378c-1.164,0.002-2.327,0.018-3.491,0.016c-0.233,0-0.324,0.07-0.319,0.312
			c0.009,0.515-0.004,1.03-0.013,1.546c-0.008,0.448-0.012,0.464-0.427,0.499c-0.795,0.067-1.596,0.018-2.389,0.121
			c-0.224,0.03-0.321-0.094-0.398-0.286c-0.217-0.539-0.449-1.071-0.679-1.604c-0.146-0.339-0.147-0.336-0.499-0.313
			c-0.199,0.013-0.399,0.021-0.598,0.026c-0.479,0.016-0.496-0.049-0.504,0.492c-0.008,0.564-0.037,1.129-0.047,1.693
			c-0.004,0.191-0.049,0.299-0.271,0.326c-0.971,0.124-1.939,0.262-2.908,0.405c-0.196,0.029-0.273-0.021-0.269-0.224
			c0.013-0.465,0.021-0.931,0.016-1.396c-0.003-0.278,0.13-0.625-0.051-0.819c-0.198-0.216-0.532-0.013-0.806,0.013
			c-1.817,0.168-3.62,0.457-5.426,0.715c-0.388,0.055-0.404,0.073-0.408,0.473c-0.004,0.631,0.004,1.263-0.004,1.895
			c-0.004,0.341-0.033,0.361-0.357,0.419c-0.522,0.092-1.045,0.186-1.566,0.28c-0.522,0.094-1.045,0.192-1.567,0.283
			c-0.251,0.043-0.284,0.013-0.298-0.248c-0.007-0.116-0.001-0.232,0-0.35c0.008-0.598,0.012-1.197,0.023-1.795
			c0.002-0.188-0.059-0.283-0.264-0.242c-0.375,0.074-0.75,0.144-1.125,0.211c-0.227,0.039-0.341,0.139-0.321,0.397
			c0.046,0.63,0.071,1.261,0.095,1.892c0.02,0.485,0.013,0.482-0.459,0.576c-1.725,0.34-3.449,0.68-5.174,1.023
			c-0.67,0.133-0.668,0.139-0.666-0.524c0.002-0.648,0.005-1.296,0.004-1.945c0-0.073,0.023-0.2-0.087-0.192
			c-0.196,0.011-0.405,0.029-0.583,0.105c-0.189,0.082-0.104,0.295-0.104,0.45c0,0.615,0.004,1.23,0.022,1.846
			c0.008,0.224-0.061,0.347-0.293,0.362c-0.082,0.006-0.162,0.04-0.243,0.053c-1.558,0.242-3.114,0.484-4.671,0.726
			c-0.634,0.099-0.634,0.099-0.632-0.544c0.001-0.516-0.002-1.031,0.002-1.547c0.001-0.168-0.064-0.246-0.237-0.223
			c-0.099,0.014-0.199,0.015-0.297,0.033c-0.669,0.121-1.335,0.257-2.007,0.363c-0.217,0.035-0.311,0.105-0.339,0.334
			c-0.078,0.607-0.198,1.211-0.277,1.819c-0.03,0.233-0.102,0.353-0.353,0.384c-0.576,0.069-1.148,0.169-1.722,0.252
			c-0.493,0.072-0.985,0.146-1.479,0.205c-0.403,0.048-0.412,0.039-0.488-0.347c-0.103-0.521-0.199-1.042-0.28-1.567
			c-0.033-0.215-0.12-0.282-0.331-0.244c-0.359,0.066-0.72,0.132-1.082,0.166c-0.235,0.022-0.347,0.097-0.381,0.35
			c-0.076,0.559-0.189,1.111-0.289,1.666c-0.082,0.459-0.104,0.49-0.543,0.559c-0.459,0.07-0.919,0.13-1.379,0.192
			c-0.609,0.083-1.218,0.155-1.825,0.249c-0.199,0.031-0.276-0.037-0.3-0.218c-0.013-0.099-0.036-0.196-0.049-0.295
			c-0.071-0.543-0.143-1.085-0.208-1.63c-0.018-0.153-0.054-0.255-0.243-0.219c-0.392,0.078-0.793,0.062-1.19,0.111
			c-0.346,0.044-0.34,0.116-0.305,0.412c0.091,0.762,0.105,1.521-0.017,2.283c-0.107,0.679-0.31,1.322-0.584,1.948
			c-0.112,0.255-0.096,0.273,0.186,0.241c0.198-0.023,0.395-0.057,0.592-0.079c0.791-0.091,1.583-0.172,2.374-0.27
			c0.807-0.101,1.612-0.21,2.417-0.327c1.461-0.211,2.924-0.412,4.38-0.648c1.621-0.264,3.236-0.558,4.852-0.848
			c1.958-0.351,3.915-0.709,5.872-1.068c1.305-0.239,2.607-0.493,3.913-0.729c1.976-0.355,3.95-0.709,5.928-1.047
			c1.554-0.266,3.109-0.512,4.667-0.753c1.098-0.17,2.198-0.323,3.3-0.474c0.839-0.113,1.679-0.223,2.521-0.312
			c1.171-0.122,2.346-0.217,3.518-0.336c2.001-0.202,4.007-0.325,6.016-0.379c1.146-0.03,2.291-0.111,3.439-0.089
			c0.335,0.007,0.34-0.01,0.342-0.375C92.112,66.531,92.109,65.9,92.109,65.269z M96.607,49.035c0.003,0,0.006,0,0.009,0
			c0,0.731-0.004,1.463,0.002,2.194c0.002,0.318,0.012,0.316,0.338,0.341c0.248,0.02,0.498,0.029,0.743,0.068
			c0.411,0.066,0.681-0.001,0.91-0.435c0.754-1.422,2.01-2.083,3.592-2.097c1.231-0.012,2.245,0.521,3.067,1.423
			c0.485,0.532,0.866,1.136,1.146,1.798c0.094,0.222,0.217,0.359,0.475,0.346c0.08-0.004,0.162,0.029,0.242,0.051
			c0.165,0.045,0.2-0.014,0.177-0.175c-0.069-0.476-0.119-0.954-0.183-1.431c-0.047-0.338-0.035-0.359,0.286-0.291
			c0.908,0.192,1.815,0.387,2.723,0.586c0.896,0.197,0.888,0.201,0.975,1.137c0.03,0.326-0.035,0.748,0.181,0.947
			c0.213,0.197,0.621,0.176,0.938,0.27c0.196,0.058,0.279-0.013,0.304-0.195c0.048-0.361,0.097-0.723,0.138-1.086
			c0.054-0.473,0.072-0.488,0.513-0.361c0.972,0.28,1.938,0.577,2.917,0.833c0.339,0.089,0.451,0.281,0.477,0.591
			c0.031,0.364,0.094,0.726,0.108,1.089c0.01,0.245,0.113,0.354,0.339,0.412c0.354,0.091,0.699,0.208,1.051,0.307
			c0.278,0.078,0.294,0.071,0.353-0.215c0.057-0.276,0.101-0.555,0.14-0.834c0.029-0.214,0.133-0.291,0.341-0.221
			c0.174,0.057,0.349,0.112,0.522,0.165c0.635,0.193,1.271,0.382,1.904,0.576c0.434,0.133,0.432,0.135,0.361,0.562
			c-0.042,0.262-0.074,0.526-0.125,0.786c-0.045,0.228,0.008,0.367,0.25,0.453c0.781,0.279,1.554,0.581,2.332,0.869
			c0.252,0.094,0.289,0.071,0.293-0.198c0.008-0.482,0.003-0.964,0.003-1.446c0-0.915,0.001-1.829-0.001-2.743
			c0-0.437-0.003-0.437-0.419-0.602c-0.062-0.024-0.124-0.046-0.187-0.071c-2.682-1.025-5.401-1.937-8.16-2.727
			c-1.914-0.547-3.842-1.034-5.789-1.448c-1.704-0.362-3.414-0.684-5.135-0.95c-1.113-0.172-2.231-0.328-3.355-0.431
			c-0.842-0.077-1.682-0.185-2.524-0.262c-0.595-0.055-1.192-0.091-1.789-0.119c-0.474-0.023-0.478-0.012-0.479,0.437
			C96.605,47.639,96.607,48.337,96.607,49.035z M124.447,71.49c0-0.598,0.003-1.196-0.001-1.795c-0.003-0.451,0.062-0.41-0.42-0.597
			c-0.326-0.126-0.65-0.254-0.979-0.37c-1.046-0.375-2.092-0.749-3.141-1.115c-0.363-0.127-0.375-0.118-0.451,0.254
			c-0.096,0.471-0.188,0.943-0.262,1.418c-0.034,0.216-0.117,0.282-0.332,0.229c-1.223-0.3-2.448-0.595-3.674-0.89
			c-0.199-0.047-0.307-0.149-0.315-0.376c-0.021-0.514-0.072-1.026-0.098-1.54c-0.036-0.712-0.03-0.712-0.715-0.855
			c-0.296-0.062-0.306-0.061-0.358,0.226c-0.107,0.587-0.205,1.175-0.314,1.763c-0.056,0.301-0.084,0.317-0.4,0.244
			c-1.212-0.281-2.423-0.564-3.633-0.852c-0.333-0.078-0.338-0.096-0.379-0.475c-0.066-0.61-0.138-1.22-0.207-1.83
			c-0.02-0.168-0.042-0.328-0.26-0.368c-0.701-0.127-1.401-0.261-2.102-0.396c-0.214-0.041-0.328,0.049-0.43,0.238
			c-0.156,0.291-0.336,0.573-0.534,0.84c-0.929,1.252-2.135,1.895-3.733,1.727c-1.183-0.122-2.164-0.596-2.922-1.516
			c-0.471-0.572-0.805-1.222-1.022-1.924c-0.088-0.285-0.229-0.42-0.518-0.422c-0.083-0.001-0.165-0.022-0.248-0.027
			c-0.35-0.021-0.357-0.021-0.357,0.346c-0.001,1.279,0.002,2.559,0.008,3.838c0.001,0.371,0.007,0.381,0.384,0.424
			c0.611,0.07,1.227,0.069,1.84,0.113c1.639,0.121,3.27,0.299,4.9,0.504c1.893,0.239,3.771,0.555,5.643,0.926
			c3.369,0.672,6.684,1.557,9.949,2.62c1.529,0.499,3.041,1.048,4.541,1.632c0.539,0.209,0.539,0.207,0.54-0.349
			C124.447,72.588,124.447,72.039,124.447,71.49z M27.144,64.241c1.047,0,2.093,0.001,3.14-0.001c0.063,0,0.166-0.003,0.182-0.037
			c0.03-0.062-0.048-0.113-0.096-0.157c-0.636-0.608-1.272-1.219-1.911-1.824c-0.677-0.64-1.334-1.299-1.817-2.104
			c-0.149-0.248-0.353-0.324-0.621-0.326c-1.446-0.008-2.886-0.107-4.327-0.222c-0.844-0.067-1.688-0.123-2.528-0.229
			c-1.529-0.193-3.063-0.36-4.578-0.653c-0.384-0.075-0.677-0.004-0.846,0.39c-0.071,0.167-0.18,0.32-0.292,0.463
			c-0.145,0.187-0.167,0.391-0.131,0.612c0.141,0.867,0.279,1.734,0.422,2.602c0.03,0.179,0.086,0.312,0.328,0.24
			c0.188-0.057,0.393-0.06,0.59-0.084c1.854-0.221,3.645-0.058,5.309,0.873c0.144,0.08,0.288,0.152,0.462,0.166
			c0.661,0.052,1.321,0.133,1.983,0.174C23.988,64.222,25.565,64.275,27.144,64.241z M24.692,59.174c0.348,0,0.697,0.002,1.046,0
			c0.339-0.003,0.354-0.019,0.23-0.328c-0.611-1.515-0.682-3.059-0.267-4.632c0.083-0.314,0.078-0.312-0.264-0.335
			c-1.009-0.067-2.021-0.103-3.03-0.175c-1.505-0.107-3.005-0.264-4.504-0.435c-0.262-0.029-0.548-0.176-0.778-0.041
			c-0.225,0.133-0.265,0.446-0.379,0.682c-0.65,1.348-1.41,2.631-2.198,3.9c-0.164,0.264-0.147,0.29,0.156,0.336
			c1.556,0.239,3.111,0.47,4.678,0.633C21.15,58.964,22.918,59.084,24.692,59.174z M28.306,68.229c0,0,0-0.001,0-0.002
			c0.615,0,1.229-0.006,1.844,0.003c0.314,0.004,0.357,0.044,0.313,0.35c-0.05,0.346-0.082,0.691-0.097,1.039
			c-0.008,0.188,0.033,0.264,0.248,0.246c0.86-0.065,1.725-0.022,2.587-0.114c0.697-0.074,0.694-0.047,0.477-0.712
			c-0.493-1.513-1.382-2.784-2.384-3.993c-0.156-0.188-0.335-0.183-0.534-0.181c-3.155,0.041-6.308,0.021-9.453-0.286
			c-0.048-0.005-0.098,0.009-0.147,0.015c0.022,0.041,0.037,0.091,0.069,0.122c0.382,0.372,0.724,0.776,1.015,1.226
			c0.708,1.093,1.096,2.298,1.25,3.584c0.019,0.154,0.014,0.294,0.233,0.301c0.664,0.021,1.327,0.049,1.99,0.086
			c0.22,0.014,0.3-0.094,0.323-0.283c0.042-0.345,0.082-0.691,0.127-1.036c0.044-0.349,0.047-0.356,0.396-0.36
			C27.143,68.225,27.724,68.229,28.306,68.229z M11.225,47.635c0,0.465-0.02,0.931,0.005,1.395c0.042,0.778,0.124,1.553,0.248,2.323
			c0.034,0.211,0.114,0.305,0.335,0.344c0.7,0.125,1.398,0.27,2.092,0.426c0.201,0.045,0.271-0.062,0.349-0.194
			c0.234-0.401,0.478-0.797,0.697-1.206c0.765-1.424,1.436-2.884,1.584-4.521c0.08-0.876-0.058-1.727-0.488-2.5
			c-0.375-0.674-0.956-1.031-1.754-1.017c-0.808,0.014-1.476,0.336-2.065,0.858c-0.487,0.431-0.823,0.948-0.907,1.609
			C11.215,45.977,11.207,46.806,11.225,47.635z M3.543,52.752c0,0.747,0.008,1.494-0.005,2.241
			c-0.004,0.238,0.075,0.335,0.308,0.413c1.887,0.628,3.792,1.194,5.727,1.654c0.254,0.06,0.541,0.24,0.757,0.128
			c0.213-0.109,0.328-0.403,0.493-0.61c0.132-0.165,0.188-0.333,0.144-0.551c-0.246-1.201-0.477-2.405-0.721-3.606
			c-0.101-0.498-0.11-0.502-0.613-0.612c-1.213-0.267-2.421-0.559-3.616-0.901c-0.732-0.21-1.467-0.411-2.203-0.611
			c-0.26-0.07-0.269-0.062-0.271,0.212C3.541,51.257,3.543,52.005,3.543,52.752z M10.093,69.124c0.001,0,0.001,0,0.002,0
			c0-0.083,0-0.167,0-0.249c-0.003-0.355-0.002-0.359-0.366-0.449c-0.451-0.11-0.908-0.197-1.353-0.324
			c-0.228-0.066-0.328-0.014-0.403,0.205c-0.428,1.244-0.766,2.504-0.754,3.835c0.004,0.528-0.001,0.53,0.489,0.67
			c1.515,0.429,3.044,0.801,4.588,1.11c0.828,0.165,1.657,0.328,2.489,0.479c0.363,0.065,0.384,0.043,0.308-0.298
			c-0.341-1.52-0.691-3.037-1.035-4.557c-0.046-0.204-0.151-0.291-0.365-0.328c-0.783-0.137-1.562-0.301-2.342-0.454
			c-0.744-0.146-0.742-0.146-1.024,0.55c-0.048,0.117-0.071,0.338-0.175,0.318c-0.105-0.019-0.045-0.232-0.058-0.359
			C10.089,69.224,10.093,69.174,10.093,69.124z M72.266,61.295c0,0.682-0.003,1.363,0.001,2.044c0.003,0.415,0.03,0.441,0.415,0.389
			c0.755-0.104,1.509-0.222,2.265-0.319c1.233-0.161,2.466-0.32,3.701-0.46c0.359-0.04,0.389-0.005,0.393-0.397
			c0.015-1.212,0.007-2.424,0.081-3.635c0.019-0.292,0.07-0.593-0.032-0.884c-0.295,0.021-0.594,0.026-0.887,0.066
			c-1.872,0.254-3.743,0.517-5.614,0.778c-0.31,0.043-0.317,0.046-0.32,0.377C72.262,59.934,72.266,60.615,72.266,61.295z
			 M14.941,79.003c0.335,0.001,0.665-0.017,0.992-0.085c0.273-0.059,0.301-0.08,0.235-0.361c-0.258-1.096-0.527-2.188-0.785-3.284
			c-0.036-0.149-0.106-0.229-0.258-0.256c-0.311-0.052-0.617-0.122-0.929-0.171c-2.161-0.336-4.296-0.797-6.417-1.328
			c-0.096-0.023-0.191-0.053-0.289-0.066c-0.099-0.016-0.158,0.039-0.153,0.14c0.004,0.082,0.021,0.164,0.04,0.245
			c0.318,1.375,1.029,2.504,2.138,3.378C11.107,78.468,12.964,78.921,14.941,79.003z M72.265,56.329c0.002,0,0.002,0,0.003,0
			c0,0.532,0.001,1.064-0.001,1.596c-0.001,0.175,0.076,0.237,0.248,0.207c0.261-0.047,0.522-0.09,0.785-0.125
			c1.135-0.155,2.269-0.309,3.403-0.458c0.724-0.096,1.447-0.192,2.173-0.273c0.211-0.023,0.277-0.108,0.281-0.312
			c0.023-1.229,0.061-2.459,0.087-3.688c0.007-0.325-0.003-0.327-0.311-0.301c-0.215,0.018-0.429,0.064-0.644,0.064
			c-0.354,0-0.561,0.154-0.596,0.509c-0.033,0.324-0.252,0.398-0.521,0.405c-0.499,0.014-0.998,0.027-1.496,0.034
			c-0.369,0.005-0.37,0-0.424-0.384c-0.008-0.064,0-0.129-0.088-0.151c-0.248-0.062-0.49,0.095-0.488,0.36
			c0.002,0.276-0.107,0.365-0.376,0.398c-0.56,0.067-1.113,0.179-1.669,0.273c-0.349,0.059-0.359,0.061-0.364,0.401
			C72.26,55.364,72.265,55.847,72.265,56.329z M16.341,64.383c-0.463-0.001-1.076,0.14-1.54,0.354
			c-0.334,0.153-0.355,0.164-0.281,0.524c0.236,1.135,0.49,2.265,0.729,3.399c0.049,0.233,0.184,0.33,0.409,0.354
			c0.28,0.03,0.558,0.078,0.836,0.113c1.019,0.13,2.037,0.261,3.056,0.384c0.395,0.049,0.792,0.076,1.188,0.109
			c0.129,0.012,0.217-0.01,0.196-0.188c-0.219-1.847-1.063-3.325-2.584-4.403C17.751,64.605,17.064,64.429,16.341,64.383z
			 M20.99,71.23c0-0.311,0.006-0.51-0.001-0.709c-0.012-0.332-0.017-0.338-0.327-0.367c-1.583-0.146-3.162-0.319-4.73-0.588
			c-0.098-0.016-0.199-0.015-0.298-0.02c-0.116-0.006-0.191,0.019-0.155,0.166c0.051,0.209,0.086,0.422,0.132,0.632
			c0.293,1.341,0.595,2.682,0.874,4.026c0.05,0.241,0.145,0.321,0.384,0.345c0.972,0.097,1.943,0.2,2.91,0.337
			c0.265,0.038,0.345-0.049,0.434-0.262C20.699,73.614,20.954,72.391,20.99,71.23z M38.236,59.37c0,0.002,0,0.004,0,0.006
			c-0.1,0.005-0.2,0.004-0.298,0.015c-1.337,0.148-2.678,0.236-4.021,0.305c-0.696,0.035-1.393,0.068-2.09,0.084
			c-0.056,0.002-0.142-0.033-0.157,0.055c-0.006,0.035,0.043,0.086,0.077,0.119c0.472,0.467,0.943,0.938,1.422,1.396
			c0.78,0.748,1.58,1.477,2.224,2.35c0.149,0.202,0.316,0.261,0.552,0.24c0.413-0.038,0.823-0.092,1.239-0.116
			c0.628-0.036,1.254-0.126,1.881-0.19c0.122-0.012,0.177-0.071,0.17-0.191c-0.004-0.083-0.004-0.166-0.015-0.248
			c-0.16-1.184-0.328-2.365-0.477-3.551c-0.027-0.211-0.097-0.301-0.308-0.274C38.37,59.376,38.302,59.37,38.236,59.37z
			 M3.543,58.266c0,0.597,0.009,1.196-0.004,1.792c-0.005,0.238,0.069,0.342,0.308,0.418c1.057,0.34,2.109,0.695,3.18,0.988
			c0.361,0.1,0.37,0.107,0.562-0.193C8.266,60.207,9,59.181,9.716,58.142c0.038-0.055,0.074-0.11,0.113-0.164
			c0.074-0.101,0.077-0.178-0.065-0.213c-0.112-0.028-0.223-0.062-0.336-0.089c-1.031-0.247-2.066-0.478-3.084-0.774
			c-0.795-0.231-1.596-0.444-2.394-0.664c-0.384-0.105-0.401-0.097-0.405,0.284C3.54,57.103,3.543,57.685,3.543,58.266z
			 M124.447,65.988c0-0.664-0.015-1.329,0.006-1.993c0.009-0.279-0.081-0.421-0.346-0.512c-0.675-0.231-1.34-0.489-2.011-0.731
			c-0.468-0.169-0.939-0.328-1.406-0.499c-0.136-0.05-0.218-0.04-0.242,0.12c-0.01,0.065-0.038,0.127-0.05,0.192
			c-0.228,1.255-0.447,2.513-0.687,3.766c-0.043,0.229,0.053,0.29,0.23,0.347c0.395,0.127,0.788,0.258,1.177,0.398
			c1.013,0.369,2.022,0.746,3.034,1.117c0.283,0.104,0.291,0.102,0.293-0.211C124.45,67.318,124.447,66.653,124.447,65.988z
			 M88.03,59.797c-0.025,0-0.052,0-0.078,0c0,0.648,0,1.297,0,1.945c-0.001,0.531-0.041,0.514,0.472,0.482
			c1.112-0.07,2.226-0.074,3.339-0.08c0.327-0.002,0.337-0.011,0.337-0.332c0.001-1.396-0.002-2.792-0.009-4.189
			c-0.001-0.332-0.01-0.338-0.379-0.339c-1.113-0.001-2.227-0.019-3.338,0.075c-0.324,0.027-0.337,0.022-0.341,0.345
			C88.025,58.402,88.03,59.099,88.03,59.797z M68.653,56.94c0.011,0,0.021,0,0.031,0c0-0.481,0.004-0.963-0.001-1.444
			c-0.004-0.306-0.027-0.324-0.306-0.28c-0.262,0.042-0.521,0.091-0.783,0.135c-0.361,0.061-0.382,0.059-0.447-0.3
			c-0.042-0.231-0.146-0.302-0.372-0.275c-0.315,0.037-0.339,0.046-0.357,0.349c-0.003,0.049,0.001,0.1-0.001,0.149
			c-0.017,0.353-0.016,0.354-0.348,0.411c-0.604,0.104-1.207,0.207-1.812,0.308c-0.56,0.094-0.564,0.102-0.524,0.654
			c0.025,0.364,0.047,0.728,0.058,1.092c0.015,0.515,0.015,1.03,0.027,1.544c0.009,0.329,0.015,0.333,0.327,0.272
			c0.521-0.101,1.038-0.212,1.56-0.309c0.862-0.16,1.728-0.309,2.591-0.47c0.349-0.065,0.353-0.074,0.356-0.441
			C68.658,57.871,68.653,57.406,68.653,56.94z M68.552,61.988c0.016,0,0.029,0,0.043,0c0-0.714-0.005-1.428,0.003-2.141
			c0.003-0.221-0.086-0.307-0.298-0.27c-0.375,0.064-0.749,0.141-1.126,0.191c-0.208,0.027-0.282,0.122-0.279,0.324
			c0.007,0.432-0.007,0.863,0.005,1.294c0.007,0.245-0.081,0.345-0.331,0.388c-0.815,0.14-1.626,0.307-2.437,0.471
			c-0.457,0.092-0.458,0.096-0.459,0.576c-0.002,0.564-0.001,1.129-0.001,1.693c0,0.726-0.002,0.716,0.71,0.587
			c1.27-0.23,2.542-0.449,3.814-0.668c0.338-0.059,0.35-0.05,0.354-0.406C68.558,63.349,68.552,62.668,68.552,61.988z
			 M92.044,54.378c-0.002,0-0.006,0-0.008,0c0-0.599,0.004-1.197-0.002-1.796c-0.003-0.362-0.01-0.363-0.354-0.373
			c-1.081-0.034-2.159,0.057-3.239,0.062c-0.232,0.001-0.312,0.085-0.326,0.32c-0.082,1.229-0.043,2.459-0.071,3.688
			c-0.005,0.215,0.074,0.292,0.29,0.289c1.13-0.017,2.261-0.029,3.391-0.031c0.234,0,0.328-0.076,0.324-0.315
			C92.038,55.608,92.044,54.993,92.044,54.378z M30.286,71.828c0.002,0,0.004,0,0.005,0c0,0.348-0.021,0.699,0.004,1.046
			c0.087,1.181,1.319,2.065,2.41,1.749c0.661-0.191,1.008-0.681,1.201-1.291c0.286-0.903,0.267-1.83,0.142-2.761
			c-0.031-0.226-0.169-0.215-0.32-0.197c-0.926,0.109-1.858,0.06-2.787,0.095c-0.132,0.006-0.265,0.017-0.397,0.025
			c-0.178,0.013-0.265,0.098-0.26,0.287C30.292,71.13,30.286,71.479,30.286,71.828z M124.446,60.607L124.446,60.607
			c0.001-0.582-0.006-1.164,0.004-1.746c0.004-0.21-0.056-0.332-0.27-0.408c-0.828-0.296-1.647-0.616-2.475-0.915
			c-0.33-0.12-0.363-0.091-0.427,0.246c-0.089,0.473-0.175,0.946-0.262,1.419c-0.108,0.588-0.214,1.175-0.322,1.762
			c-0.037,0.199-0.018,0.329,0.22,0.414c1.094,0.391,2.178,0.807,3.268,1.209c0.221,0.082,0.258,0.058,0.262-0.186
			C124.451,61.805,124.446,61.206,124.446,60.607z M25.212,75.422c0.349,0,0.697,0.004,1.046-0.002
			c0.32-0.004,0.326-0.01,0.223-0.295c-0.324-0.896-0.501-1.814-0.54-2.769c-0.021-0.531-0.04-1.058,0.006-1.589
			c0.025-0.295,0.005-0.301-0.293-0.313c-0.597-0.024-1.195,0.008-1.789-0.08c-0.219-0.032-0.286,0.062-0.296,0.274
			c-0.027,0.513-0.054,1.027-0.125,1.535c-0.138,0.973-0.432,1.903-0.841,2.798c-0.134,0.294-0.125,0.32,0.175,0.32
			C23.591,75.302,24.397,75.448,25.212,75.422z M60.675,57.963c0.007,0,0.014,0,0.02,0c0-0.598,0.002-1.197-0.002-1.795
			c0-0.091,0.033-0.246-0.085-0.247c-0.195-0.002-0.395,0.047-0.585,0.099c-0.135,0.037-0.14,0.173-0.146,0.29
			c-0.014,0.211-0.136,0.264-0.33,0.279c-0.679,0.052-1.355,0.128-2.033,0.182c-0.196,0.015-0.298,0.062-0.302,0.286
			c-0.019,1.163-0.048,2.325-0.082,3.487c-0.006,0.202,0.05,0.254,0.255,0.215c0.992-0.188,1.988-0.364,2.984-0.54
			c0.24-0.041,0.317-0.17,0.312-0.411C60.665,59.193,60.675,58.578,60.675,57.963z M100.92,58.887
			c0.023,1.044,0.075,2.085,0.361,3.097c0.188,0.669,0.238,0.698,0.913,0.752c0.839,0.066,0.854,0.049,1.102-0.778
			c0.341-1.138,0.381-2.314,0.474-3.485c0.024-0.301-0.009-0.335-0.323-0.377c-0.771-0.103-1.544-0.191-2.315-0.291
			c-0.155-0.021-0.212,0.04-0.211,0.187C100.921,58.291,100.92,58.589,100.92,58.887z M38.883,64.367
			c-0.785,0.078-1.625,0.175-2.47,0.215c-0.262,0.012-0.292,0.088-0.137,0.309c0.894,1.273,1.61,2.629,1.912,4.174
			c0.044,0.228,0.177,0.295,0.393,0.26c0.36-0.059,0.722-0.096,1.088-0.116c0.304-0.017,0.318-0.042,0.277-0.373
			c-0.172-1.381-0.349-2.762-0.529-4.142C39.375,64.364,39.35,64.355,38.883,64.367z M60.601,63.359c0.023,0,0.046,0,0.068,0
			c0-0.68,0.002-1.36,0-2.041c-0.002-0.355-0.007-0.355-0.363-0.285c-0.381,0.076-0.383,0.076-0.386,0.467
			c-0.003,0.398-0.006,0.798,0.001,1.196c0.003,0.182-0.061,0.278-0.249,0.294c-0.132,0.012-0.261,0.051-0.392,0.073
			c-0.588,0.101-1.175,0.206-1.765,0.296c-0.192,0.029-0.302,0.09-0.3,0.307c0.007,0.73,0.006,1.462,0,2.193
			c-0.002,0.193,0.082,0.267,0.268,0.264c0.562-0.008,1.125,0.08,1.685-0.074c0.334-0.092,0.683-0.136,1.024-0.2
			c0.4-0.075,0.405-0.074,0.407-0.495C60.603,64.689,60.601,64.023,60.601,63.359z M53.999,64.619c0.003,0,0.007,0,0.01,0
			c0-0.713-0.007-1.428,0.003-2.141c0.003-0.229-0.066-0.276-0.287-0.23c-0.454,0.094-0.914,0.158-1.371,0.234
			c-0.197,0.031-0.325,0.107-0.342,0.343c-0.02,0.28-0.091,0.556-0.135,0.833c-0.18,1.146-0.36,2.291-0.534,3.438
			c-0.048,0.324,0.014,0.377,0.354,0.318c0.604-0.102,1.208-0.207,1.81-0.32c0.491-0.092,0.491-0.098,0.492-0.581
			C54,65.881,53.999,65.25,53.999,64.619z M3.543,63.58c0,0.481-0.005,0.963,0.001,1.443c0.005,0.314-0.118,0.69,0.049,0.926
			c0.193,0.273,0.623,0.253,0.94,0.385c0.191,0.08,0.292,0.033,0.363-0.164c0.22-0.608,0.492-1.197,0.805-1.763
			c0.378-0.681,0.773-1.353,1.172-2.022c0.087-0.146,0.101-0.232-0.084-0.283c-1.005-0.277-2.012-0.555-3.016-0.837
			c-0.172-0.049-0.235-0.017-0.233,0.175C3.548,62.152,3.543,62.866,3.543,63.58z M103.774,56.769
			c-0.027-0.364-0.054-0.729-0.082-1.093c-0.053-0.697-0.151-1.388-0.376-2.051c-0.226-0.668-0.099-0.646-0.929-0.722
			c-0.247-0.022-0.533-0.222-0.753-0.001c-0.187,0.187-0.235,0.472-0.306,0.728c-0.272,1.001-0.294,2.034-0.393,3.058
			c-0.018,0.187,0.05,0.262,0.242,0.283c0.693,0.074,1.385,0.157,2.076,0.251C103.783,57.294,103.786,57.3,103.774,56.769z
			 M12.498,64.014c0.003-0.547-0.1-0.66-0.639-0.746c-0.262-0.041-0.528-0.077-0.779-0.156c-0.255-0.08-0.398-0.003-0.533,0.213
			c-0.457,0.732-0.917,1.464-1.315,2.231C8.949,66.1,8.694,66.66,8.419,67.209c-0.093,0.185-0.046,0.266,0.15,0.311
			c0.404,0.092,0.804,0.202,1.206,0.302c0.417,0.103,0.417,0.101,0.523-0.302c0.183-0.698,0.48-1.343,0.898-1.932
			c0.31-0.437,0.683-0.814,1.079-1.171C12.399,64.307,12.541,64.205,12.498,64.014z M16.901,75.286
			c-0.213-0.054-0.199,0.093-0.174,0.229c0.166,0.943,0.332,1.887,0.509,2.828c0.077,0.408,0.121,0.422,0.471,0.22
			c0.086-0.05,0.169-0.106,0.247-0.167c0.835-0.647,1.375-1.503,1.756-2.476c0.09-0.229,0.023-0.289-0.192-0.314
			C18.649,75.505,17.781,75.395,16.901,75.286z M54.018,59.297c0.003,0,0.005,0,0.007,0c0-0.432,0.008-0.863-0.001-1.294
			c-0.021-0.892,0.221-0.931-0.876-0.734c-0.221,0.039-0.298,0.125-0.329,0.344c-0.113,0.804-0.25,1.604-0.378,2.405
			c-0.067,0.426-0.137,0.851-0.196,1.277c-0.047,0.34,0.003,0.391,0.335,0.338c0.36-0.058,0.717-0.131,1.076-0.191
			c0.346-0.059,0.357-0.057,0.361-0.4C54.023,60.459,54.018,59.879,54.018,59.297z M108.578,63.262
			c-0.003-0.034-0.005-0.101-0.013-0.166c-0.157-1.285-0.315-2.57-0.473-3.855c-0.047-0.388-0.1-0.431-0.479-0.471
			c-0.213-0.022-0.305,0.04-0.306,0.263c-0.003,0.516-0.091,1.024-0.16,1.534c-0.115,0.842-0.304,1.666-0.583,2.467
			c-0.074,0.216-0.035,0.287,0.195,0.322c0.491,0.073,0.977,0.188,1.467,0.271C108.562,63.685,108.592,63.648,108.578,63.262z
			 M13.697,68.678c0.107,0.037,0.115-0.088,0.092-0.241c-0.005-0.032-0.008-0.065-0.016-0.099c-0.194-0.82-0.386-1.641-0.582-2.461
			c-0.057-0.236-0.081-0.248-0.292-0.113c-0.828,0.531-1.446,1.255-1.924,2.106c-0.091,0.163-0.039,0.228,0.14,0.265
			C11.941,68.302,12.765,68.48,13.697,68.678z M96.625,54.52c0.002,0,0.003,0,0.005,0c0,0.614,0.006,1.229-0.003,1.844
			c-0.003,0.211,0.069,0.292,0.285,0.295c0.198,0.001,0.316-0.043,0.325-0.264c0.006-0.132,0.045-0.262,0.055-0.394
			c0.076-0.944,0.247-1.871,0.48-2.788c0.061-0.233,0.279-0.524,0.141-0.687c-0.152-0.18-0.494-0.123-0.758-0.132
			c-0.084-0.002-0.168,0.003-0.249-0.006c-0.225-0.028-0.286,0.083-0.284,0.289C96.63,53.292,96.625,53.906,96.625,54.52z
			 M116.889,56.291c0.116,0.972,0.231,1.944,0.348,2.915c0.036,0.296,0.071,0.593,0.114,0.888c0.006,0.043,0.049,0.107,0.082,0.112
			c0.079,0.011,0.102-0.06,0.113-0.126c0.202-1.126,0.403-2.253,0.604-3.379c0.04-0.22,0.011-0.387-0.26-0.442
			c-0.226-0.045-0.442-0.139-0.665-0.204C116.888,55.956,116.88,55.963,116.889,56.291z M43.322,58.815
			c-0.31,0.041-0.574,0.064-0.833,0.113c-0.355,0.066-0.362,0.088-0.315,0.459c0.064,0.509,0.123,1.017,0.188,1.525
			c0.091,0.704,0.186,1.409,0.281,2.112c0.006,0.045,0.032,0.088,0.048,0.132c0.031-0.036,0.074-0.067,0.09-0.108
			c0.023-0.061,0.029-0.129,0.039-0.193c0.127-0.867,0.256-1.732,0.381-2.6c0.062-0.425,0.115-0.851,0.177-1.276
			C43.39,58.887,43.394,58.816,43.322,58.815z M3.544,69.188C3.544,69.188,3.543,69.188,3.544,69.188
			c-0.001,0.682,0.009,1.363-0.006,2.044c-0.005,0.247,0.077,0.361,0.322,0.403c0.244,0.042,0.271,0.044,0.236-0.185
			c-0.2-1.271-0.045-2.514,0.287-3.742c0.177-0.654,0.182-0.653-0.477-0.814c-0.032-0.008-0.064-0.018-0.096-0.025
			c-0.191-0.047-0.271,0.02-0.269,0.225C3.549,67.793,3.544,68.49,3.544,69.188z M97.118,58.616c0.017-0.215,0.044-0.512,0.062-0.81
			c0.02-0.306-0.029-0.341-0.326-0.339c-0.275,0.002-0.222,0.193-0.222,0.349c-0.002,1.346-0.001,2.693,0.003,4.039
			c0.001,0.383,0.007,0.383,0.413,0.434c0.358,0.044,0.396,0.016,0.334-0.316C97.183,60.89,97.14,59.796,97.118,58.616z
			 M46.3,68.174c-0.006-0.037-0.008-0.054-0.011-0.07c-0.193-1.092-0.387-2.184-0.583-3.276c-0.006-0.038,0.002-0.12-0.076-0.081
			c-0.035,0.018-0.061,0.077-0.068,0.121c-0.145,0.832-0.288,1.664-0.427,2.497c-0.062,0.368-0.207,0.728-0.138,1.111
			c0.375-0.05,0.749-0.099,1.124-0.148c0.016-0.002,0.033-0.005,0.049-0.007C46.271,68.309,46.313,68.253,46.3,68.174z
			 M11.799,52.291c-0.106,0.006-0.16,0.039-0.134,0.153c0.158,0.693,0.308,1.389,0.542,2.062c0.072,0.205,0.14,0.125,0.226,0.018
			c0.416-0.517,0.807-1.052,1.168-1.608c0.138-0.213,0.109-0.27-0.152-0.322c-0.503-0.101-1.007-0.194-1.51-0.289
			C11.891,52.296,11.84,52.295,11.799,52.291z M49.086,58.227c0.015-0.081,0.03-0.168-0.046-0.226
			c-0.062-0.045-0.764,0.084-0.814,0.145c-0.061,0.075-0.024,0.156-0.017,0.237c0.045,0.51,0.086,1.021,0.133,1.532
			c0.067,0.74,0.138,1.48,0.209,2.221c0.005,0.061,0,0.152,0.09,0.146c0.077-0.006,0.072-0.093,0.086-0.154
			c0.11-0.471,0.081-0.955,0.134-1.432C48.955,59.875,49.013,59.05,49.086,58.227z M112.339,55.022
			c0.057-0.234-0.014-0.327-0.203-0.358c-0.194-0.032-0.386-0.088-0.578-0.136c-0.139-0.036-0.178,0.037-0.173,0.155
			c0.005,0.149,0.008,0.298,0.024,0.446c0.128,1.1,0.26,2.2,0.391,3.3c0.006,0.048,0.018,0.096,0.027,0.145
			c0.017-0.055,0.041-0.109,0.049-0.166C112.033,57.263,112.189,56.117,112.339,55.022z M107.888,57.427c0.004,0,0.007,0,0.01-0.001
			c-0.139-1.167-0.285-2.332-0.409-3.5c-0.024-0.226-0.153-0.27-0.315-0.311c-0.221-0.057-0.283-0.001-0.24,0.213
			c0.056,0.275,0.123,0.548,0.18,0.823c0.197,0.961,0.226,1.939,0.271,2.914c0.01,0.224,0.239,0.408,0.475,0.342
			c0.189-0.054,0.022-0.219,0.04-0.331C107.905,57.527,107.892,57.477,107.888,57.427z M82.468,61.201c-0.004,0-0.008,0-0.012,0
			c0,0.232-0.004,0.465,0.001,0.696c0.015,0.692-0.178,0.674,0.717,0.622c0.065-0.004,0.131-0.02,0.196-0.034
			c0.147-0.032,0.182-0.117,0.123-0.255c-0.309-0.732-0.615-1.465-0.923-2.197c-0.013-0.028-0.037-0.072-0.058-0.072
			c-0.074-0.004-0.043,0.062-0.043,0.096C82.467,60.438,82.468,60.819,82.468,61.201z M84.53,53.773c0.011,0,0.021,0,0.031,0
			c0-0.198-0.008-0.396,0.002-0.594c0.035-0.765,0.037-0.765-0.754-0.682c-0.261,0.027-0.294,0.063-0.202,0.306
			c0.262,0.694,0.533,1.383,0.804,2.073c0.017,0.042,0.059,0.074,0.089,0.11c0.01-0.042,0.028-0.083,0.029-0.125
			C84.531,54.499,84.53,54.136,84.53,53.773z M114.646,64.719c-0.06-0.809-0.118-1.617-0.178-2.425
			c-0.004-0.049-0.019-0.097-0.027-0.146c-0.016,0.044-0.037,0.086-0.045,0.131c-0.137,0.747-0.274,1.494-0.404,2.243
			c-0.077,0.449-0.11,0.332,0.34,0.473C114.634,65.09,114.667,65.05,114.646,64.719z M12.016,62.728
			c0.248,0.024,0.289-0.019,0.254-0.253c-0.056-0.375-0.119-0.75-0.18-1.125c-0.006-0.041,0.013-0.104-0.057-0.104
			c-0.027,0-0.061,0.027-0.079,0.051c-0.251,0.35-0.5,0.7-0.751,1.05c-0.075,0.104-0.076,0.169,0.071,0.202
			C11.533,62.604,11.79,62.672,12.016,62.728z"/>
		<path fill-rule="evenodd" clip-rule="evenodd" d="M110.612,73.134c-0.347-0.062-0.713-0.167-1.074-0.291
			c-0.106-0.037-0.102-0.116-0.078-0.2c0.148-0.543,0.297-1.086,0.452-1.628c0.032-0.11,0.121-0.138,0.238-0.111
			c0.341,0.077,0.682,0.154,0.995,0.309c0.368,0.183,0.446,0.509,0.17,0.81c-0.133,0.145-0.128,0.223-0.066,0.395
			C111.374,72.766,111.042,73.133,110.612,73.134z M110.394,72.621c0.152,0.012,0.287,0.027,0.321-0.117
			c0.032-0.139-0.093-0.193-0.198-0.238c-0.06-0.025-0.126-0.034-0.188-0.057c-0.081-0.029-0.169-0.057-0.205,0.046
			c-0.038,0.108-0.061,0.233,0.071,0.303C110.266,72.595,110.35,72.607,110.394,72.621z M110.637,71.843
			c0.075-0.029,0.202,0.021,0.226-0.12c0.021-0.131-0.084-0.162-0.182-0.191c-0.063-0.02-0.125-0.044-0.189-0.061
			c-0.072-0.02-0.135,0.006-0.162,0.074c-0.032,0.083-0.027,0.172,0.059,0.218C110.458,71.801,110.542,71.814,110.637,71.843z"/>
		<path fill-rule="evenodd" clip-rule="evenodd" d="M117.41,73.146c-0.042,0.16-0.085,0.338-0.135,0.512
			c-0.091,0.318-0.186,0.635-0.278,0.951c-0.036,0.123-0.035,0.277-0.203,0.307c-0.164,0.027-0.463-0.152-0.511-0.316
			c-0.078-0.27-0.14-0.544-0.21-0.816c-0.014-0.057-0.035-0.111-0.053-0.168c-0.025,0.061-0.058,0.119-0.076,0.182
			c-0.06,0.205-0.113,0.414-0.171,0.621c-0.05,0.18-0.179,0.158-0.316,0.123c-0.141-0.035-0.261-0.081-0.208-0.264
			c0.148-0.525,0.294-1.051,0.447-1.574c0.029-0.097,0.096-0.188,0.219-0.146c0.18,0.061,0.404,0.055,0.459,0.312
			c0.06,0.273,0.132,0.546,0.201,0.818c0.014,0.054-0.007,0.122,0.059,0.158c0.02-0.045,0.045-0.088,0.059-0.135
			c0.062-0.223,0.122-0.446,0.185-0.669c0.039-0.14,0.13-0.169,0.267-0.139C117.345,72.947,117.41,72.993,117.41,73.146z"/>
		<path fill-rule="evenodd" clip-rule="evenodd" d="M113.429,72.311c-0.009,0.037,0,0.129-0.04,0.163
			c-0.362,0.305-0.253,0.749-0.349,1.131c-0.021,0.084,0.029,0.216-0.131,0.216c-0.188-0.001-0.424-0.146-0.42-0.272
			c0.004-0.097,0.047-0.192,0.061-0.29c0.035-0.238-0.04-0.348-0.259-0.397c-0.132-0.03-0.23,0.003-0.271,0.142
			c-0.023,0.08-0.041,0.161-0.059,0.242c-0.046,0.201-0.16,0.253-0.361,0.199c-0.221-0.059-0.242-0.174-0.182-0.369
			c0.146-0.475,0.281-0.951,0.414-1.43c0.051-0.178,0.134-0.246,0.324-0.184c0.312,0.104,0.641,0.166,0.94,0.313
			C113.31,71.879,113.434,72.038,113.429,72.311z M112.634,72.49c0.144-0.008,0.246-0.123,0.222-0.227
			c-0.038-0.163-0.413-0.294-0.532-0.176c-0.052,0.052-0.076,0.144-0.087,0.221c-0.011,0.084,0.073,0.094,0.135,0.111
			C112.465,72.445,112.56,72.471,112.634,72.49z"/>
		<path fill-rule="evenodd" clip-rule="evenodd" d="M119.296,74.156c0.013,0.256-0.059,0.489-0.174,0.715
			c-0.17,0.33-0.442,0.478-0.808,0.462c-0.082-0.003-0.165-0.015-0.245-0.033c-0.867-0.194-0.867-0.195-0.618-1.053
			c0.087-0.3,0.177-0.601,0.261-0.902c0.047-0.168,0.129-0.261,0.32-0.196c0.265,0.091,0.546,0.129,0.799,0.26
			C119.136,73.566,119.317,73.799,119.296,74.156z M118.26,74.821c0.18,0.028,0.308-0.088,0.389-0.271
			c0.089-0.198,0.175-0.406,0.034-0.611c-0.087-0.129-0.228-0.199-0.385-0.188c-0.15,0.012-0.15,0.16-0.188,0.261
			c-0.055,0.155-0.093,0.317-0.133,0.478C117.913,74.75,117.963,74.814,118.26,74.821z"/>
		<path fill-rule="evenodd" clip-rule="evenodd" d="M115.062,74.128c0.015,0.247-0.076,0.278-0.244,0.23
			c-0.164-0.046-0.295-0.086-0.354-0.289c-0.092-0.312-0.466-0.407-0.712-0.174c-0.188,0.18-0.338,0.055-0.495,0.005
			c-0.096-0.03-0.071-0.135-0.019-0.209c0.346-0.485,0.684-0.978,1.047-1.451c0.153-0.201,0.617-0.053,0.666,0.209
			c0.037,0.193,0.029,0.396,0.037,0.594C115.001,73.424,114.993,73.807,115.062,74.128z M114.466,73.151
			c-0.039-0.073,0.062-0.238-0.067-0.218c-0.106,0.018-0.179,0.182-0.188,0.312c-0.005,0.066,0.079,0.102,0.143,0.107
			C114.529,73.369,114.436,73.225,114.466,73.151z"/>
		<path fill-rule="evenodd" clip-rule="evenodd" d="M122.179,72.463c-0.963-0.006-1.719-0.746-1.725-1.689
			c-0.006-0.947,0.801-1.754,1.739-1.741c0.933,0.013,1.674,0.792,1.691,1.735C123.901,71.735,123.021,72.533,122.179,72.463z
			 M122.178,72.223c0.832,0,1.468-0.643,1.468-1.484c0.001-0.794-0.703-1.479-1.506-1.466c-0.777,0.014-1.448,0.698-1.45,1.479
			C120.688,71.572,121.345,72.223,122.178,72.223z"/>
		<path fill-rule="evenodd" clip-rule="evenodd" d="M121.444,71.182c0.057-0.385,0.127-0.809,0.182-1.236
			c0.025-0.195,0.128-0.251,0.305-0.223c0.244,0.04,0.498,0.054,0.732,0.127c0.443,0.138,0.54,0.617,0.155,0.873
			c-0.246,0.164-0.192,0.269-0.086,0.455c0.073,0.127,0.113,0.273,0.163,0.414c0.018,0.047,0.01,0.105-0.044,0.12
			c-0.044,0.013-0.103,0.009-0.143-0.011c-0.167-0.082-0.183-0.267-0.261-0.41c-0.086-0.158-0.141-0.34-0.324-0.422
			c-0.188-0.082-0.312-0.019-0.35,0.184c-0.013,0.064-0.006,0.135-0.023,0.197c-0.033,0.117-0.016,0.307-0.208,0.27
			C121.392,71.491,121.462,71.331,121.444,71.182z M122.162,70.013c-0.092-0.015-0.219-0.092-0.255,0.04
			c-0.041,0.15-0.123,0.358,0.043,0.456c0.181,0.106,0.407,0.147,0.622,0.06c0.095-0.039,0.165-0.107,0.169-0.224
			c0.004-0.114-0.055-0.185-0.146-0.238C122.461,70.025,122.306,70.051,122.162,70.013z"/>
	</g>
</g>
</svg>
