<?xml version="1.0" encoding="utf-8"?>
<!-- Generator: Adobe Illustrator 16.0.4, SVG Export Plug-In . SVG Version: 6.00 Build 0)  -->
<!DOCTYPE svg PUBLIC "-//W3C//DTD SVG 1.1//EN" "http://www.w3.org/Graphics/SVG/1.1/DTD/svg11.dtd">
<svg version="1.1" id="Layer_2929" xmlns="http://www.w3.org/2000/svg" xmlns:xlink="http://www.w3.org/1999/xlink" x="0px" y="0px"
	 width="128px" height="128px" viewBox="0 0 128 128" enable-background="new 0 0 128 128" xml:space="preserve">
<g>
	<path d="M102.5,41.5v-6h-1c0,0,0-0.295,0-0.372c-1-3.251-0.921-6.528-1.67-9.746c-0.79-3.38-1.377-7.691-2.666-10.915
		c-1.227-3.069,0.936-5.353-0.344-8.495c-0.822-2.024-1.621-3.265-3.67-3.778c-1.617-0.404-3.245-0.781-4.902-0.942
		c-6.976-0.676-14.962-1.188-21.976-1.085C58.811,0.277,42.953,0.36,35.627,1.971c-3.209,0.706-6.74,5.569-5.625,8.389
		c0.688,1.739,0.402,3.068-0.127,4.522C27.436,21.574,27,28.5,26.523,35.5H24.5v6h1.831c-0.025,13-0.021,25-0.099,38H24.5v6h1.697
		c-0.004,3,0.05,6.342,0.349,9.541c0.635,6.781,1.644,13.456,4.383,19.828c2.266,5.271,5.708,9.12,11.604,10.473
		c0.736,0.169,0.968,0.309,1.968,0.456v1.702h38v-1.78c1-0.133,1.64-0.27,2.271-0.419c5.522-1.304,9.453-4.727,11.633-9.738
		c1.693-3.89,2.926-7.879,3.59-12.049c0.498-3.122,0.506-6.237,1.506-9.355c0-2.933,0-5.658,0-8.658h1v-6h-1c0-13,0-25,0-38H102.5z
		 M51.5,42.239c7,0.739,17,0.739,24,0.087v13.197c-6,0.885-17,1.298-24-0.008V42.239z"/>
</g>
</svg>
