<?xml version="1.0" encoding="utf-8"?>
<!-- Generator: Adobe Illustrator 16.0.4, SVG Export Plug-In . SVG Version: 6.00 Build 0)  -->
<!DOCTYPE svg PUBLIC "-//W3C//DTD SVG 1.1//EN" "http://www.w3.org/Graphics/SVG/1.1/DTD/svg11.dtd">
<svg version="1.1" id="Layer_2933" xmlns="http://www.w3.org/2000/svg" xmlns:xlink="http://www.w3.org/1999/xlink" x="0px" y="0px"
	 width="128px" height="128px" viewBox="0 0 128 128" enable-background="new 0 0 128 128" xml:space="preserve">
<g>
	<path d="M103.809,14.815c-5.89-0.001-11.779-0.003-17.668-0.006c-0.106,0.029-0.213,0.047-0.318,0.044
		c-0.1-0.003-0.197-0.17-0.291-0.196C80.408,14.655,75.286,14.5,70.164,14.5h-1.372c-0.06,0-0.118,0.172-0.177,0.171
		c-0.065,0-0.127,0.063-0.189,0.056l-16.755,0.031c-0.099,0.017-0.2,0.042-0.304,0.037c-0.039-0.002-0.075-0.003-0.114-0.009H39.361
		c-2.104,0-4.21,0-6.314-0.001c-0.085,0.018-0.171,0.028-0.256,0.027c-0.076-0.002-0.147-0.015-0.218-0.026
		c-0.441-0.001-0.882-0.139-1.324-0.139c-2.854-0.004-5.709-0.146-8.563-0.146h-2.834c-2.459,0-4.35,1.497-5.059,3.765
		c-0.263,0.845-1.298,1.834-1.298,2.701C13.5,38.978,12.5,57.058,12.5,75.069v18.495c0,4.608,1,9.216,0.995,13.823
		c0,1.045,0.598,2.488,0.764,3.096c0.279,1.012,1.078,1.922,2.041,2.902c0.241,0.128,0.548,0.749,0.69,0.991
		c0.249,0.227,0.613,0.123,0.903,1.123h13.513c0.011-1,0.66-1.469,1.463-1.436c0.768,0.031,1.379,0.436,1.414,1.436h15.67
		c0.042-1,0.647-1.836,1.382-1.873c0.827-0.043,1.517,0.805,1.544,1.634c0,0.009-0.002,0.239-0.002,0.239h14.216
		c0.014-1,0.796-1.441,1.553-1.451c0.798-0.01,1.462,0.451,1.475,1.451h14.219c0,0-0.002-0.436-0.002-0.441
		c-0.013-0.732,0.284-1.639,1.096-1.651c0.817-0.012,1.068,0.418,1.068,1.23c0,0.005,0,0.862,0,0.862h15c0,0,0-0.855,0-0.858
		c0-0.82,1.293-1.034,2.117-1.022c0.783,0.012,2.051,0.881,2.061,1.881h4.699c0.637,0,1.743-2.342,2.216-3.162l0.192-0.543
		c0.076-0.13,0.145-0.388,0.209-0.547c-0.052,0.005-0.104-0.04-0.157-0.041c-0.84-0.023-1.483-0.8-1.441-1.706
		c0.039-0.819,0.752-1.479,1.559-1.428c0.19,0.012,0.373,0.058,0.537,0.14c0.002-0.107,0.009-0.221,0.009-0.331v-7.107
		c-1,0.121-0.437,0.2-0.661,0.202c-0.832,0.007-1.442-0.617-1.454-1.483c-0.01-0.891,0.669-1.581,1.526-1.555
		c0.209,0.006-0.411,0.062,0.589,0.154v-7.365c-1,0.086-0.388,0.137-0.61,0.149c-0.829,0.05-1.493-0.648-1.495-1.571
		c-0.002-0.816,0.642-1.479,1.451-1.496c0.232-0.005-0.346,0.053,0.654,0.148v-7.479c-1,0.097-0.472,0.151-0.748,0.146
		c-0.832-0.021-1.34-0.549-1.357-1.419c-0.016-0.815,0.64-1.505,1.449-1.522c0.232-0.006-0.344,0.052,0.656,0.146v-7.418
		c-1,0.115-0.397,0.191-0.6,0.195c-0.755,0.017-1.539-0.843-1.504-1.652c0.031-0.753,0.686-1.382,1.452-1.396
		c0.23-0.004-0.349,0.054,0.651,0.149v-7.474c-1,0.086-0.416,0.137-0.652,0.135c-0.886-0.006-1.465-0.593-1.453-1.475
		c0.012-0.859,0.665-1.506,1.479-1.47c0.226,0.01-0.374,0.067,0.626,0.158v-7.473c-1,0.088-0.417,0.14-0.652,0.137
		c-0.894-0.01-1.463-0.59-1.453-1.483c0.01-0.851,0.651-1.483,1.49-1.475c0.222,0.003-0.385,0.052,0.615,0.136v-7.431
		c-1,0.077-0.364,0.123-0.567,0.13c-0.833,0.03-1.505-0.591-1.536-1.423c-0.031-0.836,0.589-1.504,1.422-1.535
		c0.245-0.01-0.318,0.043,0.682,0.136v-7.441c-1,0.094-0.445,0.147-0.697,0.138c-0.879-0.032-1.438-0.629-1.406-1.507
		c0.031-0.891,0.729-1.515,1.618-1.451c0.178,0.013-0.515,0.053,0.485,0.109v-1.923c0-0.504-0.001-1.018,0.003-1.535
		c0.009-1.143,0.015-2.325-0.019-3.437c-0.004-0.169-0.025-0.33-0.041-0.492c-0.173,0.07-0.362,0.111-0.563,0.112
		c-0.827,0.003-1.484-0.647-1.488-1.474c-0.004-0.685,0.44-1.247,1.062-1.425c-0.406-0.557-0.928-1.03-1.571-1.413
		c-0.854-0.509-1.864-0.746-3.179-0.746c-1.059,0-2.118-0.001-3.177-0.001c-0.114,0.037-0.229,0.062-0.345,0.061
		C104.051,14.875,103.928,14.851,103.809,14.815z M15.889,21.982c0.753,0.032,1.476,0.849,1.408,1.592
		c-0.063,0.702-0.823,1.381-1.52,1.36c-0.814-0.025-1.434-0.74-1.373-1.583C14.46,22.604,15.167,21.952,15.889,21.982z
		 M15.725,32.143c0.771-0.051,1.536,0.623,1.576,1.387c0.042,0.807-0.721,1.578-1.544,1.561c-0.721-0.015-1.334-0.677-1.355-1.465
		C14.38,32.854,14.971,32.192,15.725,32.143z M15.804,42.334c0.786-0.025,1.457,0.56,1.496,1.302
		c0.04,0.775-0.647,1.528-1.415,1.552c-0.815,0.024-1.487-0.635-1.484-1.456C14.404,42.968,15.015,42.359,15.804,42.334z
		 M15.751,52.461c0.812-0.052,1.509,0.58,1.543,1.397c0.03,0.745-0.699,1.464-1.499,1.478c-0.723,0.012-1.367-0.646-1.395-1.423
		C14.374,53.15,14.967,52.511,15.751,52.461z M17.299,64.081c-0.05,0.756-0.697,1.393-1.429,1.406
		c-0.824,0.016-1.516-0.742-1.468-1.61c0.044-0.794,0.632-1.308,1.475-1.287C16.719,62.61,17.353,63.274,17.299,64.081z
		 M15.828,85.732c-0.834-0.018-1.475-0.699-1.433-1.523c0.045-0.831,0.739-1.435,1.576-1.37c0.75,0.059,1.352,0.749,1.317,1.513
		C17.255,85.107,16.576,85.748,15.828,85.732z M17.29,94.444c-0.015,0.753-0.674,1.408-1.429,1.418
		c-0.83,0.012-1.49-0.66-1.464-1.492c0.025-0.841,0.692-1.449,1.542-1.405C16.692,93.004,17.305,93.675,17.29,94.444z
		 M15.718,105.997c-0.752-0.043-1.339-0.696-1.325-1.473c0.015-0.831,0.665-1.453,1.494-1.434c0.793,0.02,1.447,0.73,1.405,1.528
		C17.25,105.399,16.516,106.042,15.718,105.997z M15.843,75.608c-0.797-0.009-1.469-0.723-1.446-1.536
		c0.021-0.765,0.665-1.364,1.459-1.36c0.79,0.006,1.432,0.615,1.449,1.377C17.322,74.899,16.632,75.618,15.843,75.608z
		 M24.386,29.977c-0.725-0.001-1.507-0.79-1.485-1.498c0.024-0.791,0.739-1.447,1.541-1.417c0.771,0.03,1.471,0.791,1.416,1.542
		C25.806,29.326,25.107,29.977,24.386,29.977z M25.854,38.625c0.006,0.787-0.708,1.497-1.484,1.474
		c-0.805-0.024-1.421-0.727-1.366-1.559c0.052-0.778,0.695-1.377,1.45-1.351C25.189,37.216,25.847,37.89,25.854,38.625z
		 M24.432,47.311c0.735,0.014,1.376,0.657,1.417,1.422c0.042,0.816-0.596,1.478-1.439,1.489c-0.797,0.012-1.521-0.684-1.511-1.452
		C22.908,48.038,23.687,47.297,24.432,47.311z M24.488,57.451c0.715,0.024,1.369,0.729,1.368,1.475c0,0.839-0.635,1.446-1.498,1.437
		c-0.796-0.01-1.483-0.713-1.46-1.495C22.921,58.152,23.735,57.426,24.488,57.451z M25.854,69.028
		c0.019,0.834-0.603,1.453-1.464,1.459c-0.838,0.004-1.422-0.524-1.458-1.318c-0.036-0.82,0.715-1.609,1.518-1.596
		C25.115,67.585,25.839,68.335,25.854,69.028z M24.3,77.724c0.724-0.045,1.535,0.689,1.58,1.431
		c0.049,0.782-0.622,1.444-1.478,1.457c-0.866,0.013-1.501-0.587-1.506-1.425C22.893,78.484,23.58,77.768,24.3,77.724z
		 M24.407,16.933c0.771-0.001,1.404,0.596,1.452,1.371c0.051,0.813-0.582,1.512-1.4,1.544c-0.744,0.03-1.546-0.703-1.562-1.429
		C22.879,17.704,23.662,16.935,24.407,16.933z M24.43,87.849c0.704,0.033,1.417,0.751,1.427,1.439
		c0.012,0.84-0.604,1.447-1.473,1.451c-0.871,0.002-1.491-0.596-1.488-1.438C22.898,88.562,23.687,87.815,24.43,87.849z
		 M24.415,97.97c0.709,0.021,1.429,0.74,1.441,1.438c0.014,0.809-0.658,1.513-1.457,1.526c-0.758,0.013-1.466-0.618-1.503-1.342
		C22.854,98.776,23.633,97.946,24.415,97.97z M24.28,111.089c-0.718-0.025-1.407-0.765-1.38-1.48
		c0.03-0.789,0.776-1.535,1.515-1.512c0.731,0.021,1.498,0.842,1.465,1.569C25.848,110.409,25.053,111.116,24.28,111.089z
		 M32.848,21.975c0.695,0.013,1.409,0.726,1.437,1.435c0.028,0.72-0.731,1.528-1.464,1.557c-0.771,0.031-1.428-0.668-1.426-1.515
		C31.396,22.581,32.009,21.959,32.848,21.975z M34.295,33.575c0,0.714-0.792,1.514-1.505,1.522
		c-0.779,0.009-1.409-0.688-1.395-1.543c0.015-0.837,0.56-1.409,1.358-1.425C33.529,32.114,34.297,32.833,34.295,33.575z
		 M32.713,42.324c0.849-0.025,1.573,0.597,1.59,1.367c0.018,0.766-0.715,1.546-1.453,1.545c-0.817-0.001-1.439-0.641-1.455-1.497
		C31.379,42.837,31.832,42.351,32.713,42.324z M32.768,106.005c-0.752-0.02-1.356-0.653-1.368-1.434
		c-0.013-0.844,0.625-1.5,1.436-1.479c0.817,0.021,1.487,0.7,1.469,1.489C34.289,105.356,33.564,106.026,32.768,106.005z
		 M31.401,94.448c-0.021-0.881,0.54-1.476,1.409-1.492c0.761-0.014,1.433,0.593,1.477,1.332c0.046,0.797-0.72,1.603-1.519,1.595
		C32.036,95.876,31.42,95.23,31.401,94.448z M32.886,85.751c-0.802,0.049-1.458-0.589-1.487-1.445
		c-0.027-0.817,0.51-1.416,1.314-1.463c0.809-0.048,1.559,0.588,1.607,1.364C34.37,84.976,33.695,85.701,32.886,85.751z
		 M32.833,75.628c-0.778,0.037-1.427-0.643-1.435-1.502c-0.009-0.89,0.552-1.433,1.465-1.42c0.758,0.012,1.425,0.643,1.459,1.379
		C34.353,74.761,33.55,75.593,32.833,75.628z M31.399,64.021c0.005-0.893,0.59-1.46,1.483-1.439c0.778,0.02,1.438,0.676,1.416,1.409
		c-0.021,0.681-0.765,1.47-1.408,1.497C32.092,65.52,31.395,64.835,31.399,64.021z M32.756,55.343
		c-0.745-0.018-1.339-0.651-1.359-1.449c-0.022-0.891,0.437-1.404,1.291-1.443c0.885-0.042,1.645,0.629,1.637,1.445
		C34.317,54.583,33.476,55.359,32.756,55.343z M68.561,21.93c0.731-0.014,1.529,0.733,1.557,1.459
		c0.029,0.746-0.696,1.531-1.436,1.557c-0.83,0.03-1.465-0.584-1.49-1.443C67.167,22.638,67.771,21.945,68.561,21.93z
		 M59.752,16.919c0.82,0.008,1.475,0.666,1.471,1.479c-0.002,0.787-0.68,1.441-1.51,1.459c-0.842,0.019-1.497-0.594-1.521-1.423
		C58.168,17.555,58.829,16.911,59.752,16.919z M51.379,21.969c0.814-0.036,1.481,0.625,1.488,1.475
		c0.006,0.851-0.65,1.521-1.466,1.497c-0.756-0.023-1.414-0.664-1.449-1.413C49.916,22.716,50.566,22.005,51.379,21.969z
		 M51.512,32.063c0.667,0.013,1.336,0.759,1.356,1.508c0.021,0.809-0.64,1.533-1.423,1.558c-0.784,0.025-1.479-0.66-1.5-1.479
		C49.926,32.87,50.736,32.048,51.512,32.063z M51.238,42.269c0.866-0.043,1.612,0.617,1.645,1.455
		c0.031,0.811-0.611,1.502-1.419,1.529c-0.735,0.023-1.475-0.69-1.523-1.473C49.896,43.058,50.544,42.304,51.238,42.269z
		 M41.108,18.212c0.109-0.792,0.895-1.382,1.694-1.273c0.693,0.094,1.378,0.916,1.308,1.569c-0.08,0.745-0.922,1.419-1.667,1.334
		C41.617,19.748,41,18.995,41.108,18.212z M42.753,29.673c0.094,0.391-0.298,0.312-0.509,0.254c-0.714-0.194-1.166-0.68-1.129-1.42
		c0.034-0.684,0.353-1.057,1.162-1.297c1.18-0.35,1.148,0.492,1.474,1.05c0.004-0.01,0.011-0.019,0.021-0.026
		c0.013-0.053,0.026-0.105,0.039-0.158c0.108,0.093,0.011,0.117-0.039,0.158c-0.004,0.015-0.007,0.029-0.011,0.044
		c-0.004-0.006-0.007-0.012-0.01-0.018c-0.001,0.001-0.004,0.003-0.004,0.006c0.055,0.239,0.173,0.485,0.15,0.716
		c-0.046,0.466-0.231,0.846-0.793,0.479C42.791,29.257,42.602,29.044,42.753,29.673z M42.59,37.171
		c0.79-0.012,1.575,0.797,1.533,1.578c-0.043,0.807-0.706,1.381-1.579,1.369c-0.81-0.012-1.47-0.683-1.462-1.485
		C41.09,37.854,41.781,37.183,42.59,37.171z M42.526,47.3c0.772-0.045,1.597,0.722,1.628,1.516c0.03,0.759-0.66,1.405-1.53,1.43
		c-0.828,0.024-1.502-0.595-1.541-1.415C41.047,48.048,41.706,47.348,42.526,47.3z M42.688,57.42
		c0.742,0.043,1.469,0.836,1.436,1.566c-0.038,0.853-0.659,1.413-1.542,1.39c-0.84-0.021-1.483-0.65-1.497-1.463
		C41.071,58.087,41.84,57.372,42.688,57.42z M44.123,69.054c0.002,0.84-0.749,1.574-1.583,1.548
		c-0.744-0.024-1.468-0.813-1.436-1.566c0.034-0.767,0.777-1.499,1.52-1.497C43.357,67.54,44.121,68.313,44.123,69.054z
		 M42.583,111.095c-0.744,0.005-1.522-0.782-1.483-1.498c0.041-0.744,0.808-1.502,1.526-1.506c0.751-0.006,1.464,0.741,1.456,1.525
		C44.074,110.413,43.389,111.091,42.583,111.095z M42.572,100.865c-0.857-0.024-1.516-0.695-1.455-1.48
		c0.058-0.732,0.881-1.455,1.607-1.409c0.719,0.046,1.352,0.741,1.359,1.494C44.091,100.319,43.473,100.891,42.572,100.865z
		 M42.467,90.851c-0.842-0.068-1.466-0.795-1.37-1.597c0.099-0.83,0.832-1.498,1.576-1.436c0.813,0.067,1.574,0.939,1.477,1.692
		C44.055,90.255,43.229,90.913,42.467,90.851z M43.844,79.524c-0.124,0.15-0.214,0.276-0.302,0.453
		c-0.276,0.553-1.166,0.789-1.684,0.48c-0.582-0.348-0.731-0.999-0.718-1.57c0.012-0.531,0.534-0.278,0.869-0.268
		c-0.077-0.214-0.369-0.412-0.189-0.635c0.321-0.396,0.98-0.298,1.053-0.024C43.049,78.618,44.957,78.187,43.844,79.524z
		 M51.369,52.34c0.71-0.025,1.499,0.759,1.506,1.501c0.01,0.809-0.657,1.513-1.448,1.532c-0.813,0.019-1.505-0.651-1.5-1.455
		C49.931,53.163,50.658,52.366,51.369,52.34z M51.33,62.47c0.904,0.023,1.56,0.678,1.558,1.557
		c-0.001,0.801-0.679,1.477-1.481,1.478c-0.799,0.001-1.477-0.677-1.479-1.479C49.927,63.19,50.592,62.45,51.33,62.47z
		 M50.574,74.439c-0.656-0.248-0.783-0.638-0.381-1.185c0.429-0.58,1.062-0.635,1.669-0.49c0.728,0.173,0.459,0.85,0.542,1.333
		c-0.07,0.554,0.16,1.228-0.569,1.492c-0.541,0.196-1.055,0.081-1.468-0.349c-0.112-0.116-0.243-0.258-0.134-0.418
		c0.052-0.075,0.21-0.086,0.324-0.109c0.181-0.041,0.462,0.243,0.52-0.033C51.115,74.483,50.758,74.509,50.574,74.439z
		 M51.562,106.005c-0.814,0.059-1.568-0.57-1.622-1.353c-0.058-0.833,0.553-1.528,1.385-1.574c0.837-0.046,1.516,0.573,1.548,1.411
		C52.903,105.281,52.324,105.95,51.562,106.005z M51.413,95.89c-0.798-0.002-1.434-0.648-1.465-1.49
		c-0.028-0.811,0.625-1.461,1.464-1.455c0.839,0.006,1.462,0.635,1.46,1.472C52.871,95.253,52.238,95.891,51.413,95.89z
		 M51.418,85.763c-0.843-0.035-1.487-0.676-1.485-1.477c0.003-0.839,0.632-1.461,1.479-1.465c0.842-0.004,1.473,0.627,1.469,1.468
		C52.878,85.134,52.22,85.796,51.418,85.763z M52.739,74.566c-0.034-0.114-0.085-0.218-0.091-0.323
		c-0.008-0.147-0.038-0.313,0.118-0.42c0.042,0.102,0.109,0.199,0.121,0.305C52.902,74.275,52.919,74.44,52.739,74.566z
		 M59.668,67.545c0.705-0.003,1.498,0.774,1.535,1.505c0.039,0.78-0.644,1.441-1.496,1.447c-0.828,0.007-1.494-0.553-1.522-1.281
		C58.154,68.397,58.907,67.549,59.668,67.545z M58.19,58.922c0.003-0.733,0.786-1.508,1.517-1.5
		c0.759,0.009,1.486,0.748,1.495,1.518c0.008,0.8-0.663,1.434-1.52,1.434C58.813,60.375,58.188,59.766,58.19,58.922z M59.438,80.61
		c-0.477-0.057-0.882-0.236-1.013-0.729c-0.135-0.508,0.444-0.492,0.638-0.766c-0.302-0.039-0.717,0.127-0.813-0.325
		c-0.065-0.31,0.186-0.522,0.427-0.688c0.201-0.138,0.403-0.289,0.629-0.372c0.264-0.099,0.592-0.179,0.772,0.122
		c0.154,0.258-0.1,0.445-0.241,0.636c-0.098,0.132-0.195,0.263-0.293,0.394c0.333-0.166,0.666-0.331,0.999-0.496
		c0.03-0.115,0.069-0.27,0.207-0.234c0.23,0.056,0.253,0.278,0.28,0.478c0.015,0.056,0.036,0.111,0.043,0.168
		c0.002,0.024-0.027,0.054-0.043,0.079C61.203,80.089,60.596,80.749,59.438,80.61z M59.545,87.817c0.77-0.05,1.627,0.723,1.66,1.493
		c0.031,0.733-0.718,1.525-1.454,1.537c-0.763,0.012-1.547-0.683-1.593-1.411C58.113,88.732,58.86,87.86,59.545,87.817z
		 M59.635,97.964c0.724-0.021,1.542,0.742,1.57,1.465c0.029,0.748-0.725,1.539-1.469,1.54c-0.779,0.003-1.558-0.712-1.576-1.446
		C58.142,98.798,58.91,97.985,59.635,97.964z M59.715,111.132c-0.723,0.018-1.483-0.738-1.52-1.51
		c-0.035-0.744,0.719-1.532,1.472-1.539c0.729-0.006,1.521,0.768,1.538,1.502C61.222,110.304,60.442,111.112,59.715,111.132z
		 M59.691,50.243c-0.861-0.021-1.542-0.656-1.53-1.429c0.013-0.83,0.78-1.551,1.607-1.511c0.815,0.039,1.487,0.74,1.456,1.516
		C61.19,49.632,60.513,50.262,59.691,50.243z M58.193,38.624c0.033-0.75,0.816-1.476,1.562-1.448
		c0.826,0.032,1.497,0.727,1.467,1.521c-0.03,0.818-0.721,1.451-1.548,1.418C58.8,40.08,58.156,39.432,58.193,38.624z
		 M60.791,29.607c-0.721,0.66-1.438,0.415-1.733-0.588c-0.433,0.227-0.857,0.244-0.878-0.354c-0.023-0.683,0.24-1.282,0.973-1.536
		c0.649-0.226,1.587,0.105,1.939,0.688C61.42,28.36,61.286,29.153,60.791,29.607z M68.599,32.058
		c0.713,0.015,1.489,0.796,1.521,1.531c0.03,0.695-0.782,1.535-1.485,1.536c-0.785,0.001-1.436-0.686-1.443-1.526
		C67.182,32.739,67.819,32.041,68.599,32.058z M68.449,75.5c0,0-0.003,0-0.004,0c-0.002,0-0.008-0.406-0.008-0.406
		c0.001,0,0.002-0.204,0.002-0.204c-0.025,0-0.126-0.102-0.131-0.101c-0.041,0.326,0.13,0.837-0.594,0.581
		c-0.145-0.052-0.277-0.269-0.214-0.425c0.138-0.338,0.445,0.208,0.698,0.169c0-0.005-0.016,0.386-0.015,0.386
		c0.005,0-0.685,0-0.685,0s0-0.61,0-0.685c0-0.005,0.341-0.193,0.337-0.198c0.002-0.003,0.179-0.1,0.181-0.104
		c-0.455-0.009-0.82-0.114-0.848-0.692c-0.029-0.619,0.46-0.803,0.977-0.844c-0.003-0.005,0.018-0.021,0.015-0.027
		c0.007,0.002,0.023,0.001,0.03,0.003c0.223-0.2,0.49-0.272,0.783-0.222c0.286,0.051,0.562,0.138,0.653,0.455
		c0.016,0.055-0.038,0.175-0.088,0.193c-0.264,0.1-0.552,0.231-0.794-0.003c-0.17-0.164-0.305-0.088-0.544-0.158
		c-0.003,0.004-0.007,0.281-0.01,0.281c0,0-0.001,0-0.002,0c0.286,1-0.039,0.713-0.344,1.207c0.003,0-0.347-0.275-0.347-0.275
		s0,0.008,0,0.017c0,0.017,0.943,1.052,0.937,1.052C68.443,75.5,68.45,75.5,68.449,75.5l1.136-1.221
		c0.443,0.148,0.339,0.372,0.284,0.714c-0.078,0.504-0.453,1.091-0.927,1.099C68.325,76.102,68.473,75.5,68.449,75.5z
		 M68.664,65.495c-0.786,0.02-1.475-0.672-1.468-1.477c0.007-0.889,0.577-1.451,1.463-1.439c0.808,0.01,1.493,0.707,1.459,1.486
		C70.09,64.71,69.308,65.479,68.664,65.495z M68.706,55.364c-0.791,0.041-1.48-0.619-1.512-1.446
		c-0.036-0.899,0.505-1.454,1.425-1.464c0.823-0.009,1.499,0.646,1.503,1.458C70.125,54.606,69.423,55.326,68.706,55.364z
		 M70.121,94.433c-0.006,0.785-0.716,1.463-1.527,1.455c-0.756-0.006-1.373-0.639-1.393-1.426c-0.02-0.844,0.6-1.493,1.438-1.507
		C69.444,92.942,70.127,93.623,70.121,94.433z M68.684,82.827c0.81,0.023,1.464,0.712,1.432,1.506
		c-0.031,0.782-0.743,1.441-1.539,1.427c-0.786-0.015-1.39-0.69-1.383-1.55C67.198,83.337,67.774,82.803,68.684,82.827z
		 M70.124,104.647c-0.093,0.842-0.894,1.473-1.722,1.355c-0.777-0.109-1.306-0.867-1.19-1.707c0.11-0.81,0.729-1.294,1.542-1.207
		C69.608,103.182,70.21,103.865,70.124,104.647z M68.615,45.226c-0.782,0.024-1.429-0.669-1.422-1.527
		c0.005-0.888,0.481-1.367,1.367-1.375c0.872-0.008,1.572,0.606,1.573,1.38C70.136,44.415,69.35,45.202,68.615,45.226z
		 M77.438,111.128c-0.726-0.004-1.517-0.785-1.527-1.508c-0.011-0.721,0.78-1.557,1.47-1.556c0.802,0.001,1.434,0.662,1.447,1.514
		C78.843,110.446,78.228,111.133,77.438,111.128z M77.54,101c-0.762,0.062-1.601-0.713-1.641-1.515
		c-0.035-0.699,0.753-1.531,1.462-1.543c0.753-0.013,1.542,0.714,1.568,1.443C78.957,100.157,78.283,100.94,77.54,101z
		 M76.089,27.945c0.177-0.708,0.744-1.005,1.491-0.657c0.373-0.337,0.682-0.165,0.948,0.142c0.476,0.546,0.295,1.486-0.387,2.08
		c-0.646,0.563-1.332,0.586-1.862,0.047c-0.109-0.111-0.254-0.28-0.238-0.404c0.04-0.302,0.312-0.154,0.49-0.167
		c0.213-0.016,0.401-0.074,0.553-0.229C76.551,28.723,75.906,28.676,76.089,27.945z M77.418,37.183c0.748,0,1.367,0.623,1.396,1.405
		c0.031,0.831-0.604,1.513-1.411,1.512c-0.804,0-1.502-0.683-1.498-1.464C75.907,37.86,76.613,37.183,77.418,37.183z M78.545,80.112
		c-0.372,0.516-1.349,0.662-1.906,0.325c-0.286-0.174-0.557-0.411-0.54-0.765c0.02-0.416,0.163-0.242,0.39-0.371
		c0.101-0.057,0.012-0.118,0.012-0.178c0-0.004,0-0.007,0-0.011c-1-0.013-0.105-0.003-0.29-0.05
		c-0.342-0.088-0.269-0.347-0.175-0.652c0.076-0.246,0.321-0.434,0.59-0.41c0.299,0.025,0.38-0.017,0.399,0.226
		C77.04,78.42,77.07,78.5,77.072,78.5s0.004,0,0.006,0c0.074,0,0.16-0.053,0.215-0.238c0.084-0.289-0.066-0.577,0.41-0.608
		c0.341-0.022,0.629,0.272,0.813,0.556C78.906,78.805,78.975,79.515,78.545,80.112z M78.817,89.433
		c-0.033,0.872-0.522,1.322-1.418,1.307c-0.847-0.014-1.513-0.675-1.471-1.459c0.042-0.774,0.797-1.477,1.546-1.438
		C78.276,87.884,78.85,88.563,78.817,89.433z M77.312,70.479c-0.779-0.028-1.409-0.666-1.388-1.404
		c0.022-0.737,0.811-1.53,1.497-1.506c0.788,0.027,1.408,0.713,1.397,1.547C78.809,69.976,78.214,70.515,77.312,70.479z
		 M75.926,58.935c0.014-0.774,0.756-1.516,1.494-1.49c0.793,0.027,1.41,0.708,1.398,1.546c-0.012,0.87-0.598,1.399-1.51,1.364
		C76.533,60.323,75.914,59.688,75.926,58.935z M77.469,50.224c-0.829,0.019-1.544-0.623-1.562-1.4
		c-0.016-0.695,0.779-1.501,1.496-1.516c0.78-0.015,1.412,0.661,1.417,1.516C78.823,49.67,78.307,50.206,77.469,50.224z
		 M77.361,19.859c-0.815-0.027-1.496-0.731-1.467-1.517c0.029-0.781,0.761-1.445,1.565-1.42c0.794,0.025,1.5,0.753,1.472,1.52
		C78.904,19.212,78.157,19.886,77.361,19.859z M95.331,16.912c0.819,0.017,1.478,0.703,1.455,1.516
		c-0.022,0.819-0.702,1.461-1.529,1.444c-0.872-0.019-1.506-0.626-1.52-1.456C93.724,17.535,94.403,16.893,95.331,16.912z
		 M95.245,77.674c0.81-0.011,1.521,0.658,1.536,1.446c0.018,0.863-0.67,1.516-1.58,1.5c-0.899-0.016-1.339-0.472-1.34-1.388
		C93.861,78.341,94.443,77.685,95.245,77.674z M93.864,69.167c-0.026-0.898,0.536-1.586,1.323-1.62
		c0.758-0.033,1.51,0.659,1.568,1.444c0.057,0.75-0.652,1.566-1.396,1.61C94.523,70.65,93.89,70.042,93.864,69.167z M95.241,60.372
		c-0.904-0.026-1.418-0.585-1.378-1.498c0.039-0.871,0.673-1.493,1.479-1.451c0.804,0.042,1.476,0.758,1.438,1.534
		C96.742,59.777,96.069,60.396,95.241,60.372z M95.306,50.243c-0.915,0.006-1.437-0.514-1.444-1.439
		c-0.006-0.899,0.564-1.514,1.399-1.507c0.818,0.005,1.517,0.676,1.521,1.461C96.788,49.576,96.131,50.237,95.306,50.243z
		 M93.861,38.724c-0.016-0.879,0.564-1.537,1.369-1.552c0.805-0.017,1.518,0.635,1.552,1.417c0.036,0.81-0.604,1.502-1.414,1.53
		C94.506,40.148,93.878,39.566,93.861,38.724z M95.262,29.996c-0.873-0.019-1.516-0.627-1.521-1.437
		c-0.005-0.853,0.737-1.56,1.587-1.511c0.82,0.046,1.479,0.733,1.455,1.518C96.759,29.375,96.08,30.013,95.262,29.996z
		 M85.816,21.927c0.722-0.026,1.529,0.735,1.562,1.476c0.032,0.715-0.729,1.538-1.459,1.576c-0.766,0.04-1.494-0.666-1.521-1.473
		C84.372,22.708,85.049,21.954,85.816,21.927z M85.915,106.024c-0.905-0.002-1.56-0.686-1.516-1.583
		c0.039-0.769,0.692-1.376,1.467-1.364c0.827,0.014,1.523,0.68,1.529,1.462C87.401,105.35,86.727,106.026,85.915,106.024z
		 M85.888,95.893c-0.827,0.017-1.461-0.614-1.479-1.474c-0.016-0.812,0.633-1.447,1.489-1.455c0.802-0.008,1.492,0.665,1.499,1.461
		C87.404,95.2,86.709,95.875,85.888,95.893z M85.992,52.458c0.757,0.035,1.373,0.665,1.396,1.425
		c0.021,0.724-0.745,1.464-1.519,1.467c-0.783,0.002-1.407-0.686-1.391-1.537C84.494,52.942,85.082,52.416,85.992,52.458z
		 M84.48,43.798c-0.02-0.861,0.604-1.534,1.42-1.534c0.737,0,1.436,0.671,1.457,1.402c0.021,0.733-0.74,1.533-1.477,1.551
		C85.139,45.234,84.498,44.587,84.48,43.798z M84.686,73.522c-0.003-0.023,0.033-0.051,0.052-0.076
		c0.655-0.832,1.546-0.983,2.157-0.366c0.58,0.583,0.518,1.188-0.189,1.841c-0.215,0.817-0.793,0.826-1.414,0.578
		c-0.705-0.283-0.844-0.814-0.554-1.809C84.719,73.634,84.693,73.579,84.686,73.522z M85.779,82.845
		c0.838-0.041,1.579,0.604,1.581,1.373c0.001,0.725-0.773,1.518-1.493,1.526c-0.74,0.01-1.362-0.628-1.386-1.424
		C84.455,83.479,84.979,82.884,85.779,82.845z M85.873,65.468c-0.735,0.015-1.38-0.639-1.395-1.413
		c-0.017-0.896,0.539-1.469,1.431-1.473c0.782-0.003,1.435,0.604,1.454,1.356C87.381,64.656,86.604,65.454,85.873,65.468z
		 M85.985,35.059c-0.824,0.053-1.603-0.67-1.624-1.505c-0.019-0.749,0.718-1.454,1.527-1.463c0.728-0.009,1.487,0.75,1.509,1.51
		C87.418,34.26,86.687,35.014,85.985,35.059z M95.244,111.138c-0.736-0.002-1.475-0.76-1.5-1.538
		c-0.022-0.747,0.726-1.508,1.495-1.521c0.844-0.014,1.542,0.704,1.542,1.586C96.781,110.421,96.033,111.138,95.244,111.138z
		 M95.285,100.975c-0.828,0-1.621-0.789-1.574-1.565c0.045-0.737,0.848-1.478,1.572-1.448c0.809,0.032,1.535,0.753,1.504,1.493
		C96.756,100.226,96.016,100.975,95.285,100.975z M95.347,90.85c-0.835,0.034-1.458-0.563-1.487-1.429
		c-0.031-0.897,0.621-1.618,1.456-1.606c0.751,0.011,1.468,0.741,1.485,1.515C96.818,90.115,96.148,90.817,95.347,90.85z
		 M102.739,94.304c0.02-0.869,0.621-1.4,1.537-1.355c0.792,0.037,1.455,0.773,1.405,1.561c-0.049,0.764-0.701,1.389-1.451,1.391
		C103.35,95.901,102.72,95.228,102.739,94.304z M104.172,75.645c-0.799,0.005-1.416-0.651-1.431-1.521
		c-0.016-0.886,0.541-1.429,1.463-1.427c0.823,0.001,1.479,0.658,1.478,1.475C105.678,74.956,104.978,75.64,104.172,75.645z
		 M105.689,84.29c-0.031,0.812-0.716,1.475-1.525,1.475c-0.849,0.002-1.473-0.727-1.422-1.661c0.047-0.866,0.564-1.321,1.462-1.288
		C105.075,82.847,105.721,83.487,105.689,84.29z M104.209,106.024c-0.84,0.001-1.465-0.631-1.463-1.479
		c0.002-0.839,0.637-1.476,1.473-1.476c0.838-0.001,1.5,0.66,1.473,1.469C105.661,105.378,105.018,106.023,104.209,106.024z
		 M104.181,65.501c-0.809-0.022-1.452-0.701-1.435-1.512c0.019-0.878,0.602-1.434,1.488-1.417c0.844,0.015,1.493,0.671,1.457,1.472
		C105.654,64.858,104.965,65.524,104.181,65.501z M104.299,55.374c-0.855,0.049-1.547-0.624-1.559-1.518
		c-0.012-0.883,0.562-1.501,1.412-1.521c0.729-0.017,1.506,0.723,1.543,1.465C105.734,54.601,105.088,55.329,104.299,55.374z
		 M104.098,45.233c-0.8-0.036-1.385-0.721-1.355-1.588c0.029-0.886,0.506-1.334,1.41-1.326c0.885,0.008,1.539,0.602,1.543,1.401
		C105.698,44.565,104.952,45.273,104.098,45.233z M104.266,35.132c-0.841,0.031-1.535-0.681-1.526-1.566
		c0.009-0.865,0.652-1.542,1.436-1.509c0.736,0.031,1.503,0.797,1.518,1.516C105.709,34.384,105.051,35.104,104.266,35.132z
		 M105.689,23.515c-0.028,0.836-0.679,1.462-1.52,1.464c-0.854,0.002-1.486-0.729-1.427-1.647c0.054-0.824,0.764-1.48,1.544-1.425
		C105.032,21.959,105.717,22.744,105.689,23.515z"/>
	<path d="M126.412,10.055c-0.088-2.95-1.286-5.317-3.878-6.86c-1.418-0.844-2.997-1.078-4.626-1.078
		c-28.1-0.004-56.199-0.009-84.299-0.016C25.587,2.101,17.564,2.09,9.542,2.098C5.929,2.101,3.037,4.184,1.99,7.538
		c-0.37,1.185-0.433,2.418-0.433,3.659c0.006,28.059,0.004,56.118,0.004,84.177c0,7.445,0.004,14.893-0.005,22.34
		c-0.001,1.076,0.091,1.878,0.376,2.911c0.679,2.463,2.419,4.875,4.703,4.875h114.57c1.704,0,3.121-1.412,4.158-3.191
		c0.854-1.463,1.065-2.953,1.065-4.623c-0.005-33.899-0.004-67.734-0.004-101.636C126.426,14.034,126.473,12.069,126.412,10.055z
		 M6.973,60.35c-0.79,0.006-1.431-0.588-1.459-1.351c-0.03-0.819,0.625-1.53,1.421-1.542c0.742-0.011,1.43,0.632,1.466,1.373
		C8.439,59.638,7.776,60.345,6.973,60.35z M8.397,69.03c0,0.823-0.676,1.479-1.494,1.447c-0.787-0.029-1.398-0.654-1.388-1.42
		c0.009-0.815,0.701-1.498,1.493-1.474C7.753,67.606,8.397,68.276,8.397,69.03z M6.946,50.221c-0.793-0.013-1.421-0.616-1.435-1.377
		c-0.014-0.808,0.66-1.508,1.455-1.511c0.782-0.003,1.48,0.738,1.436,1.524C8.358,49.618,7.702,50.234,6.946,50.221z M8.409,89.423
		c-0.041,0.752-0.688,1.319-1.489,1.305c-0.837-0.015-1.399-0.561-1.409-1.366c-0.01-0.837,0.65-1.513,1.454-1.487
		C7.687,87.896,8.447,88.711,8.409,89.423z M6.906,80.602c-0.789-0.028-1.399-0.646-1.394-1.408c0.007-0.817,0.71-1.521,1.481-1.481
		c0.707,0.035,1.453,0.876,1.413,1.592C8.364,80.05,7.695,80.63,6.906,80.602z M6.901,6.806c0.815-0.031,1.498,0.633,1.5,1.458
		c0.002,0.752-0.647,1.418-1.402,1.44c-0.765,0.022-1.439-0.586-1.49-1.343C5.452,7.533,6.075,6.838,6.901,6.806z M6.983,16.938
		c0.807,0.015,1.454,0.705,1.42,1.513c-0.032,0.781-0.663,1.4-1.413,1.387c-0.837-0.015-1.488-0.654-1.483-1.456
		C5.512,17.544,6.147,16.922,6.983,16.938z M6.993,27.061c0.754,0.019,1.395,0.67,1.408,1.434c0.014,0.798-0.688,1.483-1.506,1.471
		c-0.772-0.012-1.384-0.645-1.387-1.437C5.502,27.687,6.158,27.04,6.993,27.061z M6.884,37.205c0.739-0.045,1.456,0.579,1.515,1.321
		C8.462,39.318,7.8,40.071,7.014,40.1c-0.838,0.029-1.497-0.6-1.505-1.439C5.502,37.89,6.104,37.253,6.884,37.205z M6.996,121.215
		c-0.754,0.03-1.489-0.704-1.485-1.485c0.003-0.766,0.635-1.42,1.385-1.434c0.778-0.014,1.529,0.709,1.516,1.459
		C8.397,120.435,7.668,121.187,6.996,121.215z M6.996,111.08c-0.782,0.026-1.495-0.69-1.485-1.493
		c0.01-0.794,0.618-1.434,1.382-1.455c0.741-0.021,1.523,0.744,1.519,1.486C8.407,110.309,7.683,111.056,6.996,111.08z
		 M6.898,100.854c-0.837-0.028-1.388-0.582-1.383-1.389c0.004-0.796,0.717-1.489,1.498-1.457c0.738,0.029,1.393,0.702,1.4,1.438
		C8.421,100.249,7.738,100.883,6.898,100.854z M112.887,6.788c0.832,0.008,1.468,0.655,1.461,1.488
		c-0.006,0.843-0.664,1.493-1.478,1.46c-0.835-0.034-1.479-0.687-1.476-1.493C111.4,7.415,112.05,6.781,112.887,6.788z
		 M95.348,6.788c0.813,0.024,1.462,0.708,1.436,1.516c-0.025,0.783-0.725,1.434-1.543,1.435c-0.793,0.001-1.485-0.682-1.501-1.479
		C93.723,7.406,94.427,6.761,95.348,6.788z M77.357,6.801c0.801-0.03,1.553,0.642,1.571,1.404c0.018,0.731-0.733,1.512-1.475,1.533
		c-0.798,0.022-1.527-0.644-1.557-1.422C75.867,7.533,76.543,6.832,77.357,6.801z M59.758,6.793
		c0.812,0.008,1.467,0.668,1.465,1.475c-0.003,0.784-0.678,1.44-1.501,1.461c-0.794,0.02-1.492-0.634-1.531-1.436
		C58.149,7.447,58.841,6.785,59.758,6.793z M42.633,6.806c0.79,0.001,1.496,0.711,1.479,1.487c-0.016,0.786-0.737,1.459-1.535,1.433
		c-0.819-0.027-1.497-0.708-1.479-1.489C41.114,7.448,41.806,6.804,42.633,6.806z M24.467,6.812
		c0.726,0.039,1.389,0.729,1.392,1.446c0.002,0.775-0.713,1.476-1.497,1.467c-0.789-0.009-1.493-0.733-1.461-1.5
		C22.931,7.502,23.738,6.773,24.467,6.812z M24.257,121.215c-0.737-0.036-1.424-0.857-1.361-1.63
		c0.061-0.74,0.785-1.375,1.514-1.323c0.805,0.057,1.466,0.771,1.441,1.556C25.828,120.565,25.044,121.252,24.257,121.215z
		 M42.578,121.249c-0.749-0.038-1.494-0.838-1.462-1.566c0.03-0.705,0.761-1.427,1.45-1.436c0.849-0.01,1.453,0.611,1.45,1.492
		C44.013,120.604,43.36,121.29,42.578,121.249z M59.701,121.257c-0.734,0.013-1.475-0.736-1.506-1.521
		c-0.028-0.741,0.732-1.526,1.484-1.53c0.713-0.003,1.522,0.802,1.527,1.519C61.212,120.45,60.432,121.245,59.701,121.257z
		 M77.377,121.275c-0.713,0.003-1.516-0.831-1.48-1.538c0.035-0.736,0.82-1.523,1.527-1.532c0.785-0.01,1.415,0.688,1.402,1.552
		C78.814,120.606,78.178,121.273,77.377,121.275z M95.213,121.266c-0.775-0.021-1.385-0.724-1.366-1.573
		c0.019-0.847,0.673-1.517,1.448-1.484c0.803,0.033,1.505,0.74,1.488,1.495C96.764,120.521,95.994,121.286,95.213,121.266z
		 M112.827,121.284c-0.858-0.023-1.48-0.738-1.436-1.646c0.041-0.823,0.721-1.479,1.509-1.457c0.835,0.024,1.473,0.758,1.447,1.666
		C114.325,120.655,113.637,121.306,112.827,121.284z M115.73,23.707c-0.004,0.512-0.008,1.02-0.008,1.519l0.004,82.654
		c0.001,1.406-0.174,3.387-1.014,4.827l-0.188,0.131c-0.99,1.717-2.224,3.662-4.148,3.662H17.103l-0.307-0.055
		c-0.216-0.174-0.435-0.259-0.653-0.446c-0.084,0.018-0.169,0.08-0.257,0.082c-0.824,0.019-1.486-0.593-1.496-1.411
		c-0.001-0.105,0.01-0.195,0.031-0.296c-0.792-0.936-1.458-2.011-1.815-3.304c-0.342-1.247-1.228-3.589-1.228-3.688
		c0.006-4.607-0.878-9.212-0.878-13.818V75.069c0-18.011,0.884-36.021,0.879-54.033c0-1.044,0.49-2.166,0.842-3.297
		c0.436-1.391,1.387-2.553,2.406-3.423c-0.255-0.241-0.314-0.584-0.315-0.994c-0.002-0.832,0.717-1.509,1.511-1.472
		c0.588,0.027,1.205,0.543,1.384,1.109c0.8-0.267,1.676-0.412,2.588-0.412l2.864-0.027c2.855,0,5.727-0.021,8.583-0.021
		c0.119,0,0.238,0,0.356,0c0.241,0,0.672-0.709,1.157-0.715c0.466-0.006,0.961,0.332,1.259,0.757c1.781,0.001,3.563,0.01,5.343,0.01
		l10.793,0.008c0.263-0.476,0.755-0.792,1.31-0.771c0.514,0.021,0.959,0.333,1.205,0.774l14.717,0.007
		c0.248-0.47,0.715-0.818,1.252-0.797c0.462,0.018,0.943,0.726,1.234,0.726h0.295c4.816,0,9.633,0.04,14.449,0.042
		c0.271-0.471,0.771-0.784,1.301-0.758c0.459,0.022,0.932,0.364,1.212,0.786c5.266,0.002,10.531,0.009,15.797,0.01
		c0.235-0.458,0.683-0.812,1.233-0.841c0.567-0.03,1.086,0.762,1.351,0.762c0.732,0,1.465,0,2.197,0c1.71,0,3.123,0.39,4.321,1.102
		c2.326,1.384,3.603,3.667,3.689,6.564C115.748,21.319,115.739,22.544,115.73,23.707z M122.328,11.769
		c0.744-0.028,1.582,0.807,1.578,1.57c-0.005,0.708-0.789,1.501-1.504,1.521c-0.75,0.021-1.573-0.802-1.578-1.579
		C120.818,12.591,121.61,11.796,122.328,11.769z M122.527,92.942c0.779,0.066,1.411,0.736,1.371,1.453
		c-0.045,0.787-0.895,1.553-1.661,1.495c-0.81-0.06-1.465-0.788-1.411-1.566C120.885,93.465,121.623,92.866,122.527,92.942z
		 M120.825,84.269c0.017-0.867,0.734-1.5,1.646-1.451c0.806,0.041,1.421,0.648,1.426,1.406c0.006,0.884-0.693,1.568-1.575,1.541
		C121.485,85.739,120.809,85.063,120.825,84.269z M122.428,75.642c-0.851,0.049-1.62-0.676-1.601-1.505
		c0.019-0.813,0.667-1.432,1.515-1.444c0.865-0.014,1.562,0.605,1.559,1.385C123.898,74.802,123.146,75.602,122.428,75.642z
		 M120.824,64.081c-0.021-0.867,0.656-1.523,1.562-1.516c0.877,0.008,1.486,0.603,1.482,1.448c-0.003,0.731-0.767,1.495-1.504,1.505
		C121.56,65.529,120.843,64.86,120.824,64.081z M122.298,55.377c-0.709-0.004-1.442-0.702-1.474-1.401
		c-0.035-0.803,0.7-1.588,1.531-1.636c0.733-0.042,1.525,0.709,1.546,1.464C123.921,54.559,123.083,55.381,122.298,55.377z
		 M122.251,45.252c-0.733-0.024-1.438-0.827-1.405-1.599c0.032-0.736,0.836-1.495,1.562-1.474c0.729,0.021,1.509,0.828,1.496,1.545
		C123.891,44.49,123.035,45.278,122.251,45.252z M123.904,23.459c-0.002,0.761-0.869,1.574-1.642,1.541
		c-0.655-0.029-1.425-0.812-1.438-1.464c-0.015-0.782,0.81-1.628,1.568-1.614C123.119,21.938,123.907,22.74,123.904,23.459z
		 M122.379,32.051c0.713,0.004,1.509,0.787,1.524,1.498c0.016,0.745-0.815,1.582-1.578,1.588c-0.671,0.005-1.488-0.81-1.513-1.51
		C120.785,32.874,121.607,32.046,122.379,32.051z M122.416,103.077c0.812,0.02,1.41,0.6,1.416,1.372
		c0.007,0.905-0.629,1.569-1.508,1.576c-0.811,0.007-1.482-0.643-1.501-1.449C120.805,103.751,121.543,103.056,122.416,103.077z
		 M122.359,116.153c-0.895-0.01-1.572-0.69-1.533-1.541c0.036-0.781,0.745-1.422,1.563-1.413s1.518,0.666,1.534,1.442
		C123.941,115.497,123.253,116.161,122.359,116.153z"/>
</g>
</svg>
