<?xml version="1.0" encoding="utf-8"?>
<!-- Generator: Adobe Illustrator 16.0.4, SVG Export Plug-In . SVG Version: 6.00 Build 0)  -->
<!DOCTYPE svg PUBLIC "-//W3C//DTD SVG 1.1//EN" "http://www.w3.org/Graphics/SVG/1.1/DTD/svg11.dtd">
<svg version="1.1" id="Layer_2937" xmlns="http://www.w3.org/2000/svg" xmlns:xlink="http://www.w3.org/1999/xlink" x="0px" y="0px"
	 width="128px" height="128px" viewBox="0 0 128 128" enable-background="new 0 0 128 128" xml:space="preserve">
<g>
	<path fill-rule="evenodd" clip-rule="evenodd" d="M63.935,0.509c7.098,0,14.194-0.006,21.291,0.002
		c3.488,0.004,5.076,0.997,6.063,3.747c1.134,3.16,0.359,6.768-1.796,8.63c-0.99,0.855-2.133,1.054-3.374,1.081
		c-0.651,0.014-1.524-0.19-1.687,0.763c-0.153,0.906-0.419,1.911,0.573,2.596c0.142,0.099,0.279,0.204,0.418,0.307
		c9.631,7.185,15.671,16.917,19.76,28c3.398,9.213,5.265,18.761,6.333,28.517c1.239,11.316,1.253,22.626,0.316,33.938
		c-0.24,2.894-0.256,5.86-1.456,8.647c-1.696,3.935-4.005,6.898-8.623,7.679c-4.439,0.749-8.884,1.389-13.356,1.807
		c-8.441,0.789-16.899,1.361-25.386,1.263c-11.687-0.135-23.326-0.91-34.881-2.736c-0.171-0.027-0.343-0.05-0.515-0.069
		c-7.144-0.803-9.87-5.401-10.907-11.315c-0.58-3.311-0.801-6.702-0.944-10.066c-0.462-10.902-0.412-21.8,1.041-32.641
		c1.665-12.414,4.652-24.443,10.724-35.528c3.66-6.684,8.426-12.444,14.499-17.088c0.343-0.263,0.665-0.556,1.017-0.807
		c0.976-0.698,0.738-1.712,0.577-2.612c-0.159-0.888-1.048-0.751-1.704-0.824c-4.238-0.469-6.498-3.504-5.684-7.717
		c0.33-1.707,0.735-3.401,2.229-4.548c1.163-0.892,2.5-1.039,3.924-1.033c7.183,0.031,14.366,0.014,21.549,0.014
		C63.935,0.513,63.935,0.511,63.935,0.509z M63.833,4.162c-7.096,0-14.193-0.01-21.29,0.006c-2.168,0.005-2.795,0.635-2.832,2.739
		c-0.009,0.517,0.003,1.05,0.122,1.548c0.286,1.206,0.908,2.001,2.335,1.909c1.206-0.078,2.423,0.046,3.632-0.009
		c1.103-0.049,1.583,0.383,1.561,1.495c-0.032,1.643-0.071,3.292,0.03,4.929c0.084,1.379-0.453,2.189-1.605,2.95
		c-3.407,2.251-6.391,4.996-9.005,8.153c-5.66,6.839-9.365,14.692-12.004,23.088c-3.84,12.219-5.227,24.824-5.688,37.558
		c-0.286,7.877,0.255,15.729,0.934,23.571c0.159,1.834,0.808,3.525,1.669,5.144c1.122,2.109,2.754,3.408,5.202,3.78
		c2.988,0.455,5.977,0.873,8.981,1.217c8.427,0.962,16.877,1.642,25.354,1.782c12.562,0.212,25.038-1.051,37.496-2.533
		c3.893-0.462,6.966-1.914,8.312-5.877c0.473-1.393,0.908-2.801,1.016-4.28c0.216-2.934,0.517-5.865,0.597-8.803
		c0.309-11.165,0.195-22.308-1.465-33.398c-1.323-8.841-3.334-17.477-6.797-25.736c-3.809-9.089-9.073-17.132-17.229-22.912
		c-1.939-1.375-2.858-2.828-2.49-5.124c0.026-0.168-0.001-0.346-0.002-0.519c-0.012-4.424-0.012-4.424,4.295-4.476
		c0.433-0.005,0.865-0.008,1.297-0.027c0.771-0.034,1.255-0.44,1.592-1.128c1.322-2.693-0.048-5.038-2.986-5.042
		C77.854,4.156,70.844,4.163,63.833,4.162z"/>
	<path fill-rule="evenodd" clip-rule="evenodd" d="M64.091,58.599c11.683,0,23.365-0.002,35.049,0.002
		c2.551,0.001,2.577,0.006,3.149,2.56c1.65,7.356,2.507,14.811,2.896,22.334c0.325,6.316,0.308,12.628-0.009,18.939
		c-0.15,3.021-0.333,6.045-0.618,9.056c-0.095,1.011-0.521,1.996-0.84,2.979c-0.615,1.897-1.857,2.939-3.901,3.281
		c-4.87,0.811-9.774,1.285-14.681,1.725c-8.79,0.789-17.596,1.435-26.429,1.061c-9.938-0.421-19.846-1.256-29.699-2.64
		c-3.436-0.484-5.164-2.349-5.515-6.075c-0.788-8.361-1.306-16.74-0.876-25.142c0.389-7.602,0.915-15.194,2.447-22.676
		c0.225-1.099,0.415-2.208,0.679-3.298c0.504-2.08,0.522-2.101,2.775-2.103C40.376,58.594,52.234,58.6,64.091,58.599z"/>
</g>
</svg>
