<?xml version="1.0" encoding="utf-8"?>
<!-- Generator: Adobe Illustrator 16.0.4, SVG Export Plug-In . SVG Version: 6.00 Build 0)  -->
<!DOCTYPE svg PUBLIC "-//W3C//DTD SVG 1.1//EN" "http://www.w3.org/Graphics/SVG/1.1/DTD/svg11.dtd">
<svg version="1.1" id="Layer_2939" xmlns="http://www.w3.org/2000/svg" xmlns:xlink="http://www.w3.org/1999/xlink" x="0px" y="0px"
	 width="128px" height="128px" viewBox="0 0 128 128" enable-background="new 0 0 128 128" xml:space="preserve">
<path fill-rule="evenodd" clip-rule="evenodd" d="M112.114,52.838c-1.812-0.349-3.093-1.368-4.306-2.684
	c-1.344-1.456-2.826-2.481-4.865-2.71c-0.982-0.11-1.916-0.126-2.894-0.062c-0.584,0.038-1.131,0.062-1.644-0.376
	c-1.331-1.137-2.894-1.371-4.581-1.124c-0.64,0.093-1.274,0.18-1.927-0.049c-1.454-0.511-2.912-0.678-4.327,0.155
	c-0.101,0.06-0.213,0.197-0.329,0.04c-0.096-0.13,0.023-0.24,0.082-0.345c0.288-0.519,0.47-1.075,0.535-1.661
	c0.063-0.562-0.151-1.126-0.091-1.689c0-0.001-0.269-0.003-0.269-0.005s0-0.004,0-0.007c0-0.984,0.484-1.969,0.578-2.954
	c0.047-0.469,0.632-1.1,0.182-1.368c-0.536-0.32-0.773,0.433-1.178,0.717c-0.332,0.234-0.949,0.52-0.901-0.214
	c0.017-0.241-0.681-0.509-0.681-0.435c0-0.001,0-0.003,0-0.004c0-0.109,0.27-0.2,0.21-0.298c-0.04-0.068,0.089-0.119,0.022-0.154
	c0.07-0.188,0.171-0.366,0.004-0.52c-0.324-0.299-0.858,0.071-1.29,0.272c-0.252,0.117-0.297,0.111-0.313-0.198
	c-0.057-1.061-0.336-1.233-1.314-0.829c-1.256,0.519-2.278,1.39-3.32,2.222c-1.862,1.489-3.259,3.358-4.289,5.505
	c-0.21,0.439-0.19,0.439-0.609,0.24c-0.307-0.145-0.387,0.15-0.51,0.308c-0.816,1.069-1.489,2.226-1.867,3.521
	c-0.595,2.032-0.405,3.88,1.41,5.274c0.355,0.272,0.428,0.524,0.132,0.894c-0.84,1.046-1.687,2.084-2.831,2.818
	c-0.271,0.173-0.57,0.589-0.925,0.19c-0.366-0.413-1.123-0.504-0.91-1.408c0.425-1.812,0.378-3.684,0.414-5.533
	c0.036-1.854,0.038-3.701-0.337-5.553c-0.454-2.234,0.454-4.223,1.576-6.1c0.631-1.056,0.668-1.081,1.747-0.623
	c0.802,0.339,1.572,0.351,2.376,0.091c1.49-0.478,2.724-1.378,3.888-2.382c0.347-0.299,0.685-0.716,0.675-1.16
	c-0.007-0.264-0.205-0.497-0.131-0.715c0.145,0.049,0.193,0.092,0.193,0.131c0,0.003,0,0.004,0,0.007
	c0,0.315,0.785,0.245,1.084,0.338c0.029,0.01,0.189,0.011,0.219,0.002c1.604-0.494,3.229-1.06,4.213-2.548
	c0.316-0.477,0.738-0.846,1.216-1.143c1.224-0.759,1.844-1.934,2.082-3.292c0.103-0.581,0.344-1.012,0.72-1.449
	c0.981-1.138,1.674-2.407,1.487-3.996c-0.103-0.854,0.015-1.672,0.372-2.478c0.486-1.101,0.634-2.299,0.266-3.433
	c-0.269-0.835-0.276-1.582-0.018-2.378c0.342-1.057,0.357-2.193,0.058-3.19c-0.381-1.268-0.216-2.215,0.743-3.078
	c0.238-0.213,0.501-0.472,0.317-0.847c-0.184-0.376-0.567-0.293-0.869-0.271c-1.43,0.103-2.854,0.252-4.283,0.362
	c-0.688,0.053-1.373,0.141-1.989,0.452c-1.543,0.779-3.185,0.888-4.865,0.769c-1.78-0.126-3.214,0.662-4.455,1.81
	c-0.696,0.643-1.362,1.304-2.133,1.863c-0.878,0.637-1.713,1.362-1.993,2.462c-0.196,0.777-0.603,1.324-1.224,1.804
	c-1.703,1.316-2.085,3.275-2.225,5.225c-0.07,0.986,0.647,1.958,0.391,3.051c-0.044,0.187,0.052,0.351,0.212,0.389
	c0.003,0.019-0.21,0.035-0.214,0.055C68.596,24.66,68.5,24.79,68.5,24.907c0,0.021,0,0.043,0,0.065c0-0.009,0.203-0.021,0.193-0.029
	c-0.582-0.434-0.614-0.986-0.893-1.57c-0.685-1.444-0.438-2.746,0.335-4.048c0.032-0.056,0.089-0.116,0.114-0.176
	c1.048-2.557,0.372-6.492-2.354-8.151c-0.37-0.225-0.585-0.572-0.723-1.004c-0.493-1.547-1.615-2.601-2.93-3.421
	c-0.926-0.576-1.862-1.07-2.3-2.15c-0.068-0.167-0.254-0.291-0.398-0.425c-1.166-1.093-2.579-1.125-4.043-0.928
	c-0.315,0.042-0.615-0.2-0.929-0.451C53.68,1.905,52.624,1.5,51.646,0.5c-1.764,0-3.528,0-5.293,0c-1.699,1-3.398,1-5.098,0
	c-0.261,0-0.522,0-0.784,0c-0.155,1-0.111,0.916,0.225,0.981c0.551,0.107,0.671,0.749,0.86,1.16c0.714,1.549,0.956,3.25,0.714,4.951
	c-0.161,1.14-0.132,2.334,0.555,3.35c0.187,0.276,0.12,0.548,0.005,0.848c-0.719,1.854-0.832,3.684,0.458,5.37
	c0.203,0.265,0.256,0.538,0.093,0.818c-0.564,0.965-0.467,2.028-0.38,3.059c0.104,1.217,0.368,2.521,1.401,3.217
	c0.946,0.639,1.195,1.398,1.355,2.405c0.2,1.254,0.746,2.438,1.975,2.975c1.066,0.464,2.205,0.73,2.74,1.922
	c0.036,0.08,0.149,0.123,0.225,0.184c0.926,0.751,1.91,1.318,3.16,1.393c0.972,0.058,0.991,0.133,1.086,1.136
	c0.11,1.147,0.664,2.009,1.529,2.737c0.654,0.552,1.475,0.846,2.117,1.377c1.266,1.045,2.776,1.32,4.236,0.657
	c0.621-0.282,1.256-0.512,1.715-1.067c0.234-0.283,0.498-0.317,0.592,0.163c0.188,0.957,0.442,1.904,0.565,2.868
	c0.057,0.459,0.338,1.079-0.008,1.376c-0.229,0.198-0.655-0.391-1.05-0.538c-1.831-0.682-3.72-0.97-5.662-0.783
	c-2.372,0.229-4.633,0.791-6.445,2.475c-0.312,0.291-0.563,0.189-0.883,0.076c-0.897-0.319-1.843-0.377-2.78-0.398
	c-0.686-0.016-1.324,0.203-1.934,0.582c-1.921,1.197-2.199,3.205-2.088,5.537c0.056,1.229,0.431,2.441,0.203,3.689
	c-0.064,0.346-0.21,0.751,0.216,0.957c0.38,0.182,0.774,0.091,1.092-0.193c0.446-0.401,0.947-0.752,1.532-0.82
	c1.431-0.166,2.655-0.82,3.904-1.459c0.935-0.479,1.733-1.124,2.167-2.048c0.602-1.285,0.869-2.659,0.075-3.993
	c-0.19-0.318-0.163-0.516,0.067-0.768c0.584-0.642,1.306-1.07,2.097-1.402c2.495-1.053,5.025-0.873,7.565-0.207
	c0.218,0.057,0.6,0.153,0.607,0.251c0.053,0.834,0.883,1.16,1.146,1.858c0.489,1.3,0.794,2.668,1.47,3.899
	c0.159,0.293,0.086,0.641,0.112,0.965c0.143,1.71-0.416,3.363-0.401,5.062c0.002,0.359-0.199,0.37-0.511,0.392
	c-1.097,0.076-2.212,0.11-3.279,0.348c-2.88,0.642-4.503,3.403-4.831,6.093c-0.047,0.389,0.098,0.769,0.151,1.151
	c0.137,0.977,0.886,1.497,1.475,2.119c1.133,1.201,2.021,2.653,3.485,3.522c0.335,0.2,0.445,0.46,0.358,0.815
	c-0.406,1.674-0.63,3.387-1.139,5.038c-0.135,0.438-0.344,0.682-0.784,0.738c-0.755,0.099-1.43,0.419-2.103,0.753
	c-0.777,0.383-0.798,0.383-0.994-0.435c-0.417-1.748-1.283-3.307-2.363-4.676c-2.381-3.018-5.538-4.69-9.427-4.837
	c-0.497-0.019-0.966-0.141-1.448-0.218c-0.502-0.08-0.7-0.345-0.658-0.88c0.298-3.751-1.409-6.369-4.646-8.095
	c-0.823-0.439-1.598-0.895-1.729-1.949c-0.022-0.17-0.108-0.423-0.365-0.366c-0.228,0.05-0.239,0.284-0.245,0.48
	c-0.003,0.13,0.035,0.26,0.033,0.391c-0.004,0.159,0.018,0.418-0.057,0.455c-0.147,0.071-0.28-0.113-0.398-0.221
	c-2.712-2.439-5.91-4.017-9.302-5.255c-2.066-0.754-3.92-1.768-4.921-3.893c-0.193-0.41-0.365-0.74-0.108-1.163
	c0.099-0.162,0.223-0.365,0-0.516c-0.284-0.19-0.423,0.063-0.523,0.25c-0.167,0.313-0.321,0.643-0.422,0.983
	c-0.296,0.997-0.621,1.994-0.68,3.039c-0.022,0.401-0.126,0.432-0.457,0.297c-0.389-0.159-0.791-0.299-1.199-0.397
	c-0.378-0.09-0.616,0.009-0.586,0.5c0.037,0.632,0.188,1.221,0.479,1.774c0.244,0.467,0.125,0.658-0.398,0.65
	c-0.618-0.01-1.238-0.044-1.825,0.234c-0.503,0.239-1.03,0.366-1.603,0.364c-0.591-0.001-0.682,0.186-0.354,0.736
	c0.296,0.502,0.601,1.042,1.032,1.413c0.513,0.439,0.58,0.822,0.396,1.447c-0.123,0.416-0.356,0.675-0.605,0.963
	c-0.511,0.59-0.504,0.65,0.139,1.125c0.105,0.077,0.215,0.148,0.32,0.225c0.207,0.151,0.583,0.22,0.581,0.474
	c-0.004,0.333-0.392,0.23-0.621,0.298c-0.235,0.07-0.5,0.276-0.676,0.416c-0.642,0.508-1.388,1.303-1.388,1.955
	c0,0.261,0,0.522,0,0.785c0,0.001,0.493,0.062,0.619-0.004c2.084-1.07,4.154-0.473,6.077,0.401c1.451,0.659,2.855,1.504,4.13,2.482
	c0.75,0.575,1.545,1.113,2.354,1.607c0.651,0.398,1.322,0.72,2.119,0.643c0.206-0.019,0.538-0.099,0.587,0.187
	c0.103,0.599,0.487,0.528,0.88,0.431c0.464-0.115,0.815,0.062,1.167,0.333c0.815,0.625,1.778,0.951,2.752,1.199
	c1.18,0.298,2.402,0.26,3.606,0.198c1.686-0.084,3.157-0.77,4.351-1.943c0.502-0.494,0.86-0.824,1.634-0.497
	c0.578,0.245,1.276,0.258,1.924,0.278c1.399,0.043,2.698,0.413,3.928,1.057c1.219,0.637,2.386,1.383,3.399,2.295
	c1.547,1.394,2.694,3.079,3.198,5.154c0.146,0.597-0.095,0.778-0.605,0.827c-0.617,0.057-1.256-0.092-1.85,0.107
	c-0.485,0.163-0.605-0.015-0.555-0.437c0.096-0.794-0.11-1.515-0.63-2.093c-1.014-1.13-2.187-2.047-3.696-2.437
	c-0.693-0.18-1.388-0.354-2.081-0.535c-2.293-0.605-4.377-0.174-6.276,1.242c-0.345,0.259-0.636,0.541-0.885,0.894
	c-0.792,1.126-1.946,1.796-3.101,2.488c-1.836,1.1-3.242,2.53-3.274,4.868c-0.005,0.357-0.025,0.734-0.144,1.066
	c-0.313,0.888-0.098,1.703,0.374,2.424c0.776,1.188,0.711,2.433,0.543,3.759c-0.254,2.014-0.399,4.046,1.044,5.774
	c0.252,0.3,0.448,0.646,0.417,1.067c-0.057,0.827,0.253,1.61,0.289,2.422c0.044,0.983,0.543,1.714,1.18,2.393
	c1.093,1.168,2.323,2.196,3.477,3.294c1.106,1.051,1.473,2.068,1,3.469c-0.095,0.284-0.266,0.669,0.094,0.891
	c0.393,0.24,0.675-0.037,0.912-0.33c0.651-0.809,1.414-1.527,1.803-2.536c0.234-0.607,0.608-1.181,1.141-1.569
	c1.208-0.885,2.582-1.523,3.735-2.493c0.069-0.058,0.179-0.077,0.273-0.096c0.962-0.205,1.854-0.604,2.756-0.979
	c0.228-0.096,0.493-0.371,0.707-0.178c0.247,0.22-0.057,0.482-0.164,0.686c-1.827,3.455-3.526,6.973-5.765,10.206
	c-2.838,4.102-5.433,8.373-8.71,12.159c-0.256,0.296-0.469,0.622-0.824,0.825c-0.329,0.187-0.441,0.431-0.203,0.806
	c0.417,0.655,1.022,1.656,0.516,2.548c-0.033,0.058,0.114-0.378,0.177,0.705c0.132,0,0.262,0,0.393,0
	c0.794-1.083,1.381-1.037,1.878-1.669c0.625-0.795,1.298-1.74,1.923-2.536c2.54-3.233,4.887-6.705,7.176-10.114
	c2.765-4.121,4.926-8.633,6.827-13.214c0.571-1.377,1.229-2.754,1.545-4.228c0.108-0.501,0.466-0.736,0.921-0.92
	c1.126-0.457,2.032-1.193,2.47-2.367c0.527-1.411,1.427-2.541,2.499-3.571c0.632-0.608,1.2-1.28,1.364-2.208
	c0.304-1.713,0.464-3.426,0.133-5.149c-0.151-0.791-0.127-1.553,0.198-2.298c0.197-0.446,0.381-0.898,0.571-1.347
	c0.53-1.252,0.376-1.728-0.865-2.319c-0.446-0.213-0.51-0.398-0.4-0.889c0.268-1.202,0.604-2.398,0.672-3.643
	c0.031-0.591,0.323-0.563,0.685-0.237c0.502,0.45,1.115,0.695,1.741,0.851c0.905,0.224,1.726,0.603,2.469,1.137
	c0.912,0.657,1.982,0.976,2.971,1.467c0.197,0.097,0.44,0.14,0.663,0.135c0.561-0.013,0.7-0.238,0.388-0.688
	c-0.521-0.743-0.576-1.485-0.167-2.288c0.251-0.493,0.473-1.001,0.698-1.506c0.243-0.548,0.404-1.118,0.131-1.693
	c-0.282-0.594-0.22-1.126,0.142-1.657c0.108-0.158,0.193-0.352,0.227-0.539c0.099-0.559,0.183-1.117,0.233-1.671
	c0.11,0.038,0.22,0.076,0.331,0.11c0.085,0.025,0.166,0.047,0.249,0.07c-0.005,0.067,0.014,0.134,0.059,0.196
	c0.096,0.131,0.185,0.276,0.309,0.377c1.762,1.428,3.678,2.48,6.033,2.422c0.175-0.005,0.35-0.02,0.524-0.03
	c0.27,0,0.551,0.016,0.817-0.01c0.067-0.007,0.132-0.025,0.197-0.04c0.303-0.017,0.604-0.036,0.907-0.032
	c0.409,0.004,0.804-0.029,1.187-0.091c0.056,0.002,0.116,0.005,0.17,0.006c0.102,0.001,0.146-0.023,0.241-0.046
	c0.062-0.018,0.122,0.003,0.183-0.011c0.054-0.013,0.059-0.056,0.113-0.066c0.061-0.015,0.121,0.005,0.185-0.011
	c0.055-0.014,0.121-0.044,0.177-0.061c0.078-0.023,0.159-0.025,0.232-0.045c0.098-0.027,0.204-0.086,0.297-0.138
	c0.156-0.086,0.342-0.214,0.508-0.271c0.207-0.069,0.397-0.126,0.585-0.268c0.261-0.197,0.475-0.412,0.707-0.647
	c0.083-0.085,0.182-0.17,0.276-0.252c0.434-0.364,0.883-0.537,1.452-0.476c0.616,0.065,1.226,0.086,1.835-0.135
	c1.794-0.652,3.271-1.725,4.419-3.25c0.618-0.819,1.311-1.599,2.334-1.855c1.671-0.417,2.939-1.349,3.938-2.715
	c0.352-0.482,0.788-0.908,1.396-1.012c0.86-0.147,1.588-0.549,2.31-1.005c1.161-0.737,2.156-1.029,3.559-0.847
	c0.581,0.076,1.586,0.625,1.586,0.001c0-0.196,0-0.393,0-0.588C113.5,53.086,112.717,52.955,112.114,52.838z"/>
</svg>
