<?xml version="1.0" encoding="utf-8"?>
<!-- Generator: Adobe Illustrator 16.0.4, SVG Export Plug-In . SVG Version: 6.00 Build 0)  -->
<!DOCTYPE svg PUBLIC "-//W3C//DTD SVG 1.1//EN" "http://www.w3.org/Graphics/SVG/1.1/DTD/svg11.dtd">
<svg version="1.1" id="Layer_2940" xmlns="http://www.w3.org/2000/svg" xmlns:xlink="http://www.w3.org/1999/xlink" x="0px" y="0px"
	 width="128px" height="128px" viewBox="0 0 128 128" enable-background="new 0 0 128 128" xml:space="preserve">
<g>
	<g>
		<path d="M72.814,39.091c-14.16-0.012-37.273-0.236-50.954-5.046c-1.583-0.556-3.034-1.325-4.367-2.39
			c-0.946-0.755-1.874-1.637-1.921-2.909c-0.146-3.811-0.169-7.629-0.149-11.444c0.007-1.458,0.867-1.354,1.842-0.902
			c17.016,7.915,43.919,7.564,61.902,6.827c8.75-0.358,17.379-1.476,25.809-4.142c1.705-0.541,3.395-1.1,4.949-2.028
			c1.771-1.053,2.785-1.049,2.627,1.646c-0.135,2.307,0.031,4.634,0.029,6.951c-0.002,4.817-0.891,6.269-5.01,7.922
			c-5.723,2.296-11.688,3.47-17.721,4.283C84.199,38.623,78.518,38.869,72.814,39.091z"/>
		<path d="M72.332,128.212c-13.383-0.012-35.233-0.235-48.164-5.046c-1.497-0.557-2.868-1.325-4.128-2.391
			c-0.894-0.756-1.771-1.637-1.816-2.909c-0.138-3.812-0.16-7.63-0.141-11.444c0.007-1.456,0.819-1.354,1.741-0.9
			c16.084,7.916,41.515,7.563,58.513,6.826c8.272-0.356,16.429-1.476,24.396-4.142c1.613-0.54,3.209-1.101,4.681-2.028
			c1.674-1.054,2.633-1.049,2.483,1.646c-0.129,2.307,0.027,4.634,0.026,6.951c-0.002,4.816-0.84,6.269-4.735,7.923
			c-5.408,2.296-11.047,3.469-16.75,4.282C83.093,127.745,77.723,127.99,72.332,128.212z"/>
		<path d="M62.628,26.061c-11.327-0.084-24.508-0.87-34.943-3.282c-3.347-0.775-6.659-1.734-9.583-3.739
			c-3.213-2.208-3.326-3.917-0.595-6.663c0.736-0.74,1.679-1.396,2.109-2.316c2.065-4.417,5.84-5.59,9.877-6.608
			c18.77-4.733,46.583-4.636,65.476-1.108c2.479,0.462,4.936,1.226,7.316,2.115c2.396,0.894,4.691,2.076,5.798,4.883
			c0.453,1.143,1.421,1.89,2.26,2.725c3.011,3,2.872,5.062-0.692,7.25c-3.897,2.395-8.272,3.357-12.625,4.223
			C87.543,25.426,71.572,25.988,62.628,26.061z M55.307,2.208C48.911,2.17,38.226,3.081,27.782,6.257
			c-1.227,0.374-2.423,0.783-3.511,1.498c-1.581,1.045-1.44,2.027,0.116,2.956c1.786,1.069,3.714,1.723,5.686,2.234
			c13.171,3.417,35.534,3.852,48.96,2.97c7.056-0.463,14.135-1.214,20.949-3.508c1.847-0.624,4.787-0.865,4.734-3.155
			c-0.052-2.175-2.925-2.566-4.849-3.148C89.668,3.019,70.236,2.253,55.307,2.208z"/>
		<path d="M63.089,3.568C71.367,3.595,87.537,4.33,96.913,6.81c1.034,0.274,2.073,0.579,3.069,1.014
			c0.852,0.373,2.408,0.417,2.354,1.362c-0.078,1.352-1.578,1.337-2.542,1.625c-14.05,4.234-37.695,4.745-52.023,3.599
			c-6.342-0.506-12.666-1.339-18.84-3.411c-1.14-0.382-3.059-0.463-3.083-1.65c-0.032-1.486,1.816-1.417,2.915-1.771
			C38.72,4.372,51.601,3.63,63.089,3.568z"/>
	</g>
	<g>
		<path d="M88.438,34.982c-19.547,1.647-69.808-3.531-69.808-3.531s-0.12,65.312,1.335,81.48c0.624,6.928,1.121,7.67,7.767,9.561
			c8.902,2.533,25.927,2.431,35.237,2.998c4.168-0.236,15.409-0.434,19.764-0.741c5.318-0.372,15.582-1.319,20.687-2.92
			c3.304-1.036,5.283-2.688,5.549-6.55c0.677-9.793,1.606-83.811,1.606-83.811S95.264,34.407,88.438,34.982z M91.5,83.828
			c-13,4.717-37,5.227-55-0.018V54.926c15,4.622,40,4.113,55,0.189V83.828z"/>
	</g>
</g>
</svg>
