<?xml version="1.0" encoding="utf-8"?>
<!-- Generator: Adobe Illustrator 16.0.4, SVG Export Plug-In . SVG Version: 6.00 Build 0)  -->
<!DOCTYPE svg PUBLIC "-//W3C//DTD SVG 1.1//EN" "http://www.w3.org/Graphics/SVG/1.1/DTD/svg11.dtd">
<svg version="1.1" id="Layer_2941" xmlns="http://www.w3.org/2000/svg" xmlns:xlink="http://www.w3.org/1999/xlink" x="0px" y="0px"
	 width="128px" height="128px" viewBox="0 0 128 128" enable-background="new 0 0 128 128" xml:space="preserve">
<g>
	<path d="M45.374,110.815c0,0.465,0.993,1.377,1.371,1.295c0.593-0.126,1.33-0.869,1.445-1.464c0.092-0.455-0.682-1.079-1.387-2.077
		C46.095,109.612,45.377,110.213,45.374,110.815z"/>
	<path d="M35.174,57.638c-0.136-0.617-0.912-1.093-1.419-1.627c-0.497,0.486-1.302,0.919-1.397,1.475
		c-0.084,0.484,0.633,1.108,1.304,2.144C34.437,58.657,35.266,58.045,35.174,57.638z"/>
	<path d="M31.972,87.575c-0.073-0.565-0.828-1.039-1.285-1.553c-0.511,0.535-1.301,1.007-1.439,1.623
		c-0.095,0.439,0.688,1.072,1.441,2.119C31.361,88.688,32.04,88.081,31.972,87.575z"/>
	<path d="M47.081,48.535c0.444,0.075,1.04-0.736,2.001-1.492c-1.013-0.679-1.668-1.432-2.103-1.325
		c-0.61,0.149-1.063,0.945-1.586,1.463C45.953,47.663,46.46,48.43,47.081,48.535z"/>
	<path d="M94.421,62.598c0.011-0.462-0.919-1.291-1.458-1.312c-0.486-0.021-1.326,0.766-1.431,1.307
		c-0.093,0.486,0.609,1.122,1.265,2.194C93.621,63.747,94.41,63.182,94.421,62.598z"/>
	<path d="M99.948,45.737c-0.007-0.487-0.946-0.958-1.471-1.438c-0.486,0.56-1.265,1.071-1.359,1.691
		c-0.078,0.484,0.698,1.098,1.393,2.077C99.218,46.997,99.961,46.36,99.948,45.737z"/>
	<path d="M72.157,88.422c0.434,0.098,1.068-0.694,2.034-1.396c-0.949-0.732-1.566-1.548-1.998-1.46
		c-0.621,0.125-1.107,0.91-1.649,1.412C71.072,87.491,71.54,88.28,72.157,88.422z"/>
	<path d="M59.708,75.716c0.135,0.617,0.933,1.092,1.446,1.628c0.488-0.485,1.28-0.919,1.376-1.47
		c0.084-0.492-0.607-1.112-1.248-2.141C60.484,74.69,59.619,75.308,59.708,75.716z"/>
	<path d="M64.351,49.01c0.612-0.076,1.413-0.815,1.589-1.425c0.12-0.422-0.678-1.109-1.368-2.118
		c-0.781,0.978-1.583,1.548-1.594,2.131C62.969,48.094,63.922,49.062,64.351,49.01z"/>
	<path d="M91.996,85.999c-0.009,0.496,0.944,1.465,1.373,1.412c0.612-0.076,1.413-0.814,1.59-1.426
		c0.12-0.422-0.678-1.109-1.368-2.117C92.81,84.846,92.007,85.416,91.996,85.999z"/>
	<path d="M62.458,98.829c-0.469,0.563-1.215,1.084-1.315,1.709c-0.071,0.438,0.737,1.018,1.488,1.947c0.671-1,1.438-1.66,1.324-2.09
		C63.795,99.784,62.989,99.343,62.458,98.829z"/>
	<path d="M107.289,112.569c-0.019-17.354-0.056-34.703-0.06-52.055c-0.009-10.412,0.044-20.824,0.06-31.235
		c0.007-3.699-1.396-6.794-4.746-8.407c-1.869-0.901-4.315-1.125-6.438-1.264c-3.115-0.203-6.604-0.051-9.604-0.051
		c0-2.578,0-4.854,0-7.232c1-0.036,1.433-0.123,1.993-0.084c1.633,0.114,2.81-0.666,2.911-2.217
		c0.178-2.676,0.259-5.378,0.099-8.053c-0.098-1.614-1.037-2.534-2.945-2.527c-16.582,0.06-33.153,0.059-49.734,0
		c-1.979-0.007-2.896,0.851-3.018,2.65c-0.134,2.046-0.173,4.105-0.139,6.158c0.058,3.293,0.545,3.812,3.857,3.985
		c0.312,0.016-0.023,0.104,0.977,0.176c0,2.317,0,4.601,0,7.137c-4,0-6.974-0.026-10.372,0.007
		c-5.354,0.048-9.366,4.069-9.369,9.405c-0.015,29.759,0.073,59.519-0.036,89.281c-0.023,6.379,4.62,10.339,10.38,10.31
		c22.172-0.114,44.347-0.038,66.522-0.052c5.592-0.004,9.551-3.946,9.654-9.572C107.317,116.812,107.295,114.69,107.289,112.569z
		 M80.225,45.941c5.32-1.426,10.673-2.764,16.073-3.857c4.357-0.883,8.212,2.553,8.234,6.978c0.017,3.376-2.253,6.271-5.665,7.103
		c-4.984,1.215-9.977,2.397-14.974,3.54c-3.616,0.825-7.314-1.52-8.26-5.162C74.659,50.806,76.61,46.909,80.225,45.941z
		 M65.613,85.919c2.363-2.66,5.914-3.055,9.435-1.05c0.105,0.06,0.237,0.065,0.354,0.095c-0.011-0.014-0.022-0.027-0.033-0.041
		l0.049,0.043c-0.005-0.001-0.011-0.002-0.016-0.002c3.574,4.42,7.199,8.797,10.694,13.275c2.485,3.188,1.917,7.566-1.116,9.98
		c-3.148,2.51-7.313,2.199-9.971-0.953c-3.265-3.867-6.432-7.826-9.523-11.834C63.055,92.28,63.185,88.655,65.613,85.919z
		 M62.704,86.014c-5.644,1.193-11.332,2.229-17.05,2.977c-3.665,0.479-6.879-2.579-7.396-6.397c-0.461-3.41,1.982-7.025,5.545-7.719
		c5.352-1.041,10.73-1.947,16.129-2.711c4.021-0.568,7.648,2.91,7.669,7.064C67.617,82.462,65.789,85.358,62.704,86.014z
		 M75.746,81.804l-0.049-0.045c0.011,0.004,0.021,0.009,0.032,0.013c-0.318-0.592-0.649-1.176-0.949-1.772
		c-1.423-2.822-0.942-6.24,1.475-8.473c3.905-3.611,7.886-7.155,11.954-10.579c3.02-2.542,7.114-2.051,9.826,0.926
		c2.355,2.583,2.322,7.073-0.32,9.626c-3.131,3.024-6.46,5.846-9.691,8.769c-0.325,0.289-0.555,0.68-0.825,1.02
		c-0.331,0.271-0.655,0.543-0.981,0.814c-1.585,0.581-3.204,1.707-4.74,1.605c-1.952-0.129-3.834-1.24-5.747-1.937
		C75.734,81.782,75.74,81.792,75.746,81.804z M56.872,45.992c0.326-0.271,0.65-0.542,0.981-0.813
		c5.206-2.768,9.372-1.29,11.668,4.087c1.863,4.36,3.84,8.672,5.677,13.044c1.446,3.454-0.222,7.53-3.578,9.047
		c-3.633,1.643-7.84,0.222-9.479-3.328c-2.149-4.651-4.182-9.356-6.277-14.032C54.571,51.115,55.303,48.503,56.872,45.992z
		 M42.501,43.097c3.524-0.978,7.54,0.966,8.512,4.452c1.456,5.249,2.648,10.573,3.931,15.872c0.121,0.491,0.084,1.022,0.094,1.208
		c-0.028,3.848-2.594,6.863-5.947,7.311c-3.769,0.506-7.091-1.49-8.021-5.052c-1.347-5.15-2.597-10.323-3.768-15.515
		C36.481,47.727,38.838,44.113,42.501,43.097z M30.012,52.701c4.221-0.232,7.297,2.303,7.705,6.567
		c0.27,2.871,0.517,8.653,0.566,8.654c0,2.181-0.024,4.362,0.006,6.543c0.058,4.343-2.783,7.571-6.858,7.753
		c-4.09,0.182-7.306-2.787-7.497-7.09c-0.223-5-0.362-10.007-0.452-15.012C23.409,56.05,26.237,52.909,30.012,52.701z
		 M23.964,89.241c1.098-3.102,4.131-5.303,7.243-4.953c1.351,0.152,2.74,0.715,3.929,1.41c3.991,2.328,7.88,4.822,11.834,7.208
		c2.494,1.507,3.953,3.601,4.022,6.568c0.009,5.377-5.968,8.979-10.59,6.278c-4.542-2.654-9.009-5.438-13.437-8.275
		C24.103,95.644,22.929,92.154,23.964,89.241z M47.895,121.071c-4.937,1.398-9.879,2.774-14.838,4.09
		c-3.93,1.042-7.732-1.127-8.754-4.895c-1.072-3.975,0.977-7.68,4.992-8.848c4.926-1.434,9.859-2.846,14.815-4.164
		c4.579-1.219,8.968,2.244,8.932,6.945C53.02,117.507,51.066,120.174,47.895,121.071z M66.499,123.558
		c-2.112,1.869-4.624,2.172-7.207,1.202c-2.534-0.952-4.056-2.858-4.468-5.563c-0.754-4.943-1.417-9.898-2.218-14.834
		c-0.74-4.541,2.54-8.522,7.121-8.5c3.376,0.017,6.049,1.866,6.71,5.226c1.003,5.093,1.595,10.262,2.495,15.376
		C69.438,119.345,68.611,121.687,66.499,123.558z M94.484,125.222c-2.509,0.023-5.011,0.003-7.517,0.002
		c-2.569-0.002-5.138,0.039-7.705-0.012c-3.998-0.08-7.121-3.205-7.156-7.088c-0.032-3.869,3.268-7.217,7.25-7.25
		c5.074-0.043,10.148-0.049,15.222,0.004c4.026,0.043,7.273,3.363,7.223,7.262C101.751,122.183,98.667,125.183,94.484,125.222z
		 M100.639,109.757c-3.633,1.643-7.841,0.222-9.479-3.328c-2.149-4.65-4.182-9.355-6.277-14.031
		c-1.293-2.882-0.561-5.493,1.008-8.005c0.326-0.271,0.65-0.542,0.981-0.813c5.206-2.768,9.372-1.289,11.669,4.087
		c1.863,4.36,3.84,8.673,5.677,13.044C105.663,104.163,103.995,108.239,100.639,109.757z"/>
	<path d="M94.909,114.952c0.518,0.524,0.971,1.343,1.572,1.473c0.449,0.098,1.088-0.699,2.123-1.445
		c-1.035-0.656-1.626-1.333-2.152-1.281C95.899,113.752,95.421,114.505,94.909,114.952z"/>
	<path d="M75.746,81.804c-0.006-0.012-0.012-0.021-0.017-0.032c-0.011-0.004-0.021-0.009-0.032-0.013L75.746,81.804z"/>
	<path d="M75.369,84.923c0.011,0.014,0.022,0.027,0.033,0.041c0.005,0,0.011,0.001,0.016,0.002L75.369,84.923z"/>
</g>
</svg>
