<?xml version="1.0" encoding="utf-8"?>
<!-- Generator: Adobe Illustrator 16.0.4, SVG Export Plug-In . SVG Version: 6.00 Build 0)  -->
<!DOCTYPE svg PUBLIC "-//W3C//DTD SVG 1.1//EN" "http://www.w3.org/Graphics/SVG/1.1/DTD/svg11.dtd">
<svg version="1.1" id="Layer_3001" xmlns="http://www.w3.org/2000/svg" xmlns:xlink="http://www.w3.org/1999/xlink" x="0px" y="0px"
	 width="128px" height="128px" viewBox="0 0 128 128" enable-background="new 0 0 128 128" xml:space="preserve">
<g id="q7FYOn.tif">
	<g>
		<path fill-rule="evenodd" clip-rule="evenodd" d="M56.221,70.498c8.063,0,16.125-0.005,24.188,0.002
			c2.549,0.002,2.562,0.014,2.562,2.64c0.005,9.248,0.052,18.498-0.011,27.745c-0.102,14.895-11.658,26.611-26.528,26.979
			c-13.045,0.323-25.052-9.987-26.758-22.877c-0.397-3-0.34-5.99-0.348-8.989c-0.02-7.668-0.013-15.335-0.002-23.003
			c0.002-2.477,0.021-2.491,2.472-2.494C39.938,70.492,48.08,70.498,56.221,70.498z M74.861,91.952
			c0.044-0.001,0.089-0.001,0.135-0.001c0-3.159-0.001-6.319,0.001-9.478c0-1.412-0.334-2.676-1.614-3.481
			c-1.147-0.723-2.352-0.869-3.598-0.235c-1.419,0.722-2.023,1.896-2.02,3.463c0.011,5.45,0.015,10.901-0.012,16.352
			c-0.019,3.931-1.422,7.241-4.566,9.71c-1.852,1.452-3.965,2.175-6.321,2.386c-3.183,0.285-4.519,1.663-4.277,4.159
			c0.222,2.287,1.76,3.273,4.919,3.157c8.67-0.321,16.678-7.889,17.315-16.561C75.056,98.281,74.861,95.108,74.861,91.952z"/>
		<path fill-rule="evenodd" clip-rule="evenodd" d="M54.958,0.129c11.807,0.01,22.295,7.633,25.57,18.938
			c2.745,9.47,5.138,19.042,7.728,28.558c0.352,1.296,0.237,1.913-1.275,2.313c-16.093,4.253-32.167,8.584-48.233,12.938
			c-1.277,0.346-1.887,0.07-2.222-1.21c-2.579-9.844-5.546-19.603-7.711-29.536C25.199,15.544,38.012,0.114,54.958,0.129z
			 M55.064,15.595c-7.323-0.057-12.76,6.615-11.074,13.725c1.073,4.521,2.359,8.991,3.514,13.494
			c0.289,1.126,0.766,1.482,1.981,1.144c6.223-1.733,12.462-3.405,18.713-5.034c1.178-0.307,1.517-0.722,1.163-1.963
			c-1.273-4.47-2.335-9.001-3.654-13.457C64.302,18.763,59.95,15.632,55.064,15.595z"/>
		<path fill-rule="evenodd" clip-rule="evenodd" d="M97.307,61.844c0,3.225-2.666,5.907-5.835,5.869
			c-3.174-0.037-5.805-2.775-5.749-5.982c0.054-3.127,2.622-5.688,5.743-5.726C94.685,55.965,97.307,58.587,97.307,61.844z"/>
		<path fill-rule="evenodd" clip-rule="evenodd" d="M74.028,68.269c-3.18-0.045-5.874-2.819-5.785-5.958
			c0.091-3.208,2.784-5.715,6.057-5.632c3.161,0.079,5.651,2.637,5.629,5.785C79.908,65.691,77.242,68.314,74.028,68.269z"/>
		<path fill-rule="evenodd" clip-rule="evenodd" d="M101.67,51.796c-3.259-0.046-5.815-2.708-5.709-5.946
			c0.103-3.131,2.702-5.673,5.802-5.676c3.164-0.003,5.902,2.741,5.873,5.886C107.605,49.26,104.922,51.841,101.67,51.796z"/>
		<path fill-rule="evenodd" clip-rule="evenodd" d="M23.997,63.242c-3.269-0.056-5.744-2.66-5.672-5.968
			c0.066-3.115,2.667-5.68,5.767-5.687c3.184-0.008,5.825,2.677,5.802,5.898C29.87,60.754,27.264,63.297,23.997,63.242z"/>
		<path fill-rule="evenodd" clip-rule="evenodd" d="M99.22,80.325c-0.018,3.236-2.698,5.88-5.888,5.805
			c-3.111-0.074-5.673-2.671-5.706-5.782c-0.034-3.209,2.61-5.912,5.803-5.933C96.603,74.395,99.238,77.083,99.22,80.325z"/>
		<path fill-rule="evenodd" clip-rule="evenodd" d="M24.191,76.359c-0.016,3.268-2.594,5.778-5.891,5.737
			c-3.285-0.039-5.752-2.612-5.686-5.927c0.064-3.155,2.596-5.645,5.754-5.658C21.597,70.499,24.208,73.121,24.191,76.359z"/>
		<path fill-rule="evenodd" clip-rule="evenodd" d="M115.386,64.965c-0.027,3.303-2.568,5.774-5.888,5.724
			c-3.129-0.047-5.688-2.606-5.716-5.719c-0.029-3.204,2.611-5.856,5.832-5.858C112.894,59.11,115.413,61.665,115.386,64.965z"/>
	</g>
</g>
</svg>
