<?xml version="1.0" encoding="utf-8"?>
<!-- Generator: Adobe Illustrator 16.0.4, SVG Export Plug-In . SVG Version: 6.00 Build 0)  -->
<!DOCTYPE svg PUBLIC "-//W3C//DTD SVG 1.1//EN" "http://www.w3.org/Graphics/SVG/1.1/DTD/svg11.dtd">
<svg version="1.1" id="Layer_3002" xmlns="http://www.w3.org/2000/svg" xmlns:xlink="http://www.w3.org/1999/xlink" x="0px" y="0px"
	 width="128px" height="128px" viewBox="0 0 128 128" enable-background="new 0 0 128 128" xml:space="preserve">
<g>
	<g id="LG7NGe.tif">
		<g>
			<path fill-rule="evenodd" clip-rule="evenodd" d="M90.285,74.176c-0.197,0.665-0.364,1.345-0.601,1.994
				c-1.751,4.793-5.479,7.071-10.25,7.983c-2.423,0.466-4.88,0.159-7.318,0.235c-0.824,0.026-1.648,0.004-2.499,0.004
				c0.517,1.551,0.305,3.051,0.26,4.527c-0.027,0.882-0.688,1.24-1.545,1.281c-1.106,0.056-2.227-0.124-3.434,0.14
				c0,3.511,0.004,6.985-0.005,10.46c0,0.486,0.351,0.585,0.681,0.767c0.912,0.509,1.353,1.304,1.351,2.348
				c0,1.864,0.009,3.73,0,5.597c-0.002,0.993-0.424,1.799-1.324,2.219c-0.602,0.28-0.731,0.672-0.717,1.263
				c0.028,1.326,0.004,2.653,0.017,3.979c0.03,4.477,3.053,7.574,7.563,7.65c3.812,0.065,7.628,0.021,11.44,0.035
				c0.445,0,0.908-0.097,1.423,0.156c0.169,0.81,0.124,1.654,0.025,2.474c-0.474,0.305-0.941,0.189-1.385,0.189
				c-3.938,0.011-7.877,0.009-11.814,0.007c-5.828-0.005-10.256-4.262-10.466-10.085c-0.052-1.45-0.035-2.902-0.01-4.353
				c0.01-0.626-0.077-1.047-0.764-1.339c-0.857-0.367-1.265-1.158-1.267-2.113c-0.002-1.949,0-3.897-0.002-5.846
				c-0.002-1.016,0.478-1.739,1.355-2.196c0.34-0.175,0.665-0.286,0.663-0.774c-0.012-3.471-0.006-6.941-0.006-10.427
				c-1.137-0.274-2.173-0.109-3.201-0.148c-1.384-0.054-1.819-0.427-1.796-1.777c0.019-1.312-0.239-2.646,0.28-4.037
				c-2.018,0-4.002,0.008-5.983-0.003c-2.272-0.01-4.456-0.49-6.482-1.497c-4.396-2.188-6.769-5.662-6.76-10.683
				c0.023-14.509,0.008-29.017,0.01-43.526c0-0.498,0.015-0.995,0.039-1.492c0.228-4.686,2.981-7.465,7.695-7.485
				c12.395-0.056,24.788-0.055,37.182-0.002c4.208,0.017,6.643,2.21,7.45,6.383c0.039,0.199,0.13,0.389,0.195,0.583
				C90.285,42.502,90.285,58.339,90.285,74.176z M87.064,50.343c0-7.25,0.008-14.501-0.003-21.752
				c-0.01-4.482-1.226-5.695-5.673-5.697c-7.955-0.004-15.91-0.007-23.862,0.002c-4.185,0.004-8.371-0.03-12.552,0.074
				c-2.456,0.062-3.602,1.22-3.926,3.637c-0.115,0.858-0.183,1.73-0.185,2.596c-0.009,14.127,0.079,28.257-0.042,42.383
				c-0.047,5.727,3.57,8.361,7.46,9.264c2.692,0.626,5.449,0.282,8.175,0.297c6.875,0.037,13.752,0.041,20.63,0.008
				c6.349-0.031,10.001-3.759,9.979-10.054C87.046,64.181,87.062,57.262,87.064,50.343z"/>
			<path fill-rule="evenodd" clip-rule="evenodd" d="M64.892,15.295c-0.024,0.453-0.002,0.917-0.088,1.358
				c-0.137,0.692-0.587,1.114-1.314,1.045c-0.647-0.062-1.04-0.472-1.098-1.145c-0.024-0.287-0.06-0.585-0.016-0.866
				c0.266-1.815-0.546-2.918-2.128-3.771c-2.499-1.344-3.844-3.445-3.572-6.401c0.264-2.879,2.692-5.05,5.64-5.016
				c2.867,0.032,5.274,2.294,5.438,5.089c0.05,0.831-0.111,1.552-1.055,1.669c-0.933,0.118-1.267-0.491-1.409-1.347
				c-0.277-1.677-1.169-2.649-2.492-2.861c-1.341-0.216-2.538,0.31-3.201,1.407c-0.717,1.185-0.568,2.915,0.348,4.071
				c0.502,0.63,1.166,1.05,1.86,1.422C63.939,11.096,65.086,12.802,64.892,15.295z"/>
			<path fill-rule="evenodd" clip-rule="evenodd" d="M44.47,66.227c2.78,0,5.423,0.004,8.07-0.002
				c1.748-0.002,2.655-1.207,2.155-2.853c-0.289-0.952-0.911-1.396-1.937-1.382c-2.361,0.035-4.724-0.023-7.083,0.035
				c-0.938,0.023-1.354-0.198-1.292-1.228c0.083-1.397,0.021-2.802,0.021-4.322c2.857,0,5.585,0.012,8.313-0.004
				c1.316-0.009,2.068-0.783,2.096-2.084c0.029-1.354-0.724-2.163-2.111-2.176c-2.237-0.022-4.474,0.002-6.711-0.006
				c-0.487-0.002-0.996,0.115-1.581-0.256c0-2.402,0-4.878,0.002-7.355c0-0.865,0.654-0.7,1.158-0.703
				c4.392-0.013,8.783-0.016,13.174-0.016c7.749,0,15.494,0.004,23.243,0.015c0.486,0.001,0.993-0.113,1.469,0.149
				c0.247,0.468,0.13,0.972,0.132,1.457c0.011,7.581-0.117,15.165,0.05,22.743c0.142,6.468-4.683,9.306-9.193,9.382
				c-6.958,0.12-13.92,0.089-20.878,0.005c-4.514-0.054-8.074-2.715-8.946-6.507C44.265,69.576,44.345,67.998,44.47,66.227z"/>
		</g>
	</g>
	<rect x="70.388" y="31.269" width="12.934" height="4.228"/>
</g>
</svg>
