<?xml version="1.0" encoding="utf-8"?>
<!-- Generator: Adobe Illustrator 16.0.4, SVG Export Plug-In . SVG Version: 6.00 Build 0)  -->
<!DOCTYPE svg PUBLIC "-//W3C//DTD SVG 1.1//EN" "http://www.w3.org/Graphics/SVG/1.1/DTD/svg11.dtd">
<svg version="1.1" id="Layer_3005" xmlns="http://www.w3.org/2000/svg" xmlns:xlink="http://www.w3.org/1999/xlink" x="0px" y="0px"
	 width="128px" height="128px" viewBox="0 0 128 128" enable-background="new 0 0 128 128" xml:space="preserve">
<g>
	<g>
		<path d="M124.643,27.189c-7.961-7.953-15.924-15.904-23.879-23.863C97.188-0.25,92.215-0.243,88.637,3.35
			c-3.747,3.76-7.502,7.512-11.256,11.266C64.475,27.52,51.568,40.422,38.662,53.326C26.88,65.106,15.103,76.89,3.316,88.666
			c-3.527,3.522-3.553,8.528-0.02,12.066c7.975,7.985,15.958,15.96,23.932,23.946c1.671,1.673,3.659,2.6,6.05,2.672
			c2.311-0.073,4.306-0.907,5.956-2.57c2.44-2.46,4.891-4.91,7.341-7.36c14.12-14.118,28.242-28.233,42.363-42.35
			c11.893-11.893,23.781-23.787,35.68-35.674C128.235,35.783,128.255,30.798,124.643,27.189z M31.325,114.336
			c0.021-1.278,1.123-2.381,2.37-2.37c1.316,0.01,2.426,1.143,2.403,2.453c-0.022,1.302-1.197,2.42-2.487,2.365
			C32.326,116.73,31.304,115.637,31.325,114.336z M35.923,74.368c0.01,1.339-1.063,2.401-2.417,2.395
			c-1.374-0.007-2.364-1.044-2.335-2.444c0.028-1.328,1.052-2.317,2.389-2.308C34.854,72.021,35.914,73.078,35.923,74.368z
			 M33.8,92.022c1.322,0.047,2.232,1.078,2.184,2.479c-0.043,1.28-1.156,2.318-2.447,2.284c-1.299-0.035-2.394-1.226-2.324-2.527
			C31.284,92.945,32.408,91.974,33.8,92.022z M21.266,104.209c0.012-1.266,1.109-2.263,2.461-2.238
			c1.326,0.024,2.31,1.049,2.303,2.397c-0.007,1.271-1.049,2.366-2.255,2.369C22.312,106.741,21.253,105.674,21.266,104.209z
			 M23.542,81.959c1.324-0.018,2.451,1.088,2.444,2.395c-0.007,1.283-1.073,2.344-2.372,2.358c-1.384,0.016-2.414-1.002-2.408-2.38
			C21.213,83.015,22.236,81.975,23.542,81.959z M11.211,94.379c-0.041-1.301,1.073-2.465,2.375-2.481
			c1.309-0.016,2.457,1.118,2.442,2.412c-0.015,1.291-1.078,2.354-2.374,2.371C12.373,96.697,11.251,95.643,11.211,94.379z
			 M84.335,21.203c1.343-0.004,2.357,0.983,2.38,2.312c0.021,1.351-1.043,2.465-2.358,2.469c-1.309,0.004-2.411-1.121-2.395-2.444
			C81.978,22.231,83.019,21.207,84.335,21.203z M84.427,41.165c1.26-0.013,2.381,1.082,2.405,2.35
			c0.025,1.304-1.093,2.45-2.399,2.46c-1.258,0.008-2.354-1.065-2.407-2.355C81.973,42.345,83.115,41.178,84.427,41.165z
			 M74.375,31.167c1.353-0.011,2.365,0.961,2.393,2.297c0.027,1.348-1.033,2.455-2.356,2.459c-1.306,0.005-2.372-1.03-2.397-2.325
			C71.988,32.215,72.996,31.177,74.375,31.167z M43.641,106.788c-1.386-0.015-2.376-1.036-2.353-2.431
			c0.022-1.299,1.091-2.351,2.379-2.343c1.302,0.006,2.404,1.152,2.37,2.465C46.004,105.798,44.963,106.8,43.641,106.788z
			 M43.57,86.831c-1.296,0.004-2.431-1.153-2.405-2.451c0.025-1.259,1.159-2.371,2.405-2.362c1.29,0.01,2.451,1.193,2.408,2.454
			C45.936,85.744,44.83,86.828,43.57,86.831z M51.235,94.529c-0.023-1.341,1.044-2.453,2.358-2.457
			c1.333-0.006,2.404,1.081,2.39,2.426c-0.014,1.323-1.027,2.323-2.36,2.328C52.275,96.831,51.257,95.854,51.235,94.529z
			 M86.43,67.668c-3.877,3.854-7.736,7.725-11.602,11.59c-2.381,2.383-4.755,4.773-7.146,7.146c-2.186,2.168-5.09,2.187-7.295,0.062
			c-0.572-0.551-1.129-1.118-1.69-1.68c-5.728-5.73-11.461-11.453-17.179-17.194c-2.082-2.09-2.079-5.04-0.037-7.154
			c0.309-0.321,0.616-0.643,0.93-0.958c5.957-5.953,11.911-11.91,17.875-17.854c2.252-2.246,5.18-2.244,7.43,0.002
			c6.229,6.217,12.443,12.448,18.679,18.659c1.047,1.043,1.608,2.261,1.644,3.789C87.992,65.452,87.452,66.651,86.43,67.668z
			 M111.963,33.675c0.004-1.246,1.124-2.351,2.393-2.357c1.286-0.009,2.398,1.045,2.438,2.31c0.041,1.291-1.085,2.451-2.392,2.468
			C113.098,36.111,111.959,34.982,111.963,33.675z M102.016,43.724c-0.038-1.32,1.048-2.436,2.383-2.444
			c1.384-0.009,2.396,1.007,2.389,2.396c-0.008,1.319-1.026,2.345-2.343,2.36C103.168,46.05,102.053,44.989,102.016,43.724z
			 M106.752,23.72c0.001,1.25-1.121,2.316-2.424,2.305c-1.378-0.012-2.378-1.047-2.354-2.438c0.021-1.251,1.08-2.336,2.282-2.339
			C105.625,21.245,106.751,22.36,106.752,23.72z M92.077,53.616c-0.009-1.327,1.08-2.399,2.426-2.386
			c1.333,0.012,2.324,1.017,2.329,2.361c0.004,1.375-1.027,2.403-2.398,2.391C93.143,55.968,92.085,54.907,92.077,53.616z
			 M94.305,11.207c1.259-0.011,2.355,1.085,2.37,2.37c0.015,1.311-1.005,2.404-2.284,2.449c-1.301,0.044-2.472-1.066-2.491-2.364
			C91.881,12.356,92.997,11.217,94.305,11.207z M94.381,31.208c1.28,0.008,2.38,1.085,2.407,2.357
			c0.028,1.35-1.082,2.425-2.508,2.427c-1.206,0.001-2.289-1.042-2.3-2.216C91.969,32.363,93.055,31.201,94.381,31.208z"/>
		<path d="M66.306,42.846c-1.378-1.376-3.212-1.393-4.58-0.029C55.45,49.081,49.18,55.352,42.914,61.627
			c-1.477,1.48-1.479,3.25-0.022,4.715c2.824,2.838,5.657,5.668,8.488,8.5c3.438,3.438,6.881,6.872,10.315,10.313
			c0.611,0.61,1.308,0.995,2.14,0.991c1.034,0.044,1.822-0.336,2.515-1.029c6.239-6.256,12.491-12.498,18.736-18.749
			c1.477-1.478,1.492-3.235,0.021-4.708C78.845,55.383,72.576,49.113,66.306,42.846z M71.984,64.569
			c1.165,1.171,2.342,2.329,3.508,3.501c0.875,0.88,0.875,1.261-0.002,2.14c-1.795,1.8-3.598,3.593-5.397,5.387
			c-0.271,0.271-0.534,0.56-0.904,0.531c-0.485-0.016-0.754-0.282-1.026-0.557c-1.211-1.217-2.44-2.414-3.629-3.651
			c-0.403-0.419-0.657-0.424-1.062-0.001c-1.187,1.239-2.409,2.443-3.627,3.649c-0.785,0.778-1.201,0.768-1.998-0.025
			c-1.799-1.795-3.597-3.589-5.388-5.391c-0.802-0.809-0.815-1.195-0.028-1.997c1.201-1.224,2.41-2.441,3.65-3.627
			c0.42-0.401,0.429-0.655,0.007-1.06c-1.237-1.187-2.444-2.407-3.65-3.627c-0.792-0.802-0.787-1.197,0.008-1.996
			c1.794-1.802,3.59-3.601,5.394-5.393c0.836-0.831,1.183-0.824,2.059,0.039c1.108,1.092,2.204,2.198,3.306,3.299
			c0.956,0.956,0.724,0.848,1.567,0.02c1.133-1.113,2.237-2.256,3.37-3.37c0.798-0.784,1.21-0.779,2.003,0.009
			c1.826,1.812,3.646,3.63,5.461,5.454c0.741,0.746,0.736,1.159-0.023,1.928c-1.185,1.197-2.386,2.377-3.577,3.567
			C71.418,63.983,71.412,63.994,71.984,64.569z"/>
	</g>
	<g>
		<path d="M27.189,3.356c-7.953,7.961-15.905,15.924-23.863,23.88c-3.577,3.575-3.568,8.547,0.023,12.125
			c3.761,3.747,7.513,7.502,11.266,11.256C27.52,63.523,40.422,76.433,53.327,89.337c11.78,11.782,23.564,23.561,35.338,35.347
			c3.524,3.527,8.529,3.554,12.066,0.02c7.985-7.975,15.962-15.958,23.947-23.932c1.673-1.67,2.599-3.658,2.671-6.05
			c-0.072-2.312-0.906-4.307-2.568-5.955c-2.461-2.44-4.912-4.89-7.362-7.342c-14.117-14.119-28.233-28.242-42.35-42.362
			C63.178,27.168,51.283,15.28,39.396,3.382C35.783-0.235,30.798-0.256,27.189,3.356z M114.335,96.675
			c-1.278-0.021-2.381-1.123-2.37-2.369c0.012-1.318,1.144-2.426,2.454-2.404c1.303,0.022,2.419,1.196,2.364,2.487
			C116.73,95.675,115.636,96.695,114.335,96.675z M74.369,92.076c1.337-0.009,2.4,1.063,2.393,2.416
			c-0.006,1.374-1.044,2.365-2.444,2.335c-1.326-0.027-2.316-1.052-2.307-2.389C72.021,93.146,73.078,92.086,74.369,92.076z
			 M92.022,94.199c0.047-1.321,1.078-2.231,2.478-2.185c1.28,0.043,2.319,1.157,2.284,2.448c-0.034,1.299-1.225,2.395-2.526,2.324
			C92.944,96.715,91.973,95.592,92.022,94.199z M104.208,106.733c-1.265-0.012-2.263-1.109-2.237-2.46
			c0.024-1.327,1.049-2.311,2.397-2.305c1.271,0.008,2.366,1.05,2.369,2.256C106.74,105.688,105.673,106.746,104.208,106.733z
			 M81.958,104.456c-0.017-1.322,1.089-2.449,2.395-2.443c1.284,0.007,2.345,1.073,2.359,2.372c0.016,1.383-1.003,2.414-2.38,2.407
			C83.014,106.787,81.975,105.764,81.958,104.456z M94.379,116.789c-1.301,0.041-2.465-1.073-2.481-2.375
			c-0.017-1.309,1.117-2.456,2.412-2.442c1.29,0.014,2.354,1.078,2.371,2.372C96.697,115.629,95.642,116.749,94.379,116.789z
			 M21.203,43.664c-0.004-1.342,0.983-2.358,2.312-2.379c1.351-0.021,2.464,1.042,2.469,2.358c0.004,1.309-1.121,2.412-2.445,2.396
			C22.232,46.021,21.207,44.98,21.203,43.664z M41.165,43.572c-0.013-1.261,1.082-2.381,2.35-2.405
			c1.305-0.024,2.451,1.093,2.46,2.399c0.009,1.257-1.065,2.355-2.355,2.408C42.346,46.026,41.178,44.884,41.165,43.572z
			 M31.167,53.625c-0.01-1.353,0.961-2.365,2.297-2.393c1.348-0.028,2.456,1.033,2.459,2.356c0.005,1.306-1.03,2.372-2.326,2.397
			C32.216,56.011,31.177,55.003,31.167,53.625z M106.787,84.358c-0.013,1.387-1.035,2.378-2.431,2.353
			c-1.299-0.022-2.349-1.09-2.343-2.38c0.007-1.301,1.153-2.402,2.466-2.369C105.798,81.995,106.799,83.037,106.787,84.358z
			 M86.831,84.43c0.004,1.296-1.154,2.431-2.452,2.404c-1.258-0.025-2.371-1.158-2.361-2.404c0.011-1.291,1.192-2.452,2.454-2.408
			C85.744,82.065,86.827,83.17,86.831,84.43z M94.529,76.765c-1.341,0.023-2.453-1.044-2.458-2.358
			c-0.005-1.332,1.082-2.403,2.427-2.389c1.323,0.014,2.324,1.026,2.328,2.359C96.831,75.726,95.853,76.743,94.529,76.765z
			 M67.667,41.57c3.854,3.876,7.726,7.735,11.591,11.6c2.382,2.382,4.772,4.756,7.145,7.147c2.168,2.187,2.187,5.09,0.064,7.297
			c-0.552,0.57-1.118,1.128-1.682,1.689c-5.729,5.729-11.453,11.462-17.193,17.179c-2.091,2.083-5.04,2.079-7.154,0.037
			c-0.321-0.309-0.643-0.615-0.957-0.93c-5.953-5.957-11.91-11.91-17.854-17.875c-2.246-2.253-2.244-5.18,0.003-7.431
			c6.217-6.229,12.448-12.444,18.659-18.677c1.043-1.047,2.261-1.61,3.789-1.646C65.452,40.007,66.651,40.547,67.667,41.57z
			 M33.675,16.037c-1.246-0.004-2.351-1.125-2.358-2.392c-0.008-1.287,1.045-2.399,2.31-2.438c1.291-0.04,2.451,1.085,2.468,2.392
			C36.112,14.902,34.983,16.041,33.675,16.037z M43.724,25.983c-1.32,0.039-2.436-1.048-2.444-2.382
			c-0.009-1.383,1.007-2.397,2.396-2.388c1.319,0.007,2.345,1.025,2.361,2.343C46.051,24.832,44.989,25.947,43.724,25.983z
			 M23.721,21.248c1.249-0.001,2.316,1.122,2.304,2.424c-0.012,1.377-1.047,2.377-2.438,2.354c-1.251-0.021-2.336-1.08-2.339-2.282
			C21.245,22.375,22.36,21.249,23.721,21.248z M53.616,35.922c-1.327,0.009-2.399-1.08-2.386-2.425
			c0.012-1.333,1.017-2.325,2.361-2.33c1.375-0.004,2.403,1.027,2.39,2.398C55.969,34.856,54.908,35.914,53.616,35.922z
			 M11.207,33.695c-0.011-1.26,1.084-2.355,2.37-2.371c1.311-0.016,2.404,1.005,2.448,2.284c0.044,1.301-1.066,2.471-2.363,2.491
			C12.357,36.118,11.217,35.003,11.207,33.695z M31.208,33.62c0.008-1.281,1.084-2.381,2.356-2.409
			c1.35-0.027,2.426,1.083,2.428,2.508c0.001,1.207-1.042,2.289-2.216,2.299C32.363,36.03,31.201,34.945,31.208,33.62z"/>
		<path d="M42.846,61.694c-1.376,1.376-1.394,3.212-0.029,4.579c6.265,6.276,12.535,12.547,18.811,18.812
			c1.48,1.478,3.249,1.479,4.713,0.021c2.839-2.823,5.668-5.656,8.501-8.486c3.438-3.438,6.872-6.881,10.312-10.316
			c0.61-0.609,0.997-1.309,0.993-2.14c0.043-1.035-0.338-1.822-1.031-2.515c-6.255-6.239-12.498-12.491-18.748-18.736
			c-1.479-1.477-3.235-1.492-4.708-0.021C55.384,49.154,49.113,55.423,42.846,61.694z M64.569,56.016
			c1.171-1.165,2.33-2.344,3.501-3.508c0.88-0.875,1.26-0.875,2.14,0.001c1.799,1.796,3.593,3.598,5.387,5.399
			c0.271,0.271,0.559,0.534,0.53,0.903c-0.015,0.486-0.28,0.755-0.556,1.028c-1.218,1.21-2.414,2.44-3.651,3.628
			c-0.419,0.403-0.424,0.657-0.001,1.063c1.238,1.186,2.442,2.408,3.649,3.627c0.777,0.784,0.767,1.201-0.026,1.996
			c-1.794,1.8-3.589,3.598-5.391,5.389c-0.808,0.803-1.194,0.815-1.995,0.027c-1.225-1.201-2.443-2.41-3.628-3.649
			c-0.402-0.42-0.655-0.428-1.059-0.007c-1.188,1.238-2.409,2.444-3.628,3.65c-0.802,0.792-1.197,0.786-1.997-0.009
			c-1.801-1.793-3.6-3.59-5.392-5.394c-0.831-0.837-0.825-1.184,0.039-2.06c1.092-1.108,2.198-2.203,3.298-3.304
			c0.957-0.958,0.848-0.726,0.02-1.57c-1.113-1.132-2.256-2.236-3.369-3.369c-0.784-0.798-0.78-1.21,0.008-2.003
			c1.812-1.827,3.631-3.647,5.454-5.461c0.747-0.741,1.159-0.736,1.928,0.023c1.198,1.184,2.378,2.385,3.567,3.576
			C63.984,56.581,63.994,56.587,64.569,56.016z"/>
	</g>
</g>
</svg>
