<?xml version="1.0" encoding="utf-8"?>
<!-- Generator: Adobe Illustrator 16.0.4, SVG Export Plug-In . SVG Version: 6.00 Build 0)  -->
<!DOCTYPE svg PUBLIC "-//W3C//DTD SVG 1.1//EN" "http://www.w3.org/Graphics/SVG/1.1/DTD/svg11.dtd">
<svg version="1.1" id="Layer_3101" xmlns="http://www.w3.org/2000/svg" xmlns:xlink="http://www.w3.org/1999/xlink" x="0px" y="0px"
	 width="128px" height="128px" viewBox="0 0 128 128" enable-background="new 0 0 128 128" xml:space="preserve">
<g>
	<g>
		<path d="M122.006,126.901c-1.436-3.312-2.438-6.777-3.521-10.211c-1.323-4.193-2.698-8.375-3.842-12.617
			c-0.425-1.576-0.794-3.209-0.691-4.939c0.223-3.724,0.172-7.464,0.026-11.192c-0.163-4.18-0.401-8.358-0.735-12.528
			c-0.367-4.595-0.834-9.183-1.367-13.764c-0.565-4.855-1.408-25.485-2.322-30.94c-0.413-2.47-0.834-4.939-1.21-7.415
			c-0.272-1.793-0.968-3.397-1.999-4.87c-0.281-0.4-0.504-0.878-0.87-1.175c-0.85-0.687-0.658-1.329-0.244-2.196
			c1.94-4.083,3.801-8.203,5.691-12.309c0.344-0.746,0.348-0.788-0.477-0.91c-2.626-0.391-5.271-0.62-7.917-0.806
			c-2.704-0.19-7.466-0.37-10.173-0.528c-1.614-0.093-3.231-0.15-4.848-0.199c-2.533-0.077-5.063,0.556-7.599,0.586
			C79.703,0.891,79.472,1.5,79.328,1.5c-0.061,0-0.123,0-0.184,0c-0.184,0-0.367,0-0.551,0c-0.062,0-0.122,0-0.185,0
			c-0.183,0-0.366,0-0.55,0c-0.062,0-0.123,0-0.185,0c-0.184,0-0.366,0-0.55,0c-0.062,0-0.123,0-0.184,0c-0.185,0-0.368,0-0.551,0
			c-0.062,0-0.123,0-0.186,0c-0.182,0-0.366,0-0.55,0c-0.062,0-0.122,0-0.184,0c-0.185,0-0.366,0-0.551,0c-0.062,0-0.122,0-0.184,0
			c-0.184,0-0.368,0-0.55,0c-0.062,0-0.123,0-0.186,0c-0.061,0-0.121,0-0.183,0c-6.061,0-12.121,0-18.179,0
			c-0.184,0-0.367,0-0.552,0c-0.061,0-0.121,0-0.184,0c-0.183,0-0.367,0-0.55,0c-0.062,0-0.123,0-0.184,0c-0.184,0-0.366,0-0.551,0
			c-0.06,0-0.122,0-0.183,0c-0.184,0-0.368,0-0.551,0c-0.062,0-0.122,0-0.184,0c-0.183,0-0.367,0-0.55,0c-0.062,0-0.123,0-0.184,0
			c-0.184,0-0.367,0-0.552,0c-0.06,0-0.121,0-0.183,0c-0.184,0-0.368,0-0.55,0c-0.062,0-0.123,0-0.185,0c-0.183,0-0.366,0-0.55,0
			c-0.061,0-0.123,0-0.184,0c-0.184,0-0.367,0-0.551,0c-0.061,0-0.122,0-0.183,0c-0.184,0-0.368,0-0.551,0c-0.062,0-0.122,0-0.184,0
			c-0.549,0-1.141-0.605-1.715-0.611c-3.971-0.044-7.938-0.233-11.906-0.182c-2.744,0.036-7.545-0.057-10.288,0.049
			c-2.499,0.098-4.995,0.155-7.493,0.256c-0.566,0.022-0.668,0.104-0.46,0.658c1.135,3.031,2.229,6.053,3.338,9.094
			c0.417,1.147,0.822,2.289,1.262,3.428c0.166,0.426,0.103,0.701-0.224,1.039c-1.599,1.647-1.477,3.669-1.983,5.874
			c-0.541,2.353-0.91,4.739-1.271,7.123c-0.57,3.772-1.316,17.146-1.613,20.061c-0.352,3.461-0.659,6.926-0.952,10.392
			c-0.262,3.098-0.499,6.2-0.708,9.302c-0.237,3.501-0.418,7.004-0.577,10.51c-0.183,4.023-0.283,8.047-0.369,12.072
			c-0.041,1.923-0.105,3.846-0.086,5.768c0.019,1.857,0.047,3.721,0.212,5.569c0.101,1.142-0.139,2.181-0.46,3.231
			c-1.77,5.781-3.497,11.575-5.411,17.311c-0.482,1.448-0.949,2.905-1.592,4.293c-0.226,0.487-0.087,0.674,0.397,0.715
			c0.789,0.063,1.577,0.164,2.365,0.176c5.563,0.09,11.089-0.324,16.547-1.416c3.208-0.643,6.365-1.498,9.393-2.768
			c0.638-0.268,1.255-0.324,1.954-0.215c4.011,0.63,8.046,1.066,12.095,1.375c3.526,0.27,7.056,0.486,10.59,0.604
			c4.45,0.148,8.9,0.339,13.354,0.215c4.208-0.117,8.415-0.307,12.602-0.745c2.361-0.247,4.72-0.597,7.048-1.088
			c0.408-0.087,0.773-0.075,1.161,0.073c4.067,1.55,8.271,2.584,12.568,3.226c2.716,0.405,5.454,0.63,8.202,0.753
			c2.438,0.107,4.868,0.092,7.302-0.106C122.082,127.491,122.227,127.413,122.006,126.901z M64,87.097
			c-22.208,0-40.213-4.874-40.213-24.334c0-14.451,18.004-24.58,40.213-24.58s40.212,10.129,40.212,24.58
			C104.213,81.875,86.209,87.097,64,87.097z"/>
	</g>
	<g>
		<path fill-rule="evenodd" clip-rule="evenodd" d="M65.66,68.741c0.082-2.354,0.168-4.481,0.223-6.608
			c0.012-0.459-0.09-0.922-0.133-1.313c-1.243,0.196-2.389,0.517-3.541,0.531c-3.595,0.05-6.635-2.589-7.204-6.149
			c-0.141-0.878-0.18-1.773-0.317-2.65c-0.155-0.987-0.37-1.965-0.603-3.174c0.096-0.492,0.605-0.629,1.268-0.665
			c1.002-0.056,2.026-0.096,2.994-0.336c2.66-0.664,5.182-0.584,7.501,1.126c0.411-0.34,0.761-0.651,1.132-0.935
			c2.201-1.685,4.623-2.022,7.242-1.2c1.577,0.495,3.166,0.951,4.734,1.47c0.3,0.1,0.527,0.415,0.828,0.664
			c-0.412,1.054-0.834,2.024-1.17,3.022c-0.341,1.009-0.508,2.083-0.9,3.067c-1.373,3.438-5.136,5.301-8.739,4.395
			c-0.288-0.072-0.577-0.138-0.953-0.227c-0.028,0.548-0.077,1.074-0.079,1.6c-0.008,2.66-0.004,5.32-0.004,8.098
			c2.095,0.013,4.161-0.27,5.76,1.093c1.542,1.314,2.291,3.131,2.45,5.141c0.884,0.043,1.703-0.019,2.477,0.142
			c1.961,0.405,3.06,1.727,3.472,3.634c0.352,1.624-0.453,2.834-2.073,3.146c-0.462,0.088-0.946,0.084-1.421,0.086
			c-9.814,0.006-19.631,0.012-29.447,0c-0.584,0-1.2-0.051-1.747-0.238c-1.191-0.409-1.743-1.439-1.55-2.676
			c0.398-2.56,2.341-4.236,4.922-4.25c0.471-0.003,0.943,0,1.604,0c-0.671-2.115-0.697-4.246,0.297-6.174
			c0.859-1.664,2.307-2.922,4.104-3.533C60.334,64.617,63.253,65.729,65.66,68.741z M56.597,50.779
			c0.113,1.396,0.136,2.703,0.342,3.981c0.403,2.515,2.333,4.468,5.291,4.688c0.888,0.065,1.463-0.196,2.263-0.897
			c-2.966-1.481-5.526-3.382-7.004-6.312c0.343-0.9,0.819-1.084,1.638-0.787c1.704,2.507,4.003,4.469,6.995,5.51
			c0.14-0.157,0.258-0.229,0.283-0.326c0.133-0.516,0.24-1.039,0.352-1.526c-0.062-0.275-0.106-0.507-0.167-0.737
			c-0.881-3.347-3.466-4.927-6.869-4.21C58.738,50.371,57.751,50.552,56.597,50.779z M75.951,51.919
			c-0.328,0.4-0.497,0.643-0.701,0.851c-1.607,1.634-3.512,2.794-5.648,3.61c-0.496,0.188-1.254,0.179-1.232,1.027
			c2.57,1.654,6.176,0.528,7.384-2.401c0.571-1.387,0.864-2.888,1.286-4.351c-1.277-0.504-2.362-0.98-3.479-1.366
			c-2.486-0.858-4.453-0.263-6.105,1.759c0.481,1.144,0.953,2.263,1.417,3.367c2.454-0.588,4.066-2.436,6.159-3.904
			C75.396,51.073,75.681,51.506,75.951,51.919z"/>
	</g>
</g>
</svg>
