<?xml version="1.0" encoding="utf-8"?>
<!-- Generator: Adobe Illustrator 16.0.4, SVG Export Plug-In . SVG Version: 6.00 Build 0)  -->
<!DOCTYPE svg PUBLIC "-//W3C//DTD SVG 1.1//EN" "http://www.w3.org/Graphics/SVG/1.1/DTD/svg11.dtd">
<svg version="1.1" id="Layer_3102" xmlns="http://www.w3.org/2000/svg" xmlns:xlink="http://www.w3.org/1999/xlink" x="0px" y="0px"
	 width="128px" height="128px" viewBox="0 0 128 128" enable-background="new 0 0 128 128" xml:space="preserve">
<g id="kZzSIp.tif">
	<g>
		<path fill-rule="evenodd" clip-rule="evenodd" d="M63.995,50.444c6.865,0,13.73-0.021,20.595,0.011
			c2.762,0.012,2.832,0.065,2.842,2.764c0.033,9.114,0.034,18.228,0,27.342c-0.011,2.966-0.322,3.284-3.25,3.305
			c-6.273,0.043-12.547,0.037-18.82-0.009c-2.646-0.02-2.737-0.088-2.708-2.894c0.071-6.859,0.083-13.723,0.086-20.577
			c0.002-5.635,0.465-4.871-4.702-4.929c-3.923-0.045-3.937,0.015-3.944,3.806c-0.013,7.22,0.011,14.44-0.025,21.661
			c-0.015,2.885-0.069,2.909-3.028,2.941c-2.722,0.03-5.445-0.049-8.166,0.018c-1.643,0.04-2.404-0.576-2.342-2.27
			c0.069-1.892,0.021-3.787,0.021-5.681c-0.001-7.457-0.021-14.914,0.003-22.371c0.01-3.076,0.052-3.109,3.199-3.121
			c6.746-0.023,13.492-0.007,20.239-0.007C63.995,50.437,63.995,50.441,63.995,50.444z"/>
		<path fill-rule="evenodd" clip-rule="evenodd" d="M62.594,103.064c-0.001-4.73-0.024-9.462,0.006-14.191
			c0.022-3.284,0.219-3.511,3.346-3.53c6.031-0.037,12.062-0.01,18.094-0.007c0.473,0,0.954-0.033,1.417,0.04
			c1.289,0.206,1.662,0.848,1.008,1.974c-1.363,2.345-2.783,4.656-4.246,6.941c-4.125,6.445-8.273,12.876-12.431,19.301
			c-1.537,2.378-3.076,4.757-4.702,7.073c-0.759,1.083-1.462,0.905-2.057-0.285c-0.506-1.007-0.43-2.066-0.431-3.125
			C62.592,112.525,62.595,107.795,62.594,103.064z"/>
		<path fill-rule="evenodd" clip-rule="evenodd" d="M64.057,24.205c-6.855-0.001-13.71,0.02-20.565-0.011
			c-2.907-0.014-2.92-0.063-2.976-3.004c-0.027-1.417,0.041-2.837-0.003-4.254c-0.047-1.528,0.69-2.104,2.157-2.08
			c2.48,0.04,4.963,0.002,7.445,0.002c10.992-0.001,21.982-0.001,32.974-0.001c0.827,0,1.654,0.02,2.482,0.005
			c1.337-0.024,1.923,0.645,1.908,1.952c-0.02,1.773-0.041,3.546,0.003,5.318c0.039,1.523-0.685,2.097-2.151,2.082
			c-3.546-0.036-7.092-0.009-10.637-0.008C71.147,24.207,67.602,24.206,64.057,24.205z"/>
		<path fill-rule="evenodd" clip-rule="evenodd" d="M56.133,92.783c0-10.296,0-20.59,0.001-30.885c0-0.829,0.016-1.656,0.012-2.485
			c-0.004-1.387,0.786-1.814,2.049-1.823c1.355-0.01,2.353,0.294,2.303,1.927c-0.022,0.709,0.005,1.42,0.005,2.13
			c0.002,20.708,0.002,41.417,0.003,62.124c0,0.711-0.041,1.422-0.005,2.13c0.072,1.46-0.506,2.19-2.057,2.163
			c-1.84-0.032-2.253-0.292-2.286-2.268c-0.064-3.904-0.023-7.81-0.024-11.715C56.133,106.983,56.134,99.882,56.133,92.783z"/>
		<path fill-rule="evenodd" clip-rule="evenodd" d="M39.083,93.123c0,10.178,0,20.354,0,30.532c0,0.828-0.022,1.657-0.001,2.484
			c0.043,1.624-0.931,1.946-2.299,1.927c-1.255-0.019-2.062-0.412-2.043-1.815c0.009-0.71-0.019-1.419-0.019-2.129
			c-0.001-20.118-0.002-40.236,0-60.354c0-0.946,0.053-1.892,0.052-2.837c-0.002-1.42,0.861-2.131,2.068-2.543
			c1.3-0.444,2.06-0.002,2.194,1.367c0.103,1.056,0.055,2.128,0.055,3.193c0.003,10.059,0.002,20.118,0.002,30.176
			C39.088,93.123,39.085,93.123,39.083,93.123z"/>
		<path fill-rule="evenodd" clip-rule="evenodd" d="M88.805,92.777c0-9.835,0-19.671,0-29.505c0-0.948-0.062-1.902,0.021-2.842
			c0.076-0.872-0.447-2.156,0.737-2.456c1.048-0.265,2.018,0.476,2.702,1.356c1.017,1.305,1.018,2.846,1.015,4.402
			c-0.014,9.954-0.007,19.907-0.007,29.861c0,10.073,0.001,20.146,0,30.219c0,0.711-0.035,1.425,0.001,2.133
			c0.076,1.502-0.601,2.142-2.11,2.119c-1.89-0.026-2.283-0.266-2.331-2.225c-0.071-2.962-0.023-5.925-0.023-8.888
			c0-8.059,0-16.116,0-24.175C88.808,92.777,88.806,92.777,88.805,92.777z"/>
		<path fill-rule="evenodd" clip-rule="evenodd" d="M63.787,12.776c-6.854,0-13.708,0.006-20.562-0.012
			c-0.452-0.001-1.211-0.065-1.298-0.297c-0.261-0.698,0.449-0.933,0.932-1.225c3.631-2.195,7.301-4.33,10.875-6.614
			c1.259-0.805,2.489-1.204,3.968-1.186c4.254,0.051,8.508,0.022,12.762,0.015c1.19-0.002,2.273,0.128,3.358,0.821
			c3.774,2.412,7.63,4.7,11.454,7.035c0.392,0.238,1.008,0.433,0.89,0.948c-0.178,0.775-0.949,0.477-1.462,0.482
			c-3.191,0.033-6.381,0.017-9.572,0.018c-3.782,0-7.563,0-11.345,0C63.787,12.766,63.787,12.771,63.787,12.776z"/>
		<path fill-rule="evenodd" clip-rule="evenodd" d="M54.142,95.617c0,2.839,0.015,5.676-0.016,8.513
			c-0.004,0.44-0.094,1.122-0.365,1.263c-0.456,0.235-0.808-0.297-1.065-0.692c-3.397-5.229-6.792-10.46-10.185-15.69
			c-0.192-0.297-0.384-0.597-0.55-0.909c-1.144-2.164-0.872-2.695,1.581-2.75c2.836-0.062,5.675,0.02,8.512-0.024
			c1.512-0.023,2.123,0.652,2.1,2.134C54.111,90.179,54.142,92.898,54.142,95.617z"/>
		<g>
			<path d="M87.479,30.189c0.015-3.294-0.571-4.98-1.908-4.919c-0.828,0.038-1.655-0.012-2.482-0.012
				c-10.992,0-21.982,0-32.974,0.002c-2.481,0.001-4.964,0.096-7.445-0.005c-1.467-0.06-2.204,1.391-2.157,5.242
				c0.044,3.57-0.023,7.148,0.003,10.721c0.056,7.412,0.069,7.536,2.976,7.57c6.855,0.077,13.709,0.025,20.565,0.027
				c3.545,0.002,7.091,0.003,10.637,0.001c3.545-0.001,7.091-0.07,10.637,0.021c1.467,0.038,2.19-1.406,2.151-5.245
				C87.438,39.127,87.459,34.657,87.479,30.189z M84.587,35.557c-6.857,0.016-13.715,0.008-20.572,0.008
				c-6.859,0-13.716,0.01-20.574-0.011c-1.021-0.003-2.777,0.217-2.674-0.473c0.081-0.544,1.672-0.365,2.634-0.366
				c13.715-0.012,27.43-0.011,41.146,0.003c1.036,0.001,2.771-0.209,2.671,0.475C87.139,35.742,85.548,35.555,84.587,35.557z"/>
		</g>
		<path fill-rule="evenodd" clip-rule="evenodd" d="M64.315-0.063c2.119,0,4.238-0.01,6.358,0.004
			c1.054,0.007,1.894,0.339,1.813,1.608c-0.071,1.127-0.951,1.222-1.794,1.226c-4.357,0.016-8.713,0.027-13.069-0.007
			c-0.987-0.008-2.005-0.306-1.881-1.567c0.096-0.979,0.985-1.239,1.861-1.247c2.236-0.02,4.474-0.006,6.71-0.006
			C64.315-0.057,64.315-0.06,64.315-0.063z"/>
	</g>
</g>
</svg>
