<?xml version="1.0" encoding="utf-8"?>
<!-- Generator: Adobe Illustrator 16.0.4, SVG Export Plug-In . SVG Version: 6.00 Build 0)  -->
<!DOCTYPE svg PUBLIC "-//W3C//DTD SVG 1.1//EN" "http://www.w3.org/Graphics/SVG/1.1/DTD/svg11.dtd">
<svg version="1.1" id="Layer_3201" xmlns="http://www.w3.org/2000/svg" xmlns:xlink="http://www.w3.org/1999/xlink" x="0px" y="0px"
	 width="128px" height="128px" viewBox="0 0 128 128" enable-background="new 0 0 128 128" xml:space="preserve">
<g>
	<path d="M96.941,78.5c0,0-9.441-32.247-32.441-36.644V-0.5h-18v59.527c0,0-12.585,11.178-15.559,23.973c0,0-27.098,9.5-30.982,44.5
		h7.052c0,0,8.779-31.676,21.372-33.25c0,0-6.68,18.25-5.106,33.25h7.606c0,0,4.25-56,22.234-60.5L54.1,93.291
		c0,0-15.542,13.209-15.542,34.209h5.361c0,0,2.581-22.037,8.581-25.335V127.5h9V93.936c0,0,19.953,9.564,19.953,33.564h6.101
		c0,0-0.054-25.963-21.054-41.358V51.437c0,0,29.515,12.063,29.515,76.063h8.302c0,0,1.886-17.542-2.735-31.629
		c-0.501-1.528-0.641-2.354,1.675,0.043c4.797,4.963,15.362,13.586,17.163,31.586h7.622C128.041,127.5,127.886,101.658,96.941,78.5z
		"/>
</g>
</svg>
