<?xml version="1.0" encoding="utf-8"?>
<!-- Generator: Adobe Illustrator 16.0.4, SVG Export Plug-In . SVG Version: 6.00 Build 0)  -->
<!DOCTYPE svg PUBLIC "-//W3C//DTD SVG 1.1//EN" "http://www.w3.org/Graphics/SVG/1.1/DTD/svg11.dtd">
<svg version="1.1" id="Layer_3202" xmlns="http://www.w3.org/2000/svg" xmlns:xlink="http://www.w3.org/1999/xlink" x="0px" y="0px"
	 width="128px" height="128px" viewBox="0 0 128 128" enable-background="new 0 0 128 128" xml:space="preserve">
<g>
	<path fill-rule="evenodd" clip-rule="evenodd" d="M71.663,127.754c-7.441,0.16-14.611,0.129-21.766-0.371
		c-6.553-0.459-13.121-0.82-19.616-1.91c-2.42-0.406-4.837-0.795-7.183-1.553c-1.117-0.359-2.082-0.902-2.863-1.779
		c-2.596-2.914-4.022-6.332-4.423-10.195c-0.129-1.245,0.099-2.416,0.535-3.6c8.694-23.599,17.363-47.208,26.039-70.814
		c0.395-1.076,0.675-2.158,0.67-3.328c-0.024-5.879-0.001-11.758-0.02-17.637c-0.006-2.001-0.039-2.001-1.95-2.213
		c-3.337-0.371-5.257-2.33-5.473-5.611c-0.052-0.786-0.103-1.578-0.062-2.363c0.191-3.694,2.486-6.053,6.182-6.149
		c2.448-0.064,4.923,0.373,7.35,0.167c3.59-0.305,7.169-0.03,10.752-0.126c8.505-0.229,17.021-0.027,25.532-0.1
		c2.739-0.024,5.084,0.495,6.427,3.133c1.513,2.972,1.387,5.939-0.348,8.769c-0.977,1.594-2.462,2.506-4.399,2.38
		c-1.422-0.093-1.814,0.591-1.807,1.888c0.036,6.142,0,12.285,0.035,18.426c0.014,2.436,1.247,4.553,2.051,6.754
		c7.991,21.898,15.914,43.824,24.197,65.613c2.17,5.711-1.104,12.953-4.42,15.746c-1.546,1.303-3.525,1.574-5.386,1.941
		c-5.761,1.137-11.604,1.703-17.454,2.152C79.979,127.307,75.686,127.51,71.663,127.754z M67.339,123.357
		c8.727-0.014,20.937-0.955,33.1-2.713c3.479-0.503,5.497-2.327,6.683-5.458c0.873-2.304,0.939-4.46,0.045-6.868
		c-7.66-20.605-15.081-41.301-22.863-61.86c-2.554-6.745-4.182-13.447-3.679-20.699c0.31-4.452,0.034-8.942,0.07-13.415
		c0.018-2.125,0.176-2.249,2.226-2.3c1.139-0.029,2.28,0.016,3.42-0.012c0.606-0.015,1.227-0.041,1.557-0.73
		c0.562-1.173,0.659-2.322,0.098-3.542c-0.536-1.164-1.556-0.981-2.487-0.983c-14.465-0.028-28.93-0.043-43.395-0.051
		c-1.577-0.001-2.323,0.801-2.363,2.44C39.713,8.624,40.584,9.892,41.805,10c1.309,0.115,2.627,0.132,3.941,0.158
		c1.052,0.021,1.647,0.469,1.671,1.569c0.012,0.613,0.074,1.226,0.074,1.839c0.003,7.017-0.012,14.033,0.007,21.049
		c0.003,1.25-0.225,2.424-0.658,3.592c-1.552,4.188-3.058,8.393-4.598,12.585c-7.127,19.399-14.265,38.795-21.388,58.196
		c-1.867,5.086,1.452,10.793,6.78,11.602C39.612,122.405,51.659,123.348,67.339,123.357z"/>
	<path fill-rule="evenodd" clip-rule="evenodd" d="M64.64,120.291c-11.775,0.111-22.761-0.98-33.733-2.261
		c-0.781-0.091-1.547-0.304-2.323-0.444c-4.067-0.737-6.046-4.23-4.609-8.13c3-8.138,5.998-16.275,8.994-24.414
		c0.795-2.159,0.791-2.188,3.183-2.192c5.343-0.009,10.687,0.018,16.03,0.02c12.719,0.004,25.437,0.001,38.155,0.002
		c0.79,0,1.582,0.066,2.367,0.011c1.334-0.094,2.021,0.469,2.472,1.754c1.771,5.04,3.653,10.04,5.492,15.057
		c1.236,3.372,2.476,6.743,3.706,10.117c1.24,3.401-0.803,7.128-4.311,7.724c-6.049,1.027-12.147,1.628-18.268,2.047
		C75.848,119.986,69.903,120.463,64.64,120.291z"/>
</g>
</svg>
