<?xml version="1.0" encoding="utf-8"?>
<!-- Generator: Adobe Illustrator 16.0.4, SVG Export Plug-In . SVG Version: 6.00 Build 0)  -->
<!DOCTYPE svg PUBLIC "-//W3C//DTD SVG 1.1//EN" "http://www.w3.org/Graphics/SVG/1.1/DTD/svg11.dtd">
<svg version="1.1" id="Layer_3205" xmlns="http://www.w3.org/2000/svg" xmlns:xlink="http://www.w3.org/1999/xlink" x="0px" y="0px"
	 width="128px" height="128px" viewBox="0 0 128 128" enable-background="new 0 0 128 128" xml:space="preserve">
<path d="M109.719,68.596c-3.14-3.646-5.346-8.039-8.99-11.279c-1.654-1.471-2.952-3.255-5.17-4.225
	c-0.549-0.24-1.019-0.56-1.491-0.922c-0.172-0.131-0.334-0.302-0.507-0.423c-0.239-0.169-0.443-0.107-0.697-0.216
	c-0.3-0.129-0.131-0.697-0.195-0.999c-0.041-0.187-0.137-0.295-0.132-0.55c0.002-0.149,0.043-0.378,0.008-0.521
	c-0.047-0.193-0.137-0.289-0.18-0.5c-0.035-0.179-0.09-0.339-0.134-0.515c-0.103-0.415-0.23-0.648-0.411-1.054
	c-0.211-0.472-0.442-1.02-0.688-1.468c-0.172-0.315-0.495-0.574-0.687-0.882c-0.238-0.383-0.356-0.817-0.641-1.166
	c-0.237-0.291-0.596-0.578-0.814-0.882c-0.263-0.367-0.419-0.824-0.679-1.203c-0.613-0.896-1.218-1.749-1.705-2.73
	c-0.213-0.426-0.472-0.794-0.726-1.194c-0.262-0.414-0.555-0.789-0.819-1.194c-0.237-0.364-0.384-0.813-0.588-1.198
	c-0.314-0.595-0.815-0.938-0.693-1.692c0.111-0.689,0.667-1.266,1.143-1.735c3.545-3.492,6.512-7.446,8.608-12
	c0.893-1.939,0.988-4.218,2.455-5.907c0.866-0.998,0.152-1.558-0.335-2.418c-0.805-1.417-1.011-3.152-3.234-3.238
	c-2.455-0.095-2.152,2.173-2.824,3.366c-0.312,0.556-0.761,1.023-1.065,1.584c-0.148,0.271-0.312,0.599-0.315,0.914
	c-0.001,0.118,0.068,0.209,0.057,0.332c-0.017,0.171-0.15,0.317-0.174,0.49c-0.027,0.217,0.004,0.466,0.004,0.686
	c0,0.474,0.004,0.784-0.174,1.189c-0.161,0.362-0.206,0.768-0.379,1.158c-0.097,0.219-0.068,0.31-0.115,0.554
	c-0.052,0.261-0.275,0.451-0.402,0.682c-0.274,0.496-0.563,1.011-0.967,1.403c-0.311,0.301-0.62,0.608-0.905,0.94
	c-0.661,0.771-1.031,1.695-1.54,2.576c-0.232,0.401-0.508,0.838-0.764,1.232c-0.124,0.191-0.23,0.207-0.384,0.329
	c-0.187,0.149-0.313,0.309-0.474,0.525c-0.514,0.692-1.039,1.363-1.57,2.034c-0.073,0.093-0.423,0.637-0.558,0.661
	c-0.194,0.034-0.225-0.207-0.299-0.315c-0.236-0.344-0.581-0.521-0.899-0.811c-0.295-0.269-0.672-0.468-0.931-0.758
	c-0.194-0.218-0.298-0.451-0.56-0.615c-0.654-0.413-1.196-0.667-1.68-1.313c-0.433-0.581-0.74-1.25-0.978-1.932
	c-0.293-0.841-0.292-1.677-0.902-2.532c-2.299-3.211-2.068-6.515,1.314-8.461c1.512-0.87,1.934-2.484,3.753-3.184
	c2.979-1.146,3.868-4.885,6.128-7.135c0.248-0.247,0.253-1.172-0.404-1.491c-0.313-0.153-0.849-0.289-1.062-0.13
	c-2.331,1.731-5.286,2.937-7.073,4.913c-1.869,2.066-4.021,3.202-6.128,4.692c-1.395,0.986-3.293,2.282-3.489,3.653
	c-0.268,1.875-1.41,1.854-2.565,1.885c-1.155-0.031-2.391-0.01-2.659-1.885c-0.196-1.371-2.142-2.667-3.535-3.653
	c-2.107-1.49-4.283-2.626-6.151-4.692c-1.788-1.976-4.754-3.182-7.084-4.913c-0.213-0.158-0.755-0.022-1.068,0.13
	c-0.657,0.319-0.656,1.244-0.408,1.491c2.26,2.25,3.147,5.989,6.127,7.135c1.819,0.699,2.239,2.313,3.751,3.184
	c3.383,1.946,3.613,5.25,1.315,8.461c-0.611,0.854-0.609,1.69-0.903,2.532c-0.238,0.682-0.545,1.351-0.979,1.932
	c-0.482,0.647-1.024,0.901-1.68,1.313c-0.26,0.165-0.364,0.397-0.559,0.615c-0.26,0.291-0.636,0.489-0.931,0.758
	c-0.318,0.29-0.663,0.467-0.899,0.811c-0.075,0.108-0.104,0.349-0.299,0.315c-0.134-0.024-0.485-0.568-0.559-0.661
	c-0.53-0.67-1.056-1.341-1.569-2.034c-0.161-0.216-0.287-0.375-0.473-0.525c-0.154-0.122-0.26-0.138-0.385-0.329
	c-0.256-0.394-0.532-0.831-0.764-1.232c-0.509-0.88-0.879-1.804-1.54-2.576c-0.286-0.332-0.595-0.639-0.905-0.94
	c-0.404-0.392-0.692-0.907-0.967-1.403c-0.127-0.231-0.351-0.42-0.402-0.682c-0.047-0.245-0.018-0.335-0.115-0.554
	c-0.172-0.39-0.219-0.795-0.378-1.158c-0.178-0.405-0.175-0.715-0.175-1.189c0-0.22,0.033-0.469,0.004-0.686
	c-0.023-0.173-0.157-0.319-0.173-0.49c-0.012-0.123,0.058-0.214,0.057-0.332c-0.004-0.315-0.167-0.643-0.314-0.914
	c-0.305-0.561-0.753-1.028-1.067-1.584c-0.671-1.193-0.368-3.46-2.824-3.366c-2.223,0.085-2.43,1.821-3.234,3.238
	c-0.488,0.86-1.202,1.42-0.334,2.418c1.466,1.688,1.562,3.967,2.456,5.907c2.097,4.554,5.063,8.508,8.607,12
	c0.476,0.469,1.031,1.046,1.143,1.735c0.122,0.754-0.379,1.098-0.694,1.692c-0.204,0.385-0.35,0.833-0.587,1.198
	c-0.265,0.406-0.559,0.78-0.821,1.194c-0.252,0.4-0.512,0.768-0.724,1.194c-0.488,0.981-1.092,1.833-1.706,2.73
	c-0.259,0.379-0.416,0.836-0.679,1.203c-0.217,0.304-0.577,0.591-0.814,0.882c-0.284,0.348-0.403,0.782-0.641,1.166
	c-0.191,0.308-0.514,0.567-0.686,0.882c-0.244,0.448-0.477,0.996-0.688,1.468c-0.18,0.406-0.309,0.639-0.412,1.054
	c-0.043,0.176-0.097,0.336-0.134,0.515c-0.042,0.21-0.132,0.306-0.179,0.5c-0.035,0.142,0.005,0.372,0.008,0.521
	c0.005,0.255-0.092,0.363-0.132,0.55c-0.064,0.301,0.105,0.869-0.195,0.999c-0.253,0.109-0.457,0.047-0.697,0.216
	c-0.171,0.121-0.335,0.292-0.506,0.423c-0.472,0.362-0.943,0.682-1.491,0.922c-2.219,0.97-3.516,2.753-5.171,4.225
	c-3.644,3.24-5.85,7.633-8.99,11.279c-2.053,2.383-2.304,6.329-0.533,8.638c0.567,0.739,1.345,0.531,2.079,0.565
	c0.885,0.041,1.61-0.292,1.354-1.257c-0.679-2.556,1.081-3.843,2.554-5.313c1.088-1.084,2.708-2.004,3.133-3.31
	c0.844-2.588,3.173-3.678,4.624-5.599c0.516-0.681,1.197-0.91,1.965-0.544c0.653,0.311,0.448,0.986,0.449,1.533
	c0.002,2.716-0.047,5.432-0.065,8.148c-0.009,1.385-0.011,2.771,0.008,4.156c0.008,0.626,0.072,1.274-0.009,1.893
	c-0.032,0.244-0.049,0.306,0.011,0.557c0.064,0.271,0.042,0.486,0.076,0.758c0.046,0.373,0.183,0.599,0.175,1.02
	c-0.004,0.253,0.095,0.366,0.133,0.55c0.033,0.162,0.001,0.313,0.027,0.476c0.069,0.4,0.198,0.882,0.31,1.234
	c0.102,0.321,0.325,0.672,0.392,0.974c-0.006,0.118-0.012,0.239-0.019,0.359c0.012,0.092,0.059,0.159,0.142,0.199
	c0.035,0.168,0.04,0.296,0.038,0.474c-0.005,0.402-0.02,0.726,0.129,1.065c0.114,0.263,0.252,0.522,0.356,0.768
	c-0.203,0.291-0.59,0.232-0.831,0.418c-0.263,0.204-0.372,0.5-0.674,0.654c-0.181,0.092-0.283,0.077-0.469,0.209
	c-0.129,0.09-0.257,0.17-0.393,0.256c-0.181,0.116-0.288,0.298-0.444,0.438c-0.071,0.063-0.135,0.153-0.222,0.196
	c-0.087,0.046-0.132-0.093-0.21-0.06c-0.253,0.115-0.535,0.483-0.765,0.659c-0.463,0.356-1.12,0.774-1.073,1.443
	c0.262,3.721-2.25,6.431-3.193,9.695c-0.389,1.35-0.762,3.311-0.245,3.762c2.204,1.925,2.532,4.883,4.356,6.931
	c0.619,0.695,2.028,1.278,2.234-0.058c0.219-1.425-0.092-2.817-0.093-4.235c0-0.202,0.035-0.452,0.004-0.652
	c-0.024-0.154-0.112-0.261-0.137-0.371c-0.101-0.451,0.11-0.758,0.137-1.194c0.028-0.466-0.109-0.731-0.184-1.157
	c-0.074-0.42,0.009-0.947,0.009-1.373c0-0.853-0.218-1.572-0.037-2.389c0.09-0.408,0.161-0.816,0.25-1.232
	c0.104-0.485,0.351-0.801,0.469-1.272c0.105-0.42,0.19-0.836,0.342-1.24c0.077-0.204,0.197-0.866,0.371-0.993
	c0.138-0.103,0.334-0.008,0.486-0.025c0.17-0.021,0.255-0.112,0.375-0.138c0.362-0.078,1.106-0.144,1.436,0.057
	c0.449,0.271,1.008,1.135,1.222,1.606c0.142,0.312,0.201,0.702,0.333,1.033c0.113,0.285,0.249,0.55,0.341,0.849
	c0.194,0.632,0.347,1.301,0.55,1.873c0.118,0.334,0.272,0.683,0.351,1.027c0.094,0.407,0.255,0.787,0.336,1.198
	c0.054,0.276,0.115,0.534,0.208,0.812c0.027,0.081,0.132,0.24,0.174,0.337c0.04,0.093,0.088,0.312,0.125,0.389
	c0.292,0.602,0.595,1.28,0.895,1.872c0.167,0.329,0.252,0.46,0.341,0.815c0.053,0.212,0.223,0.545,0.266,0.757
	c0.034,0.167,0.013,0.311,0.034,0.479c0.023,0.186,0.102,0.237,0.138,0.374c0.217,0.823,0.624,1.55,0.93,2.345
	c0.632,1.642,0.33,3.722,1.831,5.004c2.149,1.839,3.234,4.445,4.893,6.638c3.067,1.47,4.551,5.83,8.937,4.895
	c1.721,1.169,3.406,1.188,5.081,0.839c1.155,0.349,3.267,0.33,4.988-0.839c4.386,0.936,5.775-3.425,8.843-4.895
	c1.658-2.192,2.743-4.799,4.894-6.638c1.5-1.282,1.199-3.362,1.83-5.004c0.307-0.795,0.714-1.521,0.93-2.345
	c0.036-0.137,0.116-0.188,0.138-0.374c0.021-0.169,0-0.312,0.033-0.479c0.044-0.212,0.213-0.545,0.266-0.757
	c0.09-0.355,0.175-0.486,0.341-0.815c0.3-0.592,0.604-1.271,0.896-1.872c0.036-0.077,0.084-0.296,0.124-0.389
	c0.042-0.097,0.147-0.256,0.175-0.337c0.093-0.277,0.154-0.535,0.208-0.812c0.08-0.411,0.243-0.791,0.337-1.198
	c0.078-0.345,0.233-0.693,0.351-1.027c0.202-0.572,0.356-1.241,0.549-1.873c0.093-0.299,0.229-0.563,0.341-0.849
	c0.133-0.331,0.191-0.722,0.333-1.033c0.216-0.472,0.773-1.335,1.224-1.606c0.328-0.2,1.073-0.135,1.436-0.057
	c0.12,0.025,0.205,0.117,0.374,0.138c0.152,0.018,0.349-0.077,0.487,0.025c0.174,0.127,0.294,0.789,0.37,0.993
	c0.152,0.404,0.237,0.82,0.342,1.24c0.118,0.472,0.366,0.787,0.469,1.272c0.089,0.416,0.16,0.824,0.251,1.232
	c0.181,0.816-0.037,1.536-0.037,2.389c0,0.426,0.082,0.953,0.008,1.373c-0.074,0.426-0.212,0.691-0.182,1.157
	c0.025,0.437,0.237,0.743,0.137,1.194c-0.026,0.11-0.114,0.217-0.137,0.371c-0.032,0.2,0.004,0.45,0.004,0.652
	c-0.002,1.418-0.312,2.811-0.094,4.235c0.206,1.336,1.615,0.753,2.233,0.058c1.824-2.048,2.152-5.006,4.357-6.931
	c0.517-0.451,0.144-2.412-0.246-3.762c-0.942-3.265-3.453-5.975-3.192-9.695c0.047-0.669-0.609-1.087-1.072-1.443
	c-0.23-0.176-0.512-0.544-0.766-0.659c-0.077-0.033-0.123,0.105-0.209,0.06c-0.087-0.043-0.152-0.133-0.223-0.196
	c-0.155-0.141-0.262-0.322-0.444-0.438c-0.136-0.086-0.263-0.166-0.393-0.256c-0.187-0.132-0.289-0.117-0.47-0.209
	c-0.302-0.154-0.41-0.45-0.674-0.654c-0.239-0.186-0.628-0.127-0.83-0.418c0.103-0.245,0.241-0.505,0.356-0.768
	c0.148-0.34,0.135-0.663,0.129-1.065c-0.002-0.178,0.002-0.306,0.038-0.474c0.083-0.04,0.13-0.107,0.142-0.199
	c-0.006-0.12-0.013-0.241-0.02-0.359c0.067-0.302,0.292-0.652,0.393-0.974c0.112-0.353,0.242-0.834,0.31-1.234
	c0.027-0.162-0.004-0.313,0.028-0.476c0.038-0.184,0.137-0.297,0.132-0.55c-0.008-0.421,0.129-0.646,0.176-1.02
	c0.033-0.271,0.011-0.486,0.075-0.758c0.061-0.251,0.042-0.312,0.011-0.557c-0.081-0.618-0.018-1.267-0.009-1.893
	c0.019-1.386,0.018-2.771,0.008-4.156c-0.019-2.717-0.068-5.433-0.065-8.148c0.001-0.547-0.204-1.222,0.449-1.533
	c0.768-0.366,1.449-0.137,1.964,0.544c1.451,1.92,3.779,3.011,4.623,5.599c0.427,1.306,2.046,2.226,3.134,3.31
	c1.474,1.471,3.233,2.758,2.555,5.313c-0.257,0.965,0.469,1.298,1.354,1.257c0.734-0.034,1.512,0.174,2.078-0.565
	C112.023,74.925,111.771,70.979,109.719,68.596z"/>
</svg>
