<?xml version="1.0" encoding="utf-8"?>
<!-- Generator: Adobe Illustrator 16.0.4, SVG Export Plug-In . SVG Version: 6.00 Build 0)  -->
<!DOCTYPE svg PUBLIC "-//W3C//DTD SVG 1.1//EN" "http://www.w3.org/Graphics/SVG/1.1/DTD/svg11.dtd">
<svg version="1.1" id="Layer_3207" xmlns="http://www.w3.org/2000/svg" xmlns:xlink="http://www.w3.org/1999/xlink" x="0px" y="0px"
	 width="128px" height="128px" viewBox="0 0 128 128" enable-background="new 0 0 128 128" xml:space="preserve">
<g>
	<path d="M102.241,71.451c0-12.075-0.006-24.149,0.006-36.224c0.002-2.338,0.188-4.68,0.089-7.012
		c-0.228-5.358-2.315-9.692-7.425-11.997c-1.31-0.591-1.565-1.318-1.56-2.583c0.045-7.841,0.028-1.72,0.022-9.562
		c-0.002-3.098-0.583-3.685-3.615-3.685c-16.695-0.003-33.39-0.002-50.086-0.002c-0.569,0-1.139-0.016-1.708,0.012
		c-1.585,0.079-2.264,0.69-2.468,2.29c-0.08,0.624-0.048,1.262-0.048,1.894c-0.003,7.651-0.037,1.342,0.028,8.993
		c0.012,1.383-0.369,2.096-1.679,2.704c-1.869,0.867-3.758,1.921-4.852,3.785c-1.794,3.056-2.782,6.347-2.488,9.953
		c0.102,1.257,0.106,2.525,0.107,3.789c0.005,24.661,0.004,49.323-0.001,73.982c0,1.138-0.01,2.277-0.095,3.411
		c-0.296,3.946,0.354,7.669,2.404,11.112c0.497,0.833,1.048,1.603,1.847,2.12c3.068,1.989,6.286,3.221,10.105,3.188
		c15.556-0.132,31.115-0.054,46.672-0.058c1.073,0,2.158,0.048,3.221-0.074c3.249-0.373,6.271-1.674,8.319-4.081
		c2.165-2.542,3.395-5.745,3.324-9.271c-0.076-3.729-0.11-7.46-0.116-11.189C102.23,92.447,102.24,81.95,102.241,71.451z M91.5,73.5
		h-55v-31h55V73.5z"/>
</g>
</svg>
