<?xml version="1.0" encoding="utf-8"?>
<!-- Generator: Adobe Illustrator 16.0.4, SVG Export Plug-In . SVG Version: 6.00 Build 0)  -->
<!DOCTYPE svg PUBLIC "-//W3C//DTD SVG 1.1//EN" "http://www.w3.org/Graphics/SVG/1.1/DTD/svg11.dtd">
<svg version="1.1" id="Layer_3209" xmlns="http://www.w3.org/2000/svg" xmlns:xlink="http://www.w3.org/1999/xlink" x="0px" y="0px"
	 width="128px" height="128px" viewBox="0 0 128 128" enable-background="new 0 0 128 128" xml:space="preserve">
<g id="q2cdYO.tif">
	<g>
		<path fill-rule="evenodd" clip-rule="evenodd" d="M31.07,82.135c0-11.618-0.001-23.237,0.001-34.855
			c0-0.941,0.016-1.884,0.041-2.826c0.03-1.134,0.546-1.465,1.621-1.026c11.43,4.656,23.463,4.87,35.523,4.686
			c6.804-0.104,13.569-0.791,20.216-2.392c2.246-0.542,4.445-1.212,6.534-2.186c1.452-0.677,1.909-0.127,1.901,1.266
			c-0.004,0.942,0.02,1.884,0.019,2.826c-0.002,7.719-0.015,15.437-0.009,23.158c0.011,15.99-0.014,31.979,0.095,47.97
			c0.017,2.509-1.491,3.558-3.254,4.492c-2.99,1.584-6.28,2.358-9.58,2.886c-14.377,2.298-28.746,2.369-43.064-0.544
			c-2.574-0.523-5.057-1.359-7.382-2.582c-1.881-0.989-2.778-2.358-2.744-4.762c0.166-12.036,0.076-24.074,0.076-36.111
			C31.066,82.135,31.068,82.135,31.07,82.135z M87.821,82.464c0.005,0,0.009,0,0.015,0c0-6.595,0.011-13.19-0.006-19.786
			c-0.007-2.826-0.023-2.798-2.589-2.006c-1.196,0.369-2.419,0.781-3.651,0.875c-5.605,0.423-11.158,1.285-16.823,1.225
			c-7.647-0.081-15.22-0.539-22.667-2.296c-1.453-0.343-1.867-0.101-1.808,1.323c0.039,0.937-0.114,1.881-0.116,2.821
			c-0.014,8.167-0.017,16.335-0.017,24.502c0,4.503,0.095,9.01-0.024,13.51c-0.051,1.922,0.732,2.947,2.454,3.459
			c0.6,0.18,1.197,0.373,1.804,0.523c8.848,2.189,17.857,2.115,26.862,1.724c4.275-0.187,8.562-0.618,12.726-1.779
			c3.539-0.987,3.836-1.348,3.84-4.928C87.825,95.241,87.821,88.853,87.821,82.464z"/>
		<path fill-rule="evenodd" clip-rule="evenodd" d="M63.855,0.192c3.457,0,6.913-0.006,10.369,0.002
			c1.269,0.003,2.621-0.122,2.578,1.812c-0.019,0.858,0.658,1.224,1.336,1.569C88.686,8.96,93.453,18.284,95.599,29.349
			c0.556,2.873,0.808,5.804,1.341,8.683c0.359,1.935-0.725,2.964-2.079,3.837c-2.047,1.319-4.353,2.06-6.695,2.629
			c-10.685,2.598-21.543,2.942-32.455,2.317c-5.332-0.306-10.628-0.963-15.821-2.28c-2.343-0.594-4.625-1.367-6.7-2.626
			c-1.641-0.996-2.406-2.26-2.052-4.431c0.823-5.053,1.071-10.192,2.695-15.115c2.771-8.399,7.457-15.173,15.703-19.04
			c0.554-0.26,1.392-0.436,1.457-1.08c0.233-2.326,1.873-2.057,3.437-2.048c3.143,0.015,6.284,0.004,9.426,0.004
			C63.855,0.196,63.855,0.194,63.855,0.192z M34.006,33.47c-0.15,1.465,0.504,1.53,1.675,1.055c2.231-0.904,4.548-1.601,6.92-1.993
			c16.789-2.78,33.491-3.19,49.942,2.093c1.199,0.385,1.586,0.076,1.375-1.098c-0.371-2.057-0.671-4.133-1.174-6.158
			c-1.862-7.481-5.133-14.149-11.402-18.98c-1.743-1.344-3.443-3.087-5.984-1.509c-0.305,0.19-0.821,0.047-1.238,0.047
			c-6.695,0.003-13.392,0.01-20.087-0.003c-0.724-0.001-1.806,0.159-2.11-0.231c-1.373-1.761-2.525-0.618-3.724,0.074
			c-2.852,1.646-5.203,3.869-7.137,6.51C36.662,19.284,34.859,26.216,34.006,33.47z M63.713,34.417
			c-4.764-0.176-9.766,0.144-14.751,0.757c-2.804,0.345-5.612,0.752-8.175,2.017c-1.528,0.753-1.509,1.664,0.029,2.414
			c1.793,0.875,3.75,1.29,5.71,1.603c10.81,1.726,21.655,1.626,32.496,0.417c2.787-0.311,5.608-0.781,8.17-2.045
			c1.507-0.744,1.486-1.665-0.022-2.414c-1.403-0.697-2.921-1.12-4.47-1.401C76.508,34.638,70.26,34.267,63.713,34.417z"/>
	</g>
</g>
</svg>
