<?xml version="1.0" encoding="utf-8"?>
<!-- Generator: Adobe Illustrator 16.0.4, SVG Export Plug-In . SVG Version: 6.00 Build 0)  -->
<!DOCTYPE svg PUBLIC "-//W3C//DTD SVG 1.1//EN" "http://www.w3.org/Graphics/SVG/1.1/DTD/svg11.dtd">
<svg version="1.1" id="Layer_3211" xmlns="http://www.w3.org/2000/svg" xmlns:xlink="http://www.w3.org/1999/xlink" x="0px" y="0px"
	 width="128px" height="128px" viewBox="0 0 128 128" enable-background="new 0 0 128 128" xml:space="preserve">
<g>
	<path d="M100.548,39.906c-0.002-1.271-0.316-2.46-1.047-3.531c-2.175-3.188-5.265-5.312-8.605-7.008
		c-1.176-0.596-1.793-1.058-1.622-2.369c0.142-1.081-0.505-2.687,0.361-3.146c1.275-0.676,1.195-2.458,2.847-2.746
		c0.779-0.136,0.821-1.463,0.278-1.956c-1.12-1.015-0.91-2.229-0.882-3.428c0.026-1.149-0.116-2.163-0.957-3.056
		c-0.895-0.948-0.836-2,0.02-2.985c0.561-0.647,0.936-1.348,0.922-2.245c-0.028-1.803-0.04-3.606-0.003-5.408
		c0.023-1.158-0.564-1.635-1.634-1.674c-0.623-0.022-1.249-0.032-1.872-0.033c-8.936-0.008-17.87-0.019-26.807-0.019
		c-6.933,0-13.867,0.017-20.801,0.02c-4.626,0.003-4.322-0.279-4.315,4.257c0.002,1.989-0.29,4.02,1.291,5.699
		c0.561,0.596,0.433,1.508-0.143,2.108c-1.12,1.169-1.235,2.561-1.163,4.051c0.044,0.884,0.001,1.658-0.787,2.416
		c-1.027,0.987-0.718,1.974,0.687,2.478c0.629,0.227,0.718,0.762,1.085,1.049c1.789,1.397,1.312,3.317,1.395,5.133
		c0.041,0.884-0.253,1.403-1.118,1.72c-1.835,0.674-3.518,1.691-5.019,2.908c-2.875,2.333-4.931,5.071-4.976,9.111
		c-0.121,10.814-0.642,21.624-0.547,30.261c-0.085,14.939-0.079,27.699,0.929,40.429c0.328,4.132,0.65,8.294,2.095,12.253
		c1.094,2.999,1.773,3.499,5.045,3.5c19.137,0.001,38.275,0.001,57.411-0.003c3.524-0.001,4.74-0.944,5.858-4.358
		c1.045-3.192,1.375-6.508,1.643-9.814c0.397-4.905,0.407-9.832,0.549-14.752C101.233,79.146,100.58,59.526,100.548,39.906z
		 M88.851,75.9c-0.019,4.463-0.006,8.927-0.015,13.393c0,0.49,0.1,0.992-0.194,1.472c-0.608,0.593-1.5,0.435-2.308,0.437
		c-8.764,0.01-17.525,0.005-26.289,0.007c-0.828,0-3.688,0.01-4.334,0.008c-4.8-0.02-9.602-0.012-14.402-0.017
		c-0.721-0.002-1.494,0.092-1.962-0.48c-0.305-1.214-0.243-39.24,0.063-40.133c0.514-0.461,1.235-0.356,1.895-0.357
		c4.175-0.011,8.35-0.004,12.525-0.01c0.668,0,3.545-0.004,4.372-0.004c9.081,0.005,18.161,0,27.242,0.006
		c0.883,0,1.771-0.052,2.556,0.072c0.844,0.295,0.842,0.798,0.84,1.305c-0.002,1.718,0.004,3.436,0.004,5.154
		c0.002,3.435-0.007,6.871,0.011,10.307C88.855,67.488,88.854,75.431,88.851,75.9z"/>
</g>
</svg>
