<?xml version="1.0" encoding="utf-8"?>
<!-- Generator: Adobe Illustrator 16.0.4, SVG Export Plug-In . SVG Version: 6.00 Build 0)  -->
<!DOCTYPE svg PUBLIC "-//W3C//DTD SVG 1.1//EN" "http://www.w3.org/Graphics/SVG/1.1/DTD/svg11.dtd">
<svg version="1.1" id="Layer_3212" xmlns="http://www.w3.org/2000/svg" xmlns:xlink="http://www.w3.org/1999/xlink" x="0px" y="0px"
	 width="128px" height="128px" viewBox="0 0 128 128" enable-background="new 0 0 128 128" xml:space="preserve">
<g id="QtyzYb.tif">
	<g>
		<path fill-rule="evenodd" clip-rule="evenodd" d="M94.483,75.755c-1.812,0.048-3.708,0.353-5.086-1.833
			c2.343-1.025,4.021-2.854,6.527-3.724c4.051-1.411,5.416-5.064,6.04-9.111c-1.956,2.86-3.545,6.225-8.163,5.168
			c1.216-2.124,2.332-4.071,3.367-5.881c-0.03-1.317-1.182-0.672-1.614-1.256c-1.055-4.065,2.624-7.03,2.773-11.163
			c-1.479,0.681-1.365,2.692-3.473,2.986c-3.33-3.054,0.244-7.764-2.118-11.627c-1.176,1.439-0.325,3.703-2.624,4.364
			c-2.726-0.912-3.1-4.188-5.009-6.367c-4.462-2.626-8.026-0.185-11.647,2.41c-1.423,2.706-2.364,5.438-0.211,8.36
			c3.27-4.633,7.219-6.188,12.18-4.868c3.559,0.948,5.876,4.236,6.411,9.243c-1.531,1.39-3.266,1.087-5.01,0.687
			c-0.902-3.592,2.312-1.339,3.058-2.455c-2.86-5.245-4.835-6.25-9.736-4.983c-0.337,0.227-0.364,0.466-0.048,0.669
			c1.825,1.176,3.145,2.719,2.292,4.972c-0.862,2.275-2.97,2.946-5.215,3.079c-3.352,0.2-6.999-2.194-8.369-5.624
			c-1.97-4.929-1.851-9.76,1.104-14.331c0.775-1.2,1.612-2.36,2.44-3.524c3.025-4.243,2.952-7.073-0.319-11.231
			c-0.424-0.54-1.176-0.866-1.076-1.728c4.191-0.842,5.198,0.117,6.648,6.494c1.964-1.307,1.113-2.889,0.708-4.433
			c-0.391-1.49-1.47-2.805-1.141-4.702c1.727-0.944,2.771,0.44,4.043,1.171c0.484,1.576,0.938,3.051,1.417,4.609
			c3.408-3.592,3.136-7.221-0.685-11.016c-3.089-1.264-5.118,0.438-7.003,2.858c-1.936-2.031-1.048-3.581,0.352-4.916
			c2.984-2.85,8.169-2.06,10.937,1.578c3.542,4.655,2.367,12.196-2.558,16.116c-2.657,2.116-5.538,3.992-7.154,7.144
			c-0.571,0.012-0.847,0.292-0.791,0.872l-0.264,0.084l0.187-0.156c0.46-0.112,0.808-0.329,0.799-0.87
			c1.781-0.468,3.544-1.032,5.349-1.384c5.439-1.064,10.213,0.279,14.08,4.307c1.812,1.89,3.622,3.43,6.417,3.854
			c2.692,0.408,4.168,2.854,5.791,4.805c1.427,1.712,2.617,3.622,3.901,5.428c-0.543,1.215-1.95-0.046-2.731,1.148
			c2.357,2.347,3.574,5.619,6.176,7.839c-1.079,1.693-2.351-0.256-3.511,0.432c1.189,2.504,4.471,2.799,5.744,5.37
			c-1.235,1.892-3.175,0.306-4.912,1.131c2.312,1.264,4.438,2.088,6.8,2.016c1.021-1.525-0.499-2.636-0.356-3.101
			c0.396-2,2.008-2.687,1.427-4.18c4.436-0.691,6.794,0.535,7.238,3.727c0.523,3.769-2.702,8.013-6.613,7.904
			c-4.752-0.134-9.326-1.328-12.668-5.196c-0.453-0.525-0.633-1.3-1.711-1.619c-1.638,5.676-3.922,11.106-7.145,16.1
			c-1.389,2.153-2.874,4.25-4.191,6.447c-2.237,3.73-2.343,5.611-0.791,9.695c-3.267,0.517-3.625,0.086-5.003-6.572
			c-4.34,4.772-8.825,8.842-9.626,15.301c-0.352,2.827,0.98,5.249,2.598,7.779c2.568-0.449,5.143,0.482,7.546-0.108
			c1.932,1.778-0.14,2.62-0.584,4.104c2.585-0.352,4.322-2.31,6.468-2.901c1.979,1.602-0.128,2.988,0.12,4.402
			c-0.71-0.002-1.349,0.127-1.646,0.888c-0.259,0.07-0.517,0.143-0.351,0.096c-0.16,0.106,0.055-0.035,0.27-0.177
			c0.608-0.189,1.36-0.111,1.663-0.881c2.399-1.023,2.975-2.055,2.415-4.232c-0.311-1.209-1.488-2.052-1.439-3.386
			c0.493-1.262,1.536-1.005,2.487-0.984c0.119,0.142,0.239,0.285,0.248,0.295c-0.015-0.008-0.177-0.104-0.339-0.2
			c-0.967-1.04-2.894-0.593-3.447-2.211c-0.698-1.21,0.345-2.068,0.922-3.047c-1.742-0.57-2.772,0.14-3.427,0.551
			c-0.761,0.842-0.39,1.116-0.126,1.443c1.355,1.683,1.351,1.687,0.533,3.927c-1.95,0.766-3.278-0.124-4.226-1.76
			c-0.918-1.587-0.311-3.059,0.636-4.386c2.479-3.476,7.381-3.999,10.522-1.106c4.828,4.445,5.579,12.017-1.16,16.341
			c-7.485,4.801-15.854,2.841-20.017-4.98c-4.031-7.573-2.891-15.594,3.191-23.06c2.712-3.327,5.856-6.218,8.912-9.203
			c0.438-0.18,0.766-0.456,0.842-0.954c0.777-0.133,1.537-0.29,1.222-1.735c-0.378,0.608-0.754,1.217-1.13,1.825
			c-0.423,0.195-0.795,0.432-0.847,0.954c-1.022-0.183-1.953,0.22-2.92,0.433c-1.454,0.323-2.835,0.278-3.804-1.109
			c2.195-3.502,5.905-5.072,9.165-7.216c0.419,0.056,0.905,0.25,1.041-0.448C94.909,75.135,94.647,75.367,94.483,75.755z"/>
		<path fill-rule="evenodd" clip-rule="evenodd" d="M37.839,117.824c0.083-1.19-1.791-2.123-0.242-3.684c2.423,0,5.077,0,7.643,0
			c3.032-4.088,3.585-8.228,1.273-12.596c-2.008-3.794-4.846-6.942-8.01-10.434c-1.374,2.839-0.378,7.017-5.473,7.013
			c2.623-4.875,0.71-8.658-1.958-12.385c-4.43-6.189-7.901-12.874-10.04-21.06c-2.623,5.109-7.137,6.388-11.724,7.389
			c-2.944,0.642-5.758,0.218-7.59-2.574c-1.372-2.089-2.33-4.343-1.01-6.826c1.381-2.598,3.696-2.84,6.641-2.233
			c-0.172,1.317,0.655,2.389,1.27,3.269c0.199,1.432-0.861,2.401-0.403,3.837c2.448,0.88,4.408-0.59,6.83-1.564
			c-1.574-0.896-3.113,0.344-4.474-0.996c0.628-2.97,4.43-3.041,5.625-5.611c-1.129-0.689-2.392,0.991-3.646-0.36
			c2.694-2.123,3.548-5.641,6.202-7.75c-0.634-1.455-1.982-0.064-2.607-0.987c-0.02-0.236-0.156-0.605-0.042-0.718
			c2.239-2.216,3.479-5.214,5.831-7.354c1.496-1.362,2.901-2.658,5.105-2.818c1.607-0.116,2.934-1.098,3.977-2.323
			c5.23-6.138,11.642-7.195,18.966-4.498c0.515,0.189,1.104,0.171,1.659,0.25c-0.038,0.591,0.335,0.775,0.829,0.842
			c0.308,0.305,0.615,0.611,0.922,0.916c0.254,0.276,0.507,0.552,0.76,0.827l0.226,0.213l-0.305-0.138
			c-0.254-0.274-0.508-0.547-0.762-0.821c-0.308-0.307-0.614-0.614-0.921-0.921c-0.028-0.52-0.319-0.788-0.821-0.85
			c-1.775-3.019-4.557-5-7.246-7.092c-4.942-3.845-6.091-11.48-2.475-16.103c2.885-3.686,7.894-4.404,10.895-1.483
			c1.258,1.225,2.21,2.646,0.815,4.397c-1.426,0.243-1.665-1.034-2.392-1.592c-2.88-2.21-5.872-1.562-7.328,1.779
			c-1.272,2.918-1.259,5.782,1.16,8.563c1.308-1.438,0.978-3.355,1.891-4.622c0.97-1.044,2.05-1.64,3.6-1.538
			c1.575,3.122-3.196,6.23-0.232,9.6c1.772-6.665,2.183-7.085,6.676-6.985c0.292,1.572-1.25,2.085-1.858,3.123
			c-1.915,3.265-2.247,6.407,0.153,9.575c1.036,1.366,2.049,2.752,2.979,4.189c2.883,4.444,2.877,9.211,1.13,13.977
			c-1.438,3.921-5.851,6.401-9.529,5.728c-4.403-0.806-5.537-3.8-2.783-7.359c0.25-0.323,0.55-0.607,0.84-0.923
			c-4.414-1.803-6.784-0.681-9.707,4.568c0.696,1.265,1.857-0.305,2.633,0.427c0.439,0.396,0.696,0.864,0.376,1.82
			c-1.53,1.004-3.171,0.854-4.811-0.242c0.033-4.569,2.405-8.196,6.027-9.325c4.743-1.478,9.036,0.114,12.376,4.736
			c2.123-2.719,1.223-5.307,0.111-7.834c-5.324-4.317-7.368-4.788-12.018-2.809c-1.665,2.047-2.254,4.951-4.794,6.348
			c-1.834-1.595-1.834-1.595-2.499-4.398c-2.917,3.57,0.981,8.363-2.197,11.49c-1.274,0.183-1.786-0.518-2.24-1.26
			c-0.341-0.557-0.402-1.345-1.461-1.451c0.221,3.875,3.686,6.889,2.897,10.938c-0.638,0.297-1.221,0.568-1.82,0.849
			c0.833,2.315,2.365,4.178,3.697,6.473c-4.471,0.906-6.141-2.051-7.996-4.904c0.02,3.774,2.215,7.367,5.244,8.699
			c0.907,0.398,1.983,0.506,2.778,1.047c1.369,0.931,2.566,2.115,4.542,2.647c-2.201,2.421-4.3,2.199-6.662,1.522
			c4.097,1.665,7.797,3.571,10.359,7.558c-1.617,2.622-4.268,0.469-6.555,0.512c-0.147-0.43-0.266-0.506-0.299-0.225
			c-0.004,0.032,0.248,0.093,0.38,0.142c2.219,2.972,5.444,4.96,7.679,7.945c1.279,1.709,2.563,3.39,3.694,5.214
			c4.3,6.933,3.793,13.791-0.168,20.607c-5.6,9.639-18.278,6.578-22.458,0.525c-3.249-4.705-1.118-12.211,4.069-14.589
			c2.654-1.215,6.587-0.19,8.445,2.261c0.979,1.294,1.658,2.723,0.808,4.354c-0.875,1.682-2.156,2.611-4.224,1.963
			c-1.799-1.923-0.323-3.265,0.95-4.538c-0.869-1.356-1.921-1.791-3.667-1.205c1.125,1.833,1.032,3.45-1.246,4.387
			c0.766,1.098,1.028,2.174,0.085,3.344c-0.842,1.044-1.073,2.304-0.856,3.638c0.234,1.459,0.894,2.391,2.557,2.124
			c0.228,0.981,1.076,0.67,1.704,0.818l0.158,0.243l-0.236-0.163c-0.397-0.601-0.96-0.873-1.674-0.841
			c-0.117-1.32-1.569-2.494-0.309-4.137c2.476-0.381,3.838,2.73,6.367,2.361c0.004,0.345,0.129,0.471,0.373,0.374
			C38.322,117.854,38.176,117.752,37.839,117.824z M33.511,81.868c-0.073-0.175-0.146-0.349-0.158-0.377
			c0.016,0.017,0.134,0.152,0.254,0.288c0.073,0.05,0.147,0.1,0.22,0.151C33.722,81.909,33.617,81.888,33.511,81.868z
			 M28.095,111.363c-0.417-0.284-0.692-0.118-0.892,0.284C27.641,111.995,27.833,111.565,28.095,111.363z"/>
		<path fill-rule="evenodd" clip-rule="evenodd" d="M68.742,9.601c0.073,2.874-2.167,5.218-5.03,5.262
			c-2.645,0.041-4.966-2.091-5.157-4.739c-0.2-2.753,2.115-5.384,4.848-5.513C66.162,4.48,68.668,6.824,68.742,9.601z"/>
	</g>
</g>
</svg>
