<?xml version="1.0" encoding="utf-8"?>
<!-- Generator: Adobe Illustrator 16.0.4, SVG Export Plug-In . SVG Version: 6.00 Build 0)  -->
<!DOCTYPE svg PUBLIC "-//W3C//DTD SVG 1.1//EN" "http://www.w3.org/Graphics/SVG/1.1/DTD/svg11.dtd">
<svg version="1.1" id="Layer_3215" xmlns="http://www.w3.org/2000/svg" xmlns:xlink="http://www.w3.org/1999/xlink" x="0px" y="0px"
	 width="128px" height="128px" viewBox="0 0 128 128" enable-background="new 0 0 128 128" xml:space="preserve">
<g id="qSY4DD.tif">
	<g>
		<path d="M123.537,0.909c0,0.087,0,0.174,0,0.261c-0.17,0.186-0.183,0.432-0.244,0.657c-1.266,4.69-2.618,9.354-4.062,13.993
			c-0.145,0.458-0.346,0.648-0.849,0.668c-3.646,0.149-7.27,0.543-10.872,1.124c-1.307,0.21-2.612,0.426-3.917,0.641
			c-0.081,0.014-0.178-0.014-0.235,0.074c0.085,0.011,0.17,0.029,0.256,0.031c2.453,0.071,4.899,0.252,7.339,0.524
			c2.113,0.235,4.222,0.504,6.314,0.875c0.608,0.107,0.613,0.122,0.416,0.69c-0.823,2.377-1.685,4.741-2.603,7.084
			c-2.781,7.11-6.052,13.978-10.174,20.418c-3.946,6.165-8.574,11.745-14.163,16.502c-0.362,0.308-0.657,0.43-1.154,0.262
			c-2.177-0.739-4.382-1.389-6.614-1.941c-3.225-0.796-6.481-1.408-9.788-1.773c-1.855-0.205-3.717-0.354-5.58-0.454
			c-1.908-0.103-3.82-0.134-5.73-0.194c-0.082-0.002-0.165,0.026-0.248,0.039c0.044,0.103,0.146,0.077,0.224,0.096
			c1.473,0.368,2.947,0.727,4.405,1.151c6.194,1.807,12.231,4.03,18.041,6.852c0.168,0.082,0.433,0.104,0.452,0.313
			c0.021,0.22-0.246,0.276-0.4,0.378c-1.797,1.184-3.668,2.239-5.587,3.209c-7.369,3.72-15.212,5.803-23.384,6.729
			c-3.324,0.378-6.664,0.562-10.012,0.532c-0.396-0.005-0.626,0.126-0.827,0.466c-0.848,1.438-1.727,2.862-2.584,4.298
			c-0.118,0.195-0.383,0.409-0.251,0.623c0.093,0.152,0.406,0.057,0.621,0.057c3.346,0.004,6.691-0.002,10.037,0.006
			c1.252,0.004,2.055,0.728,2.083,1.933c0.035,1.563,0.036,3.129-0.003,4.692c-0.029,1.151-0.828,1.875-1.977,1.889
			c-0.478,0.007-0.956,0-1.434,0.002c-0.602,0.005-0.608,0.007-0.61,0.606c-0.003,1.717-0.008,3.433,0.002,5.149
			c0.005,1.111-0.162,1,1.008,1.004c2.781,0.006,5.562-0.028,8.342,0.012c2.729,0.04,4.862,1.883,5.278,4.572
			c0.302,1.951,0.505,3.916,0.742,5.875c0.477,3.92,0.939,7.843,1.422,11.763c0.269,2.193-0.75,3.964-2.708,4.642
			c-0.264,0.092-0.535,0.162-0.803,0.242c-18.554,0-37.108,0-55.662,0c-0.129-0.094-0.288-0.084-0.433-0.122
			c-1.611-0.422-2.652-1.423-3.05-3.051c-0.151-0.619-0.097-1.255-0.027-1.881c0.162-1.445,0.344-2.889,0.518-4.33
			c0.518-4.288,1.04-8.574,1.551-12.862c0.271-2.277,1.829-4.103,4.034-4.684c0.549-0.145,1.112-0.176,1.679-0.176
			c2.802,0.002,5.605,0.002,8.408,0c0.301,0,0.605,0.054,0.601-0.438c-0.019-1.977-0.014-3.954-0.003-5.931
			c0.001-0.33-0.145-0.402-0.434-0.395c-0.499,0.015-1.002-0.027-1.498,0.011c-1.358,0.105-2.158-1.021-2.122-2.092
			c0.048-1.453,0.011-2.91,0.012-4.365c0-0.217,0.004-0.433,0.064-0.646c0.264-0.925,0.965-1.419,2.077-1.421
			c5.366-0.004,10.732,0,16.099-0.004c0.561-0.002,1.198,0.184,1.663-0.084c0.442-0.256,0.604-0.878,0.889-1.338
			c9.315-15.103,20.16-29.028,32.309-41.946c9.261-9.847,19.186-18.959,30.061-27.012c0.149-0.11,0.362-0.177,0.36-0.42
			c0.112,0.019,0.224,0.022,0.314-0.066c0.047-0.059,0.094-0.119,0.141-0.179l0.03-0.017l-0.015,0.032
			c-0.047,0.061-0.096,0.121-0.144,0.182c-0.115-0.034-0.217,0.013-0.319,0.054c-4.596,2.857-9.01,5.975-13.254,9.333
			c-7.853,6.214-15.106,13.076-21.958,20.367c-8.611,9.162-16.534,18.89-23.826,29.133c-0.126,0.176-0.247,0.358-0.382,0.525
			c-0.062,0.078-0.093,0.238-0.221,0.2c-0.139-0.042-0.067-0.184-0.053-0.279c0.111-0.75,0.208-1.504,0.346-2.249
			c0.979-5.27,2.628-10.336,4.725-15.259c4.707-11.053,11.165-20.984,19.256-29.851c6.384-6.996,13.585-12.99,21.896-17.59
			c7.939-4.394,16.377-7.197,25.465-7.913c0.798-0.062,1.608,0.01,2.394-0.201c1.389,0,2.78,0,4.17,0
			c0.242,0.125,0.506,0.096,0.762,0.103C121.27,0.651,122.405,0.754,123.537,0.909z M51.179,103.271
			c-0.912,0-1.824,0.016-2.735-0.008c-0.42-0.013-0.52,0.128-0.461,0.531c0.141,0.964,0.246,1.936,0.362,2.903
			c0.277,2.324,0.552,4.649,0.829,6.975c0.288,2.411,0.579,4.821,0.867,7.232c0.141,1.184,0.274,2.369,0.418,3.553
			c0.035,0.281,0.065,0.546,0.482,0.542c1.866-0.017,3.733-0.011,5.6-0.005c0.277,0,0.403-0.105,0.37-0.388
			c-0.018-0.149-0.019-0.304-0.037-0.453c-0.33-2.711-0.666-5.422-0.99-8.135c-0.489-4.09-0.975-8.181-1.447-12.272
			c-0.041-0.352-0.161-0.49-0.522-0.481C53.002,103.282,52.091,103.271,51.179,103.271z M47.564,89.341
			C47.564,89.341,47.563,89.341,47.564,89.341c-0.001-0.844-0.009-1.688,0.002-2.531c0.005-0.342-0.088-0.523-0.477-0.504
			c-0.519,0.026-1.04,0.024-1.558,0c-0.386-0.02-0.473,0.154-0.471,0.5c0.011,1.709,0.013,3.421,0,5.13
			c-0.002,0.374,0.148,0.487,0.501,0.474c0.475-0.02,0.952,0,1.428-0.006c0.558-0.008,0.566-0.014,0.572-0.596
			C47.57,90.986,47.564,90.164,47.564,89.341z M44.062,98.511c0,0-0.001,0-0.002,0c0,0.149,0,0.302,0,0.453
			c0,1.527,0,1.518,1.569,1.418c0.329-0.022,0.459-0.126,0.449-0.464c-0.02-0.605-0.005-1.212-0.005-1.817
			c0-1.587,0-1.587-1.567-1.428c-0.021,0.005-0.043,0.007-0.064,0.007c-0.265,0.004-0.388,0.13-0.382,0.401
			C44.068,97.557,44.062,98.032,44.062,98.511z"/>
	</g>
</g>
</svg>
