<?xml version="1.0" encoding="utf-8"?>
<!-- Generator: Adobe Illustrator 16.0.4, SVG Export Plug-In . SVG Version: 6.00 Build 0)  -->
<!DOCTYPE svg PUBLIC "-//W3C//DTD SVG 1.1//EN" "http://www.w3.org/Graphics/SVG/1.1/DTD/svg11.dtd">
<svg version="1.1" id="Layer_3301" xmlns="http://www.w3.org/2000/svg" xmlns:xlink="http://www.w3.org/1999/xlink" x="0px" y="0px"
	 width="128px" height="128px" viewBox="0 0 128 128" enable-background="new 0 0 128 128" xml:space="preserve">
<g>
	<path fill-rule="evenodd" clip-rule="evenodd" d="M82.649,92.503c0,7.058,0.01,14.115-0.007,21.173
		c-0.004,1.771-0.057,3.551-0.453,5.287c-0.828,3.633-2.681,6.534-6.095,8.259c-1.102,0.556-2.287,0.843-3.527,0.845
		c-5.685,0.005-11.368,0.021-17.052-0.006c-2.358-0.01-4.364-0.949-6.064-2.56c-2.069-1.958-3.255-4.371-3.706-7.173
		c-0.213-1.323-0.289-2.653-0.319-3.985c-0.143-6.121-0.081-12.244-0.084-18.366c-0.005-8.26-0.001-16.52,0.016-24.777
		c0.002-1.181,0.015-2.362,0.161-3.541c0.141-1.143,0.556-2.17,1.135-3.145c1.528-2.57,3.491-4.807,5.426-7.064
		c0.484-0.564,0.959-1.136,1.432-1.711c0.79-0.961,0.74-1.445-0.223-2.25c-1.107-0.925-1.192-2.649-0.182-3.662
		c0.206-0.206,0.445-0.355,0.717-0.456c0.045-0.017,0.073-0.077,0.108-0.117c-0.032-0.01-0.063-0.03-0.096-0.029
		c-0.687,0.011-1.27-0.2-1.701-0.765c-0.476-0.622-0.631-1.357-0.636-2.1c-0.024-3.662-0.016-7.324-0.007-10.986
		c0.001-0.61,0.088-1.214,0.334-1.785c0.599-1.392,1.664-2.133,3.16-2.279c0.114-0.011,0.229-0.01,0.343-0.023
		c0.226-0.027,0.451-0.06,0.676-0.091c-0.12-0.221-0.381-0.189-0.56-0.311c-0.586-0.4-0.826-0.978-0.876-1.655
		c-0.06-0.819,0.166-1.584,0.483-2.326c0.15-0.35,0.307-0.699,0.496-1.029c0.602-1.057,0.815-2.211,0.854-3.401
		c0.077-2.35-0.201-4.682-0.383-7.019c-0.195-2.505-0.663-4.996-0.512-7.521c0.092-1.534,0.469-3.015,1.271-4.342
		c1.062-1.759,2.691-2.776,4.634-3.3c2.391-0.645,4.722-0.448,6.949,0.668c2.097,1.051,3.326,2.779,3.879,5.031
		c0.449,1.828,0.33,3.672,0.174,5.516c-0.277,3.247-0.714,6.48-0.754,9.744c-0.012,1.067-0.019,2.135,0.259,3.181
		c0.192,0.724,0.547,1.378,0.862,2.05c0.38,0.812,0.733,1.632,0.711,2.562c-0.023,0.893-0.351,1.586-1.196,1.972
		c-0.069,0.031-0.172,0.063-0.166,0.134c0.01,0.126,0.142,0.09,0.222,0.098c0.718,0.075,1.434,0.112,2.106,0.447
		c1.199,0.597,1.799,1.594,2.029,2.86c0.089,0.489,0.093,0.986,0.092,1.483c-0.002,3.243-0.001,6.485-0.003,9.728
		c0,0.573-0.04,1.141-0.195,1.698c-0.312,1.121-0.897,1.632-2.039,1.757c-0.069,0.008-0.178-0.028-0.196,0.046
		c-0.021,0.083,0.088,0.099,0.152,0.134c1.591,0.887,1.852,2.677,0.581,3.974c-0.053,0.054-0.107,0.109-0.163,0.162
		c-0.933,0.887-0.981,1.205-0.158,2.211c1.217,1.49,2.5,2.927,3.713,4.422c1.369,1.687,2.705,3.4,3.656,5.378
		c0.533,1.112,0.714,2.291,0.72,3.496c0.023,4.368,0.019,8.736,0.022,13.104c0.003,3.453,0,6.905,0,10.357
		C82.661,92.503,82.655,92.503,82.649,92.503z M62.454,76.287c0,2.858,0,5.718,0,8.576c0,4.329,0,8.656-0.001,12.985
		c0,0.331-0.016,0.653,0.372,0.811c0.358,0.145,0.703,0.151,1.036-0.058c0.249-0.155,0.424-0.377,0.569-0.628
		c0.337-0.585,0.539-1.22,0.676-1.873c0.744-3.534,1.019-7.123,1.132-10.723c0.072-2.322,0.049-4.649,0.05-6.975
		c0.005-7.777,0.002-15.556,0.002-23.334c0-0.153-0.013-0.306,0.002-0.457c0.035-0.365-0.104-0.505-0.484-0.495
		c-0.896,0.023-1.792,0.005-2.688,0.007c-0.659,0.001-0.664,0.003-0.664,0.658c-0.001,2.859,0,5.719,0,8.579
		C62.454,67.669,62.454,71.978,62.454,76.287z M66.288,97.775c0-1.258,0.001-2.514-0.001-3.771c0-0.066,0.014-0.145-0.062-0.19
		c-0.015,0.054-0.04,0.107-0.041,0.16c-0.009,0.575-0.148,1.132-0.252,1.691c-0.215,1.162-0.489,2.312-1.153,3.317
		c-0.466,0.705-1.139,0.959-1.929,0.691c-0.385-0.131-0.399-0.008-0.412,0.312c-0.058,1.605,0.313,3.133,0.801,4.642
		c0.053,0.166,0.12,0.202,0.277,0.197c0.495-0.011,0.99-0.008,1.484-0.011c0.161-0.001,0.284-0.034,0.352-0.217
		c0.457-1.229,0.954-2.446,0.938-3.795C66.278,99.795,66.288,98.785,66.288,97.775z M58.653,53.295c0.495,0,0.991-0.01,1.485,0.004
		c0.289,0.008,0.406-0.091,0.4-0.393c-0.015-0.8-0.016-1.6,0-2.399c0.007-0.338-0.146-0.419-0.448-0.416
		c-1.484,0.018-2.97,0.018-4.454,0.036c-0.363,0.004-0.721,0.092-1.055,0.227c-0.926,0.371-1.108,1.301-0.415,2.008
		c0.248,0.253,0.547,0.402,0.875,0.512C56.216,53.267,57.432,53.302,58.653,53.295z M70.409,50.096c-0.776,0-1.444,0.012-2.11-0.006
		c-0.351-0.009-0.522,0.08-0.509,0.476c0.026,0.762,0.025,1.525,0.002,2.287c-0.011,0.363,0.13,0.457,0.469,0.448
		c0.914-0.022,1.83,0.012,2.744-0.03c0.741-0.034,1.476-0.166,2.174-0.439c0.158-0.062,0.315-0.137,0.459-0.228
		c0.475-0.3,0.732-0.722,0.645-1.297c-0.085-0.557-0.467-0.843-0.973-1.002C72.322,49.992,71.304,50.154,70.409,50.096z
		 M64.34,53.294c0.515,0,1.029-0.011,1.543,0.004c0.294,0.009,0.411-0.104,0.407-0.398c-0.01-0.8-0.009-1.601-0.002-2.4
		c0.003-0.288-0.108-0.409-0.404-0.407c-1.01,0.01-2.02,0.012-3.029-0.001c-0.335-0.004-0.428,0.149-0.422,0.451
		c0.015,0.762,0.026,1.524,0.018,2.286c-0.004,0.336,0.106,0.488,0.461,0.472C63.387,53.279,63.863,53.295,64.34,53.294z
		 M60.873,40.248c0-2.095,0-4.19,0-6.286c0-0.133-0.006-0.267-0.002-0.4c0.004-0.193-0.092-0.258-0.278-0.274
		c-0.347-0.031-0.354,0.183-0.354,0.432c0.003,4.362,0.002,8.724,0.003,13.085c0,0.058,0.004,0.114,0.004,0.171
		c0,0.212,0.141,0.239,0.308,0.24c0.163,0.001,0.312-0.006,0.313-0.226c0.001-0.153,0.005-0.305,0.005-0.457
		C60.875,44.438,60.874,42.342,60.873,40.248z M56.793,40.196c0,2.117,0,4.234,0,6.351c0,0.133,0.006,0.267,0.001,0.4
		c-0.008,0.195,0.083,0.251,0.273,0.269c0.459,0.043,0.361-0.278,0.361-0.526c0.003-3.967,0.002-7.933,0.002-11.9
		c0-0.343,0.005-0.687-0.003-1.03c-0.005-0.21,0.086-0.469-0.3-0.476c-0.42-0.008-0.321,0.274-0.333,0.504
		c-0.005,0.095-0.001,0.19-0.001,0.286C56.793,36.115,56.793,38.156,56.793,40.196z M59.155,40.257c0-0.934,0-1.868,0-2.802
		c0-1.201,0.006-2.402-0.005-3.603c-0.002-0.229,0.144-0.577-0.325-0.564c-0.473,0.013-0.264,0.367-0.301,0.588
		c-0.025,0.148-0.005,0.305-0.005,0.457c0,3.583,0,7.167,0,10.75c0,0.572,0,1.144,0,1.715c0,0.209-0.036,0.417,0.298,0.424
		c0.358,0.007,0.343-0.21,0.338-0.448c-0.002-0.114,0-0.229,0-0.343C59.155,44.374,59.155,42.315,59.155,40.257z M62.598,40.254
		c0-2.116,0-4.232,0-6.348c0-0.114-0.007-0.229-0.004-0.343c0.007-0.238-0.139-0.278-0.334-0.273
		c-0.375,0.008-0.287,0.289-0.287,0.498c-0.004,4.309-0.003,8.617-0.003,12.926c0,0.096-0.001,0.191,0.008,0.286
		c0.019,0.21,0.173,0.217,0.333,0.216c0.147-0.001,0.269-0.038,0.277-0.213c0.008-0.152,0.009-0.305,0.009-0.457
		C62.598,44.448,62.597,42.351,62.598,40.254z M55.725,40.26c0-2.058,0-4.116,0-6.174c0-0.133-0.004-0.267-0.001-0.4
		c0.005-0.289-0.143-0.295-0.371-0.228c-0.373,0.108-0.28,0.406-0.28,0.655c-0.003,3.908-0.002,7.814-0.003,11.721
		c0,0.305-0.022,0.61-0.009,0.915c0.012,0.281,0.259,0.445,0.506,0.353c0.255-0.095,0.152-0.327,0.152-0.494
		C55.728,44.492,55.724,42.376,55.725,40.26z M72.347,40.213c0,2.058,0,4.117,0,6.175c0,0.152,0.006,0.305,0.003,0.457
		c-0.007,0.251,0.144,0.274,0.339,0.243c0.243-0.039,0.289-0.209,0.287-0.419c-0.003-0.458-0.001-0.915-0.001-1.373
		c0-3.754-0.003-7.509,0.006-11.263c0.001-0.337-0.081-0.607-0.436-0.592c-0.368,0.015-0.187,0.358-0.188,0.539
		C72.341,36.059,72.347,38.136,72.347,40.213z M64.329,40.316c0-2.095,0.001-4.191,0-6.286c0-0.152-0.006-0.305-0.005-0.457
		c0.001-0.185-0.076-0.278-0.27-0.285c-0.207-0.006-0.33,0.062-0.336,0.285c-0.003,0.133-0.019,0.266-0.019,0.399
		c0.005,4.134,0.013,8.269,0.018,12.403c0,0.19-0.009,0.381-0.011,0.572c-0.002,0.187,0.088,0.262,0.28,0.273
		c0.411,0.024,0.341-0.266,0.342-0.501C64.331,44.584,64.329,42.45,64.329,40.316z M71.237,40.272c-0.001,0-0.002,0-0.003,0
		c0-1.258-0.002-2.516,0-3.774c0.003-0.953,0.007-1.906,0.018-2.858c0.002-0.222-0.036-0.359-0.308-0.357
		c-0.253,0.002-0.341,0.108-0.33,0.343c0.007,0.133-0.004,0.267-0.004,0.4c-0.001,4.174,0,8.348,0.001,12.521
		c0,0.134,0.006,0.267,0.005,0.4c-0.002,0.191,0.095,0.257,0.28,0.273c0.354,0.033,0.345-0.181,0.344-0.431
		C71.234,44.616,71.237,42.444,71.237,40.272z M66.042,40.318c0.008,0,0.015,0,0.021,0c0-1.313,0.003-2.627-0.001-3.941
		c-0.003-0.894-0.013-1.789-0.022-2.683c-0.002-0.185,0.032-0.393-0.266-0.404c-0.323-0.013-0.312,0.205-0.32,0.417
		c-0.005,0.152-0.002,0.304-0.002,0.457c0,1.237,0.001,2.474,0.001,3.71c0,2.895-0.001,5.789,0,8.684c0,0.152,0,0.306,0.016,0.457
		c0.017,0.171,0.145,0.199,0.29,0.2c0.152,0.002,0.264-0.04,0.273-0.212c0.008-0.152,0.01-0.305,0.01-0.457
		C66.042,44.469,66.042,42.394,66.042,40.318z M67.768,40.255c-0.001,0-0.001,0-0.002,0c0-2.116,0.006-4.232-0.009-6.349
		c-0.001-0.22,0.179-0.604-0.276-0.608c-0.456-0.004-0.286,0.378-0.286,0.6c-0.01,4.233-0.008,8.467-0.008,12.701
		c0,0.133,0.001,0.267,0.011,0.4c0.011,0.171,0.128,0.213,0.278,0.213c0.146,0,0.269-0.032,0.279-0.207
		c0.01-0.152,0.013-0.305,0.013-0.458C67.768,44.452,67.768,42.354,67.768,40.255z M68.91,40.225L68.91,40.225
		c-0.001,2.116-0.001,4.231-0.001,6.346c0,0.152,0.002,0.305,0.014,0.457c0.011,0.141,0.104,0.189,0.235,0.187
		c0.132-0.004,0.288,0.018,0.315-0.163c0.024-0.168,0.026-0.341,0.026-0.512c0.002-4.173,0.002-8.347,0.001-12.521
		c0-0.171-0.002-0.343-0.017-0.514c-0.018-0.203-0.169-0.226-0.333-0.221c-0.163,0.006-0.239,0.097-0.244,0.252
		c-0.005,0.095,0.003,0.19,0.003,0.285C68.91,35.956,68.91,38.09,68.91,40.225z M54.006,40.487c0,0-0.001,0-0.002,0
		c0-1.81,0-3.62,0-5.43c0-0.114-0.01-0.228-0.016-0.342c-0.133,0.077-0.123,0.223-0.158,0.344c-0.17,0.57-0.217,1.164-0.222,1.75
		c-0.017,2.592-0.012,5.183-0.003,7.774c0.001,0.456,0.05,0.912,0.194,1.351c0.034,0.102,0.023,0.266,0.173,0.242
		c0.069-0.011,0.035-0.167,0.035-0.258C54.006,44.107,54.006,42.297,54.006,40.487z M74.07,40.484c0,0,0,0,0.002,0
		c0,1.812-0.002,3.625,0.003,5.436c0,0.072-0.075,0.202,0.071,0.214c0.031,0.003,0.094-0.11,0.111-0.178
		c0.147-0.594,0.219-1.2,0.22-1.811c0.004-2.327,0.009-4.654-0.004-6.981c-0.004-0.628-0.077-1.254-0.193-1.874
		c-0.03-0.162-0.007-0.347-0.178-0.457c-0.066,0.144-0.03,0.296-0.03,0.443C74.069,37.012,74.07,38.748,74.07,40.484z"/>
	<path fill-rule="evenodd" clip-rule="evenodd" d="M64.185,123.816c-2.307-0.079-4.61-0.174-6.854-0.786
		c-0.976-0.267-1.93-0.591-2.827-1.064c-0.088-0.047-0.275-0.059-0.226-0.199c0.042-0.118,0.203-0.044,0.309-0.036
		c1.235,0.09,2.47,0.182,3.705,0.279c3.004,0.238,6.009,0.393,9.024,0.226c1.646-0.092,3.265-0.313,4.796-0.938
		c1.912-0.781,3.505-1.986,4.636-3.749c0.031-0.047,0.058-0.099,0.096-0.141c0.037-0.04,0.099-0.108,0.127-0.098
		c0.089,0.029,0.065,0.121,0.047,0.187c-0.151,0.514-0.346,1.009-0.628,1.466c-1.259,2.045-3.084,3.328-5.368,3.997
		c-1.599,0.468-3.227,0.736-4.895,0.771C65.479,123.743,64.832,123.786,64.185,123.816z"/>
</g>
</svg>
