<?xml version="1.0" encoding="utf-8"?>
<!-- Generator: Adobe Illustrator 16.0.4, SVG Export Plug-In . SVG Version: 6.00 Build 0)  -->
<!DOCTYPE svg PUBLIC "-//W3C//DTD SVG 1.1//EN" "http://www.w3.org/Graphics/SVG/1.1/DTD/svg11.dtd">
<svg version="1.1" id="Layer_3303" xmlns="http://www.w3.org/2000/svg" xmlns:xlink="http://www.w3.org/1999/xlink" x="0px" y="0px"
	 width="128px" height="128px" viewBox="0 0 128 128" enable-background="new 0 0 128 128" xml:space="preserve">
<g>
	<path fill-rule="evenodd" clip-rule="evenodd" fill="#010101" d="M104.818,68.791c0.004-0.004,0.04,0.079,0.04,0.079l0.006-0.119
		c12.327,13.847,15.023,31.185,1.359,48.106c-1.904,2.36-3.892,4.642-6.093,6.735c-2.883,2.732-6.32,4.172-10.267,4.179
		c-20.681,0.035-41.364,0.031-62.047,0.005c-3.026-0.004-5.993-0.765-8.274-2.722c-7.43-6.368-13.308-13.903-15.972-23.497
		C1.057,92.49,3.038,84.036,7.601,76.026c5.18-9.094,12.551-16.263,20.267-23.125c1.695-1.508,3.495-2.903,5.21-4.393
		c3.646-3.161,7.415-6.05,12.727-6.077c0-3.598,0-6.98,0-10.397c2.175-0.9,4.363,0.031,6.353-0.64
		c0.534-1.138,0.293-2.291,0.294-3.41c0.028-5.228-0.016-10.455,0.028-15.682c0.031-3.962,2.721-6.711,6.463-6.714
		c3.697-0.006,6.378,2.81,6.429,6.762c0.017,1.278,0.001,2.555,0.001,3.975c2.841,0.31,5.02,0.491,7.398-1.93
		c8.484-8.62,18.524-14.44,31.09-14.186c7.528,0.148,14.159,2.579,18.509,9.247c5.973,9.159,4.427,27.507-12.896,31.232
		c-10.917,2.349-20.292-1.195-29.148-7.047c-2.591-1.711-5.333-3.429-7.095-5.967c-2.049-2.961-4.644-2.815-7.652-2.419
		c-0.395,1.77-0.137,3.502-0.177,5.219c-0.022,1.031,0.608,1.208,1.504,1.174c1.58-0.058,3.164-0.015,5.012-0.015
		c0,3.58,0,7.032,0,10.463C81.849,43.724,102.965,64.974,104.818,68.791z M13.44,93.762c0,0.607-0.028,1.214,0.008,1.817
		c0.036,0.601,0.109,1.201,0.215,1.795c1.483,8.311,6.386,14.557,12.244,20.218c1.062,1.028,2.412,1.553,3.786,1.993
		c1.158,0.367,2.265,0.367,3.008-0.822c0.69-1.099,0.209-1.993-0.497-2.882c-1.32-1.657-2.694-3.283-3.875-5.033
		c-4.905-7.29-7.18-15.132-4.809-23.896c2.188-8.097,7.201-14.417,12.898-20.26c2.743-2.812,5.673-5.445,8.605-8.066
		c1.137-1.016,1.136-2.217,0.594-3.261c-0.584-1.128-1.793-0.874-2.818-0.385c-0.681,0.322-1.408,0.607-1.993,1.064
		c-7.829,6.125-15.337,12.584-21.184,20.732C15.98,81.854,13.521,87.379,13.44,93.762z M100.824,6.414
		c-3.143-0.23-6.521,0.81-9.8,2.267c-0.889,0.393-1.573,1.022-1.245,2.112c0.322,1.073,1.16,1.286,2.175,1.08
		c0.518-0.106,1.04-0.221,1.566-0.257c6.715-0.453,12.866,0.565,17.014,6.662c1.966,2.891,2.344,6.158,2.178,9.547
		c-0.052,1.074-0.138,2.269,1.266,2.533c1.296,0.243,1.841-0.759,2.319-1.75c1.75-3.623,2.11-7.405,1.107-11.264
		C115.587,10.34,109.762,6.427,100.824,6.414z"/>
</g>
</svg>
