<?xml version="1.0" encoding="utf-8"?>
<!-- Generator: Adobe Illustrator 16.0.4, SVG Export Plug-In . SVG Version: 6.00 Build 0)  -->
<!DOCTYPE svg PUBLIC "-//W3C//DTD SVG 1.1//EN" "http://www.w3.org/Graphics/SVG/1.1/DTD/svg11.dtd">
<svg version="1.1" id="Layer_3304" xmlns="http://www.w3.org/2000/svg" xmlns:xlink="http://www.w3.org/1999/xlink" x="0px" y="0px"
	 width="128px" height="128px" viewBox="0 0 128 128" enable-background="new 0 0 128 128" xml:space="preserve">
<g>
	<g>
		<path fill-rule="evenodd" clip-rule="evenodd" d="M3.083,75.62c0-2.209,0.019-4.42-0.008-6.63
			c-0.015-1.057,0.404-1.263,1.419-1.079c6.571,1.176,13.198,0.863,19.824,0.701c1.772-0.046,3.463-0.663,5.26-0.506
			c0.956,0.085,1.451,0.368,1.39,1.354c-0.207,3.409,0.092,6.82-0.281,10.244c-0.328,3.05-0.082,6.158-0.167,9.237
			c-0.284,10.168-0.592,20.331-0.913,30.497c-0.056,1.766-0.318,3.527-0.315,5.292c0.001,1.558-0.786,2.214-2.174,2.334
			c-4.734,0.411-9.47,0.877-14.231,0.5c-1.874-0.148-3.749-0.28-5.615-0.487c-1.466-0.161-2.356-0.74-2.364-2.524
			c-0.017-3.642-0.393-7.285-0.441-10.927c-0.125-9.833-0.864-19.643-0.904-29.48C3.552,81.329,3.436,78.459,3.083,75.62z"/>
		<path fill-rule="evenodd" clip-rule="evenodd" d="M26.371,26.855c0,3.749-0.058,7.069,0.023,10.387
			c0.039,1.571-0.577,2.206-2.115,2.196c-4.756-0.037-9.513-0.039-14.269-0.029c-1.533,0.007-2.162-0.705-2.153-2.235
			C7.895,30.649,7.852,24.121,7.9,17.595c0.013-1.553,0.473-3.048,1.113-4.478c2.107-4.693,5.056-8.8,8.748-12.364
			c1.548-1.493,2.462-1.392,3.705,0.542c2.371,3.682,3.476,7.834,4.282,12.094C26.618,17.998,26.306,22.648,26.371,26.855z"/>
		<path fill-rule="evenodd" clip-rule="evenodd" d="M29.098,52.078c0,2.977,0.008,5.951-0.001,8.925
			c-0.007,2.126-0.108,2.173-2.156,2.438c-6.596,0.849-13.185,0.656-19.785,0.011c-1.349-0.13-1.993-0.53-1.985-1.972
			c0.036-6.151-0.012-12.302,0.018-18.45c0.013-2.436,0.062-2.384,2.431-2.124c6.383,0.7,12.772,0.742,19.156-0.028
			c2.215-0.268,2.268-0.263,2.298,1.926c0.039,3.091,0.009,6.185,0.009,9.275C29.082,52.078,29.092,52.078,29.098,52.078z"/>
		<path fill-rule="evenodd" clip-rule="evenodd" d="M15.831,67.973c-2.61,0.336-6.219-0.023-9.824-0.557
			c-0.954-0.136-1.667-0.367-1.745-1.54c-0.104-1.574,0.368-2.183,1.834-1.673c2.597,0.902,5.229,0.416,7.847,0.575
			c4.707,0.286,9.398-0.006,14.095-0.177c0.647-0.024,1.566-0.783,1.7,0.605c0.103,1.067-0.001,2.029-1.354,2.194
			c-1.64,0.197-3.274,0.478-4.919,0.549C21.27,68.047,19.067,67.973,15.831,67.973z"/>
	</g>
	<g>
		<path fill-rule="evenodd" clip-rule="evenodd" fill="#010101" d="M85.142,89.871C76.854,81.195,68.99,72.967,61.258,64.87
			c-2.011,0.166-2.417,2.645-4.401,2.383c0.261-1.771,0.261-1.771,2.218-3.825c0.115-1.016-0.674-1.361-1.322-1.758
			c-1.505,0.458-1.993,2.499-3.76,2.438c-1.723-2.267,4.712-3.256,0.711-5.717c-1.37,0.671-1.997,2.419-3.649,2.676
			c-1.92-2.255,4.509-3.33,0.549-5.727c-1.109,0.946-2.187,1.868-3.336,2.847c-1.685-1.781,0.314-2.229,0.815-3.082
			c0.407-0.693,1.311-1.202,0.514-2.14c-0.969-1.143-1.64-0.213-2.328,0.389c-0.686,0.598-1.248,1.398-2.255,1.406
			c-2.121-2.389,4.577-3.029,0.945-5.618c-1.683,0.181-2.184,2.492-4,2.395c-1.845-2.284,4.712-3.157,0.812-5.651
			c-1.55,0.408-2.02,2.739-3.931,2.407c-1.315-2.25,4.542-3.039,0.912-5.505c-1.674,0.254-1.962,2.937-4.034,2.254
			c-0.996-2.175,4.246-2.789,1.142-5.356c-1.642,0.308-2.124,2.389-4.029,2.441c-0.846-2.229,1.794-2.436,2.234-4.291
			c-0.261-1.188-3.175-2.505-0.875-4.355c1.787-1.437,2.642,0.898,3.965,1.512c1.574-0.298,2.035-2.37,3.779-2.486
			c2.054,2.233-4.343,3.199-0.819,5.685c1.617-0.336,2.136-2.633,4-2.439c1.363,2.314-4.327,3.014-1.05,5.625
			c1.668-0.308,2.097-2.677,4.199-2.476c0.566,2.27-1.995,2.477-2.441,4.147c2.318,3.519,3.339-2.07,5.479-0.835
			c0.472,1.938-1.786,2.233-2.544,4.493c-0.01,0.075,0.707,0.486,1.397,0.898c1.567-0.417,2.079-2.433,3.845-2.477
			c1.943,2.23-4.565,3.178-0.844,5.646c1.645-0.322,2.114-2.595,3.982-2.489c1.483,2.243-4.193,3.04-1.083,5.489
			c1.742-0.241,2.187-2.464,4.248-2.24c0.298,2.067-1.809,2.449-2.445,4.092c0.485,0.927,0.966,1.952,2.556,0.67
			c0.805-0.647,1.272-2.054,2.927-1.523c0.393,2.101-2.032,2.392-2.515,3.861c0.944,1.094,0.944,1.094,5.292-0.897
			c0.569,2.123-1.928,2.558-2.179,4.715c7.65,7.936,15.784,16.021,23.334,24.505c1.528-0.336,2.151-1.388,2.977-2.13
			c3.037-2.742,3.086-2.828,5.985,0.188c9.149,9.514,18.209,19.108,27.389,28.59c1.827,1.886,1.703,3.164-0.206,4.851
			c-3.134,2.775-6.126,5.714-9.095,8.669c-1.486,1.478-2.601,1.604-4.153-0.036c-9.422-9.973-18.895-19.897-28.441-29.749
			c-1.853-1.912-1.763-3.298,0.261-4.823C82.907,91.818,83.759,91.038,85.142,89.871z"/>
	</g>
</g>
</svg>
