<?xml version="1.0" encoding="utf-8"?>
<!-- Generator: Adobe Illustrator 16.0.4, SVG Export Plug-In . SVG Version: 6.00 Build 0)  -->
<!DOCTYPE svg PUBLIC "-//W3C//DTD SVG 1.1//EN" "http://www.w3.org/Graphics/SVG/1.1/DTD/svg11.dtd">
<svg version="1.1" id="Layer_3305" xmlns="http://www.w3.org/2000/svg" xmlns:xlink="http://www.w3.org/1999/xlink" x="0px" y="0px"
	 width="128px" height="128px" viewBox="0 0 128 128" enable-background="new 0 0 128 128" xml:space="preserve">
<g id="GinIkw.tif">
	<g>
		<path fill-rule="evenodd" clip-rule="evenodd" d="M48.367,81.553c0.001-13.988,0-27.976,0.002-41.963
			c0.001-2.281,0.407-4.492,1.212-6.625c0.194-0.516,0.425-1.026,0.703-1.502c0.939-1.607,1.975-1.601,1.975-3.438
			c-0.002-7.16,0.007-14.32-0.005-21.48c-0.003-2.09,0.651-3.85,2.4-5.098c1.005-0.717,2.135-1.003,3.371-0.997
			c3.966,0.02,7.936,0.098,11.898-0.021c2.854-0.086,5.873,2.089,5.858,5.899c-0.026,6.739,0.006,13.477-0.022,20.216
			c-0.004,1.047,0.27,2.136-0.245,3.145c-0.108,0.213,0.007,0.329,0.122,0.436c1.672,1.538,3.176,3.632,3.646,5.712
			c0.272,1.204,0.38,2.435,0.38,3.68c-0.009,28.191-0.008,56.383-0.005,84.574c0,0.729-0.475,3.465-4.283,3.465
			c-4.947-0.027-9.895-0.01-14.842-0.011c-2.602-0.001-5.207-0.086-7.804,0.025c-2.023,0.087-4.4-1.368-4.393-3.416
			C48.393,109.954,48.366,95.753,48.367,81.553z M74.279,14.367c-0.002,0-0.002,0-0.003,0c0-2.686-0.083-5.375,0.022-8.058
			c0.112-2.857-2.227-4.529-4.475-4.476c-3.877,0.091-7.759,0.023-11.639,0.029c-0.382,0-0.772,0.006-1.144,0.082
			c-1.914,0.393-3.247,1.915-3.266,3.879c-0.042,4.344-0.021,8.688-0.021,13.034c0,1.449,0.011,2.897,0.012,4.346
			c0.001,0.405,0.161,0.645,0.597,0.653c0.407,0.008,0.801-0.037,0.898-0.514c0.067-0.33,0.061-0.678,0.063-1.018
			c0.017-2.13,0.098-4.262,0.009-6.387c-0.047-1.111,0.365-1.889,1.129-2.566c2.238-1.983,4.633-3.764,7.173-5.337
			c1.634-1.011,3.104-0.157,3.147,1.737c0.006,0.255,0.002,0.511,0.002,0.767c0,2.729-0.005,5.458,0.002,8.187
			c0.003,1.501,0.029,1.523,1.478,1.536c0.726,0.006,1.45-0.023,2.175,0.005c1.783,0.07,2.616,0.839,2.854,2.6
			c0.018,0.126,0.011,0.257,0.04,0.381c0.074,0.316,0.241,0.571,0.602,0.535c0.343-0.035,0.317-0.344,0.332-0.59
			c0.017-0.298,0.012-0.597,0.012-0.896C74.279,19.654,74.279,17.01,74.279,14.367z M53.455,80.077c0,13.902,0,27.807,0.001,41.71
			c0,0.426-0.002,0.853,0.025,1.278c0.044,0.66,0.413,1.003,1.077,1.011c0.652,0.008,1.062-0.323,1.148-0.959
			c0.062-0.461,0.03-0.937,0.03-1.405c0.001-27.209,0.003-54.42-0.005-81.629c0-1.713,0.102-3.407,0.545-5.068
			c0.055-0.206,0.119-0.414,0.134-0.624c0.04-0.611-0.271-0.869-0.868-0.705c-1.088,0.298-1.531,1.111-1.735,2.15
			c-0.447,2.28-0.353,4.581-0.353,6.881C53.457,55.17,53.456,67.623,53.455,80.077z M64.014,25.621c3.154,0,6.31,0.003,9.465-0.008
			c0.168,0,0.472,0.136,0.49-0.179c0.012-0.167-0.242-0.192-0.399-0.233c-1.048-0.279-1.509-1.013-1.631-2.042
			c-0.147-1.248-0.429-1.496-1.708-1.526c-0.938-0.022-1.877,0.023-2.812-0.021c-1.209-0.057-1.873-0.727-1.963-1.917
			c-0.028-0.381-0.013-0.767-0.014-1.15c-0.001-2.856,0.012-5.712-0.009-8.568c-0.007-1.016-0.411-1.25-1.262-0.687
			c-2.417,1.598-4.788,3.263-6.946,5.21c-0.379,0.342-0.523,0.721-0.521,1.231c0.01,2.297-0.015,4.596-0.029,6.893
			c-0.012,1.86-0.378,2.304-2.19,2.657c-0.157,0.031-0.436-0.01-0.424,0.169c0.02,0.283,0.32,0.166,0.491,0.166
			C57.705,25.625,60.859,25.623,64.014,25.621z M64.098,26.978c-3.109,0-6.22-0.006-9.329,0.003
			c-0.949,0.003-1.039,0.146-1.013,0.991c0.025,0.854,0.637,0.643,1.099,0.643c6.006,0.011,12.013,0.007,18.019,0.007
			c0.213,0,0.428-0.016,0.639,0.001c0.537,0.043,0.771-0.182,0.771-0.733c0-0.772-0.091-0.903-0.984-0.906
			C70.232,26.973,67.165,26.979,64.098,26.978z"/>
	</g>
</g>
</svg>
