<?xml version="1.0" encoding="utf-8"?>
<!-- Generator: Adobe Illustrator 16.0.4, SVG Export Plug-In . SVG Version: 6.00 Build 0)  -->
<!DOCTYPE svg PUBLIC "-//W3C//DTD SVG 1.1//EN" "http://www.w3.org/Graphics/SVG/1.1/DTD/svg11.dtd">
<svg version="1.1" id="Layer_3306" xmlns="http://www.w3.org/2000/svg" xmlns:xlink="http://www.w3.org/1999/xlink" x="0px" y="0px"
	 width="128px" height="128px" viewBox="0 0 128 128" enable-background="new 0 0 128 128" xml:space="preserve">
<g>
	<path fill-rule="evenodd" clip-rule="evenodd" d="M50.347,39.778c4.842,0,9.684-0.023,14.526,0.008
		c4.402,0.027,8.809,0.222,13.208,0.135c2.733-0.054,5.453-0.123,8.19,0.012c6.401,0.315,11.745,3.021,16.509,7.066
		c5.559,4.72,9.275,10.634,11.187,17.677c0.073,0.271,0.177,0.532,0.274,0.795c0.482,1.305,0.501,1.339,1.754,0.725
		c2.646-1.298,5.271-2.637,7.904-3.955c0.375-0.188,0.746-0.401,1.145-0.527c1.045-0.33,1.771,0.178,2.296,1.015
		c0.534,0.852,0.365,1.759-0.494,2.409c-0.554,0.419-1.198,0.725-1.825,1.037c-2.636,1.314-5.287,2.598-7.918,3.921
		c-1.578,0.794-1.663,0.831-1.393,2.602c0.341,2.235,0.411,4.477,0.304,6.716c-0.202,4.265-1.158,8.31-3.664,11.893
		c-2.639,3.774-6.951,5.584-10.946,4.489c-3.199-0.877-5.274-3.252-5.684-6.562c-0.358-2.889,0.248-5.598,1.771-8.06
		c2.123-3.437,4.766-6.405,8.149-8.672c1.515-1.015,2.968-2.126,4.516-3.086c0.791-0.491,1.045-0.99,0.773-1.883
		c-2.789-9.149-7.828-16.546-16.394-21.24c-3.625-1.985-7.497-2.63-11.578-2.413c-0.99,0.053-1.331,0.414-1.392,1.375
		c-0.239,3.777-0.548,7.55-0.825,11.325c-0.554,7.551-1.114,15.101-1.649,22.652c-0.333,4.685-0.605,9.373-0.939,14.058
		c-0.426,5.942-0.836,11.884-1.352,17.818c-0.307,3.538-3.157,5.976-6.909,6.031c-3.367,0.049-6.735,0.012-10.104,0.012
		c-15.648,0.001-31.296-0.011-46.945,0.016c-2.285,0.003-4.316-0.498-5.865-2.275c-0.989-1.135-1.6-2.456-1.707-3.979
		c-0.442-6.296-0.857-12.592-1.328-18.885c-0.612-8.18-1.283-16.354-1.895-24.532c-0.371-4.965-0.669-9.937-1.018-14.902
		c-0.197-2.797-0.481-5.587-0.634-8.386c-0.268-4.88,0.858-9.461,3.145-13.768c3.779-7.123,9.741-11.828,16.884-15.22
		c8.08-3.836,16.642-4.931,25.441-4.145c10.825,0.968,20.401,4.867,28.038,12.856c2.947,3.083,5.111,6.673,6.499,10.712
		c0.456,1.327,0.272,1.659-0.966,1.573c-4.329-0.302-8.653,0.084-12.98,0.052c-11.509-0.084-23.018-0.011-34.525-0.064
		c-3.668-0.016-7.131,0.569-10.163,2.762c-4.329,3.131-6.592,7.425-6.666,12.733c-0.103,7.436-0.202,14.88,0.015,22.313
		c0.451,15.494,13.324,26.543,27.906,25.42c14.353-1.104,23.801-13.304,23.862-25.206c0.044-8.289-3.028-15.067-9.112-20.437
		c-3.398-2.999-7.507-4.911-12.057-5.629c-10.423-1.646-18.877,1.763-25.421,10.001c-0.218,0.273-0.423,0.558-0.629,0.84
		c-0.126,0.172-0.269,0.309-0.503,0.287c-0.288-0.029-0.319-0.271-0.317-0.463c0.055-3.567-0.463-7.179,0.491-10.682
		c1.188-4.359,5.246-7.602,9.765-8.15c3.083-0.374,6.167-0.13,9.249-0.207c2.034-0.05,4.07-0.009,6.105-0.009
		C46.417,39.778,48.382,39.778,50.347,39.778z M112.06,76.301c0-0.698,0.028-1.397-0.007-2.095
		c-0.044-0.847-0.354-1.116-1.177-0.584c-3.849,2.491-7.295,5.408-9.811,9.294c-0.958,1.478-1.609,3.084-1.565,4.913
		c0.087,3.643,3.286,5.496,6.463,3.694c2.221-1.26,3.667-3.186,4.537-5.557C111.645,82.847,111.981,79.589,112.06,76.301z"/>
	<path fill-rule="evenodd" clip-rule="evenodd" d="M41.087,62.412c5.41-0.049,11.056,4.018,11.169,11.048
		c0.103,6.407-4.961,11.372-11.316,11.335c-5.96-0.034-11.189-5.3-11.117-11.194C29.902,67.286,34.867,62.355,41.087,62.412z"/>
	<path d="M40.997,90.412l-0.104-0.001c-4.309-0.024-8.616-1.911-11.819-5.172c-3.15-3.208-4.927-7.453-4.876-11.647
		c0.116-9.418,7.476-16.796,16.755-16.796l0.162,0.001h0.132c10.247,0,16.505,8.434,16.637,16.589
		c0.073,4.568-1.611,8.838-4.743,12.02C49.964,88.635,45.651,90.412,40.997,90.412z M40.953,58.201
		c-8.501,0-15.243,6.768-15.35,15.407c-0.047,3.822,1.583,7.703,4.473,10.646c2.942,2.996,6.888,4.729,10.824,4.751l0.096,0.001
		c4.274,0,8.232-1.629,11.142-4.586c2.865-2.912,4.406-6.821,4.338-11.012c-0.159-9.877-7.966-15.206-15.231-15.206h-0.132
		L40.953,58.201z"/>
	<path d="M40.982,95.899l-0.139-0.001c-5.713-0.034-11.427-2.535-15.676-6.862c-4.179-4.256-6.537-9.886-6.468-15.447
		c0.154-12.494,9.917-22.28,22.225-22.28l0.214,0.001l0.178-0.001c5.459,0,10.913,2.108,14.964,5.783
		c3.168,2.873,6.97,8.02,7.102,16.224c0.097,6.061-2.136,11.723-6.289,15.943C52.878,93.54,47.157,95.899,40.982,95.899z
		 M40.923,52.827c-11.467,0-20.563,9.128-20.706,20.781c-0.063,5.159,2.135,10.395,6.033,14.363
		c3.968,4.041,9.29,6.377,14.602,6.408l0.13,0.001c5.765,0,11.102-2.197,15.028-6.188c3.865-3.927,5.944-9.203,5.853-14.854
		c-0.214-13.323-10.746-20.513-20.547-20.513l-0.178,0.001L40.923,52.827z"/>
</g>
</svg>
