<?xml version="1.0" encoding="utf-8"?>
<!-- Generator: Adobe Illustrator 16.0.4, SVG Export Plug-In . SVG Version: 6.00 Build 0)  -->
<!DOCTYPE svg PUBLIC "-//W3C//DTD SVG 1.1//EN" "http://www.w3.org/Graphics/SVG/1.1/DTD/svg11.dtd">
<svg version="1.1" id="Layer_3307" xmlns="http://www.w3.org/2000/svg" xmlns:xlink="http://www.w3.org/1999/xlink" x="0px" y="0px"
	 width="128px" height="128px" viewBox="0 0 128 128" enable-background="new 0 0 128 128" xml:space="preserve">
<g>
	<path fill-rule="evenodd" clip-rule="evenodd" d="M73.562,127.907c-14.556,0-29.113,0.011-43.67-0.007
		c-3.996-0.004-4.094-0.139-4.731-4.147c-0.916-5.771,0.907-10.703,4.902-14.763c3.802-3.865,8.518-6.154,13.961-6.634
		c1.984-0.176,2.958-0.614,3.391-2.922c1.12-5.977,5.087-10.168,10.368-12.627c9.066-4.22,18.002-3.656,26.317,2.293
		c2.178,1.557,3.946,3.527,5.118,5.926c0.784,1.602,1.649,2.002,3.511,1.696c8.188-1.345,15.801,0.353,22.285,5.602
		c7.276,5.888,9.688,13.668,7.076,22.133c-1.008,3.266-1.367,3.43-4.855,3.434c-14.558,0.018-29.114,0.008-43.672,0.008
		C73.562,127.901,73.562,127.904,73.562,127.907z M54.855,101.713c3.116-2.916,6.288-5.68,10.782-6.318
		c0.89-0.126,1.738-0.962,2.479-1.617c1.161-1.025,3.544-1.799,2.848-3.439c-0.605-1.422-2.946-0.671-4.465-0.447
		c-7.095,1.049-12.44,6.121-11.594,11.872l-0.205,0.124L54.855,101.713z M47.611,107.872c-2.086,0.068-4.262,0.622-6.39,1.336
		c-4.755,1.594-7.16,5.14-8.023,9.898c-0.079,0.438-0.224,0.972,0.21,1.312c0.05,0.038,0.572-0.412,0.777-0.706
		c2.19-3.137,5.372-4.8,8.905-5.834c2.243-0.656,3.989-2.022,5.686-3.482c0.601-0.52,1.663-1.104,1.103-2.1
		C49.507,107.636,48.522,107.922,47.611,107.872z"/>
	<path fill-rule="evenodd" clip-rule="evenodd" d="M28.937,31.59c6.149,0,12.299-0.005,18.449,0.006c1.002,0.001,2.034-0.07,3,0.136
		c2.045,0.437,2.83,2.061,1.429,3.499c-1.282,1.317-1.028,2.517-0.429,3.638c1.312,2.454,1.336,5.025,1.329,7.676
		c-0.031,11.798-0.037,23.596,0.027,35.394c0.011,2.004-0.398,3.514-2.061,4.887c-2.926,2.417-5.286,5.365-6.37,9.12
		c-0.554,1.92-1.774,2.672-3.756,3.021c-5.623,0.988-10.285,3.853-14.088,8.083c-4.671,5.197-6.378,11.318-5.122,18.137
		c0.403,2.187-0.295,2.715-2.186,2.708c-3.64-0.015-7.284,0.111-10.918-0.028c-3.375-0.129-4.158-1.585-2.124-4.133
		c0.786-0.984,0.495-1.574,0.155-2.263c-1.266-2.569-1.336-5.285-1.333-8.068c0.033-22.842,0.018-45.685,0.021-68.528
		c0.001-1.75-0.141-3.512,0.666-5.171c0.784-1.614,1.169-3.028-0.273-4.761c-1.111-1.335-0.107-2.875,1.754-3.233
		c0.851-0.164,1.75-0.105,2.626-0.106c6.4-0.007,12.802-0.004,19.203-0.004C28.937,31.596,28.937,31.593,28.937,31.59z
		 M41.269,74.96c0.173-4.823-0.808-9.534-3.403-13.871c-4.476-7.478-12.208-7.966-17.494-1.079
		c-5.688,7.409-5.925,21.569-0.488,29.138c5.59,7.782,13.455,7.315,18.292-1.025C40.522,84.08,41.321,79.718,41.269,74.96z"/>
	<path fill-rule="evenodd" clip-rule="evenodd" d="M28.638,29.481c-4.881,0-9.761,0.03-14.642-0.01
		c-3.157-0.027-3.516-0.708-1.805-3.442c0.59-0.942,1.398-1.752,2.14-2.593c0.566-0.641,1.084-1.112,0.982-2.219
		c-0.297-3.229,0.101-3.636,3.352-3.699c4.379-0.086,8.76-0.036,13.14-0.031c2.628,0.003,5.257-0.02,7.882,0.067
		c1.526,0.051,3.035,0.809,2.584,2.452c-0.536,1.954,0.11,2.999,1.537,3.99c0.295,0.205,0.538,0.542,0.698,0.87
		c0.647,1.32,2.199,2.668,1.496,4.026c-0.639,1.234-2.521,0.549-3.848,0.566C37.648,29.517,33.143,29.48,28.638,29.481z"/>
	<path fill-rule="evenodd" clip-rule="evenodd" d="M28.568,15.562c-2.758,0-5.516-0.005-8.273,0.002
		c-1.621,0.004-2.572-0.531-2.51-2.412c0.104-3.131,0.083-6.269,0.015-9.401c-0.046-2.174,1.096-3.475,3.061-3.543
		c5.13-0.178,10.272-0.178,15.406-0.055c2.154,0.051,3.441,1.459,3.492,3.678c0.071,3.132-0.004,6.268,0.059,9.4
		c0.033,1.595-0.697,2.314-2.224,2.319c-3.009,0.01-6.017,0.003-9.026,0.003C28.568,15.557,28.568,15.56,28.568,15.562z
		 M28.601,9.531c0.499,0,1.007,0.059,1.496-0.012c0.93-0.136,2.273,0.502,2.687-0.646c0.487-1.357-0.621-2.298-1.647-3.032
		c-1.605-1.147-3.741-1.072-5.196,0.207c-0.837,0.736-1.832,1.706-1.497,2.806c0.356,1.173,1.73,0.543,2.662,0.667
		C27.595,9.587,28.102,9.533,28.601,9.531z"/>
</g>
</svg>
