<?xml version="1.0" encoding="utf-8"?>
<!-- Generator: Adobe Illustrator 16.0.4, SVG Export Plug-In . SVG Version: 6.00 Build 0)  -->
<!DOCTYPE svg PUBLIC "-//W3C//DTD SVG 1.1//EN" "http://www.w3.org/Graphics/SVG/1.1/DTD/svg11.dtd">
<svg version="1.1" id="Layer_3401" xmlns="http://www.w3.org/2000/svg" xmlns:xlink="http://www.w3.org/1999/xlink" x="0px" y="0px"
	 width="128px" height="128px" viewBox="0 0 128 128" enable-background="new 0 0 128 128" xml:space="preserve">
<g>
	<path d="M31.436,12.176c-0.005,0.005-0.009,0.011-0.015,0.016C31.427,12.187,31.431,12.181,31.436,12.176z"/>
	<polygon points="116.544,114.429 116.365,114.61 116.544,114.429 	"/>
	<path d="M26.808,13.388L26.808,13.388C26.808,13.388,26.808,13.388,26.808,13.388c-0.083,0.084-0.165,0.169-0.248,0.253
		C26.643,13.557,26.725,13.472,26.808,13.388z"/>
	<path d="M118.385,42.514c-4.033-4.151-8.891-7.085-14.152-9.368c-11.656-5.056-23.959-7.027-36.559-7.413
		c-5.252-0.16-10.506-0.071-15.752,0.47c-5.755,0.592-11.431,1.556-17.045,2.95c-1.351,0.335-1.732,0.957-1.847,2.313
		c-0.3,3.54-1.85,6.549-4.573,8.874c-4.436,3.787-10.373,4.443-15.394,1.417c-1.686-1.016-2.515-0.731-3.713,0.56
		c-2.847,3.067-5.245,6.408-6.246,10.499C-0.18,66.244,4.518,78.635,16.697,86.675c5.944,3.924,12.713,5.579,19.821,5.641
		c7.957,0.07,15.914,0.017,23.871,0.016c5.955,0,11.911,0.011,17.867-0.008c1.311-0.004,2.672-0.369,3.924-0.127
		c3.37,0.651,5.732-0.57,8.123-2.955c3.484-3.473,7.839-4.79,12.797-3.339c1.272,0.372,2.471,0.876,3.658,1.423
		c1.122,0.518,2.251,0.615,3.228-0.15c1.79-1.402,3.86-2.402,5.532-3.967c5.511-5.158,8.844-11.399,9.731-18.961
		C126.224,55.94,124.305,48.608,118.385,42.514z M101.031,48.938c-4.988,2.918-10.539,4.138-16.118,5.159
		c-11.175,2.047-22.466,2.247-33.761,1.521c-7.429-0.477-14.766-1.691-21.803-4.283c-0.819-0.302-1.612-0.679-2.402-1.051
		c-0.709-0.334-1.111-0.842-0.774-1.675c0.347-0.856,0.933-0.804,1.708-0.578c3.527,1.026,7.105,1.812,10.743,2.379
		c10.94,1.704,21.945,2.157,32.987,1.743c6.904-0.259,13.814-0.61,20.635-1.844c2.836-0.513,5.651-1.141,8.477-1.717
		c0.25-0.269,0.681-0.459,0.849-0.167C101.82,48.858,101.254,48.793,101.031,48.938z"/>
	<path d="M99.941,87.812c-7.334,0.264-11.602,4.804-11.998,11.633c-0.374,6.424,5.057,11.793,11.435,11.9
		c6.73,0.113,12.017-4.867,12.106-11.464C111.577,93.03,105.907,87.597,99.941,87.812z M107.877,103.052
		c-2.167,5.182-8.631,7.028-13.14,3.742c-0.48-0.35-1.376-0.767-1.116-1.275c0.32-0.625,1.047,0.073,1.573,0.226
		c5.646,1.63,10.839-1.921,11.198-7.651c0.099-1.57-0.665-2.983-0.721-4.518c-0.018-0.012-0.034-0.026-0.053-0.039
		c-0.039-0.023-0.078-0.047-0.117-0.07c0.055,0.008,0.109,0.016,0.163,0.023c0.001,0.029,0.006,0.057,0.007,0.086
		C108.408,95.451,109.358,99.507,107.877,103.052z"/>
	<path d="M19.371,41.318c6.13,0.138,11.247-4.603,11.426-10.586c0.188-6.317-4.493-11.344-10.717-11.506
		c-6.334-0.166-11.277,4.508-11.412,10.79C8.537,36.117,13.334,41.182,19.371,41.318z M14.01,35.828
		c0.315-0.623,0.905,0.025,1.335,0.185c4.496,1.668,9.583-1.217,10.534-6.21c0.31-1.629-0.096-3.119-0.681-4.598
		c-0.1-0.251-0.213-0.575,0.075-0.687c0.155-0.061,0.488,0.146,0.645,0.319c1.415,1.557,2.156,3.375,2.053,5.157
		c0.016,3.765-1.591,6.277-4.589,7.707c-2.872,1.369-5.785,1.15-8.445-0.762C14.528,36.644,13.774,36.292,14.01,35.828z"/>
	<path d="M78.037,106.048c-5.125-0.066-9.19,3.965-9.154,9.074c0.037,5.007,3.99,8.877,9.062,8.869
		c5.009-0.008,9.059-3.979,9.082-8.906C87.052,110.153,83.031,106.112,78.037,106.048z M83.197,119.415
		c-2.279,2.742-6.418,3.27-9.186,1.158c-0.309-0.235-0.78-0.454-0.57-0.943c0.039-0.09,0.629,0.031,0.955,0.097
		c4.164,0.829,7.311-0.773,8.357-4.246c0.518-1.716-0.089-3.37-0.229-5.049c-0.02-0.017-0.035-0.036-0.055-0.053l-0.135-0.128
		l0.179,0.08c0.002,0.034,0.008,0.067,0.011,0.101C85.205,112.86,85.496,116.65,83.197,119.415z"/>
	<path d="M119.568,104.685c-3.771,0.126-6.75,2.991-6.676,6.421c0.079,3.648,3.23,6.604,6.856,6.431
		c3.671-0.177,6.32-3.211,6.157-7.05C125.758,107.018,123.08,104.566,119.568,104.685z M123.207,114.3
		c-1.832,2.073-4.443,2.191-6.842,0.311c-0.056-0.117-0.11-0.233-0.166-0.351c0.115,0.056,0.23,0.112,0.345,0.169l0,0l0,0v-0.001
		c0.776,0.022,1.556,0.106,2.327,0.056c2.752-0.18,4.669-2.715,4.074-5.412c-0.105-0.481-0.327-1.001-0.113-1.483
		c-0.004-0.002-0.006-0.088-0.009-0.088h-0.063l0.104,0.012c-0.014,0.025-0.021,0.09-0.031,0.115
		C124.85,109.852,124.986,112.287,123.207,114.3z"/>
	<path d="M29.239,16.125c3.511,0.013,6.229-2.624,6.247-6.06c0.018-3.402-2.756-6.085-6.259-6.055
		c-3.381,0.028-5.997,2.585-6.082,5.944C23.058,13.384,25.751,16.111,29.239,16.125z M26.441,13.161
		c0.137-0.063,0.253,0.094,0.366,0.227c0,0,0,0,0,0c0,0,0,0,0,0l0,0v0c2.229,0.054,3.673-0.306,4.613-1.196
		c0.006-0.005,0.01-0.011,0.015-0.016c0.182-0.174,0.345-0.368,0.491-0.583c0.3-0.442,0.528-0.974,0.702-1.601
		c0.271-0.978-0.248-1.821-0.137-2.731c-0.021-0.009-0.039-0.02-0.061-0.028l0.043-0.096l0.022,0.058
		c-0.003,0.022-0.002,0.044-0.005,0.066c1.684,0.717,1.712,2.225,1.456,3.642c-0.33,1.82-1.456,3.211-3.312,3.652
		c-1.432,0.339-2.956,0.444-4.075-0.913c-0.093-0.115-0.289-0.295-0.263-0.334C26.348,13.228,26.396,13.182,26.441,13.161z"/>
	<path d="M100.723,48.592c0.104,0.115,0.206,0.23,0.309,0.346c0.223-0.145,0.789-0.08,0.54-0.513
		C101.403,48.133,100.973,48.324,100.723,48.592z"/>
	<path d="M105.619,93.536c0.019,0.013,0.035,0.027,0.053,0.039c-0.001-0.029-0.006-0.057-0.007-0.086L105.619,93.536z"/>
	<path d="M105.502,93.466c0.039,0.023,0.078,0.047,0.117,0.07l0.046-0.047C105.611,93.481,105.557,93.474,105.502,93.466z"/>
	<path d="M82.471,110.379c0.02,0.017,0.035,0.036,0.055,0.053c-0.003-0.033-0.009-0.066-0.011-0.101L82.471,110.379z"/>
	<polygon points="82.336,110.251 82.471,110.379 82.515,110.331 	"/>
	<path d="M122.823,107.658c0.003,0.003,0.005,0.007,0.009,0.009c0.011-0.025,0.018-0.051,0.031-0.076L122.823,107.658z"/>
	<path d="M118.871,114.483c-0.771,0.051-1.551-0.033-2.327-0.056v0.001C117.32,114.45,118.1,114.534,118.871,114.483z"/>
	<polygon points="122.76,107.659 122.823,107.658 122.863,107.591 	"/>
	<path d="M116.544,114.429c-0.114-0.057-0.229-0.113-0.345-0.169c0.056,0.117,0.11,0.233,0.166,0.351
		C116.365,114.61,116.543,114.429,116.544,114.429L116.544,114.429z"/>
	<path d="M116.544,114.429L116.544,114.429c-0.114-0.057-0.229-0.113-0.345-0.169C116.314,114.315,116.43,114.372,116.544,114.429
		L116.544,114.429z"/>
	<path d="M32.431,7.232c0.022,0.009,0.04,0.02,0.061,0.028c0.003-0.022,0.001-0.044,0.005-0.066L32.431,7.232z"/>
	<path d="M31.436,12.176c0.182-0.174,0.345-0.368,0.491-0.583C31.781,11.808,31.618,12.001,31.436,12.176z"/>
	<polygon points="32.475,7.136 32.431,7.232 32.497,7.194 	"/>
	<path d="M26.807,13.388c-0.112-0.133-0.229-0.291-0.366-0.227c-0.046,0.021-0.094,0.067-0.145,0.146
		c-0.025,0.039,0.17,0.219,0.263,0.334C26.643,13.557,26.725,13.472,26.807,13.388z"/>
	<path d="M26.807,13.388C26.808,13.387,26.808,13.387,26.807,13.388c-0.112-0.133-0.229-0.291-0.366-0.227
		C26.578,13.097,26.695,13.254,26.807,13.388z"/>
</g>
</svg>
