<?xml version="1.0" encoding="utf-8"?>
<!-- Generator: Adobe Illustrator 16.0.4, SVG Export Plug-In . SVG Version: 6.00 Build 0)  -->
<!DOCTYPE svg PUBLIC "-//W3C//DTD SVG 1.1//EN" "http://www.w3.org/Graphics/SVG/1.1/DTD/svg11.dtd">
<svg version="1.1" id="Layer_3403" xmlns="http://www.w3.org/2000/svg" xmlns:xlink="http://www.w3.org/1999/xlink" x="0px" y="0px"
	 width="128px" height="128px" viewBox="0 0 128 128" enable-background="new 0 0 128 128" xml:space="preserve">
<g id="nzL21d.tif_1_">
	<g>
		<path fill-rule="evenodd" clip-rule="evenodd" d="M66.908,127.841c-6.373,0.002-12.746,0.027-19.119-0.023
			c-1.023-0.008-2.504,0.569-2.754-1.207c-0.127-0.908-0.072-1.851-0.012-2.772c0.072-1.12,0.976-1.126,1.788-1.183
			c0.651-0.045,0.902-0.432,0.378-0.803c-3.445-2.433-2.799-6.043-2.8-9.463c-0.006-23.059,0.033-46.118-0.045-69.176
			c-0.01-3.107,0.06-5.982,2.642-8.196c0.815-0.699,1.057-1.313-0.348-1.961c-1.606-0.74-0.982-2.429-0.786-3.727
			c0.162-1.072,1.143-1.394,2.152-1.302c1.493,0.136,2.311-0.336,2.661-1.954c0.444-2.046,1.921-3.366,3.859-4.157
			c0.753-0.307,1.407-0.676,0.023-1.077c-1.395-0.403-1.328-1.537-1.03-2.537c0.333-1.118,1.342-0.952,2.313-0.926
			c2.66,0.07,5.324,0.03,7.986-0.008c0.749-0.01,1.819,0.251,1.83-0.98c0.011-1.353-1.092-1.251-2.022-1.258
			c-1.622-0.012-3.243-0.003-4.865-0.015c-0.773-0.005-1.409-0.298-1.452-1.146c-0.043-0.837,0.508-1.291,1.313-1.238
			c1.469,0.096,1.641-0.806,1.774-1.957c0.344-2.983,0.842-5.95,1.16-8.935c0.143-1.337,0.764-1.765,2.018-1.741
			c2.434,0.047,4.868,0.061,7.3,0.001c1.496-0.036,2.022,0.682,2.132,2.073c0.191,2.419,0.51,4.828,0.747,7.244
			c0.159,1.615,0.061,3.356,2.432,3.432c0.509,0.016,0.715,0.565,0.731,1.044c0.022,0.68-0.41,1.103-1.033,1.159
			c-1.036,0.093-2.082,0.08-3.124,0.092c-0.811,0.009-1.623-0.027-2.433-0.013c-0.717,0.014-1.428,0.073-1.425,1.067
			c0.003,0.891,0.567,1.228,1.337,1.236c2.315,0.026,4.633,0.02,6.95,0c0.458-0.004,0.914-0.155,1.374-0.186
			c0.874-0.057,1.707,0.182,1.952,1.079c0.241,0.879,0.352,1.891-0.821,2.337c-0.777,0.295-1.428,0.616-0.17,1.143
			c2.169,0.909,3.656,2.379,4.195,4.725c0.235,1.029,0.839,1.575,1.976,1.491c1.077-0.079,2.274,0.013,2.488,1.309
			c0.214,1.297,0.764,2.934-0.777,3.764c-1.275,0.688-1.153,1.303-0.298,2.048c2.341,2.042,2.519,4.661,2.51,7.553
			c-0.072,24.102-0.064,48.204,0.005,72.305c0.007,2.463-0.361,4.564-2.307,6.229c-0.854,0.731-1.286,1.308,0.461,1.535
			c1.279,0.166,1.575,1.579,1.298,3.712c-0.172,1.317-1.05,1.354-2.002,1.355C80.35,127.843,73.629,127.839,66.908,127.841z
			 M54.758,78.628c0.004,0,0.008,0,0.012,0c0-11.812,0-23.625,0-35.437c0-0.579-0.009-1.157,0.001-1.736
			c0.019-1.028-0.517-1.337-1.497-1.427c-3.724-0.342-4.033-0.12-4.034,3.458c-0.003,23.393-0.002,46.786,0.001,70.179
			c0,0.81-0.005,1.622,0.075,2.426c0.031,0.306,0.241,0.782,0.466,0.848c1.464,0.422,3.042,0.536,4.422,0.012
			c0.958-0.362,0.538-1.655,0.539-2.54C54.765,102.482,54.758,90.555,54.758,78.628z M83.376,78.221
			c0,11.685-0.001,23.37,0.002,35.057c0,0.925,0.008,1.85,0.044,2.773c0.034,0.912,0.647,1.119,1.423,1.093
			c0.665-0.024,1.084-0.324,1.109-1.026c0.025-0.693,0.042-1.388,0.042-2.082c0.007-23.717,0.012-47.436,0.016-71.153
			c0-0.578-0.013-1.155-0.032-1.733c-0.03-0.936-0.648-1.1-1.42-1.08c-0.675,0.018-1.096,0.318-1.124,1.016
			c-0.038,0.924-0.054,1.849-0.054,2.774C83.379,55.313,83.38,66.767,83.376,78.221z M65.281,6.283
			c-0.077-0.781,0.027-1.872-0.955-1.94c-1.028-0.071-1.06,0.99-1.052,1.78c0.008,0.776-0.061,1.781,1.073,1.751
			C65.243,7.849,65.158,6.935,65.281,6.283z"/>
		<path fill-rule="evenodd" clip-rule="evenodd" d="M41.985,3.826c3.924,0.151,7.827,0.762,11.771,0.542
			c0.365-0.02,0.794,0.142,1.083-0.247c-0.34-0.055-0.679-0.125-1.021-0.162c-4.363-0.48-8.728-0.957-13.091-1.434
			c-0.345-0.038-0.696-0.05-1.033-0.123c-0.588-0.125-1.24-0.397-1.143-1.048c0.057-0.384,0.745-0.412,1.224-0.353
			c1.949,0.243,3.898,0.481,5.848,0.715c3.668,0.441,7.336,0.878,11.005,1.317c0.923,0.11,1.959,0.135,2.208,1.283
			c0.292,1.355,0.438,2.768-0.346,4.014c-0.184,0.292-0.811,0.372-1.249,0.428c-3.667,0.478-7.335,0.946-11.006,1.378
			c-2.292,0.27-4.589,0.488-6.887,0.681c-0.257,0.021-0.54-0.275-0.81-0.424c0.219-0.244,0.411-0.667,0.661-0.705
			c2.625-0.396,5.256-0.757,7.893-1.072c2.521-0.302,5.051-0.535,7.577-0.805c0.341-0.037,0.679-0.116,1.018-0.175
			c-0.329-0.059-0.657-0.167-0.985-0.171c-1.851-0.019-3.693,0.002-5.547,0.161c-3.224,0.274-6.467,0.333-9.704,0.452
			c-0.418,0.015-1,0.022-1.064-0.563c-0.065-0.599,0.463-0.743,0.925-0.764c2.429-0.108,4.859-0.207,7.29-0.27
			c2.2-0.057,4.401-0.058,6.601-0.099c0.339-0.006,0.677-0.097,1.015-0.149c-0.271-0.439-0.731-0.303-1.125-0.365
			c-3.901-0.614-7.843-0.539-11.772-0.664c-0.808-0.026-1.62-0.078-2.418-0.197c-0.342-0.051-0.587-0.39-0.503-0.764
			c0.038-0.167,0.3-0.395,0.467-0.4C39.904,3.807,40.944,3.826,41.985,3.826z"/>
	</g>
</g>
</svg>
