<?xml version="1.0" encoding="utf-8"?>
<!-- Generator: Adobe Illustrator 16.0.4, SVG Export Plug-In . SVG Version: 6.00 Build 0)  -->
<!DOCTYPE svg PUBLIC "-//W3C//DTD SVG 1.1//EN" "http://www.w3.org/Graphics/SVG/1.1/DTD/svg11.dtd">
<svg version="1.1" id="Layer_3404" xmlns="http://www.w3.org/2000/svg" xmlns:xlink="http://www.w3.org/1999/xlink" x="0px" y="0px"
	 width="128px" height="128px" viewBox="0 0 128 128" enable-background="new 0 0 128 128" xml:space="preserve">
<path d="M127.174,36.233c-0.007-1.751-0.525-2.317-2.254-2.319c-18.071-0.019-103.59-0.021-121.662-0.005
	c-1.686,0.001-2.408,0.755-2.417,2.429c-0.024,4.953-0.01,2.078-0.019,7.03c-0.001,0.596,0.015,1.251,0.49,1.608
	c0.819,0.616,2.755,1.423,2.754,2.27c-0.005,23.973-0.004,5.245-0.004,29.217c0,4.531-0.004,9.922,0.002,14.452
	c0.003,2.332,0.4,3.585,2.784,3.585c0.106,0,0.211,0,0.316,0c16.017,0,95.48-0.848,111.498-0.842c1.158,0,2.318-0.413,3.476-0.463
	c1.431-0.062,1.61-0.832,1.709-2.269c0.029-0.42-0.349-1.059-0.349-1.479c0-14.068,0-4.399,0-18.467
	c0-14.226,0.355-9.489,0.369-23.714c0-0.656,0.949-1.385,1.536-1.946c0.547-0.524,1.685-1.202,1.685-1.899
	C127.09,38.417,127.193,41.238,127.174,36.233z M117.066,57.564c-0.003,17.75-0.006-1.201-0.01,16.549
	c-0.001,2.922-0.318,3.236-3.27,3.236c-12.009,0.002-100.215,0.033-100.578-0.014c-1.118-0.144-1.775-0.846-1.845-1.99
	c-0.042-0.682-0.025-1.368-0.025-2.053c-0.001-15.011-0.008-11.564-0.008-12.197c0-1.422-0.016-2.845,0.015-4.266
	c0.031-1.439,0.52-1.979,1.949-2.175c0.571-0.078,101.314-0.104,101.993-0.029c1.202,0.131,1.639,0.605,1.758,1.832
	C117.081,56.825,117.066,57.195,117.066,57.564z"/>
</svg>
