<?xml version="1.0" encoding="utf-8"?>
<!-- Generator: Adobe Illustrator 16.0.4, SVG Export Plug-In . SVG Version: 6.00 Build 0)  -->
<!DOCTYPE svg PUBLIC "-//W3C//DTD SVG 1.1//EN" "http://www.w3.org/Graphics/SVG/1.1/DTD/svg11.dtd">
<svg version="1.1" id="Layer_3406" xmlns="http://www.w3.org/2000/svg" xmlns:xlink="http://www.w3.org/1999/xlink" x="0px" y="0px"
	 width="128px" height="128px" viewBox="0 0 128 128" enable-background="new 0 0 128 128" xml:space="preserve">
<g id="_x36_T94Ai.tif">
	<g>
		<path fill-rule="evenodd" clip-rule="evenodd" d="M63.935,127.598c-4.748,0.014-9.486-0.214-14.21-0.68
			c-5.401-0.531-10.763-1.301-15.958-2.944c-2.543-0.805-4.979-1.842-7.105-3.503c-2.009-1.571-3.04-3.546-3.031-6.17
			c0.03-8.924-0.048-17.846-0.056-26.77c0-0.783-0.172-1.343-0.827-1.842c-0.841-0.644-1.542-1.449-2.125-2.354
			c-1.706-2.645-1.493-5.954,0.564-8.347c1.854-2.155,4.235-3.534,6.813-4.623c3.799-1.604,7.794-2.48,11.834-3.189
			c6.216-1.091,12.494-1.543,18.789-1.812c1.037-0.045,1.047-0.047,0.978-1.116c-0.057-0.871-0.153-1.74-0.214-2.61
			c-0.285-4.068-0.145-8.115,0.653-12.125c0.364-1.832,0.967-3.582,1.729-5.286c0.247-0.552,0.481-0.654,1.021-0.335
			c0.979,0.578,2,1.084,3.009,1.608c0.382,0.197,0.611,0.407,0.39,0.885c-1.818,3.933-2.016,8.13-2.005,12.362
			c0.005,1.864,0.217,3.714,0.321,5.57c0.053,0.939,0.139,0.997,1.118,0.998c4.9,0.002,9.791,0.271,14.66,0.777
			c5.656,0.59,11.286,1.417,16.73,3.164c3.203,1.026,6.252,2.365,8.777,4.66c1.475,1.337,2.492,2.942,2.694,4.982
			c0.215,2.189-0.582,4.013-1.999,5.613c-0.276,0.312-0.559,0.651-0.908,0.855c-1.097,0.637-1.281,1.575-1.275,2.77
			c0.046,8.62-0.064,17.24,0.071,25.857c0.051,3.285-1.379,5.473-3.957,7.168c-2.636,1.73-5.574,2.729-8.594,3.511
			c-3.973,1.027-8.02,1.633-12.098,2.083C74.478,127.334,69.215,127.588,63.935,127.598z M30.796,102.63c0.057,0,0.114,0,0.171,0
			c0,3.491-0.001,6.983,0,10.476c0.001,2.518,0.001,2.521,2.426,3.256c3.049,0.924,6.14,1.678,9.274,2.246
			c3.061,0.556,6.152,0.896,9.246,1.189c1.095,0.104,1.102,0.063,1.116-0.976c0.052-3.908,0.111-7.817,0.15-11.725
			c0.03-2.999,0.042-5.997,0.042-8.995c0-0.571,0.126-0.781,0.782-0.711c2.677,0.291,5.366,0.482,8.059,0.541
			c4.857,0.104,9.71,0.147,14.564-0.192c2.197-0.153,4.386-0.348,6.565-0.64c3.081-0.415,6.13-1.003,9.066-2.076
			c0.607-0.222,0.682-0.135,0.721,0.564c0.008,0.152,0.004,0.305,0.004,0.456c0,6.377,0,12.753-0.002,19.13
			c0,0.342-0.014,0.683-0.012,1.022c0,0.401,0.078,0.667,0.598,0.475c0.743-0.278,1.505-0.513,2.269-0.739
			c0.881-0.264,1.196-0.775,1.19-1.746c-0.043-7.629-0.021-15.258-0.02-22.887c0-0.228-0.01-0.455-0.002-0.684
			c0.016-0.503-0.193-0.701-0.695-0.542c-0.396,0.126-0.791,0.264-1.196,0.367c-4.336,1.122-8.737,1.86-13.188,2.384
			c-5.282,0.621-10.582,0.919-15.892,1.005c-6.721,0.111-13.421-0.252-20.102-1.024c-3.733-0.432-7.435-1.016-11.09-1.879
			c-1.142-0.271-2.271-0.597-3.4-0.916c-0.42-0.119-0.667-0.064-0.644,0.44c0.012,0.265-0.001,0.53-0.001,0.796
			C30.796,95.041,30.796,98.836,30.796,102.63z M63.896,84.071c0-0.014,0-0.028,0-0.042c1.861,0,3.719,0.015,5.579-0.004
			c2.924-0.027,5.837-0.27,8.744-0.536c3.435-0.315,6.853-0.782,10.24-1.462c3.234-0.648,6.424-1.479,9.617-2.293
			c0.107-0.027,0.302-0.088,0.3-0.115c-0.021-0.177-0.187-0.214-0.333-0.251c-1.212-0.302-2.428-0.594-3.638-0.902
			c-3.638-0.926-7.296-1.728-11.023-2.217c-2.747-0.359-5.502-0.612-8.261-0.849c-2.648-0.227-5.304-0.249-7.955-0.37
			c-0.904-0.04-0.918,0.009-0.716,0.861c0.312,1.327,0.634,2.653,0.971,3.975c0.146,0.57,0.07,0.926-0.599,1.063
			c-1.077,0.221-2.145,0.495-3.204,0.788c-0.602,0.167-0.821-0.104-0.947-0.63c-0.386-1.624-0.807-3.237-1.183-4.862
			c-0.282-1.215-0.26-1.22-1.449-1.194c-0.152,0.003-0.303,0.006-0.455,0.011c-5.725,0.217-11.432,0.61-17.098,1.521
			c-4.237,0.682-8.375,1.783-12.534,2.803c-0.144,0.034-0.362,0.071-0.353,0.227c0.008,0.146,0.234,0.11,0.367,0.145
			c4.289,1.122,8.582,2.238,12.971,2.9c2.472,0.373,4.952,0.737,7.442,0.939c3.284,0.264,6.575,0.499,9.875,0.495
			C61.469,84.07,62.683,84.071,63.896,84.071z"/>
		<path fill-rule="evenodd" clip-rule="evenodd" d="M87.397,40.319c0.105,3.689-0.495,7.241-2.157,10.58
			c-1.89,3.793-4.899,6.412-8.609,8.304c-1.933,0.986-3.973,1.698-6.073,2.235c-0.22,0.056-0.444,0.092-0.67,0.123
			c-0.407,0.057-0.44-0.107-0.306-0.456c0.611-1.555,1.108-3.145,1.498-4.77c0.635-2.639,0.964-5.302,0.617-8.009
			c-0.501-3.902-2.604-6.774-6.806-7.672c-6.779-1.448-14.058,3.174-15.755,9.916c-0.549,2.182-0.465,4.361-0.297,6.558
			c0.014,0.178,0.159,0.413-0.041,0.514c-0.194,0.098-0.333-0.129-0.457-0.263c-2.608-2.789-4.51-5.984-5.575-9.665
			c-1.405-4.857-0.925-9.593,0.82-14.275c1.068-2.865,2.523-5.519,4.309-7.979c1.402-1.932,3.048-3.668,4.823-5.274
			c3.036-2.747,6.377-5.116,9.53-7.717c2.633-2.172,5.113-4.519,7.338-7.129c1.186-1.393,2.19-2.902,3.199-4.416
			c0.464-0.697,0.493-0.715,0.912,0.047c1.11,2.028,2.218,4.06,3.281,6.114c2.219,4.279,4.235,8.65,5.976,13.146
			c2.187,5.643,3.867,11.418,4.431,17.472C87.466,38.568,87.397,39.447,87.397,40.319z"/>
	</g>
</g>
</svg>
