<?xml version="1.0" encoding="utf-8"?>
<!-- Generator: Adobe Illustrator 16.0.4, SVG Export Plug-In . SVG Version: 6.00 Build 0)  -->
<!DOCTYPE svg PUBLIC "-//W3C//DTD SVG 1.1//EN" "http://www.w3.org/Graphics/SVG/1.1/DTD/svg11.dtd">
<svg version="1.1" id="Layer_3506" xmlns="http://www.w3.org/2000/svg" xmlns:xlink="http://www.w3.org/1999/xlink" x="0px" y="0px"
	 width="128px" height="128px" viewBox="0 0 128 128" enable-background="new 0 0 128 128" xml:space="preserve">
<g id="R8gTAy.tif">
	<g>
		<path fill-rule="evenodd" clip-rule="evenodd" d="M67.873,4.492c1.903,2.842,2.88,5.759,3.139,8.906
			c0.351,4.256,0.659,8.516,0.95,12.777c0.057,0.833,0.219,1.565,0.809,2.193c0.242,0.257,0.427,0.602,0.545,0.939
			c0.428,1.222-0.036,2.006-1.307,2.127c-4.699,0.447-9.403,0.477-14.108,0.084c-0.363-0.031-0.725-0.095-1.083-0.166
			c-1.707-0.344-2.393-1.944-1.283-3.271c0.602-0.72,0.735-1.442,0.774-2.293c0.2-4.343,0.581-8.679,1.22-12.973
			c0.597-4.013,2.659-7.381,5.446-10.289c0.742-0.774,2.839-0.554,3.557,0.27C67.06,3.403,67.581,4.014,67.873,4.492z"/>
		<path fill-rule="evenodd" clip-rule="evenodd" d="M69.964,35.274c0.178,0.254,0.187,0.547,0.185,0.841
			c-0.025,3.542-0.056,7.084-0.073,10.626c-0.002,0.654-0.181,1.165-0.891,1.302c-0.705,0.137-1.239-0.321-1.25-1.133
			c-0.02-1.497,0.01-2.995,0.02-4.492c0.015-2.117,0.015-4.235,0.049-6.353c0.015-0.919,0.508-1.379,1.251-1.251
			C69.554,34.865,69.807,34.999,69.964,35.274z"/>
		<path fill-rule="evenodd" clip-rule="evenodd" d="M61.357,47.841c-0.624,0.43-1.478,0.121-1.642-0.619
			c-0.062-0.28-0.043-0.581-0.041-0.873c0.021-3.321,0.043-6.643,0.068-9.965c0.002-0.254,0-0.514,0.042-0.764
			c0.103-0.607,0.521-0.859,1.095-0.844c0.533,0.014,0.9,0.283,0.982,0.839c0.031,0.215,0.027,0.437,0.025,0.656
			c-0.021,3.395-0.043,6.79-0.073,10.185C61.81,46.96,61.861,47.496,61.357,47.841z"/>
		<path fill-rule="evenodd" clip-rule="evenodd" d="M54.671,34.132c0.156,0.262,0.171,0.556,0.169,0.847
			c-0.023,3.606-0.049,7.213-0.076,10.819c-0.001,0.146-0.003,0.294-0.031,0.436c-0.081,0.415-0.225,0.817-0.742,0.775
			c-0.429-0.034-0.604-0.365-0.629-0.769c-0.018-0.291-0.024-0.582-0.022-0.873c0.021-3.316,0.042-6.63,0.068-9.945
			c0.003-0.398-0.05-0.811,0.136-1.184C53.806,33.716,54.363,33.668,54.671,34.132z"/>
		<path fill-rule="evenodd" clip-rule="evenodd" d="M74.968,47.415c-0.469,0.191-0.808,0.028-0.946-0.424
			c-0.094-0.306-0.093-0.647-0.091-0.972c0.016-3.424,0.036-6.849,0.067-10.272c0.01-1.05,0.269-1.536,0.76-1.438
			c0.812,0.162,0.669,0.853,0.667,1.41c-0.01,3.424-0.037,6.848-0.069,10.271C75.351,46.49,75.405,47.023,74.968,47.415z"/>
		<path fill-rule="evenodd" clip-rule="evenodd" d="M74.911,32.992c-0.481,0.305-1.038,0.338-1.575,0.398
			c-5.38,0.613-10.764,0.655-16.15,0.074c-0.906-0.098-1.805-0.256-2.676-0.538c-0.16-0.052-0.411-0.076-0.358-0.308
			c0.037-0.161,0.246-0.085,0.382-0.064c6.604,0.995,13.227,0.786,19.853,0.287c0.18-0.014,0.361,0.003,0.542,0.007
			C74.923,32.896,74.917,32.944,74.911,32.992z"/>
		<path fill-rule="evenodd" clip-rule="evenodd" d="M76.196,47.276c0.01-3.495,0.023-6.991,0.024-10.486
			c0-0.801-0.021-1.603-0.08-2.401c-0.091-1.221-0.618-2.157-1.838-2.591c-0.161-0.058-0.453-0.13-0.389-0.289
			c0.106-0.261,0.382-0.08,0.559-0.016c0.901,0.326,1.598,0.873,1.825,1.86c0.098,0.424,0.217,0.856,0.227,1.286
			c0.096,4.224,0.09,8.448-0.087,12.669C76.357,47.298,76.276,47.287,76.196,47.276z"/>
		<path fill-rule="evenodd" clip-rule="evenodd" d="M52.158,47.202c-0.059-3.791-0.077-7.581,0.069-11.37
			c0.084,0.012,0.169,0.023,0.253,0.035c0.038,3.791,0.043,7.581-0.061,11.371C52.332,47.226,52.245,47.214,52.158,47.202z"/>
		<path fill-rule="evenodd" clip-rule="evenodd" d="M65.537,0.519c0.097,0.344,0.513,0.76,0.018,1.188
			c-0.209,0.181-1.784,0.061-1.912-0.096c-0.218-0.267,0.055-1.204,0.43-1.479C64.524-0.201,65.139-0.063,65.537,0.519z"/>
		<path fill-rule="evenodd" clip-rule="evenodd" d="M52.421,33.336c0.143-1.303,0.979-1.952,2.151-2.278
			c0.128-0.036,0.326-0.111,0.392,0.038c0.072,0.162-0.117,0.243-0.246,0.272c-1.102,0.25-1.737,0.972-2.066,2.011
			C52.576,33.364,52.499,33.35,52.421,33.336z"/>
		<path fill-rule="evenodd" clip-rule="evenodd" d="M52.227,35.832c-0.074-0.739-0.051-1.474,0.132-2.197
			c0.083,0.017,0.165,0.032,0.248,0.047c-0.042,0.728-0.084,1.456-0.127,2.185C52.396,35.855,52.311,35.844,52.227,35.832z"/>
		<path fill-rule="evenodd" clip-rule="evenodd" d="M53.122,48.617c-1.054-0.125-1.054-0.125-0.964-1.415
			c0.087,0.012,0.174,0.024,0.261,0.036c0.05,0.507-0.049,1.109,0.74,1.133C53.146,48.453,53.134,48.535,53.122,48.617z"/>
		<path fill-rule="evenodd" clip-rule="evenodd" d="M74.928,32.849c0.049,0.03,0.097,0.062,0.146,0.093
			c-0.054,0.017-0.108,0.033-0.162,0.051C74.917,32.944,74.923,32.896,74.928,32.849z"/>
		<path fill-rule="evenodd" clip-rule="evenodd" d="M52.359,33.635c0.021-0.1,0.042-0.199,0.062-0.299
			c0.078,0.014,0.154,0.028,0.231,0.043c-0.016,0.102-0.031,0.202-0.046,0.303C52.524,33.667,52.441,33.651,52.359,33.635z"/>
		<g>
			<path d="M86.948,66.158c-0.998-4.401-3.211-7.951-7.172-10.286c-1.225-0.722-1.223-0.726-0.867-2.11
				c0.457-1.783-0.175-2.9-1.945-3.418c-0.314-0.093-0.65-0.119-0.957-0.228c-0.436-0.154-0.631-1.025-0.258-1.134
				c1.017-0.295,0.72-1.014,0.688-1.673c-0.08-0.011-0.161-0.022-0.241-0.033c-0.131,1.247-0.131,1.257-1.407,1.37
				c-2.435,0.216-4.876,0.32-7.319,0.36c-4.784,0.075-9.552-0.184-14.311-0.636c-0.012,0.082-0.024,0.164-0.037,0.246
				c0.169,1.411,0.138,1.451-1.222,1.646c-0.18,0.025-0.361,0.056-0.539,0.097c-1.338,0.313-1.912,1.076-1.834,2.438
				c0.031,0.55,0.149,1.088,0.347,1.6c0.225,0.582,0.094,0.924-0.506,1.203c-3.642,1.698-6,4.556-7.337,8.297
				c-1.259,3.522-1.589,7.188-1.604,10.896c-0.022,5.185-0.025,10.37-0.039,15.555c-0.027,10.299-0.056,20.597-0.082,30.896
				c-0.003,1.28,0.062,2.555,0.393,3.803c0.353,1.33,1.195,2.133,2.551,2.404c0.76,0.153,1.522,0.171,2.291,0.121
				c6.418-0.413,12.843-0.498,19.272-0.371c5.808,0.115,11.604,0.455,17.399,0.83c2.532,0.166,3.902-0.895,4.504-3.349
				c0.307-1.247,0.441-2.521,0.457-3.801c0.179-15.923,0.355-31.845,0.52-47.767C87.717,70.77,87.469,68.447,86.948,66.158z
				 M56.913,51.47c0.017-0.005,0.033-0.002,0.05-0.008c0.104,0.022,0.209,0.045,0.313,0.069c0.008,0.006,0.018,0.009,0.026,0.015
				c1.225-0.101,2.443,0.085,3.664,0.118c3.09,0.083,6.178,0.079,9.267-0.036c0.344-0.013,0.695-0.09,1.032,0.052
				c0.015-0.002,0.03-0.004,0.045-0.006c0.026-0.005,0.054-0.009,0.08-0.014c0.105-0.047,0.215-0.066,0.329-0.057
				c0.033-0.005,0.065-0.011,0.099-0.017c0.161-0.02,0.322-0.039,0.483-0.059c0.068-0.066,0.12-0.028,0.065,0.036
				c-0.01,0.011-0.008,0.013-0.013,0.021c0.005,0.015-0.002,0.026-0.008,0.028c0.006-0.002,0.013-0.013,0.008-0.028
				c-0.005-0.013-0.019-0.028-0.056-0.041c-0.161,0.021-0.322,0.042-0.484,0.063c-0.032-0.008-0.062,0-0.095-0.003
				c-0.114-0.01-0.224,0.009-0.329,0.057c-0.027,0.013-0.057,0.016-0.084,0.032c-0.014-0.006-0.027-0.007-0.041-0.013
				c-4.382,0.627-8.768,0.694-13.158,0.09c-0.278-0.038-0.563-0.061-0.806-0.225c-0.01,0.001-0.02,0-0.03,0.001
				c-0.104-0.023-0.208-0.045-0.313-0.067C56.944,51.476,56.928,51.473,56.913,51.47c-0.422,0.113-0.788-0.079-1.161-0.235
				C56.14,51.312,56.526,51.391,56.913,51.47z M53.272,55.788c0.102,0.019,0.204,0.036,0.307,0.054c0.1,0.02,0.2,0.04,0.299,0.06
				c0.008,0.009,0.019,0.013,0.027,0.021c7.268,0.712,14.541,0.618,21.816,0.15c0.027-0.009,0.056-0.015,0.083-0.024
				c0.023,0.001,0.046,0.001,0.07,0.002c-0.024,0.006-0.05,0.011-0.074,0.018c-0.026,0.002-0.053,0.003-0.079,0.004
				c-2.265,0.765-4.614,1.055-6.981,1.245c-4.638,0.374-9.235,0.153-13.765-0.984c-0.372-0.092-0.775-0.116-1.07-0.41
				c-0.011-0.001-0.021-0.002-0.032-0.003c-0.1-0.021-0.2-0.039-0.299-0.059c-0.103-0.02-0.205-0.037-0.307-0.056
				c-0.105-0.024-0.21-0.048-0.317-0.073C53.058,55.751,53.165,55.77,53.272,55.788z M79.791,83.097
				c-0.072,9.751-0.135,19.502-0.209,29.254c-0.003,0.386,0.115,0.806-0.167,1.144c-0.365,0.168-0.735,0.104-1.097,0.101
				c-8.218-0.053-16.435-0.109-24.653-0.165c-1.789-0.013-3.578-0.018-5.368-0.037c-1.018-0.012-1.038-0.024-1.032-1.057
				c0.042-6.609,0.091-13.221,0.138-19.83c0.026-3.543,0.062-7.086,0.069-10.628c0.001-0.651,0.107-0.98,0.897-0.974
				c9.823,0.093,19.646,0.15,29.47,0.216C79.817,81.134,79.806,81.135,79.791,83.097z"/>
		</g>
		<path fill-rule="evenodd" clip-rule="evenodd" d="M75.801,56.068c0.024-0.007,0.05-0.012,0.074-0.018
			c-0.024-0.001-0.047-0.001-0.07-0.002L75.801,56.068z"/>
		<path fill-rule="evenodd" clip-rule="evenodd" d="M72.3,51.544c0.139,0.047-0.026,0.128,0.068,0.02
			c0.055-0.064,0.003-0.102-0.065-0.036L72.3,51.544z"/>
		<path fill-rule="evenodd" clip-rule="evenodd" d="M71.815,51.607c0.162-0.021,0.323-0.042,0.484-0.063l0.003-0.016
			c-0.161,0.02-0.322,0.039-0.483,0.059L71.815,51.607z"/>
		<path fill-rule="evenodd" clip-rule="evenodd" d="M71.308,51.692c0.158-0.093,0.327-0.13,0.508-0.085l0.004-0.02
			c-0.169,0.028-0.339,0.058-0.508,0.087L71.308,51.692z"/>
		<path fill-rule="evenodd" clip-rule="evenodd" d="M53.575,55.861c0.099,0.02,0.199,0.038,0.299,0.059l0.004-0.019
			c-0.1-0.02-0.2-0.04-0.299-0.06L53.575,55.861z"/>
		<path fill-rule="evenodd" clip-rule="evenodd" d="M53.579,55.842c-0.103-0.018-0.205-0.035-0.307-0.054l-0.004,0.018
			c0.102,0.019,0.204,0.036,0.307,0.056L53.579,55.842z"/>
		<path fill-rule="evenodd" clip-rule="evenodd" d="M52.953,55.732c0.105,0.025,0.209,0.049,0.315,0.073l0.004-0.018
			c-0.107-0.019-0.214-0.037-0.321-0.056H52.953z"/>
		<path fill-rule="evenodd" clip-rule="evenodd" d="M57.277,51.531c-0.104-0.024-0.209-0.046-0.313-0.069
			c0,0-0.003,0.017-0.004,0.017c0.105,0.022,0.209,0.044,0.313,0.067L57.277,51.531z"/>
		<path fill-rule="evenodd" clip-rule="evenodd" d="M78.461,112.686c-0.224,0.013-0.477,0.041-0.729,0.039
			c-9.494-0.064-18.988-0.129-28.481-0.2c-1.104-0.008-1.114-0.023-1.105-1.203c0.046-7.267,0.098-14.533,0.147-21.8
			c0.015-2.153,0.027-4.307,0.049-6.461c0.013-1.271,0.019-1.285,1.278-1.275c6.791,0.051,13.582,0.11,20.374,0.164
			c2.629,0.021,5.258,0.029,7.886,0.056c1.023,0.011,1.041,0.026,1.034,1.043c-0.063,9.567-0.131,19.134-0.204,28.7
			C78.707,112.059,78.808,112.412,78.461,112.686z"/>
	</g>
</g>
</svg>
