<?xml version="1.0" encoding="utf-8"?>
<!-- Generator: Adobe Illustrator 16.0.4, SVG Export Plug-In . SVG Version: 6.00 Build 0)  -->
<!DOCTYPE svg PUBLIC "-//W3C//DTD SVG 1.1//EN" "http://www.w3.org/Graphics/SVG/1.1/DTD/svg11.dtd">
<svg version="1.1" id="Layer_3601" xmlns="http://www.w3.org/2000/svg" xmlns:xlink="http://www.w3.org/1999/xlink" x="0px" y="0px"
	 width="128px" height="128px" viewBox="0 0 128 128" enable-background="new 0 0 128 128" xml:space="preserve">
<g>
	<path fill-rule="evenodd" clip-rule="evenodd" d="M103.752,79.005c1.362-4.165,1.032-8.286,1.135-12.489
		c-2.137-0.68-3.794,0.71-5.498,0.287c-0.272,0.519-0.568,0.81-0.53,1.047c0.553,3.398-1.164,6.37-1.797,9.54
		c-0.223,1.11-0.527,2.501-2.483,2.208c-0.135-4.916,3.197-9.452,1.321-14.645c-1.504-0.995-3.312-0.493-5.252-0.385
		c-0.991,3.937-1.063,7.982-2.089,11.093c-0.713,1.491-1.822,1.159-2.404,1.972c3.542,1.842,7.226,3.348,10.271,5.636
		c1.817-0.666,1.093-3.202,3.073-3.374c0.719,0.244,0.863,0.844,1.01,1.459c-0.078,1.112-1.302,1.893-0.85,3.513
		c3.214,1.142,6.645,2.359,10.095,3.585c-0.228,2.462-2.204,1.447-3.58,2.111c-0.866,2.397-3.093,4.203-4.395,6.51
		c1.136,2.262,3.757,2.902,4.49,5.045c-0.208,0.852-0.637,1.201-1.438,1.151c-1.7-0.524-2.048-2.793-4.031-3.28
		c-2.22,0.234-3.177,2.66-5.259,3.115c0.159,1.257,0.964,1.85,1.313,2.68c0.33,0.781,0.571,1.559-0.471,2.432
		c-2.405-0.954-2.917-3.576-4.531-5.187c1.243-2.208,3.892-1.824,5.146-3.591c1.244-1.754,2.782-3.305,3.962-5.096
		c1.061-1.612,3.332-2.711,2.518-5.348c-1.647-1.231-3.602-1.67-5.814-2.018c-2.963,4.741-7.57,7.63-11.472,11.313
		c-1.576-1.258-0.772-2.04-0.013-2.728c1.753-1.583,3.581-3.083,5.326-4.674c1.517-1.383,2.979-2.829,4.168-4.938
		c-2.824-2.837-6.398-4.476-9.896-6.225c-1.629,0.926-2.485,2.317-3.537,3.574c-2.375,2.838-4.942,5.511-8.747,6.225
		c-0.298,1.09,0.437,1.436,0.945,1.868c0.797,0.677,1.524,1.389,1.782,2.444c0.576,2.371,1.875,4.292,3.547,5.652
		c0.531,1.302-0.814,1.859-0.645,2.89c1.967,4.436,3.117,9.288,6.467,12.872c-0.23,1.074-0.777,1.418-1.738,1.43
		c-4.434-3.475-4.439-9.386-7.141-14.027c-2.015,0.539-3.648,1.745-5.832,1.794c0.41,5.38,3.521,9.635,5.2,14.333
		c-0.655,0.988-0.655,0.988-1.671,1.509c-2.219-1.757-1.904-4.815-3.328-6.998c-1.415-2.168-1.891-4.718-2.34-7.3
		c-3.441-0.556-7.243,1.085-10.174-2.068c1.661-1.553,2.948,0.118,4.303-0.12c1.288-0.226,2.646-0.048,3.422-0.048
		c1.531-0.636,0.847-2.119,2.521-2.533c0.428-0.082,0.764,1.02,1.804,1.192c2.015-0.182,3.893-1.048,5.534-2.925
		c-1.407-3.293-3.284-6.277-5.352-8.945c-2.246-0.266-4.419,1.41-6.203-0.446c0.092-1.177,0.782-1.362,1.536-1.411
		c3.858-0.25,7.343-1.748,10.774-3.143c2.487-3.045,6.148-5.084,6.588-8.739c0.896-1.266,2.01-0.849,2.529-1.652
		c1.232-2.509,1.684-5.245,1.711-8.022c0.027-2.562-0.215-5.125-0.347-7.847c1.985,0.313,1.864,1.905,2.77,2.928
		c1.97,0.247,4.053,0.364,5.851-0.657c0.709-1.245-0.471-2.148-0.102-3.166c1.802-0.223,1.802-0.223,3.283,5.707
		c1.641,0.158,3.336,0.59,4.977-0.584c0.316-1.5,0.41-2.993,0.104-4.374c-0.865-0.637-1.521-0.3-2.181-0.026
		c-0.681,0.283-1.358,0.526-2.067-0.22c0.063-2.507,2.74-1.52,3.81-2.691c0.476-0.94-0.081-1.522-0.69-2.079
		c-1.672-0.211-2.91,1.53-4.869,1.031c0.201-2.588,3.041-1.82,4.133-3.774c-0.854-3.991-3.254-7.449-6.225-10.562
		c-1.406,0.641-0.629,2.153-1.554,2.667c-0.778,0.62-1.441-0.3-2.274,0.118c-0.711,0.582,0.435,1.446-0.204,2.401
		c-1.37,1.051-2.202,0.172-2.835-1.204c-1.21-2.633-2.787-5.027-4.648-7.238c-0.789-0.937-1.529-2.025-3.045-1.521
		c-0.805,0.272-0.417,1.395-1.694,1.786c-3.631-2.413-8.085-3.793-12.679-4.731c-4.707-0.961-9.211,0.821-13.798,1.582
		c-0.346-1.861,0.798-2.229,1.712-2.438c5.42-1.236,10.85-2.324,16.385-0.471c2.797,0.937,5.904,1.015,8.721,3.97
		c-0.537-2.79,1.787-3.18,2.055-4.938c0.588,0,1.186,0,1.803,0c5.105-5.409,11.544-9.398,15.616-15.354
		c1.479-0.102,1.977,0.424,2.183,1.473c-0.454,1.123-1.99,1.782-1.646,3.288c-4.346,1.828-6.996,5.408-10.568,8.496
		c3.165,2.75,5.533,5.786,7.922,8.763c4.581-2.604,8.938-5.08,13.236-7.522c0.671-0.062,1.047,0.216,1.312,0.908
		c-0.689,2.068-2.921,2.242-4.476,3.251c-1.62,1.052-3.478,1.746-4.977,3.393c2.98,2.962,2.708,7.713,5.835,10.454
		c0.997,0.153,1.554-0.377,2.188-0.683c1.017-0.489,1.988-1.258,3.056-1.427c4.633-0.734,8.633-3.187,13.01-4.592
		c1.035-0.332,2.122-1.034,3.061,0.899c-3.492,1.445-6.854,3.062-10.365,4.227c-3.494,1.159-6.964,2.254-10.275,4.251
		c1.012,4.135,1.336,8.09,1.734,11.95c2.929,1.321,6.164-1.135,8.812,1.338c-1.744,2.482-4.069,0.655-6.006,0.979
		c-2.075,0.347-4.195,0.754-6.204,0.341c-0.871,0.961-0.639,1.934-0.518,2.807c0.357,2.576-0.258,5.115-0.177,7.688
		C106.94,77.706,105.938,78.646,103.752,79.005z M95.149,37.958c-2.174-2.622-4.162-5.417-6.851-7.66
		c-1.208,0.42-1.98,1.058-2.271,2.36c3.118,1.711,5.578,4.053,7.421,6.669C94.429,39.227,94.791,38.922,95.149,37.958z
		 M104.845,50.709c1.398-0.739,1.227-1.427,0.752-2.036c-1.221-1.572-1.75-3.415-2.27-5.283c-0.439-1.582-1.249-2.998-2.228-4.309
		c-0.169-0.226-0.487-0.339-0.718-0.493c-0.705,0.281-1.402,0.502-1.667,1.954C102.151,42.702,102.79,47.058,104.845,50.709z
		 M106.933,56.576c-0.02,2.106-0.784,4.288,0.49,6.455c1.243-1.844,0.958-6.817-0.469-10.756
		C105.12,53.595,105.12,53.633,106.933,56.576z M90.763,42.191c0.361-3.484-2.804-7.033-6.461-7.654
		C86.881,36.662,88.452,39.423,90.763,42.191z"/>
	<path fill-rule="evenodd" clip-rule="evenodd" d="M62.396,84.64c-4.628-1.826-9.122-3.999-14.205-5.476
		c-1.283-1.477-3.227-2.665-4.48-4.61c-3.001-4.653-2.19-9.53-0.933-14.411c0.457-1.771,1.508-3.355,1.859-5.202
		c0.238-1.25,1.085-2.177,2.115-2.934c0.98-0.721,2.139-1.223,2.881-2.239c-0.303-0.972-0.875-1.645-2.157-2.139
		c-3.072,1.863-6.019,4.043-7.11,7.916c-1.375,0.166-1.794-0.551-2.074-1.865c2.864-3.961,6.542-7.183,11.298-9.548
		c0.908,1.797,0.542,3.998,2.747,5.002c1.676-0.791,3.608-1.403,5.424-1.038c1.095-0.769,0.996-1.534,0.818-2.325
		c-1.199-0.369-2.038,0.566-3.057,0.515c-0.538-0.139-0.9-0.443-0.972-1.024c2.646-2.848,7.145-2.916,10.344-0.072
		c-0.73,2.06-2.309,0.877-3.496,0.836c-0.717,0.744-0.37,1.354,0.24,2.156c8.116-0.909,13.762,2.803,17.764,10.643
		c-0.101-0.105,0.42-0.095,0.932-0.098c0.4-0.002,0.801-0.063,1.154-0.093c0.114-0.262,0.277-0.448,0.248-0.597
		c-0.221-1.14-0.833-2.076-1.564-2.957c-0.457-0.55-0.894-1.128-1.258-1.742c-0.258-0.435-0.377-0.95-0.562-1.44
		c-2.273-1.11-3.952-3.042-5.997-4.48c-1.961-1.381-4.334-2.044-6.574-3.224c0.874-1.392,1.824-1.125,2.665-0.898
		c2.617,0.705,4.969,1.944,6.969,3.783c0.922,0.847,1.831,1.627,3.238,1.555c0.153-1.173-1.899-1.845-0.544-3.347
		c3.153,0.822,3.721,5.097,7.533,6.109c-1.036-3.156-2.242-5.502-3.972-7.648c-1.676-2.08-4.182-3.069-6.291-4.612
		c1.083-1.729,2.179-1.049,3.148-0.6c3.295,1.525,5.604,4.102,7.371,7.196c0.808,1.414,1.522,2.881,2.582,4.11
		c2.434-0.36,4.652-1.039,6.511-2.188c1.04,0.165,1.508,0.61,1.512,1.471c-0.137,0.655-0.54,1.183-1.135,1.361
		c-3.879,1.166-8.054,1.311-11.081,3.462c-1.769-0.211-1.861-1.608-3.388-2.314c1.733,3.153,3.489,5.761,4.232,8.538
		c-0.067,1.355-1.362,1.457-1.787,2.617c0.663,2.672,0.812,5.589,0.296,8.586c-0.37,2.152-0.93,4.145-1.914,6.105
		c-0.866,1.727-1.939,3.095-3.635,4.006c-0.812,0.438-1.539,0.971-2.02,1.833c-1.211,2.168-3.12,3.009-5.586,3.157
		c-3.334,0.201-6.652,0.681-9.973,1.075c-3.116,0.37-5.978-1.117-7.362-3.907c-0.19-0.382-0.113-0.795,0.161-1.217
		c0.798-0.643,1.515-0.326,2.04,0.42c1.87,2.655,4.327,2.782,7.088,1.744c0.058,0.035,0.114,0.071,0.171,0.107
		C62.539,84.68,62.467,84.66,62.396,84.64z M80.104,61.856c0.369,3.7,0.703,7.357-0.615,10.901c-1.385,3.726-4.57,5.878-7.699,7.995
		c0.279,0.69,0.381,1.086,0.592,1.412c0.148,0.233,0.443,0.372,0.646,0.532C81.305,78.684,83.031,69.883,80.104,61.856z
		 M69.212,81.799c-1.628,0.51-2.979,1.584-4.463,2.518c1.816-0.173,3.676,0.657,5.439-0.315
		C69.924,82.79,69.924,82.79,69.212,81.799z"/>
	<path fill-rule="evenodd" clip-rule="evenodd" d="M45.568,87.626c0.394,1.425,0.688,2.494,1.015,3.679
		c3.662,1.812,7.29,3.709,11.439,4.253c1.363,0.179,2.446,0.569,1.658,2.733c-6.216,0.097-11.045-3.606-16.365-6.041
		c-2.234,1.612-3.287,3.23-3.544,5.666c1.651,0.3,2.613,1.588,3.79,2.712c3.708,3.544,8.073,5.989,13.236,6.685
		c1.795,0.241,3.599,0.981,5.424,0.1c0.928,1.003,2.799,0.559,3.07,2.777c-3.408,0.984-6.619-0.344-9.851-0.716
		c-3.468-0.399-6.357-2.225-9.254-3.982c-2.895-1.756-5.399-4.042-8.013-6.144c-1.429,0.711-1.872,2.051-2.444,3.201
		c-2.081,4.177-5.28,7.554-7.917,11.33c-2.814,4.03-5.782,7.964-7.352,12.539c-1.008,0.564-1.731,0.536-2.23-0.307
		c-0.362-0.842,0.036-1.499,0.416-2.084c2.289-3.531,4.421-7.188,6.976-10.519c5.624-7.334,10.38-15.242,15.807-22.976
		c-1.767-0.535-2.84-1.816-4.338-2.803c-4.08,2.762-6.71,7.09-10.788,9.963c-0.138-1.768-0.138-1.768,3.019-5.886
		c-1.771-3.043-4.038-5.753-6.562-8.382c-4.727,0.798-8.175,4-12.201,5.914c-4.012,1.906-8.104,3.845-11.346,6.785
		c-1.388-0.699-1.254-1.491-0.672-2.189c0.446-0.535,1.062-0.981,1.687-1.307c4.369-2.275,8.512-4.984,13.07-6.899
		c1.048-0.44,2.108-0.856,2.555-2.04c-1.026-3.23-1.905-6.464-2.481-9.811c-0.557-3.229-0.377-6.376,0.338-9.458
		c1.514-6.53,3.651-12.843,7.892-18.208c0.76-0.961,1.64-1.837,2.527-2.685c0.496-0.473,1.105-0.459,1.626,0.033
		c0.282,1.057-0.564,1.491-1.092,2.056c-2.854,3.058-4.807,6.643-6.195,10.551c-1.97,5.545-3.431,11.185-2.93,17.154
		c0.267,3.178,1.118,6.153,2.729,8.686c1.521,0.293,2.244-0.529,3.301-1.192c-1.145-2.462-1.711-5.13-2.303-8.195
		c0.393-2.212,1.084-4.786,1.341-7.451c0.242-2.501,0.762-3.092,2.816-4.207c0.503,0.688,0.218,1.372-0.021,2.045
		c-0.794,2.241-1.035,4.602-1.479,6.916c-0.733,3.826,0.272,7.234,2.449,10.251c2.045,0.126,3.356-1.725,5.396-1.133
		c-0.62,2.195-2.773,2.291-4.467,3.47c1.664,2.664,3.639,4.913,5.627,7.099c2.07-1.076,2.07-1.076,4.062-4.011
		c-1.117-1.735-2.22-3.567-3.439-5.317c-2.219-3.185-2.508-6.893-2.931-10.555c-0.103-0.895,0.229-1.815,1.102-2.256
		c1.071,0.178,1.227,0.883,1.202,1.618c-0.236,7.338,3.646,12.579,8.749,17.185C41.26,87.707,43.089,88.486,45.568,87.626z"/>
	<path fill-rule="evenodd" clip-rule="evenodd" d="M10.568,68.713c-1.128-1.557-0.877-3.205-0.658-4.792
		c1.289-9.343,4.97-17.683,10.679-25.23c0.071-0.724-0.377-1.323-0.84-1.845c-2.47-2.786-4.187-6.083-6.174-9.186
		c-1.036-1.616-2.271-2.835-3.814-3.898c-1.744-1.202-3.745-2.177-4.664-4.244c0.433-1.216,1.23-1.246,1.887-0.496
		c1.593,1.818,3.688,2.924,5.626,4.261c1.118,0.772,1.866,1.844,2.613,2.979c2.299,3.491,4.114,7.346,7.365,10.274
		c2.156-0.689,3.686-2.19,5.183-3.568c1.813,0.367,2.198,2.296,4.016,3.004c1.81-2.964,5.749-3.444,7.853-6.205
		c-0.266-1.914-1.037-3.363-1.762-4.821c-2.008-4.041-3.643-8.26-5.936-12.168c-0.544-0.927-1.455-2.042-0.284-3.618
		c3.945,4.896,5.887,10.622,8.604,16.051c2.401-0.755,4.675-1.682,7.04-2.157c2.411-0.483,4.794-0.989,7.177-1.626
		c4.89-1.309,9.884-1.69,14.869-0.473c1.021-0.432,1.28-1.265,1.367-2.571c-7.089-2.636-13.718-0.549-20.674,1.904
		c-1.97-0.531-1.192-3.079-2.412-4.125c-0.051-1.049,0.33-1.564,0.967-1.846c1.774,0.321,1.355,2.319,2.767,3.085
		c6.34-1.875,12.904-3.264,19.965-0.715c0.99-5.928,3.396-10.924,6.997-15.322c0.219-0.268,0.771-0.229,1.188,0.246
		c0.4,0.891-0.262,1.668-0.665,2.435c-0.763,1.452-1.627,2.854-2.497,4.247c-1.15,1.842-2.03,3.728-2.332,5.952
		c-0.516,3.783-2.079,7.269-3.827,10.9c2.862,2.489,7.167,2.294,9.505,5.301c-0.035,1.187-0.805,1.392-1.616,1.506
		c-5.921-3.45-11.917-6.479-19.098-5.252c-0.174-1.614,0.783-1.992,1.79-2.284c1.314-0.382,2.633-0.271,3.963-0.008
		c1.155,0.229,2.358,0.632,3.695-0.319c-1.359-1.485-3.016-1.607-4.565-1.583c-3.579,0.058-7.145,0.141-10.558,1.64
		c-2.826,1.242-6.023,1.14-8.999,1.934c-1.039,0.278-1.973,0.531-2.593,1.788c0.95,1.723,1.968,3.568,3.043,5.517
		c3.991-1.193,7.283-3.557,11.126-4.899c0.705-0.053,1.269,0.279,1.588,1.111c-0.074,0.241-0.114,0.555-0.261,0.809
		c-0.272,0.471-0.755,0.7-1.259,0.814c-3.534,0.8-6.456,3.013-9.838,4.207c-3.948,1.396-6.656,4.678-9.853,7.207
		c-0.614,0.486-0.94,1.412-1.977,1.166c-0.323-2.437,0.341-3.931,2.728-5.117c2.17-1.079,3.873-2.632,5.425-4.146
		c0.229-1.349-0.265-1.996-1.476-2.344c-1.822,1.104-3.708,2.323-5.665,3.412c-1.978,1.102-1.789,3.937-3.955,4.915
		c-1.834-1.072-1.583-3.349-3.043-4.799c-1.162,0.888-2.683,1.227-3.705,2.406c-0.57,0.746,0.284,1.668-0.33,2.388
		c-0.723,0.904-1.763,0.098-2.785,0.559c-0.8,0.526-1.435,1.505-1.947,2.473c-3.029,5.72-5.914,11.51-6.897,18.016
		c-0.246,1.629-0.31,3.268-0.205,4.918C12.498,67.571,12.32,68.566,10.568,68.713z"/>
	<path fill-rule="evenodd" clip-rule="evenodd" d="M32.533,63.104c-1.101,0.982-2.031,0.822-2.966-0.284
		c-0.261-1.947,0.471-3.816,1.042-5.6c1.616-5.053,4.713-9.271,8.296-13.103c1.471-1.573,3.436-2.559,5.391-3.48
		c1.034-0.488,1.956-0.549,2.92,0.837c-4.331,1.993-7.871,4.803-10.411,8.928C34.366,54.362,32.046,58.228,32.533,63.104z"/>
	<path fill-rule="evenodd" clip-rule="evenodd" d="M49.468,85.543c-3.32-1.797-6.712-3.543-9.057-6.488
		c-2.078-2.609-3.72-5.613-4.743-8.871c-0.342-1.09-0.51-2.196-0.396-3.328c0.082-0.808,0.206-1.634,1.174-1.898
		c0.855,0.145,0.833,0.826,0.883,1.412c0.289,3.447,1.8,6.488,3.354,9.457c1.41,2.695,3.684,4.628,6.583,5.705
		c0.878,0.327,1.67,0.781,2.382,1.365C50.368,83.487,50.616,84.202,49.468,85.543z"/>
	<path fill-rule="evenodd" clip-rule="evenodd" d="M53.396,39.541c-0.422-0.719-0.193-1.165,0.142-1.575
		c0.957-1.174,2.294-1.969,3.692-2.055c5.644-0.346,11.314-0.57,16.532,2.272c0.344,0.188,0.633,0.504,0.889,0.81
		c0.107,0.129,0.062,0.385,0.107,0.751c-0.75,0.94-1.738,0.754-2.665,0.256c-4.271-2.295-8.953-1.93-13.544-2.161
		c-1.178-0.059-2.219,0.336-3.144,1.061C54.849,39.336,54.324,39.886,53.396,39.541z"/>
	<path fill-rule="evenodd" clip-rule="evenodd" d="M50.618,90.473c0.506-0.458,0.917-0.757,1.281-0.494
		c2,1.441,4.465,1.414,6.674,2.185c1.769,0.617,3.537,0.901,5.432,0.471c1.226-0.278,2.611-0.505,3.547,0.875
		C63.572,96.739,53.441,94.887,50.618,90.473z"/>
</g>
</svg>
