<?xml version="1.0" encoding="utf-8"?>
<!-- Generator: Adobe Illustrator 16.0.4, SVG Export Plug-In . SVG Version: 6.00 Build 0)  -->
<!DOCTYPE svg PUBLIC "-//W3C//DTD SVG 1.1//EN" "http://www.w3.org/Graphics/SVG/1.1/DTD/svg11.dtd">
<svg version="1.1" id="Layer_3602" xmlns="http://www.w3.org/2000/svg" xmlns:xlink="http://www.w3.org/1999/xlink" x="0px" y="0px"
	 width="128px" height="128px" viewBox="0 0 128 128" enable-background="new 0 0 128 128" xml:space="preserve">
<g id="mPrwp0.tif">
	<g>
		<path fill-rule="evenodd" clip-rule="evenodd" d="M91.926,70.16c-0.502,0.524-1.16,0.402-1.775,0.4
			c-3.533-0.012-7.069,0.035-10.599-0.098c-1.481-0.057-2.814,0.164-4.039,0.937c-1.926,1.217-3.991,1.544-6.264,1.544
			c-20.103-0.005-40.205,0.069-60.308,0.148c-1.521,0.006-2.981-0.094-4.307-0.89c-1.171-0.704-2.413-0.587-3.662-0.382
			c-0.709,0.117-1.153,0.115-1.139-0.857c0.065-4.396,0.077-8.795,0.065-13.192c-0.002-0.87,0.391-1.123,1.146-1.038
			c1.63,0.184,3.109-0.213,4.458-1.127c0.978-0.663,2.083-0.576,3.181-0.569c14.526,0.102,29.053,0.204,43.58,0.298
			c5.967,0.038,11.935,0.095,17.903,0.07c1.69-0.007,3.272,0.204,4.747,1.059c1.468,0.852,3.053,1.071,4.744,1.052
			c3.453-0.037,6.908,0.05,10.363,0.113c1.852,0.034,1.985,0.171,2.045,2.04c0.097,2.982,0.163,5.966,0.236,8.948
			C92.316,69.162,92.387,69.728,91.926,70.16z"/>
		<path fill-rule="evenodd" clip-rule="evenodd" d="M81.923,33.282c-0.587,0.423-1.329,0.931-2.413,0.863
			c-2.092-0.129-4.195-0.043-6.292-0.113c-1.434-0.046-2.807,0.105-4.024,0.901c-1.08,0.705-2.253,0.836-3.504,0.838
			c-14.167,0.027-28.333,0.075-42.499,0.128c-1.059,0.004-2.087-0.039-3.064-0.519c-0.386-0.19-0.814-0.35-1.237-0.4
			c-0.687-0.081-1.702,0.214-2.01-0.142c-0.543-0.628-0.195-1.654-0.2-2.51c-0.014-2.186,0.034-4.373,0.021-6.558
			c-0.005-0.861,0.305-1.3,1.218-1.289c0.516,0.007,1.146,0.05,1.533-0.208c1.824-1.223,3.851-0.956,5.843-0.942
			c13.466,0.092,26.932,0.197,40.398,0.29c1.141,0.008,2.261-0.01,3.303,0.6c1.322,0.774,2.779,0.933,4.298,0.894
			c2.009-0.052,4.022-0.021,6.032,0.025c2.103,0.05,3.118,1.097,3.195,3.237c0.045,1.223,0.055,2.448,0.058,3.672
			C82.582,32.47,82.625,32.938,81.923,33.282z"/>
		<path fill-rule="evenodd" clip-rule="evenodd" d="M82.064,101.96c-0.49,0.521-1.107,0.472-1.723,0.463
			c-2.186-0.032-4.372-0.019-6.557-0.093c-1.35-0.046-2.616,0.168-3.768,0.867c-1.084,0.66-2.233,0.875-3.496,0.877
			c-14.25,0.021-28.501,0.069-42.752,0.126c-0.974,0.003-1.911-0.071-2.806-0.489c-0.554-0.258-1.118-0.44-1.753-0.474
			c-1.799-0.099-1.803-0.125-1.799-1.983c0.004-2.186,0.003-4.372,0.037-6.557c0.026-1.681,0.048-1.681,1.635-1.914
			c0.344-0.05,0.758,0.005,1.022-0.167c1.976-1.303,4.188-0.998,6.354-0.983c13.375,0.092,26.751,0.2,40.126,0.283
			c1.152,0.006,2.269,0.055,3.29,0.659c1.253,0.74,2.625,0.856,4.047,0.832c2.098-0.032,4.197-0.019,6.295,0.034
			c1.74,0.042,2.189,0.462,2.271,2.14c0.078,1.659,0.061,3.322,0.089,4.983C82.588,101.105,82.521,101.614,82.064,101.96z"/>
		<path fill-rule="evenodd" clip-rule="evenodd" d="M127.008,65.658c-0.432,0.149-1.01,0.379-1.605,0.549
			c-4.315,1.227-8.725,1.955-13.184,2.387c-4.693,0.451-9.401,0.527-14.113,0.491c-1.821-0.013-1.826-0.027-1.864-1.946
			c-0.044-2.197-0.054-4.396-0.128-6.593c-0.026-0.816,0.248-1.081,1.078-1.06c8.963,0.221,17.873,0.847,26.549,3.342
			c0.978,0.282,1.951,0.603,2.892,0.988C127.393,64.126,127.614,65.031,127.008,65.658z"/>
		<path fill-rule="evenodd" clip-rule="evenodd" d="M85.75,101.271c-0.087-0.341-0.191-0.583-0.205-0.832
			c-0.041-0.697-0.078-1.396-0.056-2.094c0.037-1.11-0.646-2.522,0.2-3.255c0.787-0.683,2.186-0.224,3.31-0.185
			c5.243,0.183,10.436,0.752,15.481,2.289c0.582,0.178,1.152,0.398,1.73,0.588c0.274,0.091,0.422,0.273,0.461,0.55
			c0.057,0.411-0.164,0.654-0.518,0.791c-0.326,0.124-0.659,0.233-0.996,0.323c-6.034,1.613-12.199,2.013-18.412,1.969
			C86.413,101.413,86.08,101.321,85.75,101.271z"/>
		<path fill-rule="evenodd" clip-rule="evenodd" d="M85.8,33.024c-0.103-0.34-0.226-0.579-0.237-0.822
			c-0.069-1.571-0.1-3.143-0.172-4.712c-0.032-0.707,0.34-0.917,0.957-0.91c6.315,0.065,12.553,0.671,18.576,2.718
			c0.455,0.155,1.115,0.193,1.006,0.944c-0.077,0.527-0.556,0.601-0.969,0.726c-3.104,0.943-6.289,1.5-9.512,1.764
			c-2.781,0.229-5.58,0.275-8.372,0.384C86.655,33.133,86.23,33.058,85.8,33.024z"/>
	</g>
</g>
</svg>
