<?xml version="1.0" encoding="utf-8"?>
<!-- Generator: Adobe Illustrator 16.0.4, SVG Export Plug-In . SVG Version: 6.00 Build 0)  -->
<!DOCTYPE svg PUBLIC "-//W3C//DTD SVG 1.1//EN" "http://www.w3.org/Graphics/SVG/1.1/DTD/svg11.dtd">
<svg version="1.1" id="Layer_3603" xmlns="http://www.w3.org/2000/svg" xmlns:xlink="http://www.w3.org/1999/xlink" x="0px" y="0px"
	 width="128px" height="128px" viewBox="0 0 128 128" enable-background="new 0 0 128 128" xml:space="preserve">
<g id="KIp7NO.tif">
	<g>
		<path d="M123.604,13.001c-1.221,0.417-2.221,1.223-3.277,1.915c-0.893,0.583-1.516,0.626-2.106-0.411
			c-0.589-1.031-1.335-1.97-2.003-2.956c-0.178-0.26-0.344-0.645-0.666-0.582c-0.401,0.08-0.183,0.503-0.201,0.779
			c-0.018,0.236,0.025,0.476,0.025,0.714c0.007,3.72,0.009,3.707-3.558,2.91c-0.622-0.14-1.478-0.754-1.847-0.083
			c-0.234,0.422,0.758,0.874,1.197,1.316c0.057,0.056,0.12,0.103,0.182,0.155c2.738,2.353,2.735,2.352,0.184,4.837
			c-0.322,0.313-0.935,0.575-0.68,1.09c0.233,0.476,0.85,0.261,1.317,0.257c1.256-0.005,2.706-0.763,3.711-0.045
			c1.124,0.806,0.614,2.514,1.022,3.779c0.145,0.446,0.101,1.159,0.559,1.228c0.674,0.1,0.697-0.714,0.96-1.152
			c0.326-0.543,0.619-1.115,0.849-1.704c0.446-1.138,1.076-1.188,1.978-0.478c0.81,0.639,1.669,1.219,2.525,1.796
			c0.363,0.245,0.814,0.797,1.192,0.408c0.334-0.346-0.213-0.85-0.386-1.26c-0.338-0.799-0.765-1.566-1.205-2.317
			c-0.548-0.931-0.686-1.631,0.724-1.731c0.312-0.023,0.627-0.11,0.932-0.198c0.908-0.265,1.813-0.547,2.717-0.821
			c-0.624-0.844-1.676-0.791-2.515-1.182c-0.574-0.267-1.175-0.512-1.786-0.653c-1.102-0.252-1.063-0.892-0.828-1.784
			c0.342-1.285,1.159-2.461,0.939-3.88L123.604,13.001z M66.933,87.535c0.264-0.292,0.545-0.571,0.787-0.882
			c8.926-11.479,17.81-22.992,26.806-34.414c1.77-2.245,1.793-4.494,0.945-6.921c-0.742-2.128-2.114-3.888-3.667-5.508
			c-0.702-0.732-1.272-0.813-1.831,0.136c-0.2,0.339-0.484,0.629-0.726,0.944C77.193,56.575,64.814,72.008,52.96,87.846
			c-2.182,2.915-4.638,5.604-6.758,8.586c-1.423,2.003-2.915,4.264-5.552,5.008c-1.259,0.357-0.894,0.713-0.202,1.283
			c2.874,2.377,5.105,5.238,6.21,8.831c0.452,1.469,0.795,1.186,1.526,0.236c3.246-4.219,6.512-8.425,9.798-12.612
			c3.029-3.86,5.783-7.935,9.004-11.646L66.933,87.535z M92.702,26.941c-0.13-0.622-0.199-1.263-0.396-1.863
			c-1.693-5.194-8.69-10.613-14.183-11.085c-2.669-0.23-4.771,0.503-6.365,2.806c-1.58,2.282-3.39,4.406-5.095,6.6
			C53.259,40.645,39.856,57.887,26.459,75.139c-0.429,0.553-1.27,1.131-1.037,1.762c0.228,0.614,1.222,0.407,1.896,0.522
			c7.436,1.275,12.616,5.601,16.092,12.107c1.012,1.894,1.2,2.057,2.405,0.472c2.107-2.771,4.126-5.596,6.368-8.275
			c3.768-4.505,7.256-9.244,10.865-13.884c9.364-12.034,18.723-24.074,28.104-36.096C92.27,30.313,93.115,28.849,92.702,26.941z
			 M64.638,19.103c-0.158-0.588-0.555-0.85-0.968-1.085c-1.385-0.786-2.832-1.412-4.381-1.82c-3.573-0.943-6.319-0.199-8.729,2.951
			C39.313,33.851,27.887,48.414,16.528,63.027c-3.948,5.08-7.898,10.16-11.822,15.259c-0.324,0.42-1.446,1.271,0.266,1.272
			c3.899,0.007,7.253,1.512,10.361,3.683c0.913,0.639,1.392,0.709,1.437-0.586c0.058-1.673,0.894-3.001,1.887-4.274
			c4.833-6.203,9.655-12.416,14.483-18.626c10.143-13.043,20.287-26.086,30.427-39.131C63.952,20.126,64.292,19.594,64.638,19.103z
			 M23.523,105.861c0.726,6.051,8.393,12.695,15.164,13.141c4.786,0.314,6.995-2.365,5.726-6.944
			c-1.683-6.069-8.524-11.21-15.551-11.684C25.237,100.13,23.1,102.328,23.523,105.861z M-0.23,87.562
			c0.05,0.277,0.104,0.755,0.229,1.212c0.103,0.379,0.274,0.743,0.442,1.101c2.681,5.739,7.226,9.065,13.341,10.462
			c2.56,0.585,4.719,0.255,6.393-1.915c1.557-2.021,1.022-4.271,0.02-6.089c-2.336-4.234-5.47-7.797-10.22-9.541
			c-1.879-0.688-3.787-1.206-5.808-0.985C0.988,82.153-0.625,84.204-0.23,87.562z M41.344,92.693
			c-0.099-2.359-1.563-4.331-3.154-6.216c-3.252-3.852-7.304-6.286-12.418-6.603c-3.604-0.226-5.846,2.412-5.144,5.944
			c0.2,1,0.57,1.941,1.085,2.862c1.537,2.753,3.656,4.841,6.218,6.689c2.649,1.916,5.566,2.758,8.64,2.783
			C39.506,98.178,42.067,96.562,41.344,92.693z M108.087,31.271c3.236-0.246,4.823-3.162,6.729-5.664
			c0.246-0.325,0.292-0.788-0.073-1.071c-0.476-0.366-0.901-0.102-1.223,0.292c-0.851,1.044-1.628,2.157-2.536,3.15
			c-1.671,1.831-4.33,2.37-6.537,1.42c-2.225-0.958-3.653-3.253-3.521-5.703c0.07-1.308,0.712-2.39,1.336-3.509
			c2.783-4.985-0.271-10.712-5.935-11.197c-3.045-0.261-7.578,2.864-8.359,5.739c-0.097,0.362-0.009,0.615,0.243,0.834
			c0.356,0.312,0.718,0.297,1.021-0.073c0.802-0.982,1.55-2.015,2.397-2.956c1.648-1.828,3.735-2.354,6.053-1.667
			c2.258,0.668,3.57,2.309,4,4.59c0.343,1.825-0.446,3.356-1.334,4.917c-1.491,2.623-1.48,5.326,0.305,7.841
			C102.35,30.607,104.691,31.692,108.087,31.271z"/>
		<path fill-rule="evenodd" clip-rule="evenodd" d="M123.604,13.001l-0.045-0.054L123.604,13.001z"/>
		<polygon fill-rule="evenodd" clip-rule="evenodd" points="65.764,86.581 65.615,86.54 65.709,86.584 		"/>
	</g>
</g>
</svg>
