<?xml version="1.0" encoding="utf-8"?>
<!-- Generator: Adobe Illustrator 16.0.4, SVG Export Plug-In . SVG Version: 6.00 Build 0)  -->
<!DOCTYPE svg PUBLIC "-//W3C//DTD SVG 1.1//EN" "http://www.w3.org/Graphics/SVG/1.1/DTD/svg11.dtd">
<svg version="1.1" id="Layer_3604" xmlns="http://www.w3.org/2000/svg" xmlns:xlink="http://www.w3.org/1999/xlink" x="0px" y="0px"
	 width="128px" height="128px" viewBox="0 0 128 128" enable-background="new 0 0 128 128" xml:space="preserve">
<g id="_x30_b47Q0.tif">
	<g>
		<path fill-rule="evenodd" clip-rule="evenodd" d="M70.645,16.144c-0.05,0.138-0.183,0.139-0.292,0.175
			c-0.923,0.308-1.847,0.618-2.771,0.922c-4.68,1.54-9.361,3.077-14.04,4.619c-4.831,1.592-9.66,3.188-14.492,4.776
			c-0.22,0.072-0.513,0.279-0.665,0.128c-0.189-0.187,0.05-0.468,0.129-0.696c1.754-5.048,3.517-10.093,5.274-15.141
			c1.163-3.339,2.319-6.681,3.479-10.022c0.006-0.019,0.016-0.036,0.022-0.055c0.204-0.577,0.206-0.579,0.698-0.244
			c1.282,0.872,2.561,1.749,3.842,2.622c5.174,3.527,10.35,7.052,15.523,10.58c1.019,0.694,2.029,1.399,3.042,2.101
			C70.488,15.974,70.617,16.006,70.645,16.144z"/>
		<path fill-rule="evenodd" clip-rule="evenodd" d="M87.699,84.732c-0.012,0.269-0.264,0.258-0.431,0.314
			c-1.413,0.474-2.83,0.933-4.245,1.398c-5.66,1.864-11.32,3.729-16.979,5.592c-0.696,0.229-0.591,0.253-0.808-0.402
			c-1.151-3.469-2.295-6.939-3.441-10.411c-0.031-0.094-0.072-0.187-0.094-0.282c-0.034-0.147,0.005-0.241,0.18-0.174
			c0.092,0.036,0.175,0.094,0.264,0.139c1.899,0.955,3.803,1.9,5.694,2.875c0.368,0.19,0.528,0.15,0.715-0.227
			c1.184-2.385,2.39-4.758,3.588-7.136c0.337-0.667,0.311-0.519,0.825-0.26c2.271,1.146,4.544,2.29,6.815,3.435
			c0.106,0.054,0.219,0.1,0.317,0.165c0.327,0.219,0.515,0.13,0.683-0.224c0.426-0.896,0.886-1.777,1.332-2.665
			c0.51-1.012,1.019-2.023,1.532-3.032c0.069-0.137,0.092-0.363,0.265-0.361c0.186,0.003,0.169,0.238,0.214,0.373
			c0.931,2.81,1.853,5.622,2.777,8.434c0.224,0.679,0.45,1.357,0.674,2.037C87.619,84.452,87.656,84.586,87.699,84.732z"/>
		<path fill-rule="evenodd" clip-rule="evenodd" d="M72.332,38.102c0.019,0.251-0.077,0.387-0.146,0.526
			c-0.991,1.971-1.992,3.937-2.974,5.912c-0.161,0.325-0.303,0.374-0.635,0.204c-2.35-1.207-4.71-2.391-7.068-3.582
			c-0.106-0.054-0.22-0.094-0.323-0.153c-0.211-0.121-0.366-0.11-0.469,0.142c-0.076,0.183-0.183,0.353-0.272,0.53
			c-1.146,2.271-2.29,4.544-3.438,6.815c-0.239,0.474-0.252,0.48-0.707,0.251c-1.971-0.992-3.938-1.991-5.911-2.978
			c-0.252-0.126-0.388-0.304-0.474-0.567c-0.8-2.456-1.611-4.909-2.419-7.363c-0.019-0.057-0.035-0.114-0.048-0.173
			c-0.02-0.09-0.098-0.202,0.02-0.261c0.052-0.025,0.151,0.025,0.22,0.059c1.048,0.525,2.094,1.053,3.14,1.582
			c0.94,0.475,1.885,0.94,2.815,1.432c0.308,0.163,0.437,0.079,0.581-0.208c1.171-2.347,2.355-4.688,3.536-7.031
			c0.044-0.089,0.094-0.176,0.131-0.268c0.133-0.335,0.286-0.433,0.665-0.235c1.762,0.917,3.546,1.793,5.321,2.686
			c0.657,0.33,1.319,0.649,1.966,0.999c0.316,0.171,0.466,0.123,0.631-0.212c0.922-1.873,1.866-3.734,2.812-5.594
			c0.093-0.181,0.119-0.503,0.359-0.479c0.178,0.017,0.184,0.325,0.244,0.511c0.767,2.32,1.529,4.642,2.291,6.963
			C72.242,37.797,72.297,37.988,72.332,38.102z"/>
		<path fill-rule="evenodd" clip-rule="evenodd" d="M77.093,52.55c0.025,0.209-0.046,0.332-0.108,0.456
			c-1.009,2.007-2.025,4.01-3.021,6.023c-0.184,0.371-0.377,0.289-0.658,0.146c-2.23-1.136-4.468-2.261-6.703-3.39
			c-0.16-0.08-0.319-0.162-0.48-0.239c-0.49-0.235-0.488-0.233-0.736,0.257c-1.21,2.393-2.43,4.782-3.624,7.184
			c-0.177,0.356-0.326,0.407-0.674,0.229c-1.963-1.006-3.935-1.994-5.908-2.98c-0.248-0.124-0.396-0.285-0.483-0.556
			c-0.808-2.474-1.63-4.943-2.442-7.417c-0.04-0.12-0.174-0.271-0.044-0.384c0.13-0.112,0.257,0.04,0.372,0.098
			c1.918,0.961,3.835,1.927,5.751,2.894c0.456,0.23,0.457,0.235,0.689-0.226c1.172-2.325,2.341-4.651,3.513-6.977
			c0.351-0.696,0.355-0.696,1.07-0.335c2.288,1.155,4.574,2.316,6.865,3.465c0.603,0.302,0.524,0.321,0.822-0.271
			c0.921-1.828,1.841-3.657,2.76-5.485c0.019-0.036,0.031-0.075,0.053-0.107c0.086-0.127,0.108-0.362,0.279-0.351
			c0.164,0.011,0.171,0.237,0.219,0.38c0.594,1.792,1.184,3.584,1.773,5.378c0.211,0.642,0.416,1.286,0.623,1.928
			C77.035,52.383,77.074,52.495,77.093,52.55z"/>
		<path fill-rule="evenodd" clip-rule="evenodd" d="M81.867,67.024c0.014,0.221-0.075,0.358-0.146,0.499
			c-0.991,1.971-1.994,3.937-2.971,5.914c-0.186,0.375-0.361,0.355-0.689,0.188c-2.391-1.22-4.791-2.421-7.189-3.626
			c-0.478-0.24-0.48-0.236-0.73,0.256c-1.23,2.428-2.465,4.854-3.685,7.289c-0.138,0.273-0.252,0.272-0.5,0.146
			c-1.986-1.004-3.978-1.997-5.973-2.982c-0.269-0.133-0.445-0.305-0.539-0.591c-0.807-2.476-1.622-4.949-2.427-7.425
			c-0.038-0.117-0.195-0.269-0.037-0.375c0.123-0.082,0.258,0.057,0.376,0.115c1.884,0.946,3.765,1.897,5.648,2.845
			c0.549,0.276,0.555,0.273,0.82-0.252c1.154-2.29,2.306-4.581,3.46-6.872c0.053-0.106,0.114-0.21,0.157-0.32
			c0.132-0.337,0.312-0.374,0.641-0.206c2.317,1.189,4.645,2.358,6.969,3.534c0.106,0.055,0.218,0.1,0.318,0.164
			c0.304,0.194,0.466,0.124,0.632-0.213c0.912-1.856,1.852-3.698,2.781-5.546c0.045-0.089,0.082-0.182,0.133-0.267
			c0.068-0.116,0.104-0.299,0.263-0.284c0.06,0.005,0.114,0.189,0.151,0.299c0.494,1.49,0.984,2.982,1.477,4.473
			c0.324,0.981,0.648,1.962,0.973,2.943C81.816,66.845,81.848,66.959,81.867,67.024z"/>
		<path fill-rule="evenodd" clip-rule="evenodd" d="M67.562,23.635c0.008,0.256-0.086,0.415-0.165,0.573
			c-0.974,1.936-1.947,3.871-2.929,5.802c-0.242,0.476-0.255,0.472-0.759,0.219c-2.343-1.18-4.685-2.363-7.029-3.542
			c-0.575-0.289-0.579-0.284-0.867,0.288c-1.181,2.343-2.359,4.688-3.542,7.031c-0.26,0.515-0.269,0.52-0.79,0.258
			c-1.917-0.964-3.831-1.937-5.75-2.897c-0.301-0.15-0.498-0.339-0.603-0.677c-0.39-1.252-0.798-2.499-1.227-3.738
			c-0.134-0.39-0.053-0.542,0.35-0.672c3.686-1.197,7.364-2.418,11.045-3.631c3.416-1.127,6.831-2.253,10.247-3.379
			c0.531-0.176,0.533-0.175,0.707,0.351c0.398,1.208,0.798,2.416,1.195,3.624C67.495,23.394,67.536,23.546,67.562,23.635z"/>
		<path fill-rule="evenodd" clip-rule="evenodd" d="M89.96,122.514c0.04,0.225-0.095,0.276-0.229,0.321
			c-1.113,0.37-2.226,0.737-3.338,1.106c-0.379,0.125-0.381-0.197-0.448-0.397c-0.456-1.355-0.898-2.716-1.347-4.074
			c-2.467-7.491-4.936-14.983-7.403-22.474c-0.671-2.039-1.342-4.077-2.013-6.115c-0.178-0.539-0.178-0.541,0.348-0.713
			c0.963-0.312,1.928-0.622,2.892-0.935c0.505-0.163,0.511-0.167,0.669,0.312c0.612,1.849,1.218,3.698,1.828,5.547
			c1.699,5.151,3.401,10.301,5.1,15.453c1.295,3.925,2.584,7.853,3.876,11.778C89.918,122.398,89.945,122.473,89.96,122.514z"/>
		<path fill-rule="evenodd" clip-rule="evenodd" d="M74.24,100.315c0.063,2.252-0.049,4.495-0.377,6.722
			c-0.881,5.992-3.449,11.064-8.16,14.982c-2.766,2.3-5.882,3.98-9.169,5.385c-0.341,0.145-0.476,0.082-0.618-0.252
			c-0.457-1.074-0.467-1.06,0.602-1.521c3.438-1.482,6.645-3.337,9.356-5.957c2.719-2.625,4.593-5.759,5.632-9.403
			c0.998-3.501,1.213-7.075,1.099-10.687c-0.079-2.506-0.323-4.998-0.644-7.484c-0.107-0.832-0.081-0.674,0.59-0.907
			c0.867-0.302,0.871-0.298,0.996,0.629C73.928,94.641,74.184,97.471,74.24,100.315z"/>
	</g>
</g>
</svg>
