<?xml version="1.0" encoding="utf-8"?>
<!-- Generator: Adobe Illustrator 16.0.4, SVG Export Plug-In . SVG Version: 6.00 Build 0)  -->
<!DOCTYPE svg PUBLIC "-//W3C//DTD SVG 1.1//EN" "http://www.w3.org/Graphics/SVG/1.1/DTD/svg11.dtd">
<svg version="1.1" id="Layer_3605" xmlns="http://www.w3.org/2000/svg" xmlns:xlink="http://www.w3.org/1999/xlink" x="0px" y="0px"
	 width="128px" height="128px" viewBox="0 0 128 128" enable-background="new 0 0 128 128" xml:space="preserve">
<g id="FiSHZg.tif">
	<g>
		<path d="M82.029,60.805c4.604-3.955,8.727-8.414,13.138-12.571c3.94-3.713,7.753-7.562,11.89-11.062
			c1.666-1.41,2.988-1.527,3.788-0.426c0.838,1.156,0.309,2.757-1.373,3.823C98.34,47.627,88.699,56.481,79.275,65.595
			c-2.906,2.808-5.69,5.742-8.527,8.622c-0.444,0.45-0.789,1.049-1.559,0.975l0.057,0.057c0.336-1.482,1.765-2.385,2.065-3.887
			l-0.063,0.068c2.154-2.082,4.14-4.355,5.791-6.816c5.808-8.645,12.655-16.407,19.82-23.911c3.856-4.038,7.838-7.958,11.765-11.929
			c0.343-0.346,0.698-0.678,1.062-1c1.404-1.245,2.756-1.374,3.611-0.354c0.859,1.027,0.623,2.53-0.785,3.593
			c-2.908,2.199-5.762,4.461-8.53,6.831c-7.522,6.436-14.589,13.328-20.948,20.93c-0.463,0.553-0.835,1.184-1.25,1.78
			c-0.122,0.205-0.246,0.408-0.369,0.613c-0.271,0.097-0.416,0.289-0.438,0.575l-0.056-0.058c0.28-0.006,0.505-0.112,0.647-0.363
			C81.722,61.148,81.876,60.975,82.029,60.805z"/>
		<path d="M65.46,84.124c0.587,0.11,1.003,0.498,1.415,0.886c8.855,8.299,17.043,17.197,24.153,27.056
			c0.4,0.556,1.253,1.391,0.767,1.783c-0.719,0.579-1.456-0.327-1.896-0.938c-2.454-3.412-5.023-6.731-7.726-9.949
			c-2.074-2.469-4.135-4.949-6.47-7.183l-0.077-0.063l0.127,0.046c0.249,1.86,1.584,3.143,2.522,4.616
			c2.909,4.572,5.63,9.248,8.115,14.062c0.439,0.854,0.937,1.712,0.893,2.734l0.043-0.037c-2.632-3.557-4.388-7.637-6.764-11.348
			c-1.124-1.755-2.038-3.643-3.344-5.281c-0.134-0.346-0.294-0.855-0.701-0.635c-0.205,0.111,0.046,0.686,0.419,0.896
			c1.982,5.207,4.449,10.225,6.156,15.545c0.594,1.846,1.34,3.644,1.924,5.493c0.54,1.713,0.092,2.494-1.492,2.922
			c-1.703,0.462-2.997-0.196-3.267-1.856c-2.134-13.125-7.551-25-13.826-36.555c-0.381-0.701-0.625-1.475-0.934-2.215L65.46,84.124z
			"/>
		<path d="M54.689,67.013c-1.121-0.704-1.143-2.318-2.407-2.904l-0.135-0.071l0.069,0.134c-0.007,1.796,0.756,3.465,0.886,5.238
			c0.028,0.393-0.042,0.792-0.066,1.188c-0.428-0.168-0.551-0.561-0.692-0.939c-1.182-3.184-2.41-6.354-3.523-9.562
			c-0.492-1.417-1.227-2.623-2.25-3.688c-4.27-4.454-8.804-8.604-13.875-12.14c-0.331-0.232-0.72-0.419-0.972-0.719
			c-0.439-0.523-0.648-1.183-0.194-1.774c0.462-0.602,1.105-0.233,1.539,0.04c2.058,1.291,4.008,2.743,5.814,4.367
			c1.866,1.677,3.801,3.282,5.464,5.177c0.202,0.23,0.653,0.563,0.767,0.493c0.493-0.309,0.061-0.709-0.074-1.025
			c-3.811-8.936-7.672-17.85-13.188-25.92c-0.785-1.147-1.3-2.424-1.753-3.725c-0.256-0.736-0.192-1.493,0.503-1.969
			c0.814-0.559,1.575-0.21,2.17,0.415c0.44,0.461,0.833,1.001,1.125,1.568c6.153,11.948,11.885,24.085,16.281,36.81
			c0.829,2.4,2.617,4.267,3.616,6.573c0.35,0.808,0.958,1.517,0.844,2.48L54.689,67.013z"/>
		<path d="M66.918,68.521c0.705-3.468,2.202-6.683,3.207-10.054c0.73-2.456,1.484-4.906,2.227-7.359
			c0.158-0.339,0.055-0.407-0.262-0.254c-5.19,5.392-8.313,11.66-8.239,19.304c0.005,0.595,0.223,1.233-0.167,1.8
			c-0.442-0.522-0.484-1.187-0.561-1.808c-1.18-9.549,2.25-17.315,9.337-23.564c1.41-1.242,2.307-2.625,2.795-4.395
			c2.352-8.498,4.814-16.965,6.539-25.623c0.252-1.265,0.199-2.607,0.838-3.776c0.371-0.683,0.776-1.667,1.7-1.337
			c0.827,0.295,0.501,1.279,0.352,1.955c-1.138,5.133-2.237,10.274-3.499,15.376c-1.084,4.395-2.175,8.792-3.538,13.116
			c-0.274,0.867-0.817,1.834-0.152,2.795c0.163,0.237,0.146,0.48-0.004,0.671c-2.883,3.658-3.175,8.373-5.062,12.445
			c-1.53,3.301-2.784,6.727-4.723,9.831c-0.216,0.348-0.42,0.688-0.836,0.825L66.918,68.521z"/>
		<path d="M41.954,12.393c0.064-0.503,0.037-1.04,0.208-1.504c0.698-1.894,0.016-3.259-1.526-4.349
			c-0.181-0.129-0.33-0.31-0.47-0.487c-0.271-0.339-0.944-0.519-0.782-0.991c0.144-0.421,0.775-0.352,1.217-0.414
			c0.056-0.007,0.113-0.015,0.169-0.013c2.271,0.064,3.879-0.816,4.505-3.13c0.087-0.322,0.282-0.614,0.427-0.92
			c0.286-0.603,0.588-0.631,0.9-0.021c0.383,0.754,0.86,1.478,1.119,2.273c0.354,1.084,1.055,1.507,2.123,1.583
			c0.842,0.058,1.683,0.183,2.515,0.328c0.516,0.09,0.927,0.305,0.301,0.845c-0.084,0.074-0.159,0.165-0.251,0.227
			c-2.431,1.569-2.923,3.756-2.057,6.39c0.083,0.252,0.244,0.586-0.021,0.79c-0.246,0.188-0.561,0.03-0.766-0.143
			c-2.27-1.912-4.528-1.829-6.832-0.046C42.335,13.118,41.719,13.438,41.954,12.393z"/>
		<path d="M110.725,18.194c-0.101-0.811-0.56-1.281-1.241-1.69c-1.106-0.663-2.161-1.417-3.21-2.173
			c-0.375-0.271-1.07-0.387-1.025-0.906c0.059-0.692,0.873-0.536,1.338-0.775c0.57-0.292,1.191-0.56,1.818-0.652
			c2.433-0.361,3.621-1.758,3.912-4.172c0.131-1.087,0.295-2.77,1.138-3.003c1.095-0.305,1.691,1.32,2.178,2.204
			c1.344,2.44,3.2,3.125,5.819,2.518c0.906-0.211,2.597-0.283,2.74,0.068c0.414,1.013-0.758,1.765-1.273,2.636
			c-0.33,0.555-0.659,1.125-1.085,1.603c-0.867,0.972-0.927,1.94-0.386,3.116c0.572,1.241,0.967,2.567,1.414,3.865
			c0.271,0.784-0.043,1.059-0.822,0.843c-0.312-0.086-0.617-0.189-0.927-0.28c-4.688-1.399-4.681-1.39-8.542,1.716
			c-0.455,0.366-0.861,1.178-1.556,0.786c-0.55-0.309-0.173-1.039-0.184-1.587C110.805,20.939,110.76,19.566,110.725,18.194z"/>
		<path d="M69.229,121.833c-0.149-7.406-1.339-14.667-2.958-21.869c-0.052-0.233-0.17-0.455-0.27-0.677
			c-0.098-0.217-0.209-0.424-0.314-0.638c-0.339,0.224-0.2,0.556-0.158,0.836c0.467,3.062,0.29,6.144,0.344,9.22
			c0.103,5.847-0.397,11.659-0.937,17.469c-0.037,0.404-0.065,0.811-0.144,1.206c-0.084,0.42-0.328,0.756-0.774,0.812
			c-0.458,0.058-0.72-0.275-0.97-0.606c-0.593-0.78-0.561-1.669-0.451-2.563c1.365-11.088,0.67-22.175-0.133-33.25
			c-0.152-2.09-0.336-4.194-0.592-6.284c-0.046-0.378-0.31-0.927,0.12-1.088c0.462-0.174,0.598,0.428,0.77,0.755
			c1.517,2.875,2.544,5.948,3.458,9.047c2.641,8.951,4.257,18.112,5.417,27.358c0.162,1.284,0.407,2.558,0.504,3.847
			c0.084,1.12-0.408,1.922-1.663,1.891c-1.153-0.028-1.513-0.885-1.511-1.832C68.971,124.253,69.135,123.042,69.229,121.833z"/>
		<path d="M83.521,87.402c0.348,0.98,1.318,1.123,2.088,1.466c7.162,3.199,14.281,6.489,21.333,9.925
			c0.87,0.424,1.712,0.92,2.526,1.445c0.988,0.64,1.594,1.561,0.786,2.637c-0.714,0.954-1.668,0.702-2.565,0.039
			c-6.93-5.115-14.525-9.094-22.209-12.904c-4.998-2.479-10.097-4.746-15.257-6.872c-0.446-0.185-1.28-0.487-1.151-0.671
			c0.336-0.479,0.992-0.16,1.501-0.008c9.985,2.973,20.16,5.342,29.769,9.508c4.969,2.154,10.008,4.152,14.892,6.504
			c0.218,0.106,0.448,0.189,0.663,0.301c1.452,0.759,2.093,1.889,1.471,2.845c-0.882,1.358-1.957,0.632-2.945,0.078
			c-3.173-1.778-6.291-3.662-9.514-5.345c-6.384-3.331-12.947-6.27-19.772-8.6c-0.544-0.188-1.081-0.328-1.657-0.299
			c-0.062-0.053-0.117-0.119-0.188-0.152c-0.045-0.021-0.113,0.008-0.17,0.014C83.256,87.343,83.389,87.373,83.521,87.402z"/>
		<path d="M56.623,19.304c0.438,12.398,1.256,24.766,2.624,37.096c0.402,3.625,0.774,7.252,1.15,10.878
			c0.049,0.476,0.239,1.305-0.067,1.354c-0.505,0.084-0.546-0.644-0.7-1.092c-1.772-5.161-2.645-10.51-3.356-15.895
			c-1.967-14.908-2.059-29.906-2.137-44.904c-0.001-0.243-0.004-0.487,0.022-0.729c0.1-0.948,0.01-2.362,1.107-2.398
			c1.397-0.044,1.665,1.479,1.606,2.56c-0.18,3.403-0.265,6.804-0.25,10.21C56.626,17.359,56.623,18.332,56.623,19.304z"/>
		<path d="M37.35,78.219c-2.271-0.046-4.54,0.007-6.794,0.332c-0.551,0.08-1.318,0.152-1.323-0.614
			c-0.005-0.521,0.71-0.524,1.197-0.569c7.451-0.678,14.896-0.873,22.288,0.535c1.279,0.244,2.729,0.305,3.619,1.551
			c-1.167,0.389-2.381,0.172-3.573,0.265c-7.756,0.602-15.554,1.122-23.095,3.063c-6.314,1.625-12.847,2.652-18.743,5.73
			c-0.974,0.509-2.667,1.244-3.13-0.126c-0.396-1.171,1.34-1.542,2.402-1.839c2.494-0.698,5-1.354,7.512-1.983
			c1.557-0.39,3.136-0.605,4.244-2.024c0.556-0.711,1.546-0.784,2.434-0.963c5.798-1.166,11.654-1.965,17.501-2.818
			c0.347-0.051,0.798,0.136,1.008-0.342c-0.312-0.066-0.622-0.185-0.934-0.188C40.425,78.207,38.888,78.219,37.35,78.219z"/>
		<path d="M67.812,77.648c0.329-0.43,0.658-0.861,0.986-1.291l-0.041-0.071c0.196,0.001,0.394,0.002,0.591,0.002l-0.045,0.062
			c5.356-3.308,11.271-3.773,17.422-4.13c8.09-0.47,15.989,0.285,23.881,1.692c3.737,0.667,7.386,1.771,10.995,2.955
			c0.951,0.312,2.574,0.732,2.245,1.752c-0.492,1.528-2.037,0.725-3.138,0.361c-7.851-2.599-15.896-4.331-24.071-5.502
			c-0.319-0.046-0.646-0.091-0.966-0.078c-0.214,0.01-0.423,0.126-0.634,0.193c0.182,0.138,0.354,0.29,0.547,0.41
			c0.614,0.386,1.28,0.705,1.84,1.157c0.368,0.298,0.63,0.831,0.328,1.298c-0.243,0.376-0.73,0.248-1.122,0.146
			c-1.408-0.361-2.805-0.776-4.222-1.098c-6.902-1.57-13.757-1.75-20.567,0.582c-1.361,0.465-2.472,1.595-4.03,1.502L67.812,77.648z
			"/>
		<path d="M58.187,77.594c-0.497,0.157-0.942,0.035-1.395-0.193c-9.507-4.847-19.337-4.412-29.297-1.773
			c-1.093,0.289-2.167,0.65-3.264,0.922c-0.986,0.246-1.189-0.381-0.924-1.104c0.422-1.149,1.375-1.723,2.546-2.02
			c1.881-0.475,3.75-1.003,5.62-1.519c0.271-0.075,0.782,0.085,0.745-0.314c-0.029-0.317-0.544-0.228-0.848-0.255
			c-5.575-0.482-11.157-0.437-16.741-0.201c-2.183,0.094-4.365,0.234-6.549,0.28c-0.572,0.012-1.533,0.165-1.502-0.713
			c0.021-0.565,0.917-0.542,1.463-0.552c6.715-0.131,13.417-0.579,20.146-0.38c7.235,0.215,14.325,1.152,21.268,3.187
			c3.227,0.945,6.083,2.586,8.683,4.695L58.187,77.594z"/>
		<path d="M96.264,84.977c0.391,0.883,1.299,0.838,2.021,1.098c3.575,1.284,7.163,2.538,10.743,3.81
			c0.534,0.19,1.064,0.392,1.571,0.642c1.032,0.503,2.371,1.132,1.728,2.447c-0.683,1.392-1.818,0.298-2.679-0.162
			c-8.614-4.607-17.836-7.601-27.195-10.212c-3.734-1.043-7.516-1.92-11.275-2.88c-0.294-0.074-0.665,0.029-0.852-0.33
			c0.311-0.046,0.621-0.131,0.932-0.132c1.955-0.008,3.904,0.275,5.757,0.792c5.17,1.441,10.531,1.666,15.764,2.672
			c7.231,1.393,14.322,3.334,21.337,5.562c1.541,0.488,3.096,0.929,4.632,1.428c0.358,0.119,0.892,0.287,0.831,0.743
			c-0.09,0.661-0.725,0.505-1.167,0.487c-1.067-0.04-2.034-0.489-3.033-0.817c-6.298-2.062-12.679-3.818-19.171-5.161
			c-0.217,0.118-0.277,0.098-0.15-0.033C96.082,84.902,96.191,84.958,96.264,84.977z"/>
		<path d="M58.567,83.092c-2.063,3.29-4.751,6.094-7.155,9.117c-5.946,7.477-11.591,15.159-16.645,23.272
			c-0.479,0.769-0.902,2.237-1.995,1.595c-1.109-0.652-0.27-1.845,0.269-2.744c0.166-0.275,0.291-0.574,0.435-0.863
			c0.726-0.477,1.043-1.251,1.432-1.974c0.744-0.458,1.065-1.24,1.491-1.941c0.576-0.612,1.194-1.199,1.27-2.112
			c0.312-0.014,0.448-0.187,0.44-0.488c0.188-0.182,0.375-0.363,0.563-0.545c0.322-0.215,0.305-0.559,0.343-0.883
			c0.214-0.206,0.428-0.411,0.642-0.617l0.05,0.049c-0.215,0.206-0.43,0.412-0.644,0.618c-0.11,0.296-0.221,0.593-0.332,0.888
			c-0.277,0.086-0.495,0.237-0.585,0.528c-0.299-0.002-0.462,0.146-0.482,0.446c-0.758,0.416-1.185,1.113-1.573,1.845
			c-0.631,0.534-1.158,1.152-1.497,1.915c-0.633,0.531-1.187,1.125-1.508,1.903c-1.239,1.688-2.479,3.376-3.716,5.067
			c-0.286,0.389-0.506,0.844-0.852,1.168c-0.392,0.369-0.853,0.839-1.475,0.383c-0.575-0.424-0.506-0.967-0.166-1.494
			c0.437-0.678,0.856-1.375,1.364-1.998c7.808-9.561,15.526-19.197,24.688-27.549c1.952-1.779,3.35-4.14,5.677-5.547L58.567,83.092z
			"/>
		<path d="M53.715,72.843c-3.577-1.327-6.762-3.436-10.165-5.109c-9.228-4.536-18.439-9.104-28.058-12.783
			c-2.415-0.924-4.827-1.853-7.237-2.788c-0.452-0.177-0.895-0.376-1.202-0.789c-0.509-0.684-0.525-1.219,0.46-1.343
			c0.892-0.114,1.76,0.033,2.627,0.317c11.987,3.932,23.186,9.501,33.929,16.074c2.901,1.773,5.671,3.75,8.634,5.422
			c0.44,0.248,0.75,0.604,0.964,1.053L53.715,72.843z"/>
		<path d="M62.013,59.265c0.166-3.159,1.007-6.211,1.54-9.309c2.453-14.246,3.668-28.558,2.736-43.016
			c-0.082-1.27-0.26-3.07,1.414-3.119c1.778-0.052,1.195,1.794,1.17,2.865c-0.307,12.707-1.107,25.383-3.064,37.953
			c-0.668,4.3-1.333,8.633-2.853,12.757c-0.245,0.661-0.229,1.454-0.991,1.831L62.013,59.265z"/>
		<path d="M48.41,64.49c-1.897-0.861-2.996-2.613-4.402-4.008c-7.697-7.639-15.566-15.073-24.485-21.301
			c-2.319-1.62-4.732-3.1-7.314-4.271c-1.049-0.476-1.729-1.154-1.744-2.367c-0.011-0.823,0.421-1.418,1.076-1.775
			c0.989-0.54,1.901-0.143,2.675,0.522c2.576,2.212,5.16,4.416,7.686,6.685c7.098,6.374,14.217,12.731,20.722,19.724
			c2.027,2.178,4.218,4.241,5.747,6.846L48.41,64.49z"/>
		<path d="M87.831,68.04c2.651-1.472,5.435-2.511,8.414-3.209c4.409-1.035,8.794-2.169,13.274-2.86
			c4.717-0.725,9.439-1.405,14.164-2.073c0.51-0.071,1.342-0.378,1.492,0.27c0.187,0.812-0.678,1.003-1.306,1.088
			c-2.325,0.313-4.662,0.532-6.984,0.862c-4.323,0.615-8.606,1.451-12.862,2.429c-0.296,0.068-0.824,0.22-0.821,0.315
			c0.022,0.593,0.546,0.455,0.908,0.457c5.668,0.018,11.335,0.048,16.991-0.459c0.899-0.08,2.432-0.679,2.568,0.283
			c0.13,0.91-1.49,0.768-2.369,0.818c-7.842,0.463-15.676,0.888-23.539,0.248c-2.494-0.203-4.933,0.774-7.363,1.371
			c-0.865,0.214-1.695,0.539-2.608,0.414L87.831,68.04z"/>
		<path d="M121.867,73.289c-0.143-0.015-0.567,0.018-0.945-0.102c-10.21-3.211-20.736-3.365-31.289-3.273
			c-0.402,0.002-0.803-0.054-1.203-0.084c0.186-0.554,0.759-0.509,1.131-0.574c1.514-0.268,3.045-0.529,4.577-0.59
			c9.571-0.388,19.124-0.107,28.651,0.939c1.275,0.14,2.384,0.678,2.193,2.037C124.777,73.1,123.427,73.324,121.867,73.289z"/>
		<path d="M79.322,49.44c-0.35-0.321-0.216-0.727-0.087-1.071c1.079-2.888,2.438-5.654,3.93-8.339
			c4.208-7.576,8.818-14.907,13.549-22.165c0.442-0.68,0.905-1.356,1.592-1.816c0.653-0.438,1.343-0.576,2.022-0.033
			c0.705,0.562,0.646,1.275,0.275,1.961c-0.305,0.566-0.682,1.109-1.107,1.59c-7.662,8.667-13.885,18.298-19.173,28.557
			C79.771,49.194,79.545,49.479,79.322,49.44z"/>
		<path d="M71.312,71.361c-0.148,0.059-0.315,0.09-0.439,0.18c-0.504,0.367-1.021,1.178-1.63,0.703
			c-0.752-0.589-0.01-1.369,0.301-1.939c2.742-5.042,5.425-10.122,8.345-15.061c4.155-7.027,8.475-13.963,14.036-20.012
			c0.631-0.687,1.107-1.654,2.271-1.631l0.052-0.034c-4.928,6.776-9.446,13.822-13.883,20.925c-2.99,4.785-5.83,9.653-8.354,14.702
			c-0.354,0.707-0.909,1.355-0.762,2.236L71.312,71.361z"/>
		<path d="M82.568,65.923c-0.086-0.022-0.496,0.271-0.764-0.153c0.277-0.156,0.537-0.367,0.834-0.463
			c7.602-2.467,15.191-4.959,22.64-7.87c5.267-2.057,10.532-4.107,15.584-6.661c0.997-0.504,2.49-1.407,3.007-0.347
			c0.543,1.114-1.247,1.386-2.107,1.774c-8.686,3.917-17.404,7.758-26.501,10.659C91.179,64.163,87.078,65.385,82.568,65.923z"/>
		<path d="M74.323,89.293c9.086,6.976,16.835,15.322,24.451,23.808c0.896,0.999,2.042,2.214,0.751,3.286
			c-1.224,1.015-2.305-0.32-3.24-1.235c-0.949-0.929-1.424-2.149-2.149-3.214c-4.952-7.26-11.077-13.463-17.349-19.55
			c-0.924-0.897-2.396-1.454-2.439-3.08L74.323,89.293z"/>
		<path d="M85.354,94.303c-2.266-2.228-5.23-3.357-7.874-4.992c-1.368-0.845-2.803-1.582-4.204-2.373
			c-0.414-0.234-0.867-0.449-0.857-1.039l-0.056,0.034c6.182,2.082,11.78,5.333,17.331,8.669
			c6.392,3.839,12.488,8.121,18.521,12.492c0.328,0.237,0.67,0.465,0.953,0.748c0.153,0.152,0.311,0.438,0.268,0.619
			c-0.089,0.395-0.484,0.361-0.785,0.314c-1.057-0.17-1.955-0.637-2.818-1.305c-6.162-4.758-12.717-8.931-19.413-12.889
			c-0.357-0.211-0.706-0.39-1.134-0.342L85.354,94.303z"/>
		<path d="M14.973,21.719c1.448-0.779,1.654-2.358,0.99-4.258c-0.393-1.125,0.176-1.709,1.153-0.993
			c1.932,1.41,3.562,1.025,5.22-0.378c0.215-0.182,0.591-0.174,0.893-0.255c0.024,0.317,0.139,0.658,0.058,0.945
			c-0.583,2.06-0.337,3.769,1.685,4.994c0.841,0.51,0.859,1.263-0.331,1.327c-1.993,0.108-3.295,0.975-3.964,2.895
			c-0.331,0.953-1.055,1.426-1.554,0.136c-0.744-1.923-1.999-2.751-4.064-2.64C13.65,23.567,13.85,22.849,14.973,21.719z"/>
		<path d="M92.147,59.708c1.694-2.339,4.062-3.968,6.384-5.522c6.188-4.143,12.635-7.878,19.28-11.251
			c1.858-0.944,2.985-0.863,3.414,0.161c0.409,0.979-0.364,2.233-2.018,2.883c-2.03,0.796-4.163,1.33-6.182,2.149
			c-6.932,2.82-13.241,6.771-19.456,10.884c-0.457,0.302-0.812,0.832-1.48,0.658L92.147,59.708z"/>
		<path d="M53.22,83.577c-1.13,1.045-2.617,1.497-3.876,2.326c-0.715,0.471-1.642,0.679-1.969,1.622l0.068-0.061
			c-0.441-0.007-0.917-0.077-1.047,0.529l0.056-0.054c-2.492,0.585-4.474,2.17-6.564,3.483c-6.851,4.308-13.716,8.61-19.413,14.479
			c-0.606,0.624-1.373,1.365-2.275,0.447c-0.792-0.807-0.375-1.742,0.179-2.425c0.547-0.672,1.307-1.205,2.051-1.675
			c9.302-5.87,18.577-11.787,28.342-16.88c1.428-0.744,2.851-1.519,4.48-1.759L53.22,83.577z"/>
		<path d="M6.258,63.604c10.73,0.732,20.944,1.726,31.044,3.637c2.051,0.388,4.028,1.166,6.039,1.771
			c0.395,0.117,0.941,0.357,0.809,0.725c-0.117,0.325-0.738,0.146-1.126,0.078c-4.774-0.837-9.521-1.859-14.322-2.494
			c-7.845-1.041-15.67-2.444-23.645-2.057c-0.16,0.008-0.332,0.021-0.483-0.021c-0.798-0.229-2.17,0.01-2.082-1.112
			c0.078-0.982,1.323-0.465,2.062-0.517C5.278,63.565,6.009,63.604,6.258,63.604z"/>
		<path d="M54.645,47.651c-0.029,0.234-0.069,0.55-0.109,0.863c-0.464-0.141-0.454-0.606-0.533-0.929
			c-1.107-4.471-2.203-8.946-3.251-13.432c-1.858-7.95-3.699-15.904-5.5-23.865c-0.193-0.853-0.903-2.204,0.161-2.518
			c0.746-0.221,0.846,1.314,1.063,2.133c3.175,11.956,5.885,24.016,7.922,36.221C54.477,46.604,54.553,47.083,54.645,47.651z"/>
		<path d="M71.232,45.593c0.275-2.846,1.374-5.485,2.102-8.215c2.501-9.385,4.887-18.79,6.228-28.427
			c0.033-0.239-0.007-0.512,0.092-0.719c0.325-0.68,0.349-1.916,1.327-1.691c0.781,0.18,0.366,1.237,0.248,1.918
			c-1.537,8.848-3.18,17.679-5.688,26.315c-1.078,3.714-2.087,7.48-4.283,10.758L71.232,45.593z"/>
		<path d="M73.19,11.414c-0.271,8.904-1.028,17.369-2.464,25.773c-0.371,2.167-1.043,4.244-1.58,6.361
			c-0.074,0.289-0.396,0.785-0.476,0.761c-0.522-0.157-0.28-0.637-0.22-0.949c0.942-4.855,1.417-9.777,2.006-14.679
			c0.793-6.6,1.342-13.225,1.354-19.881c0.002-0.404-0.004-0.811,0.002-1.216c0.012-1.133-0.064-2.879,1.092-2.852
			c1.162,0.029,0.549,1.738,0.547,2.701C73.45,8.89,73.268,10.346,73.19,11.414z"/>
		<path d="M41.21,45.912c-1.274-0.4-1.724-1.607-2.443-2.533c-4.274-5.499-8.662-10.891-14.046-15.37
			c-0.744-0.619-1.541-1.179-2.342-1.724c-0.901-0.61-1.542-1.432-1.994-2.394c-0.293-0.63-0.273-1.291,0.359-1.741
			c0.584-0.416,1.221-0.398,1.812,0.01c0.263,0.182,0.491,0.423,0.708,0.662c5.749,6.358,11.573,12.658,16.101,19.999
			c0.636,1.03,1.22,2.092,1.828,3.139L41.21,45.912z"/>
		<path d="M42.04,60.154c-2.848-1.404-5.143-3.603-7.688-5.433c-7.039-5.061-14.12-10.046-21.699-14.285
			c-0.892-0.499-2.444-1.298-1.914-2.078c0.634-0.93,1.794,0.386,2.63,0.878c8.382,4.93,16.638,10.055,24.127,16.304
			c1.659,1.383,3.417,2.705,4.494,4.666L42.04,60.154z"/>
		<path d="M48.272,124.748c0.521-4.343,1.576-8.582,2.598-12.817c1.569-6.509,3.19-13.017,5.822-19.208
			c0.545-1.283,0.927-2.666,2.08-3.602c-0.362,1.297-0.688,2.609-1.095,3.895c-2.634,8.311-4.91,16.719-6.877,25.212
			c-0.4,1.729-0.653,3.493-0.952,5.243c-0.095,0.559-0.105,1.128-0.431,1.625c-0.213,0.325-0.349,0.835-0.842,0.683
			C48.094,125.629,48.21,125.143,48.272,124.748z"/>
		<path d="M55.545,62.285c-0.089,0.336,0.211,0.733-0.173,1.02c-0.117-0.295-0.26-0.583-0.347-0.888
			c-1.906-6.682-3.871-13.345-6.047-19.946c-1.393-4.227-2.949-8.378-4.677-12.476c-0.395-0.936-1.477-2.419-0.228-2.931
			c0.922-0.377,1.11,1.466,1.485,2.378c3.207,7.776,6.017,15.688,8.279,23.798C54.668,56.216,55.062,59.253,55.545,62.285z"/>
		<path d="M62.464,30.122c-0.46-6.862-0.51-13.74-1.321-20.576c-0.133-1.119-0.669-2.189-0.434-3.344
			c0.093-0.455,0.215-1.049,0.792-1.048c0.504,0,0.439,0.583,0.544,0.944c0.55,1.882,0.56,3.847,0.69,5.768
			c0.467,6.854,1.247,13.691,1.137,20.579c-0.051,3.241-0.363,6.453-0.895,9.646c-0.038,0.226-0.188,0.633-0.226,0.627
			c-0.422-0.078-0.279-0.456-0.28-0.711C62.46,38.046,62.464,34.084,62.464,30.122z"/>
		<path d="M78.188,77.281c7.057,0.285,14.22,1.584,21.331,3.209c3.627,0.83,7.23,1.761,10.845,2.653
			c0.521,0.13,1.325,0.165,1.194,0.878c-0.129,0.704-0.968,0.549-1.457,0.438c-2.917-0.659-5.809-1.432-8.724-2.096
			c-8.841-2.021-17.774-3.507-26.778-4.585c-0.309-0.036-0.608-0.14-0.912-0.211c0.199-0.354,0.562-0.27,0.857-0.276
			C75.674,77.267,76.803,77.281,78.188,77.281z"/>
		<path d="M60.221,83.789c-4.134,6.193-7.755,12.689-11.248,19.254c-1.858,3.496-3.735,6.99-5.194,10.684
			c-0.117,0.295-0.287,0.604-0.518,0.814c-0.224,0.201-0.631,0.46-0.828,0.379c-0.446-0.184-0.362-0.676-0.198-1.037
			c0.867-1.916,1.726-3.837,2.655-5.723c3.616-7.329,7.318-14.614,12.119-21.264c0.858-1.188,1.479-2.731,3.19-3.08L60.221,83.789z"
			/>
		<path d="M84.9,50.926c4.163-5.172,8.353-10.325,12.481-15.526c2.719-3.427,5.23-7.009,7.569-10.708
			c0.555-0.877,1.426-2.406,2.141-1.881c1.031,0.756-0.463,1.733-0.964,2.472C100.764,33.195,95.31,41.05,88.57,47.893
			c-1.107,1.125-2.034,2.542-3.717,2.977L84.9,50.926z"/>
		<path d="M39.672,62.036c-2.461-0.741-4.199-2.639-6.282-3.979c-4.358-2.802-8.751-5.497-13.717-7.113
			c-0.38-0.122-0.788-0.261-1.086-0.51c-0.726-0.605-1.793-1.25-1.031-2.349c0.629-0.907,1.576-0.439,2.388,0.021
			c4.007,2.273,7.892,4.74,11.674,7.368c2.854,1.98,5.698,3.975,8.005,6.618L39.672,62.036z"/>
		<path d="M51.183,81.202c0.242,0.052,0.473,0.102,0.705,0.149c-0.083,0.373-0.412,0.495-0.698,0.577
			c-3.037,0.87-5.89,2.179-8.672,3.647c-4.072,2.148-7.967,4.586-11.646,7.359c-0.515,0.389-1.037,0.771-1.577,1.123
			c-0.352,0.228-0.782,0.35-1.092-0.032c-0.312-0.384-0.047-0.771,0.203-1.075c0.252-0.308,0.552-0.584,0.868-0.828
			c6.058-4.667,12.602-8.41,20.022-10.473C49.917,81.479,50.55,81.352,51.183,81.202z"/>
		<path d="M3.671,58.07c9.269,1.317,18.292,2.611,26.948,5.638c0.38,0.133,0.758,0.275,1.13,0.429
			c0.334,0.138,0.775,0.174,0.744,0.703c-0.308-0.036-0.625-0.036-0.921-0.116c-6.311-1.694-12.696-3.057-19.115-4.262
			c-2.457-0.46-4.944-0.758-7.416-1.136c-0.477-0.074-0.959-0.147-1.419-0.284c-0.29-0.085-0.693-0.256-0.655-0.589
			C3.036,57.873,3.547,58.072,3.671,58.07z"/>
		<path d="M46.122,40.542c-1.268-0.564-1.423-1.894-1.89-2.939c-3.328-7.477-6.863-14.843-11.196-21.801
			c-0.419-0.672-1.205-1.723-0.487-2.112c0.731-0.401,1.078,0.914,1.454,1.551c3.981,6.77,7.859,13.598,10.642,20.975
			c0.542,1.437,0.971,2.915,1.452,4.374L46.122,40.542z"/>
		<path d="M48.139,87.343c0.17,0.591-0.199,0.847-0.625,1.147c-8.197,5.801-16.123,11.945-23.663,18.583
			c-0.534,0.472-1.093,1.659-1.863,0.915c-0.418-0.402,0.703-1.064,1.217-1.516c7.249-6.346,14.549-12.627,22.728-17.785
			c0.28-0.176,0.52-0.377,0.519-0.747l-0.055,0.054c0.476,0.074,0.833-0.087,1.047-0.529l-0.068,0.061
			c0.266-0.059,0.531-0.117,0.796-0.177L48.139,87.343z"/>
		<path d="M85.285,94.24c3.107,3.68,7.064,6.371,10.863,9.23c3.037,2.287,6.203,4.4,9.308,6.598c0.251,0.178,0.69,0.542,0.657,0.6
			c-0.296,0.518-0.716,0.115-0.98-0.028c-3.057-1.662-5.999-3.503-8.821-5.552c-4.065-2.953-7.903-6.174-11.669-9.486
			c-0.34-0.3-0.955-0.597-0.66-1.107c0.258-0.445,0.905-0.107,1.371-0.191L85.285,94.24z"/>
		<path d="M9.668,47.997c-1.895,0.034-3.046-1.06-3.088-2.937c-0.044-1.887,1.304-3.306,3.113-3.275
			c1.596,0.028,3.078,1.535,3.081,3.133C12.779,46.581,11.38,47.965,9.668,47.997z"/>
		<path d="M122.242,85.073c0.02,1.594-1.431,3.163-3.001,3.253c-1.635,0.092-3.212-1.5-3.202-3.235
			c0.01-1.809,1.221-2.991,3.061-2.991C120.875,82.101,122.222,83.376,122.242,85.073z"/>
		<path d="M44.002,123.449c-1.796-0.006-3.148-1.287-3.155-2.988c-0.007-1.668,1.388-3.043,3.119-3.072
			c1.761-0.032,3.058,1.25,3.051,3.018C47.009,122.257,45.822,123.456,44.002,123.449z"/>
		<path d="M61.29,97.099c-0.298,7.925-0.998,15.836-0.766,23.775c0.052,1.778,0.239,3.552,0.317,5.331
			c0.012,0.281-0.194,0.803-0.351,0.825c-0.655,0.09-0.456-0.523-0.474-0.833c-0.34-5.904-0.472-11.816-0.149-17.723
			c0.186-3.387,0.069-6.802,0.701-10.16c0.075-0.396,0.063-0.814,0.179-1.197c0.128-0.422,0.357-0.815,0.542-1.223
			C61.29,96.296,61.29,96.697,61.29,97.099z"/>
		<path d="M76.191,120.967c-0.938-1.437-1.111-3.13-1.551-4.727c-1.971-7.149-3.723-14.364-6.373-21.311
			c-0.143-0.375-0.256-0.766-0.33-1.16c-0.06-0.307-0.109-0.76,0.202-0.86c0.343-0.109,0.51,0.283,0.614,0.601
			c0.354,1.072,0.728,2.139,1.068,3.216c2.21,6.991,4.566,13.94,5.998,21.155c0.206,1.037,0.307,2.072,0.331,3.123L76.191,120.967z"
			/>
		<path d="M60.185,89.143c-0.75,9.436-1.978,18.835-2.071,28.319c-0.005,0.557,0.276,1.548-0.571,1.541
			c-0.547-0.005-0.312-0.965-0.278-1.487c0.598-8.959,0.475-17.979,2.29-26.834c0.112-0.546,0.048-1.154,0.642-1.487L60.185,89.143z
			"/>
		<path d="M37.264,83.169c0.221,0.051,0.45,0.103,0.679,0.153c-0.254,0.158-0.489,0.393-0.766,0.465
			c-3.055,0.809-6.017,1.883-8.931,3.096c-2.689,1.121-5.353,2.276-7.833,3.836c-0.854,0.535-2.282,1.373-2.8,0.333
			c-0.568-1.141,0.976-1.583,1.934-1.954c5.426-2.105,10.806-4.349,16.53-5.57C36.471,83.443,36.851,83.296,37.264,83.169z"/>
		<path d="M45.549,92.46c-2.65,2.709-5.851,4.788-8.504,7.51c-1.465,1.505-2.804,3.116-4.27,4.61
			c-0.463,0.471-1.085,1.255-1.792,0.486c-0.5-0.544-0.103-1.229,0.421-1.688c4.484-3.92,8.866-7.972,13.973-11.109
			C45.435,92.332,45.492,92.396,45.549,92.46z"/>
		<path d="M21.96,79.903c0.011,0,0.254-0.012,0.496,0.003c0.315,0.019,0.761,0.012,0.806,0.353c0.062,0.473-0.435,0.317-0.699,0.37
			c-2.216,0.442-4.451,0.769-6.658,1.301c-3.155,0.761-6.223,1.725-9.212,2.973c-0.461,0.193-1.145,0.729-1.484,0.002
			c-0.368-0.789,0.34-1.131,0.982-1.349C11.253,81.846,16.385,80.434,21.96,79.903z"/>
		<path d="M118.802,55.471c1.745,0.002,3.085,0.936,3.005,2.093c-0.069,0.998-1.468,1.945-2.947,1.995
			c-1.54,0.052-3.125-0.978-3.154-2.05C115.674,56.397,117.088,55.467,118.802,55.471z"/>
		<path d="M15.846,100.154c-0.246-0.043-0.84-0.05-1.348-0.262c-0.697-0.292-1.183-0.836-1.205-1.672
			c-0.02-0.755,0.446-1.164,1.009-1.537c0.573-0.381,1.21-0.436,1.86-0.451c1.725-0.041,3.167,0.865,3.159,1.977
			C19.312,99.385,18.013,100.188,15.846,100.154z"/>
		<path d="M9.698,77.35c-0.003,1.005-1.153,2.068-2.292,2.118c-1.346,0.059-2.362-0.927-2.305-2.237
			c0.052-1.197,0.987-1.988,2.299-1.942C8.627,75.329,9.702,76.293,9.698,77.35z"/>
		<path d="M27.826,110.568c0.039,1.072-1.052,2.143-2.073,2.01c-0.978-0.128-1.969-0.59-2.039-1.686
			c-0.078-1.219,0.789-1.844,1.963-1.933C26.914,108.866,27.576,109.551,27.826,110.568z"/>
		<path d="M42.334,20.3c-0.207,0.894-0.629,1.503-1.639,1.433c-0.971-0.069-1.456-0.616-1.462-1.566
			c-0.007-1.046,0.704-1.42,1.583-1.414C41.777,18.759,42.216,19.413,42.334,20.3z"/>
		<path d="M62.376,73.238c-0.18,0.864-0.608,1.475-1.564,1.504c-0.986,0.03-1.512-0.604-1.54-1.461
			c-0.032-0.982,0.545-1.711,1.608-1.631C61.752,71.717,62.272,72.332,62.376,73.238z"/>
		<path d="M64.883,79.843c-0.008,1.003-0.389,1.652-1.384,1.694c-0.942,0.037-1.542-0.453-1.601-1.414
			c-0.058-0.954,0.488-1.562,1.4-1.639C64.235,78.407,64.773,78.976,64.883,79.843z"/>
		<path d="M9.351,57.25c-0.933-0.039-1.643-0.438-1.709-1.381c-0.065-0.933,0.519-1.495,1.469-1.577
			c0.972-0.082,1.574,0.426,1.664,1.353C10.868,56.614,10.245,57.097,9.351,57.25z"/>
		<path d="M88.508,22.602c-0.143,0.935-0.652,1.51-1.604,1.504c-0.816-0.007-1.377-0.439-1.459-1.312
			c-0.096-1.014,0.484-1.544,1.398-1.613C87.795,21.107,88.309,21.715,88.508,22.602z"/>
		<path d="M82.055,71.275c-0.995-0.018-1.424-0.604-1.484-1.504c-0.064-0.957,0.463-1.53,1.371-1.591
			c0.871-0.058,1.556,0.331,1.619,1.325C83.628,70.564,83.035,71.097,82.055,71.275z"/>
		<path d="M105.168,79.605c-1.476,0.096-1.981-0.465-1.979-1.377c0.002-0.88,0.471-1.533,1.449-1.521
			c0.914,0.011,1.499,0.493,1.528,1.451C106.197,79.145,105.613,79.571,105.168,79.605z"/>
		<path d="M99.842,27.437c-0.077,0.931-0.596,1.496-1.52,1.521c-0.903,0.026-1.578-0.457-1.605-1.408
			c-0.025-0.941,0.648-1.542,1.496-1.578S99.691,26.497,99.842,27.437z"/>
		<path d="M24.728,33.197c-0.034,0.917-0.285,1.652-1.307,1.725c-0.923,0.063-1.537-0.349-1.652-1.332
			c-0.116-0.994,0.4-1.536,1.322-1.642C24,31.843,24.638,32.223,24.728,33.197z"/>
		<path d="M22.48,93.863c1.01-0.033,1.63,0.414,1.671,1.369c0.04,0.938-0.497,1.494-1.466,1.524
			c-0.853,0.026-1.384-0.423-1.464-1.258C21.134,94.577,21.533,93.954,22.48,93.863z"/>
		<path d="M15.792,76.693c-0.035,0.955-0.536,1.458-1.501,1.477c-0.862,0.016-1.389-0.441-1.45-1.273
			c-0.069-0.922,0.376-1.563,1.361-1.615C15.147,75.232,15.709,75.705,15.792,76.693z"/>
		<path d="M37.314,117.75c0.638,0.014,1.202,0.168,1.237,0.869c0.046,0.92-0.682,0.957-1.329,0.95
			c-0.638-0.009-1.412-0.036-1.339-0.944C35.95,117.788,36.714,117.806,37.314,117.75z"/>
		<path d="M61.527,49.555c-0.742-0.034-1.54-0.01-1.611-0.797c-0.067-0.738,0.585-1.064,1.297-1.06
			c0.655,0.004,1.398,0.139,1.506,0.86C62.852,49.44,62.021,49.426,61.527,49.555z"/>
		<path d="M45.377,92.27c0.432-0.746,1.235-1.025,1.883-1.5l-0.041-0.036c-0.005,1.109-0.894,1.364-1.671,1.727
			C45.492,92.396,45.435,92.332,45.377,92.27z"/>
		<path d="M54.729,80.989c-0.159,0.002-0.318,0.005-0.477-0.003c-0.009-0.001-0.013-0.084-0.019-0.131
			c0.159-0.002,0.319-0.007,0.478-0.002C54.719,80.854,54.723,80.94,54.729,80.989z"/>
		<path d="M76.151,121.004c0.092,0.207,0.227,0.408,0.262,0.624c0.047,0.29,0.015,0.593,0.017,0.89
			c-0.519-0.146-0.207-0.582-0.285-0.875c-0.055-0.208,0.026-0.449,0.047-0.676L76.151,121.004z"/>
		<path d="M60.197,89.194c0.019-0.359,0.037-0.72,0.055-1.079c-0.022,0.343-0.044,0.686-0.067,1.027L60.197,89.194z"/>
		<polygon points="54.863,50.702 54.978,50.596 54.976,50.812 		"/>
		<path d="M46.097,40.588c0.047,0.217,0.098,0.435,0.133,0.655c0.005,0.036-0.071,0.084-0.11,0.125
			c-0.228-0.276-0.052-0.552,0.002-0.828L46.097,40.588z"/>
		<path d="M72.418,85.898c-0.131,0.004-0.313,0.062-0.384-0.003c-0.12-0.111-0.043-0.147,0.142-0.019
			c0.051,0.035,0.125,0.038,0.187,0.056L72.418,85.898z"/>
		<path d="M61.965,59.228c-0.021,0.129-0.043,0.26-0.064,0.389c-0.333-0.234,0.041-0.246,0.111-0.352L61.965,59.228z"/>
		<path d="M48.904,65.176c0.025,0.044,0.049,0.087,0.074,0.131c0.041-0.036,0.081-0.074,0.121-0.109
			c-0.046-0.025-0.093-0.048-0.14-0.072L48.904,65.176z"/>
		<path d="M49.363,87.053c-0.362,0.29-0.791,0.303-1.225,0.29l0.032,0.006c0.389-0.093,0.778-0.184,1.167-0.276L49.363,87.053z"/>
		<path d="M48.944,89.898c0.231-0.259-0.029-0.049-0.057-0.061L48.944,89.898z"/>
		<path d="M74.348,89.308c-0.119-0.005-0.238-0.011-0.357-0.016c0.11,0,0.222,0.001,0.333,0.001L74.348,89.308z"/>
		<path d="M41.191,45.958c0.042,0.125,0.084,0.249,0.125,0.373c-0.284-0.077-0.03-0.292-0.107-0.42L41.191,45.958z"/>
		<path d="M48.396,90.503c-0.343,0.325-0.732,0.419-1.176,0.23l0.041,0.036c0.368-0.225,0.752-0.354,1.184-0.203L48.396,90.503z"/>
		<path d="M68.799,76.357c0.148-0.371,0.298-0.74,0.447-1.109l-0.057-0.057c0.039,0.387,0.076,0.772,0.114,1.158l0.045-0.062
			c-0.197,0-0.395-0.001-0.591-0.002L68.799,76.357z"/>
		<path d="M53.667,72.896c0.36,0.052,0.734,0.078,0.922,0.468l0.053,0.027c-0.342-0.127-0.779-0.096-0.928-0.549L53.667,72.896z"/>
		<path d="M53.251,83.611c0.137-0.493,0.548-0.462,0.932-0.483l-0.047-0.05c-0.133,0.484-0.519,0.502-0.917,0.499L53.251,83.611z"/>
		<path d="M54.183,83.128c0.089-0.078,0.18-0.157,0.271-0.235c-0.033,0.052-0.052,0.124-0.098,0.149
			c-0.062,0.031-0.146,0.026-0.219,0.036L54.183,83.128z"/>
		<path d="M87.873,118.037c-0.428-0.152-0.547-0.488-0.546-0.9l-0.043,0.037c0.448,0.146,0.415,0.573,0.533,0.914L87.873,118.037z"
			/>
		<path d="M87.817,118.088c0.088,0.095,0.182,0.188,0.259,0.291c0.012,0.018-0.065,0.135-0.074,0.131
			c-0.261-0.096-0.166-0.293-0.129-0.473L87.817,118.088z"/>
		<path d="M59.568,78.797c-0.314-0.164-0.627-0.328-0.941-0.493l-0.057,0.058c0.326,0.129,0.653,0.256,0.979,0.385L59.568,78.797z"
			/>
		<path d="M60.2,83.816c0.007-0.009,0.013-0.018,0.021-0.027L60.2,83.816z"/>
		<path d="M87.79,67.996c0.001,0.199-0.077,0.285-0.231,0.254c0.019-0.058,0.021-0.14,0.059-0.165
			c0.058-0.037,0.142-0.032,0.214-0.045L87.79,67.996z"/>
		<path d="M54.638,67.061c0.117,0.071,0.234,0.144,0.352,0.216c-0.355,0.202-0.198-0.178-0.301-0.264L54.638,67.061z"/>
		<path d="M59.549,78.746c0.212,0.246-0.201,0.215,0.095,0.1c0.142-0.057,0.078-0.17-0.076-0.049L59.549,78.746z"/>
		<path d="M66.378,78.74c-0.322,0.028-0.074-0.293-0.139,0.019c-0.032,0.155,0.109,0.172,0.135-0.014L66.378,78.74z"/>
		<path d="M58.607,83.131c0.009-0.252,0.154-0.394,0.382-0.465l-0.048-0.039c0.071,0.312-0.089,0.438-0.374,0.465L58.607,83.131z"/>
		<polygon points="65.499,84.104 65.383,84.047 65.46,84.124 		"/>
		<path d="M58.137,77.654c0.144,0.235,0.289,0.471,0.433,0.707l0.057-0.058c-0.272-0.159-0.449-0.376-0.44-0.71L58.137,77.654z"/>
		<polygon points="67.812,77.592 67.772,77.725 67.812,77.648 		"/>
		<path d="M66.374,78.745c0.053-0.013,0.106-0.024,0.159-0.037c-0.105-0.174-0.158-0.164-0.156,0.032
			C66.378,78.74,66.374,78.745,66.374,78.745z"/>
		<polygon points="59.668,82.095 59.713,81.957 59.62,82.051 		"/>
		<path d="M59.62,82.051c-0.227,0.193-0.453,0.385-0.679,0.576l0.048,0.039c0.226-0.191,0.453-0.381,0.679-0.571L59.62,82.051z"/>
		<polygon points="71.257,45.532 71.242,45.727 71.232,45.593 		"/>
		<path d="M40.062,62.697c-0.255-0.146-0.367-0.377-0.39-0.662l-0.049,0.057c0.147,0.192,0.295,0.385,0.442,0.577L40.062,62.697z"/>
		<polygon points="54.59,73.364 54.753,73.408 54.643,73.392 		"/>
		<path d="M41.989,60.206c0.192,0.128,0.436,0.213,0.407,0.516l0.046,0.022c-0.134-0.196-0.269-0.393-0.402-0.59L41.989,60.206z"/>
		<polygon points="92.09,59.67 92.137,59.832 92.147,59.708 		"/>
		<polygon points="42.396,60.721 42.521,60.813 42.442,60.744 		"/>
		<path d="M66.871,68.471l0.047,0.051L66.871,68.471z"/>
		<polygon points="84.293,51.512 84.252,51.621 84.346,51.569 		"/>
		<path d="M84.854,50.87c-0.188,0.213-0.373,0.428-0.561,0.642l0.053,0.057c0.186-0.213,0.37-0.427,0.555-0.643L84.854,50.87z"/>
		<path d="M48.369,64.543c0.179,0.212,0.357,0.422,0.535,0.633l0.055-0.051c-0.184-0.211-0.366-0.423-0.55-0.635L48.369,64.543z"/>
		<path d="M48.445,90.566c0.022-0.332,0.216-0.533,0.5-0.668l-0.057-0.061c-0.164,0.223-0.327,0.444-0.491,0.665L48.445,90.566z"/>
		<path d="M94.194,33.601c0.27-0.181,0.139,0.244,0.094-0.074c-0.015-0.103-0.124-0.077-0.042,0.04L94.194,33.601z"/>
		<path d="M49.338,87.072c0.042-0.005,0.084-0.012,0.126-0.017c-0.052-0.14-0.085-0.142-0.101-0.003L49.338,87.072z"/>
		<path d="M40.064,62.67c0,0.01-0.001,0.018-0.002,0.027L40.064,62.67z"/>
		<path d="M80.921,61.682l0.056,0.058L80.921,61.682z"/>
		<path d="M82.029,60.805c-0.153,0.17-0.308,0.343-0.461,0.514l-0.154-0.154c0.123-0.205,0.247-0.408,0.369-0.613
			C81.865,60.637,81.947,60.72,82.029,60.805z"/>
		<path d="M81.568,61.319c-0.143,0.251-0.367,0.357-0.647,0.363l0.056,0.058c0.021-0.286,0.166-0.479,0.438-0.575L81.568,61.319z"/>
		<path d="M76.938,100.77c-0.373-0.211-0.624-0.785-0.419-0.896c0.407-0.221,0.567,0.289,0.701,0.635
			C77.125,100.594,77.031,100.681,76.938,100.77z"/>
		<polygon points="75.754,95.761 75.627,95.715 75.704,95.778 		"/>
		<polygon points="52.216,64.172 52.147,64.038 52.282,64.109 		"/>
		<path d="M72.09,50.854c0.316-0.152,0.42-0.084,0.262,0.254C72.264,51.024,72.178,50.939,72.09,50.854z"/>
		<path d="M83.521,87.402c-0.133-0.029-0.266-0.06-0.4-0.09c0.057-0.006,0.125-0.034,0.17-0.014c0.07,0.033,0.125,0.1,0.188,0.152
			L83.521,87.402z"/>
		<path d="M68.758,76.286c0.196,0.001,0.394,0.002,0.591,0.002C69.151,76.288,68.954,76.287,68.758,76.286z"/>
		<path d="M96.264,84.977c-0.072-0.019-0.182-0.074-0.207-0.047c-0.127,0.131-0.066,0.151,0.15,0.033L96.264,84.977z"/>
		<path d="M36.091,109.282c0.389-0.731,0.815-1.429,1.573-1.845l0.005,0.004c-0.076,0.913-0.694,1.5-1.27,2.112
			C36.296,109.463,36.193,109.373,36.091,109.282z"/>
		<path d="M34.908,111.495c-0.389,0.723-0.706,1.497-1.432,1.974c-0.13-0.122-0.26-0.246-0.39-0.368
			c0.321-0.778,0.875-1.372,1.508-1.903C34.699,111.297,34.804,111.396,34.908,111.495z"/>
		<path d="M34.594,111.197c0.339-0.763,0.866-1.381,1.497-1.915c0.103,0.091,0.205,0.181,0.309,0.271
			c-0.426,0.701-0.747,1.483-1.491,1.941C34.804,111.396,34.699,111.297,34.594,111.197z"/>
		<path d="M38.731,106.463c0.11-0.295,0.221-0.592,0.332-0.888l-0.047-0.05c-0.038,0.324-0.021,0.668-0.343,0.883L38.731,106.463z"
			/>
		<path d="M39.707,104.957l-0.05-0.049L39.707,104.957z"/>
		<path d="M38.109,106.953c0.008,0.302-0.128,0.475-0.44,0.488l-0.005-0.004c0.021-0.301,0.183-0.448,0.482-0.446L38.109,106.953z"
			/>
		<path d="M38.673,106.408c-0.188,0.182-0.376,0.363-0.563,0.545l0.037,0.038c0.09-0.291,0.308-0.442,0.585-0.528L38.673,106.408z"
			/>
		<path d="M39.657,104.908c-0.214,0.206-0.428,0.411-0.642,0.617l0.047,0.05c0.214-0.206,0.429-0.412,0.644-0.618L39.657,104.908z"
			/>
		<path d="M47.443,87.465c-0.213,0.442-0.571,0.604-1.047,0.529C46.526,87.388,47.002,87.458,47.443,87.465z"/>
	</g>
</g>
</svg>
