<?xml version="1.0" encoding="utf-8"?>
<!-- Generator: Adobe Illustrator 16.0.4, SVG Export Plug-In . SVG Version: 6.00 Build 0)  -->
<!DOCTYPE svg PUBLIC "-//W3C//DTD SVG 1.1//EN" "http://www.w3.org/Graphics/SVG/1.1/DTD/svg11.dtd">
<svg version="1.1" id="Layer_3607" xmlns="http://www.w3.org/2000/svg" xmlns:xlink="http://www.w3.org/1999/xlink" x="0px" y="0px"
	 width="128px" height="128px" viewBox="0 0 128 128" enable-background="new 0 0 128 128" xml:space="preserve">
<g id="bEKyRB.tif">
	<g>
		<path fill-rule="evenodd" clip-rule="evenodd" d="M46.637,26.788c0.001,6.697,0.073,13.395-0.035,20.09
			c-0.041,2.486,0.225,4.495,2.963,5.443c1.827,0.632,3.069,2.104,4.226,3.628c0.916,1.207,0.983,2.927,2.371,3.831
			c0.066-1.666,0.171-3.33,0.19-4.996c0.035-2.93-0.02-5.86,0.029-8.79c0.108-6.423,0.927-7.287,7.227-7.317
			c10.045-0.049,20.092-0.109,30.136,0.027c3.021,0.041,4.847-0.237,5.658-3.893c0.742-3.344,4.322-4.671,7.545-3.934
			c3.084,0.705,5.024,3.039,5.178,6.228c0.171,3.545-1.526,6.606-5.039,6.795c-4.281,0.231-4.7,2.375-4.406,5.627
			c0.037,0.416-0.021,0.838,0.01,1.255c0.234,3.104-1.184,6.774,0.759,9.176c1.9,2.347,5.537,0.705,8.392,1.021
			c3.693,0.408,4.824,1.26,4.854,5.135c0.115,14.857,0.289,29.723-0.05,44.574c-0.207,9.096-6.021,15.088-15.013,16.619
			c-1.843,0.312-3.738,0.431-5.61,0.438c-10.883,0.039-21.766,0.045-32.648-0.004c-2.08-0.01-4.185-0.16-6.235-0.5
			c-8.811-1.463-14.537-7.895-14.681-16.814c-0.163-10.252-0.141-20.51,0.006-30.764c0.049-3.408-0.886-5.283-4.023-7.38
			c-3.762-2.513-7.272-3.347-11.562-3.335c-10.187,0.027-15.56-5.325-15.641-15.416c-0.102-12.556-0.101-25.114,0.006-37.671
			C11.322,6.03,15.865,1.006,25.481,0.324c5.207-0.369,10.465-0.276,15.688-0.077c4.397,0.167,5.387,1.333,5.442,5.822
			C46.698,12.974,46.635,19.882,46.637,26.788z M79.058,60.973c0,0.004,0,0.008,0,0.012c5.438,0,10.879-0.1,16.314,0.041
			c2.741,0.071,3.704-0.993,3.602-3.673c-0.152-3.969-0.095-7.948-0.04-11.921c0.03-2.144-0.976-2.969-3.032-2.963
			c-10.876,0.026-21.753,0.017-32.629,0.01c-2.056-0.001-3.044,0.945-3.024,3.051c0.038,3.973,0.087,7.951-0.049,11.921
			c-0.097,2.8,1.219,3.61,3.799,3.554C69.016,60.895,74.037,60.973,79.058,60.973z M79.699,105.375
			c9.808,0,19.615,0.057,29.421-0.029c3.526-0.03,3.724-0.6,3.798-4.062c0.08-3.729-2.443-3.167-4.667-3.169
			c-17.11-0.018-34.221-0.014-51.331-0.015c-2.295,0-4.593-0.064-6.886,0.026c-3.49,0.139-3.896,0.754-3.887,4.024
			c0.009,3.026,1.849,3.245,4.131,3.239C60.085,105.361,69.893,105.379,79.699,105.375z M44.385,70.382
			c4.576-0.081,8.043-3.487,8.02-7.879c-0.022-4.076-3.965-8.131-8.003-8.232c-4.626-0.115-8.163,3.61-8.074,8.505
			C36.41,67.384,39.674,70.465,44.385,70.382z M108.848,37.848c0.094-1.855-1.803-3.806-3.501-3.661
			c-1.886,0.162-2.916,1.427-3.212,3.148c-0.273,1.589,1.898,3.772,3.479,3.507C107.334,40.555,108.543,39.521,108.848,37.848z"/>
		<path fill-rule="evenodd" clip-rule="evenodd" d="M79.343,37.833c-9.036-0.037-14.873-8.108-12.104-16.706
			c2.2-6.836,6.098-12.773,10.004-18.679c1.705-2.578,2.794-2.479,4.645,0.209c3.911,5.679,7.534,11.57,9.815,18.099
			C94.771,29.544,88.619,37.87,79.343,37.833z M88.944,24.797c-0.074-0.501-0.063-1.587-0.407-2.545
			c-1.981-5.534-5.03-10.518-8.145-15.461c-1.062-1.686-1.673-0.356-2.137,0.424c-2.554,4.3-5.229,8.533-7.081,13.221
			c-0.63,1.594-0.967,3.197-0.967,4.871c-0.001,5.036,4.009,9.196,9.001,9.402C84.396,34.921,88.86,30.619,88.944,24.797z"/>
		<path fill-rule="evenodd" clip-rule="evenodd" d="M79.475,45.108c1.667,0.213,2.789,1.103,2.828,2.739
			c0.037,1.589-0.903,2.854-2.561,2.902c-1.826,0.053-3.246-0.891-3.103-2.943C76.752,46.193,77.942,45.361,79.475,45.108z"/>
		<path fill-rule="evenodd" clip-rule="evenodd" d="M93.895,50.797c-1.692-0.087-2.812-0.946-3.009-2.55
			c-0.202-1.643,0.766-2.819,2.362-3.028c1.944-0.254,3.168,0.941,3.294,2.785C96.655,49.665,95.43,50.515,93.895,50.797z"/>
		<path fill-rule="evenodd" clip-rule="evenodd" d="M96.636,55.688c-0.179,1.632-1.049,2.795-2.653,2.924
			c-1.619,0.129-2.702-0.89-3.013-2.493c-0.314-1.615,1.272-3.44,2.847-3.25C95.427,53.064,96.32,54.126,96.636,55.688z"/>
		<path fill-rule="evenodd" clip-rule="evenodd" d="M82.297,55.887c-0.333,1.565-1.259,2.719-2.854,2.735
			c-1.577,0.017-2.78-1.039-2.827-2.654c-0.055-1.894,1.138-3.123,3.049-2.994C81.247,53.081,82.104,54.296,82.297,55.887z"/>
		<path fill-rule="evenodd" clip-rule="evenodd" d="M67.955,47.778c0.069,1.9-0.853,2.957-2.528,3.028
			c-1.649,0.07-2.806-0.848-2.844-2.614c-0.036-1.674,0.893-2.823,2.563-2.948C66.897,45.114,67.72,46.286,67.955,47.778z"/>
		<path fill-rule="evenodd" clip-rule="evenodd" d="M67.992,56.212c-0.58,1.816-1.673,2.745-3.32,2.312
			c-1.577-0.414-2.425-1.658-2.007-3.352c0.397-1.61,1.552-2.554,3.208-2.115C67.452,53.476,68.142,54.748,67.992,56.212z"/>
		<path fill-rule="evenodd" clip-rule="evenodd" d="M48.972,62.501c0.049,2.487-2.292,4.792-4.836,4.761
			c-2.328-0.028-4.28-1.969-4.442-4.417c-0.179-2.692,1.815-5.02,4.382-5.113C46.452,57.646,48.924,60.053,48.972,62.501z"/>
		<path fill-rule="evenodd" clip-rule="evenodd" d="M84.652,26.397c0.019,2.033-0.689,3.726-2.59,4.614
			c-2.009,0.939-4.097,0.967-5.865-0.536c-1.474-1.252-2.461-2.841-1.939-4.938c0.1-0.401,0.279-0.785,0.445-1.167
			c1.24-2.841,2.169-5.971,4.988-7.662C80.542,16.199,84.613,24.059,84.652,26.397z"/>
	</g>
</g>
</svg>
