<?xml version="1.0" encoding="utf-8"?>
<!-- Generator: Adobe Illustrator 16.0.4, SVG Export Plug-In . SVG Version: 6.00 Build 0)  -->
<!DOCTYPE svg PUBLIC "-//W3C//DTD SVG 1.1//EN" "http://www.w3.org/Graphics/SVG/1.1/DTD/svg11.dtd">
<svg version="1.1" id="Layer_3702" xmlns="http://www.w3.org/2000/svg" xmlns:xlink="http://www.w3.org/1999/xlink" x="0px" y="0px"
	 width="128px" height="128px" viewBox="0 0 128 128" enable-background="new 0 0 128 128" xml:space="preserve">
<g>
	<path d="M35.966,101.539c-5.405,0.91-6.062,0.91-10.051,0.758c-0.471,0.59-0.267,1.471-0.229,1.947
		c0.041,0.516,0.255,0.971,0.67,1.324c5.364,1.926,14.892-0.197,17.554-3.92c-0.321-1.438-0.219-1.199-1.075-2.383
		C42.835,99.266,41.723,100.57,35.966,101.539z"/>
	<ellipse transform="matrix(0.186 0.9825 -0.9825 0.186 49.275 5.5084)" cx="21.313" cy="32.493" rx="6.531" ry="21.117"/>
	<path d="M127.623,40.692c-1.105-6.225-2.596-12.381-4.011-18.984C97.102,26.921,70.797,32.095,44.71,37.225
		c-1.397-1.956-0.722-4.14-2.022-5.621c-0.356,3.449-8.746,7.685-19.554,9.731c-10.57,2-19.75,1.206-21.639-1.71
		c-1.121,0.917-0.417,2.051-0.208,3.112c2.921,14.819,5.823,29.643,8.795,44.453c0.847,4.223,1.447,8.506,2.665,12.662
		c4.77,2.252,9.683,2.279,14.625,1.83c8.974-0.82,14.849-2.734,15.504-2.846l-0.066,0.035c2.117-0.898,4.103-2.129,6.396-2.582
		c14.341-2.834,28.69-5.627,43.02-8.516c2.847-0.572,5.769-0.91,8.282-1.881c0.931-0.947,1.291-1.875,1.5-2.777
		c-0.98-6.773-2.167-13.416-3.564-20.017c-0.389-1.833-0.061-3.399,0.771-4.934c1.374-2.536,3.46-4.119,6.345-4.669
		c4.951-0.944,9.91-1.857,14.823-2.972C124.844,49.512,128.367,44.883,127.623,40.692z M90.481,31.991
		c0.39,1.341,0.73,2.584,0.687,3.905c-0.797,0.872-1.729,0.948-2.773,0.714c-1.021-1.236-0.738-2.668-0.811-3.993
		C88.302,31.54,89.174,31.389,90.481,31.991z M79.814,33.948c0.896-0.774,1.742-0.828,2.84-0.392
		c0.463,1.183,1.006,2.447,0.754,3.778c-0.783,0.924-1.608,1.069-2.691,0.716C79.976,36.794,79.617,35.395,79.814,33.948z
		 M72.054,35.544c0.731-0.731,1.545-0.969,2.583-0.822c1.138,1.277,1.022,2.834,0.99,4.316c-0.944,0.697-1.771,0.768-2.787,0.482
		C72.325,38.233,71.858,36.963,72.054,35.544z M67.12,36.507c0.908,1.101,0.626,2.492,1.008,3.798
		c-1.024,0.934-1.928,1.144-2.966,0.771c-0.817-1.296-0.557-2.74-1.003-3.884C65.161,36.087,66.112,36.192,67.12,36.507z
		 M56.707,38.504c0.771-0.882,1.604-0.94,2.653-0.652c0.66,1.247,0.911,2.651,1.008,4.026c-0.758,0.846-1.654,0.858-2.775,0.937
		C56.728,41.321,56.576,39.899,56.707,38.504z M51.624,39.509c0.861,1.183,1.057,2.581,0.966,3.921
		c-0.834,0.918-1.663,1.019-2.709,0.721c-0.667-1.255-1.005-2.638-1.024-4.067C49.922,39.223,50.69,39.273,51.624,39.509z
		 M37.026,89.213c-2.592-13.131-5.133-26.003-7.736-39.188c18.129-3.556,35.891-7.04,54.086-10.609
		c2.578,13.069,5.118,25.95,7.722,39.149C72.732,82.182,55.07,85.66,37.026,89.213z M59.11,91.592
		c-0.85-1.24-0.717-2.711-0.765-4.057c0.764-0.914,1.621-0.916,2.735-0.729c0.883,1.363,0.63,2.785,0.846,4.062
		C61.151,91.871,60.267,92.033,59.11,91.592z M69.595,89.455c-0.852,0.949-1.698,1.193-2.898,0.48
		c-0.269-1.203-0.563-2.527-0.86-3.861c0.993-0.82,1.764-0.902,2.676-0.861C69.751,86.416,69.676,87.965,69.595,89.455z
		 M77.306,87.885c-0.722,0.887-1.577,0.844-2.608,0.602c-0.65-1.258-1.215-2.584-0.887-4.197c0.897-0.742,1.667-0.67,2.609-0.449
		C76.984,85.098,77.649,86.395,77.306,87.885z M82.595,87.113c-1.234-1.152-0.971-2.709-1.195-4.299
		c1.022-0.57,1.804-0.973,2.841-0.609c0.678,1.182,0.861,2.529,0.979,3.834C84.56,87.098,83.708,87.391,82.595,87.113z
		 M92.577,84.922c-0.767,0.867-1.608,0.828-2.612,0.428c-0.65-1.201-0.881-2.539-0.871-3.826c0.772-0.957,1.626-0.994,2.703-0.73
		C92.763,82.004,92.787,83.457,92.577,84.922z M99.604,79.145c0.702,1.523,1.102,2.842,0.788,4.266
		c-0.711,0.797-1.56,0.875-2.605,0.709c-0.567-1.381-1.13-2.734-0.902-4.223C97.67,79.086,98.523,79.025,99.604,79.145z
		 M95.99,34.947c-0.664-1.229-0.672-2.632-0.898-3.895c0.67-1.016,1.668-0.751,2.453-1.066c1.524,1.144,0.96,2.835,1.453,4.149
		C98.199,35.292,97.227,35.448,95.99,34.947z M106.443,32.994c-0.831,0.633-1.665,0.766-2.765,0.433
		c-0.499-1.194-0.894-2.487-0.752-4.072c0.888-0.73,1.677-1.036,2.8-0.46C106.139,30.148,106.941,31.445,106.443,32.994z
		 M111.332,32.09c-0.688-1.461-0.87-2.886-0.475-4.515c1.037-0.375,1.803-0.542,2.779,0.104c0.249,1.065,0.539,2.307,0.811,3.472
		C113.532,32.338,112.504,32.346,111.332,32.09z M119.234,30.49c-1.02-1.182-0.59-2.671-1.051-3.862
		c0.877-1.245,1.854-1.29,2.981-0.815c0.769,1.272,0.638,2.68,1.013,4.06C120.981,30.582,120.148,30.768,119.234,30.49z
		 M123.676,31.052l0.113-0.171l0.057,0.204L123.676,31.052z"/>
</g>
</svg>
