<?xml version="1.0" encoding="utf-8"?>
<!-- Generator: Adobe Illustrator 16.0.4, SVG Export Plug-In . SVG Version: 6.00 Build 0)  -->
<!DOCTYPE svg PUBLIC "-//W3C//DTD SVG 1.1//EN" "http://www.w3.org/Graphics/SVG/1.1/DTD/svg11.dtd">
<svg version="1.1" id="Layer_3703" xmlns="http://www.w3.org/2000/svg" xmlns:xlink="http://www.w3.org/1999/xlink" x="0px" y="0px"
	 width="128px" height="128px" viewBox="0 0 128 128" enable-background="new 0 0 128 128" xml:space="preserve">
<g id="qs32bv.tif">
	<g>
		<path fill-rule="evenodd" clip-rule="evenodd" d="M64.256,103.725c-18.986,0-37.972,0-56.958-0.001
			c-0.967,0-1.941,0.056-2.901-0.03c-2.036-0.182-2.729-0.879-2.945-2.947c-0.088-0.838-0.031-1.691-0.031-2.539
			c0-23.097,0-46.194,0-69.292c0-0.605-0.036-1.214,0.017-1.813c0.199-2.272,0.596-2.661,2.889-2.816
			c0.722-0.049,1.45-0.017,2.176-0.017c38.578-0.001,77.154-0.003,115.731-0.001c5.038,0.001,5.372,0.587,5.325,5.658
			c-0.111,12.085,0.001,24.172,0.008,36.258c0.007,10.881,0.011,21.763-0.017,32.645c-0.011,4.044-0.854,4.886-4.888,4.889
			C103.193,103.731,83.725,103.724,64.256,103.725z M64.273,99.159c0-0.003,0-0.007,0-0.009c17.891,0,35.78,0.004,53.671-0.004
			c4.3,0,4.429-0.146,4.468-4.533c0.039-4.472,0.107-8.943,0.106-13.416c-0.003-16.078-0.032-32.155-0.042-48.233
			c-0.002-3.056-0.384-3.487-3.591-3.544c-6.031-0.106-12.059-0.154-18.095-0.115c-30.107,0.196-60.217,0.08-90.326,0.093
			C6,29.4,5.811,29.622,5.808,34.16C5.797,47.702,5.804,61.245,5.802,74.787C5.801,81.559,5.777,88.33,5.803,95.102
			c0.013,3.359,0.646,3.952,4.057,4.053c0.604,0.018,1.209,0.004,1.813,0.004C29.207,99.159,46.74,99.159,64.273,99.159z"/>
		<path fill-rule="evenodd" clip-rule="evenodd" d="M92.866,43.355c-0.212-0.648,0.058-1.435-0.705-1.933
			c-0.688-0.45-2.419,1.51-2.178-0.883c0.234-2.324,1.425-3.669,3.165-3.873c1.301-0.152,2.23,0.358,3.158,1.332
			c1.867,1.959,2.947,4.36,4.205,6.673c0.363,0.667,0.57,1.354,1.274,0.135c1.021-1.769,3.069-2.237,4.692-3.225
			c1.113-0.677,2.36-0.467,3.453,0.208c0.713,0.439,1.408,0.946,2.001,1.535c1.104,1.098,3.033,2.551,2.373,3.737
			c-0.847,1.523-2.708-0.239-4.153-0.392c-0.475-0.051-0.947-0.356-1.4-0.317c-0.481,0.041-1.686-0.705-1.297,0.633
			c0.297,1.02-2.318,0.871-0.637,2.316c1.299,1.116,1.602,2.931,1.856,4.624c0.165,1.093-0.411,1.222-1.263,0.943
			c-0.333-0.109-0.634-0.331-0.971-0.411c-1.516-0.358-0.874-2.844-2.362-2.747c-1.236,0.08-0.762,2.715-2.001,2.681
			c-3.342-0.09-2.648,2.366-2.934,4.145c-1.153,7.182-1.572,14.418-1.053,21.678c0.311,4.33,0.405,4.303,4.66,4.264
			c4.582-0.043,9.159-0.607,13.749,0.139c2.445,0.396,2.49,0.241,2.563,2.859c0.053,1.934,0.035,3.869,0.07,5.803
			c0.053,2.885-0.123,3.09-2.996,3.104c-7.855,0.037-15.711,0.084-23.565,0.086c-26.362,0.008-52.725,0-79.086-0.006
			c-5.132-0.002-5.133-0.014-5.139-5.234c-0.006-4.716-0.021-9.432-0.009-14.148c0.006-2.459,0.261-2.809,2.371-2.117
			c4.353,1.426,8.892,2.189,13.142,3.998c5.252,2.234,10.789,3.548,16.508,3.613c9.212,0.106,18.308,1.297,27.409,2.521
			c4.818,0.648,9.657,0.407,14.489,0.294c2.161-0.05,4.329,0.229,6.494-0.337c1.406-0.368,1.673-0.896,1.208-2.244
			c-1.133-3.291-1.754-6.789-4.493-9.32c-1.339-1.238-2.142-1.173-2.909,0.484c-0.758,1.641-0.494,3.549-1.451,5.184
			c-0.549,0.936-0.914,2.395-2.037,2.074c-1.16-0.332-0.721-1.881-0.602-2.876c0.271-2.269,0.532-4.558,1.514-6.677
			c0.121-0.263,0.323-0.688-0.236-0.713c-0.172-0.008-0.479,0.249-0.518,0.429c-0.463,2.163-2.282,2.897-3.803,4.13
			c-1.372,1.111-1.629,0.744-2.19-0.385c-1.109-2.227-0.783-3.424,1.157-5.035c1.506-1.25,3.26-1.454,5.094-1.535
			c2.172-0.096,3.31-1.014,3.592-3.07c0.213-1.553,0.204-3.135,0.301-4.704c0.158-2.568,1.479-4.546,3.279-6.238
			c0.429-0.402,1.157-0.623,1.623-0.068c0.342,0.409-0.047,0.934-0.38,1.234c-1.897,1.713-0.607,4.507-2.163,6.369
			c-0.178,0.213,0.4,1.057,0.627,1.607l-0.178,0.057l0.123-0.108c1.276-0.357,2.187-1.545,3.6-1.591
			c0.734-0.023,1.534-0.024,1.916,0.697c0.45,0.854-0.287,1.36-0.863,1.72c-1.22,0.758-2.556,1.33-3.764,2.104
			c-1.784,1.143-2.086,2.656-0.753,4.174c2.778,3.162,4.247,6.959,5.523,10.865c0.149,0.455,0.159,0.955,0.294,1.416
			c0.249,0.855,0.659,1.627,1.705,1.557c1.253-0.084,1.04-1.129,1.077-1.916c0.183-3.857,0.442-7.717,0.455-11.576
			c0.017-5.236,0.739-10.339,2.299-15.331c0.251-0.805,0.562-1.623,0.614-2.449c0.105-1.683-1.023-2.498-2.645-1.896
			c-1.111,0.412-2.264,0.675-3.33,1.294c-1.116,0.646-2.431,0.719-3.705,0.077c-1.518-0.765-1.559-1.067-0.584-2.527
			c1.276-1.914,2.916-3.157,5.234-3.5c0.702-0.104,1.379-0.428,2.044-0.708c0.457-0.193,0.925-0.585,0.801-1.083
			c-0.3-1.195-1.038,0.281-1.206-0.068c-0.47-0.977-0.985-1.729-2.207-1.602L92.866,43.355z M98.118,45.229
			c-0.176-0.016-0.352-0.03-0.527-0.046c0.082,0.054,0.161,0.145,0.248,0.151C97.929,45.342,98.025,45.27,98.118,45.229z"/>
		<path fill-rule="evenodd" clip-rule="evenodd" d="M24.24,36.843c4.85-0.007,8.198,3.179,8.208,8.126
			c0.01,4.721-2.591,7.574-7.912,7.964c-4.656,0.341-8.868-3.684-8.822-8.086C15.758,40.57,19.676,36.892,24.24,36.843z"/>
		<path fill-rule="evenodd" clip-rule="evenodd" d="M56.394,63.852c-1.079,0-2.163,0.057-3.238-0.013
			c-2.132-0.138-4.804-2.19-5.352-4.107c-0.296-1.032,0.339-1.787,1.223-1.817c2.11-0.072,3.632-0.711,4.54-2.802
			c0.614-1.415,2.3-0.949,3.248-0.729c1.499,0.349,2.769,0.138,4.132-0.279c3.562-1.087,5.931,1.213,8.356,3.117
			c1.008,0.792,0.383,3.051-1.023,3.132c-2.756,0.157-4.511,1.794-6.556,3.195c-1.068,0.73-2.57,0.381-3.891,0.221
			c-0.476-0.059-0.958-0.071-1.437-0.104C56.396,63.727,56.395,63.789,56.394,63.852z"/>
		<path fill-rule="evenodd" clip-rule="evenodd" d="M42.592,53.16c-2.341-0.92-4.398-1.843-6.715-1.972
			c-0.452-0.025-1.051-0.996-1.218-1.628c-0.208-0.786,0.57-1.314,1.182-1.594c0.969-0.442,2.016-0.835,3.064-0.962
			c2.226-0.268,4.465-0.264,6.543-1.373c0.825-0.441,2.031-0.435,2.745,0.259c0.956,0.929,2,1.588,3.149,2.241
			c1.354,0.771,1.108,2.738-0.319,3.065C48.158,51.853,45.115,51.647,42.592,53.16z"/>
		<path fill-rule="evenodd" clip-rule="evenodd" d="M69.67,50.399c-0.703,0.041-1.115-0.555-1.666-0.67
			c-1.037-0.215-2.479-0.11-2.353-1.536c0.11-1.25,1.553-1.205,2.578-1.357c1.924-0.285,3.866-1.397,5.688,0.507
			c0.848,0.885,0.869,1.448-0.166,1.854C72.422,49.716,71.004,50.017,69.67,50.399z"/>
		<path fill-rule="evenodd" clip-rule="evenodd" d="M80.53,40.618c-1.117-0.069-1.978-0.182-2.601-0.76
			c-0.671-0.622-0.932-1.389-0.057-2.116c1.253-1.04,4.055-1.159,5.325-0.229c1.158,0.85,1.117,1.795-0.204,2.385
			C82.142,40.28,81.187,40.434,80.53,40.618z"/>
	</g>
</g>
</svg>
