<?xml version="1.0" encoding="utf-8"?>
<!-- Generator: Adobe Illustrator 16.0.4, SVG Export Plug-In . SVG Version: 6.00 Build 0)  -->
<!DOCTYPE svg PUBLIC "-//W3C//DTD SVG 1.1//EN" "http://www.w3.org/Graphics/SVG/1.1/DTD/svg11.dtd">
<svg version="1.1" id="Layer_3801" xmlns="http://www.w3.org/2000/svg" xmlns:xlink="http://www.w3.org/1999/xlink" x="0px" y="0px"
	 width="128px" height="128px" viewBox="0 0 128 128" enable-background="new 0 0 128 128" xml:space="preserve">
<g>
	<path fill-rule="evenodd" clip-rule="evenodd" d="M86.18,118.548c-7.434,0.463-14.523,0.304-21.607,0.27
		c-7.06-0.033-14.122-0.469-21.18-0.398c-8.697,0.085-17.381-0.141-26.054-0.647c-4.549-0.266-9.143-0.513-13.542-1.928
		c-3.602-1.161-4.101-2.562-2.116-5.724c2.514-4.006,2.51-3.98,7.247-3.375c7.211,0.922,14.451,1.459,21.726,1.385
		c0.737-0.008,1.53,0.246,2.212-0.277c-0.71-0.436-1.536-0.465-2.311-0.503c-4.937-0.245-9.812-0.97-14.67-1.829
		c-2.737-0.484-5.444-1.15-8.191-1.547c-1.868-0.27-2.516-1.04-2.492-2.982c0.143-11.85,3.654-22.545,10.586-32.15
		c5.201-7.208,11.85-12.936,18.673-18.496c3.129-2.549,6.327-5.017,9.24-7.819c0.894-0.859,1.771-1.222,3.113-0.979
		c9.538,1.718,18.948,0.974,28.148-1.98c1.995-0.64,3.146-0.479,4.558,1.23c3.148,3.816,7.158,6.766,10.967,9.899
		c6.38,5.252,12.586,10.68,17.502,17.402c7.146,9.775,10.957,20.665,11.062,32.833c0.017,1.897-0.59,2.703-2.445,3.062
		c-7.307,1.414-14.594,2.917-22.059,3.284c-1.057,0.052-2.1,0.358-3.148,0.546c1.018,0.625,2.139,0.283,3.205,0.291
		c7.814,0.056,15.584-0.627,23.322-1.644c1.686-0.221,2.851,0.04,3.924,1.49c1.162,1.573,2.74,2.833,4.003,4.343
		c1.458,1.745,1.167,2.803-0.944,3.66c-2.268,0.92-4.703,1.109-7.104,1.39c-9.104,1.063-18.256,1.087-27.402,1.192
		C88.878,118.563,87.352,118.548,86.18,118.548z M22.032,91.559c-0.06,0.142-0.498,0.126-0.177,0.427
		c0.044-0.156,0.088-0.311,0.134-0.467c0.433-0.25,0.555-0.646,0.525-1.116c1.298-0.709,1.64-2.088,2.159-3.278
		c3.283-7.516,7.176-14.646,12.645-20.836c2.557-2.895,5.432-5.47,8.086-8.257c2.19-2.298,4.771-4.447,5.125-7.967
		c0.064-0.06,0.139-0.113,0.186-0.184c0.034-0.051,0.03-0.127,0.042-0.193c-0.062,0.138-0.125,0.276-0.189,0.413
		c-2.314,3.939-5.761,6.812-9.191,9.688c-9.69,8.124-15.381,18.693-18.821,30.65C22.103,90.683,22.08,91.126,22.032,91.559z
		 M76.356,51.153c-0.015-0.153,0.022-0.342-0.056-0.452c-0.108-0.153-0.273-0.072-0.23,0.127c0.025,0.113,0.218,0.191,0.335,0.286
		c0.026,1.144,0.662,2.012,1.283,2.896c1.351,1.92,3.009,3.557,4.7,5.164c7.547,7.172,13.969,15.146,18.024,24.861
		c0.896,2.145,2.054,4.186,3.146,6.246c0.211,0.4,0.262,1.062,0.967,1.054c-0.105-0.415-0.17-0.847-0.324-1.243
		c-0.973-2.507-2.042-4.979-2.937-7.514c-2.398-6.795-6.304-12.639-11.083-17.963C85.873,59.817,80.328,56.293,76.356,51.153z
		 M59.3,50.608c-0.02,0.148,0.057-0.121,0.04-0.384c-0.021-0.356,0.47-0.933-0.239-1.006c-0.304-0.032-0.376,0.538-0.435,0.883
		c-0.253,1.503-0.683,2.945-1.191,4.388c-2.055,5.814-4.456,11.513-5.683,17.603c-1.08,5.359-1.75,10.762-2.14,16.207
		c-0.057,0.789-0.392,1.576-0.032,2.371c0.787-0.596,0.606-1.561,0.889-2.348c0.058-0.166,0.047-0.355,0.08-0.531
		c1.921-10.383,4.049-20.715,7.483-30.732C58.739,55.115,59.098,53.081,59.3,50.608z M76.91,87.849
		c-0.607-7.937-1.742-15.69-4.15-23.246c-1.521-4.766-3.841-9.253-4.861-14.187c-0.08-0.382,0.016-0.888-0.494-1.091
		c-0.055,0.435-0.193,0.877-0.15,1.304c0.329,3.308,1.227,6.479,2.257,9.631C72.465,69.29,74.304,78.587,76,87.917
		c0.136,0.746,0.102,1.611,0.752,2.207C77.236,89.369,76.834,88.558,76.91,87.849z"/>
	<path fill-rule="evenodd" clip-rule="evenodd" d="M58.208,31.69c-1.083,0-1.98-0.011-2.876,0.003
		c-2.834,0.045-5.02-0.418-5.986-3.824c-0.843-2.974-3.597-4.834-5.972-6.755c-1.743-1.41-3.513-2.788-5.033-4.446
		c-0.932-1.017-1.629-2.179-1.604-3.598c0.059-3.234,2.748-4.793,5.522-3.088c5.779,3.553,4.635,3.787,11.321,0.2
		c1.926-1.034,3.638-0.957,5.598-0.013c6.949,3.349,5.082,3.701,12.22-0.176c1.617-0.877,3.187-0.945,4.518,0.189
		c3.396,2.896,6.576,3.123,9.838-0.196c0.822-0.834,1.955-1.298,3.12-0.265c1.343,1.192,2.001,3.067,1.438,4.612
		c-0.502,1.383-1.46,2.454-2.578,3.385c-2.135,1.776-4.289,3.534-6.411,5.326c-0.752,0.635-1.698,1.222-2.104,2.051
		c-1.533,3.136-4.553,3.752-7.416,4.603C67.314,31.031,62.733,31.846,58.208,31.69z M50.558,20.944
		c0.008,0.317,0.162,0.521,0.466,0.614c0.069,0.73,0.449,1.254,1.074,1.615c0.049,0.437,0.204,0.823,0.618,1.029
		c0.165,0.083,0.326-0.039,0.288-0.226c-0.086-0.428-0.315-0.769-0.739-0.947c-0.111-0.716-0.485-1.247-1.128-1.585
		c-0.097-0.305-0.289-0.478-0.624-0.453c-0.044-0.042-0.088-0.083-0.132-0.123C50.439,20.893,50.498,20.919,50.558,20.944z
		 M67.773,20.995c-0.886,0.736-0.997,1.785-1.104,2.821c-0.023,0.23,0.128,0.479,0.199,0.72c0.152-0.169,0.367-0.314,0.448-0.512
		c0.403-0.982,0.646-1.995,0.422-3.064L67.773,20.995z M73.688,24.7c1.206-0.821,1.759-2.17,2.625-3.267
		c0.144-0.181,0.382-0.482,0.043-0.643c-0.138-0.065-0.499,0.135-0.638,0.31c-0.867,1.096-1.874,2.127-1.994,3.636L73.688,24.7z
		 M60.216,23.717c-0.179-0.742-0.143-1.6-0.861-2.09c-0.076-0.053-0.217,0.598-0.167,0.938c0.101,0.694,0.134,1.514,0.725,1.901
		C60.213,24.663,60.136,24.012,60.216,23.717z"/>
	<path fill-rule="evenodd" clip-rule="evenodd" d="M57.332,40.875c-2.134,0.123-5.065-0.308-7.996-0.729
		c-1.136-0.163-2.205-0.521-2.043-1.964c0.183-1.63,1.422-1.614,2.643-1.466c9.108,1.105,18.075,0.658,26.799-2.443
		c0.253-0.091,0.501-0.201,0.761-0.267c1.044-0.268,2.047-0.227,2.48,0.935c0.432,1.157-0.224,1.896-1.265,2.29
		c-1.341,0.509-2.684,1.028-4.062,1.417C69.268,40.165,63.769,40.883,57.332,40.875z"/>
	<path fill-rule="evenodd" clip-rule="evenodd" d="M58.914,36.581c-2.994,0.201-5.739-0.2-8.49-0.565
		c-1.196-0.159-2.159-0.548-1.986-1.962c0.16-1.304,1.196-1.375,2.24-1.325c2.943,0.138,5.851,0.689,8.823,0.574
		c5.397-0.209,10.668-1.022,15.768-2.839c0.084-0.03,0.163-0.077,0.248-0.105c1.2-0.414,2.593-1.003,3.263,0.562
		c0.712,1.661-0.786,2.131-1.94,2.583c-3.264,1.27-6.652,2.079-10.113,2.583C64.067,36.472,61.405,36.823,58.914,36.581z"/>
</g>
</svg>
