<?xml version="1.0" encoding="utf-8"?>
<!-- Generator: Adobe Illustrator 16.0.4, SVG Export Plug-In . SVG Version: 6.00 Build 0)  -->
<!DOCTYPE svg PUBLIC "-//W3C//DTD SVG 1.1//EN" "http://www.w3.org/Graphics/SVG/1.1/DTD/svg11.dtd">
<svg version="1.1" id="Layer_3803" xmlns="http://www.w3.org/2000/svg" xmlns:xlink="http://www.w3.org/1999/xlink" x="0px" y="0px"
	 width="128px" height="128px" viewBox="0 0 128 128" enable-background="new 0 0 128 128" xml:space="preserve">
<g>
	<path fill-rule="evenodd" clip-rule="evenodd" d="M63.029,1.96c-0.68,1.406-1.453,2.723-2.384,3.998
		c-1.914,2.618-3.697,5.342-5.366,8.124c-1.238,2.064-2.457,4.115-3.947,6.018c-1.603,2.044-2.972,4.254-4.063,6.634
		c-0.421,0.919-0.156,1.031,0.681,0.835c1.582-0.37,3.168-0.718,4.752-1.078c0.247-0.056,0.54-0.262,0.729-0.041
		c0.187,0.218-0.038,0.477-0.188,0.663c-2.699,3.351-4.792,7.103-7.059,10.736c-1.448,2.323-3.19,4.434-4.649,6.745
		c-1,1.586-1.494,3.476-2.917,4.812c-0.245,0.229-0.687,0.571-0.346,0.968c0.281,0.326,0.736,0.107,1.097-0.005
		c2.554-0.791,5.225-1.009,7.813-1.633c0.243-0.059,0.548-0.271,0.708-0.015c0.079,0.127-0.102,0.463-0.229,0.666
		c-1.212,1.925-2.402,3.866-3.669,5.756c-1.119,1.67-2.585,3.118-3.338,5.021c-0.487,1.232-1.198,2.323-2.009,3.328
		c-1.682,2.085-2.974,4.425-4.478,6.625c-0.174,0.256-0.516,0.531-0.355,0.855c0.161,0.322,0.567,0.189,0.55,0.189
		c3.661-0.234,6.825-1.296,10.052-2.034c4.976-1.139,9.937-2.347,14.897-3.554c-0.008,5.014-0.013,10.029-0.029,15.043
		c-0.004,1.387,0.411,1.938,1.311,1.92c2.208-0.042,4.418-0.055,6.627,0.016c1.015,0.033,1.399-0.764,1.387-2.262
		c-0.027-2.879-0.004-4.789,0-8.789c0.003,0,0.006,0,0.008,0c0.003-1,0.007-3.952,0.006-6.003
		c5.277,1.275,10.555,2.624,15.834,3.894c2.719,0.651,5.428,1.381,8.199,1.779c0.355,0.051,0.83,0.231,1.045-0.195
		c0.168-0.334-0.225-0.562-0.387-0.828c-1.684-2.768-3.209-5.616-5.143-8.248c-2.922-3.981-5.191-8.4-8.057-12.433
		c-0.16-0.227-0.554-0.456-0.29-0.774c0.095-0.115,0.488-0.022,0.735,0.031c2.73,0.576,5.46,1.164,8.19,1.746
		c0.317,0.068,0.723,0.189,0.909-0.097c0.195-0.297-0.125-0.59-0.307-0.848c-0.676-0.955-1.393-1.884-2.026-2.866
		c-4.196-6.484-8.375-12.979-12.559-19.472c-0.132-0.207-0.38-0.449-0.223-0.672c0.183-0.26,0.476-0.019,0.718,0.029
		c1.658,0.324,3.235,0.969,4.932,1.155c0.922,0.101,0.889-0.255,0.529-0.842c-1.426-2.323-2.815-4.668-4.312-6.944
		c-2.031-3.097-4.443-5.985-6.143-9.249c-1.642-3.151-3.984-5.771-5.73-8.809C63.961,0.851,63.422,1.146,63.029,1.96z"/>
	<path fill-rule="evenodd" clip-rule="evenodd" d="M64.17,126.372c-7.186,0.216-12.84-4.945-14.544-10.246
		c-1.505-4.675-0.654-8.995,2.061-13.02c1.108-1.644,2.444-3.097,3.771-4.555c4.131-4.537,6.769-9.832,8.096-15.801
		c0.078-0.348,0.177-0.69,0.262-1.036c0.021-0.092,0.035-0.221,0.127-0.232c0.151-0.022,0.172,0.12,0.202,0.236
		c0.272,1.032,0.555,2.062,0.819,3.098c1.457,5.724,4.523,10.522,8.503,14.795c1.743,1.871,3.337,3.857,4.338,6.229
		c2.361,5.601,1.509,10.73-2.443,15.327c-2.065,2.403-4.618,4.075-7.735,4.814C66.442,126.264,65.243,126.416,64.17,126.372z"/>
</g>
</svg>
