<?xml version="1.0" encoding="utf-8"?>
<!-- Generator: Adobe Illustrator 16.0.4, SVG Export Plug-In . SVG Version: 6.00 Build 0)  -->
<!DOCTYPE svg PUBLIC "-//W3C//DTD SVG 1.1//EN" "http://www.w3.org/Graphics/SVG/1.1/DTD/svg11.dtd">
<svg version="1.1" id="Layer_3804" xmlns="http://www.w3.org/2000/svg" xmlns:xlink="http://www.w3.org/1999/xlink" x="0px" y="0px"
	 width="128px" height="128px" viewBox="0 0 128 128" enable-background="new 0 0 128 128" xml:space="preserve">
<g>
	<g>
		<g id="oxSOZ5.tif">
			<g>
				<path fill-rule="evenodd" clip-rule="evenodd" d="M56.463,31.237c1.115-6.594,3.093-8.589,9.269-9.319
					c0.358-1.688,0.918-3.359,2.376-4.563s3.215-1.454,5.177-1.646c-0.198-4.65,1.254-8.626,4.703-11.789
					c2.321-2.128,5.099-3.19,8.164-3.595c5.871-0.774,11.062,2.513,14.798,9.404c0.73,0.085,1.525,0.132,2.303,0.278
					c4.929,0.922,8.022,5.033,7.799,9.606c-0.258,5.295-4.26,8.939-9.63,9.058c-2.524,0.056-5.051,0.01-7.722,0.01
					c-0.377,2.675-1.831,4.185-4.602,4.197c-0.076,4.297-1.806,7.388-5.865,8.836c-3.142,1.122-6.021,0.318-9.455-2.631
					c-2.191,0-4.532,0-6.874,0c-3.272,0-6.544,0.006-9.817-0.008c-0.613-0.002-1.242-0.019-1.834-0.154
					c-1.954-0.448-3.003-1.747-3.025-3.649c-0.023-1.966,0.929-3.235,2.869-3.785C55.508,31.371,55.941,31.331,56.463,31.237z"/>
				<path fill-rule="evenodd" clip-rule="evenodd" d="M71.002,13.719c-3.475,0.737-5.858,2.67-7.008,5.896
					c-6.299,2.079-7.994,3.775-9.662,9.6c-4.43,2.578-5.154,4.478-3.525,9.544c-1.702,0-3.357,0-5.012,0
					c-2.96,0-5.921,0.014-8.882-0.011c-0.605-0.005-1.251-0.042-1.807-0.253c-1.278-0.486-1.887-1.551-2.015-2.864
					c-0.106-1.108,0.779-2.408,1.944-2.904c0.501-0.214,1.055-0.306,1.844-0.525c0.138-1.976,0.47-3.996,2.064-5.597
					c1.591-1.598,3.608-2,5.719-2.341c0.607-3.479,2.838-4.961,6.31-5.135c0.053-0.697,0.137-1.343,0.146-1.991
					c0.075-5.429,5.146-10.947,11.358-11.007c3.761-0.036,6.641,1.074,9.07,3.7C71.385,10.989,71.207,12.257,71.002,13.719z"/>
			</g>
		</g>
		<path fill-rule="evenodd" clip-rule="evenodd" d="M48.75,128.5l-4.662-57.273c0.065,0.009,0.13-0.186,0.197-0.18
			c-0.406-4.896-0.827-9.924-1.19-14.701c-0.368-4.836-0.68-8.846-1.022-14.846c-3.062,0-5.883,0-8.966,0
			c-0.07,3-0.084,3.89-0.207,5.661c-0.304,4.362-0.725,8.794-0.971,13.159c-0.219,3.878-0.217,7.807-0.402,11.687
			c-0.312,6.526-0.708,13.067-1.044,19.593c-0.295,5.727-0.542,11.465-0.836,17.19c-0.183,3.57-0.434,7.142-0.617,10.712
			c-0.119,2.309-0.191,5.042-0.279,7.436l-0.19,1.562H48.75z"/>
		<path fill-rule="evenodd" clip-rule="evenodd" d="M67.459,128.5l-4.662-57.273c0.065,0.009,0.13-0.186,0.197-0.18
			c-0.406-4.896-0.827-9.924-1.19-14.701c-0.368-4.836-0.68-8.846-1.021-14.846c-3.062,0-5.883,0-8.967,0
			c-0.07,3-0.084,3.89-0.207,5.661c-0.304,4.362-0.725,8.794-0.971,13.159c-0.219,3.878-0.217,7.807-0.402,11.687
			c-0.312,6.526-0.708,13.067-1.044,19.593c-0.295,5.727-0.542,11.465-0.836,17.19c-0.184,3.57-0.434,7.142-0.617,10.712
			c-0.119,2.309-0.191,5.042-0.279,7.436l-0.19,1.562H67.459z"/>
	</g>
	<path fill-rule="evenodd" clip-rule="evenodd" d="M14.913,128.5c-0.437,0-0.874,0-1.312,0c-0.286,0-0.579-0.269-0.865-0.25
		c-0.345,0.021-0.635-0.002-0.971,0.06c-0.13,0.024-1.137,0.202-1.183,0.174c-0.165-0.102-0.278-0.286-0.297-0.462
		c0.215-0.189,0.424-0.326,0.51-0.606c0.1-0.326-0.157-0.718,0.034-1.034c0.131-0.217,0.523-0.42,0.692-0.662
		c0.153-0.221,0.256-0.464,0.403-0.688c0.615-0.941,1.511-1.781,2.343-2.531c0.603-0.542,0.771-1.284,1.283-1.899
		c0.433-0.52,1.093-0.768,1.684-1.075c0.797-0.415,1.031-0.36,1.061-1.271c0.025-0.746,0.57-1.191,0.76-1.879
		c0.127-0.458,0.052-0.656,0.315-1.08c0.167-0.27,0.454-0.473,0.617-0.727c0.374-0.582,0.36-1.354,0.726-1.959
		c0.155-0.255,0.468-0.74,0.82-0.758c0.322-0.018,0.242,0.172,0.516,0.301c0.726,0.346,1.333,0.016,1.907,0.727
		c0.527,0.65,0.46,1.191,1.324,1.348c0.605,0.11,1.314,0.319,1.886,0.584c0.679,0.315,0.979,1.055,1.405,1.621
		c0.404,0.538,0.828,1.01,1.125,1.621c0.504,1.039,1.151,2.052,1.608,3.104c0.302,0.694,0.481,1.47,0.717,2.189
		c0.17,0.519,0.281,1.707,0.62,2.143c0.003,0.005,2.148,3.011,2.148,3.011c-0.108,0-0.217,0-0.325,0c-3.793,0-7.586,0-11.379,0
		c-2.317,0-4.634,0-6.951,0C15.726,128.5,15.319,128.5,14.913,128.5z"/>
	<path fill-rule="evenodd" clip-rule="evenodd" d="M66.355,125.214c0-1.205,3.227-5.689,3.227-5.689s3.601-2.095,3.606-2.098
		c0.726-0.409,1.616-0.489,2.336-0.944c1.108-0.702,1.062-1.563,1.056-2.777c-0.004-0.771,0.058-0.848,0.478-1.41
		c0.151-0.204,0.229-0.457,0.396-0.676c0.21-0.271,0.431-0.459,0.678-0.688c0.6-0.553,1.926-1.545,2.745-1.551
		c0.623-0.004,1.165,0.648,1.679,0.938c0.548,0.307,1.097,0.513,1.699,0.672c1.148,0.305,2.261,0.734,3.381,1.13l3.212,5.619
		l2.008,6.384l3.211,4.377H62L66.355,125.214z"/>
	<path fill-rule="evenodd" clip-rule="evenodd" d="M81.282,124.567c0-1.211,1.128-2.751,1.744-3.718
		c0.225-0.352,0.443-0.777,0.69-1.113c0.261-0.354,0.48-0.426,0.785-0.669c0.297-0.236,0.363-0.604,0.641-0.848
		c0.127-0.112,0.432-0.129,0.521-0.271c0.161-0.252-0.025-0.517,0.033-0.779c0.018-0.146,0.092-0.252,0.224-0.314
		c0.14-0.557,0.148-0.642,0.523-1.069c0.382-0.438,0.712-0.894,1.146-1.296c1.356-1.26,2.851-2.062,4.567-2.682
		c0.74-0.268,0.896-0.409,1.274-1.088c0.124-0.223,0.27-0.262,0.346-0.509c-0.043-0.185-0.037-0.368,0.017-0.551
		c0.307-0.75,1.923-1.054,2.397-1.604c0.35-0.406,0.094-0.867,0.316-1.296c0.14-0.269,0.555-0.44,0.753-0.649
		c0.411-0.435,0.399-0.531,1.015-0.418c1.736,0.321,3.535,1.184,5.227,1.781c1.197,0.422,2.394,0.844,3.59,1.266l3.896,6.814
		l2.436,7.689l3.895,5.256H76L81.282,124.567z"/>
</g>
</svg>
