<?xml version="1.0" encoding="utf-8"?>
<!-- Generator: Adobe Illustrator 16.0.4, SVG Export Plug-In . SVG Version: 6.00 Build 0)  -->
<!DOCTYPE svg PUBLIC "-//W3C//DTD SVG 1.1//EN" "http://www.w3.org/Graphics/SVG/1.1/DTD/svg11.dtd">
<svg version="1.1" id="Layer_3805" xmlns="http://www.w3.org/2000/svg" xmlns:xlink="http://www.w3.org/1999/xlink" x="0px" y="0px"
	 width="128px" height="128px" viewBox="0 0 128 128" enable-background="new 0 0 128 128" xml:space="preserve">
<path d="M107.002,105.504c0.018-6.042,0.03-12.085-0.008-18.125c-0.008-1.344,0.308-2.416,1.179-3.521
	c2.061-2.61,2.14-5.241,0.151-7.899c-0.959-1.281-1.382-2.532-1.378-4.064c0.011-6.133,0.062-12.267-0.064-18.396
	c-0.04-1.875,0.172-3.472,1.442-4.932c1.669-1.914,2.156-4.308,0.579-6.272c-2.091-2.608-1.929-5.441-1.901-8.393
	c0.034-3.962,0.01-7.924,0-11.884c-0.004-1.201,0.152-2.213,1.045-3.241c3.002-3.441,2.422-7.537-1.261-10.257
	c-3.085-2.282-6.645-3.53-10.295-4.419c-18.839-4.592-37.83-4.687-56.877-1.577c-6.054,0.986-12.042,2.354-17.308,5.81
	c-2.369,1.549-3.299,3.617-3.295,6.498c0.003,2.06,1.28,3.262,2.286,4.625c0.106,3.642,0.224,14.355,0.274,19.231
	c-0.183,1.044-0.55,2.03-1.324,2.981c-1.492,1.833-1.847,4.274-0.374,6.086c2.055,2.526,1.842,5.28,1.844,8.119
	c0.005,5.447,0.007,10.895,0.032,16.342c0.007,1.313-0.251,2.436-1.075,3.576c-2.221,3.067-2.201,4.992,0.017,8.125
	c0.741,1.045,1.04,2.062,1.034,3.291c-0.021,6.141-0.019,12.281,0.008,18.419c0.005,1.13-0.234,2.032-0.983,2.974
	c-2.976,3.748-2.331,7.777,1.61,10.455c3.748,2.547,8.021,3.854,12.377,4.798c18.221,3.946,36.524,4.048,54.864,0.928
	c5.767-0.979,11.475-2.291,16.504-5.475c4.319-2.737,5.002-6.855,1.823-10.8C107.168,107.56,106.998,106.615,107.002,105.504z
	 M43.5,65.5v-21h35v21H43.5z M101.898,101.5c0.005,0,0.008,0,0.014,0c0,3-0.027,5.902,0.013,9.156
	c0.017,1.283-0.196,1.987-1.559,2.535c-1.157,0.465-1.633,0.095-1.633-1.185c0.016-7.002,0.018-14.078,0-21.081
	c-0.004-1.485,1.095-1.88,2.147-1.979c1.551-0.148,0.964,1.799,0.982,2.5C101.944,94.602,101.898,98.5,101.898,101.5z
	 M102.13,76.345c-0.009,1.869-0.207,3.736-0.243,5.604c-0.028,1.486-1.149,1.841-2.179,1.96c-1.59,0.185-0.933-1.224-0.942-1.892
	c-0.08-4.241-0.04-8.484-0.04-12.726c0-4.138,0.084-8.279-0.037-12.411c-0.053-1.794,0.816-2.775,2.318-2.731
	c1.776,0.05,1.109,1.716,1.117,2.731C102.171,63.37,102.164,69.857,102.13,76.345z M101.898,45.641
	c-0.003,0.691,0.024,1.402-0.12,2.067c-0.224,1.048-1.162,1.343-2.036,1.404c-1.255,0.089-0.995-0.986-1.001-1.7
	c-0.034-3.761-0.016-7.526-0.016-11.291c0-3.369,0.055-6.737-0.026-10.103c-0.039-1.58,0.306-2.926,2.048-2.954
	c2.055-0.03,1.087,1.767,1.102,2.667C101.948,32.366,101.904,39.003,101.898,45.641z M102.886,14.787
	c-4.317,2.338-9.019,3.491-13.805,4.305c-18.042,3.076-36.042,2.984-53.956-0.972c-3.281-0.728-6.459-1.833-9.445-3.447
	c-2.073-1.123-2.104-2.112-0.012-3.199c5.606-2.917,11.704-4.18,17.855-5.183c7.049-1.15,14.169-1.466,20.185-1.394
	C76.055,4.881,87.166,5.77,97.924,9.256c1.685,0.543,3.303,1.31,4.91,2.064c0.778,0.365,1.831,0.691,1.858,1.72
	C104.718,14.096,103.641,14.377,102.886,14.787z"/>
</svg>
