<?xml version="1.0" encoding="utf-8"?>
<!-- Generator: Adobe Illustrator 16.0.4, SVG Export Plug-In . SVG Version: 6.00 Build 0)  -->
<!DOCTYPE svg PUBLIC "-//W3C//DTD SVG 1.1//EN" "http://www.w3.org/Graphics/SVG/1.1/DTD/svg11.dtd">
<svg version="1.1" id="Layer_3806" xmlns="http://www.w3.org/2000/svg" xmlns:xlink="http://www.w3.org/1999/xlink" x="0px" y="0px"
	 width="128px" height="128px" viewBox="0 0 128 128" enable-background="new 0 0 128 128" xml:space="preserve">
<g>
	<path fill-rule="evenodd" clip-rule="evenodd" d="M88.033,66.721c-14.324,0.002-28.648,0-42.972,0.002
		c-14.318,0.002-28.636,0.016-42.955-0.019c-1.52-0.004-2.393,0.167-2.374,2.079c0.09,9.411,0.03,18.824,0.047,28.237
		c0.005,2.921,1.49,4.957,4.044,6.218c2.012,0.992,4.188,1.371,6.422,1.371c23.411,0.008,46.821,0.008,70.231,0.016
		c2.148,0,4.245-0.318,6.252-1.076c2.645-1,4.031-3.008,4.031-5.83c-0.001-9.494-0.017-18.988-0.045-28.482
		C90.708,66.715,90.679,66.72,88.033,66.721z"/>
	<path fill-rule="evenodd" clip-rule="evenodd" d="M126.217,93.628c-9.979-15.855-19.948-31.717-29.915-47.58
		c-4.135-6.581-8.267-13.164-12.376-19.761c-1.002-1.608-2.209-2.842-4.237-2.911c-1.114-0.032-2.083,0.381-2.995,0.963
		c-1.311,0.836-2.629,1.66-3.926,2.518c-3.031,2.004-3.324,1.179-1.132,4.679c11.77,18.787,23.566,37.556,35.357,56.33
		c3.308,5.266,6.663,10.5,9.917,15.799c0.701,1.141,1.263,1.205,2.302,0.496c1.824-1.243,3.743-2.348,5.594-3.553
		C127.814,98.648,128.169,96.73,126.217,93.628z"/>
	<path fill-rule="evenodd" clip-rule="evenodd" d="M1.525,64.672c0.487,0.052,0.601,0.015,1.084,0.083
		c0.756,0.105,1.89,0.108,1.89,0.077v0.272c0,0.078-0.408,0.323-0.387,1.09c0.033,1.27,1.22,1.065,1.992,1.065
		c3.354,0.001,6.803-0.059,10.157-0.057c22.35,0.017,44.747,0.045,67.096,0.064c0.571,0,1.171-0.019,1.737-0.086
		c0.591-0.071,0.364-0.492,0.38-1.047c0.015-0.491,0.025-0.838-0.975-0.961v-0.347c1-0.028,2.427-0.073,3.428-0.114
		c0.643-0.027,1.666,0.027,1.581-0.948c-0.068-0.791-0.693,0.042-1.242,0.007c-0.325-0.021-0.548,0.729-0.876,0.729
		c-0.681,0-1.891,0-2.891,0v-2.322c0-0.132,0.557-0.308,0.559-0.546c0.009-1.379-1.329-0.807-2.188-0.808
		c-25.197-0.033-50.287-0.036-75.484,0.01c-0.881,0.002-2.894-0.728-2.84,0.889c0.01,0.293-0.046,0.48-0.046,0.598v0.732
		c-1,0.014-1.989,0.032-3.175,0.044c-0.538,0.005-0.799,0.118-0.769,0.79C0.577,64.366,1.075,64.624,1.525,64.672z"/>
</g>
</svg>
