<?xml version="1.0" encoding="utf-8"?>
<!-- Generator: Adobe Illustrator 16.0.4, SVG Export Plug-In . SVG Version: 6.00 Build 0)  -->
<!DOCTYPE svg PUBLIC "-//W3C//DTD SVG 1.1//EN" "http://www.w3.org/Graphics/SVG/1.1/DTD/svg11.dtd">
<svg version="1.1" id="Layer_3807" xmlns="http://www.w3.org/2000/svg" xmlns:xlink="http://www.w3.org/1999/xlink" x="0px" y="0px"
	 width="128px" height="128px" viewBox="0 0 128 128" enable-background="new 0 0 128 128" xml:space="preserve">
<path fill-rule="evenodd" clip-rule="evenodd" d="M64.722,0.328c5.634,23.898,21.223,41.126,31.438,61.176
	c6.523,12.802,9.907,25.887,5.036,40.163c-6.915,20.272-27.702,30.622-48.67,24.022c-20.717-6.521-32.328-27.63-26.549-47.926
	c3.944-13.854,11.992-25.51,19.603-37.398C53.385,28.174,61.247,16.042,64.722,0.328z M33.093,63.525
	c0.223-0.464,0.444-0.929,0.667-1.393c0.242-0.396,0.483-0.792,0.726-1.188c0.259-0.243,0.519-0.487,0.778-0.73
	c0.037-0.074,0.073-0.149,0.11-0.224c-0.023,0.089-0.046,0.177-0.07,0.267c-0.258,0.243-0.517,0.485-0.774,0.728
	c-0.241,0.402-0.482,0.805-0.718,1.214c-0.223,0.458-0.446,0.917-0.666,1.38c-0.194,0.508-0.388,1.016-0.582,1.524
	c-5.097,8.862-7.912,18.355-6.271,28.562c3.162,19.677,19.33,33.026,39.238,32.873c18.895-0.146,33.878-13.562,36.512-33.482
	c1.741-13.163-2.65-24.892-10.471-35.423c-0.195-0.504-0.391-1.007-0.586-1.511c-0.467-0.643-0.934-1.285-1.4-1.927l0.041-0.041
	c0.468,0.641,0.936,1.281,1.4,1.925c0.195,0.505,0.391,1.011,0.585,1.517c3.895,10.732,7.886,21.48,6.777,33.192
	c-1.319,13.935-7.256,25.207-20.337,31.361c-12.572,5.914-24.684,3.35-35.544-4.396C30.92,109.488,26.042,97.821,27.29,83.561
	c0.572-6.535,3.641-12.296,5.222-18.509C32.705,64.543,32.899,64.034,33.093,63.525z M36.584,57.46
	c0.227-0.419,0.454-0.839,0.678-1.258l0.084-0.091l-0.078,0.104c-0.239,0.429-0.478,0.858-0.713,1.287l-0.034,0.088L36.584,57.46z
	 M52.775,46.103c-0.325-0.295-0.65-0.591-0.974-0.886c-0.394,0.692-0.716,1.437-1.189,2.068
	c-6.674,8.911-12.385,18.406-16.408,28.787c-2.972,7.67-3.08,15.437,1.066,22.949c1.339,0.332,2.616,0.649,4.712,1.17
	c0.035-9.675-1.022-19.039,2.291-28.072C45.495,63.328,50.276,55.169,52.775,46.103z"/>
</svg>
