<?xml version="1.0" encoding="utf-8"?>
<!-- Generator: Adobe Illustrator 16.0.4, SVG Export Plug-In . SVG Version: 6.00 Build 0)  -->
<!DOCTYPE svg PUBLIC "-//W3C//DTD SVG 1.1//EN" "http://www.w3.org/Graphics/SVG/1.1/DTD/svg11.dtd">
<svg version="1.1" id="Layer_3811" xmlns="http://www.w3.org/2000/svg" xmlns:xlink="http://www.w3.org/1999/xlink" x="0px" y="0px"
	 width="128px" height="128px" viewBox="0 0 128 128" enable-background="new 0 0 128 128" xml:space="preserve">
<path d="M69.5,50.748V10.531c0-0.124,1.078-0.217,1.196-0.276c1.976-0.994,0.671-5.821,0.671-7.938c0-0.913-3.867-1.218-7.867-1.316
	V0.992c0-0.005,0.541-0.01,0.311-0.013c-0.063,0.001,0.374,0.002,0.311,0.003c-0.063-0.001-0.541-0.002-0.604-0.003
	C63.289,0.982,62.5,0.987,62.5,0.992V1c-4,0.095-6.789,0.398-6.789,1.318c0,2.117-1.114,6.943,0.861,7.938
	c0.118,0.059-0.072,0.152-0.072,0.276v40.216c-1,4.682-16.102,20.752-16.102,28.057c0,12.865,0.363,25.73,0.417,38.595
	c0.03,7.085,2.196,9.479,9.397,9.679c4.653,0.129,9.499,0.422,14.156,0.422c-0.004,0-0.013,0-0.013,0c0.075,0,0.153,0,0.229,0
	c0.075,0,0.15,0,0.226,0c0,0,0.009,0,0.016,0c4.649,0,9.311-0.293,13.956-0.422c7.201-0.199,9.202-2.395,9.232-9.479
	c0.054-12.864-0.832-25.829-0.832-38.694C87.182,71.6,70.5,55.43,69.5,50.748z M78.5,112.5h-30V81.333L57.89,70.5h13.503
	L78.5,81.333V112.5z"/>
</svg>
