<?xml version="1.0" encoding="utf-8"?>
<!-- Generator: Adobe Illustrator 16.0.4, SVG Export Plug-In . SVG Version: 6.00 Build 0)  -->
<!DOCTYPE svg PUBLIC "-//W3C//DTD SVG 1.1//EN" "http://www.w3.org/Graphics/SVG/1.1/DTD/svg11.dtd">
<svg version="1.1" id="Layer_3815" xmlns="http://www.w3.org/2000/svg" xmlns:xlink="http://www.w3.org/1999/xlink" x="0px" y="0px"
	 width="128px" height="128px" viewBox="0 0 128 128" enable-background="new 0 0 128 128" xml:space="preserve">
<g>
	<path d="M102.5,42.5v-6h-1c0,0,0-0.704,0-0.781c-1-3.251-1.021-6.528-1.771-9.746c-0.79-3.38-1.428-7.691-2.716-10.915
		c-1.228-3.069,0.909-5.353-0.369-8.495c-0.822-2.024-1.633-3.265-3.684-3.778c-1.615-0.404-3.251-0.781-4.908-0.942
		c-6.976-0.676-14.965-1.188-21.979-1.085c-7.462,0.109-23.321,0.192-30.647,1.803c-3.209,0.706-6.74,5.569-5.625,8.389
		c0.688,1.739,0.401,3.272-0.128,4.727C27.234,22.37,26.799,29.5,26.322,36.5H24.5v6h1.63c-0.025,13-0.021,25-0.099,38H24.5v6h1.496
		c-0.004,3,0.05,6.137,0.349,9.337c0.635,6.782,1.644,13.354,4.383,19.726c2.266,5.271,5.809,9.069,11.704,10.422
		c0.736,0.169,1.068,0.258,2.068,0.405v2.11h38v-2.189c1-0.132,1.539-0.27,2.171-0.418c5.522-1.304,9.402-4.727,11.583-9.738
		c1.692-3.891,3.001-7.879,3.665-12.049c0.498-3.123,0.581-6.238,1.581-9.355c0-2.934,0-5.25,0-8.25h1v-6h-1c0-13,0-25,0-38H102.5z
		 M81.5,56.115c-9,0.885-25,1.298-36-0.008V42.83c10,0.739,26,0.739,36,0.087V56.115z"/>
</g>
</svg>
