<?xml version="1.0" encoding="utf-8"?>
<!-- Generator: Adobe Illustrator 16.0.4, SVG Export Plug-In . SVG Version: 6.00 Build 0)  -->
<!DOCTYPE svg PUBLIC "-//W3C//DTD SVG 1.1//EN" "http://www.w3.org/Graphics/SVG/1.1/DTD/svg11.dtd">
<svg version="1.1" id="Layer_3816" xmlns="http://www.w3.org/2000/svg" xmlns:xlink="http://www.w3.org/1999/xlink" x="0px" y="0px"
	 width="128px" height="128px" viewBox="0 0 128 128" enable-background="new 0 0 128 128" xml:space="preserve">
<g id="MYbCXK.tif">
	<g>
		<path fill-rule="evenodd" clip-rule="evenodd" d="M110.517,67.352c-0.18,0.217-0.162,0.479-0.177,0.737
			c-0.149,2.753-0.146,5.511-0.276,8.265c-0.212,4.445-0.497,8.884-0.861,13.318c-0.412,5.035-0.96,10.054-1.609,15.062
			c-0.607,4.694-1.289,9.379-2.108,14.041c-0.284,1.613-0.03,3.136,0.523,4.642c0.326,0.889,0.752,1.74,0.972,2.668
			c0.096,0.404,0.134,0.798-0.064,1.175c-0.24,0.459-0.592,0.683-1.132,0.511c-0.414-0.133-0.797-0.326-1.175-0.532
			c-2.421-1.323-4.984-1.75-7.735-1.47c-2.798,0.286-5.612,0.404-8.423,0.557c-10.76,0.585-21.529,0.709-32.303,0.525
			c-7.18-0.122-14.352-0.456-21.515-0.967c-1.517-0.107-3.031-0.272-4.559-0.24c-1.958,0.041-3.812,0.455-5.54,1.395
			c-0.277,0.15-0.561,0.297-0.856,0.4c-0.842,0.295-1.573-0.321-1.451-1.213c0.06-0.436,0.269-0.821,0.484-1.191
			c1.264-2.169,1.47-4.443,0.988-6.899c-1.865-9.499-3.364-19.059-4.427-28.685c-0.608-5.51-1.076-11.029-1.389-16.564
			c-0.283-4.986-0.424-9.977-0.396-14.968c0.043-7.758,0.454-15.5,1.349-23.21c1.006-8.654,2.554-17.209,4.82-25.626
			c0.366-1.358,0.265-2.674-0.142-3.985c-0.221-0.712-0.496-1.408-0.751-2.11c-0.186-0.514-0.376-1.028-0.438-1.574
			c-0.115-1.026,0.723-1.779,1.731-1.56c0.483,0.104,0.93,0.323,1.324,0.609c2.191,1.593,4.638,1.965,7.284,1.724
			c2.601-0.237,5.215-0.344,7.825-0.45c9.903-0.4,19.809-0.637,29.721-0.511c7.266,0.092,14.529,0.319,21.787,0.684
			c1.577,0.079,3.152,0.21,4.729,0.288c2.796,0.137,5.506-0.189,8.009-1.574c0.488-0.271,1.014-0.466,1.523-0.033
			c0.479,0.406,0.508,0.936,0.357,1.499c-0.119,0.443-0.22,0.894-0.375,1.324c-0.895,2.489-1.094,4.985-0.545,7.615
			c1.13,5.422,1.883,10.912,2.553,16.409c0.452,3.703,0.81,7.416,1.117,11.135c0.723,8.705,1.037,17.425,1.003,26.158
			c-0.002,0.516-0.038,1.032-0.046,1.548c-0.006,0.372-0.026,0.75,0.18,1.09L110.517,67.352z M109.431,56.82
			c-0.028,0-0.057,0-0.086,0c0-0.632,0.006-1.263-0.001-1.895c-0.031-2.672-0.14-5.341-0.308-8.008
			c-0.06-0.944-84.931,7.048-89.528,7.48c-0.93,0.087-0.972-0.084-0.98,1.137c-0.032,4.298-0.075,8.596,0.146,12.892
			c0.082,1.577,0.149,3.155,0.197,4.734c0.016,0.512,90.49-8.354,90.485-8.906C109.33,61.125,109.431,59.951,109.431,56.82z"/>
	</g>
</g>
</svg>
