<?xml version="1.0" encoding="utf-8"?>
<!-- Generator: Adobe Illustrator 16.0.4, SVG Export Plug-In . SVG Version: 6.00 Build 0)  -->
<!DOCTYPE svg PUBLIC "-//W3C//DTD SVG 1.1//EN" "http://www.w3.org/Graphics/SVG/1.1/DTD/svg11.dtd">
<svg version="1.1" id="Layer_3817" xmlns="http://www.w3.org/2000/svg" xmlns:xlink="http://www.w3.org/1999/xlink" x="0px" y="0px"
	 width="128px" height="128px" viewBox="0 0 128 128" enable-background="new 0 0 128 128" xml:space="preserve">
<path d="M112.082,98.943c0-24-0.018-47.999,0.018-71.999c0.005-3.71-0.181-7.074-3.781-9.492c-3.721-2.496-3.568-2.721-0.594-6.517
	c3.346-4.266,1.939-10.134-2.824-10.35c-9.111-0.412-11.045-0.214-20.173-0.08c-3.019,0.045-4.501,1.939-4.474,5.044
	c0.021,2.402,0.084,4.638,2.496,6.099c1.771,1.073,1.975,2.784,0.643,4.266c-1.168,1.3-4.6,0.544-5.414-1.151
	c-0.729-1.518-1.135-3.191-1.662-4.803c-2.368-7.255-4.843-9.396-12.354-9.499C51.009,0.282,49.233,0.287,36.281,0.458
	C29.306,0.551,26.256,3.073,24.285,9.67c-2.67,8.941-5.232,17.914-7.867,26.866c-0.785,2.667-1.146,5.356-1.141,8.153
	c0.047,24.212,0.011,48.424,0.042,72.637c0.011,8.568,1.963,10.537,10.449,10.557c15.716,0.037,20.249,0.01,35.966,0.01
	c16.142,0,25.074,0.049,41.216-0.022c7.036-0.03,9.017-2.074,9.109-9.175C112.145,112.113,112.082,105.527,112.082,98.943z
	 M40.064,9.182c10.821-0.099,10.46-0.1,21.281,0.005c3.87,0.037,6.159,2.124,6.092,5.007c-0.065,2.855-2.311,4.648-6.342,4.731
	c-1.582,0.032-2.165,0.048-2.351,0.053c-0.061,0.003-0.136,0.004,0,0c0.136-0.007,0.188-0.026-2.38-0.026
	c-5.304-0.007-10.61,0.054-15.913-0.026c-4.345-0.065-6.843-1.977-6.778-4.961C33.732,11.225,36.152,9.218,40.064,9.182z M97.5,81.5
	h-69v-32h69V81.5z"/>
</svg>
