<?xml version="1.0" encoding="utf-8"?>
<!-- Generator: Adobe Illustrator 16.0.4, SVG Export Plug-In . SVG Version: 6.00 Build 0)  -->
<!DOCTYPE svg PUBLIC "-//W3C//DTD SVG 1.1//EN" "http://www.w3.org/Graphics/SVG/1.1/DTD/svg11.dtd">
<svg version="1.1" id="Layer_3818" xmlns="http://www.w3.org/2000/svg" xmlns:xlink="http://www.w3.org/1999/xlink" x="0px" y="0px"
	 width="128px" height="128px" viewBox="0 0 128 128" enable-background="new 0 0 128 128" xml:space="preserve">
<g>
	<path d="M110.738,106.603c-8.316-17.071-16.617-34.151-24.949-51.216c-0.729-1.494-1.021-3.005-1.016-4.661
		c0.035-11.658,0.018-23.317,0.018-34.976c0-0.449,0.031-0.899,0-1.346c-0.084-1.234,0.414-1.707,1.709-1.771
		c3.893-0.194,5.535-1.812,6.1-5.743c0.674-4.682-2.047-7.861-6.75-7.866c-7.355-0.007-14.709-0.002-22.065-0.002
		C56.162-0.979,48.538-0.996,40.914-0.97c-3.119,0.011-4.822,1.341-5.665,4.314c-0.501,1.767-0.494,3.527,0.077,5.292
		c0.863,2.664,2.268,3.917,5.039,3.993c2.291,0.063,2.197,0.407,2.195,2.35c-0.008,12.289-0.01,24.576,0.004,36.865
		c0.002,1.099-0.206,2.094-0.701,3.097c-2.498,5.06-4.931,10.152-7.398,15.227c-6.35,13.055-12.705,26.105-19.057,39.158
		c-0.475,0.975-0.875,1.957-0.717,3.091c0.389,2.776,1.141,5.409,2.551,7.868c1.574,2.746,3.812,4.357,6.944,4.961
		c3.957,0.762,7.946,1.188,11.935,1.703c6.324,0.815,12.674,1.129,19.02,1.434c11.754,0.566,23.487-0.096,35.192-1.195
		c4.541-0.428,9.086-0.944,13.529-2.064c1.572-0.396,3.154-0.851,4.287-2.091c2.287-2.505,3.67-5.466,4.406-8.784
		C113.195,111.36,111.916,109.02,110.738,106.603z M103.547,116.464c-0.455,0.356-0.973,0.647-1.547,0.848
		c-0.199,0.069-0.404,0.129-0.617,0.177c-4.475,1-9.037,1.396-13.582,1.764c-8.309,0.672-16.623,1.359-24.976,1.25
		c-8.164-0.105-16.29-0.728-24.409-1.537c-3.922-0.391-7.851-0.672-11.699-1.564c-0.191-0.044-0.377-0.1-0.559-0.167
		c-2.725-1.007-4.302-4.468-3.021-7.124c5.76-11.947,11.582-23.867,17.376-35.797c0.939-1.935,2.02-3.818,2.811-5.812
		c0.174-0.439,0.411-0.808,0.63-1.127c0.647-0.414,1.453-0.579,2.531-0.546c5.646,0.173,11.016,0.059,17.016,0.059
		c0,0.005,0,0.01,0,0.014c6,0,11.24,0.081,16.889-0.045c1.889-0.042,2.752,0.586,3.566,2.28c6.67,13.896,13.46,27.745,20.183,41.615
		C105.093,112.721,104.766,114.909,103.547,116.464z"/>
</g>
</svg>
