<?xml version="1.0" encoding="utf-8"?>
<!-- Generator: Adobe Illustrator 16.0.4, SVG Export Plug-In . SVG Version: 6.00 Build 0)  -->
<!DOCTYPE svg PUBLIC "-//W3C//DTD SVG 1.1//EN" "http://www.w3.org/Graphics/SVG/1.1/DTD/svg11.dtd">
<svg version="1.1" id="Layer_3821" xmlns="http://www.w3.org/2000/svg" xmlns:xlink="http://www.w3.org/1999/xlink" x="0px" y="0px"
	 width="128px" height="128px" viewBox="0 0 128 128" enable-background="new 0 0 128 128" xml:space="preserve">
<g>
	<g id="hbplyB.tif">
		<g>
			<path fill-rule="evenodd" clip-rule="evenodd" d="M127.965,71.805c-0.101,2.673,0.178,5.362-0.371,8.015
				c-1.235,5.965-4.603,10.582-9.218,14.36c-6.331,5.184-13.725,7.991-21.721,9.216c-10.209,1.562-20.184,0.616-29.769-3.418
				c-4.57-1.924-8.708-4.534-12.189-8.103c-4.612-4.728-7.298-10.239-7.033-17.015c0.112-2.842,0.008-2.826-2.541-1.699
				c-8.017,3.541-16.265,6.191-25.126,6.418c-3.292,0.083-6.536-0.172-9.659-1.365c-2.763-1.057-4.875-2.794-6.188-5.477
				c-0.883-1.805-1.761-3.612-2.724-5.373c-1.64-3-1.771-6.065-0.702-9.272c1.225-3.674,3.331-6.806,5.861-9.667
				c6.927-7.834,15.478-13.439,24.896-17.759c6.981-3.201,14.209-5.696,21.918-6.492c4.246-0.438,8.485-0.511,12.601,0.835
				c3.225,1.053,5.803,2.886,7.176,6.182c1.168,2.799,3.154,5.229,3.799,8.273c0.18,0.851,0.771,0.749,1.384,0.647
				c2.5-0.413,5.024-0.629,7.55-0.69c11.384-0.276,22.047,2.096,31.354,8.994c5.231,3.877,9.046,8.809,10.357,15.372
				C128.151,66.44,127.864,69.131,127.965,71.805z M4.499,70.013l-0.074-0.064l0.096,0.073c1.357,4.229,4.332,6.601,8.588,7.535
				c3.538,0.776,7.135,0.834,10.664,0.315c16.374-2.408,30.61-9.37,42.745-20.593c3.289-3.044,6.162-6.467,7.961-10.658
				c1.485-3.464,1.795-6.893-0.304-10.253c-0.194-0.311-0.301-0.84-0.659-0.825c-0.371,0.015-0.373,0.557-0.447,0.884
				c-1.194,5.182-4.045,9.424-7.72,13.101C53.927,60.953,40.16,68.083,24.406,71.376C17.686,72.78,10.96,73.012,4.499,70.013z
				 M87.762,93.806c9.055,0.024,17.382-1.986,24.417-6.006c5.346-3.055,9.703-7.071,12.35-12.787
				c1.055-2.276,1.035-4.348-0.012-6.604c-2.615-5.633-6.856-9.704-12.183-12.639c-11.908-6.561-24.534-7.6-37.635-4.57
				c-0.758,0.176-1.363,0.46-1.846,1.109c-5.569,7.504-12.952,12.835-20.951,17.424c-2.074,1.189-2.18,1.453-1.387,3.738
				c2.053,5.906,6.157,10.113,11.315,13.361C69.743,91.817,78.495,93.8,87.762,93.806z M87.61,102.638
				c4.875,0.049,9.662-0.581,14.345-1.875c7.378-2.037,14.013-5.4,19.15-11.256c3.399-3.874,5.46-8.308,5.362-13.576
				c-0.006-0.266,0.109-0.684-0.207-0.74c-0.326-0.059-0.389,0.383-0.502,0.631c-2.855,6.235-7.692,10.554-13.625,13.651
				C99.825,95.9,86.84,96.918,73.552,93.416C63.286,90.71,54.56,85.651,49.706,75.569c-0.09-0.188-0.165-0.497-0.426-0.387
				c-0.114,0.049-0.14,0.397-0.14,0.61c0.001,1.263,0.012,2.522,0.276,3.774c1.386,6.602,5.449,11.312,10.787,15.033
				C68.424,100.332,77.743,102.459,87.61,102.638z M87.702,41.03c-1.712,0-3.429-0.084-5.134,0.025
				c-1.479,0.095-2.944,0.398-4.411,0.642c-0.26,0.043-0.712,0.106-0.624,0.475c0.074,0.309,0.489,0.201,0.771,0.171
				c0.443-0.045,0.889-0.093,1.329-0.162c5.712-0.905,11.425-0.864,17.116,0.116c8.384,1.443,16.045,4.47,22.266,10.499
				c3.107,3.013,5.384,6.538,6.32,10.833c0.076,0.354,0.373,0.838,0.023,1.019c-0.328,0.171-0.572-0.318-0.771-0.62
				c-4.148-6.274-10.09-10.225-16.939-12.938c-8.846-3.505-18.025-4.357-27.422-3.182c-1.548,0.194-3.078,0.534-4.615,0.812
				c-0.31,0.056-0.545,0.247-0.501,0.572c0.011,0.07,0.393,0.121,0.604,0.125c0.22,0.004,0.443-0.049,0.66-0.095
				c6.025-1.272,12.106-1.663,18.201-0.754c13.078,1.951,24.646,6.446,31.195,19.101c0.094,0.182,0.287,0.456,0.418,0.448
				c0.441-0.031,0.263-0.436,0.271-0.678c0.089-2.734-0.579-5.31-1.702-7.777c-2.611-5.729-7.047-9.713-12.41-12.739
				C104.707,42.615,96.421,40.84,87.702,41.03z"/>
		</g>
	</g>
	<g id="FicLkm.tif">
		<g>
			<path fill-rule="evenodd" clip-rule="evenodd" d="M70.815,86.233c-3.092-0.032-5.465-1.353-7.107-3.983
				c-0.649-1.04-1.188-2.127-1.403-3.345c-0.413-2.346,0.461-4.201,2.243-5.674c1.37-1.133,2.742-2.266,4.168-3.326
				c1.656-1.23,2.734-2.793,3.178-4.814c0.278-1.268,0.898-2.364,1.926-3.188c2.467-1.979,7.167-2.302,9.59,1.049
				c1.303,1.8,2.385,3.679,2.644,5.927c0.262,2.268-0.507,4.13-2.352,5.487c-1.156,0.851-2.354,1.648-3.56,2.429
				c-1.508,0.977-2.338,2.349-2.346,4.13c-0.01,2.262-1.26,3.593-3.154,4.486C73.437,85.979,72.157,86.259,70.815,86.233z
				 M70.876,78.461c0.023-0.786-0.606-1.448-1.396-1.472c-0.801-0.023-1.45,0.58-1.481,1.376c-0.029,0.776,0.604,1.455,1.389,1.486
				C70.15,79.882,70.853,79.227,70.876,78.461z M74.143,69.646c-0.067,0.557,0.465,1.273,0.993,1.338
				c0.639,0.076,1.233-0.373,1.307-0.988c0.078-0.645-0.418-1.227-1.097-1.288C74.8,68.657,74.206,69.12,74.143,69.646z
				 M76.964,76.46c-0.014-0.544-0.529-1.031-1.056-0.998c-0.521,0.033-0.955,0.499-0.952,1.023c0.004,0.582,0.457,1.006,1.047,0.979
				C76.536,77.44,76.979,76.978,76.964,76.46z"/>
			<path fill-rule="evenodd" clip-rule="evenodd" d="M100.761,86.806c-2.469-0.098-5.048-0.618-7.354-2.096
				c-1.051-0.674-2.008-1.477-2.769-2.471c-1.222-1.598-1.079-3.064,0.586-4.187c1.307-0.881,2.795-1.359,4.267-1.872
				c1.405-0.49,2.869-0.756,4.308-1.121c1.188-0.301,1.869-1.036,2.209-2.188c0.34-1.149,0.526-2.325,0.721-3.502
				c0.316-1.923,0.907-2.61,3.368-2.526c2.405,0.082,4.159,1.297,5.198,3.449c1.31,2.717,1.725,5.601,1.056,8.541
				c-0.705,3.094-2.706,5.227-5.504,6.633C105.006,86.393,103.034,86.776,100.761,86.806z M109.332,75.403
				c0.021-1.051-0.712-1.822-1.743-1.838c-0.961-0.015-1.776,0.771-1.795,1.73c-0.021,0.999,0.789,1.855,1.759,1.861
				C108.511,77.162,109.312,76.372,109.332,75.403z M99.637,80.337c0.013-0.506-0.38-0.919-0.903-0.949
				c-0.578-0.033-0.97,0.334-0.979,0.92c-0.009,0.551,0.342,0.939,0.869,0.964C99.145,81.296,99.623,80.854,99.637,80.337z
				 M102.942,75.859c-0.54,0.011-0.926,0.387-0.935,0.911c-0.008,0.521,0.462,1,0.966,0.984c0.521-0.015,0.949-0.488,0.924-1.02
				C103.872,76.192,103.497,75.849,102.942,75.859z M103.01,81.136c-0.02,0.464,0.334,0.859,0.78,0.873
				c0.464,0.014,0.845-0.336,0.866-0.795c0.021-0.455-0.333-0.855-0.784-0.883C103.439,80.304,103.028,80.688,103.01,81.136z"/>
			<path fill-rule="evenodd" clip-rule="evenodd" d="M102.192,57.258c0.002,1.984-0.537,3.262-1.197,4.488
				c-0.993,1.848-2.206,3.555-3.474,5.222c-0.579,0.76-1.282,1.396-2.106,1.894c-0.339,0.205-0.705,0.334-1.094,0.379
				c-1.072,0.125-1.629-0.295-1.906-1.342c-0.355-1.344-0.099-2.67,0.135-3.979c0.33-1.84-0.147-3.416-1.312-4.825
				c-0.479-0.582-0.995-1.135-1.45-1.735c-0.686-0.903-0.688-1.69-0.021-2.612c1.835-2.536,5.595-3.846,8.592-2.678
				C100.515,52.911,102.204,55.406,102.192,57.258z M97.06,61.225c-0.57-0.004-1.02,0.435-1.026,1.003
				c-0.009,0.593,0.405,1.019,0.994,1.023c0.569,0.005,1.044-0.447,1.044-0.992C98.069,61.701,97.608,61.229,97.06,61.225z
				 M95.702,58.696c-0.014-0.356-0.378-0.672-0.736-0.639c-0.338,0.031-0.648,0.359-0.609,0.686c0.045,0.376,0.267,0.62,0.657,0.646
				C95.374,59.413,95.715,59.053,95.702,58.696z"/>
		</g>
	</g>
</g>
</svg>
