<?xml version="1.0" encoding="utf-8"?>
<!-- Generator: Adobe Illustrator 16.0.4, SVG Export Plug-In . SVG Version: 6.00 Build 0)  -->
<!DOCTYPE svg PUBLIC "-//W3C//DTD SVG 1.1//EN" "http://www.w3.org/Graphics/SVG/1.1/DTD/svg11.dtd">
<svg version="1.1" id="Layer_3822" xmlns="http://www.w3.org/2000/svg" xmlns:xlink="http://www.w3.org/1999/xlink" x="0px" y="0px"
	 width="128px" height="128px" viewBox="0 0 128 128" enable-background="new 0 0 128 128" xml:space="preserve">
<g>
	<path fill-rule="evenodd" clip-rule="evenodd" d="M106.79,79.898c-1.345-7.128-4.281-14.205-9.242-22.271
		c-0.557-0.904-1.115-1.807-1.674-2.709c-3.516-5.674-7.152-11.541-9.873-17.753l-0.188-0.42c-0.397-0.885-0.772-1.721-0.771-2.602
		l0.006-3.654c0.01-4.7,0.018-9.401-0.006-14.103c-0.002-0.369,0.045-0.51,0.035-0.526c0.025-0.008,0.094-0.024,0.229-0.024
		c0.051,0,0.104,0.002,0.159,0.006c0.247,0.019,0.491,0.029,0.734,0.029c1.431,0,2.604-0.364,3.587-1.114
		c2.474-1.889,3.438-6.11,2.196-9.61c-1.051-2.966-3.124-4.289-6.723-4.29L51.292,0.851c-3.001,0-6.003,0.002-9.004,0.008
		c-3.446,0.007-5.729,1.71-6.604,4.924c-0.486,1.786-0.462,3.59,0.07,5.363c0.897,2.982,2.896,4.522,6.121,4.709
		c0.312,0.019,0.655,0.038,0.86,0.067c0.022,0.229,0.024,0.621,0.025,0.901c0.012,2.736,0.013,5.472,0.014,8.208
		c0,2.925,0.001,5.85,0.016,8.775c0.005,0.875-0.2,1.75-0.664,2.839c-2.794,6.555-6.618,12.671-9.992,18.068
		c-5.036,8.058-9.897,16.961-11.357,27.455c-0.609,4.375-0.619,8.764-0.031,13.047c1.021,7.45,4.578,14.113,10.287,19.269
		c8.986,8.114,20.013,12.229,32.777,12.229c2.231,0,4.549-0.127,6.891-0.376c5.807-0.617,11.661-2.492,17.402-5.574
		c7.457-4.004,12.693-9.213,16.005-15.927C107.702,97.546,108.579,89.389,106.79,79.898z M48.327,31.333
		c-0.119-3.819-0.092-7.716-0.067-11.484c0.013-1.91,0.026-3.82,0.021-5.729c-0.008-3.105-0.433-3.54-3.492-3.579l-0.281-0.001
		l-1.255,0.01c-0.169,0-0.34-0.002-0.508-0.006c-1.48-0.043-1.98-0.569-1.971-2.083c0.01-1.587,0.421-2.023,1.939-2.029
		c3.113-0.011,6.433-0.015,9.546-0.015L63.5,6.421v0.01l12.787-0.004c2.857,0,5.631,0.002,8.488,0.01
		c1.129,0.003,1.802,0.183,2.104,0.535c0.293,0.34,0.334,1.05,0.176,2.111c-0.16,1.086-0.386,1.37-1.748,1.452l-0.405-0.003
		c-4.737,0.119-5.175,0.556-5.173,5.194c0.001,2.05,0.004,4.1,0.01,6.15c0.01,4.124,0.019,8.248-0.004,12.372
		c-0.008,1.397,0.263,2.703,0.853,4.108c2.73,6.511,6.455,12.559,10.057,18.408c0.579,0.941,1.157,1.881,1.733,2.824
		c3.457,5.665,7.206,12.48,8.805,20.074c1.382,6.567,1.38,12.255-0.006,17.388c-2.141,7.922-7.16,14.141-14.92,18.48
		c-4.264,2.386-8.874,3.711-13.23,4.863c-2.757,0.729-5.646,1.099-8.585,1.099c-1.5,0-3.034-0.097-4.558-0.288
		c-11.789-1.479-20.627-5.588-27.019-12.562c-4.65-5.073-7.079-11.407-7.217-18.826c-0.175-9.371,2.719-18.442,9.384-29.412
		c0.662-1.088,1.328-2.174,1.995-3.26c3.192-5.198,6.493-10.573,9.153-16.234C47.744,37.58,48.426,34.537,48.327,31.333z"/>
	<path fill-rule="evenodd" clip-rule="evenodd" d="M64.4,118.047c-1.391,0-2.793-0.084-4.17-0.247
		c-9.236-1.099-16.388-3.928-21.865-8.648c-6.445-5.555-9.528-12.714-9.165-21.278c0.223-5.226,1.35-10.345,3.448-15.65
		c0.468-1.186,0.917-1.475,2.281-1.475c4.834,0.033,9.6,0.042,14.365,0.042l13.867-0.009l0.916,0.011l14.665,0.389
		c5.697,0,10.064,0.319,14.16,0.319c0,0,0.001,0,0.002,0c1.39,0,1.879-0.053,2.352,1.125c2.39,5.945,3.531,10.794,3.59,15.663
		c0.137,11.392-5.089,19.743-15.533,25.01C76.942,116.512,70.579,118.047,64.4,118.047z"/>
</g>
</svg>
