<?xml version="1.0" encoding="utf-8"?>
<!-- Generator: Adobe Illustrator 16.0.4, SVG Export Plug-In . SVG Version: 6.00 Build 0)  -->
<!DOCTYPE svg PUBLIC "-//W3C//DTD SVG 1.1//EN" "http://www.w3.org/Graphics/SVG/1.1/DTD/svg11.dtd">
<svg version="1.1" id="Layer_3825" xmlns="http://www.w3.org/2000/svg" xmlns:xlink="http://www.w3.org/1999/xlink" x="0px" y="0px"
	 width="128px" height="128px" viewBox="0 0 128 128" enable-background="new 0 0 128 128" xml:space="preserve">
<g>
	<path fill-rule="evenodd" clip-rule="evenodd" d="M39.237,122.432c-0.113-0.057-0.235-0.038-0.354-0.042
		c-7.671-0.25-14.633-2.609-20.89-7.044c-2.922-2.071-5.478-4.534-7.696-7.347c-0.054-0.069-0.106-0.139-0.16-0.208
		c-0.051-0.065-0.038-0.122,0.03-0.162c0.339-0.197,0.679-0.394,1.019-0.591c0.114-0.066,0.18,0.003,0.249,0.08
		c0.174,0.195,0.349,0.392,0.529,0.581c3.909,4.146,8.665,6.769,14.246,7.893c2.073,0.418,4.173,0.564,6.284,0.464
		c10.316-0.491,19.262-6.877,23.159-16.192c0.991-2.369,1.637-4.83,1.903-7.384c0.53-5.095-0.327-9.95-2.589-14.552
		c-0.024-0.05-0.049-0.098-0.073-0.146c-0.128-0.264-0.129-0.268,0.136-0.421c0.964-0.557,1.932-1.105,2.889-1.673
		c0.202-0.119,0.307-0.096,0.462,0.075c1.687,1.843,3.792,2.684,6.273,2.489c1.95-0.152,3.596-0.994,4.925-2.439
		c0.283-0.307,0.224-0.278,0.557-0.087c0.947,0.543,1.891,1.089,2.835,1.636c0.265,0.152,0.268,0.157,0.135,0.42
		c-1.144,2.264-1.94,4.645-2.393,7.137c-0.381,2.103-0.506,4.221-0.365,6.355c0.345,5.258,2.06,10.021,5.233,14.223
		c3.956,5.236,9.173,8.557,15.583,9.99c2.206,0.493,4.445,0.691,6.698,0.566c7.402-0.408,13.619-3.344,18.614-8.838
		c0.22-0.241,0.217-0.244,0.507-0.078c0.246,0.141,0.486,0.291,0.738,0.421c0.186,0.095,0.195,0.177,0.064,0.341
		c-0.707,0.889-1.439,1.756-2.22,2.582c-4.014,4.253-8.753,7.422-14.22,9.497c-2.589,0.983-5.256,1.663-7.995,2.058
		c-1.383,0.198-2.772,0.332-4.171,0.354c-0.141,0.002-0.285-0.02-0.419,0.043c-0.524,0-1.048,0-1.573,0
		c-0.09-0.049-0.19-0.04-0.287-0.042c-2.153-0.044-4.282-0.304-6.392-0.729c-3.953-0.797-7.68-2.196-11.187-4.185
		c-1.787-1.014-3.482-2.163-5.075-3.464c-0.188-0.153-0.313-0.162-0.498-0.001c-0.295,0.259-0.61,0.494-0.925,0.729
		c-6.435,4.81-13.66,7.375-21.694,7.648c-0.13,0.005-0.263-0.014-0.388,0.043C40.242,122.432,39.739,122.432,39.237,122.432z"/>
	<path fill-rule="evenodd" clip-rule="evenodd" d="M69.305,5.568c0.558,0.15,1.133,0.201,1.697,0.31
		c6.729,1.294,12.697,4.166,17.854,8.675c5.786,5.06,9.66,11.332,11.677,18.748c0.536,1.97,0.889,3.976,1.089,6.009
		c0.153,1.566,0.219,3.135,0.176,4.708c-0.043,1.593-0.175,3.18-0.434,4.753c-0.002,0.011-0.004,0.021-0.005,0.032
		c-0.062,0.408-0.061,0.404,0.324,0.559c10.03,4.042,17.149,11.05,21.341,21.016c1.176,2.795,1.932,5.713,2.379,8.714
		c0.367,2.449,0.48,4.91,0.361,7.378c-0.205,4.217-1.102,8.288-2.672,12.21c-0.125,0.313-0.126,0.313-0.428,0.14
		c-0.236-0.136-0.465-0.286-0.71-0.405c-0.203-0.099-0.218-0.213-0.149-0.416c0.413-1.23,0.729-2.486,0.957-3.766
		c0.385-2.161,0.48-4.334,0.328-6.521c-0.189-2.686-0.752-5.291-1.783-7.775c-3.458-8.332-9.581-13.645-18.286-15.968
		c-2.494-0.666-5.054-0.889-7.626-0.727c-7.335,0.461-13.497,3.398-18.439,8.856c-0.852,0.94-1.61,1.953-2.309,3.011
		c-0.167,0.254-0.17,0.254-0.423,0.108c-0.965-0.556-1.925-1.118-2.895-1.663c-0.212-0.119-0.248-0.229-0.173-0.46
		c1.312-4.062-0.924-8.334-5.002-9.565c-0.229-0.069-0.462-0.127-0.697-0.171c-0.156-0.029-0.223-0.098-0.222-0.26
		c0.003-1.168,0.005-2.336-0.001-3.504c-0.002-0.219,0.113-0.242,0.287-0.251c2.608-0.142,5.141-0.664,7.592-1.568
		c8.119-2.994,14.225-9.702,16.444-18.064c0.488-1.84,0.776-3.711,0.844-5.615c0.253-7.223-2.028-13.546-6.851-18.913
		c-3.727-4.147-8.367-6.791-13.806-8.028c-0.181-0.041-0.36-0.088-0.544-0.116c-0.139-0.021-0.178-0.096-0.175-0.223
		c0.009-0.415,0.012-0.829,0.017-1.244C69.13,5.568,69.218,5.568,69.305,5.568z"/>
	<path fill-rule="evenodd" clip-rule="evenodd" d="M58.955,5.568c0.005,0.382-0.006,0.765,0.022,1.145
		c0.019,0.249-0.096,0.319-0.307,0.356c-0.655,0.117-1.3,0.279-1.937,0.469c-7.539,2.26-13.052,6.929-16.559,13.964
		c-1.146,2.298-1.88,4.738-2.285,7.272c-0.318,1.989-0.413,3.993-0.269,6.004c0.802,11.191,8.375,20.253,18.5,23.415
		c1.827,0.57,3.694,0.943,5.605,1.092c0.261,0.021,0.52,0.062,0.783,0.057c0.174-0.004,0.256,0.06,0.255,0.248
		c-0.005,1.168-0.006,2.336,0,3.504c0.001,0.215-0.125,0.234-0.287,0.27c-1.795,0.388-3.292,1.279-4.408,2.739
		c-1.604,2.098-1.991,4.434-1.243,6.959c0.108,0.367,0.152,0.303-0.188,0.5c-0.934,0.543-1.869,1.084-2.806,1.619
		c-0.327,0.188-0.27,0.242-0.517-0.127c-3.164-4.725-7.398-8.109-12.709-10.143c-2.057-0.787-4.183-1.317-6.371-1.539
		c-7.38-0.747-13.998,1.177-19.751,5.86C9.785,73.057,6.828,78,5.463,83.896c-0.553,2.386-0.725,4.81-0.592,7.25
		c0.126,2.319,0.564,4.584,1.298,6.79c0.111,0.335,0.11,0.336-0.183,0.507c-0.236,0.138-0.472,0.275-0.708,0.41
		c-0.24,0.136-0.249,0.137-0.346-0.113c-0.212-0.549-0.426-1.098-0.622-1.652c-0.823-2.33-1.402-4.721-1.75-7.166
		c-0.366-2.568-0.453-5.149-0.29-7.739c0.297-4.7,1.437-9.187,3.417-13.456c2.611-5.629,6.387-10.336,11.303-14.123
		c2.88-2.218,6.022-3.973,9.416-5.273c0.231-0.089,0.287-0.196,0.247-0.428c-0.182-1.054-0.297-2.117-0.371-3.183
		c-0.102-1.471-0.129-2.943-0.051-4.417c0.055-1.046,0.143-2.088,0.275-3.127c0.271-2.125,0.705-4.215,1.359-6.254
		c3.294-10.259,9.741-17.855,19.336-22.752c3.333-1.701,6.872-2.812,10.566-3.427c0.309-0.051,0.628-0.057,0.925-0.173
		C58.78,5.568,58.867,5.568,58.955,5.568z"/>
	<path fill-rule="evenodd" clip-rule="evenodd" d="M98.023,70.537c0.026,13.889-8.285,26.517-21.258,31.751
		c-0.303,0.122-0.305,0.123-0.473-0.159c-1.422-2.378-2.434-4.918-3.013-7.629c-0.068-0.319-0.067-0.32,0.238-0.445
		c3.159-1.299,5.956-3.145,8.353-5.579c3.547-3.603,5.817-7.886,6.824-12.843c0.431-2.119,0.543-4.26,0.435-6.414
		c-0.032-0.652-0.114-1.304-0.199-1.951c-0.028-0.212,0.031-0.283,0.222-0.348c1.295-0.434,2.619-0.75,3.967-0.957
		c1.384-0.213,2.775-0.302,4.176-0.268c0.345,0.008,0.35,0.006,0.4,0.348C97.931,67.61,98.033,69.188,98.023,70.537z"/>
	<path fill-rule="evenodd" clip-rule="evenodd" d="M29.973,70.358c-0.008-1.2,0.105-2.786,0.328-4.367
		c0.035-0.247,0.133-0.295,0.355-0.298c1.225-0.018,2.444,0.054,3.657,0.209c1.506,0.194,2.983,0.525,4.43,0.986
		c0.345,0.11,0.356,0.113,0.308,0.467c-0.207,1.507-0.262,3.021-0.199,4.539c0.123,2.926,0.733,5.751,1.876,8.446
		c2.725,6.424,7.314,10.992,13.743,13.71c0.285,0.12,0.332,0.078,0.249,0.473c-0.57,2.728-1.589,5.273-3.034,7.654
		c-0.116,0.191-0.217,0.216-0.414,0.136c-4.722-1.925-8.829-4.739-12.284-8.491c-3.833-4.165-6.464-8.993-7.915-14.463
		c-0.476-1.795-0.792-3.617-0.963-5.468C30.015,72.848,29.976,71.802,29.973,70.358z"/>
	<path fill-rule="evenodd" clip-rule="evenodd" d="M85.16,44.16c-0.041,0.079-0.084,0.167-0.131,0.251
		c-1.236,2.218-2.77,4.207-4.604,5.963c-0.166,0.159-0.332,0.316-0.504,0.468c-0.254,0.224-0.199,0.24-0.478,0.024
		c-1.322-1.027-2.731-1.917-4.231-2.661c-2.511-1.246-5.155-2.05-7.936-2.418c-1.598-0.211-3.2-0.272-4.802-0.168
		c-5.135,0.332-9.756,2.06-13.848,5.189c-0.034,0.026-0.071,0.05-0.102,0.082c-0.137,0.139-0.25,0.144-0.41,0.001
		c-2.112-1.886-3.846-4.071-5.202-6.558c-0.116-0.213-0.014-0.285,0.122-0.392c1.853-1.451,3.836-2.695,5.947-3.735
		c2.804-1.381,5.745-2.349,8.815-2.924c2.618-0.491,5.261-0.669,7.916-0.521c7.143,0.397,13.555,2.78,19.216,7.161
		C85.015,43.985,85.122,44.03,85.16,44.16z"/>
</g>
</svg>
