<?xml version="1.0" encoding="utf-8"?>
<!-- Generator: Adobe Illustrator 16.0.4, SVG Export Plug-In . SVG Version: 6.00 Build 0)  -->
<!DOCTYPE svg PUBLIC "-//W3C//DTD SVG 1.1//EN" "http://www.w3.org/Graphics/SVG/1.1/DTD/svg11.dtd">
<svg version="1.1" id="Layer_3901" xmlns="http://www.w3.org/2000/svg" xmlns:xlink="http://www.w3.org/1999/xlink" x="0px" y="0px"
	 width="128px" height="128px" viewBox="0 0 128 128" enable-background="new 0 0 128 128" xml:space="preserve">
<g>
	<g>
		<path d="M125.27,62.5c0.91,0,0.991-1.021,0.994-1.206c0.005-0.276-0.11-0.659-0.207-0.758c-0.223-0.227-0.535-0.359-0.782-0.359
			l-3.468-0.053l-0.002-24.226c0-1.15-0.001-2.312,0.004-3.462c0-0.184,0.002-0.614-0.458-0.911l-0.124-0.024h-6.771l-0.452,0.036
			l-0.056,0.407c-0.011,0.092-0.021,0.167-0.021,0.26c0.001,0.561,0.055,0.791,0.625,0.812l-0.052-0.006V33.5h0.428h-0.035
			l-0.019-0.249l0.114,0.249h4.512v27h-3.043c-1.763,0-3.525-0.215-5.293-0.22c-0.471,0-0.801,0.084-1.036,0.495l-3.27,5.621
			c-1.188,2.062-2.378,4.098-3.564,6.162c-0.066,0.115-0.051,0.095-0.189,0.103c-1.647-0.007-3.294-0.015-4.941-0.015h-4.304
			l-0.142-0.007c-0.27,0-0.438,0.112-0.532,0.206c-0.219,0.221-0.218,0.632-0.218,0.729c0.001,0.6,0.413,0.926,0.83,0.926
			c0.001,0,0.003,0,0.005,0h0.17l0.115-0.112l4.45-0.058c1.606,0,3.213-0.027,4.829-0.021c0.53,0,0.902-0.231,1.17-0.698
			c1.389-2.419,2.783-4.842,4.178-7.258l2.658-4.614l0.072,0.342c2.041,0.007,4.081,0.419,6.121,0.419h1.934v32.104l-4.881,0.014
			c-0.376,0-0.496,0-0.714,0.25c-0.218,0.251-0.087,0.688-0.032,1.068l0.148,0.564h7.334l-0.006-0.28
			c0.313-0.313,0.15-0.82,0.15-1.144V62.5h2.246H125.27z M121.643,60.129l-0.066,0.442l0,0l-0.074-0.5
			C121.549,60.076,121.598,60.097,121.643,60.129z"/>
		<path d="M12.286,95.5h-0.111H6.5v-0.91l0.207-19.675L6.917,74.5h0.935h1.496l1.415-0.074l1.138-0.031
			c0.492,0,0.798-0.328,0.798-0.826c0-0.096,0.001-0.398-0.22-0.619c-0.096-0.097-0.27-0.217-0.551-0.217l-0.327,0.001L6.5,72.728
			V33.008l3.129,0.001l2.375-0.003l0.398,0.01c0.088,0,0.379,0,0.575-0.211c0.227-0.245,0.215-0.518,0.186-0.905l-0.022-0.4H5.937
			l-0.105-0.01c-0.564,0.281-0.944,0.795-0.937,1.147L4.5,72.598V73.5h0.638L1.5,72.729v0.5l0.315-0.502
			c-0.158,0-0.587,0.013-0.784,0.104L0.5,72.964v1.376l4,0.016c0,0.018,0,0.035,0,0.053v20.476l0.395,0.386
			c0.001,0.427,0.396,0.826,0.563,0.972L5.796,96.5h6.88l0.457-0.188l0.046-0.517c0.005-0.051,0.01-0.136,0.012-0.192
			c0.006-0.271,0.011-0.102-0.19-0.312C12.801,95.084,12.539,95.5,12.286,95.5z"/>
		<path d="M127.471,91.03c-0.154-0.688-0.564-1.165-1.22-1.38c-0.743-0.242-1.421-0.186-2.012,0.16
			c-0.067-0.061-0.136-0.096-0.193-0.117c-0.299-0.107-0.636-0.111-0.938-0.012c-0.19,0.062-0.501,0.248-0.446,0.842
			c-0.005,1.337-0.003,2.717-0.001,4.055c0.001,0.641,0.227,0.922,0.856,0.922h0.194c0.591,0,0.812-0.286,0.814-0.882
			c0.003-0.606,0.002-1.235,0.001-1.942c-0.001-0.307-0.001-0.606,0.055-0.882c0.047-0.232,0.164-0.504,0.763-0.503
			c0.168,0.012,0.231,0.021,0.262,0.531c0.005,0.073-0.105,0.143-0.105,0.279v2.021c0,0.394,0.109,0.631,0.201,0.844
			c0.197,0.453,0.718,0.453,0.871,0.453c0.123,0,0.272-0.011,0.476-0.026l0.452-0.035V91.34L127.471,91.03z"/>
		<path d="M17.197,69.887c-1.491-0.362-2.757,0.043-3.669,1.162c-0.589,0.725-0.853,1.627-0.803,2.76
			c0.09,2.098,1.539,3.562,3.523,3.562l0.154-0.004c1.504-0.061,2.691-0.918,3.177-2.291c0.184-0.518,0.263-1.029,0.237-1.472
			c0.016-0.351-0.012-0.678-0.084-1.001C19.404,71.146,18.528,70.207,17.197,69.887z M15.5,71.064l0.397,0.498
			c0.773,0.004,1.523,0.449,1.719,1.221c0.061,0.237,0.184,0.5,0.175,0.809c0.008,0.346,0.022,1.086-0.059,1.338
			c-0.231,0.725-0.704,1.57-1.556,1.57c-0.002,0-0.005,0-0.007,0c-0.72,0-1.288-0.976-1.446-1.695
			c-0.116-0.523-0.494-1.292-0.362-1.83c0.187-0.762,0.14-1.412,1.14-1.412V71.064L15.5,71.064z"/>
		<path d="M89.764,69.887c-1.491-0.361-2.795,0.062-3.695,1.193c-0.556,0.699-0.811,1.578-0.778,2.688
			c0.061,2.088,1.542,3.604,3.523,3.604l0.155-0.004c1.504-0.061,2.691-0.917,3.178-2.291c0.185-0.523,0.263-1.024,0.238-1.475
			c0.02-0.289-0.007-0.603-0.082-0.955C91.992,71.168,91.113,70.215,89.764,69.887z M87.41,74.688
			c-0.312-0.784-0.299-1.562,0.041-2.315c0.246-0.545,0.696-0.81,1.376-0.81l0.112,0.003c0.639,0.026,1.059,0.315,1.324,0.908
			c0.149,0.336,0.213,0.695,0.189,1.12c0.016,0.384-0.038,0.724-0.164,1.038c-0.242,0.599-0.744,0.936-1.45,0.947
			C88.158,75.58,87.638,75.255,87.41,74.688z"/>
		<path d="M89.35,44.509c-1.759-0.261-3.262,0.666-3.818,2.271c-0.185,0.536-0.266,1.116-0.242,1.724
			c0.084,2.1,1.538,3.566,3.536,3.566c0.083,0,0.167-0.002,0.251-0.008c1.447-0.088,2.594-0.939,3.068-2.278
			c0.181-0.51,0.265-1.02,0.244-1.452C92.389,46.221,91.252,44.792,89.35,44.509z M87.293,49.076
			c-0.06-0.228-0.082-0.476-0.068-0.81c-0.017-0.303,0.025-0.623,0.124-0.95c0.181-0.601,0.72-1.023,1.341-1.051l0.107-0.002
			c0.709,0,1.23,0.326,1.468,0.918c0.247,0.617,0.274,1.262,0.085,1.972c-0.193,0.722-0.75,1.143-1.549,1.153
			C88.077,50.305,87.485,49.823,87.293,49.076z"/>
		<path d="M12.729,48.653c0.167,2.044,1.585,3.418,3.528,3.418c0.08,0,0.16-0.002,0.241-0.007c1.46-0.086,2.614-0.948,3.087-2.304
			c0.178-0.511,0.253-1,0.23-1.443c0.019-0.318-0.009-0.652-0.086-1.02c-0.331-1.587-1.43-2.608-3.015-2.801
			c-1.521-0.186-2.873,0.504-3.554,1.824C12.805,47.012,12.66,47.797,12.729,48.653z M14.779,47.331
			c0.176-0.613,0.72-1.042,1.355-1.066l0.097-0.002c0.724,0,1.237,0.332,1.483,0.958c0.131,0.332,0.189,0.678,0.173,1.064
			c0.008,0.345-0.026,0.629-0.108,0.896c-0.219,0.713-0.77,1.122-1.523,1.122h0c-0.756-0.005-1.354-0.487-1.525-1.227
			C14.596,48.497,14.613,47.91,14.779,47.331z"/>
	</g>
	<g>
		<path d="M84.771,59.683l3.396-5.885l0.26-0.545l-0.109-0.23l-0.085-0.146c-0.396-0.526-1.115-0.48-1.444,0.09l-4.296,7.442
			c-0.146-0.142-0.313-0.241-0.512-0.293l3.812-6.601l0.601-1.052l0.045-0.116c0.045-0.179,0.045-0.44-0.209-0.672
			c-0.151-0.137-0.359-0.294-0.633-0.294c-0.43,0-0.65,0.382-0.723,0.507l-2.955,5.115c-0.512,0.888-1.023,1.776-1.54,2.663
			c-0.044,0.074-0.123,0.22-0.142,0.399c-4.083,0.009-8.166,0.004-12.251,0.015c-0.157,0-0.171-0.008-0.248-0.141
			c-1.328-2.297-2.661-4.591-3.994-6.885l-2.894-5.226c-0.225-0.39-0.877-0.628-0.878-0.628c-0.924,0.139-14.218,0.219-14.218,0.219
			c-0.191,0-0.7,0.06-1.008,0.603l-3.402,5.987c-1.153,2.017-2.306,4.048-3.456,6.066l-0.107,0.072
			c-1.226-0.006-2.45-0.004-3.676-0.004l-6.379,0.003c-0.76,0-1.522,0-2.284-0.001c-0.024-0.151-0.096-0.286-0.171-0.417
			l-4.571-7.925c-0.047-0.097-0.192-0.392-0.565-0.44l-0.114-0.015l-0.109,0.037c-0.252,0.084-0.445,0.204-0.593,0.365
			c-0.106,0.117-0.319,0.437,0.009,0.892c0.266,0.467,0.535,0.933,0.805,1.399l3.545,6.14c-0.203,0.048-0.372,0.146-0.512,0.292
			l-4.393-7.59C18.628,52.62,18.416,52.5,18.1,52.5c-0.001,0-0.002,0-0.003,0c-0.294,0-0.554,0.153-0.694,0.406
			c-0.146,0.264-0.137,0.58,0.023,0.858l4.564,7.902c0.063,0.109,0.143,0.234,0.258,0.329c-0.639,1.113-1.279,2.226-1.921,3.337
			l-1.117,1.936c-0.301,0.521-0.225,0.829,0.308,1.152c0.145,0.088,0.284,0.131,0.426,0.131c0.407,0,0.583-0.335,0.674-0.505
			l0.639-1.106c0.98-1.691,1.959-3.385,2.928-5.084c0.063-0.11,0.074-0.112,0.194-0.11c4.427,0.011,8.85,0.012,13.283-0.001
			c0.176,0,0.197,0.018,0.275,0.153c1.299,2.248,2.603,4.492,3.907,6.737l2.963,5.182c0.24,0.414,0.574,0.684,1.053,0.684h0.029
			c2.031,0,4.062-0.12,6.092-0.129c2.648-0.01,5.296-0.049,7.944-0.049c0.296,0,0.723-0.077,1.003-0.571l3.157-5.537
			c1.234-2.159,2.47-4.324,3.7-6.485l-0.435-0.25l0.551,0.189c4.484,0.008,8.966,0.008,13.457-0.001l0.104,0.069
			c1.058,1.849,2.125,3.692,3.191,5.538l0.471,0.815c0.066,0.126,0.243,0.462,0.651,0.462c0.142,0,0.28-0.043,0.431-0.133
			c0.442-0.268,0.647-0.555,0.303-1.15l-1.052-1.822c-0.68-1.176-1.357-2.354-2.033-3.533c0.099-0.077,0.184-0.189,0.251-0.341
			C84.043,60.944,84.406,60.314,84.771,59.683z M42.91,61.174c-0.14,0.315-0.345,0.466-0.618,0.466l-0.184-0.026
			c-0.305-0.084-0.522-0.229-0.661-0.441c-0.108-0.165-0.186-0.435,0.059-0.783l5.098-8.904c0.089-0.156,0.299-0.523,0.72-0.523
			c0.255,0,0.456,0.142,0.619,0.281c0.254,0.213,0.274,0.458,0.247,0.626l-0.044,0.14c-0.044,0.092-0.076,0.159-0.113,0.223
			L42.91,61.174z M58.852,70.316c-0.035,0.389-0.297,0.646-0.682,0.67c-0.089,0.006-0.182,0.007-0.275,0.007l-10.201,0.022
			c-0.13,0-0.4,0-0.608-0.209c-0.138-0.139-0.206-0.324-0.205-0.555c0.003-0.58,0.251-0.83,0.829-0.834l10.273-0.06
			c0.17-0.007,0.479,0,0.696,0.238C58.896,69.836,58.867,70.148,58.852,70.316z M64.195,61.096c-0.068,0.145-0.248,0.4-0.683,0.474
			l-0.118,0.01c-0.253,0-0.452-0.129-0.593-0.383l-5.228-8.987c-0.16-0.275-0.173-0.594-0.035-0.853
			c0.138-0.258,0.408-0.423,0.723-0.443c0.293,0.012,0.481,0.116,0.621,0.351l5.239,9.002C64.344,60.649,64.263,60.95,64.195,61.096
			z M85.621,67.945L85.621,67.945l-0.003,0.003L85.621,67.945z"/>
	</g>
</g>
</svg>
