<?xml version="1.0" encoding="utf-8"?>
<!-- Generator: Adobe Illustrator 16.0.4, SVG Export Plug-In . SVG Version: 6.00 Build 0)  -->
<!DOCTYPE svg PUBLIC "-//W3C//DTD SVG 1.1//EN" "http://www.w3.org/Graphics/SVG/1.1/DTD/svg11.dtd">
<svg version="1.1" id="Layer_3902" xmlns="http://www.w3.org/2000/svg" xmlns:xlink="http://www.w3.org/1999/xlink" x="0px" y="0px"
	 width="128px" height="128px" viewBox="0 0 128 128" enable-background="new 0 0 128 128" xml:space="preserve">
<g id="wtc8UI.tif">
	<g>
		<path fill-rule="evenodd" clip-rule="evenodd" d="M64.543,39.982c0.298,0.547,0.879,0.724,1.365,1.005
			c20.068,11.611,40.141,23.212,60.217,34.81c0.369,0.213,0.777,0.359,1.168,0.537c0,0.287,0,0.576,0,0.865
			c-1.431,1.717-1.432,1.719-3.549,0.494C104.735,66.709,85.707,55.759,66.75,44.684c-1.976-1.155-3.355-1.034-5.243,0.063
			C42.527,55.782,23.495,66.727,4.478,77.695c-2.119,1.223-2.12,1.221-3.55-0.496c0-0.289,0-0.578,0-0.865
			c3.435-1.656,6.646-3.713,9.942-5.613c17.755-10.231,35.495-20.49,53.24-30.739C64.254,39.982,64.398,39.982,64.543,39.982z"/>
		<path fill-rule="evenodd" clip-rule="evenodd" d="M120.369,88.018c-3.166-2.26-6.645-4.002-9.998-5.947
			c-15.506-8.994-31.044-17.935-46.553-26.926c-0.682-0.396-2.017-0.486-1.386-1.932c0.619-1.418,0.999-1.536,2.63-0.594
			c11.725,6.764,23.444,13.534,35.165,20.306c6.546,3.779,13.102,7.543,19.629,11.357c2.408,1.406,2.772,0.814,0.945,3.736
			C120.657,88.018,120.514,88.018,120.369,88.018z"/>
	</g>
</g>
</svg>
