<?xml version="1.0" encoding="utf-8"?>
<!-- Generator: Adobe Illustrator 16.0.4, SVG Export Plug-In . SVG Version: 6.00 Build 0)  -->
<!DOCTYPE svg PUBLIC "-//W3C//DTD SVG 1.1//EN" "http://www.w3.org/Graphics/SVG/1.1/DTD/svg11.dtd">
<svg version="1.1" id="Layer_3905" xmlns="http://www.w3.org/2000/svg" xmlns:xlink="http://www.w3.org/1999/xlink" x="0px" y="0px"
	 width="128px" height="128px" viewBox="0 0 128 128" enable-background="new 0 0 128 128" xml:space="preserve">
<g id="aqSuVk.tif">
	<g>
		<path fill-rule="evenodd" clip-rule="evenodd" d="M119.812,83.902c0.001,1.719-0.001,3.439,0.001,5.16
			c0.002,0.611-0.025,1.141-0.881,1.145c-0.859,0.004-0.882-0.52-0.877-1.135c0.008-1.146-0.043-2.297,0.014-3.441
			c0.045-0.898-0.216-1.318-1.195-1.273c-1.383,0.064-2.771,0.049-4.156,0.006c-0.849-0.027-1.217,0.25-1.173,1.146
			c0.059,1.191,0.004,2.389,0.017,3.582c0.006,0.633-0.057,1.131-0.9,1.115c-0.738-0.016-0.858-0.432-0.857-1.023
			c0.004-3.537,0.008-7.072-0.004-10.609c-0.002-0.674,0.161-1.092,0.963-1.066c0.777,0.025,0.796,0.514,0.795,1.07
			c-0.002,1.002,0.03,2.008-0.008,3.01c-0.026,0.719,0.207,1.045,0.974,1.027c1.528-0.039,3.06-0.039,4.587-0.002
			c0.787,0.02,0.977-0.35,0.953-1.047c-0.033-1.004,0-2.008-0.007-3.012c-0.004-0.572,0.056-1.027,0.819-1.047
			c0.82-0.021,0.943,0.436,0.939,1.09C119.806,80.365,119.812,82.133,119.812,83.902z"/>
		<path fill-rule="evenodd" clip-rule="evenodd" d="M102.752,90.223c-2.506-0.008-4.491-0.822-5.507-3.047
			c-1.202-2.633-1.183-6.338,1.345-8.373c2.174-1.75,5.633-1.883,7.962,0.223c0.331,0.299,0.49,0.805,0.684,1.234
			c0.167,0.369,0.469,0.795-0.054,1.127c-0.51,0.324-0.998,0.264-1.409-0.195c-0.094-0.105-0.172-0.23-0.234-0.357
			c-0.838-1.73-2.421-1.736-3.94-1.527c-1.448,0.197-2.483,1.148-2.954,2.559c-0.652,1.951-0.559,3.752,0.901,5.432
			c1.399,1.609,4.967,1.762,6.298-0.6c0.302-0.535,0.594-0.953,1.278-0.953c0.835-0.002,0.983,0.225,0.688,1.02
			C107.015,88.9,104.817,90.504,102.752,90.223z"/>
		<g>
			<path d="M95.094,79.104c-0.199-0.347-0.51-0.608-0.975-0.825c-0.498-0.233-0.989-0.527-1.464-0.811
				c-0.37-0.221-0.738-0.441-1.116-0.64c-1.799-0.945-3.585-1.989-5.312-3c-1.488-0.87-3.026-1.77-4.572-2.605l-0.459-0.249
				c-0.947-0.51-1.926-1.037-2.835-1.631c-0.523-0.342-0.688-0.662-0.681-1.322c0.025-2.342,0.021-4.684,0.018-7.026l-0.008-12.657
				c0-0.193-0.008-0.609-0.229-0.944c2.639-0.883,4.55-3.354,4.556-6.263c0.005-2.157-0.71-4.063-2.013-5.37
				c-1.166-1.168-2.705-1.786-4.449-1.786l-0.123,0.001l-0.229-0.003c-3.809,0-6.426,2.829-6.512,7.038
				c-0.053,2.606,1.523,4.952,3.773,6.06c-0.121,0.052-0.234,0.115-0.323,0.206c-0.327,0.334-0.316,0.791-0.309,1.159
				c0.002,0.082,0.003,0.162,0.001,0.239c-0.021,0.512-0.017,1.025-0.013,1.538l0.004,4.613c0,4.515,0,9.029-0.005,13.545
				l0.002,0.174c0.007,0.537-0.011,0.734-0.402,0.958c-4.33,2.469-8.704,5.025-12.934,7.498l-2.054,1.2
				c-0.036,0.02-0.082,0.031-0.128,0.047c-0.212,0.07-0.533,0.179-0.671,0.512c-0.01,0.023-0.004,0.05-0.011,0.073
				c-1.176-1.339-2.875-2.138-4.901-2.155c-2.26,0-4.128,0.996-5.304,2.648c-0.003-0.08,0.007-0.164-0.018-0.24
				c-0.132-0.409-0.514-0.588-0.792-0.718c-0.062-0.028-0.124-0.058-0.179-0.089c-0.335-0.185-0.672-0.368-1.009-0.552
				c-0.893-0.484-1.815-0.985-2.673-1.526c-1.687-1.062-3.438-2.066-5.131-3.037l-0.627-0.359c-1.829-1.049-3.64-2.127-5.451-3.205
				l-1.51-0.898c-0.718-0.426-1.561-0.88-2.468-0.88c-0.651,0-1.279,0.235-1.868,0.698c-0.599,0.471-1.282,0.818-2.005,1.187
				c-0.383,0.194-0.767,0.391-1.138,0.604c-1.999,1.153-3.984,2.331-5.969,3.509c-1.674,0.993-3.348,1.986-5.03,2.965
				c-1.551,0.902-3.112,1.785-4.674,2.668c-1.318,0.745-2.635,1.49-3.943,2.244c-0.034,0.018-0.078,0.028-0.123,0.042
				c-0.207,0.064-0.52,0.16-0.68,0.474c-0.101,0.198-0.109,0.803-0.024,1.053c0.186,0.546,0.68,1.235,1.354,1.235h0.046
				c0.429,0,0.757-0.578,1.021-0.732l1.498-1.021c1.468-0.812,2.987-1.747,4.442-2.647c1.905-1.178,3.879-2.364,5.789-3.468
				c0.921-0.531,1.841-1.086,2.758-1.623c0.917-0.538,1.833-1.091,2.75-1.631c1.363-0.806,2.726-1.616,4.094-2.412
				c0.449-0.26,0.916-0.492,1.333-0.697l0.443-0.212c0.162,0,0.251,0.056,0.397,0.149c0.052,0.033,0.103,0.065,0.154,0.095
				l1.872,1.059c1.227,0.692,2.453,1.384,3.667,2.095c0.913,0.535,1.816,1.085,2.72,1.635c0.996,0.607,1.992,1.213,3,1.799
				c1.104,0.643,2.218,1.265,3.333,1.887c0.869,0.485,1.739,0.97,2.603,1.465c0.272,0.156,0.593,0.322,0.941,0.322
				c0.133,0,0.292-0.028,0.453-0.109c-0.438,0.965-0.689,2.077-0.702,3.303c-0.018,1.766,0.73,3.587,2.002,4.871
				c1.147,1.159,2.621,1.797,4.15,1.797c0.182,0,0.366-0.009,0.458-0.027c1.743,0.167,3.41-0.477,4.693-1.775
				c1.272-1.287,2.02-3.112,1.999-4.881c-0.016-1.345-0.319-2.557-0.85-3.585c0.294,0.065,0.618,0.016,0.936-0.175
				c0.211-0.125,0.437-0.229,0.661-0.332c0.29-0.133,0.59-0.271,0.874-0.456c1.485-0.964,3.061-1.846,4.585-2.698
				c0.841-0.47,1.682-0.939,2.514-1.426c0.741-0.434,1.485-0.861,2.229-1.289c1.572-0.902,3.196-1.835,4.764-2.811
				c1.45-0.903,2.336-0.934,3.489-0.191c1.796,1.154,3.676,2.232,5.493,3.275c0.661,0.379,1.321,0.758,1.979,1.141l1.444,0.836
				c1.336,0.77,2.718,1.565,4.043,2.396l0.463,0.292c1.169,0.738,2.377,1.503,3.709,2.034l0.094,0.039
				c0.152,0.066,0.342,0.148,0.562,0.148c0.187,0,0.456-0.06,0.681-0.346C95.37,80.171,95.39,79.615,95.094,79.104z M1.457,83.257
				L1.457,83.257v0.003V83.257z M54.628,83.736c-0.048,2.41-1.58,3.955-3.952,3.955l-0.001-0.006
				c-1.167-0.012-2.147-0.404-2.837-1.129c-0.71-0.746-1.059-1.804-1.009-3.086c-0.022-1.201,0.339-2.19,1.046-2.911
				c0.697-0.71,1.68-1.06,2.842-1.06h0.114C53.225,79.5,54.68,81.158,54.628,83.736z M75.335,36.5l0.028,0.352
				c1.164,0.007,2.239,0.376,2.947,1.13c0.693,0.736,1.025,1.719,0.959,2.947c0.041,1.193-0.299,2.186-0.983,2.902
				c-0.683,0.717-1.698,1.111-2.933,1.127c-1.15,0-2.121-0.369-2.809-1.06c-0.742-0.745-1.549-1.839-1.543-3.161
				c0.012-2.365,1.498-4.02,3.498-4.02V36.5H75.335z M75.15,47.744l0.182,0.002c0.047,0,0.093-0.005,0.139-0.006
				c-0.038,0.148-0.514,0.314-0.518,0.519C74.947,48.605,74.5,48.953,74.5,49.3v4.88c0,4.396,0.447,8.794,0.442,13.19
				c-0.001,0.472-0.303,0.64-0.795,0.64c-0.056,0,0-0.002-0.092-0.012c0.003-0.064,0.069-0.152,0.077-0.213
				c0.015-0.114,0.055-0.224,0.055-0.318c-0.018-3.257-0.003-6.514-0.002-9.771l0.009-4.265c0.001-1.594,0.007-3.187-0.005-4.78
				c-0.001-0.065,0.004-0.133,0.007-0.204c0.008-0.187,0.019-0.522-0.106-0.827C74.436,47.688,74.789,47.735,75.15,47.744z"/>
			<path d="M25.164,71.678c-0.382,0-0.75,0.187-1.059,0.367c-1.532,0.901-3.072,1.789-4.611,2.678
				c-1.122,0.646-2.243,1.294-3.361,1.945c-1.097,0.639-2.189,1.283-3.283,1.928c-1.629,0.961-3.259,1.921-4.9,2.862
				c-0.644,0.368-1.273,0.762-1.902,1.153c-1.075,0.672-2.187,1.365-3.342,1.91c-0.176,0.084-0.542,0.256-0.654,0.637
				c-0.109,0.372,0.098,0.702,0.166,0.811c0.025,0.041,0.042,0.088,0.061,0.134c0.097,0.237,0.298,0.731,0.982,0.731l0.246-0.017
				l0.209-0.132c0.064-0.045,0.144-0.101,0.205-0.121c0.599-0.203,1.101-0.534,1.586-0.854c0.319-0.209,0.62-0.408,0.939-0.566
				c2.429-1.199,4.73-2.586,6.956-3.928c1.872-1.127,3.805-2.227,5.675-3.289c2.054-1.167,4.177-2.374,6.232-3.627l0.178-0.104
				c0.417-0.24,1.285-0.736,0.747-1.787C25.923,71.805,25.48,71.678,25.164,71.678z"/>
		</g>
		<path fill-rule="evenodd" clip-rule="evenodd" d="M124.659,93.727c-1.192,0.076-2.009-0.629-2.763-1.459
			c-0.202-0.221-0.389-0.48-0.228-0.764c0.195-0.344,0.57-0.301,0.896-0.219c0.389,0.098,0.6,0.453,0.893,0.691
			c0.712,0.582,1.968,0.58,2.616,0.047c0.493-0.406,0.757-0.916,0.54-1.504c-0.198-0.533-0.613-0.961-1.224-1.076
			c-0.278-0.053-0.571-0.025-0.856-0.041c-0.401-0.02-0.605-0.229-0.607-0.637c-0.002-0.396,0.174-0.664,0.582-0.65
			c0.632,0.023,1.104-0.217,1.46-0.727c0.335-0.479,0.308-0.832-0.244-1.168c-0.782-0.475-1.635-0.455-2.343,0.156
			c-0.144,0.123-0.26,0.279-0.406,0.4c-0.412,0.342-0.919,0.471-1.273,0.045c-0.307-0.367,0.112-0.684,0.361-0.967
			c1.234-1.4,2.856-1.738,4.334-0.9c1.215,0.691,1.554,1.936,0.763,3.105c-0.268,0.395-0.344,0.664,0.015,0.971
			c1.051,0.898,1.045,1.939,0.447,3.074C127.032,93.225,126.085,93.752,124.659,93.727z"/>
	</g>
</g>
</svg>
