<?xml version="1.0" encoding="utf-8"?>
<!-- Generator: Adobe Illustrator 16.0.4, SVG Export Plug-In . SVG Version: 6.00 Build 0)  -->
<!DOCTYPE svg PUBLIC "-//W3C//DTD SVG 1.1//EN" "http://www.w3.org/Graphics/SVG/1.1/DTD/svg11.dtd">
<svg version="1.1" id="Layer_3906" xmlns="http://www.w3.org/2000/svg" xmlns:xlink="http://www.w3.org/1999/xlink" x="0px" y="0px"
	 width="128px" height="128px" viewBox="0 0 128 128" enable-background="new 0 0 128 128" xml:space="preserve">
<g id="_x30_6fOKQ.tif">
	<g>
		<g>
			<path d="M111.433,4.033c-0.424-0.501-1.068-0.652-1.667-0.385c-0.262,0.117-0.487,0.269-0.705,0.416
				c-0.123,0.083-0.249,0.168-0.377,0.241l-5.407,3.097c-4.179,2.391-8.355,4.783-12.529,7.184
				c-0.253,0.146-0.491,0.335-0.722,0.519c-0.438,0.347-0.85,0.7-1.208,0.539c-0.48-0.215-0.479-0.641-0.358-1.561
				c0.032-0.254,0.063-0.501,0.069-0.729c0.099-4.15-1.276-7.899-2.808-11.396c-0.215-0.497-0.576-1.328-1.396-1.328
				c-0.157,0-0.319,0.034-0.481,0.101c-0.328,0.136-0.549,0.344-0.659,0.623c-0.192,0.486,0.034,0.985,0.215,1.386l0.092,0.209
				c0.995,2.413,1.697,4.659,2.146,6.866c0.557,2.725,0.564,5.193,0.021,7.335c-0.232,0.921-1.116,1.281-2.139,1.697
				c-0.722,0.294-1.469,0.598-2.052,1.139c-0.082,0.077-0.204,0.146-0.333,0.219c-0.137,0.078-0.271,0.156-0.394,0.25
				c-3.652,2.793-6.467,2.84-9.324,0.209c-0.483-0.445-1.078-0.728-1.651-1.002c-0.275-0.131-0.55-0.262-0.808-0.412l-5.951-3.424
				C56.496,12.08,49.762,8.207,43.165,4.354c-1.979-1.155-3.66-1.072-5.571,0.282c-1.157,0.819-2.442,1.522-3.686,2.202
				c-0.597,0.327-1.195,0.654-1.782,0.994l-0.114,0.067c-0.279,0.165-0.564,0.375-0.752,0.243c-0.101-0.07-0.123-0.151,0.076-0.679
				l0.654-1.785c0.357-0.974,0.715-1.948,1.059-2.925c0.051-0.146,0.141-0.305,0.231-0.467c0.25-0.457,0.534-0.975,0.354-1.498
				c-0.104-0.299-0.337-0.527-0.694-0.679C32.77,0.037,32.6,0,32.436,0c-0.841,0-1.235,0.869-1.522,1.502
				c-0.059,0.132-0.117,0.258-0.174,0.37c-1.109,2.125-1.735,4.385-2.157,6.119c-0.316,1.298-0.736,2.229-1.849,2.855
				c-2.673,1.5-5.363,3.07-7.964,4.588c-1.207,0.704-2.413,1.408-3.621,2.107c-0.94,0.544-1.883,1.085-2.825,1.625
				c-1.871,1.075-3.743,2.149-5.599,3.249c-0.691,0.41-2.129,1.26-1.5,2.451c0.291,0.549,0.71,0.664,1.01,0.664
				c0.419,0,0.823-0.228,1.179-0.43c0.167-0.094,0.331-0.189,0.483-0.245c0.218-0.079,0.428-0.187,0.628-0.305l5.646-3.311
				c3.885-2.279,7.77-4.558,11.663-6.825c0.684-0.398,1.431-0.806,1.776-0.806c0.295,0,0.309,1.542,0.313,2.048
				c0.04,4.35,1.031,8.137,3.031,11.579l0.123,0.217c0.298,0.539,0.707,1.276,1.447,1.276c0.194,0,0.39-0.053,0.582-0.16
				c1.03-0.571,0.463-1.628,0.191-2.135c-0.066-0.125-0.132-0.245-0.181-0.358c-2.073-4.782-2.875-8.619-2.598-12.455
				c0.088-1.237,0.177-1.908,1.097-2.413c2.272-1.248,4.534-2.593,6.722-3.895L39.25,6.77c1.029-0.61,1.708-0.589,2.826,0.064
				c8.774,5.111,17.745,10.218,26.421,15.158l3.912,2.228c1.386,0.79,1.946,1.812,1.937,3.529
				c-0.074,11.282-0.075,22.983-0.002,34.773c0.009,1.692-0.51,2.585-1.984,3.417c-6.896,3.879-13.847,7.922-20.57,11.83
				l-2.351,1.369c-0.116,0.067-0.25,0.132-0.39,0.199c-0.525,0.254-1.181,0.573-1.365,1.204c-0.107,0.367-0.031,0.766,0.226,1.183
				c0.302,0.493,0.704,0.596,0.987,0.596c0.433-0.001,0.847-0.24,1.213-0.452c0.176-0.103,0.347-0.206,0.51-0.266
				c0.219-0.079,0.429-0.188,0.629-0.307l4.981-2.928c4.981-2.927,10.132-5.953,15.175-8.971c1.342-0.805,2.281-0.797,3.682,0.022
				c5.72,3.353,11.572,6.694,17.233,9.926l5.699,3.257c0.174,0.099,0.362,0.235,0.558,0.374c0.541,0.386,1.1,0.785,1.678,0.785
				c0.294,0,0.706-0.104,1.011-0.602c0.284-0.466,0.362-0.9,0.233-1.294c-0.223-0.683-0.965-0.989-1.619-1.26
				c-0.225-0.091-0.439-0.178-0.608-0.277c-7.792-4.589-14.833-8.722-22.095-12.81c-0.96-0.54-0.881-0.742-0.495-1.707l0.091-0.232
				c0.182-0.466,0.338-0.588,0.396-0.588c0.134,0,0.395,0.188,0.585,0.325c0.157,0.112,0.31,0.22,0.456,0.296
				c1.253,0.666,2.501,1.403,3.709,2.114c0.514,0.304,1.027,0.606,1.542,0.905l3.979,2.308c4.384,2.546,8.916,5.177,13.398,7.725
				c0.107,0.062,0.226,0.139,0.349,0.222c0.453,0.298,0.968,0.637,1.517,0.637c0.347,0,0.828-0.139,1.157-0.796
				c0.183-0.359,0.217-0.707,0.107-1.033c-0.211-0.622-0.869-0.943-1.45-1.229c-0.156-0.076-0.308-0.149-0.438-0.225l-4.7-2.737
				c-6.035-3.519-12.277-7.156-18.478-10.633c-1.548-0.868-2.06-1.716-2.028-3.361c0.069-3.795,0.354-7.652,0.34-11.382
				c-0.006-1.494,0.287-2.99,0.287-4.485v-4.03c0-3.842-0.293-7.683-0.303-11.594c-0.004-1.274-0.154-2.375,0.933-3.004
				c1.365-0.793,2.675-1.558,4.059-2.321c0.743-0.412,1.45-0.822,2.19-1.237l0.096-0.066c0.211-0.12,0.441-0.257,0.592-0.257
				c0.035,0,0.062,0.008,0.107,0.046c0.116,0.097,0.088,0.252-0.158,0.817c-0.724,1.676-1.444,3.354-2.151,5.038l-0.077,0.176
				c-0.178,0.398-0.4,0.894-0.21,1.383c0.111,0.284,0.34,0.503,0.679,0.649c0.176,0.075,0.354,0.113,0.528,0.113
				c0.824-0.001,1.307-0.818,1.513-1.167c1.248-2.116,2.074-4.373,2.455-6.708c0.254-1.558,0.866-2.458,2.186-3.21
				c4.637-2.644,9.174-5.296,14.199-8.241c2.113-1.237,4.238-2.536,6.292-3.791l0.489-0.299c0.32-0.196,0.762-0.466,0.841-0.96
				C111.809,4.667,111.699,4.349,111.433,4.033z"/>
			<path d="M42.088,124.281c0.039-3.463,0.034-6.927,0.029-10.39l-0.004-3.295l0.003-3.461c0.004-3.51,0.008-7.019-0.029-10.527
				c-0.001-0.108,0.007-0.232,0.016-0.362c0.034-0.526,0.075-0.555-0.339-0.996c-0.233-0.248-0.563,0.25-1.042,0.25
				c-0.002,0-0.004,0-0.005,0c-0.412,0-0.665-0.434-0.805-0.285c-0.402,0.43-0.381,0.783-0.364,1.321l0.006,0.118
				c-0.021,9.581-0.02,18.913,0.003,27.891l-0.006,0.231c-0.018,0.531-0.039,1.583,0.37,2.004c0.146,0.151,0.41,0.72,0.838,0.72
				h0.011c0.429,0,0.768-0.544,1.004-0.801c0.414-0.447,0.368-1.309,0.332-1.835C42.096,124.729,42.087,124.396,42.088,124.281z
				 M40.758,126.184L40.758,126.184v0.002V126.184z"/>
		</g>
		<path fill-rule="evenodd" clip-rule="evenodd" d="M46.455,85.844"/>
		<path fill-rule="evenodd" clip-rule="evenodd" d="M118.467,6.529c0.755-0.986-1.222-3.143,0.738-3.142
			c1.959,0-0.017,2.156,0.735,3.143c0.122,0.132,0.235,0.269,0.342,0.412l0.004,0.065c-0.108,0.144-0.223,0.281-0.345,0.412
			c-0.754,0.986,1.224,3.144-0.737,3.143c-1.959,0,0.018-2.156-0.736-3.144c-0.121-0.132-0.234-0.27-0.341-0.412l-0.002-0.065
			C118.231,6.797,118.346,6.66,118.467,6.529z"/>
		<path fill-rule="evenodd" clip-rule="evenodd" d="M118.125,6.941c-0.396-0.075-0.828-0.075-1.182-0.241
			c-0.642-0.307-1.421-0.772-0.736-1.56c0.514-0.59,1.092,0.055,1.519,0.444c0.293,0.265,0.498,0.627,0.741,0.945
			C118.346,6.66,118.231,6.797,118.125,6.941z"/>
		<path fill-rule="evenodd" clip-rule="evenodd" d="M119.94,6.53c0.049-0.088,0.085-0.189,0.151-0.262
			c0.525-0.579,0.915-1.389,1.888-1.274c0.321,0.037,0.528,0.316,0.444,0.659c-0.276,1.137-1.254,1.145-2.142,1.29
			C120.176,6.798,120.062,6.662,119.94,6.53z"/>
		<path fill-rule="evenodd" clip-rule="evenodd" d="M118.468,7.418c-0.048,0.087-0.083,0.189-0.15,0.262
			c-0.526,0.579-0.916,1.389-1.888,1.275c-0.32-0.038-0.526-0.318-0.444-0.659c0.276-1.139,1.254-1.146,2.142-1.291
			C118.233,7.148,118.347,7.286,118.468,7.418z"/>
		<path fill-rule="evenodd" clip-rule="evenodd" d="M120.286,7.007c0.396,0.075,0.827,0.075,1.178,0.242
			c0.645,0.306,1.423,0.772,0.739,1.56c-0.515,0.589-1.092-0.055-1.52-0.444c-0.291-0.266-0.498-0.626-0.742-0.945
			C120.063,7.288,120.178,7.15,120.286,7.007z"/>
	</g>
	<path d="M111.925,79.493c-2.426-0.588-4.545,0.098-6.009,1.939c-0.906,1.138-1.319,2.567-1.267,4.371
		c0.099,3.395,2.508,5.859,5.73,5.859l0.251-0.006c2.446-0.098,4.379-1.49,5.17-3.725c0.3-0.852,0.427-1.667,0.387-2.398
		c0.032-0.472-0.011-0.981-0.133-1.555C115.549,81.575,114.121,80.025,111.925,79.493z M108.098,87.302
		c-0.509-1.275-0.486-2.541,0.066-3.767c0.4-0.885,1.133-1.316,2.237-1.316l0.183,0.004c1.039,0.043,1.723,0.514,2.154,1.477
		c0.242,0.547,0.347,1.132,0.309,1.822c0.024,0.627-0.062,1.179-0.269,1.689c-0.393,0.974-1.208,1.521-2.357,1.541
		C109.314,88.752,108.467,88.223,108.098,87.302z"/>
	<path d="M42.152,79.493c-2.425-0.588-4.545,0.098-6.009,1.939c-0.904,1.138-1.318,2.567-1.266,4.371
		c0.098,3.395,2.508,5.859,5.73,5.859l0.252-0.006c2.446-0.098,4.378-1.49,5.169-3.725c0.3-0.852,0.427-1.667,0.386-2.398
		c0.033-0.472-0.01-0.981-0.133-1.555C45.776,81.575,44.348,80.025,42.152,79.493z M38.325,87.302
		c-0.51-1.275-0.486-2.541,0.067-3.767c0.4-0.885,1.132-1.316,2.237-1.316l0.182,0.004c1.039,0.043,1.723,0.514,2.153,1.477
		c0.244,0.547,0.347,1.132,0.309,1.822c0.025,0.627-0.062,1.179-0.267,1.689c-0.393,0.974-1.209,1.521-2.358,1.541
		C39.541,88.752,38.694,88.223,38.325,87.302z"/>
</g>
</svg>
