<?xml version="1.0" encoding="utf-8"?>
<!-- Generator: Adobe Illustrator 16.0.4, SVG Export Plug-In . SVG Version: 6.00 Build 0)  -->
<!DOCTYPE svg PUBLIC "-//W3C//DTD SVG 1.1//EN" "http://www.w3.org/Graphics/SVG/1.1/DTD/svg11.dtd">
<svg version="1.1" id="Layer_3907" xmlns="http://www.w3.org/2000/svg" xmlns:xlink="http://www.w3.org/1999/xlink" x="0px" y="0px"
	 width="128px" height="128px" viewBox="0 0 128 128" enable-background="new 0 0 128 128" xml:space="preserve">
<g id="dat80l.tif">
	<g>
		<path fill-rule="evenodd" clip-rule="evenodd" d="M4.425,58.451c-0.001-3.907-0.002-7.813,0-11.72
			c0.001-1.204,0.006-1.205,1.244-1.207c1.39-0.002,2.78-0.016,4.169,0.008c0.359,0.006,0.915-0.212,0.943,0.458
			c0.031,0.698-0.538,0.489-0.897,0.498c-1.164,0.025-2.329,0.002-3.493,0.011c-0.972,0.007-0.984,0.016-0.986,0.998
			c-0.007,3.982-0.006,7.964-0.006,11.945c-0.001,3.606-0.002,7.212,0,10.819c0.001,1.192,0.005,1.192,1.239,1.196
			c0.638,0.002,1.277,0.002,1.916,0.002c0.357,0.001,0.688,0.014,0.663,0.523c-0.022,0.443-0.326,0.439-0.63,0.441
			c-0.826,0.008-1.653,0.027-2.479,0c-0.537-0.02-0.721,0.188-0.715,0.72c0.021,2.065,0.022,4.132,0.001,6.198
			c-0.006,0.564,0.246,0.697,0.75,0.689c1.314-0.021,2.629-0.012,3.944-0.001c0.281,0.002,0.679-0.073,0.68,0.37
			c0.001,0.451-0.401,0.364-0.679,0.365c-1.615,0.012-3.231-0.013-4.846,0.021c-0.643,0.013-0.836-0.233-0.828-0.854
			c0.027-2.103,0.013-4.206,0.01-6.311c-0.002-1.188-0.006-1.189-1.242-1.193c-0.751-0.002-1.502-0.007-2.253-0.004
			c-0.362,0.002-0.563-0.129-0.544-0.529c0.017-0.354,0.233-0.431,0.523-0.432C1.772,71.461,2.64,71.412,3.5,71.47
			c0.756,0.05,0.946-0.239,0.94-0.961C4.41,66.489,4.426,62.47,4.425,58.451z"/>
		<path fill-rule="evenodd" clip-rule="evenodd" d="M121.984,58.685c0,3.983-0.002,7.968,0.002,11.95
			c0.002,1.033,0.012,1.037,1.051,1.047c0.714,0.006,1.429-0.006,2.143,0.007c0.246,0.004,0.574-0.052,0.597,0.332
			c0.027,0.478-0.358,0.397-0.637,0.403c-0.677,0.016-1.353,0.002-2.029,0.008c-1.115,0.007-1.121,0.009-1.124,1.085
			c-0.005,2.104-0.029,4.21,0.013,6.313c0.015,0.738-0.222,0.979-0.958,0.957c-1.578-0.048-3.156-0.01-4.735-0.021
			c-0.274-0.002-0.679,0.09-0.66-0.381c0.019-0.453,0.417-0.35,0.689-0.352c1.315-0.015,2.631-0.023,3.946-0.002
			c0.514,0.01,0.743-0.143,0.738-0.697c-0.023-2.066-0.021-4.135,0-6.2c0.005-0.543-0.199-0.728-0.726-0.71
			c-0.863,0.027-1.729,0.017-2.593-0.003c-0.267-0.007-0.681,0.127-0.697-0.331c-0.021-0.548,0.446-0.39,0.743-0.398
			c0.714-0.023,1.429-0.006,2.143-0.01c1.112-0.006,1.12-0.008,1.121-1.088c0.004-3.119,0.001-6.238,0.001-9.357
			c0-4.547,0.002-9.094-0.001-13.641c-0.001-1.09-0.009-1.093-1.11-1.098c-1.166-0.005-2.33,0.005-3.496-0.007
			c-0.35-0.004-0.805,0.11-0.785-0.507c0.017-0.529,0.407-0.452,0.728-0.454c1.616-0.008,3.232,0.022,4.847-0.017
			c0.687-0.017,0.806,0.298,0.799,0.884c-0.021,1.991-0.008,3.983-0.008,5.975C121.984,54.476,121.984,56.581,121.984,58.685z"/>
		<path fill-rule="evenodd" clip-rule="evenodd" d="M15.999,71.908c0.008,1.921-1.029,3.051-2.809,3.059
			c-1.722,0.007-2.888-1.221-2.887-3.04c0.001-1.798,1.204-3.11,2.856-3.116C14.825,68.805,15.99,70.076,15.999,71.908z
			 M15.035,71.961c0.004-1.367-0.682-2.218-1.81-2.244c-1.168-0.028-1.965,0.886-1.957,2.246c0.007,1.258,0.825,2.199,1.912,2.202
			C14.314,74.167,15.032,73.314,15.035,71.961z"/>
		<path fill-rule="evenodd" clip-rule="evenodd" d="M74.854,71.976c-0.003,1.876-1.121,3.106-2.813,3.099
			c-1.643-0.008-2.885-1.352-2.877-3.11c0.008-1.838,1.145-3.036,2.881-3.041C73.812,68.919,74.857,70.056,74.854,71.976z
			 M73.893,72.016c0.008-1.422-0.729-2.314-1.889-2.287c-1.086,0.025-1.854,0.947-1.873,2.243c-0.019,1.274,0.761,2.181,1.892,2.198
			C73.191,74.191,73.884,73.392,73.893,72.016z"/>
		<path fill-rule="evenodd" clip-rule="evenodd" d="M74.691,54.16c0.002,1.893-1.079,3.091-2.804,3.105
			c-1.657,0.014-2.909-1.315-2.899-3.076c0.011-1.826,1.173-3.08,2.865-3.09C73.587,51.089,74.688,52.276,74.691,54.16z
			 M73.705,54.351c0.011-1.315-0.351-1.93-1.207-2.293c-0.773-0.328-1.41-0.043-1.949,0.451c-0.753,0.69-0.722,2.552,0,3.313
			c0.52,0.547,1.367,0.738,2.056,0.429C73.475,55.859,73.741,55.123,73.705,54.351z"/>
		<path fill-rule="evenodd" clip-rule="evenodd" d="M16.889,54.167c0,1.845-1.138,3.087-2.842,3.103
			c-1.661,0.015-2.859-1.282-2.855-3.089c0.003-1.876,1.101-3.069,2.836-3.081C15.726,51.087,16.889,52.334,16.889,54.167z
			 M15.925,54.139c-0.013-1.275-0.831-2.233-1.896-2.22c-1.137,0.014-1.894,0.963-1.87,2.346c0.023,1.327,0.771,2.142,1.94,2.114
			C15.225,56.354,15.938,55.477,15.925,54.139z"/>
		<path fill-rule="evenodd" clip-rule="evenodd" d="M107.761,72.031c0-0.789-0.003-1.577,0.001-2.365
			c0.002-0.363,0.058-0.699,0.541-0.665c0.461,0.032,0.354,0.404,0.373,0.682c0.123,1.753,0.121,1.753,1.867,1.717
			c0.991-0.021,0.992-0.021,1.01-0.997c0.006-0.3,0.002-0.602,0.01-0.9c0.007-0.298,0.115-0.502,0.46-0.505
			c0.344-0.003,0.464,0.195,0.469,0.495c0.009,0.525,0.009,1.051,0.008,1.577c-0.001,1.089-0.002,2.179-0.007,3.268
			c-0.002,0.278-0.051,0.528-0.411,0.548c-0.403,0.022-0.522-0.209-0.523-0.56c-0.003-0.525-0.015-1.051-0.011-1.577
			c0.003-0.375-0.164-0.555-0.543-0.538c-0.15,0.007-0.301-0.001-0.451-0.003c-1.811-0.027-1.811-0.027-1.871,1.812
			c-0.002,0.075,0.002,0.15-0.002,0.226c-0.021,0.293,0.031,0.631-0.424,0.64c-0.422,0.008-0.487-0.275-0.489-0.599
			c-0.005-0.752-0.002-1.503-0.002-2.254C107.764,72.031,107.762,72.031,107.761,72.031z"/>
		<path fill-rule="evenodd" clip-rule="evenodd" d="M101.674,71.893c0.002-2.005,1.378-3.211,3.357-2.949
			c0.631,0.083,1.143,0.365,1.479,0.902c0.162,0.258,0.532,0.567,0.161,0.869c-0.35,0.284-0.689,0.139-0.907-0.274
			c-0.085-0.16-0.214-0.312-0.358-0.422c-0.452-0.343-0.967-0.388-1.492-0.216c-0.776,0.252-1.234,1.023-1.254,2.065
			c-0.02,1.122,0.418,1.925,1.207,2.211c0.733,0.266,1.402,0.056,1.877-0.595c0.064-0.09,0.121-0.19,0.161-0.295
			c0.163-0.42,0.489-0.474,0.81-0.269c0.328,0.211,0.16,0.54,0.023,0.802c-0.287,0.549-0.702,0.959-1.308,1.163
			C103.4,75.566,101.671,74.193,101.674,71.893z"/>
		<path fill-rule="evenodd" clip-rule="evenodd" d="M85.798,68.92c0.944-0.024,1.691,0.234,2.176,1.021
			c0.157,0.256,0.353,0.557,0.025,0.794c-0.272,0.198-0.584,0.149-0.771-0.17c-0.47-0.808-1.156-1.056-2.007-0.722
			c-0.897,0.354-1.12,1.129-1.134,2.011c-0.01,0.535,0.035,1.053,0.312,1.521c0.577,0.978,1.963,1.086,2.671,0.208
			c0.116-0.145,0.2-0.317,0.281-0.486c0.179-0.372,0.488-0.333,0.763-0.197c0.326,0.162,0.17,0.438,0.072,0.684
			c-0.617,1.543-2.906,1.98-4.19,0.798c-1.19-1.097-1.194-3.741,0.001-4.815C84.524,69.093,85.154,68.887,85.798,68.92z"/>
		<path fill-rule="evenodd" clip-rule="evenodd" d="M64.842,65.91c-1.17,0.986-2.549,1.102-3.588,0.3
			c-1.1-0.849-1.455-2.83-0.754-4.22c0.578-1.146,1.903-1.696,3.263-1.338c0.653,0.172,1.119,0.584,1.404,1.194
			c0.096,0.206,0.189,0.443-0.082,0.583c-0.203,0.104-0.447,0.133-0.634-0.037c-0.135-0.123-0.21-0.31-0.335-0.446
			c-0.806-0.882-2.206-0.706-2.718,0.367c-0.408,0.855-0.402,1.754,0,2.608c0.538,1.143,2.129,1.235,2.854,0.189
			c0.063-0.091,0.12-0.193,0.153-0.298c0.128-0.405,0.438-0.384,0.725-0.269c0.317,0.13,0.255,0.41,0.151,0.67
			c-0.055,0.139-0.108,0.278-0.162,0.418l0.014-0.016c-0.069,0.07-0.138,0.141-0.206,0.209C64.897,65.854,64.87,65.883,64.842,65.91
			z"/>
		<path fill-rule="evenodd" clip-rule="evenodd" d="M20.385,63.739c0.012-2.286,1.427-3.496,3.434-3.109
			c0.714,0.138,1.232,0.525,1.539,1.185c0.099,0.212,0.164,0.445-0.079,0.597c-0.199,0.125-0.433,0.133-0.633-0.015
			c-0.084-0.062-0.124-0.182-0.199-0.263c-0.747-0.81-1.401-0.97-2.162-0.533c-0.828,0.477-1.183,1.72-0.837,2.937
			c0.241,0.848,0.886,1.31,1.747,1.289c0.636-0.017,1.071-0.317,1.322-0.878c0.188-0.419,0.485-0.625,0.881-0.377
			c0.417,0.262,0.093,0.616-0.049,0.885c-0.468,0.888-1.277,1.279-2.23,1.263c-0.928-0.016-1.777-0.304-2.275-1.202
			C20.505,64.909,20.371,64.258,20.385,63.739z"/>
		<path fill-rule="evenodd" clip-rule="evenodd" d="M89.221,71.935c0-0.79-0.004-1.578,0.003-2.366
			c0.001-0.268,0.015-0.542,0.386-0.568c0.412-0.028,0.508,0.229,0.521,0.564c0.004,0.076-0.003,0.152,0.009,0.226
			c0.082,0.501-0.267,1.204,0.235,1.468c0.658,0.346,1.469,0.136,2.214,0.104c0.327-0.015,0.387-0.308,0.393-0.586
			c0.007-0.414,0.011-0.826,0.015-1.24c0.003-0.271,0.003-0.539,0.389-0.549c0.336-0.006,0.473,0.162,0.471,0.481
			c-0.005,1.651-0.006,3.304-0.014,4.956c-0.001,0.239-0.074,0.439-0.371,0.457c-0.353,0.021-0.453-0.188-0.465-0.485
			c-0.006-0.149,0.002-0.302-0.014-0.45c-0.058-0.551,0.253-1.325-0.211-1.604c-0.626-0.373-1.465-0.123-2.212-0.12
			c-0.429,0.001-0.417,0.352-0.425,0.653c-0.014,0.524-0.006,1.051-0.031,1.575c-0.016,0.314-0.213,0.462-0.53,0.436
			c-0.295-0.024-0.356-0.235-0.357-0.474c-0.005-0.826-0.002-1.652-0.002-2.478C89.223,71.935,89.222,71.935,89.221,71.935z"/>
		<path fill-rule="evenodd" clip-rule="evenodd" d="M127.821,79.338c-0.176,0.812-0.368,1.727-0.572,2.639
			c-0.069,0.311-0.201,0.604-0.599,0.499c-0.439-0.116-0.275-0.474-0.225-0.745c0.122-0.661,0.29-1.314,0.413-1.975
			c0.062-0.328,0.122-0.678-0.275-0.881c-0.376-0.191-0.66,0.028-0.919,0.225c-0.441,0.336-0.597,0.85-0.717,1.363
			c-0.128,0.546-0.21,1.103-0.348,1.646c-0.071,0.284-0.289,0.444-0.6,0.353c-0.28-0.081-0.291-0.334-0.247-0.551
			c0.224-1.137,0.463-2.271,0.706-3.403c0.062-0.29,0.333-0.569,0.546-0.402c0.508,0.397,0.892,0.024,1.329-0.062
			C127.184,77.867,127.837,78.392,127.821,79.338z"/>
		<path fill-rule="evenodd" clip-rule="evenodd" d="M96.023,76.705c-0.369-0.117-1.095,0.316-1.309-0.251
			c-0.213-0.563,0.428-0.966,0.824-1.353c0.322-0.312,0.705-0.576,0.979-0.926c0.29-0.371,0.429-0.863-0.04-1.191
			c-0.4-0.279-0.796-0.1-1.038,0.32c-0.141,0.246-0.277,0.489-0.596,0.281c-0.319-0.21-0.119-0.465,0.007-0.685
			c0.396-0.689,1.336-0.913,2.072-0.501c0.663,0.371,0.833,1.1,0.431,1.849c-0.274,0.511-0.747,0.834-1.153,1.221
			c-0.102,0.097-0.239,0.246-0.226,0.354c0.031,0.259,0.286,0.166,0.452,0.186c0.26,0.03,0.525,0.016,0.785,0.047
			c0.198,0.021,0.36,0.129,0.343,0.36c-0.018,0.244-0.221,0.278-0.406,0.284C96.812,76.715,96.475,76.705,96.023,76.705z"/>
		<path fill-rule="evenodd" clip-rule="evenodd" d="M114.619,76.717c-0.037,0-0.076,0.004-0.112-0.001
			c-0.423-0.06-1.069,0.213-1.218-0.202c-0.18-0.499,0.342-0.929,0.719-1.293c0.35-0.337,0.73-0.645,1.056-1.003
			c0.323-0.354,0.53-0.825,0.089-1.185c-0.404-0.33-0.839-0.22-1.1,0.297c-0.125,0.25-0.311,0.484-0.598,0.219
			c-0.231-0.217-0.098-0.489,0.038-0.718c0.362-0.607,1.324-0.819,2.002-0.449c0.651,0.356,0.859,1.129,0.481,1.846
			c-0.287,0.544-0.791,0.89-1.235,1.288c-0.108,0.097-0.27,0.183-0.214,0.355c0.057,0.174,0.238,0.131,0.377,0.141
			c0.334,0.023,0.67,0.025,1.003,0.064c0.173,0.021,0.227,0.189,0.227,0.34c0.001,0.17-0.11,0.274-0.281,0.277
			c-0.411,0.008-0.822,0.003-1.233,0.003C114.619,76.703,114.619,76.709,114.619,76.717z"/>
		<path fill-rule="evenodd" clip-rule="evenodd" d="M78.84,72.423c-0.787,0-1.574-0.003-2.362,0.001
			c-0.354,0.002-0.568-0.111-0.551-0.519c0.016-0.353,0.221-0.439,0.514-0.439c1.612-0.002,3.224,0,4.837-0.004
			c0.354-0.001,0.57,0.112,0.553,0.519c-0.019,0.438-0.323,0.441-0.628,0.443c-0.787,0.006-1.575,0.002-2.362,0.002
			C78.84,72.426,78.84,72.424,78.84,72.423z"/>
		<path fill-rule="evenodd" clip-rule="evenodd" d="M16.372,70.037c-0.333-0.168-0.49-0.374-0.181-0.691
			c0.394-0.402,0.79-0.803,1.188-1.201c0.717-0.718,1.428-1.441,2.159-2.145c0.192-0.186,0.387-0.551,0.738-0.232
			c0.358,0.324,0.021,0.531-0.174,0.729c-1.055,1.07-2.117,2.133-3.181,3.193C16.767,69.845,16.62,70.029,16.372,70.037z"/>
		<path fill-rule="evenodd" clip-rule="evenodd" d="M16.238,56.986c0.229,0.01,0.363,0.14,0.495,0.272
			c1.109,1.107,2.217,2.216,3.325,3.325c0.189,0.188,0.401,0.39,0.157,0.662c-0.313,0.349-0.539,0.042-0.739-0.155
			c-1.088-1.077-2.167-2.162-3.243-3.25c-0.176-0.178-0.425-0.358-0.232-0.663C16.056,57.09,16.168,57.04,16.238,56.986z"/>
		<path fill-rule="evenodd" clip-rule="evenodd" d="M64.699,60.425c-0.166-0.011-0.271-0.115-0.356-0.241
			c-0.139-0.205-0.006-0.356,0.124-0.489c0.498-0.511,1-1.017,1.504-1.521c0.609-0.611,1.216-1.226,1.837-1.826
			c0.198-0.192,0.39-0.534,0.741-0.227c0.355,0.308,0.073,0.528-0.135,0.737c-1.084,1.092-2.172,2.181-3.262,3.268
			C65.023,60.253,64.91,60.417,64.699,60.425z"/>
		<path fill-rule="evenodd" clip-rule="evenodd" d="M69.356,56.999c0.346,0.168,0.406,0.416,0.138,0.703
			c-0.359,0.382-0.738,0.745-1.109,1.115c-0.795,0.794-1.59,1.588-2.389,2.379c-0.176,0.174-0.38,0.258-0.587,0.059
			c-0.213-0.204-0.121-0.407,0.053-0.582c1.162-1.168,2.327-2.334,3.49-3.501C69.061,57.062,69.186,56.994,69.356,56.999z"/>
		<path fill-rule="evenodd" clip-rule="evenodd" d="M65.118,65.633c0.296-0.067,0.491,0.09,0.686,0.285
			c1.084,1.089,2.178,2.169,3.258,3.263c0.19,0.192,0.546,0.399,0.202,0.731c-0.342,0.33-0.545-0.032-0.731-0.224
			c-1.231-1.258-2.562-2.419-3.69-3.778c0.028-0.027,0.056-0.056,0.084-0.084c0.068-0.068,0.137-0.139,0.206-0.209L65.118,65.633z"
			/>
		<path fill-rule="evenodd" clip-rule="evenodd" d="M17.331,56.034c0.079,0.062,0.206,0.142,0.309,0.245
			c1.119,1.113,2.237,2.227,3.345,3.351c0.17,0.171,0.448,0.358,0.172,0.656c-0.267,0.288-0.466,0.078-0.657-0.111
			c-1.145-1.141-2.289-2.281-3.429-3.426c-0.13-0.131-0.265-0.282-0.146-0.491C17.001,56.125,17.103,56.021,17.331,56.034z"/>
		<path fill-rule="evenodd" clip-rule="evenodd" d="M99.201,71.66c0.406,0,0.814-0.013,1.22,0.006
			c0.146,0.006,0.278,0.092,0.294,0.273c0.02,0.222-0.095,0.362-0.298,0.389c-0.774,0.1-1.552,0.059-2.328,0.019
			c-0.222-0.011-0.321-0.174-0.331-0.374c-0.015-0.309,0.203-0.35,0.443-0.35c0.333-0.001,0.667,0,1,0
			C99.201,71.635,99.201,71.647,99.201,71.66z"/>
		<g>
			<path d="M42.438,55.93c-4.533-0.035-8.105,3.55-8.248,8.07c-0.115,3.661,2.678,8.263,8.127,8.321
				c4.863,0.051,8.228-3.795,8.268-8.196C50.628,59.65,46.933,55.963,42.438,55.93z"/>
			<path d="M58.552,63.747c-1.164-0.009-2.33-0.048-3.492,0.005c-0.735,0.034-1.149-0.227-1.509-0.876
				c-1.507-2.724-3.094-5.405-4.604-8.128c-0.407-0.733-0.855-1.082-1.751-1.065c-3.229,0.059-6.46,0.041-9.689,0.009
				c-0.756-0.008-1.223,0.195-1.612,0.903c-1.536,2.793-3.161,5.537-4.72,8.318c-0.335,0.597-0.738,0.862-1.43,0.84
				c-1.275-0.042-2.554-0.016-3.83-0.006c-0.297,0.002-0.662,0.008-0.616,0.447c0.035,0.347,0.357,0.335,0.619,0.336
				c1.277,0.006,2.557,0.055,3.83-0.014c0.75-0.041,1.144,0.239,1.495,0.871c1.551,2.785,3.168,5.534,4.711,8.324
				c0.321,0.582,0.685,0.784,1.325,0.771c1.727-0.035,3.455-0.012,5.183-0.012c1.615,0.002,3.232-0.043,4.844,0.021
				c0.785,0.032,1.217-0.247,1.588-0.917c1.529-2.755,3.122-5.474,4.653-8.228c0.333-0.599,0.711-0.859,1.411-0.827
				c1.199,0.057,2.403,0.018,3.604,0.013c0.264-0.001,0.581,0.001,0.612-0.344C59.213,63.749,58.854,63.749,58.552,63.747z
				 M42.524,73.098c-5.391,0.051-9.237-4.412-9.066-8.921c-0.063-4.948,3.781-8.917,8.721-9.005c4.983-0.088,9.097,3.824,9.17,8.719
				C51.423,68.932,47.5,73.053,42.524,73.098z"/>
		</g>
	</g>
</g>
</svg>
