<?xml version="1.0" encoding="utf-8"?>
<!-- Generator: Adobe Illustrator 16.0.4, SVG Export Plug-In . SVG Version: 6.00 Build 0)  -->
<!DOCTYPE svg PUBLIC "-//W3C//DTD SVG 1.1//EN" "http://www.w3.org/Graphics/SVG/1.1/DTD/svg11.dtd">
<svg version="1.1" id="Layer_3908" xmlns="http://www.w3.org/2000/svg" xmlns:xlink="http://www.w3.org/1999/xlink" x="0px" y="0px"
	 width="128px" height="128px" viewBox="0 0 128 128" enable-background="new 0 0 128 128" xml:space="preserve">
<g id="ryiqcM.tif">
	<g>
		<g>
			<path d="M105.768,69.231c-0.39,0-0.739,0.228-1.021,0.412c-0.073,0.05-0.146,0.096-0.214,0.135l-1.493,0.851
				c-2.254,1.28-4.586,2.604-6.836,3.982c-0.76,0.465-1.181,0.466-1.993-0.016c-2.426-1.436-4.866-2.846-7.306-4.255
				c-1.98-1.143-3.959-2.285-5.93-3.443c-1.03-0.604-1.811-0.601-2.812-0.01c-2.316,1.372-4.647,2.719-6.979,4.064
				c-2.125,1.226-4.249,2.453-6.362,3.698c-0.721,0.425-1.102,0.425-1.786,0.021c-1.984-1.175-3.981-2.326-5.979-3.477
				c-2.348-1.354-4.775-2.751-7.137-4.165c-1.209-0.723-2.093-0.726-3.369,0.034c-2.584,1.534-5.188,3.036-7.792,4.537
				c-1.815,1.048-3.631,2.095-5.44,3.153c-0.574,0.336-0.841,0.342-1.336,0.05c-4.02-2.364-8.133-4.721-12.164-7.029
				c-0.376-0.217-0.455-0.346-0.442-0.73c0.048-1.404,0.039-2.828,0.031-4.206c-0.002-0.38-0.004-0.76-0.005-1.14l0.005-2.054
				c0.003-1.423,0.006-2.847-0.012-4.271c-0.001-0.08,0.006-0.168,0.012-0.26c0.026-0.39,0.059-0.876-0.268-1.226
				c-0.386-0.414-1.232-0.408-1.611,0.009c-0.319,0.354-0.271,0.85-0.237,1.212c0.009,0.096,0.02,0.188,0.019,0.269
				c-0.024,3.562-0.025,7.099-0.003,10.516c0,0.099,0.003,0.398-0.021,0.452c-0.009,0.006-0.098,0.058-0.484,0.059
				c-0.099,0-0.167-0.007-0.211-0.014c0.004-0.037,0.01-0.079,0.016-0.111c0.017-0.11,0.031-0.219,0.03-0.316
				c-0.017-2.397-0.018-4.795-0.018-7.193l-0.003-3.692l0.003-0.147c0.01-0.354,0.037-1.293-0.934-1.36l-0.107-0.004
				c-1.011,0-1.043,0.993-1.056,1.367l-0.011,0.116c-0.007,0.163-0.012,0.325-0.012,0.488v2.808c0,2.877,0.006,5.753,0.02,8.672
				c0.003,0.466-0.007,0.533-0.248,0.663c-0.836,0.448-1.654,0.93-2.473,1.411c-0.566,0.333-1.131,0.665-1.702,0.986
				c-0.053,0.03-0.098,0.054-0.138,0.075c-0.003-0.048-0.004-0.106-0.005-0.174c-0.023-1.131-0.24-2.264-0.236-3.396L9.5,65.307
				v-4.408c0-5.578,0.219-11.156,0.224-16.733c0-0.335,0.11-0.752,0.118-0.809c0.093-0.046,0.546-0.049,0.898-0.053
				c1.181-0.012,2.392,0,3.573-0.016c1.132-0.014,1.333-0.663,1.344-1.048c0.01-0.372-0.125-0.598-0.247-0.723
				c-0.294-0.303-0.708-0.303-1.065-0.303C12.74,41.205,11.136,41.2,9.53,41.21c-1.492,0.008-1.857,0.241-1.89,1.782
				c-0.006,0.307-0.14,0.614-0.14,0.92v0.355L7.634,50.6C7.627,56.948,7.69,63.514,7.741,69.972
				c0.009,1.145-0.287,1.701-1.272,2.208c-1.305,0.669-2.566,1.43-3.801,2.164c-0.453,0.27-0.898,0.54-1.353,0.806l-0.134,0.077
				c-0.298,0.162-0.704,0.385-0.819,0.821c-0.069,0.261-0.018,0.531,0.151,0.804c0.269,0.434,0.637,0.5,0.833,0.5
				c0.327,0,0.619-0.167,0.852-0.3c0.061-0.035,0.12-0.07,0.178-0.098c0.188-0.095,0.37-0.204,0.552-0.313l1.565-0.901
				c1.063-0.605,1.985-1.212,3.034-1.841C7.57,73.873,7.5,73.852,7.5,73.833c0,0.037,0,0.08,0,0.129
				c0,1.403,0.128,2.809,0.132,4.213l0.072,2.722c0,1.279,0.036,2.558,0.046,3.888c0.002,0.457,0.026,1.525,1.226,1.539
				c0.876,0.008,1.759,0.012,2.634,0.012c0.942,0,1.888-0.004,2.831-0.012c0.425-0.004,0.782-0.143,1.002-0.392
				c0.133-0.15,0.282-0.293,0.235-0.695c-0.102-0.854-0.953-0.736-1.296-0.736h-0.706h-1.346c-0.581,0-1.161-0.123-1.742-0.129
				c-0.231-0.004-0.579-0.068-0.604-0.044c-0.038-0.089-0.04-0.489-0.041-0.71c-0.005-1.392-0.004-2.801-0.003-4.192
				c0.002-2.027,0.004-4.062-0.015-6.088c-0.006-0.572,0.17-0.869,0.698-1.16c2.087-1.15,3.921-2.211,5.605-3.242
				c0.572-0.35,0.871-0.354,1.437-0.021c2.092,1.232,4.195,2.446,6.298,3.661c2.352,1.358,4.705,2.719,7.042,4.102
				c1.171,0.693,2.043,0.694,3.16,0.033c2.001-1.188,4.018-2.35,6.035-3.512c2.293-1.32,4.665-2.687,6.975-4.071
				c0.834-0.5,1.311-0.501,2.22,0.038c1.963,1.162,3.94,2.301,5.918,3.439c2.295,1.323,4.67,2.691,6.979,4.074
				c1.156,0.692,2.052,0.695,3.276-0.027c2.188-1.292,4.388-2.562,6.588-3.834c2.219-1.281,4.438-2.562,6.644-3.864
				c0.601-0.356,0.924-0.354,1.558,0.018c2.115,1.241,4.24,2.469,6.364,3.694c2.369,1.365,4.737,2.731,7.092,4.12
				c1.014,0.599,1.804,0.596,2.82-0.011c1.719-1.024,3.45-2.021,5.183-3.02c1.264-0.727,2.528-1.454,3.784-2.192
				c0.07-0.04,0.151-0.077,0.236-0.117c0.338-0.159,0.801-0.376,0.938-0.838c0.082-0.274,0.031-0.562-0.15-0.858
				C106.35,69.299,105.971,69.231,105.768,69.231z"/>
			<path d="M127.193,75.646c-0.325-0.259-0.606-0.455-0.885-0.616c-0.469-0.273-0.937-0.551-1.402-0.829
				c-1.259-0.748-2.561-1.521-3.893-2.195c-0.887-0.45-1.165-0.942-1.146-2.03c0.057-3.198,0.047-6.449,0.037-9.592
				c-0.004-1.193-0.008-2.386-0.008-3.579l-0.009-14.301c-0.001-0.82-0.449-1.291-1.238-1.291c-0.796,0.003-1.594,0.004-2.392,0.004
				l-3.176,0.001c-1.006,0.001-1.104,0.729-1.109,0.953c-0.016,0.579,0.369,1.003,0.976,1.083c0.312,0.042,0.63,0.145,0.945,0.146
				l0.811,0.101h1.312l0.915-0.098c0.378,0.002,0.117-0.046,0.172-0.039c0.049,0.098-0.604,0.456-0.604,0.851v24.933
				c0,0.327,0.652,0.664,0.635,0.872c-0.199-0.077-0.183-0.229-0.484-0.376l0.061-0.055c-0.09-0.05-0.101-0.098-0.194-0.134
				c-0.615-0.238-1.074-0.062-1.338,0.432c-0.104,0.193-0.357,0.863,0.462,1.394l0.151,0.093c0.424,0.276,0.866,0.562,1.35,0.776
				c0.524,0.231,0.691,0.531,0.68,1.231c-0.029,1.645-0.024,3.288-0.021,4.932c0.002,1.269,0.005,2.537-0.008,3.804
				c-0.003,0.26,0.029,0.54,0.062,0.82c0.063,0.531,0.123,1.034-0.111,1.261c-0.074,0.071-0.207,0.154-0.563,0.154
				c-0.209,0-0.432-0.026-0.653-0.051c-0.262-0.029-0.522-0.058-0.77-0.058l-0.136,0.118c-0.438,0.02-0.878,0.139-1.317,0.139
				h-0.715l-0.608-0.113c-0.566,0.008-0.961,0.298-1.004,0.832c-0.042,0.528,0.28,0.931,0.803,1.047
				c0.392,0.088,0.796,0.088,1.105,0.09c0.745,0.005,1.487,0.001,2.231,0.001c0.607,0,0.519-0.006,1.127-0.009
				c1.715-0.01,1.256-0.256,1.256-2.008v-4.071c0-2.102,0.696-4.203,0.704-6.305c0-0.044,0.351-0.114,0.353-0.189
				c0.057,0.031,0.284,0.062,0.318,0.081c1.092,0.613,2.262,1.239,3.347,1.866c0.667,0.385,1.379,0.771,2.048,1.153l0.167,0.18
				c0.258,0.158,0.598,0.445,1.05,0.445h0.003c0.46,0,0.808-0.336,0.951-0.744C127.578,76.357,127.482,75.876,127.193,75.646z"/>
		</g>
		<path fill-rule="evenodd" clip-rule="evenodd" d="M108.445,66.619c0-0.716-0.006-1.434,0.004-2.15
			c0.004-0.331-0.038-0.71,0.416-0.806c0.375-0.078,0.646,0.089,0.853,0.4c0.651,0.985,1.307,1.967,1.97,2.944
			c0.112,0.167,0.211,0.471,0.41,0.424c0.328-0.077,0.162-0.42,0.168-0.64c0.027-0.843,0.016-1.688,0.029-2.53
			c0.005-0.325,0.119-0.59,0.504-0.591c0.386-0.001,0.504,0.265,0.506,0.588c0.011,1.518,0.017,3.037,0.009,4.554
			c-0.002,0.327,0.025,0.704-0.423,0.81c-0.382,0.089-0.655-0.083-0.86-0.385c-0.498-0.731-0.989-1.47-1.483-2.204
			c-0.188-0.28-0.373-0.562-0.564-0.839c-0.091-0.135-0.17-0.343-0.365-0.279c-0.182,0.057-0.146,0.271-0.149,0.429
			c-0.009,0.844,0.003,1.689-0.026,2.531c-0.012,0.318-0.002,0.726-0.491,0.734c-0.493,0.009-0.491-0.378-0.497-0.711
			c-0.014-0.76-0.004-1.52-0.004-2.279C108.447,66.619,108.447,66.619,108.445,66.619z"/>
		<path fill-rule="evenodd" clip-rule="evenodd" d="M108.456,59.416c0-0.8-0.005-1.601,0.003-2.401c0.004-0.31,0.068-0.6,0.47-0.611
			c0.41-0.012,0.458,0.293,0.504,0.591c0.019,0.125,0.017,0.252,0.027,0.378c0.109,1.308,0.109,1.318,1.387,1.31
			c1.044-0.006,1.539,0.253,1.438-1.363c-0.019-0.29-0.026-0.609,0.216-0.827c0.125-0.112,0.311-0.124,0.478-0.06
			c0.289,0.109,0.327,0.369,0.329,0.622c0.007,1.56,0.008,3.118,0.002,4.677c-0.002,0.313-0.096,0.599-0.48,0.617
			c-0.381,0.017-0.508-0.231-0.532-0.562c-0.011-0.169-0.013-0.337-0.019-0.506c-0.057-1.534-0.708-1.985-2.227-1.577
			c-0.4,0.107-0.553,0.345-0.57,0.716c-0.018,0.421-0.012,0.843-0.037,1.264c-0.021,0.351-0.085,0.71-0.56,0.665
			c-0.384-0.036-0.425-0.348-0.433-0.657c-0.002-0.083-0.006-0.168-0.006-0.252c0-0.674,0-1.349,0-2.023
			C108.449,59.416,108.453,59.416,108.456,59.416z"/>
		<path fill-rule="evenodd" clip-rule="evenodd" d="M16.924,45.468c1.727-0.012,2.942,1.252,2.957,3.075
			c0.014,1.756-1.291,3.135-2.948,3.12c-1.611-0.017-2.863-1.335-2.892-3.048C14.009,46.801,15.22,45.48,16.924,45.468z
			 M15.085,48.52c-0.007,1.343,0.722,2.23,1.847,2.25c1.124,0.021,1.897-0.871,1.903-2.195c0.005-1.379-0.685-2.207-1.854-2.218
			C15.791,46.346,15.092,47.142,15.085,48.52z"/>
		<path fill-rule="evenodd" clip-rule="evenodd" d="M120.696,83.082c0-0.043,0-0.086,0-0.126c0.002-2.072,0.289-2.332,2.345-2.096
			c0.646,0.074,1.098,0.396,1.24,1.064c0.205,0.956,0.132,1.921,0.076,2.884c-0.014,0.249-0.109,0.502-0.445,0.498
			c-0.32-0.004-0.446-0.224-0.459-0.488c-0.031-0.67-0.035-1.342-0.042-2.014c-0.006-0.555-0.108-1.026-0.812-1.012
			c-0.635,0.013-0.884,0.4-0.901,0.98c-0.017,0.589-0.005,1.176-0.028,1.763c-0.013,0.325,0.02,0.732-0.451,0.763
			c-0.496,0.033-0.482-0.388-0.5-0.707c-0.028-0.502-0.008-1.007-0.008-1.51C120.706,83.082,120.701,83.082,120.696,83.082z"/>
	</g>
</g>
</svg>
