<?xml version="1.0" encoding="utf-8"?>
<!-- Generator: Adobe Illustrator 16.0.4, SVG Export Plug-In . SVG Version: 6.00 Build 0)  -->
<!DOCTYPE svg PUBLIC "-//W3C//DTD SVG 1.1//EN" "http://www.w3.org/Graphics/SVG/1.1/DTD/svg11.dtd">
<svg version="1.1" id="Layer_3910" xmlns="http://www.w3.org/2000/svg" xmlns:xlink="http://www.w3.org/1999/xlink" x="0px" y="0px"
	 width="128px" height="128px" viewBox="0 0 128 128" enable-background="new 0 0 128 128" xml:space="preserve">
<g id="YjOVr0.tif">
	<g>
		<path fill-rule="evenodd" clip-rule="evenodd" d="M119.815,39.238c0,2.081-0.004,4.164,0.001,6.245
			c0.002,0.753,0.011,0.758,0.779,0.759c2.059,0.003,4.116,0.001,6.174,0.002c0.193,0,0.388,0.002,0.58,0.013
			c0.197,0.01,0.308,0.118,0.32,0.319c0.017,0.219-0.052,0.393-0.287,0.428c-0.189,0.028-0.386,0.026-0.578,0.026
			c-2.059,0.001-4.116-0.002-6.174,0.002c-0.806,0.001-0.813,0.008-0.814,0.81c-0.003,4.019-0.001,8.037-0.002,12.055
			c0,0.218-0.005,0.437-0.005,0.654c0.002,0.35-0.151,0.547-0.52,0.544c-0.436-0.003-0.871,0.002-1.307-0.006
			c-0.243-0.005-0.425-0.099-0.431-0.381c-0.007-0.293,0.178-0.348,0.424-0.367c0.332-0.024,0.749,0.15,0.974-0.111
			c0.258-0.297,0.102-0.744,0.104-1.124c0.008-3.704,0.008-7.407,0.003-11.111c-0.001-0.978,0.152-0.965-0.998-0.964
			c-1.5,0-3.001,0-4.502-0.002c-0.193,0-0.389,0.001-0.579-0.027c-0.237-0.035-0.299-0.209-0.286-0.428
			c0.012-0.207,0.124-0.306,0.32-0.316c0.193-0.01,0.387-0.013,0.58-0.013c1.574-0.001,3.147,0.001,4.721-0.002
			c0.735-0.001,0.744-0.006,0.745-0.7c0.002-3.97,0.002-7.939,0-11.91c-0.002-0.679-0.01-0.679-0.68-0.701
			c-0.048-0.002-0.097,0.001-0.145-0.002c-0.305-0.019-0.692,0.057-0.673-0.429c0.018-0.453,0.397-0.346,0.661-0.342
			c1.808,0.022,1.583-0.27,1.592,1.56C119.822,35.558,119.814,37.398,119.815,39.238z"/>
		<path fill-rule="evenodd" clip-rule="evenodd" d="M3.218,53.985c0-2.084,0.003-4.167-0.002-6.25
			c-0.002-0.688-0.01-0.692-0.681-0.702c-0.532-0.008-1.066,0.002-1.598-0.005c-0.291-0.005-0.618,0.019-0.609-0.422
			c0.008-0.412,0.322-0.355,0.579-0.359c0.557-0.008,1.114,0.003,1.672-0.005c0.625-0.009,0.636-0.014,0.638-0.664
			c0.006-1.914,0.002-3.827,0.002-5.741c0-2.302-0.003-4.603,0.001-6.905c0.002-0.755,0.022-0.77,0.776-0.777
			c0.364-0.003,0.726,0.003,1.09,0.011c0.229,0.005,0.357,0.12,0.365,0.358c0.008,0.235-0.109,0.36-0.337,0.388
			c-0.071,0.009-0.145,0.02-0.217,0.015c-1.02-0.067-0.899,0.139-0.9,0.933c-0.002,3.852-0.001,7.703,0,11.555
			c0,0.825,0.004,0.827,0.844,0.828c3.003,0.001,6.007,0,9.012,0c0.17,0,0.34-0.012,0.508,0.003c0.289,0.025,0.702-0.112,0.678,0.4
			c-0.022,0.487-0.428,0.377-0.718,0.378c-3.149,0.008-6.299,0.004-9.447,0.006c-0.874,0-0.877,0.004-0.877,0.88
			c-0.001,3.876-0.002,7.752,0,11.628c0.001,0.78,0.005,0.78,0.795,0.804c0.097,0.003,0.194,0.005,0.291,0.008
			c0.226,0.005,0.364,0.096,0.366,0.347c0,0.247-0.145,0.362-0.358,0.37c-0.483,0.018-0.967,0.023-1.451,0.009
			c-0.407-0.012-0.422-0.316-0.422-0.625c0.003-1.26,0.001-2.52,0.001-3.779C3.218,55.778,3.218,54.881,3.218,53.985z"/>
		<path fill-rule="evenodd" clip-rule="evenodd" d="M91.663,37.566c0.001,1.623,0.001,3.245,0,4.868
			c0,0.169-0.004,0.339-0.004,0.508c-0.001,0.251-0.095,0.424-0.374,0.432c-0.321,0.01-0.415-0.186-0.413-0.466
			c0-0.121-0.004-0.242-0.004-0.363c0-3.318-0.004-6.635,0.008-9.954c0.002-0.317-0.182-0.838,0.407-0.819
			c0.581,0.019,0.366,0.539,0.37,0.853C91.675,34.272,91.663,35.919,91.663,37.566z"/>
		<path fill-rule="evenodd" clip-rule="evenodd" d="M55.324,37.567c0,1.623,0,3.245-0.001,4.869c0,0.169-0.003,0.339-0.005,0.508
			c-0.003,0.25-0.093,0.425-0.374,0.433c-0.271,0.008-0.398-0.137-0.408-0.397c-0.005-0.146-0.007-0.291-0.007-0.436
			c-0.001-3.318-0.005-6.636,0.008-9.955c0.001-0.317-0.182-0.838,0.408-0.817c0.582,0.021,0.364,0.541,0.368,0.854
			C55.335,34.273,55.324,35.92,55.324,37.567z"/>
		<path fill-rule="evenodd" clip-rule="evenodd" d="M18.984,37.584c0,1.647,0.001,3.295-0.001,4.941c0,0.193,0.002,0.389-0.025,0.58
			c-0.029,0.199-0.184,0.272-0.371,0.272c-0.188,0-0.342-0.074-0.371-0.274c-0.027-0.19-0.026-0.386-0.026-0.579
			c-0.001-3.318,0-6.637,0-9.955c0-0.072,0-0.145,0.001-0.218c0.004-0.3-0.004-0.618,0.432-0.592
			c0.392,0.023,0.358,0.331,0.359,0.593C18.985,34.098,18.983,35.841,18.984,37.584z"/>
		<path fill-rule="evenodd" clip-rule="evenodd" d="M100.494,46.244c1.599,0,3.196,0,4.795,0c0.17,0,0.339,0.005,0.508,0.004
			c0.26-0.001,0.408,0.101,0.402,0.385c-0.004,0.283-0.166,0.379-0.414,0.389c-0.145,0.006-0.291,0.009-0.437,0.009
			c-3.269,0-6.537,0.006-9.806-0.01c-0.33-0.001-0.898,0.213-0.858-0.435c0.037-0.576,0.567-0.324,0.872-0.329
			C97.203,46.229,98.849,46.244,100.494,46.244z"/>
		<path fill-rule="evenodd" clip-rule="evenodd" d="M64.011,47.031c-1.575,0-3.148,0-4.722-0.001c-0.194,0-0.387-0.003-0.581-0.013
			c-0.261-0.013-0.393-0.147-0.385-0.418c0.007-0.249,0.146-0.34,0.37-0.347c0.146-0.004,0.291-0.007,0.436-0.007
			c3.317,0,6.635,0,9.951,0c0.145,0,0.289,0.005,0.435,0.008c0.24,0.005,0.343,0.13,0.343,0.366c0,0.229-0.093,0.374-0.329,0.393
			c-0.191,0.016-0.387,0.019-0.579,0.019C67.304,47.031,65.656,47.031,64.011,47.031z"/>
		<path fill-rule="evenodd" clip-rule="evenodd" d="M27.743,46.244c1.622,0,3.244,0,4.866,0c0.17,0,0.339,0.005,0.508,0.004
			c0.261-0.003,0.408,0.099,0.404,0.382c-0.005,0.281-0.164,0.381-0.416,0.39c-0.145,0.005-0.29,0.009-0.435,0.009
			c-3.269,0.001-6.537,0.007-9.806-0.009c-0.33-0.002-0.9,0.214-0.859-0.434c0.036-0.576,0.565-0.326,0.871-0.331
			C24.499,46.229,26.12,46.244,27.743,46.244z"/>
		<path fill-rule="evenodd" clip-rule="evenodd" d="M81.96,46.244c1.62,0,3.239,0,4.86,0c0.193,0,0.387,0.003,0.58,0.013
			c0.195,0.01,0.31,0.11,0.319,0.316c0.012,0.217-0.049,0.392-0.284,0.431c-0.166,0.027-0.337,0.026-0.505,0.026
			c-3.266,0.001-6.529,0.006-9.794-0.008c-0.32-0.001-0.831,0.185-0.852-0.381c-0.022-0.613,0.509-0.383,0.814-0.387
			C78.719,46.232,80.34,46.244,81.96,46.244z"/>
		<path fill-rule="evenodd" clip-rule="evenodd" d="M45.651,47.031c-1.595,0-3.189,0-4.785-0.002c-0.193,0-0.388,0-0.577-0.03
			c-0.238-0.039-0.292-0.219-0.277-0.435c0.015-0.208,0.135-0.298,0.328-0.308c0.169-0.008,0.337-0.012,0.506-0.012
			c3.239-0.001,6.478-0.006,9.716,0.008c0.306,0.002,0.828-0.21,0.808,0.4c-0.018,0.527-0.487,0.367-0.789,0.37
			C48.938,47.039,47.295,47.03,45.651,47.031z"/>
		<path fill-rule="evenodd" clip-rule="evenodd" d="M92.658,28.638c0,0.533,0.001,1.065-0.001,1.597
			c-0.001,0.242-0.075,0.442-0.362,0.443c-0.296,0.001-0.344-0.22-0.352-0.451c-0.01-0.314-0.021-0.629-0.008-0.943
			c0.018-0.41-0.169-0.548-0.567-0.543c-1.362,0.017-1.188-0.091-1.214,1.136c-0.006,0.298,0.16,0.792-0.365,0.784
			c-0.521-0.01-0.341-0.498-0.349-0.798c-0.021-0.871-0.01-1.742-0.006-2.614c0.001-0.168,0.012-0.338,0.041-0.504
			c0.028-0.166,0.16-0.229,0.318-0.236c0.164-0.007,0.282,0.068,0.321,0.23c0.027,0.116,0.029,0.239,0.047,0.358
			c0.045,0.323-0.15,0.749,0.187,0.945c0.355,0.208,0.804,0.09,1.212,0.073c0.278-0.012,0.357-0.208,0.365-0.45
			s0.004-0.484,0.019-0.725c0.015-0.231,0.068-0.445,0.369-0.43c0.294,0.014,0.342,0.231,0.345,0.46
			C92.664,27.524,92.659,28.082,92.658,28.638L92.658,28.638z"/>
		<path fill-rule="evenodd" clip-rule="evenodd" d="M56.323,28.577c0,0.484,0.01,0.969-0.003,1.452
			c-0.008,0.275,0.071,0.655-0.375,0.64c-0.438-0.015-0.314-0.401-0.351-0.668c-0.006-0.048-0.001-0.097-0.001-0.145
			c-0.012-1.1-0.355-1.354-1.446-1.105c-0.246,0.057-0.31,0.204-0.315,0.411c-0.01,0.339-0.002,0.678-0.015,1.017
			c-0.01,0.248-0.026,0.51-0.377,0.498c-0.295-0.01-0.34-0.229-0.341-0.459c-0.002-1.089-0.003-2.178,0.001-3.266
			c0.001-0.237,0.074-0.442,0.364-0.442c0.3,0,0.33,0.226,0.351,0.452c0.004,0.047-0.002,0.097,0.005,0.145
			c0.047,0.322-0.15,0.745,0.198,0.939c0.362,0.202,0.805,0.089,1.213,0.068c0.233-0.012,0.339-0.166,0.35-0.386
			c0.012-0.241,0.007-0.483,0.021-0.725c0.015-0.247,0.029-0.51,0.382-0.49c0.299,0.016,0.33,0.245,0.333,0.469
			c0.007,0.533,0.002,1.065,0.002,1.597C56.321,28.577,56.322,28.577,56.323,28.577z"/>
		<path fill-rule="evenodd" clip-rule="evenodd" d="M16.759,28.549c0-0.533-0.004-1.065,0.002-1.597
			c0.002-0.236,0.07-0.443,0.36-0.446c0.297-0.002,0.336,0.219,0.355,0.447c0.005,0.048,0,0.097,0.007,0.145
			c0.046,0.323-0.149,0.748,0.192,0.943c0.358,0.205,0.804,0.087,1.212,0.07c0.233-0.01,0.34-0.161,0.354-0.381
			c0.011-0.145-0.005-0.292,0.016-0.435c0.045-0.299-0.142-0.791,0.382-0.769c0.514,0.022,0.323,0.508,0.338,0.809
			c0.028,0.58,0.009,1.161,0.009,1.742c0,0.363,0.002,0.726-0.002,1.089c-0.004,0.253-0.032,0.513-0.37,0.508
			c-0.344-0.004-0.342-0.284-0.352-0.526c-0.012-0.29-0.019-0.581-0.005-0.871c0.019-0.411-0.174-0.543-0.57-0.54
			c-1.393,0.014-1.176-0.067-1.21,1.14c-0.009,0.299,0.16,0.793-0.37,0.779c-0.515-0.015-0.326-0.501-0.345-0.803
			c-0.029-0.434-0.008-0.871-0.008-1.306C16.755,28.549,16.757,28.549,16.759,28.549z"/>
		<path fill-rule="evenodd" clip-rule="evenodd" d="M36.54,44.66c1.101,0.011,1.89,0.9,1.901,2.137
			c0.01,1.281-0.844,2.224-2.001,2.21c-1.14-0.014-1.921-0.925-1.894-2.207C34.572,45.553,35.417,44.648,36.54,44.66z
			 M35.249,46.827c-0.008,0.922,0.42,1.547,1.104,1.614c0.827,0.079,1.347-0.523,1.356-1.571c0.011-1.003-0.465-1.667-1.207-1.687
			C35.769,45.165,35.258,45.833,35.249,46.827z"/>
		<path fill-rule="evenodd" clip-rule="evenodd" d="M107.238,46.897c-0.021-1.636,1.344-2.672,2.729-2.075
			c0.763,0.328,1.067,0.987,1.122,1.734c0.119,1.61-0.888,2.668-2.375,2.389C107.806,48.774,107.251,47.995,107.238,46.897z
			 M107.929,46.83c-0.006,0.992,0.487,1.627,1.252,1.615c0.759-0.011,1.204-0.593,1.21-1.578c0-0.024,0-0.048,0-0.072
			c-0.018-0.968-0.49-1.596-1.212-1.613C108.446,45.166,107.935,45.842,107.929,46.83z"/>
		<path fill-rule="evenodd" clip-rule="evenodd" d="M70.899,46.811c0.048-1.582,1.333-2.547,2.676-2.008
			c0.831,0.334,1.109,1.039,1.19,1.842c0.151,1.507-1.006,2.6-2.404,2.302C71.436,48.748,70.867,47.918,70.899,46.811z
			 M71.589,46.828c0.007,0.241-0.001,0.482,0.08,0.715c0.212,0.608,0.664,0.938,1.242,0.901c0.544-0.035,0.942-0.392,1.079-1.002
			c0.09-0.404,0.092-0.816,0.001-1.221c-0.128-0.565-0.569-0.981-1.077-1.036c-0.491-0.053-0.967,0.298-1.202,0.864
			C71.604,46.303,71.596,46.563,71.589,46.828z"/>
		<path fill-rule="evenodd" clip-rule="evenodd" d="M54.052,45.27c-0.072,0.003-0.242,0.003-0.408,0.026
			c-0.242,0.032-0.391,0.189-0.454,0.414c-0.062,0.219,0.079,0.374,0.224,0.501c0.221,0.196,0.509,0.272,0.771,0.397
			c0.643,0.307,0.936,0.812,0.815,1.379c-0.124,0.583-0.562,0.921-1.273,0.987c-0.318,0.03-0.629-0.009-0.932-0.1
			c-0.203-0.062-0.348-0.19-0.273-0.431c0.073-0.238,0.267-0.181,0.419-0.125c0.281,0.105,0.565,0.148,0.854,0.088
			c0.281-0.058,0.49-0.231,0.548-0.518c0.053-0.266-0.093-0.478-0.306-0.612c-0.224-0.14-0.475-0.235-0.712-0.356
			c-0.745-0.379-1.005-0.98-0.688-1.585c0.308-0.586,1.336-0.88,1.922-0.559c0.146,0.081,0.228,0.175,0.2,0.341
			c-0.031,0.183-0.157,0.224-0.321,0.199C54.342,45.302,54.246,45.293,54.052,45.27z"/>
		<path fill-rule="evenodd" clip-rule="evenodd" d="M17.672,45.271c-0.042,0.003-0.21,0.001-0.375,0.029
			c-0.233,0.039-0.395,0.184-0.451,0.414c-0.053,0.217,0.073,0.391,0.23,0.495c0.239,0.158,0.509,0.269,0.767,0.399
			c0.641,0.326,0.936,0.822,0.818,1.376c-0.125,0.587-0.548,0.917-1.264,0.988c-0.342,0.034-0.673-0.007-0.996-0.12
			c-0.18-0.063-0.279-0.193-0.229-0.392c0.061-0.237,0.245-0.204,0.406-0.147c0.256,0.09,0.512,0.135,0.781,0.11
			c0.323-0.03,0.551-0.207,0.638-0.506c0.084-0.296-0.092-0.521-0.33-0.663c-0.268-0.16-0.57-0.26-0.838-0.419
			c-0.661-0.391-0.845-1.026-0.481-1.587c0.365-0.559,1.461-0.795,1.958-0.427c0.114,0.084,0.146,0.183,0.117,0.31
			c-0.032,0.135-0.122,0.201-0.263,0.188C18.04,45.307,17.92,45.295,17.672,45.271z"/>
		<path fill-rule="evenodd" clip-rule="evenodd" d="M90.347,45.269c-0.065,0.005-0.239-0.006-0.398,0.038
			c-0.462,0.125-0.57,0.546-0.228,0.877c0.212,0.206,0.501,0.281,0.762,0.405c0.684,0.327,0.988,0.843,0.853,1.422
			c-0.139,0.59-0.623,0.944-1.358,0.978c-0.289,0.013-0.578-0.022-0.854-0.116c-0.198-0.068-0.343-0.194-0.261-0.434
			c0.078-0.23,0.267-0.174,0.422-0.121c0.209,0.072,0.416,0.114,0.637,0.113c0.347-0.002,0.626-0.136,0.74-0.47
			c0.125-0.364-0.109-0.596-0.396-0.759c-0.229-0.132-0.487-0.21-0.717-0.341c-0.674-0.382-0.883-1.003-0.545-1.573
			c0.337-0.572,1.409-0.841,1.937-0.491c0.139,0.092,0.196,0.201,0.15,0.363c-0.042,0.146-0.151,0.172-0.281,0.159
			C90.689,45.308,90.569,45.293,90.347,45.269z"/>
		<path fill-rule="evenodd" clip-rule="evenodd" d="M123.701,62.939c0.129-0.669,0.27-1.405,0.41-2.14
			c0.04-0.204,0.183-0.474,0.35-0.327c0.339,0.299,0.559,0.043,0.826-0.044c0.719-0.233,1.294,0.206,1.208,0.954
			c-0.063,0.551-0.187,1.096-0.3,1.64c-0.049,0.235-0.111,0.512-0.452,0.436c-0.33-0.074-0.189-0.333-0.161-0.532
			c0.064-0.454,0.149-0.906,0.202-1.361c0.028-0.237,0.05-0.52-0.225-0.634c-0.303-0.127-0.491,0.117-0.677,0.302
			c-0.352,0.349-0.363,0.831-0.471,1.272c-0.053,0.211-0.066,0.431-0.116,0.641c-0.048,0.203-0.153,0.362-0.403,0.319
			C123.592,63.413,123.703,63.187,123.701,62.939z"/>
		<path fill-rule="evenodd" clip-rule="evenodd" d="M55.577,47.375c0-0.384-0.008-0.769,0.002-1.153
			c0.006-0.221,0.12-0.364,0.361-0.355c0.202,0.007,0.311,0.138,0.322,0.322c0.052,0.815,0.061,1.632-0.002,2.448
			c-0.016,0.191-0.148,0.293-0.352,0.281c-0.201-0.012-0.317-0.126-0.323-0.317c-0.012-0.408-0.004-0.816-0.004-1.225
			C55.58,47.375,55.578,47.375,55.577,47.375z"/>
		<path fill-rule="evenodd" clip-rule="evenodd" d="M19.23,47.383c0-0.361-0.002-0.722,0.001-1.083
			c0.003-0.239,0.075-0.437,0.362-0.434c0.244,0.002,0.335,0.18,0.338,0.387c0.01,0.769,0.012,1.538,0.001,2.306
			c-0.003,0.209-0.104,0.371-0.356,0.359c-0.246-0.012-0.335-0.167-0.339-0.382c-0.007-0.384-0.001-0.77-0.001-1.153
			C19.234,47.383,19.232,47.383,19.23,47.383z"/>
		<path fill-rule="evenodd" clip-rule="evenodd" d="M92.618,47.399c0,0.363,0.013,0.727-0.005,1.088
			c-0.011,0.227-0.074,0.442-0.378,0.424c-0.255-0.016-0.319-0.195-0.321-0.402c-0.006-0.75-0.006-1.501,0-2.251
			c0.002-0.212,0.085-0.384,0.335-0.39c0.246-0.006,0.351,0.16,0.358,0.37c0.016,0.387,0.005,0.774,0.005,1.162
			C92.614,47.399,92.616,47.399,92.618,47.399z"/>
		<path fill-rule="evenodd" clip-rule="evenodd" d="M19.571,45.479c-0.24-0.038-0.372-0.164-0.345-0.391
			c0.027-0.227,0.185-0.327,0.407-0.301c0.196,0.023,0.302,0.16,0.295,0.344C19.921,45.354,19.778,45.468,19.571,45.479z"/>
		<path fill-rule="evenodd" clip-rule="evenodd" d="M55.918,45.479c-0.213-0.03-0.364-0.131-0.354-0.366
			c0.009-0.232,0.164-0.336,0.38-0.331c0.195,0.005,0.31,0.14,0.32,0.321C56.278,45.328,56.139,45.448,55.918,45.479z"/>
		<path fill-rule="evenodd" clip-rule="evenodd" d="M92.219,44.779c0.23-0.008,0.369,0.113,0.385,0.332
			c0.014,0.185-0.09,0.321-0.284,0.353c-0.225,0.037-0.383-0.066-0.417-0.287C91.868,44.952,91.997,44.82,92.219,44.779z"/>
		<g>
			<path d="M107.307,74.852c0.002-0.583-0.182-0.907-0.693-1.199c-4.791-2.739-9.564-5.513-14.354-8.255
				c-0.506-0.289-0.692-0.615-0.689-1.201c0.026-4.214,0.014-8.429,0.014-12.643c0-0.194,0-0.388-0.002-0.581
				c-0.004-0.258-0.032-0.496-0.372-0.506c-0.385-0.011-0.415,0.251-0.418,0.536c-0.001,0.193-0.002,0.388-0.003,0.582
				c0,4.19-0.014,8.381,0.016,12.57c0.004,0.616-0.19,0.953-0.72,1.254c-4.729,2.702-9.437,5.442-14.172,8.139
				c-0.627,0.356-0.863,0.748-0.851,1.479c0.047,2.786,0.02,5.571,0.019,8.356c0,2.883,0.012,5.765-0.011,8.647
				c-0.005,0.525,0.162,0.823,0.623,1.088c4.896,2.806,9.784,5.619,14.65,8.472c0.641,0.375,1.098,0.335,1.709-0.022
				c4.85-2.831,9.715-5.64,14.587-8.432c0.481-0.275,0.67-0.572,0.668-1.137C107.285,86.283,107.285,80.567,107.307,74.852z
				 M77.685,75.077c0.543-0.316,1.087-0.63,1.631-0.944c3.728-2.154,7.452-4.31,11.183-6.457c0.188-0.107,0.371-0.362,0.641-0.141
				c0.29,0.237,0.233,0.546-0.17,0.781c-1.211,0.708-2.428,1.404-3.644,2.104c-2.975,1.714-5.948,3.43-8.924,5.144
				c-0.168,0.096-0.338,0.188-0.482,0.268c-0.249,0.033-0.314-0.133-0.399-0.279C77.39,75.328,77.496,75.188,77.685,75.077z
				 M90.73,99.263c-0.285-0.133-0.553-0.301-0.826-0.459c-3.938-2.28-7.878-4.562-11.815-6.844c-0.146-0.085-0.29-0.18-0.435-0.265
				c-0.21-0.125-0.229-0.281-0.112-0.488c0.112-0.2,0.252-0.291,0.472-0.185c0.107,0.052,0.211,0.117,0.316,0.178
				c4.173,2.405,8.349,4.812,12.52,7.223c0.199,0.114,0.464,0.175,0.495,0.424C91.336,99.194,91.018,99.398,90.73,99.263z
				 M104.5,83.439c0,2.3,0,4.602,0,6.902c0,0.169,0.302,0.339,0.305,0.508c0.004,0.275,0.085,0.487-0.245,0.477
				c-0.324-0.011-0.306-0.238-0.308-0.503c-0.002-0.146,0.034-0.29,0.034-0.436c0-4.65,0.019-9.3,0.02-13.949
				c0-0.217,0.008-0.437,0.037-0.652c0.029-0.236,0.208-0.307,0.429-0.292c0.201,0.013,0.008,0.12,0.02,0.317
				c0.011,0.194-0.291,0.387-0.291,0.582C104.5,78.741,104.5,81.091,104.5,83.439z"/>
			<path d="M70.28,73.657c-4.792-2.739-9.563-5.516-14.354-8.26c-0.501-0.287-0.7-0.601-0.697-1.191
				c0.027-4.264,0.015-8.526,0.014-12.79c0-0.218-0.003-0.436-0.02-0.653c-0.017-0.203-0.151-0.288-0.346-0.295
				c-0.222-0.007-0.387,0.067-0.408,0.31c-0.019,0.216-0.02,0.435-0.02,0.653c-0.001,4.239-0.014,8.478,0.015,12.717
				c0.004,0.612-0.179,0.949-0.713,1.254c-4.75,2.716-9.478,5.472-14.23,8.183c-0.613,0.351-0.808,0.743-0.797,1.434
				c0.041,2.785,0.016,5.57,0.016,8.356c0,2.907,0.011,5.813-0.011,8.72c-0.003,0.475,0.135,0.762,0.554,0.985
				c0.811,0.433,1.601,0.907,2.397,1.367c4.173,2.41,8.35,4.811,12.51,7.242c0.49,0.286,0.881,0.323,1.322-0.013
				c0.115-0.088,0.249-0.15,0.375-0.223c4.778-2.764,9.552-5.537,14.344-8.276c0.531-0.304,0.741-0.622,0.738-1.242
				c-0.023-5.691-0.021-11.384-0.003-17.077C70.967,74.278,70.794,73.951,70.28,73.657z M41.386,75.052
				c0.86-0.493,1.717-0.993,2.576-1.489c3.414-1.974,6.827-3.947,10.242-5.917c0.457-0.265,0.759-0.158,0.779,0.121
				c0.038,0.394-0.182,0.446-0.337,0.538c-1.106,0.646-2.215,1.291-3.326,1.932c-3.124,1.8-6.247,3.597-9.371,5.395
				c-0.062,0.037-0.123,0.075-0.185,0.114c-0.217,0.133-0.399,0.137-0.552-0.106C41.039,75.365,41.131,75.197,41.386,75.052z
				 M54.224,99.172c-1.179-0.669-2.351-1.35-3.524-2.028c-2.995-1.735-5.989-3.472-8.983-5.208
				c-0.146-0.084-0.291-0.173-0.434-0.264c-0.138-0.088-0.203-0.206-0.125-0.367c0.073-0.151,0.136-0.319,0.397-0.326
				c0.11,0.056,0.264,0.123,0.409,0.206c4.195,2.417,8.39,4.833,12.581,7.257c0.189,0.109,0.493,0.152,0.444,0.488
				C54.932,99.31,54.642,99.411,54.224,99.172z M68.5,83.443c0,2.325,0,4.65,0,6.975c0,0.193,0.134,0.388,0.123,0.58
				c-0.01,0.198-0.049,0.308-0.25,0.323c-0.219,0.016-0.358-0.054-0.396-0.288c-0.029-0.19-0.009-0.386-0.009-0.58
				c0-4.696,0.004-9.395,0.018-14.093c0-0.316-0.192-0.833,0.38-0.854c0.604-0.021,0.257,0.51,0.259,0.819
				C68.642,78.698,68.5,81.071,68.5,83.443z"/>
			<path d="M33.872,73.617c-4.771-2.728-9.521-5.491-14.292-8.222c-0.508-0.289-0.692-0.614-0.688-1.199
				c0.024-4.238,0.014-8.478,0.013-12.717c0-0.217-0.004-0.436-0.013-0.654c-0.01-0.229-0.127-0.353-0.364-0.36
				c-0.272-0.008-0.403,0.126-0.409,0.39c-0.006,0.218-0.009,0.437-0.009,0.654c-0.001,4.19-0.015,8.381,0.015,12.571
				c0.005,0.663-0.197,1.033-0.78,1.364c-4.794,2.736-9.565,5.513-14.354,8.261c-0.432,0.247-0.606,0.523-0.602,1.028
				c0.022,2.882,0.011,5.764,0.011,8.646c0,2.906,0.009,5.814-0.011,8.72c-0.003,0.473,0.146,0.743,0.558,0.98
				c4.934,2.833,9.863,5.675,14.776,8.545c0.584,0.34,1.022,0.308,1.583-0.019c4.853-2.829,9.714-5.642,14.59-8.43
				c0.533-0.306,0.733-0.635,0.73-1.248c-0.022-5.668-0.025-11.336,0.003-17.005C34.633,74.277,34.426,73.933,33.872,73.617z
				 M4.909,75.15c0.119-0.082,0.243-0.158,0.368-0.23c4.166-2.408,8.331-4.818,12.501-7.219c0.215-0.123,0.448-0.465,0.741-0.092
				c0.24,0.307,0.139,0.505-0.183,0.686c-0.802,0.449-1.587,0.927-2.383,1.384c-3.417,1.966-6.834,3.929-10.252,5.891
				c-0.167,0.096-0.334,0.189-0.466,0.265c-0.26,0.01-0.325-0.155-0.404-0.304C4.753,75.382,4.766,75.249,4.909,75.15z
				 M17.974,99.222c-0.867-0.483-1.725-0.985-2.584-1.481c-3.374-1.953-6.748-3.906-10.121-5.861
				c-0.284-0.164-0.683-0.277-0.365-0.74c0.07-0.103,0.159-0.183,0.347-0.151c0.088,0.047,0.219,0.108,0.344,0.18
				c4.216,2.432,8.433,4.86,12.647,7.295c0.175,0.103,0.431,0.153,0.411,0.44C18.629,99.25,18.314,99.411,17.974,99.222z
				 M31.5,83.442c0,2.324,0,4.649,0,6.974c0,0.193,0.464,0.388,0.456,0.58c-0.01,0.198,0.118,0.31-0.083,0.325
				c-0.22,0.019-0.276-0.054-0.314-0.285c-0.03-0.19,0.029-0.386,0.029-0.579c-0.001-4.698,0.024-9.396,0.037-14.093
				c0.001-0.316-0.181-0.847,0.387-0.854c0.644-0.008-0.067,0.563-0.064,0.888C31.969,78.745,31.5,81.095,31.5,83.442z"/>
		</g>
	</g>
</g>
</svg>
