<?xml version="1.0" encoding="utf-8"?>
<!-- Generator: Adobe Illustrator 16.0.4, SVG Export Plug-In . SVG Version: 6.00 Build 0)  -->
<!DOCTYPE svg PUBLIC "-//W3C//DTD SVG 1.1//EN" "http://www.w3.org/Graphics/SVG/1.1/DTD/svg11.dtd">
<svg version="1.1" id="Layer_3911" xmlns="http://www.w3.org/2000/svg" xmlns:xlink="http://www.w3.org/1999/xlink" x="0px" y="0px"
	 width="128px" height="128px" viewBox="0 0 128 128" enable-background="new 0 0 128 128" xml:space="preserve">
<path d="M36.951,104H35.57l-0.5-0.725c-1.398-0.602-2.707-1.496-3.976-2.365c-0.333-0.227-0.664-0.454-0.993-0.672
	c-0.323-0.214-0.64-0.436-0.951-0.653c-0.523-0.366-1.019-0.712-1.489-0.983c-1.938-1.119-3.882-2.268-5.83-3.418
	c-1.228-0.725-2.457-1.451-3.686-2.17l-2.931-1.72c-2.302-1.352-4.599-2.701-6.89-4.022c-0.877-0.505-1.974-1.039-3.136-1.604
	c-0.832-0.404-1.675-0.814-2.458-1.225l-2.38-0.826v-40.82l2.293-0.829c4.057-2.319,8.2-4.667,12.375-7.033
	c5.978-3.388,12.16-6.89,18.167-10.357c0.171-0.099,0.42-0.205,0.67-0.302c0.099-0.04,0.198-0.077,0.278-0.115
	c0.094-0.045,0.2-0.09,0.307-0.135c0.067-0.028,0.136-0.054,0.191-0.083c1.182-0.756,2.787-0.811,4.102-0.046
	c1.761,1.021,3.529,2.041,5.297,3.061l8.322,4.8c5.272,3.042,10.546,6.087,15.816,9.137c5.624-1.83,19.385-6.299,19.385-6.299
	c4.325-1.404,8.651-2.808,12.973-4.224c1.706-0.562,3.38,0.002,4.43,1.451c3.481,4.803,6.968,9.604,10.454,14.404l10.478,14.422
	c1.264,1.743,1.262,3.299-0.007,5.046L105,94.442c-0.352,0.484-1.285,1.767-3.115,1.767c-0.623,0-1.105-0.157-1.457-0.271
	l-18.146-5.894c-1.954-0.636-3.908-1.267-5.863-1.897l-0.551-0.179c-2.549-0.823-5.099-1.647-7.646-2.478
	c-4.475,2.588-8.938,5.182-13.401,7.774l-0.264,0.153c-2.477,1.439-5.002,2.989-7.445,4.488c-2.511,1.541-5.105,3.132-7.668,4.617
	C38.953,103.134,38.144,104,36.951,104z M3.177,81.607l0.778,0.287c0.783,0.412,1.632,0.826,2.47,1.232
	c1.208,0.588,2.35,1.143,3.313,1.698c2.296,1.324,4.601,2.678,6.908,4.033l2.928,1.718c1.231,0.721,2.463,1.448,3.694,2.175
	c1.94,1.146,3.876,2.29,5.807,3.404c0.576,0.333,1.145,0.73,1.694,1.114c0.293,0.205,0.591,0.413,0.894,0.615
	c0.339,0.225,0.682,0.459,1.026,0.694c1.26,0.861,2.562,1.753,3.808,2.228l0.41,0.156l0.065,0.094
	c0.095-0.096,0.228-0.247,0.413-0.486l0.169-0.218l0.239-0.138c2.607-1.507,5.267-3.139,7.84-4.717
	c2.456-1.508,4.997-3.066,7.502-4.522l0.264-0.153c4.646-2.699,9.292-5.399,13.953-8.094l0.546-0.315l0.599,0.196
	c2.745,0.896,5.491,1.783,8.237,2.67l0.552,0.178c1.957,0.633,3.913,1.265,5.869,1.9l18.145,5.894
	c0.27,0.087,0.418,0.133,0.585,0.133c0.338,0,0.521-0.177,0.83-0.601l20.883-28.749c0.553-0.762,0.553-0.972,0.006-1.726
	l-10.477-14.422c-3.487-4.801-6.975-9.602-10.457-14.406c-0.344-0.476-0.712-0.605-1.261-0.425
	c-4.325,1.417-8.653,2.822-12.981,4.227c0,0-14.814,4.81-19.982,6.493l-0.6,0.195l-0.545-0.315
	c-5.45-3.155-10.905-6.304-16.357-9.451l-8.322-4.799c-1.77-1.021-3.54-2.042-5.305-3.065c-0.415-0.241-0.838-0.222-1.187,0
	c-0.16,0.102-0.381,0.204-0.604,0.296c-0.06,0.025-0.119,0.048-0.169,0.073c-0.134,0.064-0.299,0.131-0.467,0.196
	c-0.106,0.042-0.215,0.081-0.295,0.124c-6.012,3.47-12.198,6.975-18.181,10.365c-4.208,2.385-8.385,4.751-12.472,7.088l-0.221,0.102
	L3.177,44.78V81.607z"/>
<path d="M101.722,35.618c-0.313-0.431-0.314-0.433-0.812-0.272c-1.666,0.538-3.334,1.073-4.998,1.615
	c-8.924,2.902-18.357,5.806-27.28,8.708c-0.62,0.202-1.132,0.201-1.132,0.846c0,5.542,0,11.084,0,16.626c0,5.56,0,11.118,0,16.677
	c0,0.766,0.484,0.645,1.128,0.854c10.51,3.417,21.276,6.83,31.787,10.244c0.856,0.277,0.795,0.331,1.316-0.387
	c6.516-8.964,13.093-17.93,19.604-26.897c0.396-0.546,0.416-0.402,0.041-0.917C114.816,53.681,108.285,44.649,101.722,35.618z
	 M114.815,64.434c-4.841,6.664-9.683,13.33-14.526,19.994c-0.133,0.183-0.24,0.395-0.443,0.523c-0.073-0.033-0.14-0.052-0.191-0.09
	c-0.318-0.233-0.77-0.41-0.918-0.727c-0.165-0.354,0.299-0.642,0.512-0.934c4.834-6.671,9.677-13.334,14.518-20
	c0.029-0.04,0.059-0.081,0.088-0.12c0.302-0.401,0.302-0.401,0.723-0.097C115.424,63.592,115.426,63.593,114.815,64.434z"/>
<path d="M66.924,46.286L37.53,28.783c-0.895-0.516-0.611-0.533-1.538,0.001C26.339,34.357,16.687,39.93,7.028,45.493
	c-0.334,0.192-0.443,0.407-0.443,0.784c0.01,11.268,0.01,22.536-0.001,33.805c-0.001,0.391,0.135,0.588,0.46,0.771
	c2.084,1.186,4.157,2.393,6.234,3.59c7.534,4.35,15.067,8.699,22.603,13.043c1.113,0.643,0.693,0.621,1.749,0.014
	c9.585-5.525,19.163-11.064,28.752-16.584c0.418-0.24,0.549-0.505,0.547-0.975c-0.017-5.592-0.01-11.186-0.01-16.777
	C66.918,57.537,66.914,51.912,66.924,46.286z M12.5,63.18c0,4.449,0,8.898,0,13.345c0,0.149,0.262,0.298,0.27,0.446
	c0.015,0.268,0.046,0.393-0.237,0.386c-0.674-0.014-0.868,0.024-1.023-0.055c-0.007-0.002,0.051-0.007,0.043-0.009
	c-0.009-0.006,0.007-0.008,0-0.015c-0.217-0.087-0.127-0.344-0.127-1.148c-0.009-8.814,0.003-17.293,0.003-26.107
	c0-0.801,0.008-0.524,0.83-0.524c0.017,0,0.033,0,0.049,0c0.731,0,0.192-0.551,0.192,0.187C12.5,54.185,12.5,58.683,12.5,63.18z
	 M60.832,78.492c-6.285,3.63-12.571,7.258-18.857,10.886c-1.446,0.835-2.891,1.672-4.337,2.507c-0.142,0.082-0.29,0.156-0.414,0.223
	c-0.146-0.004-0.197-0.094-0.247-0.178c-0.143-0.242-0.287-0.484-0.424-0.729c-0.212-0.378-0.214-0.384,0.167-0.604
	c1.058-0.615,2.119-1.225,3.178-1.836c6.844-3.951,13.688-7.9,20.533-11.852c0.491-0.282,0.489-0.285,0.774,0.203
	C61.71,77.977,61.713,77.982,60.832,78.492z M61.448,48.81c-0.518,0.916-0.516,0.913-1.422,0.389
	c-7.643-4.415-15.288-8.828-22.931-13.242c-0.755-0.437-0.754-0.438-0.31-1.218c0.073-0.13,0.148-0.258,0.226-0.385
	c0.044-0.074,0.105-0.125,0.233-0.115c0.103,0.057,0.234,0.126,0.363,0.2c3.922,2.264,7.846,4.527,11.768,6.791
	c3.88,2.239,7.759,4.479,11.639,6.718c0.086,0.049,0.171,0.101,0.256,0.151C61.704,48.356,61.704,48.356,61.448,48.81z"/>
</svg>
