<?xml version="1.0" encoding="utf-8"?>
<!-- Generator: Adobe Illustrator 16.0.4, SVG Export Plug-In . SVG Version: 6.00 Build 0)  -->
<!DOCTYPE svg PUBLIC "-//W3C//DTD SVG 1.1//EN" "http://www.w3.org/Graphics/SVG/1.1/DTD/svg11.dtd">
<svg version="1.1" id="Layer_3913" xmlns="http://www.w3.org/2000/svg" xmlns:xlink="http://www.w3.org/1999/xlink" x="0px" y="0px"
	 width="128px" height="128px" viewBox="0 0 128 128" enable-background="new 0 0 128 128" xml:space="preserve">
<g>
	<path d="M65.623,127.781l-0.906-0.705C49.684,115.374,27.002,97.785,24.92,96.348l-0.446-0.148l-0.283-0.602
		c-0.348-0.752-0.648-1.394,15.837-42.169l0.379-0.929h48.422l10.149,30.183l-2.844,0.962L86.673,55.5H42.43
		c-5.509,13-13.772,34.433-15.193,38.864c2.524,1.842,10.706,8.076,38.415,29.644l25.225-19.009l1.805,2.396L65.623,127.781z
		 M26.056,93.564c0.062,0.021,0.16,0.067,0.548,0.338C26.459,93.76,26.277,93.641,26.056,93.564z"/>
	<path d="M82.591,53.804l-2.401-1.798l1.201,0.899l-1.227-0.863c0.672-1.014,10.966-19.744,17.721-32.086l2.633,1.44
		C96.476,28.779,83.239,52.938,82.591,53.804z"/>
	<path d="M90.271,58.925l-2.426-1.763c0.672-1.015,10.966-19.745,17.721-32.087l2.632,1.44C104.156,33.9,90.92,58.06,90.271,58.925z
		"/>
	<path d="M48.512,53.255c-9.908-16.433-25.421-41.432-26.749-42.955c0.015,0.017-0.263,0.424,0.737,0.424v-3
		c1,0,1.529,0,15.167,22.347c6.526,10.693,13.204,21.526,13.27,21.635L48.512,53.255z"/>
	<path d="M38.27,58.376C28.362,41.944,12.97,16.944,11.642,15.422c0.015,0.018-0.142,0.424,0.858,0.424v-3
		c1,0,1.408,0,15.046,22.347c6.526,10.693,13.143,21.526,13.208,21.635L38.27,58.376z"/>
	<path fill-rule="evenodd" clip-rule="evenodd" d="M94.402,96.867c0.191-6.498,5.479-10.464,10.993-8.251
		c3.417,1.373,4.563,4.271,4.895,7.57c0.622,6.193-4.134,10.686-9.882,9.46C96.6,104.832,94.268,101.422,94.402,96.867z
		 M97.232,96.94c0.027,0.989-0.004,1.982,0.329,2.938c0.87,2.5,2.731,3.853,5.106,3.705c2.238-0.145,3.875-1.613,4.438-4.121
		c0.371-1.658,0.379-3.352,0.004-5.017c-0.527-2.327-2.339-4.032-4.428-4.26c-2.018-0.22-3.974,1.226-4.941,3.551
		C97.303,94.782,97.264,95.852,97.232,96.94z"/>
	<path fill-rule="evenodd" clip-rule="evenodd" d="M100.489,9.087c0.191-6.499,5.479-10.464,10.993-8.251
		c3.418,1.373,4.564,4.271,4.895,7.57c0.623,6.194-4.134,10.686-9.881,9.46C102.688,17.052,100.354,13.642,100.489,9.087z
		 M103.32,9.16c0.027,0.989-0.004,1.983,0.328,2.938c0.871,2.501,2.732,3.854,5.107,3.706c2.238-0.146,3.875-1.613,4.438-4.121
		c0.371-1.659,0.379-3.352,0.004-5.017c-0.527-2.327-2.34-4.032-4.429-4.259c-2.017-0.221-3.974,1.225-4.94,3.55
		C103.391,7.002,103.352,8.071,103.32,9.16z"/>
</g>
</svg>
