<?xml version="1.0" encoding="utf-8"?>
<!-- Generator: Adobe Illustrator 16.0.4, SVG Export Plug-In . SVG Version: 6.00 Build 0)  -->
<!DOCTYPE svg PUBLIC "-//W3C//DTD SVG 1.1//EN" "http://www.w3.org/Graphics/SVG/1.1/DTD/svg11.dtd">
<svg version="1.1" id="Layer_3918" xmlns="http://www.w3.org/2000/svg" xmlns:xlink="http://www.w3.org/1999/xlink" x="0px" y="0px"
	 width="128px" height="128px" viewBox="0 0 128 128" enable-background="new 0 0 128 128" xml:space="preserve">
<path fill-rule="evenodd" clip-rule="evenodd" d="M91.224,112.832c-17.72-0.201-35.445-0.172-53.164-0.518
	c-16.337-0.318-36.843-1.088-37.592-22.452C0.116,79.842-0.229,39.308,2.956,30.468C9.72,11.691,31.471,15.277,47.361,15.713
	c17.904,0.491,35.814,0.5,53.724,0.704c24.55,0.278,27.444,18.904,26.523,39.321c-0.396,8.791-0.313,42.14-0.519,43.355
	C125.113,110.772,106.921,113.009,91.224,112.832z M52.484,43.347c-4.335-3.366-9.664-2.902-13.072-0.424
	c-3.561,2.588-5.208,7.303-3.997,11.542c1.246,4.364,5.1,7.452,9.278,7.774c0.379-0.592,0.925-1.047,1.544-1.418
	c1.095-0.655,2.282-1.088,3.502-1.44c1.855-0.537,3.75-0.874,5.659-1.15c2.219-0.321,4.454-0.503,6.69-0.562
	c3.948-0.104,7.889,0.053,11.804,0.631c2.198,0.325,4.378,0.75,6.483,1.472c1.738,0.597,3.476,1.224,4.605,2.796
	c3.406-0.118,7.314-2.429,8.936-6.54c1.591-4.034,0.862-8.685-2.417-11.676c-4.377-3.992-9.129-3.97-14.04-0.815
	c-3-4.291-7.086-6.731-12.397-6.774C59.755,36.717,55.619,39.077,52.484,43.347z M84.776,72.949
	c0.025-0.449,0.062-0.809,0.064-1.167c0.017-2.552,0.021-5.103,0.046-7.654c0.003-0.34-0.09-0.605-0.311-0.848
	c-0.475-0.521-1.028-0.935-1.653-1.263c-2.087-1.094-4.342-1.675-6.629-2.136c-2.447-0.492-4.924-0.776-7.417-0.927
	c-1.613-0.097-3.229-0.152-4.841-0.143c-1.317,0.008-2.64,0.067-3.959,0.147c-3.009,0.184-5.99,0.542-8.928,1.223
	c-1.686,0.39-3.323,0.919-4.84,1.775c-0.615,0.348-1.152,0.78-1.547,1.44c0.01,3.079-0.019,6.194-0.05,9.314
	c0.276-0.499,0.646-0.875,1.087-1.188c0.541-0.383,1.111-0.711,1.717-0.984c1.194-0.54,2.451-0.891,3.718-1.187
	c3.585-0.841,7.23-1.239,10.906-1.335c3.599-0.093,7.188,0.045,10.764,0.521c2.351,0.312,4.684,0.705,6.937,1.45
	C81.668,70.593,83.498,71.227,84.776,72.949z M64.755,82.619c-0.122,0.002-0.172-0.053-0.219-0.109
	c-1.113-1.348-2.569-2.158-4.199-2.705c-2.304-0.772-4.685-0.889-7.072-0.736c-2.703,0.17-5.33,0.779-7.875,1.721
	c-2.395,0.884-4.627,2.053-6.552,3.757c-0.26,0.229-0.517,0.466-0.779,0.835c0.269-0.076,0.428-0.116,0.583-0.166
	c2.034-0.656,4.113-1.09,6.25-1.211c1.605-0.092,3.187,0.076,4.746,0.473c1.611,0.408,3.11,1.097,4.591,1.829
	c1.188,0.587,2.398,1.112,3.715,1.335c1.727,0.291,3.396,0.16,4.982-0.659c0.624-0.323,1.161-0.765,1.71-1.161
	c0.223,0.039,0.328,0.204,0.469,0.316c0.856,0.68,1.779,1.228,2.857,1.484c2.068,0.491,4.045,0.155,5.962-0.674
	c0.741-0.32,1.469-0.671,2.199-1.016c2.308-1.086,4.726-1.707,7.285-1.684c1.938,0.018,3.83,0.377,5.694,0.883
	c0.662,0.18,1.316,0.387,2.004,0.59c-0.062-0.244-0.219-0.353-0.346-0.48c-0.768-0.769-1.617-1.439-2.536-2.02
	c-3.54-2.234-7.432-3.464-11.567-3.933c-2.442-0.276-4.875-0.176-7.26,0.505c-1.3,0.371-2.516,0.905-3.566,1.783
	C65.439,81.904,65.102,82.287,64.755,82.619z M58.033,69.53c-2.377,0.042-4.262,1.932-4.2,4.259
	c0.066,2.504,1.944,4.228,4.211,4.197c2.59-0.035,4.31-2.08,4.234-4.418C62.207,71.39,60.397,69.473,58.033,69.53z M72.588,69.646
	c-2.517-0.009-4.283,2.122-4.193,4.311c0.105,2.562,2.092,4.164,4.277,4.115c2.441-0.053,4.189-2.139,4.145-4.272
	C76.768,71.43,74.885,69.584,72.588,69.646z"/>
</svg>
