<?xml version="1.0" encoding="utf-8"?>
<!-- Generator: Adobe Illustrator 16.0.4, SVG Export Plug-In . SVG Version: 6.00 Build 0)  -->
<!DOCTYPE svg PUBLIC "-//W3C//DTD SVG 1.1//EN" "http://www.w3.org/Graphics/SVG/1.1/DTD/svg11.dtd">
<svg version="1.1" id="Layer_3919" xmlns="http://www.w3.org/2000/svg" xmlns:xlink="http://www.w3.org/1999/xlink" x="0px" y="0px"
	 width="128px" height="128px" viewBox="0 0 128 128" enable-background="new 0 0 128 128" xml:space="preserve">
<g id="YEUaDY.tif">
	<g>
		<path fill-rule="evenodd" clip-rule="evenodd" d="M87.362,101.114c-10.813,0-21.628,0.009-32.442-0.003
			c-8.862-0.01-17.724-0.05-26.585-0.066c-2.333-0.005-4.666,0.074-6.998,0.026c-2.62-0.052-3.424-0.778-4.04-3.273
			c-3.166-12.822-6.352-25.641-9.515-38.464c-0.799-3.243-1.512-6.507-2.323-9.747c-0.406-1.618-0.896-3.196,0.621-4.527
			c-0.692-1.256-3.117-0.434-3.082-2.687c0.016-1.033-1.077-0.52-1.682-0.651c-0.423-0.091-1.129,0.136-1.155-0.431
			c-0.034-0.767,0.744-0.617,1.249-0.662c1.42-0.125,2.788,0.254,4.149,0.546c14.581,3.135,29.149,6.323,43.733,9.438
			c3.613,0.771,4.746,0.076,5.841-3.418c5.49-17.509,25.643-25.553,41.592-16.664c5.604,3.123,9.863,7.566,12.437,13.458
			c0.751,1.721,1.691,2.262,3.506,2.191c3.651-0.142,7.312-0.072,10.97-0.027c3.256,0.04,4.39,1.237,4.181,4.401
			c-0.921,13.962-1.865,27.922-2.793,41.884c-0.103,1.551-0.071,3.114-0.223,4.662c-0.305,3.096-1.211,3.907-4.289,3.974
			c-1.322,0.029-2.646,0.016-3.969,0.016c-9.726,0.001-19.453,0-29.181,0C87.362,101.098,87.362,101.106,87.362,101.114z
			 M47.006,74.338c2.527,0.072,6.019-0.566,9.352-2.014c1.8-0.78,1.766-0.772,0.89-2.458c-2.18-4.199-3.461-8.643-3.513-13.398
			c-0.015-1.321,0.049-2.644,0.104-3.964c0.022-0.537-0.009-0.952-0.721-0.758c-2.218,0.606-4.313-0.177-6.427-0.605
			c-8.447-1.717-16.81-3.832-25.293-5.378c-1.867-0.34-3.012,0.564-2.84,2.44c0.269,2.938,0.691,5.877,1.783,8.641
			C24.484,67.336,34.685,74.29,47.006,74.338z M64.264,56.286c0.045,1.583,0.4,3.576,1.093,5.474
			c0.358,0.982,0.511,2.847,1.767,2.451c1.436-0.45,0.448-2.008,0.101-3.048c-1.691-5.057-1.147-9.984,1.803-14.271
			c6.422-9.327,18.214-9.415,24.936-2.865c0.612,0.596,1.183,1.242,1.844,1.775c0.582,0.467,1.437,0.606,1.905,0.068
			c0.375-0.429-0.312-0.961-0.645-1.354c-4.449-5.271-10.107-7.53-16.953-6.601C71.049,39.145,64.335,46.78,64.264,56.286z
			 M83.126,46.145c0-0.002,0-0.004,0-0.006c2.484,0,4.968,0.021,7.45-0.018c0.482-0.008,1.216,0.357,1.404-0.321
			c0.116-0.415-0.541-0.677-0.896-0.956c-6.078-4.745-15.266-3.291-19.778,3.133c-2.472,3.521-3.065,7.382-2.037,11.524
			c0.072,0.286,0.085,0.669,0.434,0.749c0.368,0.084,0.514-0.277,0.662-0.525c0.242-0.396,0.44-0.819,0.655-1.232
			c1.756-3.37,2.392-7.032,2.691-10.757c0.098-1.21,0.586-1.619,1.729-1.603C78.002,46.17,80.562,46.145,83.126,46.145z
			 M77.722,55.959c0.038,2.715,2.436,5.098,5.058,5.023c2.62-0.074,5.073-2.581,5.014-5.126c-0.066-2.787-2.287-4.908-5.131-4.896
			C79.787,50.973,77.684,53.1,77.722,55.959z"/>
	</g>
</g>
</svg>
