<?xml version="1.0" encoding="utf-8"?>
<!-- Generator: Adobe Illustrator 16.0.4, SVG Export Plug-In . SVG Version: 6.00 Build 0)  -->
<!DOCTYPE svg PUBLIC "-//W3C//DTD SVG 1.1//EN" "http://www.w3.org/Graphics/SVG/1.1/DTD/svg11.dtd">
<svg version="1.1" id="Layer_3920" xmlns="http://www.w3.org/2000/svg" xmlns:xlink="http://www.w3.org/1999/xlink" x="0px" y="0px"
	 width="128px" height="128px" viewBox="0 0 128 128" enable-background="new 0 0 128 128" xml:space="preserve">
<g id="xvNI0v.tif">
	<g>
		<path fill-rule="evenodd" clip-rule="evenodd" d="M105.464,49.888c0.08,7.884,0.263,14.601,0.387,21.316
			c0.091,4.83,0.059,9.665,0.261,14.489c0.197,4.739,0.088,9.48,0.274,14.213c0.137,3.45,0.174,6.898,0.217,10.348
			c0.021,1.645-0.003,1.643-1.572,1.999c-17.081,3.888-34.161,7.774-51.242,11.663c-5.693,1.297-11.39,2.578-17.073,3.916
			c-0.87,0.205-1.463,0.041-2.1-0.555c-3.463-3.236-6.944-6.455-10.454-9.641c-0.78-0.707-1.088-1.461-1.097-2.522
			c-0.076-8.745-0.136-17.49-0.355-26.231c-0.135-5.384-0.077-10.771-0.272-16.15c-0.22-6.073-0.164-12.147-0.311-18.22
			c-0.155-6.392-0.106-12.788-0.304-19.178c-0.165-5.337-0.062-10.676-0.247-16.009c-0.084-2.437-0.127-4.873-0.177-7.31
			c-0.029-1.387,0.061-1.486,1.41-1.691c4.451-0.679,8.907-1.332,13.36-1.998c5.817-0.87,11.634-1.739,17.45-2.616
			c5.816-0.877,11.63-1.764,17.446-2.644c6.451-0.976,12.904-1.94,19.354-2.936c0.723-0.112,1.344-0.035,1.978,0.334
			c3.775,2.203,7.555,4.399,11.353,6.562c0.693,0.395,0.945,0.882,0.943,1.662c-0.014,6.259,0.223,12.514,0.324,18.77
			c0.084,5.152,0.105,10.308,0.275,15.457C105.381,45.629,105.416,48.342,105.464,49.888z M93.552,2.037
			c-0.095-0.094-0.188-0.188-0.281-0.282c-0.185-0.091-0.37-0.181-0.555-0.272c-0.185-0.092-0.369-0.184-0.554-0.275
			c-0.59-0.64-1.316-0.501-2.057-0.388c-5.22,0.798-10.44,1.587-15.661,2.378C68.542,4.093,62.641,4.992,56.738,5.88
			c-5.769,0.868-11.54,1.714-17.308,2.587c-5.267,0.797-10.53,1.614-15.794,2.429c-0.257,0.04-0.631-0.08-0.74,0.202
			c-0.113,0.297,0.236,0.459,0.437,0.624c3.236,2.654,6.481,5.297,9.714,7.955c0.54,0.443,1.128,0.581,1.8,0.476
			c1.679-0.263,3.358-0.521,5.038-0.781c0.136-0.021,0.273-0.034,0.409-0.05c-0.087-0.22-0.3-0.169-0.458-0.186
			c-1.577-0.17-3.112,0.227-4.646,0.458c-0.887,0.133-1.496-0.079-2.131-0.603c-1.56-1.289-3.143-2.551-4.713-3.828
			c-1.249-1.016-2.495-2.036-3.738-3.059c-0.203-0.167-0.529-0.304-0.426-0.625c0.095-0.294,0.429-0.314,0.699-0.355
			c0.772-0.117,1.546-0.218,2.318-0.333c6.902-1.037,13.806-2.066,20.706-3.117C53.624,6.803,59.338,5.9,65.057,5.025
			c7.171-1.097,14.34-2.208,21.521-3.249c1.853-0.269,3.687-0.828,5.597-0.582c0.184,0.092,0.369,0.184,0.553,0.275
			c0.141,0.184,0.346,0.232,0.555,0.273c0.095,0.094,0.188,0.188,0.282,0.282c0.185,0.089,0.37,0.18,0.556,0.27
			c0.351,0.452,0.834,0.685,1.371,0.832c0.148,0.17,0.338,0.257,0.562,0.273c0.186,0.313,0.48,0.466,0.818,0.556
			c0.151,0.163,0.336,0.259,0.561,0.273c0.346,0.469,0.844,0.685,1.384,0.829c0.987,0.839,2.089,1.486,3.301,1.944
			c0.302,0.627-0.196,0.71-0.583,0.791c-0.766,0.159-1.557,0.202-2.309,0.402c-2.604,0.694-3.934,1.382-3.93,4.75
			c0,0.414,0,0.828,0,1.242c0,18.597,0,37.194-0.002,55.791c-0.001,3.615-0.636,4.431-4.157,5.18
			c-3.33,0.708-6.667,1.381-10.007,2.037c-11.512,2.264-22.968,4.8-34.511,6.904c-0.119,0.021-0.23,0.085-0.345,0.128
			c0.133,0.024,0.266,0.069,0.4,0.071c0.828,0.009,1.648-0.007,2.471-0.174c14.378-2.92,28.76-5.816,43.137-8.743
			c3.522-0.718,3.974-1.327,3.974-4.925c0.001-19.056,0.001-38.114,0.001-57.17c0-0.415-0.021-0.831,0.01-1.242
			c0.104-1.399,0.688-2.433,2.104-2.928c1.309-0.457,2.657-0.723,4.002-1.024c0.347-0.078,0.923,0.079,0.993-0.273
			c0.092-0.47-0.537-0.489-0.85-0.706c-0.107-0.074-0.262-0.079-0.395-0.115c-0.993-0.837-2.104-1.471-3.32-1.923
			c-0.353-0.457-0.849-0.674-1.381-0.831C97.281,4.053,97.076,4,96.858,3.971c-0.185-0.314-0.477-0.472-0.817-0.557
			c-0.146-0.178-0.352-0.234-0.564-0.272c-0.35-0.453-0.854-0.653-1.369-0.833C93.922,2.218,93.737,2.128,93.552,2.037z
			 M91.287,12.495c0-0.322,0.007-0.645,0-0.966c-0.067-2.896,0.096-5.795-0.17-8.691c-0.082-0.898-0.459-1.095-1.236-0.965
			c-1.27,0.211-2.54,0.41-3.812,0.604c-5.813,0.888-11.626,1.774-17.44,2.658C62.814,6.02,57,6.902,51.185,7.785
			c-5.132,0.778-10.264,1.555-15.397,2.33c-3.134,0.473-6.27,0.94-9.405,1.41c-0.276,0.042-0.634,0.082-0.726,0.322
			c-0.114,0.298,0.244,0.445,0.45,0.613c2.425,1.977,4.858,3.943,7.274,5.932c0.605,0.498,1.187,0.72,2.014,0.535
			c1.115-0.25,2.271-0.35,3.416-0.427c2.941-0.198,4.081,0.828,4.169,3.749c0.216,7.219,0.39,14.44,0.623,21.659
			c0.227,7.033,0.55,14.064,0.75,21.097c0.161,5.657,0.312,11.312,0.584,16.965c0.069,1.446,0.261,1.596,1.666,1.394
			c2.688-0.386,5.33-1.014,7.989-1.55c11.901-2.404,23.801-4.826,35.7-7.246c1.906-0.388,1.947-0.398,1.898-2.312
			c-0.14-5.428-0.008-10.856-0.236-16.285c-0.256-6.067-0.129-12.144-0.266-18.217C91.498,29.336,91.459,20.914,91.287,12.495z
			 M92.832,65.363c0,2.324-0.006,4.809,0.008,7.292c0.002,0.344-0.172,0.853,0.263,0.976c0.419,0.118,0.769-0.248,1-0.602
			c0.308-0.468,0.464-1.002,0.485-1.562c0.027-0.735,0.041-1.472,0.042-2.208c0.002-18.585,0.001-37.171,0.003-55.758
			c0-0.642-0.002-1.281,0.098-1.925c0.271-1.744,1.137-2.953,2.857-3.541c0.832-0.284,1.653-0.546,2.53-0.631
			c0.169-0.017,0.425-0.121,0.464-0.242c0.061-0.183-0.184-0.276-0.336-0.367c-0.356-0.211-0.718-0.413-1.074-0.623
			c-2.178-1.286-4.348-2.584-6.537-3.853c-0.813-0.472-0.934-0.386-0.894,0.548c0.027,0.642,0.145,1.28,0.159,1.921
			c0.135,5.93,0.015,11.862,0.256,17.793c0.241,5.925,0.127,11.86,0.258,17.791C92.598,48.649,92.629,56.927,92.832,65.363z"/>
		<polygon fill-rule="evenodd" clip-rule="evenodd" points="105.148,110.875 105.196,110.907 105.162,110.863 		"/>
		<path fill-rule="evenodd" clip-rule="evenodd" d="M49.645,16.11c0.123,0.018,0.217,0.021,0.304,0.046
			c0.598,0.171,1.27,0.444,1.281,1.096c0.018,1.119,1.45,1.94,0.814,3.106c-0.218,0.399-0.67,1.191-1.097,1.309
			c-0.456,0.125-0.979-0.223-1.43-0.161c-0.799,0.109-1.644-0.235-2.126-1.038c-0.277-0.461-0.448-1.06-0.079-1.428
			c0.847-0.846,0.267-2.641,1.955-2.883C49.402,16.137,49.539,16.124,49.645,16.11z"/>
		<path fill-rule="evenodd" clip-rule="evenodd" d="M77.031,17.579c-0.766,0.032-1.446-0.17-2.006-0.717
			c-0.269-0.263-0.469-0.568-0.531-0.939c-0.121-0.722,1.232-2.988,1.93-3.265c0.4-0.158,0.793-0.174,1.204-0.041
			c0.779,0.252,2.032,2.513,1.867,3.393C79.328,16.898,78.274,17.57,77.031,17.579z"/>
		<path fill-rule="evenodd" clip-rule="evenodd" d="M24.997,116.071c-0.112-0.017-0.159-0.084-0.089-0.136
			c0.053-0.04,0.152-0.025,0.229-0.019c0.029,0.003,0.053,0.052,0.08,0.08C25.143,116.021,25.07,116.047,24.997,116.071z"/>
	</g>
</g>
</svg>
