<?xml version="1.0" encoding="utf-8"?>
<!-- Generator: Adobe Illustrator 16.0.4, SVG Export Plug-In . SVG Version: 6.00 Build 0)  -->
<!DOCTYPE svg PUBLIC "-//W3C//DTD SVG 1.1//EN" "http://www.w3.org/Graphics/SVG/1.1/DTD/svg11.dtd">
<svg version="1.1" id="Layer_3921" xmlns="http://www.w3.org/2000/svg" xmlns:xlink="http://www.w3.org/1999/xlink" x="0px" y="0px"
	 width="128px" height="128px" viewBox="0 0 128 128" enable-background="new 0 0 128 128" xml:space="preserve">
<g>
	<path d="M48.997,39.917l-0.168-2.186l-1.159-1.366l-7.807-1.698l-7.808-6.619c0,0-1.358-2.037-1.528-2.546l4.074-3.055l5.771-5.431
		l14.597,1.357l6.789,0.17l6.619-7.637l4.753-4.414l5.771,1.358l6.788,5.431l5.262,2.886l1.019,4.583l-8.146,5.771l-11.712,6.28
		l-5.771,6.619l0.897,2.01"/>
	<g>
		<path d="M90.951,68.678l1.019-1.592l0.339-5.77l-2.376-11.372l-2.885-2.886l-9.675-0.849l-9.165-3.904l-0.339-2.037l-18.776-0.665
			l-10.81,2.72c0,0-7.103,2.221-7.103,2.73s-9.662,8.857-9.662,8.857s3.401,26.882,3.401,26.542c0-0.341-2.712,32.885-2.373,33.395
			c0.34,0.509,3.057,9.158,3.057,9.158l2.039,4.493h61.742l2.756-5.687l-0.509-16.755L90.951,68.678z M24.608,113.445l-0.361-0.361
			l-0.473-0.189c0.243-0.729,3.873-18.111,6.253-29.617l1.522-11.504l1.012,0.134l-1.528,11.539
			C24.886,113.166,24.751,113.302,24.608,113.445z M33.921,122.631l-1.017-0.085l0.709-8.284l4.892-12.986l0.163-9.095l-1.285-0.644
			l-3.34,7.001l-6.05,15.8l0.835,7.686l-1.015,0.111l-0.862-7.93l6.155-16.07l3.804-7.975l2.79,1.394l-0.208,9.999l-4.896,13.002
			L33.921,122.631z M51.79,122.404l-4.947-1.236l-5.019-7.696l-1.512,0.253c-1.937,2.481-4.041,5.264-4.216,5.65l-0.961-0.342
			c0.172-0.517,2.89-4.039,4.495-6.095l0.122-0.156l2.562-0.427l5.165,7.92l4.558,1.14L51.79,122.404z M88.196,72.08l-1.703,7.609
			l-2.886,6.281l-3.299,9.244l4.468,7.944c0.426,0.973,3.959,9.13,4.133,10.181l-1.007,0.167c-0.117-0.697-2.539-6.438-4.038-9.895
			l-4.674-8.304l3.474-9.723l2.88-6.272l1.714-7.716l2.178-2.438l0.762,0.679L88.196,72.08z"/>
	</g>
	<path d="M31.027,25.603l-1-0.2l1.384-6.917l6.458-7.655c6.772-4.837,7.698-5.083,8.024-5.012
		c0.991-0.024,11.347-2.032,18.141-3.391l12.484-2.254l9.692,9.173l4.298,5.664l-0.813,0.616l-4.242-5.602L76.191,1.27L64.225,3.43
		C49.259,6.424,46.44,6.809,45.826,6.824c-0.556,0.134-4.143,2.537-7.312,4.799l-6.154,7.319L31.027,25.603z"/>
	<path d="M46.346,16.576l-3.31-2.482c-0.591-0.141-3.535-0.842-4.146-0.996l0.249-0.99c0.678,0.169,4.237,1.017,4.237,1.017
		l0.188,0.088l3.395,2.546L46.346,16.576z"/>
	<polygon points="50.661,16.926 49.771,16.427 53.822,9.302 59.49,5.229 65.634,7.955 67.84,9.652 67.218,10.461 65.06,8.802 
		59.612,6.398 54.51,10.066 	"/>
	<path d="M106.204,65.608c-3.772-3.01-6.703-6.889-8.835-9.931c-0.54-0.771-0.938-1.504-1.32-2.213
		c-0.595-1.1-1.154-2.139-2.18-3.143c-1.489-1.463-2.941-2.749-4.569-4.048c-0.427-0.342-0.795-0.681-1.137-0.998
		c-1.067-0.987-1.778-1.644-3.451-1.61c-1.333,0.014-2.472-0.19-3.577-0.394c-0.611-0.113-1.231-0.229-1.899-0.308
		c-0.857-0.102-1.727-0.062-2.646-0.021c-1.116,0.05-2.271,0.104-3.401-0.122c-0.542-0.108-1.095-0.398-1.629-0.679
		c-0.605-0.317-1.23-0.646-1.798-0.691l-0.578-0.047l0.098-0.459c-0.692,0.311-1.417,0.556-2.193,0.671l-0.15-1.01
		c1.479-0.22,2.824-1.02,4.126-1.794c0.604-0.358,1.228-0.731,1.851-1.033c1.113-0.541,1.702-1.204,2.527-2.399
		c0.853-1.233,1.58-1.476,2.5-1.785c0.328-0.109,0.697-0.232,1.13-0.422c0.742-0.328,1.11-0.927,1.537-1.621
		c0.412-0.67,0.879-1.431,1.751-1.979c1.087-0.686,2.338-0.893,3.547-1.092c0.479-0.08,0.953-0.157,1.402-0.266
		c0.53-0.128,1.049-0.314,1.552-0.495c1.214-0.435,2.468-0.885,3.976-0.581c1.617,0.328,3.841,0.985,4.464,2.911
		c0.803,2.472,0.733,6.814-1.48,8.539l-0.37,0.29c-1.753,1.372-4.4,3.446-6.393,3.983c-0.688,0.185-1.422,0.218-2.157,0.201
		c0.756,0.351,1.331,0.885,1.957,1.463c0.326,0.301,0.674,0.624,1.081,0.949c1.655,1.321,3.133,2.629,4.648,4.117
		c1.134,1.112,1.73,2.216,2.362,3.386c0.369,0.684,0.751,1.391,1.256,2.113c2.095,2.987,4.967,6.79,8.637,9.72L106.204,65.608z
		 M77.597,40.557c0.377,0,0.766,0.04,1.167,0.193c0.462,0.178,0.771,0.462,1.044,0.711c0.293,0.269,0.524,0.48,0.917,0.561
		c0.719,0.149,1.652,0.079,2.554,0.012c0.949-0.07,1.764-0.076,2.654-0.031c0.987,0.049,2.008,0.101,2.856-0.127
		c1.791-0.483,4.445-2.56,6.03-3.801l0.372-0.292c1.752-1.366,1.844-5.241,1.136-7.418c-0.458-1.417-2.328-1.949-3.694-2.225
		c-1.228-0.249-2.296,0.134-3.43,0.541c-0.527,0.189-1.072,0.385-1.654,0.526c-0.475,0.114-0.973,0.197-1.478,0.281
		c-1.107,0.183-2.256,0.373-3.169,0.948c-0.67,0.422-1.038,1.019-1.425,1.65c-0.473,0.77-0.962,1.565-1.995,2.021
		c-0.468,0.206-0.864,0.339-1.218,0.457c-0.854,0.286-1.326,0.443-1.983,1.396c-0.777,1.125-1.485,2.04-2.922,2.737
		c-0.444,0.216-0.885,0.466-1.34,0.734c0.535,0.042,1.038,0.176,1.395,0.366c1.312,0.7,1.59,0.844,3.112,0.807
		c0.149-0.003,0.297-0.012,0.446-0.021C77.178,40.569,77.386,40.557,77.597,40.557z M70.695,40.62
		c0.46,0.158,0.903,0.391,1.338,0.618c0.492,0.259,0.957,0.502,1.354,0.582c1.007,0.2,2.051,0.152,3.156,0.103
		c0.721-0.033,1.463-0.067,2.204-0.025c-0.107-0.078-0.221-0.145-0.351-0.194c-0.417-0.16-0.857-0.133-1.363-0.103
		c-0.159,0.009-0.321,0.019-0.482,0.022c-1.797,0.039-2.253-0.199-3.608-0.922c-0.526-0.28-1.616-0.374-2.242-0.083
		C70.699,40.618,70.697,40.619,70.695,40.62z"/>
</g>
</svg>
