<?xml version="1.0" encoding="utf-8"?>
<!-- Generator: Adobe Illustrator 16.0.4, SVG Export Plug-In . SVG Version: 6.00 Build 0)  -->
<!DOCTYPE svg PUBLIC "-//W3C//DTD SVG 1.1//EN" "http://www.w3.org/Graphics/SVG/1.1/DTD/svg11.dtd">
<svg version="1.1" id="Layer_3923" xmlns="http://www.w3.org/2000/svg" xmlns:xlink="http://www.w3.org/1999/xlink" x="0px" y="0px"
	 width="128px" height="128px" viewBox="0 0 128 128" enable-background="new 0 0 128 128" xml:space="preserve">
<path fill-rule="evenodd" clip-rule="evenodd" d="M63.884,0.167C75.489,0.152,86.697,0.762,97.82,2.52
	c6.057,0.958,12.053,2.18,17.767,4.509c1.903,0.777,3.701,1.741,5.307,3.023c1.832,1.463,2.927,3.26,2.799,5.752
	c-0.13,2.502-0.126,5.021,0.001,7.523c0.111,2.243-0.645,4.078-2.361,5.375c-1.276,0.965-1.555,2.11-1.65,3.575
	c-0.496,7.687-1.119,15.365-2.13,23.004c-1.972,14.913-4.468,29.719-9.493,43.971c-2.104,5.967-4.655,11.732-8.169,17.036
	c-1.289,1.944-2.817,3.688-4.345,5.435c-1.776,2.031-4.05,3.203-6.648,3.829c-4.252,1.025-8.572,1.586-12.925,1.918
	c-9.694,0.739-19.381,0.302-29.024-0.667c-3.343-0.336-6.757-0.86-9.92-2.348c-2.823-1.324-4.656-3.642-6.466-5.967
	c-4.091-5.256-6.857-11.239-9.141-17.451c-4.309-11.723-6.865-23.87-8.804-36.177c-1.387-8.807-2.292-17.664-3.12-26.531
	c-0.19-2.033-0.237-4.082-0.256-6.125c-0.01-1.128-0.37-1.908-1.359-2.524c-2.701-1.685-3.783-4.157-3.557-7.339
	c0.151-2.125,0.098-4.274,0.012-6.407c-0.112-2.801,1.189-4.783,3.367-6.334c2.761-1.966,5.872-3.202,9.086-4.133
	C24.21,3.318,31.8,2.077,39.49,1.345C47.725,0.562,55.966,0.084,63.884,0.167z M82.945,47.211c0.835-0.433,0.74-1.234,0.681-1.943
	c-0.078-0.96-0.368-1.939-1.597-1.842c-1.008,0.081-1.323,0.916-1.336,1.815c-0.007,0.547-0.042,1.173,0.195,1.627
	c0.509,0.972,1.248,1.369,2.11,0.288L82.945,47.211z M77.414,110.708c-0.2,0.167-0.499,0.293-0.584,0.507
	c-0.501,1.249-0.212,2.695,0.624,3.191c0.509,0.302,1.052,0.294,1.546-0.059c0.692-0.494,0.95-2.329,0.48-3.324
	c-0.038-0.083-0.062-0.18-0.121-0.242c-0.657-0.684-1.322-1.007-2-0.021L77.414,110.708z M52.883,46.589
	c-0.399,0.103-0.584,0.415-0.714,0.762c-0.438,1.168-0.16,2.188,0.802,2.939c0.46,0.358,1.101,0.282,1.517-0.157
	c0.863-0.909,0.83-2.065,0.406-3.093c-0.389-0.945-1.145-1.479-2.066-0.398L52.883,46.589z M53.425,62.252
	c-1.279,0.45-1.315,0.584-0.6,2.233l0.055-0.054c-0.732,0.375-0.811,0.943-0.361,1.552c0.42,0.566,1.036,0.693,1.694,0.431
	c0.536-0.212,1.079-0.638,0.865-1.19c-0.342-0.887,0.05-1.768-0.192-2.608c-0.114-0.395-0.554-0.39-0.923-0.364
	C53.784,61.933,53.604,61.974,53.425,62.252z M77.408,76.701c-1.083,0.609-0.336,1.672-0.568,2.502
	c-0.288,1.033,0.508,1.428,1.493,1.38c0.896-0.047,1.356-0.471,1.241-1.4c-0.067-0.525-0.186-1.018-0.159-1.584
	c0.062-1.349-0.327-1.463-2.06-0.841L77.408,76.701z M77.403,61.658c-0.501,0.552-1.458,1.063,0.02,1.646
	c2.231,0.881,2.217,0.914,2.041-1.407c-0.028-0.37,0.008-0.75-0.071-1.109c-0.159-0.737-0.662-0.866-1.226-0.475
	c-0.46,0.319-0.737,0.822-0.813,1.403L77.403,61.658z M52.874,95.666c-0.551,0.643-1.733,1.354,0.196,1.725
	c0.26,0.051,0.516,0.161,0.754,0.283c0.879,0.45,1.45,0.236,1.408-0.604c-0.042-0.81-0.15-1.632-0.361-2.413
	c-0.19-0.707-0.784-0.711-1.288-0.343c-0.448,0.326-0.684,0.844-0.759,1.41L52.874,95.666z M60.015,25.961
	c15.13-0.023,26.142-0.638,37.075-2.33c5.966-0.922,11.853-2.194,17.493-4.421c1.564-0.617,3.071-1.346,4.296-2.519
	c1.296-1.24,1.302-2.329,0.08-3.598c-0.784-0.813-1.746-1.371-2.758-1.854c-3.535-1.694-7.281-2.741-11.082-3.615
	C94.132,5.099,82.945,4.288,71.727,3.832C64.025,3.52,56.327,3.76,48.632,4.22c-6.763,0.404-13.493,1.082-20.16,2.291
	c-5.385,0.976-10.745,2.076-15.783,4.339c-1.19,0.534-2.36,1.097-3.331,1.984c-1.653,1.51-1.634,2.688,0.118,4.139
	c1.52,1.258,3.313,2.024,5.15,2.702c6.747,2.489,13.784,3.704,20.871,4.602C44.987,25.479,54.526,25.99,60.015,25.961z
	 M67.555,35.456c3.883,0.039,11.198-0.352,18.509-1c7.407-0.656,14.738-1.738,21.938-3.592c3.05-0.785,6.041-1.79,8.876-3.233
	c2.37-1.205,3.401-2.981,3.065-5.634c-0.12-0.957-0.252-1.418-1.3-0.822c-1.939,1.107-4.004,1.938-6.132,2.623
	c-6.384,2.057-12.956,3.115-19.583,4.059c-9.683,1.378-19.422,1.709-29.153,1.713c-9.734,0.003-19.475-0.371-29.152-1.768
	c-8.747-1.263-17.446-2.583-25.416-6.722c-0.66-0.343-0.992-0.277-1.104,0.533c-0.423,3.057,0.179,4.382,2.968,5.933
	c1.21,0.673,2.509,1.206,3.807,1.696c4.271,1.609,8.709,2.611,13.188,3.397C39.982,34.73,52.015,35.441,67.555,35.456z
	 M64.655,81.76c-0.003,0-0.006,0-0.01,0c0,10.118-0.001,20.235,0.001,30.354c0.001,1.67,0.007,3.342,0.025,5.012
	c0.006,0.565,0.05,1.195,0.809,1.197c0.77,0.002,0.852-0.658,0.799-1.2c-0.229-2.393,0.061-4.257,3.224-3.818
	c0.507,0.07,0.66-0.547,0.6-1.048c-0.055-0.457-0.376-0.599-0.778-0.603c-0.371-0.003-0.742,0.041-1.113,0.027
	c-0.838-0.029-1.843,0.024-1.831-1.161c0.011-0.983-0.652-2.34,1.021-2.726c0.469-0.109,0.912-0.184,0.952-0.79
	c0.051-0.741-0.476-0.797-1.014-1.033c-1.256-0.552-1.465-2.822-0.411-3.607c1.451-1.083,1.46-1.098,0.079-1.976
	c-1.135-0.723-0.642-1.812-0.619-2.761c0.02-0.862,0.754-0.854,1.418-0.97c0.79-0.137,2.187,0.599,2.181-0.861
	c-0.004-1.198-1.297-0.666-2.034-0.771c-0.781-0.111-1.595-0.188-1.574-1.165c0.023-0.983-0.617-2.185,1.034-2.741
	c1.348-0.456,1.29-0.874,0.06-1.644c-1.67-1.045-1.641-2.997,0.06-3.936c1.075-0.593,1.167-1.215,0.051-1.56
	c-1.788-0.551-1.244-1.859-1.201-2.946c0.048-1.215,1.115-0.97,1.917-1.018c0.37-0.023,0.741-0.023,1.11-0.064
	c0.423-0.046,0.658-0.326,0.667-0.732c0.008-0.4-0.195-0.729-0.613-0.788c-0.548-0.076-1.106-0.103-1.662-0.118
	c-0.859-0.021-1.501-0.349-1.438-1.288c0.062-0.914-0.587-2.153,0.905-2.551c0.548-0.146,1.142-0.163,1.059-0.962
	c-0.063-0.617-0.562-0.647-1.012-0.73c-1.2-0.218-0.998-1.171-0.991-1.97c0.007-0.795-0.138-1.563,1.002-1.985
	c1.39-0.514,1.439-1.158,0.211-1.581c-1.758-0.604-1.204-1.904-1.148-2.982c0.062-1.214,1.165-0.877,1.946-0.983
	c0.657-0.088,1.734,0.324,1.694-0.825c-0.038-1.102-1.098-0.679-1.762-0.772c-0.621-0.087-1.405,0.181-1.758-0.517
	c-0.386-0.762-0.221-1.637-0.142-2.464c0.065-0.677,0.567-0.876,1.171-0.945c0.521-0.059,0.843-0.336,0.801-0.91
	c-0.033-0.438-0.308-0.683-0.705-0.704c-1.35-0.073-1.333-1.016-1.326-1.984c0.007-0.951-0.027-1.757,1.287-2.053
	c0.98-0.221,1.043-1.291,0.205-1.423c-2.111-0.333-1.479-1.845-1.424-2.998c0.068-1.408,1.303-0.962,2.154-1.062
	c0.276-0.032,0.556-0.031,0.832-0.061c0.418-0.045,0.671-0.284,0.703-0.704c0.043-0.585-0.316-0.846-0.834-0.861
	c-1.113-0.034-2.227-0.023-3.339-0.033c-0.782-0.007-1.216,0.344-1.218,1.158c-0.002,0.649-0.019,1.299-0.02,1.948
	C64.655,59.301,64.655,70.53,64.655,81.76z M62.896,83.162c0.026,0,0.053,0,0.08,0c0-8.257,0.007-16.514-0.003-24.771
	c-0.004-2.969-0.041-5.938-0.088-8.906c-0.01-0.61,0.188-1.524-0.665-1.599c-1.561-0.137-3.144-0.063-4.715-0.013
	c-0.407,0.014-0.552,0.409-0.521,0.832c0.024,0.334,0.244,0.499,0.498,0.586c0.257,0.088,0.546,0.088,0.822,0.115
	c2.916,0.284,2.917,0.283,2.917,3.16c0,0.371-0.086,0.767,0.012,1.109c0.419,1.448-1.224,1.664-1.51,2.592
	c-0.371,1.203,2.037,0.944,1.512,2.556c-0.271,0.834-0.03,1.835-0.022,2.761c0.018,2.119-0.033,2.176-2.09,2.298
	c-0.463,0.028-0.931,0.004-1.389,0.059c-0.372,0.044-0.721,0.19-0.756,0.654c-0.045,0.595,0.321,0.834,0.832,0.869
	c0.647,0.047,1.299,0.026,1.947,0.049c0.467,0.017,0.929,0.062,1.232,0.492c0.391,0.554,0.441,5.074-0.125,5.409
	c-1.396,0.824-1.668,1.39,0.001,2.166c0.409,0.189,0.347,0.819,0.351,1.283c0.005,0.835,0.02,1.671,0.002,2.506
	c-0.046,2.16-0.057,2.118-2.11,2.298c-0.792,0.068-2.177-0.562-2.102,0.972c0.064,1.286,1.283,0.63,2.019,0.715
	c0.716,0.085,1.684-0.18,1.983,0.629c0.488,1.317,0.147,2.754,0.204,4.138c0.029,0.714-0.2,1.219-0.91,1.541
	c-0.598,0.272-0.83,1.104-0.333,1.349c1.563,0.766,1.241,2.082,1.249,3.331c0.02,3.019,0.013,3.021-3,3.344
	c-0.549,0.059-1.191,0.021-1.229,0.79c-0.041,0.766,0.556,0.849,1.132,0.874c0.557,0.023,1.114,0.019,1.67,0.029
	c0.47,0.008,0.938,0.047,1.235,0.478c0.514,0.747,0.206,5.169-0.534,5.766c-0.714,0.576-1.101,1.092-0.299,1.752
	c1.988,1.634,1.067,3.787,0.767,5.6c-0.198,1.197-1.896,0.604-2.956,0.653c-0.092,0.006-0.189-0.019-0.278-0.002
	c-0.389,0.077-0.714,0.273-0.748,0.692c-0.041,0.509,0.175,0.928,0.725,1.001c0.549,0.071,1.11,0.046,1.664,0.086
	c1.759,0.123,1.762,0.128,1.84,1.974c0.031,0.741,0.019,1.484,0.062,2.225c0.032,0.528,0.299,0.86,0.885,0.803
	c0.431-0.042,0.663-0.302,0.684-0.716c0.037-0.74,0.059-1.483,0.059-2.225C62.898,104.698,62.896,93.93,62.896,83.162z
	 M74.131,114.627c0.811-0.06,1.41-0.41,1.534-1.267c0.121-0.853-0.222-1.418-1.144-1.514c-0.864-0.089-0.896-0.427-0.278-0.948
	c0.203-0.172,0.414-0.333,0.622-0.501c-0.259-0.038-0.558-0.182-0.769-0.101c-1.199,0.462-1.876,1.644-1.647,2.825
	C72.625,114.035,73.17,114.567,74.131,114.627z M75.535,46.354c-0.605-0.63-0.076-1.36-0.153-2.037
	c-0.083-0.709-0.745-1.002-1.453-0.964c-0.245,0.013-0.674,0.148-0.689,0.271c-0.095,0.743,0.688,0.281,0.922,0.611
	c0.101,0.143,0.175,0.303,0.26,0.456c-1.751,0.369,1.329,2.343-0.872,2.613c-0.418,0.052-0.148,0.353,0.088,0.429
	C74.567,48.031,75.539,47.332,75.535,46.354z M78.262,97.318c0.364-0.218,1.637-0.13,1.009-0.543
	c-1.419-0.938-0.121-1.313,0.066-1.882c0.44-1.337-0.227-2.177-1.641-1.985c-0.171,0.022-0.328,0.145-0.492,0.22
	c0.123,0.098,0.231,0.235,0.372,0.289c2.003,0.773,0.657,1.625,0.051,2.438c-0.266,0.355-0.835,0.634-0.605,1.124
	C77.231,97.428,77.822,97.263,78.262,97.318z M80.648,78.502c0.035,1.438,0.629,2.178,1.646,2.054
	c0.93-0.113,1.457-1.005,1.355-2.374c-0.072-0.972-0.307-1.887-1.527-1.932C81.168,76.217,80.615,77.104,80.648,78.502z
	 M79.644,45.646c0.008-1.399-0.563-2.273-1.476-2.258c-0.912,0.016-1.519,0.916-1.463,2.292c0.036,0.923,0.057,1.93,1.345,2.039
	C79.121,47.808,79.636,47.124,79.644,45.646z M83.654,94.894c-0.106-0.884-0.197-1.865-1.435-1.979
	c-1.043-0.094-1.68,0.917-1.576,2.443c0.066,0.998,0.337,1.885,1.553,1.904C83.117,97.277,83.7,96.298,83.654,94.894z
	 M74.144,64.422c0.324-0.188,1.183-0.167,1.042-0.254c-1.908-1.179,0.343-1.685,0.385-2.522c0.047-0.97-0.577-1.688-1.741-1.589
	c-0.173,0.015-0.338,0.127-0.505,0.195c0.122,0.097,0.23,0.223,0.368,0.286c1.924,0.877,0.578,1.665-0.063,2.472
	c-0.278,0.353-0.89,0.618-0.729,1.095C73.067,64.601,73.691,64.34,74.144,64.422z M53.818,81.681
	c0.656-0.072,1.145-0.449,1.281-1.166c0.157-0.827-0.047-1.489-1.029-1.584c-0.774-0.075-1.054-0.303-0.385-0.946
	c0.173-0.169,0.334-0.351,0.501-0.526c-0.263,0.001-0.583-0.095-0.78,0.021c-1.129,0.659-1.56,2.228-0.987,3.369
	C52.699,81.401,53.156,81.639,53.818,81.681z M80.646,62.205c0.004,1.402,0.59,2.231,1.544,2.188
	c0.932-0.041,1.527-0.938,1.458-2.292c-0.048-0.953-0.199-1.905-1.422-2.025C81.22,59.979,80.641,60.79,80.646,62.205z
	 M53.199,114.009c2.317,0.184,0.649-0.587,0.724-0.937c0.122-0.574,0.7-1.037,0.976-1.6c0.257-0.525,0.146-1.078-0.322-1.487
	c-0.451-0.395-1-0.426-1.547-0.287c-0.298,0.075-0.401,0.298-0.039,0.444c2.005,0.814,0.855,1.685,0.063,2.563
	c-0.287,0.318-0.772,0.65-0.469,1.11C52.732,114.039,53.244,114.021,53.199,114.009z M74.791,78.184
	c-0.045-0.301-0.104-0.945-0.258-1.564c-0.079-0.321-0.443-0.316-0.692-0.197c-0.28,0.134-0.842,0.342-0.366,0.717
	c0.935,0.738,0.374,1.735,0.613,2.581c0.046,0.166,0.157,0.449,0.24,0.449c0.311,0.002,0.364-0.284,0.388-0.532
	C74.75,79.268,74.756,78.896,74.791,78.184z M50.179,48.297c0-0.148,0.012-0.242-0.002-0.333c-0.092-0.594,0.235-1.327-0.524-1.696
	c-0.14-0.068-0.407-0.05-0.524,0.043c-0.917,0.73,0.571,0.919,0.362,1.521c-0.057,0.162-0.016,0.371,0.021,0.549
	c0.119,0.577-0.298,1.559,0.388,1.617C50.305,50.033,50.105,48.867,50.179,48.297z M74.781,95.435
	c-0.088-0.807,0.166-1.577-0.323-2.2c-0.115-0.147-0.519-0.199-0.714-0.117c-0.198,0.084-0.303,0.388-0.448,0.596
	c1.226,0.724,0.504,1.99,0.836,2.963c0.035,0.103,0.224,0.165,0.353,0.214c0.027,0.01,0.15-0.124,0.161-0.201
	C74.705,96.24,74.744,95.79,74.781,95.435z"/>
</svg>
