<?xml version="1.0" encoding="utf-8"?>
<!-- Generator: Adobe Illustrator 16.0.4, SVG Export Plug-In . SVG Version: 6.00 Build 0)  -->
<!DOCTYPE svg PUBLIC "-//W3C//DTD SVG 1.1//EN" "http://www.w3.org/Graphics/SVG/1.1/DTD/svg11.dtd">
<svg version="1.1" id="Layer_3924" xmlns="http://www.w3.org/2000/svg" xmlns:xlink="http://www.w3.org/1999/xlink" x="0px" y="0px"
	 width="128px" height="128px" viewBox="0 0 128 128" enable-background="new 0 0 128 128" xml:space="preserve">
<g id="nmR8La.tif">
	<g>
		<path fill-rule="evenodd" clip-rule="evenodd" d="M63.917,121.118c-16.035,0.002-32.07,0.01-48.105-0.021
			c-0.938,0-1.979-0.094-2.796-0.5c-1.681-0.835-2.478-2.336-2.588-4.24c-0.249-4.314-0.535-8.626-0.843-12.938
			c-0.359-5.018-0.763-12.047-1.138-17.062c-0.399-5.337-0.772-10.677-1.189-16.012c-0.175-2.249-0.443-4.488-0.645-6.735
			c-0.064-0.708-0.049-1.422-0.072-2.132c-0.021-0.622,0.229-0.981,0.9-0.966c0.451,0.011,0.904-0.005,1.357-0.003
			c5.687,0.034,11.375,0.085,17.062,0.102c6.499,0.02,12.998,0.028,19.498,0.005c2.359-0.009,4.719-0.164,7.079-0.178
			c2.507-0.014,5.016,0.088,7.522,0.094c6.66,0.014,13.319,0.005,19.98,0.003c7.547-0.002,15.096-0.007,22.643-0.01
			c5.529-0.004,11.059-0.009,16.588-0.012c0.518-0.001,1.055-0.079,1.545,0.039c0.283,0.068,0.602,0.418,0.703,0.711
			c0.119,0.345,0.037,0.768,0.012,1.153c-0.135,2.061-0.255,4.122-0.426,6.178c-0.197,2.377-0.486,4.746-0.658,7.124
			c-0.316,4.376-0.545,8.756-0.872,13.13c-0.302,4.049-0.691,10.109-1.027,14.156c-0.17,2.056-0.315,4.116-0.452,6.176
			c-0.159,2.446-0.284,4.896-0.449,7.343c-0.19,2.824-2.077,4.588-4.945,4.591C96.374,121.122,80.145,121.118,63.917,121.118z
			 M74.444,105.941c0-2.501,0.006-5.005,0.008-7.506c0.001-1.362,0.59-4.347-1.458-4.479c-1.232-0.078-4.291-0.622-4.929,0.808
			c-0.795,1.782-0.167,4.918-0.167,6.838c0,4.688-0.075,9.383,0.001,14.067c0.017,1.026,0.056,2.066,1.258,2.243
			c1.24,0.182,3.474,0.418,4.623-0.188c1.193-0.629,0.666-3.492,0.667-4.51C74.45,110.79,74.444,108.365,74.444,105.941
			C74.444,104.584,74.444,109.173,74.444,105.941z M53.552,105.75c0.002,0,0.003,0,0.005,0c0,2.844-0.014,5.688-0.005,8.534
			c0.006,2.067-0.265,3.647,2.192,3.687c2.669,0.047,4.357,0.37,4.357-2.683c0-3.102,0.001-6.206,0.001-9.308
			c0-3.104,0.001-6.205,0.001-9.31c0-2.708-1.143-2.788-3.642-2.747c-1.942,0.031-2.895,0.191-2.905,2.324
			C53.54,99.417,53.552,102.583,53.552,105.75C53.554,105.75,53.552,102.583,53.552,105.75z M48.481,106.205
			c0.001,0,0.003,0,0.003,0c0.001-3.139,0.016-6.278-0.002-9.416c-0.014-2.645-0.737-2.869-3.293-2.869
			c-2.434,0-3.228,0.388-3.228,2.921c0,3.181,0,6.361,0.001,9.544c0,3.086,0.002,6.172-0.005,9.258
			c-0.007,2.777,2.18,2.352,4.374,2.326c2.174-0.023,2.141-0.885,2.148-2.88C48.492,112.127,48.481,109.167,48.481,106.205
			C48.482,106.205,48.481,109.436,48.481,106.205z M79.512,105.914c0,2.877-0.017,5.756-0.004,8.634
			c0.013,2.834,0.19,3.466,3.139,3.433c1.516-0.016,3.118,0.201,3.326-1.666c0.35-3.142,0.064-6.448,0.064-9.607
			c0.001-3.145,0.053-6.296-0.011-9.441c-0.055-2.72-0.401-3.354-3.165-3.35c-1.957,0.002-3.335-0.157-3.347,2.115
			C79.499,99.324,79.51,102.619,79.512,105.914C79.512,106.883,79.51,102.619,79.512,105.914z M109.023,105.914
			c0-2.791,0.02-5.582,0.01-8.372c-0.011-2.988-0.267-3.618-3.33-3.618c-2.541-0.002-3.185,0.445-3.187,3.062
			c-0.002,3.096-0.004,6.189-0.004,9.286c0,2.79-0.023,5.581,0.006,8.37c0.032,2.938,0.576,3.365,3.5,3.334
			c2.558-0.029,2.995-0.432,3.005-2.991C109.036,111.962,109.025,108.937,109.023,105.914
			C109.023,104.555,109.025,109.213,109.023,105.914z M18.969,106.016c0.002,0,0.004,0,0.006,0c0,3.077-0.032,6.153-0.003,9.228
			c0.025,2.572,0.828,2.751,3.299,2.728c2.026-0.02,3.054-0.075,3.204-2.297c0.188-2.786,0.027-5.642,0.029-8.437
			c0.002-3.014-0.01-6.03-0.052-9.046c-0.036-2.6,0.335-4.232-2.654-4.26c-2.08-0.021-3.811-0.289-3.824,2.194
			C18.957,99.423,18.969,102.72,18.969,106.016C18.971,106.016,18.969,102.72,18.969,106.016z M79.5,76.977c0.004,0,0.008,0,0.012,0
			c0,2.127-0.001,4.256,0,6.385c0,1.052-0.654,4.794,0.577,5.338c1.187,0.525,3.241,0.26,4.508,0.13
			c1.316-0.136,1.409-1.102,1.458-2.249c0.149-3.646,0.012-7.332,0.02-10.981c0.004-1.859,0.012-3.717,0.002-5.576
			c-0.008-1.203,0.41-3.505-0.387-4.539c-0.644-0.835-2.435-0.402-3.281-0.376c-0.797,0.021-2.501-0.404-2.792,0.693
			c-0.376,1.416-0.122,3.146-0.122,4.598C79.491,72.591,79.5,74.783,79.5,76.977C79.504,76.977,79.5,73.688,79.5,76.977z
			 M60.102,76.977c-0.002,0-0.003,0-0.004,0c0-3.125,0-6.253,0-9.378c0-2.874-1.391-2.501-4.024-2.561
			c-2.986-0.065-2.547,1.565-2.481,4.155c0.077,3.037-0.083,6.057-0.088,9.093c-0.005,2.897-0.062,5.828,0.06,8.723
			c0.098,2.297,1.999,1.9,3.851,1.875c2.414-0.035,2.677-0.484,2.686-2.863C60.112,83.007,60.102,79.992,60.102,76.977
			C60.1,76.977,60.102,80.266,60.102,76.977z M19.051,77.101c-0.025,0.002-0.051,0.002-0.076,0.002c0,3.008-0.021,6.015,0,9.022
			c0.019,2.357,0.289,2.706,2.658,2.741c2.322,0.033,3.849,0.266,3.852-2.45c0.005-3.096,0.009-6.191,0.013-9.287
			c0.003-3.099,0.005-6.194,0.007-9.29c0.001-3.004-1.5-2.816-4.104-2.791c-2.221,0.023-2.314,0.979-2.346,3.018
			C19.009,71.078,19.051,74.09,19.051,77.101C19.025,77.103,19.051,73.815,19.051,77.101z M67.983,77.087c-0.029,0-0.058,0-0.087,0
			c0,3.078-0.032,6.158,0.002,9.237c0.032,2.968,1.517,2.623,4.206,2.562c2.82-0.064,2.334-1.853,2.337-4.234
			c0.005-3.028,0.011-6.056,0-9.085c-0.009-2.722,0.021-5.418-0.148-8.144c-0.164-2.627-1.595-2.369-4.022-2.387
			c-2.246-0.016-2.276,0.977-2.286,3.007C67.971,71.059,67.983,74.072,67.983,77.087C67.954,77.087,67.983,73.798,67.983,77.087z
			 M109.021,77.343c0.011,0,0.02,0,0.031,0c0-3.613,0.104-7.247-0.144-10.855c-0.128-1.857-1.914-1.438-3.337-1.434
			c-1.016,0.004-2.959-0.308-3.002,1.228c-0.092,3.286-0.052,6.619-0.058,9.908c-0.008,3.688-0.532,7.828,0.067,11.468
			c0.209,1.269,1.335,1.197,2.395,1.211c0.843,0.012,3.214,0.404,3.805-0.445c0.668-0.961,0.244-3.09,0.246-4.165
			C109.028,81.953,109.021,79.649,109.021,77.343C109.032,77.343,109.021,80.512,109.021,77.343z M48.489,76.953
			c0.002,0,0.003,0,0.005,0c0-2.879,0.002-5.759-0.002-8.636c-0.001-0.751,0.37-2.979-0.853-3.118
			c-1.283-0.147-2.573-0.23-3.864-0.238c-2.283-0.01-1.629,4.292-1.694,5.735c-0.13,2.861-0.142,5.726-0.144,8.589
			c-0.003,2.627-0.403,5.643,0.104,8.225c0.396,2.007,2.851,1.386,4.442,1.358c2.078-0.035,1.997-0.969,2.004-2.846
			C48.499,82.999,48.489,79.977,48.489,76.953C48.491,76.953,48.489,80.252,48.489,76.953z M97.429,106.021
			c0-2.729-0.02-5.456,0.003-8.184c0.01-0.984,0.243-2.365-0.182-3.293c-0.396-0.858-1.94-0.614-2.666-0.614
			c-0.83,0-2.191-0.254-2.929,0.225c-0.855,0.56-0.534,2.278-0.534,3.111c0,3.163,0,6.326,0,9.491c0,2.875,0,5.751,0,8.628
			c0.002,0.78-0.21,2.125,0.736,2.479c1.051,0.394,2.667,0.124,3.776,0.101c2.036-0.041,1.788-1.342,1.793-3.068
			C97.436,111.938,97.428,108.98,97.429,106.021C97.429,103.568,97.428,109.248,97.429,106.021z M36.878,105.943
			c0-2.873,0.001-5.747-0.001-8.622c0-0.827,0.278-2.332-0.335-3.023c-0.605-0.682-2.302-0.364-3.102-0.358
			c-2.703,0.012-2.864,0.682-2.864,3.21c0,3.087,0.001,6.171,0.001,9.257c0,2.805,0.001,5.608,0.001,8.413
			c0,2.515,0.135,3.142,2.8,3.147c2.63,0.008,3.496,0.062,3.497-2.735C36.876,112.135,36.875,109.039,36.878,105.943
			C36.878,102.78,36.875,109.039,36.878,105.943z M97.426,76.938c-0.035,0.002-0.07,0.002-0.104,0.002c0-2.196,0-4.392,0-6.588
			c0-1.193,0.562-4.018-0.362-4.988c-0.77-0.812-3.387-0.347-4.397-0.298c-1.242,0.062-1.425,0.688-1.433,1.838
			c-0.029,3.545,0.074,7.094,0.052,10.641c-0.011,1.935-0.024,3.868-0.037,5.802c-0.009,1.41-0.412,3.443,0.089,4.796
			c0.462,1.259,5.912,1.434,6.141-0.321C97.833,84.301,97.426,80.486,97.426,76.938C97.391,76.939,97.426,80.232,97.426,76.938z
			 M36.878,76.984c-0.036,0-0.072,0-0.109,0c0-2.8,0.009-5.601,0.001-8.401c-0.008-2.538,0.13-3.553-2.63-3.541
			c-0.819,0.004-2.806-0.341-3.343,0.482c-0.574,0.877-0.218,2.768-0.218,3.762c-0.001,3.136-0.002,6.272-0.002,9.408
			c0,2.759-0.019,5.521,0.003,8.279c0.021,2.58,2.64,1.938,4.592,1.881c1.944-0.06,1.702-1.337,1.706-2.978
			C36.885,82.913,36.878,79.949,36.878,76.984C36.842,76.984,36.878,80.219,36.878,76.984z"/>
		<path fill-rule="evenodd" clip-rule="evenodd" d="M64.226,49.371c20.235,0,40.47,0.001,60.705,0c2.803,0,2.805-0.001,2.808,2.796
			c0.002,2.069,0.006,4.139-0.005,6.207c-0.011,2.192-0.146,2.338-2.294,2.341c-5.172,0.006-10.343-0.002-15.516-0.004
			c-17.582-0.005-35.164-0.013-52.748-0.013c-18.035,0.001-36.07,0.013-54.106,0.018c-2.802,0.001-2.803-0.001-2.807-2.795
			c-0.002-2.004-0.005-4.008,0-6.013c0.007-2.465,0.07-2.538,2.482-2.539c9.31-0.001,18.619,0.007,27.929,0.009
			c11.184,0.002,22.368,0,33.552,0C64.226,49.376,64.226,49.374,64.226,49.371z M66.768,54.981
			c-0.021-1.526-1.367-2.866-2.827-2.818c-1.5,0.05-2.723,1.38-2.707,2.941c0.015,1.521,1.354,2.855,2.828,2.817
			C65.564,57.882,66.791,56.55,66.768,54.981z"/>
		<path fill-rule="evenodd" clip-rule="evenodd" d="M63.753,49.694c2.11-2.129,3.869-3.916,5.643-5.689
			c10.833-10.837,27.684-28.146,38.518-38.981c0.229-0.229,0.444-0.47,0.679-0.692c1.263-1.212,1.671-1.229,2.905-0.041
			c0.978,0.94,1.927,1.912,2.88,2.88c1.592,1.615,1.604,2.076,0.039,3.651c-2.964,2.979-11.955,12.421-14.928,15.391
			c-7.455,7.449-14.925,14.884-22.346,22.367c-0.9,0.908-1.804,1.278-3.062,1.245c-2.908-0.077-5.819-0.024-8.729-0.03
			C64.977,49.793,64.602,49.749,63.753,49.694z"/>
		<path fill-rule="evenodd" clip-rule="evenodd" d="M92.688,120.681c5.097,0,9.843,0,14.625,0c-0.521,1.55-0.717,3.864-2.131,3.888
			c-2.191,0.035-4.383,0.008-6.574,0.006c-1.29-0.002-2.582,0.055-3.866-0.035c-0.538-0.038-1.103-0.313-1.56-0.621
			C92.936,123.753,92.891,121.173,92.688,120.681z"/>
		<path fill-rule="evenodd" clip-rule="evenodd" d="M20.645,120.854c1.422-0.345,12.24-0.411,14.416-0.104
			c-0.279,1.354-0.508,3.725-1.77,3.804c-0.962,0.059-1.931,0.021-2.896,0.021c-2.511,0.002-5.021-0.002-7.532,0.006
			C21.724,124.584,20.876,122.11,20.645,120.854z"/>
	</g>
</g>
</svg>
