<?xml version="1.0" encoding="utf-8"?>
<!-- Generator: Adobe Illustrator 16.0.4, SVG Export Plug-In . SVG Version: 6.00 Build 0)  -->
<!DOCTYPE svg PUBLIC "-//W3C//DTD SVG 1.1//EN" "http://www.w3.org/Graphics/SVG/1.1/DTD/svg11.dtd">
<svg version="1.1" id="Layer_3925" xmlns="http://www.w3.org/2000/svg" xmlns:xlink="http://www.w3.org/1999/xlink" x="0px" y="0px"
	 width="128px" height="128px" viewBox="0 0 128 128" enable-background="new 0 0 128 128" xml:space="preserve">
<g>
	<path d="M19.113,58.598c-0.008,0-0.015,0-0.022,0c0-5.008,0-10.017-0.001-15.025c0-0.317,0.004-0.636-0.029-0.95
		c-0.041-0.383-0.343-0.386-0.634-0.384c-0.291,0.002-0.468,0.128-0.474,0.438c-0.004,0.211-0.006,0.422-0.006,0.634
		c0,8.748,0,17.495-0.001,26.241c0,1.587-0.005,39.138-0.019,40.724c-0.003,0.44,0.173,0.637,0.626,0.637
		c0.426,0,0.556-0.217,0.557-0.588c0.001-0.281,0.004-0.564,0.004-0.847C19.113,104.506,19.113,63.57,19.113,58.598z"/>
	<path fill-rule="evenodd" clip-rule="evenodd" d="M19.113,58.598c0,4.973,0,45.908,0,50.88c0,0.282-0.003,0.565-0.004,0.847
		c-0.001,0.371-0.131,0.588-0.557,0.588c-0.454,0-0.63-0.196-0.626-0.637c0.014-1.586,0.019-39.137,0.019-40.724
		c0.001-8.747,0.001-17.493,0.001-26.241c0-0.212,0.002-0.422,0.006-0.634c0.006-0.31,0.183-0.436,0.474-0.438
		c0.292-0.002,0.594,0.001,0.634,0.384c0.034,0.313,0.029,0.633,0.029,0.95c0.001,5.009,0.001,10.017,0.001,15.025
		C19.099,58.598,19.105,58.598,19.113,58.598z"/>
	<path fill-rule="evenodd" clip-rule="evenodd" d="M19.856,109.3c0.487,1.374,0.226,2.782,0.123,4.165
		c-0.061,0.828-0.784,1.264-1.588,1.201c-0.779-0.061-1.291-0.604-1.331-1.482c-0.039-0.842-0.013-1.686-0.047-2.527
		c-0.033-0.834,0.141-1.535,0.987-1.908c0.792-0.349,1.337,0.088,1.873,0.57L19.856,109.3z"/>
	<path fill-rule="evenodd" clip-rule="evenodd" d="M19.873,112.39l-0.017-0.019L19.873,112.39z"/>
	<g id="RCCBW9.tif">
		<g>
			<path d="M16.277,42.371c0-1.144,0-2.289,0-3.433c1.453-1.669,3.303-2.67,5.339-3.506c26.676-10.956,53.335-21.954,79.991-32.954
				c1.359-0.561,2.828-0.926,3.936-1.993c1.145,0,2.289,0,3.434,0c0.916,0.916,1.832,1.831,2.746,2.747c0,1.144,0,2.289,0,3.433
				c-1.033,2.751-4.145,2.933-6.064,4.676c0.43,0.975,0.801,1.804,1.16,2.639c2.416,5.624,2.359,4.266-0.84,8.46
				c-0.195,0.255-0.24,0.625-0.389,1.032c0.381,0.904,0.65,1.927,1.193,2.774c2.047,3.199,2.123,6.128-0.904,8.784
				c-0.145,0.127-0.143,0.42-0.23,0.701c0.213,1.441,0.879,2.815,1.633,4.046c1.629,2.668,1.412,4.911-0.93,6.981
				c-0.426,0.377-0.693,0.904-0.689,1.757c0.312,0.734,0.59,1.757,1.139,2.604c2.084,3.214,2.029,6.133-0.943,8.782
				c-0.143,0.128-0.141,0.422-0.273,0.865c0.51,1.192,0.957,2.628,1.699,3.89c1.455,2.475,1.557,4.674-0.736,6.704
				c-0.408,0.361-0.646,0.913-0.965,1.378c0.379,1.906,1.252,3.527,2.08,5.13c1.01,1.952,1.158,3.681-0.607,5.238
				c-1.682,1.483-1.729,3.33-1.297,5.335c0.283,1.317,0.896,2.627,0.24,4.148c-1.119,1.045-2.705,1.446-4.164,2.052
				c-24.16,10.029-48.334,20.026-72.494,30.058c-2.094,0.869-4.321,1.463-6.196,2.818c-0.229,0-0.458,0-0.687,0
				c-0.021-1.595-0.061-3.19-0.06-4.785c0.01-24.403,0.029-48.807,0.029-73.209c0-1.332,0.214-2.708-0.399-4.161
				C19.406,45.655,17.659,44.338,16.277,42.371z M102.1,47.205c-0.957-0.037-1.762,0.442-2.602,0.784
				C77.09,57.125,54.693,66.29,32.267,75.38c-2.373,0.962-4.05,2.411-5.1,4.799c0.718,1.877,1.219,3.851,2.781,5.491
				c25.093-10.226,50.111-20.42,75.309-30.688c-1.154-2.813-2.186-5.328-3.219-7.842l0.164-0.034L102.1,47.205z M102.135,22.494
				c-1.219-0.186-2.217,0.487-3.254,0.909C76.672,32.45,54.482,41.545,32.257,50.552c-2.384,0.966-4.031,2.439-5.033,4.641
				c0.218,1.63,1.062,2.89,1.603,4.264c0.21,0.533,0.503,1.026,1.382,1.486c24.889-10.107,50.01-20.308,75.195-30.535
				c-1.221-2.923-2.273-5.445-3.324-7.968c0.037-0.056,0.074-0.111,0.111-0.166C102.174,22.347,102.154,22.421,102.135,22.494z
				 M102.08,59.559c-0.652,0.199-1.322,0.349-1.949,0.604C77.5,69.367,54.882,78.602,32.234,87.762
				c-2.385,0.965-4.014,2.465-5.057,4.83c0.625,1.945,1.374,3.819,2.631,5.718c25.246-10.212,50.393-20.386,75.614-30.588
				c-1.23-2.97-2.318-5.594-3.406-8.217L102.08,59.559z M105.205,42.589c-0.973-2.791-2.035-5.24-3.381-7.667
				c-23.656,9.614-47.139,19.174-70.643,28.679c-1.976,0.799-3.037,2.275-4.019,4.029c0.659,1.968,1.265,3.903,2.731,5.688
				C54.966,63.087,79.998,52.874,105.205,42.589z M102.059,72.305c-0.947,0.314-1.6,0.492-2.221,0.744
				c-22.66,9.161-45.31,18.347-67.985,27.468c-2.284,0.919-3.833,2.336-4.681,4.626c0.782,1.801,1.151,3.741,2.772,5.279
				c25.059-10.183,50.105-20.359,75.357-30.623C104.182,77.209,103.191,74.922,102.059,72.305z M30.632,120.945
				c24.431-10.127,48.555-20.126,72.709-30.139c-0.424-2.336-0.785-4.328-1.141-6.291c-1.287-0.118-2.16,0.5-3.086,0.875
				c-16.412,6.654-32.814,13.33-49.219,19.999c-6.139,2.495-12.298,4.942-18.41,7.502c-2.858,1.197-3.327,2.583-2.123,5.383
				C29.675,119,30.04,119.703,30.632,120.945z M105.211,17.747c-0.623-1.936-1.178-3.505-2.512-5.118
				c-25.098,10.52-50.2,21.043-75.484,31.642c0.626,1.251,1.053,2.166,1.539,3.048c0.21,0.381,0.542,0.696,0.965,1.226
				C54.878,38.281,79.982,28.04,105.211,17.747z M25.412,123.278c0.894-0.712,1.873-0.407,2.315-1.655
				c-0.6-1.339-1.282-2.86-1.964-4.381c-0.117,0.029-0.234,0.06-0.351,0.09C25.412,119.093,25.412,120.854,25.412,123.278z
				 M25.477,109.197c0,1.837,0,3.521,0,5.383c0.954-0.74,1.422-1.462,1.562-2.395C26.555,111.207,26.377,110.072,25.477,109.197z
				 M27.001,75.004C26.61,74,26.417,72.895,25.431,71.92c0,1.688,0,3.186,0,4.715C26.431,76.503,26.64,75.71,27.001,75.004z
				 M27.071,87.409c-0.524-1.083-0.706-2.198-1.605-3.07c0,1.677,0,3.179,0,4.715C26.402,88.868,26.596,88.178,27.071,87.409z
				 M27.088,100.001c-0.441-1.022-0.649-2.222-1.663-3.343c0,1.725,0,3.241,0,4.781c0.282-0.088,0.549-0.092,0.685-0.229
				C26.425,100.898,26.676,100.522,27.088,100.001z M25.39,64.733c1.901-2.581,1.901-2.581,0-4.838
				C25.39,61.327,25.39,62.758,25.39,64.733z M25.438,47.965c0,1.331,0,2.593,0,3.891c0.977-0.188,1.184-0.972,1.559-1.746
				C26.438,49.504,26.518,48.444,25.438,47.965z"/>
		</g>
	</g>
</g>
</svg>
