<?xml version="1.0" encoding="utf-8"?>
<!-- Generator: Adobe Illustrator 16.0.4, SVG Export Plug-In . SVG Version: 6.00 Build 0)  -->
<!DOCTYPE svg PUBLIC "-//W3C//DTD SVG 1.1//EN" "http://www.w3.org/Graphics/SVG/1.1/DTD/svg11.dtd">
<svg version="1.1" id="Layer_3926" xmlns="http://www.w3.org/2000/svg" xmlns:xlink="http://www.w3.org/1999/xlink" x="0px" y="0px"
	 width="128px" height="128px" viewBox="0 0 128 128" enable-background="new 0 0 128 128" xml:space="preserve">
<g>
	<path d="M86.918,90.18c-0.496-0.516-1.736-0.764-3.79-0.764l-0.341,0.002c-4.689,0.057-9.385,0.043-14.081,0.03l-4.426-0.011
		l-4.29,0.011c-4.621,0.013-9.299,0.027-14.001-0.029l-0.34-0.002c-1.973,0-3.109,0.226-3.577,0.71
		c-0.134,0.139-0.311,0.389-0.291,0.954c0.067,1.858,0.026,3.742-0.014,5.563c-0.053,2.424-0.108,4.931,0.095,7.379
		c0.398,4.829,9.069,8.961,19.738,9.453c0.962,0.045,1.665,0.023,2.631,0.023h0.097c0.938,0,1.884,0.021,2.848-0.023
		c10.551-0.486,19.453-4.726,19.846-9.47c0.209-2.512,0.184-5.071,0.158-7.556c-0.018-1.762-0.035-3.579,0.029-5.375
		C87.223,90.683,87.131,90.399,86.918,90.18z"/>
	<path d="M115.662,42.869c-3.11-1.992-2.194-4.882-1.809-7.692c0.186-1.354,0.216-2.732,0.265-4.102
		c0.099-2.754-0.783-5.021-3.463-6.186c-2.618-1.139-5.189-1.007-7.405,0.926c-2.234,1.948-3.244,4.461-2.416,7.385
		c0.425,1.499,1.247,2.896,1.971,4.298c1.544,2.991,1.596,5.835-0.621,8.547c-3.139,3.836-3.683,8.379-3.609,13.118
		c0.047,3.017-0.297,3.305-3.276,2.557c-4.931-1.241-8.733-4.111-11.393-8.443c-4.467-7.28-5.536-15.373-5.559-23.699
		c-0.012-4.01-0.14-8.031,0.105-12.027c0.493-8.048-2.456-13.927-10.104-17.099c-1.336-0.359-2.246-0.447-3.37-0.447
		c-1.2,0-2.345,0.088-3.599,0.447c-2.57,1.206-5.184,2.327-7.039,4.638c-2.054,2.557-3.222,5.409-3.217,8.719
		c0.01,5.911,0.117,11.825-0.032,17.732c-0.171,6.795-1.25,13.441-4.373,19.59c-2.483,4.89-6.08,8.58-11.477,10.227
		c-0.2,0.062-0.383,0.186-0.584,0.24c-3.353,0.922-4.091,0.322-3.406-3.021c0.486-2.369,1.207-4.689,1.838-7.028
		c0.887-3.288,1.329-6.616-1.67-9.04c-3.063-2.477-6.525-2.025-9.842-0.392c-4.934,2.432-6.211,7.33-3.191,11.913
		c0.348,0.528,0.756,1.017,1.108,1.543c2.036,3.043,1.93,5.264-0.464,7.997c-1.807,2.063-3.798,3.985-5.049,6.468
		c-1.504,2.982-1.434,5.895,0.622,8.629c0.363,0.484,0.789,1.155,1.527,0.757c0.913-0.491,0.564-1.247,0.142-1.882
		c-2.218-3.317-1.084-6.223,1.12-8.959c1.123-1.396,2.391-2.676,3.541-4.052c2.562-3.064,2.755-6.21,0.617-9.597
		c-0.394-0.624-0.861-1.199-1.274-1.812c-1.975-2.927-1.897-5.628,0.212-7.752c2.317-2.334,6.629-3.136,9.057-1.686
		c1.273,0.762,1.925,1.872,2.02,3.364c0.109,1.719-0.184,3.357-0.758,4.966c-1.435,4.017-1.992,8.159-1.98,12.423
		c0.044,15.939,0.216,32.051-0.066,47.984c-0.128,7.221,2.445,12.078,9.178,15.078c17.95,0,35.901,0,53.853,0
		c0.237-1,0.447-0.607,0.717-0.723c5.72-2.464,8.199-7.009,8.189-13.104c-0.028-17.096-0.016-34.234-0.017-51.33
		c0-1.794,0.029-3.609,0.02-5.403c-0.021-3.597,0.897-6.896,3.185-9.727c2.727-3.373,2.706-6.922,0.76-10.627
		c-0.636-1.212-1.373-2.412-1.763-3.707c-1.12-3.716,1.981-7.124,5.77-6.449c2.008,0.358,3.233,1.487,3.345,3.59
		c0.107,2.005-0.008,3.997-0.381,5.985c-0.35,1.873-0.492,3.767,0.252,5.612c0.542,1.343,1.384,2.355,2.836,2.743
		c0.437,0.117,0.854,0.021,1.11-0.358C116.078,43.611,116.031,43.105,115.662,42.869z M53.844,12.988
		c0.195-5.133,4.371-9.446,9.354-9.946c5.661-0.566,10.479,2.479,12.003,7.612c1.044,3.515,0.506,7.126,0.555,10.694
		c0.029,2.084,0.905,4.706-0.402,6.13c-1.464,1.597-4.19,0.473-6.36,0.622c-1.364,0.094-2.74,0.018-4.11,0.018
		c-2.952-0.006-5.907-0.061-8.856,0.017c-1.602,0.042-2.295-0.521-2.269-2.18C53.829,21.633,53.68,17.306,53.844,12.988z
		 M88.18,96.45c0.025,2.507,0.051,5.099-0.16,7.656c-0.441,5.317-9.576,9.852-20.799,10.369c-0.979,0.045-1.939,0.024-2.893,0.024
		H64.28c-1.032,0-1.746,0.021-2.726-0.024c-11.348-0.523-20.243-4.979-20.689-10.387c-0.208-2.5-0.152-5.024-0.098-7.476
		c0.04-1.807,0.081-3.671,0.015-5.501c-0.025-0.71,0.161-1.259,0.57-1.683c0.687-0.711,1.972-1.014,4.296-1.014L46,88.418
		c4.697,0.057,9.372,0.043,13.987,0.03l4.293-0.011l4.429,0.012c4.691,0.012,9.381,0.026,14.066-0.03l0.353-0.002
		c2.437,0,3.786,0.319,4.51,1.07c0.402,0.417,0.595,0.965,0.571,1.629C88.145,92.891,88.162,94.699,88.18,96.45z"/>
</g>
</svg>
