<?xml version="1.0" encoding="utf-8"?>
<!-- Generator: Adobe Illustrator 16.0.4, SVG Export Plug-In . SVG Version: 6.00 Build 0)  -->
<!DOCTYPE svg PUBLIC "-//W3C//DTD SVG 1.1//EN" "http://www.w3.org/Graphics/SVG/1.1/DTD/svg11.dtd">
<svg version="1.1" id="Layer_4002" xmlns="http://www.w3.org/2000/svg" xmlns:xlink="http://www.w3.org/1999/xlink" x="0px" y="0px"
	 width="128px" height="128px" viewBox="0 0 128 128" enable-background="new 0 0 128 128" xml:space="preserve">
<g id="_x34_nLYKb.tif">
	<g>
		<path fill-rule="evenodd" clip-rule="evenodd" d="M30.024,87.219c0,0.781,0.046,1.566-0.01,2.344
			c-0.128,1.797,0.122,3.126,2.022,4.204c2.515,1.427,2.722,5.126,0.825,7.323c-2.018,2.336-5.463,2.396-7.588,0.131
			c-2.026-2.16-1.999-5.806,0.59-7.285c2.261-1.293,2.194-2.95,2.16-4.928c-0.036-2.083-0.042-4.168-0.006-6.251
			c0.017-1.031-0.365-1.434-1.417-1.729c-6.223-1.745-9.25-6.901-7.714-13.214c0.324-1.331-0.076-1.905-1.095-2.478
			c-2.194-1.231-4.39-2.464-6.526-3.792c-1.078-0.67-1.867-0.642-3.015,0.03c-2.79,1.632-6.041,0.538-7.219-2.231
			c-0.865-2.034-0.549-3.924,0.909-5.566c1.339-1.509,3.6-2.022,5.5-1.298c2.087,0.794,3.415,2.451,3.271,4.556
			c-0.13,1.91,0.789,2.572,2.113,3.3c1.901,1.044,3.806,2.089,5.629,3.259c1.212,0.777,1.998,0.752,3.125-0.318
			c4.01-3.81,8.481-4.179,13.317-1.332c0.148,0.087,0.275,0.216,0.429,0.293c1.395,0.698,6.531-2.359,6.385-3.901
			c-0.531-5.607,2.726-9.765,8.061-11.526c1.143-0.377,1.668-0.987,1.617-2.267c-0.098-2.427-0.095-4.864-0.005-7.292
			c0.048-1.29-0.365-1.985-1.547-2.619c-2.4-1.288-3.239-3.827-2.331-6.217c0.783-2.061,2.691-3.359,4.827-3.285
			c2.175,0.075,4.06,1.447,4.746,3.453c0.689,2.016,0.021,4.249-1.7,5.604c-0.337,0.266-0.711,0.519-1.109,0.667
			c-0.865,0.32-1.123,0.92-1.112,1.798c0.033,2.779,0.079,5.559-0.017,8.334c-0.043,1.24,0.503,1.706,1.575,1.938
			c2.003,0.433,3.698,1.431,5.141,2.887c2.896,2.923,3.705,6.4,2.589,10.287c-0.352,1.226-0.259,1.971,0.977,2.457
			c0.479,0.188,0.899,0.521,1.348,0.787c2.068,1.228,2.068,1.228,3.807-0.381c3.506-3.246,8.361-3.863,12.492-1.305
			c1.419,0.879,2.444,0.945,3.674-0.041c0.334-0.267,0.74-0.455,1.134-0.633c1.785-0.808,2.688-1.872,2.659-4.139
			c-0.061-4.613,2.289-7.994,6.74-9.444c2.367-0.771,2.975-2.13,2.743-4.37c-0.151-1.461-0.093-2.953-0.013-4.424
			c0.104-1.904-0.116-3.32-2.131-4.466c-2.494-1.419-2.611-5.145-0.668-7.323c1.963-2.199,5.375-2.289,7.422-0.195
			c2.113,2.163,2.068,5.995-0.537,7.505c-2.007,1.162-2.201,2.542-2.118,4.438c0.091,2.08,0.081,4.168,0,6.25
			c-0.049,1.249,0.368,1.911,1.624,2.178c1.726,0.365,3.254,1.19,4.549,2.402c3.076,2.877,4.021,6.457,3.052,10.448
			c-0.472,1.941-0.19,2.142,1.405,3.012c1.979,1.08,3.913,2.246,5.85,3.403c1.135,0.678,1.995,1.089,3.436,0.123
			c2.559-1.714,6.01-0.386,7.164,2.375c1.126,2.691-0.247,5.763-3.034,6.789c-3.296,1.213-6.899-1.309-6.752-4.967
			c0.058-1.408-0.349-1.961-1.463-2.555c-2.372-1.264-4.685-2.643-6.977-4.05c-0.825-0.507-1.253-0.378-1.944,0.303
			c-4.317,4.254-8.447,4.719-13.91,1.676c-0.374-0.208-0.744-0.656-1.151-0.485c-1.923,0.808-3.698,1.896-5.386,3.114
			c-0.398,0.287-0.148,0.805-0.121,1.224c0.321,5.03-2.734,10.074-8.359,11.291c-0.928,0.2-1.32,0.63-1.309,1.583
			c0.034,2.951,0.056,5.904-0.001,8.855c-0.02,1.025,0.617,1.251,1.333,1.626c1.73,0.905,2.762,2.325,2.842,4.347
			c0.102,2.59-1.538,4.726-4.08,5.288c-2.17,0.479-4.63-0.802-5.552-2.894c-1.026-2.326-0.54-5.084,1.64-6.189
			c1.976-1.002,2.131-2.344,2.037-4.158c-0.105-2.078-0.076-4.167-0.014-6.249c0.039-1.28-0.227-1.919-1.696-2.313
			c-4.78-1.284-7.366-4.616-8.024-9.491c-0.191-1.42,0.23-2.754,0.539-4.102c0.113-0.497,0.471-1.028-0.126-1.392
			c-1.333-0.812-2.69-1.585-4.059-2.336c-0.789-0.433-1.046,0.351-1.42,0.747c-1.47,1.557-3.228,2.586-5.302,3.126
			c-2.961,0.771-5.703,0.193-8.202-1.429c-1.025-0.665-1.831-0.815-2.809-0.054c-0.475,0.369-1.014,0.692-1.571,0.914
			c-2.01,0.8-2.721,2.111-2.697,4.383c0.045,4.328-3.026,8.039-7.271,9.478c-2.163,0.733-2.167,0.733-2.186,2.997
			C30.017,84.961,30.024,86.09,30.024,87.219z M31.438,97.67c-0.052-1.141-1.273-2.344-2.391-2.353
			c-1.281-0.011-2.516,1.263-2.456,2.531c0.064,1.337,1.326,2.452,2.629,2.325C30.395,100.059,31.49,98.822,31.438,97.67z
			 M5.804,54.937c-1.425-0.043-2.582,1.004-2.575,2.329c0.006,1.226,1.036,2.258,2.319,2.323c1.424,0.071,2.507-0.93,2.524-2.335
			C8.088,55.979,7.105,54.976,5.804,54.937z M98.966,32.534c1.427,0.003,2.474-1.047,2.417-2.429
			c-0.053-1.293-1.021-2.208-2.354-2.221c-1.337-0.013-2.493,1.135-2.463,2.444C96.594,31.52,97.693,32.531,98.966,32.534z
			 M122.324,73.1c1.284,0.01,2.479-1.208,2.444-2.492c-0.031-1.195-1.137-2.193-2.425-2.189c-1.301,0.005-2.351,0.953-2.422,2.188
			C119.847,71.922,120.972,73.09,122.324,73.1z M78.082,97.821c0.014-1.272-0.963-2.415-2.135-2.5
			c-1.265-0.093-2.486,1.067-2.521,2.394c-0.036,1.368,1.07,2.5,2.405,2.46C77.059,100.139,78.069,99.082,78.082,97.821z
			 M52.321,32.535c1.409-0.046,2.348-1.095,2.271-2.536c-0.068-1.275-1.038-2.127-2.411-2.119c-1.41,0.009-2.347,1.062-2.249,2.53
			C50.02,31.731,50.973,32.579,52.321,32.535z M38.952,66.496c0.233-0.066,0.415-0.083,0.56-0.165
			c1.2-0.687,2.393-1.384,3.588-2.079c0.583-0.339,0.509-0.774,0.271-1.317c-0.666-1.519-0.971-1.648-2.443-0.831
			c-0.906,0.503-1.793,1.041-2.679,1.58c-0.355,0.216-0.858,0.431-0.528,0.972C38.107,65.291,38.324,66.059,38.952,66.496z
			 M90.338,63.444c-0.112-1.408-1.376-2.087-2.607-1.39c-0.904,0.512-1.799,1.039-2.691,1.568c-0.496,0.294-0.711,0.644-0.475,1.28
			c0.586,1.571,1.083,1.783,2.582,0.931c0.902-0.514,1.789-1.056,2.684-1.585C90.135,64.067,90.374,63.843,90.338,63.444z"/>
	</g>
</g>
</svg>
