<?xml version="1.0" encoding="utf-8"?>
<!-- Generator: Adobe Illustrator 16.0.4, SVG Export Plug-In . SVG Version: 6.00 Build 0)  -->
<!DOCTYPE svg PUBLIC "-//W3C//DTD SVG 1.1//EN" "http://www.w3.org/Graphics/SVG/1.1/DTD/svg11.dtd">
<svg version="1.1" id="Layer_4003" xmlns="http://www.w3.org/2000/svg" xmlns:xlink="http://www.w3.org/1999/xlink" x="0px" y="0px"
	 width="128px" height="128px" viewBox="0 0 128 128" enable-background="new 0 0 128 128" xml:space="preserve">
<g>
	<g>
		<path fill-rule="evenodd" clip-rule="evenodd" d="M55.584,0.092c12.071,5.68,24.14,9.24,36.614,17.906
			c-0.854,0.907-1.566,1.661-2.729,2.892c0.863,0.472,1.954,1.083,3.303,1.908c-1.426,1.205-2.121,1.8-2.852,2.426
			c0.467,0.716,0.935,1.443,1.581,2.466c-0.491,0.558-1.021,1.161-1.581,1.809c0.413,0.688,0.834,1.397,1.389,2.346
			c-0.834,0.676-1.658,1.36-2.483,2.06c0.819,0.93,1.498,1.705,2.812,3.269c-1.144,0.417-2.047,0.775-3.071,1.207
			c0.993,0.973,1.729,1.707,2.747,2.751c-0.538,0.738-1.062,1.469-1.588,2.211c0.388,0.76,0.775,1.52,1.444,2.844
			c-15.219,6.7-30.412,22.671-45.826,33.475c-1.376-0.54-2.714-0.979-3.99-1.536C29.44,72.842,17.542,69.417,5.621,62.092
			c-1.288-0.796-2.69-1.424-4.04-2.211c0-0.643,0-1.287,0-1.929c0.756-0.266,1.51-0.538,2.494-0.904
			c-0.972-0.749-1.734-1.361-2.494-1.989c0-0.322,0-0.643,0-0.964c0.896-0.449,1.792-0.906,2.917-1.502
			c-1.275-0.989-2.096-1.668-2.917-2.354c0-0.645,0-1.287,0-1.929c0.882-0.132,1.765-0.268,3.296-0.57
			c-1.605-1.081-2.45-1.702-3.296-2.323c0-0.322,0-0.642,0-0.964c1.076-0.463,2.152-0.959,3.178-1.461
			c-0.993-1.188-1.749-2.117-2.644-3.237c1.053-0.653,1.822-1.157,2.585-1.67c-0.774-0.862-1.48-1.66-2.397-2.717
			c1.077-0.695,1.966-1.3,3-2.039c-1.319-1.146-2.523-2.23-3.723-3.341c0-0.321,0-0.644,0-0.965c0.311,0.02,0.656,0.119,0.921,0.041
			c13.931-4.02,27.867-15.158,41.77-23.616c2.875-1.771,5.616-3.677,8.419-5.355C53.655,0.092,54.618,0.092,55.584,0.092z
			 M4.587,59.423c13.549,8.788,26.849,12.122,40.281,18.252c13.409-9.57,26.55-22.734,39.68-30.393
			c1.036-0.607,2.004-1.289,2.989-1.912c0.1-0.063,0.141-0.271,0.127-0.42c-0.011-0.131,0.523-0.574-0.138-0.215
			c-14.103,7.681-28.411,21.923-42.87,31.974c-1.825-0.716-4.445-1.857-6.018-2.494c-9.994-4.078-19.971-7.376-29.976-13.225
			C7.473,60.296,5.627,58.937,4.587,59.423z M4.587,57.279c13.549,8.787,26.849,12.122,40.281,18.252
			c13.409-9.57,26.55-22.733,39.68-30.392c1.036-0.607,2.004-1.289,2.989-1.912c0.1-0.063,0.141-0.271,0.127-0.42
			c-0.011-0.131,0.523-0.575-0.138-0.215c-14.103,7.681-28.411,21.923-42.87,31.974c-1.825-0.717-4.445-1.857-6.018-2.495
			c-9.994-4.077-19.971-7.374-29.976-13.224C7.473,58.152,5.627,56.793,4.587,57.279z M4.587,55.136
			c13.549,8.787,26.849,12.122,40.281,18.252c13.409-9.57,26.55-22.733,39.68-30.392c1.036-0.607,2.004-1.289,2.989-1.913
			c0.1-0.063,0.141-0.271,0.127-0.42c-0.011-0.13,0.523-0.575-0.138-0.214c-14.103,7.681-28.411,21.922-42.87,31.973
			c-1.825-0.715-4.445-1.857-6.018-2.494c-9.994-4.078-19.971-7.375-29.976-13.224C7.473,56.008,5.627,54.649,4.587,55.136z
			 M4.587,52.991c13.549,8.788,26.849,12.123,40.281,18.253c13.409-9.57,26.55-22.734,39.68-30.392
			c1.036-0.607,2.004-1.289,2.989-1.913c0.1-0.063,0.141-0.271,0.127-0.42c-0.011-0.13,0.523-0.574-0.138-0.214
			c-14.103,7.681-28.411,21.922-42.87,31.974c-1.825-0.717-4.445-1.858-6.018-2.495c-9.994-4.078-19.971-7.375-29.976-13.224
			C7.473,53.864,5.627,52.505,4.587,52.991z M4.587,50.848C18.137,59.635,31.437,62.971,44.869,69.1
			c13.409-9.569,26.55-22.733,39.68-30.392c1.036-0.607,2.004-1.289,2.989-1.912c0.1-0.063,0.141-0.271,0.127-0.42
			c-0.011-0.131,0.523-0.575-0.138-0.215c-14.103,7.681-28.411,21.923-42.87,31.974c-1.825-0.716-4.445-1.857-6.018-2.494
			c-9.994-4.078-19.971-7.375-29.976-13.225C7.473,51.721,5.627,50.361,4.587,50.848z M4.587,48.704
			c13.549,8.787,26.849,12.122,40.281,18.252c13.409-9.57,26.55-22.733,39.68-30.392c1.036-0.607,2.004-1.289,2.989-1.912
			c0.1-0.063,0.141-0.271,0.127-0.42c-0.011-0.13,0.523-0.574-0.138-0.215C73.425,41.698,59.116,55.94,44.657,65.99
			c-1.825-0.715-4.445-1.857-6.018-2.494c-9.994-4.078-19.971-7.376-29.976-13.225C7.473,49.576,5.627,48.218,4.587,48.704z
			 M4.587,46.561c13.549,8.787,26.849,12.122,40.281,18.252c13.409-9.57,26.55-22.734,39.68-30.392
			c1.036-0.607,2.004-1.289,2.989-1.913c0.1-0.063,0.141-0.271,0.127-0.419c-0.011-0.131,0.523-0.575-0.138-0.215
			c-14.103,7.681-28.411,21.922-42.87,31.973c-1.825-0.716-4.445-1.857-6.018-2.495c-9.994-4.078-19.971-7.375-29.976-13.224
			C7.473,47.433,5.627,46.074,4.587,46.561z M4.587,44.417c13.549,8.787,26.849,12.122,40.281,18.251
			c13.409-9.569,26.55-22.733,39.68-30.392c1.036-0.607,2.004-1.289,2.989-1.912c0.1-0.063,0.141-0.271,0.127-0.42
			c-0.011-0.13,0.523-0.575-0.138-0.215c-14.103,7.682-28.411,21.923-42.87,31.974c-1.825-0.716-4.445-1.857-6.018-2.495
			c-9.994-4.078-19.971-7.375-29.976-13.225C7.473,45.289,5.627,43.93,4.587,44.417z M4.587,42.272
			c13.549,8.787,26.849,12.123,40.281,18.252c13.409-9.569,26.55-22.734,39.68-30.392c1.036-0.607,2.004-1.289,2.989-1.912
			c0.1-0.063,0.141-0.271,0.127-0.42c-0.011-0.13,0.523-0.574-0.138-0.215c-14.103,7.681-28.411,21.923-42.87,31.974
			c-1.825-0.716-4.445-1.858-6.018-2.495c-9.994-4.078-19.971-7.375-29.976-13.224C7.473,43.145,5.627,41.786,4.587,42.272z
			 M4.587,40.128c13.549,8.788,26.849,12.123,40.281,18.252c13.409-9.57,26.55-22.734,39.68-30.392
			c1.036-0.607,2.004-1.289,2.989-1.913c0.1-0.062,0.141-0.271,0.127-0.42c-0.011-0.13,0.523-0.574-0.138-0.214
			c-14.103,7.681-28.411,21.922-42.87,31.974c-1.825-0.716-4.445-1.858-6.018-2.495c-9.994-4.078-19.971-7.375-29.976-13.225
			C7.473,41.001,5.627,39.642,4.587,40.128z M4.587,37.985c13.549,8.787,26.849,12.122,40.281,18.252
			c13.409-9.57,26.55-22.734,39.68-30.392c1.036-0.606,2.004-1.289,2.989-1.912c0.1-0.063,0.141-0.271,0.127-0.42
			c-0.011-0.13,0.523-0.575-0.138-0.215c-14.103,7.682-28.411,21.922-42.87,31.974c-1.825-0.715-4.445-1.857-6.018-2.494
			c-9.994-4.078-19.971-7.376-29.976-13.225C7.473,38.857,5.627,37.499,4.587,37.985z M4.587,35.841
			c13.549,8.787,26.849,12.123,40.281,18.252c13.409-9.57,26.55-22.734,39.68-30.392c1.036-0.607,2.004-1.289,2.989-1.912
			c0.1-0.063,0.141-0.271,0.127-0.42c-0.011-0.13,0.523-0.575-0.138-0.214c-14.103,7.681-28.411,21.922-42.87,31.974
			c-1.825-0.716-4.445-1.858-6.018-2.495c-9.994-4.077-19.971-7.375-29.976-13.224C7.473,36.713,5.627,35.354,4.587,35.841z
			 M4.587,33.255c13.549,8.787,26.849,12.122,40.281,18.252c13.409-9.57,26.55-22.734,39.68-30.392
			c1.036-0.607,2.004-1.289,2.989-1.913c0.1-0.063,0.141-0.271,0.127-0.419c-0.011-0.131,0.523-0.575-0.138-0.215
			C73.425,26.25,59.116,40.49,44.657,50.542c-1.825-0.716-4.445-1.857-6.018-2.495c-9.994-4.078-19.971-7.375-29.976-13.224
			C7.473,34.127,5.627,32.769,4.587,33.255z"/>
	</g>
	<g>
		<path fill-rule="evenodd" clip-rule="evenodd" d="M89.229,48.339c12.071,5.679,24.14,9.24,36.614,17.905
			c-0.853,0.908-1.565,1.662-2.728,2.893c0.861,0.472,1.953,1.082,3.303,1.908c-1.426,1.204-2.123,1.8-2.853,2.426
			c0.467,0.717,0.935,1.443,1.581,2.467c-0.49,0.557-1.021,1.16-1.581,1.809c0.413,0.688,0.834,1.396,1.39,2.346
			c-0.834,0.675-1.658,1.359-2.484,2.06c0.82,0.93,1.498,1.705,2.812,3.269c-1.144,0.417-2.047,0.775-3.071,1.207
			c0.993,0.973,1.729,1.706,2.746,2.751c-0.537,0.738-1.062,1.469-1.588,2.212c0.389,0.759,0.777,1.52,1.445,2.844
			c-15.219,6.699-30.412,22.671-45.826,33.475c-1.376-0.541-2.714-0.98-3.989-1.537c-11.914-5.283-23.812-8.708-35.734-16.032
			c-1.289-0.797-2.69-1.425-4.04-2.212c0-0.643,0-1.286,0-1.929c0.756-0.267,1.51-0.538,2.494-0.904
			c-0.972-0.749-1.734-1.361-2.494-1.988c0-0.321,0-0.643,0-0.965c0.896-0.448,1.792-0.905,2.917-1.503
			c-1.275-0.989-2.096-1.668-2.917-2.354c0-0.645,0-1.287,0-1.93c0.882-0.131,1.765-0.268,3.296-0.57
			c-1.605-1.08-2.45-1.702-3.296-2.322c0-0.322,0-0.643,0-0.965c1.076-0.463,2.152-0.959,3.179-1.461
			c-0.993-1.188-1.749-2.117-2.644-3.236c1.052-0.653,1.822-1.158,2.584-1.671c-0.774-0.862-1.48-1.659-2.397-2.717
			c1.077-0.695,1.966-1.3,3-2.038c-1.319-1.147-2.523-2.231-3.723-3.342c0-0.32,0-0.643,0-0.964
			c0.311,0.019,0.656,0.118,0.921,0.041c13.931-4.02,27.867-15.158,41.77-23.617c2.875-1.77,5.616-3.677,8.42-5.354
			C87.301,48.339,88.264,48.339,89.229,48.339z M38.233,107.67c13.549,8.787,26.849,12.122,40.281,18.252
			c13.408-9.57,26.549-22.733,39.68-30.392c1.036-0.606,2.004-1.289,2.988-1.913c0.101-0.062,0.142-0.27,0.129-0.419
			c-0.012-0.131,0.522-0.575-0.139-0.215c-14.102,7.681-28.411,21.922-42.87,31.974c-1.825-0.716-4.445-1.857-6.018-2.495
			c-9.994-4.077-19.971-7.375-29.976-13.224C41.118,108.542,39.273,107.184,38.233,107.67z M38.233,105.525
			c13.549,8.787,26.849,12.123,40.281,18.253c13.408-9.569,26.549-22.734,39.68-30.392c1.036-0.607,2.004-1.289,2.988-1.912
			c0.101-0.063,0.142-0.271,0.129-0.421c-0.012-0.13,0.522-0.574-0.139-0.214c-14.102,7.681-28.411,21.922-42.87,31.973
			c-1.825-0.715-4.445-1.857-6.018-2.494c-9.994-4.078-19.971-7.375-29.976-13.225C41.118,106.398,39.273,105.039,38.233,105.525z
			 M38.233,103.382c13.549,8.788,26.849,12.123,40.281,18.253c13.408-9.57,26.549-22.734,39.68-30.393
			c1.036-0.607,2.004-1.289,2.988-1.912c0.101-0.062,0.142-0.271,0.129-0.42c-0.012-0.131,0.522-0.574-0.139-0.215
			c-14.102,7.682-28.411,21.923-42.87,31.974c-1.825-0.716-4.445-1.857-6.018-2.495c-9.994-4.077-19.971-7.375-29.976-13.224
			C41.118,104.255,39.273,102.896,38.233,103.382z M38.233,101.238c13.549,8.787,26.849,12.122,40.281,18.252
			c13.408-9.57,26.549-22.733,39.68-30.392c1.036-0.606,2.004-1.289,2.988-1.913c0.101-0.062,0.142-0.27,0.129-0.42
			c-0.012-0.13,0.522-0.574-0.139-0.214c-14.102,7.681-28.411,21.923-42.87,31.974c-1.825-0.716-4.445-1.857-6.018-2.494
			c-9.994-4.078-19.971-7.376-29.976-13.225C41.118,102.11,39.273,100.752,38.233,101.238z M38.233,99.095
			c13.549,8.787,26.849,12.122,40.281,18.252c13.408-9.57,26.549-22.734,39.68-30.392c1.036-0.607,2.004-1.289,2.988-1.912
			c0.101-0.063,0.142-0.271,0.129-0.42c-0.012-0.131,0.522-0.574-0.139-0.215c-14.102,7.681-28.411,21.922-42.87,31.973
			c-1.825-0.715-4.445-1.857-6.018-2.494c-9.994-4.078-19.971-7.375-29.976-13.225C41.118,99.967,39.273,98.608,38.233,99.095z
			 M38.233,96.951c13.549,8.787,26.849,12.122,40.281,18.252c13.408-9.57,26.549-22.734,39.68-30.393
			c1.036-0.606,2.004-1.288,2.988-1.912c0.101-0.062,0.142-0.271,0.129-0.42c-0.012-0.131,0.522-0.574-0.139-0.215
			c-14.102,7.682-28.411,21.923-42.87,31.974c-1.825-0.716-4.445-1.856-6.018-2.495c-9.994-4.077-19.971-7.375-29.976-13.224
			C41.118,97.823,39.273,96.464,38.233,96.951z M38.233,94.807c13.549,8.787,26.849,12.123,40.281,18.252
			c13.408-9.569,26.549-22.733,39.68-30.392c1.036-0.606,2.004-1.289,2.988-1.912c0.101-0.063,0.142-0.271,0.129-0.421
			c-0.012-0.129,0.522-0.574-0.139-0.214c-14.102,7.681-28.411,21.923-42.87,31.974c-1.825-0.716-4.445-1.857-6.018-2.494
			c-9.994-4.078-19.971-7.376-29.976-13.225C41.118,95.68,39.273,94.32,38.233,94.807z M38.233,92.663
			c13.549,8.787,26.849,12.122,40.281,18.252c13.408-9.569,26.549-22.733,39.68-30.392c1.036-0.607,2.004-1.289,2.988-1.912
			c0.101-0.063,0.142-0.271,0.129-0.42c-0.012-0.131,0.522-0.575-0.139-0.215c-14.102,7.681-28.411,21.922-42.87,31.974
			c-1.825-0.716-4.445-1.858-6.018-2.495c-9.994-4.077-19.971-7.375-29.976-13.225C41.118,93.535,39.273,92.177,38.233,92.663z
			 M38.233,90.52c13.549,8.787,26.849,12.122,40.281,18.252c13.408-9.57,26.549-22.734,39.68-30.393
			c1.036-0.606,2.004-1.289,2.988-1.912c0.101-0.062,0.142-0.271,0.129-0.42c-0.012-0.131,0.522-0.574-0.139-0.215
			c-14.102,7.682-28.411,21.923-42.87,31.974c-1.825-0.716-4.445-1.857-6.018-2.494c-9.994-4.078-19.971-7.376-29.976-13.225
			C41.118,91.392,39.273,90.033,38.233,90.52z M38.233,88.375c13.549,8.787,26.849,12.123,40.281,18.252
			c13.408-9.569,26.549-22.733,39.68-30.392c1.036-0.607,2.004-1.288,2.988-1.912c0.101-0.063,0.142-0.271,0.129-0.421
			c-0.012-0.129,0.522-0.574-0.139-0.214c-14.102,7.681-28.411,21.923-42.87,31.974c-1.825-0.716-4.445-1.857-6.018-2.494
			c-9.994-4.078-19.971-7.376-29.976-13.225C41.118,89.248,39.273,87.889,38.233,88.375z M38.233,86.231
			c13.549,8.788,26.849,12.122,40.281,18.252c13.408-9.569,26.549-22.733,39.68-30.392c1.036-0.607,2.004-1.289,2.988-1.912
			c0.101-0.063,0.142-0.271,0.129-0.42c-0.012-0.131,0.522-0.575-0.139-0.215c-14.102,7.682-28.411,21.922-42.87,31.974
			c-1.825-0.716-4.445-1.858-6.018-2.495c-9.994-4.077-19.971-7.375-29.976-13.225C41.118,87.104,39.273,85.745,38.233,86.231z
			 M38.233,84.088c13.549,8.787,26.849,12.122,40.281,18.252c13.408-9.57,26.549-22.734,39.68-30.393
			c1.036-0.606,2.004-1.289,2.988-1.912c0.101-0.062,0.142-0.271,0.129-0.42c-0.012-0.13,0.522-0.574-0.139-0.215
			c-14.102,7.682-28.411,21.923-42.87,31.974c-1.825-0.716-4.445-1.857-6.018-2.494c-9.994-4.078-19.971-7.375-29.976-13.225
			C41.118,84.96,39.273,83.602,38.233,84.088z M38.233,81.502c13.549,8.787,26.849,12.122,40.281,18.252
			c13.408-9.57,26.549-22.734,39.68-30.393c1.036-0.606,2.004-1.289,2.988-1.912c0.101-0.062,0.142-0.271,0.129-0.42
			c-0.012-0.13,0.522-0.574-0.139-0.215c-14.102,7.682-28.411,21.923-42.87,31.975c-1.825-0.717-4.445-1.858-6.018-2.495
			c-9.994-4.078-19.971-7.376-29.976-13.225C41.118,82.374,39.273,81.016,38.233,81.502z"/>
	</g>
</g>
</svg>
