<?xml version="1.0" encoding="utf-8"?>
<!-- Generator: Adobe Illustrator 16.0.4, SVG Export Plug-In . SVG Version: 6.00 Build 0)  -->
<!DOCTYPE svg PUBLIC "-//W3C//DTD SVG 1.1//EN" "http://www.w3.org/Graphics/SVG/1.1/DTD/svg11.dtd">
<svg version="1.1" id="Layer_4004" xmlns="http://www.w3.org/2000/svg" xmlns:xlink="http://www.w3.org/1999/xlink" x="0px" y="0px"
	 width="128px" height="128px" viewBox="0 0 128 128" enable-background="new 0 0 128 128" xml:space="preserve">
<g id="TBp3CA.tif">
	<g>
		<path fill-rule="evenodd" clip-rule="evenodd" d="M0.193,60.987c1.869,0.212,3.733,0.505,5.607,0.619
			c3.029,0.184,6.063,0.133,9.062-0.393c2.397-0.42,4.802-0.832,7.165-1.406c3.478-0.847,6.774-2.19,9.864-4.016
			c2.688-1.588,5.096-3.522,7.073-5.938c1.179-1.441,2.225-2.994,3.303-4.517c1.524-2.149,3.006-4.328,4.546-6.465
			c0.357-0.496,0.883-0.868,1.323-1.307c1.157-1.157,2.309-2.32,3.465-3.479c0.044-0.045,0.102-0.078,0.161-0.122
			c0.052,0.056,0.101,0.099,0.138,0.149c0.292,0.416,0.781,0.817,0.813,1.252c0.031,0.416-0.385,0.886-0.657,1.298
			c-1.551,2.349-3.1,4.699-4.684,7.024c-1.151,1.69-2.394,3.316-3.531,5.015c-2.338,3.495-5.174,6.496-8.677,8.836
			c-2.127,1.421-4.396,2.587-6.769,3.552c-3.516,1.43-7.163,2.403-10.898,3.008c-4.03,0.652-8.092,1.035-12.182,0.705
			c-1.711-0.137-3.415-0.375-5.122-0.569C0.193,63.15,0.193,62.068,0.193,60.987z"/>
		<path fill-rule="evenodd" clip-rule="evenodd" d="M72.082,0.899c0.033,1.784,0.01,3.57,0.11,5.351
			c0.225,3.957,1.036,7.784,2.887,11.323c1.767,3.379,4.339,5.954,7.841,7.546c0.119,0.054,0.234,0.114,0.298,0.145
			c-0.159,1.083-0.313,2.138-0.484,3.305c-0.829-0.401-1.731-0.795-2.594-1.263c-2.472-1.339-4.509-3.191-6.171-5.442
			c-1.276-1.73-2.246-3.632-3.004-5.653c-1.236-3.296-1.822-6.716-2.023-10.207c-0.098-1.698-0.074-3.403-0.105-5.104
			C69.918,0.899,71,0.899,72.082,0.899z"/>
		<path fill-rule="evenodd" clip-rule="evenodd" d="M126.869,17.821c0.412,0.831-0.524,1.688-0.938,2.374
			c-0.124,0.206-0.43,0.995-0.743,0.591c-0.307-0.391-0.498-0.84-0.795-1.225c-0.56-0.726-1.708-1.386-2.564-1.663
			c-1.212-0.391-2.211-0.548-3.458-0.214c-2.456,0.658-4.842,1.727-7.229,2.598c-1.26,0.459-2.531,0.879-3.834,1.2
			c-0.995,0.245-2.466,0.767-3.491,0.562c0-1.062,0-2.101,0-3.138c2.356-0.493,4.593-1.117,6.865-1.925
			c2.336-0.831,4.632-1.785,7.027-2.437c1.765-0.48,3.563-0.997,5.36-0.393C124.937,14.757,125.989,16.06,126.869,17.821
			C126.945,17.975,126.731,17.546,126.869,17.821z"/>
		<path fill-rule="evenodd" clip-rule="evenodd" d="M52.02,0.899c0.049,1.897,0.107,3.794,0.145,5.69
			c0.04,2.048,0.139,4.088,0.538,6.104c0.568,2.868,1.471,5.622,2.817,8.225c0.254,0.491,0.471,1.001,0.728,1.55
			c-0.736,0.789-1.488,1.594-2.326,2.491c-0.666-1.353-1.316-2.611-1.91-3.895c-1.17-2.535-2.018-5.185-2.505-7.927
			c-0.285-1.604-0.394-3.247-0.48-4.878c-0.13-2.451-0.172-4.907-0.251-7.36C49.856,0.899,50.938,0.899,52.02,0.899z"/>
		<path fill-rule="evenodd" clip-rule="evenodd" d="M125.807,58.03"/>
		<path fill-rule="evenodd" clip-rule="evenodd" d="M123.117,46.481c-0.963-1.565-2.523-2.652-4.621-2.764
			c-4.467-0.238-4.942,5.792-8.188,7.656c-1.377-5.603,3.093-10.507,8.485-11.101c1.868-0.206,5.593,0.591,6.839,2.58
			c0.783,1.25,1.393,2.606,1.366,4.147"/>
		<path fill-rule="evenodd" clip-rule="evenodd" d="M59.441,27.672c1.587,2.374,3.084,4.597,4.565,6.832
			c1.648,2.488,3.115,5.078,4.188,7.871c1.468,3.815,2.005,7.745,1.393,11.812c-0.641,4.247-2.212,8.128-4.617,11.667
			c-1.692,2.489-3.477,4.916-5.202,7.384c-1.004,1.435-2.017,2.866-2.947,4.349c-1.663,2.646-2.278,5.582-2.185,8.679
			c0.073,2.409,0.611,4.714,1.841,6.8c1.369,2.322,3.267,3.984,6.02,4.479c1.946,0.35,3.878,0.266,5.813-0.091
			c1.529-0.282,2.978-0.786,4.281-1.63c2.562-1.66,3.168-3.926,1.787-6.656c-0.967-1.91-2.108-2.454-4.491-1.846
			c-1.424,0.365-2.664,1.152-3.869,1.984c-2.437,1.684-4.346,3.859-5.966,6.312c-0.062,0.096-0.131,0.186-0.221,0.312
			c-0.888-0.57-1.622-1.276-2.222-2.119c-0.055-0.078-0.017-0.281,0.048-0.379c1.819-2.723,4.021-5.076,6.742-6.922
			c1.622-1.102,3.329-2.006,5.263-2.441c3.089-0.695,5.7,0.367,7.28,3.1c1.343,2.32,1.839,4.783,0.843,7.387
			c-0.697,1.824-2.017,3.125-3.654,4.102c-3.124,1.865-6.562,2.502-10.142,2.322c-4.797-0.241-8.325-2.571-10.586-6.795
			c-0.942-1.762-1.506-3.655-1.771-5.635c-0.026-0.191-0.028-0.395-0.003-0.586c0.174-1.374,0.175-2.74-0.069-4.11
			c-0.066-0.374,0.001-0.785,0.064-1.169c0.423-2.562,1.193-5.002,2.691-7.152c2.066-2.968,4.182-5.899,6.257-8.86
			c2.233-3.185,4.3-6.463,5.29-10.286c0.87-3.365,1.025-6.752,0.182-10.156c-0.672-2.711-1.804-5.233-3.273-7.585
			c-1.715-2.745-3.534-5.425-5.332-8.116c-0.239-0.357-0.182-0.555,0.083-0.826C58.149,29.062,58.757,28.399,59.441,27.672z"/>
		<path fill-rule="evenodd" clip-rule="evenodd" d="M73.854,13.162c-0.234-1.054-0.46-2.023-0.654-2.999
			c-0.02-0.098,0.127-0.296,0.24-0.342c1.492-0.622,2.965-1.313,4.499-1.813c2.42-0.789,4.919-1.297,7.476-1.245
			c1.109,0.022,2.217,0.12,3.318,0.253c2.752,0.332,5.535,1.07,7.941,2.586c1.398,0.883,2.475,2.05,3.582,3.233
			c1.133,1.211,2.043,2.624,2.577,4.199c0.926,2.728,0.64,5.395-0.77,7.917c-1.546,2.765-4.059,4.128-7.048,4.75
			c-2.004,0.417-4.033,0.46-6.062,0.213c-0.385-0.047-0.883-0.099-1.105-0.349c-0.489-0.549-0.83-1.234-0.691-2.024
			c0.06-0.348,0.199-0.682,0.275-0.934c1.574,0.084,3.074,0.247,4.572,0.226c1.828-0.026,3.58-0.429,5.209-1.358
			c2.598-1.482,3.592-5.212,2.428-7.796c-0.785-1.743-2.014-3.097-3.508-4.222c-2.132-1.604-4.479-2.783-7.137-3.212
			c-3.959-0.639-7.799-0.105-11.518,1.339c-1.035,0.402-2.037,0.889-3.055,1.335C74.262,12.99,74.098,13.057,73.854,13.162
			C73.619,12.108,74.098,13.057,73.854,13.162z"/>
		<path fill-rule="evenodd" clip-rule="evenodd" d="M32.372,94.52c-0.622-0.877-1.228-1.729-1.86-2.619
			c0.385-0.244,0.776-0.496,1.171-0.742c2.167-1.348,4.363-2.652,6.493-4.057c1.516-0.998,2.908-2.162,4.168-3.492
			c1.255-1.324,2.299-2.768,2.946-4.475c1.106-2.922,0.805-5.75-0.619-8.486c-1.088-2.094-2.663-3.736-4.758-4.812
			c-2.397-1.232-4.949-1.608-7.571-0.893c-0.848,0.23-1.63,0.73-2.416,1.156c-0.261,0.141-0.431,0.187-0.695,0.035
			c-0.849-0.484-1.713-0.942-2.716-1.489c0.804-0.596,1.493-1.189,2.257-1.66c2.453-1.511,5.138-1.782,7.949-1.453
			c2.509,0.293,4.736,1.237,6.724,2.75c1.565,1.192,2.848,2.654,3.804,4.384c0.073,0.133,0.097,0.307,0.099,0.463
			c0.034,2.332,0.592,4.527,1.69,6.59c0.094,0.174,0.131,0.403,0.123,0.604c-0.108,2.344-0.872,4.484-2.084,6.468
			c-1.572,2.573-3.726,4.609-6.178,6.303c-2.327,1.606-4.756,3.063-7.143,4.581C33.312,93.957,32.86,94.222,32.372,94.52z"/>
		<path fill-rule="evenodd" clip-rule="evenodd" d="M18.702,53.334c0.179-1.211,0.334-2.261,0.476-3.224
			c1.75-0.506,3.479-0.937,5.161-1.507c2.576-0.875,5.008-2.075,7.378-3.414c2.457-1.388,4.805-2.934,7.059-4.622
			c4.167-3.121,7.979-6.631,11.422-10.541c1.893-2.149,3.79-4.296,5.712-6.418c0.534-0.589,1.168-1.089,1.78-1.652
			c0.553,0.811,1.159,1.697,1.766,2.585c-0.919,0.987-1.851,1.95-2.741,2.95c-1.644,1.845-3.228,3.745-4.904,5.56
			c-1.398,1.514-2.825,3.013-4.359,4.385c-2.231,1.993-4.52,3.931-6.876,5.774c-2.788,2.18-5.793,4.041-8.933,5.688
			c-2.922,1.532-5.943,2.81-9.134,3.651C21.285,52.87,20.026,53.064,18.702,53.334z"/>
		<path fill-rule="evenodd" clip-rule="evenodd" d="M122.649,93.068c-0.781,0.785-1.523,1.533-2.218,2.23
			c-1.416-0.881-2.711-1.742-4.059-2.513c-2.82-1.612-5.816-2.839-8.899-3.847c-4.221-1.377-8.543-2.328-12.913-3.1
			c-3.475-0.613-6.989-1.051-10.354-2.197c-2.081-0.708-4.098-1.553-5.982-2.686c-1.021-0.613-2.007-1.285-3.019-1.938
			c0.55-0.996,1.065-1.932,1.537-2.787c1.443,0.881,2.841,1.822,4.318,2.613c2.864,1.535,5.966,2.387,9.144,2.994
			c4.222,0.807,8.458,1.561,12.657,2.473c3.841,0.834,7.555,2.108,11.153,3.705c2.79,1.238,5.442,2.719,7.925,4.498
			C122.149,92.665,122.347,92.832,122.649,93.068z"/>
		<path fill-rule="evenodd" clip-rule="evenodd" d="M53.458,75.748c-0.516,1.09-1.006,2.123-1.507,3.18
			c-1.181-1.277-2.119-2.716-2.854-4.302c-1.587-3.421-1.511-6.899-0.276-10.37c0.919-2.584,1.952-5.131,2.998-7.668
			c1.271-3.084,2.651-6.125,3.291-9.428c0.695-3.594,0.505-7.112-1.025-10.472c-0.504-1.107-1.223-2.117-1.888-3.246
			c0.622-0.715,1.325-1.522,2.127-2.445c0.764,1.159,1.564,2.217,2.198,3.368c1.791,3.247,2.329,6.771,2.118,10.437
			c-0.203,3.53-1.283,6.83-2.617,10.065c-1.283,3.113-2.615,6.208-3.806,9.356c-0.516,1.364-0.876,2.824-1.049,4.272
			c-0.292,2.424,0.542,4.607,1.87,6.615C53.181,75.326,53.324,75.545,53.458,75.748z"/>
		<path fill-rule="evenodd" clip-rule="evenodd" d="M71.85,75.975c-0.833-1.188-1.727-2.338-2.484-3.571
			c-1.488-2.419-2.395-5.047-2.496-7.908c-0.014-0.399,0.099-0.845,0.281-1.202c0.998-1.958,1.797-3.988,2.389-6.104
			c0.066-0.235,0.217-0.487,0.402-0.642c1.266-1.054,2.741-1.645,4.368-1.85c2.942-0.371,5.681,0.382,8.341,1.543
			c2.992,1.307,5.713,3.062,8.229,5.122c2.15,1.76,4.221,3.617,6.326,5.431c-0.019,0.064-0.037,0.128-0.057,0.192
			c-0.996,0.425-1.988,0.854-2.992,1.26c-0.087,0.036-0.266-0.069-0.363-0.155c-0.662-0.583-1.314-1.18-1.971-1.771
			c-2.436-2.201-5.027-4.198-7.875-5.836c-2.137-1.23-4.375-2.247-6.845-2.589c-1.774-0.245-3.502-0.134-4.997,1.045
			c-1.223,0.963-1.76,2.285-1.987,3.762c-0.282,1.831,0.077,3.584,0.688,5.301c0.586,1.648,1.432,3.154,2.514,4.527
			c0.176,0.225,0.197,0.404,0.07,0.66c-0.45,0.904-0.877,1.819-1.312,2.73C72.002,75.939,71.926,75.957,71.85,75.975z"/>
		<path fill-rule="evenodd" clip-rule="evenodd" d="M23.113,48.534c-1.272,0.3-2.411,0.578-3.556,0.83
			c-0.312,0.068-0.315-0.183-0.318-0.414c-0.015-1.063,0.004-2.13-0.069-3.19c-0.166-2.411-0.613-4.763-1.598-6.994
			c-0.111-0.251-0.119-0.615-0.03-0.877c0.517-1.509,1.268-2.902,2.208-4.194c1.699-2.333,3.811-4.218,6.229-5.775
			c3.121-2.008,6.488-3.359,10.184-3.853c2.022-0.271,4.011-0.11,5.997,0.331c2.919,0.648,5.653,1.729,8.175,3.34
			c0.229,0.147,0.442,0.321,0.696,0.506c-0.719,0.827-1.404,1.614-2.023,2.325c-1.401-0.686-2.71-1.445-4.104-1.983
			c-2.31-0.889-4.684-1.568-7.212-1.439c-1.649,0.084-3.232,0.457-4.792,0.973c-2.769,0.917-5.271,2.323-7.486,4.204
			c-2.395,2.035-4.32,4.421-5.105,7.56c-0.541,2.163-0.196,4.211,0.769,6.194C21.533,47.01,22.164,47.782,23.113,48.534z"/>
		<path fill-rule="evenodd" clip-rule="evenodd" d="M114.411,25.18c-1.456,1.69-2.829,3.338-4.261,4.934
			c-1.957,2.18-3.932,4.346-5.947,6.471c-1.964,2.07-4.104,3.956-6.422,5.62c-4.02,2.888-8.374,5.115-13.202,6.307
			c-1.409,0.348-2.864,0.508-4.298,0.76c-0.341,0.06-0.479-0.042-0.551-0.407c-0.177-0.895-0.42-1.777-0.624-2.617
			c1.337-0.241,2.683-0.421,3.994-0.738c1.441-0.349,2.882-0.744,4.271-1.259c3.227-1.198,6.186-2.906,8.941-4.963
			c2.195-1.638,4.245-3.451,6.09-5.472c2.891-3.167,5.722-6.389,8.578-9.587c0.118-0.133,0.238-0.265,0.379-0.42
			C112.359,24.259,113.353,24.705,114.411,25.18z"/>
		<path fill-rule="evenodd" clip-rule="evenodd" d="M56.565,78.968c1.072,0.593,1.996,1.195,2.993,1.632
			c2.342,1.027,4.763,1.527,7.304,0.753c1.812-0.554,3.195-1.675,4.311-3.173c2.499-3.357,3.808-7.205,4.639-11.247
			c0.542-2.638,0.76-5.314,0.892-7.999c0.008-0.16,0.016-0.32,0.027-0.585c0.736,0.168,1.424,0.293,2.094,0.485
			c1.096,0.315,1.102,0.335,1.035,1.473c-0.223,3.786-0.773,7.516-1.873,11.157c-0.81,2.68-1.928,5.215-3.465,7.557
			c-1.012,1.543-2.185,2.949-3.736,3.984c-0.344,0.229-0.758,0.365-1.154,0.502c-0.693,0.242-1.455,0.349-2.088,0.694
			c-1.42,0.776-2.918,0.788-4.444,0.653c-2.579-0.229-4.916-1.156-7.107-2.504c-0.347-0.214-0.417-0.435-0.292-0.795
			C55.999,80.694,56.279,79.827,56.565,78.968z"/>
		<path fill-rule="evenodd" clip-rule="evenodd" d="M20.069,7.406c-0.248,2.059-0.399,4.134-0.764,6.172
			c-0.671,3.752-1.733,7.412-2.975,11.013c-1.742,5.052-3.528,10.087-5.338,15.115c-0.704,1.952-1.526,3.861-2.292,5.791
			c-0.124,0.312-0.238,0.629-0.382,1.01c-0.761-0.721-1.255-1.54-1.761-2.359c-0.372-0.603-0.339-1.121-0.086-1.778
			c1.583-4.119,3.131-8.251,4.646-12.396c0.813-2.226,1.581-4.47,2.295-6.729c1.073-3.396,2.107-6.808,2.76-10.317
			c0.167-0.9,0.262-1.814,0.364-2.724c0.036-0.315,0.142-0.517,0.42-0.707c0.996-0.68,1.961-1.403,2.938-2.111
			C19.952,7.393,20.01,7.399,20.069,7.406z"/>
		<path fill-rule="evenodd" clip-rule="evenodd" d="M75.439,49.07c-4.051-0.603-6.57-4.179-5.866-8.049
			c0.413-2.274,1.53-4.224,2.638-6.189c0.852-1.512,1.711-3.024,1.889-4.803c0.176-1.776-0.422-3.226-1.883-4.265
			c-2.039-1.451-4.355-1.68-6.753-1.394c-0.503,0.06-0.811-0.02-1.098-0.448c-0.447-0.663-0.96-1.281-1.508-2.001
			c0.3-0.187,0.547-0.44,0.836-0.505c3.079-0.694,6.097-0.513,8.959,0.873c2.268,1.098,3.87,2.829,4.488,5.335
			c0.499,2.023,0.174,3.99-0.675,5.841c-0.77,1.676-1.741,3.258-2.538,4.923c-0.483,1.01-0.922,2.071-1.171,3.157
			c-0.331,1.441,0.098,2.719,1.34,3.643c0.099,0.074,0.201,0.182,0.237,0.295C74.702,46.647,75.056,47.817,75.439,49.07z"/>
		<path fill-rule="evenodd" clip-rule="evenodd" d="M39.825,114.729c-1.049,0.248-2.063,0.488-3.057,0.723
			c-0.357-1.427-0.695-2.84-1.067-4.244c-0.934-3.522-2.265-6.89-3.913-10.141c-1.278-2.52-2.727-4.928-4.481-7.14
			c-2.018-2.544-4.3-4.807-7.204-6.354c-0.242-0.129-0.489-0.25-0.744-0.381c0.453-0.949,0.895-1.875,1.38-2.893
			c0.631,0.332,1.25,0.617,1.828,0.97c2.802,1.71,5.112,3.966,7.147,6.518c2.537,3.181,4.505,6.698,6.178,10.396
			c1.789,3.953,3.031,8.076,3.914,12.316C39.818,114.561,39.817,114.627,39.825,114.729z"/>
		<path fill-rule="evenodd" clip-rule="evenodd" d="M90.656,109.024c1.13-0.45,2.26-0.899,3.391-1.349
			c0.061-0.023,0.13-0.025,0.188-0.055c1.742-0.856,3.43-0.355,5.111,0.215c2.166,0.734,4.373,1.215,6.676,1.248
			c3.028,0.044,5.871-0.713,8.582-1.975c3.009-1.399,5.967-2.908,8.961-4.342c0.793-0.379,1.632-0.66,2.512-1.01
			c0.598,0.916,1.185,1.816,1.805,2.768c-0.729,0.273-1.42,0.479-2.064,0.785c-2.395,1.133-4.781,2.283-7.156,3.457
			c-2.969,1.465-5.984,2.782-9.293,3.297c-2.91,0.455-5.777,0.256-8.617-0.475c-2.674-0.688-5.344-1.391-8.021-2.064
			c-0.664-0.168-1.35-0.247-2.025-0.367C90.688,109.113,90.672,109.069,90.656,109.024z"/>
		<path fill-rule="evenodd" clip-rule="evenodd" d="M99.541,19.406c0.205,0.94-0.039,1.921-0.367,2.883
			c-0.039,0.116-0.309,0.206-0.477,0.215c-1.603,0.086-3.215,0.073-4.807,0.25c-1.322,0.147-2.658,0.401-3.922,0.811
			c-1.611,0.521-2.693,1.68-3.218,3.326c-0.277,0.869-0.181,1.682,0.281,2.453c0.714,1.188,1.706,2.126,2.831,2.895
			c2.59,1.771,5.219,3.486,7.88,5.256c-0.816,0.628-1.65,1.278-2.5,1.909c-0.083,0.061-0.29,0.044-0.388-0.019
			c-2.696-1.732-5.5-3.309-7.958-5.392c-1.005-0.852-1.915-1.791-2.587-2.935c-0.971-1.658-1.18-3.393-0.576-5.237
			c0.949-2.909,3-4.633,5.834-5.547c1.889-0.609,3.839-0.809,5.807-0.861C96.746,19.376,98.119,19.406,99.541,19.406z"/>
		<path fill-rule="evenodd" clip-rule="evenodd" d="M120.551,45.294c0.051,0.045,0.09,0.098,0.08,0.147
			c-0.219,0.006-0.311,0.29-0.388,0.445c-0.081,0.163-0.235,0.306-0.347,0.448c-0.326,0.413-0.657,0.82-1.003,1.215
			c-2.047,2.336-4.165,4.61-6.218,6.942c-0.997,1.133-1.845,2.377-2.385,3.809c-0.592,1.569-0.443,3.08,0.311,4.555
			c0.945,1.849,2.367,3.328,3.757,4.828c0.776,0.839,1.582,1.652,2.458,2.563c-1.146,0.337-2.205,0.657-3.271,0.952
			c-0.108,0.031-0.296-0.039-0.381-0.127c-2.012-2.084-4.082-4.125-5.424-6.746c-1.332-2.601-1.362-5.239-0.159-7.896
			c0.854-1.888,2.123-3.492,3.483-5.026c0.856-0.966,1.718-1.927,2.582-2.886c0.868-0.964,1.739-1.925,2.609-2.888
			c0.303-0.335,0.597-0.683,0.911-1.008c0.11-0.114,0.193-0.157,0.349-0.131c0.187,0.03,0.375-0.008,0.56,0.025
			c0.092,0.017,0.197,0.016,0.287,0.04c0.075,0.02,0.125,0.021,0.203,0.028c0.039,0.002,0.076,0.013,0.111,0.032
			c0.035,0.006,0.081-0.001,0.115,0.007c0.074,0.018,0.117,0.042,0.196,0.042c0.093-0.001,0.192-0.012,0.284-0.002
			c0.15,0.017,0.267,0.113,0.422,0.119c0.115,0.004,0.27,0.081,0.361,0.147c0.115,0.083,0.225,0.18,0.344,0.256
			C120.436,45.206,120.499,45.247,120.551,45.294z"/>
		<path fill-rule="evenodd" clip-rule="evenodd" d="M26.896,94.238c0.64,0.885,1.25,1.729,1.877,2.598
			c-0.467,0.356-0.899,0.676-1.317,1.012c-2.5,2.012-3.566,4.656-3.378,7.818c0.124,2.09,0.825,3.965,2.328,5.477
			c0.813,0.816,1.818,1.32,2.912,1.66c1.709,0.531,3.463,0.677,5.242,0.619c0.359-0.011,0.719-0.002,1.157-0.002
			c0.151,0.668,0.318,1.359,0.453,2.059c0.015,0.076,0.081,0.363-0.026,0.41c-0.235,0.379-0.851,0.312-1.473,0.561
			c-0.135,0.055-0.887,0.186-1.029,0.187c-2.795,0.009-5.485-0.464-7.898-1.956c-2.542-1.572-3.958-3.951-4.581-6.812
			c-0.715-3.281-0.286-6.412,1.431-9.332c0.86-1.463,2.041-2.63,3.395-3.633C26.263,94.698,26.541,94.498,26.896,94.238z"/>
		<path fill-rule="evenodd" clip-rule="evenodd" d="M106.344,58.255c-0.181,1.151-0.27,2.305-0.03,3.45
			c0.146,0.701,0.37,1.387,0.595,2.069c0.096,0.292,0.096,0.513-0.105,0.766c-1.142,1.435-2.496,2.63-4.027,3.632
			c-2.52,1.648-5.298,2.762-8.051,3.934c-2.465,1.051-4.934,2.102-7.164,3.621c-1.402,0.957-2.676,2.051-3.688,3.422
			c-0.176,0.238-0.321,0.309-0.6,0.172c-0.848-0.42-1.708-0.814-2.599-1.236c0.846-1.33,1.868-2.428,3.002-3.422
			c2.177-1.908,4.687-3.274,7.319-4.432c2.17-0.955,4.356-1.873,6.516-2.849c1.897-0.856,3.722-1.856,5.283-3.255
			c1.424-1.274,2.495-2.802,3.106-4.63C106.041,59.08,106.195,58.669,106.344,58.255z"/>
		<path fill-rule="evenodd" clip-rule="evenodd" d="M125.155,80.326c1.155,2.477,1.052,2.477,1.781,4.198
			c0.115,0.225,0.793,2.821,0.806,3.073c0.227,4.467-1.592,7.971-5.092,10.65c-2.678,2.048-5.759,3.273-8.944,4.268
			c-0.669,0.209-1.347,0.393-1.998,0.582c-0.285-1.035-0.561-2.037-0.843-3.062c0.917-0.291,1.865-0.583,2.808-0.893
			c2.468-0.811,4.845-1.817,6.939-3.383c2.519-1.883,4.006-4.349,3.962-7.563c-0.031-2.219-0.881-4.205-1.984-6.091
			c-0.255-0.438-0.524-0.868-0.816-1.348l-2.66-3.407c-0.777-0.852-1.545-1.69-2.342-2.561c1.068-0.426,2.104-0.839,3.209-1.278
			c0.616,0.695,1.243,1.402,1.922,2.169C121.902,75.681,125.053,79.905,125.155,80.326z"/>
		<path fill-rule="evenodd" clip-rule="evenodd" d="M125.166,64.248c-0.17,0.973-0.343,1.952-0.51,2.931
			c-0.059,0.339-0.161,0.685-0.138,1.019c0.065,0.953-0.401,1.623-1.099,2.154c-1.077,0.822-2.126,1.705-3.29,2.385
			c-2.034,1.189-4.29,1.834-6.591,2.301c-3.791,0.77-7.523,0.558-11.164-0.768c-1.743-0.633-3.349-1.542-4.882-2.736
			c0.821-0.379,1.628-0.666,2.341-1.105c0.7-0.432,1.229-0.355,1.937,0.033c2.543,1.393,5.306,1.882,8.19,1.771
			c2.617-0.102,5.119-0.711,7.51-1.736c2.549-1.096,4.477-2.971,6.138-5.146c0.209-0.272,0.435-0.54,0.594-0.841
			C124.439,64.06,124.748,64.008,125.166,64.248z"/>
		<path fill-rule="evenodd" clip-rule="evenodd" d="M13.671,95.006c1.051-1.488,2.106-2.887,3.058-4.351
			c2.402-3.694,4.089-7.747,5.764-11.8c1.287-3.112,2.505-6.254,4.252-9.186c-0.933-0.524-1.855-1.043-2.857-1.606
			c-0.727,1.438-1.482,2.832-2.142,4.269c-0.708,1.545-1.323,3.133-1.986,4.697c-0.766,1.807-1.479,3.64-2.327,5.408
			c-0.981,2.047-2.007,4.081-3.155,6.039c-0.906,1.545-2.026,2.967-3.084,4.49c0,0-1.808,2.215-2.944,2.556l1.705,2.841
			C9.955,98.363,12.501,96.762,13.671,95.006z"/>
		<path fill-rule="evenodd" clip-rule="evenodd" d="M44.926,78.857c-0.842-0.705-1.509-1.449-2.333-1.914
			c-1.834-1.037-3.736-1.955-5.63-2.883c-2.201-1.078-4.452-2.062-6.629-3.186c-2.542-1.312-5.047-2.699-7.53-4.121
			c-1.212-0.695-2.335-1.545-3.603-2.394c1.089-0.256,2.043-0.409,2.947-0.713c0.878-0.295,1.552-0.172,2.339,0.351
			c1.469,0.975,3.01,1.86,4.587,2.65c3.215,1.61,6.476,3.131,9.715,4.696c1.502,0.725,3.002,1.454,4.492,2.205
			c0.407,0.204,0.748,0.547,1.162,0.729c0.958,0.419,1.143,1.162,0.974,2.08C45.266,77.184,45.094,78.006,44.926,78.857z"/>
		<path fill-rule="evenodd" clip-rule="evenodd" d="M54.116,14.326c0.947-0.558,1.832-1.08,2.752-1.624
			c0.31,0.622,0.63,1.254,0.942,1.892c1.688,3.436,3.728,6.658,6.135,9.624c1.656,2.04,3.509,3.921,5.251,5.893
			c0.975,1.103,1.91,2.242,2.846,3.38c0.082,0.1,0.096,0.342,0.032,0.461c-0.499,0.936-1.023,1.857-1.58,2.853
			c-0.153-0.206-0.286-0.376-0.412-0.554c-1.441-2.037-3.139-3.85-4.876-5.635c-2.089-2.149-3.945-4.494-5.683-6.938
			c-1.815-2.553-3.398-5.241-4.806-8.035C54.499,15.208,54.312,14.758,54.116,14.326z"/>
		<path fill-rule="evenodd" clip-rule="evenodd" d="M36.077,101.25c1.781-1.303,3.556-2.509,5.227-3.845
			c2.787-2.228,5.103-4.844,6.219-8.333c0.599-1.871,0.689-3.751,0.025-5.633c-0.045-0.128-0.067-0.305-0.013-0.417
			c0.574-1.183,1.166-2.356,1.789-3.606c0.436,1.002,0.96,1.988,1.301,3.033c1.123,3.441,0.596,6.746-0.98,9.934
			c-1.48,2.994-3.684,5.386-6.242,7.48c-1.827,1.494-3.744,2.861-5.773,4.066c-0.095,0.057-0.2,0.1-0.334,0.167
			C36.875,103.115,36.465,102.156,36.077,101.25z"/>
		<path fill-rule="evenodd" clip-rule="evenodd" d="M108.299,21.837c1.4-0.502,2.737-0.986,4.079-1.453
			c0.152-0.053,0.362-0.06,0.507,0.002c2.219,0.965,4.461,1.904,6.479,3.25c1.081,0.72,2.108,1.561,3.019,2.486
			c1.559,1.583,2.351,3.55,2.481,5.779c0.153,2.63-0.123,5.196-1.066,7.672c-0.074,0.195-0.159,0.387-0.224,0.542
			c-1.089-0.184-2.133-0.36-3.184-0.538c0.234-0.702,0.497-1.434,0.723-2.178c0.549-1.81,0.688-3.664,0.521-5.54
			c-0.181-2.033-1.278-3.526-2.854-4.722c-2.239-1.698-4.824-2.743-7.355-3.888C110.399,22.788,109.375,22.323,108.299,21.837z"/>
		<path fill-rule="evenodd" clip-rule="evenodd" d="M14.902,50.19c-0.203,1.081-0.396,2.103-0.616,3.269
			c-1.255-0.312-2.446-0.53-3.585-0.907c-2.556-0.845-4.512-2.513-6.13-4.63c-1.078-1.41-1.948-2.926-2.327-4.663
			c-0.695-3.187,0-6.002,2.519-8.192c1.277-1.11,2.799-1.73,4.591-1.71c-0.413,1.121-0.809,2.206-1.221,3.286
			c-0.04,0.104-0.17,0.197-0.281,0.247c-2.23,1.002-3.062,3.527-2.468,5.664c0.654,2.354,2.08,4.162,3.969,5.636
			c1.528,1.194,3.306,1.756,5.211,1.964C14.644,50.162,14.723,50.171,14.902,50.19z"/>
		<path fill-rule="evenodd" clip-rule="evenodd" d="M15.316,36.134c1.146,1.448,1.882,2.908,2.383,4.501
			c0.992,3.16,1.213,6.389,0.906,9.667c-0.316,3.375-1.328,6.555-2.722,9.629c-0.209,0.461-0.48,0.714-1.003,0.755
			c-0.783,0.06-1.56,0.189-2.34,0.278c-0.269,0.032-0.542,0.031-0.856,0.046c0.496-0.976,0.983-1.879,1.419-2.807
			c1.186-2.521,1.942-5.164,2.263-7.937c0.326-2.818,0.104-5.592-0.629-8.32c-0.197-0.736-0.569-1.424-0.846-2.14
			c-0.059-0.155-0.122-0.367-0.063-0.499C14.289,38.282,14.778,37.27,15.316,36.134z"/>
		<path fill-rule="evenodd" clip-rule="evenodd" d="M84.243,104.826c1.013-0.689,1.941-1.316,2.864-1.951
			c1.416-0.977,2.793-2.006,3.93-3.311c1.636-1.875,2.565-4.105,3.292-6.456c0.588-1.901,1.29-3.767,1.949-5.645
			c0.064-0.183,0.172-0.355,0.288-0.512c0.055-0.071,0.188-0.144,0.269-0.128c1.056,0.195,2.108,0.406,3.221,0.624
			c-1.476,1.946-1.923,4.233-2.591,6.429c-0.773,2.535-1.727,4.989-3.399,7.07c-1.312,1.633-2.751,3.164-4.733,4.031
			c-0.148,0.064-0.308,0.166-0.456,0.158C87.365,105.047,85.855,104.937,84.243,104.826z"/>
		<path fill-rule="evenodd" clip-rule="evenodd" d="M106.891,108.65c0.31-0.867,0.615-1.572,0.813-2.307
			c0.638-2.355,0.123-4.515-1.286-6.456c-2.014-2.772-4.862-4.238-8.111-5.044c-0.155-0.038-0.312-0.066-0.537-0.112
			c0.301-1.036,0.592-2.032,0.885-3.037c0.138,0,0.253-0.022,0.356,0.003c3.272,0.797,6.236,2.207,8.617,4.628
			c3.106,3.159,4.239,6.909,3.086,11.255c-0.05,0.189-0.272,0.436-0.451,0.472C109.178,108.275,108.083,108.445,106.891,108.65z"/>
		<path fill-rule="evenodd" clip-rule="evenodd" d="M20.818,25.995c0.982,0.734,1.87,1.399,2.787,2.084
			c-0.943,0.68-1.85,1.317-2.741,1.978c-2.125,1.575-4.123,3.289-5.654,5.475c-1.509,2.154-2.402,4.544-2.753,7.158
			c-0.283,2.108-0.349,4.203,0.021,6.302c0.008,0.046-0.007,0.095-0.019,0.208c-0.95-0.304-1.813-0.713-2.635-1.249
			c-1.133-0.739-0.986-1.357-0.609-2.327c1.431-3.685,2.855-7.372,4.274-11.062c0.27-0.7,0.548-1.403,0.748-2.125
			c0.276-1.001,0.81-1.794,1.62-2.438C17.521,28.678,19.164,27.333,20.818,25.995z"/>
		<path fill-rule="evenodd" clip-rule="evenodd" d="M83.257,104.846c-1.075,0-2.152,0.014-3.229-0.017
			c-0.124-0.003-0.291-0.222-0.356-0.376c-0.802-1.891-1.294-3.873-1.685-5.883c-0.141-0.723-0.25-1.451-0.344-2.182
			c-0.022-0.174,0.032-0.389,0.121-0.545c1.246-2.167,1.382-4.428,0.589-6.768c-0.151-0.448-0.3-0.906-0.529-1.314
			c-0.268-0.475-0.345-0.961-0.226-1.46c0.332-1.397,0.702-2.786,1.06-4.177c0.016-0.061,0.057-0.112,0.101-0.197
			c0.955,0.447,1.896,0.888,2.821,1.322C79.636,90.629,80.386,97.774,83.257,104.846z"/>
		<path fill-rule="evenodd" clip-rule="evenodd" d="M86,112.943c0.322-0.389,0.623-0.797,0.975-1.156
			c0.388-0.396,0.821-0.746,1.185-1.071c0.991,0.491,1.911,1.022,2.886,1.419c2.761,1.122,5.623,1.27,8.531,0.723
			c0.624-0.118,1.233-0.326,1.859-0.424c0.324-0.05,0.67,0.062,1.008,0.084c1.5,0.102,3,0.199,4.499,0.295
			c0.122,0.008,0.245,0.001,0.424,0.001C102.715,116.885,92.5,118.14,86,112.943z"/>
		<path fill-rule="evenodd" clip-rule="evenodd" d="M35.547,113.469c7.574-1.812,19.602-4.117,27.153-5.924
			c0.01,0.047,0.021,0.094,0.03,0.142c-1.879,0.804-3.603,1.857-5.164,3.169c-0.438,0.369-0.875,0.744-1.266,1.16
			c-0.33,0.352-0.703,0.541-1.166,0.652c-1.7,0.406-3.391,0.854-5.088,1.271c-1.11,0.273-13.463,2.895-15.902,2.615"/>
		<path fill-rule="evenodd" clip-rule="evenodd" d="M106.652,57.201c0.079-0.752,0.205-1.572,0.246-2.396
			c0.138-2.748-0.752-5.167-2.359-7.371c-1.427-1.956-3.218-3.517-5.135-4.956c-0.118-0.088-0.23-0.184-0.35-0.271
			c-0.053-0.039-0.115-0.066-0.198-0.113c0.896-0.735,1.729-1.419,2.615-2.146c0.845,0.712,1.706,1.41,2.536,2.145
			c1.542,1.363,2.891,2.9,3.961,4.661c0.941,1.548,1.647,3.196,1.843,5.021c0.017,0.152-0.077,0.338-0.169,0.474
			c-0.67,0.987-1.391,1.941-2.019,2.954C107.224,55.846,106.952,56.572,106.652,57.201z"/>
		<path fill-rule="evenodd" clip-rule="evenodd" d="M74.759,37.762C77.93,43,79.594,48.583,79.938,54.618
			c-1.093-0.202-2.156-0.398-3.246-0.601c-0.117-0.904-0.232-1.844-0.361-2.782c-0.439-3.204-1.449-6.237-2.807-9.157
			c-0.188-0.403-0.25-0.758-0.08-1.163C73.885,39.866,74.32,38.814,74.759,37.762z"/>
		<path fill-rule="evenodd" clip-rule="evenodd" d="M20.068,107.568c-0.795,0.114-4.879-0.572-5.851-0.775
			c-2.765-0.578-5.118-1.859-6.789-4.215c-0.222-0.312-0.415-0.646-0.621-0.969c0,0-1.019-2.171-1.436-4.242
			c0.087-0.061,0.124-0.256,0.117-0.385c-0.121-2.375,0.395-4.585,1.709-6.583c0.916-1.391,2.08-2.513,3.595-3.247
			c1.212-0.588,2.486-0.894,3.833-0.924c0.163-0.002,0.399-0.11,0.47-0.24c0.499-0.914,0.964-1.846,1.474-2.838
			c-4.49-0.51-8.244,0.777-11.092,4.176c-2.853,3.406-3.753,7.393-2.948,11.912c0.303,2.011,1.67,3.955,1.67,3.955
			c3.254,8.353,16.436,7.103,16.89,7.103"/>
		<path fill-rule="evenodd" clip-rule="evenodd" d="M27.768,31.174c0.916-0.511,1.762-0.999,2.628-1.446
			c0.128-0.066,0.423-0.001,0.529,0.11c2.892,3.021,4.879,6.52,5.644,10.671c0.12,0.649,0.03,1.086-0.604,1.435
			c-0.812,0.445-1.56,1.005-2.407,1.562c0.005-2.43-0.585-4.643-1.593-6.761C30.957,34.628,29.406,32.927,27.768,31.174z"/>
		<path fill-rule="evenodd" clip-rule="evenodd" d="M94.354,91.18c-0.318,1.042-0.599,2.014-0.924,2.971
			c-0.048,0.141-0.301,0.277-0.473,0.301c-1.464,0.191-2.907,0.449-4.288,0.998c-2.385,0.949-4.441,2.357-6.115,4.312
			c-0.095,0.11-0.15,0.253-0.224,0.382c-0.069-0.029-0.138-0.06-0.206-0.09c-0.2-0.981-0.364-1.973-0.613-2.941
			c-0.163-0.635,0.055-0.998,0.531-1.4c3.06-2.582,6.575-4.05,10.55-4.445c0.439-0.044,0.881-0.061,1.322-0.086
			C94.027,91.174,94.141,91.18,94.354,91.18z"/>
		<path fill-rule="evenodd" clip-rule="evenodd" d="M82.184,110.016c-3.489,2.399-6.498,5.205-8.193,9.18
			c-1.033-0.342-2.02-0.67-3.049-1.012c0.553-1.453,1.33-2.768,2.205-4.027c1.26-1.813,2.818-3.348,4.5-4.763
			c0.137-0.116,0.346-0.194,0.526-0.204c0.964-0.052,1.93-0.064,2.894-0.119c0.335-0.018,0.557,0.084,0.719,0.373
			C81.896,109.639,82.043,109.816,82.184,110.016z"/>
		<path fill-rule="evenodd" clip-rule="evenodd" d="M55.131,97.643c0.861,0.707,1.69,1.387,2.516,2.062
			c-0.496,1.147-1.063,2.293-1.493,3.487c-0.641,1.781-1.193,3.595-1.761,5.401c-0.09,0.287-0.213,0.425-0.51,0.494
			c-1.03,0.24-2.053,0.514-3.163,0.797C51.752,105.59,53.128,101.498,55.131,97.643z"/>
		<path fill-rule="evenodd" clip-rule="evenodd" d="M69.199,12.182c0.289,1.057,0.569,2.063,0.831,3.074
			c0.024,0.09-0.04,0.259-0.118,0.312c-2.595,1.759-4.988,3.768-7.341,5.934c-0.134-0.19-0.254-0.355-0.368-0.523
			c-0.328-0.49-0.646-0.987-0.982-1.471c-0.511-0.731-0.52-0.741,0.155-1.286c1.961-1.581,3.917-3.169,5.896-4.73
			C67.871,13.02,68.536,12.629,69.199,12.182z"/>
		<path fill-rule="evenodd" clip-rule="evenodd" d="M27.418,26.401c-0.957,0.602-1.893,1.189-2.846,1.788
			c-0.768-0.595-1.526-1.246-2.347-1.806c-1.473-1.004-2.977-1.962-4.483-2.916c-0.282-0.179-0.386-0.324-0.276-0.66
			c0.289-0.883,0.542-1.778,0.822-2.714C21.604,21.856,24.607,23.98,27.418,26.401z"/>
		<path fill-rule="evenodd" clip-rule="evenodd" d="M73.323,109.068c1.173-0.61,2.472-1.222,3.702-1.949
			c0.68-0.402,1.239-1.004,1.863-1.502c0.132-0.105,0.304-0.221,0.461-0.227c2.799-0.109,5.596-0.068,8.387,0.206
			c0.059,0.006,0.117,0.032,0.234,0.065c-0.612,0.408-1.199,0.758-1.741,1.168c-0.651,0.492-1.259,1.043-1.899,1.549
			c-0.139,0.109-0.344,0.201-0.516,0.197c-3.244-0.074-6.479,0.107-9.708,0.404C73.799,109.008,73.492,109.049,73.323,109.068z"/>
		<path fill-rule="evenodd" clip-rule="evenodd" d="M25.498,109.221c-0.313-1.032-0.613-2.018-0.891-2.931
			c2.625-1.007,5.131-1.968,7.707-2.956c0.372,0.883,0.776,1.84,1.201,2.847C30.964,107.414,28.374,108.456,25.498,109.221z"/>
		<path fill-rule="evenodd" clip-rule="evenodd" d="M24.33,52.595c4.175-1.378,8.017-3.297,11.727-5.61
			C34.635,51.405,29.62,54.503,24.33,52.595z"/>
		<path fill-rule="evenodd" clip-rule="evenodd" d="M14.143,53.988c-0.44,1.232-0.883,2.471-1.371,3.837
			c-1.103-1.563-1.908-3.119-2.543-4.785C11.505,53.349,12.76,53.654,14.143,53.988z"/>
		<path fill-rule="evenodd" clip-rule="evenodd" d="M59.742,24.982c0.324,0.387,0.626,0.746,0.969,1.153
			c-2.141,1.442-3.807,3.333-5.321,5.432c-0.269-0.297-0.517-0.57-0.821-0.906C56.292,28.771,58.004,26.89,59.742,24.982z"/>
		<path fill-rule="evenodd" clip-rule="evenodd" d="M16.179,60.502c0.369-0.812,0.696-1.532,0.988-2.174
			c0.592,0.542,1.178,1.08,1.853,1.697C18.036,60.19,17.148,60.34,16.179,60.502z"/>
		<path fill-rule="evenodd" clip-rule="evenodd" d="M82.212,109.098c0.481,0,0.881,0,1.38,0c-0.266,0.322-0.49,0.596-0.736,0.896
			C82.641,109.693,82.453,109.432,82.212,109.098z"/>
	</g>
	<g>
		<path d="M78.793,103.588c-0.404-0.895-0.621-1.872-0.932-2.845c-0.049,0.059-0.072,0.081-0.09,0.108
			c-0.037,0.055-0.074,0.107-0.105,0.166c-1.105,2.072-2.84,3.398-5.025,4.143c-1.561,0.531-3.145,0.999-4.73,1.451
			c-2.328,0.662-4.682,1.264-6.812,2.454c-3.163,1.768-5.691,4.22-7.615,7.289c-0.133,0.212-1.285,2.562-1.316,2.812
			c-0.614,1.534-1.42,3.749-1.882,5.093c0.073,0.086,0.147,0.172,0.215,0.24c0.198,0.195,0.351,0.428,0.582,0.584
			c0.199,0.135,0.401,0.286,0.604,0.393c0.247,0.131,0.467,0.28,0.729,0.378c0.131,0.048,0.281,0.128,0.418,0.15
			c0.057-0.003,0.114-0.007,0.171-0.01c0.076,0.018,0.083,0.074,0.158,0.093c0.106,0.025,0.231-0.031,0.338-0.009
			c0.011,0.003,0.017,0.005,0.026,0.008c0.329-3.718,1.686-7.047,4.078-9.955c1.817-2.208,3.976-4.026,6.701-4.978
			c2.436-0.85,4.94-1.498,7.411-2.244c2.398-0.725,4.662-1.693,6.557-3.412C78.901,104.928,79.182,104.445,78.793,103.588z"/>
	</g>
	<g>
		<path d="M106.647,101.287c-0.053-0.102-0.304-0.178-0.438-0.15c-3.313,0.678-6.631,1.342-9.934,2.07
			c-3.637,0.805-7.098,2.035-10.111,4.329c-2.771,2.108-4.695,4.77-5.438,8.198c-0.627,2.896-0.146,5.699,0.949,8.407
			c0.058,0.143,0.128,0.277,0.189,0.417c1.221,0.33,2.717,0.359,3.65,0.085c-0.83-1.45-1.426-3.01-1.679-4.731
			c-0.604-4.117,1.014-7.279,4.192-9.752c1.975-1.534,4.207-2.587,6.63-3.187c2.648-0.656,5.316-1.239,7.98-1.831
			c1.574-0.348,3.159-0.65,4.77-0.979C107.355,103.104,107.102,102.166,106.647,101.287z"/>
	</g>
</g>
</svg>
