<?xml version="1.0" encoding="utf-8"?>
<!-- Generator: Adobe Illustrator 16.0.4, SVG Export Plug-In . SVG Version: 6.00 Build 0)  -->
<!DOCTYPE svg PUBLIC "-//W3C//DTD SVG 1.1//EN" "http://www.w3.org/Graphics/SVG/1.1/DTD/svg11.dtd">
<svg version="1.1" id="Layer_4007" xmlns="http://www.w3.org/2000/svg" xmlns:xlink="http://www.w3.org/1999/xlink" x="0px" y="0px"
	 width="128px" height="128px" viewBox="0 0 128 128" enable-background="new 0 0 128 128" xml:space="preserve">
<g>
	<path d="M126.748,103.308c0.163,0.13,0.322,0.264,0.48,0.399C127.104,103.434,126.948,103.301,126.748,103.308z"/>
	<path d="M124.44,105.228c-0.151-0.13-0.304-0.258-0.458-0.382c-0.212,0.008-0.476,0.178-0.811,0.509
		c-0.829,0.818-1.776,1.457-2.787,2.015c-2.507,1.383-5.167,2.378-7.91,3.177c-6.543,1.905-13.238,3.009-19.985,3.837
		c-5.439,0.669-10.904,1.156-16.376,1.325c-14.143,0.437-28.272,0.306-42.339-1.56c-6.961-0.923-13.863-2.12-20.536-4.343
		c-2.957-0.983-5.888-2.119-8.225-4.333c-0.225-0.213-0.411-0.37-0.569-0.477c-0.359,0.298-0.707,0.607-1.033,0.94
		c-0.218,0.224-0.431,0.454-0.636,0.692c-1.799,2.081-1.833,4.677-0.092,6.803c0.761,0.931,1.659,1.719,2.651,2.401
		c3.458,2.377,7.346,3.785,11.318,4.984c8.179,2.467,16.584,3.801,25.057,4.608c9.574,0.914,19.176,1.347,28.808,0.995
		c6.901-0.251,13.784-0.63,20.637-1.476c6.763-0.835,13.466-1.987,20.021-3.883c3.852-1.114,7.619-2.458,11.07-4.548
		c0.983-0.596,1.91-1.263,2.744-2.073c2.99-2.904,3.068-5.834,0.03-8.695C124.83,105.566,124.637,105.396,124.44,105.228z"/>
	<path d="M126.761,52.571c-0.345,0-0.687,0.187-1.106,0.604c-0.643,0.64-1.412,1.234-2.353,1.814
		c-3.09,1.91-6.582,3.018-9.897,3.932c-13.178,3.631-26.577,4.601-36.778,5.041c-4.574,0.197-9.065,0.297-13.352,0.297
		c-9.794,0-18.832-0.498-27.628-1.522c-7.014-0.817-15.252-1.985-23.172-4.458c-3.803-1.188-7.446-2.483-10.225-5.259
		c-0.208-0.207-0.53-0.481-0.93-0.481c-0.628,0-0.913,0.639-1.02,0.879c-0.735,1.651-0.21,3.494,1.442,5.057
		c2.136,2.021,4.769,3.178,6.824,3.96c7.575,2.882,15.376,4.2,22.009,5.109c10.346,1.417,20.956,2.105,32.438,2.105
		c0.658,0,1.322-0.002,1.996-0.007c1.041-0.025,2.208-0.039,3.458-0.054c2.407-0.026,5.136-0.057,7.863-0.188
		c10.752-0.522,19.465-1.43,27.417-2.856c6.77-1.215,12.385-2.534,17.785-5.022c1.787-0.824,3.646-1.811,5.137-3.443
		c1.196-1.31,1.598-2.748,1.196-4.274C127.784,53.499,127.54,52.571,126.761,52.571z"/>
	<path d="M127.792,75.355c-0.135-0.422-0.342-1.059-0.975-1.059c-0.317,0-0.628,0.174-1.007,0.562
		c-1.284,1.318-2.912,2.372-5.276,3.416c-4.443,1.962-9.137,3.075-13.548,3.985c-10.226,2.11-21.214,3.252-35.624,3.702
		c-2.543,0.078-5.129,0.119-7.685,0.119c-9.083,0-18.383-0.507-27.642-1.506c-4.005-0.433-8.66-0.971-13.225-1.888
		c-2.174-0.437-4.7-0.958-7.173-1.631c-5.226-1.422-9.845-2.877-13.452-6.333c-0.197-0.188-0.502-0.438-0.876-0.438
		c-0.582,0-0.846,0.581-0.944,0.8c-0.653,1.429-0.464,2.859,0.561,4.236c1.404,1.886,3.366,2.995,5.278,3.896
		c5.646,2.66,11.733,4.289,16.406,5.159c12.22,2.273,25.415,3.765,41.522,3.765h0.004c12.052,0,22.681-1.041,32.495-2.355
		c6.349-0.85,14.663-2.403,22.683-5.403c2.528-0.946,5.154-2.184,7.247-4.341C127.917,78.642,128.335,77.028,127.792,75.355z"/>
	<path d="M4.185,74.9c3.01,1.912,6.538,2.946,9.371,3.761c8.278,2.38,16.651,3.802,23.02,4.514
		c8.393,0.938,17.286,1.726,28.835,1.726h0.004h0.004c4.486,0,10.391-0.514,16.27-0.909c12.113-0.813,21.317-2.321,29.848-4.419
		c3.673-0.903,8.444-2.34,12.778-4.962c1.06-0.641,2.369-1.604,3.088-3.122c0.456-0.966,0.856-2.142,0.352-3.413
		c-0.093-0.232-0.373-0.947-1.039-0.947c-0.302,0-0.602,0.147-0.919,0.459c-0.783,0.768-1.665,1.444-2.621,2.019
		c-3.613,2.162-7.617,3.341-11.406,4.293c-14.45,3.629-28.822,4.46-40.976,4.795c-2.411,0.066-4.855,0.102-7.264,0.102
		c-6.607,0-13.286-0.255-19.851-0.756c-5.835-0.447-10.693-0.854-15.661-1.71l-0.871-0.149c-4.471-0.767-9.094-1.56-13.549-2.973
		c-4.252-1.349-8.269-2.622-11.425-5.74c-0.19-0.188-0.486-0.435-0.859-0.435c-0.581,0-0.834,0.564-0.957,0.835
		c-0.68,1.514-0.443,3.036,0.684,4.395C1.811,73.188,2.78,74.01,4.185,74.9z"/>
	<path d="M2.706,88.34c1.468,1.104,3.178,2.044,5.229,2.876c6.343,2.573,12.997,3.854,19.242,4.857
		c10.872,1.745,22.323,2.551,38.279,2.696c0.156,0.004,0.324,0.006,0.503,0.006c0.837,0,1.932-0.05,3.092-0.103
		c1.05-0.049,2.192-0.103,3.335-0.127c13.096-0.291,24.801-1.543,35.785-3.827c4.035-0.841,9.293-2.113,14.176-4.535
		c2.213-1.099,3.689-2.229,4.789-3.671c0.886-1.161,1.103-2.469,0.647-3.883c-0.097-0.298-0.351-1.087-1.065-1.087
		c-0.322,0-0.643,0.176-0.981,0.536c-2.025,2.157-4.754,3.298-7.152,4.196c-4.637,1.739-9.727,3.036-16.017,4.083
		c-10.026,1.667-20.586,2.601-32.286,2.851c-2.164,0.047-4.33,0.07-6.439,0.07c-8.996,0-17.736-0.434-25.976-1.288
		c-6.675-0.692-14.521-1.68-22.104-3.749l-0.578-0.157c-4.652-1.265-9.462-2.574-13.046-6.166c-0.258-0.258-0.514-0.385-0.784-0.385
		c-0.574,0-0.842,0.556-0.942,0.764c-0.455,0.943-0.542,1.828-0.268,2.708C0.66,86.654,1.853,87.698,2.706,88.34z"/>
	<path d="M126.762,45.307c-0.442,0-0.846,0.34-1.183,0.673c-1.423,1.409-3.114,2.302-4.58,2.989c-3.774,1.77-7.758,2.82-11.5,3.691
		c-9.208,2.145-19.3,3.415-31.76,3.997c-4.956,0.232-9.821,0.349-14.461,0.349c-12.132,0-23.253-0.769-33.998-2.351
		c-5.815-0.855-12.635-2.05-19.128-4.42c-2.605-0.951-5.331-2.045-7.49-4.034c-0.072-0.066-0.137-0.151-0.204-0.234
		c-0.227-0.284-0.538-0.672-1.061-0.672c-0.095,0-0.192,0.014-0.287,0.041c-0.733,0.211-0.879,0.911-0.976,1.374
		c-0.02,0.099-0.041,0.197-0.066,0.287c-0.167,0.588-0.055,1.142,0.062,1.614c0.396,1.598,1.492,2.608,2.512,3.386
		c2.489,1.894,5.267,2.993,7.657,3.817c7.766,2.682,15.611,3.903,22.262,4.744c9.744,1.231,19.337,1.805,30.188,1.805
		c1.143,0,2.302-0.006,3.49-0.019c0.8-0.024,1.828-0.036,3.008-0.049c2.351-0.026,5.276-0.06,8.216-0.206
		c9.828-0.491,18.511-1.424,26.546-2.852c5.354-0.95,11.634-2.286,17.609-4.986c2.257-1.02,3.882-2.129,5.112-3.491
		c1.142-1.263,1.527-2.649,1.147-4.119C127.766,46.208,127.532,45.307,126.762,45.307z"/>
	<path d="M126.762,38.042c-0.441,0-0.846,0.34-1.183,0.673c-1.422,1.407-3.113,2.3-4.58,2.988c-3.773,1.77-7.757,2.82-11.5,3.692
		c-9.21,2.145-19.302,3.416-31.76,3.997c-4.956,0.231-9.821,0.349-14.46,0.349c-12.134,0-23.255-0.769-33.999-2.35
		c-5.815-0.856-12.636-2.051-19.128-4.42c-2.605-0.951-5.33-2.045-7.49-4.034c-0.072-0.065-0.137-0.15-0.204-0.234
		c-0.227-0.284-0.538-0.673-1.061-0.673c-0.095,0-0.192,0.014-0.288,0.042c-0.732,0.212-0.878,0.911-0.975,1.374
		c-0.021,0.098-0.041,0.196-0.066,0.287c-0.166,0.589-0.055,1.142,0.062,1.615c0.396,1.599,1.492,2.608,2.512,3.385
		c2.486,1.893,5.266,2.992,7.657,3.818c7.762,2.68,15.61,3.901,22.262,4.743c9.742,1.232,19.338,1.806,30.196,1.806
		c1.14,0,2.297-0.007,3.482-0.02c0.799-0.023,1.825-0.035,3.004-0.049c2.352-0.026,5.278-0.06,8.22-0.207
		c9.827-0.492,18.511-1.424,26.546-2.851c5.355-0.951,11.637-2.288,17.609-4.986c2.257-1.02,3.882-2.129,5.112-3.491
		c1.142-1.263,1.527-2.648,1.147-4.119C127.766,38.943,127.532,38.042,126.762,38.042z"/>
	<path d="M126.762,30.777c-0.441,0-0.846,0.34-1.183,0.673c-1.422,1.408-3.113,2.3-4.58,2.989c-3.773,1.77-7.757,2.82-11.5,3.692
		c-9.21,2.145-19.302,3.415-31.76,3.997c-4.956,0.231-9.821,0.349-14.46,0.349c-12.134,0-23.255-0.769-33.999-2.351
		c-5.815-0.856-12.636-2.051-19.128-4.42c-2.605-0.951-5.33-2.045-7.49-4.034c-0.072-0.065-0.137-0.15-0.204-0.234
		c-0.227-0.284-0.538-0.673-1.061-0.673c-0.095,0-0.192,0.014-0.288,0.042c-0.732,0.212-0.878,0.911-0.975,1.374
		c-0.021,0.099-0.041,0.196-0.066,0.288c-0.166,0.588-0.055,1.142,0.062,1.614c0.396,1.599,1.492,2.608,2.512,3.385
		c2.486,1.894,5.266,2.993,7.657,3.818c7.763,2.68,15.61,3.901,22.262,4.743c9.742,1.232,19.338,1.806,30.196,1.806
		c1.14,0,2.297-0.006,3.482-0.019c0.799-0.024,1.826-0.036,3.004-0.049c2.353-0.026,5.278-0.06,8.22-0.207
		c9.827-0.491,18.511-1.424,26.546-2.851c5.355-0.951,11.637-2.288,17.609-4.986c2.257-1.02,3.882-2.129,5.112-3.491
		c1.142-1.263,1.527-2.649,1.147-4.119C127.766,31.678,127.532,30.777,126.762,30.777z"/>
	<path d="M2.644,30.201c2.486,1.893,5.266,2.992,7.657,3.818c7.762,2.68,15.61,3.901,22.262,4.743
		c9.742,1.232,19.338,1.806,30.196,1.806c1.14,0,2.297-0.006,3.482-0.019c0.799-0.023,1.825-0.035,3.004-0.049
		c2.352-0.026,5.278-0.06,8.22-0.207c9.827-0.492,18.511-1.424,26.546-2.851c5.355-0.951,11.637-2.288,17.609-4.986
		c2.257-1.02,3.882-2.129,5.112-3.491c1.142-1.263,1.527-2.649,1.147-4.119c-0.113-0.433-0.347-1.334-1.117-1.334
		c-0.441,0-0.846,0.34-1.183,0.673c-1.422,1.407-3.113,2.3-4.58,2.988c-3.773,1.77-7.757,2.82-11.5,3.692
		c-9.21,2.145-19.302,3.416-31.76,3.997c-4.956,0.231-9.821,0.349-14.46,0.349c-12.134,0-23.255-0.769-33.999-2.35
		c-5.815-0.856-12.636-2.052-19.128-4.421c-2.605-0.95-5.33-2.045-7.49-4.034c-0.072-0.066-0.137-0.151-0.204-0.234
		c-0.227-0.284-0.538-0.673-1.061-0.673c-0.095,0-0.192,0.014-0.288,0.042c-0.732,0.212-0.878,0.911-0.975,1.373
		c-0.021,0.099-0.041,0.196-0.066,0.288c-0.166,0.588-0.055,1.142,0.062,1.615C0.527,28.414,1.624,29.424,2.644,30.201z"/>
	<path d="M1.107,94.086c1.408,1.723,3.261,2.759,4.889,3.536c6.386,3.048,13.297,4.68,19.275,5.706
		c13.985,2.405,27.732,3.298,39.334,3.298h0.012h0.012c1.481,0,3.007-0.393,4.565-0.435c4.818-0.134,9.803-0.441,14.855-0.83
		c10.123-0.779,18.311-1.996,25.765-3.69c4.331-0.983,8.937-2.251,13.266-4.591c1.296-0.7,2.938-1.737,4.137-3.406
		c0.77-1.073,0.985-2.271,0.641-3.546c-0.101-0.372-0.335-1.247-1.086-1.247c-0.42,0-0.793,0.302-1.102,0.597
		c-1.187,1.131-2.634,2.092-4.429,2.936c-2.723,1.281-5.752,2.312-9.825,3.338c-11.914,3.001-24.028,3.944-33.251,4.429
		c-4.779,0.253-9.587,0.38-14.289,0.38c-7.299,0-14.613-0.307-21.739-0.914c-7.189-0.612-14.894-1.426-22.542-3.215l-1.108-0.257
		c-5.784-1.342-11.764-2.729-16.367-6.988c-0.269-0.248-0.525-0.367-0.784-0.367c-0.526,0-0.8,0.483-0.916,0.689
		C-0.341,90.843-0.071,92.644,1.107,94.086z"/>
	<path d="M126.719,59.788c-0.441,0-0.81,0.335-1.048,0.587c-1.472,1.549-3.349,2.505-5.157,3.307
		c-2.212,0.981-4.632,1.815-7.396,2.551c-14.145,3.765-28.57,4.684-39.558,5.063c-3.315,0.115-6.646,0.174-9.898,0.174
		c-9.53,0-18.954-0.501-28.011-1.49c-7.158-0.78-15.564-1.938-23.638-4.612c-3.454-1.146-7.025-2.329-9.744-5.095
		c-0.205-0.208-0.524-0.486-0.93-0.486c-0.629,0-0.905,0.637-1.022,0.909C-0.341,62.211-0.02,63.68,1.3,65.184
		c2.076,2.366,4.797,3.562,7.186,4.423c4.137,1.485,7.998,2.573,11.803,3.322c7.249,1.433,13.256,2.34,18.907,2.857
		c8.317,0.762,16.685,1.147,24.869,1.147c1.241,0,2.482-0.008,3.73-0.026c6.787-0.183,14.011-0.42,21.17-1.13
		c8.683-0.86,15.249-1.891,21.292-3.339c4.24-1.017,8.74-2.266,12.921-4.505c1.263-0.677,2.86-1.661,4.006-3.287
		c0.834-1.18,1.043-2.431,0.623-3.718C127.695,60.587,127.434,59.788,126.719,59.788z"/>
	<path d="M126.719,96.157c-0.448,0-0.813,0.345-1.05,0.604c-1.604,1.761-3.812,2.77-5.754,3.576
		c-6.212,2.582-12.882,3.883-19.165,4.904c-9.531,1.55-19.851,2.387-32.479,2.634c-1.516,0.029-3.03,0.045-4.544,0.045
		c-7.892,0-16.172-0.405-24.612-1.202c-5.781-0.546-12.615-1.321-19.474-2.928l-1.205-0.281c-5.807-1.346-11.81-2.737-16.408-7.063
		c-0.234-0.222-0.479-0.334-0.725-0.334c-0.583,0-0.831,0.565-0.963,0.868c-0.681,1.549-0.399,3.07,0.839,4.523
		c1.466,1.721,3.401,2.76,4.922,3.472c7.125,3.337,14.923,4.739,21.674,5.792c10.428,1.626,21.331,2.439,33.33,2.483
		c0.86,0.006,1.719,0.008,2.578,0.008c7.424,0,13.962-0.216,19.989-0.661c10.201-0.755,18.393-1.891,25.782-3.573
		c4.524-1.031,9.74-2.358,14.361-5.072c1.451-0.853,2.497-1.731,3.291-2.767c0.908-1.184,1.143-2.488,0.698-3.879
		C127.696,96.962,127.438,96.157,126.719,96.157z"/>
	<path d="M6.373,22.813c2.043,1.499,4.304,2.576,6.642,3.489l0.103-0.103c1.468,0.652,3.26,1.141,4.891,1.631
		c0.182,0.055,0.296,0.16,0.36,0.3c4.503,1.342,9.1,2.271,13.739,3.016c5.535,0.89,11.104,1.444,16.695,1.857
		c7.347,0.544,14.699,0.623,22.05,0.427c12.349-0.331,24.606-1.5,36.627-4.529c0.272-0.069,0.543-0.142,0.814-0.216l-0.132-0.041
		c0,0,3.53-0.908,5.91-1.692c0.14-0.106,0.329-0.185,0.557-0.264c1.698-0.587,3.338-1.323,4.915-2.181
		c1.859-1.012,3.627-2.159,4.95-3.861c1.599-2.054,1.556-4.231-0.034-6.287c-1.327-1.717-3.087-2.857-4.954-3.849
		c-5.001-2.654-10.414-4.117-15.899-5.304C91.1,2.503,78.401,1.633,65.645,1.469c-5.921-0.076-11.833,0.243-17.744,0.64
		c-8.428,0.567-16.774,1.658-24.998,3.592C17.785,6.906,12.76,8.4,8.161,11.046c-1.564,0.899-3.018,1.945-4.102,3.425
		c-1.395,1.905-1.455,3.916-0.147,5.883C4.565,21.335,5.426,22.118,6.373,22.813z M34.555,15.647
		c2.045-1.059,4.301-1.374,6.553-1.629c8.816-1,17.662-1.389,30.092-1.15c3.964,0.158,11.488,0.39,18.946,1.539
		c1.469,0.226,2.861,0.67,4.146,1.38c1.992,1.101,1.958,2.338-0.067,3.478c-1.594,0.897-3.367,1.213-5.146,1.503
		c-3.886,0.634-7.812,0.876-11.73,1.113c-12.66,0.768-25.298,0.479-37.892-1.134c-1.721-0.22-3.421-0.586-4.966-1.414
		c-0.753-0.404-1.61-0.851-1.598-1.874C32.905,16.429,33.81,16.034,34.555,15.647z"/>
</g>
</svg>
