<?xml version="1.0" encoding="utf-8"?>
<!-- Generator: Adobe Illustrator 16.0.4, SVG Export Plug-In . SVG Version: 6.00 Build 0)  -->
<!DOCTYPE svg PUBLIC "-//W3C//DTD SVG 1.1//EN" "http://www.w3.org/Graphics/SVG/1.1/DTD/svg11.dtd">
<svg version="1.1" id="Layer_4009" xmlns="http://www.w3.org/2000/svg" xmlns:xlink="http://www.w3.org/1999/xlink" x="0px" y="0px"
	 width="128px" height="128px" viewBox="0 0 128 128" enable-background="new 0 0 128 128" xml:space="preserve">
<g id="AHhyLP.tif">
	<g>
		<path fill-rule="evenodd" clip-rule="evenodd" d="M108.996,83.915c0,13.381,0.001,26.762-0.001,40.143
			c0,3.047-0.004,3.061-2.913,3.062c-7.064,0.009-14.13,0.01-21.194,0c-2.917-0.004-2.932-0.02-2.933-2.863
			c-0.007-25.848-0.005-51.695-0.016-77.544c-0.001-1.161,0.011-2.339-0.181-3.477c-0.125-0.749-0.191-1.798-1.281-1.886
			c-1.182-0.095-1.17,0.994-1.385,1.725c-0.396,1.357-0.528,2.755-0.525,4.183c0.018,8.561,0.115,17.124-0.049,25.682
			c-0.303,15.807-11.008,27.436-26.644,29.527c-7.588,1.016-14.61,0.168-20.682-4.799c-5.953-4.871-9.273-11.394-11.168-18.717
			c-0.666-2.574-1.042-5.182-1.037-7.87c0.043-22.275,0.031-44.549,0.036-66.824c0-0.499,0.042-1.001-0.008-1.495
			c-0.139-1.375,0.408-1.935,1.83-1.887c2.407,0.081,4.82,0.02,7.23,0.02c5.153,0,10.306-0.007,15.459,0.004
			c2.54,0.005,2.56,0.021,2.561,2.646c0.002,21.942,0.003,43.884-0.021,65.826c-0.002,1.6,0.125,3.145,0.744,4.629
			c0.378,0.908,0.582,2.002,1.985,1.747c1.291-0.234,2.467-0.647,2.651-2.175c0.119-0.986,0.132-1.988,0.132-2.984
			c0.005-7.564,0.004-15.127-0.015-22.69c-0.016-6.479,0.953-12.751,3.983-18.565c3.84-7.368,9.514-12.697,17.8-14.37
			c16.066-3.244,30.273,4.652,34.579,21.425c0.788,3.07,1.09,6.196,1.079,9.376C108.972,58.481,108.996,71.198,108.996,83.915z
			 M25.877,72.496c-0.399,0.347-0.211,0.751-0.148,1.081c0.862,4.582,2.131,9.043,4.481,13.1c2.949,5.091,6.943,8.86,13.096,9.611
			c0.498,0.061,1.052,0.52,1.561-0.014c-0.358-0.328-0.699-0.676-1.077-0.979c-7.532-6.044-14.026-12.91-17.578-22.116
			C26.126,72.956,26.001,72.747,25.877,72.496z M80.026,19.105c-2.004-0.009-3.414-0.014-4.791,0.379
			c-0.392,0.112-0.797,0.175-1.195,0.26c0.38,0.014,0.759,0.036,1.139,0.042c7.564,0.097,14.374,2.266,20.064,7.41
			c4.496,4.066,7.258,9.202,9.016,14.934c0.111,0.363,0.297,0.702,0.449,1.053c0.008-0.41,0.064-0.824,0.016-1.227
			c-0.116-0.988-0.246-1.977-0.431-2.954c-1.154-6.142-3.604-11.542-8.853-15.315C90.655,20.247,85.153,19.293,80.026,19.105z
			 M25.36,70.431c-0.017,0.137-0.035,0.273-0.053,0.41c0.04-0.062,0.105-0.121,0.113-0.188
			C25.428,70.583,25.383,70.505,25.36,70.431z"/>
	</g>
</g>
</svg>
