<?xml version="1.0" encoding="utf-8"?>
<!-- Generator: Adobe Illustrator 16.0.4, SVG Export Plug-In . SVG Version: 6.00 Build 0)  -->
<!DOCTYPE svg PUBLIC "-//W3C//DTD SVG 1.1//EN" "http://www.w3.org/Graphics/SVG/1.1/DTD/svg11.dtd">
<svg version="1.1" id="Layer_4010" xmlns="http://www.w3.org/2000/svg" xmlns:xlink="http://www.w3.org/1999/xlink" x="0px" y="0px"
	 width="128px" height="128px" viewBox="0 0 128 128" enable-background="new 0 0 128 128" xml:space="preserve">
<g id="Ia4ZbE.tif">
	<g>
		<path fill-rule="evenodd" clip-rule="evenodd" d="M113.598,79.835c0.065,2.717-1.124,6.691-3.328,10.208
			c-2.175,3.471-5.389,6.019-9.16,7.708c-6.792,3.043-13.443,6.379-20.146,9.604c-12.902,6.21-25.638,12.8-38.753,18.522
			c-14.784,6.45-27.832-4.305-27.81-17.275c0.047-27.527,0.039-55.057,0.005-82.584C14.389,13.149,24.371,2.024,36.849,0.45
			C47.17-0.853,55.3,2.891,61.729,10.91c3.084,3.849,6.404,7.511,9.639,11.239c9.494,10.938,18.975,21.889,28.516,32.786
			c2.45,2.798,4.871,5.624,7.482,8.288C111.439,67.379,113.568,72.423,113.598,79.835z M48.94,120.059
			c-0.042,0.052-0.084,0.102-0.126,0.152c0.028-0.064,0.056-0.13,0.083-0.195c0.064-0.023,0.136-0.036,0.19-0.075
			c0.031-0.022,0.033-0.085,0.049-0.13C49.071,119.893,49.006,119.977,48.94,120.059z M70.816,78.157
			c-0.079-0.771,0.224-1.951,0.382-3.153c1.417-10.781,12.153-19.751,24.267-17.747c1.033,0.17,1.31,0.075,1.099-1.158
			c-0.391-2.295-0.843-3.187-2.483-3.552c-1.751-0.39-4.075-3.045-4.275-4.886c-0.176-1.602-0.701-2.268-2.346-2.5
			c-0.812-0.115-1.331-0.467-1.808-1.044c-0.617-0.748-1.243-1.491-1.889-2.214c-0.447-0.5-0.656-0.955-0.556-1.718
			c0.17-1.309-0.826-2.69-2.099-2.69c-1.545,0-2.056-1.098-2.832-1.965c-0.84-0.939-1.866-1.707-1.715-3.287
			c0.111-1.165-1.054-2.485-2.178-2.469c-1.545,0.021-2.061-1.128-2.831-1.983c-0.822-0.915-2.123-1.645-1.607-3.259
			c0.251-0.786-0.484-1.119-0.839-1.622c-0.544-0.775-1.279-0.948-2.114-0.566c-0.807,0.369-0.577,1.15-0.43,1.706
			c0.629,2.366,0.163,4.717-0.269,6.981c-3.545,18.564-24.136,27.192-39.721,17.428c-3.131-1.962-5.718-4.482-7.771-7.554
			c-0.175-0.262-0.336-0.678-0.68-0.589c-0.346,0.089-0.217,0.521-0.222,0.814c-0.024,1.502,0.217,2.969-1.075,4.274
			c-0.72,0.729-0.475,1.94,0.23,2.913c1.227,1.693,1.193,5.017,0.019,6.704c-0.818,1.174-0.829,2.166-0.037,3.314
			c1.236,1.795,1.216,5.062-0.044,6.914c-0.694,1.021-0.733,2.143-0.032,3.137c0.317,0.45,0.921,0.728,0.894,1.376
			c-0.08,1.911,0.434,3.856-0.569,5.711c-0.593,1.096-0.706,2.271,0.208,3.395c0.386,0.475,0.8,1.253,0.672,1.759
			c-0.411,1.619,0.217,3.418-0.908,4.905c-0.588,0.777-0.658,1.888-0.196,2.536c1.168,1.642,0.681,3.42,0.814,5.15
			c0.069,0.9,0.053,1.759-0.775,2.411c-0.728,0.573-0.691,1.419-0.529,2.234c0.041,0.204,0.236,0.474,0.413,0.523
			c0.145,0.041,0.414-0.161,0.55-0.322c0.313-0.369,0.571-0.783,0.864-1.17c2.641-3.473,6.228-5.81,10.303-6.829
			c3.1-0.776,6.455-1.047,9.767,0.137c3.664,1.309,7.01,3.006,9.455,6.053c5.007,6.239,5.866,13.104,2.736,20.468
			c-0.095,0.223-0.224,0.434-0.302,0.66c-0.045,0.133-0.079,0.334-0.012,0.422c0.063,0.08,0.294,0.11,0.406,0.061
			c0.517-0.229,1.014-0.501,1.526-0.741c1.074-0.503,2.023-1.069,3.391-0.467c0.951,0.42,2.352-0.291,2.607-1.216
			c0.454-1.645,1.719-1.995,2.912-2.567c1.125-0.538,2.131-1.199,3.614-0.682c0.99,0.346,2.138-0.267,2.742-1.456
			c0.954-1.874,3.958-3.302,5.984-2.954c1.433,0.246,2.431-0.254,3.127-1.566c0.875-1.65,4.096-3.141,6.097-2.783
			c1.257,0.225,2.494-0.17,2.884-1.22c0.426-1.148,1.098-1.696,2.083-2.124c0.294-0.128,0.692-0.293,0.609-0.648
			c-0.078-0.334-0.523-0.227-0.813-0.306c-6.834-1.853-12.098-5.616-14.847-12.357C71.604,84.169,70.68,81.505,70.816,78.157z
			 M32.884,26.301c0.005,4.283,3.484,7.766,7.707,7.718c4.107-0.047,7.769-3.524,7.682-7.543c-0.102-4.74-3.63-7.824-7.884-7.876
			C36.311,18.55,32.879,22.181,32.884,26.301z M86.327,78.387c0.071,4.059,2.287,5.975,5.19,6.07c4.293,0.14,6.613-1.93,6.937-5.997
			c0.302-3.791-2.908-6.488-6.108-6.404C89.262,72.138,86.136,73.747,86.327,78.387z M27.949,108.564
			c-0.014,3.274,2.377,5.674,5.613,5.632c2.963-0.039,5.525-2.655,5.51-5.626c-0.015-2.902-2.662-5.497-5.637-5.525
			C30.368,103.015,27.962,105.436,27.949,108.564z M24.383,30.694c2.483-0.007,4.574-2.067,4.481-4.414
			c-0.101-2.528-2.051-4.41-4.552-4.393c-2.464,0.015-4.44,1.98-4.484,4.458C19.788,28.687,21.896,30.702,24.383,30.694z
			 M36.193,42.605c-0.14,2.738,2.289,4.408,4.438,4.443c2.302,0.036,4.424-2.242,4.391-4.594c-0.035-2.369-2.225-4.591-4.529-4.43
			C38.11,38.192,36.037,39.918,36.193,42.605z M40.701,5.769c-2.702-0.047-4.47,1.637-4.509,4.294
			c-0.037,2.562,1.845,4.517,4.359,4.529c2.336,0.011,4.381-1.928,4.478-4.243C45.129,7.927,43.129,5.811,40.701,5.769z
			 M56.735,30.696c2.649,0.002,4.384-1.714,4.393-4.346c0.009-2.478-1.923-4.452-4.366-4.46c-2.451-0.008-4.436,1.966-4.441,4.417
			C52.315,28.826,54.193,30.694,56.735,30.696z M83.892,72.768c0.015-1.989-1.729-3.697-3.747-3.67
			c-1.854,0.025-3.521,1.751-3.515,3.641c0.005,1.939,1.57,3.552,3.498,3.604C82.203,76.401,83.876,74.811,83.892,72.768z
			 M97.746,69.977c2.003,0.017,3.697-1.714,3.661-3.738c-0.034-1.915-1.663-3.517-3.595-3.536c-2-0.02-3.733,1.73-3.68,3.717
			C94.184,68.315,95.855,69.96,97.746,69.977z M86.591,93.854c2.228,0.045,3.712-1.372,3.7-3.532
			c-0.009-1.841-1.641-3.731-3.18-3.688c-2.086,0.058-4.075,1.856-4.085,3.692C83.016,92.191,84.655,93.813,86.591,93.854z
			 M104.089,87.353c2.445-0.048,3.786-1.396,3.699-3.725c-0.062-1.616-2.007-3.429-3.689-3.438
			c-1.655-0.009-3.529,1.916-3.554,3.648C100.522,85.473,102.45,87.384,104.089,87.353z M24.423,98.478
			c0.065,1.753,1.57,3.134,3.364,3.087c1.726-0.046,3.192-1.604,3.125-3.322c-0.071-1.791-1.488-3.072-3.364-3.041
			C25.766,95.23,24.357,96.708,24.423,98.478z M23.261,117.609c1.707-0.048,3.268-1.666,3.18-3.299
			c-0.091-1.691-1.685-3.125-3.41-3.064c-1.816,0.065-3.286,1.583-3.166,3.271C19.987,116.241,21.541,117.656,23.261,117.609z
			 M46.966,102.713c-0.066-1.714-1.636-3.151-3.362-3.079c-1.832,0.076-3.077,1.448-3.018,3.325c0.06,1.905,1.358,3.11,3.268,3.032
			C45.69,105.916,47.035,104.498,46.966,102.713z M39.108,115.674c-1.637,0.012-3.261,1.695-3.193,3.309
			c0.074,1.757,1.552,3.097,3.386,3.071c1.76-0.025,3.239-1.528,3.198-3.251C42.461,117.18,40.816,115.661,39.108,115.674z"/>
	</g>
</g>
</svg>
