<?xml version="1.0" encoding="utf-8"?>
<!-- Generator: Adobe Illustrator 16.0.4, SVG Export Plug-In . SVG Version: 6.00 Build 0)  -->
<!DOCTYPE svg PUBLIC "-//W3C//DTD SVG 1.1//EN" "http://www.w3.org/Graphics/SVG/1.1/DTD/svg11.dtd">
<svg version="1.1" id="Layer_4011" xmlns="http://www.w3.org/2000/svg" xmlns:xlink="http://www.w3.org/1999/xlink" x="0px" y="0px"
	 width="128px" height="128px" viewBox="0 0 128 128" enable-background="new 0 0 128 128" xml:space="preserve">
<g id="SGpB2P.tif">
	<g>
		<path fill-rule="evenodd" clip-rule="evenodd" d="M12.75,100.273c-0.099,0-0.167-0.002-0.235,0
			c-0.875,0.029-0.872,0.028-1.167-0.826c-0.216-0.622-0.417-1.252-0.672-1.859c-0.194-0.462-0.172-0.856,0.09-1.285
			c0.295-0.484,0.16-0.715-0.399-0.75c-0.473-0.029-0.947-0.053-1.42-0.047c-0.258,0.003-0.357-0.106-0.415-0.337
			c-0.23-0.935-0.467-1.868-0.715-2.8c-0.07-0.265-0.052-0.493,0.121-0.713c0.094-0.119,0.169-0.252,0.244-0.386
			c0.174-0.31,0.034-0.602-0.319-0.65c-0.502-0.069-1.005-0.139-1.51-0.185c-0.243-0.022-0.348-0.109-0.386-0.361
			c-0.148-0.986-0.32-1.97-0.486-2.953c-0.031-0.18,0.014-0.334,0.121-0.476c0.102-0.136,0.208-0.268,0.304-0.406
			c0.276-0.398,0.185-0.661-0.292-0.78c-0.458-0.115-0.923-0.22-1.39-0.291c-0.283-0.043-0.354-0.183-0.369-0.438
			c-0.052-0.88-0.105-1.758-0.189-2.634c-0.04-0.418,0.023-0.769,0.368-1.038c0.039-0.03,0.07-0.072,0.104-0.109
			c0.342-0.384,0.275-0.642-0.228-0.809c-0.433-0.145-0.87-0.279-1.312-0.394c-0.275-0.071-0.383-0.207-0.371-0.499
			c0.043-0.981,0.065-1.962,0.088-2.944c0.004-0.199,0.06-0.354,0.218-0.485c0.156-0.129,0.304-0.271,0.439-0.422
			c0.207-0.232,0.149-0.52-0.137-0.647c-0.464-0.205-0.931-0.405-1.407-0.579c-0.281-0.103-0.339-0.273-0.308-0.546
			c0.111-0.958,0.208-1.918,0.305-2.877c0.018-0.18,0.08-0.318,0.23-0.428c0.178-0.13,0.346-0.272,0.51-0.419
			c0.267-0.236,0.245-0.515-0.064-0.683c-0.431-0.234-0.866-0.463-1.311-0.669c-0.256-0.118-0.348-0.271-0.287-0.554
			c0.21-0.976,0.408-1.953,0.599-2.932c0.036-0.185,0.118-0.309,0.275-0.398c0.147-0.083,0.295-0.167,0.433-0.265
			c0.409-0.292,0.408-0.529-0.016-0.818c-0.377-0.257-0.759-0.51-1.155-0.736c-0.253-0.144-0.31-0.312-0.228-0.581
			c0.285-0.938,0.556-1.88,0.833-2.82c0.05-0.167,0.135-0.302,0.306-0.38c0.184-0.084,0.361-0.185,0.536-0.288
			c0.334-0.195,0.358-0.46,0.05-0.712c-0.38-0.31-0.764-0.617-1.166-0.897c-0.242-0.169-0.272-0.334-0.162-0.597
			c0.377-0.905,0.74-1.817,1.094-2.731c0.075-0.193,0.187-0.306,0.378-0.37c0.192-0.064,0.381-0.141,0.563-0.231
			c0.275-0.136,0.338-0.433,0.12-0.652c-0.358-0.359-0.727-0.709-1.112-1.039c-0.224-0.192-0.237-0.364-0.107-0.613
			c0.431-0.824,0.859-1.651,1.256-2.492c0.138-0.294,0.332-0.451,0.633-0.511c0.083-0.017,0.166-0.037,0.247-0.061
			c0.529-0.158,0.606-0.472,0.221-0.886c-0.3-0.322-0.592-0.651-0.895-0.97c-0.177-0.186-0.205-0.353-0.058-0.583
			c0.526-0.828,1.037-1.665,1.549-2.502c0.104-0.17,0.234-0.277,0.44-0.3c0.167-0.019,0.332-0.063,0.496-0.106
			c0.431-0.113,0.542-0.382,0.288-0.747c-0.28-0.402-0.573-0.797-0.881-1.179c-0.157-0.194-0.144-0.329,0.007-0.524
			c0.588-0.764,1.157-1.542,1.732-2.317c0.137-0.184,0.293-0.315,0.543-0.32c0.185-0.003,0.37-0.043,0.553-0.078
			c0.357-0.067,0.487-0.346,0.299-0.658c-0.254-0.42-0.513-0.837-0.785-1.246c-0.155-0.233-0.143-0.403,0.059-0.616
			c0.641-0.676,1.266-1.366,1.879-2.066c0.195-0.223,0.405-0.337,0.699-0.323c0.168,0.008,0.34-0.002,0.506-0.033
			c0.359-0.066,0.473-0.298,0.312-0.624c-0.217-0.439-0.427-0.884-0.67-1.31c-0.135-0.235-0.115-0.383,0.085-0.564
			c0.755-0.679,1.499-1.37,2.241-2.062c0.125-0.116,0.257-0.151,0.416-0.138c0.185,0.016,0.37,0.036,0.556,0.045
			c0.42,0.023,0.602-0.201,0.461-0.592c-0.166-0.461-0.338-0.92-0.537-1.369c-0.106-0.241-0.088-0.393,0.133-0.559
			c0.812-0.608,1.618-1.227,2.414-1.855c0.28-0.222,0.556-0.069,0.826-0.035c0.652,0.082,0.805-0.083,0.617-0.708
			c-0.132-0.438-0.243-0.881-0.378-1.317c-0.061-0.194-0.016-0.313,0.156-0.42c0.86-0.54,1.715-1.085,2.568-1.637
			c0.171-0.11,0.341-0.127,0.531-0.078c0.164,0.043,0.328,0.083,0.494,0.117c0.423,0.086,0.62-0.084,0.552-0.507
			c-0.072-0.45-0.161-0.899-0.264-1.344c-0.07-0.305-0.013-0.495,0.297-0.645c0.867-0.42,1.72-0.871,2.573-1.32
			c0.18-0.095,0.343-0.125,0.527-0.033c0.091,0.045,0.189,0.074,0.286,0.106c0.714,0.24,0.866,0.12,0.788-0.61
			c-0.045-0.421-0.074-0.843-0.125-1.263c-0.031-0.257,0.055-0.405,0.303-0.502c0.929-0.364,1.853-0.738,2.773-1.123
			c0.224-0.093,0.394-0.01,0.573,0.086c0.771,0.415,1.107,0.335,1.034-0.671c-0.025-0.354-0.001-0.711-0.015-1.066
			c-0.009-0.232,0.053-0.37,0.302-0.442c0.941-0.272,1.879-0.56,2.812-0.858c0.361-0.116,0.62,0.086,0.897,0.232
			c0.563,0.298,0.743,0.214,0.813-0.43c0.048-0.437,0.064-0.877,0.09-1.316c0.015-0.255,0.125-0.38,0.395-0.431
			c0.93-0.177,1.854-0.38,2.778-0.583c0.286-0.063,0.532-0.027,0.754,0.174c0.1,0.09,0.214,0.167,0.332,0.231
			c0.351,0.193,0.621,0.064,0.689-0.332c0.079-0.45,0.154-0.9,0.214-1.352c0.042-0.311,0.167-0.46,0.511-0.488
			c0.859-0.069,1.719-0.164,2.571-0.295c0.449-0.069,0.771,0.07,1.089,0.362c0.448,0.412,0.719,0.323,0.884-0.271
			c0.113-0.406,0.216-0.816,0.303-1.229C45.553,3.122,45.679,3.003,45.976,3c0.896-0.01,1.794-0.036,2.69-0.083
			c0.383-0.021,0.696,0.054,0.934,0.37c0.06,0.08,0.139,0.149,0.216,0.213c0.3,0.25,0.575,0.196,0.717-0.165
			c0.167-0.424,0.329-0.854,0.443-1.294c0.1-0.38,0.31-0.448,0.667-0.417c0.876,0.079,1.755,0.136,2.634,0.166
			c0.339,0.011,0.583,0.113,0.769,0.39c0.075,0.111,0.166,0.216,0.264,0.308c0.265,0.25,0.568,0.191,0.728-0.142
			c0.211-0.442,0.428-0.883,0.612-1.337c0.104-0.254,0.237-0.31,0.504-0.264c0.966,0.167,1.937,0.309,2.907,0.451
			c0.221,0.032,0.375,0.131,0.49,0.316c0.098,0.158,0.197,0.318,0.319,0.458c0.203,0.234,0.509,0.223,0.676-0.04
			c0.245-0.385,0.467-0.785,0.687-1.186c0.166-0.302,0.356-0.43,0.733-0.323c0.895,0.252,1.803,0.457,2.707,0.671
			c0.23,0.055,0.397,0.162,0.495,0.385c0.062,0.138,0.149,0.266,0.236,0.39c0.253,0.364,0.528,0.368,0.796,0.001
			c0.27-0.369,0.529-0.745,0.779-1.126c0.152-0.232,0.314-0.302,0.594-0.198c0.793,0.293,1.59,0.578,2.397,0.823
			c0.455,0.138,0.761,0.361,0.932,0.822c0.218,0.582,0.502,0.614,0.903,0.153c0.277-0.319,0.558-0.638,0.819-0.97
			c0.183-0.231,0.357-0.289,0.643-0.154c0.886,0.421,1.785,0.815,2.681,1.214c0.166,0.075,0.273,0.183,0.32,0.363
			c0.036,0.147,0.096,0.289,0.15,0.43c0.195,0.516,0.447,0.571,0.857,0.18c0.33-0.315,0.664-0.63,0.973-0.966
			c0.184-0.201,0.326-0.204,0.557-0.067c0.802,0.472,1.614,0.926,2.434,1.367c0.275,0.148,0.462,0.324,0.49,0.647
			c0.012,0.133,0.061,0.265,0.105,0.392c0.135,0.381,0.427,0.47,0.746,0.215c0.369-0.296,0.732-0.602,1.086-0.916
			c0.205-0.182,0.375-0.215,0.617-0.04c0.755,0.544,1.522,1.071,2.296,1.588c0.259,0.173,0.438,0.365,0.421,0.693
			C88,6.354,88.007,6.388,88.013,6.421c0.116,0.754,0.382,0.861,1.001,0.411c0.327-0.238,0.669-0.458,0.996-0.698
			c0.197-0.145,0.343-0.12,0.53,0.039c0.734,0.624,1.482,1.233,2.232,1.84c0.198,0.161,0.317,0.339,0.31,0.603
			c-0.007,0.168,0.001,0.34,0.029,0.506c0.064,0.368,0.336,0.5,0.667,0.32c0.432-0.234,0.86-0.472,1.279-0.726
			c0.226-0.137,0.384-0.12,0.574,0.074c0.65,0.665,1.314,1.316,1.981,1.966c0.22,0.214,0.357,0.446,0.315,0.762
			c-0.011,0.083-0.002,0.169-0.004,0.254c-0.005,0.615,0.192,0.744,0.777,0.496c0.389-0.165,0.777-0.334,1.155-0.522
			c0.255-0.127,0.428-0.091,0.611,0.134c0.601,0.733,1.217,1.453,1.833,2.172c0.18,0.208,0.252,0.432,0.196,0.701
			c-0.029,0.149-0.053,0.301-0.059,0.452c-0.013,0.379,0.206,0.553,0.575,0.438c0.468-0.146,0.934-0.302,1.392-0.475
			c0.265-0.101,0.43-0.055,0.594,0.189c0.536,0.801,1.091,1.591,1.651,2.375c0.13,0.182,0.177,0.357,0.134,0.567
			c-0.029,0.132-0.062,0.264-0.087,0.396c-0.103,0.549,0.072,0.722,0.604,0.601c0.428-0.098,0.859-0.188,1.283-0.302
			c0.289-0.079,0.468-0.006,0.618,0.264c0.476,0.858,0.971,1.704,1.466,2.551c0.094,0.161,0.104,0.313,0.043,0.484
			c-0.062,0.175-0.12,0.352-0.169,0.531c-0.101,0.373,0.119,0.625,0.495,0.567c0.485-0.074,0.97-0.149,1.451-0.237
			c0.252-0.045,0.4,0.012,0.512,0.269c0.359,0.821,0.734,1.636,1.131,2.44c0.178,0.363,0.217,0.698,0.017,1.055
			c-0.048,0.088-0.084,0.186-0.111,0.283c-0.101,0.363,0.083,0.584,0.468,0.565c0.492-0.023,0.982-0.042,1.471-0.081
			c0.241-0.02,0.378,0.058,0.458,0.29c0.321,0.926,0.646,1.851,0.987,2.77c0.133,0.358-0.045,0.622-0.196,0.902
			c-0.286,0.528-0.176,0.756,0.417,0.794c0.455,0.029,0.913,0.043,1.369,0.032c0.275-0.007,0.389,0.11,0.451,0.359
			c0.23,0.935,0.471,1.868,0.715,2.8c0.064,0.247,0.039,0.464-0.108,0.673c-0.099,0.138-0.19,0.281-0.27,0.431
			c-0.162,0.3-0.034,0.571,0.308,0.623c0.502,0.076,1.005,0.146,1.511,0.189c0.267,0.022,0.38,0.121,0.419,0.392
			c0.146,0.986,0.312,1.97,0.479,2.953c0.027,0.164-0.005,0.296-0.105,0.425c-0.123,0.161-0.244,0.325-0.353,0.496
			c-0.224,0.358-0.125,0.608,0.286,0.705c0.461,0.109,0.921,0.22,1.387,0.298c0.239,0.04,0.365,0.127,0.383,0.376
			c0.073,1.03,0.154,2.059,0.232,3.088c0.022,0.297-0.216,0.448-0.376,0.633c-0.484,0.561-0.423,0.79,0.297,1.002
			c0.374,0.11,0.746,0.224,1.122,0.323c0.264,0.069,0.384,0.191,0.37,0.497c-0.044,0.913-0.062,1.827-0.062,2.741
			c0,0.352-0.088,0.625-0.377,0.831c-0.096,0.068-0.179,0.156-0.26,0.242c-0.265,0.282-0.219,0.558,0.137,0.714
			c0.465,0.205,0.935,0.395,1.409,0.576c0.229,0.088,0.297,0.225,0.268,0.466c-0.105,0.907-0.221,1.815-0.274,2.727
			c-0.027,0.483-0.34,0.705-0.652,0.957c-0.44,0.352-0.421,0.581,0.08,0.85c0.403,0.216,0.804,0.435,1.215,0.632
			c0.242,0.115,0.305,0.261,0.248,0.522c-0.209,0.958-0.404,1.918-0.583,2.883c-0.049,0.271-0.207,0.407-0.423,0.522
			c-0.862,0.458-0.735,0.805,0.008,1.203c0.326,0.175,0.623,0.405,0.942,0.598c0.173,0.104,0.224,0.238,0.168,0.425
			c-0.292,0.989-0.586,1.978-0.872,2.968c-0.048,0.162-0.146,0.26-0.288,0.331c-0.182,0.092-0.364,0.183-0.538,0.285
			c-0.337,0.197-0.36,0.477-0.06,0.715c0.397,0.316,0.794,0.632,1.207,0.927c0.204,0.146,0.24,0.293,0.148,0.518
			c-0.376,0.923-0.748,1.85-1.111,2.777c-0.074,0.188-0.182,0.313-0.376,0.375c-0.161,0.051-0.318,0.116-0.472,0.185
			c-0.417,0.186-0.47,0.457-0.146,0.77c0.353,0.34,0.708,0.68,1.078,1.001c0.187,0.163,0.21,0.318,0.102,0.531
			c-0.464,0.902-0.922,1.808-1.376,2.716c-0.076,0.149-0.184,0.237-0.342,0.271c-0.116,0.025-0.234,0.045-0.347,0.081
			c-0.634,0.203-0.708,0.473-0.269,0.964c0.292,0.326,0.581,0.659,0.88,0.982c0.149,0.16,0.166,0.307,0.045,0.495
			c-0.544,0.856-1.081,1.718-1.615,2.58c-0.088,0.142-0.205,0.211-0.367,0.235c-0.184,0.028-0.366,0.065-0.545,0.116
			c-0.416,0.118-0.532,0.412-0.282,0.77c0.28,0.403,0.582,0.789,0.892,1.172c0.153,0.192,0.146,0.334-0.006,0.532
			c-0.591,0.762-1.178,1.528-1.735,2.314c-0.237,0.334-0.575,0.318-0.898,0.364c-0.616,0.086-0.729,0.297-0.405,0.822
			c0.223,0.36,0.44,0.724,0.678,1.072c0.168,0.249,0.163,0.436-0.057,0.667c-0.629,0.662-1.243,1.34-1.844,2.029
			c-0.206,0.236-0.428,0.367-0.74,0.355c-0.151-0.005-0.306,0.006-0.455,0.025c-0.389,0.054-0.509,0.29-0.331,0.646
			c0.217,0.44,0.425,0.885,0.664,1.312c0.12,0.216,0.113,0.352-0.077,0.522c-0.754,0.68-1.495,1.373-2.238,2.064
			c-0.119,0.112-0.252,0.16-0.414,0.147c-0.202-0.015-0.406-0.026-0.609-0.03c-0.393-0.009-0.558,0.203-0.425,0.584
			c0.162,0.461,0.337,0.922,0.538,1.368c0.111,0.244,0.075,0.394-0.137,0.553c-0.811,0.612-1.613,1.234-2.414,1.858
			c-0.147,0.115-0.295,0.141-0.472,0.098c-0.165-0.039-0.333-0.057-0.502-0.08c-0.449-0.062-0.642,0.168-0.511,0.614
			c0.135,0.455,0.262,0.91,0.408,1.36c0.081,0.248,0.023,0.396-0.207,0.538c-0.838,0.514-1.662,1.044-2.487,1.576
			c-0.171,0.11-0.341,0.134-0.53,0.087c-0.181-0.045-0.36-0.092-0.544-0.129c-0.376-0.072-0.581,0.115-0.52,0.488
			c0.079,0.467,0.154,0.936,0.266,1.396c0.071,0.29,0.032,0.464-0.26,0.607c-0.882,0.431-1.751,0.887-2.619,1.342
			c-0.183,0.096-0.35,0.107-0.532,0.026c-0.078-0.034-0.158-0.061-0.238-0.089c-0.755-0.262-0.932-0.116-0.827,0.665
			c0.057,0.42,0.093,0.842,0.144,1.26c0.025,0.194-0.034,0.314-0.227,0.392c-0.974,0.39-1.942,0.788-2.911,1.189
			c-0.144,0.059-0.261,0.024-0.386-0.038c-0.121-0.061-0.24-0.124-0.365-0.176c-0.614-0.254-0.8-0.127-0.796,0.539
			c0.002,0.439-0.002,0.881,0.017,1.319c0.009,0.247-0.092,0.364-0.324,0.432c-0.924,0.271-1.85,0.54-2.765,0.842
			c-0.384,0.128-0.651-0.072-0.94-0.227c-0.537-0.288-0.779-0.166-0.824,0.434c-0.033,0.456-0.074,0.913-0.096,1.367
			c-0.011,0.225-0.101,0.323-0.326,0.368c-0.945,0.187-1.887,0.391-2.829,0.594c-0.282,0.062-0.532,0.036-0.752-0.171
			c-0.085-0.081-0.184-0.149-0.284-0.212c-0.376-0.23-0.648-0.121-0.732,0.308c-0.088,0.448-0.159,0.899-0.221,1.351
			c-0.041,0.306-0.148,0.466-0.499,0.491c-0.929,0.067-1.854,0.174-2.775,0.29c-0.299,0.038-0.528-0.021-0.729-0.238
			c-0.08-0.086-0.172-0.165-0.268-0.231c-0.334-0.229-0.627-0.141-0.742,0.245c-0.126,0.421-0.239,0.847-0.318,1.278
			c-0.068,0.364-0.24,0.491-0.612,0.49c-0.896-0.002-1.793,0.027-2.688,0.073c-0.338,0.019-0.59-0.075-0.795-0.336
			c-0.072-0.092-0.162-0.172-0.254-0.247c-0.301-0.243-0.577-0.182-0.715,0.181c-0.163,0.426-0.313,0.858-0.441,1.297
			c-0.098,0.337-0.286,0.441-0.634,0.41c-0.944-0.082-1.891-0.136-2.838-0.188c-0.205-0.01-0.352-0.084-0.476-0.238
			c-0.129-0.157-0.256-0.317-0.399-0.459c-0.242-0.234-0.549-0.181-0.695,0.124c-0.208,0.427-0.425,0.85-0.594,1.29
			c-0.117,0.309-0.256,0.407-0.6,0.342c-0.93-0.176-1.868-0.311-2.805-0.446c-0.237-0.034-0.416-0.112-0.534-0.325
			c-0.075-0.133-0.167-0.257-0.259-0.378c-0.256-0.334-0.532-0.337-0.758,0.015c-0.229,0.354-0.424,0.731-0.641,1.095
			c-0.28,0.47-0.285,0.472-0.807,0.345c-0.886-0.216-1.77-0.444-2.659-0.651c-0.216-0.051-0.372-0.139-0.467-0.34
			c-0.051-0.106-0.13-0.201-0.176-0.309c-0.234-0.55-0.705-0.498-0.975-0.012c-0.204,0.368-0.48,0.695-0.713,1.048
			c-0.131,0.198-0.279,0.259-0.513,0.176c-0.924-0.327-1.85-0.653-2.783-0.954c-0.432-0.141-0.484-0.527-0.645-0.851
			c-0.179-0.361-0.472-0.412-0.758-0.127c-0.072,0.071-0.133,0.152-0.199,0.23c-0.24,0.285-0.489,0.562-0.717,0.855
			c-0.181,0.235-0.357,0.298-0.646,0.161c-0.886-0.422-1.782-0.819-2.681-1.213c-0.237-0.104-0.309-0.296-0.364-0.511
			c-0.235-0.904-0.645-0.897-1.148-0.294c-0.258,0.311-0.578,0.57-0.86,0.863c-0.128,0.133-0.236,0.14-0.396,0.047
			c-0.88-0.504-1.765-1.002-2.652-1.493c-0.194-0.107-0.308-0.243-0.338-0.468c-0.022-0.167-0.089-0.327-0.144-0.486
			c-0.138-0.402-0.382-0.49-0.716-0.229c-0.373,0.291-0.731,0.603-1.086,0.916c-0.204,0.18-0.367,0.218-0.615,0.038
			c-0.726-0.525-1.467-1.033-2.221-1.516c-0.328-0.211-0.533-0.451-0.53-0.85c0-0.082-0.028-0.165-0.044-0.249
			c-0.083-0.427-0.359-0.561-0.726-0.326c-0.414,0.265-0.814,0.549-1.21,0.837c-0.191,0.14-0.336,0.158-0.533-0.01
			c-0.748-0.635-1.507-1.257-2.271-1.872c-0.208-0.169-0.258-0.374-0.271-0.622c-0.043-0.846-0.191-1.154-1.098-0.575
			c-0.299,0.191-0.621,0.345-0.926,0.528c-0.186,0.111-0.33,0.114-0.492-0.051c-0.677-0.687-1.356-1.372-2.049-2.041
			c-0.229-0.222-0.323-0.459-0.285-0.768c0.017-0.133,0.011-0.27,0.001-0.405c-0.025-0.358-0.25-0.521-0.582-0.388
			c-0.471,0.188-0.934,0.399-1.389,0.62c-0.24,0.116-0.392,0.083-0.563-0.127c-0.534-0.657-1.071-1.312-1.644-1.935
			c-0.341-0.37-0.454-0.756-0.372-1.245c0.097-0.578-0.12-0.751-0.67-0.569c-0.434,0.143-0.864,0.295-1.291,0.455
			c-0.245,0.093-0.402,0.04-0.553-0.183c-0.55-0.813-1.115-1.614-1.684-2.413c-0.119-0.167-0.154-0.328-0.111-0.523
			c0.047-0.214,0.093-0.432,0.11-0.649c0.022-0.299-0.175-0.475-0.47-0.414c-0.513,0.104-1.025,0.217-1.531,0.35
			c-0.24,0.063-0.371,0.003-0.492-0.211c-0.499-0.885-1.01-1.761-1.522-2.637c-0.097-0.166-0.064-0.326-0.019-0.49
			c0.049-0.178,0.128-0.35,0.168-0.53c0.079-0.36-0.129-0.575-0.498-0.522c-0.486,0.068-0.971,0.14-1.455,0.218
			c-0.248,0.041-0.401-0.014-0.514-0.272c-0.35-0.807-0.71-1.609-1.109-2.393c-0.203-0.402-0.228-0.765-0.016-1.153
			c0.04-0.075,0.066-0.156,0.089-0.237c0.096-0.333-0.077-0.562-0.423-0.55C13.259,100.233,12.989,100.258,12.75,100.273z
			 M75.08,75.88l0.017,0.012l-0.021-0.015c-0.004-0.062-0.037-0.094-0.096-0.101c-0.463-0.609-1.041-1.105-1.581-1.639
			c-0.925-0.912-1.799-1.879-2.785-2.729l-0.012-0.016l0.02,0.009c-0.033,0.493,0.131,0.962,0.177,1.445
			c0.025,0.275,0.129,0.448,0.372,0.597c1.004,0.611,1.987,1.255,2.991,1.867c0.267,0.162,0.482,0.428,0.824,0.458
			C74.985,75.833,75.031,75.856,75.08,75.88z M52.119,75.049c0.061,0,0.096-0.03,0.103-0.092c0.109-0.019,0.169-0.107,0.24-0.177
			c0.829-0.822,1.657-1.646,2.483-2.47c0.491-0.49,0.979-0.983,1.466-1.476c0.057-0.057,0.15-0.115,0.091-0.203
			c-0.024-0.035-0.128-0.033-0.192-0.022c-0.401,0.06-0.799,0.146-1.202,0.188c-0.262,0.027-0.425,0.138-0.562,0.362
			c-0.619,1.009-1.26,2.004-1.877,3.015c-0.156,0.257-0.397,0.468-0.442,0.787c-0.037,0.031-0.074,0.062-0.111,0.093l-0.009,0.018
			L52.119,75.049z M52.124,52.919L52.106,52.9l0.017,0.016c0.017,0.052,0.04,0.097,0.105,0.096c0.006,0.05-0.002,0.109,0.021,0.148
			c0.79,1.261,1.583,2.52,2.375,3.781c0.066,0.104,0.139,0.192,0.267,0.213c0.467,0.074,0.935,0.151,1.403,0.218
			c0.071,0.01,0.178,0.053,0.212-0.058c0.021-0.071-0.053-0.116-0.1-0.163c-0.524-0.529-1.042-1.065-1.576-1.583
			c-0.874-0.846-1.678-1.764-2.61-2.55C52.214,52.96,52.184,52.925,52.124,52.919z M87.777,53.512
			c0.086,0.006,0.167,0.003,0.225-0.072c0.472-0.086,0.885-0.329,1.32-0.508c3.888-1.609,7.779-3.212,11.667-4.822
			c4.186-1.733,8.368-3.47,12.553-5.205c0.812-0.336,1.624-0.674,2.44-0.998c0.295-0.117,0.391-0.258,0.235-0.571
			c-0.266-0.528-0.483-1.081-0.735-1.615c-0.643-1.361-1.354-2.687-2.083-4.004c-0.139-0.25-0.257-0.312-0.502-0.127
			c-0.432,0.326-0.883,0.626-1.324,0.94c-2.284,1.632-4.564,3.268-6.851,4.897c-2.314,1.648-4.636,3.287-6.949,4.935
			c-2.385,1.697-4.769,3.394-7.145,5.103c-0.891,0.64-1.817,1.232-2.659,1.94c-0.075,0.017-0.146,0.042-0.184,0.117l-0.023,0.028
			L87.777,53.512z M74.985,52.208c-0.034,0.004-0.072,0-0.099,0.016c-1.287,0.806-2.574,1.614-3.861,2.421
			c-0.106,0.066-0.18,0.143-0.195,0.276c-0.062,0.552-0.226,1.091-0.211,1.653l-0.023,0.016l0.015-0.024
			c0.112-0.01,0.171-0.097,0.241-0.167c1.06-1.056,2.124-2.105,3.175-3.169c0.329-0.332,0.708-0.619,0.95-1.031
			c0.048-0.005,0.057-0.016,0.027-0.031C74.997,52.18,74.991,52.194,74.985,52.208z M71.428,57.381c0.559,0,1.097-0.164,1.648-0.223
			c0.179-0.02,0.248-0.154,0.33-0.282c0.308-0.482,0.631-0.956,0.919-1.449c0.476-0.812,1.038-1.57,1.467-2.411
			c0.003-0.01,0.008-0.02,0.012-0.028c-0.002,0.012-0.002,0.023-0.004,0.035c-0.212,0.049-0.327,0.228-0.467,0.366
			c-0.991,0.984-1.983,1.969-2.961,2.965c-0.326,0.332-0.705,0.618-0.938,1.034L71.428,57.381z M58.318,48.856l-0.017-0.026
			l0.024,0.02c0.264,0.783,0.596,1.538,0.916,2.299c0.458,1.088,0.9,2.183,1.354,3.273c0.028,0.066,0.036,0.179,0.136,0.169
			c0.032-0.003,0.065-0.11,0.081-0.173c0.102-0.409,0.189-0.822,0.302-1.229c0.074-0.268,0.021-0.479-0.144-0.705
			c-0.746-1.022-1.472-2.061-2.215-3.086C58.619,49.211,58.554,48.963,58.318,48.856z M57.301,78.709
			c0.403-0.78,0.693-1.61,1.035-2.417c0.448-1.059,0.881-2.123,1.32-3.185c0.02-0.045,0.059-0.101,0.046-0.14
			c-0.021-0.062-0.085-0.034-0.125-0.009c-0.761,0.5-1.791,0.773-1.679,2.006c0.004,0.048-0.022,0.099-0.031,0.148
			c-0.207,1.198-0.463,2.388-0.558,3.604c-0.012,0.011-0.026,0.021-0.036,0.032c-0.007,0.009-0.009,0.023-0.012,0.034
			C57.274,78.758,57.287,78.733,57.301,78.709z M79.146,69.674l0.021,0.021l-0.029-0.014c-0.043-0.146-0.179-0.195-0.286-0.272
			c-0.865-0.62-1.773-1.19-2.587-1.869c-0.733-0.612-1.459-0.844-2.348-0.44c-0.105,0.048-0.232,0.045-0.347,0.076
			c-0.062,0.017-0.164,0.05-0.17,0.086c-0.016,0.107,0.106,0.103,0.17,0.131c0.808,0.344,1.614,0.692,2.43,1.017
			C77.052,68.827,78.077,69.306,79.146,69.674z M68.271,72.94l0.006-0.008c0.75,1.825,1.5,3.649,2.251,5.475
			c0.031,0.076,0.061,0.202,0.14,0.182c0.062-0.018,0.023-0.151,0.011-0.231c-0.232-1.396-0.467-2.795-0.699-4.193
			c-0.022-0.137-0.057-0.268-0.185-0.344C69.288,73.523,68.838,73.133,68.271,72.94z M69.694,48.75
			c-0.668,0.935-1.327,1.875-2.004,2.803c-0.917,1.256-0.923,1.252-0.528,2.741c0.025,0.093-0.004,0.242,0.115,0.253
			c0.109,0.011,0.121-0.136,0.158-0.223c0.559-1.34,1.122-2.678,1.668-4.023c0.208-0.513,0.475-1.006,0.584-1.556l0.021-0.006
			L69.694,48.75z M79.137,58.291c-1.606,0.661-3.215,1.322-4.82,1.984c-0.249,0.103-0.497,0.209-0.744,0.319
			c-0.056,0.024-0.14,0.044-0.13,0.123c0.003,0.034,0.067,0.076,0.11,0.086c0.474,0.114,0.95,0.223,1.427,0.334
			c0.201,0.047,0.354-0.046,0.511-0.159c1.153-0.825,2.311-1.645,3.467-2.466c0.081-0.058,0.175-0.107,0.172-0.229
			c0.016-0.003,0.032-0.006,0.048-0.009C79.164,58.281,79.15,58.286,79.137,58.291z M78.736,70.69
			c0.013,0.011,0.023,0.022,0.036,0.032c0.009,0.007,0.021,0.009,0.032,0.013c-0.025-0.013-0.051-0.024-0.075-0.037
			c-0.057-0.035-0.109-0.08-0.17-0.104c-1.634-0.68-3.271-1.36-4.909-2.03c-0.229-0.095-0.444-0.229-0.696-0.257
			c0.044,0.271,0.253,0.457,0.361,0.695c0.315,0.697,0.803,1.142,1.625,1.088c0.064-0.005,0.131,0.026,0.198,0.038
			C76.334,70.337,77.524,70.583,78.736,70.69z M69.694,79.231l0.015,0.009l-0.021-0.01c-0.015-0.082-0.015-0.17-0.045-0.246
			c-0.666-1.622-1.336-3.243-2.007-4.865c-0.077-0.187-0.161-0.371-0.247-0.555c-0.024-0.054-0.031-0.141-0.119-0.131
			c-0.056,0.007-0.072,0.061-0.084,0.112c-0.107,0.46-0.217,0.92-0.322,1.38c-0.037,0.169-0.023,0.326,0.088,0.479
			C67.867,76.679,68.779,77.955,69.694,79.231z M48.768,58.31l-0.008-0.02l0.011,0.014c1.013,0.728,2.063,1.408,3.024,2.198
			c0.716,0.588,1.416,0.765,2.258,0.397c0.076-0.033,0.162-0.044,0.243-0.067c0.093-0.026,0.241,0.005,0.256-0.112
			c0.014-0.114-0.135-0.122-0.22-0.157c-1.32-0.554-2.639-1.112-3.965-1.65C49.839,58.699,49.333,58.425,48.768,58.31z
			 M58.311,79.114c0.043-0.022,0.103-0.034,0.127-0.068c0.875-1.224,1.745-2.448,2.62-3.67c0.098-0.137,0.118-0.281,0.083-0.432
			c-0.109-0.478-0.225-0.953-0.344-1.428c-0.013-0.053-0.017-0.143-0.1-0.137c-0.029,0.004-0.057,0.077-0.076,0.122
			c-0.158,0.374-0.317,0.746-0.47,1.122c-0.612,1.498-1.222,2.998-1.833,4.496c-0.007,0.028-0.093,0.029-0.025,0.079
			C58.3,79.172,58.305,79.142,58.311,79.114z M75.896,75.167l0.021,0.016l-0.024-0.019c-0.031-0.171-0.124-0.312-0.215-0.456
			c-0.595-0.944-1.235-1.863-1.77-2.839c-0.408-0.745-0.904-1.229-1.797-1.188c-0.113,0.005-0.23-0.053-0.348-0.065
			c-0.098-0.011-0.259-0.034-0.287,0.012c-0.084,0.137,0.083,0.188,0.156,0.263C73.05,72.318,74.473,73.742,75.896,75.167z
			 M52.835,52.103l-0.018-0.02l0.017,0.019c0.645,0.647,1.287,1.296,1.934,1.941c0.789,0.789,1.582,1.575,2.374,2.362
			c0.058,0.058,0.108,0.171,0.191,0.141c0.124-0.044,0.061-0.174,0.049-0.26c-0.058-0.402-0.146-0.799-0.188-1.201
			c-0.026-0.248-0.142-0.395-0.343-0.521c-0.904-0.562-1.796-1.146-2.708-1.694C53.71,52.609,53.328,52.259,52.835,52.103z
			 M81.99,82.788c-0.015-0.05-0.027-0.057-0.036-0.021c0.015,0.005,0.03,0.009,0.045,0.013c-0.025,0.133,0.061,0.222,0.124,0.321
			c0.732,1.155,1.47,2.309,2.195,3.469c2.216,3.539,4.428,7.081,6.641,10.622c2.42,3.868,4.839,7.739,7.259,11.609
			c0.275,0.438,0.279,0.443,0.704,0.116c1.582-1.219,3.083-2.531,4.525-3.913c0.515-0.493,0.444-0.379-0.009-0.833
			c-3.828-3.827-7.658-7.651-11.486-11.479c-2.967-2.968-5.928-5.939-8.9-8.9C82.707,83.449,82.408,83.055,81.99,82.788z
			 M45.217,45.998c0.009,0.008,0.017,0.016,0.026,0.024c-0.011-0.005-0.022-0.011-0.033-0.017c-0.087-0.168-0.227-0.293-0.358-0.424
			c-1.892-1.888-3.787-3.772-5.677-5.663c-5.047-5.048-10.092-10.099-15.137-15.15c-0.647-0.647-0.645-0.649-1.255,0
			c-0.047,0.049-0.098,0.094-0.145,0.143c-1.278,1.353-2.491,2.762-3.628,4.236c-0.262,0.339-0.255,0.347,0.096,0.572
			c0.94,0.6,1.877,1.206,2.823,1.796c1.937,1.207,3.884,2.398,5.819,3.606c3.055,1.908,6.104,3.824,9.154,5.737
			c2.449,1.536,4.895,3.077,7.349,4.605C44.562,45.657,44.837,45.925,45.217,45.998z M40.245,53.509
			c-0.002,0.003-0.005,0.005-0.008,0.008c-1.337-0.949-2.675-1.896-4.009-2.848c-2.697-1.926-5.389-3.858-8.086-5.784
			c-2.009-1.434-4.024-2.861-6.035-4.293c-2.313-1.647-4.625-3.297-6.939-4.943c-0.384-0.273-0.384-0.267-0.625,0.163
			c-0.613,1.09-1.201,2.193-1.752,3.316c-0.356,0.728-0.663,1.48-1.011,2.212c-0.135,0.283-0.073,0.445,0.207,0.551
			c0.079,0.03,0.154,0.07,0.232,0.102c1.875,0.772,3.751,1.541,5.625,2.316c4.169,1.726,8.337,3.455,12.504,5.184
			c2.917,1.211,5.833,2.431,8.752,3.635C39.471,53.28,39.826,53.496,40.245,53.509z M53.544,87.768
			c-0.916,1.129-1.704,2.352-2.559,3.525c-1.254,1.722-2.47,3.471-3.707,5.207c-1.423,1.997-2.854,3.989-4.276,5.986
			c-1.196,1.682-2.384,3.368-3.581,5.049c-1.265,1.777-2.533,3.552-3.807,5.323c-0.181,0.25-0.172,0.387,0.115,0.547
			c1.743,0.974,3.513,1.891,5.343,2.688c0.666,0.29,0.669,0.281,0.95-0.397c1.219-2.952,2.436-5.905,3.659-8.856
			c1.456-3.515,2.915-7.026,4.373-10.54c0.835-2.015,1.687-4.021,2.501-6.043c0.333-0.829,0.755-1.625,0.981-2.496L53.544,87.768z
			 M40.242,74.466c-0.196-0.02-0.364,0.074-0.532,0.145c-1.236,0.507-2.468,1.021-3.701,1.533
			c-4.418,1.835-8.834,3.673-13.253,5.505c-3.53,1.463-7.063,2.917-10.594,4.375c-0.547,0.227-0.555,0.232-0.308,0.794
			c0.796,1.813,1.681,3.581,2.662,5.302c0.279,0.489,0.272,0.496,0.732,0.167c2.009-1.436,4.015-2.874,6.026-4.307
			c2.342-1.669,4.689-3.329,7.033-4.997c2.356-1.677,4.713-3.354,7.066-5.036c1.623-1.16,3.241-2.325,4.861-3.489l0.015-0.019
			L40.242,74.466z M53.547,40.207l-0.005,0.005c-0.327-1.015-0.79-1.975-1.196-2.958c-1.434-3.468-2.862-6.939-4.298-10.407
			c-1.197-2.889-2.405-5.773-3.602-8.663c-0.835-2.015-1.658-4.035-2.49-6.051c-0.214-0.519-0.224-0.523-0.727-0.307
			c-1.88,0.812-3.701,1.743-5.48,2.756c-0.357,0.204-0.362,0.214-0.109,0.57c1.481,2.082,2.967,4.159,4.449,6.24
			c1.658,2.328,3.312,4.66,4.971,6.989c2.11,2.962,4.219,5.925,6.338,8.881C52.106,38.249,52.761,39.275,53.547,40.207z
			 M87.786,74.455l-0.015-0.016l0.021,0.009c0.925,0.793,1.958,1.436,2.941,2.147c1.672,1.209,3.357,2.398,5.039,3.595
			c1.653,1.179,3.307,2.354,4.958,3.533c2.066,1.474,4.13,2.949,6.195,4.423c1.983,1.412,3.972,2.819,5.952,4.237
			c0.226,0.162,0.354,0.183,0.508-0.093c1.027-1.829,1.977-3.697,2.822-5.619c0.146-0.333,0.062-0.476-0.25-0.603
			c-1.145-0.462-2.28-0.945-3.42-1.416c-3.031-1.252-6.065-2.499-9.094-3.753c-4.155-1.718-8.308-3.445-12.463-5.159
			C89.92,75.303,88.884,74.803,87.786,74.455z M74.48,40.214c0.708-0.988,1.42-1.977,2.127-2.967
			c1.178-1.652,2.351-3.309,3.529-4.961s2.363-3.299,3.541-4.952c1.68-2.355,3.354-4.714,5.033-7.07
			c1.227-1.722,2.452-3.445,3.687-5.161c0.17-0.236,0.149-0.358-0.112-0.505c-1.784-1.003-3.602-1.939-5.481-2.751
			c-0.56-0.242-0.564-0.232-0.8,0.338c-0.757,1.846-1.51,3.693-2.274,5.535c-1.65,3.982-3.309,7.961-4.962,11.942
			c-1.315,3.168-2.633,6.336-3.938,9.508c-0.14,0.339-0.336,0.667-0.342,1.053C74.485,40.22,74.482,40.217,74.48,40.214z
			 M54.568,39.696c0.014,0.054,0.027,0.107,0.04,0.16c0.006-0.012,0.02-0.026,0.016-0.034c-0.019-0.041-0.042-0.08-0.063-0.12
			c-0.016-0.185-0.017-0.373-0.048-0.555c-0.495-2.933-0.998-5.866-1.492-8.8c-0.646-3.834-1.291-7.668-1.931-11.504
			c-0.517-3.101-1.025-6.204-1.537-9.306c-0.096-0.579-0.099-0.592-0.679-0.427c-1.969,0.559-3.91,1.2-5.817,1.947
			c-0.311,0.123-0.324,0.256-0.211,0.521c0.44,1.043,0.868,2.092,1.301,3.138c1.008,2.438,2.014,4.875,3.023,7.312
			c1.417,3.421,2.839,6.84,4.256,10.262c0.97,2.342,1.935,4.688,2.905,7.03C54.389,39.457,54.424,39.612,54.568,39.696z
			 M54.568,88.28c-0.154,0.099-0.191,0.271-0.254,0.425c-1.152,2.78-2.298,5.562-3.449,8.343c-1.357,3.281-2.714,6.561-4.074,9.84
			c-0.764,1.844-1.535,3.683-2.298,5.525c-0.55,1.327-1.085,2.66-1.646,3.983c-0.131,0.31-0.064,0.438,0.246,0.543
			c0.577,0.193,1.136,0.437,1.709,0.64c1.386,0.491,2.778,0.962,4.205,1.325c0.311,0.078,0.457,0.027,0.507-0.323
			c0.105-0.734,0.264-1.462,0.385-2.193c0.312-1.886,0.61-3.773,0.925-5.656c0.563-3.367,1.136-6.734,1.702-10.102
			c0.525-3.116,1.057-6.233,1.56-9.354c0.162-1,0.416-1.986,0.476-3.002c0.022-0.041,0.045-0.081,0.064-0.123
			c0.003-0.008-0.01-0.022-0.017-0.034C54.596,88.172,54.582,88.225,54.568,88.28z M88.295,73.437
			c-0.043-0.024-0.082-0.061-0.127-0.068c-0.041-0.007-0.053,0.033-0.016,0.045c0.046,0.016,0.099,0.012,0.148,0.017
			c0.132,0.173,0.338,0.216,0.521,0.291c1.858,0.77,3.719,1.533,5.576,2.302c3.983,1.649,7.965,3.302,11.947,4.953
			c2.029,0.842,4.057,1.687,6.088,2.528c1.312,0.543,2.629,1.072,3.938,1.625c0.333,0.141,0.458,0.055,0.589-0.274
			c0.74-1.873,1.351-3.788,1.917-5.718c0.164-0.565,0.151-0.586-0.425-0.684c-1.833-0.313-3.666-0.627-5.499-0.934
			c-4.067-0.683-8.135-1.36-12.202-2.04c-3.185-0.533-6.366-1.082-9.554-1.591C90.23,73.735,89.279,73.473,88.295,73.437z
			 M82.602,46.098c0.16-0.001,0.288-0.085,0.418-0.167c1.57-0.993,3.14-1.991,4.715-2.979c3.151-1.977,6.305-3.949,9.458-5.922
			c3.87-2.42,7.741-4.839,11.611-7.259c0.441-0.276,0.445-0.278,0.118-0.7c-1.234-1.592-2.557-3.106-3.949-4.562
			c-0.428-0.447-0.371-0.395-0.767,0c-1.221,1.218-2.433,2.446-3.653,3.666c-2.403,2.405-4.812,4.805-7.217,7.209
			c-2.488,2.487-4.975,4.976-7.463,7.462c-1.089,1.088-2.182,2.171-3.271,3.256l-0.013,0.015L82.602,46.098z M82.603,81.875
			l-0.014-0.016l0.015,0.013c0.656,0.658,1.312,1.315,1.969,1.973c2.428,2.428,4.856,4.856,7.285,7.286
			c2.621,2.618,5.242,5.238,7.863,7.858c1.531,1.531,3.065,3.06,4.594,4.596c0.175,0.176,0.296,0.284,0.525,0.043
			c1.468-1.549,2.876-3.144,4.185-4.83c0.22-0.282,0.115-0.381-0.125-0.53c-2.369-1.473-4.732-2.954-7.1-4.432
			c-1.966-1.227-3.935-2.445-5.9-3.673c-2.006-1.256-4.01-2.517-6.014-3.777c-1.646-1.034-3.286-2.079-4.942-3.1
			C84.168,82.809,83.428,82.271,82.603,81.875z M63.449,42.941c-0.037-0.197-0.065-0.381-0.107-0.562
			c-0.204-0.889-0.413-1.777-0.619-2.666c-0.849-3.671-1.7-7.341-2.544-11.013c-0.799-3.474-1.588-6.95-2.387-10.423
			c-0.773-3.359-1.557-6.715-2.324-10.076c-0.072-0.317-0.159-0.453-0.525-0.399c-1.423,0.209-2.819,0.555-4.229,0.824
			c-0.321,0.061-0.229,0.263-0.197,0.461c0.549,3.3,1.093,6.602,1.646,9.901c0.566,3.383,1.143,6.764,1.713,10.146
			c0.441,2.616,0.883,5.232,1.319,7.849c0.378,2.267,0.75,4.535,1.122,6.803c0.05,0.303,0.135,0.583,0.319,0.84
			c1.548,2.157,3.088,4.32,4.631,6.48c0.056,0.077,0.091,0.213,0.209,0.182c0.116-0.03,0.081-0.169,0.102-0.262
			c0.538-2.303,1.076-4.606,1.611-6.909C63.281,43.723,63.364,43.326,63.449,42.941z M72.914,7.793
			c-0.276-0.083-0.318,0.119-0.372,0.359c-0.343,1.5-0.704,2.994-1.049,4.493c-0.788,3.426-1.567,6.852-2.355,10.277
			c-0.77,3.342-1.548,6.683-2.317,10.024c-0.738,3.212-1.468,6.425-2.208,9.636c-0.052,0.221-0.061,0.423-0.008,0.646
			c0.255,1.086,0.492,2.175,0.744,3.262c0.354,1.531,0.716,3.061,1.077,4.591c0.017,0.076,0.004,0.191,0.088,0.217
			c0.097,0.03,0.135-0.081,0.183-0.146c0.266-0.372,0.528-0.745,0.793-1.116c1.27-1.776,2.538-3.551,3.807-5.326
			c0.188-0.263,0.321-0.538,0.369-0.873c0.152-1.071,0.336-2.138,0.516-3.205c0.489-2.917,0.986-5.833,1.477-8.75
			c0.355-2.117,0.704-4.236,1.058-6.354c0.394-2.351,0.785-4.702,1.184-7.053c0.33-1.949,0.671-3.896,1.001-5.846
			c0.203-1.2,0.392-2.402,0.592-3.603c0.036-0.221-0.018-0.348-0.259-0.398C75.811,8.332,74.398,7.988,72.914,7.793z M120.191,72.95
			c0.068-0.271-0.104-0.359-0.379-0.422c-1.549-0.351-3.093-0.725-4.642-1.081c-3.229-0.741-6.459-1.475-9.688-2.217
			c-2.503-0.575-5.003-1.163-7.507-1.74c-4.102-0.943-8.205-1.88-12.305-2.829c-0.405-0.094-0.79-0.107-1.196-0.004
			c-0.785,0.201-1.578,0.375-2.369,0.559c-1.711,0.397-3.424,0.792-5.135,1.191c-0.095,0.021-0.242-0.005-0.268,0.093
			c-0.038,0.142,0.128,0.173,0.212,0.247c0.013,0.011,0.027,0.02,0.041,0.03c2.12,1.514,4.243,3.024,6.358,4.544
			c0.256,0.184,0.527,0.293,0.832,0.344c1.303,0.211,2.603,0.43,3.902,0.646c3.336,0.553,6.672,1.102,10.006,1.66
			c3.134,0.525,6.266,1.065,9.399,1.593c2.419,0.406,4.837,0.806,7.255,1.208c1.385,0.23,2.769,0.461,4.151,0.699
			c0.3,0.052,0.476,0.004,0.524-0.346c0.052-0.383,0.165-0.758,0.244-1.139C119.838,74.993,120.06,74.003,120.191,72.95z
			 M8.937,77.492c0.083-0.011,0.168-0.019,0.251-0.035c1.379-0.254,2.768-0.449,4.148-0.695c2.612-0.462,5.232-0.878,7.849-1.315
			c3.833-0.644,7.666-1.289,11.499-1.931c3.482-0.582,6.967-1.15,10.448-1.744c0.506-0.086,1.037-0.081,1.495-0.412
			c2.151-1.558,4.316-3.094,6.476-4.638c0.078-0.057,0.216-0.089,0.198-0.203c-0.021-0.128-0.165-0.079-0.254-0.101
			c-2.55-0.598-5.101-1.189-7.649-1.79c-0.338-0.08-0.664-0.065-0.998,0.013c-2.288,0.53-4.577,1.054-6.864,1.583
			c-4.081,0.944-8.161,1.896-12.243,2.837c-2.846,0.658-5.696,1.306-8.544,1.959c-2.189,0.503-4.377,1.016-6.568,1.509
			c-0.321,0.072-0.467,0.16-0.373,0.529c0.115,0.457,0.145,0.936,0.239,1.399c0.184,0.911,0.388,1.818,0.582,2.726
			C8.665,77.357,8.694,77.529,8.937,77.492z M42.917,63.454c0.086-0.02,0.184-0.045,0.282-0.067c1.877-0.43,3.754-0.858,5.631-1.29
			c0.757-0.175,1.513-0.355,2.269-0.537c0.073-0.018,0.19,0.013,0.207-0.091c0.017-0.097-0.09-0.13-0.156-0.178
			c-0.385-0.275-0.772-0.549-1.157-0.824c-1.762-1.257-3.526-2.512-5.284-3.776c-0.297-0.214-0.618-0.328-0.974-0.385
			c-1.301-0.21-2.603-0.427-3.903-0.643c-2.368-0.393-4.736-0.784-7.103-1.181c-2.9-0.486-5.8-0.98-8.7-1.467
			c-2.333-0.392-4.668-0.778-7.002-1.169c-2.667-0.446-5.333-0.894-7.999-1.348c-0.262-0.045-0.363,0.037-0.413,0.291
			C8.346,52.184,8,53.561,7.804,54.97c-0.042,0.306,0.022,0.411,0.32,0.479c1.549,0.347,3.094,0.72,4.641,1.077
			c4.61,1.062,9.221,2.122,13.832,3.184c2.947,0.678,5.894,1.356,8.841,2.035c1.943,0.447,3.886,0.895,5.83,1.341
			C41.812,63.209,42.356,63.329,42.917,63.454z M77.5,119.064c-0.009-0.051-0.014-0.101-0.022-0.151
			c-0.43-2.548-0.86-5.097-1.288-7.646c-0.444-2.648-0.886-5.299-1.33-7.949c-0.439-2.633-0.885-5.266-1.324-7.899
			c-0.613-3.683-1.227-7.366-1.829-11.052c-0.072-0.444-0.224-0.833-0.489-1.2c-1.501-2.086-2.99-4.18-4.483-6.271
			c-0.058-0.08-0.092-0.224-0.196-0.209c-0.147,0.02-0.104,0.189-0.127,0.289c-0.617,2.632-1.223,5.266-1.837,7.898
			c-0.04,0.176-0.006,0.33,0.032,0.496c0.41,1.761,0.82,3.522,1.225,5.284c0.777,3.391,1.549,6.784,2.328,10.176
			c0.761,3.309,1.527,6.616,2.292,9.924c0.703,3.045,1.405,6.091,2.101,9.138c0.055,0.244,0.132,0.359,0.403,0.298
			c0.28-0.062,0.568-0.084,0.853-0.13c1.134-0.185,2.254-0.445,3.374-0.697C77.349,119.323,77.533,119.314,77.5,119.064z
			 M63.434,85.028c-0.028-0.153-0.054-0.319-0.092-0.484c-0.151-0.658-0.308-1.315-0.461-1.975c-0.436-1.876-0.87-3.751-1.309-5.627
			c-0.021-0.089,0.03-0.229-0.108-0.25c-0.088-0.014-0.13,0.089-0.179,0.156c-1.551,2.176-3.102,4.352-4.657,6.524
			c-0.163,0.226-0.256,0.471-0.3,0.742c-0.216,1.335-0.431,2.669-0.655,4.003c-0.428,2.55-0.864,5.098-1.293,7.647
			c-0.65,3.867-1.297,7.733-1.943,11.603c-0.404,2.416-0.804,4.834-1.207,7.251c-0.233,1.4-0.464,2.802-0.706,4.201
			c-0.054,0.312-0.02,0.491,0.353,0.566c1.358,0.275,2.707,0.591,4.078,0.802c0.36,0.056,0.438-0.077,0.504-0.364
			c0.363-1.598,0.74-3.192,1.107-4.789c0.583-2.536,1.158-5.073,1.742-7.609c0.947-4.116,1.899-8.232,2.851-12.348
			c0.639-2.767,1.283-5.53,1.917-8.297C63.208,86.205,63.367,85.634,63.434,85.028z M120.196,55.062
			c-0.206-1.512-0.545-2.926-0.846-4.346c-0.057-0.263-0.243-0.234-0.435-0.203c-1.217,0.201-2.436,0.396-3.651,0.601
			c-2.782,0.468-5.563,0.941-8.347,1.41c-2.632,0.443-5.266,0.885-7.898,1.326c-2.15,0.36-4.299,0.717-6.45,1.076
			c-2.75,0.458-5.499,0.92-8.251,1.368c-0.429,0.069-0.799,0.224-1.149,0.477c-2.072,1.492-4.152,2.974-6.229,4.459
			c-0.094,0.066-0.255,0.104-0.239,0.231c0.02,0.141,0.194,0.1,0.295,0.123c2.6,0.606,5.2,1.204,7.801,1.808
			c0.187,0.043,0.357,0.042,0.547-0.002c1.742-0.409,3.487-0.812,5.233-1.212c3.426-0.786,6.851-1.565,10.275-2.353
			c3.325-0.765,6.647-1.535,9.972-2.303c2.996-0.692,5.991-1.387,8.99-2.068C120.097,55.391,120.257,55.305,120.196,55.062z
			 M71.252,74.727c-0.166,0.046-0.104,0.177-0.088,0.271c0.158,0.951,0.324,1.899,0.484,2.851c0.278,1.667,0.554,3.334,0.829,5.003
			c0.048,0.288,0.157,0.544,0.33,0.785c1.669,2.321,3.334,4.645,4.992,6.974c1.648,2.314,3.285,4.638,4.934,6.953
			c2.346,3.293,4.698,6.582,7.047,9.873c1.17,1.64,2.34,3.275,3.496,4.924c0.176,0.25,0.286,0.274,0.558,0.104
			c1.205-0.755,2.377-1.555,3.542-2.369c0.234-0.163,0.254-0.291,0.104-0.528c-1.111-1.76-2.208-3.526-3.312-5.289
			c-1.859-2.966-3.727-5.928-5.581-8.897c-2.104-3.371-4.195-6.751-6.299-10.124c-1.082-1.737-2.167-3.471-3.273-5.191
			c-0.214-0.332-0.361-0.719-0.735-0.95c-2.256-1.4-4.503-2.814-6.752-4.224C71.441,74.836,71.353,74.786,71.252,74.727z
			 M71.148,53.088c0.003,0.012-0.017,0.103,0.02,0.14c0.072,0.074,0.149-0.012,0.218-0.045c0.075-0.038,0.144-0.088,0.216-0.133
			c2.008-1.255,4.015-2.515,6.026-3.763c0.534-0.332,1.009-0.696,1.351-1.255c1.461-2.396,2.95-4.777,4.437-7.159
			c1.19-1.908,2.393-3.809,3.585-5.716c1.668-2.668,3.329-5.341,4.999-8.008c1.821-2.911,3.646-5.818,5.478-8.723
			c0.144-0.229,0.149-0.359-0.096-0.529c-1.18-0.823-2.367-1.632-3.587-2.395c-0.221-0.139-0.334-0.135-0.484,0.084
			c-0.401,0.585-0.83,1.151-1.24,1.73c-1.498,2.112-2.984,4.229-4.487,6.336c-2.73,3.83-5.47,7.651-8.202,11.479
			c-2.191,3.071-4.376,6.146-6.567,9.217c-0.182,0.254-0.291,0.528-0.342,0.834c-0.191,1.167-0.389,2.334-0.583,3.501
			C71.645,50.132,71.401,51.583,71.148,53.088z M53.109,56.845c0.012-0.001,0.112,0.014,0.137-0.021
			c0.052-0.075-0.021-0.153-0.063-0.221c-0.324-0.516-0.651-1.03-0.974-1.546c-1.121-1.793-2.242-3.586-3.359-5.382
			c-0.103-0.166-0.245-0.269-0.405-0.369c-1.809-1.125-3.616-2.254-5.421-3.386c-1.891-1.187-3.777-2.381-5.669-3.567
			c-2.408-1.51-4.819-3.016-7.229-4.522c-3.888-2.43-7.778-4.855-11.659-7.294c-0.284-0.178-0.414-0.144-0.603,0.124
			c-0.811,1.147-1.587,2.316-2.344,3.5c-0.177,0.277-0.12,0.384,0.122,0.555c2.182,1.543,4.353,3.101,6.529,4.651
			c2.99,2.131,5.982,4.259,8.973,6.388c2.33,1.658,4.661,3.313,6.988,4.974c2.066,1.474,4.132,2.949,6.19,4.433
			c0.286,0.206,0.591,0.312,0.929,0.368c1.168,0.191,2.334,0.39,3.501,0.585C50.187,56.354,51.62,56.595,53.109,56.845z
			 M74.928,56.836c0.024-0.005,0.09-0.023,0.157-0.034c0.9-0.151,1.801-0.302,2.701-0.453c1.667-0.278,3.335-0.556,5.002-0.831
			c0.323-0.053,0.613-0.161,0.88-0.358c0.762-0.562,1.531-1.116,2.304-1.665c2.633-1.874,5.271-3.74,7.901-5.615
			c2.879-2.052,5.75-4.116,8.629-6.167c3.277-2.336,6.559-4.667,9.847-6.992c0.237-0.168,0.302-0.272,0.125-0.552
			c-0.755-1.205-1.561-2.374-2.364-3.546c-0.184-0.269-0.335-0.254-0.574-0.091c-0.477,0.323-0.967,0.624-1.455,0.928
			c-4.215,2.64-8.427,5.28-12.646,7.915c-2.467,1.541-4.943,3.067-7.411,4.606c-2.713,1.69-5.424,3.383-8.129,5.086
			c-0.293,0.185-0.602,0.353-0.803,0.679c-1.209,1.956-2.438,3.9-3.66,5.85c-0.215,0.344-0.431,0.688-0.643,1.034
			C74.721,56.741,74.663,56.858,74.928,56.836z M56.848,53.143c-0.013-0.059-0.027-0.108-0.036-0.158
			c-0.449-2.684-0.898-5.368-1.343-8.053c-0.029-0.176-0.11-0.318-0.208-0.456c-0.727-1.019-1.456-2.037-2.182-3.056
			c-1.621-2.272-3.24-4.544-4.858-6.818c-1.452-2.04-2.899-4.083-4.352-6.122c-1.846-2.59-3.696-5.177-5.542-7.766
			c-1.208-1.693-2.417-3.386-3.613-5.087c-0.175-0.25-0.289-0.268-0.556-0.101c-1.175,0.739-2.332,1.503-3.456,2.316
			c-0.376,0.272-0.375,0.271-0.122,0.674c0.981,1.56,1.967,3.118,2.943,4.682c1.451,2.325,2.891,4.656,4.343,6.979
			c1.865,2.982,3.742,5.958,5.61,8.939c1.931,3.081,3.861,6.163,5.784,9.249c0.148,0.237,0.32,0.419,0.558,0.567
			c1.91,1.189,3.813,2.388,5.718,3.583c0.373,0.233,0.746,0.466,1.121,0.696C56.75,53.271,56.85,53.318,56.848,53.143z
			 M34.407,112.606c0.181,0.006,0.224-0.145,0.298-0.247c0.896-1.251,1.792-2.502,2.684-3.756c1.657-2.329,3.31-4.663,4.969-6.991
			c2.111-2.962,4.227-5.92,6.34-8.881c2.172-3.043,4.343-6.087,6.512-9.131c0.116-0.164,0.225-0.327,0.261-0.541
			c0.435-2.636,0.88-5.271,1.314-7.905c0.022-0.136,0.155-0.318,0.006-0.411c-0.104-0.064-0.237,0.095-0.349,0.165
			c-2.039,1.271-4.067,2.556-6.116,3.809c-0.608,0.373-1.09,0.822-1.431,1.456c-0.32,0.595-0.704,1.154-1.064,1.727
			c-1.276,2.035-2.557,4.065-3.829,6.102c-1.336,2.137-2.662,4.28-3.997,6.417c-1.201,1.922-2.408,3.84-3.612,5.761
			c-1.042,1.662-2.083,3.325-3.123,4.989c-0.924,1.476-1.843,2.956-2.774,4.428c-0.146,0.231-0.096,0.349,0.11,0.493
			c1.18,0.822,2.358,1.646,3.591,2.388C34.269,112.521,34.34,112.564,34.407,112.606z M74.907,71.15
			c-0.034,0.003-0.138-0.014-0.156,0.02c-0.058,0.104,0.038,0.185,0.088,0.265c1.343,2.151,2.699,4.296,4.024,6.46
			c0.305,0.5,0.722,0.831,1.198,1.128c2.598,1.618,5.195,3.237,7.793,4.858c2.395,1.497,4.789,2.995,7.185,4.494
			c2.294,1.437,4.586,2.875,6.881,4.312c2.551,1.599,5.105,3.194,7.652,4.798c0.243,0.153,0.375,0.107,0.533-0.119
			c0.801-1.152,1.592-2.312,2.34-3.503c0.2-0.319,0.131-0.433-0.139-0.621c-2.02-1.421-4.032-2.853-6.042-4.285
			c-3.553-2.536-7.101-5.076-10.654-7.61c-4.008-2.858-8.019-5.714-12.026-8.572c-0.194-0.139-0.397-0.232-0.642-0.273
			c-1.269-0.205-2.533-0.43-3.8-0.643C77.742,71.62,76.341,71.39,74.907,71.15z M18.147,97.604c0.127-0.009,0.213-0.098,0.312-0.159
			c3.083-1.926,6.166-3.853,9.247-5.781c3.755-2.351,7.509-4.705,11.265-7.057c2.794-1.749,5.571-3.528,8.398-5.224
			c0.964-0.577,1.667-1.303,2.235-2.257c1.133-1.903,2.341-3.762,3.516-5.639c0.062-0.099,0.192-0.217,0.138-0.31
			c-0.063-0.109-0.213-0.014-0.324,0.004c-0.884,0.147-1.768,0.295-2.651,0.444c-1.75,0.295-3.499,0.592-5.249,0.883
			c-0.206,0.034-0.391,0.095-0.56,0.216c-1.611,1.149-3.223,2.298-4.833,3.446c-2.326,1.661-4.65,3.325-6.978,4.983
			c-2.272,1.619-4.55,3.232-6.823,4.85c-2.122,1.51-4.242,3.023-6.362,4.536c-1.294,0.922-2.585,1.848-3.883,2.765
			c-0.173,0.123-0.27,0.21-0.127,0.44c0.776,1.25,1.61,2.462,2.453,3.668C17.979,97.495,18.033,97.586,18.147,97.604z
			 M46.054,45.202c-0.015-0.031-0.03-0.083-0.062-0.121c-0.247-0.304-0.412-0.658-0.618-0.986c-1.438-2.292-2.886-4.576-4.321-6.868
			c-1.686-2.694-3.358-5.396-5.043-8.091c-2.079-3.325-4.164-6.646-6.247-9.968c-0.266-0.424-0.268-0.429-0.664-0.123
			c-1.605,1.243-3.132,2.577-4.601,3.979c-0.375,0.359-0.379,0.363-0.005,0.738c2.678,2.68,5.358,5.359,8.037,8.039
			c4.006,4.008,8.013,8.015,12.019,12.024c0.454,0.454,0.9,0.916,1.352,1.372c0.035,0.035,0.078,0.069,0.123,0.083
			C46.059,45.292,46.076,45.255,46.054,45.202z M63.477,105.334c0-4.688,0-9.378,0-14.066c0-0.372,0.001-0.746-0.001-1.117
			c0-0.061-0.017-0.119-0.026-0.178c-0.029,0.058-0.063,0.114-0.086,0.175c-0.023,0.063-0.035,0.131-0.05,0.197
			c-0.701,3.046-1.398,6.092-2.103,9.139c-0.743,3.208-1.498,6.416-2.238,9.627c-0.83,3.606-1.648,7.216-2.474,10.823
			c-0.109,0.477-0.113,0.47,0.357,0.532c1.511,0.198,3.031,0.29,4.551,0.379c0.574,0.033,1.152,0.014,1.727,0.034
			c0.268,0.01,0.368-0.1,0.346-0.357c-0.012-0.135-0.001-0.271-0.001-0.406C63.477,115.188,63.477,110.262,63.477,105.334z
			 M63.479,22.677c0,0-0.001,0-0.001,0c0-4.993,0-9.986-0.001-14.979c0-0.622,0.076-0.6-0.611-0.592
			c-2.015,0.024-4.021,0.184-6.022,0.416c-0.433,0.05-0.446,0.083-0.35,0.499c0.479,2.074,0.958,4.148,1.435,6.223
			c0.578,2.519,1.149,5.04,1.729,7.559c0.74,3.209,1.487,6.418,2.229,9.627c0.486,2.107,0.968,4.215,1.452,6.323
			c0.015,0.066,0.037,0.13,0.059,0.194c0.016,0.046,0.035,0.091,0.053,0.136c0.009-0.042,0.023-0.083,0.025-0.125
			c0.004-0.102,0.004-0.203,0.004-0.304C63.479,32.662,63.479,27.67,63.479,22.677z M105.354,64.512c-4.976,0-9.952,0-14.927,0
			c-0.136,0-0.271-0.001-0.406,0.003c-0.045,0.001-0.09,0.015-0.135,0.023c0.044,0.02,0.087,0.043,0.132,0.057
			c0.08,0.024,0.162,0.048,0.244,0.066c3.096,0.713,6.191,1.42,9.285,2.134c3.225,0.746,6.448,1.503,9.674,2.246
			c3.573,0.822,7.148,1.634,10.722,2.451c0.452,0.104,0.475,0.1,0.53-0.368c0.236-2.033,0.386-4.074,0.417-6.123
			c0.007-0.485,0.001-0.485-0.507-0.489c-0.083-0.001-0.168,0-0.253,0C115.205,64.512,110.278,64.512,105.354,64.512z
			 M22.723,64.512c-5.012,0-10.024-0.001-15.036,0c-0.579,0-0.575,0.002-0.572,0.584c0.013,1.982,0.162,3.957,0.401,5.924
			c0.072,0.586,0.065,0.581,0.61,0.456c2.948-0.681,5.897-1.358,8.846-2.035c2.405-0.553,4.811-1.1,7.215-1.654
			c3.294-0.76,6.586-1.527,9.879-2.29c1.3-0.301,2.602-0.597,3.902-0.898c0.051-0.012,0.13,0.019,0.144-0.071
			c-0.05-0.005-0.101-0.013-0.15-0.014c-0.119-0.002-0.237-0.001-0.356-0.001C32.645,64.512,27.684,64.512,22.723,64.512z
			 M46.08,82.753c-0.059-0.106-0.108-0.024-0.143,0.008c-0.112,0.103-0.219,0.211-0.325,0.319c-1.465,1.478-2.924,2.96-4.394,4.432
			c-2.404,2.405-4.815,4.804-7.222,7.207c-2.071,2.067-4.14,4.139-6.209,6.209c-1.124,1.123-2.247,2.25-3.374,3.373
			c-0.17,0.168-0.301,0.3-0.056,0.531c1.561,1.479,3.167,2.903,4.874,4.214c0.23,0.178,0.332,0.102,0.464-0.112
			c0.588-0.946,1.196-1.882,1.786-2.828c1.692-2.711,3.377-5.426,5.069-8.138c1.405-2.252,2.815-4.5,4.224-6.75
			c1.041-1.662,2.083-3.324,3.126-4.984c0.684-1.088,1.373-2.172,2.058-3.259C46.002,82.903,46.039,82.827,46.08,82.753z
			 M73.376,39.843c0.06-0.085,0.093-0.121,0.113-0.163c0.073-0.152,0.148-0.304,0.213-0.46c1.407-3.406,2.814-6.812,4.223-10.217
			c1.079-2.609,2.16-5.217,3.243-7.825c0.784-1.89,1.572-3.777,2.356-5.666c0.536-1.295,1.063-2.595,1.607-3.889
			c0.118-0.284,0.111-0.438-0.222-0.571c-1.918-0.762-3.874-1.408-5.865-1.948c-0.477-0.128-0.5-0.106-0.584,0.386
			c-0.305,1.8-0.617,3.599-0.918,5.399c-0.688,4.1-1.368,8.201-2.051,12.301c-0.404,2.418-0.803,4.836-1.208,7.253
			c-0.289,1.718-0.587,3.433-0.88,5.149C73.395,39.658,73.39,39.724,73.376,39.843z M78.773,118.97
			c0.113-0.029,0.229-0.059,0.342-0.092c1.934-0.558,3.85-1.166,5.717-1.917c0.455-0.183,0.468-0.184,0.271-0.659
			c-0.587-1.421-1.187-2.837-1.774-4.257c-1.763-4.245-3.523-8.491-5.28-12.739c-1.228-2.967-2.446-5.937-3.671-8.906
			c-0.264-0.64-0.534-1.277-0.807-1.915c-0.044-0.1-0.062-0.22-0.174-0.28c-0.037,0.104,0.016,0.197,0.033,0.296
			c0.03,0.184,0.051,0.368,0.082,0.552c0.525,3.081,1.057,6.16,1.575,9.241c0.621,3.682,1.23,7.366,1.847,11.049
			c0.44,2.634,0.883,5.266,1.324,7.899c0.082,0.483,0.156,0.968,0.25,1.448C78.533,118.818,78.522,119.027,78.773,118.97z
			 M39.322,54.534c0.16-0.013,0.313,0.108,0.487,0.057c-0.123-0.125-0.292-0.164-0.441-0.241c-0.015-0.007-0.032-0.012-0.048-0.018
			c-3.436-1.421-6.872-2.84-10.307-4.262c-2.593-1.073-5.184-2.149-7.775-3.225c-1.888-0.784-3.775-1.572-5.664-2.355
			c-1.312-0.544-2.626-1.081-3.937-1.626c-0.265-0.111-0.442-0.149-0.581,0.201C10.293,45,9.646,46.974,9.08,48.975
			c-0.134,0.471-0.104,0.49,0.387,0.57c2.135,0.347,4.27,0.693,6.403,1.05c3.766,0.629,7.531,1.268,11.296,1.901
			c2.199,0.37,4.4,0.734,6.6,1.103C35.615,53.908,37.464,54.221,39.322,54.534z M11.36,85.226c0.122-0.045,0.265-0.095,0.405-0.153
			c1.904-0.793,3.806-1.591,5.711-2.38c4.498-1.863,8.999-3.721,13.498-5.58c2-0.827,4-1.652,5.999-2.481
			c0.905-0.375,1.809-0.757,2.71-1.142c0.056-0.024,0.15-0.023,0.165-0.117c-0.067,0.006-0.133,0.009-0.199,0.021
			c-1.716,0.291-3.431,0.588-5.147,0.876c-4.033,0.679-8.067,1.354-12.101,2.03c-2.634,0.442-5.267,0.885-7.901,1.325
			c-1.649,0.276-3.3,0.549-4.949,0.824c-0.579,0.097-0.575,0.097-0.429,0.654c0.158,0.604,0.358,1.197,0.528,1.798
			c0.386,1.369,0.896,2.692,1.417,4.014C11.119,85.045,11.121,85.23,11.36,85.226z M86.449,116.287
			c0.097-0.039,0.224-0.084,0.348-0.139c1.876-0.823,3.695-1.753,5.482-2.753c0.309-0.172,0.262-0.307,0.092-0.543
			c-1.127-1.564-2.242-3.137-3.361-4.707c-1.371-1.93-2.74-3.862-4.116-5.79c-1.63-2.285-3.267-4.566-4.898-6.85
			c-1.72-2.41-3.437-4.822-5.156-7.23c-0.116-0.163-0.197-0.355-0.359-0.486c-0.022,0.218,0.099,0.397,0.177,0.583
			c1.271,3.079,2.549,6.154,3.822,9.231c0.995,2.405,1.983,4.813,2.979,7.219c1.268,3.062,2.538,6.121,3.809,9.181
			c0.279,0.671,0.558,1.344,0.848,2.011C86.168,116.141,86.203,116.324,86.449,116.287z M88.341,54.599
			c0.513-0.092,1.043-0.191,1.577-0.281c2.632-0.443,5.266-0.884,7.9-1.326c3.165-0.532,6.332-1.066,9.499-1.596
			c2.567-0.43,5.136-0.854,7.702-1.283c1.167-0.194,2.334-0.389,3.5-0.591c0.473-0.081,0.5-0.134,0.378-0.605
			c-0.017-0.065-0.031-0.132-0.052-0.196c-0.559-1.843-1.127-3.683-1.846-5.473c-0.22-0.547-0.21-0.559-0.745-0.337
			c-1.875,0.775-3.746,1.558-5.619,2.335c-3.889,1.611-7.776,3.222-11.666,4.831c-3.421,1.414-6.843,2.824-10.263,4.237
			c-0.142,0.058-0.275,0.129-0.41,0.199c-0.032,0.017-0.094,0.025-0.072,0.083C88.229,54.607,88.288,54.599,88.341,54.599z
			 M105.341,63.469c0.677,0,1.354,0,2.031,0c4.316,0,8.634,0,12.951,0c0.568,0,0.579-0.003,0.563-0.585
			c-0.026-0.896-0.044-1.794-0.108-2.688c-0.079-1.113-0.194-2.225-0.308-3.335c-0.047-0.462-0.078-0.471-0.525-0.367
			c-2.008,0.466-4.017,0.935-6.024,1.398c-3.722,0.856-7.443,1.709-11.166,2.564c-4.134,0.949-8.269,1.898-12.402,2.851
			c-0.127,0.029-0.266,0.034-0.372,0.128c0.121,0.07,0.254,0.031,0.38,0.031C95.354,63.469,100.348,63.468,105.341,63.469z
			 M22.664,63.468c4.959,0,9.919,0,14.878,0c0.119,0,0.237,0.002,0.355-0.001c0.05-0.001,0.1-0.013,0.149-0.02
			c-0.021-0.059-0.076-0.056-0.123-0.067c-0.099-0.024-0.197-0.051-0.295-0.074c-3.44-0.793-6.881-1.586-10.322-2.38
			c-2.765-0.638-5.53-1.277-8.295-1.913c-3.689-0.848-7.381-1.685-11.067-2.549c-0.378-0.088-0.382,0.074-0.416,0.338
			c-0.188,1.496-0.295,2.997-0.378,4.5c-0.032,0.591-0.019,1.185-0.042,1.777c-0.011,0.274,0.071,0.418,0.369,0.392
			c0.151-0.014,0.304-0.001,0.457-0.001C12.845,63.469,17.754,63.469,22.664,63.468z M64.522,105.328
			c0,4.976-0.001,9.953,0.001,14.928c0,0.68-0.059,0.625,0.637,0.62c1.964-0.018,3.92-0.168,5.869-0.402
			c0.572-0.067,0.572-0.06,0.449-0.593c-0.655-2.83-1.324-5.658-1.964-8.492c-0.865-3.824-1.747-7.642-2.64-11.459
			c-0.745-3.191-1.463-6.39-2.194-9.585c-0.03-0.129-0.079-0.251-0.12-0.376c-0.075,0.12-0.035,0.254-0.035,0.381
			C64.522,95.342,64.522,100.334,64.522,105.328z M64.522,22.619c0,3.892,0,7.784,0,11.675c0,1.168,0,2.335,0.004,3.503
			c0.001,0.068-0.044,0.155,0.046,0.208c0.02-0.062,0.043-0.124,0.058-0.187c0.413-1.778,0.825-3.555,1.236-5.333
			c1.05-4.542,2.102-9.085,3.148-13.628c0.835-3.622,1.662-7.245,2.492-10.868c0.089-0.39,0.075-0.418-0.341-0.467
			c-2.018-0.236-4.041-0.393-6.073-0.417c-0.564-0.007-0.569,0-0.569,0.586C64.522,12.667,64.523,17.644,64.522,22.619z
			 M103.804,23.393c-0.023-0.106-0.104-0.169-0.179-0.239c-1.528-1.463-3.114-2.859-4.787-4.156
			c-0.262-0.203-0.395-0.197-0.574,0.102c-0.654,1.086-1.333,2.157-2.008,3.23c-1.859,2.966-3.726,5.928-5.582,8.896
			c-2.287,3.656-4.565,7.317-6.853,10.974c-0.572,0.917-1.16,1.826-1.739,2.74c-0.07,0.111-0.217,0.303-0.158,0.337
			c0.119,0.069,0.201-0.114,0.287-0.199c1.171-1.171,2.328-2.358,3.51-3.521c1.858-1.828,3.678-3.692,5.52-5.537
			c3.012-3.018,6.029-6.033,9.045-9.049c1.089-1.089,2.178-2.177,3.267-3.267C103.646,23.609,103.763,23.531,103.804,23.393z
			 M23.413,103.793c0.136-0.048,0.227-0.175,0.333-0.281c2.667-2.666,5.334-5.334,8.002-8.001c3.481-3.479,6.962-6.96,10.444-10.438
			c0.958-0.956,1.92-1.907,2.879-2.86c0.068-0.068,0.218-0.147,0.168-0.223c-0.07-0.106-0.177,0.018-0.254,0.066
			c-1.131,0.708-2.26,1.42-3.39,2.13c-2.562,1.608-5.125,3.217-7.688,4.824c-1.662,1.042-3.324,2.082-4.987,3.121
			c-1.907,1.191-3.816,2.379-5.723,3.571c-1.375,0.86-2.745,1.729-4.125,2.581c-0.246,0.153-0.293,0.281-0.103,0.509
			c0.303,0.364,0.588,0.742,0.885,1.11c1.031,1.277,2.128,2.496,3.263,3.681C23.195,103.666,23.263,103.771,23.413,103.793z
			 M60.252,63.956c-0.016,2.08,1.641,3.776,3.696,3.787c2.104,0.011,3.796-1.65,3.804-3.738c0.01-2.027-1.668-3.744-3.683-3.765
			C61.964,60.219,60.268,61.87,60.252,63.956z M63.478,77.053c0-0.727,0.014-1.454-0.006-2.181
			c-0.008-0.306,0.099-0.627-0.069-0.923c-0.247,0.209-0.382,0.507-0.594,0.743c-0.413,0.459-0.503,0.933-0.325,1.558
			c0.346,1.215,0.583,2.461,0.869,3.694c0.018,0.077,0.064,0.15,0.097,0.224c0.01-0.075,0.026-0.15,0.027-0.225
			C63.478,78.979,63.478,78.016,63.478,77.053z M63.477,50.918c0-0.929,0.002-1.859-0.002-2.788
			c-0.001-0.103,0.051-0.216-0.036-0.311c-0.035,0.094-0.081,0.184-0.104,0.28c-0.241,1.035-0.495,2.067-0.711,3.108
			c-0.098,0.472-0.387,0.965-0.238,1.414c0.146,0.445,0.535,0.81,0.82,1.208c0.056,0.078,0.097,0.218,0.204,0.19
			c0.121-0.031,0.065-0.172,0.065-0.263C63.479,52.812,63.478,51.865,63.477,50.918z M50.886,64.512c-0.979,0-1.959,0-2.938,0.001
			c-0.067,0-0.134,0.009-0.202,0.013c0.031,0.104,0.126,0.064,0.191,0.08c1.05,0.248,2.101,0.492,3.152,0.734
			c0.492,0.113,1.02,0.38,1.469,0.283c0.471-0.101,0.866-0.553,1.294-0.853c0.014-0.01,0.03-0.018,0.042-0.029
			c0.058-0.054,0.182-0.072,0.149-0.173c-0.031-0.1-0.144-0.054-0.219-0.055C52.844,64.511,51.865,64.512,50.886,64.512z
			 M77.088,64.512c0,0.001,0,0.002,0,0.002c-0.997,0-1.993,0-2.988,0.001c-0.062,0-0.152-0.029-0.178,0.039
			c-0.027,0.074,0.06,0.108,0.111,0.145c0.399,0.283,0.799,0.564,1.198,0.847c0.111,0.078,0.208,0.141,0.367,0.104
			c1.477-0.352,2.954-0.69,4.431-1.035c0.061-0.016,0.139,0,0.178-0.073c-0.061-0.009-0.121-0.026-0.182-0.026
			C79.047,64.512,78.066,64.512,77.088,64.512z M57.392,71.618c-0.005-0.022-0.006-0.131-0.038-0.142
			c-0.119-0.038-0.171,0.079-0.239,0.146c-1.352,1.346-2.702,2.693-4.051,4.041c-0.042,0.042-0.131,0.073-0.072,0.149
			c0.011,0.014,0.119-0.034,0.173-0.068c1.256-0.79,2.511-1.583,3.768-2.372c0.123-0.077,0.209-0.172,0.232-0.313
			C57.241,72.594,57.312,72.127,57.392,71.618z M68.354,55.064c0.042-0.022,0.072-0.036,0.102-0.054
			c0.429-0.269,0.854-0.541,1.286-0.807c0.141-0.087,0.209-0.207,0.235-0.367c0.233-1.414,0.472-2.826,0.707-4.239
			c0.01-0.064,0.008-0.189-0.004-0.19c-0.104-0.017-0.115,0.082-0.144,0.149c-0.583,1.4-1.163,2.802-1.745,4.203
			c-0.155,0.374-0.314,0.745-0.469,1.119C68.297,54.941,68.225,55.029,68.354,55.064z M52.922,66.82
			c-0.153,0.002-0.263,0.082-0.374,0.161c-1.197,0.848-2.394,1.697-3.59,2.547c-0.053,0.038-0.143,0.123-0.138,0.131
			c0.068,0.097,0.141,0.006,0.201-0.02c1.604-0.66,3.208-1.326,4.81-1.993c0.218-0.09,0.433-0.186,0.647-0.284
			c0.09-0.04,0.15-0.117,0.012-0.153C53.97,67.07,53.445,66.948,52.922,66.82z M57.32,49.702c0.237,1.393,0.476,2.79,0.708,4.189
			c0.025,0.152,0.104,0.238,0.225,0.312c0.417,0.257,0.831,0.52,1.247,0.776c0.053,0.033,0.139,0.083,0.173,0.062
			c0.083-0.048,0.001-0.114-0.022-0.17c-0.717-1.73-1.435-3.461-2.153-5.191c-0.031-0.076-0.051-0.204-0.133-0.191
			C57.268,49.503,57.337,49.623,57.32,49.702z M50.881,63.467c0.979,0,1.957,0.001,2.936-0.002c0.074,0,0.188,0.044,0.215-0.061
			c0.024-0.098-0.09-0.127-0.154-0.173c-0.357-0.255-0.721-0.5-1.072-0.76c-0.146-0.108-0.278-0.153-0.464-0.109
			c-1.427,0.333-2.857,0.656-4.286,0.984c-0.079,0.018-0.153,0.056-0.229,0.084c0.081,0.076,0.18,0.035,0.269,0.035
			C49.024,63.469,49.953,63.468,50.881,63.467z M77.12,63.468c0.962,0,1.925,0.001,2.888-0.001c0.06,0,0.12-0.02,0.179-0.031
			c-0.043-0.067-0.119-0.052-0.18-0.067c-1.067-0.248-2.163-0.411-3.196-0.761c-1.054-0.358-1.889-0.177-2.643,0.59
			c-0.068,0.069-0.227,0.101-0.195,0.201c0.044,0.141,0.203,0.066,0.308,0.066C75.227,63.471,76.174,63.469,77.12,63.468z
			 M49.541,70.683c0.062-0.007,0.097-0.007,0.13-0.014c1.396-0.233,2.792-0.471,4.19-0.7c0.145-0.023,0.25-0.079,0.327-0.203
			c0.257-0.416,0.518-0.831,0.776-1.245c0.033-0.056,0.097-0.123,0.053-0.18c-0.075-0.094-0.152,0.007-0.221,0.034
			c-0.578,0.234-1.154,0.474-1.731,0.711c-1.153,0.477-2.306,0.953-3.458,1.432c-0.072,0.03-0.161,0.047-0.185,0.144
			C49.471,70.669,49.52,70.678,49.541,70.683z M78.463,57.292c-1.068,0.182-2.127,0.449-3.199,0.52
			c-1.096,0.072-1.772,0.569-2.168,1.544c-0.005,0.015-0.019,0.028-0.025,0.043c-0.035,0.09-0.172,0.175-0.112,0.257
			c0.077,0.106,0.18-0.019,0.265-0.053c0.846-0.341,1.69-0.683,2.532-1.031c0.904-0.374,1.806-0.754,2.708-1.134
			c0.056-0.024,0.127-0.042,0.145-0.118C78.56,57.311,78.511,57.301,78.463,57.292z M49.567,57.303
			c-0.017,0.001-0.139,0.002-0.141,0.014c-0.009,0.104,0.089,0.115,0.158,0.144c1.747,0.725,3.493,1.447,5.24,2.17
			c0.058,0.023,0.119,0.091,0.179,0.022c0.055-0.063-0.006-0.125-0.038-0.177c-0.257-0.417-0.519-0.831-0.775-1.249
			c-0.077-0.125-0.186-0.185-0.328-0.209C52.447,57.784,51.032,57.547,49.567,57.303z M64.523,50.894c0,0.983,0,1.964,0.001,2.946
			c0,0.063-0.021,0.147,0.047,0.179c0.081,0.038,0.115-0.045,0.151-0.097c0.273-0.387,0.539-0.78,0.819-1.161
			c0.116-0.156,0.11-0.314,0.072-0.481c-0.329-1.433-0.66-2.866-0.991-4.298c-0.016-0.062,0.007-0.141-0.072-0.178
			c-0.009,0.065-0.026,0.13-0.026,0.196C64.522,48.964,64.522,49.93,64.523,50.894z M64.523,77.073c0,0.964-0.001,1.928,0,2.892
			c0,0.067,0.014,0.134,0.021,0.2c0.101-0.035,0.068-0.133,0.084-0.201c0.241-1.036,0.401-2.099,0.739-3.102
			c0.358-1.062,0.214-1.93-0.579-2.703c-0.012-0.012-0.018-0.029-0.029-0.042c-0.054-0.058-0.076-0.179-0.175-0.152
			c-0.104,0.026-0.06,0.141-0.06,0.216C64.521,75.145,64.522,76.108,64.523,77.073z M71.51,62.068
			c0.059,0.274,0.094,0.598,0.202,0.896c0.124,0.346,0.417,0.41,0.726,0.193c0.441-0.31,0.878-0.627,1.313-0.946
			c0.075-0.056,0.204-0.101,0.175-0.212c-0.011-0.047-0.142-0.074-0.222-0.092c-0.525-0.123-1.05-0.245-1.577-0.36
			C71.768,61.469,71.521,61.667,71.51,62.068z M56.481,65.912c-0.063-0.282-0.11-0.583-0.201-0.869
			c-0.092-0.289-0.409-0.428-0.624-0.28c-0.498,0.344-0.98,0.708-1.473,1.058c-0.184,0.13-0.136,0.2,0.047,0.244
			c0.539,0.129,1.078,0.255,1.618,0.375C56.232,66.524,56.49,66.311,56.481,65.912z M58.423,55.556
			c-0.144,0.048-0.095,0.165-0.081,0.249c0.096,0.58,0.194,1.159,0.305,1.735c0.055,0.282,0.403,0.421,0.67,0.263
			c0.246-0.144,0.484-0.304,0.707-0.48C60.32,57.09,60.31,56.75,60,56.541c-0.473-0.32-0.958-0.62-1.439-0.927
			C58.52,55.587,58.47,55.575,58.423,55.556z M55.752,69.646c0.563-0.096,1.125-0.19,1.688-0.287c0.385-0.064,0.544-0.399,0.34-0.73
			c-0.132-0.213-0.273-0.423-0.423-0.625c-0.242-0.324-0.595-0.336-0.817-0.01c-0.322,0.471-0.62,0.958-0.925,1.44
			C55.514,69.595,55.542,69.687,55.752,69.646z M71.106,67.76c-0.126,0.011-0.268,0.012-0.338,0.104
			c-0.222,0.293-0.468,0.582-0.616,0.912c-0.084,0.189-0.06,0.5,0.258,0.562c0.594,0.118,1.191,0.216,1.789,0.312
			c0.159,0.026,0.295-0.015,0.171-0.215c-0.319-0.515-0.648-1.024-0.974-1.536C71.327,67.792,71.232,67.736,71.106,67.76z
			 M58.34,72.263c0-0.004-0.043,0.103,0.031,0.151c0.069,0.043,0.156-0.018,0.228-0.063c0.466-0.299,0.94-0.589,1.4-0.897
			c0.302-0.204,0.315-0.56,0.03-0.786c-0.223-0.176-0.463-0.334-0.709-0.479c-0.268-0.158-0.619-0.024-0.671,0.254
			C58.543,71.02,58.452,71.6,58.34,72.263z M67.78,71.043c-0.066,0.225,0.089,0.336,0.247,0.438
			c0.469,0.299,0.937,0.596,1.406,0.891c0.056,0.033,0.137,0.077,0.184,0.058c0.098-0.038,0.054-0.14,0.041-0.216
			c-0.098-0.563-0.192-1.128-0.296-1.688c-0.065-0.35-0.415-0.508-0.717-0.324c-0.229,0.14-0.444,0.303-0.669,0.45
			C67.834,70.744,67.782,70.877,67.78,71.043z M56.482,62.076c0.005-0.388-0.247-0.61-0.594-0.533
			c-0.543,0.12-1.084,0.248-1.624,0.379c-0.073,0.018-0.19,0.009-0.205,0.101c-0.016,0.094,0.097,0.127,0.162,0.175
			c0.45,0.327,0.9,0.654,1.355,0.975c0.268,0.188,0.577,0.119,0.688-0.187C56.373,62.688,56.416,62.365,56.482,62.076z
			 M66.47,72.062c0.033-0.329-0.213-0.575-0.512-0.545c-0.316,0.032-0.635,0.102-0.934,0.204s-0.401,0.401-0.241,0.636
			c0.344,0.498,0.705,0.986,1.059,1.478c0.104,0.144,0.165,0.147,0.21-0.044C66.192,73.185,66.344,72.581,66.47,72.062z
			 M65.913,56.48c0.408-0.012,0.609-0.257,0.53-0.617c-0.118-0.543-0.253-1.082-0.383-1.623c-0.016-0.065-0.028-0.171-0.065-0.183
			c-0.096-0.029-0.134,0.075-0.181,0.14c-0.326,0.45-0.658,0.898-0.98,1.352c-0.214,0.301-0.15,0.594,0.19,0.72
			C65.321,56.379,65.645,56.419,65.913,56.48z M62.085,71.51c-0.415,0.006-0.62,0.253-0.54,0.612
			c0.12,0.543,0.246,1.084,0.373,1.626c0.038,0.159,0.104,0.263,0.247,0.066c0.345-0.48,0.7-0.953,1.035-1.438
			c0.167-0.24,0.068-0.549-0.223-0.651C62.677,71.618,62.356,71.573,62.085,71.51z M62.108,56.473
			c0.251-0.056,0.556-0.096,0.841-0.194c0.32-0.109,0.418-0.419,0.234-0.684c-0.327-0.471-0.67-0.931-1.009-1.394
			c-0.038-0.053-0.092-0.137-0.134-0.135c-0.096,0.006-0.104,0.116-0.122,0.19c-0.125,0.524-0.249,1.05-0.365,1.576
			C61.464,56.241,61.656,56.479,62.108,56.473z M56.846,60.229c0.184-0.027,0.35-0.021,0.449-0.159
			c0.186-0.26,0.379-0.517,0.533-0.795c0.138-0.252-0.053-0.59-0.341-0.644c-0.579-0.107-1.159-0.206-1.74-0.303
			c-0.062-0.01-0.128,0.015-0.193,0.024c0.018,0.064,0.022,0.137,0.056,0.19c0.314,0.498,0.635,0.992,0.951,1.489
			C56.637,60.152,56.718,60.255,56.846,60.229z M71.075,60.213c0.185,0.075,0.283-0.067,0.377-0.216
			c0.308-0.482,0.616-0.964,0.921-1.449c0.034-0.055,0.083-0.143,0.062-0.181c-0.046-0.084-0.145-0.046-0.224-0.032
			c-0.564,0.098-1.129,0.191-1.692,0.297c-0.355,0.066-0.504,0.408-0.313,0.72c0.132,0.215,0.286,0.416,0.42,0.628
			C70.726,60.138,70.865,60.21,71.075,60.213z M71.911,66.503c0.645-0.155,1.264-0.305,1.885-0.452
			c0.186-0.045,0.173-0.115,0.036-0.215c-0.492-0.352-0.982-0.705-1.475-1.057c-0.267-0.188-0.482-0.032-0.591,0.171
			c-0.176,0.324-0.253,0.701-0.249,1.066C71.519,66.229,71.65,66.46,71.911,66.503z M67.778,56.915
			c0.006,0.148,0.021,0.298,0.165,0.397c0.251,0.169,0.49,0.359,0.755,0.505c0.284,0.158,0.606-0.024,0.665-0.366
			c0.098-0.564,0.154-1.134,0.297-1.691c0.016-0.06,0.02-0.148-0.016-0.19c-0.046-0.061-0.121-0.008-0.174,0.025
			c-0.498,0.316-0.993,0.634-1.49,0.952C67.849,56.63,67.729,56.724,67.778,56.915z M57.243,49.162l0.023,0.003l-0.008-0.036
			L57.243,49.162z"/>
		<path fill-rule="evenodd" clip-rule="evenodd" d="M64.005,60.702c1.827,0.005,3.28,1.464,3.279,3.292
			c-0.001,1.839-1.502,3.332-3.326,3.307c-1.798-0.023-3.3-1.551-3.277-3.331C60.705,62.16,62.192,60.697,64.005,60.702z"/>
	</g>
</g>
</svg>
