<?xml version="1.0" encoding="utf-8"?>
<!-- Generator: Adobe Illustrator 16.0.4, SVG Export Plug-In . SVG Version: 6.00 Build 0)  -->
<!DOCTYPE svg PUBLIC "-//W3C//DTD SVG 1.1//EN" "http://www.w3.org/Graphics/SVG/1.1/DTD/svg11.dtd">
<svg version="1.1" id="Layer_4015" xmlns="http://www.w3.org/2000/svg" xmlns:xlink="http://www.w3.org/1999/xlink" x="0px" y="0px"
	 width="128px" height="128px" viewBox="0 0 128 128" enable-background="new 0 0 128 128" xml:space="preserve">
<g id="fJN4l5_1_">
	<g>
		<path fill-rule="evenodd" clip-rule="evenodd" d="M86.897,128.082c-2.402,0.08-4.715-0.151-7.03-0.37
			c-2.95-0.278-5.887-0.652-8.813-1.105c-3.059-0.473-6.108-1-9.091-1.849c-0.618-0.174-1.228-0.373-1.815-0.637
			c-0.62-0.282-1.187-0.66-1.561-1.214c-0.63-0.939-1.507-1.373-2.586-1.545c-1.379-0.22-2.758-0.422-4.159-0.318
			c-0.924,0.066-1.839,0.247-2.769,0.303c-0.553,0.033-1.107,0.08-1.659,0.074c-2.173-0.027-4.338,0.202-6.513,0.163
			c-1.843-0.034-3.662-0.258-5.483-0.5c-1.228-0.162-2.461-0.283-3.686-0.449c-1.577-0.212-3.16-0.367-4.731-0.632
			c-1.475-0.246-2.361-1.073-2.904-2.415c-0.622-1.54-1.112-3.125-1.589-4.713c-0.369-1.228-0.711-2.464-0.947-3.727
			c-0.281-1.519-0.534-3.045-0.784-4.57c-0.267-1.614-0.5-3.234-0.619-4.864c-0.099-1.349-0.097-2.7,0.035-4.054
			c0.097-0.989,0.179-1.98,0.292-2.97c0.159-1.362,0.377-2.715,0.591-4.067c0.316-2.01,0.651-4.013,0.928-6.027
			c0.295-2.133,0.45-4.274,0.47-6.418c0.013-1.412-0.146-2.826-0.328-4.232c-0.239-1.888-0.514-3.767-0.831-5.64
			c-0.435-2.572-0.905-5.135-1.422-7.69c-0.862-4.244-1.727-8.488-2.592-12.732c-0.544-2.664-1.108-5.324-1.638-7.99
			c-0.376-1.884-0.685-3.782-0.893-5.696c-0.184-1.691-0.436-3.375-0.619-5.068c-0.172-1.604-0.333-3.212-0.427-4.826
			c-0.106-1.831-0.572-3.568-1.128-5.3c-0.588-1.831-1.098-3.687-1.467-5.578c-0.043-0.221-0.085-0.437-0.072-0.659
			c0.023-0.359-0.023-0.666-0.247-0.992c-0.287-0.418-0.282-0.969-0.391-1.463C9.934,6.134,9.476,3.949,9.005,1.77
			c-0.204-0.942,0.123-1.473,1.05-1.625c1.024-0.167,2.043-0.375,3.094-0.153c0.849,0.177,1.439,0.561,1.711,1.45
			c0.666,2.179,1.246,4.381,1.852,6.579c0.013,0.042,0.013,0.088,0.023,0.13c0.176,0.681,0.19,0.694,0.898,0.582
			c0.968-0.154,1.945-0.118,2.917-0.159c1.948-0.083,3.894-0.204,5.847-0.2c8.958,0.016,17.921,0.028,26.88-0.012
			c1.589-0.007,3.189-0.04,4.778-0.207c0.749-0.08,1.504-0.088,2.254-0.126c2.742-0.145,5.48-0.404,8.233-0.32
			c0.489,0.014,0.973,0.047,1.451,0.145c0.711,0.145,1.2,0.54,1.423,1.243c0.24,0.763,0.374,1.546,0.394,2.347
			c0.041,1.772-0.045,3.539-0.239,5.306c-0.15,1.406-0.196,2.823-0.294,4.235c-0.122,1.724-0.261,3.442-0.371,5.165
			c-0.049,0.773-0.085,1.547-0.142,2.322c-0.134,1.875-0.188,3.758-0.31,5.637c-0.154,2.364-0.278,4.728-0.401,7.093
			c-0.092,1.815-0.175,3.629-0.268,5.442c-0.126,2.458-0.205,4.914-0.275,7.372c-0.038,1.264-0.091,2.526-0.091,3.79
			c0.003,2.819,0.319,5.609,0.841,8.375c0.732,3.881,1.865,7.646,3.427,11.28c1.336,3.108,2.959,6.053,5.075,8.702
			c0.663,0.832,1.379,1.62,2.098,2.403c1.455,1.584,2.821,3.242,4.228,4.869c1.675,1.938,3.452,3.752,5.674,5.073
			c1.569,0.933,3.234,1.649,4.962,2.228c3.213,1.073,6.519,1.792,9.82,2.536c2.35,0.529,4.729,0.931,7.016,1.723
			c1.436,0.498,2.694,1.243,3.583,2.513c0.22,0.312,0.551,0.516,0.766,0.825c0.356,0.512,0.662,1.044,0.876,1.635
			c0.387,1.06,0.79,2.114,1.025,3.221c0.249,1.182,0.3,2.375,0.19,3.569c-0.073,0.811-0.124,1.624-0.315,2.429
			c-0.701,2.97-2.532,4.905-5.341,5.966c-1.538,0.584-3.159,0.834-4.778,1.073c-1.838,0.271-3.675,0.532-5.516,0.756
			c-1.493,0.182-2.992,0.305-4.488,0.447c-1.3,0.122-2.601,0.229-3.899,0.354c-0.749,0.072-1.505,0.094-2.253,0.129
			C90.548,128,88.691,128.164,86.897,128.082z M96.409,124.306c1.3-0.053,2.521-0.066,3.734-0.167
			c0.616-0.051,1.24-0.063,1.853-0.141c1.316-0.165,2.627-0.363,3.924-0.638c2.817-0.594,5.501-1.514,7.918-3.122
			c1.477-0.985,2.715-2.202,3.652-3.716c0.285-0.46,0.433-0.947,0.439-1.505c0.014-1.19-0.261-2.328-0.574-3.456
			c-0.231-0.854-0.533-1.69-1.037-2.436c-0.411-0.613-0.587-0.683-1.254-0.396c-1.018,0.436-2.025,0.893-3.03,1.354
			c-3.846,1.763-7.706,3.483-11.682,4.933c-3.251,1.185-6.578,1.883-10.055,1.892c-1.995,0.003-3.983-0.137-5.979-0.149
			c-0.089-0.002-0.176-0.015-0.266-0.022c-1.631-0.143-3.268-0.177-4.897-0.347c-1.255-0.13-2.516-0.196-3.77-0.312
			c-1.146-0.104-2.287-0.241-3.43-0.355c-1.474-0.149-2.954-0.265-4.423-0.444c-1.671-0.203-3.344-0.339-5.019-0.479
			c-1.346-0.112-2.68-0.299-4.016-0.473c-1.731-0.226-3.457-0.487-5.185-0.737c-1.661-0.242-3.323-0.48-4.983-0.731
			c-1.879-0.282-3.757-0.575-5.634-0.865c-1.596-0.246-3.189-0.488-4.781-0.737c-1.812-0.284-3.622-0.573-5.433-0.857
			c-1.876-0.295-3.754-0.587-5.632-0.883c-1.374-0.215-2.751-0.425-4.124-0.654c-0.297-0.051-0.297,0.088-0.249,0.292
			c0.17,0.687,0.327,1.377,0.516,2.056c0.36,1.277,0.691,2.563,1.273,3.767c0.244,0.502,0.6,0.859,1.106,1.098
			c0.546,0.258,1.125,0.394,1.711,0.499c1.134,0.202,2.271,0.354,3.418,0.449c1.169,0.095,2.332,0.243,3.498,0.348
			c1.3,0.117,2.602,0.204,3.904,0.312c1.411,0.114,2.819,0.271,4.232,0.348c1.768,0.1,3.539,0.174,5.309,0.26
			c2.433,0.114,4.848,0.388,7.264,0.672c2.395,0.281,4.766,0.698,7.136,1.12c4.329,0.77,8.65,1.581,12.994,2.255
			c2.357,0.366,4.717,0.725,7.086,1.006c2.326,0.278,4.66,0.514,6.998,0.667C91.443,124.167,93.97,124.213,96.409,124.306z
			 M40.754,9.256c-4.245,0.073-9.52-0.11-14.794,0.08c-1.109,0.04-2.218,0.008-3.325,0.063C20.38,9.511,18.126,9.635,15.874,9.8
			c-0.922,0.068-1.848,0.161-2.765,0.318c-1.216,0.21-1.245,0.214-1.001,1.486c0.459,2.39,1.223,4.706,1.942,7.028
			c0.066,0.218,0.139,0.316,0.407,0.308c4.675-0.133,9.354,0.062,14.029-0.125c1.372-0.056,2.749-0.016,4.124-0.032
			c5.32-0.068,10.638,0.072,15.958-0.104c1.351-0.044,2.703-0.025,4.057-0.027c4.923-0.01,9.846-0.01,14.77-0.031
			c0.906-0.002,1.811-0.116,2.721-0.082c0.312,0.011,0.417-0.139,0.432-0.443c0.034-0.729,0.08-1.459,0.157-2.184
			c0.188-1.723,0.17-3.451,0.101-5.178c-0.016-0.445-0.116-0.874-0.257-1.295c-0.148-0.454-0.472-0.686-0.936-0.715
			c-0.928-0.057-1.853-0.183-2.786-0.132c-1.681,0.091-3.363,0.147-5.04,0.282c-0.774,0.063-1.549,0.071-2.319,0.133
			c-1.745,0.145-3.489,0.254-5.241,0.252C50.079,9.252,45.934,9.256,40.754,9.256z M86.899,127.085
			c2.106,0.094,4.208-0.062,6.311-0.151c0.681-0.029,1.368-0.082,2.052-0.141c1.301-0.111,2.597-0.239,3.896-0.364
			c1.455-0.143,2.909-0.261,4.355-0.44c1.842-0.228,3.678-0.495,5.513-0.771c1.355-0.205,2.709-0.438,3.996-0.927
			c2.363-0.899,3.975-2.514,4.689-4.975c0.142-0.49,0.209-0.993,0.266-1.5c0.008-0.085,0.033-0.243,0.021-0.245
			c-0.141-0.032-0.156,0.108-0.215,0.187c-1.322,1.807-3.036,3.151-4.998,4.192c-2.152,1.138-4.447,1.84-6.822,2.337
			c-2.67,0.559-5.37,0.843-8.094,0.878c-3.611,0.046-7.218-0.049-10.818-0.385c-2.091-0.193-4.177-0.412-6.263-0.653
			c-2.614-0.304-5.211-0.716-7.806-1.134c-3.532-0.567-7.052-1.222-10.573-1.859c-3.175-0.573-6.352-1.116-9.566-1.453
			c-2.375-0.25-4.755-0.437-7.142-0.545c-1.899-0.084-3.803-0.131-5.697-0.342c-1.384-0.154-2.78-0.191-4.169-0.316
			c-2.134-0.193-4.269-0.407-6.401-0.633c-1.451-0.152-2.898-0.341-4.279-0.851c-0.077-0.029-0.177-0.117-0.229-0.004
			c-0.029,0.061,0.02,0.165,0.046,0.247c0.353,1.026,1.027,1.696,2.13,1.851c1.38,0.193,2.76,0.369,4.139,0.548
			c1.272,0.165,2.542,0.328,3.814,0.483c0.941,0.113,1.892,0.188,2.833,0.327c0.855,0.129,1.725,0.077,2.58,0.193
			c0.621,0.087,1.242,0.091,1.857,0.041c1.568-0.123,3.139-0.178,4.71-0.221c1.348-0.037,2.697-0.029,4.035-0.271
			c0.761-0.139,1.537-0.219,2.314-0.123c0.943,0.114,1.889,0.225,2.821,0.398c1.007,0.186,2.009,0.432,2.655,1.342
			c0.788,1.109,1.899,1.694,3.181,2.022c0.407,0.104,0.807,0.229,1.215,0.333c2.143,0.545,4.315,0.953,6.496,1.301
			c1.657,0.264,3.318,0.518,4.985,0.719c1.185,0.144,2.372,0.27,3.554,0.424c1.604,0.206,3.212,0.341,4.819,0.463
			C84.365,127.16,85.639,127.085,86.899,127.085z M14.505,8.653c0,0,0,0.01,0,0.016c0.31,0,0.62,0.011,0.931-0.002
			c0.419-0.018,0.481-0.083,0.371-0.486c-0.604-2.171-1.16-4.358-1.848-6.506c-0.15-0.472-0.463-0.706-0.901-0.764
			c-0.95-0.125-1.9-0.031-2.841,0.138c-0.075,0.015-0.185,0.042-0.185,0.147c0,0.098,0.105,0.133,0.179,0.179
			c0.375,0.23,0.801,0.325,1.213,0.253c0.915-0.161,0.903,0.074,1.124,0.887c0.023,0.087,0.031,0.175,0.045,0.262
			c0.313,1.768,0.425,3.556,0.535,5.344c0.031,0.515,0.021,0.52,0.513,0.53C13.929,8.657,14.218,8.653,14.505,8.653z M12.25,8.726
			c-0.006-0.082-0.008-0.127-0.012-0.172c-0.175-1.581-0.348-3.162-0.53-4.743c-0.042-0.37,0.006-0.867-0.209-1.072
			c-0.24-0.232-0.733-0.202-1.117-0.286c-0.022-0.003-0.043-0.007-0.065-0.013c-0.172-0.05-0.236-0.019-0.19,0.185
			c0.47,2.137,0.938,4.273,1.394,6.412c0.064,0.3,0.198,0.293,0.42,0.182C12.162,9.106,12.279,8.942,12.25,8.726z M66.177,19.503
			c-0.573,0-1.145,0-1.718,0.001c-0.064,0-0.129,0.011-0.195,0.018c0.068,0.013,0.135,0.033,0.205,0.033
			c1.101,0.003,2.201,0.003,3.301,0.002c0.066,0,0.133-0.01,0.196-0.017c-0.069-0.013-0.138-0.034-0.204-0.034
			C67.232,19.503,66.706,19.503,66.177,19.503z M45.89,19.692c0.551,0,1.102,0.002,1.652-0.002c0.072,0,0.145-0.022,0.216-0.033
			c-0.064-0.005-0.131-0.019-0.194-0.019c-1.101-0.001-2.204-0.001-3.303,0c-0.072,0-0.145,0.023-0.217,0.035
			c0.087,0.006,0.175,0.018,0.263,0.018C44.834,19.694,45.36,19.692,45.89,19.692z M25.867,19.77c-0.571,0-1.144-0.002-1.717,0.002
			c-0.067,0.001-0.134,0.022-0.203,0.034c0.065,0.007,0.129,0.019,0.196,0.02c1.1,0,2.2,0,3.301-0.002
			c0.068,0,0.137-0.023,0.204-0.036c-0.065-0.005-0.129-0.016-0.195-0.016C26.925,19.768,26.397,19.77,25.867,19.77z"/>
	</g>
</g>
</svg>
