<?xml version="1.0" encoding="utf-8"?>
<!-- Generator: Adobe Illustrator 16.0.4, SVG Export Plug-In . SVG Version: 6.00 Build 0)  -->
<!DOCTYPE svg PUBLIC "-//W3C//DTD SVG 1.1//EN" "http://www.w3.org/Graphics/SVG/1.1/DTD/svg11.dtd">
<svg version="1.1" id="Layer_4016" xmlns="http://www.w3.org/2000/svg" xmlns:xlink="http://www.w3.org/1999/xlink" x="0px" y="0px"
	 width="128px" height="128px" viewBox="0 0 128 128" enable-background="new 0 0 128 128" xml:space="preserve">
<path fill-rule="evenodd" clip-rule="evenodd" d="M63.972,97.917c-15.533,0.003-31.066,0.005-46.601-0.004
	c-0.892,0-1.793-0.021-2.676-0.136c-2.583-0.339-3.495-1.2-3.925-3.902c-0.553-3.469-1.18-6.919-1.911-10.355
	c-0.15-0.705-0.266-1.309-1.022-1.694c-0.617-0.315-0.87-1.105-0.544-1.677c1.082-1.895,0.348-3.781-0.034-5.583
	c-1.248-5.87-2.192-11.792-3.334-17.678c-1.275-6.576-2.509-13.16-3.795-19.734c-0.529-2.7,0.907-4.691,3.682-4.84
	c1.722-0.092,3.452-0.041,5.178-0.03c0.796,0.005,1.505,0.033,1.701-1.042c0.138-0.757,0.743-1.182,1.552-1.152
	c0.824,0.031,1.295,0.535,1.439,1.299c0.214,1.137,1.074,0.867,1.8,0.881c0.757,0.015,1.576,0.161,1.748-0.964
	c0.121-0.786,0.598-1.263,1.451-1.221c0.793,0.04,1.384,0.44,1.508,1.222c0.181,1.139,0.994,0.975,1.74,0.964
	c0.662-0.01,1.398,0.211,1.582-0.873c0.136-0.802,0.75-1.336,1.657-1.3c0.826,0.033,1.314,0.57,1.434,1.305
	c0.225,1.367,1.248,0.767,1.96,0.856c0.691,0.086,1.399,0.134,1.509-0.926c0.079-0.763,0.578-1.256,1.438-1.248
	c0.82,0.008,1.449,0.426,1.519,1.181c0.112,1.199,0.904,1.008,1.642,1.014c0.814,0.008,1.698,0.186,1.852-1.064
	c0.088-0.711,0.639-1.1,1.359-1.121c0.803-0.023,1.438,0.411,1.562,1.157c0.234,1.409,1.256,0.937,2.068,1.025
	c0.818,0.091,1.334-0.143,1.453-1.069c0.108-0.845,0.748-1.138,1.536-1.108c0.721,0.026,1.263,0.366,1.32,1.122
	c0.085,1.135,0.865,1.161,1.643,1.04c0.758-0.119,1.849,0.593,2.156-0.858c0.167-0.788,0.707-1.366,1.645-1.31
	c0.82,0.05,1.345,0.536,1.446,1.29c0.146,1.081,0.9,0.911,1.573,0.887c0.646-0.022,1.472,0.301,1.7-0.745
	c0.18-0.824,0.643-1.386,1.549-1.438c0.955-0.054,1.442,0.58,1.6,1.356c0.217,1.068,0.972,0.802,1.629,0.827
	c0.64,0.024,1.279,0.103,1.422-0.84c0.13-0.858,0.727-1.332,1.616-1.331c0.841,0,1.35,0.57,1.466,1.277
	c0.176,1.058,0.892,0.901,1.571,0.903c0.744,0.002,1.561,0.179,1.754-0.95c0.133-0.774,0.697-1.203,1.496-1.242
	c0.845-0.042,1.345,0.464,1.51,1.203c0.295,1.317,1.298,0.951,2.133,0.985c0.757,0.031,1.535,0.154,1.715-0.979
	c0.123-0.76,0.711-1.209,1.521-1.199c0.812,0.011,1.342,0.46,1.457,1.253c0.192,1.324,1.203,0.859,1.942,0.917
	c0.686,0.054,1.413,0.144,1.489-0.947c0.057-0.805,0.678-1.199,1.473-1.226c0.827-0.027,1.373,0.43,1.504,1.198
	c0.291,1.717,1.6,0.783,2.444,0.955c0.657,0.134,1.419,0.163,1.467-0.937c0.03-0.694,0.495-1.175,1.251-1.218
	c0.879-0.05,1.555,0.346,1.695,1.212c0.161,0.984,0.771,1.032,1.515,0.974c0.706-0.055,1.562,0.288,1.819-0.854
	c0.181-0.802,0.691-1.382,1.627-1.327c0.813,0.047,1.34,0.528,1.438,1.295c0.118,0.933,0.719,0.93,1.381,0.881
	c0.65-0.048,1.462,0.279,1.719-0.741c0.196-0.779,0.524-1.477,1.505-1.453c1.004,0.024,1.459,0.662,1.677,1.548
	c0.23,0.932,0.998,0.629,1.576,0.627c0.571-0.002,1.32,0.318,1.551-0.646c0.207-0.867,0.656-1.562,1.688-1.505
	c0.897,0.049,1.274,0.646,1.536,1.456c0.398,1.226,1.488,0.586,2.282,0.702c0.646,0.094,1.287,0.068,1.388-0.866
	c0.097-0.909,0.688-1.309,1.588-1.31c0.881-0.002,1.283,0.556,1.4,1.299c0.14,0.888,0.718,0.903,1.396,0.899
	c1.726-0.013,3.453-0.043,5.179,0.011c3.021,0.093,4.472,1.997,3.912,4.96c-1.253,6.646-2.406,13.312-3.721,19.947
	c-1.326,6.694-2.303,13.454-3.852,20.106c-0.187,0.804-0.23,1.56,0.388,2.332c0.569,0.712,0.5,1.733-0.378,2.157
	c-0.893,0.43-0.953,1.186-1.093,1.873c-0.713,3.502-1.384,7.014-2,10.533c-0.39,2.239-1.164,3.124-3.368,3.532
	c-1.076,0.2-2.164,0.185-3.252,0.185C95.048,97.917,79.51,97.917,63.972,97.917z M64.164,94.629c0,0.01,0,0.021,0,0.03
	c16.115,0,32.232-0.006,48.348,0.016c0.855,0.002,1.46-0.044,1.639-1.077c0.6-3.458,1.254-6.905,1.897-10.355
	c0.116-0.625,0.165-1.158-0.712-1.214c-0.832-0.051-1.362,0.135-1.311,1.133c0.047,0.956,0.038,1.918-0.013,2.876
	c-0.053,1.014-0.543,1.732-1.641,1.744c-1.125,0.015-1.563-0.732-1.607-1.744c-0.044-0.958-0.046-1.918-0.036-2.876
	c0.016-1.328-0.948-1.093-1.752-1.129c-0.828-0.033-1.546,0.015-1.5,1.169c0.041,1.082,0.031,2.175-0.048,3.258
	c-0.067,0.915-0.659,1.33-1.574,1.287c-0.896-0.042-1.442-0.406-1.432-1.397c0.011-1.023-0.019-2.045-0.053-3.068
	c-0.014-0.424,0.101-0.89-0.435-1.158c-1.467-0.732-2.903,0.104-2.917,1.729c-0.008,0.767-0.013,1.535-0.003,2.303
	c0.013,1.002-0.458,1.602-1.469,1.617c-1.091,0.02-1.635-0.582-1.631-1.679c0.002-0.958-0.057-1.92,0.006-2.876
	c0.088-1.343-0.823-1.202-1.649-1.178c-0.781,0.023-1.771-0.264-1.709,1.122c0.047,1.02-0.009,2.045-0.001,3.068
	c0.01,1.025-0.502,1.552-1.509,1.563c-1.013,0.011-1.53-0.54-1.55-1.542c-0.018-0.96-0.059-1.922-0.003-2.876
	c0.067-1.162-0.537-1.396-1.535-1.353c-0.93,0.04-1.85-0.062-1.773,1.327c0.05,0.893-0.017,1.789-0.015,2.684
	c0.003,1.069-0.498,1.752-1.577,1.763c-1.089,0.01-1.584-0.733-1.641-1.748c-0.052-0.892-0.081-1.794-0.013-2.683
	c0.094-1.198-0.549-1.364-1.525-1.341c-0.967,0.024-1.806,0.006-1.711,1.378c0.069,1.016,0.037,2.049-0.067,3.062
	c-0.091,0.875-0.685,1.376-1.582,1.343c-0.93-0.038-1.354-0.604-1.35-1.517c0.002-0.769-0.006-1.534-0.009-2.303
	c-0.009-1.932-0.009-1.932-1.632-1.951c-1.734-0.021-1.734-0.021-1.745,2.047c-0.002,0.702,0.015,1.407-0.008,2.11
	c-0.03,1.001-0.613,1.565-1.565,1.581c-1.048,0.018-1.653-0.542-1.632-1.669c0.02-0.958-0.053-1.922,0.004-2.876
	c0.082-1.332-0.822-1.208-1.654-1.188c-0.782,0.018-1.771-0.271-1.695,1.118c0.049,0.893,0.032,1.79,0,2.685
	c-0.047,1.376-0.558,2.033-1.552,1.96c-1.235-0.094-1.544-0.952-1.543-2.021c0.001-0.831-0.068-1.669,0.007-2.494
	c0.115-1.285-0.687-1.301-1.579-1.253c-0.903,0.049-2.051-0.317-2.011,1.265c0.024,0.958,0.002,1.918-0.026,2.876
	c-0.029,0.979-0.55,1.6-1.526,1.62c-1.074,0.023-1.636-0.63-1.667-1.691c-0.027-0.958-0.042-1.92,0.005-2.876
	c0.056-1.131-0.636-1.212-1.486-1.195c-0.808,0.018-1.577-0.007-1.546,1.151c0.028,1.085,0.002,2.174-0.014,3.259
	c-0.013,0.855-0.507,1.303-1.316,1.346c-0.874,0.048-1.512-0.354-1.622-1.265c-0.091-0.758-0.056-1.532-0.06-2.298
	c-0.013-2.285-0.222-2.441-2.57-2.214c-0.708,0.067-1.053,0.309-1.037,1.04c0.019,0.895,0.027,1.791-0.003,2.686
	c-0.051,1.422-0.642,2.145-1.685,2.063c-1.215-0.094-1.593-0.869-1.563-1.982c0.025-0.895-0.001-1.789-0.01-2.684
	c-0.005-0.466-0.071-0.869-0.607-1.065c-1.544-0.562-2.552,0.113-2.572,1.756c-0.008,0.703,0.017,1.407-0.015,2.11
	c-0.06,1.287-0.631,1.935-1.668,1.845c-1.089-0.091-1.537-0.775-1.53-1.825c0.006-0.958-0.002-1.918-0.007-2.878
	c-0.002-0.466-0.06-0.846-0.631-1.018c-1.817-0.553-2.742,0.085-2.747,1.952c-0.002,0.704-0.021,1.407-0.002,2.11
	c0.027,0.978-0.35,1.681-1.384,1.683c-1.008,0.002-1.707-0.497-1.709-1.638c-0.002-1.023-0.045-2.047-0.009-3.068
	c0.043-1.235-0.821-1.057-1.573-1.066c-0.777-0.011-1.592-0.104-1.542,1.104c0.042,1.021,0.067,2.053-0.031,3.066
	c-0.098,1.016-0.696,1.654-1.795,1.565c-1.011-0.083-1.417-0.711-1.402-1.696c0.016-1.023-0.027-2.045-0.032-3.066
	c-0.005-1.091-0.792-0.96-1.49-0.968c-0.725-0.011-1.471-0.044-1.476,1.005c-0.004,0.961,0.004,1.919-0.019,2.879
	c-0.024,0.979-0.323,1.789-1.476,1.871c-1.028,0.071-1.64-0.574-1.722-1.838c-0.05-0.762-0.073-1.538-0.002-2.298
	c0.118-1.264-0.388-1.665-1.646-1.653c-1.191,0.01-1.604,0.41-1.504,1.57c0.077,0.887,0.028,1.789-0.004,2.682
	c-0.036,1.016-0.662,1.522-1.609,1.532c-0.96,0.009-1.56-0.502-1.574-1.527c-0.014-1.023-0.05-2.05,0.001-3.069
	c0.05-0.991-0.486-1.182-1.309-1.162c-1.021,0.022-0.884,0.682-0.786,1.337c0.463,3.094,1.017,6.17,1.72,9.219
	c0.467,2.031,0.481,2.039,2.592,2.039C32.329,94.631,48.247,94.629,64.164,94.629z M88.684,57.131c0-6.389,0-12.777,0-19.167
	c0-2.641,0.002-2.593-2.615-2.495c-0.947,0.035-1.203,0.39-1.178,1.26c0.043,1.594,0.016,3.191,0.016,4.787
	C84.904,53.273,84.9,65.029,84.9,76.786c0,2.289,0.006,2.241,2.357,2.259c1.052,0.007,1.453-0.287,1.447-1.403
	C88.661,70.804,88.684,63.968,88.684,57.131z M49.547,57.322c0-6.584,0-13.168-0.001-19.752c0-0.448-0.002-0.895-0.018-1.342
	c-0.011-0.338-0.13-0.567-0.502-0.701c-1.933-0.69-3.132,0.115-3.132,2.147c-0.003,13.104-0.003,26.208-0.004,39.312
	c0,0.385,0.005,0.767,0.013,1.15c0.007,0.337,0.085,0.667,0.451,0.752c0.945,0.222,1.949,0.281,2.823-0.079
	c0.703-0.287,0.354-1.14,0.357-1.736C49.556,70.489,49.547,63.906,49.547,57.322z M114.352,57.333c0-0.32,0-0.639,0-0.959
	c-0.001-6.394,0.004-12.788-0.014-19.182c-0.001-0.541,0.291-1.335-0.346-1.562c-0.895-0.317-1.943-0.32-2.833-0.023
	c-0.851,0.284-0.446,1.223-0.448,1.861c-0.023,13.171-0.019,26.343-0.019,39.514c0,0.384,0.004,0.769,0.009,1.15
	c0.004,0.328,0.03,0.692,0.41,0.768c0.945,0.185,1.941,0.277,2.827-0.081c0.743-0.303,0.397-1.136,0.399-1.729
	C114.359,70.505,114.352,63.919,114.352,57.333z M75.316,57.271c0-6.71,0.014-13.421-0.012-20.131
	c-0.006-1.671-0.067-1.671-1.911-1.644c-1.604,0.022-1.612,0.022-1.624,1.771c-0.031,4.854-0.08,9.709-0.076,14.563
	c0.005,7.096,0.052,14.191,0.073,21.288c0.004,1.277-0.087,2.558-0.039,3.833c0.082,2.134,0.235,2.197,2.362,2.084
	c0.891-0.045,1.29-0.352,1.253-1.247c-0.02-0.445,0.065-0.895,0.053-1.34C75.231,70.056,75.372,63.663,75.316,57.271z
	 M36.411,57.369c0-6.771-0.018-13.543,0.018-20.315c0.005-1.086-0.187-1.637-1.457-1.591c-1.844,0.066-1.861-0.021-1.861,1.905
	c-0.005,13.224-0.004,26.447-0.005,39.67c0,0.384,0.004,0.768,0.013,1.15c0.008,0.33,0.089,0.584,0.451,0.744
	c1.597,0.703,2.836-0.075,2.838-1.825C36.412,70.529,36.409,63.949,36.411,57.369z M55.951,57.345c0-1.854,0-3.707,0-5.56
	c0-4.857,0.007-9.714-0.007-14.571c-0.002-0.546,0.253-1.306-0.353-1.572c-0.754-0.331-1.673-0.306-2.44-0.023
	c-0.655,0.242-0.372,1.009-0.375,1.544c-0.02,5.113-0.015,10.226-0.015,15.338c-0.001,8.245,0.012,16.487-0.014,24.733
	c-0.003,1.082,0.07,1.851,1.483,1.799c1.561-0.057,1.714-0.095,1.717-1.75C55.959,70.638,55.952,63.992,55.951,57.345z
	 M39.572,57.229c0,6.715,0.029,13.43-0.026,20.146c-0.01,1.253,0.39,1.706,1.622,1.672c1.611-0.045,1.71-0.081,1.71-1.953
	c0.005-13.238,0.003-26.477,0.001-39.716c0-0.383-0.003-0.768-0.035-1.15c-0.027-0.329-0.161-0.57-0.522-0.703
	c-1.617-0.59-2.746,0.105-2.747,1.75C39.568,43.926,39.572,50.578,39.572,57.229z M81.79,57.124c0-6.771-0.037-13.542,0.032-20.312
	c0.014-1.418-0.741-1.326-1.684-1.329c-0.955-0.002-1.768-0.06-1.69,1.343c0.104,1.846,0.027,3.701,0.023,5.552
	c-0.021,10.284-0.045,20.568-0.061,30.851c-0.002,1.469,0.033,2.939,0.068,4.406c0.011,0.432-0.135,0.992,0.375,1.194
	c0.787,0.309,1.657,0.307,2.446,0.066c0.859-0.257,0.473-1.084,0.475-1.652C81.802,70.537,81.792,63.831,81.79,57.124z
	 M117.445,55.049c0,1.983-0.001,3.965,0,5.947c0.002,4.093,0.002,8.185,0.013,12.278c0,0.246,0.083,0.491,0.128,0.738
	c0.398-0.132,0.259-0.494,0.312-0.764c0.519-2.627,1.042-5.256,1.536-7.889c1.248-6.646,2.49-13.294,3.716-19.944
	c0.509-2.762,0.983-5.529,1.44-8.3c0.254-1.53,0.187-1.59-1.444-1.619c-1.279-0.023-2.558-0.01-3.837-0.002
	c-1.845,0.01-1.859,0.014-1.861,1.904C117.439,43.283,117.443,49.166,117.445,55.049z M26.648,57.097
	c0,6.708-0.005,13.416,0.004,20.123c0.002,1.727,0.058,1.763,1.66,1.765c1.669,0,1.688-0.002,1.688-1.917
	c0.005-13.224,0.002-26.449,0.001-39.673c0-0.384-0.007-0.767-0.017-1.15c-0.011-0.439-0.208-0.649-0.673-0.749
	c-2.03-0.437-2.662,0.027-2.663,2.052C26.646,44.064,26.648,50.581,26.648,57.097z M10.541,54.455c0.003,0,0.006,0,0.009,0
	c0-1.855,0-3.71,0-5.565c-0.001-3.965-0.037-7.931,0.015-11.896c0.016-1.172-0.375-1.608-1.55-1.521
	c-1.146,0.085-2.301,0.018-3.453,0.02C3.11,35.498,3.11,35.498,3.535,37.94c0.022,0.126,0.037,0.253,0.061,0.379
	c1.29,6.704,2.647,13.396,3.847,20.116c0.807,4.523,1.653,9.036,2.597,13.531c0.061,0.291-0.037,0.798,0.31,0.806
	c0.216,0.004,0.189-0.546,0.189-0.854C10.542,66.095,10.541,60.275,10.541,54.455z M68.468,57.527
	c0-6.773-0.001-13.546,0.001-20.319c0-0.906,0.127-1.78-1.304-1.745c-1.765,0.043-1.798-0.036-1.802,1.782
	c-0.024,10.865-0.044,21.729-0.056,32.595c-0.002,2.619,0.025,5.24,0.062,7.859c0.006,0.469-0.19,1.018,0.515,1.272
	c1.562,0.566,2.575-0.071,2.577-1.702C68.469,70.689,68.465,64.108,68.468,57.527z M91.785,57.35c0,6.77,0.016,13.54-0.018,20.308
	c-0.006,0.988,0.322,1.362,1.305,1.384c1.635,0.032,1.821-0.087,1.823-1.812c0.008-8.493,0.004-16.986,0.005-25.479
	c0-4.917-0.028-9.833,0.021-14.749c0.011-1.146-0.298-1.599-1.511-1.53c-1.599,0.091-1.622,0.011-1.624,1.768
	C91.777,43.942,91.783,50.646,91.785,57.35z M107.482,57.362c0-6.771-0.018-13.542,0.019-20.312
	c0.006-1.086-0.179-1.648-1.451-1.582c-1.652,0.086-1.679,0.003-1.68,1.934c-0.004,13.286-0.001,26.572,0,39.859
	c0,0.19,0.021,0.384-0.002,0.574c-0.113,0.952,0.38,1.188,1.241,1.203c1.713,0.03,1.867-0.059,1.869-1.746
	C107.487,70.647,107.482,64.005,107.482,57.362z M23.428,57.448c0-6.771-0.022-13.541,0.022-20.311
	c0.007-1.173-0.201-1.769-1.554-1.667c-1.555,0.117-1.587,0.029-1.588,1.841c-0.008,13.286-0.005,26.571-0.005,39.857
	c0,0.382,0.006,0.766,0.031,1.147c0.024,0.354,0.228,0.543,0.576,0.655c1.629,0.525,2.516-0.089,2.517-1.787
	C23.432,70.606,23.428,64.027,23.428,57.448z M17.111,57.335c0-6.712,0.009-13.424-0.006-20.137
	c-0.004-1.704-0.05-1.715-1.718-1.704c-1.582,0.009-1.607,0.009-1.608,1.804c-0.007,13.297-0.004,26.593-0.002,39.891
	c0,0.318,0.01,0.638,0.026,0.958c0.022,0.422,0.209,0.679,0.647,0.819c1.75,0.555,2.653-0.057,2.656-1.878
	C17.114,70.503,17.109,63.92,17.111,57.335z M62.145,57.233c0-6.707-0.012-13.414,0.013-20.121c0.003-1.01-0.049-1.659-1.387-1.663
	c-1.302-0.003-1.592,0.446-1.584,1.655c0.046,7.41,0.022,14.821,0.022,22.231c0,6.006,0.003,12.013-0.001,18.017
	c0,0.838-0.159,1.663,1.172,1.661c1.551,0,1.758-0.081,1.76-1.659C62.149,70.647,62.144,63.94,62.145,57.233z M98.157,57.062
	c0,6.511-0.001,13.023,0.001,19.534c0,0.445,0.021,0.893,0.016,1.338c-0.009,0.717,0.357,0.986,1.048,1.065
	c1.554,0.178,1.936-0.095,1.938-1.696c0.01-13.406-0.008-26.812,0.027-40.217c0.004-1.265-0.417-1.621-1.654-1.632
	c-1.365-0.013-1.383,0.737-1.382,1.704C98.162,43.792,98.156,50.428,98.157,57.062z"/>
</svg>
