<?xml version="1.0" encoding="utf-8"?>
<!-- Generator: Adobe Illustrator 16.0.4, SVG Export Plug-In . SVG Version: 6.00 Build 0)  -->
<!DOCTYPE svg PUBLIC "-//W3C//DTD SVG 1.1//EN" "http://www.w3.org/Graphics/SVG/1.1/DTD/svg11.dtd">
<svg version="1.1" id="Layer_4017" xmlns="http://www.w3.org/2000/svg" xmlns:xlink="http://www.w3.org/1999/xlink" x="0px" y="0px"
	 width="128px" height="128px" viewBox="0 0 128 128" enable-background="new 0 0 128 128" xml:space="preserve">
<g>
	<path fill-rule="evenodd" clip-rule="evenodd" d="M13.725,61.385c2.397-0.376,5.031-1.364,7.761-1.98
		c1.004-0.227,1.306,0.107,1.466,0.993c0.786,4.341,1.595,8.679,2.408,13.015c1.156,6.167,2.335,12.33,3.487,18.497
		c1.006,5.396,1.979,10.798,2.988,16.193c0.828,4.432,1.692,8.856,2.535,13.286c0.119,0.626,0.222,1.256,0.308,1.888
		c0.2,1.465-0.405,2.526-1.873,2.849c-2.485,0.545-4.998,0.985-7.512,1.384c-1.223,0.193-2.195-0.496-2.568-1.706
		c-0.536-1.738-0.659-3.562-0.983-5.344c-1.056-5.786-2.05-11.583-3.052-17.378c-1.353-7.823-2.685-15.651-4.039-23.475
		c-0.912-5.263-1.844-10.522-2.778-15.782C11.542,61.972,11.527,61.975,13.725,61.385z"/>
	<path fill-rule="evenodd" clip-rule="evenodd" d="M114.99,122.046c-1.33,0.522-2.258-0.033-3.073-1.055
		c-2.751-3.443-5.528-6.865-8.292-10.301c-6.537-8.13-13.07-16.262-19.605-24.395c-3.867-4.809-7.715-9.631-11.613-14.414
		c-0.563-0.689-0.4-1.05,0.157-1.567c2.225-2.066,4.415-4.17,6.631-6.247c0.925-0.866,0.943-0.851,1.787,0.17
		c11.35,13.747,22.697,27.496,34.052,41.239c1.995,2.417,4.018,4.811,6.016,7.227c0.495,0.601,1.053,1.182,1.17,2.002
		c0.115,0.819-0.037,1.605-0.682,2.154c-1.9,1.62-3.832,3.204-5.764,4.788C115.552,121.828,115.253,121.915,114.99,122.046z"/>
	<path fill-rule="evenodd" clip-rule="evenodd" d="M14.208,20.814c-0.482,0.976-0.558,2.06-0.82,3.095
		c-0.133,0.528,0.099,0.6,0.609,0.665c1.788,0.226,2.312,0.806,2.646,2.577c1.463,7.749,2.937,15.495,4.407,23.242
		c0.337,1.78,0.676,3.561,1.011,5.342c0.25,1.332,0.183,1.415-1.064,1.727c-2.805,0.7-5.606,1.415-8.409,2.13
		c-1.291,0.329-1.422,0.275-1.649-1.033c-1.214-6.995-2.408-13.994-3.622-20.99c-0.444-2.558-0.922-5.109-1.381-7.664
		c-0.069-0.386-0.127-0.774-0.165-1.163c-0.18-1.811,0.541-2.808,2.292-3.135c2.124-0.396,1.774-0.137,2.201-2.258
		c0.269-1.34,0.714-2.651,0.731-4.038l-0.013,0.036c0.205-0.203,0.185-0.442,0.114-0.69l-0.011,0.039
		c0.262-0.193,0.133-0.453,0.115-0.692l-0.015,0.042c0.172-0.083,0.19-0.247,0.217-0.407l-0.015,0.042
		c0.04-0.23,0.078-0.461,0.116-0.692l-0.011,0.039c0.159-0.209,0.178-0.443,0.114-0.69l-0.019,0.035
		c1.057-1.269,1.59-1.522,2.377-1.125c0.756,0.38,0.958,1.206,0.698,2.596c-0.186,0.997-0.525,1.971-0.466,3.004L14.208,20.814z"/>
	<path fill-rule="evenodd" clip-rule="evenodd" d="M52.501,35.641c0.177,0.291,0.333,0.597,0.535,0.871
		c1.161,1.576,1.165,1.572,2.854,0.618c1.104-0.623,2.229-0.454,3.172,0.589c1.018,1.126,1.972,2.309,2.938,3.48
		c5.172,6.266,10.339,12.536,15.506,18.804c0.249,0.303,0.479,0.623,0.744,0.909c0.459,0.493,0.425,0.892-0.082,1.362
		c-2.368,2.197-4.729,4.405-7.057,6.644c-0.73,0.701-1.001,0.089-1.357-0.353c-2.489-3.088-4.976-6.179-7.461-9.27
		c-3.59-4.463-7.179-8.926-10.768-13.39c-0.246-0.305-0.502-0.604-0.737-0.917c-1.137-1.513-1.146-2.642,0.222-3.876
		c0.791-0.715,0.719-1.179,0.104-1.902c-0.791-0.929-1.479-1.944-2.225-2.913c-0.271-0.354-0.506-0.721-0.65-1.144
		c-0.209-0.612-0.116-1.193,0.325-1.643c0.455-0.465,1.039-0.503,1.633-0.227c0.264,0.123,0.527,0.249,0.792,0.373l-0.034-0.019
		c0.118,0.212,0.181,0.475,0.489,0.499l-0.028-0.028c0.151,0.292,0.185,0.667,0.573,0.786l-0.029-0.029
		c0.148,0.293,0.161,0.686,0.575,0.785L52.501,35.641z"/>
	<path fill-rule="evenodd" clip-rule="evenodd" d="M19.726,5.775c-0.623,0.243-0.984,0.231-0.958-0.638
		c0.096-3.381,4.092-5.781,7.044-4.161c1.624,0.892,3.22,1.842,4.786,2.832c1.826,1.156,2.631,3.217,2.175,5.186
		c-0.108,0.47-0.308,0.667-0.762,0.65l0.034,0.02c-0.213-0.63-0.604-1.131-1.118-1.542l0.028,0.026
		c-0.128-0.199-0.171-0.484-0.489-0.497l0.032,0.026c-0.278-0.884-0.883-1.479-1.667-1.931c-1.176-0.679-2.332-1.392-3.513-2.061
		c-1.863-1.056-2.545-0.879-3.83,0.943l0.03-0.029c-0.392,0.162-0.83,0.249-1.069,0.66l0.03-0.028
		c-0.292,0.15-0.678,0.172-0.785,0.575L19.726,5.775z"/>
	<path fill-rule="evenodd" clip-rule="evenodd" d="M44.946,26.259c0.171,0.342,0.318,0.701,0.519,1.023
		c0.48,0.767,0.629,1.58-0.037,2.247c-0.694,0.695-1.498,0.455-2.222-0.083c-0.152-0.111-0.307-0.218-0.46-0.327l0.032,0.017
		c-0.348-0.81-0.865-1.488-1.578-2.012l0.032,0.007c-0.721-1.293-1.533-2.518-2.673-3.49l0.032,0.018
		c-0.162-0.294-0.314-0.593-0.485-0.882c-0.725-1.225-0.759-2.072-0.099-2.624c0.679-0.568,1.448-0.4,2.523,0.544
		c0.066,0.059,0.168,0.077,0.253,0.115l-0.029-0.03c0.345,0.813,0.86,1.492,1.577,2.013l-0.032-0.023
		c0.571,1.023,1.103,2.077,2.128,2.75l-0.03-0.017c0.14,0.299,0.172,0.674,0.572,0.784L44.946,26.259z"/>
	<path fill-rule="evenodd" clip-rule="evenodd" d="M21.054,9.059c-0.998,0.33-1.726,1.088-2.586,1.636
		c-0.288,0.182-0.549,0.406-0.832,0.599c-0.78,0.535-1.601,1.06-2.562,0.533c-0.915-0.498-0.613-1.436-0.645-2.237L14.41,9.625
		c0.742-0.435,1.448-0.918,2.016-1.577l-0.031,0.03c0.32-0.111,0.67-0.184,0.784-0.576l-0.021,0.033
		c0.958-0.437,1.892-0.91,2.569-1.759l-0.031,0.032c0.319-0.113,0.667-0.187,0.785-0.575l-0.03,0.028
		c0.395-0.159,0.829-0.252,1.069-0.66l-0.03,0.029c0.181-0.075,0.362-0.15,0.544-0.222c1.376-0.542,2.03-0.466,2.49,0.29
		c0.469,0.771,0.106,1.621-0.959,2.445c-0.842,0.651-1.796,1.16-2.53,1.95L21.054,9.059z"/>
	<path fill-rule="evenodd" clip-rule="evenodd" d="M32.012,9.644c0.765,1.263,1.577,2.493,2.675,3.503l-0.034-0.02
		c0.116,0.317,0.229,0.637,0.574,0.786l-0.028-0.029c0.199,0.383,0.44,0.752,0.59,1.156c0.253,0.678,0.215,1.364-0.381,1.843
		c-0.648,0.52-1.337,0.406-1.993-0.072c-0.346-0.25-0.51-0.703-0.957-0.835l0.031,0.03c-0.098-0.33-0.225-0.639-0.573-0.786
		l0.028,0.029c-0.141-0.3-0.229-0.637-0.574-0.785l0.033,0.014c-0.546-1.042-1.273-1.941-2.129-2.742l0.032,0.019
		c-0.136-0.302-0.235-0.632-0.574-0.785l0.029,0.028c-0.197-0.331-0.383-0.67-0.591-0.993c-0.696-1.08-0.773-1.92-0.174-2.519
		c0.83-0.825,1.597-0.273,2.363,0.146c0.042,0.023,0.092,0.029,0.139,0.043l-0.032-0.026c0.113,0.215,0.184,0.471,0.489,0.497
		l-0.028-0.026c0.191,0.646,0.541,1.175,1.118,1.542L32.012,9.644z"/>
	<path fill-rule="evenodd" clip-rule="evenodd" d="M14.429,9.589c-0.364,0.157-0.758,0.356-0.885,0.721
		c-0.691,2.007-1.692,3.917-1.955,6.062l0.019-0.035c-0.238,0.197-0.168,0.445-0.114,0.69l0.011-0.039
		c-0.264,0.194-0.128,0.453-0.116,0.692l0.015-0.042c-0.072,0.136-0.144,0.271-0.217,0.407l0.015-0.042
		c-0.038,0.231-0.077,0.461-0.115,0.692l0.011-0.039c-0.175,0.208-0.147,0.448-0.114,0.69l0.013-0.036
		c-0.367,0.486-0.686,0.388-1.031-0.048c-0.839-1.06-1.179-2.293-0.907-3.572c0.475-2.247,1.262-4.419,2.219-6.495
		c0.864-1.878,2.614-2.557,4.606-2.506c0.493,0.013,1.26-0.048,1.273,0.843l0.021-0.033c-0.288,0.156-0.683,0.167-0.784,0.576
		l0.031-0.03c-0.849,0.298-1.549,0.79-2.016,1.577L14.429,9.589z"/>
	<path fill-rule="evenodd" clip-rule="evenodd" d="M42.746,29.121c0.704,2.445,2.533,4.17,4.076,6.03
		c0.657,0.792,1.824,1.186,2.482,2.142c0.473,0.688,0.292,0.953-0.432,1.047c-1.385,0.182-2.67-0.113-3.654-1.122
		c-1.677-1.718-3.102-3.664-4.325-5.712c-0.844-1.416-0.842-3,0.341-4.374l-0.032-0.007c0.37,0.793,0.853,1.497,1.578,2.012
		L42.746,29.121z"/>
	<path fill-rule="evenodd" clip-rule="evenodd" d="M38.56,23.643c0.083,0.176,0.166,0.353,0.248,0.53
		c0.197,0.423,0.884,0.763,0.613,1.212c-0.339,0.561-1.066,0.278-1.625,0.238c-1.171-0.083-2.213-0.57-2.924-1.479
		c-1.318-1.686-2.724-3.315-3.833-5.154c-0.72-1.195-0.737-2.492-0.322-3.81c0.113-0.361,0.365-0.559,0.686-0.703l-0.033-0.014
		c0.146,0.294,0.185,0.667,0.574,0.785l-0.028-0.029c0.138,0.301,0.179,0.673,0.573,0.786l-0.031-0.03
		c1.529,2.973,3.214,5.822,6.134,7.685L38.56,23.643z"/>
	<path fill-rule="evenodd" clip-rule="evenodd" d="M34.687,13.147c-0.5-1.271-0.419-1.394,0.916-1.336
		c1.442,0.062,2.663,0.649,3.547,1.77c1.205,1.525,2.35,3.101,3.467,4.692c0.842,1.196,0.872,2.541,0.501,3.917
		c-0.116,0.43-0.318,0.705-0.816,0.583l0.032,0.023c-0.364-0.797-0.846-1.503-1.577-2.013l0.029,0.03
		c-0.035-0.496-0.178-0.969-0.478-1.354c-1.553-1.995-2.673-4.389-5.108-5.575l0.028,0.029c-0.132-0.305-0.171-0.678-0.574-0.786
		L34.687,13.147z"/>
	<path fill-rule="evenodd" clip-rule="evenodd" d="M44.43,25.522c-0.286-0.564-0.234-0.915,0.514-0.96
		c1.616-0.096,3.028,0.366,4.052,1.633c1.198,1.482,2.346,3.01,3.432,4.577c1.165,1.677,1.145,3.556,0.073,4.869l0.034,0.01
		c-0.103-0.327-0.2-0.657-0.575-0.785l0.029,0.029c-0.129-0.307-0.24-0.627-0.573-0.786l0.028,0.028
		c-0.103-0.225-0.16-0.495-0.489-0.499l0.034,0.019c-1.312-2.527-2.801-4.916-5.189-6.599c-0.316-0.223-0.571-0.531-0.854-0.799
		l0.026,0.03c-0.138-0.3-0.267-0.606-0.572-0.784L44.43,25.522z"/>
	<path fill-rule="evenodd" clip-rule="evenodd" d="M14.199,20.848c0.365-0.331,0.318-0.799,0.415-1.221
		c0.076-0.334,0.05-0.784,0.258-0.981c1.831-1.729,2.004-4.207,2.833-6.366c0.408-1.063,1.197-1.473,1.959-2.033
		c0.432-0.318,0.592,0.033,0.705,0.388c0.218,0.684,0.146,1.372-0.069,2.027c-0.61,1.863-1.213,3.731-1.908,5.562
		c-0.493,1.3-1.513,2.143-2.786,2.681c-0.483,0.203-0.949,0.221-1.397-0.09L14.199,20.848z"/>
	<path fill-rule="evenodd" clip-rule="evenodd" d="M29.274,11.736c0.323,0.622,0.206,1.037-0.548,1.123
		c-0.782,0.089-1.582,0.126-2.311-0.209c-1.737-0.801-3.296-1.917-4.959-2.852c-0.291-0.163-0.368-0.439-0.401-0.74l-0.02,0.034
		c0.505-0.284,1.019-0.553,1.51-0.858c0.401-0.25,0.785-0.362,1.211-0.076c1.598,1.072,3.343,1.883,5.007,2.841l-0.029-0.028
		c0.144,0.296,0.177,0.673,0.574,0.785L29.274,11.736z"/>
	<path fill-rule="evenodd" clip-rule="evenodd" d="M79.61,62.679c0.003,0.365-0.24,0.554-0.445,0.749
		c-2.341,2.213-4.688,4.42-7.034,6.627c-0.286,0.271-0.588,0.606-0.979,0.173c-0.316-0.353-0.06-0.617,0.203-0.864
		c2.385-2.237,4.765-4.481,7.159-6.708c0.223-0.208,0.446-0.593,0.858-0.303C79.482,62.43,79.543,62.58,79.61,62.679z"/>
	<path fill-rule="evenodd" clip-rule="evenodd" d="M13.767,59.795c2.467-0.613,4.93-1.243,7.406-1.821
		c0.405-0.096,1.083-0.537,1.253,0.155c0.187,0.768-0.646,0.721-1.108,0.84c-2.224,0.575-4.462,1.099-6.692,1.649
		c-0.854,0.211-1.702,0.451-2.556,0.666c-0.242,0.062-0.492,0.059-0.611-0.228c-0.146-0.349,0.031-0.572,0.339-0.678
		c0.647-0.222,1.304-0.415,1.958-0.62C13.759,59.772,13.763,59.784,13.767,59.795z"/>
</g>
</svg>
