<?xml version="1.0" encoding="utf-8"?>
<!-- Generator: Adobe Illustrator 16.0.4, SVG Export Plug-In . SVG Version: 6.00 Build 0)  -->
<!DOCTYPE svg PUBLIC "-//W3C//DTD SVG 1.1//EN" "http://www.w3.org/Graphics/SVG/1.1/DTD/svg11.dtd">
<svg version="1.1" id="Layer_4103" xmlns="http://www.w3.org/2000/svg" xmlns:xlink="http://www.w3.org/1999/xlink" x="0px" y="0px"
	 width="128px" height="128px" viewBox="0 0 128 128" enable-background="new 0 0 128 128" xml:space="preserve">
<path d="M83.998,65.279c-1.4-1.309-2.623-2.822-4.366-3.748c-0.523-0.277-0.932-0.779-1.365-1.206
	c-0.599-0.587-0.442-1.298-0.254-1.992c0.342-1.262,0.611-2.541,0.896-3.809c0.28-1.25,0.208-2.511,0.459-3.756
	c0.258-1.284,0.313-2.67,0.295-4.02c-0.012-0.85,0.003-1.695,0.253-2.515c0.082-0.271,0.048-0.536,0.042-0.805
	c-0.037-1.594-0.164-3.176-0.646-4.71c-0.092-0.295-0.104-0.616,0.003-0.903c0.166-0.444,0.126-0.851-0.101-1.253
	c-0.521-0.933-0.408-1.966-0.407-2.962c0-0.653-0.193-1.136-0.671-1.535c-0.01,0-0.02-0.001-0.029-0.001
	c-0.006-0.005-0.011-0.009-0.017-0.014c-0.077,0.007-0.158,0.028-0.209-0.064c0.024-0.011,0.058-0.039,0.071-0.031
	c0.049,0.027,0.092,0.062,0.138,0.095c0.009,0,0.02-0.002,0.029-0.002c0.007,0.006,0.011,0.012,0.017,0.017
	c0.902,0.033,1.807,0.105,2.709,0.086c1.541-0.034,2.331-0.924,2.574-2.411c0.386-2.342-0.513-4.38-1.295-6.458
	c-0.163-0.436-0.498-0.794-0.884-1.092c-0.587-0.452-1.141-0.534-1.868-0.215c-2.205,0.967-4.49,1.676-6.935,1.694
	c-0.27,0.002-0.54-0.008-0.811-0.02c-0.326-0.013-0.512-0.152-0.448-0.511c0.017-0.1,0.025-0.202,0.027-0.303
	c0.033-1.646,0.085-1.745,1.707-2.209c1.005-0.288,2.035-0.49,3.053-0.739c0.863-0.21,1.702-0.52,2.334-1.154
	c0.515-0.514,0.945-1.118,1.37-1.712c0.218-0.302,0.048-0.663-0.032-0.985c-0.278-1.112-0.715-2.175-0.955-3.303
	c-0.18-0.847-0.742-1.213-1.636-1.221c-1.316-0.011-2.594,0.09-3.864,0.591c-0.798,0.315-1.651,0.575-2.504,0.773
	c-1.083,0.251-1.248,0.114-1.631-0.94c-0.667-1.843-1.104-3.762-1.793-5.592c-0.764-2.022-1.707-3.97-3.095-5.664
	c-0.293-0.358-0.402-0.473-0.583-0.357c-0.182-0.115-0.291-0.001-0.584,0.357c-1.388,1.694-2.332,3.642-3.094,5.664
	c-0.69,1.83-1.126,3.749-1.794,5.592c-0.382,1.054-0.547,1.192-1.631,0.94c-0.851-0.198-1.707-0.458-2.502-0.773
	c-1.271-0.501-2.549-0.603-3.866-0.591c-0.894,0.008-1.456,0.375-1.636,1.221c-0.24,1.128-0.676,2.191-0.954,3.303
	c-0.081,0.322-0.25,0.683-0.034,0.985c0.426,0.594,0.856,1.198,1.37,1.712c0.633,0.635,1.472,0.944,2.334,1.154
	c1.018,0.249,2.048,0.451,3.053,0.739c1.622,0.465,1.674,0.563,1.707,2.209c0.002,0.101,0.011,0.203,0.028,0.303
	c0.062,0.359-0.123,0.499-0.449,0.511c-0.27,0.011-0.541,0.021-0.811,0.02c-2.444-0.018-4.729-0.727-6.934-1.694
	c-0.728-0.319-1.282-0.237-1.869,0.215c-0.386,0.297-0.72,0.656-0.884,1.092c-0.782,2.078-1.68,4.116-1.294,6.458
	c0.244,1.487,1.034,2.376,2.575,2.411c0.902,0.019,1.806-0.053,2.709-0.086c0.006-0.005,0.009-0.011,0.016-0.017
	c0.01,0,0.021,0.002,0.031,0.002c0.045-0.033,0.088-0.068,0.137-0.095c0.013-0.008,0.046,0.021,0.071,0.031
	c-0.051,0.092-0.132,0.071-0.208,0.064c-0.006,0.005-0.013,0.009-0.019,0.014c-0.01,0-0.019,0.001-0.028,0.001
	c-0.478,0.398-0.67,0.881-0.67,1.535c0,0.996,0.114,2.029-0.409,2.962c-0.226,0.402-0.267,0.809-0.1,1.253
	c0.106,0.288,0.096,0.608,0.003,0.903c-0.481,1.534-0.609,3.116-0.646,4.71c-0.006,0.269-0.04,0.534,0.042,0.805
	c0.25,0.82,0.263,1.665,0.252,2.515c-0.019,1.35,0.038,2.736,0.296,4.02c0.249,1.245,0.179,2.506,0.459,3.756
	c0.284,1.268,0.553,2.547,0.895,3.809c0.188,0.694,0.345,1.405-0.253,1.992c-0.434,0.427-0.843,0.929-1.365,1.206
	c-1.745,0.926-2.967,2.439-4.366,3.748c-1.102,1.031-1.035,2.354,0.027,3.381c0.973,0.942,1.858,1.965,2.505,3.164
	c0.401,0.744,1.037,1.04,1.833,1.056c1.271,0.024,2.177-0.671,2.918-1.595c0.504-0.63,0.906-1.343,1.38-2
	c0.441-0.611,0.837-1.219,0.757-2.033c-0.044-0.456,0.271-0.535,0.667-0.523c0.624,0.021,0.794,0.487,0.905,0.938
	c0.235,0.951,0.354,1.925,0.406,2.907c0.116,2.227,0.232,4.444,1.02,6.58c0.655,1.776,0.858,3.664,1.152,5.53
	c0.231,1.467,0.033,2.964,0.471,4.417c0.332,1.102,0.172,2.295,0.371,3.424c0.756,4.294,1.059,8.646,1.738,12.951
	c0.332,2.102,0.387,4.248,0.761,6.34c0.433,2.424,0.889,4.844,1.231,7.281c0.249,1.771,0.447,3.55,0.688,5.323
	c0.169,1.238,0.333,2.482,0.828,3.648c0.118,0.278,0.255,0.556,0.435,0.796c0.117,0.155,0.231,0.189,0.329,0.13
	c0.096,0.06,0.211,0.025,0.328-0.13c0.18-0.24,0.317-0.518,0.435-0.796c0.495-1.166,0.659-2.41,0.827-3.648
	c0.242-1.773,0.441-3.552,0.689-5.323c0.343-2.438,0.799-4.857,1.23-7.281c0.373-2.092,0.43-4.238,0.761-6.34
	c0.68-4.305,0.981-8.657,1.738-12.951c0.198-1.129,0.039-2.322,0.37-3.424c0.438-1.453,0.239-2.95,0.472-4.417
	c0.294-1.866,0.496-3.754,1.151-5.53c0.787-2.136,0.904-4.354,1.021-6.58c0.05-0.982,0.17-1.956,0.404-2.907
	c0.111-0.451,0.281-0.918,0.905-0.938c0.397-0.012,0.713,0.067,0.668,0.523c-0.08,0.814,0.315,1.422,0.757,2.033
	c0.475,0.657,0.875,1.37,1.381,2c0.741,0.924,1.647,1.619,2.918,1.595c0.796-0.016,1.432-0.312,1.833-1.056
	c0.646-1.199,1.532-2.222,2.506-3.164C85.031,67.633,85.1,66.311,83.998,65.279z M78.825,15.985
	c0.113-0.063,0.117,0.114,0.107,0.199c-0.03,0.239,0.114,0.588-0.335,0.581c-0.213,0.001-0.502-0.044-0.465-0.259
	C78.189,16.191,78.568,16.125,78.825,15.985z M78.005,14.882c0.144,0.003,0.276,0.09,0.212,0.247
	c-0.072,0.178-0.164,0.375-0.41,0.385c-0.166-0.031-0.211-0.163-0.208-0.298C77.604,14.961,77.784,14.878,78.005,14.882z
	 M77.728,17.283c0.206,0.035,0.42,0.133,0.39,0.373c-0.026,0.21-0.229,0.308-0.439,0.345c-0.289-0.05-0.224-0.292-0.257-0.478
	C77.376,17.262,77.557,17.255,77.728,17.283z M76.855,16.35c0.023,0.006,0.064,0.01,0.065,0.018
	c0.002,0.027-0.009,0.055-0.017,0.083c-0.023-0.006-0.066-0.01-0.067-0.019C76.834,16.405,76.848,16.378,76.855,16.35z
	 M49.146,14.882c0.22-0.004,0.4,0.079,0.406,0.333c0.003,0.135-0.041,0.267-0.208,0.298c-0.246-0.009-0.337-0.207-0.41-0.385
	C48.869,14.972,49.002,14.885,49.146,14.882z M48.553,16.765c-0.45,0.007-0.304-0.342-0.335-0.581
	c-0.01-0.085-0.007-0.262,0.108-0.199c0.255,0.14,0.634,0.206,0.691,0.521C49.055,16.721,48.765,16.766,48.553,16.765z M49.473,18
	c-0.209-0.037-0.412-0.135-0.439-0.345c-0.03-0.239,0.183-0.338,0.39-0.373c0.17-0.028,0.351-0.021,0.306,0.24
	C49.697,17.708,49.762,17.95,49.473,18z M50.247,16.451c-0.007-0.028-0.02-0.056-0.018-0.083c0.001-0.008,0.043-0.012,0.067-0.018
	c0.007,0.028,0.02,0.055,0.017,0.082C50.312,16.441,50.271,16.445,50.247,16.451z M50.526,32.739
	c0.133-0.029,0.041,0.252,0.072,0.389c-0.056,0.163,0.07,0.427-0.24,0.432c-0.033,0-0.107-0.166-0.096-0.245
	C50.296,33.097,50.293,32.792,50.526,32.739z M50.091,31.937c0.022,0.003,0.04,0.029,0.06,0.044
	c-0.025,0.008-0.051,0.025-0.075,0.021c-0.021-0.003-0.039-0.028-0.058-0.044C50.042,31.951,50.069,31.933,50.091,31.937z
	 M49.711,35.758c0.128-0.377,0.249-0.758,0.365-1.139c0.039-0.121,0.027-0.318,0.208-0.265c0.136,0.039,0.089,0.222,0.068,0.454
	c-0.061,0.29-0.134,0.682-0.231,1.069c-0.034,0.133-0.148,0.231-0.305,0.189C49.642,36.02,49.664,35.896,49.711,35.758z
	 M49.666,49.673c-0.004,0.227,0,0.393-0.015,0.557c-0.005,0.058-0.045,0.152-0.083,0.159c-0.107,0.021-0.197-0.055-0.218-0.152
	c-0.035-0.16-0.062-0.329-0.05-0.492c0.019-0.273-0.131-0.76,0.206-0.748C49.89,49.012,49.528,49.49,49.666,49.673z M49.538,48.134
	c-0.255-0.07-0.274-0.408-0.404-0.564c0.024-0.207,0.063-0.307,0.245-0.276c0.291,0.048,0.386,0.226,0.327,0.487
	C49.676,47.91,49.762,48.196,49.538,48.134z M49.144,46.555c-0.157,0.074-0.118-0.306-0.162-0.482
	c-0.019-0.359,0.103-0.59,0.51-0.547c0.193,0.02,0.507,0.048,0.379,0.299C49.719,46.122,49.44,46.416,49.144,46.555z M49.333,44.784
	c-0.067-0.044-0.181-0.078-0.215-0.149c-0.151-0.326-0.099-0.638,0.135-0.91c0.034-0.041,0.14-0.081,0.164-0.062
	c0.241,0.203,0.084,0.48,0.113,0.725C49.548,44.53,49.584,44.725,49.333,44.784z M48.999,42.725
	c-0.318-0.019-0.397-0.349-0.337-0.614c0.076-0.335,0.137-0.822,0.554-0.812c0.428,0.011,0.368,0.465,0.362,0.795
	C49.613,42.513,49.369,42.746,48.999,42.725z M49.753,39.803c-0.075,0.107-0.163,0.208-0.223,0.325
	c-0.069,0.136-0.046,0.384-0.26,0.351c-0.274-0.043-0.159-0.304-0.184-0.562c0.014-0.084-0.008-0.276,0.075-0.399
	c0.139-0.206,0.322-0.543,0.588-0.408C50.006,39.239,49.918,39.565,49.753,39.803z M49.884,37.759
	c-0.023,0.167-0.111,0.343-0.316,0.321c-0.245-0.027-0.15-0.252-0.18-0.373c0-0.4,0.053-0.758,0.334-1.037
	c0.013-0.012,0.08,0.002,0.094,0.021C50.057,37.031,49.933,37.4,49.884,37.759z M49.209,32.905c0.131,0.001,0.305-0.006,0.328,0.148
	c0.043,0.281-0.193,0.312-0.39,0.336c-0.143,0.018-0.262-0.044-0.273-0.215C48.875,32.946,49.028,32.903,49.209,32.905z
	 M48.847,34.431c0-0.192,0.109-0.304,0.317-0.289c0.193,0.014,0.392,0.173,0.336,0.292c-0.167,0.357,0.045,0.917-0.526,1.066
	c0.002,0.004,0.003,0.009,0.005,0.013l-0.039,0.027l0.027-0.038c0.003-0.001,0.004-0.002,0.006-0.002
	C48.808,35.159,48.847,34.791,48.847,34.431z M48.391,37.018c0.01-0.031,0.011-0.067,0.026-0.096
	c0.098-0.184,0.051-0.542,0.375-0.469c0.217,0.049,0.119,0.334,0.128,0.522c0.003,0.065-0.002,0.132-0.003,0.17
	c-0.044,0.311,0.067,0.644-0.259,0.831c-0.04,0.024-0.14,0.009-0.17-0.025C48.233,37.667,48.291,37.344,48.391,37.018z
	 M48.156,39.342c0.103-0.178,0.102-0.533,0.396-0.46c0.215,0.054,0.15,0.331,0.066,0.507c-0.075,0.16-0.099,0.392-0.355,0.384
	C48.086,39.658,48.075,39.482,48.156,39.342z M47.883,41.404c0.002-0.123-0.02-0.292,0.015-0.45
	c0.047-0.211,0.179-0.372,0.428-0.287c0.196,0.067,0.216,0.235,0.141,0.408c-0.066,0.152-0.158,0.293-0.223,0.446
	c-0.079,0.182-0.16,0.516-0.295,0.469C47.743,41.919,47.97,41.636,47.883,41.404z M48.463,45.874c0.007,0.098-0.003,0.2-0.022,0.297
	c-0.023,0.127-0.034,0.315-0.185,0.313c-0.147-0.003-0.125-0.193-0.149-0.311c-0.021-0.098-0.033-0.197-0.048-0.295
	c-0.014-0.137-0.003-0.293,0.148-0.323C48.45,45.506,48.452,45.711,48.463,45.874z M47.844,43.638
	c-0.039-0.244,0.006-0.524,0.287-0.525c0.33-0.001,0.238,0.317,0.254,0.535c-0.042,0.204,0.054,0.528-0.28,0.525
	C47.766,44.169,47.875,43.842,47.844,43.638z M47.979,47.853c-0.053-0.101,0.057-0.321,0.188-0.26
	c0.313,0.144,0.455,0.448,0.48,0.785c0.01,0.132-0.076,0.246-0.299,0.256C47.982,48.534,48.116,48.114,47.979,47.853z M48.511,49.66
	c0.442-0.023,0.089,0.482,0.178,0.692c0.035,0.171,0.067,0.303,0.086,0.437c0.014,0.1-0.002,0.229-0.105,0.245
	c-0.075,0.012-0.194-0.061-0.243-0.13c-0.073-0.105-0.145-0.241-0.142-0.363C48.291,50.22,48.162,49.679,48.511,49.66z
	 M48.465,52.242c0.035-0.245,0.215-0.213,0.381-0.152c0.133,0.049,0.262,0.062,0.389,0c0.167-0.081,0.337-0.272,0.46,0.052
	c0.059,0.157,0.168,0.329,0.076,0.479c-0.124,0.2-0.289,0.042-0.523-0.053c-0.082-0.036-0.243-0.004-0.391,0.09
	c-0.133,0.085-0.259,0.184-0.387,0.275C48.365,52.704,48.432,52.471,48.465,52.242z M48.784,54.373
	c0.057-0.128,0.043-0.314,0.229-0.261c0.139,0.041,0.156,0.197,0.118,0.317c-0.025,0.077-0.111,0.179-0.18,0.187
	C48.742,54.642,48.831,54.454,48.784,54.373z M49.244,55.971c-0.189-0.008-0.233-0.128-0.231-0.265
	c0.003-0.156-0.012-0.368,0.224-0.327c0.082,0.014,0.162,0.196,0.191,0.315C49.461,55.834,49.381,55.944,49.244,55.971z
	 M49.544,57.378c-0.074,0.036-0.136,0.006-0.152-0.074c-0.019-0.096-0.026-0.196,0.07-0.266c0.046,0.029,0.119,0.05,0.148,0.097
	C49.664,57.226,49.652,57.325,49.544,57.378z M49.997,58.528c-0.029,0.043-0.117,0.072-0.172,0.063
	c-0.106-0.017-0.178-0.086-0.175-0.209c0.069-0.086,0.161-0.112,0.263-0.076C50.021,58.345,50.064,58.433,49.997,58.528z
	 M50.19,55.261c-0.008,0-0.017-0.001-0.024-0.001c-0.042,0.037-0.083,0.075-0.13,0.104c-0.011,0.007-0.068-0.031-0.067-0.033
	c0.039-0.106,0.122-0.076,0.197-0.071c0.004-0.004,0.009-0.007,0.013-0.01l0.029-0.027L50.19,55.261z M50.062,42.026
	c-0.016-0.304,0.123-0.565,0.44-0.557c0.301,0.008,0.102,0.327,0.2,0.449c-0.05,0.279,0.07,0.653-0.321,0.656
	C50.104,42.577,50.073,42.259,50.062,42.026z M50.506,43.725c0.231,0,0.061,0.389,0.099,0.546c-0.004,0.185,0.002,0.319-0.014,0.449
	c-0.006,0.051-0.062,0.096-0.096,0.143c-0.05-0.038-0.125-0.065-0.144-0.114c-0.045-0.122-0.099-0.257-0.087-0.381
	C50.289,44.127,50.2,43.725,50.506,43.725z M50.479,50.193c-0.26-0.009-0.208-0.288-0.203-0.466
	c0.006-0.174-0.039-0.479,0.231-0.434c0.233,0.038,0.076,0.335,0.137,0.485C50.599,49.945,50.692,50.202,50.479,50.193z
	 M50.659,46.243c-0.056-0.028-0.14-0.044-0.159-0.089c-0.017-0.039,0.025-0.132,0.068-0.16c0.066-0.042,0.131-0.001,0.161,0.075
	C50.707,46.128,50.683,46.186,50.659,46.243z M50.927,40.246c-0.048,0.184,0.014,0.46-0.254,0.479
	c-0.191,0.014-0.287-0.192-0.221-0.363c0.074-0.196-0.005-0.548,0.331-0.531C50.98,39.841,50.925,40.088,50.927,40.246z
	 M51.376,37.869c-0.009-0.054-0.017-0.106-0.025-0.159c0.03-0.003,0.084-0.01,0.085-0.007c0.01,0.056,0.015,0.111,0.02,0.168
	C51.43,37.87,51.403,37.869,51.376,37.869z M77.907,55.971c-0.138-0.027-0.217-0.137-0.184-0.276
	c0.028-0.119,0.107-0.301,0.191-0.315c0.234-0.041,0.221,0.171,0.224,0.327C78.141,55.843,78.097,55.963,77.907,55.971z
	 M78.2,54.616c-0.068-0.008-0.155-0.109-0.18-0.187c-0.038-0.121-0.021-0.276,0.118-0.317c0.186-0.053,0.172,0.133,0.229,0.261
	C78.32,54.454,78.409,54.642,78.2,54.616z M78.682,52.933c-0.129-0.092-0.255-0.19-0.389-0.275c-0.147-0.094-0.309-0.125-0.39-0.09
	c-0.234,0.095-0.399,0.253-0.523,0.053c-0.093-0.15,0.017-0.321,0.077-0.479c0.121-0.324,0.291-0.133,0.459-0.052
	c0.126,0.062,0.256,0.049,0.389,0c0.166-0.061,0.346-0.092,0.382,0.152C78.72,52.471,78.786,52.704,78.682,52.933z M77.401,39.109
	c0.266-0.135,0.449,0.203,0.589,0.408c0.082,0.123,0.061,0.315,0.075,0.399c-0.025,0.258,0.09,0.519-0.185,0.562
	c-0.215,0.033-0.191-0.215-0.261-0.351c-0.06-0.117-0.148-0.217-0.223-0.325C77.232,39.565,77.145,39.239,77.401,39.109z
	 M77.335,36.691c0.015-0.02,0.081-0.034,0.094-0.021c0.281,0.279,0.334,0.637,0.334,1.037c-0.029,0.121,0.065,0.346-0.18,0.373
	c-0.206,0.022-0.294-0.154-0.315-0.321C77.218,37.4,77.095,37.031,77.335,36.691z M77.734,43.663c0.023-0.02,0.13,0.021,0.164,0.062
	c0.233,0.272,0.285,0.584,0.134,0.91c-0.032,0.072-0.146,0.105-0.214,0.149c-0.252-0.06-0.215-0.254-0.197-0.396
	C77.649,44.144,77.493,43.866,77.734,43.663z M77.571,42.094c-0.005-0.33-0.064-0.785,0.362-0.795
	c0.418-0.011,0.479,0.477,0.555,0.812c0.061,0.265-0.019,0.596-0.337,0.614C77.782,42.746,77.538,42.513,77.571,42.094z
	 M77.658,45.526c0.407-0.043,0.529,0.188,0.511,0.547c-0.045,0.176-0.006,0.556-0.161,0.482c-0.298-0.139-0.576-0.433-0.729-0.73
	C77.151,45.574,77.465,45.546,77.658,45.526z M77.646,48.998c0.336-0.013,0.185,0.474,0.204,0.748
	c0.013,0.163-0.015,0.332-0.05,0.492c-0.021,0.097-0.11,0.173-0.217,0.152c-0.038-0.007-0.079-0.102-0.083-0.159
	c-0.016-0.165-0.012-0.331-0.017-0.557C77.622,49.49,77.261,49.012,77.646,48.998z M77.612,48.134
	c-0.224,0.062-0.139-0.224-0.167-0.354c-0.061-0.261,0.035-0.439,0.326-0.487c0.182-0.03,0.222,0.07,0.245,0.276
	C77.888,47.727,77.867,48.064,77.612,48.134z M78.866,50.54c0.003,0.122-0.068,0.258-0.142,0.363c-0.05,0.07-0.168,0.142-0.244,0.13
	c-0.104-0.016-0.119-0.145-0.105-0.245c0.02-0.133,0.052-0.265,0.088-0.437c0.088-0.21-0.267-0.715,0.177-0.692
	C78.989,49.679,78.859,50.22,78.866,50.54z M79.172,47.853c-0.138,0.262-0.003,0.682-0.37,0.781c-0.224-0.01-0.31-0.124-0.299-0.256
	c0.025-0.336,0.166-0.641,0.48-0.785C79.114,47.532,79.225,47.751,79.172,47.853z M78.688,45.874
	c0.012-0.163,0.014-0.368,0.257-0.319c0.151,0.029,0.162,0.186,0.149,0.323c-0.017,0.098-0.029,0.197-0.049,0.295
	c-0.025,0.118-0.002,0.308-0.15,0.311c-0.151,0.002-0.16-0.186-0.185-0.313C78.691,46.074,78.681,45.972,78.688,45.874z
	 M79.308,43.638c-0.032,0.205,0.077,0.532-0.262,0.535c-0.333,0.003-0.237-0.321-0.28-0.525c0.017-0.218-0.076-0.537,0.254-0.535
	C79.301,43.114,79.346,43.394,79.308,43.638z M79.252,40.955c0.035,0.157,0.014,0.327,0.016,0.45
	c-0.087,0.231,0.141,0.515-0.066,0.586c-0.135,0.046-0.216-0.287-0.294-0.469c-0.066-0.153-0.158-0.294-0.224-0.446
	c-0.075-0.173-0.056-0.34,0.142-0.408C79.074,40.583,79.205,40.744,79.252,40.955z M78.889,39.773
	c-0.257,0.008-0.28-0.224-0.355-0.384c-0.084-0.177-0.15-0.453,0.065-0.507c0.294-0.073,0.294,0.282,0.396,0.46
	C79.076,39.482,79.064,39.658,78.889,39.773z M78.734,36.922c0.014,0.028,0.015,0.064,0.024,0.096
	c0.101,0.326,0.159,0.649-0.097,0.933c-0.029,0.035-0.129,0.049-0.17,0.025c-0.326-0.187-0.214-0.52-0.259-0.831
	c-0.001-0.038-0.006-0.105-0.003-0.17c0.009-0.188-0.089-0.473,0.129-0.522C78.683,36.379,78.636,36.738,78.734,36.922z
	 M78.178,35.5c0.002,0,0.004,0.001,0.006,0.002l0.026,0.038l-0.038-0.027C78.175,35.509,78.176,35.504,78.178,35.5
	c-0.572-0.149-0.359-0.708-0.527-1.066c-0.056-0.12,0.144-0.278,0.336-0.292c0.208-0.015,0.317,0.097,0.317,0.289
	C78.303,34.791,78.343,35.159,78.178,35.5z M77.941,32.905c0.182-0.002,0.335,0.041,0.335,0.27c-0.012,0.171-0.13,0.233-0.272,0.215
	c-0.196-0.024-0.434-0.056-0.391-0.336C77.637,32.899,77.811,32.906,77.941,32.905z M77.06,31.937
	c0.022-0.004,0.049,0.014,0.073,0.021c-0.02,0.016-0.037,0.042-0.059,0.044c-0.023,0.004-0.05-0.014-0.074-0.021
	C77.02,31.966,77.037,31.94,77.06,31.937z M77.074,34.619c0.117,0.381,0.237,0.761,0.366,1.139c0.047,0.139,0.068,0.262-0.106,0.308
	c-0.155,0.042-0.27-0.056-0.305-0.189c-0.097-0.387-0.17-0.779-0.231-1.069c-0.02-0.232-0.067-0.416,0.069-0.454
	C77.048,34.301,77.036,34.498,77.074,34.619z M76.624,32.739c0.233,0.053,0.23,0.358,0.265,0.577
	c0.012,0.079-0.064,0.245-0.097,0.245c-0.31-0.005-0.184-0.27-0.239-0.432C76.583,32.991,76.491,32.71,76.624,32.739z
	 M75.775,37.869c-0.027,0-0.054,0.001-0.081,0.001c0.006-0.057,0.01-0.112,0.021-0.168c0.001-0.003,0.055,0.004,0.085,0.007
	C75.791,37.763,75.783,37.815,75.775,37.869z M76.224,40.246c0.002-0.158-0.054-0.405,0.144-0.415
	c0.337-0.018,0.257,0.334,0.332,0.531c0.064,0.171-0.031,0.377-0.223,0.363C76.209,40.706,76.272,40.43,76.224,40.246z
	 M76.421,46.069c0.031-0.076,0.095-0.118,0.162-0.075c0.043,0.027,0.085,0.121,0.067,0.16c-0.019,0.045-0.103,0.061-0.159,0.089
	C76.468,46.186,76.444,46.128,76.421,46.069z M76.672,50.193c-0.213,0.008-0.119-0.249-0.166-0.414
	c0.061-0.15-0.097-0.447,0.137-0.485c0.271-0.045,0.227,0.26,0.232,0.434C76.881,49.905,76.931,50.184,76.672,50.193z M76.8,44.749
	c-0.018,0.049-0.094,0.077-0.144,0.114c-0.033-0.047-0.091-0.092-0.097-0.143c-0.016-0.13-0.009-0.264-0.013-0.449
	c0.037-0.157-0.134-0.546,0.098-0.546c0.306,0,0.217,0.403,0.242,0.644C76.899,44.492,76.846,44.627,76.8,44.749z M76.77,42.575
	c-0.393-0.003-0.271-0.377-0.321-0.656c0.099-0.122-0.101-0.441,0.2-0.449c0.317-0.008,0.456,0.253,0.441,0.557
	C77.077,42.259,77.047,42.577,76.77,42.575z M76.985,55.259c-0.009,0-0.018,0.001-0.025,0.001l-0.018-0.039l0.029,0.027
	C76.976,55.252,76.98,55.255,76.985,55.259c0.075-0.004,0.158-0.035,0.197,0.071c0.002,0.002-0.057,0.041-0.068,0.033
	C77.068,55.334,77.027,55.296,76.985,55.259z M77.325,58.592c-0.055,0.008-0.142-0.021-0.172-0.063
	c-0.065-0.096-0.023-0.184,0.085-0.221c0.101-0.036,0.193-0.01,0.263,0.076C77.504,58.505,77.432,58.575,77.325,58.592z
	 M77.759,57.304c-0.017,0.081-0.078,0.11-0.152,0.074c-0.107-0.054-0.12-0.152-0.064-0.243c0.028-0.047,0.101-0.068,0.147-0.097
	C77.785,57.108,77.777,57.208,77.759,57.304z"/>
</svg>
