<?xml version="1.0" encoding="utf-8"?>
<!-- Generator: Adobe Illustrator 16.0.4, SVG Export Plug-In . SVG Version: 6.00 Build 0)  -->
<!DOCTYPE svg PUBLIC "-//W3C//DTD SVG 1.1//EN" "http://www.w3.org/Graphics/SVG/1.1/DTD/svg11.dtd">
<svg version="1.1" id="Layer_4104" xmlns="http://www.w3.org/2000/svg" xmlns:xlink="http://www.w3.org/1999/xlink" x="0px" y="0px"
	 width="128px" height="128px" viewBox="0 0 128 128" enable-background="new 0 0 128 128" xml:space="preserve">
<path fill-rule="evenodd" clip-rule="evenodd" d="M123.523,112.646c-0.352-2.554-1.143-4.814-3.281-6.65
	c-1.35-1.161-2.139-3.043-2.985-4.701c-0.876-1.716-1.159-3.348,0.291-5.188c1.771-2.248,1.279-4.906-0.19-7.156
	c-1.299-1.989-2.288-3.961-2.139-6.388c0.02-0.314-0.025-0.711-0.204-0.948c-1.876-2.494-1.43-5.467-1.692-8.275
	c-0.162-1.744-0.605-3.322-1.334-4.93c-1.058-2.332-2.127-4.729-1.296-7.477c0.437-1.443,0.12-2.924-0.527-4.315
	c-0.448-0.966-0.94-1.935-1.2-2.958c-0.405-1.589,0.13-2.585,1.698-2.984c1.475-0.374,2.493-1.494,3.854-2.038
	c0.507-0.203,0.959-0.568,1.53-0.712c2.206-0.553,2.24-0.575,1.729-2.753c-0.429-1.823-1.324-3.537-1.185-5.493
	c0.047-0.656-0.403-0.949-1.04-1.153c-2.145-0.688-2.67-3.034-1.008-4.5c0.495-0.436,0.777-0.864,0.574-1.474
	c-0.615-1.847-0.416-3.743-0.364-5.624c0.04-1.421-0.503-2.007-1.925-1.59c-0.484,0.143-0.942,0.176-1.436-0.032
	c-1.287-0.544-2.344-0.15-3.377,0.743c-1.355,1.172-2.699,2.394-4.764,2.181c-0.947-0.098-1.236,0.956-1.76,1.555
	c-0.647,0.74-1.232,1.671-2.422,1.261c-1.061-0.366-0.971-1.367-1.102-2.265c-0.188-1.295-0.506-2.571-0.739-3.86
	c-0.216-1.194-1.101-1.772-2.044-2.307c-2.154-1.22-4.467-2.086-6.811-2.828c-1.468-0.465-2.42-1.261-2.866-2.727
	c-0.311-1.019-0.718-2.007-1.049-3.019c-0.557-1.697-0.393-3.228,1.03-4.489c0.685-0.606,1.186-1.364,1.462-2.247
	c0.365-1.166,0.435-2.45-0.554-3.209c-1.861-1.43-3.502-3.2-5.845-3.967c-1.39-0.455-2.539-0.394-3.579,0.73
	c-1.003,1.085-2.062,2.12-3.114,3.159c-1.163,1.149-2.409,1.948-3.716,2.493c-0.149-0.05-0.336-0.062-0.606,0.004
	c-0.794,0.198-1.564,0.53-2.368,0.643c-1.154,0.162-2.301,0.282-3.429,0.327c-1.129-0.045-2.275-0.166-3.43-0.327
	c-0.804-0.113-1.574-0.445-2.368-0.643c-0.271-0.067-0.457-0.055-0.607-0.004c-1.305-0.545-2.551-1.344-3.715-2.493
	c-1.052-1.039-2.111-2.073-3.115-3.159c-1.039-1.124-2.189-1.185-3.579-0.73c-2.342,0.768-3.983,2.538-5.845,3.967
	c-0.988,0.759-0.919,2.043-0.554,3.209c0.276,0.883,0.777,1.641,1.462,2.247c1.423,1.261,1.586,2.792,1.03,4.489
	c-0.332,1.012-0.739,2-1.049,3.019c-0.446,1.466-1.399,2.262-2.867,2.727c-2.344,0.741-4.656,1.608-6.811,2.828
	c-0.942,0.534-1.828,1.113-2.043,2.307c-0.233,1.29-0.552,2.565-0.74,3.86c-0.13,0.898-0.04,1.898-1.101,2.265
	c-1.189,0.41-1.774-0.521-2.421-1.261c-0.523-0.599-0.813-1.652-1.759-1.555c-2.065,0.213-3.409-1.009-4.764-2.181
	c-1.033-0.893-2.089-1.287-3.377-0.743c-0.493,0.208-0.951,0.175-1.435,0.032c-1.421-0.417-1.964,0.169-1.925,1.59
	c0.052,1.881,0.25,3.777-0.364,5.624c-0.203,0.61,0.079,1.038,0.574,1.474c1.662,1.466,1.137,3.812-1.008,4.5
	c-0.637,0.205-1.087,0.497-1.04,1.153c0.14,1.956-0.756,3.669-1.185,5.493c-0.512,2.178-0.477,2.2,1.729,2.753
	c0.571,0.144,1.023,0.509,1.529,0.712c1.361,0.544,2.379,1.664,3.854,2.038c1.568,0.399,2.104,1.395,1.699,2.984
	c-0.26,1.022-0.752,1.992-1.201,2.958c-0.647,1.391-0.963,2.873-0.527,4.315c0.831,2.748-0.239,5.145-1.296,7.477
	c-0.729,1.607-1.172,3.186-1.334,4.93c-0.262,2.809,0.184,5.781-1.692,8.275c-0.178,0.237-0.223,0.634-0.203,0.948
	c0.149,2.427-0.84,4.398-2.139,6.388c-1.47,2.25-1.961,4.908-0.191,7.156c1.451,1.84,1.168,3.472,0.292,5.188
	c-0.847,1.658-1.636,3.54-2.986,4.701c-2.138,1.836-2.93,4.097-3.281,6.65c-0.302,2.192-0.435,4.408-0.606,6.219
	c0.061,2.142-0.077,3.623,1.566,5.198c2.738,2.624,2.967,3.027,6.357,1.075c0.806-0.465,1.587-0.822,2.556-0.584
	c1.715,0.422,3.214-0.238,4.164-1.522c1.321-1.784,2.825-2.255,4.863-1.612c0.531,0.167,1.142,0.07,1.716,0.107
	c0.487,0.03,1.04,0,1.288,0.527c0.991,2.109,3.518,2.762,4.551,4.869c0.344,0.703,1.3,0.532,2.033,0.609
	c2.487,0.259,4.598-1.055,6.84-1.719c1.677-0.496,3.667-0.465,4.94-1.981c0.878-1.045,1.959-1.389,3.273-1.274
	c1.284,0.111,2.394-0.182,3.31-1.229c1.071-1.228,2.774-1.333,3.834-0.577c1.289,0.921,3.263,1.659,3.767,2.703
	c0.969,2.009,2.777,1.995,4.157,2.936c0.443,0.301,0.823,0.42,1.173,0.396c0.35,0.023,0.729-0.096,1.172-0.396
	c1.38-0.94,3.188-0.927,4.157-2.936c0.504-1.044,2.479-1.782,3.768-2.703c1.06-0.756,2.763-0.65,3.834,0.577
	c0.916,1.048,2.026,1.341,3.31,1.229c1.314-0.114,2.396,0.229,3.274,1.274c1.272,1.517,3.262,1.485,4.939,1.981
	c2.242,0.664,4.354,1.978,6.84,1.719c0.734-0.077,1.689,0.094,2.034-0.609c1.032-2.107,3.56-2.76,4.551-4.869
	c0.247-0.527,0.801-0.497,1.288-0.527c0.573-0.037,1.186,0.06,1.717-0.107c2.037-0.643,3.541-0.172,4.861,1.612
	c0.95,1.284,2.449,1.944,4.165,1.522c0.968-0.238,1.749,0.119,2.556,0.584c3.39,1.952,3.619,1.549,6.356-1.075
	c1.644-1.575,1.505-3.057,1.565-5.198C123.959,117.055,123.825,114.839,123.523,112.646z"/>
</svg>
