<?xml version="1.0" encoding="utf-8"?>
<!-- Generator: Adobe Illustrator 16.0.4, SVG Export Plug-In . SVG Version: 6.00 Build 0)  -->
<!DOCTYPE svg PUBLIC "-//W3C//DTD SVG 1.1//EN" "http://www.w3.org/Graphics/SVG/1.1/DTD/svg11.dtd">
<svg version="1.1" id="Layer_4105" xmlns="http://www.w3.org/2000/svg" xmlns:xlink="http://www.w3.org/1999/xlink" x="0px" y="0px"
	 width="128px" height="128px" viewBox="0 0 128 128" enable-background="new 0 0 128 128" xml:space="preserve">
<g>
	<path d="M118.003,107.549c-0.109-0.018-0.284,0.008-0.275-0.141c0.004-0.072,0.173-0.162,0.282-0.197
		c0.303-0.102,0.148-0.196,0.121-0.604c-0.392-0.16,0.369-0.508-0.631-0.743c0-0.008,0-0.016,0-0.023c0-0.05,0-0.099,0-0.148
		c0-0.008,0-0.016,0-0.023c0-0.407-0.174-0.536-0.361-0.826c-0.193-0.302,0.305-0.812,0.115-1.229
		c-0.077-0.167-0.049-0.329-0.128-0.495c-0.378-0.786-1.164-1.117-1.638-1.855c-0.933-1.45-2.086-2.738-3.441-3.806
		c-0.786-0.618-1.294-1.457-2.064-2.091c-0.62-0.51-1.235-1.153-1.311-2.12c-0.029-0.38,0.245-0.884-0.246-1.197
		c-0.07-0.046,0.046-0.162,0.124-0.196c0.326-0.139,0.31-0.393,0.294-0.692c-0.041-0.718,0.457-1.095,0.96-1.491
		c0.333-0.26,0.885-0.423,0.865-0.926c-0.03-0.765,0.184-1.314,0.864-1.715c0.223-0.132,0.893-0.221,0.361-0.775
		c-0.014-0.013,0.04-0.127,0.086-0.15c0.754-0.387,1.184-1.176,1.869-1.599c0.661-0.407,0.166-0.427-0.072-0.583
		c0.161-0.067,0.322-0.136,0.484-0.203c-0.21-0.266-0.342-0.541-0.107-0.862c-1.177-0.148-0.158-0.249,0.01-0.364
		c0.362-0.248,0.057-0.8,0.474-1.038c0.062-0.034-0.082-0.16-0.159-0.151c-0.148,0.015-0.291,0.09-0.44,0.108
		c-0.206,0.025-0.392-0.083-0.43-0.269c-0.046-0.227,0.219-0.146,0.327-0.23c0.102-0.08,0.322-0.048,0.26-0.281
		c-0.111-0.412-0.109-0.419,0.106-0.604c-0.453-0.012-0.444-0.261-0.197-0.507c0.501-0.498,0.341-0.997,0.112-1.537
		c-0.143-0.338-0.216-0.817,0.064-1.008c0.467-0.317,0.285-0.57,0.076-0.856c-0.479-0.657,0.604-1.399-0.125-2.032
		c0.043-0.043,0.086-0.087,0.131-0.129c0.102-0.095,0.325-0.096,0.262-0.303c-0.01-0.031-0.223-0.012-0.34,0
		c-0.276,0.03-0.555,0.103-0.689-0.264c-0.137-0.37,0.209-0.393,0.373-0.527c0.189-0.155,0.407-0.28,0.539-0.495
		c0.055-0.088,0.221-0.171,0.062-0.303c-0.719-0.591-1.143-1.412-1.685-2.142c-0.084-0.111-0.352,0.455-0.216,0.355
		c0.521-0.386,0.182-0.779,0.513-0.779c-0.116,0-0.233,0-0.352,0c-0.004,0-0.007-0.693-0.011-0.697
		c-0.033,0.01-0.732-0.279-0.806-0.299c0.018-0.051-0.514-0.338-0.514-0.355c0,0,0-0.017,0-0.025c0,0.001,0,0.002,0,0.002
		s0-0.002,0-0.003c0,0.013,0.607,0.027,0.624,0.026c0.041-0.005,0.368-0.02,0.409-0.031c0.004,0.004,0.15,0.701,0.154,0.704
		l0.151,0.679c-0.008,0-0.017,0-0.024,0c-0.046,0-0.092-0.786-0.139-0.834c0.155-0.207,0.308-0.799,0.469-0.994
		c0.16-0.192,0.205-0.619,0.036-0.79c-0.577-0.589-0.884-1.489-1.436-2.063c-0.746-0.774-0.883-1.638-0.617-2.599
		c0.167-0.605,0.278-1.246,0.091-1.854c-0.256-0.826-0.398-1.688-0.639-2.519c-0.317-1.097-0.871-2.146-0.86-3.333
		c0.005-0.5-0.358-0.797-0.77-0.945c-0.818-0.293-1.715-0.547-2.542-0.413c-1.453,0.237-2.755-0.223-4.1-0.54
		c-0.524-0.123-0.955-0.427-1.365-0.765c-0.814-0.67-1.512-1.463-2.205-2.248c-0.506-0.574-0.877-1.265-0.79-2.106
		c0.043-0.416-0.014-0.826-0.36-1.129l0.002-0.001c0.242-0.381,0.416-0.843,0.743-1.129c0.759-0.664,1.578-1.268,2.547-1.613
		c0.455-0.162,0.829-0.433,1.072-0.844c0.973-1.643,1.772-3.399,3.3-4.66c0.357-0.295-0.062-0.256-0.22-0.313
		c0.093-0.313,0.345-0.514,0.595-0.658c0.303-0.175,0.292-0.409,0.297-0.683c0.003-0.115,0.085-0.222-0.069-0.304
		c-0.632-0.337-0.44-0.731-0.101-1.171c0.56-0.724,0.545-0.812-0.324-1.151c-0.201-0.078-0.335-0.05-0.234-0.294
		c-0.197-0.056-0.254-0.164-0.072-0.303c0.241-0.188,0.504-0.35,0.753-0.527c0.284-0.204,0.371-0.33-0.034-0.566
		c-0.28-0.164-0.684-0.467-0.286-0.951c0.112-0.137,0.052-0.396-0.216-0.363c-0.73,0.09-0.736-0.377-0.623-0.845
		c0.119-0.485-0.052-0.864-0.374-1.136c-0.361-0.305-0.59-0.677-0.813-1.069c-0.774-0.073-1.05-0.945-1.77-1.111
		c-0.047-0.011-0.103-0.084-0.115-0.137c-0.152-0.633-0.713-0.833-1.172-1.164c-1.709-1.23-3.453-2.446-3.953-4.697
		c-0.029-0.134-0.099-0.216-0.208-0.285c-0.87-0.545-1.169-1.547-1.802-2.29c-0.772-0.906-1.674-1.572-2.711-2.103
		c-0.644-0.329-1.438-0.489-1.588-1.397c-0.04-0.245-0.242-0.412-0.429-0.572c-0.336,0.063-0.473-0.192-0.558-0.418
		c-0.1-0.264-0.519-0.59-0.536-0.706l0.036,0.026l0.072-0.042c0.005,0.001,0.027,0.005,0.032,0.006
		c-0.032-0.145-0.007-0.335-0.181-0.383c-1.148-0.314-1.385-1.181-1.314-2.203c0.035-0.493-0.488-0.867-0.238-1.383
		c-0.331-0.039-0.521-0.164-0.483-0.559c0.093-0.965-0.759-1.485-1.104-2.249c-0.073-0.162-0.26-0.139-0.414-0.139
		c-0.195,0.001-0.432-0.042-0.498-0.196c-0.237-0.547-0.742-0.571-1.205-0.715c-0.939-0.292-1.877-0.592-2.805-0.919
		c-1.292-0.454-2.476-1.132-3.567-1.943C76.632,1.92,76.32,1.78,75.853,1.886c-0.446,0.102-0.89,0.145-1.369,0.028
		c-1.876-0.455-3.676-1.163-5.626-1.396c-1.208-0.144-2.383-0.67-3.595-0.962c-0.021-0.005-0.312,0.003-0.331,0.001
		C64.886-0.489,64.5-0.52,64.5-0.538v0.095c0,0.007,0.174,0.016,0.127,0.033c-0.051-0.039,0.021-0.067-0.119-0.034
		c-0.102,0.024-0.341,0.057-0.44,0.085C63.923-0.456,63.5-0.51,63.5-0.538v0.3c-1,0.289-1.585,0.642-2.549,0.756
		c-1.95,0.232-3.586,0.941-5.461,1.396c-0.479,0.117-0.841,0.073-1.287-0.028c-0.468-0.106-0.739,0.034-1.125,0.321
		c-1.093,0.811-2.255,1.489-3.547,1.943c-0.928,0.327-1.855,0.627-2.795,0.919c-0.463,0.144-0.962,0.168-1.2,0.715
		c-0.067,0.154-0.301,0.197-0.495,0.196c-0.155,0-0.341-0.023-0.415,0.139c-0.344,0.763-1.197,1.283-1.104,2.249
		c0.038,0.395-0.153,0.52-0.485,0.559c0.251,0.516-0.276,0.89-0.241,1.383c0.071,1.022-0.174,1.889-1.322,2.203
		c-0.171,0.047-0.164,0.233-0.195,0.377l-0.444,0.042L40.3,12.9c0.003,0.113,0.136,0.443,0.036,0.71
		c-0.085,0.227,0.127,0.481-0.209,0.418c-0.186,0.16-0.274,0.327-0.314,0.572c-0.149,0.908-0.887,1.068-1.53,1.397
		c-1.039,0.531-1.911,1.197-2.683,2.103c-0.633,0.742-0.917,1.744-1.788,2.29c-0.109,0.069-0.171,0.15-0.201,0.285
		c-0.5,2.251-2.24,3.467-3.949,4.697c-0.459,0.331-1.018,0.531-1.17,1.164c-0.012,0.053-0.066,0.126-0.114,0.137
		c-0.719,0.166-0.995,1.038-1.769,1.111c-0.223,0.393-0.452,0.765-0.812,1.069c-0.323,0.271-0.493,0.65-0.375,1.136
		c0.114,0.467,0.107,0.935-0.623,0.845c-0.267-0.033-0.327,0.227-0.215,0.363c0.397,0.484-0.006,0.787-0.287,0.951
		c-0.405,0.236-0.318,0.362-0.033,0.566c0.249,0.178,0.511,0.339,0.753,0.527c0.181,0.14,0.124,0.248-0.072,0.303
		c0.101,0.245-0.033,0.216-0.235,0.294c-0.869,0.339-0.883,0.428-0.323,1.151c0.34,0.439,0.53,0.834-0.101,1.171
		c-0.154,0.082-0.072,0.188-0.07,0.304c0.006,0.274-0.005,0.508,0.297,0.683c0.25,0.145,0.501,0.345,0.595,0.658
		c0.005-0.001,0.013-0.003,0.018-0.005c0.015,0.016,0.029,0.031,0.044,0.047c-0.019-0.011-0.034-0.026-0.057-0.034
		c-0.001-0.003-0.004-0.005-0.005-0.008c-0.158,0.057-0.577,0.018-0.22,0.313c1.527,1.261,2.327,3.017,3.3,4.66
		c0.243,0.412,0.617,0.682,1.072,0.844c0.969,0.346,1.788,0.949,2.547,1.613c0.327,0.286,0.5,0.748,0.743,1.129l0.014-0.013
		l0.035,0.053l-0.048-0.039c-0.346,0.303-0.403,0.713-0.36,1.129c0.086,0.841-0.284,1.532-0.791,2.106
		c-0.693,0.785-1.39,1.578-2.205,2.248c-0.41,0.337-0.84,0.642-1.364,0.765c-1.345,0.317-2.647,0.776-4.1,0.539
		c-0.827-0.136-1.724,0.117-2.542,0.411c-0.412,0.148-0.774,0.442-0.769,0.942c0.01,1.187-0.543,2.231-0.86,3.328
		c-0.241,0.831-0.384,1.683-0.639,2.508c-0.188,0.608-0.076,1.228,0.091,1.833c0.265,0.96,0.128,1.78-0.617,2.556
		c-0.552,0.573-0.858,1.387-1.436,1.976c-0.168,0.171-0.124,0.425,0.036,0.617c0.178,0.214,0.343,0.492,0.514,0.712
		c0,0-0.001,0.037-0.002,0.07c-0.116-0.002-0.237-0.003-0.238-0.004c-0.062,0.008-0.574,0.015-0.591,0.021
		c0.017,0.016,0.37,0.127,0.354,0.126c-0.041-0.005,0.101,0.563,0.06,0.552c-0.004,0.004,0.221,0.697,0.218,0.697
		c-0.118,0-0.235,0-0.352,0c0.332,0-0.008,0.394,0.514,0.779c0.136,0.1-0.132-0.227-0.216-0.115
		c-0.542,0.729-0.966,1.431-1.684,2.021c-0.16,0.131,0.006,0.154,0.061,0.242c0.132,0.215,0.35,0.311,0.54,0.466
		c0.164,0.135,0.51,0.142,0.374,0.513c-0.135,0.365-0.414,0.286-0.69,0.256c-0.117-0.012-0.329-0.035-0.339-0.004
		c-0.064,0.207,0.16,0.206,0.261,0.302c0.045,0.041,0.088,0.083,0.132,0.126c-0.729,0.633,0.353,1.376-0.125,2.032
		c-0.208,0.287-0.39,0.539,0.076,0.856c0.281,0.19,0.208,0.67,0.065,1.008c-0.229,0.54-0.389,1.039,0.112,1.537
		c0.248,0.246,0.256,0.495-0.197,0.507c0.215,0.186,0.217,0.192,0.106,0.604c-0.063,0.233,0.158,0.201,0.26,0.281
		c0.108,0.084,0.373,0.004,0.327,0.23c-0.038,0.186-0.225,0.294-0.43,0.269c-0.149-0.019-0.292-0.094-0.44-0.108
		c-0.078-0.009-0.221,0.117-0.16,0.151c0.417,0.238,0.112,0.79,0.474,1.038c0.167,0.115,1.186,0.216,0.009,0.364
		c0.235,0.321,0.103,0.597-0.106,0.862c0.161,0.067,0.323,0.136,0.484,0.203c0.002-0.002,0.006-0.004,0.008-0.005l0.013,0.013
		c-0.007-0.003-0.014-0.005-0.021-0.008c-0.239,0.156-0.734,0.176-0.072,0.583c0.686,0.423,1.114,1.212,1.869,1.599
		c0.045,0.023,0.099,0.138,0.086,0.15c-0.532,0.555,0.139,0.644,0.361,0.775c0.681,0.4,0.895,0.95,0.864,1.715
		c-0.02,0.503,0.533,0.666,0.865,0.926c0.503,0.396,1,0.773,0.96,1.491c-0.017,0.3-0.034,0.554,0.292,0.692
		c0.078,0.034,0.193,0.15,0.123,0.196c-0.491,0.313-0.219,0.817-0.249,1.197c-0.075,0.967-0.696,1.61-1.315,2.12
		c-0.771,0.634-1.289,1.473-2.075,2.091c-1.355,1.067-2.53,2.355-3.462,3.806c-0.475,0.738-1.304,1.069-1.681,1.855
		c-0.08,0.166-0.137,0.328-0.213,0.495c-0.19,0.416-0.59,0.927-0.784,1.229c-0.188,0.29-1.43,0.419-1.43,0.826
		c0,0.008,0,0.016,0,0.023c0,0.05,0,0.099,0,0.148c0,0.008,0,0.016,0,0.023c-1,0.235,0.829,0.583,0.438,0.743
		c-0.028,0.407,0.522,0.502,0.826,0.604c0.109,0.035,0.575,0.125,0.579,0.197c0.008,0.148-0.132,0.123-0.242,0.141
		c-0.183,0.027-0.423,0.019-0.466,0.201c-0.058,0.239,0.247,0.206,0.385,0.296c0.051,0.033,0.135,0.04,0.167,0.083
		c0.436,0.592,0.588,0.711,1.155,0.987c0.191,0.094,0.74,0.018,0.249,0.518c-0.19,0.192,0.399,0.237,0.314,0.563
		c-0.083,0.32,0.568,0.576,0.104,0.952c0.306,0.183,0.682,0.338,0.318,0.79c0.61,0.299,0.828,0.729,0.469,1.365
		c-0.02,0.036,0.09,0.152,0.148,0.223c0.586,0.717,1.185,1.422,1.754,2.151c0.258,0.329,0.569,0.608,0.687,1.065
		c0.165,0.641,0.866,0.813,1.35,0.99c0.647,0.237,0.94,0.701,1.349,1.146c0.515,0.559,0.754,1.385,1.644,1.621
		c0.302,0.08,0.63,0.014,0.871,0.147c0.376,0.21,0.967,0.073,1.121,0.655c0.867-0.02,1.515,0.763,2.467,0.586
		c0.87-0.161,1.752-0.205,2.605-0.507c0.324-0.114,0.869-0.13,0.751,0.561c-0.029,0.17-0.043,0.319,0.21,0.43
		c0.66,0.285,1.435,0.436,1.677,1.299c0.083,0.296,0.456-0.251,0.601,0.118c0.08,0.203,0.317,0.034,0.387,0.123
		c0.427,0.543,0.932,0.649,1.477,0.275c0.163-0.111,0.269-0.398,0.529-0.221c0.216,0.148,0.14,0.384,0.107,0.601
		c-0.028,0.183-0.09,0.382-0.046,0.55c0.074,0.282-0.032,0.779,0.555,0.61c0.332,0.649,1.229,0.173,1.595,0.806
		c0.086,0.151,0.331-0.106,0.511-0.085c0.177,0.021,0.632-0.833,0.537,0.171c-0.02,0.203,0.341,0.104,0.541-0.005
		c0.197-0.108,0.305-0.532,0.577-0.328c0.185,0.138,0.118,0.643,0.057,0.888c-0.172,0.684,0.188,0.324,0.389,0.324
		c0.002,0,0.003,0,0.004,0c0.057,0,0.113-0.251,0.17-0.307c-0.001-0.006-0.001-0.037-0.002-0.043l0.006-0.059
		c0.006,0.04,0.013,0.031,0.02,0.08c0.198,0.248,0.45,0.393,0.733,0.293c0.012,0.005,0.023,0.035,0.035,0.035
		c0.033,0,0.065,0,0.098,0c0.016,0,0.032,0,0.048,0c0.005,0,0.009-0.042,0.013-0.046c0.357,0.096,0.71,0.22,1.037-0.021
		c0.246,0.486,0.602,0.213,0.945,0.097c0.055-0.019,0.149-0.058,0.179-0.027c0.602,0.61,1.232,0.081,1.849,0.039
		c0.214-0.015,0.442-0.096,0.615,0.088c0.473,0.504,1.068,0.212,1.612,0.272c0.624,0.07,1.127,0.051,1.721-0.352
		c0.633-0.427,1.36-0.849,2.194-0.925c0.4-0.035,0.838-0.142,1.115-0.417c0.434-0.434,0.929-0.431,1.439-0.359
		c1.504,0.213,3-0.166,4.495-0.043c0.861,0.07,1.72-0.043,2.6,0.237c0.581,0.185,1.314,0.457,2-0.035
		c0.383-0.274,0.803,0.026,1.036,0.337c0.479,0.639,1.214,0.314,1.787,0.592c0.004,0.002,0.006,0,0.008,0.001
		c0.017,0.007,0.033,0.002,0.05,0.003c0.017-0.001,0.032,0.004,0.047-0.003c0.005-0.002,0.009,0.002,0.015-0.001
		c0.572-0.277,1.322,0.047,1.801-0.592c0.234-0.311,0.662-0.611,1.044-0.337c0.687,0.492,1.424,0.22,2.005,0.035
		c0.879-0.28,1.74-0.167,2.602-0.237c1.494-0.123,2.991,0.256,4.496,0.043c0.51-0.071,1.005-0.074,1.439,0.359
		c0.275,0.275,0.714,0.381,1.115,0.416c0.833,0.076,1.562,0.497,2.193,0.924c0.595,0.402,1.098,0.42,1.722,0.35
		c0.545-0.061,1.14,0.229,1.612-0.275c0.172-0.184,0.4-0.109,0.615-0.096c0.616,0.042,1.247,0.558,1.848-0.053
		c0.031-0.03,0.125-0.02,0.18,0c0.344,0.115,0.7,0.332,0.945-0.154c0.326,0.24,0.68,0.229,1.037,0.134
		c0.004,0.004,0.008,0.046,0.012,0.046c0.017,0,0.033,0,0.049,0c0.032,0,0.065,0,0.098,0c0.012,0,0.023-0.044,0.035-0.05
		c0.283,0.101,0.535,0.054,0.733-0.194c0.005-0.039,0.01-0.116,0.016-0.142c0.002,0.003,0.005-0.023,0.007-0.021
		c0.001-0.005,0.002-0.025,0.002-0.029l-0.009-0.002c0.001-0.006,0.003-0.016,0.004-0.023l0.005,0.001
		c0,0.005-0.001,0.148-0.002,0.154c0.057,0.055,0.113,0.306,0.17,0.306c0.002,0,0.003,0,0.004,0c0.201,0,0.561,0.359,0.39-0.324
		c-0.062-0.245-0.128-0.638,0.057-0.775c0.272-0.204,0.38,0.164,0.577,0.272c0.2,0.109,0.561,0.181,0.541-0.023
		c-0.096-1.004,0.359-0.163,0.536-0.185c0.181-0.021,0.425,0.229,0.511,0.078c0.366-0.634,1.264-0.16,1.595-0.811
		c0.588,0.17,0.481-0.329,0.556-0.611c0.043-0.168-0.018-0.368-0.046-0.551c-0.034-0.217-0.109-0.453,0.106-0.602
		c0.26-0.178,0.366,0.109,0.529,0.221c0.545,0.374,1.051,0.268,1.477-0.275c0.07-0.089,0.308,0.08,0.387-0.123
		c0.145-0.369,0.518,0.178,0.602-0.118c0.242-0.863,1.018-1.014,1.677-1.299c0.254-0.11,0.239-0.26,0.21-0.43
		c-0.117-0.69,0.428-0.675,0.752-0.561c0.853,0.302,1.735,0.346,2.605,0.507c0.952,0.177,1.6-0.605,2.467-0.586
		c0.153-0.582,0.744-0.445,1.121-0.655c0.241-0.134,0.568-0.067,0.871-0.147c0.889-0.236,1.129-1.062,1.644-1.621
		c0.409-0.445,0.702-0.909,1.349-1.146c0.484-0.177,1.186-0.35,1.35-0.99c0.118-0.457,0.429-0.736,0.688-1.065
		c0.569-0.729,1.168-1.435,1.754-2.151c0.059-0.07,0.168-0.187,0.148-0.223c-0.359-0.637-0.142-1.066,0.469-1.365
		c-0.363-0.452,0.013-0.607,0.317-0.79c-0.464-0.376,0.188-0.632,0.104-0.952c-0.086-0.326,0.503-0.371,0.312-0.563
		c-0.49-0.5,0.057-0.424,0.248-0.518c0.568-0.276,0.718-0.396,1.153-0.987c0.032-0.043,0.112-0.05,0.163-0.083
		c0.139-0.09,0.435-0.057,0.377-0.296C118.442,107.567,118.186,107.576,118.003,107.549z M112.371,68.11l0.004,0.056
		c-0.033-0.02-0.059-0.037-0.061-0.043c0.004-0.006,0.037-0.013-0.021-0.02C112.291,68.105,112.373,68.107,112.371,68.11z
		 M25.291,38.004c-0.005-0.024-0.02-0.039-0.03-0.058c0.014,0.015,0.028,0.029,0.042,0.044l0.023,0.025L25.291,38.004z
		 M25.917,30.947c-0.02,0.005-0.056-0.007-0.069-0.023c-0.047-0.056-0.028-0.093,0.046-0.091c0.018,0.001,0.035,0.031,0.052,0.048
		C25.936,30.905,25.931,30.943,25.917,30.947z"/>
</g>
</svg>
