<?xml version="1.0" encoding="utf-8"?>
<!-- Generator: Adobe Illustrator 16.0.4, SVG Export Plug-In . SVG Version: 6.00 Build 0)  -->
<!DOCTYPE svg PUBLIC "-//W3C//DTD SVG 1.1//EN" "http://www.w3.org/Graphics/SVG/1.1/DTD/svg11.dtd">
<svg version="1.1" id="Layer_4108" xmlns="http://www.w3.org/2000/svg" xmlns:xlink="http://www.w3.org/1999/xlink" x="0px" y="0px"
	 width="128px" height="128px" viewBox="0 0 128 128" enable-background="new 0 0 128 128" xml:space="preserve">
<g>
	<path d="M115.557,101.329c0.176-0.774,0.33-1.556,0.496-2.334c0.908-4.574,1.948-11.276,2.423-13.688
		c0.351-2.379,0.651-4.765,0.896-7.157c0.275-2.698,0.526-5.397,0.717-8.104c0.161-2.31,0.306-4.619,0.449-6.933
		c0.257-4.128,0.52-8.259,0.514-12.396c-0.007-4.802,0.148-9.588,0.81-14.352c0.396-2.849,0.896-5.679,1.534-8.485
		c1.039-4.58,2.35-9.086,3.734-13.573c0.545-1.77,0.46-3.527-0.234-5.243c-1.186-2.928-4.325-5.38-8.389-4.789
		c-2.653,0.384-5.318,0.632-7.991,0.822c-4.138,0.292-8.265,0.188-12.395-0.15c-2.274-0.187-4.535-0.518-6.811-0.681
		c-2.871-0.206-5.756-0.042-8.635-0.078c-4.126-0.052-8.178,0.464-12.17,1.506c-6.093,1.589-11.693,4.225-16.679,8.063
		c-5.374,4.137-10.671,8.374-15.985,12.588c-3.418,2.713-6.809,5.459-10.269,8.12c-2.967,2.282-5.749,4.766-8.151,7.654
		C12.949,49.903,9.117,58.763,8.426,68.913c-0.266,3.927-0.555,7.853-0.792,11.78c-0.232,3.835-0.7,7.639-1.45,11.404
		c-0.589,2.951-1.25,5.884-2.396,8.683c-0.664,1.622-1.242,3.274-1.668,4.979c-0.578,2.3-0.919,4.608-0.249,6.954
		c0.752,2.63,2.056,4.867,4.505,6.279c1.292,0.746,2.643,1.365,4.057,1.85c4.043,1.385,8.222,1.957,12.477,2.058
		c3.278,0.077,6.551-0.017,9.808-0.43c2.657-0.336,5.318-0.659,7.917-1.331c5.021-1.297,10.122-1.967,15.305-1.982
		c4.239-0.012,8.451,0.396,12.66,0.909c5.189,0.632,10.314,1.59,15.419,2.713c3.037,0.669,6.114,1.105,9.236,1.163
		c2.961,0.057,5.893-0.116,8.714-1.093c5.157-1.782,8.6-5.177,10.493-9.997c-0.136-0.038-0.219-0.062-0.219-0.062
		S114.474,105.923,115.557,101.329z M113.904,31.198c-0.142,0.846-0.275,1.692-0.422,2.538c-0.378,2.182-0.525,4.391-0.781,6.585
		c-0.066,0.586-0.261,1.098-0.75,1.448c-0.601,0.43-1.25,0.587-1.954,0.25c-0.753-0.358-1.201-0.949-1.189-1.788
		c0.012-0.791,0.089-1.583,0.181-2.37c0.271-2.36,0.549-4.721,0.959-7.063c0.204-1.159,1.194-1.961,2.228-1.799
		C113.311,29.176,114.004,30.2,113.904,31.198z M111.139,13.794c1.34-0.16,2.689-0.262,4.034-0.389
		c0.462-0.015,0.922-0.059,1.362,0.143c0.879,0.404,1.32,1.376,1.047,2.416c-0.363,1.369-0.738,2.735-1.145,4.092
		c-0.371,1.229-1.34,1.771-2.523,1.467c-1.014-0.261-1.557-1.346-1.271-2.538c0.335-1.403,0.335-1.403-1.083-1.31
		c-1.201,0.079-2.137-0.649-2.242-1.742C109.206,14.786,109.893,13.944,111.139,13.794z M84.4,12.833
		c1.139,0.04,1.979,0.856,2.006,1.914c0.027,1.032-0.812,1.926-1.931,1.999c-0.658,0.043-1.322,0.021-1.982,0.014
		c-1.689-0.018-3.367,0.077-5.034,0.368c-0.454,0.079-0.919,0.108-1.368-0.072c-0.828-0.33-1.362-1.191-1.257-2.046
		c0.113-0.919,0.792-1.623,1.758-1.746c1.868-0.239,3.733-0.514,5.274-0.435C82.945,12.829,83.673,12.808,84.4,12.833z
		 M52.177,20.474c0.164-0.789,0.567-1.414,1.403-1.642c1.366-0.374,2.589,0.572,2.488,1.993c-0.062,0.886-0.282,1.759-0.421,2.64
		c-0.299,1.896-0.546,3.799-0.62,5.72c-0.012,0.294-0.057,0.594-0.129,0.88c-0.23,0.908-0.938,1.452-1.874,1.462
		c-1.193,0.015-2.063-0.861-1.979-2.105C51.244,26.419,51.56,23.426,52.177,20.474z M39.939,37.302
		c0.389-0.465,0.885-0.654,1.482-0.653c0.798,0.001,1.574,0.167,2.349,0.318c2.106,0.411,4.211,0.781,6.371,0.753
		c0.939-0.012,1.653,0.397,2.018,1.306c0.306,0.761,0.101,1.419-0.421,2.005c-0.322,0.363-0.736,0.559-1.218,0.576
		c-0.494,0.018-0.989,0.005-1.483,0.005c-2.322-0.01-4.577-0.534-6.851-0.919c-0.453-0.078-0.923-0.117-1.354-0.265
		C39.459,39.957,39.027,38.394,39.939,37.302z M14.5,106.285c0,0.263,0.389,0.525,0.385,0.785c-0.007,0.429,0.343,0.52,0.422,0.869
		c0.099,0.434,0.137,0.64,0.366,1.062c0.188,0.35,0.263,0.354,0.592,0.544c0.693,0.398,1.834,0.632,2.012,1.524
		c0.26,1.303-0.772,2.58-2.13,2.354c-1.702-0.284-3.324-0.833-4.862-1.626c-0.712-0.369-1.064-0.967-1.08-1.76
		c-0.006-0.329,0.002-0.666,0.062-0.987c0.255-1.366,0.629-2.701,1.155-3.989c0.357-0.878,1.265-1.396,2.198-1.355
		c0.324,0.015,1.036,0.121,1.279,0.352c0.157,0.15-0.108,0.639-0.064,0.863c0.067,0.345-0.335,0.691-0.335,1.051
		C14.5,106.077,14.5,106.182,14.5,106.285z M18.299,82.143c0.969,0.106,1.623,0.861,1.653,1.907c0.004,0.165,0.001,0.33,0.001,0.356
		c-0.28,3.304-0.698,6.448-1.31,9.562c-0.284,1.443-1.358,2.126-2.581,1.723c-0.953-0.314-1.431-1.073-1.292-2.174
		c0.137-1.081,0.327-2.157,0.505-3.231c0.319-1.924,0.556-3.859,0.736-5.801c0.027-0.297,0.053-0.596,0.127-0.881
		C16.412,82.568,17.231,82.024,18.299,82.143z M16.975,70.831c0.201-2.771,0.393-5.539,1.201-8.219
		c0.123-0.411,0.221-0.831,0.375-1.231c0.41-1.064,1.276-1.516,2.375-1.265c0.97,0.221,1.525,1.078,1.379,2.202
		c-0.055,0.422-0.2,0.833-0.31,1.247c-0.46,1.727-0.819,3.467-0.902,5.261c-0.051,1.122-0.115,2.253-0.337,3.348
		c-0.302,1.482-2.104,1.989-3.193,0.964c-0.348-0.328-0.578-0.723-0.587-1.216C16.971,71.558,16.975,71.194,16.975,70.831z
		 M37.768,112.894c-0.89,0.234-1.81,0.354-2.719,0.513c-0.617,0.108-1.235,0.217-1.856,0.287c-1.474,0.166-2.952,0.31-4.427,0.462
		c0-0.012-0.002-0.024-0.003-0.037c-0.198,0.009-0.396,0.026-0.594,0.025c-1.208-0.006-2.01-0.711-2.061-1.805
		c-0.051-1.125,0.733-2.032,1.9-2.112c0.757-0.053,1.512-0.094,2.268-0.174c2.034-0.211,4.054-0.506,6.068-0.854
		c0.228-0.039,0.457-0.077,0.686-0.096c1.075-0.085,1.926,0.521,2.131,1.504C39.378,111.648,38.831,112.616,37.768,112.894z
		 M57.851,110.521c-2.344,0.014-4.687-0.027-7.024,0.19c-0.591,0.056-1.184,0.096-1.775,0.149c-1.185,0.108-2.116-0.536-2.266-1.574
		c-0.177-1.231,0.472-2.13,1.735-2.301c2.162-0.292,4.336-0.391,6.516-0.383c0.958,0,1.916-0.021,2.872,0.007
		c1.239,0.036,1.997,0.811,1.991,1.982C59.893,109.739,59.098,110.515,57.851,110.521z M54.488,49.627
		c-2.628,0.749-5.289,0.702-7.968,0.367c-3.181-0.396-6.322-1.072-9.521-1.34c-2.083-0.175-4.162-0.142-6.24,0.096
		c-0.406,0.046-0.648,0.287-0.899,0.554c-0.84,0.894-1.567,1.879-2.341,2.828c-0.906,1.112-2.437,1.057-3.206-0.09
		c-0.126-0.187-0.212-0.411-0.284-0.627c-0.228-0.683-0.226-0.692-0.884-0.352c-1.713,0.891-3.271,1.997-4.659,3.343
		c-2.54,2.458-4.345,5.394-5.636,8.665c-0.128,0.325-0.205,0.675-0.445,0.948c0.001,0.015-0.001,0.03,0.001,0.045
		c-0.008,0.008-0.016,0.015-0.024,0.022c-0.001,0.05,0,0.1-0.007,0.149c-0.008,0.062-0.029,0.123-0.043,0.183
		c-0.142-0.042-0.073-0.143-0.048-0.215c0.015-0.044,0.059-0.08,0.098-0.117c0-0.013,0.001-0.026,0.002-0.04
		c0.008-0.008,0.013-0.018,0.021-0.027c-0.057-0.592,0.123-1.154,0.264-1.712c0.841-3.311,2.001-6.503,3.548-9.553
		c0.257-0.506,0.582-0.944,1.018-1.321c3.279-2.843,7.081-4.595,11.326-5.395c3.876-0.731,7.763-0.623,11.653-0.065
		c2.518,0.36,5.016,0.868,7.548,1.131c1.92,0.2,3.824,0.171,5.706-0.339c2.38-0.645,3.966-2.133,4.894-4.396
		c0.798-1.945,1.176-3.99,1.524-6.042c0.381-2.253,0.427-4.54,0.623-6.812c0.363-4.223,0.885-8.417,2.515-12.387
		c1.016-2.477,2.41-4.701,4.286-6.618c0.429-0.437,0.909-0.736,1.496-0.926c3.41-1.112,6.913-1.752,10.479-2.07
		c0.396-0.036,0.795-0.025,1.191-0.028c0.096-0.001,0.192,0.028,0.288,0.043c-0.068,0.142-0.208,0.083-0.314,0.103
		c-0.391,0.076-0.783,0.133-1.171,0.209c-2.551,0.502-4.985,1.313-7.192,2.72c-1.926,1.227-3.495,2.819-4.741,4.729
		c-0.365,0.561-0.328,0.612,0.319,0.688c1.071,0.125,1.701,0.664,1.879,1.606c0.161,0.852-0.312,1.73-1.23,2.157
		c-1.021,0.473-2.031,0.965-3.015,1.512c-0.448,0.248-0.658,0.575-0.771,1.066c-0.486,2.1-0.71,4.235-0.918,6.374
		c-0.275,2.828-0.238,5.685-0.784,8.489c-0.455,2.337-0.89,4.675-1.897,6.859c-0.476,1.032-1.057,1.991-1.835,2.812
		C58.735,47.23,55.264,49.406,54.488,49.627z M80.688,111.199c-0.139,0.842-0.901,1.498-1.815,1.538
		c-0.294,0.015-0.595-0.007-0.887-0.05c-1.893-0.281-3.781-0.582-5.673-0.858c-0.882-0.129-1.768-0.218-2.65-0.329
		c-1.096-0.137-1.858-0.751-2.005-1.615c-0.237-1.393,0.77-2.506,2.2-2.357c1.829,0.252,3.66,0.497,5.487,0.759
		c1.077,0.154,2.151,0.328,3.226,0.506c0.324,0.054,0.654,0.114,0.957,0.236C80.399,109.381,80.845,110.242,80.688,111.199z
		 M100.285,114.218c-0.57,0.33-1.205,0.526-1.854,0.671c-1.424,0.317-2.859,0.483-4.363,0.402c-1.251,0.097-2.527-0.103-3.806-0.236
		c-1.138-0.118-1.823-0.703-1.99-1.608c-0.224-1.231,0.571-2.259,1.817-2.307c0.46-0.019,0.927,0.025,1.381,0.091
		c0.951,0.144,1.909,0.15,2.864,0.146c1.456-0.006,2.894-0.102,4.269-0.68c0.673-0.283,1.369-0.191,1.957,0.292
		C101.681,111.908,101.555,113.48,100.285,114.218z M101.48,17.775c-0.227-0.029-0.461-0.004-0.691-0.004
		c-0.001,0.011-0.004,0.023-0.004,0.035c-2.303-0.202-4.606-0.382-6.905-0.615c-1.216-0.123-1.915-1.006-1.81-2.162
		c0.101-1.111,1.021-1.855,2.23-1.74c2.432,0.232,4.861,0.478,7.305,0.567c1.213,0.044,1.972,0.891,1.979,2.03
		C103.591,16.973,102.52,17.911,101.48,17.775z M108.257,94.312c-0.536,2.376-1.071,4.751-1.614,7.126
		c-0.151,0.671-0.197,1.373-0.553,1.988c-0.706,1.223-2.039,1.436-3.096,0.494c-0.423-0.38-0.603-0.797-0.601-1.54
		c0.022-0.13,0.05-0.392,0.112-0.648c0.681-2.818,1.365-5.636,1.902-8.488c0.236-1.256,1.201-1.918,2.361-1.728
		c0.997,0.166,1.646,1.122,1.561,2.308C108.318,93.987,108.293,94.152,108.257,94.312z M111.127,73.408
		c-0.217,2.923-0.54,5.642-0.861,8.36c-0.03,0.261-0.093,0.521-0.171,0.771c-0.313,0.99-1.207,1.528-2.231,1.357
		c-0.868-0.145-1.579-0.951-1.537-1.91c0.047-1.053,0.213-2.099,0.32-3.147c0.181-1.739,0.355-3.477,0.535-5.215
		c0.044-0.427,0.07-0.858,0.156-1.277c0.221-1.082,1.083-1.677,2.181-1.538c0.987,0.126,1.696,0.968,1.668,2.003
		C111.181,73.076,111.134,73.337,111.127,73.408z M111.938,61.366c-0.18,1.118-0.974,1.768-2.058,1.708
		c-1.039-0.058-1.793-0.848-1.785-1.989c0.008-1.287,0.099-2.139,0.155-3.425c0.009-0.198,0.033-0.159,0.049-0.159
		c0.036,0,0.071,0,0.106,0c0-1-0.011-2.942,0.005-4.197c0.006-0.461,0.042-1.144,0.12-1.598c0.162-0.941,0.93-1.708,1.851-1.737
		c0.856-0.026,1.66,0.519,1.927,1.375c0.088,0.288,0.117,0.548,0.104,0.852c-0.124,2.671-0.238,5.33-0.362,8.001
		C112.031,60.592,112.002,60.977,111.938,61.366z"/>
</g>
</svg>
