<?xml version="1.0" encoding="utf-8"?>
<!-- Generator: Adobe Illustrator 16.0.4, SVG Export Plug-In . SVG Version: 6.00 Build 0)  -->
<!DOCTYPE svg PUBLIC "-//W3C//DTD SVG 1.1//EN" "http://www.w3.org/Graphics/SVG/1.1/DTD/svg11.dtd">
<svg version="1.1" id="Layer_4110" xmlns="http://www.w3.org/2000/svg" xmlns:xlink="http://www.w3.org/1999/xlink" x="0px" y="0px"
	 width="128px" height="128px" viewBox="0 0 128 128" enable-background="new 0 0 128 128" xml:space="preserve">
<g>
	<path fill-rule="evenodd" clip-rule="evenodd" d="M53.102,13.036c2.907-0.21,5.776,0.257,8.66,0.463
		c2.001,0.143,2.363,0.6,2.248,2.542c-0.588,9.843-1.27,19.676-1.56,29.541c-0.294,10.02-1.216,20.019-1.833,30.029
		c-0.245,3.989-0.431,7.982-0.6,11.976c-0.193,4.587-0.381,9.176-0.481,13.767c-0.039,1.764-0.7,2.471-2.525,2.751
		c-5.548,0.853-11.056,1.965-16.583,2.954c-2.969,0.532-3.195,0.438-2.935-2.547c0.464-5.335,1.129-10.651,1.716-15.975
		c0.793-7.183,1.533-14.369,2.404-21.542c1.22-10.046,1.897-20.142,2.895-30.209c0.352-3.547,0.765-7.095,0.7-10.688
		c-0.069-3.826,0.462-7.628,0.955-11.422c0.149-1.15,0.708-1.653,1.833-1.645C49.699,13.044,51.401,13.034,53.102,13.036z"/>
	<path fill-rule="evenodd" clip-rule="evenodd" d="M23.448,108.101c-1.705,0-3.409,0.029-5.112-0.007
		c-2.332-0.05-2.625-0.43-2.405-2.745c0.849-8.99,2.431-17.874,3.773-26.795c1.442-9.59,2.621-19.221,4.007-28.821
		c1.021-7.075,2.214-14.124,3.276-21.193c0.494-3.281,0.914-6.576,1.25-9.876c0.131-1.286,0.482-1.97,1.906-2.164
		c4.142-0.565,8.329-0.387,12.47-0.907c1.415-0.178,2.082,0.578,1.981,1.957c-0.129,1.78-0.235,3.57-0.51,5.332
		c-1.612,10.336-2.2,20.791-3.781,31.141c-0.869,5.685-1.334,11.475-1.858,17.231c-0.373,4.112-1.129,8.229-1.591,12.358
		c-0.597,5.322-1.343,10.637-1.383,16.005c-0.015,2.053-0.274,4.067-0.511,6.096c-0.159,1.365-0.682,1.96-2.072,1.976
		C29.74,107.723,26.609,108.28,23.448,108.101z"/>
	<path fill-rule="evenodd" clip-rule="evenodd" d="M84.128,19.695c1.958,0,3.917,0.013,5.875-0.003
		c1.383-0.012,2.061,0.666,2.021,2.028c-0.072,2.477,0.482,4.925,0.465,7.376c-0.053,7.155,0.391,14.294,0.687,21.43
		c0.465,11.206,1.226,22.4,2.796,33.526c0.854,6.059,1.456,12.153,2.124,18.237c0.271,2.472-0.135,2.944-2.647,3.364
		c-4.244,0.71-8.479,0.418-12.707-0.188c-1.012-0.146-1.66-0.685-2.107-1.625c-0.782-1.648-1.055-3.414-1.318-5.176
		c-1.277-8.49-1.986-17.039-2.251-25.615c-0.117-3.794-0.282-7.586,0.005-11.403c0.33-4.4-0.375-8.838-0.223-13.233
		c0.249-7.136,0.177-14.251-0.123-21.375c-0.068-1.622-0.318-3.215-0.478-4.822c-0.187-1.892,0.332-2.445,2.263-2.497
		c1.871-0.052,3.746-0.011,5.619-0.011C84.128,19.704,84.128,19.7,84.128,19.695z"/>
	<path fill-rule="evenodd" clip-rule="evenodd" d="M73.438,32.971c-0.002,5.197,0.303,10.416-0.069,15.586
		c-0.639,8.855,0.238,17.743-0.555,26.549c-0.647,7.188,0.361,14.277,0.177,21.418c-0.118,4.523-0.923,8.964-1.208,13.467
		c-0.275,4.326-0.271,8.673-0.816,12.99c-0.363,2.879-0.444,3.179-3.235,3.562c-1.349,0.186-2.694,0.394-4.047,0.544
		c-1.427,0.158-2.051-0.554-1.971-1.951c0.11-1.953,0.399-3.89,0.534-5.846c0.535-7.806,1.208-15.602,1.817-23.403
		c0.085-1.103,0.148-2.212,0.133-3.316c-0.169-13.718,0.975-27.396,1.242-41.103c0.22-11.228,1.1-22.445,0.818-33.688
		c-0.055-2.154,0.563-4.209,0.643-6.344c0.076-2.035,0.427-4.052-0.025-6.093c-0.123-0.556-0.041-1.205,0.113-1.765
		c0.291-1.053,0.521-2.643,1.586-2.686c1.187-0.048,0.775,1.604,1.089,2.485c0.597,1.684,0.842,3.507,1.556,5.131
		c2.009,4.569,2.414,9.334,2.244,14.239C73.343,26.152,73.438,29.563,73.438,32.971z"/>
	<path fill-rule="evenodd" clip-rule="evenodd" d="M93.475,23.612c0-2.896-0.025-5.793,0.008-8.689
		c0.026-2.207,0.186-2.362,2.289-2.41c1.447-0.033,2.897,0.041,4.345,0.005c1.447-0.035,2.137,0.491,2.219,2.063
		c0.216,4.163,0.686,8.312,0.879,12.475c0.369,7.911,1.36,15.766,1.963,23.653c0.564,7.385,1.335,14.745,2.174,22.096
		c0.84,7.355,1.894,14.686,2.846,22.027c0.108,0.842,0.236,1.691,0.229,2.535c-0.008,0.975-0.514,1.57-1.572,1.625
		c-2.124,0.113-4.245,0.324-6.371,0.381c-2.547,0.067-2.871-0.14-3.132-2.59c-0.307-2.879-0.661-5.748-1.144-8.6
		c-1.52-8.996-2.076-18.054-2.266-27.177c-0.145-6.956-0.961-13.905-1.637-20.842C93.767,34.655,93.354,29.15,93.475,23.612z"/>
</g>
</svg>
