<?xml version="1.0" encoding="utf-8"?>
<!-- Generator: Adobe Illustrator 16.0.4, SVG Export Plug-In . SVG Version: 6.00 Build 0)  -->
<!DOCTYPE svg PUBLIC "-//W3C//DTD SVG 1.1//EN" "http://www.w3.org/Graphics/SVG/1.1/DTD/svg11.dtd">
<svg version="1.1" id="Layer_4111" xmlns="http://www.w3.org/2000/svg" xmlns:xlink="http://www.w3.org/1999/xlink" x="0px" y="0px"
	 width="128px" height="128px" viewBox="0 0 128 128" enable-background="new 0 0 128 128" xml:space="preserve">
<g>
	<path fill-rule="evenodd" clip-rule="evenodd" d="M126.756,33.89c-1.188,1.266-2.183,2.315-3.802,4.031
		c1.202,0.659,2.723,1.509,4.604,2.661c-1.986,1.679-2.959,2.509-3.977,3.382c0.65,0.999,1.303,2.012,2.204,3.438
		c-0.685,0.778-1.422,1.618-2.204,2.521c0.576,0.96,1.163,1.948,1.938,3.27c-1.163,0.942-2.312,1.896-3.463,2.872
		c1.143,1.296,2.088,2.376,3.92,4.556c-1.595,0.582-2.854,1.081-4.281,1.682c1.383,1.356,2.41,2.38,3.828,3.835
		c-0.749,1.029-1.48,2.047-2.213,3.082c0.541,1.059,1.081,2.119,2.014,3.965c-21.213,9.34-42.393,31.602-63.879,46.662
		c-1.918-0.754-3.783-1.367-5.561-2.143c-16.607-7.365-33.192-12.139-49.811-22.348c-1.796-1.111-3.75-1.986-5.631-3.084
		c0-0.896,0-1.793,0-2.688c1.053-0.371,2.104-0.75,3.476-1.262c-1.354-1.043-2.417-1.896-3.476-2.771c0-0.449,0-0.896,0-1.344
		c1.249-0.627,2.497-1.264,4.065-2.096c-1.778-1.379-2.922-2.324-4.065-3.281c0-0.898,0-1.793,0-2.689
		c1.229-0.182,2.459-0.371,4.595-0.795c-2.238-1.506-3.415-2.371-4.595-3.236c0-0.449,0-0.896,0-1.346c1.5-0.645,3-1.336,4.43-2.037
		c-1.383-1.654-2.438-2.951-3.685-4.511c1.467-0.911,2.539-1.614,3.602-2.329c-1.078-1.201-2.062-2.312-3.341-3.787
		c1.502-0.969,2.74-1.812,4.184-2.842c-1.84-1.598-3.518-3.109-5.189-4.657c0-0.447,0-0.897,0-1.345
		c0.433,0.027,0.914,0.166,1.283,0.058c19.419-5.603,38.846-21.129,58.224-32.919c4.008-2.468,13.101-8.24,13.783-8.24
		C74.395,8.155,109.368,21.811,126.756,33.89z M4.633,91.635c18.887,12.248,37.426,16.896,56.149,25.441
		c18.69-13.34,37.008-31.689,55.312-42.363c1.444-0.846,2.793-1.797,4.165-2.666c0.14-0.088,0.197-0.377,0.18-0.586
		c-0.016-0.182,0.729-0.801-0.193-0.299c-19.656,10.707-39.604,30.559-59.758,44.568c-2.543-0.996-6.196-2.588-8.388-3.477
		c-13.932-5.684-27.839-10.279-41.784-18.434C8.654,92.852,6.083,90.957,4.633,91.635z M4.633,88.646
		c18.887,12.248,37.426,16.896,56.149,25.441c18.69-13.34,37.008-31.689,55.312-42.363c1.444-0.846,2.793-1.797,4.165-2.666
		c0.14-0.088,0.197-0.377,0.18-0.586c-0.016-0.182,0.729-0.801-0.193-0.299c-19.656,10.707-39.604,30.559-59.758,44.568
		c-2.543-0.998-6.196-2.588-8.388-3.477c-13.932-5.684-27.839-10.279-41.784-18.434C8.654,89.863,6.083,87.969,4.633,88.646z
		 M4.633,85.658C23.52,97.906,42.059,102.555,60.782,111.1c18.69-13.34,37.008-31.689,55.312-42.363
		c1.444-0.846,2.793-1.797,4.165-2.666c0.14-0.088,0.197-0.377,0.18-0.586c-0.016-0.182,0.729-0.801-0.193-0.299
		c-19.656,10.707-39.604,30.559-59.758,44.568c-2.543-0.998-6.196-2.588-8.388-3.477c-13.932-5.684-27.839-10.281-41.784-18.434
		C8.654,86.873,6.083,84.979,4.633,85.658z M4.633,82.67c18.887,12.248,37.426,16.896,56.149,25.441
		c18.69-13.34,37.008-31.689,55.312-42.363c1.444-0.848,2.793-1.797,4.165-2.666c0.14-0.088,0.197-0.378,0.18-0.586
		c-0.016-0.181,0.729-0.8-0.193-0.298c-19.656,10.707-39.604,30.558-59.758,44.568c-2.543-0.998-6.196-2.59-8.388-3.477
		c-13.932-5.684-27.839-10.281-41.784-18.434C8.654,83.885,6.083,81.992,4.633,82.67z M4.633,79.682
		C23.52,91.93,42.059,96.58,60.782,105.123c18.69-13.34,37.008-31.689,55.312-42.364c1.444-0.846,2.793-1.796,4.165-2.665
		c0.14-0.088,0.197-0.378,0.18-0.586c-0.016-0.182,0.729-0.8-0.193-0.299c-19.656,10.708-39.604,30.559-59.758,44.569
		c-2.543-0.998-6.196-2.59-8.388-3.477C38.168,94.617,24.261,90.02,10.315,81.867C8.654,80.896,6.083,79.004,4.633,79.682z
		 M4.633,76.693C23.52,88.941,42.059,93.59,60.782,102.135c18.69-13.34,37.008-31.689,55.312-42.364
		c1.444-0.846,2.793-1.796,4.165-2.666c0.14-0.088,0.197-0.377,0.18-0.585c-0.016-0.183,0.729-0.801-0.193-0.3
		c-19.656,10.708-39.604,30.559-59.758,44.569c-2.543-0.998-6.196-2.588-8.388-3.477c-13.932-5.686-27.839-10.281-41.784-18.434
		C8.654,77.908,6.083,76.016,4.633,76.693z M4.633,73.705C23.52,85.953,42.059,90.602,60.782,99.146
		c18.69-13.34,37.008-31.689,55.312-42.364c1.444-0.846,2.793-1.796,4.165-2.666c0.14-0.088,0.197-0.377,0.18-0.585
		c-0.016-0.183,0.729-0.801-0.193-0.3c-19.656,10.707-39.604,30.559-59.758,44.569c-2.543-0.998-6.196-2.59-8.388-3.477
		c-13.932-5.686-27.839-10.281-41.784-18.434C8.654,74.92,6.083,73.027,4.633,73.705z M4.633,70.717
		C23.52,82.965,42.059,87.613,60.782,96.158c18.69-13.34,37.008-31.69,55.312-42.365c1.444-0.846,2.793-1.796,4.165-2.665
		c0.14-0.088,0.197-0.377,0.18-0.585c-0.016-0.182,0.729-0.802-0.193-0.3c-19.656,10.708-39.604,30.56-59.758,44.569
		c-2.543-0.998-6.196-2.59-8.388-3.477C38.168,85.65,24.261,81.055,10.315,72.9C8.654,71.932,6.083,70.037,4.633,70.717z
		 M4.633,67.727C23.52,79.977,42.059,84.625,60.782,93.17c18.69-13.34,37.008-31.69,55.312-42.365
		c1.444-0.846,2.793-1.796,4.165-2.666c0.14-0.087,0.197-0.377,0.18-0.585c-0.016-0.181,0.729-0.801-0.193-0.299
		c-19.656,10.708-39.604,30.56-59.758,44.569c-2.543-0.998-6.196-2.59-8.388-3.477c-13.932-5.686-27.839-10.281-41.784-18.436
		C8.654,68.943,6.083,67.049,4.633,67.727z M4.633,64.739C23.52,76.988,42.059,81.637,60.782,90.182
		c18.69-13.34,37.008-31.69,55.312-42.365c1.444-0.846,2.793-1.796,4.165-2.666c0.14-0.087,0.197-0.377,0.18-0.585
		c-0.016-0.182,0.729-0.801-0.193-0.299c-19.656,10.707-39.604,30.557-59.758,44.569c-2.543-0.998-6.196-2.59-8.388-3.477
		c-13.932-5.686-27.839-10.281-41.784-18.436C8.654,65.955,6.083,64.061,4.633,64.739z M4.633,61.751
		C23.52,74,42.059,78.648,60.782,87.193c18.69-13.34,37.008-31.689,55.312-42.365c1.444-0.846,2.793-1.796,4.165-2.666
		c0.14-0.088,0.197-0.377,0.18-0.585c-0.016-0.182,0.729-0.801-0.193-0.299c-19.656,10.707-39.604,30.557-59.758,44.569
		c-2.543-0.998-6.196-2.59-8.388-3.477C38.168,76.686,24.261,72.09,10.315,63.937C8.654,62.967,6.083,61.073,4.633,61.751z
		 M4.633,58.762C23.52,71.012,42.059,75.66,60.782,84.205c18.69-13.34,37.008-31.69,55.312-42.365
		c1.444-0.847,2.793-1.797,4.165-2.666c0.14-0.088,0.197-0.377,0.18-0.586c-0.016-0.181,0.729-0.8-0.193-0.298
		c-19.656,10.706-39.604,30.557-59.758,44.569c-2.543-0.998-6.196-2.59-8.388-3.479c-13.932-5.684-27.839-10.279-41.784-18.433
		C8.654,59.979,6.083,58.084,4.633,58.762z M4.633,55.158C23.52,67.406,42.059,72.055,60.782,80.6
		c18.69-13.34,37.008-31.689,55.312-42.364c1.444-0.847,2.793-1.797,4.165-2.666c0.14-0.088,0.197-0.377,0.18-0.585
		c-0.016-0.182,0.729-0.801-0.193-0.299c-19.656,10.707-39.604,30.559-59.758,44.568c-2.543-0.998-6.196-2.59-8.388-3.477
		c-13.932-5.684-27.839-10.281-41.784-18.434C8.654,56.374,6.083,54.48,4.633,55.158z"/>
</g>
</svg>
