<?xml version="1.0" encoding="utf-8"?>
<!-- Generator: Adobe Illustrator 16.0.4, SVG Export Plug-In . SVG Version: 6.00 Build 0)  -->
<!DOCTYPE svg PUBLIC "-//W3C//DTD SVG 1.1//EN" "http://www.w3.org/Graphics/SVG/1.1/DTD/svg11.dtd">
<svg version="1.1" id="Layer_4115" xmlns="http://www.w3.org/2000/svg" xmlns:xlink="http://www.w3.org/1999/xlink" x="0px" y="0px"
	 width="128px" height="128px" viewBox="0 0 128 128" enable-background="new 0 0 128 128" xml:space="preserve">
<g>
	<path fill="#010101" d="M53.102,13.036c2.907-0.21,5.776,0.257,8.66,0.463c2.001,0.143,2.363,0.6,2.248,2.542
		c-0.588,9.843-1.27,19.676-1.56,29.541c-0.294,10.02-1.216,20.02-1.833,30.029c-0.245,3.988-0.431,7.981-0.6,11.976
		c-0.193,4.587-0.381,9.177-0.481,13.767c-0.039,1.765-0.7,2.472-2.525,2.752c-5.548,0.853-11.056,1.965-16.583,2.953
		c-2.969,0.532-3.195,0.438-2.935-2.547c0.464-5.335,1.129-10.65,1.716-15.975c0.793-7.184,1.533-14.369,2.404-21.542
		c1.22-10.046,1.897-20.142,2.895-30.209c0.352-3.547,0.765-7.095,0.7-10.688c-0.069-3.826,0.462-7.628,0.955-11.422
		c0.149-1.15,0.708-1.653,1.833-1.645C49.699,13.044,51.401,13.034,53.102,13.036z"/>
	<path fill="#010101" d="M23.448,108.102c-1.705,0-3.409,0.028-5.112-0.008c-2.332-0.05-2.625-0.43-2.405-2.744
		c0.849-8.99,2.431-17.875,3.773-26.795c1.442-9.591,2.621-19.222,4.007-28.822c1.021-7.075,2.214-14.124,3.276-21.193
		c0.494-3.281,0.914-6.576,1.25-9.876c0.131-1.286,0.482-1.97,1.906-2.164c4.142-0.565,8.329-0.387,12.47-0.907
		c1.415-0.178,2.082,0.578,1.981,1.957c-0.129,1.78-0.235,3.57-0.51,5.332c-1.612,10.336-2.2,20.791-3.781,31.141
		c-0.869,5.685-1.334,11.475-1.858,17.231c-0.373,4.112-1.129,8.229-1.591,12.357c-0.597,5.322-1.343,10.638-1.383,16.006
		c-0.015,2.053-0.274,4.066-0.511,6.096c-0.159,1.365-0.682,1.96-2.072,1.977C29.74,107.723,26.609,108.28,23.448,108.102z"/>
	<path fill="#010101" d="M84.128,19.695c1.958,0,3.917,0.013,5.875-0.003c1.383-0.012,2.062,0.666,2.021,2.028
		c-0.071,2.478,0.482,4.925,0.466,7.376c-0.054,7.155,0.391,14.294,0.687,21.43c0.465,11.206,1.227,22.4,2.797,33.526
		c0.854,6.06,1.455,12.153,2.123,18.237c0.271,2.472-0.135,2.943-2.646,3.363c-4.244,0.711-8.479,0.418-12.707-0.188
		c-1.012-0.146-1.66-0.685-2.107-1.625c-0.781-1.648-1.055-3.414-1.318-5.176c-1.276-8.49-1.985-17.039-2.25-25.615
		c-0.117-3.794-0.282-7.586,0.004-11.403c0.33-4.4-0.375-8.838-0.223-13.233c0.25-7.136,0.178-14.251-0.123-21.375
		c-0.067-1.622-0.317-3.215-0.478-4.822c-0.187-1.892,0.332-2.445,2.263-2.497c1.871-0.052,3.746-0.011,5.619-0.011
		C84.128,19.704,84.128,19.7,84.128,19.695z"/>
	<path fill="#010101" d="M73.438,32.971c-0.002,5.197,0.304,10.416-0.068,15.586c-0.639,8.855,0.238,17.743-0.555,26.548
		c-0.647,7.188,0.36,14.277,0.177,21.418c-0.118,4.523-0.923,8.965-1.208,13.468c-0.275,4.325-0.271,8.673-0.816,12.989
		c-0.363,2.879-0.443,3.18-3.234,3.562c-1.35,0.186-2.694,0.395-4.047,0.544c-1.427,0.158-2.051-0.554-1.971-1.951
		c0.11-1.952,0.399-3.89,0.534-5.846c0.535-7.806,1.208-15.603,1.817-23.403c0.085-1.103,0.148-2.212,0.133-3.316
		c-0.169-13.717,0.975-27.396,1.241-41.103C65.66,40.24,66.54,29.023,66.258,17.78c-0.055-2.154,0.562-4.209,0.643-6.344
		c0.076-2.035,0.428-4.052-0.024-6.093c-0.123-0.556-0.041-1.205,0.113-1.765c0.291-1.053,0.521-2.643,1.586-2.686
		c1.187-0.048,0.774,1.604,1.089,2.485c0.597,1.684,0.842,3.507,1.556,5.131c2.009,4.569,2.414,9.334,2.244,14.239
		C73.343,26.152,73.438,29.563,73.438,32.971z"/>
	<path fill="#010101" d="M93.475,23.612c0-2.896-0.024-5.793,0.008-8.689c0.026-2.207,0.187-2.362,2.289-2.41
		c1.447-0.033,2.897,0.041,4.346,0.005c1.447-0.035,2.137,0.491,2.219,2.063c0.216,4.163,0.686,8.312,0.879,12.475
		c0.369,7.911,1.36,15.766,1.963,23.653c0.564,7.385,1.336,14.745,2.174,22.096c0.84,7.355,1.895,14.687,2.847,22.027
		c0.108,0.842,0.235,1.691,0.229,2.535c-0.008,0.975-0.514,1.57-1.571,1.625c-2.125,0.113-4.246,0.324-6.371,0.381
		c-2.547,0.066-2.871-0.141-3.133-2.59c-0.307-2.879-0.66-5.748-1.144-8.6c-1.521-8.996-2.076-18.055-2.267-27.178
		c-0.145-6.956-0.961-13.905-1.637-20.842C93.768,34.655,93.354,29.15,93.475,23.612z"/>
</g>
</svg>
