<?xml version="1.0" encoding="utf-8"?>
<!-- Generator: Adobe Illustrator 16.0.4, SVG Export Plug-In . SVG Version: 6.00 Build 0)  -->
<!DOCTYPE svg PUBLIC "-//W3C//DTD SVG 1.1//EN" "http://www.w3.org/Graphics/SVG/1.1/DTD/svg11.dtd">
<svg version="1.1" id="Layer_4201" xmlns="http://www.w3.org/2000/svg" xmlns:xlink="http://www.w3.org/1999/xlink" x="0px" y="0px"
	 width="128px" height="128px" viewBox="0 0 128 128" enable-background="new 0 0 128 128" xml:space="preserve">
<g id="kGQ8i8.tif">
	<g>
		<path fill-rule="evenodd" clip-rule="evenodd" d="M44.895,127.348c-2.968,0.172-5.881-0.137-8.717-0.872
			c-5.07-1.312-6.835-4.599-4.634-9.338c2.154-4.639,4.352-9.214,5.55-14.222c0.4-1.676,1.652-2.941,2.797-4.225
			c0.785-0.881,0.915-1.896-0.612-2.046c-1.997-0.197-1.838-1.592-1.848-2.92c-0.022-3.288-0.077-6.578,0.018-9.864
			c0.05-1.743-0.407-2.92-2.017-3.878c-6.076-3.618-8.864-9.172-8.916-16.137c-0.069-9.136-0.309-18.259-1.32-27.35
			c-0.378-3.396-1.154-6.706-1.952-10.018C22.759,24.471,22.3,22.448,22,20.407c-0.771-5.251,1.967-7.86,7.25-6.816
			c4.893,0.967,9.689,2.332,14.481,3.728c6.999,2.039,13.971,4.193,21.316,4.792c4.722,0.386,8.892-0.783,12.763-3.406
			c4.982-3.376,9.213-7.561,13.187-12.034c0.971-1.092,1.902-2.219,2.879-3.306c2.944-3.28,5.798-3.628,9.215-1.146
			c3.178,2.309,3.915,5.801,1.956,9.309c-0.297,0.531-0.585,1.081-0.969,1.546c-2.862,3.478-4.331,6.848-2.367,11.692
			c1.638,4.042-1.519,9.067-6.179,11.709c-1.79,1.015-3.098,1.852-3.205,4.265c-0.104,2.344-1.849,3.95-4.163,4.56
			c-2.337,0.615-4.683,0.034-5.785-2.043c-1.379-2.597-2.775-1.574-4.406-0.705c-4.191,2.233-6.946,5.531-8.143,10.229
			c-0.601,2.364-0.187,4.154,1.259,6.074c1.333,1.771,3.367,3.305,2.946,6.02c-0.269,1.731-0.56,3.298-2.879,2.196
			c-1.977-0.938-2.758-0.105-3.251,1.795c-1.728,6.672-5.917,11.105-12.561,12.969c-1.836,0.516-2.269,1.448-2.231,3.098
			c0.06,2.678,0.046,5.358,0.015,8.037c-0.02,1.629,0.495,3.49-2.164,3.798c-1.174,0.136-1.016,1.304-0.303,1.952
			c2.71,2.463,3.401,5.801,4.167,9.131c0.386,1.674,1.141,3.203,1.938,4.716c0.793,1.507,1.633,3.001,2.271,4.574
			c1.966,4.844,0.338,8.084-4.741,9.347C51.212,127.255,48.054,127.542,44.895,127.348z M45.014,124.319
			c2.666-0.07,5.337,0.07,7.969-0.645c3.875-1.052,4.616-2.383,2.978-6c-1.102-2.432-2.406-4.771-3.518-7.199
			c-1.037-2.268-0.32-5.762-2.64-6.82c-2.103-0.961-5.001-0.178-7.55-0.164c-0.243,0-0.488,0.015-0.729-0.013
			c-1.018-0.114-1.661,0.36-1.849,1.32c-0.971,4.956-3.401,9.313-5.485,13.83c-1.17,2.535-0.437,3.82,2.17,4.737
			C39.162,124.351,42.091,124.348,45.014,124.319z M99.067,26.043c-0.035-0.404-0.036-1.139-0.173-1.847
			c-0.539-2.789-0.807-2.912-3.137-1.114c-2.122,1.639-4.336,3.121-6.857,4.02c-1.668,0.595-2.475,1.34-1.646,3.182
			c0.442,0.982,0.489,2.154,0.981,3.103c0.694,1.339,1.854,2.192,3.491,1.888C95.436,34.584,99.008,30.218,99.067,26.043z
			 M47.103,94.097c0-1.699-0.022-3.4,0.007-5.099c0.023-1.359-0.551-2.008-1.957-1.956c-1.265,0.045-1.685,0.744-1.687,1.874
			c-0.004,3.277-0.001,6.556-0.02,9.833c-0.008,1.258,0.342,2.067,1.827,2.104c1.502,0.036,1.866-0.74,1.842-2.021
			C47.087,97.253,47.109,95.675,47.103,94.097z M90.325,40.299c-0.024-0.216-0.016-0.342-0.055-0.451
			c-0.433-1.201-1.389-0.801-2.119-0.552c-1.614,0.549-3.62,0.093-4.788,1.802c-0.038,0.056,0.063,0.22,0.117,0.326
			c0.814,1.601,2.125,2.266,3.876,1.933C89.078,43.03,90.163,42.035,90.325,40.299z M60.029,47.639
			c-0.045-0.019-0.098-0.029-0.15-0.029c-0.06,0-0.093,0.023-0.149,0.032c-0.061,0.01-0.12,0.007-0.179,0.034
			c-0.031,0.014-0.06,0.04-0.09,0.055c-0.059-0.02-0.053,0.045-0.096,0.068c-0.038,0.02-0.083,0.021-0.124,0.046
			c-0.093,0.057-0.18,0.125-0.247,0.211c-0.359,0.459-0.134,0.944,0.422,1.175c0.545,0.227,1.067,0.053,1.151-0.516
			c0.027-0.183-0.026-0.367-0.091-0.537c-0.058-0.15-0.078-0.34-0.216-0.442c-0.04-0.03-0.09-0.028-0.135-0.043
			C60.099,47.685,60.072,47.663,60.029,47.639z M54.082,40.95c0.02-0.011,0.04-0.023,0.059-0.035c0.166-0.1,0.185-0.272,0.308-0.408
			c0.126-0.14,0.228-0.324,0.268-0.509c0.022-0.1-0.039-0.251-0.083-0.335c-0.048-0.092-0.107-0.166-0.18-0.239
			c-0.145-0.146-0.364-0.264-0.574-0.262c-0.125,0.002-0.238,0.01-0.358,0.037c-0.136,0.03-0.264,0.114-0.368,0.204
			c-0.104,0.09-0.212,0.156-0.285,0.278c-0.115,0.194-0.131,0.499,0.015,0.684c0.06,0.077,0.124,0.139,0.179,0.221
			c0.07,0.105,0.157,0.196,0.258,0.271c0.056,0.042,0.127,0.073,0.194,0.105c0.031,0.015,0.055,0.017,0.089,0.028
			c0.021,0.007,0.052,0.04,0.074,0.046C53.834,41.083,53.956,41.024,54.082,40.95z M51.663,35.849
			c-0.012-0.05-0.038-0.104-0.053-0.149c-0.016-0.046-0.024-0.083-0.051-0.126c-0.062-0.102-0.141-0.188-0.195-0.292
			c-0.058-0.11-0.181-0.133-0.269-0.208c-0.193-0.166-0.498-0.062-0.706,0.02c-0.165,0.065-0.423,0.179-0.478,0.369
			c-0.006,0.021-0.012,0.042-0.017,0.063c-0.074,0.3-0.065,0.65,0.135,0.902c0.093,0.117,0.222,0.199,0.365,0.244
			c0.179,0.056,0.345-0.003,0.529-0.015c0.064-0.004,0.113-0.03,0.179-0.03c0.077,0,0.082-0.027,0.149-0.053
			c0.038-0.014,0.055-0.008,0.09-0.034c0.036-0.026,0.041-0.063,0.066-0.094c0.038-0.045,0.076-0.061,0.105-0.117
			c0.028-0.053,0.062-0.098,0.089-0.15C51.657,36.077,51.689,35.98,51.663,35.849z M57.584,43.854
			c-0.027-0.062-0.059-0.123-0.094-0.181c-0.171-0.278-0.468-0.489-0.805-0.38c-0.152,0.049-0.27,0.145-0.392,0.244
			c-0.055,0.044-0.142,0.077-0.188,0.126c-0.05,0.054-0.08,0.175-0.079,0.246c0.002,0.142-0.016,0.278,0.037,0.412
			c0.055,0.138,0.144,0.268,0.262,0.366c0.05,0.041,0.091,0.09,0.143,0.129c0.026,0.02,0.054,0.03,0.081,0.046
			c0.012,0.007,0.028,0.003,0.046,0.036c0.125,0.07,0.318,0.085,0.458,0.068C57.626,44.897,57.788,44.402,57.584,43.854z
			 M66.071,57.755c0.021,0.003,0.044,0.003,0.069-0.002c0.022-0.004,0.062-0.022,0.09-0.029c0.004-0.001,0.063-0.021,0.067-0.022
			c0.052-0.022,0.096-0.056,0.147-0.083c0.078-0.041,0.106-0.076,0.158-0.149c0.034-0.05,0.073-0.088,0.111-0.132
			c0.078-0.089,0.06-0.265,0.06-0.382c0-0.158,0.022-0.29-0.083-0.419c-0.068-0.083-0.152-0.149-0.237-0.215
			c-0.104-0.081-0.204-0.143-0.337-0.142c-0.067,0-0.13,0.01-0.196,0.02c-0.05,0.007-0.107-0.002-0.154,0.019
			c-0.075,0.033-0.13,0.128-0.195,0.178c-0.177,0.135-0.398,0.307-0.435,0.542c-0.033,0.213-0.018,0.454,0.126,0.626
			c0.055,0.065,0.139,0.137,0.223,0.161c0.134,0.038,0.312-0.004,0.453,0.006C65.988,57.732,66.027,57.749,66.071,57.755z"/>
	</g>
</g>
</svg>
