<?xml version="1.0" encoding="utf-8"?>
<!-- Generator: Adobe Illustrator 16.0.4, SVG Export Plug-In . SVG Version: 6.00 Build 0)  -->
<!DOCTYPE svg PUBLIC "-//W3C//DTD SVG 1.1//EN" "http://www.w3.org/Graphics/SVG/1.1/DTD/svg11.dtd">
<svg version="1.1" id="Layer_4205" xmlns="http://www.w3.org/2000/svg" xmlns:xlink="http://www.w3.org/1999/xlink" x="0px" y="0px"
	 width="128px" height="128px" viewBox="0 0 128 128" enable-background="new 0 0 128 128" xml:space="preserve">
<path d="M106.913,71.585c-0.966-3.128-2.454-6.008-4.054-8.857c-1.463-2.605-3.284-4.931-5.087-7.283
	c-0.262-0.342-0.343-0.609-0.134-1.017c0.371-0.727,0.262-1.023-0.461-1.389c-0.387-0.196-0.795-0.382-1.216-0.469
	c-0.627-0.13-0.999-0.549-1.369-1c-0.056-0.067-0.168-0.157-0.152-0.202c0.349-0.995-0.641-1.127-1.049-1.628
	c-0.163-0.201-0.384-0.354-0.58-0.528c-0.225-0.2-0.386-0.541-0.79-0.25c-0.207,0.148-0.377-0.066-0.527-0.192
	c-2.031-1.695-4.051-3.403-6.096-5.083c-0.414-0.34-0.173-0.6-0.02-0.896c1.386-2.686,2.772-5.372,3.935-8.164
	c2.198-5.282,3.735-10.743,4.447-16.432c0.365-2.919,0.575-5.842,0.483-8.785c-0.043-1.375-0.26-2.72-0.735-4.014
	c-0.318-0.867-0.749-1.643-1.753-1.892c-0.166-0.041-0.568-0.093-0.117-0.406C91.785,3,91.633,2.717,91.551,2.532
	c-0.222-0.498-0.607-0.836-1.061-1.122c-0.533-0.336-1.093-0.657-1.626-0.963c-0.495-0.285-1.24-0.487-1.888-0.37
	c-0.594,0.107-1.146,0.41-1.473,0.986c-0.329,0.581-0.68,1.15-0.992,1.74c-0.15,0.283-0.297,0.481-0.662,0.401
	c-0.43-0.095-0.635,0.191-0.795,0.523c-0.293,0.607-0.723,1.124-1.115,1.665c-0.26,0.36-0.687,0.626-0.443,1.209
	c0.093,0.223-0.204,0.462-0.352,0.671c-1.172,1.665-2.369,3.312-3.531,4.982c-2.974,4.273-5.703,8.708-8.521,13.083
	c-0.63,0.978-1.284,1.945-1.876,2.945c-0.258,0.434-0.538,0.591-1.013,0.602c-0.753,0.018-1.354,0.032-2.228,0.038
	c-0.753-0.006-1.506-0.021-2.259-0.038c-0.475-0.011-0.799-0.168-1.056-0.602c-0.593-1-1.241-1.968-1.871-2.945
	c-2.817-4.375-5.544-8.81-8.518-13.083c-1.162-1.67-2.358-3.317-3.53-4.982c-0.147-0.209-0.444-0.448-0.351-0.671
	c0.243-0.583-0.183-0.849-0.444-1.209c-0.391-0.541-0.821-1.057-1.114-1.665c-0.16-0.332-0.365-0.618-0.795-0.523
	c-0.365,0.08-0.511-0.118-0.662-0.401c-0.313-0.589-0.663-1.159-0.993-1.74c-0.327-0.576-0.878-0.878-1.472-0.986
	c-0.647-0.117-1.393,0.085-1.888,0.37c-0.533,0.307-1.092,0.627-1.625,0.963c-0.453,0.286-0.839,0.624-1.061,1.122
	C36.256,2.717,36.104,3,36.25,3.101c0.452,0.313,0.05,0.365-0.116,0.406c-1.005,0.249-1.435,1.024-1.754,1.892
	c-0.476,1.293-0.692,2.639-0.735,4.014c-0.092,2.942,0.119,5.865,0.483,8.785c0.711,5.689,2.25,11.15,4.448,16.432
	c1.162,2.792,2.548,5.478,3.934,8.164c0.153,0.296,0.395,0.556-0.02,0.896c-2.044,1.679-4.064,3.387-6.095,5.083
	c-0.151,0.126-0.321,0.341-0.528,0.192c-0.405-0.291-0.566,0.05-0.791,0.25c-0.195,0.174-0.417,0.327-0.58,0.528
	c-0.408,0.5-1.397,0.633-1.048,1.628c0.015,0.044-0.098,0.135-0.153,0.202c-0.37,0.451-0.742,0.87-1.369,1
	c-0.42,0.087-0.829,0.273-1.216,0.469c-0.722,0.366-0.831,0.663-0.46,1.389c0.208,0.407,0.128,0.675-0.134,1.017
	c-1.803,2.352-3.624,4.678-5.086,7.283c-1.599,2.849-3.088,5.729-4.054,8.857c-1.706,5.526-1.821,11.101-0.413,16.702
	c0.913,3.629,2.148,7.127,4.459,10.146c1.401,1.832,3.005,3.475,4.704,5.027c0.643,0.587,1.468,1.031,1.439,2.078l-0.018-0.019
	c0.649,0.635,0.737,1.575,1.242,2.288l-0.021,0.246c0.044,0.062,0.047,0.445,0.011,0.445c0.003,0,0.007,0,0.01,0l-0.021,0.021
	c0.005-0.007,0.007-0.021,0.011-0.021c-0.065,0-0.131,0-0.196,0l0.013-0.238c-0.166-0.109-0.332-0.35-0.497-0.46
	c0.055,0.258,0.251,0.362,0.407,0.556c0.891,1.111,1.889,2.095,2.904,3.093c4.737,4.654,10.159,8.358,15.919,11.616
	c2.985,1.688,6.132,3.039,9.216,4.527c0.209,0.1,0.58,0.191,0.591,0.315c0.074,0.785,0.719,0.535,1.132,0.66
	c0.36,0.108,0.73,0.177,1.059,0.371l-0.022-0.021c0.303,0.053,0.605,0.023,0.907-0.015c0.167-0.39-0.079-0.831,0.151-1.223
	c0.23,0.392-0.021,0.833,0.146,1.223c0.302,0.038,0.59,0.067,0.893,0.015l-0.029,0.02c0.328-0.194,0.695-0.264,1.055-0.372
	c0.413-0.125,1.057,0.123,1.131-0.662c0.012-0.124,0.381-0.22,0.59-0.32c3.084-1.487,6.23-2.848,9.215-4.536
	c5.76-3.258,11.182-6.979,15.92-11.633c1.015-0.998,2.012-2.015,2.903-3.127c0.155-0.193,0.353-0.365,0.407-0.623
	c-0.166,0.109-0.332,0.486-0.498,0.596l0.013,0.238c-0.065,0-0.131,0-0.196,0c0.004,0,0.006,0.014,0.011,0.021L95.5,108.5
	c0.004,0,0.007,0,0.01,0c-0.036,0-0.033-0.383,0.011-0.445l-0.021-0.11c0.505-0.713,0.593-1.722,1.242-2.356l-0.018-0.016
	c-0.03-1.046,0.795-1.508,1.438-2.095c1.698-1.552,3.302-3.204,4.704-5.036c2.311-3.02,3.546-6.521,4.458-10.15
	C108.733,82.69,108.619,77.111,106.913,71.585z M38.957,15.282c-0.478-1.989-0.548-4.023-0.648-6.054
	c0-0.494,0.009-0.989-0.003-1.483c-0.006-0.267,0.168-0.349,0.367-0.411c0.222-0.07,0.296,0.107,0.394,0.252
	c1.315,1.946,2.843,3.767,3.718,5.979c0.336,0.849,1.164,1.266,1.57,2.037c0.69,1.312,1.424,2.6,2.101,3.918
	c1.525,2.973,3.031,5.956,4.536,8.938c0.615,1.22,1.176,2.465,1.425,3.821c0.034,0.187,0.167,0.431-0.032,0.567
	c-0.145,0.1-0.333-0.051-0.485-0.126c-3.836-1.896-7.042-4.481-9.172-8.281C41.097,21.536,39.738,18.529,38.957,15.282z
	 M59.777,91.959c0.038,3.916-0.591,7.426-2.236,10.729c-1.829,3.67-4.795,5.727-8.812,6.352c-3.483,0.543-6.792,0.006-9.996-1.449
	c-3.951-1.794-7.514-4.127-10.551-7.245c-0.48-0.493-0.817-1.05-1.049-1.685c-0.938-2.585-1.938-5.15-2.591-7.829
	c-1.777-7.28-1.78-14.47,0.95-21.565c1.074-2.794,2.861-5.105,4.647-7.424c1.116-1.448,2.382-2.779,3.569-4.172
	c0.24-0.282,0.51-0.418,0.875-0.5c0.764-0.171,1.509-0.421,2.263-0.637c0.167-0.048,0.328-0.094,0.448-0.242
	c1.594-1.974,3.352-3.778,5.42-5.266c0.162-0.117,0.39-0.267,0.416-0.429c0.162-1.007,1.09-1.294,1.695-1.883
	c0.42-0.408,0.637-0.275,0.875,0.223c1.555,3.244,3.216,6.438,4.685,9.724c1.957,4.376,3.86,8.777,5.416,13.311
	c1.517,4.42,2.878,8.889,3.435,13.565C59.501,87.76,59.85,89.97,59.777,91.959z M62.414,61.737
	c-0.119-2.049-0.086-4.102-0.258-6.151c-0.152-1.81-0.115-3.638-0.127-5.458c-0.006-1.029-0.059-2.059-0.068-3.088
	c-0.01-1.147,0.06-2.3-0.051-3.449c-0.253-2.632-0.14-5.275-0.194-7.913c-0.004-0.186-0.174-0.548,0.13-0.552
	c0.221-0.003,0.189,0.377,0.197,0.604c0.041,1.246,0.08,3.039,0.11,4.285c0.113,4.646,0.222,9.486,0.333,14.486
	c0.008,0,0.016,0,0.024,0c0.088,3,0.172,5.842,0.264,9.037c0.071,2.469,0.151,4.663,0.227,7.13c0.003,0.116,0.012,0.095,0.013,0.212
	c0.002,0.275,0.096,0.682-0.188,0.665c-0.295-0.017-0.13-0.513-0.136-0.791c-0.031-1.353,0.001-2.729-0.14-4.071
	C62.376,65.037,62.51,63.376,62.414,61.737z M66.174,35.678c-0.055,2.638,0.059,5.281-0.195,7.913
	c-0.109,1.149-0.04,2.302-0.051,3.449c-0.008,1.029-0.061,2.059-0.067,3.088c-0.012,1.82,0.025,3.648-0.127,5.458
	c-0.173,2.05-0.14,4.103-0.259,6.151c-0.096,1.639,0.038,3.282-0.135,4.927c-0.142,1.342-0.109,2.702-0.141,4.055
	c-0.006,0.278,0.158,0.74-0.136,0.757c-0.284,0.017-0.19-0.458-0.188-0.733c0.001-0.117,0.01-0.232,0.014-0.349
	c0.076-2.468,0.155-4.388,0.227-6.857c0.092-3.194,0.176-6.037,0.264-9.037c0.008,0,0.016,0,0.023,0
	c0.111-5,0.221-9.839,0.334-14.486c0.03-1.246,0.07-2.765,0.11-4.011c0.007-0.227-0.024-0.743,0.196-0.74
	C66.348,35.267,66.178,35.492,66.174,35.678z M75.475,32.28c0.249-1.356,0.81-2.601,1.426-3.821c1.504-2.983,3.01-5.966,4.535-8.938
	c0.676-1.318,1.41-2.607,2.1-3.918c0.406-0.771,1.234-1.188,1.57-2.037c0.875-2.212,2.402-4.033,3.719-5.979
	c0.098-0.145,0.171-0.322,0.393-0.252c0.198,0.062,0.373,0.145,0.367,0.411c-0.012,0.494-0.004,0.989-0.004,1.483
	c-0.1,2.03-0.17,4.065-0.648,6.054c-0.78,3.248-2.139,6.254-3.768,9.159c-2.131,3.8-5.336,6.385-9.172,8.281
	c-0.152,0.075-0.341,0.226-0.485,0.126C75.307,32.711,75.44,32.467,75.475,32.28z M103.347,90.831
	c-0.654,2.679-1.653,5.244-2.592,7.829c-0.231,0.635-0.567,1.191-1.048,1.685c-3.037,3.118-6.601,5.451-10.553,7.245
	c-3.203,1.455-6.512,1.992-9.995,1.449c-4.017-0.625-6.982-2.682-8.812-6.352c-1.646-3.303-2.274-6.812-2.236-10.729
	c-0.072-1.989,0.277-4.199,0.541-6.423c0.558-4.677,1.918-9.146,3.436-13.565c1.556-4.533,3.459-8.935,5.415-13.311
	c1.47-3.286,3.13-6.479,4.686-9.724c0.238-0.498,0.456-0.631,0.875-0.223c0.604,0.589,1.533,0.876,1.695,1.883
	c0.026,0.162,0.253,0.312,0.415,0.429c2.068,1.487,3.826,3.292,5.42,5.266c0.12,0.148,0.281,0.194,0.449,0.242
	c0.753,0.216,1.499,0.466,2.263,0.637c0.364,0.081,0.635,0.218,0.874,0.5c1.188,1.394,2.454,2.725,3.57,4.172
	c1.786,2.318,3.572,4.63,4.646,7.424C105.127,76.361,105.123,83.551,103.347,90.831z"/>
</svg>
