<?xml version="1.0" encoding="utf-8"?>
<!-- Generator: Adobe Illustrator 16.0.4, SVG Export Plug-In . SVG Version: 6.00 Build 0)  -->
<!DOCTYPE svg PUBLIC "-//W3C//DTD SVG 1.1//EN" "http://www.w3.org/Graphics/SVG/1.1/DTD/svg11.dtd">
<svg version="1.1" id="Layer_4206" xmlns="http://www.w3.org/2000/svg" xmlns:xlink="http://www.w3.org/1999/xlink" x="0px" y="0px"
	 width="128px" height="128px" viewBox="0 0 128 128" enable-background="new 0 0 128 128" xml:space="preserve">
<g>
	<path d="M45.067,111.629c-0.318,0-0.609-0.214-0.692-0.536c-0.098-0.383,0.132-0.772,0.515-0.871
		c4.162-1.069,11.585-5.767,19.927-11.147c-20.25-10.727-43.343-27.908-46.983-47.54c-2.004-10.805,1.034-21.736,8.554-30.778
		C35.393,9.929,49.645,3.203,63.583,3.203c14.341,0,28.884,6.961,37.952,18.168c7.263,8.976,10.03,19.695,7.793,30.183
		c-3.67,17.201-24.234,35.66-41.74,47.35c9.922,5.095,21.191,8.696,26.785,9.976c0.385,0.088,0.625,0.471,0.537,0.855
		s-0.472,0.628-0.855,0.537c-5.444-1.243-17.168-4.932-27.836-10.463c-8.771,5.733-16.624,10.68-20.973,11.799
		C45.187,111.623,45.126,111.629,45.067,111.629z M63.583,4.633c-13.525,0-27.355,6.528-36.095,17.038
		c-7.244,8.71-10.173,19.224-8.248,29.604c2.966,15.997,19.313,29.721,32.504,38.418c4.708,3.104,9.636,5.964,14.447,8.486
		C83.56,86.727,104.283,68.35,107.93,51.255c2.146-10.058-0.521-20.352-7.506-28.985C91.754,11.556,77.293,4.633,63.583,4.633z"/>
	<path d="M45.067,113.125c-0.318,0-0.609-0.215-0.692-0.537c-0.098-0.383,0.132-0.771,0.515-0.871
		c4.162-1.07,11.585-4.767,19.927-10.147c-20.25-10.726-43.343-27.908-46.983-47.54c-2.004-10.805,1.034-21.736,8.554-30.778
		C35.393,12.424,49.645,5.698,63.583,5.698c14.341,0,28.884,6.961,37.952,18.168c7.263,8.976,10.03,19.694,7.793,30.182
		c-3.67,17.201-24.234,35.66-41.74,47.35c9.922,5.094,19.191,8.697,24.785,9.975c0.385,0.089,0.625,0.472,0.537,0.856
		c-0.088,0.386-0.472,0.626-0.855,0.538c-5.444-1.244-15.168-4.933-25.836-10.464c-8.771,5.733-16.624,9.681-20.973,10.799
		C45.187,113.117,45.126,113.125,45.067,113.125z M63.583,7.128c-13.525,0-27.355,6.528-36.095,17.038
		c-7.244,8.71-10.173,19.224-8.248,29.604c2.966,15.996,19.313,29.721,32.504,38.418c4.708,3.104,9.637,5.964,14.447,8.486
		c17.368-11.452,38.092-29.83,41.738-46.923c2.146-10.058-0.521-20.351-7.506-28.985C91.754,14.051,77.293,7.128,63.583,7.128z"/>
	<path d="M45.067,115.62c-0.318,0-0.609-0.214-0.692-0.536c-0.098-0.383,0.132-0.772,0.515-0.871
		c4.162-1.07,11.585-4.768,19.927-10.148c-20.249-10.727-43.343-27.91-46.983-47.539C15.83,45.72,18.868,34.79,26.388,25.747
		C35.393,14.919,49.645,8.193,63.583,8.193c14.341,0,28.884,6.961,37.952,18.168c7.263,8.976,10.03,19.695,7.793,30.183
		c-3.67,17.2-24.235,35.659-41.74,47.35c9.921,5.095,22.191,10.696,27.785,11.976c0.385,0.088,0.625,0.471,0.537,0.855
		s-0.472,0.629-0.855,0.538c-5.445-1.243-18.166-6.931-28.837-12.464c-8.77,5.734-16.623,9.681-20.972,10.799
		C45.187,115.613,45.126,115.62,45.067,115.62z M63.583,9.623c-13.525,0-27.355,6.529-36.095,17.038
		c-7.244,8.71-10.173,19.224-8.248,29.604c2.966,15.997,19.313,29.722,32.504,38.418c4.708,3.104,9.636,5.964,14.446,8.486
		c17.368-11.452,38.093-29.83,41.739-46.923c2.146-10.059-0.521-20.352-7.506-28.985C91.754,16.546,77.293,9.623,63.583,9.623z"/>
	<path d="M45.067,118.115c-0.318,0-0.609-0.214-0.692-0.537c-0.098-0.382,0.132-0.771,0.515-0.87
		c4.162-1.07,11.585-4.767,19.927-10.147c-20.25-10.727-43.343-27.909-46.983-47.54c-2.004-10.805,1.034-21.736,8.554-30.778
		c9.004-10.828,23.256-17.554,37.195-17.554c14.341,0,28.884,6.962,37.952,18.168c7.263,8.976,10.03,19.695,7.793,30.183
		c-3.67,17.201-24.234,35.66-41.74,47.351c9.922,5.094,19.191,8.696,24.785,9.975c0.385,0.088,0.625,0.472,0.537,0.856
		s-0.472,0.626-0.855,0.537c-5.444-1.244-15.168-4.933-25.836-10.463c-8.771,5.732-16.624,9.68-20.973,10.799
		C45.187,118.108,45.126,118.115,45.067,118.115z M63.583,12.119c-13.525,0-27.355,6.529-36.095,17.038
		c-7.244,8.71-10.173,19.224-8.248,29.604c2.966,15.996,19.313,29.722,32.504,38.418c4.708,3.104,9.637,5.965,14.447,8.486
		c17.368-11.451,38.092-29.829,41.738-46.923c2.146-10.058-0.521-20.352-7.506-28.985C91.754,19.042,77.293,12.119,63.583,12.119z"
		/>
	<path d="M43.067,121.611c-0.318,0-0.609-0.215-0.692-0.537c-0.098-0.383,0.132-0.772,0.515-0.871
		c4.162-1.07,13.585-5.767,21.927-11.148c-20.249-10.726-43.343-27.91-46.983-47.539c-2.004-10.805,1.034-21.736,8.554-30.779
		c9.004-10.827,23.256-17.553,37.195-17.553c14.341,0,28.884,6.961,37.952,18.168c7.263,8.976,10.03,19.695,7.793,30.183
		c-3.67,17.2-24.235,35.659-41.74,47.35c9.921,5.094,22.191,10.696,27.785,11.975c0.385,0.088,0.625,0.472,0.537,0.856
		s-0.472,0.628-0.855,0.538c-5.445-1.244-18.166-6.932-28.837-12.465c-8.77,5.734-18.623,10.681-22.972,11.799
		C43.187,121.604,43.126,121.611,43.067,121.611z M63.583,14.614c-13.525,0-27.355,6.529-36.095,17.038
		c-7.244,8.71-10.173,19.224-8.248,29.604c2.966,15.997,19.313,29.721,32.504,38.418c4.708,3.104,9.636,5.963,14.446,8.486
		c17.368-11.453,38.093-29.83,41.739-46.923c2.146-10.058-0.521-20.352-7.506-28.985C91.754,21.537,77.293,14.614,63.583,14.614z"/>
	<path d="M45.067,123.106c-0.318,0-0.609-0.214-0.692-0.537c-0.098-0.382,0.132-0.772,0.515-0.87
		c4.162-1.07,11.585-4.768,19.927-10.148c-20.25-10.727-43.343-27.908-46.983-47.54c-2.004-10.805,1.034-21.736,8.554-30.778
		c9.004-10.828,23.256-17.554,37.195-17.554c14.341,0,28.884,6.961,37.952,18.168c7.263,8.975,10.03,19.694,7.793,30.182
		c-3.67,17.201-24.234,35.66-41.74,47.351c9.922,5.094,19.191,8.695,24.785,9.975c0.385,0.088,0.625,0.471,0.537,0.855
		c-0.088,0.386-0.472,0.626-0.855,0.537c-5.444-1.243-15.168-4.932-25.836-10.463c-8.771,5.733-16.624,9.68-20.973,10.799
		C45.187,123.1,45.126,123.106,45.067,123.106z M63.583,17.109c-13.525,0-27.355,6.528-36.095,17.038
		c-7.244,8.71-10.173,19.224-8.248,29.604c2.966,15.997,19.313,29.721,32.504,38.418c4.708,3.104,9.637,5.964,14.447,8.486
		c17.368-11.452,38.092-29.829,41.738-46.923c2.146-10.058-0.521-20.352-7.506-28.985C91.754,24.033,77.293,17.109,63.583,17.109z"
		/>
	<path d="M43.067,125.602c-0.318,0-0.609-0.214-0.692-0.537c-0.098-0.383,0.132-0.771,0.515-0.871
		c4.162-1.069,13.585-4.766,21.927-10.147c-20.249-10.726-43.343-27.91-46.983-47.539c-2.004-10.806,1.034-21.736,8.554-30.778
		C35.393,24.9,49.645,18.175,63.583,18.175c14.341,0,28.884,6.961,37.952,18.168c7.263,8.976,10.03,19.695,7.793,30.183
		c-3.67,17.199-24.235,35.659-41.74,47.35c9.921,5.094,19.191,8.697,24.785,9.976c0.385,0.088,0.625,0.471,0.537,0.856
		c-0.088,0.385-0.472,0.627-0.855,0.537c-5.445-1.244-15.166-4.931-25.837-10.464c-8.77,5.733-18.623,9.681-22.972,10.799
		C43.187,125.595,43.126,125.602,43.067,125.602z M63.583,19.604c-13.525,0-27.355,6.529-36.095,17.038
		c-7.244,8.71-10.173,19.224-8.248,29.604c2.966,15.996,19.313,29.721,32.504,38.418c4.708,3.104,9.636,5.964,14.446,8.486
		c17.368-11.452,38.093-29.83,41.739-46.923c2.146-10.059-0.521-20.352-7.506-28.985C91.754,26.528,77.293,19.604,63.583,19.604z"/>
</g>
</svg>
