<?xml version="1.0" encoding="utf-8"?>
<!-- Generator: Adobe Illustrator 16.0.4, SVG Export Plug-In . SVG Version: 6.00 Build 0)  -->
<!DOCTYPE svg PUBLIC "-//W3C//DTD SVG 1.1//EN" "http://www.w3.org/Graphics/SVG/1.1/DTD/svg11.dtd">
<svg version="1.1" id="Layer_4301" xmlns="http://www.w3.org/2000/svg" xmlns:xlink="http://www.w3.org/1999/xlink" x="0px" y="0px"
	 width="128px" height="128px" viewBox="0 0 128 128" enable-background="new 0 0 128 128" xml:space="preserve">
<g>
	<path d="M127.132,69.891c-0.558-0.023-1.105,0.064-1.649,0.164c-2.213,0.402-4.441,0.689-6.687,0.822
		c-2.505,0.148-4.892-0.369-7.147-1.428c-2.225-1.044-4.16-2.532-6.004-4.139c-1.474-1.285-2.874-2.649-4.357-3.923
		c-1.514-1.301-3.096-2.487-4.912-3.352c-1.529-0.727-3.066-1.435-4.631-2.087c-2.233-0.931-4.465-1.878-6.79-2.552
		c-2.354-0.682-4.512-1.722-6.507-3.126c-1.02-0.717-2.064-1.393-3.18-1.954c-1.916-0.966-3.957-1.539-6.064-1.895
		c-2.532-0.427-5.093-0.523-7.651-0.589c-2.629-0.066-5.261-0.11-7.889,0.083c-1.38,0.101-2.761,0.198-4.137,0.344
		c-2.062,0.219-4.125,0.459-6.171,0.794c-1.447,0.237-2.914,0.414-4.297,0.938c-0.616,0.233-1.236,0.284-1.883,0.247
		c-1.284-0.075-2.532-0.342-3.771-0.67c-2.077-0.549-4.095-1.256-6.012-2.234c-0.781-0.398-1.466-0.912-1.957-1.659
		c-0.352-0.534-0.724-1.055-1.089-1.581c-1.201-1.73-1.731-3.619-1.456-5.736c0.181-1.388,0.306-2.787,0.244-4.193
		c-0.047-1.042-0.193-2.07-0.689-3.008c-0.537-1.013-1.418-1.12-2.148-0.241c-1.093,1.316-2.02,2.762-3.183,4.024
		c-0.656,0.712-1.259,1.472-2,2.103c-0.783,0.668-1.527,0.765-2.442,0.296c-0.419-0.215-0.778-0.517-1.127-0.827
		c-1.549-1.376-2.834-2.977-3.994-4.688c-0.591-0.871-1.134-1.78-1.889-2.532c-0.735-0.732-0.993-0.685-1.359,0.272
		c-0.443,1.16-0.597,2.379-0.691,3.604c-0.108,1.397-0.153,2.795,0.036,4.195c0.108,0.8,0.279,1.613,0.011,2.418
		c-0.219,0.657-0.367,1.333-0.5,2.011c-0.408,2.092-0.641,4.203-0.628,6.339c0.005,0.888-0.107,1.763-0.602,2.54
		c-0.232,0.365-0.475,0.723-0.696,1.094c-0.442,0.742-0.894,1.479-1.114,2.33c-0.358,1.39,0.095,2.456,1.34,3.139
		c0.633,0.348,1.321,0.498,2.02,0.622c1.443,0.254,2.857,0.227,4.215-0.405c0.252-0.117,0.516-0.204,0.789-0.248
		c0.39-0.063,0.548,0.055,0.607,0.443c0.048,0.31,0.035,0.623,0.004,0.932c-0.053,0.538,0.08,1.021,0.346,1.489
		c0.248,0.437,0.582,0.817,0.787,1.279c0.228,0.511,0.592,0.894,1.114,1.104c0.22,0.088,0.379,0.224,0.529,0.399
		c0.286,0.336,0.452,0.734,0.626,1.13c0.478,1.081,0.724,2.235,1.034,3.367c0.811,2.959,1.851,5.824,3.234,8.566
		c0.564,1.119,0.943,2.312,0.82,3.598c-0.097,1.008-0.471,1.943-0.817,2.884c-1.375,3.744-2.96,7.414-3.947,11.295
		c-0.298,1.173-0.588,1.328-1.792,1.087c-1.773-0.354-3.557,0.786-4.199,2.042c-0.495,0.968-0.262,1.771,0.658,2.354
		c0.419,0.266,0.888,0.373,1.367,0.455c1.222,0.211,2.443,0.127,3.673,0.064c1.073-0.057,1.921-0.48,2.674-1.197
		c1.645-1.568,2.899-3.424,4.025-5.381c0.57-0.99,1.007-2.047,1.53-3.061c1.428-2.766,3.131-5.377,4.564-8.141
		c0.436-0.842,0.907-1.668,1.056-2.631c0.057-0.367,0.311-0.637,0.62-0.861c1.302-0.945,4.334-0.545,4.893,1.764
		c0.525,2.166,1.086,4.322,1.478,6.518c0.316,1.77,0.655,3.537,0.664,5.346c0.004,0.66,0.108,1.307,0.259,1.948
		c0.206,0.874,0.407,1.751,0.524,2.644c0.127,0.965-0.095,1.273-1.04,1.475c-0.932,0.198-1.851,0.448-2.696,0.899
		c-0.817,0.437-1.422,1.058-1.517,2.028c-0.039,0.396-0.105,0.787-0.157,1.181c-0.069,0.528,0.05,0.715,0.572,0.866
		c0.42,0.121,0.855,0.139,1.285,0.162c1.98,0.112,3.911-0.09,5.677-1.083c1.352-0.761,2.202-1.86,2.229-3.489
		c0.023-1.367,0.147-2.73,0.304-4.086c0.346-3.01,0.478-6.035,0.703-9.055c0.14-1.88,0.306-3.758,0.604-5.62
		c0.184-1.15,0.698-1.649,1.85-1.856c0.75-0.134,1.508-0.203,2.271-0.204c1.939-0.005,3.879,0.021,5.817-0.018
		c1.663-0.032,3.268-0.353,4.704-1.256c0.497-0.313,0.962-0.677,1.449-1.006c0.332-0.224,0.461-0.167,0.49,0.235
		c0.031,0.436,0.12,0.855,0.225,1.275c0.49,1.965,1.216,3.816,2.535,5.395c0.82,0.982,1.618,1.983,2.431,2.972
		c1.06,1.29,1.846,2.716,2.157,4.37c0.263,1.4,0.137,2.722-0.823,3.867c-0.166,0.197-0.308,0.42-0.434,0.646
		c-0.393,0.711-0.762,1.436-1.161,2.143c-0.454,0.806-1.027,1.483-2.006,1.659c-0.575,0.104-1.135,0.008-1.694-0.127
		c-0.846-0.203-1.578-0.004-2.162,0.658c-0.562,0.638-0.924,1.371-1.03,2.223c-0.119,0.953,0.207,1.516,1.135,1.75
		c1.234,0.312,2.499,0.378,3.757,0.16c1.259-0.217,2.339-0.854,3.313-1.644c1.898-1.538,3.654-3.237,5.188-5.14
		c1.236-1.534,2.159-3.26,2.508-5.232c0.274-1.556,0.094-3.032-0.849-4.359c-0.188-0.267-0.387-0.529-0.529-0.83
		c-0.682-1.443-0.582-2.89-0.007-4.328c0.278-0.695,0.696-1.312,1.235-1.84c0.603-0.588,0.943-0.574,1.498,0.038
		c0.8,0.883,1.743,1.57,2.812,2.095c1.434,0.703,2.974,1.119,4.472,1.646c2.981,1.049,5.448,2.812,7.481,5.217
		c0.727,0.859,1.356,1.791,2.061,2.667c0.6,0.745,1.109,1.546,1.504,2.415c0.281,0.618,0.496,1.255,0.48,1.946
		c-0.014,0.621-0.215,0.841-0.828,0.89c-0.534,0.043-1.065,0.086-1.584,0.242c-1.18,0.354-1.932,1.122-2.229,2.307
		c-0.3,1.191,0.189,1.941,1.387,2.225c0.46,0.109,0.925,0.15,1.392,0.123c1.537-0.096,3.061-0.326,4.571-0.601
		c1.327-0.241,1.993-1.165,2.008-2.509c0.009-0.888-0.116-1.762-0.272-2.629c-0.435-2.416-0.992-4.804-1.742-7.145
		c-0.335-1.043-0.734-2.051-1.492-2.875c-0.716-0.776-1.451-1.531-2.219-2.255c-1.273-1.2-2.516-2.419-3.408-3.954
		c-1.164-2.004-1.906-4.136-2.104-6.45c-0.083-0.965-0.175-1.929-0.256-2.894c-0.135-1.604-0.328-3.198-0.556-4.79
		c-0.023-0.16-0.103-0.436,0.033-0.465c0.166-0.036,0.194,0.242,0.258,0.39c1.075,2.488,2.408,4.827,4.064,6.975
		c2.366,3.064,4.979,5.889,8.088,8.225c2.258,1.697,4.733,2.91,7.53,3.421c1.574,0.288,3.164,0.317,4.979,0.305
		c1.284,0.024,2.788,0.005,4.276-0.284c2.451-0.479,4.822-1.207,7.102-2.238c1.773-0.801,3.461-1.738,4.936-3.025
		c0.832-0.727,1.488-1.58,1.896-2.62c0.395-1.005,0.722-2.021,0.686-3.115C127.949,70.114,127.728,69.914,127.132,69.891z
		 M7.047,32.558c0.174-0.136,0.425-0.106,0.562,0.068c0.289,0.368,0.579,0.719,0.871,1.054c0.146,0.167,0.128,0.419-0.039,0.564
		c-0.076,0.066-0.169,0.098-0.263,0.098c-0.112,0-0.223-0.046-0.302-0.137c-0.301-0.345-0.599-0.707-0.897-1.086
		C6.843,32.945,6.874,32.694,7.047,32.558z M4.729,40.098l0.096-0.478c0.046-0.216,0.259-0.354,0.474-0.309
		c0.216,0.046,0.354,0.258,0.309,0.474l-0.094,0.466c-0.051,0.261-0.098,0.52-0.143,0.776c-0.034,0.195-0.203,0.332-0.394,0.332
		c-0.022,0-0.045-0.002-0.068-0.006c-0.218-0.038-0.363-0.244-0.326-0.462C4.628,40.629,4.677,40.365,4.729,40.098z M5.118,33.294
		c0-0.221,0.179-0.4,0.4-0.4s0.4,0.179,0.4,0.4c0,0.408,0.015,0.825,0.052,1.243c0.02,0.22-0.143,0.414-0.363,0.434
		c-0.012,0.001-0.024,0.001-0.036,0.001c-0.205,0-0.379-0.157-0.398-0.365C5.133,34.167,5.118,33.726,5.118,33.294z M4.303,42.808
		c0.024-0.22,0.222-0.358,0.441-0.325c0.22,0.023,0.378,0.236,0.354,0.456c-0.047,0.422-0.084,0.733-0.111,1.148
		c-0.014,0.211-0.19,0.266-0.399,0.266c-0.009,0-0.018,0-0.026,0c-0.221,0-0.388-0.09-0.373-0.311
		C4.218,43.615,4.255,43.242,4.303,42.808z M4.131,46.196c0-0.221,0.179-0.423,0.399-0.423c0.221,0,0.4,0.155,0.4,0.375
		c0,0.516-0.028,0.937-0.085,1.333c-0.028,0.199-0.199,0.343-0.396,0.343c-0.019,0-0.038-0.001-0.057-0.004
		c-0.218-0.031-0.371-0.234-0.339-0.453C4.106,47.004,4.131,46.631,4.131,46.196z M2.599,52.256
		c-0.064,0.148-0.118,0.293-0.155,0.438c-0.031,0.122-0.047,0.212-0.047,0.269c0.164,0.148,0.182,0.42,0.034,0.583
		c-0.083,0.091-0.197,0.141-0.31,0.141c-0.089,0-0.177-0.031-0.249-0.096c-0.185-0.168-0.275-0.374-0.275-0.628
		c0-0.129,0.022-0.273,0.072-0.468c0.047-0.185,0.115-0.371,0.197-0.56c0.088-0.203,0.324-0.295,0.527-0.206
		C2.595,51.818,2.688,52.054,2.599,52.256z M3.202,50.785c-0.074,0-0.149-0.021-0.216-0.063c-0.186-0.119-0.24-0.367-0.12-0.553
		l0.415-0.642c0.086-0.135,0.165-0.273,0.235-0.412c0.101-0.197,0.343-0.275,0.538-0.175c0.197,0.101,0.275,0.341,0.175,0.538
		c-0.082,0.16-0.173,0.321-0.273,0.48l-0.416,0.644C3.462,50.72,3.333,50.785,3.202,50.785z M5.272,54.403l-0.194,0.003
		c-0.363,0-0.741-0.032-1.155-0.098c-0.219-0.035-0.367-0.24-0.332-0.458c0.035-0.218,0.241-0.369,0.458-0.332
		c0.372,0.06,0.709,0.088,1.029,0.088l0.169-0.003c0.226,0.008,0.405,0.166,0.413,0.387C5.667,54.211,5.494,54.396,5.272,54.403z
		 M6.107,37.875C6.071,38.066,5.903,38.2,5.715,38.2c-0.024,0-0.05-0.002-0.075-0.007c-0.217-0.041-0.359-0.25-0.318-0.467
		c0.054-0.286,0.081-0.579,0.081-0.895c0-0.097-0.002-0.191-0.007-0.285c-0.011-0.221,0.159-0.408,0.38-0.419
		c0.214-0.026,0.409,0.159,0.419,0.38c0.006,0.106,0.008,0.215,0.008,0.324C6.202,37.198,6.171,37.539,6.107,37.875z M6.02,31.157
		c-0.004,0.044-0.007,0.088-0.011,0.132c-0.017,0.209-0.192,0.368-0.398,0.368c-0.011,0-0.021,0-0.032-0.001
		c-0.22-0.018-0.385-0.21-0.367-0.431c0.018-0.218,0.037-0.438,0.061-0.658c0.018-0.167,0.138-0.306,0.301-0.346
		c0.165-0.041,0.335,0.026,0.429,0.166l0.324,0.482L6.02,31.157z M8.424,53.598c-0.062,0.006-0.128,0.015-0.197,0.025
		c-0.311,0.051-0.624,0.138-0.932,0.258c-0.048,0.019-0.098,0.028-0.146,0.028c-0.159,0-0.31-0.095-0.372-0.253
		c-0.081-0.206,0.021-0.438,0.226-0.519c0.36-0.142,0.729-0.244,1.097-0.304c0.086-0.014,0.169-0.024,0.249-0.032
		c0.22-0.031,0.415,0.14,0.437,0.36C8.805,53.382,8.644,53.577,8.424,53.598z M9.358,96.082c-0.02,0-0.039-0.001-0.06-0.004
		l-0.173-0.027c-0.117-0.02-0.344-0.061-0.521-0.115c-0.125-0.039-0.223-0.137-0.263-0.262c-0.04-0.124-0.016-0.26,0.064-0.363
		c0.144-0.188,0.337-0.37,0.56-0.525c0.18-0.127,0.43-0.084,0.557,0.098c0.095,0.135,0.094,0.309,0.013,0.441
		c0.152,0.074,0.245,0.241,0.219,0.418C9.724,95.94,9.554,96.082,9.358,96.082z M36.932,49.826l0.149,0.009
		c0.373,0.022,0.734,0.019,1.079-0.013c0.224-0.014,0.415,0.143,0.434,0.362c0.02,0.22-0.143,0.415-0.362,0.435
		c-0.223,0.02-0.451,0.03-0.685,0.03c-0.169,0-0.339-0.005-0.511-0.015l-0.157-0.01c-0.22-0.015-0.387-0.205-0.372-0.426
		S36.71,49.8,36.932,49.826z M36.351,88.397c0.04,0.445,0.067,0.817,0.077,1.272c0.005,0.221-0.17,0.33-0.391,0.33
		c-0.003,0-0.006,0-0.009,0c-0.217,0-0.395-0.102-0.4-0.319c-0.009-0.437-0.036-0.833-0.074-1.261
		c-0.02-0.22,0.143-0.396,0.362-0.416C36.139,87.992,36.331,88.178,36.351,88.397z M35.863,85.02
		c0.078,0.434,0.154,0.872,0.224,1.314c0.035,0.219-0.114,0.424-0.332,0.458c-0.021,0.003-0.042,0.005-0.063,0.005
		c-0.193,0-0.363-0.141-0.395-0.337c-0.069-0.438-0.146-0.87-0.222-1.3c-0.039-0.218,0.106-0.426,0.324-0.464
		C35.615,84.652,35.824,84.802,35.863,85.02z M33.282,49.604c0.052-0.215,0.267-0.349,0.482-0.295
		c0.387,0.093,0.804,0.185,1.242,0.266c0.218,0.041,0.361,0.249,0.321,0.466c-0.036,0.192-0.204,0.327-0.393,0.327
		c-0.024,0-0.048-0.002-0.073-0.006c-0.453-0.084-0.884-0.179-1.284-0.275C33.362,50.035,33.23,49.819,33.282,49.604z
		 M20.322,31.492l0.392-0.522c0.096-0.127,0.257-0.188,0.414-0.147c0.155,0.038,0.273,0.164,0.3,0.321
		c0.036,0.208,0.063,0.433,0.083,0.68c0.018,0.22-0.147,0.413-0.367,0.431c-0.011,0-0.021,0.001-0.032,0.001
		c-0.126,0-0.241-0.06-0.315-0.154c-0.125,0.052-0.275,0.039-0.392-0.049C20.226,31.919,20.19,31.669,20.322,31.492z M21.523,33.865
		c-0.023,0.454-0.061,0.895-0.104,1.309c-0.021,0.206-0.195,0.358-0.397,0.358c-0.014,0-0.028,0-0.042-0.002
		c-0.22-0.023-0.379-0.22-0.355-0.439c0.042-0.401,0.078-0.828,0.101-1.267c0.012-0.221,0.198-0.395,0.42-0.379
		C21.365,33.457,21.535,33.645,21.523,33.865z M20.001,77.34c-0.006,0.133-0.015,0.266-0.028,0.398
		c-0.031,0.321-0.081,0.633-0.145,0.934c-0.04,0.188-0.206,0.317-0.391,0.317c-0.027,0-0.055-0.003-0.083-0.008
		c-0.216-0.046-0.354-0.259-0.309-0.475c0.058-0.272,0.103-0.555,0.131-0.845c0.011-0.119,0.02-0.238,0.025-0.357
		c0.01-0.221,0.195-0.387,0.417-0.383C19.84,76.932,20.011,77.119,20.001,77.34z M19.507,75.759c-0.029,0.007-0.059,0.01-0.088,0.01
		c-0.183,0-0.349-0.126-0.39-0.312c-0.085-0.38-0.205-0.774-0.353-1.171c-0.078-0.206,0.026-0.437,0.233-0.515
		c0.206-0.077,0.438,0.026,0.515,0.233c0.162,0.431,0.292,0.86,0.385,1.277C19.858,75.496,19.723,75.711,19.507,75.759z
		 M18.119,34.211l0.17-0.187c0.256-0.278,0.499-0.562,0.732-0.846c0.14-0.17,0.393-0.195,0.562-0.055
		c0.171,0.14,0.196,0.392,0.056,0.563c-0.243,0.296-0.496,0.59-0.762,0.879l-0.163,0.18c-0.079,0.088-0.188,0.133-0.298,0.133
		c-0.095,0-0.19-0.034-0.267-0.102C17.985,34.629,17.972,34.376,18.119,34.211z M15.689,36.61c0.156-0.104,0.311-0.22,0.462-0.349
		c0.19-0.162,0.369-0.328,0.54-0.496c0.158-0.155,0.411-0.153,0.566,0.005c0.155,0.157,0.152,0.411-0.005,0.565
		c-0.184,0.181-0.377,0.359-0.582,0.534c-0.176,0.151-0.356,0.287-0.539,0.408c-0.068,0.045-0.145,0.066-0.221,0.066
		c-0.13,0-0.257-0.063-0.334-0.179C15.455,36.98,15.506,36.732,15.689,36.61z M9.376,35.778c-0.16-0.153-0.166-0.406-0.013-0.565
		c0.152-0.16,0.406-0.165,0.565-0.014c0.182,0.174,0.367,0.344,0.553,0.51c0.142,0.126,0.294,0.259,0.459,0.392
		c0.172,0.139,0.199,0.391,0.06,0.562c-0.079,0.098-0.195,0.148-0.312,0.148c-0.088,0-0.177-0.029-0.251-0.089
		c-0.175-0.141-0.337-0.282-0.488-0.417C9.756,36.134,9.565,35.958,9.376,35.778z M10.554,54.92
		c-0.124-0.356-0.321-0.649-0.586-0.871c-0.17-0.142-0.192-0.394-0.05-0.563c0.142-0.169,0.394-0.192,0.563-0.05
		c0.377,0.316,0.655,0.727,0.828,1.221c0.072,0.208-0.038,0.437-0.246,0.509c-0.044,0.016-0.088,0.022-0.132,0.022
		C10.767,55.188,10.611,55.085,10.554,54.92z M11.893,58.182c-0.066,0.042-0.139,0.061-0.212,0.061
		c-0.133,0-0.263-0.066-0.339-0.188c-0.089-0.142-0.174-0.266-0.251-0.379c-0.109-0.159-0.188-0.275-0.258-0.398
		c-0.103-0.181-0.149-0.325-0.149-0.467l0.402-0.034L10.691,56.7c0.019-0.22,0.211-0.379,0.433-0.364
		c0.22,0.019,0.383,0.213,0.364,0.433c-0.007,0.016,0,0.045,0.04,0.114c0.06,0.104,0.127,0.202,0.193,0.299
		c0.112,0.164,0.204,0.298,0.299,0.449C12.137,57.818,12.08,58.065,11.893,58.182z M12.426,37.825
		c-0.211-0.066-0.329-0.29-0.263-0.501c0.065-0.211,0.288-0.329,0.501-0.263c0.359,0.112,0.719,0.169,1.069,0.169l0.162-0.004
		c0.228-0.011,0.408,0.16,0.418,0.38c0.011,0.221-0.16,0.408-0.38,0.419l-0.2,0.005C13.301,38.03,12.861,37.96,12.426,37.825z
		 M14.036,60.511c-0.064,0.039-0.135,0.057-0.205,0.057c-0.136,0-0.269-0.069-0.344-0.195c-0.112-0.187-0.241-0.375-0.397-0.558
		c-0.105-0.124-0.214-0.236-0.328-0.336c-0.165-0.146-0.18-0.399-0.034-0.565c0.146-0.165,0.399-0.18,0.565-0.034
		c0.141,0.125,0.275,0.263,0.406,0.416c0.173,0.204,0.329,0.422,0.475,0.667C14.287,60.152,14.226,60.397,14.036,60.511z
		 M15.022,63.579c-0.175,0-0.336-0.116-0.385-0.292c-0.11-0.394-0.231-0.792-0.375-1.192c-0.075-0.208,0.033-0.437,0.241-0.512
		c0.208-0.076,0.437,0.033,0.512,0.241c0.151,0.419,0.277,0.836,0.393,1.248c0.059,0.212-0.065,0.433-0.278,0.493
		C15.094,63.574,15.058,63.579,15.022,63.579z M15.89,66.707c-0.171,0-0.33-0.111-0.382-0.283c-0.124-0.406-0.244-0.817-0.361-1.236
		c-0.06-0.213,0.064-0.434,0.277-0.493c0.212-0.061,0.434,0.065,0.493,0.277c0.115,0.413,0.234,0.819,0.356,1.219
		c0.064,0.211-0.054,0.435-0.266,0.499C15.968,66.701,15.929,66.707,15.89,66.707z M17.088,69.75
		c-0.047,0.019-0.096,0.027-0.144,0.027c-0.161,0-0.312-0.098-0.374-0.257c-0.153-0.397-0.301-0.802-0.445-1.211
		c-0.073-0.208,0.036-0.437,0.245-0.511c0.208-0.072,0.437,0.037,0.51,0.245c0.141,0.403,0.287,0.799,0.437,1.189
		C17.397,69.439,17.294,69.671,17.088,69.75z M17.328,71.357c-0.089-0.202,0.002-0.438,0.205-0.527
		c0.201-0.089,0.438,0.002,0.527,0.205c0.171,0.389,0.348,0.771,0.529,1.149c0.096,0.199,0.012,0.438-0.188,0.534
		c-0.056,0.026-0.115,0.039-0.173,0.039c-0.149,0-0.292-0.084-0.361-0.227C17.682,72.146,17.502,71.754,17.328,71.357z
		 M10.68,94.756c0.033-0.219,0.236-0.369,0.455-0.337c0.462,0.069,0.822,0.069,1.148,0.015c0.217-0.037,0.424,0.109,0.46,0.328
		c0.036,0.218-0.11,0.424-0.329,0.461c-0.196,0.032-0.406,0.05-0.631,0.05c-0.232,0-0.479-0.02-0.767-0.062
		C10.798,95.178,10.647,94.974,10.68,94.756z M12.846,96.046c-0.128,0.027-0.262,0.222-0.403,0.229L11.458,96.5
		c-0.006,0-0.012,0-0.017,0c-0.213,0-0.39-0.347-0.399-0.562c-0.009-0.221,0.162-0.497,0.383-0.505l0.978-0.094
		c0.098-0.005,0.189-0.039,0.277-0.057c0.215-0.049,0.429,0.081,0.475,0.297S13.062,96,12.846,96.046z M15.567,93.725
		c-0.292,0.367-0.588,0.707-0.889,1.026c-0.079,0.083-0.185,0.126-0.291,0.126c-0.099,0-0.197-0.037-0.274-0.109
		c-0.149-0.141-0.16-0.365-0.042-0.525c-0.022,0.004-0.044,0.015-0.066,0.015c-0.087,0-0.175-0.028-0.249-0.087
		c-0.173-0.137-0.202-0.389-0.065-0.562c0.215-0.271,0.393-0.61,0.53-1.008c0.071-0.21,0.298-0.32,0.508-0.249
		c0.209,0.072,0.32,0.3,0.248,0.509c-0.079,0.23-0.172,0.444-0.276,0.644c0.08-0.096,0.162-0.18,0.242-0.279
		c0.138-0.172,0.39-0.2,0.562-0.062C15.678,93.301,15.706,93.553,15.567,93.725z M15.884,89.733
		c-0.13,0.403-0.254,0.807-0.373,1.212c-0.051,0.175-0.211,0.288-0.384,0.288c-0.038,0-0.075-0.005-0.113-0.017
		c-0.212-0.062-0.333-0.283-0.272-0.496c0.121-0.412,0.248-0.822,0.379-1.232c0.068-0.21,0.292-0.325,0.503-0.258
		C15.836,89.298,15.952,89.523,15.884,89.733z M15.759,87.613c0.143-0.4,0.29-0.803,0.44-1.206c0.077-0.208,0.308-0.313,0.514-0.235
		c0.207,0.076,0.312,0.307,0.236,0.514c-0.149,0.4-0.294,0.799-0.436,1.197c-0.058,0.163-0.212,0.266-0.377,0.266
		c-0.044,0-0.09-0.008-0.134-0.023C15.794,88.051,15.686,87.822,15.759,87.613z M17.495,90.903c-0.24,0.401-0.478,0.78-0.712,1.138
		c-0.077,0.117-0.205,0.18-0.335,0.18c-0.075,0-0.151-0.021-0.219-0.064c-0.185-0.122-0.235-0.37-0.114-0.555
		c0.229-0.349,0.46-0.717,0.694-1.109c0.113-0.189,0.358-0.253,0.549-0.138C17.547,90.468,17.608,90.713,17.495,90.903z
		 M17.271,85.106c-0.048,0-0.097-0.009-0.144-0.026c-0.206-0.08-0.31-0.311-0.23-0.518l0.458-1.193
		c0.079-0.207,0.309-0.311,0.517-0.23c0.207,0.078,0.31,0.311,0.23,0.516l-0.458,1.195C17.583,85.008,17.431,85.106,17.271,85.106z
		 M19.053,87.883l-0.571,1.194c-0.069,0.144-0.212,0.227-0.361,0.227c-0.058,0-0.117-0.013-0.173-0.04
		c-0.199-0.096-0.283-0.334-0.187-0.533l0.573-1.199c0.097-0.198,0.336-0.283,0.535-0.184
		C19.067,87.444,19.149,87.684,19.053,87.883z M18.801,81.812c-0.06,0.161-0.212,0.26-0.375,0.26c-0.047,0-0.094-0.008-0.141-0.025
		c-0.207-0.077-0.312-0.308-0.234-0.515l0.442-1.197c0.076-0.207,0.306-0.312,0.513-0.238c0.208,0.076,0.314,0.306,0.239,0.514
		L18.801,81.812z M20.634,84.941c-0.217,0.38-0.433,0.764-0.645,1.15c-0.073,0.133-0.21,0.208-0.351,0.208
		c-0.065,0-0.131-0.016-0.192-0.05c-0.193-0.105-0.264-0.349-0.158-0.543c0.214-0.391,0.432-0.778,0.651-1.162
		c0.109-0.191,0.354-0.258,0.545-0.15C20.677,84.504,20.743,84.749,20.634,84.941z M20.469,38.44
		c-0.033-0.332-0.05-0.667-0.05-1.004l0.006-0.339c0.007-0.221,0.202-0.391,0.412-0.387c0.221,0.007,0.395,0.192,0.388,0.413
		l-0.006,0.314c0,0.31,0.016,0.618,0.046,0.924c0.021,0.22-0.139,0.416-0.359,0.438c-0.013,0.001-0.027,0.002-0.04,0.002
		C20.663,38.8,20.489,38.646,20.469,38.44z M21.145,39.962c0.212-0.066,0.436,0.051,0.502,0.261c0.123,0.39,0.273,0.778,0.448,1.154
		c0.093,0.201,0.006,0.438-0.195,0.531c-0.054,0.025-0.112,0.037-0.168,0.037c-0.151,0-0.295-0.086-0.363-0.231
		c-0.189-0.407-0.353-0.828-0.485-1.251C20.817,40.253,20.934,40.028,21.145,39.962z M22.32,82.03l-0.642,1.104
		c-0.077,0.133-0.226,0.216-0.374,0.216c-0.063,0-0.128-0.016-0.186-0.049c-0.19-0.111-0.269-0.334-0.157-0.525l0.666-1.146
		c0.11-0.192,0.355-0.258,0.546-0.146C22.365,81.594,22.431,81.839,22.32,82.03z M22.496,42.937c0.181-0.125,0.431-0.082,0.557,0.1
		l0.74,1.063c0.125,0.182,0.078,0.431-0.104,0.556c-0.069,0.047-0.148,0.07-0.226,0.07c-0.128,0-0.253-0.061-0.331-0.174
		l-0.736-1.059C22.27,43.312,22.314,43.063,22.496,42.937z M23.957,79.068L23.9,79.177c-0.185,0.356-0.376,0.714-0.572,1.069
		c-0.073,0.133-0.209,0.207-0.351,0.207c-0.065,0-0.131-0.016-0.192-0.049c-0.193-0.106-0.265-0.35-0.158-0.543
		c0.193-0.352,0.382-0.703,0.563-1.054l0.057-0.108c0.103-0.196,0.345-0.271,0.54-0.17C23.983,78.632,24.059,78.873,23.957,79.068z
		 M25.195,76.003c-0.208,0.316-0.343,0.664-0.399,1.034L24,76.947c0.08-0.516,0.255-0.971,0.526-1.384
		c0.121-0.185,0.37-0.237,0.554-0.114C25.265,75.57,25.316,75.818,25.195,76.003z M25.494,47.008
		c-0.394-0.254-0.756-0.536-1.076-0.837c-0.161-0.152-0.168-0.405-0.016-0.565c0.152-0.161,0.405-0.167,0.565-0.017
		c0.284,0.269,0.607,0.52,0.96,0.748c0.186,0.12,0.239,0.367,0.119,0.553c-0.076,0.119-0.205,0.183-0.336,0.183
		C25.636,47.072,25.562,47.051,25.494,47.008z M27.714,74.436c-0.414,0.079-0.801,0.208-1.15,0.383
		c-0.057,0.029-0.119,0.043-0.179,0.043c-0.146,0-0.287-0.081-0.357-0.221c-0.099-0.197-0.02-0.438,0.178-0.537
		c0.415-0.208,0.872-0.361,1.358-0.454c0.216-0.043,0.426,0.101,0.468,0.317S27.931,74.394,27.714,74.436z M29.026,48.256
		c-0.063,0.155-0.213,0.25-0.371,0.25c-0.05,0-0.101-0.009-0.15-0.029c-0.41-0.167-0.811-0.34-1.202-0.52
		c-0.201-0.092-0.289-0.33-0.196-0.53c0.093-0.201,0.33-0.288,0.531-0.196c0.38,0.175,0.77,0.344,1.168,0.505
		C29.011,47.818,29.109,48.051,29.026,48.256z M31.31,74.543c-0.063,0.154-0.212,0.247-0.369,0.247c-0.051,0-0.104-0.01-0.153-0.03
		c-0.375-0.156-0.774-0.271-1.185-0.34c-0.218-0.036-0.365-0.242-0.329-0.461c0.037-0.217,0.246-0.364,0.461-0.328
		c0.471,0.08,0.928,0.211,1.359,0.391C31.298,74.105,31.395,74.34,31.31,74.543z M32.136,49.295
		c-0.052,0.174-0.211,0.287-0.384,0.287c-0.037,0-0.076-0.005-0.113-0.016c-0.426-0.126-0.84-0.257-1.246-0.393
		c-0.209-0.07-0.322-0.297-0.252-0.506c0.07-0.21,0.295-0.323,0.506-0.252c0.397,0.133,0.803,0.261,1.219,0.384
		C32.077,48.861,32.198,49.084,32.136,49.295z M33.408,76.979c-0.144,0-0.282-0.077-0.354-0.212
		c-0.189-0.356-0.429-0.684-0.713-0.973c-0.155-0.158-0.152-0.412,0.005-0.566c0.158-0.154,0.411-0.152,0.566,0.006
		c0.338,0.344,0.624,0.734,0.848,1.158c0.104,0.194,0.029,0.437-0.166,0.541C33.535,76.965,33.471,76.979,33.408,76.979z
		 M33.957,79.897l-0.315-1.288c-0.053-0.215,0.079-0.431,0.293-0.483c0.215-0.052,0.432,0.079,0.484,0.294l0.315,1.288
		c0.052,0.215-0.08,0.431-0.294,0.483c-0.032,0.008-0.064,0.012-0.095,0.012C34.165,80.203,34.001,80.08,33.957,79.897z
		 M34.701,83.165c-0.088-0.431-0.182-0.86-0.278-1.288c-0.049-0.215,0.086-0.43,0.302-0.479c0.213-0.048,0.429,0.087,0.478,0.303
		c0.098,0.432,0.192,0.867,0.282,1.304c0.044,0.216-0.096,0.428-0.312,0.472c-0.027,0.006-0.055,0.008-0.081,0.008
		C34.907,83.484,34.74,83.354,34.701,83.165z M32.2,99.678c-0.222,0-0.444-0.006-0.668-0.016c-0.11-0.006-0.213-0.056-0.286-0.14
		c-0.071-0.085-0.105-0.194-0.093-0.304c0.031-0.318,0.21-0.533,0.621-0.762c0.193-0.109,0.437-0.039,0.544,0.154
		c0.053,0.094,0.063,0.201,0.037,0.298c0.144,0.061,0.245,0.202,0.245,0.368C32.601,99.498,32.421,99.678,32.2,99.678z
		 M33.501,98.223c-0.048-0.216,0.087-0.43,0.302-0.479l0.305-0.066c0.326-0.069,0.623-0.166,0.882-0.285
		c0.201-0.093,0.438-0.004,0.531,0.197c0.092,0.2,0.004,0.438-0.196,0.529c-0.313,0.145-0.667,0.26-1.051,0.341l-0.296,0.065
		c-0.03,0.006-0.059,0.01-0.088,0.01C33.708,98.535,33.543,98.408,33.501,98.223z M35.653,99.026
		c-0.415,0.188-0.845,0.331-1.313,0.437c-0.03,0.007-0.06,0.01-0.089,0.01c-0.183,0-0.348-0.126-0.39-0.312
		c-0.049-0.216,0.086-0.43,0.302-0.479c0.416-0.095,0.795-0.22,1.16-0.385c0.201-0.091,0.438-0.001,0.529,0.199
		C35.944,98.699,35.854,98.936,35.653,99.026z M35.9,91.852c-0.05-0.216,0.084-0.431,0.299-0.48c0.216-0.045,0.431,0.084,0.48,0.299
		c0.104,0.447,0.202,0.877,0.288,1.307c0.043,0.217-0.097,0.428-0.313,0.471c-0.027,0.006-0.053,0.008-0.079,0.008
		c-0.187,0-0.354-0.131-0.392-0.321C36.099,92.713,36.003,92.289,35.9,91.852z M37.568,96.651c-0.003,0.229-0.028,0.577-0.195,0.936
		c-0.068,0.146-0.212,0.23-0.362,0.23c-0.057,0-0.114-0.012-0.169-0.038c-0.2-0.093-0.287-0.331-0.193-0.531
		c0.071-0.152,0.103-0.321,0.113-0.534c-0.056,0.028-0.114,0.052-0.177,0.052c-0.054,0-0.108-0.011-0.161-0.033
		c-0.202-0.09-0.294-0.326-0.205-0.527c0.144-0.327,0.219-0.709,0.223-1.135c0.002-0.221,0.188-0.414,0.404-0.396
		c0.221,0.003,0.398,0.183,0.396,0.404c-0.002,0.23-0.03,0.447-0.066,0.659c0.006,0,0.012-0.004,0.019-0.004
		c0.221,0.008,0.394,0.193,0.387,0.414L37.568,96.651z M37.703,94.166c-0.019,0.207-0.193,0.365-0.398,0.365
		c-0.011,0-0.023-0.001-0.035-0.002c-0.22-0.02-0.383-0.213-0.364-0.434c0.036-0.411,0.079-0.846,0.129-1.307
		c0.023-0.221,0.223-0.387,0.441-0.354c0.22,0.024,0.378,0.222,0.354,0.44C37.78,93.332,37.738,93.759,37.703,94.166z
		 M38.042,91.004c-0.02,0.208-0.193,0.496-0.398,0.496c-0.012,0-0.025,0-0.038,0c-0.22,0-0.382-0.35-0.361-0.568
		c0.04-0.432,0.077-0.931,0.111-1.363c0.018-0.22,0.218-0.406,0.431-0.4c0.22,0.018,0.385,0.261,0.367,0.481
		C38.119,90.085,38.082,90.57,38.042,91.004z M38.3,87.855c-0.014,0.211-0.19,0.645-0.399,0.645c-0.009,0-0.018,0-0.027,0
		c-0.221,0-0.387-0.491-0.372-0.711l0.086-1.444c0.014-0.221,0.208-0.466,0.425-0.444c0.221,0.014,0.388,0.206,0.374,0.426
		L38.3,87.855z M38.519,84.107c-0.014,0.211-0.19,0.244-0.398,0.244c-0.009,0-0.019,0-0.028,0c-0.221,0-0.387-0.07-0.372-0.291
		l0.095-1.237c0.017-0.22,0.208-0.348,0.43-0.335c0.22,0.018,0.385,0.227,0.368,0.446L38.519,84.107z M38.786,80.959
		c-0.02,0.207-0.194,0.361-0.398,0.361c-0.013,0-0.026-0.001-0.039-0.002c-0.22-0.021-0.381-0.217-0.359-0.438
		c0.042-0.432,0.088-0.867,0.14-1.306c0.025-0.22,0.229-0.368,0.443-0.351c0.22,0.025,0.376,0.225,0.351,0.443
		C38.873,80.102,38.827,80.532,38.786,80.959z M39.517,76.539c-0.145,0.334-0.252,0.713-0.318,1.126
		c-0.032,0.198-0.206,0.352-0.401,0.352c-0.019,0-0.037-0.001-0.056-0.005c-0.218-0.032-0.37-0.219-0.339-0.436
		c0.083-0.518,0.209-0.961,0.381-1.356c0.088-0.202,0.323-0.295,0.526-0.207S39.605,76.336,39.517,76.539z M39.736,49.862
		c-0.068-0.21,0.046-0.436,0.257-0.504c0.381-0.124,0.804-0.233,1.294-0.333c0.214-0.041,0.428,0.096,0.472,0.312
		c0.044,0.216-0.095,0.428-0.312,0.472c-0.459,0.094-0.854,0.195-1.207,0.31c-0.041,0.013-0.083,0.02-0.124,0.02
		C39.948,50.138,39.791,50.031,39.736,49.862z M41.682,74.648c-0.398,0.126-0.755,0.299-1.059,0.514
		c-0.07,0.049-0.15,0.072-0.23,0.072c-0.126,0-0.25-0.059-0.327-0.17c-0.128-0.18-0.084-0.43,0.096-0.557
		c0.371-0.262,0.801-0.471,1.279-0.623c0.21-0.066,0.435,0.051,0.502,0.261C42.009,74.356,41.893,74.581,41.682,74.648z
		 M42.931,49.146c-0.035-0.218,0.114-0.423,0.332-0.458l0.353-0.056c0.308-0.05,0.619-0.099,0.928-0.145
		c0.222-0.032,0.422,0.118,0.455,0.336c0.033,0.219-0.118,0.422-0.336,0.455c-0.306,0.046-0.612,0.094-0.918,0.144l-0.354,0.056
		c-0.021,0.004-0.042,0.005-0.063,0.005C43.133,49.482,42.962,49.342,42.931,49.146z M44.842,74.346
		C44.42,74.35,43.996,74.5,43.573,74.5c-0.012,0-0.025,0-0.038,0c-0.204,0-0.378-0.244-0.397-0.452
		c-0.021-0.22,0.141-0.46,0.361-0.48c0.445-0.041,0.893-0.086,1.338-0.089c0.192-0.01,0.4,0.21,0.402,0.432
		C45.241,74.131,45.063,74.344,44.842,74.346z M46.175,48.661c-0.027-0.219,0.127-0.419,0.347-0.447
		c0.433-0.055,0.862-0.106,1.288-0.156c0.214-0.024,0.417,0.132,0.443,0.352c0.025,0.22-0.132,0.418-0.352,0.443
		c-0.422,0.048-0.849,0.1-1.278,0.155c-0.017,0.002-0.034,0.003-0.051,0.003C46.373,49.01,46.201,48.863,46.175,48.661z
		 M48.153,74.26l-1.307-0.002c-0.221,0-0.399-0.18-0.399-0.4c0-0.221,0.179-0.398,0.4-0.398c0,0,0,0,0.001,0l1.271,0.002
		c0.221,0,0.417,0.179,0.417,0.4C48.536,74.082,48.374,74.26,48.153,74.26z M49.433,48.279c-0.022-0.22,0.137-0.417,0.356-0.439
		c0.431-0.044,0.862-0.085,1.293-0.122c0.221-0.024,0.414,0.144,0.433,0.364c0.019,0.22-0.144,0.414-0.364,0.433
		c-0.427,0.037-0.854,0.077-1.279,0.121c-0.014,0.001-0.028,0.002-0.042,0.002C49.628,48.637,49.454,48.484,49.433,48.279z
		 M51.502,74.197c-0.262,0.023-0.533,0.164-0.817,0.169L50.167,74.5c-0.002,0-0.004,0-0.005,0c-0.218,0-0.397-0.301-0.4-0.52
		c-0.003-0.222,0.173-0.467,0.394-0.469l0.513-0.041c0.265-0.005,0.518-0.034,0.76-0.057c0.223-0.018,0.415,0.135,0.435,0.355
		C51.884,73.989,51.722,74.178,51.502,74.197z M52.699,48.06c-0.016-0.221,0.15-0.447,0.37-0.463l1.294-0.107
		c0.219-0.011,0.41,0.146,0.423,0.367c0.014,0.221-0.154,0.476-0.375,0.489L53.127,48.5c-0.01,0-0.02,0-0.029,0
		C52.89,48.5,52.714,48.27,52.699,48.06z M54.792,73.082l-0.226,0.146c-0.314,0.199-0.652,0.368-1.002,0.504
		c-0.047,0.02-0.097,0.027-0.145,0.027c-0.16,0-0.311-0.096-0.373-0.254c-0.08-0.206,0.022-0.438,0.228-0.518
		c0.307-0.121,0.59-0.263,0.866-0.436l0.207-0.135c0.183-0.123,0.432-0.074,0.555,0.109C55.024,72.711,54.976,72.959,54.792,73.082z
		 M57.452,71.872c-0.353-0.06-0.704-0.011-1.051,0.14c-0.051,0.021-0.105,0.032-0.158,0.032c-0.155,0-0.302-0.091-0.368-0.241
		c-0.087-0.203,0.006-0.438,0.209-0.525c0.488-0.212,0.997-0.279,1.502-0.194c0.218,0.037,0.364,0.243,0.327,0.462
		C57.876,71.762,57.67,71.913,57.452,71.872z M57.666,48.333c-0.444,0.001-0.871,0.167-1.284,0.167c-0.003,0-0.006,0-0.009,0
		c-0.217,0-0.395-0.327-0.4-0.545c-0.005-0.221,0.088-0.481,0.309-0.486C56.7,47.46,56.5,47.397,57.5,47.396v-0.01
		c0,0,0.482,0.21,0.482,0.431C57.983,48.039,57.887,48.332,57.666,48.333z M59.376,74.286c-0.196,0-0.368-0.144-0.396-0.345
		c-0.012-0.082-0.021-0.163-0.026-0.242c-0.024-0.333-0.103-0.633-0.234-0.891c-0.101-0.197-0.022-0.438,0.175-0.539
		c0.197-0.101,0.438-0.021,0.538,0.176c0.18,0.354,0.288,0.756,0.319,1.197c0.004,0.062,0.012,0.125,0.021,0.188
		c0.031,0.219-0.122,0.422-0.34,0.452C59.413,74.285,59.395,74.286,59.376,74.286z M60.501,77.415
		c-0.053,0.023-0.108,0.034-0.162,0.034c-0.153,0-0.3-0.088-0.366-0.238c-0.172-0.389-0.333-0.812-0.479-1.257
		c-0.069-0.21,0.046-0.437,0.256-0.505c0.209-0.067,0.436,0.047,0.504,0.256c0.138,0.422,0.288,0.814,0.45,1.182
		C60.794,77.09,60.703,77.326,60.501,77.415z M59.646,48.333c-0.221-0.004-0.397-0.256-0.393-0.477
		c0.003-0.222,0.2-0.415,0.407-0.429l1.294,0.009c0.221,0.005,0.396,0.32,0.391,0.542c-0.005,0.218-0.183,0.522-0.399,0.522
		c-0.003,0-0.006,0-0.01,0L59.646,48.333z M62.407,80.113c-0.074,0.062-0.164,0.092-0.253,0.092c-0.116,0-0.23-0.051-0.31-0.146
		l-0.498-0.602c-0.116-0.139-0.228-0.283-0.336-0.431c-0.13-0.179-0.092-0.429,0.086-0.56c0.178-0.131,0.429-0.092,0.559,0.087
		c0.098,0.134,0.2,0.265,0.305,0.39l0.502,0.607C62.603,79.722,62.578,79.974,62.407,80.113z M62.532,47.866
		c0.007-0.221,0.193-0.399,0.414-0.39c0.434,0.015,0.866,0.031,1.296,0.051c0.221,0.011,0.391,0.285,0.379,0.506
		c-0.01,0.214-0.187,0.467-0.398,0.467c-0.007,0-0.014,0-0.02,0c-0.427,0-0.855-0.125-1.285-0.14
		C62.697,48.353,62.524,48.086,62.532,47.866z M64.496,82.686c-0.074,0.06-0.162,0.088-0.249,0.088c-0.118,0-0.234-0.051-0.313-0.15
		l-0.822-1.01c-0.14-0.171-0.114-0.423,0.058-0.562c0.171-0.14,0.423-0.113,0.562,0.057l0.826,1.017
		C64.697,82.297,64.669,82.549,64.496,82.686z M58.097,99.295c-0.014,0-0.027-0.001-0.041-0.002
		c-0.226-0.023-0.452-0.057-0.679-0.101c-0.112-0.021-0.209-0.089-0.268-0.187c-0.058-0.098-0.072-0.217-0.039-0.324
		c0.075-0.242,0.189-0.469,0.347-0.692c0.127-0.181,0.377-0.224,0.558-0.095c0.18,0.128,0.223,0.377,0.095,0.558
		c-0.008,0.011-0.016,0.022-0.024,0.034c0.03,0.004,0.06,0.008,0.089,0.01c0.22,0.022,0.38,0.219,0.358,0.438
		C58.473,99.141,58.299,99.295,58.097,99.295z M89.467,97.645l-0.148,0.004c-0.001,0-0.002,0-0.003,0
		c-0.2,0-0.391-0.018-0.581-0.053c-0.115-0.021-0.216-0.092-0.274-0.193s-0.069-0.225-0.03-0.335
		c0.111-0.31,0.285-0.541,0.533-0.707c0.183-0.122,0.432-0.074,0.555,0.11c0.08,0.118,0.088,0.264,0.033,0.386
		c0.17,0.042,0.298,0.192,0.304,0.376C89.861,97.453,89.688,97.637,89.467,97.645z M121.814,72.219
		c0.422-0.049,0.846-0.102,1.273-0.16c0.219-0.031,0.42,0.123,0.45,0.342s-0.123,0.42-0.342,0.451
		c-0.433,0.059-0.863,0.113-1.29,0.162c-0.016,0.002-0.031,0.002-0.047,0.002c-0.2,0-0.373-0.15-0.396-0.354
		C121.438,72.442,121.596,72.244,121.814,72.219z M98.752,61.889c0.139-0.171,0.391-0.199,0.562-0.062
		c0.301,0.241,0.609,0.498,0.931,0.774c0.167,0.144,0.223,0.427,0.079,0.595c-0.086,0.1-0.198,0.158-0.311,0.158
		c-0.074,0-0.15-0.026-0.218-0.084c-0.386-0.332-0.688-0.583-0.981-0.819C98.642,62.313,98.613,62.061,98.752,61.889z
		 M90.034,57.403c0.085-0.204,0.319-0.299,0.522-0.216l1.195,0.501c0.203,0.087,0.297,0.322,0.211,0.525
		c-0.065,0.152-0.213,0.243-0.368,0.243c-0.053,0-0.106-0.01-0.157-0.032l-1.187-0.499C90.047,57.841,89.949,57.607,90.034,57.403z
		 M86.99,56.184c0.078-0.207,0.31-0.311,0.517-0.231c0.401,0.154,0.804,0.312,1.208,0.475c0.205,0.083,0.305,0.315,0.223,0.521
		c-0.063,0.156-0.213,0.25-0.372,0.25c-0.05,0-0.1-0.009-0.148-0.029c-0.4-0.161-0.798-0.318-1.196-0.47
		C87.015,56.621,86.911,56.39,86.99,56.184z M82.59,63.053c0.02,0.275-0.188,0.514-0.463,0.534
		c-0.012,0.001-0.023,0.001-0.036,0.001c-0.26,0-0.479-0.201-0.498-0.465c-0.006-0.081-0.009-0.16-0.009-0.236
		c0-0.476,0.105-0.91,0.312-1.29c0.133-0.242,0.437-0.331,0.679-0.199c0.242,0.132,0.331,0.436,0.199,0.679
		c-0.126,0.231-0.19,0.504-0.19,0.811C82.584,62.941,82.586,62.996,82.59,63.053z M80.823,53.967
		c0.092-0.201,0.329-0.29,0.529-0.199c0.386,0.175,0.776,0.339,1.171,0.493c0.206,0.08,0.308,0.312,0.228,0.518
		c-0.062,0.158-0.213,0.254-0.373,0.254c-0.048,0-0.098-0.009-0.146-0.027c-0.408-0.159-0.812-0.329-1.21-0.51
		C80.82,54.405,80.732,54.168,80.823,53.967z M68.094,78.41c0.207,0.076,0.313,0.306,0.237,0.514
		c-0.146,0.398-0.263,0.8-0.343,1.191c-0.039,0.189-0.205,0.319-0.392,0.319c-0.026,0-0.054-0.003-0.081-0.009
		c-0.217-0.044-0.355-0.256-0.311-0.472c0.088-0.431,0.215-0.87,0.375-1.307C67.656,78.439,67.887,78.334,68.094,78.41z
		 M67.062,82.055c-0.017-0.221,0.148-0.412,0.369-0.429c0.225-0.009,0.412,0.148,0.429,0.369c0.03,0.405,0.101,0.81,0.208,1.204
		c0.059,0.213-0.066,0.433-0.279,0.491c-0.035,0.01-0.071,0.015-0.106,0.015c-0.175,0-0.337-0.117-0.386-0.295
		C67.176,82.967,67.097,82.512,67.062,82.055z M67.195,88.133c0.018,0.221-0.146,0.219-0.366,0.219c-0.011,0-0.022,0-0.032,0
		c-0.207,0-0.382,0.058-0.398-0.151c-0.023-0.289-0.063-0.477-0.12-0.778c-0.021-0.116-0.046-0.178-0.071-0.292
		c-0.049-0.216,0.087-0.402,0.303-0.451c0.214-0.05,0.43,0.101,0.478,0.315c0.028,0.124,0.054,0.256,0.077,0.381
		C67.127,87.706,67.17,87.816,67.195,88.133z M66.24,47.661c0.434,0.038,0.867,0.083,1.298,0.136
		c0.22,0.027,0.376,0.226,0.349,0.446c-0.024,0.203-0.197,0.351-0.396,0.351c-0.016,0-0.033-0.001-0.049-0.003
		c-0.422-0.052-0.846-0.096-1.271-0.133c-0.22-0.019-0.383-0.213-0.363-0.433C65.826,47.804,66.019,47.642,66.24,47.661z
		 M65.182,83.682c0.193-0.111,0.438-0.045,0.547,0.145c0.229,0.395,0.435,0.801,0.611,1.205c0.088,0.202-0.005,0.438-0.207,0.526
		c-0.053,0.022-0.106,0.033-0.16,0.033c-0.154,0-0.301-0.089-0.367-0.24c-0.164-0.376-0.355-0.755-0.568-1.122
		C64.926,84.037,64.991,83.792,65.182,83.682z M61.55,98.646c-0.447,0.259-0.875,0.434-1.31,0.535
		c-0.03,0.006-0.061,0.01-0.091,0.01c-0.182,0-0.346-0.125-0.389-0.309c-0.025-0.108-0.003-0.217,0.051-0.304
		c-0.011,0-0.021,0.003-0.033,0.003l-0.175-0.002c-0.221-0.006-0.395-0.19-0.389-0.411c0.006-0.222,0.188-0.412,0.41-0.39
		l0.154,0.003c0.267,0,0.531-0.022,0.786-0.068c0.086-0.015,0.168-0.033,0.249-0.053c0.198-0.052,0.394,0.062,0.464,0.249
		c0.162-0.029,0.331,0.04,0.418,0.189C61.806,98.291,61.741,98.535,61.55,98.646z M64.196,96.541
		c-0.321,0.292-0.651,0.58-0.989,0.867c-0.075,0.063-0.167,0.094-0.258,0.094c-0.029,0-0.058-0.012-0.086-0.018
		c-0.058,0.029-0.116,0.064-0.179,0.064c-0.115,0-0.229-0.049-0.308-0.145c-0.141-0.169-0.119-0.422,0.051-0.562
		c0.296-0.246,0.571-0.544,0.817-0.883c0.129-0.178,0.375-0.217,0.553-0.092c0.146-0.05,0.314-0.013,0.425,0.109
		C64.372,96.14,64.359,96.393,64.196,96.541z M64.578,94.857c-0.063,0-0.128-0.016-0.188-0.047
		c-0.195-0.105-0.268-0.348-0.165-0.542l0.125-0.233c0.19-0.357,0.342-0.641,0.496-0.921c0.107-0.192,0.351-0.265,0.544-0.157
		s0.264,0.35,0.157,0.544c-0.153,0.277-0.303,0.557-0.452,0.836l-0.164,0.309C64.859,94.78,64.721,94.857,64.578,94.857z
		 M66.555,94.175c-0.29,0.323-0.59,0.644-0.9,0.962c-0.078,0.08-0.183,0.12-0.286,0.12c-0.101,0-0.202-0.038-0.279-0.114
		c-0.158-0.154-0.161-0.406-0.007-0.564c0.302-0.311,0.595-0.623,0.877-0.938c0.147-0.164,0.4-0.178,0.565-0.031
		C66.688,93.758,66.702,94.01,66.555,94.175z M67.074,90.465c-0.096,0.458-0.242,0.903-0.435,1.322
		c-0.067,0.146-0.212,0.232-0.363,0.232c-0.056,0-0.112-0.012-0.167-0.035c-0.2-0.093-0.289-0.33-0.196-0.531
		c0.167-0.365,0.294-0.752,0.379-1.152c0.045-0.217,0.258-0.354,0.474-0.311C66.981,90.036,67.12,90.248,67.074,90.465z
		 M68.602,91.488c-0.217,0.372-0.467,0.749-0.744,1.121c-0.078,0.105-0.199,0.16-0.32,0.16c-0.084,0-0.168-0.025-0.239-0.08
		c-0.177-0.131-0.214-0.383-0.081-0.559c0.259-0.348,0.492-0.699,0.694-1.045c0.11-0.191,0.356-0.254,0.547-0.145
		C68.648,91.053,68.713,91.298,68.602,91.488z M69.76,88.253c-0.011,0.084-0.024,0.169-0.039,0.255
		c-0.064,0.363-0.154,0.725-0.266,1.078c-0.054,0.17-0.212,0.279-0.381,0.279c-0.041,0-0.081-0.006-0.121-0.02
		c-0.211-0.066-0.327-0.291-0.261-0.502c0.102-0.318,0.183-0.646,0.24-0.975l0.035-0.225c0.03-0.219,0.233-0.375,0.45-0.342
		C69.637,87.832,69.79,88.034,69.76,88.253z M69.543,86.079c0.084,0.204-0.015,0.438-0.219,0.521
		c-0.05,0.021-0.102,0.029-0.151,0.029c-0.157,0-0.308-0.094-0.37-0.249c-0.079-0.194-0.185-0.385-0.312-0.564l-0.066-0.094
		c-0.1-0.141-0.181-0.254-0.263-0.377c-0.122-0.185-0.071-0.433,0.112-0.555c0.184-0.123,0.432-0.072,0.555,0.111
		c0.076,0.117,0.152,0.223,0.223,0.322l0.091,0.127C69.307,85.584,69.441,85.828,69.543,86.079z M70.002,76.312
		c-0.295,0.291-0.562,0.606-0.797,0.937c-0.078,0.109-0.202,0.168-0.327,0.168c-0.08,0-0.161-0.024-0.231-0.074
		c-0.18-0.128-0.223-0.378-0.094-0.559c0.261-0.367,0.56-0.717,0.887-1.041c0.158-0.155,0.411-0.153,0.566,0.004
		C70.161,75.902,70.159,76.156,70.002,76.312z M70.716,49.175c-0.032,0-0.064-0.004-0.097-0.012c-0.4-0.1-0.813-0.19-1.24-0.273
		c-0.218-0.042-0.359-0.251-0.318-0.468c0.042-0.217,0.254-0.365,0.469-0.317c0.441,0.084,0.869,0.179,1.283,0.282
		c0.215,0.054,0.345,0.271,0.291,0.485C71.059,49.054,70.896,49.175,70.716,49.175z M73.09,75.26
		c-0.057,0.166-0.213,0.271-0.379,0.271c-0.043,0-0.086-0.006-0.129-0.021c-0.221-0.074-0.449-0.111-0.68-0.111
		c-0.159-0.008-0.275,0.012-0.402,0.035c-0.215,0.044-0.426-0.102-0.467-0.319c-0.04-0.217,0.104-0.426,0.32-0.466
		c0.174-0.033,0.354-0.073,0.55-0.051c0.317,0,0.632,0.053,0.935,0.154C73.048,74.822,73.16,75.05,73.09,75.26z M73.648,50.201
		c-0.375-0.17-0.764-0.329-1.167-0.475c-0.208-0.075-0.315-0.304-0.24-0.512s0.305-0.317,0.512-0.24
		c0.424,0.153,0.832,0.319,1.227,0.498c0.201,0.092,0.29,0.329,0.198,0.53c-0.066,0.147-0.212,0.234-0.364,0.234
		C73.758,50.237,73.702,50.226,73.648,50.201z M75.616,77.38c-0.078,0.111-0.202,0.171-0.327,0.171c-0.08,0-0.16-0.023-0.23-0.072
		c-0.376-0.266-0.729-0.564-1.046-0.891c-0.154-0.158-0.15-0.411,0.008-0.565c0.158-0.153,0.411-0.15,0.565,0.007
		c0.287,0.295,0.592,0.555,0.933,0.793C75.699,76.949,75.743,77.199,75.616,77.38z M75.361,51.11
		c-0.188-0.114-0.25-0.36-0.136-0.549c0.114-0.189,0.36-0.25,0.55-0.136c0.349,0.21,0.713,0.444,1.104,0.708
		c0.184,0.123,0.232,0.372,0.109,0.555c-0.078,0.114-0.204,0.176-0.333,0.176c-0.076,0-0.154-0.022-0.223-0.068
		C76.054,51.542,75.7,51.315,75.361,51.11z M78.649,78.674c-0.058,0.166-0.212,0.27-0.378,0.27c-0.044,0-0.088-0.006-0.131-0.021
		c-0.426-0.146-0.84-0.299-1.241-0.465c-0.204-0.084-0.301-0.318-0.217-0.522c0.085-0.203,0.319-0.299,0.522-0.216
		c0.387,0.16,0.786,0.306,1.196,0.447C78.61,78.238,78.721,78.465,78.649,78.674z M79.413,53.638c-0.066,0-0.133-0.016-0.194-0.051
		c-0.382-0.213-0.759-0.437-1.13-0.671c-0.187-0.118-0.242-0.365-0.124-0.552c0.118-0.187,0.365-0.241,0.552-0.125
		c0.358,0.227,0.722,0.443,1.092,0.649c0.192,0.107,0.262,0.351,0.154,0.544C79.689,53.564,79.553,53.638,79.413,53.638z
		 M81.763,79.773c-0.063,0.155-0.213,0.25-0.372,0.25c-0.049,0-0.1-0.01-0.148-0.029c-0.258-0.104-0.52-0.201-0.783-0.295
		l-0.419-0.145c-0.209-0.072-0.32-0.299-0.249-0.508c0.072-0.21,0.299-0.32,0.508-0.249l0.426,0.147
		c0.275,0.096,0.547,0.199,0.816,0.307C81.746,79.335,81.845,79.568,81.763,79.773z M82.013,66.398
		c-0.046-0.414-0.097-0.838-0.152-1.275c-0.035-0.273,0.159-0.524,0.433-0.56c0.272-0.032,0.524,0.159,0.56,0.433
		c0.056,0.443,0.107,0.873,0.154,1.293c0.03,0.273-0.167,0.521-0.442,0.552c-0.019,0.002-0.037,0.003-0.055,0.003
		C82.258,66.844,82.041,66.654,82.013,66.398z M82.318,69.656l-0.114-1.287c-0.024-0.275,0.179-0.519,0.454-0.543
		c0.275-0.021,0.518,0.18,0.542,0.453l0.114,1.289c0.024,0.275-0.179,0.518-0.454,0.542c-0.015,0.001-0.03,0.002-0.044,0.002
		C82.56,70.112,82.342,69.916,82.318,69.656z M82.505,71.654c-0.034-0.273,0.161-0.523,0.436-0.557
		c0.272-0.037,0.523,0.16,0.558,0.435c0.051,0.414,0.117,0.826,0.201,1.235c0.056,0.271-0.118,0.535-0.389,0.591
		c-0.034,0.007-0.068,0.011-0.102,0.011c-0.232,0-0.44-0.164-0.488-0.4C82.631,72.533,82.559,72.095,82.505,71.654z M84.67,81.33
		c-0.075,0.121-0.205,0.188-0.339,0.188c-0.072,0-0.146-0.02-0.212-0.061c-0.359-0.225-0.728-0.438-1.102-0.637
		c-0.195-0.104-0.27-0.346-0.166-0.541s0.346-0.27,0.541-0.165c0.392,0.208,0.775,0.429,1.15,0.664
		C84.73,80.896,84.787,81.143,84.67,81.33z M92.855,97.344c-0.457,0.076-0.887,0.141-1.295,0.194
		c-0.021,0.003-0.044,0.005-0.066,0.005c-0.246,0-0.461-0.279-0.494-0.531c-0.021-0.162,0.043-0.512,0.15-0.512
		c-0.006,0-0.013,0-0.02,0c-0.19,0-0.359-0.04-0.393-0.234c-0.038-0.218,0.107-0.377,0.325-0.414c0.4-0.07,0.75-0.183,1.04-0.384
		c0.182-0.126,0.431-0.069,0.557,0.112s0.081,0.438-0.1,0.562c-0.184,0.127-0.384,0.234-0.597,0.321
		c0.24-0.035,0.472-0.065,0.729-0.108c0.268-0.049,0.529,0.141,0.574,0.413C93.312,97.042,93.127,97.3,92.855,97.344z
		 M93.121,88.109c0.119,0.414,0.234,0.833,0.346,1.26c0.069,0.268-0.091,0.541-0.358,0.61c-0.042,0.011-0.085,0.017-0.126,0.017
		c-0.037,0-0.066-0.027-0.103-0.035c0.095,0.185,0.194,0.367,0.279,0.554l0.125,0.284c0.021,0.05,0.03,0.102,0.031,0.152
		c0.009-0.002,0.015-0.008,0.022-0.01c0.271-0.061,0.537,0.111,0.597,0.381c0.092,0.418,0.181,0.844,0.267,1.275
		c0.051,0.257-0.285,0.501-0.533,0.572c0.002,0.07-0.168,0.139-0.168,0.211v0.127c0,0.252,0.143,0.498,0.096,0.73
		c0.063-0.044,0.224-0.078,0.306-0.09c0.271-0.041,0.571,0.156,0.61,0.431c0.07,0.506,0.131,0.979,0.136,1.382
		c0.004,0.277-0.194,0.539-0.47,0.539c-0.003,0-0.005,0-0.008,0c-0.272,0-0.496-0.248-0.5-0.521
		c-0.004-0.361-0.039-0.776-0.104-1.24c-0.009-0.068-0.005-0.152,0.012-0.215c-0.06,0.036-0.124,0.061-0.196,0.061
		c-0.027,0-0.055-0.007-0.082-0.013c-0.217-0.046-0.355-0.26-0.311-0.476c0.04-0.189,0.062-0.393,0.066-0.605l0.002-0.109
		c0-0.158-0.008-0.312-0.022-0.463c-0.013-0.134,0.047-0.254,0.142-0.336c-0.07-0.354-0.143-0.703-0.218-1.045
		c-0.015-0.065-0.015-0.129-0.004-0.191c-0.013,0.002-0.025,0.008-0.038,0.008c-0.156,0-0.305-0.091-0.369-0.244l-0.116-0.264
		c-0.132-0.291-0.277-0.58-0.436-0.864c-0.107-0.194-0.038-0.437,0.155-0.544c0.091-0.051,0.193-0.06,0.287-0.037
		c-0.09-0.342-0.182-0.682-0.277-1.014c-0.076-0.266,0.076-0.543,0.342-0.619C92.767,87.691,93.044,87.844,93.121,88.109z
		 M91.19,84.779c0.229-0.154,0.54-0.095,0.694,0.133c0.23,0.338,0.429,0.74,0.624,1.266c0.096,0.26-0.036,0.547-0.295,0.643
		c-0.058,0.021-0.116,0.031-0.174,0.031c-0.203,0-0.394-0.124-0.47-0.325c-0.166-0.448-0.328-0.782-0.512-1.052
		C90.903,85.246,90.963,84.936,91.19,84.779z M91.341,87.588l0.224,0.285c0.134,0.176,0.1,0.426-0.076,0.561
		c-0.072,0.055-0.157,0.082-0.242,0.082c-0.12,0-0.239-0.055-0.317-0.158l-0.21-0.268c-0.202-0.25-0.396-0.505-0.59-0.762
		c-0.133-0.176-0.098-0.427,0.079-0.56c0.177-0.134,0.427-0.098,0.56,0.079C90.955,87.097,91.145,87.345,91.341,87.588z
		 M88.85,82.473c0.189-0.2,0.507-0.207,0.707-0.018c0.309,0.293,0.618,0.599,0.933,0.919c0.194,0.197,0.19,0.514-0.006,0.708
		c-0.098,0.095-0.224,0.143-0.351,0.143c-0.129,0-0.259-0.05-0.356-0.149c-0.308-0.312-0.608-0.61-0.909-0.896
		C88.667,82.988,88.659,82.672,88.85,82.473z M88.682,84.238c0.19,0.207,0.377,0.42,0.561,0.637c0.103,0.121,0.205,0.245,0.305,0.37
		c0.139,0.172,0.111,0.424-0.061,0.562c-0.074,0.061-0.162,0.089-0.25,0.089c-0.117,0-0.233-0.051-0.312-0.149
		c-0.096-0.119-0.192-0.237-0.292-0.354c-0.177-0.21-0.356-0.414-0.54-0.613c-0.148-0.162-0.138-0.416,0.025-0.564
		C88.279,84.065,88.531,84.076,88.682,84.238z M86.575,80.107c0.208-0.182,0.524-0.16,0.706,0.049
		c0.277,0.318,0.564,0.626,0.859,0.926c0.193,0.197,0.189,0.514-0.007,0.707c-0.098,0.096-0.224,0.144-0.351,0.144
		c-0.129,0-0.259-0.05-0.357-0.149c-0.308-0.315-0.608-0.637-0.899-0.971C86.346,80.604,86.367,80.289,86.575,80.107z
		 M87.233,82.803c0.164,0.147,0.178,0.4,0.03,0.564c-0.079,0.088-0.188,0.133-0.298,0.133c-0.095,0-0.19-0.033-0.267-0.102
		c-0.318-0.285-0.644-0.558-0.977-0.818c-0.174-0.137-0.204-0.388-0.068-0.562c0.137-0.173,0.388-0.204,0.562-0.068
		C86.562,82.222,86.902,82.506,87.233,82.803z M84.793,77.356c0.243-0.132,0.547-0.043,0.679,0.2
		c0.087,0.158,0.177,0.318,0.269,0.476c0.119,0.206,0.243,0.405,0.371,0.599c0.152,0.23,0.089,0.541-0.142,0.693
		c-0.085,0.056-0.181,0.082-0.274,0.082c-0.163,0-0.322-0.078-0.418-0.225c-0.139-0.209-0.272-0.425-0.401-0.646
		c-0.097-0.166-0.19-0.333-0.282-0.5C84.461,77.792,84.551,77.488,84.793,77.356z M84.197,74.633
		c0.131,0.395,0.277,0.787,0.439,1.178c0.105,0.254-0.016,0.547-0.271,0.652c-0.062,0.026-0.128,0.039-0.191,0.039
		c-0.196,0-0.382-0.117-0.462-0.309c-0.172-0.413-0.326-0.828-0.465-1.246c-0.086-0.262,0.056-0.545,0.318-0.632
		C83.829,74.23,84.111,74.371,84.197,74.633z M85.645,61.287c-0.087,0.177-0.265,0.279-0.449,0.279
		c-0.074,0-0.149,0.058-0.221,0.023c-0.33-0.163-0.666-0.089-0.792-0.089h-0.214c-0.028,0-0.091-0.083-0.119-0.087
		c-0.271-0.046-0.455-0.341-0.408-0.614c0.046-0.271,0.301-0.476,0.576-0.427l0.165-0.011c0.172,0,0.694-0.004,1.234,0.261
		C85.664,60.744,85.767,61.039,85.645,61.287z M85.492,56.057c-0.041,0-0.083-0.006-0.125-0.02c-0.358-0.118-0.719-0.23-1.081-0.335
		l-0.141-0.041c-0.212-0.062-0.333-0.285-0.271-0.497s0.287-0.333,0.496-0.271l0.136,0.04c0.374,0.108,0.743,0.224,1.111,0.345
		c0.21,0.069,0.323,0.295,0.255,0.505C85.817,55.951,85.66,56.057,85.492,56.057z M87.127,64.229
		c-0.07,0.035-0.146,0.052-0.221,0.052c-0.185,0-0.361-0.102-0.449-0.278c-0.191-0.389-0.377-0.786-0.557-1.19
		c-0.111-0.253,0.003-0.548,0.256-0.66c0.251-0.112,0.547,0.002,0.659,0.255c0.173,0.392,0.353,0.775,0.538,1.151
		C87.477,63.807,87.375,64.106,87.127,64.229z M88.792,67.058c-0.084,0.054-0.177,0.079-0.27,0.079c-0.165,0-0.326-0.081-0.421-0.23
		c-0.236-0.365-0.465-0.74-0.687-1.121c-0.139-0.238-0.058-0.545,0.181-0.684s0.545-0.059,0.684,0.181
		c0.215,0.368,0.436,0.729,0.663,1.085C89.092,66.599,89.024,66.908,88.792,67.058z M90.748,69.693
		c-0.092,0.072-0.201,0.107-0.311,0.107c-0.147,0-0.293-0.065-0.393-0.19l-0.381-0.488c-0.14-0.182-0.279-0.365-0.416-0.552
		c-0.164-0.222-0.116-0.535,0.106-0.698c0.223-0.165,0.535-0.117,0.699,0.106c0.132,0.179,0.267,0.356,0.402,0.533l0.374,0.479
		C91.001,69.207,90.965,69.521,90.748,69.693z M92.881,72.187c-0.095,0.086-0.214,0.128-0.333,0.128
		c-0.138,0-0.273-0.057-0.372-0.166c-0.287-0.32-0.573-0.648-0.859-0.984c-0.179-0.21-0.153-0.525,0.057-0.705
		c0.211-0.179,0.526-0.153,0.705,0.058c0.28,0.329,0.561,0.651,0.842,0.964C93.104,71.686,93.087,72.002,92.881,72.187z
		 M93.048,58.695c0.092-0.201,0.329-0.29,0.53-0.198c0.373,0.17,0.764,0.351,1.176,0.543c0.2,0.093,0.287,0.331,0.193,0.531
		c-0.067,0.146-0.212,0.231-0.362,0.231c-0.057,0-0.114-0.012-0.169-0.038c-0.41-0.191-0.799-0.371-1.17-0.54
		C93.045,59.133,92.957,58.896,93.048,58.695z M95.193,74.516c-0.098,0.104-0.23,0.156-0.362,0.156
		c-0.124,0-0.247-0.045-0.345-0.138c-0.312-0.297-0.623-0.603-0.934-0.919c-0.193-0.196-0.191-0.513,0.006-0.707
		c0.196-0.193,0.513-0.191,0.707,0.006c0.303,0.309,0.605,0.606,0.91,0.896C95.376,74,95.384,74.316,95.193,74.516z M97.707,76.627
		c-0.099,0.125-0.245,0.191-0.394,0.191c-0.108,0-0.217-0.035-0.308-0.105c-0.342-0.268-0.681-0.543-1.019-0.83
		c-0.211-0.179-0.236-0.494-0.058-0.705c0.178-0.211,0.494-0.236,0.705-0.058c0.327,0.278,0.656,0.546,0.986,0.804
		C97.839,76.095,97.877,76.408,97.707,76.627z M97.798,61.182c-0.077,0.116-0.204,0.178-0.333,0.178
		c-0.076,0-0.153-0.022-0.222-0.067c-0.364-0.244-0.72-0.463-1.073-0.661c-0.192-0.108-0.261-0.352-0.152-0.544
		c0.107-0.193,0.352-0.263,0.544-0.153c0.371,0.208,0.744,0.438,1.126,0.693C97.871,60.75,97.921,60.999,97.798,61.182z
		 M100.479,78.378c-0.091,0.167-0.263,0.261-0.439,0.261c-0.081,0-0.163-0.02-0.239-0.061c-0.383-0.209-0.763-0.436-1.143-0.68
		c-0.232-0.15-0.299-0.459-0.149-0.691s0.459-0.298,0.691-0.149c0.358,0.231,0.718,0.445,1.079,0.642
		C100.521,77.832,100.611,78.135,100.479,78.378z M101.244,64.02c0.149-0.164,0.402-0.176,0.565-0.026l0.952,0.873
		c0.163,0.15,0.174,0.402,0.025,0.565c-0.079,0.087-0.188,0.13-0.295,0.13c-0.097,0-0.193-0.035-0.271-0.105l-0.951-0.872
		C101.107,64.436,101.096,64.183,101.244,64.02z M103.548,79.529c-0.063,0.22-0.263,0.362-0.48,0.362
		c-0.046,0-0.092-0.007-0.139-0.02c-0.427-0.123-0.849-0.266-1.268-0.429c-0.257-0.1-0.385-0.391-0.284-0.647
		c0.1-0.257,0.39-0.385,0.647-0.284c0.39,0.152,0.784,0.285,1.182,0.399C103.471,78.987,103.624,79.265,103.548,79.529z
		 M104.068,67.119l-0.368-0.322c-0.165-0.146-0.181-0.399-0.034-0.564c0.146-0.166,0.398-0.182,0.564-0.035l0.363,0.319
		c0.193,0.169,0.396,0.344,0.606,0.522c0.169,0.143,0.189,0.395,0.046,0.563c-0.078,0.093-0.191,0.142-0.305,0.142
		c-0.092,0-0.184-0.031-0.259-0.096C104.47,67.468,104.265,67.291,104.068,67.119z M106.299,80.5c-0.011,0-0.021,0-0.033,0
		c-0.441,0-0.884-0.104-1.323-0.165c-0.273-0.038-0.464-0.308-0.426-0.581s0.29-0.475,0.564-0.434
		c0.414,0.057,0.833,0.094,1.249,0.119c0.276,0.02,0.485,0.287,0.467,0.562C106.78,80.267,106.561,80.5,106.299,80.5z
		 M107.305,69.68c-0.366-0.255-0.719-0.514-1.058-0.771c-0.176-0.134-0.21-0.385-0.075-0.561c0.133-0.175,0.384-0.209,0.561-0.075
		c0.33,0.251,0.673,0.503,1.029,0.751c0.182,0.127,0.227,0.376,0.1,0.558c-0.078,0.111-0.202,0.171-0.328,0.171
		C107.454,69.752,107.374,69.729,107.305,69.68z M109.58,80.5c-0.001,0-0.002,0-0.003,0l-0.475-0.008h-0.815
		c-0.276,0-0.5-0.224-0.5-0.5s0.224-0.5,0.5-0.5l1.296,0.004c0.276,0.002,0.499,0.229,0.497,0.506
		C110.078,80.277,109.854,80.5,109.58,80.5z M110.699,71.219c-0.07,0.139-0.211,0.22-0.357,0.22c-0.061,0-0.121-0.014-0.18-0.042
		c-0.395-0.199-0.781-0.41-1.156-0.629c-0.19-0.111-0.256-0.355-0.145-0.547c0.111-0.19,0.355-0.255,0.547-0.145
		c0.361,0.211,0.732,0.414,1.113,0.605C110.72,70.781,110.799,71.021,110.699,71.219z M112.94,80.256
		c-0.425,0.078-0.86,0.135-1.331,0.174c-0.014,0.001-0.028,0.002-0.042,0.002c-0.257,0-0.476-0.198-0.497-0.459
		c-0.023-0.275,0.182-0.518,0.457-0.54c0.439-0.036,0.847-0.089,1.232-0.16c0.274-0.05,0.532,0.13,0.582,0.401
		S113.212,80.206,112.94,80.256z M113.772,72.354c-0.051,0.175-0.21,0.288-0.384,0.288c-0.037,0-0.074-0.006-0.112-0.017
		c-0.42-0.122-0.838-0.262-1.254-0.417c-0.207-0.077-0.312-0.308-0.234-0.515s0.309-0.312,0.515-0.234
		c0.397,0.148,0.797,0.28,1.198,0.398C113.713,71.92,113.835,72.143,113.772,72.354z M116.182,79.463
		c-0.417,0.126-0.84,0.243-1.266,0.353c-0.042,0.011-0.084,0.016-0.125,0.016c-0.223,0-0.426-0.149-0.483-0.376
		c-0.069-0.268,0.093-0.54,0.36-0.608c0.413-0.105,0.822-0.22,1.226-0.341c0.263-0.078,0.543,0.07,0.623,0.334
		C116.596,79.104,116.445,79.384,116.182,79.463z M116.607,73.244c-0.012,0-0.022,0-0.033-0.002
		c-0.439-0.035-0.878-0.091-1.314-0.164c-0.218-0.035-0.365-0.242-0.329-0.459c0.036-0.219,0.241-0.37,0.46-0.33
		c0.415,0.069,0.832,0.121,1.25,0.156c0.22,0.019,0.383,0.212,0.365,0.432C116.988,73.086,116.813,73.244,116.607,73.244z
		 M119.319,78.326c-0.4,0.172-0.808,0.336-1.222,0.491c-0.058,0.021-0.117,0.032-0.176,0.032c-0.201,0-0.393-0.124-0.468-0.324
		c-0.097-0.26,0.034-0.547,0.293-0.645c0.398-0.149,0.791-0.307,1.179-0.473c0.252-0.111,0.547,0.008,0.656,0.262
		C119.69,77.924,119.573,78.218,119.319,78.326z M119.913,73.207c-0.326,0.025-0.651,0.152-0.976,0.172l-0.328,0.121
		c-0.006,0-0.012,0-0.018,0c-0.213,0-0.391-0.273-0.398-0.488c-0.01-0.221,0.162-0.46,0.383-0.469l0.314-0.043
		c0.32-0.018,0.64-0.053,0.961-0.078c0.225-0.008,0.412,0.142,0.43,0.361C120.298,73.004,120.133,73.19,119.913,73.207z
		 M122.31,76.818c-0.362,0.219-0.747,0.434-1.157,0.646c-0.074,0.038-0.152,0.056-0.23,0.056c-0.181,0-0.355-0.098-0.444-0.27
		c-0.127-0.245-0.03-0.547,0.214-0.674c0.391-0.203,0.758-0.406,1.102-0.613c0.237-0.143,0.545-0.066,0.687,0.17
		C122.622,76.369,122.546,76.676,122.31,76.818z M125.008,74.706c-0.181,0.208-0.383,0.409-0.607,0.604
		c-0.131,0.115-0.265,0.227-0.402,0.338c-0.092,0.073-0.202,0.109-0.312,0.109c-0.146,0-0.291-0.064-0.391-0.188
		c-0.172-0.215-0.138-0.529,0.078-0.703c0.126-0.102,0.25-0.205,0.369-0.309c0.189-0.166,0.359-0.334,0.511-0.509
		c0.182-0.209,0.497-0.23,0.706-0.05C125.167,74.182,125.189,74.498,125.008,74.706z M126.175,72.141
		c-0.06,0.207-0.13,0.422-0.21,0.645c-0.059,0.162-0.213,0.264-0.376,0.264c-0.046,0-0.091-0.008-0.136-0.023
		c-0.199-0.072-0.307-0.285-0.25-0.484c-0.212,0.029-0.412-0.117-0.448-0.33c-0.037-0.218,0.109-0.424,0.327-0.461l0.637-0.112
		c0.134-0.026,0.274,0.022,0.367,0.124C126.179,71.865,126.213,72.008,126.175,72.141z"/>
</g>
</svg>
