<?xml version="1.0" encoding="utf-8"?>
<!-- Generator: Adobe Illustrator 16.0.4, SVG Export Plug-In . SVG Version: 6.00 Build 0)  -->
<!DOCTYPE svg PUBLIC "-//W3C//DTD SVG 1.1//EN" "http://www.w3.org/Graphics/SVG/1.1/DTD/svg11.dtd">
<svg version="1.1" id="Layer_4302" xmlns="http://www.w3.org/2000/svg" xmlns:xlink="http://www.w3.org/1999/xlink" x="0px" y="0px"
	 width="128px" height="128px" viewBox="0 0 128 128" enable-background="new 0 0 128 128" xml:space="preserve">
<g>
	<path d="M127.441,69.891c-0.559-0.023-1.105,0.064-1.649,0.164c-2.213,0.402-4.441,0.689-6.687,0.822
		c-2.506,0.148-4.892-0.369-7.147-1.428c-2.226-1.044-4.16-2.532-6.004-4.139c-1.474-1.285-2.874-2.649-4.357-3.923
		c-1.514-1.301-3.097-2.487-4.912-3.352c-1.53-0.727-3.067-1.435-4.631-2.087c-2.233-0.931-4.466-1.878-6.79-2.552
		c-2.354-0.682-4.512-1.722-6.508-3.126c-1.019-0.717-2.063-1.393-3.179-1.954c-1.917-0.966-3.957-1.539-6.064-1.895
		c-2.532-0.427-5.093-0.523-7.651-0.589c-2.629-0.066-5.262-0.11-7.889,0.083c-1.381,0.101-2.762,0.198-4.137,0.344
		c-2.063,0.219-4.125,0.459-6.172,0.794c-1.447,0.237-2.913,0.414-4.297,0.938c-0.615,0.233-1.236,0.284-1.883,0.247
		c-1.285-0.075-2.532-0.342-3.771-0.67c-2.076-0.549-4.095-1.256-6.012-2.234c-0.781-0.398-1.466-0.912-1.957-1.659
		c-0.352-0.534-0.724-1.055-1.089-1.581c-1.201-1.73-1.731-3.619-1.456-5.736c0.181-1.388,0.307-2.787,0.244-4.193
		c-0.046-1.042-0.193-2.07-0.689-3.008c-0.537-1.013-1.418-1.12-2.148-0.241c-1.093,1.316-2.02,2.762-3.184,4.024
		c-0.655,0.712-1.259,1.472-1.999,2.103c-0.784,0.668-1.527,0.765-2.442,0.296c-0.419-0.215-0.778-0.517-1.127-0.827
		c-1.55-1.376-2.834-2.977-3.994-4.688c-0.591-0.871-1.134-1.78-1.889-2.532c-0.735-0.732-0.993-0.685-1.359,0.272
		c-0.443,1.16-0.597,2.379-0.691,3.604c-0.107,1.397-0.152,2.795,0.036,4.195c0.108,0.8,0.279,1.613,0.011,2.418
		c-0.219,0.657-0.367,1.333-0.499,2.011c-0.408,2.092-0.641,4.203-0.628,6.339c0.005,0.888-0.107,1.763-0.602,2.54
		c-0.232,0.365-0.476,0.723-0.696,1.094c-0.441,0.742-0.894,1.479-1.113,2.33c-0.358,1.39,0.095,2.456,1.34,3.139
		c0.633,0.348,1.321,0.498,2.021,0.622c1.442,0.254,2.857,0.227,4.215-0.405c0.252-0.117,0.516-0.204,0.789-0.248
		c0.39-0.063,0.548,0.055,0.607,0.443c0.047,0.31,0.035,0.623,0.004,0.932C9.351,57.116,9.483,57.6,9.75,58.067
		c0.247,0.437,0.581,0.817,0.786,1.279c0.228,0.511,0.593,0.894,1.114,1.104c0.219,0.088,0.379,0.224,0.528,0.399
		c0.286,0.336,0.452,0.734,0.627,1.13c0.478,1.081,0.724,2.235,1.033,3.367c0.812,2.959,1.852,5.824,3.234,8.566
		c0.564,1.119,0.943,2.312,0.82,3.598c-0.097,1.008-0.472,1.943-0.817,2.884c-1.375,3.744-2.96,7.414-3.946,11.295
		c-0.299,1.173-0.589,1.328-1.792,1.087c-1.773-0.354-3.557,0.786-4.199,2.042c-0.495,0.968-0.262,1.771,0.658,2.354
		c0.419,0.266,0.888,0.373,1.367,0.455c1.222,0.211,2.442,0.127,3.673,0.064c1.073-0.057,1.921-0.48,2.674-1.197
		c1.645-1.568,2.899-3.424,4.025-5.381c0.57-0.99,1.007-2.047,1.53-3.061c1.428-2.766,3.131-5.377,4.565-8.141
		c0.436-0.842,0.907-1.668,1.056-2.631c0.057-0.367,0.311-0.637,0.62-0.861c1.302-0.945,4.334-0.545,4.893,1.764
		c0.525,2.166,1.086,4.322,1.478,6.518c0.316,1.77,0.655,3.537,0.665,5.346c0.003,0.66,0.108,1.307,0.259,1.948
		c0.205,0.874,0.406,1.751,0.524,2.644c0.126,0.965-0.096,1.273-1.04,1.475c-0.933,0.198-1.851,0.448-2.697,0.899
		c-0.817,0.437-1.421,1.058-1.516,2.028c-0.039,0.396-0.106,0.787-0.157,1.181c-0.069,0.528,0.05,0.715,0.572,0.866
		c0.42,0.121,0.856,0.139,1.285,0.162c1.98,0.112,3.911-0.09,5.677-1.083c1.352-0.761,2.203-1.86,2.229-3.489
		c0.023-1.367,0.147-2.73,0.304-4.086c0.347-3.01,0.479-6.035,0.703-9.055c0.14-1.88,0.306-3.758,0.604-5.62
		c0.184-1.15,0.697-1.649,1.85-1.856c0.75-0.134,1.508-0.203,2.271-0.204c1.938-0.005,3.878,0.021,5.816-0.018
		c1.663-0.032,3.269-0.353,4.704-1.256c0.497-0.313,0.962-0.677,1.45-1.006c0.331-0.224,0.461-0.167,0.49,0.235
		c0.031,0.436,0.121,0.855,0.225,1.275c0.489,1.965,1.216,3.816,2.534,5.395c0.82,0.982,1.618,1.983,2.431,2.972
		c1.06,1.29,1.846,2.716,2.157,4.37c0.263,1.4,0.136,2.722-0.823,3.867c-0.165,0.197-0.308,0.42-0.434,0.646
		c-0.393,0.711-0.762,1.436-1.16,2.143c-0.454,0.806-1.027,1.483-2.006,1.659c-0.575,0.104-1.135,0.008-1.694-0.127
		c-0.846-0.203-1.578-0.004-2.162,0.658c-0.562,0.638-0.924,1.371-1.03,2.223c-0.119,0.953,0.206,1.516,1.135,1.75
		c1.234,0.312,2.499,0.378,3.757,0.16c1.26-0.217,2.34-0.854,3.313-1.644c1.898-1.538,3.654-3.237,5.188-5.14
		c1.236-1.534,2.158-3.26,2.508-5.232c0.274-1.556,0.094-3.032-0.849-4.359c-0.188-0.267-0.387-0.529-0.529-0.83
		c-0.682-1.443-0.582-2.89-0.007-4.328c0.278-0.695,0.696-1.312,1.235-1.84c0.603-0.588,0.942-0.574,1.498,0.038
		c0.8,0.883,1.743,1.57,2.812,2.095c1.434,0.703,2.974,1.119,4.472,1.646c2.98,1.049,5.447,2.812,7.48,5.217
		c0.727,0.859,1.357,1.791,2.062,2.667c0.601,0.745,1.108,1.546,1.504,2.415c0.28,0.618,0.496,1.255,0.48,1.946
		c-0.014,0.621-0.215,0.841-0.828,0.89c-0.534,0.043-1.065,0.086-1.585,0.242c-1.179,0.354-1.931,1.122-2.229,2.307
		c-0.301,1.191,0.189,1.941,1.387,2.225c0.459,0.109,0.924,0.15,1.391,0.123c1.537-0.096,3.061-0.326,4.572-0.601
		c1.327-0.241,1.992-1.165,2.008-2.509c0.009-0.888-0.116-1.762-0.272-2.629c-0.435-2.416-0.992-4.804-1.742-7.145
		c-0.335-1.043-0.734-2.051-1.493-2.875c-0.715-0.776-1.45-1.531-2.219-2.255c-1.273-1.2-2.516-2.419-3.407-3.954
		c-1.165-2.004-1.906-4.136-2.104-6.45c-0.083-0.965-0.175-1.929-0.256-2.894c-0.135-1.604-0.328-3.198-0.557-4.79
		c-0.022-0.16-0.102-0.436,0.033-0.465c0.167-0.036,0.195,0.242,0.259,0.39c1.075,2.488,2.407,4.827,4.064,6.975
		c2.366,3.064,4.979,5.889,8.087,8.225c2.258,1.697,4.734,2.91,7.531,3.421c1.574,0.288,3.164,0.317,4.979,0.305
		c1.284,0.024,2.788,0.005,4.275-0.284c2.452-0.479,4.823-1.207,7.102-2.238c1.773-0.801,3.462-1.738,4.936-3.025
		c0.833-0.727,1.488-1.58,1.896-2.62c0.396-1.005,0.723-2.021,0.687-3.115C128.259,70.114,128.037,69.914,127.441,69.891z
		 M7.356,32.558c0.174-0.136,0.426-0.106,0.562,0.068c0.289,0.368,0.579,0.719,0.871,1.054c0.145,0.167,0.128,0.419-0.039,0.564
		c-0.076,0.066-0.169,0.098-0.263,0.098c-0.111,0-0.223-0.046-0.302-0.137c-0.301-0.345-0.599-0.707-0.896-1.086
		C7.152,32.945,7.183,32.694,7.356,32.558z M5.038,40.098l0.097-0.478c0.045-0.216,0.259-0.354,0.474-0.309
		c0.216,0.046,0.354,0.258,0.309,0.474l-0.094,0.466c-0.051,0.261-0.098,0.52-0.143,0.776c-0.033,0.195-0.202,0.332-0.394,0.332
		c-0.022,0-0.045-0.002-0.068-0.006c-0.218-0.038-0.364-0.244-0.326-0.462C4.938,40.629,4.986,40.365,5.038,40.098z M5.427,33.294
		c0-0.221,0.179-0.4,0.4-0.4c0.221,0,0.399,0.179,0.399,0.4c0,0.408,0.015,0.825,0.052,1.243c0.02,0.22-0.143,0.414-0.363,0.434
		c-0.012,0.001-0.024,0.001-0.036,0.001c-0.205,0-0.38-0.157-0.398-0.365C5.442,34.167,5.427,33.726,5.427,33.294z M4.612,42.808
		c0.024-0.22,0.222-0.358,0.441-0.325c0.22,0.023,0.378,0.236,0.354,0.456c-0.046,0.422-0.083,0.733-0.111,1.148
		c-0.014,0.211-0.189,0.266-0.398,0.266c-0.009,0-0.018,0-0.026,0c-0.221,0-0.388-0.09-0.373-0.311
		C4.527,43.615,4.564,43.242,4.612,42.808z M4.44,46.196c0-0.221,0.179-0.423,0.4-0.423s0.4,0.155,0.4,0.375
		c0,0.516-0.028,0.937-0.084,1.333c-0.028,0.199-0.2,0.343-0.396,0.343c-0.019,0-0.038-0.001-0.058-0.004
		c-0.218-0.031-0.37-0.234-0.339-0.453C4.416,47.004,4.44,46.631,4.44,46.196z M2.908,52.256c-0.065,0.148-0.118,0.293-0.155,0.438
		c-0.032,0.122-0.048,0.212-0.048,0.269c0.164,0.148,0.183,0.42,0.034,0.583c-0.083,0.091-0.197,0.141-0.31,0.141
		c-0.088,0-0.176-0.031-0.249-0.096c-0.186-0.168-0.275-0.374-0.275-0.628c0-0.129,0.022-0.273,0.072-0.468
		c0.048-0.185,0.115-0.371,0.197-0.56c0.089-0.203,0.324-0.295,0.527-0.206C2.904,51.818,2.997,52.054,2.908,52.256z M3.511,50.785
		c-0.074,0-0.149-0.021-0.216-0.063c-0.186-0.119-0.24-0.367-0.12-0.553l0.415-0.642c0.086-0.135,0.165-0.273,0.235-0.412
		c0.101-0.197,0.343-0.275,0.538-0.175c0.197,0.101,0.275,0.341,0.175,0.538c-0.082,0.16-0.173,0.321-0.274,0.48l-0.416,0.644
		C3.771,50.72,3.643,50.785,3.511,50.785z M5.582,54.403l-0.195,0.003c-0.363,0-0.741-0.032-1.155-0.098
		c-0.218-0.035-0.367-0.24-0.332-0.458s0.242-0.369,0.458-0.332c0.373,0.06,0.709,0.088,1.029,0.088l0.169-0.003
		c0.226,0.008,0.406,0.166,0.413,0.387C5.976,54.211,5.803,54.396,5.582,54.403z M6.417,37.875C6.38,38.066,6.213,38.2,6.024,38.2
		c-0.025,0-0.05-0.002-0.075-0.007c-0.217-0.041-0.359-0.25-0.318-0.467c0.054-0.286,0.08-0.579,0.08-0.895
		c0-0.097-0.002-0.191-0.007-0.285c-0.011-0.221,0.159-0.408,0.38-0.419c0.214-0.026,0.408,0.159,0.419,0.38
		c0.005,0.106,0.008,0.215,0.008,0.324C6.511,37.198,6.48,37.539,6.417,37.875z M6.329,31.157c-0.003,0.044-0.007,0.088-0.011,0.132
		c-0.017,0.209-0.192,0.368-0.398,0.368c-0.011,0-0.021,0-0.032-0.001c-0.221-0.018-0.385-0.21-0.367-0.431
		c0.018-0.218,0.037-0.438,0.06-0.658c0.018-0.167,0.138-0.306,0.302-0.346c0.165-0.041,0.335,0.026,0.428,0.166l0.324,0.482
		L6.329,31.157z M8.733,53.598c-0.063,0.006-0.129,0.015-0.197,0.025c-0.312,0.051-0.625,0.138-0.932,0.258
		c-0.048,0.019-0.098,0.028-0.146,0.028c-0.159,0-0.311-0.095-0.372-0.253c-0.081-0.206,0.02-0.438,0.226-0.519
		c0.36-0.142,0.729-0.244,1.096-0.304c0.086-0.014,0.169-0.024,0.25-0.032c0.22-0.031,0.415,0.14,0.436,0.36
		C9.114,53.382,8.953,53.577,8.733,53.598z M9.668,96.082c-0.02,0-0.04-0.001-0.06-0.004l-0.173-0.027
		c-0.117-0.02-0.345-0.061-0.522-0.115c-0.125-0.039-0.223-0.137-0.262-0.262c-0.04-0.124-0.016-0.26,0.063-0.363
		c0.144-0.188,0.338-0.37,0.56-0.525c0.18-0.127,0.43-0.084,0.557,0.098c0.095,0.135,0.094,0.309,0.012,0.441
		c0.152,0.074,0.246,0.241,0.219,0.418C10.033,95.94,9.863,96.082,9.668,96.082z M37.241,49.826l0.149,0.009
		c0.372,0.022,0.733,0.019,1.078-0.013c0.225-0.014,0.415,0.143,0.435,0.362c0.02,0.22-0.143,0.415-0.362,0.435
		c-0.223,0.02-0.451,0.03-0.686,0.03c-0.169,0-0.339-0.005-0.511-0.015l-0.157-0.01c-0.221-0.015-0.387-0.205-0.373-0.426
		C36.83,49.977,37.02,49.8,37.241,49.826z M36.66,88.397c0.04,0.445,0.067,0.817,0.077,1.272c0.005,0.221-0.17,0.33-0.391,0.33
		c-0.003,0-0.006,0-0.009,0c-0.217,0-0.395-0.102-0.399-0.319c-0.01-0.437-0.036-0.833-0.075-1.261
		c-0.02-0.22,0.143-0.396,0.363-0.416C36.448,87.992,36.64,88.178,36.66,88.397z M36.172,85.02c0.078,0.434,0.154,0.872,0.225,1.314
		c0.035,0.219-0.114,0.424-0.332,0.458c-0.021,0.003-0.042,0.005-0.063,0.005c-0.193,0-0.363-0.141-0.395-0.337
		c-0.069-0.438-0.146-0.87-0.222-1.3c-0.039-0.218,0.106-0.426,0.323-0.464C35.925,84.652,36.133,84.802,36.172,85.02z
		 M33.592,49.604c0.052-0.215,0.267-0.349,0.482-0.295c0.387,0.093,0.803,0.185,1.242,0.266c0.217,0.041,0.361,0.249,0.32,0.466
		c-0.035,0.192-0.204,0.327-0.393,0.327c-0.024,0-0.049-0.002-0.073-0.006c-0.454-0.084-0.885-0.179-1.284-0.275
		C33.672,50.035,33.54,49.819,33.592,49.604z M20.631,31.492l0.392-0.522c0.096-0.127,0.257-0.188,0.413-0.147
		c0.155,0.038,0.273,0.164,0.3,0.321c0.036,0.208,0.063,0.433,0.083,0.68c0.018,0.22-0.147,0.413-0.367,0.431
		c-0.011,0-0.021,0.001-0.032,0.001c-0.127,0-0.241-0.06-0.315-0.154c-0.125,0.052-0.274,0.039-0.392-0.049
		C20.535,31.919,20.499,31.669,20.631,31.492z M21.833,33.865c-0.023,0.454-0.061,0.895-0.104,1.309
		c-0.021,0.206-0.195,0.358-0.397,0.358c-0.014,0-0.028,0-0.042-0.002c-0.22-0.023-0.379-0.22-0.356-0.439
		c0.042-0.401,0.079-0.828,0.101-1.267c0.011-0.221,0.198-0.395,0.42-0.379C21.675,33.457,21.845,33.645,21.833,33.865z
		 M20.311,77.34c-0.006,0.133-0.016,0.266-0.028,0.398c-0.031,0.321-0.081,0.633-0.145,0.934c-0.04,0.188-0.206,0.317-0.391,0.317
		c-0.027,0-0.055-0.003-0.083-0.008c-0.216-0.046-0.354-0.259-0.309-0.475c0.058-0.272,0.103-0.555,0.131-0.845
		c0.011-0.119,0.02-0.238,0.024-0.357c0.01-0.221,0.195-0.387,0.418-0.383C20.149,76.932,20.32,77.119,20.311,77.34z M19.816,75.759
		c-0.03,0.007-0.06,0.01-0.088,0.01c-0.184,0-0.349-0.126-0.391-0.312c-0.085-0.38-0.204-0.774-0.353-1.171
		c-0.078-0.206,0.027-0.437,0.234-0.515c0.206-0.077,0.437,0.026,0.515,0.233c0.162,0.431,0.292,0.86,0.386,1.277
		C20.167,75.496,20.032,75.711,19.816,75.759z M18.429,34.211l0.169-0.187c0.256-0.278,0.5-0.562,0.733-0.846
		c0.14-0.17,0.393-0.195,0.562-0.055c0.171,0.14,0.196,0.392,0.056,0.563c-0.243,0.296-0.496,0.59-0.762,0.879l-0.163,0.18
		c-0.079,0.088-0.188,0.133-0.298,0.133c-0.095,0-0.19-0.034-0.267-0.102C18.295,34.629,18.281,34.376,18.429,34.211z M15.999,36.61
		c0.156-0.104,0.31-0.22,0.461-0.349c0.19-0.162,0.369-0.328,0.54-0.496c0.158-0.155,0.411-0.153,0.566,0.005
		c0.155,0.157,0.153,0.411-0.004,0.565c-0.184,0.181-0.377,0.359-0.582,0.534c-0.176,0.151-0.356,0.287-0.539,0.408
		c-0.068,0.045-0.145,0.066-0.22,0.066c-0.13,0-0.257-0.063-0.334-0.179C15.765,36.98,15.815,36.732,15.999,36.61z M9.686,35.778
		c-0.16-0.153-0.166-0.406-0.014-0.565c0.152-0.16,0.406-0.165,0.565-0.014c0.183,0.174,0.367,0.344,0.554,0.51
		c0.142,0.126,0.294,0.259,0.459,0.392c0.172,0.139,0.198,0.391,0.06,0.562c-0.079,0.098-0.195,0.148-0.312,0.148
		c-0.088,0-0.177-0.029-0.251-0.089c-0.175-0.141-0.337-0.282-0.488-0.417C10.065,36.134,9.875,35.958,9.686,35.778z M10.863,54.92
		c-0.125-0.356-0.321-0.649-0.586-0.871c-0.169-0.142-0.192-0.394-0.05-0.563c0.142-0.169,0.394-0.192,0.563-0.05
		c0.377,0.316,0.655,0.727,0.828,1.221c0.073,0.208-0.038,0.437-0.246,0.509c-0.044,0.016-0.088,0.022-0.132,0.022
		C11.076,55.188,10.921,55.085,10.863,54.92z M12.202,58.182c-0.065,0.042-0.139,0.061-0.212,0.061
		c-0.133,0-0.263-0.066-0.339-0.188c-0.089-0.142-0.174-0.266-0.252-0.379c-0.108-0.159-0.188-0.275-0.258-0.398
		c-0.103-0.181-0.149-0.325-0.149-0.467l0.402-0.034L11,56.7c0.019-0.22,0.211-0.379,0.433-0.364
		c0.22,0.019,0.383,0.213,0.364,0.433c-0.007,0.016,0.001,0.045,0.04,0.114c0.059,0.104,0.126,0.202,0.193,0.299
		c0.112,0.164,0.204,0.298,0.299,0.449C12.446,57.818,12.39,58.065,12.202,58.182z M12.735,37.825
		c-0.211-0.066-0.329-0.29-0.263-0.501c0.065-0.211,0.288-0.329,0.501-0.263c0.358,0.112,0.719,0.169,1.069,0.169l0.162-0.004
		c0.228-0.011,0.408,0.16,0.418,0.38c0.011,0.221-0.159,0.408-0.38,0.419l-0.201,0.005C13.61,38.03,13.171,37.96,12.735,37.825z
		 M14.345,60.511c-0.064,0.039-0.135,0.057-0.205,0.057c-0.137,0-0.27-0.069-0.344-0.195c-0.112-0.187-0.241-0.375-0.398-0.558
		c-0.105-0.124-0.214-0.236-0.328-0.336c-0.166-0.146-0.181-0.399-0.034-0.565c0.146-0.165,0.399-0.18,0.565-0.034
		c0.141,0.125,0.276,0.263,0.406,0.416c0.174,0.204,0.329,0.422,0.476,0.667C14.597,60.152,14.535,60.397,14.345,60.511z
		 M15.332,63.579c-0.175,0-0.336-0.116-0.385-0.292c-0.11-0.394-0.231-0.792-0.375-1.192c-0.075-0.208,0.034-0.437,0.242-0.512
		c0.207-0.076,0.437,0.033,0.512,0.241c0.15,0.419,0.277,0.836,0.392,1.248c0.059,0.212-0.065,0.433-0.278,0.493
		C15.403,63.574,15.367,63.579,15.332,63.579z M16.199,66.707c-0.171,0-0.329-0.111-0.382-0.283
		c-0.124-0.406-0.245-0.817-0.362-1.236c-0.06-0.213,0.065-0.434,0.278-0.493c0.212-0.061,0.433,0.065,0.493,0.277
		c0.115,0.413,0.234,0.819,0.356,1.219c0.064,0.211-0.054,0.435-0.266,0.499C16.277,66.701,16.238,66.707,16.199,66.707z
		 M17.397,69.75c-0.047,0.019-0.095,0.027-0.143,0.027c-0.161,0-0.312-0.098-0.374-0.257c-0.153-0.397-0.301-0.802-0.445-1.211
		c-0.073-0.208,0.037-0.437,0.245-0.511c0.208-0.072,0.437,0.037,0.51,0.245c0.141,0.403,0.287,0.799,0.437,1.189
		C17.706,69.439,17.604,69.671,17.397,69.75z M17.637,71.357c-0.089-0.202,0.003-0.438,0.205-0.527
		c0.201-0.089,0.438,0.002,0.527,0.205c0.171,0.389,0.348,0.771,0.529,1.149c0.096,0.199,0.012,0.438-0.188,0.534
		c-0.056,0.026-0.115,0.039-0.173,0.039c-0.149,0-0.292-0.084-0.361-0.227C17.991,72.146,17.812,71.754,17.637,71.357z
		 M10.989,94.756c0.033-0.219,0.236-0.369,0.455-0.337c0.461,0.069,0.821,0.069,1.147,0.015c0.217-0.037,0.425,0.109,0.461,0.328
		c0.036,0.218-0.111,0.424-0.329,0.461c-0.195,0.032-0.405,0.05-0.631,0.05c-0.233,0-0.48-0.02-0.767-0.062
		C11.107,95.178,10.957,94.974,10.989,94.756z M13.155,96.046c-0.128,0.027-0.261,0.222-0.403,0.229L11.768,96.5
		c-0.006,0-0.012,0-0.018,0c-0.213,0-0.39-0.347-0.399-0.562c-0.009-0.221,0.162-0.497,0.383-0.505l0.979-0.094
		c0.098-0.005,0.189-0.039,0.277-0.057c0.215-0.049,0.429,0.081,0.475,0.297S13.371,96,13.155,96.046z M15.877,93.725
		c-0.293,0.367-0.588,0.707-0.889,1.026c-0.079,0.083-0.185,0.126-0.291,0.126c-0.098,0-0.197-0.037-0.274-0.109
		c-0.149-0.141-0.161-0.365-0.042-0.525c-0.022,0.004-0.044,0.015-0.067,0.015c-0.087,0-0.175-0.028-0.249-0.087
		c-0.173-0.137-0.202-0.389-0.064-0.562c0.215-0.271,0.393-0.61,0.53-1.008c0.072-0.21,0.298-0.32,0.508-0.249
		c0.209,0.072,0.32,0.3,0.248,0.509c-0.079,0.23-0.173,0.444-0.276,0.644c0.08-0.096,0.162-0.18,0.242-0.279
		c0.138-0.172,0.39-0.2,0.562-0.062C15.987,93.301,16.015,93.553,15.877,93.725z M16.193,89.733
		c-0.13,0.403-0.254,0.807-0.373,1.212c-0.051,0.175-0.21,0.288-0.384,0.288c-0.038,0-0.075-0.005-0.113-0.017
		c-0.212-0.062-0.333-0.283-0.271-0.496c0.121-0.412,0.247-0.822,0.379-1.232c0.068-0.21,0.293-0.325,0.504-0.258
		C16.146,89.298,16.261,89.523,16.193,89.733z M16.068,87.613c0.144-0.4,0.29-0.803,0.44-1.206c0.077-0.208,0.308-0.313,0.514-0.235
		c0.207,0.076,0.312,0.307,0.236,0.514c-0.149,0.4-0.294,0.799-0.436,1.197c-0.058,0.163-0.212,0.266-0.377,0.266
		c-0.044,0-0.09-0.008-0.134-0.023C16.104,88.051,15.995,87.822,16.068,87.613z M17.805,90.903c-0.241,0.401-0.478,0.78-0.713,1.138
		c-0.076,0.117-0.204,0.18-0.334,0.18c-0.075,0-0.151-0.021-0.219-0.064c-0.185-0.122-0.236-0.37-0.114-0.555
		c0.229-0.349,0.459-0.717,0.694-1.109c0.113-0.189,0.358-0.253,0.548-0.138C17.856,90.468,17.918,90.713,17.805,90.903z
		 M17.58,85.106c-0.047,0-0.096-0.009-0.143-0.026c-0.206-0.08-0.31-0.311-0.23-0.518l0.458-1.193
		c0.079-0.207,0.31-0.311,0.517-0.23c0.207,0.078,0.31,0.311,0.23,0.516l-0.458,1.195C17.892,85.008,17.74,85.106,17.58,85.106z
		 M19.362,87.883l-0.571,1.194c-0.068,0.144-0.212,0.227-0.36,0.227c-0.059,0-0.117-0.013-0.173-0.04
		c-0.199-0.096-0.283-0.334-0.187-0.533l0.573-1.199c0.097-0.198,0.336-0.283,0.535-0.184
		C19.376,87.444,19.459,87.684,19.362,87.883z M19.11,81.812c-0.06,0.161-0.212,0.26-0.375,0.26c-0.046,0-0.094-0.008-0.14-0.025
		c-0.207-0.077-0.312-0.308-0.234-0.515l0.442-1.197c0.076-0.207,0.306-0.312,0.513-0.238c0.208,0.076,0.314,0.306,0.239,0.514
		L19.11,81.812z M20.943,84.941c-0.217,0.38-0.433,0.764-0.645,1.15c-0.073,0.133-0.21,0.208-0.352,0.208
		c-0.065,0-0.131-0.016-0.192-0.05c-0.194-0.105-0.265-0.349-0.159-0.543c0.215-0.391,0.433-0.778,0.651-1.162
		c0.109-0.191,0.354-0.258,0.546-0.15C20.986,84.504,21.053,84.749,20.943,84.941z M20.778,38.44
		c-0.033-0.332-0.049-0.667-0.049-1.004l0.005-0.339c0.007-0.221,0.203-0.391,0.413-0.387c0.221,0.007,0.394,0.192,0.387,0.413
		l-0.005,0.314c0,0.31,0.016,0.618,0.045,0.924c0.022,0.22-0.139,0.416-0.359,0.438c-0.013,0.001-0.026,0.002-0.04,0.002
		C20.972,38.8,20.798,38.646,20.778,38.44z M21.454,39.962c0.212-0.066,0.436,0.051,0.501,0.261c0.124,0.39,0.274,0.778,0.448,1.154
		c0.093,0.201,0.006,0.438-0.195,0.531c-0.054,0.025-0.111,0.037-0.168,0.037c-0.15,0-0.295-0.086-0.363-0.231
		c-0.189-0.407-0.352-0.828-0.485-1.251C21.126,40.253,21.243,40.028,21.454,39.962z M22.63,82.03l-0.642,1.104
		c-0.077,0.133-0.227,0.216-0.374,0.216c-0.064,0-0.128-0.016-0.186-0.049c-0.191-0.111-0.269-0.334-0.158-0.525l0.666-1.146
		c0.11-0.192,0.355-0.258,0.546-0.146C22.675,81.594,22.74,81.839,22.63,82.03z M22.805,42.937c0.181-0.125,0.431-0.082,0.557,0.1
		l0.739,1.063c0.125,0.182,0.078,0.431-0.104,0.556c-0.069,0.047-0.148,0.07-0.226,0.07c-0.127,0-0.252-0.061-0.331-0.174
		l-0.735-1.059C22.579,43.312,22.624,43.063,22.805,42.937z M24.266,79.068l-0.056,0.108c-0.185,0.356-0.376,0.714-0.572,1.069
		c-0.073,0.133-0.21,0.207-0.351,0.207c-0.065,0-0.132-0.016-0.192-0.049c-0.194-0.106-0.265-0.35-0.158-0.543
		c0.193-0.352,0.381-0.703,0.563-1.054l0.057-0.108c0.103-0.196,0.346-0.271,0.54-0.17C24.292,78.632,24.368,78.873,24.266,79.068z
		 M25.504,76.003c-0.208,0.316-0.342,0.664-0.399,1.034l-0.795-0.09c0.079-0.516,0.255-0.971,0.526-1.384
		c0.121-0.185,0.369-0.237,0.554-0.114C25.574,75.57,25.626,75.818,25.504,76.003z M25.804,47.008
		c-0.394-0.254-0.756-0.536-1.076-0.837c-0.16-0.152-0.168-0.405-0.016-0.565c0.152-0.161,0.405-0.167,0.566-0.017
		c0.284,0.269,0.607,0.52,0.96,0.748c0.186,0.12,0.239,0.367,0.119,0.553c-0.076,0.119-0.205,0.183-0.337,0.183
		C25.945,47.072,25.871,47.051,25.804,47.008z M28.023,74.436c-0.414,0.079-0.801,0.208-1.15,0.383
		c-0.057,0.029-0.118,0.043-0.179,0.043c-0.146,0-0.288-0.081-0.358-0.221c-0.099-0.197-0.019-0.438,0.178-0.537
		c0.415-0.208,0.872-0.361,1.358-0.454c0.216-0.043,0.426,0.101,0.468,0.317C28.382,74.184,28.24,74.394,28.023,74.436z
		 M29.335,48.256c-0.063,0.155-0.212,0.25-0.371,0.25c-0.05,0-0.101-0.009-0.15-0.029c-0.41-0.167-0.811-0.34-1.202-0.52
		c-0.201-0.092-0.289-0.33-0.196-0.53c0.092-0.201,0.33-0.288,0.53-0.196c0.381,0.175,0.77,0.344,1.169,0.505
		C29.32,47.818,29.418,48.051,29.335,48.256z M31.619,74.543c-0.064,0.154-0.213,0.247-0.37,0.247c-0.051,0-0.103-0.01-0.153-0.03
		c-0.375-0.156-0.774-0.271-1.185-0.34c-0.218-0.036-0.365-0.242-0.328-0.461c0.037-0.217,0.245-0.364,0.461-0.328
		c0.471,0.08,0.928,0.211,1.359,0.391C31.607,74.105,31.704,74.34,31.619,74.543z M32.445,49.295
		c-0.051,0.174-0.21,0.287-0.383,0.287c-0.038,0-0.076-0.005-0.114-0.016c-0.425-0.126-0.84-0.257-1.246-0.393
		c-0.21-0.07-0.323-0.297-0.253-0.506c0.07-0.21,0.296-0.323,0.507-0.252c0.396,0.133,0.803,0.261,1.219,0.384
		C32.387,48.861,32.508,49.084,32.445,49.295z M33.717,76.979c-0.143,0-0.282-0.077-0.354-0.212
		c-0.189-0.356-0.429-0.684-0.713-0.973c-0.154-0.158-0.152-0.412,0.006-0.566s0.411-0.152,0.565,0.006
		c0.338,0.344,0.624,0.734,0.849,1.158c0.104,0.194,0.029,0.437-0.166,0.541C33.845,76.965,33.78,76.979,33.717,76.979z
		 M34.266,79.897l-0.314-1.288c-0.053-0.215,0.078-0.431,0.293-0.483c0.215-0.052,0.431,0.079,0.483,0.294l0.315,1.288
		c0.053,0.215-0.079,0.431-0.294,0.483c-0.032,0.008-0.063,0.012-0.095,0.012C34.474,80.203,34.311,80.08,34.266,79.897z
		 M35.011,83.165c-0.088-0.431-0.182-0.86-0.278-1.288c-0.049-0.215,0.087-0.43,0.302-0.479c0.213-0.048,0.43,0.087,0.478,0.303
		c0.098,0.432,0.192,0.867,0.282,1.304c0.044,0.216-0.095,0.428-0.312,0.472c-0.027,0.006-0.054,0.008-0.081,0.008
		C35.216,83.484,35.05,83.354,35.011,83.165z M32.51,99.678c-0.222,0-0.445-0.006-0.669-0.016c-0.11-0.006-0.213-0.056-0.285-0.14
		c-0.072-0.085-0.105-0.194-0.093-0.304c0.031-0.318,0.21-0.533,0.621-0.762c0.193-0.109,0.437-0.039,0.545,0.154
		c0.053,0.094,0.062,0.201,0.037,0.298c0.144,0.061,0.245,0.202,0.245,0.368C32.91,99.498,32.73,99.678,32.51,99.678z
		 M33.811,98.223c-0.048-0.216,0.087-0.43,0.303-0.479l0.305-0.066c0.326-0.069,0.623-0.166,0.883-0.285
		c0.201-0.093,0.438-0.004,0.531,0.197c0.092,0.2,0.004,0.438-0.196,0.529c-0.313,0.145-0.667,0.26-1.05,0.341l-0.296,0.065
		c-0.03,0.006-0.059,0.01-0.088,0.01C34.018,98.535,33.853,98.408,33.811,98.223z M35.962,99.026
		c-0.415,0.188-0.844,0.331-1.313,0.437c-0.03,0.007-0.059,0.01-0.088,0.01c-0.183,0-0.348-0.126-0.39-0.312
		c-0.049-0.216,0.086-0.43,0.302-0.479c0.416-0.095,0.795-0.22,1.16-0.385c0.201-0.091,0.438-0.001,0.529,0.199
		C36.253,98.699,36.164,98.936,35.962,99.026z M36.21,91.852c-0.05-0.216,0.084-0.431,0.299-0.48
		c0.216-0.045,0.431,0.084,0.48,0.299c0.104,0.447,0.201,0.877,0.287,1.307c0.044,0.217-0.097,0.428-0.313,0.471
		c-0.026,0.006-0.053,0.008-0.079,0.008c-0.187,0-0.354-0.131-0.392-0.321C36.408,92.713,36.312,92.289,36.21,91.852z
		 M37.878,96.651c-0.004,0.229-0.028,0.577-0.195,0.936c-0.068,0.146-0.212,0.23-0.363,0.23c-0.057,0-0.114-0.012-0.169-0.038
		c-0.2-0.093-0.286-0.331-0.192-0.531c0.071-0.152,0.103-0.321,0.113-0.534c-0.055,0.028-0.114,0.052-0.176,0.052
		c-0.054,0-0.109-0.011-0.161-0.033c-0.202-0.09-0.294-0.326-0.205-0.527c0.144-0.327,0.219-0.709,0.224-1.135
		c0.002-0.221,0.187-0.414,0.404-0.396c0.221,0.003,0.398,0.183,0.396,0.404c-0.002,0.23-0.03,0.447-0.066,0.659
		c0.006,0,0.012-0.004,0.018-0.004c0.221,0.008,0.394,0.193,0.387,0.414L37.878,96.651z M38.012,94.166
		c-0.018,0.207-0.193,0.365-0.398,0.365c-0.012,0-0.023-0.001-0.035-0.002c-0.22-0.02-0.383-0.213-0.364-0.434
		c0.036-0.411,0.079-0.846,0.129-1.307c0.024-0.221,0.223-0.387,0.441-0.354c0.22,0.024,0.378,0.222,0.354,0.44
		C38.09,93.332,38.047,93.759,38.012,94.166z M38.351,91.004c-0.019,0.208-0.193,0.496-0.398,0.496c-0.012,0-0.024,0-0.037,0
		c-0.22,0-0.382-0.35-0.361-0.568c0.04-0.432,0.077-0.931,0.111-1.363c0.018-0.22,0.217-0.406,0.431-0.4
		c0.22,0.018,0.384,0.261,0.367,0.481C38.429,90.085,38.392,90.57,38.351,91.004z M38.609,87.855
		c-0.014,0.211-0.19,0.645-0.398,0.645c-0.009,0-0.019,0-0.027,0c-0.221,0-0.387-0.491-0.372-0.711l0.086-1.444
		c0.014-0.221,0.207-0.466,0.425-0.444c0.221,0.014,0.388,0.206,0.373,0.426L38.609,87.855z M38.828,84.107
		c-0.014,0.211-0.19,0.244-0.398,0.244c-0.009,0-0.019,0-0.028,0c-0.22,0-0.387-0.07-0.372-0.291l0.096-1.237
		c0.017-0.22,0.208-0.348,0.43-0.335c0.22,0.018,0.385,0.227,0.368,0.446L38.828,84.107z M39.095,80.959
		c-0.02,0.207-0.194,0.361-0.397,0.361c-0.013,0-0.026-0.001-0.039-0.002c-0.22-0.021-0.381-0.217-0.359-0.438
		c0.042-0.432,0.088-0.867,0.139-1.306c0.026-0.22,0.229-0.368,0.444-0.351c0.219,0.025,0.376,0.225,0.351,0.443
		C39.182,80.102,39.137,80.532,39.095,80.959z M39.826,76.539c-0.146,0.334-0.252,0.713-0.318,1.126
		c-0.032,0.198-0.206,0.352-0.401,0.352c-0.019,0-0.038-0.001-0.056-0.005c-0.217-0.032-0.37-0.219-0.338-0.436
		c0.083-0.518,0.209-0.961,0.381-1.356c0.088-0.202,0.323-0.295,0.526-0.207C39.822,76.101,39.914,76.336,39.826,76.539z
		 M40.046,49.862c-0.068-0.21,0.046-0.436,0.256-0.504c0.381-0.124,0.804-0.233,1.294-0.333c0.214-0.041,0.428,0.096,0.472,0.312
		c0.044,0.216-0.096,0.428-0.312,0.472c-0.459,0.094-0.854,0.195-1.207,0.31c-0.041,0.013-0.083,0.02-0.124,0.02
		C40.257,50.138,40.101,50.031,40.046,49.862z M41.991,74.648c-0.399,0.126-0.755,0.299-1.06,0.514
		c-0.07,0.049-0.15,0.072-0.23,0.072c-0.125,0-0.25-0.059-0.327-0.17c-0.127-0.18-0.084-0.43,0.096-0.557
		c0.371-0.262,0.802-0.471,1.279-0.623c0.21-0.066,0.435,0.051,0.502,0.261C42.318,74.356,42.202,74.581,41.991,74.648z
		 M43.24,49.146c-0.034-0.218,0.114-0.423,0.332-0.458l0.353-0.056c0.309-0.05,0.619-0.099,0.928-0.145
		c0.222-0.032,0.422,0.118,0.455,0.336c0.032,0.219-0.118,0.422-0.337,0.455c-0.306,0.046-0.612,0.094-0.918,0.144l-0.354,0.056
		c-0.021,0.004-0.042,0.005-0.063,0.005C43.442,49.482,43.271,49.342,43.24,49.146z M45.151,74.346
		c-0.422,0.004-0.846,0.154-1.269,0.154c-0.013,0-0.025,0-0.038,0c-0.204,0-0.378-0.244-0.398-0.452
		c-0.02-0.22,0.141-0.46,0.361-0.48c0.446-0.041,0.893-0.086,1.338-0.089c0.192-0.01,0.401,0.21,0.403,0.432
		C45.55,74.131,45.372,74.344,45.151,74.346z M46.484,48.661c-0.028-0.219,0.127-0.419,0.347-0.447
		c0.432-0.055,0.862-0.106,1.287-0.156c0.215-0.024,0.418,0.132,0.443,0.352c0.025,0.22-0.132,0.418-0.352,0.443
		c-0.422,0.048-0.849,0.1-1.278,0.155c-0.018,0.002-0.034,0.003-0.051,0.003C46.682,49.01,46.51,48.863,46.484,48.661z
		 M48.463,74.26l-1.307-0.002c-0.221,0-0.399-0.18-0.399-0.4c0-0.221,0.18-0.398,0.4-0.398h0l1.271,0.002
		c0.221,0,0.417,0.179,0.417,0.4C48.845,74.082,48.684,74.26,48.463,74.26z M49.742,48.279c-0.023-0.22,0.137-0.417,0.356-0.439
		c0.431-0.044,0.861-0.085,1.293-0.122c0.221-0.024,0.414,0.144,0.433,0.364c0.019,0.22-0.144,0.414-0.364,0.433
		c-0.428,0.037-0.854,0.077-1.28,0.121c-0.014,0.001-0.028,0.002-0.042,0.002C49.937,48.637,49.764,48.484,49.742,48.279z
		 M51.812,74.197c-0.262,0.023-0.534,0.164-0.818,0.169L50.477,74.5c-0.002,0-0.004,0-0.006,0c-0.218,0-0.396-0.301-0.4-0.52
		c-0.003-0.222,0.173-0.467,0.395-0.469l0.513-0.041c0.265-0.005,0.518-0.034,0.76-0.057c0.223-0.018,0.415,0.135,0.435,0.355
		C52.193,73.989,52.031,74.178,51.812,74.197z M53.009,48.06c-0.016-0.221,0.149-0.447,0.37-0.463l1.294-0.107
		c0.219-0.011,0.41,0.146,0.423,0.367c0.014,0.221-0.155,0.476-0.375,0.489L53.436,48.5c-0.01,0-0.019,0-0.029,0
		C53.199,48.5,53.023,48.27,53.009,48.06z M55.102,73.082l-0.226,0.146c-0.315,0.199-0.652,0.368-1.003,0.504
		c-0.047,0.02-0.097,0.027-0.145,0.027c-0.16,0-0.312-0.096-0.373-0.254c-0.08-0.206,0.021-0.438,0.228-0.518
		c0.308-0.121,0.591-0.263,0.866-0.436l0.206-0.135c0.183-0.123,0.432-0.074,0.555,0.109S55.285,72.959,55.102,73.082z
		 M57.762,71.872c-0.353-0.06-0.704-0.011-1.052,0.14c-0.051,0.021-0.105,0.032-0.158,0.032c-0.154,0-0.302-0.091-0.367-0.241
		c-0.088-0.203,0.006-0.438,0.209-0.525c0.488-0.212,0.997-0.279,1.501-0.194c0.218,0.037,0.365,0.243,0.328,0.462
		C58.186,71.762,57.979,71.913,57.762,71.872z M57.976,48.333c-0.444,0.001-0.871,0.167-1.284,0.167c-0.003,0-0.006,0-0.009,0
		c-0.217,0-0.395-0.327-0.4-0.545c-0.005-0.221-0.066-0.481,0.154-0.486c0.418-0.009,0.063-0.072,1.063-0.073v-0.01
		c0,0,0.637,0.21,0.637,0.431C58.138,48.039,58.196,48.332,57.976,48.333z M59.685,74.286c-0.196,0-0.368-0.144-0.396-0.345
		c-0.012-0.082-0.021-0.163-0.026-0.242c-0.024-0.333-0.104-0.633-0.234-0.891c-0.101-0.197-0.022-0.438,0.175-0.539
		s0.438-0.021,0.538,0.176c0.18,0.354,0.287,0.756,0.319,1.197c0.004,0.062,0.011,0.125,0.02,0.188
		c0.031,0.219-0.122,0.422-0.34,0.452C59.723,74.285,59.704,74.286,59.685,74.286z M60.81,77.415
		c-0.052,0.023-0.108,0.034-0.162,0.034c-0.153,0-0.3-0.088-0.366-0.238c-0.172-0.389-0.333-0.812-0.479-1.257
		c-0.069-0.21,0.046-0.437,0.256-0.505c0.209-0.067,0.436,0.047,0.504,0.256c0.138,0.422,0.288,0.814,0.45,1.182
		C61.104,77.09,61.012,77.326,60.81,77.415z M59.955,48.333c-0.221-0.004-0.397-0.256-0.394-0.477
		c0.004-0.222,0.2-0.415,0.407-0.429l1.293,0.009c0.221,0.005,0.396,0.32,0.391,0.542c-0.005,0.218-0.183,0.522-0.4,0.522
		c-0.003,0-0.006,0-0.009,0L59.955,48.333z M62.716,80.113c-0.075,0.062-0.165,0.092-0.253,0.092c-0.116,0-0.23-0.051-0.31-0.146
		l-0.499-0.602c-0.116-0.139-0.228-0.283-0.336-0.431c-0.13-0.179-0.092-0.429,0.086-0.56s0.429-0.092,0.559,0.087
		c0.099,0.134,0.2,0.265,0.305,0.39l0.502,0.607C62.912,79.722,62.887,79.974,62.716,80.113z M62.841,47.866
		c0.008-0.221,0.193-0.399,0.414-0.39c0.434,0.015,0.866,0.031,1.296,0.051c0.221,0.011,0.391,0.285,0.38,0.506
		c-0.01,0.214-0.187,0.467-0.399,0.467c-0.006,0-0.013,0-0.02,0c-0.427,0-0.854-0.125-1.285-0.14
		C63.006,48.353,62.833,48.086,62.841,47.866z M64.806,82.686c-0.074,0.06-0.162,0.088-0.249,0.088c-0.118,0-0.234-0.051-0.313-0.15
		l-0.821-1.01c-0.14-0.171-0.114-0.423,0.057-0.562s0.423-0.113,0.563,0.057l0.826,1.017C65.006,82.297,64.979,82.549,64.806,82.686
		z M58.406,99.295c-0.013,0-0.027-0.001-0.041-0.002c-0.226-0.023-0.452-0.057-0.679-0.101c-0.112-0.021-0.209-0.089-0.268-0.187
		s-0.072-0.217-0.039-0.324c0.075-0.242,0.189-0.469,0.347-0.692c0.127-0.181,0.377-0.224,0.558-0.095
		c0.18,0.128,0.223,0.377,0.095,0.558c-0.008,0.011-0.017,0.022-0.024,0.034c0.03,0.004,0.06,0.008,0.09,0.01
		c0.22,0.022,0.38,0.219,0.358,0.438C58.782,99.141,58.608,99.295,58.406,99.295z M89.775,97.645l-0.147,0.004
		c-0.001,0-0.002,0-0.003,0c-0.2,0-0.391-0.018-0.581-0.053c-0.115-0.021-0.216-0.092-0.274-0.193s-0.069-0.225-0.03-0.335
		c0.111-0.31,0.285-0.541,0.533-0.707c0.183-0.122,0.432-0.074,0.555,0.11c0.079,0.118,0.087,0.264,0.033,0.386
		c0.17,0.042,0.298,0.192,0.304,0.376C90.17,97.453,89.996,97.637,89.775,97.645z M122.124,72.219
		c0.421-0.049,0.846-0.102,1.272-0.16c0.219-0.031,0.421,0.123,0.451,0.342s-0.123,0.42-0.342,0.451
		c-0.434,0.059-0.863,0.113-1.291,0.162c-0.015,0.002-0.03,0.002-0.046,0.002c-0.2,0-0.373-0.15-0.396-0.354
		C121.747,72.442,121.904,72.244,122.124,72.219z M99.062,61.889c0.138-0.171,0.391-0.199,0.562-0.062
		c0.3,0.241,0.609,0.498,0.931,0.774c0.167,0.144,0.223,0.427,0.078,0.595c-0.086,0.1-0.197,0.158-0.31,0.158
		c-0.075,0-0.15-0.026-0.218-0.084c-0.386-0.332-0.688-0.583-0.982-0.819C98.951,62.313,98.924,62.061,99.062,61.889z
		 M90.344,57.403c0.085-0.204,0.318-0.299,0.522-0.216l1.194,0.501c0.203,0.087,0.298,0.322,0.211,0.525
		c-0.064,0.152-0.212,0.243-0.367,0.243c-0.053,0-0.105-0.01-0.157-0.032l-1.187-0.499C90.355,57.841,90.259,57.607,90.344,57.403z
		 M87.3,56.184c0.078-0.207,0.31-0.311,0.517-0.231c0.401,0.154,0.804,0.312,1.208,0.475c0.205,0.083,0.305,0.315,0.222,0.521
		c-0.062,0.156-0.213,0.25-0.371,0.25c-0.05,0-0.1-0.009-0.148-0.029c-0.4-0.161-0.799-0.318-1.196-0.47
		C87.324,56.621,87.221,56.39,87.3,56.184z M82.899,63.053c0.02,0.275-0.188,0.514-0.463,0.534
		c-0.013,0.001-0.024,0.001-0.036,0.001c-0.26,0-0.479-0.201-0.498-0.465c-0.006-0.081-0.009-0.16-0.009-0.236
		c0-0.476,0.105-0.91,0.312-1.29c0.132-0.242,0.437-0.331,0.679-0.199c0.242,0.132,0.332,0.436,0.199,0.679
		c-0.127,0.231-0.19,0.504-0.19,0.811C82.894,62.941,82.896,62.996,82.899,63.053z M81.133,53.967
		c0.092-0.201,0.328-0.29,0.529-0.199c0.386,0.175,0.775,0.339,1.171,0.493c0.206,0.08,0.308,0.312,0.228,0.518
		c-0.062,0.158-0.213,0.254-0.373,0.254c-0.049,0-0.098-0.009-0.146-0.027c-0.408-0.159-0.812-0.329-1.21-0.51
		C81.131,54.405,81.041,54.168,81.133,53.967z M68.402,78.41c0.208,0.076,0.314,0.306,0.238,0.514
		c-0.146,0.398-0.263,0.8-0.343,1.191c-0.039,0.189-0.206,0.319-0.392,0.319c-0.027,0-0.054-0.003-0.081-0.009
		c-0.217-0.044-0.355-0.256-0.312-0.472c0.089-0.431,0.215-0.87,0.376-1.307C67.966,78.439,68.196,78.334,68.402,78.41z
		 M67.371,82.055c-0.016-0.221,0.149-0.412,0.369-0.429c0.226-0.009,0.412,0.148,0.43,0.369c0.029,0.405,0.1,0.81,0.208,1.204
		c0.059,0.213-0.066,0.433-0.279,0.491c-0.036,0.01-0.071,0.015-0.106,0.015c-0.176,0-0.337-0.117-0.386-0.295
		C67.485,82.967,67.406,82.512,67.371,82.055z M67.505,88.133c0.018,0.221-0.146,0.219-0.366,0.219c-0.012,0-0.022,0-0.033,0
		c-0.206,0-0.381,0.058-0.398-0.151c-0.023-0.289-0.062-0.477-0.119-0.778c-0.021-0.116-0.046-0.178-0.071-0.292
		c-0.049-0.216,0.087-0.402,0.302-0.451c0.215-0.05,0.43,0.101,0.479,0.315c0.027,0.124,0.054,0.256,0.077,0.381
		C67.436,87.706,67.479,87.816,67.505,88.133z M66.549,47.661c0.435,0.038,0.867,0.083,1.299,0.136
		c0.219,0.027,0.375,0.226,0.348,0.446c-0.023,0.203-0.196,0.351-0.396,0.351c-0.017,0-0.033-0.001-0.05-0.003
		c-0.422-0.052-0.846-0.096-1.271-0.133c-0.22-0.019-0.383-0.213-0.363-0.433C66.135,47.804,66.328,47.642,66.549,47.661z
		 M65.491,83.682c0.192-0.111,0.437-0.045,0.547,0.145c0.229,0.395,0.435,0.801,0.61,1.205c0.088,0.202-0.004,0.438-0.207,0.526
		c-0.052,0.022-0.105,0.033-0.159,0.033c-0.154,0-0.302-0.089-0.367-0.24c-0.164-0.376-0.355-0.755-0.569-1.122
		C65.235,84.037,65.301,83.792,65.491,83.682z M61.859,98.646c-0.447,0.259-0.875,0.434-1.309,0.535
		c-0.03,0.006-0.061,0.01-0.091,0.01c-0.182,0-0.347-0.125-0.39-0.309c-0.025-0.108-0.003-0.217,0.051-0.304
		c-0.011,0-0.021,0.003-0.033,0.003l-0.175-0.002c-0.221-0.006-0.395-0.19-0.389-0.411c0.006-0.222,0.188-0.412,0.411-0.39
		l0.153,0.003c0.267,0,0.531-0.022,0.786-0.068c0.085-0.015,0.168-0.033,0.249-0.053c0.198-0.052,0.393,0.062,0.464,0.249
		c0.162-0.029,0.331,0.04,0.418,0.189C62.115,98.291,62.05,98.535,61.859,98.646z M64.506,96.541
		c-0.321,0.292-0.651,0.58-0.989,0.867c-0.075,0.063-0.167,0.094-0.258,0.094c-0.03,0-0.058-0.012-0.086-0.018
		c-0.058,0.029-0.116,0.064-0.179,0.064c-0.114,0-0.229-0.049-0.308-0.145c-0.141-0.169-0.118-0.422,0.052-0.562
		c0.296-0.246,0.571-0.544,0.817-0.883c0.128-0.178,0.374-0.217,0.553-0.092c0.146-0.05,0.314-0.013,0.426,0.109
		C64.682,96.14,64.669,96.393,64.506,96.541z M64.888,94.857c-0.063,0-0.128-0.016-0.188-0.047
		c-0.194-0.105-0.268-0.348-0.164-0.542l0.125-0.233c0.19-0.357,0.342-0.641,0.496-0.921c0.107-0.192,0.351-0.265,0.543-0.157
		c0.194,0.107,0.265,0.35,0.158,0.544c-0.153,0.277-0.303,0.557-0.452,0.836l-0.165,0.309C65.169,94.78,65.03,94.857,64.888,94.857z
		 M66.863,94.175c-0.289,0.323-0.59,0.644-0.899,0.962c-0.079,0.08-0.183,0.12-0.286,0.12c-0.102,0-0.202-0.038-0.279-0.114
		c-0.158-0.154-0.162-0.406-0.008-0.564c0.303-0.311,0.596-0.623,0.878-0.938c0.147-0.164,0.4-0.178,0.565-0.031
		C66.998,93.758,67.012,94.01,66.863,94.175z M67.384,90.465c-0.097,0.458-0.242,0.903-0.435,1.322
		c-0.067,0.146-0.212,0.232-0.363,0.232c-0.057,0-0.113-0.012-0.167-0.035c-0.2-0.093-0.289-0.33-0.196-0.531
		c0.167-0.365,0.294-0.752,0.379-1.152c0.045-0.217,0.258-0.354,0.473-0.311C67.291,90.036,67.43,90.248,67.384,90.465z
		 M68.911,91.488c-0.217,0.372-0.467,0.749-0.744,1.121c-0.079,0.105-0.199,0.16-0.321,0.16c-0.083,0-0.167-0.025-0.238-0.08
		c-0.178-0.131-0.214-0.383-0.082-0.559c0.26-0.348,0.493-0.699,0.695-1.045c0.11-0.191,0.355-0.254,0.547-0.145
		C68.958,91.053,69.022,91.298,68.911,91.488z M70.069,88.253c-0.011,0.084-0.024,0.169-0.04,0.255
		c-0.064,0.363-0.153,0.725-0.265,1.078c-0.054,0.17-0.212,0.279-0.382,0.279c-0.04,0-0.08-0.006-0.121-0.02
		c-0.21-0.066-0.326-0.291-0.26-0.502c0.102-0.318,0.182-0.646,0.24-0.975l0.035-0.225c0.029-0.219,0.232-0.375,0.45-0.342
		C69.946,87.832,70.1,88.034,70.069,88.253z M69.853,86.079c0.083,0.204-0.015,0.438-0.22,0.521
		c-0.049,0.021-0.101,0.029-0.15,0.029c-0.158,0-0.308-0.094-0.371-0.249c-0.078-0.194-0.184-0.385-0.312-0.564l-0.066-0.094
		c-0.1-0.141-0.18-0.254-0.262-0.377c-0.122-0.185-0.072-0.433,0.111-0.555c0.185-0.123,0.433-0.072,0.555,0.111
		c0.078,0.117,0.153,0.223,0.223,0.322l0.092,0.127C69.615,85.584,69.75,85.828,69.853,86.079z M70.312,76.312
		c-0.295,0.291-0.563,0.606-0.798,0.937c-0.078,0.109-0.201,0.168-0.326,0.168c-0.08,0-0.161-0.024-0.231-0.074
		c-0.181-0.128-0.223-0.378-0.095-0.559c0.262-0.367,0.561-0.717,0.888-1.041c0.157-0.155,0.411-0.153,0.565,0.004
		C70.471,75.902,70.469,76.156,70.312,76.312z M71.025,49.175c-0.032,0-0.064-0.004-0.098-0.012c-0.399-0.1-0.812-0.19-1.24-0.273
		c-0.217-0.042-0.359-0.251-0.317-0.468s0.253-0.365,0.469-0.317c0.441,0.084,0.869,0.179,1.283,0.282
		c0.214,0.054,0.345,0.271,0.291,0.485C71.367,49.054,71.205,49.175,71.025,49.175z M73.398,75.26
		c-0.056,0.166-0.212,0.271-0.379,0.271c-0.042,0-0.085-0.006-0.128-0.021c-0.221-0.074-0.449-0.111-0.68-0.111
		c-0.159-0.008-0.275,0.012-0.402,0.035c-0.215,0.044-0.426-0.102-0.467-0.319c-0.04-0.217,0.103-0.426,0.32-0.466
		c0.174-0.033,0.353-0.073,0.55-0.051c0.316,0,0.631,0.053,0.935,0.154C73.357,74.822,73.47,75.05,73.398,75.26z M73.958,50.201
		c-0.376-0.17-0.765-0.329-1.167-0.475c-0.208-0.075-0.315-0.304-0.24-0.512c0.074-0.208,0.305-0.317,0.512-0.24
		c0.424,0.153,0.832,0.319,1.227,0.498c0.201,0.092,0.29,0.329,0.198,0.53c-0.066,0.147-0.212,0.234-0.364,0.234
		C74.067,50.237,74.012,50.226,73.958,50.201z M75.926,77.38c-0.078,0.111-0.202,0.171-0.328,0.171
		c-0.079,0-0.159-0.023-0.229-0.072c-0.376-0.266-0.729-0.564-1.046-0.891c-0.154-0.158-0.15-0.411,0.008-0.565
		c0.158-0.153,0.411-0.15,0.565,0.007c0.286,0.295,0.592,0.555,0.933,0.793C76.009,76.949,76.053,77.199,75.926,77.38z
		 M75.671,51.11c-0.188-0.114-0.25-0.36-0.136-0.549c0.114-0.189,0.359-0.25,0.549-0.136c0.35,0.21,0.714,0.444,1.104,0.708
		c0.184,0.123,0.231,0.372,0.108,0.555c-0.076,0.114-0.203,0.176-0.332,0.176c-0.076,0-0.154-0.022-0.223-0.068
		C76.363,51.542,76.01,51.315,75.671,51.11z M78.959,78.674c-0.058,0.166-0.213,0.27-0.379,0.27c-0.043,0-0.087-0.006-0.13-0.021
		c-0.427-0.146-0.841-0.299-1.241-0.465c-0.204-0.084-0.301-0.318-0.217-0.522c0.085-0.203,0.319-0.299,0.522-0.216
		c0.387,0.16,0.786,0.306,1.196,0.447C78.92,78.238,79.03,78.465,78.959,78.674z M79.723,53.638c-0.066,0-0.133-0.016-0.195-0.051
		c-0.381-0.213-0.758-0.437-1.129-0.671c-0.187-0.118-0.242-0.365-0.125-0.552c0.119-0.187,0.366-0.241,0.553-0.125
		c0.358,0.227,0.723,0.443,1.092,0.649c0.192,0.107,0.262,0.351,0.154,0.544C79.999,53.564,79.862,53.638,79.723,53.638z
		 M82.072,79.773c-0.063,0.155-0.213,0.25-0.372,0.25c-0.05,0-0.1-0.01-0.148-0.029c-0.259-0.104-0.52-0.201-0.783-0.295
		l-0.419-0.145c-0.209-0.072-0.32-0.299-0.249-0.508c0.071-0.21,0.299-0.32,0.508-0.249l0.426,0.147
		c0.275,0.096,0.547,0.199,0.815,0.307C82.055,79.335,82.154,79.568,82.072,79.773z M82.322,66.398
		c-0.046-0.414-0.097-0.838-0.152-1.275c-0.035-0.273,0.158-0.524,0.433-0.56c0.272-0.032,0.524,0.159,0.56,0.433
		c0.056,0.443,0.107,0.873,0.154,1.293c0.03,0.273-0.168,0.521-0.442,0.552c-0.019,0.002-0.037,0.003-0.056,0.003
		C82.567,66.844,82.351,66.654,82.322,66.398z M82.628,69.656l-0.114-1.287c-0.025-0.275,0.178-0.519,0.453-0.543
		c0.276-0.021,0.518,0.18,0.543,0.453l0.114,1.289c0.024,0.275-0.179,0.518-0.454,0.542c-0.016,0.001-0.03,0.002-0.045,0.002
		C82.869,70.112,82.65,69.916,82.628,69.656z M82.814,71.654c-0.034-0.273,0.161-0.523,0.436-0.557
		c0.272-0.037,0.523,0.16,0.557,0.435c0.051,0.414,0.118,0.826,0.202,1.235c0.056,0.271-0.118,0.535-0.39,0.591
		c-0.033,0.007-0.067,0.011-0.101,0.011c-0.232,0-0.44-0.164-0.489-0.4C82.94,72.533,82.868,72.095,82.814,71.654z M84.979,81.33
		c-0.075,0.121-0.206,0.188-0.339,0.188c-0.072,0-0.146-0.02-0.212-0.061c-0.36-0.225-0.728-0.438-1.103-0.637
		c-0.194-0.104-0.269-0.346-0.165-0.541s0.347-0.27,0.541-0.165c0.392,0.208,0.774,0.429,1.15,0.664
		C85.04,80.896,85.097,81.143,84.979,81.33z M93.164,97.344c-0.457,0.076-0.886,0.141-1.294,0.194
		c-0.022,0.003-0.044,0.005-0.066,0.005c-0.247,0-0.462-0.279-0.495-0.531C91.287,96.85,91.352,96.5,91.46,96.5
		c-0.007,0-0.013,0-0.02,0c-0.19,0-0.359-0.04-0.394-0.234c-0.037-0.218,0.108-0.377,0.326-0.414c0.4-0.07,0.75-0.183,1.04-0.384
		c0.181-0.126,0.431-0.069,0.557,0.112s0.081,0.438-0.101,0.562c-0.183,0.127-0.383,0.234-0.596,0.321
		c0.24-0.035,0.471-0.065,0.729-0.108c0.269-0.049,0.529,0.141,0.574,0.413C93.621,97.042,93.437,97.3,93.164,97.344z
		 M93.431,88.109c0.119,0.414,0.233,0.833,0.345,1.26c0.07,0.268-0.09,0.541-0.357,0.61c-0.043,0.011-0.085,0.017-0.127,0.017
		c-0.037,0-0.066-0.027-0.102-0.035c0.095,0.185,0.194,0.367,0.279,0.554l0.125,0.284c0.021,0.05,0.03,0.102,0.031,0.152
		c0.008-0.002,0.014-0.008,0.022-0.01c0.271-0.061,0.536,0.111,0.597,0.381c0.092,0.418,0.181,0.844,0.267,1.275
		c0.051,0.257-0.108,0.501-0.355,0.572c0.003,0.07,0.011,0.139,0.011,0.211l-0.002,0.127c-0.005,0.252-0.033,0.498-0.081,0.73
		c0.063-0.044,0.135-0.078,0.217-0.09c0.271-0.041,0.526,0.156,0.565,0.431c0.071,0.506,0.109,0.979,0.114,1.382
		c0.004,0.277-0.217,0.539-0.493,0.539c-0.002,0-0.004,0-0.007,0c-0.272,0-0.496-0.248-0.5-0.521
		c-0.005-0.361-0.039-0.776-0.104-1.24c-0.01-0.068-0.005-0.152,0.012-0.215c-0.061,0.036-0.124,0.061-0.197,0.061
		c-0.027,0-0.055-0.007-0.082-0.013c-0.216-0.046-0.287-0.26-0.242-0.476c0.041-0.189,0.135-0.396,0.135-0.609v-0.107
		c0-0.158-0.075-0.312-0.089-0.462c-0.014-0.134,0.013-0.253,0.108-0.335c-0.072-0.354-0.16-0.703-0.235-1.045
		c-0.015-0.065-0.022-0.129-0.012-0.191c-0.013,0.002-0.03,0.008-0.044,0.008c-0.155,0-0.306-0.091-0.37-0.244l-0.117-0.264
		c-0.133-0.291-0.278-0.58-0.437-0.864c-0.107-0.194-0.038-0.437,0.154-0.544c0.092-0.051,0.193-0.06,0.288-0.037
		c-0.091-0.342-0.182-0.682-0.277-1.014c-0.077-0.266,0.076-0.543,0.342-0.619C93.076,87.691,93.354,87.844,93.431,88.109z
		 M91.5,84.779c0.229-0.154,0.539-0.095,0.694,0.133c0.23,0.338,0.429,0.74,0.624,1.266c0.096,0.26-0.036,0.547-0.295,0.643
		c-0.058,0.021-0.116,0.031-0.174,0.031c-0.203,0-0.395-0.124-0.469-0.325c-0.167-0.448-0.33-0.782-0.513-1.052
		C91.213,85.246,91.271,84.936,91.5,84.779z M91.65,87.588l0.223,0.285c0.135,0.176,0.101,0.426-0.074,0.561
		c-0.073,0.055-0.158,0.082-0.243,0.082c-0.12,0-0.239-0.055-0.317-0.158l-0.211-0.268c-0.201-0.25-0.396-0.505-0.59-0.762
		c-0.133-0.176-0.097-0.427,0.08-0.56c0.176-0.134,0.427-0.098,0.56,0.079C91.265,87.097,91.454,87.345,91.65,87.588z
		 M89.158,82.473c0.19-0.2,0.508-0.207,0.707-0.018c0.309,0.293,0.619,0.599,0.934,0.919c0.193,0.197,0.19,0.514-0.006,0.708
		c-0.098,0.095-0.225,0.143-0.351,0.143c-0.13,0-0.259-0.05-0.356-0.149c-0.308-0.312-0.609-0.61-0.91-0.896
		C88.977,82.988,88.969,82.672,89.158,82.473z M88.991,84.238c0.19,0.207,0.377,0.42,0.56,0.637c0.104,0.121,0.205,0.245,0.306,0.37
		c0.139,0.172,0.111,0.424-0.061,0.562c-0.074,0.061-0.163,0.089-0.251,0.089c-0.117,0-0.232-0.051-0.312-0.149
		c-0.096-0.119-0.192-0.237-0.292-0.354c-0.178-0.21-0.357-0.414-0.54-0.613c-0.149-0.162-0.138-0.416,0.024-0.564
		C88.589,84.065,88.842,84.076,88.991,84.238z M86.885,80.107c0.208-0.182,0.524-0.16,0.705,0.049
		c0.277,0.318,0.565,0.626,0.86,0.926c0.192,0.197,0.189,0.514-0.007,0.707c-0.098,0.096-0.225,0.144-0.351,0.144
		c-0.13,0-0.259-0.05-0.357-0.149c-0.308-0.315-0.608-0.637-0.899-0.971C86.654,80.604,86.677,80.289,86.885,80.107z M87.543,82.803
		c0.164,0.147,0.178,0.4,0.03,0.564c-0.079,0.088-0.188,0.133-0.298,0.133c-0.096,0-0.19-0.033-0.268-0.102
		c-0.317-0.285-0.643-0.558-0.976-0.818c-0.174-0.137-0.204-0.388-0.068-0.562c0.137-0.173,0.388-0.204,0.562-0.068
		C86.872,82.222,87.211,82.506,87.543,82.803z M85.103,77.356c0.243-0.132,0.547-0.043,0.679,0.2
		c0.087,0.158,0.176,0.318,0.268,0.476c0.12,0.206,0.244,0.405,0.372,0.599c0.151,0.23,0.089,0.541-0.142,0.693
		c-0.085,0.056-0.181,0.082-0.275,0.082c-0.162,0-0.321-0.078-0.418-0.225c-0.139-0.209-0.271-0.425-0.4-0.646
		c-0.097-0.166-0.191-0.333-0.282-0.5C84.771,77.792,84.86,77.488,85.103,77.356z M84.507,74.633
		c0.131,0.395,0.277,0.787,0.438,1.178c0.106,0.254-0.015,0.547-0.27,0.652c-0.062,0.026-0.128,0.039-0.191,0.039
		c-0.196,0-0.383-0.117-0.463-0.309c-0.171-0.413-0.326-0.828-0.464-1.246c-0.087-0.262,0.056-0.545,0.317-0.632
		C84.139,74.23,84.42,74.371,84.507,74.633z M85.954,61.287c-0.087,0.177-0.265,0.279-0.449,0.279c-0.074,0-0.149,0.058-0.221,0.023
		c-0.331-0.163-0.666-0.089-0.792-0.089h-0.215c-0.027,0-0.09-0.083-0.118-0.087c-0.272-0.046-0.455-0.341-0.409-0.614
		c0.047-0.271,0.302-0.476,0.577-0.427l0.165-0.011c0.172,0,0.694-0.004,1.234,0.261C85.974,60.744,86.076,61.039,85.954,61.287z
		 M85.802,56.057c-0.041,0-0.083-0.006-0.125-0.02c-0.358-0.118-0.719-0.23-1.081-0.335l-0.141-0.041
		c-0.213-0.062-0.334-0.285-0.271-0.497c0.063-0.212,0.287-0.333,0.497-0.271l0.136,0.04c0.374,0.108,0.743,0.224,1.111,0.345
		c0.209,0.069,0.323,0.295,0.254,0.505C86.127,55.951,85.971,56.057,85.802,56.057z M87.437,64.229
		c-0.071,0.035-0.146,0.052-0.221,0.052c-0.185,0-0.362-0.102-0.449-0.278c-0.192-0.389-0.378-0.786-0.557-1.19
		c-0.111-0.253,0.003-0.548,0.255-0.66s0.548,0.002,0.66,0.255c0.173,0.392,0.353,0.775,0.538,1.151
		C87.785,63.807,87.684,64.106,87.437,64.229z M89.102,67.058c-0.084,0.054-0.178,0.079-0.27,0.079c-0.165,0-0.326-0.081-0.422-0.23
		c-0.235-0.365-0.464-0.74-0.686-1.121c-0.139-0.238-0.059-0.545,0.18-0.684c0.239-0.139,0.545-0.059,0.685,0.181
		c0.214,0.368,0.436,0.729,0.663,1.085C89.4,66.599,89.334,66.908,89.102,67.058z M91.057,69.693
		c-0.092,0.072-0.201,0.107-0.31,0.107c-0.147,0-0.294-0.065-0.393-0.19l-0.381-0.488c-0.14-0.182-0.279-0.365-0.416-0.552
		c-0.164-0.222-0.116-0.535,0.106-0.698c0.223-0.165,0.535-0.117,0.699,0.106c0.132,0.179,0.266,0.356,0.402,0.533l0.374,0.479
		C91.311,69.207,91.273,69.521,91.057,69.693z M93.19,72.187c-0.095,0.086-0.214,0.128-0.333,0.128
		c-0.137,0-0.273-0.057-0.373-0.166c-0.287-0.32-0.572-0.648-0.858-0.984c-0.179-0.21-0.153-0.525,0.057-0.705
		c0.21-0.179,0.526-0.153,0.705,0.058c0.28,0.329,0.561,0.651,0.842,0.964C93.414,71.686,93.396,72.002,93.19,72.187z
		 M93.357,58.695c0.092-0.201,0.329-0.29,0.53-0.198c0.373,0.17,0.764,0.351,1.176,0.543c0.2,0.093,0.286,0.331,0.193,0.531
		c-0.067,0.146-0.212,0.231-0.362,0.231c-0.057,0-0.115-0.012-0.17-0.038c-0.409-0.191-0.798-0.371-1.169-0.54
		C93.354,59.133,93.266,58.896,93.357,58.695z M95.503,74.516c-0.099,0.104-0.23,0.156-0.362,0.156
		c-0.124,0-0.248-0.045-0.345-0.138c-0.312-0.297-0.624-0.603-0.934-0.919c-0.194-0.196-0.191-0.513,0.006-0.707
		c0.196-0.193,0.513-0.191,0.707,0.006c0.302,0.309,0.605,0.606,0.91,0.896C95.686,74,95.693,74.316,95.503,74.516z M98.017,76.627
		c-0.099,0.125-0.245,0.191-0.394,0.191c-0.108,0-0.217-0.035-0.309-0.105c-0.341-0.268-0.68-0.543-1.018-0.83
		c-0.211-0.179-0.236-0.494-0.059-0.705c0.179-0.211,0.494-0.236,0.705-0.058c0.328,0.278,0.656,0.546,0.987,0.804
		C98.148,76.095,98.187,76.408,98.017,76.627z M98.107,61.182c-0.077,0.116-0.204,0.178-0.333,0.178
		c-0.077,0-0.153-0.022-0.222-0.067c-0.364-0.244-0.721-0.463-1.073-0.661c-0.192-0.108-0.261-0.352-0.153-0.544
		c0.108-0.193,0.352-0.263,0.545-0.153c0.371,0.208,0.744,0.438,1.126,0.693C98.181,60.75,98.23,60.999,98.107,61.182z
		 M100.789,78.378c-0.092,0.167-0.263,0.261-0.439,0.261c-0.081,0-0.163-0.02-0.239-0.061c-0.383-0.209-0.763-0.436-1.143-0.68
		c-0.232-0.15-0.299-0.459-0.149-0.691s0.459-0.298,0.691-0.149c0.357,0.231,0.718,0.445,1.079,0.642
		C100.831,77.832,100.921,78.135,100.789,78.378z M101.554,64.02c0.149-0.164,0.401-0.176,0.565-0.026l0.952,0.873
		c0.163,0.15,0.174,0.402,0.024,0.565c-0.078,0.087-0.187,0.13-0.295,0.13c-0.096,0-0.193-0.035-0.27-0.105l-0.951-0.872
		C101.416,64.436,101.404,64.183,101.554,64.02z M103.857,79.529c-0.063,0.22-0.264,0.362-0.48,0.362
		c-0.046,0-0.092-0.007-0.139-0.02c-0.427-0.123-0.849-0.266-1.268-0.429c-0.258-0.1-0.385-0.391-0.284-0.647
		c0.1-0.257,0.39-0.385,0.647-0.284c0.39,0.152,0.783,0.285,1.182,0.399C103.78,78.987,103.934,79.265,103.857,79.529z
		 M104.377,67.119l-0.367-0.322c-0.166-0.146-0.181-0.399-0.034-0.564c0.146-0.166,0.398-0.182,0.564-0.035l0.362,0.319
		c0.194,0.169,0.397,0.344,0.607,0.522c0.168,0.143,0.189,0.395,0.046,0.563c-0.079,0.093-0.191,0.142-0.305,0.142
		c-0.092,0-0.184-0.031-0.259-0.096C104.779,67.468,104.574,67.291,104.377,67.119z M106.608,80.5c-0.011,0-0.022,0-0.033,0
		c-0.441,0-0.884-0.104-1.323-0.165c-0.273-0.038-0.465-0.308-0.426-0.581c0.037-0.273,0.29-0.475,0.564-0.434
		c0.414,0.057,0.832,0.094,1.249,0.119c0.276,0.02,0.485,0.287,0.467,0.562C107.09,80.267,106.869,80.5,106.608,80.5z
		 M107.613,69.68c-0.365-0.255-0.718-0.514-1.057-0.771c-0.176-0.134-0.21-0.385-0.076-0.561c0.134-0.175,0.385-0.209,0.561-0.075
		c0.33,0.251,0.674,0.503,1.03,0.751c0.182,0.127,0.226,0.376,0.1,0.558c-0.078,0.111-0.202,0.171-0.328,0.171
		C107.764,69.752,107.684,69.729,107.613,69.68z M109.89,80.5c-0.001,0-0.002,0-0.003,0l-0.475-0.008h-0.816
		c-0.275,0-0.5-0.224-0.5-0.5s0.225-0.5,0.5-0.5l1.297,0.004c0.276,0.002,0.498,0.229,0.497,0.506
		C110.388,80.277,110.164,80.5,109.89,80.5z M111.009,71.219c-0.07,0.139-0.211,0.22-0.357,0.22c-0.061,0-0.122-0.014-0.18-0.042
		c-0.396-0.199-0.781-0.41-1.156-0.629c-0.19-0.111-0.256-0.355-0.145-0.547c0.11-0.19,0.355-0.255,0.547-0.145
		c0.361,0.211,0.732,0.414,1.113,0.605C111.029,70.781,111.108,71.021,111.009,71.219z M113.25,80.256
		c-0.425,0.078-0.86,0.135-1.332,0.174c-0.014,0.001-0.027,0.002-0.041,0.002c-0.258,0-0.477-0.198-0.498-0.459
		c-0.022-0.275,0.183-0.518,0.457-0.54c0.44-0.036,0.848-0.089,1.233-0.16c0.274-0.05,0.532,0.13,0.582,0.401
		S113.521,80.206,113.25,80.256z M114.082,72.354c-0.051,0.175-0.211,0.288-0.384,0.288c-0.037,0-0.075-0.006-0.112-0.017
		c-0.42-0.122-0.838-0.262-1.254-0.417c-0.207-0.077-0.312-0.308-0.234-0.515c0.077-0.207,0.309-0.312,0.514-0.234
		c0.398,0.148,0.798,0.28,1.199,0.398C114.022,71.92,114.145,72.143,114.082,72.354z M116.491,79.463
		c-0.417,0.126-0.84,0.243-1.267,0.353c-0.041,0.011-0.083,0.016-0.124,0.016c-0.223,0-0.426-0.149-0.483-0.376
		c-0.068-0.268,0.093-0.54,0.359-0.608c0.414-0.105,0.822-0.22,1.227-0.341c0.263-0.078,0.543,0.07,0.623,0.334
		C116.905,79.104,116.756,79.384,116.491,79.463z M116.917,73.244c-0.012,0-0.022,0-0.034-0.002
		c-0.439-0.035-0.877-0.091-1.314-0.164c-0.217-0.035-0.365-0.242-0.328-0.459c0.035-0.219,0.24-0.37,0.46-0.33
		c0.415,0.069,0.831,0.121,1.249,0.156c0.221,0.019,0.384,0.212,0.365,0.432C117.298,73.086,117.123,73.244,116.917,73.244z
		 M119.629,78.326c-0.4,0.172-0.809,0.336-1.222,0.491c-0.058,0.021-0.117,0.032-0.176,0.032c-0.202,0-0.393-0.124-0.468-0.324
		c-0.098-0.26,0.034-0.547,0.293-0.645c0.398-0.149,0.791-0.307,1.178-0.473c0.253-0.111,0.548,0.008,0.656,0.262
		C120,77.924,119.883,78.218,119.629,78.326z M120.223,73.207c-0.326,0.025-0.651,0.152-0.976,0.172l-0.329,0.121
		c-0.006,0-0.011,0-0.017,0c-0.213,0-0.391-0.273-0.399-0.488c-0.009-0.221,0.163-0.46,0.384-0.469L119.2,72.5
		c0.319-0.018,0.64-0.053,0.96-0.078c0.226-0.008,0.412,0.142,0.43,0.361C120.607,73.004,120.442,73.19,120.223,73.207z
		 M122.619,76.818c-0.362,0.219-0.747,0.434-1.158,0.646c-0.073,0.038-0.152,0.056-0.229,0.056c-0.181,0-0.355-0.098-0.444-0.27
		c-0.127-0.245-0.031-0.547,0.214-0.674c0.391-0.203,0.757-0.406,1.102-0.613c0.237-0.143,0.544-0.066,0.687,0.17
		S122.855,76.676,122.619,76.818z M125.317,74.706c-0.181,0.208-0.383,0.409-0.607,0.604c-0.131,0.115-0.265,0.227-0.402,0.338
		c-0.092,0.073-0.202,0.109-0.312,0.109c-0.146,0-0.292-0.064-0.391-0.188c-0.173-0.215-0.138-0.529,0.077-0.703
		c0.127-0.102,0.25-0.205,0.37-0.309c0.188-0.166,0.358-0.334,0.511-0.509c0.182-0.209,0.496-0.23,0.705-0.05
		C125.477,74.182,125.498,74.498,125.317,74.706z M126.484,72.141c-0.06,0.207-0.13,0.422-0.21,0.645
		c-0.06,0.162-0.213,0.264-0.376,0.264c-0.046,0-0.092-0.008-0.137-0.023c-0.198-0.072-0.306-0.285-0.249-0.484
		c-0.212,0.029-0.412-0.117-0.448-0.33c-0.037-0.218,0.109-0.424,0.327-0.461l0.636-0.112c0.135-0.026,0.275,0.022,0.368,0.124
		C126.488,71.865,126.521,72.008,126.484,72.141z"/>
</g>
</svg>
