<?xml version="1.0" encoding="utf-8"?>
<!-- Generator: Adobe Illustrator 16.0.4, SVG Export Plug-In . SVG Version: 6.00 Build 0)  -->
<!DOCTYPE svg PUBLIC "-//W3C//DTD SVG 1.1//EN" "http://www.w3.org/Graphics/SVG/1.1/DTD/svg11.dtd">
<svg version="1.1" id="Layer_4401" xmlns="http://www.w3.org/2000/svg" xmlns:xlink="http://www.w3.org/1999/xlink" x="0px" y="0px"
	 width="128px" height="128px" viewBox="0 0 128 128" enable-background="new 0 0 128 128" xml:space="preserve">
<g>
	<g id="ytwN71.tif">
		<g>
			<path fill-rule="evenodd" clip-rule="evenodd" d="M68.553,29.329c1.026-0.614,1.415-1.704,1.917-2.678
				c1.814-3.52,2.467-7.302,2.414-11.234c-0.006-0.427-0.232-1.001,0.201-1.249c0.432-0.247,0.828,0.206,1.188,0.45
				c2.682,1.818,4.299,4.382,5.113,7.467c1.249,4.737,0.717,9.454-0.217,14.167c-0.326,1.648-1.014,3.207-1.162,4.896
				c-0.039,0.008-0.101,0.004-0.115,0.03c-0.056,0.095-0.02,0.134,0.077,0.083c0.026-0.013,0.026-0.073,0.039-0.113
				c1.392-0.505,2.245-1.638,3.089-2.744c2.167-2.837,3.193-6.144,3.852-9.596c0.077-0.406-0.116-1.016,0.419-1.169
				c0.479-0.137,0.792,0.356,1.097,0.659c1.443,1.428,2.25,3.218,2.693,5.155c1.147,5.023,0.944,9.917-1.574,14.554
				c-0.211,0.388-0.493,0.763-0.438,1.249c-0.127,0.111-0.253,0.224-0.379,0.335l-0.065,0.042l0.038-0.07
				c0.127-0.111,0.254-0.221,0.381-0.332c1.361-1.333,2.627-2.769,4.183-3.894c1.618-1.17,3.354-2.048,5.39-2.183
				c0.332-0.022,0.758-0.099,0.965,0.164c0.318,0.405-0.128,0.711-0.322,1.017c-3.431,5.398-4.967,11.381-5.477,17.681
				c-0.031,0.392-0.024,0.786-0.041,1.179c-0.035,0.797,0.317,0.866,0.905,0.483c1.114-0.726,1.886-1.74,2.501-2.902
				c1.053-1.988,1.318-4.156,1.529-6.344c0.041-0.433-0.172-1.068,0.252-1.242c0.513-0.209,0.885,0.378,1.239,0.707
				c2.827,2.624,3.716,5.924,3.27,9.651c-0.43,3.592-1.88,6.809-3.781,9.83c-2.978,4.73-6.794,8.641-11.562,11.592
				c-1.636,1.014-3.375,1.781-5.255,2.213c-0.432,0.098-0.968,0.424-1.272,0.066c-0.358-0.418,0.206-0.779,0.426-1.119
				c0.892-1.387,1.503-2.891,1.913-4.473c0.821-3.162,0.344-6.145-1.453-8.871c-0.957-1.453-2.034-2.826-3.045-4.244
				c-1.241-1.744-2.473-3.498-2.613-5.745c-0.051-0.804-0.486-0.742-1.034-0.483c-1.243,0.587-2.02,1.57-2.465,2.85
				c-0.125,0.359-0.11,0.949-0.524,0.971c-0.504,0.023-0.562-0.604-0.734-0.98c-1.406-3.056-1.875-6.336-2.269-9.633
				c-0.239-2.007-0.423-4.025-1.035-5.966c-0.524-1.662-1.405-3.058-3.015-3.884c-0.62-0.318-0.902-0.203-0.911,0.561
				c-0.043,3.431-1.461,6.424-3.062,9.347c-1.079,1.97-2.198,3.918-3.303,5.875c-0.158,0.279-0.257,0.709-0.633,0.658
				c-0.178-0.024-0.337-0.413-0.447-0.663c-0.472-1.064-1.179-1.896-2.24-2.417c-0.627-0.309-1.046-0.371-1.083,0.544
				c-0.089,2.159-1.079,3.988-2.224,5.743c-1.044,1.6-2.136,3.166-3.19,4.76c-3.331,5.029-2.85,10.186-0.507,15.408
				c0.24,0.537,0.951,1.143,0.564,1.619c-0.381,0.471-1.153-0.029-1.718-0.193c-1.454-0.422-2.916-0.85-4.317-1.416
				c-8.603-3.484-12.954-10.199-14.318-19.1c-0.892-5.812,0.175-11.294,3.042-16.423c0.58-1.036,1.283-1.981,2.216-2.733
				c0.255-0.205,0.539-0.462,0.902-0.314c0.409,0.164,0.282,0.566,0.279,0.877c-0.021,1.854-0.055,3.707,0.363,5.535
				c0.34,1.489,0.81,2.921,1.679,4.195c0.153,0.224,0.303,0.564,0.601,0.492c0.344-0.082,0.232-0.469,0.235-0.726
				c0.029-2.421,0.238-4.82,0.71-7.2c0.406-2.051,1.048-4.006,1.979-5.885c3.095-6.244,2.396-11.214-2.251-16.421
				c-0.823-0.923-0.761-1.167,0.518-1.435c2.621-0.551,5.015,0.018,7.18,1.584c2.033,1.472,3.604,3.364,4.971,5.447
				c0.196,0.3,0.245,0.737,0.686,0.845c-0.054-0.327-0.096-0.654-0.162-0.978c-1.549-7.539-0.642-14.762,2.878-21.611
				c2.9-5.646,7.307-9.462,13.629-10.835c0.273-0.06,0.551-0.155,0.826-0.15c0.413,0.005,0.984-0.387,1.197,0.125
				c0.136,0.327-0.459,0.546-0.717,0.819c-1.761,1.858-2.396,4.166-2.572,6.617c-0.282,3.936,0.378,7.741,1.967,11.345
				c1.381,3.13,2.312,6.323,2.021,9.784l-0.082,0.074L68.553,29.329z"/>
		</g>
	</g>
	<g id="trXPgy.tif">
		<g>
			<path fill-rule="evenodd" clip-rule="evenodd" d="M40.303,109.864c-0.841,0.314-1.579,0.82-2.36,1.244
				c-2.251,1.223-4.495,2.459-6.731,3.707c-0.328,0.184-0.646,0.242-1,0.184c-1.957-0.32-3.939-0.381-5.909-0.562
				c-2.049-0.189-4.101-0.337-6.15-0.51c-0.708-0.061-0.765-0.129-0.834-0.828c-0.291-2.914-0.59-5.828-0.865-8.744
				c-0.066-0.705,0.212-1.371,0.372-2.045c0.053-0.22,0.316-0.273,0.497-0.379c2.554-1.48,5.191-2.8,7.861-4.055
				c6.062-2.848,12.263-5.367,18.487-7.827c3.41-1.348,6.834-2.657,10.252-3.982c0.542-0.21,1.071-0.448,1.631-0.618
				c1.37-0.416,2.747-0.475,4.139-0.146c0.245,0.057,0.421,0.068,0.609-0.158c1.616-1.926,3.758-2.428,6.141-2.188
				c1.35,0.136,2.618,0.553,3.74,1.342c0.893,0.627,1.524,1.424,1.636,2.561c0.034,0.346,0.156,0.684,0.19,1.029
				c0.043,0.441,0.253,0.671,0.683,0.805c1.999,0.621,3.987,1.277,5.982,1.914c8.719,2.776,17.505,5.348,26.135,8.4
				c1.902,0.672,3.78,1.413,5.678,2.099c0.412,0.149,0.583,0.404,0.71,0.81c0.343,1.092,0.412,2.189,0.332,3.326
				c-0.149,2.109-0.239,4.225-0.354,6.337c-0.039,0.728-0.082,0.759-0.793,0.859c-2.555,0.362-5.107,0.724-7.658,1.111
				c-0.577,0.088-1.116,0.038-1.656-0.156c-3.01-1.087-6.021-2.173-9.031-3.259c-0.072-0.025-0.146-0.051-0.219-0.079
				c-0.05-0.019-0.107-0.048-0.136,0.019c-0.009,0.021,0.03,0.068,0.056,0.096c0.082,0.084,0.167,0.163,0.25,0.244
				c1.952,1.895,3.812,3.877,5.706,5.828c0.407,0.42,0.548,0.814,0.282,1.338c-0.043,0.086-0.066,0.183-0.089,0.276
				c-0.143,0.583-0.454,1.005-0.948,1.392c-2.887,2.265-5.741,4.571-8.596,6.877c-0.284,0.229-0.541,0.354-0.891,0.204
				c-0.052-0.022-0.114-0.021-0.172-0.026c-0.699-0.074-1.17-0.449-1.602-1.006c-2.76-3.559-5.555-7.09-8.337-10.63
				c-0.06-0.076-0.122-0.151-0.183-0.228c-0.047-0.06-0.098-0.173-0.162-0.143c-0.107,0.05-0.026,0.16-0.011,0.243
				c0.224,1.221,0.429,2.445,0.683,3.66c0.166,0.794,0.5,1.544,0.589,2.365c0.116,1.068-0.033,2.083-0.431,3.074
				c-0.113,0.284-0.287,0.419-0.604,0.446c-1.778,0.15-3.555,0.317-5.332,0.484c-1.816,0.17-3.633,0.335-5.447,0.526
				c-1.126,0.119-1.52-0.173-1.672-1.279c-0.459-3.324-0.928-6.646-1.391-9.97c-0.392-2.805-0.779-5.609-1.169-8.415
				c-0.019-0.134-0.029-0.271-0.063-0.401c-0.031-0.119-0.112-0.156-0.196-0.04c-0.079,0.11-0.145,0.229-0.213,0.347
				c-3.633,6.193-7.277,12.381-10.883,18.59c-0.484,0.835-1.272,1.148-2.044,1.418c-2.675,0.932-5.396,1.704-8.218,2.08
				c-1.593,0.212-2.864-0.27-3.84-1.544c-1.43-1.868-2.391-3.937-2.719-6.282c-0.036-0.26,0.082-0.45,0.188-0.653
				c0.929-1.799,2.068-3.465,3.235-5.112c0.863-1.22,1.754-2.421,2.631-3.631c0.079-0.108,0.183-0.203,0.205-0.346
				c0.057-0.018,0.066-0.032,0.026-0.041C40.318,109.815,40.309,109.847,40.303,109.864z M43.098,109.739
				c0.057-0.021,0.105-0.051,0.112-0.119c0.186-0.018,0.315-0.146,0.458-0.242c1.179-0.787,2.392-1.518,3.642-2.184
				c1.629-0.866,3.289-1.655,5.135-1.969c1.734-0.294,3.275,0.527,3.961,2.146c0.23,0.542,0.341,1.108,0.359,1.697
				c0.004,0.135-0.09,0.347,0.081,0.394c0.096,0.026,0.15-0.197,0.228-0.306c0.033-0.048,0.062-0.099,0.092-0.148
				c1.405-2.392,2.804-4.787,4.225-7.169c0.206-0.346,0.25-0.675,0.195-1.052c-0.191-1.323-0.373-2.648-0.562-3.973
				c-0.012-0.081,0.046-0.231-0.096-0.226c-0.112,0.004-0.088,0.15-0.113,0.236c-0.385,1.305-1.127,2.369-2.148,3.257
				c-1.047,0.909-2.214,1.64-3.418,2.309c-2.806,1.56-5.789,2.721-8.794,3.823c-0.668,0.244-1.195,0.573-1.587,1.171
				c-0.508,0.776-1.205,1.417-1.647,2.244C43.147,109.633,43.116,109.68,43.098,109.739z M35.638,109.507
				c0.037-0.08,0.074-0.159,0.111-0.239c0.675-0.646,1.195-1.419,1.734-2.173c0.893-1.248,1.753-2.521,2.248-3.993
				c0.501-1.486,0.102-2.184-1.425-2.546c-1.695-0.403-3.426-0.45-5.15-0.422c-2.406,0.038-4.806,0.238-7.206,0.421
				c-1.528,0.117-2.918,0.512-4.178,1.377l-0.02,0.017l0.017-0.018c1.823-0.246,3.638-0.55,5.468-0.754
				c2.298-0.256,4.595-0.424,6.904-0.301c0.85,0.045,1.693,0.178,2.481,0.549c0.522,0.246,0.811,0.647,0.898,1.2
				c0.049,0.306,0.072,0.612,0.053,0.926c-0.081,1.257-0.471,2.431-0.928,3.586c-0.284,0.718-0.592,1.427-0.889,2.14
				c-0.119,0.036-0.084,0.15-0.117,0.23l-0.022,0.018L35.638,109.507z M46.942,104.841c0.112-0.027,0.229-0.044,0.336-0.085
				c2.214-0.843,4.414-1.721,6.518-2.812c1.568-0.813,3.104-1.691,4.407-2.913c0.707-0.664,1.251-1.436,1.517-2.375
				c0.411-1.452,0.514-2.941,0.463-4.441c-0.008-0.225,0.097-0.576-0.263-0.615c-0.36-0.04-0.313,0.327-0.385,0.541
				c-0.704,2.133-1.624,4.16-2.978,5.964c-1.552,2.067-3.54,3.438-6.205,3.511c-0.807,0.021-1.28,0.358-1.697,0.967
				c-0.535,0.78-1.229,1.443-1.705,2.269l-0.038,0.021L46.942,104.841z M82.845,118.244l-0.008,0.007
				c-0.165-0.635-0.32-1.271-0.434-1.919c-0.297-1.718-0.208-3.382,0.5-5.009c0.744-1.71,1.929-2.68,3.867-2.537
				c0.073,0.005,0.198,0.01,0.214-0.024c0.054-0.116-0.073-0.161-0.141-0.218c-1.152-0.98-2.31-1.955-3.458-2.939
				c-0.163-0.141-0.335-0.173-0.533-0.176c-1.086-0.02-1.818,0.595-2.416,1.396c-0.856,1.147-0.938,2.476-0.796,3.836
				c0.218,2.096,0.969,4.022,1.915,5.88C81.88,117.18,82.39,117.694,82.845,118.244z M34.714,95.991
				c0.829-0.097,1.658-0.189,2.486-0.291c1.642-0.199,3.291-0.254,4.94-0.172c0.792,0.04,1.584,0.16,2.34,0.43
				c1.314,0.469,1.918,1.338,1.904,2.734c-0.007,0.629-0.142,1.233-0.341,1.824c-0.598,1.765-1.578,3.322-2.63,4.843
				c-0.103,0.147-0.297,0.252-0.276,0.474c0.203-0.064,0.386-0.168,0.534-0.32c0.108-0.11,0.202-0.234,0.298-0.356
				c0.385-0.487,0.765-0.979,1.15-1.466c2.67-3.381,5.37-6.737,8.089-10.08c0.062-0.076,0.181-0.144,0.137-0.279
				c-0.088,0.033-0.18,0.059-0.264,0.102c-1.435,0.732-2.93,1.183-4.566,1.201c-3.107,0.037-6.21-0.006-9.31-0.236
				c-0.249-0.019-0.532-0.07-0.749,0.018c-1.253,0.507-2.535,0.947-3.734,1.582C34.72,95.995,34.717,95.993,34.714,95.991z
				 M79.112,113.467l-0.008,0.007c0.01-0.198-0.057-0.381-0.104-0.569c-0.367-1.475-0.649-2.958-0.367-4.484
				c0.322-1.75,1.239-3.069,2.854-3.864c0.416-0.204,0.423-0.191,0.067-0.488c-1.714-1.429-3.426-2.858-5.141-4.285
				c-0.715-0.596-1.434-1.188-2.152-1.779c-0.101-0.083-0.215-0.249-0.334-0.167c-0.108,0.073-0.016,0.251,0.011,0.383
				c0.089,0.456,0.175,0.913,0.259,1.37c0.525,2.841,1.084,5.676,1.558,8.524c0.185,1.109,0.58,2.047,1.344,2.876
				C77.819,111.771,78.373,112.696,79.112,113.467z M67.931,114.987c0.354-0.197,0.695-0.43,1.067-0.589
				c1.868-0.799,3.7-0.713,5.482,0.279c0.111,0.062,0.233,0.199,0.358,0.112c0.095-0.065,0.026-0.217,0.005-0.329
				c-0.636-3.394-1.275-6.786-1.899-10.183c-0.076-0.413-0.322-0.648-0.652-0.831c-0.815-0.452-1.625-0.288-2.353,0.485
				c-0.793,0.844-1.226,1.881-1.526,2.975c-0.57,2.082-0.645,4.215-0.591,6.356c0.015,0.577-0.065,1.165,0.116,1.733L67.931,114.987
				z M37.503,108.921c0.649-0.263,1.217-0.683,1.853-0.965c0.878-0.39,1.55-1.003,2.103-1.774c0.43-0.6,0.896-1.171,1.321-1.774
				c0.86-1.223,1.666-2.479,2.197-3.889c0.144-0.381,0.267-0.766,0.327-1.172c0.224-1.523-0.369-2.355-1.893-2.643
				c-1.229-0.23-2.466-0.25-3.711-0.182c-2.151,0.121-4.275,0.455-6.403,0.777c-2.085,0.316-4.087,0.866-5.947,1.876
				c-0.063,0.034-0.171,0.099-0.165,0.131c0.019,0.097,0.119,0.048,0.185,0.046c0.291-0.009,0.582-0.02,0.872-0.043
				c2.847-0.229,5.695-0.344,8.545-0.07c1.001,0.096,2.002,0.244,2.927,0.691c0.75,0.363,1.145,0.96,1.182,1.792
				c0.015,0.33-0.008,0.656-0.078,0.983c-0.305,1.407-1.004,2.635-1.732,3.854c-0.487,0.814-1.116,1.535-1.572,2.37l-0.025,0.01
				L37.503,108.921z M32.811,101.722c-1.357,0.036-2.941,0.174-4.521,0.357c-1.811,0.21-3.614,0.469-5.408,0.787
				c-0.076,0.014-0.151,0.031-0.227,0.047c0.037,0.109,0.145,0.117,0.23,0.145c0.685,0.219,1.346,0.496,1.992,0.811
				c1.937,0.942,3.588,2.221,4.79,4.037c0.829,1.253,1.32,2.632,1.533,4.106c0.055,0.377,0.15,0.359,0.417,0.202
				c0.434-0.256,0.877-0.498,1.326-0.727c0.324-0.166,0.545-0.404,0.726-0.721c0.626-1.096,1.211-2.212,1.718-3.367
				c0.516-1.173,0.966-2.364,1.119-3.655c0.129-1.079-0.163-1.555-1.21-1.808C34.556,101.757,33.801,101.732,32.811,101.722z
				 M52.391,116.339c-0.036-0.308-0.056-0.619-0.11-0.923c-0.275-1.518-1.53-3.182-3.625-2.978
				c-0.464,0.045-0.925,0.098-1.379,0.195c-2.91,0.625-5.579,1.85-8.188,3.244c-0.696,0.372-1.21,0.881-1.562,1.572
				c-0.043,0.086-0.141,0.205-0.114,0.254c0.069,0.124,0.199,0.035,0.305,0.014c1.979-0.406,3.966-0.466,5.949-0.062
				c2.396,0.488,4.465,1.534,5.877,3.625c0.197,0.291,0.301,0.195,0.438-0.039c0.654-1.122,1.3-2.251,1.982-3.355
				C52.265,117.401,52.378,116.894,52.391,116.339z M67.897,88.562c0.037-1.07-0.021-1.941-0.092-2.812
				c-0.023-0.289-0.137-0.402-0.396-0.476c-1.025-0.288-2.063-0.381-3.11-0.181c-0.729,0.141-1.401,0.435-1.977,0.934
				c-0.445,0.388-0.693,0.81-0.495,1.426c0.088,0.271,0.083,0.574,0.123,0.861c0.288,2.074,0.575,4.148,0.865,6.223
				c0.344,2.457,0.688,4.914,1.034,7.371c0.011,0.076,0.03,0.15,0.046,0.227c0.079-0.046,0.07-0.129,0.086-0.201
				c0.123-0.569,0.241-1.139,0.366-1.706c0.472-2.135,1.282-4.151,2.242-6.101C67.49,92.298,68.107,90.432,67.897,88.562z
				 M55.691,109.506c0-0.077-0.001-0.155,0-0.232c0.021-1.796-1.17-3.551-3.695-2.925c-0.889,0.221-1.74,0.532-2.566,0.919
				c-2.666,1.248-5.077,2.909-7.482,4.583c-0.812,0.565-1.48,1.243-2,2.076c-0.055,0.089-0.19,0.162-0.105,0.283
				c0.017,0.023,0.173-0.033,0.255-0.075c0.967-0.493,1.959-0.932,2.973-1.319c1.76-0.673,3.545-1.256,5.44-1.401
				c1.094-0.084,2.123,0.079,3.019,0.779c0.906,0.708,1.495,1.612,1.753,2.734c0.028,0.124,0.023,0.33,0.138,0.344
				c0.124,0.015,0.176-0.185,0.243-0.297c0.335-0.567,0.633-1.16,0.998-1.708C55.425,112.122,55.615,110.833,55.691,109.506z
				 M100.329,100.693c0.834,0,1.669,0,2.503-0.002c0.083,0,0.221,0.084,0.235-0.042c0.011-0.102-0.146-0.092-0.233-0.121
				c-1.302-0.445-2.601-0.902-3.907-1.332c-6.242-2.053-12.526-3.975-18.801-5.929c-0.253-0.079-0.641-0.325-0.738-0.186
				c-0.174,0.249,0.094,0.569,0.221,0.841c0.576,1.224,1.566,2.058,2.668,2.775c2.096,1.369,4.434,2.122,6.854,2.645
				C92.819,100.141,96.567,100.452,100.329,100.693z M86.648,109.881c-0.935,0.001-1.621,0.286-2.169,0.912
				c-0.793,0.908-1.094,2.007-1.158,3.162c-0.067,1.222,0.082,2.425,0.439,3.615c0.476,1.579,1.233,3.009,2.07,4.408
				c0.035,0.058,0.065,0.169,0.153,0.121c0.047-0.025,0.062-0.135,0.067-0.208c0.021-0.349,0.021-0.698,0.051-1.047
				c0.111-1.36,0.335-2.684,0.982-3.921c0.601-1.146,1.562-1.656,2.781-1.853c1.193-0.191,2.358-0.007,3.527,0.176
				c0.133,0.021,0.322,0.125,0.383,0.027c0.072-0.119-0.117-0.215-0.205-0.306c-1.244-1.283-2.479-2.576-3.803-3.774
				C88.864,110.378,87.733,110.021,86.648,109.881z M101.397,103.159c-0.097-0.152-0.243-0.064-0.359-0.062
				c-3.845,0.066-7.684,0.062-11.498-0.553c-2.463-0.398-4.877-0.956-7.145-2.011c-3.871-1.801-6.729-4.614-8.321-8.614
				c-0.226-0.568-0.554-0.83-1.097-0.949c-0.372-0.082-0.406-0.066-0.335,0.314c0.163,0.878,0.359,1.749,0.496,2.629
				c0.062,0.4,0.253,0.663,0.55,0.91c3.809,3.161,7.613,6.326,11.41,9.501c0.275,0.229,0.541,0.325,0.898,0.284
				c1.818-0.211,3.647-0.182,5.469-0.092c2.754,0.135,5.479,0.54,8.172,1.138c0.359,0.08,0.527,0.043,0.635-0.326
				c0.213-0.73,0.547-1.408,1.01-2.019C101.317,103.263,101.353,103.218,101.397,103.159z M45.333,93.604
				c0.87,0,1.531,0.028,2.19-0.006c1.275-0.067,2.561-0.046,3.782-0.546c1.173-0.481,2.276-1.083,3.354-1.741
				c0.533-0.325,1.029-0.695,1.362-1.244c0.153-0.253,0.405-0.339,0.679-0.4c0.936-0.214,1.884-0.263,2.836-0.211
				c0.389,0.021,0.479-0.109,0.405-0.465c-0.072-0.341-0.141-0.688-0.153-1.035c-0.015-0.388-0.211-0.526-0.557-0.613
				c-1.318-0.327-2.572-0.122-3.812,0.366c-2.707,1.065-5.422,2.113-8.131,3.175c-1.968,0.771-3.933,1.553-5.898,2.331
				c-0.086,0.033-0.231,0.053-0.22,0.149c0.011,0.102,0.156,0.069,0.241,0.073C42.788,93.498,44.165,93.555,45.333,93.604z
				 M66.212,112.433c0,1.028-0.002,2.057,0,3.085c0.001,0.311,0.006,0.621,0.017,0.931c0.003,0.089-0.046,0.218,0.081,0.248
				c0.079,0.02,0.103-0.097,0.154-0.148c0.326-0.321,0.457-0.702,0.379-1.159c-0.096-0.557-0.095-1.12-0.107-1.683
				c-0.053-2.469,0.006-4.927,0.702-7.322c0.379-1.304,0.963-2.495,1.944-3.46c0.809-0.797,1.74-1.149,2.859-0.741
				c0.309,0.111,0.321,0.002,0.271-0.26c-0.312-1.657-0.611-3.315-0.923-4.973c-0.117-0.625-0.694-0.949-1.307-0.75
				c-0.321,0.104-0.587,0.293-0.819,0.534c-0.396,0.411-0.676,0.897-0.936,1.397c-0.675,1.302-1.081,2.696-1.382,4.122
				C66.438,105.61,66.269,109.017,66.212,112.433z M89.989,105.59c-0.971,0-1.941-0.001-2.912,0.002
				c-0.09,0.001-0.216-0.036-0.262,0.067c-0.047,0.111,0.074,0.16,0.143,0.22c0.293,0.262,0.624,0.446,0.998,0.579
				c2.046,0.727,4.087,1.467,6.131,2.201c1.787,0.644,3.576,1.287,5.364,1.93c0.498,0.18,0.497,0.18,0.412-0.312
				c-0.177-1.02-0.231-2.042-0.05-3.066c0.056-0.318-0.041-0.432-0.367-0.502C96.327,106.046,93.181,105.618,89.989,105.59z
				 M68.949,88.126c0.188,2.135-0.188,4.063-1.116,5.9c-1.507,2.982-2.584,6.108-2.983,9.442c-0.185,1.54-0.436,3.077-0.155,4.637
				c0.142,0.782,0.223,1.575,0.333,2.362c0.012,0.085-0.025,0.239,0.062,0.235c0.088-0.003,0.071-0.161,0.076-0.254
				c0.075-1.435,0.137-2.868,0.293-4.298c0.229-2.086,0.528-4.157,1.162-6.164c0.481-1.524,1.088-2.994,2.145-4.229
				c0.542-0.631,1.203-1.049,2.082-0.941c0.271,0.032,0.354-0.027,0.288-0.303c-0.081-0.338-0.138-0.683-0.201-1.025
				c-0.401-2.154-0.802-4.309-1.2-6.464c-0.066-0.362-0.233-0.653-0.537-0.864c-0.062-0.043-0.119-0.123-0.201-0.074
				c-0.078,0.045-0.047,0.135-0.047,0.209C68.95,86.937,68.949,87.578,68.949,88.126z M98.448,102.036c1.438,0,2.699-0.002,3.962,0
				c0.177,0.001,0.47,0.008,0.459-0.129c-0.017-0.215-0.296-0.147-0.474-0.155c-1.24-0.054-2.481-0.063-3.723-0.134
				c-3.064-0.174-6.109-0.494-9.121-1.084c-2.736-0.535-5.383-1.333-7.752-2.866c-1.775-1.148-3.234-2.552-3.612-4.761
				c-0.042-0.245-0.189-0.312-0.378-0.373c-0.738-0.238-1.474-0.48-2.215-0.711c-0.119-0.036-0.275-0.151-0.374-0.041
				c-0.103,0.115,0.036,0.252,0.09,0.365c1.437,3.055,3.664,5.358,6.631,6.951c2.177,1.169,4.53,1.802,6.944,2.237
				C92.106,101.917,95.356,102.093,98.448,102.036z M50.822,100.526c0.113-0.018,0.267-0.035,0.418-0.065
				c1.781-0.354,3.142-1.36,4.249-2.749c1.298-1.627,2.165-3.482,2.851-5.432c0.078-0.221,0.268-0.446,0.133-0.691
				c-0.067-0.123-0.893-0.016-1.051,0.133c-0.155,0.145-0.287,0.315-0.42,0.481c-0.775,0.968-1.547,1.94-2.324,2.907
				c-1.35,1.677-2.703,3.349-4.052,5.026c-0.081,0.101-0.235,0.204-0.169,0.343C50.509,100.587,50.67,100.508,50.822,100.526z"/>
		</g>
	</g>
</g>
</svg>
