<?xml version="1.0" encoding="utf-8"?>
<!-- Generator: Adobe Illustrator 16.0.4, SVG Export Plug-In . SVG Version: 6.00 Build 0)  -->
<!DOCTYPE svg PUBLIC "-//W3C//DTD SVG 1.1//EN" "http://www.w3.org/Graphics/SVG/1.1/DTD/svg11.dtd">
<svg version="1.1" id="Layer_4404" xmlns="http://www.w3.org/2000/svg" xmlns:xlink="http://www.w3.org/1999/xlink" x="0px" y="0px"
	 width="128px" height="128px" viewBox="0 0 128 128" enable-background="new 0 0 128 128" xml:space="preserve">
<g id="_x35_rraPB.tif">
	<g>
		<path d="M0.879,41.697c0-4.2,0-8.399,0-12.598c0.054-0.005,0.107-0.013,0.161-0.013c1.87-0.001,3.741,0.002,5.612-0.003
			c0.584-0.002,0.572,0.117,0.573-0.551c0-1.79,0.003-3.58-0.004-5.37c-0.001-0.254,0.058-0.461,0.22-0.664
			c1.958-2.448,3.91-4.902,5.865-7.354c0.238-0.298,0.245-0.299,0.482,0c1.962,2.462,3.922,4.927,5.888,7.387
			c0.144,0.18,0.199,0.361,0.199,0.588c-0.007,1.857-0.004,3.715-0.003,5.572c0,0.39,0.003,0.393,0.398,0.393
			c3.917,0,7.833,0,11.75,0c0.42,0,0.423-0.002,0.423-0.41c0.001-1.83,0.005-3.661-0.004-5.491c-0.001-0.271,0.069-0.482,0.24-0.696
			c1.942-2.427,3.876-4.861,5.812-7.293c0.042-0.053,0.086-0.103,0.126-0.158c0.101-0.138,0.199-0.172,0.308-0.007
			c0.044,0.066,0.1,0.127,0.149,0.19c1.92,2.411,3.836,4.823,5.764,7.228c0.189,0.236,0.262,0.474,0.26,0.772
			c-0.01,1.803-0.005,3.607-0.004,5.411c0,0.452,0.004,0.454,0.432,0.454c3.903,0,7.807,0,11.71,0c0.394,0,0.396-0.003,0.396-0.395
			c0.001-1.831,0.007-3.661-0.006-5.491c-0.002-0.304,0.087-0.534,0.274-0.766c1.556-1.925,3.104-3.858,4.653-5.79
			c0.43-0.535,0.862-1.068,1.287-1.607c0.108-0.137,0.195-0.173,0.306-0.013c0.038,0.055,0.085,0.104,0.127,0.157
			c1.944,2.443,3.886,4.887,5.836,7.325c0.161,0.202,0.233,0.402,0.231,0.66c-0.008,1.817-0.004,3.634-0.004,5.451
			c0,0.466,0.002,0.467,0.449,0.467c3.89,0,7.779,0,11.669,0c0.442,0,0.445-0.001,0.445-0.433c0.001-1.804,0.007-3.607-0.005-5.411
			c-0.003-0.313,0.074-0.561,0.271-0.808c1.929-2.404,3.847-4.816,5.768-7.226c0.059-0.073,0.121-0.145,0.18-0.218
			c0.076-0.098,0.151-0.097,0.228,0c0.05,0.063,0.104,0.124,0.153,0.187c1.937,2.432,3.871,4.865,5.812,7.292
			c0.17,0.212,0.245,0.422,0.244,0.695c-0.01,1.831-0.006,3.661-0.005,5.492c0,0.428,0.001,0.429,0.442,0.429
			c3.904,0,7.807,0,11.71,0c0.414,0,0.416-0.002,0.416-0.418c0.001-1.817,0.007-3.634-0.005-5.451
			c-0.002-0.302,0.086-0.532,0.273-0.767c1.935-2.416,3.859-4.839,5.787-7.261c0.051-0.063,0.104-0.123,0.153-0.188
			c0.086-0.112,0.167-0.118,0.253,0c0.048,0.065,0.101,0.126,0.15,0.19c1.938,2.431,3.873,4.863,5.816,7.289
			c0.181,0.225,0.255,0.45,0.254,0.735c-0.01,1.817-0.006,3.634-0.004,5.451c0,0.416,0.005,0.417,0.425,0.418
			c1.817,0.001,3.634,0,5.451,0c0.449,0,0.452,0.002,0.452,0.426c0,3.917,0,7.833,0,11.75c0,0.441-0.003,0.444-0.44,0.444
			c-1.749,0.001-3.499-0.003-5.249,0.002c-0.699,0.002-0.639-0.112-0.639,0.65c-0.002,12.705-0.001,25.411-0.001,38.116
			c0,3.352-0.001,6.703,0,10.054c0,0.481,0.003,0.482,0.491,0.483c1.805,0,3.607-0.001,5.411,0c0.423,0,0.427,0.003,0.427,0.412
			c0,3.943,0,7.887,0,11.831c0,0.396-0.004,0.399-0.395,0.399c-1.804,0.002-3.607,0.001-5.41,0.001
			c-0.107,0-0.216,0.005-0.323,0.002c-0.138-0.004-0.193,0.069-0.196,0.196c-0.002,0.135-0.005,0.27-0.005,0.404
			c0,2.759,0,5.518-0.001,8.277c0,0.186,0.031,0.378-0.069,0.553c-4.173,0-8.345,0-12.517,0c-0.137-0.148-0.088-0.332-0.088-0.502
			c-0.003-2.84-0.002-5.679-0.003-8.518c0-0.41-0.003-0.412-0.421-0.412c-3.902-0.001-7.805-0.002-11.707,0
			c-0.473,0-0.44-0.043-0.44,0.43c-0.001,2.812,0,5.625-0.001,8.438c0,0.188-0.013,0.377-0.02,0.564c-4.199,0-8.398,0-12.598,0
			c-0.01-0.188-0.027-0.375-0.027-0.562c-0.001-2.785,0-5.569-0.001-8.354c0-0.107-0.003-0.215-0.003-0.322
			c0-0.133-0.061-0.197-0.196-0.193c-0.081,0.004-0.161-0.001-0.242-0.001c-3.888,0-7.774,0-11.661,0
			c-0.081,0-0.162,0.005-0.242,0.001c-0.154-0.01-0.223,0.061-0.218,0.213c0.004,0.107-0.001,0.215-0.001,0.322
			c0,2.798,0.001,5.596-0.002,8.393c0,0.172,0.045,0.354-0.085,0.504c-4.199,0-8.399,0-12.598,0
			c-0.006-0.188-0.019-0.376-0.019-0.564c-0.001-2.823,0-5.647-0.001-8.471c0-0.394-0.003-0.396-0.394-0.396
			c-0.82-0.002-1.641-0.001-2.461-0.001c-3.093,0-6.186,0-9.278,0.001c-0.397,0-0.397,0.003-0.405,0.398
			c-0.002,0.095-0.001,0.188-0.001,0.283c0,2.729,0,5.459,0,8.189c0,0.188,0.017,0.377-0.039,0.561c-4.172,0-8.345,0-12.517,0
			c-0.142-0.146-0.09-0.331-0.09-0.5c-0.002-2.84-0.001-5.68-0.002-8.52c0-0.41-0.003-0.412-0.42-0.412
			c-3.903-0.001-7.806-0.002-11.709,0c-0.473,0-0.442-0.047-0.442,0.428c-0.001,2.813,0,5.627-0.001,8.439
			c0,0.188-0.01,0.376-0.015,0.564c-4.199,0-8.398,0-12.598,0c-0.047-0.186-0.033-0.373-0.033-0.561c0-2.766,0-5.531,0-8.297
			c0-0.108-0.005-0.216,0-0.322c0.008-0.188-0.073-0.26-0.265-0.256c-0.483,0.011-0.967,0.004-1.45,0.003
			c-1.543-0.005-3.087-0.011-4.631-0.017c0-4.198,0-8.398,0-12.598c0.509-0.065,1.021-0.025,1.531-0.027
			c1.48-0.007,2.959-0.001,4.44-0.004c0.356,0,0.365-0.014,0.375-0.356c0.002-0.067,0-0.134,0-0.201c0-16.064,0-32.128,0-48.192
			c0-0.108-0.003-0.215-0.001-0.323c0.002-0.172-0.083-0.241-0.25-0.231c-0.107,0.007-0.215,0-0.323,0
			C4.727,41.702,2.803,41.699,0.879,41.697z M82.904,66.371c0-8.02,0-16.04,0-24.06c0-0.135-0.004-0.27-0.002-0.404
			c0.003-0.132-0.054-0.201-0.189-0.2c-0.108,0.001-0.216-0.003-0.323-0.003c-3.862,0-7.724,0-11.586,0
			c-0.081,0-0.162,0.007-0.242,0c-0.205-0.017-0.304,0.065-0.284,0.277c0.006,0.081,0,0.162,0,0.242c0,16.081,0,32.16,0,48.24
			c0,0.095,0.005,0.189,0,0.283c-0.008,0.166,0.066,0.253,0.235,0.254c0.121,0,0.242,0.002,0.363,0.002c3.728,0,7.454,0,11.183,0
			c0.174,0,0.35-0.008,0.524,0.002c0.242,0.014,0.349-0.085,0.322-0.331c-0.011-0.106-0.001-0.215-0.001-0.323
			C82.904,82.357,82.904,74.364,82.904,66.371z M32.442,66.328c0-8.009,0-16.017,0-24.025c0-0.135-0.005-0.27-0.001-0.403
			c0.003-0.139-0.065-0.194-0.196-0.192c-0.108,0.001-0.216-0.003-0.323-0.003c-3.836,0-7.672-0.001-11.508,0.002
			c-0.578,0-0.574-0.103-0.574,0.558c0,16.057,0,32.114,0,48.172c0,0.107,0.006,0.215,0.003,0.322
			c-0.004,0.173,0.09,0.24,0.25,0.242c0.121,0.002,0.242,0.002,0.363,0.002c3.796,0,7.591,0,11.387,0
			c0.095,0,0.189-0.006,0.283,0.001c0.239,0.018,0.351-0.077,0.319-0.327c-0.013-0.106-0.002-0.215-0.002-0.323
			C32.442,82.345,32.442,74.336,32.442,66.328z M57.656,66.371c0-7.98,0-15.96,0-23.941c0-0.135-0.01-0.27,0.001-0.404
			c0.021-0.242-0.073-0.326-0.322-0.326c-3.97,0.007-7.94,0.004-11.91,0.004c-0.014,0-0.027,0.002-0.04,0
			c-0.213-0.031-0.294,0.076-0.29,0.275c0.002,0.094-0.002,0.188-0.002,0.283c0,16.055,0,32.109,0,48.165
			c0,0.107,0.003,0.215,0.003,0.322c0,0.162,0.073,0.252,0.243,0.25c0.108-0.001,0.215,0.002,0.323,0.002c3.795,0,7.59,0,11.385,0
			c0.708,0,0.607,0.016,0.608-0.609C57.657,82.386,57.656,74.379,57.656,66.371z M108.115,66.345c0-8.048,0-16.097-0.001-24.145
			c0-0.543,0.047-0.495-0.504-0.495c-3.823-0.001-7.646-0.002-11.468,0.001c-0.701,0-0.596-0.078-0.596,0.601
			c-0.002,16.03-0.002,32.059-0.001,48.089c0,0.094,0.009,0.189-0.002,0.282c-0.031,0.251,0.087,0.343,0.324,0.324
			c0.067-0.006,0.135-0.001,0.202-0.001c3.836,0,7.672,0,11.508,0.001c0.666,0,0.535-0.028,0.535-0.553
			C108.115,82.415,108.115,74.38,108.115,66.345z"/>
	</g>
</g>
</svg>
