<?xml version="1.0" encoding="utf-8"?>
<!-- Generator: Adobe Illustrator 16.0.4, SVG Export Plug-In . SVG Version: 6.00 Build 0)  -->
<!DOCTYPE svg PUBLIC "-//W3C//DTD SVG 1.1//EN" "http://www.w3.org/Graphics/SVG/1.1/DTD/svg11.dtd">
<svg version="1.1" id="Layer_4406" xmlns="http://www.w3.org/2000/svg" xmlns:xlink="http://www.w3.org/1999/xlink" x="0px" y="0px"
	 width="128px" height="128px" viewBox="0 0 128 128" enable-background="new 0 0 128 128" xml:space="preserve">
<g id="MngGBl.tif_1_">
	<g>
		<path fill-rule="evenodd" clip-rule="evenodd" d="M92.745,127.492c-0.687-3.127-0.606-6.295-1.396-9.423
			c-18.238,0-36.455,0-54.797,0c-0.272,3.107-0.824,6.176-1.248,9.395c-2.758,0-5.498,0-8.252,0
			c-0.188-0.661,0.051-0.953,0.575-1.192c0.583-0.266,1.083-0.752,1.028-1.426c-0.184-2.254,0.109-4.479,0.404-6.768
			c-1.755-0.281-3.438,0.064-5.189-0.237c-0.319-1.312-0.328-2.651-0.103-3.927c0.734-4.165,1.589-8.309,2.43-12.626
			c1.852-0.237,3.746,0.019,5.696-0.157c0.667-2.639,0.712-5.32,1.407-7.941c-1.647-0.328-3.116,0.024-4.696-0.294
			c-0.485-5.35,1.574-10.31,2.182-15.511c1.699-0.29,3.296,0.016,5.068-0.239c0.438-2.591,0.881-5.206,1.333-7.876
			c-1.392-0.568-2.798-0.042-4.08-0.38c-0.373-1.557,1.074-10.602,2.117-13.299c1.333-0.424,2.782,0.112,4.277-0.352
			c0.379-2.415,0.765-4.878,1.155-7.366c-1.1-0.545-2.257-0.055-3.392-0.446c-0.546-3.092,0.849-5.935,1.053-8.959
			c1.331-0.321,2.581-0.013,3.87-0.25c0.383-1.163,0.581-2.35,0.551-3.601c-0.946-0.399-1.915,0.015-2.951-0.375
			c-0.377-2.987,0.632-5.836,1.163-8.749c1.136-0.354,2.266,0.022,3.308-0.257c0.493-0.612,0.288-1.289,0.366-1.937
			c-0.818-0.51-1.714-0.041-2.479-0.375c-0.771-1.882,0.208-4.621,0.957-8.17c0.937-0.39,1.998,0.033,2.992-0.323
			c0.317-0.754,0.45-1.509,0.307-2.312c-0.755-0.415-1.606,0.031-2.522-0.426c-0.12-2.688,0.852-5.26,1.311-7.895
			c0.928-0.365,1.84-0.042,2.726-0.276c0.34-0.856,0.215-1.866,0.903-2.616c0.747-0.542,1.537-0.429,2.186-0.141
			c1.018,0.774,1.033,1.753,1.004,2.785c8.016,0,15.957,0,23.955,0c0.4-0.905-0.143-2.199,1.061-2.786
			c0.684-0.333,1.359-0.33,1.857-0.057c1.013,0.772,1.043,1.783,1.212,2.755c0.874,0.327,1.788-0.012,2.78,0.308
			c0.333,2.618,1.39,5.178,1.222,7.96c-0.889,0.392-1.766,0.026-2.623,0.336c0.151,0.782,0.301,1.546,0.456,2.348
			c0.953,0.346,1.961,0,3.007,0.337c0.574,2.644,1.427,5.288,1.142,8.142c-0.901,0.328-1.808,0.002-2.729,0.258
			c-0.008,0.703-0.042,1.387,0.359,2.05c1.023,0.311,2.104-0.021,3.31,0.26c0.544,2.851,1.553,5.673,1.381,8.695
			c-1.06,0.527-2.12,0.066-3.155,0.397c-0.123,1.256,0.351,2.401,0.606,3.613c1.188,0.328,2.396-0.01,3.688,0.253
			c0.682,2.915,1.479,5.833,1.271,8.919c-1.097,0.511-2.26,0.021-3.369,0.445c0.124,2.533,0.752,4.953,1.132,7.443
			c1.418,0.442,2.859-0.026,4.404,0.363c0.663,4.356,2.05,8.647,2.155,13.22c-1.479,0.396-2.877-0.025-4.302,0.424
			c0.534,2.622,0.725,5.292,1.451,7.901c1.58,0.287,3.134-0.032,4.638,0.189c1.11,2.144,2.912,13.603,2.43,15.592
			c-1.43,0.301-2.939-0.033-4.464,0.212c0.151,2.729,0.878,5.272,1.218,8.014c1.871,0,3.664,0,5.299,0
			c0.678,0.606,0.616,1.284,0.736,1.861c0.749,3.581,1.484,7.167,2.123,10.77c0.228,1.29,0.121,2.629,0,4.044
			c-1.771,0.361-3.543-0.041-5.311,0.25c0.021,0.728,0.095,1.375,0.248,2.018c0.312,1.295,0.469,2.589,0.238,3.934
			c-0.164,0.961,0.019,1.87,1.076,2.312c0.489,0.203,0.59,0.595,0.564,1.162C98.346,127.492,95.634,127.492,92.745,127.492z
			 M93.149,120.871c0.054-1.633-0.282-3.212-0.704-4.776c0.18,1.597,0.199,3.218,0.721,4.765c0.021,1.698,0.25,3.366,0.669,5.206
			c0.622-0.661,0.645-1.242,0.453-1.841C93.926,123.101,93.531,121.989,93.149,120.871z M89.262,102.381
			c-16.908,0-33.718,0-50.647,0c-0.306,3.876-1.121,7.604-1.376,11.396c17.984,0,35.711,0,53.53,0
			C90.348,109.916,89.954,106.199,89.262,102.381z M40.434,89.172c15.777,0,31.379,0,47.184,0c-0.643-3.611-0.959-7.138-1.459-10.61
			c-14.851,0-29.525,0-44.25,0C41.415,82.113,40.937,85.55,40.434,89.172z M88.049,93.124c-16.067,0-32.027,0-48.01,0
			c-0.481,2.501-0.81,4.94-1.094,7.388c-0.02,0.17-0.002,0.344-0.002,0.581c16.741,0,33.436,0,50.277,0
			C88.6,98.383,88.588,95.734,88.049,93.124z M84.611,66.411c-0.688-3.334-0.788-6.594-1.526-9.785c-12.795,0-25.491,0-38.252,0
			c-0.393,3.308-1.125,6.474-1.166,9.785C57.355,66.411,70.889,66.411,84.611,66.411z M84.857,69.078c-13.937,0-27.778,0-41.597,0
			c-0.507,1.373-0.402,2.724-0.629,4.023c-0.231,1.323-0.55,2.646-0.472,4.156c14.605-0.007,29.136,0.008,43.786-0.017
			C85.56,74.349,85.213,71.741,84.857,69.078z M81.865,47.656c-11.984,0-23.845,0-35.797,0c-0.558,2.551-0.54,5.07-1.08,7.494
			c1.431,0.438,37.015,0.361,37.981-0.073C82.721,52.646,82.475,50.2,81.865,47.656z M50.302,1.656
			c-0.684-0.082-0.777,0.285-0.852,0.708c-0.169,0.955-0.383,1.903-0.536,2.861c-0.825,5.181-1.616,10.367-2.459,15.544
			c-0.75,4.613-1.572,9.214-2.331,13.826c-0.88,5.35-1.71,10.709-2.592,16.06c-0.974,5.914-1.997,11.821-2.972,17.736
			c-0.882,5.351-1.714,10.709-2.589,16.061c-0.712,4.351-1.462,8.694-2.179,13.045c-0.538,3.262-1.038,6.531-1.575,9.795
			c-0.669,4.073-1.358,8.143-2.065,12.367c1.201-0.377,2.244-0.295,3.191,0.463c0.24-1.436,0.483-2.733,0.67-4.04
			c0.878-6.111,1.728-12.228,2.614-18.338c0.707-4.887,1.458-9.768,2.177-14.652c0.77-5.235,1.494-10.477,2.297-15.706
			c0.744-4.838,1.438-9.683,2.132-14.525c0.749-5.236,1.568-10.461,2.278-15.704c0.775-5.723,1.758-11.419,2.513-17.144
			c0.709-5.378,1.635-10.724,2.318-16.105C50.437,3.173,50.608,2.426,50.302,1.656z M97.819,119.558
			c-0.749-4.684-1.45-9.17-2.191-13.649c-0.782-4.739-1.617-9.472-2.402-14.211c-0.735-4.438-1.42-8.883-2.149-13.32
			c-0.725-4.394-1.545-8.771-2.195-13.174c-0.892-6.02-1.993-12.003-2.955-18.011c-0.857-5.356-1.78-10.701-2.648-16.054
			c-0.588-3.613-1.074-7.243-1.709-10.846c-0.611-3.473-1.177-6.952-1.722-10.436c-0.375-2.395-0.798-4.783-1.226-7.17
			c-0.086-0.48-0.096-1.105-0.828-1.06c-0.248,0.189-0.314,0.417-0.285,0.625c5.546,39.291,11.428,78.533,17.125,117.963
			C95.557,119.36,96.6,119.36,97.819,119.558z M80.812,39.354c-11.275,0-22.417,0-33.628,0c-0.438,1.876-0.62,3.686-0.675,5.516
			c11.783,0,23.439,0,35.288,0C81.148,42.992,81.273,41.159,80.812,39.354z M48.174,31.844c10.652,0,21.122,0,31.582,0
			c0.121-1.519-0.329-4.38-0.857-5.528c-9.979,0-19.973,0-30.075,0C48.607,28.16,48.398,29.937,48.174,31.844z M49.719,20.512
			c9.568,0,18.994,0,28.538,0c-0.032-1.667-0.213-3.214-0.542-4.802c-9.159,0-18.236,0-27.366,0
			C50.163,17.31,49.688,18.786,49.719,20.512z M76.986,9.924c-0.158-1.046-0.234-1.925-0.437-2.774
			c-0.201-0.84,0.071-1.778-0.5-2.574c-8.054,0-16.08,0-24.25,0c-0.34,1.772-0.558,3.521-0.65,5.348
			C59.792,9.924,68.297,9.924,76.986,9.924z M47.893,34.484c-0.434,1.491-0.543,2.808-0.336,3.718c11.01,0,22.022,0,33.074,0
			c0.14-1.358-0.247-2.511-0.543-3.718C69.303,34.484,58.627,34.484,47.893,34.484z M49.336,23.105
			c-0.081,0.791-0.396,1.395-0.305,2.141c9.98,0,19.936,0,29.941,0c-0.002-0.786-0.083-1.461-0.328-2.141
			C68.875,23.105,59.17,23.105,49.336,23.105z M50.887,11.998c-0.346,0.838-0.49,1.624-0.198,2.464c8.939,0,17.82,0,26.72,0
			c0.127-0.923-0.047-1.673-0.309-2.464C68.331,11.998,59.614,11.998,50.887,11.998z M31.72,102.369
			c-1.686-0.076-3.069-0.125-4.473,0.012c-0.626,3.904-1.667,7.582-2.134,11.45c1.651,0.078,3.131,0.089,4.745-0.003
			C30.479,110.005,31.083,106.279,31.72,102.369z M100.771,102.345c-1.578-0.044-2.926-0.105-4.475,0.053
			c0.64,3.877,1.26,7.627,1.881,11.396c1.637,0,3.155,0,4.804,0C102.238,109.938,101.516,106.195,100.771,102.345z M98.117,89.178
			c-0.539-3.661-1.23-7.142-2.059-10.618c-1.243-0.133-2.369-0.148-3.713,0.029c0.605,3.562,1.198,7.05,1.8,10.586
			C95.511,89.274,96.764,89.278,98.117,89.178z M31.874,78.543c-0.691,3.569-1.365,7.049-2.056,10.617
			c1.486,0.125,2.787,0.108,4.1,0.029c0.576-3.6,1.13-7.068,1.694-10.596C34.33,78.395,33.197,78.446,31.874,78.543z M93.802,66.458
			c-0.675-3.402-1.31-6.615-1.95-9.849c-1.089-0.063-2.069-0.252-3.106,0.108c0.548,3.265,1.083,6.455,1.619,9.646
			C91.514,66.691,92.549,66.461,93.802,66.458z M39.249,56.537c-1.179,0.033-2.128-0.221-3.103,0.234
			c-0.64,3.183-1.427,6.318-1.8,9.604c1.197,0.17,2.225,0.216,3.322-0.024C38.188,63.118,38.705,59.918,39.249,56.537z
			 M39.488,39.319c-0.371,1.9-0.72,3.693-1.092,5.602c0.949,0.07,1.764,0.118,2.769-0.036c0.384-1.798,0.712-3.611,0.762-5.536
			C41.076,39.202,40.347,39.237,39.488,39.319z M88.506,39.345c-0.883-0.077-1.648-0.224-2.54,0.143
			c0.31,1.814,0.614,3.606,0.922,5.416c0.957,0.085,1.766,0.19,2.578-0.068C89.45,42.949,88.755,41.251,88.506,39.345z
			 M43.283,31.872c0.439-1.829,0.579-3.683,0.879-5.583c-0.771-0.049-1.414-0.138-2.113,0.103c-0.361,1.792-0.722,3.579-1.091,5.408
			C41.803,32.018,42.488,31.965,43.283,31.872z M83.902,26.37c0.073,1.941,0.442,3.749,0.961,5.547
			c0.759-0.013,1.408,0.151,2.128-0.154c-0.403-1.829-0.407-3.714-1.089-5.43C85.219,26.206,84.661,26.196,83.902,26.37z
			 M83.73,15.617c-0.59,0.073-1.116-0.147-1.651,0.255c0.191,1.554,0.475,3.092,0.901,4.698c0.637-0.036,1.229,0.196,1.835-0.185
			C84.562,18.8,84.405,17.23,83.73,15.617z M44.055,15.787c-0.29,1.586-0.571,3.125-0.859,4.706
			c0.673,0.156,1.271,0.156,2.011-0.039c0.248-1.547,0.549-3.107,0.635-4.761C45.214,15.619,44.7,15.551,44.055,15.787z
			 M82.812,9.745c-0.349-1.679-0.706-3.405-1.05-5.065c-0.581-0.199-0.999-0.227-1.481,0.017c0.103,1.77,0.595,3.478,0.88,5.246
			C81.724,9.949,82.199,10.112,82.812,9.745z M47.752,4.515c-0.666,0.069-1.155-0.159-1.602,0.379
			c-0.331,1.587-0.628,3.253-0.833,5.018c0.537,0.08,0.994,0.172,1.562-0.124C47.417,8.182,47.4,6.423,47.752,4.515z
			 M35.758,114.129c-0.051,0.764-0.448,1.5-0.263,2.457C35.661,115.676,35.974,114.944,35.758,114.129z M36.755,107.135
			c0.086-0.21,0.27-0.442,0-0.708C36.755,106.728,36.755,106.932,36.755,107.135z M91.659,110.884
			c0.021,0.078,0.071,0.083,0.144-0.05c0.011-0.251,0.047-0.511-0.144-0.845C91.659,110.328,91.659,110.577,91.659,110.884z
			 M92.293,114.146c-0.042,0.001-0.083,0.001-0.124,0.003c0.015,0.214,0.03,0.428,0.047,0.643c0.025-0.002,0.051-0.003,0.077-0.005
			C92.293,114.572,92.293,114.359,92.293,114.146z M92.021,111.963c-0.044,0.006-0.089,0.01-0.133,0.016
			c0.02,0.158,0.04,0.318,0.062,0.476c0.022-0.002,0.048-0.006,0.071-0.009C92.021,112.284,92.021,112.125,92.021,111.963z
			 M90.748,104.499c0.147,0.472-0.027,0.671,0.213,0.876C91.007,105.156,91.04,104.965,90.748,104.499z M36.069,112.713
			c-0.157,0.149-0.143,0.267,0,0.424C36.069,112.981,36.069,112.864,36.069,112.713z M36.245,110.864
			c0.066,0.071,0.108,0.04,0.104-0.091c-0.002-0.057-0.04-0.112-0.074-0.199C36.261,110.695,36.252,110.779,36.245,110.864z
			 M91.409,109.048c0.017,0.001,0.032,0.002,0.05,0.004c0.009-0.111,0.018-0.221,0.023-0.331c-0.017-0.001-0.033-0.002-0.051-0.003
			C91.424,108.828,91.417,108.938,91.409,109.048z M37.599,101.488c0.03-0.028,0.068-0.049,0.077-0.078
			c0.035-0.112-0.019-0.193-0.07-0.149C37.568,101.293,37.599,101.406,37.599,101.488z M36.531,108.574
			c0.068,0.031,0.09-0.009,0.061-0.118c-0.001-0.006-0.06,0-0.061,0.004C36.526,108.497,36.528,108.535,36.531,108.574z
			 M91.209,106.726c0-0.035,0-0.072,0-0.108c-0.021,0.002-0.061,0.002-0.061,0.005c-0.003,0.036,0,0.072,0.003,0.108
			C91.171,106.729,91.191,106.728,91.209,106.726z M37.069,105.071l0.021,0.105l0.027-0.082L37.069,105.071z M90.633,103.461
			l0.018,0.085l0.02-0.067L90.633,103.461z"/>
		<path fill-rule="evenodd" clip-rule="evenodd" d="M50.302,1.656c0.306,0.77,0.135,1.517,0.042,2.251
			c-0.684,5.381-1.609,10.727-2.318,16.105c-0.755,5.725-1.737,11.421-2.513,17.144c-0.709,5.243-1.529,10.468-2.278,15.704
			c-0.694,4.843-1.388,9.688-2.132,14.525c-0.804,5.229-1.527,10.471-2.297,15.706c-0.72,4.885-1.47,9.766-2.177,14.652
			c-0.886,6.11-1.735,12.227-2.614,18.338c-0.188,1.307-0.431,2.604-0.67,4.04c-0.948-0.758-1.99-0.84-3.191-0.463
			c0.707-4.225,1.396-8.294,2.065-12.367c0.537-3.264,1.037-6.533,1.575-9.795c0.717-4.351,1.467-8.694,2.179-13.045
			c0.875-5.352,1.708-10.71,2.589-16.061c0.975-5.915,1.998-11.822,2.972-17.736c0.882-5.351,1.711-10.71,2.592-16.06
			c0.759-4.611,1.58-9.212,2.331-13.826c0.843-5.177,1.634-10.363,2.459-15.544c0.153-0.958,0.367-1.906,0.536-2.861
			C49.524,1.94,49.618,1.574,50.302,1.656z"/>
		<path fill-rule="evenodd" clip-rule="evenodd" d="M97.819,119.558c-1.22-0.197-2.263-0.197-3.187,0.657
			C88.936,80.785,83.054,41.542,77.508,2.252c-0.029-0.208,0.037-0.436,0.285-0.625c0.732-0.045,0.742,0.58,0.828,1.06
			c0.428,2.387,0.851,4.775,1.226,7.17c0.545,3.483,1.11,6.963,1.722,10.436c0.635,3.604,1.121,7.233,1.709,10.846
			c0.868,5.353,1.791,10.698,2.648,16.054c0.962,6.007,2.063,11.991,2.955,18.011c0.65,4.403,1.471,8.78,2.195,13.174
			c0.729,4.438,1.414,8.883,2.149,13.32c0.785,4.739,1.62,9.472,2.402,14.211C96.369,110.388,97.07,114.874,97.819,119.558z"/>
		<path fill-rule="evenodd" clip-rule="evenodd" d="M93.149,120.871c0.382,1.118,0.776,2.229,1.139,3.354
			c0.191,0.599,0.169,1.18-0.453,1.841c-0.419-1.84-0.647-3.508-0.669-5.206L93.149,120.871z"/>
		<path fill-rule="evenodd" clip-rule="evenodd" d="M93.166,120.859c-0.521-1.547-0.541-3.168-0.721-4.765
			c0.422,1.564,0.758,3.144,0.704,4.776L93.166,120.859z"/>
		<path fill-rule="evenodd" clip-rule="evenodd" d="M35.758,114.129c0.216,0.815-0.097,1.547-0.263,2.457
			C35.31,115.629,35.707,114.893,35.758,114.129z"/>
		<path fill-rule="evenodd" clip-rule="evenodd" d="M36.755,107.135c0-0.203,0-0.407,0-0.708
			C37.025,106.692,36.841,106.925,36.755,107.135z"/>
		<path fill-rule="evenodd" clip-rule="evenodd" d="M91.659,110.884c0-0.307,0-0.556,0-0.895c0.19,0.334,0.154,0.594,0.144,0.845
			C91.73,110.967,91.68,110.962,91.659,110.884z"/>
		<path fill-rule="evenodd" clip-rule="evenodd" d="M92.293,114.146c0,0.214,0,0.427,0,0.641c-0.026,0.002-0.052,0.003-0.077,0.005
			c-0.017-0.215-0.032-0.429-0.047-0.643C92.21,114.146,92.251,114.146,92.293,114.146z"/>
		<path fill-rule="evenodd" clip-rule="evenodd" d="M92.021,111.963c0,0.162,0,0.321,0,0.482c-0.023,0.003-0.049,0.007-0.071,0.009
			c-0.021-0.157-0.042-0.317-0.062-0.476C91.933,111.973,91.978,111.969,92.021,111.963z"/>
		<path fill-rule="evenodd" clip-rule="evenodd" d="M90.748,104.499c0.292,0.466,0.259,0.657,0.213,0.876
			C90.721,105.17,90.896,104.971,90.748,104.499z"/>
		<path fill-rule="evenodd" clip-rule="evenodd" d="M36.069,112.713c0,0.151,0,0.269,0,0.424
			C35.926,112.979,35.912,112.862,36.069,112.713z"/>
		<path fill-rule="evenodd" clip-rule="evenodd" d="M36.244,110.864c0.008-0.085,0.018-0.169,0.03-0.29
			c0.035,0.087,0.072,0.143,0.074,0.199C36.353,110.904,36.311,110.936,36.244,110.864z"/>
		<path fill-rule="evenodd" clip-rule="evenodd" d="M91.409,109.048c0.008-0.11,0.015-0.22,0.022-0.33
			c0.018,0.001,0.034,0.002,0.051,0.003c-0.006,0.11-0.015,0.22-0.023,0.331C91.441,109.05,91.426,109.049,91.409,109.048z"/>
		<path fill-rule="evenodd" clip-rule="evenodd" d="M37.599,101.488c0-0.082-0.031-0.195,0.007-0.228
			c0.052-0.044,0.105,0.037,0.07,0.149C37.667,101.439,37.629,101.46,37.599,101.488z"/>
		<path fill-rule="evenodd" clip-rule="evenodd" d="M36.529,108.574c-0.001-0.039-0.003-0.077,0.002-0.114
			c0.001-0.004,0.06-0.01,0.061-0.004C36.621,108.565,36.6,108.605,36.529,108.574z"/>
		<path fill-rule="evenodd" clip-rule="evenodd" d="M91.209,106.726c-0.018,0.002-0.038,0.003-0.058,0.005
			c-0.003-0.036-0.006-0.072-0.003-0.108c0-0.003,0.039-0.003,0.061-0.005C91.209,106.653,91.209,106.69,91.209,106.726z"/>
		<polygon fill-rule="evenodd" clip-rule="evenodd" points="37.069,105.071 37.117,105.095 37.09,105.177 		"/>
		<polygon fill-rule="evenodd" clip-rule="evenodd" points="90.633,103.461 90.67,103.479 90.65,103.546 		"/>
	</g>
</g>
</svg>
