<?xml version="1.0" encoding="utf-8"?>
<!-- Generator: Adobe Illustrator 16.0.4, SVG Export Plug-In . SVG Version: 6.00 Build 0)  -->
<!DOCTYPE svg PUBLIC "-//W3C//DTD SVG 1.1//EN" "http://www.w3.org/Graphics/SVG/1.1/DTD/svg11.dtd">
<svg version="1.1" id="Layer_4414" xmlns="http://www.w3.org/2000/svg" xmlns:xlink="http://www.w3.org/1999/xlink" x="0px" y="0px"
	 width="128px" height="128px" viewBox="0 0 128 128" enable-background="new 0 0 128 128" xml:space="preserve">
<g id="aQdg43.tif">
	<g>
		<path fill-rule="evenodd" clip-rule="evenodd" d="M29.974,96.512c0.345,0,0.69,0.002,1.035-0.002
			c0.141-0.001,0.203-0.075,0.16-0.191c-0.413-1.099-1.037-1.982-2.263-2.28c-0.438-0.106-0.874-0.194-1.325-0.195
			c-0.382-0.001-0.756,0.033-1.122,0.151c-0.344,0.111-0.692,0.21-1.032,0.332c-0.46,0.166-0.935,0.239-1.42,0.242
			s-0.958,0.068-1.433,0.172c-0.386,0.084-0.776,0.16-1.176,0.149c-0.829-0.023-1.544-0.708-1.588-1.539
			c-0.02-0.38-0.002-0.759,0.062-1.135c0.047-0.278,0.02-0.55-0.062-0.817c-0.032-0.106-0.093-0.188-0.199-0.22
			c-0.131-0.039-0.264-0.082-0.399-0.101c-0.307-0.045-0.616-0.068-0.923-0.116c-0.533-0.084-1.043-0.229-1.445-0.626
			c-0.248-0.246-0.31-0.573-0.155-0.89c0.097-0.199,0.272-0.26,0.472-0.245c0.188,0.013,0.375,0.056,0.562,0.079
			c0.197,0.024,0.381,0.025,0.445-0.229c0.028-0.108,0.129-0.157,0.236-0.176c0.326-0.056,0.458-0.274,0.492-0.578
			c0.022-0.205,0.05-0.41,0.068-0.616c0.014-0.154,0.009-0.311,0.025-0.464c0.027-0.265,0.106-0.514,0.333-0.676
			c0.213-0.152,0.248-0.338,0.199-0.581c-0.033-0.166-0.025-0.346-0.012-0.516c0.031-0.409,0.212-0.585,0.621-0.613
			c0.172-0.013,0.345-0.004,0.518-0.009c0.137-0.003,0.277-0.001,0.413-0.018c0.318-0.039,0.408-0.2,0.299-0.507
			c-0.061-0.17-0.178-0.288-0.322-0.393c-0.241-0.175-0.521-0.266-0.796-0.364c-0.129-0.047-0.263-0.081-0.398-0.111
			c-0.377-0.084-0.718-0.241-1.006-0.502c-0.365-0.331-0.796-0.462-1.283-0.443c-0.31,0.011-0.621,0-0.931,0
			c-0.457-0.001-0.792-0.213-1.015-0.602c-0.146-0.254-0.276-0.519-0.344-0.806c-0.071-0.3,0.04-0.451,0.343-0.518
			c0.19-0.04,0.376-0.026,0.566-0.005c0.346,0.041,0.689,0.013,1.023-0.09c0.21-0.064,0.266-0.19,0.188-0.397
			c-0.081-0.215-0.21-0.395-0.392-0.535c-0.177-0.139-0.357-0.272-0.539-0.403c-0.319-0.23-0.546-0.53-0.644-0.91
			c-0.109-0.425-0.308-0.802-0.551-1.162c-0.546-0.809-0.396-1.296,0.22-1.862c0.177-0.163,0.351-0.335,0.494-0.526
			c0.242-0.326,0.178-0.616-0.166-0.826c-0.176-0.107-0.366-0.191-0.546-0.294c-0.11-0.063-0.124-0.164-0.051-0.262
			c0.161-0.211,0.364-0.367,0.619-0.445c0.147-0.046,0.298-0.087,0.451-0.109c0.14-0.022,0.262-0.08,0.385-0.144
			c0.102-0.052,0.149-0.133,0.147-0.25c-0.007-0.436-0.099-0.854-0.255-1.26c-0.073-0.192-0.16-0.381-0.243-0.569
			c-0.329-0.749-0.508-1.528-0.571-2.348c-0.084-1.103-0.083-2.206-0.041-3.308c0.025-0.651,0.167-1.298,0.227-1.949
			c0.102-1.117,0.151-2.236-0.047-3.35c-0.117-0.656-0.346-1.259-0.801-1.765c-0.137-0.152-0.24-0.335-0.346-0.513
			c-0.101-0.168-0.129-0.356-0.1-0.55c0.038-0.26,0.227-0.398,0.48-0.333c0.148,0.039,0.289,0.111,0.434,0.164
			c0.168,0.06,0.258-0.026,0.239-0.208c-0.02-0.199-0.119-0.359-0.232-0.511c-0.113-0.152-0.245-0.29-0.356-0.444
			c-0.142-0.198-0.253-0.411-0.25-0.666c0.001-0.123,0.05-0.188,0.177-0.209c0.085-0.014,0.172-0.011,0.257-0.024
			c0.097-0.016,0.15-0.087,0.154-0.179c0.013-0.311,0.014-0.622,0.025-0.931c0.016-0.411,0.15-0.773,0.421-1.087
			c0.211-0.244,0.472-0.399,0.785-0.466c0.135-0.029,0.27-0.063,0.406-0.077c0.493-0.048,0.826-0.334,1.062-0.736
			c0.156-0.266,0.293-0.55,0.394-0.841c0.22-0.634,0.43-1.273,0.582-1.928c0.012-0.05,0.031-0.099,0.042-0.149
			c0.15-0.627,0.028-1.161-0.527-1.55c-0.113-0.079-0.222-0.164-0.326-0.254c-0.104-0.091-0.211-0.181-0.296-0.288
			c-0.342-0.43-0.195-0.941,0.322-1.119c0.146-0.05,0.302-0.067,0.453-0.101c0.151-0.035,0.305-0.062,0.45-0.111
			c0.18-0.06,0.279-0.198,0.296-0.386c0.026-0.278-0.016-0.548-0.089-0.817c-0.171-0.632-0.332-1.267-0.405-1.919
			c-0.023-0.205-0.03-0.412-0.038-0.618c-0.006-0.175,0.039-0.344,0.111-0.501c0.133-0.289,0.394-0.432,0.714-0.398
			c0.068,0.007,0.136,0.022,0.202,0.042c0.502,0.163,0.65,0.449,0.486,0.952c-0.037,0.114-0.095,0.222-0.135,0.335
			c-0.039,0.113-0.076,0.229-0.097,0.347c-0.036,0.2,0.008,0.288,0.179,0.386c0.229,0.131,0.479,0.189,0.742,0.189
			c0.139,0,0.277-0.011,0.414-0.002c0.208,0.013,0.303,0.131,0.282,0.347c-0.008,0.085-0.04,0.168-0.047,0.253
			c-0.016,0.206-0.029,0.412-0.033,0.618c-0.003,0.142,0.046,0.273,0.139,0.38c0.096,0.11,0.217,0.171,0.367,0.136
			c0.169-0.04,0.336-0.091,0.476-0.195c0.192-0.144,0.387-0.29,0.56-0.456c0.173-0.167,0.328-0.354,0.48-0.541
			c0.393-0.484,0.827-0.916,1.326-1.298c0.833-0.639,1.634-1.323,2.441-1.998c0.305-0.255,0.622-0.489,0.971-0.682
			c0.151-0.083,0.296-0.178,0.433-0.282c0.294-0.222,0.387-0.524,0.291-0.873c-0.055-0.198-0.131-0.393-0.225-0.576
			c-0.177-0.346-0.278-0.703-0.255-1.093c0.018-0.316-0.055-0.615-0.162-0.91c-0.163-0.45-0.207-0.908-0.047-1.368
			c0.056-0.161,0.125-0.321,0.209-0.469c0.109-0.195,0.237-0.381,0.361-0.567c0.431-0.643,0.669-1.356,0.778-2.116
			c0.02-0.137,0.044-0.272,0.062-0.409c0.027-0.19,0.015-0.376-0.026-0.564c-0.064-0.294-0.229-0.501-0.498-0.619
			c-0.221-0.096-0.451-0.171-0.675-0.26c-0.457-0.18-0.77-0.513-0.983-0.944c-0.136-0.275-0.204-0.56,0.043-0.815
			c0.235-0.242,0.514-0.329,0.848-0.218c0.214,0.072,0.408,0.183,0.601,0.296c0.178,0.105,0.354,0.215,0.539,0.306
			c0.138,0.068,0.283,0.122,0.441,0.138c0.569,0.056,0.873-0.113,1.106-0.638c0.077-0.172,0.142-0.352,0.198-0.533
			c0.133-0.43,0.393-0.718,0.847-0.814c0.134-0.028,0.269-0.071,0.391-0.131c0.292-0.145,0.37-0.411,0.2-0.691
			c-0.08-0.131-0.191-0.243-0.293-0.359c-0.114-0.129-0.24-0.248-0.348-0.381c-0.346-0.428-0.345-0.887-0.09-1.352
			c0.281-0.514,0.854-0.627,1.319-0.269c0.082,0.062,0.154,0.137,0.224,0.213c0.117,0.126,0.229,0.258,0.34,0.39
			c0.301,0.357,0.663,0.402,1.032,0.121c0.096-0.073,0.177-0.164,0.268-0.244c0.077-0.067,0.152-0.143,0.24-0.193
			c0.217-0.125,0.455-0.207,0.684-0.06c0.262,0.168,0.418,0.419,0.367,0.744c-0.027,0.168-0.102,0.328-0.16,0.49
			c-0.063,0.178-0.142,0.352-0.196,0.533c-0.052,0.169-0.041,0.34,0.055,0.499c0.099,0.162,0.27,0.226,0.444,0.152
			c0.194-0.083,0.35-0.218,0.484-0.379c0.247-0.297,0.404-0.637,0.509-1.007c0.089-0.314,0.182-0.628,0.291-0.937
			c0.185-0.529,0.528-0.921,1.044-1.154c0.11-0.049,0.217-0.104,0.323-0.163c0.347-0.19,0.591-0.47,0.72-0.846
			c0.124-0.358,0.256-0.714,0.361-1.078c0.167-0.576,0.539-0.99,1.006-1.337c0.404-0.3,0.857-0.512,1.306-0.732
			c0.448-0.22,0.895-0.444,1.34-0.671c0.569-0.29,1.154-0.538,1.773-0.706c0.489-0.133,0.982-0.175,1.485-0.122
			c0.137,0.014,0.274,0.035,0.412,0.041c0.178,0.006,0.247-0.055,0.251-0.246c0.011-0.448,0.022-0.896,0.016-1.345
			c-0.01-0.698,0.127-1.369,0.34-2.029c0.336-1.044,0.816-2.01,1.532-2.85c1.117-1.307,2.514-2.12,4.215-2.414
			c0.703-0.122,1.408-0.088,2.115-0.096c0.344-0.004,0.689,0.004,1.027-0.084c0.713-0.185,0.622-0.232,0.624-0.792
			c0.001-0.28-0.072-0.548-0.133-0.815c-0.141-0.618-0.133-1.232,0.018-1.843c0.086-0.351,0.201-0.695,0.305-1.041
			c0.051-0.17,0.155-0.307,0.292-0.418c0.208-0.168,0.421-0.14,0.579,0.079c0.143,0.199,0.222,0.427,0.306,0.654
			c0.13,0.355,0.261,0.711,0.402,1.062c0.14,0.346,0.387,0.609,0.678,0.832c0.093,0.072,0.199,0.173,0.319,0.129
			c0.13-0.048,0.12-0.197,0.129-0.315C61.118,4.242,61.112,4.12,61.118,4c0.019-0.408,0.166-0.744,0.564-0.911
			c0.332-0.139,0.465-0.391,0.467-0.731c0.001-0.276-0.004-0.551-0.009-0.827c-0.003-0.172-0.022-0.346-0.011-0.517
			c0.044-0.658,0.697-1.016,1.281-0.707c0.061,0.032,0.118,0.073,0.174,0.111c0.153,0.104,0.24,0.241,0.233,0.433
			c-0.006,0.189-0.003,0.379-0.004,0.569c0,0.242-0.001,0.483,0,0.724c0.002,0.409,0.145,0.739,0.523,0.94
			c0.076,0.04,0.146,0.091,0.219,0.139c0.25,0.165,0.369,0.402,0.382,0.696c0.007,0.154,0.003,0.31,0.017,0.464
			c0.017,0.188,0.146,0.256,0.333,0.195c0.205-0.066,0.361-0.193,0.492-0.36c0.173-0.221,0.293-0.468,0.38-0.731
			c0.115-0.343,0.209-0.693,0.325-1.035c0.066-0.195,0.142-0.391,0.248-0.566c0.156-0.26,0.364-0.28,0.604-0.083
			c0.192,0.155,0.32,0.359,0.417,0.584c0.176,0.415,0.284,0.847,0.306,1.3c0.034,0.727-0.017,1.447-0.135,2.163
			c-0.009,0.051-0.023,0.102-0.029,0.153c-0.043,0.373,0.086,0.56,0.461,0.6c0.429,0.045,0.859,0.065,1.291,0.08
			c0.518,0.019,1.035,0.002,1.552,0.036c1.465,0.093,2.803,0.533,3.938,1.496c0.503,0.424,0.953,0.9,1.346,1.427
			c0.879,1.176,1.354,2.506,1.517,3.958c0.057,0.497,0.097,0.994,0.096,1.495c0,0.297,0.026,0.316,0.342,0.261
			c0.293-0.051,0.584-0.053,0.878-0.058c0.472-0.007,0.926,0.088,1.359,0.268c1.113,0.462,2.226,0.929,3.333,1.404
			c0.253,0.108,0.494,0.248,0.726,0.394c0.5,0.315,0.833,0.765,1.021,1.325c0.109,0.327,0.226,0.651,0.347,0.973
			c0.188,0.493,0.512,0.852,1.021,1.028c0.112,0.039,0.221,0.097,0.327,0.152c0.382,0.199,0.662,0.494,0.808,0.903
			c0.108,0.308,0.204,0.621,0.305,0.933c0.123,0.379,0.273,0.744,0.532,1.055c0.158,0.189,0.346,0.337,0.579,0.42
			c0.259,0.092,0.494-0.056,0.526-0.329c0.023-0.195-0.026-0.374-0.11-0.549c-0.09-0.186-0.17-0.376-0.254-0.565
			c-0.199-0.451,0.106-0.794,0.391-1.021c0.046-0.036,0.134-0.04,0.195-0.029c0.188,0.033,0.37,0.09,0.52,0.217
			c0.092,0.078,0.185,0.157,0.276,0.234c0.208,0.177,0.45,0.239,0.72,0.228c0.131-0.006,0.229-0.048,0.312-0.151
			c0.16-0.202,0.322-0.402,0.492-0.597c0.125-0.145,0.276-0.261,0.45-0.341c0.31-0.143,0.615-0.077,0.842,0.179
			c0.403,0.457,0.426,1.01,0.157,1.433c-0.11,0.174-0.234,0.34-0.353,0.51c-0.108,0.157-0.214,0.313-0.266,0.5
			c-0.07,0.251-0.001,0.445,0.229,0.563c0.122,0.062,0.257,0.099,0.39,0.132c0.383,0.094,0.635,0.326,0.778,0.69
			c0.075,0.192,0.16,0.381,0.24,0.571c0.214,0.509,0.615,0.771,1.314,0.583c0.22-0.06,0.408-0.181,0.6-0.298
			c0.176-0.109,0.348-0.225,0.531-0.319c0.201-0.104,0.417-0.163,0.647-0.145c0.488,0.036,0.784,0.43,0.657,0.902
			c-0.133,0.496-0.451,0.846-0.916,1.059c-0.172,0.078-0.352,0.139-0.531,0.201c-0.464,0.161-0.682,0.494-0.709,0.975
			c-0.05,0.85,0.121,1.646,0.574,2.372c0.145,0.234,0.311,0.455,0.464,0.685c0.144,0.215,0.277,0.436,0.373,0.678
			c0.185,0.465,0.232,0.938,0.065,1.414c-0.157,0.445-0.27,0.888-0.161,1.365c0.04,0.174-0.025,0.34-0.104,0.497
			c-0.085,0.17-0.172,0.338-0.256,0.508c-0.07,0.14-0.107,0.289-0.121,0.447c-0.021,0.26,0.06,0.477,0.261,0.642
			c0.106,0.087,0.217,0.173,0.335,0.241c0.767,0.439,1.471,0.964,2.162,1.507c0.719,0.564,1.44,1.125,2.158,1.689
			c0.286,0.225,0.534,0.487,0.771,0.762c0.293,0.34,0.605,0.664,0.99,0.902c0.223,0.137,0.451,0.252,0.728,0.23
			c0.186-0.015,0.284-0.084,0.326-0.268c0.022-0.1,0.039-0.206,0.034-0.308c-0.01-0.188-0.017-0.381-0.062-0.564
			c-0.112-0.463-0.081-0.586,0.502-0.624c0.138-0.009,0.275-0.011,0.413-0.023c0.14-0.011,0.271-0.054,0.39-0.128
			c0.145-0.09,0.216-0.22,0.184-0.393c-0.016-0.084-0.039-0.167-0.065-0.249c-0.043-0.131-0.096-0.259-0.14-0.39
			c-0.168-0.503-0.019-0.838,0.46-1.037c0.381-0.159,0.731-0.025,0.899,0.35c0.086,0.191,0.113,0.395,0.114,0.605
			c0,0.398-0.087,0.787-0.141,1.179c-0.067,0.495-0.16,0.986-0.229,1.481c-0.023,0.169-0.027,0.345-0.014,0.515
			c0.029,0.327,0.159,0.446,0.49,0.484c0.205,0.024,0.411,0.044,0.616,0.074c0.197,0.029,0.353,0.138,0.473,0.292
			c0.16,0.208,0.197,0.433,0.089,0.679c-0.095,0.208-0.23,0.385-0.405,0.53c-0.146,0.12-0.296,0.237-0.452,0.343
			c-0.332,0.228-0.474,0.538-0.428,0.934c0.016,0.137,0.026,0.276,0.067,0.406c0.224,0.724,0.445,1.449,0.69,2.166
			c0.089,0.258,0.225,0.504,0.363,0.742c0.245,0.42,0.591,0.714,1.091,0.79c0.153,0.024,0.306,0.053,0.456,0.087
			c0.656,0.148,1.06,0.548,1.185,1.212c0.039,0.203,0.053,0.41,0.072,0.615c0.014,0.137,0.015,0.276,0.028,0.413
			c0.023,0.207,0.109,0.359,0.341,0.384c0.067,0.007,0.137,0.031,0.196,0.062c0.101,0.052,0.158,0.146,0.125,0.257
			c-0.038,0.131-0.089,0.262-0.157,0.38c-0.11,0.193-0.241,0.376-0.362,0.565c-0.083,0.131-0.176,0.258-0.238,0.398
			c-0.046,0.105-0.135,0.245-0.055,0.339c0.114,0.134,0.248-0.004,0.371-0.044c0.131-0.042,0.253-0.108,0.385-0.146
			c0.154-0.043,0.26,0.02,0.33,0.17c0.112,0.232,0.104,0.464,0.015,0.702c-0.087,0.23-0.218,0.435-0.378,0.615
			c-0.566,0.642-0.769,1.409-0.804,2.239c-0.046,1.071,0.018,2.134,0.18,3.194c0.128,0.852,0.231,1.708,0.259,2.571
			c0.009,0.274,0.043,0.549,0.053,0.826c0.028,0.846-0.023,1.687-0.149,2.524c-0.05,0.326-0.139,0.641-0.251,0.947
			c-0.143,0.389-0.293,0.774-0.435,1.161c-0.083,0.228-0.16,0.457-0.164,0.701c-0.007,0.406,0.151,0.646,0.541,0.779
			c0.162,0.055,0.336,0.079,0.5,0.128c0.148,0.044,0.295,0.095,0.437,0.155c0.113,0.05,0.199,0.139,0.243,0.256
			c0.033,0.088,0.029,0.175-0.06,0.226c-0.074,0.041-0.155,0.077-0.236,0.097c-0.141,0.033-0.254,0.106-0.353,0.206
			c-0.243,0.247-0.279,0.499-0.099,0.794c0.138,0.221,0.32,0.403,0.51,0.581c0.139,0.13,0.274,0.265,0.389,0.414
			c0.188,0.247,0.236,0.527,0.145,0.831c-0.074,0.25-0.191,0.48-0.314,0.707c-0.207,0.38-0.398,0.762-0.481,1.194
			c-0.061,0.317-0.25,0.56-0.512,0.751c-0.223,0.162-0.442,0.328-0.653,0.506c-0.175,0.146-0.298,0.333-0.347,0.562
			c-0.029,0.139,0.013,0.238,0.14,0.298c0.221,0.104,0.454,0.159,0.698,0.165c0.329,0.009,0.653-0.014,0.977-0.082
			c0.257-0.055,0.409,0.08,0.385,0.337c-0.051,0.573-0.305,1.058-0.709,1.457c-0.138,0.134-0.33,0.186-0.524,0.189
			c-0.294,0.004-0.587,0.017-0.88,0.004c-0.543-0.023-1.022,0.108-1.41,0.51c-0.183,0.189-0.414,0.311-0.658,0.399
			c-0.227,0.083-0.46,0.146-0.687,0.226c-0.211,0.075-0.424,0.147-0.625,0.246c-0.252,0.128-0.442,0.325-0.535,0.603
			c-0.071,0.22-0.003,0.342,0.221,0.358c0.24,0.016,0.481,0.016,0.724,0.018c0.172,0.001,0.342,0.011,0.511,0.059
			c0.203,0.058,0.327,0.188,0.38,0.386c0.043,0.166,0.063,0.338,0.044,0.512c-0.014,0.119-0.017,0.241-0.027,0.361
			c-0.012,0.131,0.018,0.244,0.147,0.301c0.291,0.126,0.382,0.382,0.428,0.663c0.053,0.322,0.093,0.646,0.144,0.971
			c0.022,0.136,0.058,0.269,0.092,0.403c0.047,0.198,0.146,0.344,0.373,0.367c0.17,0.02,0.272,0.143,0.358,0.273
			c0.064,0.101,0.155,0.132,0.264,0.124c0.274-0.018,0.55-0.046,0.825-0.059c0.223-0.01,0.406,0.098,0.443,0.277
			c0.063,0.297,0.058,0.589-0.188,0.814c-0.101,0.093-0.211,0.177-0.324,0.256c-0.467,0.329-1.012,0.422-1.558,0.505
			c-0.271,0.041-0.547,0.077-0.816,0.129c-0.195,0.038-0.262,0.12-0.278,0.318c-0.021,0.258-0.013,0.515,0.034,0.771
			c0.067,0.376,0.083,0.755,0.056,1.135c-0.037,0.528-0.278,0.952-0.686,1.283c-0.221,0.178-0.475,0.281-0.757,0.305
			c-0.292,0.024-0.587,0.019-0.875-0.037c-0.188-0.035-0.371-0.081-0.556-0.124c-0.421-0.098-0.845-0.157-1.28-0.135
			c-0.641,0.033-1.271-0.011-1.887-0.225c-0.832-0.289-1.701-0.283-2.559-0.187c-0.878,0.099-1.598,0.52-2.097,1.273
			c-0.229,0.346-0.419,0.712-0.581,1.094c-0.062,0.145,0.01,0.247,0.162,0.231c0.481-0.051,0.964-0.051,1.446-0.039
			c0.518,0.013,1.031,0.066,1.537,0.182c1.484,0.339,2.483,1.389,2.744,2.884c0.054,0.306,0.111,0.61,0.09,0.923
			c-0.016,0.21-0.058,0.41-0.164,0.593c-0.075,0.129-0.185,0.197-0.337,0.204c-0.319,0.012-0.621-0.058-0.888-0.23
			c-0.2-0.132-0.391-0.281-0.574-0.439c-0.272-0.235-0.532-0.49-0.804-0.729c-0.668-0.586-1.449-0.847-2.336-0.787
			c-0.101,0.008-0.207,0.021-0.3,0.061c-0.147,0.061-0.271,0.16-0.273,0.341c-0.004,0.188,0.072,0.336,0.248,0.417
			c0.076,0.036,0.161,0.056,0.243,0.08c0.132,0.041,0.267,0.075,0.396,0.12c0.148,0.052,0.213,0.163,0.211,0.319
			c-0.006,0.485-0.311,0.854-0.789,0.94c-0.271,0.049-0.543,0.081-0.822,0.075c-0.31-0.005-0.62,0.003-0.93,0.013
			c-0.374,0.012-0.703,0.135-0.991,0.382c-0.472,0.404-0.964,0.783-1.39,1.239c-0.556,0.595-0.901,1.295-1.079,2.084
			c-0.032,0.139-0.04,0.27-0.007,0.409c0.059,0.258,0.21,0.429,0.457,0.516c0.162,0.058,0.329,0.102,0.504,0.104
			c0.121,0.003,0.243,0.007,0.359,0.031c0.196,0.042,0.357,0.155,0.42,0.348c0.092,0.282,0.155,0.575-0.104,0.816
			c-0.17,0.158-0.215,0.354-0.163,0.566c0.151,0.618-0.042,1.152-0.364,1.667c-0.119,0.188-0.222,0.393-0.295,0.602
			c-0.11,0.32-0.106,0.645,0.075,0.947c0.231,0.387,0.544,0.512,0.966,0.352c0.239-0.091,0.465-0.224,0.692-0.346
			c0.197-0.106,0.395-0.201,0.618-0.255c0.365-0.088,0.682,0.005,0.964,0.234c0.19,0.156,0.332,0.35,0.433,0.573
			c0.281,0.628,0.301,1.265,0.07,1.912c-0.152,0.43-0.422,0.761-0.838,0.937c-1.268,0.54-2.482,0.478-3.609-0.377
			c-0.36-0.272-0.654-0.611-0.938-0.959c-0.121-0.147-0.257-0.211-0.446-0.203c-0.157,0.006-0.257,0.081-0.334,0.207
			c-0.101,0.165-0.133,0.353-0.167,0.538c-0.023,0.118-0.029,0.241-0.059,0.356c-0.118,0.473-0.377,0.711-0.86,0.76
			c-0.273,0.029-0.552,0.011-0.827,0.021c-0.189,0.009-0.381,0.009-0.564,0.048c-0.522,0.111-0.803,0.423-0.88,0.951
			c-0.017,0.119-0.016,0.24-0.013,0.36c0.005,0.243-0.102,0.433-0.273,0.591c-0.206,0.188-0.439,0.334-0.685,0.462
			c-0.319,0.168-0.643,0.333-0.962,0.501c-0.232,0.122-0.476,0.203-0.742,0.191c-0.222-0.009-0.346-0.118-0.375-0.346
			c-0.013-0.102-0.009-0.206-0.009-0.311c-0.001-0.137,0.002-0.275,0.002-0.413c-0.002-0.331-0.171-0.552-0.468-0.676
			c-0.128-0.054-0.262-0.089-0.392-0.134c-0.163-0.057-0.329-0.104-0.486-0.173c-0.283-0.123-0.483-0.324-0.559-0.636
			c-0.05-0.199-0.115-0.396-0.164-0.597c-0.153-0.616-0.812-1.21-1.666-1.258c-0.413-0.022-0.793,0.118-1.075,0.426
			c-0.611,0.666-0.774,1.441-0.478,2.302c0.125,0.366,0.393,0.604,0.755,0.726c0.227,0.077,0.462,0.134,0.708,0.133
			c0.432-0.002,0.862,0.007,1.293,0.004c0.384-0.001,0.757,0.059,1.114,0.195c0.538,0.206,0.882,0.585,0.99,1.163
			c0.035,0.192,0.014,0.378-0.057,0.558c-0.092,0.233-0.221,0.331-0.473,0.316c-0.241-0.015-0.486-0.028-0.718-0.089
			c-0.394-0.101-0.751-0.016-1.101,0.152c-0.187,0.089-0.367,0.189-0.553,0.28c-0.571,0.281-1.129,0.263-1.672-0.076
			c-0.146-0.09-0.294-0.18-0.446-0.262c-0.137-0.073-0.274-0.146-0.419-0.199c-0.446-0.166-0.833-0.007-1.02,0.427
			c-0.062,0.141-0.1,0.296-0.117,0.448c-0.051,0.485-0.189,0.947-0.383,1.391c-0.379,0.87-0.828,1.704-1.363,2.49
			c-0.087,0.128-0.182,0.252-0.276,0.373c-0.652,0.827-1.479,1.396-2.513,1.62c-0.874,0.192-1.754,0.36-2.635,0.515
			c-0.407,0.07-0.824,0.059-1.239,0.045c-0.321-0.011-0.608-0.104-0.871-0.285c-0.255-0.176-0.508-0.358-0.767-0.528
			c-0.203-0.133-0.421-0.228-0.672-0.245c-0.413-0.03-0.722,0.209-0.854,0.539c-0.097,0.243-0.129,0.499-0.132,0.761
			c-0.005,0.327-0.018,0.652-0.084,0.976c-0.138,0.673-0.574,1.041-1.202,1.214c-0.294,0.081-0.586,0.022-0.852-0.121
			c-0.671-0.361-1.076-0.9-1.095-1.688c-0.003-0.138-0.001-0.275-0.003-0.413c-0.001-0.104,0.001-0.208-0.007-0.311
			c-0.052-0.645-0.526-1.06-1.295-0.773c-0.142,0.053-0.272,0.146-0.398,0.234c-0.184,0.13-0.358,0.271-0.535,0.408
			c-0.536,0.416-1.158,0.524-1.808,0.454c-0.581-0.063-1.156-0.181-1.733-0.281c-0.441-0.075-0.878-0.176-1.321-0.239
			c-1.145-0.164-2.002-0.787-2.704-1.664c-0.313-0.391-0.59-0.808-0.835-1.244c-0.202-0.361-0.391-0.729-0.59-1.092
			c-0.285-0.517-0.505-1.054-0.619-1.637c-0.05-0.252-0.125-0.501-0.257-0.729c-0.076-0.132-0.179-0.195-0.334-0.195
			c-0.263-0.003-0.517,0.042-0.754,0.152c-0.203,0.095-0.398,0.203-0.599,0.306c-0.138,0.069-0.275,0.142-0.416,0.206
			c-0.364,0.164-0.734,0.17-1.105,0.025c-0.16-0.061-0.323-0.125-0.469-0.213c-0.52-0.311-1.076-0.348-1.65-0.227
			c-0.223,0.048-0.438,0.082-0.662,0.011c-0.125-0.039-0.205-0.108-0.243-0.239c-0.058-0.202-0.083-0.398-0.034-0.61
			c0.173-0.749,0.728-1.222,1.553-1.28c0.396-0.028,0.793-0.024,1.19-0.021c0.329,0.003,0.654-0.029,0.977-0.09
			c0.685-0.128,1.009-0.473,1.112-1.17c0.104-0.7-0.036-1.332-0.499-1.885c-0.553-0.661-1.438-0.716-2.052-0.312
			c-0.448,0.294-0.778,0.678-0.892,1.219c-0.021,0.102-0.05,0.2-0.068,0.303c-0.072,0.407-0.308,0.684-0.675,0.855
			c-0.14,0.066-0.286,0.121-0.429,0.18c-0.127,0.054-0.254,0.105-0.381,0.158c-0.288,0.121-0.431,0.324-0.392,0.648
			c0.021,0.17,0.02,0.345,0.01,0.516c-0.028,0.46-0.229,0.604-0.687,0.502c-0.134-0.031-0.267-0.072-0.396-0.119
			c-0.49-0.171-0.947-0.412-1.402-0.657c-0.322-0.175-0.524-0.44-0.573-0.812c-0.02-0.153-0.045-0.307-0.072-0.458
			c-0.093-0.518-0.467-0.864-0.99-0.894c-0.204-0.011-0.413,0.012-0.617,0.043c-0.278,0.042-0.549,0.027-0.818-0.051
			c-0.341-0.099-0.573-0.311-0.674-0.652c-0.048-0.165-0.08-0.335-0.109-0.505c-0.027-0.153-0.067-0.303-0.16-0.432
			c-0.173-0.239-0.517-0.263-0.712-0.041c-0.137,0.155-0.261,0.32-0.386,0.484c-0.675,0.891-1.606,1.264-2.686,1.338
			c-0.365,0.025-0.725-0.012-1.075-0.111c-1.693-0.484-1.824-2.396-1.06-3.338c0.361-0.446,0.895-0.605,1.436-0.415
			c0.195,0.069,0.377,0.169,0.566,0.253c0.157,0.07,0.311,0.15,0.473,0.202c0.528,0.173,0.974-0.118,1.036-0.671
			c0.046-0.408-0.04-0.79-0.25-1.141c-0.097-0.163-0.205-0.32-0.318-0.473c-0.229-0.307-0.322-0.643-0.241-1.022
			c0.015-0.067,0.029-0.136,0.038-0.202c0.031-0.214,0.026-0.415-0.169-0.562c-0.286-0.213-0.274-0.504-0.177-0.794
			c0.096-0.289,0.322-0.439,0.618-0.482c0.153-0.021,0.309-0.026,0.462-0.043c0.389-0.044,0.621-0.28,0.653-0.674
			c0.019-0.226-0.004-0.445-0.079-0.662c-0.109-0.312-0.258-0.603-0.441-0.875c-0.476-0.706-1.049-1.32-1.726-1.84
			c-0.442-0.34-0.931-0.507-1.489-0.492c-0.378,0.01-0.758,0-1.138,0.004c-0.228,0.003-0.447-0.041-0.658-0.118
			c-0.309-0.113-0.524-0.325-0.61-0.652c-0.081-0.307,0.02-0.505,0.313-0.608c0.146-0.053,0.301-0.079,0.445-0.136
			c0.132-0.051,0.229-0.149,0.27-0.293c0.059-0.208-0.023-0.392-0.228-0.454c-0.198-0.059-0.399-0.111-0.61-0.095
			c-0.704,0.058-1.348,0.279-1.898,0.732c-0.265,0.22-0.51,0.464-0.763,0.697c-0.203,0.187-0.403,0.378-0.61,0.56
			c-0.227,0.198-0.499,0.305-0.795,0.344c-0.37,0.047-0.55-0.069-0.663-0.42c-0.059-0.182-0.087-0.367-0.087-0.561
			c0.003-1.919,1.098-3.294,2.975-3.779C28.835,96.489,29.406,96.504,29.974,96.512z M62.792,33.546c0-0.008,0-0.016,0-0.024
			c-0.225,0-0.449-0.002-0.673,0c-0.655,0.005-1.31,0.007-1.958,0.124c-0.44,0.079-0.884,0.135-1.326,0.211
			c-0.678,0.118-1.361,0.219-2.031,0.373c-1.936,0.445-3.802,1.097-5.602,1.942c-4.728,2.222-8.633,5.458-11.815,9.585
			c-1.745,2.263-3.182,4.71-4.344,7.321c-1.103,2.48-1.945,5.046-2.493,7.705c-0.397,1.925-0.679,3.866-0.84,5.826
			c-0.098,1.189-0.082,2.379-0.032,3.565c0.041,0.963,0.034,1.932,0.16,2.892c0.067,0.511,0.099,1.027,0.173,1.539
			c0.109,0.749,0.236,1.496,0.368,2.242c0.134,0.763,0.275,1.524,0.518,2.265c0.117,0.359,0.213,0.728,0.314,1.092
			c0.087,0.315,0.152,0.638,0.254,0.947c0.484,1.475,1.03,2.927,1.653,4.347c0.786,1.789,1.781,3.464,2.838,5.102
			c0.966,1.495,2.075,2.883,3.283,4.188c1.054,1.14,2.16,2.228,3.346,3.233c2.253,1.912,4.796,3.353,7.465,4.587
			c0.094,0.044,0.19,0.083,0.288,0.119c1.182,0.424,2.353,0.881,3.572,1.197c1.203,0.312,2.412,0.558,3.648,0.697
			c0.48,0.053,0.961,0.095,1.44,0.134c1.239,0.1,2.481,0.083,3.721,0.024c0.052-0.003,0.104-0.019,0.153-0.026
			c0.597-0.085,1.191-0.183,1.79-0.253c0.941-0.108,1.879-0.252,2.801-0.464c2.775-0.643,5.38-1.712,7.829-3.161
			c2.658-1.573,5.037-3.496,7.144-5.756c2.153-2.31,3.92-4.893,5.429-7.658c0.412-0.757,0.741-1.556,1.108-2.335
			c0.849-1.798,1.479-3.674,1.998-5.589c0.376-1.381,0.65-2.784,0.864-4.198c0.208-1.381,0.409-2.761,0.413-4.161
			c0-0.154,0.019-0.309,0.029-0.465c0.09-1.24,0.085-2.482,0.006-3.721c-0.05-0.773-0.15-1.543-0.207-2.317
			c-0.056-0.754-0.165-1.503-0.324-2.247c-0.166-0.773-0.289-1.556-0.484-2.325c-0.396-1.552-0.776-3.106-1.355-4.606
			c-0.915-2.368-1.954-4.672-3.315-6.824c-1.921-3.038-4.177-5.785-6.945-8.09c-2.224-1.852-4.632-3.42-7.277-4.601
			c-1.541-0.688-3.128-1.265-4.775-1.662c-0.971-0.233-1.954-0.416-2.942-0.548c-0.784-0.105-1.576-0.169-2.367-0.219
			C63.793,33.521,63.292,33.546,62.792,33.546z M24.788,69.186c0-0.317-0.001-0.593,0-0.867c0.002-1.133-1.155-1.854-2.112-1.619
			c-0.702,0.173-1.326,0.484-1.85,0.977c-0.517,0.486-0.943,1.052-1.278,1.678c-0.428,0.799-0.676,1.652-0.777,2.552
			c-0.209,1.86,0.091,3.602,1.187,5.16c0.268,0.38,0.514,0.773,0.729,1.188c0.197,0.382,0.417,0.753,0.638,1.122
			c0.132,0.222,0.287,0.43,0.484,0.601c0.079,0.068,0.157,0.063,0.217-0.021c0.232-0.323,0.417-0.673,0.59-1.029
			c0.225-0.466,0.465-0.922,0.737-1.362c0.09-0.146,0.168-0.301,0.263-0.444c0.152-0.231,0.165-0.427-0.061-0.635
			c-0.244-0.228-0.31-0.527-0.243-0.855c0.02-0.101,0.025-0.205,0.056-0.303c0.076-0.236,0.082-0.476,0.062-0.717
			c-0.017-0.205-0.046-0.41-0.074-0.614c-0.055-0.391,0.032-0.751,0.217-1.095c0.069-0.131,0.17-0.21,0.32-0.231
			c0.272-0.039,0.416,0.03,0.55,0.273c0.085,0.155,0.124,0.317,0.098,0.496c-0.025,0.171-0.042,0.343-0.048,0.515
			c-0.004,0.102,0.005,0.208,0.03,0.307c0.043,0.164,0.255,0.303,0.443,0.292c0.143-0.006,0.194-0.128,0.246-0.234
			c0.111-0.236,0.173-0.486,0.191-0.746c0.036-0.499,0.041-1.001-0.02-1.497c-0.061-0.494-0.149-0.988-0.43-1.421
			c-0.167-0.257-0.216-0.537-0.197-0.839C24.772,69.592,24.779,69.367,24.788,69.186z M101.992,71.375c0.001,0,0.003,0,0.003,0
			c0,0.311-0.005,0.619,0.002,0.93c0.006,0.316,0.11,0.607,0.257,0.884c0.065,0.125,0.172,0.16,0.303,0.146
			c0.219-0.024,0.349-0.148,0.354-0.367c0.005-0.207-0.021-0.412-0.021-0.62c-0.002-0.171-0.007-0.346,0.026-0.513
			c0.045-0.224,0.213-0.347,0.43-0.397c0.188-0.046,0.343,0.039,0.455,0.177c0.087,0.104,0.159,0.228,0.208,0.354
			c0.125,0.325,0.203,0.668,0.133,1.012c-0.1,0.487-0.066,0.959,0.068,1.429c0.096,0.333,0.024,0.624-0.233,0.845
			c-0.197,0.169-0.197,0.337-0.083,0.538c0.052,0.09,0.099,0.182,0.157,0.268c0.393,0.587,0.744,1.198,1.055,1.834
			c0.128,0.263,0.285,0.512,0.481,0.73c0.084,0.095,0.168,0.095,0.267,0.008c0.249-0.222,0.423-0.499,0.563-0.796
			c0.405-0.857,0.865-1.684,1.389-2.474c0.085-0.131,0.162-0.265,0.235-0.402c0.152-0.289,0.276-0.59,0.363-0.908
			c0.443-1.608,0.374-3.2-0.14-4.778c-0.347-1.064-0.895-2.012-1.712-2.788c-0.471-0.446-1.017-0.767-1.648-0.925
			c-0.406-0.102-0.827-0.127-1.224,0.008c-0.608,0.206-1.101,0.688-1.153,1.501c-0.02,0.309-0.001,0.617,0.049,0.926
			c0.101,0.613,0.043,1.202-0.323,1.731c-0.019,0.028-0.032,0.061-0.051,0.09c-0.149,0.24-0.219,0.5-0.211,0.786
			C101.998,70.858,101.992,71.116,101.992,71.375z M55.523,9.346c-0.43,0.038-0.879,0.061-1.321,0.123
			c-0.323,0.046-0.64,0.14-0.933,0.294c-0.586,0.307-1.077,0.74-1.559,1.185c-0.038,0.035-0.067,0.079-0.099,0.119
			c-0.227,0.297-0.281,0.624-0.151,0.975c0.054,0.145,0.117,0.288,0.188,0.425c0.087,0.168,0.192,0.327,0.279,0.495
			c0.294,0.565,0.395,1.163,0.34,1.8c-0.049,0.57-0.199,1.118-0.297,1.678c-0.07,0.406-0.163,0.812-0.115,1.23
			c0.084,0.73,0.392,1.35,0.914,1.865c0.332,0.328,0.691,0.625,1.074,0.89c0.652,0.451,1.315,0.886,1.979,1.321
			c0.36,0.236,0.734,0.452,1.13,0.624c0.284,0.125,0.57,0.248,0.883,0.276c0.553,0.049,0.934-0.257,0.999-0.806
			c0.037-0.311,0.016-0.619-0.074-0.921c-0.27-0.906-0.697-1.724-1.366-2.401c-0.326-0.332-0.656-0.661-0.997-0.978
			c-0.368-0.341-0.703-0.712-1.029-1.09c-0.317-0.367-0.578-0.772-0.781-1.213c-0.223-0.485-0.281-0.995-0.21-1.516
			c0.077-0.562,0.35-1.007,0.856-1.282c0.242-0.131,0.494-0.248,0.751-0.343c0.468-0.174,0.943-0.329,1.415-0.491
			c0.295-0.102,0.573-0.234,0.819-0.43c0.169-0.135,0.217-0.304,0.167-0.505c-0.073-0.296-0.229-0.537-0.475-0.719
			c-0.281-0.209-0.602-0.326-0.937-0.42C56.504,9.397,56.017,9.431,55.523,9.346z M70.105,9.216c-0.31,0-0.621-0.015-0.93,0.003
			c-0.681,0.041-1.252,0.344-1.76,0.78c-0.064,0.055-0.118,0.125-0.166,0.197c-0.252,0.372-0.177,0.74,0.221,0.959
			c0.225,0.123,0.471,0.21,0.715,0.291c0.458,0.151,0.921,0.285,1.382,0.428c0.346,0.108,0.676,0.256,0.982,0.449
			c0.438,0.275,0.678,0.673,0.725,1.189c0.049,0.542-0.014,1.065-0.249,1.562c-0.184,0.392-0.409,0.757-0.672,1.1
			c-0.327,0.424-0.691,0.814-1.062,1.201c-0.379,0.399-0.759,0.799-1.13,1.206c-0.599,0.654-0.945,1.436-1.101,2.3
			c-0.063,0.355-0.084,0.719,0.06,1.07c0.13,0.32,0.362,0.485,0.713,0.495c0.319,0.009,0.611-0.082,0.899-0.201
			c0.479-0.198,0.924-0.464,1.347-0.762c0.634-0.447,1.264-0.898,1.888-1.356c0.278-0.204,0.546-0.422,0.801-0.654
			c0.844-0.765,1.167-1.716,0.997-2.842c-0.049-0.325-0.118-0.643-0.212-0.956c-0.169-0.565-0.235-1.141-0.254-1.731
			c-0.019-0.577,0.13-1.087,0.426-1.568c0.1-0.162,0.199-0.323,0.287-0.49c0.22-0.412,0.174-0.807-0.139-1.147
			c-0.604-0.656-1.294-1.18-2.177-1.416C71.17,9.183,70.638,9.214,70.105,9.216z M71.146,122.283
			c0.711-0.056,1.419-0.166,2.078-0.504c0.612-0.313,1.037-0.788,1.295-1.417c0.158-0.385,0.242-0.787,0.275-1.203
			c0.078-0.98-0.148-1.843-0.931-2.503c-0.172-0.145-0.331-0.303-0.487-0.462c-0.252-0.254-0.388-0.562-0.438-0.916
			c-0.03-0.217,0.054-0.352,0.238-0.465c0.377-0.231,0.742-0.244,1.115-0.003c0.174,0.112,0.35,0.219,0.527,0.326
			c0.135,0.081,0.279,0.134,0.439,0.132c0.152-0.002,0.265-0.063,0.324-0.209c0.103-0.247,0.117-0.5,0.05-0.759
			c-0.084-0.324-0.244-0.604-0.474-0.848c-0.325-0.348-0.725-0.592-1.178-0.715c-0.436-0.12-0.888-0.107-1.325,0.033
			c-0.365,0.116-0.576,0.359-0.581,0.759c-0.002,0.189-0.012,0.379-0.015,0.569c-0.005,0.278-0.126,0.487-0.35,0.655
			c-0.438,0.326-0.92,0.436-1.459,0.366c-0.417-0.054-0.751-0.247-1.038-0.532c-0.296-0.292-0.644-0.319-1.003-0.199
			c-0.477,0.158-0.915,0.403-1.318,0.699c-0.261,0.189-0.414,0.454-0.415,0.793c-0.004,0.711,0.533,1.112,1.209,0.895
			c0.197-0.063,0.388-0.145,0.579-0.22c0.148-0.058,0.303-0.066,0.459-0.041c0.323,0.052,0.478,0.236,0.481,0.564
			c0.001,0.156-0.02,0.309-0.083,0.453c-0.083,0.189-0.154,0.386-0.253,0.565c-0.259,0.477-0.404,0.991-0.469,1.521
			c-0.138,1.124,0.338,2.047,1.512,2.452C70.308,122.208,70.719,122.244,71.146,122.283z M57.652,122.437
			c0.134-0.009,0.376-0.011,0.615-0.043c0.482-0.063,0.937-0.211,1.352-0.476c0.532-0.34,0.814-0.827,0.872-1.448
			c0.045-0.487-0.002-0.965-0.192-1.42c-0.146-0.35-0.3-0.695-0.453-1.042c-0.09-0.204-0.189-0.405-0.229-0.629
			c-0.061-0.35,0.08-0.564,0.43-0.637c0.241-0.049,0.478-0.021,0.714,0.046c0.181,0.052,0.367,0.087,0.553,0.125
			c0.424,0.082,0.684-0.138,0.876-0.481c0.147-0.262,0.153-0.523,0.018-0.789c-0.087-0.171-0.201-0.322-0.344-0.449
			c-0.394-0.352-0.853-0.582-1.361-0.71c-0.333-0.083-0.652-0.036-0.933,0.175c-0.124,0.093-0.24,0.195-0.361,0.294
			c-0.189,0.152-0.394,0.289-0.638,0.32c-0.414,0.054-0.825,0.04-1.225-0.099c-0.417-0.145-0.654-0.431-0.691-0.873
			c-0.014-0.172-0.009-0.346-0.027-0.516c-0.038-0.359-0.222-0.612-0.57-0.726c-0.364-0.118-0.73-0.182-1.117-0.101
			c-0.778,0.167-1.312,0.656-1.727,1.295c-0.131,0.204-0.168,0.45-0.149,0.698c0.041,0.515,0.333,0.841,0.907,0.455
			c0.186-0.124,0.37-0.254,0.562-0.366c0.369-0.215,0.716-0.165,1.061,0.08c0.232,0.164,0.286,0.371,0.232,0.629
			c-0.028,0.138-0.094,0.26-0.18,0.368c-0.148,0.19-0.299,0.379-0.456,0.562c-0.234,0.276-0.474,0.547-0.711,0.82
			c-0.235,0.271-0.367,0.586-0.38,0.94c-0.015,0.378-0.038,0.761,0.003,1.136c0.142,1.3,0.814,2.198,2.067,2.642
			C56.62,122.376,57.079,122.419,57.652,122.437z M104.5,48.026c0.26-0.011,0.499-0.018,0.728-0.115
			c0.423-0.178,0.569-0.451,0.479-0.903c-0.043-0.209-0.148-0.384-0.265-0.556c-0.24-0.359-0.542-0.671-0.836-0.982
			c-0.802-0.845-1.694-1.566-2.794-1.995c-0.63-0.246-1.281-0.377-1.952-0.457c-0.744-0.089-1.479-0.071-2.211,0.06
			c-0.2,0.035-0.396,0.115-0.583,0.199c-0.318,0.145-0.508,0.394-0.567,0.748c-0.043,0.256-0.067,0.512-0.065,0.77
			c0.002,0.133-0.045,0.237-0.173,0.288c-0.24,0.096-0.294,0.263-0.212,0.498c0.033,0.097,0.041,0.202,0.062,0.303
			c0.159,0.792,0.313,1.585,0.663,2.326c0.251,0.529,0.425,1.088,0.578,1.655c0.09,0.331,0.206,0.656,0.332,0.976
			c0.119,0.307,0.296,0.583,0.529,0.819c0.176,0.177,0.385,0.287,0.624,0.346c0.128,0.032,0.202-0.011,0.224-0.135
			c0.027-0.153,0.042-0.308,0.076-0.458c0.148-0.651,0.629-1.033,1.294-1.024c0.153,0.002,0.307,0.039,0.46,0.056
			c0.172,0.02,0.273-0.072,0.25-0.235c-0.021-0.135-0.066-0.266-0.097-0.4c-0.054-0.234-0.121-0.467-0.152-0.705
			c-0.046-0.34,0.021-0.458,0.349-0.592c0.386-0.158,0.534-0.295,0.396-0.858c-0.032-0.134-0.095-0.259-0.129-0.393
			c-0.029-0.115-0.044-0.235-0.054-0.354c-0.01-0.108,0.034-0.203,0.11-0.28c0.452-0.463,1.034-0.468,1.439,0.011
			c0.146,0.172,0.246,0.373,0.35,0.571c0.087,0.167,0.184,0.331,0.29,0.486c0.135,0.195,0.328,0.299,0.567,0.313
			C104.312,48.014,104.415,48.021,104.5,48.026z M60.713,21.404c-0.034,0.443,0.089,0.958,0.302,1.457
			c0.054,0.126,0.104,0.255,0.161,0.38c0.174,0.381,0.273,0.777,0.286,1.198c0.008,0.292,0.039,0.585,0.069,0.876
			c0.049,0.481,0.288,0.758,0.769,0.836c0.459,0.075,0.923,0.104,1.389,0.023c0.366-0.063,0.592-0.271,0.675-0.623
			c0.044-0.182,0.051-0.375,0.063-0.563c0.049-0.776,0.132-1.54,0.469-2.262c0.285-0.612,0.311-1.276,0.2-1.928
			c-0.17-1.01-0.089-1.991,0.224-2.958c0.109-0.344,0.216-0.69,0.342-1.029c0.124-0.333,0.059-0.605-0.202-0.84
			c-0.385-0.349-0.706-0.749-1.009-1.173c-0.308-0.43-0.478-0.565-0.965-0.027c-0.116,0.127-0.215,0.27-0.366,0.362
			c-0.24,0.147-0.448,0.14-0.664-0.044c-0.118-0.101-0.22-0.218-0.33-0.328c-0.11-0.109-0.219-0.218-0.359-0.292
			c-0.108-0.058-0.199-0.038-0.286,0.031c-0.054,0.042-0.103,0.093-0.145,0.147c-0.373,0.475-0.736,0.956-1.117,1.424
			c-0.228,0.28-0.297,0.56-0.159,0.907c0.186,0.463,0.345,0.938,0.505,1.411c0.229,0.68,0.309,1.377,0.211,2.089
			C60.739,20.752,60.723,21.026,60.713,21.404z M27.729,44.151c0,0.011,0,0.022,0,0.033c-0.276,0-0.552-0.009-0.827,0.001
			c-0.909,0.037-1.765,0.272-2.569,0.698c-1.099,0.583-2.012,1.382-2.766,2.368c-0.179,0.235-0.33,0.485-0.445,0.755
			c-0.074,0.173-0.138,0.353-0.15,0.546c-0.02,0.302,0.034,0.398,0.297,0.534c0.337,0.173,0.7,0.149,1.062,0.153
			c0.303,0.002,0.537-0.127,0.704-0.364c0.139-0.195,0.249-0.412,0.367-0.621c0.076-0.135,0.132-0.282,0.217-0.41
			c0.27-0.404,0.688-0.521,1.127-0.327c0.416,0.185,0.571,0.547,0.438,1.031c-0.037,0.132-0.097,0.259-0.129,0.392
			c-0.078,0.312,0.029,0.536,0.315,0.683c0.045,0.024,0.099,0.032,0.146,0.053c0.307,0.136,0.325,0.163,0.306,0.507
			c-0.006,0.103-0.022,0.206-0.042,0.307c-0.045,0.237-0.103,0.471-0.144,0.708c-0.068,0.396,0.032,0.468,0.359,0.367
			c0.033-0.01,0.066-0.021,0.1-0.028c0.779-0.164,1.445,0.362,1.592,1.048c0.022,0.101,0.028,0.205,0.048,0.306
			c0.02,0.096,0.076,0.144,0.183,0.127c0.362-0.053,0.636-0.243,0.855-0.527c0.236-0.308,0.369-0.661,0.455-1.033
			c0.19-0.824,0.472-1.618,0.76-2.412c0.176-0.484,0.318-0.983,0.438-1.484c0.088-0.366,0.158-0.742,0.147-1.125
			c-0.003-0.109-0.022-0.217-0.133-0.256c-0.365-0.132-0.42-0.419-0.396-0.751c0.004-0.051-0.001-0.104-0.003-0.155
			c-0.029-0.639-0.264-0.903-0.822-1.016c-0.151-0.031-0.304-0.059-0.458-0.068C28.419,44.172,28.074,44.165,27.729,44.151z
			 M44.985,21.634c0,0,0,0.001,0,0.001c-0.276,0-0.552,0.003-0.828,0c-0.212-0.002-0.414,0.05-0.601,0.138
			c-0.407,0.19-0.653,0.496-0.635,0.971c0.003,0.086,0.004,0.172,0.007,0.259c0.014,0.429-0.113,0.815-0.345,1.17
			c-0.066,0.101-0.137,0.199-0.202,0.3c-0.103,0.159-0.113,0.33-0.018,0.489c0.105,0.177,0.212,0.36,0.354,0.506
			c0.486,0.498,0.859,1.075,1.212,1.669c0.105,0.177,0.224,0.348,0.344,0.516c0.12,0.169,0.26,0.321,0.427,0.447
			c0.321,0.242,0.666,0.284,1.013,0.081c0.645-0.376,0.776-0.704,0.629-1.311c-0.041-0.168-0.075-0.336-0.109-0.505
			c-0.039-0.189-0.054-0.383,0.03-0.559c0.207-0.435,0.401-0.875,0.765-1.215c0.555-0.517,1.094-1.051,1.65-1.567
			c0.513-0.477,0.87-1.065,1.208-1.666c0.075-0.134,0.113-0.288,0.163-0.435c0.144-0.422,0.071-0.818-0.167-1.185
			c-0.14-0.216-0.298-0.421-0.458-0.624c-0.268-0.339-0.53-0.679-0.691-1.086c-0.131-0.331-0.396-0.518-0.726-0.609
			c-0.214-0.059-0.438-0.1-0.66-0.116c-0.728-0.049-1.445,0.032-2.151,0.209c-0.25,0.062-0.494,0.149-0.723,0.273
			c-0.25,0.138-0.438,0.331-0.552,0.595c-0.065,0.149-0.076,0.296-0.026,0.453c0.111,0.353,0.295,0.512,0.674,0.527
			c0.292,0.011,0.586-0.007,0.879-0.02c0.28-0.013,0.551,0.03,0.811,0.129c0.562,0.215,0.905,0.705,0.913,1.25
			c0.003,0.231-0.084,0.395-0.258,0.531c-0.31,0.243-0.667,0.356-1.053,0.378C45.571,21.647,45.278,21.634,44.985,21.634z
			 M80.776,21.108c0,0.004,0,0.008,0,0.011c-0.327,0-0.655,0.007-0.982-0.002c-0.297-0.008-0.581-0.082-0.832-0.249
			c-0.321-0.213-0.478-0.622-0.317-0.949c0.284-0.582,0.701-1.025,1.391-1.109c0.255-0.031,0.511-0.058,0.772-0.025
			c0.202,0.026,0.411,0.032,0.614-0.035c0.219-0.07,0.348-0.208,0.384-0.437c0.058-0.372-0.045-0.68-0.348-0.915
			c-0.249-0.192-0.532-0.317-0.828-0.413c-0.649-0.209-1.317-0.235-1.993-0.228c-0.351,0.004-0.678,0.075-1.006,0.199
			c-0.239,0.091-0.436,0.223-0.55,0.441c-0.354,0.672-0.759,1.311-1.179,1.942c-0.264,0.396-0.264,0.844-0.097,1.292
			c0.124,0.326,0.306,0.618,0.509,0.896c0.492,0.671,1.069,1.263,1.713,1.787c0.457,0.37,0.911,0.738,1.293,1.189
			c0.408,0.482,0.564,1.016,0.381,1.633c-0.06,0.201-0.069,0.408-0.055,0.615c0.052,0.698,0.872,1.163,1.497,0.851
			c0.253-0.126,0.448-0.321,0.618-0.54c0.212-0.273,0.382-0.573,0.542-0.879c0.224-0.429,0.468-0.841,0.827-1.179
			c0.137-0.128,0.232-0.298,0.35-0.447c0.209-0.268,0.183-0.543,0.027-0.821c-0.041-0.075-0.092-0.147-0.151-0.209
			c-0.277-0.292-0.369-0.653-0.394-1.041c-0.006-0.103-0.012-0.206-0.014-0.31c-0.01-0.737-0.423-0.929-0.933-1.042
			c-0.134-0.029-0.274-0.026-0.413-0.028C81.328,21.106,81.053,21.108,80.776,21.108z M33.275,43.456c0.017,0,0.034,0,0.052,0
			c0.356-0.013,0.413-0.052,0.497-0.393c0.065-0.268,0.113-0.539,0.171-0.808c0.269-1.247,0.936-2.205,2.055-2.834
			c0.225-0.127,0.451-0.254,0.67-0.39c0.175-0.108,0.351-0.22,0.511-0.349c0.384-0.311,0.586-0.717,0.579-1.215
			c-0.004-0.258-0.027-0.515-0.042-0.772c-0.01-0.154-0.032-0.309-0.028-0.463c0.006-0.227,0.118-0.395,0.331-0.48
			c0.16-0.063,0.324-0.112,0.486-0.169c0.129-0.046,0.263-0.085,0.384-0.149c0.149-0.078,0.215-0.211,0.203-0.386
			c-0.034-0.495-0.334-0.812-0.855-0.875c-0.55-0.067-1.062,0.039-1.519,0.368c-0.253,0.183-0.474,0.398-0.682,0.629
			c-0.23,0.256-0.464,0.509-0.701,0.759c-0.202,0.214-0.435,0.39-0.684,0.548c-1.047,0.663-2.095,1.327-3.14,1.994
			c-0.871,0.555-1.744,1.106-2.674,1.562c-0.262,0.128-0.512,0.287-0.752,0.451c-0.198,0.135-0.38,0.296-0.56,0.455
			c-0.089,0.08-0.165,0.177-0.235,0.274c-0.096,0.13-0.063,0.237,0.088,0.269c0.185,0.038,0.373,0.067,0.561,0.085
			c0.171,0.016,0.344,0.009,0.516,0.015c0.916,0.031,1.763,0.279,2.522,0.803c0.24,0.166,0.482,0.332,0.727,0.494
			c0.273,0.18,0.56,0.336,0.865,0.458C32.831,43.421,33.048,43.463,33.275,43.456z M88.543,36.1c0,0.231,0,0.386,0,0.542
			c0,0.19,0.018,0.375,0.083,0.559c0.115,0.323,0.33,0.559,0.603,0.753c0.296,0.211,0.626,0.36,0.945,0.53
			c0.395,0.209,0.784,0.43,1.123,0.729c0.57,0.503,1.376,2.151,1.396,2.881c0.012,0.397,0.236,0.551,0.622,0.477
			c0.135-0.026,0.268-0.069,0.395-0.12c0.369-0.145,0.725-0.318,1.045-0.557c0.234-0.175,0.469-0.351,0.712-0.514
			c0.892-0.596,1.858-0.97,2.95-0.951c0.188,0.003,0.378-0.007,0.567-0.018c0.135-0.008,0.181-0.095,0.121-0.208
			c-0.141-0.266-0.357-0.461-0.589-0.642c-0.328-0.255-0.691-0.452-1.058-0.645c-1.095-0.58-2.216-1.113-3.256-1.792
			c-0.52-0.339-1.06-0.642-1.618-0.91c-0.754-0.361-1.421-0.841-1.993-1.452c-0.152-0.164-0.307-0.327-0.47-0.48
			c-0.188-0.177-0.371-0.364-0.584-0.506c-0.502-0.337-1.047-0.519-1.662-0.362c-0.514,0.131-0.75,0.462-0.709,0.978
			c0.014,0.173,0.097,0.277,0.25,0.357c0.207,0.107,0.432,0.122,0.649,0.16c0.262,0.046,0.385,0.201,0.438,0.443
			C88.562,35.625,88.535,35.902,88.543,36.1z M102.797,81.731c0-0.173,0.008-0.345-0.001-0.517c-0.024-0.471-0.143-0.919-0.327-1.35
			c-0.11-0.257-0.268-0.483-0.485-0.661c-0.297-0.242-0.66-0.21-0.921,0.074c-0.183,0.198-0.279,0.435-0.299,0.7
			c-0.018,0.276-0.006,0.55,0.054,0.823c0.107,0.504,0.201,1.012,0.305,1.52c0.045,0.225,0.031,0.444-0.034,0.664
			c-0.029,0.102-0.071,0.193-0.159,0.258c-0.25,0.182-0.471,0.413-0.762,0.529c-0.433,0.175-0.684,0.493-0.848,0.918
			c-0.29,0.756-0.608,1.5-0.902,2.254c-0.239,0.615-0.405,1.246-0.34,1.917c0.007,0.068,0.002,0.139,0.006,0.207
			c0.014,0.258-0.076,0.476-0.265,0.646c-0.166,0.15-0.336,0.298-0.516,0.431c-0.611,0.461-0.992,1.091-1.328,1.757
			c-0.014,0.029-0.026,0.065-0.029,0.099c-0.004,0.08,0.043,0.135,0.116,0.142c0.083,0.009,0.172,0.008,0.254-0.012
			c0.289-0.068,0.546-0.208,0.787-0.379c0.467-0.329,0.891-0.709,1.275-1.129c0.479-0.521,0.946-1.051,1.416-1.578
			c0.253-0.284,0.47-0.595,0.654-0.929c0.729-1.313,1.343-2.68,1.916-4.065C102.671,83.31,102.812,82.533,102.797,81.731z
			 M37.594,31.013c0.002,0,0.005,0,0.008,0c0,0.172-0.002,0.344,0,0.517c0.001,0.103,0.006,0.207,0.015,0.31
			c0.045,0.512,0.194,0.67,0.686,0.739c0.239,0.034,0.479,0.06,0.715,0.109c0.811,0.171,1.541,0.489,2.077,1.159
			c0.086,0.107,0.187,0.202,0.289,0.295c0.123,0.112,0.204,0.108,0.291-0.042c0.291-0.498,0.736-0.811,1.232-1.069
			c0.777-0.408,1.541-0.847,2.396-1.08c0.083-0.022,0.164-0.055,0.24-0.094c0.39-0.201,0.718-0.471,0.937-0.859
			c0.036-0.062-0.008-0.15-0.077-0.154c-0.243-0.016-0.478,0.029-0.717,0.065c-1.105,0.17-2.128-0.027-3.021-0.734
			c-0.256-0.202-0.495-0.429-0.73-0.655c-0.237-0.226-0.459-0.467-0.689-0.699c-0.159-0.161-0.337-0.295-0.545-0.386
			c-0.321-0.143-0.626-0.108-0.849,0.141c-0.309,0.344-0.691,0.566-1.102,0.75c-0.236,0.105-0.475,0.206-0.722,0.28
			c-0.274,0.083-0.39,0.253-0.396,0.53C37.627,30.428,37.607,30.72,37.594,31.013z M88.555,30.35
			c-0.014-0.276-0.021-0.637-0.053-0.997c-0.023-0.282-0.156-0.439-0.469-0.516c-0.634-0.155-1.242-0.372-1.727-0.866
			c-0.37-0.378-0.725-0.369-1.162-0.072c-0.099,0.067-0.193,0.144-0.278,0.229c-0.191,0.197-0.39,0.392-0.56,0.607
			c-0.435,0.551-0.976,0.967-1.58,1.309c-0.378,0.214-0.777,0.373-1.218,0.391c-0.411,0.017-0.823,0.015-1.234-0.059
			c-0.168-0.03-0.342-0.028-0.514-0.034c-0.069-0.003-0.106,0.081-0.079,0.15c0.089,0.215,0.248,0.37,0.433,0.501
			c0.239,0.171,0.504,0.296,0.778,0.397c0.34,0.125,0.681,0.244,1.016,0.376c0.658,0.26,1.295,0.561,1.895,0.936
			c0.206,0.127,0.399,0.269,0.546,0.469c0.099,0.136,0.146,0.364,0.319,0.381c0.205,0.022,0.294-0.207,0.42-0.343
			c0.045-0.051,0.089-0.104,0.133-0.157c0.377-0.447,0.84-0.752,1.403-0.92c0.495-0.147,0.991-0.281,1.497-0.382
			c0.323-0.064,0.363-0.103,0.389-0.439C88.531,31.021,88.538,30.729,88.555,30.35z M26.849,81.452c0-0.155,0.005-0.311-0.001-0.465
			c-0.008-0.178-0.088-0.332-0.191-0.472c-0.271-0.366-0.639-0.411-0.977-0.114c-0.089,0.079-0.168,0.175-0.238,0.271
			c-0.312,0.429-0.492,0.907-0.538,1.433c-0.057,0.657-0.011,1.307,0.164,1.945c0.173,0.634,0.396,1.247,0.672,1.842
			c0.45,0.968,0.947,1.913,1.466,2.847c0.268,0.481,0.565,0.949,0.938,1.358c0.545,0.599,1.102,1.186,1.664,1.768
			c0.324,0.334,0.69,0.622,1.086,0.87c0.281,0.177,0.587,0.285,0.909,0.353c0.169,0.034,0.26-0.068,0.214-0.241
			c-0.013-0.05-0.026-0.102-0.052-0.145c-0.339-0.558-0.644-1.146-1.251-1.479c-0.12-0.065-0.223-0.161-0.333-0.243
			c-0.403-0.301-0.615-0.696-0.554-1.204c0.067-0.554-0.088-1.058-0.302-1.552c-0.329-0.757-0.715-1.49-0.963-2.281
			c-0.01-0.033-0.028-0.062-0.041-0.096c-0.22-0.518-0.568-0.896-1.125-1.057c-0.098-0.027-0.194-0.069-0.288-0.111
			c-0.183-0.082-0.308-0.221-0.364-0.412c-0.038-0.133-0.08-0.267-0.087-0.402c-0.018-0.344-0.017-0.687,0.037-1.03
			C26.762,82.375,26.87,81.92,26.849,81.452z M102.001,61.523c-0.003,0-0.007,0-0.01,0c0,0.275-0.005,0.552,0.002,0.827
			c0.004,0.189,0.075,0.251,0.255,0.232c0.101-0.011,0.201-0.04,0.304-0.054c0.845-0.113,1.682-0.099,2.506,0.153
			c0.608,0.187,1.126,0.511,1.532,1.003c0.262,0.32,0.521,0.643,0.773,0.969c0.201,0.261,0.419,0.503,0.664,0.722
			c0.247,0.222,0.528,0.387,0.838,0.501c0.211,0.077,0.334,0.005,0.383-0.207c0.023-0.101,0.04-0.204,0.042-0.306
			c0.003-0.465,0.01-0.931-0.004-1.396c-0.014-0.453-0.114-0.884-0.382-1.267c-0.607-0.874-1.412-1.446-2.474-1.631
			c-0.186-0.032-0.371-0.071-0.56-0.096c-0.153-0.021-0.248-0.107-0.307-0.242c-0.041-0.095-0.08-0.191-0.108-0.29
			c-0.07-0.248-0.248-0.362-0.489-0.394c-0.119-0.017-0.241-0.021-0.359-0.016c-0.348,0.016-0.641-0.11-0.905-0.321
			c-0.067-0.053-0.132-0.111-0.198-0.165c-0.373-0.301-0.527-0.279-0.924-0.016c-0.225,0.148-0.361,0.369-0.453,0.614
			c-0.069,0.194-0.126,0.394-0.126,0.604C102.001,61.006,102.001,61.265,102.001,61.523z M17.96,65.864c-0.003,0-0.006,0-0.009,0
			c0,0.172-0.003,0.344,0,0.516c0.005,0.206,0.006,0.414,0.029,0.618c0.024,0.211,0.158,0.293,0.366,0.247
			c0.205-0.045,0.381-0.157,0.555-0.267c0.355-0.228,0.611-0.553,0.86-0.883c0.208-0.275,0.397-0.562,0.606-0.836
			c0.505-0.658,1.124-1.16,1.943-1.374c0.401-0.104,0.807-0.17,1.223-0.164c0.447,0.008,0.895,0.013,1.342,0.013
			c0.166,0,0.217-0.05,0.225-0.213c0.026-0.534,0.033-1.068-0.028-1.599c-0.036-0.308-0.116-0.607-0.286-0.876
			c-0.335-0.53-0.952-0.609-1.396-0.178c-0.038,0.036-0.072,0.075-0.107,0.113c-0.172,0.184-0.379,0.287-0.634,0.303
			c-0.223,0.015-0.444,0.051-0.667,0.076c-0.152,0.017-0.255,0.099-0.31,0.237c-0.044,0.112-0.074,0.229-0.108,0.343
			c-0.059,0.2-0.181,0.325-0.393,0.359c-0.17,0.027-0.339,0.062-0.506,0.101c-0.774,0.182-1.44,0.566-1.99,1.132
			c-0.458,0.471-0.746,1.029-0.717,1.712C17.968,65.45,17.96,65.658,17.96,65.864z M85.762,105.27
			c0.029-0.009,0.067-0.008,0.086-0.026c0.086-0.086,0.164-0.177,0.244-0.267c0.581-0.65,1.256-1.172,2.053-1.537
			c0.456-0.209,0.935-0.346,1.408-0.499c0.214-0.068,0.427-0.137,0.634-0.221c0.381-0.154,0.61-0.439,0.673-0.848
			c0.021-0.136,0.027-0.274,0.029-0.411c0.004-0.225,0.004-0.448-0.002-0.672c-0.013-0.581,0.205-1.078,0.571-1.512
			c0.176-0.21,0.383-0.396,0.593-0.572c0.41-0.346,0.867-0.621,1.335-0.879c0.226-0.125,0.455-0.249,0.641-0.433
			c0.031-0.031,0.05-0.087,0.056-0.133c0.006-0.071-0.063-0.079-0.109-0.081c-0.172-0.006-0.344-0.01-0.516-0.003
			c-0.33,0.014-0.652-0.017-0.968-0.115c-0.099-0.03-0.198-0.063-0.299-0.087c-0.153-0.036-0.225-0.007-0.295,0.131
			c-0.134,0.26-0.246,0.531-0.395,0.783c-0.296,0.507-0.668,0.96-1.069,1.39c-0.574,0.616-1.149,1.235-1.732,1.845
			c-0.311,0.322-0.63,0.637-0.962,0.937c-0.648,0.583-1.366,1.044-2.235,1.232c-0.134,0.028-0.265,0.079-0.389,0.136
			c-0.139,0.062-0.18,0.157-0.126,0.289c0.139,0.333,0.254,0.677,0.398,1.008c0.075,0.172,0.191,0.325,0.292,0.485
			C85.696,105.235,85.732,105.249,85.762,105.27z M35.195,31.874c0.008-0.439-0.228-1.234-0.519-1.592
			c-0.493-0.605-1.003-0.618-1.468,0.027c-0.118,0.164-0.184,0.367-0.264,0.556c-0.127,0.301-0.235,0.61-0.373,0.905
			c-0.178,0.383-0.455,0.631-0.915,0.637c-0.268,0.002-0.321,0.076-0.346,0.344c-0.028,0.308-0.053,0.617-0.067,0.926
			c-0.016,0.341-0.121,0.636-0.383,0.869c-0.128,0.115-0.228,0.258-0.302,0.415c-0.063,0.135-0.08,0.276,0.015,0.391
			c0.444,0.543,0.956,0.834,1.611,0.517c0.312-0.151,0.584-0.363,0.83-0.604c0.345-0.337,0.687-0.675,1.012-1.03
			c0.337-0.368,0.637-0.766,0.862-1.217C35.067,32.658,35.155,32.275,35.195,31.874z M91.025,30.698
			c0.028,0.811,0.262,1.556,0.765,2.201c0.521,0.669,1.152,1.226,1.85,1.708c0.128,0.087,0.263,0.167,0.402,0.23
			c0.674,0.305,0.87,0.281,1.382-0.209c0.074-0.071,0.149-0.143,0.217-0.222c0.15-0.18,0.162-0.327,0.027-0.513
			c-0.091-0.125-0.195-0.24-0.295-0.358c-0.302-0.354-0.467-0.755-0.443-1.229c0.008-0.188-0.002-0.379-0.022-0.566
			c-0.018-0.17-0.124-0.279-0.291-0.321c-0.066-0.018-0.137-0.033-0.204-0.028c-0.426,0.027-0.669-0.213-0.834-0.566
			c-0.139-0.295-0.271-0.593-0.399-0.894c-0.114-0.271-0.246-0.531-0.455-0.743c-0.25-0.254-0.58-0.298-0.894-0.121
			c-0.33,0.187-0.542,0.473-0.675,0.82C91.057,30.146,91.014,30.417,91.025,30.698z M43.305,104.44
			c0.023-0.236-0.01-0.292-0.165-0.341c-0.36-0.114-0.739-0.178-1.069-0.372c-0.534-0.315-1.069-0.627-1.542-1.033
			c-0.98-0.843-1.915-1.732-2.784-2.691c-0.566-0.622-1.136-1.249-1.423-2.07c-0.054-0.155-0.159-0.188-0.337-0.11
			c-0.451,0.197-0.925,0.256-1.41,0.265c-0.121,0.002-0.24,0.012-0.36,0.021c-0.047,0.004-0.116,0.003-0.11,0.07
			c0.003,0.043,0.039,0.097,0.076,0.121c0.213,0.145,0.429,0.288,0.649,0.42c0.325,0.193,0.657,0.377,0.982,0.569
			c0.283,0.168,0.536,0.373,0.767,0.609c0.568,0.58,0.898,1.254,0.848,2.085c-0.006,0.104,0.002,0.206-0.001,0.31
			c-0.025,0.677,0.296,1.061,0.909,1.276c0.226,0.08,0.458,0.149,0.693,0.196c0.686,0.135,1.318,0.384,1.888,0.793
			c0.139,0.1,0.285,0.191,0.435,0.277c0.408,0.233,0.769,0.52,1.063,0.89c0.042,0.053,0.095,0.1,0.146,0.145
			c0.064,0.056,0.13,0.04,0.173-0.027C43.028,105.39,43.209,104.892,43.305,104.44z M46.963,108.714
			c0.069,0,0.139-0.004,0.207,0.001c0.439,0.031,0.684,0.226,0.828,0.651c0.016,0.048,0.029,0.099,0.039,0.149
			c0.038,0.193,0.169,0.29,0.347,0.34c0.116,0.031,0.231,0.064,0.349,0.093c0.566,0.138,1.047,0.426,1.467,0.826
			c0.362,0.346,0.696,0.715,0.987,1.124c0.1,0.138,0.21,0.271,0.323,0.4c0.052,0.06,0.125,0.046,0.185,0
			c0.127-0.095,0.206-0.229,0.286-0.363c0.421-0.699,1.002-1.216,1.76-1.531c0.111-0.046,0.217-0.103,0.323-0.16
			c0.078-0.043,0.07-0.104-0.015-0.152c-0.03-0.017-0.059-0.036-0.09-0.05c-1.243-0.549-2.476-1.122-3.785-1.506
			c-0.626-0.184-1.257-0.362-1.868-0.591c-0.395-0.147-0.78-0.256-1.202-0.211c-0.288,0.03-0.541-0.052-0.776-0.219
			c-0.11-0.079-0.238-0.137-0.366-0.184c-0.122-0.047-0.248,0.023-0.288,0.148c-0.025,0.08-0.052,0.168-0.044,0.25
			c0.028,0.273,0.055,0.549,0.112,0.816c0.055,0.255,0.201,0.342,0.459,0.28C46.453,108.769,46.704,108.715,46.963,108.714z
			 M82.839,107.325c0-0.086,0.002-0.173-0.001-0.259c-0.009-0.236-0.148-0.344-0.371-0.277c-0.08,0.025-0.157,0.068-0.225,0.12
			c-0.287,0.217-0.607,0.312-0.968,0.29c-0.314-0.019-0.611,0.055-0.899,0.188c-0.249,0.117-0.508,0.214-0.771,0.297
			c-1.678,0.53-3.292,1.216-4.87,1.99c-0.062,0.03-0.123,0.061-0.181,0.099c-0.027,0.018-0.059,0.048-0.063,0.076
			c-0.008,0.055,0.024,0.102,0.078,0.114c0.869,0.219,1.454,0.82,1.995,1.48c0.056,0.066,0.103,0.14,0.162,0.203
			c0.113,0.121,0.193,0.329,0.376,0.312c0.127-0.012,0.147-0.217,0.232-0.324c0.044-0.054,0.084-0.108,0.129-0.161
			c0.298-0.357,0.58-0.729,0.9-1.065c0.443-0.467,0.94-0.869,1.596-0.99c0.373-0.068,0.668-0.174,0.618-0.635
			c-0.001-0.016,0.007-0.033,0.011-0.051c0.061-0.286,0.246-0.449,0.526-0.5c0.151-0.025,0.308-0.035,0.462-0.026
			c0.274,0.017,0.548,0.055,0.822,0.082c0.148,0.015,0.227-0.027,0.291-0.158C82.817,107.875,82.843,107.604,82.839,107.325z
			 M51.519,27.932c0.497,0.007,0.939-0.143,1.386-0.269c0.049-0.014,0.095-0.042,0.139-0.069c0.131-0.081,0.167-0.203,0.112-0.357
			c-0.075-0.216-0.222-0.388-0.349-0.571c-0.143-0.208-0.322-0.345-0.585-0.382c-0.203-0.029-0.227-0.084-0.208-0.278
			c0.007-0.068,0.027-0.136,0.033-0.204c0.05-0.7-0.299-0.86-0.841-0.684c-0.196,0.064-0.393,0.13-0.589,0.192
			c-0.097,0.03-0.171-0.014-0.213-0.098c-0.045-0.092-0.078-0.19-0.112-0.288c-0.105-0.307-0.308-0.485-0.638-0.523
			c-0.192-0.022-0.228-0.015-0.23,0.158c-0.003,0.362,0.012,0.724,0.001,1.086c-0.019,0.685,0.268,1.233,0.732,1.707
			C50.538,27.741,50.988,27.962,51.519,27.932z M76.5,24.959c-0.011-0.155-0.028-0.43-0.047-0.705
			c-0.014-0.22-0.107-0.286-0.357-0.205c-0.155,0.049-0.271,0.153-0.338,0.301c-0.044,0.094-0.073,0.194-0.117,0.287
			c-0.152,0.332-0.221,0.362-0.553,0.237c-0.178-0.067-0.349-0.141-0.546-0.144c-0.377-0.006-0.577,0.135-0.672,0.498
			c-0.047,0.183,0.036,0.334,0.105,0.494c0.068,0.161,0.037,0.221-0.135,0.242c-0.19,0.024-0.38,0.038-0.508,0.21
			c-0.194,0.266-0.35,0.552-0.437,0.873c-0.027,0.103,0.016,0.173,0.104,0.206c0.42,0.156,0.845,0.298,1.291,0.354
			c0.222,0.029,0.459,0.057,0.665-0.037c0.757-0.344,1.325-0.857,1.497-1.718C76.504,25.595,76.486,25.337,76.5,24.959z
			 M67.618,111.102c0,0.138,0.002,0.207,0,0.274c-0.009,0.298-0.312,0.571-0.614,0.544c-0.342-0.031-0.682-0.068-1.005-0.199
			c-0.127-0.052-0.264-0.082-0.397-0.109c-0.188-0.037-0.309,0.028-0.338,0.218c-0.081,0.525-0.146,1.053-0.216,1.58
			c-0.002,0.017,0.003,0.034,0.006,0.051c0.012,0.079,0.062,0.119,0.137,0.123c0.085,0.005,0.172,0.012,0.257,0
			c0.735-0.092,1.396-0.356,1.948-0.857c0.556-0.504,0.872-1.146,1.012-1.871c0.104-0.539-0.161-0.926-0.678-1.035
			c-0.114-0.024-0.253-0.062-0.346,0.026c-0.123,0.117-0.032,0.255,0.012,0.381c0.028,0.081,0.066,0.159,0.096,0.239
			C67.573,110.693,67.637,110.925,67.618,111.102z M63.347,113.614c-0.019,0,0.015,0,0.05,0c0.258,0.001,0.305-0.042,0.28-0.302
			c-0.05-0.516-0.185-1.013-0.34-1.504c-0.035-0.113-0.126-0.169-0.241-0.141c-0.183,0.043-0.362,0.104-0.543,0.156
			c-0.248,0.07-0.492,0.163-0.744,0.202c-0.418,0.063-0.784-0.243-0.82-0.664c-0.019-0.223-0.005-0.445,0.065-0.663
			c0.068-0.212,0.125-0.428,0.184-0.644c0.021-0.077-0.007-0.136-0.096-0.14c-0.642-0.029-1.012,0.374-0.918,0.998
			c0.002,0.017,0.006,0.033,0.01,0.05C60.594,112.526,61.605,113.488,63.347,113.614z M99.713,54.799
			c-0.002,0.448,0.016,0.893,0.11,1.334c0.075,0.355,0.184,0.698,0.358,1.017c0.082,0.152,0.184,0.292,0.336,0.386
			c0.213,0.131,0.422,0.103,0.634-0.015c0.186-0.104,0.18-0.276,0.17-0.45c-0.004-0.068-0.021-0.136-0.027-0.204
			c-0.048-0.434-0.214-0.833-0.382-1.228c-0.164-0.387-0.164-0.766-0.014-1.151c0.069-0.177,0.144-0.352,0.203-0.531
			c0.071-0.215,0.107-0.436,0.042-0.659c-0.069-0.237-0.242-0.331-0.477-0.255c-0.377,0.12-0.642,0.394-0.879,0.689
			c-0.06,0.071-0.069,0.194-0.072,0.294C99.706,54.283,99.713,54.542,99.713,54.799z M19.283,54.894c-0.001,0-0.002,0-0.003,0
			c0-0.137,0.01-0.276-0.003-0.412c-0.014-0.136-0.043-0.271-0.081-0.402c-0.07-0.246-0.232-0.419-0.46-0.528
			c-0.182-0.086-0.329-0.049-0.451,0.118c-0.176,0.241-0.278,0.51-0.316,0.807c-0.039,0.31-0.028,0.618-0.006,0.927
			c0.054,0.771,0.472,1.352,0.992,1.868c0.239,0.238,0.621,0.223,0.847,0.021c0.269-0.239,0.306-0.57,0.088-0.878
			c-0.108-0.155-0.235-0.296-0.352-0.444c-0.165-0.21-0.255-0.446-0.255-0.715C19.283,55.135,19.283,55.015,19.283,54.894z
			 M108.905,53.783c0.021-0.369-0.084-0.721-0.125-1.079c-0.016-0.138-0.078-0.264-0.168-0.373c-0.126-0.155-0.33-0.213-0.511-0.133
			c-0.128,0.056-0.236,0.141-0.314,0.26c-0.115,0.177-0.19,0.367-0.191,0.58c-0.001,0.207-0.009,0.415,0.013,0.62
			c0.044,0.418-0.065,0.782-0.332,1.105c-0.109,0.132-0.208,0.276-0.292,0.425c-0.2,0.352-0.112,0.625,0.249,0.809
			c0.075,0.04,0.163,0.054,0.238,0.092c0.187,0.092,0.323,0.029,0.461-0.103C108.56,55.384,108.881,54.648,108.905,53.783z
			 M27.187,56.224c-0.007-0.394-0.011-0.803-0.121-1.209c-0.083-0.306-0.25-0.523-0.534-0.651c-0.235-0.105-0.507-0.256-0.724-0.065
			c-0.191,0.168-0.101,0.454-0.044,0.686c0.041,0.165,0.113,0.324,0.185,0.481c0.225,0.495,0.237,0.994,0.046,1.502
			c-0.079,0.208-0.147,0.422-0.21,0.636c-0.078,0.267-0.1,0.541-0.06,0.817c0.024,0.173,0.094,0.227,0.273,0.242
			c0.305,0.027,0.534-0.104,0.708-0.342c0.165-0.224,0.255-0.485,0.334-0.75C27.168,57.138,27.182,56.691,27.187,56.224z
			 M21.317,52.874c0.329,0.014,0.582-0.11,0.753-0.38c0.23-0.363,0.097-0.725-0.309-0.861c-0.148-0.05-0.301-0.06-0.458-0.069
			c-0.232-0.014-0.296-0.074-0.348-0.303c-0.045-0.202-0.071-0.407-0.116-0.609c-0.034-0.15-0.073-0.302-0.133-0.444
			c-0.095-0.224-0.278-0.251-0.448-0.085c-0.222,0.213-0.315,0.487-0.375,0.777c-0.161,0.787,0.109,1.382,0.809,1.785
			C20.891,52.799,21.095,52.882,21.317,52.874z M106.915,49.909c-0.022-0.371-0.148-0.846-0.426-1.071
			c-0.191-0.156-0.408-0.123-0.513,0.093c-0.083,0.171-0.126,0.353-0.128,0.546c-0.001,0.171-0.003,0.344-0.026,0.512
			c-0.027,0.205-0.131,0.29-0.344,0.312c-0.152,0.016-0.306,0.004-0.454,0.064c-0.5,0.198-0.589,0.701-0.173,1.043
			c0.193,0.159,0.422,0.229,0.672,0.188C106.287,51.471,106.929,50.69,106.915,49.909z M55.842,24.325
			c-0.324-0.012-0.442,0.116-0.403,0.436c0.002,0.017,0.003,0.035,0.007,0.051c0.14,0.609,0.488,1.058,1.053,1.322
			c0.201,0.094,0.421,0.157,0.652,0.091c0.236-0.067,0.504-0.134,0.583-0.378c0.086-0.265-0.082-0.497-0.275-0.679
			c-0.354-0.333-0.752-0.6-1.214-0.765C56.113,24.355,55.98,24.33,55.842,24.325z M70.037,24.116
			c-0.047,0.009-0.16,0.006-0.245,0.052c-0.393,0.21-0.801,0.395-1.144,0.688c-0.146,0.124-0.271,0.266-0.35,0.439
			c-0.145,0.32-0.022,0.575,0.31,0.681c0.133,0.041,0.264,0.068,0.405,0.052c0.769-0.088,1.371-0.662,1.489-1.422
			C70.555,24.272,70.423,24.115,70.037,24.116z M20.324,59.093c0.199,0.003,0.348,0.073,0.428,0.25
			c0.042,0.093,0.068,0.195,0.115,0.286c0.05,0.097,0.142,0.16,0.251,0.15c0.264-0.021,0.507-0.092,0.662-0.334
			c0.117-0.185,0.079-0.33-0.114-0.418c-0.11-0.049-0.223-0.091-0.337-0.128c-0.249-0.082-0.4-0.256-0.486-0.496
			c-0.034-0.097-0.067-0.196-0.098-0.293c-0.038-0.122-0.114-0.207-0.223-0.271c-0.152-0.088-0.303-0.054-0.398,0.094
			c-0.06,0.092-0.081,0.194-0.07,0.295c0.024,0.218,0.006,0.414-0.211,0.534c-0.015,0.008-0.026,0.023-0.036,0.037
			c-0.067,0.085-0.112,0.177-0.048,0.282c0.051,0.084,0.139,0.098,0.226,0.085C20.102,59.146,20.219,59.116,20.324,59.093z
			 M106.902,57.76c-0.001,0-0.001,0.001-0.001,0.002c0.069,0.005,0.136,0.014,0.205,0.016c0.071,0.001,0.15-0.017,0.166-0.089
			c0.014-0.059-0.012-0.13-0.029-0.192c-0.008-0.031-0.032-0.064-0.058-0.083c-0.198-0.141-0.278-0.333-0.269-0.573
			c0.006-0.104-0.03-0.207-0.107-0.279c-0.133-0.126-0.299-0.139-0.385,0.027c-0.07,0.136-0.156,0.266-0.216,0.408
			c-0.139,0.335-0.357,0.577-0.718,0.676c-0.082,0.022-0.159,0.065-0.234,0.105c-0.103,0.055-0.128,0.154-0.075,0.261
			c0.143,0.288,0.514,0.466,0.816,0.385c0.043-0.012,0.088-0.052,0.112-0.092c0.038-0.056,0.059-0.123,0.084-0.186
			c0.159-0.385,0.211-0.42,0.606-0.396C106.834,57.751,106.867,57.756,106.902,57.76z"/>
	</g>
</g>
</svg>
