<?xml version="1.0" encoding="utf-8"?>
<!-- Generator: Adobe Illustrator 16.0.4, SVG Export Plug-In . SVG Version: 6.00 Build 0)  -->
<!DOCTYPE svg PUBLIC "-//W3C//DTD SVG 1.1//EN" "http://www.w3.org/Graphics/SVG/1.1/DTD/svg11.dtd">
<svg version="1.1" id="Layer_4416" xmlns="http://www.w3.org/2000/svg" xmlns:xlink="http://www.w3.org/1999/xlink" x="0px" y="0px"
	 width="128px" height="128px" viewBox="0 0 128 128" enable-background="new 0 0 128 128" xml:space="preserve">
<g>
	<path fill-rule="evenodd" clip-rule="evenodd" d="M106.301,94.134c-9.043,3.268-17.895,7.208-27.551,8.415
		c-20.605,2.577-40.398,0.528-58.737-10.216c-3.75-2.197-5.529-5-6.334-9.276c-2.038-10.82-1.603-21.67-1.205-32.534
		c0.156-4.235,0.871-4.512,5.045-2.39c8.636,4.393,17.646,7.534,27.234,9.193c22.048,3.818,43.315,1.708,63.487-8.243
		c6.426-3.17,6.348-3.709,7.281,4.428c0.936,8.154-0.363,16.129-0.293,24.188c0.062,7.036-3.318,12.56-9.1,16.58L106.301,94.134z
		 M85.492,75.765c0-1.239-0.006-2.478,0-3.717c0.016-2.973,0.088-5.947,0.018-8.919c-0.02-0.826,0.201-2.221-1.23-2.09
		c-1.174,0.108-1.252,1.338-1.383,2.307c-0.064,0.489-0.037,0.99-0.057,1.485c-0.4,10.376,0.453,20.816-1.605,31.114
		c-0.174,0.872-0.102,2.132,1.309,2.086c0.787-0.025,1.055-0.83,1.217-1.575C85.24,89.632,85.369,82.702,85.492,75.765z
		 M46.383,94.675c-1.755-7.662-1.27-16.285-1.492-24.867c-0.064-2.453-0.109-4.906-0.243-7.355c-0.04-0.738-0.45-1.45-1.286-1.535
		c-0.993-0.102-1.09,0.771-1.098,1.42c-0.124,11.539-0.377,23.088,1.748,34.509c0.125,0.666,0.65,1.421,1.538,1.179
		c0.347-0.095,0.675-0.65,0.801-1.062C46.489,96.514,46.383,95.991,46.383,94.675z M65.532,82.305
		c-0.053-0.001-0.104-0.001-0.154-0.001c0-5.672,0.02-11.345-0.026-17.018c-0.006-0.709-0.37-1.456-1.236-1.583
		c-1.013-0.15-1.185,0.709-1.188,1.349c-0.057,10.857-0.087,21.715-0.06,32.57c0.002,0.869,0.094,2.197,1.524,1.884
		c1.158-0.254,1.13-1.431,1.133-2.394C65.54,92.177,65.532,87.24,65.532,82.305z M23.037,67.419
		c-0.38,6.957,0.304,13.843,1.44,20.697c0.243,1.465,0.304,3.648,2.035,3.312c1.583-0.308,0.859-2.566,0.6-3.845
		c-1.739-8.576-1.491-17.249-1.518-25.915c-0.005-1.73-0.03-3.461-0.118-5.189c-0.041-0.788-0.531-1.398-1.311-1.568
		c-1.14-0.25-1.085,0.791-1.095,1.358C23.004,59.985,23.037,63.702,23.037,67.419z M104.346,69.306
		c0.133-2.185,0.477-4.663,0.377-7.122c-0.098-2.407,0.893-6.923-1.314-6.676c-2.846,0.32-0.922,4.635-1.365,7.171
		c-0.162,0.925,0.072,1.993,0.377,2.913c1.051,3.174,0.744,6.254,0.047,9.479c-0.938,4.333-1.418,8.764-2.072,13.156
		c-0.146,0.979-0.146,2.212,0.936,2.439c1.158,0.244,1.559-0.92,1.789-1.91C104.588,82.441,104.512,76.02,104.346,69.306z"/>
	<path fill-rule="evenodd" clip-rule="evenodd" d="M63.841,31.885c-9.656,0.462-19.094-1.049-28.218-4.514
		c-3.512-1.333-6.735-3.126-9.229-5.993c-3.029-3.48-3.058-7.162-0.084-10.675c1.778-2.101,4.045-3.57,6.474-4.871
		c4.867-2.608,10.13-3.993,15.503-4.697c13.555-1.772,27.079-1.931,40.339,2.162c3.547,1.095,6.953,2.518,9.961,4.771
		c6.701,5.02,6.756,10.473,0.133,15.721c-2.154,1.707-4.605,2.841-7.178,3.783C82.621,30.841,73.429,32.325,63.841,31.885z
		 M63.945,5.054c-3.712,0-7.428-0.096-11.136,0.023c-4.75,0.154-9.244,1.64-13.638,3.259c-2.26,0.833-4.597,1.988-5.691,4.451
		c-0.406,0.914-0.483,1.973,0.312,2.744c0.097,0.094,1.057-0.612,1.545-1.03c3.309-2.833,7.394-3.981,11.449-5.013
		C55.53,7.263,64.495,7.215,73.349,8.18c6.062,0.661,12.251,1.546,17.653,5.119c0.984,0.651,1.793,4.028,3.621,1.528
		c0.988-1.352-0.639-3.194-2.045-4.292c-2.59-2.022-5.707-2.907-8.775-3.835C77.323,4.738,70.622,4.795,63.945,5.054z
		 M49.127,17.115c1.035-0.368,3.076,0.162,3.062-1.835c-0.011-1.749-1.943-2.039-3.266-2.079c-1.356-0.042-3.256,0.362-3.29,2.043
		C45.594,17.142,47.546,16.872,49.127,17.115z"/>
	<path fill-rule="evenodd" clip-rule="evenodd" d="M63.76,48.062c-14.536-0.669-28.521-3.279-41.405-10.35
		c-6.58-3.612-6.925-4.215-4.326-10.939c0.798-2.065,0.442-5.54,3.262-5.706c2.438-0.145,6.199,6.609,5.746,9.131
		c-0.085,0.482-0.369,0.927-0.469,1.407c-0.34,1.634-1.473,4.093,0.488,4.6c2.587,0.67,1.4-2.208,1.812-3.476
		c1.304-4.018,1.363-4.117,5.61-2.752c0.707,0.228,1.437,0.385,2.141,0.62c6.959,2.322,6.984,2.327,6.487,9.529
		c-0.073,1.048-0.18,2.181,0.941,2.401c1.415,0.278,1.181-1.193,1.472-2.014c0.247-0.697,0.39-1.434,0.558-2.157
		c1.068-4.609,1.062-4.568,5.914-4.072c3.192,0.327,6.872-0.375,9.47,1.006c2.796,1.487,0.78,5.497,1.563,8.283
		c0.108,0.386,0.578,0.849,0.961,0.943c0.966,0.238,1.269-0.583,1.435-1.282c0.648-2.726-1.761-6.457,1.584-8.091
		c2.263-1.104,5.329-0.537,8.03-0.78c0.979-0.088,1.981-0.248,2.907-0.567c2.301-0.792,3.206,0.435,3.604,2.383
		c0.346,1.693,0.549,3.417,0.898,5.109c0.129,0.629,0.207,1.706,1.256,1.2c0.547-0.264,0.846-1.078,1.199-1.678
		c0.109-0.188,0.023-0.487,0.035-0.734c0.125-2.363-2.447-5.369,0.082-6.925c3.277-2.018,7.244-2.95,10.971-4.178
		c1.059-0.347,1.809,0.678,2.119,1.626c0.457,1.401,0.666,2.882,1.109,4.288c0.225,0.711,0.898,1.199,1.662,0.846
		c0.346-0.16,0.67-0.812,0.652-1.224c-0.055-1.225-0.182-2.467-0.471-3.655c-0.344-1.415-1.424-2.922-0.34-4.224
		c1.725-2.069,3.748-3.893,5.662-5.802c0.436-0.435,0.861-0.298,1.162,0.307c0.109,0.221,0.199,0.451,0.32,0.664
		c5.465,9.545,4.537,12.681-5.354,17.512C90.275,45.288,77.17,47.443,63.76,48.062z"/>
	<path fill-rule="evenodd" clip-rule="evenodd" d="M31.512,118.324c-3.44-0.753-5.325-3.434-7.134-6.045
		c-1.066-1.54-3.392-3.543-2.259-4.977c1.181-1.493,3.441,0.572,5.174,1.21c24.432,8.995,48.862,8.729,73.295,0.041
		c1.398-0.497,2.727-1.187,4.127-1.671c1.014-0.35,1.398,0.454,1.107,1.158c-1.951,4.717-5.057,8.761-9.652,10.778
		c-2.09,0.916-0.277-1.537-0.461-2.409c-0.154-0.735,1.314-1.814-0.318-2.186c-0.516-0.116-1.402,0.527-1.818,1.06
		c-0.594,0.763-1.086,1.698-1.316,2.636c-1.207,4.903-5.227,6.233-9.326,7.393c-2.779,0.786-3.653,0.048-3.463-2.783
		c0.082-1.202,0.489-2.38,0.688-3.578c0.026-0.153-0.293-0.515-0.466-0.524c-0.424-0.023-1.036-0.055-1.255,0.194
		c-1.186,1.346-1.654,3.038-1.842,4.767c-0.245,2.252-1.223,3.379-3.609,3.905c-6.498,1.432-6.661,1.428-7.466-5.457
		c-0.085-0.728-0.175-1.482-0.448-2.147c-0.152-0.37-0.677-0.771-1.062-0.802c-0.312-0.025-0.93,0.452-0.96,0.753
		c-0.173,1.719-0.167,3.457-0.306,5.182c-0.198,2.46-1.436,3.301-3.987,3.024c-5.985-0.65-6.103-0.638-7.972-6.513
		c-0.291-0.916-0.736-1.808-1.267-2.607c-0.203-0.305-0.895-0.503-1.275-0.404c-0.316,0.082-0.555,0.647-0.719,1.043
		c-0.074,0.179,0.162,0.463,0.178,0.703c0.414,6.378,0.39,6.291-5.522,4.349c-3.055-1.004-5.307-2.507-6.3-5.66
		c-0.295-0.936-0.812-1.803-1.232-2.697c-0.434-0.925-1.309-2.019-2.102-1.626c-1.343,0.666-0.25,2.246-0.535,3.392L31.512,118.324z
		"/>
	<path fill-rule="evenodd" clip-rule="evenodd" d="M64.119,57.119c-8.479,0.195-16.753-1.237-24.967-3.06
		c-2.636-0.584-5.632-1.18-5.665-4.75c-0.021-2.497,2.61-3.151,7.339-2.136c23.771,5.104,46.645,3.372,68.147-8.936
		c1.281-0.734,2.912-3.053,4.246-0.597c0.99,1.824,1.49,4.398-0.471,6.185c-1.252,1.143-2.854,1.943-4.383,2.739
		C94.5,53.783,79.653,56.906,64.119,57.119z"/>
	<path fill-rule="evenodd" clip-rule="evenodd" d="M106.129,94.278c1.947,0.458,3.889-2.507,5.4-0.682
		c1.301,1.572-0.545,3.652-1.199,5.405c-1.002,2.675-3.125,4.346-5.75,5.451c-10.074,4.243-20.443,7.024-31.422,7.988
		c-10.707,0.94-21.186,0.106-31.642-1.888c-2.157-0.411-4.317-1.137-6.286-2.104c-1.686-0.828-2.458-2.505-1.53-4.385
		c0.717-1.453,1.975-2.075,3.683-1.729c4.351,0.882,8.688,1.792,13.079,2.521c16.57,2.752,32.466,0.226,48.013-5.461
		c2.967-1.085,6.031-2.306,7.826-5.262L106.129,94.278z"/>
	<path fill-rule="evenodd" clip-rule="evenodd" d="M31.866,46.941c-0.152,3.628-1.325,4.617-4.422,3.302
		c-3.627-1.542-7.208-3.239-10.653-5.15c-3.199-1.774-3.643-3.456-2.292-6.667c0.516-1.227,1.237-2.14,2.756-1.157
		c4.158,2.689,8.573,4.864,13.191,6.656C31.733,44.424,32.186,45.562,31.866,46.941z"/>
	<path fill-rule="evenodd" clip-rule="evenodd" d="M31.718,103.38c-0.252,3.953-0.641,4.133-4.479,2.775
		c-5.573-1.971-10.23-4.806-11.361-11.231c-0.078-0.443-0.164-0.995,0.025-1.354c0.545-1.033,1.245-0.238,1.797,0.033
		c3.967,1.955,7.877,4.032,11.883,5.903C31.415,100.362,32.38,101.408,31.718,103.38z"/>
	<path fill-rule="evenodd" clip-rule="evenodd" d="M32.009,117.824c0.277,0.285,0.833,0.768,0.791,0.825
		c-0.645,0.904-0.937,0.139-1.288-0.325L32.009,117.824z"/>
</g>
</svg>
