<?xml version="1.0" encoding="utf-8"?>
<!-- Generator: Adobe Illustrator 16.0.4, SVG Export Plug-In . SVG Version: 6.00 Build 0)  -->
<!DOCTYPE svg PUBLIC "-//W3C//DTD SVG 1.1//EN" "http://www.w3.org/Graphics/SVG/1.1/DTD/svg11.dtd">
<svg version="1.1" id="Layer_4417" xmlns="http://www.w3.org/2000/svg" xmlns:xlink="http://www.w3.org/1999/xlink" x="0px" y="0px"
	 width="128px" height="128px" viewBox="0 0 128 128" enable-background="new 0 0 128 128" xml:space="preserve">
<g id="lAONnC.tif">
	<g>
		<path d="M55.009,103.715c-0.22,0-0.386-0.104-0.485-0.166c-0.522-0.25-0.998-0.491-1.472-0.733
			c-0.708-0.36-1.439-0.733-2.181-1.03c-0.787-0.316-0.646-1.033-0.6-1.269c0.425-2.157,1.615-3.838,2.604-5.062
			c1.719-2.127,2.659-4.299,2.874-6.641c0.145-1.58-0.221-3.029-1.118-4.431c-0.5-0.779-1.094-1.47-1.724-2.2
			c-0.388-0.45-0.776-0.9-1.139-1.371c-0.978-1.266-2.013-2.828-2.275-4.826c-0.149-1.134,0.09-2.178,0.37-3.236
			c0.174-0.654,0.428-1.273,0.673-1.873c0.268-0.651,0.52-1.268,0.674-1.916c0.896-3.779,0.595-7.086-0.922-10.109
			c-0.597-1.189-1.399-2.267-2.386-3.203c-0.291-0.276-0.501-0.476-0.483-0.801c0.019-0.327,0.255-0.504,0.529-0.71
			c0.71-0.535,1.423-1.066,2.136-1.598l5.033-3.78c1.249-0.942,2.498-1.885,3.75-2.824l3.987-2.982
			c1.396-1.043,2.794-2.087,4.188-3.133c1.132-0.849,2.26-1.7,3.388-2.552c1.156-0.872,2.311-1.744,3.469-2.613
			c1.428-1.071,2.857-2.139,4.288-3.207l3.883-2.903c0.921-0.69,1.84-1.384,2.759-2.078c0.955-0.721,1.911-1.443,2.869-2.161
			c0.865-0.648,1.734-1.292,2.602-1.936c0.999-0.742,1.998-1.483,2.992-2.23c1.049-0.787,2.094-1.581,3.139-2.374
			c0.864-0.657,1.729-1.313,2.596-1.966c1.264-0.952,2.531-1.9,3.798-2.849l10.124-7.594c0.39-0.292,0.625-0.469,0.938-0.469
			c0.423,0,0.649,0.312,0.963,0.742l2.241,3.088c1.192,1.645,2.386,3.29,3.583,4.931c0.823,1.127,1.652,2.25,2.482,3.372
			l1.519,2.057c0.415,0.564,0.69,1.137,0.844,1.75c0.343,1.378,0.7,2.752,1.058,4.126l0.367,1.415
			c0.088,0.249,0.23,0.648-0.09,0.967c-0.177,0.177-0.37,0.215-0.5,0.215c-0.225,0-0.393-0.106-0.503-0.176
			c-0.972-0.401-1.854-0.845-2.708-1.275c-0.59-0.297-1.181-0.594-1.783-0.867c0.278,1.083,0.562,2.164,0.848,3.244l0.68,2.553
			c0.066,0.214,0.195,0.624-0.133,0.919c-0.294,0.268-0.758,0.139-0.957,0.024l-4.707-2.247c0.418,1.583,0.838,3.163,1.258,4.744
			l0.25,0.945c0.032,0.113,0.132,0.456-0.078,0.736c-0.183,0.243-0.484,0.32-0.891,0.18c-0.498-0.171-0.957-0.407-1.398-0.635
			c-0.234-0.12-0.468-0.241-0.706-0.351c-0.386-0.177-0.765-0.367-1.144-0.557c-0.473-0.237-0.959-0.481-1.45-0.693
			c0.028,0.103,0.06,0.207,0.093,0.313c0.047,0.152,0.094,0.303,0.132,0.456c0.25,0.994,0.515,1.985,0.778,2.976
			c0.171,0.64,0.342,1.279,0.508,1.919c0.178,0.457,0.119,0.772-0.156,0.99l-0.137,0.108l-0.265,0.033
			c-0.222,0-0.384-0.111-0.481-0.178c-1.354-0.64-2.67-1.262-3.988-1.885l-0.547-0.258c0.166,0.634,0.32,1.271,0.477,1.906
			c0.289,1.188,0.59,2.416,0.953,3.598c0.203,0.526,0.121,0.874-0.22,1.098c-0.306,0.2-0.718,0.059-0.907-0.051l-1.102-0.55
			c-1.098-0.544-2.227-1.105-3.366-1.603l1.708,6.618c0.091,0.232,0.256,0.65-0.084,0.974c-0.311,0.295-0.809,0.155-1.025,0.026
			l-1.537-0.757c-1.096-0.537-2.193-1.074-3.292-1.606l1.364,5.391c0.049,0.19,0.076,0.298,0.092,0.408s0.063,0.444-0.155,0.695
			c-0.207,0.238-0.54,0.291-0.924,0.102l-4.558-2.231l1.398,5.575c0.082,0.207,0.252,0.631-0.092,0.963
			c-0.309,0.299-0.816,0.167-1.039,0.042c-0.768-0.375-1.469-0.722-2.17-1.069c-0.637-0.315-1.273-0.63-1.912-0.94
			c-0.113-0.055-0.229-0.105-0.346-0.153c0.034,0.104,0.066,0.207,0.092,0.311c0.276,1.183,0.58,2.36,0.885,3.537l0.334,1.295
			c0.035,0.137,0.073,0.275,0.112,0.411c0.056,0.196,0.171,0.601-0.137,0.913c-0.284,0.288-0.782,0.184-0.997,0.074
			c-0.996-0.479-1.943-0.941-2.889-1.406l-1.562-0.779l1.393,5.497c0.037,0.149,0.073,0.299,0.104,0.449
			c0.06,0.289,0.017,0.523-0.126,0.699c-0.204,0.251-0.551,0.309-0.943,0.127c-0.496-0.229-0.985-0.473-1.47-0.723
			c-0.892-0.461-2.035-1.042-3.239-1.59l1.404,5.622c0.217,0.499,0.025,0.784-0.174,0.936c-0.301,0.229-0.743,0.091-0.942-0.022
			c-0.636-0.321-1.218-0.599-1.799-0.876c-0.889-0.424-1.805-0.86-2.696-1.337l1.392,5.451c0.035,0.134,0.068,0.271,0.089,0.41
			c0.104,0.365,0.033,0.629-0.201,0.809l-0.135,0.104l-0.26,0.032c-0.195,0-0.342-0.086-0.43-0.138l-4.393-2.13
			c-0.057-0.027-0.115-0.06-0.176-0.095c0.018,0.051,0.031,0.1,0.043,0.146c0.27,1.125,0.549,2.246,0.828,3.369l0.49,1.975
			c0.201,0.516,0.133,0.848-0.175,1.063c-0.309,0.215-0.745,0.075-0.974-0.05l-4.41-2.161l1.523,5.999
			c0.055,0.198,0.083,0.31,0.096,0.422c0.014,0.109,0.053,0.444-0.166,0.689c-0.206,0.234-0.535,0.283-0.916,0.099l-0.886-0.422
			c-0.436-0.206-0.87-0.411-1.302-0.626l-0.828-0.418c-0.66-0.334-1.338-0.678-2.022-0.982l1.423,5.648
			c0.061,0.195,0.196,0.617-0.162,0.916c-0.282,0.236-0.709,0.119-0.897,0.018l-4.257-2.074c-0.101-0.05-0.201-0.1-0.302-0.149
			l1.034,4.017c0.146,0.574,0.288,1.148,0.42,1.725c0.062,0.188,0.201,0.605-0.156,0.906c-0.289,0.238-0.715,0.113-0.898,0.01
			l-0.704-0.355c-0.852-0.427-1.704-0.854-2.561-1.27l-0.567-0.268c-0.232-0.108-0.465-0.217-0.696-0.331
			c0.082,0.354,0.171,0.708,0.261,1.06l0.462,1.85c0.224,0.895,0.448,1.789,0.668,2.685c0.246,0.562,0.039,0.847-0.175,0.995
			c-0.304,0.213-0.717,0.057-0.894-0.062c-1.169-0.512-2.263-1.067-3.322-1.605c-0.395-0.199-0.789-0.4-1.185-0.598
			c0.279,1.137,0.564,2.271,0.85,3.405l0.601,2.397c0.065,0.176,0.211,0.566-0.094,0.885
			C55.338,103.676,55.142,103.715,55.009,103.715z M53.098,96.801c-0.767,1.042-1.538,2.35-1.845,3.908
			c-0.026,0.131-0.023,0.174-0.021,0.183c0.795,0.278,1.547,0.662,2.275,1.033c0.342,0.175,0.684,0.349,1.029,0.517l-0.498-1.987
			c-0.289-1.148-0.579-2.297-0.86-3.446c-0.012-0.047-0.035-0.097-0.056-0.147C53.115,96.843,53.106,96.822,53.098,96.801z
			 M54.033,95.598c0.142,0.052,0.268,0.132,0.376,0.201c0.048,0.031,0.095,0.062,0.139,0.084c0.417,0.207,0.832,0.418,1.248,0.629
			c0.933,0.474,1.895,0.962,2.866,1.393c-0.188-0.757-0.377-1.514-0.566-2.271l-0.461-1.846c-0.13-0.513-0.259-1.025-0.368-1.543
			c-0.046-0.217-0.084-0.535,0.115-0.781c0.216-0.264,0.564-0.316,1.025-0.071c0.347,0.185,0.701,0.349,1.055,0.515l0.58,0.273
			c0.862,0.418,1.717,0.848,2.573,1.275l0.232,0.117c-0.1-0.421-0.204-0.84-0.311-1.26l-1.151-4.475
			c-0.06-0.202-0.18-0.604,0.135-0.906c0.292-0.283,0.768-0.123,0.922-0.014c0.275,0.135,0.525,0.259,0.775,0.383l3.797,1.849
			c-0.014-0.061-0.028-0.12-0.043-0.181l-1.375-5.433c-0.07-0.278-0.16-0.626,0.092-0.886c0.272-0.285,0.75-0.178,0.951-0.068
			c0.898,0.385,1.713,0.799,2.502,1.199l0.822,0.413c0.426,0.212,0.854,0.414,1.283,0.617l0.437,0.208l-1.532-6.035
			c-0.008-0.035-0.023-0.074-0.037-0.115c-0.073-0.205-0.244-0.686,0.144-1.012c0.338-0.285,0.841-0.119,1.093,0.037
			c0.037,0.021,0.072,0.045,0.107,0.062l4.227,2.067l-0.417-1.682c-0.28-1.125-0.561-2.249-0.831-3.377
			c-0.018-0.073-0.052-0.153-0.085-0.235c-0.118-0.293-0.364-0.902,0.143-1.273c0.352-0.258,0.851-0.055,1.245,0.186
			c0.082,0.051,0.164,0.102,0.239,0.139l3.878,1.877l-1.443-5.65c-0.077-0.234-0.223-0.666,0.121-0.979
			c0.299-0.272,0.779-0.128,0.993-0.001c1.038,0.576,2.075,1.07,3.079,1.55c0.467,0.223,0.934,0.444,1.396,0.673l-1.425-5.748
			c-0.151-0.353-0.116-0.621,0.09-0.822c0.164-0.16,0.339-0.193,0.456-0.193c0.23,0,0.389,0.125,0.475,0.191
			c1.403,0.625,2.761,1.313,3.786,1.844c0.325,0.168,0.653,0.334,0.983,0.493l-1.491-5.89c-0.185-0.521,0.01-0.787,0.203-0.925
			l0.131-0.094l0.251-0.029c0.191,0,0.344,0.082,0.436,0.13l2.074,1.035c0.838,0.412,1.678,0.822,2.519,1.227
			c-0.007-0.024-0.013-0.049-0.019-0.073l-0.333-1.293c-0.306-1.184-0.612-2.368-0.892-3.559c-0.021-0.089-0.051-0.177-0.08-0.266
			c-0.108-0.323-0.242-0.724-0.09-1.191l0.167-0.509l0.851,0.34c0.276,0.106,0.553,0.212,0.817,0.341
			c0.642,0.312,1.28,0.627,1.919,0.944c0.603,0.298,1.205,0.596,1.809,0.89l-1.457-5.81c-0.055-0.167-0.18-0.549,0.146-0.838
			c0.268-0.24,0.694-0.12,0.852-0.026l4.643,2.275l-1.416-5.598c-0.086-0.253-0.226-0.66,0.104-0.973
			c0.176-0.168,0.363-0.203,0.488-0.203c0.248,0,0.431,0.134,0.54,0.213c1.256,0.62,2.46,1.209,3.663,1.799l1.15,0.563l-1.745-6.762
			c-0.073-0.185-0.237-0.587,0.085-0.898c0.283-0.273,0.745-0.119,0.907-0.005c1.346,0.572,2.65,1.221,3.912,1.847l0.729,0.361
			c-0.328-1.105-0.603-2.231-0.87-3.323c-0.184-0.754-0.367-1.508-0.568-2.257c-0.186-0.471-0.129-0.786,0.146-0.999
			c0.271-0.21,0.687-0.116,0.903-0.016c0.15,0.063,0.223,0.104,0.293,0.147l0.697,0.336c1.173,0.554,2.346,1.107,3.52,1.657
			c-0.131-0.495-0.262-0.989-0.394-1.483c-0.266-0.996-0.531-1.991-0.782-2.99c-0.034-0.136-0.076-0.27-0.117-0.405
			c-0.09-0.29-0.188-0.607-0.221-0.952l-0.039-0.01l0.024-0.298l-0.066-0.645l1.102,0.096l-0.005,0.092
			c0.682,0.263,1.335,0.59,1.967,0.907c0.369,0.185,0.737,0.37,1.112,0.542c0.252,0.116,0.499,0.243,0.745,0.37
			c0.279,0.144,0.55,0.283,0.822,0.403l-0.129-0.484c-0.468-1.762-0.936-3.523-1.4-5.286c-0.054-0.167-0.18-0.55,0.127-0.839
			l0.145-0.137l0.289-0.038c0.186,0,0.327,0.079,0.412,0.126c0.127,0.059,0.221,0.104,0.314,0.15l4.54,2.164l-0.567-2.134
			c-0.324-1.231-0.649-2.464-0.963-3.698c-0.195-0.572,0.076-0.835,0.254-0.945l0.121-0.074l0.232-0.026
			c0.172,0,0.305,0.062,0.395,0.102c0.113,0.047,0.18,0.08,0.244,0.114c0.756,0.34,1.412,0.67,2.068,1
			c0.748,0.376,1.52,0.764,2.3,1.093l-0.284-1.093c-0.357-1.377-0.717-2.755-1.06-4.137c-0.12-0.484-0.343-0.941-0.679-1.398
			l-1.517-2.055c-0.831-1.124-1.661-2.248-2.485-3.376c-1.199-1.642-2.393-3.288-3.586-4.934l-2.24-3.087
			c-0.068-0.094-0.147-0.202-0.209-0.279c-0.066,0.055-0.183,0.142-0.283,0.217l-10.125,7.595c-1.266,0.948-2.531,1.895-3.795,2.847
			c-0.865,0.652-1.729,1.308-2.593,1.964c-1.046,0.794-2.093,1.589-3.142,2.377c-0.996,0.748-1.997,1.49-2.998,2.233
			c-0.866,0.644-1.732,1.287-2.598,1.934c-0.957,0.717-1.912,1.438-2.866,2.158c-0.92,0.694-1.839,1.389-2.762,2.08l-3.884,2.905
			c-1.43,1.067-2.859,2.135-4.286,3.206c-1.157,0.868-2.312,1.74-3.467,2.611c-1.129,0.852-2.259,1.705-3.39,2.554
			c-1.395,1.046-2.793,2.09-4.189,3.134l-3.985,2.98c-1.25,0.938-2.499,1.88-3.748,2.822l-5.038,3.784
			c-0.701,0.523-1.403,1.046-2.102,1.572c1.088,1.036,1.956,2.203,2.602,3.49c1.627,3.241,1.955,6.771,1.001,10.788
			c-0.171,0.725-0.451,1.406-0.721,2.065c-0.244,0.596-0.475,1.159-0.632,1.75c-0.254,0.957-0.471,1.896-0.346,2.849
			c0.231,1.763,1.179,3.186,2.075,4.346c0.353,0.457,0.729,0.893,1.105,1.33c0.625,0.725,1.271,1.475,1.808,2.313
			c1.008,1.573,1.436,3.276,1.272,5.061C56.528,91.27,55.64,93.465,54.033,95.598z M51.797,57.641L51.797,57.641
			c-0.39,0-0.596-0.292-0.834-0.629c-0.06-0.085-0.139-0.167-0.216-0.249c-0.249-0.265-0.589-0.628-0.52-1.124
			c0.072-0.511,0.514-0.757,0.836-0.937c0.098-0.055,0.196-0.107,0.278-0.17l3.349-2.546c1.98-1.507,3.961-3.015,5.947-4.515
			c1.162-0.878,2.329-1.749,3.497-2.62c1.636-1.221,3.272-2.442,4.895-3.682c3.306-2.525,6.622-5.035,9.951-7.526
			c2.63-1.968,5.245-3.953,7.86-5.938l6.519-4.95c2.049-1.559,4.099-3.117,6.151-4.67c1.79-1.353,3.584-2.7,5.379-4.046
			c1.357-1.018,2.713-2.036,4.068-3.057c0.919-0.693,1.832-1.393,2.746-2.093l1.407-1.081c0.187-0.151,0.38-0.308,0.659-0.308
			c0.427,0,0.678,0.364,0.88,0.706c0.081,0.137,0.19,0.255,0.298,0.375c0.072,0.083,0.146,0.166,0.215,0.251
			c0.07,0.088,0.287,0.358,0.212,0.768l-0.032,0.177l-0.224,0.188c-0.077,0.067-0.162,0.14-0.251,0.207l-2.98,2.234
			c-1.748,1.31-3.496,2.62-5.24,3.935c-3.283,2.473-6.56,4.952-9.836,7.433l-3.869,2.938c-1.788,1.36-3.576,2.72-5.369,4.074
			c-1.486,1.122-2.975,2.24-4.463,3.357c-1.762,1.322-3.522,2.644-5.277,3.973c-1.633,1.236-3.26,2.478-4.888,3.72
			c-1.814,1.385-3.629,2.77-5.45,4.146c-1.729,1.309-3.467,2.608-5.204,3.908c-1.457,1.09-2.913,2.18-4.365,3.274
			c-1.373,1.035-2.735,2.082-4.098,3.13l-1.261,0.969C52.282,57.483,52.075,57.641,51.797,57.641z M113.719,8.603l-1.407,1.081
			c-0.915,0.702-1.831,1.403-2.753,2.098c-1.355,1.021-2.713,2.04-4.069,3.058c-1.794,1.346-3.587,2.692-5.376,4.044
			c-2.053,1.552-4.102,3.11-6.15,4.668l-6.518,4.95c-2.617,1.987-5.235,3.974-7.866,5.943c-3.327,2.49-6.642,4.998-9.943,7.521
			c-1.626,1.242-3.265,2.465-4.903,3.688c-1.167,0.87-2.332,1.74-3.493,2.616c-1.985,1.5-3.964,3.006-5.944,4.513l-3.35,2.547
			c-0.117,0.089-0.256,0.168-0.396,0.246c-0.114,0.064-0.305,0.17-0.341,0.228c0.024,0.017,0.176,0.179,0.267,0.276
			c0.11,0.117,0.219,0.235,0.304,0.355c0.021,0.031,0.05,0.071,0.08,0.112c0.033-0.025,0.067-0.051,0.099-0.076l1.26-0.968
			c1.365-1.05,2.73-2.1,4.105-3.136c1.453-1.095,2.91-2.186,4.368-3.276c1.735-1.299,3.471-2.598,5.2-3.905
			c1.819-1.375,3.633-2.759,5.446-4.143c1.629-1.243,3.257-2.486,4.891-3.722c1.756-1.33,3.518-2.653,5.28-3.976
			c1.487-1.117,2.976-2.234,4.46-3.355c1.792-1.354,3.58-2.713,5.368-4.072l3.87-2.939c3.276-2.482,6.555-4.961,9.838-7.435
			c1.745-1.315,3.494-2.625,5.242-3.936l2.979-2.233c0.011-0.008,0.021-0.016,0.031-0.024c-0.033-0.031-0.064-0.067-0.098-0.104
			c-0.15-0.169-0.299-0.341-0.412-0.533C113.762,8.671,113.738,8.634,113.719,8.603z"/>
		<path fill-rule="evenodd" clip-rule="evenodd" d="M49.874,68.708c-0.218,1.104-0.917,2.282-1.307,3.573
			c-0.813,2.691-0.501,5.197,0.946,7.613c1.016,1.695,2.404,3.085,3.585,4.643c1.062,1.398,1.566,2.922,1.222,4.672
			c-0.324,1.648-0.845,3.207-1.891,4.571c-1.069,1.396-2.158,2.786-2.85,4.433c-0.46,1.094-0.72,2.232-0.899,3.396
			c-0.231,1.5-0.411,3.006-0.892,4.461c-0.401,1.213-1.146,2.142-2.123,2.924c-1.744,1.398-3.653,2.543-5.578,3.664
			c-0.952,0.553-1.886,1.145-2.866,1.641c-1.746,0.885-2.979,2.256-3.985,3.893c-0.717,1.166-1.419,2.343-2.314,3.393
			c-0.944,1.107-2.13,1.654-3.561,1.503c-1.127-0.12-1.895-0.858-2.436-1.817c-0.486-0.863-0.762-1.806-0.897-2.781
			c-0.383-2.762-1.509-5.193-3.188-7.396c-0.985-1.291-1.715-2.732-2.408-4.195c-1.1-2.32-2.09-4.695-3.3-6.963
			c-0.608-1.143-1.23-2.276-2.028-3.309c-1.296-1.677-3.046-2.658-5-3.305c-1.42-0.471-2.877-0.799-4.386-0.879
			c-0.691-0.036-1.333-0.295-1.92-0.678c-0.663-0.43-0.953-1.103-0.813-1.889c0.215-1.214,0.944-2.15,1.709-3.035
			c1.598-1.846,3.564-3.268,5.57-4.633c3.319-2.26,6.844-4.197,10.164-6.455c1.442-0.98,2.703-2.174,3.954-3.383
			c1.479-1.428,2.989-2.825,4.486-4.236c1.906-1.797,3.894-3.502,5.9-5.183c2.663-2.232,5.399-4.375,8.191-6.445
			c0.806-0.598,1.615-1.19,2.411-1.802c0.309-0.237,0.565-0.268,0.924-0.062c2.85,1.631,4.873,3.931,5.687,7.152
			C50.539,64.011,50.487,66.256,49.874,68.708z M26.891,78.083c-0.795-0.185-1.45-0.231-2.105-0.056
			c-2.463,0.66-4.276,2.207-5.701,4.248c-0.682,0.979-0.93,2.094-0.756,3.287c0.131,0.904,0.403,1.764,0.809,2.583
			c0.807,1.628,1.853,3.106,2.864,4.606c1.069,1.584,2.102,3.193,2.905,4.93c1.099,2.375,2.123,4.783,3.236,7.152
			c0.75,1.596,1.608,3.152,2.968,4.328c1.176,1.017,2.516,1.337,4.027,0.75c1.126-0.436,2.056-1.16,2.875-1.994
			c1.132-1.151,1.932-2.498,2.12-4.169c0.203-1.808-0.182-3.519-0.775-5.18c-0.734-2.058-1.822-3.952-2.952-5.817
			c-1.029-1.697-2.006-3.424-2.791-5.248c-1.017-2.361-1.97-4.754-3.508-6.842C29.239,79.484,28.198,78.496,26.891,78.083z
			 M44.347,88.51c-0.28,0.967,0.191,1.873,1.114,2.143c0.956,0.279,1.854-0.21,2.12-1.156c0.272-0.969-0.213-1.854-1.162-2.119
			C45.513,87.125,44.604,87.621,44.347,88.51z M38.773,68.855c-0.952-0.26-1.864,0.258-2.111,1.199
			c-0.238,0.904,0.317,1.887,1.244,2.09c0.881,0.193,1.739-0.146,2.047-1.186C40.24,69.996,39.739,69.117,38.773,68.855z"/>
	</g>
</g>
</svg>
