<?xml version="1.0" encoding="utf-8"?>
<!-- Generator: Adobe Illustrator 16.0.4, SVG Export Plug-In . SVG Version: 6.00 Build 0)  -->
<!DOCTYPE svg PUBLIC "-//W3C//DTD SVG 1.1//EN" "http://www.w3.org/Graphics/SVG/1.1/DTD/svg11.dtd">
<svg version="1.1" id="Layer_4418" xmlns="http://www.w3.org/2000/svg" xmlns:xlink="http://www.w3.org/1999/xlink" x="0px" y="0px"
	 width="128px" height="128px" viewBox="0 0 128 128" enable-background="new 0 0 128 128" xml:space="preserve">
<g>
	<path fill-rule="evenodd" clip-rule="evenodd" d="M115.826,64.087c0,10.087-0.107,20.177,0.059,30.262
		c0.059,3.563-0.962,5.089-4.771,4.808c-4.273-0.315-8.592-0.19-12.883-0.037c-2.787,0.098-4.022-0.749-4.01-3.76
		c0.088-20.923,0.078-41.846,0.016-62.769c-0.008-2.606,0.88-3.7,3.549-3.631c4.668,0.12,9.348,0.181,14.008-0.03
		c3.316-0.149,4.113,1.331,4.078,4.334C115.755,43.537,115.827,53.813,115.826,64.087z M98.867,63.562
		c0-6.897,0.008-13.796-0.014-20.694c-0.002-0.532-0.201-1.063-0.31-1.595c-0.987,0.207-0.678,1.038-0.679,1.605
		c-0.023,13.796-0.024,27.592,0.008,41.389c0.002,0.699,0.344,1.398,0.527,2.098c0.158-0.702,0.449-1.404,0.452-2.108
		C98.887,77.358,98.873,70.46,98.867,63.562z M103.367,64.13c0-7.083,0.008-14.167-0.015-21.25
		c-0.001-0.531-0.206-1.062-0.317-1.593c-0.973,0.218-0.684,1.046-0.685,1.618c-0.024,13.794-0.023,27.588,0.01,41.382
		c0.002,0.696,0.341,1.39,0.521,2.086c0.161-0.704,0.459-1.406,0.463-2.111C103.381,77.552,103.365,70.841,103.367,64.13z
		 M107.85,64.186c0-6.909,0.011-13.818-0.016-20.728c-0.002-0.719-0.221-1.438-0.34-2.157c-0.755,0.426-0.572,1.182-0.572,1.818
		c-0.014,13.818-0.012,27.637,0.012,41.456c0.001,0.53,0.248,1.061,0.381,1.59c0.736-0.44,0.512-1.182,0.514-1.812
		C107.846,77.632,107.84,70.908,107.85,64.186z M112.388,64.163c0-7.087,0.007-14.174-0.015-21.262c0-0.533-0.203-1.067-0.312-1.601
		c-0.958,0.229-0.663,1.054-0.664,1.617c-0.03,13.801-0.036,27.603-0.007,41.405c0.001,0.701,0.339,1.403,0.52,2.104
		c0.159-0.706,0.452-1.413,0.456-2.12C112.401,77.592,112.387,70.877,112.388,64.163z"/>
	<path fill-rule="evenodd" clip-rule="evenodd" d="M74.62,64.3c0.002,10.092-0.101,20.185,0.062,30.273
		c0.053,3.288-0.781,4.799-4.365,4.576c-4.281-0.266-8.605-0.265-12.887-0.002c-3.54,0.218-4.479-1.202-4.442-4.541
		c0.144-12.707,0.055-25.415,0.056-38.123c0-7.849,0.092-15.699-0.035-23.546c-0.047-2.844,0.863-4.087,3.83-3.991
		c4.667,0.151,9.348,0.164,14.013-0.001c2.974-0.104,3.84,1.141,3.811,3.959C74.552,43.369,74.617,53.835,74.62,64.3z
		 M56.562,63.213c0,7.085-0.013,14.17,0.022,21.255c0.004,0.681,0.313,1.359,0.481,2.04c0.169-0.705,0.486-1.41,0.487-2.115
		C57.583,70.596,57.585,56.797,57.556,43c-0.001-0.682-0.346-1.363-0.531-2.045c-0.156,0.707-0.444,1.413-0.448,2.12
		C56.543,49.787,56.557,56.5,56.562,63.213z M62.065,63.562c0-6.715,0.014-13.43-0.018-20.144c-0.004-0.816,0.307-1.772-0.59-2.394
		c-0.133,0.713-0.382,1.425-0.384,2.138c-0.028,13.616-0.033,27.231-0.015,40.848c0.001,0.812-0.301,1.753,0.551,2.394
		c0.611-0.822,0.44-1.786,0.443-2.697C62.072,76.992,62.063,70.277,62.065,63.562z M65.598,63.587
		c0,6.907-0.014,13.814,0.019,20.721c0.003,0.71,0.275,1.419,0.423,2.128c0.16-0.71,0.459-1.42,0.461-2.132
		c0.028-13.813,0.026-27.627,0.01-41.44c0-0.536-0.206-1.07-0.316-1.605c-0.969,0.251-0.566,1.069-0.569,1.608
		C65.586,49.774,65.6,56.681,65.598,63.587z M70.075,63.001c0,7.08-0.011,14.16,0.017,21.24c0.003,0.715,0.237,1.43,0.365,2.146
		c0.77-0.388,0.627-1.137,0.627-1.767c0.015-13.974,0.013-27.947-0.012-41.92c-0.002-0.524-0.264-1.046-0.404-1.57
		c-0.829,0.37-0.576,1.136-0.578,1.75C70.067,49.587,70.076,56.294,70.075,63.001z"/>
	<path fill-rule="evenodd" clip-rule="evenodd" d="M12.206,63.572c0-9.901-0.032-19.803,0.014-29.705
		c0.022-4.804,0.09-4.828,5.03-4.88c3.736-0.04,7.474-0.035,11.209-0.002c5.247,0.045,5.306,0.064,5.314,5.242
		c0.027,18.496,0.01,36.991,0.01,55.487c0,1.868-0.112,3.743,0.014,5.603c0.202,2.974-1.185,3.904-4.008,3.806
		c-4.478-0.156-8.973-0.192-13.447,0.011c-3.167,0.143-4.229-1.039-4.188-4.176C12.291,84.497,12.206,74.034,12.206,63.572z
		 M16.802,63.872c0.005,0,0.011,0,0.016,0c0-6.907,0.015-13.814-0.021-20.722c-0.003-0.7-0.301-1.399-0.462-2.098
		c-0.182,0.698-0.522,1.397-0.523,2.097c-0.026,13.815-0.02,27.629,0.014,41.444c0.001,0.556-0.284,1.375,0.659,1.607
		c0.105-0.536,0.301-1.071,0.303-1.606C16.809,77.688,16.802,70.78,16.802,63.872z M21.317,63.596c-0.004,0-0.008,0-0.012,0
		c0-6.902,0.013-13.806-0.025-20.708c-0.003-0.54,0.409-1.414-0.614-1.53c-0.069-0.008-0.362,0.989-0.363,1.519
		c-0.024,13.805-0.031,27.611-0.003,41.416c0.001,0.701,0.344,1.402,0.527,2.104c0.163-0.697,0.464-1.395,0.468-2.092
		C21.331,77.401,21.317,70.499,21.317,63.596z M25.788,63.243c0-6.73,0.012-13.46-0.02-20.19c-0.003-0.579,0.324-1.357-0.536-1.706
		c-0.122,0.532-0.348,1.063-0.349,1.594c-0.021,13.834-0.024,27.668-0.007,41.502c0,0.604-0.211,1.359,0.59,1.724
		c0.105-0.725,0.3-1.449,0.302-2.174C25.793,77.077,25.783,70.159,25.788,63.243z M30.325,63.771c0-6.921,0.006-13.842-0.011-20.762
		c-0.001-0.649,0.186-1.388-0.499-1.872c-0.163,0.514-0.468,1.028-0.469,1.543c-0.019,14.028-0.011,28.056,0.018,42.084
		c0.001,0.529,0.266,1.058,0.408,1.586c0.731-0.44,0.539-1.183,0.54-1.818C30.33,77.612,30.323,70.692,30.325,63.771z"/>
	<path fill-rule="evenodd" clip-rule="evenodd" d="M64.218,9.416c3.746,0,7.493-0.04,11.238,0.018
		c1.836,0.028,2.82,0.875,2.162,2.87c-0.059,0.178-0.124,0.354-0.163,0.536c-1.964,8.992-1.963,8.992-11.361,9.007
		c-1.686,0.002-3.373,0.001-5.058,0c-7.684-0.005-10.497-2.704-11.016-10.247c-0.142-2.065,1.12-2.153,2.397-2.179
		c3.932-0.081,7.867-0.03,11.801-0.03C64.218,9.4,64.218,9.408,64.218,9.416z"/>
	<path fill-rule="evenodd" clip-rule="evenodd" d="M23.217,9.375c3.549,0,7.1-0.027,10.648,0.016
		c1.096,0.013,2.858,0.025,2.815,1.193c-0.125,3.355-1.434,6.509-2.663,9.615c-0.921,2.328-3.14,1.575-4.888,1.616
		c-4.108,0.096-8.237-0.202-12.326,0.095c-3.722,0.27-5.232-1.328-6.207-4.748c-2.241-7.864-2.405-7.818,5.893-7.834
		c2.242-0.004,4.484,0,6.726,0C23.217,9.343,23.217,9.359,23.217,9.375z"/>
	<path fill-rule="evenodd" clip-rule="evenodd" d="M105.111,9.337c3.553,0,7.104,0.023,10.656-0.007
		c2.842-0.024,3.308,1.174,2.646,3.851c-2.133,8.636-2.026,8.664-11.006,8.667c-3.179,0-6.362-0.124-9.533,0.031
		c-2.676,0.13-3.906-0.917-4.785-3.511c-3.072-9.073-3.191-9.033,6.412-9.043c1.869-0.002,3.739,0,5.609,0
		C105.111,9.328,105.111,9.333,105.111,9.337z"/>
	<path fill-rule="evenodd" clip-rule="evenodd" d="M104.92,118.313c-3.718,0-7.438-0.045-11.154,0.017
		c-2.264,0.038-3.045-0.906-2.359-3.062c0.169-0.531,0.363-1.055,0.511-1.592c2.146-7.857,2.146-7.858,10.399-7.867
		c1.673-0.002,3.346-0.004,5.02-0.004c8.516,0.001,10.39,1.802,11.391,10.276c0.243,2.057-0.691,2.192-2.093,2.202
		c-3.903,0.027-7.81,0.01-11.714,0.01C104.92,118.3,104.92,118.307,104.92,118.313z"/>
	<path fill-rule="evenodd" clip-rule="evenodd" d="M23.208,118.309c-3.933-0.001-7.867-0.027-11.799,0.011
		c-2.058,0.02-2.646-0.958-2.127-2.823c0.051-0.181,0.104-0.361,0.143-0.544c1.928-9.132,1.928-9.132,11.301-9.143
		c1.686-0.002,3.372-0.004,5.057-0.003c7.828,0.004,10.127,2.303,10.901,10.357c0.204,2.13-0.905,2.119-2.238,2.133
		C30.699,118.334,26.953,118.31,23.208,118.309z"/>
	<path fill-rule="evenodd" clip-rule="evenodd" d="M63.75,118.317c-3.722,0-7.445-0.048-11.166,0.018
		c-2.283,0.04-3.083-0.816-2.165-3.004c0.071-0.169,0.093-0.359,0.136-0.541c2.095-8.979,2.095-8.979,11.246-8.983
		c1.675-0.001,3.35,0.003,5.024,0.008c7.814,0.026,10.26,2.4,10.893,10.249c0.155,1.931-0.785,2.229-2.244,2.234
		c-3.908,0.012-7.815,0.004-11.723,0.004C63.75,118.307,63.75,118.312,63.75,118.317z"/>
	<path fill-rule="evenodd" clip-rule="evenodd" d="M105.117,127.279c-5.031,0.005-10.066-0.09-15.096,0.044
		c-2.695,0.071-3.564-1.012-3.525-3.624c0.037-2.56,0.359-4.329,3.545-4.3c10.063,0.089,20.128,0.074,30.192,0.027
		c2.896-0.013,3.271,1.727,3.312,4.021c0.044,2.367-0.419,3.941-3.332,3.863C115.186,127.176,110.15,127.273,105.117,127.279z"/>
	<path fill-rule="evenodd" clip-rule="evenodd" d="M63.768,127.275c-5.036-0.002-10.075-0.103-15.107,0.037
		c-2.965,0.081-3.305-1.591-3.3-3.907c0.004-2.346,0.49-3.99,3.354-3.975c10.257,0.061,20.515,0.042,30.773,0.031
		c3.124-0.003,2.855,2.187,2.913,4.275c0.059,2.113-0.301,3.62-2.965,3.568C74.215,127.206,68.99,127.277,63.768,127.275z"/>
	<path fill-rule="evenodd" clip-rule="evenodd" d="M22.49,127.28c-4.843,0.001-9.688-0.098-14.528,0.039
		c-2.714,0.078-3.55-1.049-3.509-3.64c0.04-2.547,0.338-4.316,3.548-4.285c9.871,0.098,19.745,0.086,29.617-0.004
		c2.938-0.026,3.884,1.283,3.915,4.055c0.032,2.869-1.048,3.978-3.956,3.881C32.554,127.161,27.52,127.28,22.49,127.28z"/>
	<path fill-rule="evenodd" clip-rule="evenodd" d="M22.823,8.282c-5.049,0-10.099-0.078-15.146,0.033
		c-2.5,0.055-3.3-1.082-3.194-3.387C4.579,2.854,4.24,0.716,7.435,0.73c10.471,0.048,20.943,0.007,31.415-0.025
		c2.892-0.009,2.579,2.052,2.631,3.913c0.059,2.067-0.289,3.725-2.951,3.698C33.295,8.262,28.059,8.3,22.823,8.3
		C22.823,8.294,22.823,8.288,22.823,8.282z"/>
	<path fill-rule="evenodd" clip-rule="evenodd" d="M63.612,8.296c-4.854-0.001-9.71-0.083-14.561,0.032
		c-2.598,0.062-3.695-0.868-3.7-3.561c-0.004-2.735,0.74-4.128,3.786-4.093c9.894,0.113,19.79,0.124,29.685-0.003
		C82,0.631,82.412,2.238,82.44,4.844c0.03,2.747-1.154,3.548-3.708,3.489C73.694,8.214,68.652,8.297,63.612,8.296z"/>
	<path fill-rule="evenodd" clip-rule="evenodd" d="M105.383,0.717c4.85,0.002,9.701,0.114,14.547-0.037
		c3.209-0.101,3.605,1.673,3.613,4.245c0.008,2.777-1.391,3.43-3.857,3.409c-9.696-0.084-19.395-0.115-29.092-0.022
		c-2.675,0.026-4.074-0.496-4.128-3.627c-0.057-3.372,1.429-4.099,4.371-4.01C95.682,0.821,100.534,0.714,105.383,0.717z"/>
	<path fill-rule="evenodd" clip-rule="evenodd" d="M22.968,100.066c2.614-0.003,5.228,0.015,7.842-0.009
		c1.729-0.016,2.894,0.492,2.857,2.516c-0.032,1.771-1.127,2.174-2.576,2.177c-5.415,0.012-10.829,0.011-16.244,0.009
		c-1.447,0-2.51-0.366-2.542-2.156c-0.036-2.027,1.082-2.554,2.821-2.538C17.74,100.087,20.354,100.069,22.968,100.066z"/>
	<path fill-rule="evenodd" clip-rule="evenodd" d="M63.791,104.736c-2.803,0-5.606,0.031-8.409-0.015
		c-1.226-0.02-2.154-0.494-2.213-1.948c-0.062-1.51,0.402-2.652,2.088-2.662c5.792-0.032,11.584-0.021,17.375,0.041
		c1.35,0.014,1.842,0.94,1.905,2.239c0.085,1.708-0.773,2.354-2.337,2.357c-2.804,0.003-5.607,0-8.41,0
		C63.791,104.745,63.791,104.74,63.791,104.736z"/>
	<path fill-rule="evenodd" clip-rule="evenodd" d="M105.035,100.067c2.611-0.004,5.223,0.016,7.833-0.01
		c1.746-0.018,2.877,0.544,2.837,2.539c-0.035,1.775-1.161,2.149-2.6,2.152c-5.408,0.011-10.816,0.006-16.226,0.004
		c-1.452,0-2.499-0.38-2.522-2.165c-0.026-2.04,1.128-2.531,2.845-2.521C99.812,100.082,102.424,100.071,105.035,100.067z"/>
	<path fill-rule="evenodd" clip-rule="evenodd" d="M63.961,23.267c2.605,0,5.21-0.022,7.814,0.009
		c1.344,0.016,2.673,0.118,2.746,1.973c0.06,1.51-0.494,2.674-2.094,2.692c-5.762,0.069-11.526,0.063-17.288-0.034
		c-1.216-0.02-1.916-0.938-1.964-2.266c-0.063-1.719,0.936-2.311,2.412-2.333c2.791-0.042,5.582-0.012,8.374-0.012
		C63.961,23.287,63.961,23.277,63.961,23.267z"/>
	<path fill-rule="evenodd" clip-rule="evenodd" d="M105.018,23.298c2.785,0,5.57-0.037,8.353,0.018
		c1.172,0.022,2.2,0.425,2.304,1.851c0.109,1.497-0.497,2.746-2.035,2.772c-5.748,0.1-11.5,0.075-17.249-0.023
		c-1.612-0.027-2.121-1.274-2.013-2.751c0.104-1.411,1.074-1.832,2.289-1.843c2.784-0.025,5.568-0.008,8.352-0.008
		C105.018,23.308,105.018,23.303,105.018,23.298z"/>
	<path fill-rule="evenodd" clip-rule="evenodd" d="M22.979,28.056c-2.598,0-5.197,0.033-7.794-0.012
		c-1.66-0.028-2.889-0.623-2.864-2.59c0.027-2.181,1.604-2.176,3.103-2.185c5.011-0.03,10.023-0.039,15.034-0.009
		c1.485,0.009,3.132-0.035,3.163,2.149c0.033,2.347-1.637,2.634-3.404,2.667c-2.412,0.046-4.825,0.012-7.238,0.012
		C22.979,28.078,22.979,28.067,22.979,28.056z"/>
</g>
</svg>
