<?xml version="1.0" encoding="utf-8"?>
<!-- Generator: Adobe Illustrator 16.0.4, SVG Export Plug-In . SVG Version: 6.00 Build 0)  -->
<!DOCTYPE svg PUBLIC "-//W3C//DTD SVG 1.1//EN" "http://www.w3.org/Graphics/SVG/1.1/DTD/svg11.dtd">
<svg version="1.1" id="Layer_4420" xmlns="http://www.w3.org/2000/svg" xmlns:xlink="http://www.w3.org/1999/xlink" x="0px" y="0px"
	 width="128px" height="128px" viewBox="0 0 128 128" enable-background="new 0 0 128 128" xml:space="preserve">
<g id="TJInlo.tif">
	<g>
		<path fill-rule="evenodd" clip-rule="evenodd" d="M64.08,0.391c3.881,0,7.761-0.015,11.643,0.017
			c0.554,0.005,1.394-0.354,1.547,0.628c0.155,1.002-0.654,1.028-1.318,1.191c-3.065,0.753-4.967,2.764-5.346,5.602
			c-0.133,0.981,0.082,1.919,0.406,2.81c0.688,1.894,0.617,3.662-0.229,5.534c-0.803,1.774-0.602,3.634,0.432,5.343
			c0.784,1.297,0.753,1.544-0.196,2.899c-0.237,0.337-0.392,0.756-0.494,1.16c-0.23,0.905-0.596,1.701-1.424,2.215
			c-0.45,0.28-0.568,0.732-0.645,1.221c-0.221,1.436-0.175,2.862,0.12,4.28c0.146,0.696,0.509,1.274,0.997,1.785
			c0.822,0.858,1.763,1.579,2.884,1.937c1.266,0.405,1.738,1.124,1.628,2.457c-0.116,1.426-0.034,2.869-0.006,4.303
			c0.015,0.633-0.068,1.066-0.791,1.336c-0.885,0.332-1.676,0.906-2.524,1.341c-1.466,0.751-2.158,1.98-2.242,3.58
			c-0.038,0.689-0.009,1.382-0.004,2.072c0.004,0.494,0.081,1.033,0.494,1.297c1.055,0.675,1.474,1.929,2.497,2.624
			c0.299,0.201,0.571,0.512,0.727,0.834c0.207,0.436,0.314,0.861-0.409,1.082c-2.08,0.635-2.911,2.286-2.919,4.271
			c-0.008,2.271,0.625,4.342,3.002,5.333c0.734,0.307,1.507,0.535,2.153,1.016c1.037,0.767,1.179,1.534,0.425,2.586
			c-1.094,1.525-1.494,3.354-2.263,5.021c-0.239,0.52-0.249,1.152-0.754,1.538c-0.553,0.421-0.732,1-0.801,1.664
			c-0.083,0.794-0.434,1.418-1.267,1.658c-0.152,0.046-0.425,0.089-0.434,0.158c-0.177,1.521-2.133,2.226-1.794,4.006
			c0.136,0.719,0.025,1.485,0.035,2.229c0.007,0.424-0.034,0.887,0.285,1.212c0.828,0.841,0.838,2.044,1.38,3.012
			c0.329,0.587,0.339,1.252-0.056,1.823c-0.479,0.697-0.368,1.311,0.175,1.867c0.632,0.65,0.78,1.431,0.917,2.301
			c0.421,2.688,1.146,5.28,2.735,7.569c0.539,0.776,0.953,1.664,1.286,2.553c0.367,0.977,1.031,1.726,1.648,2.514
			c0.473,0.601,1.224,0.709,1.89,0.679c2.704-0.119,4.699,1.454,6.831,2.723c0.337,0.199,0.533,0.502,0.718,0.827
			c1.079,1.893,2.176,3.771,3.24,5.671c0.575,1.028,0.56,1.083-0.377,1.621c-2.396,1.375-4.811,2.714-7.204,4.093
			c-0.758,0.438-1.565,0.646-2.421,0.715c-4.394,0.349-8.784,0.782-13.185,1.017c-3.505,0.185-6.99-0.395-10.482-0.645
			c-1.588-0.114-3.175-0.264-4.762-0.394c-1.125-0.093-2.153-0.43-3.139-1.011c-2.194-1.296-4.418-2.543-6.653-3.766
			c-0.702-0.385-0.888-0.757-0.449-1.489c1.145-1.913,2.229-3.862,3.344-5.793c0.133-0.229,0.262-0.51,0.471-0.634
			c1.985-1.189,3.773-2.927,6.278-2.835c2.108,0.079,3.238-1.073,4.022-2.743c0.723-1.54,1.517-3.029,2.376-4.499
			c1.113-1.896,1.659-4.012,1.901-6.192c0.084-0.759,0.195-1.42,0.847-1.964c0.718-0.603,0.955-1.369,0.289-2.235
			c-0.347-0.453-0.323-1.038-0.139-1.536c0.368-0.993,0.739-1.998,1.254-2.917c0.959-1.716,0.597-3.473,0.328-5.237
			c-0.058-0.381-0.457-0.563-0.67-0.844c-0.718-0.947-1.159-2.123-2.375-2.637c-0.125-0.054-0.192-0.383-0.188-0.581
			c0.021-0.869-0.33-1.529-0.988-2.074c-0.191-0.16-0.382-0.432-0.403-0.666c-0.136-1.469-1.155-2.604-1.462-3.998
			c-0.156-0.713-0.639-1.204-1.028-1.769c-0.786-1.146-0.638-1.931,0.547-2.657c0.628-0.387,1.325-0.674,2.015-0.945
			c1.512-0.598,2.418-1.716,2.771-3.257c0.48-2.1,0.578-4.138-1.379-5.664c-0.294-0.23-0.598-0.423-0.937-0.588
			c-0.952-0.464-1.124-0.956-0.375-1.65c0.894-0.831,1.532-1.878,2.463-2.661c0.283-0.239,0.594-0.453,0.702-0.841
			c0.546-1.949,0.548-5.277-2.222-6.468c-0.98-0.422-1.693-1.27-2.753-1.541c-0.433-0.11-0.448-0.55-0.448-0.929
			c-0.004-1.808,0.016-3.615-0.008-5.422c-0.01-0.661,0.366-0.954,0.896-1.149c0.954-0.352,1.816-0.865,2.655-1.435
			c1.426-0.968,2.176-2.289,2.195-4.016c0.009-0.691-0.008-1.382,0.011-2.073c0.025-1.01-0.171-1.874-1.142-2.45
			c-0.565-0.336-0.768-0.975-0.966-1.599c-0.22-0.69-0.405-1.366-1.004-1.936c-0.581-0.552-0.342-1.404,0.07-2.045
			c1.319-2.054,1.438-4.165,0.379-6.343c-0.695-1.431-0.679-2.832-0.101-4.312c0.568-1.457,0.764-2.995,0.277-4.527
			c-0.784-2.468-2.626-3.764-5.023-4.416c-0.616-0.167-1.528-0.003-1.415-1.079c0.114-1.095,1.021-0.739,1.624-0.744
			c3.934-0.034,7.867-0.018,11.801-0.018C64.08,0.393,64.08,0.392,64.08,0.391z"/>
	</g>
</g>
</svg>
