<?xml version="1.0" encoding="utf-8"?>
<!-- Generator: Adobe Illustrator 16.0.4, SVG Export Plug-In . SVG Version: 6.00 Build 0)  -->
<!DOCTYPE svg PUBLIC "-//W3C//DTD SVG 1.1//EN" "http://www.w3.org/Graphics/SVG/1.1/DTD/svg11.dtd">
<svg version="1.1" id="Layer_4422" xmlns="http://www.w3.org/2000/svg" xmlns:xlink="http://www.w3.org/1999/xlink" x="0px" y="0px"
	 width="128px" height="128px" viewBox="0 0 128 128" enable-background="new 0 0 128 128" xml:space="preserve">
<path fill-rule="evenodd" clip-rule="evenodd" d="M1.316,111.785c-0.392-2.151,0.621-3.479,2.258-4.823
	c6.468-5.311,12.798-10.79,19.195-16.189c1.336-1.128,2.74-2.177,4.103-3.275c1.333-1.075,2.855-1.84,4.519-2.085
	c4.423-0.651,7.934-2.985,11.166-5.841c3.421-3.024,6.777-6.122,10.155-9.194c1.858-1.69,3.721-3.374,5.546-5.1
	c1.183-1.119,1.189-1.188,0.031-2.281c-3.101-2.926-6.22-5.832-9.361-8.714c-4.485-4.117-9-8.201-13.492-12.311
	c-6.963-6.369-13.928-12.736-20.864-19.135c-1.114-1.028-2.087-2.211-3.11-3.337c-2.364-2.598-5.139-4.751-7.709-7.125
	c-0.838-0.774-1.734-1.489-2.539-2.296c-0.9-0.903-1.039-2.021-0.421-2.611c0.656-0.627,1.763-0.571,2.65,0.181
	c1.973,1.673,3.859,3.458,5.906,5.033c10.027,7.709,19.201,16.398,28.604,24.823c7.255,6.5,14.51,12.998,21.77,19.493
	c0.907,0.812,1.898,1.539,2.74,2.412c0.859,0.891,1.463,0.686,2.279-0.075c2.727-2.543,5.533-4.999,8.277-7.524
	c6.72-6.187,13.4-12.414,20.134-18.586c6.226-5.708,12.396-11.486,18.789-17c4.208-3.629,8.418-7.243,12.406-11.113
	c0.109-0.105,0.22-0.21,0.331-0.315c0.732-0.697,1.544-1.041,2.431-0.315c0.688,0.563,0.619,1.78-0.119,2.662
	c-0.34,0.407-0.748,0.757-1.124,1.136c-3.585,3.626-7.23,7.183-10.667,10.965c-3.165,3.484-6.762,6.578-10.202,9.81
	c-3.161,2.97-6.39,5.869-9.546,8.844c-6.815,6.421-13.599,12.874-20.404,19.307c-2.102,1.987-4.201,3.977-6.352,5.91
	c-0.836,0.75-0.819,1.257,0.032,1.982c6.144,5.228,11.909,10.885,18.166,15.981c3.219,2.621,6.619,4.832,10.877,5.438
	c3.308,0.469,5.835,2.52,8.267,4.612c6.812,5.86,13.341,12.026,19.605,18.476c1.084,1.116,1.748,2.267,1.685,3.794
	c-0.052,1.29-0.079,2.594-0.295,3.861c-0.542,3.158-2.326,5.227-5.538,5.923c-0.148,0.032-0.291,0.09-0.439,0.123
	c-4.913,1.11-5.23,1.002-8.82-2.55c-5.414-5.354-10.861-10.675-16.264-16.039c-1.454-1.445-2.816-2.99-4.193-4.515
	c-1.248-1.379-2.137-2.975-2.556-4.787c-0.675-2.909-2.199-5.329-4.202-7.473c-4.474-4.793-9.42-9.09-14.238-13.52
	c-2.017-1.855-4.095-3.645-6.066-5.544c-0.888-0.854-1.465-0.693-2.278,0.082c-4.903,4.674-9.855,9.296-14.769,13.959
	c-1.603,1.522-2.976,3.254-4.345,4.987c-1.292,1.634-2.295,3.405-2.746,5.458c-0.986,4.499-4.025,7.616-7.267,10.532
	c-2.38,2.142-4.618,4.424-6.953,6.607c-4.005,3.743-8.349,7.091-12.52,10.642c-0.478,0.407-1.013,0.687-1.663,0.625
	c-1.816-0.17-3.634-0.283-5.41-0.785c-3.29-0.931-4.811-3.267-5.269-6.465C1.367,113.616,1.372,112.698,1.316,111.785z"/>
</svg>
