<?xml version="1.0" encoding="utf-8"?>
<!-- Generator: Adobe Illustrator 16.0.4, SVG Export Plug-In . SVG Version: 6.00 Build 0)  -->
<!DOCTYPE svg PUBLIC "-//W3C//DTD SVG 1.1//EN" "http://www.w3.org/Graphics/SVG/1.1/DTD/svg11.dtd">
<svg version="1.1" id="Layer_4502" xmlns="http://www.w3.org/2000/svg" xmlns:xlink="http://www.w3.org/1999/xlink" x="0px" y="0px"
	 width="128px" height="128px" viewBox="0 0 128 128" enable-background="new 0 0 128 128" xml:space="preserve">
<g id="loWEIu.tif">
	<g>
		<path fill-rule="evenodd" clip-rule="evenodd" d="M64.086,29.21c13.334,0,26.674,0.206,40.003-0.082
			c7.278-0.158,12.401,2.97,16.392,8.624c9.766,13.839,9.66,39.123-0.223,52.761c-3.939,5.436-8.986,8.386-16.009,8.344
			c-26.669-0.161-53.34-0.143-80.01,0.025c-7.408,0.047-12.765-3.025-16.811-8.94c-9.52-13.916-9.564-38.03-0.097-51.854
			c4.033-5.889,9.247-9.134,16.751-8.963C37.412,29.429,50.751,29.21,64.086,29.21z M83.195,90.944
			c6.657,0,13.319-0.157,19.968,0.07c3.058,0.104,5.023-1.051,6.854-3.317c4.742-5.876,7.967-12.467,9.021-19.909
			c1.332-9.413-0.047-18.317-6.48-25.853c-1.922-2.252-4.111-3.746-7.381-3.712c-13.133,0.137-26.268,0.063-39.401,0.048
			c-1.856-0.002-3.146,0.215-4.229,2.304c-2.286,4.411-5.453,4.363-7.71-0.093c-0.93-1.835-1.901-2.288-3.638-2.239
			c-1.978,0.056-3.97,0.169-5.934,0.001c-3.278-0.279-3.024,1.17-2.047,3.455c2.131,4.986,3.489,10.189,3.894,15.621
			c0.815,10.952,0.059,21.586-6.1,31.183c-0.476,0.741-1.548,2.414,0.337,2.271c3.414-0.259,7.377,2.057,10.089-2.543
			c1.843-3.126,5.524-2.98,7.477,0.233c1.448,2.384,3.119,2.504,5.311,2.493C69.882,90.925,76.538,90.946,83.195,90.944z
			 M37.963,63.897c-0.318-6.777-1.415-13.273-4.996-19.137c-6.209-10.166-16.517-10.317-22.654-0.076
			c-4.584,7.65-5.954,16.079-4.563,24.924c0.26,1.651,0.266,3.24,2.867,2.419c2.419-0.765,4.253,0.484,4.986,2.86
			c0.667,2.164-0.145,4.052-2.248,4.887c-2.746,1.09-1.708,2.505-0.7,4.104c5.604,8.888,14.944,9.296,21.221,0.847
			C36.475,78.534,37.576,71.28,37.963,63.897z"/>
		<path fill-rule="evenodd" clip-rule="evenodd" d="M104.003,79.696c-0.076,2.721-2.582,5.067-5.331,4.992s-5.136-2.533-5.085-5.239
			c0.051-2.78,2.42-4.968,5.324-4.915C101.771,74.585,104.081,76.928,104.003,79.696z"/>
		<path fill-rule="evenodd" clip-rule="evenodd" d="M109.012,49.909c0.041,2.757-1.872,4.728-4.624,4.761
			c-2.758,0.033-4.705-1.864-4.756-4.633c-0.049-2.783,1.832-4.724,4.605-4.748C107.003,45.264,108.97,47.168,109.012,49.909z"/>
		<path fill-rule="evenodd" clip-rule="evenodd" d="M76.107,65.688c-1.53-0.193-2.442-1.086-2.312-2.817
			c0.111-1.485,1.018-2.234,2.465-2.214c1.77,0.026,2.551,1.1,2.459,2.766C78.639,64.907,77.664,65.581,76.107,65.688z"/>
		<path fill-rule="evenodd" clip-rule="evenodd" d="M49.7,50.426c-1.531-0.194-2.442-1.086-2.311-2.817
			c0.112-1.485,1.018-2.234,2.465-2.214c1.77,0.025,2.55,1.099,2.459,2.765C52.232,49.644,51.257,50.317,49.7,50.426z"/>
		<path fill-rule="evenodd" clip-rule="evenodd" d="M23.242,69.966c-2.059-0.126-3.422-1.122-3.507-3.288
			c-0.083-2.114,1.065-3.511,3.179-3.602c2.077-0.089,3.419,1.132,3.552,3.252C26.603,68.491,25.33,69.613,23.242,69.966z"/>
		<path fill-rule="evenodd" clip-rule="evenodd" d="M62.49,78.931c-2.059-0.127-3.422-1.122-3.507-3.289
			c-0.082-2.113,1.065-3.51,3.179-3.601c2.078-0.089,3.419,1.132,3.552,3.252C65.851,77.455,64.577,78.577,62.49,78.931z"/>
		<path fill-rule="evenodd" clip-rule="evenodd" d="M24.376,47c-0.259,1.498-1.316,2.236-2.992,1.969
			c-1.464-0.233-2.17-1.285-1.985-2.679c0.219-1.661,1.343-2.547,3.021-2.248C23.82,44.292,24.503,45.304,24.376,47z"/>
		<path fill-rule="evenodd" clip-rule="evenodd" d="M27.893,84.773c-1.829-0.195-2.665-0.986-2.555-2.495
			c0.111-1.539,1.133-2.19,2.574-2.06c1.227,0.112,1.888,0.937,1.926,2.161C29.885,83.923,28.956,84.575,27.893,84.773z"/>
		<path fill-rule="evenodd" clip-rule="evenodd" d="M12.146,61.758c-1.829-0.195-2.665-0.986-2.555-2.495
			c0.111-1.538,1.133-2.19,2.574-2.06c1.227,0.112,1.888,0.937,1.926,2.161C14.138,60.907,13.208,61.56,12.146,61.758z"/>
	</g>
</g>
</svg>
