<?xml version="1.0" encoding="utf-8"?>
<!-- Generator: Adobe Illustrator 16.0.4, SVG Export Plug-In . SVG Version: 6.00 Build 0)  -->
<!DOCTYPE svg PUBLIC "-//W3C//DTD SVG 1.1//EN" "http://www.w3.org/Graphics/SVG/1.1/DTD/svg11.dtd">
<svg version="1.1" id="Layer_4503" xmlns="http://www.w3.org/2000/svg" xmlns:xlink="http://www.w3.org/1999/xlink" x="0px" y="0px"
	 width="128px" height="128px" viewBox="0 0 128 128" enable-background="new 0 0 128 128" xml:space="preserve">
<g id="_x31_Gldfj.tif">
	<g>
		<path fill-rule="evenodd" clip-rule="evenodd" d="M2.748,65.94c0.133-8.539,1.917-16.979,6.473-24.674
			c3.923-6.626,8.457-12.764,14.181-18.006c5.365-4.913,10.887-9.61,16.885-13.73C43.605,7.25,47.1,5.276,50.769,3.606
			c5.314-2.417,10.867-3.517,16.699-3.191c6.074,0.339,11.868,1.753,17.276,4.582c4.068,2.128,7.701,4.865,10.981,8.075
			c2.272,2.224,4.473,4.52,6.555,6.917c1.286,1.481,2.38,3.129,3.554,4.707c2.785,3.746,5.676,7.419,8.322,11.261
			c3.444,5,6.69,10.137,8.742,15.912c1.42,3.997,2.301,8.111,2.35,12.358c0.078,6.732-1.025,13.25-3.799,19.433
			c-1.552,3.46-3.601,6.592-6.201,9.354c-0.359,0.381-0.65,0.802-0.91,1.253c-0.735,1.272-1.504,2.525-2.229,3.804
			c-2.215,3.909-5.225,7.074-8.934,9.592c-0.786,0.534-1.551,1.101-2.343,1.627c-0.37,0.246-0.644,0.555-0.874,0.93
			c-1.717,2.775-3.423,5.559-5.427,8.142c-2.787,3.595-6.213,6.353-10.506,7.957c-2.145,0.802-4.38,1.162-6.659,1.25
			c-2.942,0.114-5.875-0.063-8.804-0.344c-2.376-0.228-4.738-0.126-7.112,0.136c-3.775,0.416-7.55,0.474-11.261-0.559
			c-2.55-0.71-4.833-1.967-7.003-3.447c-2.825-1.93-5.438-4.128-8.019-6.366c-1.926-1.671-3.83-3.368-5.742-5.057
			c-0.926-0.818-1.983-1.458-2.977-2.186c-5.167-3.787-9.354-8.44-12.454-14.058c-0.188-0.341-0.393-0.664-0.673-0.943
			C8.506,89.95,5.468,84.193,4.013,77.57C3.194,73.841,2.772,70.073,2.748,65.94z M82.752,8.885
			c-0.02-0.067-0.044-0.127-0.124-0.139c-0.749-1.582-1.603-3.1-2.763-4.422c-0.299-0.34-0.674-0.605-1.069-0.83
			c-1.282-0.727-2.694-1.017-4.128-1.232c-0.082-0.012-0.223-0.021-0.243,0.017c-0.063,0.119,0.066,0.184,0.136,0.252
			c1.002,0.984,1.929,2.035,2.799,3.138c0.44,0.56,1.066,0.864,1.714,1.12c0.743,0.293,1.461,0.638,2.155,1.035
			c0.486,0.277,0.883,0.688,1.394,0.927c0.014,0.08,0.065,0.115,0.142,0.123l0.013,0.023C82.776,8.897,82.752,8.885,82.752,8.885z
			 M37.496,111.34l-0.021-0.01l0.03,0.012c-0.005,0.082,0.045,0.117,0.116,0.134c0.771,0.819,1.658,1.508,2.533,2.206
			c3.406,2.722,7.02,5.103,11.075,6.767c3.231,1.325,6.555,1.883,10.015,1.225c2.753-0.523,5.484-0.486,8.241-0.016
			c3.406,0.58,6.808,0.397,10.168-0.365c2.796-0.634,5.259-2.031,7.69-3.496c3.42-2.06,5.898-4.94,7.598-8.526
			c0.016-0.005,0.032-0.008,0.045-0.017c0.007-0.005,0.006-0.021,0.008-0.032c-0.015,0.02-0.028,0.039-0.043,0.06
			c-0.335,0.055-0.572,0.292-0.838,0.468c-2.601,1.722-5.342,3.185-8.202,4.419c-5.744,2.479-11.749,3.907-17.99,4.295
			c-4.939,0.307-9.845-0.027-14.687-1.069c-5.008-1.079-9.785-2.812-14.299-5.252c-0.432-0.233-0.829-0.546-1.324-0.656
			C37.608,111.408,37.555,111.372,37.496,111.34z M92.733,18.102c-0.006-0.08-0.047-0.128-0.128-0.141
			c-0.792-0.976-1.748-1.785-2.671-2.625c-3.427-3.118-7.258-5.641-11.416-7.668c-4.479-2.184-9.248-2.365-14.067-1.823
			C60.064,6.338,55.9,7.71,51.874,9.492c-3.15,1.395-6.058,3.221-8.943,5.085l-0.012,0.02l0.009-0.027
			c0.181,0.019,0.335-0.061,0.495-0.128c3.489-1.472,7.088-2.575,10.812-3.281c4.281-0.812,8.587-1.152,12.942-0.91
			c2.806,0.155,5.581,0.477,8.337,1.049c5.041,1.048,9.83,2.77,14.376,5.183c0.912,0.483,1.772,1.062,2.726,1.47
			c0.009,0.078,0.066,0.112,0.129,0.14l0.015,0.022L92.733,18.102z M15.559,41.045c-0.065,0.078-0.122,0.159-0.118,0.268
			c-0.184,0.057-0.249,0.23-0.348,0.366c-1.812,2.471-3.249,5.142-4.294,8.024c-1.295,3.573-2.02,7.268-2.372,11.045
			C8.1,64.255,7.903,67.764,8.297,71.28c0.425,3.791,1.65,7.316,3.559,10.602c0.725,1.247,1.592,2.407,2.673,3.385l0.018,0.021
			l-0.019-0.017c-0.083-0.222-0.16-0.446-0.249-0.665c-2.428-5.985-3.679-12.221-3.896-18.662c-0.1-2.979,0.081-5.953,0.487-8.912
			c0.623-4.535,1.78-8.922,3.508-13.162c0.35-0.856,0.811-1.667,1.052-2.567c0.132-0.043,0.109-0.16,0.122-0.26l0.026-0.012
			L15.559,41.045z M113.63,87.349c0.069-0.074,0.117-0.159,0.119-0.265c0.947-1.47,1.741-3.024,2.512-4.591
			c2.32-4.712,3.618-9.685,3.741-14.949c0.066-2.879-0.198-5.731-0.729-8.559c-0.425-2.271-1.052-4.489-1.891-6.645
			c-0.033-0.021,0.026-0.116-0.069-0.089c0.026,0.026,0.054,0.053,0.08,0.079c-0.019,0.24,0.03,0.47,0.081,0.704
			c0.705,3.26,1.086,6.563,1.184,9.893c0.085,2.851-0.089,5.694-0.461,8.525c-0.584,4.455-1.705,8.766-3.359,12.942
			c-0.356,0.9-0.809,1.763-1.08,2.697c-0.134,0.046-0.103,0.166-0.118,0.266l-0.036,0.012L113.63,87.349z M95.598,114.855
			c-0.675,0.334-1.348,0.689-2.102,0.8c-1.641,0.238-2.826,1.312-4.115,2.197c-0.066,0.046-0.174,0.096-0.123,0.197
			c0.041,0.081,0.147,0.066,0.23,0.062c0.688-0.03,1.375-0.063,2.062-0.124c2.037-0.182,3.091-1.585,4.037-3.145
			c0.021-0.013,0.044-0.024,0.066-0.036c-0.012,0-0.028-0.004-0.033,0.002C95.609,114.822,95.605,114.84,95.598,114.855z
			 M35.418,18.879c-1.11,0.098-2.135-0.204-3.125-0.666c-0.394-0.184-0.79-0.204-1.184,0.003c-0.62,0.325-1.116,0.808-1.625,1.276
			c-0.128,0.118-0.175,0.241-0.011,0.375c0.922,0.754,1.852,1.37,3.177,0.681c0.956-0.497,1.882-1.048,2.759-1.679l0.021-0.027
			L35.418,18.879z M7.141,63.885c-0.213,0.05-0.298,0.239-0.412,0.389c-0.67,0.875-1.24,1.815-1.853,2.729
			c-0.811,1.209-0.785,2.521-0.634,3.869c0.01,0.081,0.038,0.214,0.084,0.227c0.088,0.023,0.133-0.089,0.174-0.162
			c0.543-0.961,1.219-1.834,1.828-2.751c0.427-0.645,0.692-1.348,0.762-2.111c0.066-0.729,0.103-1.463,0.043-2.195
			c0.008-0.018,0.016-0.036,0.024-0.054C7.151,63.844,7.146,63.864,7.141,63.885z M33.582,114.339l0.032,0.007l-0.042,0.004
			c-0.163-1.304-0.376-2.595-0.858-3.825c-0.199-0.51-0.554-0.919-0.955-1.287c-0.677-0.621-0.676-0.622-1.347,0.032
			c-0.155,0.15-0.297,0.317-0.469,0.445c-0.355,0.264-0.344,0.491-0.064,0.838C30.992,111.937,32.293,113.132,33.582,114.339z
			 M6.101,51.809c1.025-0.912,1.981-1.908,3.084-2.725c1.159-0.858,1.691-2.065,2.089-3.374l0.035-0.014l-0.025,0.023
			c-1.156,0.567-2.278,1.193-3.325,1.944c-0.402,0.287-0.796,0.602-0.998,1.072c-0.423,0.987-0.731,2.01-0.851,3.083L6.101,51.809z
			 M121.15,81.911c-0.979,0.578-1.872,1.311-2.918,1.771c-1.631,0.716-2.244,2.245-3.014,3.655
			c-0.144,0.264,0.059,0.281,0.248,0.264c0.816-0.074,1.628-0.174,2.383-0.525c0.357-0.166,0.676-0.393,0.922-0.696
			c1.083-1.337,1.792-2.874,2.369-4.479c0.066-0.011,0.079-0.025,0.037-0.046C121.169,81.873,121.16,81.892,121.15,81.911z
			 M40.599,115.763c-0.024-0.056-0.04-0.062-0.043-0.021c0,0.002,0.034,0.008,0.051,0.013c0.002,0.235,0.171,0.39,0.281,0.57
			c0.629,1.032,1.274,2.055,1.759,3.167c1.223,2.816,1.224,2.819,3.86,4.354c0.31,0.181,0.587,0.445,0.979,0.459
			c0.008,0.015,0.017,0.03,0.024,0.046c-0.012-0.012-0.023-0.024-0.035-0.037c-0.469-0.771-0.947-1.537-1.405-2.314
			c-0.502-0.854-0.966-1.729-1.483-2.572C43.606,117.831,42.247,116.637,40.599,115.763z M122.966,75.298
			c-0.808,0.712-1.651,1.364-2.665,1.776c-0.414,0.169-0.649,0.561-0.813,0.969c-0.569,1.418-1.099,2.853-1.824,4.203
			c-0.035,0.065-0.12,0.153-0.032,0.226c0.08,0.065,0.157-0.02,0.227-0.058c1.041-0.57,2.063-1.168,2.938-1.982
			c0.461-0.429,0.855-0.915,1.113-1.493c0.52-1.167,0.826-2.396,1.048-3.649L122.966,75.298z M81.842,4.867l-0.01-0.027l0.019,0.019
			c0.476,1.232,1.138,2.367,1.814,3.495c0.947,1.579,2.256,2.768,3.86,3.647c0.094,0.052,0.209,0.172,0.283,0.115
			c0.122-0.093,0.01-0.243-0.025-0.355c-0.512-1.642-1.238-3.179-2.317-4.526C84.52,6.055,83.274,5.312,81.842,4.867z
			 M92.882,114.726c1.096-0.459,2.166-0.97,3.194-1.566c1.073-0.621,1.926-1.462,2.487-2.572c0.72-1.424,0.688-0.92-0.108-2.226
			c-0.239-0.392-0.427-0.349-0.76-0.13c-0.781,0.513-1.342,1.21-1.805,2.002c-0.86,1.474-1.712,2.954-2.88,4.219
			c-0.071,0.077-0.146,0.162-0.12,0.284l-0.041-0.002L92.882,114.726z M9.448,50.236c-1.207,1.17-2.378,2.374-3.476,3.647
			c-0.341,0.395-0.571,0.865-0.717,1.366c-0.32,1.101-0.437,2.239-0.566,3.374c-0.011,0.102-0.053,0.248,0.04,0.296
			c0.118,0.06,0.177-0.09,0.243-0.165c0.924-1.054,1.829-2.124,2.839-3.1c0.298-0.288,0.487-0.662,0.6-1.06
			c0.407-1.429,0.756-2.873,1.077-4.323c0.056-0.036,0.098-0.074,0.025-0.134C9.492,50.171,9.47,50.204,9.448,50.236z M87.81,8.104
			c-0.005-0.016-0.007-0.035-0.017-0.048c-0.004-0.007-0.022-0.004-0.035-0.005c0.021,0.014,0.041,0.028,0.062,0.043
			c-0.036,0.207,0.073,0.377,0.148,0.552c0.468,1.088,0.989,2.156,1.401,3.265c0.725,1.958,2.331,3.102,3.856,4.33
			c0.165,0.133,0.277,0.112,0.259-0.13c-0.034-0.429-0.051-0.861-0.114-1.287c-0.19-1.294-0.509-2.557-1.432-3.538
			C90.737,10.007,89.285,9.036,87.81,8.104z M94.176,13.15c-0.021-0.016-0.043-0.032-0.065-0.049
			c0.016,0.023,0.031,0.046,0.047,0.068c0.025,0.148,0.034,0.301,0.079,0.443c0.425,1.359,0.85,2.718,0.996,4.146
			c0.036,0.348,0.205,0.659,0.419,0.936c0.716,0.926,1.583,1.709,2.418,2.521c0.075,0.073,0.143,0.16,0.272,0.123
			c0.238-0.067,0.858-0.886,0.839-1.153c-0.065-0.907-0.147-1.817-0.625-2.62C97.465,15.731,95.924,14.337,94.176,13.15z
			 M115.951,40.927c-0.017-0.034,0.046-0.114-0.058-0.097c0.022,0.029,0.045,0.06,0.067,0.089c0.421,1.86,0.537,3.753,0.624,5.65
			c0.032,0.717,0.118,1.429,0.431,2.079c0.76,1.577,1.414,3.195,1.999,4.843c0.029,0.083,0.021,0.229,0.158,0.217
			c0.03-0.003,0.062-0.15,0.069-0.233c0.135-1.613,0.262-3.227,0.244-4.849c-0.011-0.945-0.222-1.84-0.616-2.691
			c-0.789-1.708-1.797-3.295-2.768-4.901C116.073,40.984,116.003,40.961,115.951,40.927z M74.836,5.118l-0.008,0.009
			c-0.455-0.897-1.194-1.564-1.863-2.285c-0.699-0.755-1.581-1.171-2.592-1.347c-1.86-0.323-3.732-0.362-5.61-0.255
			c-0.137,0.008-0.344-0.082-0.396,0.097c-0.044,0.153,0.145,0.249,0.253,0.342c1.487,1.281,3.155,2.254,5.023,2.863
			c0.304,0.099,0.637,0.156,0.955,0.153C72.027,4.685,73.439,4.815,74.836,5.118z M64.477,96.832
			c17.922,0.013,32.49-14.479,32.512-32.343c0.022-18.019-14.481-32.599-32.451-32.623c-17.884-0.025-32.458,14.545-32.476,32.465
			C32.044,82.271,46.553,96.819,64.477,96.832z M45.682,35.279c-0.081-0.191-0.263-0.283-0.408-0.406
			c-4.248-3.609-8.502-7.209-12.738-10.832c-0.384-0.328-0.6-0.284-0.956,0.01c-3.163,2.611-5.995,5.538-8.481,8.8
			c-1.348,1.77-2.579,3.617-3.68,5.551c-0.318,0.561-0.315,0.571,0.219,0.989c0.051,0.04,0.101,0.082,0.149,0.123
			c4.147,3.526,8.295,7.052,12.442,10.579c0.689,0.586,0.57,0.442,0.882-0.226c1.745-3.736,4.065-7.064,6.989-9.978
			c1.598-1.592,3.327-3.017,5.19-4.283C45.431,35.513,45.602,35.45,45.682,35.279z M32.017,105.006
			c0.163,0.008,0.235-0.077,0.316-0.146c0.197-0.167,0.395-0.336,0.592-0.504c4.099-3.484,8.199-6.968,12.297-10.451
			c0.54-0.46,0.541-0.468,0.038-0.809c-5.423-3.679-9.508-8.49-12.243-14.448c-0.221-0.481-0.232-0.482-0.642-0.136
			c-2.866,2.434-5.729,4.869-8.595,7.302c-1.382,1.173-2.77,2.337-4.151,3.51c-0.52,0.44-0.514,0.444-0.174,1.055
			c0.893,1.605,1.908,3.134,2.987,4.618c2.631,3.619,5.683,6.843,9.141,9.682C31.732,104.801,31.891,104.91,32.017,105.006z
			 M109.868,89.888c-0.025-0.252-0.214-0.347-0.356-0.469c-2.504-2.125-5.012-4.245-7.516-6.369
			c-1.797-1.524-3.594-3.048-5.379-4.585c-0.287-0.246-0.458-0.28-0.584,0.116c-0.025,0.081-0.067,0.158-0.104,0.237
			c-2.699,5.825-6.702,10.547-11.996,14.177c-0.652,0.447-0.654,0.445-0.067,0.945c0.017,0.015,0.034,0.027,0.05,0.042
			c4.185,3.554,8.369,7.108,12.553,10.664c0.61,0.52,0.478,0.454,1.045-0.011c2.332-1.906,4.467-4.016,6.437-6.294
			c2.183-2.523,4.059-5.265,5.759-8.129C109.773,90.103,109.822,89.982,109.868,89.888z M96.952,23.713
			c-0.111,0.085-0.234,0.17-0.349,0.268c-4.332,3.675-8.662,7.354-13,11.021c-0.293,0.248-0.242,0.348,0.046,0.543
			c5.468,3.687,9.597,8.517,12.353,14.514c0.227,0.494,0.241,0.499,0.651,0.152c1.913-1.619,3.824-3.24,5.732-4.863
			c2.385-2.029,4.756-4.075,7.161-6.079c0.337-0.281,0.361-0.442,0.146-0.775c-0.761-1.175-1.469-2.386-2.257-3.543
			c-2.813-4.135-6.176-7.772-10.042-10.943C97.262,23.898,97.143,23.769,96.952,23.713z M29.99,21.992
			c-0.07-0.057-0.149-0.129-0.235-0.19c-0.404-0.288-0.825-0.556-1.212-0.865c-0.269-0.216-0.456-0.212-0.708,0.029
			c-0.814,0.773-1.645,1.529-2.475,2.285c-3.852,3.509-7.123,7.516-10.124,11.758c-0.242,0.341-0.174,0.496,0.141,0.706
			c0.501,0.334,1.012,0.659,1.478,1.048c0.388,0.325,0.465,0.301,0.741-0.133c0.754-1.184,1.522-2.358,2.369-3.479
			c2.947-3.903,6.134-7.588,9.793-10.849C29.848,22.221,29.984,22.173,29.99,21.992z M99.969,108.78
			c0.173-0.026,0.283-0.137,0.406-0.223c0.759-0.533,1.516-1.07,2.275-1.604c3.277-2.309,5.934-5.194,7.987-8.636
			c0.741-1.24,1.484-2.48,2.212-3.73c0.225-0.384,0.688-0.782,0.559-1.178c-0.117-0.361-0.721-0.399-1.114-0.561
			c-0.717-0.294-0.58-0.437-0.991,0.347c-2.729,5.2-6.385,9.621-11.072,13.177c-0.344,0.261-0.693,0.514-1.041,0.771
			c-0.146,0.107-0.282,0.217-0.14,0.421c0.259,0.371,0.517,0.744,0.779,1.113C99.862,108.725,99.927,108.751,99.969,108.78z
			 M16.392,92.815c-0.07,0.063-0.153,0.131-0.228,0.206c-0.228,0.231-0.436,0.483-0.68,0.694c-0.269,0.232-0.231,0.428-0.065,0.717
			c1.464,2.553,3.115,4.972,4.977,7.256c2.322,2.851,5.021,5.285,7.984,7.444c0.3,0.219,0.494,0.262,0.751-0.039
			c0.237-0.278,0.513-0.526,0.791-0.766c0.27-0.231,0.338-0.388-0.026-0.616c-0.585-0.366-1.156-0.761-1.695-1.191
			c-3.762-3-6.87-6.606-9.675-10.489c-0.657-0.911-1.206-1.894-1.774-2.862C16.669,93.029,16.628,92.839,16.392,92.815z
			 M112.949,36.228c-0.065-0.097-0.121-0.188-0.186-0.272c-0.349-0.468-0.703-0.932-1.05-1.401c-3.4-4.611-7.06-9.019-10.594-13.525
			c-0.208-0.265-0.339-0.316-0.581-0.055c-0.353,0.38-0.72,0.75-1.107,1.093c-0.281,0.248-0.251,0.411-0.002,0.672
			c1.074,1.125,2.133,2.266,3.183,3.414c3.038,3.324,5.698,6.951,8.414,10.532c0.144,0.189,0.298,0.37,0.44,0.561
			c0.087,0.116,0.186,0.203,0.317,0.091c0.361-0.308,0.715-0.624,1.068-0.941C112.896,36.357,112.914,36.291,112.949,36.228z
			 M76.24,126.549c1.347-0.027,2.603-0.249,3.863-0.428c0.082-0.013,0.236-0.039,0.235-0.049c-0.011-0.14-0.138-0.143-0.237-0.17
			c-1.089-0.294-2.143-0.667-3.062-1.35c-0.45-0.335-0.907-0.662-1.368-0.981c-0.341-0.236-0.706-0.414-1.135-0.428
			c-1.514-0.049-3.01-0.26-4.508-0.461c-0.641-0.086-1.285-0.151-1.929-0.224c-0.083-0.009-0.235-0.023-0.241-0.001
			c-0.041,0.136,0.098,0.158,0.176,0.215c0.105,0.075,0.217,0.141,0.324,0.215c1.534,1.049,3.207,1.872,4.762,2.887
			C74.102,126.415,75.135,126.749,76.24,126.549z M62.126,4.938c1.168-0.084,2.352-0.165,3.535-0.255
			c0.246-0.019,0.61,0.062,0.692-0.158c0.055-0.146-0.338-0.269-0.538-0.384c-1.16-0.666-2.358-1.278-3.25-2.317
			c-0.249-0.29-0.546-0.198-0.838-0.145c-1.464,0.266-2.92,0.572-4.344,1.013c-0.2,0.062-0.52,0.032-0.568,0.232
			c-0.061,0.252,0.253,0.363,0.43,0.495C58.688,4.492,60.354,4.862,62.126,4.938z M53.746,7.283
			c1.769-0.095,3.501-0.691,5.241-1.258c0.073-0.024,0.203-0.03,0.156-0.147c-0.024-0.061-0.131-0.098-0.208-0.126
			c-0.877-0.313-1.721-0.7-2.451-1.281c-0.737-0.586-1.519-0.638-2.371-0.328c-1.421,0.517-2.752,1.225-4.102,1.897
			c-0.073,0.036-0.174,0.094-0.188,0.157c-0.019,0.087,0.101,0.121,0.17,0.15C51.169,6.844,52.366,7.257,53.746,7.283z
			 M124.359,66.721c0-0.173,0.013-0.347-0.005-0.518c-0.012-0.11,0.103-0.283-0.07-0.317c-0.089-0.019-0.126,0.151-0.167,0.248
			c-0.544,1.287-1.283,2.435-2.328,3.383c-0.511,0.463-0.748,1.104-0.895,1.764c-0.297,1.348-0.576,2.699-0.861,4.048
			c-0.021,0.103-0.081,0.23,0.006,0.307c0.12,0.104,0.237-0.015,0.344-0.069c1.463-0.757,2.475-1.9,3.057-3.449
			C124.095,70.372,124.284,68.56,124.359,66.721z M83.361,125.266c1.518,0.08,3.015-0.836,4.436-1.941
			c0.066-0.051,0.168-0.103,0.148-0.192c-0.034-0.155-0.178-0.086-0.267-0.078c-1.656,0.148-3.272-0.149-4.887-0.442
			c-0.778-0.141-1.544-0.149-2.311,0.045c-0.775,0.195-1.557,0.354-2.356,0.415c-0.137,0.011-0.344-0.021-0.382,0.15
			c-0.027,0.121,0.148,0.197,0.25,0.27C79.488,124.546,81.116,125.232,83.361,125.266z M55.657,126.509
			c0.259,0,0.518,0.004,0.776-0.003c0.073-0.002,0.193,0.046,0.208-0.067c0.012-0.092-0.099-0.123-0.175-0.157
			c-0.117-0.055-0.235-0.107-0.353-0.163c-1.987-0.927-3.819-2.07-5.403-3.613c-1.212-1.182-2.669-2.041-4.151-2.844
			c-0.082-0.045-0.155-0.18-0.27-0.071c-0.01,0.009,0.086,0.135,0.139,0.202c0.546,0.696,1.083,1.398,1.568,2.14
			c0.556,0.848,1.113,1.694,1.663,2.545c0.53,0.819,1.256,1.328,2.22,1.542C53.127,126.294,54.382,126.466,55.657,126.509z
			 M121.155,66.473c0,0.524,0,1.086-0.001,1.647c0,0.209,0.08,0.287,0.271,0.158c0.106-0.071,0.214-0.148,0.302-0.242
			c1.373-1.459,2.294-3.147,2.362-5.18c0.06-1.753-0.21-3.485-0.606-5.193c-0.018-0.075,0.004-0.165-0.084-0.211
			c-0.023,0.081-0.061,0.16-0.068,0.243c-0.162,1.683-0.745,3.225-1.54,4.703c-0.255,0.474-0.468,0.977-0.503,1.526
			C121.232,64.761,121.199,65.599,121.155,66.473z M71.222,126.666c0.238,0,0.476,0.005,0.713-0.002
			c0.078-0.003,0.155-0.035,0.232-0.055c-0.033-0.104-0.138-0.089-0.212-0.116c-1.901-0.695-3.665-1.615-5.176-3
			c-0.824-0.756-1.841-1.126-2.973-1.07c-0.993,0.049-1.971,0.232-2.946,0.419c-0.1,0.02-0.271,0.07-0.272,0.114
			c-0.007,0.115,0.132,0.148,0.227,0.197c1.768,0.906,3.537,1.811,5.422,2.455C67.855,126.162,69.5,126.597,71.222,126.666z
			 M4.663,74.53c0.135,1.712,0.616,3.344,1.178,4.955c0.027,0.08,0.043,0.197,0.14,0.189c0.139-0.011,0.107-0.161,0.135-0.252
			c0.349-1.135,0.695-2.271,1.201-3.347c0.393-0.837,0.467-1.705,0.291-2.593c-0.224-1.121-0.451-2.242-0.506-3.389
			c-0.004-0.072,0.043-0.193-0.077-0.209c-0.1-0.012-0.121,0.1-0.163,0.171c-0.637,1.077-1.272,2.155-1.912,3.231
			C4.72,73.672,4.622,74.083,4.663,74.53z M119.982,55.581c0.014,0.296-0.003,0.667,0.053,1.028
			c0.231,1.516,0.483,3.028,0.732,4.541c0.011,0.067-0.04,0.197,0.085,0.184c0.053-0.006,0.107-0.123,0.136-0.199
			c0.323-0.85,0.516-1.736,0.738-2.615c0.793-3.134,0.402-6.128-0.999-9.014c-0.045-0.093-0.055-0.215-0.184-0.246
			c-0.021,0.103-0.053,0.205-0.062,0.309c-0.061,0.731-0.125,1.464-0.172,2.197C120.23,53.016,120.017,54.254,119.982,55.581z
			 M60.343,126.327c1.261-0.049,2.579-0.305,3.908-0.46c0.085-0.01,0.201,0.057,0.254-0.074c-0.079-0.028-0.156-0.067-0.238-0.085
			c-1.685-0.37-3.245-1.025-4.668-2.009c-0.396-0.274-0.849-0.417-1.344-0.404c-1.447,0.039-2.894,0.038-4.325-0.233
			c-0.076-0.015-0.216-0.008-0.23,0.028c-0.036,0.091,0.066,0.144,0.134,0.193c1.116,0.813,2.197,1.68,3.441,2.302
			C58.215,126.056,59.21,126.312,60.343,126.327z M34.508,111.335c-0.17,0.068-0.065,0.172-0.035,0.248
			c0.392,1.029,0.725,2.078,0.874,3.172c0.084,0.611,0.379,1.088,0.811,1.504c1.276,1.229,2.676,2.313,4.04,3.438
			c0.06,0.05,0.18,0.121,0.206,0.1c0.073-0.059,0.025-0.158-0.003-0.238c-0.401-1.115-0.79-2.235-1.29-3.312
			c-0.423-0.911-0.997-1.713-1.711-2.414c-0.848-0.832-1.768-1.583-2.685-2.335C34.648,111.442,34.58,111.392,34.508,111.335z
			 M10.311,84.842c0.029,0,0.059,0,0.088,0c0,0.819-0.004,1.639,0.001,2.458c0.011,1.881,0.826,3.395,2.156,4.667
			c0.059,0.056,0.147,0.144,0.2,0.13c0.139-0.037,0.069-0.175,0.077-0.271c0.062-0.756-0.102-1.5-0.116-2.254
			c-0.025-1.271-0.12-2.542-0.354-3.793c-0.265-1.415-1.192-2.518-1.844-3.75c-0.029-0.056-0.055-0.142-0.129-0.12
			c-0.107,0.028-0.078,0.137-0.078,0.216C10.311,83.03,10.311,83.937,10.311,84.842z M48.1,7.353c-0.086,0-0.174-0.01-0.259,0.002
			c-1.336,0.188-2.436,0.961-3.637,1.482c-0.167,0.072-0.116,0.191-0.041,0.315c0.67,1.111,2.451,1.933,3.713,1.244
			c1.23-0.671,2.424-1.41,3.702-1.992c0.062-0.028,0.196-0.051,0.136-0.158c-0.032-0.059-0.143-0.093-0.223-0.104
			c-0.796-0.109-1.543-0.4-2.311-0.613C48.827,7.432,48.471,7.342,48.1,7.353z M9.56,80.897c0.062-1.006-0.242-1.789-0.576-2.564
			c-0.041-0.093-0.055-0.239-0.182-0.238c-0.125,0.001-0.134,0.148-0.17,0.239c-0.526,1.324-0.966,2.674-1.212,4.081
			c-0.109,0.622-0.135,1.234,0.112,1.842c0.473,1.162,1.066,2.259,1.732,3.319c0.042,0.068,0.125,0.184,0.158,0.174
			c0.138-0.04,0.077-0.173,0.074-0.27C9.431,85.239,9.368,82.998,9.56,80.897z M3.936,64.474c0,0.475-0.005,0.949,0.004,1.423
			c0.001,0.089-0.077,0.235,0.084,0.254c0.044,0.005,0.112-0.115,0.154-0.187c0.667-1.164,1.533-2.184,2.337-3.249
			c0.409-0.542,0.693-1.128,0.767-1.82c0.107-1.006,0.228-2.012,0.433-3.005c0.017-0.081,0.038-0.224,0.004-0.243
			c-0.116-0.066-0.18,0.058-0.243,0.13c-0.583,0.664-1.17,1.325-1.743,1.998C4.581,61.129,3.738,62.602,3.936,64.474z
			 M115.597,44.896c-0.014,0-0.027,0-0.041,0c0-0.344,0.017-0.69-0.003-1.033c-0.113-2.01-0.636-3.901-1.643-5.653
			c-0.11-0.192-0.164-0.328-0.424-0.172c-0.781,0.471-1.136,1.25-0.933,2.147c0.058,0.25,0.116,0.506,0.213,0.744
			c0.744,1.84,1.718,3.569,2.607,5.338c0.034,0.069,0.062,0.194,0.165,0.154c0.043-0.017,0.054-0.151,0.055-0.232
			C115.6,45.759,115.597,45.328,115.597,44.896z M87.225,121.862c1.773,0.015,3.409-0.728,4.383-1.989
			c0.064-0.083,0.175-0.161,0.127-0.274c-0.015-0.035-0.155-0.034-0.236-0.025c-1.525,0.181-3.057,0.24-4.593,0.239
			c-0.571,0-1.106,0.16-1.6,0.459c-0.351,0.214-0.713,0.406-1.068,0.612c-0.09,0.052-0.232,0.074-0.243,0.188
			c-0.016,0.16,0.151,0.189,0.26,0.239C85.197,121.737,86.202,121.851,87.225,121.862z M14.804,40.137
			c-0.088-0.147-0.182-0.03-0.253,0.001c-1.253,0.537-2.414,1.245-3.595,1.919c-1.642,0.938-2.525,2.429-3.179,4.112
			c-0.022,0.057-0.06,0.152-0.038,0.172c0.088,0.08,0.147-0.02,0.204-0.067c1.162-0.978,2.471-1.735,3.763-2.521
			c0.599-0.364,1.1-0.836,1.479-1.428c0.455-0.71,0.92-1.411,1.496-2.031C14.724,40.246,14.76,40.192,14.804,40.137z M14.505,36.811
			c-0.554,0.008-1.224,0.368-1.716,0.869c-0.96,0.977-1.636,2.155-2.346,3.31c-0.05,0.082-0.17,0.195-0.094,0.271
			c0.087,0.087,0.188-0.045,0.271-0.098c1.554-0.967,3.134-1.88,4.898-2.425c0.378-0.117,0.674-0.373,0.955-0.641
			c0.091-0.087,0.232-0.179,0.068-0.304C15.904,37.307,15.2,36.958,14.505,36.811z M117.098,88.803
			c-0.547,0.121-1.109,0.119-1.669,0.163c-0.381,0.031-0.774,0.081-1.094,0.346c-0.776,0.646-1.273,1.515-1.853,2.316
			c-0.072,0.101-0.171,0.243,0.008,0.32c0.514,0.225,1.033,0.438,1.558,0.636c0.156,0.06,0.281-0.082,0.403-0.165
			c1.242-0.844,2.104-2.021,2.864-3.287C117.473,88.87,117.451,88.731,117.098,88.803z M39.194,14.869
			c1.051,0.098,1.956-0.461,2.864-1.01c0.051-0.031,0.083-0.092,0.124-0.14c-0.072-0.043-0.138-0.112-0.214-0.126
			c-0.581-0.102-1.108-0.353-1.643-0.581c-2.201-0.938-2.157-0.831-3.993,0.725c-0.017,0.014-0.031,0.03-0.048,0.043
			c-0.249,0.197-0.212,0.325,0.077,0.444C37.245,14.59,38.149,14.855,39.194,14.869z M35.567,17.562
			c0.907-0.049,1.94-0.731,2.992-1.366c0.045-0.027,0.063-0.099,0.094-0.149c-0.077-0.036-0.15-0.094-0.231-0.105
			c-0.904-0.133-1.751-0.454-2.602-0.768c-0.368-0.136-0.772-0.231-1.131-0.014c-0.646,0.39-1.268,0.821-1.898,1.236
			c-0.146,0.096-0.151,0.196,0.001,0.291C33.528,17.145,34.273,17.58,35.567,17.562z M13.771,88.444
			c-0.043,0.75,0.049,1.479,0.075,2.209c0.027,0.774,0.067,1.549,0.111,2.322c0.015,0.262,0.114,0.371,0.347,0.145
			c0.541-0.526,1.081-1.053,1.627-1.572c0.234-0.223,0.255-0.457,0.147-0.755c-0.53-1.47-1.34-2.787-2.199-4.077
			c-0.048-0.072-0.098-0.157-0.192-0.115c-0.028,0.012-0.023,0.119-0.02,0.183C13.701,87.343,13.737,87.901,13.771,88.444z
			 M43.264,12.599c0.709-0.021,1.226-0.295,1.742-0.564c0.156-0.081,0.093-0.149-0.03-0.199c-0.689-0.282-1.244-0.772-1.843-1.195
			c-0.562-0.398-1.154-0.436-1.78-0.173c-0.479,0.202-0.916,0.482-1.362,0.745c-0.296,0.174-0.192,0.267,0.047,0.352
			c0.793,0.281,1.584,0.569,2.382,0.835C42.724,12.5,43.047,12.549,43.264,12.599z"/>
	</g>
</g>
</svg>
