<?xml version="1.0" encoding="utf-8"?>
<!-- Generator: Adobe Illustrator 16.0.4, SVG Export Plug-In . SVG Version: 6.00 Build 0)  -->
<!DOCTYPE svg PUBLIC "-//W3C//DTD SVG 1.1//EN" "http://www.w3.org/Graphics/SVG/1.1/DTD/svg11.dtd">
<svg version="1.1" id="Layer_4802" xmlns="http://www.w3.org/2000/svg" xmlns:xlink="http://www.w3.org/1999/xlink" x="0px" y="0px"
	 width="128px" height="128px" viewBox="0 0 128 128" enable-background="new 0 0 128 128" xml:space="preserve">
<g>
	<path fill-rule="evenodd" clip-rule="evenodd" d="M127.564,106.143c0.04,12.647-8.735,22.062-21.377,22.133
		c-27.771,0.158-55.545-0.026-83.316,0.065c-3.638,0.011-6.419-0.908-8.816-3.739c-3.802-4.494-7.817-8.814-11.874-13.082
		c-1.999-2.104-1.843-3.672,0.269-5.577c3.956-3.566,7.69-7.379,11.633-10.962c2.092-1.9,2.249-3.384,0.159-5.497
		c-4.139-4.187-7.974-8.67-12.047-12.925c-2.463-2.57-2.324-4.676,0.322-7.056c3.335-2.997,6.468-6.222,9.641-9.396
		c4.557-4.555,4.568-4.601,0.376-9.102c-3.249-3.49-6.521-6.962-9.903-10.321c-2.312-2.296-3.269-4.302-0.424-7.005
		c4.671-4.444,9.196-9.05,13.629-13.733c2.501-2.641,5.608-2.18,8.629-2.183c17.393-0.02,34.787-0.073,52.179,0.108
		c5.112,0.053,8.425-0.71,10.7-6.463c3.593-9.094,14.447-13.45,23.931-11.139c9.709,2.367,15.785,9.815,15.89,20.045
		C127.311,34.901,127.521,92.119,127.564,106.143z M84.59,67.97c0.052,0,0.102,0,0.154,0c0-12.905,0.067-25.809-0.028-38.712
		c-0.052-6.951-0.18-7.066-6.98-7.106c-14.307-0.083-28.614-0.028-42.921-0.029c-15.614,0-15.614,0-25.886,11.108
		c-0.189,0.208-0.367,0.433-0.586,0.603c-2.545,1.965-2.592,3.849-0.21,6.131c3.035,2.906,5.845,6.051,8.722,9.122
		c7.086,7.563,7.146,5.769-0.511,13.42c-2.579,2.578-5.143,5.179-7.86,7.607c-2.283,2.04-2.689,3.718-0.304,6.115
		c3.754,3.772,7.228,7.83,10.757,11.824c4.137,4.68,4.139,4.739-0.559,9.252c-2.832,2.718-5.668,5.453-8.709,7.926
		c-2.914,2.368-3.52,4.092-0.611,7.337c9.657,10.774,9.496,10.92,24.2,10.92c14.026,0,28.052,0,42.08-0.006
		c3.646,0,7.291-0.034,10.938-0.016c3.307,0.012,4.946-0.632,2.417-4.213c-2.978-4.215-4.219-9.005-4.15-14.263
		C84.697,92.653,84.59,80.311,84.59,67.97z M89.722,53.471c0,11.219-0.012,22.44,0.013,33.657c0.006,2.653-0.458,5.435,3.809,2.474
		c8.51-5.9,17.32-5.738,25.818,0.26c2.564,1.812,3.742,2.081,3.73-1.703c-0.068-22.436,0.126-44.875-0.122-67.31
		c-0.107-9.654-7.447-16.514-16.601-16.463C96.428,4.441,89.895,11.053,89.764,21.5C89.632,32.155,89.734,42.814,89.722,53.471z
		 M89.517,106.963c0.065,9.45,7.919,17.21,17.145,16.932c8.963-0.268,16.385-7.835,16.501-16.824
		c0.12-9.258-7.708-17.292-16.875-17.322C96.813,89.716,89.452,97.272,89.517,106.963z"/>
	<path fill-rule="evenodd" clip-rule="evenodd" d="M105.923,121.621c-8.063-0.117-15.003-7.346-14.655-15.271
		c0.364-8.297,7.149-14.424,15.644-14.128c7.897,0.272,14.333,6.928,14.211,14.69C120.992,115.176,114.209,121.74,105.923,121.621z
		 M106.205,118.105c6.258,0.115,11.374-4.615,11.696-10.82c0.318-6.098-5.347-12.04-11.574-12.14
		c-5.99-0.096-11.284,5.05-11.448,11.131C94.69,113.265,99.203,117.977,106.205,118.105z"/>
	<path fill-rule="evenodd" clip-rule="evenodd" d="M97.294,106.88c-0.048-5.063,3.906-9.156,8.896-9.212
		c4.868-0.052,8.982,4.082,9.041,9.09c0.056,4.924-4.087,9.227-8.907,9.253C101.387,116.037,97.342,111.948,97.294,106.88z
		 M111.741,106.859c0.021-3.506-2.369-5.775-5.862-5.57c-3.106,0.185-5.99,3.181-5.544,6.127c0.468,3.072,2.347,5.049,5.601,5.245
		C109.132,112.854,111.724,110.189,111.741,106.859z"/>
</g>
</svg>
