<?xml version="1.0" encoding="utf-8"?>
<!-- Generator: Adobe Illustrator 16.0.4, SVG Export Plug-In . SVG Version: 6.00 Build 0)  -->
<!DOCTYPE svg PUBLIC "-//W3C//DTD SVG 1.1//EN" "http://www.w3.org/Graphics/SVG/1.1/DTD/svg11.dtd">
<svg version="1.1" id="Layer_4803" xmlns="http://www.w3.org/2000/svg" xmlns:xlink="http://www.w3.org/1999/xlink" x="0px" y="0px"
	 width="128px" height="128px" viewBox="0 0 128 128" enable-background="new 0 0 128 128" xml:space="preserve">
<path fill-rule="evenodd" clip-rule="evenodd" d="M63.997,121.716c-17.688,0-35.376-0.001-53.064,0
	c-4.076,0.002-7.229-1.729-9.444-5.121c-1.05-1.606-1.614-3.404-1.615-5.348c-0.004-8.516-0.005-17.031-0.005-25.547
	c0-9.31-0.014-18.619,0.011-27.928c0.016-5.158,4.052-9.694,9.181-10.431c0.627-0.089,1.25-0.128,1.881-0.128
	c4.079,0,8.16,0,12.239-0.001c0.893-0.001,0.915-0.02,0.64-0.864c-1.638-5.02-3.326-10.022-5.131-14.984
	c-2.207-6.067-4.438-12.125-6.654-18.189c-0.323-0.881,0.015-1.484,0.937-1.586c1.964-0.214,3.755-0.954,5.524-1.763
	c1.816-0.831,3.622-1.679,5.474-2.435c3.048-1.245,6.124-1.237,9.248-0.413c2.393,0.632,4.64,1.637,6.875,2.671
	c2.413,1.116,4.944,1.795,7.602,1.86c1.477,0.038,2.937-0.216,4.338-0.753c2.251-0.863,4.393-1.972,6.616-2.894
	c2.233-0.926,4.513-1.672,6.986-1.567c1.604,0.068,3.13,0.465,4.63,1.005c2.036,0.735,3.966,1.715,5.943,2.586
	c1.654,0.728,3.315,1.392,5.157,1.549c2.34,0.201,4.572-0.214,6.771-0.937c1.512-0.497,2.927-1.226,4.382-1.86
	c2.088-0.908,4.219-1.656,6.478-2.037c2.523-0.425,4.948-0.148,7.329,0.765c1.919,0.736,3.758,1.649,5.626,2.495
	c1.447,0.656,2.91,1.263,4.475,1.594c0.27,0.057,0.538,0.086,0.81,0.116c1.095,0.124,1.438,0.65,1.066,1.682
	c-0.717,1.982-1.458,3.953-2.179,5.932c-1.862,5.117-3.732,10.228-5.572,15.351c-1.423,3.964-2.759,7.96-4.043,11.972
	c-0.226,0.7-0.225,0.705,0.527,0.706c3.341,0.001,6.681-0.001,10.021,0c5.55,0,9.924,3.635,10.962,9.091
	c0.104,0.545,0.103,1.09,0.103,1.636c0.001,17.661-0.022,35.322,0.017,52.983c0.012,4.961-3.628,9.656-8.869,10.631
	c-0.763,0.143-1.521,0.162-2.287,0.162C99.318,121.716,81.657,121.716,63.997,121.716z M64.027,49.197c-6.268,0-12.534,0-18.801,0
	c-11.36,0-22.72,0-34.08,0c-0.712,0-1.431-0.028-2.129,0.114c-4.259,0.864-7.23,4.486-7.245,8.844
	c-0.014,4.216-0.004,8.431-0.002,12.648c0,0.86,0.005,0.86,0.879,0.673c0.054-0.012,0.105-0.031,0.158-0.044
	c3.538-0.885,7.133-1.438,10.766-1.652c2.893-0.172,5.79-0.094,8.687,0.225c4.095,0.45,8.089,1.322,12.028,2.493
	c5.071,1.507,9.961,3.48,14.776,5.666c5.011,2.273,9.903,4.784,14.788,7.308c5.374,2.778,10.777,5.486,16.353,7.845
	c4.059,1.715,8.193,3.217,12.44,4.38c3.773,1.033,7.602,1.811,11.517,2.119c3.256,0.258,6.513,0.278,9.753-0.082
	c3.918-0.438,7.771-1.249,11.551-2.39c0.578-0.175,0.772-0.42,0.771-1.022c-0.017-12.785-0.013-25.57-0.017-38.355
	c0-1.05-0.222-2.064-0.587-3.046c-1.176-3.169-4.472-5.796-8.317-5.733c-3.419,0.057-6.84,0.011-10.26,0.011
	c-10.072,0-20.144,0-30.216,0C72.568,49.197,68.299,49.197,64.027,49.197z M42.427,46.934c0-0.018,0-0.035,0-0.052
	c2.766,0,5.53,0.002,8.295-0.001c1.204-0.001,1.134,0.074,0.824-1.049c-1.322-4.798-2.666-9.589-3.998-14.384
	c-0.308-1.106-0.611-2.214-0.904-3.325c-0.188-0.709,0.049-1.249,0.593-1.407c0.554-0.159,0.978,0.145,1.237,0.886
	c0.027,0.077,0.062,0.152,0.084,0.231c0.773,2.765,1.547,5.531,2.317,8.296c0.924,3.318,1.86,6.634,2.754,9.961
	c0.167,0.623,0.46,0.8,1.085,0.799c6.981-0.021,13.962-0.021,20.944,0c0.625,0.001,0.915-0.176,1.082-0.797
	c1.094-4.038,2.226-8.065,3.347-12.097c0.592-2.134,1.183-4.269,1.781-6.401c0.198-0.699,0.689-1.036,1.247-0.884
	c0.526,0.143,0.751,0.61,0.633,1.333c-0.019,0.108-0.044,0.214-0.073,0.32c-1.083,3.898-2.164,7.798-3.252,11.696
	c-0.573,2.054-1.161,4.104-1.731,6.16c-0.168,0.604-0.129,0.644,0.504,0.66c0.383,0.009,0.766,0.004,1.15,0.002
	c7.69-0.037,15.382,0.097,23.074,0.17c0.577,0.005,0.928-0.078,1.134-0.735c2.602-8.304,5.572-16.479,8.582-24.64
	c0.947-2.566,1.896-5.132,2.854-7.693c0.149-0.401,0.158-0.644-0.367-0.745c-0.614-0.119-1.215-0.321-1.809-0.526
	c-2.307-0.794-4.458-1.952-6.684-2.935c-2.151-0.95-4.357-1.65-6.748-1.416c-2.029,0.198-3.967,0.775-5.854,1.532
	c-2.283,0.916-4.448,2.112-6.838,2.773c-2.95,0.815-5.907,1.113-8.903,0.275c-1.802-0.504-3.475-1.325-5.166-2.097
	c-1.991-0.91-3.962-1.874-6.114-2.354c-1.095-0.244-2.198-0.365-3.334-0.224c-1.815,0.228-3.507,0.829-5.165,1.554
	c-1.805,0.79-3.589,1.624-5.399,2.399c-1.985,0.851-4.057,1.302-6.23,1.218c-2.859-0.11-5.555-0.87-8.144-2.041
	c-2.244-1.014-4.474-2.057-6.886-2.631c-2.05-0.488-4.105-0.653-6.162-0.064c-1.211,0.347-2.383,0.802-3.532,1.323
	c-2.339,1.062-4.61,2.289-7.094,3.009c-1.383,0.401-1.386,0.396-0.885,1.749c1.529,4.129,3.095,8.246,4.582,12.392
	c2.271,6.331,4.547,12.662,6.544,19.086c0.191,0.614,0.489,0.808,1.106,0.792c2.489-0.062,4.98-0.028,7.471-0.103
	C37.06,46.871,39.744,46.934,42.427,46.934z"/>
</svg>
