<?xml version="1.0" encoding="utf-8"?>
<!-- Generator: Adobe Illustrator 16.0.4, SVG Export Plug-In . SVG Version: 6.00 Build 0)  -->
<!DOCTYPE svg PUBLIC "-//W3C//DTD SVG 1.1//EN" "http://www.w3.org/Graphics/SVG/1.1/DTD/svg11.dtd">
<svg version="1.1" id="Layer_4806" xmlns="http://www.w3.org/2000/svg" xmlns:xlink="http://www.w3.org/1999/xlink" x="0px" y="0px"
	 width="128px" height="128px" viewBox="0 0 128 128" enable-background="new 0 0 128 128" xml:space="preserve">
<g id="_x34_xNhDm.tif">
	<g>
		<path fill-rule="evenodd" clip-rule="evenodd" d="M62.131,0.793c15.067-0.369,30.138-0.402,45.207-0.46c0.16,0,0.322-0.02,0.479,0
			c0.688,0.086,1.769-0.356,1.983,0.266c0.332,0.961-0.887,1.135-1.491,1.512c-5.403,3.368-8.883,8.23-10.503,14.269
			c-1.101,4.104-0.781,8.433-0.16,12.592c1.696,11.34,4.193,22.507,7.458,33.523c1.338,4.51,3.011,8.881,4.424,13.348
			c2.914,9.214,5.261,18.558,4.936,28.325c-0.124,3.722-0.16,7.451-1.084,11.146c-0.696,2.781-1.846,5.377-3.494,7.506
			c-1.644,2.118-4.01,4.13-7.044,3.866c-3.035-0.264-5.188-2.058-6.572-4.873c-1.863-3.789-2.131-7.622-0.856-11.599
			c1.137-3.554,2.131-7.149,4.56-10.153c1.15-1.423,1.005-1.565-0.84-1.635c-9.404-0.344-18.813-0.27-28.222-0.336
			c-13.953-0.101-27.906-0.242-41.858-0.374c-2.316-0.021-2.299-0.093-2.633-2.37c-1.619-11.018-3.115-22.034-5.908-32.869
			c-1.555-6.027-3.729-11.832-5.351-17.819c-0.474-1.748-1.431-3.365-2.172-5.04c-2.063-4.661-4.522-9.094-7.818-13.005
			c-0.69-0.819-0.823-1.65-0.812-2.63c0.056-5.07,0.937-10.012,2.821-14.692c1.094-2.713,2.887-5.11,5.002-7.19
			c1.111-1.092,2.565-1.144,4.025-1.149c11.084-0.045,22.167-0.109,33.25-0.155C53.681,0.779,57.905,0.793,62.131,0.793z"/>
		<path fill-rule="evenodd" clip-rule="evenodd" d="M54.021,127.732c-13.636,0-27.271-0.005-40.908,0.008
			c-0.978,0.003-1.906-0.126-2.771-0.582c-3.919-2.069-6.966-4.8-8.241-9.326c-1.407-4.99-1.339-9.905-0.173-14.875
			c0.555-2.359,0.576-2.372,3.002-2.396c12.679-0.119,25.357-0.203,38.036-0.353c17.143-0.202,34.285-0.45,51.429-0.677
			c0.239-0.004,0.485-0.041,0.717,0c0.818,0.15,1.996-0.496,2.386,0.419c0.309,0.728-0.404,1.617-0.948,2.314
			c-4.133,5.294-4.798,11.263-3.502,17.648c0.413,2.035,1.695,3.565,2.68,5.279c0.343,0.595,1.194,1.17,0.776,1.859
			c-0.297,0.492-1.188,0.196-1.814,0.196c-13.556,0.008-27.11,0.007-40.667,0.007C54.021,127.414,54.021,127.572,54.021,127.732z"/>
		<path fill-rule="evenodd" clip-rule="evenodd" d="M98.664,22.398c0.44-5.091,2.072-10.172,5.994-14.603
			c2.051-2.315,4.366-4.084,6.809-5.82c1.241-0.882,2.309-0.762,3.695,0.026c4.341,2.466,7.79,5.658,9.924,10.257
			c2.652,5.721,2.247,11.418,0.227,17.17c-0.313,0.888-0.961,1.159-1.852,1.171c-7.325,0.101-14.649,0.21-21.974,0.352
			c-1.172,0.022-1.712-0.456-1.954-1.588C99.084,27.259,98.746,25.148,98.664,22.398z"/>
	</g>
</g>
</svg>
