<?xml version="1.0" encoding="utf-8"?>
<!-- Generator: Adobe Illustrator 16.0.4, SVG Export Plug-In . SVG Version: 6.00 Build 0)  -->
<!DOCTYPE svg PUBLIC "-//W3C//DTD SVG 1.1//EN" "http://www.w3.org/Graphics/SVG/1.1/DTD/svg11.dtd">
<svg version="1.1" id="Layer_4807" xmlns="http://www.w3.org/2000/svg" xmlns:xlink="http://www.w3.org/1999/xlink" x="0px" y="0px"
	 width="128px" height="128px" viewBox="0 0 128 128" enable-background="new 0 0 128 128" xml:space="preserve">
<g id="_x39_jGAH2.tif">
	<g>
		<path fill-rule="evenodd" clip-rule="evenodd" d="M29.915,66.576c0-18.083,0-36.167,0-54.251c0-0.386-0.015-0.773,0.006-1.159
			c0.052-0.939,0.142-1.011,1.018-0.647c4.078,1.697,8.382,2.305,12.734,2.762c4.096,0.43,8.21,0.71,12.312,0.622
			c6.158-0.132,12.324-0.437,18.371-1.813c1.694-0.386,3.351-0.878,4.939-1.582c0.646-0.287,0.953-0.146,0.925,0.596
			c-0.021,0.514-0.002,1.03-0.002,1.544c-0.003,14.997-0.009,29.993-0.008,44.989c0,21.16,0.005,42.32,0.008,63.48
			c0,0.258,0.002,0.516,0,0.771c-0.015,1.756-0.18,2.029-1.87,2.67c-1.924,0.729-3.924,1.203-5.943,1.57
			c-3.667,0.668-7.36,1.033-11.088,1.246c-3.087,0.176-6.17,0.34-9.252,0.199c-5.965-0.27-11.927-0.646-17.725-2.246
			c-1.109-0.307-2.19-0.727-3.263-1.15c-0.784-0.311-1.225-0.9-1.166-1.803c0.033-0.512,0.004-1.027,0.004-1.543
			C29.915,102.748,29.915,84.662,29.915,66.576z"/>
		<path fill-rule="evenodd" clip-rule="evenodd" d="M98.338,63.29c0,18.208,0,36.416,0,54.625c0,0.385-0.009,0.771,0,1.158
			c0.013,0.645-0.254,0.793-0.817,0.494c-3.859-2.051-8.086-2.783-12.321-3.568c-2.604-0.484-2.28,0.135-2.283-2.736
			c-0.015-14.156,0.016-28.312-0.025-42.469c-0.008-3.014,0.182-6.023,0.145-9.033c-0.218-17.799-0.114-35.598-0.084-53.397
			c0.003-1.794-0.717-2.698-2.255-3.346c-1.973-0.83-4.027-1.353-6.114-1.643c-4.201-0.583-8.435-1.025-12.681-0.772
			c-3.965,0.235-7.957,0.369-11.82,1.471c-1.177,0.336-2.333,0.733-3.351,1.43c-1.399,0.958-1.336,2.19,0.145,2.964
			c0.922,0.482,1.939,0.706,2.948,0.849c4.101,0.582,8.191,0.565,12.253-0.365c1.127-0.258,1.134-0.233,1.167,0.928
			c0.006,0.192,0.006,0.386-0.002,0.579c-0.05,1.165-0.087,1.211-1.176,1.305c-0.319,0.028-0.643,0.027-0.964,0.027
			c-4.118,0-8.241,0.127-12.353-0.039c-5.133-0.207-10.234-0.809-15.19-2.275c-1.046-0.31-2.097-0.639-3.024-1.229
			c-1.19-0.76-1.256-1.535-0.158-2.438c0.538-0.442,1.184-0.774,1.822-1.067C35.316,3.309,38.651,2.64,42,2.04
			c10.122-1.818,20.345-1.874,30.561-1.454c6.725,0.277,13.431,1.046,19.938,2.968c1.357,0.401,2.659,0.924,3.935,1.542
			c1.358,0.659,1.951,1.59,1.939,3.183c-0.068,9.266-0.043,18.531-0.032,27.797c0.009,7.978,0.042,15.956,0.063,23.934
			c0.003,1.093,0,2.186,0,3.279C98.383,63.29,98.36,63.29,98.338,63.29z"/>
		<path fill-rule="evenodd" clip-rule="evenodd" d="M63.803,3.953c4.574-0.123,8.912,0.203,13.181,1.196
			c0.994,0.231,1.984,0.537,2.922,0.936c1.088,0.464,1.123,1.055,0.197,1.844c-0.644,0.548-1.407,0.882-2.199,1.16
			c-2.852,1.002-5.807,1.55-8.791,1.924c-1.143,0.144-2.262,0.46-3.434,0.422c-0.687-0.021-1.104-0.174-1.064-0.968
			c0.036-0.705,0.018-1.413-0.002-2.119C64.58,7.174,64.34,6.922,63.234,7.3c-3.354,1.146-6.81,1.09-10.275,1.038
			c-1.745-0.027-3.438-0.331-5.114-0.784c-0.317-0.086-0.681-0.164-0.749-0.51c-0.093-0.47,0.338-0.627,0.661-0.802
			c1.604-0.869,3.379-1.174,5.14-1.498C56.567,4.072,60.272,3.827,63.803,3.953z"/>
	</g>
</g>
</svg>
