<?xml version="1.0" encoding="utf-8"?>
<!-- Generator: Adobe Illustrator 16.0.4, SVG Export Plug-In . SVG Version: 6.00 Build 0)  -->
<!DOCTYPE svg PUBLIC "-//W3C//DTD SVG 1.1//EN" "http://www.w3.org/Graphics/SVG/1.1/DTD/svg11.dtd">
<svg version="1.1" id="Layer_4808" xmlns="http://www.w3.org/2000/svg" xmlns:xlink="http://www.w3.org/1999/xlink" x="0px" y="0px"
	 width="128px" height="128px" viewBox="0 0 128 128" enable-background="new 0 0 128 128" xml:space="preserve">
<g>
	<path fill-rule="evenodd" clip-rule="evenodd" d="M31.654,50.396c4.904,0,9.808,0.005,14.712-0.004
		c2.004-0.003,2.031-0.017,2.039-1.99c0.017-4.62,0.021-9.24,0-13.86c-0.009-2.059-0.133-2.122-1.993-1.097
		c-8.708,4.793-17.41,9.597-26.115,14.397c-0.373,0.206-0.74,0.422-1.12,0.615c-1.078,0.55-2.257,0.438-3.347,0.239
		c-1.65-0.302-1.018-1.806-1.144-2.815c-0.751-6.058-1.355-12.135-2.186-18.181c-0.238-1.734,0.429-2.369,1.852-2.922
		c6.018-2.337,12.01-4.743,18.007-7.132c3.888-1.55,7.761-3.139,11.659-4.663c1.653-0.646,1.661-0.589,1.974,1.213
		c0.886,5.102,1.78,10.202,2.687,15.301c0.072,0.407,0.251,1.125,0.398,1.13c0.46,0.015,0.55-0.545,0.77-0.898
		c3.299-5.304,6.62-10.593,9.886-15.917c0.626-1.023,1.369-1.423,2.579-1.448c11.013-0.224,22.025-0.492,33.036-0.784
		c7.246-0.191,14.49-0.445,21.734-0.67c0.284-0.009,0.57-0.007,0.853-0.023c1.155-0.066,1.345,0.43,0.928,1.432
		c-1.036,2.488-2.017,4.999-3.03,7.497c-1.227,3.024-2.407,6.07-3.722,9.054c-0.615,1.396-0.431,2.237,0.821,3.229
		c4.893,3.88,9.684,7.892,14.504,11.865c1.158,0.954,1.135,1.247-0.162,2.219c-4.033,3.023-8.092,6.011-12.108,9.055
		c-4.578,3.471-9.114,6.998-13.684,10.479c-1.723,1.312-1.768,1.312-3.28-0.205c-4.515-4.526-8.984-9.097-13.523-13.599
		c-0.951-0.944-0.953-1.524,0.148-2.306c4.576-3.245,9.119-6.537,13.668-9.821c3.685-2.662,7.359-5.336,11.037-8.009
		c0.219-0.159,0.609-0.405,0.58-0.525c-0.121-0.479-0.586-0.25-0.881-0.233c-11.004,0.583-22.023,0.237-33.032,0.571
		c-7.742,0.235-15.492,0.188-23.239,0.267c-2.701,0.027-2.705,0.024-2.707,2.623c-0.003,4.478-0.005,8.956,0,13.434
		c0.003,2.481,0.011,2.49,2.407,2.52c9.309,0.117,18.617,0.229,27.928,0.336c2.719,0.031,2.713,0.018,1.514,2.394
		c-3.263,6.462-6.549,12.914-9.752,19.406c-0.564,1.143-1.258,1.502-2.48,1.445c-8.234-0.373-16.472-0.662-24.706-1.033
		c-7.097-0.32-14.188-0.746-21.286-1.064c-7.594-0.34-15.192-0.605-22.789-0.92c-0.458-0.02-1.086,0.219-1.318-0.365
		c-0.211-0.533,0.293-0.92,0.583-1.291c4.708-6.057,9.451-12.088,14.134-18.164c0.691-0.896,1.523-0.891,2.452-0.889
		c4.904,0.004,9.809,0.001,14.713,0.001C31.654,50.326,31.654,50.36,31.654,50.396z"/>
	<path fill-rule="evenodd" clip-rule="evenodd" d="M83.528,85.73c-0.001,9.738,0.001,19.479-0.003,29.217
		c0,2.281-0.111,2.324-2.228,2.059c-5.634-0.707-11.273-1.371-16.913-2.035c-6.555-0.771-13.112-1.52-19.668-2.293
		c-9.167-1.078-18.332-2.178-27.5-3.248c-2.055-0.24-2.078-0.199-2.079-2.287c-0.006-10.664-0.007-21.328,0.001-31.992
		c0.002-2.029,0.082-2.059,2.007-1.957c4.044,0.217,8.089,0.457,12.136,0.588c12.929,0.414,25.844,1.092,38.76,1.746
		c0.497,0.025,1.01-0.041,1.49,0.055c2.169,0.432,3.229-0.555,4.163-2.5c2.79-5.826,5.83-11.53,8.771-17.283
		c0.188-0.369,0.34-1.012,0.706-0.949c0.673,0.117,0.337,0.812,0.338,1.236C83.534,65.969,83.529,75.85,83.528,85.73z"/>
	<path fill-rule="evenodd" clip-rule="evenodd" d="M85.146,85.861c0.001-9.664,0.001-19.33,0.001-28.995
		c0-0.213-0.03-0.432,0.003-0.639c0.073-0.452-0.22-1.088,0.391-1.29c0.449-0.148,0.725,0.341,1.014,0.64
		c2.816,2.905,5.628,5.814,8.445,8.718c1.188,1.224,2.431,2.396,3.561,3.669c0.775,0.875,1.405,0.916,2.313,0.18
		c2.757-2.24,5.562-4.419,8.361-6.606c0.838-0.654,1.704-1.276,2.584-1.872c0.388-0.262,0.763-0.871,1.27-0.549
		c0.438,0.278,0.228,0.917,0.229,1.396c0.025,7.959,0.043,15.918,0.06,23.877c0.005,2.346-0.05,4.693,0.021,7.037
		c0.034,1.096-0.313,1.844-1.15,2.562c-6.252,5.365-12.467,10.777-18.696,16.17c-2.254,1.951-4.511,3.9-6.789,5.824
		c-0.404,0.342-0.794,1.043-1.401,0.695c-0.426-0.24-0.205-0.916-0.207-1.395c-0.01-7.535-0.008-15.068-0.008-22.602
		C85.146,90.41,85.146,88.137,85.146,85.861z"/>
</g>
</svg>
