<?xml version="1.0" encoding="utf-8"?>
<!-- Generator: Adobe Illustrator 16.0.4, SVG Export Plug-In . SVG Version: 6.00 Build 0)  -->
<!DOCTYPE svg PUBLIC "-//W3C//DTD SVG 1.1//EN" "http://www.w3.org/Graphics/SVG/1.1/DTD/svg11.dtd">
<svg version="1.1" id="Layer_4811" xmlns="http://www.w3.org/2000/svg" xmlns:xlink="http://www.w3.org/1999/xlink" x="0px" y="0px"
	 width="128px" height="128px" viewBox="0 0 128 128" enable-background="new 0 0 128 128" xml:space="preserve">
<g>
	<g>
		<path fill-rule="evenodd" clip-rule="evenodd" d="M105.534,121.045c-7.989-0.116-14.864-7.277-14.521-15.129
			c0.362-8.221,7.084-14.291,15.5-13.998c7.824,0.271,14.199,6.864,14.078,14.555C120.464,114.659,113.742,121.163,105.534,121.045z
			 M105.813,117.562c6.199,0.114,11.269-4.573,11.588-10.72c0.314-6.041-5.297-11.929-11.468-12.027
			c-5.935-0.096-11.18,5.004-11.342,11.027C94.405,112.766,98.876,117.434,105.813,117.562z"/>
		<path fill-rule="evenodd" clip-rule="evenodd" d="M96.985,106.439c-0.048-5.016,3.869-9.071,8.812-9.126
			c4.824-0.051,8.9,4.045,8.958,9.006c0.056,4.878-4.049,9.141-8.825,9.167C101.039,115.513,97.032,111.461,96.985,106.439z
			 M111.299,106.42c0.02-3.474-2.348-5.723-5.808-5.519c-3.079,0.183-5.936,3.15-5.494,6.069c0.464,3.045,2.327,5.003,5.549,5.197
			C108.714,112.358,111.28,109.72,111.299,106.42z"/>
	</g>
	<g>
		<path d="M126.578,20.854c-0.103-10.135-6.121-17.603-15.741-19.948c-9.396-2.29-20.148,1.981-23.709,10.991
			c-2.255,5.7-5.537,6.433-10.602,6.381C59.296,18.1,42.064,18.14,24.832,18.16c-2.993,0.003-6.071-0.46-8.549,2.157
			c-4.392,4.639-8.875,9.201-13.503,13.604c-2.818,2.678-1.87,4.663,0.42,6.938c3.351,3.327,6.593,6.767,9.812,10.225
			c4.154,4.458,4.142,4.504-0.373,9.017c-3.144,3.145-6.248,6.34-9.552,9.31c-2.622,2.356-2.759,4.442-0.319,6.99
			c4.035,4.215,7.834,8.657,11.936,12.804c2.07,2.094,1.915,3.563-0.158,5.446c-3.905,3.55-7.605,7.328-11.525,10.86
			c-2.092,1.888-2.246,3.442-0.266,5.525c4.019,4.229,7.998,8.509,11.764,12.961c2.374,2.806,5.129,3.716,8.733,3.705
			c27.514-0.091,55.03,0.092,82.544-0.065c12.525-0.068,21.219-9.219,21.179-21.748C126.931,91.994,126.723,35.306,126.578,20.854z
			 M82.5,121.5h-1v-99h1V121.5z M106.265,123.297c-9.139,0.275-16.921-7.412-16.985-16.774c-0.063-9.601,7.229-17.087,16.615-17.056
			c9.082,0.03,16.837,7.99,16.718,17.162C122.499,115.535,115.146,123.031,106.265,123.297z"/>
	</g>
</g>
</svg>
