<?xml version="1.0" encoding="utf-8"?>
<!-- Generator: Adobe Illustrator 16.0.4, SVG Export Plug-In . SVG Version: 6.00 Build 0)  -->
<!DOCTYPE svg PUBLIC "-//W3C//DTD SVG 1.1//EN" "http://www.w3.org/Graphics/SVG/1.1/DTD/svg11.dtd">
<svg version="1.1" id="Layer_4812" xmlns="http://www.w3.org/2000/svg" xmlns:xlink="http://www.w3.org/1999/xlink" x="0px" y="0px"
	 width="128px" height="128px" viewBox="0 0 128 128" enable-background="new 0 0 128 128" xml:space="preserve">
<g id="rk5uFg.tif">
	<g>
		<path fill-rule="evenodd" clip-rule="evenodd" d="M88.469,15.9c10.973,5.279,22.037,10.604,33.104,15.927
			c-0.008,0.185-0.016,0.368-0.021,0.553C94.178,40.654,66.77,48.812,39.292,57.081C28.216,50.578,17.156,44.083,6.031,37.551
			C7.611,36.476,63.973,21.712,88.469,15.9z"/>
		<path fill-rule="evenodd" clip-rule="evenodd" d="M33.089,75.822C21.858,69.198,10.84,62.868-0.044,56.314
			c0.027-0.201,0.054-0.401,0.081-0.602c4.862-1.251,9.725-2.503,14.625-3.764c8.892,5.192,17.736,10.355,26.489,15.467
			c5.971-1.787,11.683-3.493,17.393-5.205c16.038-4.806,32.079-9.602,48.106-14.442c1.191-0.359,2.217-0.393,3.33,0.202
			c1.711,0.914,3.479,1.722,5.299,2.613c-0.447,0.315,0.023,0.045-0.121,0.373c-0.031,0.075-0.104,0.163-0.174,0.185
			C87.701,59.366,60.419,67.587,33.089,75.822z"/>
		<path fill-rule="evenodd" clip-rule="evenodd" d="M41.372,65.411C30.192,58.846,19.13,52.35,7.941,45.779
			c1.467-1.051,2.957-1.044,4.296-1.496c1.04-0.35,1.9,0.217,2.754,0.718c4.697,2.758,9.395,5.513,14.093,8.269
			c2.618,1.537,5.268,3.024,7.843,4.627c1.493,0.929,2.913,0.998,4.583,0.493c18.512-5.606,37.041-11.163,55.566-16.723
			c6.059-1.818,12.127-3.603,18.311-5.438c2.729,1.298,5.518,2.624,8.305,3.95C96.355,48.959,68.967,57.093,41.372,65.411z"/>
		<path fill-rule="evenodd" clip-rule="evenodd" d="M113.439,65.356c2.648,1.291,5.355,2.611,8.004,3.902
			c-0.08,1.025-0.773,0.805-1.207,0.935c-26.121,7.858-52.25,15.684-78.356,23.594c-1.897,0.575-3.343,0.355-5.012-0.638
			c-9.667-5.754-19.394-11.408-29.1-17.098c-0.604-0.354-1.286-0.618-1.698-1.426c1.578-0.764,3.249-0.922,4.844-1.451
			c1.962,0.686,3.625,1.92,5.391,2.936c6.114,3.517,12.21,7.066,18.241,10.726c1.669,1.012,3.18,1.226,5.03,0.661
			c11.254-3.43,22.532-6.781,33.8-10.166c12.889-3.874,25.775-7.756,38.662-11.631C112.465,65.572,112.902,65.487,113.439,65.356z"
			/>
		<path fill-rule="evenodd" clip-rule="evenodd" d="M113.439,74.356c2.648,1.291,5.355,2.611,8.004,3.902
			c-0.08,1.025-0.773,0.805-1.207,0.935c-26.121,7.858-52.25,15.684-78.356,23.594c-1.897,0.575-3.343,0.355-5.012-0.638
			c-9.667-5.754-19.394-11.408-29.1-17.098c-0.604-0.354-1.286-0.618-1.698-1.426c1.578-0.764,3.249-0.922,4.844-1.451
			c1.962,0.686,3.625,1.92,5.391,2.936c6.114,3.517,12.21,7.066,18.241,10.726c1.669,1.012,3.18,1.226,5.03,0.661
			c11.254-3.43,22.532-6.781,33.8-10.166c12.889-3.874,25.775-7.756,38.662-11.631C112.465,74.572,112.902,74.487,113.439,74.356z"
			/>
		<path fill-rule="evenodd" clip-rule="evenodd" d="M113.439,83.356c2.648,1.291,5.355,2.611,8.004,3.902
			c-0.08,1.025-0.773,0.805-1.207,0.935c-26.121,7.858-52.25,15.684-78.356,23.594c-1.897,0.575-3.343,0.355-5.012-0.638
			c-9.667-5.754-19.394-11.408-29.1-17.098c-0.604-0.354-1.286-0.618-1.698-1.426c1.578-0.764,3.249-0.922,4.844-1.451
			c1.962,0.686,3.625,1.92,5.391,2.936c6.114,3.517,12.21,7.066,18.241,10.726c1.669,1.012,3.18,1.226,5.03,0.661
			c11.254-3.43,22.532-6.781,33.8-10.166c12.889-3.874,25.775-7.756,38.662-11.631C112.465,83.572,112.902,83.487,113.439,83.356z"
			/>
		<path fill-rule="evenodd" clip-rule="evenodd" d="M37.219,86.212C26.049,79.655,15.047,73.197,3.835,66.615
			c1.894-1.455,4.148-1.163,5.752-1.994c1.111,0.116,1.748,0.633,2.437,1.035c6.165,3.603,12.364,7.151,18.471,10.85
			c1.705,1.032,3.242,1.209,5.053,0.517c0.982-0.375,1.99-0.801,3.15-0.803c1.461,0.561,2.825,1.42,4.151,2.312
			c1.604,1.078,3.146,1.218,5.045,0.637c15.17-4.632,30.374-9.156,45.565-13.718c6.742-2.024,13.48-4.059,20.223-6.083
			c0.508-0.152,1.031-0.246,1.521-0.361c1.52,0.626,2.975,1.218,4.684,2.396C92.111,69.739,64.732,77.955,37.219,86.212z"/>
		<path fill-rule="evenodd" clip-rule="evenodd" d="M41.606,75.2c12.934-3.892,25.517-7.681,38.103-11.463
			c12.516-3.762,25.07-7.395,37.363-11.285c0.525-2.611,0.451-2.859-1.305-3.773c-1.256-0.655-2.561-1.22-3.963-1.881
			c0.928-1.45,1.967-0.901,2.984-0.415c3.299,1.576,6.594,3.157,9.889,4.742c1.008,0.485,2.008,0.985,3.367,1.653
			c-1.295,0.858-2.322,1.041-3.303,1.335c-22.514,6.756-45.027,13.514-67.54,20.275c-2.814,0.845-5.675,1.571-8.417,2.608
			C46.127,78.003,43.952,77.548,41.606,75.2z"/>
	</g>
</g>
</svg>
