<?xml version="1.0" encoding="utf-8"?>
<!-- Generator: Adobe Illustrator 16.0.4, SVG Export Plug-In . SVG Version: 6.00 Build 0)  -->
<!DOCTYPE svg PUBLIC "-//W3C//DTD SVG 1.1//EN" "http://www.w3.org/Graphics/SVG/1.1/DTD/svg11.dtd">
<svg version="1.1" id="Layer_4815" xmlns="http://www.w3.org/2000/svg" xmlns:xlink="http://www.w3.org/1999/xlink" x="0px" y="0px"
	 width="128px" height="128px" viewBox="0 0 128 128" enable-background="new 0 0 128 128" xml:space="preserve">
<g>
	<path fill-rule="evenodd" clip-rule="evenodd" d="M127.977,118.197c-0.601,0.13-1.126,0.349-1.683,0.349
		c-42.114,0.016-84.229,0.015-126.267,0.015c-0.303-2.053,17.609-105.584,18.531-108.254c31.435-0.288,62.901-0.577,94.509-0.867
		C118.047,45.765,123.006,81.936,127.977,118.197z M84.43,81.22c4.022-3.956,7.785-7.767,11.497-11.554
		c6.355-6.692,12.471-13.381,18.349-20.062c0.608-0.708,0.987-1.401,0.307-2.236c-2.973-2.808-5.903-5.613-8.961-8.586
		C95.836,49.974,85.464,61.029,74.546,71.93C77.848,75.083,80.985,78.032,84.43,81.22z M103.542,18.089
		C94.298,29.426,84.604,40.45,74.095,51.593c3.201,3.141,6.255,6.087,9.227,8.911c10.495-11.018,20.103-21.821,29.104-32.71
		c-0.125-0.441-0.123-1.089-0.417-1.377C109.247,23.679,106.477,21.002,103.542,18.089z M41.462,37.994
		c10.023,11.299,20.515,22.08,31.856,33.076c3.291-3.191,6.291-6.152,9.325-9.199c-11.422-11.164-21.907-22.07-31.452-32.666
		C47.926,32.205,44.826,35.005,41.462,37.994z M83.356,82.695c-5.162-5.479-32.396-31.974-34.098-32.851
		c-3.058,2.905-6.19,5.834-9.486,8.866c10.725,10.986,21.94,21.788,33.944,32.701C77.075,88.422,80.204,85.593,83.356,82.695z
		 M107.616,59.512C97.303,70.556,86.41,81.479,74.732,92.489c3.601,2.961,6.623,6.141,10.238,8.66
		c11.659-11.009,22.427-21.819,32.562-32.677C116.749,67.016,111.143,61.908,107.616,59.512z M38.291,78.829
		c11.149,10.83,22.919,21.622,35.5,32.544c3.391-2.969,6.554-5.78,9.911-8.808C71.154,91.473,59.517,80.602,48.729,69.925
		C45.226,72.96,41.92,75.78,38.291,78.829z M47.517,13.481c-1.322,1.339-2.641,2.667-3.964,3.986
		C46.46,21.33,71.502,49.235,73.17,49.986c2.944-2.958,5.773-5.85,8.57-8.762c-9.061-9.316-17.578-18.572-25.604-27.818
		C53.274,13.431,50.414,13.456,47.517,13.481z M92.932,114.991c9.699-8.773,18.773-17.379,27.485-26.062
		c-1.058-2.337-3.302-3.381-4.91-4.877c-1.706-1.597-3.617-2.993-5.462-4.512C99.06,90.707,87.573,101.674,75.528,112.52
		c0.705,0.703,1.648,1.638,2.495,2.476C83.148,114.993,88.027,114.992,92.932,114.991z M48.823,48.214
		c-2.889-3.12-5.548-6.048-8.012-8.808c-9.157,8.501-18.466,16.764-28.284,25.115c-0.299,1.83-0.609,3.734-0.92,5.64
		c-0.471,2.891-0.949,5.784-1.411,8.676c-0.157,0.979-0.404,2.018,0.876,2.329C24.287,70.25,36.741,59.386,48.823,48.214z
		 M13.894,61.12c13.04-11.386,24.86-22.334,36.14-33.442c-2.536-3.047-4.955-6.116-7.427-8.748
		c-8.635,8.499-17.443,16.767-26.732,25.104c-0.787,4.824-1.611,9.709-2.35,14.592C13.417,59.347,13.722,60.06,13.894,61.12z
		 M38.744,59.909c-9.446,8.36-19.207,16.642-29.532,25.05c-0.799,4.902-1.646,9.953-2.416,15.006
		c-0.083,0.549,0.283,1.093,0.495,1.821c14.178-11.243,27.336-22.249,39.376-32.882C43.985,65.912,41.329,62.897,38.744,59.909z
		 M36.985,79.737c-9.951,8.473-20.13,16.791-30.878,25.236c-0.5,3.074-1.048,6.44-1.619,9.951c3.073,0,5.964-0.001,9-0.002
		c11.241-8.764,22.073-17.563,32.282-26.216C42.717,85.641,39.93,82.793,36.985,79.737z M89.355,13.14
		c-4.871,5.918-10.006,11.915-15.162,17.707c3.013,3.117,5.86,6.012,8.688,8.84C90.725,30.918,98.248,21.998,105.374,13
		C100.068,13.046,94.797,13.093,89.355,13.14z M74.685,114.896c-1.835-2.383-25.921-24.039-27.47-24.839
		c-3.5,2.886-6.964,5.703-10.536,8.568c5.78,5.36,11.702,10.701,18.053,16.274C61.013,114.898,67.791,114.897,74.685,114.896z
		 M17.393,40.291c9.793-8.972,19.028-17.858,27.843-26.784c-5.271,0.046-10.554,0.093-15.479,0.137
		c-3.65,3.476-7.125,6.723-10.533,9.85c-0.786,4.818-1.546,9.456-2.296,14.094C16.769,38.567,16.433,39.622,17.393,40.291z
		 M74.603,13.229c-5.471,0.049-10.679,0.094-15.947,0.141c1.177,2.108,13.068,15.25,14.729,16.27
		c2.634-2.912,5.245-5.853,7.939-8.95C78.885,18.022,76.662,15.553,74.603,13.229z M34.985,99.77
		c-6.116,4.949-12.465,9.817-19.107,15.185c7.478-0.002,14.377-0.003,20.469-0.005c3.15-2.336,5.759-4.291,8.174-6.118
		C41.251,105.772,38.164,102.839,34.985,99.77z M112.095,99.618c-5.786,4.854-15.093,13.839-15.726,15.359
		c6.848-0.001,13.665-0.003,20.863-0.003c1.549-1.555,3.282-3.2,4.833-4.959c0.475-0.541,0.493-1.395,0.582-1.674
		C118.846,105.236,115.517,102.482,112.095,99.618z M108.754,58.51c2.794,2.459,5.473,4.789,8.382,7.291
		c-0.646-5.095-1.244-9.797-1.857-14.63C113.111,53.646,111.03,55.989,108.754,58.51z M112.641,30.315
		c-2.096,2.602-4.053,4.991-6.13,7.481c2.622,2.448,5.124,4.754,8.02,7.391C113.872,40.008,113.283,35.376,112.641,30.315z
		 M117.919,71.553c-2.173,2.322-4.417,4.687-6.747,7.105c2.669,2.254,5.429,4.557,8.56,7.142
		C119.085,80.716,118.496,76.085,117.919,71.553z M122.176,105.487c-0.604-4.756-1.188-9.352-1.743-13.718
		c-2.312,2.222-4.697,4.485-7.318,6.938C116.102,100.965,119.025,103.153,122.176,105.487z M110.429,12.936
		c-1.099,0.009-1.973,0.017-2.796,0.024c-1.073,1.423-2.109,2.782-3.185,4.18c2.429,2.352,4.828,4.643,7.415,7.082
		C111.379,20.42,110.919,16.794,110.429,12.936z M81.958,19.081c1.813-2.15,3.338-3.98,4.904-5.888
		c-3.365,0.03-6.668,0.059-9.335,0.082C78.808,14.975,80.348,16.995,81.958,19.081z M39.267,114.938
		c4.531-0.001,8.378-0.002,12.731-0.003c-2.192-1.924-4.107-3.62-5.973-5.285C43.792,111.413,41.817,112.959,39.267,114.938z
		 M20.72,19.591c2.172-2.112,4.082-3.989,5.913-5.808c-1.838,0.017-3.762,0.033-5.768,0.051
		C20.639,15.819,19.631,17.737,20.72,19.591z M119.326,114.905c1.655-0.001,2.77-0.001,3.988-0.002
		c-0.14-1.106-0.264-2.081-0.441-3.472C121.596,112.691,120.617,113.647,119.326,114.905z M19.842,20.745l-0.169,0.038l0.016,0.14
		l0.172-0.04L19.842,20.745z"/>
</g>
</svg>
