<?xml version="1.0" encoding="utf-8"?>
<!-- Generator: Adobe Illustrator 16.0.4, SVG Export Plug-In . SVG Version: 6.00 Build 0)  -->
<!DOCTYPE svg PUBLIC "-//W3C//DTD SVG 1.1//EN" "http://www.w3.org/Graphics/SVG/1.1/DTD/svg11.dtd">
<svg version="1.1" id="Layer_4818" xmlns="http://www.w3.org/2000/svg" xmlns:xlink="http://www.w3.org/1999/xlink" x="0px" y="0px"
	 width="128px" height="128px" viewBox="0 0 128 128" enable-background="new 0 0 128 128" xml:space="preserve">
<g>
	<path fill-rule="evenodd" clip-rule="evenodd" d="M63.438,81.286c0-3.15-0.011-6.3,0.017-9.449c0.003-0.338-0.237-0.94,0.357-0.971
		c0.33-0.018,0.322,0.523,0.433,0.837c2.602,7.37,6.212,14.137,11.854,19.675c0.634,0.622,1.322,1.188,1.976,1.791
		c0.238,0.219,0.674,0.432,0.468,0.797c-0.176,0.312-0.618,0.166-0.95,0.128c-4.28-0.505-8.557-1.044-12.844-1.499
		c-1.13-0.119-1.306-0.732-1.301-1.654c0.015-3.219,0.006-6.437,0.006-9.654C63.448,81.286,63.443,81.286,63.438,81.286z"/>
	<g>
		<path d="M121.522,34.587c-1.726-9.112-5.075-17.443-11.032-24.592c-3.436-4.123-7.729-7.139-12.949-8.633
			c-2.31-0.661-4.655-0.961-7.084-0.323C82.264,3.19,76.6,8.59,72.283,15.484c-4.674,7.467-7.295,15.708-8.228,24.488
			c-1.008,9.482-0.632,18.84,2.113,28.042c2.69,9.016,6.887,17.026,14.183,23.296c5.474,4.703,11.609,5.344,18.051,3.349
			c7.965-2.465,13.113-8.368,17.045-15.448c5.349-9.632,7.236-20.111,7.571-31.479L121.522,34.587z M115.375,75.966
			c-3.563,6.291-8.282,11.442-15.515,13.536c-6.038,1.749-11.505,0.255-16.413-3.476c-6.229-4.732-9.95-11.182-12.318-18.484
			c-3.498-10.783-4.027-21.71-1.618-32.815c1.128-5.201,2.808-10.177,5.524-14.724c3.541-5.929,8.027-10.896,14.928-13.048
			c4.025-1.255,7.987-1.046,11.85,0.564c6.352,2.648,10.607,7.49,13.896,13.364c2.059,3.675,3.436,7.604,4.541,11.626
			c1.404,5.111,1.699,10.381,1.943,14.617C122.051,57.954,120.248,67.362,115.375,75.966z"/>
		<path d="M98.188,29.287c-3.123-2.568-8.393-2.783-11.814-0.086c-2.547,2.008-4.374,4.57-5.523,7.522
			c-2.366,6.081-2.904,12.347-1.32,18.741c1.059,4.271,2.795,8.174,6.189,11.105c2.711,2.342,5.807,3.17,9.358,2.062
			c3.155-0.984,5.172-3.241,6.874-5.854c2.864-4.399,3.65-9.372,3.836-14.49c0.117-2.769-0.352-5.498-1.014-8.124
			C103.705,35.923,101.681,32.16,98.188,29.287z M97.203,60.352c-1.121,1.626-2.576,2.849-4.338,3.659
			c-3.09,1.42-6.818,0.164-9.252-2.924c-3.033-3.849-3.883-8.349-4.106-13.191c0.288-4.305,1.044-8.554,3.801-12.238
			c3.872-5.177,10.194-5.146,13.882,0.191c2.536,3.671,3.506,7.91,3.508,12.256C100.699,52.446,99.752,56.657,97.203,60.352z"/>
	</g>
	<path d="M80.249,2.247c-0.138-0.298-0.617-0.183-0.945-0.146c-2.243,0.255-4.483,0.544-6.728,0.783
		C64.207,3.775,55.84,4.674,47.468,5.523C41.682,6.11,35.923,6.937,30.124,7.423c-2.589,0.217-5.099,0.839-7.43,2.154
		c-5.846,3.301-9.758,8.312-12.544,14.234C6.574,31.417,4.97,39.492,4.981,47.897l0.002,67.379c0,3.46,0.001,3.443,3.489,3.969
		c7.638,1.149,15.278,2.287,22.908,3.486c9.125,1.434,18.241,2.93,27.361,4.393c2.471,0.396,2.11,0.387,2.121-2.197
		c0.008-1.916-0.363-3.831-0.363-5.746c0-19.398,0-38.796,0-58.193l0.376-0.005l0.33-1.877l-0.425-0.12L60.5,58.989
		c0-5.818,0-11.637,0-17.455c0-1.85,0.364-3.698,0.719-5.525c1.11-5.728,2.897-11.293,5.453-16.567
		C69.755,13.08,73.732,7.37,79.541,3.156C79.855,2.929,80.471,2.729,80.249,2.247z M10.956,58.447l-3.859-0.194l0.101-1.997
		l3.859,0.194L10.956,58.447z M18.677,58.838l-3.86-0.195l0.101-1.997l3.86,0.195L18.677,58.838z M26.396,59.228l-3.859-0.195
		l0.101-1.997l3.859,0.195L26.396,59.228z M53.519,58.595l3.859,0.195l-0.101,1.997l-3.859-0.195L53.519,58.595z M45.798,58.205
		l3.86,0.195l-0.101,1.997l-3.86-0.195L45.798,58.205z M38.078,57.815l3.859,0.194l-0.101,1.997l-3.859-0.194L38.078,57.815z
		 M34.117,59.617l-3.86-0.194l0.101-1.997l3.86,0.194L34.117,59.617z M58.529,121.493c-0.011,1.871-0.21,2.008-2.025,1.731
		c-6.947-1.055-13.895-2.114-20.839-3.188c-0.426-0.066-1.101,0.141-1.161-0.513c-0.038-0.402,0.511-0.587,0.856-0.797
		c3.731-2.272,7.459-4.551,11.201-6.806c0.871-0.525,1.8-0.959,2.462-1.77l-0.014-0.008c2.426-0.955,4.47-2.583,6.733-3.824
		c0.538-0.295,1.046-0.646,1.572-0.963c0.913-0.551,1.232-0.15,1.221,0.771c-0.002,0.137,0.006,0.273,0.006,0.41
		C58.541,111.522,58.56,116.509,58.529,121.493z M61.232,60.987l-0.095-0.005l0.095-1.877
		C61.232,59.732,61.232,60.359,61.232,60.987z"/>
</g>
</svg>
