<?xml version="1.0" encoding="utf-8"?>
<!-- Generator: Adobe Illustrator 16.0.4, SVG Export Plug-In . SVG Version: 6.00 Build 0)  -->
<!DOCTYPE svg PUBLIC "-//W3C//DTD SVG 1.1//EN" "http://www.w3.org/Graphics/SVG/1.1/DTD/svg11.dtd">
<svg version="1.1" id="Layer_4819" xmlns="http://www.w3.org/2000/svg" xmlns:xlink="http://www.w3.org/1999/xlink" x="0px" y="0px"
	 width="128px" height="128px" viewBox="0 0 128 128" enable-background="new 0 0 128 128" xml:space="preserve">
<g id="Vi4dng.tif">
	<g>
		<path fill-rule="evenodd" clip-rule="evenodd" d="M63.972,127.815c-10.305,0-20.61,0-30.915,0c-0.096,0-0.191,0.001-0.287,0
			c-0.648-0.003-0.633-0.004-0.678-0.667c-0.174-2.631-0.36-5.262-0.537-7.892c-0.13-1.944-0.255-3.889-0.382-5.834
			c-0.043-0.668-0.086-1.335-0.125-2.003c-0.012-0.201-0.029-0.392-0.299-0.396c-0.325-0.005-0.345-0.238-0.359-0.478
			c-0.081-1.277-0.161-2.556-0.245-3.833c-0.178-2.707-0.36-5.413-0.539-8.121c-0.127-1.944-0.25-3.89-0.378-5.834
			c-0.141-2.135-0.286-4.271-0.425-6.405c-0.129-1.983-0.252-3.967-0.382-5.95c-0.137-2.077-0.281-4.155-0.417-6.233
			c-0.13-1.982-0.254-3.966-0.384-5.949c-0.139-2.097-0.282-4.194-0.42-6.292c-0.13-1.982-0.253-3.966-0.384-5.949
			c-0.138-2.097-0.282-4.194-0.42-6.292c-0.129-1.945-0.252-3.89-0.379-5.834c-0.065-0.991-0.141-1.982-0.199-2.974
			c-0.016-0.262-0.151-0.586,0.303-0.666c0.166-0.029,0.093-0.227,0.085-0.351c-0.245-3.545-0.494-7.09-0.739-10.635
			c-0.125-1.811-0.256-3.622-0.354-5.434c-0.021-0.395-0.133-0.514-0.529-0.509c-1.797,0.021-3.594,0.011-5.391,0.008
			c-0.574-0.001-0.582-0.01-0.373-0.522c1.247-3.059,2.505-6.112,3.737-9.177c0.15-0.372,0.354-0.468,0.728-0.462
			c1.261,0.021,2.524-0.009,3.785,0.018c0.419,0.008,0.59-0.122,0.699-0.536c1.042-3.949,2.108-7.891,3.167-11.835
			c0.159-0.592,0.158-0.594,0.752-0.594c21.546-0.001,43.093-0.001,64.64,0c0.581,0,0.58,0.003,0.741,0.607
			c1.059,3.944,2.125,7.886,3.165,11.835c0.111,0.419,0.289,0.537,0.703,0.529c1.261-0.025,2.523,0.003,3.784-0.017
			c0.376-0.006,0.576,0.095,0.726,0.465c1.224,3.046,2.474,6.083,3.716,9.123c0.037,0.088,0.067,0.179,0.105,0.266
			c0.082,0.187,0.036,0.294-0.181,0.297c-0.134,0.002-0.268,0.003-0.4,0.003c-1.741,0-3.48-0.001-5.22,0.001
			c-0.538,0.001-0.533,0.005-0.568,0.509c-0.256,3.698-0.516,7.395-0.771,11.093c-0.114,1.658-0.225,3.316-0.332,4.975
			c-0.011,0.142-0.079,0.334,0.148,0.367c0.32,0.046,0.266,0.272,0.248,0.477c-0.208,2.532-0.425,5.063-0.63,7.596
			c-0.172,2.113-0.326,4.228-0.495,6.342c-0.173,2.152-0.356,4.302-0.53,6.454c-0.131,1.6-0.253,3.2-0.381,4.8
			c-0.177,2.209-0.364,4.417-0.536,6.626c-0.135,1.733-0.257,3.468-0.379,5.203c-0.146,2.076-0.287,4.154-0.428,6.232
			c-0.128,1.888-0.25,3.775-0.377,5.662c-0.141,2.077-0.287,4.155-0.427,6.232c-0.128,1.888-0.25,3.775-0.377,5.663
			c-0.139,2.059-0.283,4.117-0.424,6.176c-0.128,1.888-0.25,3.774-0.378,5.661c-0.18,2.649-0.363,5.299-0.541,7.948
			c-0.131,1.927-0.26,3.852-0.378,5.778c-0.044,0.722-0.029,0.724-0.737,0.724C84.772,127.816,74.373,127.815,63.972,127.815z
			 M64.037,23.295c-11.796,0-23.592,0-35.388,0c-0.173,0-0.346,0.013-0.517-0.002c-0.282-0.023-0.358,0.09-0.338,0.368
			c0.16,2.23,0.303,4.461,0.457,6.691c0.213,3.088,0.434,6.175,0.648,9.263c0.043,0.625-0.114,0.636,0.682,0.636
			c0.153,0,0.306,0,0.459,0c11.758,0,23.516,0.001,35.274-0.005c0.432,0,0.821,0.084,1.21,0.269
			c1.243,0.592,2.457,1.236,3.609,1.992c1.839,1.205,3.512,2.588,4.663,4.5c1.043,1.732,1.304,3.576,0.635,5.5
			c-0.334,0.956-0.631,1.922-0.919,2.891c-5.035,16.978-10.069,33.957-15.103,50.934c-0.418,1.409-0.845,2.814-1.249,4.228
			c-0.101,0.351-0.269,0.523-0.642,0.476c-0.15-0.019-0.306-0.003-0.458-0.003c-7.495,0-14.989,0-22.483,0
			c-0.172,0-0.345,0.009-0.517,0.002c-0.247-0.011-0.348,0.1-0.324,0.344c0.033,0.343,0.063,0.686,0.087,1.028
			c0.27,3.983,0.54,7.969,0.808,11.953c0.052,0.769,0.049,0.771,0.833,0.771c19.023,0,38.047,0,57.069,0
			c0.152,0,0.307-0.013,0.458,0.001c0.28,0.025,0.348-0.11,0.365-0.368c0.146-2.347,0.303-4.691,0.464-7.036
			c0.134-1.963,0.276-3.926,0.417-5.889c0.07-0.99,0.032-0.802-0.756-0.803c-10.782-0.004-21.565-0.003-32.349-0.001
			c-1.051,0-0.886-0.031-0.641-0.858c4.99-16.833,9.979-33.666,14.976-50.498c0.587-1.976,1.087-3.98,1.8-5.914
			c1.108-3.005,0.78-5.81-1.02-8.449c-1.26-1.849-2.943-3.248-4.776-4.488c-0.213-0.145-0.645-0.287-0.573-0.468
			c0.103-0.26,0.506-0.102,0.775-0.103c8.832-0.007,17.664-0.006,26.497-0.006c0.172,0,0.345-0.012,0.517,0.001
			c0.289,0.022,0.397-0.09,0.408-0.39c0.029-0.783,0.092-1.564,0.146-2.346c0.176-2.535,0.356-5.069,0.528-7.604
			c0.134-1.964,0.251-3.929,0.387-5.892c0.05-0.726,0.065-0.725-0.674-0.725C87.668,23.295,75.853,23.295,64.037,23.295z
			 M64.013,20.604c13.497,0,26.996,0,40.494,0c0.134,0,0.268,0.002,0.402,0c0.447-0.01,0.455-0.014,0.28-0.449
			c-0.522-1.292-1.063-2.577-1.568-3.876c-0.132-0.338-0.301-0.459-0.667-0.453c-1.356,0.022-2.714,0.009-4.072,0.008
			c-0.571-0.001-0.573-0.002-0.723-0.559c-1.062-3.943-2.119-7.888-3.18-11.831c-0.152-0.568-0.155-0.568-0.764-0.569
			c-1.32,0-2.638,0-3.958,0c-18.794,0-37.588,0-56.382,0c-0.7,0-0.703,0-0.877,0.648c-1.054,3.926-2.112,7.85-3.152,11.779
			c-0.105,0.399-0.265,0.552-0.695,0.543c-1.376-0.028-2.753,0-4.129-0.018c-0.34-0.004-0.504,0.108-0.627,0.423
			c-0.48,1.226-0.99,2.441-1.487,3.661c-0.283,0.693-0.283,0.693,0.438,0.693C36.902,20.604,50.457,20.604,64.013,20.604z"/>
	</g>
</g>
</svg>
