<?xml version="1.0" encoding="utf-8"?>
<!-- Generator: Adobe Illustrator 16.0.4, SVG Export Plug-In . SVG Version: 6.00 Build 0)  -->
<!DOCTYPE svg PUBLIC "-//W3C//DTD SVG 1.1//EN" "http://www.w3.org/Graphics/SVG/1.1/DTD/svg11.dtd">
<svg version="1.1" id="Layer_4820" xmlns="http://www.w3.org/2000/svg" xmlns:xlink="http://www.w3.org/1999/xlink" x="0px" y="0px"
	 width="128px" height="128px" viewBox="0 0 128 128" enable-background="new 0 0 128 128" xml:space="preserve">
<g id="_x32_iHsQG.tif">
	<g>
		<path d="M103.715,127.173c-29.275,0-58.551,0-87.826,0c-0.123-0.045-0.243-0.112-0.371-0.135
			c-4.248-0.732-6.947-3.879-6.979-8.167c-0.016-2.062-0.006-4.125,0.001-6.187c0.001-0.316,0.055-0.634,0.093-1.043
			c0.495,0,0.889,0.002,1.282,0c1.929-0.01,3.86,0.034,5.786-0.046c1.556-0.064,2.784-1.352,2.936-2.897
			c0.149-1.522-0.846-3.025-2.323-3.429c-0.474-0.129-0.983-0.169-1.478-0.175c-1.729-0.021-3.458-0.009-5.188-0.009
			c-0.324,0-0.647,0-0.941,0c-0.241-1.013-0.227-10.236,0.019-11.143c0.295,0,0.621,0,0.946,0c1.63,0,3.26,0.011,4.89-0.006
			c0.497-0.004,1-0.031,1.488-0.121c1.473-0.268,2.569-1.603,2.595-3.115c0.026-1.509-1.026-2.897-2.479-3.212
			c-0.483-0.104-0.988-0.143-1.483-0.148c-1.696-0.017-3.393-0.003-5.089-0.01c-0.317,0-0.635-0.042-1.059-0.072
			c0-1.915-0.022-3.739,0.006-5.562c0.028-1.807-0.123-3.621,0.099-5.491c0.437,0,0.766,0,1.095,0c1.663,0,3.326,0.012,4.989-0.008
			c0.494-0.005,1-0.044,1.48-0.158c1.395-0.331,2.398-1.611,2.439-3.042c0.041-1.43-0.891-2.798-2.25-3.189
			c-0.5-0.146-1.05-0.163-1.578-0.168c-1.696-0.021-3.393-0.006-5.089-0.012c-0.355-0.002-0.71-0.042-1.039-0.062
			c-0.217-0.992-0.204-10.211,0.022-11.114c0.331,0,0.689,0,1.049,0c1.829,0,3.66,0.033,5.487-0.01
			c2.424-0.057,3.976-2.215,3.2-4.384c-0.466-1.302-1.584-2.12-3.055-2.145c-1.896-0.032-3.792-0.007-5.687-0.016
			c-0.352-0.001-0.704-0.046-1.025-0.068c-0.213-1.067-0.188-10.259,0.032-11.123c0.333,0,0.694,0,1.053,0
			c1.83-0.001,3.659,0.021,5.488-0.008c1.803-0.028,3.18-1.242,3.379-2.917c0.223-1.873-1.218-3.564-3.143-3.606
			c-1.928-0.043-3.858-0.01-5.787-0.018C9.352,34.157,9,34.115,8.681,34.094c-0.213-1.071-0.19-10.258,0.034-11.143
			c0.328,0,0.685,0,1.042,0c1.896-0.002,3.793,0.04,5.687-0.017c2.309-0.067,3.819-2.347,2.967-4.449
			c-0.538-1.326-1.565-2.047-3.01-2.068c-1.896-0.026-3.792-0.007-5.687-0.015c-0.352-0.001-0.705-0.038-1.079-0.06
			c-0.041-0.324-0.092-0.551-0.093-0.777c-0.006-2.228-0.019-4.457,0.007-6.685c0.007-0.594,0.089-1.197,0.228-1.775
			c0.859-3.585,3.955-6.085,7.641-6.141c2.527-0.039,5.056-0.003,7.583-0.014c0.357-0.002,0.713-0.081,1.07-0.124
			c25.948,0,51.897,0,77.844,0c0.19,0.046,0.379,0.104,0.572,0.138c3.292,0.556,5.571,2.34,6.716,5.514
			c0.357,0.991,0.367,2.017,0.367,3.049c-0.001,36.303-0.001,72.606-0.001,108.91c0,0.266-0.005,0.531-0.001,0.798
			c0.055,3.075-2.017,6.28-5.355,7.426C104.714,126.833,104.213,127.002,103.715,127.173z M61.48,43.712
			c4.488,0,8.977,0.027,13.465-0.008c3.631-0.028,6.531-2.915,6.569-6.532c0.039-3.59,0.063-7.182-0.01-10.771
			c-0.054-2.645-1.353-4.599-3.711-5.821c-1.09-0.564-2.268-0.725-3.479-0.723c-8.544,0.002-17.088,0.001-25.632,0.001
			c-0.2,0-0.399-0.003-0.599,0.006c-4.469,0.203-6.696,3.764-6.637,6.816c0.066,3.423,0.021,6.848,0.012,10.273
			c-0.003,0.945,0.142,1.857,0.537,2.713c1.184,2.564,3.203,3.982,6.019,4.027C52.503,43.764,56.992,43.712,61.48,43.712z"/>
		<path fill-rule="evenodd" clip-rule="evenodd" d="M112.297,127.173c-1.597,0-3.193,0-4.791,0c0.574-0.154,1.157-0.285,1.724-0.468
			c2.878-0.928,4.78-2.819,5.498-5.781c0.199-0.826,0.211-1.712,0.212-2.572c0.01-36.185,0.01-72.368,0.008-108.553
			c0-0.466-0.015-0.931-0.029-1.396c-0.089-2.926-2.21-5.985-5.506-6.986c-0.292-0.089-0.581-0.187-0.872-0.279
			c1.081-0.18,2.139-0.201,3.194-0.176c3.42,0.08,6.344,2.265,7.417,5.52c0.104,0.313,0.221,0.622,0.331,0.932
			c0,37.725,0,75.449,0,113.174c-0.092,0.279-0.184,0.559-0.276,0.838c-0.975,2.934-2.988,4.745-5.964,5.516
			C112.93,127.022,112.612,127.096,112.297,127.173z"/>
	</g>
</g>
</svg>
