<?xml version="1.0" encoding="utf-8"?>
<!-- Generator: Adobe Illustrator 16.0.4, SVG Export Plug-In . SVG Version: 6.00 Build 0)  -->
<!DOCTYPE svg PUBLIC "-//W3C//DTD SVG 1.1//EN" "http://www.w3.org/Graphics/SVG/1.1/DTD/svg11.dtd">
<svg version="1.1" id="Layer_4821" xmlns="http://www.w3.org/2000/svg" xmlns:xlink="http://www.w3.org/1999/xlink" x="0px" y="0px"
	 width="128px" height="128px" viewBox="0 0 128 128" enable-background="new 0 0 128 128" xml:space="preserve">
<g id="wrnt6f.tif">
	<g>
		<path d="M127.434,17.235c-0.146,0.923-0.29,1.847-0.435,2.771c-0.061,0.121-0.13,0.239-0.18,0.365
			c-0.771,1.986-2.023,3.608-3.697,4.919c-2.098,1.642-4.495,2.651-7.035,3.352c-4.984,1.378-10.071,1.576-15.201,1.345
			c-2.189-0.099-4.385-0.169-6.568,0.099c-1.07,0.132-2.111,0.374-3.113,0.782c-0.287,0.116-0.326,0.224-0.069,0.413
			c0.132,0.096,0.253,0.206,0.38,0.309c3.46,2.812,6.918,5.628,10.389,8.428c0.369,0.297,0.504,0.562,0.399,1.059
			c-0.638,3.039-1.232,6.086-1.845,9.13c-0.851,4.233-1.708,8.467-2.557,12.701c-0.561,2.793-1.127,5.584-1.653,8.383
			c-0.151,0.807-0.479,1.472-0.997,2.109c-11.641,14.395-23.269,28.801-34.897,43.205c-2.361,2.924-4.728,5.844-7.084,8.771
			c-2.051,2.549-5.72,3.137-8.385,0.823c-1.728-1.498-3.544-2.895-5.321-4.335c-12.133-9.835-24.265-19.671-36.398-29.505
			c-0.695-0.562-1.312-1.185-1.771-1.964c-0.511-0.866-0.672-1.827-0.827-2.794c0.102-0.646,0.202-1.293,0.304-1.94
			c0.364-0.836,0.858-1.587,1.435-2.293c1.932-2.373,3.847-4.759,5.767-7.139c12.027-14.896,24.056-29.794,36.078-44.694
			c0.287-0.354,0.618-0.607,1.04-0.788c9.623-4.105,19.244-8.217,28.858-12.341c0.437-0.188,0.738-0.177,1.123,0.133
			c2.932,2.353,5.881,4.684,8.826,7.021c0.75,0.596,1.51,1.177,2.246,1.788c0.306,0.253,0.473,0.207,0.627-0.139
			c0.171-0.384,0.395-0.745,0.545-1.135c0.896-2.329,1.762-4.67,2.672-6.994c3.096-7.916,8.486-13.748,16.046-17.6
			c0.708-0.36,1.457-0.614,2.232-0.807c0.937-0.229,1.893-0.219,2.839-0.321c1.016,0.16,2.032,0.319,3.048,0.478
			c2.212,0.718,4.235,1.793,6.095,3.187c3.777,2.832,6.312,6.424,6.889,11.218C127.316,15.898,127.368,16.568,127.434,17.235z
			 M124.424,18.383c0.282-1.947,0.06-3.486-0.483-4.974c-1.385-3.793-4.036-6.5-7.45-8.512c-1.694-0.998-3.54-1.558-5.524-1.566
			c-1.826-0.009-3.461,0.597-5.031,1.501c-6.056,3.483-10.52,8.351-13.108,14.884c-1.005,2.536-1.794,5.142-2.578,7.751
			c-0.032,0.108-0.096,0.252,0.004,0.323c0.126,0.09,0.269-0.021,0.394-0.068c1.904-0.737,3.883-0.936,5.907-0.899
			c2.379,0.043,4.745,0.296,7.128,0.314c4.415,0.034,8.751-0.436,12.979-1.743c1.548-0.48,3.02-1.118,4.338-2.079
			C122.822,21.986,124.077,20.284,124.424,18.383z M73.733,57.62c0.564,0.125,1.314,0.142,2.059,0.125
			c6.926-0.155,11.535-5.659,11.982-11.063c0.219-2.642-0.291-5.102-1.564-7.416c-0.172-0.312-0.389-0.571-0.661-0.803
			c-1.529-1.302-3.048-2.613-4.573-3.919c-0.176-0.152-0.354-0.296-0.57-0.4c-1.58-0.766-3.25-1.171-5.002-1.165
			C69.257,33,63.444,37.586,63.095,44.935C62.797,51.207,67.317,56.621,73.733,57.62z"/>
	</g>
</g>
</svg>
