<?xml version="1.0" encoding="utf-8"?>
<!-- Generator: Adobe Illustrator 16.0.4, SVG Export Plug-In . SVG Version: 6.00 Build 0)  -->
<!DOCTYPE svg PUBLIC "-//W3C//DTD SVG 1.1//EN" "http://www.w3.org/Graphics/SVG/1.1/DTD/svg11.dtd">
<svg version="1.1" id="Layer_4822" xmlns="http://www.w3.org/2000/svg" xmlns:xlink="http://www.w3.org/1999/xlink" x="0px" y="0px"
	 width="128px" height="128px" viewBox="0 0 128 128" enable-background="new 0 0 128 128" xml:space="preserve">
<g>
	<path d="M109.486,102.468c0-27.132,0-53.571,0-79.683c-2.191-1.531-4.172-1.5-6.131-1.685c-7.688-0.727-15.393-1.059-23.114-1.075
		c-1.429-0.004-3.12,0.394-4.136-2.231c5.211-5.381,12.212-9.281,18.361-15.619C71.963-0.19,50.756-0.934,28.662,2.525
		c6.292,6.902,14,10.477,19.496,16.761C38.069,21.103,28.04,20.3,18.514,22.505c0,27.163,0,53.719,0,79.932
		c2.515,1.434,4.607,1.627,6.724,1.822c6.486,0.599,12.984,0.807,19.495,0.838c1.263,0.007,2.79-0.511,4.049,1.787
		c-6.33,5.385-12.797,10.886-19.354,16.465c12.434,6.004,54.259,5.982,64.537-0.062c-0.789-2.068-2.473-3.389-4.08-4.733
		c-3.478-2.911-7.056-5.704-10.507-8.646c-1.279-1.091-3.243-2.099-1.631-4.661C88.321,104.545,99.209,105.121,109.486,102.468z
		 M77.432,3.37c1.762,0,3.189,1.428,3.189,3.189s-1.428,3.189-3.189,3.189s-3.189-1.428-3.189-3.189S75.67,3.37,77.432,3.37z
		 M46.941,122.982c-1.761,0-3.189-1.428-3.189-3.188s1.428-3.188,3.189-3.188c1.762,0,3.189,1.428,3.189,3.188
		S48.703,122.982,46.941,122.982z M46.941,9.748c-1.761,0-3.189-1.428-3.189-3.189S45.18,3.37,46.941,3.37
		c1.762,0,3.189,1.428,3.189,3.189S48.703,9.748,46.941,9.748z M62.725,122.982c-1.761,0-3.189-1.428-3.189-3.188
		s1.428-3.188,3.189-3.188c1.762,0,3.189,1.428,3.189,3.188S64.487,122.982,62.725,122.982z M62.725,9.748
		c-1.761,0-3.189-1.428-3.189-3.189s1.428-3.189,3.189-3.189c1.762,0,3.189,1.428,3.189,3.189S64.487,9.748,62.725,9.748z
		 M77.432,116.605c1.762,0,3.189,1.428,3.189,3.188s-1.428,3.188-3.189,3.188s-3.189-1.428-3.189-3.188
		S75.67,116.605,77.432,116.605z"/>
</g>
</svg>
