<?xml version="1.0" encoding="utf-8"?>
<!-- Generator: Adobe Illustrator 16.0.4, SVG Export Plug-In . SVG Version: 6.00 Build 0)  -->
<!DOCTYPE svg PUBLIC "-//W3C//DTD SVG 1.1//EN" "http://www.w3.org/Graphics/SVG/1.1/DTD/svg11.dtd">
<svg version="1.1" id="Layer_4902" xmlns="http://www.w3.org/2000/svg" xmlns:xlink="http://www.w3.org/1999/xlink" x="0px" y="0px"
	 width="128px" height="128px" viewBox="0 0 128 128" enable-background="new 0 0 128 128" xml:space="preserve">
<g id="KyzvrK.tif">
	<g>
		<path fill-rule="evenodd" clip-rule="evenodd" d="M2.684,35.467c-0.082-0.647-0.49-1.166-0.708-1.762
			c-0.13-0.357-0.283-0.716-0.458-1.059c-0.087-0.174-0.063-0.311,0.025-0.483c0.579-1.128,1.139-2.266,1.709-3.398
			c0.451-0.893,0.924-1.775,1.358-2.676c0.171-0.356,0.367-0.52,0.79-0.485c3.314,0.27,6.644,0.202,9.959,0.423
			c0.335,0.022,0.472-0.089,0.554-0.42c0.137-0.559,0.36-1.096,0.518-1.652c0.105-0.373,0.326-0.536,0.705-0.55
			c1.164-0.042,2.323,0.04,3.457,0.277c1.64,0.344,3.254,0.816,4.896,1.143c2.325,0.462,4.657,0.889,7.022,1.125
			c1.459,0.145,2.914,0.331,4.378,0.421c0.848,0.052,1.696,0.102,2.545,0.145c5.562,0.275,11.127,0.194,16.69,0.085
			c3.321-0.065,6.643-0.24,9.957-0.455c3.411-0.22,6.822-0.437,10.23-0.719c2.521-0.21,5.041-0.428,7.56-0.648
			c2.519-0.221,5.032-0.508,7.549-0.75c0.788-0.076,1.58-0.103,2.36-0.236c0.244-0.042,0.362,0.076,0.445,0.27
			c0.566,1.329,1.276,2.585,1.976,3.845c0.744,1.343,1.568,2.642,2.396,3.937c0.946,1.476,1.986,2.886,3.064,4.264
			c1.054,1.345,2.161,2.649,3.313,3.911c1.365,1.495,2.792,2.93,4.263,4.319c1.62,1.529,3.301,2.989,4.994,4.436
			c1.899,1.623,3.863,3.167,5.733,4.825c1.219,1.081,2.436,2.165,3.484,3.41c0.954,1.134,1.744,2.392,2.457,3.694
			c0.753,1.378,1.293,2.849,1.665,4.364c0.494,2.016,0.717,4.058,0.283,6.138c-0.289,1.388-0.677,2.725-1.343,3.978
			c-0.98,1.849-2.336,3.382-3.937,4.715c-1.536,1.278-3.257,2.261-5.059,3.081c-1.348,0.612-2.757,1.081-4.196,1.458
			c-1.358,0.356-2.702,0.771-4.05,1.171c-1.145,0.34-2.284,0.693-3.424,1.046c-0.866,0.267-1.729,0.544-2.592,0.812
			c-1.23,0.382-2.472,0.735-3.692,1.144c-1.114,0.374-2.236,0.718-3.356,1.072c-1.174,0.371-2.342,0.765-3.517,1.138
			c-1.229,0.389-2.465,0.763-3.697,1.142c-1.288,0.393-2.587,0.749-3.863,1.18c-1.224,0.415-2.464,0.767-3.693,1.16
			c-1.264,0.407-2.548,0.747-3.812,1.154c-1.175,0.376-2.356,0.719-3.54,1.063c-1.423,0.415-2.847,0.82-4.264,1.252
			c-0.664,0.201-1.331,0.387-1.998,0.58c-1.517,0.439-3.044,0.837-4.558,1.276c-1.314,0.383-2.651,0.671-3.965,1.05
			c-0.906,0.262-1.833,0.452-2.748,0.684c-0.728,0.185-1.46,0.354-2.187,0.54c-2.597,0.661-5.219,1.205-7.849,1.713
			c-1.836,0.354-3.689,0.632-5.548,0.828c-1.881,0.198-3.779,0.273-5.659-0.062c-2.312-0.411-3.933-1.813-5.221-3.697
			c-1.023-1.495-1.866-3.092-2.655-4.714c-0.564-1.158-1.066-2.347-1.598-3.521c-0.739-1.631-1.397-3.295-2.1-4.94
			c-0.514-1.202-0.958-2.435-1.442-3.648c-0.378-0.946-0.771-1.887-1.158-2.83c-0.386-0.944-0.768-1.891-1.158-2.833
			c-0.536-1.297-1.088-2.587-1.665-3.866c-0.504-1.124-1.012-2.243-1.542-3.356c-0.636-1.338-1.349-2.637-2.048-3.944
			c-0.69-1.288-1.361-2.587-2.048-3.876c-0.695-1.306-1.364-2.625-2.107-3.905c-0.552-0.949-1.063-1.92-1.605-2.874
			c-0.797-1.402-1.632-2.78-2.552-4.107c-0.756-1.092-1.527-2.171-2.395-3.181c-1.079-1.254-2.245-2.403-3.727-3.185
			c-0.051-0.026-0.098-0.062-0.148-0.091c-0.083-0.049-0.187-0.098-0.175-0.203c0.005-0.039,0.124-0.069,0.194-0.095
			c0.979-0.348,1.959-0.697,2.941-1.039c0.524-0.184,0.542-0.25,0.24-0.707C2.59,42.625,1.85,41.48,1.152,40.307
			c-0.344-0.575-0.718-1.134-1.103-1.682c-0.152-0.217-0.179-0.396-0.081-0.64c0.313-0.786,0.617-1.576,0.854-2.39
			c0.083-0.283,0.218-0.398,0.551-0.315c0.428,0.108,0.877,0.126,1.318,0.183L2.684,35.467z M8.373,54.596
			c0.042,0.041,0.085,0.082,0.126,0.122c0.007,0.015,0.012,0.031,0.02,0.045c0.026,0.044,0.028,0.043,0.004,0
			c-0.008-0.014-0.022-0.025-0.033-0.037c-0.042-0.042-0.084-0.082-0.125-0.123c-0.01-0.069-0.051-0.104-0.12-0.111
			c-0.022-0.025,0.041-0.096-0.046-0.087c0.019,0.026,0.037,0.051,0.056,0.077C8.295,54.521,8.334,54.558,8.373,54.596z
			 M7.911,53.668l0.02-0.013L7.91,53.671l-0.019,0.022L7.911,53.668z M14.172,38.366l0.022,0.02l-0.024-0.021l-0.013-0.018
			L14.172,38.366z M117.974,82.329c-0.094,0.002-0.18,0.022-0.238,0.106c-0.119,0.036-0.239,0.07-0.358,0.105
			c-0.801,0.137-1.559,0.437-2.324,0.682c-2.124,0.679-4.281,1.255-6.383,2c-0.163,0.058-0.336,0.091-0.506,0.12
			c-0.197,0.033-0.266-0.025-0.225-0.254c0.086-0.479,0.276-0.921,0.399-1.387c0.049-0.181,0.188-0.208,0.339-0.262
			c0.637-0.228,1.294-0.372,1.945-0.546c1.43-0.379,2.85-0.799,4.276-1.189c2.096-0.573,4.193-1.137,6.291-1.7
			c0.092-0.024,0.219-0.159,0.283-0.001c0.036,0.086-0.097,0.158-0.176,0.206c-0.813,0.51-1.626,1.021-2.446,1.517
			c-0.165,0.099-0.356,0.153-0.4,0.373c-0.03,0.021-0.109-0.045-0.1,0.052c0.03-0.019,0.061-0.04,0.09-0.061
			c0.092-0.032,0.188-0.052,0.271-0.098c1.877-1.002,3.627-2.184,5.11-3.72c1.229-1.271,2.241-2.707,2.904-4.345
			c0.729-1.805,1.026-3.703,0.952-5.662c-0.066-1.736-0.459-3.4-1.016-5.028c-0.299-0.87-0.738-1.687-1.167-2.505
			c-0.591-1.128-1.282-2.197-2.067-3.186c-1.233-1.552-2.731-2.854-4.226-4.149c-1.944-1.684-3.959-3.283-5.915-4.956
			c-1.794-1.538-3.549-3.115-5.246-4.759c-1.407-1.363-2.777-2.763-4.063-4.236c-1.58-1.81-3.088-3.68-4.472-5.65
			c-1.027-1.463-2.005-2.958-2.908-4.499c-0.895-1.523-1.783-3.053-2.492-4.677c-0.16-0.367-0.386-0.531-0.854-0.453
			c-2.305,0.386-4.642,0.531-6.966,0.741c-2.535,0.228-5.075,0.446-7.61,0.675c-3.001,0.271-6.008,0.441-9.008,0.709
			c-2.808,0.25-5.63,0.366-8.447,0.452c-3.689,0.112-7.376,0.287-11.066,0.343c-4.099,0.061-8.189-0.125-12.28-0.323
			c-0.791-0.039-1.582-0.073-2.37-0.154c-1.803-0.186-3.609-0.348-5.407-0.609c-2.14-0.311-4.252-0.741-6.36-1.208
			c-1.089-0.241-2.164-0.553-3.267-0.744c-1.046-0.182-2.09-0.385-3.162-0.302c-0.205,0.016-0.418-0.021-0.5,0.27
			c-0.104,0.37-0.293,0.717-0.384,1.089c-0.431,1.758-0.901,3.508-1.027,5.329c-0.15,2.185-0.164,4.373,0.123,6.538
			c0.239,1.811,0.6,3.611,1.178,5.359c0.187,0.565,0.374,1.134,0.55,1.704c0.335,1.085,0.777,2.13,1.217,3.175
			c0.483,1.152,0.999,2.29,1.584,3.395c0.54,1.018,1.063,2.045,1.625,3.051c0.514,0.922,1.081,1.814,1.605,2.73
			c0.602,1.052,1.266,2.066,1.928,3.079c0.874,1.334,1.776,2.649,2.685,3.959c0.833,1.199,1.686,2.385,2.537,3.572
			c0.817,1.14,1.684,2.247,2.454,3.417c0.646,0.982,1.377,1.903,2.025,2.884c0.826,1.249,1.709,2.461,2.549,3.7
			c0.701,1.034,1.353,2.1,2.014,3.16c0.926,1.487,1.804,3,2.547,4.58c0.794,1.686,1.5,3.41,1.969,5.229
			c0.339,1.317,0.561,2.647,0.578,3.999c0.024,1.849-0.3,3.635-1.11,5.33c-0.442,0.925-0.971,1.785-1.576,2.602
			c-0.794,1.072-1.944,1.662-3.105,2.23c-0.06,0.014-0.119,0.027-0.178,0.042c0.012,0.006,0.028,0.021,0.036,0.016
			c0.045-0.02,0.09-0.044,0.134-0.066c1.294,0.013,2.58-0.08,3.861-0.258c0.235-0.032,0.482-0.038,0.694-0.175
			c-0.23-0.062-0.461,0.008-0.691-0.012c-0.125-0.011-0.312,0.078-0.354-0.073c-0.025-0.089,0.091-0.248,0.182-0.335
			c0.435-0.41,0.804-0.873,1.159-1.353c1.513-2.034,2.355-4.312,2.523-6.843c0.21-3.168-0.498-6.179-1.59-9.11
			c-0.577-1.549-1.315-3.029-2.053-4.513c-1.124-2.262-2.433-4.41-3.833-6.501c-1.551-2.313-3.167-4.581-4.841-6.811
			c-1.962-2.613-3.987-5.182-5.824-7.889c-0.354-0.52-0.346-0.569,0.257-0.654c0.057-0.008,0.116-0.007,0.173-0.015
			c1.148-0.146,2.301-0.262,3.443-0.443c1.984-0.313,3.983-0.507,5.977-0.737s3.989-0.451,5.983-0.683
			c2.088-0.243,4.182-0.458,6.273-0.672c2.15-0.219,4.301-0.449,6.453-0.66c3.226-0.317,6.451-0.665,9.678-0.984
			c0.289-0.028,0.495-0.01,0.645,0.319c0.171,0.382,0.447,0.716,0.683,1.068c1.039,1.556,2.293,2.943,3.485,4.377
			c1.277,1.539,2.608,3.033,3.879,4.577c1.112,1.351,2.203,2.719,3.2,4.155c0.745,1.072,1.479,2.154,2.117,3.298
			c0.498,0.89,0.996,1.779,1.436,2.698c0.657,1.376,1.195,2.797,1.583,4.273c0.329,1.253,0.535,2.524,0.584,3.824
			c0.05,1.318,0.004,2.633-0.248,3.923c-0.339,1.728-0.941,3.377-1.806,4.914c-0.223,0.395-0.327,0.92-0.877,1.083
			c-1.069,0.318-2.133,0.663-3.202,0.985c-1.216,0.368-2.438,0.719-3.654,1.088c-0.178,0.054-0.385,0.071-0.5,0.257
			c-1.065,0.106-2.038,0.546-3.049,0.85c-0.032,0.01-0.055,0.053-0.08,0.079c-0.569,0.059-1.128,0.153-1.625,0.464
			c-0.123,0.025-0.269-0.021-0.359,0.112c-0.463-0.036-0.87,0.133-1.263,0.35c-0.07,0.011-0.139,0.021-0.208,0.03
			c0.006,0.016,0.011,0.041,0.019,0.041c0.075,0.01,0.138-0.017,0.182-0.08c0.459,0.023,0.868-0.14,1.263-0.35
			c0.127-0.016,0.259-0.016,0.36-0.11c0.592,0.019,1.096-0.268,1.624-0.465c1.063-0.242,2.128-0.479,3.129-0.929
			c0.32,0.033,0.604-0.101,0.898-0.193c0.771-0.239,1.548-0.472,2.322-0.705c1.235-0.372,2.473-0.738,3.705-1.117
			c1.25-0.385,2.497-0.786,3.747-1.17c1.194-0.369,2.396-0.718,3.589-1.092c1.597-0.503,3.182-1.049,4.788-1.521
			c0.611-0.18,1.206-0.398,1.817-0.578c1.163-0.34,2.319-0.705,3.476-1.073c1.21-0.385,2.411-0.798,3.621-1.176
			c1.689-0.53,3.387-1.033,5.079-1.557c1.25-0.388,2.484-0.828,3.745-1.175c1.653-0.452,3.317-0.868,4.94-1.419
			c0.717-0.244,1.48-0.417,2.087-0.927c0.128-0.008,0.272,0.045,0.359-0.104c0.093-0.006,0.188-0.008,0.237-0.107
			c0.009-0.012,0.016-0.022,0.022-0.034C117.983,82.301,117.979,82.314,117.974,82.329z M50.463,102.374
			c-0.111,0.045-0.261-0.008-0.338,0.127c-0.037,0-0.073-0.003-0.108,0.003c-0.061,0.013-0.181-0.007-0.169,0.048
			c0.016,0.068,0.12,0.024,0.184,0.004c0.032-0.012,0.057-0.042,0.086-0.062c0.123-0.013,0.263,0.017,0.337-0.127
			c0.073-0.004,0.147-0.006,0.221-0.008c-0.002-0.017-0.001-0.046-0.007-0.049C50.588,102.291,50.525,102.333,50.463,102.374z
			 M8.719,55.188c-0.002-0.015-0.001-0.031-0.007-0.043c-0.004-0.008-0.019-0.01-0.029-0.014c0.015,0.016,0.03,0.033,0.045,0.049
			c0.026,0.149,0.089,0.275,0.226,0.353c0.236,0.636,0.646,1.177,0.965,1.767c0.697,1.285,1.409,2.562,2.104,3.848
			c0.693,1.284,1.414,2.556,2.053,3.866c0.758,1.557,1.649,3.039,2.416,4.59c0.604,1.225,1.207,2.449,1.755,3.699
			c0.55,1.251,1.119,2.492,1.658,3.748c0.387,0.9,0.742,1.815,1.11,2.725c0.367,0.91,0.732,1.82,1.099,2.73
			c0.411,1.016,0.827,2.029,1.236,3.045c0.322,0.804,0.628,1.613,0.959,2.413c0.375,0.906,0.789,1.796,1.151,2.708
			c0.489,1.234,1.047,2.44,1.596,3.646c0.508,1.115,1.056,2.219,1.645,3.301c0.812,1.489,1.634,2.969,2.797,4.217
			c1.724,1.852,3.831,2.609,6.351,2.16c0.468-0.082,0.881-0.295,1.294-0.485c0.965-0.444,1.843-1.019,2.501-1.9
			c1.144-1.537,1.945-3.214,2.341-5.098c0.282-1.343,0.31-2.69,0.124-4.029c-0.217-1.564-0.597-3.095-1.172-4.58
			c-0.515-1.328-1.053-2.642-1.71-3.906c-0.637-1.229-1.315-2.437-2.039-3.616c-0.812-1.325-1.644-2.641-2.539-3.913
			c-1.006-1.432-1.994-2.876-2.997-4.31c-0.662-0.946-1.333-1.885-2.004-2.822c-0.815-1.142-1.649-2.269-2.454-3.419
			c-1.002-1.431-2.009-2.859-2.981-4.313c-0.865-1.293-1.738-2.58-2.576-3.89c-0.977-1.525-1.94-3.058-2.888-4.601
			c-0.725-1.18-1.436-2.37-2.115-3.577c-0.72-1.274-1.398-2.57-2.05-3.882c-0.729-1.466-1.454-2.938-2.047-4.46
			c-0.725-1.864-1.392-3.752-1.949-5.68c-0.677-2.345-1.166-4.719-1.417-7.144c-0.051-0.498-0.022-0.534,0.469-0.566
			c1.003-0.066,2.007-0.106,3.013-0.101c0.716,0.004,0.716-0.002,0.911-0.702c0.157-0.563,0.157-0.571-0.439-0.599
			c-2.335-0.109-4.67-0.213-7.006-0.317c-0.83-0.037-1.66-0.067-2.489-0.112c-0.292-0.015-0.384,0.074-0.288,0.366
			c0.214,0.659,0.382,1.334,0.623,1.983c0.406,1.101,0.759,2.219,1.163,3.321c0.502,1.373,1.02,2.742,1.578,4.092
			c0.684,1.651,1.386,3.297,2.128,4.925c0.799,1.75,1.634,3.481,2.507,5.192c0.934,1.83,1.895,3.648,2.959,5.412
			c0.963,1.596,1.925,3.194,2.961,4.745c1.27,1.899,2.626,3.739,3.968,5.589c1.524,2.099,3.144,4.124,4.727,6.178
			c1.148,1.49,2.369,2.925,3.527,4.408c1.168,1.498,2.321,3.008,3.439,4.545c1.006,1.382,1.988,2.781,2.919,4.214
			c0.807,1.239,1.566,2.516,2.25,3.829c0.569,1.094,1.089,2.21,1.526,3.361c0.445,1.172,0.75,2.38,0.945,3.626
			c0.189,1.209,0.334,2.411,0.15,3.63c-0.159,1.048-0.332,2.099-0.763,3.077c-0.437,0.988-1.017,1.895-1.763,2.681
			c-0.615,0.648-1.334,1.21-2.173,1.49c-1.571,0.522-3.073,0.27-4.472-0.644c-1.448-0.947-2.491-2.258-3.427-3.676
			c-0.816-1.237-1.518-2.541-2.216-3.847c-0.525-0.982-1-1.992-1.479-2.998c-0.405-0.851-0.792-1.709-1.174-2.568
			c-0.569-1.285-1.13-2.572-1.687-3.861c-0.502-1.163-0.996-2.331-1.491-3.497c-0.375-0.886-0.751-1.771-1.124-2.658
			c-0.544-1.295-1.083-2.594-1.633-3.886c-0.549-1.292-1.093-2.587-1.667-3.869c-0.528-1.176-0.998-2.379-1.61-3.515
			c-0.511-0.95-1.049-1.888-1.538-2.848c-0.613-1.201-1.274-2.375-1.946-3.542c-0.854-1.484-1.757-2.942-2.671-4.39
			c-0.283-0.449-0.483-0.967-0.937-1.296C8.975,55.356,8.902,55.237,8.719,55.188z M45.83,103.309
			c-0.195,0.028-0.408-0.031-0.578,0.118c-0.059,0.003-0.116,0.003-0.173,0.009c-0.114,0.015-0.227,0.03-0.34,0.045
			c0.116,0.116,0.249,0.026,0.373,0.023c0.045-0.001,0.09-0.056,0.134-0.086c0.205,0.016,0.408,0.035,0.578-0.117
			c0.037,0.002,0.076,0.01,0.112,0.006c0.091-0.008,0.183-0.024,0.275-0.036c-0.088-0.11-0.193-0.038-0.291-0.024
			C45.887,103.25,45.859,103.287,45.83,103.309z M52.56,101.921c-0.231-0.014-0.443,0.059-0.648,0.154
			c0.006,0.011,0.012,0.031,0.019,0.031c0.229,0.008,0.435-0.064,0.622-0.195c0.067-0.025,0.18,0.071,0.201-0.076
			C52.672,101.828,52.598,101.833,52.56,101.921z M48.386,102.852c-0.039,0-0.076,0-0.116,0c-0.254,0.002-0.489,0.091-0.73,0.157
			c0.249,0.129,0.451-0.107,0.688-0.091c0.048,0.004,0.1-0.049,0.15-0.076c0.071-0.013,0.143-0.024,0.215-0.035
			c-0.01-0.016-0.018-0.041-0.028-0.042C48.488,102.756,48.418,102.765,48.386,102.852z M63.937,99.024
			c0.405-0.04,0.806-0.086,1.132-0.367c0.167-0.011,0.342,0.012,0.489-0.099c0.095-0.004,0.191-0.007,0.286-0.015
			c0.27-0.024,0.519-0.11,0.742-0.266c0.003-0.002-0.006-0.032-0.014-0.032c-0.262-0.062-0.475,0.097-0.709,0.165
			c-0.106,0.03-0.225,0.053-0.299,0.155c-0.166,0.016-0.337,0.011-0.488,0.099c-0.406,0.032-0.795,0.121-1.131,0.367
			c-0.169,0.006-0.338,0.016-0.493,0.098c-0.447,0.018-0.859,0.151-1.25,0.36c-0.061,0.017-0.121,0.031-0.181,0.047
			c0.012,0.006,0.029,0.02,0.038,0.016c0.045-0.02,0.09-0.046,0.135-0.07c0.452,0.003,0.867-0.123,1.251-0.358
			C63.608,99.086,63.788,99.134,63.937,99.024z M10.351,49.727c-0.197-0.033-0.271-0.192-0.363-0.341
			c-0.394-0.639-0.786-1.279-1.192-1.911c-1.145-1.782-2.307-3.552-3.441-5.339c-1.269-1.998-2.515-4.01-3.776-6.015
			c-0.085-0.137-0.217-0.386-0.342-0.307c-0.173,0.111-0.297,0.357-0.221,0.611c0.027,0.089,0.091,0.169,0.142,0.251
			c0.163,0.261,0.333,0.516,0.489,0.779c0.844,1.422,1.677,2.85,2.527,4.267c0.979,1.632,1.983,3.25,2.956,4.883
			c1.16,1.95,2.307,3.908,3.443,5.87c1.264,2.178,2.516,4.362,3.761,6.551c0.674,1.186,1.338,2.377,1.979,3.581
			c0.712,1.341,1.412,2.688,2.068,4.06c0.83,1.733,1.703,3.447,2.544,5.177c0.714,1.466,1.411,2.943,2.115,4.415
			c0.671,1.406,1.341,2.812,2.014,4.219c0.516,1.075,1.029,2.152,1.552,3.225c0.548,1.123,1.107,2.238,1.66,3.358
			c0.401,0.809,0.794,1.621,1.198,2.429c0.534,1.065,1.07,2.131,1.614,3.191c0.586,1.146,1.13,2.32,1.929,3.339
			c0.772,0.985,1.739,1.688,3.014,1.875c0.593,0.087,1.085-0.101,1.512-0.527c0.555-0.556,0.813-1.255,1.008-1.983
			c0.333-1.255,0.345-2.51-0.052-3.761c-0.509-1.608-1.325-3.07-2.145-4.528c-1.027-1.826-2.183-3.576-3.332-5.33
			c-0.79-1.203-1.605-2.391-2.423-3.575c-0.984-1.424-1.977-2.84-2.978-4.251c-0.866-1.223-1.75-2.433-2.622-3.651
			c-0.648-0.908-1.275-1.832-1.938-2.729c-0.855-1.16-1.695-2.329-2.527-3.505c-1.008-1.426-1.982-2.879-2.974-4.318
			c-1.103-1.602-2.086-3.27-3.025-4.965c-0.839-1.514-1.606-3.066-2.401-4.604c-1.023-1.98-2.054-3.957-3.059-5.947
			c-0.859-1.699-1.677-3.42-2.53-5.122c-1.062-2.117-2.073-4.257-3.109-6.386c-0.235-0.483-0.415-0.997-0.73-1.443
			c-0.096-0.136-0.157-0.244-0.27-0.042c-0.208,0.368-0.401,0.744-0.598,1.119c-0.052,0.099,0.006,0.184,0.046,0.271
			c0.483,1.046,0.917,2.117,1.407,3.16c0.819,1.742,1.703,3.455,2.585,5.167c1.312,2.552,2.659,5.086,3.964,7.642
			c0.189,0.369,0.466,0.71,0.516,1.146L10.351,49.727z M42.31,94.073c0-0.618,0.072-1.245-0.012-1.852
			c-0.379-2.749-1.45-5.263-2.753-7.682c-0.637-1.185-1.352-2.325-2.076-3.461c-0.962-1.509-1.997-2.967-3.053-4.407
			c-1.089-1.486-2.234-2.932-3.366-4.388c-1.144-1.471-2.303-2.931-3.455-4.396c-1.02-1.301-2.051-2.593-3.053-3.907
			c-1-1.312-1.984-2.639-2.952-3.975c-1.047-1.447-2.065-2.915-3.035-4.417c-0.677-1.05-1.342-2.106-1.991-3.175
			c-0.747-1.232-1.476-2.476-2.156-3.747c-0.498-0.932-0.989-1.867-1.464-2.81c-0.571-1.132-1.127-2.272-1.677-3.416
			c-0.375-0.78-0.732-1.568-1.086-2.358C9.78,39.189,9.382,38.292,9,37.39c-0.396-0.939-0.781-1.883-1.154-2.831
			c-0.402-1.021-0.805-2.043-1.167-3.078c-0.381-1.09-0.772-2.177-1.132-3.276c-0.161-0.495-0.265-1.007-0.461-1.489
			c-0.04-0.097-0.043-0.254-0.175-0.266c-0.11-0.01-0.122,0.135-0.162,0.213c-0.309,0.598-0.604,1.201-0.914,1.799
			c-0.098,0.19,0.013,0.334,0.073,0.49c0.216,0.576,0.427,1.156,0.66,1.726c0.488,1.192,0.982,2.382,1.486,3.567
			c0.362,0.85,0.74,1.692,1.118,2.536c0.527,1.176,1.046,2.356,1.594,3.523c0.555,1.184,1.132,2.356,1.713,3.527
			c0.495,0.997,0.997,1.991,1.516,2.977c0.555,1.054,1.123,2.101,1.702,3.141c0.626,1.125,1.259,2.246,1.911,3.354
			c0.829,1.407,1.704,2.786,2.627,4.132c0.814,1.188,1.636,2.374,2.483,3.542c0.846,1.167,1.752,2.291,2.585,3.467
			c1.055,1.489,2.217,2.895,3.318,4.349c0.997,1.317,2.027,2.607,3.029,3.921c0.851,1.115,1.692,2.238,2.516,3.373
			c0.835,1.15,1.664,2.306,2.461,3.482c0.754,1.113,1.473,2.25,2.19,3.388c0.573,0.908,1.122,1.832,1.621,2.784
			c0.536,1.022,1.052,2.052,1.535,3.102c0.651,1.415,1.093,2.878,1.152,4.443c0.041,1.068-0.077,2.109-0.351,3.151
			c-0.351,1.335-0.928,2.53-1.91,3.499c-1.184,1.169-2.569,1.327-3.997,0.747c-0.927-0.377-1.683-1.019-2.338-1.758
			c-1.405-1.581-2.402-3.428-3.337-5.309c-0.54-1.083-1.095-2.159-1.588-3.267c-0.554-1.248-1.15-2.479-1.721-3.719
			c-0.514-1.12-0.998-2.252-1.53-3.361c-0.574-1.198-1.073-2.427-1.617-3.637c-0.514-1.141-1.025-2.281-1.547-3.418
			c-0.545-1.188-1.103-2.372-1.653-3.56c-0.542-1.169-1.077-2.34-1.624-3.507c-0.522-1.113-1.055-2.225-1.584-3.336
			c-0.527-1.109-1.04-2.227-1.592-3.325c-0.654-1.306-1.269-2.632-1.976-3.912c-0.585-1.06-1.125-2.146-1.707-3.208
			c-0.673-1.231-1.363-2.452-2.06-3.669c-0.678-1.183-1.369-2.359-2.063-3.532c-0.724-1.222-1.457-2.44-2.193-3.656
			c-0.597-0.986-1.194-1.972-1.811-2.947c-0.72-1.136-1.461-2.26-2.19-3.389c-0.082-0.126-0.158-0.379-0.277-0.313
			c-0.137,0.078-0.189,0.322-0.102,0.523c0.03,0.07,0.055,0.146,0.096,0.209c0.362,0.567,0.731,1.13,1.092,1.699
			c0.712,1.119,1.413,2.244,2.131,3.359c0.47,0.727,0.9,1.477,1.352,2.214c0.732,1.196,1.432,2.41,2.139,3.621
			c0.562,0.963,1.117,1.93,1.655,2.906c0.707,1.279,1.404,2.564,2.089,3.855c0.532,1,1.022,2.022,1.56,3.02
			c0.602,1.117,1.157,2.257,1.705,3.401c0.499,1.04,0.988,2.083,1.472,3.13c0.543,1.17,1.086,2.341,1.611,3.519
			c0.554,1.247,1.087,2.504,1.626,3.758c0.41,0.955,0.815,1.911,1.223,2.868c0.377,0.884,0.757,1.766,1.134,2.649
			c0.377,0.887,0.754,1.772,1.125,2.661c0.48,1.151,0.939,2.313,1.434,3.46c0.533,1.238,1.118,2.452,1.64,3.692
			c0.635,1.509,1.336,2.985,2.063,4.447c0.94,1.89,1.908,3.77,3.102,5.521c0.949,1.394,1.994,2.68,3.503,3.522
			c1.439,0.806,2.895,0.938,4.349,0.118c1.846-1.039,2.882-2.73,3.509-4.681C42.303,96.289,42.452,95.188,42.31,94.073z
			 M40.71,93.933c0.005-0.995-0.014-1.791-0.215-2.56c-0.517-1.974-1.477-3.756-2.423-5.54c-0.632-1.19-1.342-2.333-2.055-3.474
			c-0.816-1.306-1.685-2.574-2.558-3.839c-0.917-1.327-1.865-2.63-2.853-3.905c-0.872-1.125-1.71-2.275-2.577-3.402
			c-1.149-1.492-2.32-2.969-3.466-4.463c-0.818-1.067-1.592-2.169-2.416-3.232c-1.069-1.381-2.073-2.812-3.088-4.233
			c-0.736-1.032-1.432-2.094-2.128-3.155c-0.886-1.349-1.721-2.73-2.517-4.134c-0.522-0.919-1.038-1.842-1.543-2.771
			c-0.534-0.98-1.067-1.96-1.574-2.954c-0.706-1.386-1.395-2.781-2.076-4.18c-0.539-1.105-1.068-2.217-1.578-3.336
			c-0.55-1.208-1.058-2.434-1.607-3.643c-0.579-1.279-1.118-2.574-1.63-3.882c-0.246-0.625-0.451-1.271-0.77-1.869
			c-0.086-0.163-0.113-0.226-0.25-0.034c-0.194,0.271-0.262,0.601-0.444,0.874c-0.158,0.236-0.124,0.431,0.006,0.689
			c0.562,1.116,1.081,2.253,1.621,3.38c0.465,0.97,0.931,1.94,1.406,2.905c0.536,1.086,1.083,2.166,1.625,3.249
			c0.558,1.115,1.115,2.231,1.671,3.347c0.558,1.118,1.107,2.241,1.673,3.354c0.531,1.043,1.078,2.079,1.62,3.116
			c0.517,0.986,1.054,1.961,1.552,2.958c0.609,1.223,1.278,2.414,1.968,3.59c0.905,1.54,1.934,3.004,2.948,4.475
			c1.21,1.755,2.452,3.488,3.686,5.227c1.102,1.553,2.213,3.1,3.324,4.646c0.695,0.967,1.4,1.928,2.091,2.896
			c0.681,0.954,1.355,1.911,2.022,2.874c0.853,1.233,1.704,2.469,2.538,3.715c0.812,1.213,1.615,2.434,2.397,3.667
			c0.772,1.217,1.504,2.46,2.189,3.729c0.576,1.067,1.149,2.145,1.512,3.301c0.597,1.899,0.504,3.78-0.444,5.56
			c-0.345,0.646-0.786,1.243-1.611,1.345c-0.986,0.123-1.855-0.151-2.671-0.708c-1.193-0.812-1.917-1.991-2.572-3.219
			c-0.742-1.39-1.447-2.798-2.155-4.207c-0.544-1.082-1.07-2.175-1.602-3.265c-0.515-1.054-1.026-2.111-1.54-3.166
			c-0.571-1.177-1.147-2.351-1.713-3.528c-0.482-1.005-0.947-2.02-1.432-3.022c-0.543-1.126-1.108-2.242-1.651-3.367
			c-0.686-1.422-1.35-2.852-2.039-4.271c-0.53-1.09-1.104-2.157-1.621-3.252c-0.65-1.373-1.376-2.706-2.084-4.049
			c-0.636-1.207-1.325-2.386-1.997-3.574c-0.983-1.741-1.958-3.487-2.961-5.217c-0.849-1.462-1.736-2.901-2.6-4.354
			c-1.158-1.949-2.31-3.902-3.466-5.853c-0.696-1.173-1.389-2.349-2.092-3.518c-0.495-0.822-1.003-1.638-1.511-2.453
			c-0.057-0.092-0.141-0.277-0.227-0.22c-0.104,0.07-0.201,0.249-0.126,0.408c0.099,0.208,0.219,0.407,0.342,0.603
			c0.247,0.39,0.506,0.771,0.752,1.159C2.585,40.431,3.4,41.712,4.203,43c0.7,1.125,1.388,2.257,2.073,3.391
			c0.537,0.888,1.063,1.782,1.593,2.674c0.54,0.908,1.085,1.812,1.613,2.726c0.566,0.982,1.122,1.971,1.667,2.965
			c0.544,0.994,1.079,1.994,1.604,2.999c0.659,1.261,1.32,2.522,1.924,3.813c0.524,1.115,1.113,2.198,1.627,3.317
			c0.667,1.45,1.393,2.872,2.041,4.33c0.671,1.513,1.422,2.988,2.109,4.493c0.847,1.853,1.662,3.719,2.494,5.578
			c0.881,1.966,1.754,3.935,2.652,5.893c0.859,1.87,1.745,3.728,2.622,5.589c1.008,2.14,2.003,4.289,3.324,6.262
			c0.828,1.236,1.747,2.393,3.086,3.138c1.357,0.753,2.726,0.646,3.817-0.327c0.766-0.682,1.285-1.545,1.649-2.479
			C40.55,96.201,40.774,94.985,40.71,93.933z M57.739,100.728c0.245-0.091,0.503-0.104,0.698-0.263
			c0.034-0.028,0.029-0.006-0.035-0.018c-0.251-0.04-0.468,0.112-0.704,0.167c-0.042,0.008-0.071,0.062-0.107,0.097
			C57.646,100.718,57.707,100.739,57.739,100.728z M60.898,99.939c0.215-0.084,0.444-0.175,0.673-0.266
			c-0.005-0.011-0.009-0.032-0.016-0.034c-0.262-0.055-0.475,0.099-0.707,0.172c-0.05,0.016-0.091,0.056-0.136,0.084
			C60.766,99.907,60.819,99.922,60.898,99.939z M56.652,100.944c-0.179-0.07-0.291-0.03-0.404,0.021
			c-0.167,0.074-0.368,0.061-0.507,0.204c0.202,0.094,0.359-0.067,0.541-0.096C56.391,101.058,56.494,101.001,56.652,100.944z
			 M54.767,101.388c-0.071-0.008-0.132-0.034-0.179-0.019c-0.238,0.073-0.473,0.155-0.708,0.24
			c-0.027,0.008-0.001,0.059,0.047,0.046c0.243-0.062,0.482-0.133,0.722-0.201C54.684,101.443,54.715,101.418,54.767,101.388z
			 M59.47,100.288c0.109-0.075,0.278-0.021,0.362-0.173c-0.052-0.009-0.111-0.034-0.156-0.021c-0.122,0.036-0.239,0.09-0.357,0.137
			C59.363,100.248,59.409,100.265,59.47,100.288z M43.997,103.614c0.102-0.004,0.176-0.008,0.251-0.012
			c-0.051-0.006-0.103-0.014-0.154-0.016c-0.073-0.004-0.148-0.002-0.222-0.002C43.921,103.597,43.972,103.609,43.997,103.614z
			 M57.078,100.828c-0.042-0.013-0.06-0.017-0.077-0.022c0.001,0.008,0.002,0.024,0.003,0.024
			C57.019,100.832,57.034,100.83,57.078,100.828z M58.9,100.341c-0.018,0-0.035,0-0.053,0c0.001,0.01,0.002,0.028,0.003,0.028
			c0.017,0,0.034-0.003,0.052-0.003C58.901,100.357,58.901,100.349,58.9,100.341z M60.312,99.992c-0.019,0-0.037,0-0.056,0
			c0.001,0.01,0.001,0.022,0.002,0.032c0.018-0.001,0.037-0.002,0.056-0.004C60.313,100.02,60.312,100,60.312,99.992z"/>
		<path fill-rule="evenodd" clip-rule="evenodd" d="M99.992,37.997c0.326-0.042,0.489,0.129,0.639,0.307
			c2.374,2.832,4.932,5.492,7.542,8.103c1.697,1.697,3.457,3.324,5.391,4.751c0.849,0.627,1.709,1.247,2.682,1.679
			c0.105,0.046,0.259,0.11,0.251,0.212c-0.012,0.151-0.186,0.166-0.317,0.2c-1.49,0.392-2.986,0.763-4.49,1.104
			c-1.938,0.438-3.885,0.826-5.826,1.243c-1.564,0.337-3.14,0.626-4.71,0.931c-1.345,0.26-2.69,0.506-4.034,0.769
			c-0.239,0.047-0.398,0.035-0.605-0.163c-1.935-1.849-3.745-3.816-5.549-5.79c-1.881-2.059-3.629-4.228-5.271-6.48
			c-0.837-1.149-1.617-2.34-2.327-3.576c-0.165-0.288-0.108-0.401,0.203-0.48c0.937-0.242,1.901-0.321,2.852-0.488
			c2.546-0.447,5.092-0.885,7.642-1.311c1.33-0.223,2.673-0.395,3.987-0.711C98.707,38.138,99.393,38.163,99.992,37.997z"/>
		<path fill-rule="evenodd" clip-rule="evenodd" d="M34.258,41.157c-4.153,0.065-8.404-0.111-12.654-0.134
			c-0.85-0.004-1.699-0.061-2.547-0.074c-0.317-0.006-0.505-0.062-0.5-0.446c0.005-0.378,0.176-0.447,0.503-0.436
			c2.066,0.072,4.131,0.141,6.197,0.192c4.309,0.107,8.619,0.096,12.928,0.009c2.182-0.045,4.364-0.131,6.546-0.191
			c3.225-0.09,6.45-0.153,9.667-0.429c0.999-0.086,2.004-0.104,3.007-0.131c1.913-0.053,3.808-0.358,5.719-0.415
			c2.278-0.067,4.532-0.455,6.812-0.539c1.118-0.042,2.218-0.291,3.337-0.362c2.062-0.13,4.11-0.415,6.157-0.667
			c2.833-0.35,5.666-0.709,8.491-1.132c2.536-0.378,5.065-0.805,7.6-1.196c0.742-0.114,1.475-0.286,2.223-0.384
			c0.322-0.042,0.503,0.029,0.675,0.284c0.485,0.72,0.483,0.68-0.357,0.874c-1.524,0.353-3.073,0.562-4.611,0.82
			c-2.112,0.354-4.23,0.667-6.352,0.955c-2.485,0.337-4.974,0.654-7.466,0.935c-2.454,0.277-4.913,0.531-7.374,0.736
			c-3.156,0.263-6.312,0.509-9.469,0.742c-4.182,0.309-8.371,0.434-12.554,0.684c-2.064,0.123-4.131,0.178-6.197,0.185
			C40.81,41.047,37.583,41.199,34.258,41.157z"/>
		<path fill-rule="evenodd" clip-rule="evenodd" d="M60.781,33.586c-0.051-1.082-0.33-2.135-0.413-3.213
			c-0.003-0.038-0.012-0.076-0.017-0.114c-0.098-0.826-0.098-0.832,0.708-0.908c0.519-0.05,1.043-0.056,1.558-0.132
			c0.389-0.058,0.667,0.07,0.927,0.333c1.418,1.435,2.84,2.865,4.259,4.298c0.068,0.068,0.151,0.183,0.229,0.139
			c0.078-0.042,0.029-0.173,0.004-0.266c-0.358-1.263-0.501-2.57-0.816-3.842c-0.009-0.037-0.019-0.074-0.024-0.113
			c-0.129-0.798-0.129-0.792,0.657-0.825c0.444-0.019,0.886-0.059,1.328-0.098c0.287-0.025,0.4,0.088,0.447,0.381
			c0.356,2.227,0.724,4.45,1.107,6.672c0.061,0.35,0.008,0.504-0.376,0.509c-0.635,0.008-1.273-0.006-1.904,0.1
			c-0.263,0.044-0.448-0.12-0.609-0.275c-1.601-1.549-3.192-3.106-4.785-4.662c-0.066-0.064-0.122-0.193-0.224-0.136
			c-0.083,0.047-0.045,0.177-0.027,0.269c0.298,1.498,0.317,3.031,0.61,4.528c0.116,0.593,0.094,0.61-0.526,0.632
			c-0.559,0.02-1.122-0.01-1.677,0.076c-0.298,0.047-0.527-0.062-0.727-0.267c-2.112-2.166-4.225-4.331-6.333-6.499
			c-0.088-0.09-0.271-0.147-0.222-0.306c0.05-0.165,0.229-0.096,0.351-0.106c0.52-0.047,1.042-0.064,1.559-0.128
			c0.346-0.041,0.59,0.085,0.815,0.324c1.266,1.354,2.535,2.705,3.806,4.056c0.065,0.07,0.143,0.129,0.22,0.186
			c0.042,0.032,0.096,0.05,0.145,0.074c0.002-0.056,0.01-0.112,0.005-0.167C60.82,33.932,60.8,33.76,60.781,33.586z"/>
		<path fill-rule="evenodd" clip-rule="evenodd" d="M25.682,55.119c-0.455,0.209-0.72-0.205-0.971-0.596
			c-0.184-0.288-0.598-0.6-0.5-0.854c0.114-0.293,0.617-0.165,0.946-0.199c1.287-0.131,2.577-0.22,3.871-0.274
			c1.099-0.046,2.192-0.183,3.29-0.275c0.673-0.057,1.345-0.137,2.02-0.155c2.531-0.067,5.046-0.36,7.567-0.55
			c3.138-0.237,6.278-0.447,9.413-0.714c2.538-0.217,5.08-0.412,7.626-0.521c1.003-0.042,2.008-0.12,2.999-0.269
			c0.478-0.072,0.789,0.082,1.039,0.407c0.157,0.204,0.541,0.342,0.438,0.613c-0.086,0.225-0.449,0.113-0.688,0.126
			c-1.909,0.101-3.802,0.408-5.71,0.503c-2.18,0.109-4.338,0.453-6.521,0.542c-1.349,0.054-2.684,0.326-4.036,0.38
			c-2.22,0.089-4.416,0.461-6.638,0.549c-1.347,0.053-2.683,0.324-4.035,0.379c-2.181,0.089-4.338,0.452-6.52,0.542
			C28.117,54.8,26.967,54.983,25.682,55.119z"/>
		<path fill-rule="evenodd" clip-rule="evenodd" d="M27.185,57.49c-0.309,0.074-0.494-0.07-0.655-0.334
			c-0.15-0.247-0.225-0.53-0.419-0.755c-0.202-0.233-0.064-0.313,0.188-0.353c0.707-0.11,1.423-0.099,2.133-0.177
			c2.647-0.287,5.298-0.54,7.949-0.791c2.228-0.212,4.458-0.395,6.686-0.605c2.631-0.25,5.259-0.524,7.891-0.773
			c2.324-0.219,4.655-0.371,6.973-0.642c1.88-0.22,3.776-0.257,5.645-0.553c0.486-0.078,0.774,0.14,0.995,0.509
			c0.109,0.184,0.486,0.251,0.337,0.526c-0.116,0.211-0.42,0.146-0.646,0.156c-1.718,0.077-3.411,0.399-5.125,0.505
			c-1.888,0.118-3.761,0.386-5.641,0.574c-2.264,0.227-4.534,0.4-6.789,0.722c-1.317,0.188-2.65,0.244-3.976,0.38
			c-2.455,0.251-4.914,0.49-7.368,0.753c-2.262,0.243-4.538,0.382-6.79,0.737C28.117,57.44,27.65,57.451,27.185,57.49z"/>
		<path fill-rule="evenodd" clip-rule="evenodd" d="M60.831,48.877c0.347-0.091,0.542,0.327,0.789,0.628
			c0.113,0.139,0.374,0.251,0.285,0.454c-0.083,0.193-0.343,0.13-0.528,0.135c-3.148,0.084-6.282,0.415-9.42,0.632
			c-3.391,0.234-6.781,0.498-10.172,0.708c-2.641,0.164-5.271,0.466-7.919,0.543c-1.6,0.046-3.191,0.307-4.794,0.372
			c-1.757,0.071-3.508,0.215-5.255,0.403c-0.285,0.03-0.474-0.027-0.584-0.324c-0.079-0.212-0.238-0.395-0.351-0.596
			c-0.205-0.364-0.149-0.466,0.256-0.499c0.885-0.07,1.77-0.162,2.656-0.209c2.064-0.111,4.127-0.208,6.188-0.361
			c3.37-0.252,6.742-0.504,10.117-0.653c2.934-0.13,5.854-0.468,8.792-0.537c1.755-0.041,3.502-0.287,5.259-0.37
			C57.654,49.131,59.163,49.105,60.831,48.877z"/>
		<path fill-rule="evenodd" clip-rule="evenodd" d="M22.677,50.645c-0.372,0.102-0.592-0.101-0.755-0.431
			c-0.102-0.205-0.206-0.407-0.356-0.59c-0.222-0.272-0.161-0.374,0.219-0.396c1.812-0.107,3.624-0.192,5.436-0.314
			c3.717-0.253,7.437-0.509,11.16-0.658c3.262-0.13,6.51-0.465,9.776-0.545c1.986-0.049,3.965-0.312,5.953-0.381
			c1.679-0.058,3.357-0.146,5.03-0.294c0.443-0.04,0.688,0.194,0.888,0.514c0.116,0.186,0.486,0.261,0.36,0.521
			c-0.101,0.207-0.418,0.152-0.643,0.157c-3.438,0.07-6.854,0.504-10.291,0.618c-1.773,0.059-3.538,0.327-5.315,0.378
			c-2.144,0.063-4.273,0.324-6.414,0.429c-1.986,0.098-3.971,0.207-5.952,0.408c-0.825,0.084-1.657,0.122-2.487,0.138
			c-1.488,0.028-2.965,0.2-4.447,0.313C24.127,50.566,23.414,50.601,22.677,50.645z"/>
		<path fill-rule="evenodd" clip-rule="evenodd" d="M40.465,30.573c0.135-0.008,0.274,0.003,0.404-0.027
			c0.379-0.089,0.555,0.116,0.719,0.416c0.836,1.534,1.672,3.07,2.566,4.573c0.372,0.626,0.735,1.264,1.065,1.915
			c0.212,0.416,0.186,0.438-0.259,0.478c-0.404,0.036-0.813,0.041-1.211,0.109c-0.532,0.092-0.978-0.07-1.416-0.342
			c-2.024-1.257-4.07-2.479-6.151-3.643c-0.032-0.019-0.061-0.048-0.094-0.067c-0.121-0.068-0.224-0.287-0.367-0.158
			c-0.081,0.075,0.101,0.217,0.164,0.331c0.706,1.256,1.398,2.522,2.114,3.771c0.2,0.347,0.094,0.432-0.251,0.449
			c-0.443,0.021-0.89,0.039-1.327,0.108c-0.403,0.063-0.626-0.134-0.787-0.442c-1.058-2.028-2.284-3.964-3.327-6
			c-0.113-0.221-0.294-0.402-0.383-0.644c-0.074-0.204-0.008-0.297,0.19-0.312c0.634-0.052,1.275-0.167,1.903-0.121
			c0.352,0.026,0.695,0.305,1.023,0.501c1.484,0.887,2.97,1.772,4.438,2.686c0.587,0.366,1.223,0.646,1.779,1.061
			c0.06,0.044,0.159,0.15,0.243,0.029c0.043-0.063,0.028-0.15-0.017-0.219c-0.583-0.861-1.024-1.805-1.559-2.694
			c-0.248-0.412-0.463-0.843-0.705-1.259c-0.147-0.254-0.184-0.41,0.206-0.415c0.345-0.004,0.691-0.064,1.037-0.099
			C40.463,30.563,40.464,30.568,40.465,30.573z"/>
		<path fill-rule="evenodd" clip-rule="evenodd" d="M21.519,48.536c-0.307,0.075-0.499-0.045-0.577-0.295
			c-0.079-0.25-0.276-0.416-0.389-0.639c-0.175-0.345-0.133-0.422,0.263-0.45c1.08-0.076,2.157-0.164,3.237-0.216
			c1.949-0.093,3.902-0.101,5.848-0.246c3.874-0.29,7.76-0.31,11.633-0.602c2.236-0.168,4.48-0.144,6.715-0.314
			c3.083-0.235,6.174-0.301,9.26-0.463c0.559-0.029,1.19,0.363,1.38,0.846c0.078,0.199-0.062,0.234-0.206,0.246
			c-0.405,0.032-0.81,0.078-1.214,0.082c-1.799,0.018-3.586,0.208-5.379,0.331c-0.964,0.066-1.929,0.115-2.895,0.134
			c-1.702,0.034-3.393,0.212-5.089,0.32c-0.944,0.06-1.89,0.126-2.836,0.142c-1.74,0.03-3.47,0.207-5.205,0.324
			c-1.04,0.071-2.083,0.12-3.125,0.144c-1.625,0.036-3.239,0.207-4.858,0.309c-0.944,0.06-1.89,0.137-2.835,0.146
			C23.988,48.347,22.739,48.464,21.519,48.536z"/>
		<path fill-rule="evenodd" clip-rule="evenodd" d="M48.953,31.421c-0.521,0.01-1.041,0.023-1.56,0.087
			c-0.261,0.033-0.369,0.103-0.195,0.354c0.033,0.048,0.071,0.096,0.088,0.149c0.317,0.971,0.953,1.174,1.944,1.041
			c1.315-0.177,2.65-0.252,3.982-0.311c0.496-0.021,0.802,0.108,1.004,0.538c0.074,0.157,0.151,0.312,0.232,0.464
			c0.14,0.259,0.033,0.344-0.226,0.354c-0.79,0.031-1.581,0.086-2.372,0.101c-0.947,0.017-1.888,0.129-2.832,0.186
			c-0.268,0.017-0.332,0.083-0.171,0.341c0.252,0.407,0.478,0.833,0.688,1.265c0.14,0.289,0.373,0.285,0.63,0.282
			c1.527-0.022,3.044-0.197,4.566-0.299c0.385-0.025,0.773-0.024,1.154-0.082c0.429-0.064,0.676,0.138,0.79,0.502
			c0.086,0.277,0.471,0.508,0.336,0.749c-0.132,0.236-0.533,0.104-0.812,0.12c-1.619,0.089-3.238,0.16-4.854,0.304
			c-0.961,0.084-1.927,0.112-2.889,0.192c-0.331,0.027-0.538-0.053-0.702-0.355c-0.375-0.693-0.788-1.366-1.176-2.053
			c-0.549-0.969-1.085-1.943-1.632-2.913c-0.311-0.552-0.632-1.099-0.948-1.649c-0.206-0.358-0.18-0.423,0.251-0.431
			c1.373-0.022,2.736-0.167,4.102-0.27c1.253-0.095,2.507-0.134,3.759-0.212c0.488-0.03,0.769,0.109,0.971,0.586
			c0.304,0.717,0.343,0.683-0.43,0.756C51.422,31.332,50.186,31.356,48.953,31.421z"/>
		<path fill-rule="evenodd" clip-rule="evenodd" d="M78.426,35.97c-1.091,0.042-2.237-0.048-3.324-0.522
			c-0.75-0.326-1.425-0.76-1.977-1.365c-0.253-0.278-0.221-0.342,0.149-0.415c0.569-0.111,1.156-0.052,1.724-0.185
			c0.193-0.046,0.335,0.081,0.458,0.204c0.663,0.666,1.474,0.952,2.401,0.958c0.599,0.005,1.197,0.009,1.787-0.12
			c0.364-0.08,0.675-0.263,0.719-0.644c0.046-0.409-0.264-0.591-0.616-0.722c-0.55-0.205-1.113-0.326-1.693-0.339
			c-1.357-0.028-2.703-0.17-4.01-0.517c-0.991-0.263-1.947-0.656-2.463-1.656c-0.325-0.631-0.102-1.249,0.51-1.628
			c0.755-0.469,1.601-0.548,2.443-0.616c1.567-0.127,3.122-0.083,4.597,0.576c0.538,0.24,0.993,0.584,1.357,1.042
			c0.173,0.216,0.165,0.382-0.174,0.403c-0.615,0.038-1.23,0.085-1.848,0.123c-0.238,0.015-0.387-0.161-0.541-0.301
			c-0.887-0.805-2.871-0.721-3.81-0.251c-0.24,0.121-0.256,0.295-0.107,0.524c0.14,0.218,0.343,0.298,0.573,0.346
			c0.908,0.187,1.818,0.373,2.746,0.392c1.128,0.023,2.229,0.188,3.303,0.526c0.804,0.253,1.522,0.673,2.014,1.377
			c0.572,0.818,0.494,1.742-0.627,2.274C80.901,35.967,79.702,35.978,78.426,35.97z"/>
		<path fill-rule="evenodd" clip-rule="evenodd" d="M106.479,68.859c-0.188,0.011-0.296-0.009-0.365-0.126
			c-0.248-0.411-0.5-0.82-0.744-1.234c-0.082-0.137-0.008-0.214,0.122-0.256c0.092-0.03,0.181-0.07,0.275-0.089
			c1.552-0.302,3.059-0.784,4.605-1.114c0.713-0.152,1.42-0.354,2.129-0.534c1.754-0.449,3.516-0.87,5.27-1.319
			c0.839-0.215,1.684-0.413,2.52-0.64c1.301-0.352,2.614-0.66,3.921-0.99c0.18-0.045,0.294-0.01,0.36,0.177
			c0.069,0.2,0.147,0.397,0.238,0.588c0.32,0.677,0.324,0.742-0.391,0.886c-1.493,0.301-2.942,0.77-4.426,1.109
			c-1.425,0.326-2.824,0.761-4.238,1.138c-1.115,0.296-2.237,0.576-3.355,0.863c-1.344,0.346-2.684,0.703-4.031,1.032
			c-0.412,0.102-0.819,0.214-1.227,0.337C106.903,68.758,106.659,68.812,106.479,68.859z"/>
		<path fill-rule="evenodd" clip-rule="evenodd" d="M107.514,77.722c0.004,0.662,0.006,0.67-0.624,0.862
			c-1.567,0.477-3.144,0.913-4.727,1.334c-1.339,0.356-2.658,0.781-3.992,1.16c-1.37,0.389-2.746,0.758-4.118,1.142
			c-0.666,0.186-1.333,0.375-1.999,0.566c-1.444,0.413-2.881,0.852-4.345,1.192c-0.261,0.061-0.513,0.168-0.767,0.262
			c-0.199,0.074-0.292,0.003-0.308-0.198c-0.032-0.385-0.16-0.792-0.075-1.149c0.111-0.469,0.639-0.308,0.981-0.408
			c1.959-0.576,3.916-1.155,5.89-1.677c2.271-0.602,4.531-1.233,6.795-1.866c1.65-0.459,3.309-0.889,4.956-1.363
			c0.574-0.165,1.157-0.288,1.726-0.479c0.537-0.181,0.589-0.118,0.606,0.449C107.516,77.606,107.514,77.664,107.514,77.722z"/>
		<path fill-rule="evenodd" clip-rule="evenodd" d="M106.134,84.914c-0.062,0.623-0.564,1.166-1.175,1.346
			c-1.198,0.351-2.388,0.733-3.579,1.105c-1.304,0.409-2.606,0.82-3.909,1.23c-1.156,0.364-2.312,0.729-3.466,1.097
			c-1.21,0.385-2.419,0.776-3.631,1.157c-1.191,0.376-2.387,0.741-3.579,1.112c-0.662,0.204-1.322,0.412-1.985,0.615
			c-0.106,0.032-0.238,0.119-0.326,0.032c-0.131-0.129,0.037-0.252,0.087-0.351c0.214-0.43,0.465-0.84,0.696-1.261
			c0.115-0.207,0.313-0.279,0.517-0.34c0.924-0.275,1.848-0.544,2.771-0.817c0.646-0.191,1.293-0.383,1.937-0.58
			c1.452-0.449,2.91-0.878,4.375-1.287c1.258-0.354,2.503-0.764,3.758-1.131c1.367-0.4,2.73-0.809,4.098-1.205
			c0.791-0.229,1.599-0.424,2.373-0.717c0.273-0.104,0.553-0.166,0.841-0.202C106.071,84.701,106.169,84.719,106.134,84.914z"/>
		<path fill-rule="evenodd" clip-rule="evenodd" d="M108.165,72.121c-0.194,0.022-0.325,0.035-0.37-0.04
			c-0.239-0.392-0.479-0.784-0.676-1.196c-0.083-0.173,0.124-0.206,0.25-0.234c1.353-0.296,2.676-0.713,4.029-1.018
			c0.69-0.156,1.379-0.352,2.066-0.535c1.693-0.452,3.398-0.852,5.085-1.322c1.409-0.395,2.84-0.706,4.255-1.083
			c0.889-0.236,1.772-0.521,2.688-0.672c0.275-0.046,0.406-0.014,0.444,0.254c0.033,0.236,0.121,0.453,0.232,0.65
			c0.207,0.37,0.018,0.455-0.296,0.533c-1.589,0.386-3.164,0.818-4.739,1.256c-1.445,0.401-2.91,0.73-4.361,1.113
			c-1.434,0.377-2.857,0.781-4.29,1.167c-1.375,0.369-2.753,0.729-4.13,1.093C108.261,72.11,108.164,72.121,108.165,72.121z"/>
		<path fill-rule="evenodd" clip-rule="evenodd" d="M86.526,86.229c0.003-0.038,0.006-0.076,0.007-0.114
			c0.005-0.538,0.141-0.895,0.775-1.054c1.509-0.379,2.991-0.867,4.497-1.267c1.19-0.316,2.366-0.677,3.551-1.015
			c1.351-0.385,2.702-0.764,4.054-1.147c1.295-0.367,2.591-0.733,3.885-1.108c1.237-0.358,2.473-0.725,3.709-1.093
			c0.294-0.087,0.371-0.001,0.347,0.303c-0.088,1.088-0.199,1.193-1.279,1.481c-1.524,0.407-3.026,0.89-4.553,1.282
			c-1.38,0.354-2.732,0.798-4.114,1.14c-1.251,0.311-2.477,0.713-3.718,1.062c-1.351,0.381-2.708,0.737-4.06,1.119
			c-0.87,0.246-1.734,0.518-2.6,0.774C86.57,86.729,86.514,86.685,86.526,86.229z"/>
		<path fill-rule="evenodd" clip-rule="evenodd" d="M104.565,66.077c-0.108,0.008-0.179-0.048-0.236-0.133
			c-0.237-0.351-0.708-0.688-0.666-1.041c0.051-0.4,0.661-0.309,1.019-0.416c0.957-0.29,1.939-0.492,2.908-0.75
			c0.689-0.183,1.379-0.362,2.068-0.544c1.732-0.455,3.466-0.903,5.206-1.33c1.42-0.348,2.825-0.76,4.241-1.129
			c1.117-0.292,2.241-0.555,3.359-0.846c0.209-0.055,0.336,0.008,0.44,0.164c0.182,0.272,0.357,0.547,0.529,0.824
			c0.074,0.118,0.066,0.203-0.098,0.25c-0.297,0.083-0.583,0.208-0.881,0.283c-1.456,0.372-2.922,0.706-4.37,1.108
			c-1.355,0.375-2.721,0.715-4.082,1.068c-1.621,0.42-3.24,0.846-4.863,1.26c-0.781,0.199-1.574,0.376-2.342,0.63
			c-0.697,0.231-1.44,0.285-2.121,0.573C104.642,66.063,104.604,66.067,104.565,66.077z"/>
		<path fill-rule="evenodd" clip-rule="evenodd" d="M108.903,78.986c0-0.097-0.003-0.193,0-0.29
			c0.024-0.671,0.024-0.669,0.652-0.854c2.196-0.649,4.416-1.216,6.616-1.848c1.814-0.52,3.648-0.97,5.455-1.517
			c1.582-0.479,3.188-0.887,4.784-1.322c0.068-0.02,0.155-0.064,0.215,0.013c0.053,0.071,0.006,0.139-0.029,0.209
			c-0.21,0.409-0.421,0.818-0.618,1.233c-0.064,0.134-0.147,0.216-0.288,0.257c-0.963,0.278-1.924,0.555-2.884,0.84
			c-1.309,0.392-2.614,0.794-3.923,1.186c-1.29,0.387-2.584,0.767-3.875,1.15c-0.663,0.198-1.327,0.397-1.989,0.601
			c-1.232,0.379-2.463,0.761-3.693,1.144c-0.312,0.099-0.483,0.028-0.445-0.338c0.018-0.152,0.004-0.31,0.004-0.463
			C108.891,78.986,108.897,78.986,108.903,78.986z"/>
		<path fill-rule="evenodd" clip-rule="evenodd" d="M126.722,70.375c-0.106,0.98-0.11,0.965-0.989,1.196
			c-1.601,0.421-3.189,0.888-4.795,1.291c-1.438,0.362-2.859,0.783-4.291,1.166c-1.357,0.362-2.717,0.723-4.064,1.127
			c-1.105,0.335-2.253,0.518-3.344,0.91c-0.251,0.091-0.415,0.003-0.423-0.288c-0.001-0.02-0.003-0.04-0.006-0.058
			c-0.138-1.046-0.095-1.073,0.937-1.342c1.563-0.408,3.116-0.863,4.676-1.287c1.411-0.383,2.837-0.718,4.236-1.14
			c0.793-0.239,1.6-0.426,2.395-0.657c1.424-0.414,2.848-0.826,4.288-1.176c0.318-0.078,0.625-0.196,0.939-0.287
			c0.457-0.133,0.512-0.086,0.464,0.383C126.737,70.29,126.722,70.367,126.722,70.375z"/>
		<path fill-rule="evenodd" clip-rule="evenodd" d="M82.827,28.633c-0.928,0.031-0.845,0.081-1.076-0.585
			c-0.15-0.435-0.36-0.847-0.521-1.281c-0.115-0.314-0.032-0.364,0.249-0.382c1.271-0.082,2.538-0.191,3.805-0.322
			c2.358-0.245,4.723-0.434,7.082-0.668c0.409-0.042,0.654,0.056,0.822,0.435c0.163,0.367,0.343,0.728,0.535,1.083
			c0.282,0.52,0.21,0.619-0.372,0.676c-0.403,0.04-0.808,0.064-1.21,0.105c-2.57,0.262-5.146,0.467-7.706,0.806
			C83.842,28.578,83.243,28.6,82.827,28.633z"/>
		<path fill-rule="evenodd" clip-rule="evenodd" d="M86.191,80.574c-0.032-0.217,0.045-0.308,0.229-0.359
			c1.039-0.291,2.067-0.625,3.113-0.884c0.729-0.181,1.448-0.399,2.172-0.597c2.19-0.599,4.375-1.22,6.57-1.801
			c1.378-0.364,2.738-0.794,4.113-1.176c1.465-0.407,2.937-0.791,4.405-1.19c0.244-0.067,0.346,0.008,0.398,0.256
			c0.165,0.771,0.179,0.786-0.582,1.02c-1.528,0.469-3.071,0.888-4.617,1.295c-1.21,0.317-2.411,0.672-3.609,1.032
			c-0.978,0.292-1.964,0.55-2.95,0.816c-1.299,0.351-2.59,0.744-3.886,1.109c-1.611,0.456-3.227,0.9-4.839,1.355
			c-0.188,0.053-0.289,0.016-0.335-0.182C86.318,81.025,86.248,80.784,86.191,80.574z"/>
		<path fill-rule="evenodd" clip-rule="evenodd" d="M121.544,58.696c0.012,0.136-0.141,0.121-0.237,0.146
			c-1.023,0.267-2.051,0.522-3.073,0.791c-1.638,0.429-3.272,0.871-4.912,1.297c-1.471,0.382-2.955,0.717-4.416,1.135
			c-1.369,0.392-2.76,0.698-4.12,1.115c-0.61,0.187-1.251,0.237-1.845,0.478c-0.149,0.061-0.294,0.06-0.413-0.095
			c-0.199-0.26-0.411-0.51-0.622-0.761c-0.181-0.215-0.127-0.315,0.143-0.383c1.211-0.306,2.414-0.651,3.631-0.933
			c0.789-0.182,1.565-0.406,2.348-0.607c1.732-0.446,3.461-0.909,5.198-1.336c1.942-0.478,3.869-1.021,5.8-1.546
			c0.466-0.126,0.954-0.151,1.406-0.333c0.05-0.02,0.113-0.023,0.167-0.014C120.71,57.67,121.523,58.546,121.544,58.696z"/>
		<path fill-rule="evenodd" clip-rule="evenodd" d="M108.629,82.756c-0.175,0.04-0.213-0.078-0.185-0.198
			c0.121-0.524,0.256-1.049,0.391-1.57c0.042-0.164,0.195-0.162,0.324-0.195c1.841-0.487,3.667-1.024,5.499-1.54
			c1.333-0.375,2.667-0.748,3.994-1.147c1.361-0.409,2.744-0.748,4.11-1.146c0.701-0.203,1.399-0.421,2.108-0.596
			c0.073-0.019,0.163-0.077,0.211,0c0.043,0.062-0.018,0.143-0.07,0.196c-0.523,0.538-1.045,1.08-1.577,1.611
			c-0.093,0.092-0.219,0.176-0.344,0.205c-1.22,0.28-2.387,0.735-3.591,1.071c-1.223,0.341-2.423,0.758-3.636,1.13
			c-1.306,0.4-2.615,0.784-3.922,1.183c-0.718,0.22-1.435,0.439-2.141,0.686C109.417,82.578,109.021,82.659,108.629,82.756z"/>
		<path fill-rule="evenodd" clip-rule="evenodd" d="M106.248,72.366c0.239,0.019,0.269,0.312,0.362,0.521
			c0.2,0.447,0.15,0.501-0.309,0.629c-1.336,0.369-2.665,0.763-3.999,1.136c-1.316,0.366-2.637,0.713-3.954,1.077
			c-0.63,0.175-1.255,0.364-1.885,0.54c-2.167,0.604-4.332,1.217-6.497,1.828c-1.222,0.347-2.448,0.675-3.66,1.056
			c-0.267,0.084-0.443,0.08-0.526-0.226c-0.03-0.111-0.091-0.212-0.129-0.32c-0.171-0.489-0.141-0.516,0.373-0.656
			c1.483-0.409,2.962-0.834,4.443-1.249c0.723-0.201,1.446-0.396,2.171-0.596c1.391-0.385,2.773-0.797,4.172-1.15
			c1.38-0.349,2.734-0.789,4.116-1.134c1.305-0.324,2.594-0.723,3.884-1.109C105.254,72.58,105.703,72.476,106.248,72.366z"/>
		<path fill-rule="evenodd" clip-rule="evenodd" d="M86.253,89.164c-0.171,0.021-0.211-0.053-0.215-0.198
			c-0.011-0.672,0.363-1.175,1.02-1.335c1.591-0.389,3.146-0.899,4.726-1.318c1.378-0.365,2.747-0.76,4.119-1.144
			c1.314-0.367,2.633-0.733,3.94-1.13c1.18-0.357,2.377-0.655,3.562-0.984c0.929-0.257,1.854-0.522,2.78-0.785
			c0.148-0.041,0.297-0.081,0.444-0.124c0.232-0.07,0.277,0.042,0.233,0.239c-0.055,0.244-0.117,0.485-0.167,0.731
			c-0.053,0.26-0.267,0.322-0.468,0.367c-1.768,0.395-3.481,0.986-5.233,1.439c-1.321,0.342-2.617,0.787-3.929,1.167
			c-1.332,0.386-2.671,0.74-4.004,1.118c-1.223,0.347-2.441,0.702-3.66,1.062c-0.996,0.294-1.988,0.608-3,0.849
			C86.347,89.132,86.292,89.151,86.253,89.164z"/>
		<path fill-rule="evenodd" clip-rule="evenodd" d="M17.272,26.671c1.602,0.343,3.235,0.496,4.849,0.779
			c1.497,0.264,3.008,0.45,4.512,0.679c0.532,0.081,1.061,0.193,1.593,0.286c0.26,0.046,0.384,0.159,0.248,0.432
			c-0.042,0.085-0.073,0.178-0.1,0.271c-0.224,0.799-0.22,0.774-1.046,0.664c-1.966-0.265-3.932-0.537-5.897-0.801
			c-1.432-0.192-2.867-0.371-4.296-0.575c-0.35-0.05-0.469-0.197-0.41-0.534c0.05-0.285,0.074-0.574,0.118-0.859
			C16.878,26.772,16.986,26.611,17.272,26.671z"/>
		<path fill-rule="evenodd" clip-rule="evenodd" d="M24.545,39.459c-1.788-0.059-3.619-0.118-5.452-0.178
			c-0.745-0.025-0.745-0.025-0.879-0.767c-0.157-0.871-0.156-0.881,0.72-0.844c2.103,0.089,4.199,0.256,6.298,0.394
			c1.348,0.089,2.701,0.11,4.051,0.166c0.248,0.01,0.567-0.072,0.721,0.12c0.249,0.31,0.414,0.689,0.596,1.047
			c0.065,0.129-0.019,0.221-0.163,0.229c-0.135,0.008-0.271,0.013-0.405,0.004C28.221,39.521,26.402,39.599,24.545,39.459z"/>
		<path fill-rule="evenodd" clip-rule="evenodd" d="M61.102,44.442c-0.327-0.001-0.722-0.319-0.79-0.565
			c-0.06-0.226,0.104-0.204,0.229-0.224c0.61-0.098,1.229-0.103,1.842-0.188c2.235-0.311,4.491-0.465,6.729-0.749
			c2.027-0.258,4.063-0.454,6.093-0.713c1.778-0.227,3.564-0.407,5.346-0.626c0.351-0.042,0.467,0.18,0.624,0.4
			c0.141,0.199,0.055,0.272-0.145,0.301c-0.534,0.08-1.065,0.19-1.604,0.239c-2.651,0.24-5.288,0.606-7.933,0.904
			c-2.588,0.29-5.171,0.625-7.759,0.903C62.833,44.223,61.931,44.307,61.102,44.442z"/>
		<path fill-rule="evenodd" clip-rule="evenodd" d="M93.66,57.36c0.14,0.001,0.27,0,0.375,0.115c0.108,0.116,0.221,0.241,0.203,0.4
			c-0.02,0.172-0.209,0.158-0.322,0.183c-1.278,0.284-2.56,0.56-3.842,0.826c-0.999,0.208-1.998,0.411-3.001,0.599
			c-1.985,0.371-3.949,0.848-5.94,1.195c-1.289,0.224-2.556,0.565-3.84,0.822c-0.548,0.11-1.097,0.211-1.64,0.342
			c-0.299,0.071-0.813-0.323-0.818-0.613c-0.003-0.17,0.138-0.163,0.243-0.174c0.867-0.089,1.694-0.366,2.549-0.521
			c1.269-0.23,2.529-0.503,3.798-0.738c1.818-0.336,3.627-0.713,5.441-1.066c1.341-0.261,2.678-0.553,4.02-0.815
			c0.794-0.155,1.573-0.379,2.376-0.492C93.395,57.406,93.527,57.382,93.66,57.36z"/>
		<path fill-rule="evenodd" clip-rule="evenodd" d="M79.535,67.396c-0.154-0.006-0.673-0.463-0.707-0.62
			c-0.032-0.147,0.084-0.161,0.168-0.172c0.825-0.099,1.606-0.398,2.429-0.527c1.085-0.169,2.15-0.438,3.224-0.66
			c1.244-0.258,2.487-0.521,3.731-0.771c0.902-0.181,1.805-0.392,2.707-0.586c1.263-0.272,2.521-0.559,3.79-0.794
			c1.023-0.189,2.034-0.439,3.049-0.664c0.133-0.029,0.261-0.085,0.394-0.096c0.312-0.025,0.462,0.245,0.537,0.446
			c0.08,0.223-0.21,0.216-0.356,0.25c-0.995,0.231-1.992,0.453-2.988,0.671c-0.923,0.202-1.848,0.39-2.77,0.592
			c-1.807,0.399-3.61,0.81-5.419,1.202c-1.225,0.267-2.445,0.553-3.661,0.849c-1.312,0.317-2.635,0.573-3.954,0.857
			C79.651,67.385,79.594,67.389,79.535,67.396z"/>
		<path fill-rule="evenodd" clip-rule="evenodd" d="M68.516,53.109c-0.239,0-0.754-0.471-0.745-0.628
			c0.013-0.19,0.18-0.185,0.303-0.19c0.93-0.042,1.817-0.361,2.74-0.43c0.985-0.072,1.937-0.34,2.912-0.466
			c2.791-0.361,5.564-0.838,8.344-1.279c1.504-0.238,3.009-0.463,4.515-0.695c0.309-0.047,0.666,0.166,0.747,0.46
			c0.076,0.27-0.151,0.223-0.279,0.235c-1.136,0.103-2.24,0.396-3.368,0.55c-1.354,0.187-2.698,0.459-4.054,0.633
			c-1.436,0.184-2.855,0.456-4.281,0.681c-1.445,0.229-2.901,0.414-4.336,0.719C70.164,52.879,69.285,52.872,68.516,53.109z"/>
		<path fill-rule="evenodd" clip-rule="evenodd" d="M80.716,69.179c-0.226-0.006-0.692-0.548-0.646-0.701
			c0.041-0.133,0.176-0.145,0.281-0.166c1.491-0.3,2.966-0.68,4.46-0.966c1.098-0.209,2.179-0.501,3.268-0.748
			c1.39-0.314,2.781-0.624,4.172-0.936c1.371-0.308,2.743-0.618,4.115-0.923c0.996-0.222,1.993-0.436,2.989-0.654
			c0.095-0.021,0.188-0.062,0.282-0.066c0.247-0.01,0.417,0.171,0.476,0.352c0.082,0.261-0.208,0.226-0.345,0.263
			c-0.783,0.201-1.563,0.423-2.358,0.562c-0.857,0.149-1.683,0.416-2.532,0.592c-1.583,0.328-3.139,0.785-4.717,1.137
			c-1.521,0.34-3.028,0.734-4.558,1.036c-0.832,0.163-1.653,0.383-2.465,0.625C82.324,68.826,81.465,68.874,80.716,69.179z"/>
		<path fill-rule="evenodd" clip-rule="evenodd" d="M83.87,46.354c0.336-0.006,0.62-0.084,0.78,0.239
			c0.101,0.203,0.087,0.342-0.169,0.356c-1.236,0.071-2.434,0.421-3.672,0.489c-0.887,0.049-1.751,0.28-2.634,0.392
			c-2.295,0.292-4.586,0.631-6.879,0.949c-1.892,0.262-3.784,0.52-5.676,0.778c-0.316,0.043-0.867-0.332-0.909-0.623
			c-0.026-0.186,0.126-0.154,0.227-0.173c0.607-0.116,1.228-0.12,1.84-0.204c3.115-0.429,6.233-0.832,9.352-1.237
			c2.449-0.318,4.899-0.629,7.349-0.941C83.632,46.359,83.787,46.359,83.87,46.354z"/>
		<path fill-rule="evenodd" clip-rule="evenodd" d="M90.802,54.216c0.173-0.023,0.289,0.052,0.402,0.178
			c0.271,0.304,0.26,0.369-0.13,0.478c-0.541,0.151-1.098,0.217-1.648,0.313c-1.312,0.229-2.618,0.473-3.928,0.704
			c-1.595,0.281-3.193,0.541-4.784,0.835c-2.409,0.444-4.812,0.908-7.233,1.276c-0.267,0.041-0.529,0.107-0.792,0.169
			c-0.136,0.032-0.271,0.067-0.37-0.065c-0.149-0.197-0.471-0.355-0.422-0.586c0.055-0.262,0.396-0.116,0.606-0.166
			c1.598-0.38,3.229-0.56,4.842-0.855c1.802-0.33,3.61-0.615,5.417-0.919c1.863-0.313,3.724-0.65,5.593-0.927
			C89.176,54.529,89.983,54.343,90.802,54.216z"/>
		<path fill-rule="evenodd" clip-rule="evenodd" d="M85.646,34.667c-0.535,0.023-0.968-0.34-1.068-0.875
			c-0.048-0.264,0.115-0.287,0.298-0.31c0.861-0.11,1.719-0.272,2.584-0.32c1.236-0.069,2.44-0.366,3.675-0.435
			c1.429-0.08,2.83-0.37,4.251-0.501c0.53-0.049,1.09,0.335,1.239,0.845c0.089,0.303-0.161,0.265-0.302,0.286
			c-0.878,0.129-1.755,0.29-2.638,0.346c-1.235,0.079-2.44,0.379-3.674,0.451C88.547,34.24,87.113,34.599,85.646,34.667z"/>
		<path fill-rule="evenodd" clip-rule="evenodd" d="M62.716,46.363c-0.267,0.008-0.681-0.313-0.72-0.527
			c-0.034-0.186,0.114-0.171,0.217-0.186c0.516-0.07,1.031-0.173,1.548-0.191c1.26-0.044,2.489-0.314,3.736-0.449
			c2.702-0.291,5.401-0.632,8.102-0.949c2.049-0.24,4.098-0.475,6.148-0.712c0.097-0.011,0.193-0.026,0.288-0.023
			c0.342,0.01,0.48,0.306,0.511,0.534c0.032,0.251-0.283,0.184-0.453,0.201c-2.551,0.26-5.092,0.62-7.64,0.892
			c-1.899,0.201-3.784,0.515-5.693,0.642c-0.999,0.066-1.985,0.289-2.984,0.382C64.738,46.073,63.703,46.177,62.716,46.363z"/>
		<path fill-rule="evenodd" clip-rule="evenodd" d="M76.85,63.68c-0.204-0.001-0.63-0.385-0.606-0.552
			c0.028-0.208,0.22-0.188,0.36-0.204c0.866-0.093,1.7-0.343,2.552-0.511c1.474-0.291,2.939-0.619,4.41-0.928
			c2.205-0.462,4.406-0.937,6.615-1.376c1.605-0.319,3.196-0.705,4.815-0.944c0.114-0.016,0.228-0.066,0.34-0.062
			c0.262,0.011,0.36,0.218,0.4,0.426c0.05,0.252-0.185,0.181-0.31,0.211c-2.192,0.53-4.404,0.963-6.615,1.4
			c-1.283,0.253-2.554,0.578-3.838,0.836c-1.472,0.297-2.942,0.595-4.408,0.923c-1.145,0.256-2.299,0.482-3.446,0.721
			C77.024,63.642,76.93,63.663,76.85,63.68z"/>
		<path fill-rule="evenodd" clip-rule="evenodd" d="M92.146,55.939c0.177,0.017,0.354-0.024,0.507,0.093
			c0.109,0.083,0.227,0.175,0.193,0.33c-0.03,0.146-0.177,0.12-0.283,0.138c-1.807,0.3-3.589,0.712-5.386,1.053
			c-1.36,0.258-2.721,0.53-4.075,0.822c-1.562,0.336-3.134,0.632-4.703,0.938c-1.246,0.244-2.507,0.425-3.741,0.735
			c-0.675,0.17-0.803,0.09-1.12-0.39c-0.143-0.217-0.112-0.313,0.14-0.336c1.021-0.09,2.004-0.393,3.014-0.553
			c1.179-0.188,2.354-0.397,3.527-0.622c1.455-0.279,2.918-0.523,4.373-0.808c1.247-0.244,2.504-0.435,3.748-0.701
			C89.601,56.369,90.877,56.17,92.146,55.939z"/>
		<path fill-rule="evenodd" clip-rule="evenodd" d="M67.101,51.45c-0.216,0.005-0.76-0.429-0.779-0.608
			c-0.019-0.163,0.095-0.193,0.217-0.199c1.428-0.083,2.817-0.45,4.239-0.567c0.965-0.08,1.903-0.305,2.859-0.427
			c2.219-0.281,4.429-0.621,6.642-0.934c1.698-0.24,3.397-0.474,5.096-0.711c0.153-0.021,0.309-0.06,0.431,0.08
			c0.088,0.1,0.237,0.177,0.224,0.321c-0.019,0.175-0.194,0.161-0.32,0.18c-1.544,0.234-3.087,0.459-4.63,0.697
			c-0.819,0.125-1.635,0.277-2.455,0.405c-1.998,0.312-3.998,0.621-5.999,0.926c-1.772,0.269-3.544,0.53-5.315,0.796
			C67.232,51.42,67.156,51.439,67.101,51.45z"/>
		<path fill-rule="evenodd" clip-rule="evenodd" d="M88.29,51.21c0.147-0.034,0.258,0.082,0.37,0.187
			c0.103,0.096,0.193,0.218,0.157,0.354c-0.033,0.127-0.188,0.125-0.296,0.134c-1.039,0.091-2.048,0.366-3.079,0.519
			c-1.543,0.227-3.075,0.532-4.621,0.745c-1.395,0.192-2.773,0.47-4.165,0.677c-1.257,0.187-2.518,0.369-3.765,0.621
			c-0.946,0.193-1.912,0.243-2.854,0.462c-0.247,0.057-0.621-0.227-0.688-0.483c-0.046-0.176,0.072-0.189,0.191-0.203
			c0.345-0.041,0.693-0.057,1.033-0.124c2.042-0.403,4.104-0.688,6.158-1.02c2.473-0.399,4.94-0.828,7.413-1.234
			c1.293-0.212,2.59-0.403,3.885-0.603C88.105,51.23,88.183,51.223,88.29,51.21z"/>
		<path fill-rule="evenodd" clip-rule="evenodd" d="M77.98,65.353c-0.228-0.011-0.345-0.229-0.427-0.439
			c-0.063-0.163,0.136-0.145,0.228-0.169c0.521-0.137,1.043-0.291,1.574-0.385c1.596-0.282,3.175-0.646,4.758-0.989
			c1.263-0.274,2.515-0.603,3.786-0.835c1.782-0.326,3.532-0.799,5.314-1.12c1.1-0.199,2.185-0.475,3.274-0.727
			c0.193-0.045,0.373-0.14,0.506,0.089c0.125,0.214,0.249,0.403-0.15,0.487c-1.113,0.235-2.218,0.505-3.328,0.748
			c-0.941,0.206-1.889,0.383-2.829,0.591C88.88,63,87.081,63.436,85.27,63.808c-2.133,0.438-4.258,0.918-6.378,1.41
			C78.611,65.283,78.321,65.304,77.98,65.353z"/>
		<path fill-rule="evenodd" clip-rule="evenodd" d="M64.108,47.883c-0.115-0.006-0.274,0.041-0.411-0.063
			c-0.142-0.109-0.278-0.249-0.237-0.43c0.037-0.169,0.224-0.092,0.348-0.112c2.072-0.344,4.169-0.523,6.254-0.76
			c1.914-0.217,3.821-0.515,5.746-0.648c1.056-0.073,2.101-0.304,3.156-0.385c1.347-0.104,2.672-0.375,4.018-0.489
			c0.237-0.02,0.465-0.042,0.618,0.196c0.137,0.214,0.137,0.341-0.168,0.379c-1.148,0.138-2.291,0.348-3.443,0.426
			c-1.215,0.083-2.406,0.316-3.614,0.448c-2.662,0.289-5.314,0.675-7.98,0.937C66.974,47.521,65.572,47.816,64.108,47.883z"/>
		<path fill-rule="evenodd" clip-rule="evenodd" d="M71.344,56.528c-0.159,0.022-0.318,0.024-0.426-0.114
			c-0.08-0.106-0.183-0.236-0.179-0.352c0.006-0.156,0.19-0.162,0.318-0.183c1.653-0.275,3.303-0.575,4.963-0.807
			c0.842-0.117,1.666-0.314,2.506-0.438c1.905-0.28,3.805-0.605,5.705-0.914c1.73-0.281,3.473-0.498,5.189-0.858
			c0.13-0.027,0.274-0.041,0.399-0.009c0.188,0.047,0.279,0.223,0.292,0.394c0.012,0.179-0.175,0.174-0.3,0.198
			c-1.667,0.312-3.34,0.579-5.017,0.833c-1.352,0.205-2.695,0.461-4.044,0.692c-2.07,0.354-4.145,0.678-6.216,1.029
			C73.474,56.179,72.408,56.358,71.344,56.528z"/>
		<path fill-rule="evenodd" clip-rule="evenodd" d="M117.269,57.032c-0.141,0.379-0.324,0.458-0.583,0.222
			c-0.48-0.44-0.947-0.893-1.41-1.351c-0.111-0.109-0.204-0.257-0.359-0.275c-0.22-0.025-0.5-0.057-0.632,0.114
			c-0.072,0.094,0.186,0.253,0.306,0.371c0.361,0.35,0.73,0.689,1.086,1.043c0.29,0.291,0.258,0.346-0.101,0.5
			c-0.538,0.231-0.965,0.198-1.365-0.295c-0.351-0.43-0.788-0.789-1.192-1.174c-0.077-0.075-0.178-0.211-0.284-0.082
			c-0.102,0.124,0.061,0.195,0.133,0.266c0.44,0.432,0.886,0.857,1.327,1.287c0.182,0.176,0.173,0.295-0.106,0.323
			c-0.077,0.007-0.163,0.004-0.228,0.039c-0.88,0.487-1.522,0.137-2.119-0.546c-0.414-0.476-0.89-0.899-1.35-1.335
			c-0.164-0.155-0.158-0.224,0.055-0.316c0.612-0.265,0.782-0.241,1.27,0.226c0.416,0.4,0.837,0.799,1.255,1.199
			c0.094,0.09,0.226,0.288,0.304,0.193c0.115-0.139-0.111-0.239-0.204-0.332c-0.396-0.394-0.808-0.771-1.214-1.155
			c-0.097-0.092-0.225-0.185-0.173-0.337c0.044-0.135,0.195-0.083,0.3-0.116c0.844-0.279,1.73-0.378,2.584-0.61
			c0.396-0.108,0.571,0.161,0.781,0.355c0.169,0.157,0.304,0.345,0.543,0.402l-0.014-0.009c0.019,0.223,0.141,0.338,0.359,0.358
			l-0.011-0.011c0.017,0.068,0.057,0.113,0.127,0.128l-0.013-0.011c0.026,0.214,0.16,0.319,0.359,0.359l-0.011-0.012
			c0.042,0.043,0.085,0.085,0.127,0.128l-0.011-0.011c0.043,0.196,0.166,0.312,0.359,0.359l-0.013-0.012
			c0.043,0.042,0.085,0.085,0.127,0.128L117.269,57.032z"/>
		<path fill-rule="evenodd" clip-rule="evenodd" d="M96.976,70.605c-0.024-0.2-0.045-0.392,0.244-0.414
			c0.652-0.052,1.256-0.314,1.885-0.465c0.346-0.083,0.547-0.061,0.738,0.302c0.341,0.643,0.77,1.236,1.156,1.855
			c0.085,0.137,0.25,0.291-0.013,0.423c-0.217,0.11-0.306-0.028-0.402-0.19c-0.298-0.495-0.616-0.975-0.904-1.474
			c-0.098-0.17-0.173-0.296-0.391-0.218c-0.173,0.062-0.286,0.087-0.137,0.34c0.284,0.479,0.566,0.957,0.868,1.427
			c0.143,0.222,0.116,0.322-0.165,0.389c-0.904,0.211-0.919,0.23-1.39-0.645c-0.174-0.324-0.399-0.612-0.561-0.94
			c-0.05-0.104-0.085-0.252-0.231-0.147c-0.104,0.077,0.014,0.16,0.061,0.238c0.305,0.489,0.599,0.984,0.909,1.468
			c0.154,0.238,0.085,0.351-0.17,0.398c-0.095,0.019-0.188,0.043-0.282,0.062c-0.789,0.154-0.838,0.118-1.223-0.574
			c-0.251-0.451-0.563-0.87-0.813-1.321c-0.097-0.176-0.358-0.421-0.098-0.592c0.204-0.132,0.517-0.335,0.773,0.004
			c0.029,0.038,0.102,0.046,0.153,0.068c0.105,0.584,0.551,0.986,0.807,1.491c0.03,0.06,0.103,0.098,0.157,0.146
			c0.066-0.084-0.011-0.146-0.047-0.201C97.586,71.562,97.376,71.021,96.976,70.605z M99.531,72.124
			c-0.044-0.041-0.087-0.084-0.129-0.124c-0.024-0.022,0.032-0.097-0.053-0.078c0.021,0.023,0.04,0.047,0.061,0.07
			c0.042,0.042,0.084,0.082,0.127,0.125l0.014,0.016L99.531,72.124z M98.72,70.731c-0.043-0.043-0.085-0.084-0.127-0.125
			c-0.027-0.019,0.021-0.098-0.059-0.07c0.022,0.02,0.044,0.041,0.066,0.062c0.042,0.042,0.085,0.083,0.127,0.125L98.72,70.731z
			 M99.071,71.306l-0.022-0.021l0.031,0.012c0.004,0.017,0.007,0.034,0.014,0.051c0.004,0.013,0.014,0.024,0.021,0.036
			C99.1,71.357,99.086,71.331,99.071,71.306z"/>
		<path fill-rule="evenodd" clip-rule="evenodd" d="M101.572,60.748c-0.174-0.021-0.338-0.172-0.503-0.341
			c-0.416-0.421-0.821-0.854-1.301-1.208c-0.062-0.045-0.103-0.122-0.167-0.156c-0.089-0.045-0.208-0.048-0.27,0.029
			c-0.08,0.102,0.031,0.165,0.097,0.227c0.461,0.438,0.924,0.873,1.383,1.312c0.085,0.081,0.286,0.146,0.127,0.306
			c-0.127,0.128-0.273,0.086-0.404-0.044c-0.232-0.23-0.476-0.449-0.712-0.675c-0.46-0.44-0.916-0.882-1.375-1.322
			c-0.195-0.187-0.194-0.327,0.093-0.392c0.3-0.068,0.603-0.127,0.904-0.184c0.19-0.034,0.415,0.001,0.567-0.089
			c0.653-0.381,1.141-0.175,1.563,0.366c0.044,0.058,0.107,0.152,0.179,0.095c0.129-0.103-0.02-0.156-0.072-0.218
			c-0.062-0.073-0.147-0.127-0.201-0.204c-0.072-0.102-0.268-0.187-0.161-0.328c0.104-0.138,0.29-0.103,0.415,0.014
			c0.7,0.656,1.397,1.317,2.088,1.983c0.072,0.07,0.184,0.176,0.055,0.294c-0.125,0.113-0.258,0.074-0.365-0.024
			c-0.283-0.26-0.559-0.532-0.842-0.792c-0.054-0.049-0.183-0.111-0.193-0.098c-0.088,0.107,0.021,0.181,0.083,0.229
			c0.199,0.155,0.363,0.342,0.538,0.521c0.308,0.318,0.318,0.334-0.093,0.432C102.556,60.589,102.097,60.653,101.572,60.748z
			 M100.807,59.006c-0.039,0.002-0.041-0.027-0.011-0.025c0.076,0.004-0.015-0.045,0.012,0.027c0.04,0.039,0.081,0.078,0.121,0.117
			l0.02,0.027l-0.026-0.021C100.884,59.09,100.846,59.048,100.807,59.006z M101.271,59.473l-0.02-0.021l0.021,0.021l0.016,0.018
			L101.271,59.473z M101.734,59.935c-0.039-0.001-0.043-0.012-0.009-0.031C101.728,59.915,101.732,59.925,101.734,59.935z"/>
		<path fill-rule="evenodd" clip-rule="evenodd" d="M115.891,55.648c-0.131-0.246-0.363-0.393-0.549-0.585
			c-0.147-0.153-0.244-0.342,0.104-0.382c0.518-0.061,1.021-0.182,1.521-0.336c0.192-0.06,0.364-0.043,0.525,0.119
			c0.681,0.678,1.369,1.348,2.061,2.015c0.138,0.132,0.143,0.24-0.043,0.286c-0.734,0.188-1.46,0.461-2.241,0.268l0.01,0.012
			c-0.013-0.072-0.058-0.111-0.127-0.128l0.013,0.012c-0.029-0.211-0.139-0.34-0.359-0.359l0.011,0.011
			c-0.019-0.067-0.062-0.108-0.127-0.128l0.011,0.012c-0.026-0.212-0.157-0.32-0.359-0.359l0.013,0.011
			c-0.043-0.042-0.085-0.085-0.127-0.128l0.011,0.011c-0.055-0.184-0.161-0.317-0.359-0.358L115.891,55.648z"/>
		<path fill-rule="evenodd" clip-rule="evenodd" d="M55.531,44.195c-1.559,0.141-1.559,0.141-2.605-1.017
			c-0.064-0.071-0.125-0.146-0.196-0.211c-0.164-0.153-0.096-0.238,0.087-0.245c0.923-0.034,1.846-0.059,2.769-0.085
			c0.17-0.005,0.292,0.104,0.396,0.211c0.338,0.342,0.665,0.694,0.992,1.046c0.062,0.066,0.161,0.145,0.096,0.242
			c-0.031,0.046-0.139,0.056-0.212,0.057C56.415,44.198,55.973,44.195,55.531,44.195z"/>
		<path fill-rule="evenodd" clip-rule="evenodd" d="M101.504,69.319c0.26-0.349,0.682-0.304,1.035-0.414
			c0.151-0.047,0.216,0.141,0.282,0.249c0.436,0.701,0.862,1.408,1.289,2.114c0.057,0.093,0.167,0.242-0.006,0.276
			c-0.401,0.078-0.79,0.331-1.219,0.119c-0.028-0.149-0.066-0.293-0.222-0.367c-0.004-0.016-0.002-0.04-0.013-0.046
			c-0.039-0.024-0.058-0.009-0.038,0.032c0.005,0.012,0.029,0.014,0.045,0.021c0.006,0.167,0.131,0.253,0.235,0.352
			c-0.197,0.329-0.317,0.349-0.557,0.109c-0.249-0.25-0.355-0.585-0.545-0.872c-0.242-0.364-0.481-0.732-0.696-1.114
			c-0.074-0.133-0.258-0.292-0.115-0.457c0.148-0.171,0.351-0.084,0.531-0.01c0.011,0.03,0.022,0.061,0.035,0.091
			C101.532,69.375,101.519,69.347,101.504,69.319z M101.728,69.803c-0.006-0.055-0.018-0.066-0.034-0.034
			c0,0.002,0.028,0.019,0.043,0.026c0.029,0.146,0.09,0.27,0.228,0.345l0.018,0.02l-0.019-0.018
			C101.948,69.984,101.904,69.848,101.728,69.803z M102.308,70.724c0.01,0.012,0.017,0.025,0.028,0.036c0.006,0.005,0.02,0,0.028,0
			c-0.022-0.009-0.044-0.018-0.066-0.026c-0.003-0.036,0.001-0.075-0.012-0.108c-0.024-0.064-0.071-0.176-0.131-0.134
			c-0.085,0.06,0.03,0.112,0.067,0.161C102.243,70.682,102.278,70.701,102.308,70.724z"/>
		<path fill-rule="evenodd" clip-rule="evenodd" d="M104.289,59.243c-0.404-0.49-0.901-0.886-1.341-1.34
			c-0.087-0.09-0.248-0.17-0.173-0.329c0.054-0.113,0.199-0.093,0.31-0.115c0.341-0.065,0.683-0.117,1.019-0.2
			c0.289-0.073,0.488,0.069,0.67,0.242c0.607,0.581,1.207,1.17,1.807,1.76c0.088,0.086,0.267,0.171,0.157,0.314
			c-0.108,0.143-0.302,0.176-0.473,0.084c-0.165-0.087-0.236-0.315-0.465-0.312c-0.298-0.552-0.863-0.854-1.246-1.326
			c-0.032-0.039-0.11-0.048-0.155,0c-0.047,0.051-0.013,0.122,0.024,0.148c0.479,0.37,0.793,0.926,1.358,1.197
			c0.24,0.318,0.127,0.45-0.232,0.538c-0.259,0.062-0.472,0.038-0.688-0.089l0.011,0.011c-0.016-0.07-0.063-0.108-0.129-0.127
			l0.013,0.011c-0.019-0.068-0.059-0.111-0.127-0.128l0.012,0.011c-0.029-0.133-0.125-0.2-0.243-0.243l0.011,0.011
			c-0.042-0.042-0.085-0.085-0.128-0.127L104.289,59.243z"/>
		<path fill-rule="evenodd" clip-rule="evenodd" d="M107.35,56.514c0.285-0.052,0.424,0.082,0.559,0.224
			c0.091,0.095,0.141,0.216-0.013,0.273c-0.327,0.12-0.13,0.222-0.007,0.341c0.467,0.456,0.93,0.917,1.401,1.369
			c0.226,0.215,0.123,0.293-0.113,0.385c-0.346,0.136-0.55-0.081-0.754-0.277c-0.472-0.454-0.926-0.924-1.395-1.379
			c-0.069-0.068-0.167-0.224-0.272-0.104c-0.06,0.064,0.098,0.133,0.162,0.196c0.423,0.418,0.848,0.833,1.269,1.251
			c0.126,0.125,0.391,0.247,0.207,0.446c-0.158,0.172-0.427,0.171-0.63-0.012c-0.199-0.179-0.395-0.363-0.581-0.555
			c-0.426-0.435-0.851-0.871-1.318-1.262c-0.122-0.101-0.239-0.234-0.224-0.385c0.022-0.208,0.246-0.133,0.375-0.171
			C106.475,56.717,106.925,56.531,107.35,56.514z"/>
		<path fill-rule="evenodd" clip-rule="evenodd" d="M25.534,44.978c-0.384,0.132-0.656-0.142-0.898-0.409
			c-0.295-0.323-0.561-0.673-0.887-0.969c-0.162-0.147-0.136-0.291,0.104-0.289c0.471,0.006,1.001-0.251,1.357,0.32
			c0.097,0.156,0.861,0.155,0.998,0.06c0.039-0.027,0.046-0.05,0.055-0.087c0.108-0.452,0.447-0.549,0.803-0.204
			c0.399,0.387,0.774,0.799,1.153,1.206c0.116,0.124,0.122,0.248-0.091,0.271c-0.33,0.037-0.651,0.064-0.871-0.274
			c-0.276-0.428-0.694-0.487-1.162-0.439c-0.24,0.025-0.25,0.096-0.139,0.281c0.092,0.152,0.411,0.222,0.281,0.434
			c-0.113,0.185-0.393,0.071-0.598,0.1C25.619,44.98,25.6,44.978,25.534,44.978z"/>
		<path fill-rule="evenodd" clip-rule="evenodd" d="M48.883,44.433c-0.263,0.066-0.555-0.068-0.786-0.322
			c-0.307-0.341-0.601-0.691-0.945-0.997c-0.051-0.046-0.102-0.138-0.091-0.199c0.019-0.108,0.133-0.137,0.23-0.129
			c0.439,0.033,0.902-0.159,1.283,0.298c0.236,0.283,0.659,0.093,0.999,0.112c0.072,0.003,0.087-0.044,0.089-0.11
			c0.003-0.107-0.272-0.246-0.019-0.304c0.25-0.058,0.558-0.115,0.775,0.093c0.416,0.399,0.812,0.819,1.206,1.241
			c0.133,0.141,0.003,0.194-0.119,0.219c-0.334,0.07-0.659,0.086-0.874-0.252c-0.276-0.433-0.689-0.513-1.155-0.457
			c-0.087,0.011-0.214-0.047-0.245,0.077c-0.013,0.053,0.074,0.125,0.097,0.195c0.061,0.175,0.4,0.261,0.259,0.454
			C49.474,44.505,49.188,44.4,48.883,44.433z"/>
		<path fill-rule="evenodd" clip-rule="evenodd" d="M21.405,43.329c0.384,0,0.772,0.029,1.154-0.008
			c0.396-0.037,0.652,0.11,0.867,0.428c0.193,0.285,0.429,0.543,0.642,0.816c0.083,0.104,0.197,0.222,0.131,0.356
			c-0.053,0.11-0.204,0.065-0.314,0.085c-0.473,0.081-0.819-0.102-1.064-0.5c-0.18-0.291-0.364-0.66-0.682-0.726
			c-0.401-0.084-0.841,0.01-1.263,0.04c-0.163,0.011-0.175,0.101-0.093,0.233c0.153,0.244,0.295,0.494,0.44,0.741
			c0.133,0.226,0.049,0.308-0.192,0.31c-0.299,0.003-0.52-0.036-0.702-0.355c-0.207-0.361-0.381-0.754-0.685-1.062
			c-0.196-0.199-0.041-0.252,0.143-0.265c0.269-0.018,0.539-0.038,0.808-0.046c0.27-0.008,0.54-0.001,0.81-0.001
			C21.405,43.359,21.405,43.344,21.405,43.329z"/>
		<path fill-rule="evenodd" clip-rule="evenodd" d="M44.683,42.84c0.346,0,0.703,0.051,1.039-0.011
			c0.577-0.106,0.942,0.167,1.28,0.566c0.222,0.265,0.462,0.515,0.695,0.77c0.168,0.185,0.095,0.25-0.12,0.281
			c-0.45,0.065-0.887,0.11-1.171-0.359c-0.019-0.032-0.067-0.045-0.085-0.077c-0.452-0.817-1.209-0.822-1.996-0.752
			c-0.072,0.006-0.166-0.026-0.206,0.05c-0.044,0.083,0.039,0.139,0.088,0.193c0.229,0.259,0.469,0.511,0.693,0.775
			c0.119,0.141,0.092,0.252-0.117,0.257c-0.266,0.005-0.516,0.029-0.727-0.229c-0.327-0.399-0.707-0.753-1.066-1.124
			c-0.055-0.057-0.116-0.113-0.1-0.194c0.024-0.128,0.141-0.115,0.23-0.116c0.521-0.004,1.042-0.002,1.562-0.002
			C44.683,42.859,44.683,42.85,44.683,42.84z"/>
		<path fill-rule="evenodd" clip-rule="evenodd" d="M90.151,71.933c0.16-0.031,0.267,0.05,0.34,0.17
			c0.437,0.719,0.867,1.441,1.302,2.161c0.053,0.089,0.092,0.181-0.021,0.245c-0.126,0.073-0.263,0.091-0.36-0.042
			c-0.148-0.2-0.291-0.406-0.423-0.618c-0.212-0.342-0.408-0.69-0.619-1.032c-0.038-0.062-0.068-0.214-0.191-0.108
			c-0.051,0.045-0.004,0.138,0.046,0.204c0.331,0.447,0.608,0.927,0.874,1.414c0.065,0.118,0.254,0.254,0.024,0.376
			c-0.199,0.107-0.459,0.233-0.622-0.012c-0.487-0.733-0.958-1.478-1.36-2.262c-0.104-0.2-0.016-0.292,0.163-0.332
			C89.585,72.034,89.868,71.986,90.151,71.933z"/>
		<path fill-rule="evenodd" clip-rule="evenodd" d="M86.999,75.123c-0.047,0.19,0.369,0.367,0.059,0.534
			c-0.255,0.137-0.512,0.13-0.724-0.208c-0.285-0.453-0.563-0.912-0.838-1.371c-0.074-0.123-0.154-0.262-0.302-0.159
			c-0.105,0.074-0.035,0.226,0.034,0.311c0.332,0.402,0.529,0.889,0.83,1.311c0.059,0.081,0.163,0.206,0.048,0.309
			c-0.159,0.143-0.255-0.026-0.319-0.121c-0.472-0.698-0.918-1.413-1.321-2.155c-0.098-0.181,0.004-0.249,0.14-0.296
			c0.255-0.086,0.516-0.154,0.771-0.239c0.341-0.114,0.393,0.237,0.59,0.356l-0.01-0.01c0.042,0.042,0.086,0.084,0.129,0.127
			l-0.012-0.014c-0.003,0.366,0.27,0.577,0.473,0.826l-0.008-0.014c0.018,0.259,0.167,0.438,0.355,0.595l-0.01-0.015
			c0.042,0.083,0.083,0.165,0.125,0.246L86.999,75.123z"/>
		<path fill-rule="evenodd" clip-rule="evenodd" d="M87.94,74.894c-0.062,0.218,0.286,0.577-0.234,0.642
			c-0.157,0.021-0.281,0.072-0.387-0.104c-0.075-0.126-0.173-0.248-0.32-0.309l0.01,0.013c-0.01-0.097-0.021-0.194-0.125-0.246
			l0.01,0.015c-0.014-0.262-0.16-0.442-0.355-0.595l0.008,0.014c-0.085-0.317-0.26-0.583-0.473-0.826l0.012,0.014
			c-0.043-0.043-0.087-0.085-0.129-0.127l0.01,0.01c0.024-0.167-0.155-0.4,0.146-0.478c0.233-0.059,0.462-0.085,0.614,0.163
			c0.061,0.097,0.12,0.196,0.188,0.291c0.03,0.043,0.077,0.074,0.116,0.11c0.053-0.062-0.016-0.099-0.033-0.146
			c-0.026-0.072-0.07-0.139-0.087-0.213c-0.028-0.129-0.262-0.256-0.042-0.387c0.197-0.119,0.245,0.114,0.354,0.199
			c0.046,0.036,0.088,0.073,0.134,0.11l-0.009-0.01c0.121,0.36,0.31,0.679,0.59,0.94l-0.01-0.012
			c0.031,0.402,0.418,0.622,0.52,0.992c0.031,0.117,0.203,0.235,0.066,0.348c-0.168,0.138-0.269-0.031-0.357-0.152
			c-0.068-0.091-0.116-0.197-0.225-0.249c-0.093-0.226-0.121-0.491-0.377-0.614c-0.006-0.002-0.04,0.026-0.038,0.034
			C87.587,74.563,87.706,74.772,87.94,74.894z"/>
		<path fill-rule="evenodd" clip-rule="evenodd" d="M110.428,58.825c-0.151,0.023-0.254-0.051-0.356-0.15
			c-0.637-0.617-1.285-1.221-1.911-1.847c-0.312-0.311-0.283-0.379,0.141-0.515c0.239-0.078,0.481-0.14,0.721-0.209
			c0.222-0.064,0.361,0.043,0.491,0.209c0.168,0.214-0.021,0.218-0.137,0.314c-0.165,0.136,0.024,0.233,0.107,0.314
			c0.461,0.458,0.928,0.91,1.396,1.359c0.094,0.089,0.277,0.13,0.23,0.291c-0.04,0.14-0.221,0.133-0.343,0.175
			C110.661,58.805,110.541,58.807,110.428,58.825z"/>
		<path fill-rule="evenodd" clip-rule="evenodd" d="M42.105,44.547c-1.6,0.101-1.602,0.102-2.671-1.128
			c-0.096-0.108-0.286-0.209-0.2-0.376c0.062-0.117,0.248-0.051,0.378-0.073c0.32-0.053,0.575,0.056,0.745,0.322
			c0.465,0.73,1.121,0.98,1.963,0.847c0.281-0.044,0.576-0.016,0.864-0.016c0.134,0,0.278-0.019,0.393,0.063
			c0.09,0.064,0.208,0.147,0.166,0.275c-0.034,0.101-0.158,0.084-0.253,0.084C43.029,44.547,42.567,44.547,42.105,44.547z"/>
		<path fill-rule="evenodd" clip-rule="evenodd" d="M93.387,71.307c0.154-0.185,0.933-0.47,1.101-0.374
			c0.164,0.095,0.376,0.292,0.13,0.433c-0.264,0.153-0.14,0.237-0.052,0.383c0.287,0.474,0.577,0.946,0.847,1.43
			c0.075,0.133,0.367,0.293,0.049,0.452c-0.231,0.116-0.493,0.252-0.695-0.093c-0.317-0.544-0.672-1.068-0.979-1.618
			c-0.121-0.22-0.273-0.413-0.408-0.622L93.387,71.307z"/>
		<path fill-rule="evenodd" clip-rule="evenodd" d="M31.021,43.114c0.327,0,0.656-0.004,0.983,0.002
			c0.134,0.002,0.269,0.016,0.398,0.047c0.095,0.023,0.173,0.104,0.175,0.207c0.004,0.143-0.124,0.107-0.207,0.13
			c-0.176,0.047-0.468-0.091-0.506,0.103c-0.028,0.146,0.167,0.368,0.358,0.485c0.063,0.039,0.138,0.093,0.163,0.157
			c0.067,0.177,0.387,0.335,0.26,0.453c-0.16,0.149-0.486,0.157-0.7-0.015c-0.222-0.179-0.429-0.39-0.603-0.616
			c-0.295-0.386-0.647-0.583-1.141-0.483c-0.093,0.019-0.192,0-0.288,0.005c-0.208,0.011-0.376-0.109-0.37-0.284
			c0.008-0.199,0.239-0.144,0.377-0.149c0.367-0.014,0.733-0.005,1.1-0.005C31.021,43.139,31.021,43.126,31.021,43.114z"/>
		<path fill-rule="evenodd" clip-rule="evenodd" d="M28.311,43.201c0.382-0.094,0.679,0.096,0.942,0.427
			c0.251,0.315,0.548,0.594,0.823,0.891c0.185,0.202,0.109,0.307-0.135,0.328c-0.544,0.048-1.067,0.095-1.424-0.484
			c-0.175-0.287-0.477-0.497-0.712-0.75c-0.088-0.095-0.225-0.205-0.157-0.344c0.054-0.106,0.209-0.061,0.322-0.065
			C28.067,43.198,28.164,43.201,28.311,43.201z"/>
		<path fill-rule="evenodd" clip-rule="evenodd" d="M34.683,44.715c-0.191,0.014-0.342,0.027-0.439-0.075
			c-0.396-0.416-0.785-0.839-1.167-1.269c-0.117-0.132-0.101-0.254,0.111-0.257c0.885-0.012,1.769-0.022,2.653-0.028
			c0.116,0,0.254,0.032,0.242,0.181c-0.01,0.121-0.144,0.096-0.233,0.099c-0.423,0.01-0.846,0.014-1.269,0.026
			c-0.11,0.003-0.258-0.043-0.318,0.069c-0.071,0.135,0.09,0.185,0.161,0.263c0.181,0.2,0.366,0.395,0.544,0.596
			c0.073,0.082,0.193,0.169,0.141,0.288c-0.05,0.117-0.195,0.097-0.308,0.105C34.743,44.717,34.686,44.715,34.683,44.715z"/>
		<path fill-rule="evenodd" clip-rule="evenodd" d="M93.379,71.297c0.01,0.097,0.064,0.226,0.021,0.281
			c-0.26,0.337-0.032,0.591,0.127,0.852c0.22,0.359,0.462,0.704,0.681,1.062c0.087,0.141,0.216,0.33-0.008,0.445
			c-0.165,0.084-0.365,0.104-0.499-0.119c-0.294-0.491-0.616-0.967-0.899-1.466c-0.114-0.201-0.222-0.355-0.468-0.357l0.012,0.011
			c-0.004-0.137-0.057-0.253-0.138-0.362c-0.048-0.062-0.042-0.133,0.024-0.197c0.159-0.155,0.912-0.25,1.154-0.14L93.379,71.297z"
			/>
		<path fill-rule="evenodd" clip-rule="evenodd" d="M51.601,42.741c0.392-0.076,0.687,0.083,0.94,0.397
			c0.241,0.299,0.521,0.566,0.785,0.848c0.193,0.208,0.117,0.285-0.135,0.307c-0.555,0.05-1.066,0.046-1.408-0.523
			c-0.154-0.258-0.418-0.449-0.618-0.682c-0.068-0.079-0.202-0.168-0.133-0.287c0.031-0.053,0.173-0.048,0.267-0.057
			C51.395,42.733,51.492,42.741,51.601,42.741z"/>
		<path fill-rule="evenodd" clip-rule="evenodd" d="M104.86,59.815c-0.154,0.344-0.418,0.448-0.68,0.209
			c-0.713-0.65-1.401-1.327-2.099-1.996c-0.066-0.063-0.159-0.171-0.067-0.243c0.15-0.116,0.336-0.203,0.528-0.069
			c0.347,0.24,0.599,0.589,0.925,0.849c0.278,0.221,0.435,0.59,0.821,0.677l-0.01-0.008c0.043,0.042,0.086,0.084,0.128,0.127
			l-0.011-0.011c0.012,0.15,0.091,0.234,0.243,0.243l-0.012-0.011c0.012,0.073,0.068,0.101,0.127,0.128l-0.013-0.011
			c0.043,0.042,0.086,0.085,0.129,0.127L104.86,59.815z"/>
		<path fill-rule="evenodd" clip-rule="evenodd" d="M92.334,71.995c0.143,0.553,0.545,0.96,0.805,1.447
			c0.073,0.136,0.159,0.264,0.231,0.398c0.069,0.127,0.099,0.259-0.07,0.336c-0.151,0.069-0.296,0.089-0.4-0.084
			c-0.451-0.733-0.906-1.465-1.355-2.201c-0.062-0.102-0.08-0.225,0.042-0.305c0.123-0.08,0.264-0.09,0.375,0.011
			c0.139,0.124,0.172,0.35,0.385,0.408L92.334,71.995z"/>
		<path fill-rule="evenodd" clip-rule="evenodd" d="M87.356,73.045c0.054-0.161-0.204-0.385,0.098-0.492
			c0.27-0.097,0.354,0.086,0.469,0.283c0.397,0.674,0.813,1.335,1.229,1.997c0.075,0.119,0.174,0.24,0.028,0.349
			c-0.146,0.109-0.327,0.149-0.441-0.057c-0.131-0.233-0.325-0.423-0.433-0.674c-0.082-0.189-0.165-0.395-0.378-0.487l0.01,0.012
			c-0.101-0.373-0.281-0.697-0.59-0.94L87.356,73.045z"/>
		<path fill-rule="evenodd" clip-rule="evenodd" d="M37.364,93.879c-0.08,0.628-0.171,1.41-0.771,2.061
			c-0.467,0.507-1.399,0.486-1.92,0.158c-0.629-0.395-1.034-0.97-1.364-1.601c-0.811-1.55-1.59-3.114-2.392-4.667
			c-1.155-2.24-2.327-4.471-3.476-6.714c-0.851-1.659-1.669-3.337-2.514-4.998c-0.652-1.285-1.329-2.559-1.984-3.843
			c-0.541-1.062-1.057-2.135-1.6-3.193c-0.701-1.368-1.424-2.725-2.126-4.093c-0.511-0.99-1.001-1.99-1.507-2.982
			c-0.858-1.68-1.724-3.355-2.584-5.034c-0.491-0.958-0.974-1.92-1.468-2.876c-0.573-1.109-1.155-2.214-1.732-3.321
			c-0.026-0.051-0.07-0.098-0.081-0.151c-0.015-0.067-0.089-0.146,0-0.204c0.016-0.009,0.096,0.057,0.125,0.101
			c0.199,0.305,0.395,0.613,0.588,0.922c0.662,1.06,1.308,2.129,1.986,3.179c0.823,1.277,1.668,2.538,2.51,3.802
			c0.819,1.231,1.646,2.457,2.468,3.686c0.876,1.309,1.756,2.613,2.625,3.929c0.837,1.267,1.654,2.545,2.495,3.81
			c0.851,1.279,1.728,2.541,2.579,3.819c0.83,1.25,1.644,2.509,2.458,3.767c0.699,1.081,1.387,2.167,2.082,3.251
			c0.862,1.343,1.685,2.71,2.506,4.078c0.713,1.186,1.409,2.382,2.052,3.606C36.866,91.415,37.349,92.485,37.364,93.879z"/>
		<path fill-rule="evenodd" clip-rule="evenodd" d="M10.583,50.191c-0.206-0.091-0.237-0.269-0.232-0.464l-0.007,0.005
			c0.151,0.119,0.197,0.289,0.23,0.466L10.583,50.191z"/>
		<path fill-rule="evenodd" clip-rule="evenodd" d="M10.574,50.198c0.109,0.005,0.146,0.088,0.177,0.17
			c0.014,0.037-0.022,0.065-0.056,0.044c-0.082-0.049-0.124-0.123-0.113-0.221L10.574,50.198z"/>
		<path fill-rule="evenodd" clip-rule="evenodd" d="M11.684,52.048c-0.02,0.039-0.045,0.039-0.074,0
			c-0.009-0.013-0.023-0.026-0.026-0.042c-0.009-0.043,0.015-0.062,0.051-0.037C11.659,51.986,11.669,52.022,11.684,52.048z"/>
	</g>
</g>
</svg>
