<?xml version="1.0" encoding="utf-8"?>
<!-- Generator: Adobe Illustrator 16.0.4, SVG Export Plug-In . SVG Version: 6.00 Build 0)  -->
<!DOCTYPE svg PUBLIC "-//W3C//DTD SVG 1.1//EN" "http://www.w3.org/Graphics/SVG/1.1/DTD/svg11.dtd">
<svg version="1.1" id="Layer_cocaine" xmlns="http://www.w3.org/2000/svg" xmlns:xlink="http://www.w3.org/1999/xlink" x="0px" y="0px"
	 width="128px" height="128px" viewBox="0 0 128 128" enable-background="new 0 0 128 128" xml:space="preserve">
<g>
	<path fill-rule="evenodd" clip-rule="evenodd" fill="#010101" d="M65.904,15.323c1.17,1.1,1.482,2.193,1.959,3.187
		c0.247,1.208-1.191,2.451,0.285,3.826c2.791-0.195,4.893-2.722,8.307-3.195c6.006,10.52,11.557,21.42,17.096,31.9
		c-1.502,3.628-6.276,2.834-7.144,6.307c0.872,1.257,2.181,0.861,3.107,1.83c0.537,0.923,1.546,1.971,0.865,3.856
		C69.704,73.991,48.803,85.067,28.085,96.046c-2.679-2.274-2.813-2.77-1.921-5.926c-0.1-0.187-0.181-0.446-0.349-0.621
		c-0.23-0.234-0.528-0.405-0.806-0.608c-2.799,0.761-4.907,3.271-8.369,3.048C11.046,81.417,5.436,70.859,0.01,60.655
		c0.138-1.804,1.15-2.279,2.16-2.797c1.448-0.742,2.861-1.553,4.293-2.323c1.033-0.553,1.667-1.229,0.865-2.406
		c-0.848-0.697-1.89-0.058-2.952-0.593c-0.911-0.794-1.548-1.933-1.596-3.973C23.63,37.425,44.665,26.186,65.904,15.323z
		 M66.313,41.493c-2.029-2.396-3.445-5.343-7.08-5.668c-1.622,3.273,0.03,6.132,0.694,9.032c-2.422,1.398-4.665,2.792-7.042,3.772
		c-7.474-2.551-12.29,0.046-15.218,8.182c-2.354,1.229-4.769,2.491-7.218,3.77c-2.149-2.096-3.538-4.987-6.873-5.741
		c-2.67,3.205,0.218,6.243,0.137,9.348c-1.997,1.047-3.949,2.071-5.927,3.109c-1.13-0.869-1.594-2.44-3.192-2.473
		c-0.751,3.773,2.937,10.792,6.484,12.358c1.109-1.36-0.634-2.791,0.15-4.281c1.838-0.953,3.654-2.229,5.797-2.772
		c2.192,2.102,3.497,5.093,6.996,5.768c2.338-3.281-0.072-6.354-0.419-9.605c2.218-1.143,4.407-2.271,6.516-3.356
		c6.93,4.626,16.478,0.83,16.873-8.894c1.931-1.18,3.884-2.391,6.16-3.168c2.093,2.289,3.527,5.353,6.967,5.966
		c1.446-1.532,1.026-3.211,0.79-4.764c-0.241-1.58-0.789-3.113-1.219-4.726c1.062-0.641,1.961-1.315,2.963-1.755
		c1.067-0.468,1.97-1.387,3.189-1.337c1.094,0.706,1.504,2.216,3.019,2.26c0.665-4.033-3.449-11.482-6.603-12.075
		c-0.64,1.263,0.265,2.49,0.143,3.777C70.514,39.428,68.595,40.517,66.313,41.493z"/>
	<path fill-rule="evenodd" clip-rule="evenodd" fill="#010101" d="M118.609,106.095c3.567,0.501,7.17,0.938,9.178,4.378
		c-0.065,0.301-0.132,0.601-0.197,0.901c-24.366,0-48.735,0.001-73.103-0.004c-0.829,0-1.484-0.353-1.893-1.093
		c1.144-2.353,3.336-3.693,8.141-4.989c4.341-9.755,8.514-12.227,19.11-11.327c3.256-5.433,7.238-7.356,13.03-6.101
		c5.126,1.108,9.37,4.28,9.647,10.713C109.697,97.133,114.897,100.08,118.609,106.095z"/>
	<path fill-rule="evenodd" clip-rule="evenodd" fill="#010101" d="M116.116,89.199c2.415,0.007,4.412,1.982,4.393,4.347
		c-0.022,2.418-2.036,4.401-4.411,4.347c-2.398-0.056-4.314-2.062-4.308-4.506C111.794,91.241,113.911,89.196,116.116,89.199z"/>
	<path fill-rule="evenodd" clip-rule="evenodd" fill="#010101" d="M120.466,99.963c0.318-1.556,1.235-2.272,2.753-1.961
		c1.06,0.217,1.501,1.027,1.478,2.091c-0.026,1.101-0.639,1.806-1.652,1.971C121.458,102.32,120.721,101.379,120.466,99.963z"/>
</g>
</svg>
