<?xml version="1.0" encoding="utf-8"?>
<!-- Generator: Adobe Illustrator 16.0.4, SVG Export Plug-In . SVG Version: 6.00 Build 0)  -->
<!DOCTYPE svg PUBLIC "-//W3C//DTD SVG 1.1//EN" "http://www.w3.org/Graphics/SVG/1.1/DTD/svg11.dtd">
<svg version="1.1" id="Layer_marijuana" xmlns="http://www.w3.org/2000/svg" xmlns:xlink="http://www.w3.org/1999/xlink" x="0px" y="0px"
	 width="128px" height="128px" viewBox="0 0 128 128" enable-background="new 0 0 128 128" xml:space="preserve">
<path fill-rule="evenodd" clip-rule="evenodd" fill="#010101" d="M3.524,89.037c11.892-4.729,23.098-7.584,35.666-8.521
	C23.962,69.133,13.005,55.308,4.124,39.608c17.869,6.231,34.574,14.375,48.822,28.453C48.821,43.819,55.21,22.158,63.303,0.422
	c5.319,8.795,16.781,44.293,10.908,68.886c7.27-7.863,15.153-13.517,23.665-18.262c8.457-4.715,17.22-8.8,26.6-11.717
	c-9.262,15.648-20.065,29.875-35.544,41.188c12.305,1.107,23.413,3.836,34.808,8.492c-12.412,5.385-24.693,8.182-38.023,8.523
	c3.243,4.184,6.874,7.357,9.363,11.512c-7.036,0.908-20.33-5.613-28.177-13.729c-1.604,4.936,0.837,16.49,6.17,29.137
	c-0.929,1.529-2.514,2.186-4.462,3.125c-5.807-9.832-6.095-20.719-6.428-32.619c-7.694,9.09-17.508,12.404-28.834,14.934
	c2.843-4.953,6.329-8.279,9.958-12.42C29.336,97.525,16.722,94.488,3.524,89.037z"/>
</svg>
