<?xml version="1.0" encoding="utf-8"?>
<!-- Generator: Adobe Illustrator 16.0.4, SVG Export Plug-In . SVG Version: 6.00 Build 0)  -->
<!DOCTYPE svg PUBLIC "-//W3C//DTD SVG 1.1//EN" "http://www.w3.org/Graphics/SVG/1.1/DTD/svg11.dtd">
<svg version="1.1" id="Layer_opium" xmlns="http://www.w3.org/2000/svg" xmlns:xlink="http://www.w3.org/1999/xlink" x="0px" y="0px"
	 width="128px" height="128px" viewBox="0 0 128 128" enable-background="new 0 0 128 128" xml:space="preserve">
<rect x="64.214" y="-2.68" fill-rule="evenodd" clip-rule="evenodd" width="0.18" height="0.359"/>
<g>
	<g id="J1wGrB.tif">
		<g>
			<path fill-rule="evenodd" clip-rule="evenodd" d="M64.03,110.983c-2.4,0-4.804-0.08-7.198,0.03
				c-1.596,0.072-2.461-0.657-3.217-1.949c-1.914-3.273-1.776-6.303,0.706-9.226c1.869-2.199,2.727-4.637,1.625-7.518
				c-0.666-1.736-1.818-3.007-3.379-3.96c-2.145-1.311-4.426-2.322-6.824-3.053c-6.037-1.838-10.169-5.882-13.271-11.208
				c-3.573-6.137-5.053-12.756-4.583-19.79c0.485-7.257,2.25-14.197,6.077-20.455c2.018-3.298,4.484-6.26,7.766-8.457
				c0.93-0.623,1.758-1.069,2.868-0.521c0.973,0.481,2.043,0.334,3.082,0.332c11.057-0.013,22.113-0.034,33.17-0.059
				c0.73-0.001,1.588,0.199,2.164-0.108c1.912-1.019,3.133,0.067,4.436,1.151c5.922,4.927,9.377,11.309,11.234,18.692
				c1.361,5.421,1.918,10.951,1.193,16.438c-1.143,8.647-4.682,16.159-12.018,21.432c-1.891,1.36-4.102,2.019-6.256,2.791
				c-1.865,0.668-3.699,1.396-5.43,2.374c-5.133,2.898-5.568,7.98-2.705,11.608c0.58,0.732,1.098,1.527,1.549,2.348
				c1.377,2.513,0.48,6.954-1.703,8.614c-0.621,0.47-1.35,0.508-2.086,0.491c-0.105-0.002-0.209-0.005-0.314-0.005
				c-2.295,0-4.59,0-6.884,0C64.03,110.979,64.03,110.982,64.03,110.983z"/>
			<path fill-rule="evenodd" clip-rule="evenodd" d="M64.021,127.396c-1.562,0-3.124-0.023-4.686,0.008
				c-1.279,0.025-1.959-0.521-1.956-1.834c0.005-1.978-0.008-9.018,0.022-10.996c0.018-1.137,0.62-1.661,1.785-1.651
				c3.228,0.028,6.455,0.03,9.684-0.003c1.184-0.012,1.697,0.47,1.678,1.66c-0.037,2.082-0.023,9.225-0.014,11.308
				c0.006,1.033-0.473,1.515-1.514,1.501c-1.668-0.021-3.334-0.005-4.999-0.005C64.021,127.386,64.021,127.391,64.021,127.396z"/>
		</g>
	</g>
	<g>
		<path fill="none" d="M49.679,10.914c-0.006-0.041-0.011-0.083-0.019-0.124c-0.025,0-0.049-0.006-0.074-0.007
			c0.008,0.019,0.015,0.037,0.023,0.056C49.632,10.865,49.656,10.889,49.679,10.914z"/>
		<path fill="none" d="M49.881,11.13c-0.067-0.072-0.135-0.144-0.202-0.216c0.008,0.046,0.017,0.09,0.038,0.128
			C49.742,11.089,49.825,11.102,49.881,11.13z"/>
		<path d="M84.23,16.391c-0.988-0.181-1.359-0.168-0.547-1.116c0.459-0.536,0.764-1.223,1.08-1.869
			c0.512-1.041,0.363-2.001-0.457-2.847c-0.867-0.895-1.873-1.269-3.105-0.908c-0.969,0.283-1.726,1.088-2.788,1.132
			c-0.006,0.019-0.014,0.037-0.022,0.056c-0.022,0.026-0.046,0.05-0.07,0.075c-0.008,0.046-0.017,0.09-0.037,0.128
			c-0.025,0.047-0.106,0.06-0.165,0.088c0.067-0.072,0.135-0.144,0.202-0.216c0.006-0.041,0.011-0.083,0.021-0.124
			c0.025,0,0.048-0.006,0.072-0.007c0.375-0.948,0.817-1.877,1.097-2.852c0.461-1.592,0.355-3.107-1.036-4.272
			c-1.263-1.056-2.961-1.156-4.667-0.203c-1.603,0.895-2.623,2.341-3.498,3.905c-0.126,0.226-0.188,0.612-0.564,0.49
			c-0.146-0.046-0.265-0.314-0.312-0.503c-0.155-0.603-0.215-1.235-0.413-1.823c-0.821-2.43-2.354-4.088-4.84-4.823V0.596
			c-0.014,0.002-0.024,0.002-0.037,0.005C64.092,0.615,64.048,0.633,64,0.647c-0.048-0.014-0.091-0.032-0.141-0.045
			c-0.012-0.003-0.024-0.003-0.035-0.005v0.106c-2.488,0.735-4.022,2.395-4.843,4.824c-0.198,0.587-0.257,1.22-0.412,1.823
			c-0.049,0.189-0.167,0.457-0.313,0.503c-0.375,0.122-0.438-0.265-0.564-0.49c-0.875-1.564-1.896-3.011-3.497-3.905
			c-1.707-0.953-3.405-0.854-4.666,0.203c-1.393,1.165-1.498,2.68-1.038,4.272c0.28,0.975,0.722,1.903,1.097,2.852
			c0.025,0.001,0.049,0.007,0.074,0.007c0.008,0.041,0.013,0.083,0.019,0.124c0.067,0.072,0.135,0.144,0.202,0.216
			c-0.057-0.028-0.139-0.041-0.164-0.088c-0.021-0.038-0.03-0.082-0.038-0.128c-0.023-0.025-0.047-0.049-0.07-0.075
			c-0.008-0.019-0.015-0.037-0.023-0.056c-1.062-0.044-1.819-0.849-2.788-1.132c-1.232-0.361-2.239,0.013-3.105,0.908
			c-0.82,0.846-0.97,1.807-0.457,2.847c0.318,0.646,0.62,1.333,1.079,1.869c0.813,0.948,0.443,0.935-0.546,1.116
			c-2.4,0.439-3.094,2.531-1.515,4.335c1.215,1.389,2.727,2.14,4.652,2.12c4.575-0.051,9.15-0.004,13.726,0
			c1.122,0.001,2.245-0.002,3.368-0.003c1.122,0.001,2.245,0.004,3.368,0.003c4.575-0.004,9.149-0.051,13.726,0
			c1.926,0.02,3.438-0.731,4.652-2.12C87.324,18.922,86.631,16.83,84.23,16.391z"/>
		<path d="M81.447,18.576c0.057-0.073,0.113-0.146,0.168-0.218c0.01-0.021,0.018-0.042,0.025-0.063
			c-0.025,0.004-0.049,0.011-0.076,0.014C81.525,18.397,81.488,18.487,81.447,18.576z"/>
	</g>
</g>
</svg>
