<?xml version="1.0" encoding="utf-8"?>
<!-- Generator: Adobe Illustrator 16.0.4, SVG Export Plug-In . SVG Version: 6.00 Build 0)  -->
<!DOCTYPE svg PUBLIC "-//W3C//DTD SVG 1.1//EN" "http://www.w3.org/Graphics/SVG/1.1/DTD/svg11.dtd">
<svg version="1.1" id="Layer_bird" xmlns="http://www.w3.org/2000/svg" xmlns:xlink="http://www.w3.org/1999/xlink" x="0px" y="0px"
	 width="128px" height="128px" viewBox="0 0 128 128" enable-background="new 0 0 128 128" xml:space="preserve">
<g>
	<path fill-rule="evenodd" clip-rule="evenodd" fill="#010101" d="M72.03,100.356c-14.352,0-28.702,0-43.051,0
		c-0.657,0-1.313,0.011-1.969-0.009c-0.139-0.005-0.272-0.125-0.408-0.191c0.085-0.116,0.167-0.234,0.257-0.348
		c1.159-1.47,2.954-2.219,4.145-3.653c0.141-0.175,0.426-0.379,0.397-0.517c-0.062-0.28-0.391-0.187-0.625-0.205
		c-2.311-0.181-4.622-0.392-6.923-0.593c-2.317-0.202-4.694-0.401-6.974-0.923c-3.778-0.87-7.688-1.418-11.12-3.417
		c-1.529-0.891-2.987-1.903-4.471-2.868c-0.123-0.08-0.202-0.229-0.301-0.344c0.132-0.074,0.265-0.21,0.399-0.213
		c1.23-0.017,2.461-0.01,3.69-0.01c3.196,0,6.396-0.002,9.595,0.003c0.24,0.001,0.463-0.026,0.494-0.302
		c0.005-0.048-0.259-0.121-0.39-0.194c-1.534-0.84-3.302-1.221-4.674-2.395c-0.203-0.173-0.587-0.087-0.835-0.357
		C8.657,83.16,8,82.538,7.364,81.9c0.821-0.541,1.738-0.227,2.598-0.229c11.071-0.026,22.14-0.036,33.21,0.015
		c1.003,0.005,1.501-0.28,1.987-1.12c0.702-1.204,1.579-2.31,2.414-3.433c0.808-1.084,2.177-1.693,2.619-3.1
		c0.078-0.248,0.46-0.16,0.604-0.275c0.628-0.508,1.552-1.021,1.672-1.666c0.096-0.504-1.097-0.942-1.592-1.431
		c-1.266-1.248-2.766-2.188-4.04-3.409c-0.559-0.538-0.985-1.224-1.863-1.44c-0.409-0.103-0.738-0.627-1.046-1.009
		c-0.47-0.579-0.499-1.634-0.038-2.188c0.418-0.501,0.838-1.114,1.398-1.363c1.239-0.551,2.027-1.569,2.896-2.486
		c2.119-2.235,4.711-3.942,6.803-6.218c0.708-0.77,1.064-1.773,1.874-2.441c0.107-0.088,0.216-0.273,0.2-0.399
		c-0.246-2.059,0.145-4.1-0.359-6.223c-0.518-2.189-1.314-4.228-2.125-6.275c-0.305-0.765-0.696-1.594-1.465-2.106
		c-0.173-0.114-0.414-0.371-0.381-0.505c0.069-0.289,0.398-0.183,0.63-0.193c0.246-0.007,0.497-0.03,0.737,0.005
		c0.632,0.095,1.361-0.29,1.889,0.171c0.772,0.673,1.764,1.343,1.878,2.393c0.14,1.277,1.253,2.158,1.189,3.464
		c-0.005,0.112,0.164,0.229,0.251,0.345c0.077-0.134,0.217-0.264,0.217-0.398c0.012-3.28-0.005-6.558,0.028-9.839
		c0.005-0.485-0.677-0.656-0.485-1.012c0.428-0.792-1.141-1.438-0.292-1.857c0.529-0.262,1.627,0.231,2.271,0.674
		c0.916,0.633,1.463,1.608,1.448,2.819c-0.023,2.05-0.005,4.101-0.009,6.149c0,0.241,0.024,0.479,0.322,0.437
		c0.13-0.02,0.295-0.196,0.34-0.335c0.669-2.026,2.01-3.858,1.809-6.144c-0.022-0.224,0-0.59,0.126-0.659
		c0.383-0.215,0.483,0.251,0.674,0.43c1.418,1.327,2,2.67,1.263,4.797c-0.697,2.019-1.579,3.955-2.376,5.913
		c-0.937,2.308-1.862,4.643-3.106,6.836c-0.851,1.501-1.674,2.978-2.914,4.204c-2.275,2.245-4.502,4.542-6.796,6.77
		c-1.146,1.108-2.113,2.401-3.599,3.173c-0.839,0.437-0.612,0.934,0.152,1.71c1.073,1.091,2.388,1.858,3.489,2.896
		c0.748,0.704,1.468,1.412,2.389,1.94c1.296,0.746,1.354,0.795,2.404-0.241c0.535-0.528,0.613-1.043-0.046-1.35
		c-1.211-0.563-1.969-1.611-2.92-2.454c-0.347-0.306-0.559-0.76-1.133-0.835c-0.648-0.085-0.384-0.921-0.853-1.27
		c-0.167-0.124,1.037-1.593,1.433-1.658c3.033-0.49,5.9-1.588,8.809-2.503c1.505-0.474,2.965-1.214,4.3-2.064
		c1.212-0.772,1.656-2.189,2.15-3.509c0.695-1.858,1.249-3.747,0.951-5.742c-0.142-0.947,0.645-1.594,0.535-2.508
		c-0.092-0.81-0.018-1.637-0.018-2.456c0-0.412-0.113-0.866,0.027-1.221c0.196-0.503-0.814-0.746-0.241-1.141
		c0.487-0.334,0.855,0.314,1.233,0.509c1.267,0.648,1.864,1.749,1.969,3.235c0.115,1.628-0.42,3.14-0.522,4.718
		c-0.02,0.304-0.108,0.695,0.265,0.819c0.104,0.035,0.362-0.297,0.508-0.492c1.424-1.921,3.163-3.682,3.167-6.317
		c0-0.144,0.092-0.287,0.14-0.429c0.118,0.051,0.259,0.072,0.348,0.156c0.811,0.772,1.545,1.596,1.472,2.828
		c-0.061,1.009,0.073,1.935-0.729,2.918c-1.687,2.057-3.013,4.406-4.921,6.305c-0.083,0.083-0.104,0.228-0.153,0.345
		c0.143,0.049,0.352,0.185,0.42,0.134c1.488-1.096,3.669-0.919,4.825-2.622c0.045-0.068,0.124-0.111,0.17-0.177
		c0.12-0.167,0.364-0.122,0.327,0.057c-0.141,0.647,0.846,0.909,0.54,1.498c-0.69,1.339-1.147,2.657-2.949,3.322
		c-2.834,1.05-5.726,1.975-8.521,3.173c-3.062,1.315-6.342,2.112-9.529,3.125c-0.782,0.248-0.843,0.475-0.301,1.088
		c0.798,0.906,2.053,1.23,2.777,2.244c0.197,0.276,0.524,0.032,0.828-0.111c2.564-1.192,5.307-1.874,8.024-2.585
		c1.035-0.272,2.132-0.476,3.194-0.59c1.813-0.192,3.65,0.083,5.459-0.506c1.501-0.488,2.956,0.487,4.46,0.451
		c1.438-0.037,2.724,0.537,4.08,0.845c3.327,0.761,6.349,2.147,9.137,4.084c0.184,0.129,0.488,0.137,0.605,0.298
		c0.584,0.799,1.555,1.086,2.242,1.731c0.867,0.817,1.658,1.694,2.744,2.281c1.162,0.626,1.475,2.05,2.429,2.923
		c0.622,0.567,0.95,0.852,1.761,0.132c1.34-1.187,3.171-1.587,4.85-1.85c1.153-0.179,2.276-1.021,3.462-0.563
		c1.517,0.584,3.223,0.409,4.652,1.235c0.557,0.32,1.009,0.362,1.515-0.073c1.47-1.268,3.385-1.798,4.93-2.95
		c0.428-0.32,1.039-0.363,1.359-0.878c0.191-0.308,0.514-0.428,0.829-0.263c0.358,0.19,0.14,0.591,0.222,0.886
		c0.21,0.771-0.42,1.308-0.56,1.999c-0.382,1.872-0.623,3.776-1.276,5.606c-0.355,0.995-0.26,2.114,0.32,3.202
		c1.487,2.793,1.358,5.791,0.457,8.696c-0.645,2.075-1.758,3.97-3.433,5.469c-0.792,0.71-1.553,1.466-2.258,2.259
		c-1.185,1.332-2.549,1.912-4.403,1.897c-9.922-0.086-19.845-0.04-29.768-0.04C81.377,100.356,76.704,100.356,72.03,100.356z"/>
</g>
</svg>
