<?xml version="1.0" encoding="utf-8"?>
<!-- Generator: Adobe Illustrator 16.0.4, SVG Export Plug-In . SVG Version: 6.00 Build 0)  -->
<!DOCTYPE svg PUBLIC "-//W3C//DTD SVG 1.1//EN" "http://www.w3.org/Graphics/SVG/1.1/DTD/svg11.dtd">
<svg version="1.1" id="Layer_egg01" xmlns="http://www.w3.org/2000/svg" xmlns:xlink="http://www.w3.org/1999/xlink" x="0px" y="0px"
	 width="128px" height="128px" viewBox="0 0 128 128" enable-background="new 0 0 128 128" xml:space="preserve">
<g>
	<path fill="#010101" d="M97.145,45.743c-0.472-4.46-1.581-8.796-2.883-13.075c-1.007-3.309-2.464-6.451-3.986-9.553
		c-1.489-3.031-3.229-5.912-5.212-8.65c-2.508-3.461-5.294-6.638-8.75-9.209c-3.062-2.278-6.335-4.017-10.149-4.622
		c-2.647-0.42-5.275-0.342-7.848,0.413c-2.4,0.707-4.625,1.79-6.714,3.198c-3.233,2.176-5.94,4.868-8.278,7.958
		c-1.375,1.818-2.616,3.725-3.781,5.685c-1.065,1.793-1.998,3.655-2.917,5.524c-1.11,2.257-1.843,4.666-2.729,7.012
		c-0.935,2.481-1.458,5.082-2.037,7.65C31,41.89,30.598,45.778,30.603,49.711c0.003,4.56,0.477,9.041,1.703,13.44
		c1.166,4.186,3.041,8.021,5.552,11.555c0.268,0.376,0.445,0.679-0.048,1.006c-0.11,0.071-0.16,0.251-0.208,0.391
		c-0.323,0.917,0.057,1.574,0.776,2.113c0.093,0.071,0.253,0.146,0.197,0.288c-0.032,0.083-0.15-0.001-0.228-0.028
		c-0.179-0.062-0.406-0.192-0.521,0.024c-0.127,0.247,0.126,0.381,0.293,0.504c0.652,0.494,1.447,0.703,2.21,0.812
		c0.667,0.098,0.769,0.51,0.84,0.947c0.046,0.279,0.116,0.405,0.358,0.513c0.334,0.146,0.652,0.325,0.963,0.515
		c0.124,0.077,0.235,0.212,0.161,0.383c-0.079,0.174-0.242,0.157-0.392,0.118c-0.144-0.038-0.282-0.105-0.427-0.142
		c-0.891-0.217-1.739-0.636-2.694-0.558c-0.229,0.019-0.554,0.016-0.557-0.288c-0.003-0.347,0.333-0.357,0.586-0.326
		c0.408,0.049,0.811,0.099,1.223,0.071c0.145-0.011,0.345,0,0.386-0.165c0.056-0.213-0.149-0.292-0.303-0.353
		c-1.734-0.676-4.592-0.327-5.448,1.956c-0.467,1.241-0.524,2.357,0.253,3.473c0.448,0.646,1.135,0.904,1.842,0.646
		c0.152-0.055,0.339-0.157,0.243-0.304c-0.322-0.487,0.067-0.864,0.162-1.276c0.115-0.506,0.316-0.546,0.689-0.19
		c0.16,0.152,0.275,0.327,0.297,0.555c0.011,0.101-0.013,0.243,0.118,0.268c0.146,0.027,0.234-0.101,0.286-0.215
		c0.052-0.113,0.063-0.247,0.099-0.369c0.027-0.087-0.052-0.232,0.098-0.243c0.03-0.002,0.099,0.18,0.104,0.276
		c0.006,0.126-0.029,0.255-0.059,0.381c-0.137,0.585-0.453,1.06-0.908,1.447c-0.094,0.081-0.219,0.165-0.143,0.32
		c0.053,0.108,0.176,0.147,0.276,0.13c0.768-0.133,1.563-0.112,2.261-0.598c0.737-0.516,1.208-1.273,1.841-1.882
		c0.22-0.213,0.413-0.385,0.711-0.14c0.115,0.094,0.269,0.215,0.381,0.029c0.096-0.156-0.052-0.274-0.156-0.382
		c-0.157-0.164-0.35-0.24-0.576-0.252c-0.355-0.02-0.651-0.204-0.951-0.372c-0.217-0.119-0.327-0.293-0.179-0.529
		c0.131-0.212,0.306-0.234,0.554-0.162c0.763,0.216,1.289,0.841,2.002,1.14c0.23,0.096,0.187,0.364,0.024,0.487
		c-0.475,0.365-0.299,0.659,0.03,0.994c0.223,0.229,0.413,0.495,0.597,0.758c0.251,0.359,0.511,0.478,0.795,0.053
		c0.151-0.225,0.279-0.205,0.532-0.129c0.764,0.23,0.714,0.997,1.059,1.495c0.021,0.033-0.028,0.113-0.043,0.171
		c-0.058-0.018-0.138-0.017-0.169-0.055c-0.396-0.469-0.771-0.514-1.323-0.152c-0.597,0.39-0.683,0.433-0.329,1.057
		c0.359,0.635,0.643,1.308,0.959,1.958c0.277,0.574,0.505,1.328,1.3,1.519c0.112,0.026,0.164,0.135,0.16,0.254
		c-0.001,0.151-0.089,0.244-0.231,0.262c-0.277,0.033-0.557,0.044-0.836,0.072c-0.293,0.026-0.521,0.153-0.466,0.482
		c0.078,0.459-0.058,0.9-0.052,1.349c0.026,2.167-0.495,4.204-1.466,6.128c-0.4,0.796-0.807,1.59-1.309,2.332
		c-0.181,0.268-0.45,0.538-0.735,0.32c-0.439-0.336-0.828-0.186-1.263-0.076c-0.64,0.161-0.778,0.006-0.607-0.629
		c0.033-0.125,0.082-0.246,0.134-0.361c0.08-0.166,0.291-0.316,0.104-0.513c-0.277-0.292-0.644-0.167-0.979-0.16
		c-0.194,0.005-0.294,0.102-0.319,0.319c-0.088,0.752-0.584,1.158-1.262,1.368c-0.982,0.304-1.082,0.442-0.973,1.464
		c0.052,0.494,0.284,0.902,0.615,1.251c0.488,0.513,1.014,0.991,1.493,1.513c0.272,0.296,0.573,0.415,0.966,0.41
		c0.536-0.006,1.077-0.005,1.608,0.055c0.477,0.053,0.636,0.455,0.368,0.851c-0.236,0.349-0.518,0.535-0.979,0.338
		c-0.493-0.213-1.07-0.459-1.524-0.03c-0.584,0.552-1.219,1.084-1.456,1.926c-0.406,1.449-0.426,2.884,0.101,4.301
		c0.212,0.576,0.277,1.22,0.76,1.685c0.542,0.521,0.806,0.481,1.072-0.206c0.151-0.391,0.353-0.466,0.652-0.146
		c0.206,0.22,0.391,0.462,0.721,0.505c0.218,0.029,0.458,0.07,0.431,0.368c-0.023,0.268-0.216,0.42-0.46,0.479
		c-0.185,0.044-0.385,0.029-0.575,0.056c-0.316,0.046-0.819-0.152-0.873,0.298c-0.062,0.532,0.515,0.456,0.851,0.579
		c0.118,0.044,0.256,0.038,0.381,0.05c1.247,0.13,2.49,0.166,3.718-0.146c0.317-0.08,0.903-0.009,0.864-0.323
		c-0.044-0.357-0.615-0.193-0.958-0.242c-0.2-0.028-0.463,0.14-0.589-0.099c-0.13-0.246,0.099-0.434,0.221-0.63
		c0.294-0.482,0.524-0.987,0.467-1.575c-0.041-0.42-0.192-0.655-0.672-0.45c-0.335,0.143-0.702,0.203-1.07,0.203
		c-0.395-0.002-0.587-0.238-0.584-0.62c0.002-0.229,0.076-0.401,0.353-0.215c0.13,0.088,0.237,0.31,0.428,0.142
		c0.139-0.122,0.105-0.319,0.1-0.49c-0.012-0.319-0.188-0.525-0.476-0.625c-0.405-0.142-0.818-0.261-1.226-0.392
		c-0.327-0.104-0.541-0.289-0.413-0.666c0.408-1.183,0.667-1.361,1.955-1.357c0.064,0,0.129,0.003,0.192,0.002
		c0.774-0.01,1.255-0.354,1.502-1.077c0.175-0.511,0.105-0.952-0.13-1.472c-0.628-1.382-1.173-1.588,0.419-2.873
		c1.084-0.876,2.026-1.911,2.724-3.154c0.539-0.957,0.936-1.976,1.428-2.952c0.241-0.479,0.517-0.923,0.559-1.486
		c0.012-0.162,0.785-0.226,1.696-0.236c3.345,0.481,7.792,1.01,11.453,1.049c-0.255,0.479-0.174,0.988-0.178,1.494
		c0,0.197-0.106,0.497,0.198,0.528c0.296,0.032,0.272-0.269,0.308-0.472c0.036-0.217,0.071-0.465,0.339-0.479
		c0.284-0.018,0.429,0.203,0.444,0.46c0.051,0.764,0.133,1.543-0.315,2.234c-0.184,0.281-0.255,0.504,0.106,0.677
		c0.437,0.209,0.463,0.663,0.286,0.937c-0.474,0.728-0.264,1.547-0.44,2.307c-0.084,0.359-0.002,0.681,0.409,0.834
		c0.45,0.167,0.331,0.411,0.07,0.673c-0.157,0.158-0.325,0.258-0.559,0.274c-0.331,0.023-0.655,0.174-0.534,0.547
		c0.121,0.375,0.455,0.184,0.716,0.094c0.166-0.059,0.313-0.285,0.51-0.066c0.15,0.168,0.104,0.363,0.036,0.548
		c-0.058,0.161-0.118,0.323-0.198,0.476c-0.155,0.298-0.288,0.443-0.496,0.005c-0.175-0.37-0.553-0.356-0.706,0.021
		c-0.375,0.926-0.713,1.931-0.354,2.882c0.322,0.848,0.68,1.839,1.85,1.961c0.265,0.026,0.312,0.157,0.24,0.399
		c-0.126,0.432-0.232,0.867-0.337,1.306c-0.043,0.187-0.092,0.396,0.109,0.525c0.169,0.106,0.273-0.042,0.385-0.141
		c0.077-0.07,0.152-0.181,0.271-0.128c0.153,0.068,0.104,0.219,0.08,0.339c-0.061,0.294-0.007,0.716-0.552,0.498
		c-0.17-0.067-0.271,0.076-0.354,0.21c-0.128,0.205-0.203,0.427-0.239,0.664c-0.02,0.102-0.015,0.241-0.141,0.264
		c-0.139,0.024-0.133-0.134-0.187-0.215c-0.231-0.347-0.431-0.25-0.539,0.074c-0.112,0.323-0.217,0.667-0.219,1.003
		c-0.006,0.308-0.077,0.74,0.43,0.789c0.173,0.017,0.384-0.046,0.335,0.229c-0.03,0.182-0.165,0.314-0.377,0.236
		c-0.27-0.103-0.482,0.027-0.473,0.259c0.016,0.466-0.237,0.854-0.278,1.306c-0.063,0.708-0.05,1.42-0.13,2.12
		c-0.058,0.51-0.063,0.916,0.376,1.262c0.201,0.157,0.235,0.369-0.102,0.46c-0.121,0.032-0.351-0.156-0.346,0.106
		c0.004,0.151,0.233,0.159,0.376,0.189c1.269,0.258,2.546,0.409,3.844,0.292c0.404-0.038,0.866-0.054,0.745-0.692
		c-0.023-0.133,0.103-0.229,0.209-0.305c0.334-0.23,0.365-0.541,0.293-0.913c-0.054-0.271-0.054-0.554-0.049-0.831
		c0.005-0.858,0.182-1.748,0.008-2.564c-0.25-1.182-0.356-2.452-1.414-3.351c-0.542-0.46-0.56-2.231-0.174-2.869
		c0.033-0.055,0.062-0.14,0.108-0.152c0.668-0.185,0.784-0.772,1.092-1.282c0.395-0.654,0.678-1.321,0.9-2.035
		c0.208-0.671,0.082-0.91-0.639-0.922c-0.591-0.012-0.874-0.264-0.898-0.836c-0.012-0.254-0.104-0.432-0.339-0.576
		c-0.399-0.245-0.396-0.484,0.039-0.641c0.469-0.17,0.254-0.332,0.065-0.529c-0.104-0.107-0.235-0.192-0.325-0.311
		c-0.145-0.191-0.157-0.413,0.148-0.383c0.598,0.062,0.385-0.238,0.297-0.539c-0.077-0.271-0.488-0.483-0.341-0.717
		c0.228-0.356,0.051-0.658,0.049-0.98c-0.003-0.303-0.042-0.59,0.305-0.775c0.252-0.135,0.208-0.401,0.113-0.633
		c-0.072-0.178-0.145-0.349-0.187-0.543c-0.331-1.557-0.236-3.137-0.283-4.709c0.136-0.008,0.271-0.018,0.409-0.027
		c0.003,0.045,0.005,0.089,0.008,0.133c0.036,0.619-0.095,1.248,0.082,1.858c0.051,0.176,0.136,0.415,0.375,0.372
		c0.206-0.038,0.182-0.27,0.182-0.435c-0.002-0.559-0.028-1.116-0.024-1.674c0.003-0.101,0.015-0.208,0.047-0.302
		c3.895-0.29,7.999-0.823,10.553-1.184c0.044-0.002,0.088-0.008,0.126-0.019c0.437-0.062,0.823-0.118,1.155-0.168
		c0.012,0.054,0.028,0.103,0.056,0.147c0.455,0.762,0.636,1.637,1.021,2.427c0.573,1.174,1.084,2.377,1.852,3.454
		c0.724,1.014,1.6,1.84,2.614,2.547c0.794,0.554,1.336,1.255,1.184,2.312c-0.037,0.273-0.01,0.558-0.008,0.837
		c0.005,0.237,0.078,0.509-0.346,0.347c-0.193-0.076-0.262,0.118-0.254,0.274c0.017,0.44,0.089,0.926,0.493,1.133
		c0.658,0.333,1.331,0.737,2.133,0.551c0.308-0.072,0.552-0.001,0.733,0.262c0.566,0.828,0.453,1.179-0.465,1.558
		c-0.283,0.116-0.566,0.179-0.871,0.207c-0.254,0.022-0.506,0.097-0.748,0.175c-0.193,0.063-0.342,0.205-0.354,0.422
		c-0.015,0.263,0.206,0.291,0.39,0.346c0.334,0.1,0.644,0.238,0.93,0.441c0.203,0.148,0.36,0.312,0.288,0.59
		c-0.085,0.318-0.347,0.336-0.612,0.355c-0.376,0.028-0.656-0.162-0.939-0.364c-0.133-0.096-0.254-0.269-0.45-0.162
		c-0.198,0.109-0.198,0.319-0.182,0.514c0.041,0.5,0.155,0.974,0.499,1.37c0.121,0.142,0.285,0.3,0.177,0.512
		c-0.104,0.204-0.303,0.105-0.465,0.087c-0.399-0.048-0.761,0.103-1.128,0.219c-0.119,0.037-0.274,0.064-0.24,0.24
		c0.024,0.124,0.157,0.124,0.262,0.144c0.378,0.075,0.765,0.126,1.138,0.225c1.208,0.32,2.428,0.235,3.643,0.076
		c0.501-0.064,0.867-0.338,1.007-0.868c0.095-0.359,0.065-0.562-0.382-0.588c-0.494-0.03-0.998-0.108-1.329-0.549
		c-0.114-0.151-0.271-0.351-0.141-0.522c0.152-0.201,0.344-0.024,0.514,0.062c0.423,0.217,0.562,0.133,0.583-0.334
		c0.031-0.637-0.411-0.733-0.884-0.77c-0.237-0.02-0.426-0.055-0.483-0.319c-0.054-0.249,0.048-0.413,0.275-0.515
		c0.165-0.072,0.269-0.202,0.349-0.363c0.034-0.068,0.124-0.172,0.167-0.163c0.175,0.036,0.062,0.156,0.041,0.245
		c-0.099,0.357,0.18,0.499,0.395,0.66c0.157,0.117,0.278,0.019,0.363-0.134c0.062-0.12,0.056-0.349,0.276-0.269
		c0.208,0.074,0.261,0.274,0.237,0.481c-0.018,0.127-0.078,0.251-0.083,0.376c-0.017,0.34,0.478,0.891,0.857,0.937
		c0.477,0.059,0.542-0.335,0.646-0.653c0.068-0.201,0.059-0.429,0.131-0.628c0.566-1.604,0.397-3.177-0.195-4.724
		c-0.574-1.487-2.596-2.105-3.82-1.192c-0.159,0.12-0.312,0.293-0.477,0.046c-0.131-0.194-0.056-0.36,0.162-0.468
		c0.285-0.139,0.295-0.342,0.1-0.568c-0.085-0.095-0.221-0.187-0.07-0.312c0.123-0.104,0.242-0.038,0.329,0.076
		c0.106,0.137,0.264,0.213,0.388,0.091c0.413-0.413,0.938-0.478,1.474-0.563c0.267-0.041,0.525-0.217,0.506-0.502
		c-0.026-0.344-0.363-0.234-0.573-0.232c-1.152,0.019-2.075-0.485-3.007-1.121c-0.927-0.631-1.595-1.471-2.285-2.309
		c-0.266-0.323,0.046-0.645,0.172-0.938c0.09-0.21,0.283-0.12,0.434-0.007c0.218,0.168,0.452,0.311,0.665,0.02
		c0.187-0.254,0.155-0.525-0.051-0.77c-0.113-0.131-0.229-0.256-0.336-0.393c-0.188-0.244-0.414-0.398-0.717-0.219
		c-0.259,0.154-0.406,0.379-0.312,0.703c0.039,0.137,0.168,0.298,0.003,0.411c-0.187,0.13-0.375,0.016-0.537-0.088
		c-0.242-0.159-0.375-0.377-0.463-0.666c-0.21-0.713-0.375-1.445-0.726-2.11c-0.046-0.091-0.157-0.199-0.051-0.282
		c0.138-0.107,0.244,0.026,0.305,0.131c0.213,0.364,0.447,0.677,0.93,0.683c0.157,0.002,0.247,0.156,0.319,0.293
		c0.07,0.128,0.138,0.314,0.324,0.225c0.221-0.104,0.128-0.308,0.044-0.445c-0.422-0.685-0.566-1.48-0.891-2.206
		c-0.02-0.042-0.037-0.085-0.056-0.128l-0.589-2.874c-0.046-0.339-0.097-0.678-0.138-1.018c-0.015-0.112-0.036-0.224-0.082-0.314
		c-0.036-0.24-0.095-0.519-0.185-0.743c0.121-0.123,0.037-0.246-0.236-0.507c-0.163-0.157-0.211-0.262-0.129-0.493
		c0.303-0.84,0.676-1.646,1.062-2.45c0.361-0.749,0.185-1.019-0.65-0.999c-0.139,0.003-0.335,0.135-0.366-0.098
		c-0.051-0.382-0.3-0.592-0.563-0.822c-0.235-0.203-0.298-0.472,0.077-0.582c0.442-0.131,0.442-0.456,0.45-0.801
		c-0.005,0-0.01,0-0.01,0v-0.011c-0.193,0.087-0.341,0.442-0.457,0.351c-0.213-0.167,0.043-0.419,0.125-0.612
		c0.158-0.37,0.371-0.716,0.564-1.069c0.039-0.071,0.08-0.186,0.174-0.149c0.1,0.038,0.051,0.147,0.024,0.224
		c-0.143,0.419-0.288,0.838-0.431,1.257l0.01-0.004v0.015c0.317,0.062,0.591,0.159,0.774,0.482c0.203,0.361,0.438,0.285,0.601-0.067
		c0.312-0.683,0.634-1.358,1.14-1.93c0.095-0.104,0.216-0.305,0.175-0.388c-0.095-0.19-0.257,0.007-0.39,0.023
		c-0.172,0.021-0.298-0.033-0.383-0.178c-0.095-0.161-0.029-0.308,0.104-0.394c0.297-0.195,0.518-0.528,0.934-0.522
		c0.204,0.004,0.395-0.065,0.479-0.266c0.146-0.345,0.443-0.352,0.746-0.398c0.283-0.044,0.537-0.039,0.624,0.279
		c0.102,0.358-0.146,0.503-0.443,0.58c-0.292,0.076-0.593,0.129-0.835,0.321c-0.179,0.141-0.3,0.333,0.027,0.402
		c0.513,0.108,0.694,0.477,0.794,0.911c0.14,0.608,0.529,1.041,1.021,1.355c0.837,0.535,1.735,0.763,2.662,0.178
		c0.283-0.178,0.869-0.172,0.83-0.473c-0.051-0.4-0.596-0.258-0.937-0.318c-0.021-0.004-0.044-0.002-0.065-0.008
		c-0.522-0.157-0.922-0.451-1.077-1.002c-0.034-0.115-0.099-0.273,0.044-0.344c0.108-0.052,0.172,0.091,0.252,0.158
		c0.522,0.455,1.079,0.682,1.752,0.291c0.247-0.145,0.518-0.176,0.801-0.037c0.584,0.285,0.656,0.246,0.813-0.357
		c0.032-0.124,0.046-0.258,0.106-0.365c0.702-1.288,0.99-2.449-0.271-3.688c-0.733-0.72-1.436-1.254-2.438-1.392
		c-0.17-0.024-0.339-0.061-0.506-0.103c-0.315-0.079-0.378-0.252-0.175-0.513c0.126-0.163,0.378-0.304,0.242-0.544
		c-0.177-0.317-0.002-0.489,0.157-0.732c0.393-0.606,0.787-1.329,0.312-1.974c-0.358-0.485-0.247-0.723,0.061-1.069
		c0.111-0.127,0.196-0.282,0.283-0.43c1.223-2.049,2.338-4.151,3.222-6.373c1.036-2.605,1.806-5.281,2.241-8.054
		c0.23-1.467,0.306-2.943,0.417-4.422C97.462,51.741,97.464,48.737,97.145,45.743z M44.554,83.704
		c-0.381-0.378-0.86-0.643-1.2-1.068c-0.087-0.111-0.135-0.223-0.033-0.345c0.059-0.07,0.14-0.092,0.233-0.068
		c0.083,0.021,1.16,1.357,1.16,1.475C44.697,83.823,44.604,83.755,44.554,83.704z M42.046,114.835
		c0.292-0.181,0.423,0.037,0.446,0.297c-0.006,0.108-0.862,1.03-0.938,1.026c-0.175-0.012-0.209-0.146-0.188-0.275
		C41.437,115.437,41.672,115.067,42.046,114.835z M47.485,91.279c-0.293-0.005-0.472-0.177-0.434-0.497
		c0.011-0.104,0.033-0.213,0.078-0.308c0.096-0.203-0.057-0.606,0.188-0.602c0.331,0.002,0.366,0.4,0.426,0.688
		c0.019,0.083,0.018,0.168,0.025,0.253C47.759,91.022,47.797,91.287,47.485,91.279z M62.506,95.289
		c-1.411,0.024-2.822-0.025-4.218-0.259c-0.104-0.018-0.249-0.008-0.271-0.119c-0.035-0.185,0.147-0.178,0.258-0.203
		c0.783-0.181,1.581-0.045,2.267-0.101c0.721,0,1.341-0.006,1.962,0.004c0.26,0.005,0.559,0.034,0.544,0.39
		C63.034,95.351,62.726,95.284,62.506,95.289z M64.038,90.006c-0.055,0.357-0.167,0.51-0.462,0.169
		c-0.293-0.336-0.508-0.251-0.535,0.152c-0.032,0.471-0.287,0.543-0.677,0.568c-1.587,0.106-3.167,0.271-4.754,0.343
		c-1.356,0.06-2.69,0.263-4.028,0.453c-0.536,0.076-1.071,0.094-1.608,0.089c-0.538-0.002-0.821-0.293-0.877-0.829
		c-0.143-1.31-0.456-2.58-0.879-3.824c-0.053-0.153-0.165-0.334-0.021-0.475c0.89,0.381,2.117,0.859,3.631,1.324
		c0.773,0.281,1.555,0.542,2.344,0.774c1.952,0.571,3.972,0.702,5.986,0.855c0.096,0.008,0.179,0.002,0.252-0.011
		c0.557,0.043,1.129,0.072,1.711,0.091C64.086,89.792,64.054,89.898,64.038,90.006z M67.698,89.58
		c5.464-0.592,10.578-3.078,12.854-4.319c0.007,0.076-0.017,0.158-0.034,0.233c-0.242,1.068-0.475,2.138-0.738,3.2
		c-0.15,0.607-0.266,1.214-0.285,1.841c-0.022,0.688-0.139,0.793-0.818,0.74c-1.562-0.121-3.12-0.263-4.684-0.392
		c-0.191-0.015-0.388-0.001-0.579-0.001c-1.394-0.111-2.788-0.169-4.185-0.142c-0.327,0.007-0.661-0.033-0.794,0.378
		c-0.026,0.082-0.077,0.148-0.187,0.103C67.97,91.099,67.572,89.894,67.698,89.58z M71.743,95.046
		c-0.894,0.081-1.794,0.088-2.685,0.214c-0.172,0-0.344,0.01-0.513-0.002c-0.194-0.014-0.414-0.027-0.421-0.291
		c-0.005-0.224,0.154-0.338,0.348-0.406c0.061-0.021,0.124-0.047,0.187-0.046c1.516,0.036,3.031-0.177,4.546-0.03
		c0.121,0.012,0.305-0.004,0.319,0.145c0.022,0.197-0.195,0.186-0.321,0.234C72.733,95.046,72.232,95.001,71.743,95.046z
		 M81.483,94.687c-0.552,0.076-1.069,0.293-1.634,0.349c-0.85,0.084-1.696,0.232-2.534,0.372c-1.036,0.175-2.058,0.448-3.12,0.383
		c-0.283-0.019-0.772,0.155-0.801-0.143c-0.034-0.353,0.472-0.327,0.77-0.386c1.408-0.282,2.865-0.143,4.268-0.509
		c0.392-0.104,0.799-0.158,1.203-0.232c0.588-0.108,1.197-0.172,1.762-0.35c0.046,0.156,0.085,0.328,0.118,0.512
		C81.506,94.684,81.496,94.686,81.483,94.687z M84.981,20.658c0,0-6.078-9.472-13.567-9.599c0,0-0.191-1.345,0.448-2.624
		c0.641-1.279,2.88-1.023,2.88-1.023c2.433,1.023,3.773,2.416,5.824,4.35c2.238,2.112,5.438,7.551,5.438,7.551L84.981,20.658z
		 M90.222,82.991c-0.017,0.011-0.034,0.026-0.051,0.039c-0.223,0.161-0.179,0.477-0.378,0.653c-0.116-0.357-0.269-0.704-0.382-1.053
		c-0.129-0.404,0.232-0.476,0.576-0.456c0.215,0.099,0.573-0.069,0.663,0.251C90.732,82.727,90.451,82.864,90.222,82.991z
		 M91.315,83.252c0.412,0.141,0.558,0.552,0.594,0.906c0.043,0.404-0.371,0.445-0.669,0.526c-0.338-0.051-0.665-0.104-0.721-0.513
		C90.49,83.95,91.137,83.191,91.315,83.252z M90.842,81.23c0.113,0.167-0.051,0.373-0.267,0.229c-1.062-0.715-2.14-0.35-3.21-0.057
		c-0.295,0.08-0.45,0.084-0.475-0.258c-0.01-0.123,0.003-0.254-0.147-0.325c-0.298-0.144-0.308-0.17-0.041-0.312
		c0.216-0.116,0.378-0.268,0.519-0.462c0.186-0.262,0.472-0.357,0.812-0.411c0.327,0.205,0.671,0.02,1.026-0.03
		c0.124-0.016,0.298-0.046,0.376,0.02C89.979,80.089,90.442,80.64,90.842,81.23z"/>
</g>
</svg>
