<?xml version="1.0" encoding="utf-8"?>
<!-- Generator: Adobe Illustrator 16.0.4, SVG Export Plug-In . SVG Version: 6.00 Build 0)  -->
<!DOCTYPE svg PUBLIC "-//W3C//DTD SVG 1.1//EN" "http://www.w3.org/Graphics/SVG/1.1/DTD/svg11.dtd">
<svg version="1.1" id="Layer_fur01" xmlns="http://www.w3.org/2000/svg" xmlns:xlink="http://www.w3.org/1999/xlink" x="0px" y="0px"
	 width="128px" height="128px" viewBox="0 0 128 128" enable-background="new 0 0 128 128" xml:space="preserve">
<g>
	<path fill-rule="evenodd" clip-rule="evenodd" fill="#010101" d="M94.331,74.006c-2.464,0.735-3.238,2.915-3.302,4.951
		c-0.15,4.889-2.629,8.702-5.022,12.615c-0.16,0.258-0.264,0.687-0.624,0.493c-0.171-0.093-0.229-0.575-0.186-0.856
		c0.301-1.941,1.446-3.541,2.172-5.311c0.504-1.225,1.205-2.446,0.818-3.876c-0.479,1.063-0.864,2.183-1.46,3.178
		c-1.757,2.932-3.7,5.767-4.012,9.32c-0.027,0.303-0.181,0.716-0.571,0.562c-0.179-0.071-0.295-0.536-0.279-0.813
		c0.104-1.931,0.439-3.816,1.266-5.587c2.074-4.454,4.062-8.941,5.555-13.634c0.16-0.503,0.397-1.001,0.695-1.437
		c0.713-1.044,1.413-2.588,2.696-2.438c1.219,0.144,1.901,1.576,2.179,2.9L94.331,74.006z"/>
	<path fill-rule="evenodd" clip-rule="evenodd" fill="#010101" d="M42.353,127.241c0.368-3.197,2.317-5.513,5.106-6.373
		c3.46-1.067,6.257-3.112,9.284-4.839c1.731-0.988,3.281-1.591,5.337-0.406c1.223,0.704,2.978,0.605,4.494,0.612
		c0.574,0.003,1.235-0.669,1.414,0.354c0.155,0.886-0.34,1.44-1.309,1.336c-1.693-0.183-3.398-0.322-5.074-0.623
		c-2.179-0.394-3.865-0.215-5.053,2.109c-1.441,2.822-3.863,4.534-7.196,4.575c-2.252,0.029-3.968,1.188-4.943,3.003
		c-0.833,1.551-1.359,0.8-2.121,0.202L42.353,127.241z"/>
	<path fill-rule="evenodd" clip-rule="evenodd" fill="#010101" d="M25.04,33.707c1.086-0.11,2.157-0.165,0.866-1.622
		c-0.774-0.875-2.646-1.977-1.674-2.892c1.382-1.303,1.948,1.01,2.739,1.735c3.666,3.361,7.869,5.356,12.83,5.757
		c0.486,0.039,1.349-0.09,1.332,0.427c-0.025,0.793-0.945,0.694-1.534,0.714c-1.393,0.048-2.742-0.279-4.083-0.634
		c-1.955-0.515-3.892-1.164-5.88-1.472c-2.799-0.434-5.57-0.415-7.267,2.511l0.059-0.068c-1.16-0.553-2.12-1.296-2.486-2.606
		l-0.076,0.047c1.905-0.228,3.625-0.947,5.228-1.975L25.04,33.707z"/>
	<path fill-rule="evenodd" clip-rule="evenodd" fill="#010101" d="M22.368,38.231c3.535-1.296,7.021-1.243,10.608-0.011
		c2.84,0.975,5.809,1.341,8.796,0.38c0.807-0.26,1.671-0.426,2.51-0.11c0.268,0.101,0.625,0.351,0.662,0.579
		c0.054,0.329-0.358,0.417-0.645,0.468c-3.758,0.671-7.465,1.771-11.366,0.862c-2.176-0.506-4.378-0.801-6.591,0.138
		c-2.278,0.966-2.792-1.272-3.917-2.374L22.368,38.231z"/>
	<path fill-rule="evenodd" clip-rule="evenodd" fill="#010101" d="M44.83,35.442c0.112,0.49-0.168,0.562-0.525,0.478
		c-4.857-1.148-9.952-1.578-14.185-4.622c-0.735-0.527-1.804-0.942-1.558-2.127c0.141-0.674,3.283-1.401,3.724-0.794
		c2.732,3.762,6.874,4.839,10.993,6.021C43.871,34.568,44.463,34.882,44.83,35.442z"/>
	<path fill-rule="evenodd" clip-rule="evenodd" fill="#010101" d="M97.577,76.549c-2.131,2.204-2.943,4.865-2.775,7.884
		c0.028,0.499,0.087,1.239-0.599,1.256c-0.705,0.016-0.499-0.759-0.626-1.218c-0.26-0.938,0.323-1.986-0.368-2.871
		c-0.429,1.098-0.65,2.221-0.492,3.407c0.053,0.389,0.321,0.993-0.24,1.08c-0.713,0.112-0.739-0.614-0.787-1.098
		c-0.244-2.363-0.076-4.662,0.913-6.886c0.601-1.354,1.565-2.56,1.729-4.098l-0.075,0.067c1.529,0.273,2.41,1.379,3.253,2.532
		L97.577,76.549z"/>
	<path fill-rule="evenodd" clip-rule="evenodd" fill="#010101" d="M19.941,35.557c-3.154-1.627-3.181-4.252-2.518-7.092
		c0.118-0.504,0.29-1.095,0.955-1.084c0.738,0.011,1.113,0.465,1.179,1.209c0.11,1.262,0.254,2.521,0.385,3.78l-0.126,0.102
		l0.069-0.157c1.471-0.57,0.802-1.681,0.68-2.661c-0.061-0.485-0.305-1.104,0.437-1.251c0.483-0.096,0.784,0.336,0.853,0.75
		c0.343,2.032,2.648,2.675,3.186,4.555l0.053-0.077c-2.029-0.102-3.956,0.073-5.228,1.975L19.941,35.557z"/>
	<path fill-rule="evenodd" clip-rule="evenodd" fill="#010101" d="M48.815,100.346c-1.123-0.329-1.642-1.26-2.204-2.168
		c-2.196-3.546-5.132-6.179-9.229-7.332c-0.625-0.176-1.329-0.255-1.134-1.152c0.228-1.046,1.049-0.899,1.777-0.732
		c3.594,0.825,6.324,2.919,8.335,5.938c1.118,1.678,2.018,3.49,2.388,5.511L48.815,100.346z"/>
	<path fill-rule="evenodd" clip-rule="evenodd" fill="#010101" d="M43.645,104.204c-2.616-1.045-5.18-2.26-8.053-2.45
		c-0.377-0.025-0.959-0.104-0.999,0.383c-0.044,0.549,0.559,0.485,0.943,0.528c1.038,0.114,2.096,0.135,2.964,0.842l0.021-0.049
		c-0.949,0.088-1.904,0.278-2.847,0.233c-0.895-0.045-2.178,0.833-2.609-0.241c-0.459-1.142,0.175-2.495,0.629-3.656
		c0.496-1.267,1.616-0.684,2.491-0.499c2.083,0.442,4.124,1.015,5.818,2.414c0.819,0.678,1.738,1.284,1.568,2.562L43.645,104.204z"
		/>
	<path fill-rule="evenodd" clip-rule="evenodd" fill="#010101" d="M41.052,93.936c-1.41,0.035-2.704-1.229-4.188-0.376
		c1.143,0.528,2.302,1.021,3.423,1.593c2,1.022,3.866,2.23,5.168,4.127c0.16,0.233,0.354,0.68,0.254,0.806
		c-0.244,0.309-0.541,0.035-0.765-0.179c-2.605-2.487-5.564-4.215-9.261-4.454c-1.232-0.08-0.875-1.03-0.689-1.676
		c0.246-0.854,0.321-2.038,1.731-1.793c1.594,0.277,3.039,0.912,4.302,1.938L41.052,93.936z"/>
	<path fill-rule="evenodd" clip-rule="evenodd" fill="#010101" d="M109.076,91.98c-1.273,0.223-1.644,2.615-2.261,2.074
		c-0.994-0.871,0.469-2.191,0.825-3.341c0.062-0.197,0.074-0.409,0.11-0.615l0.104-0.144l-0.048,0.193
		c-0.23-0.604-1.747,1.411-1.284-0.633c0.103-0.456,0.856-0.994,0.217-1.324c-0.427-0.219-0.799,0.548-1.027,0.989
		c-0.49,0.942-0.904,1.925-1.363,2.884c-0.171,0.358-0.398,0.915-0.807,0.729c-0.379-0.173-0.24-0.782-0.119-1.182
		c0.551-1.841,1.288-3.605,2.213-5.297c0.579-1.062,1.21-1.209,1.838-0.139c0.954,1.626,2.223,3.135,2.186,5.185l0.06-0.031
		c-0.238,0.239-0.476,0.479-0.715,0.718L109.076,91.98z"/>
	<path fill-rule="evenodd" clip-rule="evenodd" fill="#010101" d="M97.509,76.605c1.653,0.63,3.095,1.506,3.787,3.254l0.07-0.063
		c-0.332,0.256-0.748,0.452-0.978,0.781c-0.482,0.687-0.865,1.444-1.289,2.172c-0.564-0.943,0.094-1.771,0.247-2.647
		c0.055-0.313,0.103-0.71-0.255-0.782c-0.131-0.027-0.422,0.43-0.54,0.708c-0.668,1.581-0.96,3.246-1.186,4.943
		c-0.093,0.708,0.226,2.08-0.848,1.951c-0.884-0.107-0.627-1.436-0.562-2.245c0.221-2.77,0.969-5.441,1.621-8.128L97.509,76.605z"/>
	<path fill-rule="evenodd" clip-rule="evenodd" fill="#010101" d="M103.242,81.771c2.873,1.294,3.006,1.599,1.563,3.903
		c-1.024,1.638-1.574,3.445-2.055,5.288c-0.1,0.385-0.221,0.901-0.775,0.663c-0.192-0.084-0.358-0.573-0.306-0.828
		c0.458-2.214-0.328-4.639,1.205-6.681c0.513-0.681,0.629-1.559,0.431-2.43L103.242,81.771z"/>
	<path fill-rule="evenodd" clip-rule="evenodd" fill="#010101" d="M101.296,79.859c1.234,0.04,1.872,0.688,1.946,1.911l0.063-0.084
		c-1.639,2.014-2.467,4.359-2.799,6.899c-0.066,0.51,0.06,1.329-0.519,1.315c-0.88-0.02-0.5-0.957-0.571-1.479
		c-0.241-1.745,0.464-3.342,0.944-4.966c0.358-1.215,1.043-2.338,1.005-3.661L101.296,79.859z"/>
	<path fill-rule="evenodd" clip-rule="evenodd" fill="#010101" d="M42.402,120.215c-0.13,0.288-0.275,0.571-0.387,0.868
		c-0.109,0.289-0.095,0.739-0.293,0.857c-0.409,0.244-0.503-0.207-0.534-0.479c-0.335-2.979,2.146-5.277,2.002-8.223
		c-0.013-0.296,0.247-0.332,0.33-0.067c0.062,0.196,0.074,0.413,0.083,0.621c0.095,2.26-0.431,4.4-1.261,6.48l-0.05-0.113
		L42.402,120.215z"/>
	<path fill-rule="evenodd" clip-rule="evenodd" fill="#010101" d="M36.017,96.649c0.559,0.142,1.305,0.244,1.979,0.52
		c1.24,0.506,2.672,0.686,3.522,1.915c-1.252,0.382-2.285-0.461-3.441-0.616c-0.833-0.113-1.67-0.212-2.506-0.32
		c-0.576-0.073-1.462,0.184-1.405-0.763C34.231,96.293,35.132,96.539,36.017,96.649z"/>
	<path fill-rule="evenodd" clip-rule="evenodd" fill="#010101" d="M68.13,9.707c0-0.719-0.012-1.243,0.002-1.766
		c0.014-0.511-0.056-1.248,0.548-1.301c0.995-0.088,0.63,0.835,0.694,1.354c0.063,0.512,0.036,1.061-0.082,1.562
		c-0.205,0.867,0.229,2.363-0.802,2.404C67.826,11.987,68.267,10.374,68.13,9.707z"/>
	<path fill-rule="evenodd" clip-rule="evenodd" fill="#010101" d="M37.234,113.165c0.954,0.251,2.119-0.484,2.283,0.506
		c0.102,0.615-1.14,0.789-1.848,0.756c-1.075-0.051-3.017,0.693-3.033-0.46C34.612,112.339,36.569,113.863,37.234,113.165z"/>
	<path fill-rule="evenodd" clip-rule="evenodd" fill="#010101" d="M37.846,118.258c0.539,0,0.959-0.039,1.367,0.015
		c0.255,0.035,0.779,0.102,0.484,0.521c-0.615,0.876-1.719,0.511-2.562,0.854c-0.56,0.229-1.203,0.049-1.208-0.537
		C35.918,117.422,37.273,118.508,37.846,118.258z"/>
	<path fill-rule="evenodd" clip-rule="evenodd" fill="#010101" d="M37.242,115.641c0.925,0,1.351-0.024,1.773,0.012
		c0.195,0.016,0.382,0.149,0.573,0.23c-0.098,0.152-0.166,0.399-0.298,0.44c-1.217,0.367-2.442,0.74-3.736,0.617
		c-0.162-0.016-0.391-0.232-0.436-0.396c-0.089-0.329,0.086-0.681,0.405-0.734C36.253,115.687,37,115.662,37.242,115.641z"/>
	<path fill-rule="evenodd" clip-rule="evenodd" fill="#010101" d="M36.126,111.252c0.573,0.046,1.104,0.077,1.632,0.135
		c0.311,0.034,0.617,0.108,0.925,0.163c-0.308,0.041-0.618,0.077-0.925,0.125c-0.524,0.082-1.049,0.247-1.571,0.238
		c-0.782-0.015-1.541,0.969-2.329,0.06c-0.05-0.058-0.051-0.224-0.005-0.291C34.48,110.763,35.4,111.425,36.126,111.252z"/>
	<path fill-rule="evenodd" clip-rule="evenodd" fill="#010101" d="M108.494,97.164c0.061-1.562,1.295-2.562,1.853-3.887
		l-0.072,0.072c1.808,2.432-0.615,2.808-1.831,3.77L108.494,97.164z"/>
	<path fill-rule="evenodd" clip-rule="evenodd" fill="#010101" d="M69.476,117.785c-0.499-0.038-0.78-0.272-0.545-0.78
		c0.238-0.511-0.193-1.372,0.665-1.529c0.736-0.136,0.753,0.523,0.829,1.019C70.541,117.232,70.238,117.682,69.476,117.785z"/>
	<path fill-rule="evenodd" clip-rule="evenodd" fill="#010101" d="M78.363,29.661c-0.549-0.595-0.605-1.339-0.575-2.083
		c0.015-0.335-0.21-0.771,0.259-1.004c0.06,0.31,0.152,0.616,0.173,0.928c0.048,0.738,0.063,1.479,0.091,2.219L78.363,29.661z"/>
	<path fill-rule="evenodd" clip-rule="evenodd" fill="#010101" d="M80.833,61.244c0.304-0.827,0.803-1.385,1.774-1.27
		c0.069,0.007,0.194,0.184,0.174,0.229c-0.395,0.869-1.146,1.033-1.999,0.986L80.833,61.244z"/>
	<path fill-rule="evenodd" clip-rule="evenodd" fill="#010101" d="M89.832,67.555c-0.34-0.055-0.519-0.284-0.556-0.596
		c-0.032-0.264-0.04-0.661,0.36-0.538c0.205,0.062,0.334,0.447,0.452,0.707C90.196,67.365,90.081,67.521,89.832,67.555z"/>
	<path fill-rule="evenodd" clip-rule="evenodd" fill="#010101" d="M38.343,120.865c0.273,0.062,0.68,0.076,0.582,0.448
		c-0.051,0.188-0.451,0.337-0.716,0.394c-0.117,0.024-0.389-0.208-0.42-0.36C37.7,120.931,38.043,120.899,38.343,120.865z"/>
	<path fill-rule="evenodd" clip-rule="evenodd" fill="#010101" d="M110.347,93.277c-0.439-0.008-0.879-0.016-1.318-0.022
		l0.053,0.054c-0.002-0.442-0.004-0.885-0.005-1.328l-0.071,0.067c0.239-0.238,0.477-0.479,0.715-0.718l-0.06,0.031
		c0.689,0.513,0.703,1.234,0.614,1.988L110.347,93.277z"/>
	<path fill-rule="evenodd" clip-rule="evenodd" fill="#010101" d="M78.311,29.72c0.144,0.376,0.325,0.745,0.414,1.134
		c0.064,0.282,0.006,0.592,0.002,0.89c-0.554-0.129-0.227-0.582-0.294-0.874c-0.088-0.388-0.052-0.805-0.069-1.21L78.311,29.72z"/>
	<path fill-rule="evenodd" clip-rule="evenodd" fill="#010101" d="M100.742,93.91c0.294,0.078,0.588,0.156,0.883,0.233
		c-0.412,0.444-0.556-0.149-0.834-0.217L100.742,93.91z"/>
	<polygon fill-rule="evenodd" clip-rule="evenodd" fill="#010101" points="32.511,56.428 32.384,56.576 32.385,56.282 	"/>
	<path fill-rule="evenodd" clip-rule="evenodd" fill="#010101" d="M41.454,124.242c-0.056,0.066-0.113,0.188-0.168,0.187
		c-0.257-0.005-0.331-0.145-0.185-0.344c0.042-0.059,0.183-0.104,0.244-0.078C41.404,124.033,41.42,124.16,41.454,124.242z"/>
	<path fill-rule="evenodd" clip-rule="evenodd" fill="#010101" d="M108.443,97.119c-0.09,0.047-0.177,0.092-0.266,0.138
		c0.104-0.031,0.212-0.062,0.316-0.093L108.443,97.119z"/>
	<path fill-rule="evenodd" clip-rule="evenodd" fill="#010101" d="M104.624,95.177c0.117,0.08,0.235,0.16,0.353,0.24
		c-0.053-0.033-0.111-0.058-0.153-0.101c-0.057-0.059-0.096-0.13-0.145-0.195L104.624,95.177z"/>
	<path fill-rule="evenodd" clip-rule="evenodd" fill="#010101" d="M95.45,88.889c0.177,0.046,0.352,0.089,0.528,0.135
		c-0.072-0.01-0.147-0.006-0.211-0.033c-0.092-0.039-0.176-0.102-0.261-0.154L95.45,88.889z"/>
	<path fill-rule="evenodd" clip-rule="evenodd" fill="#010101" d="M104.679,95.121c-0.173-0.012-0.344-0.023-0.517-0.034
		c0.214-0.276,0.3,0.105,0.462,0.09L104.679,95.121z"/>
	<path fill-rule="evenodd" clip-rule="evenodd" fill="#010101" d="M42.292,127.191l0.06,0.05L42.292,127.191z"/>
	<polygon fill-rule="evenodd" clip-rule="evenodd" fill="#010101" points="41.029,93.921 41.169,94.024 41.052,93.936 	"/>
	<polygon fill-rule="evenodd" clip-rule="evenodd" fill="#010101" points="41.064,12.406 41.001,12.561 41.054,12.455 	"/>
	<polygon fill-rule="evenodd" clip-rule="evenodd" fill="#010101" points="83.284,50.348 83.438,50.395 83.338,50.348 	"/>
	<polygon fill-rule="evenodd" clip-rule="evenodd" fill="#010101" points="109.028,93.255 108.89,93.429 109.081,93.309 	"/>
	<polygon fill-rule="evenodd" clip-rule="evenodd" fill="#010101" points="100.791,93.927 100.634,93.86 100.742,93.91 	"/>
	<polygon fill-rule="evenodd" clip-rule="evenodd" fill="#010101" points="38.501,103.507 38.566,103.582 38.522,103.458 	"/>
	<polygon fill-rule="evenodd" clip-rule="evenodd" fill="#010101" points="38.476,17.506 38.446,17.667 38.48,17.565 	"/>
	<path fill-rule="evenodd" clip-rule="evenodd" fill="#010101" d="M48.75,100.409c0.105,0.006,0.217,0.037,0.318,0.017
		c4.172-0.844,3.86-0.665,1.842-4.191c-2.878-5.029-6.974-7.855-12.579-8.922c-2.739-0.521-0.782-2.604-0.856-3.912
		c-0.083-1.489,1.083-1.179,2.053-0.815c1.633,0.613,3.361,0.703,5.061,0.622c5.399-0.256,10.165,1.514,14.221,4.86
		c3.797,3.134,8.689,4.105,12.582,6.959c0.146,0.108,0.439,0.182,0.571,0.106c0.385-0.217,0.173-0.543,0.025-0.806
		c-0.696-1.229-1.624-2.281-2.796-3.041c-3.395-2.199-6.806-4.601-10.421-6.159c-4.516-1.945-9.224-4.013-14.374-4.115
		c-0.462-0.01-1.218,0.278-1.315-0.405c-0.092-0.655,0.655-0.715,1.151-0.836c2.358-0.58,4.67-0.376,6.921,0.498
		c2.593,1.007,5.196,1.91,8.002,2.2c2.239,0.232,3.84,1.747,5.448,3.17c0.298,0.264,0.697,0.637,1.087,0.17
		c0.343-0.411,0.011-0.807-0.262-1.104c-1.783-1.952-4.029-3.202-6.534-3.87c-2.292-0.612-4.464-1.462-6.56-2.53
		c-4.027-2.054-8.172-2.225-12.448-0.936c-0.534,0.16-1.232,0.964-1.644,0.145c-0.421-0.838,0.356-1.281,1.078-1.64
		c3.917-1.953,7.975-2.646,12.032-0.702c3.278,1.569,6.487,3.207,10.056,4.071c1.777,0.43,3.174,1.725,4.688,2.724
		c0.308,0.204,0.674,0.729,1.051,0.161c0.131-0.197,0.021-0.621-0.084-0.901c-0.888-2.38-2.707-3.88-4.996-4.65
		c-3.743-1.259-7.413-2.676-11.086-4.117c-2.922-1.146-6.078-1.02-9.155-0.187c-0.442,0.121-1.154,0.607-1.337-0.057
		c-0.153-0.55,0.667-0.729,1.145-0.911c3.841-1.474,7.721-1.678,11.546-0.028c3.287,1.419,6.795,1.812,10.25,2.471
		c0.292,0.055,0.711,0.105,0.89-0.05c0.415-0.362,0.044-0.764-0.165-1.088c-0.929-1.438-2.294-2.212-3.967-2.422
		c-2.77-0.349-5.418-1.097-8.045-2.058c-3.306-1.211-6.508-0.308-9.683,0.832c-1.253,0.449-2.497,1.211-3.947,0.829
		c0.516-1.492,2.046-1.7,3.155-2.382c2.768-1.699,5.848-1.841,8.99-1.422c2.115,0.281,4.174,0.92,6.331,0.927
		c1.078,0.003,2.139-0.016,3.157-0.406c0.377-0.144,0.922-0.209,0.841-0.765c-0.081-0.545-0.579-0.561-0.993-0.44
		c-3.6,1.042-6.921-0.298-10.371-0.999c-3.49-0.708-6.985-0.048-10.303,1.349c-0.529,0.224-1.331,0.862-1.663,0.144
		c-0.283-0.613,0.663-0.978,1.181-1.295c2.768-1.69,5.708-2.822,8.995-3.11c3.075-0.269,6.129-0.788,9.188-1.222
		c0.395-0.057,1.063-0.064,1.037-0.532c-0.024-0.446-0.66-0.239-1.037-0.312c-7.12-1.359-13.978-0.225-20.712,2.138
		c-0.485,0.17-1.153,0.59-1.454,0.067c-0.321-0.557,0.419-0.82,0.82-1.11c2.841-2.049,6.098-3.362,9.49-3.562
		c3.519-0.207,6.098-2.177,9.024-3.539c0.354-0.164,0.824-0.521,0.575-0.956c-0.265-0.459-0.816-0.198-1.158-0.003
		c-3.809,2.157-8.158,2.432-12.263,3.547c-0.498,0.135-1.237,0.493-1.425-0.054c-0.156-0.45,0.645-0.755,1.126-0.924
		c2.616-0.923,5.248-1.798,7.868-2.712c0.458-0.161,1.099-0.297,0.917-0.971c-0.038-0.137-0.791-0.172-1.185-0.103
		c-2.114,0.369-4.129,1.049-6.082,1.952c-2.435,1.126-4.948,2.022-7.687,2.001c-0.299-0.002-0.793,0.008-0.856-0.137
		c-0.138-0.318,0.198-0.543,0.483-0.71c4.81-2.812,9.681-5.455,15.422-5.815c1.258-0.079,2.538-0.191,3.612-0.987
		c-1.082-1.232-2.634-1.459-4.048-1.389c-1.678,0.083-3.312,0.833-4.996,1.03c-4.318,0.507-8.806-0.052-12.844,2.151
		c-0.259,0.142-0.69,0.25-0.767-0.16c-0.045-0.236,0.186-0.628,0.408-0.797c2.364-1.801,5.147-2.526,8.004-3.031
		c2.417-0.426,4.883-0.578,7.245-1.31c0.489-0.151,1.34-0.25,1.247-0.756c-0.148-0.806-1.042-0.437-1.566-0.387
		c-1.483,0.144-2.98,0.324-4.426,0.68c-3.841,0.946-7.662-0.128-11.49-0.007c-0.192,0.006-0.536-0.059-0.555-0.15
		c-0.089-0.387,0.246-0.517,0.536-0.597c1.444-0.395,2.896-0.816,4.406-0.762c3.133,0.114,6.16-0.438,9.163-1.259
		c1.759-0.48,3.552-0.735,5.391-0.587c0.456,0.036,1.208,0.287,1.249-0.484c0.033-0.636-0.685-0.711-1.178-0.856
		c-0.511-0.149-1.058-0.195-1.555-0.377c-0.772-0.279-2.237-0.279-2.079-1.054c0.181-0.873,1.447-0.031,2.232-0.146
		c0.625-0.091,1.53,0.016,1.726-0.571c0.273-0.818-0.751-0.753-1.209-1.081c-2.283-1.639-4.794-2.743-7.52-3.439
		c-2.201-0.564-4.148-1.703-5.908-3.126c-0.717-0.581-2.25-1.123-1.837-1.921c0.621-1.199,1.434-2.637,3.192-2.84
		c1.738-0.201,3.445,0.017,5.073,0.491c2.166,0.632,4.234,0.173,6.338-0.14c0.413-0.061,0.941-0.096,0.959-0.625
		c0.025-0.66-0.603-0.525-0.924-0.453c-3.876,0.87-6.776-2.458-10.455-2.419c-0.119,0.001-0.372-0.33-0.34-0.399
		c0.127-0.266,0.321-0.669,0.53-0.695c1.501-0.19,2.975,0.053,4.445,0.372c1.994,0.432,3.999,0.771,5.991-0.047
		c0.521-0.214,1.053-0.533,0.936-1.116c-0.078-0.396-0.669-0.414-1.098-0.423c-1.953-0.039-3.8-0.575-5.6-1.266
		c-1.266-0.487-2.493-0.517-3.739,0.005l0.005,0.059c1.439-3.144,1.434-3.125,4.825-2.062c1.008,0.315,2.053,0.542,3.095,0.715
		c0.822,0.137,1.851,0.336,2.183-0.714c0.367-1.162-0.209-2.239-1.325-2.537c-2.008-0.533-4.042-1.405-6.194-0.561l-0.01,0.048
		c0.335-1.935,1.536-2.622,3.423-2.531c3.468,0.167,6.516-0.888,9.029-3.351c0.288-0.283,0.647-0.713,1.071-0.438
		c0.46,0.297,0.125,0.781-0.015,1.154c-0.762,2.052-1.978,3.784-3.774,5.058c-0.796,0.564-1.31,1.198-0.623,2.108
		c0.635,0.841,1.382,0.266,1.994-0.083c1.627-0.928,2.739-2.349,3.57-4.006c0.624-1.245,1.338-2.42,2.335-3.424
		c0.979-0.985,2.131-0.829,2.799,0.029c0.714,0.918-0.621,1.088-1.111,1.493c-0.674,0.556-1.245,1.179-1.65,1.935
		c-1.28,2.383-2.807,4.536-5.178,5.977c-0.429,0.261-1.08,0.606-0.779,1.21c0.408,0.824,1.095,0.326,1.638,0.069
		c2.086-0.987,3.617-2.622,4.998-4.411c0.717-0.928,1.331-1.942,2.105-2.821c0.448-0.508,0.93-1.582,1.671-1.115
		c0.777,0.491,0.073,1.364-0.312,1.954c-1.633,2.504-3.23,5.042-5.431,7.113c-0.777,0.731-1.576,1.44-2.356,2.168
		c-0.372,0.347-1.052,0.735-0.767,1.218c0.322,0.542,0.942,0.123,1.409-0.134c4.395-2.422,8.182-5.438,10.103-10.292
		c0.155-0.396,0.362-0.774,0.585-1.139c0.158-0.263,0.381-0.627,0.722-0.443c0.21,0.113,0.368,0.494,0.386,0.765
		c0.119,1.872-0.277,3.608-1.463,5.114c-2.063,2.614-4.318,4.996-7.314,6.601c-1.456,0.779-3.663,1.76-2.453,3.703
		c1.212,1.95,3.076,0.345,4.425-0.56c2.566-1.724,5.212-3.334,7.58-5.354c2.794-2.378,6.654-2.898,9.476-5.28
		c0.389-0.328,0.985-0.402,1.389-0.718c0.455-0.354,0.569-0.958,0.311-1.455c-0.32-0.615-0.902-0.419-1.385-0.175
		c-1.711,0.867-3.654,1.307-5.133,2.582c-1.893,1.631-4.422,2.135-6.329,3.715c-0.255,0.21-0.617,0.385-0.814,0.05
		c-0.092-0.155,0.119-0.569,0.296-0.783c0.335-0.41,0.707-0.809,1.129-1.126c3.207-2.412,4.019-5.896,4.317-9.604
		c0.042-0.519-0.22-1.071-0.137-1.575c0.135-0.806,0.777-1.419,1.529-1.394c0.745,0.025,0.8,0.889,0.856,1.51
		c0.171,1.868-0.782,3.528-1.023,5.319c-0.063,0.469-0.396,1.117,0.318,1.349c0.436,0.141,0.765-0.282,1.043-0.602
		c1.288-1.478,2.862-2.545,4.675-3.276c0.389-0.157,0.914-0.354,0.714-0.822c-0.193-0.448-0.743-0.212-1.159-0.156
		c-1.53,0.212-2.525,1.454-3.883,1.997c-0.302-1.538,1.467-2.845,0.836-4.195c-1.066-2.276,0.006-3.557,1.523-4.876
		c0.784-0.683,1.352-0.49,1.774,0.341c2.267,4.441,3.251,9.091,1.579,13.919c-0.808,2.331-1.383,4.693-1.927,7.079
		c-0.077,0.343,0.165,0.821-0.381,0.987c-0.07-0.311-0.144-0.62-0.206-0.931c-0.021-0.104-0.012-0.214-0.026-0.319
		c-0.198-1.558,0.738-3.049,0.267-4.622c-1.179,0.882-2.272,1.925-3.558,2.608c-2.097,1.118-3.959,2.485-5.716,4.073
		c-2.004,1.812-4.495,2.821-6.935,3.932c-1.631,0.741-4.695,1.403-3.625,3.482c0.958,1.861,3.386-0.16,4.975-0.988
		c3.118-1.625,6.152-3.386,8.688-5.931c1.252-1.257,2.763-2.324,4.604-2.701c0.044,2.226-1.975,3.03-3.098,4.447
		c-0.457,0.581-1.127,0.992-1.6,1.563c-0.759,0.914-2.479,1.603-1.981,2.78c0.27,0.636,1.769-0.643,2.713-1.059
		c0.285-0.127,0.621-0.34,0.855-0.06c0.359,0.432-0.03,0.801-0.299,1.076c-1.47,1.502-3.379,2.187-5.32,2.807
		c-2.541,0.812-5.084,1.617-7.618,2.456c-0.486,0.162-1.212,0.382-1.073,0.987c0.149,0.65,0.886,0.415,1.336,0.275
		c1.629-0.506,3.264-1.013,4.845-1.652c3.651-1.477,7.419-2.685,10.852-4.671c0.348-0.202,0.711-0.617,1.11-0.228
		c0.381,0.372,0.079,0.889-0.171,1.121c-2.267,2.109-4.101,4.388-7.746,4.97c-3.675,0.586-7.38,1.964-10.963,3.331
		c-0.28,0.107-0.616,0.324-0.417,0.647c0.192,0.312,0.57,0.111,0.875,0.043c1.453-0.327,2.913-0.552,4.305-1.184
		c3.807-1.726,7.866-1.818,11.945-1.574c0.717,0.042,1.778,0.066,1.814,0.915c0.024,0.532-1.055,0.417-1.657,0.512
		c-1.576,0.248-3.122,0.7-4.755,0.594c-1.319-0.085-2.528,0.292-3.517,1.226c-0.333,0.093-0.668,0.187-1.002,0.279
		c0.076,0.034,0.178,0.118,0.223,0.095c0.25-0.131,0.484-0.287,0.725-0.434c3.529-0.239,7.057-0.383,10.421,1.016
		c0.63,0.262,1.827,0.251,1.575,1.185c-0.198,0.736-1.324,0.425-2.006,0.334c-1.582-0.209-3.141-0.585-4.717-0.854
		c-0.607-0.104-1.494-0.41-1.751,0.232c-0.372,0.934,0.721,1.131,1.272,1.502c1.19,0.797,2.591,0.893,3.98,1.053
		c0.941,0.107,1.874,0.406,2.777,0.715c0.361,0.124,0.933,0.557,0.896,0.756c-0.139,0.759-0.826,0.345-1.264,0.354
		c-2.451,0.056-4.844-0.03-7.269-0.777c-2.551-0.788-5.282-0.607-7.917,0.003c-0.5,0.115-1.129,0.298-1.259,0.861
		c-0.188,0.816,0.73,0.529,1.022,0.852c2.635,2.906,5.64,1.841,8.769,1.062c3.428-0.853,6.733,0.691,10.11,1.033
		c0.284,0.029,0.695,0.238,0.569,0.618c-0.071,0.21-0.45,0.324-0.703,0.46c-0.087,0.048-0.214,0.057-0.314,0.037
		c-6.244-1.201-11.905,2.158-17.979,2.307c-0.677,0.018-1.706-0.095-1.642,1.012c0.06,1.036,0.905,1.381,1.851,1.344
		c4.141-0.166,8.342-0.062,12.001-2.526c2.279-1.533,4.812,0.158,7.199-0.531c0.568-0.164,0.589,0.672,0.134,1.132
		c-1.195,1.207-2.775,1.534-4.348,1.87c-3.33,0.71-6.688,1.352-9.415,3.63c-0.711,0.167-1.422,0.335-2.133,0.502
		c-0.309,0.071-0.622,0.129-0.926,0.219c-0.377,0.111-1,0.251-0.743,0.703c0.25,0.443,0.718-0.066,1.026-0.27
		c0.245-0.16,0.397-0.456,0.592-0.693c0.733-0.079,1.505,0.001,2.131-0.516c4.658-0.51,9.414-0.536,13.721-2.784
		c0.355-0.186,0.832-0.529,1.149-0.101c0.448,0.605-0.161,0.987-0.552,1.237c-2.646,1.694-5.666,2.489-8.636,3.325
		c-2.279,0.641-4.455,1.481-6.579,2.487c-0.77,0.364-1.554,0.765-2.03,1.513c-0.296,0.463-0.409,1.046-0.008,1.491
		c0.536,0.598,0.93-0.011,1.33-0.286c4.339-2.972,9.314-4.094,14.381-4.959l-0.051-0.055c-1.021,1.523-2.682,2.04-4.262,2.631
		c-2.64,0.989-4.92,2.546-7.051,4.331c-2.108,1.767-2.525,4.095-1.98,6.677c0.087,0.415,0.189,0.951,0.635,1.026
		c0.529,0.091,0.535-0.487,0.672-0.85c1.988-5.293,6.085-8.328,11.12-10.326c1.875-0.746,3.839-1.243,5.544-2.419
		c0.653-0.45,1.669-0.877,2.193,0.224c0.48,1.009-0.563,1.128-1.123,1.556c-5.057,3.864-9.482,8.207-11.105,14.68
		c-0.724,2.896-1.366,5.804-1.6,8.788l-0.097,0.07l0.067-0.097c2.633-5.945,5.056-12.004,9.395-17.012
		c0.704-0.813,1.377-1.632,2.351-2.131c0.361-0.186,0.773-0.519,1.141-0.124c0.36,0.388,0.054,0.812-0.196,1.126
		c-0.796,1.002-1.769,1.889-2.425,2.972c-3.501,5.773-5.809,12.093-8.251,18.348c-0.076,0.197-0.115,0.414-0.139,0.625
		c-0.043,0.413-0.25,1.004,0.192,1.159c0.456,0.161,0.606-0.439,0.77-0.796c1.86-4.073,3.739-8.14,5.556-12.232
		c1.401-3.163,3.233-6.007,5.821-8.328c0.374-0.334,0.849-0.867,1.352-0.49c0.6,0.448,0.041,1.015-0.233,1.38
		c-5.436,7.209-7.182,16.127-11.15,24.013c-0.239,0.474-0.493,0.962-0.605,1.472c-0.169,0.77,0.035,1.498,0.655,2.023
		c0.717,0.608,1.389,0.272,2.022-0.197c2.93-2.171,5.482-4.717,7.587-7.695c1.062-1.503,2.211-2.812,4.053-3.446
		c1.469-0.506,2.691-0.448,3.761,0.743l0.057-0.053c-4.497,0.146-6.616,3.691-9.194,6.519c-1.889,2.072-3.794,4.097-6.124,5.681
		l0.054-0.052c-2.045,2.349-2.911,4.994-2.336,8.137c0.184,1.009-0.076,2.138-1.013,2.891c-0.018-0.404,0.003-0.828-0.431-1.054
		c-0.054-0.027-0.17,0.062-0.258,0.099c0.251,0.297,0.502,0.593,0.753,0.891c-0.113,2.319-1.801,3.452-3.5,4.521
		c-0.54,0.34-1.368,1.071-1.861,0.046c-0.331-0.686-0.614-1.606,0.299-2.278c0.847-0.622,1.549-1.446,2.582-1.801
		c0.008,0.391,0.018,0.794,0.428,0.988c0.07,0.032,0.367-0.178,0.356-0.245c-0.068-0.472-0.533-0.491-0.854-0.675
		c0.023-1.886,1.185-3.685,0.389-5.639c-0.603-1.48-0.964-3.158-3.146-2.991c-0.268,0.021-0.749-0.196-0.796-0.385
		c-0.114-0.472,0.368-0.351,0.641-0.414c2.315-0.536,1.779-1.954,1.031-3.401c-0.669-1.295-1.929-1.982-3.068-2.751
		c-2.563-1.729-5.398-3.038-7.794-5.038c-0.467-0.393-1.143-0.909-1.667-0.23c-0.499,0.646,0.2,1.159,0.593,1.608
		c1.495,1.701,3.433,2.869,5.188,4.259c1.163,0.923,2.304,1.895,2.724,3.424c-1.511,0.35-2.345-0.986-3.5-1.489
		c-2.496-1.085-4.258-3.166-6.062-5.14c-2.521-2.759-5.001-5.561-8.167-7.627c-0.356-0.233-0.713-0.498-1.109-0.635
		c-0.957-0.329-1.907-1.528-2.818-0.706c-0.282,0.254,1.302,1.1,2.084,1.571c4.876,2.944,8.666,6.894,11.22,11.998
		c0.265,0.531,1.018,1.196,0.466,1.677c-0.786,0.686-1.285-0.372-1.791-0.771c-1.708-1.335-2.91-3.116-3.972-4.978
		c-3.173-5.559-8.275-8.439-14.149-10.261c-0.503-0.157-1.04-0.257-1.565-0.279c-0.254-0.011-0.688,0.173-0.744,0.356
		c-0.108,0.364,0.292,0.5,0.586,0.612c0.198,0.074,0.411,0.112,0.619,0.159c6.482,1.425,10.926,5.535,14.396,10.927
		c0.288,0.447,0.552,0.915,0.799,1.388c0.771,1.469,2.245,2.252,3.317,3.428c-1.589,0.687-2.835-1.037-4.409-0.605
		c-1.973,0.542-3.718,1.593-5.576,2.389l0.057-0.058c-2.423,1.682-4.215,3.84-5.085,6.699c-0.084,0.276-0.112,0.716-0.458,0.654
		c-0.173-0.031-0.239-0.539-0.398-0.804c-1.032-1.72-6.14-3.084-7.721-2.084c-0.229,0.145-0.372,0.285-0.232,0.473
		c0.11,0.148,0.302,0.29,0.48,0.325c0.521,0.097,1.068,0.086,1.576,0.229c0.259,0.072,1.109,0.463,0.358,0.642
		c-1.09,0.257-2.375,1.265-3.285,0.606c-1.259-0.91-0.509-2.583-0.51-3.914c-0.001-1.064,0.974-0.951,1.701-0.847
		c1.791,0.259,3.607,0.392,5.297,1.142c2.749,1.221,2.753,1.21,3.739-1.817l-0.071,0.067c2.308-0.562,3.55-2.542,5.242-3.926
		L48.75,100.409z M39.692,26.677c0.433,0.288,0.862,0.587,1.423,0.527c0.179,0.245,0.332,0.515,0.543,0.727
		c0.358,0.361,1.334,0.48,1.13,0.912c-0.335,0.711-1.083,0.114-1.645-0.023c-1.032-0.253-2.053-0.555-3.086-0.803
		c-0.392-0.094-0.805-0.098-1.208-0.141c0.344,0.228,0.684,0.462,1.032,0.684c3.951,2.509,8.276,1.195,12.469,1.188
		c0.25-0.001,0.629-0.22,0.723-0.436c0.206-0.473-0.171-0.787-0.538-1.012c-0.752-0.462-1.613-0.526-2.463-0.584
		c-2.334-0.16-4.669-0.305-7.004-0.454c-0.302-0.658-0.856-0.625-1.435-0.524c-0.468-1.201-1.486-1.331-2.54-1.177
		c-0.369,0.053-0.419-0.113-0.241,0.074c0.661,0.692,1.662,0.707,2.542,0.956C39.493,26.617,39.592,26.648,39.692,26.677z
		 M69.989,81.363c-0.005-0.082-0.019,0.565,0.104,1.186c0.115,0.574,0.096,1.466,0.827,1.465c0.46,0,0.479-0.875,0.56-1.382
		c0.806-5.058,2.373-9.731,6.472-13.172c0.217-0.184,0.517-0.479,0.235-0.75c-0.106-0.101-0.591,0.05-0.794,0.216
		C73.638,72.016,70.1,75.252,69.989,81.363z M55.609,63.099c-0.132,0-0.56-0.032-0.981,0.007c-0.609,0.058-1.76-0.171-1.713,0.262
		c0.09,0.832,1.145,0.431,1.785,0.563c0.406,0.083,0.868,0.097,1.266-0.005c1.037-0.266,2.341,0.209,3.037-1.045
		c-0.96-0.498-1.853,0.168-2.785,0.164C56.112,63.043,56.007,63.062,55.609,63.099z M76.392,2.921
		c-0.562,0.175-0.48,0.48-0.355,0.736c0.339,0.689,0.294,1.729,1.45,1.71c0.299-0.005,0.767-0.216,0.587-0.48
		C77.578,4.16,76.933,3.535,76.392,2.921z M63.857,58.338c0.365-0.159,0.899-0.21,0.936-0.66c0.022-0.311-0.429-0.345-0.704-0.262
		c-0.269,0.083-0.64,0.21-0.73,0.421C63.211,58.18,63.502,58.348,63.857,58.338z M55.351,55.423c0.543-0.09,1.125-0.184,1.364-0.699
		c0.182-0.39-0.244-0.515-0.514-0.412c-0.486,0.186-1.073,0.37-1.353,0.75C54.586,55.417,55.125,55.368,55.351,55.423z
		 M76.575,105.917c-0.146,0.131-0.287,0.259-0.429,0.388c0.08,0.057,0.161,0.158,0.247,0.162c0.247,0.011,0.388-0.139,0.359-0.388
		C76.744,106.011,76.617,105.954,76.575,105.917z M76.273,108.786c0.047,0.233,0.201,0.343,0.44,0.269
		c0.077-0.023,0.187-0.176,0.167-0.231c-0.055-0.161-0.166-0.304-0.256-0.454C76.509,108.508,76.39,108.646,76.273,108.786z
		 M61.617,50.089c-0.053-0.069-0.093-0.169-0.162-0.197c-0.089-0.036-0.238-0.055-0.296-0.005c-0.185,0.16-0.108,0.297,0.19,0.321
		C61.436,50.215,61.527,50.131,61.617,50.089z"/>
</g>
</svg>
