<?xml version="1.0" encoding="utf-8"?>
<!-- Generator: Adobe Illustrator 16.0.4, SVG Export Plug-In . SVG Version: 6.00 Build 0)  -->
<!DOCTYPE svg PUBLIC "-//W3C//DTD SVG 1.1//EN" "http://www.w3.org/Graphics/SVG/1.1/DTD/svg11.dtd">
<svg version="1.1" id="Layer_ivory01" xmlns="http://www.w3.org/2000/svg" xmlns:xlink="http://www.w3.org/1999/xlink" x="0px" y="0px"
	 width="128px" height="128px" viewBox="0 0 128 128" enable-background="new 0 0 128 128" xml:space="preserve">
<g id="_x39_YQDgi.tif">
	<g>
		<path fill="#010101" d="M67.421,86.034c-6.777,0-13.556-0.003-20.334,0.002c-1.712,0-1.721,0.013-1.972,1.729
			c-0.152,1.051-0.298,2.104-0.421,3.158c-0.086,0.74-0.437,1.131-1.216,1.12c-1.192-0.019-2.386,0.026-3.577-0.015
			c-0.935-0.032-1.184-0.265-1.247-1.271c-0.07-1.125-0.022-2.257-0.023-3.386c-0.001-1.356,0.001-1.365-1.287-1.363
			c-1.129,0.002-2.258,0.022-3.388,0.05c-0.617,0.014-0.864-0.248-0.925-0.884c-0.191-1.985,0.17-3.858,0.996-5.653
			c0.345-0.75,0.67-1.521,0.445-2.35c-0.469-1.727,0.546-2.888,1.562-3.959c0.903-0.954,1.982-1.758,3.464-1.58
			c0.584,0.071,0.754-0.29,0.721-0.814c-0.043-0.688,0.018-1.396-0.121-2.063c-0.349-1.675-0.359-3.362-0.335-5.051
			c0.011-0.757-0.265-1.136-0.963-1.351c-3.224-0.998-6.429-2.06-9.665-3.016c-1.751-0.517-3.363-1.347-5.056-1.994
			c-6.655-2.546-12.758-6.08-18.341-10.503c-1.775-1.405-3.307-3.045-4.565-4.948c-0.715-1.081-1.036-2.292-1.242-3.509
			c-0.272-1.601,1.326-2.758,3.181-2.343c1.524,0.34,3.012,0.825,4.467,1.406c4.937,1.969,9.835,4.049,14.835,5.849
			c4.346,1.564,8.828,2.733,13.315,3.858c5.088,1.276,10.22,2.364,15.373,3.314c4.483,0.828,8.986,1.514,13.565,1.717
			c2.504,0.112,5.006,0.243,7.505,0.178c3.934-0.104,7.859-0.346,11.764-0.937c2.898-0.438,5.84-0.626,8.717-1.227
			c6.556-1.368,12.974-3.22,19.24-5.583c2.518-0.949,5.008-1.966,7.513-2.946c0.29-0.113,0.595-0.186,0.894-0.277
			c1.574-0.482,1.829-0.373,2.812,0.988c2.463,3.413,3.861,7.277,4.755,11.337c0.538,2.457,0.278,2.816-2.064,3.769
			c-5.862,2.383-11.958,4.005-18.075,5.574c-3.693,0.946-7.43,1.646-11.186,2.27c-0.245,0.041-0.482,0.145-0.729,0.174
			c-0.735,0.083-1.08,0.426-1.012,1.218c0.059,0.684,0.008,1.379-0.039,2.068c-0.051,0.744-0.441,1.626-0.164,2.189
			c0.346,0.696,1.379,0.174,2.084,0.375c1.453,0.414,4.094,2.739,4.057,5.401c-0.02,1.286,0.154,2.495,0.675,3.649
			c0.616,1.365,0.573,2.808,0.562,4.246c-0.01,0.967-0.055,1.004-1.109,1.033c-1.192,0.029-2.387,0.012-3.577,0.027
			c-0.613,0.009-0.825,0.213-0.742,0.934c0.157,1.363,0.112,2.754,0.162,4.131c0.021,0.603-0.185,0.949-0.851,0.941
			c-1.316-0.015-2.639-0.045-3.953,0.016c-0.76,0.033-0.998-0.42-1.145-0.985c-0.324-1.271-0.644-2.543-0.898-3.829
			c-0.137-0.691-0.49-0.959-1.16-0.934c-0.502,0.02-1.004,0.002-1.508,0.002c-6.588,0-13.18,0-19.77,0
			C67.421,86.003,67.421,86.019,67.421,86.034z M86.1,74.339c0.022-0.267-0.123-0.373-0.367-0.391
			c-0.066-0.303-0.303-0.352-0.553-0.346c-0.115,0.002-0.326,0.064-0.326,0.095c0.01,0.218,0.215,0.179,0.351,0.202
			c0.18,0.033,0.364,0.022,0.548,0.029c-0.001,0.256,0.173,0.332,0.381,0.376c0.055,0.204,0.176,0.333,0.381,0.374
			c0.022,0.053,0.036,0.107,0.069,0.148c0.019,0.023,0.067,0.023,0.103,0.033c-0.066-0.049-0.139-0.099-0.207-0.146
			C86.475,74.466,86.354,74.335,86.1,74.339z M63.892,75.837c-0.023-0.056-0.033-0.122-0.071-0.162
			c-0.026-0.027-0.09-0.015-0.137-0.02c0.078,0.051,0.157,0.103,0.234,0.152c-0.074,0.695,0.339,0.842,0.905,0.797
			c0.116-0.008,0.286-0.035,0.329-0.11c0.125-0.224-0.111-0.254-0.237-0.335C64.604,75.96,64.287,75.774,63.892,75.837z
			 M80.838,74.305c0.537,0.089,0.911-0.297,1.352-0.481c0.25-0.104,0.559-0.18,0.654-0.506c-0.297-0.032-0.597-0.097-0.896-0.094
			c-0.998,0.01-0.998,0.02-1.091,1.102c-0.055,0.015-0.117,0.017-0.16,0.049c-0.025,0.021-0.021,0.081-0.031,0.125
			C80.723,74.435,80.781,74.369,80.838,74.305z M49.214,73.938c1.302,0,2.568,0.155,3.776,0.7c0.453,0.202,0.658-0.099,0.704-0.54
			c0.039-0.384,0.084-0.783-0.446-0.808c-1.386-0.062-2.768-0.062-4.031,0.649c-0.167,0.035-0.345,0.047-0.498,0.112
			c-0.093,0.041-0.035,0.157,0.125,0.163C49.028,74.226,49.177,74.147,49.214,73.938z M67.087,71.286c0-0.024,0-0.051,0-0.078
			c6.897,0,13.795,0,20.69,0c0.377,0,0.754-0.001,1.131-0.005c0.585-0.009,0.945-0.239,0.938-0.896
			c-0.017-1.189-0.016-2.382-0.014-3.572c0-0.489-0.243-0.648-0.708-0.6c-4.17,0.442-8.343,0.787-12.541,0.723
			c-4.819-0.072-9.635,0.035-14.457-0.349c-3.623-0.288-7.188-0.835-10.749-1.473c-2.024-0.364-4.032-0.82-6.051-1.214
			c-0.817-0.16-1.006-0.018-0.966,0.857c0.089,1.998,0.237,3.993,0.353,5.99c0.028,0.483,0.311,0.629,0.742,0.62
			c0.375-0.008,0.753-0.006,1.129-0.006C53.418,71.286,60.253,71.286,67.087,71.286z M57.142,75.485
			c1.143,0.078,2.238-0.125,3.272-0.606c0.303-0.141,0.515-0.38,0.137-0.694c-0.048-0.039-0.095-0.082-0.138-0.127
			c-0.719-0.767-1.712-0.687-2.608-0.729c-0.748-0.037-0.583,0.836-0.872,1.274c-0.341,0.518-0.6,0.521-0.965-0.113
			c-0.172-0.299-0.303-0.526-0.677-0.483c-0.301,0.034-0.429,0.259-0.451,0.509c-0.03,0.338,0.158,0.608,0.458,0.741
			c0.222,0.101,0.478,0.136,0.723,0.161C56.392,75.458,56.768,75.466,57.142,75.485z M74.477,73.284
			c-0.332,0-0.465-0.024-0.58,0.005c-0.164,0.043-0.396,0.084-0.457,0.2c-0.103,0.19,0.111,0.318,0.259,0.432
			c1.101,0.841,2.315,1.461,3.665,1.786c0.892,0.216,1.674-0.095,1.922-0.728c0.142-0.357,0.143-0.785-0.271-0.971
			c-0.408-0.181-0.738-0.039-0.744,0.479c-0.01,0.637-0.42,0.678-0.893,0.619c-0.432-0.053-0.751-0.317-0.613-0.744
			c0.217-0.672,0.049-0.873-0.646-0.873C75.501,73.487,74.887,73.34,74.477,73.284z M68.509,76.56
			c0.47-0.023,0.711-0.199,0.685-0.57c-0.041-0.631,0.254-1.069,0.713-1.438c0.5-0.4,0.918-0.294,1.127,0.311
			c0.078,0.227,0.025,0.505,0.125,0.717c0.06,0.127,0.289,0.225,0.453,0.242c0.26,0.027,0.488-0.103,0.555-0.377
			c0.087-0.369,0.1-0.747-0.155-1.067c-0.442-0.553-1.881-0.767-2.78-0.427c-0.838,0.318-1.422,1.128-1.391,2.013
			C67.854,76.431,68.195,76.569,68.509,76.56z M64.718,73.278c-0.196,0-0.816-0.006-1.435,0.006
			c-0.106,0.002-0.212,0.072-0.316,0.111c0.058,0.105,0.089,0.266,0.178,0.31c0.622,0.313,1.241,0.965,1.889,0
			c0.142-0.209,0.457-0.191,0.608,0.084c0.117,0.213,0.16,0.465,0.272,0.685c0.221,0.434,0.541,0.825,0.843,0.113
			c0.191-0.456,0.975-0.681,0.713-1.146c-0.222-0.397-0.912-0.211-1.402-0.219C65.76,73.217,65.448,73.246,64.718,73.278z
			 M84.281,75.389c-0.438,0.052-0.907,0.005-1.286,0.169c-0.646,0.283-1.448,0.245-1.935,0.881c0.676,0.03,1.352,0.063,2.025,0.09
			c0.246,0.009,0.497-0.018,0.742,0.007c0.463,0.044,0.822-0.232,1.223-0.377c0.151-0.056,0.342-0.191,0.215-0.416
			c-0.057-0.101-0.158-0.212-0.262-0.239C84.77,75.438,84.521,75.423,84.281,75.389z M52.081,76.62c0.359,0,0.672,0.02,0.98-0.01
			c0.173-0.016,0.341-0.11,0.513-0.17c-0.153-0.088-0.295-0.205-0.459-0.258c-0.939-0.305-1.851-0.74-2.873-0.682
			c-0.163,0.01-0.317,0.102-0.476,0.155c0.102,0.147,0.203,0.301,0.306,0.448C50.607,76.878,51.418,76.544,52.081,76.62z
			 M61.972,76.524c0.435,0,0.594-0.327,0.691-0.67c0.062-0.213-0.132-0.306-0.317-0.271c-0.305,0.06-0.535,0.244-0.639,0.546
			C61.632,76.351,61.805,76.433,61.972,76.524z M59.645,76.935c0.226-0.117,0.653,0.166,0.613-0.354
			c-0.005-0.073-0.202-0.209-0.263-0.188c-0.264,0.099-0.511,0.241-0.764,0.368C59.371,76.817,59.508,76.875,59.645,76.935z
			 M74.275,76.306c-0.094-0.236-0.273-0.369-0.522-0.41c-0.231-0.039-0.336,0.123-0.34,0.297c-0.009,0.334,0.272,0.313,0.497,0.322
			C74.062,76.521,74.244,76.535,74.275,76.306z"/>
	</g>
</g>
</svg>
