<?xml version="1.0" encoding="utf-8"?>
<!-- Generator: Adobe Illustrator 16.0.4, SVG Export Plug-In . SVG Version: 6.00 Build 0)  -->
<!DOCTYPE svg PUBLIC "-//W3C//DTD SVG 1.1//EN" "http://www.w3.org/Graphics/SVG/1.1/DTD/svg11.dtd">
<svg version="1.1" id="Layer_ivory02" xmlns="http://www.w3.org/2000/svg" xmlns:xlink="http://www.w3.org/1999/xlink" x="0px" y="0px"
	 width="128px" height="128px" viewBox="0 0 128 128" enable-background="new 0 0 128 128" xml:space="preserve">
<g>
	<path fill="#010101" d="M59.587,106.677c0,0-15.525-0.341-17.402-0.171c-1.875,0.171-4.095,1.024-4.264,2.048
		c-0.17,1.023-3.242,14.331-3.411,15.354c-0.173,1.024,2.387,3.411,3.922,3.581c1.535,0.172,35.484,0.343,38.215,0.343
		c2.729,0,4.946-1.878,5.97-3.413c1.024-1.534-3.411-15.524-3.582-17.23s-5.118-1.535-7.336-1.364
		C69.482,105.995,59.587,106.677,59.587,106.677z"/>
	<path fill="#010101" d="M62.802,97.75c0,0,1.474,8.174-3.386,9.725c-2.988,0.952-11.43-2.219-11.43-2.219
		s-13.797-32.297-8.664-54.92C43.471,32.057,51.569,20.98,69.822,7.673C80.059,0.51,90.465,0.168,91.829,0.168
		c1.366,0,2.389,0.852,1.025,2.048c-1.366,1.192-11.946,7.844-16.889,12.452C65.093,24.803,55.789,39.837,53.64,54.153
		c-2.234,14.893,3.688,32.819,8.617,42.962"/>
	<path fill="#010101" d="M47.034,104.2c-0.025-0.285,4.811,0.7,7.623-0.681c5.354-2.632,7.376-7.229,7.557-7.177
		c1.089,0.317,4.881,14.201,4.881,14.201s-1.707,3.411-6.996,3.411c-5.288,0-8.254-0.998-8.254-0.998S47.17,105.787,47.034,104.2z"
		/>
</g>
</svg>
