<?xml version="1.0" encoding="utf-8"?>
<!-- Generator: Adobe Illustrator 16.0.4, SVG Export Plug-In . SVG Version: 6.00 Build 0)  -->
<!DOCTYPE svg PUBLIC "-//W3C//DTD SVG 1.1//EN" "http://www.w3.org/Graphics/SVG/1.1/DTD/svg11.dtd">
<svg version="1.1" id="Layer_shark01" xmlns="http://www.w3.org/2000/svg" xmlns:xlink="http://www.w3.org/1999/xlink" x="0px" y="0px"
	 width="128px" height="128px" viewBox="0 0 128 128" enable-background="new 0 0 128 128" xml:space="preserve">
<g>
	<path fill-rule="evenodd" clip-rule="evenodd" fill="#010101" d="M10.937,70.123c-0.647,0-1.182-0.106-1.65,0.025
		c-0.63,0.179-1.25,0.101-1.873,0.145c-0.416,0.028-0.777-0.134-1.14-0.299c-0.69-0.313-1.373-0.637-2.006-1.054
		c-1.149-0.754-2.285-1.522-3.265-2.508c-0.475-0.482-0.666-1.079-0.897-1.656c-0.13-0.325,0.058-0.67,0.298-0.958
		c0.454-0.545,1.096-0.784,1.726-0.908c0.518-0.103,1.076-0.155,1.603-0.233c1.176-0.172,2.405-0.104,3.515-0.641
		c0.917-0.015,1.704-0.508,2.564-0.73c0.901-0.235,1.752-0.682,2.648-0.909c1.145-0.288,2.29-0.586,3.419-0.916
		c1.154-0.335,2.333-0.575,3.482-0.933c0.361-0.11,0.755-0.298,1.176-0.221c0.07,0.014,0.161-0.012,0.229-0.046
		c0.608-0.289,1.271-0.333,1.917-0.46c0.596-0.116,1.185-0.268,1.776-0.4c0.378-0.084,0.778-0.153,1.154-0.231
		c0.436-0.092,0.878-0.31,1.35-0.215c0.327-0.387,0.819-0.044,1.234-0.292c0.295-0.178,0.776-0.102,1.175-0.172
		c0.393-0.068,0.77-0.3,1.189-0.199c0.299-0.361,0.817,0.02,1.132-0.33c0.051-0.053,0.221-0.027,0.327-0.003
		c0.477,0.108,0.897-0.173,1.361-0.193c0.436-0.019,0.877-0.136,1.307-0.284c0.372-0.127,0.785-0.028,1.189-0.18
		c0.511-0.195,1.087-0.213,1.618-0.367c0.525-0.151,1.03-0.361,1.555-0.519c0.389-0.117,0.751-0.4,1.059-0.684
		c0.637-0.586,1.237-1.199,1.601-2.025c0.212-0.478,0.604-0.872,0.906-1.311c0.857-1.245,1.703-2.495,2.563-3.737
		c0.729-1.054,1.417-2.13,2.244-3.121c0.436-0.524,0.858-1.08,1.225-1.669c0.257-0.409,0.626-0.756,0.953-1.119
		c1.037-1.156,2.032-2.363,3.202-3.395c1.194-1.049,2.426-2.059,3.769-2.902c0.65-0.408,1.402-0.666,2.141-0.926
		c0.319-0.11,0.523,0.102,0.782,0.055c0,0.331,0.283,0.577,0.166,0.979c-0.244,0.853-0.578,1.671-0.85,2.512
		c-0.105,0.323-0.202,0.651-0.268,0.984c-0.097,0.49-0.123,0.993-0.321,1.468c-0.061,0.142-0.019,0.329-0.019,0.497
		c-0.003,1.346,0.021,2.694-0.018,4.041c-0.01,0.347,0.175,0.616,0.194,0.94c0.019,0.316-0.155,0.675,0.16,0.94
		c-0.117,0.478,0.132,0.907,0.193,1.359c0.096,0.75,0.33,1.485,0.534,2.216c0.228,0.802,0.603,1.55,0.967,2.293
		c0.186,0.379,0.423,0.738,0.841,0.949c0.582,0.294,0.813,0.906,1.146,1.414c0.107,0.162-0.272,0.622-0.535,0.586
		c-0.429-0.057-0.771,0.25-1.198,0.194c-0.386-0.051-0.785-0.011-1.178-0.011c-0.225,0-0.558-0.092-0.651,0.019
		c-0.186,0.223-0.597,0.104-0.57,0.201c0.066,0.239,0.356,0.081,0.549,0.116c0.342,0.058,0.677-0.028,1.041,0.141
		c0.323,0.149,0.845-0.09,1.135,0.085c0.335,0.203,0.711-0.057,1.01,0.245c0.112,0.113,0.429,0.052,0.648,0.029
		c0.235-0.027,0.361,0.253,0.603,0.176c0.424-0.132,0.78,0.235,1.196,0.167c0.279,0.352,0.712,0.088,1.069,0.272
		c0.303,0.155,0.717,0.171,1.081,0.216c0.452,0.056,0.868,0.235,1.299,0.319c0.443,0.085,0.876,0.248,1.305,0.295
		c0.645,0.072,1.212,0.378,1.858,0.431c0.543,0.045,1.076,0.235,1.607,0.378c0.434,0.115,0.882,0.188,1.302,0.32
		c0.403,0.127,0.799,0.237,1.216,0.318c0.455,0.088,0.897,0.27,1.357,0.379c0.764,0.178,1.511,0.423,2.273,0.604
		c1.377,0.332,2.766,0.612,4.134,0.987c0.629,0.172,1.301,0.277,1.954,0.396c0.608,0.111,1.226,0.267,1.836,0.423
		c0.377,0.096,0.78,0.16,1.175,0.223c0.364,0.06,0.73,0.12,1.087,0.221c0.714,0.201,1.035,0.126,1.67-0.214
		c0.884-0.473,1.669-1.098,2.546-1.58c0.139-0.075,0.271-0.161,0.406-0.234c0.127-0.072,0.12,0.037,0.127,0.105
		c0.012,0.083,0.022,0.172,0,0.251c-0.237,0.861-0.129,1.369,0.429,1.958c0.098,0.103,0.208,0.191,0.297,0.301
		c0.114,0.141,0.388,0.24,0.262,0.454c-0.077,0.131-0.307,0.18-0.477,0.246c-0.072,0.027-0.167-0.004-0.248,0.007
		c-0.086,0.015-0.244-0.073-0.22,0.115c0.01,0.064,0.107,0.165,0.172,0.171c0.479,0.043,0.908,0.251,1.36,0.379
		c0.907,0.256,1.867,0.311,2.75,0.679c0.025,0.01,0.055,0.001,0.085,0.001c1.105-0.044,2.195,0.334,3.298,0.159
		c1.344-0.213,2.621-0.552,3.632-1.613c1.008-1.062,1.771-2.26,2.509-3.511c0.815-1.375,1.444-2.86,2.419-4.14
		c0.372-0.996,1.07-1.802,1.614-2.695c0.618-1.016,1.268-2.024,2.013-2.963c0.425-0.539,0.825-1.109,1.144-1.714
		c0.145-0.28,0.382-0.444,0.546-0.695c0.403-0.631,0.895-1.205,1.354-1.8c0.214-0.278,0.444-0.544,0.651-0.826
		c0.519-0.7,1.111-1.339,1.66-2.009c1.283-1.565,2.683-3.019,4.117-4.442c0.659-0.653,1.395-1.214,2.109-1.803
		c0.44-0.364,0.893-0.724,1.318-1.111c0.238-0.217,0.49-0.425,0.765-0.592c0.388-0.238,0.793-0.011,0.805,0.437
		c0.021,0.733-0.179,1.446-0.38,2.118c-0.271,0.898-0.483,1.816-0.802,2.698c-0.235,0.651-0.515,1.283-1.069,1.747
		c-0.288,0.243-0.646,0.345-0.966,0.52c-0.28,0.155-0.564,0.295-0.788,0.544c-0.246,0.277-0.385,0.57-0.375,0.944
		c0.011,0.477,0,0.954,0.002,1.432c0.007,0.679-0.216,1.28-0.48,1.906c-0.364,0.857-0.637,1.761-0.886,2.667
		c-0.174,0.631-0.25,1.283-0.467,1.908c-0.117,0.339-0.096,0.736-0.154,1.108c-0.073,0.445-0.18,0.898-0.24,1.35
		c-0.058,0.422-0.085,0.88-0.283,1.306c-0.265,0.564-0.277,1.21-0.498,1.812c-0.46,1.231-0.978,2.416-1.729,3.496
		c-0.608,0.87-1.201,1.746-1.787,2.63c-0.423,0.639-0.473,1.7-0.231,2.56c0.213,0.754,0.479,1.474,0.821,2.186
		c0.342,0.708,0.805,1.314,1.284,1.904c0.742,0.912,1.526,1.795,2.285,2.692c0.793,0.936,1.66,1.792,2.544,2.627
		c0.476,0.451,1.023,0.841,1.446,1.342c0.264,0.31,0.604,0.608,0.574,1.106c-0.031,0.544-0.213,0.844-0.737,0.854
		c-0.951,0.02-1.911,0.109-2.835-0.259c-0.341-0.136-0.728-0.115-1.088-0.208c-0.207-0.054-0.403-0.125-0.598-0.2
		c-0.678-0.263-1.399-0.396-2.088-0.642c-0.711-0.255-1.415-0.527-2.107-0.816c-1.172-0.49-2.355-0.983-3.453-1.614
		c-1.303-0.745-2.657-1.413-3.812-2.41c-0.678-0.585-1.457-1.063-2.215-1.554c-0.746-0.485-1.531-0.867-2.423-1.077
		c-0.455-0.106-0.931-0.011-1.345-0.191c-0.466-0.203-0.93-0.038-1.385-0.118c-0.394-0.067-0.707,0.23-1.112,0.193
		c-0.331-0.033-0.671-0.042-1.039,0.109c-0.336,0.141-0.785,0.153-1.18,0.181c-0.382,0.027-0.731,0.175-1.101,0.233
		c-0.25,0.04-0.527,0.065-0.773,0.144c-0.258,0.083-0.53,0.098-0.771,0.176c-0.604,0.194-1.25,0.169-1.84,0.436
		c-0.233,0.105-0.545,0.034-0.82,0.052c-0.046,0.004-0.089,0.054-0.133,0.082c0.044,0.028,0.092,0.084,0.133,0.079
		c0.503-0.062,0.907,0.267,1.375,0.354c0.416,0.08,0.472,0.371,0.118,0.619c-0.579,0.41-1.191,0.775-1.802,1.136
		c-0.269,0.156-0.552,0.109-0.854-0.002c-0.536-0.201-0.917-0.626-1.392-0.908c-0.363-0.214-0.703-0.471-1.064-0.685
		c-0.272-0.161-0.517-0.18-0.918-0.05c-0.142,0.046-0.271,0.02-0.401,0.045c-0.342,0.062-0.681-0.082-1.041,0.146
		c-0.265,0.167-0.706-0.099-1.011,0.191c-0.555-0.122-1.064,0.269-1.611,0.161c-0.326-0.063-0.542,0.212-0.859,0.189
		c-0.284-0.021-0.617-0.142-0.86,0.147c-0.014,0.014-0.054,0.012-0.079,0.007c-0.666-0.121-1.287,0.271-1.953,0.172
		c-0.109-0.018-0.223,0.003-0.336-0.003c-0.233-0.016-0.355,0.224-0.573,0.243c0.153,0.087,0.328,0.271,0.455,0.242
		c0.267-0.058,0.421,0.13,0.601,0.206c0.393,0.165,0.308,0.406,0.041,0.842c-0.33,0.548-0.864,0.709-1.348,1.005
		c-0.935,0.574-1.979,1.037-2.633,1.962c-0.39,0.548-0.871,0.991-1.329,1.465c-0.382,0.395-0.662,0.405-1.032-0.009
		c-0.65-0.733-1.334-1.438-1.922-2.228c-0.305-0.414-0.82-0.624-1.189-1.002c-0.12-0.124-0.479-0.091-0.711,0.021
		c-0.785,0.372-1.644,0.511-2.47,0.743c-0.368,0.103-0.772,0.198-1.176,0.215c-0.322,0.014-0.631-0.017-0.949,0.153
		c-0.271,0.144-0.666-0.136-0.932,0.185c-0.584-0.117-1.115,0.222-1.701,0.178c-0.793-0.059-1.568,0.281-2.371,0.159
		c-0.573,0.3-1.191,0.176-1.782,0.15c-0.531-0.021-1.013,0.197-1.532,0.188c-0.533-0.009-1.09-0.1-1.594,0.021
		c-0.824,0.196-1.642,0.126-2.462,0.143c-0.843,0.016-1.685,0.004-2.529,0.004c-0.839,0-1.686-0.035-2.524,0.008
		c-1.388,0.07-2.753-0.303-4.142-0.177c-0.605-0.242-1.24-0.146-1.865-0.175c-0.32-0.013-0.599-0.215-0.943-0.171
		c-0.292,0.038-0.575,0.019-0.866-0.143c-0.172-0.096-0.44-0.008-0.665-0.02c-0.211-0.011-0.447,0.081-0.614-0.151
		c-0.028-0.039-0.171-0.052-0.216,0.037c-0.046,0.093,0.075,0.114,0.106,0.177c0.121,0.246,0.394,0.28,0.593,0.406
		c0.67,0.425,1.401,0.749,1.984,1.313c0.314,0.307,0.449,0.684,0.465,1.07c0.041,0.953,0.034,1.909,0.002,2.862
		c-0.011,0.367-0.197,0.72-0.168,1.11c0.032,0.374,0.084,0.767-0.155,1.108c-0.015,0.021-0.006,0.059-0.003,0.084
		c0.112,0.943-0.244,1.85-0.183,2.794c0.032,0.463,0.098,0.909,0.178,1.363c0.075,0.422-0.049,0.848,0.149,1.288
		c0.154,0.346-0.089,0.815,0.193,1.182c-0.09,0.58,0.257,1.118,0.17,1.698c-0.013,0.084,0.02,0.175-0.004,0.252
		c-0.091,0.271-0.186,0.542-0.302,0.802c-0.049,0.112-0.139,0.095-0.731-0.216c-0.47-0.249-0.892-0.568-1.317-0.895
		c-0.686-0.523-1.304-1.115-1.878-1.746c-0.884-0.971-1.672-2.007-2.374-3.135c-0.625-1.006-1.164-2.042-1.684-3.098
		c-0.528-1.074-0.944-2.193-1.313-3.33c-0.322-0.989-0.706-1.968-0.924-2.981c-0.136-0.645-0.474-1.254-0.418-1.934
		c0.025-0.312-0.175-0.551-0.228-0.841c-0.034-0.188-0.22-0.362-0.548-0.43c-0.852-0.17-1.712-0.031-2.542-0.163
		c-0.712-0.111-1.428-0.05-2.121-0.168c-0.614-0.104-1.233-0.251-1.844-0.404c-1.852-0.462-3.625-1.146-5.438-1.715
		c-0.72-0.228-1.496-0.459-2.285-0.375c-0.371,0.041-0.658-0.221-1.027-0.188c-0.313,0.03-0.665,0.119-0.94-0.156
		c-0.494,0.058-0.967-0.096-1.448-0.149c-0.299-0.034-0.574-0.16-0.855-0.167c-0.309-0.011-0.579-0.093-0.853-0.188
		c-0.542-0.191-1.066-0.419-1.557-0.718c-0.107-0.066-0.263-0.164-0.211-0.325c0.05-0.152,0.164-0.332,0.342-0.295
		c0.3,0.063,0.5-0.219,0.774-0.176c0.692,0.109,1.35-0.211,2.036-0.171c0.086,0.006,0.199-0.013,0.194-0.089
		c-0.006-0.084-0.136-0.054-0.207-0.084C12.285,69.984,11.529,70.191,10.937,70.123z"/>
</g>
</svg>
