<?xml version="1.0" encoding="utf-8"?>
<!-- Generator: Adobe Illustrator 16.0.4, SVG Export Plug-In . SVG Version: 6.00 Build 0)  -->
<!DOCTYPE svg PUBLIC "-//W3C//DTD SVG 1.1//EN" "http://www.w3.org/Graphics/SVG/1.1/DTD/svg11.dtd">
<svg version="1.1" id="Layer_0202" xmlns="http://www.w3.org/2000/svg" xmlns:xlink="http://www.w3.org/1999/xlink" x="0px" y="0px"
	 width="128px" height="128px" viewBox="0 0 128 128" enable-background="new 0 0 128 128" xml:space="preserve">
<g id="l3IkYP.tif_1_">
	<g>
		<g>
			<path fill-rule="evenodd" clip-rule="evenodd" d="M40.471,32.783c4.663,0.223,9.317,0.506,13.992,0.138
				c4.826-0.379,9.423-1.605,13.9-3.366c4.755-1.87,9.369-4.088,14.193-5.784c9.554-3.358,19.118-3.434,28.562,0.294
				c6.674,2.636,11.582,7.23,14.165,14.064c1.026,2.716,1.413,5.581,1.796,8.434c0.591,4.39,0.859,8.805,0.764,13.238
				c-0.107,5.043-0.599,10.052-1.562,14.998c-1.292,6.634-4.67,12.131-9.516,16.77c-7.174,6.867-15.789,10.982-25.385,13.179
				c-8.373,1.915-16.865,2.258-25.416,1.825c-8.895-0.451-17.674-1.775-26.392-3.529c-7.275-1.464-14.519-3.082-21.672-5.07
				c-3.383-0.938-6.557-2.365-9.457-4.369c-4.477-3.092-7.225-7.182-7.774-12.732c-0.718-7.261-0.655-14.51-0.121-21.768
				c0.131-1.781,0.185-3.578,0.482-5.333c0.757-4.485,3.187-8.101,6.203-11.376c5.804-6.302,13.05-9.412,21.557-9.822
				C32.693,32.383,36.58,32.602,40.471,32.783z M71.948,82.773c4.845-0.021,9.945-0.327,14.997-1.198
				c7.374-1.271,14.384-3.562,20.735-7.612c5.295-3.375,9.929-7.435,13.147-12.93c2.677-4.575,4.081-9.492,3.47-14.789
				c-0.951-8.216-5.477-14.045-12.782-17.609c-8.37-4.082-17.171-4.454-26.114-2.197c-4.256,1.074-8.259,2.887-12.289,4.592
				c-4.522,1.914-9.066,3.754-13.943,4.595c-6.014,1.036-12.057,0.664-18.094,0.345c-4.42-0.233-8.834-0.457-13.25,0.055
				c-9.559,1.107-16.729,5.948-21.812,14.006c-1.426,2.261-2.283,4.755-2.4,7.448c-0.21,4.864,2.023,8.578,5.628,11.585
				c3.695,3.081,8.07,4.825,12.661,5.966c8.655,2.147,17.362,4.076,26.166,5.535C55.883,81.861,63.743,82.689,71.948,82.773z"/>
			<path fill-rule="evenodd" clip-rule="evenodd" d="M94.288,28.66c6.053,0.021,11.068,0.791,15.732,3.168
				c5.535,2.825,9.338,7.08,10.637,13.287c0.953,4.548,0.129,8.875-1.896,12.997c-2.539,5.174-6.513,9.025-11.255,12.181
				c-3.354,2.232-6.925,4-10.704,5.392c-6.535,2.407-13.09,2.543-19.646,0.197c-4.885-1.747-9.774-3.492-14.564-5.491
				c-2.512-1.047-4.911-2.319-7.128-3.922c-5.931-4.284-7.415-9.685-5.241-16.602c0.219-0.695,0.5-1.371,0.75-2.056
				c1.592-4.337,4.598-7.232,9.015-8.53c7.175-2.106,13.998-5.131,20.949-7.825C85.509,29.686,90.206,28.492,94.288,28.66z"/>
			<path fill-rule="evenodd" clip-rule="evenodd" d="M46.647,59.559c-0.042,4.021-0.714,7.822-2.885,11.223
				c-1.23,1.928-2.768,3.49-5.083,4.097c-1.243,0.325-2.502,0.392-3.739,0.134c-4.564-0.946-9.165-1.757-13.621-3.149
				c-3.709-1.159-7.178-2.801-9.987-5.593c-3.963-3.939-4.698-9.073-1.924-13.917c2.292-4.003,5.575-7.034,9.508-9.389
				c0.903-0.54,1.839-1.02,2.798-1.464c4.189-1.947,8.542-2.103,12.968-1.154c5.546,1.187,8.859,4.794,10.546,10.048
				C46.19,53.389,46.55,56.489,46.647,59.559z M27.543,55.206c-2.439-0.022-3.997,0.396-5.273,1.325
				c-2.007,1.461-2.283,3.956-0.643,5.826c2.171,2.475,7.567,3.725,10.574,2.415c1.609-0.701,2.797-1.823,3.021-3.659
				c0.228-1.873-0.596-3.279-2.111-4.337C31.334,55.536,29.297,55.297,27.543,55.206z"/>
			<path fill-rule="evenodd" clip-rule="evenodd" d="M66.271,79.408c-5.772-0.179-11.359-0.906-16.932-1.76
				c-1.122-0.172-2.195-0.569-3.152-1.217c-1.519-1.027-1.578-2.568-0.115-3.707c1.538-1.199,3.339-1.62,5.245-1.614
				c2.323,0.007,4.587,0.503,6.851,0.961c3.342,0.675,6.581,1.714,9.789,2.853c0.866,0.307,1.601,0.772,2.104,1.562
				c0.755,1.188,0.407,2.218-0.904,2.693C68.171,79.537,67.149,79.38,66.271,79.408z"/>
		</g>
	</g>
</g>
</svg>
