<?xml version="1.0" encoding="utf-8"?>
<!-- Generator: Adobe Illustrator 16.0.4, SVG Export Plug-In . SVG Version: 6.00 Build 0)  -->
<!DOCTYPE svg PUBLIC "-//W3C//DTD SVG 1.1//EN" "http://www.w3.org/Graphics/SVG/1.1/DTD/svg11.dtd">
<svg version="1.1" id="Layer_0204" xmlns="http://www.w3.org/2000/svg" xmlns:xlink="http://www.w3.org/1999/xlink" x="0px" y="0px"
	 width="128px" height="128px" viewBox="0 0 128 128" enable-background="new 0 0 128 128" xml:space="preserve">
<path fill-rule="evenodd" clip-rule="evenodd" d="M5.616,73.162c0.578-0.774,0.978-1.7,1.78-2.272
	c0.27-0.192,0.36-0.493,0.198-0.785c-0.448-0.812-0.135-1.413,0.366-2.096c0.364-0.495,0.697-1.173,0.75-1.735
	c0.08-0.827,0.386-1.517,0.695-2.229c0.15-0.345,0.211-0.648-0.064-0.925c-1.062-1.068-0.747-2.455-0.849-3.735
	c-0.029-0.363,0.004-0.712-0.412-0.79c-0.421-0.078-0.632,0.218-0.621,0.604c0.014,0.504-0.081,0.906-0.579,1.152
	c-0.241,0.119-0.392,0.38-0.3,0.637c0.259,0.718-0.194,1.412-0.382,1.928c-0.481,1.322-0.887,2.693-1.507,3.961
	c-0.217,0.444-0.657,0.823-1.02,1.198c-0.23,0.239-0.6,0.119-0.926-0.085c-0.345-0.218-0.258-0.383-0.175-0.708
	c0.155-0.602,0.059-1.312-0.016-1.854c-0.168-1.224,0.213-2.378,0.302-3.519c0.108-1.393,0.711-2.828,1.114-4.236
	c0.333-1.159,0.604-2.347,0.646-3.493c0.022-0.595,0.372-1.266,0.047-1.875c-0.33-0.622-0.233-1.417-0.178-1.935
	c0.122-1.139,0.099-2.308,0.261-3.455c0.17-1.201,0.425-2.418,0.799-3.5c0.468-1.358,1.271-2.624,1.826-3.991
	c0.201-0.495,0.136-1.123,0.454-1.44c0.586-0.583,0.408-1.467,0.979-2.018c0.109-0.105,1.04-1.816,1.145-1.942
	c0.733-0.864,1.547-1.611,2.475-2.29c0.474-0.347,1.329-0.441,1.393-1.26c0.98,0.092,1.478-0.914,2.359-1.04
	c3.143-0.453,6.68-1.523,9.977-2.049c0.583-0.092,1.334-0.469,1.604-0.366c0.899,0.348,1.598-0.234,2.281-0.382
	c1.592-0.343,3.216-0.454,4.792-0.534c1.645-0.083,3.762,0.055,5.301,0.696c1.122,0.467,1.732,1.144,2.967,1.256
	c1.102,0.1,2.113-0.09,3.253-0.004c0.805,0.06,1.501-0.614,2.277-0.19l2.116-0.359c1.132,0.23,2.296,0.158,3.439,0.292
	c1.375,0.16,2.805,0.231,4.208,0.26c0.572,0.01,1.206,0.009,1.791-0.103c0.564-0.108,2.356-0.38,2.822-0.31
	c0.631,0.094,1.191,0.295,1.795-0.323c0.395-0.401,1.302-0.4,1.813-0.307c0.867,0.159,1.622-0.177,2.387-0.273
	c2.351-0.297,4.699,0.224,7.045,0.482c1.504,0.165,2.802,0.679,4.302,0.217c1.276-0.392,2.267-0.002,3.324,0.487
	c0.691,0.32,1.389,0.896,2.08,0.891c1.345-0.01,2.684-0.259,3.991,0.277c0.133,0.054,0.422,0.028,0.468-0.055
	c0.36-0.653,1.154-0.562,1.664-1.037c0.747-0.7,1.849-1.123,2.788-1.206c1.504-0.132,2.499-1.138,4.022-1.393
	c1.123-0.188,2.298-0.255,3.366-0.681c1.134-0.452,1.989-0.842,3.283-0.711c0.811,0.082,1.35,0.683,2.177,0.689
	c0.7,0.006,1.353,0.391,2.161,0.305c0.707-0.076,1.5-0.012,2.199-0.114c1.329-0.195,2.56-0.844,3.877-1.178
	c0.646-0.164,0.659-0.088,0.55,0.482c-0.131,0.67-0.288,1.311,0.237,1.987c0.78,1.003,1.641,1.945,2.383,2.986
	c0.281,0.395,0.339,0.898,0.771,1.237c1.03,0.807,1.828,1.882,2.787,2.747c0.583,0.525,0.785,1.478,1.69,1.613
	c-0.003,0.455,0.18,0.774,0.573,1.046c0.922,0.633,1.469,1.679,1.937,2.573c0.565,1.082,1.293,2.187,1.437,3.501
	c0.067,0.617-0.441,2.542-0.99,2.621c-0.853,0.122-1.269,0.828-1.937,1.181c-0.785,0.414-2.369,0.52-3.031-0.049
	c-0.506-0.434-0.951-1.102-1.455-1.31c-0.64-0.263-1.305-0.591-2.101-0.696c-1.799-0.238-3.629-0.826-5.134-1.904
	c-0.728-0.519-1.123-1.37-1.894-0.173c-1.028-0.206-1.903,0.189-2.864,0.524c-1.466,0.512-2.667,1.263-3.395,2.55
	c-0.523,0.927-1.027,1.924-1.772,2.652c-2.279,2.23-3.446,2.149-5.065,4.643c-1.611,2.484-3.123,4.847-5.107,7.081
	c-0.285,0.32-0.273,0.488-0.719,0.281c-0.404-0.187-0.722,0.215-0.606,0.541c0.261,0.741-0.27,1.479-0.137,1.993
	c0.223,0.872-0.873,1.098-0.567,1.82c-1.119,0.36-1.465,1.781-2.767,1.966c-0.39,0.056-0.901,0.426-1.186,0.65
	c-0.621,0.491-1.505,0.693-1.814,1.712c-0.544,1.793-0.823,2.938-2.434,4.066c-1.076,0.752-2.935,1.244-3.666,2.325
	c-0.569,0.839,0.043,3.044,0.335,3.974c0.333,1.056,0.403,2.13,0.694,3.163c0.153,0.548-0.207,1.125,0.288,1.69
	c0.19,0.219,0.01,1.197-0.132,1.47c-0.423,0.816-0.276,1.709-0.174,2.355c0.236,1.467,0.488,2.97,0.898,4.404
	c0.528,1.847,1.19,3.674,2.018,5.402c0.252,0.529,0.37,1.151,0.748,1.621c0.836,1.043,1.362,2.292,2.147,3.341
	c0.457,0.613,0.543,1.569,1.428,1.831c-0.142,0.355-0.357,0.468-0.655,0.168c-0.239-0.24-0.468-0.2-0.79-0.142
	c-0.696,0.127-1.417,0.183-2.123,0.16c-0.797-0.023-1.583-0.21-2.383,0.033c-0.622,0.188-1.9-0.833-1.593-1.264
	c0.527-0.74-0.271-1.261-0.081-1.91c0.093-0.314-0.299-0.617-0.55-0.551c-1.188,0.317-1.648-0.144-1.611-1.311
	c0.006-0.2-0.358-2.004-0.365-2.185c-0.043-1.137,0.091-2.34-0.15-3.394c-0.267-1.163-0.425-2.374-0.528-3.507
	c-0.165-1.809-0.835-3.414-1.403-5.048c-0.465-1.342-0.947-2.654-1.332-4.033c-0.478-1.722-0.732-3.277-1.7-4.812
	c-0.913-1.45-1.907-1.574-3.493-2.004c-0.766-0.208-1.68-0.195-2.377,0.224c-0.985,0.594-0.5,0.971-0.707,1.875
	c-0.146,0.639-0.508,1.216-0.583,1.787c-0.146,1.109-0.545,2.147-0.889,3.163c-0.17,0.502-0.38,1.173-0.866,1.661
	c-1.146,1.151-1.98,2.589-2.675,4.016c-0.495,1.016-0.937,2.145-1.198,3.317c-0.125,0.567-0.219,1.309-0.565,1.76
	c-0.472,0.619-0.596,1.427-0.645,1.973c-0.115,1.26-0.806,2.361-0.716,3.692c0.058,0.853-0.056,1.736,0.046,2.631
	c0.105,0.916,0.479,1.782,0.428,2.726c-0.015,0.285-0.186,0.648-0.289,0.548c-0.584-0.589-1.256-0.107-1.858-0.179
	c-0.77-0.089-1.493-0.368-2.247-0.398c-0.562-0.845-0.362-1.695,0.022-2.523c0.65-1.402,0.399-2.776-0.815-3.703
	c-0.281-0.216-0.255-0.293-0.182-0.555c0.264-0.947,0.606-1.806,1.133-2.687c0.865-1.448,1.896-2.822,2.429-4.507
	c0.434-1.372,1.439-2.508,1.721-4.039c0.168-0.919,0.39-1.812,0.435-2.764c0.05-1.063,0.029-2.188,0.323-3.176
	c0.336-1.126,0.36-2.33,0.893-3.398c0.384-0.769,0.851-1.102,0.296-1.981c-0.744-1.18-2.688-1.313-3.844-0.908
	c-1.312,0.46-2.777,0-4.178,0.033c-1.153,0.024-2.39,0.121-3.601-0.11c-0.532-0.102-1.317-0.236-1.852,0.022
	c-0.656,0.319-1.508-0.357-1.993,0.477c-1.283-0.531-2.453,0.271-3.687,0.362c-1.455,0.107-2.822,0.784-4.385,0.496
	c-0.873-0.163-1.826,0.085-2.735-0.21c-0.87-0.281-1.628,0.694-2.036,1.152c-2.116,2.377-0.799,5.025,0.414,7.621
	c0.453,0.97,0.971,2.048,1.184,3.202c0.105,0.574,0.485,1.244,0.884,1.783c1.125,1.516,2.738,2.59,3.795,4.17
	c0.899-0.029,0.539,1.086,1.122,1.268c0.75,0.235,0.488,1.347,1.342,1.435c-0.259,1,1.186,1.121,1.057,2.054
	c1.22,0.929,2.424,1.867,3.438,3.042c0.422,0.49,0.579,1.22,1.299,1.493c0.081,0.032,0.332,0.67,0.159,1.044
	c-0.18,0.386-0.529,0.051-0.789,0.129c-0.08,0.023-0.161,0.042-0.243,0.062c-1.485,0.396-2.941,0.976-4.52,0.714
	c-0.051-0.432-0.783-0.764-0.599-0.952c0.77-0.788-0.203-1.312-0.187-1.968c0.009-0.341-0.274-0.613-0.675-0.621
	c-0.414-0.005-0.568,0.207-0.598,0.629c-0.037,0.541-0.414,0.443-0.647,0.176c-0.185-0.215-0.256-0.598-0.59-0.58
	c-0.625,0.031-0.761-0.479-0.741-0.818c0.051-0.823-0.38-1.449-0.594-2.166c-0.17-0.567-0.71-0.672-0.874-1.158
	c-0.428-1.271-1.42-2.176-2.234-3.176c-1.007-1.234-2.163-2.357-3.207-3.562c-0.34-0.393-0.817-0.631-1.081-1.078
	c-0.791-1.34-1.681-2.601-2.691-3.792c-0.322-0.383-0.961-0.143-1.023-0.513c-0.379-2.27-0.898-5.092-1.741-7.223
	c-0.882-2.229-1.803-2.145-3.037-4.162c-0.162-0.264-0.289-0.483-0.621-0.554c-1.114-0.24-2.438,0.349-3.034,1.372
	c-0.258,0.443-1.155,1.099-1.528,1.312c-1.52,0.866-3.323,1.646-4.674,2.743C9.004,77.76,8.276,80.48,7.76,82.298
	c-0.175,0.618-0.593,1.135-0.777,1.783c-0.192,0.675-0.971,1.254-0.99,1.889c-0.021,0.712-0.966,0.681-0.762,1.285
	c0.266,0.785-0.454,1.382-0.297,2.221c0.072,0.383,0.145,1.003,0.054,1.496c-0.166,0.875,0.088,1.701,0.145,2.551
	c0.042,0.61,0.285,1.357,0.169,1.756C5.076,96.056,5.5,96.665,5.536,97.32c0.028,0.528,0.011,1.391,0.562,1.841
	c1.312,1.075,1.971,2.649,3.054,3.896c0.146,0.167,0.169,0.479,0.174,0.725c0.005,0.234-0.08,0.362-0.386,0.19
	c-0.726-0.404-1.531-0.1-2.3-0.154c-0.922-0.067-1.877,0.179-2.68-0.454c0.044-0.703-0.814-0.742-0.97-1.371
	c-0.168-0.685-0.654-0.975-1.293-0.348c-0.226,0.219-0.521,0.24-0.822,0.185c0.19-0.626-0.447-0.98-0.491-1.592
	c-0.06-0.845,0.644-1.598,0.196-2.438c0.634-0.495-0.005-1.177,0.224-1.677c0.354-0.776,0.171-1.56,0.209-2.333
	c0.058-1.146,0.085-2.295,0.046-3.45c-0.042-1.225,0.236-2.456,0.284-3.689c0.044-1.128,0.139-2.341,0.489-3.306
	c0.444-1.224,0.135-2.442,0.527-3.597c-0.645-0.531,0.262-1.31-0.173-1.704c-0.643-0.58,0.562-1.188-0.16-1.651
	c-0.137-0.089,2.682-2.32,2.929-2.521C5.209,73.666,5.423,73.423,5.616,73.162z"/>
</svg>
