<?xml version="1.0" encoding="utf-8"?>
<!-- Generator: Adobe Illustrator 16.0.4, SVG Export Plug-In . SVG Version: 6.00 Build 0)  -->
<!DOCTYPE svg PUBLIC "-//W3C//DTD SVG 1.1//EN" "http://www.w3.org/Graphics/SVG/1.1/DTD/svg11.dtd">
<svg version="1.1" id="Layer_0210" xmlns="http://www.w3.org/2000/svg" xmlns:xlink="http://www.w3.org/1999/xlink" x="0px" y="0px"
	 width="128px" height="128px" viewBox="0 0 128 128" enable-background="new 0 0 128 128" xml:space="preserve">
<g>
	<path fill-rule="evenodd" clip-rule="evenodd" d="M89.301,115.456c-4.67-0.14-9.252-1.031-13.429-3.931
		c-3.587-2.49-7.468-4.562-10.952-7.227c-2.226-1.703-4.074-3.667-5.271-6.293c-1.553-3.406-4.025-6.238-6.31-9.173
		c-2.823-3.625-5.857-7.092-8.099-11.143c-1.209-2.185-2.236-4.448-2.711-6.896c-0.427-2.202-1.362-4.137-2.558-5.99
		c-0.908-1.409-1.815-2.822-2.655-4.273c-0.934-1.611-1.398-3.353-1.237-5.243c0.056-0.649,0.047-1.319-0.043-1.964
		c-0.519-3.713-2.283-6.336-6.173-7.229c-1.556-0.356-3.056-0.967-4.562-1.513c-3.061-1.11-6.164-0.915-9.284-0.365
		c-3.864,0.68-7.548,0.025-11.105-1.515c-1.011-0.438-1.941-1.029-2.694-1.841c-1.286-1.385-1.809-2.96-1.145-4.827
		c0.84-2.365,2.187-4.37,4.573-5.298c3.137-1.22,4.425-3.518,4.681-6.717c0.227-2.856,1.125-5.567,2.29-8.175
		c1.48-3.313,3.606-4.157,7.36-2.423c4.42,2.042,7.97,5.145,9.236,10.179c0.28,1.113,1.02,1.924,1.804,2.692
		c2.321,2.271,5.024,3.978,7.974,5.309c0.671,0.303,1.353,0.497,2.117,0.423c0.574-0.055,1.191-0.066,1.738,0.084
		c7.078,1.952,14.467,1.667,21.625,3.031c5.736,1.093,11.663,0.759,17.346,2.177c9.723,2.426,19.088,5.851,28.013,10.437
		c5.094,2.617,8.986,6.363,11.359,11.676c1.758,3.933,3.393,7.9,4.796,11.973c2.361,6.854,1.211,13.215-2.481,19.262
		c-0.725,1.186-1.529,2.352-1.881,3.693c-1.085,4.148-3.575,7.469-6.294,10.602c-2.447,2.822-5.798,4.459-9.257,5.582
		c-3.124,1.017-6.235,1.879-9.098,3.611C94.746,115.504,92.081,115.445,89.301,115.456z M39.753,33.855l0.103-0.065
		c0,0-0.064,0.104-0.064,0.104c-0.179,0.118-0.357,0.237-0.535,0.355c-2.439,0.705-4.871,1.446-7.437,1.547
		c-0.351,0.014-0.82-0.047-0.97,0.334c-0.197,0.499,0.303,0.751,0.589,1.038c1.694,1.69,3.565,3.211,4.955,5.194
		c0.112,0.16,0.332,0.244,0.502,0.363c0.029-0.21,0.116-0.431,0.079-0.628c-0.217-1.167-0.758-2.184-1.481-3.115
		c-0.527-0.678-0.402-1.12,0.433-1.469c1.505-0.631,2.756-1.591,3.471-3.125C39.515,34.211,39.634,34.033,39.753,33.855z
		 M92.771,68.922c0.729-0.011,1.456-0.01,2.184-0.033c3.364-0.107,6.043,1.23,8.288,3.704c0.639,0.704,0.811,2.373,2.022,1.938
		c0.898-0.323,1.258-1.706,1.654-2.729c0.423-1.095,0.708-2.209,0.721-3.399c0.049-4.412-1.239-8.227-5.01-10.825
		c-2.863-1.973-4.914-4.745-7.361-7.125c-0.541-0.526-0.906-1.16-0.781-1.954c0.107-0.679-0.135-0.88-0.824-0.86
		c-4.049,0.119-7.77,1.078-10.857,3.896c-0.647,0.591-1.195,1.156-0.794,2.039c0.591,1.3,0.082,2.415-0.432,3.55
		c-0.329,0.729-0.728,1.433-1.006,2.181c-1.258,3.367,0.289,5.57,3.883,5.62c1.89,0.026,3.791-0.151,5.658,0.355
		c2.362,0.643,2.761,1.157,2.693,3.68l-0.093,0.063L92.771,68.922z M82.199,66.857c-1.229,0.073-1.939-0.397-2.488-1.135
		c-0.999-1.346-1.393-2.868-1.178-4.529c0.234-1.807,0.5-3.607,0.747-5.411c0.038-0.28,0.109-0.798,0.061-0.811
		c-0.437-0.114-0.6,0.296-0.809,0.559c-2.591,3.25-5.179,6.501-7.75,9.767c-4.442,5.641-6.31,11.89-4.449,19.008
		c0.412,1.574,0.533,3.11-0.001,4.722c-1.283,3.872-0.166,7.351,3.032,9.865c2.235,1.756,4.511,3.466,6.505,5.509
		c0.906,0.929,1.598,1.885,1.054,3.299c-0.358,0.931,0.036,1.725,0.753,2.329c1.14,0.962,2.514,1.446,3.941,1.79
		c0.563,0.135,1.023-0.004,1.215-0.608c1.44-4.559,4.398-8.38,6.202-12.762c0.306-0.743,0.577-1.491,0.625-2.31
		c0.082-1.424-0.178-2.469-1.813-3.012c-2.91-0.966-4.675-3.189-5.506-6.073c-1.629-5.653-0.689-10.673,3.9-14.706
		c1.046-0.92,2.111-1.812,3.398-2.36c1.015-0.431,0.858-1.018,0.324-1.683c-0.566-0.705-1.369-1.084-2.188-1.394
		C85.84,66.18,83.893,65.639,82.199,66.857z M88.854,112.73c2.418,0.02,4.926,0.094,7.023-1.205
		c2.594-1.605,5.414-2.415,8.274-3.305c3.345-1.041,6.555-2.594,8.914-5.277c2.593-2.951,4.916-6.119,5.961-10.043
		c0.354-1.331,1.136-2.514,1.887-3.686c1.802-2.807,2.811-5.915,3.289-9.191c0.153-1.051,0.278-2.068-0.769-2.975
		c-4.846-4.198-11.34-4.442-16.461-0.524c-0.559,0.428-0.979,0.74-0.568,1.587c0.72,1.482,0.453,3.067-0.213,4.455
		c-2.83,5.89-7.201,10.006-13.761,11.395c-0.834,0.176-1.297,0.238-1.208,1.274c0.145,1.71-0.467,3.301-1.118,4.854
		c-1.157,2.76-2.619,5.369-4.033,8.002C83.59,112.714,83.602,112.721,88.854,112.73z M99.906,47.172
		c-0.898,0.466-2.056-0.179-2.51,0.708c-0.423,0.825,0.337,1.644,0.795,2.377c0.269,0.43,0.606,0.822,0.947,1.2
		c1.516,1.687,3.247,3.146,4.945,4.637c3.242,2.846,4.545,6.688,5.418,10.714c0.262,1.201,0.076,2.447-0.242,3.678
		c-0.225,0.867-1.368,1.879-0.679,2.474c0.711,0.615,1.891-0.251,2.846-0.55c0.417-0.131,0.824-0.293,1.233-0.445
		c2.142-0.793,4.217-0.951,6.313,0.268c0.928,0.54,2.038,0.772,3.077,1.107c0.455,0.146,0.984,0.625,1.398,0.145
		c0.356-0.412-0.002-0.986-0.145-1.443c-1.52-4.881-3.44-9.59-5.853-14.109C113.673,50.854,106.973,48.729,99.906,47.172z
		 M29.96,43.123c-0.56,0-0.707-0.015-0.85,0.003c-0.331,0.041-0.839-0.154-0.942,0.224c-0.11,0.411,0.427,0.496,0.717,0.675
		c0.678,0.418,1.377,0.803,2.054,1.224c1.056,0.657,1.05,0.665,1.543-0.307c0.032-0.062,0.08-0.128,0.139-0.165
		c2.147-1.324,0.314-1.126-0.499-1.284C31.271,43.327,30.413,43.199,29.96,43.123z"/>
</g>
</svg>
