<?xml version="1.0" encoding="utf-8"?>
<!-- Generator: Adobe Illustrator 16.0.4, SVG Export Plug-In . SVG Version: 6.00 Build 0)  -->
<!DOCTYPE svg PUBLIC "-//W3C//DTD SVG 1.1//EN" "http://www.w3.org/Graphics/SVG/1.1/DTD/svg11.dtd">
<svg version="1.1" id="Layer_0301" xmlns="http://www.w3.org/2000/svg" xmlns:xlink="http://www.w3.org/1999/xlink" x="0px" y="0px"
	 width="128px" height="128px" viewBox="0 0 128 128" enable-background="new 0 0 128 128" xml:space="preserve">
<g>
	<path d="M74.859,49.489c0.974-0.296,1.738,0.558,2.67,0.484c0.029,0.076,0.044,0.167,0.094,0.226
		c0.031,0.036,0.118,0.025,0.179,0.035c-0.103-0.073-0.206-0.147-0.312-0.221c-0.112-0.22-0.18-0.489-0.352-0.65
		c-0.482-0.459-1.009-0.874-1.52-1.305c0.723-0.47,1.492-0.141,2.227-0.076c0.848,0.076,1.625,0.463,2.32,0.974l-0.036-0.038
		c0.185,0.399,0.377,0.313,0.573,0.01l-0.02,0.018c0.565-0.173,0.965,0.26,1.444,0.397c0.685,0.195,1.177,0.075,1.175-0.816
		c0-0.313,0.125-0.72,0.344-0.915c0.287-0.257,0.627-0.104,0.773,0.294c-0.136,0.072-0.271,0.144-0.406,0.216
		c0.133,0.084,0.266,0.169,0.396,0.253c0.057,0.293,0.211,0.493,0.521,0.541c0.032,0.319,0.194,0.511,0.526,0.532
		c0.024,0.33,0.207,0.499,0.53,0.525c0.039,0.313,0.207,0.494,0.527,0.527c0.18,0.18,0.359,0.36,0.539,0.54
		c0.106,0.087,0.016,0.562,0.358,0.186c-0.136-0.046-0.271-0.093-0.408-0.139c-0.046-0.31-0.196-0.518-0.532-0.543
		c0.006-0.354-0.189-0.512-0.524-0.531c-0.007-0.342-0.16-0.538-0.521-0.533c0.004-0.364-0.184-0.529-0.537-0.522
		c-0.007-0.348-0.234-0.474-0.531-0.533c0.002-0.19,0.004-0.38,0.007-0.57c0.659-0.15,1.079,0.283,1.532,0.631
		c0.519,0.397,0.967,0.911,1.674,0.992l-0.029-0.027c0.196,0.469,0.387,0.404,0.571-0.006l-0.037,0.036
		c0.46-0.016,0.938-0.079,1.096,0.528c-0.417,0.149-0.396,0.315-0.019,0.495c0.05,0.054,0.098,0.107,0.146,0.16
		c-0.06-0.042-0.12-0.085-0.179-0.129c0.002-0.191,0.003-0.382,0.004-0.573c1.463,0.104,2.602,1.008,3.816,1.655
		c1.582,0.842,3.207,1.276,4.979,1.521c4.946,0.684,9.872,1.518,14.797,2.345c1.472,0.248,2.947,0.625,4.101,1.666
		c2.216,2.003,4.938,2.968,7.713,3.82c0.848,0.26,1.676,0.521,2.394,1.059c1.564,1.174,1.47,1.874-0.374,2.742
		c-0.236,0.11-0.488,0.186-0.732,0.275c0.214,0.141,0.423,0.289,0.643,0.416c0.152,0.088,0.332,0.126,0.482,0.213
		c1.104,0.645,1.233,1.176,0.32,1.991c-1.313,1.172-2.74,2.295-4.386,2.884c-7.919,2.837-15.679,6.206-23.994,7.771
		c-3.522,0.666-7.081,1.255-10.694,1.354c-1.754,0.05-3.496,0.327-5.248,0.416c-6.637,0.343-13.121-0.715-19.557-2.202
		c-2.73-0.632-5.476-1.203-8.198-1.871c-1.75-0.43-3.379-0.215-5.119,0.238c-3.557,0.928-7.207,1.489-10.774,2.381
		c-1.293,0.321-2.164,0.131-2.928-0.881c-0.211-0.279-0.434-0.552-0.651-0.826c0.246-0.008,0.498,0.016,0.737-0.031
		c0.194-0.035,0.373-0.149,0.558-0.229c-0.23-0.038-0.479-0.146-0.687-0.096c-0.209,0.052-0.381,0.261-0.569,0.401
		c-0.584-0.063-1.312,0.289-1.624-0.562c0.065-0.029,0.135-0.052,0.193-0.09c0.036-0.023,0.055-0.072,0.082-0.11
		c-0.075,0.084-0.151,0.166-0.226,0.248c-0.336,0.023-0.673,0.047-1.01,0.07c-0.342,0.023-0.808,0.039-0.897-0.271
		c-0.096-0.332,0.399-0.427,0.64-0.624c0.381-0.315,0.986-0.29,1.225-0.813c0.914,0.057,1.718-0.221,2.427-0.791
		c-0.059-0.045-0.115-0.133-0.177-0.137c-0.903-0.059-1.7,0.135-2.211,0.972c-1.019-0.173-1.816,0.411-2.67,0.792
		c-0.617,0.273-1.155,0.306-1.59-0.301c0.456,0.029,0.926,0.082,1.044-0.541c0.446,0.01,0.923,0.082,1.071-0.521
		c0.245-0.052,0.506-0.066,0.729-0.167c0.124-0.056,0.031-0.239-0.189-0.245c-0.285-0.006-0.459,0.164-0.503,0.454
		c-0.453-0.022-0.9-0.036-1.069,0.522c-0.427,0.025-0.888-0.02-1.062,0.521c-0.464-0.271-1.364-0.578-0.286-1.078
		c1.602-0.742,3.243-1.469,5.052-1.604c0.032,0.067,0.055,0.145,0.102,0.2c0.028,0.031,0.096,0.031,0.146,0.047
		c-0.099-0.066-0.198-0.133-0.297-0.197c0.135-0.389,0.46-0.482,0.819-0.534c0.247-0.032,0.58-0.103,0.546-0.372
		c-0.024-0.191-0.306-0.456-0.519-0.509c-3.1-0.772-6.253-1.022-9.402-0.5c-1.136,0.188-2.264,0.414-3.39,0.308
		c-1.312-0.127-2.359,0.327-3.363,1.049l0.025,0.022c-0.176-0.36-0.359-0.38-0.548-0.012l0.005-0.005
		c-0.187,0.185-0.374,0.367-0.561,0.552l0.049-0.047c-0.305,0.081-0.506,0.266-0.58,0.577l0.059-0.051
		c-0.315,0.074-0.539,0.244-0.585,0.588l0.06-0.054c-2.412,1.023-4.639,2.433-7.125,3.31c-2.151,0.76-4.272,1.617-6.519,2.046
		c-0.634,0.12-1.683,0.457-1.873-0.343c-0.236-0.994,0.9-0.817,1.512-0.98c4.164-1.104,8.317-2.232,12.065-4.46
		c0.294-0.175,0.551-0.411,0.826-0.619c0.075-0.034,0.156-0.062,0.222-0.106c0.037-0.026,0.05-0.088,0.074-0.131
		c-0.082,0.094-0.162,0.19-0.244,0.285c-0.735-0.103-1.352,0.242-2.011,0.486c-3.446,1.277-6.91,2.507-10.494,3.355
		c-0.564,0.135-1.396,0.74-1.608,0.017c-0.253-0.863,0.571-1.222,1.451-1.429c1.87-0.438,3.73-0.959,5.538-1.604
		c3.629-1.295,7.222-2.691,10.821-4.066c0.212-0.082,0.356-0.34,0.533-0.518l-0.05,0.049c0.246-0.105,0.671,0.059,0.671-0.386
		c0-0.065-0.435-0.129-0.669-0.192l0.047,0.047c-1.359-1.031-2.841-0.396-4.268-0.278c-2.617,0.216-5.226,0.522-7.841,0.762
		C7.66,69.066,7,69.016,7.498,68.018c0.227-0.451,0.107-0.828-0.355-1.097c-0.355-0.206-0.917-0.417-0.72-0.877
		c0.084-0.194,0.821-0.222,1.229-0.147c3.885,0.688,7.859,0.619,11.73,1.422c0.592,0.121,1.224,0.061,1.837,0.054
		c0.14-0.001,0.279-0.131,0.418-0.202c-0.142-0.09-0.273-0.213-0.428-0.263c-0.499-0.16-1.005-0.414-1.512-0.421
		c-4.654-0.062-9.178-1.61-13.872-1.186c-1.396,0.126-2.231-0.911-3.171-1.654c-0.611-0.484-1.103-1.128-1.608-1.734
		C0.809,61.625,0.85,61.26,1.06,60.938c0.187-0.287,0.446-0.18,0.703-0.134c1.896,0.336,3.797,0.648,5.69,1.002
		c3.268,0.611,6.53,1.258,9.8,1.864c0.512,0.095,1.049,0.05,1.575,0.07c0.092,0.124,0.158,0.293,0.281,0.36
		c0.222,0.122,0.463,0.109,0.634-0.13c-0.143-0.076-0.276-0.181-0.428-0.218c-0.154-0.039-0.324-0.011-0.487-0.012
		c-0.536-0.811-1.415-0.9-2.256-1.109C12.48,61.616,8.31,61.075,4.14,60.525c-0.78-0.103-1.552-0.26-2.332-0.366
		c-0.511-0.069-1.13,0.073-1.416-0.479c-0.269-0.519-0.096-0.93,0.44-1.317c0.479-0.345-0.164-0.22-0.265-0.324
		c-0.169-0.175-0.39-0.299-0.589-0.445C0.206,57.49,0.432,57.301,0.66,57.3c0.968-0.005,1.948-0.043,2.901,0.09
		c4.512,0.634,9.07,1.127,13.359,2.776c1.948,0.749,3.896,0.914,5.937,0.831c5.824-0.234,11.485-1.318,17.053-3.015
		c0.983-0.3,0.626-0.437,0.249-0.989c-0.362-0.528,0.479-0.583,0.616-0.902c0.776-1.809,1.876-3.35,3.45-4.543
		c0.031,0.067,0.05,0.141,0.094,0.196c0.027,0.034,0.091,0.038,0.138,0.055c-0.093-0.068-0.187-0.135-0.281-0.204
		c0.27-0.82,0.933-1.246,1.636-1.632c0.028,0.077,0.042,0.167,0.09,0.227c0.03,0.037,0.116,0.029,0.176,0.042
		c-0.104-0.073-0.208-0.147-0.313-0.222c1.038-1.933,2.698-1.99,4.495-1.413c1.076,0.346,2.104,0.837,2.974,1.602
		c0.452,0.398,0.873,0.878,1.566,0.829c-0.012,0.374,0.2,0.516,0.541,0.524c-0.013,0.359,0.168,0.527,0.52,0.527
		c0.003,0.348,0.197,0.506,0.527,0.53c0.016,0.334,0.195,0.506,0.526,0.529c0.027,0.08,0.04,0.171,0.087,0.238
		c0.028,0.039,0.11,0.04,0.168,0.057c-0.101-0.083-0.201-0.166-0.303-0.249c-0.017-0.332-0.206-0.495-0.524-0.529
		c-0.035-0.316-0.222-0.481-0.524-0.533c-0.036-0.311-0.221-0.474-0.52-0.523c-0.075-0.282-0.198-0.515-0.535-0.534
		c0.085-0.284,0.321-0.493,0.564-0.393c0.559,0.229,1.1,0.519,1.613,0.84c2.073,1.3,4.164,1.629,6.696,1.27
		c3.346-0.472,6.752-0.916,10.174-0.769c0.389,0.016,0.816,0.129,1.174-0.17c-0.274-0.209-0.545-0.423-0.825-0.625
		c-0.423-0.305-0.877-0.572-1.271-0.91c-0.314-0.268-0.752-0.617-0.429-1.07c0.286-0.403,0.782-0.278,1.198-0.102
		c0.238,0.104,0.466,0.235,0.697,0.354l-0.045-0.049c0.094,0.287,0.297,0.45,0.584,0.516c0.059,0.299,0.215,0.5,0.532,0.545
		c0.394,0.659,0.853,1.241,1.671,1.383c0.041,0.007,0.151-0.137,0.146-0.143c-0.482-0.612-1.006-1.167-1.865-1.193
		c-0.016-0.341-0.234-0.481-0.536-0.54c0.019-0.189,0.037-0.378,0.058-0.567L74.859,49.489z M81.23,50.496
		c0.178,0.182,0.355,0.364,0.537,0.546c0.073,0.275,0.229,0.472,0.524,0.525c0.342,0.622,0.679,0.452,1.013-0.007
		c0.189-0.003,0.381-0.008,0.572-0.011c0.03,0.074,0.048,0.154,0.094,0.217c0.025,0.036,0.094,0.042,0.144,0.063
		c-0.095-0.077-0.19-0.153-0.287-0.23c-0.165-0.419-0.326-0.267-0.483,0.006c-0.365,0.001-0.73,0.003-1.097,0.005
		c0.015-0.368-0.185-0.521-0.53-0.521c-0.02-0.339-0.189-0.526-0.535-0.54c-0.018-0.072-0.022-0.149-0.056-0.214
		c-0.021-0.041-0.078-0.063-0.119-0.095C81.081,50.326,81.156,50.411,81.23,50.496z M91.812,52.078
		c0.084,0.125-0.019,0.533,0.349,0.228c-0.134-0.059-0.269-0.119-0.401-0.177c-0.037-0.055-0.068-0.116-0.115-0.166
		c-0.024-0.029-0.071-0.038-0.109-0.056C91.627,51.963,91.721,52.021,91.812,52.078z M82.264,75.881
		c0.428-0.021,0.891,0.032,1.062-0.518c0.429-0.066,0.89-0.057,1.281-0.215c3.66-1.467,7.336-2.854,11.326-3.131
		c0.416-0.028,0.844-0.235,1.213-0.449c0.373-0.215,0.807-0.514,0.804-0.969c-0.005-0.631-0.609-0.445-0.988-0.535
		c-1.188-0.278-2.376-0.564-3.573-0.795c-0.191-0.037-0.543,0.162-0.638,0.347c-0.246,0.478,0.248,0.308,0.418,0.35
		c0.673,0.169,1.42-0.075,2.05,0.324c0.204,0.129,0.331,0.38,0.493,0.575c-0.151,0.083-0.293,0.195-0.455,0.242
		c-2.603,0.736-5.212,1.441-7.806,2.205c-1.487,0.438-3.008,0.848-4.109,2.069c-0.441-0.003-0.916-0.065-1.035,0.544
		c-0.271,0.081-0.537,0.161-0.81,0.241C81.873,76.395,82.086,76.186,82.264,75.881z M45.766,52.671
		c-0.048-0.163,0.024-0.497-0.329-0.236c0.127,0.062,0.254,0.124,0.382,0.187c0.23,0.417,0.635,0.487,1.054,0.525
		c0.198,0.456,0.591,0.546,1.031,0.551c0.176,0.568,0.658,0.475,1.084,0.504c0.183,0.51,0.647,0.469,1.055,0.535
		c0.124,0.243,0.318,0.386,0.594,0.378c0.067-0.002,0.131-0.079,0.197-0.122c-0.217-0.321-0.545-0.189-0.837-0.207
		c-0.113-0.641-0.627-0.5-1.05-0.538c-0.127-0.59-0.579-0.581-1.037-0.558c-0.163-0.596-0.646-0.493-1.081-0.495
		C46.703,52.559,46.178,52.729,45.766,52.671z M79.605,71.637c0.388-0.104,0.916,0.073,1.062-0.525
		c0.567-0.051,1.242,0.22,1.578-0.521c0.569-0.07,1.239,0.168,1.603-0.527c0.082,0.004,0.168,0.018,0.248,0.008
		c0.487-0.057,0.979-0.103,1.461-0.187c0.148-0.024,0.096-0.239-0.133-0.245c-0.551-0.009-1.182-0.188-1.533,0.473
		c-0.562,0.091-1.248-0.194-1.606,0.522c-0.574,0.019-1.206-0.124-1.568,0.53c-0.409,0.055-0.813,0.127-1.057,0.523
		c-0.08,0.03-0.171,0.051-0.241,0.096c-0.038,0.027-0.045,0.102-0.066,0.154C79.52,71.967,79.604,71.868,79.605,71.637z
		 M53.708,53.192c-0.028-0.063-0.05-0.131-0.089-0.187c-0.023-0.033-0.076-0.046-0.116-0.068c0.083,0.07,0.167,0.141,0.25,0.212
		c0.226,0.263,0.431,0.546,0.683,0.779c0.104,0.096,0.379,0.169,0.451,0.107c0.364-0.311-0.09-0.436-0.213-0.506
		C54.383,53.364,54.034,53.298,53.708,53.192z M9.319,59.492c0.79,0.802,1.754,0.498,2.651,0.342
		c0.264-0.046,0.303,0.046,0.106-0.051c-0.788-0.391-1.682-0.215-2.537-0.252c-0.086-0.005-0.172,0.004-0.258,0.007
		c-0.749-0.907-1.783-0.386-2.684-0.517c-0.203-0.03-0.438,0.155-0.657,0.241c0.248,0.072,0.493,0.199,0.743,0.208
		C7.561,59.5,8.44,59.488,9.319,59.492z M84.409,73.285c-1.312,0.017-2.421,0.443-3.181,1.574c-0.523,0.006-1.186,0.215-1.541-0.027
		c-0.754-0.509-1.287-0.764-1.946,0.104c-0.308,0.406-0.875,0.754-1.287,0.119c-0.304-0.463-0.474-0.359-0.671-0.013
		c-0.161,0.284,0.064,0.556,0.291,0.597c1.792,0.311,3.576,0.471,5.117-0.818c1.291-0.062,2.201-0.883,3.172-1.584
		c0.25-0.051,0.513-0.071,0.744-0.168c0.123-0.049,0.031-0.219-0.196-0.223C84.637,72.841,84.425,72.966,84.409,73.285z
		 M80.698,59.532c-1.427,1.953-1.427,2.168,0.003,3.664c0.084,0.107-0.042,0.548,0.324,0.202c-0.119-0.056-0.238-0.113-0.355-0.169
		c-0.008-1.25-0.014-2.5-0.02-3.75c0.08-0.006,0.173,0.008,0.24-0.026c0.043-0.022,0.053-0.113,0.074-0.174
		C80.877,59.362,80.787,59.447,80.698,59.532z M70.65,72.709c0.035,0.068,0.062,0.145,0.111,0.202
		c0.025,0.028,0.092,0.026,0.137,0.04c-0.099-0.062-0.195-0.128-0.295-0.192c0.006-1.248,0.012-2.495,0.018-3.743
		c0.062-0.031,0.139-0.051,0.188-0.098c0.033-0.025,0.029-0.093,0.041-0.143c-0.062,0.094-0.123,0.188-0.187,0.279
		C69.152,70.482,69.15,71.055,70.65,72.709z M67.484,59.002c-1.48,1.583-1.48,2.141,0.002,3.662c0.07,0.135-0.051,0.564,0.332,0.215
		c-0.123-0.059-0.246-0.119-0.369-0.177c-0.002-1.248-0.004-2.495-0.006-3.742c0.176-0.035,0.488,0.029,0.229-0.318
		C67.609,58.762,67.547,58.881,67.484,59.002z M48.983,59.541c-1.346,1.317-1.509,2.255-0.595,3.526
		c0.092,0.128,0.258,0.203,0.39,0.302c0.052-0.16,0.147-0.32,0.149-0.481c0.014-1.131,0.008-2.262,0.008-3.394
		c0.064-0.027,0.134-0.043,0.188-0.084c0.033-0.023,0.04-0.083,0.06-0.125C49.117,59.37,49.049,59.455,48.983,59.541z
		 M56.897,71.141c0.061,0.146-0.029,0.528,0.331,0.211c-0.111-0.068-0.223-0.138-0.334-0.207c0.137-1.104-0.204-2.248,0.302-3.324
		c0.062-0.131-0.002-0.32-0.009-0.483c-0.12,0.048-0.265,0.065-0.354,0.147C55.625,68.564,55.651,69.809,56.897,71.141z
		 M42.64,64.83c-1.268,0.559-1.547,1.503-1.107,2.758c0.147,0.421,0.333,1.049,0.696,0.997c0.744-0.104,0.24-0.785,0.281-1.198
		c0.084-0.863,0.061-1.734,0.081-2.604c0.063-0.029,0.133-0.054,0.188-0.095c0.033-0.025,0.043-0.08,0.063-0.121
		C42.774,64.652,42.707,64.742,42.64,64.83z M3.483,62.704c-0.072-0.266-0.259-0.398-0.519-0.371
		c-0.223,0.023-0.282,0.176-0.136,0.224c0.219,0.072,0.462,0.072,0.694,0.102c3.253,1.091,6.633,1.388,10.027,1.587
		c0.229,0.436,0.638,0.486,1.057,0.47c0.237-0.01,0.472-0.093,0.707-0.143c-0.189-0.077-0.373-0.201-0.568-0.223
		c-0.41-0.045-0.827-0.038-1.24-0.052C10.266,63.132,6.949,62.455,3.483,62.704z M101.854,62.712
		c-3.438,3.49-3.436,5.998,0.014,9.453c0.115,0.206-0.169,0.677,0.354,0.575c0.053-0.01-0.15-0.428-0.406-0.531
		c-1.276-3-1.303-6.011-0.066-9.033c0.062-0.153,0.041-0.341,0.057-0.512c0.07-0.026,0.147-0.04,0.209-0.081
		c0.034-0.025,0.041-0.092,0.06-0.141C102.001,62.533,101.928,62.623,101.854,62.712z M113.121,58.995
		c-2.126-0.008-3.555,0.913-3.794,2.45c-0.269,1.686,0.769,3.321,2.237,4.032c1.586,0.765,4.99-1.462,5.095-3.368
		C116.77,60.086,115.629,59.006,113.121,58.995z M21.716,65.984c-0.067-0.08-0.11-0.186-0.178-0.207
		c-1.491-0.473-2.988-0.924-4.57-0.949c-0.159-0.003-0.32,0.109-0.48,0.17c0.143,0.088,0.275,0.225,0.43,0.261
		c1.522,0.36,3.046,0.707,4.574,1.036C21.543,66.305,21.643,66.091,21.716,65.984z M92.788,71.057
		c0.274-0.049,0.517-0.093,0.759-0.137c-0.23-0.066-0.459-0.175-0.691-0.186c-0.236-0.01-0.479,0.076-0.717,0.121
		C92.359,70.925,92.583,70.993,92.788,71.057z M2.776,58.898c0.285-0.042,0.605-0.09,0.927-0.137
		c-0.229-0.068-0.455-0.172-0.687-0.192c-0.236-0.02-0.671,0.006-0.685,0.077C2.272,58.952,2.59,58.789,2.776,58.898z
		 M88.734,69.332c-0.68-0.123-0.916-0.2-1.152-0.198c-0.249,0.002-0.499,0.079-0.748,0.123c0.15,0.063,0.3,0.181,0.451,0.185
		C87.62,69.447,87.954,69.396,88.734,69.332z M43.297,56.434c-0.362,0.017-0.686-0.107-0.871,0.242
		c0.152,0.055,0.309,0.165,0.455,0.153c0.314-0.025,0.624-0.114,0.934-0.176C43.622,56.571,43.428,56.489,43.297,56.434z
		 M41.785,73.532c-0.155-0.05-0.308-0.132-0.465-0.14c-0.165-0.008-0.334,0.056-0.501,0.086c0.156,0.056,0.31,0.148,0.467,0.157
		C41.45,73.646,41.618,73.57,41.785,73.532z M46.674,56.123c-0.217-0.094-0.361-0.208-0.501-0.205
		c-0.234,0.003-0.467,0.082-0.7,0.128c0.143,0.067,0.286,0.186,0.431,0.189C46.138,56.241,46.372,56.171,46.674,56.123z
		 M83.57,71.953c-0.041-0.035-0.08-0.096-0.129-0.105c-0.066-0.013-0.152-0.01-0.211,0.022c-0.138,0.075-0.086,0.144,0.14,0.151
		C83.438,72.023,83.505,71.979,83.57,71.953z M86.26,70.871c0.059,0.038,0.118,0.111,0.174,0.109
		c0.144-0.008,0.281-0.053,0.422-0.082c-0.061-0.041-0.123-0.121-0.179-0.117C86.535,70.791,86.398,70.839,86.26,70.871z
		 M43.377,55.558c-0.045-0.033-0.086-0.085-0.135-0.094c-0.074-0.013-0.164-0.016-0.229,0.014c-0.154,0.07-0.101,0.136,0.146,0.145
		C43.231,55.625,43.305,55.581,43.377,55.558z M46.5,55.005c0.146,0.054,0.291,0.123,0.442,0.151
		c0.055,0.011,0.128-0.076,0.193-0.118c-0.146-0.053-0.288-0.122-0.438-0.149C46.641,54.878,46.567,54.963,46.5,55.005z
		 M45.078,54.439c0.019,0.04,0.031,0.103,0.061,0.113c0.069,0.024,0.155,0.047,0.222,0.028c0.212-0.058,0.188-0.135-0.064-0.182
		C45.229,54.387,45.151,54.425,45.078,54.439z M43.906,54.011c-0.021-0.04-0.033-0.104-0.064-0.116
		c-0.065-0.024-0.148-0.044-0.212-0.024c-0.191,0.058-0.167,0.134,0.068,0.179C43.763,54.063,43.837,54.026,43.906,54.011z
		 M88.959,70.309c0.021,0.031,0.036,0.086,0.062,0.094c0.071,0.02,0.15,0.035,0.222,0.021c0.214-0.043,0.192-0.105-0.065-0.146
		C89.109,70.266,89.032,70.297,88.959,70.309z M90.719,68.701c-0.066,0.021-0.135,0.044-0.201,0.066
		c0.039,0.031,0.088,0.1,0.119,0.092c0.1-0.021,0.192-0.069,0.286-0.106C90.855,68.734,90.786,68.718,90.719,68.701z
		 M123.729,65.605c-0.043-0.035-0.082-0.09-0.131-0.1c-0.074-0.013-0.162-0.016-0.229,0.014c-0.155,0.074-0.104,0.144,0.145,0.153
		C123.583,65.678,123.654,65.63,123.729,65.605z M45.447,75.604c-0.145,0-0.293,0-0.442,0c0.064,0.043,0.125,0.103,0.194,0.119
		c0.071,0.018,0.155-0.006,0.228-0.023C45.444,75.693,45.443,75.627,45.447,75.604z M41.241,76.741
		c-0.021-0.041-0.032-0.104-0.062-0.113c-0.072-0.022-0.158-0.042-0.229-0.022c-0.215,0.057-0.192,0.131,0.065,0.176
		C41.086,76.794,41.165,76.756,41.241,76.741z M38.146,73.529c-0.062-0.038-0.128-0.114-0.185-0.107
		c-0.145,0.018-0.285,0.067-0.428,0.104c0.064,0.041,0.131,0.121,0.189,0.115C37.867,73.624,38.005,73.568,38.146,73.529z
		 M39.764,74.049c-0.148-0.054-0.294-0.125-0.448-0.152c-0.057-0.01-0.133,0.082-0.201,0.127c0.064,0.054,0.132,0.158,0.188,0.151
		C39.46,74.157,39.611,74.096,39.764,74.049z M87.83,71.854l-0.107,0.106l0.188,0.022L87.83,71.854z M86.111,72.447l0.173,0.08
		l0.016-0.111L86.111,72.447z M38.132,74.468L38.015,74.6l0.207,0.021L38.132,74.468z M48.167,55.618l0.101-0.096l-0.174-0.024
		L48.167,55.618z"/>
	<path d="M20.439,69.005c-1.962,0.144-3.715,0.99-5.503,1.685c-3.597,1.399-7.297,2.475-10.982,3.592
		c-0.214,0.066-0.545,0.015-0.718-0.118c-0.248-0.188-0.022-0.445,0.085-0.664c0.629-1.289,1.64-2.272,2.641-3.252
		c0.515-0.504,1.188-0.705,1.93-0.708c3.948-0.02,7.864-0.396,11.756-1.055c0.254-0.045,0.526,0.021,0.79,0.037l-0.047-0.047
		c-0.001,0.193-0.001,0.387-0.002,0.58L20.439,69.005z"/>
	<path d="M18.27,73.234c-0.958,2.521-2.86,4.197-5.205,5.252c-3.372,1.513-7.089,1.978-10.593,3.115
		c-0.43,0.142-0.918,0.133-1.042-0.441c-0.15-0.692,0.316-0.903,0.896-0.995c3.314-0.519,6.46-1.64,9.562-2.847
		c2.021-0.785,4.097-1.605,5.383-3.557l-0.06,0.053c0.34-0.051,0.55-0.232,0.585-0.588l-0.059,0.053c0.194,0,0.389,0,0.583,0
		L18.27,73.234z"/>
	<path d="M19.348,72.189c-0.026,0.328-0.201,0.506-0.534,0.52l0.037,0.039c-0.007-0.184-0.014-0.367-0.021-0.553l-0.005,0.006
		c0.183,0.004,0.366,0.008,0.548,0.012L19.348,72.189z"/>
	<path d="M18.814,72.709c-0.058,0.303-0.209,0.509-0.544,0.525l0.052,0.045c-0.001-0.192-0.002-0.385-0.004-0.578l-0.049,0.047
		c0.194,0,0.388,0,0.582,0L18.814,72.709z"/>
	<path d="M80.166,48.956c0.164-0.356,0.336-0.403,0.518-0.011l0.021-0.018c-0.19-0.003-0.384-0.007-0.573-0.01L80.166,48.956z"/>
	<path d="M74.355,49.492c0.164-0.357,0.334-0.44,0.504-0.003l0.039-0.044c-0.196,0-0.394,0-0.59-0.001L74.355,49.492z"/>
	<path d="M87.573,49.479c0.049-0.118,0.073-0.315,0.151-0.337c0.262-0.074,0.334,0.121,0.354,0.339l0.037-0.036
		c-0.19,0.002-0.381,0.004-0.571,0.006L87.573,49.479z"/>
</g>
</svg>
