<?xml version="1.0" encoding="utf-8"?>
<!-- Generator: Adobe Illustrator 16.0.4, SVG Export Plug-In . SVG Version: 6.00 Build 0)  -->
<!DOCTYPE svg PUBLIC "-//W3C//DTD SVG 1.1//EN" "http://www.w3.org/Graphics/SVG/1.1/DTD/svg11.dtd">
<svg version="1.1" id="Layer_0302" xmlns="http://www.w3.org/2000/svg" xmlns:xlink="http://www.w3.org/1999/xlink" x="0px" y="0px"
	 width="128px" height="128px" viewBox="0 0 128 128" enable-background="new 0 0 128 128" xml:space="preserve">
<g>
	<path fill-rule="evenodd" clip-rule="evenodd" d="M25.453,13.542c9.25,0.513,17.424,0.801,25.324,3.238
		c3.563,1.1,7.04,2.397,10.374,4.063c6.481,3.238,11.855,7.708,16.147,13.628c6.465,8.916,10.13,18.861,11.891,29.631
		c0.717,4.387,1.671,8.728,3.224,12.92c0.424,1.143,0.775,1.526,2.027,0.812c6.62-3.771,13.43-3.566,20.305-0.717
		c4.443,1.841,8.338,4.615,12.29,7.286c0.249,0.168,0.594,0.459,0.59,0.689c-0.009,0.568-0.567,0.417-0.914,0.453
		c-4.098,0.441-8.232,0.527-12.295,1.322c-1.832,0.358-3.629,0.807-5.359,1.502c-3.77,1.518-5.705,4.287-5.884,8.373
		c-0.209,4.749,0.887,9.312,1.749,13.92c0.24,1.28,1.447,2.92,0.354,3.754c-0.642,0.489-2.048-1.206-3.069-1.964
		c-3.772-2.799-7.446-5.723-10.651-9.18c-3.629-3.915-6.759-8.094-6.892-13.76c-0.021-0.897-0.485-1.039-1.262-0.976
		c-7.519,0.611-15.033,0.529-22.542-0.171c-7.428-0.691-14.722-2.024-21.822-4.378c-8.104-2.687-14.37-7.953-19.973-14.136
		C10.396,60.289,5.521,48.892,3.086,36.346c-0.663-3.414-1.197-6.849-1.506-10.316c-0.042-0.475-0.018-1.079-0.29-1.391
		c-1.472-1.678-0.793-3.499-0.503-5.314c0.208-1.296,0.682-1.622,1.878-0.816c2.75,1.852,5.564,3.61,8.351,5.407
		c2.38,1.534,4.75,3.084,7.146,4.592c0.503,0.316,1.078,1.103,1.616,0.653c0.528-0.441-0.108-1.207-0.287-1.783
		c-1.175-3.782-2.434-7.537-3.637-11.31c-0.66-2.066-0.634-2.061,1.481-2.316C20.401,13.38,23.476,13.508,25.453,13.542z
		 M21.688,52.865c1.074-0.109,2.208-0.153,3.316-0.347c7.791-1.352,14.802-4.492,20.876-9.537c3.702-3.076,6.838-6.67,7.934-11.576
		c0.719-3.214-0.121-6.071-2.191-8.591c-0.146-0.179-0.428-0.465-0.533-0.422c-0.4,0.162-0.138,0.506-0.078,0.766
		c0.542,2.342,0.396,4.669-0.31,6.937c-1.134,3.64-3.334,6.621-6.079,9.196c-6.616,6.211-14.498,10.119-23.156,12.589
		c-0.838,0.239-1.673,0.491-2.509,0.737C19.807,53.237,20.742,52.781,21.688,52.865z M27.688,56.396
		c-1.084-0.009-2.081,0.015-2.535,0.598c-0.536,0.686,0.517,1.178,0.808,1.786c1.758,3.674,3.516,7.322,1.714,11.537
		c-0.357,0.835-0.003,1.528,0.999,1.387c2.236-0.314,4.471-0.671,6.675-1.148c1.527-0.331,2.048-1.463,1.733-2.957
		c-0.383-1.818-0.788-3.652-1.626-5.312C33.791,58.989,31.212,56.845,27.688,56.396z M40.505,24.333
		c-0.042-2.593-2.09-4.545-4.691-4.469c-2.472,0.074-4.417,2.063-4.424,4.528c-0.007,2.569,2.024,4.595,4.605,4.591
		C38.564,28.979,40.547,26.935,40.505,24.333z"/>
	<path fill-rule="evenodd" clip-rule="evenodd" d="M61.651,96.906c-1.373-0.39-3.105-0.789-4.772-1.374
		c-5.023-1.764-9.932-3.794-14.446-6.667c-1.089-0.694-2.141-1.441-3.008-2.414c-0.316-0.354-0.848-0.775-0.598-1.213
		c0.304-0.533,0.878-0.077,1.296,0.062c4.278,1.438,8.605,2.693,13.016,3.652c2.208,0.479,4.429,0.991,6.698,0.781
		c1.651-0.152,2.108,0.613,2.197,2.07c0.078,1.276,0.164,2.616,0.872,3.727C63.721,96.811,63.247,97.076,61.651,96.906z"/>
</g>
</svg>
