<?xml version="1.0" encoding="utf-8"?>
<!-- Generator: Adobe Illustrator 16.0.4, SVG Export Plug-In . SVG Version: 6.00 Build 0)  -->
<!DOCTYPE svg PUBLIC "-//W3C//DTD SVG 1.1//EN" "http://www.w3.org/Graphics/SVG/1.1/DTD/svg11.dtd">
<svg version="1.1" id="Layer_0304" xmlns="http://www.w3.org/2000/svg" xmlns:xlink="http://www.w3.org/1999/xlink" x="0px" y="0px"
	 width="128px" height="128px" viewBox="0 0 128 128" enable-background="new 0 0 128 128" xml:space="preserve">
<g>
	<path d="M48.682,38.104c13.259,0.135,24.036,1.928,34.716,4.479c3.912,0.934,7.797,1.96,11.535,3.448
		c0.998,0.398,1.517,0.251,2.092-0.608c1.479-2.206,3.156-4.261,4.916-6.254c3.142-3.555,6.761-6.531,10.67-9.196
		c2.617-1.783,5.121-3.73,7.717-5.546c1.339-0.937,1.51-0.83,1.58,0.776c0.158,3.592,0.301,7.186,0.427,10.78
		c0.463,13.21,2.134,26.248,5.505,39.046c0.087,0.33,0.141,0.671,0.225,1.003c0.236,0.948,0.156,1.521-1.082,1.149
		c-2.455-0.732-4.94-1.371-7.396-2.115c-5.237-1.586-10.448-3.262-15.479-5.438c-1.721-0.743-3.517-1.428-4.895-2.768
		c-0.865-0.842-1.527-0.67-2.441-0.032c-3.58,2.498-7.176,4.974-10.842,7.338c-7.537,4.856-15.589,8.562-24.398,10.438
		c-1.032,0.223-1.45,0.621-1.54,1.625c-0.182,2.045-0.492,4.076-0.648,6.121c-0.107,1.409-0.751,1.692-2.03,1.392
		c-5.451-1.291-10.326-3.646-14.208-7.757c-1.161-1.229-2.459-1.945-4.073-2.42c-8.065-2.373-15.273-6.414-21.875-11.568
		c-2.9-2.264-5.856-4.46-8.557-6.977c-0.819-0.762-1.075-1.394-0.458-2.414c6.686-11.055,15.377-19.678,28.266-23.095
		C41.146,38.258,46.029,37.997,48.682,38.104z M45.704,61.082c0.207-1.996-0.364-4.041-1.25-6.011
		c-1.573-3.505-4.025-6.325-6.94-8.77c-0.32-0.269-0.698-0.498-1.086-0.646c-0.4-0.152-0.91-0.157-1.179,0.184
		c-0.102,0.129,0.181,0.621,0.356,0.904c3.603,5.804,4.691,12.215,4.468,18.907c-0.125,3.72-0.763,7.322-3.568,10.129
		c-0.244,0.242-0.537,0.505-0.244,0.838c0.377,0.431,0.795,0.173,1.118-0.109c2.523-2.21,4.722-4.686,6.354-7.648
		C45.039,66.489,45.817,64.005,45.704,61.082z M117.061,36.312c-0.059-0.526,0.442-1.304-0.222-1.576
		c-0.573-0.235-1.016,0.49-1.508,0.797c-0.358,0.224-0.662,0.538-0.983,0.818c-4.904,4.283-9.179,9.15-13.184,14.264
		c-0.197,0.25-0.625,0.523-0.355,0.81c0.273,0.292,0.582-0.14,0.821-0.317c4.187-3.091,8.292-6.299,12.572-9.252
		C116.252,40.439,117.32,38.798,117.061,36.312z M117.621,49.434c-0.053-2.973-0.126-3.028-2.678-2.047
		c-4.805,1.848-9.33,4.254-13.73,6.905c-0.201,0.121-0.525,0.369-0.496,0.482c0.129,0.5,0.5,0.212,0.786,0.146
		c4.912-1.12,9.82-2.25,14.733-3.36C117.52,51.27,117.855,50.461,117.621,49.434z M24.173,55.173
		c-0.007,1.548,1.387,3.115,2.797,3.145c1.309,0.028,2.574-1.245,2.642-2.654c0.073-1.552-1.541-3.337-2.986-3.3
		C25.333,52.396,24.179,53.717,24.173,55.173z"/>
	<path d="M26.187,106.414c-10.294,0.131-20.644-5.995-24.521-16.248c-2.21-5.85-1.918-11.704,0.19-17.548
		c0.472-1.308,1.048-1.459,2.276-0.988c3.289,1.269,3.354,1.228,2.491,4.71c-0.622,2.508-1.103,4.996-0.761,7.602
		c1.351,10.326,9.788,15.324,16.365,16.482c8.558,1.51,15.173-1.818,20.393-8.443c0.211-0.268,0.379-0.568,0.571-0.852
		c0.145-0.214,0.253-0.48,0.451-0.62c1.787-1.258,2.603,0.808,3.913,1.199c0.917,0.272,1.392,0.962,0.728,1.979
		c-3.885,5.955-9.078,10.166-16.031,12.019C30.176,106.261,28.055,106.495,26.187,106.414z"/>
	<path d="M26.695,84.094c0.517,3.317,2.036,6.318,3.011,9.491c0.226,0.733,0.499,1.453,0.73,2.187
		c0.639,2.029,0.592,2.229-1.388,2.564c-2.541,0.432-5.086,0.393-7.638-0.164c-1.312-0.283-1.449-0.863-1.047-1.98
		c1.303-3.608,2.542-7.241,3.843-10.854c0.206-0.572,0.386-1.127,0.403-1.73c0.033-0.154,0.439-0.188,0.146-0.447
		c-0.035,0.16-0.071,0.322-0.106,0.482c-1.734,2.237-2.794,4.853-4.1,7.33c-0.757,1.435-1.598,2.827-2.288,4.293
		c-0.579,1.228-1.24,1.121-2.199,0.465c-2.149-1.473-3.963-3.241-5.259-5.518c-0.979-1.722-0.968-1.857,0.785-2.646
		c2.648-1.19,5.322-2.322,7.985-3.479c0.94-0.408,1.889-0.797,2.814-1.234c0.262-0.123,0.457-0.39,0.684-0.59
		c-0.333,0.006-0.683-0.056-0.995,0.025c-3.552,0.913-7.099,1.846-10.646,2.775c-2.536,0.668-2.709,0.545-2.854-2.154
		c-0.115-2.143-0.09-4.278,0.58-6.348c0.644-1.987,0.784-2.096,2.669-1.265c3.672,1.617,7.421,3.115,10.92,5.056
		c2.057,1.142,4.209,1.896,6.336,2.787c2.362,0.99,4.678,2.09,7.012,3.146c1.323,0.599,2.621,1.256,3.966,1.796
		c0.968,0.391,1.085,0.912,0.617,1.775c-1.467,2.713-3.668,4.697-6.208,6.349c-1.036,0.672-1.317-0.224-1.67-0.89
		c-1.676-3.172-3.345-6.348-5.019-9.521c-0.314-0.595-0.496-1.281-1.127-1.663c-0.056-0.215-0.113-0.43-0.169-0.643
		c-0.056,0.05-0.155,0.097-0.161,0.151C26.294,83.908,26.395,84.089,26.695,84.094z"/>
	<path d="M62.861,34.439c-6.21-0.255-12.522-0.87-18.866-0.195c-1.622,0.172-3.198,0.571-4.817,0.706
		c-0.289,0.024-0.703,0.287-0.808-0.206c-0.043-0.204,0.105-0.519,0.269-0.684c1.328-1.35,2.816-2.506,4.481-3.404
		c6.55-3.532,13.561-5.622,20.918-6.607c0.169-0.022,0.34-0.041,0.51-0.053c2.271-0.172,2.543,0.114,1.731,2.143
		c-0.926,2.321-1.532,4.708-1.834,7.182C64.337,34.201,64.06,34.851,62.861,34.439z"/>
</g>
</svg>
