<?xml version="1.0" encoding="utf-8"?>
<!-- Generator: Adobe Illustrator 16.0.4, SVG Export Plug-In . SVG Version: 6.00 Build 0)  -->
<!DOCTYPE svg PUBLIC "-//W3C//DTD SVG 1.1//EN" "http://www.w3.org/Graphics/SVG/1.1/DTD/svg11.dtd">
<svg version="1.1" id="Layer_0403" xmlns="http://www.w3.org/2000/svg" xmlns:xlink="http://www.w3.org/1999/xlink" x="0px" y="0px"
	 width="128px" height="128px" viewBox="0 0 128 128" enable-background="new 0 0 128 128" xml:space="preserve">
<path fill-rule="evenodd" clip-rule="evenodd" d="M51.529,7.917c-2.567-0.423-4.851-0.928-4.91-3.938
	c0.612-2.622,2.438-3.432,4.996-3.416c8.118,0.054,16.234,0.044,24.35,0.007c2.437-0.01,4.705,0.365,5.138,3.189
	c0.454,2.971-1.993,3.582-4.479,4.226c0.943,4.9,3.079,9.199,5.758,13.066c5.896,8.521,7.831,17.958,7.796,28.092
	c-0.073,21.192,0.021,42.387,0.023,63.581c0.002,10.101-4.538,14.697-14.472,14.697c-8.265,0.002-16.534,0.053-24.8-0.043
	c-8.461-0.097-12.8-4.317-12.82-12.788c-0.065-24.35-0.025-48.699,0.07-73.05c0.025-6.316,2.328-11.993,5.578-17.335
	C46.785,19.228,49.844,14.256,51.529,7.917z"/>
</svg>
