<?xml version="1.0" encoding="utf-8"?>
<!-- Generator: Adobe Illustrator 16.0.4, SVG Export Plug-In . SVG Version: 6.00 Build 0)  -->
<!DOCTYPE svg PUBLIC "-//W3C//DTD SVG 1.1//EN" "http://www.w3.org/Graphics/SVG/1.1/DTD/svg11.dtd">
<svg version="1.1" id="Layer_0503" xmlns="http://www.w3.org/2000/svg" xmlns:xlink="http://www.w3.org/1999/xlink" x="0px" y="0px"
	 width="128px" height="128px" viewBox="0 0 128 128" enable-background="new 0 0 128 128" xml:space="preserve">
<g>
	<path fill="none" stroke="#000000" stroke-linecap="round" stroke-linejoin="round" stroke-miterlimit="10" d="M65.495,46.466
		c3.741,5.826,0.672,15.061-0.635,21.249c-1.344,6.364-4.082,11.976-7.469,17.486c-2.895,4.711-7.215,8.931-9.269,14.084
		c2.455-0.849,4.682-4.745,6.274-6.677c4.966-6.023,11.015-12.874,12.781-20.65c1.177-5.182,0.558-10.514,1.651-15.75
		c0.406-1.941,2.451-7.99-0.998-8.177c-0.302,2.357,0.652,4.603,1.08,6.892c0.849,4.564,0.746,9.333-0.053,13.898
		c-1.75,9.99-8.355,17.295-11.775,26.539c0.297-1.494,1.577-2.829,2.488-4.041c3.28-4.365,7.046-8.332,9.571-13.234
		c2.987-5.805,4.893-12.334,5.754-18.797c0.529-3.969,0.302-8.016,1.142-11.941c-0.094,2.644,0.556,5.172,1.012,7.748
		c1.12,6.331,0.231,11.741-2.63,17.545c-4.16,8.443-11.657,13.179-16.82,20.605c3.759,2.926,16.281-14.43,18.102-16.92
		c5.793-7.922,4.251-17.524,7.938-26.109c0.464,8.029,1.435,17.326-2.401,24.672c-4.553,8.72-13.007,12.162-19.681,18.555
		c3.017-0.402,5.933-3.479,8.353-5.253c6.204-4.549,10.966-9.839,13.473-17.165c1.958-5.721,3.236-11.674,4.969-17.461
		c0.653-2.182,2.035-4.553,1.885-6.856c-1.986,3.179-1.953,7.972-2.482,11.597c-1.197,8.209-4.349,15.273-8.67,22.322
		c-3.082,5.029-6.146,10.239-11.008,13.75c-2.482,1.791-5.52,2.376-7.936,4.043c11.604-2.488,21.744-14.295,26.273-24.66
		c2.62-5.994,5.518-12.275,7.181-18.63c-2.418,9.772-3.797,21.056-9.871,29.337c-4.673,6.372-11.186,11.502-18.169,15.123
		c-3.182,1.651-6.523,2.949-9.415,5.113c3.096-2.082,6.629-3.27,9.756-5.336c6.707-4.434,12.167-10.441,16.904-16.891
		c4.037-5.495,5.307-11.684,7.583-17.974c0.882-2.435,2.147-5.065,2.028-7.702c-2.876,7.717,1.604,16.676-2.402,24.086
		c-3.422,6.331-10.378,10.426-15.583,15.119c-3.19,2.878-6.554,5.956-9.544,8.978c5.947-1.429,11.885-8.173,15.991-12.151
		c5.669-5.493,11.307-11.66,15.202-18.571c4.009-7.111,5.517-15.513,6.771-23.52c-2.288,2.062-1.662,7.237-1.549,10.128
		c0.288,7.33-1.806,13.424-6.079,19.444c-3.992,5.629-9.541,10.021-14.854,14.346c-2.817,2.295-5.752,2.61-8.734,4.288
		c5.039,0.423,10.741-4.879,14.223-7.973c5.229-4.645,8.58-10.461,11.175-16.907c2.282-5.673,1.144-11.591,2.206-17.496
		c0.493-2.753,1.837-5.328,2.275-8.055c0.02,0.161-0.402,0.241-0.827,0.593"/>
	<path fill="none" stroke="#000000" stroke-linecap="round" stroke-linejoin="round" stroke-miterlimit="10" d="M103.694,59.247
		c1.396-2.848,2.787-8.154,1.725-11.254c-0.998-2.914-4.686-4.495-7.412-5.469c-6.226-2.221-14.328-2.644-20.822-1.303
		c-7.994,1.65-13.953,6.352-18.106,13.36c-5.347,9.021-4.46,18.13-4.699,28.151c-0.865-2.145-2.473-3.926-3.329-6.002
		c-1.618-3.928-0.743-10.383,0.769-14.127c4.133-10.242,13.502-17.884,24.016-21.182c7.598-2.383,16.725-0.027,22.857,5
		c2.871,2.352,4.929,4.65,5.275,8.457c0.254,2.783-2.064,5.195-1.615,7.646c6.4-3.498,10.773-15.197,6.508-21.46
		c-5.551-8.147-22.384-8.587-30.099-4.843C62.43,44.149,43.454,66.298,54.896,85.188c-1.616-7.148-9.918-8.982-9.898-17.445
		c0.024-9.828,5.163-20.109,11.645-27.084c9.403-10.12,24.226-15.396,37.515-10.722c4.821,1.695,8.304,2.525,12.278,6.003
		c4.043,3.537,6.451,8.605,6.308,13.939c-0.16,5.99-1.08,11.783-4.184,16.986c-2.353,3.944-7.465,5.089-9.575,8.861
		c1.458-0.243,4.309-2.573,5.757-3.602c4.094-2.905,8.188-6.03,10.736-10.428c4.328-7.469,6.922-19.182,4.143-27.682
		c-2.166-6.63-9.914-10.539-15.787-13.333c-8.697-4.135-16.778-3.973-25.545-0.356c-9.293,3.835-16.019,8.541-21.976,16.674
		c-4.511,6.16-7.19,12.92-8.256,20.403c-0.894,6.272-2.124,13.49-0.272,19.665c1.633,5.451,4.558,9.843,8.265,14.15
		c-0.829-1.427-3.001-2.361-4.349-3.205c-4.073-2.551-6.996-4.654-8.04-9.66c-0.971-4.656-2.332-9.676-1.919-14.468
		c0.471-5.466,3.645-11.034,5.713-16.106c4.811-11.792,16.777-19.643,27.124-26.093c5.254-3.273,12.104-5.514,18.217-4.026
		c6.195,1.509,13.434,5.057,18.033,9.578c6.201,6.096,9.768,15.858,7.639,24.553c-2.632,10.745-5.21,24.301-13.408,32.346
		c-5.771,5.664-15.289,13.238-23.835,12.929"/>
	<path fill="none" stroke="#000000" stroke-linecap="round" stroke-linejoin="round" stroke-miterlimit="10" d="M72.179,43.626
		c-0.166,5.791,0.195,11.48-0.262,17.267c-0.245,3.099-1.075,5.706-2.461,8.472c-2.634,5.258-5.177,10.932-8.24,15.918"/>
	<path fill="none" stroke="#000000" stroke-linecap="round" stroke-linejoin="round" stroke-miterlimit="10" d="M62.861,51.026
		c-0.172,3.877,0.648,9.715-0.247,14.249c-0.776,3.929-2.49,7.765-3.857,11.511c-1.086,2.98-1.971,7.305-3.843,9.867"/>
	<path fill="none" stroke="#000000" stroke-linecap="round" stroke-linejoin="round" stroke-miterlimit="10" d="M78.481,41.982
		c1.159,2.875,1.078,7.582,1.096,10.74c0.028,5.702-0.121,12.221-1.643,17.761"/>
	<path fill="none" stroke="#000000" stroke-linecap="round" stroke-linejoin="round" stroke-miterlimit="10" d="M85.059,42.53
		c0.925,3.199,0.694,7.346,0.568,10.639c-0.217,5.636-0.854,12.053-1.938,17.59"/>
	<path fill="none" stroke="#000000" stroke-linecap="round" stroke-linejoin="round" stroke-miterlimit="10" d="M92.731,44.175
		c1.281,3.936-0.286,9.537-1.157,13.483c-1.604,7.269-3.143,16.116-8.981,21.321"/>
	<path fill="none" stroke="#000000" stroke-linecap="round" stroke-linejoin="round" stroke-miterlimit="10" d="M97.118,45.819
		c3.123,10.19-3.182,23.521-7.181,32.611c-5.185,11.785-14.677,19.402-24.062,27.681"/>
	<path fill="none" stroke="#000000" stroke-linecap="round" stroke-linejoin="round" stroke-miterlimit="10" d="M52.448,91.86
		c0.177,4.057-4.747,6.751-7.322,9.043c2.796,0.898,5.165-0.01,7.492-1.59c3.006-2.043,7.668-5.594,9.406-8.791
		c-2.011,0.523-3.436,4.684-5.021,6.268c-2.427,2.426-7.515,2.674-9.241,5.181c8.143-1.26,14.86-1.329,20.033-8.431
		c-3.785,7.545-10.654,8.99-17.826,11.549c6.06,1.315,15.347,0.719,19.238-4.664c-3.082,6.858-8.833,5.406-14.299,8.786
		c5.208,0.597,13.812-3.066,16.449-8.033"/>
	<path fill="none" stroke="#000000" stroke-linecap="round" stroke-linejoin="round" stroke-miterlimit="10" d="M83.14,16.222
		c-5.328-1.396-15.015,1.625-19.669,4.714c-9.478,6.29-16.463,17.459-20.416,27.83c-2.083,5.467-3.728,11.167-4.048,17.045
		c-0.285,5.215-0.689,12.627,2.191,17.304c1.263,2.05,9.117,9.708,10.976,8.196"/>
	<path fill="none" stroke="#000000" stroke-linecap="round" stroke-linejoin="round" stroke-miterlimit="10" d="M89.718,16.77
		c-4.808-6.037-13.883-6.766-21.096-4.959c-15.507,3.883-24.365,21.321-29.274,35.118c-3.625,10.186-7.59,23.139-4.164,33.895
		c1.328,4.166,4.043,9.665,7.591,12.354c2.738,2.073,6.438,2.688,9.672,3.342"/>
	<path fill="none" stroke="#000000" stroke-linecap="round" stroke-linejoin="round" stroke-miterlimit="10" d="M91.636,17.592
		c0.389-3.12-3.872-6.098-6.304-7.413c-5.436-2.938-11.243-3.839-17.185-2.184c-16.315,4.545-23.646,20.403-29.062,34.851
		c-4.282,11.42-8.763,26.092-6.171,38.396c1.162,5.512,2.167,9.363,6.385,13.15c1.753,1.574,6.977,7.324,9.037,3.77"/>
	<path fill="none" stroke="#000000" stroke-linecap="round" stroke-linejoin="round" stroke-miterlimit="10" d="M45.322,100.903
		c-9.606-1.406-14.447-12.832-17.477-21.088c-5.799-15.807,1.363-36.991,8.428-51.247c4.132-8.336,9.729-14.981,17.097-20.522
		c4.907-3.69,12.403-7.303,18.596-6.822c9.796,0.76,19.588,4.91,19.122,15.545"/>
	<path fill="none" stroke="#000000" stroke-linecap="round" stroke-linejoin="round" stroke-miterlimit="10" d="M90.814,14.851
		c-3.822-6.265-8.39-8.794-15.98-8.774c-9.917,0.026-18.422,7.457-24.433,14.7c-8.281,9.979-13.65,24.141-16.649,36.615
		c-2.065,8.59-1.859,16.705,0.121,25.359c0.682,2.977,1.325,6.51,3.763,8.566c1.763,1.486,3.905,1.51,4.946,3.832"/>
	<path fill="none" stroke="#000000" stroke-linecap="round" stroke-linejoin="round" stroke-miterlimit="10" d="M46.966,71.854
		c1.134-0.223,0.565-4.854,0.742-6.305c0.498-4.061,2.137-8.477,4.026-12.111c2.727-5.244,6.649-10.238,11.202-13.997
		c9.902-8.172,19.807-10.239,32.263-9.518"/>
	<path fill="none" stroke="#000000" stroke-linecap="round" stroke-linejoin="round" stroke-miterlimit="10" d="M60.943,33.761
		c2.539-1.4,4.621-3.618,7.115-5.146c3.508-2.15,7.684-4.122,11.531-5.576c4.891-1.849,9.493-2.198,14.5-1.054
		c14.985,3.424,19.906,16.714,19.745,31.508"/>
	<path fill="none" stroke="#000000" stroke-linecap="round" stroke-linejoin="round" stroke-miterlimit="10" d="M95.747,83.09
		c4.752-1.923,10.094-9.464,11.51-14.251"/>
	<path fill="none" stroke="#000000" stroke-linecap="round" stroke-linejoin="round" stroke-miterlimit="10" d="M89.718,94.052
		c4.152-3.582,8.766-6.744,12.338-10.949c3.42-4.027,3.864-8.847,6.846-12.893"/>
	<path fill="none" stroke="#000000" stroke-linecap="round" stroke-linejoin="round" stroke-miterlimit="10" d="M55.188,88.846
		c-1.962,4.74-5.415,8.975-8.75,12.88c-6.324,7.408-13.721,9.849-23.041,11.785"/>
	<path fill="none" stroke="#000000" stroke-linecap="round" stroke-linejoin="round" stroke-miterlimit="10" d="M58.751,94.875
		c-2.345,2.245-3.734,5.487-5.749,8.027c-1.775,2.239-3.691,4.056-5.822,5.935c-3.253,2.869-6.035,6.283-10.353,7.414"/>
	<path fill="none" stroke="#000000" stroke-linecap="round" stroke-linejoin="round" stroke-miterlimit="10" d="M26.138,118.718
		c5.107-1.41,10.151-4.443,14.457-7.428c2.418-1.676,4.317-4.461,6.419-6.529c2.834-2.791,5.751-5.469,7.625-9.064"/>
	<path fill="none" stroke="#000000" stroke-linecap="round" stroke-linejoin="round" stroke-miterlimit="10" d="M23.124,122.554
		c17.428-0.176,33.2-13.42,43.848-26.309"/>
	<path fill="none" stroke="#000000" stroke-linecap="round" stroke-linejoin="round" stroke-miterlimit="10" d="M37.101,122.279
		c1.888-1.319,4.312-1.977,6.382-3.026c3.708-1.879,7.354-4.225,10.81-6.553c7.964-5.366,14.841-12.642,20.9-20.019"/>
	<path fill="none" stroke="#000000" stroke-linecap="round" stroke-linejoin="round" stroke-miterlimit="10" d="M32.989,118.991
		c4.215,0.724,10.432-4.85,13.708-6.863c5.65-3.471,10.084-8.118,14.246-13.417"/>
	<path fill="none" stroke="#000000" stroke-linecap="round" stroke-linejoin="round" stroke-miterlimit="10" d="M22.85,116.251
		c2.522-0.797,4.691-1.135,7.193-2.273c2.011-0.916,3.815-1.913,5.682-2.912c10.31-5.521,16.984-14.77,25.219-22.768"/>
	<path fill="none" stroke="#000000" stroke-linecap="round" stroke-linejoin="round" stroke-miterlimit="10" d="M56.558,98.985
		c7.397-4.187,14.19-11.758,19.457-18.361"/>
	<path fill="none" stroke="#000000" stroke-linecap="round" stroke-linejoin="round" stroke-miterlimit="10" d="M57.655,104.741
		c2.202-0.65,5.043-3.051,7.12-4.379c4.652-2.978,7.632-6.836,11.516-10.695"/>
	<path fill="none" stroke="#000000" stroke-linecap="round" stroke-linejoin="round" stroke-miterlimit="10" d="M59.847,98.711
		c2.285-3.468,5.252-6.509,7.74-9.839c3.18-4.256,5.557-9.057,8.42-13.521c3.705-5.783,5.41-12.39,6.523-19.129
		c0.82-4.965-0.108-10.506,1.158-15.336"/>
	<path fill="none" stroke="#000000" stroke-linecap="round" stroke-linejoin="round" stroke-miterlimit="10" d="M90.267,44.449
		c2.602,4.881,0.711,11.537-0.756,16.437c-2.785,9.308-7.23,17.286-12.674,25.492"/>
	<path fill="none" stroke="#000000" stroke-linecap="round" stroke-linejoin="round" stroke-miterlimit="10" d="M59.573,55.959
		c1.691,4.416,0.583,11.565-0.473,16.116c-1.696,7.304-4.281,14.967-6.927,21.977"/>
	<path fill="none" stroke="#000000" stroke-linecap="round" stroke-linejoin="round" stroke-miterlimit="10" d="M57.106,61.44
		c2.47,9.992-1.319,20.98-6.681,29.152c-7.986,12.172-17.873,20.413-31.96,25.11"/>
	<path fill="none" stroke="#000000" stroke-linecap="round" stroke-linejoin="round" stroke-miterlimit="10" d="M74.646,44.175
		c2.312,6.539,1.64,15.681,0.561,22.48c-1.746,10.99-8.481,22.828-16.158,30.674c-3.734,3.817-7.225,8.334-11.731,11.261
		c-3.399,2.208-7.01,4.234-10.504,6.296c-3.063,1.809-6.235,3.393-9.778,4.051c-5.522,1.025-10.285-0.845-15.694-0.493"/>
	<path fill="none" stroke="#000000" stroke-linecap="round" stroke-linejoin="round" stroke-miterlimit="10" d="M95.747,46.915
		c1.911,4.742-1.322,13.573-3.496,17.868c-5.082,10.044-10.781,20.056-18.693,28.15c-17.147,17.54-39.175,31.495-64.411,29.62"/>
	<path fill="none" stroke="#000000" stroke-linecap="round" stroke-linejoin="round" stroke-miterlimit="10" d="M87.799,42.805
		c1.156,3.46-0.29,8.04-1.021,11.499c-1.476,6.973-3.896,13.41-7.133,19.744c-3.276,6.417-7.946,10.941-12.729,16.223
		c-4.907,5.419-10.803,10.67-16.875,14.758c-11.431,7.695-28.801,15.078-42.812,10.4"/>
	<path fill="none" stroke="#000000" stroke-linecap="round" stroke-linejoin="round" stroke-miterlimit="10" d="M98.763,49.93
		c-0.593,8.466-2.866,17.42-6.304,25.221c-1.839,4.173-4.466,7.663-7.607,10.971c-5.103,5.369-10.058,11.003-15.681,15.891
		c-8.818,7.669-19.082,16.253-30.085,19.974c-3.744,1.266-7.374,3.566-11.242,4.426c-5.588,1.24-10.749-0.76-16.229-0.568"/>
	<path fill="none" stroke="#000000" stroke-linecap="round" stroke-linejoin="round" stroke-miterlimit="10" d="M53.818,41.982
		c10.336-18.33,42.548-27.783,53.439-4.111"/>
	<path fill="none" stroke="#000000" stroke-linecap="round" stroke-linejoin="round" stroke-miterlimit="10" d="M53.543,7.178
		c-6.05,7.391-13.056,13.756-18.368,21.938c-5.385,8.292-9.163,16.98-11.297,26.643c-1.518,6.875-1.423,14.004,0.274,20.829
		c0.901,3.622,2.303,7.138,4.239,10.337c3.117,5.153,7.332,7.893,11.449,12.061"/>
	<path fill="none" stroke="#000000" stroke-linecap="round" stroke-linejoin="round" stroke-miterlimit="10" d="M58.477,3.889
		c-3.21,3.699-10.338,6.367-14.562,9.074c-12.979,8.317-24.23,21.815-30.458,35.919C6.538,64.551,3.419,86.27,16.607,99.751
		c2.667,2.727,6.183,4.291,9.531,5.824c6.094,2.791,9.356,2.147,15.895-0.287"/>
	<path fill="none" stroke="#000000" stroke-linecap="round" stroke-linejoin="round" stroke-miterlimit="10" d="M59.573,3.067
		c-2.649,0.371-4.17,0.87-6.516,2.466c-4.403,2.995-9.627,4.891-13.811,8.176c-8.38,6.582-15.597,14.432-20.781,23.689
		c-6.436,11.492-9.206,26.584-6.609,39.648c2.258,11.362,14.016,27.817,26.889,27.146"/>
	<path fill="none" stroke="#000000" stroke-linecap="round" stroke-linejoin="round" stroke-miterlimit="10" d="M56.011,4.986
		c-1.873,3.147-6.029,5.213-8.537,7.928c-4.04,4.373-8.191,8.328-11.749,13.126c-6.123,8.255-11.537,17.528-13.431,27.712
		c-1.64,8.817-3.016,16.608-0.821,25.576c1.393,5.689,3.438,10.485,7.201,14.998c3.802,4.56,7.642,6.218,12.811,8.771"/>
	<path fill="none" stroke="#000000" stroke-linecap="round" stroke-linejoin="round" stroke-miterlimit="10" d="M52.995,8.275
		c-6.614,6.29-13.257,12.765-19.538,19.396c-6.833,7.211-11.834,15.502-15.273,24.746c-3.397,9.132-3.999,16.962-1.348,26.303
		c3.523,12.417,13.07,22.854,26.294,24.378"/>
	<path fill="none" stroke="#000000" stroke-linecap="round" stroke-linejoin="round" stroke-miterlimit="10" d="M80.811,41.361
		c2.747,6.369,0.085,14.437,0.31,21.039"/>
	<path fill="none" stroke="#000000" stroke-linecap="round" stroke-linejoin="round" stroke-miterlimit="10" d="M76.324,41.825
		c3.837,7.876,3.995,16.979,5.415,25.525"/>
	<path fill="none" stroke="#000000" stroke-linecap="round" stroke-linejoin="round" stroke-miterlimit="10" d="M74.158,43.218
		c0.688,4.676,0.87,9.168,0.773,13.887c-0.062,3.008-0.185,6.187-0.646,9.164c-0.655,4.224-2.546,8.156-3.686,12.221"/>
	<path fill="none" stroke="#000000" stroke-linecap="round" stroke-linejoin="round" stroke-miterlimit="10" d="M69.208,44.61
		c0.726,3.763,1.401,7.612,1.551,11.455c0.174,4.482,0.518,9.676-1.705,13.761"/>
	<path fill="none" stroke="#000000" stroke-linecap="round" stroke-linejoin="round" stroke-miterlimit="10" d="M64.257,49.405
		c3.369,7.763-0.196,18.074-1.855,25.681"/>
	<path fill="none" stroke="#000000" stroke-linecap="round" stroke-linejoin="round" stroke-miterlimit="10" d="M60.7,53.583
		c-0.036,2.872,1.101,5.834,1.392,8.705c0.357,3.508,0.155,7.106,0.155,10.633"/>
	<path fill="none" stroke="#000000" stroke-linecap="round" stroke-linejoin="round" stroke-miterlimit="10" d="M59.153,84.832
		c1.3-0.978,1.987-4.402,2.638-5.905c1.609-3.717,2.313-7.953,3.395-11.885"/>
	<path fill="none" stroke="#000000" stroke-linecap="round" stroke-linejoin="round" stroke-miterlimit="10" d="M40.434,104.324
		c1.692-0.308,2.874-2.282,3.903-3.563c1.456-1.811,3.356-3.318,4.449-5.396c1.767-3.361,3.962-6.633,5.416-10.223"/>
	<path fill="none" stroke="#000000" stroke-linecap="round" stroke-linejoin="round" stroke-miterlimit="10" d="M101.231,67.506
		c5.497-2.854,7.38-8.782,10.52-13.614"/>
	<path fill="none" stroke="#000000" stroke-linecap="round" stroke-linejoin="round" stroke-miterlimit="10" d="M85.915,90.866
		c3.035,0.062,5.82-2.478,8.053-4.178c3.52-2.68,6.671-5.538,8.965-9.437"/>
	<path fill="none" stroke="#000000" stroke-linecap="round" stroke-linejoin="round" stroke-miterlimit="10" d="M82.976,93.805
		c6.945-0.052,12.572-5.858,16.398-11.138"/>
	<path fill="none" stroke="#000000" stroke-linecap="round" stroke-linejoin="round" stroke-miterlimit="10" d="M78.335,97.208
		c4.023,1.077,7.882-0.776,11.448-2.475"/>
	<path fill="none" stroke="#000000" stroke-linecap="round" stroke-linejoin="round" stroke-miterlimit="10" d="M81.894,95.815
		c2.366-0.851,5.266-0.791,7.618-2.008c1.895-0.979,3.796-2.756,5.376-4.18"/>
	<path fill="none" stroke="#000000" stroke-linecap="round" stroke-linejoin="round" stroke-miterlimit="10" d="M111.751,67.196
		c0.959,2.702-1.322,7.344-2.615,9.743c-3.14,5.823-8.047,10.866-12.701,15.474"/>
	<path fill="none" stroke="#000000" stroke-linecap="round" stroke-linejoin="round" stroke-miterlimit="10" d="M101.85,74.622
		c-0.082,1.732-2.265,3.479-3.364,4.68c-1.63,1.777-3.448,2.934-5.453,4.293"/>
</g>
</svg>
