<?xml version="1.0" encoding="utf-8"?>
<!-- Generator: Adobe Illustrator 16.0.4, SVG Export Plug-In . SVG Version: 6.00 Build 0)  -->
<!DOCTYPE svg PUBLIC "-//W3C//DTD SVG 1.1//EN" "http://www.w3.org/Graphics/SVG/1.1/DTD/svg11.dtd">
<svg version="1.1" id="Layer_0504" xmlns="http://www.w3.org/2000/svg" xmlns:xlink="http://www.w3.org/1999/xlink" x="0px" y="0px"
	 width="128px" height="128px" viewBox="0 0 128 128" enable-background="new 0 0 128 128" xml:space="preserve">
<g>
	<g>
		<path fill-rule="evenodd" clip-rule="evenodd" d="M75.834,103.876c1.103,0.374,1.577,0.988,1.481,2.297
			c-0.15,2.032,0.053,4.085,0.72,6.053c0.822,2.427,0.578,4.9,0.19,7.348c-0.244,1.55-0.874,2.939-2.398,3.75
			c-0.896,0.477-1.102,1.025-0.371,2.025c0.762,1.043,0.215,2.103-1.047,2.17c-3.334,0.18-6.68,0.344-10.012,0.011
			c-1.649-0.165-1.93-0.626-1.68-2.533c0.08-0.612-0.149-1.008-0.462-1.374c-2.438-2.859-3.271-6.334-3.834-9.909
			c-0.187-1.181-0.323-2.374-0.405-3.567c-0.186-2.691,1.133-4.076,3.82-3.722c2.99,0.396,5.947,0.681,8.909-0.061
			c1.892-0.474,3.822-0.888,5.14-2.533L75.834,103.876z"/>
		<path fill-rule="evenodd" clip-rule="evenodd" d="M112.954,34.877c-1.108,0.022-2.217,0.045-3.325,0.069
			c-2.122,0.047-4.024-0.471-5.489-2.123l0.047,0.051c-0.139-0.998-0.75-1.643-1.588-2.115l0.046,0.057
			c-0.021-0.829-1.101-1.677-0.364-2.394c1.121-1.092,1.316-2.533,1.913-3.822l-0.055,0.041c0.318-0.061,0.507-0.249,0.566-0.567
			l-0.052,0.052c0.313-0.064,0.545-0.21,0.563-0.568l-0.055,0.047c0.468,0.02,0.884-0.062,1.091-0.553l-0.061,0.042
			c0.424-0.067,0.898-0.037,1.09-0.558l-0.061,0.043c1.062,0.038,1.98-0.494,2.948-0.8c0.845-0.268,1.671-0.369,2.521-0.218
			c1.502,0.267,3.061,0.396,2.932,2.633c-0.052,0.892,0.801,1.659,0.951,2.618c0.606,3.839-0.39,6.078-3.676,8.108L112.954,34.877z"
			/>
		<path fill-rule="evenodd" clip-rule="evenodd" d="M17.741,63.745c-0.459-1.814-0.941-3.623-1.364-5.445
			c-0.152-0.657-0.257-1.354-0.219-2.022c0.11-1.955,1.089-3.093,3.023-3.592c6.112-1.576,9.411,2.163,10.374,7.854
			c0.07,0.415,0.018,0.854,0,1.28c-0.118,2.791,0.523,3.049-2.82,3.021c-2.294-0.018-4.628,0.313-6.164,2.445
			c-0.479,0.664-0.812,0.282-1.11-0.213c-0.657-1.09-0.853-2.419-1.76-3.377L17.741,63.745z"/>
		<path fill-rule="evenodd" clip-rule="evenodd" d="M75.886,103.83c-0.75-0.046-1.244,0.512-1.848,0.803
			c-2.917,1.408-5.975,1.903-9.189,1.532c-1.102-0.127-2.22-0.117-3.321-0.248c-2.03-0.24-2.685-0.969-2.751-2.975
			c-0.074-2.21,0.601-4.197,1.786-6.043c0.437-0.678,0.843-1.013,1.608-0.38c2.035,1.683,4.62,1.58,7.02,2.058
			c0.58,0.115,1.225,0.07,1.748-0.262c1.611-1.021,3.494-0.619,5.232-0.979c1.361-0.281,2.49,0.893,3.629,1.602
			c0.347,0.216,0.138,0.625-0.109,0.881c-0.714,0.736-1.459,1.443-2.164,2.189c-0.576,0.609-1.382,1.016-1.692,1.867L75.886,103.83z
			"/>
		<path fill-rule="evenodd" clip-rule="evenodd" d="M17.701,63.696c-0.09,1.427,0.688,2.584,1.199,3.82
			c0.318,0.769-0.077,0.867-0.69,0.812l0.055,0.038c-2.379-1.467-4.876-1.466-6.741,0.001l0.054-0.036
			c-0.42,0.071-0.881,0.061-1.085,0.553l0.056-0.037c-1.533,0.503-2.081-0.933-2.835-1.65c-0.815-0.775-1.366-1.973-1.36-3.186
			c0.014-3.027-0.174-6.075,0.581-9.057l-0.053,0.044c1.717-0.798,3.464-1.346,5.417-1.184c2.513,0.21,3.086,0.746,3.401,3.228
			c0.298,2.34,0.521,4.727,2.042,6.703L17.701,63.696z"/>
		<path fill-rule="evenodd" clip-rule="evenodd" d="M101.099,28.712c-1.344,0.283-2.573,0.889-3.763,1.517
			c-2.753,1.457-5.595,1.04-8.458,0.604c-0.416-0.063-0.557-0.337-0.403-0.721c0.408-1.021,0.849-2.031,1.249-3.057
			c0.518-1.33,1.13-2.67,0.014-4.01l0.049,0.048c-0.922-1.39-0.924-1.395,0.484-1.89c1.841-0.646,3.76-0.981,5.643-1.449
			c1.334-0.33,2.461-0.273,3.648,0.252l-0.057-0.047c0.946,1.146,1.964,2.222,3.139,3.139l-0.045-0.059
			c0.031,0.442,0.029,0.901,0.557,1.09l-0.043-0.058c0.398,2.034-0.648,3.432-2.061,4.667L101.099,28.712z"/>
		<path fill-rule="evenodd" clip-rule="evenodd" d="M117.009,13.775c0.26,0.8,0.475,1.618,0.792,2.396
			c0.492,1.208,0.265,2.342-0.282,3.434c-0.941,1.882-1.471,2.111-3.604,1.67c-2.414-0.5-4.68-0.248-6.693,1.304l0.061-0.043
			c-0.459-0.001-0.914,0.005-1.09,0.558l0.061-0.042c-0.471-0.028-0.881,0.065-1.091,0.553l0.055-0.047
			c-0.298,0.08-0.521,0.235-0.563,0.568l0.052-0.052c-0.328,0.051-0.536,0.221-0.566,0.567l0.055-0.041
			c-0.36-0.176-0.72-0.353-1.081-0.528l0.043,0.058c0.01-0.463-0.025-0.902-0.557-1.09l0.045,0.059
			c-0.532-1.561-1.538-2.646-3.139-3.139l0.057,0.047c-0.199-0.51-0.66-0.968,0.141-1.468c1.287-0.805,2.844-1.105,3.978-2.179
			l-0.062,0.041c0.891,0.009,1.658-0.229,2.118-1.071l-0.06,0.043c0.449-0.016,0.889-0.053,1.091-0.555l-0.059,0.044
			c1.027-0.279,2.036-0.592,2.629-1.59l-0.06,0.042c2.645-0.616,5.254-0.694,7.778,0.517L117.009,13.775z"/>
		<path fill-rule="evenodd" clip-rule="evenodd" d="M112.417,47.276c-1.213-0.753-2.371-1.62-3.65-2.233
			c-1.813-0.869-2.61-2.419-3.025-4.188c-0.328-1.398-0.411-2.858-0.538-4.298c-0.147-1.671-0.048-1.737,1.577-1.409
			c1.857,0.376,3.73,0.242,5.601,0.163c0.196-0.008,0.382-0.283,0.573-0.435l-0.057,0.043c0.697,0.028,1.303-0.229,1.929-0.518
			c1.536-0.708,2.046-0.416,2.256,1.325c0.261,2.18,0.229,4.359-0.149,6.535c-0.274,1.579-0.774,3.072-1.468,4.508l0.05-0.053
			c-0.459-0.001-0.881,0.067-1.091,0.555l0.062-0.038c-0.708,0-1.415,0-2.122,0L112.417,47.276z"/>
		<path fill-rule="evenodd" clip-rule="evenodd" d="M109.802,68.886c0.557-0.01,0.98,0.154,1.074,0.785
			c0.051,0.335,0.154,0.646,0.52,0.776l-0.043-0.055c0.05,0.421,0.002,0.885,0.166,1.256c1.368,3.111,0.861,6.357,0.676,9.564
			c-0.084,1.452-1.704,2.646-3.274,2.66c-2.507,0.022-4.86-1.895-5.629-4.317c-0.996-3.143-0.556-6.197,0.111-9.309
			c0.284-1.325,1.018-0.992,1.817-0.847l-0.057-0.044c1.092,1.084,2.285,1.459,3.664,0.517l-0.061,0.042
			c0.687-0.033,0.988-0.452,1.082-1.079L109.802,68.886z"/>
		<path fill-rule="evenodd" clip-rule="evenodd" d="M15.644,36.425c1.793,1.93,1.041,4.261,0.987,6.468
			c-0.021,0.83-0.362,1.656-0.354,2.481c0.017,1.57-0.939,0.909-1.668,0.826l0.059,0.045c-1.618-1.369-3.367-1.4-5.209-0.517
			l0.063-0.039c-1.263,0.103-2.37,0.518-3.146,1.586l0.058-0.044c-0.854,0.207-1.441-0.013-1.821-0.894
			c-0.866-2.012-1.193-4.129-0.835-6.237c0.344-2.024,1.891-3.096,3.814-3.672c2.33-0.698,4.691-0.709,7.076-0.474l-0.062-0.042
			c0.191,0.521,0.655,0.51,1.089,0.556L15.644,36.425z"/>
		<path fill-rule="evenodd" clip-rule="evenodd" d="M75.327,94.053c-0.168,0.915,0.742,1.911,0.145,2.657
			c-0.615,0.767-1.768,0.358-2.682,0.485c-0.252,0.035-0.533,0.021-0.749,0.132c-2.602,1.342-5.192,0.539-7.669-0.238
			c-3.379-1.061-4.075-3.92-1.732-6.545c2.07-2.321,4.616-3.748,7.82-3.699c2.299,0.037,2.828,0.616,2.844,2.864
			c0.006,0.805-0.359,1.721,0.523,2.34l-0.043-0.062c0.082,1.041,0.744,1.648,1.59,2.116L75.327,94.053z"/>
		<path fill-rule="evenodd" clip-rule="evenodd" d="M20.269,18.977c1.188-0.21,1.816-1.167,2.559-1.95
			c0.844-0.89,0.813-0.912,1.305,0.113c0.287,0.598,0.479,1.301,1.34,1.321l-0.055-0.047c-0.006,0.815,0.555,1.39,0.898,2.05
			c1.307,2.508,1.655,5.085,0.646,7.779l0.046-0.057c-1.052,1.341-2.371,0.796-3.652,0.52l0.061,0.042
			c-1.285-0.972-2.73-0.414-4.107-0.39c-0.495,0.009-0.93,0.366-1.098,0.91l0.057-0.046c-0.676-0.113-0.915,0.933-1.43,0.711
			c-0.533-0.23-0.586-1.001-0.604-1.569c-0.043-1.369-0.475-2.633-0.862-3.919c-0.486-1.611-0.328-3.128,0.837-4.44l-0.061-0.042
			c1.741,1.067,3.011,0.225,4.178-1.032L20.269,18.977z"/>
		<path fill-rule="evenodd" clip-rule="evenodd" d="M103.669,5.075c-0.17-0.658,0.102-1.123,0.597-1.545
			c2.704-2.301,5.791-3.494,9.366-3.21c1.948,0.154,3.232,1.343,4.228,2.921c0.771,1.224-0.136,2.271-0.339,3.393l0.047-0.056
			c-0.327,0.051-0.516,0.24-0.566,0.567l0.055-0.05c-0.893,0.172-1.495,0.633-1.594,1.597l0.046-0.057
			c-0.92,0.486-1.507,1.306-2.112,2.107l0.059-0.046c-0.702,0.107-1.282,0.397-1.602,1.074l0.043-0.047
			c-1.085,0.179-1.859,0.872-2.617,1.589l0.06-0.042c-0.684,0.061-1.193-0.092-1.114-0.934c0.113-1.221-0.186-2.402-0.585-3.509
			c-0.685-1.898-1.724-3.544-4.021-3.788L103.669,5.075z"/>
		<path fill-rule="evenodd" clip-rule="evenodd" d="M89.737,23.045c0.254,1.571-0.061,3.013-0.813,4.423
			c-0.558,1.043-0.978,2.171-1.356,3.296c-0.44,1.312-1.402,1.966-2.657,2.024c-2.546,0.121-5.097,0.201-7.634-0.279
			c-0.822-0.156-0.904-0.596-0.873-1.233l-0.044,0.057c0.534-0.185,0.542-0.638,0.556-1.089l-0.041,0.061
			c0.129-0.1,0.301-0.173,0.378-0.303c0.917-1.55,0.653-3.109-0.059-4.625c-0.433-0.921-0.079-1.192,0.789-1.322
			c1.392-0.206,2.83-0.249,4.089-1.002l-0.064,0.036c0.834-0.083,1.729-0.001,2.49-0.28c1.836-0.675,3.569-0.631,5.289,0.285
			L89.737,23.045z"/>
		<path fill-rule="evenodd" clip-rule="evenodd" d="M25.472,18.461c-0.688-1.04-0.887-2.148-0.711-3.402
			c0.241-1.718,0.4-1.982,2.096-2.294c2.799-0.516,5.219,0.376,7.456,1.991c1.304,0.94,2.461,2.104,4.009,2.68l-0.047-0.046
			c0.338,0.65,0.906,0.957,1.602,1.072l-0.057-0.046c0.194,0.526,0.524,0.917,1.082,1.079l-0.045-0.058
			c0.072,0.498,0.085,1.015,0.232,1.49c0.311,1.008-0.213,1.198-1.027,1.136c-0.501-0.039-1-0.115-1.5-0.179
			c-2.327-0.297-4.652-0.595-6.979-0.893l0.064,0.038c-2.08-0.865-4.285-1.432-6.23-2.616L25.472,18.461z"/>
		<path fill-rule="evenodd" clip-rule="evenodd" d="M98.011,13.319c-0.129-0.21-0.234-0.441-0.393-0.627
			c-0.383-0.45-1.244-0.357-1.371-1.048c-0.148-0.811,0.361-1.48,0.798-2.082c1.005-1.386,2.079-2.661,3.909-3.111
			c0.96-0.236,1.813-0.903,2.715-1.376l-0.051-0.034c0.526,0.396,1.076,0.765,1.574,1.193c2.546,2.189,3.146,5.643,1.517,8.627
			l0.059-0.044c-0.468-0.019-0.894,0.043-1.091,0.555l0.06-0.043c-0.819,0.133-1.564,0.414-2.118,1.071l0.062-0.041
			c-1.306-0.003-2.349,0.715-3.429,1.296c-0.549,0.294-0.914,0.261-1.221-0.276l-0.031,0.062c0.856-1.849,0.791-2.309-0.52-3.661
			l0.049,0.056c-0.033-0.344-0.213-0.543-0.566-0.566L98.011,13.319z"/>
		<path fill-rule="evenodd" clip-rule="evenodd" d="M14.667,35.955c-1.878-1.294-3.889-0.538-5.85-0.343
			c-0.75,0.074-1.523,0.259-2.207,0.57c-1.137,0.518-1.54-0.066-1.836-0.993c-0.531-1.656-0.497-3.341-0.299-5.042
			c0.215-1.84,1.695-2.58,2.977-3.501l-0.053,0.043c1.656-0.083,3.133,0.502,4.605,1.17c0.919,0.417,1.617,1.237,2.66,1.407
			l-0.055-0.049c0.039,0.338,0.246,0.508,0.566,0.567l-0.047-0.033c1.428,1.762,1.328,3.934,1.572,6.001
			c0.088,0.749-0.549,0.688-1.059,0.672l0.051,0.044c-0.193-0.517-0.628-0.562-1.089-0.556L14.667,35.955z"/>
		<path fill-rule="evenodd" clip-rule="evenodd" d="M117.521,6.634c0.08-0.03,0.164-0.054,0.24-0.091
			c0.697-0.339,0.629-1.493,1.576-1.535c1.09-0.049,1.953,0.518,2.775,1.152c2.144,1.651,2.838,4.229,1.74,7.413
			c-0.932,2.697-3.065,4.477-5.01,6.391c-0.152,0.15-0.398,0.375-0.628,0.123c-0.189-0.208-0.062-0.456,0.026-0.7
			c0.59-1.625,0.303-3.192-0.368-4.721c-0.173-0.396-0.436-0.73-0.864-0.891l0.048,0.055c-0.735-1.354-2.116-1.257-3.347-1.458
			c-0.654-0.106-1.403,0.118-1.814-0.647l-0.043,0.047c0.768-0.009,1.287-0.389,1.602-1.074l-0.059,0.046
			c1.213-0.192,1.814-0.998,2.112-2.107l-0.046,0.057c0.668-0.396,1.254-0.872,1.594-1.597l-0.055,0.05
			c0.327-0.051,0.517-0.239,0.566-0.567L117.521,6.634z"/>
		<path fill-rule="evenodd" clip-rule="evenodd" d="M104.143,38.015c0.731,0.241,0.69,0.919,0.782,1.479
			c0.291,1.783,0.804,3.475,1.803,5.003c0.432,0.66,0.565,1.41,0.552,2.2c-0.022,1.275,0.2,2.724-1.083,3.479
			c-1.682,0.989-3.586,1.013-5.453,0.555c-0.594-0.146-0.93-0.759-1.172-1.298c-1.253-2.795-1.867-5.631-0.625-8.634
			c0.375-0.905,0.803-1.35,1.857-1.328c1.021,0.02,2.297,0.428,2.867-0.99l-0.049,0.05c0.355-0.021,0.506-0.25,0.568-0.565
			L104.143,38.015z"/>
		<path fill-rule="evenodd" clip-rule="evenodd" d="M73.829,17.946c-0.104-0.673,0.208-1.121,0.766-1.452
			c3.158-1.873,6.398-2.518,9.846-0.763c0.894,0.454,1.846,0.793,2.771,1.185l-0.054-0.047c0.044,0.334,0.249,0.506,0.566,0.567
			l-0.049-0.056c0.877,3.175,0.356,3.965-2.858,4.807c-0.94,0.246-2.018,0.166-2.811,0.9l0.064-0.036
			c-1.364-0.051-2.686,0.19-4.006,0.519c-0.654,0.162-1.201-0.022-1.086-0.899c0.334-2.53-1.042-3.913-3.201-4.771L73.829,17.946z"
			/>
		<path fill-rule="evenodd" clip-rule="evenodd" d="M105.22,69.4c-1.033-1.111-2.146-2.159-3.078-3.349
			c-1.188-1.513-1.889-3.247-1.656-5.238c0.18-1.55,0.558-1.818,2.155-1.483c1.896,0.398,3.729,0.266,5.503-0.545
			c1.144-0.522,1.23-0.526,1.416,0.776c0.325,2.276,0.521,4.57,0.803,6.853c0.111,0.905-0.582,1.602-0.561,2.472l0.047-0.05
			c-0.551,0.17-0.902,0.539-1.082,1.079l0.061-0.042c-1.295,0.345-2.426-0.474-3.664-0.517L105.22,69.4z"/>
		<path fill-rule="evenodd" clip-rule="evenodd" d="M110.882,56.534c-1.119-1.177-1.536-2.633-1.561-4.199
			c-0.031-1.977-0.176-3.925-0.876-5.796c-0.085-0.227-0.229-0.486,0.049-0.692c0.237-0.176,0.457-0.07,0.682,0.056
			c1.028,0.58,1.925,1.474,3.241,1.374l-0.053-0.042c0.707,0.698,1.415,0.719,2.122,0l-0.062,0.038
			c0.468,0.021,0.892-0.045,1.091-0.555l-0.05,0.053c1.464-0.898,1.589-0.905,2.241,0.389c0.824,1.634,1.145,3.362,0.639,5.169
			c-0.252,0.895-0.55,1.776-0.827,2.664l0.05-0.049c-0.318,0.061-0.508,0.249-0.566,0.567l0.054-0.05
			c-0.675,0.147-1.288,0.388-1.6,1.076l0.061-0.042c-1.563-0.016-3.128,0.934-4.69-0.005L110.882,56.534z"/>
		<path fill-rule="evenodd" clip-rule="evenodd" d="M22.85,44.661c1.267,0.777,2.844,0.987,3.78,2.389
			c0.887,1.328,1.232,4.473,0.436,5.864c-0.236,0.409-0.482,0.301-0.818,0.124c-3.095-1.633-6.2-1.63-9.286,0.017
			c-0.499,0.266-0.774,0.253-0.83-0.356c-0.196-2.16,0.341-4.253,0.644-6.361c0.105-0.742,0.921-0.935,1.565-1.17
			c1.483-0.54,3.027-0.481,4.567-0.463L22.85,44.661z"/>
		<path fill-rule="evenodd" clip-rule="evenodd" d="M14.608,46.2c0.811,0.897,1.488,1.823,1.143,3.163
			c-0.125,0.485-0.018,1.025-0.082,1.532c-0.117,0.921,0.324,2.091-0.362,2.71c-0.724,0.653-1.694-0.34-2.626-0.277
			c-2.063,0.141-4.307-0.429-5.8,1.67l0.053-0.044c-0.325-0.043-0.712,0.1-0.937-0.257c-0.773-1.231-0.638-2.615-0.699-3.981
			c-0.059-1.33,0.114-2.531,1.135-3.484l-0.058,0.044c1.16-0.309,2.257-0.743,3.146-1.586l-0.063,0.039
			c1.786-0.327,3.491,0.154,5.209,0.517L14.608,46.2z"/>
		<path fill-rule="evenodd" clip-rule="evenodd" d="M52.218,19.493c-0.199-0.265-0.396-0.531-0.6-0.795
			c-0.221-0.288-0.385-0.639,0.078-0.774c0.807-0.237,1.602-0.483,2.5-0.312c2.018,0.386,4.074,0.499,6.111,0.233
			c1.344-0.176,2.479,0.565,3.752,0.615l-0.059-0.044c0.934,1.172,2.213,2.086,2.422,3.768c0.18,1.452-0.055,1.902-1.494,1.964
			c-1.445,0.062-2.894,0.062-4.342,0.065c-1.443,0.003-2.881,0.03-4.309-0.347c-0.883-0.232-1.516-0.412-1.619-1.548
			c-0.133-1.456-1.01-2.48-2.492-2.874L52.218,19.493z"/>
		<path fill-rule="evenodd" clip-rule="evenodd" d="M38.321,17.436c0.062-0.397-0.084-0.878,0.438-1.093
			c0.717-0.295,1.445-0.53,2.234-0.488c2.482,0.132,4.876,0.396,7.051,1.896c1.215,0.837,2.771,1.179,4.174,1.743l-0.051-0.048
			c0.494,0.573,1.051,1.105,1.463,1.731c0.363,0.553,0.803,1.203,0.491,1.896c-0.369,0.821-1.191,0.509-1.815,0.45
			c-3.04-0.284-6.072-0.649-9.113-0.938c-0.928-0.089-1.332-0.498-1.439-1.423c-0.074-0.643-0.212-1.353-0.896-1.724l0.045,0.058
			c-0.061-0.66-0.41-1.031-1.082-1.079l0.057,0.046c-0.278-0.739-0.824-1.078-1.602-1.072L38.321,17.436z"/>
		<path fill-rule="evenodd" clip-rule="evenodd" d="M102.132,51.571c0.713-0.078,1.643-0.162,2.568-0.286
			c1.561-0.21,2.781-0.825,3.02-2.596c0.032-0.237,0.192-0.457,0.293-0.685c0.119,0.218,0.275,0.424,0.352,0.655
			c0.324,0.982,0.439,1.996,0.466,3.029c0.03,1.193,0,2.391,0.339,3.564c0.395,1.367-0.238,2.429-1.371,3.01
			c-3.332,1.71-7.169,0.823-8.434-3.255c-0.383-1.235,0.09-2.157,0.698-3.102C100.544,51.159,101.243,51.405,102.132,51.571z"/>
		<path fill-rule="evenodd" clip-rule="evenodd" d="M87.212,16.916c-0.09-0.443-0.664-0.833-0.062-1.346
			c2.373-2.021,5.176-2.994,8.223-3.153c0.861-0.045,1.758,0.583,2.639,0.902l-0.049-0.05c0.074,0.303,0.254,0.501,0.566,0.566
			l-0.049-0.056c0.522,1.171,0.705,2.391,0.52,3.661l0.031-0.062c-0.673,0.461-0.88,1.425-1.861,1.579
			c-2.672,0.419-5.285,1.082-7.834,2c-0.521,0.188-0.984,0.129-0.822-0.713c0.207-1.065,0.497-2.222-0.837-2.864l0.049,0.056
			c-0.042-0.336-0.244-0.512-0.566-0.567L87.212,16.916z"/>
		<path fill-rule="evenodd" clip-rule="evenodd" d="M18.263,36.425c-0.313-0.071-0.803-0.003-0.852-0.377
			c-0.277-2.088-1.164-4.237,0.488-6.179c0.157-0.186,0.246-0.43,0.367-0.646l-0.057,0.046c1.676-0.761,3.443-0.612,5.205-0.521
			l-0.061-0.042c2.946,1.56,3.398,4.206,2.994,7.137c-0.145,1.047-0.365,2.295-1.963,2.124l0.056,0.045
			c-0.321-0.674-0.886-0.986-1.602-1.072l0.059,0.043c-0.194-0.516-0.624-0.57-1.091-0.555l0.063,0.04
			c-1.222-0.835-2.443-0.955-3.665,0L18.263,36.425z"/>
		<path fill-rule="evenodd" clip-rule="evenodd" d="M22.907,44.704c-1.436-0.913-2.908-0.443-4.384-0.133
			c-1.255,0.265-1.404,0.182-1.38-1.01c0.031-1.616,0.212-3.23,0.227-4.847c0.009-0.913,0.469-1.578,0.893-2.29l-0.057,0.043
			c1.222-0.184,2.443-0.118,3.665,0l-0.063-0.04c0.198,0.512,0.646,0.531,1.091,0.555l-0.059-0.043
			c0.322,0.673,0.827,1.074,1.602,1.072l-0.056-0.045c0.578,0.813,1.164,1.623,1.734,2.442c0.592,0.849,0.94,1.778,0.859,2.832
			c-0.127,1.654-0.67,2-2.386,1.612c-0.567-0.128-1.162-0.132-1.744-0.192L22.907,44.704z"/>
		<path fill-rule="evenodd" clip-rule="evenodd" d="M64.06,18.461c-0.096-0.131-0.168-0.293-0.291-0.386
			c-0.256-0.19-0.682-0.287-0.527-0.709c0.065-0.179,0.371-0.374,0.574-0.38c2.02-0.067,4.041-0.333,6.053,0.172
			c1.305,0.328,2.588,0.791,3.961,0.788L73.778,17.9c0.466,0.947,1.467,1.381,2.087,2.192c0.76,0.994,0.786,2.071,0.388,3.135
			c-0.363,0.965-1.327,0.943-2.186,0.952c-1.787,0.018-3.576-0.025-5.363,0.032c-1.142,0.036-1.627-0.292-1.708-1.562
			c-0.124-1.935-0.829-3.651-2.995-4.232L64.06,18.461z"/>
		<path fill-rule="evenodd" clip-rule="evenodd" d="M11.836,15.957c-0.623-1.887-0.446-2.199,1.475-2.339
			c0.811-0.06,1.635-0.014,2.448,0.047c1.044,0.079,2.057,0.152,3.069-0.278c0.774-0.329,1.594-0.217,2.398,0.051
			c1.406,0.469,1.55,0.876,0.981,2.3c-0.493,1.233-1.745,1.798-2.365,2.898l0.049-0.04c-1.224,0.243-2.263,1.236-3.631,0.897
			l0.053,0.036c-0.341-0.49-0.844-0.743-1.388-0.934l0.043,0.043c-0.027-0.301-0.194-0.463-0.493-0.491l0.045,0.044
			c-0.025-0.302-0.217-0.438-0.491-0.494l0.048,0.042c-0.409-0.732-1.002-1.218-1.839-1.379l0.047,0.042
			c-0.032-0.295-0.208-0.447-0.492-0.493L11.836,15.957z"/>
		<path fill-rule="evenodd" clip-rule="evenodd" d="M12.558,21.503c1.683,1.541,2.617,3.5,3.033,5.696
			c0.162,0.858,0.551,1.861-0.461,2.553l0.047,0.033c-0.043-0.336-0.252-0.504-0.566-0.567l0.055,0.049
			c-1.486-1.956-3.665-2.574-5.919-3.003c-0.46-0.088-1.031-0.131-1.347,0.426l0.053-0.043c-0.871,0.103-1.594,0.109-1.935-1.006
			c-0.858-2.804,0.403-4.512,3.365-4.613c1.3-0.045,2.476,0.438,3.729,0.522L12.558,21.503z"/>
		<path fill-rule="evenodd" clip-rule="evenodd" d="M103.671,38.48c-0.479,0.162-0.949,0.372-1.44,0.477
			c-1.831,0.389-2.13,0.036-2.957-1.755c-1.548-3.354-0.569-6.045,1.825-8.49l-0.047,0.026c0.877,0.428,0.471,1.838,1.593,2.077
			l-0.046-0.057c0.176,0.971,0.768,1.629,1.588,2.115l-0.047-0.051c0.151,1.73,0.846,3.461,0.003,5.191l0.048-0.05
			c-0.344,0.034-0.492,0.263-0.568,0.565L103.671,38.48z"/>
		<path fill-rule="evenodd" clip-rule="evenodd" d="M12.612,21.55c-0.99-1.286-2.418-0.889-3.723-0.969
			c-1.377-0.084-1.39-0.129-1.159-1.476c0.157-0.924,0.426-1.8,0.854-2.633c0.842-1.639,0.84-1.64,2.471-0.578l-0.048-0.055
			c0.041,0.337,0.257,0.498,0.565,0.567l-0.054-0.048c0.48,0.828,1.14,1.42,2.116,1.587l-0.055-0.049
			c0.037,0.34,0.264,0.491,0.564,0.568l-0.052-0.051c0.076,0.302,0.249,0.507,0.567,0.565l-0.05-0.05
			c0.077,0.331,0.185,0.657,0.225,0.991c0.093,0.766,0.155,1.733-0.338,2.179c-0.647,0.587-1.144-0.784-1.94-0.598L12.612,21.55z"/>
		<path fill-rule="evenodd" clip-rule="evenodd" d="M89.784,109.534c-1.152-0.255-1.896-0.916-2.107-2.11
			C88.521,107.986,89.228,108.685,89.784,109.534z"/>
		<path fill-rule="evenodd" clip-rule="evenodd" d="M102.645,30.815c-1.122-0.239-0.716-1.649-1.593-2.077
			c1.412-1.235,2.459-2.633,2.061-4.667c0.361,0.176,0.721,0.353,1.081,0.528c-0.597,1.289-0.792,2.73-1.913,3.822
			C101.544,29.139,102.624,29.986,102.645,30.815z"/>
		<path fill-rule="evenodd" clip-rule="evenodd" d="M104.187,32.874c-0.82-0.486-1.412-1.145-1.588-2.115
			C103.437,31.231,104.048,31.876,104.187,32.874z"/>
		<path fill-rule="evenodd" clip-rule="evenodd" d="M105.162,23.604c0.21-0.487,0.62-0.581,1.091-0.553
			C106.046,23.542,105.63,23.623,105.162,23.604z"/>
		<path fill-rule="evenodd" clip-rule="evenodd" d="M106.192,23.093c0.176-0.553,0.631-0.559,1.09-0.558
			C107.091,23.056,106.616,23.025,106.192,23.093z"/>
		<path fill-rule="evenodd" clip-rule="evenodd" d="M104.139,24.641c0.03-0.347,0.238-0.517,0.566-0.567
			C104.646,24.392,104.457,24.58,104.139,24.641z"/>
		<path fill-rule="evenodd" clip-rule="evenodd" d="M104.653,24.125c0.043-0.333,0.266-0.488,0.563-0.568
			C105.198,23.915,104.967,24.061,104.653,24.125z"/>
		<path fill-rule="evenodd" clip-rule="evenodd" d="M18.265,68.366c-2.247-0.771-4.494-0.703-6.741,0.001
			C13.389,66.9,15.886,66.899,18.265,68.366z"/>
		<path fill-rule="evenodd" clip-rule="evenodd" d="M11.577,68.331c-0.266,0.373-0.668,0.477-1.085,0.553
			C10.696,68.392,11.157,68.402,11.577,68.331z"/>
		<path fill-rule="evenodd" clip-rule="evenodd" d="M111.905,90.959c-0.354,1.396-1.262,2.237-2.625,2.623
			C110.026,92.579,110.905,91.709,111.905,90.959z"/>
		<path fill-rule="evenodd" clip-rule="evenodd" d="M109.333,93.533c-0.027,0.349-0.242,0.511-0.564,0.567
			C108.819,93.774,109.034,93.611,109.333,93.533z"/>
		<path fill-rule="evenodd" clip-rule="evenodd" d="M99.505,19.959c1.601,0.492,2.606,1.578,3.139,3.139
			C101.469,22.181,100.451,21.105,99.505,19.959z"/>
		<path fill-rule="evenodd" clip-rule="evenodd" d="M102.599,23.039c0.531,0.188,0.566,0.627,0.557,1.09
			C102.628,23.94,102.63,23.481,102.599,23.039z"/>
		<path fill-rule="evenodd" clip-rule="evenodd" d="M75.374,94.104c-0.846-0.468-1.508-1.075-1.59-2.116
			C74.599,92.479,75.146,93.171,75.374,94.104z"/>
		<path fill-rule="evenodd" clip-rule="evenodd" d="M105.163,69.356c1.238,0.043,2.369,0.861,3.664,0.517
			C107.448,70.815,106.255,70.44,105.163,69.356z"/>
		<path fill-rule="evenodd" clip-rule="evenodd" d="M108.767,69.915c0.18-0.54,0.531-0.909,1.082-1.079
			C109.755,69.463,109.453,69.882,108.767,69.915z"/>
		<path fill-rule="evenodd" clip-rule="evenodd" d="M14.667,46.245c-1.718-0.362-3.423-0.844-5.209-0.517
			C11.3,44.845,13.049,44.876,14.667,46.245z"/>
		<path fill-rule="evenodd" clip-rule="evenodd" d="M9.521,45.689c-0.89,0.843-1.986,1.277-3.146,1.586
			C7.151,46.207,8.259,45.792,9.521,45.689z"/>
		<path fill-rule="evenodd" clip-rule="evenodd" d="M14.605,35.913c0.461-0.007,0.896,0.039,1.089,0.556
			C15.261,36.423,14.797,36.435,14.605,35.913z"/>
		<path fill-rule="evenodd" clip-rule="evenodd" d="M23.415,28.748c-1.762-0.092-3.529-0.24-5.205,0.521
			c0.168-0.544,0.603-0.901,1.098-0.91C20.685,28.334,22.13,27.776,23.415,28.748z"/>
		<path fill-rule="evenodd" clip-rule="evenodd" d="M16.147,19.963c1.574,0.39,2.77-0.753,4.178-1.032
			C19.158,20.188,17.889,21.03,16.147,19.963z"/>
		<path fill-rule="evenodd" clip-rule="evenodd" d="M117.567,6.578c-0.05,0.328-0.239,0.517-0.566,0.567
			C117.052,6.818,117.24,6.629,117.567,6.578z"/>
		<path fill-rule="evenodd" clip-rule="evenodd" d="M76.359,31.332c-0.005-0.46,0.021-0.904,0.556-1.089
			C76.901,30.694,76.894,31.147,76.359,31.332z"/>
		<path fill-rule="evenodd" clip-rule="evenodd" d="M110.825,56.49c1.562,0.938,3.127-0.011,4.69,0.005
			c-0.61,0.686-1.481,0.788-2.294,0.909C112.302,57.54,111.323,57.577,110.825,56.49z"/>
		<path fill-rule="evenodd" clip-rule="evenodd" d="M115.455,56.537c0.312-0.688,0.925-0.929,1.6-1.076
			C116.789,56.218,116.196,56.486,115.455,56.537z"/>
		<path fill-rule="evenodd" clip-rule="evenodd" d="M117.001,55.511c0.059-0.318,0.248-0.507,0.566-0.567
			C117.521,55.275,117.332,55.465,117.001,55.511z"/>
		<path fill-rule="evenodd" clip-rule="evenodd" d="M38.274,17.39c0.777-0.006,1.323,0.333,1.602,1.072
			C39.181,18.347,38.612,18.04,38.274,17.39z"/>
		<path fill-rule="evenodd" clip-rule="evenodd" d="M39.819,18.416c0.672,0.048,1.021,0.419,1.082,1.079
			C40.344,19.333,40.014,18.942,39.819,18.416z"/>
		<path fill-rule="evenodd" clip-rule="evenodd" d="M98.999,17.441c0.186-1.271,0.003-2.49-0.52-3.661
			C99.79,15.133,99.855,15.593,98.999,17.441z"/>
		<path fill-rule="evenodd" clip-rule="evenodd" d="M98.528,13.836c-0.312-0.065-0.492-0.264-0.566-0.566
			C98.315,13.293,98.495,13.492,98.528,13.836z"/>
		<path fill-rule="evenodd" clip-rule="evenodd" d="M7.399,26.689c0.315-0.557,0.887-0.514,1.347-0.426
			c2.254,0.429,4.433,1.047,5.919,3.003c-1.043-0.17-1.741-0.99-2.66-1.407C10.532,27.191,9.056,26.606,7.399,26.689z"/>
		<path fill-rule="evenodd" clip-rule="evenodd" d="M14.61,29.218c0.314,0.063,0.523,0.231,0.566,0.567
			C14.856,29.726,14.649,29.556,14.61,29.218z"/>
		<path fill-rule="evenodd" clip-rule="evenodd" d="M103.622,38.53c0.076-0.303,0.225-0.531,0.568-0.565
			C104.128,38.28,103.978,38.509,103.622,38.53z"/>
		<path fill-rule="evenodd" clip-rule="evenodd" d="M87.158,16.869c0.322,0.056,0.524,0.231,0.566,0.567
			C87.407,17.375,87.202,17.203,87.158,16.869z"/>
		<path fill-rule="evenodd" clip-rule="evenodd" d="M21.871,36.468c-1.222-0.118-2.443-0.184-3.665,0
			C19.428,35.513,20.649,35.633,21.871,36.468z"/>
		<path fill-rule="evenodd" clip-rule="evenodd" d="M24.441,38.012c-0.774,0.002-1.279-0.399-1.602-1.072
			C23.556,37.025,24.12,37.338,24.441,38.012z"/>
		<path fill-rule="evenodd" clip-rule="evenodd" d="M22.898,36.982c-0.445-0.023-0.893-0.043-1.091-0.555
			C22.274,36.412,22.704,36.467,22.898,36.982z"/>
		<path fill-rule="evenodd" clip-rule="evenodd" d="M13.636,17.946c-0.977-0.167-1.636-0.759-2.116-1.587
			C12.482,16.545,13.165,17.104,13.636,17.946z"/>
		<path fill-rule="evenodd" clip-rule="evenodd" d="M14.146,18.466c-0.301-0.077-0.527-0.229-0.564-0.568
			C13.896,17.962,14.116,18.118,14.146,18.466z"/>
		<path fill-rule="evenodd" clip-rule="evenodd" d="M14.661,18.98c-0.318-0.059-0.491-0.264-0.567-0.565
			C14.438,18.447,14.63,18.634,14.661,18.98z"/>
		<path fill-rule="evenodd" clip-rule="evenodd" d="M11.573,16.407c-0.309-0.069-0.524-0.23-0.565-0.567
			C11.334,15.893,11.536,16.067,11.573,16.407z"/>
	</g>
	<path fill-rule="evenodd" clip-rule="evenodd" d="M113.444,81.734c-0.85-1.206-0.627-2.579-0.57-3.909
		c0.101-2.377,0.058-4.723-1.045-6.909c-0.102-0.203-0.315-0.351-0.477-0.523l0.043,0.055c-0.018-0.325-0.004-0.656-0.061-0.974
		c-0.158-0.898,0.271-1.184,1.088-1.102l-0.059-0.043c0.385,0.684,1.047,0.535,1.554,0.361c1.17-0.404,2.407-0.759,3.139-1.906
		l-0.056,0.045c1.013-0.162,1.574-0.973,2.254-1.598c0.514-0.471,0.874-0.29,1.276,0.139c0.794,0.846,1.242,1.81,1.225,2.993
		c-0.03,2.049-0.08,4.099-0.017,6.146c0.047,1.525-0.978,2.714-1.133,4.158l0.045-0.057c-0.32,0.267-0.709,0.482-0.95,0.809
		c-1.604,2.16-3.729,2.834-6.306,2.285L113.444,81.734z"/>
	<path fill-rule="evenodd" clip-rule="evenodd" d="M112.423,68.372c-1.189-1.055-1.557-2.358-1.776-3.955
		c-0.312-2.263-0.13-4.57-0.709-6.795c-0.212-0.812,0.248-1.057,0.944-1.088l-0.057-0.044c0.498,1.087,1.477,1.05,2.396,0.914
		c0.812-0.121,1.684-0.224,2.294-0.909l-0.061,0.042c0.741-0.051,1.334-0.319,1.6-1.076l-0.054,0.05
		c0.331-0.046,0.52-0.235,0.566-0.567l-0.05,0.049c0.506-0.159,1.046-0.708,1.464,0.133c1.115,2.246,1.431,4.65,1.339,7.114
		c-0.036,0.963-0.586,1.719-1.248,2.424c-0.684,0.729-1.665,1.175-2.071,2.166l0.056-0.045c-1.623,0.335-2.89,1.754-4.692,1.545
		L112.423,68.372z"/>
	<path fill-rule="evenodd" clip-rule="evenodd" d="M120.606,78.667c0.764-0.268,0.824-1.006,1.094-1.611
		c0.1-0.22,0.298-0.486,0.58-0.334c0.185,0.1,0.369,0.352,0.402,0.559c0.68,4.319-0.305,8.168-3.618,11.129
		c-1.49,1.333-3.544,1.485-5.505,1.565c-0.361,0.015-0.706-0.213-0.703-0.585c0.024-2.447-0.306-4.904,0.209-7.334
		c0.027-0.129,0.248-0.215,0.379-0.321l-0.049-0.03c0.618,0.854,1.481,1.031,2.431,0.79c2.192-0.557,4.042-1.564,4.825-3.884
		L120.606,78.667z"/>
	<path fill-rule="evenodd" clip-rule="evenodd" d="M106.714,102.8c1.409,1.404,1.406,1.401-0.26,2.675
		c-0.674,0.516-1.379,1.001-1.996,1.578c-2.379,2.225-5.236,2.99-8.414,2.911c-2.112-0.053-4.236,0.086-6.309-0.477l0.049,0.047
		c-0.557-0.85-1.264-1.548-2.107-2.11l0.045,0.058c-0.291-0.883-0.604-1.76-0.867-2.65c-0.699-2.374,0.494-4.008,2.958-4.136
		c4.491-0.234,9.008-0.302,13.332-1.777c0.681-0.232,0.977,0.022,0.972,0.665c-0.015,1.828,1.029,2.773,2.648,3.264L106.714,102.8z"
		/>
	<path fill-rule="evenodd" clip-rule="evenodd" d="M99.556,92.56c-0.139-2.552-0.302-5.104,0.473-7.598
		c0.308-0.988,0.738-1.912,1.548-2.595c0.774-0.652,1.548-1.038,2.44-0.104c0.713,0.745,1.629,1.216,2.584,1.606
		c1.307,0.533,2.629,0.662,3.976,0.184c1.429-0.508,1.478-0.514,1.464,0.84c-0.02,2.041-0.116,4.082-0.18,6.123l0.045-0.058
		c-1,0.75-1.879,1.62-2.625,2.623l0.053-0.049c-0.299,0.078-0.514,0.241-0.564,0.567l0.053-0.052
		c-0.324,0.054-0.522,0.233-0.566,0.567l0.051-0.053c-0.332,0.045-0.521,0.234-0.565,0.566l0.052-0.052
		c-0.332,0.046-0.531,0.226-0.566,0.567l0.054-0.05c-1.966,0.491-3.894,0.562-5.718-0.515l0.055,0.05
		c-0.035-0.342-0.231-0.524-0.566-0.567l0.053,0.053c-0.045-0.334-0.219-0.537-0.568-0.566l0.049,0.055
		c-0.061-0.732-0.42-1.266-1.072-1.604L99.556,92.56z"/>
	<path fill-rule="evenodd" clip-rule="evenodd" d="M111.86,91.017c0.381-0.174,0.766-0.506,1.141-0.494
		c1.736,0.054,3.393-0.347,5.012-0.85c1.074-0.334,1.393,0.188,1.625,1.016c0.023,0.082,0.037,0.168,0.039,0.253
		c0.044,4.204-0.945,7.946-4.707,10.431c-1.508,0.996-3.254,1.454-4.895,2.154c-1.361,0.582-2.193-0.734-3.361-0.727l0.051,0.047
		c-0.135-0.541-0.631-0.748-0.986-1.088c-1.562-1.49-1.596-2.768-0.146-4.305c0.568-0.603,1.355-1.012,1.647-1.858l-0.054,0.05
		c0.322-0.056,0.512-0.244,0.566-0.567l-0.052,0.052c0.322-0.055,0.512-0.242,0.565-0.566l-0.051,0.053
		c0.322-0.056,0.514-0.242,0.566-0.567l-0.053,0.052c0.322-0.057,0.537-0.219,0.564-0.567l-0.053,0.049
		c1.363-0.386,2.271-1.227,2.625-2.623L111.86,91.017z"/>
	<path fill-rule="evenodd" clip-rule="evenodd" d="M89.735,109.487c-1.052,4.65-5.721,6.715-9.54,4.224
		c-0.968-0.631-1.602-1.423-1.899-2.608c-0.384-1.521-0.463-3.038-0.471-4.58c-0.002-0.598,0.217-1.404-0.085-1.756
		c-1.196-1.396-0.14-2.082,0.72-2.862c1.008-0.914,1.773-2.11,3.094-2.661L81.493,99.2c0.363,0.688,1.023,0.51,1.607,0.553
		l-0.064-0.037c0.888,0.766,2.037,0.69,3.082,0.905c0.782,0.161,0.975,0.29,0.553,1.103c-1.115,2.146-0.522,4.061,1.051,5.758
		l-0.045-0.058c0.211,1.194,0.955,1.855,2.107,2.11L89.735,109.487z"/>
	<path fill-rule="evenodd" clip-rule="evenodd" d="M85.147,94.105c-0.045-0.337-0.061-0.679-0.14-1.007
		c-0.448-1.855-0.244-2.314,1.513-2.619c3.204-0.555,6.428-0.219,9.639-0.003c1.442,0.097,2.321,1.292,3.396,2.083l-0.045-0.059
		c0.016,0.765,0.381,1.293,1.072,1.604l-0.049-0.055c0.066,0.312,0.238,0.519,0.568,0.566l-0.053-0.053
		c0.049,0.329,0.248,0.508,0.566,0.567l-0.055-0.05c0.354,0.912,1.227,1.086,1.994,1.415c0.48,0.206,1.366-0.319,1.418,0.509
		c0.037,0.588-0.76,0.845-1.274,1.108c-0.523,0.269-1.095,0.458-1.661,0.624c-3.205,0.938-6.432,1.51-9.731,0.459l0.054,0.045
		c-1.242-1-2.688-1.59-4.176-2.102l0.058,0.045c-0.329-0.663-0.84-1.057-1.603-1.072l0.055,0.048
		c-0.027-0.351-0.228-0.527-0.566-0.566l0.049,0.054c-0.104-0.703-0.41-1.272-1.072-1.602L85.147,94.105z"/>
	<path fill-rule="evenodd" clip-rule="evenodd" d="M73.827,92.049c-0.025-0.423-0.07-0.844-0.075-1.267
		c-0.028-2.438,1.936-4.193,4.356-3.902c3.039,0.364,5.353,2.482,6.084,5.533c0.154,0.642,0.305,1.316,0.955,1.692l-0.043-0.06
		c0,0.772,0.351,1.312,1.072,1.602l-0.049-0.054c0.068,0.31,0.262,0.493,0.566,0.566l-0.055-0.048
		c0.322,0.675,0.866,1.018,1.603,1.072l-0.058-0.045c1.127,1.227,2.525,1.915,4.176,2.102l-0.054-0.045
		c0.062,0.746-0.308,0.973-1.024,1.044c-2.782,0.275-5.493-0.434-8.246-0.524l0.064,0.037c-0.381-0.636-1.039-0.465-1.607-0.553
		l0.061,0.043c-0.469-0.65-1.236-0.801-1.9-1.105c-1.91-0.876-3.574-1.992-4.326-4.085l0.047,0.051
		c-0.229-0.933-0.775-1.624-1.59-2.116L73.827,92.049z"/>
	<path fill-rule="evenodd" clip-rule="evenodd" d="M27.478,89.935c1.242,0.843,2.676,0.961,4.096,0.953
		c1.725-0.012,3.409,0.239,5.081,0.576c1.63,0.327,2.938,0.878,3.493,2.846c0.512,1.813,2.041,3.109,3.737,4.049
		c0.822,0.455,1.696,0.838,2.452,1.384c1.621,1.171,2.56,2.739,2.389,4.817c-0.026,0.318-0.114,0.723-0.535,0.727
		c-0.203,0-0.471-0.188-0.597-0.367c-0.243-0.348-0.429-0.74-0.601-1.131c-0.614-1.403-1.625-2.402-3.053-2.944
		c-2.258-0.856-4.327-2.046-6.217-3.53c-0.945-0.744-1.718-0.684-2.784-0.13c-4.638,2.409-9.208,2.091-13.632-0.647
		c-0.727-0.449-1.499-0.842-2.167-1.365c-0.644-0.506-1.759-0.885-1.537-1.837c0.142-0.608,1.248-0.204,1.856-0.515
		c0.817-0.415,1.801-0.534,2.402-1.339l-0.051,0.045c1.238-0.229,2.231-0.875,2.938-1.894c0.326-0.471,0.635-0.783,1.229-0.68
		l-0.052-0.043c0.323,0.674,0.803,1.111,1.603,1.07L27.478,89.935z"/>
	<path fill-rule="evenodd" clip-rule="evenodd" d="M35.19,81.749c0.924-0.118,1.717-0.6,1.926-1.457
		c0.274-1.124,0.81-0.801,1.475-0.535c3.641,1.46,5.454,4.307,5.819,8.058c0.222,2.284-0.983,4.086-2.697,5.532
		c-0.354,0.299-0.856,0.468-1.104,0.006c-1.255-2.33-3.604-2.528-5.746-2.71c-2.465-0.208-4.912-0.606-7.385-0.708l0.052,0.045
		c-0.356-0.623-0.899-0.967-1.603-1.07l0.052,0.043c-0.202-0.961-0.856-1.889,0.843-2.426c0.873-0.275,1.729-1.261,2.25-2.25
		l-0.057,0.045c1.061-0.223,1.993-0.661,2.63-1.588l-0.062,0.041c1.277-0.168,2.689,0.133,3.665-1.068L35.19,81.749z"/>
	<path fill-rule="evenodd" clip-rule="evenodd" d="M30.037,74.027c1.376-0.167,2.64-0.091,3.95,0.632
		c2.197,1.211,2.101,3.382,2.518,5.316c0.172,0.802-1.109,0.99-1.314,1.773l0.058-0.043c-1.252,0.252-2.573,0.264-3.665,1.068
		l0.062-0.041c-1.08,0.192-2.011,0.632-2.63,1.588l0.057-0.045c-1.033,0.104-1.542,0.952-2.229,1.553
		c-0.815,0.715-1.29,0.659-1.735-0.287c-0.319-0.681-0.521-1.424-0.716-2.154c-0.214-0.801-0.28-1.658-1.027-2.207l0.042,0.06
		c-0.514-1.3-0.766-2.566,0.406-3.689c0.1-0.096,0.074-0.319,0.108-0.484l-0.052,0.051c0.942-0.214,1.656-0.732,2.115-1.59
		l-0.06,0.044c1.462-0.346,2.979-0.545,4.178-1.584L30.037,74.027z"/>
	<path fill-rule="evenodd" clip-rule="evenodd" d="M20.829,71.451c-0.01-0.341,0.007-0.684-0.032-1.021
		c-0.294-2.555,0.924-4.242,3.455-4.64c0.921-0.145,1.863-0.131,2.767-0.423c1.836-0.594,3.248,0.149,4.102,1.687
		c0.812,1.46,1.574,2.989,1.598,4.771c0.016,1.155-0.316,1.786-1.559,1.745c-0.418-0.014-0.854,0.046-1.122,0.457l0.064-0.04
		c-1.528,0.17-3.001,0.486-4.178,1.584l0.06-0.044c-0.965,0.185-1.668,0.717-2.115,1.59l0.052-0.051
		c-0.21,0.131-0.458,0.226-0.622,0.399c-0.58,0.616-0.961,0.537-1.154-0.289c-0.133-0.566-0.257-1.135-0.356-1.708
		c-0.238-1.378-0.269-2.806-0.993-4.063L20.829,71.451z"/>
	<path fill-rule="evenodd" clip-rule="evenodd" d="M21.862,91.48c-0.621-0.036-1.17,0.187-1.709,0.462
		c-4.042,2.051-8.059-1.049-8.205-5.367c-0.054-1.62,0.086-3.246,0.138-4.87l-0.05,0.046c0.351-0.027,0.531-0.225,0.566-0.566
		l-0.055,0.047c0.453-0.008,0.891-0.045,1.09-0.555l-0.061,0.041c1.476-0.364,2.948-0.744,4.429-1.09
		c3.269-0.764,3.322-0.741,5.399,1.612l-0.042-0.06c0.421,1.875,0.763,3.773,1.286,5.619c0.41,1.446-0.149,2.418-1.139,3.325
		c-0.543,0.498-1.422,0.587-1.699,1.4L21.862,91.48z"/>
	<path fill-rule="evenodd" clip-rule="evenodd" d="M18.21,68.328c0.873,1.04,1.746,2.081,2.619,3.123l-0.035-0.046
		c-0.068,2.05,0.404,4.041,0.8,6.02c0.235,1.18-0.208,1.237-1.108,1.327c-2.413,0.24-4.812,0.587-6.908,1.966l0.061-0.041
		c-0.465-0.013-0.891,0.048-1.09,0.555l0.055-0.047c-0.311,0.066-0.497,0.258-0.566,0.566l0.05-0.046
		c-1.79-0.177-2.271-1.583-2.65-2.968c-0.495-1.805-0.554-3.668-0.367-5.532c0.05-0.499,0.337-1.082,0.167-1.479
		c-0.646-1.509,0.395-2.145,1.312-2.88l-0.056,0.037c0.417-0.076,0.819-0.18,1.085-0.553l-0.054,0.036
		c2.247-0.704,4.494-0.772,6.741-0.001L18.21,68.328z"/>
	<path fill-rule="evenodd" clip-rule="evenodd" d="M43.479,30.253c-0.248,0.055-0.551,0.035-0.736,0.174
		c-2.531,1.893-5.54,1.534-8.387,1.642c-2.652,0.1-4.878-1.381-7.074-2.718c-0.461-0.28-0.248-0.76-0.275-1.164l-0.046,0.057
		c0.647-0.213,0.952-0.711,0.964-1.341c0.035-1.852,0.305-3.725-0.496-5.511c-0.15-0.338-0.66-0.769-0.178-1.086
		c0.24-0.158,0.781,0.063,1.154,0.199c1.052,0.384,2.137,0.504,3.242,0.525l-0.064-0.038c0.979,0.748,2.152,0.812,3.306,1.039
		c2.429,0.479,4.926,0.292,7.348,0.889c1.043,0.257,1.589,0.838,2.106,1.657c0.988,1.561,0.39,3.126,0.115,4.697l0.047-0.056
		c-0.34,0.035-0.496,0.258-0.568,0.565l0.053-0.053c-0.307,0.071-0.526,0.23-0.565,0.568L43.479,30.253z"/>
	<path fill-rule="evenodd" clip-rule="evenodd" d="M54.271,33.339c-1.887,0.501-3.751,1.127-5.665,1.473
		c-2.495,0.452-4.936,0.083-7.146-1.245c-1.276-0.768-1.238-1.13,0.009-1.85c0.72-0.415,1.628-0.583,2.011-1.464L43.424,30.3
		c0.317-0.062,0.53-0.228,0.565-0.568l-0.053,0.053c0.342-0.037,0.508-0.249,0.568-0.565l-0.047,0.056
		c1.547-1.526,1.15-3.227,0.383-4.915c-0.346-0.762-0.351-1.032,0.619-0.932c2.367,0.242,4.74,0.516,7.113,0.547
		c1.294,0.016,2.282,0.449,3.236,1.183L55.774,25.1c0.921,2.059,1.16,4.073-0.342,6.003c-0.141,0.183-0.119,0.491-0.173,0.742
		l0.044-0.059c-0.639,0.347-1.021,0.864-1.07,1.604L54.271,33.339z"/>
	<path fill-rule="evenodd" clip-rule="evenodd" d="M64.569,32.824c-2.6,1.357-5.385,1.75-8.277,1.604
		c-0.854-0.043-1.721-0.035-2.021-1.089l-0.037,0.051c0.688-0.312,1.085-0.82,1.07-1.604l-0.044,0.059
		c0.89-0.37,1.06-1.284,1.444-2.003c0.961-1.799,0.621-3.404-0.93-4.742l0.035,0.058c0.253-0.563,0.748-0.717,1.271-0.596
		c1.85,0.426,3.691,0.192,5.549,0.08c1.571-0.096,3.25-0.367,4.508,1.029l-0.041-0.059c0.599,1.812,0.416,3.545-0.517,5.204
		l0.05-0.055c-0.334,0.044-0.523,0.232-0.566,0.567l0.052-0.053c-0.333,0.046-0.538,0.218-0.565,0.567l0.053-0.05
		c-0.674,0.047-1.031,0.409-1.079,1.08L64.569,32.824z"/>
	<path fill-rule="evenodd" clip-rule="evenodd" d="M76.403,31.275c-2.844,3.438-6.699,3.405-10.623,3.044
		c-0.783-0.073-1.504-0.434-1.211-1.495l-0.046,0.05c0.526-0.193,0.901-0.538,1.079-1.08l-0.053,0.05
		c0.312-0.066,0.511-0.245,0.565-0.567l-0.052,0.053c0.32-0.057,0.511-0.245,0.566-0.567l-0.05,0.055
		c1.897-1.9,2.036-3.293,0.517-5.204l0.041,0.059c-0.062-1.031,0.62-1.113,1.345-0.964c1.95,0.399,3.87,0.319,5.825-0.034
		c1.75-0.316,2.117,0.101,2.713,1.86c0.446,1.316-0.209,2.514-0.146,3.771l0.041-0.061c-0.535,0.185-0.561,0.629-0.556,1.089
		L76.403,31.275z"/>
</g>
</svg>
