<?xml version="1.0" encoding="utf-8"?>
<!-- Generator: Adobe Illustrator 16.0.4, SVG Export Plug-In . SVG Version: 6.00 Build 0)  -->
<!DOCTYPE svg PUBLIC "-//W3C//DTD SVG 1.1//EN" "http://www.w3.org/Graphics/SVG/1.1/DTD/svg11.dtd">
<svg version="1.1" id="Layer_0505" xmlns="http://www.w3.org/2000/svg" xmlns:xlink="http://www.w3.org/1999/xlink" x="0px" y="0px"
	 width="128px" height="128px" viewBox="0 0 128 128" enable-background="new 0 0 128 128" xml:space="preserve">
<g id="PtCzXP.tif">
	<g>
		<path fill-rule="evenodd" clip-rule="evenodd" d="M4.183,126.969c0.358-0.762,0.576-1.575,0.843-2.371
			c0.133-0.392,0.296-0.764,0.513-1.116c2.177-3.547,4.551-6.963,6.789-10.467c1.353-2.118,2.876-4.123,4.136-6.291
			c0.768-1.32,1.586-2.589,2.49-3.815c0.319-0.43,0.352-0.928,0.108-1.495c-0.545-1.264-1-2.57-1.156-3.956
			c-0.076-0.687,0.016-1.359,0.208-2.014c0.526-1.778,0.907-3.583,1.104-5.426c0.015-0.141-0.016-0.286-0.034-0.429
			c-0.126-1.001-0.029-1.941,0.458-2.87c0.368-0.702,0.554-1.502,0.809-2.262c0.938-2.794,1.958-5.552,3.58-8.041
			c0.133-0.207,0.235-0.436,0.423-0.604l-0.01-0.009c0.032,0.34-0.101,0.647-0.207,0.954c-0.417,1.196-0.567,2.435-0.628,3.69
			c-0.05,1.023,0.194,1.997,0.441,2.974c0.018,0.073,0.012,0.167,0.103,0.21c0.012-0.075,0.032-0.146,0.036-0.222
			c0.005-0.081,0-0.164-0.006-0.246c-0.133-2.031,0.04-4.016,0.791-5.936c0.321-0.82,0.54-1.681,0.827-2.516
			c0.309-0.899,0.747-1.737,1.327-2.493c1.919-2.493,3.723-5.067,5.384-7.74c0.095-0.15,0.146-0.345,0.347-0.41l-0.008-0.01
			c-0.006,0.279-0.159,0.506-0.271,0.746c-0.552,1.168-1.123,2.326-1.497,3.57c-0.31,1.029-0.518,2.07-0.419,3.151
			c0.007,0.08-0.07,0.23,0.088,0.23c0.072,0,0.08-0.128,0.09-0.208c0.283-2.259,1.047-4.381,1.839-6.496
			c0.121-0.324,0.299-0.634,0.304-0.995l-0.01,0.012c0.416-0.728,0.743-1.5,1.162-2.228c0.907-1.575,1.966-3.015,3.219-4.342
			c2.335-2.475,4.269-5.253,5.871-8.258c0.113-0.212,0.172-0.465,0.388-0.614l-0.009-0.008c-0.041,0.668-0.326,1.27-0.543,1.887
			c-0.615,1.749-1.197,3.506-1.457,5.349c-0.166,1.17-0.097,2.34,0.035,3.509c0.183,1.596,0.49,3.171,0.827,4.739
			c0.02,0.093,0.008,0.259,0.117,0.251c0.075-0.005,0.049-0.179,0.055-0.28c0.092-1.688,0.016-3.377-0.055-5.062
			c-0.104-2.45,0.225-4.841,0.69-7.231c0.284-1.456,0.557-2.91,1.183-4.27c0.317-0.69,0.63-1.385,0.971-2.065
			c0.329-0.658,0.801-1.198,1.467-1.54c2.293-1.179,3.779-3.06,4.714-5.42c0.198-0.498,0.553-0.859,0.963-1.18
			c0.522-0.408,1.118-0.696,1.686-1.026c0.956-0.556,1.772-1.235,2.36-2.208c0.554-0.916,1.272-1.713,2.156-2.352
			c0.82-0.593,1.522-1.323,2.23-2.044c0.101-0.104,0.191-0.335,0.362-0.228c0.126,0.081-0.017,0.266-0.062,0.395
			c-0.499,1.463-0.892,2.951-1.129,4.482c-0.305,1.985-0.265,3.981-0.251,5.978c0.003,0.516,0.017,1.03,0.028,1.544
			c0.001,0.079-0.011,0.202,0.068,0.211c0.157,0.019,0.114-0.136,0.125-0.221c0.208-1.487,0.415-2.975,0.616-4.463
			c0.428-3.146,0.974-6.26,2.22-9.21c0.458-1.083,0.981-2.13,1.535-3.165c0.162-0.301,0.384-0.534,0.675-0.701
			c0.268-0.154,0.53-0.324,0.814-0.438c2.109-0.848,3.777-2.311,5.404-3.836c1.759-1.646,3.44-3.376,5.283-4.931
			c1.98-1.67,4.119-3.082,6.56-3.996c0.146-0.055,0.296-0.243,0.444-0.114c0.156,0.133,0.062,0.345,0.025,0.526
			c-0.195,0.968-0.462,1.919-0.738,2.868c-0.378,1.296-0.542,2.617-0.47,3.966c0.005,0.089-0.023,0.197,0.073,0.264
			c0.02-0.077,0.041-0.153,0.059-0.23c0.507-2.396,1.047-4.781,1.926-7.078c0.234-0.612,0.497-1.215,0.691-1.843
			c0.106-0.343,0.323-0.53,0.721-0.553c0.558-0.033,1.074-0.256,1.587-0.477c2.246-0.966,4.487-1.943,6.678-3.032
			c0.352-0.174,0.73-0.265,1.126-0.307c0.678-0.072,1.33-0.264,1.964-0.518c0.089-0.037,0.191-0.131,0.279-0.036
			c0.087,0.094-0.021,0.184-0.062,0.269c-0.027,0.055-0.058,0.11-0.094,0.161c-1.239,1.742-1.881,3.737-2.424,5.771
			c-0.069,0.259-0.153,0.514-0.217,0.773c-0.028,0.114-0.111,0.303-0.009,0.339c0.127,0.043,0.146-0.147,0.183-0.256
			c0.719-2.188,1.837-4.178,3.028-6.13c0.397-0.65,0.85-1.27,1.215-1.936c0.617-1.127,1.619-1.725,2.777-2.111
			c0.819-0.274,1.678-0.405,2.536-0.518c0.162-0.021,0.33-0.021,0.478-0.109c1.359,0,2.718,0,4.078,0
			c0.097,0.03,0.193,0.077,0.292,0.086c1.581,0.139,3.143,0.412,4.686,0.766c1.563,0.359,3.108,0.794,4.659,1.206
			c0.425,0.113,0.442,0.209,0.115,0.497c-0.217,0.189-0.447,0.364-0.685,0.529c-1.014,0.705-2.011,1.438-3.052,2.099
			c-3.71,2.356-7.221,4.977-10.557,7.834c-1.628,1.394-3.333,2.69-5.094,3.912c-1.251,0.868-2.566,1.648-3.786,2.558
			c-3.794,2.834-7.518,5.766-11.163,8.786c-4.995,4.138-9.899,8.384-14.837,12.591c-2.397,2.044-4.601,4.311-7.065,6.275
			c-2.767,2.207-5.233,4.701-7.524,7.386c-1.687,1.977-3.511,3.824-5.5,5.497c-0.624,0.525-1.159,1.113-1.611,1.773
			c-0.327,0.479-0.694,0.92-1.076,1.351c-1.202,1.356-2.423,2.705-3.482,4.174c-3.515,4.876-7.052,9.737-10.5,14.663
			c-2.964,4.232-5.824,8.539-8.979,12.638c-0.562,0.729-0.968,1.578-1.106,2.52c0.087-0.113,0.18-0.224,0.261-0.343
			c6.168-8.804,12.49-17.498,18.979-26.069c1.765-2.331,3.459-4.727,5.428-6.888c4.161-4.568,8.453-9.011,12.97-13.234
			c6.575-6.15,13.297-12.131,20.193-17.918c6.028-5.057,12.173-9.967,18.439-14.728c6.758-5.135,13.633-10.102,20.721-14.774
			c0.12-0.079,0.238-0.16,0.361-0.237c0.05-0.031,0.122-0.065,0.16-0.008c0.027,0.04,0.025,0.121,0.004,0.167
			c-0.16,0.351-0.466,0.572-0.752,0.804c-1.944,1.561-3.942,3.051-5.962,4.51c-10.217,7.382-20.36,14.862-30.016,22.978
			c-5.141,4.321-10.201,8.736-14.917,13.523c-3.581,3.638-7.097,7.34-10.613,11.043c-4.728,4.983-9.124,10.239-13.392,15.608
			c-3.87,4.869-7.443,9.965-11.329,14.822c-1.685,2.106-3.292,4.274-4.865,6.467c-0.058,0.083-0.107,0.171-0.162,0.256
			c0.131,0.056,0.182-0.066,0.246-0.126c2.27-2.066,4.551-4.115,6.288-6.69c0.664-0.987,1.309-2.003,2.139-2.868
			c0.688-0.716,1.271-1.513,1.864-2.303c1.658-2.204,3.209-4.492,5.091-6.522c1.089-1.177,2.198-2.328,3.174-3.613
			c2.504-3.297,5.184-6.455,7.768-9.688c1.457-1.823,2.993-3.564,4.783-5.069c0.363-0.306,0.672-0.661,0.956-1.045
			c0.61-0.829,1.267-1.624,1.958-2.387c4.943-5.452,10.254-10.536,15.582-15.605c1.567-1.492,3.3-2.788,4.895-4.251
			c3.707-3.401,7.698-6.454,11.786-9.383c1.79-1.284,3.635-2.494,5.385-3.831c2.209-1.685,4.387-3.411,6.488-5.235
			c1.634-1.418,3.436-2.625,5.147-3.944c1.501-1.157,3.135-2.131,4.594-3.343c1.92-1.594,3.989-2.983,6.027-4.415
			c0.121-0.085,0.267-0.285,0.416-0.153c0.134,0.116-0.012,0.306-0.056,0.458c-0.344,1.199-0.512,2.418-0.36,3.664
			c0.245,2.026,0.883,3.969,1.292,5.96c0,0.865,0,1.731,0,2.596c-0.312,1.22-0.779,2.375-1.399,3.472
			c-0.199,0.35-0.437,0.628-0.777,0.85c-1.612,1.048-3.308,1.92-5.139,2.521c-0.108,0.035-0.303,0.04-0.283,0.169
			c0.014,0.089,0.216,0.046,0.336,0.052c0.929,0.049,1.792-0.17,2.604-0.621c0.506-0.28,1.038-0.504,1.616-0.591
			c0.078-0.011,0.194-0.032,0.232,0.009c0.088,0.095-0.021,0.177-0.076,0.252c-1.163,1.575-2.373,3.124-3.821,4.438
			c-0.92,0.834-1.974,1.513-3.281,1.727c-2.454,0.402-4.925,0.719-7.363,1.218c-0.443,0.091-0.879,0.214-1.315,0.331
			c-0.085,0.023-0.244,0.007-0.217,0.154c0.015,0.078,0.14,0.049,0.219,0.042c1.599-0.14,3.194-0.329,4.796-0.406
			c1.503-0.072,2.978-0.353,4.473-0.458c0.121-0.008,0.281-0.104,0.348,0.007c0.093,0.156-0.093,0.249-0.183,0.344
			c-1.79,1.875-3.489,3.84-5.495,5.503c-1.094,0.907-2.141,1.869-3.238,2.771c-0.964,0.791-2.112,1.262-3.256,1.734
			c-4.032,1.665-8.229,2.742-12.501,3.559c-0.767,0.146-1.548,0.226-2.299,0.447c-0.079,0.023-0.201-0.004-0.228,0.124
			c0.08,0.004,0.162,0.018,0.243,0.012c1.271-0.102,2.542-0.227,3.815-0.304c2.546-0.154,4.97-0.912,7.435-1.471
			c0.983-0.223,1.973-0.409,2.972-0.543c0.151-0.02,0.359-0.108,0.448,0.061c0.076,0.147-0.123,0.235-0.21,0.34
			c-1.719,2.066-3.756,3.809-5.765,5.571c-1.002,0.879-2.241,1.454-3.43,2.07c-3.221,1.67-6.62,2.81-10.193,3.436
			c-0.127,0.022-0.279-0.034-0.381,0.094c0.143,0.011,0.284,0.034,0.427,0.029c2.876-0.1,5.622-0.711,8.186-2.063
			c0.874-0.46,1.732-0.947,2.59-1.44c0.162-0.093,0.359-0.355,0.51-0.186c0.116,0.131-0.135,0.35-0.244,0.517
			c-0.314,0.482-0.631,0.965-0.968,1.432c-1.119,1.554-2.292,3.066-3.513,4.543c-0.624,0.757-1.391,1.333-2.221,1.844
			c-2.362,1.453-4.798,2.73-7.599,3.102c-1.366,0.181-2.734,0.359-4.108,0.463c-1.777,0.136-3.483,0.59-5.195,1.032
			c-1.092,0.282-2.203,0.503-3.262,0.907c-0.05,0.043-0.145-0.034-0.173,0.065c0.055-0.024,0.108-0.049,0.164-0.073
			c1.357,0.046,2.714-0.033,4.073,0.075c1.26,0.102,2.473,0.361,3.676,0.748c1.976,0.633,3.93,1.353,5.995,1.667
			c0.923,0.141,1.845,0.143,2.768,0.021c0.114-0.016,0.272-0.092,0.331,0.034c0.06,0.129-0.101,0.207-0.19,0.282
			c-1.23,1.009-2.549,1.889-3.976,2.593c-1.884,0.929-3.756,1.877-5.531,3.004c-0.677,0.431-1.343,0.885-1.93,1.434
			c-0.184,0.172-0.387,0.22-0.613,0.242c-2.216,0.215-4.431,0.396-6.635-0.124c-0.065-0.017-0.148-0.093-0.188,0.019
			c-0.008,0.025,0.07,0.096,0.121,0.123c0.79,0.414,1.642,0.653,2.507,0.842c0.952,0.207,1.917,0.246,2.887,0.181
			c0.147-0.012,0.357-0.129,0.439,0.066c0.062,0.147-0.127,0.238-0.222,0.338c-2.174,2.298-4.834,3.579-7.994,3.824
			c-0.492,0.039-0.982,0.097-1.478,0.089c-0.083-0.001-0.193-0.054-0.255,0.06c0.073,0.029,0.145,0.07,0.221,0.09
			c2.109,0.542,4.178,0.59,6.208-0.373c1.152-0.549,2.3-1.106,3.423-1.712c1.056-0.568,2.16-1.012,3.306-1.354
			c0.08-0.023,0.158-0.053,0.238-0.068c0.098-0.019,0.228-0.077,0.285,0.021c0.06,0.105-0.066,0.178-0.137,0.246
			c-0.874,0.847-1.635,1.796-2.451,2.695c-1.274,1.402-2.557,2.797-3.86,4.172c-0.553,0.584-1.234,1.026-1.898,1.476
			c-1.777,1.201-3.58,2.344-5.721,2.821c-2.071,0.464-4.163,0.793-6.261,1.088c-2.935,0.412-5.879,0.75-8.825,1.065
			c-0.491,0.052-0.988,0.042-1.471,0.161c-0.063,0.016-0.125,0.039-0.187,0.06c0.062,0.004,0.124,0.011,0.185,0.012
			c2.184,0.035,4.363-0.013,6.544-0.143c4.341-0.258,8.448-1.511,12.542-2.841c0.548-0.177,1.098-0.348,1.646-0.521
			c0.08-0.025,0.184-0.06,0.228,0.015c0.04,0.067-0.035,0.146-0.089,0.209c-2.052,2.421-4.11,4.836-6.703,6.715
			c-0.337,0.244-0.645,0.509-0.894,0.842c-0.136,0.181-0.298,0.342-0.448,0.512c-1,1.143-2.195,1.881-3.708,2.274
			c-2.468,0.644-4.941,1.265-7.412,1.896c-0.174,0.045-0.363,0.053-0.496,0.201c0.17,0.123,0.357,0.044,0.534,0.037
			c2.083-0.076,4.139-0.358,6.171-0.823c0.098-0.022,0.241-0.099,0.285-0.008c0.068,0.14-0.1,0.194-0.192,0.253
			c-0.501,0.322-0.993,0.65-1.559,0.87c-1.322,0.512-2.662,0.992-3.86,1.779c-0.361,0.236-0.792,0.214-1.194,0.264
			c-2.144,0.268-4.297,0.453-6.434,0.771c-0.814,0.122-1.627,0.243-2.425,0.451c-0.098,0.025-0.295-0.021-0.256,0.169
			c0.02,0.096,0.176,0.071,0.275,0.073c1.463,0.034,2.925,0.068,4.385-0.04c1.026-0.074,2.055-0.12,3.073-0.29
			c0.092-0.015,0.225-0.069,0.263,0.054c0.034,0.111-0.092,0.171-0.174,0.227c-1.05,0.721-2.016,1.571-3.223,2.045
			c-0.767,0.302-1.479,0.707-2.191,1.124c-2.641,1.547-5.49,2.524-8.526,2.917c-1.081,0.14-2.167,0.077-3.261-0.046
			c-1.377-0.156-2.53-0.808-3.72-1.398c-0.58-0.286-1.224-0.339-1.822-0.558c-0.159-0.059-0.257,0.102-0.349,0.207
			c-0.256,0.296-0.514,0.59-0.755,0.896c-3.765,4.82-7.341,9.784-11.208,14.524c-1.394,1.707-2.835,3.373-4.289,5.029
			c-0.146,0.165-0.255,0.385-0.512,0.417C4.183,127.134,4.183,127.052,4.183,126.969z M19.997,94.335
			c-0.008-0.108-0.01-0.19-0.021-0.271c-0.121-0.893-0.158-1.799-0.449-2.662c-0.024-0.072-0.012-0.168-0.103-0.21
			c-0.008,0.079-0.03,0.161-0.022,0.24c0.102,0.957,0.128,1.924,0.388,2.857c0.06,0.213,0.074,0.449,0.25,0.618
			C20.118,94.7,19.976,94.511,19.997,94.335z M19.334,90.639c-0.01,0.009-0.026,0.017-0.029,0.029
			c-0.005,0.016-0.007,0.039,0.001,0.051c0.021,0.034,0.04,0.021,0.042-0.032C19.35,90.671,19.339,90.653,19.334,90.639z"/>
	</g>
</g>
</svg>
