<?xml version="1.0" encoding="utf-8"?>
<!-- Generator: Adobe Illustrator 16.0.4, SVG Export Plug-In . SVG Version: 6.00 Build 0)  -->
<!DOCTYPE svg PUBLIC "-//W3C//DTD SVG 1.1//EN" "http://www.w3.org/Graphics/SVG/1.1/DTD/svg11.dtd">
<svg version="1.1" id="Layer_0508" xmlns="http://www.w3.org/2000/svg" xmlns:xlink="http://www.w3.org/1999/xlink" x="0px" y="0px"
	 width="128px" height="128px" viewBox="0 0 128 128" enable-background="new 0 0 128 128" xml:space="preserve">
<path fill-rule="evenodd" clip-rule="evenodd" d="M18.792,42.124c0.149-0.319,0.322-0.615,0.692-0.743
	c0.15,0.022,0.348-0.003,0.474,0.081c1.01,0.677,1.082,1.725,1.021,2.789c-0.098,1.701,0.249,3.255,1.181,4.714
	c0.412,0.644,0.609,1.434,0.849,2.175c0.582,1.798,1.519,3.232,3.292,4.148c1.058,0.546,1.908,1.49,2.861,2.241
	c0.472,0.371,0.929,0.814,1.683,0.617c0.81-0.71,0.313-1.536,0.262-2.214c-0.912-1.049-2.37-0.496-3.125-1.49
	c-0.4-0.513,0.046-0.758,0.344-1.049c-0.314-0.292-0.627-0.581-0.913-0.845c0.005-0.823,0.927-0.387,1.053-0.784
	c0.214-0.567-0.378-0.907-0.105-1.369c0.331-0.311,0.613,0.005,0.917,0.09c0.061,0.038,0.119,0.076,0.18,0.114
	c-0.064-0.033-0.128-0.066-0.191-0.1c0.136-0.216,0.271-0.432,0.475-0.756c0.825,0.102,1.101,1.359,2.053,1.029
	c0.467,1.026-0.217,2.141,0.478,3.221c1.414-0.425,2.132-1.638,3.036-2.559c0.392-1.403,0.071-2.829,0.608-4.061
	c-0.594-0.65-1.656-0.56-1.761-1.541c0.113-0.691,0.652-0.398,1.066-0.481c0.595-0.675-0.131-1.698,0.554-2.368
	c0.861,0,0.803,0.761,1.047,1.272c0.18-0.284,0.356-0.563,0.52-0.822c0.576,0.035,0.691,0.517,0.969,0.841
	c0.624,0.302,0.911-0.846,1.586-0.364c0.548,0.415-0.194,0.95,0.125,1.449c0.304,0,0.633,0,0.931,0
	c0.362,0.249,0.364,0.593,0.354,0.94c-0.039,0.057-0.078,0.114-0.116,0.171c0.043-0.054,0.085-0.106,0.128-0.159
	c0.42-0.043,0.864-0.225,1.277,0.301c-0.524,1.312-1.559,1.929-2.968,1.952c0,0.454,0,0.792,0,1.094
	c-0.528,0.709-1.148-0.268-1.707,0.175c-0.31,0.947-0.196,1.839,0.426,2.679c0.889,1.202,1.076,2.553,0.714,3.979
	c-0.293,1.159,0.083,2.182,0.446,3.234c1.153-0.052,1.685-1.072,2.497-1.049c0.442-0.812-0.117-1.379,0.051-1.978
	c0.775-0.324,0.959,0.587,1.64,0.733c0.204-0.283,0.449-0.623,0.698-0.968c1.444,0.857,2.386,2.104,3.471,3.174
	c-0.104,0.618-0.834,0.639-1.023,1.117c0.022,0.46,0.341,0.856,0.129,1.304c-0.464,0.756-1.124-0.042-1.679,0.223
	c-0.499,0.427-0.283,1.392-1.12,1.613c-0.676-0.238-0.708-0.927-0.974-1.527c-0.787,0.155-1.531,0.303-1.911,0.377
	c-2.494,1.473-3.659,3.389-3.797,5.938c-0.073,1.347-1.106,2.564-0.661,3.996c0.742,0.083,0.627-0.562,0.91-0.817
	c0.313-0.285,0.699-0.492,1.075-0.748c0.11-0.647-0.458-1.319,0.031-2.017c0.6-0.552,0.816,0.27,1.243,0.409
	c0.982-0.324,1.704-1.7,3.075-0.738c0.003,0.927,0.503,1.95-0.447,2.778c0.126,0.516,0.967,0.485,0.871,1.166
	c-0.279,0.591-0.967,0.224-1.362,0.561c-0.042,0.547,0.648,0.841,0.479,1.449c-0.179,0.335-0.533,0.348-0.874,0.386
	c-0.076-0.24-0.149-0.288-0.178-0.135c-0.005,0.025,0.128,0.077,0.196,0.115c0.084,0.316,0.321,0.624,0.052,0.959
	c-0.477,0.261-0.477,0.261-2.022-0.774c-0.821,0.206-1.642,0.412-2.54,0.637c-0.249,1.348,0.704,2.087,1.476,2.8
	c0.688,0.636,1.554,1.107,2.4,1.534c1.718,0.868,3.365,1.787,4.406,3.508c0.162,0.268,0.52,0.417,0.903,0.707
	c1.381-0.864,2.334-2.024,3.023-3.378c-0.319-0.915-1.506,0.277-1.56-0.421c-0.344-1.129,0.553-1.076,0.663-1.666
	c-1.226-0.545-2.168-1.407-2.026-2.919c0.739-0.824,1.118,0.085,1.638,0.18c0.491-0.295,0.024-1.029,0.622-1.291
	c0.832-0.007,0.762,1.067,1.433,1.281c0.609-0.3,0.01-1.246,1.025-1.435c0.812,0.025,0.34,1.103,0.819,1.543
	c0.776,0.03,0.97-1.012,1.754-0.946c0.467,0.042,0.445,0.419,0.5,0.745c-0.239,0.081-0.286,0.156-0.133,0.182
	c0.026,0.005,0.076-0.131,0.114-0.2c0.399-0.135,0.748-0.47,1.325-0.275c0.843,1.237-0.761,1.672-0.956,2.574
	c0.337,0.234,0.677,0.47,1.103,0.766c-0.641,1.085-1.749,0.455-2.726,0.867c-0.762,0.93-1.271,2.167-1.649,3.507
	c1.908-1.596,4.08-2.568,6.307-3.505c3.258-1.367,5.41-3.915,7.001-7.103c-0.741-0.599-1.403-1.131-2.042-1.646
	c-0.786-0.056-0.241,1.086-1.077,0.984c-1.147-0.055-0.984-1.377-1.768-2.042c-1.091,1.159-1.781,2.896-3.79,3.149
	c-0.581-1.625,0.958-2.372,1.294-3.79c-1.072,0.358-1.509,1.672-2.855,1.381c-0.141-1.242,1.083-1.903,1.664-2.869
	c-1.055-0.786-2.622,0.243-3.289-1.189c1.012-1.099,1.012-1.099,2.667-1.617c-0.386-1.283-2.022-0.912-2.64-2.021
	c0.576-1.058,1.604-0.717,2.492-0.78c0.13,0.232,0.286,0.406,0.684,0.217c-0.287-0.081-0.493-0.139-0.701-0.198
	c-0.593-0.865-2.038-0.659-2.37-1.861c2.052-1.454,3.58-1.044,6.09,1.626c1.346-0.163,0.469-1.768,1.408-2.192
	c1.192,1.118,1.192,1.118,0.486,4.499c0.535,0.638,1.542,0.315,2.031,0.977c0.706,0.49,0.586,1.461,1.119,1.936
	c1.031,0.186,1.219-0.432,1.096-1.072c-0.264-1.361-0.596-2.716-1-4.042c-0.561-1.834-1.185-3.634-1.069-5.606
	c0.094-1.628-0.775-2.87-2.009-3.77c-1.344-0.98-2.537-2.113-3.757-3.271c-0.421,0.093-0.833,0.183-1.371,0.302
	c-0.733-0.433-1.542-0.909-2.427-1.431c-0.482,1.318-0.254,2.724-1.219,3.853c-1.74-0.791-0.825-2.661-1.528-3.798
	c-1.322-0.616-2.148,1.183-3.445,0.65c-0.421-1.279,0.758-2.042,0.994-3.03c-0.69-1.498-2.394-0.237-3.271-1.338
	c0.848-1.483,2.686-0.33,3.625-1.26c0.165-1.006-1.22-1.126-0.96-2.044c0.712-1.109,1.625,0.127,2.38-0.225
	c0.901-0.673-0.06-2.196,1.251-2.666c0.914,0.548,0.731,1.721,1.349,2.491c1.441-0.028,1.336-2.023,2.826-2.131
	c0.555,1.525-0.58,2.826-0.485,4.254c0.567,1.086,1.756,0.452,2.802,1.025c0.23,0.249,0.639,0.69,1.048,1.131
	c0.612,0.179,1.199,0.192,1.79-0.295c0.071-0.168,0.256-0.401,0.26-0.637c0.042-2.354,0.152-4.712,0.044-7.06
	c-0.096-2.112,0.211-3.998,1.88-5.427c0.294-1.783,0.336-3.495-0.034-5.362c-1.28,0.401-1.583,2.285-3.177,1.838
	c-0.689-1.149,1.236-1.697,0.569-2.96c-2.246-0.3-5.083-0.024-5.408-3.665c1.538-0.425,2.417,1.06,3.866,0.99
	c-0.667-0.802-1.696-1.073-2.079-1.965c-0.063-0.148-0.042-0.333-0.072-0.63c1.42-0.575,2.366,0.758,3.833,0.936
	c-0.216-1.112-1.332-1.82-1.266-2.958c0.123-0.312,0.331-0.578,0.715-0.737c1.371,0.012,1.32,1.715,2.56,2.172
	c0.508-1.116-0.175-2.652,1.114-3.525c1.216,0.619,0.497,1.891,0.928,2.839c0.725-1.039,0.391-2.509,1.568-3.529
	c1.438,1.664,0.818,3.432,0.525,5.223c0.906,0.5,1.849-0.785,2.807,0.146c-0.414,1.919-2.58,1.711-3.789,2.981
	c0.605,1.04,0.852,2.212,0.843,3.538c-0.019,2.519,0.76,4.787,3.107,6.25c0.87,0.542,1.586,1.333,2.334,1.978
	c1.226-0.111,1.292-1.103,1.689-1.942c-0.324-1.613-0.633-3.299-0.667-4.995c1.192-0.425,1.137,0.953,1.813,1.124
	c0.99-0.455,0.797-1.807,1.818-2.155c0.785,0.47,0.128,1.314,0.598,1.992c0.958-0.192,1.374-1.547,2.717-1.351
	c-0.2,1.286-1.319,2.122-1.813,3.225c0.55,0.793,1.119,0.317,1.657,0.182c0.583-0.147,1.173-0.374,1.664,0.215
	c0.034,0.823-0.694,0.922-1.18,1.212c-0.511,0.306-1.145,0.409-1.533,0.999c0.406,0.914,1.514,0.105,2.006,0.788
	c0.068,0.725-0.501,0.835-0.987,0.936c-0.665,0.137-0.476,0.908-1.055,1.217c-0.49-0.148-1.059-0.321-1.618-0.491
	c-3.226,1.522-3.448,1.932-2.919,5.508c1.371,0.889,2.634,0.364,3.792-0.49c0.767-0.565,1.397-1.312,2.116-1.948
	c1.628-1.439,3.188-2.991,5.396-3.382c1.513-1.9,2.454-3.928,2.877-6.188c0.123-0.658-0.166-1.194-1.08-1.568
	c-0.713-0.317-1.229,0.936-2.124,0.811c-0.16-1.205-0.16-1.205,0.274-2.132c-0.155-0.074-0.313-0.144-0.466-0.222
	c-0.151-0.078-0.298-0.164-0.604-0.332c0.229-0.922,1.153-1.591,1.004-2.741c0.546,0.21,0.862,0.332,1.197,0.461
	c0.539-0.289,0.083-0.994,0.735-1.457c0.661,0.14,1.417,0.909,2.197,0.389c0.778,0.63,0.362,1.457,0.709,2.049
	c0.299,0.136,0.511-0.042,0.613-0.246c0.788-1.58,1.207-3.254,1.21-5.025c0.002-1.908,0-3.817,0-5.588
	c0.589-0.42,0.75,0.079,1.095,0.129c0.677-0.045,0.312-1.226,1.233-1.138c0.842,0.422,0.251,1.42,0.714,2.083
	c0.935,0.132,1.044-1.427,2.109-1.076c0.662,0.818-0.05,1.625-0.098,2.484c0.739,0.123,0.937-1.017,1.778-0.688
	c0.508,1.1-0.498,1.91-0.673,3.003c1.193,0.132,1.951-1.122,3.25-0.937c0.049,1.094-1.175,1.407-1.438,2.261
	c-0.201,0.057-0.402,0.114-0.675,0.192c0.386,0.19,0.526,0,0.656-0.213c1.182,0.149,2.275-1.006,3.476-0.335
	c0.229,0.92-0.405,1.194-0.935,1.432c-1.271,0.57-2.567,1.084-3.867,1.585c-4.149,1.603-6.394,5.82-5.397,10.143
	c0.245,1.062,0.931,1.582,1.941,1.874c3.013,0.87,6.428,0.502,8.698-2.892c0.778-2.083-0.535-4.497,0.856-6.501
	c1.263,0.489,0.859,1.635,1.445,2.372c1.517-0.26,1.516-2.284,2.936-2.681c0.172,1.192,0.118,1.785-0.305,3.254
	c1.3-0.6,2.334-1.607,3.814-1.866c0.262,1.294-0.887,1.565-1.466,2.201c-0.564,0.619-1.365,1.051-1.725,2.128
	c1.725,0.027,3.389-0.823,4.997,0.408c-1.331,1.525-3.413,0.804-4.878,2.031c0.81,0.815,2.4,0.051,2.896,1.511
	c-0.652,0.959-2.493,0.307-2.463,1.828c-1.203-0.08-1.517-1.09-2.364-1.147c-3.869,0.526-7.775,3.86-6.758,7.109
	c1.313,1.023,3.045,0.176,4.525,0.903c2.522-1.223,3.386-4.743,6.669-4.984c0.445,1.375-1.278,1.628-1.235,2.853
	c1.3,0.612,2.6-0.861,4.048-0.107c-0.618,1.693-2.536,1.663-3.649,2.859c1.437,0.973,3.438,0.439,4.92,1.903
	c-1.453,0.805-2.951,0.118-4.387,0.556c0.985,1.212,2.664,1.583,3.172,3.378c-1.933,0.104-3.06-1.383-4.647-1.92
	c-0.497,1.679,2.107,1.573,1.663,3.174c-1.11,0.59-1.631-0.712-2.802-0.835c-0.46,0.152-0.1,1.32-1.149,1.392
	c-1.117-0.472-0.577-1.75-0.956-2.623c-2.528-2.473-6.193-2.944-11.086-1.356c0.457,0.796,1.606,0.665,1.94,1.571
	c0.258,0.698,0.37,1.537,1.135,2.046c1.375-0.028,2.236-1.693,3.925-1.286c0.125,1.328-1.236,1.794-1.627,2.811
	c0.694,1.209,2.199,0.12,2.993,1.037c-0.147,1.429-1.646,1.055-2.451,1.853c-0.002,0.842,1.242,1.497,0.604,2.615
	c-0.345,0.333-0.728,0.032-1.103-0.148c-0.379-0.181-0.628-0.617-1.117-0.583c-0.792,1.329,0.839,2.806-0.071,4.156
	c-1.001-0.12-0.98-0.858-1.209-1.368c-0.242-0.541-0.036-1.234-0.659-1.803c-1.389,0.1-1.69,2.158-3.201,2.098
	c-0.633-0.604-0.191-1.171-0.063-1.738c0.135-0.599,0.234-1.2-0.035-1.876c-1.214-0.766-2.712,0.122-4.126-0.554
	c0.507-1.781,2.432-1.345,3.47-2.308c-0.441-1.021-1.691-1.45-2.084-2.503c-0.115-0.454,0.179-0.675,0.507-1.037
	c-1.065-0.734-2.149-1.354-3.335-1.696c-1.248,0.109-2.158,0.819-3.104,1.217c-0.324,1.009,1.243,0.432,0.861,1.409
	c-0.303,0.79-1.243,0.646-1.985,1.138c0.951,1.068,2.298,1.753,3.132,3.196c-1.582,0.522-2.332-1.158-3.712-1.059
	c-0.722,1.062,0.18,2.508-0.548,3.604c-0.826-0.003-1.078-0.615-1.381-1.122c-0.314-0.525-0.576-1.076-1.325-1.432
	c-1.231,1.03-1.778,2.982-3.844,3.111c0.336,2.607,0.784,4.962,1.704,7.596c1.274-2.093-1.107-3.782-0.032-5.509
	c0.952-0.373,0.956,0.833,1.714,1.01c1.021-0.461,0.567-2.197,1.974-2.488c0.733,0.208,0.172,1.1,0.675,1.498
	c0.979,0.125,1.268-1.128,2.364-1.166c0.365,1.271-1.094,1.764-1.262,2.892c1.236,0.133,2.266-0.896,3.675-0.688
	c-0.3,1.809-2.175,1.569-3.025,2.638c0.671,0.527,1.64-0.223,2.264,0.448c0.035,1.282-2.277,0.528-1.617,2.151
	c-2.795-0.147-2.854-0.084-4.682,1.452c-2.232,1.874-4.078,4.045-5.348,6.674c-1.147,2.381-3,4.263-4.482,6.386
	c1.452,1.854,4.105,3.184,8.667,4.357c0.564-0.592,0.396-1.219,0.117-1.798c-0.574-0.661-1.494,0.379-1.839-0.423
	c-0.613-0.547-0.186-1.068-0.209-1.614c-0.499-0.854-1.922-1.408-1.104-2.841c0.366-0.456,0.9-0.417,1.424-0.415
	c0.075,0.245,0.147,0.288,0.185,0.124c0.005-0.02-0.131-0.07-0.202-0.106c0.068-0.658-0.27-1.402,0.407-1.947
	c1.327-0.28,1.056,1.456,2.058,1.631c0.884-0.455,0.744-2.046,2.087-2.002c1.2,0.617,0.313,1.558,0.401,2.304
	c0.464,0.809,1.633,0.023,2.005,0.981c0.351,1.035-1.059,1.276-1.032,2.136c-0.151,0.896,0.422,1.527,0.546,2.429
	c2.976-1.33,5.915-2.374,8.329-4.418c0.066-1.342,0.251-2.635-0.597-3.958c-1.226-1.075-3-1.797-3.988-3.556
	c0.63-0.771,1.51,0.499,2.069-0.254c0.613-0.862-0.895-1.76,0.022-2.632c0.777-0.119,0.899,0.721,1.487,1.025
	c0.64-0.878-0.134-2.045,0.675-2.944c1.44,0.736,0.481,2.624,1.629,3.48c0.969-0.603,0.794-2.141,2.138-2.571
	c1.3,1.275-0.633,2.353-0.248,3.577c0.936,0.23,1.118-1.357,2.124-0.91c-0.243,1.73-0.243,1.73,0.149,2.894
	c-1.277,0.809-2.646,1.674-2.187,3.567c1.306,0.529,1.306,0.529,2.705,0.312c1.271-0.854,1.51-2.301,2.067-3.558
	c0.569-1.282,1.124-2.562,2.589-3.335c0.954-0.379,2.119-0.343,3.216-0.182c3.163,0.465,4.929-1.458,6.117-3.888
	c0.673-1.377,1.005-2.929,0.379-4.552c-0.468-1.206-0.661-2.517-0.979-3.78c-0.258-1.021-0.31-2.036-0.011-3.136
	c1.363,0.608,0.965,2.072,1.792,2.857c0.24-0.518,0.513-1.104,0.848-1.826c0.915,1.118,0.855,2.348,1.041,3.524
	c0.828-0.413,0.694-1.492,1.598-1.857c0.848,0.323,0.267,1.208,0.578,1.757c0.683-0.196,0.733-1.171,1.615-1.236
	c0.81,0.59,0.083,1.594,0.483,2.33c0.676,0.323,1.236-0.649,1.987-0.145c0.529,0.538-0.205,1.085-0.104,1.655
	c-0.24,0.074-0.284,0.146-0.126,0.177c0.021,0.004,0.07-0.127,0.107-0.196c0.308,0.202,0.497,0.473,0.504,0.907
	c-0.419,0.941-1.451,1.125-2.247,1.604c-2.133,1.282-3.929,2.851-4.965,5.187c-1.103,2.484-2.427,4.828-4.519,6.43
	c-0.27,1.133-0.214,2.075-0.061,2.995c1.039,0.907,2.203,0.499,3.223,0.574c0.629-0.292-0.072-0.907,0.455-1.19
	c1.102-0.69,2.263-0.362,3.526,0.14c0.022-1.329-0.47-2.548,0.209-3.674c0.273-0.454,0.496-0.938,1.26-0.844
	c1.16,0.577,0.075,1.973,0.948,2.838c1.069,0.532,1.688-0.877,2.731-0.879c1.004-0.003,1.891,0.346,2.764,0.699
	c0.883,0.356,2.064,0.567,1.971,2.085c-1.319,0-2.513,0-4.019,0c1.263,0.555,2.484,0.529,3.252,1.768
	c-1.327,0.66-2.74,0.076-4.164,0.488c0.775,1.317,3.036,1.158,3.111,3.151c-1.686,0.801-2.745-0.813-4.329-1.015
	c0.147,1.305,1.314,2.27,1.188,3.704c-1.607,0.153-1.59-1.662-2.656-2.112c-0.2,1.232,1.148,2.24,0.334,3.629
	c-2.378-0.652-2.455-2.922-3.447-4.683c-1.01,0.146-1.408,1.555-2.771,1.344c-0.526-0.168,0.028-1.102-0.742-1.493
	c-1.553,0.869-3.3,1.214-5.133,0.357c-4.841,4.104-9.677,8.094-16.197,9.2c-2.301,2.094-2.301,2.094-1.43,3.998
	c0.742,0.187,1.5-0.724,2.327-0.157c0.707,0.486,1.472,0.889,2.255,1.354c1.062-1.267,0.358-3.169,1.748-4.304
	c1.521,1.264,0.548,3.464,1.895,4.695c1.417,0.159,2.233-1.854,3.945-0.983c0.065,1.446-1.528,2.265-1.528,3.717
	c1.233,0.716,2.961-0.396,4.107,0.995c-1.364,1.47-3.249,0.51-4.721,1.178c-0.213,1.121,1.345,1.113,1.253,2.262
	c-0.688,1.373-1.834-0.294-2.735,0.246c-0.722,0.732-0.513,1.943-1.168,2.805c-1.687-0.257-0.905-2.414-2.312-2.878
	c-1.255,0.363-1.253,2.37-3.001,2.298c-0.297-1.606,0.75-3.006,0.688-4.667c-1.153-0.315-2.466-0.383-3.4-1.012
	c-0.915-0.615-1.613-1.526-2.736-1.516c-0.707-0.577-0.973-1.401-1.981-1.888c-4.719,0.292-8.8-2.74-13.43-3.767
	c-5.285-1.172-10.353-0.897-14.476,3.391c-2.104,2.187-3.58,4.695-4.619,7.501c-0.543,1.47-1.044,2.956-2.008,4.477
	c-6.883,2.984-13.678,2.448-20.25-0.993c-0.483-0.905-0.419-1.673-0.151-2.763c4.129-2.597,7.59-6.211,10.233-10.593
	c0.222-0.368,0.411-0.778,0.507-1.193c0.157-0.685,0.123-1.386-0.085-2.171c-1.204-2.211-3.314-3.184-5.744-3.397
	c-2.686-0.235-5.332,0.069-8.028,0.549c-2.95,0.524-5.195,2.205-7.745,3.421c-0.402,0.64,0.292,1.32,0.043,1.926
	c-0.928,0.777-1.21-0.375-1.766-0.485c-0.685,0.083-0.453,0.959-1.246,1.118c-0.632-0.494-0.902-1.873-2.477-1.188
	c0.298-0.719,0.426-1.03,0.613-1.484c-0.549-0.467-1.556,0.077-1.969-0.665c0.033-1.02,0.982-0.496,1.479-1.067
	c0.298-0.593-0.97-1.131-0.436-1.922c0.793-0.47,1.282,0.441,2.068,0.328c0.614-0.466,0.368-1.581,1.125-2.048
	c1.023,0.183,0.631,1.188,1.125,1.696c0.937,0.082,1.493-1.294,2.52-0.5c0.359-1.229-0.271-1.942-0.975-2.071
	c-3.697-0.677-6.322-3.198-9.278-5.154c-0.072-0.048-0.157-0.076-0.235-0.113c-1.512-0.028-3.023,0.035-4.54,0.179
	c-0.865,0.365-0.721,1.678-1.935,2.077c-0.488-0.679-1.911-0.723-1.477-2.201c-0.477-0.546-1.164,0.159-1.588-0.125
	c-0.348-0.794,0.266-1.064,0.488-1.498c-0.243-0.367-0.883-0.188-1.021-0.825c-0.083-0.319,0.336-0.471,0.469-0.771
	c-0.387-0.315-1.067,0.038-1.334-0.545c0.161-0.728,0.976-0.747,1.27-1.29l-0.018,0.02c0.955-0.201,1.861,0.186,2.69,0.32
	c0.583-0.461,0.292-1.354,1.227-1.545c0.61,0.569,0.569,1.49,1.016,2.437c1.223-0.789,2.13,1.707,3.713,0.256
	c-0.146-0.845-0.418-1.608-1.317-2.014l0.019,0.02c-0.198-0.388-0.398-0.774-0.594-1.162c-1.661-3.267-1.661-3.267-4.355-5.229
	c-0.647-0.964-0.279-2.024-0.284-3.049l-0.02,0.018c0.2,0.166,0.399,0.331,0.694,0.574c0.671-1.155,1.575-1.563,2.759-0.484
	c0.098-0.4,0.177-0.729,0.272-1.121c0.576-0.228,1.187-0.47,1.922-0.76c0.382,2.121-1.008,4.138-0.148,6.181
	c0.39,0.792,1.023,1.369,1.779,1.824l0.117,0.115c1.104,0.738,2.411,0.033,3.965,0.693c1.463,0.491,0.719,3.814,3.362,3.766
	c0.595-0.787,0.112-1.236-0.235-1.731c-0.56-0.799-0.732-1.585,0.187-2.271c0.074,0.253,0.148,0.302,0.186,0.137
	c0.005-0.022-0.132-0.078-0.206-0.117c0-0.348,0-0.694,0-0.988c0.717-0.799,1.027,0.37,1.582,0.238
	c0.52-0.108,0.309-0.804,0.759-0.954c0.518,0.304,1.029,0.604,1.593,0.935c-0.027,0.699,0.417,1.309,0.759,2.042
	c-0.795,0.962-2.26,1.419-2.363,2.925c2.254,3.166,7.293,5.677,11.726,2.592c-1.184-2.376-2.373-4.786-3.584-7.183
	c-0.464-0.917-1.268-1.443-2.257-1.618c-0.798-0.141-1.533-0.335-1.931-0.866c-0.424-0.532-0.129-0.757,0.121-1.005
	c0.123-0.658-0.813-0.581-0.817-1.148c0.297-0.54,1.015-0.05,1.333-0.539c-0.104-0.325-0.206-0.644-0.31-0.97
	c1.607-0.23,3.075,0.629,4.712,0.356c0.361-1.535-1.285-1.619-1.731-2.454c-0.806-0.204-1.001,0.791-1.685,0.669
	c-0.794-0.229-0.425-1.059-0.763-1.526c-0.349,0-0.68,0-1.213,0c0.932-1.188,0.046-2.158-0.125-3.198
	c-0.684-0.424-1.351-0.355-1.998-0.102c-0.893,0.619-0.576,1.861-1.445,2.348c0.312,0.689,1.167,0.751,1.132,1.552
	c-0.223,0.748-1.042,0.414-1.641,0.861c-0.148,0.41-0.346,0.962-0.519,1.444c-0.711,0.328-1.025-0.291-1.499-0.428
	c-0.799-0.116-0.662,1.287-1.566,0.991c-0.687-0.607,0.179-1.327-0.084-1.937c-0.423,0-0.752,0-1.1,0
	c-0.054-0.891-0.088-1.74-1.021-2c0.215-0.702,0.824-0.547,1.084-0.939c0.224-0.476-0.486-0.924-0.071-1.473
	c0.59-0.432,1.102,0.333,2.088,0.075c0.448-0.163,0.35-1.136,0.946-1.563c-1.665-1.347-3.204-0.051-4.753,0.066
	c-0.791,0.375-0.948,1.24-1.531,1.884c-0.709-0.041-1.488-0.583-1.993,0.119c-0.593-0.35-0.442-0.755-0.611-1.077
	c-0.401,0.058-0.811,0.117-1.286,0.187C7.353,62.081,8.509,61.9,8.472,61.21c-0.421-0.329-1.069-0.003-1.45-0.502
	c0.292-0.984,1.228-0.794,1.918-0.996c0.001-0.915-1.209-0.717-1.259-1.588c0.21-0.702,1.131-0.117,1.46-0.693
	c0.026-0.322,0.052-0.653,0.083-1.053c1.641-0.005,2.293,1.44,3.438,2.223c0.874,0.267,1.796,0.423,2.697-0.083
	c0.032-2.073-0.386-2.528-2.159-3.165c-1.38-0.496-3.004-0.155-4.192-1.218c0.037-0.669,0.9-0.432,1.072-0.864
	c-0.491-0.921-1.437-0.063-1.851-0.603c-0.193-0.374-0.141-0.664,0.079-0.801c0.512-0.321,1.063-0.577,1.6-0.858
	c0.058,0.047,0.117,0.095,0.175,0.144c-0.063-0.044-0.126-0.087-0.188-0.131c-0.23-0.459-0.789-0.708-0.825-1.292
	c0.475-0.598,0.928,0.169,1.392,0.029c0.411-0.294-0.177-0.894,0.381-1.151c0.757-0.149,0.938,0.604,1.364,0.951
	c0.507-0.1,0.685-0.861,1.521-0.532c-0.08,1.477,0.039,3.011,1.281,4.444c1.596,0.798,3.336,1.138,4.984-0.233
	c0.386-3.349-0.565-5.002-3.442-6.209c-0.791-0.332-1.639-0.574-2.271-1.382c0.327-0.625,1.38-0.572,1.441-1.493
	c0.367,0.075,0.701,0.142,1.178,0.239c-0.06-1.015,0.586-1.722,1.171-2.494c0.244,0.069,0.49,0.139,0.738,0.208
	c0.056,0.037,0.11,0.073,0.166,0.11C18.915,42.185,18.854,42.154,18.792,42.124z M28.523,70.746c-0.1,0.275-0.195,0.423-0.199,0.57
	c-0.006,0.239,0.05,0.48,0.092,0.841c0.107-0.275,0.209-0.424,0.212-0.573C28.633,71.346,28.572,71.105,28.523,70.746z"/>
</svg>
