<?xml version="1.0" encoding="utf-8"?>
<!-- Generator: Adobe Illustrator 16.0.4, SVG Export Plug-In . SVG Version: 6.00 Build 0)  -->
<!DOCTYPE svg PUBLIC "-//W3C//DTD SVG 1.1//EN" "http://www.w3.org/Graphics/SVG/1.1/DTD/svg11.dtd">
<svg version="1.1" id="Layer_0601" xmlns="http://www.w3.org/2000/svg" xmlns:xlink="http://www.w3.org/1999/xlink" x="0px" y="0px"
	 width="128px" height="128px" viewBox="0 0 128 128" enable-background="new 0 0 128 128" xml:space="preserve">
<g>
	<path fill-rule="evenodd" clip-rule="evenodd" d="M80.486,64.213c0.301,6.716-1.639,13.406-3.711,20.089
		c-2.608,8.416-5.002,16.892-6.537,25.585c-0.438,2.476-0.419,2.46,1.95,3.148c1.034,0.301,2.044,0.68,3.058,1.045
		c2.517,0.906,5.072,1.705,7.766,1.716c1.895,0.009,3.508,0.607,4.85,1.855c2.082,1.935,4.504,2.952,7.313,3.3
		c1.812,0.225,3.637,0.615,5.114,1.859c1.09,0.913,1.091,1.364-0.08,2.176c-2.342,1.625-4.93,2.469-7.781,2.779
		c-5.848,0.635-11.666,0.111-17.488-0.236c-4.947-0.296-9.884-0.131-14.826,0.033c-2.916,0.096-5.842,0.096-8.76,0.015
		c-5.136-0.142-10.281-0.199-15.379-0.97c-1.884-0.285-3.739-0.698-5.567-1.227c-0.79-0.228-1.567-0.529-2.239-1.022
		c-1.458-1.069-1.598-2.006-0.721-3.579c1.705-3.06,4.628-3.988,7.775-4.451c1.628-0.239,3.29-0.322,4.936-0.327
		c3.512-0.011,6.944-0.351,10.299-1.521c1.844-0.644,3.772-1.123,5.75-1.244c0.828-0.051,1.092-0.416,0.928-1.238
		c-1.428-7.083-3.004-14.128-5.084-21.057c-1.621-5.4-3.322-10.793-4.046-16.412c-0.977-7.573-0.207-14.939,2.919-21.969
		c0.36-0.812,0.409-1.481,0.178-2.337c-0.43-1.582-0.801-3.205-0.406-4.875c0.104-0.446,0.031-0.86-0.278-1.247
		c-1.873-2.337-1.427-5.035-1.055-7.664c0.117-0.828,0.077-1.34-0.468-2.025c-1.568-1.975-2.009-4.184-0.887-6.575
		c0.51-1.084,0.65-2.324,1.333-3.334c0.339-0.501-0.006-0.825-0.188-1.208c-1.151-2.417-1.22-4.649,0.644-6.875
		c0.846-1.008,1.768-2.164,1.045-3.902c-0.518-1.238-0.285-2.755,0.326-4.08c0.268-0.584,0.291-0.442,1.357-0.659
		c0.688-0.14,1.271-0.79,1.909-1.198c0.423-0.271,0.234-0.642,0.229-1.012c-0.032-2.151,0.735-3.951,2.435-5.31
		c0.188-0.149,0.535-0.377,0.623-0.312c0.251,0.18,0.014,0.444-0.068,0.67c-0.302,0.831-0.709,1.639-0.516,2.572
		c0.109,0.527,0.41,0.686,0.722,0.237c0.343-0.493,1.44-0.621,0.784-1.734c-0.143-0.243,0.984-0.808,1.694-0.844
		c1.544-0.076,3.067,0.06,4.41,0.894c0.769,0.477,1.3,0.562,2.177,0.004c1.707-1.084,3.613-1.024,5.463-0.171
		c0.156,0.071,0.38,0.212,0.395,0.341c0.041,0.38-0.316,0.327-0.534,0.345c-0.821,0.069-1.653,0.057-2.367,0.573
		c-0.483,0.349-0.61,0.7,0.065,0.886c1.564,0.431,2.779,1.215,3.242,2.875c0.051,0.182,0.157,0.375,0.362,0.274
		c0.149-0.075,0.287-0.262,0.343-0.429c0.221-0.674,0.184-1.373,0.154-2.074c-0.012-0.266-0.24-0.676,0.203-0.769
		c0.252-0.052,0.383,0.274,0.508,0.491c1.012,1.76,1.187,3.636,0.449,5.488c-0.324,0.816-0.352,1.339,0.197,2.025
		c0.809,1.013,1.143,2.248,1.299,3.528c0.024,0.198-0.088,0.588,0.339,0.482c0.14-0.035,0.276-0.25,0.334-0.413
		c0.126-0.358,0.179-0.742,0.303-1.101c0.108-0.315-0.095-0.748,0.339-0.946c0.149,0.345,0.37,0.675,0.438,1.034
		c0.352,1.867,0.258,3.689-0.892,5.288c-0.382,0.534-0.497,0.782,0.003,1.392c1.587,1.925,1.838,4.167,0.864,6.43
		c-0.37,0.859-0.188,1.377,0.253,2.064c0.908,1.418,1.445,2.974,1.132,4.69c-0.113,0.619-0.136,1.229-1.127,1.418
		c-0.926,0.177-1.343,1.797-0.953,2.82c0.511,1.339,0.601,2.717,0.454,4.121c-0.094,0.908-0.324,1.82-1.101,2.34
		c-1.143,0.767-1.407,1.674-0.847,2.891c0.077,0.164,0.025,0.381,0.074,0.563c0.117,0.47-0.234,1.174,0.275,1.38
		c0.549,0.22,0.8-0.49,1.118-0.844c0.772-0.865,0.821-0.157,0.974,0.404C79.987,53.953,80.604,58.844,80.486,64.213z M65.281,27.968
		l-0.11,0.051l0.058-0.104c0.218-0.058,0.393-0.15,0.349-0.423c1.614,0.122,1.464-1.446,1.87-2.25
		c0.32-0.63-0.714-1.144-1.453-1.394c-0.172-0.058-0.293-0.25-0.459-0.333c-0.679-0.338-1.582-1.226-2.077-0.391
		c-0.489,0.826,0.712,1.077,1.333,1.461c0.788,0.488,1.699,0.965,1.166,2.182c-0.107-0.23,0.226-0.024-0.005-0.132
		c-0.111-0.052-0.146-0.018-0.089,0.092c0.115,0.227-0.102-0.101,0.131,0.001c-0.21,0.225-0.477,0.424-0.383,0.797
		C65.299,27.522,65.195,27.673,65.281,27.968z M55.303,55.342l-0.068,0.028l0.02-0.079c0.13-0.024,0.412,0.082,0.203-0.234
		C55.407,55.152,55.356,55.248,55.303,55.342z M69.729,52.712c0.086-0.953-0.822-1.466-1.025-2.295
		c-0.036-0.149-0.117-0.42-0.359-0.28c-0.12,0.068-0.242,0.319-0.207,0.445c0.25,0.919,0.654,1.735,1.635,2.09
		c-0.633,0.547-1.412,0.401-2.146,0.446c-0.385,0.022-0.663,0.182-0.412,0.55c0.311,0.454,0.832,1.08,1.343,0.697
		c0.513-0.388,1.641-0.432,1.331-1.561C69.877,52.762,69.783,52.743,69.729,52.712z M69.121,40.332
		c0.135,0.773-0.871,1.455-0.186,2.268c0.154,0.184,0.31,0.428,0.587,0.396c0.354-0.039,0.24-0.357,0.251-0.567
		c0.046-0.772-0.162-1.467-0.693-2.048c0.26-0.543,0.836-0.435,1.271-0.621c0.506-0.216,1.518,0.213,1.469-0.438
		c-0.039-0.553-1.114-0.635-1.77-0.687c-0.463-0.038-0.95,0.214-1.426,0.337c0.188-0.955,0.945-1.605,1.314-2.462
		c0.193-0.447,0.56-1.177,0.131-1.357c-0.666-0.278-0.988,0.509-1.33,1.003c-0.033,0.047-0.057,0.137-0.035,0.181
		c0.66,1.328-1.251,0.539-1.152,1.401c-0.654,0.01-0.686-0.615-0.967-0.977c-0.271-0.347-0.527-0.693-0.93-0.903l-0.117-0.032
		l0.164-0.004c-0.67,1.197-0.42,2.974-2.357,3.39c-0.582,0.126-0.021,0.566,0.266,0.733c0.371,0.218,0.732,0.007,1.093-0.102
		c0.455-0.141,0.817-0.051,0.633,0.504c-0.332,0.99,0.127,1.87,0.273,2.795c-0.375,0.009-0.521,0.2-0.409,0.557
		c0.026,0.084,0.191,0.206,0.198,0.201c0.256-0.223,0.208-0.515,0.16-0.804c0.509-0.244,0.527-0.813,0.798-1.218
		c0.466-0.693,0.833-1.504,1.925-1.014c0.045,0.02,0.224-0.258,0.34-0.397C68.789,40.422,68.954,40.377,69.121,40.332z
		 M53.303,12.092c-0.508-0.015-0.883-0.863-1.508-0.197c-0.513,0.544-0.352,1.094,0.011,1.542c0.523,0.646,0.368,1.079-0.21,1.546
		c-1.15,0.931-1.559,2.269-1.916,3.628c-0.081,0.305-0.236,0.69,0.045,0.89c0.325,0.229,0.54-0.13,0.735-0.361
		c0.83-0.984,1.943-1.605,2.973-2.331c-0.064,0.734-0.281,1.492,0.237,2.154c0.186,0.239,0.425,0.581,0.661,0.6
		c0.302,0.024,0.4-0.408,0.49-0.68c0.39-1.173,0.113-1.87-1.068-2.802c0.098-1.376-0.402-2.685-0.474-4.043
		c0.318,0.479,0.653,0.931,1.328,0.865c0.242-0.023,0.571-0.003,0.513-0.346c-0.113-0.661-0.143-1.744-0.496-1.876
		c-0.857-0.318-0.678,0.775-1.021,1.213C53.534,11.984,53.405,12.028,53.303,12.092z M69.846,54.604
		c0.526,0.663,0.129,1.472,0.341,2.18c0.194,0.644,0.101,1.36,0.497,1.952c0.648-0.483,0.832-1.229,1.037-1.941
		c0.504-1.748,0.494-1.748,2.033-2.994c0.243-0.196,0.447-0.445,0.647-0.688c0.224-0.27,0.153-0.473-0.206-0.439
		c-0.438,0.041-0.866,0.153-1.299,0.238c-0.241,0.048-0.525,0.114-0.661-0.121c-0.054-0.095,0.124-0.336,0.216-0.5
		c0.401-0.717,0.812-1.432,0.756-2.296c-0.02-0.31-0.025-0.644-0.438-0.721c-0.346-0.063-0.616,0.007-0.721,0.393
		c-0.276,1.019-0.94,1.93-0.769,3.074c0.129,0.865,0.055,1.542-1.186,1.226c-0.469-0.119-0.236,0.398-0.202,0.662l-0.11-0.024
		H69.846z M49.956,41.258l-0.061-0.112l0.1,0.074c-0.047,1.312,0.615,2.294,1.574,3.052c0.516,0.409,0.799,0.626,0.359,1.323
		c-0.609,0.963,0.012,1.66,0.797,2.194c0.165,0.112,0.52,0.322,0.58-0.09c0.154-1.042,0.522-2.16,0.29-3.123
		c-0.258-1.078-0.657-1.609,0.886-1.074c0.941,0.327,1.059-0.645,1.088-1.15c0.062-1.057-0.494-0.168-0.764-0.143
		c-0.454,0.043-0.535-0.262-0.555-0.574c-0.029-0.502-0.059-1.014,0.011-1.51c0.101-0.709,0.288-1.593-0.605-1.709
		c-0.856-0.109-0.854,0.868-1.039,1.494c-0.036,0.117-0.016,0.252-0.042,0.375c-0.165,0.756,0.523,1.906-0.227,2.193
		c-0.756,0.291-1.483-0.732-2.205-1.211C50.098,41.237,50.019,41.26,49.956,41.258z M72.511,24.599
		c-0.565-0.343-1.096-0.05-1.645,0.072c-1.548,0.346-1.546,0.337-1.872-1.173c-0.031-0.15,0.09-0.613-0.338-0.264
		c-0.638,0.521-1.059,2.369-0.511,2.67c0.952,0.521,0.515,1.065,0.105,1.439c-0.665,0.606-0.815,1.408-1.108,2.162
		c-0.219,0.562-0.053,1.078,0.592,1.121c0.506,0.033,1.363,0.188,1.336-0.636c-0.051-1.471,0.426-1.454,1.503-0.819
		c0.723,0.425,1.606,0.294,2.43,0.223c0.579-0.051,0.573-0.379,0.259-0.749c-0.475-0.558-1.174-0.731-1.814-0.996
		c-0.524-0.217-1.428-0.333-1.502-0.647c-0.117-0.509,0.791-0.533,1.137-0.952c0.441-0.534,0.962-1.001,1.449-1.497l-0.014-0.101
		L72.511,24.599z M62.526,45.756l0.045,0.041c0.003-0.887,0.021-1.773,0.003-2.659c-0.005-0.242-0.065-0.659-0.183-0.688
		c-0.369-0.098-0.533,0.23-0.639,0.541c-0.123,0.359-0.26,0.716-0.348,1.083c-0.391,1.644-0.386,1.646-1.768,0.657
		c-0.154-0.109-0.298-0.242-0.467-0.323c-0.235-0.112-0.391-0.608-0.719-0.253c-0.12,0.129-0.068,0.496,0.008,0.717
		c0.146,0.415,0.311,0.844,0.57,1.193c0.374,0.502,0.355,0.834-0.145,1.256c-0.535,0.453-1.57,1.01-1.07,1.672
		c0.371,0.492,1.115-0.459,1.64-0.85c0.444-0.334,0.727-0.49,0.847,0.266c0.1,0.621,0.305,1.229,0.508,1.828
		c0.074,0.222,0.139,0.582,0.42,0.574c0.308-0.009,0.232-0.356,0.26-0.579c0.017-0.126-0.014-0.257,0.007-0.381
		c0.114-0.676-0.026-1.568,0.61-1.911c0.66-0.355,0.987,0.592,1.535,0.834c0.281,0.123,0.709,0.406,0.832,0.311
		c0.402-0.314-0.05-0.641-0.168-0.947c-0.112-0.289-0.284-0.59-0.512-0.791c-0.593-0.529-0.181-0.811,0.18-1.205
		c0.335-0.367,1.308-0.414,0.992-0.988c-0.217-0.394-1.042,0.078-1.577,0.251C63.093,45.498,62.813,45.638,62.526,45.756z
		 M67.146,4.244c-0.195,1.066,0.531,2.078,0.145,3.177c-0.183,0.524,0.312,0.614,0.691,0.577c0.359-0.033,0.559-0.294,0.423-0.666
		c-0.146-0.403-0.595-1.013-0.476-1.147c1.153-1.304-0.123-1.468-0.826-1.905c0.877-0.703,1.756-1.404,2.629-2.114
		c0.139-0.113,0.244-0.27,0.365-0.405c-0.168-0.047-0.334-0.131-0.502-0.132c-0.977-0.015-1.898,0.278-2.688,0.799
		c-0.653,0.432-1.086,0.562-1.82,0.061c-1.043-0.715-2.315-0.994-3.578-1.16c-0.35-0.045-0.84-0.154-0.979,0.313
		c-0.109,0.373,0.35,0.458,0.586,0.621c0.811,0.559,1.668,1.059,2.258,1.875c0.15,0.207,0.635,0.538,0.238,0.718
		c-2.004,0.91,0.543,2.072-0.196,3.041c-0.05,0.064,0.302,0.237,0.457,0.136c0.797-0.52,1.409-1.246,2.038-1.946
		C64.836,4.475,66.434,4.656,67.146,4.244z M75.572,30.098c0.326,0.389,0.652,0.775,0.981,1.164c0.249,0.296,0.55,0.631,0.937,0.556
		c0.493-0.095,0.219-0.635,0.371-0.939c0.572-1.148-0.945-2.071-0.541-2.872c0.492-0.98,0.93-1.91,1.05-2.99
		c0.013-0.124,0.021-0.266-0.027-0.375c-0.104-0.244-0.294-0.474-0.517-0.144c-0.493,0.734-1.041,1.406-1.785,1.897
		c-0.23-0.84-0.42-1.694-0.707-2.517c-0.184-0.529-0.542-1.325-1.068-1.159c-0.687,0.218-0.672,1.08-0.582,1.778
		c0.009,0.061,0.055,0.115,0.07,0.176c0.138,0.552,0.556,1.27,0.35,1.623c-0.451,0.772-1.048-0.141-1.611-0.163
		c-0.355-0.014-0.611,0.139-0.838,0.359c-0.131,0.127-0.201,0.32-0.084,0.494c0.344,0.511,2.621,1.02,3.106,0.649
		c0.215-0.165,0.225-0.601,0.671-0.358c0.437,0.24,0.35,0.57,0.285,0.969c-0.08,0.5-0.328,0.712-0.777,0.921
		c-0.273,0.128-0.44,0.634-0.183,0.976c0.269,0.357,0.633,0.38,0.944-0.01L75.572,30.098z M64.44,10.755l0.037,0.049
		c0.863-0.937,1.649-1.922,1.951-3.201c0.053-0.224,0.285-0.5-0.027-0.664c-0.112-0.061-0.358,0.064-0.508,0.161
		c-0.318,0.205-0.59,0.499-0.924,0.664c-0.728,0.358-0.966,1.783-1.603,1.475C62.764,8.948,62.6,7.74,62.252,6.932
		c-0.099-0.229-0.162-0.473-0.242-0.71c-0.322,0.113-0.436,0.396-0.572,0.672c-0.434,0.889,0.176,2.187-0.424,2.716
		c-1.086,0.957-0.938,1.36,0.204,1.894c0.038,0.018-0.069,0.347-0.11,0.53c-0.12,0.557-0.267,1.11-0.355,1.673
		c-0.07,0.424-0.301,1.077,0.086,1.231c0.521,0.209,0.633-0.494,0.818-0.851c0.776-1.497,1.145-1.57,2.398-0.664
		c0.316,0.229,0.927,0.594,1.091,0.555c0.55-0.132,0.378-0.734,0.232-1.113c-0.287-0.74-0.037-1.059,0.689-1.14
		c0.252-0.028,0.512-0.039,0.752-0.107c0.227-0.066,0.519-0.128,0.494-0.46c-0.023-0.293-0.287-0.373-0.506-0.497
		C65.996,10.201,65.219,10.427,64.44,10.755z M59.231,24.334c1.85,0.519,2.936-0.397,3.656-1.968
		c0.206-0.447,0.703-1.033,0.309-1.375c-0.436-0.376-0.763,0.355-1.133,0.6c-0.26,0.171-0.477,0.414-0.693,0.643
		c-1.342,1.412-1.342,1.416-2.096-0.356c-0.05-0.116-0.089-0.236-0.132-0.355c-0.145-0.405-0.165-1.073-0.626-1.044
		c-0.361,0.021-0.465,0.68-0.516,1.117c-0.044,0.376-0.103,0.767-0.046,1.134c0.133,0.865-0.145,1.309-1.068,1.363
		c-0.633,0.036-1.218,0.311-1.753,0.669c-0.277,0.188-0.342,0.381,0.036,0.493c0.301,0.09,0.619,0.153,0.931,0.157
		c1.85,0.022,1.829,0.011,1.523,1.725c-0.107,0.602-0.381,1.522,0.137,1.741c0.458,0.193,0.523-0.849,0.915-1.24
		c0.131-0.131,0.205-0.317,0.324-0.464c0.8-0.991,0.953-0.983,1.668,0.094c0.138,0.208,0.226,0.522,0.509,0.481
		c0.285-0.042,0.274-0.375,0.301-0.603c0.143-1.18,0.872-1.581,1.968-1.539c0.314,0.012,0.633-0.012,0.946-0.042
		c0.321-0.031,0.193-0.237,0.096-0.364c-0.627-0.825-2.855-0.917-3.332,0.042c-0.511,1.024-1.094,0.33-1.545,0.272
		c-0.671-0.085-0.553-0.683-0.332-1.18L59.231,24.334z M64.08,41.586c0.027,0.162,0.062,0.189,0.108,0.079
		c-0.049-0.015-0.096-0.029-0.143-0.044c-1.011-1.654-1.795-2.012-3.233-1.149c-0.761,0.456-0.997-0.205-1.458-0.354
		c-0.389-0.126-0.279-0.571-0.15-0.818c0.305-0.578,1.023-0.094,1.098-0.025c0.953,0.83,1.61,0.166,2.272-0.378
		c0.679-0.556,1.949-1.438,1.614-1.868c-0.52-0.662-1.482,0.365-2.271,0.622c-0.116,0.038-0.231,0.106-0.33,0.185
		c-0.707,0.571-1.24,0.717-1.246-0.488c-0.002-0.551-0.301-0.768-0.821-0.82c-0.431-0.042-0.767,0.008-0.844,0.498
		c-0.181,1.12-0.922,0.937-1.722,0.821c-0.587-0.085-1.533-0.343-1.676,0.331c-0.147,0.699,0.814,0.722,1.38,0.898
		c0.06,0.02,0.12,0.04,0.185,0.043c1.271,0.079,1.098,0.652,0.476,1.384c-0.082,0.096-0.155,0.202-0.212,0.314
		c-0.365,0.7-0.972,1.312-0.834,2.202c0.682-0.329,1.31-0.74,1.688-1.414c0.384-0.682,1.119-0.568,1.631-0.561
		c0.478,0.008,0.216,0.727,0.277,1.128c0.1,0.649,0.059,1.648,0.68,1.696c0.556,0.043,0.54-1.018,0.738-1.593
		c0.439-1.265,0.496-1.327,1.694-0.826C63.336,41.598,63.692,41.714,64.08,41.586z M70.139,47.275l0.055,0.059
		c0.7-0.974,1.412-1.941,2.094-2.93c0.134-0.195,0.258-0.519,0.012-0.693c-0.227-0.16-0.459,0.093-0.633,0.229
		c-0.598,0.468-1.181,0.957-1.748,1.461c-0.947,0.839-0.943,0.848-1.397-0.403c-0.109-0.296-0.183-0.606-0.3-0.899
		c-0.161-0.402-0.191-1.177-0.49-1.131c-0.482,0.076-0.559,0.763-0.695,1.251c-0.088,0.31-0.062,0.6-0.027,0.921
		c0.084,0.799-0.247,1.324-1.152,1.339c-0.312,0.005-0.641,0.058-0.934,0.165c-0.569,0.21-0.365,0.561-0.082,0.861
		c0.297,0.316,0.705,0.236,1.076,0.203c0.745-0.065,0.859,0.215,0.618,0.887c-0.298,0.83-0.639,1.665-0.612,2.574
		c0.005,0.166,0.062,0.432,0.162,0.471c0.211,0.077,0.274-0.176,0.383-0.32c0.416-0.561,0.797-1.152,1.268-1.664
		c0.849-0.925,0.989-0.874,1.535,0.345c0.281,0.629,0.512,1.297,1.148,1.687c0.304-0.651,0.424-1.372,0.277-2.039
		c-0.191-0.889,0.131-1.168,0.939-1.151c0.38,0.007,0.761-0.002,1.141-0.004c0.182-0.001,0.427-0.007,0.436-0.198
		c0.006-0.135-0.178-0.322-0.322-0.414C72.046,47.357,71.093,47.31,70.139,47.275z M58.036,32.186l0.034,0.058
		c-0.243-0.772,0.424-0.976,0.849-1.296c0.35-0.264,0.82-0.375,1.146-0.657c0.368-0.32,1.015-0.783,0.777-1.185
		c-0.302-0.509-0.854,0.112-1.308,0.197c-0.859,0.162-1.449,1.481-2.227,1.006c-0.71-0.431-0.43-1.632-0.521-2.507
		c-0.021-0.215,0.12-0.556-0.239-0.597c-0.277-0.031-0.407,0.243-0.552,0.45c-1.447,2.08-1.45,2.072-3.603,2.6
		c-0.23,0.057-0.566,0.196-0.618,0.37c-0.128,0.411,0.343,0.416,0.567,0.562c0.695,0.453,2.076,0.015,2.182,0.615
		c0.123,0.682-0.698,1.529-1.103,2.311c-0.086,0.167-0.151,0.349-0.213,0.528c-0.079,0.231-0.282,0.52-0.052,0.7
		c0.244,0.192,0.407-0.13,0.574-0.271c0.432-0.371,0.826-0.791,1.277-1.137c1.247-0.961,1.34-0.924,1.684,0.654
		c0.135,0.615,0.262,1.629,0.709,1.606c0.614-0.03,0.66-1.009,0.703-1.604c0.068-0.881,0.176-1.443,1.277-1.123
		c0.516,0.149,1.516,0.438,1.545,0.072c0.051-0.63-0.836-0.826-1.438-0.99C59.008,32.418,58.576,32.072,58.036,32.186z
		 M69.865,31.467c-0.864-0.395-1.747-0.036-2.619-0.062c-1.701-0.051-1.777-0.146-1.057-1.604c0.167-0.339,0.322-0.685,0.454-1.038
		c0.09-0.238,0.155-0.571-0.073-0.688c-0.139-0.07-0.457,0.108-0.641,0.247c-0.592,0.443-1.157,1.286-1.735,1.287
		c-0.655,0.001-1.075-0.959-1.529-1.562c-0.103-0.136-0.239-0.337-0.396-0.177c-0.101,0.103-0.085,0.357-0.065,0.537
		c0.118,1.06,0.685,1.879,1.435,2.593l0.055-0.061c-0.951,0.025-1.904,0.004-2.849,0.092c-0.481,0.045-1.267,0.116-1.308,0.553
		c-0.065,0.671,0.756,0.456,1.188,0.621c0.349,0.135,0.741,0.167,1.119,0.211c1.561,0.184,1.561,0.178,0.824,1.485
		c-0.062,0.11-0.133,0.219-0.172,0.339c-0.176,0.546-1.18,1.019-0.702,1.436c0.396,0.348,1.288-0.202,1.874-0.593
		c0.158-0.104,0.326-0.215,0.441-0.36c0.512-0.654,0.909-0.352,1.4,0.07c0.635,0.547,1.365,1.596,2.143,0.989
		c0.371-0.292-0.648-1.339-1.271-1.863c-0.664-0.56-0.33-0.798,0.268-0.954c1.183-0.309,2.211-0.934,3.25-1.541
		C69.887,31.436,69.877,31.451,69.865,31.467z M53.901,26.232c0.178,0.068,0.35,0.167,0.53,0.197
		c0.507,0.084,1.01,0.071,1.479-0.176c-0.332-0.456-0.859-0.201-1.276-0.349c-0.239-0.085-0.479-0.174-0.726-0.226
		c-0.707-0.15-0.383-0.265-0.176-0.76c0.459-1.099,1.425-1.187,2.252-1.611c0.535-0.276,1.427-0.479,1.218-1.234
		c-0.251-0.909-1.062-0.226-1.584-0.184c-2.026,0.164-2.019,0.201-2.195-1.766c-0.029-0.31-0.103-0.627-0.218-0.917
		c-0.109-0.274-0.128-0.665-0.503-0.729c-0.386-0.065-0.54,0.28-0.704,0.537c-0.384,0.606-0.504,1.278-0.492,1.997
		c0.012,0.621,0.113,1.539-0.888,0.519c-0.435-0.443-1.224,0.137-1.603-0.52c0.083,0.563,0.159,1.13,0.481,1.621
		c0.139,0.21,0.273,0.448,0.47,0.591c0.676,0.487,0.624,0.936,0.086,1.52c-1.051,1.141-1.282,2.57-1.258,4.059
		c0.002,0.184,0.017,0.452,0.13,0.531c0.178,0.124,0.298-0.108,0.416-0.246c0.774-0.917,1.553-1.832,2.332-2.747
		c0.199-0.234,0.355-0.719,0.637-0.617c0.375,0.134,0.021,0.526-0.02,0.791c-0.1,0.67,0.057,1.259,0.422,1.803
		c0.174,0.26,0.359,0.585,0.714,0.532c0.434-0.066,0.287-0.486,0.349-0.768c0.131-0.607-0.25-1.264,0.174-1.845L53.901,26.232z
		 M70.546,60.311c-1.22,0.122-2.438,0.307-3.663,0.346c-0.855,0.027-1.264,0.25-1.26,1.191c0.013,4.565-0.023,9.131-0.031,13.695
		c0,0.219,0.109,0.437,0.168,0.654c0.273-0.152,0.209-0.441,0.26-0.674c0.736-3.342,1.78-6.598,2.681-9.895
		c0.497-1.824,1.613-3.436,1.806-5.359l0.109-0.052L70.546,60.311z M71.771,15.833c-0.848-0.413-1.596,0.165-2.384,0.275
		c-0.779,0.11-1.188,0.075-1.122-0.875c0.064-0.944,0.004-1.899-0.025-2.849c-0.005-0.161-0.079-0.384-0.197-0.461
		c-0.174-0.113-0.354,0.036-0.473,0.194c-0.534,0.706-1.084,1.401-1.415,2.239c-0.21,0.536-0.327,0.999-1.188,0.662
		c-0.599-0.234-1.666,1.417-1.206,1.837c0.77,0.708,0.86,1.607,1.245,2.438c0.434,0.938,0.747,1.405-0.515,1.636
		c-0.183,0.034-0.344,0.15-0.262,0.357c0.027,0.07,0.253,0.146,0.318,0.107c1.509-0.891,1.784,0.349,2.287,1.273
		c0.193,0.36,0.322,0.974,0.849,0.87c0.226-0.044,0.37-0.617,0.501-0.969c0.11-0.294,0.149-0.615,0.211-0.925
		c0.286-1.443,0.277-1.405,1.663-1.12c0.673,0.138,1.382,0.113,2.075,0.128c0.227,0.005,0.537,0.032,0.608-0.298
		c0.063-0.295-0.145-0.481-0.368-0.584c-0.975-0.449-1.961-0.875-2.939-1.314c-0.17-0.077-0.326-0.186-0.488-0.28
		c0.157-0.092,0.305-0.21,0.472-0.273c1.063-0.398,1.776-1.18,2.347-2.119l-0.025-0.088L71.771,15.833z M68.954,4.724L69,4.637
		l0.002,0.053c0.564,1.057,1.143,2.108,1.688,3.175c0.17,0.332,0.36,0.749,0.115,1.077c-0.313,0.412-0.675-0.042-1.015-0.088
		c-0.806-0.112-1.535-0.602-2.404-0.447c-0.568,0.101-0.988,0.38-1.053,0.931c-0.062,0.556,0.456,0.689,0.877,0.828
		c0.704,0.231,1.404,0.599,2.124,0.646c1.292,0.083,0.774,0.571,0.356,1.111c-0.117,0.15-0.201,0.329-0.338,0.458
		c-0.295,0.282-0.513,0.594-0.313,1.001c0.272,0.558,0.729,0.389,1.138,0.201c0.669-0.307,0.746,0.082,0.772,0.594
		c0.015,0.31,0.027,0.701,0.468,0.653c0.439-0.047,0.914-0.187,1.021-0.698c0.062-0.294-0.027-0.623-0.059-0.936
		c-0.017-0.179-0.051-0.356-0.077-0.534c0.145,0.092,0.343,0.148,0.431,0.279c0.713,1.088,1.966,1.592,2.77,2.577
		c0.124,0.153,0.307,0.32,0.47,0.209c0.108-0.072,0.141-0.343,0.113-0.508c-0.145-0.877-0.374-1.727-0.739-2.548
		c-0.35-0.784-1.301-1.203-1.452-1.947c-0.149-0.744,0.909-1.238,1.022-2.093c0.092-0.691,0.448-1.734-0.015-1.959
		c-0.595-0.291-0.708,0.845-1.186,1.226c-0.335,0.267-0.45,0.941-0.905,0.87c-0.567-0.091-0.265-0.733-0.357-1.12
		C71.967,5.585,70.919,4.691,68.954,4.724z M55.958,55.861c-1.484,0.049-1.715,0.436-1.225,1.91
		c1.533,4.627,3.018,9.268,4.032,14.042c0.538,2.537,1.251,5.04,1.515,7.633c0.019,0.173,0.143,0.487,0.188,0.481
		c0.318-0.037,0.264-0.332,0.282-0.549c0.027-0.316,0.027-0.633,0.025-0.951c-0.016-5.071-0.032-10.143-0.049-15.215
		c-0.006-1.944-0.006-1.943-1.903-2.172c-0.249-0.029-0.507-0.062-0.743-0.147c-0.285-0.102-0.68-0.177-0.719-0.516
		c-0.051-0.444,0.412-0.363,0.674-0.483c1.924-0.898,1.932-1.01,0.309-2.36c-0.438-0.364-0.834-0.776-1.244-1.175
		C56.782,56.047,56.477,55.71,55.958,55.861z M73.828,33.927c0.04,0.72-0.134,1.138-0.957,0.642
		c-0.215-0.131-0.452-0.23-0.688-0.316c-1.116-0.412-1.273-0.264-1.271,0.933c0,0.685,0.254,1.064,0.91,1.222
		c1.074,0.256,0.888,0.644,0.1,1.086c-0.639,0.359-0.648,0.653,0.069,0.958c0.398,0.168,0.803,0.405,1.099,0.715
		c0.26,0.272,0.695,0.643,0.068,1.067c-0.588,0.398-0.595,1.258-0.188,1.441c0.545,0.244,0.871-0.521,1.157-1.003
		c0.03-0.054,0.044-0.119,0.079-0.171c0.319-0.469-0.133-1.104,0.336-1.539c0.337,0.445,0.674,0.893,1.01,1.338
		c0.039,0.051,0.082,0.101,0.132,0.139c0.712,0.539,1.007,2.192,1.747,1.79c0.807-0.437,0.16-1.851-0.031-2.826
		c-0.086-0.427-0.197-0.921-0.474-1.222c-0.747-0.809-0.495-1.279,0.249-1.951c0.646-0.578,0.931-1.49,1.006-2.399
		c0.015-0.177,0.004-0.44-0.103-0.522c-0.16-0.121-0.312,0.074-0.417,0.22c-0.379,0.522-0.898,0.882-1.408,1.258
		c-0.594,0.437-0.744,0.17-0.73-0.433c0.01-0.441,0.029-0.891-0.033-1.326c-0.146-1.037-0.543-1.952-1.514-2.49
		c-0.305-0.169-0.639-0.542-1.002-0.222c-0.307,0.272,0.045,0.576,0.145,0.846C73.451,32.052,73.695,32.964,73.828,33.927z
		 M56.047,9.144c0.506,0.147,0.154,0.368,0.062,0.466c-0.687,0.735-0.743,1.573-0.448,2.476c0.055,0.166,0.098,0.401,0.371,0.288
		c0.109-0.046,0.282-0.123,0.293-0.205c0.202-1.365,1.228-1.886,2.334-2.344c0.16-0.067,0.406-0.285,0.385-0.371
		c-0.311-1.146,0.322-0.961,1.066-0.866c0.52,0.065,0.457-0.492,0.494-0.844c0.04-0.381-0.004-0.518-0.54-0.657
		c-1.285-0.331-1.401-0.882-0.593-1.843c0.404-0.482,0.912-0.875,1.356-1.325c0.248-0.25,0.659-0.472,0.317-0.929
		c-0.285-0.385-0.637-0.596-1.142-0.43c-0.616,0.204-1.167,0.48-1.505,1.074c-0.251,0.44-0.539,0.858-0.793,1.296
		c-0.3,0.511-0.576,0.384-0.792-0.042c-0.317-0.625-0.511-1.292-0.507-2.007c0-0.153,0.033-0.391-0.221-0.381
		c-0.096,0.003-0.215,0.136-0.271,0.238c-0.119,0.22-0.181,0.471-0.308,0.685c-0.647,1.095,0.332,2.545-0.462,3.4
		c-0.785,0.845-1.985,1.316-2.644,2.376C52.37,9.413,52.156,9.58,52.041,9.8c-0.161,0.311-0.585,0.646-0.295,0.976
		c0.2,0.227,0.544-0.128,0.812-0.256C53.7,9.975,55.002,9.855,56.047,9.144z M60.286,17.6c0.817,0.112,1.461-0.296,2.028-0.8
		c0.401-0.357,1.104-0.793,0.825-1.313c-0.232-0.436-0.906,0.111-1.396,0.139c-0.25,0.015-0.508,0.046-0.748,0.117
		c-0.872,0.253-1.12-0.127-1.082-0.949c0.04-0.882,0.004-1.768-0.019-2.653c-0.006-0.225,0.072-0.542-0.251-0.618
		c-0.295-0.071-0.431,0.193-0.578,0.394c-0.111,0.151-0.236,0.298-0.332,0.46c-0.449,0.757-0.718,1.775-1.375,2.214
		c-0.799,0.532-1.509-0.609-2.354-0.769c-0.776-0.148-0.922,0.174-0.683,0.818c0.355,0.954,0.765,1.922,1.604,2.524
		c0.713,0.511,0.738,0.886,0.111,1.432c-0.641,0.559-1.012,1.284-1.142,2.12c-0.065,0.424,0.083,0.843,0.595,0.642
		c0.804-0.315,1.727-0.434,2.297-1.217c0.605-0.829,0.896-1.65,0.201-2.588c-0.294-0.395-0.032-0.73,0.301-0.957
		c0.455-0.311,0.448,0.243,0.637,0.399C59.327,17.324,59.76,17.538,60.286,17.6z M53.993,47.798c-0.055,0.433,0.42,1.12,0.011,1.372
		c-0.517,0.316-0.952-0.386-1.427-0.639c-0.055-0.031-0.1-0.082-0.154-0.111c-0.373-0.191-0.779-0.854-1.022-0.605
		c-0.323,0.328,0.073,0.936,0.273,1.375c0.181,0.395,0.424,0.819,0.759,1.072c0.896,0.68,1.562,1.23,0.788,2.552
		c-0.44,0.75,0.11,2.021,0.755,2.329c0.598,0.285,1.045-0.812,1.354-1.479c0.081-0.172,0.143-0.351,0.23-0.518
		c0.375-0.714,0.399-0.298,0.461,0.134c0.048,0.325,0.203,0.381,0.488,0.153c0.765-0.606,1.213-1.188,0.368-2.128
		c-0.274-0.303-0.152-1.007-0.676-0.169c-0.146,0.231-0.49,0.337-0.744,0.503c-0.211-0.456-0.519-0.895-0.598-1.372
		c-0.05-0.297,0.359-0.495,0.705-0.425c0.684,0.138,1.17-0.439,0.812-0.746c-1.143-0.978-0.535-2.082-0.514-3.148
		c0.01-0.344,0.362-0.903-0.09-0.951c-0.455-0.047-1.163-0.229-1.471,0.508C54.001,46.229,53.917,46.966,53.993,47.798z
		 M73.598,16.729c0.111,0.938-0.074,1.392-1.053,0.698c-0.561-0.397-1.084-0.272-1.518,0.221c-0.15,0.173-0.337,0.369-0.09,0.649
		c0.375,0.425,2.287,1.034,2.816,0.769c0.297-0.147,0.417-0.631,0.881-0.21c0.48,0.436,0.157,0.851-0.023,1.195
		c-0.2,0.374-0.544,0.689-0.877,0.967c-0.302,0.251-0.268,0.319,0.071,0.459c1.259,0.517,1.939,1.546,2.403,2.763
		c0.092,0.236,0.295,0.498,0.561,0.413c0.203-0.065,0.42-0.305,0.494-0.514c0.422-1.208-0.104-2.248-0.709-3.221
		c-0.367-0.59-0.683-1.021,0.123-1.513c0.689-0.419,0.945-1.171,1.135-1.918c0.106-0.423,0.465-1.046,0.164-1.24
		c-0.417-0.268-0.582,0.453-0.905,0.688c-0.302,0.218-0.567,0.505-0.794,0.803c-0.238,0.311-0.565,0.326-0.842,0.24
		c-0.346-0.108-0.119-0.438-0.099-0.662c0.083-0.928-0.335-1.589-1.075-2.08c-0.262-0.172-0.662-0.506-0.8-0.426
		c-0.415,0.245-0.059,0.642-0.002,0.98C73.512,16.102,73.551,16.415,73.598,16.729z M68.658,55.939
		c-0.129-0.668-0.473-0.355-0.697-0.241c-0.898,0.458-2.086,1.368-2.757,0.845c-0.93-0.729-2.243-0.424-2.959-1.43
		c-0.146-0.205-0.529-0.453-0.834-0.239c-0.28,0.193-0.279,0.558-0.146,0.864c0.255,0.58-0.391,1.521,0.703,1.765
		c-0.759,0.323-0.368,1.707-1.62,1.692c-0.271-0.004-1.203,0.512-0.969,1.092c0.158,0.395,0.92,0.014,1.412-0.006
		c0.121-0.003,0.24-0.07,0.361-0.11c0.791-0.253,1.427-0.94,2.154-1.112c0.683-0.162,1.242,0.91,2.105,0.914
		c0.305,0.002,0.702,0.273,0.885-0.02c0.222-0.359-0.262-0.48-0.453-0.688c-1.006-1.089-1.013-1.109,0.539-1.464
		c0.832-0.189,1.576-0.471,2.022-1.248C68.527,56.34,68.596,56.096,68.658,55.939z M49.762,38.193
		c0.072,0.287,0.174,0.849,0.363,1.378c0.082,0.232,0.318,0.677,0.619,0.153c0.943-1.628,2.068-3.23,1.107-5.261
		c-0.402-0.853-0.123-1.163,0.77-0.98c0.471,0.095,0.473-0.318,0.602-0.558c0.166-0.307-0.08-0.361-0.317-0.488
		c-0.374-0.2-0.577-0.636-1.054-0.743c-0.547-0.126-1.028-0.327-0.827,0.601c0.169,0.785-0.218,0.684-0.696,0.364
		c-0.523-0.349-1.051-0.692-1.6-0.999c-0.168-0.094-0.241-0.523-0.528-0.236c-0.081,0.081-0.004,0.361,0.055,0.531
		c0.123,0.356,0.282,0.699,0.424,1.051c0.375,0.926,1.688,1.334,1.802,2.03C50.621,35.892,49.839,36.89,49.762,38.193z
		 M74.555,42.623c0.113-0.466,0.16-0.751-0.086-0.881c-0.096-0.051-0.326,0.137-0.489,0.228c-0.825,0.463-0.938,1.173-0.569,1.946
		c0.513,1.068,0.54,1.808-0.931,1.869c-0.343,0.016-0.608,0.325-0.655,0.613c-0.062,0.385,0.361,0.378,0.615,0.536
		c1.111,0.691,2.854,0.973,2.123,3.02c-0.072,0.206,0.209,0.812,0.609,0.861c0.535,0.069,0.477-0.497,0.544-0.81
		c0.19-0.881,0.125-1.777-0.179-2.62c-0.385-1.06-0.837-2.058,0.615-2.716c0.303-0.137,0.539-0.559,0.516-0.968
		c-0.03-0.537-0.087-1.103-0.873-0.665c-0.223,0.121-0.429,0.272-0.654,0.387c-0.205,0.103-0.514,0.306-0.627,0.232
		c-0.219-0.142-0.103-0.46-0.051-0.705C74.501,42.768,74.562,42.586,74.555,42.623z M61.216,53.078
		c-0.815,0.108-1.937,0.646-1.04-0.912c0.213-0.367-0.154-0.521-0.412-0.705c-0.408-0.295-0.775-0.646-1.185-0.941
		c-0.292-0.209-0.596-0.646-0.967-0.412c-0.39,0.248-0.162,0.807,0.021,1.021c1.015,1.188,0.4,1.982-0.547,2.742
		c-0.098,0.079-0.18,0.179-0.259,0.277c-0.149,0.189-0.386,0.409-0.249,0.64c0.154,0.253,0.479,0.16,0.685,0.038
		c0.429-0.257,0.867-0.526,1.229-0.867c0.422-0.4,0.555-0.325,0.694,0.211c0.192,0.727,0.47,1.434,0.712,2.149
		c0.082,0.242,0.206,0.54,0.479,0.503c0.343-0.045,0.157-0.386,0.178-0.596c0.052-0.564,0.022-1.141,0.12-1.697
		c0.123-0.704,0.355-1.275,1.166-0.473c0.305,0.303,0.738,0.474,1.117,0.701c0.169,0.102,0.355,0.152,0.511,0.003
		c0.167-0.159,0.024-0.327-0.017-0.503C63.149,52.898,62.022,53.213,61.216,53.078z M59.436,19.928
		c0.043,0.351-0.067,0.859,0.397,0.913c0.425,0.048,0.319-0.432,0.37-0.711c0.066-0.382,0.188-0.541,0.598-0.297
		c0.316,0.189,0.684,0.321,1.045,0.405c0.68,0.159,1.455-0.092,1.653-0.615c0.282-0.752-0.695-0.63-1.089-0.935
		c-0.193-0.151-0.445-0.232-0.676-0.327C60.125,17.7,59.418,18.183,59.436,19.928z M68.316,59.539
		c0.642-0.033,1.295,0.137,1.441-0.647c0.091-0.485,0.217-1.104-0.17-1.425c-0.605-0.509-0.932,0.301-1.385,0.51
		c-0.334,0.152-0.621,0.41-0.914,0.639c-0.141,0.111-0.246,0.266-0.367,0.398c0.191,0.141,0.365,0.339,0.58,0.409
		C67.791,59.518,68.111,59.514,68.316,59.539z M53.465,37.391c0.549-1.039,1.852-0.68,2.682-1.351c0.088-0.071,0.084-0.393,0-0.512
		c-0.356-0.497-0.876-0.809-1.436-0.446c-0.688,0.444-1.152,1.146-1.603,1.828C52.992,37.086,53.122,37.24,53.465,37.391z
		 M65.495,54.245c-0.356-0.368,0.027-1.228-0.53-1.377c-0.439-0.118-0.865,0.513-0.856,1.041c0.011,0.637,0.31,1.398,0.844,1.554
		C65.367,55.582,65.378,54.771,65.495,54.245z M63.619,50.785c-0.302,0.402-1.232-0.045-1.308,0.914
		c-0.016,0.197,0.089,0.459,0.262,0.423c0.617-0.132,1.132-0.493,1.484-1.011C64.231,50.853,63.913,50.871,63.619,50.785z
		 M57.929,45.595c0-0.399-0.276-0.544-0.587-0.63c-0.659-0.181-0.709,0.336-0.804,0.75c-0.062,0.269,0.029,0.501,0.37,0.485
		C57.354,46.18,57.799,46.14,57.929,45.595z M51.66,28.539c-0.212,0.198-0.483,0.458-0.521,0.842
		c-0.049,0.465,0.277,0.499,0.615,0.396c0.322-0.099,0.862-0.03,0.703-0.619C52.379,28.868,52.135,28.618,51.66,28.539z
		 M57.621,12.811c-0.014-0.246-0.087-0.42-0.33-0.349c-0.522,0.157-0.817,0.552-0.868,1.068c-0.022,0.243,0.296,0.532,0.48,0.439
		C57.354,13.74,57.483,13.235,57.621,12.811z M70.822,43.618c0.298-0.16,0.682-0.341,0.729-0.731
		c0.053-0.454-0.357-0.652-0.725-0.682c-0.461-0.034-0.384,0.399-0.397,0.674C70.416,43.155,70.324,43.516,70.822,43.618z
		 M74.352,51.511c-0.016-0.237-0.024-0.547-0.3-0.587c-0.449-0.066-0.409,0.358-0.489,0.632c-0.053,0.177-0.057,0.438,0.143,0.466
		C74.035,52.064,74.295,51.893,74.352,51.511z M69.968,33.936c0.147-0.32-0.163-0.303-0.285-0.307
		c-0.339-0.012-0.801-0.233-0.953,0.252c-0.079,0.252,0.233,0.481,0.47,0.506C69.518,34.42,69.812,34.26,69.968,33.936z
		 M58.449,11.382c0.306-0.116,0.52-0.32,0.544-0.658c0.005-0.051-0.187-0.183-0.248-0.162c-0.289,0.1-0.621,0.202-0.574,0.608
		C58.18,11.248,58.346,11.309,58.449,11.382z M72.783,21.983c-0.262-0.027-0.385,0.111-0.315,0.316
		c0.098,0.292,0.306,0.573,0.626,0.574c0.234,0,0.492-0.264,0.429-0.49C73.433,22.062,73.049,22.065,72.783,21.983z M59.594,35.735
		c0.267-0.015,0.508-0.12,0.59-0.372c0.049-0.146-0.048-0.339-0.08-0.511c-0.195,0.146-0.415,0.267-0.578,0.442
		C59.407,35.422,59.35,35.621,59.594,35.735z M79.217,33.005c-0.031-0.106-0.062-0.217-0.093-0.327
		c-0.04,0.083-0.114,0.167-0.115,0.251c-0.002,0.11,0.051,0.224,0.08,0.334C79.129,33.178,79.174,33.094,79.217,33.005z
		 M71.742,30.943c0.104-0.037,0.271-0.051,0.293-0.118c0.031-0.083-0.025-0.271-0.098-0.304c-0.174-0.083-0.338,0.009-0.382,0.197
		C71.541,30.775,71.676,30.867,71.742,30.943z M70.343,21.794c0.097-0.058,0.192-0.114,0.29-0.171
		c-0.091-0.072-0.174-0.192-0.27-0.203c-0.143-0.015-0.357-0.005-0.318,0.227C70.056,21.711,70.238,21.746,70.343,21.794z
		 M73.031,55.355c0.107-0.137,0.087-0.268-0.07-0.291c-0.092-0.015-0.246,0.062-0.293,0.145c-0.041,0.067,0.035,0.201,0.059,0.307
		C72.83,55.461,72.936,55.406,73.031,55.355z M64.208,19.755c-0.035,0.107-0.117,0.229-0.09,0.318
		c0.019,0.064,0.186,0.128,0.279,0.119c0.16-0.015,0.202-0.141,0.094-0.259C64.417,19.855,64.303,19.814,64.208,19.755z
		 M63.18,14.293c-0.107-0.043-0.202-0.093-0.303-0.11c-0.035-0.007-0.084,0.069-0.126,0.107c0.073,0.06,0.145,0.159,0.224,0.165
		C63.035,14.461,63.108,14.354,63.18,14.293z M57.708,55.502l0.084,0.061l0.016-0.094L57.708,55.502z M74.193,28.381l-0.062,0.091
		l0.094,0.016L74.193,28.381z M50.532,20.138l0.059-0.085l-0.087-0.015L50.532,20.138z"/>
	<path fill-rule="evenodd" clip-rule="evenodd" d="M72.421,10.745C72.308,11.006,72.637,11.5,72,11.521
		c-0.66,0.024-0.919-0.488-0.91-0.919c0.006-0.315,0.365-0.862,0.81-0.845C72.439,9.776,72.48,10.276,72.421,10.745z"/>
	<path fill-rule="evenodd" clip-rule="evenodd" d="M67.957,17.683c0,0.298,0,0.597,0,0.895c-0.432-0.002-0.852,0.846-1.134,0.312
		c-0.257-0.482-1.024-1.058-0.382-1.789c0.18-0.207,0.363-0.533,0.701-0.099c0.224,0.286,0.557,0.487,0.84,0.725L67.957,17.683z"/>
	<polygon fill-rule="evenodd" clip-rule="evenodd" points="67.982,17.727 67.934,17.597 67.957,17.683 	"/>
	<path fill-rule="evenodd" clip-rule="evenodd" d="M75.104,36.341c-0.282,0.368,0.019,1.167-0.747,1.173
		c-0.289,0.002-0.688-0.143-0.752-0.662c-0.095-0.777,0.639-0.795,0.972-1.158C74.647,35.618,75.048,35.988,75.104,36.341z"/>
	<path fill-rule="evenodd" clip-rule="evenodd" d="M52.336,24.479c-0.067-0.103-0.176-0.197-0.197-0.308
		c-0.08-0.415-0.666-0.896,0.123-1.217c0.404-0.165,0.587,0.249,0.693,0.435c0.392,0.679,0.032,1.003-0.661,1.075L52.336,24.479z"/>
	<polygon fill-rule="evenodd" clip-rule="evenodd" points="53.948,26.235 53.788,26.302 53.901,26.232 	"/>
	<polygon fill-rule="evenodd" clip-rule="evenodd" points="52.294,24.463 52.238,24.503 52.336,24.479 	"/>
	<path fill-rule="evenodd" clip-rule="evenodd" d="M56.967,8.14c-0.025-0.175-0.113-0.372-0.064-0.524
		c0.127-0.382,0.127-0.93,0.707-0.924c0.27,0.004,0.29,0.352,0.357,0.576c0.195,0.637-0.274,0.693-0.7,0.791
		c-0.119,0.026-0.232,0.075-0.348,0.113L56.967,8.14z"/>
	<polygon fill-rule="evenodd" clip-rule="evenodd" points="56.919,8.172 56.821,8.141 56.967,8.14 	"/>
	<path fill-rule="evenodd" clip-rule="evenodd" d="M63.639,30.998c0.455,0.111,0.944-0.938,1.353,0.008
		c0.223,0.518,0.729,1.098-0.002,1.638c-0.13,0.097-0.266,0.185-0.398,0.277c-0.193-0.711-1.295-1.007-0.898-1.983L63.639,30.998z"
		/>
	<path fill-rule="evenodd" clip-rule="evenodd" d="M58.036,32.186c-0.456,0.145-0.332,1.285-1.299,0.648
		c-0.732-0.479-1.139-0.859-0.502-1.661l-0.04,0.014c0.63,0.343,1.542,0.185,1.875,1.057L58.036,32.186z"/>
	<path fill-rule="evenodd" clip-rule="evenodd" d="M56.235,31.173c-0.053,0.021-0.105,0.042-0.16,0.063
		c0.039-0.016,0.08-0.033,0.12-0.05L56.235,31.173z"/>
	<path fill-rule="evenodd" clip-rule="evenodd" d="M70.139,47.275c-0.37,0.339-0.021,1.281-0.806,1.176
		c-0.468-0.064-1.172-0.09-1.347-0.789c-0.04-0.166,0.017-0.355,0.029-0.535c0.536,0.145,1.121-0.639,1.646,0.098
		c0.077,0.107,0.35,0.076,0.531,0.109L70.139,47.275z"/>
	<polygon fill-rule="evenodd" clip-rule="evenodd" points="59.278,24.336 59.12,24.402 59.231,24.334 	"/>
	<path fill-rule="evenodd" clip-rule="evenodd" d="M64.44,10.755c-0.105,0.38,0.109,0.996-0.408,1.07
		c-0.453,0.066-0.982-0.182-1.308-0.572c-0.198-0.237-0.216-0.589,0.149-0.771c0.611-0.305,1.168-0.277,1.604,0.322L64.44,10.755z"
		/>
	<path fill-rule="evenodd" clip-rule="evenodd" d="M75.617,30.134c-0.033-0.022-0.096-0.064-0.096-0.064
		c-0.074,0.097-0.055,0.108,0.051,0.029L75.617,30.134z"/>
	<path fill-rule="evenodd" clip-rule="evenodd" d="M64.254,57.356c-0.066,0.272-0.27,0.511-0.504,0.419
		c-0.301-0.116-0.836-0.001-0.82-0.56c0.008-0.267,0.206-0.503,0.473-0.501C63.813,56.72,64.067,57.017,64.254,57.356z"/>
	<path fill-rule="evenodd" clip-rule="evenodd" d="M62.526,45.756c-0.198,0.599,0.604,1.652-0.869,1.693
		c-0.461,0.012-0.682-0.053-0.861-0.402c-0.234-0.463,0.35-0.387,0.432-0.621c0.24-0.684,1.039-0.122,1.344-0.629L62.526,45.756z"/>
	<path fill-rule="evenodd" clip-rule="evenodd" d="M68.671,38.921c-0.132,0.396-0.262,0.793-0.392,1.189
		c-0.816-0.083-1.778,0.114-2.018-1.062l-0.008,0.05C67.039,38.744,67.836,38.58,68.671,38.921z"/>
	<path fill-rule="evenodd" clip-rule="evenodd" d="M68.223,40.049c0.15,0.152,0.302,0.304,0.455,0.455
		C68.524,40.353,68.373,40.201,68.223,40.049z"/>
	<polygon fill-rule="evenodd" clip-rule="evenodd" points="66.262,39.049 66.275,38.966 66.254,39.099 	"/>
	<path fill-rule="evenodd" clip-rule="evenodd" d="M53.798,16.051c-0.079,0.306,0.057,0.722-0.423,0.825
		C53.308,16.494,53.482,16.236,53.798,16.051z"/>
</g>
</svg>
