<?xml version="1.0" encoding="utf-8"?>
<!-- Generator: Adobe Illustrator 16.0.4, SVG Export Plug-In . SVG Version: 6.00 Build 0)  -->
<!DOCTYPE svg PUBLIC "-//W3C//DTD SVG 1.1//EN" "http://www.w3.org/Graphics/SVG/1.1/DTD/svg11.dtd">
<svg version="1.1" id="Layer_0703" xmlns="http://www.w3.org/2000/svg" xmlns:xlink="http://www.w3.org/1999/xlink" x="0px" y="0px"
	 width="128px" height="128px" viewBox="0 0 128 128" enable-background="new 0 0 128 128" xml:space="preserve">
<g>
	<path fill-rule="evenodd" clip-rule="evenodd" d="M71.524,122.134c0.031,0.242,0.071,0.483,0.089,0.727
		c0.04,0.532,0.703,1.2,0.073,1.553c-0.673,0.374-0.84-0.544-1.21-0.911c-0.217-0.216-0.42-0.639-0.703-0.489
		c-0.292,0.152-0.157,0.61-0.057,0.908c0.183,0.538,0.441,1.051,0.645,1.585c0.153,0.401,0.198,0.825-0.3,1.017
		c-0.457,0.176-0.793-0.082-0.994-0.47c-0.224-0.432-0.394-0.894-0.588-1.341c-0.178-0.412-0.216-1.157-0.671-1.061
		c-0.293,0.062-0.062,0.883,0.032,1.358c0.064,0.319,0.192,0.628,0.223,0.949c0.041,0.423-0.062,0.839-0.518,0.993
		c-0.488,0.166-0.714-0.202-0.943-0.549c-0.595-0.899-0.207-2.837-1.272-2.731c-0.865,0.084,0.09,1.876-0.202,2.885
		c-0.067,0.234-0.094,0.483-0.181,0.709c-0.146,0.377-0.289,0.787-0.834,0.687c-0.41-0.074-0.457-0.422-0.5-0.731
		c-0.13-0.971-0.222-1.946-0.351-2.917c-0.036-0.271,0.078-0.676-0.341-0.712c-0.098-0.007-0.267,0.368-0.339,0.588
		c-0.282,0.851-0.529,1.713-0.808,2.564c-0.108,0.328-0.338,0.608-0.71,0.438c-0.169-0.08-0.326-0.379-0.333-0.583
		c-0.025-0.815,0.028-1.632,0.013-2.446c-0.003-0.198-0.154-0.395-0.237-0.593c-0.17,0.156-0.346,0.307-0.509,0.469
		c-0.055,0.055-0.063,0.151-0.111,0.217c-0.55,0.754-0.89,2.445-1.623,2.108c-1.251-0.578,0.226-1.753,0.2-2.712
		c-0.005-0.209,0.2-0.445-0.055-0.601c-0.047-0.028-0.256,0.173-0.365,0.293c-0.108,0.119-0.16,0.294-0.276,0.401
		c-0.426,0.4-0.666,1.369-1.439,0.863c-0.526-0.345-0.098-1.063,0.09-1.582c0.138-0.378,0.406-0.705,0.593-1.066
		c0.112-0.218,0.147-0.478-0.129-0.587c-0.095-0.037-0.272,0.111-0.399,0.195c-0.062,0.043-0.084,0.139-0.138,0.199
		c-0.6,0.662-0.764,2.234-1.807,1.81c-0.709-0.289,0.529-1.544,0.288-2.446c0.065-0.017,0.14-0.021,0.192-0.057
		c0.031-0.021,0.027-0.093,0.037-0.142c-0.064,0.078-0.127,0.156-0.192,0.236c-0.627-0.024-1.819,0.529-1.021-0.97
		c0.305-0.574,0.669-1.121,1.034-1.662c1.501-2.221,1.096-4.31-0.378-6.361c-1.305-1.816-3.051-3.183-4.729-4.599
		c-1.991-1.681-4.079-3.25-6.178-4.797c-2.989-2.203-5.577-4.803-7.724-7.814c-3.955-5.552-4.92-11.724-3.034-18.182
		c0.943-3.224,3.055-5.942,5.503-8.293c3.366-3.233,7.196-5.886,10.923-8.672c2.676-2,5.261-4.07,7.157-6.953
		c1.601-2.431,2.115-4.893,1.501-7.668c-0.087-0.391-0.359-0.923,0.007-1.14c0.547-0.323,0.789,0.343,1.109,0.641
		c1.539,1.43,2.249,3.383,3.229,5.167c0.151,0.274,0.229,0.729,0.61,0.632c0.169-0.042,0.273-0.52,0.329-0.814
		c0.512-2.728,2.176-4.903,3.47-7.254c0.146-0.267,0.336-0.629,0.729-0.551c0.401,0.08,0.362,0.471,0.383,0.774
		c0.091,1.386,0.16,2.772,0.259,4.157c0.016,0.23,0.14,0.454,0.212,0.68c0.113-0.207,0.273-0.402,0.329-0.623
		c0.371-1.453,1.145-2.694,2.017-3.882c0.324-0.441,0.545-1.299,1.148-1.073c0.71,0.266,0.366,1.136,0.274,1.708
		c-0.303,1.876-0.256,3.726-0.028,5.613c0.349,2.879,1.729,5.262,3.451,7.443c2.039,2.581,4.737,4.455,7.374,6.388
		c2.821,2.066,5.697,4.059,8.163,6.591c4.052,4.158,5.436,9.157,5.043,14.809c-0.284,4.108-1.69,7.812-4.027,11.144
		c-1.69,2.41-3.92,4.327-6.192,6.19c-2.591,2.123-5.444,3.89-8.049,5.98c-1.831,1.469-3.596,3.054-4.812,5.151
		c-1.181,2.035-1.201,3.255,0.118,5.174c0.368,0.536,0.705,1.101,1.003,1.679c0.199,0.388,0.699,0.887,0.05,1.214
		c-0.254,0.129-0.738-0.199-1.117-0.32c-0.019-0.067-0.023-0.146-0.061-0.2c-0.021-0.029-0.141-0.033-0.142-0.029
		c-0.037,0.142,0.046,0.207,0.24,0.19c0.289,0.827,0.601,1.649,0.854,2.487c0.057,0.188-0.086,0.438-0.136,0.658
		c-0.224-0.057-0.507-0.047-0.661-0.183c-0.534-0.471-1.022-0.991-1.529-1.493c-0.063-0.2-0.13-0.401-0.195-0.6
		c-0.052,0.046-0.146,0.088-0.151,0.14C71.195,121.87,71.267,122.064,71.524,122.134z M61.725,104.957l-0.07-0.093l0.094,0.069
		l0.061,0.094L61.725,104.957z M84.3,99.496c0.284-0.036,0.414-0.231,0.493-0.479c5.133-5.47,8.127-11.737,6.781-19.412
		c-0.586-3.351-1.759-6.558-4.337-9.017c-0.106-0.638-0.356-1.182-0.98-1.476c-0.006-0.322-0.194-0.456-0.49-0.479
		c-0.169-0.172-0.336-0.344-0.505-0.516l-0.057-0.103l0.094,0.064c0.168,0.173,0.335,0.346,0.504,0.518
		c0.059,0.266,0.201,0.447,0.487,0.482c0.117,0.631,0.374,1.172,0.985,1.474c0.059,1.019,0.655,1.825,1.065,2.708
		c2.882,6.204,2.707,12.438,0.268,18.734c-0.977,2.517-2.748,4.584-3.775,7.06c-0.271,0.05-0.411,0.234-0.498,0.477
		c-0.171,0.174-0.341,0.348-0.512,0.521l-0.084,0.065l0.051-0.1C83.96,99.846,84.13,99.671,84.3,99.496z M78.408,102.448
		c0.164-0.165,0.329-0.329,0.494-0.494c0.164-0.161,0.331-0.321,0.495-0.482c2.26-2.268,3.915-4.942,5.207-7.848
		c3.321-7.466,2.93-14.836-0.65-22.099c-0.532-1.078-1.087-2.168-2.14-2.871c-0.025-0.393-0.086-0.77-0.456-1.005
		c-0.176-0.168-0.35-0.337-0.523-0.505c-0.01-0.39-0.168-0.71-0.452-0.973c-0.168-0.17-0.337-0.342-0.504-0.512l-0.083-0.103
		l0.1,0.085c0.174,0.166,0.348,0.33,0.522,0.496c0.045,0.372,0.049,0.765,0.455,0.966c0.175,0.169,0.351,0.337,0.524,0.507
		c0.152,0.335,0.304,0.672,0.457,1.008c0.309,0.751,0.604,1.507,0.928,2.252c4.285,9.896,3.244,19.363-2.31,28.458
		c-0.424,0.695-0.958,1.326-1.037,2.181c-0.166,0.159-0.334,0.319-0.501,0.479c-0.165,0.163-0.329,0.325-0.494,0.49
		c-0.034,0.037-0.068,0.076-0.104,0.114C78.36,102.545,78.384,102.496,78.408,102.448z M45.028,100.99l0.077,0.096l-0.092-0.08
		c-0.058-0.042-0.118-0.084-0.176-0.125C44.9,100.917,44.965,100.953,45.028,100.99z M53.868,64.646l0.093-0.087l-0.071,0.113
		l-0.089,0.068L53.868,64.646z M48.957,64.666l0.093-0.076l-0.085,0.086l-0.094,0.094L48.957,64.666z M42.569,68.08
		c0.166-0.16,0.329-0.319,0.494-0.48c0.159-0.157,0.317-0.313,0.477-0.472l0.09-0.071l-0.068,0.094
		c-0.158,0.158-0.317,0.315-0.475,0.475c-0.161,0.162-0.322,0.327-0.482,0.489c-0.171,0.173-0.343,0.345-0.515,0.516
		c-0.25,0.28-0.504,0.559-0.478,0.974c-0.72,0.17-0.986,0.82-1.33,1.341c-2.035,3.083-3.577,6.383-3.864,10.118
		c-0.505,6.576,1.495,12.278,6.158,16.998c-0.025,0.424,0.153,0.749,0.48,1.003c0.149,0.17,0.287,0.351,0.448,0.508
		c0.138,0.137,0.285,0.375,0.496,0.141c0.029-0.032-0.189-0.369-0.352-0.469c-0.176-0.107-0.419-0.102-0.633-0.145
		c0.077-0.439,0.034-0.83-0.438-1.038c-0.113-0.939-0.797-1.58-1.223-2.358c-3.497-6.384-5.2-12.967-2.485-20.153
		c0.78-2.061,1.711-4.026,2.71-5.975c0.472-0.176,0.372-0.628,0.475-0.982C42.226,68.421,42.398,68.25,42.569,68.08z M47.983,66.178
		c-0.437,0.191-0.39,0.608-0.456,0.974c-0.283,0.046-0.431,0.238-0.533,0.482c-1.437,0.986-1.863,2.639-2.614,4.058
		c-3.624,6.846-3.736,13.95-1.033,21.054c0.929,2.441,1.962,5.015,4.15,6.777c0.125,0.632,0.367,1.183,0.999,1.47
		c0.123,0.293,0.209,0.608,0.38,0.867c0.099,0.148,0.25,0.438,0.525,0.215c0.018-0.013-0.127-0.277-0.234-0.388
		c-0.223-0.232-0.473-0.439-0.711-0.656c-0.126-0.629-0.294-1.229-0.982-1.486c0.096-0.786-0.284-1.478-0.662-2.057
		c-1.918-2.938-2.63-6.309-3.353-9.62c-1.352-6.202,0.008-12.11,2.544-17.801c0.36-0.811,0.927-1.534,0.953-2.472
		c0.305-0.021,0.419-0.254,0.532-0.485c0.162-0.317,0.322-0.635,0.484-0.953l0.078-0.088L47.983,66.178z M67.566,63.746
		c-0.069-0.199,0.265-0.569-0.247-0.579c0.097,0.181,0.193,0.363,0.29,0.544c0.11,0.353,0.086,0.779,0.521,0.955
		c0.196,3.496,0.984,6.918,1.19,10.426c0.555,9.482,0.559,18.894-2.331,28.079c-0.082,0.265-0.37,0.609,0.048,0.775
		c0.086,0.034,0.447-0.426,0.564-0.706c1.187-2.858,2.302-5.747,2.854-8.806c1.181-6.549,1.316-13.132,0.486-19.73
		c-0.437-3.477-1.139-6.887-2.85-10.004C67.993,64.34,68.148,63.839,67.566,63.746z M73.018,103.928
		c0.154-0.335,0.31-0.669,0.465-1.003c0.361-0.231,0.435-0.604,0.479-0.988c2.701-2.354,3.688-5.715,4.755-8.873
		c1.91-5.653,1.976-11.519,0.541-17.326c-0.938-3.792-2.365-7.406-4.766-10.561l-0.085-0.104l0.097,0.09
		c1.488,3.188,2.548,6.5,3.261,9.957c1.088,5.28,1.103,10.485,0.003,15.78c-0.804,3.874-2.202,7.487-3.766,11.073
		c-0.16,0.331-0.318,0.66-0.479,0.99c-0.308,0.263-0.412,0.62-0.474,0.998l-0.165,0.082L73.018,103.928z M60.29,64.724
		c-0.867,0.497-1.077,1.411-1.302,2.25c-1.078,4.008-1.901,8.069-2.131,12.219c-0.293,5.302-0.04,10.58,1.114,15.781
		c0.613,2.764,1.031,5.605,2.791,7.972c0.136,0.16-0.196,0.603,0.294,0.505c0.052-0.009-0.091-0.39-0.331-0.474
		c-0.03-0.405-0.005-0.823-0.099-1.214c-1.193-5.004-1.978-10.05-2.169-15.211c-0.199-5.397,0.022-10.759,0.725-16.101
		c0.255-1.934,0.922-3.802,1.069-5.763c0.091-0.13,0.209-0.25,0.265-0.395c0.056-0.142,0.08-0.438,0.06-0.443
		c-0.439-0.113-0.18,0.256-0.244,0.4C60.271,64.387,60.299,64.563,60.29,64.724z M54.372,102.459
		c0.023,0.062,0.036,0.133,0.074,0.184c0.019,0.028,0.083,0.026,0.125,0.037c-0.079-0.062-0.156-0.123-0.234-0.184
		c-1.12-2.786-2.539-5.492-3.301-8.372c-2.2-8.297-2.239-16.589,0.882-24.738c0.404-1.054,0.995-2.072,0.928-3.267
		c0.061-0.012,0.126-0.014,0.179-0.04c0.033-0.017,0.045-0.069,0.067-0.106c-0.068,0.063-0.137,0.127-0.206,0.189
		c-1.315,1.962-2.239,4.092-3.092,6.301c-3.408,8.823-2.614,17.366,1.593,25.651C52.163,99.644,52.81,101.407,54.372,102.459z"/>
	<path fill-rule="evenodd" clip-rule="evenodd" d="M72.669,28.178c-0.01,3.767-0.41,7.496-0.88,11.229
		c-0.219,1.729-1.516,2.645-2.306,3.939c-0.127,0.208-0.392,0.399-0.616,0.246c-0.159-0.108-0.257-0.4-0.269-0.617
		c-0.052-0.979-0.043-1.962-0.103-2.941c-0.017-0.259,0.209-0.705-0.27-0.748c-0.17-0.016-0.412,0.247-0.545,0.437
		c-1.539,2.206-3.096,4.4-4.15,6.902c-0.657,1.56-0.873,1.576-1.808,0.276c-0.529-0.736-0.982-1.519-1.067-2.438
		c-0.344-3.767-1.562-7.333-2.49-10.966c-0.142-0.554-0.3-1.103-0.423-1.661c-0.069-0.31-0.097-0.689,0.268-0.802
		c0.147-0.045,0.457,0.175,0.578,0.353c0.639,0.944,1.234,1.919,1.863,2.872c0.205,0.312,0.167,0.807,0.663,0.905
		c0.04-0.403,0.11-0.805,0.117-1.208c0.1-6.073,1.263-12.004,2.399-17.938c0.076-0.397,0.194-0.798,0.37-1.16
		c0.111-0.229,0.117-0.759,0.606-0.486c0.174,0.098,0.33,0.392,0.334,0.599c0.009,0.565-0.085,1.13-0.108,1.696
		c-0.164,4.002-0.323,8.005-0.476,12.007c-0.012,0.324,0.032,0.651,0.05,0.977c0.422-0.209,0.437-0.672,0.485-1.014
		c0.324-2.265,0.386-4.557,0.582-6.833c0.427-4.919,1.538-9.663,3.125-14.307c0.821-2.402,2.101-4.597,3.451-6.741
		c0.24-0.38,0.492-0.98,1.094-0.605c0.396,0.247,0.247,0.735,0.113,1.126c-0.957,2.796-1.384,5.7-1.742,8.617
		c-0.425,3.481-0.949,6.957-1.221,10.451c-0.311,3.988-0.879,7.967-0.708,11.985c0.012,0.291,0.124,0.579,0.189,0.868
		c0.314-0.231,0.227-0.591,0.273-0.901c0.439-2.904,0.871-5.81,1.302-8.714c0.049-0.323,0.062-0.654,0.135-0.971
		c0.082-0.363,0.021-0.937,0.615-0.833c0.497,0.088,0.44,0.625,0.457,1.004c0.058,1.307,0.08,2.615,0.107,3.923
		C72.678,27.197,72.669,27.688,72.669,28.178z"/>
</g>
</svg>
