<?xml version="1.0" encoding="utf-8"?>
<!-- Generator: Adobe Illustrator 16.0.4, SVG Export Plug-In . SVG Version: 6.00 Build 0)  -->
<!DOCTYPE svg PUBLIC "-//W3C//DTD SVG 1.1//EN" "http://www.w3.org/Graphics/SVG/1.1/DTD/svg11.dtd">
<svg version="1.1" id="Layer_0706" xmlns="http://www.w3.org/2000/svg" xmlns:xlink="http://www.w3.org/1999/xlink" x="0px" y="0px"
	 width="128px" height="128px" viewBox="0 0 128 128" enable-background="new 0 0 128 128" xml:space="preserve">
<path fill-rule="evenodd" clip-rule="evenodd" d="M100.041,17.884c2.062-0.559,1.883-0.521,2.367,1.81
	c0.211,1.012,0.75,1.701-0.261,2.59c-0.317,0.278-0.261,1.665-0.198,1.721c1.235,1.081,0.332,2.554,0.773,3.743
	c-0.977,0.059-1.497,0.984-2.373,1.256c-0.215,0.067-0.26,0.414-0.144,0.669c0.112,0.246,0.386,0.47,0.577,0.326
	c0.807-0.609,2.209-0.757,1.895-2.294c1.292-1.088,2.707-1.579,4.358-0.879c0.769,0.326,1.458,0.992,1.202,1.726
	c-0.408,1.175-0.137,2.551-1.09,3.56c-0.879,0.93-1.153,2.119-1.293,3.348c-0.209,0.158-0.417,0.315-0.626,0.473
	c-0.238,0.021-0.522,0.006-0.589,0.294c-0.021,0.092,0.188,0.344,0.274,0.337c0.512-0.045,0.394-0.37,0.253-0.684
	c0.213-0.155,0.426-0.311,0.637-0.466c0.482-0.152,0.981-0.264,1.441-0.465c0.981-0.429,1.966-1.224,2.867,0.09
	c0.923,1.344,0.714,2.853-0.502,4.067c-0.416,0.416-0.84,0.836-1.178,1.313c-0.262,0.369-0.246,0.876,0.192,1.089
	c0.274,0.134,0.548-0.123,0.755-0.466c1.277-2.125,1.283-2.038,3.602-1.68c0.625,0.096,1.597-0.224,1.971-0.698
	c1.005-1.278,2.275-0.316,3.357-0.487c0.875-0.138,0.626,1.091,0.289,1.807c-0.137,0.222-0.272,0.443-0.409,0.664
	c-0.151,0.003-0.43-0.251-0.372,0.181c0.104-0.084,0.207-0.168,0.312-0.253c0.141-0.217,0.281-0.435,0.421-0.652
	c1.441,0.09,2.887,0.136,4.322,0.285c0.936,0.097,1.965,0.419,2.227,1.371c0.261,0.945-0.834,1.32-1.362,1.933
	c-0.304,0.353-0.661,0.515-1.067,0.636c-0.732,0.219-1.729,0.21-2.137,0.697c-0.541,0.645,0.576,1.213,0.695,1.946
	c0.174,1.06-0.207,1.589-1.316,1.726c-0.462,0.057-0.816-0.14-1.215-0.283c-0.535-0.192-1.403-0.601-1.589-0.405
	c-0.524,0.554,0.417,0.852,0.578,1.36c0.165,0.524,0.243,0.9-0.066,1.414c-0.976,1.623-0.828,2.031,0.874,2.162
	c1.285,0.099,1.453,0.836,1.055,1.706c-0.343,0.75-0.436,1.641-1.134,2.241c-0.633,0.543-1.099,1.092,0.22,1.479
	c0.416,0.122,0.207,0.704-0.043,1.101c-0.64,1.016-1.648,1.605-2.557,2.314l-0.08-0.118l0.105,0.087
	c0,1.072-0.973,1.424-1.539,2.078c-0.311-0.134-0.616-0.287-0.936-0.398c-0.332-0.116-0.727-0.13-0.771,0.301
	c-0.043,0.412,0.346,0.542,0.703,0.548c0.399,0.006,0.873,0.099,0.965-0.505c2.672,0.349,3.025,0.798,2.777,3.469
	c-0.039,0.426,0.069,0.832,0.336,1.182c-0.27-0.047-0.455-0.031-0.226,0.299c0.06-0.116,0.12-0.232,0.181-0.348
	c0.846,0.083,1.621,0.471,2.431,0.631c1.052,0.207,1.487,0.759,1.45,1.73c-0.047,1.271-0.793,2.192-1.963,2.287
	c-0.848,0.068-1.695-0.049-2.438,0.511c-0.158,0.119-0.3,0.19-0.235,0.386c0.088,0.268,0.363,0.456,0.562,0.339
	c1.87-1.093,3.178-0.168,4.449,1.127c0.711,0.726,1.955,0.598,2.587,1.61c0.229,0.368,0.886,0.506,0.728,1.136
	c-0.12,0.483-0.57,0.565-0.989,0.668c-0.264,0.064-0.577-0.181-0.796,0.133c0.248,0.034,0.551-0.011,0.732,0.116
	c1.359,0.958,2.987,1.639,3.451,3.512c0.286,1.152,0.082,1.611-1.08,1.673c-0.931,0.049-1.87-0.024-2.687-0.589
	c-0.857-0.593-1.232-0.44-1.567,0.649c-0.502,1.636-1.379,1.714-2.436,0.37c-0.312-0.396-0.521-0.871-0.79-1.303
	c-0.082-0.131-0.214-0.34-0.31-0.334c-0.365,0.025-0.208,0.34-0.241,0.55c-0.149,0.944-0.269,1.881-1.624,1.773
	c-0.207-0.017-0.449,0.451-0.678,0.693c-0.973,1.036-1.664,1.095-2.721,0.174c-0.906-0.79-1.252-2.528-3.168-1.504
	c-0.482,0.258-0.973-0.813-1-1.515c-0.034-0.847,0.039-1.697,0.066-2.547c0.069-0.014,0.143-0.016,0.207-0.041
	c0.038-0.016,0.062-0.065,0.094-0.1c-0.079,0.068-0.158,0.137-0.236,0.205c-1.691,0.744-2.682,0.438-2.404-0.848
	c0.367-1.699-0.461-3.595,0.846-5.131c0.121-0.143,0.016-0.479,0.016-0.726c0.549,0.065,0.925-0.343,1.387-0.514
	c0.211-0.077,0.547-0.236,0.289-0.519c-0.455-0.496-1.055-0.992-1.724-0.768c-0.509,0.17-0.011,0.72,0.007,1.101
	c0.011,0.249,0.06,0.497,0.092,0.746c-1.081-0.04-1.858,0.127-2,1.522c-0.142,1.402-1.16,1.91-2.515,1.428
	c-0.632-0.226-1.212-0.631-1.765-1.025c-0.523-0.373-0.891-0.366-1.254,0.192c-0.667,1.022-1.438,1.055-2.318,0.229
	c-0.152-0.143-0.6-0.235-0.687-0.143c-0.94,1.014-2.226,0.661-3.355,0.904c-0.349,0.075-0.681,0.289-0.622,0.647
	c0.046,0.287,0.402,0.226,0.639,0.118c1.418-0.646,2.412-0.406,3.518,0.891c0.856,1.001,2.55,1.088,3.664,1.982
	c0.53,0.426,0.904,1.123,0.203,1.447c-1.513,0.699-0.793,0.971,0.112,1.359c1.276,0.548,1.902,1.615,2.328,2.875
	c0.362,1.068,0.14,1.576-0.941,1.604c-1.11,0.027-2.169-0.271-3.146-0.832c-0.568-0.328-0.992-0.193-1.1,0.486
	c-0.105,0.669-0.029,1.558-0.846,1.676c-0.912,0.131-1.574-0.472-1.9-1.371c-0.086-0.234-0.24-0.447-0.385-0.656
	c-0.087-0.127-0.207-0.313-0.322-0.322c-0.319-0.023-0.336,0.249-0.393,0.494c-0.186,0.82,0.13,2.121-1.525,1.59
	c-0.143-0.046-0.461,0.425-0.687,0.667c-1.167,1.255-1.868,1.271-2.997-0.001c-0.395-0.444-0.719-0.953-1.051-1.448
	c-0.238-0.355-0.43-0.261-0.809-0.146c-1.477,0.447-2.021,0.092-2.096-1.273c-0.022-0.418,0.141-0.844,0.152-1.268
	c0.008-0.285,0.142-0.807-0.397-0.707c-2.449,0.451-1.486-1.15-1.783-2.412c-0.402-1.706,0.186-2.879,0.841-4.21
	c0.148-0.3,0.168-0.624,0.551-0.768c0.444-0.167,1.176-0.251,1.039-0.831c-0.069-0.291-0.854-0.436-1.33-0.604
	c-0.881-0.313-1.756-0.666-2.663-0.875c-1.673-0.386-2.278,0.009-2.366,1.654c-0.074,1.413,0.443,2.906-1.329,3.787
	c-0.515,0.255-0.119,1.101-0.015,1.68c0.858,4.722-1.747,8.813-6.368,10.214c-0.931,0.282-1.169-0.137-1.571-0.731
	c-1.613-2.395-3.311-4.725-5.588-6.556c-0.171-0.166-0.341-0.332-0.511-0.498l-0.087-0.104l0.118,0.081
	c0.067,0.284,0.256,0.43,0.537,0.467c0.561,1.979,2.001,3.475,2.886,5.275c0.224,0.455,0.5,0.885,0.725,1.339
	c0.85,1.713,0.78,2.024-0.985,2.506c-1.975,0.538-3.807,1.407-5.668,2.208c-1.454,0.625-2.709,0.699-3.921-0.553
	c-0.63-0.65-1.336-1.316-2.291-1.543c-0.31-0.386-0.694-0.54-1.181-0.382c0.113-0.233,0.234-0.471-0.217-0.392
	c0.097,0.111,0.194,0.223,0.291,0.334c0.306,0.373,0.677,0.547,1.16,0.377c0.065,1.219,1,1.867,1.741,2.637
	c0.565,0.584,0.555,0.879-0.301,1.189c-3.185,1.157-6.375,2.314-9.495,3.635c-1.515,0.641-1.765-1.057-2.8-1.18
	c-0.181-0.19-0.361-0.381-0.542-0.57l-0.091-0.127L44.3,99.92c0.075,0.291,0.24,0.496,0.542,0.571
	c0.136,0.394,0.212,0.823,0.422,1.173c0.36,0.603,0.187,0.894-0.426,1.12c-2.783,1.029-5.571,2.049-8.329,3.146
	c-0.706,0.28-1.118-0.046-1.619-0.353c-0.931-0.568-1.728-1.404-2.909-1.484c-0.251-0.422-0.61-0.584-1.091-0.457
	c-0.023-0.12-0.046-0.24-0.07-0.361c-0.079,0.049-0.158,0.098-0.237,0.146c0.12,0.056,0.24,0.111,0.36,0.167
	c0.209,0.527,0.62,0.56,1.09,0.444c-0.108,0.258-0.053,0.498,0.123,0.697c1.942,2.198,1.934,2.17-0.964,3.164
	c-1.528,0.524-3.041,1.111-4.515,1.772c-1.425,0.638-2.747,0.832-4.05-0.247c-0.224-0.187-0.581-0.213-0.877-0.312
	c0.143,0.194,0.287,0.389,0.428,0.584c0.883,1.229,0.872,1.198-0.477,1.715c-5.329,2.037-10.708,3.91-16.259,5.271
	c-1.354,0.332-2.7,0.521-4.039,0.191c-1.176-0.289-1.342-1.093-0.56-2.052c1.944-2.386,4.365-4.286,6.608-6.356
	c3.745-3.458,7.666-6.726,11.525-10.059c0.473-0.408,1.111-1.168,1.253,0.266c0.02,0.198,0.228,0.893,0.393,0.125
	c0.866-4.016,4.873-4.997,7.235-7.559c0.88-0.954,1.341-0.66,1.566,0.721c0.068,0.418,0.049,0.85,0.081,1.275
	c0.012,0.168,0.053,0.333,0.082,0.5c0.108-0.186,0.259-0.358,0.315-0.558c0.16-0.571,0.468-1.183,0.385-1.728
	c-0.312-2.041,0.827-3.268,2.348-4.137c2.204-1.26,3.551-3.746,6.231-4.289c2.012-3.08,5.516-4.42,8.051-6.894
	c0.77-0.751,1.554-1.212,1.945,0.355c0.052,0.206,0.212,0.385,0.321,0.575c0.042-0.245,0.186-0.529,0.11-0.731
	c-0.616-1.647,0.374-2.407,1.555-3.252c1.797-1.284,3.527-2.679,5.172-4.152c0.989-0.886,1.554-0.692,2.2,0.306
	c0.38,0.588,0.581,1.434,1.539,1.419c0.011,0.563-0.283,1.215,0.454,1.568c0.025,0.146,0.021,0.306,0.083,0.433
	c0.151,0.305-0.269,0.193,0.068,0.139c-0.067-0.171-0.135-0.342-0.202-0.512c-0.152-0.522-0.305-1.045-0.457-1.568
	c-0.145-0.489-0.268-0.987-0.439-1.467c-0.807-2.254-0.639-2.849,1.49-3.932c2.348-1.192,4.982-1.57,6.982,0.232
	c1.756,1.582,3.826,1.104,5.653,1.838c0.573,0.23,0.771-0.209,0.901-0.594c0.38-1.127,0.755-2.261,1.044-3.414
	c0.159-0.638,0.693-1.51,0.228-1.911c-0.543-0.468-1.177,0.372-1.691,0.694c-0.954,0.597-1.806-0.049-2.688-0.066
	c-0.743-0.014-1.421-0.692-2.312-0.425c-0.367,0.11-0.976-0.017-0.953-0.556c0.029-0.736-0.104-1.118-0.928-1.018
	c-0.241,0.029-0.546-0.011-0.741-0.14c-0.73-0.485-1.311-1.183-1.399-2.029c-0.083-0.786,0.706-1.067,1.324-1.357
	c0.224-0.105,0.646-0.221,0.639-0.308c-0.03-0.434-0.461-0.301-0.728-0.364c-0.759-0.18-1.453-0.494-2.083-0.942
	c-1.522-1.087-1.631-2.271-0.129-3.381c0.659-0.487,0.669-0.808,0.372-1.41c-0.521-1.058-1.092-2.06-0.728-3.376
	c0.323-1.165,0.75-1.835,2.095-1.598c0.393,0.069,0.842,0.432,1.328-0.185c1.18-1.493,1.237-1.441,3.061-0.523
	c0.209,0.105,0.55,0.269,0.667,0.183c0.431-0.314,0.02-0.541-0.16-0.8c-0.571-0.824-1.162-1.629-1.139-2.723
	c0.031-1.437,0.495-1.866,1.883-1.57c0.41,0.087,0.798,0.285,1.194,0.438c0.771,0.296,1.199-0.024,1.119-0.79
	c-0.159-1.527,0.488-2.789,1.22-4.009c0.89-1.484,1.684-1.454,2.732-0.038c0.815,1.099,1.222,2.341,1.405,3.667
	c0.127,0.924,0.187,1.857,0.275,2.786c-0.205,0.109-0.449,0.181-0.603,0.341c-0.109,0.113-0.554,0.264-0.118,0.508
	c0.065,0.036,0.301-0.114,0.373-0.231c0.127-0.208,0.189-0.456,0.279-0.688c0.343-0.252,0.678-0.516,1.031-0.755
	c0.42-0.285,0.996-0.229,1.076,0.194c0.24,1.275,0.941,2.59,0.407,3.857c-0.437,1.033-0.643,1.91-0.262,3.01
	c0.682,1.97,0.331,2.787-1.489,3.987c-0.273,0.18-0.654,0.202-0.733,0.602c-0.051,0.25-0.104,0.549,0.167,0.678
	c0.203,0.096,0.512,0.155,0.697,0.068c0.964-0.452,1.52-1.281,2.074-2.17c0.861-1.379,2.916-1.772,4.277-0.887
	c0.76,0.493,1.225,1.212,0.922,2.174c-0.148,0.476-0.562,0.863-0.493,1.418c0.04,0.323,0.021,0.746,0.448,0.772
	c0.508,0.032,0.425-0.431,0.435-0.741c0.023-0.764-0.046-1.52,0.591-2.14c0.371-0.362,0.645-0.88,1.241-0.483
	c1.302,0.865,1.895-0.171,2.286-1.002c1.634-3.462,3.167-6.971,4.695-10.481c0.191-0.44,0.321-1.082-0.124-1.421
	c-0.152-0.117-0.786,0.224-1.074,0.491c-0.982,0.91-2.132,0.498-3.101,0.24c-0.839-0.224-1.55-0.653-2.508-0.441
	c-0.802,0.178-1.015-0.455-0.852-1.143c0.124-0.529,0.07-0.726-0.562-0.672c-1.118,0.094-2.069-0.284-2.345-1.484
	c-0.252-1.094,0.247-1.784,1.39-1.998c0.958-0.179,0.025-0.258-0.038-0.291c-0.831-0.429-1.736-0.747-2.496-1.275
	c-1.537-1.069-1.518-2.368,0.119-3.299c0.641-0.365,0.571-0.535,0.402-1.101c-0.373-1.242-1.467-2.3-0.756-3.845
	c0.396-0.858,0.637-1.551,1.74-1.354c0.873,0.156,1.426-0.018,1.941-0.947c0.744-1.338,1.764-0.247,2.633,0.107
	c0.283,0.115,0.521,0.59,0.834,0.304c0.32-0.293-0.119-0.549-0.248-0.831c-0.416-0.902-1.215-1.608-1.197-2.738
	c0.025-1.681,0.65-2.207,2.218-1.671c0.315,0.108,0.59,0.334,0.89,0.494c1.097,0.586,1.357,0.101,1.23-0.942
	c-0.186-1.506,0.234-2.859,1.188-4.018c0.994-1.208,1.71-1.117,2.705,0.161c1.38,1.772,1.241,3.933,1.61,5.966
	c-0.356,0.281-0.583,0.614-0.454,1.096c-0.312-0.038-0.524,0.028-0.195,0.321c0.073,0.065,0.231-0.179,0.148-0.369
	C100.239,18.813,100.127,18.343,100.041,17.884z M92.928,51.918l-0.034-0.148l0.053,0.096c0.142,0.211,0.224,0.239,0.208,0.087
	C93.152,51.934,93.006,51.93,92.928,51.918z M98.631,52.84c0.28-0.096,0.407-0.306,0.44-0.587c1.022,0.045,1.831,0.03,1.292,1.597
	c-0.281,0.818-0.852,1.39-1.107,2.156c-0.07,0.213-0.108,0.553,0.008,0.683c0.127,0.141,0.568,0.224,0.672,0.125
	c1.674-1.625,3.617-0.985,5.482-0.62c0.713,0.14,0.869-0.095,1.038-0.651c0.163-0.539,0.3-0.944-0.499-1.056
	c-1.252-0.175-1.738-1.21-2.256-2.181c0.191,0.052,0.272-0.005,0.229-0.166c-0.002-0.008-0.104-0.004-0.151,0.015
	c-0.318,0.125,0.135-0.098-0.031,0.2c-0.695-0.063-1.338-0.178-1.405-1.08c-0.032-0.436,0.248-0.79-0.208-1.333
	c-0.767-0.916-1.387-2.086-0.515-3.382c0.173-0.256,0.233-0.81-0.271-0.7c-0.807,0.176-1.701,0.414-2.299,0.928
	c-0.415,0.358,0.559,0.585,0.711,1.155c0.433,1.604-0.323,2.937-0.626,4.375c-0.229,0.114-0.484,0.205-0.464,0.536l-0.135,0.061
	L98.631,52.84z M114.986,46.703c0.11,0.111,0.213,0.306,0.332,0.316c0.218,0.018,0.273-0.155,0.092-0.246
	c-0.127-0.064-0.312-0.013-0.471-0.013c-0.018-0.225,0.011-0.466-0.062-0.671c-0.094-0.263-0.42-0.362-0.586-0.217
	c-0.395,0.344,0.064,0.5,0.252,0.675C114.647,46.646,114.836,46.654,114.986,46.703z M71.982,46.154l-0.117-0.062l0.164,0.071
	c-0.052,0.503,0.401,0.711,0.64,1.035c0.117,0.16,0.531,0.328,0.58,0.276c0.278-0.296,0.144-0.63-0.094-0.896
	C72.848,46.233,72.397,46.231,71.982,46.154z M92.955,23.165c-0.052-0.056-0.104-0.113-0.156-0.169
	c0.071,0.037,0.143,0.074,0.215,0.111c0.057,0.152,0.082,0.33,0.177,0.452c0.298,0.378,0.478,0.915,1.073,0.927
	c0.059,0.001,0.184-0.269,0.177-0.409c-0.028-0.612-0.458-0.827-0.987-0.906C93.29,23.146,93.121,23.166,92.955,23.165z
	 M90.93,81.524c0.027,0.211,0.16,0.213,0.121,0.107c-0.115-0.318,0.16,0.039-0.166-0.062c0.382-0.564,0.86-1.13,0.065-1.729
	c-0.119-0.09-0.412-0.17-0.438-0.131c-0.414,0.625-0.165,1.207,0.176,1.766C90.717,81.523,90.847,81.51,90.93,81.524z
	 M100.678,67.169c-0.01,0.199-0.075,0.463,0.276,0.232c-0.108-0.062-0.218-0.125-0.325-0.188c0.324-0.648,0.463-1.264-0.432-1.55
	c-0.198-0.063-0.604-0.019-0.66,0.099c-0.34,0.705,0.359,0.932,0.701,1.311C100.32,67.164,100.528,67.14,100.678,67.169z
	 M97.016,47.688c0.229-0.074,0.458-0.148,0.688-0.222c-0.229-0.083-0.459-0.167-0.688-0.25c0.029-0.646,0.564-0.771,1.014-0.991
	c1.22-0.6,2.446-1.187,3.653-1.812c0.874-0.453,1.273-0.84,0.4-1.898c-0.879-1.064-1.448-2.696-0.179-3.789
	c0.961-0.827,0.482-0.728-0.203-0.894c-0.576-0.14-1.26-0.141-1.705-0.466c-1.137-0.828-1.533-0.427-1.986,0.734
	c-0.898,2.293-1.189,4.777-2.351,6.991c-0.504,0.96-1.199,1.882-1.257,3.043c-0.271,0.11-0.478,0.278-0.125,0.493
	c0.139,0.084,0.294-0.121,0.29-0.326c0.333-0.039,0.666-0.077,0.999-0.116c0.033,0.548-1.118,1.072-0.104,1.612
	c0.918,0.489,1.039-0.411,1.284-0.937C96.912,48.503,96.932,48.081,97.016,47.688z M90.957,64.698
	c-1.816-0.671-3.459,0.573-5.224,0.475c0.673-1.101,1.963-0.79,2.903-1.275c0.267-0.138,0.672-0.344,0.694-0.553
	c0.056-0.511-2.21-1.498-2.524-1.08c-0.631,0.837-1.455,1.581-1.657,2.682c-0.003,0.014,0.431,0.107,0.66,0.164
	c-0.983,1.047-2.414,1.478-3.396,2.578c-1.118,1.255-2.348,2.458-4.049,2.951c-1.05,0.305-0.678,0.891-0.391,1.553
	c0.382,0.879,0.945,0.633,1.378,0.199c2.35-2.358,5.591-2.625,8.489-3.691c0.576,0.767,1.385,0.34,2.089,0.381
	c0.752,0.043,1.707,0.246,2.205-0.12c0.403-0.297,0.373-1.342,0.332-2.043c-0.046-0.787,0.429-1.241,0.804-1.779
	c0.165-0.236,0.201-0.478,0.033-0.675c-0.285-0.333-0.604-0.14-0.889,0.037c-0.766,0.472-0.981,1.606-2.058,1.704
	c-0.176-0.644,0.65-0.936,0.547-1.553l0.072-0.104L90.957,64.698z M76.898,69.794c0.551,0.012,0.957-0.333,1.396-0.582
	c3.453-1.953,5.593-5.131,7.705-8.325c0.541-0.819-0.327-2.109,0.882-2.766c0.212-0.115,0.109-0.493-0.079-0.669
	c-0.432-0.406-0.467-1.317-1.061-1.335c-0.873-0.027-0.262,0.921-0.608,1.37c-0.897,1.163-1.038,2.873-2.864,3.359
	c-1.242,0.331-2.377,0.164-3.374-0.376c-1.148-0.622-1.587-0.16-1.853,0.803c-0.566,2.051-1.2,4.074-1.998,6.05
	C74.687,68.214,75.904,69.746,76.898,69.794z M88.819,70.276c-0.511,0-1.021-0.007-1.532,0c-2.861,0.041-5.285,1.129-7.334,3.092
	c-0.173,0.164-0.382,0.379-0.409,0.592c-0.052,0.402,0.337,0.283,0.53,0.276c2.179-0.081,4.181,0.735,6.219,1.292
	c1.214,0.33,1.741,0.461,1.975-1.131c0.283-1.926,0.979-2.174,3.076-2.348c0.579-0.047,1.119,0.092,1.682,0.053
	c0.347-0.024,0.4-0.246,0.483-0.469c0.133-0.356,0.022-0.455-0.351-0.695C91.783,70.055,90.306,70.198,88.819,70.276z
	 M94.716,29.291c-0.242-0.089-0.498-0.124-0.594,0.169c-0.043,0.13,0.024,0.348,0.118,0.461c0.325,0.389,0.671,0.763,1.034,1.116
	c0.298,0.289,0.733,0.75,1.051,0.498c0.39-0.31,0.29-0.941,0.101-1.43C96.119,29.31,95.377,29.371,94.716,29.291z M75.498,54.003
	c-0.013-1.307-0.984-1.186-1.811-1.315c-0.275-0.043-0.607-0.074-0.464,0.25c0.354,0.79,0.989,1.392,1.809,1.675
	C75.55,54.791,75.407,54.23,75.498,54.003z M102.623,60.698c-0.529,0.352-1.217,0.643-1.41,1.437
	c-0.039,0.161,0.184,0.543,0.326,0.566c1.014,0.161,1.069-0.827,1.494-1.356C103.17,61.173,103.012,60.893,102.623,60.698z
	 M108.045,44.884c-0.072,0.04-0.463,0.181-0.451,0.262c0.138,0.906,0.99,1,1.631,1.306c0.241,0.116,0.402-0.04,0.317-0.408
	C109.371,45.301,109.084,44.766,108.045,44.884z M114.482,76.068c-0.378-0.163-0.416,0.158-0.465,0.367
	c-0.096,0.415-0.1,0.927,0.24,1.146c0.245,0.159,0.594-0.163,0.693-0.522C115.08,76.597,114.93,76.261,114.482,76.068z
	 M93.597,58.885c0.122-0.608-0.341-0.855-0.729-1.148c-0.17-0.128-0.254-0.067-0.328,0.161c-0.115,0.361,0.448,1.415,0.75,1.337
	C93.41,59.204,93.49,59.013,93.597,58.885z M106.205,69.419c-0.01-0.424-0.084-0.842-0.534-0.996
	c-0.282-0.096-0.44,0.107-0.379,0.399c0.087,0.417,0.347,0.724,0.692,0.962C106.058,69.663,106.131,69.541,106.205,69.419z
	 M117.785,81.174c0.191-0.29,0.323-0.472,0.437-0.663c0.103-0.174,0.057-0.312-0.117-0.375c-0.264-0.096-0.441,0.012-0.45,0.281
	C117.647,80.627,117.723,80.84,117.785,81.174z M112.218,54.03c-0.111,0.081-0.292,0.141-0.322,0.246
	c-0.118,0.402-0.044,0.794,0.177,1.155c0.102-0.172,0.247-0.333,0.295-0.52C112.444,54.61,112.528,54.279,112.218,54.03z
	 M111.801,69.356c-0.122,0.083-0.32,0.146-0.347,0.252c-0.034,0.138,0.036,0.423,0.118,0.447c0.29,0.083,0.438-0.152,0.48-0.395
	C112.068,69.577,111.891,69.46,111.801,69.356z M112.412,57.796c-0.072-0.137-0.145-0.273-0.217-0.411
	c-0.087,0.125-0.231,0.242-0.247,0.375c-0.023,0.193-0.033,0.478,0.288,0.434C112.312,58.184,112.354,57.935,112.412,57.796z
	 M94.548,84.587c0.112-0.252,0.058-0.508-0.138-0.65c-0.332-0.242-0.386,0.099-0.375,0.285c0.012,0.217,0.143,0.428,0.221,0.641
	C94.354,84.771,94.453,84.679,94.548,84.587z M93.676,53.851c-0.029,0.168-0.098,0.321-0.071,0.455
	c0.051,0.251,0.183,0.26,0.299,0.031c0.034-0.066,0.065-0.173,0.034-0.223C93.877,54.015,93.772,53.944,93.676,53.851z
	 M103.975,32.312c0.15-0.061,0.303-0.122,0.453-0.183c-0.056-0.063-0.1-0.15-0.168-0.186c-0.188-0.095-0.347-0.039-0.413,0.157
	C103.83,32.15,103.929,32.239,103.975,32.312z M107.58,53.061c-0.063,0.01-0.154,0-0.183,0.037c-0.038,0.05-0.063,0.157-0.035,0.205
	c0.106,0.178,0.223,0.158,0.284-0.049C107.663,53.201,107.604,53.125,107.58,53.061z M110.096,61.13
	c-0.052,0.283-0.119,0.431-0.094,0.56c0.051,0.255,0.179,0.263,0.293,0.027c0.031-0.064,0.047-0.158,0.023-0.222
	C110.279,61.391,110.203,61.3,110.096,61.13z M105.133,59.774c-0.051-0.053-0.099-0.147-0.151-0.149
	c-0.053-0.003-0.11,0.085-0.166,0.134c0.051,0.054,0.099,0.147,0.151,0.15C105.021,59.911,105.078,59.823,105.133,59.774z
	 M106.057,38.131l-0.102,0.157l0.155,0.023L106.057,38.131z M83.348,55.174l0.143,0.087l0.012-0.15L83.348,55.174z"/>
</svg>
