<?xml version="1.0" encoding="utf-8"?>
<!-- Generator: Adobe Illustrator 16.0.4, SVG Export Plug-In . SVG Version: 6.00 Build 0)  -->
<!DOCTYPE svg PUBLIC "-//W3C//DTD SVG 1.1//EN" "http://www.w3.org/Graphics/SVG/1.1/DTD/svg11.dtd">
<svg version="1.1" id="Layer_0801" xmlns="http://www.w3.org/2000/svg" xmlns:xlink="http://www.w3.org/1999/xlink" x="0px" y="0px"
	 width="128px" height="128px" viewBox="0 0 128 128" enable-background="new 0 0 128 128" xml:space="preserve">
<g>
	<path fill-rule="evenodd" clip-rule="evenodd" d="M68.612,24.343c8.549,0.295,16.398,1.494,24.283,2.404
		c16.492,1.903,24.158,12.456,28.018,27.236c8.823,33.797-13.56,67.459-48.068,72.738c-26.134,3.999-52.122-9.968-62.403-33.913
		c-8.142-18.964-6.983-37.827,4.241-55.565c3.491-5.518,9.238-7.639,15.236-9.18c10.421-2.679,21.042-3.68,31.762-3.562
		c2.681,0.03,3.992-0.83,4.771-3.427c1.53-5.111,3.475-10.098,5.103-15.184c0.613-1.917,1.607-2.842,3.662-3.011
		c8.171-0.676,16.33-1.48,24.493-2.229c0.495-0.045,0.994-0.064,1.49-0.043c1.062,0.043,2.4-0.328,2.538,1.368
		c0.139,1.691-1.221,1.662-2.276,1.76c-7.3,0.68-14.592,1.57-21.907,1.84c-3.63,0.133-5.371,1.517-6.34,4.806
		C71.882,14.885,70.285,19.31,68.612,24.343z M67.771,27.909c6.017,0.591,11.945,1.063,17.843,1.789
		c5.058,0.622,10.104,1.552,14.546,4.245c3.5,2.122,3.489,4.583,0.155,6.918c-3.032,2.122-6.571,2.889-10.109,3.548
		c-16.149,3.008-32.372,3.026-48.583,0.676c-4.76-0.69-9.624-1.436-13.794-4.187c-3.381-2.231-3.357-4.727,0.061-6.927
		c2.209-1.422,4.698-2.231,7.24-2.853c8.496-2.071,17.162-2.621,25.856-2.919c1.521-0.053,3.393,0.289,3.103-2.565
		c-4.029-0.559-7.985,0.06-11.883,0.35c-10.288,0.767-20.559,1.893-29.951,6.677c-2.224,1.131-5.177,1.93-5.215,5.187
		c-0.038,3.305,2.728,4.408,5.085,5.803c5.05,2.989,10.745,3.781,16.353,4.724c15.671,2.634,31.414,2.554,47.136,0.514
		c7.514-0.975,15.013-2.311,21.748-6.077c4.884-2.729,4.879-6.29,0.179-9.272c-0.524-0.332-1.079-0.619-1.634-0.89
		c-11.354-5.496-23.578-6.505-35.907-6.958C68.747,25.647,67.772,25.985,67.771,27.909z M61.5,44.692
		c8.09,0.143,15.483,0.019,22.845-1.103c4.42-0.673,8.816-1.445,12.963-3.189c1.445-0.608,3.412-1.068,3.379-2.982
		c-0.032-1.89-2.061-2.231-3.439-2.977c-0.216-0.118-0.46-0.189-0.697-0.265c-9.048-2.939-18.375-3.953-27.844-3.991
		c-1.444-0.005-2.331,0.519-2.802,1.878C64.54,36.029,63.146,39.985,61.5,44.692z M26.886,36.456
		c0.764,2.676,2.203,3.24,3.565,3.783c8.301,3.309,17.038,4.092,25.857,4.388c1.064,0.036,1.962-0.147,2.356-1.316
		c1.411-4.186,2.833-8.367,4.444-13.115C50.3,30.273,38.243,30.661,26.886,36.456z"/>
</g>
</svg>
