<?xml version="1.0" encoding="utf-8"?>
<!-- Generator: Adobe Illustrator 16.0.4, SVG Export Plug-In . SVG Version: 6.00 Build 0)  -->
<!DOCTYPE svg PUBLIC "-//W3C//DTD SVG 1.1//EN" "http://www.w3.org/Graphics/SVG/1.1/DTD/svg11.dtd">
<svg version="1.1" id="Layer_0811" xmlns="http://www.w3.org/2000/svg" xmlns:xlink="http://www.w3.org/1999/xlink" x="0px" y="0px"
	 width="128px" height="128px" viewBox="0 0 128 128" enable-background="new 0 0 128 128" xml:space="preserve">
<path fill-rule="evenodd" clip-rule="evenodd" d="M36.585,42.206c3.592-0.088,7.059,0.483,10.373,1.927
	c0.72,0.314,1.983,0.876,2.182,0.64c0.864-1.029-0.36-1.775-0.81-2.538c-3.863-6.553-7.443-13.245-10.301-20.304
	c-1.713-4.231-3.225-8.528-3.952-13.057c-0.187-1.163-0.416-2.34-0.41-3.509c0.014-2.907,1.358-4.321,3.817-4.201
	c3.297,0.162,4.996,1.932,4.465,4.9c-0.677,3.778,0.054,7.437,0.921,11.029c1.949,8.078,5.271,15.658,8.869,23.12
	c0.294,0.611,0.568,1.46,1.342,1.212c0.669-0.215,0.417-1.129,0.491-1.746c0.944-7.847,4.835-13.932,11.178-18.488
	c2.225-1.598,2.502-1.39,3.488,1.235c0.664,1.773,0.824,3.613,0.979,5.464c0.362,4.341,0.355,4.331,4.208,2.825
	c2.366-0.925,4.785-1.607,7.353-1.756c2.028-0.118,2.753,0.688,2.425,2.673c-0.532,3.228-1.84,6.151-3.556,8.873
	c-1.071,1.697-1.557,2.494,1.055,3.314c5.422,1.706,8.873,5.555,9.454,11.352c0.236,2.361,1.286,2.698,3.233,2.565
	c5.999-0.408,12.713,3.995,13.43,10.035c0.611,5.153,1.875,9.978,3.31,14.912c1.518,5.21-1.769,10.844-7.317,13.663
	c-2.022,1.025-3.205,2.126-3.521,4.386c-0.157,1.118-0.743,2.279-1.435,3.196c-1.205,1.599-1.521,3.235-1.267,5.202
	c1.171,9.097-7.868,16.818-17.31,13.957c-2.071-0.628-3.344-0.144-5.038,0.974c-6.908,4.558-15.171,3.725-20.124-4.079
	c-1-1.576-1.997-2.262-3.884-2.56c-8.166-1.289-12.254-6.393-11.898-14.805c0.083-1.951-0.208-3.076-2.087-3.927
	c-7.198-3.263-10.346-13.36-4.111-20.575c1.141-1.32,1.38-2.354,0.702-4.053c-0.934-2.342-1.31-4.896-0.585-7.45
	c0.507-1.787-0.324-2.466-2.023-2.552c-3.755-0.191-7.353-1.044-10.684-2.825c-2.63-1.407-2.656-1.773-0.464-3.993
	c1.674-1.695,3.581-3.097,5.683-4.203c1.546-0.813,1.946-1.397,0.437-2.883c-3.665-3.605-3.468-4.123,1.493-6.115
	C29.868,42.77,33.165,42.154,36.585,42.206z M70.479,70.887c-2.456,0.085-4.567,2.562-4.435,5.203
	c0.134,2.657,2.524,4.919,4.945,4.681c2.345-0.23,4.118-2.362,4.109-4.944C75.093,73.03,73.004,70.798,70.479,70.887z M70.659,48.47
	c-2.557-0.029-4.646,2.215-4.613,4.95c0.033,2.651,2.317,5.004,4.756,4.896c2.289-0.101,4.217-2.244,4.304-4.782
	C75.203,50.711,73.262,48.5,70.659,48.47z M53.145,67.472c2.379-0.026,4.638-2.587,4.54-5.145c-0.104-2.704-2.342-4.877-4.866-4.726
	c-2.408,0.144-4.173,2.153-4.202,4.784C48.587,65.136,50.69,67.499,53.145,67.472z M92.316,68.048
	c0.051-2.667-2.126-5.12-4.541-5.112c-2.187,0.007-4.367,2.232-4.538,4.631c-0.189,2.677,1.825,5.143,4.311,5.275
	C90.098,72.978,92.263,70.801,92.316,68.048z M59.699,105.39c-2.491,0.137-4.386,2.544-4.189,5.319
	c0.181,2.563,2.166,4.6,4.464,4.58c2.438-0.021,4.617-2.459,4.557-5.099C64.47,107.563,62.147,105.255,59.699,105.39z
	 M47.219,88.561c2.465-0.092,4.573-2.577,4.408-5.198c-0.173-2.756-2.367-4.771-4.958-4.556c-2.39,0.2-4.132,2.245-4.124,4.843
	C42.555,86.355,44.739,88.651,47.219,88.561z M43.926,66.32c0.117-2.82-1.782-5.079-4.326-5.145
	c-2.422-0.062-4.668,2.313-4.658,4.928c0.009,2.407,1.953,4.646,4.203,4.841C41.753,71.169,43.808,69.183,43.926,66.32z
	 M65.093,97.059c0.041-2.851-1.87-4.977-4.475-4.971c-2.5,0.004-4.63,2.314-4.583,4.971c0.039,2.16,1.671,4.261,3.39,4.361
	C62.316,101.59,65.057,99.481,65.093,97.059z M40.3,81.866c-0.1-1.86-2.165-3.288-4.428-3.06c-2.327,0.233-4.151,2.424-4.087,4.908
	c0.066,2.615,2.341,4.899,4.806,4.827C38.942,88.473,40.503,85.663,40.3,81.866z M84.897,94.156
	c-0.24-2.382-1.004-4.217-3.188-4.978c-1.489-0.52-3.054-0.466-4.188,0.859c-0.187,0.219-0.325,0.465-0.401,0.744
	c-0.026,0.098-0.036,0.197-0.051,0.298c-0.023,0.153-0.073,0.311-0.08,0.467c-0.002,0.07,0.008,0.143,0.002,0.213
	c-0.004,0.067-0.035,0.108-0.046,0.172c-0.012,0.068,0.002,0.154,0.002,0.225c0,0.241-0.025,0.498,0.01,0.735
	c0.06,0.403,0.139,0.801,0.25,1.197c0.06,0.21,0.118,0.43,0.205,0.638c0.04,0.098,0.064,0.202,0.104,0.299
	c0.06,0.139,0.146,0.26,0.198,0.402c0.083,0.232,0.192,0.468,0.311,0.688c0.107,0.2,0.2,0.439,0.342,0.614
	c0.07,0.087,0.162,0.142,0.223,0.237c0.05,0.082,0.105,0.147,0.16,0.225c0.104,0.148,0.191,0.356,0.354,0.444
	c0.137,0.072,0.257,0.159,0.388,0.236c0.082,0.049,0.179,0.058,0.26,0.106c0.06,0.034,0.115,0.087,0.17,0.13
	c0.068,0.052,0.136,0.089,0.219,0.108c0.072,0.019,0.143,0.002,0.215,0.021c0.174,0.044,0.34,0.119,0.513,0.165
	c0.168,0.045,0.344,0.041,0.517,0.022c1.054-0.11,1.9-0.763,2.405-1.684C84.268,95.868,84.584,94.905,84.897,94.156z
	 M50.127,100.996c-0.148-1.049-1.044-1.652-2.082-1.568c-1.999,0.162-3.981,0.559-5.956,0.929c-0.807,0.151-0.93,0.79-0.814,1.543
	c0.382,2.487,2.691,4.337,5.004,3.972C48.384,105.541,50.323,103.184,50.127,100.996z M80.076,107.603
	c-1.975-0.055-2.09,1.14-1.957,2.265c0.088,0.752,0.489,1.994,0.926,2.078c1.276,0.239,2.61-0.606,2.667-1.797
	C81.754,109.278,80.592,108.35,80.076,107.603z"/>
</svg>
