<?xml version="1.0" encoding="utf-8"?>
<!-- Generator: Adobe Illustrator 16.0.4, SVG Export Plug-In . SVG Version: 6.00 Build 0)  -->
<!DOCTYPE svg PUBLIC "-//W3C//DTD SVG 1.1//EN" "http://www.w3.org/Graphics/SVG/1.1/DTD/svg11.dtd">
<svg version="1.1" id="Layer_0814" xmlns="http://www.w3.org/2000/svg" xmlns:xlink="http://www.w3.org/1999/xlink" x="0px" y="0px"
	 width="128px" height="128px" viewBox="0 0 128 128" enable-background="new 0 0 128 128" xml:space="preserve">
<g id="LubUJi.tif">
	<g>
		<path fill-rule="evenodd" clip-rule="evenodd" d="M1.977,93.28c0.017-0.045,0.06-0.097,0.048-0.133
			c-0.544-1.803,0.372-3.087,1.461-4.366c1.024-1.202,1.913-2.518,2.916-3.739c0.556-0.675,0.76-1.37,0.71-2.245
			c-0.319-5.642-0.599-11.287-0.88-16.931c-0.018-0.363-0.144-0.752,0.108-1.097c0.219,0.308,0.457,0.604,0.649,0.929
			c0.146,0.245,0.246,0.519,0.345,0.788c0.123,0.339,0.135,0.603,0.581,0.161c0.213-0.212,0.44,0.367,0.613,0.63
			c2.791,4.241,5.583,8.48,8.365,12.728c4.542,6.931,9.083,13.859,13.605,20.802c1.542,2.368,3.081,4.741,4.512,7.176
			c0.824,1.402,2.138,1.465,3.46,1.616c0.44,0.051,0.696-0.265,0.784-0.689c0.102-0.484,0.004-0.954-0.145-1.413
			c-1.517-4.646-2.612-9.413-4.135-14.061c-1.091-3.327-2.65-6.28-4.904-8.979c-4.239-5.079-8.146-10.418-11.21-16.312
			c-1.255-2.414-2.441-4.863-3.459-7.398c-0.625-1.557-1.191-3.126-1.762-4.699c-0.592-1.633-0.665-3.382-1.235-5.017
			c-0.09-0.257-0.537-1.03,0.456-0.849c0.004-0.087,0.045-0.198,0.006-0.259c-0.589-0.943-0.042-1.743,0.327-2.556
			c1.793-3.965,4.155-7.546,7.206-10.661c0.235-0.24,0.489-0.463,0.703-0.721c0.457-0.551,0.816-0.478,1.253,0.063
			c2.196,2.726,4.303,5.516,6.297,8.392c4.237,6.106,7.969,12.52,11.437,19.083c2.231,4.225,4.357,8.507,6.396,12.833
			c1.486,3.153,2.904,6.341,4.425,9.48c0.542,1.116,0.956,2.294,1.461,3.431c0.446,1.007,0.946,1.977,1.761,2.764
			c3.101,2.996,6.091,6.112,9.532,8.732c2.096,1.597,4.247,3.117,6.62,4.287c0.899,0.443,1.841,0.807,2.771,1.184
			c0.331,0.133,0.551,0.087,0.426-0.383c-0.884-3.332-1.158-6.771-1.764-10.15c-0.118-0.661-0.229-1.318-0.433-1.956
			c-0.511-1.6-1.088-3.181-1.525-4.799c-0.552-2.046-1.568-3.909-2.192-5.923c-0.086-0.276-0.226-0.52-0.438-0.73
			c-2.519-2.499-4.726-5.277-7.035-7.964c-3.592-4.178-7.145-8.387-10.506-12.756c-4.095-5.32-7.995-10.763-10.897-16.86
			c-1.192-2.503-2.272-5.049-3.379-7.588c-1.475-3.383-1.951-6.984-2.932-10.47c-0.162-0.578-0.005-1.022,0.375-1.446
			c3.151-3.516,6.537-6.761,10.839-8.853c1.63-0.792,3.284-1.564,5.069-1.995c1.117-0.27,1.946-0.13,2.744,0.881
			c2.999,3.802,5.868,7.695,8.534,11.736c3.377,5.117,6.487,10.398,9.414,15.784c2.374,4.369,4.671,8.778,6.827,13.261
			c1.451,3.014,2.902,6.027,4.333,9.051c0.49,1.036,0.954,2.087,1.363,3.158c0.25,0.658,0.632,1.161,1.191,1.571
			c5.953,4.351,11.901,8.706,17.844,13.071c0.387,0.282,0.494,0.112,0.533-0.241c0.052-0.477,0.073-0.955,0.114-1.433
			c0.165-2.005,0.232-4.025,0.526-6.012c0.299-2.001-0.179-3.741-1.107-5.481c-1.848-3.459-3.524-7.005-5.406-10.443
			c-1.558-2.849-2.874-5.845-4.897-8.426c-0.179-0.226-0.333-0.47-0.521-0.687c-0.088-0.102-0.29-0.247-0.333-0.218
			c-0.204,0.141-0.071,0.337,0.021,0.476c0.664,0.996,1.344,1.981,2.015,2.974c0.104,0.155,0.27,0.4,0.108,0.506
			c-0.168,0.112-0.283-0.168-0.386-0.304c-1.016-1.335-2.032-2.668-3.032-4.015c-4.832-6.5-9.658-13.005-14.489-19.505
			c-1.602-2.153-3.208-4.303-4.823-6.447c-0.469-0.62-0.808-1.288-1.039-2.033c-0.768-2.472-1.573-4.934-2.346-7.405
			c-0.118-0.378-0.393-0.742-0.224-1.18c0.247,0.341,0.514,0.669,0.74,1.025c0.54,0.848,1.051,1.716,1.6,2.558
			c0.102,0.158,0.154,0.447,0.462,0.392c-0.054-0.176-0.075-0.373-0.165-0.526c-0.937-1.559-1.891-3.109-2.827-4.668
			c-0.625-1.042-0.621-1.123,0.435-1.806c3.237-2.096,6.756-3.422,10.64-3.49c4.28-0.075,7.581,1.877,9.923,5.366
			c4.669,6.96,9.196,14.016,13.384,21.277c2.676,4.639,5.318,9.305,7.451,14.229c0.84,1.939,2.121,3.473,3.772,4.775
			c2.22,1.749,4.366,3.59,6.536,5.402c1.181,0.987,2.25,2.083,3.191,3.302c0.107,0.139,0.168,0.362,0.415,0.34
			c-0.021-0.182-0.013-0.372-0.066-0.543c-1.23-3.979-2.547-7.876-4.682-11.536c-4.921-8.429-9.57-17.015-14.309-25.55
			c-1.368-2.468-2.643-4.987-3.993-7.464c-1.108-2.031-2.742-3.683-4.119-5.52c-0.918-1.227-1.879-2.42-2.823-3.63
			c-0.086-0.111-0.207-0.239-0.116-0.376c0.09-0.137,0.251-0.071,0.374-0.014c0.304,0.145,0.602,0.298,0.899,0.452
			c4.599,2.38,9.247,4.67,13.782,7.168c4.566,2.517,9.146,5.021,13.561,7.813c1.86,1.178,3.68,2.418,5.553,3.571
			c0.574,0.355,0.797,0.772,0.826,1.382c0.258,5.405,0.697,10.799,0.832,16.211c0.097,3.889-0.066,7.762-0.551,11.617
			c-0.49,3.924-1.35,7.72-3.703,11.049c-0.735,1.039-1.148,2.308-1.68,3.485c-1.796,3.967-3.576,7.939-5.363,11.91
			c-0.069,0.153-0.052,0.418-0.318,0.346c-0.061-0.016-0.071-0.246-0.093-0.379c-0.021-0.139-0.007-0.316-0.177-0.333
			c-0.047-0.004-0.148,0.214-0.172,0.341c-0.796,4.182-3.254,7.416-6.059,10.407c-2.262,2.413-4.701,4.649-7.245,6.771
			c-0.672,0.558-1.294,0.665-2.109,0.464c-2.558-0.631-5.125-1.219-7.697-1.795c-0.977-0.22-1.204-0.407-1.572,0.931
			c-0.66,2.397-1.524,4.739-2.344,7.089c-0.334,0.955-0.889,1.802-1.566,2.562c-2.106,2.366-4.238,4.7-7.104,6.196
			c-0.077,0.041-0.122,0.145-0.183,0.22c-1.279,0.408-2.558,0.816-3.838,1.224c-0.999-0.215-1.994,0.064-2.994,0.013
			c-5.545-0.288-11.089-0.555-16.633-0.847c-0.747-0.041-1.374,0.095-2.004,0.552c-1.199,0.869-2.458,1.704-3.917,2.049
			c-2.652,0.627-5.313,0.581-7.952-0.146c-1.524-0.421-3.098-0.805-4.406-1.686c-4.006-2.694-7.949-5.487-11.906-8.256
			c-2.154-1.506-4.288-3.027-6.742-4.046c-1.306-0.542-2.568-0.914-4.017-0.655c-1.454,0.262-2.942,0.343-4.419,0.475
			c-0.471,0.043-0.964,0.095-1.419-0.105c-1.731-0.762-3.312-1.708-4.334-3.396c-0.266-0.439-0.447-0.965-0.923-1.258
			C2.968,96.389,2.472,94.833,1.977,93.28z"/>
	</g>
</g>
</svg>
