<?xml version="1.0" encoding="utf-8"?>
<!-- Generator: Adobe Illustrator 16.0.4, SVG Export Plug-In . SVG Version: 6.00 Build 0)  -->
<!DOCTYPE svg PUBLIC "-//W3C//DTD SVG 1.1//EN" "http://www.w3.org/Graphics/SVG/1.1/DTD/svg11.dtd">
<svg version="1.1" id="Layer_0902" xmlns="http://www.w3.org/2000/svg" xmlns:xlink="http://www.w3.org/1999/xlink" x="0px" y="0px"
	 width="128px" height="128px" viewBox="0 0 128 128" enable-background="new 0 0 128 128" xml:space="preserve">
<g id="Jpb112.tif">
	<g>
		<path fill-rule="evenodd" clip-rule="evenodd" d="M97.103,50.046c-6.431,9.873-12.021,20.265-19.431,29.534
			c-17.284,21.613-38.698,37.52-64.366,47.764c-0.423,0-0.846,0-1.269,0c-1.069-0.658-2.29-1.157-3.18-2.003
			c-2.983-2.833-2.388-5.853,1.391-7.31c0.972-0.374,2.044-0.604,3.085-0.672c12.363-0.795,22.281-7.328,32.261-13.707
			c0.682-0.438,1.655-1.057,1.73-1.682c0.195-1.624-1.451-1.02-2.259-1.366c-12.061-5.191-20.222-13.608-22.274-26.997
			c-1.133-7.394,0.822-14.275,4.265-20.723C35.283,37.477,47.95,27.083,64.14,20.948c8.285-3.138,16.717-5.896,25.123-8.71
			c6.68-2.237,12.99-5.072,18.038-10.157c1.738-1.75,3.075-2.288,3.927,0.723c7.754,27.421,13.632,55.011,6.792,83.593
			c-2.606,10.89-7.36,20.697-16.052,28.14c-12.653,10.836-27.095,9.59-38.851,0.615c-4.515-3.446-4.38-4.4-0.305-8.379
			c15.084-14.73,25.568-32.389,33.171-51.901c0.621-1.596,1.127-3.18,1.023-4.909c0.24-0.304,1.224-0.33,0.39-1.038
			C97.298,49.299,97.199,49.673,97.103,50.046z"/>
	</g>
</g>
</svg>
