<?xml version="1.0" encoding="utf-8"?>
<!-- Generator: Adobe Illustrator 16.0.0, SVG Export Plug-In . SVG Version: 6.00 Build 0)  -->
<!DOCTYPE svg PUBLIC "-//W3C//DTD SVG 1.1//EN" "http://www.w3.org/Graphics/SVG/1.1/DTD/svg11.dtd">
<svg version="1.1" id="Layer_0907" xmlns="http://www.w3.org/2000/svg" xmlns:xlink="http://www.w3.org/1999/xlink" x="0px" y="0px"
	 width="128px" height="128px" viewBox="0 0 128 128" enable-background="new 0 0 128 128" xml:space="preserve">
<g>
	<g>
		<path fill-rule="evenodd" clip-rule="evenodd" d="M29.335,100.177c-2.171-4.959-8.914-8.868-13.792-7.976
			c-0.713,0.131-1.438,0.305-2.101,0.586c-2.111,0.896-2.108,0.915-2.328-1.271c-0.452-4.511,1.858-6.82,6.336-6.132
			c3.41,0.527,6.523,1.933,9.205,4.1c1.058,0.854,1.313,0.568,1.87-0.442c3.829-6.938,8.581-13.169,14.478-18.49
			c1.94-1.753,4.078-3.177,6.662-3.869c2.507-0.672,4.484,0.278,6.154,1.97c1.667,1.687,2.11,3.709,1.334,6.045
			c-1.171,3.524-3.609,6.146-6.143,8.637c-4.582,4.503-9.584,8.494-15.316,11.496c-2.229,1.166-2.231,1.192-0.834,3.161
			c1.464,2.064,2.693,4.235,3.388,6.691c0.246,0.868,0.407,1.743,0.443,2.632c0.18,4.435-3.698,6.987-7.825,5.205
			c-0.876-0.378-0.529-0.752-0.227-1.271c2.198-3.769,1.193-7.324-0.77-10.797c-0.096-0.172-0.393-0.228-0.596-0.337L29.335,100.177
			z"/>
		<path fill-rule="evenodd" clip-rule="evenodd" d="M94.399,112.816c-3.565,0.074-5.498-1.846-5.229-5.399
			c0.275-3.655,1.657-6.937,3.97-9.764c1.06-1.297,0.847-1.854-0.611-2.607c-7.071-3.648-13.073-8.694-18.439-14.521
			c-1.607-1.744-2.839-3.745-3.468-6.071c-0.619-2.303-0.154-4.374,1.54-6.045c1.811-1.775,3.98-2.479,6.471-1.581
			c2.07,0.744,3.974,1.762,5.638,3.264c6.075,5.489,11.141,11.761,14.945,19.018c0.608,1.157,1.024,1.091,1.934,0.359
			c2.167-1.749,4.644-2.952,7.33-3.69c0.855-0.235,1.736-0.436,2.62-0.508c4.343-0.35,7.139,3.782,5.272,7.733
			c-0.268,0.568-0.579,0.641-1.133,0.363c-6.007-3.01-10.612-0.246-14.798,3.765c-2.197,2.106-3.705,4.69-4.247,7.773
			c-0.345,1.974-0.223,3.859,0.584,5.712c0.805,1.848,0.746,1.922-1.166,2.123C95.211,112.783,94.805,112.789,94.399,112.816z"/>
		<path fill-rule="evenodd" clip-rule="evenodd" d="M69.62,89.639c-0.047,5.854-0.707,11.641-2.53,17.232
			c-0.432,1.318-0.319,1.842,1.212,2.067c2.988,0.436,5.799,1.455,8.287,3.256c1.503,1.089,2.302,2.532,2.124,4.366
			c-0.198,2.057-1.633,3.266-3.295,4.246c-0.377,0.221-0.72,0.335-0.932-0.236c-2.481-6.714-8.073-7.68-14.078-7.158
			c-4.341,0.374-8.208,2.112-9.667,6.847c-0.226,0.729-0.487,0.733-0.943,0.32c-0.839-0.763-1.751-1.477-2.443-2.361
			c-1.412-1.798-0.926-4.153,1.146-5.73c2.568-1.955,5.543-2.977,8.679-3.589c2.017-0.391,2.033-0.4,1.495-2.482
			c-1.773-6.876-2.696-13.834-2.178-20.945c0.148-2.043,0.546-4.013,1.571-5.815c2.181-3.837,7.435-3.917,9.791-0.165
			c1.206,1.922,1.518,4.089,1.736,6.266C69.727,87.035,69.62,88.34,69.62,89.639z"/>
		<path fill-rule="evenodd" clip-rule="evenodd" d="M104.967,112.595c-1.498-0.8-3.343-0.876-5.203-0.963
			c-1.047-0.05-1.588-0.833-1.529-1.836c0.092-1.571-0.149-3.026-0.825-4.461c-0.552-1.168-0.178-2.229,0.854-2.997
			c1.225-0.91,1.975-2.043,2.22-3.596c0.188-1.196,0.958-1.999,2.263-2.197c1.412-0.213,2.559-0.868,3.415-2.073
			c0.8-1.121,1.921-1.433,3.213-0.854c1.205,0.54,2.455,0.677,3.774,0.664c1.94-0.017,2.415,0.476,2.385,2.477
			c-0.021,1.321,0.086,2.576,0.664,3.771c0.575,1.195,0.287,2.266-0.688,3.048c-1.192,0.957-1.976,2.073-2.202,3.609
			c-0.203,1.37-1.094,2.118-2.464,2.27c-1.29,0.139-2.273,0.763-3.009,1.814C107.194,112.186,106.386,112.787,104.967,112.595z"/>
		<path fill-rule="evenodd" clip-rule="evenodd" d="M29.274,100.113c0.015,2.154-0.309,4.32,1.233,6.247
			c0.772,0.966,0.169,2.02-0.794,2.697c-0.998,0.703-1.931,1.436-2.548,2.537c-0.792,1.412-2.026,1.55-3.318,0.806
			c-1.301-0.748-2.61-1.209-4.134-1.011c-1.321,0.176-2.177-0.539-2.609-1.707c-0.544-1.472-1.564-2.454-2.972-2.998
			c-1.288-0.5-1.693-1.431-1.533-2.673c0.186-1.445-0.149-2.721-1.005-3.878c-0.988-1.338-0.587-2.429,0.649-3.31
			c0.931-0.664,1.787-1.364,2.336-2.402c0.707-1.336,1.914-1.512,3.114-0.938c1.557,0.746,3.077,1.333,4.855,1.149
			c0.841-0.089,1.65,0.326,1.926,1.192c0.772,2.427,2.81,3.385,4.859,4.352L29.274,100.113z"/>
		<path fill-rule="evenodd" clip-rule="evenodd" d="M53.403,122.995c0.05-0.322,0.187-0.653,0.139-0.959
			c-0.45-2.91-0.133-5.314,3.518-5.716c0.263-0.027,0.548-0.364,0.72-0.624c1.008-1.53,2.294-1.858,3.97-1.116
			c1.009,0.446,2.046,0.254,3.062-0.19c1.081-0.472,2.122-0.283,2.84,0.67c0.834,1.107,1.937,1.679,3.229,1.988
			c0.078,0.019,0.155,0.044,0.233,0.068c1.114,0.348,1.808,1.319,1.331,2.214c-1.021,1.923,1.901,5.018-1.762,5.995
			c-1.164,0.311-2.115,0.751-2.845,1.681c-0.8,1.018-1.828,1.388-3.007,0.846c-1.283-0.589-2.479-0.479-3.749,0.019
			c-1.071,0.422-2.054,0.257-2.795-0.769c-0.744-1.03-1.734-1.619-3.042-1.774C53.943,125.17,53.192,124.422,53.403,122.995z"/>
	</g>
	<g>
		<path fill-rule="evenodd" clip-rule="evenodd" d="M98.665,27.823c2.172,4.958,8.914,8.869,13.793,7.975
			c0.713-0.131,1.437-0.303,2.1-0.584c2.112-0.897,2.109-0.917,2.329,1.271c0.452,4.511-1.858,6.821-6.337,6.131
			c-3.41-0.526-6.523-1.933-9.206-4.097c-1.056-0.855-1.313-0.569-1.868,0.44c-3.83,6.938-8.583,13.17-14.479,18.491
			c-1.941,1.752-4.077,3.177-6.661,3.869c-2.507,0.673-4.485-0.279-6.154-1.969c-1.667-1.688-2.11-3.708-1.335-6.044
			c1.172-3.525,3.609-6.146,6.143-8.638c4.582-4.503,9.585-8.495,15.316-11.495c2.229-1.167,2.231-1.194,0.836-3.162
			c-1.465-2.065-2.695-4.234-3.39-6.691c-0.246-0.869-0.406-1.742-0.443-2.631c-0.18-4.435,3.699-6.987,7.824-5.206
			c0.877,0.379,0.531,0.751,0.228,1.271c-2.198,3.77-1.193,7.324,0.771,10.798c0.096,0.17,0.393,0.227,0.594,0.337L98.665,27.823z"
			/>
		<path fill-rule="evenodd" clip-rule="evenodd" d="M33.601,15.183c3.565-0.073,5.498,1.846,5.229,5.4
			c-0.275,3.654-1.658,6.935-3.969,9.763c-1.061,1.296-0.848,1.854,0.61,2.608c7.071,3.647,13.073,8.693,18.439,14.521
			c1.607,1.744,2.839,3.744,3.467,6.07c0.619,2.304,0.156,4.375-1.54,6.044c-1.811,1.777-3.979,2.479-6.47,1.583
			c-2.07-0.745-3.974-1.763-5.637-3.264c-6.075-5.489-11.141-11.762-14.946-19.017c-0.608-1.159-1.024-1.093-1.934-0.36
			c-2.167,1.75-4.642,2.952-7.33,3.689c-0.855,0.237-1.736,0.438-2.62,0.51c-4.344,0.349-7.14-3.784-5.273-7.735
			c0.268-0.567,0.579-0.639,1.132-0.363c6.007,3.01,10.613,0.246,14.798-3.764c2.197-2.106,3.705-4.691,4.247-7.773
			c0.345-1.974,0.223-3.861-0.584-5.713c-0.804-1.848-0.747-1.922,1.166-2.123C32.79,15.217,33.196,15.21,33.601,15.183z"/>
		<path fill-rule="evenodd" clip-rule="evenodd" d="M58.38,38.362c0.046-5.855,0.707-11.641,2.53-17.232
			c0.431-1.32,0.319-1.843-1.212-2.068c-2.989-0.435-5.799-1.455-8.287-3.257c-1.502-1.088-2.302-2.532-2.125-4.365
			c0.199-2.057,1.634-3.267,3.296-4.247c0.376-0.221,0.719-0.335,0.931,0.236c2.481,6.713,8.073,7.681,14.078,7.159
			c4.342-0.375,8.208-2.112,9.667-6.846c0.225-0.73,0.487-0.734,0.943-0.321c0.839,0.763,1.75,1.478,2.443,2.36
			c1.411,1.799,0.925,4.153-1.146,5.731c-2.567,1.956-5.543,2.978-8.678,3.588c-2.018,0.391-2.034,0.401-1.495,2.484
			c1.771,6.875,2.695,13.833,2.178,20.945c-0.147,2.043-0.547,4.012-1.571,5.815c-2.181,3.838-7.435,3.917-9.791,0.167
			c-1.207-1.924-1.518-4.089-1.737-6.266C58.273,40.964,58.38,39.659,58.38,38.362z"/>
		<path fill-rule="evenodd" clip-rule="evenodd" d="M23.033,15.405c1.498,0.801,3.342,0.876,5.203,0.963
			c1.047,0.049,1.588,0.833,1.53,1.837c-0.091,1.569,0.149,3.026,0.825,4.46c0.552,1.168,0.177,2.229-0.855,2.997
			c-1.225,0.911-1.975,2.043-2.22,3.595c-0.188,1.197-0.957,2-2.263,2.198c-1.413,0.213-2.559,0.869-3.415,2.074
			c-0.8,1.122-1.921,1.433-3.213,0.854c-1.205-0.54-2.455-0.674-3.773-0.663c-1.941,0.015-2.417-0.476-2.385-2.477
			c0.02-1.32-0.086-2.575-0.664-3.771c-0.575-1.193-0.288-2.265,0.688-3.046c1.192-0.957,1.975-2.073,2.202-3.61
			c0.203-1.371,1.093-2.119,2.462-2.269c1.291-0.14,2.274-0.762,3.01-1.816C20.806,15.813,21.614,15.213,23.033,15.405z"/>
		<path fill-rule="evenodd" clip-rule="evenodd" d="M98.725,27.888c-0.015-2.156,0.31-4.321-1.231-6.249
			c-0.771-0.964-0.17-2.018,0.792-2.697c1-0.703,1.934-1.435,2.551-2.536c0.791-1.413,2.024-1.551,3.316-0.808
			c1.301,0.748,2.61,1.209,4.135,1.01c1.319-0.173,2.177,0.541,2.607,1.709c0.546,1.471,1.565,2.453,2.972,2.997
			c1.289,0.5,1.694,1.431,1.534,2.673c-0.188,1.443,0.148,2.719,1.005,3.877c0.987,1.338,0.588,2.428-0.648,3.31
			c-0.933,0.663-1.787,1.364-2.337,2.403c-0.707,1.335-1.915,1.512-3.114,0.938c-1.557-0.747-3.077-1.334-4.856-1.15
			c-0.84,0.089-1.648-0.327-1.924-1.193c-0.773-2.427-2.81-3.384-4.86-4.35L98.725,27.888z"/>
		<path fill-rule="evenodd" clip-rule="evenodd" d="M74.597,5.005c-0.051,0.321-0.187,0.653-0.14,0.958
			c0.451,2.912,0.134,5.316-3.518,5.716c-0.261,0.028-0.548,0.364-0.719,0.625c-1.008,1.531-2.294,1.858-3.97,1.116
			c-1.009-0.447-2.046-0.254-3.062,0.19c-1.081,0.473-2.122,0.284-2.84-0.669c-0.833-1.107-1.936-1.678-3.228-1.988
			c-0.079-0.019-0.155-0.044-0.234-0.069c-1.114-0.347-1.808-1.318-1.332-2.213c1.022-1.922-1.9-5.017,1.764-5.995
			c1.163-0.31,2.115-0.751,2.844-1.68c0.8-1.018,1.829-1.387,3.007-0.847c1.283,0.59,2.479,0.48,3.749-0.019
			c1.071-0.421,2.055-0.255,2.795,0.769c0.744,1.03,1.734,1.62,3.042,1.775C74.057,2.829,74.808,3.578,74.597,5.005z"/>
	</g>
</g>
</svg>
