<?xml version="1.0" encoding="utf-8"?>
<!-- Generator: Adobe Illustrator 16.0.0, SVG Export Plug-In . SVG Version: 6.00 Build 0)  -->
<!DOCTYPE svg PUBLIC "-//W3C//DTD SVG 1.1//EN" "http://www.w3.org/Graphics/SVG/1.1/DTD/svg11.dtd">
<svg version="1.1" id="Layer_0908" xmlns="http://www.w3.org/2000/svg" xmlns:xlink="http://www.w3.org/1999/xlink" x="0px" y="0px"
	 width="128px" height="128px" viewBox="0 0 128 128" enable-background="new 0 0 128 128" xml:space="preserve">
<path fill-rule="evenodd" clip-rule="evenodd" d="M110.033,60.3c0.077,19.759-13.227,36.201-32.843,40.664
	c-1.587,0.36-3.212,0.553-4.817,0.828c-0.308,0.053-0.672,0.156-0.658,0.495c0.006,0.134,0.439,0.297,0.699,0.368
	c3.654,1.003,7.252,2.117,10.166,4.718c0.453,0.404,1.033,0.687,1.425,1.137c1.073,1.231,0.839,1.903-0.742,2.277
	c-0.716,0.169-1.831-0.324-1.888,0.947c-0.11,2.418-1.787,2.499-3.466,2.279c-1.59-0.208-2.05,0.464-1.983,1.849
	c0.054,1.104-0.287,2.203,0.205,3.32c0.505,1.146,0.309,2.288-0.935,2.858c-1.282,0.589-2.207-0.051-2.626-1.272
	c-0.264-0.767-0.833-1.108-1.392-1.542c-1.878-1.456-1.898-1.474-2.747,0.874c-0.494,1.367-1.223,2.57-2.175,3.657
	c-0.646,0.737-1.445,1.287-1.312,2.568c0.125,1.196-0.897,1.745-2.031,1.821c-1.227,0.083-1.578-0.756-1.634-1.761
	c-0.063-1.134-0.841-1.809-1.497-2.582c-0.922-1.09-1.772-2.213-2.374-3.543c-0.316-0.701,0.131-1.969-0.855-2.031
	c-0.63-0.04-1.281,0.909-1.99,1.291c-0.799,0.431-0.975,1.279-1.492,1.886c-0.642,0.754-1.42,1.158-2.421,0.579
	c-0.938-0.541-1.293-1.381-0.915-2.334c0.418-1.053,0.625-2.005,0.502-3.199c-0.194-1.888-0.793-2.791-2.812-2.473
	c-0.785,0.123-1.987,0.061-2.119-0.803c-0.309-2.018-1.471-2.374-3.235-2.629c-1.146-0.165-0.634-1.293-0.028-1.9
	c1.451-1.455,3.083-2.693,5.023-3.417c2.101-0.783,4.262-1.405,6.354-2.211c0.683-0.263,1.939-0.042,1.927-0.927
	c-0.009-0.643-1.207-0.378-1.876-0.494c-8.599-1.498-16.543-4.498-23.147-10.385c-7.861-7.008-12.225-15.823-12.392-26.365
	c-0.296-18.663,5.871-35.27,17.103-49.991C40.149,8.151,46.716,3.091,55.052,0.961c11.826-3.022,22.286,0.264,31.339,7.965
	c12.408,10.554,18.965,24.54,22.469,40.143c0.558,2.481,0.848,5.028,1.148,7.559C110.152,57.835,110.033,59.074,110.033,60.3z
	 M65.889,119.941c-0.213,0.198-0.426,0.396-0.639,0.595c-2.321,1.787-3.922,0.292-5.521-1.211c0.017-0.7-0.139-1.35-0.566-1.919
	c-0.045-0.398-0.069-0.801-0.144-1.194c-0.047-0.249-0.191-0.222-0.231,0.076c-0.058,0.424,0.119,0.781,0.418,1.08
	c0.099,0.667-0.264,1.471,0.573,1.916c0.343,1.729,1.46,3.048,3.017,3.407c1.193,0.274,2.065-0.936,2.41-2.195
	c0.229-0.193,0.458-0.386,0.687-0.578l0.081-0.104L65.889,119.941z M61.031,104.646c-0.256,0.028-0.512,0.056-0.769,0.084
	c0.028,0.084,0.039,0.23,0.086,0.242c0.323,0.086,0.509-0.099,0.637-0.369l0.066-0.109L61.031,104.646z M65.822,111.379
	c0.04,0.251,0.059,0.673,0.387,0.497c0.25-0.135,0.082-0.497-0.244-0.619c-0.356-1.751-1.035-3.689-2.851-3.88
	c-2.062-0.216-2.404,2.063-3.159,3.538c-0.228,0.443-0.352,0.94-0.516,1.415c-0.099,0.287-0.183,0.579,0.047,0.851
	c0.177-0.239,0.342-0.486,0.53-0.716C62.2,109.802,62.651,109.718,65.822,111.379z M52.879,113.349
	c-0.616,0.494-0.342,1.116-0.317,1.643c0.034,0.7,0.128,1.631,1.149,1.328c0.71-0.211,1.981-0.888,1.61-1.433
	C54.873,114.229,53.528,114.221,52.879,113.349z M73.63,114.275c-0.011-0.432-0.013-1.361-0.329-1.179
	c-0.861,0.496-1.488,1.345-2.475,1.791c-0.192,0.086,0.775,1.021,1.443,1.145C73.707,116.297,73.495,115.141,73.63,114.275z
	 M61.444,115.708c-0.182-0.477,0.382-1.246-0.286-1.396c-0.246-0.055-0.514,0.949-0.517,1.539c-0.002,0.488,0.182,1.311,0.477,1.252
	C61.888,116.951,61.242,116.176,61.444,115.708z M70.087,107.299c-0.403-0.502-0.853-0.695-1.354-0.723
	c-0.428-0.023-0.778,0.177-0.828,0.643c-0.044,0.406,0.019,0.797,0.606,0.605C69.024,107.658,69.535,107.483,70.087,107.299z
	 M58.229,107.763c-0.238-0.409-0.265-1.068-0.874-1.087c-0.362-0.012-1.05,0.282-1.05,0.438c0,0.856,1.01,0.359,1.37,0.882
	C57.822,108.209,58.211,108.27,58.229,107.763z M65.377,104.421c-0.088,0.142-0.279,0.332-0.24,0.414
	c0.072,0.153,0.278,0.343,0.429,0.343c0.343-0.001,0.553-0.219,0.327-0.559C65.81,104.494,65.555,104.483,65.377,104.421z"/>
</svg>
