<?xml version="1.0" encoding="utf-8"?>
<!-- Generator: Adobe Illustrator 16.0.4, SVG Export Plug-In . SVG Version: 6.00 Build 0)  -->
<!DOCTYPE svg PUBLIC "-//W3C//DTD SVG 1.1//EN" "http://www.w3.org/Graphics/SVG/1.1/DTD/svg11.dtd">
<svg version="1.1" id="Layer_1004" xmlns="http://www.w3.org/2000/svg" xmlns:xlink="http://www.w3.org/1999/xlink" x="0px" y="0px"
	 width="128px" height="128px" viewBox="0 0 128 128" enable-background="new 0 0 128 128" xml:space="preserve">
<g>
	<g>
		<path fill-rule="evenodd" clip-rule="evenodd" d="M126.063,14.688c0.432,0.419,0.58,1.093,0.629,1.703
			c0.031,0.412,0.068,0.878,0.014,1.289c-0.072,0.551-0.451,1.074-0.685,1.58c-3.067,6.652-3.424,13.873-4.646,20.907
			c-3.621,20.838-7.821,41.533-14.748,61.579c-2.11,6.113-4.906,11.888-8.388,17.333c-1.5,2.347-3.233,4.522-5.632,5.979
			c-4.303,2.612-9.687,2.494-11.773-4.104c-1.73-5.467-0.846-10.959,0.336-16.363c2.974-13.578,8.821-26.084,14.84-38.488
			c6.667-13.738,14.155-27.035,22.145-40.05c0.426-0.693,0.81-1.41,1.172-2.137c0.17-0.343,0.357-0.63,0.561-0.935
			c0.193-0.288,0.178-0.642,0.355-0.936c0.1-0.166,0.251-0.193,0.354-0.415c0.107-0.233,0.074-0.428,0.121-0.658
			c0.113-0.575,0.61-1.098,0.688-1.699c0.036-0.281-0.045-0.582-0.008-0.863c0.039-0.296,0.137-0.546,0.213-0.852
			c0.076-0.309,0.148-0.625,0.263-0.897c0.115-0.275,0.261-0.39,0.427-0.634c0.412-0.609,0.459-1.249,1.325-1.385
			c0.172-0.027,0.304,0.036,0.476-0.026c0.122-0.043,0.228-0.223,0.376-0.273c0.273-0.094,0.722-0.073,0.992,0.004
			C125.71,14.416,125.905,14.536,126.063,14.688z M114.115,37.758c0.112-0.262,0.902-0.128,0.425-0.731
			c-0.104,0.276-0.209,0.554-0.314,0.831c-0.943,0.466-1.101,1.276-0.965,2.213c-0.805,0.039-1.189,0.642-1.525,1.229
			c-9.986,17.43-19.396,35.147-25.776,54.279c-1.86,5.577-3.235,11.322-2.964,17.311c0.08,1.741,0.214,3.453,0.995,5.055
			c0.332,0.68,0.827,1.154,1.573,1.081c0.739-0.074,1.458-0.69,1.315-1.343c-0.931-4.287,2.849-6.668,3.991-10.115
			c3.099-9.355,6.6-18.581,9.522-27.988c1.838-5.912,4.669-11.527,5.479-17.754c1.068-0.786,0.766-2.036,1.048-3.089l0.146-0.174
			l-0.121,0.24c-0.371-0.035-0.745-0.069-1.118-0.104c2.916-6.051,6.222-11.95,7.342-18.706
			C114.194,39.548,114.12,38.638,114.115,37.758z M117.966,29.88c0.1-0.118,0.197-0.236,0.297-0.354
			c-0.072,0.147-0.144,0.295-0.215,0.442c-0.088,0.254-0.174,0.509-0.262,0.763C117.847,30.447,117.907,30.163,117.966,29.88z
			 M86.097,121.138c-0.113-0.167-0.228-0.334-0.341-0.5c0.015,0.098-0.007,0.242,0.05,0.283c0.104,0.076,0.252,0.092,0.384,0.131
			c1.019,1.5,2.057,1.423,3.11,0.041c4.013,0.315,5.783-2.76,7.62-5.369c3.401-4.83,5.738-10.252,7.774-15.778
			c4.13-11.215,6.917-22.815,9.451-34.464c1.91-8.778,3.449-17.635,5.137-26.462c0.128-0.667,0.309-1.747-0.292-1.879
			c-0.664-0.145-0.854,0.937-1.028,1.559c-0.984,3.48-2.59,6.734-3.208,10.37c-1.103,6.466-2.381,12.918-3.95,19.285
			c-4.328,17.539-10.003,34.55-20.563,49.507c-0.74,1.05-1.286,2.04-0.851,3.337C88.292,121.178,87.194,121.157,86.097,121.138z
			 M90.3,114.759c1.346-1.148,2.074-2.734,2.928-4.217c6.846-11.902,11.615-24.643,14.996-37.902
			c2.129-8.344,4.552-16.649,4.965-25.336c0.195-0.268,0.449-0.511,0.575-0.809c0.183-0.432,0.358-0.911-0.122-1.301
			c-0.133,0.396-0.312,0.783-0.385,1.189c-0.059,0.32,0.011,0.664,0.024,0.998c-1.631,1.475-1.864,3.598-2.509,5.515
			c-5.443,16.209-10.875,32.423-16.271,48.65c-1.465,4.401-3.765,8.548-4.119,13.294L90.3,114.759z"/>
		<path fill-rule="evenodd" clip-rule="evenodd" d="M68.511,99.265c0.104-14.93,0.227-29.861-1.039-44.76l-0.096,0.042
			c0.647,0.647,0.797,1.485,0.897,2.342c1.458,12.446,1.61,24.935,1.188,37.439c-0.057,1.671,0.229,3.467-1.047,4.899L68.511,99.265
			z"/>
		<path fill-rule="evenodd" clip-rule="evenodd" d="M65.384,115.946c0.678-5.629,1.667-11.199,3.127-16.682l-0.096-0.037
			c0.084,5.756-0.321,11.419-3.121,16.633L65.384,115.946z"/>
		<path fill-rule="evenodd" clip-rule="evenodd" d="M67.472,54.505c-1.775-4.717-1.91-9.667-2.074-14.613l-0.102,0.096
			c1.401,4.752,2.588,9.534,2.08,14.558L67.472,54.505z"/>
		<path fill-rule="evenodd" clip-rule="evenodd" d="M30.455,85.565c-1.696-1.23-2.005-3.079-2.218-4.971l-0.092,0.084
			c1.559,1.294,2.152,3.018,2.212,4.977L30.455,85.565z"/>
		<path fill-rule="evenodd" clip-rule="evenodd" d="M36.537,107.637c-0.165,0.411-0.278,0.696-0.392,0.981
			c-0.174-0.359-0.482-0.717-0.485-1.076c-0.003-0.369,0.292-0.743,0.456-1.115C36.268,106.863,36.419,107.299,36.537,107.637z"/>
		<path fill-rule="evenodd" clip-rule="evenodd" d="M35.377,102.423c-0.195,0.28-0.325,0.468-0.453,0.654
			c-0.075-0.301-0.213-0.602-0.206-0.9c0.007-0.291,0.163-0.576,0.253-0.864C35.114,101.703,35.257,102.094,35.377,102.423z"/>
		<path fill-rule="evenodd" clip-rule="evenodd" d="M31.268,88.99c1.168,0.64,1.008,1.832,1.197,2.878l0.096-0.093
			c-1.449-0.52-1.012-1.825-1.194-2.87L31.268,88.99z"/>
		<path fill-rule="evenodd" clip-rule="evenodd" d="M32.465,91.868c0.165,0.271,0.361,0.527,0.488,0.815
			c0.174,0.401,0.42,0.831-0.067,1.206c-0.11-0.389-0.255-0.771-0.321-1.166c-0.052-0.309-0.006-0.632-0.004-0.948L32.465,91.868z"
			/>
		<path fill-rule="evenodd" clip-rule="evenodd" d="M30.357,85.655c0.964,0.931,0.934,2.135,0.911,3.335l0.099-0.085
			c-1.166-0.879-0.85-2.16-0.912-3.34L30.357,85.655z"/>
		<path fill-rule="evenodd" clip-rule="evenodd" d="M26.086,75.462c1.34,0.656,0.999,1.899,1.047,3.006l0.11-0.1
			c-0.906-0.803-1.026-1.885-1.055-2.998L26.086,75.462z"/>
		<path fill-rule="evenodd" clip-rule="evenodd" d="M34.004,98.569c-0.15-0.274-0.409-0.546-0.418-0.825
			c-0.01-0.277,0.23-0.563,0.361-0.846c0.151,0.274,0.413,0.544,0.421,0.823C34.379,97.999,34.137,98.286,34.004,98.569z"/>
		<path fill-rule="evenodd" clip-rule="evenodd" d="M27.133,78.468c1.125,0.377,0.908,1.367,1.012,2.211l0.092-0.084
			c-0.663-0.594-0.855-1.397-0.994-2.227L27.133,78.468z"/>
		<path fill-rule="evenodd" clip-rule="evenodd" d="M21.913,66.114c1.049,0.209,1.019,1.092,1.163,1.863l0.09-0.084
			c-1.085-0.188-1.031-1.082-1.159-1.864L21.913,66.114z"/>
		<path fill-rule="evenodd" clip-rule="evenodd" d="M24.256,69.933c-1.097-0.287-0.985-1.221-1.09-2.039l-0.09,0.084
			c0.36,0.684,0.72,1.367,1.081,2.05L24.256,69.933z"/>
		<path fill-rule="evenodd" clip-rule="evenodd" d="M24.157,70.027c0.197,0.42,0.394,0.839,0.59,1.259
			c-1.113-0.107-0.257-0.928-0.49-1.354L24.157,70.027z"/>
		<path fill-rule="evenodd" clip-rule="evenodd" d="M26.188,75.37c-0.21-0.249-0.44-0.486-0.618-0.757
			c-0.042-0.066,0.084-0.243,0.134-0.37c0.126,0.406,0.254,0.812,0.381,1.219L26.188,75.37z"/>
		<path fill-rule="evenodd" clip-rule="evenodd" d="M20.954,63.991c1.001,0.4,0.862,1.315,0.959,2.124l0.094-0.085
			c-0.727-0.528-0.879-1.314-0.961-2.132L20.954,63.991z"/>
		<path fill-rule="evenodd" clip-rule="evenodd" d="M18.744,59.826c0.153,0.025,0.307,0.048,0.46,0.073
			c-0.12-0.059-0.239-0.117-0.359-0.177L18.744,59.826z"/>
		<path fill-rule="evenodd" clip-rule="evenodd" d="M30.238,73.339c-0.209-0.191-0.419-0.383-0.628-0.573
			c0.623-0.647,0.703-0.083,0.832,0.372L30.238,73.339z"/>
		<polygon fill-rule="evenodd" clip-rule="evenodd" points="21.046,63.897 20.759,63.653 20.954,63.991 		"/>
		<path fill-rule="evenodd" clip-rule="evenodd" d="M88.751,107.452c-0.114-0.32-0.284-0.604-0.303-0.898
			c-0.02-0.302,0.109-0.613,0.174-0.922c0.609,0.135,0.401,0.647,0.413,1.008C89.044,106.899,88.858,107.165,88.751,107.452z"/>
		<path fill-rule="evenodd" clip-rule="evenodd" d="M103.873,63.979c-0.092,0.327-0.108,0.703-0.291,0.968
			c-0.363,0.532-0.815,1.005-1.231,1.5c-0.663-1.017,0.312-1.52,0.734-2.161c0.121-0.184,0.584-0.146,0.89-0.209L103.873,63.979z"/>
		<path fill-rule="evenodd" clip-rule="evenodd" d="M90.259,99.16c0.337-1.327-0.109-2.894,1.189-3.93l-0.111-0.1
			c-0.315,1.336,0.215,2.927-1.182,3.938L90.259,99.16z"/>
		<path fill-rule="evenodd" clip-rule="evenodd" d="M90.155,99.068c0.031,0.49,0.111,0.983,0.078,1.47
			c-0.037,0.57,0.139,1.619-0.45,1.543c-0.711-0.092-0.44-1.078-0.258-1.668c0.14-0.449,0.481-0.838,0.733-1.253L90.155,99.068z"/>
		<path fill-rule="evenodd" clip-rule="evenodd" d="M92.37,91.909c0.046-0.34,0.08-0.682,0.14-1.02
			c0.058-0.333,0.141-0.664,0.214-0.994c0.771,0.244,0.43,0.771,0.238,1.171c-0.141,0.293-0.46,0.501-0.699,0.747L92.37,91.909z"/>
		<path fill-rule="evenodd" clip-rule="evenodd" d="M92.263,91.813c0.019,1.197,0.254,2.455-0.926,3.317l0.111,0.1
			c-0.004-1.194-0.271-2.461,0.922-3.321L92.263,91.813z"/>
		<path fill-rule="evenodd" clip-rule="evenodd" d="M95.531,82.681c-0.146,1.075-0.211,2.182-1.124,2.967l0.107,0.096
			c0.201-1.054-0.203-2.336,1.119-2.969L95.531,82.681z"/>
		<path fill-rule="evenodd" clip-rule="evenodd" d="M95.634,82.774c-0.057-1.176-0.248-2.391,0.949-3.193l-0.107-0.096
			c0.031,1.167,0.09,2.344-0.944,3.195L95.634,82.774z"/>
		<path fill-rule="evenodd" clip-rule="evenodd" d="M98.532,74.258c0.014,1.134,0.22,2.331-1.005,3.059l0.104,0.091
			c-0.077-1.154,0.083-2.23,1.012-3.052L98.532,74.258z"/>
		<path fill-rule="evenodd" clip-rule="evenodd" d="M105.925,58.615c0.005,1.085,0.01,2.172,0.015,3.257
			c-0.368-0.043-0.736-0.089-1.105-0.133l0.11,0.099C104.873,60.642,104.952,59.492,105.925,58.615z"/>
		<path fill-rule="evenodd" clip-rule="evenodd" d="M94.407,85.647c-0.075,0.458-0.15,0.915-0.223,1.375
			c-0.17-0.119-0.479-0.232-0.482-0.354c-0.014-0.52,0.267-0.857,0.812-0.926L94.407,85.647z"/>
		<path fill-rule="evenodd" clip-rule="evenodd" d="M100.769,70.155c0.043-0.44-0.171-0.962,0.387-1.244
			c0.055,0.131,0.193,0.314,0.15,0.379c-0.185,0.277-0.424,0.518-0.641,0.772L100.769,70.155z"/>
		<path fill-rule="evenodd" clip-rule="evenodd" d="M100.665,70.062c-0.068,0.833-0.193,1.636-1.089,2.022l0.104,0.094
			c0.154-0.785-0.041-1.761,1.088-2.023L100.665,70.062z"/>
		<path fill-rule="evenodd" clip-rule="evenodd" d="M97.527,77.316c-0.126,0.831-0.098,1.739-1.052,2.169l0.107,0.096
			c0.176-0.808,0.04-1.767,1.048-2.174L97.527,77.316z"/>
		<path fill-rule="evenodd" clip-rule="evenodd" d="M99.576,72.085c-0.124,0.832,0.138,1.849-1.044,2.173l0.11,0.098
			c0.114-0.837,0.14-1.714,1.038-2.177L99.576,72.085z"/>
		<path fill-rule="evenodd" clip-rule="evenodd" d="M104.834,61.739c-0.32,0.747-0.641,1.493-0.961,2.24l0.102,0.098
			c0-0.887-0.215-1.866,0.97-2.238L104.834,61.739z"/>
	</g>
	<g>
		<path fill-rule="evenodd" clip-rule="evenodd" d="M18.846,59.25c-0.036,0.004-0.071,0.009-0.106,0.013
			c-0.001,0.031,0.005,0.06,0.004,0.091L18.846,59.25z"/>
		<path fill-rule="evenodd" clip-rule="evenodd" d="M45.607,104.977c-2.097-10.44-5.479-20.826-9.829-30.504
			c-0.083-0.186-0.195-0.336-0.317-0.477c-0.017-0.039-0.028-0.076-0.044-0.113c0.011-0.02,0.022-0.036,0.038-0.072
			c0.045-0.101,0.019-0.567-0.005-0.684c-0.133-0.658-0.682-1.225-0.854-1.84c-0.066-0.239-0.022-0.276-0.159-0.514
			c-0.099-0.174-0.208-0.32-0.298-0.504c-0.208-0.429-0.554-0.766-0.722-1.181c-0.029-0.071-0.093-0.294-0.119-0.37
			c-0.105-0.299-0.215-0.377-0.387-0.635c-0.16-0.242-0.239-0.516-0.301-0.797c-0.071-0.325-0.184-0.384-0.354-0.668
			c-0.346-0.581-0.63-1.209-0.946-1.807c-0.636-1.203-1.282-2.399-1.937-3.592c-1.309-2.387-2.649-4.755-4.007-7.114
			c-2.543-4.415-5.149-8.793-7.728-13.187c-1.886-3.211-3.876-6.359-5.751-9.576c-1.275-2.187-2.497-4.407-3.59-6.691
			c-0.548-1.144-1.063-2.304-1.536-3.48c-0.219-0.544-0.418-1.09-0.561-1.645c-0.12-0.465-0.475-0.649-0.726-1.034
			c-0.108-0.166-0.2-0.346-0.294-0.509c-0.105-0.183-0.092-0.332-0.164-0.509c-0.147-0.362-0.378-0.569-0.631-0.876
			c-0.315-0.383-0.677-0.375-1.092-0.172c-0.701,0.342-1.468,0.868-1.857,1.512c-0.473,0.783,0.152,2.026,0.461,2.78
			c0.429,1.047,0.831,2.108,1.239,3.164c0.812,2.104,1.546,4.253,1.873,6.493c2.09,14.308,3.76,28.666,7.063,42.75
			c3.267,13.93,7.037,27.601,13.785,40.349c1.411,2.666,3.884,5.163,6.086,7.253c2.724,2.587,6.833,5.544,10.389,4.011
			c4.153-1.792,3.308-5.11,3.666-9.204C46.311,112.002,46.305,108.449,45.607,104.977z M5.153,29.207l0.142-0.422l0.146,0.424
			L5.153,29.207z M41.755,120.158c-0.897,1.295-2.056,2.582-3.439,0.453c-0.056,0.008-0.106,0.016-0.163,0.021
			c0.003-0.032-0.002-0.061,0-0.094c-2.566,0.609-4.111-1.02-5.696-2.625c-4.252-4.312-6.496-9.789-8.641-15.26
			c-5.965-15.199-9.639-31.039-12.718-47.026c-1.046-5.433-1.966-10.891-2.918-16.341c-0.111-0.634-0.293-1.669,0.333-1.78
			c0.69-0.122,0.867,0.946,1.112,1.558c2.407,5.972,3.267,12.329,4.485,18.587c2.721,13.974,6.784,27.521,12.242,40.674
			c2.603,6.271,5.898,12.131,9.683,17.737c0.943,1.396,2.27,2.585,2.117,4.476c0.036-0.008,0.067-0.006,0.104-0.016
			c0.02,0.032,0.039,0.057,0.06,0.088c1.394-0.175,2.364-0.49,2.143-2.485c-0.329-2.976-1.694-5.433-2.744-8.132
			C31.256,93.379,25.497,76.5,20.517,59.37c-0.037,0.005-0.074,0.009-0.11,0.014l-0.098-0.381l0.188,0.298
			c0.006,0.023,0.014,0.046,0.021,0.069c0.285-0.035,0.57-0.071,0.855-0.106c0.046-2.732-1.711-4.743-2.89-6.961
			c-2.451-4.61-4.057-9.49-5.026-14.595c-0.061-0.1-0.123-0.198-0.183-0.298c-0.035-0.049-0.06-0.074-0.091-0.114
			c-0.142-0.001-0.283-0.003-0.294-0.041c-0.086-0.308,0.038-0.287,0.294,0.041c0.069,0,0.137,0.001,0.192,0.006
			c0.025,0.136,0.056,0.27,0.082,0.406c1.547,2.551,3.182,5.056,4.598,7.678c2.584,4.789,5.128,9.599,7.674,14.408
			c1.534,2.9,2.957,5.915,4.658,8.717c0.156,0.257,0.215,0.564,0.325,0.822c0.253,0.592,0.592,1.213,0.822,1.807
			c0.125,0.322-0.711,0.605-0.549,0.914c0.122,0.23-0.483,0.367-0.483,0.492c0,0.002,0,0.004,0,0.006
			c0,0.258,1.312,0.352,1.389,0.691c0.037,0.164,0.541,0.282,0.574,0.393c0.113,0.713,0.59,1.383,0.875,2.035
			c-0.014,0.014,0.107,0.027,0.09,0.039l0.114,0.014c0.297,0.674,0.67,1.332,0.978,1.998c2.465,5.338,4.54,10.833,6.354,16.415
			c1.496,4.602,2.673,9.297,3.237,14.114C44.604,112.461,44.249,116.556,41.755,120.158z M14.265,47.829
			c0.001,0.059-0.003,0.12-0.004,0.179c2.261,2.676,2.951,6.13,3.938,9.265c5.387,17.106,10.99,34.132,17.161,50.97
			c0.476,1.302,0.981,2.588,0.765,4.017c0.579,0.036,0.832,0.397,0.777,0.919c-0.016,0.166-0.335,0.299-0.516,0.445
			c-0.109-0.434-0.221-0.869-0.331-1.305c-2.869-2.405-4.275-5.815-5.822-9.025C22.52,87.301,18.096,70.24,14.36,52.984
			c-0.345-1.592-0.102-3.311-0.099-4.976c-0.03-0.036-0.054-0.075-0.084-0.11c0.001-0.037,0.005-0.073,0.007-0.109
			c-0.486-0.191-0.727-0.591-0.81-1.085c-0.086-0.514-0.075-1.021,0.514-1.281c0.12,0.316,0.315,0.624,0.341,0.946
			c0.04,0.47-0.018,0.946-0.046,1.42C14.213,47.8,14.234,47.819,14.265,47.829z"/>
	</g>
	<g>
		<path fill-rule="evenodd" clip-rule="evenodd" d="M73.493,51.93c-0.59-4.667-1.558-9.284-2.585-13.883
			c-1.135-5.079-2.347-10.146-3.21-15.272c-0.432-2.561-0.776-5.137-0.979-7.722c-0.103-1.299-0.169-2.602-0.194-3.904
			c-0.008-0.396,0.291-2.105-0.346-2.165c-0.016,0.179-0.136,0.328-0.214,0.492c0.108,0.07,0.204,0.15,0.272,0.222
			c0.341,0.359,0.298,0.807,0.288,1.256l-0.561-1.478c-0.066-0.043-0.141-0.071-0.214-0.1c0.01-0.027,0.029-0.049,0.033-0.078
			c0.002-0.018,0.001-0.042,0.003-0.06c0.126-0.099,0.245-0.199,0.315-0.309c0.19-0.299-0.03-0.685-0.104-0.962
			c-0.103-0.387-0.156-0.773-0.258-1.161c-0.169-0.65-0.364-1.302-0.538-1.954c-0.055-0.206-0.235-0.532-0.279-0.737
			c-0.076-0.353-0.084-0.591-0.264-0.917c-0.282-0.512-0.583-1.08-0.993-1.542c-0.206-0.233-0.35-0.444-0.679-0.516
			c-0.137-0.029-0.297,0.026-0.431-0.018c-0.145-0.048-0.217-0.203-0.391-0.233c-0.633-0.108-1.07,0.819-1.213,1.249
			c-0.477,1.424-0.187,3.173-0.154,4.64c0.085,3.825,0.914,7.686,0.058,11.469c-3.551,15.677-7.601,31.024-9.429,46.955
			c-1.552,13.526-1.656,27.501,0.535,41.048c0.83,5.131,1.52,10.811,5.743,14.764c1.357,1.271,3.067,2.268,5.02,2.467
			c0.905,0.093,1.823,0.011,2.702-0.207c0.463-0.115,0.911-0.27,1.352-0.445c0.26-0.104,0.706-0.193,0.884-0.391
			c-0.159-0.093-1.951-0.834-2.033-0.471c-0.02,0.092-0.039,0.184-0.061,0.275c-0.397,0.104-0.696-0.062-1.071-0.111
			c-0.252-0.032-0.376,0.021-0.639-0.104c-0.393-0.184-0.752-0.223-1.09-0.527c-0.011-0.01,0.184-0.277,0.33-0.343
			c1.341-0.603,3.161,0.034,4.145,1.165c0.468,0.137,0.938,0.275,1.039,0.274c3.112-0.942,3.438-4.216,4.49-6.732
			c1.629-3.894,2.655-7.945,3.09-12.167C77.65,86.346,75.664,69.092,73.493,51.93z M61.711,107.533
			c-0.557,0.059-0.444-1.151-0.561-1.809c-2.662-15.143-2.043-30.344-0.772-45.551c0.085-1.023,0.402-2.038,0.698-3.029
			c0.161-0.535-0.041-1.376,0.861-1.401c0.066-0.001,0.224,0.95,0.229,1.458c0.072,7.096,0.127,14.399,0.184,21.497
			c0.007,0.865,0,1.801,0,2.801c0.034,0,0.067,0,0.1,0c0,7,0.014,16.068-0.023,24.205C62.424,106.439,62.712,107.429,61.711,107.533
			z M73.683,97.392c-0.147,4.683-0.895,9.267-1.916,13.82c-0.496,2.206-1.325,4.29-2.491,6.218c-0.61,1.012-1.249,2.26-2.727,1.963
			c-1.782-0.357-0.979-1.895-1.144-2.977c-0.047-0.307-0.069-0.617-0.1-0.927c-1.381,0.321-1.53-0.345-1.539-1.636
			c-0.044-6.74-0.24-13.479-0.349-20.221c-0.267-16.621,0.401-33.269-0.92-49.854c-0.388-4.887,0.814-9.972-1.395-14.685
			c-0.014,0.017-0.027,0.034-0.042,0.05c0.483,5.644,0.421,11.236-0.401,16.893c-3.048,20.983-4.718,42.013-0.61,63.074
			c0.529,2.711,1.358,5.363,1.989,8.056c0.191,0.82,0.323,1.783-0.773,2.139c-0.743,0.241-1.322-0.239-1.795-0.754
			c-1.303-1.414-2.396-2.984-2.998-4.82c-1.241-3.791-2.239-7.639-2.507-11.642c-1.638-24.422,2.027-48.361,6.589-72.216
			c0.051-0.266,0.307-0.492,0.507-0.729c-0.005-0.059-0.008-0.118-0.013-0.177c0.02,0.042,0.035,0.085,0.055,0.127
			c0.014-0.017,0.029-0.033,0.042-0.05c-0.743-2.388,2.108-3.489,1.972-5.796c-0.118-2.002-0.125-4.01-0.069-6.015
			c0.026-0.934,0.204-1.964,0.086-2.891c-0.038-0.292-0.132-0.53-0.084-0.83c0.073-0.454,0.306-0.915,0.519-1.317
			c0.034-0.064,0.077-0.121,0.117-0.181c0.307-0.024,0.367,0.168,0.669,0.205c0.011,0.27,0.145,0.581,0.145,0.839
			c0,0.205,0,0.409,0,0.613c0,0.146,0.174,0.352,0.205,0.494c0.049,0.231,0.293,0.379,0.287,0.628
			c-0.004,0.17-0.03,0.326-0.071,0.487c-0.117,0.454-0.105,0.928-0.148,1.394c-0.474,5.134-0.934,10.273-1.148,15.426
			c-0.097,2.358,0.031,5.044,1.667,7.18c0.052-3.716,0.088-7.434,0.184-11.15c0.014-0.512-0.379-1.256,0.485-1.542
			c0.144,0.479,0.314,0.954,0.428,1.441c1.604,6.895,2.593,13.897,3.577,20.896C72.226,64.998,74.191,81.1,73.683,97.392z"/>
		<path fill-rule="evenodd" clip-rule="evenodd" d="M65.294,115.389c0.004,0.033,0.008,0.066,0.012,0.101
			c0.027-0.007,0.049-0.007,0.078-0.015L65.294,115.389z"/>
		<path fill-rule="evenodd" clip-rule="evenodd" d="M65.397,39.42c-0.037-0.046-0.062-0.096-0.099-0.142
			c-0.001,0.08-0.002,0.159-0.003,0.238L65.397,39.42z"/>
	</g>
</g>
</svg>
