<?xml version="1.0" encoding="utf-8"?>
<!-- Generator: Adobe Illustrator 16.0.4, SVG Export Plug-In . SVG Version: 6.00 Build 0)  -->
<!DOCTYPE svg PUBLIC "-//W3C//DTD SVG 1.1//EN" "http://www.w3.org/Graphics/SVG/1.1/DTD/svg11.dtd">
<svg version="1.1" id="Layer_1005" xmlns="http://www.w3.org/2000/svg" xmlns:xlink="http://www.w3.org/1999/xlink" x="0px" y="0px"
	 width="128px" height="128px" viewBox="0 0 128 128" enable-background="new 0 0 128 128" xml:space="preserve">
<g>
	<path fill-rule="evenodd" clip-rule="evenodd" d="M127.902,72.372c-4.418-1.791-8.743-3.968-13.617-4.184
		c-9.301-0.409-17.768,1.801-24.263,8.883c-3.66,3.99-4.231,9.271-4.995,14.407c-0.731,4.925-0.427,9.971-1.72,14.815
		c-1.799,6.733-5.279,12.003-12.541,13.808c-0.983,0.245-12.336,0.252-13.33,0.015c-6.29-1.503-9.97-5.775-11.928-11.629
		c-1.772-5.3-1.806-10.897-2.327-16.405c-0.49-5.183-1.525-10.2-4.65-14.566c-1.923-2.688-4.561-4.421-7.432-5.869
		c-9.857-4.969-19.678-4.891-29.452,0.255c-0.467,0.246-1.024,0.935-1.443,0.387c-0.387-0.507,0.376-0.914,0.744-1.296
		c4.752-4.939,10.761-7.102,17.41-7.551c12.375-0.837,23.026,3.307,32.26,11.458c4.974,4.393,9.135,9.429,12.466,15.146
		c0.813,1.395,1.287,1.311,2.024,0.003c4.026-7.133,9.302-13.233,15.94-17.991c11.103-7.96,23.225-11.221,36.704-7.001
		c3.469,1.086,6.482,2.955,9.04,5.532c0.494,0.497,1.284,0.892,1.064,1.832L127.902,72.372z"/>
	<path fill-rule="evenodd" clip-rule="evenodd" d="M50.496,17.69c1.894-5.277,5.641-8.583,11.063-9.684
		c5.725-1.163,10.299,1.189,13.894,5.548c0.986,1.196,2.021,2.464,2.259,4.116c-2.323-1.307-4.655-0.849-6.955,0.034
		c-1.155,0.443-1.775,1.342-1.688,2.636c0.08,1.172,0.747,2.035,1.819,2.229c2.076,0.375,4.152,0.046,5.948-1.065
		c1.493-0.924,0.698-2.557,0.81-3.897c2.566,3.629,3.164,7.911,3.938,12.114c1.748,9.473,1.941,19.064,2.035,28.658
		c0.03,3.125-0.406,6.171-1.639,9.089c-0.607,1.438-1.465,2.543-2.761,3.44c-0.97,0.673-1.617,0.911-2.699,0.129
		c-1.329-0.958-3.042-0.902-4.632-0.961c-1.325-0.048-2.438,0.492-2.757,1.909c-0.338,1.498,0.368,2.513,1.717,3.164
		c0.771,0.373,2.163-0.007,2.207,1.136c0.024,0.623-0.984,1.282-1.522,1.927c-2.349,2.813-4.66,5.65-6.469,8.858
		c-0.572,1.015-1.063,1.492-1.9,0.091c-2.024-3.389-4.359-6.554-7.074-9.443c-1.445-1.536-1.365-1.801,0.768-2.413
		c1.661-0.478,2.403-1.519,2.208-3.087c-0.214-1.715-1.521-2.288-3.103-2.137c-1.211,0.114-2.399,0.498-3.609,0.578
		c-0.937,0.062-1.374,1.541-2.476,0.832c-1.419-0.915-2.883-1.797-3.575-3.479c-1.084-2.642-1.703-5.415-1.685-8.239
		c0.066-10.059,0.09-20.136,1.912-30.078c0.708-3.867,1.447-7.76,3.326-11.303c0.175-0.333,0.264-0.696,0.701-0.768
		c0.147,1.584-0.665,3.578,1.51,4.354c1.396,0.498,2.892,0.77,4.412,0.729c1.406-0.037,2.365-0.694,2.572-2.09
		c0.216-1.453-0.361-2.566-1.854-3.037C54.955,16.871,52.708,16.324,50.496,17.69z M54.431,29.363
		c1.792,0.125,3.244-0.84,3.432-2.392c0.239-1.963-1.082-2.604-2.629-3.005c-0.901-0.234-1.812-0.473-2.734-0.588
		c-1.607-0.198-3.419,1.106-3.429,2.583c-0.011,1.584,0.945,2.583,2.487,2.931C52.467,29.098,53.4,29.198,54.431,29.363z
		 M51.598,62.659c0.852-0.129,1.869-0.249,2.871-0.44c1.563-0.298,2.485-1.253,2.465-2.864c-0.018-1.435-1.459-2.591-3.128-2.541
		c-1.017,0.03-2.036,0.201-3.04,0.384c-1.907,0.348-2.739,1.379-2.51,3.015C48.477,61.787,49.633,62.677,51.598,62.659z
		 M76.52,62.641c1.823,0.127,3.279-0.886,3.512-2.443c0.24-1.617-0.791-2.709-2.876-3.028c-0.922-0.141-1.846-0.343-2.771-0.361
		c-1.711-0.035-3.109,1.111-3.131,2.547c-0.025,1.66,0.919,2.568,2.499,2.854C74.671,62.376,75.598,62.497,76.52,62.641z
		 M75.961,42.433c0-0.014,0-0.028,0-0.042c0.651,0,1.313,0.07,1.953-0.014c1.783-0.235,2.758-1.36,2.633-2.989
		c-0.134-1.739-1.291-2.419-2.836-2.457c-1.203-0.03-2.421,0.109-3.614,0.294c-1.466,0.228-2.476,1.149-2.352,2.645
		c0.13,1.548,1.175,2.484,2.817,2.56C75.028,42.451,75.493,42.433,75.961,42.433z M73.325,29.399
		c0.323-0.034,0.603-0.052,0.879-0.094c0.828-0.127,1.665-0.222,2.481-0.405c1.682-0.376,2.636-1.729,2.327-3.224
		c-0.318-1.548-1.641-2.509-3.314-2.285c-1.104,0.147-2.205,0.389-3.27,0.712c-1.395,0.423-2.284,1.356-2.025,2.905
		C70.672,28.615,71.765,29.36,73.325,29.399z M76.576,43.63c0,0.011,0,0.023,0,0.034c-0.654,0-1.32-0.083-1.958,0.017
		c-1.417,0.221-2.473,0.99-2.638,2.479c-0.174,1.573,0.91,2.465,2.224,2.828c1.435,0.396,3,0.413,4.441,0.059
		c1.357-0.333,2.335-1.361,2.188-2.87c-0.142-1.444-1.11-2.329-2.576-2.534C77.706,43.566,77.137,43.63,76.576,43.63z
		 M51.825,42.383c0,0.016,0,0.031,0,0.046c0.653,0,1.309,0.032,1.96-0.006c1.56-0.091,2.407-1.014,2.499-2.5
		c0.093-1.507-0.672-2.519-2.227-2.709c-1.293-0.159-2.608-0.323-3.9-0.25c-1.48,0.084-2.423,0.966-2.438,2.534
		c-0.017,1.617,0.756,2.667,2.429,2.874C50.698,42.441,51.265,42.383,51.825,42.383z M53.912,63.455
		c-0.318,0.051-0.963,0.147-1.607,0.257c-0.368,0.062-0.747,0.104-1.097,0.226c-1.452,0.507-2.394,1.991-2.057,3.199
		c0.406,1.457,1.887,2.419,3.432,2.186c0.829-0.125,1.651-0.297,2.467-0.486c2.164-0.504,3.061-1.524,2.806-3.154
		C57.609,64.098,56.385,63.338,53.912,63.455z M74.355,63.455c-2.556-0.123-3.699,0.61-3.962,2.259
		c-0.256,1.609,0.646,2.616,2.813,3.112c0.905,0.209,1.812,0.492,2.729,0.548c1.598,0.096,2.752-0.706,3.044-2.276
		c0.288-1.549-0.392-2.745-2.001-3.167C75.992,63.674,74.968,63.563,74.355,63.455z M51.972,43.664c0-0.02,0-0.039,0-0.06
		c-0.47,0-0.942-0.021-1.41,0.004c-1.958,0.108-3.168,1.243-3.103,2.888c0.06,1.507,1.229,2.587,3.054,2.678
		c1.123,0.057,2.289,0.112,3.37-0.129c1.373-0.307,2.386-1.203,2.281-2.78c-0.102-1.51-1.048-2.353-2.503-2.586
		C53.111,43.59,52.536,43.664,51.972,43.664z M75.305,35.659c0,0.02,0.001,0.039,0.001,0.059c0.837-0.06,1.7-0.009,2.504-0.205
		c1.402-0.339,2.323-1.21,2.218-2.779c-0.111-1.666-1.103-2.523-2.72-2.608c-1.504-0.08-2.989,0.207-4.416,0.634
		c-1.229,0.368-1.71,1.427-1.637,2.637c0.075,1.263,0.823,2.07,2.097,2.246C73.991,35.731,74.653,35.659,75.305,35.659z
		 M76.309,50.37c-0.561,0-1.121-0.011-1.682,0.002c-1.621,0.039-2.776,0.816-2.887,2.447c-0.113,1.668,1.002,2.505,2.592,2.725
		c0.557,0.076,1.112,0.15,1.669,0.209c3.012,0.315,4.386-0.393,4.551-2.336C80.737,51.236,79.616,50.432,76.309,50.37z
		 M64.02,67.737c0-0.017,0-0.033,0-0.05c0.654,0,1.323,0.091,1.959-0.019c1.43-0.249,2.438-1.073,2.497-2.588
		c0.062-1.613-1.071-2.317-2.475-2.538c-0.914-0.144-1.865-0.105-2.796-0.071c-2.245,0.083-3.419,0.926-3.489,2.439
		c-0.075,1.62,1.278,2.726,3.462,2.824C63.457,67.748,63.739,67.737,64.02,67.737z M64.736,24.035c-1.108,0-1.581-0.043-2.043,0.007
		c-1.928,0.207-3.07,1.252-2.985,2.694c0.086,1.434,1.328,2.503,3.131,2.592c1.024,0.051,2.068,0.07,3.079-0.071
		c1.43-0.203,2.461-1.027,2.561-2.542c0.106-1.628-1.032-2.292-2.428-2.571C65.415,24.017,64.749,24.035,64.736,24.035z
		 M52.383,35.687c1.081,0,1.746,0.065,2.392-0.014c1.3-0.16,2.028-1.05,2.149-2.251s-0.469-2.292-1.64-2.663
		c-1.511-0.479-3.115-0.81-4.715-0.585c-1.315,0.184-2.201,0.935-2.32,2.406c-0.127,1.569,0.58,2.54,2.042,2.902
		C51.1,35.681,51.966,35.65,52.383,35.687z M52.225,50.396c-0.561,0-1.125-0.04-1.682,0.007c-1.939,0.165-2.843,1.057-2.837,2.747
		c0.004,1.662,0.985,2.668,2.903,2.69c1.298,0.015,2.611-0.191,3.895-0.42c1.328-0.237,1.832-1.276,1.804-2.485
		c-0.03-1.333-0.656-2.351-2.122-2.524C53.541,50.334,52.879,50.397,52.225,50.396z M63.923,61.086c0,0.009,0,0.019,0,0.028
		c0.655,0,1.312,0.03,1.967-0.006c1.501-0.084,2.552-0.79,2.58-2.377c0.026-1.518-0.869-2.488-2.374-2.625
		c-1.393-0.127-2.817-0.135-4.208,0.006c-1.421,0.144-2.125,1.234-2.153,2.543c-0.03,1.379,0.793,2.271,2.223,2.42
		C62.606,61.142,63.268,61.086,63.923,61.086z M64.076,54.868c0-0.011,0-0.024,0-0.037c0.654,0,1.317,0.065,1.963-0.013
		c1.508-0.183,2.414-1.092,2.432-2.594c0.02-1.586-1.01-2.331-2.521-2.422c-0.84-0.051-1.685-0.047-2.527-0.035
		c-2.558,0.036-3.693,0.779-3.708,2.4c-0.016,1.742,1.292,2.672,3.798,2.7C63.701,54.87,63.889,54.868,64.076,54.868z
		 M64.292,11.334c0,0.015-0.001,0.029-0.002,0.042c-0.654,0-1.311-0.011-1.965,0.003c-1.545,0.033-2.546,0.793-2.573,2.356
		c-0.025,1.48,0.813,2.534,2.333,2.678c1.391,0.131,2.819,0.128,4.205-0.031c1.385-0.16,2.146-1.191,2.19-2.529
		c0.048-1.422-0.822-2.235-2.226-2.413C65.607,11.36,64.947,11.368,64.292,11.334z M63.899,74.024
		c3.139,0.007,4.63-0.767,4.677-2.426c0.051-1.81-1.574-2.758-4.699-2.738c-2.799,0.018-4.148,0.856-4.19,2.604
		C59.646,73.186,61.013,74.017,63.899,74.024z M63.992,30.489c0-0.006,0-0.012,0-0.019c-0.469,0-0.937,0.001-1.406-0.001
		c-1.657-0.01-2.688,0.762-2.854,2.442c-0.141,1.433,0.899,2.511,2.65,2.668c1.207,0.108,2.446,0.111,3.647-0.037
		c1.433-0.176,2.516-0.962,2.444-2.56c-0.066-1.509-0.965-2.393-2.516-2.487C65.305,30.456,64.647,30.489,63.992,30.489z
		 M64.06,22.679c0,0.012,0,0.024,0,0.037c0.56,0,1.121,0.021,1.68-0.004c1.595-0.075,2.871-0.866,2.855-2.46
		c-0.015-1.501-1.122-2.531-2.769-2.588c-1.304-0.045-2.618-0.066-3.915,0.046c-1.428,0.125-2.196,1.234-2.269,2.455
		c-0.078,1.303,0.803,2.278,2.184,2.494C62.553,22.773,63.313,22.679,64.06,22.679z M64.581,80.435
		c0.113-0.005,0.77-0.023,1.424-0.065c1.573-0.098,2.416-1.005,2.474-2.516c0.055-1.456-0.935-2.199-2.228-2.479
		c-0.721-0.155-1.492-0.102-2.241-0.102c-2.924,0.004-4.247,0.771-4.305,2.474C59.641,79.646,60.931,80.448,64.581,80.435z
		 M64.196,36.888c-0.561,0-1.122-0.025-1.68,0.005c-1.605,0.089-2.778,0.852-2.757,2.528c0.019,1.6,1.029,2.538,2.707,2.588
		c0.561,0.017,1.121,0.021,1.681,0.02c2.983-0.002,4.403-0.886,4.352-2.706C68.45,37.626,67.141,36.88,64.196,36.888z
		 M64.021,48.347c3.212,0.002,4.507-0.732,4.48-2.539c-0.024-1.794-1.456-2.644-4.469-2.652c-2.915-0.008-4.401,0.951-4.32,2.787
		C59.789,47.666,61.007,48.345,64.021,48.347z"/>
</g>
</svg>
