<?xml version="1.0" encoding="utf-8"?>
<!-- Generator: Adobe Illustrator 16.0.4, SVG Export Plug-In . SVG Version: 6.00 Build 0)  -->
<!DOCTYPE svg PUBLIC "-//W3C//DTD SVG 1.1//EN" "http://www.w3.org/Graphics/SVG/1.1/DTD/svg11.dtd">
<svg version="1.1" id="Layer_1008" xmlns="http://www.w3.org/2000/svg" xmlns:xlink="http://www.w3.org/1999/xlink" x="0px" y="0px"
	 width="128px" height="128px" viewBox="0 0 128 128" enable-background="new 0 0 128 128" xml:space="preserve">
<g id="j3Mbc2.tif">
	<g>
		<path fill-rule="evenodd" clip-rule="evenodd" d="M71.702,122.385c-3.419,0.199-8.817,0.256-14.211,0.074
			c-17.79-0.598-35.218-3.279-52.053-9.264c-0.533-0.189-1.414-0.188-1.442-0.815c-0.024-0.55,0.812-0.776,1.306-1.068
			c6.711-3.941,13.441-7.85,20.151-11.794c6.456-3.793,12.933-7.549,19.706-10.752c4.307-2.037,8.723-3.77,13.447-4.667
			c6.462-1.227,12.639-0.153,18.66,2.157c6.26,2.405,12.084,5.688,17.917,8.977c9.237,5.206,18.266,10.769,27.457,16.051
			c0.259,0.148,0.523,0.287,0.768,0.455c0.271,0.188,0.743,0.247,0.713,0.659c-0.031,0.418-0.499,0.426-0.809,0.536
			c-9.317,3.326-18.869,5.724-28.642,7.265C87.71,121.295,80.716,122.002,71.702,122.385z"/>
		<path fill-rule="evenodd" clip-rule="evenodd" d="M65.485,5.432c0.307,0.021,0.467,0.224,0.647,0.388
			c2.827,2.563,5.525,5.252,8.157,8.021c2.76,2.908,5.534,5.811,8.097,8.884c5.587,6.696,10.857,13.63,15.538,21.012
			c8.994,14.177,16.106,29.244,21.618,45.082c2.25,6.461,4.222,13.01,5.922,19.64c0.037,0.144,0.087,0.29,0.09,0.437
			c0.008,0.33,0.379,0.712,0.043,0.966c-0.32,0.244-0.644-0.117-0.926-0.276c-3.58-2.025-7.157-4.06-10.728-6.102
			c-8.477-4.849-17.013-9.595-25.239-14.865c-4.766-3.053-9.363-6.323-13.368-10.37c-5.292-5.35-8.181-11.844-9.314-19.196
			c-1.463-9.503-1.264-19.081-1.15-28.644c0.091-7.883,0.272-15.764,0.298-23.648C65.172,6.309,64.98,5.762,65.485,5.432z"/>
		<path fill-rule="evenodd" clip-rule="evenodd" d="M63.057,26.479c0.081,8.399,0.208,15.244-0.066,22.082
			c-0.205,5.101-0.647,10.179-1.989,15.149c-1.792,6.632-5.419,12.055-10.524,16.563c-5.566,4.915-11.842,8.815-18.179,12.614
			c-9.481,5.681-19.145,11.049-28.737,16.54c-0.258,0.147-0.512,0.306-0.775,0.441c-0.374,0.191-0.577,0.081-0.514-0.351
			c0.043-0.294,0.131-0.58,0.206-0.867c3.724-14.435,8.601-28.459,14.958-41.951c8.273-17.555,18.72-33.676,31.749-48.097
			c3.857-4.27,7.894-8.355,12.08-12.299C61.483,6.1,61.705,5.9,61.933,5.709c0.453-0.378,0.795-0.457,0.802,0.316
			c0.007,0.843,0.025,1.686,0.029,2.528C62.796,15.049,63.123,21.54,63.057,26.479z"/>
	</g>
</g>
</svg>
