<?xml version="1.0" encoding="utf-8"?>
<!-- Generator: Adobe Illustrator 16.0.4, SVG Export Plug-In . SVG Version: 6.00 Build 0)  -->
<!DOCTYPE svg PUBLIC "-//W3C//DTD SVG 1.1//EN" "http://www.w3.org/Graphics/SVG/1.1/DTD/svg11.dtd">
<svg version="1.1" id="Layer_1104" xmlns="http://www.w3.org/2000/svg" xmlns:xlink="http://www.w3.org/1999/xlink" x="0px" y="0px"
	 width="128px" height="128px" viewBox="0 0 128 128" enable-background="new 0 0 128 128" xml:space="preserve">
<g>
	<g id="nO0By6.tif_17_">
		<g>
			<polygon points="19.68,58.274 19.788,58.361 19.71,58.263 			"/>
			<path d="M11.468,24.344c2.45,2.067,4.524,4.756,8.799,4.987c-1.307-2.143-2.416-3.967-3.528-5.791l0.02,0.046
				c-0.272-0.272-0.546-0.546-0.818-0.818l0.047,0.021c1.219-1.541,0.481-3.922,2.241-5.23l-0.047-0.057
				c0.205,0.951,0.408,1.903,0.692,3.212c2.93-1.974,4.76-4.684,7.021-6.923c2.893-2.869,6.007-4.48,10.341-4.235
				c6.902,0.395,13.729,0.534,20.368,2.988c4.119,1.521,8.537,0.469,12.609-0.731c7.822-2.301,14.28-0.643,19.744,5.441
				c2.27,2.526,4.465,5.122,8.801,4.226c2.208-0.456,4.471,1.485,6.168,3.208c1.34,1.362,2.521,1.399,3.874,0.184
				c0.159,0.159,0.318,0.317,0.476,0.477c-3.521,5.709-9.297,8.1-15.176,10.442c8.404,0.076,16.297-1.563,23.012-7.281
				c-1.715,4.639-7.202,7.738-13.911,8.821c-10.097,1.63-20.037-0.176-30.021-1.065c-11.941-1.062-23.8-2.762-35.862-2.803
				c-7.812-0.025-15.771-1.138-22.986-4.785c-2.688-1.355-3.814-4.035-5.607-6.826c2.036-0.097,2.867,0.783,3.686,1.69l0.045-0.021
				c-0.011,0.258-0.021,0.513-0.031,0.771L11.468,24.344z"/>
			<path d="M109.469,22.788c0.071,0.646,0.063,1.266-0.566,1.673c-0.116-0.117-0.23-0.237-0.348-0.354
				c0.322-0.422,0.644-0.844,0.967-1.265L109.469,22.788z"/>
			<path d="M3.044,31.167c0.156,0.055,0.313,0.112,0.37,0.133c-0.044-0.026-0.184-0.104-0.321-0.184L3.044,31.167z"/>
			<path d="M4.631,34.93c0-0.285,0-0.569,0-0.854C4.631,34.36,4.631,34.645,4.631,34.93z"/>
			<path d="M4.683,34.163c-0.277-0.276-0.554-0.554-0.831-0.831C4.129,33.609,4.405,33.887,4.683,34.163z"/>
			<path d="M3.944,33.383c-0.287,0-0.573,0.001-0.859,0C3.371,33.383,3.657,33.383,3.944,33.383z"/>
			<path d="M11.407,23.54c0.021,0.27,0.038,0.535,0.061,0.803l-0.047-0.054c0.011-0.258,0.021-0.513,0.031-0.771L11.407,23.54z"/>
			<path d="M108.9,24.461c-0.209,0.294-0.418,0.59-0.627,0.885c-0.156-0.158-0.315-0.316-0.476-0.476
				c0.255-0.255,0.503-0.51,0.757-0.764C108.671,24.224,108.785,24.344,108.9,24.461z"/>
			<path d="M109.521,22.842c0.037-0.09,0.061-0.189,0.119-0.263c0.03-0.039,0.127-0.024,0.189-0.035
				c-0.117,0.081-0.241,0.162-0.361,0.244L109.521,22.842z"/>
			<path d="M18.228,17.558l-0.047-0.056L18.228,17.558z"/>
			<path d="M22.678,25.069l0.05,0.042L22.678,25.069z"/>
			<path d="M23.51,24.358l-0.04-0.042L23.51,24.358z"/>
			<path d="M58.944,15.97l0.045,0.04L58.944,15.97z"/>
		</g>
	</g>
	<g>
		<path d="M121.827,49.193c7.546-2.281,7.517-2.382,4.034-9.682c-0.592-1.245-1.163-2.506-1.836-3.708
			c-0.982-1.76-0.864-3.472-0.463-5.426c2.889-14.064,3.313-12.49-8.42-18.524C99.518,3.819,82.438,1.809,65.109,1.487
			c-9.963-0.137-19.824,1.02-29.625,2.525C25.062,5.615,14.782,7.895,5.237,12.697c-2.009,1.01-2.855,2.161-2.901,4.6
			c-0.081,4.11-0.904,8.203-1.368,12.309c-0.377,3.371-0.173,6.835,3.04,8.672c5.805,3.32,8.072,6.942,6.017,14.294
			c-3.152,11.293-0.428,22.656,3.513,33.545c0.77,2.128,0.67,3.762-0.745,5.527c-3.766,4.701-7.504,9.436-11.119,14.254
			c-2.95,3.933-2.307,6.309,2.242,8.3c3.785,1.653,7.804,1.686,11.848,1.116c10.304-1.45,20.387-1.709,30.224,2.949
			c5.052,2.396,10.662,3.651,16.059,5.282c13.566,4.099,26.896,4.657,39.7-2.763c6.729-3.902,13.584-7.525,20.914-10.279
			c5.418-2.033,5.807-4.234,1.623-8.48c-3.823-3.875-6.525-8.246-7.646-13.553c-0.248-1.171-0.953-2.561,0.106-3.596
			c2.493-2.43,2.548-5.479,1.937-8.438c-1.701-8.209-0.191-16.239,0.892-24.312C119.766,50.711,120.064,49.726,121.827,49.193z
			 M23.422,99.818l0.044-0.049L23.422,99.818z M37.913,79.646c-1.137,0-2.124-0.295-2.962-0.888
			c-0.738-0.521-1.295-1.223-1.67-2.104c-0.375-0.882-0.562-1.927-0.562-3.134c0-0.885,0.122-1.709,0.365-2.475
			c0.243-0.765,0.596-1.429,1.059-1.99c0.469-0.568,1.03-1.025,1.684-1.371c0.654-0.347,1.281-0.52,1.885-0.52l0.2,0.009v1.063
			c-0.346,0.053-0.604,0.205-0.773,0.457s-0.255,0.611-0.255,1.08v7.261v0.378c0,0.135,0.028,0.277,0.084,0.427
			c0.056,0.15,0.127,0.276,0.215,0.382c0.094,0.117,0.193,0.201,0.299,0.252c0.106,0.049,0.249,0.082,0.431,0.101V79.646z
			 M41.979,77.432c-0.202,0.375-0.462,0.721-0.778,1.036c-0.387,0.388-0.783,0.675-1.19,0.861c-0.407,0.187-0.868,0.294-1.378,0.317
			v-1.072c0.457-0.035,0.938-0.208,1.441-0.52c0.27-0.17,0.51-0.396,0.721-0.681s0.369-0.597,0.475-0.937
			c0.059-0.188,0.128-0.32,0.207-0.399s0.183-0.119,0.312-0.119c0.141,0,0.258,0.054,0.352,0.158
			c0.094,0.104,0.141,0.237,0.141,0.396C42.282,76.736,42.181,77.057,41.979,77.432z M38.606,68.247v-1.063
			c0.287,0.047,0.521,0.098,0.699,0.149c0.178,0.052,0.502,0.164,0.971,0.334c0.299,0.104,0.498,0.158,0.598,0.158
			c0.17,0,0.299-0.076,0.387-0.229l0.114-0.211c0.07-0.141,0.202-0.211,0.396-0.211c0.158,0,0.28,0.047,0.365,0.141
			c0.085,0.095,0.127,0.231,0.127,0.414v3.655c0,0.234-0.053,0.404-0.158,0.511C42,72,41.879,72.052,41.745,72.052
			c-0.141,0-0.253-0.045-0.338-0.136c-0.085-0.091-0.154-0.239-0.207-0.443c-0.123-0.464-0.243-0.826-0.36-1.091
			c-0.252-0.557-0.539-1.008-0.861-1.354c-0.217-0.233-0.434-0.413-0.65-0.539C39.113,68.361,38.87,68.282,38.606,68.247z
			 M48.397,67.412v11.997h-3.911h-0.229c-0.211,0-0.373-0.039-0.487-0.118s-0.172-0.191-0.172-0.339c0-0.24,0.117-0.397,0.352-0.476
			c0.193-0.063,0.307-0.104,0.339-0.117c0.032-0.014,0.065-0.049,0.101-0.103c0.07-0.094,0.105-0.243,0.105-0.448v-8.797
			c0-0.205-0.035-0.354-0.105-0.449c-0.035-0.053-0.068-0.086-0.101-0.101c-0.033-0.015-0.146-0.055-0.339-0.119
			c-0.234-0.075-0.352-0.233-0.352-0.475c0-0.146,0.058-0.259,0.172-0.338s0.276-0.119,0.487-0.119h0.229L48.397,67.412
			L48.397,67.412z M49.18,67.412L49.18,67.412h3.542v3.111c0,0.182-0.035,0.312-0.105,0.396c-0.07,0.083-0.182,0.123-0.334,0.123
			c-0.129,0-0.223-0.026-0.281-0.079s-0.114-0.161-0.167-0.324c-0.223-0.681-0.549-1.199-0.979-1.557s-0.989-0.57-1.675-0.643
			L49.18,67.412L49.18,67.412z M49.892,72.255c0.164-0.192,0.284-0.45,0.36-0.772c0.047-0.224,0.108-0.377,0.185-0.461
			c0.077-0.086,0.185-0.129,0.325-0.129c0.188,0,0.316,0.073,0.387,0.221c0.041,0.076,0.062,0.248,0.062,0.519v3.349
			c0,0.275-0.03,0.467-0.092,0.571c-0.062,0.105-0.175,0.158-0.339,0.158c-0.135,0-0.24-0.041-0.316-0.123
			c-0.076-0.082-0.138-0.22-0.185-0.413c-0.1-0.404-0.241-0.715-0.426-0.932s-0.424-0.361-0.717-0.432v-1.02
			C49.476,72.627,49.728,72.448,49.892,72.255z M52.845,79.41h-3.657v-0.001V78.46c0.381-0.06,0.696-0.142,0.945-0.246
			s0.499-0.267,0.751-0.483c0.252-0.215,0.453-0.439,0.603-0.672c0.15-0.231,0.291-0.537,0.426-0.918
			c0.064-0.188,0.132-0.314,0.202-0.383c0.07-0.068,0.167-0.102,0.29-0.102c0.164,0,0.278,0.049,0.343,0.146
			s0.097,0.265,0.097,0.505V79.41z M54.821,79.407c-0.211,0-0.373-0.039-0.487-0.118c-0.114-0.079-0.172-0.191-0.172-0.339
			c0-0.24,0.117-0.398,0.352-0.476c0.193-0.063,0.307-0.104,0.339-0.117c0.032-0.015,0.065-0.049,0.101-0.103
			c0.07-0.094,0.105-0.243,0.105-0.448v-8.798c0-0.204-0.035-0.354-0.105-0.448c-0.035-0.053-0.068-0.086-0.101-0.101
			s-0.146-0.055-0.339-0.119c-0.234-0.075-0.352-0.233-0.352-0.475c0-0.146,0.058-0.259,0.172-0.339
			c0.114-0.078,0.276-0.118,0.487-0.118h0.229h3.912v0.003v10.327c0,0.229,0.044,0.393,0.132,0.491
			c0.047,0.06,0.091,0.097,0.132,0.11c0.041,0.015,0.176,0.052,0.404,0.109c0.281,0.063,0.422,0.226,0.422,0.483
			c0,0.151-0.076,0.274-0.229,0.368c-0.111,0.07-0.296,0.105-0.554,0.105H58.97h-3.92H54.821z M58.242,114.867l-0.058,0.053
			l-0.122-0.238L58.242,114.867z M63.279,117.369c-1.295-0.301-2.526-0.727-3.455-1.748c-0.036,0.003-0.07,0.001-0.106,0.005
			c-0.012-0.041-0.03-0.068-0.045-0.104c-0.416-0.189-0.831-0.381-1.246-0.571c-0.083-0.006-0.164-0.014-0.243-0.028l0.059-0.056
			c0.061,0.028,0.123,0.056,0.184,0.084c0.487,0.034,1.012-0.014,1.246,0.571c0.033,0.015,0.065,0.029,0.097,0.044
			c0.017,0.02,0.037,0.036,0.054,0.055c1.458-0.115,2.686,0.458,3.822,1.306C63.524,117.073,63.401,117.223,63.279,117.369z
			 M65.531,78.4c-0.174,0.262-0.389,0.494-0.646,0.699c-0.24,0.192-0.501,0.332-0.782,0.418c-0.281,0.084-0.612,0.127-0.993,0.127
			c-0.773,0-1.377-0.222-1.811-0.664c-0.434-0.441-0.65-1.06-0.65-1.851v-1.478c0-0.327-0.003-0.519-0.009-0.57
			c-0.029-0.234-0.111-0.438-0.246-0.605c-0.17-0.205-0.413-0.326-0.729-0.36v-0.94c0.316-0.047,0.542-0.129,0.677-0.246
			c0.117-0.104,0.198-0.226,0.242-0.359c0.044-0.135,0.065-0.334,0.065-0.598v-2.33c0-0.369-0.071-0.645-0.215-0.826
			c-0.144-0.181-0.403-0.324-0.778-0.431V67.41h0.229c0.65,0,1.204,0.023,1.661,0.07c0.68,0.063,1.286,0.287,1.819,0.668
			c0.768,0.545,1.15,1.32,1.15,2.328c0,0.826-0.258,1.504-0.772,2.03c-0.217,0.224-0.47,0.404-0.76,0.545
			c-0.29,0.142-0.731,0.302-1.323,0.478c0.539,0.082,0.954,0.173,1.244,0.271c0.29,0.1,0.552,0.234,0.786,0.404
			c0.246,0.182,0.436,0.398,0.566,0.65c0.133,0.252,0.198,0.519,0.198,0.799v1.82c0,0.188,0.062,0.28,0.185,0.28
			c0.047,0,0.086-0.013,0.119-0.039c0.031-0.026,0.077-0.077,0.137-0.153c0.146-0.199,0.295-0.299,0.447-0.299
			c0.1,0,0.199,0.053,0.299,0.157c0.101,0.104,0.149,0.211,0.149,0.315C65.79,77.919,65.703,78.141,65.531,78.4z M71.548,67.412
			v11.997h-3.911h-0.229c-0.211,0-0.374-0.039-0.487-0.118c-0.114-0.079-0.172-0.191-0.172-0.339c0-0.24,0.117-0.397,0.353-0.476
			c0.192-0.063,0.307-0.104,0.338-0.117c0.033-0.016,0.065-0.049,0.102-0.103c0.07-0.094,0.105-0.243,0.105-0.448v-8.797
			c0-0.205-0.035-0.354-0.105-0.449c-0.035-0.053-0.068-0.086-0.102-0.101c-0.031-0.015-0.146-0.055-0.338-0.119
			c-0.234-0.075-0.353-0.233-0.353-0.475c0-0.146,0.058-0.259,0.172-0.338c0.113-0.079,0.276-0.119,0.487-0.119h0.229L71.548,67.412
			L71.548,67.412z M72.33,67.412L72.33,67.412h3.542v3.111c0,0.182-0.035,0.312-0.104,0.396c-0.07,0.083-0.183,0.123-0.334,0.123
			c-0.129,0-0.224-0.026-0.281-0.079c-0.059-0.053-0.114-0.161-0.168-0.324c-0.223-0.681-0.549-1.199-0.979-1.557
			c-0.432-0.357-0.988-0.57-1.675-0.643L72.33,67.412L72.33,67.412z M73.042,72.255c0.164-0.192,0.284-0.45,0.36-0.772
			c0.047-0.224,0.107-0.377,0.185-0.461c0.077-0.086,0.185-0.129,0.325-0.129c0.188,0,0.316,0.073,0.387,0.221
			c0.041,0.076,0.062,0.248,0.062,0.519v3.349c0,0.275-0.031,0.467-0.092,0.571c-0.062,0.105-0.176,0.158-0.34,0.158
			c-0.135,0-0.24-0.041-0.316-0.123c-0.075-0.082-0.137-0.22-0.184-0.413c-0.101-0.404-0.242-0.715-0.427-0.932
			c-0.187-0.219-0.424-0.361-0.717-0.432v-1.02C72.626,72.627,72.878,72.448,73.042,72.255z M75.996,79.41h-3.657v-0.001V78.46
			c0.382-0.06,0.695-0.142,0.945-0.246c0.248-0.104,0.499-0.267,0.751-0.483c0.252-0.215,0.451-0.439,0.604-0.672
			c0.147-0.23,0.291-0.537,0.426-0.918c0.063-0.188,0.131-0.314,0.201-0.383s0.168-0.102,0.291-0.102
			c0.164,0,0.277,0.049,0.342,0.146c0.065,0.097,0.098,0.265,0.098,0.505V79.41z M79.527,79.409h-2.231
			c-0.217,0-0.389-0.045-0.514-0.136c-0.128-0.092-0.189-0.217-0.189-0.375c0-0.17,0.13-0.311,0.388-0.422
			c0.24-0.104,0.418-0.199,0.53-0.285c0.115-0.084,0.226-0.2,0.33-0.348c0.164-0.24,0.3-0.56,0.404-0.958l1.985-7.241l0.449,1.819
			l-1.557,5.679c-0.047,0.164-0.07,0.315-0.07,0.457c0,0.368,0.174,0.633,0.52,0.791l0.308,0.141c0.193,0.088,0.29,0.234,0.29,0.439
			C80.17,79.264,79.956,79.409,79.527,79.409z M87.051,79.408h-4.386c-0.177,0-0.315-0.042-0.422-0.127
			c-0.106-0.086-0.158-0.198-0.158-0.34c0-0.116,0.022-0.205,0.069-0.264c0.048-0.059,0.152-0.132,0.316-0.22
			c0.117-0.06,0.199-0.123,0.246-0.192c0.047-0.07,0.07-0.158,0.07-0.265c0-0.101-0.01-0.188-0.025-0.265l-0.281-1.273h-2.453
			l0.238-1.046h1.969l-1.617-7.146l0.221-0.859h3.542l2.443,10.327c0.047,0.182,0.1,0.343,0.157,0.483
			c0.054,0.11,0.17,0.201,0.353,0.271c0.151,0.064,0.258,0.129,0.315,0.193c0.059,0.063,0.088,0.151,0.088,0.264
			C87.736,79.256,87.508,79.408,87.051,79.408z M93.521,68.473c-0.041,0.018-0.084,0.053-0.131,0.105
			c-0.089,0.105-0.133,0.27-0.133,0.492v10.339h-0.001h-3.911h-0.229c-0.211,0-0.374-0.039-0.487-0.118
			c-0.114-0.079-0.172-0.191-0.172-0.339c0-0.24,0.117-0.397,0.353-0.476c0.192-0.063,0.307-0.104,0.338-0.117
			c0.033-0.016,0.065-0.049,0.102-0.103c0.07-0.094,0.105-0.243,0.105-0.448v-8.797c0-0.205-0.035-0.354-0.105-0.449
			c-0.035-0.053-0.068-0.086-0.102-0.101c-0.031-0.015-0.146-0.055-0.338-0.119c-0.234-0.075-0.353-0.233-0.353-0.475
			c0-0.146,0.058-0.259,0.172-0.338c0.113-0.079,0.276-0.119,0.487-0.119h0.229h3.92h0.299c0.259,0,0.442,0.034,0.555,0.104
			c0.152,0.094,0.229,0.217,0.229,0.369c0,0.258-0.141,0.42-0.422,0.483C93.697,68.421,93.562,68.456,93.521,68.473z M97.327,79.409
			h-3.358v-0.984c0.287-0.053,0.516-0.11,0.682-0.176c0.168-0.063,0.326-0.158,0.479-0.281c0.246-0.192,0.473-0.46,0.678-0.8
			s0.371-0.718,0.5-1.134c0.094-0.322,0.182-0.534,0.26-0.638c0.08-0.103,0.195-0.153,0.348-0.153c0.164,0,0.284,0.067,0.359,0.202
			c0.035,0.063,0.054,0.193,0.054,0.387V79.409z M107.697,49.547c2.783,1.281,5.371,0.022,7.877,0.942
			c-1.6,3.727-4.578,2.522-7.102,2.06c-9.016-1.65-17.773-4.325-26.543-6.929c-11.291-3.348-22.711-6.132-34.476-7.193
			c-1.262-0.113-2.694-0.577-4.578,0.964c13.929,1.188,26.722,4.623,40.201,8.642c-14.882,0.619-28.911,1.2-42.938,1.787
			c-1.507,0.064-3.032,0.015-4.514,0.246c-13.863,2.148-23.097-5.077-30.938-15.177c-0.788-0.253-1.308-0.772-1.562-1.56
			C2.554,32.6,2.714,31.86,3.092,31.116l-0.048,0.05c-0.568-5.203,1.51-10.069,1.98-15.148c0.139-1.485,2.004-1.735,3.224-2.284
			c10.178-4.58,21.017-6.647,31.975-8.049c15.378-1.963,30.792-2.207,46.188-0.08c10.36,1.431,20.473,3.732,29.801,8.703
			c7.349,3.915,9.034,7.113,5.804,14.751c-1.857,4.39-0.548,7.325,1.471,10.709c1.07,1.798,2.5,3.467,2.693,5.894
			C120.486,48.451,114.08,48.023,107.697,49.547z"/>
	</g>
</g>
</svg>
