<?xml version="1.0" encoding="utf-8"?>
<!-- Generator: Adobe Illustrator 16.0.4, SVG Export Plug-In . SVG Version: 6.00 Build 0)  -->
<!DOCTYPE svg PUBLIC "-//W3C//DTD SVG 1.1//EN" "http://www.w3.org/Graphics/SVG/1.1/DTD/svg11.dtd">
<svg version="1.1" id="Layer_1105" xmlns="http://www.w3.org/2000/svg" xmlns:xlink="http://www.w3.org/1999/xlink" x="0px" y="0px"
	 width="128px" height="128px" viewBox="0 0 128 128" enable-background="new 0 0 128 128" xml:space="preserve">
<g>
	<g id="nO0By6.tif_16_">
		<g>
			<polygon points="20.354,58.274 20.461,58.361 20.384,58.263 			"/>
			<path d="M12.141,24.344c2.451,2.067,4.525,4.756,8.799,4.987c-1.306-2.143-2.416-3.967-3.528-5.791l0.02,0.046
				c-0.272-0.272-0.546-0.546-0.818-0.818l0.046,0.021c1.219-1.541,0.482-3.922,2.241-5.23l-0.046-0.057
				c0.205,0.951,0.408,1.903,0.692,3.212c2.93-1.974,4.76-4.684,7.021-6.923c2.893-2.869,6.006-4.48,10.34-4.235
				c6.903,0.395,13.729,0.534,20.368,2.988c4.119,1.521,8.537,0.469,12.611-0.731c7.82-2.301,14.279-0.643,19.743,5.441
				c2.271,2.526,4.466,5.122,8.802,4.226c2.207-0.456,4.469,1.485,6.168,3.208c1.338,1.362,2.521,1.399,3.873,0.184
				c0.159,0.159,0.318,0.317,0.476,0.477c-3.521,5.709-9.296,8.1-15.177,10.442c8.405,0.076,16.297-1.563,23.013-7.281
				c-1.716,4.639-7.202,7.738-13.911,8.821c-10.096,1.63-20.036-0.176-30.021-1.065c-11.941-1.062-23.8-2.762-35.861-2.803
				c-7.812-0.025-15.771-1.138-22.987-4.785c-2.688-1.355-3.814-4.035-5.607-6.826c2.037-0.097,2.867,0.783,3.686,1.69l0.044-0.021
				c-0.01,0.258-0.02,0.513-0.031,0.771L12.141,24.344z"/>
			<path d="M110.143,22.788c0.07,0.646,0.064,1.266-0.567,1.673c-0.115-0.117-0.229-0.237-0.347-0.354
				c0.322-0.422,0.644-0.844,0.967-1.265L110.143,22.788z"/>
			<path d="M3.717,31.167c0.156,0.055,0.313,0.112,0.37,0.133c-0.044-0.026-0.183-0.104-0.321-0.184L3.717,31.167z"/>
			<path d="M5.305,34.93c0-0.285,0-0.569,0-0.854C5.305,34.36,5.305,34.645,5.305,34.93z"/>
			<path d="M5.356,34.163c-0.277-0.276-0.554-0.554-0.831-0.831C4.802,33.609,5.079,33.887,5.356,34.163z"/>
			<path d="M4.618,33.383c-0.287,0-0.573,0.001-0.859,0C4.045,33.383,4.331,33.383,4.618,33.383z"/>
			<path d="M12.081,23.54c0.02,0.27,0.038,0.535,0.06,0.803l-0.047-0.054c0.011-0.258,0.021-0.513,0.031-0.771L12.081,23.54z"/>
			<path d="M109.574,24.461c-0.208,0.294-0.417,0.59-0.627,0.885c-0.156-0.158-0.315-0.316-0.475-0.476
				c0.256-0.255,0.502-0.51,0.758-0.764C109.344,24.224,109.459,24.344,109.574,24.461z"/>
			<path d="M110.193,22.842c0.039-0.09,0.062-0.189,0.121-0.263c0.031-0.039,0.125-0.024,0.188-0.035
				c-0.116,0.081-0.239,0.162-0.36,0.244L110.193,22.842z"/>
			<path d="M18.901,17.558l-0.046-0.056L18.901,17.558z"/>
			<path d="M23.352,25.069l0.049,0.042L23.352,25.069z"/>
			<path d="M24.183,24.358l-0.04-0.042L24.183,24.358z"/>
			<path d="M59.618,15.97l0.044,0.04L59.618,15.97z"/>
		</g>
	</g>
	<g>
		<path d="M122.501,49.193c7.546-2.281,7.517-2.382,4.035-9.682c-0.591-1.245-1.165-2.506-1.837-3.708
			c-0.981-1.76-0.865-3.472-0.463-5.426c2.889-14.064,3.313-12.49-8.42-18.524C100.193,3.819,83.113,1.809,65.785,1.487
			c-9.966-0.137-19.826,1.02-29.624,2.524C25.738,5.614,15.457,7.894,5.912,12.696c-2.009,1.01-2.855,2.161-2.901,4.6
			c-0.081,4.11-0.905,8.203-1.368,12.309c-0.377,3.371-0.173,6.835,3.04,8.672c5.805,3.32,8.071,6.942,6.017,14.294
			c-3.152,11.293-0.429,22.658,3.512,33.546c0.77,2.128,0.67,3.762-0.745,5.527c-3.766,4.701-7.504,9.436-11.119,14.254
			c-2.95,3.933-2.307,6.309,2.242,8.3c3.784,1.653,7.804,1.686,11.848,1.116c10.304-1.45,20.387-1.709,30.224,2.949
			c5.052,2.396,10.661,3.651,16.058,5.282c13.568,4.099,26.897,4.657,39.701-2.763c6.729-3.902,13.585-7.525,20.914-10.279
			c5.418-2.033,5.808-4.234,1.622-8.48c-3.823-3.875-6.523-8.246-7.645-13.553c-0.248-1.171-0.955-2.561,0.106-3.596
			c2.495-2.43,2.547-5.479,1.937-8.438c-1.701-8.209-0.191-16.239,0.892-24.312C120.438,50.711,120.738,49.726,122.501,49.193z
			 M24.096,99.818l0.044-0.049L24.096,99.818z M36.352,79.302c-0.111,0.07-0.296,0.105-0.554,0.105H35.5h-3.92h-0.229
			c-0.211,0-0.374-0.039-0.488-0.118c-0.114-0.079-0.171-0.191-0.171-0.339c0-0.24,0.117-0.398,0.352-0.476
			c0.193-0.063,0.306-0.104,0.338-0.117c0.032-0.015,0.066-0.049,0.101-0.103c0.07-0.094,0.105-0.243,0.105-0.448v-8.798
			c0-0.204-0.035-0.354-0.105-0.448c-0.035-0.053-0.069-0.086-0.101-0.101c-0.032-0.015-0.145-0.055-0.338-0.119
			c-0.234-0.075-0.352-0.233-0.352-0.475c0-0.146,0.057-0.259,0.171-0.339c0.114-0.078,0.277-0.118,0.488-0.118h0.229h3.911v0.003
			v10.327c0,0.229,0.044,0.393,0.132,0.491c0.047,0.06,0.091,0.097,0.132,0.11c0.041,0.015,0.176,0.052,0.404,0.109
			c0.281,0.063,0.422,0.226,0.422,0.483C36.581,79.085,36.505,79.208,36.352,79.302z M40.465,73.23
			c-0.398,0.568-0.955,0.987-1.67,1.258c-0.591,0.216-1.443,0.324-2.557,0.324v-0.94c0.252-0.06,0.429-0.12,0.532-0.185
			c0.103-0.065,0.192-0.164,0.268-0.299c0.123-0.229,0.185-0.537,0.185-0.924v-2.812c0-0.274-0.021-0.479-0.062-0.614
			c-0.041-0.136-0.123-0.259-0.246-0.369c-0.17-0.164-0.398-0.267-0.686-0.308v-0.949c1.207,0,2.098,0.113,2.672,0.343
			c0.662,0.265,1.187,0.668,1.573,1.213c0.393,0.558,0.589,1.239,0.589,2.048C41.063,71.918,40.864,72.657,40.465,73.23z
			 M46.161,78.302c0.111,0.177,0.313,0.302,0.606,0.378v0.967c-1.301-0.104-2.391-0.595-3.27-1.467
			c-1.143-1.138-1.714-2.723-1.714-4.756c0-1.02,0.151-1.939,0.453-2.764c0.302-0.824,0.749-1.521,1.34-2.098
			c0.451-0.438,0.938-0.772,1.459-1.002c0.521-0.229,1.099-0.356,1.731-0.387v0.95h0.002c-0.299,0.104-0.51,0.249-0.633,0.431
			c-0.123,0.182-0.185,0.448-0.185,0.801v7.856C45.95,77.729,46.02,78.091,46.161,78.302z M50.766,78.18
			c-0.879,0.879-1.972,1.367-3.278,1.467V78.68c0.152-0.035,0.271-0.08,0.356-0.136c0.085-0.056,0.163-0.137,0.233-0.242
			c0.158-0.239,0.237-0.604,0.237-1.09v-7.856c0-0.312-0.053-0.558-0.158-0.738c-0.07-0.123-0.154-0.221-0.25-0.29
			c-0.096-0.07-0.236-0.14-0.418-0.203v-0.949c0.633,0.029,1.211,0.158,1.736,0.388c0.525,0.229,1.012,0.562,1.463,1.002
			c1.195,1.166,1.793,2.785,1.793,4.859C52.48,75.457,51.909,77.042,50.766,78.18z M54.361,70.496l-0.088,0.536
			c-0.029,0.17-0.092,0.304-0.189,0.399s-0.218,0.146-0.365,0.146c-0.152,0-0.277-0.054-0.374-0.158
			c-0.097-0.104-0.145-0.243-0.145-0.413v-3.594h0.001h2.312v1.062c-0.275,0.158-0.489,0.36-0.642,0.606
			C54.619,69.479,54.449,69.951,54.361,70.496z M55.926,79.407c-0.258,0-0.453-0.039-0.584-0.118
			c-0.131-0.079-0.198-0.198-0.198-0.355c0-0.259,0.141-0.42,0.422-0.483c0.229-0.06,0.363-0.095,0.404-0.109
			c0.041-0.014,0.082-0.052,0.123-0.11c0.088-0.1,0.132-0.264,0.132-0.491V67.412h3.902v10.327c0,0.229,0.044,0.393,0.132,0.491
			c0.047,0.06,0.091,0.097,0.132,0.11c0.041,0.015,0.176,0.052,0.404,0.109c0.281,0.063,0.422,0.226,0.422,0.483
			c0,0.151-0.076,0.274-0.229,0.368c-0.111,0.07-0.299,0.105-0.562,0.105h-0.29h-3.92H55.926z M60.855,68.477v-1.063h2.313v-0.001
			v0.001v3.594c0,0.17-0.048,0.308-0.145,0.413s-0.221,0.158-0.374,0.158c-0.146,0-0.268-0.049-0.365-0.145
			c-0.097-0.098-0.16-0.23-0.189-0.4l-0.088-0.536c-0.088-0.545-0.258-1.017-0.51-1.415C61.339,68.836,61.125,68.634,60.855,68.477z
			 M63.951,117.369c-1.296-0.301-2.527-0.727-3.454-1.748c-0.036,0.003-0.07,0.001-0.106,0.005c-0.012-0.041-0.03-0.068-0.044-0.104
			c-0.417-0.189-0.833-0.381-1.248-0.571c-0.082-0.006-0.164-0.014-0.242-0.028l0.045-0.043l-0.045,0.04l-0.122-0.238l0.181,0.186h0
			c0.061,0.028,0.122,0.056,0.183,0.084c0.488,0.034,1.013-0.014,1.248,0.571c0.032,0.015,0.064,0.029,0.096,0.044
			c0.017,0.02,0.037,0.035,0.054,0.055c1.458-0.115,2.686,0.458,3.822,1.306C64.197,117.073,64.073,117.223,63.951,117.369z
			 M66.464,79.409h-2.232c-0.217,0-0.388-0.045-0.514-0.136c-0.126-0.092-0.189-0.217-0.189-0.375c0-0.17,0.129-0.311,0.387-0.422
			c0.24-0.104,0.417-0.199,0.532-0.285c0.114-0.084,0.224-0.2,0.329-0.348c0.164-0.24,0.3-0.56,0.404-0.958l1.985-7.241l0.448,1.819
			l-1.557,5.679c-0.047,0.164-0.07,0.315-0.07,0.457c0,0.368,0.174,0.633,0.52,0.791l0.309,0.141
			c0.192,0.088,0.289,0.234,0.289,0.439C67.105,79.264,66.893,79.409,66.464,79.409z M73.986,79.408H69.6
			c-0.176,0-0.315-0.042-0.422-0.127c-0.105-0.086-0.158-0.198-0.158-0.34c0-0.116,0.023-0.205,0.07-0.264s0.152-0.132,0.316-0.22
			c0.117-0.06,0.199-0.123,0.246-0.192c0.047-0.07,0.07-0.158,0.07-0.265c0-0.101-0.01-0.188-0.027-0.265l-0.28-1.273h-2.452
			l0.237-1.046h1.969l-1.617-7.146l0.222-0.859h3.541l2.443,10.327c0.047,0.182,0.1,0.343,0.158,0.483
			c0.053,0.11,0.17,0.201,0.352,0.271c0.152,0.064,0.258,0.129,0.316,0.193c0.059,0.063,0.088,0.151,0.088,0.264
			C74.672,79.256,74.443,79.408,73.986,79.408z M76.193,70.496l-0.088,0.536c-0.029,0.17-0.092,0.304-0.189,0.399
			c-0.096,0.098-0.218,0.146-0.364,0.146c-0.151,0-0.276-0.054-0.374-0.158c-0.096-0.104-0.145-0.243-0.145-0.413v-3.594h2.312
			v1.062c-0.275,0.158-0.49,0.36-0.643,0.606C76.451,69.479,76.281,69.951,76.193,70.496z M82.82,79.302
			c-0.111,0.07-0.299,0.105-0.562,0.105h-0.29h-3.92h-0.29c-0.258,0-0.453-0.039-0.584-0.118c-0.133-0.079-0.197-0.198-0.197-0.355
			c0-0.259,0.141-0.42,0.422-0.483c0.229-0.06,0.363-0.095,0.403-0.109c0.041-0.014,0.082-0.052,0.123-0.11
			c0.089-0.1,0.132-0.264,0.132-0.491V67.412h3.902v10.327c0,0.229,0.044,0.393,0.132,0.491c0.048,0.06,0.091,0.097,0.132,0.11
			c0.041,0.015,0.176,0.052,0.404,0.109c0.281,0.063,0.422,0.226,0.422,0.483C83.049,79.085,82.973,79.208,82.82,79.302z M85,67.413
			v3.594c0,0.17-0.049,0.308-0.145,0.413c-0.099,0.105-0.223,0.158-0.375,0.158c-0.146,0-0.269-0.049-0.363-0.145
			c-0.098-0.098-0.16-0.23-0.189-0.4l-0.088-0.536c-0.088-0.545-0.258-1.017-0.51-1.415c-0.158-0.246-0.372-0.448-0.643-0.605
			v-1.063H85L85,67.413L85,67.413z M90.098,78.302c0.11,0.177,0.312,0.302,0.605,0.378v0.967c-1.301-0.104-2.391-0.595-3.27-1.467
			c-1.144-1.138-1.715-2.723-1.715-4.756c0-1.02,0.15-1.939,0.453-2.764c0.301-0.823,0.748-1.521,1.34-2.098
			c0.451-0.438,0.938-0.772,1.459-1.002c0.521-0.229,1.1-0.356,1.731-0.387v0.95h0.002c-0.3,0.104-0.511,0.249-0.634,0.431
			c-0.122,0.182-0.184,0.448-0.184,0.801v7.856C89.887,77.729,89.956,78.091,90.098,78.302z M94.703,78.18
			c-0.879,0.879-1.973,1.367-3.278,1.467V78.68c0.152-0.035,0.271-0.08,0.356-0.136c0.084-0.056,0.162-0.137,0.232-0.242
			c0.157-0.239,0.236-0.604,0.236-1.09v-7.856c0-0.312-0.053-0.558-0.158-0.738c-0.07-0.123-0.152-0.221-0.251-0.29
			c-0.095-0.071-0.235-0.14-0.416-0.203v-0.949c0.634,0.029,1.212,0.158,1.735,0.388c0.525,0.229,1.013,0.562,1.464,1.002
			c1.194,1.166,1.793,2.785,1.793,4.859C96.417,75.457,95.846,77.042,94.703,78.18z M108.37,49.547
			c2.782,1.281,5.373,0.022,7.878,0.942c-1.6,3.727-4.578,2.522-7.102,2.06c-9.016-1.65-17.773-4.325-26.545-6.929
			c-11.291-3.348-22.708-6.132-34.474-7.193c-1.262-0.113-2.695-0.577-4.578,0.964c13.928,1.188,26.722,4.623,40.201,8.642
			c-14.881,0.619-28.911,1.2-42.938,1.787c-1.507,0.064-3.032,0.015-4.514,0.246c-13.863,2.148-23.098-5.077-30.938-15.177
			c-0.788-0.253-1.308-0.772-1.562-1.56C3.228,32.6,3.387,31.86,3.765,31.116l-0.048,0.05C3.15,25.963,5.228,21.097,5.698,16.018
			c0.139-1.485,2.004-1.735,3.224-2.284c10.177-4.58,21.016-6.647,31.975-8.049c15.378-1.963,30.794-2.207,46.188-0.08
			c10.36,1.431,20.474,3.732,29.8,8.703c7.35,3.915,9.035,7.113,5.805,14.751c-1.858,4.39-0.547,7.325,1.47,10.709
			c1.071,1.798,2.5,3.467,2.694,5.894C121.159,48.451,114.755,48.023,108.37,49.547z"/>
	</g>
</g>
</svg>
