<?xml version="1.0" encoding="utf-8"?>
<!-- Generator: Adobe Illustrator 16.0.0, SVG Export Plug-In . SVG Version: 6.00 Build 0)  -->
<!DOCTYPE svg PUBLIC "-//W3C//DTD SVG 1.1//EN" "http://www.w3.org/Graphics/SVG/1.1/DTD/svg11.dtd">
<svg version="1.1" id="Layer_1109" xmlns="http://www.w3.org/2000/svg" xmlns:xlink="http://www.w3.org/1999/xlink" x="0px" y="0px"
	 width="128px" height="128px" viewBox="0 0 128 128" enable-background="new 0 0 128 128" xml:space="preserve">
<g id="nO0By6.tif_11_">
	<g>
		<path fill-rule="evenodd" clip-rule="evenodd" d="M65.438,1.487c17.328,0.322,34.408,2.332,50.032,10.366
			c11.734,6.034,11.309,4.46,8.42,18.524c-0.402,1.954-0.519,3.666,0.463,5.426c0.672,1.202,1.245,2.463,1.836,3.708
			c3.482,7.3,3.512,7.401-4.035,9.682c-1.762,0.533-2.062,1.518-2.254,2.932c-1.082,8.073-2.592,16.104-0.891,24.312
			c0.611,2.959,0.558,6.009-1.936,8.438c-1.061,1.035-0.355,2.425-0.107,3.595c1.121,5.308,3.822,9.678,7.645,13.554
			c4.184,4.245,3.795,6.447-1.623,8.48c-7.329,2.754-14.184,6.377-20.914,10.279c-12.803,7.42-26.133,6.861-39.7,2.763
			c-5.397-1.631-11.006-2.887-16.058-5.282c-9.837-4.659-19.92-4.4-30.224-2.949c-4.044,0.569-8.064,0.537-11.848-1.117
			c-4.549-1.991-5.192-4.367-2.242-8.299c3.615-4.819,7.353-9.553,11.119-14.255c1.415-1.765,1.515-3.399,0.745-5.527
			c-3.941-10.888-6.665-22.252-3.512-33.545c2.054-7.352-0.212-10.974-6.017-14.294c-3.213-1.837-3.417-5.301-3.04-8.672
			c0.463-4.106,1.287-8.199,1.368-12.309c0.046-2.439,0.892-3.59,2.901-4.6c9.545-4.802,19.826-7.082,30.249-8.685
			C45.613,2.507,55.473,1.35,65.438,1.487z M3.419,31.116C3.041,31.86,2.881,32.6,3.453,33.329c0.254,0.788,0.774,1.307,1.562,1.56
			c7.84,10.1,17.075,17.325,30.938,15.177c1.482-0.231,3.007-0.182,4.514-0.246c14.027-0.587,28.056-1.168,42.938-1.787
			c-13.48-4.019-26.272-7.454-40.201-8.642c1.883-1.541,3.316-1.077,4.578-0.964c11.765,1.061,23.184,3.845,34.475,7.193
			c8.771,2.604,17.529,5.279,26.543,6.929c2.525,0.462,5.503,1.667,7.102-2.06c-2.504-0.92-5.094,0.339-7.877-0.942
			c6.384-1.524,12.789-1.096,18.484-3.885c-0.195-2.427-1.624-4.096-2.695-5.894c-2.018-3.384-3.328-6.319-1.471-10.709
			c3.232-7.638,1.546-10.836-5.803-14.751c-9.328-4.971-19.44-7.272-29.801-8.703c-15.394-2.127-30.81-1.883-46.188,0.08
			C29.592,7.087,18.753,9.154,8.576,13.734c-1.22,0.549-3.085,0.799-3.224,2.284c-0.47,5.079-2.548,9.945-1.981,15.148L3.419,31.116
			z"/>
		<path fill-rule="evenodd" clip-rule="evenodd" d="M60.045,115.626c1.505-0.153,2.764,0.432,3.928,1.301
			c-0.122,0.146-0.246,0.295-0.368,0.442c-1.32-0.307-2.575-0.739-3.508-1.802L60.045,115.626z"/>
		<path fill-rule="evenodd" clip-rule="evenodd" d="M58.511,114.923c0.571,0.107,1.291-0.116,1.534,0.703l0.052-0.059
			c-0.51-0.232-1.019-0.467-1.528-0.7L58.511,114.923z"/>
		<polygon fill-rule="evenodd" clip-rule="evenodd" points="58.569,114.867 58.389,114.681 58.511,114.92 		"/>
		<path fill-rule="evenodd" clip-rule="evenodd" d="M23.75,99.819l0.044-0.049L23.75,99.819z"/>
		<polygon fill-rule="evenodd" clip-rule="evenodd" points="20.007,58.274 20.115,58.361 20.038,58.263 		"/>
		<path fill-rule="evenodd" clip-rule="evenodd" d="M11.795,24.344c2.451,2.067,4.525,4.756,8.799,4.987
			c-1.306-2.143-2.416-3.967-3.528-5.791l0.02,0.046c-0.272-0.272-0.546-0.546-0.818-0.818l0.046,0.021
			c1.219-1.541,0.482-3.922,2.241-5.23l-0.046-0.057c0.205,0.951,0.408,1.903,0.692,3.212c2.93-1.974,4.76-4.684,7.021-6.923
			c2.893-2.869,6.006-4.48,10.34-4.235c6.903,0.395,13.729,0.534,20.368,2.988c4.119,1.521,8.537,0.469,12.61-0.731
			c7.821-2.301,14.28-0.643,19.743,5.441c2.271,2.526,4.466,5.122,8.801,4.226c2.209-0.456,4.471,1.485,6.168,3.208
			c1.34,1.362,2.521,1.399,3.875,0.184c0.158,0.159,0.318,0.317,0.475,0.477c-3.521,5.709-9.297,8.1-15.176,10.442
			c8.404,0.076,16.297-1.563,23.012-7.281c-1.715,4.639-7.203,7.738-13.912,8.821c-10.095,1.63-20.036-0.176-30.021-1.065
			c-11.941-1.062-23.799-2.762-35.862-2.803c-7.812-0.025-15.771-1.138-22.987-4.785c-2.688-1.355-3.814-4.035-5.607-6.826
			c2.037-0.097,2.867,0.783,3.686,1.69l0.044-0.021c-0.01,0.258-0.02,0.513-0.031,0.771L11.795,24.344z"/>
		<path fill-rule="evenodd" clip-rule="evenodd" d="M109.797,22.788c0.07,0.646,0.063,1.266-0.568,1.673
			c-0.115-0.117-0.23-0.237-0.348-0.354c0.324-0.422,0.645-0.844,0.967-1.265L109.797,22.788z"/>
		<path fill-rule="evenodd" clip-rule="evenodd" d="M3.371,31.167c0.156,0.055,0.313,0.112,0.37,0.133
			c-0.044-0.026-0.183-0.104-0.321-0.184L3.371,31.167z"/>
		<path fill-rule="evenodd" clip-rule="evenodd" d="M4.958,34.93c0-0.285,0-0.569,0-0.854C4.958,34.36,4.958,34.645,4.958,34.93z"/>
		<path fill-rule="evenodd" clip-rule="evenodd" d="M5.01,34.163c-0.277-0.276-0.554-0.554-0.831-0.831
			C4.456,33.609,4.733,33.887,5.01,34.163z"/>
		<path fill-rule="evenodd" clip-rule="evenodd" d="M4.271,33.383c-0.287,0-0.573,0.001-0.859,0
			C3.699,33.383,3.985,33.383,4.271,33.383z"/>
		<path fill-rule="evenodd" clip-rule="evenodd" d="M11.735,23.54c0.02,0.27,0.038,0.535,0.06,0.803l-0.047-0.054
			c0.011-0.258,0.021-0.513,0.031-0.771L11.735,23.54z"/>
		<path fill-rule="evenodd" clip-rule="evenodd" d="M109.229,24.461c-0.209,0.294-0.418,0.59-0.627,0.885
			c-0.156-0.158-0.316-0.316-0.475-0.476c0.255-0.255,0.502-0.51,0.757-0.764C108.998,24.224,109.113,24.344,109.229,24.461z"/>
		<path fill-rule="evenodd" clip-rule="evenodd" d="M109.848,22.842c0.039-0.09,0.062-0.189,0.12-0.263
			c0.031-0.039,0.126-0.024,0.19-0.035c-0.117,0.081-0.241,0.162-0.361,0.244L109.848,22.842z"/>
		<path fill-rule="evenodd" clip-rule="evenodd" d="M18.555,17.558l-0.046-0.056L18.555,17.558z"/>
		<path fill-rule="evenodd" clip-rule="evenodd" d="M23.005,25.069l0.049,0.042L23.005,25.069z"/>
		<path fill-rule="evenodd" clip-rule="evenodd" d="M23.837,24.358l-0.04-0.042L23.837,24.358z"/>
		<path fill-rule="evenodd" clip-rule="evenodd" d="M59.272,15.97l0.044,0.04L59.272,15.97z"/>
	</g>
</g>
</svg>
