<?xml version="1.0" encoding="utf-8"?>
<!-- Generator: Adobe Illustrator 16.0.0, SVG Export Plug-In . SVG Version: 6.00 Build 0)  -->
<!DOCTYPE svg PUBLIC "-//W3C//DTD SVG 1.1//EN" "http://www.w3.org/Graphics/SVG/1.1/DTD/svg11.dtd">
<svg version="1.1" id="Layer_1203" xmlns="http://www.w3.org/2000/svg" xmlns:xlink="http://www.w3.org/1999/xlink" x="0px" y="0px"
	 width="128px" height="128px" viewBox="0 0 128 128" enable-background="new 0 0 128 128" xml:space="preserve">
<g>
	<path fill-rule="evenodd" clip-rule="evenodd" d="M111.46,39.316c-3.92-3.281-8.141-6.456-11.834-10.03
		c-2.728-2.64-6.211-3.783-9.984-4.783h-0.001c-2.581,0-12.333-2.992-16.399-3.944c-0.24-0.123-0.533-0.075-0.891-0.128
		c-5.082-0.754-10.184-1.035-15.314-0.64c-1.418,0.108-2.748,0.487-3.832,1.556c-1.803,1.775-3.897,1.712-6.041,0.73
		c-2.207-1.012-4.433-1.988-6.569-3.136c-1.215-0.652-2.321-0.81-3.657-0.458c-8.745,2.307-14.65,8.05-19.029,15.639
		c-0.845,1.465-1.092,3.129-1.18,4.977c0.244,3.127,1.159,6.283,3.572,8.527c3.064,2.85,5.905,6.029,9.754,7.956
		c4.974,2.488,9.909,4.769,15.76,3.013c2.775-0.833,5.529-2.827,8.418-2.045c2.775,0.751,5.256,2.589,7.865,3.95
		c0.34,0.178,0.664,0.407,1.023,0.526c2.75,0.916,4.306,3,5.557,5.465c1.53,3.016,1.9,3.163,5.034,2.725
		c4.69-0.655,9.228-2.134,13.962-2.555c1.088-0.097,1.881-0.73,2.552-1.554c2.443-2.998,4.538-6.165,5.522-9.991
		c0.998-3.881,2.119-4.5,6.068-3.45c1.726,0.46,3.391,1.149,5.09,1.71c2.782,0.918,3.786,0.538,4.752-2.11
		c0.744-2.037,1.286-4.153,1.83-6.257C114.088,42.685,113.421,40.959,111.46,39.316z M107.2,46.374
		c-0.396,1.038-1.304,0.359-1.977,0.223c-1.628-0.33-3.23-0.807-4.867-1.078c-4.153-0.689-7.482,1.171-9.297,5.046
		c-1.193,2.55-2.473,5.06-3.658,7.612c-0.926,1.991-2.19,3.279-4.603,3.4c-2.413,0.121-4.812,0.612-7.206,1.001
		c-1.301,0.211-2.132-0.264-2.924-1.304c-4.205-5.515-10.29-8.268-16.393-10.97c-1.726-0.766-3.489-0.64-5.254-0.076
		c-2.072,0.662-4.165,1.261-6.225,1.959c-2.68,0.908-5.249,0.845-7.809-0.469c-2.502-1.284-5.121-2.346-7.59-3.686
		c-4.048-2.196-5.71-6.044-6.58-10.29c-0.287-1.407,0.248-2.74,1.137-3.946c1.527-2.071,3.252-3.915,5.244-5.558
		c5.512-4.549,7.076-4.72,13.259-1.147c5.499,3.178,9.98,3.006,14.909-0.936c1.58-1.265,3.03-1.591,4.928-1.283
		c2.783,0.451,5.194,1.033,7.905,1.789c0.592,0.216,17.299,4.676,17.299,4.676v-0.003c0,0.082,0.873,0.167,1.203,0.262
		c1.951,0.565,4.267,0.511,5.987,1.808c4.185,3.152,7.357,7.588,12.074,10.143C107.823,44.119,107.552,45.451,107.2,46.374z"/>
	<path fill-rule="evenodd" clip-rule="evenodd" d="M125.249,38.014c-0.558-1.679-1.291-3.008-2.846-3.869
		c-4.314-2.39-7.991-5.654-11.085-9.375c-2.194-2.641-4.74-4.567-7.55-6.338c-3.409-2.147-7.237-3.184-11.03-4.351
		c-0.138-0.042-0.26-0.066-0.383-0.092c-2.196-0.704-11.958-3.003-16.302-4.016c-0.412-0.198-1.012-0.353-1.86-0.536
		C66.786,7.844,59.359,6.43,51.834,8.852c-1.563,0.504-2.981,0.397-4.132-1.054c-1.555-1.963-3.785-2.478-6.154-2.609
		c-4.858-0.27-9.466,0.512-13.484,3.449c-4.541,3.318-8.849,6.995-13.596,9.979c-3.592,2.26-5.604,5.461-7.416,8.987
		c-0.523,1.02-0.889,2.119-1.314,3.188c-2.303,5.765-2.919,11.88-3.884,17.946C-0.67,64.604,3.782,79.02,11.364,92.526
		c5.33,9.496,13.369,16.741,22.741,22.324c3.38,2.014,6.647,4.369,10.655,5.154c3.758,0.735,7.512,1.503,11.254,2.315
		c2.907,0.632,5.846,0.604,8.79,0.445c1.663,0,3.345,0.159,4.987-0.026c8.174-0.926,16.291-2.217,23.288-6.958
		c3.588-2.431,6.874-5.283,10.076-8.239c2.351-2.171,5.03-4.059,6.479-6.955c1.727-3.453,4.018-6.535,5.944-9.848
		c0.449-0.773,0.912-1.541,1.312-2.34c4.44-8.868,7.334-18.192,8.847-28.021C126.896,52.849,127.718,45.443,125.249,38.014z
		 M119.231,45.789c-1.054,3.15-2.24,6.26-3.439,9.359c-0.316,0.822-0.82,1.601-1.363,2.303c-1.881,2.429-3.559,2.813-6.346,1.553
		c-1.164-0.527-2.302-1.136-3.506-1.549c-2.656-0.913-3.717-0.551-4.973,1.947c-1.548,3.078-3.656,5.845-4.754,9.186
		c-0.765,2.331-2.375,3.634-5.178,3.673c-3.439,0.049-6.832,0.924-10.213,1.652c-3.248,0.699-6.51,1.367-9.795,1.849
		c-3.091,0.454-3.814-0.112-4.561-3.136c-0.53-2.146-1.201-4.242-2.814-5.797c-3.994-3.849-8.711-5.302-14.103-3.618
		c-2.099,0.654-4.175,1.37-6.368,1.168c-5.512-0.509-11.004-1.518-15.641-4.634c-4.659-3.13-8.961-6.775-12.249-11.491
		c-5.224-7.491-4.515-17.337,2.059-22.991c5.231-4.5,10.966-8.344,16.882-11.9c0.982-0.591,2.038-1.091,3.111-1.493
		c4.373-1.638,5.368-1.326,8.391,2.463c1.825,2.289,3.598,2.787,6.367,1.635c2.027-0.844,4.104-1.3,6.282-1.603
		c5.188-0.722,10.182,0.316,15.2,1.288c0.736,0.143,1.307,0.248,1.765,0.295l16.204,3.895c0.319,0.163,0.746,0.273,1.321,0.317
		c5.827,0.448,10.29,3.553,14.175,7.646c3.333,3.513,6.773,6.884,10.85,9.565C119.644,39.415,120.374,42.377,119.231,45.789z"/>
</g>
</svg>
