<?xml version="1.0" encoding="utf-8"?>
<!-- Generator: Adobe Illustrator 16.0.0, SVG Export Plug-In . SVG Version: 6.00 Build 0)  -->
<!DOCTYPE svg PUBLIC "-//W3C//DTD SVG 1.1//EN" "http://www.w3.org/Graphics/SVG/1.1/DTD/svg11.dtd">
<svg version="1.1" id="Layer_1206" xmlns="http://www.w3.org/2000/svg" xmlns:xlink="http://www.w3.org/1999/xlink" x="0px" y="0px"
	 width="128px" height="128px" viewBox="0 0 128 128" enable-background="new 0 0 128 128" xml:space="preserve">
<g>
	<path fill-rule="evenodd" clip-rule="evenodd" d="M69.736,104.182c0.285-0.607,1.089-1.173,0.739-1.838
		c-1.339-2.547-3.718-1.77-5.844-1.614c-1.875,0.136-3.822,0.55-3.171,3.067c0.36,1.394-0.222,1.377-1.111,1.391
		c-5.709,0.084-10.181-2.348-13.374-6.97c-4.165-6.026-5.903-12.846-5.082-20.067c1.326-11.656,3.146-23.252,5.591-34.735
		c1.067-5.007,2.587-9.895,4.785-14.519c3.654-7.691,8.25-8.174,13.685-1.589c4.026,4.877,6.492,10.576,8.587,16.444
		c3.478,9.752,6.907,19.522,10.232,29.327c2.635,7.772,2.555,15.467-1.279,22.909c-2.881,5.593-7.532,8.217-13.773,8.135
		L69.736,104.182z M53.139,98.467c-0.116-0.485-0.321-0.867-0.918-0.799c0.073-0.718,0.096-1.416-0.753-1.734
		c0.002-0.274,0.083-0.578-0.004-0.821c-4.175-11.653-3.632-23.54-1.997-35.542c0.799-5.876,1.672-11.735,2.63-17.585
		c0.085-0.513-0.054-1.063-0.091-1.596c-0.765,0.279-0.661,1.061-0.79,1.604c-1.395,5.9-2.872,11.788-3.6,17.82
		c-0.959,7.953-1.762,15.938-0.484,23.91c0.686,4.281,1.258,8.714,4.405,12.151c-0.06,0.712,0.13,1.312,0.76,1.716
		c0.134,0.468,0.408,0.772,0.924,0.795c0.059,0.075,0.115,0.149,0.173,0.225C53.308,98.562,53.224,98.515,53.139,98.467z
		 M78.101,96.012c-0.603,0.337-0.732,0.942-0.881,1.539l-0.1,0.14l0.087-0.196c0.74-0.275,0.706-0.952,0.809-1.559
		c0.848-0.303,0.741-1.062,0.826-1.73c2.52-4.359,2.424-9.143,2.145-13.916c-0.558-9.556-3.146-18.677-6.323-27.627
		c-1.308-3.683-2.428-7.511-4.949-10.657c0.123-1.645-0.428-3.018-1.665-4.113c-0.074-0.647-0.154-1.291-0.874-1.579
		c-0.104-0.244-0.205-0.485-0.309-0.729c0.124,0.218,0.247,0.435,0.369,0.652c0.215,0.575,0.176,1.294,0.893,1.584
		c-0.137,1.652,0.603,2.955,1.65,4.133c-0.221,2.602,1.153,4.785,1.946,7.097c5.029,14.661,9.729,29.359,7.19,45.217
		C78.234,94.657,78.166,95.335,78.101,96.012z M72.161,71.132c0.01-0.653,0.048-1.308,0.015-1.959
		c-0.02-0.381-0.155-0.755-0.239-1.131c-0.626,0.258-0.429,0.812-0.424,1.268c0.009,0.669,0.22,1.28,0.727,1.757
		c-0.007,0.404-0.044,0.811-0.016,1.213c0.095,1.338,0.189,2.676,0.336,4.008c0.034,0.303,0.354,0.255,0.421-0.146
		c0.224-1.345,0.15-2.694-0.169-4.014C72.725,71.764,72.385,71.462,72.161,71.132z M67.233,82.384
		c0.144-9.687-1.222-19.242-2.719-28.772c-0.769-4.891-1.908-9.726-2.895-14.583c-0.096-0.468-0.061-1.095-0.745-1.148
		c-0.053-0.004-0.234,0.73-0.23,1.121c0.006,0.547,0.112,1.095,0.206,1.638c2.195,12.911,3.923,25.879,4.985,38.938
		c0.302,3.717,0.499,7.427,0.593,11.15c0.013,0.503,0.271,1,0.417,1.5c0.129-0.522,0.362-1.044,0.369-1.569
		C67.254,87.9,67.233,85.142,67.233,82.384z M56.456,61.332c-0.048,0-0.095,0-0.142,0c0-4.261,0.006-8.523-0.01-12.785
		c-0.002-0.398-0.148-0.795-0.227-1.193c-0.092,0.359-0.258,0.719-0.264,1.079c-0.148,8.384-0.398,16.768-0.012,25.152
		c0.018,0.394,0.183,0.781,0.28,1.172c0.461-0.403,0.362-0.962,0.364-1.465C56.462,69.305,56.456,65.318,56.456,61.332z
		 M73.888,83.861c-0.124-1.19-0.279-2.678-0.435-4.165c-0.619,1.438-0.276,2.941-0.252,4.409c0.022,1.251-0.233,2.545,0.339,3.752
		C73.646,86.63,73.753,85.403,73.888,83.861z M57.216,80.221c-0.071-0.568-0.172-1.364-0.273-2.159
		c-0.589,0.532-0.336,1.237-0.33,1.864c0.007,0.797,0.148,1.592,0.231,2.389C57.339,81.763,57.081,81.079,57.216,80.221z
		 M57.7,86.074c-0.072,0.282-0.182,0.527-0.182,0.771c0,0.201,0.131,0.403,0.204,0.604c0.064-0.244,0.177-0.486,0.181-0.731
		C57.905,86.516,57.78,86.311,57.7,86.074z M52.954,37.575c-0.092-0.188-0.183-0.376-0.274-0.564
		c-0.066,0.11-0.201,0.236-0.181,0.327c0.045,0.199,0.169,0.38,0.261,0.567C52.825,37.795,52.889,37.685,52.954,37.575z
		 M60.122,34.444l0.088,0.281l0.081-0.283L60.122,34.444z M72.55,92.485l0.108,0.34l0.108-0.341L72.55,92.485z"/>
	<path fill-rule="evenodd" clip-rule="evenodd" d="M104.653,100.94c-1.198-0.988-3.042-0.703-3.109,0.346
		c-0.199,3.193-1.81,1.472-2.888,1.042c-4.039-1.612-6.287-4.779-7.371-8.883c-1.505-5.702-1.157-11.378,1.42-16.592
		c5.624-11.376,10.946-22.954,18.802-33.067c1.011-1.303,2.118-2.567,3.355-3.65c4.521-3.959,7.527-3.265,9.836,2.18
		c1.031,2.429,1.959,4.949,2.095,7.561c0.667,12.688,1.677,25.375,0.531,38.094c-0.358,3.982-1.911,7.467-4.052,10.742
		c-3.154,4.825-7.548,7.091-13.38,6.466c-1.469-0.156-2.374-0.17-1.3-2.035c0.471-0.819-0.589-1.359-1.494-1.465l0.08,0.1
		c-0.602-1.101-1.642-0.903-2.621-0.891L104.653,100.94z M112.103,47.865l-0.216,0.147l0.231-0.197l0.116-0.173L112.103,47.865z
		 M116.988,99.102c0.46-0.052,0.732-0.335,0.905-0.739c1.134-0.437,1.622-1.299,1.634-2.477c2.189-2.125,2.71-5.018,3.43-7.767
		c3.05-11.652,2.391-23.479,1.489-35.307c-0.03-0.4-0.191-0.791-0.29-1.185c-0.135,0.475-0.359,0.945-0.385,1.426
		c-0.058,1.099-0.011,2.202-0.018,3.304c-0.048,8.26,0.239,16.521-0.775,24.764c-0.623,5.077-2.303,9.878-3.378,14.831
		c-1.223,0.381-1.527,1.366-1.638,2.48c-0.307,0.248-0.612,0.495-0.919,0.743l-0.074,0.143L116.988,99.102z M109.644,51.952
		c0.517-0.455,0.793-1.009,0.701-1.713l0.262-0.122l-0.188,0.194c-0.758,0.361-0.76,1.03-0.7,1.723
		c-0.619-0.165-0.824,0.238-0.977,0.713c-6.787,9.81-11.55,20.512-13.788,32.239c-0.519,2.724-1.087,5.689,0.602,8.365
		c0.062,0.521,0.125,1.045,0.188,1.566c0.109-0.041,0.303-0.063,0.315-0.124c0.12-0.583-0.112-1.034-0.583-1.374
		c0.018-6.413,1.34-12.595,3.528-18.576c2.319-6.341,5.189-12.45,8.425-18.382c0.647-1.186,1.666-2.259,1.234-3.799
		C109.286,52.835,109.486,52.422,109.644,51.952z M109.501,90.822c1.424-0.461,0.877-1.554,0.802-2.496
		c0.913-0.094,0.935-0.893,1.128-1.501c3.448-10.808,5.922-21.81,6.504-33.179c0.755-1.189,0.995-2.454,0.542-3.812
		c-0.019-0.056-0.247-0.104-0.252-0.095c-0.563,1.153-0.247,2.371-0.256,3.565c-0.001,0.134,0.025,0.268,0.037,0.402
		c-0.854,0.482-0.785,1.359-0.939,2.15c-0.73,3.759-1.441,7.523-2.217,11.273c-1.466,7.094-2.971,14.181-4.459,21.271
		c-0.72,0.683-0.821,1.569-0.817,2.489c-0.16,0.483-1.097,0.851-0.22,1.485C109.402,91.857,109.45,91.341,109.501,90.822z
		 M118.465,78.499c-0.196,0.284-0.37,0.434-0.4,0.607c-0.041,0.235-0.028,0.513,0.061,0.731c0.121,0.298,0.356,0.244,0.405-0.129
		C118.577,79.359,118.498,78.994,118.465,78.499z M119.284,75.595c-0.044-0.127-0.088-0.253-0.132-0.38
		c-0.046,0.126-0.126,0.252-0.128,0.378c0,0.126,0.077,0.252,0.122,0.378C119.192,75.846,119.238,75.72,119.284,75.595z
		 M117.686,83.08c-0.049-0.104-0.098-0.209-0.146-0.314c-0.078,0.168-0.187,0.328-0.224,0.503c-0.02,0.092,0.085,0.21,0.132,0.315
		C117.527,83.417,117.606,83.249,117.686,83.08z M116.645,86.914c0.103-0.198,0.275-0.394,0.281-0.595
		c0.004-0.132-0.233-0.271-0.362-0.408c-0.054,0.111-0.168,0.233-0.15,0.331C116.456,86.473,116.562,86.69,116.645,86.914z
		 M104.237,80.209c-0.076,0.096-0.222,0.196-0.216,0.288c0.014,0.245,0.093,0.484,0.145,0.726c0.077-0.098,0.225-0.2,0.221-0.294
		C104.373,80.687,104.293,80.448,104.237,80.209z M105.764,74.227c-0.036,0.11-0.122,0.232-0.099,0.328
		c0.094,0.39,0.261,0.402,0.407,0.029c0.035-0.091-0.017-0.235-0.071-0.333C105.979,74.211,105.847,74.233,105.764,74.227z
		 M108.541,67.1c-0.031-0.125-0.044-0.349-0.096-0.358c-0.28-0.049-0.344,0.131-0.16,0.462
		C108.291,67.213,108.451,67.136,108.541,67.1z M107.693,69.363c-0.025-0.118-0.05-0.234-0.075-0.354
		c-0.087,0.032-0.25,0.059-0.252,0.098c-0.01,0.117,0.044,0.237,0.072,0.357C107.522,69.431,107.607,69.397,107.693,69.363z
		 M106.75,72.062c0.029-0.103,0.116-0.239,0.079-0.299c-0.142-0.224-0.258-0.148-0.269,0.192
		C106.56,71.988,106.684,72.025,106.75,72.062z M110.169,62.11c-0.032-0.094-0.063-0.188-0.096-0.282
		c-0.062,0.073-0.162,0.139-0.177,0.221c-0.016,0.084,0.052,0.185,0.084,0.277C110.043,62.255,110.105,62.182,110.169,62.11z
		 M104.918,77.757l0.229,0.024l-0.086-0.358L104.918,77.757z M114.957,92.073c0.05-0.229,0.079-0.362,0.107-0.494
		c-0.064,0.029-0.182,0.055-0.184,0.087C114.875,91.766,114.913,91.866,114.957,92.073z M115.943,89.156l-0.213-0.021l0.083,0.331
		L115.943,89.156z"/>
	<path fill-rule="evenodd" clip-rule="evenodd" d="M25.733,103.357c0.271-0.656,0.583-1.527-0.001-1.937
		c-1.617-1.131-3.469-0.813-5.127-0.134c-1.127,0.463-2.798,0.88-1.722,2.951c0.587,1.13-0.654,0.83-1.171,0.896
		c-5.103,0.656-9.299-1.044-12.365-5.151c-3.031-4.058-5.116-8.57-5.176-13.746C0.032,74.612,0.949,63.026,1.846,51.453
		c0.276-3.555,1.458-7.034,3.156-10.249c2.389-4.516,4.885-4.979,8.879-1.667c1.497,1.241,2.83,2.629,3.925,4.251
		c7.46,11.045,13.237,22.963,18.06,35.343c2.251,5.775,2.017,11.689-0.618,17.342c-1.858,3.989-4.839,6.655-9.521,6.826
		L25.733,103.357z M10.802,100.145c-0.312-0.28-0.623-0.561-0.934-0.841c0.05-0.698-0.107-1.314-0.699-1.758
		c-1.624-4.262-3.064-8.562-3.627-13.128C4.609,76.844,4.62,69.254,4.898,61.649c0.081-2.209,0.095-4.422,0.094-6.633
		c0-0.383-0.23-0.767-0.354-1.15c-0.142,0.372-0.369,0.736-0.408,1.119c-0.205,1.923-0.405,3.849-0.527,5.778
		C3.1,70.297,2.717,79.84,5.192,89.19c0.789,2.977,1.255,6.238,4.056,8.284c-0.083,0.711,0.013,1.351,0.7,1.753
		c0.312,0.28,0.622,0.561,0.933,0.841c0.278,0.276,0.556,0.555,0.835,0.832l0.076,0.162l-0.157-0.081
		C11.356,100.702,11.079,100.423,10.802,100.145z M18.328,49.445c-0.069-0.042-0.138-0.083-0.207-0.124
		c0.096,0.016,0.19,0.031,0.285,0.047c0.063,0.656-0.156,1.434,0.741,1.732c0.065,0.656,0.006,1.371,0.811,1.668
		c0.005,0.687-0.028,1.394,0.835,1.645c-0.028,0.706,0.022,1.371,0.834,1.651c0.651,3.721,2.771,6.844,4.186,10.254
		c3.127,7.544,5.916,15.154,6.074,23.468c0.026,1.364-0.437,2.762,0.179,4.103c0.324-1.462,0.756-2.911,0.937-4.392
		c0.132-1.079-0.017-2.203-0.125-3.299c-0.816-8.208-3.454-15.879-7.14-23.185c-1.201-2.383-1.702-5.259-4.18-6.89
		c0.084-0.734,0.066-1.416-0.838-1.649c0.082-0.729,0.053-1.403-0.833-1.644c0.023-0.7-0.165-1.294-0.82-1.657
		C19.049,50.499,18.762,49.941,18.328,49.445z M18.385,91.642c0.047,0.528,0.094,1.06,0.142,1.59
		c0.113-0.027,0.31-0.028,0.325-0.083c0.177-0.605-0.241-1-0.547-1.432c-0.198-0.847,0.101-1.872-0.881-2.436
		c-0.032-0.959,0.084-1.951-0.121-2.871c-1.646-7.396-3.046-14.83-4.287-22.307c-0.668-4.027-0.564-8.232-2.29-12.064
		c-0.052-0.917-0.089-1.834-0.161-2.75c-0.027-0.336-0.272-0.318-0.322,0.08c-0.117,0.917-0.12,1.843,0.557,2.604
		c-0.049,10.347,1.908,20.419,4.33,30.404c0.562,2.315,0.665,4.885,2.369,6.842C17.569,90.108,17.312,91.117,18.385,91.642z
		 M10.934,84.976c-0.018,0.542-0.087,1.09-0.031,1.625c0.026,0.251-0.24,0.889,0.461,0.672c0.106-0.032,0.172-0.506,0.104-0.73
		c-0.154-0.513-0.401-0.995-0.61-1.49c-0.073-0.385-0.143-0.771-0.222-1.154c-0.068-0.327-0.147-0.652-0.222-0.978
		c-0.045,0.365-0.194,0.758-0.108,1.089C10.4,84.362,10.715,84.655,10.934,84.976z M9.848,78.389
		c-0.096-0.229-0.187-0.446-0.278-0.663c-0.095,0.23-0.249,0.456-0.27,0.692c-0.02,0.244,0.089,0.715,0.144,0.716
		C9.997,79.137,9.755,78.663,9.848,78.389z M24.404,84.532c0,0.123-0.051,0.29,0.009,0.355c0.16,0.175,0.252,0.046,0.193-0.323
		C24.603,84.545,24.484,84.544,24.404,84.532z M21.378,70.677c-0.035-0.123-0.041-0.326-0.111-0.353
		c-0.239-0.085-0.343,0.101-0.243,0.461c0.026,0.095,0.135,0.165,0.207,0.246C21.279,70.913,21.329,70.795,21.378,70.677z
		 M22.285,73.939c-0.079-0.236-0.161-0.473-0.241-0.709c-0.088,0.093-0.246,0.182-0.251,0.278c-0.011,0.244-0.028,0.541,0.094,0.728
		C22.017,74.436,22.225,74.289,22.285,73.939z M23.891,80.596c-0.056-0.12-0.11-0.239-0.167-0.358
		c-0.088,0.229-0.206,0.452-0.254,0.69c-0.021,0.104,0.098,0.236,0.153,0.355C23.712,81.055,23.803,80.824,23.891,80.596z
		 M22.899,76.87c-0.074,0.079-0.184,0.148-0.211,0.241c-0.037,0.125-0.061,0.304,0.002,0.396c0.173,0.256,0.317,0.153,0.327-0.259
		C23.02,77.123,22.941,76.996,22.899,76.87z M31.063,96.689l0.085,0.264l0.083-0.264H31.063z M20.497,68.047
		c0.014-0.106,0.074-0.231,0.037-0.313c-0.127-0.282-0.277-0.255-0.363,0.073c-0.023,0.086,0.037,0.209,0.093,0.292
		C20.28,68.123,20.416,68.066,20.497,68.047z M19.431,65.144l0.096,0.3l0.089-0.301L19.431,65.144z M18.569,62.477l0.13,0.352
		l0.133-0.347L18.569,62.477z M12.009,90.273l0.152-0.26l-0.202-0.052L12.009,90.273z M12.784,92.561l0.198,0.025l-0.068-0.288
		L12.784,92.561z"/>
	<path fill-rule="evenodd" clip-rule="evenodd" d="M66.396,101.738c0.803,0.012,1.739-0.105,1.92,0.59
		c0.304,1.168-0.831,1.127-1.565,1.322c-0.521,0.14-1.056,0.295-1.589,0.313c-0.698,0.024-1.506-0.138-1.614-0.921
		c-0.121-0.875,0.695-0.98,1.366-1.082C65.451,101.88,65.988,101.8,66.396,101.738z"/>
	<path fill-rule="evenodd" clip-rule="evenodd" d="M107.099,101.679c-0.221,2.287-1.81,2.136-3.093,1.361
		c-1.775-1.07-0.098-1.544,0.647-2.1l-0.096-0.053c0.679,0.872,1.628,0.945,2.621,0.891L107.099,101.679z"/>
	<path fill-rule="evenodd" clip-rule="evenodd" d="M22.102,103.533c-0.859,0.068-1.71-0.124-1.647-0.489
		c0.24-1.381,1.473-1.294,2.531-1.312c0.498-0.008,1.229-0.001,1.094,0.733C23.842,103.759,22.593,103.257,22.102,103.533z"/>
	<polygon fill-rule="evenodd" clip-rule="evenodd" points="25.727,103.299 25.635,103.492 25.733,103.357 	"/>
	<polygon fill-rule="evenodd" clip-rule="evenodd" points="69.722,104.122 69.641,104.309 69.736,104.182 	"/>
</g>
</svg>
