<?xml version="1.0" encoding="utf-8"?>
<!-- Generator: Adobe Illustrator 16.0.0, SVG Export Plug-In . SVG Version: 6.00 Build 0)  -->
<!DOCTYPE svg PUBLIC "-//W3C//DTD SVG 1.1//EN" "http://www.w3.org/Graphics/SVG/1.1/DTD/svg11.dtd">
<svg version="1.1" id="Layer_1209" xmlns="http://www.w3.org/2000/svg" xmlns:xlink="http://www.w3.org/1999/xlink" x="0px" y="0px"
	 width="128px" height="128px" viewBox="0 0 128 128" enable-background="new 0 0 128 128" xml:space="preserve">
<g>
	<path fill-rule="evenodd" clip-rule="evenodd" d="M69.973,44.429C70.184,54.056,67.74,62.901,62.651,71
		C49.024,92.687,22.752,93.084,8.535,71.829C-2.232,55.735-2.097,31.286,9.038,15.539C14.469,7.857,21.432,2.168,31.152,0.942
		c13.663-1.724,23.611,4.401,30.98,15.33C67.853,24.756,70.299,34.271,69.973,44.429z M34.657,44.12c-0.008,0-0.016,0-0.022,0
		c0-2.896,0.122-5.798-0.042-8.684c-0.116-2.036,0.986-5.589-0.872-5.739c-2.112-0.17-2.237,3.393-2.8,5.538
		c-0.209,0.8-0.49,1.593-0.586,2.408c-0.811,6.843-0.812,13.61,2.273,20.001c0.215,0.446,0.955,0.914,1.432,0.895
		c0.727-0.029,0.606-0.849,0.608-1.393C34.664,52.805,34.657,48.463,34.657,44.12z M40.963,44.312
		c-0.117-5.007-0.744-9.675-2.836-14.027c-0.225-0.468-0.927-0.704-1.408-1.048c-0.168,0.516-0.482,1.03-0.484,1.547
		c-0.035,8.66-0.05,17.321,0.005,25.981c0.004,0.58-0.632,1.861,0.826,1.722c0.468-0.045,1.052-0.664,1.278-1.159
		C40.272,53.126,40.62,48.604,40.963,44.312z"/>
	<g>
		<path fill-rule="evenodd" clip-rule="evenodd" d="M66.965,88.978c-0.355-6.237,0.298-12.354,2.226-18.334
			c2.552-7.917,7.241-13.978,15.138-16.912c2.92-1.085,3.682-2.639,3.731-5.466c0.103-5.882,1.789-7.486,7.72-7.767
			c1.639-0.078,3.329,0.005,4.932,0.331c3.887,0.789,5.421,2.429,5.107,6.361c-0.294,3.691,0.949,5.573,4.438,6.884
			c7.994,3.005,12.441,9.452,14.659,17.314c3.26,11.554,3.349,23.295,0.256,34.906c-4.077,15.306-15.407,22.203-31.418,20.893
			c-19.148-1.567-24.895-14.501-26.738-29.537C66.665,94.801,66.965,91.871,66.965,88.978z M125.443,90.038
			c0.357-3.041-1.104-5.79-2.788-8.409c-0.993-1.543-2.219-3.352-4.439-2.184c-1.922,1.011-1.1,2.772-0.693,4.391
			c0.501,1.988,1.755,3.768,1.614,5.934c-0.084,1.288-0.271,2.542-1.712,2.957c-1.317,0.381-2.392-0.174-3.251-1.212
			c-1.647-1.988-1.416-4.261-0.834-6.484c0.596-2.279,0.899-4.451-0.484-6.552c-0.892-1.355-2.098-2.009-3.689-1.491
			c-1.48,0.48-1.597,1.822-1.42,3.043c0.205,1.415,0.732,2.781,1.063,4.182c0.204,0.864-0.067,1.694-0.751,2.215
			c-0.995,0.757-2.013,0.378-2.732-0.442c-1.497-1.703-2.852-3.531-4.344-5.238c-0.507-0.58-1.182-1.379-2.084-0.808
			c-0.418,0.265-0.766,0.967-0.786,1.485c-0.319,7.841-0.837,15.718,1.313,23.397c1.44,5.143,4.016,5.81,7.902,2.271
			c0.609-0.555,1.145-1.191,1.732-1.772c0.889-0.883,1.887-1.884,3.194-1.21c1.125,0.58,1.594,1.812,1.796,3.102
			c0.439,2.808-0.487,5.289-1.701,7.725c-0.159,0.319-0.266,0.758-0.18,1.083c0.118,0.441,0.541,0.456,1.025,0.286
			c2.213-0.77,5.789-4.924,5.271-6.982c-1.068-4.25,1.025-7.152,3.399-10.079C123.992,96.625,125.736,93.865,125.443,90.038z
			 M94.686,91.21c-0.051-0.002-0.101-0.005-0.15-0.007c0.124-2.272,0.475-4.562,0.305-6.813c-0.16-2.132,0.451-5.351-2.293-5.762
			c-2.195-0.329-2.834,2.649-3.508,4.52c-1.667,4.627-4.961,6.875-9.732,7.289c-2.136,0.187-3.967,1.141-5.498,2.614
			c-2.354,2.267-2.498,3.606,0.166,5.849c1.568,1.321,1.768,2.701,1.56,4.332c-0.181,1.411-0.781,2.765-1.019,4.174
			c-0.083,0.488,0.227,1.344,0.604,1.529c0.419,0.206,1.39,0.043,1.657-0.311c2.585-3.405,6.355-6.032,7.061-10.706
			c0.131-0.866,0.009-2.349,1.568-2.111c1.368,0.208,2.004,1.381,2.288,2.628c0.312,1.372-0.804,2.241-1.335,3.329
			c-1.303,2.67-0.266,4.388,2.571,4.438c2.754,0.05,4.805-1.739,5.206-5.08C94.531,97.844,94.52,94.517,94.686,91.21z
			 M95.318,60.234c0.069,0,0.138,0,0.207,0c0-1.445,0.028-2.891-0.008-4.334c-0.043-1.694-1.22-2.536-2.291-1.311
			c-2.9,3.316-6.701,4.572-10.699,5.658c-1.429,0.389-2.647,1.324-3.329,2.632c-2.015,3.865-3.091,8.04-3.718,12.334
			c-0.094,0.641,0.175,1.203,0.883,1.301c0.721,0.1,1.128-0.42,1.327-1.014c0.194-0.58,0.188-1.229,0.382-1.81
			c0.181-0.537,0.398-1.324,0.797-1.474c0.965-0.359,1.387,0.425,1.719,1.231c0.231,0.566,0.537,1.12,0.903,1.609
			c1.104,1.474,2.521,2.242,4.269,1.219c1.494-0.876,1.332-2.248,0.983-3.802c-1.176-5.255-0.022-6.712,4.817-5.173
			c2.768,0.881,3.409-0.043,3.712-2.125C95.508,63.562,95.318,61.885,95.318,60.234z M101.006,58.812
			c-3.285-1.343-3.566,0.713-2.824,2.194c1.814,3.612,3.303,7.015,1.217,11.056c-0.497,0.962,0.594,2.372,1.57,2.112
			c2.354-0.626,4.731-1.49,6.801-2.75c1.863-1.134,0.26-3.013,0.151-4.548c-0.137-1.979,0.415-2.841,2.407-1.766
			c1.627,0.88,3.205,1.852,4.844,2.706c0.26,0.136,0.843-0.017,1.064-0.243c0.213-0.219,0.324-0.797,0.186-1.062
			c-1.886-3.57-5.037-5.925-8.092-8.386c-2.346-1.889-4.176-0.515-6.134,0.714C101.797,59.09,101.069,58.815,101.006,58.812z
			 M91.371,122.964c1.01-0.211,2.551,0.678,3.107-0.848c0.375-1.03-0.665-1.864-1.302-2.646c-1.698-2.083-3.462-4.181-3.788-6.938
			c-0.208-1.77-1.07-2.65-2.666-2.786c-2.045-0.175-2.861,1.302-3.34,2.962C81.428,119.499,84.01,122.836,91.371,122.964z"/>
	</g>
</g>
</svg>
