<?xml version="1.0" encoding="utf-8"?>
<!-- Generator: Adobe Illustrator 16.0.0, SVG Export Plug-In . SVG Version: 6.00 Build 0)  -->
<!DOCTYPE svg PUBLIC "-//W3C//DTD SVG 1.1//EN" "http://www.w3.org/Graphics/SVG/1.1/DTD/svg11.dtd">
<svg version="1.1" id="Layer_1213" xmlns="http://www.w3.org/2000/svg" xmlns:xlink="http://www.w3.org/1999/xlink" x="0px" y="0px"
	 width="128px" height="128px" viewBox="0 0 128 128" enable-background="new 0 0 128 128" xml:space="preserve">
<path fill-rule="evenodd" clip-rule="evenodd" d="M77.176,45.789c-0.102,1.176-0.874,2.06-1.379,3.048
	c-1.261,2.464-2.363,4.968-2.679,7.752c-0.046,0.399-0.212,0.801,0.026,1.193c0.201-0.282,0.429-0.55,0.598-0.852
	c0.31-0.554,0.652-1.101,0.866-1.694c2.342-6.504,6.473-11.866,10.838-17.084c2.361-2.826,4.938-5.428,7.892-7.644l-0.036-0.04
	c0.054,0.839-0.643,1.208-1.104,1.705c-1.638,1.761-3.312,3.49-4.957,5.241c-0.337,0.359-0.632,0.76-0.92,1.162
	c-0.054,0.075-0.018,0.312,0.053,0.358c0.157,0.103,0.442,0.24,0.536,0.171c0.393-0.287,0.729-0.655,1.1-0.976
	c0.594-0.512,0.89-1.464,2.052-1.094c0.529,0.167,0.673-0.604,0.89-1.009c0.463-0.871,0.97-1.59,2.131-1.211
	c0.624,0.203,0.855-0.283,1.181-0.654c1.018-1.166,1.896-2.466,3.188-3.372c0.075,0.071,0.151,0.143,0.225,0.216
	c-0.023,0.063-0.046,0.128-0.073,0.191c-0.237,0.528-1.123,1.129-0.629,1.537c0.646,0.533,0.896-0.502,1.235-0.897
	c0.65-0.758,1.408-1.052,2.371-0.896l-0.031-0.037c-0.323,0.587-1.351,1.086-0.97,1.676c0.451,0.701,1.181-0.175,1.793-0.334
	c1.417-0.366,2.799-0.873,4.283-0.916l0.036,0.042c-1.325,0.701-2.649,1.366-3.593,2.633c-0.503,0.673-1.446,0.821-2.198,1.19
	c-0.195,0.096-0.381,0.195-0.381,0.425c0.002,0.261,0.239,0.324,0.437,0.341c0.487,0.043,0.978,0.052,1.468,0.075l-0.029-0.036
	c-0.535,1.606-1.548,2.564-3.342,2.488c-0.366-0.016-0.658,0.166-0.923,0.434c-0.294,0.298-0.61,0.713-0.974,0.781
	c-1.989,0.373-3.118,1.914-4.475,3.15c-0.48,0.047-1.101-0.143-1.387,0.314c-1.015,1.626-2.702,1.598-4.274,1.802
	c-0.652,0.085-1.19,0.209-1.703,0.661c-2.062,1.818-4.098,3.659-5.875,5.763c-0.824,0.976-1.563,1.996-1.651,3.338
	c-0.421,0.135-0.285,0.561-0.436,0.836l-0.086,0.081l0.07-0.104c0.241-0.233,0.381-0.517,0.407-0.854
	c1.703-1.859,3.536-3.576,5.591-5.045c0.266-0.19,0.579-0.604,0.888-0.343c0.396,0.334-0.123,0.583-0.295,0.813
	c-0.589,0.785-1.261,1.509-1.825,2.31c-0.92,1.305-2.187,2.384-2.625,4.002c-0.102,0.083-0.27,0.154-0.287,0.25
	c-0.032,0.188,0.1,0.252,0.182,0.117c0.063-0.108,0.047-0.265,0.067-0.4c0.069-0.011,0.161,0.003,0.205-0.037
	c3.493-3.252,6.795-6.71,10.463-9.775c0.295-0.247,0.377-0.578,0.501-0.9c0.433-1.131,1.141-2.068,2.032-2.874
	c0.778,0.313,1.358,0.289,1.949-0.515c0.545-0.742,1.177-2.05,2.445-0.705c0.262,0.277,0.499-0.038,0.715-0.162
	c1.116-0.645,2.044-1.74,3.594-1.317c0.248,0.067,0.641-0.488,0.996-0.705c0.293-0.181,0.85-0.476,0.915-0.399
	c0.966,1.126,1.473-0.014,2.049-0.426c1.041-0.743,2.179-0.374,3.281-0.409c0.068-0.002,0.14,0.14,0.21,0.215
	c-0.116,0.063-0.228,0.171-0.35,0.185c-0.44,0.051-0.854,0.189-1.095,0.561c-0.184,0.285-0.256,0.642-0.375,0.967
	c0.271,0.049,0.545,0.135,0.815,0.14c1.838,0.034,3.675,0.045,5.512,0.078c0.191,0.004,0.379,0.104,0.57,0.16
	c-0.201,0.054-0.4,0.143-0.602,0.153c-0.637,0.036-1.273,0.054-1.907,0.057c-0.587,0.002-1.115,0.137-1.566,0.534
	c-0.919,0.812-1.998,1.309-3.186,1.591c-0.186,0.044-0.353,0.162-0.528,0.245c0.167,0.129,0.315,0.308,0.503,0.377
	c1.106,0.407,2.233,0.192,3.349,0.054c1.61-0.199,3.21-0.48,4.821-0.649c0.836-0.088,1.689-0.009,2.538-0.005l-0.026-0.034
	c-1.131,0.889-2.547,0.553-3.814,0.823c-2.325,0.496-4.747,0.52-7.009,1.388c-0.384,0.146-0.864,0.246-1.245,0.152
	c-0.932-0.229-1.307,0.033-1.646,0.976c-0.346,0.956-1.167,1.09-2.538,0.521c-0.754-0.313-1.143-0.375-1.368,0.508
	C98.4,48.147,97.732,48.069,97,47.743c-0.82-0.365-1.64-0.938-2.097,0.504c-0.147,0.466-0.81,0.516-1.318,0.441
	c-0.627-0.094-1.32-0.091-1.855-0.375c-1.703-0.906-2.793-0.094-4.001,1.038c-2.674,2.508-5.522,4.829-8.077,7.466
	c-1.121,1.158-2.271,2.31-2.841,3.878c-0.151,0.148-0.305,0.297-0.457,0.446l-0.09,0.052l0.055-0.089
	c0.151-0.149,0.303-0.299,0.454-0.448c2.066-1.826,4.132-3.655,6.2-5.478c1.724-1.519,3.774-2.487,5.854-3.377
	c1.077-0.46,1.477-0.264,2.005,0.817c0.505,1.032,0.71,2.166,0.76,3.288c0.056,1.252,0.417,2.348,1.098,3.375
	c1.938,2.928,1.896,6.134,1.219,9.393c-0.287,1.376-0.88,2.685-0.952,4.117c-0.016,0.325,0.057,0.852-0.345,0.865
	c-0.551,0.018-0.517-0.564-0.576-0.965c-0.224-1.538-0.489-3.072-0.635-4.618c-0.195-2.08-0.928-3.983-1.787-5.849
	c-0.912-1.987-1.314-3.989-0.698-6.171c0.341-1.206-0.098-1.511-1.372-1.112c-1.305,0.407-2.466,1.078-3.397,2.088
	c-0.912,0.987-1.791,2.004-2.669,3.022c-1.311,1.526-2.729,2.87-4.83,3.231c-0.395,0.068-0.77,0.338-1.116,0.57
	c-0.134,0.09-0.168,0.33-0.246,0.501c0.2,0.026,0.434,0.131,0.597,0.064c1.773-0.731,3.629-1.156,5.51-1.493
	c1.707-0.306,3.387-0.104,5.041,0.329c0.532,0.139,1.246,0.316,1.271,0.958c0.028,0.788-0.774,0.983-1.356,1.099
	c-1.243,0.247-2.483,0.556-3.774,0.524c-1.345-0.032-2.688-0.002-4.035,0.011c-0.197,0.002-0.397,0.058-0.595,0.088
	c0.116,0.163,0.197,0.373,0.354,0.48c0.869,0.604,1.775,1.159,2.637,1.778c1.207,0.865,2.394,1.759,3.568,2.667
	c0.497,0.384,1.104,0.803,0.742,1.562c-0.341,0.715-1.029,0.626-1.673,0.529c-0.27-0.038-0.704-0.209-0.772-0.113
	c-0.188,0.265,0.134,0.473,0.323,0.618c2.388,1.836,2.743,4.493,2.935,7.214c0.18,2.536-0.006,5.098,0.53,7.611
	c0.084,0.396,0.172,0.985-0.285,1.13c-0.635,0.199-1.031-0.291-1.286-0.842c-0.248-0.533-0.216-1.108-0.21-1.671
	c0.024-2.764-0.262-5.513-0.367-8.271c-0.046-1.196-0.359-2.205-1.153-3.091c-1.825-2.036-3.395-4.317-5.683-5.909
	c0.006-0.308-0.13-0.461-0.451-0.41c-0.029-0.332-0.1-0.648-0.375-0.877l-0.084-0.084l0.104,0.072c0.134,0.279,0.267,0.56,0.4,0.838
	c0.076,0.216,0.188,0.396,0.441,0.429c0.819,1.897,2.19,3.446,3.313,5.148c0.684,1.034,1.177,2.122,1.296,3.323
	c0.383,3.805,0.621,7.621,0.399,11.45c-0.022,0.35-0.076,0.708-0.182,1.041c-0.054,0.168-0.26,0.286-0.396,0.427
	c-0.079-0.113-0.181-0.219-0.23-0.343c-0.325-0.794-0.469-1.619-0.499-2.48c-0.082-2.476-0.226-4.95-0.306-7.426
	c-0.065-2.027-0.668-3.837-1.699-5.604c-1.563-2.685-2.916-5.492-4.368-8.242c-0.094-0.176-0.327-0.454-0.413-0.426
	c-0.363,0.115-0.166,0.409-0.11,0.647c2.558,10.935,5.115,21.87,7.673,32.806c1.19,5.088,2.383,10.175,3.568,15.265
	c0.08,0.338,0.149,0.692,0.132,1.033c-0.011,0.162-0.208,0.363-0.373,0.46c-0.304,0.179-0.555,0.019-0.661-0.28
	c-0.163-0.464-0.299-0.94-0.412-1.42c-3.683-15.528-7.361-31.058-11.037-46.587c-0.064-0.275-0.1-0.56-0.184-0.828
	c-0.078-0.251-0.158-0.521-0.453-0.624c-0.026,0.274-0.128,0.567-0.067,0.821c0.852,3.643,1.737,7.277,2.595,10.919
	c2.885,12.233,5.763,24.467,8.64,36.701c0.161,0.686,0.389,1.38,0.09,2.075c-0.144,0.331-0.419,0.588-0.816,0.554
	c-0.343-0.029-0.393-0.336-0.456-0.609c-0.709-3.025-1.423-6.048-2.129-9.074c-1.137-4.88-2.271-9.761-3.399-14.643
	c-0.063-0.278-0.094-0.554-0.406-0.67c0.042-1.346-0.186-2.632-0.856-3.817c-0.048-0.6,0.202-1.269-0.41-1.732
	c-0.064-0.716,0.188-1.496-0.434-2.098c-0.065-0.584,0.172-1.245-0.435-1.688c-0.006-0.337-0.004-0.675-0.026-1.011
	c-0.008-0.131-0.069-0.257-0.107-0.385c-0.207,0.096-0.207,0.288-0.203,0.472c0.01,0.344,0.071,0.67,0.381,0.888
	c0.048,0.589-0.191,1.25,0.431,1.691c0.086,0.711-0.209,1.501,0.433,2.098c0.057,0.598-0.179,1.263,0.409,1.734
	c-0.028,1.344,0.233,2.622,0.852,3.822c0.104,2.562,0.942,4.983,1.467,7.462c1.143,5.382,2.405,10.739,3.614,16.108
	c0.062,0.275,0.06,0.564,0.126,0.839c0.149,0.618,0.077,1.223-0.587,1.386c-0.888,0.219-0.762-0.596-0.874-1.093
	c-1.98-8.884-3.972-17.766-5.924-26.656c-1.606-7.306-3.164-14.623-4.748-21.934c-0.075-0.343-0.195-0.678-0.315-1.012
	c-0.043-0.12-0.144-0.222-0.219-0.332c-0.042,0.131-0.13,0.268-0.116,0.394c0.038,0.348,0.112,0.694,0.18,1.039
	c2.487,12.67,4.979,25.339,7.465,38.009c0.773,3.948,1.54,7.899,2.3,11.85c0.107,0.554,0.195,1.113,0.243,1.674
	c0.058,0.686-0.319,1.081-0.976,1.13c-0.708,0.053-0.71-0.527-0.796-1.012c-0.869-4.936-1.735-9.872-2.619-14.805
	c-1.278-7.152-2.571-14.303-3.872-21.451c-0.031-0.176-0.227-0.321-0.347-0.479c-0.04-0.868,0.239-1.787-0.419-2.553
	c-0.012-0.471-0.016-0.942-0.04-1.413c-0.006-0.129-0.073-0.255-0.113-0.382c-0.066,0.154-0.193,0.314-0.184,0.464
	c0.03,0.455-0.076,0.963,0.379,1.296c0.086,0.861-0.182,1.779,0.415,2.558c0.172,3.325,0.968,6.559,1.498,9.829
	c1.167,7.176,2.418,14.34,3.633,21.51c0.237,1.392,0.48,2.782,0.708,4.176c0.079,0.487,0.117,0.981,0.175,1.473
	c0.07,0.601-0.251,0.957-0.783,1.082c-0.725,0.169-0.809-0.449-0.888-0.904c-0.337-1.876-0.625-3.761-0.932-5.642
	c-1.686-10.312-3.382-20.623-5.057-30.937c-0.497-3.063-0.944-6.135-1.409-9.204c-0.041-0.288-0.104-0.551-0.379-0.707
	c0.004-0.21,0.034-0.422,0.009-0.629c-0.062-0.521,0.121-1.078-0.222-1.559c-0.319,0.534-0.076,1.09-0.044,1.633
	c0.01,0.18,0.193,0.348,0.297,0.521c-0.067,2.774,0.669,5.453,1.04,8.171c0.859,6.287,1.883,12.553,2.832,18.829
	c0.802,5.3,1.602,10.601,2.386,15.904c0.319,2.163,0.597,4.333,0.884,6.501c0.036,0.277,0.056,0.569,0.008,0.842
	c-0.063,0.375-0.317,0.64-0.704,0.687c-0.497,0.06-0.815-0.202-0.894-0.687c-0.144-0.904-0.258-1.814-0.379-2.723
	c-0.76-5.593-1.5-11.188-2.28-16.777c-0.913-6.567-1.869-13.129-2.791-19.694c-0.36-2.583-0.682-5.171-1.021-7.757
	c-0.053-0.406,0.046-0.866-0.401-1.132c0-0.412,0.032-0.828-0.008-1.238c-0.042-0.452,0.09-0.935-0.193-1.354
	c-0.258,0.452-0.128,0.941-0.126,1.414c0.002,0.41,0.032,0.832,0.369,1.145c0.006,3.408,0.702,6.745,1.073,10.115
	c0.574,5.198,1.295,10.38,1.937,15.571c0.66,5.331,1.305,10.664,1.953,15.997c0.188,1.544,0.367,3.09,0.545,4.636
	c0.023,0.21,0.033,0.427,0.016,0.636c-0.071,0.811-0.646,1.055-1.33,1.062c-0.687,0.008-0.717-0.565-0.771-1.057
	c-0.307-2.812-0.601-5.624-0.905-8.436c-0.522-4.778-1.06-9.556-1.574-14.334c-0.484-4.5-0.934-9.003-1.428-13.502
	c-0.518-4.704-1.075-9.405-1.601-14.108c-0.087-0.773-0.086-1.556-0.142-2.331c-0.014-0.198-0.09-0.39-0.137-0.584
	c-0.04,0.205-0.125,0.412-0.114,0.613c0.158,2.681,0.303,5.362,0.503,8.039c0.196,2.61,0.478,5.213,0.677,7.823
	c0.566,7.405,1.113,14.812,1.664,22.221c0.413,5.573,0.821,11.146,1.238,16.72c0.046,0.616-0.052,1.126-0.704,1.377
	c-0.704,0.271-1.29-0.021-1.368-0.781c-0.146-1.407-0.249-2.82-0.323-4.233c-0.339-6.574-0.641-13.151-0.998-19.724
	c-0.345-6.359-0.756-12.715-1.111-19.073c-0.221-3.956-0.391-7.914-0.582-11.871c-0.021-0.425-0.023-0.85-0.047-1.273
	c-0.012-0.21-0.054-0.417-0.083-0.626c-0.24,0.181-0.145,0.445-0.145,0.67c0.005,1.911-0.047,3.825,0.054,5.732
	c0.385,7.354,0.607,14.711,0.858,22.068c0.295,8.7,0.71,17.397,1.069,26.097c0.032,0.778,0.068,1.56,0.031,2.336
	c-0.021,0.453-0.29,0.802-0.813,0.779c-0.485-0.021-0.5-0.411-0.528-0.762c-0.094-1.129-0.217-2.257-0.259-3.389
	c-0.191-5.164-0.341-10.331-0.539-15.494c-0.365-9.55-0.763-19.099-1.125-28.648c-0.1-2.618-0.115-5.239-0.179-7.858
	c-0.017-0.708-0.064-1.414-0.105-2.121c-0.012-0.214-0.077-0.44-0.313-0.481c-0.329-0.057-0.265,0.251-0.271,0.409
	c-0.022,0.565-0.017,1.132-0.003,1.698c0.267,11.255,0.544,22.51,0.801,33.766c0.16,7.009,0.292,14.018,0.429,21.025
	c0.01,0.566-0.004,1.134-0.048,1.697c-0.034,0.424-0.339,0.586-0.738,0.572c-0.326-0.012-0.518-0.211-0.542-0.522
	c-0.041-0.493-0.054-0.988-0.068-1.483c-0.393-14.02-0.266-28.044-0.527-42.063c-0.085-4.597-0.295-9.194-0.312-13.796
	c-0.001-0.275-0.073-0.55-0.111-0.825c-0.036,0.277-0.104,0.556-0.103,0.832c0.04,7.862,0.114,15.723,0.126,23.583
	c0.016,9.559-0.016,19.119-0.035,28.678c-0.002,1.275-0.062,2.549-0.067,3.823c-0.003,0.783-0.3,1.197-1.139,1.131
	c-0.792-0.063-1.101-0.464-1.06-1.253c0.088-1.696,0.165-3.395,0.185-5.094c0.104-8.78,0.095-17.564,0.305-26.344
	c0.185-7.719,0.236-15.436,0.233-23.155c0-0.495-0.012-0.991-0.039-1.486c-0.009-0.183-0.075-0.361-0.114-0.543
	c-0.029,0.21-0.065,0.418-0.083,0.628c-0.019,0.211-0.019,0.424-0.026,0.636c-0.333,8.843-0.638,17.688-1.009,26.529
	c-0.389,9.265-0.837,18.526-1.267,27.79c-0.027,0.563-0.095,1.128-0.182,1.686c-0.064,0.413-0.132,0.878-0.718,0.859
	c-0.536-0.018-1.027-0.235-1.129-0.775c-0.103-0.545-0.042-1.126-0.012-1.688c0.403-7.35,0.802-14.698,1.223-22.047
	c0.514-8.972,1.055-17.943,1.568-26.916c0.129-2.263,0.2-4.526,0.296-6.791c0.009-0.208-0.009-0.474-0.231-0.514
	c-0.317-0.056-0.273,0.257-0.289,0.444c-0.143,1.764-0.281,3.526-0.407,5.291c-0.552,7.691-1.111,15.382-1.643,23.075
	c-0.347,5.012-0.64,10.027-0.978,15.039c-0.266,3.954-0.562,7.905-0.843,11.857c-0.037,0.514-0.068,1.044-0.768,1.027
	c-0.665-0.016-1.057-0.337-1.004-1.065c0.181-2.54,0.337-5.084,0.539-7.623c0.207-2.608,0.484-5.211,0.678-7.821
	c0.622-8.396,1.197-16.798,1.848-25.191c0.137-1.764,0.383-3.518,0.377-5.291c-0.001-0.25,0.063-0.528-0.192-0.714
	c-0.051,0.202-0.127,0.401-0.149,0.607c-0.595,5.693-1.158,11.392-1.784,17.084s-1.324,11.376-1.969,17.066
	c-0.343,3.021-0.635,6.047-0.967,9.068c-0.084,0.773-0.227,1.54-0.348,2.308c-0.079,0.5-0.133,1.058-0.874,0.854
	c-0.555-0.152-1.116-0.343-1.031-1.107c0.165-1.476,0.313-2.952,0.5-4.426c0.658-5.188,1.341-10.375,1.985-15.565
	c0.122-0.98,0.112-1.977,0.163-2.966c0.626-1.071,0.275-2.266,0.425-3.396c0.457-0.597,0.335-1.303,0.36-1.976
	c0.007-0.193-0.085-0.39-0.133-0.585c-0.051,0.182-0.141,0.361-0.147,0.545c-0.027,0.684-0.027,1.367-0.038,2.052
	c-0.716,1.059-0.36,2.251-0.428,3.392c-0.78,1.022-0.533,2.292-0.711,3.427c-0.842,5.371-1.514,10.769-2.259,16.155
	c-0.1,0.723,0.08,1.799-1.096,1.66c-1.271-0.148-0.678-1.221-0.583-1.868c1.189-8.031,2.432-16.056,3.644-24.084
	c0.105-0.696,0.08-1.412,0.116-2.12c0.399-0.447,0.362-1.002,0.358-1.541c-0.001-0.191-0.085-0.383-0.131-0.573
	c-0.052,0.175-0.14,0.349-0.149,0.524c-0.028,0.542-0.026,1.084-0.036,1.626c-0.814,1.968-0.882,4.095-1.239,6.151
	c-1.1,6.331-2.083,12.684-3.118,19.026c-0.056,0.348-0.205,0.684-0.238,1.033c-0.079,0.825-0.519,1.11-1.295,0.934
	c-0.77-0.175-0.976-0.632-0.833-1.411c0.583-3.195,1.091-6.403,1.674-9.6c1.495-8.196,3.011-16.39,4.527-24.584
	c1.016-5.485,2.021-10.973,3.092-16.448c0.164-0.84,0.311-1.44-0.626-1.917c-0.826-0.419-1.081-1.127-0.307-1.883
	c0.606-0.591,0.105-0.822-0.323-1.064c-1.12-0.634-2.36-0.944-3.595-1.231c-0.858-0.2-1.634-0.46-2.113-1.256
	c-0.445-0.739-1.204-1.008-1.96-1.142c-1.599-0.282-3.222-0.422-4.821-0.697c-0.618-0.105-0.736,0.209-0.839,0.643
	c-0.098,0.412-0.251,0.829-0.248,1.242c0.011,1.111-0.188,2.087-1.147,2.813c-0.471,0.356-0.585,0.928-0.631,1.521
	c-0.244,3.172-0.557,6.34-0.754,9.516c-0.106,1.704,0.33,3.365,0.725,5.018c0.059,0.248-0.002,0.745-0.108,0.774
	c-0.438,0.125-0.485-0.35-0.666-0.604c-0.079-0.111-0.103-0.263-0.144-0.398c-1.883-6.075-2.548-12.162-0.189-18.283
	c0.535-1.388,0.833-2.84,1.159-4.289c0.426-1.896,0.834-2.158,2.64-1.544c4.014,1.363,8.073,2.646,11.384,5.491
	c0.631,0.542,1.401,0.922,2.107,1.376c0.065-0.991-0.694-1.592-1.154-2.309c-1.466-2.285-3.304-4.215-5.583-5.739
	c-1.585-1.06-3.106-2.229-4.573-3.448c-0.666-0.553-1.171-0.61-1.84-0.124c-0.754,0.548-1.636,0.837-2.518,1.093
	c-0.329,0.095-0.895,0.195-1.021,0.035c-1.183-1.512-3.253-0.19-4.34-1.294c-0.764-0.777-1.302-0.846-2.154-0.531
	c-0.258,0.095-0.602,0.222-0.818,0.129c-2.471-1.062-5.028-0.177-7.535-0.359c-1.621-0.119-3.254-0.059-4.882-0.095
	c-0.2-0.004-0.398-0.106-0.596-0.163c0.2-0.057,0.401-0.157,0.603-0.162c1.911-0.048,3.823-0.122,5.733-0.103
	c1.638,0.017,3.24-0.287,4.86-0.411c0.385-0.03,0.652-0.238,0.776-0.613c-0.263-0.075-0.524-0.162-0.79-0.221
	c-0.412-0.093-0.897-0.056-1.233-0.264c-2.858-1.774-6.138-1.368-9.245-1.85c-0.257-0.04-0.537,0.006-0.732-0.227
	c0.272-0.057,0.542-0.148,0.816-0.167c2.132-0.142,4.266,0.067,6.342,0.423c1.633,0.279,3.062-0.241,4.571-0.479
	c0.575-0.09,0.705-0.69,0.293-1.066c-0.385-0.353-0.859-0.495-1.365-0.499c-2.976-0.025-5.851-1.018-8.851-0.882
	c-1.071,0.048-2.132-0.242-3.082-0.807c1.027-0.41,2.131-0.381,3.143-0.175c3.379,0.688,6.896,0.28,10.235,1.46
	c0.948,0.334,2.049,0.163,2.701,1.178c0.07,0.109,0.222,0.164,0.336,0.244c0.81-1.219,1.883,0.113,2.622-0.223
	c1.454-0.659,2.268,0.154,3.168,0.939c0.479,0.419,0.807,0.787,1.629,0.477c1.132-0.426,1.851-0.131,2.139,1.014
	c0.417,1.654,1.586,2.293,2.864,3.091c3.407,2.125,6.016,5.124,8.494,8.235c0.422,0.529,0.641,1.269,1.421,1.453
	c-0.005,0.361,0.004,0.717,0.397,0.904c0.032,0.051,0.065,0.103,0.096,0.154c0.032,0.052,0.062,0.106,0.094,0.159
	c-0.079-0.091-0.157-0.182-0.235-0.272c-0.035-0.345-0.096-0.678-0.393-0.91c-0.375-0.908-0.774-1.808-1.117-2.729
	c-0.344-0.923-0.901-1.868-0.891-2.799c0.028-2.538-1.509-4.021-3.268-5.363c-2.018-1.54-4.137-2.944-6.183-4.448
	c-0.587-0.432-1.068-0.143-1.583,0.036c-1.665,0.577-3.2,0.619-4.345-1.009c-0.442-0.628-1.091-0.519-1.723-0.539
	c-0.965-0.031-1.981,0.146-2.583-0.99c-0.276-0.521-0.996-0.476-1.533-0.61c-1.042-0.261-1.963-0.702-2.667-1.536l-0.039,0.043
	c0.211-0.007,0.422-0.032,0.632-0.018c0.518,0.035,0.772-0.267,0.902-0.704c0.141-0.475-0.056-0.773-0.489-1.018
	c-1.104-0.628-1.885-1.625-2.758-2.517l0.037-0.042c0.628-0.01,1.25,0.071,1.8-0.413c0.437-0.385,1.025-0.445,1.606-0.386
	l-0.059-0.044c0.148,0.487,0.545,0.408,0.911,0.401c0.011,0.058,0.013,0.122,0.037,0.174c0.015,0.031,0.066,0.044,0.102,0.065
	c-0.062-0.066-0.123-0.132-0.184-0.197c-0.071-0.095-0.101-0.2-0.091-0.317c0.077-0.077,0.154-0.154,0.23-0.23
	c0.275,0.034,0.559,0.13,0.823,0.092c1.87-0.278,1.871-0.289,2.662,1.322c0.195,0.394,0.359,0.644,0.933,0.479
	c0.578-0.166,1.231-0.069,1.851-0.087c0.062,0.744,0.684,1.2,0.949,1.845c0.205,0.497,0.616,0.682,1.186,0.668
	c1.679-0.04,2.498,0.986,3.002,2.451c0.312,0.908,0.643,1.83,1.599,2.345c2.497,1.344,4.62,3.192,6.723,5.066
	c0.229,0.203,0.477,0.649,0.779,0.41c0.162-0.127,0.058-0.664-0.012-0.999c-0.274-1.301-1.463-2.04-2-3.185
	c0.081-0.078,0.162-0.156,0.244-0.232c0.237,0.04,0.475,0.081,0.712,0.121c-0.003,0.306,0.134,0.455,0.451,0.402
	c0.037,0.096,0.073,0.191,0.109,0.287c0.001-0.041,0.019-0.095-0.001-0.119c-0.041-0.051-0.101-0.087-0.153-0.129
	c-0.07-0.219-0.206-0.367-0.441-0.406c-0.975-1.759-2.587-2.957-3.911-4.407c-1.396-1.53-2.87-2.882-5.237-2.293
	c-0.598,0.149-1.438,0.079-1.673-0.595c-0.434-1.248-1.359-1.224-2.358-1.195c-0.833-2.187-2.812-3.194-4.552-4.455
	c-0.386-0.279-0.716-0.635-1.073-0.956c0.071-0.08,0.143-0.159,0.216-0.236c0.42-0.07,0.752,0.86,1.246,0.091
	c0.302-0.472,0.006-0.717-0.224-1.095c-1.734-2.856-4.4-4.737-6.947-6.746c-0.333-0.262-0.67-0.524-0.974-0.818
	c-0.128-0.125-0.291-0.383-0.241-0.49c0.113-0.247,0.371-0.133,0.545-0.021c0.477,0.304,0.958,0.605,1.404,0.952
	c0.613,0.477,1.316,0.906,1.771,1.512c1.644,2.19,4.188,2.388,6.509,3.09c0.118,0.036,0.26-0.009,0.39-0.016
	c-0.089-0.167-0.147-0.366-0.273-0.499c-1.124-1.179-2.277-2.328-3.382-3.524c-0.465-0.503-1.127-0.902-1.148-1.713l-0.038,0.038
	c1.269,1.234,2.536,2.467,3.805,3.699c0.76,0.738,1.467,1.535,2.559,1.828c0.493,0.133,0.823,0.533,1.095,0.958
	c0.152,0.238,0.255,0.608,0.468,0.691c1.711,0.664,3.005,1.765,3.823,3.42c0.053,0.108,0.235,0.224,0.35,0.217
	c2.382-0.144,2.682,1.625,2.582,3.229c-0.091,1.473,0.445,2.351,1.417,3.263c1.336,1.254,2.57,2.618,3.848,3.936l0.072,0.057
	L46.542,43.7c-0.319-1.716-0.519-3.47-1.671-4.905c-0.124-0.154-0.18-0.409,0.071-0.524c0.089-0.04,0.271,0.049,0.374,0.126
	c0.692,0.521,1.038,1.36,1.65,1.922c3.449,3.161,5.742,7.15,8.108,11.093c0.182,0.304,0.369,0.604,0.569,0.895
	c0.143,0.206,0.28,0.551,0.552,0.425c0.11-0.051,0.095-0.541,0.015-0.792c-0.215-0.671-0.435-1.355-0.762-1.976
	c-1.879-3.563-3.837-7.087-5.667-10.676c-0.674-1.322-1.57-2.097-3.05-2.153c-1.228-0.047-2.126-0.725-2.904-1.569
	c-0.271-0.292-0.627-0.915-0.507-1.094c1.076-1.612-0.331-1.718-1.221-2.196c-0.699-0.377-0.906-1.111-0.866-1.82
	c0.031-0.539,0.079-0.953-0.474-1.239c-1.446-0.748-2.247-2.09-3.08-3.4l-0.035,0.032c0.326,0.022,0.781,0.188,0.953,0.037
	c0.367-0.325-0.081-0.591-0.288-0.815c-1.548-1.674-3.302-3.161-4.604-5.059c0.099-0.093,0.199-0.185,0.3-0.274
	c0.485,0.512,0.947,1.048,1.462,1.528c0.321,0.299,0.556,0.96,1.187,0.512c0.586-0.416,0.545-0.893,0.093-1.426
	c-0.938-1.108-1.354-2.456-1.671-3.84l0.156-0.131c0.986,0.73,2.381,0.491,3.296,1.39l-0.037-0.033
	c0.101,0.21,0.193,0.428,0.468,0.462l-0.039-0.043c0.144,0.305-0.013,0.766,0.465,0.898L39.345,19
	c0.052,0.297-0.095,0.664,0.293,0.845c0.046-0.268,0.091-0.537,0.137-0.805l0.037-0.036c1.199,0.594,2.479,1.092,2.675,2.702
	c0.029,0.233,0.271,0.529,0.492,0.636c1.109,0.537,1.364,1.548,1.54,2.613c0.082,0.494,0.136,1.175,0.681,1.189
	c1.62,0.04,1.645,1.257,1.908,2.328c0.228,0.926,0.254,1.877,1.489,2.254c0.647,0.197,0.839,1.128,0.943,1.811
	c0.177,1.178,0.619,2.347,0.334,3.563c-0.125,0.529,0.01,0.999,0.273,1.413c1.785,2.802,3.173,5.818,4.751,8.73
	c0.098,0.181,0.313,0.494,0.366,0.473c0.313-0.123,0.191-0.439,0.148-0.657c-0.357-1.796-0.745-3.587-1.103-5.382
	c-0.036-0.185,0.067-0.398,0.105-0.597c0.112,0.153,0.255,0.293,0.33,0.464c0.9,2.067,1.479,4.244,2.182,6.38
	c0.771,2.345,1.585,4.675,2.393,7.007c0.056,0.162,0.22,0.285,0.334,0.427c0.024-0.138,0.078-0.278,0.068-0.414
	c-0.101-1.476,0.11-2.975-0.285-4.429c-1.015-3.738-2.095-7.46-3.039-11.216c-0.296-1.179-0.806-1.88-2.014-2.111
	c-0.617-0.118-1.229-0.349-1.792-0.63c-0.88-0.44-1.553-1.039-1.037-2.18c0.085-0.188,0.219-0.526,0.148-0.587
	c-1.333-1.172-1.148-3.017-1.982-4.399c-0.362-0.602-0.802-1.157-1.175-1.753c-0.146-0.232-0.154-0.562-0.319-0.771
	c-0.525-0.666,1.111-0.881,0.307-1.556c-0.43-0.361-0.926-0.646-1.339-1.024c-1.26-1.152-1.15-2.782-1.442-4.271l-0.023,0.021
	c0.792-0.909,0.661-1.875,0.196-2.873c-1.061-2.277-2.131-4.55-3.157-6.843c-0.367-0.82-0.911-1.582-0.956-2.526l0.156-0.145
	c1.348,1.708,1.964,3.802,3.004,5.67c0.936,1.68,1.367,3.653,2.874,5.006l0.073,0.059l-0.105-0.038
	c-0.543-2.276-1.086-4.553-1.629-6.83l-0.043,0.039c0.915,1.175,1.351,2.815,3.102,3.18c0.295,0.061,0.213,0.744,0.667,0.472
	c0.115-0.07,0.058-0.537-0.019-0.79c-0.203-0.672-0.496-1.321-0.311-2.049l-0.037,0.03c1.31,2.171,2.627,4.338,3.926,6.516
	c0.615,1.031-0.015,2.38,0.547,3.268c0.546,0.862,1.318,1.54,1.416,2.655c0.073,0.836-0.204,1.849,1.158,2.082
	c0.466,0.08,0.386,0.843,0.461,1.317c0.123,0.779,0.023,1.56-0.174,2.307c-0.264,1.004,0.199,1.686,0.747,2.455
	c0.419,0.586,0.481,0.188,0.686-0.058c0.523-0.631,0.27-1.304,0.167-2c-0.14-0.948-0.901-2.053,0.657-2.665
	c0.45-0.177,0.161-0.766-0.051-1.117c-0.65-1.082-1.438-2.11-0.669-3.484c0.098-0.173-0.077-0.549-0.203-0.792
	c-0.755-1.451-0.648-3.002-0.564-4.553l-0.037,0.029c0.295,0.116,0.388,0.364,0.458,0.648c0.088,0.357-0.026,1.052,0.578,0.818
	c0.47-0.181,0.108-0.735-0.072-1.095c-0.554-1.106-0.642-2.265-0.579-3.49c0.127-2.469-0.337-4.909-0.575-7.355
	C57.306,5.69,57.19,4.507,57.22,3.31L57.18,3.344c0.847,1.449,0.599,3.114,0.887,4.671c0.307,1.66,0.355,3.366,0.564,5.047
	c0.055,0.437-0.015,1.162,0.666,1.093c0.506-0.051,0.358-0.688,0.351-1.076c-0.057-2.759,0.717-5.464,0.531-8.232
	c-0.015-0.221-0.089-0.524,0.245-0.639c0.052,0.202,0.138,0.4,0.15,0.604c0.047,0.848,0.069,1.697,0.105,2.545
	c0.038,0.875,0.265,1.661,0.96,2.271c0.979,0.858,1.366,1.94,1.167,3.238c-0.054,0.346-0.066,0.712-0.014,1.056
	c0.046,0.307,0.327,0.439,0.626,0.442c0.312,0.004,0.571-0.16,0.599-0.467c0.044-0.49,0.03-0.988,0.008-1.48
	c-0.138-3.108-0.29-6.215-0.419-9.323c-0.008-0.208-0.142-0.574,0.257-0.595c0.068-0.003,0.178,0.341,0.231,0.536
	c0.341,1.241,0.383,2.512,0.379,3.789c-0.006,1.839,0.004,3.679-0.024,5.519c-0.014,0.923-0.03,1.832,0.28,2.725
	c0.259,0.749,0.331,1.55,0.018,2.288c-0.246,0.577-0.184,1.042,0.036,1.609c0.289,0.748,0.201,1.559-0.214,2.253
	c-0.537,0.896-0.778,1.512,0.35,2.309c0.869,0.616,0.303,1.724-0.208,2.498c-0.465,0.708-0.783,1.316-0.102,2.065
	c0.168,0.185,0.291,0.556,0.228,0.784c-0.71,2.573-0.008,5.613-2.496,7.606c-0.447,0.358-0.341,0.9-0.337,1.387
	c0.018,2.685,0.495,5.349,0.377,8.042c-0.008,0.208,0.058,0.419,0.09,0.628c0.064-0.164,0.164-0.321,0.191-0.491
	c0.634-3.895,2.108-7.606,2.54-11.548c0.033-0.319,0.033-0.815,0.509-0.761c0.435,0.05,0.417,0.513,0.375,0.854
	c-0.31,2.521-0.639,5.039-0.958,7.559c-0.044,0.347-0.078,0.696-0.1,1.046c-0.008,0.139,0.028,0.28,0.046,0.42
	c0.056-0.169,0.107-0.34,0.168-0.508c0.14-0.394,0.327-0.777,0.423-1.182c0.622-2.669,1.148-5.362,2.038-7.964
	c0.193-0.567,0.122-1.079-0.289-1.579c-0.444-0.543-0.859-1.134-1.169-1.762c-0.771-1.564-0.63-2.26,0.593-3.604
	c0.188-0.206,0.555-0.427,0.536-0.61c-0.147-1.512,0.595-2.827,0.846-4.242c0.18-1.001-0.305-2.131,0.687-2.962
	c0.111-0.094,0.107-0.406,0.063-0.596c-0.57-2.449,0.359-4.588,1.385-6.701c0.239-0.495,0.315-1.094,0.813-1.447
	c0.059,0.05,0.114,0.099,0.17,0.149c-0.008,1.232-0.828,2.248-0.916,3.455c-0.012,0.17,0.101,0.449,0.231,0.511
	c0.212,0.099,0.407-0.115,0.469-0.309c0.467-1.478,0.924-2.957,1.361-4.441c0.941-3.193,2.182-6.256,3.919-9.103
	c0.13-0.213,0.369-0.361,0.557-0.539c0.239,0.297-0.02,0.531-0.119,0.767c-1.069,2.532-2.15,5.058-3.222,7.589
	c-0.22,0.519-0.431,1.042-0.604,1.577c-0.108,0.328-0.197,0.685,0.058,1.006c0.17-0.214,0.339-0.431,0.511-0.644
	c0.782-0.973,1.563-1.945,2.348-2.918l-0.027-0.024c-0.086,1.089-0.204,2.181,0.151,3.25c0.073,0.219-0.188,0.617,0.229,0.638
	c0.312,0.016,0.375-0.347,0.5-0.596c0.503-0.997,1.023-1.987,1.538-2.979c0.098,0.086,0.196,0.171,0.292,0.259
	c-0.262,0.652-0.507,1.312-0.788,1.955c-0.932,2.123-1.311,4.395-1.794,6.638c-0.016,0.069-0.016,0.141-0.02,0.211
	c-0.062,1.171-1.406,1.769-1.49,2.681c-0.094,1.005,0.243,2.058-0.357,3.022c-0.185,0.298-0.353,0.642-0.618,0.852
	c-0.779,0.614-1.219,1.208-0.641,2.268c0.306,0.562-0.008,1.275-0.466,1.755c-0.654,0.684-0.884,1.371-0.479,2.296
	c0.369,0.838-0.027,1.673-0.756,1.983c-1.961,0.838-2.365,2.473-2.891,4.317c-1.079,3.806-1.851,7.664-2.599,11.536
	c-0.606,3.137-0.767,6.309-0.796,9.492c-0.022,2.618-0.064,5.235-0.072,7.854c-0.002,0.36-0.211,1.014,0.369,0.983
	c0.513-0.028,0.323-0.676,0.333-1.061c0.048-1.627,0.096-3.254,0.092-4.881c-0.018-6.968,1.513-13.578,4.509-19.861
	c0.578-1.21,1.029-2.479,1.638-3.672c0.335-0.661,0.183-1.194-0.028-1.813c-0.306-0.894-0.429-1.807,0.361-2.562
	c0.343-0.329,0.287-0.769,0.393-1.171c0.229-0.873,0.335-1.83,1.257-2.341c0.257-0.143,0.455-0.353,0.471-0.658
	c0.063-1.108,0.191-2.08,1.646-2.266c0.541-0.069,0.346-0.839,0.373-1.309c0.05-0.854-0.002-1.735,1.062-2.073
	c0.595-0.188,0.561-0.705,0.639-1.206c0.239-1.541,0.752-2.987,1.689-4.257c0.069,0.054,0.138,0.108,0.205,0.163
	c-0.056,0.269-0.1,0.541-0.169,0.806c-0.053,0.198-0.166,0.428,0.035,0.558c0.352,0.226,0.469-0.105,0.557-0.335
	c0.409-1.084,0.796-2.176,1.189-3.266l-0.042,0.051c0.59-0.103,0.658-0.781,1.123-1.023c0.104,0.094,0.207,0.188,0.309,0.285
	c-0.002,0.702-1.388,1.377-0.373,1.937c0.645,0.356,0.761-0.935,1.207-1.408c0.146-0.151,0.224-0.384,0.387-0.497
	c3.003-2.057,5.127-4.988,7.595-7.578c0.172-0.181,0.385-0.536,0.62-0.364c0.304,0.222-0.012,0.512-0.178,0.698
	c-1.498,1.683-2.872,3.512-4.56,4.978c-1.45,1.26-1.077,2.959-1.63,4.416c-0.168,0.44,0.329,0.245,0.524,0.143
	c0.308-0.161,0.57-0.419,0.962-0.319l-0.028-0.026c-0.815,1.756-1.496,3.579-2.529,5.23c-0.072,0.116-0.105,0.262-0.13,0.4
	c-0.197,1.199-1.777,1.201-2.028,2.231c-0.273,1.121-0.79,1.926-1.806,2.44c-0.297,0.149-0.652,0.281-0.484,0.768
	c0.459,1.323-0.547,1.74-1.425,2.177c-0.55,0.273-0.961,0.448-0.57,1.208c0.222,0.427-0.314,0.728-0.606,1.007
	c-0.688,0.656-1.353,1.138-1.167,2.404c0.146,0.991-1.057,1.667-1.979,1.942c-1.272,0.377-1.646,1.271-2.101,2.35
	c-1.314,3.106-2.982,6.059-3.991,9.298c-0.523,1.671-1.277,3.291-1.138,5.109c-0.081,0.105-0.188,0.2-0.237,0.319
	c-0.075,0.18-0.132,0.377,0.036,0.549c0.05-0.163,0.109-0.324,0.144-0.49c0.026-0.132,0.018-0.27,0.026-0.405
	c1.108-1.137,1.428-2.697,2.142-4.044c0.763-1.434,1.402-2.931,2.123-4.387c0.136-0.274,0.289-0.745,0.738-0.473
	c0.281,0.171,0.088,0.487-0.015,0.755c-1.035,2.705-2.106,5.398-3.062,8.131c-0.509,1.458-1.041,2.941-0.985,4.534
	c0.008,0.198,0.088,0.395,0.134,0.591c0.06-0.2,0.136-0.396,0.175-0.601c0.654-3.286,1.917-6.306,3.527-9.261
	c1.133-2.078,1.594-4.513,2.434-6.759c1.982-5.308,4.151-10.518,8.43-14.494c0.086,0.086,0.17,0.171,0.254,0.258
	c-1.393,2.364-3.064,4.562-4.239,7.055c-1.293,2.743-2.229,5.62-3.12,8.512c-0.092,0.095-0.189,0.184-0.265,0.288
	c-0.021,0.026,0.029,0.102,0.046,0.156c0.06-0.162,0.117-0.322,0.175-0.484c0.553-0.531,1.115-1.051,1.656-1.594
	c1.179-1.185,1.937-2.493,1.697-4.293c-0.142-1.053,0.078-2.127,1.326-2.587c0.65-0.239,0.547-0.925,0.715-1.425
	c0.333-0.987,0.084-2.443,1.908-2.068c0.359,0.074,0.348-0.363,0.441-0.593c0.239-0.583,0.447-1.178,0.66-1.771
	c0.13-0.355,0.486-0.793,0.706-0.671c1.544,0.852,1.511-0.555,1.839-1.281c0.93-2.053,1.844-4.114,3.418-5.774
	c0.506-0.537,0.909-1.295,1.829-1.257c0-0.001-0.024-0.024-0.024-0.024c-1.033,1.419-2.292,2.673-3.088,4.263
	c-0.096,0.188-0.253,0.357-0.075,0.542c0.023,0.025,0.325-0.148,0.435-0.281c2.403-2.941,5.456-5.104,8.588-7.171
	c0.077,0.083,0.153,0.168,0.229,0.253c-1.569,1.648-3.498,2.865-5.21,4.339c-0.425,0.367-0.884,0.725-1.207,1.174
	c-0.325,0.451-0.128,1.007,0.208,1.364c0.285,0.305,0.638-0.025,0.932-0.204c0.793-0.486,1.719-0.593,2.577-0.897l0.065,0.074
	c-0.231,0.427-0.492,0.84-0.69,1.282c-0.638,1.423-0.628,1.427,1.083,1.238l-0.029-0.034c-0.094,1.498-0.599,2.621-2.362,2.617
	c-0.279-0.001-0.737,0.032-0.72,0.291c0.121,1.719-1.911,1.903-2.276,3.29c-0.14,0.53-0.706,0.854-1.192,1.158
	c-0.515,0.321-1.027,0.533-1.127,1.351c-0.108,0.912-1.044,1.263-1.844,1.563c-0.555,0.208-0.981,0.356-0.714,1.151
	c0.122,0.365-0.431,0.676-0.758,0.941c-1.169,0.946-2.496,1.658-3.944,1.975C80,39.5,79.51,40.001,79.003,40.719
	c-1.54,2.188-3.108,4.357-4.737,6.477c-0.948,1.23-1.233,2.67-1.594,4.101c-0.042,0.167,0.043,0.367,0.069,0.551
	c0.113-0.177,0.237-0.349,0.337-0.533c1.113-2.03,2.322-3.986,4.132-5.492L77.176,45.789z M51.266,54.744
	c-0.029-0.064-0.049-0.133-0.091-0.188c-0.021-0.027-0.079-0.026-0.121-0.037c-0.013,0.129,0.072,0.189,0.254,0.178
	c0.037,0.328,0.001,0.69,0.398,0.85c0.068,0.146,0.136,0.293,0.204,0.439c0.017-0.057,0.064-0.144,0.043-0.165
	c-0.086-0.089-0.193-0.158-0.292-0.234C51.653,55.25,51.565,54.946,51.266,54.744z M73.834,79.755
	c0.006,0.343,0.002,0.686,0.021,1.027c0.006,0.134,0.058,0.265,0.088,0.396c0.223-0.081,0.205-0.274,0.201-0.452
	c-0.012-0.35-0.092-0.677-0.352-0.934c-0.138-0.566,0.128-1.236-0.435-1.693c-0.012-0.138-0.018-0.277-0.04-0.414
	c-0.05-0.307,0.084-0.646-0.165-0.916c-0.254,0.324-0.114,0.658-0.008,0.979c0.039,0.12,0.169,0.21,0.257,0.313
	C73.514,78.635,73.184,79.32,73.834,79.755z M72.558,74.229c0.004,0.141,0,0.282,0.012,0.423c0.026,0.319-0.073,0.661,0.16,0.945
	c0.271-0.322,0.138-0.66,0.021-0.986c-0.044-0.127-0.155-0.23-0.237-0.344c-0.146-0.564,0.151-1.242-0.429-1.697
	c-0.012-0.14-0.018-0.28-0.038-0.419c-0.042-0.311,0.076-0.652-0.17-0.926c-0.259,0.326-0.119,0.661-0.004,0.984
	c0.044,0.122,0.168,0.217,0.256,0.324C72.234,73.108,71.936,73.785,72.558,74.229z M71.277,68.71
	c0.004,0.14-0.002,0.281,0.014,0.421c0.034,0.312-0.076,0.653,0.172,0.927c0.257-0.323,0.129-0.663,0.023-0.989
	c-0.04-0.121-0.165-0.215-0.253-0.32c-0.015-0.283-0.021-0.566-0.048-0.848c-0.015-0.137-0.068-0.271-0.106-0.405
	c-0.231,0.104-0.188,0.315-0.179,0.499C70.914,68.287,71.014,68.545,71.277,68.71z M66.533,69.229
	c-0.006-0.203-0.006-0.406-0.02-0.608c-0.008-0.133-0.04-0.266-0.061-0.398c-0.247,0.077-0.223,0.283-0.169,0.447
	c0.063,0.187,0.191,0.349,0.291,0.522c0.012,0.205,0.021,0.412,0.038,0.616c0.048,0.517-0.136,1.062,0.193,1.544
	c0.303-0.528,0.09-1.073,0.026-1.605C66.811,69.564,66.637,69.401,66.533,69.229z M52.54,50.462c0.028,0.05,0.05,0.104,0.086,0.147
	c0.019,0.023,0.062,0.025,0.095,0.037c-0.074-0.048-0.148-0.096-0.221-0.143c-0.438-2.02-1.445-3.713-2.946-5.122
	c-0.343-1.343-1.708-2.017-2.16-3.296c-0.081-0.228-0.337-0.391-0.513-0.584c-0.176,0.317,0.128,0.506,0.214,0.747
	c0.307,0.854,0.742,1.652,0.883,2.579c0.096,0.625,0.477,1.166,1.099,1.46c0.098,0.172,0.196,0.344,0.294,0.517
	c0.06-0.197,0.12-0.395,0.18-0.593c0.715,0.457,0.998,1.241,1.442,1.902C51.517,48.89,51.64,49.932,52.54,50.462z M77.166,67.092
	c-0.009-0.063,0-0.133-0.026-0.186c-0.016-0.033-0.084-0.04-0.128-0.058c0.064,0.068,0.128,0.137,0.193,0.205
	c1.117,1.653,2.58,2.966,4.182,4.12c0.279,0.202,0.752,0.599,1.123,0.202c0.367-0.393,0.002-0.803-0.262-1.108
	C80.886,68.687,79.173,67.648,77.166,67.092z M80.572,47.055c1.113-0.233,1.515-1.424,2.452-1.857
	c1.569-0.725,1.366-2.082,1.341-3.397c-0.004-0.134-0.055-0.269-0.082-0.403c-0.178,0.092-0.429,0.138-0.521,0.283
	c-1.109,1.768-2.442,3.407-3.152,5.407c-0.088,0.076-0.458,0.036-0.117,0.287C80.519,47.268,80.545,47.162,80.572,47.055z
	 M61.86,52.082c-0.294-4.55-0.627-8.711-0.802-12.879c-0.067-1.606-0.063-3.096-1.729-3.95c-0.535-0.274-0.663-1.347-1.304-1.09
	c-0.4,0.16-0.519,1.077-0.715,1.67c-0.309,0.932-0.033,1.824,0.301,2.684c0.642,1.655,1.087,3.358,1.328,5.114
	c0.087,0.64,0.297,1.221,0.629,1.766c0.058-0.536,0.103-1.073,0.179-1.606c0.028-0.2,0.129-0.39,0.196-0.585
	c0.284,0.153,0.259,0.438,0.29,0.694c0.312,2.597,0.6,5.199,0.949,7.792c0.098,0.717,0.375,1.411,0.571,2.115
	C61.797,53.104,61.841,52.402,61.86,52.082z M79.406,65.266c1.565-0.019,2.983,0.102,4.349-0.378
	c0.274-0.097,0.566-0.21,0.475-0.548c-0.032-0.112-0.348-0.2-0.537-0.205c-1.41-0.038-2.82-0.063-4.205,0.279
	c-0.873,0.216-1.853-0.023-2.623,0.626C77.73,65.555,78.674,65.083,79.406,65.266z M68.335,64.968
	c0.033,0.118,0.05,0.552,0.195,0.603c0.308,0.104,0.435-0.221,0.473-0.507c0.431-3.267,1.056-6.5,1.72-9.726
	c0.052-0.255,0.084-0.529-0.116-0.757c-0.105,0.257-0.229,0.508-0.312,0.771C69.33,58.438,68.925,61.64,68.335,64.968z
	 M53.806,74.926c-0.066-0.488-0.129-0.955-0.192-1.422c-0.055,0.486-0.144,0.972-0.154,1.459c-0.009,0.467-0.146,0.956,0.128,1.4
	C53.661,75.882,53.734,75.4,53.806,74.926z M65.328,71.955c0.068,0.381,0.124,0.706,0.182,1.031
	c0.048-0.246,0.136-0.492,0.132-0.738c-0.008-0.326-0.09-0.649-0.14-0.975C65.442,71.514,65.381,71.753,65.328,71.955z
	 M54.146,70.599c-0.035-0.341-0.063-0.617-0.091-0.895c-0.038,0.223-0.101,0.444-0.107,0.667c-0.008,0.275,0.029,0.553,0.047,0.83
	C54.049,70.982,54.104,70.765,54.146,70.599z M50.337,89.255c-0.056-0.348,0.07-0.64-0.169-0.858
	c-0.028,0.263-0.082,0.527-0.076,0.79c0.005,0.26,0.071,0.519,0.111,0.777C50.252,89.701,50.302,89.437,50.337,89.255z
	 M49.934,92.176c-0.038-0.197-0.098-0.5-0.157-0.803c-0.043,0.271-0.113,0.541-0.122,0.813c-0.008,0.271,0.045,0.545,0.073,0.815
	C49.972,92.812,49.888,92.535,49.934,92.176z M65.255,68.986c-0.208-0.145,0.126-0.453-0.214-0.59
	c-0.025,0.2-0.071,0.402-0.067,0.603c0.002,0.204,0.054,0.408,0.084,0.611C65.117,69.42,65.177,69.229,65.255,68.986z M50.51,85.875
	c0.038,0.193,0.084,0.43,0.13,0.666c0.025-0.198,0.067-0.397,0.069-0.597c0.001-0.199-0.039-0.398-0.061-0.598
	C50.608,85.505,50.566,85.662,50.51,85.875z M68.312,70.604c0.059,0.196,0.13,0.435,0.202,0.671
	c0.031-0.128,0.096-0.258,0.089-0.384c-0.016-0.263-0.067-0.524-0.105-0.785C68.444,70.251,68.391,70.396,68.312,70.604z
	 M68.741,73.096c0.057,0.204,0.126,0.462,0.198,0.721c0.035-0.201,0.098-0.404,0.098-0.605s-0.061-0.403-0.094-0.604
	C68.695,72.672,68.823,72.886,68.741,73.096z M48.672,89.771c-0.052-0.154-0.126-0.373-0.2-0.591c-0.033,0.196-0.09,0.394-0.09,0.59
	c0,0.229-0.09,0.489,0.144,0.671C48.568,90.246,48.611,90.051,48.672,89.771z M69.873,78.664c0-0.458,0.01-0.793-0.009-1.126
	c-0.006-0.087-0.105-0.17-0.161-0.255c-0.021,0.333-0.056,0.666-0.058,1C69.646,78.369,69.745,78.457,69.873,78.664z M48.969,86.488
	c-0.063,0.198-0.137,0.326-0.138,0.455c-0.002,0.199,0.043,0.398,0.068,0.6c0.044-0.127,0.119-0.253,0.124-0.381
	C49.032,86.961,48.994,86.759,48.969,86.488z M69.494,75.554c-0.068-0.175-0.132-0.342-0.196-0.51
	c-0.033,0.131-0.1,0.264-0.094,0.393c0.011,0.201,0.068,0.4,0.106,0.601C69.37,75.881,69.428,75.725,69.494,75.554z M49.445,84.538
	c-0.028-0.132-0.063-0.299-0.1-0.466c-0.026,0.126-0.069,0.251-0.074,0.377c-0.004,0.129,0.03,0.259,0.048,0.388
	C49.355,84.751,49.392,84.665,49.445,84.538z M68.159,68.59c-0.024-0.131-0.048-0.261-0.072-0.392
	c-0.041,0.12-0.096,0.239-0.123,0.364c-0.015,0.06,0.004,0.144,0.04,0.193C68.071,68.849,68.133,68.784,68.159,68.59z
	 M54.478,64.448c-0.036,0.053-0.101,0.107-0.101,0.16c0.001,0.134,0.032,0.268,0.051,0.401c0.039-0.056,0.109-0.11,0.108-0.163
	C54.534,64.714,54.499,64.581,54.478,64.448z M51.11,82.633c-0.02-0.096-0.04-0.192-0.06-0.288
	c-0.019,0.061-0.055,0.122-0.052,0.181c0.005,0.097,0.036,0.191,0.056,0.287C51.073,82.752,51.091,82.692,51.11,82.633z
	 M49.831,81.812c0-0.067,0.019-0.143-0.004-0.2c-0.048-0.123-0.097-0.073-0.106,0.14c-0.003,0.065,0.017,0.133,0.026,0.199
	C49.775,81.904,49.802,81.858,49.831,81.812z M70.996,53.538l0.083-0.168l-0.094-0.027L70.996,53.538z M54.096,63.234
	c-0.015-0.064-0.03-0.127-0.045-0.192c-0.031,0.057-0.08,0.111-0.087,0.168c-0.008,0.061,0.026,0.127,0.042,0.19
	C54.036,63.345,54.066,63.29,54.096,63.234z M53.682,61.99c-0.012-0.065-0.023-0.129-0.035-0.194
	c-0.04,0.018-0.112,0.035-0.113,0.054c-0.002,0.065,0.022,0.131,0.036,0.196C53.607,62.027,53.645,62.009,53.682,61.99z
	 M59.992,55.718c0.011-0.052,0.046-0.113,0.029-0.152c-0.046-0.111-0.093-0.075-0.1,0.098C59.921,55.681,59.968,55.7,59.992,55.718z
	 M51.509,79.344l-0.058-0.007l0.012,0.163L51.509,79.344z M53.167,60.97l0.072-0.113l-0.102-0.018L53.167,60.97z"/>
</svg>
