<?xml version="1.0" encoding="utf-8"?>
<!-- Generator: Adobe Illustrator 16.0.0, SVG Export Plug-In . SVG Version: 6.00 Build 0)  -->
<!DOCTYPE svg PUBLIC "-//W3C//DTD SVG 1.1//EN" "http://www.w3.org/Graphics/SVG/1.1/DTD/svg11.dtd">
<svg version="1.1" id="Layer_1301" xmlns="http://www.w3.org/2000/svg" xmlns:xlink="http://www.w3.org/1999/xlink" x="0px" y="0px"
	 width="128px" height="128px" viewBox="0 0 128 128" enable-background="new 0 0 128 128" xml:space="preserve">
<path d="M104.551,0.221c-0.108-0.185-0.385-0.262-0.606-0.218c-0.03,0.007-0.149,0.043-0.187,0.06
	c-0.041,0.02-0.051,0.073-0.09,0.093c-0.036,0.018-0.078,0.001-0.117,0.012c-0.107,0.027-0.209,0.084-0.31,0.132
	c-0.228,0.107-0.454,0.222-0.678,0.34c-0.443,0.235-0.876,0.491-1.298,0.765c-1.455,0.943-2.766,2.091-3.975,3.33
	c-4.553,4.666-9.416,8.977-14.905,12.521c-1.292,0.834-2.484,2-4.337,2.126c0.357-2.496,1.76-4.471,2.096-6.766
	c-0.496-0.537-0.992-1.074-1.547-1.676c-0.273,0.504-0.49,0.902-0.67,1.234c-0.32,0.358-0.838-0.249-1.047,0.361
	c-0.201,1.199,0.143,2.554-0.791,3.974c-0.531-2.356,0.162-4.316,0.382-6.282c0.222-1.989,0.622-3.993,1.245-5.892
	c0.271-0.826,0.59-1.637,0.941-2.432c0.153-0.346,0.309-0.686,0.443-1.038c0.076-0.2,0.537-0.542,0.324-0.771
	c-0.137-0.146-0.418-0.081-0.557,0.034c-0.209,0.172-0.309,0.464-0.48,0.671c-0.09,0.108-0.205,0.195-0.287,0.312
	c-0.119,0.169-0.19,0.383-0.273,0.572c-0.184,0.416-0.358,0.836-0.525,1.26c-0.334,0.85-0.633,1.713-0.893,2.588
	c-0.527,1.778-0.894,3.604-1.084,5.448c-0.264,2.536-0.541,5.072-0.803,7.609c-0.096,0.913-0.051,1.874-0.863,2.454
	c-0.609,0.177-0.674-1.041-1.416-0.373c-0.094,0.719-0.193,1.479-0.291,2.228c-0.504,0.722-0.99,1.405-1.701,1.853
	c-0.639-0.313-0.067-1.301-0.884-1.467c-0.753,0.998-0.155,2.239-0.93,3.323c-0.282,0.194-0.718,0.495-1.103,0.76
	c-0.605,2.246-1.718,2.809-3.336,3.031c-1.618-0.222-2.731-0.786-3.336-3.031c-0.385-0.265-0.82-0.565-1.103-0.76
	c-0.774-1.084-0.177-2.325-0.93-3.323c-0.816,0.166-0.245,1.153-0.884,1.467c-0.711-0.447-1.197-1.131-1.701-1.853
	c-0.098-0.748-0.197-1.509-0.291-2.228c-0.742-0.668-0.807,0.55-1.416,0.373c-0.812-0.58-0.768-1.541-0.863-2.454
	c-0.262-2.537-0.539-5.073-0.803-7.609c-0.19-1.845-0.557-3.67-1.084-5.448c-0.26-0.875-0.559-1.738-0.893-2.588
	c-0.167-0.424-0.342-0.844-0.525-1.26c-0.083-0.189-0.154-0.403-0.273-0.572c-0.082-0.116-0.197-0.203-0.287-0.312
	c-0.172-0.207-0.271-0.499-0.48-0.671c-0.139-0.115-0.42-0.181-0.557-0.034c-0.213,0.229,0.248,0.571,0.324,0.771
	c0.135,0.353,0.29,0.692,0.443,1.038c0.352,0.795,0.671,1.605,0.941,2.432c0.623,1.898,1.023,3.902,1.245,5.892
	c0.22,1.966,0.913,3.926,0.382,6.282c-0.934-1.42-0.59-2.774-0.791-3.974c-0.209-0.61-0.727-0.003-1.047-0.361
	c-0.18-0.332-0.396-0.73-0.67-1.234c-0.555,0.602-1.051,1.139-1.547,1.676c0.336,2.295,1.738,4.27,2.096,6.766
	c-1.853-0.126-3.045-1.292-4.337-2.126C40.125,13.71,35.262,9.399,30.709,4.733c-1.209-1.239-2.52-2.387-3.975-3.33
	c-0.422-0.273-0.854-0.529-1.298-0.765c-0.224-0.118-0.45-0.232-0.678-0.34c-0.101-0.048-0.202-0.104-0.31-0.132
	c-0.039-0.011-0.081,0.006-0.117-0.012c-0.039-0.02-0.049-0.073-0.09-0.093c-0.037-0.017-0.156-0.053-0.187-0.06
	c-0.222-0.044-0.498,0.033-0.606,0.218c-0.047,0.078-0.062,0.176-0.029,0.291c0.08,0.291,0.287,0.348,0.553,0.405
	c0.379,0.081,0.698,0.277,1.031,0.468c0.379,0.217,0.752,0.443,1.119,0.68c1.459,0.938,2.818,2.025,4.088,3.207
	c1.09,1.016,2.115,2.101,3.094,3.227c1.126,1.296,2.361,2.398,3.725,3.445c2.332,1.789,4.643,3.599,7.051,5.288
	c1.841,1.291,3.666,2.589,5.73,3.511c0.489,0.219,0.992,0.479,1.381,0.835c3.027,2.779,5.814,5.772,8.031,9.254
	c0.162,0.255,0.244,0.56,0.398,0.926c-2.328,2.891-4.152,6.104-5.701,9.464c-2.434-0.18-2.597-2.358-3.536-3.631
	c-0.827,0.256-0.173,0.949-0.864,1.368c-2.488-1.83-5.284-3.464-5.499-7.187c-0.206-0.6-0.849-0.271-1.19-0.575
	c-0.662-0.67-0.328-1.649-0.725-2.384c-0.461-0.477-1.044-0.656-1.552-0.842c-0.609,0.31-0.845,0.803-1.22,1.256
	c0.794,3.437,2.279,6.479,4.849,9.008c2.485,2.445,4.905,4.91,8.514,6.036c-0.315,2.204-0.606,4.306-0.913,6.306
	c-2.693,0-5.203,0-7.608,0c-1.456,0-1.817-1.667-2.552-2.661c-2.523-0.227-4.172-1.574-5.242-3.946
	c-0.839,0.257-1.549-0.254-2.207-0.575c-0.714,0.133-1.029,0.548-1.289,1.145c0.156,0.605,0.33,1.273,0.536,2.072
	c1.756,0.724,3.085,2.139,4.528,3.414c2.682,2.368,5.896,3.646,9.314,4.512c1.391,0.353,2.757-0.168,4.424-0.064
	c0.388,2.805,0.746,5.577,0.71,8.254c-0.862,1.236-1.927,1.815-3.142,2.184c-2.586,0.783-4.621,2.467-6.684,4.105
	c-0.498,0.396-0.828,0.908-1.063,1.496c-0.724,1.807-1.249,3.668-1.481,5.6c-0.121,1.004-0.098,2.012,0.635,2.848
	c0.67,0.141,1.191-0.254,1.811-0.428c0.059-0.207,0.155-0.422,0.175-0.641c0.169-1.881,1.066-3.541,2.195-4.881
	c1.18-1.402,2.647-2.549,3.188-4.51c1.749,0.27,3.236-0.6,5.122-0.621c1.336,2.812,1.896,5.953,3.19,8.812
	c1.304,2.881,3.188,5.508,3.862,8.682c-0.062,1.107-0.504,2.096-1.055,3.035c-2.468,4.213-4.603,8.58-6.574,13.051
	c-1.782,4.039-4.104,7.773-7.246,10.992c-4.027,4.123-7,9.051-9.992,13.939c-0.113,0.186-0.238,0.369-0.344,0.561
	c-0.078,0.145-0.127,0.307-0.208,0.451c-0.052,0.094-0.114,0.152-0.112,0.262c0.002,0.105-0.031,0.211,0.073,0.273
	c0.058,0.033,0.093,0.012,0.151,0.025c0.055,0.012,0.092,0.035,0.149,0.039c0.1,0.006,0.24,0.018,0.336-0.008
	c0.067-0.02,0.083-0.055,0.12-0.104c0.043-0.057,0.094-0.1,0.143-0.15c0.199-0.209,0.305-0.484,0.474-0.717
	c0.068-0.094,0.103-0.191,0.16-0.291c0.087-0.148,0.187-0.293,0.278-0.439c0.665-1.049,1.328-2.1,1.99-3.15s1.323-2.102,1.982-3.154
	c1.609-2.57,3.581-4.842,5.641-7.053c2.277-2.447,4.2-5.164,5.732-8.135c1.492-2.889,2.902-5.818,4.252-8.779
	c1.057-2.314,2.441-4.479,3.699-6.701c0.303-0.535,0.652-1.059,1.443-1.246c0.961,1.03,0.734,3.092,2.477,3.688h0.469
	c1.742-0.597,1.496-2.658,2.457-3.688c0.791,0.188,1.141,0.711,1.443,1.246c1.258,2.223,2.643,4.387,3.699,6.701
	c1.35,2.961,2.76,5.891,4.252,8.779c1.532,2.971,3.455,5.688,5.732,8.135c2.06,2.211,4.031,4.482,5.641,7.053
	c0.659,1.053,1.32,2.104,1.982,3.154s1.325,2.102,1.99,3.15c0.092,0.146,0.191,0.291,0.278,0.439c0.058,0.1,0.092,0.197,0.16,0.291
	c0.169,0.232,0.274,0.508,0.474,0.717c0.049,0.051,0.1,0.094,0.143,0.15c0.037,0.049,0.053,0.084,0.12,0.104
	c0.096,0.025,0.236,0.014,0.336,0.008c0.058-0.004,0.095-0.027,0.149-0.039c0.059-0.014,0.094,0.008,0.151-0.025
	c0.104-0.062,0.071-0.168,0.073-0.273c0.002-0.109-0.061-0.168-0.112-0.262c-0.081-0.145-0.13-0.307-0.208-0.451
	c-0.105-0.191-0.23-0.375-0.344-0.561c-2.992-4.889-5.965-9.816-9.992-13.939c-3.143-3.219-5.464-6.953-7.246-10.992
	c-1.972-4.471-4.106-8.838-6.574-13.051c-0.551-0.939-0.993-1.928-1.055-3.035c0.675-3.174,2.559-5.801,3.862-8.682
	c1.294-2.859,1.854-6,3.19-8.812c1.886,0.021,3.373,0.891,5.122,0.621c0.54,1.961,2.008,3.107,3.188,4.51
	c1.129,1.34,2.026,3,2.195,4.881c0.02,0.219,0.116,0.434,0.175,0.641c0.619,0.174,1.141,0.568,1.811,0.428
	c0.732-0.836,0.756-1.844,0.635-2.848c-0.232-1.932-0.758-3.793-1.481-5.6c-0.235-0.588-0.565-1.1-1.063-1.496
	c-2.062-1.639-4.098-3.322-6.684-4.105c-1.215-0.368-2.279-0.947-3.142-2.184c-0.036-2.677,0.322-5.449,0.71-8.254
	c1.667-0.104,3.033,0.417,4.424,0.064c3.419-0.866,6.633-2.144,9.314-4.512c1.443-1.275,2.772-2.69,4.528-3.414
	c0.206-0.799,0.38-1.467,0.536-2.072c-0.26-0.597-0.575-1.012-1.289-1.145c-0.658,0.321-1.368,0.832-2.207,0.575
	c-1.07,2.372-2.719,3.719-5.242,3.946c-0.734,0.994-1.096,2.661-2.552,2.661c-2.405,0-4.915,0-7.608,0
	c-0.307-2-0.598-4.102-0.913-6.306c3.608-1.126,6.028-3.59,8.514-6.036c2.569-2.529,4.055-5.571,4.849-9.008
	c-0.375-0.453-0.61-0.947-1.22-1.256c-0.508,0.187-1.091,0.366-1.552,0.842c-0.396,0.734-0.062,1.714-0.725,2.384
	c-0.342,0.304-0.984-0.025-1.19,0.575c-0.215,3.723-3.011,5.357-5.499,7.187c-0.691-0.419-0.037-1.112-0.864-1.368
	c-0.939,1.272-1.103,3.451-3.536,3.631c-1.549-3.359-3.373-6.573-5.701-9.464c0.154-0.366,0.236-0.671,0.398-0.926
	c2.217-3.481,5.004-6.475,8.031-9.254c0.389-0.356,0.892-0.616,1.381-0.835c2.064-0.922,3.89-2.22,5.73-3.511
	c2.408-1.689,4.719-3.499,7.051-5.288c1.363-1.047,2.599-2.149,3.725-3.445c0.979-1.126,2.004-2.211,3.094-3.227
	c1.27-1.182,2.629-2.269,4.088-3.207c0.367-0.236,0.74-0.463,1.119-0.68c0.333-0.19,0.652-0.387,1.031-0.468
	c0.266-0.058,0.473-0.114,0.553-0.405C104.613,0.396,104.598,0.299,104.551,0.221z"/>
</svg>
