<?xml version="1.0" encoding="utf-8"?>
<!-- Generator: Adobe Illustrator 16.0.0, SVG Export Plug-In . SVG Version: 6.00 Build 0)  -->
<!DOCTYPE svg PUBLIC "-//W3C//DTD SVG 1.1//EN" "http://www.w3.org/Graphics/SVG/1.1/DTD/svg11.dtd">
<svg version="1.1" id="Layer_1508" xmlns="http://www.w3.org/2000/svg" xmlns:xlink="http://www.w3.org/1999/xlink" x="0px" y="0px"
	 width="128px" height="128px" viewBox="0 0 128 128" enable-background="new 0 0 128 128" xml:space="preserve">
<g id="fHkx5x.tif">
	<g>
		<path fill-rule="evenodd" clip-rule="evenodd" d="M90.881,92.041c0,8.751-0.089,17.503,0.032,26.251
			c0.076,5.516-2.996,8.115-7.826,8.963c-2.233,0.393-4.479,0.568-6.744,0.564c-8.652-0.016-17.304-0.032-25.956-0.012
			c-2.08,0.006-4.141-0.229-6.142-0.669c-4.371-0.961-7.221-3.411-7.194-8.588c0.09-17.501,0.063-35.003,0.01-52.505
			c-0.009-3.242,1.13-5.96,3.168-8.333c1.47-1.711,3.005-3.404,4.713-4.868c5.333-4.574,8.194-10.378,9.181-17.262
			c0.851-5.93,1.718-11.851,1.923-17.85c0.067-1.96,0.35-3.917,0.377-5.876c0.017-1.199,0.534-2.567-0.775-3.532
			c-0.343-0.253-0.174-0.707-0.026-1.083c0.334-0.852,0.196-1.749,0.208-2.627c0.045-3.335,0.538-4.066,3.767-4.288
			c2.935-0.201,5.905-0.196,8.839,0.012c3.134,0.222,3.647,0.967,3.689,4.054c0.014,0.974-0.145,1.962,0.197,2.921
			c0.095,0.262,0.226,0.711,0.106,0.82c-1.67,1.532-0.955,3.523-0.864,5.26C72,21.82,72.649,30.224,74.391,38.517
			c1.069,5.092,3.452,9.326,7.204,12.871c1.715,1.62,3.357,3.317,4.994,5.016c2.914,3.025,4.459,6.498,4.355,10.861
			c-0.197,8.254-0.057,16.517-0.057,24.776C90.885,92.041,90.883,92.041,90.881,92.041z"/>
	</g>
</g>
</svg>
