<?xml version="1.0" encoding="utf-8"?>
<!-- Generator: Adobe Illustrator 16.0.0, SVG Export Plug-In . SVG Version: 6.00 Build 0)  -->
<!DOCTYPE svg PUBLIC "-//W3C//DTD SVG 1.1//EN" "http://www.w3.org/Graphics/SVG/1.1/DTD/svg11.dtd">
<svg version="1.1" id="Layer_1513" xmlns="http://www.w3.org/2000/svg" xmlns:xlink="http://www.w3.org/1999/xlink" x="0px" y="0px"
	 width="128px" height="128px" viewBox="0 0 128 128" enable-background="new 0 0 128 128" xml:space="preserve">
<g id="zrDiLh.tif">
	<g>
		<path fill-rule="evenodd" clip-rule="evenodd" d="M23.386,74.644c-0.358-11.371,0.124-22.741,0.011-34.112
			c-0.067-6.78,2.778-12.101,8.313-16.003c2.99-2.108,4.192-5.316,3.379-8.798c-0.175-0.75-0.685-0.754-1.245-0.814
			c-0.889-0.096-1.996,0.339-2.619-0.347c-0.729-0.805-0.272-2.001-0.31-3.024c-0.053-1.463-0.049-2.932,0.001-4.396
			c0.137-3.967,3.253-7.1,7.237-7.264c1.463-0.061,2.931-0.016,4.396-0.016c15.561,0,31.123-0.007,46.685,0.006
			c4.06,0.004,7.179,2.423,7.844,6.142c0.206,1.154,0.111,2.363,0.127,3.548c0.019,1.255,0.028,2.513-0.004,3.768
			c-0.04,1.452-0.074,1.464-1.574,1.56c-0.068,0.005-0.14,0.005-0.208,0.004c-2.864-0.043-2.28,0.298-2.429,2.408
			c-0.234,3.313,1.056,5.641,3.822,7.562c5.205,3.618,7.844,8.782,7.902,15.143c0.066,6.978,0.012,13.956,0.012,20.934
			c0.002,16.182,0.022,32.363-0.004,48.544c-0.014,8.466-5.527,15.662-13.674,17.961c-1.549,0.437-3.125,0.689-4.744,0.688
			c-14.793-0.007-29.587,0.033-44.38-0.018c-10.33-0.034-18.514-8.34-18.534-18.727C23.368,97.81,23.386,86.228,23.386,74.644z"/>
	</g>
</g>
</svg>
