<?xml version="1.0" encoding="utf-8"?>
<!-- Generator: Adobe Illustrator 16.0.0, SVG Export Plug-In . SVG Version: 6.00 Build 0)  -->
<!DOCTYPE svg PUBLIC "-//W3C//DTD SVG 1.1//EN" "http://www.w3.org/Graphics/SVG/1.1/DTD/svg11.dtd">
<svg version="1.1" id="Layer_1517" xmlns="http://www.w3.org/2000/svg" xmlns:xlink="http://www.w3.org/1999/xlink" x="0px" y="0px"
	 width="128px" height="128px" viewBox="0 0 128 128" enable-background="new 0 0 128 128" xml:space="preserve">
<path fill-rule="evenodd" clip-rule="evenodd" d="M91.209,112.191c-1.969-0.38-5.631-0.78-9.107-1.804
	c-20.963-6.181-41.929-12.36-62.804-18.828C4.471,86.968-3.862,71.315,1.117,56.411C7.466,37.406,19.5,23.455,39.042,16.646
	c6.417-2.235,12.122,0.579,17.792,1.755c15.815,3.281,31.637,6.733,47.042,11.831c19.586,6.484,27.228,21.958,23.563,42.556
	c-2.647,14.889-11.797,24.381-21.34,34.244C102.516,110.738,97.871,112.064,91.209,112.191z M96.044,78.906
	c0.116,1.992,0.2,3.208,0.255,4.423c0.075,1.629-0.025,4.05-1.347,4.209c-1.528,0.184-1.796-2.217-2.432-3.686
	c-1.91-4.422,0.071-10.696-7.18-12.552C62.239,65.389,39.513,58.116,16.31,52.47c-8.222-2-7.45,3.375-9.301,7.021
	c-2.674,5.266,0.9,7.374,5.163,8.645c24.83,7.402,49.664,14.792,74.53,22.074c6.44,1.885,11.937,0.334,16.197-5.208
	c4.45-5.788,9.271-11.295,13.682-17.11c9.083-11.975,6.997-22.412-6.789-28.091C92.197,32.553,73.92,27.027,55.176,23.5
	c-16.953-3.189-29.75,4.446-40.336,16.879c-2.781,3.266-4.204,5.263,2.083,6.937c22.656,6.028,45.191,12.561,67.554,19.594
	c6.876,2.161,10.983,0.195,14.233-5.194c2.97-4.919,6.662-9.198,10.594-13.292c1.457-1.519,3.058-4.949,5.562-2.31
	c2.026,2.133-0.599,4.423-2.084,6.154c-3.963,4.617-8.028,9.15-12.196,13.583C96.872,69.798,93.271,73.665,96.044,78.906z"/>
</svg>
