<?xml version="1.0" encoding="utf-8"?>
<!-- Generator: Adobe Illustrator 16.0.0, SVG Export Plug-In . SVG Version: 6.00 Build 0)  -->
<!DOCTYPE svg PUBLIC "-//W3C//DTD SVG 1.1//EN" "http://www.w3.org/Graphics/SVG/1.1/DTD/svg11.dtd">
<svg version="1.1" id="Layer_1521" xmlns="http://www.w3.org/2000/svg" xmlns:xlink="http://www.w3.org/1999/xlink" x="0px" y="0px"
	 width="128px" height="128px" viewBox="0 0 128 128" enable-background="new 0 0 128 128" xml:space="preserve">
<g id="F9Sp7i.tif">
	<g>
		<path d="M54.188,0.412c6.544,0,13.089,0,19.633,0c0.291,0.063,0.582,0.164,0.878,0.187c3.003,0.228,5.99,0.6,8.963,1.087
			c8.878,1.458,17.479,3.81,25.474,8.045c4.68,2.479,8.936,5.524,12.143,9.829c2.703,3.625,4.277,7.639,4.005,12.245
			c-0.118,2.019-0.251,4.035-0.216,6.061c0.036,2.151-0.063,4.308,0.024,6.457c0.199,4.889-1.709,8.958-4.74,12.615
			c-3.406,4.11-7.679,7.127-12.331,9.641c-7.574,4.094-15.726,6.515-24.161,7.94c-10.059,1.702-20.186,2.042-30.364,1.163
			c-8.487-0.733-16.782-2.303-24.793-5.225c-6.929-2.527-13.394-5.889-18.764-11.06c-3.013-2.902-5.417-6.21-6.541-10.34
			c-0.496-1.823-0.433-3.664-0.465-5.51c-0.063-3.7,0.139-7.401-0.178-11.098c-0.439-5.126,1.313-9.54,4.452-13.501
			c3.052-3.853,6.941-6.678,11.211-8.974c9.26-4.98,19.282-7.471,29.632-8.819C50.093,0.89,52.141,0.659,54.188,0.412z
			 M64.134,51.005c6.13-0.081,12.348-0.495,18.514-1.556c7.409-1.276,14.613-3.227,21.308-6.744
			c3.295-1.732,6.354-3.793,8.668-6.796c2.396-3.11,2.582-5.875,0.54-9.176c-0.591-0.954-1.321-1.803-2.13-2.583
			c-3.961-3.82-8.809-6.116-13.885-7.978c-8.721-3.198-17.794-4.643-27.025-5.112c-8.099-0.411-16.173-0.067-24.189,1.268
			c-7.633,1.271-15.046,3.248-21.939,6.867c-3.299,1.733-6.339,3.815-8.654,6.812c-2.457,3.181-2.526,6.394-0.177,9.614
			c1.047,1.435,2.297,2.673,3.701,3.759c4.883,3.774,10.496,6.025,16.342,7.749C44.605,49.901,54.252,50.903,64.134,51.005z"/>
		<path fill-rule="evenodd" clip-rule="evenodd" d="M64.631,127.587c-8.895,0.029-17.041-0.83-24.989-3.166
			c-6.248-1.836-12.093-4.494-17.15-8.677c-5.337-4.412-8.792-9.865-9.722-16.891c-1.197-9.037-2.652-18.039-3.967-27.06
			c-0.286-1.956-0.452-3.931-0.669-5.896c-0.022-0.203-0.125-0.47,0.099-0.584c0.24-0.123,0.365,0.154,0.513,0.287
			c9.821,8.771,21.557,13.499,34.254,16.145c8.336,1.735,16.776,2.275,25.285,1.954c6.814-0.257,13.546-1.084,20.168-2.71
			c9.916-2.435,19.183-6.315,27.382-12.516c1.13-0.855,2.175-1.824,3.272-2.725c0.214-0.173,0.36-0.604,0.702-0.412
			c0.229,0.128,0.075,0.481,0.049,0.729c-0.205,1.925-0.368,3.855-0.646,5.771c-1.338,9.191-2.708,18.378-4.062,27.566
			c-0.827,5.612-3.409,10.322-7.367,14.317c-4.229,4.268-9.329,7.155-14.9,9.258c-6.733,2.54-13.734,3.797-20.893,4.341
			C69.324,127.521,66.657,127.485,64.631,127.587z M63.952,117.39c2.152,0,4.306-0.019,6.458,0.013
			c0.653,0.008,1.107-0.15,1.517-0.716c2.696-3.733,5.418-7.449,8.167-11.146c0.466-0.628,0.462-1.064-0.004-1.693
			c-2.727-3.659-5.414-7.345-8.096-11.036c-0.392-0.542-0.835-0.78-1.509-0.775c-4.307,0.021-8.612,0.019-12.917,0.001
			c-0.657-0.004-1.131,0.184-1.534,0.731c-2.756,3.742-5.528,7.476-8.321,11.191c-0.399,0.531-0.43,0.899-0.015,1.451
			c2.822,3.747,5.617,7.518,8.396,11.297c0.373,0.507,0.779,0.702,1.399,0.694C59.646,117.371,61.798,117.39,63.952,117.39z"/>
		<path fill-rule="evenodd" clip-rule="evenodd" d="M64.072,20.742c3.184,0,6.367,0.012,9.551-0.009
			c0.713-0.005,1.329,0.16,1.948,0.525c5.074,2.994,10.162,5.964,15.245,8.942c0.185,0.108,0.364,0.229,0.552,0.333
			c0.505,0.276,0.479,0.544-0.002,0.814c-0.188,0.106-0.371,0.217-0.557,0.325c-5.082,2.979-10.17,5.95-15.244,8.944
			c-0.653,0.387-1.312,0.57-2.071,0.568c-6.324-0.016-12.648-0.015-18.973,0c-0.714,0.001-1.338-0.162-1.955-0.524
			c-5.154-3.027-10.319-6.036-15.479-9.051c-0.186-0.108-0.364-0.229-0.549-0.338c-0.377-0.22-0.355-0.443-0.008-0.667
			c0.253-0.162,0.511-0.318,0.77-0.47c5.012-2.929,10.031-5.848,15.032-8.795c0.733-0.433,1.469-0.618,2.316-0.61
			C57.79,20.76,60.931,20.742,64.072,20.742z"/>
	</g>
</g>
</svg>
