<?xml version="1.0" encoding="utf-8"?>
<!-- Generator: Adobe Illustrator 16.0.0, SVG Export Plug-In . SVG Version: 6.00 Build 0)  -->
<!DOCTYPE svg PUBLIC "-//W3C//DTD SVG 1.1//EN" "http://www.w3.org/Graphics/SVG/1.1/DTD/svg11.dtd">
<svg version="1.1" id="Layer_1704" xmlns="http://www.w3.org/2000/svg" xmlns:xlink="http://www.w3.org/1999/xlink" x="0px" y="0px"
	 width="128px" height="128px" viewBox="0 0 128 128" enable-background="new 0 0 128 128" xml:space="preserve">
<g>
	<g id="I8sgz2.tif">
		<g>
			<path fill-rule="evenodd" clip-rule="evenodd" d="M10.571,63.653c0.952,0.494,1.378,1.351,1.722,2.321
				c1.239,3.495,3.086,6.641,5.545,9.426c1.105,1.252,1.247,1.26,1.841-0.362c0.76-2.08,1.246-4.262,2.229-6.259
				c2.195-4.459,4.209-4.858,7.517-4.536c7.479,0.729,14.817,2.238,22.138,3.807c17.269,3.697,34.455,7.743,51.438,12.613
				c1.457,0.417,2.937,0.777,4.147,1.84c1.93,1.694,2.825,3.744,2.544,6.31c-0.175,1.595-0.276,3.199-0.482,4.789
				c-0.312,2.42,1.794,3.049,3.16,4.039c1.335,0.968,2.419-0.28,3.315-1.215c2.125-2.215,3.635-4.912,5.61-7.246
				c0.877-1.035,1.602-2.277,3.096-2.582c0.321,0.329,0.644,0.657,0.965,0.985c0.759,2.952,2.047,5.754,2.501,8.791
				c0.384,2.565,0.1,3.282-2.218,4.332c-1.206,0.547-1.566,1.289-1.427,2.507c0.104,0.883,0.554,1.926-0.28,2.604
				c-1.022,0.832-0.874,1.852-0.822,2.913c0.102,2.013,0.757,3.888,1.408,5.768c0.374,1.077,0.873,2.126,0.851,3.306
				c-0.328,0.321-0.656,0.643-0.985,0.964c-1.277-0.409-2.308-1.222-3.197-2.162c-2.946-3.111-5.855-6.262-8.134-9.92
				c-0.48-0.773-0.88-1.607-1.245-2.443c-0.733-1.677-1.137-1.816-2.592-0.714c-1.25,0.946-2.016,2.29-2.79,3.61
				c-0.851,1.451-1.673,2.919-2.687,4.271c-1.522,2.028-3.442,2.744-6.011,2.412c-5.697-0.736-11.349-1.733-16.989-2.789
				c-18.733-3.503-37.396-7.342-55.932-11.786c-5.708-1.368-6.166-1.878-6.828-7.74c-0.121-1.065-0.194-2.138-0.377-3.191
				c-0.455-2.611-1.346-3.306-3.924-2.94c-1.511,0.213-2.994,0.615-4.491,0.928c-2.846,0.595-5.692,1.191-8.612,1.294
				c-0.214-0.219-0.428-0.438-0.643-0.656c0.721-2.308,2.393-3.787,4.333-5.065c2.07-1.363,2.236-1.821,1.643-4.121
				C5.5,76.163,5.667,74.585,5.886,73c0.349-2.516,1.438-4.782,2.388-7.097C9.04,65.153,9.806,64.403,10.571,63.653z M8.429,84.418
				c0.328-0.127,0.655-0.253,0.982-0.378c0.836,0.078,1.655,0.079,2.262-0.632c0.053-0.062-0.068-0.384-0.084-0.383
				c-0.766,0.088-1.368,0.53-1.983,0.944c-0.063,0.042-0.134,0.075-0.2,0.111c-0.327,0.13-0.652,0.261-0.979,0.391
				c-0.211-0.134-0.428-0.217-0.667-0.066c-1.172-1.084-2.375-1.296-3.605-0.104c-0.208,0.201-0.513,0.508-0.475,0.713
				c0.066,0.36,0.495,0.29,0.774,0.223c1.102-0.262,2.298-0.15,3.307-0.802C7.982,84.43,8.206,84.423,8.429,84.418z
				 M104.061,107.336c0.342-0.598,0.686-1.195,1.038-1.788c0.783-1.323,1.71-2.521,2.854-3.569c1.507-1.381,1.6-3.358,0.258-4.984
				c-0.791-0.96-1.01-2.049-0.925-3.219c0.128-1.756,0.331-3.505,0.476-5.259c0.101-1.247-0.022-2.454-0.877-3.465
				c-0.178-0.212-0.351-0.554-0.685-0.348c-0.102,0.06-0.062,0.422-0.019,0.632c0.266,1.272,0.573,2.536,0.817,3.812
				c0.115,0.599,0.218,1.255-0.688,1.403c-0.818,0.134-1.087-0.317-1.197-1.014c-0.119-0.754-0.317-1.498-0.404-2.255
				c-0.213-1.866-1.294-2.8-3.091-3.095c-1.66-0.274-3.296-0.716-4.961-0.933c-4.173-0.542-8.356-1.012-12.539-1.476
				c-0.743-0.081-1.132-0.296-1.027-1.12c0.09-0.709,0.489-0.865,1.11-0.8c1.066,0.109,2.132,0.233,3.201,0.295
				c3.255,0.183,6.449,1.073,9.739,0.864c0.266,0.265,0.557,0.475,0.96,0.441l0.091,0.003l-0.094,0.043
				c-0.319-0.148-0.639-0.295-0.959-0.441c-0.581-0.184-1.158-0.391-1.745-0.548C79.2,76.196,62.898,72.325,46.477,68.971
				c-5.844-1.194-11.701-2.331-17.671-2.829c-2.519-0.212-3.86,0.92-4.883,2.918c-0.948,1.852-1.478,3.851-2.141,5.805
				c-0.414,1.22-0.667,2.661-1.873,3.321c-1.395,0.762-1.959,2.107-2.784,3.268c-0.717,1.009-1.016,1.961,0.474,2.813
				c1.156,0.661,1.624,1.997,1.837,3.317c0.171,1.056,0.272,2.124,0.395,3.188c0.635,5.518,0.645,5.472,5.916,6.738
				c11.311,2.719,22.684,5.157,34.082,7.473c11.849,2.407,23.694,4.84,35.666,6.591 M16.904,78.035l0.01-0.095l0.002,0.088
				c-0.109,0.209-0.22,0.42-0.33,0.63c0.053-0.02,0.144-0.028,0.155-0.062C16.807,78.413,16.852,78.224,16.904,78.035z
				 M119.396,112.117c0.748,0.765,1.488,1.536,2.249,2.285c0.188,0.185,0.351,0.614,0.691,0.37c0.298-0.213,0.035-0.543-0.056-0.814
				c-0.674-2.042-1.312-4.121-1.103-6.28c0.139-1.427-0.448-1.911-1.689-2.135c-1.368-0.245-2.657-0.739-3.678-1.734
				c-0.415-0.403-1.108-0.904-0.657-1.498c0.426-0.562,1.14-0.601,1.804-0.009c1.182,1.057,2.694,1.385,4.2,1.673
				c0.353,0.069,0.928,0.271,1.011-0.144c0.162-0.812,0.267-1.71,0.077-2.495c-0.183-0.754-1.018-0.262-1.558-0.354
				c-0.826-0.139-1.668-0.198-2.484-0.371c-0.635-0.134-1.158-0.428-0.88-1.266c0.255-0.768,0.711-0.809,1.422-0.602
				c2.076,0.607,4.07,0.175,6.046-0.564c0.928-0.348,1.342-0.793,1.124-1.859c-0.418-2.029-1.09-3.974-1.737-5.931
				c-0.299-0.905-0.665-0.878-1.194-0.18c-1.804,2.37-3.472,4.864-5.473,7.055c-1.498,1.64-2.946,3.055-3.301,5.466
				c-0.159,1.071-0.206,1.836,0.321,2.712C115.957,107.809,117.743,109.9,119.396,112.117z M12.973,77.942
				c0.504,0.436,0.302,0.895,0.217,1.326c-0.098,0.506-0.504,0.525-0.882,0.444c-0.966-0.213-1.943-0.409-2.878-0.721
				c-0.719-0.24-1.148-0.254-1.23,0.65c-0.041,0.448-0.21,0.888-0.333,1.325c-0.098,0.344-0.499,0.681-0.16,1.036
				c0.368,0.387,0.833,0.198,1.274,0.058c0.876-0.279,1.758-1.518,2.388-1.124c1.595,1.001,1.671-0.356,2.136-1.071
				c0.623-0.956,1.15-1.977,1.698-2.98c0.297-0.543,0.573-1.119,0.046-1.685c-2.068-2.225-3.279-4.931-4.395-7.701
				c-0.408-1.012-0.758-0.624-1.141,0.093c-0.765,1.426-1.277,2.935-1.64,4.498c-0.842,3.609-0.242,4.57,3.419,5.525
				C12.004,77.749,12.528,77.846,12.973,77.942z M112.526,100.891c0.252-0.301,0.215-0.614-0.021-0.826
				c-0.332-0.296-0.729-0.62-1.203-0.398c-0.293,0.137-0.362,0.528-0.161,0.775C111.492,100.871,112.014,100.94,112.526,100.891z
				 M14.154,83.062c0.052-0.027,0.112-0.047,0.151-0.087c0.012-0.013-0.036-0.081-0.056-0.125c-0.048,0.029-0.108,0.048-0.141,0.09
				C14.096,82.957,14.138,83.019,14.154,83.062z"/>
			<path fill-rule="evenodd" clip-rule="evenodd" d="M87.069,107.03c-0.359,0.392-0.808,0.114-1.192-0.067
				c-9.391-4.447-19.706-5.328-29.644-7.649c-5.28-1.233-10.637-2.14-15.959-3.193c-0.225-0.045-0.457-0.067-0.672-0.143
				c-0.649-0.223-1.701,0.017-1.517-1.216c0.188-1.262,1.103-0.779,1.784-0.656c2.331,0.42,4.655,0.881,6.979,1.346
				c10.939,2.184,21.896,4.294,32.728,6.988c2.463,0.612,4.775,1.575,7.038,2.697C87.526,105.59,87.639,106.162,87.069,107.03z"/>
			<path fill-rule="evenodd" clip-rule="evenodd" d="M25.934,69.635c1.392-1.599,3.19-1.749,5.08-1.576
				c4.655,0.426,9.242,1.316,13.834,2.15C52,71.512,59.138,72.9,66.282,74.253c0.3,0.058,0.597,0.145,0.899,0.177
				c0.861,0.093,0.905,0.639,0.789,1.321c-0.139,0.811-0.703,0.657-1.226,0.558c-2.557-0.486-5.108-0.999-7.665-1.478
				c-9.175-1.725-18.319-3.643-27.595-4.772c-3.395-0.413-4.106,0.068-5.23,3.26c-0.217,0.62-0.48,0.889-1.127,0.826
				c-0.906-0.088-0.875-0.704-0.771-1.339C24.557,71.573,24.937,70.42,25.934,69.635z"/>
		</g>
	</g>
	<g>
		<path fill-rule="evenodd" clip-rule="evenodd" d="M63.619,33.294c-10.104,1.757-20.208,3.515-30.312,5.271
			c-0.543,0.095-1.088,0.175-1.626,0.289c-0.25,0.053-0.68,0.142-0.695,0.259c-0.044,0.336,0.318,0.359,0.575,0.428
			c1.46,0.397,2.921,0.767,4.424,0.994c7.794,1.184,15.593,1.491,23.422,0.324c8.786-1.31,17.532-2.779,25.859-6.033
			c2.238-0.875,4.426-1.885,6.643-2.818c0.301-0.127,0.732-0.384,0.942-0.066c0.244,0.368-0.259,0.567-0.474,0.792
			c-2.024,2.123-4.639,3.421-7.09,4.914c-11.357,6.917-23.69,9.292-36.838,7.639c-3.819-0.48-7.642-0.944-11.396-1.837
			c-1.813-0.432-3.583-0.978-5.286-1.733c-0.972-0.431-1.764-0.41-2.571,0.456c-3.771,4.042-7.175,8.321-9.168,13.561
			c-0.098,0.256-0.216,0.507-0.303,0.767c-0.286,0.86-0.627,1.036-1.458,0.414c-1.222-0.915-2.344-1.908-3.323-3.067
			c-0.577-0.682-1.108-1.402-1.662-2.105c-1.047-1.329-1.015-1.305-1.945,0.003c-0.876,1.23-1.834,2.403-2.75,3.605
			c-0.167,0.221-0.329,0.486-0.623,0.476c-0.474-0.018-0.45-0.455-0.505-0.765c-0.833-4.746-1.64-9.496-2.493-14.238
			c-0.169-0.939,0.188-1.464,1.027-1.704c0.952-0.272,1.057-0.877,0.888-1.739c-0.358-1.823-0.66-3.658-0.962-5.491
			c-0.338-2.045-0.249-2.203,1.873-2.441c2.628-0.294,5.221-0.024,7.746,0.768c1.965,0.615,3.877,1.375,5.889,1.878
			c2.092,0.524,3.705,2.071,5.605,3.032c1.633,0.826,1.611,0.877,2.107-0.854c0.612-2.143,1.555-4.126,2.985-5.84
			c3.071-3.678,6.679-6.542,11.057-8.712c5.861-2.906,11.896-5.042,18.3-6.156c6.206-1.079,12.442-1.149,18.691-0.224
			c2.314,0.342,4.602,0.695,6.864,1.34c3.328,0.949,5.974,3.077,8.834,4.817c1.14,0.693,1.909,1.958,2.66,3.122
			c1.001,1.551,1.006,1.538,2.281,0.088c3.192-3.629,5.882-7.571,7.676-12.093c0.675-1.7,0.944-1.763,2.232-0.549
			c1.349,1.271,2.574,2.626,3.528,4.271c1.229,2.119,1.406,1.832,3.02,0.39c0.709-0.633,1.201-1.504,1.861-2.2
			c0.487-0.514,0.686-1.667,1.52-1.401c0.727,0.232,0.532,1.318,0.664,2.036c0.585,3.182,1.125,6.372,1.681,9.559
			c0.143,0.813,0.279,1.628,0.424,2.442c0.209,1.175,0.53,2.333-1.221,2.704c-0.771,0.163-0.607,0.966-0.503,1.582
			c0.309,1.832,0.646,3.66,0.94,5.495c0.331,2.066,0.097,2.388-2.046,2.549c-3.413,0.258-6.745-0.249-9.924-1.47
			c-2.562-0.985-5.012-2.254-7.63-3.116c-0.513-0.168-0.984-0.491-1.441-0.796c-1.394-0.93-1.232-0.857-2.073,0.7
			c-2.436,4.512-5.296,8.612-10.061,11.125c-2.727,1.438-5.326,3.123-8.183,4.321c-11.271,4.731-22.882,6.087-34.95,3.82
			c-3.709-0.698-7.155-1.864-10.396-3.732c-0.475-0.274-0.952-0.563-1.373-0.912c-0.625-0.516-1.166-1.12-1.523-1.865
			c0.884-0.247,1.245,0.618,1.879,0.906c4.717,2.142,9.478,3.893,14.8,4.005c7.271,0.154,14.446-0.275,21.452-2.299
			c4.553-1.315,9.141-2.631,13.301-4.951c4.172-2.326,7.871-5.298,10.698-9.217c1.014-1.407,1.716-2.986,1.955-4.725
			c0.193-1.402-0.162-1.75-1.563-1.546c-1.157,0.169-2.304,0.408-3.457,0.608c-9.493,1.652-18.987,3.302-28.481,4.954
			C63.619,33.296,63.619,33.295,63.619,33.294z M62.688,26.097c3.534-0.697,7.49-1.156,11.48-1.286
			c7.021-0.229,13.991,0.169,20.894,1.552c0.481,0.097,1.161,0.566,1.503-0.067c0.349-0.644-0.251-1.198-0.663-1.593
			c-2.34-2.253-5.083-3.706-8.375-3.968c-0.957-0.076-1.924-0.069-2.875-0.191c-7.003-0.897-13.989-0.793-20.923,0.523
			C56.68,22.404,49.965,24.767,43.41,27.7c-3.172,1.419-6.119,3.062-8.73,5.322c-1.195,1.035-2.342,2.133-2.903,3.678
			c-0.125,0.343-0.689,0.666-0.252,1.032c0.276,0.232,0.584-0.201,0.865-0.372C41.653,31.739,51.574,27.869,62.688,26.097z
			 M16.736,39.267c0.006,0.037,0.014,0.075,0.02,0.112c-1.015,0.176-2.076,0.22-3.037,0.551c-4.887,1.686-4.237,1.037-3.511,5.625
			c0.012,0.068,0.025,0.136,0.04,0.203c0.331,1.603,0.326,1.596,1.695,0.693c3.103-2.045,6.334-3.854,9.803-5.208
			c0.295-0.116,0.739-0.424,0.939-0.099c0.244,0.395-0.281,0.535-0.54,0.695c-2.3,1.424-4.161,3.354-6.077,5.224
			c-1.554,1.515-1.559,1.509,0.056,2.967c0.255,0.229,0.511,0.458,0.766,0.689c0.703,0.637,1.222,0.438,1.603-0.356
			c0.415-0.868,0.76-1.797,1.487-2.451c2.858-2.572,5.103-5.765,8.208-8.083c0.547-0.408,0.754-0.67-0.031-1.147
			c-5.069-3.079-10.466-4.78-16.465-4.167c-1.978,0.202-2.103,0.396-1.805,2.266c0.185,1.163,0.735,1.43,1.819,1.321
			c2.6-0.263,5.212-0.154,7.819-0.092c0.313,0.008,0.744,0.024,0.768,0.465c0.005,0.086-0.455,0.24-0.715,0.291
			C18.634,38.949,17.684,39.102,16.736,39.267z M111.248,27.76c1.701-0.282,3.351-0.77,4.973-1.329
			c2.538-0.874,2.608-1.052,2.147-3.72c-0.603-3.479-0.573-3.44-3.361-1.405c-2.456,1.793-5.206,3.035-8.101,3.951
			c-0.241,0.077-0.532-0.004-0.799-0.012c0.041-0.357,0.405-0.316,0.598-0.485c2.019-1.754,4.064-3.48,6.039-5.284
			c1.36-1.245,1.312-1.593-0.092-2.695c-0.321-0.254-0.717-0.414-1.033-0.672c-0.654-0.534-1.173-0.566-1.652,0.235
			c-0.205,0.342-0.633,0.548-0.85,0.886c-2.204,3.448-4.926,6.405-8.188,8.883c-0.907,0.689-0.655,1.611-0.041,2.346
			c0.382,0.457,0.952,0.788,1.491,1.075c4.461,2.375,9.244,2.914,14.188,2.378c1.583-0.171,1.793-0.676,1.387-2.207
			c-0.272-1.03-0.961-1.023-1.747-0.926c-2.052,0.253-4.114,0.112-6.171,0.164c-0.589,0.015-1.469,0.186-1.613-0.433
			c-0.087-0.376,0.894-0.377,1.405-0.5C110.295,27.899,110.773,27.839,111.248,27.76z"/>
	</g>
</g>
</svg>
