<?xml version="1.0" encoding="utf-8"?>
<!-- Generator: Adobe Illustrator 16.0.0, SVG Export Plug-In . SVG Version: 6.00 Build 0)  -->
<!DOCTYPE svg PUBLIC "-//W3C//DTD SVG 1.1//EN" "http://www.w3.org/Graphics/SVG/1.1/DTD/svg11.dtd">
<svg version="1.1" id="Layer_1801" xmlns="http://www.w3.org/2000/svg" xmlns:xlink="http://www.w3.org/1999/xlink" x="0px" y="0px"
	 width="128px" height="128px" viewBox="0 0 128 128" enable-background="new 0 0 128 128" xml:space="preserve">
<g>
	<path fill-rule="evenodd" clip-rule="evenodd" d="M114.621,86.752c0.229-0.188,0.461-0.377,0.84-0.687
		c1.439,3.009,2.168,6.118,3.212,9.116c-0.134-3.244-1.334-6.256-2.091-9.349c0.856-0.605,1.781-0.347,2.598-0.591
		c0.203,0.191,0.412,0.355,0.716-0.024c-0.307,0.029-0.532,0.051-0.759,0.073c-0.824-0.609-1.82-0.084-2.939-0.559
		c-0.843-2.158-1.775-4.53-2.791-7.111c3.043-0.353,5.859-0.109,8.669,0.165c0.079-0.039,0.149-0.069,0.149-0.069
		s-0.09,0.019-0.168,0.035c-2.186-1.342-4.609-0.78-6.949-0.877c-0.613-0.028-1.23,0.08-2,0.14c-1.225-2.57-2.459-5.155-3.771-7.892
		c3.441-0.767,6.738-0.52,9.977-0.902c0.226,0.249,0.469,0.31,0.979-0.1c-0.506,0.076-0.765,0.115-1.014,0.15
		c-2.258-0.615-4.544-0.289-6.822-0.187c-1.168,0.053-2.326,0.385-3.584,0.136c-1.485-2.747-2.975-5.507-4.607-8.517
		c4.634-1.298,9.115-1.542,13.643-1.651c-1.447-0.528-2.979-0.556-4.486-0.554c-1.613,0.004-3.221,0.139-4.828,0.309
		c-1.601,0.17-3.183,0.456-5.041,0.731c-1.362-2.75-4.069-5.193-3.414-9.224c3.572-1.128,7.291-1.761,11.15-0.863
		c0.463,0.019,0.928,0.035,1.385,0.051c0.015,0,0.031,0.003,0.048,0.009c-0.024-0.016-0.051-0.031-0.075-0.048
		c-0.449-0.51-0.906-0.24-1.363-0.009c-0.362-0.911-1.217-0.723-1.911-0.821c-3.169-0.453-6.294-0.116-9.554,0.814
		c-0.388-2.749-0.994-5.27-1.705-7.982c2.756-0.756,5.486-0.425,8.5-0.657c-3.098-0.841-5.887-0.177-8.792-0.273
		c-0.493-2.371-1.812-4.444-2.659-7.16c-1.863-1.812-3.072-4.854-4.909-7.44l-0.054,0.025c2.043-0.005,3.548,1.324,5.195,2.206
		c6.434,3.435,12.752,7.048,17.967,12.273c1.245,1.243,2.502,2.517,3.309,4.03c2.891,5.43,6.244,10.596,9.021,16.091
		c1.889,3.729,2.594,7.686,2.551,11.745c-0.057,5.456,0.18,10.962-1.455,16.295c-1.012,3.284-2.399,6.402-3.88,9.487
		c-1.104,2.3-2.197,4.604-3.189,6.685c-8.089-6.829-16.478-13.518-22.839-22.751c1.262-4.461,2.376-9.414,2.949-14.486
		c0.366-3.224,0.723-3.773,3.085-6.062c1.85,2.654,3.185,5.564,4.712,8.417c-1.008,2.231-2.938,3.987-3.442,6.491
		c-0.286,0.005-0.349,0.181-0.322,0.423c-0.152,0.104-0.308,0.207-0.46,0.31c-0.098,0.276-0.191,0.548-0.355,1.002
		c0.6-0.4,0.562-0.707,0.319-1.032c0.312,0.134,0.479,0.048,0.456-0.31c0.293,0.003,0.362-0.169,0.322-0.42
		c1.602-1.5,2.234-3.762,4.094-5.348c1.168,2.373,2.295,4.558,3.321,6.785c0.584,1.261-1.172,1.791-1.063,2.944
		c-0.301-0.001-0.391,0.155-0.318,0.429c-0.277,0.015-0.357,0.167-0.312,0.426c-0.271,0.007-0.359,0.166-0.32,0.42
		c-0.125,0.129-0.249,0.261-0.373,0.39c-0.121,0.138-0.246,0.277-0.365,0.416c0.005,0.284,0.005,0.567,0.005,0.852
		c-0.153,0.171-0.309,0.339-0.452,0.513l-0.109,0.048l0.072-0.091c0.15-0.154,0.3-0.311,0.454-0.462
		c-0.009-0.297-0.017-0.592-0.022-0.888c0.251-0.036,0.432-0.124,0.376-0.42c0.282,0.025,0.425-0.084,0.376-0.386
		c0.309,0.01,0.354-0.179,0.328-0.423c0.236-0.04,0.338-0.184,0.311-0.42c0.246-0.033,0.355-0.178,0.314-0.426
		c0.496-0.44,0.99-0.879,1.82-1.62c0.697,3.095,3.411,5.289,2.381,8.688c-0.656-0.099-0.783,0.248-0.676,0.795
		c-0.163,0.118-0.318,0.235-0.479,0.356c-0.107,0.143-0.219,0.289-0.333,0.437c-0.04,0.03-0.079,0.057-0.122,0.085
		c0.025-0.037,0.051-0.071,0.078-0.105c0.105-0.15,0.217-0.302,0.33-0.448c0.164-0.117,0.326-0.235,0.486-0.354
		C114.166,87.281,114.395,87.019,114.621,86.752z"/>
	<path fill-rule="evenodd" clip-rule="evenodd" d="M45.462,27.651c-1.25,2.349-3.131,4.3-4.197,6.852
		c-2.594-1.058-4.962-2.454-7.708-2.756c-0.053-0.017-0.094-0.044-0.141-0.056c-0.04-0.009-0.084,0.002-0.131,0.005
		c0.105,0.003,0.21,0.009,0.313,0.01c2.185,1.414,4.821,1.984,7.011,3.823c-1.322,3.11-2.64,6.305-3.727,9.765
		c-3.152-2.57-6.261-4.921-9.809-6.594c-0.694-0.325-1.339-0.999-2.233-0.557c-0.095-0.198-0.19-0.397-0.291-0.593
		c-0.286-0.102-0.579-0.203-0.865-0.302c-0.021,0.004-0.048,0.004-0.076,0.004c0.034,0.013,0.073,0.028,0.102,0.038
		c0.29,0.073,0.581,0.14,0.87,0.214c0.09,0.203,0.185,0.406,0.279,0.606c3.86,2.02,7.375,4.545,10.705,7.346
		c1.187,1,1.195,1.678-0.247,2.462c-2.446,1.33-4.814,2.797-7.234,4.219c-2.987-1.874-5.565-4.373-9.032-5.354
		c0.071-0.283-0.159-0.344-0.331-0.445c-0.311-0.188-0.627-0.26-0.947-0.018c-0.076-0.217-0.157-0.428-0.238-0.637
		c-0.315-0.065-0.63-0.131-0.943-0.194c0,0-0.032,0.012-0.054,0.012c0.027,0.01,0.061,0.02,0.088,0.029
		c0.308,0.042,0.61,0.088,0.915,0.135c0.087,0.205,0.17,0.406,0.265,0.605c0.312,0.211,0.629,0.262,0.946,0.026
		c-0.099,0.311,0.026,0.45,0.334,0.448c2.239,1.528,4.495,3.048,6.734,4.595c0.491,0.339,1.107,0.586,1.339,1.364
		c-2.424,1.646-4.879,3.313-7.386,5.021c-2.286-1.54-4.566-3.031-7.127-4.008c-0.558-0.21-1.06-0.729-1.742-0.402
		c0.033-0.178,0.068-0.354-0.21-0.208c0.082,0.054,0.17,0.111,0.253,0.167c2.591,1.659,5.568,2.683,8.162,4.853
		c-2.181,1.725-4.238,3.358-6.282,4.978c-1.165-0.38-1.963-1.497-3.281-1.261c-0.217-0.562-0.821-0.488-1.221-0.757
		c-0.019,0.004-0.033,0.004-0.053,0.001c0.03,0.015,0.06,0.024,0.089,0.04c0.329,0.366,0.749,0.56,1.224,0.664
		c0.769,0.681,1.917,0.844,2.527,1.88c-2.194,2.33-4.867,4.183-6.491,6.992c-0.314,0.108-0.314,0.312-0.169,0.56
		c-0.138,0.139-0.272,0.273-0.402,0.41c-0.099,0.152-0.2,0.308-0.292,0.46c-0.027,0.034-0.051,0.064-0.078,0.097
		c-0.01-0.062-0.024-0.122-0.04-0.188c0.037,0.019,0.073,0.036,0.106,0.052c0.083-0.159,0.161-0.313,0.253-0.47
		c0.135-0.138,0.269-0.271,0.396-0.405c0.062-0.181,0.128-0.361,0.191-0.539c2.38-1.988,4.768-3.98,7.307-6.104
		c0.515,1.149,0.783,2.177,0.876,3.268c0.117,0.197-0.255,0.46,0.121,0.65c-0.054-0.256-0.097-0.473-0.146-0.69
		c0.688-1.219-0.17-2.431,0.004-3.761c1.819-1.752,4.078-3.058,6.233-4.733c0.951,1.43,0.734,3.071,1.484,4.452
		c-0.244-1.639-0.488-3.276-0.734-4.952c2.524-1.581,4.729-3.367,7.488-4.748c0.621,3.156,0.719,6.181,0.979,9.181
		c0.462-3.23,0.01-6.45-0.12-9.898c2.082-1.229,4.235-2.498,6.744-3.978c-1.542,7.08-2.185,13.843-1.899,20.771
		c-11.057,3.98-22.642,5.661-34.147,8.399c-0.102-4.304,0.256-8.659,0.974-13.005c0.949-5.738,3.902-10.715,5.944-16.042
		c3.218-8.392,8.537-14.763,16.54-18.919c1.863-0.969,3.628-2.171,5.354-3.385c4.454-3.134,9.508-4.518,14.796-5.273
		c2.738-0.392,5.478-0.806,8.323-0.88c-2.16,2.332-3.872,4.845-6.279,6.707c-0.041,0.006-0.083,0.008-0.12,0.009
		C45.363,27.688,45.409,27.671,45.462,27.651z M21.349,65.647c-0.024,0.003-0.036,0.005-0.06,0.007
		c0.015,0.163,0.025,0.327,0.035,0.491c0.027-0.006,0.062-0.007,0.09-0.01C21.396,65.973,21.37,65.81,21.349,65.647z"/>
	<path fill-rule="evenodd" clip-rule="evenodd" d="M91.3,89.105c-2.632,6.595-6.212,12.569-11.287,17.607
		c-2.865,2.851-5.483,5.949-8.582,8.571c-7.354,6.227-13.213,5.829-19.146-1.671C41.659,100.186,35.966,85.027,36.29,67.701
		c0.205-10.851,2.021-21.256,6.729-31.099c2.274-4.747,5.72-8.564,9.365-12.241c1.528-1.548,3.181-2.982,4.726-4.511
		c3.044-3.011,6.593-4.368,10.874-3.413c0.237,0.051,0.496,0.012,0.812,0.016c0.333-1.843,0.381-3.708,0.889-5.508
		c0.733-2.604,1.503-2.986,4.836-2.22c1.743,0.403,1.987,1.035,1.427,3.676c-0.285,1.396-0.572,2.797-0.852,4.197
		c-0.022,0.114,0.031,0.241,0.048,0.363c0.091,0.078,0.186,0.224,0.275,0.219c4.653-0.146,7.84,2.186,10.362,5.875
		c2.879,4.213,5.9,8.348,8.003,13.007c3.183,7.062,4.038,14.615,4.026,22.26c-0.009,10.706-2.267,20.974-6.463,30.817l0.012-0.117
		L91.3,89.105z M40.739,77.429c0.266,1.812,0.4,3.181,0.683,4.521c1.754,8.472,5.663,16.018,10.13,23.313
		c1.27,2.071,2.611,4.079,4.318,5.84c3.376,3.485,7.058,4.126,11.311,1.793c1.024-0.564,1.969-1.302,2.88-2.052
		c3.188-2.624,5.79-5.82,8.445-8.947c4.793-5.636,8.795-11.748,11.069-18.867c2.036-6.364,3.14-12.913,3.958-19.526
		c1.753-14.157-1.787-26.765-10.917-37.752c-2.745-3.301-6.147-5.003-10.543-3.917c-0.509,0.126-0.987,0.121-1.447-0.112
		c-4.151-2.084-7.873-1.047-11.284,1.656c-8.525,6.749-14.359,15.328-16.905,25.936C40.188,58.715,40.1,68.292,40.739,77.429z"/>
	<path fill-rule="evenodd" clip-rule="evenodd" d="M100.275,62.075c0.039-2.112,0.061-3.802,0.093-5.809
		c1.181,1.009,1.46,2.217,2.188,3.236C101.844,60.308,101.203,61.027,100.275,62.075z"/>
	<polygon fill-rule="evenodd" clip-rule="evenodd" points="90.251,24.935 90.273,24.836 90.2,24.96 	"/>
	<path fill-rule="evenodd" clip-rule="evenodd" d="M88.124,53.795c1.728,2.523,2.002,5.028,0.446,7.617
		c-0.309,0.508-0.408,1-0.135,1.579c1.363,2.926,0.775,5.558-1.337,7.99c0.899,2.606,0.9,5.127-1.083,7.313
		c-0.461,0.514-0.268,1.014-0.154,1.564c0.289,1.441,0.338,2.992-0.57,4.137c-1.286,1.622-1.426,3.54-2.064,5.338
		c-0.922,2.582-2.225,5.067-3.377,7.571c-0.883,1.925-3.226,2.988-4.492,4.941c-0.917,1.412-2.846,1.34-4.51,1.471
		c-1.75,3.442-4.717,4.288-8.285,3.943c-3.624-0.347-6.479-1.694-7.586-5.584c-2.769-0.572-4.754-1.997-5.196-5.037
		c-0.046-0.295-0.476-0.547-0.756-0.783c-0.827-0.71-1.677-1.645-1.67-2.616c0.026-2.749-1.091-5.169-1.758-7.721
		c-0.263-0.997,0.22-1.954,0.561-3.007c-1.774-2.186-2.13-4.622-0.82-7.23c0.26-0.515,0.072-0.944-0.143-1.413
		c-1.122-2.45-0.976-4.824,0.568-7.16c-1.696-2.759-1.62-5.505,0.312-8.145c0.337-0.461,0.367-0.877,0.196-1.388
		c-0.169-0.53-0.293-1.079-0.403-1.628c-0.498-2.591,1.898-4.294,2.134-6.439c0.272-2.346,0.203-4.557,2.162-6.311
		c-0.514-2.593-0.087-4.922,2.169-6.646c0.525-0.395,0.341-1.021,0.397-1.563c0.198-1.834,0.952-3.318,2.604-4.278
		c0.464-0.263,0.917-0.479,1.18-1.092c1.245-2.888,2.947-3.871,6.198-3.559c0.973,0.093,1.776-0.112,2.687-0.408
		c3.793-1.251,7.482-0.921,10.918,1.206c0.756,0.467,1.459,0.826,2.383,0.905c3.338,0.29,4.641,1.436,5.5,4.743
		c0.143,0.535,0.433,0.867,0.832,1.176c1.531,1.193,1.98,2.866,1.795,4.664c-0.097,0.994-0.097,1.826,0.615,2.573
		c0.162,0.174,0.234,0.437,0.375,0.636c1.431,2.023-0.466,4.298,0.402,6.268C89.178,49.595,89.171,51.614,88.124,53.795z
		 M54.747,98.905c0.322,0.518,0.765,0.252,1.185,0.19c0.54,0.512,1.322-0.141,1.928,0.39c-0.648,1.463-0.461,2.792,0.741,3.883
		c1.696,1.552,6.008,1.941,8.107,0.969c1.864-0.863,1.722-2.632,2.216-4.132c0.164,0.427,0.496,0.316,0.806,0.255
		c0.465,0.551,1.023,0.213,1.548,0.146c2.298,0.282,2.789-0.176,3.522-3.259c3.536-1.023,4.145-2.105,3.222-5.682
		c3.303-1.728,3.762-2.948,2.346-6.432c1.304-0.691,2.67-1.35,3.08-2.992c0.383-1.581-0.336-2.855-1.174-4.107
		c1.449-0.893,2.651-1.793,2.936-3.533c0.277-1.714-0.562-2.936-1.658-4.11c1.531-1.092,2.964-2.035,3.158-4.048
		c0.201-1.984-0.885-3.228-2.334-4.434c1.686-0.96,2.752-2.146,2.818-4.026c0.066-1.93-1.378-2.898-2.656-4.065
		c1.424-0.92,2.035-2.094,1.982-3.682c-0.047-1.622-1.27-2.434-2.225-3.42c2.557-2.557,2.202-4.654-1.04-6.762
		c2.044-2.778,1.608-4.365-1.742-6.154c0.273-1.283,0.818-2.702-0.993-3.396c-0.402-0.6-0.992-0.595-1.609-0.512
		c-0.793-0.616-1.697,0.03-2.533-0.247c-3.12-3.257-8.052-3.742-11.841-1.156c-4.015-1.278-5.315-0.623-5.986,3.005
		c-3.419,1.216-3.799,1.947-2.934,5.772c-1.278,0.444-2.575,0.906-3.064,2.399c-0.504,1.482,0.21,2.732,0.812,3.969
		c-3.228,1.693-3.629,3.291-1.773,7.009c-1.672,0.561-2.973,1.564-3.29,3.402c-0.311,1.792,0.541,3.2,1.776,4.429
		c-3.79,2.051-4.051,4.804-0.765,8.433c-1.382,0.832-2.421,1.946-2.459,3.661c-0.047,1.757,0.903,3,2.248,3.98
		c-2.966,3.028-2.837,4.832,0.403,7.429c-2.26,3.039-2.094,4.209,0.961,6.77c-1.753,3.048-1.316,4.379,2.131,6.419
		c-0.388,1.219-0.713,2.45,0.933,3.061C53.771,98.867,54.179,99.054,54.747,98.905z"/>
	<path fill-rule="evenodd" clip-rule="evenodd" d="M66.402,58.693c2.275-0.077,4.166,0.441,5.92,1.413
		c1.357,0.755,2.379,1.913,2.401,3.525c0.017,1.65-0.786,2.945-2.31,3.753c-3.265,1.721-9.096,1.029-11.773-1.414
		c-1.375-1.263-1.764-2.726-0.951-4.751c1.576,2.746,4.002,2.918,6.543,2.552c1.117-0.166,2.166-0.648,2.369-2.013
		c0.181-1.229-0.49-1.979-1.459-2.557C66.952,59.089,66.779,58.953,66.402,58.693z"/>
	<path fill-rule="evenodd" clip-rule="evenodd" d="M67.328,69.448c0.91-0.208,1.844-0.349,2.734-0.093
		c1.676,0.48,2.851,1.56,3.088,3.347c0.229,1.737-0.607,3.031-2.146,3.752c-3.475,1.636-6.928,1.107-10.152-0.646
		c-1.88-1.018-2.293-2.597-1.699-4.814c1.385,1.672,3.115,2.406,5.168,2.288C66.982,73.131,67.824,72.068,67.328,69.448z"/>
	<path fill-rule="evenodd" clip-rule="evenodd" d="M67.873,49.764c1.991-0.158,3.822,0.395,5.465,1.443
		c1.693,1.084,2.219,3.062,1.453,4.743c-0.725,1.588-2.723,2.587-4.488,2.205c-1.898-0.407-3.796-0.612-5.736-0.634
		c-2.809-0.033-4.48-2.699-3.338-5.432c1.375,2.462,3.612,2.591,5.98,2.261c1.037-0.143,1.956-0.565,2.215-1.703
		c0.23-1.033-0.225-1.805-1.094-2.374c-0.185-0.121-0.293-0.363-0.428-0.552L67.873,49.764z"/>
	<path fill-rule="evenodd" clip-rule="evenodd" d="M58.906,79.584c1.018,1.94,2.756,2.245,4.617,2.156
		c2.455-0.121,3.123-0.902,2.988-3.407c1.151-0.019,2.354-0.395,3.424,0.293c1.145,0.741,1.926,1.779,1.85,3.229
		c-0.077,1.535-1,2.604-2.336,3.091c-3.21,1.165-6.374,0.858-9.301-0.916C58.561,83.063,58.197,81.534,58.906,79.584z"/>
	<path fill-rule="evenodd" clip-rule="evenodd" d="M62.579,43.632c1.04,1.803,2.546,2.251,4.226,2.296
		c1.341,0.037,2.677-0.097,3.318-1.51c0.706-1.555-0.673-2.134-1.729-3.032c2.231-0.012,4.098,0.536,5.732,1.727
		c1.369,0.985,1.785,2.753,1.07,4.136c-0.745,1.448-2.506,2.321-3.995,1.925c-1.692-0.45-3.421-0.563-5.155-0.563
		C63.253,48.609,61.848,46.816,62.579,43.632z"/>
	<path fill-rule="evenodd" clip-rule="evenodd" d="M58.457,87.465c1.736,1.913,3.709,2.435,5.774,1.765
		c1.392-0.449,1.403-1.539,1.322-2.773c1.207,0.112,2.301-0.461,3.349,0.232c2.15,1.417,2.021,4.55-0.342,5.602
		c-3.046,1.357-6.078,0.999-8.855-0.787C58.351,90.634,57.769,89.286,58.457,87.465z"/>
	<path fill-rule="evenodd" clip-rule="evenodd" d="M69.552,34.026c1.936-0.104,3.548,0.446,4.939,1.537
		c1.261,0.994,1.614,2.407,0.903,3.836c-0.691,1.398-1.87,2.046-3.544,1.597c-1.624-0.438-3.296-0.562-4.978-0.505
		c-2.406,0.09-3.752-1.716-3.037-4.297c1.062,1.317,2.366,1.973,4.012,1.938c1.234-0.025,2.388-0.157,2.995-1.402
		C71.482,35.432,70.242,34.911,69.552,34.026z"/>
	<path fill-rule="evenodd" clip-rule="evenodd" d="M48.377,61.458c1.011,1.507,2.199,2.034,3.648,2.048
		c1.244,0.014,2.482-0.138,3.076-1.334c0.642-1.297-0.395-2.131-1.634-3.148c1.987,0.215,3.459,0.494,4.819,1.523
		c-0.527,1.776-0.732,3.545,0.34,5.14c-1.85,1.83-5.561,2.026-8.413,0.526C48.578,65.349,47.976,63.951,48.377,61.458z"/>
	<path fill-rule="evenodd" clip-rule="evenodd" d="M80.89,62.356c1.742-0.396,4.026,0.808,4.64,2.443
		c0.588,1.592-0.252,3.581-1.871,4.424c-2.585,1.339-6.838,0.563-9.012-1.707c0.449-0.687,0.914-1.392,1.374-2.094
		c2.745,1.118,4.739,1.051,5.552-0.219c0.738-1.151,0.447-2.12-0.666-2.876L80.89,62.356z"/>
	<path fill-rule="evenodd" clip-rule="evenodd" d="M76.125,56.348c1.671,1.813,4.025,2.413,5.464,1.377
		c1.431-1.036,0.823-2.233,0.04-3.46c1.598,0.048,2.811,0.575,3.744,1.651c0.961,1.119,0.987,2.401,0.342,3.662
		c-0.654,1.27-1.75,1.972-3.185,1.788c-1.421-0.179-2.825-0.347-4.259-0.437c-1.312-0.08-2.262-0.906-2.877-2.108
		C74.832,57.723,75.557,57.086,76.125,56.348z"/>
	<path fill-rule="evenodd" clip-rule="evenodd" d="M54.468,51.433c1.536-0.103,2.686,0.361,3.805,0.891
		c0.822,0.392,1.988,3.261,1.753,4.199c-0.285,1.177-2.134,2.317-3.608,2.103c-1.17-0.171-2.329-0.345-3.518-0.365
		c-2.613-0.039-3.786-1.531-3.392-4.562c0.932,1.091,1.952,1.779,3.309,1.812c1.171,0.026,2.28-0.043,2.886-1.23
		C56.334,53.034,55.448,52.317,54.468,51.433z"/>
	<path fill-rule="evenodd" clip-rule="evenodd" d="M47.962,69.735c1.921,1.734,4.101,2.19,5.619,1.333
		c1.26-0.716,1.024-1.803,0.605-2.915c1.748-0.472,3.038-0.062,3.992,1.448c-0.624,1.307-0.785,2.708-0.557,4.11
		c-2.045,1.592-5.398,1.638-7.943,0.204C48.098,73.021,47.687,71.68,47.962,69.735z"/>
	<path fill-rule="evenodd" clip-rule="evenodd" d="M74.652,73.594c4.129,1.137,5.764,0.285,5.248-2.627
		c2.451-0.418,4.021,0.453,4.35,2.417c0.324,1.936-0.951,3.636-3.242,4.009c-2.512,0.409-4.951,0.211-7.004-1.829
		C74.209,74.956,74.408,74.338,74.652,73.594z"/>
	<path fill-rule="evenodd" clip-rule="evenodd" d="M56.383,44.815c2.157-0.617,4.577,0.562,5.084,2.482
		c0.457,1.729-0.7,3.674-2.647,3.755c-1.938,0.082-3.992-0.154-5.839-0.745c-1.458-0.464-1.916-1.979-1.487-3.874
		c1.128,1.436,2.459,1.966,4.062,1.726c0.917-0.137,1.716-0.5,1.956-1.473c0.225-0.934-0.314-1.525-1.128-1.901V44.815z"/>
	<path fill-rule="evenodd" clip-rule="evenodd" d="M48.183,77.167c1.321,1.516,3.317,2.111,4.736,1.522
		c1.339-0.555,1.324-1.635,1.001-2.82c0.893-0.228,1.675-0.396,2.416,0.07c0.853,0.534,2.018,1.239,1.646,2.229
		c-0.467,1.229-0.249,3.014-1.978,3.554c-2.233,0.701-4.449,0.599-6.466-0.647C48.135,80.211,47.65,78.899,48.183,77.167z"/>
	<path fill-rule="evenodd" clip-rule="evenodd" d="M75.896,48.421c0.631,1.347,1.641,2.119,3.172,2.17
		c1.035,0.035,2.01-0.052,2.625-1.018c0.568-0.901,0.093-1.658-0.648-2.526c2.006-0.021,3.426,0.669,4.334,2.204
		c0.695,1.164,0.242,2.283-0.523,3.272c-0.227,0.286-0.518,0.545-0.832,0.733c-1.011,0.62-6.602,0.033-7.474-0.795
		c-1.223-1.166-1.53-2.508-0.62-4.017L75.896,48.421z"/>
	<path fill-rule="evenodd" clip-rule="evenodd" d="M72.906,79.554c1.182,1.768,2.785,2.101,4.65,1.672
		c1.441-0.333,1.446-1.49,1.396-2.627c2.036-0.294,3.227,0.337,3.644,1.896c0.392,1.456-0.654,3.244-2.268,3.788
		c-1.916,0.643-3.809,0.413-5.652-0.317C72.575,83.14,73.043,81.229,72.906,79.554z"/>
	<path fill-rule="evenodd" clip-rule="evenodd" d="M58.483,94.64c2.469,2.244,6.083,2.188,6.558-0.736
		c0.983,0.014,2.021-0.65,2.984,0.183c1.418,1.225,1.158,3.405-0.504,4.412c-1.873,1.123-6.119,0.916-7.838-0.426
		C58.642,97.261,58.1,96.216,58.483,94.64z"/>
	<path fill-rule="evenodd" clip-rule="evenodd" d="M70.348,27.786c1.898,0.086,3.311,0.434,4.452,1.535
		c0.896,0.868,1.235,1.891,0.619,3.023c-0.609,1.119-1.46,1.774-2.901,1.308c-1.485-0.475-3.041-0.569-4.604-0.507
		c-2.266,0.088-3.139-1.017-2.523-3.553c0.792,1.321,1.966,1.709,3.295,1.741c1.035,0.025,2.049-0.089,2.589-1.097
		C71.764,29.328,71.101,28.644,70.348,27.786z"/>
	<path fill-rule="evenodd" clip-rule="evenodd" d="M49.074,84.217c1.431,1.65,3.025,1.856,4.691,1.16
		c1.082-0.454,0.919-1.471,0.634-2.401c1.717-0.496,3.119,0.113,3.782,1.623c0.354,0.804-0.648,3.042-1.619,3.607
		c-1.632,0.945-5.358,0.498-6.688-0.809C49.074,86.607,48.739,85.669,49.074,84.217z"/>
	<path fill-rule="evenodd" clip-rule="evenodd" d="M71.122,86.179c1.083,1.672,2.541,1.961,4.134,1.62
		c1.213-0.265,1.664-1.192,1.331-2.396c2.491-0.12,3.474,0.467,3.687,2.071c0.223,1.673-0.96,3.108-2.891,3.496
		c-3.025,0.608-5.488-0.766-6.383-3.514C70.863,87.037,71.004,86.759,71.122,86.179z"/>
	<path fill-rule="evenodd" clip-rule="evenodd" d="M80.512,40.399c1.37-0.026,2.422,0.341,3.366,0.934
		c1.216,0.768,1.525,1.943,1.084,3.254c-0.452,1.327-1.366,2.021-2.854,1.801c-0.855-0.13-1.729-0.241-2.588-0.225
		c-2.577,0.042-3.582-0.971-3.66-4.027c0.728,0.739,1.381,1.338,2.266,1.516c0.928,0.19,1.871,0.344,2.654-0.358
		C81.842,42.345,81.486,41.376,80.512,40.399z"/>
	<path fill-rule="evenodd" clip-rule="evenodd" d="M53.378,40.17c2.035,1.459,3.974,1.759,5.023,0.734
		c1.026-1.001,0.399-1.874-0.463-2.795c1.127-0.206,1.964,0.105,2.783,0.54c1.202,0.642,2.409,1.455,1.812,2.99
		c-0.904,2.378-2.029,2.903-4.015,2.375c-0.772-0.204-1.576-0.357-2.374-0.407C53.771,43.459,53.109,42.667,53.378,40.17z"/>
	<path fill-rule="evenodd" clip-rule="evenodd" d="M68.979,92.967c3.549,1.36,4.623,1.053,5.252-1.314
		c0.467-0.293,0.947,0.077,1.421,0.01c0.933-0.127,1.562,0.303,1.907,1.145c0.385,0.948,0.227,1.874-0.419,2.628
		c-1.437,1.674-3.318,1.458-5.173,1.051C70.235,96.098,69.267,94.955,68.979,92.967z"/>
	<path fill-rule="evenodd" clip-rule="evenodd" d="M58.475,100.434c2.188,1.361,4.184,1.639,5.139,0.57
		c0.564-0.64,1.031-1.123,1.938-1.11c0.658,0.012,1.395-0.311,1.806,0.484c0.39,0.741,0.581,1.568,0.083,2.302
		c-1.342,1.981-3.393,1.756-5.368,1.507c-1.724-0.218-3.276-0.809-3.633-2.837C58.386,101.076,58.457,100.78,58.475,100.434z"/>
	<path fill-rule="evenodd" clip-rule="evenodd" d="M50.288,90.701c1.444,1.163,2.796,1.693,4.322,1.028
		c1-0.435,0.897-1.364,0.698-2.173c0.566-0.35,1.027-0.429,1.648-0.246c0.475,0.977,0.985,2.033,1.806,2.815
		c-0.804,2.555-2.562,2.954-5.476,2.448C51.186,94.21,50.334,93.083,50.288,90.701z"/>
	<path fill-rule="evenodd" clip-rule="evenodd" d="M76.971,39.699c-0.229-0.874-0.15-1.527,0.133-2.157
		c2.969-0.499,3.264-0.861,2.521-3.166c1.33-0.05,2.443,0.332,3.375,1.26c0.819,0.808,0.953,1.747,0.498,2.739
		c-0.449,0.98-1.162,1.485-2.377,1.356C79.781,39.589,78.414,39.697,76.971,39.699z"/>
	<path fill-rule="evenodd" clip-rule="evenodd" d="M64.181,34.016c-1.409,1.034-1.883,2.402-1.837,4.227
		c-1.848-0.394-3.538-0.724-5.17-1.114c-1.123-0.266-1.449-1.541-1.045-2.829c1.726,1.344,3.623,1.595,4.625,0.676
		c1.004-0.925,0.293-1.727-0.406-2.63C61.914,32.407,63.14,32.693,64.181,34.016z"/>
	<path fill-rule="evenodd" clip-rule="evenodd" d="M69.703,100.506c-0.18-0.35-0.479-0.34-0.801-0.264
		c-0.101-0.452-0.867-0.591-0.521-1.334c0.941-0.731,3.102,0.589,3.143-1.719c0.838-0.081,1.486-0.021,2.129,0.385
		c0.666,2.179-0.966,2.56-2.41,3.082C70.753,100.318,70.227,100.393,69.703,100.506z"/>
	<path fill-rule="evenodd" clip-rule="evenodd" d="M55.899,99.148c-0.33-0.406-0.747-0.318-1.167-0.208
		c-0.276-0.476-0.692-0.652-1.228-0.576c-0.074-0.719-0.884-1.235-0.508-2.204c0.728,0.278,1.361,0.854,2.246,0.784
		c1.116-0.083,1.213-1.006,1.688-2.118c0.467,1.35,0.713,2.411,1.454,3.203C57.76,99.014,56.738,98.874,55.899,99.148z"/>
	<path fill-rule="evenodd" clip-rule="evenodd" d="M78.944,29.947c0.435,0.472,0.979,0.606,1.593,0.523
		c0.504,1.038,1.281,2.059,0.206,3.276c-1.5,0.006-3.03-0.383-4.523,0.125c-0.256-0.891,0.044-1.313,0.7-1.37
		c1.367-0.125,2.22-0.533,1.504-2.118C78.4,30.326,78.766,30.095,78.944,29.947z"/>
	<path fill-rule="evenodd" clip-rule="evenodd" d="M64.275,29.121c-0.41,1.155-0.131,2.245-0.021,3.479
		c-1.632-0.414-3.079-0.938-4.515-0.976c-0.452-0.52-0.514-0.98-0.32-1.544c1.033,0.562,2.072,1.048,3.17,0.334
		c0.663-0.435,0.391-1.062,0.068-1.617C63.268,28.451,63.664,28.759,64.275,29.121z"/>
	<path fill-rule="evenodd" clip-rule="evenodd" d="M80.906,62.328c0.012-0.088,0.016-0.175,0.01-0.083
		c0.017-0.087,0,0.008-0.025,0.106L80.906,62.328z"/>
	<polygon fill-rule="evenodd" clip-rule="evenodd" points="56.383,44.785 56.472,44.675 56.39,44.812 	"/>
	<polygon fill-rule="evenodd" clip-rule="evenodd" points="75.93,48.445 75.996,48.512 75.901,48.427 	"/>
	<path fill-rule="evenodd" clip-rule="evenodd" d="M67.902,49.722c-0.048,0-0.092,0.003-0.136,0.002
		c0.034,0.014,0.069,0.028,0.106,0.04L67.902,49.722z"/>
</g>
</svg>
