<?xml version="1.0" encoding="utf-8"?>
<!-- Generator: Adobe Illustrator 16.0.0, SVG Export Plug-In . SVG Version: 6.00 Build 0)  -->
<!DOCTYPE svg PUBLIC "-//W3C//DTD SVG 1.1//EN" "http://www.w3.org/Graphics/SVG/1.1/DTD/svg11.dtd">
<svg version="1.1" id="Layer_1803" xmlns="http://www.w3.org/2000/svg" xmlns:xlink="http://www.w3.org/1999/xlink" x="0px" y="0px"
	 width="128px" height="128px" viewBox="0 0 128 128" enable-background="new 0 0 128 128" xml:space="preserve">
<g id="XKmr1B.tif_1_">
	<g>
		<path fill-rule="evenodd" clip-rule="evenodd" d="M0.134,43.225c4.836,8.192,10.961,14.513,16.829,21.033
			c7.858,8.748,17.688,14.972,27.765,20.798c7.188,4.16,14.776,7.465,22.844,9.536c16.344,4.192,32.274,3.666,47.749-4.604
			c-0.178,2.944-1.839,4.853-3.615,6.554c-5.031,4.815-11.264,7.58-17.941,8.794c-20.618,3.755-40.508,1.744-58.878-9.098
			c-8.991-5.306-16.177-12.789-23.22-20.391c-4.278-4.619-8.203-9.388-9.977-15.585C0.147,54.894-0.449,49.458,0.134,43.225z"/>
		<path fill-rule="evenodd" clip-rule="evenodd" d="M118.826,71.437c2.324,0.7,4.385,1.261,6.398,1.955
			c2.305,0.796,3.277,2.707,2.698,5.074c-0.499,2.107-3.161,3.96-5.187,3.526c-1.403-0.301-2.779-0.761-4.395-1.21
			c-1.053,6.396-6.464,7.718-11.268,9.418c-15.505,5.477-30.87,4.344-46.072-1.469c-13.43-5.133-25.851-12.024-36.651-21.55
			c-7.318-6.451-13.738-13.79-19.566-21.62c-0.098-0.138-0.177-0.293-0.266-0.435c-5.307-8.321-3.523-13.925,5.604-17.791
			c8.616-3.647,17.323-6.705,26.911-6.389c14.715,0.484,28.594,4.102,42.025,10.018c15.251,6.713,26.829,17.661,36.797,30.616
			C118.064,64.456,119.16,67.71,118.826,71.437z M24.483,59.904c5.549,5.191,11.091,10.185,17.553,13.92
			c11.694,6.758,24.366,11.013,37.555,13.738c9.837,2.034,19.329,0.868,28.497-3.343c5.134-2.36,6.674-5,5.515-10.492
			c-0.14-0.617-0.192-1.132,0.087-1.714c1.557-3.249,0.919-6.356-0.846-9.272c-5.786-9.512-13.668-16.996-22.891-23.073
			c-12.285-8.089-26.142-12.021-40.417-14.595c-11.727-2.118-22.956-0.013-33.639,5.076c-8.535,4.064-9.535,8.42-3.958,16.108
			C15.618,51.339,20.421,55.382,24.483,59.904z"/>
		<path fill-rule="evenodd" clip-rule="evenodd" d="M21.958,47.899c-5.028-3.508-6.785-7.911-5.31-13.005
			c0.583-2.022,2.111-3.011,3.701-4.262c3.13-2.458,7.141-1.552,10.337-3.389c0.419-0.243,1.038-0.368,1.49-0.256
			c2.395,0.594,5.137-0.198,7.146,0.444c4.188,1.342,8.997-0.852,12.695,2.477c0.479,0.431,1.164,0.173,1.737,0.048
			c0.932-0.206,1.971-0.427,2.774,0.016c3.287,1.796,7.152,1.666,10.415,2.948c3.297,1.301,6.776,2.283,9.883,3.801
			c3.027,1.476,6.043,3.084,9.05,4.656c2.131,1.115,4.272,2.167,6.419,3.253c3.292,1.676,6.261,4.096,9.35,6.208
			c1.892,1.292,3.863,3.219,5.073,5.076c2.531,3.895,4.87,8.177,4.703,13.136c-0.07,2.058-0.655,4.075-2.133,5.645
			c-0.713,0.754-0.803,1.641-1.005,2.554c-0.619,2.77-2.284,4.615-5.126,5.014c-1.95,0.272-3.525,2.241-5.544,1.527
			c-3.667-1.3-7.826,1.433-11.234-1.495c-3.951,1.655-7.387-2.396-11.317-1.02c-0.147,0.054-0.381,0.075-0.502-0.005
			c-4.648-3.058-11.045-1.541-15.228-5.818c-0.226-0.229-0.555-0.562-0.81-0.538c-3.543,0.352-6.123-1.361-8.72-3.52
			c-1.024-0.85-3.11-0.119-4.358-1.047c-2.834-2.109-5.99-3.604-9.043-5.312c-2.147-1.2-3.884-3.094-6.295-4.077
			c-1.369-0.556-2.468-1.836-3.18-3.24c-0.708-1.39-1.608-2.582-2.799-3.597C22.205,52.47,21.972,50.159,21.958,47.899z
			 M105.088,75.38c-0.009-0.247-0.017-0.489-0.019-0.733c0.126-1.05,0.144-2.074,1.35-2.673c0.52-0.26,0.899-1.013,1.129-1.621
			c1.509-3.913-0.443-10.255-3.945-13.018l0.027,0.02c-0.782-0.305-1.555-0.61-2.241-0.876c-1.428-4.001-2.348-4.676-6.562-4.893
			c-2.345-4.292-3.701-5.039-7.521-4.15c-2.272-3.976-3.637-4.669-7.938-4.046c-2.97-4.584-4.522-5.232-9.122-3.805
			c-2.93-4.495-5.454-5.244-9.592-2.856c-3.074-4.13-5.042-4.683-8.881-2.519c-3.23-3.595-4.656-3.869-8.358-1.62
			c-3.092-2.771-4.6-2.915-7.5-0.729c-3.58-2.451-4.804-2.348-6.792,0.678c-1.639-0.786-3.244-0.913-4.323,0.848
			c-4.136-0.688-5.378,0.5-5.025,4.624c-0.372,0.52-0.385,1.006,0.124,1.452c-0.032,2.625,1.159,4.45,3.629,5.313
			c0.783,0.264,1.465,0.368,1.188,1.408c-0.096,0.38,0.104,0.605,0.402,0.775c-0.329,0.366-0.657,0.729-0.991,1.094
			c0.365,0.375,0.73,0.753,1.09,1.125c-0.129,0.119-0.264,0.235-0.031,0.025c-0.159,0.276-0.068,0.114,0.023-0.046
			c-0.366-0.366-0.725-0.731-1.083-1.102c0.316-0.366,0.64-0.736,0.938-1.105c-0.149-0.256-0.298-0.51-0.447-0.766
			c0.607-0.221,0.828-1.086,1.666-0.987c1.173,0.804,0.289,2.57,1.401,3.313c1.839,1.238,0.992,2.46,0.163,3.725
			c-0.051-0.296-0.125-0.566-0.526-0.542c-0.089,0.456,0.358,0.326,0.535,0.491c1.327,0.044,0.654,1.626,1.542,2.007l-0.01-0.105
			c0.917,3.04,2.328,3.953,6.045,3.906c1.869,3.869,3.152,4.651,7.322,4.435c2.778,4.33,4.593,5.163,8.183,3.772
			c3.054,4.428,4.362,4.991,8.97,3.866c3.403,4.562,5.187,5.22,9.469,3.467c4.637,4.29,5.296,4.448,9.083,2.144
			c3.562,3.236,4.549,3.405,8.153,1.413c3.647,3.316,4.691,3.432,7.642,0.838c3.233,2.558,4.623,2.488,6.755-0.352
			c0.549,0.131,1.108,0.262,1.657,0.392c0.252,0.228,0.497,0.256,0.74-0.015c1.354,0.129,1.615-0.777,1.713-1.829
			C105.114,75.873,105.106,75.626,105.088,75.38z"/>
		<path fill-rule="evenodd" clip-rule="evenodd" d="M71.844,54.621c0.592,1.938-0.093,3.717-0.904,5.365
			c-1.009,2.018-3.472,2.451-5.557,1.206c-4.045-2.426-5.684-10.675-2.876-14.5c1.219-1.664,2.971-1.917,5.713-0.688
			c-2.71,1.899-2.716,4.48-1.769,7.155c1.036,2.904,3.131,3.404,5.458,1.456L71.844,54.621z"/>
		<path fill-rule="evenodd" clip-rule="evenodd" d="M57.408,42.982c-2.756,2.016-2.342,4.564-1.452,7.043
			c0.605,1.709,2.058,2.405,4.001,1.969c0.08,0.754,0.193,1.42,0.216,2.091c0.093,2.933-2.372,4.483-4.99,3.149
			c-4.195-2.125-5.963-10.188-2.951-13.803C53.553,41.84,55.253,41.717,57.408,42.982z"/>
		<path fill-rule="evenodd" clip-rule="evenodd" d="M78.841,50.139c-2.329,1.962-2.829,5.737-1.131,7.809
			c1.315,1.611,2.808,2.051,4.366,0.272c0.494,0.684,0.275,1.28,0.19,1.853c-0.507,3.421-2.062,5.05-4.512,4.749
			c-2.585-0.319-5.126-3.329-4.877-5.995c0.188-2.12,0.341-4.213,0.188-6.351C72.878,49.717,75.383,48.674,78.841,50.139z"/>
		<path fill-rule="evenodd" clip-rule="evenodd" d="M47.348,40.101c-3.128,3.023-1.927,8.633,2.355,8.812
			c0.266,1.718,1.085,3.65-1.235,4.593c-2.269,0.919-4.083-0.18-5.263-1.993c-2.037-3.117-2.286-6.553-0.913-10.009
			C43.13,39.394,44.734,39.017,47.348,40.101z"/>
		<path fill-rule="evenodd" clip-rule="evenodd" d="M88.201,53.951c-2.033,2.083-2.354,5.631-0.536,7.511
			c1.144,1.183,2.494,1.462,3.69-0.103c0.591,0.689,0.383,1.395,0.298,2.023c-0.345,2.67-1.992,4.412-3.92,4.232
			c-2.467-0.23-4.897-3.089-4.705-5.524c0.138-1.699,0.388-3.4,0.357-5.095C83.311,53.314,84.837,52.314,88.201,53.951z"/>
		<path fill-rule="evenodd" clip-rule="evenodd" d="M40.481,45.906c0.2,1.646,1.015,3.405-1.041,4.11
			c-2,0.682-3.685-0.116-4.825-1.885c-1.615-2.505-1.942-5.26-1.267-8.101c0.668-2.812,2.383-3.505,5.126-2.249
			C35.623,40.695,36.508,44.494,40.481,45.906z"/>
		<path fill-rule="evenodd" clip-rule="evenodd" d="M62.673,60.797c0.676,0.577,1.251,1.072,1.783,1.524
			c-0.618,5.587,0.908,7.612,4.66,6.159c0.095,2.041-0.308,3.883-2.374,4.65c-2.062,0.777-3.631-0.431-4.907-1.906
			C59.229,68.206,59.561,63.278,62.673,60.797z"/>
		<path fill-rule="evenodd" clip-rule="evenodd" d="M100.334,64.192c-0.087,0.592-0.152,1.181-0.253,1.765
			c-0.493,2.913-1.917,4.304-4.02,3.941c-2.384-0.42-3.995-2.947-3.618-5.492c0.19-1.338,0.264-2.716,0.201-4.067
			c-0.149-3.401,0.987-4.256,4.451-2.96c-0.913,0.991-1.773,1.969-1.752,3.385c0.029,1.323,0.278,2.557,1.174,3.556
			c1.261,1.404,2.561,0.88,3.829-0.044L100.334,64.192z"/>
		<path fill-rule="evenodd" clip-rule="evenodd" d="M74.493,64.759c-1.427,1.979-1.662,4.062-0.123,6.033
			c0.924,1.175,2.162,1.238,3.385,0.279c0.407,2.856-0.604,4.765-2.572,4.965c-2.427,0.242-5.122-2.072-5.209-4.609
			c-0.057-1.694,0.018-3.41,0.21-5.095C70.415,64.26,72.054,63.669,74.493,64.759z"/>
		<path fill-rule="evenodd" clip-rule="evenodd" d="M53.354,57.875c0.679,0.329,1.282,0.61,1.995,0.946
			c-0.412,1.535-0.79,3.064-0.046,4.511c0.757,1.48,1.925,2.356,3.773,1.646c0.172,1.832,0.759,3.619-1.239,4.427
			c-2.034,0.821-3.68-0.228-4.935-1.746C50.651,64.959,50.816,60.552,53.354,57.875z"/>
		<path fill-rule="evenodd" clip-rule="evenodd" d="M47.673,55.31c-1.648,3.846-0.921,5.563,2.743,6.617
			c0.143,1.495,0.593,3.19-1.358,3.858c-1.752,0.598-3.154-0.354-4.257-1.621c-1.503-1.723-1.765-3.836-1.473-6
			C43.684,55.541,44.773,54.831,47.673,55.31z"/>
		<path fill-rule="evenodd" clip-rule="evenodd" d="M82.771,66.692c-1.021,2-1.509,3.881-0.03,5.643
			c0.896,1.071,2.074,0.964,3.258,0.429c0.129,3.17-0.89,4.802-2.906,4.719c-2.327-0.097-4.398-2.62-4.232-5.11
			c0.043-0.84,0.057-1.698-0.022-2.542C78.575,67.182,79.634,66.223,82.771,66.692z"/>
		<path fill-rule="evenodd" clip-rule="evenodd" d="M25.761,42.243c0.149-1.5,0.149-3.035,0.517-4.486
			c0.578-2.325,1.811-2.798,4.166-1.846c-1.955,3.194-1.771,4.002,1.28,6.897c0.877,0.829,1.01,2.048,0.499,3.044
			c-0.596,1.157-1.732,1.141-2.9,0.714c-2.109-0.758-2.474-2.877-3.566-4.432L25.761,42.243z"/>
		<path fill-rule="evenodd" clip-rule="evenodd" d="M104.502,60.782c-1.741,1.765-1.911,3.713-0.537,5.705
			c0.797,1.157,1.865,1.427,3.14,0.355c0.306,2.132-0.122,3.964-2.175,4.672c-1.731,0.593-3.067-0.457-4.016-1.977
			c-0.645-1.02-0.058-1.978-0.022-2.963c0.034-1.188,0.212-2.382,0.146-3.562C100.861,60.166,101.526,59.682,104.502,60.782z"/>
		<path fill-rule="evenodd" clip-rule="evenodd" d="M35.582,55.032c0.91-1.75,1.007-4.503,4.211-3.393
			c-1.113,3.4-0.578,4.679,2.7,6.042c-0.289,1.317,0.754,3.29-1.396,3.764c-2.053,0.449-3.654-0.664-4.414-2.649
			c-0.483-1.248-0.745-2.574-1.107-3.866L35.582,55.032z"/>
		<path fill-rule="evenodd" clip-rule="evenodd" d="M89.963,68.859c-0.955,3.548,0.185,6.447,3.521,5.229
			c0.311,1.718,0.061,3.247-1.334,4.353c-1.116,0.88-2.303,0.314-3.328-0.301c-1.484-0.893-2.342-2.144-1.904-4.028
			c0.145-0.641,0.136-1.371-0.014-2.01C86.297,69.564,87.356,68.603,89.963,68.859z"/>
		<path fill-rule="evenodd" clip-rule="evenodd" d="M35.575,54.93c-1.009,2.622-2.896,3-4.816,0.934
			c-0.505-0.547-0.919-1.188-1.368-1.783l0.009,0.109c0.035-1.35-0.054-2.718,0.137-4.05c0.275-1.863,0.731-2.124,3.11-2.24
			c-0.312,2.145-0.684,4.325,2.216,5.114c0.87,0.24,0.018,1.495,0.719,2.018L35.575,54.93z"/>
		<path fill-rule="evenodd" clip-rule="evenodd" d="M19.831,39.463c0.393-0.46,0.345-0.95,0.093-1.453
			c1.066-4.136,1.331-4.375,4.202-3.619c-1.427,2.229-1.613,4.304,0.705,6.124c0.475,0.368,0.629,1.14,0.931,1.727l-0.005-0.107
			c-0.609,2.107-1.641,2.456-3.37,1.288C20.938,42.449,20.741,40.739,19.831,39.463z"/>
		<path fill-rule="evenodd" clip-rule="evenodd" d="M94.307,70.648c1.345,0.055,2.229,0.481,2.56,1.934
			c0.373,1.659,1.556,2.305,3.376,1.859c0.079,2.004,0.209,3.994-2.322,4.409c-2.026,0.335-3.48-1.347-3.524-3.946
			C94.382,73.503,93.501,72.106,94.307,70.648z"/>
		<path fill-rule="evenodd" clip-rule="evenodd" d="M66.577,37.156c-2.258,1.723-1.999,3.896-1.082,6.183
			c-1.348,0.517-2.705,0.77-3.96,1.75c-0.966-2.723-1.141-5.265,0.482-7.621C62.881,36.223,64.207,36.217,66.577,37.156z"/>
		<path fill-rule="evenodd" clip-rule="evenodd" d="M76.35,47.518c-1.195,0.586-2.574,0.801-3.565,1.736
			c-2.59-2.012-2.204-4.852-1.864-7.323c0.314-2.203,2.305-2.386,4.276-1.688c-1.945,3.096-1.676,4.733,1.153,7.338V47.518z"/>
		<path fill-rule="evenodd" clip-rule="evenodd" d="M86.76,50.692c-0.78,1.878-2.941,0.922-4.008,2.924
			c-0.668-2.763-3.457-3.624-3.15-6.525c0.306-2.93,0.747-3.426,4.019-2.556c-1.492,1.832-1.744,3.755-0.24,5.629
			C84.274,51.279,85.412,51.43,86.76,50.692z"/>
		<path fill-rule="evenodd" clip-rule="evenodd" d="M48.694,32.85c-2.412,2.896-1.477,5.741,2.233,6.727
			c0.192,0.64,0.276,1.281-0.139,2.156c-1.847-1.946-3.655-3.885-6.624-3.662c-0.424-2.1-0.48-4.087,1.247-5.442
			c0.946-0.742,2.323-1.138,3.296,0.291L48.694,32.85z"/>
		<path fill-rule="evenodd" clip-rule="evenodd" d="M57.895,35.029c-3.206,1.127-1.92,3.539-1.823,5.62
			c-1.178,0.128-2.337,0.258-3.645,0.4c-0.764-2.265-0.717-4.593,1.005-6.348C54.652,33.46,56.366,33.707,57.895,35.029z"/>
		<path fill-rule="evenodd" clip-rule="evenodd" d="M91.508,48.509c-1.61,1.427-1.894,3.007-0.889,4.674
			c0.772,1.262,1.863,1.988,3.314,0.738c0.612,1.953-0.965,1.883-1.743,2.734c-1.198-1.71-2.158-3.328-3.927-4.356
			c-1.205-0.701-0.984-2.384-0.387-3.445C88.636,47.531,89.979,47.656,91.508,48.509z"/>
		<path fill-rule="evenodd" clip-rule="evenodd" d="M36.608,35.664c0.135-3.9,1.133-4.797,4.101-3.947
			c-1.843,3.468-1.164,5.41,2.328,6.508c-0.009,0.747-0.665,0.866-1.28,1.298C40.593,37.578,38.902,36.277,36.608,35.664z"/>
		<path fill-rule="evenodd" clip-rule="evenodd" d="M105.177,75.386c-0.188,0.248-0.298,0.494,0.032,0.722
			c-0.604,0.632-1.206,1.27-1.806,1.9c-0.251-0.243-0.499-0.272-0.727,0.032c-2.772-1.569-1.216-4.347-1.835-6.671
			c1.448,1.191,2.03,3.403,4.313,3.281C105.162,74.894,105.164,75.138,105.177,75.386z"/>
		<path fill-rule="evenodd" clip-rule="evenodd" d="M33.959,31.417c-1.702,1.764-1.482,3.461-0.567,5.362
			c-1.127-0.852-2.249-1.699-3.376-2.555C30.137,31.277,30.911,30.653,33.959,31.417z"/>
		<path fill-rule="evenodd" clip-rule="evenodd" d="M97.938,53.059c-0.429,0.882-0.853,1.769-1.298,2.698
			c-2.436,0.063-1.681-1.504-1.491-2.849c1.053-0.454,1.974-0.761,2.793,0.228L97.938,53.059z"/>
		<path fill-rule="evenodd" clip-rule="evenodd" d="M28.07,33.357c-0.456,0.555-0.907,1.108-1.387,1.693
			c-0.903-0.458-1.759-0.997-0.796-2.025c0.701-0.767,1.594-0.917,2.111,0.339L28.07,33.357z"/>
		<path fill-rule="evenodd" clip-rule="evenodd" d="M76.35,47.582c0.73-0.328,1.454-0.654,2.175-0.977
			c0.412,0.494,0.222,0.982,0.154,1.499c-0.969,0.386-1.653-0.067-2.329-0.586V47.582z"/>
		<path fill-rule="evenodd" clip-rule="evenodd" d="M103.603,57.335c-0.583,0.561-0.798,1.464-1.652,1.771
			c-0.665-0.426-0.46-0.98-0.26-1.623c0.623-0.046,1.275-0.09,1.925-0.135L103.603,57.335z"/>
		<path fill-rule="evenodd" clip-rule="evenodd" d="M100.572,57.968c0.345,0.479,0.312,0.926-0.131,1.578
			C99.691,58.888,99.799,58.44,100.572,57.968z"/>
		<path fill-rule="evenodd" clip-rule="evenodd" d="M59.825,43.008c-0.433-0.126-0.772-0.318-0.732-0.846
			C60.013,41.868,60.081,42.293,59.825,43.008z"/>
		<path fill-rule="evenodd" clip-rule="evenodd" d="M69.539,43.792c0.518,0.542,0.401,0.892,0.073,1.229
			C68.627,44.587,69.242,44.274,69.539,43.792z"/>
		<path fill-rule="evenodd" clip-rule="evenodd" d="M100.347,64.276c-0.043-0.037-0.081-0.074-0.133-0.107
			c0.042,0.012,0.08,0.023,0.116,0.03L100.347,64.276z"/>
		<polygon fill-rule="evenodd" clip-rule="evenodd" points="97.941,53.136 98.059,53.092 97.938,53.059 		"/>
		<path fill-rule="evenodd" clip-rule="evenodd" d="M27.998,33.365c0.04-0.04,0.077-0.077,0.116-0.117
			c-0.025,0.036-0.037,0.072-0.054,0.109L27.998,33.365z"/>
		<path fill-rule="evenodd" clip-rule="evenodd" d="M71.909,54.616c-0.034-0.095-0.065-0.192-0.065-0.192s0.006,0.1,0,0.196
			L71.909,54.616z"/>
		<path fill-rule="evenodd" clip-rule="evenodd" d="M48.707,32.92c0-0.025-0.004-0.051-0.013-0.072L48.707,32.92z"/>
	</g>
</g>
</svg>
