<?xml version="1.0" encoding="utf-8"?>
<!-- Generator: Adobe Illustrator 16.0.0, SVG Export Plug-In . SVG Version: 6.00 Build 0)  -->
<!DOCTYPE svg PUBLIC "-//W3C//DTD SVG 1.1//EN" "http://www.w3.org/Graphics/SVG/1.1/DTD/svg11.dtd">
<svg version="1.1" id="Layer_1804" xmlns="http://www.w3.org/2000/svg" xmlns:xlink="http://www.w3.org/1999/xlink" x="0px" y="0px"
	 width="128px" height="128px" viewBox="0 0 128 128" enable-background="new 0 0 128 128" xml:space="preserve">
<g>
	<path fill-rule="evenodd" clip-rule="evenodd" d="M30.904,43.803c1.346,3.07,3.173,5.925,4.328,9.38c-3.487,0-6.749,0-10.188,0
		c-1.06-0.786-0.691-2.986-2.612-3.356l-0.004-0.034c0.737,1.007,1.404,2.048,1.578,3.56c-4.179,0.496-8.36,0.821-12.413,2.042
		c4.067-0.24,8.128-0.478,12.091-0.709c0.482,0.621,0.034,1.075,0.086,1.54c-0.444,0.337-0.819,0.713-0.731,1.34
		c-0.212,0.08-0.423,0.16-0.631,0.24c-0.034,0.333-0.069,0.667-0.108,1.003c0.016,0.386-0.158,0.562-0.549,0.509l-0.098,0.05
		l0.072-0.083c0.176-0.166,0.36-0.333,0.542-0.499c0.278-0.302,0.158-0.658,0.13-0.997c0.286,0.104,0.527,0.12,0.607-0.263
		c0.701-0.086,0.823-0.619,0.9-1.179c0.817-1.602,2.208-1.762,3.818-1.695c2.407,0.1,4.822,0.024,7.433,0.024
		c-0.228,2.154-1.898,3.262-2.1,4.975c-0.664,0.248-0.897,0.705-0.667,1.377c-0.302-0.077-0.52,0.007-0.64,0.304
		c-0.142,0.139-0.292,0.276-0.441,0.414l-0.085,0.057l0.038-0.098c0.147-0.141,0.292-0.28,0.447-0.423
		c0.214-0.093,0.422-0.185,0.642-0.281c0.167-0.487,0.736-0.783,0.669-1.386c0.849-0.524,1.538-1.333,1.809-2.18
		c0.73-2.253,2.208-2.671,4.319-2.44c2.615,0.292,5.248,0.36,8.077,0.843c-6.165,4.642-12.302,9.258-17.503,14.62
		C19.42,67.354,10.555,61.378,0.065,58.467c2.222-2.475,4.301-4.958,6.554-7.277c4.992-5.142,10.775-9.153,17.366-12.049
		c3.677-1.621,7.169-3.67,10.792-5.438c5.114-2.497,10.527-3.432,16.207-2.961c8.526,0.707,17.031,1.635,25.46,3.028
		c7.467,1.231,13.85,5.059,20.517,9.461c-4.434-0.375-8.352-0.388-12.275-0.239c-0.375,0.014-0.765-0.26-1.146-0.4
		c0.007-0.037,0.012-0.08,0.017-0.12c-0.021,0.026-0.047,0.052-0.064,0.078c0.147,0.554-0.169,0.725-0.641,0.806
		c-2.921,0.481-5.844,0.972-8.816,1.469c-1.209-0.99-1.474-2.813-3.002-3.543c-0.066-0.371-0.279-0.425-0.589-0.267
		c-0.005-0.386-0.011-0.773-0.028-1.161c-0.225-0.038-0.449-0.079-0.677-0.123c-0.131-0.239-0.267-0.475-0.398-0.707
		c-0.005,0.044-0.021,0.084-0.025,0.125c-0.015-0.036-0.03-0.069-0.047-0.104c0.035,0.008,0.074,0.019,0.111,0.029
		c0.133,0.203,0.265,0.411,0.39,0.615c0.227,0.058,0.444,0.115,0.675,0.171c-0.152,0.375-0.181,0.747,0.062,1.099
		c0.188,0.092,0.376,0.19,0.565,0.286c0.158,1.405,1.384,2.36,1.66,3.887c-3.69,1.4-7.536,2.263-11.301,4.029
		c-1.513-3.472-2.626-7.058-4.989-9.986c-0.288-0.462-0.579-0.923-0.865-1.381l-0.058-0.004c0.03,0.018,0.062,0.036,0.098,0.052
		c0.142,0.531,0.184,1.133,0.877,1.288c0.234,2.112,1.446,3.862,2.152,5.799c0.537,1.492,1.166,2.947,1.535,4.771
		c-3.93,1.091-7.005,4.3-11.362,4.515c-1.58-3.826-2.579-7.535-4.589-10.801c-0.208-0.335-0.276-0.805-0.795-0.853
		c0.104-0.379,0.002-0.684-0.336-0.899c-0.142-0.31-0.381-0.312-0.657-0.216c0.098-0.385,0.208-0.774-0.097-1.122l-0.112,0.026
		l0.154,0.012c0.026,0.356,0.05,0.71,0.076,1.063c0.231,0.061,0.459,0.124,0.683,0.186c-0.11,0.381-0.118,0.733,0.33,0.917
		c1.002,2.577,2.034,5.142,3.002,7.731c0.405,1.082,0.685,2.213,1.083,3.531c-3.93-0.184-7.593-0.355-11.36-0.533
		c-1.588-3.242-2.529-6.87-5.213-9.523c-0.098-0.315-0.2-0.635-0.302-0.946c-0.219-0.081-0.435-0.165-0.645-0.252l-0.06-0.109
		l0.111,0.057c0.116,0.328,0.328,0.419,0.636,0.26C30.586,43.13,30.393,43.523,30.904,43.803z"/>
	<path fill-rule="evenodd" clip-rule="evenodd" d="M126.517,65.107c2.061,4.289,1.617,8.358,0.31,12.398
		c-2.504,7.712-7.014,14.122-12.839,19.702c-8.581,8.213-18.01,15.01-29.495,18.65c-9.677,3.067-19.582,3.089-29.535,2.491
		c-5.258-0.312-10.568-0.394-15.522-2.679c-5.521-2.551-10.081-6.228-13.891-11.217c10.97,2.733,21.897,3.912,32.888,3.103
		c15.742-1.16,30.883-4.75,44.455-13.318c10.916-6.892,19.094-16.04,23.177-28.502C126.104,65.613,126.219,65.516,126.517,65.107z"
		/>
	<path fill-rule="evenodd" clip-rule="evenodd" d="M59.907,25.114c0.854-0.302,1.705-0.602,2.671-0.943
		c2.31,1.521,4.327,3.503,6.635,5.642c-2.209,0.49-4.067-0.131-5.925-0.289c-3.804-0.322-7.597-0.807-11.396-1.169
		c-0.917-0.09-1.533-0.329-1.904-1.268c-1.93-4.894-3.464-9.972-6.936-14.431c10.285-2.481,20.226-4.852,30.588-2.033
		c4.342,1.181,8.847,1.704,12.979,3.701c5.874,2.838,9.982,7.657,14.278,12.292c2.311,2.495,4.584,5.035,6.938,7.492
		c3.183,3.321,5.266,7.267,7.015,11.973c-4.145-1.71-8.267-1.662-12.331-2.387c0.085-1.242,0.165-2.328,0.245-3.411
		c-0.063-0.011-0.126-0.025-0.188-0.039c-0.263,0.863-0.526,1.726-0.86,2.82c-3.188-1.896-6.271-3.729-9.423-5.601
		c0.588-2.679,1.537-5.154,1.789-7.781c0.009-0.25,0.475-0.469-0.011-0.781c0.017,0.311,0.034,0.569,0.05,0.83
		c-1.4,2.08-1.429,4.71-2.787,7.008c-3.332-1.5-6.507-3.291-10.147-4.226c0.627-2.778,1.854-5.223,1.978-7.924
		c0.463-0.332,0.487-0.713,0.042-1.372c0,0.621,0,1.012,0,1.406c-1.329,2.265-1.453,4.999-2.911,7.502
		c-2.94-1.25-6.336-0.879-9.373-2.604c1.531-3.673,2.758-7.195,2.896-10.995c-1.021,3.356-1.81,6.784-3.328,10.208
		c-2.407-1.962-4.701-3.826-7.003-5.697c0.267-1.576,0.984-2.977,0.994-4.523c0-0.171,0-0.343,0-0.124
		c0.033-0.209,0.006-0.032-0.014,0.149c-0.96,1.057-0.737,2.62-1.662,3.825c-3.166-1.608-5.754-4.335-9.311-5.306
		c-0.184-0.482-0.543-0.434-0.923-0.308c-0.005-0.1-0.012-0.196-0.012-0.196c-0.004-0.01,0.024,0.069,0.054,0.15
		c0.242,0.291,0.557,0.375,0.912,0.313c2.542,2.404,5.774,3.931,8.227,6.424c-0.206,1.013-1.714,0.598-1.811,1.702
		c-0.307-0.115-0.615-0.245-0.938,0.011C59.33,25.479,59.609,25.125,59.907,25.114z"/>
	<path fill-rule="evenodd" clip-rule="evenodd" d="M78.154,100.924c-2.806,1.797-6.109,1.908-9.217,2.584
		c-8.992,1.955-18.08,1.955-27.2,1.086c-4.427-0.423-8.893-0.534-13.181-1.896c-0.461-0.148-0.935-0.263-1.395-0.424
		c-5.677-2.025-7.734-5.533-5.772-11.19c2.849-8.19,6.678-15.881,13.236-21.898c13.317-12.224,28.965-19.634,46.68-22.933
		c8.282-1.541,16.483-0.691,24.715,0.252c3.392,0.387,6.815,0.677,9.555,3.082c0.673,0.593,1.311,1.225,1.928,1.804
		c1.83-0.871,3.604-1.798,5.446-2.575c1.756-0.743,3.698,0.09,4.533,1.793c0.888,1.822,0.331,4.228-1.258,5.172
		c-1.118,0.671-2.29,1.26-3.527,1.936c2.85,4.356,0.73,8.192-1.119,11.882c-6.505,12.951-16.868,21.683-30.147,27.168
		c-3.604,1.487-7.256,2.813-10.967,3.976c-0.74,0.229-1.521,0.849-2.33,0.132c-0.02-0.012-0.042-0.027-0.06-0.044
		C78.098,100.861,78.126,100.892,78.154,100.924z M51.346,100.476c6.388-0.078,13.232-0.272,19.865-1.926
		c11.334-2.824,21.817-7.729,31.699-13.909c7.457-4.663,12.482-11.334,15.662-19.477c1.545-3.981,0.751-6.711-2.754-8.967
		c-0.536-0.346-1.072-0.632-1.276-1.291c-1.08-3.498-3.87-4.946-7.098-5.717c-8.288-1.976-16.653-2.169-25.062-1.002
		c-10.058,1.397-19.203,5.333-28.047,10.136c-7.763,4.211-15.016,9.009-20.188,16.388c-3.448,4.918-6.461,10.055-7.575,16.073
		c-0.64,3.455,0.271,5.354,3.36,7.043c1.542,0.847,3.258,1.167,4.97,1.465C40.203,100.212,45.579,100.014,51.346,100.476z"/>
	<path fill-rule="evenodd" clip-rule="evenodd" d="M97.01,81.69c-1.201,2.618-3.457,3.763-6.253,3.989
		c-0.785,0.061-1.231,0.446-1.71,0.997c-0.541,0.622-1.185,1.521-1.859,1.593c-4.688,0.494-8.286,4.25-13.094,4.275
		c-0.547,0.001-0.882,0.281-1.277,0.575c-1.964,1.454-4.127,2.28-6.606,1.88c-0.537-0.088-0.937-0.02-1.341,0.317
		c-0.213,0.178-0.448,0.401-0.703,0.432c-4.802,0.576-9.4,3.285-14.434,1.392c-0.38-0.142-0.816-0.265-1.209-0.222
		c-2.617,0.289-4.788-0.527-6.518-2.649c-4.662,1.199-8.101-0.59-10.734-4.39c-0.572-0.831-1.14-1.786-0.972-2.687
		c0.547-2.911,0.615-6.085,3.396-8.071c0.064-0.039,0.166-0.065,0.171-0.111c0.679-3.233,3.512-4.645,5.624-6.663
		c2.702-2.587,5.719-4.795,8.861-6.764c1.261-0.792,3.047-0.746,3.798-2.405c0.052-0.115,0.193-0.236,0.316-0.264
		c4.729-1.067,7.815-5.863,13.052-5.764c0.656,0.012,0.998-0.387,1.378-0.792c1.755-1.848,3.976-2.488,6.437-2.301
		c0.829,0.062,1.411-0.081,2.075-0.604c1.688-1.346,11.274-3.81,13.449-3.562c0.141,0.016,0.315,0.116,0.407,0.06
		c2.982-1.814,6.251-0.937,9.423-1.071c1.33-0.058,2.774-0.417,3.866,0.315c1.982,1.333,4.316,1.814,6.342,2.984
		c1.03,0.6,1.917,1.382,2.591,2.379c1.95,2.905,2.251,6.437,3.585,9.58c0.173,0.395,0.127,1.058-0.104,1.42
		c-1.637,2.599-1.884,6.223-5.4,7.452c-0.592,0.202-0.851,0.643-1.113,1.157c-0.25,0.489-0.501,1.156-0.925,1.349
		C103.808,77.167,101.37,81.002,97.01,81.69z M111.094,62.176c-0.022-0.533-0.299-0.826-0.836-0.858
		c-0.172-0.477-0.673-0.747-0.482-1.464c0.484-1.788-0.483-3.158-1.516-4.529c-2.019-2.697-5.222-2.895-8.031-3.915
		c-0.559-0.2-1.23,0.036-1.581,0.679l0.062-0.055c-0.579,0.017-1.055,0.563-1.748,0.112c-2.522-1.644-4.729-1.023-6.534,1.166
		c-3.671-1.541-5.3-1.144-7.255,1.689c-4.314-0.942-5.494-0.559-7.434,2.423c-4.356-1.522-6.653-0.68-7.854,2.885
		c-5.088-0.924-6.756-0.134-8.05,3.813c-4.187-0.825-5.689-0.028-7.144,3.79c-3.63-0.719-5.46,0.443-6.106,3.892
		c-3.746,0.079-4.812,0.911-5.211,4.069c-3.774,0.521-4.479,1.308-3.994,4.468c-0.432,0.396-1.293,0.2-1.413,1.02
		c-0.323-0.038-0.431,0.137-0.414,0.424c-0.491,1.042-0.693,2.187-1.963,2.809c-0.843,0.407-0.873,1.518-0.579,2.44
		c0.438,1.353,1.232,2.436,2.532,3.092c0.19,0.604,0.638,0.832,1.229,0.859c1.194,1.129,2.759,1.184,3.975,0.565
		c1.025-0.525,1.697-0.146,2.521,0.026c-0.465,0.697,0.332,1.091,0.4,1.663c0.391,0.049,0.789,0.098,1.181,0.146
		c0.082,0.474,0.333,0.522,0.809,0.242c-0.348-0.079-0.607-0.137-0.867-0.19c-0.312-0.405-0.731-0.248-1.13-0.198
		c0.363-0.677-0.376-1.082-0.398-1.661c-0.414-0.441-0.603-0.909-0.172-1.465c1.325-0.411,1.786,1.419,2.887,1.194
		c1.594-0.323,2.029,0.707,2.541,1.769c-0.582-0.116-0.875,0.306-1.316,0.665c0.697,0.097,1.11-0.105,1.28-0.709
		c2.804,1.7,5.585,2.749,8.09-0.346c3.628,1.331,5.082,0.979,7.204-1.666c4.423,1.267,5.978,0.782,7.636-2.381
		c4.594,0.982,6.316,0.323,7.671-2.937c5.174,0.912,6.705,0.238,8.217-3.628c4.823,0.644,6.063-0.068,7.013-4.018
		c4.394,0.05,5.12-0.39,6.221-3.749c4.081-0.062,5.073-0.845,5.178-4.107c3.986-0.462,4.211-0.688,4.188-4.244
		c2.5-1.108,2.616-1.35,1.63-3.374C111.492,62.329,111.421,62.117,111.094,62.176z"/>
	<path fill-rule="evenodd" clip-rule="evenodd" d="M77.555,68.354c0.638,0.766,1.091,1.201,1.415,1.718
		c1.046,1.675,2.081,3.396,0.745,5.386c-0.994,1.48-3.378,2.062-5.724,1.232c-3.009-1.063-5.27-3.103-6.555-6.036
		c-1.104-2.516-0.03-4.316,2.803-5.051c-0.2,2.715,0.975,4.693,3.376,5.688C76.004,72.283,77.495,71.322,77.555,68.354z"/>
	<path fill-rule="evenodd" clip-rule="evenodd" d="M61.753,69.971c-0.719,2.464,0.503,3.896,2.218,4.961
		c1.609,0.997,3.278,1.221,4.614-0.602c0.488,0.394,0.855,0.709,1.243,0.993c1.002,0.728,1.423,1.688,1.122,2.898
		c-0.343,1.389-1.392,2.018-2.687,2.301c-3.733,0.825-9.323-3.207-9.727-7.011C58.369,71.966,59.338,70.827,61.753,69.971z"/>
	<path fill-rule="evenodd" clip-rule="evenodd" d="M79.424,61.788c-0.299,2.579,0.516,4.078,2.708,5.183
		c2.255,1.135,3.861,0.336,4.24-2.19c0.355,0.396,0.699,0.725,0.98,1.104c1.845,2.475,1.892,4.659,0.138,5.875
		c-2.07,1.437-5.505,0.766-7.049-1.326c-0.781-1.059-1.578-2.126-2.516-3.039C75.481,65.004,75.907,63.094,79.424,61.788z"/>
	<path fill-rule="evenodd" clip-rule="evenodd" d="M93.843,61.52c2.044,0.499,2.369,2.251,2.572,3.873
		c0.187,1.519-0.916,2.39-2.275,2.837c-1.898,0.633-3.869-0.056-5.142-1.679c-0.803-1.037-1.602-2.108-2.546-3.009
		c-2.334-2.212-1.962-3.878,1.194-5c-0.008,2.523,1.378,4.522,3.534,5.09c1.76,0.464,2.703-0.308,2.641-2.147L93.843,61.52z"/>
	<path fill-rule="evenodd" clip-rule="evenodd" d="M53.863,74.114c-0.923,2.61,0.727,3.788,2.235,4.798
		c1.272,0.846,2.758,0.712,4.034-0.586c0.327,0.263,0.614,0.555,0.962,0.751c1.103,0.634,1.532,1.541,1.223,2.784
		c-0.317,1.272-1.36,1.708-2.443,1.982c-3.446,0.878-8.604-2.854-8.897-6.404C50.826,75.606,51.803,74.649,53.863,74.114z"/>
	<path fill-rule="evenodd" clip-rule="evenodd" d="M52.45,81.949c1.141,0.911,2.755,1.426,1.946,3.263
		c-0.737,1.679-2.292,1.917-3.858,1.706c-3.008-0.405-4.947-2.352-6.232-4.926c-0.915-1.829-0.242-3,2.135-4.042
		c-0.165,1.727,0.453,3.043,1.844,3.987C49.682,82.887,51.082,83.02,52.45,81.949z"/>
	<path fill-rule="evenodd" clip-rule="evenodd" d="M75.622,78.194c0.652-0.295,1.345-0.165,2.016-0.144
		c2.556,3.893,4.942,4.375,6.617,1.25c1.195,1.238,2.064,2.61,1.245,4.29c-0.817,1.679-2.508,1.868-4.155,1.715
		C77.606,84.956,74.658,81.251,75.622,78.194z"/>
	<path fill-rule="evenodd" clip-rule="evenodd" d="M95.266,55.552c-0.037,2.398,1.525,4.496,3.604,4.766
		c1.538,0.201,2.346-0.538,2.317-2.13c0.645,0.214,0.964,0.666,1.271,1.125c1.266,1.904,1.199,3.704-0.162,4.61
		c-1.774,1.185-4.376,0.795-5.544-0.874c-0.794-1.14-1.6-2.252-2.676-3.157c-0.728-0.607-1.639-1.176-1.23-2.386
		C93.24,56.352,94.027,55.681,95.266,55.552z"/>
	<path fill-rule="evenodd" clip-rule="evenodd" d="M85.461,73.496c0.14,2.232,1.135,3.679,3.289,4.051
		c1.407,0.244,2.317-0.439,2.481-2.013c2.13,2.243,2.418,3.852,1.019,5.133c-1.663,1.522-4.623,1.289-6.157-0.495
		c-0.643-0.735-1.211-1.523-1.874-2.229C82.455,76.066,82.753,74.727,85.461,73.496z"/>
	<path fill-rule="evenodd" clip-rule="evenodd" d="M75.881,83.036c0.97,1.08,2.697,1.91,1.553,3.762
		c-1.054,1.712-2.792,1.897-4.585,1.438c-2.298-0.584-3.869-2.069-4.769-4.229c-0.598-1.422-0.332-2.455,1.457-2.58
		C72.513,85.005,73.563,85.281,75.881,83.036z"/>
	<path fill-rule="evenodd" clip-rule="evenodd" d="M91.788,70.023c0.462,1.663,1.192,3.131,3.086,3.459
		c1.254,0.217,2.172-0.282,2.565-1.732c1.261,1.11,1.944,2.292,1.598,3.854c-0.265,1.196-1.284,1.571-2.338,1.753
		c-1.496,0.261-2.916,0.178-3.871-1.244c-0.469-0.696-1.02-1.29-1.678-1.822C89.271,72.771,89.48,71.293,91.788,70.023z"/>
	<path fill-rule="evenodd" clip-rule="evenodd" d="M68.362,86.021c0.819,1.16,2.536,1.743,1.593,3.385
		c-0.923,1.605-2.597,1.78-4.193,1.492c-2.375-0.428-3.829-2.097-4.753-4.218c-0.664-1.535,0.461-2.225,1.76-2.975
		c0.307,1.682,1.298,2.794,2.884,3.323C66.731,87.389,67.511,86.791,68.362,86.021z"/>
	<path fill-rule="evenodd" clip-rule="evenodd" d="M40.427,81.578c0.239,3,1.696,4.263,4.483,3.792
		c1.352-0.228,2.039,0.638,2.401,1.458c0.443,1.002-0.319,1.811-1.327,2.236c-2.904,1.231-7.861-2.243-7.661-5.381
		C38.397,82.457,39.116,81.832,40.427,81.578z"/>
	<path fill-rule="evenodd" clip-rule="evenodd" d="M55.504,86.013c1.587,2.98,2.713,3.443,5.331,2.186
		c0.575,1.074,2.657,1.571,1.438,3.323c-1.108,1.604-2.856,1.571-4.511,0.947c-1.168-0.439-2.175-1.234-2.891-2.293
		C53.875,88.688,53.564,87.243,55.504,86.013z"/>
	<path fill-rule="evenodd" clip-rule="evenodd" d="M101.934,53.365c-0.103,1.487,0.731,2.47,1.813,3.287
		c1.638,1.238,2.801,0.859,3.582-1.229c1.336,1.225,2.29,2.598,1.452,4.351c-0.725,1.516-2.297,1.277-3.688,1.149
		c-0.506-0.047-0.962-0.236-1.185-0.727c-0.882-1.942-2.616-3.172-4.045-4.71c0.332-1.119,0.58-2.213,2.086-2.1L101.934,53.365z"/>
	<path fill-rule="evenodd" clip-rule="evenodd" d="M97.603,67.021c1.926,3.168,3.819,3.634,5.514,1.354
		c1.894,1.997,2.131,3.406,0.771,4.568c-1.506,1.289-3.591,0.972-5.037-0.751c-0.357-0.424-0.74-0.823-1.141-1.207
		C95.729,69.093,95.725,69.097,97.603,67.021z"/>
	<path fill-rule="evenodd" clip-rule="evenodd" d="M48.848,87.906c1.141,2.086,2.565,3.129,4.799,1.754
		c0.635,0.779,1.238,1.521,1.88,2.31c-0.238,1.52-1.302,1.981-2.635,2.072c-2.058,0.143-4.08-1.226-5.05-3.327
		C47.318,89.569,47.664,88.733,48.848,87.906z"/>
	<path fill-rule="evenodd" clip-rule="evenodd" d="M36.845,90.894c-0.317-0.454-0.721-0.767-1.303-0.773
		c-0.118-0.896-0.922-1.34-1.348-2.032c-1.115-1.781-0.801-2.729,1.228-3.605c0.384,2.491,1.317,3.424,3.724,3.432
		c1.241,0.004,1.744,0.915,2.653,1.519C40.666,92.035,38.672,91.187,36.845,90.894z"/>
	<path fill-rule="evenodd" clip-rule="evenodd" d="M75.162,64.982c-2.861-0.004-4.167-1.922-5.625-3.51
		c-1.099-1.185-0.404-2.619,1.736-3.666c0.125,2.237,1.336,3.549,3.484,3.876c1.344,0.203,2.153-0.508,2.27-1.897
		c0.56,0.196,0.857,0.456,1.07,0.993C76.528,61.75,75.009,62.84,75.162,64.982z"/>
	<path fill-rule="evenodd" clip-rule="evenodd" d="M101.716,65.236c0.098-0.205,0.86-0.223,1.492-0.541
		c1.496,1.167,2.996,1.931,4.269-0.376c1.211,1.3,2.484,2.564,1.249,4.227c-0.899,1.204-2.595,1.518-3.764,0.617
		C103.695,68.19,102.86,66.668,101.716,65.236z"/>
	<path fill-rule="evenodd" clip-rule="evenodd" d="M63.987,60.817c-0.732,2.774,1.344,3.633,2.968,4.872
		c-0.832,0.888-1.326,1.925-1.382,3.356c-2.366-1.188-4.016-2.708-4.287-5.193C61.112,62.277,62.127,61.307,63.987,60.817z"/>
	<path fill-rule="evenodd" clip-rule="evenodd" d="M57.456,64.387c-1.092,2.498-0.781,3.18,2.007,5.054
		c-0.898,0.64-1.581,1.444-2.179,2.45c-1.901-1.191-3.305-2.586-3.134-4.843C54.286,65.374,55.758,65.009,57.456,64.387z"/>
	<path fill-rule="evenodd" clip-rule="evenodd" d="M84.799,57.506c0.604,1.603-1.492,2.224-0.996,3.876
		c-1.885-1.153-4.223,0.053-5.761-1.983c-1.526-2.018-1.45-2.835,1.106-3.947c-0.045,2.035,1.103,3.184,2.913,3.653
		C83.38,59.444,84.219,58.713,84.799,57.506z"/>
	<path fill-rule="evenodd" clip-rule="evenodd" d="M50.12,68.597c-0.527,1.811,0.479,2.729,1.684,3.513
		c1.224,0.798,2.373,0.484,3.436-0.392c0.685,0.367,1.428,0.615,1.572,1.674c-2.495-0.781-4.685-0.295-6.616,1.462
		c-1.422-0.996-2.477-2.171-2.437-3.902C47.78,69.726,48.593,68.943,50.12,68.597z"/>
	<path fill-rule="evenodd" clip-rule="evenodd" d="M86.668,53.554c-0.646,1.813,0.588,2.564,1.9,3.116
		c1.373,0.577,2.334-0.018,2.739-1.521c1.364,0.94,0.569,1.854,0.278,2.877c-1.843-0.644-3.617-0.707-5.451-0.226
		c-0.762-1.02-2.404-1.544-1.608-3.243c0.382-0.819,0.97-1.59,2.102-0.971L86.668,53.554z"/>
	<path fill-rule="evenodd" clip-rule="evenodd" d="M44.518,72.602c0.02,3.291,2.26,4.521,5.134,2.975
		c0.202,0.543,0.2,1.06-0.152,1.665c-1.855-0.458-3.675-0.375-5.354,0.592C41.705,75.725,41.779,74.175,44.518,72.602z"/>
	<path fill-rule="evenodd" clip-rule="evenodd" d="M111.15,62.129c0.024,0.254,0.1,0.456,0.417,0.408
		c0,0.545,0.13,1.126-0.014,1.629c-0.288,0.99-1.267,1.649-2.037,1.191c-1.321-0.795-2.388-2.021-4.018-3.464
		c1.995-0.293,3.867,1.914,4.807-0.62C110.403,61.74,110.807,61.903,111.15,62.129z"/>
	<path fill-rule="evenodd" clip-rule="evenodd" d="M39.08,81.039c-1.758-2.14-1.528-3.279,0.795-4.226
		c-0.15,2.116,1.159,3.021,3.562,3.63C41.538,80.774,40.167,80.272,39.08,81.039z"/>
	<path fill-rule="evenodd" clip-rule="evenodd" d="M93.52,51.695c-0.38,1.502,0.271,2.211,0.496,3.015
		c-0.906,1.019-1.723,0.807-2.266-0.231C91.003,53.057,92.161,52.632,93.52,51.695z"/>
	<path fill-rule="evenodd" clip-rule="evenodd" d="M35.522,81.749c0.317,0.049,0.428-0.118,0.422-0.413
		c0.255-0.021,0.511-0.046,0.767-0.07c0.052,0.057,0.116,0.112,0.168,0.169c0.144,0.591,0.651,1.082,0.499,1.754
		C35.749,83.556,35.749,83.556,35.522,81.749z"/>
	<path fill-rule="evenodd" clip-rule="evenodd" d="M98.647,52.089c1.252,0.117,0.724,0.949,0.754,1.73
		c-1.189-0.364-1.332-0.935-0.692-1.782L98.647,52.089z"/>
	<path fill-rule="evenodd" clip-rule="evenodd" d="M98.529,54.906c-0.723,0.018-0.812-0.372-0.672-0.962
		C98.397,54.056,98.686,54.306,98.529,54.906z"/>
	<path fill-rule="evenodd" clip-rule="evenodd" d="M63.143,68.661c-0.407,0.208-0.827,0.353-0.939-0.178
		c-0.056-0.287,0.194-0.665,0.607-0.254C62.931,68.35,63.021,68.504,63.143,68.661z"/>
	<path fill-rule="evenodd" clip-rule="evenodd" d="M70.547,64.181c-0.846,0.022-0.795-0.361-0.625-0.883
		C70.387,63.363,70.559,63.636,70.547,64.181z"/>
	<path fill-rule="evenodd" clip-rule="evenodd" d="M36.711,81.266c0.096-0.199,0.216-0.321,0.39-0.081
		c0.008,0.021-0.144,0.163-0.221,0.25C36.827,81.378,36.763,81.322,36.711,81.266z"/>
	<polygon fill-rule="evenodd" clip-rule="evenodd" points="93.821,61.484 93.884,61.423 93.847,61.518 	"/>
	<path fill-rule="evenodd" clip-rule="evenodd" d="M101.949,53.385c0-0.057,0.009-0.113,0.009-0.169
		c0.049,0.04,0.092,0.08,0.145,0.117c-0.058,0.011-0.114,0.023-0.169,0.034L101.949,53.385z"/>
	<polygon fill-rule="evenodd" clip-rule="evenodd" points="86.628,53.587 86.594,53.438 86.666,53.554 	"/>
</g>
</svg>
