<?xml version="1.0" encoding="utf-8"?>
<!-- Generator: Adobe Illustrator 16.0.0, SVG Export Plug-In . SVG Version: 6.00 Build 0)  -->
<!DOCTYPE svg PUBLIC "-//W3C//DTD SVG 1.1//EN" "http://www.w3.org/Graphics/SVG/1.1/DTD/svg11.dtd">
<svg version="1.1" id="Layer_1805" xmlns="http://www.w3.org/2000/svg" xmlns:xlink="http://www.w3.org/1999/xlink" x="0px" y="0px"
	 width="128px" height="128px" viewBox="0 0 128 128" enable-background="new 0 0 128 128" xml:space="preserve">
<g>
	<path fill-rule="evenodd" clip-rule="evenodd" d="M78.283,9.056c0.973-2.326,1.76-4.45,2.738-6.479
		c1.239-2.562,2.438-2.69,5.903-1.193c2.348,1.013,2.004,2.532,1.143,4.312c-0.729,1.511-1.42,3.044-2.113,4.571
		c-0.136,0.297-0.195,0.625-0.35,1.122c4.091,1.049,7.547,2.938,9.523,6.836c7.344,14.502,10.29,29.604,6.492,45.706
		c-4.337,18.369-12.598,34.606-26.52,47.514c-6.48,6.012-14.117,10.579-22.066,14.513c-2.06,1.017-4.307,1.465-6.586,1.602
		c-4.61,0.275-7.813-2.13-10.346-5.662c-2.417-3.386-3.684-7.322-5.302-11.115c-8.001-18.781-7.525-37.806-1.946-57.034
		c3.328-11.469,8.584-21.9,16.673-30.765c4.303-4.712,9.769-7.942,15.158-11.211c2.09-1.263,4.128-2.608,6.416-3.506
		C70.878,6.792,74.524,7.244,78.283,9.056z M29.457,75.856c-0.16,12.862,2.248,21.691,5.072,30.441
		c1.239,3.848,2.569,7.65,5.022,10.938c2.373,3.16,5.467,4.578,9.451,4.05c2.214-0.294,4.299-0.962,6.179-2.08
		c9.737-5.796,18.89-12.378,25.918-21.407c7.563-9.711,11.872-21.035,15.292-32.706c4.305-14.696,2.422-28.778-4.666-42.232
		c-2.244-4.266-5.746-6.727-10.691-6.792c-0.793-0.01-1.459-0.174-2.1-0.663c-3.878-2.94-8.165-3.152-12.408-1.205
		c-7.883,3.618-14.881,8.505-20.367,15.343C34.468,44.111,31.189,61.512,29.457,75.856z"/>
	<path fill-rule="evenodd" clip-rule="evenodd" d="M39.973,104.6c-2.932-1.381-4.964-3.317-4.62-6.824
		c0.062-0.661-0.444-1.055-0.751-1.549c-0.387-0.64-1.088-1.35-1.025-1.97c0.48-4.76-1.274-9.685,0.983-14.616
		c-1.318-2.742-0.975-5.599,1.029-8.251c0.325-0.438,0.498-0.852,0.343-1.389c-0.953-3.332-0.006-6.139,2.461-8.464
		c-0.961-3.992-0.345-7.436,3.19-10.088c-0.374-3.565,0.264-6.815,3.756-8.843c0.472-0.273,0.407-0.877,0.438-1.385
		c0.146-2.398,1.976-3.98,2.873-5.935c1.66-3.608,3.965-6.601,6.409-9.593c0.05-0.061,0.066-0.153,0.082-0.235
		c0.667-3.465,4.551-3.372,6.293-5.723c2.049-2.754,4.945-2.406,7.818-1.503c0.736,0.233,1.429,0.381,2.218,0.251
		c5.397-0.895,9.935,0.804,13.64,4.737c0.66,0.694,1.426,0.792,2.206,1.062c3.396,1.177,4.786,3.061,5.009,6.7
		c0.018,0.408-0.019,0.917,0.205,1.202c1.886,2.438,2.281,4.99,0.807,7.769c-0.333,0.638,0.196,1.117,0.436,1.627
		c0.598,1.278,0.915,2.778,0.365,3.93c-1.195,2.509-0.608,5.245-1.234,7.623c-0.856,3.242-0.367,6.704-1.404,9.553
		c-1.312,3.572-2.225,7.103-2.895,10.795c-0.289,1.567-1.537,2.773-3.104,3.616c0.387,3.429-0.438,6.381-3.307,8.488
		c-0.547,0.401-0.58,0.964-0.575,1.576c0.004,0.585,0.028,1.202-0.138,1.752c-0.238,0.797-0.426,1.916-1.008,2.252
		c-3.654,2.103-3.228,7.104-6.686,9.237c-0.955,0.591-1.482,1.255-1.698,2.301c-0.715,3.433-4.371,3.602-6.225,5.628
		c-2.281,2.483-4.704,2.942-7.803,2.392c-3.174,3.875-7.301,3.633-11.467,2.139C42.812,111.507,40.081,109.025,39.973,104.6z
		 M88.265,28.019c-0.104,0.426,0.037,0.633,0.496,0.582c-0.158,0.469-0.191,0.893,0.392,1.095c-0.399,0.793-0.266,1.865-1.299,2.406
		c-1.777-0.352-3.615-0.715-5.458-1.08c0.084-0.929,0.536-1.315,1.339-1.226c2.621,0.293,2.585-1.03,1.83-2.799
		c-0.731-0.513-1.597-0.193-2.245-1.04c-3.59-4.679-8.135-5.894-13.429-3.771c-0.052-0.107-0.114-0.216-0.069-0.133
		c-0.076-0.053,0.021,0.015,0.117,0.084c-0.543,1.397-0.943,2.829-1.07,4.633c-1.519-1.044-2.859-1.895-4.387-2.33
		c-0.92-0.263-0.988-1.037-1.105-1.791c0.625-0.518,0.904-0.147,1.341,0.357c0.787,0.914,1.985,1.247,2.94,0.542
		c1.174-0.87,0.297-1.897-0.107-2.779c-3.152-0.295-3.529-0.111-4.123,1.924c-0.561,0.743-0.93,1.497-2.194,1.473
		c-2.347-0.042-3.416,1.442-3.532,3.714c-0.036,0.64,0.426,1.307-0.087,1.911c-4.555,1.017-5.256,2.084-4.475,6.896
		c-1.49,0.637-3.207,0.917-3.976,2.717c-0.707,1.664-0.359,3.227,0.346,4.874c-2.155,0.454-3.903,1.092-4.759,3.15
		c-0.857,2.074,0.074,3.866,0.797,5.68c-5.046,1.675-5.793,4.098-3.068,9.736c-1.884,0.49-3.342,1.457-3.82,3.5
		c-0.475,2.022,0.396,3.702,1.409,5.289c-4,2.702-4.206,4.045-1.497,8.847c-3.168,2.518-3.276,4.22-0.507,8.021
		c-2.885,3.178-2.797,4.179,0.705,7.929c0.018,1-1.263,1.934-0.156,2.99c0.244,1.44,1.168,2.011,2.547,2.006
		c0.282,0.827,0.979,0.462,1.522,0.529c0.392,0.25,0.787,0.503,1.231,0.785c-0.993,1.608-1.39,3.3-0.03,4.851
		c2.348,2.669,5.406,3.596,8.866,3.145c2.145-0.279,3.168-1.694,3.188-3.838c0.544,0.042,0.958,0.073,1.373,0.106
		c0.372,0.632,0.999,0.457,1.562,0.501c2.865,1.071,3.583,0.695,5.35-2.785c4.458-0.418,5.299-1.323,5.193-5.575
		c4.709-1.88,5.182-2.635,4.438-7.078c4.587-1.162,5.427-2.694,4.21-7.797c1.748-0.607,3.445-1.249,4.211-3.23
		c0.736-1.906,0.021-3.558-0.85-5.32c2.07-0.776,3.936-1.53,4.671-3.722c0.739-2.203,0.015-4.021-1.31-5.715
		c4.922-2.873,5.438-4.918,2.422-9.265c3.576-3.029,3.792-4.294,1.459-8.495c3.55-3.132,3.625-4.137,0.621-8.33
		c2.803-3.156,2.744-3.983-0.563-7.675c0.12-0.957,1.347-1.7,0.384-2.785c0.117-0.456,0.037-0.837-0.412-1.077
		c-0.157-0.197-0.313-0.394-0.471-0.593c-0.449-0.438-0.957-0.209-1.453-0.124c0-0.214,0.529-0.546-0.172-0.621
		c0.072,0.222,0.135,0.422,0.215,0.611C87.302,27.955,87.788,27.983,88.265,28.019z M68.68,21.233l-0.104,0.166l0.18,0.017
		L68.68,21.233z"/>
	<path fill-rule="evenodd" clip-rule="evenodd" d="M64.843,57.625c2.633,0.454,4.641,1.643,6.37,3.23
		c3.047,2.811,2.091,7.018-1.83,8.367c-3.911,1.347-11.327-1.236-13.528-4.708c-1.164-1.836-1.106-3.4,0.212-5.636
		c0.792,2.401,2.553,3.64,4.886,4.237c1.753,0.447,3.552,0.855,4.894-0.751C67.29,60.633,66.045,59.165,64.843,57.625z"/>
	<path fill-rule="evenodd" clip-rule="evenodd" d="M62.724,70.14c1.413,0.488,2.744,0.213,3.807,1.025
		c1.639,1.259,2.645,2.886,2.176,4.999c-0.486,2.132-2.134,3.269-4.153,3.51c-4.14,0.489-7.831-0.852-10.905-3.559
		c-1.78-1.567-2.124-3.709-0.837-6.212c1.838,3.304,4.573,4.61,8.079,3.947C62.735,73.503,62.858,71.872,62.724,70.14z"/>
	<path fill-rule="evenodd" clip-rule="evenodd" d="M68.362,47.42c2.789,0.49,4.781,1.662,6.371,3.429
		c1.525,1.684,1.712,3.628,0.451,5.565c-1.031,1.586-3.844,2.431-5.628,1.653c-2.089-0.911-4.204-1.647-6.422-2.171
		c-3.496-0.83-4.759-3.812-3.021-7.394c0.895,2.383,2.713,3.394,4.924,3.975c1.656,0.44,3.225,0.562,4.377-0.893
		C70.598,50.097,69.513,48.839,68.362,47.42z"/>
	<path fill-rule="evenodd" clip-rule="evenodd" d="M50.245,79.912c1.658,2.874,4.359,4.281,6.952,3.823
		c1.75-0.312,2.319-1.462,2.028-3.388c1.534,0.486,2.926,0.111,4.015,1.144c1.225,1.168,2.004,2.551,1.59,4.278
		c-0.413,1.73-1.806,2.583-3.37,3.084c-3.174,1.026-9.463-1.246-11.305-4.062C49.162,83.288,48.887,81.728,50.245,79.912z"/>
	<path fill-rule="evenodd" clip-rule="evenodd" d="M71.725,38.519c2.585-0.175,6.021,1.985,6.694,4.274
		c0.453,1.562,0.24,3.081-1.061,4.147c-1.341,1.096-2.873,1.748-4.646,0.864c-1.971-0.982-4.025-1.688-6.166-2.19
		c-3.176-0.743-4.205-3.179-2.588-6.561c1.07,2.589,3.13,3.597,5.591,3.912c1.312,0.167,2.598-0.03,3.214-1.404
		c0.572-1.261,0.031-2.283-1.002-3.083L71.725,38.519z"/>
	<path fill-rule="evenodd" clip-rule="evenodd" d="M47.69,89.238c3.282,4.321,7.126,4.605,8.749,0.745
		c3.164-0.027,4.91,1.266,4.9,3.64c0,2.294-2.06,3.837-5.009,3.767c-2.96-0.07-5.641-0.932-7.809-2.984
		C47.005,92.971,46.36,91.274,47.69,89.238z"/>
	<path fill-rule="evenodd" clip-rule="evenodd" d="M74.462,29.553c2.109,0.625,4.166,1.318,5.581,3.16
		c1.151,1.486,1.536,3.069,0.218,4.577c-1.243,1.424-2.803,2.14-4.701,1.101c-1.783-0.977-3.729-1.455-5.693-1.899
		c-2.943-0.665-3.857-2.789-2.329-5.962c0.739,1.848,1.97,2.896,3.731,3.337c1.528,0.382,3.045,0.707,4.156-0.722
		c1.143-1.464-0.311-2.425-0.903-3.531L74.462,29.553z"/>
	<path fill-rule="evenodd" clip-rule="evenodd" d="M80.542,64.758c1.463,1.034,2.312,1.569,3.088,2.195
		c1.287,1.034,1.761,2.414,1.467,4.028c-0.319,1.749-1.434,2.773-3.092,3.288c-3.309,1.029-7.93-0.82-10.089-4.106
		c0.403-0.909,1.223-1.479,2.046-2.27c2.018,1.312,4.127,2.865,6.586,1.171C81.893,68.136,81.283,66.698,80.542,64.758z"/>
	<path fill-rule="evenodd" clip-rule="evenodd" d="M49.622,55.08c2.129-0.388,3.34,1.181,5.058,2.302
		c-1.267,2.009-1.764,4.139-1.123,6.368c-3.072,1.477-7.539,0.569-10.05-1.966c-1.628-1.644-1.832-3.147-0.667-5.541
		c0.853,1.857,2.308,2.896,4.215,3.261c1.384,0.261,2.763,0.186,3.554-1.212c0.773-1.384-0.024-2.391-1.047-3.266L49.622,55.08z"/>
	<path fill-rule="evenodd" clip-rule="evenodd" d="M46.174,47.338c1.74,2.707,4.687,3.97,6.46,2.799
		c1.742-1.148,1.137-2.549,0.114-3.915c3.89,0.761,4.932,1.84,5.024,5.138c0.082,2.753-2.085,4.417-4.772,3.5
		c-1.59-0.541-3.174-1.064-4.794-1.525C45.853,52.661,45.093,50.407,46.174,47.338z"/>
	<path fill-rule="evenodd" clip-rule="evenodd" d="M77.296,75.341c2.799,0.336,4.333,1.778,4.221,3.95
		c-0.111,2.251-2.117,4.013-4.699,3.965c-3.186-0.061-5.782-1.396-7.918-3.949c0.424-0.773,0.812-1.49,1.195-2.191
		C75.584,79.165,76.373,78.965,77.296,75.341z"/>
	<path fill-rule="evenodd" clip-rule="evenodd" d="M76.347,57.699c2.432,2.567,4.811,3.53,6.463,2.513
		c1.448-0.889,1.601-2.171,0.25-3.98c2.91,1.053,4.75,2.237,4.799,4.916c0.043,1.924-1.166,3.078-2.885,3.674
		c-0.611,0.212-1.41,0.407-1.958,0.191c-1.87-0.751-3.823-1.225-5.698-1.912C74.853,62.198,74.415,59.259,76.347,57.699z"/>
	<path fill-rule="evenodd" clip-rule="evenodd" d="M52.195,68.045c-1.043,1.415-1.672,3.037-1.886,4.895
		c-3.691,1.155-6.802,0.124-9.501-2.335c-1.479-1.353-1.508-3.07-0.58-5.104c1.475,2.418,3.4,3.751,6.165,3.026
		c1.634-0.426,1.594-1.864,1.512-3.211C50.009,65.278,51.382,66.126,52.195,68.045z"/>
	<path fill-rule="evenodd" clip-rule="evenodd" d="M50.387,39.561c2.033,2.562,4.355,3.507,6.119,2.448
		c1.666-0.997,1.027-2.218,0.248-3.431c2.461,0.225,4.778,2.014,5.036,3.967c0.25,1.951-0.752,3.21-2.469,3.957
		c-1.137,0.499-2.226,0.463-3.366-0.196c-1.003-0.583-2.122-1.012-3.232-1.365C49.907,44.039,49.179,42.426,50.387,39.561z"/>
	<path fill-rule="evenodd" clip-rule="evenodd" d="M84.45,47.918c3.617,0.541,5.751,3.419,4.307,5.972
		c-0.924,1.633-2.254,2.646-4.359,1.764c-1.221-0.514-2.535-0.852-3.84-1.117c-3.1-0.632-4.176-3.402-2.207-6.38
		c0.396,2.265,1.9,3.117,3.846,3.416c1.027,0.158,2.102,0.139,2.715-0.82c0.66-1.036,0.457-2.077-0.501-2.91L84.45,47.918z"/>
	<path fill-rule="evenodd" clip-rule="evenodd" d="M38.319,74.397c1.556,2.355,3.424,3.243,5.767,2.745
		c1.428-0.304,1.44-1.626,1.552-2.835c2.341-0.362,3.484,0.97,4.015,2.888c0.375,1.334-1.862,4.11-3.324,4.386
		C41.56,82.48,37.392,79.056,38.319,74.397z"/>
	<path fill-rule="evenodd" clip-rule="evenodd" d="M66.606,83.492c0.967,2.332,2.729,3.392,5.143,3.216
		c1.653-0.12,1.999-1.509,2.261-2.881c2.437,0.14,3.632,1.419,3.61,3.698c-0.022,1.961-1.69,3.418-3.914,3.462
		c-1.078,0.021-2.201-0.099-3.23-0.404C66.716,89.46,66.097,88.338,66.606,83.492z"/>
	<path fill-rule="evenodd" clip-rule="evenodd" d="M53.641,98.015c1.087,0.212,2.082,0.203,2.869,0.599
		c1.916,0.966,1.67,4.046-0.337,5.229c-2.819,1.662-9.085-0.295-10.446-3.282c-0.472-1.022-0.631-2.062,0.192-3.052
		C48.455,100.712,52.66,101.358,53.641,98.015z"/>
	<path fill-rule="evenodd" clip-rule="evenodd" d="M70.695,23.592c2.308,2.549,4.812,3.531,6.415,2.591
		c1.586-0.929,0.999-2.188-0.074-3.831c2.076,0.82,3.538,1.388,4.607,2.625c1.184,1.378,1.365,2.89,0.219,4.367
		c-1.11,1.439-2.429,1.49-3.969,0.513c-1.427-0.906-3.061-1.37-4.73-1.666C70.334,27.69,69.776,26.701,70.695,23.592z"/>
	<path fill-rule="evenodd" clip-rule="evenodd" d="M37.755,82.977c1.149,1.647,2.683,2.643,4.791,2.337
		c1.472-0.216,1.723-1.377,1.774-2.554c2.146-0.401,3.168,0.804,3.768,2.374c0.803,2.133-1.221,3.116-2.322,3.997
		c-2.275,1.828-8.38-1.312-8.689-4.245C37.005,84.215,37,83.528,37.755,82.977z"/>
	<path fill-rule="evenodd" clip-rule="evenodd" d="M62.595,91.386c2.902,2.825,5.865,3.728,7.13-0.005
		c2.188,0.073,3.578,1.036,3.335,3.392c-0.229,2.233-1.771,3.096-3.862,3.154C64.706,98.058,62.167,95.527,62.595,91.386z"/>
	<path fill-rule="evenodd" clip-rule="evenodd" d="M86.149,40.149c1.475,0.134,2.523,0.813,3.33,1.788
		c1.155,1.391,1.188,2.926,0.122,4.385c-0.963,1.326-2.239,1.608-3.759,0.932c-0.76-0.341-1.566-0.598-2.378-0.796
		c-3.542-0.875-3.962-1.456-3.647-5.619c1.523,1.806,3.027,3.481,5.52,2.525C86.909,42.758,86.352,41.37,86.149,40.149z"/>
	<path fill-rule="evenodd" clip-rule="evenodd" d="M54.364,32.346c1.301,2.203,3.064,3.176,5.352,2.409
		c1.847-0.613,1.08-2.064,0.562-3.368c1.378,0.028,2.247,0.763,3.132,1.524c1.16,1.009,2.029,2.215,1.227,3.718
		c-0.997,1.857-3.372,2.597-5.044,1.882c-1.077-0.458-2.172-0.875-3.29-1.226C53.913,36.534,53.32,35.267,54.364,32.346z"/>
	<path fill-rule="evenodd" clip-rule="evenodd" d="M58.656,98.322c3.679,2.359,4.856,2.277,6.482-0.38
		c1.874,0.288,3.693,0.607,3.375,3.241c-0.248,2.001-2.143,3.117-4.617,2.746C60.228,103.379,58.671,101.783,58.656,98.322z"/>
	<path fill-rule="evenodd" clip-rule="evenodd" d="M51.47,104.995c1.033,0.208,1.928,0.385,2.845,0.566
		c0.909,1.313,0.937,2.697-0.233,3.645c-2.202,1.788-4.69,1.074-6.904,0.03c-1.894-0.897-3.67-2.212-2.893-5.041
		c1.336,0.552,1.976,1.986,3.496,2.218C49.41,106.66,50.531,106.117,51.47,104.995z"/>
	<path fill-rule="evenodd" clip-rule="evenodd" d="M43.643,90.474c1.516,0.094,1.516,0.094,3.166,4.197
		c-2.253,2.479-4.297,2.8-7.279,1.027c-1.822-1.084-3.183-2.458-2.102-5.197c1.052,1.316,2.017,2.384,3.652,2.483
		C42.946,93.097,43.627,92.104,43.643,90.474z"/>
	<path fill-rule="evenodd" clip-rule="evenodd" d="M86.186,32.676c1.229,0.117,2.243,0.738,3.097,1.556
		c1.164,1.123,1.373,2.507,0.581,3.905c-0.772,1.353-1.903,1.634-3.436,1.083c-1.471-0.525-3.057-0.729-4.575-1.073
		c-0.168-0.901,0.236-1.548,0.502-2.221c4.169-0.44,4.169-0.44,3.881-3.292L86.186,32.676z"/>
	<path fill-rule="evenodd" clip-rule="evenodd" d="M59.001,26.265c1.179,1.978,2.807,2.747,4.797,2.285
		c1.795-0.415,0.919-2.006,1.003-3.206c1.478,0.462,2.636,1.207,3.592,2.599c-1.55,1.135-2.789,2.525-3.187,4.445
		C58.843,30.54,58.008,29.759,59.001,26.265z"/>
	<path fill-rule="evenodd" clip-rule="evenodd" d="M58.803,107.569c-0.414-0.451-0.955-0.522-1.528-0.503
		c-0.478-0.546-0.953-1.085-1.512-1.727c1.433-1.41,4.137,1.102,4.746-1.85c0.844,0.378,1.515,0.678,2.223,0.997
		C62.935,107.575,60.857,107.562,58.803,107.569z"/>
	<path fill-rule="evenodd" clip-rule="evenodd" d="M42.628,102.013c-0.359-0.598-0.973-0.452-1.512-0.51
		c-0.851-0.678-1.7-1.354-2.549-2.03c0.133-0.553,0.28-1.106,0.5-1.981c0.815,0.821,1.5,1.437,2.501,1.6
		c1.318,0.219,1.582-0.924,2.481-1.747c0.236,1.428,0.443,2.645,0.647,3.863C44.128,101.858,43.301,101.756,42.628,102.013z"/>
	<path fill-rule="evenodd" clip-rule="evenodd" d="M71.761,38.479c0.025-0.098,0.048-0.193,0.029-0.111
		c0.022-0.07-0.014,0.033-0.06,0.144L71.761,38.479z"/>
	<polygon fill-rule="evenodd" clip-rule="evenodd" points="86.235,32.634 86.128,32.702 86.186,32.682 	"/>
	<path fill-rule="evenodd" clip-rule="evenodd" d="M74.521,29.614c-0.038-0.021-0.076-0.036-0.112-0.057
		c0.016,0.004,0.04,0.004,0.061,0L74.521,29.614z"/>
	<polygon fill-rule="evenodd" clip-rule="evenodd" points="49.562,55.026 49.606,54.945 49.626,55.083 	"/>
	<path fill-rule="evenodd" clip-rule="evenodd" d="M84.41,47.842c0.038,0.014,0.077,0.026,0.12,0.038
		c-0.024-0.028-0.053-0.059-0.082-0.088c0.008,0.044,0.01,0.088,0.008,0.13L84.41,47.842z"/>
</g>
</svg>
