<?xml version="1.0" encoding="utf-8"?>
<!-- Generator: Adobe Illustrator 16.0.4, SVG Export Plug-In . SVG Version: 6.00 Build 0)  -->
<!DOCTYPE svg PUBLIC "-//W3C//DTD SVG 1.1//EN" "http://www.w3.org/Graphics/SVG/1.1/DTD/svg11.dtd">
<svg version="1.1" id="Layer_2002" xmlns="http://www.w3.org/2000/svg" xmlns:xlink="http://www.w3.org/1999/xlink" x="0px" y="0px"
	 width="128px" height="128px" viewBox="0 0 128 128" enable-background="new 0 0 128 128" xml:space="preserve">
<g>
	<g id="XNkFGj.tif_1_">
		<g>
			<path fill-rule="evenodd" clip-rule="evenodd" d="M71.197-0.238c0.89,0.782,1.911,1.463,2.361,2.621
				c1.396,3.582-0.042,5.666-3.922,5.68c-4.367,0.016-8.734,0.025-13.1-0.003c-3.765-0.024-5.008-1.987-3.626-5.583
				c0.451-1.175,1.443-1.86,2.254-2.715C60.509-0.238,65.853-0.238,71.197-0.238z"/>
			<path fill-rule="evenodd" clip-rule="evenodd" d="M83.988,94.615c0,7.479-0.135,14.961,0.051,22.434
				c0.108,4.377-1.766,7.19-5.722,8.599c-9.376,3.337-18.849,3.514-28.244,0.165c-4.809-1.715-6.091-3.884-6.097-9.118
				c-0.016-14.689,0.012-29.379-0.02-44.068c-0.006-2.705,0.477-5.292,1.269-7.857c5.223-16.919,8.673-34.122,8.429-51.935
				c-0.045-3.229,0.117-3.286,3.456-3.327C60.982,9.46,64.854,9.476,68.729,9.5c3.992,0.026,4.047,0.044,4.099,3.964
				c0.135,10.049,1.405,19.95,3.676,29.732c1.54,6.635,3.739,13.077,5.742,19.577c1.231,3.992,1.852,8.025,1.788,12.211
				c-0.098,6.544-0.026,13.087-0.026,19.631C84.001,94.615,83.995,94.615,83.988,94.615z M64.264,115.346c1.735,0,3.469,0,5.206,0
				c6.394,0,6.468,0.014,7.682-6.284c1.64-8.509,3.204-17.037,3.506-25.727c0.038-1.085,0.742-2.593-0.733-3.179
				c-1.681-0.667-1.143-1.844-1.058-2.979c0.297-3.989-0.414-5.129-4.217-6.441c-3.708-1.282-7.567-1.536-11.446-1.433
				c-3.609,0.096-7.193,0.462-10.592,1.806c-1.805,0.714-3.357,1.646-3.281,3.987c0.065,2.024,1.535,4.551-1.784,5.557
				c-0.14,0.042-0.041,1.002,0.008,1.528c0.954,10.229,2.683,20.343,4.401,30.464c0.333,1.963,1.114,2.78,3.103,2.719
				C58.124,115.271,61.195,115.339,64.264,115.346z"/>
		</g>
	</g>
	<g>
		<path d="M78.078,81.111c-1.279-0.96-1.18-2.02-0.884-3.152c0.727-2.795-0.64-4.389-3.011-5.27
			c-6.775-2.52-13.578-2.359-20.345,0.082c-2.179,0.784-3.101,2.331-2.805,4.672c0.129,1.022,0.64,2.37-0.291,3.045
			c-1.724,1.251-1.125,2.838-1.017,4.359c0.625,8.79,2.399,17.423,3.607,26.133c0.313,2.265,1.409,2.746,3.462,2.654
			c2.396-0.109,4.802-0.135,7.203-0.135c1.2,0,2.401,0,3.602,0c6.882,0,6.873,0.109,8.136-6.525
			c1.398-7.338,2.668-14.638,2.921-22.121C78.7,83.558,79.227,81.975,78.078,81.111z M74.406,99.835
			c-1.734,2.837-4.308,4.519-7.49,5.306c-1.36,0.337-2.723,0.114-4.078-0.102c-3.09-0.491-5.618-1.962-7.444-4.488
			c-2.575-3.563-3.334-7.493-1.877-11.701c0.762-2.199,2.2-3.896,4.425-4.794c1.651-0.668,3.316-0.519,4.97,0.009
			c0.319,0.103,0.657,0.169,0.936,0.378c0.11,0.082,0.237,0.132,0.316-0.034c0.077-0.157-0.038-0.232-0.157-0.293
			c-0.125-0.063-0.255-0.118-0.381-0.182c-0.436-0.22-0.547-0.535-0.342-1.053c0.377,0.649,1.041,0.589,1.628,0.723
			c0.106-0.612-0.288-1.182-0.967-1.375c-0.448-0.127-0.9-0.237-1.329-0.419c-0.277-0.118-0.523-0.278-0.717-0.51
			c-0.075-0.09-0.111-0.196-0.03-0.311c0.066-0.093,0.159-0.13,0.259-0.094c0.835,0.304,1.722,0.279,2.585,0.397
			c0.555,0.075,0.975,0.354,1.245,0.843c0.172,0.312,0.383,0.585,0.619,0.85c0.544,0.607,0.917,1.312,1.091,2.146
			c0.321-0.53,0.653-1.033,1.113-1.44c0.601-0.533,1.183-0.628,1.679-0.259c0.324,0.239,0.457,0.568,0.423,0.959
			c-0.033,0.378-0.359,0.445-0.633,0.534c-0.571,0.187-1.054,0.463-1.307,1.079c0.368-0.053,0.709-0.116,1.052-0.146
			c0.389-0.034,0.784-0.002,1.061,0.31c0.572,0.643,1.27,1.061,2.221,1.264c-0.945,0.433-1.76-0.158-2.662-0.051
			c0.693,0.551,1.396,0.946,2.062,1.395c2.238,1.507,3.474,3.57,3.352,6.303C75.951,96.8,75.299,98.375,74.406,99.835z"/>
	</g>
</g>
</svg>
