<?xml version="1.0" encoding="utf-8"?>
<!-- Generator: Adobe Illustrator 16.0.4, SVG Export Plug-In . SVG Version: 6.00 Build 0)  -->
<!DOCTYPE svg PUBLIC "-//W3C//DTD SVG 1.1//EN" "http://www.w3.org/Graphics/SVG/1.1/DTD/svg11.dtd">
<svg version="1.1" id="Layer_2005" xmlns="http://www.w3.org/2000/svg" xmlns:xlink="http://www.w3.org/1999/xlink" x="0px" y="0px"
	 width="128px" height="128px" viewBox="0 0 128 128" enable-background="new 0 0 128 128" xml:space="preserve">
<g>
	<g>
		<path fill-rule="evenodd" clip-rule="evenodd" d="M63.942,55.528c-6.176-0.203-11.985-1.647-16.507-6.102
			c-4.76-4.69-5.727-10.125-2.723-15.539c1.945-3.506,5.036-5.868,8.678-7.332c8.501-3.417,16.815-2.998,24.72,1.852
			c2.86,1.756,5.06,4.201,6.182,7.397c1.698,4.839,0.535,9.147-2.856,12.886c-3.019,3.327-6.907,5.139-11.205,6.139
			C68.174,55.308,66.079,55.599,63.942,55.528z M75.757,45.573c3.047,0.003,5.649-2.618,5.621-5.662
			c-0.028-2.974-2.608-5.561-5.562-5.575c-3.062-0.015-5.688,2.557-5.709,5.588C70.086,42.945,72.711,45.569,75.757,45.573z
			 M46.833,38.474c0.016,0.71,0.286,1.261,1.031,1.389c0.843,0.147,1.287-0.378,1.481-1.103c0.678-2.511,2.374-4.177,4.512-5.466
			c2.862-1.726,5.975-2.583,9.316-2.659c1.497-0.034,2.087-0.454,2.095-1.363c0.008-0.963-0.681-1.366-2.256-1.29
			c-1.53,0.075-3.057,0.262-4.537,0.638c-3.854,0.977-7.355,2.599-9.858,5.858C47.708,35.661,47.047,36.973,46.833,38.474z"/>
		<path fill-rule="evenodd" clip-rule="evenodd" d="M63.942,88.94c-6.176-0.203-11.985-1.646-16.507-6.103
			c-4.76-4.689-5.727-10.126-2.723-15.539c1.945-3.505,5.036-5.867,8.678-7.331c8.501-3.417,16.815-2.998,24.72,1.852
			c2.86,1.756,5.06,4.2,6.182,7.396c1.698,4.84,0.535,9.147-2.856,12.886c-3.019,3.328-6.907,5.14-11.205,6.14
			C68.174,88.719,66.079,89.011,63.942,88.94z M75.757,78.984c3.047,0.003,5.649-2.619,5.621-5.661
			c-0.028-2.975-2.608-5.562-5.562-5.575c-3.062-0.016-5.688,2.557-5.709,5.588C70.086,76.356,72.711,78.98,75.757,78.984z
			 M46.833,71.886c0.016,0.711,0.286,1.259,1.031,1.389c0.843,0.146,1.287-0.38,1.481-1.104c0.678-2.511,2.374-4.178,4.512-5.466
			c2.862-1.727,5.975-2.583,9.316-2.659c1.497-0.034,2.087-0.453,2.095-1.364c0.008-0.963-0.681-1.366-2.256-1.29
			c-1.53,0.075-3.057,0.262-4.537,0.638c-3.854,0.977-7.355,2.599-9.858,5.858C47.708,69.072,47.047,70.385,46.833,71.886z"/>
		<path fill-rule="evenodd" clip-rule="evenodd" d="M63.942,122.353c-6.176-0.204-11.985-1.648-16.507-6.102
			c-4.76-4.691-5.727-10.127-2.723-15.54c1.945-3.505,5.036-5.868,8.678-7.331c8.501-3.417,16.815-2.997,24.72,1.853
			c2.86,1.756,5.06,4.201,6.182,7.396c1.698,4.841,0.535,9.147-2.856,12.886c-3.019,3.327-6.907,5.139-11.205,6.14
			C68.174,122.132,66.079,122.423,63.942,122.353z M75.757,112.396c3.047,0.003,5.649-2.618,5.621-5.662
			c-0.028-2.974-2.608-5.561-5.562-5.574c-3.062-0.015-5.688,2.557-5.709,5.588C70.086,109.769,72.711,112.393,75.757,112.396z
			 M46.833,105.297c0.016,0.711,0.286,1.261,1.031,1.389c0.843,0.147,1.287-0.378,1.481-1.103c0.678-2.51,2.374-4.178,4.512-5.466
			c2.862-1.726,5.975-2.584,9.316-2.659c1.497-0.034,2.087-0.453,2.095-1.363c0.008-0.963-0.681-1.366-2.256-1.289
			c-1.53,0.074-3.057,0.262-4.537,0.638c-3.854,0.977-7.355,2.599-9.858,5.856C47.708,102.484,47.047,103.797,46.833,105.297z"/>
	</g>
	<g id="lYtQGh.tif_1_">
		<g>
			<path fill-rule="evenodd" clip-rule="evenodd" d="M64.198,0.308c6.957,0,13.916-0.061,20.874,0.019
				c5.738,0.065,8.192,2.848,6.667,8.403c-0.789,2.87,0.836,6.314-2.193,8.722c-1.057,0.839,0.074,1.954,0.939,2.673
				c6.346,5.279,6.442,11.745,3.778,18.886c-2.382,6.379-2.749,12.797,0.209,19.196c1.635,3.538,2.083,7.354,2.152,11.241
				c0.242,13.743-0.954,27.44-1.257,41.166c-0.048,2.176-0.423,4.395-0.988,6.502c-2.058,7.664-5.849,10.518-13.711,10.523
				c-11.72,0.011-23.441-0.142-35.155,0.071c-4.881,0.089-7.957-2.067-10.124-6.1c-1.669-3.105-2.677-6.398-2.793-9.942
				c-0.462-14.084-1.487-28.15-1.206-42.26c0.078-3.894,0.382-7.693,2.095-11.227c3.199-6.599,2.377-13.248-0.089-19.701
				c-2.802-7.337-2.162-13.568,4.359-18.58c0.708-0.545,1.842-1.538,0.987-2.145c-3.514-2.495-1.866-6.376-2.648-9.51
				c-1.32-5.281,1.167-7.858,6.679-7.919C49.914,0.249,57.057,0.309,64.198,0.308z M64.27,64.66c-7.688,0-15.374-0.031-23.062,0.012
				c-4.89,0.026-5.024,0.077-5.037,4.771c-0.038,13.176-0.003,26.351,1.014,39.505c0.21,2.724,1.021,3.854,3.891,3.834
				c15.374-0.1,30.749-0.081,46.124-0.021c2.485,0.011,3.588-0.713,3.643-3.416c0.271-13.535,1.398-27.044,1.122-40.602
				c-0.063-3.044-0.969-4.196-4.084-4.133C80.013,64.77,72.141,64.664,64.27,64.66z M63.825,61.997
				c7.879,0,15.757-0.095,23.633,0.047c3.039,0.056,3.446-0.931,2.258-3.487c-2.241-4.824-2.388-9.839-1.407-15.043
				c0.619-3.276,1.967-6.278,2.815-9.452c1.698-6.353-1.676-11.005-8.198-11.049c-12.641-0.086-25.282-0.07-37.922-0.007
				c-5.636,0.028-8.48,2.946-8.638,8.35c-0.067,2.307,0.958,4.242,1.648,6.315c2.244,6.751,2.977,13.53,0.412,20.417
				c-1.391,3.733-1.279,3.858,2.866,3.893C48.803,62.044,56.314,61.998,63.825,61.997z M63.913,115.407
				c-6.931,0-13.861-0.044-20.792,0.033c-1.563,0.019-3.885-0.887-4.549,0.587c-0.869,1.927,0.988,3.68,2.178,5.272
				c1.333,1.78,3.226,2.152,5.34,2.146c11.855-0.038,23.709-0.09,35.564,0.016c3.644,0.033,5.69-1.74,7.191-4.797
				c1.14-2.32,0.803-3.3-1.954-3.274C79.233,115.461,71.573,115.415,63.913,115.407z M63.691,9.351c6.936,0,13.87,0.01,20.806-0.006
				c1.84-0.005,3.838,0.121,3.981-2.543c0.141-2.615-1.669-2.924-3.624-2.926c-13.869-0.014-27.739-0.011-41.608,0
				c-1.944,0.001-3.698,0.241-3.654,2.88c0.044,2.778,2.017,2.591,3.843,2.597C50.187,9.372,56.94,9.36,63.691,9.351z
				 M63.588,14.679c7.307,0,14.613,0.005,21.921-0.01c0.531-0.001,1.063-0.142,1.597-0.217c-0.358-0.802-1.103-0.501-1.664-0.502
				c-14.249-0.024-28.499-0.022-42.747-0.008c-0.528,0.001-1.056,0.17-1.584,0.263c0.361,0.81,1.101,0.45,1.651,0.453
				C49.703,14.69,56.646,14.679,63.588,14.679z"/>
		</g>
	</g>
</g>
</svg>
