<?xml version="1.0" encoding="utf-8"?>
<!-- Generator: Adobe Illustrator 16.0.4, SVG Export Plug-In . SVG Version: 6.00 Build 0)  -->
<!DOCTYPE svg PUBLIC "-//W3C//DTD SVG 1.1//EN" "http://www.w3.org/Graphics/SVG/1.1/DTD/svg11.dtd">
<svg version="1.1" id="Layer_2102" xmlns="http://www.w3.org/2000/svg" xmlns:xlink="http://www.w3.org/1999/xlink" x="0px" y="0px"
	 width="128px" height="128px" viewBox="0 0 128 128" enable-background="new 0 0 128 128" xml:space="preserve">
<g>
	<path fill-rule="evenodd" clip-rule="evenodd" d="M101.782,18.738c0.042,0.14,0.229,0.342,0.299,0.481
		c0.28,0.575,0.658,1.037,1.174,1.406c0.511,0.365,0.649,0.818,0.853,1.411c0.497,1.447,0.88,2.932,1.182,4.433
		c0.597,2.983,0.872,6.017,1.155,9.042c0.073,0.786,0.147,1.571,0.228,2.356c1.691,16.491,1.806,33.041,1.248,49.597
		c-0.248,7.357-1.006,14.669-2.166,21.936c-0.9,5.648-3.867,9.807-9.012,12.386c-5.16,2.585-10.692,3.903-16.353,4.707
		c-13.777,1.951-27.486,1.764-41.06-1.604c-2.861-0.711-5.615-1.725-8.279-3.002c-5.017-2.403-8.017-6.354-8.85-11.815
		c-0.637-4.176-1.162-8.382-1.452-12.593c-1.521-22.058-1.303-44.097,1.013-66.096c0.346-3.282,0.808-6.559,1.959-9.701
		c0.248-0.675,0.528-1.414,1.023-1.952c0.27-0.293,0.742-0.278,1.025-0.543c0.389-0.365,0.063-0.525-0.167-0.87
		c-0.611-0.917-0.833-2.174-0.916-3.253c-0.171-2.268,0.355-4.518,0.271-6.786c-0.055-1.469,1.598-1.875,2.716-2.412
		c5.513-2.65,11.428-3.966,17.44-4.603c13.887-1.469,27.773-1.439,41.596,0.831c4.173,0.685,8.188,1.891,11.977,3.829
		c1.847,0.945,2.758,2.311,2.548,4.394c-0.161,1.59-0.08,3.175-0.08,4.766c0,0.389,0.006,0.779,0,1.167
		c-0.003,0.204,0.003,0.35,0.043,0.542c0.094,0.046,0.148,0.121,0.162,0.228c-0.008,0.136-0.014,0.273-0.021,0.41
		c0.058,0.271,0.353,0.488,0.41,0.758C101.791,18.376,101.727,18.543,101.782,18.738z M24.691,70.051
		c0.296,11.342,0.328,22.906,1.699,34.424c0.77,6.463,3.828,10.963,9.915,13.304c1.879,0.724,3.797,1.391,5.747,1.891
		c9.332,2.38,18.845,3.128,28.409,2.397c7.313-0.559,14.61-1.531,21.452-4.521c5.285-2.307,8.463-6.136,9.303-11.959
		c3.251-22.504,2.615-45.028,0.423-67.561c-0.283-2.915-0.683-5.839-1.32-8.693c-0.639-2.86-1.158-3.186-3.781-2.348
		c-11.021,3.526-22.431,3.717-33.794,3.724c-9.354,0.007-18.72-0.673-27.819-3.234c-6.973-1.963-6.98-1.963-8.155,4.987
		c-0.183,1.084-0.269,2.186-0.406,3.278C24.939,47.061,25.006,58.456,24.691,70.051z M63.205,15.197
		c6.258,0.246,12.458-0.554,18.654-1.152c3.622-0.351,7.191-1.343,10.751-2.185c1.178-0.278,3.1-0.474,3.112-1.727
		c0.017-1.726-2.104-1.63-3.361-2.077c-1.714-0.61-3.551-0.876-5.33-1.306C82.006,5.539,76.85,5.429,71.741,5.102
		C59.44,4.311,47.194,4.79,35.17,7.827c-1.657,0.419-4.437,0.402-4.357,2.277c0.065,1.525,2.875,1.677,4.597,2.14
		C44.52,14.696,53.861,14.972,63.205,15.197z M86.117,18.194l0.352,0.171l0.08-0.196L86.117,18.194z"/>
	<path fill-rule="evenodd" clip-rule="evenodd" d="M99.315,89.73c-0.13,4.407-0.447,8.786-0.969,13.171
		c-0.644,5.428-3.419,9.132-8.155,11.563c-5.313,2.729-11.076,3.931-16.918,4.561c-9.549,1.03-19.062,0.694-28.416-1.792
		c-3.207-0.853-6.327-1.944-9.128-3.748c-3.579-2.309-5.755-5.62-6.33-9.844c-0.992-7.288-1.128-14.632-1.101-21.975
		c0.01-2.625,0.536-3.042,2.915-1.976c8.74,3.915,18.035,4.793,27.416,5.065c8.068,0.235,16.138,0.255,24.191-0.712
		c4.963-0.599,9.813-1.372,14.16-4.024c1.762-1.077,2.311-0.195,2.327,1.449C99.336,84.223,99.315,86.978,99.315,89.73z
		 M55.968,105.55c0.105-3.356-2.458-6.057-5.762-6.07c-3.21-0.014-6.073,2.816-6.023,5.952c0.046,2.925,2.664,5.641,5.617,5.828
		C53.006,111.463,55.865,108.816,55.968,105.55z M78.04,108.181c-0.06-2.595-2.078-4.464-4.667-4.324
		c-2.563,0.141-4.364,2.227-4.168,4.831c0.18,2.389,1.937,3.991,4.392,4.003C76.263,112.704,78.103,110.835,78.04,108.181z
		 M67.779,93.486c0.008-2.25-1.871-4.123-4.205-4.196c-2.442-0.075-4.23,1.556-4.341,3.957c-0.117,2.542,1.949,4.705,4.376,4.585
		C65.787,97.723,67.771,95.655,67.779,93.486z"/>
	<path fill-rule="evenodd" clip-rule="evenodd" d="M75.582,62.418c-0.006,3.01-2.554,5.522-5.644,5.564
		c-3.195,0.045-5.622-2.248-5.711-5.401c-0.094-3.294,2.619-6.06,5.822-5.932C72.981,56.764,75.589,59.484,75.582,62.418z"/>
	<path fill-rule="evenodd" clip-rule="evenodd" d="M59.749,46.153c-0.203,1.725-2.464,0.73-2.794,2.023
		c-0.26,1.02,1.352,1.732,0.841,2.958c-0.053,0.125-0.338,0.294-0.395,0.257c-2.054-1.332-3.546-1.506-3.982,1.553
		c-0.074,0.517-0.954,0-1.091-0.465c-0.58-1.943-1.376-2.796-3.333-1.225c-0.686,0.553-1.541-0.093-0.994-0.934
		c1.168-1.802,1.163-2.695-1.219-3.292c-1.159-0.29-0.892-1.45,0.382-1.647c1.674-0.259,2.365-0.772,1.16-2.392
		c-0.28-0.377-0.504-1.085-0.334-1.44c0.262-0.553,0.924-0.422,1.367-0.038c1.915,1.666,2.262,0.12,2.909-1.277
		c0.561-1.208,1.388-1.106,1.543,0.254c0.301,2.627,1.553,1.69,2.926,0.969c0.857-0.452,1.551,0.047,1.091,0.898
		c-0.894,1.654-1.68,2.991,1.191,3.14C59.269,45.509,59.501,45.92,59.749,46.153z"/>
	<path fill-rule="evenodd" clip-rule="evenodd" d="M58.367,72.957c2.577-0.049,4.907,2.138,5.044,4.733
		c0.147,2.784-2.324,5.28-5.124,5.176c-2.668-0.099-4.739-2.289-4.709-4.984C53.609,75.189,55.731,73.009,58.367,72.957z"/>
</g>
</svg>
