<?xml version="1.0" encoding="utf-8"?>
<!-- Generator: Adobe Illustrator 16.0.4, SVG Export Plug-In . SVG Version: 6.00 Build 0)  -->
<!DOCTYPE svg PUBLIC "-//W3C//DTD SVG 1.1//EN" "http://www.w3.org/Graphics/SVG/1.1/DTD/svg11.dtd">
<svg version="1.1" id="Layer_2106" xmlns="http://www.w3.org/2000/svg" xmlns:xlink="http://www.w3.org/1999/xlink" x="0px" y="0px"
	 width="128px" height="128px" viewBox="0 0 128 128" enable-background="new 0 0 128 128" xml:space="preserve">
<g>
	<path fill-rule="evenodd" clip-rule="evenodd" d="M12.074,36.077c4.605,2.318,10.32,4.147,15.625-3.141
		c1.411-1.939,6.805-1.273,10.373-1.295c16.956-0.103,33.916-0.191,50.868,0.078c5.313,0.084,10.899-1.265,15.141,4.805
		c3.479,4.981,8.352-0.274,12.607-0.895c2.563-0.374,5.155-0.984,7.162,1.252c2.698,3.001,1.278,6.207-0.931,8.175
		c-6.686,5.959-4.425,10.743,0.555,16.459c5.539,6.359,5.884,13.933,2.379,21.66c-6.936,15.294-17.987,27.37-30.057,38.665
		c-3.298,3.087-7.347,3.213-11.527,3.196c-13.36-0.047-26.721-0.024-40.082,0.049c-4.731,0.024-9.152-0.496-12.86-3.955
		C19.987,110.553,9.767,99.145,2.859,85.053C-1.38,76.409-1.497,67.844,4.99,60.682c5.229-5.774,5.27-10.064-0.216-15.283
		c-2.178-2.073-3.792-5.143-1.431-8.241C5.126,34.82,7.764,34.952,12.074,36.077z M38.879,109.905
		c0.923-6.005-2.484-10.927-4.472-16.048c-4.833-12.442-6.852-24.607-0.116-36.999c0.961-1.769,1.551-3.817,1.917-5.807
		c0.3-1.643-0.636-3.031-2.514-2.473c-6.171,1.831-16.24,21.861-13.82,28.713c4.24,11.999,9.655,23.471,19.27,32.351"/>
	<path fill-rule="evenodd" clip-rule="evenodd" d="M62.274,30.464c-8.229,0-16.458,0-24.688,0.001c-2.09,0-4.801-0.102-5.445-1.968
		c-0.938-2.717,1.148-4.859,3.566-6.059c3.199-1.59,6.428-3.346,9.852-4.213c5.312-1.345,10.674-1.073,9.345-9.785
		c-0.694-4.555,5.193-5.823,9.42-5.47c4.239,0.354,9.126,2.066,7.784,7.305c-1.679,6.556,1.968,6.283,6.176,7.092
		c5.543,1.065,11.105,2.574,15.312,6.716c0.957,0.941,1.776,2.868,1.46,4.003c-0.279,0.995-2.236,2.126-3.469,2.149
		c-9.768,0.173-19.54,0.096-29.311,0.096C62.274,30.376,62.274,30.42,62.274,30.464z"/>
</g>
</svg>
