<?xml version="1.0" encoding="utf-8"?>
<!-- Generator: Adobe Illustrator 16.0.4, SVG Export Plug-In . SVG Version: 6.00 Build 0)  -->
<!DOCTYPE svg PUBLIC "-//W3C//DTD SVG 1.1//EN" "http://www.w3.org/Graphics/SVG/1.1/DTD/svg11.dtd">
<svg version="1.1" id="Layer_2203" xmlns="http://www.w3.org/2000/svg" xmlns:xlink="http://www.w3.org/1999/xlink" x="0px" y="0px"
	 width="128px" height="128px" viewBox="0 0 128 128" enable-background="new 0 0 128 128" xml:space="preserve">
<path fill-rule="evenodd" clip-rule="evenodd" d="M45.725,94.186c0.001-7.987-0.013-15.973,0.007-23.959
	c0.011-4.642,0.116-9.285,1.515-13.768c1.017-3.259,2.731-6.215,4.304-9.221c0.916-1.751,1.336-3.541,1.281-5.484
	c-0.086-3.039-0.075-6.068,0.228-9.105c0.429-4.306,1.171-8.564,1.768-12.844c0.227-1.631,0.449-3.262,0.672-4.894
	c0.042-0.308,0.066-0.621-0.071-0.912c-0.765-1.617-0.538-3.206,0.113-4.789c0.281-0.683,0.238-1.198-0.479-1.685
	c-0.842-0.571-1.089-1.479-0.711-2.463c0.207-0.537,0.292-1.083,0.373-1.646c0.27-1.896,1.483-3.095,3.421-3.128
	c3.915-0.068,7.831-0.031,11.747-0.005c1.146,0.007,2.136,0.519,2.766,1.455c0.854,1.272,0.841,2.833,1.114,4.281
	c0.108,0.577-0.282,1.239-0.855,1.555c-0.727,0.401-0.679,0.953-0.448,1.565c0.616,1.643,0.797,3.249,0.115,4.958
	c-0.363,0.91,0.073,1.934,0.202,2.89c0.586,4.329,1.262,8.645,1.862,12.972c0.477,3.422,0.729,6.865,0.548,10.321
	c-0.144,2.783,0.277,5.355,1.688,7.862c1.734,3.083,3.444,6.213,4.284,9.722c0.735,3.076,1.045,6.204,1.06,9.341
	c0.051,10.51-0.013,21.021-0.01,31.53c0.002,7.365,0.039,14.731,0.063,22.098c0.004,1.237,0.004,2.468-0.339,3.677
	c-0.611,2.15-1.897,3.22-4.136,3.225c-9.171,0.018-18.342,0.018-27.513-0.005c-2.385-0.005-3.708-1.124-4.282-3.431
	c-0.239-0.958-0.291-1.928-0.29-2.911C45.727,112.322,45.724,103.254,45.725,94.186z M64.135,105.742c0,0.014,0,0.029,0,0.044
	c-4.325,0-8.651,0.016-12.976-0.013c-0.908-0.006-1.408,0.136-1.396,1.244c0.052,5.098,0.033,10.194,0.018,15.292
	c-0.003,0.932,0.262,1.393,1.325,1.39c8.6-0.035,17.197-0.029,25.797-0.006c0.904,0.002,1.309-0.261,1.311-1.218
	c0.014-5.147,0.051-10.295,0.113-15.443c0.013-1.007-0.369-1.322-1.373-1.312C72.681,105.769,68.407,105.742,64.135,105.742z
	 M63.978,69.053c4.275,0,8.549,0.008,12.822-0.006c1.373-0.004,1.375-0.03,1.396-1.373c0.083-5.667-1.003-11.038-3.923-15.976
	c-0.445-0.754-0.672-0.908-1.438-0.338c-5.481,4.078-12.445,3.899-17.608-0.445c-0.619-0.52-0.787-0.464-1.185,0.203
	c-3.012,5.046-4.346,10.514-4.241,16.363c0.028,1.544,0.005,1.565,1.512,1.569C55.534,69.062,59.756,69.055,63.978,69.053z
	 M63.88,37.058c1.905,0,3.811,0.006,5.717-0.002c1.583-0.007,1.577-0.014,1.516-1.661c-0.202-5.468-1.355-10.814-2.068-16.218
	c-0.256-1.938-0.94-3.937-0.424-5.809c0.462-1.67,0.027-3.012-0.445-4.462C68,8.368,67.785,7.841,67.639,7.294
	c-0.275-1.034-0.098-1.938,0.859-2.572c0.154-0.103,0.454-0.117,0.386-0.374c-0.066-0.259-0.342-0.141-0.525-0.142
	c-1.958-0.008-3.917-0.008-5.874-0.009c-0.979,0-1.958,0-2.937,0.007c-0.145,0.001-0.35-0.009-0.423,0.076
	c-0.147,0.168,0.048,0.255,0.176,0.328c1.442,0.817,1.362,2.012,0.85,3.335c-0.204,0.527-0.324,1.085-0.523,1.614
	c-0.459,1.219-0.854,2.415-0.199,3.713c0.254,0.505,0.122,1.106,0.068,1.676c-0.338,3.59-1,7.133-1.5,10.7
	c-0.457,3.262-0.965,6.518-1.111,9.814c-0.071,1.593-0.068,1.595,1.585,1.596C60.274,37.058,62.077,37.057,63.88,37.058z"/>
</svg>
