<?xml version="1.0" encoding="utf-8"?>
<!-- Generator: Adobe Illustrator 16.0.4, SVG Export Plug-In . SVG Version: 6.00 Build 0)  -->
<!DOCTYPE svg PUBLIC "-//W3C//DTD SVG 1.1//EN" "http://www.w3.org/Graphics/SVG/1.1/DTD/svg11.dtd">
<svg version="1.1" id="Layer_2204" xmlns="http://www.w3.org/2000/svg" xmlns:xlink="http://www.w3.org/1999/xlink" x="0px" y="0px"
	 width="128px" height="128px" viewBox="0 0 128 128" enable-background="new 0 0 128 128" xml:space="preserve">
<g>
	<path fill-rule="evenodd" clip-rule="evenodd" d="M45.807,86.995c0.001-11.337,0.078-22.675-0.024-34.011
		c-0.074-8.187,3.708-13.985,10.66-17.868c1.291-0.722,1.752-1.455,1.659-2.856c-0.11-1.664,0.005-3.342-0.034-5.013
		c-0.022-0.962,0.24-1.505,1.333-1.468c0.932,0.032,1.77,0.007,1.762,1.302c-0.021,2.906-0.032,5.813,0.011,8.72
		c0.017,1.132-0.722,1.472-1.562,1.796c-2.843,1.096-5.212,2.851-7.144,5.197c-2.246,2.726-3.466,5.809-3.461,9.394
		c0.026,17.37,0.01,34.738,0.017,52.106c0.001,2.288,0.02,2.304,2.239,2.307c6.976,0.008,13.953,0.01,20.93,0
		c2.115-0.004,2.141-0.026,2.142-2.203c0.01-12.572,0.012-25.145,0.005-37.717c-0.001-2.211-0.024-2.221-2.345-2.225
		c-5.74-0.008-11.481-0.002-17.223-0.01c-2.328-0.002-2.333-0.01-2.338-2.43c-0.005-2.906,0.062-5.815-0.014-8.72
		c-0.154-5.869,2.715-9.831,7.848-12.184c4.767-2.186,4.333-0.953,4.35-6.819c0.006-2.252,0.039-4.506-0.015-6.758
		c-0.026-1.125,0.2-1.68,1.529-1.721c3.806-0.117,3.962-0.176,3.762,3.716c-0.159,3.126,0.587,5.071,3.588,6.882
		c5.821,3.512,8.747,9.072,8.736,16.061c-0.036,23.328-0.015,46.656-0.015,69.984c0,0.508,0.023,1.02-0.012,1.525
		c-0.155,2.241-1.5,3.631-3.767,3.682c-3.342,0.074-6.686,0.031-10.028,0.032c-5.959,0.003-11.918,0.015-17.877-0.005
		c-3.515-0.012-4.703-1.194-4.708-4.723C45.796,110.978,45.806,98.986,45.807,86.995z"/>
	<path fill-rule="evenodd" clip-rule="evenodd" d="M58.074,15.69c0.001-1.232,0.008-2.465-0.001-3.697
		c-0.008-0.998-0.223-1.879-0.64-2.859c-1.01-2.376-0.7-4.957-0.2-7.45c0.156-0.781,0.869-1.146,1.644-1.208
		c3.327-0.264,6.662-0.215,9.988-0.029c1.308,0.073,2.185,0.983,2.149,2.312c-0.062,2.405,0.738,4.916-0.848,7.178
		c-0.285,0.407-0.164,1.124-0.167,1.698c-0.015,2.827-0.051,5.654,0.013,8.479c0.027,1.251-0.296,1.885-1.685,1.854
		c-2.896-0.064-5.794-0.056-8.688-0.003c-1.268,0.023-1.629-0.545-1.581-1.711C58.122,18.736,58.074,17.212,58.074,15.69z"/>
</g>
</svg>
