<?xml version="1.0" encoding="utf-8"?>
<!-- Generator: Adobe Illustrator 16.0.4, SVG Export Plug-In . SVG Version: 6.00 Build 0)  -->
<!DOCTYPE svg PUBLIC "-//W3C//DTD SVG 1.1//EN" "http://www.w3.org/Graphics/SVG/1.1/DTD/svg11.dtd">
<svg version="1.1" id="Layer_2205" xmlns="http://www.w3.org/2000/svg" xmlns:xlink="http://www.w3.org/1999/xlink" x="0px" y="0px"
	 width="128px" height="128px" viewBox="0 0 128 128" enable-background="new 0 0 128 128" xml:space="preserve">
<path fill-rule="evenodd" clip-rule="evenodd" d="M88.128,86.498c0,11.148,0.007,22.297-0.003,33.444
	c-0.005,4.933-2.921,7.979-7.659,7.984c-10.846,0.015-21.689-0.01-32.534,0.017c-2.306,0.006-4.34-0.573-5.991-2.237
	c-1.472-1.485-2.035-3.307-2.036-5.371c0-8.796,0.066-17.594,0.028-26.389c-0.053-12.514,0.012-25.025-0.063-37.539
	c-0.011-1.899,0.076-3.797,0.419-5.663c0.912-4.958,3.596-8.783,7.695-11.63c1.804-1.252,3.674-2.413,5.538-3.577
	c1.412-0.882,2.039-2.05,2.014-3.771c-0.08-5.384,0.4-10.816-0.172-16.14c-0.42-3.903-0.69-7.772-0.704-11.678
	c-0.011-3.247,0.595-3.857,3.804-3.87c3.792-0.016,7.584-0.037,11.376-0.005c2.878,0.024,3.604,0.785,3.618,3.676
	c0.014,2.654,0.496,5.43-0.108,7.94c-1.537,6.385-0.312,12.806-0.832,19.178c-0.182,2.221,0.72,3.516,2.532,4.575
	c2.09,1.221,4.146,2.516,6.024,4.071c4.465,3.698,6.91,8.432,6.957,14.221c0.091,10.92,0.027,21.842,0.027,32.764
	C88.082,86.498,88.105,86.498,88.128,86.498z M44.683,86.521c0,10.916-0.006,21.832,0.003,32.748
	c0.004,3.428,0.578,3.998,3.929,4.007c2.957,0.008,5.913,0.002,8.871,0.002c7.429-0.001,14.859,0.009,22.289-0.006
	c2.798-0.006,3.528-0.719,3.558-3.455c0.032-3.108,0.023-6.217,0.023-9.325c-0.001-2.753-0.007-2.754-2.721-2.755
	c-9.855-0.003-19.711,0.003-29.567-0.011c-2.303-0.004-2.324-0.033-2.325-2.191c-0.007-13.949-0.007-27.898,0-41.847
	c0.001-2.209,0.021-2.23,2.274-2.233c9.021-0.009,18.043,0.012,27.064-0.019c1.651-0.006,3.757,0.704,4.839-0.327
	c1.196-1.14,0.317-3.303,0.429-5.015c0.446-6.842-2.538-11.797-8.375-15.202c-1.634-0.953-3.259-1.936-4.716-3.162
	c-1.596-1.34-2.526-2.97-2.42-5.131c0.068-1.362-0.025-2.73,0.027-4.093c0.039-1.025-0.25-1.579-1.399-1.491
	c-1.951,0.149-4.335-0.745-5.745,0.359c-1.301,1.02-0.371,3.418-0.432,5.203c-0.081,2.35-0.93,4.242-2.716,5.761
	c-1.454,1.237-3.072,2.228-4.719,3.151c-5.708,3.197-8.343,7.955-8.22,14.557C44.821,66.2,44.682,76.362,44.683,86.521z"/>
</svg>
