<?xml version="1.0" encoding="utf-8"?>
<!-- Generator: Adobe Illustrator 16.0.4, SVG Export Plug-In . SVG Version: 6.00 Build 0)  -->
<!DOCTYPE svg PUBLIC "-//W3C//DTD SVG 1.1//EN" "http://www.w3.org/Graphics/SVG/1.1/DTD/svg11.dtd">
<svg version="1.1" id="Layer_2207" xmlns="http://www.w3.org/2000/svg" xmlns:xlink="http://www.w3.org/1999/xlink" x="0px" y="0px"
	 width="128px" height="128px" viewBox="0 0 128 128" enable-background="new 0 0 128 128" xml:space="preserve">
<g>
	<path d="M74.996,38.029c-0.781-0.591-1.388-1.419-2.047-2.166c-1.213-1.376-1.76-2.986-1.823-4.829
		c-0.198-5.738-0.501-11.475-0.302-17.216c0.048-1.369-0.61-2.665-0.163-4.062c0.798-2.484,0.299-5.001,0.008-7.502
		c-0.156-1.339-0.937-2.057-2.307-2.06c-2.682-0.006-5.365-0.013-8.047,0.008c-1.362,0.01-2.095,0.714-2.245,2.093
		c-0.288,2.65-0.956,5.297,0.074,7.932c0.15,0.386,0.097,0.763-0.066,1.114c-0.576,1.237-0.428,2.552-0.431,3.847
		c-0.011,5.058-0.026,10.116-0.006,15.174c0.01,2.518-0.887,4.628-2.668,6.382c-0.928,0.914-1.826,1.862-2.804,2.721
		c-1.653,1.45-2.833,3.223-3.643,5.233c-1.471,3.65-2.392,7.443-2.361,11.391c0.096,12.486,0.276,24.971,0.386,37.457
		c0.069,7.816-0.004,15.635,0.138,23.449c0.067,3.665,0.229,7.295,3.151,10.133c0.136,0.132,0.313,0.371,0.33,0.371h28.21
		c0.103,0,0.334-0.26,0.485-0.4c1.852-1.714,2.692-3.893,2.842-6.298c0.156-2.517,0.421-4.999,0.423-7.534
		c0.009-15.02,0.136-30.026,0.131-45.047c-0.001-5.194,0.497-10.411-0.078-15.574C81.554,46.996,79.855,41.703,74.996,38.029z
		 M75.5,103.5h-24v-47h24V103.5z"/>
</g>
</svg>
