<?xml version="1.0" encoding="utf-8"?>
<!-- Generator: Adobe Illustrator 16.0.4, SVG Export Plug-In . SVG Version: 6.00 Build 0)  -->
<!DOCTYPE svg PUBLIC "-//W3C//DTD SVG 1.1//EN" "http://www.w3.org/Graphics/SVG/1.1/DTD/svg11.dtd">
<svg version="1.1" id="Layer_2209" xmlns="http://www.w3.org/2000/svg" xmlns:xlink="http://www.w3.org/1999/xlink" x="0px" y="0px"
	 width="128px" height="128px" viewBox="0 0 128 128" enable-background="new 0 0 128 128" xml:space="preserve">
<g>
	<g>
		<path fill-rule="evenodd" clip-rule="evenodd" d="M64.908,127.721c-4.308,0-7.624-0.021-10.938,0.005
			c-6.672,0.052-13.192-0.952-19.593-2.785c-2.493-0.715-4.872-1.723-7.094-3.061c-5.115-3.078-8.054-7.4-8.249-13.574
			c-0.175-5.544,0.832-10.604,4.547-14.897c1.665-1.925,3.646-3.493,5.699-4.976c2.368-1.709,4.75-3.398,7.113-5.114
			c0.544-0.396,1.056-0.84,1.543-1.304c0.313-0.298,0.866-0.559,0.76-1.023c-0.085-0.371-0.68-0.224-1.028-0.389
			c-1.165-0.553-1.818-1.818-1.601-3.4c0.145-1.054,0.355-2.105,0.761-3.1c0.312-0.764,0.228-1.363-0.491-1.909
			c-5.609-4.265-8.532-10.294-10.833-16.703c-1.471-4.098-1.874-8.324-0.946-12.597c1.287-5.932,6.336-11.4,12.592-11.994
			c3.321-0.315,6.458,0.546,9.534,1.666c2.063,0.75,4,1.777,5.87,2.919c1.667,1.019,3.462,1.566,5.403,1.698
			c0.899,0.062,1.378-0.178,1.268-1.21c-0.448-4.181-0.7-8.385-1.528-12.522c-0.188-0.935-0.654-1.567-1.353-2.214
			c-3.422-3.167-4.934-7.046-3.852-11.689c1.062-4.552,3.97-7.479,8.404-8.805c5.081-1.519,10.551,0.744,13.377,5.39
			c2.738,4.505,2.184,10.492-1.715,14.272c-1.598,1.55-2.307,3.208-2.555,5.246c-0.305,2.506-0.85,4.979-0.932,7.514
			c-0.044,1.34-0.078,1.351,1.211,0.778c3.588-1.593,7.069-3.437,10.79-4.725c1.64-0.567,3.259-1.253,5.052-1.193
			c0.623,0.021,1.229,0.069,1.785,0.398c0.995,0.588,1.247,1.568,1.296,2.592c0.04,0.832-0.509,1.405-1.276,1.579
			c-4.699,1.062-7.197,4.461-9.168,8.473c-1.799,3.66-3.042,7.479-3.461,11.543c-0.314,3.037,0.356,5.912,1.521,8.697
			c2.879,6.887,6.696,13.208,11.458,18.958c1.854,2.238,4.233,3.841,6.567,5.5c2.745,1.951,5.56,3.805,8.022,6.134
			c5.175,4.892,6.65,11.021,5.953,17.834c-0.67,6.551-4.689,10.594-10.347,13.295c-4.607,2.199-9.55,3.174-14.552,3.99
			C77.276,128.104,70.587,127.558,64.908,127.721z M48.88,41.266l-0.015,0.015c0.266-1.445,0.578-2.9,1.574-4.025
			c0.75-0.846,0.612-1.268-0.364-1.706c-2.457-1.103-4.907-2.236-7.55-2.814c-3.121-0.682-6.254-0.899-9.183,0.715
			c-5.966,3.286-8.101,8.786-7.857,14.737c0.167,4.084,1.377,7.945,3.219,11.585c2.238,4.424,4.598,8.767,8.897,11.62
			c1.02,0.677,1.065,1.619,0.717,2.678c-0.384,1.167-0.891,2.309-0.837,3.58c0.023,0.557-0.07,1.178,0.519,1.505
			c0.645,0.357,1.196,0.022,1.682-0.389c1.761-1.489,2.991-3.352,3.632-5.555c0.359-1.231,0.139-2.338-0.82-3.397
			c-2.527-2.791-4.755-5.826-6.729-9.036c-2.154-3.503-4.038-7.139-4.686-11.263c-0.477-3.037-0.167-5.949,1.853-8.448
			c3.175-3.928,7.83-4.653,12.541-1.948C46.636,39.787,47.747,40.547,48.88,41.266z M62.234,84.763
			c6.165-0.009,10.773,0.012,15.361-0.43c2.901-0.279,5.82-0.494,8.633-1.344c1.709-0.516,1.771-0.827,0.672-2.187
			c-4.691-5.796-8.555-12.098-11.385-19.003c-1.133-2.765-1.959-5.64-1.674-8.682c0.343-3.653,1.135-7.221,2.694-10.552
			c2.286-4.88,4.73-9.667,10.62-11.136c0.82-0.205,0.72-0.733,0.415-1.292c-0.448-0.823-1.188-0.952-2.024-0.778
			c-1.373,0.285-2.762,0.506-4.061,1.077c-3.543,1.56-7.049,3.217-10.655,4.614c-1.657,0.641-2.163,1.707-2.278,3.262
			c-0.053,0.726,0.073,1.137,0.908,1.272c1.276,0.207,2.466,0.725,3.655,1.241c0.992,0.431,1.292,1.057,1.089,2.112
			c-0.941,4.898-1.908,9.794-2.709,14.717c-0.29,1.782-1.215,2.721-2.824,3.099c-3.218,0.759-6.461,0.747-9.676-0.003
			c-1.535-0.357-2.518-1.252-2.75-2.981c-0.328-2.441-0.861-4.855-1.312-7.28c-0.441-2.37-0.909-4.735-1.329-7.108
			c-0.295-1.674-0.086-2.024,1.45-2.764c1.12-0.539,2.281-0.941,3.521-1.093c0.331-0.041,0.779-0.049,0.793-0.457
			c0.021-0.582-0.517-0.456-0.877-0.495c-1.554-0.172-3.136-0.147-4.605-0.833c-1.205-0.562-2.143-0.258-2.805,0.886
			c-0.734,1.269-0.531,2.58-0.142,3.913c0.49,1.683,1.555,3.112,2.062,4.777c1.545,5.074,1.362,10.034-0.788,14.949
			c-2.943,6.732-6.654,12.978-11.316,18.656c-0.984,1.198-0.904,1.588,0.636,2.037c1.127,0.328,2.291,0.562,3.452,0.738
			C51.22,84.636,57.5,84.806,62.234,84.763z M52.574,54.395c-0.004-8.332-3.165-12.391-10.345-15.087
			c-2.523-0.948-4.974-0.381-7.065,1.435c-2.055,1.784-2.899,4.053-2.833,6.734c0.101,4.07,1.788,7.601,3.723,11.042
			c2.182,3.881,4.885,7.395,7.776,10.767c0.642,0.749,1.143,1.522,1.091,2.556c-0.011,0.22-0.01,0.604,0.08,0.635
			c0.365,0.125,0.432-0.261,0.563-0.479c2.214-3.649,4.291-7.373,5.773-11.392C52.118,58.493,52.782,56.348,52.574,54.395z
			 M64.048,1.779c-5.94,0.002-10.426,4.497-10.419,10.438c0.007,5.963,4.462,10.427,10.424,10.443
			c5.899,0.017,10.312-4.522,10.465-10.446C74.647,7.157,70.285,1.6,64.048,1.779z M63.682,40.666
			c-2.298,0.055-4.833-0.269-7.24,0.845c-1.483,0.687-1.605,0.782-1.3,2.392c0.854,4.51,1.749,9.014,2.521,13.538
			c0.192,1.13,0.697,1.737,1.733,1.949c2.944,0.6,5.895,0.59,8.844,0.022c1.053-0.202,1.613-0.805,1.809-1.908
			c0.724-4.079,1.531-8.142,2.286-12.215c0.613-3.306,0.314-3.709-3.072-4.446c-0.61-0.132-1.219-0.178-1.836-0.177
			C66.249,40.666,65.07,40.666,63.682,40.666z M61.717,36.836c1.804-0.375,3.584-0.852,5.276-1.615
			c0.539-0.243,0.602-0.738,0.665-1.26c0.398-3.278,0.544-6.587,1.177-9.834c0.172-0.88-0.011-0.979-0.807-0.706
			c-2.628,0.896-5.273,1.004-7.898-0.025c-0.848-0.333-1.113-0.142-0.965,0.793c0.405,2.541,0.73,5.094,1.117,7.637
			c0.202,1.332,0.064,2.688,0.365,4.015C60.787,36.46,60.943,36.932,61.717,36.836z M63.586,114.436
			c-6.117-0.029-12.947,0.255-19.712,1.447c-2.098,0.37-4.215,0.724-6.1,1.801c-1.582,0.903-1.595,2.114-0.053,3.085
			c1.157,0.727,2.48,1.03,3.791,1.337c6.596,1.542,13.328,1.815,20.053,1.983c7.412,0.185,14.808-0.207,22.147-1.319
			c2.269-0.343,4.542-0.781,6.64-1.774c0.748-0.354,1.582-0.795,1.545-1.807c-0.035-0.904-0.784-1.293-1.49-1.667
			c-1.306-0.69-2.724-1.03-4.153-1.32C79.015,114.733,71.682,114.427,63.586,114.436z M63.959,39.308c0-0.001,0-0.004,0-0.005
			c0.788,0,1.579,0.055,2.359-0.015c0.894-0.079,1.226-0.731,0.991-1.906c-0.203-1.013-0.862-0.36-1.275-0.249
			c-1.459,0.394-2.862,1-4.387,1.146c-0.324,0.031-0.765,0.018-0.756,0.468c0.01,0.526,0.49,0.543,0.879,0.555
			C62.499,39.323,63.23,39.308,63.959,39.308z"/>
		<path fill-rule="evenodd" clip-rule="evenodd" d="M64.563,79.294c5.666-0.118,11.885,0.148,18.07,1.023
			c1.226,0.173,2.436,0.412,3.604,0.82c0.225,0.078,0.605,0.167,0.504,0.529c-0.049,0.176-0.286,0.371-0.475,0.422
			c-0.973,0.266-1.947,0.553-2.939,0.715c-4.104,0.67-8.248,0.878-12.398,1.082c-5.002,0.246-9.993,0.186-14.988-0.04
			c-4.373-0.198-8.745-0.423-13.035-1.382c-0.66-0.146-1.76-0.072-1.757-0.909c0.002-0.641,1.092-0.638,1.715-0.78
			c2.628-0.605,5.314-0.852,7.994-1.106C55.225,79.252,59.608,79.265,64.563,79.294z"/>
	</g>
	<path fill-rule="evenodd" clip-rule="evenodd" d="M64.942,123.278c-7.928,0.019-14.976-0.393-21.953-1.685
		c-1.493-0.276-2.958-0.663-4.343-1.296c-0.5-0.229-1.126-0.455-1.1-1.121c0.021-0.574,0.616-0.766,1.06-0.975
		c2.107-0.992,4.38-1.414,6.652-1.739c9.478-1.356,19.009-1.567,28.551-0.981c4.697,0.289,9.403,0.669,13.972,1.945
		c0.867,0.242,1.728,0.511,2.492,0.997c0.922,0.587,0.948,1.03,0.047,1.61c-1.004,0.645-2.16,0.936-3.303,1.222
		c-3.713,0.927-7.512,1.333-11.311,1.618C71.847,123.164,67.976,123.419,64.942,123.278z"/>
</g>
</svg>
