<?xml version="1.0" encoding="utf-8"?>
<!-- Generator: Adobe Illustrator 16.0.4, SVG Export Plug-In . SVG Version: 6.00 Build 0)  -->
<!DOCTYPE svg PUBLIC "-//W3C//DTD SVG 1.1//EN" "http://www.w3.org/Graphics/SVG/1.1/DTD/svg11.dtd">
<svg version="1.1" id="Layer_2308" xmlns="http://www.w3.org/2000/svg" xmlns:xlink="http://www.w3.org/1999/xlink" x="0px" y="0px"
	 width="128px" height="128px" viewBox="0 0 128 128" enable-background="new 0 0 128 128" xml:space="preserve">
<g>
	<path fill-rule="evenodd" clip-rule="evenodd" d="M30.22,64.474c-0.046-2.585-0.191-5.179,0.172-7.754
		c0.199-1.414-0.149-2.317-1.489-3.175c-5.834-3.73-7.083-7.479-5.072-14.377c2.254-7.734,7.417-13.029,14.324-16.739
		c6.062-3.256,12.576-5.191,19.469-5.398c3.157-0.094,4.768-1.179,5.555-4.361c1.304-5.27,4.995-8.942,9.235-12.105
		c1.451-1.082,2.4-0.864,3.377,0.679c1.645,2.598,1.779,2.964-0.164,4.18c-3.246,2.034-5.463,4.83-6.792,8.383
		c-0.982,2.63-0.835,2.961,1.995,3.177c5.766,0.44,11.288,1.84,16.528,4.226c7.756,3.533,13.836,8.819,16.509,17.197
		c1.004,3.145,1.911,6.397,0.375,9.776c-1.042,2.289-2.603,4.04-4.767,5.076c-1.813,0.87-2.052,2.078-2.03,3.863
		c0.132,11.006-0.056,22.005-2.757,32.768c-2.975,11.857-7.989,22.544-17.755,30.472c-3.632,2.947-7.869,4.889-11.79,7.35
		c-0.704,0.441-1.398,0.569-2.118,0.115c-4.098-2.585-8.555-4.57-12.325-7.715c-8.256-6.887-13.201-15.797-16.254-25.927
		C31.526,84.495,30.665,74.516,30.22,64.474z M95.932,64.212c0-1.617,0.019-3.231-0.005-4.847c-0.047-3.383-0.074-3.423-3.202-2.581
		c-2.402,0.648-4.836,1.053-7.311,1.296c-8.486,0.834-17.002,1.038-25.519,1.021c-8.629-0.018-17.264-0.289-25.666-2.577
		c-1.998-0.544-2.197,0.418-2.208,1.94c-0.084,11.796,0.713,23.489,4.013,34.893c4.167,14.397,12.423,25.439,26.236,31.915
		c0.847,0.396,1.508,1.009,2.658,0.455c9.93-4.772,17.869-11.65,22.761-21.653C93.834,91.51,95.601,77.993,95.932,64.212z
		 M29.934,43.03c-0.137-0.694-0.159-1.957-1.473-1.79c-1.675,0.211-2.056,1.723-2.216,3.141c-0.104,0.924,0.282,1.726,1.342,1.871
		C28.748,46.411,29.912,44.908,29.934,43.03z M91.276,49.559c1.102-0.309,1.471-1.192,1.33-2.22c-0.176-1.3-0.564-2.75-2.169-2.752
		c-1.137-0.002-1.502,1.181-1.417,2.183C89.137,48.102,89.599,49.313,91.276,49.559z M74.709,50.256
		c-0.187-1.041-0.425-2.458-1.814-2.525c-1.553-0.075-1.728,1.484-1.733,2.604c-0.006,1.192,0.46,2.565,1.947,2.5
		C74.386,52.78,74.685,51.569,74.709,50.256z M37.465,44.471c-1.466,0.369-2.028,1.459-2.152,2.812
		c-0.092,0.988,0.052,2.159,1.218,2.272c1.642,0.16,2.065-1.285,2.327-2.522C39.097,45.911,38.672,44.94,37.465,44.471z
		 M101.728,44.619c-0.044-1.748-1.424-3.498-2.562-3.367c-1.138,0.13-1.208,1.025-1.233,1.89c-0.047,1.683,1.227,3.342,2.442,3.156
		C101.397,46.141,101.682,45.36,101.728,44.619z M62.273,50.387c0.081,1.208,0.29,2.682,1.682,2.675
		c1.35-0.008,1.706-1.442,1.688-2.683c-0.02-1.248-0.384-2.543-1.872-2.463C62.452,47.985,62.325,49.27,62.273,50.387z
		 M46.205,46.55c-1.21,0.314-1.745,1.324-1.904,2.529c-0.148,1.12,0.072,2.35,1.402,2.466c1.525,0.134,1.863-1.205,2.003-2.396
		C47.835,48.057,47.688,46.991,46.205,46.55z M83.706,49.178c-0.397-0.967-0.438-2.568-2.146-2.537
		c-1.176,0.022-1.436,1.224-1.417,2.206c0.024,1.264,0.542,2.443,1.947,2.563C83.34,51.519,83.569,50.425,83.706,49.178z
		 M56.626,49.818c-0.25-0.855-0.116-2.263-1.623-2.204c-1.529,0.06-1.811,1.354-1.739,2.601c0.063,1.083,0.342,2.407,1.645,2.396
		C56.447,52.598,56.524,51.174,56.626,49.818z M39.965,34.123c-1.529,0.684-1.706,2.029-1.585,3.479
		c0.065,0.786,0.332,1.502,1.309,1.513c1.062,0.014,2.081-1.78,1.845-3.284C41.397,34.957,41.136,34.135,39.965,34.123z
		 M89.584,36.921c-0.094-1.204-0.124-2.671-1.772-2.817c-1.234-0.109-1.461,1.021-1.395,2.027c0.084,1.283,0.271,2.741,1.818,2.924
		C89.539,39.208,89.505,37.948,89.584,36.921z M60.478,39.93c-0.25-0.979,0.015-2.543-1.563-2.601
		c-1.275-0.047-1.552,1.275-1.639,2.344c-0.091,1.119,0.237,2.335,1.422,2.516C60.087,42.4,60.263,41.105,60.478,39.93z
		 M95.251,31.051c-0.846,0.036-1.159,0.66-1.084,1.49c0.139,1.516,0.965,2.619,2.405,3.045c0.897,0.264,1.334-0.418,1.391-1.286
		C98.046,33.004,96.528,31.108,95.251,31.051z M33.828,32.451c-0.019-0.883-0.444-1.612-1.339-1.392
		c-1.487,0.368-2.311,1.508-2.478,3.031c-0.089,0.819,0.212,1.531,1.154,1.621C32.226,35.813,33.838,33.79,33.828,32.451z
		 M70.724,39.709c-0.276-0.863-0.092-2.4-1.725-2.372c-1.151,0.021-1.394,1.205-1.361,2.191c0.038,1.167,0.105,2.603,1.665,2.609
		C70.493,42.144,70.562,40.901,70.724,39.709z M80.438,29.272c-0.331-1.21-0.889-2.542-2.559-2.667
		c-0.913-0.067-1.345,0.725-1.099,1.576c0.398,1.379,1.003,2.717,2.738,2.72C80.321,30.901,80.507,30.2,80.438,29.272z
		 M80.172,38.925c-0.377-0.897-0.056-2.496-1.538-2.73c-1.255-0.199-1.426,1.108-1.458,2.058c-0.041,1.19,0.021,2.601,1.486,2.863
		C80.101,41.372,79.896,39.99,80.172,38.925z M88.784,27.709c0.004-1.185-1.782-2.746-3.084-2.703
		c-0.738,0.024-1.19,0.35-1.205,1.132c-0.022,1.202,1.738,2.732,3.078,2.68C88.285,28.79,88.804,28.541,88.784,27.709z
		 M50.893,38.295c-0.183-0.781-0.062-2.092-1.329-2.072c-1.528,0.024-1.663,1.488-1.775,2.634c-0.095,0.972,0.123,2.17,1.349,2.167
		C50.726,41.022,50.749,39.612,50.893,38.295z M48.51,31.053c1.029,0.12,2.532-1.466,2.667-2.795
		c0.073-0.722-0.138-1.274-0.888-1.462c-1.133-0.284-2.59,1.066-2.767,2.542C47.424,30.151,47.571,30.832,48.51,31.053z
		 M70.771,30.268c-0.171-1.203-0.305-2.578-1.959-2.727c-0.95-0.085-1.183,0.79-1.188,1.554c-0.012,1.365,0.456,2.654,1.859,2.98
		C70.688,32.354,70.633,31.167,70.771,30.268z M42.335,25.031c-1.363,0.003-3.058,1.4-3.172,2.523
		c-0.106,1.05,0.565,1.36,1.412,1.243c1.54-0.214,2.564-1.122,2.844-2.666C43.573,25.281,42.911,25.056,42.335,25.031z
		 M57.078,20.967c0.073-0.823-0.388-1.15-1.13-1.232c-1.242-0.137-3.073,1.184-3.119,2.291c-0.032,0.771,0.453,1.175,1.159,1.285
		C55.159,23.493,56.971,22.097,57.078,20.967z M74.165,23.307c0.323-0.169,0.903-0.419,0.905-1.203
		c0.004-1.097-1.742-2.456-3.007-2.352c-0.718,0.059-1.205,0.378-1.194,1.172C70.882,22.01,72.648,23.42,74.165,23.307z
		 M60.414,29.609c-0.025-0.961-0.083-1.996-1.209-1.96c-1.455,0.046-1.828,1.292-1.973,2.493c-0.106,0.882,0.036,1.875,1.197,1.847
		C59.923,31.954,60.226,30.742,60.414,29.609z M65.62,21.672c-0.048-1.09-0.477-1.947-1.683-1.921
		c-1.211,0.027-1.608,0.935-1.6,2.006c0.011,1.093,0.488,1.933,1.691,1.909C65.247,23.642,65.626,22.771,65.62,21.672z"/>
	<path fill-rule="evenodd" clip-rule="evenodd" d="M67.539,117.468c11.082-7.568,16.369-18.683,19.551-31.263
		c1.881-7.444,2.816-14.993,3.765-22.565c0.054-0.43-0.201-1.021,0.446-1.259c0.088,0.417,0.23,0.831,0.253,1.25
		c0.694,12.587,0.097,25.004-5.542,36.607c-3.421,7.037-8.252,12.846-15.477,16.331c-0.958,0.463-1.863,1.133-3.032,0.853
		L67.539,117.468z"/>
	<path fill-rule="evenodd" clip-rule="evenodd" d="M67.503,117.421l0.036,0.047L67.503,117.421z"/>
</g>
</svg>
