<?xml version="1.0" encoding="utf-8"?>
<!-- Generator: Adobe Illustrator 16.0.4, SVG Export Plug-In . SVG Version: 6.00 Build 0)  -->
<!DOCTYPE svg PUBLIC "-//W3C//DTD SVG 1.1//EN" "http://www.w3.org/Graphics/SVG/1.1/DTD/svg11.dtd">
<svg version="1.1" id="Layer_2401" xmlns="http://www.w3.org/2000/svg" xmlns:xlink="http://www.w3.org/1999/xlink" x="0px" y="0px"
	 width="128px" height="128px" viewBox="0 0 128 128" enable-background="new 0 0 128 128" xml:space="preserve">
<g>
	<g>
		<path fill-rule="evenodd" clip-rule="evenodd" d="M77.217,87.535c0.057,5.759-0.94,11.36-2.441,16.893
			c-0.452,1.665-0.795,3.36-1.243,5.026c-0.882,3.277-0.261,6.217,1.771,8.93c1.032,1.381,1.977,2.836,2.85,4.323
			c1.032,1.757,0.594,3.411-1.055,4.479c-1.729,1.12-3.301,0.828-4.41-0.947c-1.113-1.781-2.171-3.604-3.15-5.463
			c-1.358-2.578-3.431-3.727-6.337-3.905c-6.762-0.419-13.449-1.273-19.793-3.922c-7.915-3.304-14.488-8.425-20.367-14.569
			c-8.228-8.6-13.906-18.621-16.843-30.146c-2.075-8.142-4.158-16.305-4.179-24.795c-0.006-2.475,0.177-4.954,0.338-7.426
			c0.221-3.376,0.471-6.747,0.015-10.123c-0.109-0.803-0.188-1.577,1.107-1.06c8.438,3.375,17.451,4.375,26.237,6.318
			c6.328,1.4,12.59,3.03,17.921,6.955c6.556,4.827,12.534,10.296,17.768,16.547c3.828,4.574,7.209,9.455,9.162,15.14
			C76.534,75.524,77.143,81.5,77.217,87.535z M63.356,64.292c-0.547-0.018-0.583,0.348-0.564,0.754
			c-0.58,0.308-0.699,0.935-0.973,1.443c-2.878,5.36-6.115,10.489-9.852,15.296c-1.241,1.597-1.252,1.601-2.345,0.045
			c-1.034-1.473-1.95-3.04-3.099-4.414c-0.966-1.156-1.046-2.072-0.229-3.361c1.886-2.98,3.406-6.166,4.84-9.389
			c1.465-3.289,2.75-6.644,3.699-10.122c0.077-0.281,0.241-0.555,0.023-0.843c-0.158,0.253-0.346,0.492-0.467,0.762
			c-0.215,0.478-0.382,0.976-0.58,1.461c-2.379,5.842-5.22,11.451-8.502,16.836c-0.941,1.545-0.976,1.542-2.094,0.088
			c-1.508-1.96-2.931-3.991-4.516-5.887c-0.815-0.977-0.797-1.758-0.242-2.82c1.949-3.731,3.49-7.638,4.606-11.695
			c0.532-1.935,1.357-3.828,1.197-5.909c0.093-0.077,0.245-0.141,0.266-0.235c0.038-0.162-0.083-0.218-0.159-0.089
			c-0.059,0.1-0.04,0.245-0.056,0.37c-0.604,0.53-0.656,1.31-0.881,2.003c-1.576,4.868-3.567,9.565-5.865,14.131
			c-0.768,1.524-0.89,1.521-1.89,0.19c-1.352-1.8-2.506-3.768-4-5.434c-1.236-1.379-0.963-2.491-0.377-4.013
			c1.535-3.981,3.062-7.987,3.566-12.276c0.081-0.197,0.167-0.393,0.235-0.594c0.011-0.031-0.066-0.091-0.102-0.139
			c-0.219,0.238-0.191,0.502-0.085,0.776c-0.585,0.133-0.508,0.673-0.625,1.069c-1.042,3.531-2.559,6.861-4.225,10.132
			c-0.912,1.791-0.903,1.805-2.101,0.324c-1.176-1.455-2.255-3-3.53-4.362c-1.01-1.079-1.125-2.155-0.771-3.494
			c0.342-1.294,0.533-2.632,0.738-3.96c0.107-0.699,0.036-1.408-0.223-2.083c-0.365,0.576-0.567,1.205-0.663,1.88
			c-0.178,1.256-0.358,2.513-0.584,3.762c-0.064,0.355-0.209,0.853-0.465,0.978c-0.357,0.173-0.622-0.281-0.855-0.566
			c-0.711-0.868-1.394-1.761-2.139-2.599c-1.528-1.719-2.778-3.72-4.878-4.867c-0.154-0.503-0.338-0.968-1.021-0.787
			c0.141-0.224,0.062-0.443-0.103-0.578c-0.19-0.155-0.279-0.513-0.642-0.388c0.099,0.18,0.173,0.381,0.304,0.534
			c0.132,0.152,0.32,0.256,0.484,0.38c0.107,0.469,0.411,0.771,0.83,0.976c0.662,1.817,2.163,3.005,3.332,4.441
			c0.324,0.398,0.95,0.768,0.794,1.265c-0.229,0.733-1.024,0.426-1.584,0.462c-1.199,0.078-2.403,0.083-3.603,0.142
			c-0.229,0.011-0.515-0.092-0.688,0.178c0.22,0.036,0.439,0.089,0.662,0.107c1.797,0.139,3.594,0.294,5.394,0.395
			c0.799,0.044,1.449,0.215,1.86,0.995c0.668,1.268,1.592,2.365,2.508,3.458c0.718,0.857,0.816,1.332-0.539,1.506
			c-3.717,0.48-7.415,1.16-11.189,0.667c-0.274-0.036-0.709-0.1-0.749,0.234c-0.044,0.372,0.398,0.392,0.682,0.4
			c2.928,0.078,5.937,0.592,8.768-0.027c4.316-0.945,6.695,1.158,8.643,4.434c0.416,0.7,1.395,1.532,1.061,2.104
			c-0.452,0.772-1.674,0.761-2.637,0.781c-4.264,0.094-8.528,0.646-12.794,0.007c-0.442-0.066-0.901-0.06-1.35-0.036
			c-0.198,0.01-0.39,0.145-0.584,0.224c0.177,0.115,0.341,0.29,0.534,0.335c0.731,0.168,1.467,0.377,2.21,0.42
			c5.088,0.293,10.179,0.783,15.275,0.299c0.979-0.094,1.521,0.145,2.058,0.896c1.527,2.138,3.121,4.228,4.667,6.354
			c0.978,1.345,0.965,1.381-0.702,1.663c-6.388,1.084-12.836,1.371-19.3,1.49c-1.04,0.019-2.068-0.318-3.108-0.061
			c1.074,0.342,2.167,0.555,3.295,0.654c6.844,0.604,13.665,0.41,20.451-0.638c1.129-0.175,1.796,0.065,2.429,1.014
			c1.251,1.872,2.645,3.646,3.941,5.489c1.171,1.666,1.128,1.782-0.833,2.205c-5.661,1.223-11.373,2.074-17.163,2.379
			c-0.918,0.049-1.911-0.102-2.705,0.584c0.899,0.05,1.797,0.129,2.697,0.145c6.105,0.104,12.145-0.477,18.136-1.662
			c0.796-0.158,1.793-0.811,2.493,0.192c1.675,2.401,3.296,4.839,4.943,7.26c0.376,0.553,0.343,0.975-0.358,1.192
			c-0.429,0.133-0.861,0.258-1.296,0.37c-6.708,1.729-13.53,2.724-20.438,3.163c-0.288,0.018-0.572,0.107-0.858,0.163
			c0.293,0.048,0.585,0.126,0.88,0.141c6.027,0.306,12.005-0.141,17.943-1.19c1.916-0.338,4.065-1.355,5.688-0.812
			c1.763,0.591,2.445,3.066,3.554,4.743c2.114,3.201,2.574,2.804-1.649,3.616c-5.476,1.053-11.019,1.429-16.592,1.413
			c-0.301,0-0.676-0.157-0.907,0.211c0.287,0.064,0.571,0.169,0.86,0.186c1.723,0.102,3.423,0.404,5.159,0.439
			c4.898,0.099,9.764-0.204,14.585-1.048c1.141-0.199,1.799,0.064,2.385,1.05c1.111,1.871,2.356,3.661,3.502,5.512
			c0.898,1.45,0.869,1.473-0.81,1.719c-4.628,0.679-9.275,0.783-13.938,0.456c-0.271-0.019-0.55,0.108-0.826,0.167
			c0.185,0.318,0.521,0.25,0.802,0.308c4.97,1.021,10,1.124,15.031,0.798c1.505-0.098,2.279,0.337,3.036,1.617
			c2.136,3.62,4.419,7.156,6.703,10.686c0.47,0.727,0.812,2.246,2.014,1.518c1.224-0.742,0.025-1.744-0.428-2.48
			c-2.755-4.477-5.541-8.935-8.392-13.351c-0.696-1.079-0.732-1.935-0.148-3.09c2.347-4.64,4.005-9.542,5.258-14.584
			c0.108-0.436,0.262-1.239,0.065-1.237c-0.568,0.003-0.523,0.711-0.662,1.129c-1.51,4.575-3.499,8.943-5.636,13.252
			c-0.524,1.059-0.92,1.476-1.726,0.132c-1.389-2.315-2.899-4.561-4.431-6.784c-0.611-0.887-0.526-1.523,0.051-2.41
			c2.873-4.41,5.421-9.01,7.312-13.93c0.688-1.793,1.736-3.518,1.588-5.562c0.475-0.142,0.441-0.505,0.369-0.874
			c-0.01-0.05-0.169-0.118-0.172-0.113c-0.233,0.312-0.293,0.653-0.15,1.022c-0.833,0.432-0.857,1.345-1.174,2.059
			c-2.461,5.562-5.353,10.881-8.723,15.947c-0.591,0.889-0.932,1.004-1.538,0.068c-1.708-2.641-3.423-5.277-5.208-7.865
			c-0.604-0.875-0.336-1.43,0.212-2.17c3.089-4.162,5.663-8.646,7.914-13.304c0.866-1.792,2.013-3.513,2.152-5.6
			c0.506-0.021,0.394-0.503,0.572-0.766c0.008-0.062,0.015-0.125,0.023-0.188c0.014-0.089,0.029-0.178,0.044-0.267
			C63.378,63.957,63.368,64.125,63.356,64.292z M69.7,73.624l0.107,0.014l-0.037-0.168L69.7,73.624z"/>
	</g>
	<g>
		<path fill-rule="evenodd" clip-rule="evenodd" d="M112.417,96.913c-3.845,4.287-8.361,7.747-13.202,10.816
			c-1.457,0.924-2.854,1.943-4.311,2.87c-2.861,1.823-4.387,4.413-4.721,7.784c-0.168,1.716-0.455,3.428-0.813,5.113
			c-0.425,1.994-1.865,2.918-3.803,2.594c-2.03-0.34-2.994-1.616-2.614-3.676c0.381-2.065,0.83-4.124,1.362-6.156
			c0.737-2.819-0.017-5.064-2.041-7.16c-4.707-4.872-9.064-10.016-11.958-16.252c-3.611-7.78-5.005-15.996-5.196-24.497
			c-0.268-11.898,2.306-23.125,7.917-33.612c3.965-7.409,7.937-14.838,13.651-21.118c1.666-1.831,3.474-3.536,5.261-5.251
			c2.441-2.342,4.901-4.66,6.844-7.46c0.461-0.666,0.926-1.291,1.532-0.034c3.948,8.185,9.925,15.005,15.095,22.37
			c3.725,5.304,7.246,10.733,8.53,17.227c1.579,7.986,2.3,16.057,1.943,24.201c-0.261,5.959-1.062,11.842-3.458,17.355
			C120.02,87.59,116.436,92.409,112.417,96.913z M117.875,70.406c-0.392-0.382-0.664-0.136-0.925,0.177
			c-0.636-0.164-1.147,0.217-1.692,0.408c-5.741,2.014-11.592,3.611-17.592,4.638c-1.994,0.341-2.005,0.336-1.761-1.55
			c0.23-1.783,0.612-3.559,0.692-5.349c0.066-1.505,0.626-2.233,2.099-2.635c3.403-0.926,6.675-2.25,9.907-3.661
			c3.301-1.438,6.514-3.047,9.562-4.973c0.246-0.156,0.552-0.247,0.585-0.606c-0.286,0.08-0.587,0.13-0.858,0.247
			c-0.48,0.208-0.94,0.462-1.414,0.687c-5.698,2.704-11.58,4.927-17.637,6.685c-1.738,0.503-1.761,0.48-1.604-1.348
			c0.21-2.465,0.531-4.924,0.642-7.393c0.057-1.27,0.598-1.834,1.725-2.244c3.956-1.438,7.73-3.28,11.292-5.521
			c1.698-1.068,3.585-1.908,4.872-3.552c0.121,0.006,0.275,0.061,0.354,0.007c0.137-0.094,0.086-0.217-0.058-0.174
			c-0.109,0.034-0.193,0.154-0.29,0.236c-0.804-0.017-1.368,0.523-2.002,0.883c-4.448,2.529-9.087,4.651-13.865,6.469
			c-1.595,0.606-1.683,0.521-1.522-1.136c0.217-2.24,0.692-4.471,0.715-6.709c0.02-1.853,0.971-2.489,2.431-3.216
			c3.819-1.903,7.649-3.828,10.917-6.652c0.192-0.091,0.389-0.176,0.574-0.279c0.029-0.016,0.014-0.112,0.018-0.171
			c-0.321,0.027-0.479,0.242-0.585,0.515c-0.522-0.296-0.829,0.154-1.184,0.368c-3.151,1.902-6.519,3.335-9.956,4.625
			c-1.881,0.706-1.884,0.723-1.768-1.178c0.113-1.868,0.36-3.736,0.338-5.601c-0.017-1.478,0.625-2.35,1.79-3.099
			c1.126-0.725,2.171-1.583,3.216-2.425c0.552-0.443,0.979-1.014,1.242-1.687c-0.658,0.179-1.232,0.506-1.758,0.94
			c-0.979,0.807-1.961,1.613-2.97,2.381c-0.287,0.219-0.73,0.489-1.003,0.407c-0.381-0.113-0.27-0.626-0.25-0.995
			c0.061-1.12,0.16-2.24,0.176-3.361c0.033-2.3,0.461-4.621-0.314-6.884c0.225-0.475,0.403-0.942-0.223-1.269
			c0.256-0.07,0.346-0.285,0.314-0.496c-0.036-0.243,0.141-0.566-0.212-0.718c-0.048,0.199-0.13,0.398-0.136,0.599
			c-0.006,0.202,0.064,0.405,0.101,0.607c-0.238,0.418-0.218,0.846-0.047,1.28c-0.738,1.787-0.432,3.677-0.539,5.526
			c-0.03,0.513,0.183,1.208-0.268,1.47c-0.663,0.386-1.043-0.376-1.481-0.728c-0.938-0.752-1.828-1.561-2.754-2.327
			c-0.177-0.146-0.318-0.416-0.627-0.333c0.138,0.175,0.264,0.363,0.416,0.525c1.231,1.315,2.453,2.643,3.713,3.932
			c0.559,0.573,0.924,1.137,0.701,1.99c-0.363,1.387-0.422,2.82-0.483,4.244c-0.049,1.117-0.297,1.533-1.414,0.749
			c-3.067-2.155-6.255-4.149-8.707-7.06c-0.179-0.212-0.456-0.553-0.71-0.333c-0.284,0.245,0.028,0.558,0.232,0.755
			c2.108,2.034,3.98,4.444,6.488,5.897c3.823,2.216,4.159,5.374,3.385,9.105c-0.165,0.797-0.004,2.072-0.637,2.268
			c-0.854,0.265-1.748-0.568-2.473-1.202c-3.21-2.81-6.729-5.28-9.445-8.631c-0.281-0.348-0.625-0.651-0.972-0.938
			c-0.152-0.125-0.386-0.155-0.582-0.229c0.053,0.205,0.055,0.445,0.168,0.608c0.426,0.617,0.828,1.268,1.348,1.801
			c3.557,3.651,6.982,7.448,11.07,10.53c0.784,0.591,1.024,1.134,0.913,2.05c-0.316,2.608-0.553,5.227-0.846,7.838
			c-0.186,1.651-0.221,1.67-1.641,0.754c-5.445-3.511-10.397-7.652-15.246-11.926c-0.781-0.688-1.312-1.63-2.254-2.143
			c0.562,0.977,1.225,1.871,1.99,2.707c4.643,5.064,9.807,9.524,15.521,13.332c0.95,0.633,1.28,1.262,1.107,2.388
			c-0.34,2.226-0.509,4.475-0.796,6.709c-0.261,2.021-0.37,2.077-2.104,1.065c-5.002-2.919-9.792-6.144-14.27-9.828
			c-0.71-0.584-1.342-1.364-2.39-1.395c0.629,0.644,1.238,1.308,1.893,1.927c4.435,4.196,9.283,7.845,14.504,11.013
			c0.693,0.42,1.87,0.611,1.709,1.825c-0.385,2.901-0.833,5.795-1.252,8.692c-0.095,0.662-0.404,0.951-1.068,0.639
			c-0.406-0.191-0.811-0.391-1.207-0.602c-6.116-3.252-11.822-7.121-17.215-11.46c-0.226-0.182-0.495-0.308-0.744-0.46
			c0.184,0.234,0.348,0.488,0.555,0.699c4.24,4.294,8.953,7.998,14.043,11.23c1.643,1.043,3.914,1.744,4.745,3.24
			c0.902,1.625-0.265,3.912-0.579,5.898c-0.6,3.789,0.007,3.807-3.657,1.555c-4.751-2.919-9.095-6.383-13.196-10.154
			c-0.223-0.203-0.394-0.572-0.812-0.456c0.168,0.24,0.308,0.509,0.51,0.717c1.203,1.237,2.254,2.608,3.511,3.806
			c3.548,3.379,7.342,6.439,11.469,9.07c0.978,0.623,1.284,1.263,1.052,2.385c-0.443,2.131-0.732,4.292-1.135,6.431
			c-0.316,1.677-0.354,1.673-1.758,0.722c-3.873-2.623-7.373-5.682-10.593-9.07c-0.187-0.196-0.479-0.291-0.723-0.434
			c-0.079,0.359,0.216,0.535,0.385,0.768c2.978,4.107,6.62,7.578,10.552,10.733c1.178,0.944,1.455,1.788,1.148,3.243
			c-0.866,4.113-1.568,8.263-2.265,12.41c-0.144,0.852-0.917,2.205,0.462,2.478c1.404,0.278,1.196-1.271,1.359-2.119
			c0.988-5.163,1.94-10.333,2.817-15.515c0.214-1.268,0.765-1.922,1.976-2.38c4.863-1.841,9.396-4.338,13.723-7.214
			c0.374-0.248,1.029-0.737,0.883-0.869c-0.42-0.381-0.865,0.172-1.249,0.387c-4.203,2.356-8.618,4.237-13.103,5.975
			c-1.103,0.428-1.675,0.469-1.363-1.068c0.537-2.645,0.939-5.32,1.309-7.996c0.147-1.066,0.64-1.479,1.664-1.743
			c5.098-1.315,10.081-2.989,14.797-5.345c1.719-0.859,3.656-1.424,4.927-3.033c0.445,0.217,0.667-0.073,0.862-0.395
			c0.026-0.043-0.045-0.202-0.051-0.201c-0.383,0.073-0.656,0.286-0.801,0.654c-0.906-0.244-1.54,0.414-2.256,0.727
			c-5.57,2.443-11.294,4.417-17.2,5.881c-1.035,0.256-1.366,0.111-1.181-0.988c0.521-3.102,1.037-6.205,1.465-9.32
			c0.146-1.052,0.717-1.281,1.621-1.455c5.089-0.988,10.015-2.56,14.818-4.477c1.849-0.738,3.857-1.234,5.367-2.68
			c0.388,0.326,0.63-0.105,0.94-0.18c0.048-0.041,0.095-0.082,0.144-0.122c0.07-0.058,0.142-0.112,0.213-0.168
			C118.119,70.173,117.998,70.29,117.875,70.406z M116.259,81.575l0.07,0.082l0.087-0.149L116.259,81.575z"/>
	</g>
</g>
</svg>
