<?xml version="1.0" encoding="utf-8"?>
<!-- Generator: Adobe Illustrator 16.0.4, SVG Export Plug-In . SVG Version: 6.00 Build 0)  -->
<!DOCTYPE svg PUBLIC "-//W3C//DTD SVG 1.1//EN" "http://www.w3.org/Graphics/SVG/1.1/DTD/svg11.dtd">
<svg version="1.1" id="Layer_2501" xmlns="http://www.w3.org/2000/svg" xmlns:xlink="http://www.w3.org/1999/xlink" x="0px" y="0px"
	 width="128px" height="128px" viewBox="0 0 128 128" enable-background="new 0 0 128 128" xml:space="preserve">
<g>
	<path fill-rule="evenodd" clip-rule="evenodd" d="M50.395,52.989c-1.118-0.091-1.669-0.617-1.628-1.553
		c0.044-0.988,0.819-1.513,2.071-1.406c0.849,0.072,1.599,0.784,1.48,1.404C52.122,52.45,51.358,53.068,50.395,52.989z"/>
	<path fill-rule="evenodd" clip-rule="evenodd" d="M86.637,54.319c-0.091,1.119-0.614,1.669-1.55,1.63
		c-0.988-0.045-1.516-0.818-1.407-2.071c0.073-0.848,0.785-1.601,1.404-1.48C86.1,52.591,86.718,53.356,86.637,54.319z"/>
	<path fill-rule="evenodd" clip-rule="evenodd" d="M63.56,83.035c0.065,0.317-1.125,1.766-1.567,1.907
		c-0.452,0.146-1.988-1.238-1.982-1.786c0.004-0.378,1.316-1.731,1.713-1.763C62.076,81.364,63.476,82.617,63.56,83.035z"/>
	<path fill-rule="evenodd" clip-rule="evenodd" d="M54.685,33.165c0.101-0.876,0.785-1.597,1.405-1.479
		c1.077,0.207,1.706,1.105,1.555,2.221c-0.027,0.202-1.333,1.289-1.533,1.278C55.321,35.141,54.58,34.092,54.685,33.165z"/>
	<path fill-rule="evenodd" clip-rule="evenodd" d="M76.754,39.499c0.549,0.001,1.622,1.373,1.601,2.04
		c-0.027,0.777-0.681,1.391-1.482,1.391c-1.008,0-1.502-0.666-1.478-1.986C75.402,40.603,76.442,39.498,76.754,39.499z"/>
	<path fill-rule="evenodd" clip-rule="evenodd" d="M60.602,43.231c0.368,1.319-1.126,0.685-1.489,1.384
		c-0.216,0.417-0.84-0.11-1.145-0.48c-0.547-0.667-0.403-1.459-0.213-2.174c0.204-0.777,1.223-0.959,1.803-0.351
		C60,42.074,60.732,42.387,60.602,43.231z"/>
	<path fill-rule="evenodd" clip-rule="evenodd" d="M48.101,43.521c0.404-0.039,1.131,1.131,1.268,1.92
		c0.147,0.853-0.416,1.278-0.986,1.604c-0.422,0.243-1.945-0.939-1.982-1.454C46.317,44.52,47.055,43.62,48.101,43.521z"/>
	<path fill-rule="evenodd" clip-rule="evenodd" d="M68.58,29.318c0.682,0.059,1.619-0.371,1.511,1.007
		c-0.106,1.316-0.504,1.952-1.488,1.952c-0.999,0-1.398-0.619-1.512-1.928C66.973,28.995,67.878,29.359,68.58,29.318z"/>
	<path fill-rule="evenodd" clip-rule="evenodd" d="M89.005,86.764c0.118,0.754-0.035,1.229-1.028,1.157
		c-1.312-0.094-1.929-0.508-1.929-1.509c0-0.986,0.631-1.461,1.954-1.47C89.036,84.937,89.036,84.937,89.005,86.764z"/>
	<path fill-rule="evenodd" clip-rule="evenodd" d="M50.542,63.791c0.056,0.637,0.018,1.093-0.874,1.058
		c-1.375-0.055-1.981-0.371-2.084-1.346c-0.096-0.898,0.571-1.637,1.479-1.637C50.049,61.866,50.524,62.484,50.542,63.791z"/>
	<path fill-rule="evenodd" clip-rule="evenodd" d="M76.58,47.834c-0.097,1.098-0.576,1.587-1.566,1.605
		c-0.4,0.006-1.43-1.306-1.394-1.774c0.04-0.49,1.237-1.639,1.663-1.595C76.199,46.167,76.67,46.808,76.58,47.834z"/>
	<path fill-rule="evenodd" clip-rule="evenodd" d="M83.088,73.852c0.057,0.637,0.018,1.09-0.875,1.057
		c-1.375-0.056-1.978-0.371-2.084-1.344c-0.097-0.9,0.574-1.639,1.479-1.639C82.595,71.926,83.069,72.543,83.088,73.852z"/>
	<path fill-rule="evenodd" clip-rule="evenodd" d="M100.626,81.312c0.371,0.146,0.566,0.176,0.703,0.282
		c0.93,0.73,0.992,2.121,0.16,3.002c-0.39,0.409-0.774,0.526-1.211,0.079c-0.272-0.276-0.537-0.569-0.832-0.823
		c-0.59-0.509-0.488-0.951,0.053-1.425C99.924,82.055,100.303,81.633,100.626,81.312z"/>
	<path fill-rule="evenodd" clip-rule="evenodd" d="M106.166,93.105c-0.004-0.586,0.72-1.409,1.297-1.469
		c0.557-0.06,1.593,1.118,1.662,1.887c0.049,0.533-0.965,1.422-1.688,1.479C106.737,95.06,106.178,94.223,106.166,93.105z"/>
	<path fill-rule="evenodd" clip-rule="evenodd" d="M96.596,69.584c1.1-0.146,1.634,0.319,1.867,1.124
		c0.219,0.748-0.168,1.358-0.779,1.669c-0.585,0.297-1.212,0.271-1.779-0.319c-0.656-0.681-0.414-1.465-0.339-2.154
		C95.627,69.326,96.359,69.647,96.596,69.584z"/>
	<path fill-rule="evenodd" clip-rule="evenodd" d="M49.359,39.79c-0.083-0.68,0.062-1.055,0.902-1.024
		c1.369,0.046,1.976,0.385,2.056,1.371c0.076,0.943-0.555,1.618-1.509,1.609C49.832,41.737,49.365,41.106,49.359,39.79z"/>
	<path fill-rule="evenodd" clip-rule="evenodd" d="M64.153,34.136c-0.074,0.417-1.394,1.669-1.786,1.692
		c-0.44,0.025-1.916-1.616-1.676-1.997c0.357-0.572,0.92-1.191,1.525-1.38C62.865,32.25,64.242,33.627,64.153,34.136z"/>
	<path fill-rule="evenodd" clip-rule="evenodd" d="M42.851,79.504c-0.248-0.927,0.636-0.879,1.035-1.287
		c0.655-0.67,0.808,0.018,1.057,0.267c0.384,0.384,1.185,0.745,0.82,1.362c-0.366,0.62-0.878,1.273-1.645,1.54
		c-0.316,0.109-0.5-0.182-0.737-0.332C42.773,80.668,42.844,80.086,42.851,79.504z"/>
	<path fill-rule="evenodd" clip-rule="evenodd" d="M92.113,67.782c0.788-0.075,1.506,0.479,1.627,1.259
		c0.139,0.909-0.551,1.701-1.48,1.701c-0.811,0-1.443-0.603-1.479-1.406C90.745,68.53,91.32,67.86,92.113,67.782z"/>
	<path fill-rule="evenodd" clip-rule="evenodd" d="M60.01,69.311c-0.024,0.814-0.64,1.419-1.455,1.432
		c-0.809,0.011-1.455-0.583-1.505-1.381c-0.06-0.996,0.611-1.657,1.604-1.579C59.448,67.847,60.035,68.506,60.01,69.311z"/>
	<path fill-rule="evenodd" clip-rule="evenodd" d="M72.734,35.828c-0.813,0-1.445-0.601-1.479-1.405
		c-0.043-0.957,0.677-1.646,1.625-1.554c0.792,0.077,1.368,0.748,1.333,1.552C74.177,35.227,73.545,35.828,72.734,35.828z"/>
	<path fill-rule="evenodd" clip-rule="evenodd" d="M66.52,40.783c0.035,0.805-0.54,1.476-1.331,1.554
		c-0.947,0.093-1.67-0.597-1.628-1.552c0.035-0.804,0.668-1.406,1.48-1.406C65.85,39.379,66.483,39.979,66.52,40.783z"/>
	<path fill-rule="evenodd" clip-rule="evenodd" d="M41.831,67.782c-0.289,0-0.608,0.081-0.857-0.016
		c-0.523-0.205-1.124-0.552-1.042-1.154c0.078-0.589,0.366-1.272,0.793-1.654c0.359-0.315,1.045-0.295,1.538,0.156
		c0.426,0.389,0.845,1.894,0.583,2.356C42.616,67.875,42.202,67.78,41.831,67.782z"/>
	<path fill-rule="evenodd" clip-rule="evenodd" d="M77.321,61.272c-1.313-0.017-1.853-0.432-1.927-1.478
		c-0.038-0.59,1.244-1.578,1.927-1.481c0.579,0.083,0.988,1.06,1.054,2.086C78.432,61.292,77.959,61.328,77.321,61.272z"/>
	<path fill-rule="evenodd" clip-rule="evenodd" d="M68.2,47.663c-1.229,0.504-1.197-0.747-1.386-1.263
		c-0.291-0.799,0.674-1.161,1.154-1.604c0.427-0.39,0.853,0.114,1.179,0.465c0.134,0.143,0.28,0.271,0.414,0.415
		c0.651,0.707,0.432,1.721-0.451,1.975C68.839,47.73,68.528,47.663,68.2,47.663z"/>
	<path fill-rule="evenodd" clip-rule="evenodd" d="M84.862,46.905c0.002,0.29,0.082,0.61-0.016,0.86
		c-0.206,0.522-0.552,1.124-1.153,1.041c-0.59-0.078-1.273-0.365-1.653-0.794c-0.316-0.357-0.297-1.043,0.155-1.538
		c0.387-0.425,1.893-0.844,2.356-0.582C84.953,46.122,84.86,46.534,84.862,46.905z"/>
	<path fill-rule="evenodd" clip-rule="evenodd" d="M62.081,60.088c-0.81,0-1.442-0.6-1.479-1.404
		c-0.043-0.957,0.679-1.646,1.627-1.554c0.792,0.077,1.366,0.749,1.331,1.554C63.525,59.488,62.893,60.088,62.081,60.088z"/>
	<path fill-rule="evenodd" clip-rule="evenodd" d="M57.051,49.604c-0.001-0.288-0.082-0.608,0.017-0.858
		c0.207-0.523,0.551-1.123,1.155-1.042c0.588,0.08,1.272,0.366,1.652,0.794c0.316,0.359,0.297,1.042-0.155,1.538
		c-0.388,0.425-1.894,0.845-2.356,0.581C56.96,50.387,57.055,49.975,57.051,49.604z"/>
	<path fill-rule="evenodd" clip-rule="evenodd" d="M38.708,58.611c-0.078-0.819,0.453-1.264,1.097-1.451
		c0.549-0.16,1.969,1.382,1.862,1.894c-0.106,0.504-1.355,1.461-1.76,1.348C38.845,60.105,38.583,59.713,38.708,58.611z"/>
	<path fill-rule="evenodd" clip-rule="evenodd" d="M42.459,50.011c1.181-0.426,0.944,0.874,1.342,1.353
		c0.298,0.359-1.064,1.554-1.837,1.625c-0.384,0.035-1.465-0.982-1.399-1.413c0.064-0.422,0.482-0.679,0.56-1.197
		C41.217,49.797,41.931,50.099,42.459,50.011z"/>
	<path fill-rule="evenodd" clip-rule="evenodd" d="M39.298,97.524c0.517,1.265-0.883,0.904-1.312,1.388
		c-0.219,0.248-1.626-1.033-1.645-1.504c-0.019-0.444,1.193-1.686,1.625-1.666C38.583,95.771,39.317,96.729,39.298,97.524z"/>
	<path fill-rule="evenodd" clip-rule="evenodd" d="M69.775,70.74c-0.934,0.181-0.914-0.42-0.893-1.06
		c0.038-1.112,0.65-2.036,1.285-1.898c0.479,0.104,1.676,1.424,1.676,1.851C71.848,70.266,70.91,70.769,69.775,70.74z"/>
	<path fill-rule="evenodd" clip-rule="evenodd" d="M33.972,65.418c0.139,0.906-0.301,1.525-1.117,1.743
		c-0.562,0.151-1.952-1.421-1.84-1.942c0.125-0.586,1.152-0.984,2.194-1.004C34.231,64.196,33.939,64.88,33.972,65.418z"/>
	<path fill-rule="evenodd" clip-rule="evenodd" d="M64.199,26.359c0.904,0.056,1.764,0.63,1.729,1.159
		c-0.029,0.431-1.274,1.731-1.727,1.801c-0.75,0.119-1.285-0.946-1.249-2.243C62.98,26.042,63.698,26.442,64.199,26.359z"/>
	<path fill-rule="evenodd" clip-rule="evenodd" d="M127.461,103.938c-0.371-0.736-0.794-1.446-1.21-2.161
		c-1.443-2.488-3.085-4.846-4.659-7.25c-2.419-3.693-4.437-7.65-6.869-11.337c-5.276-7.991-10.644-15.926-16.112-23.791
		c-1.879-2.704-3.528-5.62-6.029-7.863c-2.738-4.979-6.564-9.177-10.125-13.519c-2.511-3.061-5.075-6.155-8.056-8.842
		c-2.664-2.398-5.321-4.688-8.804-5.918c-0.989-0.349-1.679-0.436-2.648-0.17c-2.779,0.761-4.993,2.479-7.104,4.247
		c-3.978,3.331-7.022,7.585-10.694,11.228c-0.199,0.2-0.357,0.441-0.525,0.667c-0.943,1.287-1.771,2.677-2.848,3.838
		c-1.948,2.105-3.167,4.794-5.413,6.643c-0.837,2.662-3.629,4.053-4.394,6.761c-2.471,2.604-4.237,5.721-6.273,8.642
		c-0.799,1.145-1.618,2.281-2.352,3.467c-0.125,0.202-0.528,0.332-0.532,0.593L21.725,70.1L5.258,96.29
		c-0.111,0.004-0.204,0.096-0.277,0.26c-1.201,2.729-3.011,5.08-4.648,7.542c-0.293,0.439-0.008,0.946,0.553,0.966
		c0.789,0.023,1.578,0.005,2.368,0.005c20.312,0,40.622,0,60.934,0c1.577,0,3.153,0,4.731,0c19.325,0,38.651,0.002,57.976-0.002
		C127.926,105.061,127.981,104.962,127.461,103.938z M124.376,102.96c-0.382,0.797-1.788,0.314-2.732,0.314
		c-33.622,0.016-67.245,0.016-100.867-0.004c-0.938,0-1.959,0.375-2.81-0.33c-0.204-0.168-0.263-0.237-0.433-0.089
		c-0.527,0.46-1.36,0.975-1.802,0.723c-0.788-0.446-1.521-0.253-2.257-0.266c-2.957-0.051-5.916-0.011-8.874-0.027
		c-0.679-0.004-0.934-0.201-0.796-0.652l2.673-4.108c0.187-0.132,0.287-0.298,0.306-0.477L24.5,70.347
		c2.414-4.003,5.388-7.616,8.022-11.467c1.735-2.536,3.352-5.168,5.27-7.562c1.42-1.771,2.634-3.707,4.156-5.383
		c2.123-2.338,4.157-4.799,5.939-7.344c2.072-2.962,5.413-4.715,7.01-8.007c2.185-1.052,3.579-3.088,5.551-4.431
		c1.945-1.326,5.472-1.476,6.965-0.245c1.249,1.031,2.649,1.868,3.814,3.04c3.957,3.99,7.873,8.001,11.299,12.479
		c0.982,1.283,2.479,2.235,3.062,3.769c0.636,1.679,2.104,2.643,3.073,4.025c1.609,2.298,3.237,4.612,4.961,6.833
		c2.587,3.332,4.872,6.859,7.302,10.294c2.637,3.727,5.199,7.501,7.721,11.302c1.698,2.562,3.623,5.016,5.128,7.652
		c2.93,5.135,6.565,9.818,9.337,15.045C123.578,101.229,124.782,102.112,124.376,102.96z"/>
</g>
</svg>
