<?xml version="1.0" encoding="utf-8"?>
<!-- Generator: Adobe Illustrator 16.0.4, SVG Export Plug-In . SVG Version: 6.00 Build 0)  -->
<!DOCTYPE svg PUBLIC "-//W3C//DTD SVG 1.1//EN" "http://www.w3.org/Graphics/SVG/1.1/DTD/svg11.dtd">
<svg version="1.1" id="Layer_2502" xmlns="http://www.w3.org/2000/svg" xmlns:xlink="http://www.w3.org/1999/xlink" x="0px" y="0px"
	 width="128px" height="128px" viewBox="0 0 128 128" enable-background="new 0 0 128 128" xml:space="preserve">
<path d="M125.935,64.419c-1.804-0.777-3.596-1.584-5.387-2.392c-1.011-0.455-2.021-0.91-3.035-1.36
	c-1.483-0.658-2.969-1.312-4.455-1.967c-1.927-0.848-3.854-1.696-5.775-2.555l-3.694-1.649c-4.601-2.052-9.352-4.172-14.05-6.334
	c0.96-1.739,1.914-3.483,2.85-5.237c0.546-1.025,0.603-1.933,0.184-2.941c-1.234-2.973-2.462-5.946-3.688-8.922
	c-0.235-0.571-0.464-1.146-0.692-1.72c-0.453-1.138-0.921-2.313-1.437-3.452c-1.291-2.853-2.687-5.82-4.146-8.819
	c-0.068-0.141-0.133-0.283-0.198-0.426c-0.299-0.66-0.639-1.408-1.356-1.96c-1.322-1.015-2.636-2.094-3.906-3.137l-1.005-0.823
	c-0.689-0.563-1.389-1.114-2.089-1.665c-1.174-0.924-2.388-1.879-3.522-2.88c-0.316-0.279-0.773-0.608-1.437-0.528
	c-0.854,0.1-1.775,0.144-2.988,0.144c-0.489,0-0.979-0.007-1.468-0.014c-0.8-0.011-1.565-0.023-2.421-0.004
	c-0.221,0-0.429-0.075-0.695-0.252c-0.662-0.442-1.258-0.952-1.89-1.492l-0.464-0.395c-0.228-0.192-0.585-0.448-1.054-0.448
	c-0.242,0-0.486,0.069-0.725,0.206c-0.433,0.249-0.869,0.533-1.305,0.819c-0.478,0.312-0.971,0.636-1.449,0.897
	c-0.167,0.091-0.334,0.374-0.502,0.472C53.494,5.961,52.889,6.5,52.237,6.5h-7.084c-3.417,0-6.094-0.359-8.682-0.528l-0.315-0.109
	c-0.523,0-0.83,0.195-1.037,0.405c-0.482,0.487-0.965,0.933-1.448,1.404c-0.34,0.33-0.68,0.65-1.021,0.988
	c-1.99,1.972-3.98,3.931-5.971,5.896c-1.975,1.949-3.95,3.896-5.923,5.852l-0.312,0.301c-0.376,0.362-0.761,0.731-1.083,1.165
	l-0.26-0.299l0.177,0.415c-0.104,0.149-0.202,0.308-0.288,0.476c-0.245,0.476-0.522,0.929-0.798,1.383
	c-0.18,0.295-0.36,0.591-0.532,0.892c-1.351,2.364-2.791,4.732-4.184,7.021c-1.23,2.022-2.501,4.113-3.71,6.198
	c-0.259,0.448-0.527,0.892-0.794,1.335c-0.585,0.972-1.19,1.977-1.708,3.021c-0.212,0.428-0.454,1.086-0.1,1.86l0.614,1.343
	c1.64,3.586,3.28,7.172,4.899,10.769c1.406,3.125,2.804,6.255,4.2,9.384l2.769,6.192l0.063,0.148
	c0.131,0.308,0.279,0.655,0.579,0.892c0.43,0.342,0.799,0.742,1.189,1.166c0.015,0.016,0.03,0.033,0.045,0.049
	c-3.035,1.286-6.07,2.571-9.111,3.842c-1.071,0.448-2.132,0.92-3.194,1.393c-2.297,1.021-4.673,2.078-7.103,2.851
	c-0.47,0.149-1.22,0.575-0.967,1.746c0.07,0.323,0.157,0.642,0.245,0.96c0.075,0.277,0.151,0.553,0.214,0.832l0.092,0.41
	l-0.615-0.108l0.689,0.437c1.018,4.514,2.036,9.027,3.036,13.547c0.224,1.012,0.328,1.893,0.109,2.904
	c-0.677,3.127-1.231,6.33-1.768,9.427c-0.196,1.132-0.392,2.264-0.594,3.394c-0.148,0.832-0.234,1.503,0.125,1.932
	c0.284,0.34,0.716,0.379,1.016,0.379c0.263,0,0.584-0.033,1.106-0.112c6.042-0.918,12.083-1.834,18.129-2.717
	c2.949-0.431,5.9-0.845,8.852-1.259c2.603-0.366,5.205-0.731,7.807-1.108c2.415-0.35,4.829-0.707,7.243-1.064
	c4.276-0.634,8.553-1.267,12.835-1.856c1.261-0.174,2.829-0.389,3.308-2.369c0.057-0.232,0.114-0.283,0.131-0.283
	c0.044,0.02,0.177,0.018,0.425,0.141c5.817,2.875,11.574,5.566,15.94,7.59c4.275,1.981,8.603,4.041,12.787,6.033
	c2.095,0.998,4.189,1.995,6.286,2.987c0.513,0.242,1.03,0.456,1.539,0.634c0.255,0.09,0.479,0.133,0.682,0.133
	c0.886,0,1.227-0.822,1.338-1.094c1.334-3.221,2.742-6.475,4.104-9.623l1.108-2.562c2.588-5.999,5.179-11.996,7.774-17.992
	l3.989-9.199c1.867-4.305,3.735-8.609,5.597-12.916c0.469-1.086,0.916-2.18,1.362-3.275c0.237-0.579,0.474-1.158,0.713-1.736
	C127.134,65.487,126.859,64.815,125.935,64.419z M8.947,43.518c-0.106-0.26-0.096-0.384,0.05-0.63l0.712-1.194
	c2.389-4.013,4.859-8.162,7.338-12.211c0.389-0.636,0.759-1.282,1.129-1.93c0.311-0.544,0.623-1.089,0.946-1.627
	c0.08,1.382,0.08,2.784,0.08,4.146c0,1.02,0,2.04,0.031,3.061l0.016,0.48c0.063,2.046,0.13,4.161,0.109,6.237
	c-0.018,1.783,0.039,3.59,0.093,5.336c0.05,1.582,0.101,3.218,0.096,4.824c-0.009,2.736,0.043,5.516,0.092,8.203l0.042,2.385
	c0.031,1.875,0.073,3.75,0.114,5.625l0.035,1.607l-0.419-0.961c-0.618-1.42-1.235-2.84-1.868-4.253
	c-1.598-3.571-3.213-7.134-4.834-10.693c-0.322-0.706-0.647-1.411-0.973-2.116C10.79,47.759,9.812,45.64,8.947,43.518z
	 M24.34,24.704c0.524,0.168,1.048,0.336,1.573,0.501c1.378,0.432,2.758,0.858,4.139,1.285l2.931,0.907
	c2.78,0.865,5.56,1.73,8.337,2.604c0.237,0.074,0.597,0.188,0.651,0.247c0.039,0.06,0.062,0.356,0.083,0.619l0.011,0.138
	c0.097,1.188,0.094,2.409,0.091,3.59c-0.002,1.083-0.005,2.204,0.068,3.306c0.088,1.736,0.095,3.509,0.102,5.224
	c0.002,0.564,0.004,1.129,0.009,1.693c-2.371-2.473-4.735-4.951-7.098-7.433L22.62,24.15c0.397,0.127,0.794,0.255,1.19,0.383
	c0.155,0.05,0.311,0.101,0.467,0.15l0.091,0.075L24.34,24.704z M85.351,29.642l0.149,4.913c0.051,1.96,0.101,3.886,0.147,5.885
	c-2.277-3.094-4.553-6.191-6.827-9.289l-4.384-5.969c-0.336-0.457-0.675-0.91-1.014-1.364c-0.131-0.174-0.261-0.348-0.391-0.522
	c0.651,0.213,1.302,0.427,1.953,0.642l1.548,0.508c1.193,0.392,2.387,0.8,3.581,1.209c1.627,0.557,3.255,1.114,4.888,1.629
	c0.319,0.101,0.371,0.216,0.356,0.492C85.327,28.34,85.35,29.589,85.351,29.642z M87.842,47.413c-0.1-0.044-0.199-0.088-0.3-0.131
	l-0.005-0.685c-0.066-0.486-0.067-0.976-0.067-1.494c0-0.539-0.001-1.098-0.081-1.661c-0.011-0.076-0.001-0.108-0.002-0.109
	c0.004-0.003,0.034-0.028,0.128-0.049c0.949-0.209,1.897-0.423,2.845-0.638l0.146-0.033c-0.024,0.04-0.048,0.08-0.072,0.12
	c-0.185,0.313-0.369,0.626-0.545,0.943c-0.647,1.173-1.289,2.349-1.93,3.523L87.842,47.413z M5.121,112.991
	c0.295-1.629,0.583-3.213,0.86-4.798c0.278-1.595,0.578-3.062,0.916-4.482c0.021-0.089,0.04-0.147,0.056-0.186
	c0.041,0.013,0.102,0.038,0.188,0.081c1.26,0.638,2.526,1.262,3.793,1.885c0.975,0.479,1.948,0.959,2.919,1.443
	c0.041,0.021,0.099,0.051,0.158,0.081c-0.063,0.054-0.126,0.106-0.17,0.144c-1.478,1.229-2.963,2.451-4.448,3.672l-2.396,1.973
	c-0.518,0.428-1.034,0.859-1.548,1.29l-0.62,0.519L5.121,112.991z M21.477,58.745c-0.04-1.564-0.089-3.13-0.139-4.695
	c-0.052-1.65-0.105-3.3-0.145-4.95c-0.025-1.034-0.03-2.068-0.036-3.104c-0.004-0.935-0.009-1.87-0.029-2.804
	c-0.05-2.432-0.109-4.861-0.167-7.292l-0.121-5.109c-0.007-0.343-0.014-0.687-0.02-1.03c0.134,0.528,0.268,1.058,0.401,1.587
	l1.324,5.249c0.923,3.662,1.846,7.325,2.772,10.985c0.079,0.31,0.082,0.601,0.012,0.915c-0.739,3.32-1.473,6.641-2.206,9.962
	l-0.831,3.763c-0.248,1.123-0.497,2.246-0.747,3.367c-0.026-0.941-0.046-1.864-0.063-2.752l0.005-1.275
	C21.494,60.623,21.5,59.684,21.477,58.745z M24.507,72.856l-0.45,0.191l-0.292-0.188C24.014,72.858,24.261,72.858,24.507,72.856z
	 M70.272,49.5h0.014c0.003,0,0.005,0.221,0.008,0.441l0.008,0.475c0.059,4.096,0.116,8.707,0.172,13.217l0.019,1.483l-0.435,0.944
	c-0.037,0.081-0.074,0.155-0.111,0.236c-0.83-1.856-1.658-3.725-2.485-5.587l-3.093-6.957c-0.856-1.929-1.714-3.86-2.578-5.78
	c-0.08-0.177-0.125-0.342-0.133-0.491c-0.008-0.154,0.02-0.313,0.087-0.487c2.019-5.257,4.018-10.523,6.015-15.789
	c0.566-1.491,1.127-2.985,1.688-4.479l0.478-1.271c0.142,5.451,0.196,11.118,0.249,16.615l0.034,3.466
	c0.006,0.605,0.004,1.362,0.003,2.099l-0.002,1.181L70.272,49.5z M66.983,72.608c-0.985,0.42-1.967,0.848-2.945,1.283
	c-1.255-0.351-2.747-0.798-4.25-1.249c0.934-0.003,1.867-0.009,2.797-0.024c0.483-0.008,0.969-0.01,1.453-0.01l2.031,0.004
	C66.374,72.612,66.679,72.611,66.983,72.608z M50.446,54.431c1.285,1.122,2.57,2.244,3.844,3.379c3.258,2.906,6.952,6.2,10.649,9.42
	l1.277,1.121c0.522,0.461,1.045,0.921,1.571,1.377c-0.96-0.258-1.919-0.539-2.854-0.812c-0.54-0.158-1.08-0.316-1.622-0.472
	L46.72,63.716c-0.684-0.199-1.367-0.396-2.055-0.58c-0.109-0.029-0.139-0.056-0.14-0.056v0.001
	c-0.001-0.003-0.022-0.041-0.026-0.173c-0.031-1.062-0.068-2.124-0.105-3.187c-0.08-2.277-0.162-4.632-0.184-6.947
	c-0.005-0.525-0.005-1.052-0.006-1.577c-0.001-0.778-0.002-1.557-0.017-2.334C46.244,50.763,48.378,52.626,50.446,54.431z
	 M47.984,49.844c-0.678-0.596-1.347-1.202-2.016-1.81c1.392,0.017,2.69,0.037,4.049,0.058l1.482,0.024v0.054l4.201,0.003
	c1.178,0,2.389-0.002,3.49-0.011c0.511,0,0.68,0.154,0.78,0.405c0.71,1.782,1.533,3.554,2.327,5.268
	c0.412,0.889,0.826,1.776,1.223,2.668c0.847,1.896,1.656,3.828,2.438,5.695c0.77,1.838,1.54,3.675,2.357,5.512
	c-3.76-3.265-7.453-6.488-11.15-9.796c-1.991-1.781-4.003-3.539-6.015-5.297C50.095,51.693,49.038,50.771,47.984,49.844z
	 M60.292,45.78c-0.164,0.463-0.271,0.593-0.71,0.619c-0.416,0.026-0.818,0.064-1.28,0.034c-0.546-0.001-1.121-0.019-1.705-0.036
	c-0.631-0.019-1.272-0.038-1.901-0.038c-0.226,0-0.467,0.002-0.689,0.008c-0.4,0.012-0.506,0.01-1.506,0.007V46.5h-3.324
	c-1.233,0-2.257-0.09-3.479-0.095c1.299-1.289,2.658-2.595,3.975-3.817c0.746-0.692,1.492-1.407,2.232-2.108
	c2.203-2.089,4.401-4.191,6.6-6.284c2.059-1.959,4.117-3.924,6.182-5.881c1.109-1.053,2.229-2.097,3.349-3.138l-0.832,2.205
	c-1.187,3.152-2.413,6.411-3.661,9.598C62.54,39.536,61.538,42.249,60.292,45.78z M60.991,29.312l-0.375,0.354
	c-0.865,0.821-1.736,1.637-2.607,2.452c-0.708,0.663-1.417,1.326-2.122,1.993c-0.757,0.715-1.51,1.432-2.264,2.149
	c-1.134,1.08-2.268,2.16-3.411,3.229l-0.338,0.316c-1.882,1.759-3.826,3.577-5.746,5.462l-0.022-0.581
	c-0.036-0.905-0.072-1.811-0.081-2.717c-0.007-0.771,0.001-1.543,0.01-2.315c0.016-1.376,0.032-2.8-0.047-4.203
	c-0.04-0.693-0.047-1.387-0.054-2.079c-0.009-0.872-0.019-1.774-0.093-2.668c-0.026-0.307-0.016-0.376,0.433-0.502
	c3.229-0.915,6.455-1.844,9.675-2.787c2.869-0.84,5.737-1.687,8.605-2.534l4.527-1.335c-0.167,0.154-0.343,0.306-0.521,0.461
	c-0.268,0.231-0.534,0.463-0.785,0.71C64.2,26.269,62.596,27.789,60.991,29.312z M82.269,42.683
	c-0.098,0.03-0.181,0.046-0.248,0.046c-0.082,0-0.194,0-0.375-0.371c-0.534-1.096-1.064-2.194-1.592-3.294l-4.402-9.189
	c1.604,2.175,3.204,4.353,4.805,6.53l3.091,4.204l0.338,0.47c0.236,0.332,0.479,0.673,0.769,1.025
	C83.865,42.264,83.054,42.433,82.269,42.683z M79.932,42.991c0.097,0.224,0.194,0.446,0.31,0.661
	c0.045,0.084,0.066,0.161,0.066,0.243c0.002,0.087-0.019,0.187-0.062,0.314l-0.143,0.422c-0.229,0.173-0.422,0.433-0.59,0.787
	c-1.348,2.851-2.684,5.705-4.01,8.565c-1.111,2.398-2.215,4.8-3.318,7.231c-0.005-0.347-0.01-0.697-0.012-1.061
	c-0.01-1.025-0.012-1.7-0.012-2.791l0.006-4.865h-0.123l-0.025-2.363c-0.056-4.85-0.104-9.197-0.188-13.667
	c-0.033-1.777-0.095-3.753-0.158-5.554l-0.118-3.722c-0.006-0.241-0.005-0.511-0.002-0.758l0.007-0.466
	c0.002-0.139,0.004-0.28,0.006-0.42l8.181,17.028C79.812,42.714,79.872,42.853,79.932,42.991z M38.44,67.05
	c-0.253,0-0.514,0.278-0.815,0.409L28.501,71.5h-1.014l-2.007-0.168c0.519-0.189,1.038-0.458,1.56-0.638
	c1.64-0.566,3.282-1.168,4.923-1.73c2.058-0.703,4.116-1.427,6.171-2.14c1.981-0.688,3.929-1.421,5.404-1.974
	c0.095-0.035,0.173,0.045,0.246,0.04L43.675,64.5H43.5v0.281c0,0,0.282,0.01,0.359,0.032c3.978,1.141,8.037,2.273,12.017,3.407
	l5.386,1.523c1.386,0.395,2.789,0.794,4.172,1.194c-0.885,0.023-1.731,0.028-2.511,0.028l-2.94-0.007
	c-0.6,0-1.195,0.003-1.789,0.013c-0.459,0.007-0.958,0.01-1.456,0.01l-2.119-0.006l-0.644-0.222l-0.056-0.069l-0.165-0.04
	c-0.895-0.216-1.789-0.412-2.684-0.607c-1.491-0.326-3.033-0.664-4.542-1.096c-0.002-0.001-0.004-0.002-0.007-0.002h0l-0.063,0.222
	c-0.098-0.028-0.195-0.058-0.292-0.087c-1.593-0.471-3.188-0.941-4.797-1.383c-0.196-0.055-0.393-0.114-0.591-0.176
	C40.124,67.315,39.382,67.088,38.44,67.05z M63.879,96.946c0.769-1.561,1.563-3.172,2.406-4.719c0.37-0.68,0.704-1.377,1.038-2.076
	c0.531-1.111,1.08-2.26,1.771-3.291c0.409-0.609,0.303-1.307,0.225-1.814l-0.54-3.537c-0.089-0.576-0.181-1.152-0.273-1.728
	L68.3,78.483c-0.117-0.736-0.233-1.475-0.359-2.209c-0.075-0.439,0.059-0.777,0.271-1.242l10.82-23.599
	c0.555-1.214,1.109-2.427,1.672-3.636c0.005-0.012,0.01-0.022,0.016-0.034l1.453,3.542c1.234,3.002,2.455,6.01,3.67,9.021
	l1.013,2.517c0.44,1.091,0.881,2.182,1.311,3.277c2.003,5.105,4.097,10.273,5.88,14.654c0.193,0.475,0.184,0.777-0.039,1.202
	c-0.764,1.46-1.644,3.161-2.405,4.886c-0.285,0.645-0.7,1.015-1.433,1.277c-1.787,0.641-3.571,1.287-5.356,1.934
	c-1.538,0.558-3.075,1.115-4.614,1.668c-4.967,1.785-10.842,3.92-16.838,6.255C63.533,97.646,63.706,97.296,63.879,96.946z
	 M81.955,44.771c0.093-0.204,0.194-0.26,0.388-0.298c0.816-0.159,1.629-0.341,2.438-0.532c-0.299,0.598-0.596,1.195-0.893,1.793
	C83.275,45.458,82.605,45.139,81.955,44.771z M35.824,56.821c1.31-1.435,2.619-2.87,3.926-4.308
	c0.519-0.571,1.031-1.147,1.543-1.724c0.385-0.433,0.769-0.865,1.156-1.295l0.074,4.38c0.057,3.021,0.113,6.04,0.188,9.06
	c0.009,0.36-0.026,0.394-0.299,0.484c-7.13,2.382-12.949,4.384-18.222,6.271c0.065-0.067,0.133-0.141,0.207-0.221
	c2.146-2.4,4.292-4.802,6.454-7.187C32.505,60.459,34.164,58.64,35.824,56.821z M66.838,21.5H65.35
	c-2.284,0-4.615-0.208-6.869-0.203c-1.978,0.004-4.022-0.156-6.036-0.078c-1.702,0.065-3.438-0.014-5.116-0.011
	c-1.625,0.002-3.307-0.036-4.963,0.024c-2.233,0.08-4.507,0.079-6.706,0.097c-2.388,0.02-4.856,0.025-7.287,0.124
	C26.98,21.51,25.56,21.5,24.186,21.5h-0.164l3.541-1.704c3.638-1.755,7.376-3.458,10.992-5.107c2.584-1.18,5.168-2.357,7.81-3.592
	c0.091-0.036,0.216-0.084,0.333-0.18c0.355-0.289,0.692-0.423,1.061-0.423c0.4,0,0.846,0.151,1.491,0.507
	c4.721,2.601,9.46,5.494,14.199,8.062l3.894,2.437C67.173,21.5,67.006,21.5,66.838,21.5z M39.663,22.879
	c1.636-0.002,3.837-0.003,4.837-0.023v0.022l0.528-0.011c5.125-0.104,10.892-0.209,16.457-0.312l2.843-0.052
	c0.039,0,0.085,0.005,0.133,0.013c-0.567,0.161-1.133,0.323-1.699,0.488c-2.792,0.819-5.589,1.621-8.386,2.42
	c-1.921,0.549-3.845,1.084-5.77,1.619l-3.426,0.966l-0.174,0.007l-0.118,0.069c-0.331,0.195-0.682,0.321-1.07,0.385
	c-0.131,0.022-0.263,0.04-0.394,0.046l-0.136,0.002c-0.795,0-1.617-0.264-2.521-0.554c-3.399-1.093-6.945-2.173-10.375-3.218
	c-1.55-0.472-3.106-0.943-4.64-1.415C30.386,22.885,35.086,22.881,39.663,22.879z M22.576,26.777
	c1.831,1.939,3.688,3.854,5.545,5.767c1.409,1.451,2.818,2.902,4.215,4.365l1.298,1.359c2.535,2.653,5.07,5.308,7.596,7.97
	c0.016,0.017,0.033,0.033,0.05,0.051c-0.038-0.002-0.081-0.001-0.13-0.001c-1.744,0.064-3.486,0.154-5.228,0.245
	c-2.511,0.131-5.108,0.266-7.661,0.316c-0.173,0.003-0.345,0.023-0.517,0.045c-0.147,0.019-0.294,0.038-0.443,0.038
	c-0.063,0-0.128-0.004-0.275-0.028c-0.001-0.001-0.02-0.028-0.042-0.124c-0.4-1.729-0.821-3.454-1.26-5.175
	c-0.338-1.321-0.683-2.642-1.028-3.961c-0.349-1.334-0.698-2.668-1.039-4.003c-0.269-1.053-0.531-2.106-0.793-3.161
	c-0.339-1.364-0.678-2.729-1.033-4.091c-0.05-0.193-0.106-0.386-0.161-0.577c-0.008-0.029-0.017-0.059-0.025-0.088
	c0.127,0.141,0.253,0.286,0.38,0.434C22.206,26.368,22.388,26.577,22.576,26.777z M23.888,63.263
	c0.763-3.523,1.525-7.047,2.28-10.572c0.121-0.563,0.233-1.128,0.345-1.692c0.115-0.576,0.229-1.153,0.353-1.729
	c0.12-0.559,0.186-0.562,0.554-0.58l13.474-0.663c0.122-0.007,0.245-0.012,0.367-0.016l-2.166,2.389
	c-1.065,1.175-2.132,2.35-3.194,3.527L24.032,67.103c-0.428,0.475-0.859,0.946-1.292,1.416L23.888,63.263z M23.285,75.731
	l0.21-0.018l0.09-0.191c0.09-0.041,0.18-0.084,0.27-0.127c0.14-0.067,0.28-0.135,0.412-0.191l1.013-0.444
	c1.551-0.66,3.103-1.323,4.652-1.989l1.604-0.686c1.142-0.493,2.29-0.973,3.438-1.451c1.121-0.469,2.243-0.936,3.359-1.417
	c0.447-0.194,0.963-0.103,1.455,0.037l2.837,0.802c2.377,0.67,4.755,1.34,7.133,2.055l0.129,0.2c0.005,0.002,0.01-0.811,0.015,0.189
	c0.007,0,0.014,0,0.021,0c0.047,0,0.123-0.174,0.189-0.166c1.004,0.146,4.375,1.122,7.124,1.993
	c1.455,0.461,2.852,0.858,3.999,1.201c-0.278,0.029-0.557,0.037-0.834,0.068l-2.077,0.223c-2.279,0.256-4.558,0.506-6.835,0.786
	c-3.202,0.394-6.407,0.75-9.612,1.11c-2.182,0.245-4.363,0.487-6.544,0.743l-7.322,0.895c-2.329,0.297-4.657,0.603-6.984,0.911
	c-1.671,0.221-3.382,0.357-5.036,0.49c-1.356,0.107-2.758,0.219-4.138,0.378c-0.508,0.058-1.015,0.132-1.522,0.206
	c-0.022,0.003-0.045,0.006-0.068,0.01c0.923-0.449,1.852-0.877,2.774-1.249c2.159-0.87,4.341-1.817,6.452-2.734
	C20.755,76.815,22.021,76.267,23.285,75.731z M93.35,89.034c-0.113-0.445-0.092-0.734,0.081-1.07
	c0.749-1.461,1.598-3.117,2.35-4.777c0.236-0.521,0.571-0.869,1.087-1.125c3.114-1.547,6.228-3.211,9.238-4.82l2.206-1.177
	c3.722-1.98,7.449-3.948,11.178-5.916l4.34-2.292c-0.866,2.066-1.733,4.134-2.62,6.191c-1.383,3.209-2.77,6.417-4.156,9.625
	c-1.494,3.455-2.987,6.909-4.477,10.366c-2.154,5.003-4.305,10.009-6.455,15.014l-4.012,9.337c-0.239,0.557-0.485,1.109-0.731,1.663
	l-0.113,0.278c-0.453-1.756-0.901-3.514-1.346-5.273l-1.523-6.053C96.719,102.347,95.042,95.688,93.35,89.034z M120.218,67.379
	c-1.239,0.646-2.479,1.291-3.715,1.944c-4.069,2.148-8.137,4.303-12.203,6.456l-7.664,4.058c-0.186,0.098-0.404,0.213-0.531,0.266
	c-0.068-0.129-0.166-0.371-0.248-0.575l-3.115-7.743c-1.662-4.135-3.324-8.27-4.994-12.402l-0.737-1.808
	c-1.03-2.534-2.066-5.064-3.104-7.596l-1.062-2.597c-0.006-0.015-0.011-0.028-0.017-0.043c0.103,0.051,0.207,0.105,0.312,0.161
	c0.115,0.062,0.229,0.122,0.39,0.201l4.601,2.059c3.449,1.542,6.894,3.093,10.336,4.648l1.314,0.594
	c6.557,2.963,13.338,6.026,20.074,8.896c1.287,0.549,2.572,1.098,3.854,1.656C122.548,66.166,121.383,66.772,120.218,67.379z
	 M14.049,82.902c1.727-0.207,3.453-0.414,5.181-0.614c1.146-0.133,2.293-0.256,3.44-0.381c1.182-0.127,2.364-0.256,3.545-0.393
	l10.866-1.291c2.275-0.264,4.551-0.521,6.827-0.779c2.039-0.23,4.078-0.461,6.116-0.697c2.102-0.242,4.203-0.492,6.304-0.741
	l9.244-1.11c0.069-0.016,0.132-0.022,0.186-0.022c0.102,0,0.217,0,0.273,0.403c0.123,0.859,0.251,1.719,0.38,2.578l0.782,5.287
	c0.057,0.377-0.012,0.726-0.224,1.131l-0.922,1.756c-1.699,3.24-3.457,6.589-5.142,9.908c-0.473,0.931-1.054,1.337-2.073,1.447
	c-2.672,0.289-5.368,0.701-7.974,1.101c-0.961,0.147-1.922,0.294-2.884,0.437c-2.426,0.357-4.904,0.66-7.302,0.953
	c-1.487,0.183-2.975,0.364-4.46,0.561c-2.456,0.322-4.908,0.674-7.361,1.025l-1.32,0.188c-3.499,0.5-6.998,1.004-10.495,1.522
	c-0.257,0.036-0.425,0.097-0.712-0.38c-2.545-4.211-5.109-8.41-7.677-12.607c-1.027-1.679-2.062-3.352-3.097-5.025l-1.565-2.533
	c-0.106-0.172-0.21-0.346-0.309-0.521c2.095-0.234,4.19-0.468,6.284-0.714C11.324,83.229,12.687,83.065,14.049,82.902z M7.28,93.954
	c0.724,1.203,1.448,2.406,2.188,3.6c0.91,1.465,1.812,2.965,2.713,4.461c0.495,0.82,0.988,1.641,1.479,2.449
	c-0.152-0.1-0.308-0.193-0.469-0.268c-0.998-0.462-1.984-0.948-2.971-1.436c-0.876-0.432-1.752-0.863-2.635-1.277
	c-0.368-0.173-0.499-0.32-0.558-0.629c-0.571-2.969-1.277-5.955-1.96-8.843c-0.213-0.901-0.426-1.804-0.636-2.705
	C5.412,90.851,6.356,92.421,7.28,93.954z M64.581,104.454c0.682-1.335,0.521-1.794-0.434-2.789c-0.203-0.211-0.45-0.396-0.689-0.574
	c-0.344-0.258-0.771-0.578-0.738-0.758c0.096-0.131,0.679-0.271,0.992-0.346c0.288-0.069,0.573-0.139,0.812-0.228
	c7.674-2.836,15.353-5.659,23.031-8.483l3.454-1.27c0.147-0.055,0.309-0.113,0.423-0.148c0.037,0.115,0.083,0.292,0.134,0.488
	c1.747,6.695,3.479,13.561,5.292,20.989c0.572,2.344,1.16,4.684,1.747,7.023l0.934,3.745c-0.753-0.357-1.505-0.718-2.257-1.078
	c-1.147-0.551-2.295-1.101-3.448-1.639c-7.241-3.375-14.487-6.742-21.734-10.107c-1.49-0.691-2.983-1.375-4.478-2.061l-2.334-1.07
	l-0.179-0.097c-0.45-0.235-0.915-0.478-0.973-0.576C64.123,105.353,64.356,104.896,64.581,104.454z M90.975,40.688
	c-0.036,0.008-0.074,0.016-0.112,0.023c-0.692,0.144-1.383,0.3-2.072,0.456l-1.104,0.248c-0.121,0.026-0.159,0.056-0.255,0.085
	c-0.002-1.177,0.068-2.095,0.068-3.181v-2.188l0,0v-1.155c0-1.218-0.168-2.341-0.16-3.438c0.27,0.628,0.455,1.256,0.717,1.887
	c0.992,2.381,1.934,4.764,2.912,7.149C90.982,40.607,90.958,40.647,90.975,40.688z M81.81,24.278
	c-3.021-0.976-6.041-1.951-9.058-2.938c0.968-0.523,1.937-1.043,2.905-1.562c1.629-0.875,3.259-1.749,4.879-2.64
	c0.025-0.014,0.047-0.024,0.064-0.033c0.013,0.023,0.027,0.054,0.045,0.091c1.018,2.177,2.045,4.349,3.072,6.521l0.473,1
	c0.061,0.127,0.122,0.253,0.184,0.378C83.519,24.826,82.663,24.554,81.81,24.278z M79.346,15.633
	c0.038,0.029,0.072,0.057,0.102,0.081c-0.026,0.015-0.057,0.031-0.09,0.049c-2.611,1.397-5.229,2.783-7.849,4.164
	c-0.047,0.025-0.086,0.044-0.119,0.059c-0.01-0.062-0.021-0.146-0.029-0.265c-0.061-0.853-0.117-1.705-0.174-2.558
	c-0.053-0.805-0.106-1.609-0.163-2.414c-0.102-1.437-0.207-2.872-0.314-4.33l-0.127-1.733c0.934,0.743,1.865,1.49,2.796,2.236
	c0.918,0.736,1.837,1.472,2.758,2.205c0.667,0.53,1.341,1.054,2.015,1.576L79.346,15.633z M68.573,7.508
	c0.007,0.012,0.042,0.084,0.062,0.369c0.118,1.769,0.258,3.538,0.396,5.307c0.142,1.802,0.284,3.603,0.404,5.405
	c0.016,0.231,0.047,0.463,0.079,0.695l-0.082-0.07c-0.865-0.729-1.729-1.457-2.587-2.193c-2.428-2.083-4.853-4.168-7.278-6.254
	l-1.933-1.662C57.28,8.8,56.927,8.686,56.573,8.388C56.545,8.365,56.517,8.5,56.488,8.5c1.428,0,2.527,0,4.048,0H61.5v-1h3.212
	c1.15,0,2.314,0,3.352,0.003C68.228,7.503,68.532,7.504,68.573,7.508z M53.188,7.686c0.024,0,0.089,0.032,0.193,0.122
	c1.075,0.935,2.146,1.871,3.219,2.808c2.382,2.082,4.829,4.22,7.292,6.314c-2.467-1.295-4.921-2.614-7.375-3.934l-2.255-1.212
	c-1.481-0.795-2.961-1.593-4.435-2.398c0.697-0.361,1.396-0.718,2.096-1.074l1.135-0.58C53.142,7.689,53.179,7.686,53.188,7.686z
	 M45.135,9.719c-0.969,0.43-1.938,0.86-2.896,1.314c-2.228,1.056-4.472,2.074-6.717,3.094c-3.603,1.637-7.328,3.329-10.925,5.15
	l-0.29,0.15c0.293-0.293,0.59-0.581,0.883-0.865c0.324-0.314,0.648-0.63,0.967-0.95c1.583-1.59,3.172-3.174,4.762-4.758
	c1.691-1.686,3.595-3.371,5.279-5.063c0.336-0.338,0.301-0.47,1.301-0.47V6.829l-0.201,0.492c1.525,0.009,2.943,0.01,4.468,0.011
	c2.755,0.001,5.539,0.003,8.349,0.052C48.508,8.243,46.772,8.991,45.135,9.719z M8.123,115.312c-0.34,0.055-0.68,0.111-1.02,0.166
	c1.517-1.271,3.034-2.541,4.556-3.807c0.435-0.361,0.879-0.713,1.323-1.064c0.997-0.789,2.027-1.605,2.947-2.535
	c0.64-0.646,1.423-1,2.463-1.113c2.254-0.246,4.529-0.585,6.729-0.913c1.223-0.183,2.447-0.366,3.672-0.533
	c3.215-0.44,6.43-0.89,9.644-1.338l5.704-0.796c5.159-0.719,10.319-1.438,15.477-2.173c0.149-0.021,0.291-0.034,0.428-0.034
	c0.127,0,0.243,0.012,0.351,0.034l-0.278,0.476l0.444-0.429c0.211,0.077,0.392,0.212,0.567,0.416c0.518,0.6,1.138,1.134,1.636,1.563
	c0.177,0.152,0.171,0.174,0.06,0.352c-0.812,1.305-1.484,2.718-2.049,3.939c-0.131,0.283-0.303,0.329-0.84,0.405l-4.86,0.696
	c-2.224,0.316-4.447,0.635-6.67,0.957l-1.195,0.172c-5.158,0.746-10.316,1.492-15.471,2.255L30,112.266
	c-5.816,0.862-11.831,1.754-17.769,2.438C10.852,114.863,9.465,115.091,8.123,115.312z M57.536,4.636v0.496
	c1,0,0.301,0.018,0.355,0.064c0.228,0.195,0.587,0.383,0.822,0.569l-1.961,0.009c0.357-0.192,0.496-0.386,0.85-0.584
	c0.097-0.055-0.066-0.059-0.066-0.059V4.636L57.536,4.636z"/>
</svg>
