<?xml version="1.0" encoding="utf-8"?>
<!-- Generator: Adobe Illustrator 16.0.4, SVG Export Plug-In . SVG Version: 6.00 Build 0)  -->
<!DOCTYPE svg PUBLIC "-//W3C//DTD SVG 1.1//EN" "http://www.w3.org/Graphics/SVG/1.1/DTD/svg11.dtd">
<svg version="1.1" id="Layer_2503" xmlns="http://www.w3.org/2000/svg" xmlns:xlink="http://www.w3.org/1999/xlink" x="0px" y="0px"
	 width="128px" height="128px" viewBox="0 0 128 128" enable-background="new 0 0 128 128" xml:space="preserve">
<g id="YKYgH9.tif">
	<g>
		<path fill-rule="evenodd" clip-rule="evenodd" d="M109.977,42.823c0.189,10.339,0.529,20.673,0.924,31.001
			c0.096,2.53-0.576,4.215-2.273,6.01c-9.023,9.54-18.161,18.971-27.269,28.432c-5.575,5.79-11.161,11.57-16.755,17.342
			c-0.697,0.719-1.445,1.394-2.219,2.027c-0.937,0.768-1.741,0.694-2.524-0.354c-13.827-18.506-27.659-37.008-41.545-55.469
			c-1.235-1.643-1.498-3.09-0.959-5.127c2.453-9.277,4.663-18.618,7.01-27.922c2.819-11.18,5.688-22.347,8.535-33.519
			c0.3-1.178,0.568-2.366,0.915-3.531c0.21-0.705,0.082-1.685,1.154-1.845c0.978-0.146,1.35,0.695,1.857,1.254
			c1.158,1.275,2.268,2.594,3.401,3.89c9.306,10.643,18.639,21.261,27.884,31.957c1.066,1.234,1.691,1,2.739,0.165
			c11.449-9.121,22.922-18.213,34.393-27.307c0.73-0.579,1.467-1.165,2.262-1.644c1.406-0.846,1.951-0.547,1.979,1.05
			c0.172,9.69,0.334,19.38,0.49,29.069C109.998,39.809,109.977,41.316,109.977,42.823z M50.598,110.336
			c-0.157-0.146-0.313-0.293-0.47-0.439c-0.013-0.342-0.018-0.688-0.376-0.881c-0.085-0.66-0.521-1.15-0.837-1.694
			c-3.903-6.71-7.81-13.417-11.718-20.125c-3.091-5.304-6.187-10.606-9.278-15.911c-0.394-0.676-0.732-1.34-1.729-1.278
			c-1.479,0.092-2.965,0.093-4.448,0.091c-1.053-0.002-1.06,0.432-0.532,1.13c1.317,1.746,2.648,3.481,3.962,5.229
			c7.718,10.271,15.202,20.717,23.068,30.877c0.462,0.598,0.696,1.415,1.544,1.655c-0.021,0.355,0.116,0.642,0.38,0.874
			c0.156,0.146,0.312,0.293,0.469,0.439l0.055,0.092L50.598,110.336z M42.117,10.992c-0.037-0.028-0.073-0.057-0.109-0.085
			c0.047,0.018,0.095,0.035,0.142,0.053c0.081,0.871,0.549,1.596,0.937,2.338c3.691,7.06,7.398,14.111,11.111,21.16
			c1.772,3.365,3.586,6.709,5.339,10.085c0.51,0.982,0.977,1.179,1.877,0.393c1.489-1.296,3.061-2.499,4.61-3.725
			c1.64-1.297,1.65-1.292,0.325-2.807c-4.974-5.68-9.924-11.381-14.938-17.026C48.326,17.905,45.39,14.297,42.117,10.992z
			 M59.229,60.256c-0.248,1.42,0.616,1.762,1.312,2.225c7.236,4.818,14.47,9.64,21.709,14.454c1.625,1.081,1.652,1.077,2.286-0.81
			c4.681-13.923,9.354-27.849,14.028-41.774c2.314-6.893,4.627-13.787,6.941-20.68c0.109-0.327,0.427-0.749,0.18-0.973
			c-0.312-0.283-0.572,0.189-0.818,0.381c-4.396,3.439-8.764,6.919-13.188,10.323c-9.074,6.984-17.728,14.499-26.919,21.33
			c-2.577,1.916-4.937,3.783-4.497,7.443c0.016,0.132-0.072,0.273-0.09,0.413C59.844,55.252,59.517,57.916,59.229,60.256z
			 M29.458,65.309c-0.176,2.515-0.175,2.52,1.462,2.182c1.519-0.313,3.04-0.619,4.552-0.967c6.605-1.52,13.2-3.086,19.816-4.555
			c1.401-0.312,2.039-0.893,2.087-2.391c0.056-1.755,0.388-3.503,0.621-5.251c0.298-2.235,1.142-4.557,0.779-6.675
			c-0.364-2.124-1.901-4.054-2.96-6.049C49.75,30.183,43.676,18.768,37.591,7.358c-0.24-0.449-0.303-1.277-0.977-1.14
			c-0.498,0.102-0.35,0.851-0.407,1.323c-0.517,4.275-1.014,8.553-1.524,12.83c-0.611,5.12-1.253,10.236-1.838,15.359
			c-0.521,4.562-0.954,9.134-1.479,13.697C30.73,54.968,30.038,60.504,29.458,65.309z M59.973,117.473
			c-0.578-4.836-0.549-9.859-0.832-14.868c-0.702-12.413-1.203-24.838-1.782-37.258c-0.083-1.767-0.298-1.978-2.034-1.571
			c-8.237,1.927-16.462,3.904-24.705,5.805c-1.216,0.279-1.141,0.718-0.582,1.564c2.065,3.127,3.884,6.4,5.767,9.637
			c7.28,12.514,14.616,24.996,21.937,37.486c0.598,1.021,1.008,2.162,1.908,2.99C60.308,120.089,59.704,118.832,59.973,117.473z
			 M107.636,37.841c-0.071,0-0.142,0.001-0.212,0.001c0-3.111,0.03-6.223-0.008-9.333c-0.043-3.605-0.136-7.21-0.238-10.814
			c-0.01-0.352,0.196-0.89-0.348-1.007c-0.102-0.022-0.385,0.532-0.494,0.851c-1.31,3.803-2.605,7.611-3.898,11.42
			c-4.221,12.436-8.441,24.871-12.656,37.308c-1.201,3.544-2.357,7.103-3.586,10.637c-0.419,1.204-0.177,1.349,1.091,1.251
			c6.623-0.514,13.166-1.688,19.775-2.279c1.209-0.108,1.451-0.618,1.421-1.777C108.162,62.014,107.908,49.927,107.636,37.841z
			 M59.647,64.385c-0.855,0.096-0.527,0.754-0.515,1.135c0.151,4.516,0.257,9.037,0.544,13.547
			c0.496,7.75,0.852,15.506,1.199,23.265c0.267,5.925,0.591,11.847,0.906,17.769c0.024,0.461-0.091,1.149,0.467,1.258
			c0.404,0.078,0.523-0.574,0.714-0.941c0.064-0.126,0.133-0.25,0.196-0.375C69.57,107.23,75.979,94.42,82.396,81.613
			c0.874-1.743,0.92-1.777-0.772-2.889c-7.081-4.65-14.181-9.271-21.273-13.903C60.116,64.668,59.874,64.525,59.647,64.385z
			 M105.908,77.662c-1.119,0.147-2.096,0.299-3.077,0.404c-5.331,0.577-10.659,1.168-15.96,2.009
			c-1.274,0.202-1.925,0.763-2.48,1.913c-2.733,5.656-5.572,11.264-8.38,16.884c-3.597,7.2-7.201,14.399-10.799,21.6
			c-0.117,0.233-0.196,0.487-0.294,0.731c0.352,0.107,0.46-0.214,0.647-0.381c0.21-0.188,0.396-0.402,0.592-0.606
			c9.374-9.708,18.755-19.409,28.122-29.125c3.924-4.069,7.818-8.167,11.721-12.259c0.277-0.291,0.738-0.551,0.562-1.031
			C106.514,77.668,106.05,77.688,105.908,77.662z M33.55,14.895c-0.013-0.121-0.049-0.464-0.085-0.807
			c-0.34,0.229-0.296,0.627-0.38,0.95c-1.239,4.774-2.429,9.562-3.687,14.333c-2.247,8.521-4.231,17.108-6.587,25.601
			c-1.13,4.073-2.059,8.203-3.069,12.308c-0.205,0.834-0.088,1.414,1.014,1.207c1.677-0.316,3.38-0.279,5.075-0.258
			c1.142,0.016,1.679-0.463,1.781-1.586c0.57-6.256,1.318-12.49,2.103-18.722c0.731-5.812,1.351-11.637,2.024-17.456
			C32.331,25.349,32.928,20.233,33.55,14.895z"/>
	</g>
</g>
</svg>
