<?xml version="1.0" encoding="utf-8"?>
<!-- Generator: Adobe Illustrator 16.0.4, SVG Export Plug-In . SVG Version: 6.00 Build 0)  -->
<!DOCTYPE svg PUBLIC "-//W3C//DTD SVG 1.1//EN" "http://www.w3.org/Graphics/SVG/1.1/DTD/svg11.dtd">
<svg version="1.1" id="Layer_2508" xmlns="http://www.w3.org/2000/svg" xmlns:xlink="http://www.w3.org/1999/xlink" x="0px" y="0px"
	 width="128px" height="128px" viewBox="0 0 128 128" enable-background="new 0 0 128 128" xml:space="preserve">
<path d="M124.3,79.185l-0.455-5.043c-0.663-7.358-1.323-14.695-2.01-22.031c-0.048-0.495-0.229-0.956-0.421-1.443
	c-0.065-0.166-0.133-0.337-0.196-0.516l0.836-1.052l-12.743-26.775l-3.152,2.124l0.307-5.326l-5.999-1.115l-1.48,13.983
	l-2.853-2.001L86.03,4.24l-0.305,0.046c-2.083,0.318-3.883,0.592-5.399,2.252l-0.16,0.176l3.729,9.705
	c-2.459-1.787-4.785-3.683-7.043-5.524c-0.624-0.509-1.247-1.017-1.871-1.522c-0.654-0.528-1.303-1.064-1.955-1.601
	c-2.613-2.157-5.316-4.387-8.59-6.355l-0.315-0.189l-1.787,2.671L61.33,1.765L32.387,9.32l-0.116,2.552l-2.521-1.325l-3.916,4.828
	l4.352,3.685L6.742,35.965l3.409,5.849L0.056,66.454l1.265,0.434c0.525,0.179,0.974,0.332,1.418,0.494
	c0.43,0.158,0.854,0.326,1.347,0.521l0.193,0.076l-3.418,3.191l2.018,2.695l-2.4,2.247l19.084,24.453l2.456-2.035l-0.923,7.935
	l3.295,0.932l-2.899,2.473l4.72,4.438l0.26-0.204c0.636-0.497,1.243-0.728,1.91-0.728c0.565,0,1.152,0.168,1.652,0.332
	c4.899,1.609,9.896,3.193,14.729,4.726c2.984,0.945,5.969,1.892,8.95,2.849c0.429,0.138,0.882,0.272,1.313,0.272
	c0.678,0,1.171-0.334,1.495-1.017l1.797,4.005l2.862-1.159l-0.246,1.607l0.216,0.134c1.831,1.139,2.833,1.646,3.931,1.646
	c0.869,0,1.729-0.314,3.106-0.936c0.518-0.233,1.058-0.441,1.602-0.62c1.779-0.577,3.561-1.15,5.341-1.723
	c3.313-1.066,6.626-2.131,9.929-3.23c2.642-0.88,5.215-1.788,7.938-2.749c1.188-0.419,2.386-0.841,3.596-1.265l0.279-0.097
	l-0.141-1.933l2.387,0.825l3.943-3.504l0.03-0.021c2.101,0.04,2.34-0.255,2.859-2.12c0.369-1.323,0.728-2.648,1.099-4.014
	l0.35-1.295l2.366,1.247l0.2-0.23c4.335-5.021,8.31-10.111,12.516-15.501c1.729-2.214,3.468-4.442,5.243-6.677l0.22-0.275
	L124.3,79.185z M60.309,6.186l-25.343,6.854l-0.548-2.091L60.05,4.212L60.309,6.186z M120.955,80.599l1.293-0.076l-0.691,0.915
	L120.955,80.599z M50.232,96.738l11.686,24.02l-2.438,1.309L47.768,97.748L50.232,96.738z M4.97,75.252l16.438,21.013l-1.591,1.414
	L3.391,76.46L4.97,75.252z M22.408,54.011l1.023,1.669L4.571,72.326l-0.978-0.947L22.408,54.011z M21.313,52.252L8.297,64.345
	l7.795-20.594L21.313,52.252z M14.316,42.631L5.479,66.06l-2.552-0.837l9.345-23.48L14.316,42.631z M30.766,21.173l1.758,2.387
	L11.221,38.696l-1.58-2.323L30.766,21.173z M77.1,57.257l0.738-2.949l1.724,1.947L77.1,57.257z M117.787,49.823l-11.051-22.917
	l1.796-1.429l10.913,23.089L117.787,49.823z M112.916,82.361c-0.522-1.276-1.707-1.518-2.753-1.729
	c-1.174-0.239-1.947-0.446-2.272-1.424l3.234-1.281l6.406,8.75l-8.478,10.886l3.913-15.084L112.916,82.361z M80.8,95.685
	l-26.31,5.12l-0.96-2.033l27.161-5.015L80.8,95.685z M44.278,91.597l-16.275,12.955l2.492-21.833L44.278,91.597z M6.813,73.146
	v0.999c-0.262-0.248-0.314-0.415-0.314-0.507C6.498,73.481,6.638,73.305,6.813,73.146z M61.973,10.27
	c-1.875,6.598-4.191,12.856-6.642,19.475c-0.711,1.921-1.425,3.85-2.129,5.792l-2.074-0.897l8.978-24.999L61.973,10.27z
	 M72.838,57.046l7.021-27.225l2.299,0.684l-7.194,27.037L72.838,57.046z M108.82,58.577l-0.705-1.896l8.474,3.303l1.586,17.313
	l-12.454-16.576L108.82,58.577z M105.955,80.304l0.596,1.853L83.228,96.183l-0.246-1.888L105.955,80.304z M33.211,79.504
	l22.015,14.461l-1.017,1.645l-22.32-14.496L33.211,79.504z M36.162,78.902l0.922-0.429l0.085,1.064L36.162,78.902z M35.564,74.195
	l-0.182,2.727C31.907,76.528,28.39,76.261,24.984,76c-5.22-0.397-10.614-0.808-15.93-1.678l0.352-2.297L35.564,74.195z
	 M16.907,37.227L30.46,59.598l-1.45,1.109L15.17,38.449L16.907,37.227z M58.312,30.671c0.399,0.405,0.999,0.586,1.798,0.591
	l-3.311,0.953l0.99-2.59C57.876,30.06,58.05,30.405,58.312,30.671z M60.755,31.224c1.507-0.139,3.013-0.28,4.521-0.421
	c2.769-0.26,5.538-0.521,8.31-0.762c0.966-0.083,1.958-0.119,3.008-0.156c0.359-0.013,0.729-0.027,1.114-0.042l-6.423,24.875
	L60.755,31.224z M59.686,33.719l10.702,24.447l-1.879,0.83L57.593,34.307L59.686,33.719z M65.79,59.292l-0.905,1.804l-23.497-9.668
	l0.517-1.859L65.79,59.292z M43.429,47.902l12.275-7.635l-1.197-2.291l1.314-2.524l9.417,21.402L43.429,47.902z M56.579,69.51
	l-0.958-1.801l24.916-9.488l0.104,0.192c0.139,0.25,0.245,0.438,0.327,0.634c0.088,0.209,0.152,0.428,0.229,0.683l0.025,0.083
	L56.579,69.51z M81.22,71.046l0.956,1.803l-0.879-0.209L81.22,71.046z M81.159,69.8l-0.361-7.442l2.783-1.23l-0.025-0.275
	c-0.202-2.223-0.812-3.762-1.968-4.923l6.572-7.062l14.915,5.787L81.159,69.8z M104.345,79.5L82.646,92.44L82.3,92.149
	c-0.388-2.431-0.486-4.626-0.588-7.187c-0.076-1.852-0.153-3.463-0.35-5.463H104.345z M60.348,74.546
	c3.335,3.956,6.847,7.871,10.243,11.658c1.482,1.652,2.965,3.306,4.438,4.967c0.271,0.304,0.516,0.642,0.801,1.034
	c0.04,0.057,0.082,0.114,0.125,0.173l-2.684,0.525L55.676,72.688C57.651,72.357,58.912,72.844,60.348,74.546z M59.556,70.584
	l15.112-5.905l1.121,24.205L59.556,70.584z M77.09,63.806c0.317-0.154,0.568-0.276,0.814-0.356c0.117-0.038,0.273-0.04,0.512-0.045
	c0.045-0.001,0.091,0.324,0.142,0.323l1.28,28.772h-1.662c-0.514-5-0.671-10.688-0.821-15.732
	c-0.122-4.098-0.249-8.494-0.568-12.652C76.895,64.063,76.995,63.852,77.09,63.806z M57.797,92.985
	c-0.343-0.215-0.687-0.42-1.025-0.622c-0.808-0.481-1.57-0.937-2.26-1.483c-0.486-0.384-0.895-1.038-0.875-1.399
	c0.208-3.918,0.489-7.828,0.786-11.968l0.207-2.896L70.944,93.37l-14.333,2.642l1.489-2.837L57.797,92.985z M48.9,57.845
	l0.739,2.161l-7.97,3.478l-0.134-2.413L48.9,57.845z M41.141,59.053l-0.834-5.87l7.244,3.009L41.141,59.053z M38.164,53.231
	l3.658,25.82l-2.476,0.497l-3.438-25.936L38.164,53.231z M37.722,51.146l1.39-0.806c-0.141,0.792-0.303,0.812-1.084,0.812
	C37.956,51.154,37.83,51.149,37.722,51.146z M44.157,80.855L42.047,65.5l6.349-2.697L47.282,86.17l-7.086-4.622L44.157,80.855z
	 M52.971,63.5l-1.18,25.92c-2.481-0.906-2.473-1.263-2.331-3.894l0.008-0.263c0.258-4.822,0.484-9.697,0.709-14.52l0.289-6.178
	c0.02-0.416,0.046-0.438,0.076-0.924l0.032-0.142H52.971z M52.691,60.211l-1.098-2.383l11.783,4.776l0.183,0.032L55.5,65.803v-4.718
	L52.691,60.211z M36.191,72.166l-8.264-0.595l7.726-3.305L36.191,72.166z M33.63,53.422l1.245,8.26l-13.478,5.976l1.118,3.347
	l-11.998-0.979l14.111-12.569l3.856,5.795l4.703-2.889l-2.82-5.055L33.63,53.422z M34.987,63.874l0.357,2.3l-10.206,4.327
	l-1.247-1.64L34.987,63.874z M29.354,53.621l-1-1.398L51.811,38.12l1.141,1.512C46.141,44.092,38.623,48.548,29.354,53.621z
	 M80.5,75.887V75.5h27.923l0.129,1.207c-1.604,0.24-5.155,0.428-9.893,0.428l-0.259-0.07C90.473,77.064,83.5,76.338,80.5,75.887z
	 M105.873,57.259L84.495,72.132l-0.929-1.44l21.349-14.614L105.873,57.259z M59.433,25.081c0.257-0.745,0.506-1.465,0.751-2.167
	c0.663-1.906,1.289-3.708,1.864-5.513c0.6-1.883,1.159-3.811,1.7-5.675c0.185-0.637,0.37-1.274,0.556-1.91l1.746,1.359
	c1.621,1.258,3.241,2.517,4.844,3.8c3.056,2.445,6.301,5.082,9.543,8.124L59.433,25.081z M37.139,24.37l-8.584,25.004L26.417,47.8
	l8.841-24.941L37.139,24.37z M31.311,47.924l1.019-3.095c1.056-3.213,2.113-6.428,3.193-9.633c0.746-2.214,1.523-4.417,2.32-6.679
	c0.317-0.9,0.639-1.811,0.962-2.734l10.085,7.509l0.438-0.433l-0.941,2.664l2.147,1.255L31.311,47.924z M18.687,35.923l13.013-9.37
	l-6.955,19.988L18.687,35.923z M88.234,73.5l12.613-8.646l6.371,8.646H88.234z M89.768,47.219l1.184-1.399l25.199,9.946l0.155,1.845
	L89.768,47.219z M59.5,29.333V26.97l28-2.429v2.351L59.5,29.333z M91.746,34.831L79.793,47.787l4.809-18.657l0.118-0.009
	c0.447-0.033,1.046-0.077,1.641-0.146c0.54-0.062,1.079-0.146,1.642-0.233l0.469-0.071c0.276,0.58,0.485,1.204,0.706,1.859
	C89.697,32.085,90.234,33.69,91.746,34.831z M49.676,31.872c-0.075-0.114-0.145-0.235-0.216-0.354
	c-0.23-0.39-0.469-0.792-0.837-1.079c-1.129-0.876-2.28-1.725-3.43-2.574c-1.094-0.807-2.188-1.614-3.263-2.444
	c-3.271-2.529-6.522-5.088-9.771-7.646l-1.845-1.452c-0.373-0.294-0.729-0.612-1.126-0.968c-0.122-0.107-0.246-0.22-0.377-0.335
	l1.524-2.004l20.551,15.436L49.676,31.872z M24.474,78.07l-1.933,16.062c-3.529-4.229-6.856-8.521-10.374-13.058
	c-1.144-1.474-2.296-2.961-3.465-4.457L24.474,78.07z M29.033,78.46l-3.27,26.775l-2.29-0.122
	c0.842-9.401,2.171-18.711,3.365-26.751L29.033,78.46z M70.962,99.818l-7.802,18.86l-7.841-16.117L70.962,99.818z M77.532,98.503
	c1.764-0.569,2.916-0.634,4.313,0.386c4.347,3.17,8.725,6.129,13.36,9.262c1.626,1.099,3.265,2.207,4.916,3.333l-1.866,1.295
	L77.532,98.503z M84.055,97.997l21.8-12.979l0.081,0.069l-5.97,23.801L84.055,97.997z M103.978,62.011l15.865,21.522l-0.835,1.246
	L102.69,63.123L103.978,62.011z M121.967,77.93c-0.161,0.188-0.732,1.065-1.594,1.127L118.167,54.5h1.353
	c0.005,0,0.01-0.787,0.017-0.777c0.057,0.104,0.111-0.2,0.118-0.143l0.211,1.705c0.503,4.532,1.006,8.961,1.476,13.496
	c0.199,1.93,0.357,3.812,0.515,5.746l0.172,2.053C122.086,77.277,122.116,77.758,121.967,77.93z M104.076,48.755l1.579-19.102
	l10.312,21.476l-0.516,2.084L104.076,48.755z M104.264,21.235l-2.203,26.739l-2.383-1.022l2.619-26.189L104.264,21.235z
	 M92.496,44.193l5.909-6.444l-0.837,8.387L92.496,44.193z M80.478,53.927l-1.708-1.884l17.753-19.314l1.715,1.913L80.478,53.927z
	 M84.705,6.571l9.804,25.117l-2.369,0.5l-9.53-25.059L84.705,6.571z M63.306,5.847l1.519-1.68
	c7.11,5.386,14.031,10.729,20.515,16.72l-1.416,1.841L63.306,5.847z M61.887,8.097c0.426-0.107,0.75,0.027,1.048,0.297L61.887,8.097
	z M57.631,9.195l-5.975,17.167L36.266,14.87L57.631,9.195z M45.648,93.22l1.436,2.326L26.517,111.74l-2.007-1.789L45.648,93.22z
	 M63.194,123.895l9.939-24.083l2.271,0.809l-9.682,24.33L63.194,123.895z M70.508,118.631l6.974-17.654l14.863,10.395
	L70.508,118.631z M70.966,120.438c3.622-1.139,7.288-2.346,10.834-3.512l3.137-1.032c2.063-0.677,4.123-1.359,6.271-2.072
	l2.781-0.92l0.581,1.952l-25.954,8.714C68.948,121.71,69.601,120.866,70.966,120.438z M110.553,83.033l-6.732,26.319l-1.685-0.44
	l6.635-26.41L110.553,83.033z M125.065,82.861l-15.593,19.753l-1.154-0.81l15.611-19.929L125.065,82.861z M34.189,110.63
	c4.932,1.699,9.806,3.255,14.966,4.901c1.879,0.6,3.772,1.203,5.682,1.819l-0.203,2.062l-24.55-7.844
	C31.338,110.271,32.458,110.034,34.189,110.63z M34.188,108.415l11.899-9.439l7.696,15.859L34.188,108.415z"/>
</svg>
