<?xml version="1.0" encoding="utf-8"?>
<!-- Generator: Adobe Illustrator 16.0.4, SVG Export Plug-In . SVG Version: 6.00 Build 0)  -->
<!DOCTYPE svg PUBLIC "-//W3C//DTD SVG 1.1//EN" "http://www.w3.org/Graphics/SVG/1.1/DTD/svg11.dtd">
<svg version="1.1" id="Layer_2515" xmlns="http://www.w3.org/2000/svg" xmlns:xlink="http://www.w3.org/1999/xlink" x="0px" y="0px"
	 width="128px" height="128px" viewBox="0 0 128 128" enable-background="new 0 0 128 128" xml:space="preserve">
<g>
	<path fill-rule="evenodd" clip-rule="evenodd" d="M68.178,116.595c0-1.926-0.026-3.853,0.014-5.775
		c0.011-0.598-0.205-0.762-0.739-1.028c-1.267-0.615-2.626-0.929-3.955-1.146c-1.322-0.22-2.457-0.938-3.838-1.018
		c-1.19-0.07-2.365-0.666-3.517-1.105c-0.519-0.2-0.87-0.2-1.378,0.109c-2.596,1.579-5.233,3.088-7.857,4.613
		c-1.251,0.729-2.578,1.349-3.749,2.189c-0.972,0.696-2.127,0.999-3.094,1.684c-0.202,0.145-0.701,0.224-0.806,0.106
		c-0.773-0.876-1.905-0.17-2.833-0.729c-0.684-0.409-1.663-0.62-2.633-0.646c-1.056-0.025-1.285-0.655-0.897-1.725
		c0.068-0.196,0.264-0.412,0.169-0.584c-0.896-1.659-0.307-3.437-0.411-5.152c-0.102-1.698-0.037-3.405-0.014-5.107
		c0.01-0.716,0.02-1.112-0.988-1.207c-1.345-0.125-2.636-0.755-3.967-1.09c-1.341-0.338-2.683-0.65-4.017-1.026
		c-0.72-0.203-1.421,0.104-2.191,0.565c-2.242,1.336-4.512,2.641-6.809,3.896c-1.808,0.991-3.792,1.815-5.333,3.149
		c-1.168,1.015-2.419,1.025-3.45,0.7c-1.446-0.456-2.972-0.581-4.382-1.202c-0.839-0.37-1.92-0.304-0.867-1.589
		c-0.62-0.4-0.436-1.027-0.436-1.591c-0.005-5.404,0.008-10.811-0.019-16.213c-0.003-0.64,0.227-0.855,0.752-1.249
		c1.35-1.016,2.912-1.606,4.314-2.497c2.632-1.665,5.375-3.14,8.029-4.77c1.209-0.747,2.506-1.428,3.779-2.103
		c1.468-0.779,1.703-1.276,1.132-2.861c-0.126-0.35-0.239-0.673-0.213-1.018c0.177-2.258-0.75-4.437-0.451-6.702
		c-0.893-2.636-0.301-5.355-0.428-8.033c-0.083-1.772-0.003-3.553-0.021-5.33c-0.01-1.359,0.202-2.748,0.952-3.811
		c0.653-0.931,0.248-1.906,0.669-2.849c1.096-2.444,1.228-5.219,2.368-7.683c0.108-0.234,0.108-0.667-0.04-0.851
		c-0.713-0.899-0.731-2.101-1.317-3.005c-0.451-0.697-0.586-1.446-0.363-2.046c0.747-2.013,0.933-4.165,1.701-6.177
		c0.612-1.604,0.822-3.344,1.316-5.003c0.167-0.552,0.294-0.79,0.814-0.986c0.437-0.165,0.723-0.584,1.216-0.808
		c1.749-0.783,1.749-0.944,3.239-0.371c1.869,0.718,3.952,0.7,5.723,1.738c0.217,0.127,0.6,0.05,0.61-0.379
		c0.008-0.446-0.158-0.982,0.038-1.313c0.311-0.528,0.239-1.266,1.142-1.543c1.005-0.31,1.594-1.22,1.493-2.405
		c-0.038-0.441,0.076-0.907-0.024-1.328c-0.186-0.777,0.328-0.901,0.823-1.215c0.312-0.193,0.716-0.116,0.94-0.433
		c1.121-1.562,2.626-0.938,3.923-0.481c0.491,0.173,1.054,0.193,1.581,0.486c1.048,0.584,2.071,0.029,2.011-1.144
		c-0.071-1.367,0.794-1.71,1.626-2.188c0.22-0.126,0.538-0.084,0.751-0.335c0.674-0.795,1.378-0.629,2.288-0.284
		c0.889,0.335,1.849,0.842,2.862,0.562C53.853,7.138,53.954,8,54.478,7.465c0.372-0.376,0.397-0.756,0.366-1.19
		C54.781,5.39,54.98,4.845,55.98,4.505c0.604-0.207,1.329-0.454,1.835-0.896c0.609-0.535,1.21-0.347,1.82-0.192
		c1.469,0.375,2.923,0.8,4.387,1.197c1.994,0.544,3.981,1.141,5.997,1.601c1.82,0.414,3.559,1.118,5.377,1.484
		c1.635,0.331,3.167,1.018,4.78,1.32c1.581,0.294,3.073,0.78,4.599,1.238c1.314,0.396,2.688,0.656,4.029,1.013
		c2.335,0.626,4.732,1.065,7.019,1.833c1.511,0.508,3.055,0.872,4.587,1.222c1.153,0.263,2.188,0.871,3.389,0.987
		c0.474,0.043,0.816,0.491,0.818,1.105c0.007,1.99,0.672,3.89,0.986,5.831c0.284,1.735,0.48,3.556,1.156,5.269
		c0.31,0.787,0.268,1.78,0.473,2.684c0.308,1.355,0.344,2.769,0.923,4.068c0.055,0.123,0.015,0.292,0.005,0.441
		c-0.229,3.655,0.736,7.259,0.476,10.923c-0.055,0.743-0.372,1.624,0.384,2.269c-0.424,0.904-0.354,1.903-0.567,2.85
		c-0.239,1.083-0.582,2.155-0.709,3.252c-0.139,1.199-0.76,2.337-0.471,3.588c-0.871,1.266-0.4,2.692-0.393,4.035
		c0.003,0.808,0.47,1.601,0.407,2.482c-0.078,1.133,0.166,2.315-0.765,3.245c-0.296,0.296-0.185,0.718-0.088,1.034
		c0.101,0.332,0.532,0.112,0.774,0.217c2.486,1.079,5.176,1.433,7.759,2.172c2.848,0.822,5.69,1.715,8.616,2.277
		c1.005,0.193,1.959,0.68,2.971,0.841c0.948,0.156,1.176,0.634,1.166,1.479c-0.026,2.148-0.008,4.295-0.008,6.443
		c0,3.328-0.004,6.661,0.002,9.993c0,0.506,0.016,1.02,0.085,1.52c0.09,0.674-0.085,1.186-0.63,1.477
		c-3.468,1.845-6.855,3.848-10.214,5.863c-3.142,1.886-6.555,3.347-9.438,5.669c-1.728,0.396-3.021,1.626-4.556,2.4
		c-2.337,1.186-4.512,2.686-6.771,4.031c-1.187,0.703-2.422,1.317-3.599,2.037c-3.413,2.099-6.986,3.925-10.38,6.073
		c-1.965,1.244-4.113,2.221-6.103,3.478c-0.852,0.537-2.066,0.485-2.934,0.035c-1.135-0.592-2.446-0.458-3.538-1.127
		c-0.396-0.243-1.147,0.269-1.411-0.257c-0.21-0.414-0.051-1.012-0.051-1.529C68.176,119.852,68.178,118.222,68.178,116.595z
		 M20.191,74.922c-0.402,1.619,0.711,3.093,0.451,4.701c-0.054,0.344,0.134,0.452,0.486,0.539c2.28,0.56,4.57,1.094,6.811,1.788
		c1.514,0.47,3.07,0.749,4.58,1.258c2.283,0.774,4.676,1.227,7.02,1.828c1.342,0.345,2.71,0.632,4.028,1.014
		c1.526,0.441,3.022,0.93,4.591,1.244c1.616,0.321,3.194,0.867,4.771,1.345c1.446,0.439,2.934,0.701,4.376,1.207
		c2.134,0.75,4.39,1.169,6.578,1.811c2.707,0.797,5.549,1.133,8.175,2.254c0.109,0.045,0.308,0.006,0.404-0.07
		c0.337-0.271-0.132-0.299-0.162-0.464c-0.275-1.504-1.103-2.801-1.588-4.229c-0.336-0.989-1.107-2.017-0.671-2.976
		c0.303-0.658,0.437-1.271,0.316-1.846c-0.159-0.756,0.548-1.155,0.497-1.823c-0.051-0.663-0.222-1.429,0.026-1.98
		c0.913-2.036,0.786-4.258,1.194-6.369c0.265-1.36,0.894-2.775,0.535-4.236c-0.16-0.65,0.536-0.979,0.47-1.596
		c-0.062-0.578-0.228-1.363,0.066-1.724c0.737-0.911,0.183-1.342-0.275-2.057c-0.352-0.543-0.752-1.02-1.143-1.518
		c-0.782-0.993-1.511-2.06-2.119-3.13c-0.446-0.783-0.098-2.02-0.1-3.054c-0.002-2.22-0.048-4.445,0.023-6.661
		c0.029-0.904-0.449-1.917,0.41-2.716c0.071-0.065,0.058-0.313-0.008-0.422c-0.652-1.131-0.514-2.443-0.864-3.642
		c-0.364-1.266-0.671-2.577-0.828-3.857c-0.238-1.895-0.954-3.687-0.993-5.619c-0.017-0.836-0.721-1.595-1.523-1.704
		c-0.777-0.108-1.504-0.325-2.255-0.484c-2.64-0.552-5.209-1.36-7.803-2.076c-1.931-0.535-3.897-0.947-5.819-1.513
		c-1.587-0.468-3.211-0.779-4.79-1.285c-2.302-0.738-4.672-1.263-7.012-1.874c-1.912-0.499-3.958-0.671-5.72-1.712
		c-0.652,0.28-1.035-0.445-1.591-0.436c-1.159,0.027-2.156-0.521-3.218-0.782c-1.063-0.262-2.199-0.405-3.261-0.75
		c-0.298-0.096-0.517-0.337-0.492,0.145c0.026,0.441-0.526,0.506-0.466,0.93c0.206,1.464-0.691,2.697-0.998,4.045
		c-0.312,1.37-0.503,2.835-1.134,4.177c-0.283,0.607-0.302,1.492,0.317,2.252c0.496,0.607,0.545,1.571,1.013,2.22
		c0.451,0.626,0.542,1.312,0.249,1.805c-0.798,1.334-0.53,3.021-1.522,4.267c-0.119,0.145-0.141,0.4-0.136,0.604
		c0.039,1.651-0.75,3.102-1.171,4.63c-0.571,2.049-1.294,4.029-1.077,6.221c0.117,1.172,0.021,2.367,0.021,3.552
		c0,1.925,0.094,3.855-0.026,5.772c-0.123,1.974,0.794,3.84,0.475,5.815c-0.026,0.144-0.065,0.34,0.006,0.437
		c0.771,1.05,0.312,2.251,0.431,3.376C19.869,72.679,20.49,73.739,20.191,74.922z M18.462,77.481
		c-0.246-0.059-0.366,0.16-0.547,0.267c-2.085,1.213-4.223,2.343-6.255,3.642c-1.174,0.748-2.401,1.333-3.669,1.873
		c-0.221,0.094-0.286,0.328-0.229,0.55c0.03,0.123,0.165,0.325,0.232,0.318c1.321-0.127,2.42,0.612,3.63,0.911
		c2.547,0.625,5.086,1.294,7.628,1.939c2.005,0.509,3.968,1.173,5.987,1.646c1.604,0.373,3.201,0.819,4.796,1.25
		c2.333,0.632,4.627,1.394,7.011,1.878c1.673,0.341,3.395,0.694,4.994,1.312c1.872,0.718,3.934,0.769,5.717,1.74
		c3.264,0.339,6.263,1.769,9.502,2.295c1.373,0.224,2.746,0.871,4.131,1.215c1.413,0.349,2.732,1.217,4.284,0.934
		c2.016,1.153,4.389,1.128,6.505,1.983c1.338,0.541,2.651,0.745,4.027-0.179c1.653-1.107,3.505-1.912,5.218-2.911
		c2.267-1.322,4.472-2.759,6.771-4.034c1.686-0.938,3.359-1.902,5.03-2.862c0.095-0.052,0.145-0.182,0.218-0.275
		c-0.128-0.056-0.25-0.147-0.377-0.157c-0.358-0.021-0.659,0.13-0.998,0.261c-1.851,0.719-3.709,1.496-5.639,1.913
		c-2.912,0.623-5.683,1.666-8.495,2.566c-2.055,0.658-3.994,0.736-5.99,0.097c-0.305-0.098-0.543-0.363-0.94-0.422
		c-1.987-0.292-3.898-0.96-5.819-1.497c-2.591-0.724-5.211-1.334-7.805-2.04c-1.923-0.527-3.83-1.127-5.754-1.652
		c-2.394-0.653-4.802-1.268-7.206-1.896c-1.403-0.366-2.848-0.614-4.204-1.112c-2.787-1.02-5.702-1.62-8.556-2.35
		c-3.684-0.939-7.292-2.211-11.079-2.782c-1.321-0.2-1.709-0.856-1.724-2.235c-0.005-0.593-0.003-1.185,0-1.774
		C18.862,77.625,18.726,77.499,18.462,77.481z M75.253,84.044c0.087,0.784-0.115,1.312,0.164,1.781
		c0.434,0.73,0.724,1.461,0.817,2.348c0.064,0.637,0.356,1.586,1.474,1.304c0.529,0.905,1.74,0.001,2.323,0.869
		c0.093,0.138,0.669,0.022,0.565-0.382c-0.263-1.058,0.496-1.919,0.475-2.925c-0.028-1.07,0.299-2.139,0.347-3.151
		c0.102-2.142,0.256-4.297-0.28-6.489c-0.541-2.21,0.347-4.612-0.455-6.872c0.75-0.66,0.356-1.53,0.343-2.285
		c-0.017-0.819,0.726-1.418,0.489-2.262c-0.125-0.453,0.489-0.624,0.46-1.147c-0.077-1.403,0.026-2.813-0.04-4.216
		c-0.064-1.348,0.136-2.679-0.354-4.06c-0.377-1.05-0.119-2.344-0.062-3.523c0.055-1.162-0.654-2.173-0.489-3.375
		c0.149-1.089,0.261-2.28-0.035-3.304c-0.277-0.957-1.201-1.707-1.678-2.631c-0.248-0.487-0.625-0.789-0.965-1.146
		c-0.622-0.662-0.844-1.421-0.858-2.319c-0.042-2.394,0.767-4.731,0.454-7.14c-0.034-0.253,0.159-0.376,0.26-0.562
		c0.403-0.753,0.393-1.731,0.094-2.313c-0.247-0.473-1.319-0.538-2.038-0.739c-0.333-0.093-0.67-0.107-1.018-0.223
		c-1.76-0.589-3.538-1.179-5.354-1.536c-2.723-0.532-5.354-1.356-8.017-2.097c-1.929-0.538-3.883-0.978-5.82-1.495
		c-0.727-0.19-1.478-0.379-2.134-0.731c-0.777-0.421-1.798,0.318-2.421-0.593c-2.229-0.469-4.405-1.139-6.599-1.731
		c-2.535-0.684-5.024-1.591-7.658-1.923c-0.271-0.035-0.561-0.382-0.954-0.352c-0.232,0.016-0.468,0.039-0.533,0.265
		c-0.054,0.19-0.054,0.581,0.163,0.559c0.515-0.052,0.697,0.491,1.131,0.515c2.04,0.116,3.808,1.227,5.792,1.562
		c2.046,0.347,3.99,1.106,6.015,1.559c1.413,0.317,2.793,0.768,4.208,1.083c2.024,0.45,4.008,1.045,5.998,1.61
		c1.522,0.431,3.071,0.748,4.582,1.248c2.149,0.712,4.399,1.134,6.58,1.801c1.095,0.335,1.876,0.794,1.925,1.824
		c0.079,1.634,0.732,3.151,0.876,4.741c0.174,1.905,1.042,3.682,0.927,5.62c0.963,0.654,0.151,1.756,0.69,2.612
		c0.537,0.852,0.206,2.001,0.182,3.014c-0.045,1.719,0.093,3.419-0.351,5.163c-0.372,1.458-0.069,3.088-0.081,4.64
		c-0.002,0.375,0.021,0.689,0.34,0.978c1.222,1.1,1.719,2.757,2.811,3.917c1.196,1.272,0.741,2.708,0.854,4.105
		c-0.766,0.717-0.16,1.723-0.49,2.461c-0.376,0.837-0.394,1.647-0.401,2.5c0,0.295,0.126,0.726-0.022,0.862
		c-0.907,0.838,0.077,2.191-0.865,2.987c0.33,1.61-0.627,3.098-0.454,4.698c0.033,0.28,0.022,0.596-0.08,0.849
		C75.521,81.39,75.613,82.896,75.253,84.044z M93.49,24.311c0.063-1.341-0.057-1.583-1.133-1.91
		c-0.927-0.283-1.903-0.401-2.832-0.671c-1.784-0.52-3.587-0.987-5.37-1.482c-1.319-0.366-2.686-0.71-4.043-1.01
		c-1.399-0.307-2.762-0.964-4.144-1.194c-2.005-0.333-3.871-1.101-5.85-1.505c-1.525-0.311-3.08-0.681-4.586-1.219
		c-2.07-0.738-4.244-1.195-6.369-1.761c-2.669-0.711-5.34-1.403-7.999-2.155c-1.192-0.339-2.46-0.388-3.609-0.945
		c-0.179-0.087-0.334,0.245-0.248,0.432c0.119,0.249,0.311,0.63,0.502,0.652c1.327,0.152,2.346,1.347,3.788,1.08
		c0.274-0.051,0.61-0.051,0.858,0.061c2.085,0.928,4.332,1.333,6.497,2c1.981,0.611,4.063,0.894,6.043,1.511
		c2.43,0.758,4.91,1.339,7.354,2.056c1.182,0.348,2.357,0.845,3.582,1.004c2.219,0.288,4.311,1.055,6.45,1.611
		c2.468,0.642,4.915,1.373,7.397,1.959c0.619,0.146,1.062,0.405,1.058,1.118c-0.005,0.593,0,1.186,0,1.776c0,0.591,0,1.184,0,1.777
		c0,0.519-0.045,1.042,0.011,1.554c0.06,0.569-0.253,1.199,0.154,1.705c0.33,0.407-0.138,0.849,0.223,1.337
		c0.281,0.387,0.056,1.145,0.056,1.736c0,2.444,0,4.887,0,7.329c0,0.445-0.115,0.926,0.019,1.328
		c0.781,2.373,1.323,4.797,1.814,7.248c0.418,2.09,0.536,2.859,0.022,4.788c-0.232,0.88,0.17,1.883-0.524,2.67
		c1.007,0.95,0.189,2.302,0.805,3.453c0.525,0.982,0.066,2.334,0.437,3.574c0.324,1.099,0.375,2.373,0.498,3.569
		c0.42,4.09-0.502,8.153-0.397,12.247c0.007,0.35-0.293,0.488-0.382,0.733c-0.235,0.64-0.032,1.68,0.184,1.547
		c0.449-0.273-0.045-0.867,0.325-1.184c0.246-0.21,0.361-0.439,0.312-0.761c-0.275-1.754,0.763-3.391,0.447-5.148
		c-0.037-0.212-0.053-0.468,0.032-0.65c0.685-1.516,0.64-3.178,0.793-4.76c0.18-1.857,0.826-3.684,0.509-5.588
		c-0.019-0.124,0.026-0.298,0.105-0.395c0.638-0.778,0.325-1.693,0.3-2.529c-0.028-0.888,0.704-1.583,0.484-2.485
		c-0.051-0.209,0.087-0.545-0.021-0.646c-0.773-0.694-0.487-1.733-0.771-2.571c-0.253-0.738-0.406-1.672-0.708-2.38
		c-0.363-0.855-0.373-1.762-0.642-2.613c-0.26-0.822-0.841-1.698-0.533-2.674c-0.714-0.456-0.163-1.333-0.511-1.772
		c-0.59-0.745,0.354-1.219,0.112-1.911c-0.21-0.592-0.307-1.507,0.011-1.945c0.688-0.955,0.016-2.058,0.524-2.904
		c0.597-0.99,0.135-2.003,0.308-2.984c0.072-0.414,0.025-0.792,0.251-1.233c0.575-1.124,0.14-2.212-0.605-3.133
		c-0.462-0.573-1.009-1.085-1.568-1.568c-0.342-0.297-0.435-0.716-0.275-0.981C93.654,27.798,92.404,25.751,93.49,24.311z
		 M85.948,33.616c0-1.406-0.081-2.82,0.029-4.217c0.076-0.972-0.799-1.715-0.494-2.71c0.057-0.177-0.348-0.22-0.444-0.322
		c-0.619-0.667-1.487-0.304-2.202-0.615c-2.148-0.94-4.485-1.313-6.73-1.955c-2.049-0.584-4.118-1.167-6.197-1.681
		c-1.942-0.483-3.868-1.041-5.816-1.495c-2.022-0.47-4.042-1.001-6.028-1.562c-2.521-0.71-5.089-1.264-7.581-2.049
		c-1.331-0.419-2.697-0.637-4.01-1.04c-2.164-0.665-4.437-0.982-6.501-1.987c-0.299-0.146-0.726-0.015-1.094-0.04
		c-0.269-0.021-0.414,0.104-0.464,0.334c-0.048,0.224,0.068,0.574,0.224,0.534c0.595-0.165,0.841,0.431,1.366,0.526
		c1.688,0.314,3.358,0.771,5.014,1.262c2.181,0.646,4.387,1.21,6.588,1.788c2.538,0.664,5.088,1.299,7.629,1.949
		c2.006,0.514,3.977,1.139,5.985,1.656c1.522,0.396,3.08,0.673,4.588,1.225c2.057,0.752,4.239,1.263,6.37,1.736
		c1.902,0.419,3.718,1.143,5.642,1.448c0.603,0.097,1.308,0.283,1.735,0.583c0.685,0.479-0.142,1.119-0.271,1.703
		c-0.016,0.07,0,0.147-0.002,0.221c-0.027,1.727,0.038,3.438-0.408,5.155c-0.371,1.447,0.394,3.051-0.429,4.491
		c0.964,1.109,1.544,2.482,2.523,3.593c0.233,0.263,0.368,0.732,0.667,1.04c0.145,0.149,0.334,0.255,0.323,0.536
		c-0.029,0.738,0.071,1.492-0.033,2.217c-0.113,0.772,0.532,1.251,0.518,2.039c-0.036,1.937-0.107,3.862,0.312,5.828
		c0.415,1.939-0.029,4.016,0.493,6.024c0.404,1.56-0.509,3.078-0.515,4.65c-0.657,0.521-0.353,1.256-0.305,1.855
		c0.06,0.769-0.539,1.253-0.527,2.04c0.036,3.278,0.806,6.517,0.495,9.809c-0.022,0.21-0.008,0.401,0.168,0.597
		c0.559,0.627,0.472,1.555,0.215,2.076c-0.76,1.542,0.072,3.296-0.812,4.778c-0.125,0.207-0.091,0.593,0.256,0.728
		c0.575,0.228,1.273-0.206,1.508-0.841c0.917-2.475,1.16-5.064,1.32-7.666c0.063-1.1-0.242-2.312,0.122-3.285
		c0.547-1.46,0.463-2.931,0.251-4.292c-0.29-1.875-0.831-3.711-0.816-5.639c0.001-0.278-0.038-0.569-0.124-0.833
		c-0.441-1.343-0.493-2.756-0.751-4.13c-0.289-1.527,0.555-2.936,0.522-4.479c-0.017-0.67,0.653-1.426,0.113-2.149
		c-0.555-0.747,0.299-1.799-0.613-2.418c-0.454-1.81-1.141-3.597-1.309-5.434c-0.233-2.59,0.026-5.213-0.458-7.812
		C85.761,36.167,85.948,34.874,85.948,33.616z M103.274,41.178c0-1.258,0.236-2.573-0.051-3.763
		c-0.516-2.176-0.884-4.375-1.358-6.55c-0.22-0.992-0.082-2.04-0.438-2.914c-0.402-0.985-0.628-2.002-0.771-3
		c-0.159-1.121-0.695-2.164-0.543-3.37c0.066-0.542-0.347-1.16-0.44-1.8c-0.119-0.797-0.755-1.235-1.656-1.423
		c-1.954-0.409-3.887-0.956-5.813-1.498c-2.85-0.802-5.651-1.791-8.536-2.433c-3.781-0.843-7.448-2.058-11.191-3.015
		c-2.341-0.6-4.649-1.332-7.001-1.864c-2.566-0.582-5.076-1.312-7.571-2.122c-0.436-0.142-0.812-0.25-1.203,0.01
		c-0.181,0.121-0.42,0.291-0.451,0.469c-0.038,0.225,0.27,0.193,0.432,0.28c0.868,0.458,1.79,0.692,2.746,0.886
		c1.424,0.289,2.863,0.574,4.229,1.052c1.962,0.689,4.011,1.03,5.99,1.627c1.586,0.479,3.207,0.808,4.791,1.292
		c2.107,0.644,4.217,1.335,6.375,1.753c2.592,0.502,5.06,1.438,7.646,1.966c1.532,0.312,3.019,0.929,4.6,1.218
		c1.618,0.298,3.127,1.073,4.782,1.307c0.822,0.116,1.342,0.901,0.89,1.56c-0.448,0.651-0.268,1.25-0.335,1.871
		c-0.064,0.576,0.038,1.188-0.102,1.739c-0.713,2.79-0.637,3.188,1.164,4.998c0.104,0.105,0.203,0.217,0.316,0.315
		c0.786,0.672,1.245,1.434,0.555,2.424c-0.146,0.206-0.191,0.394-0.16,0.599c0.269,1.755-0.769,3.391-0.455,5.148
		c0.036,0.214,0.042,0.451-0.005,0.662c-0.938,4.212-0.902,4.205-0.465,7.009c0.1,0.634,0.402,1.188,0.55,1.791
		c0.389,1.603,0.807,3.208,1.236,4.805c0.478,1.762,1.147,3.51,0.911,5.401c-0.019,0.147-0.032,0.306,0.008,0.442
		c0.035,0.113,0.155,0.2,0.234,0.301c0.068-0.121,0.199-0.246,0.192-0.362c-0.101-1.371,0.36-2.676,0.67-3.959
		c0.154-0.65-0.041-1.357,0.262-1.872c0.402-0.678,0.347-1.353,0.42-2.057C104.044,47.101,103.079,44.171,103.274,41.178z
		 M80.617,113.491c0,1.477-0.005,2.956,0.002,4.436c0.004,0.428,0.135,0.397,0.488,0.188c1.181-0.697,2.409-1.312,3.608-1.984
		c2.399-1.338,4.805-2.682,7.17-4.066c2.496-1.464,4.979-2.967,7.514-4.366c0.205-0.113,0.344-0.211,0.328-0.477
		c-0.014-0.267-0.139-0.418-0.383-0.413c-1.572,0.041-2.949-0.823-4.505-0.955c-0.539-0.046-1.658-0.252-1.339-1.433
		c-0.669-0.394-0.118-0.821,0.02-1.176c0.201-0.528-0.55-0.829-0.264-1.29c0.442-0.705-0.312-0.54-0.394-0.46
		c-0.669,0.647-1.588,0.839-2.345,1.344c-2.121,1.414-4.303,2.77-6.585,3.893c-0.928,0.459-1.72,1.137-2.703,1.496
		c-0.475,0.174-0.658,0.678-0.634,1.274C80.659,110.829,80.617,112.16,80.617,113.491z M105.941,98.983
		c0,1.401-0.013,2.805,0.006,4.207c0.007,0.688,0.239,0.313,0.589,0.164c2.412-1.029,4.57-2.515,6.841-3.793
		c2.705-1.52,5.413-3.037,8.012-4.74c0.15-0.095,0.519-0.046,0.507-0.246c-0.01-0.213-0.341-0.166-0.542-0.225
		c-0.326-0.097-0.502-0.419-0.926-0.456c-1.243-0.109-2.346-0.783-3.619-0.891c-1.155-0.095-1.492-0.556-1.545-1.487
		c-0.047-0.942,0.171-1.896-0.115-2.828c-1.006,0.117-1.549,1.025-2.439,1.393c-2.163,0.896-3.927,2.529-6.108,3.437
		c-0.44,0.18-0.709,0.636-0.679,1.258C105.987,96.173,105.941,97.58,105.941,98.983z M13.085,97.747
		c0.173,0.677-0.32,1.577,0.232,2.38c0.714-0.418,1.391-0.938,2.153-1.229c0.977-0.378,1.639-1.301,2.732-1.463
		c0.235-0.034,0.587-0.389,0.595-0.604c0.011-0.332-0.441-0.194-0.672-0.312c-1.37-0.703-2.948-0.688-4.364-1.252
		c-0.376-0.15-0.707,0.013-0.684,0.543C13.104,96.399,13.085,96.992,13.085,97.747z M45.518,106.055c0,0.66,0.018,1.317-0.008,1.976
		c-0.016,0.518,0.355,0.735,0.666,0.521c1.358-0.938,2.792-1.723,4.258-2.463c0.232-0.118,0.468-0.348,0.417-0.698
		c-0.06-0.412-0.367-0.323-0.643-0.373c-0.953-0.174-1.979-0.215-2.807-0.639c-0.556-0.286-1.335,0.039-1.689-0.661
		c-0.368,0.601-0.126,1.267-0.193,1.896C45.504,105.761,45.518,105.907,45.518,106.055z M102.412,66.442
		c-0.627-0.67-0.435-1.617-0.478-2.531c-0.019-0.347,0.205-0.927-0.164-0.985c-0.457-0.076-0.248,0.637-0.573,0.939
		c-0.231,0.214-0.157,0.814-0.135,1.238c0.101,1.797-0.755,3.51-0.464,5.325c0.02,0.106-0.096,0.265-0.187,0.354
		c-0.313,0.305-0.364,0.6-0.03,0.912c0.224-0.268,0.572-0.51,0.642-0.814c0.094-0.417,0.335-0.828,0.384-1.155
		C101.561,68.61,102.217,67.68,102.412,66.442z M100.165,76.377c0-0.513-0.003-1.023,0.005-1.535
		c0.001-0.218-0.026-0.417-0.289-0.387c-0.067,0.007-0.134,0.228-0.157,0.357c-0.18,1.104,0.432,2.313-0.44,3.327
		c0.111,0.077,0.213,0.191,0.332,0.22c0.222,0.055,0.515-0.021,0.532-0.229C100.201,77.55,100.165,76.961,100.165,76.377z
		 M100.605,73.427c-0.06-0.228,0.175-0.599-0.158-0.747c-0.225-0.099-0.312,0.16-0.277,0.374c0.043,0.268-0.171,0.638,0.159,0.782
		C100.552,73.936,100.629,73.682,100.605,73.427z"/>
</g>
</svg>
