<?xml version="1.0" encoding="utf-8"?>
<!-- Generator: Adobe Illustrator 16.0.4, SVG Export Plug-In . SVG Version: 6.00 Build 0)  -->
<!DOCTYPE svg PUBLIC "-//W3C//DTD SVG 1.1//EN" "http://www.w3.org/Graphics/SVG/1.1/DTD/svg11.dtd">
<svg version="1.1" id="Layer_2516" xmlns="http://www.w3.org/2000/svg" xmlns:xlink="http://www.w3.org/1999/xlink" x="0px" y="0px"
	 width="128px" height="128px" viewBox="0 0 128 128" enable-background="new 0 0 128 128" xml:space="preserve">
<g>
	<path fill-rule="evenodd" clip-rule="evenodd" d="M57.956,22.496c0-4.901,0.012-9.804-0.013-14.706
		c-0.004-0.698,0.126-0.851,0.904-1.075c1.668-0.483,3.389-0.708,5.052-1.217c2.384-0.731,4.919-0.869,7.284-1.784
		c0.749-0.291,1.644-0.131,2.494-0.422c0.825-0.283,1.783,0.087,2.704,0.328c3.283,0.854,6.424,2.189,9.788,2.778
		c0.909,0.16,1.835,0.589,2.736,0.905c0.739,0.258,1.686,0.591,1.668,1.925c-0.011,0.766,0.889,1.522,1.312,2.318
		c0.612,1.154,1.149,2.346,1.747,3.509c0.567,1.104,1.178,2.185,1.754,3.283c0.606,1.16,1.192,2.329,1.785,3.495
		c0.358,0.712,0.465,1.459,0.461,2.266c-0.025,6.833-0.006,13.665-0.025,20.498c-0.004,1.301,0.149,2.509,0.702,3.727
		c0.361,0.794,0.804,1.661,0.649,2.629c-0.031,0.211-0.065,0.488,0.036,0.646c1.04,1.619,1.287,3.498,1.722,5.302
		c0.424,1.755,1.01,3.461,1.445,5.214c0.343,1.375,0.797,2.774,1.219,4.155c0.189,0.621,0.456,1.17,0.815,1.666
		c0.446,0.619,1.307,0.605,1.901,0.727c1.646,0.332,3.199,0.906,4.799,1.342c1.532,0.42,3.079,0.834,4.627,1.199
		c1.423,0.334,2.831,0.693,4.237,1.084c2.266,0.637,4.562,1.176,6.831,1.805c1.216,0.336,1.323,0.527,1.324,1.732
		c0.01,2.301,0.054,4.605-0.02,6.904c-0.029,0.904,0.429,1.889-0.396,2.738c-0.284,0.293,0.396,0.635,0.386,0.904
		c-0.044,1.98,0.327,3.992-0.217,5.92c-0.112,0.404,0.73,0.91-0.143,1.123c0.764,0.92,0.2,1.191-0.614,1.645
		c-2.364,1.309-4.56,2.963-7.005,4.088c-1.648,0.762-3.128,1.783-4.674,2.662c-3.368,1.926-6.863,3.652-10.045,5.904
		c-1.016,0.721-2.357,0.91-3.221,1.9c-2.527,0.844-4.546,2.615-6.881,3.818c-2.646,1.363-5.103,3.086-7.72,4.508
		c-2.196,1.193-4.262,2.623-6.472,3.742c-1.538,0.781-3.021,1.684-4.512,2.516c-1.227,0.688-2.146,0.771-3.39,0.387
		c-1.458-0.451-2.972-0.744-4.479-1.012c-0.51-0.092-0.801-0.105-0.771-0.732c0.051-1.037,0.014-2.08,0.014-3.119
		c0-2.822,0.01-5.645-0.004-8.465c-0.006-1.16-0.213-1.268-1.311-1.547c-0.997-0.256-2.007-0.535-2.997-0.801
		c-1.872-0.504-3.769-0.973-5.668-1.398c-0.141-0.033-0.322,0.047-0.438-0.016c-0.869-0.443-1.851-1.189-2.709-0.781
		c-0.779,0.371-1.651,0.816-2.307,1.383c-0.829,0.715-1.784,1.254-2.712,1.557c-0.99,0.32-1.66,1.016-2.514,1.463
		c-2.331,1.223-4.581,2.613-6.78,4.062c-0.585,0.383-1.165,0.48-1.633,0.311c-1.713-0.613-3.473-0.977-5.25-1.314
		c-0.642-0.119-0.901-0.584-0.894-1.283c0.035-2.822,0.015-5.643,0.015-8.465c0-0.596-0.144-1.238,0.038-1.77
		c0.2-0.586-0.653-0.867-0.21-1.512c0.24-0.348-0.305-0.695-0.705-0.762c-2.609-0.426-5.059-1.455-7.622-2.045
		c-0.834-0.193-1.542-0.246-2.441,0.189c-2.06,1.004-3.98,2.223-5.958,3.359c-1.255,0.719-2.558,1.357-3.823,2.059
		c-1.03,0.572-2.053,1.16-3.049,1.783c-1.659,1.037-2.112,1.053-3.964,0.586c-1.345-0.34-2.705-0.607-4.04-1.006
		c-0.464-0.139-0.774-0.096-0.771-0.732c0.024-6.311,0.029-12.627-0.006-18.938C0,85.02,0.243,84.568,0.686,84.369
		c1.712-0.764,3.217-1.881,4.865-2.764c3.419-1.828,6.684-3.947,10.034-5.916c1.189-0.699,2.441-1.289,3.618-2.029
		c0.961-0.607,1.349-1.303,1.345-2.463c-0.041-11.287-0.023-22.576-0.023-33.864c0-0.52,0.014-1.04-0.008-1.559
		c-0.013-0.274,0.155-0.508,0.335-0.444c0.938,0.328,1.645-0.39,2.489-0.515c1.927-0.284,3.853-0.653,5.75-1.137
		c1.227-0.312,2.662-0.116,3.727-0.674c1.161-0.608,2.474,0.125,3.515-0.726c0.068-0.057,0.699,0.267,1.085,0.393
		c2.247,0.735,4.607,1.039,6.838,1.783c1.908,0.638,3.901,0.885,5.801,1.58c1.945,0.711,4.031,1.044,6.066,1.485
		c0.427,0.093,0.832,0.052,1.177,0.432c0.148,0.16,0.612,0.099,0.647-0.306c0.041-0.517,0.009-1.039,0.009-1.56
		C57.956,31.557,57.956,27.025,57.956,22.496z M23.643,59.589c0,2.97,0,5.942,0,8.909c0,3.342,0.014,6.682-0.015,10.021
		c-0.006,0.604,0.24,0.744,0.737,1.035c1.062,0.627,2.253,0.664,3.367,1.021c1.909,0.617,3.905,0.957,5.821,1.549
		c1.52,0.467,3.078,0.754,4.595,1.254c2.16,0.713,4.417,1.129,6.603,1.807c2.441,0.758,4.984,1.193,7.388,2.072
		c0.526,0.193,0.991,0.127,1.479,0.174c0.138,0.014,0.486-0.131,0.145-0.373c-0.381-0.277-0.356-0.746-0.593-1.104
		c-0.984-1.498-2.037-2.982-2.536-4.732c-0.309-1.07-0.435-2.191-0.715-3.271c-0.183-0.711-0.489-1.395-0.744-2.09
		c-1.664-0.486-2.66-2.043-4.239-2.664c-0.906-0.359-1.044-1.221-0.743-1.799c0.479-0.922,0.088-1.936,0.453-2.711
		c0.476-1.008,0.298-1.975,0.38-2.961c0.021-0.221-0.091-0.539,0.02-0.652c0.835-0.863-0.005-2.104,0.576-2.878
		c0.815-1.087-0.305-1.897-0.126-2.817c0.152-0.783-0.571-1.342-0.446-2.044c0.235-1.336-0.696-2.508-0.464-3.828
		c-0.898-0.896-0.433-2.158-0.773-3.231c-0.341-1.072-0.715-2.293-0.609-3.567c0.098-1.184-0.686-1.771-1.9-2.054
		c-1.48-0.348-2.912-0.934-4.403-1.174c-2.004-0.32-3.85-1.169-5.846-1.521c-2.042-0.358-4.044-0.958-6.049-1.51
		c-1.344-0.37-1.361-0.405-1.362,0.877C23.64,47.415,23.643,53.501,23.643,59.589z M68.652,71.92
		c-0.004,1.092-0.004,1.096,1.088,1.266c0.146,0.025,0.349-0.061,0.437,0.014c1.024,0.828,2.384,0.582,3.542,1.152
		c1.13,0.559,2.525,0.713,3.801,0.986c0.876,0.189,1.725,0.738,2.697,0.531c0.332-0.066,0.417-0.037,0.26-0.473
		c-0.796-2.199-1.495-4.432-2.232-6.65c-0.821-2.469-1.944-4.875-1.574-7.59c0.02-0.148,0.062-0.34-0.007-0.441
		c-0.749-1.055-0.496-2.268-0.393-3.381c0.119-1.275-0.681-2.363-0.49-3.606c0.306-1.979-0.62-3.861-0.458-5.831
		c0.015-0.184-0.161-0.375-0.224-0.571c-1.408-4.389-2.817-8.782-4.218-13.177c-0.544-1.705-1.048-3.425-1.619-5.121
		c-0.287-0.848-0.351-1.78,0.032-2.598c0.292-0.624,0.652-1.215,0.936-1.84c0.753-1.668,0.879-1.958,0.167-3.54
		c-0.598-1.323-1.057-2.684-1.532-4.042c-0.206-0.585-0.63-1.038-0.714-1.727c-0.082-0.682-0.662-1.178-1.467-1.383
		c-1.536-0.39-3.094-0.776-4.527-1.426c-0.718-0.329-0.638-0.177-0.638,0.36c0.002,7.87-0.017,15.742,0.027,23.613
		c0.005,0.939-0.596,2.191,0.866,2.71c-0.052,1.163,0.714,2.089,0.911,3.191c0.269,1.505,0.544,3.029,1.046,4.465
		c0.982,2.807,1.688,5.699,2.424,8.56c0.745,2.885,1.502,5.766,2.309,8.635c0.548,1.952,0.404,1.925,0.07,4.542
		C69.03,69.68,68.521,70.756,68.652,71.92z M57.416,62.243c0.534-2.065-0.615-3.928-0.358-5.901c0.019-0.129-0.051-0.27-0.089-0.405
		c-0.747-2.585-1.695-5.113-2.152-7.784c-0.254-1.496-0.531-1.633-2.009-1.706c-0.417-0.021-0.811,0.062-1.223-0.297
		c-0.451-0.395-1.128-0.096-1.706-0.135c-0.426-0.028-0.495,0.377-0.374,0.61c0.953,1.86,0.824,3.955,1.245,5.922
		c0.395,1.842,0.769,3.716,1.033,5.608c0.45,3.258,0.475,4.916-0.315,7.979c-0.312,1.211-0.71,2.449-0.643,3.744
		c0.015,0.289,0.07,0.447,0.365,0.662c2.234,1.615,4.422,3.299,6.63,4.955c0.138,0.104,0.2,0.428,0.461,0.246
		c0.087-0.061,0.116-0.254,0.116-0.383c-0.012-1.438,0.18-2.893-0.441-4.264C58.141,68.102,57.747,65.135,57.416,62.243z
		 M93.605,33.562c0-2.967,0.008-5.933-0.009-8.898c-0.003-0.425,0.195-0.919-0.122-1.276c-0.906-1.017-1.219-2.315-1.806-3.476
		c-0.559-1.099-1.167-2.169-1.679-3.315c-0.497-1.117-1.318-2.089-1.76-3.278c-0.232-0.631-0.542-1.334-0.932-1.814
		c-0.523-0.645-1.518-0.174-2.302-0.244c-0.501-0.043-1.013,0.054-1.517,0.085c0.21,0.474,0.529,0.954,0.649,1.403
		c0.562,2.076,1.544,3.966,2.445,5.886c0.234,0.496,0.54,1.004,0.234,1.355c-0.596,0.682-0.386,1.438-0.291,2.095
		c0.132,0.871-0.627,1.414-0.531,2.273c0.083,0.737,0.383,1.618-0.383,2.278c-0.094,0.078-0.018,0.374,0.117,0.593
		c1.001,1.648,1.494,3.528,2.479,5.209c0.824,1.407,1.716,2.887,2.173,4.421c0.664,2.218,2.127,4.017,2.794,6.193
		c0.029,0.092,0.178,0.153,0.267,0.227c0.059-0.124,0.164-0.248,0.164-0.375C93.606,39.791,93.605,36.678,93.605,33.562z
		 M80.236,113.77c0,1.26-0.005,2.518,0.001,3.775c0.009,1.17,0.02,1.18,1.067,0.65c0.674-0.342,1.384-0.641,1.995-1.074
		c3.172-2.246,6.664-3.945,10.01-5.891c1.957-1.137,3.783-2.541,5.927-3.361c0.088-0.031,0.128-0.234,0.157-0.365
		c0.064-0.279-0.153-0.494-0.34-0.428c-0.932,0.324-1.626-0.422-2.48-0.52c-1.139-0.131-2.233-0.645-3.347-0.994
		c-0.025-0.953-0.045-1.904-0.067-2.859c-0.004-0.145,0.01-0.295,0-0.443c-0.044-0.613-0.232-0.719-0.837-0.369
		c-0.601,0.35-1.125,0.85-1.749,1.141c-3.312,1.557-6.292,3.707-9.548,5.361c-0.573,0.289-0.835,0.697-0.806,1.381
		C80.276,111.104,80.236,112.438,80.236,113.77z M105.638,99.107c0,1.334-0.006,2.666,0.005,4c0,0.277-0.125,0.633,0.198,0.793
		c0.286,0.145,0.579,0.023,0.749-0.254c0.289-0.467,0.829-0.518,1.23-0.785c1.551-1.043,3.303-1.73,4.874-2.703
		c2.297-1.42,4.57-2.896,6.966-4.135c0.683-0.354,1.063-1.207,1.957-1.158c-0.606-0.414-1.23-0.703-1.98-0.852
		c-0.355-0.07-0.79-0.211-1.175-0.35c-0.906-0.332-1.893-0.326-2.786-0.791c-0.428-0.221-0.721-0.26-0.694-0.824
		c0.048-0.959,0.047-1.926,0-2.887c-0.023-0.529-0.249-0.246-0.514-0.092c-2.08,1.225-4.138,2.502-6.298,3.572
		c-0.693,0.344-1.144,1.004-1.956,1.186c-0.493,0.113-0.61,0.709-0.59,1.281C105.667,96.441,105.638,97.771,105.638,99.107z
		 M45.032,106.389c0,0.146-0.013,0.295,0.004,0.439c0.063,0.643-0.319,1.605,0.174,1.854c0.669,0.334,1.314-0.414,1.956-0.812
		c1.094-0.678,2.307-1.16,3.464-1.736c0.232-0.117,0.228-0.367,0.183-0.572c-0.026-0.113-0.187-0.281-0.276-0.273
		c-1.303,0.088-2.423-0.453-3.615-0.863c-1.846-0.633-1.885-0.518-1.89,1.303C45.032,105.947,45.032,106.17,45.032,106.389z
		 M12.502,97.92c0,0.666-0.003,1.338,0,2.004c0.002,0.408,0.099,0.441,0.479,0.215c1.661-0.988,3.36-1.918,5.031-2.893
		c0.435-0.254,0.208-0.332-0.139-0.453c-0.526-0.182-0.963-0.564-1.606-0.451c-0.397,0.068-0.791-0.096-1.214-0.262
		C12.52,95.098,12.502,95.145,12.502,97.92z"/>
</g>
</svg>
