<?xml version="1.0" encoding="utf-8"?>
<!-- Generator: Adobe Illustrator 16.0.4, SVG Export Plug-In . SVG Version: 6.00 Build 0)  -->
<!DOCTYPE svg PUBLIC "-//W3C//DTD SVG 1.1//EN" "http://www.w3.org/Graphics/SVG/1.1/DTD/svg11.dtd">
<svg version="1.1" id="Layer_2523" xmlns="http://www.w3.org/2000/svg" xmlns:xlink="http://www.w3.org/1999/xlink" x="0px" y="0px"
	 width="128px" height="128px" viewBox="0 0 128 128" enable-background="new 0 0 128 128" xml:space="preserve">
<g>
	<path d="M127.827,63.431c0.017-2.095-0.532-2.939-2.099-3.229c-6.853-1.269-10.914-5.555-12.418-13.107
		c-0.086-0.438-0.293-0.867-0.513-1.322c-0.225-0.461-0.452-0.94-0.569-1.461c-0.32-1.428-1.015-1.958-2.561-1.958
		c-0.113,0-0.23,0.003-0.354,0.008c-1.055,0.05-2.164,0.072-3.49,0.072c-1.118,0-2.235-0.016-3.354-0.034
		c-0.519-0.007-1.033-0.015-1.552-0.021h-0.003c-0.127,0-0.238,0.009-0.352,0.016c-0.137,0.01-0.273,0.018-0.408,0.018h-0.002
		c-0.857,0-1.367-0.431-1.516-1.281c-0.203-1.166,0.817-2.606,1.266-3.173c0.844-1.064,2.266-2.332,3.504-2.407
		c2.343-0.138,3.633-0.214,4.145-0.778c0.52-0.571,0.52-1.922,0.52-4.376c0-0.382,0.007-0.764,0.017-1.147
		c0.017-0.824,0.033-1.676-0.037-2.495c-0.016-0.194-0.057-0.651-0.231-0.81c0,0-0.008-0.007-0.012-0.011
		c-0.037,0.026-0.078,0.049-0.129,0.07c-0.125,0.05-0.244,0.055-0.334,0.055h-0.07c-0.074,0.009-0.162,0.046-0.237,0.079
		c-0.106,0.045-0.22,0.094-0.341,0.119c-0.242,0.048-0.541,0.062-0.78,0.032c-0.255-0.034-0.485-0.108-0.71-0.181
		c-0.178-0.057-0.346-0.111-0.508-0.138c-0.436-0.073-0.896-0.108-1.412-0.108l-4.148,0.001
		c-14.588,0.006-29.174,0.013-43.763,0.013c-20.164,0-36.86-0.013-52.541-0.037c-1.076,0-1.74,0.172-2.106,0.544
		c-0.366,0.372-0.532,1.036-0.52,2.094c0.104,8.667,0.088,16.338-0.051,23.451c-0.045,2.285,0.732,3.461,2.871,4.338
		c6.072,2.491,12.194,5.145,18.114,7.712l3.108,1.347c0.18,0.076,0.399,0.145,0.633,0.213c0.81,0.244,1.92,0.579,1.858,1.768
		c-0.057,1.107-1.132,1.213-1.843,1.284c-0.274,0.027-0.533,0.054-0.724,0.114C13.181,72.244,6.913,82.938,9.271,94.127
		c2.128,10.091,10.92,16.869,21.879,16.869c0.464,0,0.94-0.012,1.41-0.036c8.373-0.427,17.516-8.392,18.114-15.778
		c0.262-3.215,1.593-3.844,3.804-3.844c0.178,0,0.363,0.005,0.555,0.012c0.723,0.026,1.445,0.061,2.168,0.096
		c1.591,0.074,3.236,0.15,4.848,0.15c1.72,0,3.225-0.09,4.6-0.271c2.065-0.275,3.287,0.637,3.775,2.798
		c0.064,0.286,0.346,0.622,0.346,0.622s1.252,5.439,2.869,7.558l0.229,0.276c4.688,5.652,10.299,8.52,16.677,8.52
		c1.572,0,3.213-0.178,4.871-0.527c8.758-1.844,14.383-7.399,16.721-16.518c0.459-1.793,1.338-2.523,3.037-2.523l0.139,0.004
		c1.309,0.027,2.615,0.012,3.926-0.008c0.799-0.008,1.599-0.02,2.396-0.02c1.323,0,2.405,0.029,3.403,0.092
		c1.141,0.069,1.875-0.074,2.271-0.479c0.381-0.387,0.551-1.096,0.533-2.23C127.721,80.873,127.748,72.915,127.827,63.431z
		 M24.501,52.136c-0.564,1.122-1.254,1.643-2.169,1.643c-0.465,0-0.992-0.139-1.657-0.437c-1.98-0.887-4.03-1.716-6.015-2.519
		c-0.977-0.395-1.952-0.789-2.925-1.192l-0.152-0.062c-0.741-0.303-1.755-0.717-1.779-1.831c-0.083-3.826-0.083-7.226,0-10.392
		c0.047-1.783,1.66-1.79,2.623-1.793l0.099-0.001c1.249-0.007,2.499-0.009,3.748-0.009l6.658,0.009
		c2.223,0.007,4.446,0.014,6.669-0.005l0.107-0.001c0.872,0,1.819,0.09,2.218,0.754c0.408,0.681,0.012,1.588-0.321,2.209
		C28.907,43.548,26.584,48.004,24.501,52.136z M30.517,97.997C30.442,97.999,30.369,98,30.294,98
		c-4.369-0.001-8.341-3.743-8.498-8.01c-0.089-2.396,0.837-4.784,2.539-6.551c1.626-1.687,3.726-2.568,5.904-2.446
		c4.291,0.235,8.864,2.586,8.835,8.471C39.125,93.798,35.046,97.868,30.517,97.997z M54.629,60.262l-0.63-0.655L54,59.604
		l0.074-0.07l0.003,0.004c0.032-0.029,0.062-0.055,0.062-0.055l0.563,0.709L54.629,60.262z M53.155,54.499
		c-0.188,0.358-0.471,0.948-0.798,1.632c-0.978,2.04-1.7,3.515-2.087,3.916c-0.036,0.038-0.07,0.075-0.102,0.114
		c-0.349,0.415-0.588,1.012-0.82,1.588c-0.465,1.156-0.993,2.466-2.537,2.548l-0.071,0.001c-1.229,0-5.335-1.82-9.438-3.684
		c-0.961-0.438-1.87-0.851-2.028-0.898c-1.31-0.392-2.059-0.912-2.357-1.639c-0.301-0.734-0.134-1.635,0.526-2.839
		c3.261-5.951,6.379-12.008,9-17.15c0.946-1.856,2.28-2.646,4.392-2.589c4.75,0.13,8.481,0.126,12.022-0.008
		c1.641-0.062,2.5,0.188,2.883,0.837c0.44,0.746,0.051,1.77-0.669,3.079c-1.853,3.37-3.648,6.848-5.386,10.213
		C54.845,51.249,54.006,52.875,53.155,54.499z M74.293,66.521c-1.766,3.314-3.039,5.711-3.271,6.203
		c-0.392,0.834-0.985,1.258-1.771,1.258H69.25c-0.393,0-0.831-0.109-1.348-0.334c-1.062-0.463-2.123-0.934-3.185-1.4
		c-2.059-0.91-4.188-1.852-6.299-2.73c-0.679-0.283-1.07-0.623-1.232-1.07c-0.224-0.619,0.069-1.268,0.387-1.881
		c4.65-8.908,9.467-18.213,14.726-28.441c0.989-1.924,2.312-2.731,4.368-2.649c1.184,0.049,2.451,0.071,4.115,0.071
		c0.684,0,1.365-0.003,2.049-0.007c1.398-0.007,2.796-0.014,4.191,0.008h0.051c0.088,0,0.179-0.002,0.271-0.006
		c0.106-0.004,0.215-0.007,0.323-0.007c0.419,0,1.692,0,1.761,1.621l0.004,0.122l-0.246,0.464c-0.142,0.265-0.283,0.531-0.414,0.804
		C85.467,45.522,78.471,58.668,74.293,66.521z M92.986,97.758c-0.756,0.194-1.51,0.293-2.24,0.293l0,0
		c-2.312,0-4.4-0.986-5.877-2.777c-1.738-2.108-2.475-5.106-2.079-8.349l-0.953,0.63l1.075-1.75c1.895-3.082,4.65-4.777,7.76-4.777
		c0.84,0,1.705,0.123,2.57,0.367c4.027,1.135,6.473,4.293,6.381,8.237C99.535,93.438,96.807,96.779,92.986,97.758z M120.021,71.619
		c-0.129,0.686-0.095,1.406-0.058,2.171c0.019,0.362,0.035,0.726,0.035,1.084v3.678c-0.002,4.16-0.002,5.564-3.087,5.564h-0.001
		c-0.718,0-1.613-0.066-2.748-0.15c-1.75-0.131-2.438-0.998-2.987-2.356c-3.318-8.234-11.328-13.769-19.933-13.769
		c-1.453,0-2.923,0.156-4.364,0.464c-1.01,0.215-1.615,0.079-1.906-0.397c-0.339-0.558-0.019-1.315,0.254-1.837
		c0.877-1.687,1.754-3.369,2.633-5.055c1.644-3.15,3.283-6.302,4.914-9.458c0.533-1.033,1.349-1.535,2.492-1.535l0.229,0.002
		c0.039,0,0.08,0,0.119-0.004l0.086-0.007c2.213-0.184,3.961-0.329,5.348-0.329c4.973,0,5.733,2.07,8.256,8.932
		c1.273,3.466,2.914,5.1,5.662,5.634C119.091,65.055,120.793,67.533,120.021,71.619z"/>
	<path d="M9.5,26.5c0,0,0,0.163,0,0.236c0-0.545-0.123-1.995-0.449-2.43c0.698,0.658,0.84-0.111,1.238-0.475
		c0.24-0.219,1.032-0.597,1.357-0.667c0.799-0.172,0.906,0.295,1.037-0.642c0.09-0.644-0.115-1.317,0.049-1.949
		c0.763,0.019,1.028-0.699,1.612-1.063c0.672-0.42,1.221-0.33,2.009-0.327c1.88,0.006,3.521-0.175,5.341-0.749
		c1.296-0.408,2.728,0.134,4.001,0.667c0.446,0.187,0.392,0.105,0.733,0.39c0.337,0.28,0.462,0.78,0.911,0.976
		c1.162,0.505,2.614-0.298,3.704-0.549c0.737-0.169,0.974,0.248,1.63,0.198c0.928-0.07,1.977-0.509,2.954-0.599
		c0.671-0.062,1.017-0.484,1.728-0.265c0.848,0.261,1.463,0.917,2.333,1.182c0.479,0.146,1.465,0.704,1.942,0.365
		c0.09-0.064,0.247-0.824,0.3-0.95c0.144-0.339,0.341-0.676,0.508-1.005c0.406-0.798,0.768-0.75,1.635-0.594
		c0.677,0.122,1.321,0.42,2.005,0.534c0.983,0.164,1.984,0.047,2.975,0.067c1.047,0.022,1.54,0.247,2.31,0.999
		c0.295,0.288,0.769,0.619,1.017,0.926c0.271,0.335,0.179,0.324,0.381,0.733c0.166,0.333,0.56,1.53,0.994,1.63
		c0.818,0.19,1.559-1.624,2.267-1.906c0.219-0.087,0.793-0.15,1.018-0.074c0.38,0.129,0.306,0.398,0.631,0.618
		c0.528,0.357,1.093,0.649,1.679,0.746c1.853,0.307,3.284-1.754,3.331-3.34c0.025-0.863,0.206-1.19,0.985-1.339
		c0.464-0.089,0.98,0.089,1.449,0.023c0.46-0.065,0.806-0.272,1.248-0.369c0.736-0.16,1.488-0.194,2.253-0.397
		c0.979-0.261,1.438-0.289,2.407,0.082c0.689,0.264,1.345,0.259,1.766,0.918c0.302,0.473,0.557,0.872,0.91,1.333
		c0.318,0.414,0.539,0.953,0.98,1.334c0.394,0.339,0.396,0.375,0.676,0.757c0.279,0.381,0.498,0.527,1.002,0.749
		c1.246,0.545,1.545-0.19,2.666-0.69c1.127-0.503,1.889-0.401,3,0.008c1.597,0.588,3.205,1.258,5,0.943
		c1.106-0.194,1.144-0.622,2,0.243c0.651,0.659,1.64,0.806,2.342,1.389c0.751,0.625,1.148,1.625,1.74,2.368
		c0.588,0.738,1.137,1.333,1.625,2.19c-0.084-0.126-0.305-0.204-0.469-0.215"/>
</g>
</svg>
