<?xml version="1.0" encoding="utf-8"?>
<!-- Generator: Adobe Illustrator 16.0.4, SVG Export Plug-In . SVG Version: 6.00 Build 0)  -->
<!DOCTYPE svg PUBLIC "-//W3C//DTD SVG 1.1//EN" "http://www.w3.org/Graphics/SVG/1.1/DTD/svg11.dtd">
<svg version="1.1" id="Layer_2524" xmlns="http://www.w3.org/2000/svg" xmlns:xlink="http://www.w3.org/1999/xlink" x="0px" y="0px"
	 width="128px" height="128px" viewBox="0 0 128 128" enable-background="new 0 0 128 128" xml:space="preserve">
<g id="XJicXE.tif">
	<g>
		<path d="M42.567,27.926c0.26,0,0.519,0,0.779,0c0.161,0.143,0.374,0.148,0.564,0.198c8.543,2.238,17.083,4.486,25.632,6.692
			c1.738,0.448,3.344,1.07,4.854,2.085c3.66,2.462,7.395,4.814,11.105,7.201c0.316,0.203,0.516,0.433,0.58,0.815
			c0.18,1.06,0.369,2.116,0.49,3.185c0.129,1.125,0.227,2.25,0.242,3.382c0.004,0.34,0.121,0.496,0.496,0.477
			c0.592-0.031,1.188-0.003,1.781-0.01c0.5-0.005,0.535-0.071,0.295-0.5c-0.035-0.065-0.076-0.126-0.113-0.191
			c-2.359-4.206,0.373-9.5,5.15-9.976c4.836-0.482,8.555,4.127,7.068,8.758c-0.186,0.574-0.186,0.575,0.434,0.575
			c5.549,0,11.096,0.006,16.643-0.01c0.455-0.001,0.676,0.136,0.863,0.56c1.941,4.428,3.906,8.847,5.869,13.267
			c0.809,1.825,1.627,3.645,2.441,5.467c0,0.074,0,0.148,0,0.225c-0.029,0.084-0.07,0.168-0.082,0.256
			c-0.266,2.059-0.527,4.117-0.789,6.176c-0.275,2.17-0.543,4.34-0.828,6.508c-0.121,0.912-0.141,0.92,0.777,0.949
			c0.275,0.01,0.393,0.08,0.391,0.379c-0.01,1.984-0.008,3.969,0,5.955c0,0.266-0.057,0.402-0.367,0.4
			c-2.432-0.01-4.861-0.008-7.293-0.002c-0.293,0.002-0.398-0.117-0.391-0.395c0.018-0.559-0.066-1.109-0.172-1.656
			c-0.551-2.9-1.945-5.34-4.074-7.371c-3.963-3.781-9.727-4.709-14.457-2.191c-4.383,2.334-6.912,5.992-7.373,10.998
			c-0.059,0.619,0.07,0.613-0.625,0.613c-11.189,0-22.377,0-33.565,0c-0.537,0-0.556-0.004-0.586-0.533
			c-0.102-1.725-0.492-3.381-1.286-4.912c-2.567-4.953-6.482-7.883-12.228-7.908c-6.513-0.031-13.025-0.006-19.538-0.01
			c-0.744,0-1.484,0.041-2.216,0.164c-3.109,0.525-5.65,2.066-7.708,4.416c-2.091,2.389-3.331,5.152-3.474,8.355
			c-0.018,0.41-0.215,0.432-0.526,0.43c-2.486-0.004-4.972,0-7.459-0.004c-1.205,0-2.411-0.014-3.616-0.021
			c0-5.344,0-10.688,0-16.031c0.185-0.008,0.37-0.021,0.554-0.021c4.083-0.002,8.164-0.008,12.246,0.008
			c0.406,0.002,0.576-0.111,0.669-0.516c0.34-1.461,0.73-2.91,1.081-4.367c0.079-0.326,0.228-0.566,0.48-0.781
			c2.878-2.457,5.753-4.918,8.618-7.391c0.286-0.247,0.475-0.298,0.799-0.049c1.528,1.178,3.076,2.33,4.625,3.479
			c0.242,0.18,0.378,0.387,0.419,0.68c0.229,1.652,0.463,3.305,0.698,4.955c0.17,1.191,0.355,2.381,0.508,3.576
			c0.043,0.336,0.182,0.447,0.5,0.408c0.146-0.02,0.296-0.004,0.444-0.004c8.127,0,16.254,0,24.38,0c9.186,0,18.37,0,27.553,0
			c0.572,0,0.574-0.002,0.574-0.57c0.002-1.855,0.008-3.711-0.006-5.566c-0.002-0.381,0.072-0.727,0.223-1.074
			c0.43-1.004,0.842-2.018,1.262-3.027c0.549-1.317,1.102-2.632,1.646-3.95c0.188-0.451,0.18-0.456-0.287-0.463
			c-0.277-0.004-0.559,0.024-0.834-0.006c-0.406-0.047-0.566,0.119-0.689,0.506c-1.322,4.163-3.494,7.838-6.381,11.104
			c-0.27,0.305-0.541,0.432-0.953,0.43c-4.453-0.016-8.906-0.029-13.359,0.002c-1.291,0.01-2.535-0.154-3.788-0.453
			c-5.26-1.26-10.529-2.473-15.793-3.709c-3.534-0.828-7.065-1.668-10.602-2.486c-0.375-0.088-0.689-0.246-0.989-0.471
			c-4.888-3.655-9.776-7.307-14.665-10.959c-1.293-0.965-2.585-1.932-3.879-2.895c-0.392-0.291-0.397-0.288-0.621,0.155
			c-0.259,0.513-0.513,1.029-0.77,1.542c-0.264,0.529-0.266,0.53,0.137,0.933c2.361,2.362,4.723,4.724,7.083,7.084
			c0.092,0.093,0.179,0.19,0.277,0.275c0.193,0.166,0.234,0.322,0.002,0.49c-0.09,0.064-0.167,0.146-0.25,0.222
			c-4.178,3.761-8.358,7.519-12.528,11.289c-0.256,0.23-0.511,0.314-0.847,0.312c-1.781-0.012-3.562,0.002-5.343-0.01
			c-1.018-0.006-0.852,0.174-0.891-0.875c-0.014-0.377,0.091-0.51,0.485-0.523c1.002-0.035,1.996-0.145,2.938-0.529
			c0.722-0.297,1.443-0.676,1.688-1.432c0.215-0.668,0.65-0.867,1.215-1.021c0.214-0.057,0.422-0.139,0.632-0.209
			c0.773-0.26,1.599-0.42,2.303-0.805c0.725-0.396,1.209-1.135,1.813-1.707c0.081-0.078,0.159-0.156,0.237-0.236
			c1.457-1.457,2.907-2.918,4.373-4.364c0.256-0.252,0.298-0.416-0.01-0.65c-0.353-0.27-0.674-0.581-1.01-0.875
			c-2.974-2.601-5.948-5.203-8.922-7.805c-0.207-0.181-0.401-0.338-0.4-0.679c0.014-4.212,0.013-8.424,0.002-12.636
			c0-0.346,0.109-0.446,0.446-0.439c0.964,0.019,1.93-0.007,2.894,0.013c0.352,0.008,0.515-0.09,0.613-0.452
			c0.405-1.501,0.86-2.99,1.272-4.49c0.088-0.321,0.253-0.453,0.562-0.505c2.154-0.367,4.307-0.744,6.459-1.117
			c3.522-0.61,7.045-1.218,10.566-1.829c3.339-0.58,6.679-1.156,10.016-1.748C40.683,28.291,41.64,28.188,42.567,27.926z
			 M112.389,70.658c2.801,0,5.602,0,8.4,0c0.148,0,0.297-0.002,0.445-0.004c0.152-0.002,0.191-0.084,0.152-0.217
			c-0.047-0.16-0.094-0.32-0.145-0.479c-0.697-2.07-1.395-4.141-2.092-6.211c-0.963-2.86-1.926-5.72-2.887-8.58
			c-0.09-0.263-0.131-0.507-0.527-0.506c-3.709,0.015-7.418,0.012-11.127,0.003c-0.309,0-0.422,0.108-0.453,0.408
			c-0.105,0.996-0.219,1.988-0.236,2.992c-0.02,1.13-0.09,2.259-0.141,3.39c-0.133,2.889-0.268,5.778-0.395,8.668
			c-0.025,0.531-0.01,0.535,0.547,0.535C106.75,70.658,109.568,70.658,112.389,70.658z M92.471,63.759
			c0,1.571,0.012,2.665-0.008,3.758c-0.008,0.352,0.082,0.494,0.459,0.477c0.611-0.029,1.225,0.002,1.836-0.012
			c0.283-0.006,0.414,0.086,0.385,0.381c-0.012,0.127,0,0.258,0,0.389c0,1.816,0.008,3.635-0.008,5.451
			c-0.004,0.359,0.094,0.498,0.465,0.471c0.35-0.027,0.707-0.021,1.055,0.01c0.723,0.066,0.922-0.078,1.012-0.809
			c0.123-1.01,0.244-2.021,0.354-3.035c0.326-2.982,0.656-5.963,0.967-8.949c0.305-2.947,0.607-5.895,0.982-8.835
			c0.016-0.126,0.08-0.335-0.008-0.366c-0.166-0.056-0.225,0.14-0.287,0.269c-0.059,0.116-0.113,0.234-0.164,0.353
			c-0.475,1.086-0.955,2.169-1.414,3.262c-0.137,0.326-0.305,0.433-0.67,0.382c-0.918-0.125-1.84-0.211-2.764-0.284
			c-0.865-0.069-0.832-0.041-1.139,0.777C92.703,59.642,92.164,61.871,92.471,63.759z"/>
		<path fill-rule="evenodd" clip-rule="evenodd" d="M24.196,100.074c-0.627-0.152-1.27-0.221-1.895-0.404
			c-3.355-0.994-5.835-4.006-6.277-7.486c-0.558-4.4,2.424-9.205,7.675-9.9c5.287-0.699,9.307,3.062,9.992,7.352
			c0.79,4.943-2.471,9.502-7.394,10.32c-0.255,0.041-0.522,0.006-0.766,0.119C25.087,100.074,24.642,100.074,24.196,100.074z
			 M21.19,91.092c-0.005,2.066,1.635,3.727,3.691,3.732c2.043,0.004,3.735-1.668,3.743-3.705c0.009-2.043-1.661-3.717-3.715-3.723
			C22.835,87.391,21.196,89.02,21.19,91.092z"/>
		<path fill-rule="evenodd" clip-rule="evenodd" d="M44.571,100.074c-0.647-0.148-1.307-0.229-1.949-0.416
			c-3.275-0.965-5.782-4.016-6.22-7.414c-0.565-4.385,2.314-8.756,6.839-9.82c4.967-1.17,10.059,2.215,10.824,7.26
			c0.749,4.936-2.416,9.355-7.338,10.26c-0.272,0.049-0.559,0.008-0.819,0.131C45.462,100.074,45.017,100.074,44.571,100.074z
			 M41.562,91.127c0.007,2.064,1.662,3.705,3.725,3.697c2.036-0.01,3.724-1.711,3.71-3.74c-0.015-2.045-1.689-3.691-3.752-3.688
			S41.554,89.049,41.562,91.127z"/>
		<path fill-rule="evenodd" clip-rule="evenodd" d="M105.475,100.074c-0.631-0.145-1.273-0.207-1.898-0.391
			c-3.676-1.084-6.25-4.467-6.383-8.279c-0.148-4.242,2.871-8.488,7.736-9.123c5.408-0.705,9.492,3.268,10.053,7.742
			c0.551,4.406-2.363,9.027-7.41,9.922c-0.254,0.045-0.523,0-0.762,0.129C106.365,100.074,105.92,100.074,105.475,100.074z
			 M109.826,91.086c-0.01-2.064-1.65-3.693-3.717-3.689c-2.053,0.004-3.723,1.662-3.729,3.701c-0.006,2.051,1.701,3.738,3.77,3.727
			C108.197,94.811,109.836,93.145,109.826,91.086z"/>
	</g>
</g>
</svg>
