<?xml version="1.0" encoding="utf-8"?>
<!-- Generator: Adobe Illustrator 16.0.4, SVG Export Plug-In . SVG Version: 6.00 Build 0)  -->
<!DOCTYPE svg PUBLIC "-//W3C//DTD SVG 1.1//EN" "http://www.w3.org/Graphics/SVG/1.1/DTD/svg11.dtd">
<svg version="1.1" id="Layer_2525" xmlns="http://www.w3.org/2000/svg" xmlns:xlink="http://www.w3.org/1999/xlink" x="0px" y="0px"
	 width="128px" height="128px" viewBox="0 0 128 128" enable-background="new 0 0 128 128" xml:space="preserve">
<g id="xJzTXQ.tif_1_">
	<g>
		<path fill-rule="evenodd" clip-rule="evenodd" d="M89.008,110.55c-0.949,2.757-2.135,5.414-3.353,8.06
			c-0.259,0.562-0.593,0.973-1.12,1.293c-4.217,2.561-8.454,5.093-12.624,7.73c-1.829,1.156-3.759,0.856-5.691,0.759
			c-3.852-0.2-7.704-0.405-11.559-0.555c-2.813-0.108-5.645-0.209-8.452-0.542c-0.722-0.085-1.029-0.575-1.345-1.184
			c-0.745-1.431-1.105-3.029-1.967-4.405l0.007,0.007c-1.759-4.188-3.55-8.364-5.268-12.569c-2.366-5.793-4.992-11.47-7.489-17.204
			c-2.303-5.286-4.507-10.615-6.908-15.857c-0.204-0.447-0.341-0.931-0.9-1.07l0.008,0.007c0.029-0.193,0.139-0.421,0.075-0.576
			c-1.019-2.414,0.409-4.363,1.285-6.368c0.556-1.271,0.849-2.519,0.534-3.834c-0.249-1.045,0.065-2.042,0.08-3.055
			c0.029-1.952,0.017-3.909,0.104-5.861c0.016-0.335,0.088-0.684,0.21-0.998c1.783-4.599,3.532-9.21,5.379-13.784
			c3.568-8.838,7.079-17.699,10.687-26.521c1.702-4.159,3.384-8.328,5.058-12.499c0.472-1.177,1.186-1.721,2.416-1.7
			c0.831,0.015,1.663-0.029,2.495-0.017C55.704-0.12,60.737-0.26,65.766-0.48c2.747-0.121,5.341,0.32,7.878,1.323
			c2.364,0.936,4.797,1.692,7.106,2.771c0.042,0.021,0.087,0.058,0.131,0.059c1.941,0.049,2.444,1.513,3.007,2.978
			c2.07,5.384,4.185,10.752,6.259,16.136c2.125,5.516,4.216,11.044,6.333,16.563c1.626,4.237,3.246,8.478,4.914,12.699
			c1.167,2.954,2.415,5.876,3.612,8.819c0.221,0.542,0.347,1.12,0.575,1.659c0.545,1.289,0.399,2.479-0.068,3.814
			c-2.293,6.554-4.948,12.969-7.286,19.505c-2.279,6.382-4.804,12.678-7.213,19.015c-0.12,0.315-0.166,0.659-0.245,0.991
			l0.002-0.002C90.182,107.417,89.595,108.984,89.008,110.55L89.008,110.55z M40.972,110.87c0.009,0.047,0.01,0.097,0.028,0.139
			c0.014,0.03,0.049,0.054,0.075,0.078c-0.037-0.068-0.074-0.139-0.112-0.21c-0.043-0.428-0.012-0.88-0.141-1.283
			c-0.923-2.877-1.582-5.825-2.393-8.733c-1.145-4.113-2.33-8.215-3.494-12.323c-0.656-2.311-1.308-4.622-1.956-6.934
			c-0.19-0.677-0.455-1.279-1.244-1.425c-1.133-0.212-2.264-0.43-3.399-0.629c-0.709-0.123-0.868,0.214-0.644,0.831
			c0.083,0.226,0.164,0.452,0.259,0.672c3.657,8.411,7.293,16.832,10.997,25.223C39.625,107.806,40.057,109.446,40.972,110.87z
			 M100.962,71.651c0.77-1.28,1.066-2.756,1.683-4.099c0.077-0.167,0.17-0.39,0.019-0.538c-0.174-0.173-0.336,0.014-0.487,0.113
			c-1.524,0.991-3.046,1.983-4.533,3.036c-2.264,1.601-4.466,3.295-6.92,4.624c-0.964,0.522-1.813,1.247-2.735,1.847
			c-0.644,0.417-1.007,0.994-1.223,1.711c-0.373,1.236-0.614,2.557-1.135,3.696c-1.578,3.457-2.492,7.141-3.84,10.675
			c-1.106,2.899-2.208,5.819-3.089,8.815c-0.525,1.784-1.126,3.563-1.756,5.322c-0.89,2.479-1.892,4.919-2.521,7.485l0.007-0.008
			c-1.384,3.389-2.51,6.86-3.46,10.392l-0.047,0.039l0.041-0.044c0.489-0.073,0.881-0.358,1.307-0.581
			c3.146-1.649,5.967-3.854,9.143-5.446c1.887-0.946,3.084-2.307,3.51-4.409c0.218-1.071,0.612-2.131,1.083-3.122
			c1.169-2.472,2.016-5.068,3.05-7.591c1.161-2.84,2.135-5.757,3.216-8.629c1.584-4.217,3.183-8.426,4.794-12.631
			c0.515-1.344,0.992-2.699,1.54-4.033c0.891-2.169,1.85-4.325,2.364-6.633L100.962,71.651z M103.559,64.151
			c0.277-0.378,0.109-0.759-0.059-1.089c-0.832-1.626-1.442-3.344-2.127-5.031c-1.689-4.174-3.473-8.314-5.028-12.539
			c-1.773-4.815-3.529-9.636-5.389-14.419c-2.169-5.586-4.305-11.187-6.536-16.749c-0.803-2-1.442-4.062-2.345-6.028
			c-0.311-0.678-0.53-0.58-1.002-0.268c-1.361,0.898-2.762,1.739-4.045,2.75l-0.008,0.007c-1.077,0.718-2.143,1.455-3.234,2.151
			c-1.432,0.913-1.484,0.911-1.057,2.492c1.899,7.04,3.347,14.188,5.067,21.271c1.61,6.624,3.169,13.26,4.764,19.888
			c1.403,5.835,2.827,11.665,4.233,17.5c0.135,0.562,0.168,1.102,0.968,0.539c2.973-2.1,6.103-3.965,9.075-6.067
			c2.191-1.547,4.483-2.949,6.729-4.418L103.559,64.151z M81.838,74.766c0.611,0,1.123,0.006,1.637-0.001
			c1.262-0.017,1.36-0.12,1.073-1.394c-0.441-1.954-0.859-3.916-1.4-5.844c-1.46-5.209-2.497-10.516-3.763-15.77
			c-1.46-6.068-2.861-12.151-4.302-18.224c-1.389-5.848-2.795-11.692-4.189-17.539c-0.283-1.187-0.511-1.391-1.856-1.394
			c-6.155-0.014-12.313-0.019-18.469-0.02c-1.4,0-1.626,0.209-2.077,1.566c-1.437,4.339-2.427,8.804-3.719,13.186
			c-1.5,5.089-2.628,10.285-4.029,15.407c-1.707,6.247-3.176,12.558-4.913,18.796c-0.62,2.229-1.022,4.292,0.276,6.38
			c0.213,0.344,0.23,0.803,0.362,1.201c0.447,1.354,0.79,1.629,2.22,1.661c1.445,0.032,2.896-0.065,4.336,0.028
			c5.063,0.326,10.144,0.26,15.202,0.771c3.377,0.34,6.781,0.377,10.174,0.547C72.911,74.35,77.428,74.476,81.838,74.766z
			 M39.698,75.785c-0.374-0.017-0.754,0.006-1.12-0.058c-1.014-0.175-1.703,0.13-2.099,1.146c-0.271,0.689-0.622,1.375-1.068,1.967
			c-0.819,1.084-0.708,2.137-0.175,3.28c1.051,2.257,1.613,4.718,2.14,7.093c0.79,3.559,1.912,7.01,2.808,10.528
			c1.304,5.116,2.846,10.173,4.275,15.259c0.733,2.609,1.438,5.227,2.163,7.838c0.183,0.66,0.449,1.221,1.295,1.229
			c3.363,0.029,6.686,0.785,10.064,0.592c0.839-0.047,1.676,0.057,2.516,0.139c2.323,0.227,4.673,0.051,6.995,0.373
			c0.7,0.098,1.073-0.214,1.317-0.924c1.957-5.699,3.877-11.415,5.973-17.063c1.871-5.042,3.312-10.22,5.14-15.271
			c1.529-4.218,2.972-8.466,4.461-12.696c0.343-0.978,0.204-1.301-0.793-1.442c-1.668-0.235-3.346-0.358-5.032-0.306
			c-0.515,0.018-1.014,0.281-1.527,0.135c-1.906-0.541-3.887-0.521-5.824-0.617c-4.898-0.244-9.805-0.345-14.703-0.594
			C50.905,76.106,45.295,76.141,39.698,75.785z M60.868,12.206c0,0.006,0,0.013,0,0.019c3.169,0,6.337-0.019,9.505,0.011
			c0.955,0.009,1.796-0.242,2.571-0.769c2.222-1.51,4.442-3.021,6.658-4.537c0.227-0.154,0.605-0.252,0.54-0.595
			c-0.06-0.312-0.424-0.331-0.694-0.42c-3.097-1.025-6.176-2.098-9.18-3.376c-0.666-0.284-1.368-0.424-2.102-0.42
			c-4.657,0.028-9.312,0.02-13.97,0.085c-1.337,0.019-2.671,0.269-4.019,0.228c-0.127-0.004-0.318,0.047-0.368,0.136
			c-0.083,0.149,0.086,0.24,0.206,0.316c0.28,0.182,0.566,0.361,0.848,0.543c1.327,0.856,2.695,1.656,3.969,2.587
			c1.107,0.811,1.053,1.388-0.018,2.228c-1.353,1.061-2.707,2.119-4.058,3.182c-0.185,0.146-0.463,0.314-0.411,0.544
			c0.09,0.388,0.477,0.228,0.729,0.229C54.34,12.21,57.604,12.206,60.868,12.206z M26.563,58.968c0,0.865-0.005,1.73,0.006,2.596
			c0.001,0.13,0.041,0.331,0.125,0.372c0.16,0.077,0.249-0.094,0.292-0.229c0.473-1.466,1.328-2.766,1.874-4.193
			c1.973-5.158,4.217-10.203,6.284-15.323c3.666-9.079,7.447-18.113,11.11-27.194c0.78-1.935,1.719-3.735,3.566-4.932
			c1-0.648,1.855-1.519,2.808-2.246c0.653-0.5,0.62-0.86-0.06-1.299c-1.49-0.96-3.082-1.753-4.493-2.842
			c-0.515-0.397-0.788,0.064-0.967,0.469c-0.428,0.964-0.833,1.938-1.234,2.914c-2.131,5.194-4.357,10.353-6.358,15.597
			c-1.758,4.61-3.557,9.204-5.361,13.796c-1.965,5.006-4.041,9.97-5.975,14.988C27.253,53.848,26.154,56.256,26.563,58.968z
			 M31.952,66.867c0.893,0.235,1.046-0.385,1.215-1.023c0.963-3.66,1.726-7.367,2.83-10.996c1.061-3.487,1.861-7.053,2.799-10.578
			c0.814-3.057,1.674-6.102,2.49-9.158c0.717-2.687,1.405-5.383,2.095-8.077c0.048-0.19,0.249-0.495-0.108-0.562
			c-0.176-0.033-0.225,0.265-0.296,0.437c-1.159,2.792-2.343,5.575-3.472,8.378c-1.074,2.67-2.02,5.395-3.148,8.041
			c-3.05,7.15-6.058,14.317-8.875,21.564c-0.418,1.074-0.271,1.334,0.904,1.521C29.568,66.6,30.763,66.718,31.952,66.867z
			 M31.823,78.513c0.479,0.001,0.604-0.072,1.064-0.682c2.199-2.913,2.282-3.714,0.722-7.041c-0.164-0.347-0.382-0.676-0.495-1.038
			c-0.271-0.872-0.91-1.164-1.741-1.239c-1.291-0.118-2.577-0.301-3.826-0.644c-0.806-0.222-1.281,0.024-1.611,0.752
			c-1.007,2.217-2.212,4.386-0.367,6.797c0.377,0.494,0.459,1.243,0.844,1.806c0.229,0.336,0.472,0.58,0.896,0.638
			C28.782,78.064,30.252,78.284,31.823,78.513z"/>
		<path fill-rule="evenodd" clip-rule="evenodd" d="M23.081,74.815l0.008,0.007L23.081,74.815z"/>
		<polygon fill-rule="evenodd" clip-rule="evenodd" points="43.273,120.679 43.235,120.725 43.28,120.686 		"/>
		<polygon fill-rule="evenodd" clip-rule="evenodd" points="77.028,10.78 77.071,10.83 77.021,10.787 		"/>
		<path fill-rule="evenodd" clip-rule="evenodd" d="M103.566,64.143l-0.008,0.009L103.566,64.143z"/>
		<path fill-rule="evenodd" clip-rule="evenodd" d="M100.971,71.644l-0.009,0.008L100.971,71.644z"/>
		<path fill-rule="evenodd" clip-rule="evenodd" d="M74.424,114.34l0.007-0.008L74.424,114.34z"/>
	</g>
</g>
</svg>
