<?xml version="1.0" encoding="utf-8"?>
<!-- Generator: Adobe Illustrator 16.0.4, SVG Export Plug-In . SVG Version: 6.00 Build 0)  -->
<!DOCTYPE svg PUBLIC "-//W3C//DTD SVG 1.1//EN" "http://www.w3.org/Graphics/SVG/1.1/DTD/svg11.dtd">
<svg version="1.1" id="Layer_2602" xmlns="http://www.w3.org/2000/svg" xmlns:xlink="http://www.w3.org/1999/xlink" x="0px" y="0px"
	 width="128px" height="128px" viewBox="0 0 128 128" enable-background="new 0 0 128 128" xml:space="preserve">
<g id="i7HJDR.tif">
	<g>
		<path fill-rule="evenodd" clip-rule="evenodd" d="M126.896,23.293c1.642,33.571,0.971,64.922,1.147,95.964
			c-10.534,2.334-74.277,2.364-84.776,0.03c2.71-3.888,4.859-7.577,7.594-10.766c6.921-8.074,14.046-15.979,21.203-23.849
			c5.495-6.041,9.897-12.565,12.316-20.547c2.332-7.694,5.556-15.119,8.639-23.334C103.361,35.451,114.026,29.941,126.896,23.293z"
			/>
		<path fill-rule="evenodd" clip-rule="evenodd" d="M20.78,6.977c15.356,0.131,27.354,7.772,39.547,16.259
			c2.823,0.13,6.054,0.279,10.555,0.485c0.896,3.72,1.783,7.402,2.956,12.271c2.746,3.198,6.328,7.367,10.786,12.557
			c-1.908,6.696-3.939,13.828-6.652,23.348c-6.502-9.999-11.579-17.809-17.375-26.723c-15.873,16.919-31.053,33.103-45.7,48.717
			C4.373,94.627,4.373,94.627-0.044,84.94C14.37,66.321,34.499,52.93,50.606,35.221C42.269,23.537,30.25,16.736,20.78,6.977z"/>
		<path fill-rule="evenodd" clip-rule="evenodd" d="M60.492,93.146c-8.088,2.498-14.507,4.48-22.692,7.009
			c0.678-7.738,1.194-13.635,1.771-20.228c4.583-1.356,8.937-2.644,13.745-4.066C55.788,81.816,57.828,86.731,60.492,93.146z"/>
		<path fill-rule="evenodd" clip-rule="evenodd" d="M67.312,83.51c-3.69-4.012-7.38-8.022-11.375-12.363
			c4.447-4.484,8.111-6.792,14.104-4.387c0,5.119,0,10.312,0,15.505C69.131,82.68,68.221,83.095,67.312,83.51z"/>
	</g>
</g>
</svg>
