<?xml version="1.0" encoding="utf-8"?>
<!-- Generator: Adobe Illustrator 16.0.4, SVG Export Plug-In . SVG Version: 6.00 Build 0)  -->
<!DOCTYPE svg PUBLIC "-//W3C//DTD SVG 1.1//EN" "http://www.w3.org/Graphics/SVG/1.1/DTD/svg11.dtd">
<svg version="1.1" id="Layer_2603" xmlns="http://www.w3.org/2000/svg" xmlns:xlink="http://www.w3.org/1999/xlink" x="0px" y="0px"
	 width="128px" height="128px" viewBox="0 0 128 128" enable-background="new 0 0 128 128" xml:space="preserve">
<g>
	<path fill="none" d="M67.074,9.704c30.818,3.883,59.685,38.24,45.319,74.434c-7.553,19.024-20.864,31.306-40.812,36.157
		c-6.036,1.468-12.18,2.096-18.394,1.005c-0.973-0.171-1.983-0.394-2.978-0.026c0.844,0.796,1.993,0.891,3.01,1.049
		c2.838,0.442,5.702,0.84,8.566,0.956c32.473,1.321,59.389-24.467,59.744-60.16c-0.125-15.205-7.068-30.323-21.126-41.848
		C87.671,10.833,72.933,6.644,56.507,8.85c-0.558,0.075-1.106,0.214-1.658,0.323c0.628,0.067,1.253,0.176,1.883,0.196
		C60.181,9.478,63.667,9.274,67.074,9.704z"/>
	<path fill="none" d="M53.583,33.263c-0.133,0.053-0.19,0.298-0.265,0.499c0.21-0.062,0.44-0.104,0.583-0.238
		C54.082,33.354,53.893,33.14,53.583,33.263z"/>
	<path fill="none" d="M34.238,110.711c0.452,0.503,1.052,0.646,1.689,0.698C35.552,110.719,34.933,110.621,34.238,110.711z"/>
	<path fill="none" d="M72.396,15.734c-0.067-0.026-0.134-0.053-0.202-0.077c-0.068-0.001-0.135,0.001-0.203,0
		c0.052,0.021,0.103,0.038,0.154,0.059C72.229,15.723,72.312,15.729,72.396,15.734z"/>
	<path fill="none" d="M73.819,15.87c-0.469-0.075-0.946-0.101-1.424-0.135c0.449,0.171,0.895,0.379,1.356,0.431
		C74.14,16.209,74.185,15.928,73.819,15.87z"/>
	<path fill="none" d="M53.105,33.857c0.058,0.004,0.114-0.001,0.175,0.005c0.014-0.031,0.026-0.067,0.038-0.101
		c-0.036,0.01-0.073,0.019-0.107,0.031C53.175,33.813,53.141,33.836,53.105,33.857z"/>
	<path fill="none" d="M46.829,35.943c-15.975,8.211-23.46,27.064-17.535,44.005c5.963,17.048,23.917,27.395,41.565,23.325
		c14.068-3.243,23.508-11.856,27.219-26.13c-1.247,0.967-1.67,2.5-2.496,3.751C86.66,94.402,69.338,99.401,54.623,92.674
		c-14.657-6.699-22.292-23.246-17.796-38.739c2.6-8.96,8.368-15.406,16.278-20.078C50.731,33.676,48.789,34.935,46.829,35.943z"/>
	<path fill="none" d="M98.46,76.37c-0.061,0.148-0.12,0.298-0.182,0.447c0.041-0.047,0.081-0.094,0.111-0.147
		C98.439,76.585,98.438,76.471,98.46,76.37z"/>
	<path fill="none" d="M98.278,76.817c-0.051,0.06-0.106,0.117-0.157,0.178c-0.013,0.051-0.03,0.098-0.043,0.148
		c0.037-0.028,0.067-0.062,0.104-0.087C98.214,76.976,98.246,76.896,98.278,76.817z"/>
	<path fill="none" d="M38.284,112.748c-0.126-0.094-0.25-0.188-0.376-0.282c0.028,0.055,0.058,0.109,0.098,0.154
		C38.068,112.689,38.189,112.706,38.284,112.748z"/>
	<path fill="none" d="M34.062,110.604c-0.362-1.152-1.128-1.74-2.362-1.681C32.194,109.895,33.144,110.228,34.062,110.604z"/>
	<path fill="none" d="M10.333,82.347c3.902,11.236,10.61,20.471,21.214,26.443c-0.53-1.557-2.017-2.227-3.128-3.217
		C6.367,85.914,5.94,51.269,27.998,31.654c12.394-11.021,27.29-16.291,43.993-15.997c-6.971-2.799-14.252-2.498-21.359-1.286
		C18.997,19.769-0.167,52.117,10.333,82.347z"/>
	<path fill="none" d="M74.855,35.59c-15.152-3.783-30.827,5.932-34.193,21.187c-3.394,15.383,6.502,30.819,21.804,33.823
		c6.733,1.319,13.28,1.038,19.062-3.304c-1.529,0.058-3.059,0.165-4.589,0.155c-12.628-0.078-23.552-9.773-24.756-21.947
		c-1.337-13.525,6.802-24.95,19.772-27.696c1.536-0.326,3.117-0.449,4.675-0.672c0.421-0.06,0.841-0.139,1.261-0.209
		c-0.324-0.251-0.615-0.588-0.981-0.734C76.25,35.932,75.548,35.763,74.855,35.59z"/>
	<path fill="none" d="M31.7,108.924c-0.012-0.022-0.027-0.042-0.039-0.067c-0.039-0.021-0.075-0.045-0.114-0.066
		c0.016,0.046,0.04,0.086,0.054,0.135C31.635,108.922,31.666,108.926,31.7,108.924z"/>
	<path fill="none" d="M37.908,112.466c-0.034-0.066-0.064-0.136-0.099-0.202c-0.063-0.011-0.126-0.021-0.19-0.032
		c0.039,0.038,0.082,0.063,0.118,0.105C37.794,112.381,37.851,112.424,37.908,112.466z"/>
	<path fill="none" d="M34.238,110.711c-0.021-0.024-0.045-0.036-0.066-0.061c-0.037-0.016-0.074-0.03-0.11-0.046
		c0.013,0.042,0.03,0.079,0.042,0.122C34.149,110.72,34.193,110.717,34.238,110.711z"/>
	<path fill="none" d="M36.116,111.526c-0.023-0.035-0.049-0.065-0.071-0.104c-0.04-0.003-0.078-0.009-0.117-0.013
		c0.016,0.029,0.035,0.054,0.051,0.086C36.024,111.504,36.069,111.516,36.116,111.526z"/>
	<path fill="none" d="M75.521,41.731C64.46,42.255,56.034,51.98,56.498,63.321c0.47,11.449,9.689,19.897,21.413,19.619
		c11.216-0.266,18.447-8.098,18.454-19.982C96.447,47.925,87.308,41.174,75.521,41.731z"/>
	<path fill="none" d="M107.654,47.66c-0.06,0.922,0.127,1.773,0.707,2.516C108.4,49.259,108.514,48.322,107.654,47.66z"/>
	<path fill="none" d="M81.796,87.235c-0.058-0.003-0.115-0.007-0.173-0.006c-0.03,0.024-0.062,0.044-0.095,0.067
		c0.05-0.002,0.099-0.005,0.148-0.007C81.716,87.271,81.755,87.254,81.796,87.235z"/>
	<path fill="none" d="M22.971,45.043c-0.721,0.239-0.804,0.921-1.008,1.521c-5.851,9.72-6.961,20.208-4.828,31.135
		c4.58,23.457,28.606,39.902,51.75,35.496c0.604-0.114,1.365,0.156,1.775-0.58c-0.567-0.047-1.137-0.112-1.706-0.137
		c-0.573-0.023-1.149-0.005-1.724-0.01c-21.675-0.159-40.569-14.923-46.186-35.902c-2.697-10.07-1.788-19.898,1.3-29.676
		C22.888,46.383,22.981,45.73,22.971,45.043z"/>
	<path fill="none" d="M109.79,53.874c-0.048-0.21-0.176-0.402-0.314-0.592c0.039,0.093,0.072,0.186,0.078,0.281
		C109.58,53.964,109.824,54.023,109.79,53.874z"/>
	<path fill="none" d="M23.978,43.179l-0.172,0.092c-0.005,0.035-0.008,0.071-0.013,0.107c0.026-0.015,0.047-0.033,0.074-0.048
		L23.978,43.179z"/>
	<path fill="none" d="M109.476,53.282c-0.061-0.138-0.139-0.274-0.195-0.413c-0.035-0.107-0.071-0.214-0.106-0.32
		c0.007,0.129,0.021,0.257,0.049,0.379C109.301,53.047,109.39,53.164,109.476,53.282z"/>
	<path fill="none" d="M23.052,44.912c-0.028,0.013-0.049,0.028-0.08,0.04c0.001,0.031-0.002,0.06-0.001,0.091
		c0.026-0.009,0.046-0.021,0.073-0.029C23.046,44.98,23.05,44.947,23.052,44.912z"/>
	<polygon fill="none" points="46.926,120.549 47.282,120.664 47.276,120.423 	"/>
	<path fill="none" d="M23.792,43.378c-0.579,0.35-0.697,0.923-0.74,1.534C23.72,44.61,23.72,43.976,23.792,43.378z"/>
	<path fill="none" d="M108.459,50.385c0.238,0.722,0.478,1.442,0.715,2.164C109.132,51.763,109.355,50.888,108.459,50.385z"/>
	<path fill="none" d="M25.404,52.976c0.061-0.089,0.126-0.176,0.19-0.263c0.014-0.055,0.032-0.107,0.046-0.162
		c-0.036,0.032-0.067,0.068-0.106,0.099C25.491,52.758,25.448,52.867,25.404,52.976z"/>
	<path fill="none" d="M25.64,52.55c0.855-0.756,1.073-1.885,1.597-2.834C35.13,35.432,47.106,27.69,63.539,27.57
		c19.427-0.143,36.502,14.156,39.753,32.958c3.406,19.701-7.454,38.777-25.907,45.513c-1.479,0.541-2.943,1.117-4.416,1.678
		c1.639,0.381,3.141-0.347,4.628-0.742c9.524-2.524,18.072-6.503,23.328-15.552c15.542-26.758,0.825-60.634-29.327-67.604
		C46.623,18.048,30.538,34.282,25.64,52.55z"/>
	<path fill="none" d="M82.314,86.997c-0.173,0.08-0.346,0.158-0.519,0.238c0.085,0.004,0.172,0.004,0.25-0.02
		C82.147,87.186,82.227,87.073,82.314,86.997z"/>
	<path fill="none" d="M25.256,53.348c0.049-0.124,0.099-0.248,0.147-0.372c-0.018,0.027-0.041,0.051-0.057,0.08
		C25.298,53.142,25.285,53.25,25.256,53.348z"/>
	<path fill="none" d="M107.521,47.392c0.02,0.07,0.044,0.137,0.064,0.207c0.027,0.02,0.044,0.042,0.069,0.061
		c0.003-0.041-0.002-0.079,0.002-0.119C107.607,47.494,107.567,47.44,107.521,47.392z"/>
	<path fill="none" d="M85.377,24.093c0.189,0.017,0.379,0.034,0.567,0.052C85.778,23.999,85.632,23.753,85.377,24.093z"/>
	<path fill="none" d="M85.944,24.145c0.054,0.048,0.11,0.085,0.173,0.086c0.052,0.022,0.104,0.043,0.156,0.065
		c-0.029-0.045-0.062-0.083-0.091-0.13C86.104,24.159,86.024,24.151,85.944,24.145z"/>
	<path fill="none" d="M90.35,26.87c-0.979-1.469-2.584-1.932-4.076-2.574c0.945,1.484,2.411,2.177,4.059,2.593
		c4.394,4.205,9.143,8.044,12.594,13.186c1.609,2.396,2.526,5.224,4.595,7.317C104.795,38.059,98.864,31.39,90.35,26.87z"/>
	<path fill="none" d="M108.459,50.385c-0.014-0.041-0.027-0.082-0.04-0.124c-0.023-0.027-0.036-0.058-0.058-0.085
		c-0.002,0.047-0.005,0.096-0.007,0.144C108.396,50.339,108.422,50.364,108.459,50.385z"/>
	<path fill="none" d="M37.619,112.231c-0.417-0.409-0.944-0.592-1.503-0.705C36.473,112.061,37.051,112.137,37.619,112.231z"/>
	<path d="M27.878,5.789c3.145-0.973,6.434-1.712,9.766-0.811c1.485,0.402,3.66,0.551,3.815,2.267
		c0.145,1.613-2.078,1.609-3.287,2.168C14.109,20.546-0.687,46.452,2.349,72.295c4.284,36.475,37,58.747,68.741,55.064
		c36.242-4.203,61.595-39.432,53.414-75.112c-7.697-33.584-40.086-54.13-74.083-46.882c-2.348,0.501-3.965,0.597-5.591-1.501
		c-1.422-1.834-3.678-2.658-5.993-3.151c-6.545-1.397-12.548,0.533-18.378,3.108C13.496,6.895,7.487,11.332,2.275,16.832
		c0.47,1.454,1.078,3.341,1.569,4.869C10.258,14.221,18.183,8.787,27.878,5.789z M46.926,120.549l0.35-0.126l0.006,0.241
		L46.926,120.549z M21.045,76.566c5.617,20.979,24.511,35.743,46.186,35.902c0.574,0.005,1.15-0.014,1.724,0.01
		c0.569,0.024,1.139,0.09,1.706,0.137c-0.41,0.736-1.171,0.466-1.775,0.58c-23.144,4.406-47.17-12.039-51.75-35.496
		c-2.133-10.927-1.022-21.415,4.828-31.135c0.204-0.6,0.287-1.282,1.008-1.521c0-0.031,0.003-0.061,0.001-0.091
		c0.031-0.012,0.052-0.027,0.08-0.04c0.043-0.611,0.161-1.185,0.74-1.534c0.005-0.036,0.008-0.072,0.013-0.107l0.172-0.092
		l-0.111,0.151c-0.027,0.015-0.048,0.033-0.074,0.048c-0.072,0.598-0.072,1.232-0.74,1.534c-0.002,0.035-0.006,0.068-0.008,0.103
		c-0.027,0.008-0.047,0.02-0.073,0.029c0.01,0.687-0.083,1.339-0.626,1.847C19.258,56.668,18.349,66.496,21.045,76.566z
		 M108.361,50.176c0.021,0.027,0.034,0.058,0.058,0.085c0.013,0.042,0.026,0.083,0.04,0.124c0.896,0.502,0.673,1.377,0.715,2.164
		c0.035,0.106,0.071,0.213,0.106,0.32c0.057,0.138,0.135,0.274,0.195,0.413c0.139,0.19,0.267,0.382,0.314,0.592
		c0.034,0.149-0.21,0.09-0.236-0.311c-0.006-0.095-0.039-0.188-0.078-0.281c-0.086-0.118-0.175-0.234-0.253-0.354
		c-0.027-0.122-0.042-0.25-0.049-0.379c-0.237-0.722-0.477-1.442-0.715-2.164c-0.037-0.021-0.062-0.046-0.104-0.066
		C108.356,50.271,108.359,50.223,108.361,50.176c-0.58-0.742-0.767-1.594-0.707-2.516c-0.025-0.019-0.042-0.042-0.069-0.061
		c-0.021-0.07-0.045-0.137-0.064-0.207c-2.068-2.093-2.985-4.92-4.595-7.317c-3.451-5.141-8.2-8.98-12.594-13.186
		c-1.647-0.417-3.113-1.109-4.059-2.593c-0.053-0.022-0.104-0.043-0.156-0.065c-0.062-0.001-0.119-0.039-0.173-0.086
		c-0.188-0.018-0.378-0.035-0.567-0.052c0.255-0.339,0.401-0.094,0.567,0.052c0.08,0.007,0.159,0.014,0.238,0.021
		c0.028,0.047,0.062,0.085,0.091,0.13c1.492,0.642,3.098,1.104,4.076,2.574c8.515,4.52,14.445,11.189,17.171,20.522
		c0.047,0.048,0.087,0.102,0.136,0.149c-0.004,0.04,0.001,0.079-0.002,0.119C108.514,48.322,108.4,49.259,108.361,50.176z
		 M100.925,91.425c-5.256,9.049-13.804,13.027-23.328,15.552c-1.487,0.396-2.989,1.123-4.628,0.742
		c1.473-0.561,2.938-1.137,4.416-1.678c18.453-6.736,29.313-25.812,25.907-45.513c-3.251-18.802-20.326-33.101-39.753-32.958
		c-16.433,0.12-28.409,7.862-36.303,22.146c-0.524,0.949-0.741,2.078-1.597,2.834c-0.014,0.055-0.032,0.107-0.046,0.162
		c-0.064,0.087-0.129,0.174-0.19,0.263c-0.048,0.124-0.099,0.249-0.147,0.372c0.029-0.098,0.042-0.206,0.091-0.292
		c0.016-0.028,0.039-0.052,0.057-0.08c0.044-0.108,0.087-0.217,0.13-0.326c0.039-0.031,0.07-0.067,0.106-0.099
		c4.898-18.269,20.983-34.502,45.958-28.729C101.75,30.791,116.467,64.667,100.925,91.425z M76.631,37.137
		c-1.558,0.223-3.139,0.346-4.675,0.672c-12.97,2.746-21.11,14.171-19.772,27.696c1.204,12.174,12.128,21.869,24.756,21.947
		c1.53,0.01,3.06-0.098,4.589-0.155c0.032-0.023,0.064-0.043,0.095-0.067c0.058-0.001,0.115,0.003,0.173,0.006
		c0.173-0.08,0.346-0.158,0.519-0.238c-0.088,0.076-0.167,0.188-0.269,0.219c-0.078,0.023-0.165,0.023-0.25,0.02
		c-0.041,0.019-0.08,0.036-0.119,0.055c-0.05,0.002-0.099,0.005-0.148,0.007c-5.782,4.342-12.329,4.623-19.062,3.304
		c-15.301-3.004-25.198-18.44-21.804-33.823c3.366-15.255,19.041-24.97,34.193-21.187c0.692,0.173,1.395,0.341,2.055,0.604
		c0.366,0.146,0.657,0.483,0.981,0.734C77.472,36.998,77.052,37.077,76.631,37.137z M96.365,62.958
		c-0.007,11.885-7.238,19.717-18.454,19.982c-11.724,0.278-20.943-8.17-21.413-19.619c-0.464-11.341,7.962-21.066,19.022-21.59
		C87.308,41.174,96.447,47.925,96.365,62.958z M53.901,33.524c-0.144,0.134-0.373,0.176-0.583,0.238
		c-0.012,0.034-0.024,0.07-0.038,0.101c-0.061-0.006-0.117-0.001-0.175-0.005c-7.91,4.672-13.678,11.118-16.278,20.078
		c-4.496,15.493,3.139,32.04,17.796,38.739c14.715,6.728,32.037,1.729,40.959-11.779c0.826-1.251,1.249-2.784,2.496-3.751
		c0.013-0.051,0.03-0.098,0.043-0.148c0.051-0.061,0.106-0.118,0.157-0.178c0.062-0.149,0.121-0.299,0.182-0.447
		c-0.022,0.101-0.021,0.215-0.07,0.3c-0.03,0.054-0.07,0.101-0.111,0.147c-0.032,0.079-0.064,0.158-0.096,0.239
		c-0.037,0.025-0.067,0.059-0.104,0.087c-3.711,14.273-13.15,22.887-27.219,26.13c-17.649,4.069-35.603-6.277-41.565-23.325
		c-5.925-16.941,1.56-35.794,17.535-44.005c1.96-1.008,3.903-2.267,6.276-2.086c0.036-0.021,0.07-0.043,0.105-0.064
		c0.034-0.012,0.071-0.021,0.107-0.031c0.074-0.201,0.131-0.445,0.265-0.499C53.893,33.14,54.082,33.354,53.901,33.524z
		 M56.507,8.85c16.425-2.206,31.164,1.982,43.896,12.42c14.058,11.525,21.001,26.644,21.126,41.848
		c-0.354,35.693-27.271,61.481-59.744,60.16c-2.865-0.116-5.729-0.514-8.566-0.956c-1.017-0.158-2.166-0.253-3.01-1.049
		c0.995-0.367,2.005-0.145,2.978,0.026c6.213,1.091,12.357,0.463,18.394-1.005c19.948-4.852,33.26-17.133,40.812-36.157
		c14.365-36.194-14.501-70.551-45.319-74.434c-3.407-0.43-6.893-0.226-10.341-0.334c-0.63-0.02-1.255-0.128-1.883-0.196
		C55.401,9.064,55.95,8.925,56.507,8.85z M50.631,14.371c7.106-1.212,14.388-1.513,21.359,1.286c0.068,0.001,0.135-0.001,0.203,0
		c0.068,0.024,0.135,0.051,0.202,0.077c0.478,0.035,0.955,0.06,1.424,0.135c0.365,0.059,0.32,0.34-0.067,0.296
		c-0.462-0.052-0.907-0.26-1.356-0.431c-0.083-0.006-0.167-0.011-0.251-0.019c-0.052-0.021-0.103-0.038-0.154-0.059
		c-16.703-0.294-31.599,4.976-43.993,15.997c-22.057,19.614-21.63,54.26,0.421,73.919c1.111,0.99,2.599,1.66,3.128,3.217
		c0.039,0.021,0.075,0.046,0.114,0.066c0.011,0.025,0.027,0.045,0.039,0.067c1.234-0.06,2,0.528,2.362,1.681
		c0.037,0.016,0.074,0.03,0.11,0.046c0.021,0.024,0.045,0.036,0.066,0.061c0.695-0.09,1.313,0.008,1.689,0.698
		c0.04,0.004,0.077,0.01,0.117,0.013c0.021,0.039,0.047,0.069,0.071,0.104c0.559,0.113,1.085,0.296,1.503,0.705
		c0.064,0.011,0.127,0.021,0.19,0.032c0.034,0.066,0.065,0.136,0.099,0.202c0.126,0.094,0.25,0.188,0.376,0.282
		c-0.095-0.042-0.216-0.059-0.279-0.128c-0.04-0.045-0.069-0.1-0.098-0.154c-0.057-0.042-0.114-0.085-0.171-0.129
		c-0.036-0.042-0.08-0.067-0.118-0.105c-0.568-0.095-1.146-0.171-1.503-0.705c-0.046-0.011-0.091-0.022-0.137-0.031
		c-0.016-0.032-0.035-0.057-0.051-0.086c-0.637-0.053-1.238-0.195-1.689-0.698c-0.045,0.006-0.089,0.009-0.134,0.016
		c-0.012-0.043-0.029-0.08-0.042-0.122c-0.918-0.377-1.868-0.71-2.362-1.681c-0.034,0.002-0.064-0.002-0.099,0.001
		c-0.014-0.049-0.038-0.089-0.054-0.135c-10.604-5.973-17.312-15.207-21.214-26.443C-0.167,52.117,18.997,19.769,50.631,14.371z"/>
</g>
</svg>
