<?xml version="1.0" encoding="utf-8"?>
<!-- Generator: Adobe Illustrator 16.0.4, SVG Export Plug-In . SVG Version: 6.00 Build 0)  -->
<!DOCTYPE svg PUBLIC "-//W3C//DTD SVG 1.1//EN" "http://www.w3.org/Graphics/SVG/1.1/DTD/svg11.dtd">
<svg version="1.1" id="Layer_2606" xmlns="http://www.w3.org/2000/svg" xmlns:xlink="http://www.w3.org/1999/xlink" x="0px" y="0px"
	 width="128px" height="128px" viewBox="0 0 128 128" enable-background="new 0 0 128 128" xml:space="preserve">
<path fill-rule="evenodd" clip-rule="evenodd" d="M22.998,2.656l82.578-2.637l1.611,0.637l17.905,16.376l2.493,12.549l0.135,0.23
	l-2.29,34.837l-0.847,6.396l-5.628,37.523l-0.563,2.251l-1.882,0.314L96.67,122.674l-64.613,5.308l-0.632-0.3l-8.749-0.643
	l-0.585,0.186l-1.374-0.785L4.068,94.327L0.279,30.035l6.843-14.441l0.004-0.089L18.759,3.436L22.998,2.656L22.998,2.656z
	 M68.263,88.873l-0.01,3.797l0.581,0.946l0.781,0.177l0.888-0.151l25.65,4.511l0.689-0.143l10.22-10.266l2.025-23.552l-0.188-0.491
	l2.672-30.73l-0.403-0.597l-0.44,0.116L68.267,69.983L68.451,80l-0.044,0.072L68.263,88.873L68.263,88.873z M25.93,36.612
	l-0.731,0.347l41.917,30.822L99.65,38.96l0.13-0.737l-2.8-3.548L25.93,36.612L25.93,36.612z M97.885,12.732l-0.003-0.604
	l-0.798-0.414L33.178,22.08l-9.43,12.108l0.39,0.738l71.646-2.853l0.389-0.431L97.885,12.732L97.885,12.732z M92.301,119.617
	l3.182-0.369l0.839-0.471l10.415-14.371l0.059-0.445l-22.661,1.208l-0.065-0.033l-54.376,2.092l-0.02,0.712l11.143,16.61
	l0.331,0.123l10.286-0.906l0.919-0.477L92.301,119.617L92.301,119.617z M65.794,72.626l-0.006-1.021l-0.797-0.59l-0.217,0.157
	l-43.585,9.709l-0.199,0.139l7.554,23.391l37.214-11.398L65.794,72.626L65.794,72.626z M20.985,76.483l-0.005,1.804l0.342,0.668
	l42.549-10.116l-0.233-0.449l-40.33-30.28L22.42,38l-0.282,0.513L20.985,76.483L20.985,76.483z M88.878,10.625l9.593-1.339
	l3.453-4.859l0.08-0.586l-0.557-0.225L22.124,5.893l-0.368,0.351l0.168,0.687l9.806,12.448l0.305,0.178L88.878,10.625L88.878,10.625
	z M123.896,38.66v-0.191l-0.371-0.601l-9.248-5.829l-0.625,0.276l-2.672,47.505l-0.115,0.14l-0.61,7.63l3.004,8.859l0.577-0.345
	l5.302-6.533L123.896,38.66L123.896,38.66z M6.365,86.021l-0.008,2.279l0.288,0.521l0.448,0.151l11.042-9.509l1.908-39.904
	l-0.389-0.829l-0.461,0.012L5.35,48.546l-0.707,1.321L6.365,86.021L6.365,86.021z M10.029,96.833H9.715l-0.23,0.372l13.936,26.402
	l8.053,0.195l0.213,0.161l5.722,0.568l0.093-0.52l-11.778-17.118L10.029,96.833L10.029,96.833z M97.371,101.958l3.262-0.392
	l0.248-0.254l-0.206-0.253L66.511,95.82l-28.946,8.219l-0.255,0.288l0.233,0.308l46.208-2.118l0.065-0.063L97.371,101.958
	L97.371,101.958z M100.732,10.79l11.196,17.323l1.018-0.172l7.518-9.352l-0.083-0.931l-14.534-13.53l-0.945,0.049L100.732,10.79
	L100.732,10.79z M25.225,103.669l0.504-0.604l-7.017-20.837l-11.95,9.584l0.26,0.821L25.225,103.669L25.225,103.669z M12.437,18.051
	l-0.699,0.189l-0.054,0.586l9.657,14.854l0.205,0.034l8.213-10.705l0.135-0.682L12.437,18.051L12.437,18.051z M3.897,30.928
	l0.834,0.614l13.225,2.445l0.503-0.075L9.968,19.938l-0.78-0.275L3.897,30.928L3.897,30.928z M4.276,44.554L4.28,45.67l0.983,0.521
	l12.725-9.494l-0.106-0.399L3.774,33.426l-0.446,0.466L4.276,44.554L4.276,44.554z M99.621,31.707l10.01-2.37l-0.036-0.629
	l-9.11-14.229l-0.322,0.036l-1.339,16.157L99.621,31.707L99.621,31.707z M28.391,19.128L20.076,7.722L19.237,7.73l-7.53,7.958
	l1.062,0.654l15.179,3.214L28.391,19.128L28.391,19.128z M101.968,116.011l10.482-6.062l5.361-14.387l-0.021-0.365l-0.396-0.122
	l-15.854,20.42L101.968,116.011L101.968,116.011z M123.264,34.556l0.438-0.469l-1.515-13.232l-0.183-0.346l-0.413,0.221
	l-5.344,6.566l-0.315,0.142l-1.212,1.586l0.113,0.911L123.264,34.556L123.264,34.556z M111.165,98.524l-2.25-7.752l-1.183-0.29
	l-7.62,7.804l-0.125,0.507l0.504,0.327l9.55,0.873l1.047-1.085L111.165,98.524L111.165,98.524z M101.444,33.219l-1.074,0.208
	l-0.577,0.702l2.166,2.675l0.675,0.025l2.702-2.792l0.165-0.051l1.662-1.211l-0.126-0.488L101.444,33.219L101.444,33.219z"/>
</svg>
