<?xml version="1.0" encoding="utf-8"?>
<!-- Generator: Adobe Illustrator 16.0.4, SVG Export Plug-In . SVG Version: 6.00 Build 0)  -->
<!DOCTYPE svg PUBLIC "-//W3C//DTD SVG 1.1//EN" "http://www.w3.org/Graphics/SVG/1.1/DTD/svg11.dtd">
<svg version="1.1" id="Layer_2608" xmlns="http://www.w3.org/2000/svg" xmlns:xlink="http://www.w3.org/1999/xlink" x="0px" y="0px"
	 width="128px" height="128px" viewBox="0 0 128 128" enable-background="new 0 0 128 128" xml:space="preserve">
<g>
	<path d="M127.024,100.13c-4.619-2.525-9.245-5.039-13.857-7.578c-1.438-0.793-2.634-0.253-3.909,0.458
		c-3.381,1.884-6.911,3.521-10.178,5.58c-2.448,1.542-4.451,1.379-6.823-0.077c-3.163-1.941-6.568-3.482-9.759-5.382
		c-1.807-1.076-3.303-1.162-5.148-0.071c-3.463,2.049-7.107,3.789-10.581,5.821c-1.96,1.146-3.646,1.183-5.61,0.013
		c-3.191-1.899-6.602-3.438-9.738-5.418c-2.417-1.525-4.442-1.411-6.798,0.063c-2.751,1.721-5.798,2.976-8.527,4.728
		c-2.627,1.688-4.888,1.977-7.65,0.159c-3.092-2.035-6.536-3.527-9.756-5.379c-1.458-0.838-2.747-1.188-4.317-0.309
		c-4.321,2.422-8.691,4.758-13.032,7.145c-0.939,0.516-2.084,0.974-1.333,2.436c0.762,1.481,1.824,1.344,3.083,0.645
		c3.384-1.878,6.856-3.606,10.17-5.601c2.077-1.251,3.795-1.385,5.948-0.058c3.419,2.111,7.09,3.81,10.578,5.815
		c1.666,0.958,3.085,0.989,4.756,0.02c3.346-1.942,6.88-3.573,10.151-5.63c2.429-1.525,4.46-1.404,6.82,0.057
		c2.892,1.791,6.063,3.137,8.917,4.98c2.571,1.66,4.714,1.504,7.238-0.112c2.99-1.915,6.285-3.35,9.35-5.157
		c1.95-1.149,3.631-1.206,5.612-0.023c3.32,1.983,6.843,3.631,10.159,5.624c2.131,1.278,3.938,1.2,6.021-0.073
		c2.771-1.692,5.823-2.946,8.515-4.747c2.943-1.97,5.487-2.097,8.501-0.082c2.948,1.971,6.241,3.421,9.364,5.133
		c1.876,1.028,2.472-0.192,2.994-1.584C127.998,100.868,127.584,100.436,127.024,100.13z"/>
	<path d="M126.329,48.692c-3.662-2.017-7.425-3.867-10.982-6.054c-2.536-1.559-4.685-1.706-7.268-0.066
		c-3.131,1.985-6.561,3.491-9.763,5.373c-1.826,1.073-3.353,1.057-5.17-0.028c-2.923-1.745-6.109-3.063-8.948-4.923
		c-2.94-1.925-5.487-2.138-8.498-0.104c-2.81,1.898-6.004,3.215-8.926,4.961c-1.954,1.167-3.649,1.204-5.613,0.019
		c-2.78-1.68-5.821-2.948-8.516-4.742c-3.038-2.022-5.73-2.475-8.864-0.159c-2.097,1.549-4.699,2.398-6.871,3.864
		c-3.177,2.144-6.046,2.329-9.331,0.084c-2.796-1.912-5.992-3.23-8.945-4.925c-1.466-0.841-2.757-1.113-4.331-0.227
		c-4.181,2.357-8.433,4.587-12.639,6.899c-1.059,0.584-2.395,1.112-1.491,2.782c0.873,1.609,2.023,0.95,3.135,0.351
		c3.406-1.838,6.857-3.603,10.185-5.574c1.975-1.171,3.66-1.126,5.613,0.033c3.059,1.816,6.385,3.209,9.335,5.177
		c2.743,1.83,4.991,1.584,7.632-0.118c2.855-1.84,6.017-3.199,8.932-4.954c2.088-1.258,3.903-1.337,6.036-0.057
		c3.316,1.99,6.84,3.632,10.162,5.611c1.976,1.178,3.626,1.156,5.588-0.031c3.043-1.841,6.328-3.289,9.34-5.174
		c2.515-1.575,4.691-1.752,7.278-0.119c3.135,1.98,6.552,3.51,9.739,5.413c1.819,1.086,3.338,1.101,5.163,0.021
		c3.329-1.971,6.854-3.613,10.155-5.628c2.285-1.394,4.201-1.29,6.451,0.075c3.304,2.006,6.799,3.697,10.184,5.574
		c1.799,0.997,2.525,0.011,3.065-1.458C128.068,49.43,127.113,49.123,126.329,48.692z"/>
	<path d="M114.887,101.943c-2.25-1.361-4.153-1.449-6.437-0.05c-3.294,2.018-6.823,3.645-10.153,5.606
		c-1.834,1.082-3.374,1.023-5.175-0.038c-2.93-1.727-6.155-2.999-8.923-4.937c-3.17-2.22-5.845-1.887-8.896,0.112
		c-2.707,1.773-5.737,3.048-8.512,4.731c-1.953,1.185-3.652,1.197-5.61,0.037c-3.191-1.892-6.57-3.474-9.716-5.43
		c-2.402-1.494-4.452-1.496-6.816,0.065c-2.315,1.528-5.016,2.492-7.268,4.095c-3.646,2.597-6.936,2.468-10.562-0.061
		c-2.522-1.759-5.403-2.999-8.106-4.503c-1.097-0.61-2.21-1.374-3.467-0.705c-4.912,2.614-9.792,5.289-14.665,7.975
		c-0.749,0.412-1.085,1.099-0.564,1.939c0.504,0.815,1.088,1.606,2.202,1.079c1.257-0.594,2.619-1.105,3.672-1.973
		c6.917-5.699,13.723-5.741,20.697-0.051c1.52,1.241,3.521,1.891,5.001,2.656c1.526,0.077,2.411-0.612,3.354-1.114
		c3.005-1.597,6.111-3.042,8.958-4.888c2.781-1.804,5.196-2.081,8.058-0.14c2.546,1.729,5.509,2.833,8.102,4.503
		c2.634,1.698,4.903,1.939,7.645,0.098c2.939-1.975,6.254-3.382,9.312-5.192c1.948-1.155,3.634-1.188,5.608-0.012
		c3.319,1.979,6.829,3.637,10.152,5.608c2.116,1.257,3.946,1.222,6.04-0.046c2.907-1.761,6.052-3.138,8.914-4.965
		c2.648-1.689,4.962-1.929,7.673-0.093c2.42,1.641,5.071,2.983,7.738,4.202c1.417,0.646,3.152,3.184,4.611,0.406
		c1.248-2.379-1.509-2.585-2.719-3.314C121.729,105.553,118.19,103.943,114.887,101.943z"/>
	<path d="M126.116,65.573c-3.936-2.156-7.96-4.158-11.803-6.468c-2.048-1.231-3.688-0.944-5.581,0.146
		c-3.351,1.93-6.845,3.616-10.154,5.609c-1.947,1.173-3.535,1.26-5.527,0.043c-3.296-2.013-6.844-3.61-10.156-5.599
		c-2.094-1.257-3.847-1.362-5.986-0.057c-3.299,2.01-6.864,3.58-10.152,5.605c-1.969,1.214-3.531,1.267-5.505,0.069
		c-3.306-2.001-6.835-3.629-10.145-5.625c-2.093-1.264-3.859-1.354-5.99-0.061c-3.302,2.004-6.838,3.624-10.146,5.622
		c-1.943,1.174-3.512,1.278-5.507,0.058c-3.427-2.1-7.052-3.87-10.568-5.823c-1.562-0.868-2.963-1.308-4.743-0.267
		c-4.004,2.341-8.152,4.436-12.207,6.695c-1.132,0.632-2.914,1.185-1.7,3.04c1.119,1.713,2.466,0.538,3.64-0.082
		c3.146-1.663,6.338-3.259,9.361-5.125c2.103-1.297,3.86-1.342,5.989-0.054c3.439,2.081,7.084,3.816,10.554,5.85
		c1.672,0.981,3.09,0.959,4.735,0.018c3.625-2.075,7.361-3.959,10.959-6.077c1.819-1.071,3.327-1.061,5.152,0.017
		c3.596,2.121,7.358,3.96,10.973,6.051c1.661,0.961,3.033,0.989,4.714,0.003c3.6-2.115,7.369-3.942,10.962-6.069
		c1.833-1.085,3.335-1.055,5.152,0.01c3.603,2.109,7.366,3.942,10.971,6.047c1.68,0.981,3.072,0.966,4.727,0.008
		c3.479-2.017,7.106-3.78,10.543-5.863c2.122-1.286,3.887-1.235,5.991,0.032c3.31,1.993,6.81,3.667,10.172,5.576
		c1.618,0.919,2.6,0.524,3.352-1.3C128.11,66.472,127.027,66.072,126.116,65.573z"/>
	<path d="M126.407,40.258c-4.199-2.311-8.443-4.543-12.603-6.922c-1.736-0.992-3.168-0.648-4.763,0.258
		c-3.36,1.909-6.871,3.566-10.153,5.596c-2.295,1.418-4.174,1.294-6.408-0.097c-3.014-1.875-6.296-3.318-9.328-5.167
		c-2.213-1.349-4.104-1.548-6.398-0.104c-3.003,1.891-6.305,3.304-9.326,5.17c-2.37,1.463-4.404,1.577-6.83,0.073
		c-3.28-2.032-6.807-3.66-10.147-5.602c-1.653-0.962-3.025-1.022-4.714-0.027c-3.46,2.04-7.097,3.781-10.558,5.821
		c-2.092,1.233-3.903,1.311-6.019,0.032c-3.305-1.997-6.774-3.719-10.127-5.64c-1.554-0.891-2.971-1.432-4.736-0.431
		c-4.302,2.44-8.675,4.758-13.012,7.138c-0.957,0.524-2.027,1.029-1.264,2.459c0.789,1.479,1.86,1.285,3.097,0.597
		c3.243-1.804,6.501-3.578,9.767-5.341c1.084-0.586,2.207-1.101,3.338-1.661c0.885,0.42,1.737,0.779,2.548,1.215
		c3.541,1.902,7.113,3.753,10.586,5.772c1.943,1.131,3.616,1.183,5.59,0.016c3.457-2.045,7.104-3.767,10.562-5.81
		c1.819-1.073,3.313-1.063,5.122,0.002c3.462,2.038,7.09,3.794,10.556,5.826c1.965,1.152,3.636,1.137,5.592-0.05
		c3.037-1.841,6.315-3.293,9.314-5.188c2.492-1.575,4.644-1.843,7.225-0.149c2.704,1.775,5.767,3.003,8.497,4.746
		c2.621,1.673,4.888,2.021,7.631,0.127c2.655-1.835,5.737-3.042,8.487-4.757c2.508-1.563,4.724-1.685,7.286-0.062
		c2.998,1.898,6.2,3.479,9.335,5.157c1.069,0.571,2.192,1.351,3.177-0.238C128.769,41.346,127.479,40.848,126.407,40.258z"/>
	<path d="M126.603,91.37c-4.91-2.612-9.606-6.584-14.8-7.4c-4.06-0.639-8.139,3.81-12.288,5.843
		c-0.14,0.067-0.288,0.127-0.407,0.221c-2.253,1.761-4.369,1.466-6.78,0.047c-3.987-2.347-8.072-5.856-12.289-6.124
		c-4.457-0.283-8.536,3.82-12.699,6.131c-2.46,1.365-4.372,1.433-6.804-0.013c-3.977-2.366-8.075-5.811-12.31-6.105
		c-4.478-0.312-8.517,3.842-12.686,6.133c-2.479,1.363-4.393,1.387-6.811-0.04c-3.986-2.352-8.086-5.825-12.312-6.095
		c-4.469-0.285-8.51,3.872-12.682,6.176c-1.471,0.812-4.926,0.936-3.453,3.738c1.471,2.8,3.458-0.063,5.019-0.725
		c3.82-1.621,7.247-5.542,11.091-5.255c3.814,0.283,7.555,3.301,11.053,5.547c3.252,2.089,6.008,2.245,9.31,0.095
		c3.485-2.27,7.219-5.353,11.017-5.62c4.021-0.283,7.871,3.189,11.432,5.54c3.541,2.337,6.375,1.889,9.714-0.162
		c3.53-2.168,7.203-5.633,11.016-5.399c3.791,0.232,7.548,3.275,11.04,5.521c3.248,2.089,6.04,2.335,9.293,0.098
		c2.535-1.742,5.511-2.835,8.088-4.522c2.404-1.574,4.401-1.417,6.768,0.074c3.134,1.975,6.473,3.627,9.74,5.387
		c0.793,0.428,1.684,1.004,2.509,0.083c0.397-0.442,0.638-1.023,0.873-1.415C127.971,92.109,127.29,91.735,126.603,91.37z"/>
	<path d="M126.708,31.884c-4.486-2.433-8.996-4.823-13.436-7.337c-1.476-0.835-2.63-0.359-3.884,0.332
		c-3.52,1.943-7.123,3.749-10.551,5.842c-2.101,1.281-3.878,1.374-5.993,0.092c-3.037-1.842-6.295-3.323-9.312-5.198
		c-2.48-1.542-4.611-1.84-7.193-0.089c-2.675,1.812-5.774,2.989-8.499,4.74c-2.627,1.688-4.903,1.935-7.613,0.109
		c-2.683-1.806-5.751-3.029-8.49-4.761c-2.485-1.57-4.63-1.813-7.214-0.096c-2.822,1.876-6.025,3.173-8.902,4.976
		c-2.359,1.479-4.37,1.616-6.802,0.085c-3.265-2.056-6.779-3.711-10.145-5.614c-1.435-0.812-2.736-1.185-4.316-0.292
		c-4.308,2.433-8.677,4.76-13.015,7.141c-0.982,0.539-1.957,1.134-1.25,2.511c0.794,1.549,1.96,1.156,3.124,0.526
		c3.534-1.914,7.119-3.746,10.565-5.807c1.832-1.095,3.312-0.983,5.09,0.065c3.328,1.963,6.857,3.593,10.139,5.625
		c2.28,1.411,4.167,1.308,6.405-0.055c3.298-2.007,6.831-3.629,10.143-5.616c1.819-1.091,3.285-1.027,5.074,0.032
		c3.323,1.97,6.86,3.586,10.144,5.617c2.279,1.41,4.157,1.328,6.403-0.042c3.295-2.01,6.833-3.621,10.146-5.604
		c1.815-1.086,3.271-1.049,5.075,0.014c3.597,2.116,7.364,3.938,10.98,6.022c1.667,0.962,3.055,0.968,4.727,0
		c3.477-2.014,7.137-3.719,10.569-5.801c2.107-1.276,3.8-1.333,5.925-0.012c3.276,2.039,6.732,3.797,10.167,5.571
		c1.761,0.91,3.536,0.121,3.458-0.92C128.062,32.639,127.397,32.258,126.708,31.884z"/>
	<path d="M109.265,16.478c-3.678,1.98-7.396,3.896-10.99,6.018c-1.825,1.078-3.304,1.05-5.12-0.028
		c-3.592-2.129-7.36-3.954-10.963-6.065c-1.684-0.987-3.062-0.939-4.717,0.021c-3.613,2.094-7.371,3.941-10.964,6.066
		c-1.824,1.078-3.336,1.047-5.14-0.007c-3.604-2.107-7.348-3.976-10.961-6.066c-1.661-0.961-3.06-0.951-4.723,0.02
		c-3.472,2.027-7.13,3.744-10.55,5.85C33,23.6,31.301,23.548,29.183,22.25c-3.425-2.098-7.029-3.907-10.589-5.777
		c-1.043-0.547-2.039-1.443-3.429-0.674c-4.738,2.622-9.509,5.187-14.263,7.78c-0.935,0.509-1.374,1.234-0.808,2.273
		c0.652,1.199,1.606,1.303,2.728,0.688c1.492-0.818,3.117-1.464,4.453-2.486c5.928-4.538,11.782-5.206,17.746-0.096
		c4.823,4.133,9.769,3.856,14.47-0.085c5.872-4.923,11.541-4.552,17.299,0.082c4.628,3.723,9.267,4.205,14.089,0.188
		c1.397-1.165,3.377-1.617,4.832-2.731c2.902-2.223,5.458-1.755,8.402,0.047c3.679,2.25,7.535,5.418,11.481,5.684
		c4.203,0.282,8.08-3.451,11.869-5.779c3.049-1.872,5.518-1.812,8.433,0.096c2.837,1.857,5.905,3.377,8.942,4.908
		c1.709,0.862,3.546-0.083,3.336-1.522c-0.108-0.699-0.643-1.005-1.192-1.302c-4.624-2.506-9.281-4.955-13.854-7.553
		C111.586,15.114,110.475,15.827,109.265,16.478z"/>
	<path d="M3.168,60.383c3.385-1.873,6.869-3.582,10.17-5.59c2.138-1.3,3.922-1.19,6.003,0.065c3.044,1.837,6.347,3.261,9.322,5.195
		c2.586,1.681,4.697,1.413,7.237-0.103c3.842-2.292,7.786-5.558,11.907-5.923c4.395-0.391,8.195,3.814,12.353,5.817
		c1.244,0.597,2.478,1.215,3.764,1.847c0.919-0.431,1.771-0.784,2.582-1.219c3.409-1.828,6.89-3.542,10.177-5.571
		c2.288-1.412,4.195-1.329,6.428,0.054c2.891,1.79,6.071,3.125,8.904,4.993c2.718,1.79,5.022,1.587,7.662-0.105
		c2.729-1.753,5.753-3.037,8.512-4.747c2.354-1.459,4.402-1.605,6.831-0.069c3.001,1.897,6.226,3.443,9.363,5.123
		c1.225,0.654,2.513,1.584,3.491-0.344c0.905-1.782-0.693-2.115-1.663-2.66c-3.913-2.197-7.923-4.228-11.791-6.499
		c-1.983-1.165-3.646-1.118-5.598,0.037c-3.328,1.97-6.855,3.607-10.15,5.624c-2.136,1.308-3.891,1.229-5.985-0.054
		c-3.031-1.857-6.347-3.26-9.327-5.187c-2.582-1.669-4.71-1.521-7.228,0.107c-2.851,1.843-6.023,3.181-8.925,4.954
		c-2.224,1.359-4.139,1.465-6.418,0.06c-3.29-2.026-6.808-3.677-10.144-5.631c-1.814-1.063-3.365-1.038-5.181,0.016
		c-3.613,2.096-7.37,3.942-10.988,6.03c-1.659,0.957-3.014,0.971-4.69-0.017c-3.599-2.117-7.333-4.005-10.993-6.019
		c-1.404-0.772-2.695-1.303-4.33-0.379c-4.311,2.438-8.712,4.713-13.044,7.11c-0.896,0.497-2.048,1.03-1.322,2.483
		C0.868,61.329,1.934,61.065,3.168,60.383z"/>
	<path d="M0.203,85.536c0.94,1.506,2.089,0.829,3.199,0.224c2.987-1.629,6.106-3.064,8.917-4.957
		c2.838-1.911,5.186-1.646,8.021,0.055c3.822,2.294,7.657,5.899,11.88,5.849c4.215-0.052,7.939-3.794,11.928-5.821
		c1.24-0.631,2.468-1.281,3.818-1.984c0.806,0.367,1.665,0.702,2.47,1.138c3.537,1.913,7.127,3.744,10.562,5.83
		c2.119,1.287,3.858,1.254,5.974-0.037c3.428-2.093,7.095-3.793,10.548-5.85c1.693-1.008,3.05-0.926,4.695,0.024
		c3.616,2.087,7.375,3.928,10.967,6.054c1.835,1.086,3.347,1.035,5.151-0.019c3.605-2.103,7.352-3.967,10.965-6.058
		c1.656-0.959,3.025-0.982,4.704,0.01c3.325,1.967,6.775,3.724,10.187,5.545c1.184,0.634,2.435,1.762,3.567-0.061
		c1.26-2.025-0.705-2.366-1.739-2.951c-3.901-2.208-7.934-4.192-11.803-6.455c-1.834-1.073-3.3-1.062-5.118,0.013
		c-3.594,2.123-7.357,3.958-10.974,6.044c-1.663,0.96-3.055,0.973-4.724-0.001c-3.607-2.104-7.352-3.971-10.966-6.061
		c-1.787-1.032-3.31-1.116-5.146-0.024c-3.587,2.133-7.352,3.969-10.956,6.074c-1.669,0.976-3.066,0.971-4.725,0.013
		c-3.615-2.089-7.351-3.969-10.967-6.056c-1.786-1.031-3.308-1.103-5.139-0.011c-3.451,2.057-7.105,3.776-10.547,5.849
		c-1.966,1.184-3.571,1.167-5.533,0.001c-3.587-2.132-7.331-3.999-10.984-6.022c-1.273-0.706-2.386-1.111-3.86-0.272
		c-4.3,2.448-8.695,4.733-13.042,7.101C0.427,83.32-0.792,83.946,0.203,85.536z"/>
	<path d="M3.119,77.373c0.671-0.384,1.363-0.733,2.05-1.09c3.704-1.918,7.444-5.401,11.104-5.319
		c3.882,0.087,7.688,3.562,11.528,5.557c1.371,0.713,2.742,1.427,4.231,2.201c0.826-0.369,1.687-0.692,2.488-1.124
		c3.681-1.981,7.391-3.915,10.996-6.028c1.822-1.068,3.326-1.023,5.136,0.048c3.462,2.048,7.117,3.772,10.568,5.838
		c1.981,1.187,3.591,1.129,5.55-0.053c3.311-1.998,6.874-3.583,10.152-5.628c2.153-1.343,3.866-1.199,5.954,0.06
		c3.442,2.079,7.085,3.827,10.563,5.85c1.674,0.973,3.069,0.919,4.729-0.048c3.478-2.024,7.152-3.721,10.562-5.846
		c2.157-1.345,3.836-1.217,5.934,0.071c3.294,2.023,6.789,3.716,10.18,5.585c1.304,0.719,2.365,0.681,3.088-0.75
		c0.759-1.507-0.556-1.892-1.432-2.378c-4.062-2.255-8.221-4.34-12.206-6.72c-2.035-1.215-3.653-0.973-5.562,0.148
		c-3.336,1.958-6.849,3.621-10.159,5.619c-1.941,1.172-3.529,1.275-5.517,0.065c-3.169-1.93-6.608-3.418-9.76-5.374
		c-2.37-1.472-4.335-1.654-6.779-0.082c-3.116,2.003-6.576,3.466-9.749,5.391c-1.948,1.184-3.538,1.278-5.521,0.075
		c-3.306-2.007-6.852-3.619-10.146-5.644c-2.108-1.296-3.857-1.356-5.98-0.062c-3.169,1.933-6.574,3.478-9.745,5.408
		c-2.201,1.338-4.035,1.513-6.331,0.074c-3.403-2.134-7.06-3.862-10.589-5.798c-1.272-0.699-2.409-1.119-3.881-0.283
		c-4.309,2.444-8.708,4.73-13.049,7.12c-0.909,0.499-2.134,0.989-1.492,2.417C0.714,78.181,1.866,78.087,3.119,77.373z"/>
</g>
</svg>
