<?xml version="1.0" encoding="utf-8"?>
<!-- Generator: Adobe Illustrator 16.0.4, SVG Export Plug-In . SVG Version: 6.00 Build 0)  -->
<!DOCTYPE svg PUBLIC "-//W3C//DTD SVG 1.1//EN" "http://www.w3.org/Graphics/SVG/1.1/DTD/svg11.dtd">
<svg version="1.1" id="Layer_2616" xmlns="http://www.w3.org/2000/svg" xmlns:xlink="http://www.w3.org/1999/xlink" x="0px" y="0px"
	 width="128px" height="128px" viewBox="0 0 128 128" enable-background="new 0 0 128 128" xml:space="preserve">
<g>
	<g>
		<g id="H0ktdp.tif_3_">
			<g>
				<path fill-rule="evenodd" clip-rule="evenodd" d="M128.217,60.938c-0.29,1.375-0.58,2.753-0.909,4.316
					c-41.679,0-82.951,0-124.666,0c-0.364-2.147-0.698-4.111-1.127-6.642c3.934-1.368,7.635-2.657,11.739-4.086
					c0.582-2.899,1.18-5.881,1.843-9.186c8.641-1.305,17.074,0.316,25.643,1.349c2.663-6.862,2.722-13.856,4.097-21.288
					c7.08,1.338,13.817,2.611,20.472,3.869c0.582,2.05,1.018,3.587,1.578,5.563c4.046,0.3,8.125,0.717,12.212,0.824
					c1.004,0.026,2.241-0.757,3.012-1.527c1.974-1.974,3.745-4.149,6.068-6.775c4.135,1.587,8.614,3.307,12.597,4.835
					c1.605,2.614,0.356,6.055,3.661,6.833c2.263,0.533,4.622,0.656,7.323,1.014c0,3.45,0,6.621,0,9.453
					c5.688,3.962,11.098,7.728,16.506,11.495C128.264,60.985,128.216,60.938,128.217,60.938z"/>
			</g>
		</g>
		<g id="H0ktdp.tif_2_">
			<g>
				<path fill-rule="evenodd" clip-rule="evenodd" d="M-0.217,67.062c0.29-1.377,0.58-2.753,0.909-4.318
					c41.679,0,82.952,0,124.667,0c0.364,2.148,0.698,4.111,1.128,6.642c-3.935,1.371-7.635,2.658-11.739,4.086
					c-0.582,2.9-1.18,5.883-1.843,9.188c-8.642,1.305-17.074-0.316-25.643-1.35c-2.663,6.863-2.723,13.855-4.097,21.289
					c-7.08-1.34-13.817-2.611-20.472-3.869c-0.582-2.051-1.018-3.588-1.579-5.564c-4.046-0.299-8.125-0.717-12.212-0.822
					c-1.003-0.027-2.24,0.758-3.01,1.527c-1.974,1.973-3.746,4.148-6.068,6.773c-4.135-1.586-8.615-3.307-12.596-4.834
					c-1.605-2.613-0.357-6.057-3.662-6.834c-2.263-0.533-4.623-0.656-7.324-1.014c0-3.449,0-6.621,0-9.453
					c-5.688-3.961-11.097-7.729-16.506-11.494L-0.217,67.062z"/>
			</g>
		</g>
	</g>
</g>
<g>
	<path d="M31.915,13.159c5.362,0.825,8.611,3.695,9.186,9.252c0.066,0.64,0.055,1.528,0.78,1.635
		c0.799,0.118,1.133-0.76,1.181-1.396c0.451-5.883,3.919-8.715,9.455-9.559c0.628-0.096,1.611-0.122,1.653-0.885
		c0.046-0.814-0.906-0.727-1.507-0.802C47.073,10.705,43.63,7.847,43.097,2c-0.061-0.661-0.27-1.321-0.928-1.696
		c-0.61-0.178-0.799-0.202-1.048,1.813c-0.683,5.524-3.805,8.468-9.2,9.247c-0.645,0.093-1.797,0.379-1.799,0.586
		C30.11,13.04,31.184,13.046,31.915,13.159z"/>
	<path d="M100.55,25.953c4.963,0.662,8.077,3.139,8.441,8.419c0.035,0.537,0.148,1.303,0.933,1.205
		c0.674-0.085,0.749-0.792,0.795-1.356c0.414-5.018,3.316-7.555,8.132-8.213c0.532-0.073,1.364-0.062,1.32-0.705
		c-0.043-0.648-0.913-0.601-1.462-0.69c-4.776-0.784-7.654-3.351-8.026-8.367c-0.038-0.514-0.1-1.219-1.069-1.166
		c-0.179,0.299-0.545,0.639-0.569,1c-0.351,5.223-3.328,7.853-8.315,8.563c-0.539,0.077-1.194,0.139-1.284,0.82
		C99.429,25.582,100.148,25.899,100.55,25.953z"/>
	<path d="M13.163,39.71c0.045,0.324,0.321,0.871,0.501,0.875c0.629,0.017,0.552-0.608,0.611-1.014
		c0.564-3.827,2.614-6.184,6.552-6.711c0.239-0.032,0.494-0.079,0.7-0.194c0.303-0.168,0.568-0.404,0.85-0.611
		c-0.318-0.15-0.625-0.4-0.955-0.436c-4.209-0.447-6.608-2.729-7.162-6.945c-0.053-0.4,0.029-0.955-0.612-1.042
		c-0.138,0.205-0.36,0.388-0.386,0.595c-0.557,4.496-3.063,6.99-7.579,7.47c-0.195,0.021-0.367,0.252-0.55,0.385
		c0.289,0.198,0.56,0.53,0.87,0.574C10.145,33.242,12.581,35.515,13.163,39.71z"/>
</g>
</svg>
