<?xml version="1.0" encoding="utf-8"?>
<!-- Generator: Adobe Illustrator 16.0.4, SVG Export Plug-In . SVG Version: 6.00 Build 0)  -->
<!DOCTYPE svg PUBLIC "-//W3C//DTD SVG 1.1//EN" "http://www.w3.org/Graphics/SVG/1.1/DTD/svg11.dtd">
<svg version="1.1" id="Layer_2617" xmlns="http://www.w3.org/2000/svg" xmlns:xlink="http://www.w3.org/1999/xlink" x="0px" y="0px"
	 width="128px" height="128px" viewBox="0 0 128 128" enable-background="new 0 0 128 128" xml:space="preserve">
<g>
	<g>
		<g id="H0ktdp.tif_3_">
			<g>
				<path fill-rule="evenodd" clip-rule="evenodd" d="M128.217,60.938c-0.29,1.375-0.58,2.753-0.909,4.316
					c-41.679,0-82.951,0-124.666,0c-0.364-2.147-0.698-4.111-1.127-6.642c3.934-1.368,7.635-2.657,11.739-4.086
					c0.582-2.899,1.18-5.881,1.843-9.186c8.641-1.305,17.074,0.316,25.643,1.349c2.663-6.862,2.722-13.856,4.097-21.288
					c7.08,1.338,13.817,2.611,20.472,3.869c0.582,2.05,1.018,3.587,1.578,5.563c4.046,0.3,8.125,0.717,12.212,0.824
					c1.004,0.026,2.241-0.757,3.012-1.527c1.974-1.974,3.745-4.149,6.068-6.775c4.135,1.587,8.614,3.307,12.597,4.835
					c1.605,2.614,0.356,6.055,3.661,6.833c2.263,0.533,4.622,0.656,7.323,1.014c0,3.45,0,6.621,0,9.453
					c5.688,3.962,11.098,7.728,16.506,11.495C128.264,60.985,128.216,60.938,128.217,60.938z"/>
			</g>
		</g>
		<g id="H0ktdp.tif_2_">
			<g>
				<path fill-rule="evenodd" clip-rule="evenodd" d="M-0.217,67.062c0.29-1.377,0.58-2.753,0.909-4.318
					c41.679,0,82.952,0,124.667,0c0.364,2.148,0.698,4.111,1.128,6.642c-3.935,1.371-7.635,2.658-11.739,4.086
					c-0.582,2.9-1.18,5.883-1.843,9.188c-8.642,1.305-17.074-0.316-25.643-1.35c-2.663,6.863-2.723,13.855-4.097,21.289
					c-7.08-1.34-13.817-2.611-20.472-3.869c-0.582-2.051-1.018-3.588-1.579-5.564c-4.046-0.299-8.125-0.717-12.212-0.822
					c-1.003-0.027-2.24,0.758-3.01,1.527c-1.974,1.973-3.746,4.148-6.068,6.773c-4.135-1.586-8.615-3.307-12.596-4.834
					c-1.605-2.613-0.357-6.057-3.662-6.834c-2.263-0.533-4.623-0.656-7.324-1.014c0-3.449,0-6.621,0-9.453
					c-5.688-3.961-11.097-7.729-16.506-11.494L-0.217,67.062z"/>
			</g>
		</g>
	</g>
</g>
</svg>
