<?xml version="1.0" encoding="utf-8"?>
<!-- Generator: Adobe Illustrator 16.0.4, SVG Export Plug-In . SVG Version: 6.00 Build 0)  -->
<!DOCTYPE svg PUBLIC "-//W3C//DTD SVG 1.1//EN" "http://www.w3.org/Graphics/SVG/1.1/DTD/svg11.dtd">
<svg version="1.1" id="Layer_2706" xmlns="http://www.w3.org/2000/svg" xmlns:xlink="http://www.w3.org/1999/xlink" x="0px" y="0px"
	 width="128px" height="128px" viewBox="0 0 128 128" enable-background="new 0 0 128 128" xml:space="preserve">
<g id="BN6HLB.tif">
	<g>
		<path d="M-0.07,5.233C-0.07,3.547,5.095,10.564-0.07,5.233c0-1.686,0-3.372,0-5.058c37.142,0,74.284,0,111.427,0
			c4.457,0,8.914,0,13.371,0c1.458,0,3.343-0.783,3.343,0.958c0,1.424,0,2.849,0,4.273c0,3.718-0.364,7.42-0.458,11.075
			c-0.039,1.509-0.495,3.042-0.57,4.588c-0.047,0.955-0.701,2.443-1.418,3.054c-0.562,0.475-1.486-0.052-1.747,0.825
			c-0.289,0.973-0.029,1.803-0.027,2.776c0.003,1.999,1.589,7.262-0.057,9.043c-0.669,0.724-1.294,1.181-2.162,0.797
			c-1.532-0.676-3.692,0.943-4.561,2.09c-1.872,2.47,0.905,6.637,1.891,8.945c1.524,3.57,1.394,12.053-4.71,9.408
			c-2.739-1.188-2.502-3.699-2.242-6.232c0.236-2.317-0.187-5.85-3.29-5.879c-2.274-0.02-3.935,2.506-4.796,4.307
			c-1.299,2.714-1.021,5.532-0.205,8.354c0.816,2.818,2.201,6.001,1.585,8.998c-0.728,3.538-5.089,3.954-7.481,1.873
			c-4.041-8.491,5.005-17.57-0.263-26.193c-3.377-1.484-6.579,1.011-7.699,4.16c-1.479,4.157,0.851,8.197,1.051,12.344
			c0.175,3.633-2.419,6.909-6.152,7.163c-1.784,0.121-3.869-0.881-4.866-2.383c-0.589-0.885-1.066-2.805-2.282-3.041
			c-4.591,3.826-2.318,8.555-0.903,13.33c1.089,3.674,1.979,9.506-1.705,12.082c-4.331,3.029-10.149-0.479-11.295-5.113
			c-0.817-3.312,0.401-6.184,1.368-9.279c0.662-2.121,1.207-5.328-1.267-6.516c-2.989-1.434-3.65,1.3-3.22,3.651
			c0.315,1.72,0.202,3.747-1.656,4.509c-3.458,1.419-7.603-1.449-8.399-4.798c-1.227-5.149,2.916-10.561,0.26-15.523
			c-2.182-4.076-7.357-2.9-10.03-0.045c-0.406,2.268,1.352,4.186,1.557,6.373c0.201,2.141-0.582,4.422-2.399,5.676
			c-3.304,2.279-7.766,0.041-8.276-3.851c0.016-0.387,0.097-0.741,0.146-1.109c-0.053-1.36,0.615-2.817,1.214-4.03
			c0.011-0.082,0.03-0.162,0.058-0.24c0.085-0.039,0.158-0.093,0.219-0.162c1.843-2.656,2.234-9.213,0.314-11.926
			c-1.837-2.597-2.135,1.482-1.975,2.799c0.333,2.731,0.437,5.939-2.866,6.692c-5.066,1.155-8.343-2.675-6.806-7.606
			c0.546-1.752,1.482-3.367,1.686-5.221c0.306-2.781-1.94-2.79-3.955-3.674c-2.019-0.886-3.987-2.063-5.125-3.997
			c-0.562-0.956-1.695-3.729-3.221-3.064c-1.39,0.606-1.011,3.035-1.437,4.21c-0.671,1.852-3.973,2.053-5.449,1.271
			c-5.214-2.758-2.026-11.186-0.924-15.208C5.043,15.158,4.011,9.445-0.07,5.233C-0.07,3.547,3.801,9.229-0.07,5.233z"/>
	</g>
</g>
</svg>
