<?xml version="1.0" encoding="utf-8"?>
<!-- Generator: Adobe Illustrator 16.0.4, SVG Export Plug-In . SVG Version: 6.00 Build 0)  -->
<!DOCTYPE svg PUBLIC "-//W3C//DTD SVG 1.1//EN" "http://www.w3.org/Graphics/SVG/1.1/DTD/svg11.dtd">
<svg version="1.1" id="Layer_2714" xmlns="http://www.w3.org/2000/svg" xmlns:xlink="http://www.w3.org/1999/xlink" x="0px" y="0px"
	 width="128px" height="128px" viewBox="0 0 128 128" enable-background="new 0 0 128 128" xml:space="preserve">
<path fill-rule="evenodd" clip-rule="evenodd" d="M103.066,78.052c7.631-0.142,15.329-0.666,22.595,2.439
	c0.973,0.415,1.798,1.171,2.692,1.771c-0.776,0.721-1.434,1.688-2.345,2.128c-17.189,8.315-34.405,16.575-51.627,24.824
	c-1.759,0.841-3.612,1.211-5.562,0.608c-9.352-2.89-18.956-1.601-28.476-1.722c-4.641-0.06-9.338,0.228-13.909-0.388
	c-12.927-1.742-21.321-9.225-25.137-21.577c-3.894-12.606-0.806-23.7,8.261-33.154c2.663-2.775,5.869-4.871,9.337-6.555
	c17.668-8.578,35.354-17.121,52.99-25.76c19.911-9.752,43.438,7.621,41.506,28.52c-0.904,9.771-5.825,16.855-14.207,21.608
	c-3.077,1.745-6.397,3.059-9.599,4.586c-0.952,0.453-2.447,0.872-2.283,1.94c0.19,1.234,1.723,0.688,2.654,0.701
	C94.326,78.088,98.696,78.052,103.066,78.052z M57.36,84.772c13.131-4.571,25.361-11.184,37.958-16.946
	c12.158-5.562,16.918-18.246,11.911-29.985C102.005,25.59,87.305,18.91,75.313,24.147c-12.962,5.66-25.546,12.186-38.292,18.341
	c-0.969,0.469-2.269,1.055-1.98,2.167c0.121,0.462,1.991,0.394,3.022,0.706c16.522,5.008,24.22,18.758,19.945,35.514
	c-0.331,1.3-0.362,2.677-0.532,4.019c-0.143,0.118-0.287,0.236-0.429,0.354C57.152,85.09,57.256,84.932,57.36,84.772z
	 M40.703,72.559c-0.105-1.577-0.371-3.712-3.387-3.796c-4.304-0.12-10.281,3.544-10.281,6.326c0.001,2.875,3.341,6.098,6.452,6.225
	C37.495,81.478,40.78,77.811,40.703,72.559z"/>
</svg>
