<?xml version="1.0" encoding="utf-8"?>
<!-- Generator: Adobe Illustrator 16.0.4, SVG Export Plug-In . SVG Version: 6.00 Build 0)  -->
<!DOCTYPE svg PUBLIC "-//W3C//DTD SVG 1.1//EN" "http://www.w3.org/Graphics/SVG/1.1/DTD/svg11.dtd">
<svg version="1.1" id="Layer_2801" xmlns="http://www.w3.org/2000/svg" xmlns:xlink="http://www.w3.org/1999/xlink" x="0px" y="0px"
	 width="128px" height="128px" viewBox="0 0 128 128" enable-background="new 0 0 128 128" xml:space="preserve">
<g>
	<path d="M106.814,65.874c-1.049-1.659-1.312-3.378-1.3-5.278c0.05-7.407,0.104-14.816-0.006-22.223
		c-0.091-6.127-3.194-10.981-7.593-14.799c-2.569-2.229-5.547-4.293-9.164-4.873c-1.555-0.249-2.328-1.134-2.193-2.85
		c0.137-1.744,0.052-3.506,0.023-5.26c-0.09-5.596-4.109-9.85-9.751-9.939c-8.572-0.136-17.15-0.139-25.723,0.015
		c-2.869,0.051-5.709,1.184-7.345,3.608c-1.434,2.125-2.463,4.633-2.095,7.435c0.177,1.345,0.056,2.726,0.126,4.087
		c0.064,1.247-0.404,1.87-1.677,2.269c-3.414,1.071-6.772,2.17-9.692,4.505c-5.615,4.493-9.196,9.918-9.204,17.312
		c-0.008,7.505-0.006,15.011,0.019,22.515c0.004,1.291-0.155,2.467-0.851,3.621c-1.479,2.459-1.41,5.096-0.083,7.532
		c0.751,1.378,0.928,2.713,0.926,4.179c-0.01,5.36-0.014,10.721,0,16.082c0.016,6.255,2.815,11.394,7.347,15.271
		c2.129,1.82,2.785,3.225,2.371,5.812c-0.356,2.225,0.717,4.345,2.553,5.569c2.817,1.88,5.77,3.743,9.113,4.476
		c6.75,1.479,13.532,2.906,20.514,2.408c2.434,0,4.898,0.244,7.297-0.045c7.628-0.922,15.292-1.776,21.991-6.147
		c1.279-0.835,2.281-1.726,2.934-3.101c0.752-1.586,0.828-3.173,0.386-4.834c-0.292-1.096-0.354-2.2,0.854-2.792
		c1.817-0.89,2.935-2.46,4.181-3.948c2.961-3.537,4.725-7.521,4.754-12.176c0.033-5.359,0.027-10.719,0.003-16.076
		c-0.007-1.484,0.18-2.787,1.093-4.105C108.443,71.498,108.542,68.609,106.814,65.874z M46.944,11.827
		c0.407-3.864,2.456-5.886,7.06-6.214c3.294-0.235,6.617-0.045,9.928-0.045c3.115,0.003,6.231,0.009,9.347,0.002
		c7.11-0.014,8.547,5.147,8.034,10.502c-0.086,0.901-0.728,1.049-1.46,1.049c-2.337,0.003-4.673,0.007-7.01-0.003
		c-0.743-0.003-1.344-0.206-1.385-1.12c-0.038-0.855,0.062-1.542,1.156-1.623c0.568-0.041,1.157-0.186,1.679-0.416
		c0.719-0.314,0.829-1.019,0.839-1.726c0.011-0.768-0.336-1.271-1.073-1.546c-0.753-0.281-1.525-0.281-2.304-0.28
		c-5.063,0.002-10.126,0.002-15.189,0.016c-0.678,0.002-1.379-0.009-2.029,0.15c-0.863,0.211-1.742,0.587-1.676,1.701
		c0.056,0.959,0.632,1.616,1.559,1.903c0.367,0.114,0.762,0.209,1.142,0.2c1.063-0.027,1.316,0.59,1.303,1.488
		c-0.016,1.067-0.724,1.259-1.574,1.262c-2.239,0.008-4.479-0.005-6.718,0.008c-1.035,0.006-1.669-0.349-1.642-1.513
		C46.962,14.355,46.813,13.077,46.944,11.827z M66.913,65.085c-0.829-0.824-1.614-1.664-2.165-2.728
		c-0.335-0.647,0.112-1.823-0.716-1.896c-0.514-0.046-1.105,0.943-1.681,1.443c-1.938,1.686-2.982,3.793-3.102,6.368
		c-0.019,0.413,0.249,1.03-0.368,1.167c-0.179,0.04-0.562-0.473-0.725-0.795c-1.876-3.707-2.259-7.11,0.458-10.893
		c1.647-2.292,3.953-3.652,5.693-5.698c0.432-0.508,1.433-0.737,1.308,0.47c-0.381,3.67,1.783,6.267,3.666,8.955
		c0.938,1.337,1.45,2.727,1.535,4.377c-0.053,1.426-0.418,2.83-1.133,4.129c-0.121,0.219-0.477,0.514-0.637,0.467
		c-0.386-0.111-0.131-0.468-0.101-0.734C69.168,67.781,68.193,66.36,66.913,65.085z M54.967,123.382
		c-0.097-0.008-0.192-0.022-0.289-0.035c-5.537-0.903-11.137-1.543-16.366-3.77c-0.798-0.341-1.578-0.766-2.28-1.271
		c-0.51-0.367-1.272-0.808-0.868-1.614c0.388-0.777,1.096-0.566,1.777-0.307c1.449,0.549,2.911,1.063,4.373,1.578l13.859,3.078
		c1.033,0.035,2.778-0.307,2.643,1.354C57.684,124.016,56.087,123.474,54.967,123.382z M90.402,118.65
		c-1.289,0.678-2.556,1.537-3.94,1.873c-5.474,1.327-10.94,2.734-17.003,3.146c-0.506,0.008-1.439-0.008-1.46-1.263
		c-0.019-1.083,0.858-1.216,1.632-1.239c3.907-0.123,7.765-0.586,11.506-1.738c2.785-0.858,5.535-1.836,8.293-2.783
		c0.663-0.229,1.357-0.562,1.73,0.316C91.478,117.709,91.049,118.312,90.402,118.65z M99.07,74.024
		c-3.222,4.623-16.046,9.303-34.32,9.303c-17.314,0-34.703-4.393-37.972-9.593c-0.294-0.468-0.153-1.085,0.314-1.379
		c0.469-0.292,1.085-0.151,1.379,0.314c2.272,3.615,17.173,8.657,36.278,8.657c19.519,0,30.403-5.181,32.68-8.447
		c0.315-0.452,0.937-0.563,1.393-0.248C99.274,72.947,99.386,73.571,99.07,74.024z"/>
</g>
</svg>
