<?xml version="1.0" encoding="utf-8"?>
<!-- Generator: Adobe Illustrator 16.0.4, SVG Export Plug-In . SVG Version: 6.00 Build 0)  -->
<!DOCTYPE svg PUBLIC "-//W3C//DTD SVG 1.1//EN" "http://www.w3.org/Graphics/SVG/1.1/DTD/svg11.dtd">
<svg version="1.1" id="Layer_2816" xmlns="http://www.w3.org/2000/svg" xmlns:xlink="http://www.w3.org/1999/xlink" x="0px" y="0px"
	 width="128px" height="128px" viewBox="0 0 128 128" enable-background="new 0 0 128 128" xml:space="preserve">
<g>
	<path d="M92.034,15.106c-1.176-3.101,0.066-6.308-1.158-9.482c-0.79-2.046-1.589-3.299-3.555-3.817
		c-1.549-0.409-3.128-0.79-4.717-0.952c-6.687-0.683-13.393-1.201-20.117-1.097C55.334-0.132,48.16-0.049,41.138,1.58
		c-3.077,0.713-6.464,5.627-5.395,8.477c0.659,1.757,0.385,3.029-0.124,4.499c-2.89,8.358-4.338,16.957-4.355,25.799
		c-0.027,13.146-0.02,26.29-0.096,39.436c-0.031,5.259-0.165,10.519,0.301,15.765c0.608,6.853,1.576,13.632,4.202,20.07
		c2.172,5.326,5.787,9.234,11.438,10.6c11.102,2.685,22.29,2.74,33.395-0.022c5.293-1.317,8.916-4.776,11.008-9.84
		c1.623-3.931,2.856-7.962,3.495-12.176c0.475-3.154,0.494-6.303,1.494-9.453c0-19.883,0-39.766,0-59.649
		c-1-3.286-1.008-6.597-1.725-9.848C94.018,21.82,93.27,18.363,92.034,15.106z"/>
	<g>
		<polyline stroke="#FFFFFF" stroke-miterlimit="10" points="80.731,63.105 63.964,79.873 47.195,63.105 		"/>
		<polyline fill="#FFFFFF" points="47.195,63.105 63.964,46.337 80.731,63.105 		"/>
	</g>
</g>
</svg>
