<?xml version="1.0" encoding="utf-8"?>
<!-- Generator: Adobe Illustrator 16.0.4, SVG Export Plug-In . SVG Version: 6.00 Build 0)  -->
<!DOCTYPE svg PUBLIC "-//W3C//DTD SVG 1.1//EN" "http://www.w3.org/Graphics/SVG/1.1/DTD/svg11.dtd">
<svg version="1.1" id="Layer_2835" xmlns="http://www.w3.org/2000/svg" xmlns:xlink="http://www.w3.org/1999/xlink" x="0px" y="0px"
	 width="128px" height="128px" viewBox="0 0 128 128" enable-background="new 0 0 128 128" xml:space="preserve">
<g>
	<path d="M102.5,41.5v-6h-1c0,0,0-0.292,0-0.369c-1-3.251-0.343-6.528-1.092-9.746c-0.79-3.38-1.088-7.691-2.375-10.915
		c-1.229-3.069,1.078-5.353-0.2-8.495c-0.821-2.024-1.548-3.265-3.599-3.778c-1.615-0.404-3.209-0.781-4.865-0.942
		C82.393,0.579,74.426,0.067,67.412,0.17C59.95,0.28,44.101,0.363,36.775,1.974c-3.209,0.706-6.735,5.569-5.62,8.389
		c0.688,1.739,0.404,3.066-0.125,4.521C28.59,21.576,28.157,28.5,27.681,35.5H24.5v6h2.988c-0.025,13-0.021,25-0.099,38H24.5v6
		h2.854c-0.004,3,0.05,6.343,0.349,9.543c0.635,6.782,1.644,13.457,4.383,19.828c2.266,5.271,5.129,9.121,11.024,10.473
		c0.736,0.17,0.39,0.311,1.39,0.458v1.698h38v-1.777c1-0.132,2.218-0.27,2.85-0.418c5.522-1.304,9.742-4.727,11.924-9.738
		c1.691-3.891,2.49-7.879,3.154-12.049c0.498-3.123,0.072-6.238,1.072-9.354c0-2.935,0-5.662,0-8.662h1v-6h-1c0-13,0-25,0-38
		L102.5,41.5L102.5,41.5z M81.5,55.527c-9,0.885-25,1.298-36-0.008V42.242c10,0.739,26,0.739,36,0.087V55.527z"/>
</g>
</svg>
