<?xml version="1.0" encoding="utf-8"?>
<!-- Generator: Adobe Illustrator 16.0.4, SVG Export Plug-In . SVG Version: 6.00 Build 0)  -->
<!DOCTYPE svg PUBLIC "-//W3C//DTD SVG 1.1//EN" "http://www.w3.org/Graphics/SVG/1.1/DTD/svg11.dtd">
<svg version="1.1" id="Layer_2844" xmlns="http://www.w3.org/2000/svg" xmlns:xlink="http://www.w3.org/1999/xlink" x="0px" y="0px"
	 width="128px" height="128px" viewBox="0 0 128 128" enable-background="new 0 0 128 128" xml:space="preserve">
<g>
	<g id="aFaSbF.tif">
		<g>
			<path fill-rule="evenodd" clip-rule="evenodd" d="M57.19,61.438c-1.146,0-2.293,0.002-3.439-0.001
				c-0.521-0.001-0.537-0.008-0.511-0.534c0.2-3.912,1.956-6.924,5.24-9.054c0.303-0.196,0.46-0.163,0.646,0.162
				c1.156,2.023,2.331,4.037,3.508,6.048c0.166,0.282,0.184,0.459-0.124,0.678c-0.761,0.54-1.211,1.295-1.304,2.23
				c-0.038,0.386-0.219,0.484-0.576,0.479c-1.146-0.016-2.293-0.006-3.439-0.006C57.19,61.44,57.19,61.439,57.19,61.438z"/>
			<path fill-rule="evenodd" clip-rule="evenodd" d="M71.793,61.438c-1.126,0-2.253-0.01-3.379,0.005
				c-0.366,0.005-0.554-0.057-0.607-0.496c-0.114-0.916-0.562-1.684-1.327-2.224c-0.268-0.188-0.304-0.337-0.139-0.62
				c1.186-2.028,2.363-4.062,3.524-6.104c0.192-0.339,0.364-0.325,0.65-0.14c2.766,1.786,4.496,4.266,5.081,7.523
				c0.088,0.488,0.126,0.979,0.158,1.471c0.037,0.563,0.025,0.58-0.523,0.583C74.085,61.442,72.938,61.438,71.793,61.438z"/>
			<path fill-rule="evenodd" clip-rule="evenodd" d="M64.477,72.721c-1.831-0.043-3.555-0.48-5.171-1.33
				c-0.472-0.248-0.477-0.258-0.225-0.695c1.151-2,2.312-3.994,3.452-6.002c0.185-0.326,0.351-0.396,0.694-0.235
				c0.853,0.397,1.727,0.374,2.578-0.007c0.289-0.129,0.439-0.106,0.606,0.188c1.171,2.056,2.357,4.104,3.552,6.147
				c0.16,0.275,0.108,0.396-0.165,0.543C68.134,72.227,66.356,72.676,64.477,72.721z"/>
			<path fill-rule="evenodd" clip-rule="evenodd" d="M64.451,63.663c-1.226-0.02-2.276-1.093-2.245-2.294
				c0.032-1.246,1.066-2.268,2.285-2.26c1.257,0.008,2.298,1.078,2.267,2.329C66.728,62.675,65.683,63.682,64.451,63.663z"/>
		</g>
	</g>
	<g>
		<path d="M100.5,41.5v-6h-1c0-1,0-0.302,0-0.378c-1-3.251-0.646-6.528-1.357-9.746c-0.75-3.38-1.388-6.802-2.61-10.025
			c-1.164-3.069,0.19-6.243-1.021-9.384c-0.781-2.024-1.51-3.265-3.455-3.778c-1.533-0.404-3.064-0.781-4.637-0.942
			c-6.617-0.676-13.238-1.188-19.893-1.085c-7.079,0.109-21.172,0.192-28.121,1.803c-3.045,0.706-6.393,5.569-5.335,8.389
			c0.652,1.739,0.383,3.071-0.12,4.525C30.637,21.571,29.275,27.5,28.823,35.5H26.5v6h2.141c-0.024,12-0.021,25-0.094,38H26.5v6
			h2.014c-0.004,3,0.047,6.338,0.331,9.538c0.602,6.782,1.559,13.454,4.158,19.825c2.149,5.271,5.226,9.12,10.817,10.472
			c0.699,0.17,0.68,0.309,1.68,0.456v1.709h36v-1.787c1-0.133,1.77-0.27,2.369-0.419c5.238-1.304,9.075-4.727,11.145-9.738
			c1.606-3.89,2.602-7.879,3.232-12.049c0.471-3.122,0.254-6.237,1.254-9.355c0-2.933,0-6.651,0-8.651h1v-6h-1c0-13,0-26,0-38H100.5
			z M85.604,73.309c-0.236-0.012-0.474,0.191-0.711,0.191c-6.797,0-13.595,0-20.393,0c-6.916,0-13.832-0.193-20.749-0.195
			c-0.196,0-0.506-0.047-0.565-0.142c-0.034-0.055-0.035-0.131-0.023-0.189c-0.003-0.156,0.156-0.321,0.24-0.466
			c6.02-10.432,12.044-20.866,18.068-31.295c0.929-1.607,1.859-3.215,2.791-4.82c0.233-0.401,0.242-0.404,0.473-0.003
			c2.579,4.461,5.156,8.924,7.734,13.386c3.96,6.855,7.92,13.711,11.88,20.566c0.474,0.82,0.942,1.705,1.42,2.523
			c0.062,0.105,0.093,0.238,0.072,0.306C85.822,73.238,85.75,73.315,85.604,73.309z"/>
	</g>
</g>
</svg>
