<?xml version="1.0" encoding="utf-8"?>
<!-- Generator: Adobe Illustrator 16.0.4, SVG Export Plug-In . SVG Version: 6.00 Build 0)  -->
<!DOCTYPE svg PUBLIC "-//W3C//DTD SVG 1.1//EN" "http://www.w3.org/Graphics/SVG/1.1/DTD/svg11.dtd">
<svg version="1.1" id="Layer_2847" xmlns="http://www.w3.org/2000/svg" xmlns:xlink="http://www.w3.org/1999/xlink" x="0px" y="0px"
	 width="128px" height="128px" viewBox="0 0 128 128" enable-background="new 0 0 128 128" xml:space="preserve">
<path fill-rule="evenodd" clip-rule="evenodd" d="M111.312,114.96c-0.004,3.042-2.171,5.951-4.135,8.583
	c-2.378,3.189-5.48,4.787-9.313,4.911c-4.529,0.146-9.068,0.049-13.602,0.05c-17.104,0.003-34.21-0.105-51.314,0.055
	c-7.535,0.07-14.991-4.894-14.989-12.887c-3.733-28.355-3.733-56.7,0.031-88.07c0.007-3.82,2.96-7.547,3.422-11.331
	c0.163-1.344,0.925-1.641,2.122-1.62c2.864,0.049,5.728,0.02,8.592,0.02c4.933,0,9.866-0.048,14.798,0.024
	c1.42,0.021,2.188-0.441,2.583-1.816c0.68-2.365,1.527-4.681,2.216-7.042c1.147-3.944,3.84-6.3,7.943-6.33
	c11.853-0.086,23.708-0.093,35.56,0.009c3.938,0.034,6.854,2.163,8.005,6.206c1.455,5.112,3.224,10.139,4.994,15.153
	c0.784,2.217,3.106,4.449,3.088,6.769C113.346,39.699,113.346,100.597,111.312,114.96z M77.579,14.223
	c4.211,0,8.42,0.003,12.63-0.001c1.191-0.001,2.393,0.069,3.572-0.055c1.908-0.202,3.154-1.578,3.32-3.475
	c0.18-2.055-0.852-3.56-2.775-4.127C93.47,6.313,92.604,6.31,91.731,6.31c-9.373,0.001-18.745,0.003-28.118-0.003
	c-1.038,0-2.07,0.005-3.051,0.388c-2.812,1.096-3.372,4.609-1.088,6.582c0.916,0.791,1.949,0.958,3.094,0.955
	C67.572,14.212,72.575,14.222,77.579,14.223z M77.806,18.107c0,0.002,0,0.004,0,0.005c4.772,0,9.545,0.012,14.317-0.009
	c1.19-0.005,2.4-0.006,3.566-0.21c2.122-0.373,3.635-1.533,4.111-3.757c0.047-0.219,0.072-0.588-0.042-0.663
	c-0.227-0.15-0.356,0.156-0.444,0.325c-1.353,2.559-3.66,2.989-6.273,2.979c-10.1-0.041-20.202-0.044-30.303-0.004
	c-2.421,0.01-4.567-0.476-6.252-2.345c-0.155-0.173-0.305-0.635-0.677-0.343c-0.083,0.064,0.035,0.44,0.119,0.65
	c0.33,0.837,0.917,1.447,1.645,1.979c1.563,1.146,3.345,1.392,5.201,1.393C67.784,18.109,72.795,18.107,77.806,18.107z
	 M23.627,114.171c-0.272,0.107-0.261,0.345-0.254,0.571c0.201,6.883,4.041,9.982,10.468,10.59c0.173,0.017,0.505,0.136,0.483-0.173
	c-0.011-0.148-0.334-0.308-0.543-0.404c-2.53-1.177-4.969-2.458-6.791-4.688c-1.281-1.569-1.999-3.414-2.827-5.213
	C24.04,114.585,24.024,114.226,23.627,114.171z M106.241,115.731c-0.09-0.454,0.36-1.204-0.246-1.396
	c-0.354-0.112-0.474,0.71-0.622,1.131c-1.552,4.382-4.67,7.236-8.812,9.104c-0.5,0.226-0.996,0.457-1.494,0.686
	c0.603,0.291,1.193,0.036,1.785-0.046c0.392-0.055,0.777-0.145,1.169-0.21C102.999,124.176,106.044,120.758,106.241,115.731z"/>
</svg>
