<?xml version="1.0" encoding="utf-8"?>
<!-- Generator: Adobe Illustrator 16.0.4, SVG Export Plug-In . SVG Version: 6.00 Build 0)  -->
<!DOCTYPE svg PUBLIC "-//W3C//DTD SVG 1.1//EN" "http://www.w3.org/Graphics/SVG/1.1/DTD/svg11.dtd">
<svg version="1.1" id="Layer_2906" xmlns="http://www.w3.org/2000/svg" xmlns:xlink="http://www.w3.org/1999/xlink" x="0px" y="0px"
	 width="128px" height="128px" viewBox="0 0 128 128" enable-background="new 0 0 128 128" xml:space="preserve">
<g>
	<path fill-rule="evenodd" clip-rule="evenodd" d="M63.581,0.087c3.735,0,7.479-0.135,11.208,0.034
		c4.747,0.216,6.292,2.619,4.373,6.91c-0.733,1.637-0.837,3.213-0.842,4.881c-0.014,5.045,0.013,10.09-0.017,15.134
		c-0.014,2.073,0.325,4.043,0.93,6.044c6.9,22.846,13.781,45.695,21.994,68.119c1.086,2.966,1.995,6.04,2.562,9.141
		c1.818,9.942-3.931,16.405-13.946,17.277c-7.783,0.678-15.563,0.11-23.288,0.19c-10.018,0.102-20.128,0.065-30.185-0.391
		c-7.227-0.328-12.148-5.345-12.467-12.537c-0.192-4.348,0.667-8.505,2.179-12.594c8.214-22.22,14.99-44.905,21.955-67.534
		c2.555-8.297,1.211-16.677,1.529-25.025c0.045-1.176-0.872-2.027-1.281-3.045c-1.5-3.734-0.019-6.249,4.09-6.527
		c3.719-0.253,7.468-0.054,11.206-0.054C63.581,0.104,63.581,0.095,63.581,0.087z M64.274,123.381
		c0.846-0.066,2.364-0.438,3.814-0.259c7.062,0.871,14.128-0.037,21.195,0.193c6.893,0.226,10.285-3.586,10.171-10.38
		c-0.054-3.219-0.873-6.25-1.978-9.241c-6.915-18.701-12.589-37.81-18.728-56.767c-3.484-10.762-5.877-21.494-5.109-32.875
		c0.388-5.748-0.21-5.486-5.587-5.469c-2.164,0.006-5.3,0.976-4.993-3.213c0.063-0.869-0.759-1.143-1.57-1.148
		c-1.304-0.007-2.619,0.065-3.915-0.052c-2.814-0.254-4.008,0.739-3.877,3.771c0.224,5.217,0.043,10.45,0.076,15.676
		c0.025,3.919-0.052,7.781-1.245,11.609c-7.042,22.576-13.678,45.282-21.935,67.465c-1.034,2.779-1.799,5.699-2.326,8.619
		c-1.25,6.929,2.628,11.87,9.61,12.025C46.46,123.525,55.049,123.381,64.274,123.381z"/>
	<path fill-rule="evenodd" clip-rule="evenodd" d="M48.632,47.818c-5.667,18.403-11.316,36.811-18.039,54.873
		c-1.034,2.779-1.799,5.699-2.326,8.619c-1.25,6.929,2.628,11.87,9.61,12.025c8.582,0.189,17.17,0.045,26.396,0.045
		c0.846-0.066,2.364-0.438,3.814-0.259c7.062,0.871,14.128-0.037,21.195,0.193c6.893,0.226,10.285-3.586,10.171-10.38
		c-0.054-3.219-0.873-6.25-1.978-9.241C90.685,85.317,85.087,66.551,79.07,47.918L48.632,47.818z"/>
</g>
</svg>
