<?xml version="1.0" encoding="utf-8"?>
<!-- Generator: Adobe Illustrator 16.0.4, SVG Export Plug-In . SVG Version: 6.00 Build 0)  -->
<!DOCTYPE svg PUBLIC "-//W3C//DTD SVG 1.1//EN" "http://www.w3.org/Graphics/SVG/1.1/DTD/svg11.dtd">
<svg version="1.1" id="Layer_2910" xmlns="http://www.w3.org/2000/svg" xmlns:xlink="http://www.w3.org/1999/xlink" x="0px" y="0px"
	 width="128px" height="128px" viewBox="0 0 128 128" enable-background="new 0 0 128 128" xml:space="preserve">
<g>
	<path d="M63.979,64.571c-4.304,4.301-8.604,8.603-12.906,12.904c-0.514,0.514-0.511,0.517-0.008,1.025
		c0.036,0.035,0.072,0.066,0.107,0.101c2.68,2.684,5.362,5.366,8.042,8.05c1.585,1.586,3.168,3.17,4.756,4.752
		c0.556,0.555,0.474,0.582,1.075-0.018c3.5-3.5,7.003-7,10.503-10.5c0.837-0.836,1.675-1.67,2.507-2.51
		c0.115-0.118,0.273-0.217,0.279-0.416c-0.097-0.209-0.275-0.346-0.43-0.5c-3.273-3.276-6.547-6.55-9.822-9.824
		c-1.027-1.027-2.054-2.057-3.082-3.083C64.503,64.053,64.498,64.053,63.979,64.571z M68.771,74.785
		c0.372,0.408,0.775,0.438,1.27,0.27c0.486-0.166,0.994-0.274,1.493-0.4c0.552-0.14,0.843-0.026,0.963,0.364
		c0.131,0.424-0.06,0.675-0.665,0.846c-0.543,0.156-1.086,0.312-1.637,0.445c-0.393,0.095-0.676,0.279-0.754,0.702
		c-0.104,0.562-0.494,0.787-1.016,0.925c-3.326,0.88-6.648,1.78-9.971,2.672c-0.791,0.211-1.18,0.043-1.591-0.672
		c-0.22-0.383-0.377-0.944-0.372-1.336c0.012-0.738,0.307-1.141,1.021-1.333c3.394-0.913,6.793-1.813,10.184-2.737
		C68.133,74.411,68.488,74.473,68.771,74.785z"/>
	<path d="M102.5,41.5v-6h-1c0,0,0-0.295,0-0.372c-1-3.251-0.921-6.528-1.67-9.746c-0.79-3.38-1.377-7.691-2.666-10.915
		c-1.227-3.069,0.936-5.353-0.344-8.495c-0.822-2.024-1.621-3.265-3.67-3.778c-1.617-0.404-3.245-0.781-4.902-0.942
		c-6.976-0.676-14.962-1.188-21.976-1.085C58.811,0.277,42.953,0.36,35.627,1.971c-3.209,0.706-6.74,5.569-5.625,8.389
		c0.688,1.739,0.402,3.068-0.127,4.522C27.436,21.574,27,28.5,26.523,35.5H24.5v6h1.831c-0.025,13-0.021,25-0.099,38H24.5v6h1.697
		c-0.004,3,0.05,6.342,0.349,9.541c0.635,6.781,1.644,13.456,4.383,19.828c2.266,5.271,5.708,9.12,11.604,10.473
		c0.736,0.169,0.968,0.309,1.968,0.456v1.702h38v-1.78c1-0.133,1.64-0.27,2.271-0.419c5.522-1.304,9.453-4.727,11.633-9.738
		c1.693-3.89,2.926-7.879,3.59-12.049c0.498-3.122,0.506-6.237,1.506-9.355c0-2.933,0-5.658,0-8.658h1v-6h-1c0-13,0-25,0-38H102.5z
		 M51.5,42.239c7,0.739,17,0.739,24,0.087v13.197c-6,0.885-17,1.298-24-0.008V42.239z M64.353,94.56
		c-0.036-0.245-16.42-16.518-16.42-16.567C53.455,72.47,58.979,66.946,64.5,61.425c0.049,0,16.566,16.617,16.566,16.714
		C80.822,78.175,64.451,94.56,64.353,94.56z"/>
</g>
</svg>
