<?xml version="1.0" encoding="utf-8"?>
<!-- Generator: Adobe Illustrator 16.0.4, SVG Export Plug-In . SVG Version: 6.00 Build 0)  -->
<!DOCTYPE svg PUBLIC "-//W3C//DTD SVG 1.1//EN" "http://www.w3.org/Graphics/SVG/1.1/DTD/svg11.dtd">
<svg version="1.1" id="Layer_2923" xmlns="http://www.w3.org/2000/svg" xmlns:xlink="http://www.w3.org/1999/xlink" x="0px" y="0px"
	 width="128px" height="128px" viewBox="0 0 128 128" enable-background="new 0 0 128 128" xml:space="preserve">
<g>
	<path fill="none" d="M70.225,14.118c0.067-2.904-2.238-5.005-6.136-5.043C53.19,8.97,42.29,8.971,31.392,9.071
		c-3.939,0.036-6.377,2.057-6.437,4.816c-0.064,3.006,2.452,4.931,6.827,4.997c5.34,0.081,10.685,0.02,16.026,0.026
		c5.343,0,10.688,0.082,16.028-0.027C67.896,18.8,70.158,16.994,70.225,14.118z"/>
	<path d="M122.446,99.473c0.001-24.171-0.018-48.341,0.018-72.513c0.006-3.736-0.182-7.125-3.808-9.559
		c-3.747-2.514-3.594-2.742-0.597-6.564c3.368-4.297,1.953-10.207-2.846-10.424c-9.176-0.416-18.384-0.216-27.576-0.08
		c-3.039,0.045-4.533,1.953-4.506,5.08c0.021,2.419,0.084,4.671,2.514,6.142c1.784,1.081,1.988,2.803,0.647,4.296
		c-1.176,1.309-4.633,0.547-5.454-1.16c-0.734-1.528-1.142-3.213-1.672-4.836c-2.386-7.307-4.879-9.463-12.443-9.567
		c-13.046-0.18-26.098-0.175-39.142-0.002C20.556,0.378,17.485,2.918,15.5,9.562c-2.688,9.005-5.271,18.042-7.924,27.058
		c-0.79,2.687-1.154,5.395-1.149,8.211c0.047,24.385,0.012,48.77,0.042,73.154c0.01,8.632,1.976,10.612,10.523,10.634
		c15.829,0.036,31.657,0.01,47.487,0.01c16.256,0,32.513,0.048,48.768-0.022c7.087-0.031,9.083-2.091,9.176-9.24
		C122.51,112.735,122.446,106.104,122.446,99.473z M63.836,18.883c-5.34,0.109-10.685,0.027-16.028,0.027
		c-5.341-0.006-10.686,0.055-16.026-0.026c-4.375-0.065-6.892-1.991-6.827-4.997c0.06-2.759,2.498-4.78,6.437-4.816
		C42.29,8.971,53.19,8.97,64.088,9.075c3.898,0.038,6.204,2.139,6.136,5.043C70.158,16.994,67.896,18.8,63.836,18.883z
		 M108.776,70.264c-0.016,3.131-0.005,6.262-0.013,9.392c0,0.344,0.089,0.697-0.171,1.032c-0.537,0.417-1.326,0.305-2.039,0.307
		c-7.746,0.007-15.491,0.003-23.236,0.005c-0.732,0-3.259,0.006-3.83,0.004c-4.243-0.013-8.486-0.006-12.729-0.011
		c-0.637-0.001-1.321,0.065-1.734-0.337c-0.269-0.852-0.215-27.515,0.056-28.142c0.454-0.323,1.093-0.25,1.676-0.251
		c3.689-0.007,7.379-0.002,11.069-0.007c0.591,0,3.133-0.002,3.865-0.002c8.025,0.003,16.051,0,24.077,0.004
		c0.779,0,1.566-0.037,2.259,0.05c0.745,0.207,0.743,0.56,0.743,0.915c-0.002,1.205,0.002,2.409,0.002,3.614
		c0.001,2.409-0.007,4.818,0.01,7.227C108.782,64.367,108.779,69.936,108.776,70.264z"/>
</g>
</svg>
