<?xml version="1.0" encoding="utf-8"?>
<!-- Generator: Adobe Illustrator 16.0.4, SVG Export Plug-In . SVG Version: 6.00 Build 0)  -->
<!DOCTYPE svg PUBLIC "-//W3C//DTD SVG 1.1//EN" "http://www.w3.org/Graphics/SVG/1.1/DTD/svg11.dtd">
<svg version="1.1" id="Layer_2934" xmlns="http://www.w3.org/2000/svg" xmlns:xlink="http://www.w3.org/1999/xlink" x="0px" y="0px"
	 width="128px" height="128px" viewBox="0 0 128 128" enable-background="new 0 0 128 128" xml:space="preserve">
<path d="M26.409,83.5c0.001,0,0.003,0,0.005,0c0,12,0.02,22.634-0.008,33.919c-0.016,6.641,3.359,10.187,10.033,10.069
	c12.668-0.221,25.341-0.062,38.012-0.068c6.138-0.003,12.275-0.012,18.413,0.015c2.646,0.012,4.866-0.825,6.729-2.766
	c1.821-1.898,2.005-4.203,2.005-6.615c-0.004-22.769-0.001-45.534-0.005-68.304c-0.001-0.79-0.052-1.581-0.08-2.372
	c-0.06-1.659-0.725-3.055-1.829-4.269c-1.678-1.847-3.789-2.786-6.236-3.099c-1.512-0.194-2.006-0.788-1.961-2.148
	c0.04-1.235,0.504-2.02,1.916-1.904c0.699,0.057,1.495-0.157,1.592-0.878c0.167-1.259,0.34-2.417,1.546-3.138
	c0.123-0.074,0.188-0.372,0.163-0.548c-0.205-1.419,0.407-2.519,1.248-3.587c0.363-0.461,0.354-1.114,0.352-1.719
	c-0.006-7.458,0.006-14.915-0.012-22.373c-0.004-1.573-1.002-2.809-2.492-3.092c-0.704-0.134-1.445-0.103-2.169-0.103
	C76.009,0.516,58.388,0.517,40.767,0.517c-2.636,0-5.273-0.069-7.905,0.029c-2.044,0.077-3.144,1.285-3.149,3.292
	c-0.021,7.324-0.002,14.649-0.017,21.973c-0.002,1.098,0.342,2.008,0.938,2.943c0.956,1.501,0.617,3.61,2.172,4.879
	c0.067,0.054,0.022,0.254,0.016,0.386c-0.068,1.33,0.592,1.998,1.893,1.942c1.311-0.057,1.764,0.632,1.792,1.806
	c0.029,1.195-0.34,2.049-1.684,2.243c-0.909,0.131-1.818,0.241-2.712,0.529c-3.605,1.165-5.714,4.893-5.707,8.574
	C26.421,60.596,26.409,72.5,26.409,83.5z M43.945,69.566c0.422-0.3,1.015-0.232,1.559-0.232c3.432-0.008,6.863-0.003,10.295-0.007
	c0.551-0.001,2.916-0.003,3.596-0.003c7.465,0.004,14.931,0.001,22.396,0.004c0.726,0.001,1.456-0.033,2.101,0.047
	c0.694,0.193,0.691,0.521,0.691,0.852c-0.002,1.121,0.002,2.24,0.002,3.361c0.002,2.24-0.006,4.48,0.01,6.723
	c0.002,0.281-0.001,5.461-0.003,5.768c-0.015,2.911-0.005,5.822-0.012,8.734c-0.001,0.32,0.081,0.648-0.16,0.961
	c-0.499,0.387-1.233,0.283-1.896,0.285c-7.204,0.006-14.409,0.002-21.613,0.004c-0.681,0-3.032,0.006-3.563,0.004
	c-3.945-0.012-7.893-0.006-11.839-0.01c-0.593-0.001-1.229,0.061-1.614-0.313C43.643,94.951,43.693,70.15,43.945,69.566z"/>
</svg>
