<?xml version="1.0" encoding="utf-8"?>
<!-- Generator: Adobe Illustrator 16.0.4, SVG Export Plug-In . SVG Version: 6.00 Build 0)  -->
<!DOCTYPE svg PUBLIC "-//W3C//DTD SVG 1.1//EN" "http://www.w3.org/Graphics/SVG/1.1/DTD/svg11.dtd">
<svg version="1.1" id="Layer_2942" xmlns="http://www.w3.org/2000/svg" xmlns:xlink="http://www.w3.org/1999/xlink" x="0px" y="0px"
	 width="128px" height="128px" viewBox="0 0 128 128" enable-background="new 0 0 128 128" xml:space="preserve">
<g>
	<path d="M103.592,121.375c-0.004-23.571-0.039-47.144-0.03-70.713c0-2.771-0.167-5.52-0.926-8.241
		c-0.738-2.646-2.368-4.925-5.102-6.431c-2.502-1.378-3.375-3.159-3.636-5.379c-0.111-0.953,0.113-1.545,1.208-2.133
		c2.549-1.372,3.463-3.867,2.117-5.737c-0.665-0.923-0.777-1.82-0.774-2.802C96.46,14.405,96.47,8.873,96.466,3.34
		c-0.004-2.942-0.966-3.674-4.625-3.667c-10.785,0.021-21.572,0.032-32.36,0.031c-7.746,0-15.49-0.035-23.235-0.039
		c-3.768-0.002-4.567,0.652-4.566,3.665c0.002,5.59,0.005,11.181,0.02,16.771c0.004,0.814-0.1,1.562-0.634,2.313
		c-1.5,2.107-0.667,4.697,1.848,6.094c2.05,1.139,2.032,1.135,1.404,3.127c-0.38,1.197-1.111,2.238-2.022,3.22
		c-0.625,0.673-1.722,0.849-2.364,1.496c-2.78,2.801-4.893,5.82-5.211,9.491c-0.273,3.167-0.093,6.331-0.105,9.497
		c-0.095,22.755,0.411,45.514-0.258,68.268c-0.026,0.896,0.242,1.689,0.891,2.436c1.396,1.604,3.422,2.298,5.874,2.291
		C42.2,128.302,52.5,128.32,64.5,128.32c0,0.002,0,0.004,0,0.006c7,0,14.627,0.002,22.013,0c3.909-0.002,7.751,0.034,11.658-0.026
		c3.482-0.054,5.556-1.897,5.481-4.679C103.633,122.872,103.592,122.124,103.592,121.375z M83.5,80.5h-40v-24h40V80.5z"/>
</g>
</svg>
