<?xml version="1.0" encoding="utf-8"?>
<!-- Generator: Adobe Illustrator 16.0.4, SVG Export Plug-In . SVG Version: 6.00 Build 0)  -->
<!DOCTYPE svg PUBLIC "-//W3C//DTD SVG 1.1//EN" "http://www.w3.org/Graphics/SVG/1.1/DTD/svg11.dtd">
<svg version="1.1" id="Layer_3003" xmlns="http://www.w3.org/2000/svg" xmlns:xlink="http://www.w3.org/1999/xlink" x="0px" y="0px"
	 width="128px" height="128px" viewBox="0 0 128 128" enable-background="new 0 0 128 128" xml:space="preserve">
<g>
	<path fill-rule="evenodd" clip-rule="evenodd" d="M35.069,107.41C15.663,107.262,0.133,91.625,0.242,72.341
		C0.349,53.235,16.33,37.5,35.527,37.597c19.319,0.098,34.866,15.902,34.626,35.196C69.907,92.438,54.582,107.56,35.069,107.41z
		 M55.857,90.651c1.678-0.263,2.662-1.146,1.748-3.081c-0.677-1.432-2.114-2.183-3.301-3.115
		c-12.002-9.43-24.031-18.829-36.054-28.232c-0.668-0.522-1.325-1.068-2.045-1.508c-0.965-0.59-1.962-0.555-2.768,0.297
		c-0.968,1.024-0.9,2.17-0.033,3.2c0.54,0.64,1.222,1.173,1.887,1.694c12.276,9.633,24.556,19.261,36.847,28.875
		C53.193,89.605,54.184,90.605,55.857,90.651z"/>
	<path fill-rule="evenodd" clip-rule="evenodd" d="M73.328,109.673c-5.326,0.022-9.896-1.943-13.984-5.265
		c-2.203-1.79-2.422-3.158,0.037-5.115c5.312-4.23,8.904-9.771,10.889-16.262c2.035-6.653,2.078-13.413,0.076-20.059
		c-0.749-2.49-0.697-4.352,0.861-6.576c6.82-9.726,13.347-19.658,20.148-29.398c6.692-9.584,18.1-11.383,27.681-4.602
		c7.729,5.471,12.35,17.023,5.088,27.296c-11.951,16.905-23.474,34.116-35.06,51.277C85.238,106.637,80.134,109.607,73.328,109.673z
		 M107.101,22.15c-5.634,0.071-9.321,2.015-12.757,6.984c-5.198,7.519-10.331,15.083-15.446,22.659
		c-2.618,3.876-2.682,5.273,0.384,9.021c4.821,5.894,11.007,9.927,18.181,12.485c3.606,1.284,6.028,0.213,8.124-3.006
		c4.989-7.657,10.164-15.197,15.426-22.671c3.821-5.427,4.109-10.958,1.038-16.691C118.876,25.005,113.74,22.257,107.101,22.15z
		 M72.729,106.916c4.323-0.177,7.605-2.315,10.21-5.611c0.635-0.802,2.295-1.676,0.917-2.839c-1.238-1.043-2.065,0.399-2.775,1.272
		c-3.129,3.838-6.782,6.519-12.104,5.688c-0.405-0.063-0.911-0.255-1.127,0.359c0.32,0.093,0.655,0.154,0.96,0.286
		C70.057,106.608,71.328,107.002,72.729,106.916z"/>
	<path fill-rule="evenodd" clip-rule="evenodd" d="M72.729,106.916c-1.401,0.086-2.673-0.308-3.919-0.844
		c-0.305-0.132-0.64-0.193-0.96-0.286c0.216-0.614,0.722-0.423,1.127-0.359c5.321,0.83,8.975-1.851,12.104-5.688
		c0.71-0.873,1.537-2.315,2.775-1.272c1.378,1.163-0.282,2.037-0.917,2.839C80.335,104.601,77.053,106.739,72.729,106.916z"/>
	<path fill-rule="evenodd" clip-rule="evenodd" d="M108.435,24.011c0.845,0.092,1.688,0.186,2.532,0.272
		c1.533,0.156,3.878,0.453,3.754,1.777c-0.117,1.252-2.29,0.231-3.557,0.074c-3.208-0.398-6.02,0.495-8.476,2.569
		c-0.771,0.652-1.482,1.418-2.349,1.908c-0.762,0.431-1.664,0.291-2.299-0.447c-0.724-0.842-0.255-1.595,0.322-2.231
		C101.063,24.958,104.521,23.89,108.435,24.011z"/>
</g>
</svg>
