<?xml version="1.0" encoding="utf-8"?>
<!-- Generator: Adobe Illustrator 16.0.4, SVG Export Plug-In . SVG Version: 6.00 Build 0)  -->
<!DOCTYPE svg PUBLIC "-//W3C//DTD SVG 1.1//EN" "http://www.w3.org/Graphics/SVG/1.1/DTD/svg11.dtd">
<svg version="1.1" id="Layer_3004" xmlns="http://www.w3.org/2000/svg" xmlns:xlink="http://www.w3.org/1999/xlink" x="0px" y="0px"
	 width="128px" height="128px" viewBox="0 0 128 128" enable-background="new 0 0 128 128" xml:space="preserve">
<g>
	<path fill-rule="evenodd" clip-rule="evenodd" d="M64.215,35.307c18.215,0.001,36.437,0.111,54.654-0.069
		c5.311-0.052,8.293,3.494,8.215,8.282c-0.229,13.797-0.082,27.6-0.078,41.402c0.004,5.049-2.762,7.828-7.871,7.828
		c-26.207,0.014-52.418,0.014-78.626,0.015c-10.464,0-20.931-0.008-31.399-0.011c-5.25-0.001-8.142-2.814-8.15-8.02
		c-0.015-13.739,0.072-27.48-0.044-41.22c-0.044-5.109,3.135-8.316,8.279-8.27C27.534,35.404,45.875,35.307,64.215,35.307z
		 M63.93,90.284c0-0.012,0-0.021,0-0.033c18.281,0,36.562,0,54.844,0c4.146,0,5.73-1.562,5.734-5.683
		c0.007-9.021,0.003-18.041,0.003-27.06c0-4.905,0.033-9.808-0.015-14.71c-0.031-3.232-1.846-4.989-5.085-5.083
		c-0.426-0.013-0.852-0.001-1.273-0.001c-28.873,0-57.749,0-86.622,0c-7.385,0-14.774,0.094-22.155-0.044
		c-3.185-0.059-6.077,1.738-5.94,5.86c0.187,5.684,0.047,11.378,0.047,17.068c0,8.173-0.01,16.346,0.006,24.516
		c0.004,3.047,2.063,5.176,4.886,5.174C26.882,90.282,45.407,90.284,63.93,90.284z"/>
	<path fill-rule="evenodd" clip-rule="evenodd" d="M102.558,51.557c-0.013-4.98,3.847-8.884,8.782-8.881
		c4.923,0.002,8.866,3.941,8.855,8.844c-0.015,4.928-3.923,8.885-8.824,8.925C106.517,60.484,102.574,56.509,102.558,51.557z
		 M118.474,50.881c0.347-2.875-2.595-6.532-4.593-6.06C115.357,46.768,116.903,48.807,118.474,50.881z"/>
	<path fill-rule="evenodd" clip-rule="evenodd" d="M72.89,51.688c-0.059,4.785-4.045,8.741-8.82,8.753
		c-4.889,0.012-9.055-4.212-8.936-9.059c0.116-4.896,4.153-8.778,9.051-8.708C69.065,42.74,72.947,46.764,72.89,51.688z
		 M71.076,50.807c0.585-2.448-2.281-6.235-4.497-6.019C68.04,46.742,69.57,48.789,71.076,50.807z"/>
	<path fill-rule="evenodd" clip-rule="evenodd" d="M96.481,51.635c-0.02,4.916-4.054,8.909-8.89,8.806
		c-4.899-0.106-8.801-4.109-8.77-9.001c0.03-4.804,3.999-8.764,8.781-8.766C92.656,42.67,96.508,46.554,96.481,51.635z
		 M90.206,44.717c1.526,2.072,3.054,4.149,4.527,6.149C95.489,48.742,92.638,44.847,90.206,44.717z"/>
	<path fill-rule="evenodd" clip-rule="evenodd" d="M49.227,51.554c-0.005,4.896-4.054,8.922-8.907,8.852
		c-4.905-0.069-8.864-4.11-8.799-8.979c0.069-4.829,4.019-8.736,8.842-8.746C45.269,42.674,49.228,46.638,49.227,51.554z
		 M47.31,51.341c0.757-2.876-2.183-6.735-4.779-6.491c1.03,0.965,2.116,1.737,2.865,2.754C46.154,48.625,46.59,49.888,47.31,51.341z
		"/>
	<path fill-rule="evenodd" clip-rule="evenodd" d="M16.828,42.682c4.872,0.035,8.871,4.125,8.797,8.996
		c-0.073,4.771-4.117,8.737-8.897,8.729c-4.869-0.009-8.876-4.042-8.868-8.926C7.872,46.624,11.923,42.648,16.828,42.682z
		 M19.277,44.772c1.522,2.04,3.067,4.109,4.596,6.156C24.164,48.03,21.317,44.498,19.277,44.772z"/>
	<path fill-rule="evenodd" clip-rule="evenodd" d="M16.755,67.656c5.021,0.02,8.902,3.895,8.871,8.848
		c-0.034,4.836-4.096,8.782-9.011,8.754c-4.806-0.031-8.754-3.996-8.762-8.801C7.841,71.521,11.774,67.635,16.755,67.656z
		 M19.264,69.669c1.493,2.004,3.062,4.113,4.588,6.161C24.296,73.067,21.162,69.161,19.264,69.669z"/>
	<path fill-rule="evenodd" clip-rule="evenodd" d="M40.372,85.261c-4.945,0-8.915-3.987-8.845-8.882
		c0.072-4.945,3.853-8.697,8.789-8.723c5.049-0.025,8.899,3.762,8.908,8.76C49.233,81.359,45.334,85.258,40.372,85.261z
		 M42.886,69.604c1.565,2.117,3.109,4.21,4.639,6.28C47.862,73.192,45.424,69.922,42.886,69.604z"/>
	<path fill-rule="evenodd" clip-rule="evenodd" d="M64.029,85.266c-4.937-0.012-8.926-3.971-8.896-8.829
		c0.027-4.924,3.976-8.826,8.906-8.801c5.039,0.024,8.867,3.831,8.861,8.808C72.896,81.381,68.976,85.28,64.029,85.266z
		 M70.869,76.081c0.686-2.873-1.859-6.29-4.776-6.297C68.573,71.237,70.068,73.392,70.869,76.081z"/>
	<path fill-rule="evenodd" clip-rule="evenodd" d="M111.332,85.263c-4.997-0.009-8.775-3.812-8.775-8.835
		c-0.007-5.06,3.74-8.793,8.807-8.783c4.997,0.01,8.843,3.841,8.839,8.811C120.198,81.396,116.294,85.273,111.332,85.263z
		 M118.423,75.76c0.63-2.427-2.29-6.299-4.624-6.146C115.299,71.61,116.869,73.697,118.423,75.76z"/>
	<path fill-rule="evenodd" clip-rule="evenodd" d="M87.772,85.266c-4.958,0.016-8.904-3.835-8.962-8.743
		c-0.057-4.905,3.851-8.848,8.801-8.885c5.081-0.038,8.839,3.654,8.875,8.72C96.522,81.397,92.752,85.251,87.772,85.266z
		 M90.07,69.457c1.619,2.201,3.189,4.34,4.751,6.465C95.201,73.314,92.879,70.106,90.07,69.457z"/>
</g>
</svg>
