<?xml version="1.0" encoding="utf-8"?>
<!-- Generator: Adobe Illustrator 16.0.4, SVG Export Plug-In . SVG Version: 6.00 Build 0)  -->
<!DOCTYPE svg PUBLIC "-//W3C//DTD SVG 1.1//EN" "http://www.w3.org/Graphics/SVG/1.1/DTD/svg11.dtd">
<svg version="1.1" id="Layer_3203" xmlns="http://www.w3.org/2000/svg" xmlns:xlink="http://www.w3.org/1999/xlink" x="0px" y="0px"
	 width="128px" height="128px" viewBox="0 0 128 128" enable-background="new 0 0 128 128" xml:space="preserve">
<g>
	<g id="_x36_ogneq.tif">
		<g>
			<path fill-rule="evenodd" clip-rule="evenodd" d="M63.993,127.13c-10.515,0.239-19.939-2.939-28.321-9.267
				c-2.862-2.16-5.589-4.465-8-7.138c-1.923-2.131-3.55-4.455-4.95-6.955c-3.834-6.854-6.062-14.251-7.331-21.945
				c-0.342-2.076-0.644-4.195-0.547-6.332c0.066-1.459-0.439-2.89-0.269-4.358c0.411-3.548,0.449-7.122,0.997-10.67
				c0.648-4.191,1.392-8.352,2.501-12.441c1.129-4.162,2.537-8.223,4.355-12.146c2.633-5.681,5.758-11.055,9.624-15.987
				c4.452-5.681,9.453-10.757,15.774-14.397c3.896-2.243,8.085-3.598,12.493-4.391c5.446-0.98,10.511,0.44,15.501,2.345
				c4.654,1.777,8.615,4.623,12.297,7.942c6.137,5.536,10.773,12.186,14.867,19.298c3.782,6.57,6.068,13.646,7.712,20.987
				c0.983,4.393,1.902,8.805,2.289,13.284c0.243,2.831,0.59,5.678,0.438,8.538c-0.545,10.171-2.669,19.937-7.521,28.988
				c-2.113,3.941-4.725,7.553-7.866,10.715c-3.191,3.215-6.933,5.755-10.857,8.02c-5.474,3.158-11.399,4.987-17.612,5.871
				C67.743,127.35,65.853,127.13,63.993,127.13z M16.222,64.827c1.167,1.005,2.363,2.157,3.681,3.147
				c4.912,3.694,10.323,6.456,16.088,8.577c8.616,3.169,17.594,4.223,26.675,4.69c2.048,0.106,4.094-0.104,6.145-0.248
				c4.568-0.321,9.087-0.984,13.568-1.812c8.78-1.62,16.852-5.049,24.177-10.182c1.894-1.326,3.735-2.718,5.343-4.366
				c-0.161-3.369-0.832-6.546-1.346-9.74c-0.161-1.006-0.938-1.595-1.908-1.821c-1.033-0.242-2.001-0.085-2.667,0.852
				c-0.306,0.429-0.563,0.896-0.8,1.368c-0.861,1.718-1.539,3.519-2.554,5.168c-1.372,2.23-3.05,2.784-5.348,1.601
				c-1.008-0.519-2.049-0.896-3.143-1.207c-1.049-0.298-1.807,0.028-2.547,0.655c-0.826,0.699-1.341,1.641-1.951,2.507
				c-0.953,1.355-1.761,2.812-2.895,4.04c-1.271,1.378-2.766,1.706-4.519,1.097c-1.324-0.46-2.559-1.094-3.745-1.828
				c-2.206-1.365-4.355-1.285-6.508,0.167c-0.891,0.602-1.679,1.304-2.404,2.077c-2.718,2.899-8.345,3.051-11.129-0.008
				c-0.809-0.889-1.751-1.623-2.755-2.28c-1.688-1.104-3.426-1.309-5.25-0.337c-1.113,0.594-2.256,1.13-3.358,1.743
				c-2.794,1.553-4.975,0.719-6.567-1.563c-0.986-1.415-1.948-2.845-2.941-4.255c-0.736-1.043-1.544-2.011-3.016-2.202
				c-0.501,0.152-1.083,0.291-1.637,0.505c-0.865,0.333-1.712,0.711-2.563,1.078c-1.722,0.739-2.626,0.55-3.952-0.688
				c-1.558-1.453-2.369-3.331-3.15-5.242c-0.5-1.224-0.953-2.49-2.137-3.231c-2.543-0.095-3.361,0.544-3.817,2.938
				c-0.21,1.103-0.549,2.198-0.619,3.309C16.564,61.116,15.897,62.845,16.222,64.827z M104.557,35.591
				C95.924,43.88,79.133,50.37,63.984,50.25c-15.071-0.119-28.669-4.941-40.653-14.339c-1.025,1.841-1.509,3.784-2.184,5.632
				c-0.663,1.817-1.693,3.553-1.824,5.591c4.543-0.322,6.496,1.537,7.791,4.333c0.501,1.081,0.954,2.187,1.373,3.302
				c0.22,0.586,0.505,1.073,1.09,1.36c0.726,0.146,1.444,0.091,2.144-0.172c0.998-0.376,2.05-0.519,3.077-0.772
				c1.797-0.442,3.266,0.129,4.571,1.291c0.644,0.573,1.19,1.236,1.675,1.963c0.772,1.157,1.566,2.309,2.458,3.375
				c1.163,1.392,1.991,1.536,3.669,0.763c1.206-0.556,2.408-1.125,3.561-1.78c1.521-0.864,3.045-0.855,4.577-0.148
				c1.443,0.668,2.925,1.285,4.2,2.259c2.656,2.029,5.866,2.429,9.133-0.12c1.047-0.817,2.189-1.499,3.412-2.033
				c1.875-0.82,3.699-0.872,5.528,0.185c1.089,0.631,2.231,1.178,3.382,1.689c1.641,0.731,2.534,0.509,3.636-0.891
				c0.655-0.832,1.229-1.728,1.84-2.595c0.649-0.922,1.284-1.856,2.138-2.613c1.425-1.264,2.965-1.953,4.914-1.253
				c0.929,0.334,1.919,0.494,2.881,0.738c0.715,0.182,1.43,0.284,2.027,0.111c0.879-0.414,1.028-1.161,1.25-1.846
				c0.43-1.333,0.99-2.608,1.693-3.812c1.066-1.827,2.6-2.958,4.775-3.146c0.839-0.072,1.666-0.288,2.689-0.472
				C107.381,43.005,106.149,39.263,104.557,35.591z M21.108,97.845c4.914,14.604,23.572,30.271,46.891,28.477
				c18.691-1.44,34.755-15.6,38.621-28.152c-0.186,0.125-0.354,0.227-0.511,0.345c-5.738,4.373-11.923,7.924-18.772,10.272
				c-5.605,1.923-11.384,3.095-17.26,3.589c-3.821,0.321-7.676,0.217-11.532-0.187c-3.294-0.346-6.583-0.623-9.83-1.307
				c-5.007-1.054-9.883-2.49-14.52-4.706C29.512,103.936,25.153,101.199,21.108,97.845z M38.077,14.558
				c1.945,1.526,3.946,2.766,6.138,3.716c3.668,1.589,7.536,2.458,11.428,3.267c3.248,0.675,6.503,1.224,9.837,1.073
				c1.853-0.083,3.668-0.46,5.5-0.721c5.698-0.815,11.095-2.513,16.089-5.399c1.011-0.583,2.103-1.098,2.844-2.083
				c-0.533-1.071-1.56-1.521-2.324-2.228c-4.596-4.25-9.875-7.331-15.869-9.184c-3.81-1.178-7.707-1.408-11.604-0.845
				c-4.634,0.67-8.929,2.396-12.946,4.814C43.793,9,40.802,11.478,38.077,14.558z M52.477,110.652
				c7.816,1.608,15.566,0.94,23.247,0.023c0.268-0.597,0.256-1.048,0.064-1.665c-1.509-0.678-2.318-2.112-3.012-3.646
				c-0.688-1.523-0.792-3.184-1.062-4.938c-2.697-0.365-4.031-2.628-5.861-4.21c-1.128-0.138-2.182-0.712-3.533-0.265
				c-1.504,1.77-2.995,3.875-5.701,4.354c-0.282,0.549-0.453,1.106-0.574,1.693c-0.263,1.297-0.605,2.572-1.044,3.826
				c-0.411,1.178-1.066,2.116-2.118,2.785c-0.274,0.174-0.524,0.384-0.729,0.537C52.045,109.708,51.991,110.168,52.477,110.652z
				 M71.422,91.635c0.065-0.18,0.157-0.306,0.149-0.424c-0.144-2.233,0.154-4.317,1.458-6.257c0.616-0.918,0.838-2.127-0.332-3.272
				c-2.81,0.196-5.769,0.101-8.749,0.319c-2.937,0.217-5.912-0.454-8.812-0.229c-0.87,1.379-0.729,2.603,0.043,3.835
				c0.569,0.906,0.796,1.917,1.011,2.977c0.222,1.092,0.013,2.24,0.382,3.281c0.296,0.071,0.483,0.131,0.673,0.159
				c1.962,0.291,3.922,0.474,5.322,2.244c0.615,0.777,1.64,0.823,2.54,0.216c0.438-0.296,0.858-0.62,1.274-0.948
				c1.122-0.883,2.361-1.453,3.814-1.494C70.592,92.029,71.002,92.037,71.422,91.635z M32.238,82.469
				c1.488,0.12,2.746-0.488,4.094-0.394c1.213,0.087,2.31,0.451,2.859,1.517c0.992,1.922,2.722,3.029,4.256,4.355
				c1.13-0.495,2.143,0.084,3.183,0.183c1.099,0.106,1.939,1.096,3.179,1.119c0.662-2.154,1.84-3.873,3.744-5.033
				c-0.079-0.95,0.729-1.77,0.199-2.783c-8.736-0.973-17.164-3.065-25.043-7.112c-0.469,1.831-0.469,1.831-0.017,3.292
				C30.754,78.433,30.937,80.799,32.238,82.469z M95.743,82.456c0.171-0.211,0.346-0.343,0.406-0.517
				c0.598-1.719,1.452-3.246,2.941-4.383c0.474-0.363,0.695-0.938,0.531-1.604c-0.125-0.504-0.166-1.028-0.264-1.676
				c-7.984,4.117-16.464,6.188-25.309,7.19c0.102,1.481,0.488,2.702,1.519,3.639c0.949,0.862,1.615,1.916,2.224,3.022
				c0.218,0.397,0.344,0.879,0.93,1.115c1.857-1.089,3.975-1.51,6.271-1.565c1.168-1.227,2.444-2.398,3.514-3.736
				c1.27-1.586,2.828-2.13,4.732-1.708C94.092,82.422,94.914,82.527,95.743,82.456z M79.628,102.696
				c-0.531,1.252-0.642,2.584-1.007,3.838c-0.387,1.325-1.935,2.082-1.752,3.449c0.21,0.421,0.427,0.416,0.617,0.41
				c0.33-0.011,0.668-0.024,0.988-0.1c4.771-1.127,9.465-2.49,13.967-4.47c3.368-1.48,4.298-2.894,4.215-6.656
				c-0.553-0.659-0.89-1.556-1.724-2.199c-1.179,0.694-2.232,1.602-3.579,2.013c-2.276,0.694-4.224,2.13-6.499,2.896
				C83.146,102.452,81.522,103.095,79.628,102.696z M31.286,99.237c-0.001,2.828,0.717,5.133,3.681,6.314
				c4.857,1.937,9.756,3.713,14.88,4.803c0.413,0.088,0.921,0.269,1.275-0.223c0.102-0.724-0.223-1.301-0.697-1.781
				c-1.089-1.103-1.447-2.49-1.63-3.957c-0.064-0.515,0.011-1.08-0.665-1.503c-2.773-0.006-5.421-0.943-7.961-2.306
				c-1.809-0.97-3.663-1.857-5.512-2.748c-0.576-0.278-1.104-0.712-1.888-0.716C32.535,97.904,31.831,98.362,31.286,99.237z
				 M84.98,39.174c-0.584,0.212-0.855,0.698-1.208,1.08c-1.179,1.28-2.546,2.112-4.363,1.979c-0.753-0.055-1.428,0.206-2.1,0.516
				c-0.902,0.415-1.812,0.818-2.739,1.171c-1.493,0.568-2.982,0.55-4.432-0.166c-0.646-0.319-1.285-0.657-2.028-1.038
				c-0.499,1.699-1.38,3.035-2.822,4.007c-0.917,0.618-1.19,1.534-0.594,2.742c8.59-0.266,16.818-2.156,24.704-5.47
				c0.081-0.933-0.339-1.501-1.016-1.646c-1.024-0.219-1.546-0.979-2.165-1.652C85.773,40.215,85.386,39.678,84.98,39.174z
				 M38.575,43.984c3.579,1.543,7.273,2.744,11.065,3.633c4.316,1.012,8.675,1.763,13.13,1.801c0.268,0.002,0.524-0.035,0.746-0.369
				c0.056-0.5,0.157-1.084-0.235-1.818c-1.446-1.105-2.787-2.533-3.375-4.518c-1.607,0.729-2.902,1.692-4.622,1.613
				c-1.526-0.07-2.798-0.768-4.115-1.353c-0.919-0.409-1.789-0.829-2.837-0.728s-1.933-0.319-2.727-0.985
				c-0.849-0.711-1.718-1.397-2.675-2.173c-0.73,1.636-1.69,2.902-3.479,3.354C38.872,42.588,38.647,43.262,38.575,43.984z
				 M106.525,88.057c1.135-0.298,1.193-0.277,1.411-0.882c0.51-1.419,1.11-2.816,1.354-4.256c-2.153-2.942-1.911-5.752,0.211-8.504
				c-0.26-1.906,0.213-3.86-0.628-5.819c-2.874,1.847-5.827,3.455-8.429,5.463c0.082,0.427,0.146,0.616,0.153,0.81
				c0.056,1.459,0.126,2.862,1.099,4.134c0.541,0.708,0.627,1.722,0.648,2.671c0.014,0.651-0.15,1.329,0.246,2.1
				C105.132,83.944,105.803,86.05,106.525,88.057z M25.705,83.759c-0.264-2.462,0.204-4.379,1.375-6.312
				c1.308-2.162,0.61-3.507-1.676-4.858c-1.71-1.012-3.374-2.099-5.048-3.168c-0.421-0.27-0.808-0.587-1.317-0.659
				c-0.576,1.987-0.47,3.907-0.469,5.839c2.168,2.78,2.056,5.611,0.095,8.381c0.4,1.36,0.749,2.634,1.152,3.889
				c0.234,0.73,0.655,1.299,1.633,1.191C22.208,86.075,22.829,83.926,25.705,83.759z M48.135,21.251
				c-0.216,1.493,0.979,2.512,0.697,3.84c-0.27,1.268-0.448,2.556-0.683,3.933c1.972,0.27,3.741,0.757,5.242,1.635
				c1.408-0.394,2.214-1.572,3.569-1.649c1.259-0.073,2.476,0.25,3.769,0.375c0.692-1.449,1.67-2.603,2.734-3.63
				c0.074-0.784,0.301-1.5-0.189-2.171c-4.358-0.501-8.679-1.086-12.889-2.285C49.686,21.101,48.978,20.989,48.135,21.251z
				 M73.887,30.703c1.882-1.057,4.042-1.093,6.02-1.76c-0.296-1.404-0.666-2.594-0.835-3.846c-0.186-1.381,0.854-2.445,0.796-4.17
				c-5.189,1.198-10.233,2.301-15.329,2.63c-0.216,0.863-0.202,1.512-0.015,2.284c1.272,0.848,2.009,2.257,2.822,3.651
				C69.756,28.739,72.011,28.515,73.887,30.703z M73.835,61.149c-2.206,0.972-4.063,1.798-5.656,3.122
				c-0.729,0.606-1.496,1.057-2.479,1.137c-2.741,0.224-5.248-0.095-7.344-2.196c-1.059-1.061-2.492-1.645-4.021-1.737
				c-0.356,0.591-0.226,1.138-0.285,1.656c-0.166,1.481-0.107,2.827,1.787,3.177c0.291,0.055,0.533,0.378,0.792,0.585
				c1.143,0.906,2.273,1.828,3.424,2.723c2.378,1.849,5.795,1.752,8.083-0.176c1.807-1.523,3.413-3.333,5.699-3.908
				C73.835,64.059,73.835,62.812,73.835,61.149z M91.537,60.112c-0.209-1.238-0.322-2.529-0.844-3.808
				c-1.352,0.753-2.237,1.801-3.048,2.923c-0.659,0.912-1.352,1.805-1.946,2.76c-0.748,1.202-1.745,1.967-3.161,2.154
				c-2.735-0.451-4.82-2.673-7.765-2.941c0.07,1.423-0.099,2.73,0.233,4.046c1.692,0.172,3.149,0.708,4.497,1.628
				c0.813,0.557,1.753,0.938,2.66,1.344c1.429,0.64,2.726,0.373,3.825-0.73c0.418-0.42,0.778-0.9,1.134-1.379
				C88.543,64.194,89.951,62.269,91.537,60.112z M36.591,60.335c1.718,1.703,2.941,3.837,4.325,5.854
				c1.756,2.56,3.305,2.937,6.083,1.49c0.176-0.092,0.356-0.181,0.52-0.293c1.646-1.131,3.422-1.961,5.45-2.253
				c0.301-1.388,0.248-2.675,0.074-3.947c-0.231,0-0.38-0.042-0.488,0.007c-1.629,0.733-3.253,1.478-4.878,2.222
				c-2.554,1.169-3.78,0.829-5.383-1.472c-0.871-1.248-1.748-2.493-2.649-3.719c-0.593-0.806-1.361-1.383-2.489-1.706
				C36.943,57.847,36.34,58.972,36.591,60.335z M103.892,34.829c-0.072-0.968-0.538-1.563-0.883-2.188
				c-0.796-1.436-1.619-1.572-2.819-0.416c-0.875,0.845-1.817,1.592-2.946,1.982c-2.173,0.753-3.975,2.367-6.377,2.52
				c-0.092,1.21-0.096,2.272-0.273,3.305c-0.188,1.099-0.493,2.169-0.048,3.417C95.46,41.105,100.288,38.827,103.892,34.829z
				 M23.994,34.537c2.57,3.243,9.429,7.58,13.537,8.653c0.073-0.105,0.218-0.218,0.209-0.315c-0.179-2.009-0.816-3.968-0.455-6.062
				c-0.591-0.167-1.022-0.368-1.466-0.398c-1.239-0.087-2.331-0.44-3.195-1.388c-0.163-0.178-0.452-0.259-0.697-0.344
				c-1.654-0.568-3.108-1.422-4.368-2.669c-0.903-0.895-1.769-0.726-2.451,0.36C24.691,33.04,24.382,33.774,23.994,34.537z
				 M104.444,48.836c-0.899,0.23-1.471,0.838-1.881,1.635c-0.789,1.531-1.603,3.048-2.215,4.665
				c-0.833,2.197-1.568,2.583-3.762,1.908c-1.566-0.482-3.155-0.827-4.872-1.081c0.297,1.213,0.279,2.413,0.937,3.558
				c1.73,0.613,3.631,0.977,5.36,1.812c1.431,0.689,2.501,0.274,3.487-0.895c1.049-1.245,1.468-2.822,2.345-4.135
				c1.557-2.33,1.844-4.722,0.718-7.284C104.534,48.958,104.49,48.907,104.444,48.836z M25.515,91.572
				c-1.218,0.269-2.173-0.195-2.922-1.143c-0.606-0.766-1.37-1.224-2.349-1.328c-0.795,0.347-1.499,0.807-1.942,1.496
				c0.346,0.974,0.785,1.825,0.937,2.725c0.239,1.41,1.001,2.431,2.01,3.334c1.881,1.685,3.919,3.168,6.022,4.558
				c1.221,0.806,2.503,1.521,4.051,2.454c-0.629-1.619-0.778-2.963-1.475-4.062c-2.305-0.9-2.8-1.599-3.49-3.966
				C25.967,94.301,26.304,92.833,25.515,91.572z M22.519,52.147c1.048,2.608,2.062,5.114,3.476,7.435
				c0.171,0.282,0.333,0.574,0.537,0.83c1.145,1.445,1.722,1.656,3.411,0.913c1.75-0.772,3.477-1.564,5.395-1.704
				c0.531-1.181,0.881-2.284,0.634-3.629c-0.669,0.138-1.299,0.25-1.92,0.402c-1.089,0.266-2.167,0.576-3.257,0.832
				c-1.602,0.376-2.307,0.019-2.96-1.504c-0.234-0.544-0.365-1.133-0.59-1.681c-0.351-0.854-0.68-1.727-1.129-2.53
				c-0.595-1.062-1.252-2.105-2.357-2.762C22.916,49.789,22.968,50.975,22.519,52.147z M102.457,91.512
				c-0.519,1.051-0.406,2.061-0.547,3.033c-0.34,2.33-1.097,4.392-3.857,4.981c-0.406,1.175-0.911,2.352-1.086,3.805
				c0.384-0.203,0.626-0.304,0.838-0.447c1.969-1.335,3.923-2.695,5.904-4.015c5.274-3.51,4.371-3.663,5.982-8.161
				c0.04-0.106-0.009-0.245-0.024-0.511c-0.995,0.166-1.232-0.974-1.899-1.229c-1.151,0.156-1.765,0.856-2.415,1.523
				C104.59,91.274,103.741,91.886,102.457,91.512z M36.975,19.014c-0.871,0.984-1.608,1.817-2.346,2.65
				c0.205,1.719-0.105,3.315-0.988,4.76c-0.958,1.567-2.408,2.381-4.167,2.42c-0.47,0.872-0.842,1.634-0.872,2.545
				c1.171,1.023,2.426,1.802,3.646,2.286c0.735-0.673,1.324-1.205,1.905-1.745c0.396-0.368,0.756-0.781,0.71-1.36
				c-0.081-0.996,0.524-1.591,1.188-2.164c0.747-0.644,1.496-1.284,2.28-1.958c0.124-1.088-0.046-2.215,0.467-3.288
				c0.766-1.601,0.704-1.672-0.528-2.911C37.899,19.877,37.51,19.523,36.975,19.014z M82.647,95.389
				c1.386,1.589,2.495,3.287,2.968,5.394c1.102-0.704,2.266-0.901,3.075-1.832c-0.99-1.762-0.701-3.464,0.17-5.123
				c0.243-0.467,0.532-0.916,0.848-1.337c0.662-0.881,1.357-1.736,2.066-2.638c-1.402-1.111-2.732-2.166-4.081-3.237
				c-0.335,0.294-0.557,0.554-0.836,0.719c-1.191,0.708-1.807,1.685-1.683,3.12c0.078,0.895-0.388,1.674-0.822,2.411
				C83.885,93.66,83.322,94.4,82.647,95.389z M90.81,19.164c-0.743,0.862-1.721,1.483-2.186,2.779
				c0.871,1.416,1.08,3.104,0.995,4.93c0.753,0.2,1.356,0.595,1.965,0.986c0.764,0.492,1.357,1.162,1.448,2.049
				c0.191,1.869,1.574,2.78,2.724,3.896c1.499-0.551,2.787-1.178,3.682-2.349c0.117-1.096-0.555-1.797-0.911-2.575
				c-4.004-0.437-5.854-4.301-5.252-7.49C92.547,20.733,91.762,20.024,90.81,19.164z M36.398,89.874
				c0.745,0.988,1.515,1.894,2.154,2.883c1.225,1.896,2.043,3.887,0.941,6.158c-0.041,0.083,0.06,0.233,0.117,0.428
				c0.865,0.441,1.64,1.277,2.883,0.942c0.376-0.913,0.456-1.938,1.103-2.738c0.61-0.753,1.425-1.379,1.631-2.359
				c-0.48-0.661-0.938-1.23-1.329-1.845c-0.533-0.839-1.082-1.704-1.082-2.738c0-1.876-0.889-3.132-2.612-3.916
				C38.951,87.678,37.603,88.62,36.398,89.874z M75.244,42.396c1.436-0.174,2.248-0.772,2.353-2.252
				c0.074-1.057,0.534-2.039,1.027-2.991c0.324-0.625,0.779-1.218,0.847-1.951c-0.226-0.177-0.36-0.336-0.532-0.411
				c-1.484-0.638-2.87-1.378-3.662-2.905c-0.194-0.374-0.618-0.476-1.181-0.255c-0.547,1.529-1.627,2.839-2.834,4.089
				c0.922,1.027,1.729,1.99,2.4,3.058C74.371,39.902,74.733,41.186,75.244,42.396z M53.328,31.383
				c-1.025,0.761-1.396,1.864-2.34,2.384c-0.917,0.504-1.842,0.991-2.833,1.524c1.447,1.832,2.658,3.71,2.364,5.925
				c0.646,0.9,1.38,1.085,2.287,1.133c0.41-1.155,0.839-2.324,1.424-3.432c0.615-1.164,1.722-1.986,2.246-3.246
				C55.541,34.2,54.623,32.77,53.328,31.383z M96.239,88.815c-1.104,0.537-2.138,0.979-3.113,1.526
				c-2.489,1.397-3.855,3.556-4.136,6.394c-0.106,1.08,0.435,1.592,1.517,1.451c1.584-0.207,2.913-0.912,3.824-2.231
				c0.751-1.087,1.462-2.217,2.048-3.398C96.943,91.419,97.258,90.19,96.239,88.815z M31.796,88.926
				c-0.509,0.749-1.054,1.41-0.694,2.246c0.966,2.239,1.885,4.542,3.954,6.048c1.053,0.767,2.205,1.389,3.572,0.923
				C39.469,93.977,37.351,91.106,31.796,88.926z M51.209,98.658c-2.312,4.218-2.052,7.693,0.675,9.358
				c0.81-0.288,1.333-0.931,1.775-1.69c0.571-0.982,0.9-2.048,1.201-3.134c0.714-2.579,0.556-3.058-1.686-4.722
				C52.576,98.527,51.921,98.591,51.209,98.658z M76.727,98.683c-0.274-0.04-0.596-0.116-0.919-0.125
				c-2.029-0.055-3.101,1.004-2.99,3.009c0.107,1.956,0.767,3.743,1.895,5.335c0.408,0.573,0.867,1.214,1.756,1.024
				C78.865,105.346,78.959,102.412,76.727,98.683z M60.614,36.454c-2.253-0.654-3.867,0.13-4.965,2.129
				c-0.444,0.809-0.934,1.594-1.363,2.41c-0.352,0.669-0.483,1.367-0.021,2.018c0.528,0.486,1.176,0.521,1.717,0.349
				c2.103-0.667,4.048-1.576,5.115-3.718C61.702,38.427,61.677,37.376,60.614,36.454z M88.868,85.739
				c1.374,2.816,3.768,3.769,6.261,2.573c1.173-0.562,1.676-1.382,1.552-2.669c-0.116-1.216-0.549-1.784-1.889-2.21
				c-0.438-0.139-0.892-0.23-1.343-0.323C91.227,82.659,89.729,83.521,88.868,85.739z M39.18,85.734
				c-0.554-1.796-1.748-2.586-3.289-2.688c-0.957-0.063-1.96,0.213-2.907,0.467c-1.199,0.32-1.663,1.041-1.667,2.35
				c-0.001,0.522-0.037,1.063,0.293,1.542c0.509,0.648,1.307,0.84,1.999,1.209c0.684,0.366,1.453,0.48,2.107,0.183
				C37.153,88.144,38.515,87.334,39.18,85.734z M66.366,38.222c1.147,1.118,1.001,3.159,2.838,3.827
				c1.479,0.538,2.809,1.753,4.486,1.142c0.454-0.89,0.343-1.588-0.021-2.254c-0.473-0.867-0.937-1.744-1.476-2.57
				c-1.367-2.094-2.441-2.463-5.104-1.795c-0.128,0.243-0.294,0.526-0.428,0.822C66.555,37.629,66.485,37.881,66.366,38.222z
				 M54.221,97.643c1.042,1.489,2.071,2.011,3.294,1.387c1.842-0.938,3.283-2.328,4.161-4.413c-1.755-1.251-3.572-1.686-5.488-1.681
				c-0.831,0.001-1.205,0.661-1.334,1.469C54.687,95.439,54.454,96.463,54.221,97.643z M90.569,15.502
				c-3.274,1.759-6.519,3.5-9.844,5.286c0.963,1.262,2.081,2.015,3.372,2.637c0.638-0.745,1.122-1.592,2.049-1.903
				c1.113-0.374,1.912-1.14,2.71-1.951c0.882-0.897,1.834-1.725,2.748-2.59c0.089-0.083,0.122-0.223,0.219-0.409
				C91.551,16.172,91.314,15.703,90.569,15.502z M47.305,20.809c-2.048-1.105-3.842-2.092-5.653-3.045
				c-1.464-0.77-2.949-1.499-4.354-2.21c-0.574,0.214-0.87,0.549-1.096,1.068c0.224,0.348,0.403,0.808,0.73,1.107
				c2.267,2.071,4.789,3.819,7.286,5.654C45.176,22.584,46.14,21.781,47.305,20.809z M62.495,39.146
				c-2.274,2.904-1.581,5.711,1.635,6.95c3.111-1.67,3.627-4.156,1.463-6.95C64.53,39.146,63.481,39.146,62.495,39.146z
				 M72.307,93.019c-4.621,0.524-4.698,0.548-5.846,1.791c0.523,1.638,1.757,2.72,3.118,3.658c1.843,1.271,2.434,1.137,3.983-0.771
				C73.531,96.105,73.34,94.503,72.307,93.019z M42.947,34.858c0.002,2.989,1.971,5.625,4.6,6.321
				c1.083,0.287,1.112,0.273,1.988-0.965c-0.539-2.418-2.171-4.56-5.13-6.713c-0.152,0.094-0.339,0.17-0.472,0.301
				C43.607,34.124,43.305,34.472,42.947,34.858z M78.983,40.884c2.181,0.269,3.131-0.044,4.39-1.566
				c0.458-0.553,0.827-1.193,1.158-1.834c0.923-1.786,0.744-2.473-0.907-3.836c-1.969,0.999-4.254,3.632-4.984,5.649
				C78.399,39.961,78.571,40.436,78.983,40.884z M43.762,100.966c1.183,0.741,2.443,0.717,3.699,0.729
				c0.657,0.007,1.13-0.308,1.516-0.804c1.414-1.817,1.316-3.343-0.312-5.064c-1.716-0.536-2.771,0.438-3.772,1.577
				C43.983,98.438,43.359,99.544,43.762,100.966z M84.167,100.86c0.397-3.11-1.858-5.242-5.274-4.943
				c-0.241,0.488-0.56,0.995-0.747,1.547c-0.518,1.521,0.687,4.006,2.092,4.149C81.594,101.754,83.02,101.857,84.167,100.86z
				 M100.479,90.957c-2.022,0.504-3.369,1.533-4.164,3.418c-0.508,1.202-0.318,2.191,0.231,3.193
				c0.569,1.035,1.763,1.208,2.709,0.479C101.079,96.648,101.704,93.215,100.479,90.957z M27.503,91.038
				c-0.099,0.088-0.336,0.192-0.377,0.349c-0.579,2.22-0.324,4.312,1.096,6.17c0.695,0.91,1.593,1.157,2.417,0.771
				c0.812-0.38,1.684-1.851,1.34-2.641C31.083,93.62,30.488,91.193,27.503,91.038z M55.352,30.765
				c-0.47,1.741,0.658,2.694,1.581,3.698c0.959,1.042,2.192,1.091,3.442,0.813c1.502-1.975,1.604-2.949,0.476-4.259
				C59.611,29.575,57.49,29.45,55.352,30.765z M72.709,30.956c-1.212-1.317-2.773-1.363-4.317-0.811
				c-2.27,0.813-2.543,2.82-0.803,5.071C70.607,35.541,72.657,33.867,72.709,30.956z M49.968,92.049
				c-1.402-2.688-3.413-3.604-6.018-2.818c-0.817,3.221,1.601,5.645,5.075,5.074C49.527,93.675,49.646,92.879,49.968,92.049z
				 M79.094,94.625c1.328,0.423,2.505,0.247,3.312-0.804c1.061-1.381,2.135-2.823,1.854-4.753c-3.595-0.28-5.413,0.776-6.176,3.526
				c0.16,0.366,0.336,0.795,0.538,1.209C78.765,94.096,78.945,94.37,79.094,94.625z M54.771,92.338
				c1.439-2.576,0.852-5.256-1.335-6.631c-2.196,1.343-3.163,3.269-2.64,5.349c0.833,0.291,1.695,0.602,2.563,0.891
				C53.79,92.088,54.232,92.188,54.771,92.338z M77.381,91c-0.041-2.604-1.096-4.412-2.961-5.246
				c-2.04,1.354-2.481,3.635-1.256,6.619c0.434-0.121,0.882-0.226,1.316-0.371C75.417,91.69,76.346,91.358,77.381,91z
				 M88.236,34.653c-1.875,0.417-2.426,0.863-2.595,2.051c-0.264,1.854,1.247,4.061,3.188,4.646c0.868-0.352,1.018-1.09,1.092-1.927
				C90.084,37.619,89.779,35.995,88.236,34.653z M39.329,41.395c2.238-0.746,3.375-2.942,2.439-6.045
				c-0.582-0.289-1.226-0.609-1.85-0.92c-1.586,1.371-2.066,3.069-1.86,5.045C38.145,40.321,38.323,41.043,39.329,41.395z
				 M44.899,32.439c0.758,0.937,1.788,1.349,2.81,1.805c1.793-0.528,3.583-0.971,3.994-3.226c-1.77-1.145-3.531-1.253-5.357-0.643
				C45.476,30.667,44.866,31.22,44.899,32.439z M100.737,89.532c1.495,1.168,2.938,1.27,3.859,0.383
				c1.154-1.111,1.122-2.391-0.102-4.074c-0.833-1.146-1.544-1.202-3.31-0.21C101.085,86.872,101.089,88.184,100.737,89.532z
				 M27.977,78.657c-1.042,0.434-1.407,1.359-1.394,2.379c0.018,1.248-0.583,2.684,0.905,3.711c0.943-0.486,1.957-0.909,3.045-0.385
				C31.316,81.495,30.467,79.65,27.977,78.657z M82.317,30.526c-2.276-0.809-4.315-0.792-6.31,0.691
				c1.192,1.488,2.578,2.337,4.051,2.981c1.961-0.642,2.053-0.704,3.076-2.057C83.077,31.529,82.776,31.031,82.317,30.526z
				 M99.986,78.584c-2.271,1.222-3.259,3.501-2.541,5.886c1.084-0.69,2.113-0.216,3.073,0.273
				C102.054,82.403,101.867,80.277,99.986,78.584z M43.65,26.375c0.801,2.062,0.801,2.062,2.022,3.035
				c0.621,0.089,1.036-0.254,1.3-0.733c0.681-1.231,1.164-2.529,1.02-3.978c-0.081-0.812-0.272-1.56-1.154-1.968
				C45.13,23.39,44.371,24.83,43.65,26.375z M26.86,85.604c-1.791-0.903-2.498-0.86-3.283,0.11c-1.227,1.52-1.331,2.971-0.292,4.093
				c0.89,0.962,1.921,0.956,3.575-0.06C26.86,88.42,26.86,87.052,26.86,85.604z M86.937,22.09c-2.263,1.882-2.394,2.337-1.617,5.769
				c0.538,0.342,1.125,0.716,1.686,1.074C89.444,26.081,89.391,24.071,86.937,22.09z M84.349,26.446
				c-0.717-1.604-1.524-2.979-3.001-3.741c-0.849,0.309-1.091,0.905-1.291,1.661c0.268,0.535,0.308,1.196,0.299,1.855
				c-0.008,0.748,0.224,1.444,0.482,2.111c0.309,0.792,0.872,1.319,1.887,0.97c0.411-0.657,0.837-1.319,1.242-1.995
				C84.101,27.086,84.181,26.832,84.349,26.446z M40.823,28.785c1.601-0.655,2.385-1.735,2.314-3.188
				c-0.076-1.562-0.945-2.804-2.297-3.283C38.647,24.098,38.642,26.079,40.823,28.785z M61.681,35.466
				c0.171,0.487,0.262,1.031,0.535,1.459c0.419,0.657,0.9,1.331,1.834,1.293c0.918-0.036,1.345-0.729,1.784-1.383
				c0.105-0.156,0.123-0.371,0.185-0.558c0.433-1.336-0.119-2.625-1.315-3.07c-1.125-0.42-2.196,0.155-2.756,1.486
				C61.847,34.933,61.778,35.185,61.681,35.466z M30.118,27.727c2.975-0.879,4.127-2.974,3.224-5.688
				c-1.658-0.481-2.453,0.698-3.147,1.794C29.414,25.064,29.51,26.413,30.118,27.727z M97.401,27.73
				c1.386-0.854,0.69-2.079,0.882-3.014c-1.835-2.824-1.835-2.824-3.706-2.676c-0.542,0.747-0.635,1.542-0.254,2.397
				C94.954,25.855,95.768,27.099,97.401,27.73z M88.303,32.715c0.371,1.83,1.971,2.271,3.333,2.971
				c0.941-0.369,2.017-0.378,2.585-1.322C93.913,31.873,90.962,31.043,88.303,32.715z M77.049,92.7
				c-1.564-0.19-2.192,0.011-2.755,0.883c-0.491,0.763-0.384,2.055,0.327,2.956c0.63,0.799,1.348,1.501,2.48,0.87
				C78.242,95.119,78.232,94.399,77.049,92.7z M62.681,31.859c0.984-0.033,1.906,0.165,2.773-0.143
				c1.061-2.167,0.644-3.447-1.57-4.958C61.747,28.802,61.541,29.587,62.681,31.859z M51.172,97.59
				c1.211,0.255,1.896-0.503,2.421-1.457c0.463-0.842,0.621-1.756,0.036-2.607c-0.682-0.992-1.626-1.248-2.734-0.826
				C49.662,94.586,49.703,95.414,51.172,97.59z M111.567,81.026c0.606-1.015,1.021-2.092,0.299-3.162
				c-0.535-0.794-0.752-2.006-2.028-2.09c-1.515,2.438-1.526,4.107-0.089,5.838C110.463,81.764,111.001,81.362,111.567,81.026z
				 M39.863,32.7c-0.65-0.642-1.375-0.402-2.004-0.549c-2.542-0.59-3.001-0.324-4.03,2.149C36.118,36.199,38.463,35.604,39.863,32.7
				z M17.813,75.729c-1.341,1.52-1.789,2.231-1.947,3.006c-0.184,0.906,0.062,1.717,0.646,2.387
				c0.526,0.604,1.223,0.729,1.963,0.392C19.784,79.261,19.619,77.611,17.813,75.729z M22.562,48.387
				c-1.184-0.213-2.139-0.347-3.076-0.032c-1.312,1.752-1.395,2.038-1.177,4c1.138-0.228,2.351-0.146,3.447-0.885
				C21.993,50.561,22.24,49.616,22.562,48.387z M105.464,48.642c0.44,1.028,0.307,2.211,1.09,3.149
				c1.194-0.063,2.271,0.421,3.534,0.747c-0.197-0.797-0.36-1.474-0.531-2.148c-0.08-0.317-0.141-0.646-0.27-0.943
				c-0.439-1.014-1.254-1.521-2.336-1.35C106.521,48.164,106.021,48.124,105.464,48.642z M43.553,28.765
				c-1.314,0.175-2.08,0.862-2.391,2.072c-0.29,1.132-0.69,2.282,0.337,3.313c1.204-0.211,1.973-0.918,2.301-1.986
				C44.143,31.052,44.396,29.876,43.553,28.765z M86.5,33.817c1.176-0.965,0.753-2.029,0.426-3.006
				c-0.378-1.129-1.164-1.881-2.392-2.045C83.168,31.04,84.015,33.202,86.5,33.817z M29.566,90.562
				c1.077-0.818,0.806-2.015,1.233-2.91c-0.488-0.923-0.697-1.92-1.43-2.638C27.191,86.881,27.25,89.122,29.566,90.562z
				 M98.622,84.923c-0.747,0.986-1.124,1.965-1.49,2.956c0.433,0.893,0.305,2.009,1.239,2.618
				C100.63,89.426,100.777,87.118,98.622,84.923z M89.455,27.938c-1.105,1.016-1.105,1.016-1.707,2.622
				c0.141,0.597,0.518,0.98,1.124,0.814c0.989-0.27,2.082-0.263,3.036-0.988C91.989,28.601,90.546,28.444,89.455,27.938z
				 M35.983,30.382c1.327,0.717,2.548,1.006,3.848,0.952c0.325-1.899,0.049-2.462-1.647-3.431
				C37.248,28.433,36.328,29.004,35.983,30.382z M111.296,82.71c-1.294,1.175-2.273,3.216-2.375,4.998
				c-0.035,0.621,0.146,1.152,0.764,1.44C110.534,88.029,111.419,84.477,111.296,82.71z M111.823,66.198
				c-2.118,1.307-2.198,1.624-1.288,4.616c0.562-0.417,1.294-0.048,1.912-0.482C112.076,69.043,112.525,67.626,111.823,66.198z
				 M17.425,70.603c0.998-2.264,0.511-3.519-1.536-4.219c-0.216,1.34-0.024,2.696-0.516,4.095
				C16.202,70.527,16.777,70.562,17.425,70.603z M18.062,89.27c1.019-0.651,1.083-1.254,0.906-2.066
				c-0.517-2.366-1.139-3.617-2.496-4.474C16.773,84.973,17.277,87.041,18.062,89.27z M112.083,71.663
				c-0.674-0.203-1.074,0.085-1.498,0.225c-0.101,0.033-0.16,0.195-0.234,0.301c0.188,2.008,0.707,3.125,2.141,4.366
				C112.433,74.776,113.025,73.122,112.083,71.663z M15.953,76.341c0.698-1.397,1.767-2.614,1.71-4.329
				c-0.77-0.322-1.448-0.814-2.205,0.072C15.263,73.482,15.905,74.862,15.953,76.341z M35.181,17.515
				c-0.857,1.136-1.908,2.069-2.711,3.545c1.846-0.472,3.071-1.188,3.476-2.823C35.835,17.928,35.685,17.723,35.181,17.515z
				 M92.69,17.472c-0.661,2.077,0.116,3.01,2.798,3.396C94.587,19.639,93.741,18.527,92.69,17.472z M99.245,26.64
				c-0.13,1.457,0.17,2.576,0.979,3.505c0.267,0.307,0.736,0.636,1.287,0.058C100.953,29,100.352,27.795,99.245,26.64z
				 M28.704,26.719c-1.064,1.114-1.767,2.275-2.217,3.724C28.243,30.09,28.728,29.251,28.704,26.719z"/>
			<path fill-rule="evenodd" clip-rule="evenodd" d="M96.239,88.815c1.019,1.375,0.704,2.604,0.14,3.741
				c-0.586,1.182-1.297,2.312-2.048,3.398c-0.911,1.319-2.24,2.024-3.824,2.231c-1.082,0.141-1.623-0.371-1.517-1.451
				c0.28-2.838,1.646-4.996,4.136-6.394C94.102,89.795,95.135,89.353,96.239,88.815z"/>
			<path fill-rule="evenodd" clip-rule="evenodd" d="M31.796,88.926c5.555,2.181,7.673,5.051,6.831,9.217
				c-1.367,0.466-2.519-0.156-3.572-0.923c-2.068-1.506-2.988-3.809-3.954-6.048C30.742,90.336,31.287,89.675,31.796,88.926z"/>
			<path fill-rule="evenodd" clip-rule="evenodd" d="M51.209,98.658c0.712-0.067,1.367-0.131,1.966-0.188
				c2.241,1.664,2.4,2.143,1.686,4.722c-0.301,1.086-0.63,2.151-1.201,3.134c-0.442,0.76-0.966,1.402-1.775,1.69
				C49.157,106.352,48.897,102.876,51.209,98.658z"/>
			<path fill-rule="evenodd" clip-rule="evenodd" d="M76.727,98.683c2.232,3.729,2.139,6.663-0.259,9.243
				c-0.889,0.189-1.348-0.451-1.756-1.024c-1.128-1.592-1.787-3.379-1.895-5.335c-0.11-2.005,0.961-3.063,2.99-3.009
				C76.131,98.566,76.452,98.643,76.727,98.683z"/>
			<path fill-rule="evenodd" clip-rule="evenodd" d="M60.614,36.454c1.063,0.922,1.088,1.973,0.482,3.188
				c-1.066,2.142-3.012,3.051-5.115,3.718c-0.541,0.172-1.189,0.137-1.717-0.349c-0.462-0.651-0.331-1.349,0.021-2.018
				c0.429-0.816,0.919-1.601,1.363-2.41C56.747,36.584,58.36,35.8,60.614,36.454z"/>
			<path fill-rule="evenodd" clip-rule="evenodd" d="M88.868,85.739c0.861-2.219,2.358-3.08,4.581-2.629
				c0.451,0.093,0.905,0.185,1.343,0.323c1.34,0.426,1.772,0.994,1.889,2.21c0.124,1.287-0.379,2.107-1.552,2.669
				C92.636,89.508,90.242,88.556,88.868,85.739z"/>
			<path fill-rule="evenodd" clip-rule="evenodd" d="M39.18,85.734c-0.665,1.6-2.027,2.409-3.463,3.062
				c-0.655,0.298-1.423,0.184-2.107-0.183c-0.691-0.369-1.489-0.561-1.999-1.209c-0.33-0.479-0.295-1.02-0.293-1.542
				c0.004-1.309,0.467-2.029,1.667-2.35c0.947-0.254,1.951-0.53,2.907-0.467C37.432,83.148,38.626,83.938,39.18,85.734z"/>
			<path fill-rule="evenodd" clip-rule="evenodd" d="M66.366,38.222c0.119-0.341,0.188-0.593,0.295-0.828
				c0.134-0.296,0.3-0.579,0.428-0.822c2.663-0.668,3.737-0.298,5.104,1.795c0.539,0.826,1.003,1.703,1.476,2.57
				c0.364,0.666,0.476,1.364,0.021,2.254c-1.678,0.611-3.007-0.604-4.486-1.142C67.367,41.381,67.514,39.34,66.366,38.222z"/>
			<path fill-rule="evenodd" clip-rule="evenodd" d="M54.221,97.643c0.233-1.18,0.466-2.203,0.632-3.238
				c0.13-0.808,0.503-1.468,1.334-1.469c1.916-0.005,3.733,0.43,5.488,1.681c-0.877,2.085-2.318,3.475-4.161,4.413
				C56.292,99.653,55.262,99.132,54.221,97.643z"/>
			<path fill-rule="evenodd" clip-rule="evenodd" d="M62.495,39.146c0.986,0,2.036,0,3.098,0c2.164,2.793,1.647,5.279-1.463,6.95
				C60.914,44.857,60.22,42.05,62.495,39.146z"/>
			<path fill-rule="evenodd" clip-rule="evenodd" d="M72.307,93.019c1.033,1.484,1.225,3.087,1.256,4.679
				c-1.55,1.907-2.141,2.041-3.983,0.771c-1.361-0.938-2.595-2.021-3.118-3.658C67.608,93.566,67.686,93.543,72.307,93.019z"/>
			<path fill-rule="evenodd" clip-rule="evenodd" d="M42.947,34.858c0.358-0.387,0.66-0.734,0.986-1.056
				c0.132-0.131,0.319-0.207,0.472-0.301c2.958,2.153,4.591,4.294,5.13,6.713c-0.876,1.238-0.906,1.252-1.988,0.965
				C44.917,40.483,42.949,37.847,42.947,34.858z"/>
			<path fill-rule="evenodd" clip-rule="evenodd" d="M78.983,40.884c-0.412-0.448-0.584-0.923-0.344-1.587
				c0.73-2.017,3.016-4.65,4.984-5.649c1.651,1.363,1.83,2.05,0.907,3.836c-0.331,0.641-0.7,1.281-1.158,1.834
				C82.114,40.84,81.164,41.153,78.983,40.884z"/>
			<path fill-rule="evenodd" clip-rule="evenodd" d="M43.762,100.966c-0.403-1.422,0.221-2.528,1.131-3.562
				c1.001-1.139,2.056-2.113,3.772-1.577c1.627,1.722,1.725,3.247,0.312,5.064c-0.386,0.496-0.859,0.811-1.516,0.804
				C46.206,101.683,44.945,101.707,43.762,100.966z"/>
			<path fill-rule="evenodd" clip-rule="evenodd" d="M84.167,100.86c-1.147,0.997-2.573,0.894-3.93,0.753
				c-1.405-0.144-2.609-2.629-2.092-4.149c0.188-0.552,0.506-1.059,0.747-1.547C82.309,95.618,84.564,97.75,84.167,100.86z"/>
			<path fill-rule="evenodd" clip-rule="evenodd" d="M100.479,90.957c1.225,2.258,0.6,5.691-1.224,7.091
				c-0.946,0.729-2.14,0.556-2.709-0.479c-0.55-1.002-0.739-1.991-0.231-3.193C97.11,92.49,98.457,91.461,100.479,90.957z"/>
			<path fill-rule="evenodd" clip-rule="evenodd" d="M27.503,91.038c2.985,0.155,3.58,2.582,4.476,4.649
				c0.343,0.79-0.528,2.261-1.34,2.641c-0.825,0.386-1.723,0.139-2.417-0.771c-1.42-1.858-1.674-3.95-1.096-6.17
				C27.167,91.23,27.404,91.126,27.503,91.038z"/>
			<path fill-rule="evenodd" clip-rule="evenodd" d="M55.352,30.765c2.138-1.314,4.259-1.19,5.499,0.252
				c1.128,1.31,1.026,2.285-0.476,4.259c-1.25,0.277-2.483,0.229-3.442-0.813C56.01,33.459,54.882,32.505,55.352,30.765z"/>
			<path fill-rule="evenodd" clip-rule="evenodd" d="M72.709,30.956c-0.052,2.911-2.102,4.585-5.12,4.26
				c-1.74-2.251-1.467-4.258,0.803-5.071C69.936,29.593,71.497,29.639,72.709,30.956z"/>
			<path fill-rule="evenodd" clip-rule="evenodd" d="M49.968,92.049c-0.322,0.83-0.441,1.626-0.943,2.256
				c-3.474,0.57-5.892-1.854-5.075-5.074C46.555,88.445,48.566,89.36,49.968,92.049z"/>
			<path fill-rule="evenodd" clip-rule="evenodd" d="M79.094,94.625c-0.148-0.255-0.329-0.529-0.472-0.821
				c-0.202-0.414-0.378-0.843-0.538-1.209c0.763-2.75,2.581-3.807,6.176-3.526c0.281,1.93-0.793,3.372-1.854,4.753
				C81.599,94.872,80.422,95.048,79.094,94.625z"/>
			<path fill-rule="evenodd" clip-rule="evenodd" d="M54.771,92.338c-0.539-0.149-0.982-0.25-1.412-0.392
				c-0.868-0.289-1.73-0.6-2.563-0.891c-0.522-2.08,0.444-4.006,2.64-5.349C55.623,87.082,56.21,89.762,54.771,92.338z"/>
			<path fill-rule="evenodd" clip-rule="evenodd" d="M77.381,91c-1.035,0.358-1.964,0.69-2.9,1.002
				c-0.435,0.146-0.883,0.25-1.316,0.371c-1.226-2.984-0.784-5.266,1.256-6.619C76.285,86.588,77.34,88.396,77.381,91z"/>
			<path fill-rule="evenodd" clip-rule="evenodd" d="M88.236,34.653c1.543,1.342,1.848,2.965,1.686,4.77
				c-0.074,0.837-0.224,1.575-1.092,1.927c-1.941-0.584-3.452-2.792-3.188-4.646C85.811,35.517,86.361,35.07,88.236,34.653z"/>
			<path fill-rule="evenodd" clip-rule="evenodd" d="M39.329,41.395c-1.006-0.352-1.184-1.074-1.271-1.919
				c-0.206-1.976,0.274-3.675,1.86-5.045c0.625,0.311,1.269,0.631,1.85,0.92C42.704,38.453,41.567,40.649,39.329,41.395z"/>
			<path fill-rule="evenodd" clip-rule="evenodd" d="M44.899,32.439c-0.034-1.219,0.577-1.772,1.447-2.063
				c1.827-0.61,3.588-0.502,5.357,0.643c-0.411,2.254-2.201,2.697-3.994,3.226C46.687,33.788,45.658,33.375,44.899,32.439z"/>
			<path fill-rule="evenodd" clip-rule="evenodd" d="M100.737,89.532c0.352-1.349,0.348-2.66,0.448-3.901
				c1.766-0.992,2.477-0.936,3.31,0.21c1.224,1.684,1.256,2.963,0.102,4.074C103.675,90.802,102.232,90.7,100.737,89.532z"/>
			<path fill-rule="evenodd" clip-rule="evenodd" d="M27.977,78.657c2.49,0.993,3.339,2.838,2.557,5.705
				c-1.088-0.524-2.103-0.102-3.045,0.385c-1.487-1.027-0.887-2.463-0.905-3.711C26.57,80.017,26.935,79.091,27.977,78.657z"/>
			<path fill-rule="evenodd" clip-rule="evenodd" d="M82.317,30.526c0.459,0.505,0.76,1.003,0.817,1.615
				c-1.023,1.353-1.115,1.415-3.076,2.057c-1.473-0.644-2.858-1.493-4.051-2.981C78.002,29.734,80.041,29.717,82.317,30.526z"/>
			<path fill-rule="evenodd" clip-rule="evenodd" d="M99.986,78.584c1.881,1.693,2.067,3.819,0.532,6.159
				c-0.96-0.489-1.989-0.964-3.073-0.273C96.728,82.085,97.716,79.806,99.986,78.584z"/>
			<path fill-rule="evenodd" clip-rule="evenodd" d="M43.65,26.375c0.721-1.545,1.48-2.985,3.188-3.645
				c0.882,0.409,1.073,1.156,1.154,1.968c0.144,1.449-0.338,2.747-1.02,3.978c-0.265,0.479-0.679,0.823-1.3,0.733
				C44.451,28.438,44.451,28.438,43.65,26.375z"/>
			<path fill-rule="evenodd" clip-rule="evenodd" d="M26.86,85.604c0,1.447,0,2.815,0,4.144c-1.654,1.016-2.686,1.021-3.575,0.06
				c-1.039-1.122-0.935-2.573,0.292-4.093C24.362,84.744,25.069,84.701,26.86,85.604z"/>
			<path fill-rule="evenodd" clip-rule="evenodd" d="M86.937,22.09c2.454,1.981,2.508,3.99,0.068,6.842
				c-0.561-0.357-1.147-0.732-1.686-1.074C84.543,24.428,84.674,23.972,86.937,22.09z"/>
			<path fill-rule="evenodd" clip-rule="evenodd" d="M84.349,26.446c-0.168,0.386-0.248,0.64-0.382,0.862
				c-0.405,0.675-0.831,1.338-1.242,1.995c-1.015,0.349-1.578-0.177-1.887-0.97c-0.259-0.667-0.49-1.363-0.482-2.111
				c0.009-0.659-0.031-1.321-0.299-1.855c0.2-0.756,0.442-1.352,1.291-1.661C82.824,23.467,83.632,24.842,84.349,26.446z"/>
			<path fill-rule="evenodd" clip-rule="evenodd" d="M40.823,28.785c-2.181-2.706-2.176-4.687,0.017-6.471
				c1.352,0.479,2.221,1.72,2.297,3.283C43.208,27.05,42.423,28.13,40.823,28.785z"/>
			<path fill-rule="evenodd" clip-rule="evenodd" d="M30.118,27.727c-0.608-1.314-0.705-2.663,0.077-3.894
				c0.695-1.096,1.489-2.276,3.147-1.794C34.246,24.753,33.093,26.848,30.118,27.727z"/>
			<path fill-rule="evenodd" clip-rule="evenodd" d="M97.401,27.73c-1.634-0.632-2.447-1.875-3.078-3.293
				c-0.381-0.856-0.288-1.651,0.254-2.397c1.871-0.148,1.871-0.148,3.706,2.676C98.092,25.652,98.787,26.876,97.401,27.73z"/>
			<path fill-rule="evenodd" clip-rule="evenodd" d="M88.303,32.715c2.659-1.672,5.61-0.842,5.918,1.649
				c-0.568,0.944-1.644,0.953-2.585,1.322C90.273,34.985,88.674,34.544,88.303,32.715z"/>
			<path fill-rule="evenodd" clip-rule="evenodd" d="M62.681,31.859c-1.14-2.272-0.934-3.058,1.204-5.101
				c2.213,1.511,2.63,2.792,1.57,4.958C64.587,32.024,63.665,31.827,62.681,31.859z"/>
			<path fill-rule="evenodd" clip-rule="evenodd" d="M111.567,81.026c-0.566,0.336-1.104,0.737-1.818,0.586
				c-1.438-1.73-1.426-3.399,0.089-5.838c1.276,0.084,1.493,1.296,2.028,2.09C112.588,78.935,112.174,80.012,111.567,81.026z"/>
			<path fill-rule="evenodd" clip-rule="evenodd" d="M39.863,32.7c-1.4,2.905-3.746,3.5-6.035,1.6
				c1.029-2.473,1.488-2.739,4.03-2.149C38.488,32.297,39.213,32.058,39.863,32.7z"/>
			<path fill-rule="evenodd" clip-rule="evenodd" d="M17.813,75.729c1.806,1.883,1.97,3.532,0.663,5.784
				c-0.74,0.338-1.437,0.212-1.963-0.392c-0.584-0.67-0.83-1.48-0.646-2.387C16.024,77.96,16.473,77.248,17.813,75.729z"/>
			<path fill-rule="evenodd" clip-rule="evenodd" d="M89.455,27.938c1.091,0.506,2.534,0.663,2.453,2.449
				c-0.954,0.725-2.047,0.718-3.036,0.988c-0.606,0.166-0.983-0.218-1.124-0.814C88.35,28.954,88.35,28.954,89.455,27.938z"/>
			<path fill-rule="evenodd" clip-rule="evenodd" d="M35.983,30.382c0.345-1.377,1.265-1.949,2.201-2.479
				c1.696,0.969,1.972,1.532,1.647,3.431C38.531,31.388,37.31,31.099,35.983,30.382z"/>
			<path fill-rule="evenodd" clip-rule="evenodd" d="M111.296,82.71c0.123,1.767-0.762,5.319-1.611,6.438
				c-0.618-0.288-0.799-0.819-0.764-1.44C109.022,85.926,110.002,83.885,111.296,82.71z"/>
			<path fill-rule="evenodd" clip-rule="evenodd" d="M18.062,89.27c-0.784-2.229-1.289-4.297-1.589-6.54
				c1.357,0.856,1.979,2.107,2.496,4.474C19.145,88.016,19.08,88.618,18.062,89.27z"/>
			<path fill-rule="evenodd" clip-rule="evenodd" d="M112.083,71.663c0.942,1.459,0.35,3.113,0.408,4.892
				c-1.434-1.241-1.952-2.358-2.143-4.367c0.076-0.104,0.136-0.267,0.236-0.3C111.009,71.748,111.409,71.46,112.083,71.663z"/>
			<path fill-rule="evenodd" clip-rule="evenodd" d="M15.953,76.341c-0.047-1.479-0.69-2.858-0.495-4.257
				c0.757-0.887,1.435-0.395,2.205-0.072C17.72,73.727,16.651,74.943,15.953,76.341z"/>
			<path fill-rule="evenodd" clip-rule="evenodd" d="M35.181,17.515c0.504,0.208,0.654,0.413,0.764,0.723
				c-0.404,1.635-1.629,2.351-3.476,2.823C33.273,19.584,34.324,18.651,35.181,17.515z"/>
			<path fill-rule="evenodd" clip-rule="evenodd" d="M92.69,17.472c1.051,1.056,1.896,2.167,2.798,3.396
				C92.807,20.482,92.029,19.548,92.69,17.472z"/>
			<path fill-rule="evenodd" clip-rule="evenodd" d="M99.245,26.64c1.106,1.156,1.708,2.361,2.266,3.563
				c-0.551,0.578-1.021,0.249-1.287-0.058C99.415,29.216,99.115,28.096,99.245,26.64z"/>
			<path fill-rule="evenodd" clip-rule="evenodd" d="M28.704,26.719c0.024,2.533-0.46,3.372-2.217,3.724
				C26.937,28.994,27.64,27.833,28.704,26.719z"/>
		</g>
	</g>
	<path fill-rule="evenodd" clip-rule="evenodd" d="M16.222,64.827c-0.325-1.982,0.342-3.711,0.453-5.49
		c0.07-1.111,0.409-2.206,0.619-3.309c0.456-2.394,1.274-3.033,3.817-2.938c1.184,0.741,1.636,2.007,2.137,3.231
		c0.781,1.911,1.592,3.789,3.15,5.242c1.325,1.238,2.23,1.427,3.952,0.688c0.852-0.367,1.699-0.745,2.563-1.078
		c0.554-0.214,1.136-0.353,1.637-0.505c1.472,0.191,2.28,1.159,3.016,2.202c0.993,1.41,1.955,2.84,2.941,4.255
		c1.592,2.282,3.773,3.116,6.567,1.563c1.102-0.613,2.245-1.149,3.358-1.743c1.825-0.972,3.563-0.767,5.25,0.337
		c1.004,0.657,1.947,1.392,2.755,2.28c2.784,3.059,8.411,2.907,11.129,0.008c0.726-0.773,1.514-1.476,2.404-2.077
		c2.152-1.452,4.302-1.532,6.508-0.167c1.187,0.734,2.421,1.368,3.745,1.828c1.753,0.609,3.247,0.281,4.519-1.097
		c1.134-1.229,1.941-2.685,2.895-4.04c0.61-0.866,1.125-1.808,1.951-2.507c0.74-0.627,1.498-0.953,2.547-0.655
		c1.094,0.311,2.135,0.688,3.143,1.207c2.298,1.183,3.976,0.629,5.348-1.601c1.015-1.649,1.692-3.451,2.554-5.168
		c0.236-0.471,0.494-0.938,0.8-1.368c0.666-0.937,1.634-1.093,2.667-0.852c0.97,0.226,1.747,0.815,1.908,1.821
		c0.514,3.194,1.185,6.371,1.346,9.74c-1.607,1.648-3.449,3.04-5.343,4.366c-7.325,5.133-15.396,8.562-24.177,10.182
		c-4.481,0.827-9,1.49-13.568,1.812c-2.051,0.145-4.097,0.354-6.145,0.248c-9.081-0.468-18.059-1.521-26.675-4.69
		c-5.765-2.121-11.176-4.883-16.088-8.577C18.585,66.984,17.389,65.832,16.222,64.827z"/>
	<path fill-rule="evenodd" clip-rule="evenodd" d="M104.557,35.591c1.593,3.672,2.824,7.414,4.248,11.261
		c-1.023,0.185-1.851,0.4-2.689,0.472c-2.176,0.187-3.709,1.318-4.775,3.146c-0.703,1.205-1.264,2.48-1.693,3.812
		c-0.222,0.685-0.371,1.432-1.25,1.846c-0.598,0.172-1.312,0.071-2.027-0.111c-0.962-0.244-1.952-0.403-2.881-0.738
		c-1.949-0.7-3.489-0.011-4.914,1.253c-0.854,0.757-1.488,1.691-2.138,2.613c-0.61,0.867-1.185,1.763-1.84,2.595
		c-1.102,1.399-1.995,1.622-3.636,0.891c-1.15-0.511-2.293-1.059-3.382-1.689c-1.829-1.057-3.653-1.005-5.528-0.185
		c-1.223,0.534-2.365,1.216-3.412,2.033c-3.267,2.549-6.477,2.148-9.133,0.12c-1.275-0.974-2.757-1.591-4.2-2.259
		c-1.531-0.708-3.056-0.716-4.577,0.148c-1.153,0.654-2.355,1.224-3.561,1.78c-1.678,0.773-2.506,0.629-3.669-0.763
		c-0.891-1.065-1.685-2.218-2.458-3.375c-0.485-0.727-1.031-1.391-1.675-1.963c-1.305-1.162-2.774-1.733-4.571-1.291
		c-1.026,0.253-2.079,0.396-3.077,0.772c-0.699,0.263-1.417,0.317-2.144,0.172c-0.585-0.288-0.87-0.774-1.09-1.36
		c-0.419-1.115-0.872-2.222-1.373-3.302c-1.295-2.797-3.247-4.656-7.791-4.333c0.131-2.038,1.161-3.774,1.824-5.591
		c0.675-1.848,1.158-3.791,2.184-5.632c11.984,9.397,25.582,14.22,40.653,14.339C79.133,50.37,95.924,43.88,104.557,35.591z"/>
	<path fill-rule="evenodd" clip-rule="evenodd" d="M21.108,97.845c4.045,3.354,8.404,6.091,13.088,8.331
		c4.637,2.216,9.513,3.652,14.52,4.706c3.246,0.684,6.535,0.961,9.83,1.307c3.856,0.403,7.711,0.508,11.532,0.187
		c5.876-0.494,11.654-1.666,17.26-3.589c6.85-2.349,13.034-5.899,18.772-10.272c0.156-0.118,0.325-0.22,0.511-0.345
		c-3.866,12.553-19.93,26.712-38.621,28.152C44.68,128.116,26.022,112.449,21.108,97.845z"/>
	<path fill-rule="evenodd" clip-rule="evenodd" d="M38.077,14.558c2.725-3.08,5.716-5.557,9.093-7.589
		c4.017-2.419,8.312-4.145,12.946-4.814C64.013,1.59,67.91,1.821,71.72,2.999c5.994,1.853,11.273,4.934,15.869,9.184
		c0.765,0.707,1.791,1.156,2.324,2.228c-0.741,0.985-1.833,1.5-2.844,2.083c-4.994,2.886-10.391,4.583-16.089,5.399
		c-1.832,0.261-3.647,0.638-5.5,0.721c-3.334,0.151-6.59-0.398-9.837-1.073c-3.892-0.809-7.76-1.677-11.428-3.267
		C42.023,17.323,40.022,16.084,38.077,14.558z"/>
</g>
</svg>
