<?xml version="1.0" encoding="utf-8"?>
<!-- Generator: Adobe Illustrator 16.0.4, SVG Export Plug-In . SVG Version: 6.00 Build 0)  -->
<!DOCTYPE svg PUBLIC "-//W3C//DTD SVG 1.1//EN" "http://www.w3.org/Graphics/SVG/1.1/DTD/svg11.dtd">
<svg version="1.1" id="Layer_3208" xmlns="http://www.w3.org/2000/svg" xmlns:xlink="http://www.w3.org/1999/xlink" x="0px" y="0px"
	 width="128px" height="128px" viewBox="0 0 128 128" enable-background="new 0 0 128 128" xml:space="preserve">
<g>
	<g id="NN1VvW.tif">
		<g>
			<path fill-rule="evenodd" clip-rule="evenodd" d="M14.193,1.396c-0.043,0.102-0.087,0.204-0.13,0.305
				c0.058-0.087,0.117-0.174,0.176-0.262L14.193,1.396z"/>
			<path fill-rule="evenodd" clip-rule="evenodd" d="M56.143,106.773c-0.389-10.711,3.478-20.855,10.351-30.024
				c2.055-2.739,3.822-5.688,5.793-8.491c2.354-3.35,3.559-7.096,3.732-11.122c0.178-4.11,0.059-8.232,0.123-12.348
				c0.025-1.579-0.615-1.846-2.01-1.392c-2.207,0.718-4.496,1.196-6.67,1.995c-1.865,0.685-3.483,0.744-4.86-0.834
				c-1.156-1.324-1.044-3.019,0.451-5.266c3.405-5.118,6.883-10.188,10.303-15.296c3.424-5.113,6.811-10.249,10.217-15.373
				c0.229-0.343,0.455-0.688,0.715-1.005c0.789-0.956,1.383-1.014,2.166,0.157c3.119,4.669,6.348,9.268,9.516,13.905
				c3.619,5.297,7.205,10.619,10.836,15.909c1.037,1.51,1.766,3.053,1.613,4.962c-0.203,2.517-1.631,3.688-4.113,3.045
				c-2.641-0.685-5.221-1.603-7.861-2.288c-2.15-0.558-2.248-0.466-2.309,1.86c-0.074,2.743-0.105,5.493-0.008,8.235
				c0.365,10.442-3.172,19.578-9.111,27.972c-2.605,3.684-5.154,7.416-7.516,11.259c-2.666,4.339-3.242,9.229-3.182,14.229
				c0.031,2.471-0.035,4.941,0.008,7.412c0.033,1.791-0.494,2.843-2.559,2.805c-4.391-0.082-8.785-0.06-13.177-0.01
				c-1.722,0.019-2.517-0.65-2.466-2.422C56.194,112.316,56.143,109.98,56.143,106.773z"/>
			<path fill-rule="evenodd" clip-rule="evenodd" d="M40.448,17.722c4.801,0,9.603-0.038,14.404,0.014
				c3.109,0.034,3.257,0.097,3.16,3.305c-0.138,4.501-0.524,8.996-0.801,13.494c-0.043,0.683-0.106,1.368-0.098,2.052
				c0.131,9.605-2.457,18.676-5.803,27.513c-0.972,2.564-2.79,5.282-4.994,6.814c-5.739,3.986-11.954,2.801-15.49-4.678
				c-3.331-7.043-5.383-14.578-6.031-22.436c-0.662-8.024-1.453-16.039-2.248-24.051c-0.186-1.87,0.927-2.017,2.263-2.019
				c5.213-0.006,10.426-0.003,15.638-0.003C40.448,17.726,40.448,17.724,40.448,17.722z"/>
		</g>
	</g>
	<path d="M107.1,128.5h-84.21c-3.697,0-7.389-4.088-7.389-6.967V5.73c0-2.666,3.548-5.23,7.389-5.23h84.21
		c3.426,0,6.4,2.18,6.4,5.23v115.803C113.5,124.524,110.693,128.5,107.1,128.5z M22.889,4.5c-1.568,0-3.389,0.85-3.389,1.255
		v115.778c0,0.242,1.745,2.967,3.389,2.967h84.21c1.656,0,2.4-2.71,2.4-3.169V5.876c0-0.569-0.793-1.376-2.4-1.376H22.889z"/>
</g>
</svg>
