<?xml version="1.0" encoding="utf-8"?>
<!-- Generator: Adobe Illustrator 16.0.4, SVG Export Plug-In . SVG Version: 6.00 Build 0)  -->
<!DOCTYPE svg PUBLIC "-//W3C//DTD SVG 1.1//EN" "http://www.w3.org/Graphics/SVG/1.1/DTD/svg11.dtd">
<svg version="1.1" id="Layer_3210" xmlns="http://www.w3.org/2000/svg" xmlns:xlink="http://www.w3.org/1999/xlink" x="0px" y="0px"
	 width="128px" height="128px" viewBox="0 0 128 128" enable-background="new 0 0 128 128" xml:space="preserve">
<g>
	<path d="M89.088,103.153c0.005-21.835,0.009-20.786,0.005-42.622c-0.002-9.936-0.06-19.872-0.016-29.808
		c0.014-3.035-1.135-5.337-3.517-7.177c-3.801-2.935-7.523-5.973-11.303-8.938c-0.825-0.647-1.266-1.291-1.219-2.452
		c0.14-3.379,0.1-6.766,0.113-10.149c0.002-0.375-0.071-0.756-0.145-1.128c-0.124-0.624-0.505-0.842-1.157-0.893
		c-2.757-0.215-5.52-0.016-8.275-0.055c-2.583-0.038-5.186-0.057-7.78,0.018c-1.557,0.045-1.964,0.389-1.961,1.917
		c0.008,3.602-0.012,7.207,0.091,10.807c0.025,0.889-0.256,1.411-0.884,1.933c-3.444,2.859-6.804,5.824-10.32,8.588
		c-2.672,2.1-3.825,4.692-3.816,8.066c0.054,19.381,0.027,38.761,0.027,58.143c0,19.435,0.056,11.768-0.043,31.203
		c-0.022,4.232,2.336,7.584,7.394,7.506c11.898-0.181,23.804-0.159,35.703-0.007c4.729,0.061,7.211-3.293,7.124-7.067
		C88.94,113.674,89.086,110.522,89.088,103.153z M44.339,32.595c13.149-0.027,26.3-0.027,39.449-0.011
		c0.551,0.001,1.561-0.282,1.561,0.355c0,0.866-1.25,0.494-1.813,0.497c-6.602,0.031-14.035,0.02-20.035,0.02
		c0-0.002,0-0.003,0-0.005c-7,0-12.865,0.007-19.413-0.014c-0.556-0.002-1.458,0.253-1.451-0.366
		C42.646,32.212,43.779,32.596,44.339,32.595z M85.322,36.229c0.032,0.531-1.021,0.767-1.575,0.77
		C77.15,37.021,70.551,37.5,63.954,37.5c-6.325,0-12.65,0-18.975,0c-0.382,0-0.77-0.445-1.143-0.5
		c-0.378-0.056-1.036-0.034-1.029-0.647c0.004-0.415,0.621-0.385,0.977-0.421c0.27-0.027,0.544-0.069,0.817-0.069
		c13.032,0,26.064-0.036,39.097-0.009C84.266,35.854,85.271,35.429,85.322,36.229z M83.778,119.438
		c-13.153,0.024-26.306,0.023-39.459,0.004c-0.553,0-1.562,0.276-1.565-0.35c-0.004-0.886,0.698-0.496,1.255-0.499
		c6.604-0.033,12.491-0.021,19.491-0.021c0-0.001,0-0.004,0-0.006c6,0,13.418-0.007,19.967,0.014
		c0.56,0.001,1.736-0.243,1.732,0.368C85.194,119.819,84.339,119.437,83.778,119.438z M84.5,100.5h-44v-53h44V100.5z"/>
</g>
</svg>
