<?xml version="1.0" encoding="utf-8"?>
<!-- Generator: Adobe Illustrator 16.0.4, SVG Export Plug-In . SVG Version: 6.00 Build 0)  -->
<!DOCTYPE svg PUBLIC "-//W3C//DTD SVG 1.1//EN" "http://www.w3.org/Graphics/SVG/1.1/DTD/svg11.dtd">
<svg version="1.1" id="Layer_3213" xmlns="http://www.w3.org/2000/svg" xmlns:xlink="http://www.w3.org/1999/xlink" x="0px" y="0px"
	 width="128px" height="128px" viewBox="0 0 128 128" enable-background="new 0 0 128 128" xml:space="preserve">
<g id="iImRLD.tif">
	<g>
		<path d="M52.679,2.527c1.59,0,3.18,0,4.771,0c0.088,0.043,0.185,0.042,0.279,0.045c1.484,0.04,2.96,0.169,4.436,0.318
			c1.707,0.172,3.404,0.418,5.09,0.727c2.613,0.48,5.194,1.097,7.739,1.862c5.055,1.522,9.892,3.558,14.515,6.105
			c5.721,3.151,10.939,6.984,15.674,11.479c2.857,2.712,5.479,5.638,7.887,8.754c3.721,4.811,6.938,9.929,9.438,15.482
			c2.738,6.083,4.531,12.414,4.999,19.094c0.029,0.42,0.007,0.846,0.099,1.262c0,1.336,0,2.672,0,4.008
			c-0.016,0.093-0.042,0.186-0.045,0.279c-0.062,1.516-0.225,3.02-0.458,4.518c-0.124,0.795-0.215,1.6-0.469,2.364
			c-0.691,2.079-2.026,3.646-3.901,4.758c-0.897,0.532-1.875,0.839-2.922,0.868c-1.418,0.039-2.656-0.457-3.756-1.324
			c-1.212-0.956-2.095-2.182-2.82-3.525c-0.738-1.371-1.476-2.742-2.32-4.052c-0.88-1.366-1.822-2.683-2.994-3.819
			c-0.643-0.623-1.34-1.175-2.189-1.496c-1.032-0.391-1.976-0.239-2.809,0.5c-0.643,0.57-1.049,1.299-1.379,2.074
			c-0.525,1.238-0.801,2.541-0.953,3.871c-0.124,1.087-0.146,2.174,0.03,3.262c0.229,1.425,0.593,2.816,1.013,4.193
			c0.931,3.06,2.071,6.045,3.183,9.042c0.941,2.54,1.907,5.071,2.674,7.672c0.291,0.985,0.568,1.979,0.651,3.006
			c0.151,1.88,0.025,3.747-0.369,5.593c-0.908,4.243-3.235,7.491-6.896,9.799c-1.286,0.811-2.668,1.424-4.07,2
			c-2.549,1.049-5.16,1.91-7.836,2.566c-2.077,0.51-4.176,0.91-6.299,1.178c-1.662,0.211-3.326,0.372-5,0.436
			c-0.105,0.004-0.213-0.005-0.312,0.047c-1.548,0-3.095,0-4.644,0c-0.089-0.039-0.186-0.04-0.281-0.043
			c-1.98-0.064-3.951-0.254-5.916-0.513c-2.078-0.273-4.141-0.646-6.184-1.113c-2.725-0.626-5.405-1.402-8.043-2.33
			c-3.792-1.333-7.464-2.94-11.019-4.813c-4.526-2.386-8.814-5.147-12.879-8.256c-3.481-2.663-6.764-5.554-9.865-8.65
			c-3.901-3.895-7.208-8.242-9.929-13.033c-3.165-5.572-5.415-11.496-6.779-17.758c-0.677-3.109-1.116-6.25-1.317-9.426
			c-0.033-0.516-0.017-1.035-0.104-1.548c0-1.526,0-3.053,0-4.579c0.016-0.113,0.042-0.227,0.045-0.341
			c0.021-0.954,0.106-1.903,0.188-2.853c0.178-2.08,0.481-4.141,0.891-6.188c1.144-5.713,3.113-11.117,6.035-16.163
			c3.26-5.631,7.472-10.424,12.707-14.295c6.821-5.042,14.44-8.269,22.746-9.907c1.537-0.303,3.084-0.54,4.642-0.717
			c1.179-0.134,2.358-0.24,3.542-0.32C51.688,2.593,52.188,2.625,52.679,2.527z M39.491,96.822
			c5.948-0.023,10.786-4.824,10.767-10.854c-0.02-5.901-4.843-10.691-10.794-10.688c-5.972,0.005-10.755,4.821-10.752,10.826
			C28.715,91.99,33.579,96.826,39.491,96.822z M75.979,41.19c5.972,0.001,10.776-4.813,10.781-10.802
			c0.004-5.888-4.834-10.736-10.717-10.741c-6.023-0.004-10.824,4.794-10.826,10.82C65.215,36.365,70.057,41.189,75.979,41.19z
			 M42.05,40.47c6.041-0.041,10.792-4.928,10.758-10.862c-0.033-5.802-4.786-10.704-10.799-10.683
			c-5.964,0.021-10.775,4.836-10.744,10.835C31.294,35.553,35.928,40.421,42.05,40.47z M34.379,58.496
			c0.025-5.88-4.776-10.694-10.658-10.759c-5.807-0.063-10.861,4.61-10.878,10.766c-0.015,5.735,4.559,10.711,10.676,10.776
			C29.523,69.344,34.353,64.52,34.379,58.496z"/>
	</g>
</g>
</svg>
