<?xml version="1.0" encoding="utf-8"?>
<!-- Generator: Adobe Illustrator 16.0.4, SVG Export Plug-In . SVG Version: 6.00 Build 0)  -->
<!DOCTYPE svg PUBLIC "-//W3C//DTD SVG 1.1//EN" "http://www.w3.org/Graphics/SVG/1.1/DTD/svg11.dtd">
<svg version="1.1" id="Layer_3302" xmlns="http://www.w3.org/2000/svg" xmlns:xlink="http://www.w3.org/1999/xlink" x="0px" y="0px"
	 width="128px" height="128px" viewBox="0 0 128 128" enable-background="new 0 0 128 128" xml:space="preserve">
<g>
	<path d="M68.166,38.823c0.013-0.21-0.062-0.362-0.211-0.438C68.104,38.461,68.178,38.613,68.166,38.823
		c-0.062,0.297-0.195,0.562-0.368,0.807C67.971,39.386,68.104,39.12,68.166,38.823z"/>
	<polygon points="24.879,102.802 24.888,102.81 24.887,102.803 	"/>
	<polygon points="62.317,84.302 62.318,84.296 62.313,84.299 	"/>
	<path d="M77.631,57.032L77.631,57.032c-0.131-0.095-0.178-0.229-0.184-0.381C77.453,56.804,77.5,56.938,77.631,57.032z"/>
	<path d="M116.421,49.469c0.011,0.174-0.013,0.337-0.056,0.493C116.408,49.806,116.432,49.644,116.421,49.469
		C116.421,49.469,116.421,49.469,116.421,49.469z"/>
	<path d="M117.513,45.318c1.338-1.858,2.846-3.583,4.252-5.386c2.227-2.854,4.408-5.736,5.234-9.373c0-0.664,0-1.327,0-1.991
		c-0.187-0.133-0.154-0.354-0.215-0.537c-1.031-3.119-4.132-3.866-6.494-1.565c-0.722,0.703-1.26,1.531-1.703,2.429
		c-0.062,0.127-0.082,0.333-0.284,0.31c-0.032-0.004-0.033-0.245-0.053-0.375c-0.296-2.01-0.729-3.982-1.808-5.74
		c-1.307-2.129-3.176-3.381-5.723-3.35c-3.668,0.044-6.675,1.331-8.369,4.818c-0.693,1.424-0.927,2.961-0.92,4.54
		c0.002,0.249,0.135,0.596-0.154,0.721c-0.205,0.089-0.392-0.191-0.58-0.314c-2.537-1.641-4.949-0.774-5.795,2.095
		c-0.553,1.872-0.68,3.773-0.354,5.703c0.018,0.103,0.269,0.5-0.142,0.324c-0.681-0.292-1.147,0.063-1.649,0.372
		c-0.74,0.455-0.73,0.459-0.984-0.348c-0.694-2.212-1.71-4.239-3.435-5.845c-1.32-1.229-2.489-1.372-4.071-0.502
		c-1.059,0.583-1.943,1.379-2.754,2.263c-0.966,1.052-1.837,2.181-2.631,3.366c-0.264,0.393-0.458,0.476-0.833,0.119
		c-0.431-0.41-0.917-0.761-1.474-1c-1.176-0.506-2.072-0.215-2.666,0.91c-0.422,0.801-0.588,1.677-0.693,2.573
		c-0.422,3.605,0.01,7.148,0.871,10.64c0.982,3.98,2.625,7.644,5.591,10.584c0.438,0.436,0.357,0.898,0.286,1.378
		c-0.299,1.997-0.635,3.989-0.921,5.989c-0.065,0.451-0.226,0.804-0.524,1.137c-3.584,4.007-7.298,7.884-11.363,11.408
		c-1.524,1.321-3.059,2.639-4.837,3.625c0,0.002,0,0.004-0.001,0.006l-0.004-0.003c0.001-0.001,0.003-0.002,0.005-0.003
		c0.317-2.123,0.724-4.23,0.903-6.379c0.27-3.207-0.627-6.083-2.182-8.812c-0.388-0.679-0.98-1.135-1.706-1.459
		c-3.011-1.341-5.926-1.145-8.753,0.506c-2.342,1.368-4.089,3.348-5.616,5.543c-0.644,0.927-1.202,1.904-1.741,2.894
		c-0.061,0.112-0.104,0.294-0.241,0.28c-0.249-0.021-0.129-0.256-0.15-0.392c-0.205-1.309-0.414-2.616-0.74-3.901
		c-0.202-0.793-0.197-1.519,0.245-2.262c0.422-0.708,0.726-1.487,1.066-2.242c1.881-4.162,3.655-8.371,5.386-12.598
		c0.191-0.469,0.45-0.756,0.928-0.926c1.288-0.455,2.447-1.173,3.584-1.915c4.425-2.891,8.481-6.249,12.369-9.816
		c1.096-1.005,2.241-1.977,2.993-3.302c0.077-0.138,0.22-0.248,0.352-0.344c1.702-1.249,2.858-2.929,3.784-4.789
		c2-4.021,2.92-8.356,3.665-12.738c0.633-3.724,0.976-7.484,1.352-11.24c0.121-1.215,0.362-2.422,0.271-3.661
		c-0.189-2.616-2.034-4.072-4.619-3.607c-0.164,0.029-0.326,0.067-0.484,0.112c-0.41,0.116-0.719,0.064-1.043-0.296
		c-0.674-0.747-1.559-1.218-2.459-1.654c-0.896-0.435-1.867-0.648-2.794-0.993c-0.862,0-1.726,0-2.588,0
		c-0.188,0.167-0.435,0.137-0.657,0.192c-1.996,0.497-3.895,1.204-5.088,3.008c-0.412,0.622-0.624,0.506-1.098,0.126
		c-1.334-1.067-2.824-1.127-4.227-0.156c-1.813,1.255-3.039,2.944-3.479,5.135c-0.424,2.109-0.288,4.22,0.103,6.319
		c0.828,4.438,2.52,8.563,4.613,12.534c2.455,4.653,5.302,9.034,9.161,12.671c0.466,0.438,0.299,0.648-0.051,1.006
		c-3.191,3.267-6.753,6.063-10.63,8.466c-1.41,0.873-2.861,1.683-4.447,2.189c-1.789,0.572-1.498,0.703-2.235-0.966
		c-1.261-2.851-2.118-5.847-3.042-8.817c-0.146-0.472-0.254-0.961-0.534-1.385c-0.517-0.78-1.354-1.131-2.236-0.927
		c-0.844,0.195-1.433,0.935-1.505,1.88c-0.047,0.609,0.072,1.191,0.311,1.745c0.511,1.187,1.021,2.372,1.563,3.544
		c1.128,2.432,2.308,4.839,3.274,7.345c0.434,1.122,0.405,2.153-0.104,3.247c-1.188,2.555-2.613,4.986-3.865,7.508
		c-0.173,0.348-0.344,0.402-0.669,0.14c-1.054-0.849-2.296-1.284-3.592-1.617c-3.438-0.884-6.391-0.21-8.851,2.485
		c-2.123,2.326-3.952,4.85-5.079,7.778c-0.503,1.308-1.096,1.79-2.498,1.795c-1.779,0.007-3.393,0.708-4.4,2.295
		c-1.378,2.169-1.905,4.552-1.617,7.12c0.285,2.549,1.197,4.873,2.432,7.091c0.462,0.83,0.463,0.845-0.385,1.087
		c-4.711,1.348-9.454,2.566-14.266,3.5c0,0.199,0,0.398,0,0.598c0,1.725,0,3.449,0,5.175c0,0.134,0,0.266,0,0.398
		c0.591,0.273,1.173,0.032,1.743-0.069c0.845-0.15,1.683-0.359,2.508-0.596c0.498-0.143,0.712-0.091,0.752,0.496
		c0.243,3.605,1.86,6.4,4.883,8.434c1.174,0.791,2.233,1.773,3.263,2.754c1.533,1.459,3.349,1.604,5.281,1.292
		c0.658-0.106,1.274-0.392,1.725-0.917c0.506-0.59,1.15-0.707,1.881-0.673c0.667,0.032,1.317,0.161,1.957,0.321
		c2.526,0.638,5.079,0.932,7.677,0.617c0.542-0.065,0.457,0.162,0.319,0.486c-0.727,1.709-1.236,3.49-1.778,5.262
		c-0.134,0.439-0.25,0.791-0.872,0.599c-0.422-0.13-0.725,0.2-0.695,0.62c0.134,1.905-0.216,3.757-0.549,5.612
		c-0.038,0.212,0.001,0.419,0.247,0.464c0.33,0.061,0.381-0.209,0.41-0.435c0.184-1.472,0.721-2.899,0.551-4.416
		c-0.025-0.229-0.015-0.463-0.016-0.695c-0.001-0.28,0.079-0.452,0.411-0.318c0.642,0.257,0.82-0.194,0.969-0.659
		c0.444-1.387,0.875-2.776,1.326-4.161c0.164-0.503,0.364-0.994,0.553-1.488c0.129-0.339,0.354-0.412,0.709-0.315
		c0.712,0.197,0.734,0.221,0.367,0.898c-1.838,3.381-3.013,6.975-3.445,10.805c-0.037,0.328-0.111,0.656,0.08,0.964
		c0.133,0,0.265,0,0.398,0c0.8-0.047,0.962-0.594,1.017-1.257c0.041-0.494,0.14-0.983,0.208-1.476
		c0.465-3.399,1.823-6.411,3.932-9.103c0.299-0.382,0.623-0.609,1.127-0.711c1.098-0.219,2.221-0.438,3.114-1.2
		c0.276-0.236,0.414-0.047,0.557,0.138c0.385,0.498,0.73,1.03,1.147,1.499c0.738,0.829,1.358,0.806,2.058-0.046
		c0.552-0.674,0.957-1.436,1.218-2.264c0.151-0.483,0.42-0.686,0.934-0.68c0.831,0.01,1.65-0.151,2.459-0.328
		c0.493-0.107,0.862-0.045,1.248,0.337c1.271,1.259,2.578,2.483,3.887,3.704c2.326,2.172,4.615,4.385,7.124,6.354
		c0.984,0.771,2.056,1.127,3.312,1.104c2.981-0.059,5.833-0.768,8.659-1.623c0.321-0.098,0.609-0.267,0.853-0.498
		c0.431-0.409,0.735-0.882,0.496-1.499c-0.175-0.451-0.787-0.632-1.495-0.386c-2.488,0.863-5.077,0.846-7.658,0.934
		c-1.243,0.042-2.327-0.307-3.345-1.029c-3.306-2.35-6.338-5.021-9.31-7.77c-0.42-0.389-0.424-0.564,0.133-0.788
		c1.395-0.562,2.652-1.363,3.772-2.365c0.315-0.282,0.591-0.31,0.985-0.199c1.051,0.294,2.122,0.518,3.179,0.792
		c1.138,0.295,2.217,0.224,3.269-0.345c0.844-0.456,1.718-0.858,2.58-1.282c0.629-0.309,1.279-0.475,1.996-0.52
		c1.453-0.092,2.902-0.273,4.35-0.453c3.746-0.467,7.49-0.955,11.236-1.428c0.826-0.104,1.637,0.017,2.195,0.67
		c1.063,1.246,2.443,1.35,3.903,1.199c0.624-0.064,1.241-0.205,1.855-0.34c0.407-0.088,0.996-0.045,1.13-0.449
		c0.141-0.423-0.397-0.697-0.662-1.022c-0.12-0.146-0.414-0.229-0.332-0.44c0.069-0.184,0.348-0.113,0.533-0.139
		c5.148-0.713,10.324-1.23,15.452-2.1c0.964-0.163,1.837,0.15,2.458,0.983c0.39,0.524,0.919,0.853,1.539,1.038
		c0.982,0.292,1.795-0.136,2.109-1.108c0.338-1.046,0.082-1.962-0.63-2.766c-0.514-0.579-1.149-0.993-1.851-1.315
		c-0.108-0.049-0.193-0.15-0.289-0.229c0.119-0.054,0.234-0.121,0.357-0.157c0.127-0.038,0.262-0.043,0.393-0.066
		c3.253-0.581,6.233-1.804,8.834-3.858c2.059-1.627,3.771-3.545,4.603-6.103c0.646-1.986,0.229-3.524-1.276-4.729
		c-1.115-0.894-2.405-1.227-3.822-1.032c-1.303,0.18-2.492,0.673-3.578,1.401c-0.447,0.3-0.511,0.151-0.555-0.305
		c-0.177-1.833-0.658-3.581-1.613-5.173c-0.944-1.574-2.26-2.694-4.089-3.075c-1.042-0.217-2.111-0.154-3.172-0.092
		c-3.632,0.213-6.226,2.201-7.374,5.658c-0.273,0.826-0.273,0.826-1.107,0.575c-2.562-0.772-4.764,0.117-5.883,2.357
		c-0.703,1.411-0.775,2.931-0.396,4.372c1.367,5.217,4.533,8.736,9.906,10.041c0.373,0.09,0.922,0.089,0.904,0.582
		c-0.01,0.263-0.537,0.266-0.854,0.327c-5.795,1.126-11.662,1.72-17.52,2.373c-2.897,0.323-5.795,0.644-8.698,0.896
		c-2.606,0.226-5.194,0.673-7.821,0.645c-0.867-0.01-1.709,0.147-2.545,0.379c-1.756,0.484-3.461,1.136-5.236,1.552
		c-0.399,0.094-0.781,0.142-1.168-0.014c-0.144-0.058-0.393-0.01-0.416-0.171c-0.028-0.193,0.215-0.205,0.36-0.271
		c3.614-1.624,6.953-3.713,10.147-6.039c1.639-1.193,3.195-2.486,4.377-4.165c1.07-1.522,1.789-3.177,1.748-5.078
		c-0.037-1.744-0.621-2.517-2.277-3.072c-0.469-0.157-0.951-0.284-1.434-0.394c-2.2-0.5-4.438-0.766-6.674-1.031
		c-0.211-0.025-0.521,0.014-0.568-0.252c-0.037-0.201,0.24-0.289,0.396-0.4c5.776-4.131,11.288-8.599,16.705-13.186
		c0.345-0.293,0.722-0.465,1.151-0.539c4.445-0.777,8.614-2.348,12.604-4.418c7.194-3.731,13.504-8.625,19.017-14.554
		c0.518-0.557,1.047-1.118,1.348-1.835c0.314-0.751,0.41-1.574-0.239-2.123c-0.647-0.549-0.437-0.979-0.107-1.498
		C116.854,46.313,117.165,45.802,117.513,45.318z M77.631,57.032c-0.131-0.094-0.178-0.228-0.184-0.381
		C77.453,56.804,77.5,56.938,77.631,57.032L77.631,57.032z M67.955,38.385c0.148,0.076,0.224,0.229,0.211,0.438
		c-0.062,0.297-0.195,0.562-0.368,0.807c0.173-0.244,0.307-0.51,0.367-0.808C68.178,38.613,68.104,38.461,67.955,38.385z
		 M24.879,102.802c-0.608-0.019-1.146-0.29-1.696-0.501c-2.41-0.925-4.72-2.079-7.075-3.128c-0.148-0.066-0.403-0.184-0.396-0.256
		c0.023-0.232,0.293-0.205,0.46-0.294c0.961-0.517,1.897-0.495,2.934-0.13c1.167,0.411,2.238,0.85,3.095,1.814
		C23.009,101.216,23.98,101.977,24.879,102.802c0.002,0,0.005,0.001,0.007,0.001l0.001,0.007
		C24.885,102.807,24.882,102.805,24.879,102.802z M41.24,97.247c-2.21,1.763-4.272,3.673-5.999,5.924
		c-0.194,0.254-0.371,0.408-0.736,0.357c-1.315-0.185-2.96-1.926-3.007-3.309c0.206-0.457,0.053-1.246,0.957-1.293
		c0.317-0.017,0.322-0.277,0.414-0.474c0.197-0.419,0.372-0.849,0.588-1.257c0.174-0.328,0.442-0.687,0.806-0.675
		c0.686,0.021,1.184-0.354,1.746-0.612c0.491-0.227,1.006-0.359,1.533-0.105c0.354,0.17,0.718,0.074,1.077,0.06
		c0.698-0.03,1.4-0.101,1.964,0.453c0.129,0.128,0.303,0.1,0.467,0.12c0.304,0.037,0.777-0.189,0.865,0.171
		C41.981,96.884,41.491,97.048,41.24,97.247z M111.083,52.118c-4.078,4.145-8.708,7.557-13.755,10.412
		c-4.398,2.488-8.987,4.529-13.933,5.686c-0.226,0.053-0.45,0.105-0.675,0.159c-0.37,0.034-0.474-0.132-0.426-0.478
		c0.257-1.836,0.509-3.674,0.746-5.514c0.04-0.314,0.212-0.449,0.478-0.558c2.764-1.126,4.667-3.226,6.247-5.646
		c2.792-4.275,4.513-8.977,5.362-14.001c0.127-0.75,0.132-1.519,0.061-2.281c-0.01-0.098-0.021-0.263,0.023-0.284
		c0.16-0.078,0.221,0.084,0.279,0.188c1.192,2.096,3.128,3.16,5.324,3.893c2.457,0.819,4.838,1.82,7.039,3.199
		c1.502,0.941,2.887,1.988,3.548,3.758C111.637,51.278,111.537,51.656,111.083,52.118z M116.365,49.962
		c0.043-0.156,0.066-0.319,0.056-0.493c0,0,0,0,0,0.001C116.432,49.644,116.408,49.806,116.365,49.962
		c-0.048,0.175-0.121,0.341-0.218,0.495C116.244,50.303,116.317,50.137,116.365,49.962z"/>
</g>
</svg>
