<?xml version="1.0" encoding="utf-8"?>
<!-- Generator: Adobe Illustrator 16.0.4, SVG Export Plug-In . SVG Version: 6.00 Build 0)  -->
<!DOCTYPE svg PUBLIC "-//W3C//DTD SVG 1.1//EN" "http://www.w3.org/Graphics/SVG/1.1/DTD/svg11.dtd">
<svg version="1.1" id="Layer_3402" xmlns="http://www.w3.org/2000/svg" xmlns:xlink="http://www.w3.org/1999/xlink" x="0px" y="0px"
	 width="128px" height="128px" viewBox="0 0 128 128" enable-background="new 0 0 128 128" xml:space="preserve">
<g>
	<path fill-rule="evenodd" clip-rule="evenodd" d="M65.355,22.18c-1.406,0.857-1.875,2.395-2.62,3.709
		c-0.715,1.261-1.495,1.578-2.72,0.705c-0.521-0.373-1.238-1.296-1.758-0.395c-0.479,0.829-0.671,2.414,0.23,2.833
		c1.99,0.923,1.444,2.501,1.469,3.932c0.041,2.46-0.01,4.803,1.416,7.105c1.293,2.087,1.86,4.558,0.357,7.029
		c-0.623,1.022-0.343,2.137,0.379,3.181c1.184,1.708,1.197,3.499-0.173,5.133c-0.986,1.177-0.755,2.254,0.038,3.357
		c0.88,1.227,1.037,2.616,0.143,3.753c-1.621,2.063-0.482,3.452,0.936,4.758c1.816,1.676,3.721,3.256,5.625,4.835
		c2.138,1.773,4.099,3.77,6.243,5.5c4.214,3.397,5.254,7.918,5.406,12.909c0.203,6.715-0.633,13.383-0.99,20.071
		c-0.177,3.287-0.256,6.597-0.846,9.86c-0.871,4.827-3.007,6.864-7.899,7.021c-11.245,0.363-22.491,0.24-33.736-0.035
		c-1.45-0.034-2.871-0.26-4.253-0.724c-2.242-0.75-3.618-2.204-4.125-4.568c-0.649-3.03-1.039-6.091-1.391-9.162
		c-1.444-12.594-1.079-25.123,1.6-37.526c1.392-6.445,3.586-12.677,6.057-18.781c2.435-6.012,4.046-12.324,6.818-18.204
		c-0.483-4.052,2.983-5.411,5.199-7.622l0.101-0.167l-0.053,0.213c-1.49-0.312-2.56,0.726-3.697,1.31
		c-5.399,2.768-11.166,2.446-16.931,2.236c-0.502-0.019-1.007-0.213-1.493-0.382c-1.876-0.653-2.004-1.312-0.58-2.811
		c0.942-0.992,2.147-1.607,3.328-2.221c3.155-1.64,5.377-3.865,6.296-7.517c0.751-2.985,2.512-5.614,4.495-8.012
		c2.084-2.523,4.52-4.231,7.967-4.726c8.698-1.247,17.429-1.559,26.19-1.677c1.966-0.026,2.54,0.745,2.419,2.554
		c-0.104,1.54-0.109,3.097-0.001,4.635c0.18,2.563,0.006,4.572-3.31,5.077c-1.851,0.283-0.614,0.65,0.24,0.906
		c0.72,0.215,0.531,1.032,0.535,1.619c0.034,6.229,1.732,11.957,5.119,17.184c0.156,0.242,0.453,0.534,0.172,0.778
		c-0.37,0.32-0.799,0.061-1.092-0.193c-3.828-3.321-7.42-6.819-9.026-11.845c-0.32-1.001-0.292-2.114-1.723-2.654
		c-1.43-0.539-0.049-2.025-0.409-3.034c0.827-0.107,1.542-0.37,1.782-1.289c0.348-0.072,0.695-0.144,1.043-0.215
		c-0.067-0.035-0.153-0.114-0.201-0.096c-0.27,0.104-0.53,0.231-0.795,0.351C66.32,21.008,65.622,21.298,65.355,22.18z
		 M62.68,119.298c0.516,0,1.031-0.027,1.547-0.058c4.42-0.264,7.072-2.221,7.809-6.519c1.152-6.702,1.948-13.465,1.876-20.297
		c-0.02-1.865-0.666-3.387-1.985-4.697c-5.465-5.426-11.701-9.86-18.635-13.064c-7.887-3.645-15.426,0.03-18.282,8.196
		c-1.329,3.799-1.301,7.716-1.337,11.62c-0.057,6.188-0.207,12.398,0.767,18.535c0.647,4.08,2.676,6.036,6.578,5.835
		C44.721,118.659,59.172,119.304,62.68,119.298z"/>
	<path fill-rule="evenodd" clip-rule="evenodd" d="M75.255,12.348c0-0.307-0.002-0.614,0.001-0.92
		c0.028-3.822,0.226-3.923,4.017-3.607c1.723,0.142,2.334,0.875,2.246,2.519c-0.066,1.222,0.061,2.452,0.053,3.677
		c-0.02,3.064-0.072,3.108-3.002,3.259C75.248,17.446,75.248,17.446,75.255,12.348z"/>
	<path fill-rule="evenodd" clip-rule="evenodd" d="M102.652,11.353c-1.448-0.05-2.802-0.995-2.702-1.888
		c0.099-0.887,1.854-2.126,2.996-2.088c1.294,0.042,1.883,0.803,1.902,2.026C104.87,10.696,104.045,11.401,102.652,11.353z"/>
	<path fill-rule="evenodd" clip-rule="evenodd" d="M102.646,13.65c1.512-0.036,2.235,0.571,2.208,1.91
		c-0.027,1.232-0.623,1.989-1.918,2.015c-1.08,0.021-2.98-1.306-3.051-2.084C99.804,14.581,101.146,13.686,102.646,13.65z"/>
	<path fill-rule="evenodd" clip-rule="evenodd" d="M99.335,20.702c1.577-0.004,2.618,0.923,2.588,2.154
		c-0.029,1.227-0.824,1.678-1.894,1.747c-1.227,0.078-3.304-1.604-3.078-2.587C97.251,20.706,98.639,21.115,99.335,20.702z"/>
	<path fill-rule="evenodd" clip-rule="evenodd" d="M99.311,4.095c-0.726-0.294-2.154,0.232-2.31-1.274
		c-0.109-1.058,1.795-2.598,2.961-2.521c1.056,0.069,1.902,0.487,1.971,1.742C102.005,3.363,101.173,4.071,99.311,4.095z"/>
	<path fill-rule="evenodd" clip-rule="evenodd" d="M96.881,14.969c-0.126,0.976-0.681,1.41-1.661,1.374
		c-1.102-0.041-2.137-0.571-2.127-1.59c0.012-1.176,1.285-1.266,2.248-1.299C96.315,13.419,96.819,14.003,96.881,14.969z"/>
	<path fill-rule="evenodd" clip-rule="evenodd" d="M96.847,10.169c-0.176,1.126-0.907,1.577-1.898,1.407
		c-0.836-0.145-2.055-0.382-1.83-1.474c0.185-0.893,1.157-1.489,2.27-1.455C96.416,8.68,96.78,9.285,96.847,10.169z"/>
	<path fill-rule="evenodd" clip-rule="evenodd" d="M92.022,6.361c-0.527-0.346-1.605,0.006-1.511-1.144
		c0.081-0.976,1.52-1.973,2.536-1.839c0.943,0.125,1.189,0.777,1.123,1.565C94.058,6.261,93.065,6.351,92.022,6.361z"/>
	<path fill-rule="evenodd" clip-rule="evenodd" d="M92.278,18.614c1.082,0.031,1.864,0.326,1.891,1.5
		c0.021,0.967-0.412,1.604-1.441,1.499c-1.166-0.118-2.078-0.923-2.188-1.963C90.428,18.589,91.614,18.747,92.278,18.614z"/>
	<path fill-rule="evenodd" clip-rule="evenodd" d="M89.026,9.588c0.611,0.035,1.139,0.341,1.05,1.176
		c-0.081,0.751-0.526,1.183-1.321,1.061c-0.631-0.097-1.39-0.173-1.383-1.037C87.379,9.846,88.095,9.625,89.026,9.588z"/>
	<path fill-rule="evenodd" clip-rule="evenodd" d="M87.75,17.901c-0.006,0.644-0.262,1.137-0.949,1.155
		c-0.911,0.022-1.581-0.468-1.71-1.362c-0.104-0.734,0.613-0.873,1.149-0.948C87.08,16.63,87.629,17.017,87.75,17.901z"/>
	<path fill-rule="evenodd" clip-rule="evenodd" d="M88.69,13.25c0.805,0.006,1.383,0.296,1.387,1.093
		c0.003,0.783-0.545,1.173-1.294,1.1c-0.752-0.074-1.559-0.356-1.509-1.25C87.315,13.428,88.097,13.32,88.69,13.25z"/>
	<path fill-rule="evenodd" clip-rule="evenodd" d="M86.554,5.896c0.976,0.05,1.229,0.551,1.179,1.145
		c-0.075,0.909-0.733,1.161-1.536,1.05c-0.449-0.062-1.083-0.133-1.01-0.748C85.292,6.465,85.948,6.03,86.554,5.896z"/>
</g>
</svg>
