<?xml version="1.0" encoding="utf-8"?>
<!-- Generator: Adobe Illustrator 16.0.4, SVG Export Plug-In . SVG Version: 6.00 Build 0)  -->
<!DOCTYPE svg PUBLIC "-//W3C//DTD SVG 1.1//EN" "http://www.w3.org/Graphics/SVG/1.1/DTD/svg11.dtd">
<svg version="1.1" id="Layer_3407" xmlns="http://www.w3.org/2000/svg" xmlns:xlink="http://www.w3.org/1999/xlink" x="0px" y="0px"
	 width="128px" height="128px" viewBox="0 0 128 128" enable-background="new 0 0 128 128" xml:space="preserve">
<g>
	<path fill-rule="evenodd" clip-rule="evenodd" d="M63.237,23.197c9.394-0.048,18.135,0.191,26.828,1.285
		c7.693,0.97,15.287,2.597,22.447,5.553c4.93,2.034,9.789,4.499,12.977,9.195c1.169,1.723,1.877,3.548,2.022,5.599
		c0.021,0.295-0.112,0.771-0.32,0.879c-0.495,0.256-0.787-0.16-1.016-0.562c-0.663-1.17-1.418-2.297-1.976-3.515
		c-0.891-1.948-2.374-3.198-4.236-4.134c-2.439-1.226-4.247-0.661-5.49,1.816c-0.25,0.5-0.424,1.037-0.647,1.55
		c-0.4,0.92-0.854,0.906-1.355,0.07c-0.231-0.385-0.474-0.762-0.719-1.138c-0.49-0.75-0.981-1.5-1.48-2.243
		c-1.43-2.121-3.228-3.941-5.909-3.85c-2.933,0.1-3.917,2.625-4.947,4.897c-0.364,0.802-0.22,2.256-0.996,2.325
		c-0.884,0.078-0.889-1.341-1.267-2.109c-0.912-1.858-2.293-3.335-3.883-4.583c-3.781-2.964-8.177-1.839-10.182,2.537
		c-0.188,0.408-0.333,0.837-0.547,1.229c-0.444,0.817-0.935,1.414-1.563,0.125c-0.296-0.604-0.581-1.213-0.913-1.796
		c-0.499-0.875-0.964-1.784-1.565-2.585c-3.449-4.595-7.544-5.329-12.188-1.985c-1.23,0.886-1.913,0.995-3.146,0.087
		c-5.698-4.195-9.538-1.93-12.98,2.899c-0.898,1.261-1.487,2.741-2.218,4.121c-1.491-0.816-1.499-2.589-2.453-3.787
		c-2.709-3.396-7.93-3.207-11.067,0.622c-1.055,1.288-1.809,2.822-2.708,4.238c-0.222,0.348-0.354,0.981-0.826,0.843
		c-0.323-0.094-0.574-0.646-0.737-1.042c-0.341-0.828-0.56-1.705-0.904-2.531c-1.593-3.808-4.936-4.628-8.073-1.923
		c-1.891,1.63-3.274,3.673-4.319,5.943c-0.135,0.293-0.37,0.754-0.572,0.762c-0.57,0.021-0.505-0.578-0.604-0.947
		c-1.583-5.848-6.414-4.703-9.262-1.163c-1.796,2.233-2.716,4.873-4.083,7.298c-0.235,0.417-0.511,0.812-0.981,0.701
		c-0.223-0.053-0.396-0.512-0.506-0.817c-0.738-2.036-0.327-3.966,0.573-5.849c1.6-3.347,4.15-5.829,7.236-7.763
		c7.262-4.55,15.426-6.582,23.708-8.099C42.788,23.447,53.328,23.132,63.237,23.197z"/>
	<path fill-rule="evenodd" clip-rule="evenodd" d="M64.921,104.809c-12.633,0.059-21.721-1.639-30.774-3.931
		c-7.101-1.796-13.889-4.308-20.416-7.535c-2.994-1.48-5.879-3.203-8.462-5.424c-3.15-2.71-4.84-5.795-3.768-10.039
		c0.327-1.294,0.19-2.693,0.805-3.932c0.091-0.185,0.294-0.314,0.447-0.471c0.136,0.165,0.356,0.312,0.395,0.498
		c0.251,1.204,0.476,2.414,0.684,3.627c0.655,3.823,1.871,7.396,4.741,10.169c2.045,1.975,2.6,1.981,4.461-0.236
		c0.774-0.923,1.069-0.354,1.47,0.124c0.646,0.77,1.132,1.69,1.847,2.381c2.494,2.413,5.056,1.786,6.2-1.46
		c0.111-0.315,0.093-0.69,0.251-0.973c0.522-0.935-0.108-2.209,0.902-2.985c0.44,1.01,0.897,2.013,1.316,3.031
		c0.94,2.285,1.864,4.578,3.752,6.296c2.281,2.078,4.271,1.65,5.487-1.209c0.844-1.982,1.216-4.062,1.235-6.224
		c0.004-0.448-0.322-1.242,0.527-1.301c0.463-0.033,0.638,0.519,0.81,0.939c0.679,1.657,1.347,3.32,2.079,4.954
		c0.838,1.869,2.068,3.425,3.769,4.624c2.876,2.025,4.647,1.442,5.685-1.997c0.322-1.068,0.465-2.189,0.758-3.269
		c0.134-0.496,0.164-1.197,0.776-1.296c0.195-0.031,0.531,0.636,0.757,1.012c0.749,1.248,1.423,2.545,2.227,3.758
		c1.268,1.912,2.959,3.396,5.192,4.007c2.59,0.705,3.9-0.104,4.883-2.726c0.196-0.523,0.307-1.084,0.545-1.587
		c0.392-0.825-0.291-2.479,0.944-2.413c0.966,0.053,0.619,1.713,0.84,2.646c1.063,4.489,3.675,5.515,7.548,2.964
		c2.663-1.752,3.993-4.472,5.403-7.15c0.182-0.345,0.151-0.932,0.722-0.878c0.104,0.011,0.214,0.6,0.216,0.923
		c0.015,1.606,0.506,3.111,1.109,4.55c1.209,2.885,2.98,3.336,5.523,1.552c2.503-1.754,3.677-4.44,4.978-7.041
		c0.495-0.992,0.993-1.983,1.489-2.975c1.088,0.876,0.792,2.188,0.933,3.309c0.173,1.358,0.483,2.659,1.077,3.859
		c1.314,2.659,3.666,3.047,5.655,0.852c1.504-1.662,2.634-3.615,3.498-5.704c0.343-0.825,0.7-1.646,1.084-2.455
		c0.084-0.178,0.308-0.402,0.474-0.408c0.438-0.015,0.39,0.396,0.439,0.684c0.156,0.879,0.191,1.796,0.464,2.636
		c0.94,2.895,3.186,3.638,5.709,1.927c0.55-0.373,1.161-0.783,1.489-1.329c0.992-1.651,1.822-2.161,3.338-0.379
		c0.797,0.935,2.063,0.413,2.984-0.448c2.53-2.367,4.257-5.155,4.829-8.63c0.272-1.652,0.713-3.277,1.133-4.899
		c0.06-0.231,0.438-0.381,0.668-0.567c0.112,0.188,0.241,0.371,0.337,0.568c1.733,3.583,0.934,9.316-1.825,12.29
		c-3.354,3.611-7.655,5.892-12.102,7.708C96.196,101.472,79.095,104.052,64.921,104.809z"/>
	<path d="M67.979,61.024c-2.154,0-2.163-0.975-2.183-3.109c-0.02-2.233-0.097-4.506-0.169-6.705
		c-0.146-4.395-0.298-8.939-0.017-13.433c0.156-2.512,1.156-3.999,3.241-4.822c2.933-1.158,5.096-0.854,6.811,0.851
		c2.031,2.023,3.329,4.346,3.859,6.906c0.932,4.502,1.501,9.125,2.052,13.595c0.123,1.001,0.247,2.003,0.373,3.004
		c0.13,1.015,0.003,1.712-0.403,2.193c-0.523,0.624-1.409,0.746-2.205,0.782c-1.705,0.079-3.44,0.268-5.121,0.448
		c-0.73,0.079-1.462,0.159-2.193,0.229l-0.529,0.051l-0.013-0.135l-0.429,0.022c-0.697,0.038-1.393,0.077-2.09,0.1
		C68.583,61.014,68.258,61.024,67.979,61.024z M71.994,33.327c-0.803,0-1.704,0.201-2.752,0.615c-1.695,0.67-2.441,1.8-2.572,3.901
		c-0.277,4.443-0.127,8.962,0.018,13.332c0.074,2.204,0.149,4.484,0.17,6.731c0.02,2.05,0.02,2.055,1.114,2.055
		c0.27-0.025,0.587-0.01,0.957-0.022c0.688-0.023,1.377-0.061,2.065-0.099l1.446-0.076l0.009,0.088
		c0.552-0.056,1.104-0.115,1.654-0.175c1.695-0.182,3.447-0.372,5.185-0.452c0.793-0.038,1.238-0.162,1.442-0.406
		c0.198-0.235,0.252-0.686,0.163-1.376c-0.127-1.001-0.251-2.005-0.374-3.008c-0.548-4.449-1.114-9.049-2.037-13.508
		c-0.487-2.353-1.688-4.495-3.57-6.369C74.08,33.73,73.125,33.327,71.994,33.327z"/>
	<path d="M61.505,61.194c-0.142,0-0.295-0.01-0.46-0.033c-1.716-0.224-3.487-0.274-5.199-0.323c-1.916-0.055-3.896-0.112-5.85-0.41
		c-1.835-0.279-2.541-1.13-2.438-2.938c0.346-6.032,1.37-11.967,2.327-16.976c0.422-2.208,1.729-4.085,3.031-5.82
		c1.147-1.529,2.934-2.406,4.899-2.406c1.776,0,3.514,0.73,4.766,2.004c0.868,0.884,0.989,1.87,0.99,2.804
		c0.005,2.614,0.004,5.227,0.003,7.841v3.42h-0.079v2.393l0.001,7.807c0.001,0.53-0.036,1.204-0.325,1.735
		C62.951,60.703,62.479,61.194,61.505,61.194z M57.816,33.35c-1.629,0-3.105,0.722-4.05,1.981c-1.228,1.635-2.458,3.398-2.837,5.381
		c-0.951,4.976-1.968,10.867-2.311,16.838c-0.071,1.253,0.244,1.63,1.538,1.827c1.888,0.287,3.836,0.343,5.72,0.397
		c1.738,0.05,3.536,0.102,5.306,0.334c0.679,0.087,0.946-0.118,1.059-0.326c0.175-0.322,0.195-0.854,0.195-1.226l-0.001-7.808
		v-3.454h0.079v-2.359c0.001-2.613,0.002-5.226-0.003-7.839c-0.001-0.865-0.114-1.479-0.685-2.062
		C60.771,33.965,59.31,33.35,57.816,33.35z"/>
	<path d="M85.777,59.461c-1.004,0-2.238-0.42-2.408-2.419c-0.166-1.946-0.312-3.894-0.436-5.541l-0.128-1.689
		c0.039-4.377,0.396-7.233,1.233-9.901l0.114-0.378c0.124-0.42,0.253-0.855,0.452-1.272c1.004-2.097,2.505-3.253,4.227-3.253
		c1.171,0,2.379,0.515,3.591,1.532c2.404,2.015,4.006,4.834,5.045,8.873c0.765,2.97,1.143,6.15,1.156,9.722
		c0.007,1.779-0.809,2.713-2.568,2.941c-3.569,0.462-6.565,0.865-9.583,1.33C86.226,59.442,85.993,59.461,85.777,59.461z
		 M88.832,36.069c-1.653,0-2.689,1.441-3.269,2.65c-0.164,0.341-0.274,0.717-0.393,1.115l-0.119,0.394
		c-0.803,2.562-1.147,5.329-1.187,9.548l0.127,1.646c0.124,1.643,0.27,3.587,0.436,5.529c0.108,1.272,0.713,1.448,1.35,1.448
		c0.166,0,0.344-0.016,0.535-0.044c3.027-0.467,6.029-0.87,9.607-1.333c1.232-0.16,1.647-0.635,1.643-1.883
		c-0.014-3.483-0.381-6.579-1.123-9.462c-0.981-3.813-2.474-6.458-4.698-8.322C90.725,36.501,89.747,36.069,88.832,36.069z"/>
	<path d="M43.344,59.539c-0.127,0-0.261-0.006-0.401-0.019c-3.424-0.289-6.848-0.832-10.346-1.413
		c-1.289-0.211-1.917-0.989-1.921-2.373c-0.015-5.419,1.181-10.851,3.552-16.146c0.761-1.7,2.35-2.799,3.778-3.696
		c2.753-1.729,4.694-1.196,6.262,1.626c1.151,2.072,1.735,4.029,1.785,5.981c0.038,1.482,0.029,2.967,0.02,4.451
		c-0.003,0.472-0.006,0.944-0.007,1.416l0.289,0.003l-0.147,2.618c-0.091,1.664-0.182,3.327-0.312,4.988
		C45.762,58.676,44.903,59.539,43.344,59.539z M40.8,35.98c-0.628,0-1.357,0.265-2.229,0.812c-1.356,0.851-2.734,1.802-3.375,3.231
		c-2.309,5.155-3.473,10.44-3.458,15.707c0.002,0.867,0.263,1.203,1.032,1.329c3.609,0.598,6.872,1.116,10.262,1.402
		c1.207,0.095,1.705-0.301,1.805-1.569c0.13-1.652,0.22-3.307,0.31-4.962l0.085-1.512l-0.172-0.002l-0.057-0.525
		c0-0.649,0.003-1.298,0.008-1.947c0.009-1.473,0.018-2.946-0.02-4.417c-0.045-1.777-0.585-3.574-1.651-5.493
		C42.317,36.193,41.4,35.98,40.8,35.98z"/>
	<path d="M68.886,93.556c-1.435,0-2.004-1.172-2.425-2.271c-0.533-1.392-0.69-2.835-0.844-4.23
		c-0.042-0.388-0.084-0.774-0.135-1.159c-0.38-2.929-0.413-5.906-0.444-8.785c-0.013-1.111-0.024-2.224-0.056-3.335
		c-0.017-0.619-0.071-2.505,2.092-2.599c1.255-0.056,2.51-0.122,3.765-0.188c2.174-0.116,4.419-0.235,6.635-0.291l0.112-0.002
		c0.713,0,1.229,0.177,1.58,0.541c0.52,0.539,0.49,1.315,0.466,1.939c-0.01,0.274-0.02,0.534,0.016,0.723l0.013,0.069l-0.005,0.071
		c-0.411,4.949-1.052,10.172-3.925,14.832c-1.385,2.246-3.127,3.684-5.325,4.392C69.784,93.462,69.302,93.556,68.886,93.556z
		 M77.586,71.757c-2.286,0.056-4.525,0.175-6.69,0.29c-1.258,0.066-2.517,0.134-3.775,0.188c-0.856,0.037-1.107,0.39-1.076,1.51
		c0.031,1.116,0.044,2.233,0.056,3.352c0.031,2.85,0.063,5.795,0.436,8.661c0.052,0.392,0.095,0.786,0.138,1.18
		c0.151,1.391,0.296,2.704,0.779,3.968c0.515,1.342,0.887,1.588,1.434,1.588c0.298,0,0.688-0.078,1.194-0.242
		c1.947-0.627,3.499-1.915,4.747-3.938c2.737-4.44,3.363-9.495,3.764-14.298c-0.041-0.282-0.031-0.586-0.02-0.879
		c0.018-0.467,0.035-0.95-0.17-1.164C78.23,71.794,77.863,71.757,77.586,71.757z"/>
	<path d="M59.5,93.587c-0.607,0-1.329-0.198-2.205-0.604c-2.037-0.948-3.622-2.445-4.582-4.333
		c-2.512-4.932-3.755-9.759-3.803-14.756c-0.011-1.113,0.195-1.825,0.669-2.302c0.474-0.479,1.164-0.676,2.183-0.603
		c0.99,0.07,1.987,0.053,2.983,0.035c0.451-0.007,0.902-0.016,1.354-0.016h0.531v0.185l2.526,0.009c0.66,0,1.319-0.005,1.979-0.02
		c0.002,0,0.005,0,0.007,0c0.876,0,1.451,0.198,1.854,0.604c0.43,0.433,0.636,1.085,0.631,1.993
		c-0.03,5.367-0.229,11.123-1.464,16.833C61.887,91.89,61.31,93.587,59.5,93.587z M51.375,72.037c-0.499,0-0.84,0.099-1.041,0.302
		c-0.254,0.258-0.369,0.748-0.361,1.546c0.045,4.83,1.251,9.501,3.687,14.283c0.852,1.675,2.265,3.007,4.084,3.851
		c0.732,0.34,1.307,0.506,1.756,0.506c0.604,0,1.219-0.259,1.624-2.136c1.215-5.616,1.41-11.303,1.44-16.614
		c0.004-0.612-0.102-1.017-0.322-1.238c-0.195-0.196-0.524-0.291-1.007-0.291c-0.746,0.016-1.412,0.02-2.08,0.02l-3.588-0.011
		v-0.179c-0.269,0.003-0.536,0.007-0.804,0.012c-1.027,0.018-2.056,0.034-3.077-0.038C51.578,72.041,51.474,72.037,51.375,72.037z"
		/>
	<path d="M83.336,92.181c-1.877,0-2.355-2.416-2.514-3.21c-0.354-1.785-0.536-3.623-0.711-5.399l-0.098-0.971
		c-0.071-0.701-0.046-1.399-0.028-1.862c0.006-0.139,0.011-0.256,0.011-0.34c-0.013-0.571-0.038-1.155-0.063-1.731
		c-0.124-2.842-0.242-5.523,1.222-7.29c1.257-1.516,3.506-1.541,5.681-1.565c0.819-0.01,1.593-0.018,2.309-0.102
		c1.065-0.127,1.986-0.234,2.651-0.234c0.551,0,1.232,0.062,1.632,0.56c0.563,0.699,0.313,1.833-0.184,4.094
		c-1.044,4.747-2.631,9.246-4.716,13.373c-0.481,0.954-1.173,2.174-2.25,3.142C85.128,91.678,84.166,92.181,83.336,92.181z
		 M91.795,70.537c-0.603,0-1.494,0.104-2.527,0.226c-0.771,0.092-1.609,0.102-2.421,0.11c-1.934,0.021-3.932,0.044-4.875,1.182
		c-1.203,1.451-1.093,3.935-0.978,6.565c0.025,0.585,0.052,1.177,0.063,1.767c0,0.105-0.005,0.235-0.011,0.394
		c-0.017,0.432-0.041,1.084,0.022,1.713l0.098,0.973c0.174,1.753,0.354,3.562,0.698,5.299c0.309,1.562,0.804,2.354,1.471,2.354
		c0.378,0,1.07-0.22,2.231-1.263c0.939-0.846,1.546-1.907,2.012-2.833c2.045-4.047,3.603-8.462,4.627-13.121
		c0.343-1.556,0.637-2.897,0.394-3.201C92.539,70.625,92.352,70.537,91.795,70.537z"/>
	<path d="M45.279,92.307c-0.773,0-1.651-0.494-2.844-1.604c-1.659-1.542-2.832-3.281-3.486-5.171
		c-1.397-4.037-2.702-8.234-3.877-12.476c-0.338-1.22-0.457-2.095-0.009-2.684c0.415-0.543,1.146-0.617,1.807-0.617
		c0.283,0,0.605,0.016,0.972,0.045c1.032,0.083,2.068,0.229,3.07,0.368c1.494,0.209,3.039,0.426,4.562,0.426l0.3-0.002
		c0,0,0.001,0,0.001,0c1.99,0,2.391,1.373,2.526,2.569c0.199,1.755,0.426,4.239,0.377,6.104c0,3.623-0.074,6.892-0.975,10.068
		C47.309,90.719,46.679,92.307,45.279,92.307z M36.869,70.818c-0.669,0-0.892,0.107-0.961,0.197
		c-0.145,0.192-0.082,0.783,0.188,1.757c1.168,4.221,2.466,8.396,3.856,12.413c0.596,1.723,1.674,3.317,3.205,4.739
		c0.942,0.876,1.656,1.32,2.122,1.32c0.192,0,0.777,0,1.401-2.2c0.864-3.045,0.935-6.236,0.936-9.793
		c0.046-1.817-0.176-4.248-0.371-5.97c-0.141-1.248-0.467-1.628-1.394-1.628l-0.378,0.003c-1.596,0-3.179-0.223-4.709-0.437
		c-0.986-0.139-2.006-0.281-3.006-0.36C37.422,70.834,37.127,70.818,36.869,70.818z"/>
	<path d="M27.32,57.167c-0.259,0-0.543-0.035-0.869-0.108c-2.259-0.508-4.603-0.866-6.87-1.211l-1.688-0.259
		c-1.023-0.161-1.677-0.5-2.059-1.069c-0.383-0.569-0.452-1.343-0.21-2.366c0.904-3.829,2.163-8.289,4.643-12.344
		c0.083-0.136,0.156-0.279,0.23-0.422c0.136-0.263,0.277-0.535,0.475-0.789c1.167-1.496,2.647-2.275,4.162-2.161
		c1.996,0.154,2.645,2.347,2.921,3.284c1.049,3.545,1.416,7.072,1.092,10.481l0.007,1.365c0.005,1.099,0.011,2.197-0.014,3.295
		C29.127,55.493,29.09,57.167,27.32,57.167z M24.847,37.489c-1.055,0-2.162,0.642-3.036,1.763c-0.138,0.176-0.25,0.393-0.369,0.623
		c-0.086,0.166-0.171,0.331-0.268,0.488c-2.403,3.928-3.631,8.288-4.516,12.034c-0.17,0.719-0.151,1.219,0.058,1.53
		c0.203,0.302,0.642,0.502,1.342,0.612l1.684,0.259c2.284,0.349,4.646,0.708,6.942,1.224c0.244,0.056,0.458,0.083,0.635,0.083
		c0.442,0,0.733-0.087,0.76-1.265c0.024-1.089,0.019-2.177,0.013-3.266l-0.005-1.421c0.313-3.324-0.04-6.716-1.051-10.13
		c-0.373-1.261-0.872-2.44-1.984-2.526C24.984,37.491,24.916,37.489,24.847,37.489z"/>
	<path d="M102.149,56.804c-1.141,0-1.863-0.775-1.886-2.022c-0.025-1.339-0.02-2.679-0.015-4.018l0.004-1.677
		c-0.145-3.28-0.072-6.789,1.438-10.063c0.598-1.294,1.402-2.618,2.845-2.618c0.71,0,1.5,0.309,2.565,1.003
		c1.999,1.302,2.947,3.358,3.489,4.792c0.77,2.04,1.429,4.151,2.067,6.193c0.351,1.122,0.701,2.245,1.071,3.36
		c0.394,1.189,0.525,2.499-1.488,3.19c-2.147,0.738-4.374,1.045-6.526,1.344c-1.023,0.141-2.047,0.282-3.062,0.469
		C102.476,56.789,102.309,56.804,102.149,56.804z M104.535,37.467c-0.497,0-1.069,0.242-1.881,2
		c-1.335,2.898-1.501,5.932-1.339,9.595l-0.005,1.705c-0.005,1.331-0.01,2.663,0.015,3.993c0.018,0.981,0.624,0.981,0.824,0.981
		c0.098,0,0.201-0.01,0.311-0.029c1.03-0.19,2.069-0.333,3.108-0.477c2.103-0.292,4.276-0.592,6.327-1.296
		c1.113-0.382,1.181-0.778,0.825-1.852c-0.372-1.121-0.725-2.249-1.077-3.377c-0.634-2.028-1.289-4.125-2.048-6.136
		c-0.785-2.084-1.734-3.403-3.075-4.276C105.65,37.731,105.021,37.467,104.535,37.467z"/>
	<path d="M31.187,90.574c-1.136,0-1.779-0.821-2.349-1.546c-0.093-0.119-0.187-0.239-0.283-0.354
		c-2.361-2.842-3.206-6.269-4.024-9.583c-0.175-0.707-0.35-1.413-0.538-2.114c-0.466-1.73-0.791-3.519-1.104-5.248l-0.19-1.044
		c-0.161-0.871-0.062-1.508,0.303-1.946c0.41-0.492,1.082-0.679,2.112-0.552c0.704,0.087,1.449,0.112,2.237,0.141
		c2.151,0.077,4.377,0.156,5.794,1.55c1.544,1.516,1.491,3.953,1.439,6.311c-0.013,0.604-0.026,1.198-0.01,1.765
		c0.012,0.39,0.008,0.781,0.005,1.172l-0.002,0.527l0.007,0.597c0.034,2.498,0.07,5.081-0.747,7.575l-0.076,0.237
		c-0.288,0.904-0.682,2.143-2.017,2.447C31.555,90.553,31.367,90.574,31.187,90.574z M24.538,69.21c-0.362,0-0.603,0.07-0.718,0.209
		c-0.146,0.176-0.172,0.548-0.076,1.073l0.191,1.049c0.309,1.707,0.629,3.474,1.083,5.161c0.191,0.708,0.367,1.421,0.543,2.135
		c0.826,3.345,1.605,6.506,3.81,9.159c0.103,0.122,0.203,0.25,0.302,0.377c0.653,0.831,1.072,1.276,1.835,1.101
		c0.694-0.159,0.933-0.761,1.242-1.735l0.08-0.245c0.762-2.324,0.728-4.818,0.694-7.229l-0.007-0.605l0.002-0.541
		c0.002-0.378,0.006-0.755-0.004-1.133c-0.017-0.584-0.004-1.197,0.01-1.818c0.046-2.133,0.095-4.337-1.122-5.531
		c-1.124-1.104-3.139-1.176-5.089-1.245c-0.776-0.027-1.579-0.057-2.33-0.148C24.823,69.22,24.674,69.21,24.538,69.21z"/>
	<path d="M97.272,90.575c-1.494,0-2.16-1.883-2.381-2.503c-0.94-2.657-0.9-5.411-0.858-8.328c-0.103-2.842,0.283-5.808,0.687-8.606
		c0.122-0.857,0.478-2.018,2.119-2.19l0.718-0.075c1.95-0.204,3.966-0.415,5.925-0.727c1.003-0.157,1.635,0.011,2.049,0.479
		c0.498,0.562,0.457,1.414,0.385,2.007c-0.37,2.986-1.052,6.127-2.083,9.6c-0.615,2.072-1.486,4.073-2.328,6.009
		c-0.399,0.917-0.979,1.842-1.674,2.677C98.901,90.034,98.064,90.575,97.272,90.575z M104.137,69.151
		c-0.146,0-0.309,0.015-0.488,0.044c-1.988,0.315-4.018,0.526-5.981,0.732l-0.718,0.075c-0.763,0.081-1.05,0.393-1.179,1.286
		c-0.396,2.751-0.774,5.662-0.675,8.36l0.001,0.013l-0.002,0.098c-0.041,2.818-0.078,5.48,0.799,7.958
		c0.289,0.818,0.765,1.796,1.379,1.796c0.31,0,0.863-0.222,1.742-1.275c0.632-0.76,1.156-1.597,1.516-2.423
		c0.829-1.906,1.687-3.876,2.284-5.886c1.014-3.417,1.684-6.502,2.047-9.429c0.093-0.748-0.019-1.051-0.127-1.173
		C104.631,69.211,104.43,69.151,104.137,69.151z"/>
	<path d="M19.21,87.087c-1.039,0-1.963-0.612-2.823-1.873c-1.711-2.503-2.858-5.543-3.612-9.566
		c-0.32-1.709-0.494-3.463-0.663-5.158c-0.051-0.518-0.103-1.035-0.158-1.551c-0.056-0.515-0.067-1.165,0.34-1.618
		c0.356-0.397,0.893-0.537,1.771-0.394c1.582,0.257,2.81,0.397,3.797,0.511c3.832,0.438,4.031,0.658,4.264,4.711
		c0.051,0.89,0.114,1.988,0.239,3.351c0.029,0.314,0.023,0.631,0.016,0.992c-0.004,0.168-0.008,0.347-0.008,0.539
		c0.163,2.087-0.155,4.308-0.461,6.456l-0.073,0.513c-0.145,1.021-0.387,2.725-2.157,3.045
		C19.521,87.073,19.363,87.087,19.21,87.087z M13.474,67.935c-0.113,0-0.314,0.012-0.39,0.096c-0.053,0.06-0.133,0.242-0.074,0.796
		c0.056,0.519,0.107,1.038,0.159,1.558c0.166,1.674,0.338,3.403,0.649,5.067c0.726,3.874,1.82,6.787,3.445,9.164
		c0.738,1.08,1.432,1.529,2.229,1.384c0.86-0.155,1.111-0.845,1.295-2.148l0.073-0.515c0.299-2.091,0.608-4.254,0.453-6.264
		c-0.002-0.243,0.002-0.429,0.006-0.604c0.007-0.317,0.015-0.598-0.011-0.873c-0.126-1.378-0.19-2.487-0.241-3.387
		c-0.194-3.358-0.194-3.358-3.326-3.717c-0.998-0.114-2.24-0.256-3.847-0.519C13.738,67.949,13.598,67.935,13.474,67.935z"/>
	<path d="M109.123,87.045c-1.055,0-1.625-1.014-1.962-1.777c-0.988-2.241-0.987-4.629-0.987-6.938v-2.764h0.209l-0.002-1.104
		c-0.004-1.248-0.007-2.496,0.007-3.744c0.013-1.268,0.323-2.967,2.85-3.096c1.331-0.067,2.694-0.314,4.012-0.554
		c0.524-0.095,1.047-0.189,1.57-0.274c0.758-0.125,1.22,0.159,1.422,0.396c0.161,0.189,0.337,0.526,0.254,1.06
		c-0.21,1.349-0.339,2.745-0.464,4.096c-0.304,3.285-0.618,6.682-2.107,9.852c-0.623,1.325-1.451,2.833-2.878,3.964
		C110.272,86.772,109.68,87.045,109.123,87.045z M107.236,76.627v1.702c0,2.301-0.001,4.474,0.896,6.51
		c0.503,1.141,0.854,1.145,0.988,1.145c0.001,0,0.002,0,0.002,0c0.288,0,0.714-0.22,1.264-0.655
		c1.254-0.994,2.006-2.368,2.575-3.582c1.41-3.003,1.717-6.306,2.012-9.499c0.127-1.367,0.258-2.78,0.472-4.161
		c0.02-0.129,0.001-0.191-0.011-0.206c-0.028-0.033-0.216-0.076-0.445-0.038c-0.518,0.084-1.034,0.178-1.55,0.271
		c-1.352,0.246-2.748,0.5-4.148,0.57c-1.345,0.068-1.827,0.604-1.842,2.045c-0.013,1.244-0.01,2.488-0.007,3.731l0.003,2.168
		H107.236z"/>
	<path d="M10.926,84.378c-0.426,0-0.894-0.207-1.354-0.603c-1.546-1.327-2.527-2.659-3.088-4.194
		c-1.086-2.97-1.721-6.08-2.335-9.088l-0.206-1c-0.481-2.339,0.547-2.997,2.745-3.452c0.597-0.125,1.11-0.185,1.569-0.185
		c1.988,0,2.581,1.21,2.728,2.225c0.154,1.059,0.366,2.135,0.573,3.176c0.5,2.528,1.018,5.144,0.767,7.844
		c0.003,0.32,0.012,0.69,0.021,1.062c0.021,0.854,0.043,1.738-0.049,2.612C12.142,84.264,11.208,84.378,10.926,84.378z
		 M8.259,66.918c-0.38,0-0.836,0.055-1.354,0.162c-2.053,0.425-2.205,0.821-1.921,2.198l0.206,1.004
		c0.606,2.969,1.233,6.039,2.292,8.935c0.497,1.356,1.381,2.55,2.783,3.753c0.375,0.322,0.602,0.347,0.662,0.347
		c0.235,0,0.305-0.544,0.316-0.653c0.085-0.807,0.065-1.617,0.043-2.476c-0.01-0.378-0.019-0.758-0.019-1.136
		c0.239-2.596-0.264-5.134-0.75-7.59c-0.208-1.054-0.424-2.143-0.582-3.229C9.8,67.3,9.314,66.918,8.259,66.918z"/>
	<path d="M117.95,84.314c-0.146,0-0.295-0.02-0.445-0.055c-1.388-0.33-1.353-1.568-1.328-2.389c0.006-0.227,0.015-0.45-0.008-0.653
		c-0.062-0.572-0.047-1.146-0.032-1.699c0.006-0.238,0.012-0.475,0.012-0.711c0.018-2.154,0.388-4.274,0.746-6.323
		c0.25-1.432,0.509-2.912,0.639-4.372c0.135-1.495,0.939-2.253,2.392-2.253c0.407,0,0.812,0.053,1.206,0.104l0.227,0.029
		c1.019,0.127,2.284,0.286,2.946,1.146c0.347,0.45,0.476,1.029,0.382,1.718c-0.628,4.653-1.277,9.467-4.345,13.53
		c-0.087,0.115-0.175,0.24-0.263,0.367C119.592,83.449,118.987,84.314,117.95,84.314z M119.925,66.921
		c-0.772,0-1.237,0.211-1.334,1.286c-0.134,1.505-0.396,3.006-0.65,4.46c-0.351,2.007-0.713,4.081-0.729,6.145
		c0,0.242-0.007,0.487-0.013,0.734c-0.015,0.543-0.028,1.056,0.026,1.558c0.027,0.247,0.021,0.521,0.014,0.799
		c-0.026,0.939,0.033,1.211,0.514,1.325c0.567,0.135,0.922-0.321,1.455-1.083c0.096-0.138,0.191-0.273,0.287-0.4
		c2.898-3.841,3.529-8.512,4.14-13.03c0.055-0.404-0.002-0.707-0.173-0.929c-0.391-0.509-1.413-0.637-2.235-0.739l-0.231-0.03
		C120.635,66.97,120.263,66.921,119.925,66.921z"/>
	<path d="M12.149,53.922c-0.269,0-0.562-0.059-0.897-0.181c-2.168-0.785-4.398-1.522-6.294-2.14
		c-0.653-0.212-1.084-0.551-1.28-1.004c-0.188-0.432-0.15-0.934,0.111-1.49c0.19-0.405,0.377-0.812,0.564-1.22
		c1.016-2.215,2.067-4.506,3.672-6.449l0.067-0.082c0.662-0.804,1.568-1.904,2.865-1.904c0.341,0,0.688,0.078,1.033,0.231
		c1.649,0.735,1.748,2.757,1.79,3.62c0.046,0.944,0.035,1.898,0.025,2.821c-0.003,0.229-0.005,0.458-0.007,0.687l0.15,0.001
		l-0.099,1.931c-0.055,1.099-0.11,2.198-0.186,3.296C13.555,53.595,12.78,53.922,12.149,53.922z M10.958,40.514
		c-0.796,0-1.46,0.806-2.046,1.517l-0.068,0.083c-1.516,1.836-2.538,4.062-3.526,6.216C5.129,48.74,4.941,49.15,4.75,49.558
		C4.663,49.743,4.575,50,4.651,50.175c0.069,0.16,0.289,0.304,0.635,0.417c1.904,0.62,4.145,1.36,6.327,2.151
		c0.215,0.078,0.395,0.117,0.536,0.117c0.147,0,0.393,0,0.455-0.894c0.075-1.091,0.13-2.184,0.185-3.275l0.042-0.836l-0.097-0.002
		v-0.518c0-0.407,0.004-0.815,0.009-1.223c0.01-0.907,0.021-1.844-0.024-2.756c-0.056-1.159-0.236-2.29-1.161-2.702
		C11.347,40.56,11.151,40.514,10.958,40.514z"/>
	<path d="M117.398,53.39c-0.519,0-1.725-0.217-1.729-2.221l-0.003-3.08l0.002-2.05c0.042-0.37,0.039-0.775,0.036-1.245
		c-0.009-1.007-0.017-2.262,0.369-3.506c0.371-1.196,1.159-1.909,2.109-1.909c0.506,0,1.03,0.208,1.52,0.603
		c2.611,2.107,4.457,5.031,5.646,8.939c0.323,1.065-0.081,1.944-1.055,2.293c-1.656,0.593-3.843,1.361-6.074,2.042
		C117.925,53.344,117.649,53.39,117.398,53.39z M118.183,40.44c-0.467,0-0.866,0.423-1.096,1.161
		c-0.337,1.088-0.328,2.251-0.321,3.185c0.003,0.507,0.006,0.945-0.04,1.318l0.005,5.062c0.003,1.162,0.469,1.162,0.668,1.162
		c0.146,0,0.317-0.03,0.511-0.089c2.21-0.673,4.382-1.436,6.026-2.024c0.291-0.105,0.6-0.312,0.396-0.984
		c-1.124-3.698-2.855-6.453-5.296-8.422C118.738,40.567,118.442,40.44,118.183,40.44z"/>
</g>
</svg>
