<?xml version="1.0" encoding="utf-8"?>
<!-- Generator: Adobe Illustrator 16.0.4, SVG Export Plug-In . SVG Version: 6.00 Build 0)  -->
<!DOCTYPE svg PUBLIC "-//W3C//DTD SVG 1.1//EN" "http://www.w3.org/Graphics/SVG/1.1/DTD/svg11.dtd">
<svg version="1.1" id="Layer_3505" xmlns="http://www.w3.org/2000/svg" xmlns:xlink="http://www.w3.org/1999/xlink" x="0px" y="0px"
	 width="128px" height="128px" viewBox="0 0 128 128" enable-background="new 0 0 128 128" xml:space="preserve">
<g>
	<path d="M107.5,37.349c0-6.594,0.771-9.184-4.645-14.365c-5.416-5.181-13.355-4.71-13.355-4.71V14.5h2V4.381
		c-7-5.888-49-5.181-55,0V14.5h2v3.774c0,0-7.94-0.471-13.356,4.709c-5.416,5.18-4.644,7.772-4.644,14.366
		c0,6.593,0,77.002,0,77.002s-0.453,7.064,5.669,9.185c5.649,1.955,16.331,3.907,35.331,4.198v0.039c1,0,1.688-0.004,2.5-0.01
		c0.812,0.006,1.5,0.01,2.5,0.01v-0.039c19-0.291,29.678-2.243,35.326-4.198c6.123-2.119,5.674-9.185,5.674-9.185
		S107.5,43.942,107.5,37.349z M22.5,106.367V50.149c11,4.639,72.988,4.082,82.354,0l0.135,56.218
		C95.625,110.449,33.5,111.006,22.5,106.367z"/>
</g>
</svg>
