<?xml version="1.0" encoding="utf-8"?>
<!-- Generator: Adobe Illustrator 16.0.4, SVG Export Plug-In . SVG Version: 6.00 Build 0)  -->
<!DOCTYPE svg PUBLIC "-//W3C//DTD SVG 1.1//EN" "http://www.w3.org/Graphics/SVG/1.1/DTD/svg11.dtd">
<svg version="1.1" id="Layer_3606" xmlns="http://www.w3.org/2000/svg" xmlns:xlink="http://www.w3.org/1999/xlink" x="0px" y="0px"
	 width="128px" height="128px" viewBox="0 0 128 128" enable-background="new 0 0 128 128" xml:space="preserve">
<g id="_x35_BJII4.tif">
	<g>
		<path fill-rule="evenodd" clip-rule="evenodd" d="M66.84,59.722c0-0.666,0.013-1.332-0.003-1.997c-0.031-1.521-0.035-3,0.807-4.4
			c0.533-0.885,0.631-1.978,0.694-3.032c0.101-1.676,0.308-3.355,0.134-5.031c-0.189-1.846-1.006-3.4-2.543-4.489
			c-1.994-1.413-4.506-1.216-6.278,0.457c-1.125,1.062-1.842,2.379-1.953,3.911c-0.166,2.277-0.066,4.558,0.362,6.812
			c0.161,0.845,0.437,1.667,0.898,2.389c0.398,0.625,0.489,1.267,0.483,1.98c-0.021,2.663-0.007,5.327-0.01,7.989
			c-0.001,1.181-0.008,1.191-1.161,0.819c-3.788-1.225-6.375-3.806-8.094-7.305c-1.763-3.592-2.203-7.428-1.979-11.383
			c0.239-4.228,1.975-7.885,4.232-11.346c2.061-3.158,4.17-6.284,6.376-9.344c1.187-1.646,2.277-3.351,3.227-5.149
			c1.812-3.428,2.108-6.972,1.022-10.68c-0.787-2.686-1.985-5.202-3.05-7.774c-0.145-0.351-0.319-0.693-0.429-1.055
			c-0.069-0.227-0.348-0.516-0.133-0.688c0.245-0.196,0.505,0.112,0.73,0.248c0.957,0.573,1.805,1.286,2.592,2.073
			c2.101,2.104,3.709,4.569,5.243,7.092c0.245,0.402,0.441,1.123,0.779,1.105c0.352-0.018,0.409-0.77,0.648-1.173
			c0.175-0.295,0.168-0.847,0.477-0.864c0.299-0.017,0.395,0.51,0.554,0.808c3.118,5.861,5.766,11.912,7.43,18.36
			c1.072,4.151,1.765,8.35,1.926,12.65c0.162,4.312-0.196,8.541-1.616,12.631c-1.82,5.238-5.16,9.098-10.394,11.18
			c-0.93,0.37-0.955,0.359-0.962-0.608c-0.013-1.395-0.004-2.791-0.004-4.186C66.845,59.722,66.843,59.722,66.84,59.722z"/>
		<path fill-rule="evenodd" clip-rule="evenodd" d="M60.756,93.789c0-13.008,0-26.016,0-39.023c0-0.078-0.011-0.158,0-0.235
			c0.031-0.216-0.114-0.526,0.14-0.621c0.189-0.07,0.322,0.216,0.48,0.342c1.197,0.953,2.491,0.925,3.709-0.082
			c0.135-0.111,0.239-0.355,0.428-0.288c0.248,0.089,0.138,0.364,0.139,0.554c0.008,2.716,0.004,5.433,0.004,8.149
			c0,14.235,0,28.471,0.001,42.707c0,9.194,0.001,12.646,0.001,21.841c0,0.209-0.008,0.418-0.005,0.627
			c0.004,0.332-0.166,0.456-0.487,0.455c-1.306-0.008-2.612-0.011-3.918,0.002c-0.38,0.004-0.513-0.163-0.494-0.52
			c0.013-0.234,0-0.47,0-0.705c0-12.981,0-20.222,0-33.203C60.755,93.789,60.755,93.789,60.756,93.789z"/>
		<path fill-rule="evenodd" clip-rule="evenodd" d="M66.928,46.896c-0.128,0.835-0.026,1.969-0.292,3.067
			c-0.225,0.928-0.625,1.769-1.287,2.468c-1.238,1.308-2.929,1.343-4.227,0.092c-0.556-0.536-0.959-1.178-1.184-1.909
			c-0.519-1.692-0.586-3.433-0.406-5.178c0.079-0.766,0.464-1.433,0.979-2.009c1.523-1.704,4.026-1.646,5.465,0.133
			C66.696,44.45,66.999,45.48,66.928,46.896z"/>
	</g>
</g>
</svg>
