<?xml version="1.0" encoding="utf-8"?>
<!-- Generator: Adobe Illustrator 16.0.4, SVG Export Plug-In . SVG Version: 6.00 Build 0)  -->
<!DOCTYPE svg PUBLIC "-//W3C//DTD SVG 1.1//EN" "http://www.w3.org/Graphics/SVG/1.1/DTD/svg11.dtd">
<svg version="1.1" id="Layer_3701" xmlns="http://www.w3.org/2000/svg" xmlns:xlink="http://www.w3.org/1999/xlink" x="0px" y="0px"
	 width="128px" height="128px" viewBox="0 0 128 128" enable-background="new 0 0 128 128" xml:space="preserve">
<path fill-rule="evenodd" clip-rule="evenodd" d="M58.495,96.964c-1.506-0.246-3.013-0.479-4.515-0.744
	c-0.526-0.093-0.952-0.42-1.377-0.731c-8.166-5.987-16.331-11.978-24.499-17.961C18.773,70.691,9.44,63.859,0.107,57.028
	c-1.129-0.827-1.424-2.163-0.746-3.418c0.211-0.39,0.599-0.479,0.971-0.598c5.985-1.913,11.969-3.826,17.955-5.737
	c0.166-0.053,0.345-0.068,0.506-0.132c0.316-0.125,0.492-0.227,0.229-0.655c-0.496-0.81-0.425-1.009,0.441-1.293
	c3.316-1.087,6.645-2.141,9.973-3.193c0.746-0.235,1.507-0.173,2.125,0.308c0.61,0.475,1.174,0.387,1.833,0.174
	c7.184-2.316,14.374-4.616,21.562-6.917c4.28-1.37,8.565-2.725,12.84-4.109c1.14-0.369,2.252-0.603,3.457-0.267
	c0.749,0.209,1.547,0.246,2.325,0.346c0.845,0.108,1.571,0.451,2.259,0.956c5.941,4.37,11.895,8.726,17.846,13.085
	c2.042,1.496,4.096,2.977,6.124,4.49c0.534,0.398,1.036,0.578,1.68,0.291c1.005-0.449,1.868-0.066,2.68,0.529
	c2.569,1.883,5.145,3.76,7.708,5.653c1.106,0.817,1.103,0.896,0,1.787c-0.234,0.189-0.264,0.323-0.045,0.504
	c0.269,0.223,0.542,0.44,0.823,0.646c5.216,3.811,10.435,7.619,15.649,11.429c1.079,0.788,1.37,2.325,0.668,3.456
	c-0.259,0.416-0.706,0.489-1.115,0.62c-4.362,1.397-8.728,2.789-13.092,4.183c-6.026,1.924-12.053,3.849-18.08,5.772
	c-12.303,3.927-24.606,7.854-36.909,11.782C59.357,96.854,58.948,97.007,58.495,96.964z M38.334,78.722l-0.01,0.009L38.334,78.722z
	 M37.291,77.952l0.01-0.01L37.291,77.952z M34.408,75.855l0.01-0.009L34.408,75.855z M33.356,75.054l-0.01,0.008L33.356,75.054z
	 M40.956,80.567l0.004-0.005c0.122,0.124,0.229,0.269,0.367,0.37c4.93,3.614,9.868,7.217,14.787,10.845
	c0.558,0.411,1.052,0.452,1.693,0.241c2.612-0.858,5.241-1.666,7.861-2.498c2.662-0.846,5.323-1.696,7.982-2.551
	c0.163-0.052,0.31-0.153,0.464-0.231c-0.148-0.085-0.301-0.163-0.443-0.257c-0.509-0.338-1.025-0.665-1.519-1.025
	c-4.266-3.115-8.535-6.229-12.782-9.369c-0.689-0.51-1.298-0.651-2.154-0.367c-4.681,1.552-9.387,3.031-14.081,4.543
	C42.423,80.493,41.714,80.692,40.956,80.567z M31.26,73.493l0.006-0.007c0.005-0.833,0.689-0.925,1.251-1.106
	c3.611-1.162,7.229-2.307,10.844-3.46c1.122-0.358,2.247-0.707,3.358-1.097c0.77-0.27,0.766-0.344,0.112-0.894
	c-0.1-0.085-0.203-0.165-0.309-0.243c-7.001-5.134-14.008-10.26-20.996-15.413c-0.718-0.529-1.374-0.586-2.19-0.302
	c-1.688,0.587-3.402,1.098-5.106,1.643c-3.323,1.062-6.646,2.127-9.969,3.188c-0.548,0.175-0.803,0.395-0.159,0.804
	c0.184,0.117,0.357,0.25,0.533,0.379c4.401,3.22,8.798,6.446,13.203,9.661C24.974,68.936,28.119,71.212,31.26,73.493z M60.736,63.33
	c0.337-0.096,0.718-0.193,1.091-0.312c2.411-0.766,4.819-1.537,7.229-2.306c7.895-2.518,15.791-5.032,23.682-7.562
	c0.516-0.166,1.353-0.158,1.418-0.699c0.061-0.509-0.732-0.771-1.176-1.098c-6.818-5.015-13.654-10.006-20.464-15.033
	c-0.702-0.519-1.307-0.627-2.148-0.353c-5.266,1.717-10.551,3.374-15.828,5.058c-5.277,1.684-10.552,3.373-15.824,5.072
	c-0.317,0.103-0.799,0.092-0.886,0.454c-0.115,0.478,0.414,0.598,0.708,0.814c1.614,1.192,3.245,2.363,4.863,3.55
	c5.383,3.947,10.762,7.899,16.147,11.845C59.892,63.011,60.208,63.343,60.736,63.33z M120.615,71.767
	c-0.047-0.353-0.364-0.463-0.602-0.638c-4.613-3.378-9.236-6.742-13.832-10.142c-0.596-0.44-1.098-0.524-1.799-0.294
	c-3.439,1.131-6.897,2.207-10.348,3.305c-7.275,2.317-14.549,4.635-21.822,6.958c-0.277,0.089-0.713,0.081-0.756,0.383
	c-0.045,0.316,0.393,0.413,0.629,0.586c2.812,2.068,5.639,4.118,8.449,6.189c1.861,1.371,3.734,2.731,5.531,4.184
	c0.437,0.354,0.713,0.489,1.234,0.31c1.236-0.426,2.495-0.79,3.742-1.188c7.98-2.546,15.96-5.093,23.938-7.645
	c1.662-0.531,3.318-1.081,4.978-1.623C120.202,72.072,120.479,72.043,120.615,71.767z"/>
</svg>
