<?xml version="1.0" encoding="utf-8"?>
<!-- Generator: Adobe Illustrator 16.0.4, SVG Export Plug-In . SVG Version: 6.00 Build 0)  -->
<!DOCTYPE svg PUBLIC "-//W3C//DTD SVG 1.1//EN" "http://www.w3.org/Graphics/SVG/1.1/DTD/svg11.dtd">
<svg version="1.1" id="Layer_3705" xmlns="http://www.w3.org/2000/svg" xmlns:xlink="http://www.w3.org/1999/xlink" x="0px" y="0px"
	 width="128px" height="128px" viewBox="0 0 128 128" enable-background="new 0 0 128 128" xml:space="preserve">
<g>
	<g>
		<g>
			<path fill-rule="evenodd" clip-rule="evenodd" d="M77.153,63.776c0.469-0.153,1.038,0.041,1.398-0.51
				c0.325-0.498-1.093-1.749,0.639-1.575c1.681,0.169,2.652,1.031,2.8,2.289c0.11,0.94-0.259,1.613-0.963,2.283
				c-1.417,1.352-3.153,2.132-4.826,3.042c-0.482,0.263-0.979,0.413-0.098,0.921c1.28,0.738,1.619,2.221,2.333,3.395
				c0.489,0.805,0.338,1.707-0.15,2.497c-0.318,0.516-0.685,1.02-1.11,1.447c-0.794,0.798-1.845,2.192-2.703,1.716
				c-1.102-0.612,0.173-1.957,0.283-3.004c0.036-0.343,0.258-0.684,0.229-1.012c-0.029-0.349,0.51-1.219-0.459-0.938
				c-0.736,0.213-0.629-1.678-1.674-0.461c-0.808,0.939-2.119,1.158-3.344,1.342c-0.791,0.119-0.884-0.298-0.683-0.912
				c0.079-0.241,0.239-0.459,0.298-0.703c0.259-1.096,2.056-0.633,1.986-1.708c-0.059-0.894-1.964-0.551-1.939-1.447
				c0.065-2.417-1.711-1.915-2.997-2.122c-5.194-0.834-10.427-1.137-15.678-0.761c-3.132,0.225-3.111,0.294-3.083,3.37
				c0.03,3.314,0.438,6.624-0.101,9.943c-0.287,1.77-0.175,1.801-2.067,1.854c-1.398,0.039-2.798,0.025-4.197,0.051
				c-2.087,0.039-2.234-0.089-2.244-2.166c-0.027-5.681-0.061-11.361-0.062-17.043c-0.006-19.065,0-38.131,0.005-57.196
				c0.001-3.712,0.009-3.712,3.784-3.718c3.411-0.003,6.822-0.015,10.233-0.006c1.778,0.004,2.031,0.188,1.531,1.714
				c-1.032,3.148-1.584,6.431-2.892,9.505c-1.617,3.798-2.566,7.802-2.614,11.938c-0.076,6.662-0.938,13.24-1.822,19.822
				c-0.469,3.484-0.295,6.984-0.213,10.478c0.036,1.563-0.167,3.131,0.244,4.698c0.266,1.016,0.647,1.209,1.623,0.873
				c2.379-0.819,4.91-1.269,6.74-3.249c0.896-0.97,0.848-1.55-0.351-2.104c-1.187-0.548-2.565-0.357-3.748-1.049
				c-0.677-0.397-1.731-0.661-1.5-1.473c0.24-0.839,1.36-0.521,2.08-0.436c1.641,0.196,3.296,0.385,4.829,1.094
				c0.19,0.089,0.498,0.235,0.515-0.17c0.006-0.124-0.18-0.346-0.31-0.374c-1.564-0.334-2.096-1.651-2.986-2.75
				c-0.805-0.992-0.539-1.178,0.277-1.584c1.61-0.802,2.477-0.566,3.642,0.837c0.904,1.089,1.052,2.357,1.11,3.684
				c0.069,1.57,0.733,2.394,2.221,2.597c1.123,0.154,2.268,0.147,3.402,0.218c1.857,0.115,3.287,1.07,4.512,2.372
				c0.291,0.31,0.45,0.837,0.049,1.173c-0.295,0.248-0.675-0.033-0.893-0.274c-1.239-1.371-3.259-0.439-4.606-1.564
				c-0.153-0.129-0.764,0.29-1.161,0.455L62.4,58.945l0.078,0.089c0.258,0.923,1.118,1.581,1.15,2.603
				c0.018,0.531,0.019,1.109-0.504,1.385c-0.617,0.326-0.984-0.207-1.243-0.624c-0.549-0.882-0.963-1.848-1.522-2.722
				c-0.826-1.291-1.921-1.509-3.018-0.545c-2.287,2.01-5.033,3.072-7.858,3.995c-0.33,0.108-0.69,0.115-1.024,0.213
				c-0.618,0.18-1.176,0.477-1.125,1.232c0.06,0.906,0.816,0.752,1.386,0.779c2.789,0.132,5.58,0.32,8.372,0.329
				c3.787,0.012,7.477,0.534,11.087,1.662c0.582,0.182,1.174,0.407,1.771,0.444c1.217,0.077,1.807-0.74,1.371-1.912
				c-0.297-0.804-0.488-1.638-0.936-2.409c-0.468-0.807-0.521-1.757-0.056-2.679c0.553-1.097,0.771-1.127,1.827-0.423
				c1.385,0.923,2.284,2.109,2.531,3.786c0.075,0.506,0.31,0.997,0.513,1.478c0.14,0.331,0.423,0.67,0.783,0.579
				c0.864-0.217-0.203-0.75,0.049-0.872c0.707-0.34,1.251-0.712,1.158-1.596L77.153,63.776z M75.798,67.575
				c0.012-0.127,0.021-0.256,0.033-0.382c-0.039,0.059-0.104,0.117-0.109,0.18C75.717,67.438,75.77,67.508,75.798,67.575z"/>
			<path fill-rule="evenodd" clip-rule="evenodd" d="M62.331,37.399c0-0.78-0.042-1.564,0.009-2.341
				c0.1-1.542,1.584-3.475,2.97-3.871c0.747-0.213,1.293,0.246,1.314,0.884c0.053,1.526,0.516,2.627,2.026,3.283
				c1.024,0.444,0.687,1.664,0.527,2.348c-0.252,1.084-0.099,2.002,0.202,2.989c0.786,2.575-0.877,4.289-2.255,6.043
				c-0.572,0.729-2.206,0.277-2.265-0.74c-0.113-1.993-1.298-3.263-2.311-4.742c-0.529-0.772-0.275-1.858-0.159-2.814
				c0.041-0.344,0.052-0.692,0.075-1.038C62.422,37.401,62.376,37.4,62.331,37.399z"/>
			<path fill-rule="evenodd" clip-rule="evenodd" d="M70.063,27.417c0.665-1.693,1.332-3.181,1.426-4.856
				c0.018-0.327,0.72-0.76,1.177-0.88c0.569-0.151,0.951,0.413,1.153,0.854c0.319,0.702,0.604,1.458,0.694,2.217
				c0.194,1.609,0.191,3.229,0.994,4.732c0.318,0.597,0.313,1.468-0.188,1.985c-0.671,0.69-1.147,1.447-1.62,2.277
				c-0.558,0.979-1.98,0.802-2.217-0.23C71.008,31.443,71.157,29.242,70.063,27.417z"/>
			<path fill-rule="evenodd" clip-rule="evenodd" d="M72.06,47.001c-0.03-0.509,0.401-0.807,0.484-1.206
				c0.155-0.749,0.08-1.792,1.111-1.701c0.903,0.08,0.871,1.123,0.981,1.864c0.206,1.392,1.011,2.796-0.366,4.114
				c-0.641,0.614-1.048,0.628-1.341-0.12C72.554,48.991,72.336,47.965,72.06,47.001z"/>
			<path fill-rule="evenodd" clip-rule="evenodd" d="M79.133,54.855c0.051-0.808,0.132-1.43,0.55-1.881
				c0.45-0.485,1.005-0.674,1.53-0.041c0.752,0.905,0.839,2.932,0.166,3.851c-0.614,0.837-1.299,0.807-1.726-0.147
				C79.378,56.021,79.267,55.329,79.133,54.855z"/>
		</g>
		<g>
			<path d="M48.789,108.818c0.048-4.137,0.997-8.266,2.614-12.064c1.308-3.074,1.86-6.42,2.892-9.567
				c0.5-1.526,0.247-1.741-1.531-1.745c-3.411-0.01-6.822-0.014-10.233-0.01c-3.775,0.006-3.783,0.248-3.784,3.96
				c-0.004,12.955-0.003,26.108-0.003,39.108h8.276C47.885,121.5,48.715,115.349,48.789,108.818z"/>
			<path d="M75.987,102.847c3.578-0.007,5.882-2.429,5.876-5.937c-0.035-3.301-2.695-6.135-5.788-6.166
				c-3.184-0.033-6.095,3.014-5.848,6.379C70.509,100.973,72.572,102.854,75.987,102.847z"/>
			<path d="M69.38,123.707c-0.301-0.986-0.454-2.029-0.202-3.114c0.159-0.685,0.497-1.967-0.527-2.411
				c-1.511-0.656-1.974-1.788-2.026-3.314c-0.021-0.639-0.567-1.113-1.314-0.899c-1.386,0.396-2.87,2.487-2.97,4.028
				c-0.051,0.777-0.009,1.504-0.009,2.504c0.045,0,0.091,0,0.135,0c-0.023,0-0.034,0.528-0.075,0.872
				c-0.116,0.955-0.37,2.207,0.159,2.98c0.878,1.281,1.881,2.147,2.208,4.147H68.3C69.246,126.5,69.943,125.554,69.38,123.707z"/>
			<path d="M73.699,116.51c0.473-0.83,0.949-1.586,1.62-2.276c0.502-0.517,0.507-1.388,0.188-1.985
				c-0.803-1.503-0.8-3.123-0.994-4.732c-0.091-0.758-0.375-1.514-0.694-2.217c-0.202-0.44-0.584-1.004-1.153-0.854
				c-0.457,0.121-1.159,0.555-1.177,0.881c-0.094,1.676-0.761,3.163-1.426,4.856c1.094,1.825,0.944,4.025,1.419,6.097
				C71.719,117.312,73.142,117.489,73.699,116.51z"/>
		</g>
	</g>
	<path d="M38.5,126.986c0-7.235,0-14.471,0-21.705c0-5.765,0.24-11.528,0.241-17.292c0-0.495,0.047-0.484,0.604-0.485
		c2.332-0.004,4.725-0.012,7.056-0.012c7.94,0.004,15.911,0.012,23.851,0.015c1.65,0.001,3.314-0.015,4.964-0.015
		c4.915,0.002,9.838,0.008,14.753,0.012c0.048,0,0.1,0.005,0.147,0c0.223-0.025,0.371,0.051,0.352,0.298
		c-0.018,0.202,0.032,0.406,0.032,0.609c0,3.182,0,6.362,0,9.544c0,8.539,0,17.077,0,25.615c0,1.463,0,2.93,0,4.93h12
		c0,0,0-1.163,0-1.475c0-4.927,0-9.854,0-14.781c0-9.04,0.248-18.081,0.246-27.122c0-0.046,0.121-0.069,0.121-0.106
		c0-0.036-0.183-0.061-0.183-0.106c0.001-1.388-0.185-2.774-0.185-4.161c0-7.93,0-15.857,0-23.786c0-4.665,0-9.329,0-13.993
		c0-4.927,0-9.854,0-14.781c0-9.041,0.248-18.082,0.246-27.123c0-0.435,0.122-0.436-0.299-0.437
		c-2.236-0.001-4.409-0.003-6.646-0.003c-7.271,0-14.513,0.002-21.784,0.002c-9.926,0-19.836-0.002-29.763-0.002
		c-5.992,0-11.976,0.001-17.967,0.002c-0.084,0-0.163,0.003-0.247,0.002c-0.132,0-0.368,0.065-0.37,0.196
		c-0.001,0.084-0.17,0.168-0.17,0.251c0,10.859,0,21.718,0,32.578c0,16.887,0,33.774,0,50.663c0,0.184,0.178,0.366,0.178,0.55
		c0,0.007-0.091,0.009-0.091,0.017c-0.001,0.083-0.087,0.167-0.087,0.25c0,10.859,0,21.719,0,32.578c0,3.415,0,7.787,0,10.787h13
		C38.5,128.5,38.5,127.311,38.5,126.986z M97.973,124.139c-0.752,0.01-1.473,0.002-2.473,0.002v0.002c-1,0-1.266,0.002-2.006-0.002
		c-0.783-0.004-1.148-0.467-1.155-1.243c-0.007-0.8,0.047-1.601,0.055-2.4c0.006-0.695,0.528-1.211,1.218-1.216
		c1.516-0.011,3.045-0.01,4.562,0c0.662,0.004,1.19,0.514,1.205,1.178c0.019,0.836-0.048,1.673-0.065,2.509
		C99.298,123.646,98.65,124.13,97.973,124.139z M99.388,112.355c-0.012,0.692-0.486,1.176-1.181,1.182
		c-1.529,0.013-3.06,0.014-4.589,0c-0.704-0.006-1.162-0.485-1.17-1.186c-0.01-0.812-0.012-1.626-0.001-2.439
		c0.009-0.727,0.468-1.188,1.19-1.197c0.765-0.011,1.529-0.002,2.295-0.002c0.741,0,1.483,0.02,2.224-0.006
		c0.775-0.027,1.228,0.607,1.233,1.21C99.397,110.729,99.401,111.543,99.388,112.355z M99.389,101.789
		c-0.011,0.729-0.522,1.199-1.257,1.201c-1.47,0.006-2.939-0.007-4.409-0.01c-0.791-0.002-1.273-0.492-1.277-1.28
		c-0.004-0.764,0.017-1.433-0.006-2.196c-0.021-0.73,0.513-0.748,1.29-0.703c0.369,0.021,0.74,0.699,1.111,0.699
		c0.357,0,0.717,0,1.075,0c0.741,0,1.482-0.676,2.222-0.703c0.577-0.021,1.252,0.085,1.254,0.889
		C99.394,100.486,99.399,100.988,99.389,101.789z M92.446,91.103c-0.007-0.788-0.008-1.577,0-2.364
		c0.007-0.722,0.492-1.226,1.211-1.23c1.505-0.012,3.01-0.01,4.514,0.001c0.693,0.004,1.203,0.505,1.217,1.198
		c0.016,0.824,0.016,1.648-0.002,2.473c-0.015,0.703-0.716,1.176-1.423,1.184c-0.752,0.009-1.463,0.002-2.463,0.002
		c0,0,0,0.001,0,0.002c-1,0-1.25,0.003-1.979-0.001C92.719,92.361,92.452,91.897,92.446,91.103z M101.578,82.081
		c-0.15,0.337-0.305,0.673-0.459,1.009c-0.057,0.122-0.112,0.105-0.163-0.006c-0.147-0.324-0.297-0.649-0.445-0.975
		c-0.072-0.159-0.035-0.259,0.156-0.251c0.221,0.009,0.236-0.095,0.162-0.266c-0.1-0.229-0.186-0.465-0.292-0.69
		c-0.08-0.168-0.049-0.246,0.144-0.242c0.131,0.002,0.263,0,0.43,0c0.493,0.01,0.627-0.123,0.304,0.528
		c-0.048,0.096-0.097,0.191-0.14,0.29c-0.129,0.299-0.125,0.317,0.191,0.378C101.63,81.887,101.628,81.969,101.578,82.081z
		 M101.388,59.65c-0.223,0.027-0.453,0.029-0.677,0.006c-0.37-0.038-0.562-0.295-0.532-0.67c0.027-0.357,0.198-0.511,0.587-0.525
		c0.095-0.003,0.19,0,0.286,0c0,0,0,0.001,0,0.001c0.095,0,0.19-0.004,0.285,0.001c0.373,0.02,0.551,0.188,0.577,0.542
		C101.94,59.349,101.743,59.607,101.388,59.65z M100.445,49.881c0.203,0.004,0.405,0.001,0.608,0.001
		c0.107,0,0.217-0.011,0.322,0.002c0.17,0.021,0.419-0.098,0.491,0.083c0.095,0.237,0.044,0.518,0.018,0.779
		c-0.009,0.086-0.103,0.082-0.175,0.08c-0.094-0.003-0.164-0.03-0.164-0.143c0-0.083,0-0.167-0.012-0.25s-0.072-0.119-0.152-0.119
		c-0.087-0.001-0.13,0.049-0.137,0.131c-0.005,0.072-0.006,0.144-0.008,0.215c-0.003,0.121-0.072,0.168-0.185,0.167
		c-0.106-0.001-0.209-0.032-0.194-0.155c0.039-0.347-0.156-0.399-0.434-0.375c-0.137,0.012-0.221-0.039-0.226-0.202
		C100.194,49.909,100.294,49.877,100.445,49.881z M101.18,53.857c0.157,0.058,0.315,0.115,0.479,0.147
		c0.293,0.058,0.245,0.274,0.239,0.473c-0.009,0.238-0.196,0.165-0.322,0.167c-0.369,0.008-0.74,0.004-1.109,0
		c-0.139-0.001-0.263-0.02-0.264-0.211c0-0.21,0.143-0.18,0.271-0.181c0.156-0.002,0.311-0.001,0.466-0.007
		c0.03-0.001,0.078-0.02,0.084-0.04c0.013-0.045-0.037-0.052-0.069-0.063c-0.179-0.065-0.357-0.132-0.539-0.192
		c-0.105-0.035-0.204-0.063-0.209-0.205c-0.005-0.144,0.093-0.178,0.197-0.213c0.182-0.06,0.363-0.118,0.543-0.182
		c0.03-0.011,0.07-0.044,0.072-0.069c0.004-0.073-0.064-0.054-0.104-0.055c-0.179-0.006-0.357-0.007-0.537-0.006
		c-0.117,0-0.172-0.051-0.175-0.171c-0.003-0.128,0.037-0.213,0.177-0.215c0.227-0.003,0.453,0,0.681,0c0-0.001,0-0.002,0-0.003
		c0.167,0,0.335-0.01,0.501,0.003c0.125,0.01,0.318-0.074,0.331,0.154c0.01,0.188,0.084,0.416-0.216,0.483
		c-0.173,0.04-0.338,0.116-0.507,0.175c-0.054,0.019-0.135,0.017-0.14,0.087C101.024,53.827,101.12,53.835,101.18,53.857z
		 M101.9,56.187c0.024,0.217-0.083,0.283-0.274,0.246c-0.179-0.035-0.355-0.004-0.534-0.024c-0.202,0-0.405-0.001-0.606,0
		c-0.155,0-0.3-0.015-0.281-0.224c0.018-0.203,0.184-0.152,0.303-0.154c0.237-0.003,0.477,0.02,0.714,0.016
		c0.162-0.002,0.345,0.012,0.397-0.214c0.02-0.086,0.095-0.096,0.17-0.088c0.096,0.01,0.107,0.082,0.109,0.155
		C101.899,55.996,101.89,56.092,101.9,56.187z M101.704,51.488c-0.214-0.005-0.428-0.001-0.641-0.001c0,0,0,0.001,0,0.001
		c-0.214,0-0.428-0.002-0.641,0c-0.141,0.002-0.22-0.042-0.223-0.202c-0.002-0.163,0.078-0.203,0.219-0.201
		c0.428,0.003,0.854,0.002,1.281,0c0.125,0,0.199,0.035,0.2,0.18C101.901,51.408,101.864,51.492,101.704,51.488z M101.898,51.969
		c0.003,0.131-0.043,0.206-0.18,0.208c-0.31,0.003-0.62,0.007-0.93,0.007c-0.153,0-0.254,0.045-0.247,0.223
		c0.006,0.136,0.004,0.278-0.197,0.253c-0.182-0.022-0.131-0.167-0.142-0.277c-0.005-0.047-0.001-0.096-0.001-0.143h0.001
		c0-0.083,0.001-0.167,0-0.25c-0.001-0.131,0.062-0.196,0.196-0.195c0.44,0.002,0.881,0.002,1.322,0.003
		C101.835,51.797,101.896,51.847,101.898,51.969z M100.455,57.082c0.189-0.103,0.394-0.078,0.593-0.101
		c0.179-0.005,0.352-0.003,0.521,0.083c0.222,0.112,0.355,0.258,0.352,0.524c-0.003,0.288-0.139,0.483-0.395,0.576
		c-0.348,0.127-0.707,0.102-1.05-0.026c-0.246-0.093-0.298-0.322-0.304-0.56C100.167,57.356,100.253,57.192,100.455,57.082z
		 M98.105,71.865c-1.459-0.02-2.917-0.001-4.376-0.006c-0.826-0.004-1.28-0.467-1.284-1.296c-0.004-0.753-0.005-1.507,0-2.259
		c0.005-0.828,0.462-1.281,1.295-1.286c0.717-0.004,1.435-0.001,2.151-0.001c0.729,0,1.459-0.002,2.188,0
		c0.833,0.004,1.309,0.478,1.312,1.313c0.004,0.741-0.009,1.482,0.003,2.224C99.405,71.189,98.993,71.876,98.105,71.865z
		 M99.389,47.057c0.013,0.788,0.011,1.577,0.001,2.364c-0.01,0.759-0.708,1.257-1.464,1.267c-0.74,0.01-1.426,0.002-2.426,0.002
		c0,0,0,0.811,0,0.811c-1,0-1.025,0-1.741,0c-0.828,0-1.309-0.883-1.312-1.717c-0.005-0.764,0.014-1.731-0.005-2.494
		c-0.018-0.716,0.552-1.387,1.253-1.377c1.48,0.018,2.962-0.045,4.442-0.04C98.876,45.875,99.378,46.319,99.389,47.057z
		 M99.388,28.298c-0.012,0.693-0.486,1.176-1.181,1.183c-1.529,0.013-3.06,0.014-4.589,0c-0.704-0.007-1.162-0.486-1.17-1.186
		c-0.01-0.813-0.012-1.625-0.001-2.439c0.009-0.727,0.468-1.188,1.19-1.198c0.765-0.01,1.529-0.002,2.295-0.002
		c0.741,0,1.483,0.021,2.224-0.005c0.775-0.027,1.228,0.608,1.233,1.21C99.397,26.672,99.401,27.485,99.388,28.298z M98.089,61.284
		c-0.727-0.041-1.457-0.009-2.186-0.009c0,0,0,0,0,0.001c-0.74,0-1.48,0.005-2.221-0.002c-0.747-0.007-1.229-0.49-1.235-1.238
		c-0.007-0.788-0.007-1.576-0.001-2.364c0.004-0.771,0.477-1.249,1.255-1.257c0.872-0.01,1.743-0.002,2.615-0.001
		c0.597,0,1.194-0.006,1.791,0.002c0.788,0.011,1.274,0.492,1.283,1.277c0.009,0.764-0.01,1.528,0.005,2.292
		C99.41,60.78,98.747,61.321,98.089,61.284z M92.446,4.681c0.007-0.721,0.492-1.225,1.211-1.23c1.505-0.011,3.01-0.009,4.514,0.001
		c0.693,0.004,1.203,0.506,1.217,1.199c0.016,0.823,0.016,1.648-0.002,2.471c-0.015,0.704-0.51,1.177-1.217,1.185
		c-0.752,0.008-1.504,0.002-2.257,0.002c0,0,0,0,0,0c-0.729,0-1.457,0.004-2.185,0c-0.803-0.005-1.275-0.469-1.281-1.264
		C92.439,6.257,92.438,5.469,92.446,4.681z M93.729,14.272c0.369,0.021,0.74,0.228,1.111,0.228c0.357,0,0.717,0,1.075,0
		c0.741,0,1.482-0.204,2.222-0.231c0.577-0.022,1.252,0.32,1.254,1.125c0.002,0.801,0.008,1.544-0.003,2.345
		c-0.011,0.729-0.522,1.197-1.257,1.199c-1.47,0.005-2.939-0.009-4.409-0.012c-0.791-0.002-1.273-0.492-1.277-1.28
		c-0.004-0.764,0.017-1.42-0.006-2.185C92.418,14.73,92.952,14.227,93.729,14.272z M92.429,36.44
		c0.006-0.695,0.52-1.211,1.209-1.216c1.517-0.011,3.033-0.01,4.549,0c0.664,0.004,1.184,0.514,1.199,1.178
		c0.019,0.836,0.019,1.672,0,2.508c-0.015,0.678-0.735,1.162-1.413,1.17c-0.752,0.01-1.473,0.002-2.473,0.002v0.001
		c-1,0-1.266,0.003-2.006-0.001c-0.783-0.005-1.148-0.468-1.155-1.244C92.332,38.041,92.421,37.24,92.429,36.44z M92.446,78.85
		c0.005-0.735,0.492-1.254,1.227-1.262c1.504-0.014,3.01-0.014,4.515,0.002c0.679,0.006,1.19,0.538,1.2,1.221
		c0.014,0.812,0.014,1.624,0,2.436c-0.012,0.707-0.487,1.174-1.2,1.211c-0.381,0.02-0.961-0.006-1.344,0.018
		C96.463,82.499,95.5,82.48,95.5,82.48c0-0.008,0-0.014,0-0.021c-1,0-1.211-0.019-1.916,0.005c-0.887,0.03-1.28-0.618-1.246-1.357
		C92.374,80.355,92.44,79.602,92.446,78.85z M38.5,48.132c0-1.734,0-3.468,0-5.202c0-7.235,0-14.471,0-21.706
		c0-5.764,0.24-11.527,0.241-17.292c0-0.495,0.064-0.484,0.622-0.484c2.331-0.004,4.715-0.013,7.046-0.012
		c7.94,0.004,15.907,0.011,23.847,0.015c1.649,0.001,3.312-0.015,4.962-0.015c4.914,0.002,9.836,0.007,14.752,0.012
		c0.047,0,0.099,0.004,0.146,0c0.224-0.025,0.371,0.051,0.352,0.298C90.451,3.946,90.5,4.151,90.5,4.354c0,3.182,0,6.363,0,9.544
		c0,8.539,0,17.077,0,25.615c0,9.101,0,18.202,0,27.303c0,5.034-0.033,10.09-0.035,15.124c0,0.569,0.035,0.56-0.576,0.56
		c-4.748,0-9.496,0-14.244,0c-7.902,0-15.805-0.021-23.708-0.02c-1.29,0-2.58,0.016-3.87,0.016c-1.124,0.001-2.248-0.027-3.371-0.03
		c-1.733-0.005-3.466-0.004-5.199-0.004c-0.107,0-0.215-0.005-0.323-0.007c-0.134-0.002-0.433-0.072-0.431-0.203
		c0.002-0.132-0.243-0.264-0.243-0.396C38.5,70.615,38.5,59.373,38.5,48.132z M29.541,57.586c0.024-0.688,0.521-1.162,1.207-1.168
		c1.518-0.014,3.036-0.013,4.553,0.001c0.677,0.007,1.202,0.54,1.213,1.215c0.015,0.8,0.015,1.601,0.001,2.402
		c-0.012,0.711-0.549,1.233-1.26,1.239c-0.741,0.007-1.482,0.002-2.223,0.002c-0.741,0-1.483-0.022-2.223,0.006
		c-0.654,0.025-1.27-0.53-1.274-1.188C29.53,59.259,29.511,58.422,29.541,57.586z M29.527,36.49
		c-0.007-0.761,0.647-1.306,1.342-1.276c0.716,0.031,1.434,0.007,2.151,0.007c0.729,0,1.458-0.002,2.187,0.001
		c0.768,0.003,1.304,0.536,1.31,1.306c0.006,0.753,0.005,1.506,0,2.26c-0.006,0.786-0.519,1.294-1.312,1.296
		c-1.458,0.005-2.915,0.005-4.373,0c-0.788-0.002-1.281-0.474-1.299-1.263C29.514,38.044,29.535,37.267,29.527,36.49z
		 M35.203,50.687c-1.458,0.006-2.916,0.005-4.374,0c-0.761-0.003-1.274-0.481-1.295-1.238c-0.022-0.799-0.022-1.601,0.001-2.401
		c0.021-0.749,0.521-1.215,1.264-1.221c0.741-0.006,1.481-0.001,2.222-0.001c0.729,0,1.458,0.019,2.187-0.005
		c0.82-0.026,1.317,0.646,1.312,1.304c-0.005,0.753,0.004,1.506-0.003,2.259C36.51,50.157,35.982,50.684,35.203,50.687z
		 M35.244,29.482c-1.481,0.007-2.963-0.009-4.444,0.007c-0.737,0.008-1.279-0.554-1.273-1.253c0.007-0.776,0.007-1.553-0.001-2.33
		c-0.006-0.662,0.525-1.303,1.302-1.261c0.727,0.04,1.458,0.009,2.187,0.009c0.74,0,1.481-0.004,2.222,0.001
		c0.759,0.006,1.274,0.52,1.28,1.28c0.006,0.752,0.006,1.505,0,2.258C36.512,28.965,36.011,29.479,35.244,29.482z M29.532,4.716
		c0.019-0.787,0.515-1.263,1.302-1.267c1.458-0.006,2.916-0.005,4.375,0c0.782,0.003,1.302,0.526,1.308,1.307
		c0.006,0.753,0.006,1.506,0,2.259c-0.005,0.764-0.519,1.286-1.278,1.292c-0.741,0.007-1.482,0.002-2.223,0.002
		c-0.717,0-1.435-0.022-2.151,0.006c-0.739,0.029-1.345-0.492-1.338-1.305C29.533,6.246,29.514,5.48,29.532,4.716z M29.559,15.092
		c0.046-0.6,0.561-1.034,1.17-1.04c0.765-0.007,1.53-0.002,2.295-0.002l0,0c0.742,0,1.483,0.014,2.224-0.004
		c0.784-0.019,1.261,0.638,1.269,1.235c0.009,0.813,0.015,1.626-0.003,2.439c-0.014,0.656-0.551,1.184-1.203,1.188
		c-1.53,0.009-3.061,0.009-4.591-0.002c-0.615-0.004-1.119-0.444-1.162-1.054C29.492,16.934,29.489,16.01,29.559,15.092z
		 M27.397,2.725c0.274,0.001,0.548,0,0.822,0c0.142,0,0.295,0.024,0.299-0.198c0.001-0.091,0.088-0.097,0.163-0.094
		c0.106,0.005,0.141,0.069,0.139,0.167c-0.002,0.106-0.002,0.214-0.001,0.321c0,0.133-0.063,0.197-0.197,0.195
		c-0.214-0.001-0.429,0-0.643,0c-0.191,0-0.382,0.002-0.572-0.001c-0.133-0.001-0.267,0.001-0.271-0.195
		C27.131,2.718,27.26,2.724,27.397,2.725z M28.415,121.031c0.132,0.016,0.156,0.064,0.097,0.189
		c-0.154,0.322-0.295,0.65-0.441,0.979c-0.06,0.134-0.125,0.131-0.183,0.003c-0.144-0.314-0.281-0.632-0.422-0.948
		c-0.07-0.156-0.02-0.201,0.148-0.215c0.273-0.021,0.274-0.037,0.15-0.303c-0.11-0.237-0.194-0.485-0.323-0.715
		c-0.071-0.127-0.046-0.221,0.143-0.212c0.262,0.013,0.525-0.003,0.788-0.001c0.077,0.001,0.179-0.012,0.17,0.115
		c-0.03,0.071-0.055,0.139-0.086,0.203c-0.082,0.173-0.173,0.341-0.246,0.518c-0.044,0.107-0.131,0.227-0.086,0.337
		C28.176,121.108,28.315,121.019,28.415,121.031z M28.282,88.961c-0.214,0.012-0.432,0.018-0.645-0.004
		c-0.364-0.037-0.555-0.272-0.538-0.629c0.017-0.354,0.195-0.533,0.563-0.56c0.107-0.009,0.215-0.002,0.323-0.002c0,0,0,0,0-0.001
		c0.095,0,0.191-0.005,0.287,0.001c0.36,0.022,0.575,0.241,0.579,0.59C28.856,88.699,28.633,88.943,28.282,88.961z M28.41,81.736
		c0.11,0.023,0.143,0.057,0.095,0.164c-0.149,0.338-0.291,0.678-0.441,1.016c-0.072,0.162-0.131,0.085-0.178-0.02
		c-0.147-0.326-0.293-0.651-0.438-0.978c-0.067-0.151,0.011-0.173,0.146-0.187c0.282-0.027,0.283-0.038,0.173-0.294
		c-0.103-0.241-0.205-0.481-0.314-0.72c-0.07-0.15-0.041-0.222,0.136-0.214c0.131,0.005,0.262,0.001,0.393,0.001
		c0.619-0.002,0.619-0.002,0.349,0.572c-0.041,0.086-0.084,0.17-0.123,0.258C28.073,81.64,28.083,81.666,28.41,81.736z
		 M28.219,86.781c0.142,0,0.295,0.023,0.299-0.198c0.001-0.091,0.088-0.097,0.163-0.095c0.106,0.006,0.141,0.07,0.139,0.168
		c-0.002,0.107-0.002,0.214-0.001,0.321c0,0.133-0.063,0.196-0.197,0.195c-0.214-0.001-0.429-0.001-0.643-0.001
		c-0.191,0-0.382,0.002-0.572,0c-0.133-0.002-0.267,0.001-0.271-0.195c-0.004-0.201,0.125-0.196,0.262-0.195
		C27.671,86.782,27.945,86.782,28.219,86.781z M28.604,54.044c-0.424,0.161-0.849,0.321-1.271,0.487
		c-0.187,0.074-0.202-0.034-0.197-0.172c0.002-0.071,0.014-0.134,0.062-0.196c0.222-0.283,0.228-0.479,0.009-0.732
		c-0.094-0.109-0.098-0.232-0.052-0.333c0.066-0.146,0.193-0.035,0.278-0.004c0.393,0.142,0.781,0.298,1.17,0.449
		c0.115,0.045,0.218,0.091,0.211,0.248C28.81,53.936,28.725,53.998,28.604,54.044z M28.344,52.923
		c-0.236,0.021-0.477,0.023-0.713,0.003c-0.358-0.031-0.538-0.266-0.52-0.633c0.017-0.345,0.211-0.541,0.565-0.562
		c0.107-0.006,0.214-0.001,0.321-0.001c0,0.001,0,0.002,0,0.002c0.107,0,0.215-0.008,0.322,0.001
		c0.322,0.031,0.532,0.272,0.533,0.602C28.852,52.65,28.655,52.894,28.344,52.923z M28.415,36.974
		c0.132,0.017,0.156,0.065,0.097,0.189c-0.154,0.323-0.295,0.652-0.441,0.979c-0.06,0.134-0.125,0.131-0.183,0.003
		c-0.144-0.314-0.281-0.632-0.422-0.948c-0.07-0.157-0.02-0.201,0.148-0.214c0.273-0.021,0.274-0.038,0.15-0.304
		c-0.11-0.237-0.194-0.485-0.323-0.715c-0.071-0.126-0.046-0.221,0.143-0.211c0.262,0.012,0.525-0.002,0.788,0
		c0.077,0.001,0.179-0.012,0.17,0.115c-0.03,0.071-0.055,0.138-0.086,0.203c-0.082,0.172-0.173,0.341-0.246,0.517
		c-0.044,0.108-0.131,0.227-0.086,0.338C28.176,37.052,28.315,36.962,28.415,36.974z M28.146,50.774
		c0.173-0.001,0.372,0.042,0.375-0.24c0.001-0.091,0.1-0.085,0.17-0.083c0.066,0.002,0.112,0.041,0.121,0.107
		c0.019,0.154,0.024,0.308-0.002,0.461c-0.022,0.13-0.125,0.126-0.22,0.127c-0.202,0.001-0.404,0-0.606,0v-0.001
		c-0.226,0-0.451-0.001-0.677,0c-0.119,0.001-0.17-0.055-0.17-0.173c0-0.109,0.032-0.19,0.156-0.191
		C27.577,50.776,27.861,50.777,28.146,50.774z M28.282,4.905c-0.214,0.011-0.432,0.017-0.645-0.004
		c-0.364-0.037-0.555-0.272-0.538-0.628c0.017-0.354,0.195-0.534,0.563-0.561c0.107-0.008,0.215-0.001,0.323-0.001c0,0,0,0,0-0.001
		c0.095,0,0.191-0.005,0.287,0c0.36,0.022,0.575,0.242,0.579,0.59C28.856,4.643,28.633,4.887,28.282,4.905z M29.559,99.148
		c0.046-0.6,0.561-1.034,1.17-1.039c0.765-0.008,1.53-0.002,2.295-0.002v-0.001c0.742,0,1.483,0.014,2.224-0.003
		c0.784-0.02,1.261,0.637,1.269,1.234c0.009,0.812,0.015,1.627-0.003,2.439c-0.014,0.655-0.551,1.183-1.203,1.187
		c-1.53,0.009-3.061,0.009-4.591-0.001c-0.615-0.004-1.119-0.445-1.162-1.055C29.492,100.99,29.489,100.066,29.559,99.148z
		 M29.526,91.067c0.007-0.765-0.012-1.53,0.006-2.295c0.019-0.787,0.515-1.263,1.302-1.267c1.458-0.006,2.916-0.006,4.375,0
		c0.782,0.003,1.302,0.526,1.308,1.308c0.006,0.753,0.006,1.506,0,2.259c-0.005,0.764-0.519,1.285-1.278,1.292
		c-0.741,0.008-1.482,0.002-2.223,0.002c-0.717,0-1.435-0.021-2.151,0.006C30.125,92.401,29.519,91.881,29.526,91.067z
		 M36.517,122.844c-0.006,0.787-0.519,1.295-1.312,1.297c-1.458,0.004-2.915,0.004-4.373,0c-0.788-0.003-1.281-0.475-1.299-1.264
		c-0.018-0.776,0.003-1.553-0.004-2.33c-0.007-0.762,0.647-1.307,1.342-1.276c0.716,0.03,1.434,0.007,2.151,0.007
		c0.729,0,1.458-0.003,2.187,0.001c0.768,0.003,1.304,0.535,1.31,1.306C36.523,121.337,36.522,122.09,36.517,122.844z
		 M35.244,113.539c-1.481,0.008-2.963-0.009-4.444,0.007c-0.737,0.008-1.279-0.554-1.273-1.253c0.007-0.777,0.007-1.553-0.001-2.33
		c-0.006-0.662,0.525-1.303,1.302-1.26c0.727,0.039,1.458,0.008,2.187,0.008c0.74,0,1.481-0.004,2.222,0.002
		c0.759,0.005,1.274,0.52,1.28,1.279c0.006,0.752,0.006,1.506,0,2.258C36.512,113.021,36.011,113.535,35.244,113.539z
		 M36.517,81.119c-0.004,0.817-0.49,1.322-1.308,1.337c-0.729,0.013-1.458,0.003-2.187,0.003c-0.717,0-1.435-0.02-2.151,0.005
		c-0.768,0.027-1.364-0.53-1.348-1.338c0.015-0.741-0.006-1.481,0.007-2.223c0.015-0.822,0.515-1.315,1.333-1.317
		c1.435-0.006,2.869-0.006,4.303,0c0.813,0.002,1.347,0.538,1.351,1.346C36.521,79.66,36.521,80.391,36.517,81.119z M35.181,71.859
		c-1.446,0.003-2.892-0.018-4.337,0.008c-0.754,0.014-1.324-0.542-1.318-1.291c0.007-0.764-0.01-1.529,0.005-2.294
		c0.016-0.8,0.491-1.257,1.291-1.263c0.729-0.006,1.458-0.002,2.187-0.002s1.458-0.004,2.187,0.001
		c0.818,0.006,1.331,0.536,1.326,1.351c-0.005,0.718,0,1.435-0.004,2.151C36.513,71.368,36.027,71.857,35.181,71.859z"/>
</g>
</svg>
