<?xml version="1.0" encoding="utf-8"?>
<!-- Generator: Adobe Illustrator 16.0.4, SVG Export Plug-In . SVG Version: 6.00 Build 0)  -->
<!DOCTYPE svg PUBLIC "-//W3C//DTD SVG 1.1//EN" "http://www.w3.org/Graphics/SVG/1.1/DTD/svg11.dtd">
<svg version="1.1" id="Layer_3706" xmlns="http://www.w3.org/2000/svg" xmlns:xlink="http://www.w3.org/1999/xlink" x="0px" y="0px"
	 width="128px" height="128px" viewBox="0 0 128 128" enable-background="new 0 0 128 128" xml:space="preserve">
<g id="CqCF6v.tif">
	<g>
		<path fill-rule="evenodd" clip-rule="evenodd" d="M43.411,21.579c24.183,0.257,42.409,19.582,42.446,42.158
			c0.039,23.508-18.711,42.686-42.15,42.684c-23.861-0.002-42.229-18.82-42.573-41.502C0.769,40.838,19.69,21.685,43.411,21.579z
			 M58.205,94.358c5.504,0.127,9.929-4.09,10.055-9.586c0.125-5.425-4.267-10.049-9.61-10.118
			c-5.396-0.069-9.986,4.337-10.078,9.675C48.478,89.823,52.71,94.229,58.205,94.358z M33.691,38.518
			c-0.034,5.552,4.194,9.858,9.723,9.905c5.45,0.047,9.983-4.385,9.973-9.747c-0.011-5.39-4.424-9.871-9.798-9.947
			C38.165,28.651,33.725,33.042,33.691,38.518z M67.526,46.368c-5.421,0.02-9.834,4.507-9.751,9.915
			c0.08,5.247,4.545,9.732,9.741,9.787c5.403,0.057,9.917-4.374,9.949-9.764C77.499,50.624,73.221,46.347,67.526,46.368z
			 M38.353,84.464c-0.051-5.469-4.538-10.028-9.877-9.804c-5.896,0.247-9.846,4.826-9.718,9.976
			c0.138,5.565,4.351,9.775,9.897,9.741C34.151,94.343,38.405,89.995,38.353,84.464z M19.337,46.379
			c-5.356-0.005-9.806,4.299-9.878,9.553c-0.079,5.655,4.649,10.288,10.425,10.22c5.047-0.061,9.327-4.903,9.292-10.513
			C29.144,50.584,24.68,46.383,19.337,46.379z M35.705,63.94c-0.032,4.449,3.435,7.929,7.879,7.906
			c4.261-0.021,7.773-3.523,7.805-7.78c0.032-4.23-3.463-7.812-7.709-7.9C39.2,56.071,35.737,59.447,35.705,63.94z"/>
		<path fill-rule="evenodd" clip-rule="evenodd" d="M99.162,95.987c-8.825,0.001-17.65,0.02-26.475-0.036
			c-0.653-0.005-2,0.682-1.92-0.732c0.057-1.006,0.902-1.623,2.192-1.608c2.988,0.033,3.295-0.093,2.866-3.17
			c-0.58-4.164,2.346-7.09,3.179-10.717c0.028-0.127,0.207-0.303,0.323-0.311c0.318-0.017,0.398,0.248,0.401,0.507
			c0.017,1.442,0.055,2.886,0.021,4.327c-0.028,1.211,0.297,1.877,1.711,1.863c5.938-0.055,11.876-0.045,17.814-0.004
			c1.271,0.01,1.569-0.564,1.558-1.699c-0.039-3.818-0.065-7.639,0.016-11.455c0.031-1.455-0.499-1.923-1.911-1.906
			c-5.006,0.058-10.012,0.029-15.019,0.032c-0.594,0.001-1.189,0.019-1.78-0.026c-0.42-0.032-0.859-0.133-0.934-0.668
			c-0.078-0.568,0.1-1.018,0.709-1.149c0.801-0.173,1.822-0.022,2.025-1.139c0.213-1.171,0.181-2.368,0.014-3.55
			c-0.086-0.604-0.566-0.824-1.092-0.879c-0.882-0.093-1.443-0.417-1.35-1.431c0.123-1.329,1.139-1.03,1.92-1.034
			c4.327-0.026,8.654-0.015,12.98-0.015c9.588-0.002,19.175-0.009,28.762,0.001c2.682,0.003,2.715,0.026,2.719,2.656
			c0.016,9.843,0.014,19.686,0.002,29.529c-0.004,2.59-0.031,2.607-2.769,2.609C116.471,95.992,107.816,95.987,99.162,95.987z
			 M114.706,86.081c0,0.002,0,0.004,0,0.007c2.968,0,5.937-0.03,8.903,0.015c1.107,0.017,1.75-0.211,1.735-1.518
			c-0.046-3.985-0.021-7.973,0.003-11.958c0.005-1.028-0.354-1.572-1.469-1.565c-5.937,0.031-11.873,0.047-17.811,0.032
			c-1.183-0.003-1.689,0.476-1.681,1.658c0.028,3.901,0.051,7.804,0.007,11.704c-0.016,1.425,0.719,1.662,1.918,1.641
			C109.109,86.047,111.908,86.081,114.706,86.081z M124.779,90.978c0.022-2.528-0.123-2.757-1.788-2.793
			c-1.821-0.039-2.039,0.229-2.058,2.515c-0.021,2.669,0.175,2.975,1.901,2.982C124.536,93.69,124.758,93.382,124.779,90.978z
			 M116.641,65.874c0.044-0.919,0.224-2.346-1.885-2.319c-1.672,0.021-1.963,0.354-1.969,2.67c-0.008,2.566,0.261,2.96,1.992,2.917
			C116.41,69.103,116.647,68.743,116.641,65.874z M124.777,66.585c0-0.252-0.019-0.505,0.003-0.755
			c0.118-1.379-0.223-2.225-1.891-2.203c-1.569,0.021-2.116,0.675-1.964,2.151c0.061,0.582,0.022,1.174,0.019,1.761
			c-0.008,1.187,0.653,1.599,1.756,1.62C124.389,69.191,124.736,68.786,124.777,66.585z M84.032,91.056
			c0.042-2.57-0.174-2.808-1.97-2.885c-1.911-0.082-1.905,1.111-1.906,2.47c-0.001,2.685,0.166,3.005,1.874,3.04
			C83.74,93.717,83.994,93.384,84.032,91.056z M92.184,90.862c0.031-2.353-0.211-2.605-1.974-2.684
			c-1.993-0.088-1.857,1.223-1.861,2.539c-0.008,2.58,0.254,2.931,1.981,2.982C92.58,93.768,92.046,92.118,92.184,90.862z
			 M100.334,90.981c-0.074-1.254,0.494-2.854-1.76-2.811c-1.829,0.035-2.091,0.307-2.105,2.797
			c-0.013,2.246,0.339,2.737,1.961,2.743C100.062,93.717,100.312,93.358,100.334,90.981z M108.495,91.03
			c0.026-2.576-0.179-2.785-1.995-2.863c-1.952-0.084-1.873,1.168-1.878,2.49c-0.01,2.592,0.226,2.997,1.896,3.023
			C108.234,93.707,108.471,93.39,108.495,91.03z M100.34,66.387c-0.116-1.175,0.509-2.806-1.762-2.747
			c-1.844,0.048-2.082,0.285-2.084,2.788c-0.003,2.353,0.256,2.718,1.92,2.708C100.094,69.127,100.323,68.804,100.34,66.387z
			 M108.482,65.822c0.073-1.035,0.134-2.279-1.832-2.185c-1.795,0.088-2.027,0.329-2.011,2.867c0.015,2.299,0.298,2.674,1.992,2.629
			C108.342,69.088,108.52,68.798,108.482,65.822z M116.645,91.005c0.007-2.508-0.243-2.775-2.037-2.83
			c-1.955-0.061-1.836,1.216-1.839,2.52c-0.006,2.578,0.233,2.974,1.926,2.988C116.383,93.698,116.639,93.347,116.645,91.005z
			 M92.166,66.597c0-0.506-0.025-0.843,0.004-1.176c0.113-1.322-0.557-1.761-1.799-1.783c-1.331-0.024-2.107,0.392-2.019,1.854
			c0.03,0.501-0.013,1.006,0.001,1.508c0.051,1.921,0.861,2.528,2.689,2.099C92.672,68.714,91.973,67.388,92.166,66.597z"/>
	</g>
</g>
</svg>
