<?xml version="1.0" encoding="utf-8"?>
<!-- Generator: Adobe Illustrator 16.0.4, SVG Export Plug-In . SVG Version: 6.00 Build 0)  -->
<!DOCTYPE svg PUBLIC "-//W3C//DTD SVG 1.1//EN" "http://www.w3.org/Graphics/SVG/1.1/DTD/svg11.dtd">
<svg version="1.1" id="Layer_3707" xmlns="http://www.w3.org/2000/svg" xmlns:xlink="http://www.w3.org/1999/xlink" x="0px" y="0px"
	 width="128px" height="128px" viewBox="0 0 128 128" enable-background="new 0 0 128 128" xml:space="preserve">
<g>
	<path fill-rule="evenodd" clip-rule="evenodd" d="M64.627,1.284c2.35-0.045,5.219,0.032,8.083,0.177
		c3.483,0.177,6.962,0.438,10.427,0.865c3.463,0.427,6.906,0.945,10.287,1.812c2.406,0.618,4.787,1.325,6.894,2.713
		c0.469,0.308,0.879,0.683,1.247,1.104c0.53,0.606,0.794,1.304,0.745,2.121c-0.21,3.471-1.411,6.56-3.678,9.189
		c-5.029,5.838-10.095,11.646-15.151,17.459c-2.121,2.438-4.254,4.867-6.363,7.315c-1.731,2.009-3.508,3.98-5.217,6.009
		c-0.335,0.398-0.498,0.817-0.528,1.331c-0.266,4.444-0.542,8.887-0.819,13.33c-0.284,4.55-0.578,9.099-0.855,13.649
		c-0.02,0.333-0.139,0.541-0.414,0.73c-3.025,2.069-7.656,2.053-10.621-0.043c-0.226-0.16-0.348-0.33-0.365-0.625
		c-0.15-2.607-0.318-5.213-0.48-7.819c-0.249-3.994-0.497-7.989-0.746-11.983c-0.143-2.286-0.317-4.57-0.416-6.858
		c-0.033-0.77-0.254-1.371-0.767-1.954c-2.926-3.328-5.82-6.684-8.723-10.031c-4.586-5.287-9.172-10.575-13.756-15.863
		c-1.416-1.633-2.863-3.24-4.229-4.914c-2.043-2.504-3.175-5.394-3.477-8.618c-0.11-1.172,0.305-2.09,1.14-2.858
		c1.026-0.943,2.256-1.545,3.531-2.055c2.695-1.076,5.511-1.716,8.354-2.233c4.404-0.802,8.849-1.273,13.314-1.573
		C56.059,1.393,60.08,1.266,64.627,1.284z M64.418,15.314c3.817-0.04,8.072-0.157,12.32-0.49c3.371-0.265,6.729-0.625,10.062-1.188
		c2.637-0.445,5.256-0.976,7.769-1.924c0.88-0.333,1.763-0.681,2.453-1.356c0.438-0.43,0.437-0.709,0.012-1.146
		c-0.425-0.438-0.965-0.705-1.512-0.954c-1.683-0.768-3.456-1.25-5.253-1.648c-4.646-1.03-9.36-1.584-14.101-1.918
		c-3.459-0.244-6.922-0.384-10.39-0.411c-4.133-0.033-8.263,0.048-12.388,0.302c-3.972,0.244-7.932,0.632-11.861,1.285
		c-2.784,0.463-5.557,0.983-8.199,2.026c-0.796,0.315-1.594,0.636-2.247,1.211c-0.604,0.532-0.588,0.895,0.037,1.411
		c0.297,0.246,0.626,0.446,0.974,0.615c1.624,0.792,3.33,1.342,5.087,1.737c4.937,1.112,9.95,1.67,14.986,2.037
		C56.099,15.189,60.037,15.302,64.418,15.314z"/>
	<path fill-rule="evenodd" clip-rule="evenodd" d="M64.164,126.796c-6.472,0.194-11.565-4.454-13.101-9.228
		c-1.355-4.211-0.588-8.104,1.856-11.729c0.998-1.479,2.201-2.789,3.396-4.102c3.722-4.087,6.096-8.855,7.293-14.231
		c0.069-0.313,0.158-0.622,0.234-0.934c0.021-0.083,0.032-0.198,0.114-0.21c0.137-0.02,0.156,0.109,0.183,0.213
		c0.245,0.931,0.499,1.858,0.736,2.791c1.313,5.154,4.075,9.477,7.659,13.325c1.569,1.686,3.006,3.476,3.907,5.611
		c2.127,5.044,1.358,9.665-2.201,13.806c-1.86,2.164-4.158,3.67-6.966,4.335C66.209,126.697,65.13,126.835,64.164,126.796z"/>
</g>
</svg>
