<?xml version="1.0" encoding="utf-8"?>
<!-- Generator: Adobe Illustrator 16.0.4, SVG Export Plug-In . SVG Version: 6.00 Build 0)  -->
<!DOCTYPE svg PUBLIC "-//W3C//DTD SVG 1.1//EN" "http://www.w3.org/Graphics/SVG/1.1/DTD/svg11.dtd">
<svg version="1.1" id="Layer_3802" xmlns="http://www.w3.org/2000/svg" xmlns:xlink="http://www.w3.org/1999/xlink" x="0px" y="0px"
	 width="128px" height="128px" viewBox="0 0 128 128" enable-background="new 0 0 128 128" xml:space="preserve">
<g id="D1EXBk.tif">
	<g>
		<path fill-rule="evenodd" clip-rule="evenodd" d="M126.697,67.083c-0.093,22.316-17.692,39.779-40.042,39.732
			c-22.134-0.045-40.231-18.01-39.859-40.061c0.369-21.794,16.669-39.954,40.161-39.793
			C113.505,27.145,127.369,49.227,126.697,67.083z M106.661,41.908c-1.622,0.367-2.769,2.024-4.081,3.44
			C90.6,58.27,78.626,71.198,66.664,84.138c-0.926,1.002-1.812,2.055-2.609,3.161c-0.937,1.3-0.723,2.603,0.397,3.694
			c1.121,1.092,2.45,1.286,3.7,0.295c1.063-0.846,2.019-1.844,2.947-2.845c11.993-12.911,23.979-25.829,35.942-38.768
			c1.054-1.14,2.19-2.318,2.841-3.689C110.8,44.049,109.159,41.811,106.661,41.908z"/>
		<path fill-rule="evenodd" clip-rule="evenodd" d="M40.904,21.185c9.498,0.268,17,2.748,23.728,7.562
			c1.794,1.283,1.682,2.02-0.283,3.115C54.65,37.267,48.229,45.324,45.18,56.043c-0.259,0.91-0.876,2.463-1.279,2.448
			c-1.228-0.046-1.437-1.502-1.95-2.435c-3.398-6.174-6.742-12.377-10.104-18.572c-0.28-0.517-0.53-1.051-0.833-1.553
			c-1.296-2.149-2.53-5.291-5.63-3.393c-3.018,1.85-0.834,4.574,0.309,6.705c5.088,9.485,10.245,18.936,15.464,28.351
			c1.621,2.925,2.986,5.891,3.754,9.175c1.645,7.029,5.202,13.02,10.184,18.23c2.525,2.643,2.458,2.907-0.974,4.045
			c-23.342,7.737-47.622-6.382-52.082-30.061c-4.085-21.692,8.673-41.337,29.634-46.658C35.116,21.45,38.646,21.382,40.904,21.185z"
			/>
	</g>
</g>
</svg>
