<?xml version="1.0" encoding="utf-8"?>
<!-- Generator: Adobe Illustrator 16.0.4, SVG Export Plug-In . SVG Version: 6.00 Build 0)  -->
<!DOCTYPE svg PUBLIC "-//W3C//DTD SVG 1.1//EN" "http://www.w3.org/Graphics/SVG/1.1/DTD/svg11.dtd">
<svg version="1.1" id="Layer_3808" xmlns="http://www.w3.org/2000/svg" xmlns:xlink="http://www.w3.org/1999/xlink" x="0px" y="0px"
	 width="128px" height="128px" viewBox="0 0 128 128" enable-background="new 0 0 128 128" xml:space="preserve">
<g id="MRdfxV.tif">
	<g>
		<path fill-rule="evenodd" clip-rule="evenodd" d="M77.432,61.487c0,6.57,0.002,13.143-0.002,19.714
			c0,1.178-0.06,2.352,0.754,3.359c0.956,1.189,2.145,1.614,3.643,1.331c1.456-0.275,2.192-1.283,2.51-2.57
			c0.207-0.838,0.123-1.754,0.124-2.635c0.005-8.239,0.037-16.478-0.032-24.715c-0.014-1.748,0.438-3.185,1.365-4.665
			c4.061-6.472,8.015-13.01,11.977-19.544c0.334-0.548,0.998-1.177,0.571-1.862c-1.138-1.83-0.149-3.407,0.46-5.024
			c2.9-7.69,5.816-15.374,8.744-23.054c1.001-2.625,1.484-2.803,3.831-1.497c4.363,2.429,8.727,4.863,13.084,7.305
			c2.757,1.547,2.896,2.139,0.922,4.695c-5.212,6.743-10.453,13.465-15.692,20.189c-0.48,0.616-0.968,1.467-1.718,1.536
			c-1.981,0.185-2.69,1.709-3.522,3.065c-3.533,5.764-6.979,11.579-10.528,17.333c-0.771,1.251-0.904,2.526-0.9,3.919
			c0.018,7.846-0.038,15.692,0.007,23.538c0.039,6.446-3.757,10.636-8.445,12.098c-7.737,2.412-15.452-3.105-15.537-11.25
			c-0.124-11.964-0.037-23.932-0.034-35.897c0-2.354-0.024-4.695-0.407-7.036c-1.571-9.616-10.258-17.263-20.037-17.568
			c-5.613-0.176-5.514-0.172-5.685,5.409c-0.073,2.335,0.525,4.036,2.31,5.642c4.446,3.997,8.682,8.226,13.046,12.316
			c3.319,3.111,5.15,6.893,5.16,11.439c0.042,18.242,0.129,36.486-0.006,54.729c-0.067,9.115-7.264,16.059-16.456,16.154
			c-9.604,0.098-19.21,0.093-28.814-0.019c-8.403-0.097-14.438-5.118-16.394-13.295c-0.303-1.266-0.327-2.525-0.328-3.795
			C1.39,93.179,1.398,75.523,1.389,57.87c-0.002-4.867,1.726-8.965,5.273-12.311c4.492-4.238,8.899-8.566,13.472-12.715
			c1.386-1.256,1.864-2.528,1.84-4.338c-0.089-6.766-0.043-13.534-0.028-20.302c0.006-2.549,0.031-2.581,2.585-2.594
			c5.296-0.024,10.594,0.056,15.888-0.051c1.888-0.039,2.591,0.514,2.56,2.474c-0.029,1.807-0.896,4.086,0.541,5.336
			c1.251,1.088,3.4,0.317,5.15,0.389c16.213,0.659,28.677,13.55,28.749,29.779c0.026,5.983,0.004,11.966,0.004,17.95
			C77.425,61.487,77.428,61.487,77.432,61.487z M32.255,101.699c11.2,0.008,20.417-9.2,20.359-20.343
			c-0.055-10.936-9.323-20.169-20.285-20.21c-10.963-0.042-20.26,9.176-20.303,20.131C11.984,92.566,21.02,101.69,32.255,101.699z"
			/>
		<path fill-rule="evenodd" clip-rule="evenodd" d="M6.703,19.884c0-2.344,0.061-4.69-0.022-7.031
			c-0.05-1.418,0.506-1.931,1.88-1.83c1.068,0.078,2.149-0.014,3.222,0.028c1.456,0.056,3.162-0.536,4.3,0.281
			c1.153,0.829,0.333,2.565,0.515,3.89c0.081,0.589,0.074,1.216,0.756,1.441c0.763,0.25,1.922-0.117,1.977,1.204
			c0.076,1.852,0.183,3.71-0.122,5.551c-0.034,0.207-0.405,0.523-0.606,0.514c-2.63-0.127-2.027,1.812-1.983,3.225
			c0.054,1.736-0.516,2.501-2.354,2.375c-1.944-0.132-3.906-0.073-5.857-0.022c-1.244,0.034-1.749-0.464-1.726-1.715
			c0.047-2.635,0.014-5.274,0.014-7.911C6.698,19.884,6.701,19.884,6.703,19.884z"/>
		<path fill-rule="evenodd" clip-rule="evenodd" d="M31.941,94.689c-1.456,0.131-3.053-0.306-4.626-0.863
			c-1.244-0.442-1.493-1.048-0.452-2.064c2.656-2.592,5.262-5.235,7.885-7.861c2.554-2.556,5.141-5.081,7.642-7.689
			c1.236-1.291,1.795-0.992,2.395,0.552C48.127,85.37,41.588,94.706,31.941,94.689z"/>
		<path fill-rule="evenodd" clip-rule="evenodd" d="M19.032,81.585c0.055-9.248,9.124-15.691,17.592-12.751
			c2.066,0.717,2.21,1.156,0.724,2.652c-4.951,4.986-9.915,9.96-14.9,14.912c-1.698,1.689-2.037,1.577-2.81-0.737
			C19.171,84.257,18.969,82.814,19.032,81.585z"/>
	</g>
</g>
</svg>
