<?xml version="1.0" encoding="utf-8"?>
<!-- Generator: Adobe Illustrator 16.0.4, SVG Export Plug-In . SVG Version: 6.00 Build 0)  -->
<!DOCTYPE svg PUBLIC "-//W3C//DTD SVG 1.1//EN" "http://www.w3.org/Graphics/SVG/1.1/DTD/svg11.dtd">
<svg version="1.1" id="Layer_3810" xmlns="http://www.w3.org/2000/svg" xmlns:xlink="http://www.w3.org/1999/xlink" x="0px" y="0px"
	 width="128px" height="128px" viewBox="0 0 128 128" enable-background="new 0 0 128 128" xml:space="preserve">
<g>
	<g>
		<path d="M92.49,44.878c0.714-1.199,0.796-2.495-0.081-3.649c-0.439-0.578-0.274-0.917,0.03-1.445
			c1.105-1.901,0.736-4.317-0.807-5.875c-0.693-0.7-1.54-1.176-2.352-1.709c-5.92-3.898-11.184-8.676-17.013-12.696
			c-0.522-0.36-0.65-0.841-0.684-1.424c-0.155-2.771-0.329-5.54-0.5-8.31c-0.171-2.769-0.357-5.538-0.511-8.308
			c-0.043-0.787-0.352-1.192-1.18-1.188c-3.609,0.011-7.218,0.004-10.827,0.002c-0.742,0-1.088,0.371-1.127,1.104
			c-0.051,0.969-0.148,1.936-0.206,2.905c-0.266,4.478-0.552,8.955-0.764,13.435c-0.047,0.987-0.422,1.61-1.211,2.152
			c-6.141,4.217-11.659,9.273-17.961,13.284c-2.524,1.607-3.031,4.283-1.553,6.897c0.218,0.386,0.245,0.625-0.021,0.974
			c-1.027,1.35-0.981,2.735-0.05,4.11c0.222,0.327,0.396,0.59,0.075,0.971c-1.376,1.628-0.792,3.351,0.201,4.738
			c1.04,1.451,1.2,2.991,1.203,4.583c0.035,17.596,0.028,35.191,0.032,52.787c0.001,5.135-0.003,10.271-0.009,15.406
			c0,0.609,0.073,1.192,0.348,1.75c0.797,1.617,2.143,2.645,3.869,2.64c7.542-0.026,15.085,0.485,22.627,0.485
			c7.358,0,14.716,0,22.072,0c0.417,0,0.835-0.486,1.249-0.514c1.945-0.129,3.347-1.775,3.482-3.732
			c0.039-0.553,0.022-1.234,0.022-1.789c0.001-22.119,0.007-44.299-0.009-66.417c-0.002-2.028,0.217-3.954,1.49-5.671
			c0.873-1.179,1.05-2.62,0.148-3.917C92.06,45.856,92.143,45.46,92.49,44.878z M73.19,74.549c0.278-3.848,0.934-7.617,2.388-11.213
			c0.627-1.555,1.424-3.01,2.617-4.216c1.324-1.339,2.875-1.841,4.678-1.163c1.766,0.665,2.653,2.08,2.656,4.132
			c0.008,5.458,0.003,10.917,0.002,16.375c0,5.505-0.01,11.01,0.008,16.515c0.004,1.381-0.408,2.541-1.514,3.411
			c-1.922,1.512-4.19,1.287-5.951-0.602c-1.317-1.413-2.174-3.108-2.805-4.906C73.177,86.935,72.738,80.789,73.19,74.549z
			 M87.751,118.285c-7.909,0.027-15.817,0.02-23.728,0.02c-7.909,0.002-15.818,0.01-23.727-0.014
			c-0.535-0.002-1.487,0.34-1.513-0.442c-0.032-0.957,0.979-0.593,1.538-0.594c15.818-0.022,31.636-0.021,47.455-0.003
			c0.527,0.002,1.465-0.324,1.445,0.55C89.203,118.676,88.268,118.283,87.751,118.285z"/>
	</g>
	<path d="M78.074,97.788c1.761,1.889,4.029,2.113,5.951,0.602c1.105-0.87,1.518-2.03,1.514-3.411
		c-0.018-5.505-0.008-11.01-0.008-16.515c0.001-5.458,0.006-10.917-0.002-16.375c-0.003-2.053-0.891-3.468-2.656-4.132
		c-1.803-0.679-3.354-0.177-4.678,1.163c-1.193,1.207-1.99,2.661-2.617,4.216c-1.454,3.596-2.109,7.366-2.388,11.213
		c-0.452,6.24-0.014,12.386,2.079,18.333C75.9,94.68,76.757,96.375,78.074,97.788z M76.107,66.379
		c0.467-1.653,1.098-3.242,1.98-4.718c0.452-0.755,0.987-1.452,1.73-1.961c1.73-1.185,3.881-0.255,4.188,1.831
		c0.067,0.454-1.229,0.922-1.229,1.384C82.78,68.093,81.5,73.271,81.5,78.447c0,5.133,0,10.265,0,15.396
		c0,0.416,1.272,0.832,1.265,1.248c-0.024,1.236,0.056,2.132-1.104,2.581c-1.182,0.458-1.864,0.045-2.703-0.802
		c-1.267-1.275-1.826-2.881-2.45-4.531c-1.036-2.743-1.496-5.607-1.777-8.51C74.16,77.944,74.492,72.107,76.107,66.379z"/>
</g>
</svg>
