<?xml version="1.0" encoding="utf-8"?>
<!-- Generator: Adobe Illustrator 16.0.4, SVG Export Plug-In . SVG Version: 6.00 Build 0)  -->
<!DOCTYPE svg PUBLIC "-//W3C//DTD SVG 1.1//EN" "http://www.w3.org/Graphics/SVG/1.1/DTD/svg11.dtd">
<svg version="1.1" id="Layer_3813" xmlns="http://www.w3.org/2000/svg" xmlns:xlink="http://www.w3.org/1999/xlink" x="0px" y="0px"
	 width="128px" height="128px" viewBox="0 0 128 128" enable-background="new 0 0 128 128" xml:space="preserve">
<path d="M67.035,127.502c-11.546,0-23.092,0-34.638,0c-3.206-0.916-4.191-3.172-4.185-6.334c0.052-24.613,0.025-49.228,0.042-73.841
	c0-1.243,0.064-2.509,0.304-3.723c1.561-7.893,6.323-13.219,13.571-16.353c1.747-0.755,1.781-1.856,1.363-3.193
	c-0.56-1.79-1.808-0.541-2.591-0.288c-5.446,1.758-9.378,5.429-12.594,10.056c-2.583,3.715-5.258,3.697-8.033,0.155
	c0-0.962,0-1.924,0-2.886c3.158-5.548,7.477-9.971,13.089-13.005c1.624-0.878,1.306-1.443,0.54-2.719
	c-3.154-5.248-0.542-12.138,5.259-14.142c0.812-0.28,1.648-0.489,2.472-0.73c0.577,0,1.155,0,1.732,0
	c3.943,1.008,7.114,2.905,8.182,7.179c0.19,0.762,0.758,0.707,1.325,0.782c2.948,0.393,3.042,0.397,3.109,3.205
	c0.039,1.617,0.629,2.21,2.222,2.179c3.461-0.069,6.924-0.032,10.386-0.024c1.077,0.002,1.95-0.214,1.839-1.564
	c-0.123-1.482,0.611-1.929,2.012-2.128c11.123-1.583,22.238-3.224,33.347-4.91c1.76-0.268,1.913,0.644,1.91,1.958
	c-0.014,7.117-0.056,14.234,0.026,21.351c0.023,1.945-0.805,2.284-2.457,1.987c-2.268-0.407-4.551-0.727-6.828-1.077
	c-8.637-1.326-17.271-2.663-25.914-3.958c-1.13-0.169-2.188-0.302-2.064-1.774c0.151-1.774-0.982-1.745-2.211-1.737
	c-3.174,0.021-6.347-0.004-9.521,0.01c-2.624,0.011-3.034,0.58-3.018,3.187c0.009,1.589,1.112,1.785,2.124,2.288
	c8.302,4.126,12.921,10.622,12.918,20.101c-0.009,24.524-0.034,49.05,0.038,73.573C70.801,124.154,69.955,126.356,67.035,127.502z
	 M42.225,14.388c2.396,0.043,4.288-1.727,4.296-4.019c0.008-2.343-1.829-4.134-4.226-4.119c-2.323,0.014-3.979,1.611-4.054,3.914
	C38.157,12.687,39.72,14.343,42.225,14.388z"/>
</svg>
