<?xml version="1.0" encoding="utf-8"?>
<!-- Generator: Adobe Illustrator 16.0.4, SVG Export Plug-In . SVG Version: 6.00 Build 0)  -->
<!DOCTYPE svg PUBLIC "-//W3C//DTD SVG 1.1//EN" "http://www.w3.org/Graphics/SVG/1.1/DTD/svg11.dtd">
<svg version="1.1" id="Layer_3903" xmlns="http://www.w3.org/2000/svg" xmlns:xlink="http://www.w3.org/1999/xlink" x="0px" y="0px"
	 width="128px" height="128px" viewBox="0 0 128 128" enable-background="new 0 0 128 128" xml:space="preserve">
<g>
	<path d="M109.667,96.059c0.004-1.419,0.008-2.838,0.008-4.259l0.006-4.073c0.006-3.063,0.013-6.126-0.014-9.189
		c-0.007-0.769,0.005-1.396,0.016-1.916c0.05-2.719-0.044-2.878-2.519-4.245c-0.446-0.246-0.979-0.54-1.612-0.909
		c-7.044-4.098-14.109-8.157-21.174-12.217l-2.924-1.68c-0.971-0.558-1.52-0.925-1.514-1.999c0.05-8.829,0.055-18.282,0.014-30.652
		c-0.002-0.877,0.291-1.371,1.083-1.819c2.083-1.182,4.157-2.377,6.231-3.573c2.003-1.155,4.006-2.31,6.018-3.452
		c0.462-0.263,0.701-0.366,0.823-0.399c0.029,0.113,0.061,0.355,0.068,0.879c0.035,2.682,0.028,5.363,0.02,8.045l-0.004,1.511
		c0,0.133,0.003,0.269,0.006,0.405c0.025,1.107-0.008,1.601-1.059,1.689c-0.284,0.023-0.54,0.169-0.705,0.401
		c-0.17,0.241-0.221,0.54-0.141,0.843c0.157,0.606,0.694,0.718,1.051,0.792c1.965,0.43,2.882-0.377,2.899-2.359
		c0.037-4.24,0.062-8.067-0.016-11.968c-0.022-1.174,0.319-1.783,1.31-2.329c2.326-1.283,4.661-2.64,6.918-3.953
		c0.899-0.523,1.8-1.046,2.701-1.566l0.262-0.148c0.238-0.134,0.477-0.268,0.747-0.449c0.399-0.267,1.232-0.822,0.748-1.794
		c-0.273-0.552-0.682-0.668-0.976-0.668c-0.354,0-0.673,0.165-0.984,0.327c-0.393,0.204-0.777,0.423-1.16,0.644l-2.698,1.56
		c-1.983,1.147-3.968,2.295-5.961,3.425c-0.442,0.251-0.677,0.356-0.798,0.394c-0.03-0.124-0.059-0.377-0.066-0.883
		c-0.024-1.45-0.02-2.899-0.016-4.349c0.004-1.084,0.007-2.17-0.001-3.254c-0.012-1.554-0.166-2.84-1.927-2.84
		c-0.302,0-0.668,0.034-1.151,0.108l-0.116,0.012c-0.219,0.02-0.885,0.08-0.961,0.784c-0.028,0.269,0.051,0.777,0.224,0.971
		C92.516,2.119,92.816,2.5,93.166,2.5c0.001,0,0.002,0,0.002,0l0.103-0.255c0.354,0,0.599-0.061,0.728,0.071
		c0.225,0.228,0.217,0.71,0.209,1.238l-0.003,0.187c-0.004,0.56-0.013,1.103-0.021,1.662c-0.025,1.811-0.052,3.674,0.048,5.517
		c0.069,1.27-0.348,1.985-1.54,2.649c-4.479,2.495-8.611,4.868-12.634,7.26c-1.088,0.647-1.774,0.646-2.873,0.003
		c-3.876-2.266-7.765-4.506-11.654-6.746c-4.692-2.703-9.544-5.497-14.288-8.29c-1.779-1.048-3.115-1.04-4.871,0.046
		c-2.178,1.345-4.447,2.633-6.64,3.88c-0.914,0.519-1.828,1.039-2.739,1.563c-0.33,0.19-0.551,0.287-0.596,0.323
		c-0.001-0.001-0.069-0.102-0.065-0.485c0.024-2.751,0.054-5.502,0.102-8.254c0.009-0.57,0.083-0.678,0.33-0.753
		c0.083-0.025,0.227-0.036,0.365-0.047c0.371-0.028,0.832-0.064,1.104-0.426c0.165-0.218,0.214-0.496,0.147-0.827
		c-0.068-0.33-0.317-0.724-1.122-0.724c-0.127,0-0.262,0.008-0.396,0.016c-0.167,0.012-0.336,0.024-0.476,0.008
		c-0.745-0.087-1.263,0.061-1.628,0.43c-0.476,0.48-0.523,1.226-0.518,1.744c0.014,1.27,0.008,2.54,0.003,3.81
		c-0.007,1.744-0.015,3.548,0.028,5.325c0.027,1.1-0.3,1.682-1.207,2.148c-1.125,0.579-2.231,1.227-3.299,1.854
		c-0.417,0.245-0.835,0.489-1.254,0.73l-1.096,0.631c-2.712,1.56-5.423,3.12-8.132,4.696c-0.339,0.197-0.803,0.466-0.927,0.964
		c-0.071,0.29-0.012,0.59,0.177,0.894c0.313,0.501,0.739,0.606,1.042,0.606c0.292,0,0.604-0.096,0.954-0.294
		c0.222-0.125,0.441-0.256,0.661-0.387l3.644-2.116c2.826-1.637,5.651-3.274,8.486-4.897c0.187-0.106,0.632-0.362,0.87-0.445
		c0.048,0.252,0.051,0.78,0.053,1.002c0.008,1.556,0.005,3.112,0.002,4.668c-0.003,2.14-0.007,4.28,0.018,6.419
		c0.02,1.621,0.719,2.443,2.077,2.443c0.258,0,0.538-0.028,0.857-0.086c0.308-0.056,1.128-0.203,1.177-1.047
		c0.014-0.255-0.074-0.5-0.248-0.693c-0.195-0.216-0.493-0.353-0.796-0.367c-0.38-0.016-0.647-0.106-0.795-0.268
		c-0.241-0.265-0.25-0.806-0.223-1.352c0.174-3.53,0.169-6.982-0.015-10.261c-0.07-1.258,0.338-1.942,1.561-2.615
		c3.82-2.1,6.935-3.897,9.805-5.658c0.883-0.542,1.422-0.542,2.455,0.058l0.222,0.129c8.24,4.79,16.761,9.743,25.211,14.493
		c1.414,0.795,1.886,1.639,1.872,3.345c-0.083,9.763-0.081,19.419,0.005,28.701c0.013,1.481-0.425,2.231-1.735,2.973
		c-4.705,2.66-9.392,5.356-14.077,8.053c-3.915,2.254-7.83,4.506-11.756,6.738c-1.599,0.908-2.276,2.073-2.266,3.894
		c0.06,10.092,0.059,20.401-0.001,30.642c-0.011,1.857,0.651,3.029,2.215,3.918c8.199,4.668,17.066,9.774,27.108,15.613
		c0.609,0.354,1.173,0.526,1.725,0.526c0.564,0,1.125-0.173,1.764-0.544c9.938-5.781,18.866-10.929,27.29-15.738
		c1.434-0.82,2.034-1.888,2.008-3.573C109.648,103.505,109.657,99.72,109.667,96.059z M53.757,106.721
		c-0.137,0.154-0.391,0.779-0.819,0.779h-0.034c-0.454,0-0.718-0.619-0.859-0.777c-0.385-0.43-0.315-1.279-0.254-1.841
		c0.02-0.171,0.039-0.441,0.037-0.579c-0.039-3.115-0.685-6.337-0.68-9.399L50.5,91.587v-1.951c0-3.478,0.647-6.956,0.652-10.435
		c0-0.494,0.356-0.991,0.387-1.486c0.041-0.638,0.613-1.085,1.141-1.121c0.584,0.012,1.104,0.422,1.164,0.984
		c0.055,0.516,0.124,1.043,0.124,1.564l0.022,3.035c0.005,7.317,0.019,14.637-0.009,21.955c-0.001,0.141,0.021,0.423,0.038,0.594
		C54.076,105.312,54.146,106.285,53.757,106.721z M104.734,106.756c-0.084,0.892-0.738,1.207-1.172,1.415
		c-0.09,0.044-0.18,0.087-0.263,0.135c-3.286,1.906-6.577,3.802-9.87,5.698l-12.321,7.106c-0.38,0.219-0.761,0.435-1.145,0.646
		c-0.259,0.143-0.494,0.212-0.72,0.212l0,0c-0.368,0-0.679-0.188-0.876-0.525c-0.127-0.219-0.341-0.789,0.422-1.366
		c0.347-0.261,0.729-0.512,1.138-0.746c7.467-4.292,14.936-8.579,22.406-12.866c0.075-0.043,0.149-0.092,0.225-0.14
		c0.302-0.194,0.644-0.414,1.067-0.414c0.352,0,0.679,0.154,0.974,0.459l0.157,0.162L104.734,106.756z M104.357,77.4l-0.145,0.125
		l-0.251,0.044c-0.72-0.028-1.152-0.278-1.534-0.5L79.459,63.857c-0.246-0.142-0.478-0.312-0.707-0.48
		c-0.548-0.403-0.715-0.917-0.49-1.378c0.232-0.475,0.811-0.653,1.376-0.439c0.316,0.12,0.601,0.286,0.875,0.446l0.151,0.088
		c7.57,4.355,15.142,8.711,22.708,13.073l0.118,0.066c0.359,0.205,0.766,0.437,1.059,0.789
		C104.769,76.288,105.035,76.819,104.357,77.4z"/>
</g>
</svg>
