<?xml version="1.0" encoding="utf-8"?>
<!-- Generator: Adobe Illustrator 16.0.4, SVG Export Plug-In . SVG Version: 6.00 Build 0)  -->
<!DOCTYPE svg PUBLIC "-//W3C//DTD SVG 1.1//EN" "http://www.w3.org/Graphics/SVG/1.1/DTD/svg11.dtd">
<svg version="1.1" id="Layer_3912" xmlns="http://www.w3.org/2000/svg" xmlns:xlink="http://www.w3.org/1999/xlink" x="0px" y="0px"
	 width="128px" height="128px" viewBox="0 0 128 128" enable-background="new 0 0 128 128" xml:space="preserve">
<g id="wXQlwt.tif">
	<g>
		<g>
			<path fill-rule="evenodd" clip-rule="evenodd" d="M128.034,67.941c-0.303,0.321-0.606,0.1-0.893-0.014
				c-1.07-0.423-2.132-0.868-3.202-1.29c-0.67-0.265-0.731-0.23-0.782,0.512c-0.087,1.295-0.097,2.593-0.196,3.891
				c-0.486,6.333-1.815,12.479-3.998,18.44c-0.67,1.83-1.421,3.627-2.297,5.367c-0.149,0.296-0.124,0.945-0.789,0.652
				c-0.664-0.291-0.206-0.704-0.055-1.019c1.588-3.306,2.875-6.725,3.868-10.254c1.026-3.641,1.714-7.344,2.129-11.104
				c0.241-2.176,0.312-4.354,0.428-6.536c0.024-0.468-0.115-0.694-0.536-0.863c-3.781-1.51-7.561-3.021-11.326-4.569
				c-0.581-0.239-0.756-0.02-0.973,0.447c-1.274,2.728-2.57,5.444-3.861,8.164c-0.101,0.214-0.205,0.424-0.312,0.635
				c-0.116,0.228-0.286,0.279-0.509,0.151c-0.052-0.028-0.102-0.06-0.154-0.087c-2.026-1.07-2.026-1.07-0.659-2.906
				c1.535-2.06,3.07-4.12,4.604-6.181l0.027-0.029l-0.025,0.032c-1.94,0.873-3.783,1.938-5.675,2.903
				c-1.631,0.832-3.255,1.679-4.851,2.575c-0.434,0.243-0.73,0.056-1.071-0.074c-3.642-1.385-7.281-2.775-10.919-4.171
				c-1.002-0.385-0.842-0.41-1.359,0.448c-2.123,3.515-4.236,7.036-6.353,10.554c-0.093,0.151-0.182,0.304-0.267,0.459
				c-0.037,0.068-0.131,0.155-0.037,0.214c0.048,0.031,0.167-0.015,0.236-0.055c0.229-0.133,0.452-0.278,0.677-0.42
				c2.827-1.777,5.658-3.545,8.474-5.339c0.473-0.302,0.854-0.344,1.379-0.096c2.724,1.283,5.47,2.521,8.205,3.779
				c0.285,0.132,0.698,0.185,0.75,0.551c0.08,0.581,0.228,1.167,0.141,1.76c-0.027,0.189-0.198,0.193-0.348,0.132
				c-0.219-0.089-0.434-0.188-0.646-0.291c-2.179-1.055-4.358-2.111-6.538-3.165c-0.209-0.101-0.471-0.33-0.642-0.199
				c-0.247,0.188-0.018,0.488,0.044,0.735c0.057,0.229,0.109,0.461,0.188,0.683c0.696,1.918,0.83,3.911,0.833,5.926
				c0.002,1.448,0.033,2.896,0.049,4.344c0.002,0.207-0.004,0.414-0.023,0.62c-0.02,0.193-0.117,0.329-0.339,0.325
				c-0.221-0.004-0.313-0.147-0.333-0.336c-0.025-0.234-0.032-0.472-0.034-0.708c-0.01-1.241-0.077-2.485-0.01-3.723
				c0.129-2.363-0.212-4.644-0.959-6.878c-0.401-1.201-0.149-1.166-1.368-0.644c-3.473,1.489-6.947,2.976-10.408,4.491
				c-0.469,0.205-0.772,0.198-1.18-0.142c-2.089-1.74-4.206-3.445-6.313-5.163c-0.115-0.093-0.227-0.19-0.337-0.289
				c-0.151-0.134-0.204-0.281-0.065-0.46c0.136-0.172,0.291-0.181,0.458-0.056c0.166,0.124,0.326,0.255,0.487,0.386
				c1.855,1.512,3.71,3.024,5.568,4.534c0.653,0.53,0.665,0.532,1.098-0.185c2.333-3.871,4.661-7.744,6.988-11.619
				c0.374-0.625,0.338-0.698-0.381-0.812c-0.874-0.138-1.752-0.256-2.627-0.386c-0.203-0.03-0.407-0.066-0.606-0.117
				c-0.188-0.048-0.318-0.16-0.281-0.378c0.037-0.221,0.201-0.283,0.391-0.261c0.439,0.051,0.877,0.115,1.315,0.18
				c0.787,0.118,1.575,0.238,2.362,0.362c0.638,0.102,1.25,0.272,1.859,0.512c3.489,1.37,6.993,2.704,10.494,4.043
				c0.736,0.283,0.76,0.271,0.953-0.484c0.648-2.514,1.279-5.031,1.937-7.542c0.077-0.297,0.003-0.872,0.518-0.741
				c0.491,0.125,0.191,0.584,0.112,0.899c-0.604,2.433-1.219,4.865-1.823,7.298c-0.039,0.158-0.214,0.358-0.029,0.482
				c0.151,0.104,0.328-0.065,0.478-0.145c3.272-1.707,6.558-3.392,9.805-5.147c0.712-0.386,1.302-0.356,1.993-0.075
				c3.554,1.446,7.115,2.876,10.674,4.311c0.11,0.044,0.218,0.089,0.329,0.131c0.784,0.304,0.804,0.303,0.782-0.498
				c-0.04-1.477-0.053-2.957-0.169-4.428c-0.248-3.148-0.605-6.282-1.165-9.396c-1.022-5.684-2.622-11.198-4.716-16.574
				c-0.106-0.275-0.203-0.556-0.328-0.822c-0.148-0.314-0.156-0.561,0.219-0.71c0.386-0.154,0.525,0.068,0.651,0.375
				c0.831,2.021,1.567,4.077,2.239,6.155c1.65,5.094,2.805,10.302,3.52,15.606c0.45,3.339,0.642,6.701,0.683,10.068
				c0.008,0.701,0.208,1.055,0.884,1.297c1.332,0.476,2.628,1.056,3.938,1.594C128.034,67.705,128.034,67.824,128.034,67.941z"/>
			<path d="M116.17,95.823c-0.119,0-0.248-0.031-0.394-0.095c-0.261-0.114-0.415-0.264-0.474-0.455
				c-0.086-0.282,0.072-0.534,0.199-0.735c0.037-0.058,0.072-0.112,0.098-0.163c1.566-3.264,2.862-6.699,3.853-10.215
				c0.982-3.486,1.696-7.209,2.121-11.064c0.19-1.721,0.275-3.477,0.358-5.176L122,66.574c0.019-0.363-0.061-0.491-0.382-0.619
				c-4.204-1.68-7.707-3.083-11.328-4.571c-0.128-0.052-0.23-0.079-0.306-0.079c-0.111,0-0.188,0.059-0.348,0.401
				c-0.988,2.117-1.99,4.228-2.992,6.337l-0.868,1.828c-0.103,0.216-0.208,0.429-0.316,0.642c-0.157,0.31-0.388,0.355-0.512,0.355
				c-0.109,0-0.225-0.033-0.341-0.101l-0.147-0.084c-1.113-0.587-1.621-0.856-1.728-1.331c-0.108-0.474,0.234-0.935,0.985-1.941
				l4.013-5.386c-0.961,0.465-1.91,0.97-2.832,1.462c-0.645,0.343-1.288,0.686-1.938,1.016c-1.34,0.685-3.101,1.594-4.842,2.571
				c-0.411,0.229-0.819,0.13-1.152-0.007l-0.129-0.051c-3.643-1.387-7.281-2.776-10.919-4.173l-0.212-0.082
				c-0.225-0.088-0.401-0.158-0.475-0.158c-0.042,0.022-0.135,0.181-0.225,0.335l-0.147,0.25c-1.597,2.645-3.19,5.294-4.782,7.942
				l-1.57,2.61c-0.009,0.015-0.018,0.03-0.027,0.046c0.043-0.027,0.086-0.054,0.127-0.08l2.288-1.438
				c2.12-1.33,4.239-2.659,6.35-4.005c0.568-0.361,1.021-0.393,1.617-0.111c1.823,0.859,3.655,1.696,5.489,2.534
				c0.905,0.415,1.811,0.829,2.715,1.245c0.058,0.027,0.12,0.05,0.184,0.073c0.273,0.1,0.648,0.235,0.708,0.67
				c0.018,0.124,0.039,0.248,0.059,0.372c0.077,0.469,0.155,0.954,0.083,1.458c-0.047,0.311-0.354,0.459-0.688,0.324
				c-0.223-0.091-0.443-0.19-0.66-0.296l-6.538-3.166c-0.056-0.027-0.114-0.062-0.175-0.098c-0.068-0.04-0.193-0.115-0.238-0.115
				c0.005,0.036,0.057,0.167,0.085,0.236c0.031,0.078,0.062,0.156,0.079,0.229l0.02,0.081c0.048,0.193,0.096,0.39,0.163,0.576
				c0.741,2.046,0.844,4.187,0.847,6.011c0.001,0.929,0.015,1.857,0.028,2.786c0.008,0.519,0.015,1.037,0.021,1.555
				c0.002,0.217-0.004,0.434-0.024,0.647c-0.034,0.339-0.256,0.549-0.578,0.549c-0.335-0.005-0.551-0.213-0.589-0.557
				c-0.025-0.244-0.032-0.488-0.034-0.733c-0.003-0.371-0.011-0.741-0.019-1.113c-0.02-0.859-0.039-1.75,0.01-2.625
				c0.124-2.287-0.186-4.507-0.947-6.786c-0.062-0.182-0.107-0.337-0.146-0.466c-0.05-0.166-0.102-0.339-0.133-0.377
				c-0.016,0.022-0.224,0.114-0.442,0.211l-1.297,0.56c-3.146,1.349-6.29,2.696-9.424,4.069c-0.61,0.268-0.974,0.209-1.438-0.179
				c-1.534-1.277-3.083-2.536-4.633-3.796l-1.679-1.366c-0.116-0.095-0.23-0.193-0.345-0.294c-0.267-0.237-0.303-0.535-0.096-0.799
				c0.153-0.196,0.322-0.237,0.438-0.237c0.122,0,0.245,0.046,0.364,0.135c0.167,0.125,0.329,0.257,0.489,0.389l1.832,1.491
				c1.246,1.017,2.493,2.032,3.741,3.047c0.18,0.146,0.383,0.312,0.449,0.322c0.029-0.028,0.168-0.258,0.28-0.442
				c2.331-3.871,4.661-7.744,6.986-11.619c0.104-0.17,0.166-0.289,0.19-0.355c-0.099-0.037-0.317-0.071-0.396-0.083
				c-0.537-0.085-1.075-0.162-1.614-0.24l-1.01-0.146c-0.213-0.032-0.424-0.069-0.632-0.122c-0.34-0.086-0.519-0.338-0.465-0.659
				c0.055-0.323,0.32-0.503,0.664-0.467c0.442,0.051,0.883,0.115,1.324,0.181c0.787,0.118,1.576,0.238,2.363,0.363
				c0.646,0.103,1.272,0.275,1.912,0.526c2.876,1.129,5.761,2.233,8.646,3.336l1.846,0.707c0.188,0.072,0.4,0.153,0.484,0.153
				c0.03-0.035,0.098-0.297,0.141-0.468c0.238-0.927,0.476-1.854,0.712-2.78c0.405-1.589,0.81-3.178,1.226-4.764
				c0.014-0.055,0.021-0.121,0.029-0.189c0.032-0.264,0.095-0.756,0.59-0.756c0.062,0,0.129,0.009,0.199,0.027
				c0.191,0.049,0.325,0.145,0.4,0.285c0.127,0.24,0.029,0.514-0.05,0.733c-0.022,0.063-0.044,0.125-0.058,0.181
				c-0.297,1.19-0.594,2.379-0.893,3.569c-0.312,1.243-0.622,2.486-0.932,3.73c-0.012,0.045-0.031,0.095-0.053,0.145
				c0.008-0.006,0.016-0.01,0.022-0.015c0.042-0.025,0.083-0.051,0.122-0.072l2.311-1.202c2.463-1.279,5.01-2.602,7.49-3.944
				c0.736-0.397,1.367-0.428,2.206-0.086c2.66,1.083,5.325,2.156,7.991,3.23l3.007,1.211c0.169,0.063,0.341,0.132,0.444,0.157
				c0.01-0.104,0.004-0.287,0.001-0.417l-0.022-0.898c-0.025-1.156-0.054-2.351-0.146-3.518c-0.275-3.485-0.655-6.551-1.162-9.371
				c-0.989-5.495-2.571-11.055-4.703-16.528l-0.082-0.216c-0.075-0.199-0.149-0.398-0.24-0.591c-0.078-0.167-0.173-0.418-0.077-0.66
				c0.065-0.168,0.21-0.298,0.43-0.386c0.115-0.046,0.218-0.068,0.316-0.068c0.419,0,0.579,0.392,0.656,0.579
				c0.788,1.92,1.523,3.939,2.246,6.174c1.615,4.987,2.803,10.252,3.529,15.649c0.417,3.088,0.641,6.392,0.685,10.099
				c0.008,0.629,0.169,0.868,0.72,1.065c0.951,0.34,1.896,0.739,2.81,1.123c0.38,0.159,0.758,0.319,1.139,0.475l0.154,0.064v0.618
				l-0.067,0.072c-0.3,0.319-0.735,0.238-1.039,0.102c-0.042-0.019-0.084-0.038-0.126-0.055c-0.528-0.208-1.054-0.422-1.579-0.637
				c-0.54-0.219-1.08-0.438-1.622-0.652c-0.109-0.044-0.338-0.133-0.421-0.133c0.005,0.031-0.014,0.32-0.021,0.43
				c-0.041,0.596-0.064,1.194-0.088,1.792c-0.029,0.7-0.057,1.4-0.11,2.101c-0.487,6.34-1.836,12.566-4.012,18.508
				c-0.731,1.997-1.487,3.762-2.31,5.393c-0.027,0.056-0.047,0.125-0.066,0.196C116.747,95.404,116.624,95.823,116.17,95.823z
				 M109.984,60.809c0.143,0,0.304,0.038,0.494,0.116c3.62,1.488,7.122,2.891,11.324,4.57c0.521,0.208,0.723,0.528,0.691,1.106
				l-0.066,1.344c-0.084,1.706-0.17,3.471-0.361,5.206c-0.428,3.882-1.146,7.632-2.137,11.145
				c-0.997,3.542-2.305,7.006-3.884,10.295c-0.032,0.066-0.076,0.138-0.123,0.212c-0.065,0.104-0.165,0.262-0.146,0.327
				c0.01,0.031,0.068,0.087,0.199,0.144c0.1,0.045,0.16,0.055,0.193,0.055c0.061,0,0.097-0.048,0.174-0.312
				c0.029-0.103,0.061-0.2,0.1-0.279c0.813-1.614,1.562-3.361,2.286-5.34c2.159-5.898,3.5-12.08,3.984-18.374
				c0.053-0.694,0.081-1.39,0.108-2.084c0.023-0.602,0.049-1.204,0.088-1.805c0.028-0.419,0.061-0.894,0.518-0.894
				c0.15,0,0.321,0.057,0.604,0.168c0.544,0.215,1.085,0.435,1.626,0.654c0.525,0.214,1.049,0.427,1.575,0.636
				c0.049,0.018,0.098,0.041,0.146,0.062c0.114,0.053,0.223,0.101,0.308,0.101c0.026,0,0.059-0.006,0.1-0.03v-0.077
				c-0.33-0.137-0.659-0.275-0.989-0.414c-0.907-0.382-1.846-0.777-2.784-1.112c-0.745-0.266-1.039-0.694-1.049-1.527
				c-0.045-3.687-0.267-6.97-0.681-10.039c-0.724-5.368-1.904-10.604-3.509-15.562c-0.719-2.223-1.449-4.23-2.233-6.137
				c-0.104-0.251-0.154-0.272-0.197-0.272c-0.023,0-0.066,0.006-0.132,0.032c-0.083,0.034-0.14,0.073-0.153,0.107
				c-0.01,0.026-0.016,0.096,0.066,0.268c0.095,0.204,0.176,0.415,0.255,0.627l0.08,0.211c2.143,5.501,3.733,11.094,4.729,16.62
				c0.51,2.836,0.894,5.918,1.168,9.42c0.094,1.181,0.122,2.383,0.147,3.545l0.022,0.896c0.011,0.416,0.018,0.666-0.137,0.825
				c-0.05,0.052-0.144,0.115-0.291,0.115c-0.159,0-0.347-0.069-0.692-0.204l-3.015-1.213c-2.665-1.074-5.331-2.147-7.993-3.231
				c-0.699-0.286-1.173-0.266-1.78,0.063c-2.485,1.344-5.034,2.668-7.499,3.949l-2.31,1.201c-0.027,0.014-0.057,0.033-0.086,0.051
				c-0.167,0.106-0.438,0.219-0.646,0.079c-0.309-0.208-0.162-0.534-0.108-0.657c0.015-0.031,0.029-0.062,0.037-0.092
				c0.308-1.244,0.62-2.487,0.933-3.73c0.297-1.189,0.595-2.378,0.89-3.567c0.018-0.071,0.046-0.148,0.073-0.229
				c0.031-0.086,0.104-0.287,0.079-0.333c0,0-0.017-0.02-0.084-0.038c-0.038-0.009-0.062-0.011-0.077-0.011
				c-0.061,0.035-0.086,0.228-0.098,0.321c-0.011,0.092-0.023,0.18-0.043,0.253c-0.415,1.585-0.818,3.173-1.224,4.761
				c-0.236,0.927-0.473,1.855-0.711,2.782c-0.126,0.487-0.216,0.841-0.622,0.841c-0.168,0-0.36-0.072-0.662-0.187l-1.846-0.707
				c-2.887-1.104-5.772-2.209-8.65-3.338c-0.604-0.238-1.196-0.401-1.807-0.498c-0.787-0.125-1.572-0.245-2.359-0.363
				c-0.436-0.065-0.871-0.128-1.308-0.178c-0.108-0.004-0.11,0.009-0.118,0.055c-0.008,0.045-0.012,0.069,0.097,0.096
				c0.192,0.049,0.388,0.083,0.584,0.112l1.007,0.146c0.541,0.077,1.082,0.155,1.621,0.24c0.405,0.064,0.68,0.124,0.787,0.356
				c0.108,0.231-0.021,0.479-0.231,0.829c-2.326,3.875-4.655,7.749-6.988,11.62c-0.258,0.426-0.413,0.684-0.71,0.684
				c-0.225,0-0.413-0.154-0.758-0.434c-1.248-1.015-2.495-2.03-3.742-3.047l-1.826-1.488c-0.161-0.131-0.317-0.258-0.479-0.381
				c-0.043-0.031-0.064-0.034-0.066-0.034c0,0-0.018,0.008-0.049,0.046c-0.027,0.046-0.021,0.072,0.035,0.121
				c0.108,0.097,0.217,0.191,0.329,0.282l1.678,1.365c1.551,1.261,3.103,2.521,4.638,3.801c0.324,0.27,0.498,0.289,0.922,0.104
				c3.135-1.374,6.281-2.723,9.427-4.072l1.294-0.557c0.335-0.147,0.521-0.23,0.689-0.23c0.35,0,0.438,0.297,0.561,0.708
				c0.037,0.125,0.082,0.275,0.141,0.452c0.783,2.339,1.1,4.618,0.971,6.97c-0.047,0.855-0.027,1.736-0.008,2.587
				c0.008,0.374,0.016,0.747,0.019,1.12c0.002,0.228,0.008,0.457,0.032,0.684c0.013,0.115,0.051,0.101,0.094,0.114
				c0.054,0,0.074-0.002,0.084-0.103c0.021-0.196,0.024-0.395,0.022-0.592c-0.005-0.518-0.013-1.035-0.021-1.553
				c-0.014-0.932-0.026-1.862-0.027-2.793c-0.003-1.781-0.102-3.868-0.817-5.842c-0.074-0.205-0.126-0.417-0.178-0.629l-0.02-0.079
				c-0.013-0.053-0.036-0.108-0.059-0.164c-0.08-0.2-0.229-0.572,0.104-0.828c0.217-0.166,0.535-0.039,0.763,0.095
				c0.048,0.029,0.095,0.057,0.139,0.078l6.538,3.166c0.207,0.101,0.417,0.196,0.631,0.284c0.006,0.002,0.012,0.004,0.016,0.006
				c0.048-0.41-0.018-0.818-0.089-1.249c-0.021-0.129-0.042-0.257-0.059-0.385c-0.018-0.124-0.132-0.179-0.388-0.271
				c-0.077-0.028-0.152-0.057-0.222-0.087c-0.903-0.417-1.809-0.831-2.714-1.245c-1.835-0.838-3.669-1.678-5.494-2.536
				c-0.443-0.21-0.709-0.194-1.139,0.08c-2.11,1.347-4.231,2.677-6.352,4.007l-2.286,1.437c-0.173,0.109-0.345,0.219-0.521,0.32
				c-0.054,0.031-0.188,0.1-0.317,0.1h-0.072l-0.103-0.048c-0.08-0.051-0.132-0.125-0.15-0.21c-0.029-0.141,0.046-0.251,0.086-0.311
				c0.103-0.183,0.194-0.338,0.287-0.493l1.57-2.609c1.593-2.648,3.185-5.298,4.782-7.943l0.144-0.243
				c0.204-0.35,0.339-0.582,0.653-0.582c0.167,0,0.341,0.068,0.656,0.191l0.209,0.081c3.637,1.396,7.276,2.786,10.916,4.172
				l0.142,0.058c0.266,0.108,0.466,0.174,0.722,0.03c1.748-0.979,3.516-1.893,4.859-2.578c0.646-0.33,1.287-0.671,1.928-1.013
				c1.196-0.638,2.433-1.296,3.695-1.868l0.058-0.026l0.056,0.118l0.268,0.234l-0.052,0.064l-4.572,6.136
				c-0.597,0.801-0.958,1.284-0.9,1.536s0.591,0.534,1.477,1.002l0.12,0.068c0.099,0.057,0.128,0.059,0.136,0.059
				c0.016,0,0.045-0.035,0.069-0.084c0.105-0.209,0.21-0.417,0.31-0.628l0.869-1.83c1.001-2.109,2.003-4.218,2.991-6.334
				C109.314,61.223,109.507,60.809,109.984,60.809z"/>
		</g>
		<g>
			<path fill-rule="evenodd" clip-rule="evenodd" d="M-0.034,63.33c0.251-0.302,0.53-0.149,0.809-0.051
				c0.891,0.313,1.781,0.626,2.674,0.932c0.73,0.25,0.737,0.246,0.761-0.477c0.113-3.424,0.363-6.835,0.854-10.229
				c1.02-7.04,2.865-13.855,5.514-20.456c0.033-0.082,0.079-0.159,0.107-0.242c0.121-0.352,0.332-0.449,0.683-0.291
				c0.349,0.157,0.272,0.393,0.173,0.657c-0.501,1.325-1.017,2.644-1.494,3.978c-1.983,5.546-3.347,11.247-4.15,17.078
				c-0.444,3.218-0.64,6.46-0.755,9.707c-0.024,0.676,0.154,1.06,0.84,1.182c0.257,0.046,0.497,0.184,0.744,0.278
				c0.2,0.075,0.268,0.213,0.2,0.417c-0.075,0.222-0.253,0.236-0.43,0.185c-0.283-0.082-0.559-0.187-0.834-0.292
				c-0.395-0.148-0.53-0.012-0.51,0.396c0.073,1.476,0.081,2.955,0.201,4.426c0.303,3.708,0.817,7.385,1.683,11.01
				c1.038,4.35,2.488,8.551,4.411,12.589c0.101,0.212,0.187,0.434,0.298,0.643c0.157,0.296,0.206,0.533-0.164,0.729
				c-0.39,0.207-0.531-0.016-0.665-0.308c-0.467-1.02-0.965-2.026-1.398-3.059C7.184,86.578,5.656,80.809,4.87,74.835
				c-0.39-2.961-0.601-5.931-0.651-8.913c-0.01-0.58-0.222-0.82-0.751-0.99c-1.179-0.378-2.335-0.827-3.501-1.247
				C-0.034,63.566-0.034,63.448-0.034,63.33z"/>
			<path d="M11.314,95.827c-0.378,0-0.538-0.347-0.624-0.533c-0.15-0.328-0.303-0.653-0.457-0.98
				c-0.319-0.68-0.649-1.381-0.945-2.087C6.99,86.76,5.421,80.918,4.624,74.868c-0.382-2.902-0.602-5.91-0.654-8.941
				c-0.008-0.452-0.132-0.615-0.579-0.76c-0.843-0.27-1.686-0.579-2.502-0.88c-0.335-0.124-0.671-0.247-1.007-0.369l-0.164-0.059
				V63.24l0.058-0.069c0.266-0.318,0.687-0.273,0.993-0.159l0.088,0.032c0.89,0.313,1.78,0.626,2.672,0.932
				c0.156,0.053,0.316,0.108,0.411,0.128c0.013-0.089,0.017-0.247,0.022-0.379c0.125-3.781,0.405-7.136,0.857-10.256
				c1.014-6.996,2.874-13.897,5.529-20.513c0.016-0.041,0.035-0.079,0.053-0.118c0.018-0.037,0.037-0.073,0.05-0.112
				c0.151-0.439,0.425-0.532,0.63-0.532c0.12,0,0.248,0.031,0.39,0.096c0.572,0.258,0.39,0.739,0.302,0.97l-0.424,1.113
				c-0.362,0.951-0.726,1.902-1.068,2.86c-1.935,5.414-3.327,11.143-4.138,17.028c-0.381,2.768-0.614,5.754-0.752,9.682
				c-0.022,0.621,0.126,0.837,0.636,0.929c0.204,0.036,0.387,0.118,0.565,0.195c0.074,0.033,0.149,0.066,0.224,0.095
				c0.323,0.122,0.456,0.401,0.346,0.728c-0.104,0.311-0.381,0.448-0.734,0.345c-0.29-0.084-0.572-0.191-0.854-0.298
				c-0.091-0.035-0.143-0.041-0.167-0.043c0,0.014-0.013,0.07-0.007,0.195c0.027,0.541,0.045,1.084,0.063,1.626
				c0.031,0.918,0.062,1.866,0.137,2.792c0.33,4.041,0.879,7.63,1.677,10.973c1.051,4.406,2.53,8.625,4.394,12.539
				c0.04,0.084,0.078,0.169,0.116,0.256c0.056,0.127,0.112,0.255,0.177,0.377c0.084,0.157,0.167,0.347,0.144,0.548
				c-0.025,0.212-0.163,0.387-0.41,0.518C11.559,95.791,11.434,95.827,11.314,95.827z M0.214,63.511
				c0.283,0.102,0.565,0.206,0.847,0.31c0.811,0.298,1.648,0.607,2.482,0.875c0.654,0.21,0.913,0.553,0.924,1.223
				c0.051,3.013,0.27,6.002,0.649,8.885c0.792,6.007,2.349,11.805,4.631,17.231c0.292,0.696,0.62,1.395,0.937,2.069
				c0.154,0.327,0.308,0.654,0.458,0.983c0.078,0.168,0.131,0.244,0.173,0.244c0.02,0,0.066-0.007,0.151-0.052
				c0.053-0.028,0.143-0.083,0.149-0.138c0.006-0.05-0.024-0.136-0.088-0.257c-0.071-0.134-0.132-0.271-0.193-0.409
				c-0.036-0.081-0.072-0.163-0.11-0.243c-1.879-3.945-3.369-8.196-4.428-12.638c-0.804-3.367-1.356-6.98-1.689-11.047
				c-0.077-0.938-0.108-1.893-0.139-2.815c-0.018-0.539-0.036-1.079-0.062-1.618c-0.008-0.169-0.002-0.415,0.15-0.574
				c0.097-0.102,0.33-0.205,0.695-0.066c0.27,0.103,0.54,0.205,0.816,0.285c0.042,0.012,0.069,0.016,0.085,0.016
				c0.056-0.089,0.053-0.11,0.053-0.111l0,0c0,0-0.014-0.017-0.065-0.036c-0.083-0.031-0.166-0.068-0.248-0.104
				c-0.157-0.07-0.306-0.136-0.452-0.162c-0.966-0.173-1.065-0.857-1.045-1.435c0.14-3.945,0.374-6.947,0.757-9.732
				c0.815-5.918,2.216-11.681,4.163-17.127c0.344-0.961,0.708-1.916,1.072-2.871l0.423-1.111c0.104-0.276,0.088-0.284-0.042-0.342
				c-0.095-0.042-0.153-0.052-0.186-0.052c-0.03,0-0.093,0-0.161,0.197c-0.02,0.057-0.046,0.112-0.072,0.167
				c-0.014,0.029-0.029,0.058-0.041,0.088C8.168,39.721,6.318,46.584,5.31,53.541c-0.449,3.102-0.728,6.439-0.852,10.202
				c-0.016,0.465-0.028,0.867-0.459,0.867c-0.147,0-0.317-0.057-0.63-0.164c-0.893-0.306-1.785-0.619-2.676-0.933l-0.097-0.035
				C0.488,63.438,0.388,63.4,0.312,63.4c-0.027,0-0.058,0.003-0.098,0.033V63.511z"/>
		</g>
		<g>
			<path fill-rule="evenodd" clip-rule="evenodd" d="M54.772,74.33c-0.056-0.334-0.279-0.582-0.452-0.855
				c-1.673-2.647-3.358-5.286-5.018-7.942c-0.155-0.248-0.653-0.578-0.174-0.877c0.463-0.289,0.564,0.282,0.726,0.535
				c1.943,3.036,3.866,6.085,5.796,9.129c0.52,0.819,0.521,0.817,1.285,0.175c1.627-1.372,3.256-2.742,4.884-4.111
				c0.09-0.077,0.177-0.158,0.275-0.225c0.227-0.149,0.455-0.502,0.734-0.122c0.238,0.326-0.12,0.468-0.301,0.62
				c-1.985,1.682-3.986,3.344-5.962,5.034c-0.349,0.299-0.625,0.291-1.03,0.137c-3.365-1.283-6.739-2.541-10.11-3.808
				c-0.055-0.021-0.106-0.057-0.163-0.069c-0.195-0.045-0.443-0.264-0.561-0.136c-0.179,0.194,0.082,0.419,0.16,0.626
				c0.084,0.221,0.194,0.431,0.295,0.644c0.63,1.336,1.26,2.671,1.89,4.007c0.075,0.16,0.15,0.32,0.223,0.482
				c0.094,0.207,0.124,0.402-0.139,0.512c-0.265,0.108-0.376-0.074-0.476-0.264c-0.082-0.157-0.155-0.317-0.231-0.479
				c-0.844-1.79-1.707-3.57-2.519-5.374c-0.257-0.571-0.53-0.626-1.072-0.377c-3.544,1.621-7.104,3.209-10.65,4.826
				c-0.46,0.209-0.829,0.232-1.322,0.024c-0.977-0.409-2.009-0.687-3.019-1.018c-0.225-0.073-0.452-0.142-0.67-0.229
				c-0.177-0.07-0.306-0.198-0.244-0.409c0.077-0.257,0.26-0.276,0.491-0.2c0.813,0.266,1.627,0.529,2.445,0.779
				c0.186,0.058,0.408,0.273,0.566,0.086c0.151-0.179-0.076-0.372-0.17-0.541c-1.381-2.477-2.768-4.95-4.154-7.425
				c-0.981-1.753-1.961-3.506-2.946-5.256c-0.432-0.768-0.441-0.773-1.218-0.414c-1.931,0.892-3.857,1.792-5.785,2.688
				c-0.188,0.088-0.371,0.185-0.563,0.258c-0.177,0.067-0.346,0.068-0.445-0.145c-0.094-0.201-0.038-0.339,0.149-0.437
				c0.132-0.067,0.263-0.135,0.397-0.197c2.142-0.997,4.291-1.978,6.419-3.002c0.515-0.247,0.921-0.196,1.41,0.048
				c3.221,1.613,6.455,3.203,9.685,4.799c0.263,0.131,0.512,0.297,0.815,0.332l-0.009,0.009c-0.567-1.333-1.348-2.555-2.016-3.835
				c-0.209-0.401-0.349-0.793-0.346-1.257c0.016-2.777,0.012-5.554,0.015-8.332c0-0.148,0.001-0.296,0.013-0.442
				c0.017-0.198,0.1-0.339,0.328-0.324c0.179,0.012,0.255,0.135,0.266,0.292c0.016,0.235,0.02,0.472,0.02,0.708
				c0,2.601,0.005,5.201-0.007,7.8c-0.002,0.458,0.091,0.862,0.315,1.263c0.72,1.289,1.448,2.574,2.104,3.896
				c0.286,0.575,0.545,0.682,1.147,0.43c2.479-1.033,4.977-2.02,7.479-2.994c0.303-0.118,0.768-0.568,0.985-0.05
				c0.225,0.537-0.422,0.52-0.725,0.644c-2.623,1.069-5.262,2.102-7.882,3.177c-0.535,0.219-0.969,0.217-1.492-0.047
				c-3.031-1.53-6.079-3.025-9.121-4.531c-0.211-0.105-0.425-0.205-0.638-0.307c-0.079-0.038-0.169-0.093-0.238-0.012
				c-0.066,0.077-0.001,0.158,0.046,0.228c0.101,0.146,0.202,0.291,0.305,0.435c2.454,3.401,4.906,6.805,7.363,10.203
				c0.624,0.864,0.5,0.694,1.337,0.314c3.466-1.575,6.935-3.145,10.389-4.747c0.576-0.268,1.016-0.234,1.555,0.09
				c2.884,1.737,5.788,3.439,8.688,5.148c0.276,0.162,0.53,0.386,0.875,0.402c0.01,0.074,0.028,0.088,0.053,0.041
				C54.813,74.352,54.792,74.341,54.772,74.33z"/>
			<path d="M46.984,78.366c-0.323,0-0.47-0.279-0.548-0.43c-0.067-0.129-0.129-0.259-0.191-0.391l-0.741-1.566
				c-0.606-1.278-1.234-2.598-1.824-3.909c-0.167-0.371-0.286-0.371-0.35-0.371c-0.092,0-0.22,0.038-0.393,0.118
				c-1.919,0.877-3.842,1.746-5.765,2.613c-1.63,0.736-3.259,1.471-4.886,2.212c-0.553,0.252-0.976,0.258-1.521,0.029
				c-0.679-0.284-1.402-0.51-2.103-0.728c-0.3-0.093-0.6-0.187-0.897-0.284l-0.16-0.051c-0.177-0.057-0.353-0.113-0.525-0.183
				c-0.331-0.132-0.48-0.403-0.389-0.71c0.106-0.354,0.387-0.506,0.807-0.366c0.811,0.266,1.624,0.529,2.441,0.778
				c0.063,0.021,0.132,0.054,0.199,0.089c0.014,0.007,0.031,0.015,0.049,0.024c-0.015-0.023-0.031-0.044-0.044-0.062
				c-0.036-0.051-0.071-0.101-0.098-0.148c-1.282-2.299-2.569-4.596-3.855-6.893l-1.073-1.916c-0.723-1.291-1.445-2.582-2.17-3.872
				c-0.157-0.278-0.292-0.518-0.358-0.518c-0.091,0-0.299,0.096-0.54,0.208c-1.347,0.622-2.693,1.249-4.038,1.875l-1.904,0.888
				c-0.139,0.068-0.278,0.134-0.421,0.189c-0.349,0.133-0.62,0.023-0.758-0.272c-0.147-0.316-0.05-0.601,0.26-0.761
				c0.135-0.069,0.269-0.138,0.406-0.202l1.749-0.811c1.56-0.722,3.12-1.445,4.669-2.19c0.552-0.266,1.017-0.257,1.628,0.05
				c2.516,1.26,5.038,2.505,7.562,3.75l2.299,1.139c0.015,0.008,0.03,0.017,0.045,0.024c-0.318-0.668-0.683-1.319-1.039-1.953
				c-0.245-0.438-0.49-0.875-0.723-1.32c-0.176-0.337-0.377-0.798-0.374-1.373c0.011-2.01,0.012-4.021,0.013-6.031l0.001-2.299
				c0-0.155,0.002-0.309,0.015-0.462c0.029-0.346,0.231-0.552,0.542-0.552c0.335,0.021,0.525,0.221,0.547,0.523
				c0.017,0.241,0.021,0.484,0.021,0.725l0,1.563c0.001,2.08,0.002,4.159-0.008,6.237c-0.002,0.429,0.087,0.791,0.283,1.141
				l0.196,0.35c0.646,1.155,1.315,2.349,1.915,3.556c0.192,0.389,0.314,0.421,0.422,0.421c0.098,0,0.231-0.034,0.407-0.108
				c2.689-1.121,5.412-2.19,7.484-2.997c0.059-0.023,0.124-0.061,0.192-0.1c0.174-0.099,0.372-0.211,0.583-0.211
				c0.136,0,0.385,0.052,0.53,0.396c0.084,0.201,0.088,0.378,0.011,0.529c-0.128,0.252-0.424,0.324-0.663,0.381
				c-0.076,0.019-0.15,0.035-0.208,0.059c-1.223,0.499-2.45,0.989-3.676,1.479c-1.404,0.562-2.808,1.123-4.206,1.697
				c-0.622,0.255-1.118,0.237-1.699-0.056c-2.285-1.153-4.581-2.287-6.876-3.42l-2.243-1.109c-0.1-0.049-0.2-0.098-0.3-0.146
				c0.029,0.041,0.058,0.082,0.087,0.123l1.458,2.02c1.967,2.729,3.935,5.457,5.905,8.183c0.194,0.268,0.359,0.499,0.422,0.523
				c0.03-0.002,0.151-0.063,0.258-0.118c0.096-0.049,0.211-0.107,0.353-0.172l1.646-0.747c2.917-1.324,5.835-2.649,8.741-3.998
				c0.655-0.305,1.161-0.275,1.788,0.102c2.461,1.482,4.98,2.966,7.415,4.398l1.271,0.749c0.064,0.039,0.128,0.079,0.191,0.12
				c0.021,0.014,0.041,0.027,0.061,0.04c-0.015-0.021-0.03-0.043-0.044-0.065c-0.044-0.062-0.088-0.127-0.129-0.191l-1.64-2.591
				c-1.13-1.782-2.26-3.564-3.379-5.354c-0.029-0.047-0.072-0.095-0.117-0.146c-0.148-0.171-0.333-0.384-0.292-0.652
				c0.025-0.165,0.131-0.307,0.314-0.421c0.125-0.078,0.247-0.118,0.363-0.118c0.359,0,0.516,0.339,0.62,0.563
				c0.028,0.062,0.054,0.12,0.084,0.166c1.456,2.274,2.9,4.557,4.345,6.838l1.451,2.292c0.155,0.243,0.314,0.495,0.381,0.524
				c0.062-0.01,0.301-0.211,0.533-0.406l4.946-4.165c0.077-0.066,0.153-0.133,0.237-0.188c0.04-0.026,0.078-0.06,0.118-0.094
				c0.127-0.107,0.285-0.241,0.493-0.241c0.173,0,0.329,0.092,0.46,0.272c0.104,0.141,0.144,0.284,0.122,0.424
				c-0.038,0.229-0.227,0.362-0.366,0.462c-0.034,0.023-0.068,0.047-0.096,0.071c-0.764,0.646-1.529,1.29-2.295,1.933
				c-1.225,1.03-2.451,2.06-3.667,3.1c-0.392,0.336-0.712,0.398-1.28,0.18c-2.52-0.961-5.044-1.908-7.569-2.854l-2.54-0.952
				c-0.031-0.012-0.061-0.027-0.091-0.042c-0.129-0.04-0.217-0.082-0.295-0.119c0.008,0.012,0.015,0.024,0.022,0.035
				c0.047,0.075,0.092,0.151,0.12,0.227c0.059,0.153,0.131,0.303,0.204,0.451l1.974,4.18c0.076,0.162,0.152,0.323,0.225,0.487
				c0.061,0.135,0.134,0.338,0.055,0.538c-0.053,0.134-0.163,0.236-0.325,0.305C47.143,78.349,47.062,78.366,46.984,78.366z
				 M43.33,71.202c0.446,0,0.663,0.355,0.802,0.665c0.588,1.307,1.214,2.625,1.82,3.898l0.743,1.57
				c0.058,0.125,0.116,0.249,0.18,0.37c0.052,0.098,0.089,0.154,0.11,0.164h-0.001c0.004,0,0.02-0.002,0.052-0.015
				c0.035-0.015,0.051-0.028,0.055-0.032l0,0c-0.001,0,0.002-0.039-0.047-0.147c-0.073-0.161-0.146-0.32-0.222-0.479l-1.972-4.175
				c-0.078-0.162-0.157-0.325-0.221-0.492c-0.018-0.047-0.049-0.095-0.079-0.141c-0.101-0.163-0.288-0.466-0.033-0.742
				c0.158-0.172,0.432-0.109,0.642-0.007c0.056,0.027,0.119,0.06,0.158,0.068c0.063,0.015,0.114,0.04,0.154,0.06l2.581,0.973
				c2.525,0.947,5.051,1.894,7.571,2.855c0.161,0.061,0.277,0.089,0.375,0.089c0.095,0,0.217-0.022,0.405-0.183
				c1.217-1.041,2.444-2.072,3.671-3.103c0.765-0.644,1.53-1.286,2.292-1.932c0.039-0.032,0.084-0.065,0.13-0.098
				c0.051-0.037,0.145-0.104,0.163-0.137c-0.002-0.001-0.009-0.019-0.032-0.05c-0.044-0.061-0.068-0.071-0.068-0.071
				c-0.024,0.007-0.112,0.081-0.164,0.126c-0.055,0.046-0.109,0.092-0.164,0.128c-0.066,0.043-0.125,0.097-0.185,0.148l-0.066,0.057
				l-4.884,4.112c-0.413,0.348-0.619,0.522-0.865,0.522c-0.312,0-0.481-0.268-0.79-0.754L53.99,72.16
				c-1.444-2.281-2.889-4.562-4.344-6.836c-0.041-0.062-0.078-0.142-0.116-0.225c-0.037-0.078-0.121-0.26-0.168-0.275l0,0
				c-0.007,0-0.038,0.002-0.101,0.041c-0.074,0.046-0.087,0.075-0.087,0.075c0,0.049,0.119,0.187,0.177,0.252
				c0.063,0.074,0.123,0.144,0.164,0.209c1.117,1.788,2.247,3.569,3.376,5.351l1.641,2.59c0.038,0.061,0.078,0.119,0.118,0.177
				c0.114,0.165,0.24,0.349,0.316,0.566l0.024,0.001l0.016,0.086l0.116,0.061l-0.069,0.248l-0.07,0.13l-0.174,0.027h-0.209
				l-0.031-0.097c-0.24-0.057-0.436-0.185-0.613-0.299c-0.058-0.037-0.115-0.075-0.173-0.108l-1.271-0.749
				c-2.436-1.435-4.956-2.918-7.419-4.401c-0.487-0.294-0.818-0.312-1.322-0.077c-2.907,1.35-5.827,2.675-8.745,4l-1.646,0.746
				c-0.134,0.062-0.242,0.116-0.333,0.163c-0.203,0.103-0.336,0.171-0.491,0.171c-0.292,0-0.445-0.212-0.816-0.726
				c-1.972-2.729-3.939-5.456-5.907-8.185l-1.458-2.021c-0.104-0.145-0.207-0.292-0.308-0.438c-0.147-0.213-0.155-0.387-0.031-0.531
				c0.137-0.162,0.395-0.119,0.518-0.058l0.181,0.086c0.16,0.076,0.318,0.152,0.477,0.23l2.243,1.108
				c2.296,1.134,4.593,2.268,6.88,3.423c0.457,0.231,0.795,0.241,1.286,0.038c1.4-0.574,2.805-1.136,4.21-1.697
				c1.225-0.49,2.45-0.98,3.672-1.479c0.079-0.032,0.177-0.057,0.28-0.082c0.093-0.022,0.31-0.075,0.336-0.123
				c0,0,0.008-0.03-0.026-0.113c-0.039-0.092-0.064-0.092-0.072-0.092c-0.08,0-0.223,0.082-0.337,0.146
				c-0.091,0.052-0.18,0.101-0.257,0.131c-2.07,0.805-4.789,1.873-7.474,2.992c-0.899,0.376-1.229-0.076-1.463-0.545l-0.552,0.535
				l-0.097-0.208c-0.216-0.052-0.406-0.152-0.577-0.244l-0.164-0.085l-2.122-1.047c-2.524-1.246-5.048-2.492-7.563-3.751
				c-0.474-0.237-0.775-0.246-1.191-0.046c-1.551,0.747-3.113,1.47-4.675,2.193L15.8,64.208c-0.13,0.061-0.259,0.126-0.387,0.193
				c-0.046,0.023-0.059,0.041-0.061,0.043c0.001,0,0.001,0.021,0.022,0.067c0.048,0.043,0.078,0.039,0.132,0.018
				c0.13-0.049,0.256-0.11,0.382-0.171l1.911-0.892c1.346-0.626,2.691-1.253,4.039-1.875c0.331-0.153,0.549-0.253,0.749-0.253
				c0.356,0,0.511,0.274,0.791,0.771c0.726,1.29,1.449,2.581,2.172,3.872l1.073,1.917c1.287,2.297,2.573,4.594,3.855,6.894
				c0.018,0.031,0.043,0.063,0.067,0.099c0.103,0.143,0.317,0.438,0.076,0.724c-0.184,0.219-0.514,0.146-0.711,0.045
				c-0.041-0.021-0.08-0.043-0.118-0.055c-0.819-0.25-1.635-0.514-2.45-0.781c-0.124-0.041-0.144-0.068-0.175,0.036
				c-0.01,0.031-0.019,0.062,0.097,0.106c0.162,0.065,0.327,0.119,0.493,0.171l0.163,0.054c0.295,0.097,0.593,0.188,0.89,0.282
				c0.711,0.221,1.447,0.449,2.147,0.742c0.421,0.177,0.693,0.175,1.124-0.023c1.627-0.74,3.257-1.477,4.887-2.212
				c1.922-0.867,3.845-1.735,5.763-2.613C42.976,71.253,43.161,71.202,43.33,71.202z M34.184,65.931l0.261,0.032
				c-0.583-1.168-1.232-2.327-1.861-3.451l-0.196-0.35c-0.239-0.428-0.349-0.868-0.346-1.386c0.01-2.078,0.009-4.156,0.008-6.234
				l0-1.564c0-0.229-0.003-0.461-0.02-0.69l-0.035-0.062c-0.047-0.004-0.057,0.021-0.063,0.096c-0.012,0.14-0.012,0.281-0.013,0.423
				l-0.001,2.298c-0.001,2.011-0.002,4.022-0.014,6.034c-0.002,0.368,0.093,0.709,0.317,1.141c0.23,0.44,0.473,0.874,0.716,1.306
				C33.369,64.298,33.817,65.096,34.184,65.931L34.184,65.931z"/>
		</g>
		<path d="M102.65,70.986c-1.151-0.519-2.288-0.372-3.173,0.416c-0.992,0.883-1.291,2.112-0.913,3.758
			c0.266,1.157,1.038,1.904,2.235,2.158c0.05,0.011,0.103,0.015,0.205,0.021c0.126,0.011,0.247,0.016,0.366,0.016
			c1.798,0,2.967-1.292,2.975-3.29C104.355,72.513,103.801,71.505,102.65,70.986z M101.5,71.618v0.247c0,0,1.16,0.422,1.379,1.051
			c0.156,0.448,0.194,0.795,0.183,1.136c0.004,0.341-0.08,0.853-0.23,1.269c-0.226,0.619-0.789,1.18-1.45,1.18h-0.01
			c-0.645,0-1.212-0.588-1.438-1.236c-0.253-0.725-0.253-1.53,0.003-2.254c0.227-0.636,0.859-1.104,1.498-1.109L101.5,71.6V71.618z"
			/>
		<g>
			<path d="M91.387,84.955c-1.141-0.539-2.282-0.411-3.18,0.362c-1.039,0.896-1.348,2.149-0.94,3.832
				c0.279,1.157,1.063,1.891,2.267,2.121c0.051,0.01,0.104,0.014,0.204,0.018c0.108,0.009,0.213,0.013,0.316,0.013
				c1.838,0,2.98-1.276,2.98-3.329C93.037,86.468,92.498,85.48,91.387,84.955z M89.942,86.5l0.093-0.221
				c0.954,0.018,1.638,0.645,1.655,1.906c0.01,0.73-0.188,1.239-0.584,1.646c-0.281,0.287-0.631,0.383-1.042,0.386
				c-0.395,0-0.746-0.178-1.027-0.46c-0.398-0.398-0.899-1.032-0.897-1.763c0.004-1.275,0.36-2.182,1.36-2.182V86.5
				C89.5,86.5,89.941,86.5,89.942,86.5z"/>
			<path d="M50.909,78.127c-1.179-0.43-2.248-0.251-3.073,0.51c-0.949,0.876-1.239,2.081-0.886,3.684
				c0.256,1.165,1.019,1.923,2.205,2.19c0.076,0.018,0.153,0.023,0.232,0.027l0.069,0.004c0.104,0.008,0.208,0.012,0.308,0.012
				c0.844,0,1.563-0.275,2.082-0.795c0.588-0.59,0.898-1.468,0.896-2.54C52.738,79.654,52.087,78.557,50.909,78.127z M49.5,79.5
				v-0.434c1,0,1.777,0.89,1.787,2.165c0.003,0.345,0.007,0.714-0.138,1.129c-0.218,0.63-0.757,1.052-1.41,1.052
				c-0.648-0.006-1.208-0.436-1.418-1.069c-0.121-0.362-0.219-0.74-0.194-1.057c0.016-1.305,0.672-1.858,1.626-1.881L49.95,79.5
				H49.5z"/>
			<path d="M24.238,71.035c-1.182-0.429-2.253-0.247-3.071,0.52c-0.969,0.909-1.247,2.145-0.849,3.773
				c0.271,1.108,1.025,1.833,2.181,2.096c0.053,0.013,0.107,0.018,0.206,0.025c0.139,0.014,0.274,0.021,0.406,0.021
				c1.791,0,2.955-1.28,2.967-3.258C26.09,72.598,25.436,71.469,24.238,71.035z M22.5,72.5v-0.522c1,0,1.945,0.889,1.955,2.164
				c0.003,0.345,0.093,0.803-0.052,1.218c-0.219,0.629-0.616,1.141-1.267,1.141h-0.011c-0.648,0-1.231-0.523-1.443-1.156
				c-0.113-0.339-0.228-0.774-0.205-1.143c0.015-1.279,0.665-1.794,1.619-1.818l0.119,0.117H22.5z"/>
			<path d="M66.936,62.362c-0.052-0.012-0.106-0.017-0.205-0.024c-2.021-0.211-3.365,1.108-3.38,3.231
				c-0.011,1.614,0.641,2.744,1.836,3.18c0.421,0.153,0.832,0.23,1.22,0.23c0.703,0,1.326-0.25,1.854-0.742
				c0.97-0.908,1.249-2.142,0.852-3.773C68.841,63.353,68.089,62.626,66.936,62.362z M66.143,63.5l0.111,0.104
				c0.953,0.02,1.644,0.81,1.66,2.072c0.009,0.729-0.186,1.32-0.582,1.727c-0.281,0.287-0.629,0.422-1.036,0.426
				c-0.396,0-0.749-0.159-1.031-0.442c-0.396-0.398-1.012-1.024-1.009-1.754c0.006-1.274,0.245-2.169,1.245-2.169V63.5H66.143z"/>
			<path d="M11.591,62.184c-0.052-0.012-0.105-0.016-0.204-0.023c-2.031-0.211-3.365,1.108-3.38,3.231
				c-0.012,1.616,0.641,2.744,1.836,3.179c0.421,0.154,0.832,0.232,1.22,0.232c0.702,0,1.326-0.25,1.853-0.742
				c0.971-0.907,1.25-2.142,0.853-3.773C13.499,63.176,12.747,62.449,11.591,62.184z M10.5,63.038v0.248c0,0,0.984,0.15,1.266,0.434
				c0.399,0.402,0.733,1.028,0.729,1.758c-0.009,1.261-0.597,2.125-1.597,2.155c-0.956-0.001-1.6-0.885-1.61-2.152
				c-0.006-0.732,0.224-1.355,0.621-1.757c0.283-0.285,0.416-0.437,0.813-0.438L10.5,63.038L10.5,63.038z"/>
			<path d="M47.849,63.971c0.118,0.01,0.233,0.015,0.346,0.015c1.831,0,2.972-1.267,2.977-3.304
				c0.013-1.504-0.518-2.495-1.623-3.031c-1.127-0.545-2.269-0.429-3.183,0.331c-1.021,0.849-1.348,2.071-0.997,3.736
				c0.255,1.213,1.042,1.986,2.275,2.234C47.695,63.962,47.748,63.965,47.849,63.971z M48.215,63.5c-0.001,0-0.002,0-0.003,0
				c-0.66,0-1.125-0.672-1.379-1.257c-0.354-0.814-0.357-1.811-0.007-2.634c0.25-0.588,0.71-0.988,1.371-1.025l0.076-0.043
				c0.573,0,1.086,0.35,1.34,0.946c0.151,0.354,0.237,0.748,0.253,1.178c-0.008,0.422-0.091,1.153-0.247,1.53
				C49.375,62.79,48.847,63.5,48.215,63.5z"/>
			<path d="M79.681,57.375c-0.187-1.49-1.252-2.547-2.65-2.63c-1.613-0.093-2.762,0.741-3.131,2.263
				c-0.185,0.767-0.171,1.587,0.042,2.301c0.409,1.368,1.411,2.191,2.823,2.191h0.037c1.364,0,2.346-0.836,2.767-2.192
				c0.124-0.401,0.132-0.83,0.142-1.334l-0.004-0.139C79.704,57.706,79.7,57.531,79.681,57.375z M75.293,59.27
				c-0.252-0.724-0.25-1.527,0.006-2.25c0.227-0.636,0.678-1.102,1.314-1.108L76.5,55.619v0.012v0.246c0,0,1.343,0.423,1.562,1.051
				c0.098,0.282,0.288,0.701,0.272,1.097c0.006,0.373-0.029,0.881-0.184,1.302c-0.225,0.619-0.756,1.174-1.415,1.174
				c-0.001,0-0.006,0-0.006,0C76.086,60.5,75.52,59.918,75.293,59.27z M76.765,61.109L76.765,61.109v0.002V61.109z"/>
			<path d="M34.824,46.813c-0.188-1.49-1.253-2.547-2.652-2.63c-1.612-0.092-2.762,0.741-3.13,2.264
				c-0.185,0.766-0.171,1.368,0.042,2.081c0.409,1.368,1.411,1.972,2.823,1.972h0.038c1.363,0,2.346-0.617,2.766-1.973
				c0.125-0.401,0.132-0.72,0.142-1.225l-0.003-0.084C34.847,47.09,34.843,46.97,34.824,46.813z M30.436,48.489
				c-0.252-0.724-0.25-1.417,0.006-2.14c0.227-0.636,0.606-1.047,1.244-1.054L31.5,45.058v0.012v0.246c0,0,1.414,0.423,1.633,1.052
				c0.098,0.282,0.325,0.701,0.309,1.097c0.005,0.373-0.013,0.661-0.167,1.082c-0.225,0.619-0.738,0.954-1.397,0.954h-0.005
				C31.229,49.5,30.663,49.138,30.436,48.489z M31.907,50.549L31.907,50.549v0.002V50.549z"/>
			<path d="M101.604,49.2c-1.181-0.428-2.253-0.248-3.071,0.52c-0.97,0.909-1.247,2.144-0.849,3.773
				c0.271,1.108,1.024,1.833,2.184,2.097c0.052,0.011,0.104,0.016,0.203,0.023c0.14,0.014,0.274,0.021,0.406,0.021
				c1.79,0,2.954-1.279,2.968-3.258C103.455,50.762,102.802,49.633,101.604,49.2z M100.5,49.895l0.001,0.248
				c0.955,0.003,1.612,0.855,1.638,2.12c0.027,1.288-0.638,2.203-1.654,2.227c-0.395,0-0.757-0.155-1.042-0.448
				c-0.4-0.412-0.614-1.065-0.595-1.793c0.031-1.259,0.652-2.105,1.652-2.105V49.895L100.5,49.895z"/>
		</g>
		<g>
			<path fill-rule="evenodd" clip-rule="evenodd" d="M19.091,74.327c0,0.621,0.035,1.243-0.013,1.859
				c-0.026,0.352,0.278,0.952-0.369,0.983c-0.704,0.032-0.369-0.596-0.411-0.939c-0.053-0.438-0.027-0.885-0.011-1.327
				c0.014-0.369-0.118-0.563-0.508-0.526c-0.059,0.006-0.119-0.004-0.178,0c-0.703,0.041-1.572-0.283-2.064,0.13
				c-0.479,0.401-0.106,1.28-0.17,1.946c-0.014,0.146-0.006,0.296-0.021,0.442c-0.022,0.212-0.155,0.292-0.359,0.3
				c-0.246,0.008-0.406-0.08-0.412-0.343c-0.01-0.501-0.013-1.003-0.014-1.505c-0.001-1.123-0.008-2.247,0.006-3.368
				c0.003-0.295-0.121-0.71,0.419-0.694c0.468,0.014,0.347,0.378,0.379,0.649c0.007,0.059,0.001,0.118,0.002,0.178
				c0.025,1.636,0.025,1.643,1.703,1.632c1.393-0.009,1.193,0.174,1.216-1.233c0.003-0.206-0.004-0.413,0.003-0.62
				c0.011-0.289-0.046-0.629,0.422-0.607c0.468,0.021,0.371,0.38,0.375,0.651C19.099,72.731,19.091,73.529,19.091,74.327z"/>
			<path d="M14.957,77.443c-0.387,0-0.622-0.219-0.629-0.586c-0.01-0.503-0.013-1.006-0.014-1.51l-0.001-0.66
				c-0.002-0.903-0.004-1.809,0.007-2.712c0-0.041-0.002-0.086-0.004-0.13c-0.011-0.2-0.023-0.446,0.15-0.631
				c0.112-0.118,0.278-0.178,0.493-0.178c0.648,0.018,0.648,0.511,0.648,0.721c0,0.051,0,0.102,0.005,0.147
				c0.006,0.051,0.006,0.101,0.004,0.15c0.021,1.441,0.021,1.441,1.116,1.441l0.449-0.002l0.52,0.004c0.182,0,0.29-0.009,0.32-0.024
				c0.018-0.041,0.017-0.275,0.016-0.503c0-0.132-0.001-0.286,0.001-0.465l0-0.254c-0.001-0.123-0.001-0.247,0.003-0.371
				l0.002-0.095c0.002-0.226,0.008-0.753,0.628-0.753c0.694,0.03,0.674,0.558,0.666,0.781c-0.001,0.04-0.003,0.077-0.002,0.114
				c0.009,0.564,0.007,1.128,0.006,1.691l-0.001,0.706c0,0.181,0.003,0.36,0.006,0.541c0.007,0.438,0.015,0.89-0.02,1.338
				c-0.004,0.062,0.008,0.157,0.021,0.249c0.033,0.234,0.073,0.524-0.107,0.742c-0.112,0.136-0.287,0.209-0.519,0.22l-0.062,0.002
				c-0.229,0-0.402-0.065-0.516-0.194c-0.179-0.206-0.141-0.488-0.11-0.714c0.013-0.095,0.026-0.192,0.019-0.25
				c-0.05-0.41-0.034-0.824-0.018-1.226l0.005-0.142c0.007-0.179-0.03-0.23-0.042-0.242c-0.024-0.025-0.101-0.038-0.195-0.027
				l-0.066,0.003l-0.051-0.249l-0.052,0.246c-0.064,0.004-0.114,0.004-0.163,0.004c-0.204,0.001-0.417-0.021-0.63-0.045
				c-0.478-0.05-0.933-0.062-1.143,0.113c-0.213,0.18-0.167,0.578-0.119,1c0.03,0.26,0.061,0.527,0.037,0.781
				c-0.006,0.065-0.008,0.132-0.009,0.198c-0.002,0.081-0.004,0.163-0.013,0.245c-0.033,0.319-0.25,0.509-0.597,0.522H14.957z
				 M14.976,71.533c-0.109,0-0.145,0.018-0.151,0.023c-0.027,0.029-0.019,0.186-0.015,0.262c0.003,0.056,0.006,0.111,0.005,0.163
				c-0.011,0.901-0.009,1.803-0.007,2.706l0.001,0.659c0.001,0.501,0.004,1.001,0.014,1.501c0.001,0.081,0.002,0.1,0.133,0.1v0.248
				l0.022-0.248c0.113-0.004,0.115-0.021,0.121-0.078c0.006-0.067,0.008-0.137,0.009-0.205c0.002-0.078,0.004-0.157,0.011-0.234
				c0.02-0.201-0.008-0.442-0.035-0.676c-0.059-0.51-0.125-1.087,0.292-1.438c0.289-0.242,0.65-0.271,0.896-0.271
				c0.198,0,0.408,0.021,0.619,0.045c0.237,0.024,0.477,0.048,0.696,0.039h0.107c0.101-0.004,0.138-0.006,0.173-0.006
				c0.207,0,0.371,0.062,0.487,0.182c0.131,0.137,0.19,0.336,0.18,0.606l-0.006,0.143c-0.015,0.382-0.03,0.775,0.015,1.146
				c0.015,0.122-0.002,0.252-0.02,0.376c-0.011,0.086-0.039,0.285-0.007,0.321c0,0.001,0.028,0.025,0.141,0.025
				c0.136-0.006,0.186-0.026,0.199-0.043c0.04-0.048,0.013-0.241-0.002-0.355c-0.017-0.118-0.034-0.24-0.025-0.356
				c0.032-0.425,0.025-0.865,0.019-1.292c-0.003-0.184-0.006-0.366-0.006-0.549l0.001-0.707c0.001-0.561,0.003-1.121-0.006-1.682
				c-0.001-0.046,0.001-0.093,0.002-0.142c0.01-0.259,0.007-0.26-0.141-0.266c-0.136-0.012-0.133,0.016-0.133,0.016
				c-0.025,0.027-0.026,0.175-0.027,0.245L18.537,71.9c-0.004,0.116-0.004,0.232-0.003,0.351l0,0.264
				c-0.003,0.175-0.002,0.325-0.001,0.454c0.002,0.445,0.003,0.689-0.167,0.86c-0.154,0.155-0.373,0.167-0.666,0.167l-0.52-0.004
				l-0.449,0.002c-1.535,0-1.588-0.298-1.613-1.878l0-0.072c0.001-0.027,0.002-0.054-0.001-0.08
				c-0.007-0.065-0.008-0.136-0.008-0.206c0-0.062,0-0.178-0.019-0.204l0,0c0,0-0.025-0.019-0.112-0.021
				C14.978,71.533,14.977,71.533,14.976,71.533z"/>
		</g>
		<g>
			<path fill-rule="evenodd" clip-rule="evenodd" d="M72.72,58.143c0,0.768,0.008,1.537-0.005,2.305
				c-0.005,0.272,0.088,0.629-0.381,0.646c-0.471,0.017-0.41-0.327-0.415-0.612c-0.01-0.562-0.019-1.124-0.002-1.684
				c0.011-0.375-0.128-0.536-0.514-0.525c-0.62,0.018-1.242,0.022-1.861-0.002c-0.437-0.017-0.564,0.175-0.551,0.581
				c0.02,0.59,0.002,1.181-0.002,1.773c-0.002,0.254-0.047,0.464-0.378,0.473c-0.318,0.007-0.415-0.159-0.415-0.438
				c0.001-1.684,0.002-3.368,0-5.052c0-0.285,0.114-0.437,0.424-0.427c0.334,0.01,0.367,0.231,0.37,0.481
				c0.005,0.502,0.015,1.004,0.005,1.507c-0.007,0.333,0.127,0.484,0.467,0.478c0.649-0.011,1.302-0.016,1.951,0.002
				c0.394,0.012,0.517-0.17,0.503-0.534c-0.016-0.413-0.015-0.828,0.003-1.241c0.014-0.297-0.112-0.708,0.425-0.689
				c0.467,0.017,0.366,0.383,0.37,0.654C72.729,56.606,72.72,57.375,72.72,58.143z"/>
			<path d="M68.59,61.345c-0.198,0-0.355-0.057-0.466-0.168c-0.119-0.119-0.176-0.288-0.176-0.518v-5.051
				c0-0.429,0.234-0.676,0.644-0.676c0.64,0.02,0.645,0.553,0.646,0.728l0.003,0.301c0.005,0.404,0.01,0.809,0.002,1.213
				c-0.003,0.14,0.026,0.181,0.035,0.19c0.008,0.008,0.044,0.035,0.165,0.035c0.682-0.011,1.324-0.016,1.977,0.002
				c0.001,0,0.003,0,0.005,0c0.115,0,0.18-0.014,0.203-0.039c0.015-0.015,0.047-0.066,0.04-0.237
				c-0.017-0.427-0.015-0.851,0.004-1.261c0.002-0.045,0-0.094-0.002-0.142c-0.007-0.194-0.015-0.435,0.156-0.612
				c0.111-0.115,0.273-0.173,0.481-0.173c0.247,0.008,0.404,0.07,0.511,0.185c0.164,0.178,0.154,0.419,0.147,0.596
				c-0.002,0.04-0.004,0.079-0.004,0.117c0.011,0.552,0.009,1.104,0.007,1.656l-0.001,0.653l0.001,0.652
				c0.001,0.552,0.003,1.104-0.006,1.656l0.002,0.112c0.008,0.226,0.025,0.754-0.621,0.778c-0.002,0-0.004,0-0.005,0
				c-0.237,0-0.392-0.056-0.499-0.165c-0.172-0.172-0.171-0.411-0.169-0.602v-0.089c-0.01-0.566-0.019-1.132-0.002-1.696
				c0.005-0.165-0.027-0.215-0.041-0.229c-0.025-0.025-0.094-0.041-0.188-0.041c-0.682,0.019-1.283,0.023-1.907-0.001
				c-0.158,0.007-0.218,0.016-0.245,0.044c-0.021,0.021-0.055,0.086-0.048,0.279c0.015,0.437,0.01,0.874,0.004,1.311l-0.006,0.472
				c-0.003,0.468-0.211,0.709-0.62,0.72L68.59,61.345z M68.596,55.429c-0.12,0-0.151,0.007-0.151,0.179v5.052
				c0,0.133,0.027,0.164,0.031,0.167c0.008,0.008,0.04,0.022,0.114,0.022v0.248l0.016-0.249c0.114-0.003,0.135-0.003,0.136-0.226
				l0.006-0.475c0.006-0.43,0.011-0.859-0.004-1.288c-0.006-0.186,0.006-0.454,0.187-0.641c0.128-0.132,0.312-0.197,0.56-0.197
				l0.062,0.001c0.613,0.024,1.229,0.02,1.844,0.001c0.002,0,0.003,0,0.004,0c0.283,0,0.46,0.062,0.586,0.191
				c0.128,0.133,0.188,0.325,0.18,0.59c-0.017,0.557-0.008,1.115,0.002,1.672v0.101c-0.001,0.073-0.002,0.224,0.023,0.249
				c0,0,0.024,0.019,0.11,0.019c0.177-0.006,0.177-0.006,0.169-0.266c-0.002-0.046-0.004-0.093-0.003-0.137
				c0.009-0.548,0.007-1.097,0.006-1.646l-0.001-0.654l0.001-0.654c0.002-0.549,0.004-1.098-0.007-1.646
				c0-0.047,0.002-0.097,0.004-0.146c0.002-0.069,0.009-0.212-0.016-0.238c-0.006-0.006-0.039-0.022-0.12-0.025
				c-0.001,0-0.002,0-0.004,0c-0.109,0-0.143,0.016-0.147,0.02c-0.024,0.026-0.02,0.183-0.017,0.25
				c0.002,0.062,0.004,0.125,0.001,0.182c-0.018,0.396-0.019,0.807-0.003,1.22c0.007,0.171-0.005,0.421-0.178,0.6
				c-0.125,0.129-0.3,0.192-0.538,0.192c-0.735-0.02-1.335-0.014-1.982-0.003c0,0,0,0-0.001,0c-0.251,0-0.42-0.06-0.542-0.184
				c-0.124-0.126-0.181-0.306-0.176-0.547c0.008-0.399,0.003-0.798-0.002-1.197l-0.003-0.302c-0.003-0.231-0.02-0.232-0.13-0.235
				C68.606,55.429,68.602,55.429,68.596,55.429z"/>
		</g>
		<g>
			<path fill-rule="evenodd" clip-rule="evenodd" d="M57.993,81.416c0,0.621,0.035,1.243-0.012,1.859
				c-0.027,0.352,0.278,0.952-0.37,0.983c-0.703,0.032-0.369-0.595-0.411-0.939c-0.053-0.438-0.027-0.885-0.011-1.327
				c0.014-0.37-0.118-0.563-0.508-0.526c-0.059,0.005-0.118-0.003-0.177-0.001c-0.703,0.043-1.573-0.282-2.064,0.131
				c-0.478,0.401-0.106,1.281-0.17,1.947c-0.014,0.146-0.007,0.295-0.022,0.441c-0.021,0.213-0.155,0.292-0.359,0.3
				c-0.246,0.008-0.406-0.079-0.412-0.341c-0.01-0.503-0.013-1.006-0.014-1.507c-0.002-1.123-0.008-2.247,0.005-3.369
				c0.004-0.294-0.12-0.709,0.42-0.693c0.468,0.014,0.347,0.378,0.378,0.649c0.007,0.059,0.001,0.118,0.002,0.178
				c0.025,1.636,0.025,1.644,1.704,1.632c1.393-0.009,1.193,0.174,1.215-1.233c0.003-0.206-0.004-0.413,0.004-0.621
				c0.011-0.288-0.047-0.628,0.421-0.606s0.347,0.38,0.38,0.651c0.004,0.029,0.001,0.059,0.001,0.089
				C57.993,79.88,57.993,80.648,57.993,81.416z"/>
			<path d="M53.856,84.532c-0.385,0-0.62-0.219-0.627-0.585c-0.01-0.504-0.013-1.008-0.013-1.511l-0.001-0.607
				c-0.002-0.921-0.004-1.844,0.007-2.765c0-0.043-0.002-0.086-0.004-0.132c-0.01-0.198-0.023-0.446,0.151-0.628
				c0.112-0.119,0.278-0.179,0.492-0.179c0.649,0.018,0.649,0.512,0.649,0.722c0,0.051,0,0.101,0.005,0.147
				c0.005,0.05,0.005,0.1,0.004,0.149c0.021,1.442,0.021,1.442,1.117,1.442l0.449-0.002l0.518,0.004
				c0.183,0,0.291-0.009,0.321-0.026c0.018-0.04,0.017-0.275,0.016-0.502c0-0.133-0.001-0.285,0.001-0.465l0-0.248
				c-0.001-0.126-0.001-0.252,0.003-0.378l0.002-0.096c0.002-0.225,0.008-0.75,0.627-0.75c0.659,0.029,0.661,0.515,0.662,0.722
				c0,0.05,0,0.101,0.005,0.146l0.003,0.1v2.324c0,0.183,0.003,0.367,0.006,0.549c0.007,0.436,0.015,0.886-0.019,1.33
				c-0.005,0.063,0.008,0.158,0.021,0.25c0.032,0.233,0.073,0.525-0.108,0.741c-0.112,0.136-0.287,0.209-0.519,0.22l-0.062,0.002
				c-0.229,0-0.402-0.065-0.515-0.194c-0.18-0.206-0.141-0.488-0.111-0.715c0.013-0.094,0.026-0.19,0.019-0.249
				c-0.05-0.41-0.034-0.825-0.018-1.226l0.005-0.142c0.007-0.178-0.03-0.23-0.042-0.242c-0.024-0.025-0.102-0.036-0.195-0.027
				l-0.066,0.003l-0.063-0.002c-0.105,0.002-0.155,0.003-0.205,0.003c-0.204,0-0.417-0.021-0.63-0.045
				c-0.192-0.019-0.384-0.04-0.565-0.04c-0.268,0-0.45,0.048-0.576,0.154c-0.213,0.179-0.167,0.578-0.119,1.001
				c0.029,0.258,0.06,0.526,0.036,0.779c-0.006,0.066-0.008,0.132-0.01,0.198c-0.002,0.081-0.004,0.164-0.012,0.245
				c-0.033,0.321-0.251,0.511-0.598,0.522H53.856z M53.878,78.622c-0.109,0-0.146,0.018-0.151,0.023
				c-0.027,0.029-0.019,0.187-0.015,0.262c0.003,0.057,0.005,0.111,0.005,0.163c-0.011,0.919-0.009,1.838-0.007,2.758l0.001,0.607
				c0,0.5,0.003,1.001,0.014,1.502c0.001,0.079,0.002,0.099,0.131,0.099v0.248l0.024-0.248c0.113-0.004,0.115-0.021,0.121-0.077
				c0.007-0.068,0.008-0.138,0.01-0.206c0.002-0.078,0.004-0.157,0.011-0.234c0.019-0.2-0.008-0.441-0.036-0.675
				c-0.058-0.51-0.125-1.088,0.293-1.438c0.288-0.242,0.648-0.271,0.895-0.271c0.198,0,0.407,0.021,0.617,0.045
				c0.238,0.024,0.476,0.052,0.697,0.038l0.105,0.001l0.087,0.247l-0.023-0.247c0.269-0.023,0.462,0.035,0.6,0.176
				c0.131,0.137,0.19,0.335,0.18,0.606l-0.006,0.143c-0.015,0.381-0.031,0.775,0.015,1.146c0.015,0.123-0.002,0.252-0.02,0.377
				c-0.012,0.085-0.039,0.285-0.008,0.32c0,0.001,0.029,0.025,0.141,0.025c0.136-0.006,0.186-0.026,0.2-0.043
				c0.04-0.048,0.013-0.241-0.002-0.355c-0.017-0.118-0.033-0.24-0.024-0.355c0.032-0.422,0.025-0.86,0.018-1.285
				c-0.003-0.185-0.006-0.37-0.006-0.557l0-2.304c-0.007-0.125-0.007-0.194-0.008-0.265c0-0.062,0-0.179-0.019-0.202
				c0,0-0.025-0.021-0.117-0.025c-0.106,0.005-0.133,0.016-0.133,0.017c-0.024,0.026-0.025,0.174-0.026,0.243l-0.002,0.108
				c-0.005,0.119-0.004,0.237-0.003,0.355l0,0.26c-0.003,0.176-0.002,0.325-0.001,0.453c0.002,0.445,0.003,0.69-0.167,0.861
				c-0.154,0.155-0.374,0.167-0.667,0.167l-0.518-0.004l-0.449,0.002c-1.536,0-1.589-0.298-1.613-1.878l0-0.073
				c0.001-0.025,0.002-0.052-0.001-0.079c-0.007-0.065-0.008-0.135-0.008-0.205c0-0.062,0-0.179-0.019-0.205l0,0
				c0,0-0.025-0.019-0.112-0.021C53.88,78.622,53.879,78.622,53.878,78.622z"/>
		</g>
		<g>
			<path fill-rule="evenodd" clip-rule="evenodd" d="M104.166,52.403c0.001-0.679-0.029-1.361,0.013-2.038
				c0.021-0.323-0.258-0.874,0.369-0.9c0.654-0.029,0.373,0.535,0.414,0.858c0.044,0.349,0.025,0.708,0.009,1.062
				c-0.017,0.37,0.117,0.558,0.509,0.527c0.176-0.014,0.354,0.008,0.531-0.002c0.585-0.035,1.311,0.242,1.718-0.116
				c0.427-0.374,0.098-1.117,0.164-1.694c0.031-0.271-0.089-0.629,0.379-0.651c0.468-0.021,0.421,0.317,0.421,0.607
				c0.006,1.566,0.006,3.131,0,4.697c0,0.29,0.047,0.628-0.421,0.606s-0.366-0.38-0.375-0.652c-0.017-0.531-0.023-1.064-0.001-1.595
				c0.017-0.41-0.125-0.592-0.557-0.576c-0.618,0.024-1.241,0.021-1.86,0.001c-0.391-0.012-0.522,0.162-0.509,0.53
				c0.017,0.443,0.042,0.892-0.01,1.328c-0.043,0.344,0.292,0.972-0.411,0.939c-0.647-0.03-0.344-0.631-0.369-0.982
				C104.133,53.706,104.166,53.053,104.166,52.403z"/>
			<path d="M108.312,55.607l-0.053-0.001c-0.638-0.029-0.62-0.549-0.612-0.772c0.001-0.041,0.002-0.082,0.001-0.12
				c-0.013-0.442-0.025-1.025-0.001-1.612c0.008-0.187-0.025-0.25-0.047-0.271c-0.028-0.031-0.103-0.048-0.209-0.048
				c-0.712,0.026-1.294,0.022-1.921,0.002c-0.098,0.011-0.189,0.014-0.213,0.041c-0.015,0.014-0.046,0.065-0.04,0.232l0.006,0.154
				c0.016,0.397,0.031,0.808-0.018,1.213c-0.008,0.059,0.006,0.156,0.019,0.249c0.03,0.227,0.068,0.509-0.11,0.714
				c-0.114,0.129-0.286,0.195-0.515,0.195l-0.062-0.002c-0.232-0.011-0.407-0.085-0.52-0.221c-0.181-0.217-0.14-0.509-0.106-0.744
				c0.012-0.091,0.024-0.186,0.021-0.248c-0.033-0.468-0.026-0.941-0.02-1.398c0.003-0.19,0.006-0.379,0.006-0.569
				c0-0.2-0.003-0.399-0.005-0.599c-0.006-0.476-0.012-0.968,0.019-1.455c0.004-0.064-0.009-0.139-0.019-0.215
				c-0.031-0.22-0.069-0.492,0.105-0.701c0.111-0.134,0.286-0.207,0.519-0.217c0.283-0.027,0.446,0.062,0.559,0.186
				c0.174,0.194,0.146,0.457,0.124,0.669c-0.009,0.082-0.018,0.167-0.012,0.221c0.045,0.354,0.029,0.71,0.013,1.055
				c-0.011,0.224,0.026,0.276,0.037,0.288c0.02,0.021,0.072,0.034,0.143,0.034c0.11-0.007,0.162-0.008,0.214-0.008l0.286,0.005
				l0.095-0.002c0.208-0.012,0.431,0.011,0.651,0.035c0.391,0.042,0.755,0.055,0.92-0.09c0.168-0.149,0.152-0.418,0.105-0.845
				c-0.026-0.228-0.052-0.464-0.026-0.691c0.006-0.046,0.006-0.096,0.006-0.145c0-0.208,0-0.697,0.608-0.726
				c0.002,0,0.006,0,0.008,0c0.244,0,0.397,0.056,0.506,0.164c0.173,0.176,0.171,0.422,0.168,0.621l-0.001,0.069
				c0.006,1.566,0.006,3.132,0,4.699l0.001,0.069c0.003,0.198,0.005,0.444-0.168,0.62C108.664,55.552,108.51,55.607,108.312,55.607z
				 M107.339,52.288c0.309,0,0.493,0.066,0.62,0.199c0.181,0.188,0.191,0.452,0.185,0.635c-0.024,0.572-0.012,1.143,0.001,1.578
				c0.001,0.048,0,0.099-0.002,0.151c-0.009,0.253-0.009,0.253,0.141,0.26l0.029,0.249v-0.248c0.074,0,0.104-0.015,0.107-0.019
				c0.028-0.029,0.026-0.188,0.025-0.265l-0.001-0.076c0.006-1.566,0.006-3.13,0-4.696l0.001-0.077
				c0.001-0.077,0.003-0.237-0.025-0.266c0,0-0.022-0.019-0.107-0.019c-0.122,0.005-0.146,0.026-0.146,0.026
				c-0.02,0.023-0.02,0.146-0.02,0.205c0,0.069-0.001,0.137-0.008,0.202c-0.021,0.171,0.002,0.37,0.025,0.58
				c0.049,0.442,0.104,0.942-0.271,1.272c-0.254,0.222-0.568,0.248-0.783,0.248c-0.165,0-0.341-0.019-0.517-0.038
				c-0.16-0.018-0.321-0.035-0.474-0.035l-0.096,0.002c-0.041,0.002-0.081,0.003-0.124,0.003l-0.286-0.005
				c-0.038,0-0.077,0.001-0.115,0.004c-0.277,0.019-0.466-0.041-0.601-0.183c-0.131-0.137-0.188-0.334-0.175-0.603
				c0.017-0.374,0.03-0.708-0.008-1.02c-0.014-0.111-0.002-0.225,0.01-0.336c0.009-0.081,0.026-0.249,0.001-0.284
				c-0.007-0.005-0.044-0.022-0.132-0.022c-0.14,0.005-0.186,0.027-0.195,0.04c-0.033,0.041-0.009,0.219,0.004,0.315
				c0.016,0.112,0.029,0.221,0.023,0.314c-0.029,0.468-0.023,0.951-0.018,1.417c0.002,0.202,0.005,0.404,0.005,0.605
				c0,0.192-0.003,0.384-0.006,0.576c-0.007,0.447-0.014,0.909,0.019,1.355c0.009,0.115-0.008,0.236-0.025,0.353
				c-0.016,0.115-0.042,0.309-0.002,0.358c0.014,0.016,0.063,0.037,0.161,0.042c0.149-0.005,0.18-0.024,0.18-0.024
				c0.031-0.035,0.004-0.235-0.008-0.321c-0.017-0.125-0.034-0.254-0.019-0.376c0.044-0.367,0.028-0.757,0.015-1.134l-0.007-0.156
				c-0.01-0.266,0.048-0.46,0.178-0.595c0.126-0.129,0.303-0.192,0.543-0.192c0.699,0.019,1.273,0.022,1.887-0.001
				C107.333,52.288,107.335,52.288,107.339,52.288z"/>
		</g>
		<g>
			<path fill-rule="evenodd" clip-rule="evenodd" d="M98.279,88.088c0.001,0.798,0.005,1.595-0.001,2.393
				c-0.002,0.268,0.011,0.546-0.39,0.552c-0.398,0.007-0.406-0.258-0.408-0.534c-0.005-0.592-0.018-1.182-0.001-1.773
				c0.011-0.383-0.146-0.526-0.522-0.516c-0.62,0.017-1.242,0.023-1.861-0.002c-0.445-0.018-0.555,0.191-0.543,0.589
				c0.019,0.59,0.002,1.182-0.002,1.772c0,0.259-0.058,0.46-0.387,0.465c-0.322,0.004-0.406-0.174-0.406-0.446
				c0.001-1.684,0.002-3.368,0.002-5.052c0-0.29,0.129-0.432,0.431-0.418c0.27,0.012,0.354,0.167,0.356,0.4
				c0.006,0.502,0.027,1.005,0.006,1.507c-0.018,0.423,0.151,0.578,0.568,0.562c0.592-0.021,1.184-0.028,1.772,0.002
				c0.49,0.027,0.608-0.203,0.587-0.634c-0.021-0.442-0.001-0.886-0.001-1.33c0-0.295,0.054-0.526,0.435-0.508
				c0.337,0.018,0.362,0.243,0.363,0.489C98.28,86.433,98.278,87.261,98.279,88.088z"/>
			<path d="M94.154,91.281c-0.229,0-0.4-0.074-0.513-0.219c-0.118-0.154-0.132-0.345-0.132-0.476l0.002-5.052
				c0-0.424,0.232-0.667,0.641-0.667c0.422,0.017,0.64,0.252,0.644,0.647l0.007,0.396c0.008,0.375,0.014,0.75-0.002,1.124
				c-0.007,0.181,0.029,0.239,0.045,0.256c0.03,0.031,0.109,0.049,0.219,0.049c0.689-0.025,1.246-0.031,1.843,0.001
				c0.167,0.003,0.244-0.017,0.275-0.049c0.029-0.031,0.062-0.112,0.05-0.326c-0.014-0.304-0.01-0.606-0.006-0.912
				c0.002-0.143,0.004-0.286,0.004-0.43c0-0.202,0.021-0.429,0.183-0.591c0.11-0.11,0.266-0.165,0.46-0.165
				c0.649,0.03,0.651,0.544,0.652,0.736c0.003,0.57,0.002,1.141,0.002,1.71l0.001,1.292c0.001,0.626,0.002,1.251-0.002,1.875
				c-0.001,0.254-0.003,0.789-0.634,0.799c-0.654,0-0.658-0.547-0.66-0.779l-0.004-0.404c-0.006-0.461-0.01-0.919,0.002-1.378
				c0.006-0.162-0.028-0.209-0.038-0.221c-0.014-0.012-0.057-0.041-0.198-0.041c-0.687,0.018-1.284,0.022-1.908-0.002
				c-0.15-0.007-0.209,0.015-0.236,0.043c-0.021,0.021-0.054,0.087-0.049,0.29c0.014,0.431,0.008,0.863,0.004,1.295l-0.006,0.486
				c-0.002,0.581-0.345,0.707-0.631,0.712H94.154z M94.158,85.364c-0.119,0-0.15,0.01-0.15,0.171l-0.002,5.052
				c0,0.125,0.022,0.164,0.029,0.174c0.01,0.012,0.051,0.024,0.119,0.024v0.248l0.007-0.248c0.116-0.001,0.142-0.002,0.142-0.219
				l0.006-0.49c0.004-0.425,0.01-0.85-0.004-1.272c-0.006-0.207,0.01-0.467,0.188-0.651c0.128-0.132,0.308-0.194,0.552-0.194
				c0.742,0.025,1.29,0.019,1.904,0.003c0.289,0.002,0.473,0.062,0.598,0.191c0.129,0.132,0.188,0.322,0.181,0.58
				c-0.013,0.451-0.008,0.905-0.003,1.359l0.004,0.404c0.003,0.288,0.011,0.288,0.145,0.288c0.15-0.002,0.156-0.002,0.156-0.277
				c0.004-0.651,0.004-1.275,0.002-1.898v-1.295c0-0.568,0-1.138-0.002-1.707c-0.002-0.236-0.019-0.236-0.127-0.242
				c-0.1-0.008-0.129,0.013-0.137,0.021c-0.012,0.011-0.038,0.057-0.038,0.239c0,0.146-0.002,0.291-0.004,0.438
				c-0.004,0.294-0.009,0.587,0.006,0.88c0.011,0.22-0.001,0.496-0.188,0.692c-0.131,0.139-0.319,0.205-0.575,0.205l-0.087-0.002
				c-0.579-0.032-1.165-0.025-1.749-0.002l-0.066,0.002c-0.258,0-0.447-0.066-0.577-0.202c-0.134-0.141-0.194-0.343-0.183-0.621
				c0.016-0.364,0.009-0.729,0.002-1.093l-0.008-0.399c-0.002-0.151-0.025-0.152-0.119-0.156
				C94.171,85.364,94.164,85.364,94.158,85.364z"/>
		</g>
		<g>
			<path fill-rule="evenodd" clip-rule="evenodd" d="M40.631,47.48c0,0.797,0.002,1.596-0.001,2.393
				c-0.001,0.274-0.004,0.542-0.403,0.539c-0.401-0.004-0.391-0.279-0.395-0.548c-0.006-0.532-0.038-1.066,0.005-1.595
				c0.046-0.569-0.197-0.722-0.72-0.686c-0.529,0.036-1.064,0.028-1.595,0.002c-0.45-0.022-0.642,0.133-0.62,0.603
				c0.028,0.589,0.002,1.181,0,1.772c-0.001,0.268-0.076,0.454-0.4,0.452c-0.328-0.002-0.393-0.196-0.393-0.459
				c-0.001-1.655-0.002-3.309-0.001-4.964c0-0.244,0.021-0.474,0.358-0.493c0.377-0.021,0.44,0.205,0.44,0.503
				c0,0.443,0.03,0.889-0.003,1.33c-0.04,0.52,0.193,0.692,0.672,0.634c0.059-0.007,0.119,0.002,0.177-0.001
				c0.646-0.031,1.435,0.247,1.899-0.114c0.459-0.357,0.116-1.164,0.178-1.769c0.026-0.254-0.042-0.557,0.361-0.581
				c0.454-0.028,0.435,0.287,0.441,0.588c0.001,0.03,0.001,0.059,0.001,0.089c0,0.768,0,1.536,0,2.304
				C40.633,47.48,40.632,47.48,40.631,47.48z"/>
			<path d="M36.506,50.661h-0.005c-0.292-0.002-0.64-0.125-0.641-0.707l0-0.701c-0.001-1.421-0.002-2.842,0-4.264
				c0-0.194,0.001-0.707,0.592-0.741c0.25-0.005,0.408,0.054,0.519,0.165c0.163,0.164,0.184,0.399,0.183,0.586
				c0,0.143,0.003,0.286,0.006,0.429c0.006,0.3,0.013,0.61-0.01,0.919c-0.012,0.159,0.006,0.273,0.052,0.322
				c0.068,0.073,0.214,0.062,0.343,0.047l0.083-0.005l0.049,0.25l0.049-0.247l0.133-0.003c0.188,0,0.385,0.019,0.582,0.039
				c0.44,0.043,0.86,0.055,1.058-0.098c0.181-0.141,0.163-0.444,0.113-0.89c-0.025-0.235-0.053-0.478-0.029-0.708
				c0.004-0.038,0.005-0.076,0.007-0.115c0.008-0.213,0.025-0.656,0.586-0.689l0.07-0.002c0.621,0,0.63,0.533,0.634,0.789
				l0.003,0.139l-0.002,2.969c0.001,0.577,0.001,1.153-0.002,1.729c-0.001,0.235-0.003,0.786-0.644,0.786
				c-0.641-0.006-0.647-0.521-0.649-0.769l-0.009-0.438c-0.009-0.394-0.019-0.801,0.014-1.205c0.014-0.175-0.004-0.301-0.053-0.354
				c-0.072-0.078-0.252-0.076-0.403-0.065c-0.539,0.037-1.084,0.029-1.623,0.002l-0.068-0.001c-0.124,0-0.207,0.02-0.242,0.056
				c-0.023,0.024-0.06,0.093-0.051,0.29c0.02,0.417,0.014,0.834,0.007,1.252c-0.003,0.178-0.006,0.355-0.006,0.532
				C37.149,50.54,36.799,50.661,36.506,50.661z M36.514,44.743c-0.143,0.007-0.157,0.008-0.157,0.247c-0.001,1.421,0,2.842,0,4.263
				l0,0.701c0,0.209,0.028,0.21,0.146,0.21l0.002,0.249v-0.249c0.119,0,0.147,0,0.148-0.205c0.001-0.179,0.003-0.358,0.006-0.539
				c0.007-0.407,0.014-0.815-0.006-1.221c-0.014-0.294,0.047-0.509,0.188-0.656c0.134-0.141,0.331-0.209,0.601-0.209l0.092,0.002
				c0.521,0.025,1.046,0.034,1.565-0.002c0.379-0.022,0.637,0.044,0.802,0.224c0.15,0.163,0.209,0.401,0.182,0.73
				c-0.03,0.378-0.021,0.771-0.012,1.152l0.008,0.42c0.003,0.301,0.006,0.301,0.149,0.302c0.133,0.002,0.152,0,0.153-0.292
				c0.003-0.576,0.002-1.151,0.002-1.727l0-0.913h0.002l-0.001-2.137c-0.006-0.351-0.016-0.351-0.139-0.351
				c-0.103,0.005-0.13,0.018-0.135,0.022c-0.018,0.022-0.022,0.133-0.025,0.193c-0.002,0.049-0.004,0.097-0.009,0.145
				c-0.018,0.178,0.005,0.394,0.029,0.603c0.053,0.476,0.112,1.014-0.301,1.336c-0.275,0.215-0.612,0.239-0.841,0.239
				c-0.183,0-0.377-0.019-0.572-0.039c-0.179-0.019-0.359-0.037-0.531-0.037l-0.095,0.002l-0.16,0
				c-0.352,0.044-0.603-0.024-0.767-0.201c-0.146-0.158-0.207-0.387-0.184-0.698c0.022-0.285,0.016-0.569,0.009-0.87
				c-0.003-0.147-0.006-0.294-0.006-0.441c0-0.182-0.029-0.225-0.038-0.234C36.61,44.755,36.576,44.743,36.514,44.743z"/>
		</g>
		<g>
			<path fill-rule="evenodd" clip-rule="evenodd" d="M119.652,93.058c0-0.591,0.014-1.183-0.004-1.771
				c-0.012-0.464,0.297-0.655,0.601-0.456c0.347,0.229,0.526,0.041,0.777-0.062c1.34-0.553,2.394,0.114,2.437,1.559
				c0.024,0.796,0.009,1.594,0.003,2.391c-0.002,0.26,0.033,0.553-0.37,0.57c-0.463,0.02-0.425-0.309-0.428-0.603
				c-0.007-0.708,0.013-1.418-0.011-2.126c-0.027-0.88-0.372-1.322-0.987-1.318c-0.638,0.003-1.14,0.508-1.193,1.298
				c-0.049,0.735-0.018,1.476-0.025,2.214c-0.002,0.274-0.008,0.541-0.406,0.537c-0.398-0.006-0.389-0.281-0.391-0.55
				C119.648,94.179,119.652,93.619,119.652,93.058z"/>
			<path d="M120.055,95.538h-0.012c-0.631-0.009-0.636-0.523-0.638-0.77c-0.004-0.438-0.004-0.849-0.002-1.26l0.003-0.972
				c0.003-0.415,0.005-0.83-0.006-1.245c-0.006-0.254,0.066-0.473,0.206-0.616c0.196-0.202,0.517-0.226,0.779-0.052
				c0.155,0.102,0.231,0.068,0.389-0.011c0.051-0.026,0.103-0.053,0.157-0.075c0.342-0.14,0.674-0.212,0.988-0.212
				c1.053,0,1.756,0.783,1.791,1.993c0.02,0.659,0.013,1.318,0.007,1.978l-0.004,0.423c0,0.277,0.002,0.791-0.608,0.816
				c-0.001,0-0.002,0-0.004,0c-0.388,0-0.541-0.168-0.609-0.308c-0.072-0.151-0.072-0.324-0.072-0.476v-0.063
				c-0.003-0.27-0.001-0.539,0-0.807c0.002-0.438,0.004-0.877-0.011-1.315c-0.033-1.078-0.56-1.078-0.733-1.078
				c-0.528,0.002-0.909,0.431-0.951,1.066c-0.033,0.488-0.029,0.991-0.025,1.478c0.002,0.241,0.004,0.481,0.001,0.722
				C120.697,95.009,120.691,95.538,120.055,95.538z M120.012,91c-0.066,0.04-0.119,0.107-0.114,0.278
				c0.011,0.421,0.009,0.842,0.005,1.263L119.9,93.51c-0.002,0.409-0.002,0.818,0.002,1.228c0.002,0.303,0.004,0.303,0.146,0.305
				l0.006,0.248v-0.248c0.139,0,0.146,0,0.148-0.291c0.003-0.238,0.001-0.476,0-0.714c-0.004-0.496-0.008-1.008,0.026-1.514
				c0.061-0.898,0.651-1.526,1.438-1.53c0.45,0,1.195,0.202,1.237,1.559c0.015,0.444,0.013,0.889,0.011,1.333
				c-0.001,0.266-0.003,0.533,0,0.799v0.069c0,0.099,0,0.21,0.024,0.26c0.012,0.025,0.085,0.027,0.116,0.027
				c0.159-0.006,0.162-0.006,0.161-0.26l0.004-0.488c0.006-0.652,0.013-1.306-0.007-1.957c-0.028-0.933-0.523-1.513-1.295-1.513
				c-0.25,0-0.518,0.06-0.799,0.175c-0.042,0.019-0.083,0.039-0.123,0.059c-0.224,0.114-0.551,0.203-0.886-0.018
				C120.075,91.014,120.039,91,120.012,91z"/>
		</g>
	</g>
</g>
</svg>
