<?xml version="1.0" encoding="utf-8"?>
<!-- Generator: Adobe Illustrator 16.0.4, SVG Export Plug-In . SVG Version: 6.00 Build 0)  -->
<!DOCTYPE svg PUBLIC "-//W3C//DTD SVG 1.1//EN" "http://www.w3.org/Graphics/SVG/1.1/DTD/svg11.dtd">
<svg version="1.1" id="Layer_3914" xmlns="http://www.w3.org/2000/svg" xmlns:xlink="http://www.w3.org/1999/xlink" x="0px" y="0px"
	 width="128px" height="128px" viewBox="0 0 128 128" enable-background="new 0 0 128 128" xml:space="preserve">
<g id="aq5qMj.tif">
	<g>
		<path fill-rule="evenodd" clip-rule="evenodd" d="M123.481,83.236c-0.036-0.012-0.05-0.037-0.036-0.072
			c0.006-0.012,0.023-0.018,0.036-0.027C123.481,83.17,123.481,83.203,123.481,83.236z"/>
		<path fill-rule="evenodd" clip-rule="evenodd" d="M72.139,76.992c-0.459,0.021-0.924-0.14-1.375-0.355
			c-0.449-0.215-0.721-0.66-1.156-0.895c-0.066-0.586-0.379-1.109-0.375-1.723c0.013-1.626,1.343-3.005,2.971-2.953
			c1.775,0.059,2.914,1.219,2.963,2.986C75.209,75.681,73.852,76.984,72.139,76.992z"/>
		<path fill-rule="evenodd" clip-rule="evenodd" d="M99.094,111.371c0.002,1.65-1.281,2.943-2.971,2.92
			c-1.761-0.024-2.939-1.23-2.965-2.816c-0.027-1.772,1.093-3.109,3.123-3.1C97.763,108.383,99.102,109.625,99.094,111.371z"/>
		<path fill-rule="evenodd" clip-rule="evenodd" d="M4.994,67.227c-0.006-1.51,1.134-2.824,2.78-2.922
			c1.725-0.103,3.117,1.236,3.141,2.929c0.023,1.659-1.285,2.995-2.967,2.999C6.04,70.238,4.903,68.58,4.994,67.227z"/>
		<path fill-rule="evenodd" clip-rule="evenodd" d="M41.084,91.841c0.001-1.632,1.289-2.937,2.906-2.944
			c1.705-0.008,3.027,1.307,3.018,3.002c-0.009,1.619-1.336,2.918-2.997,2.933C42.403,94.846,41.083,93.496,41.084,91.841z"/>
		<path fill-rule="evenodd" clip-rule="evenodd" d="M98.996,39.268c-0.02,1.662-1.35,2.93-3.051,2.906
			c-1.609-0.022-2.906-1.378-2.875-3.047c0.031-1.583,1.332-2.918,3.03-2.883C97.727,36.276,99.014,37.612,98.996,39.268z"/>
		<path fill-rule="evenodd" clip-rule="evenodd" d="M34.862,50.22c-1.665,0.077-3.029-1.142-3.114-2.781
			c-0.088-1.695,1.137-3.066,2.803-3.137c1.636-0.07,2.97,1.167,3.099,2.757C37.781,48.669,36.469,50.235,34.862,50.22z"/>
		<path fill-rule="evenodd" clip-rule="evenodd" d="M42.887,9.193c1.657,0.003,2.999,1.312,2.996,2.922
			c-0.003,1.685-1.3,2.998-2.967,3.004c-1.648,0.007-2.974-1.34-2.962-3.008C39.964,10.483,41.265,9.189,42.887,9.193z"/>
		<path fill-rule="evenodd" clip-rule="evenodd" d="M69.241,99.656c0.009-1.658,1.343-2.949,3.028-2.93
			c1.594,0.018,2.896,1.354,2.902,2.973c0.004,1.641-1.364,2.983-3.018,2.959C70.518,102.637,69.232,101.312,69.241,99.656z"/>
		<path fill-rule="evenodd" clip-rule="evenodd" d="M64.579,11.23c1.695,0.004,2.972,1.282,2.972,2.976
			c0.001,1.645-1.316,2.989-3.017,2.945c-1.653-0.042-2.879-1.283-2.904-2.969C61.606,12.542,62.938,11.226,64.579,11.23z"/>
		<path fill-rule="evenodd" clip-rule="evenodd" d="M114.98,51.007c1.686-0.008,2.985,1.267,3.01,2.952
			c0.023,1.601-1.324,2.959-2.955,2.979c-1.641,0.021-2.966-1.321-2.969-3.005C112.065,52.302,113.344,51.016,114.98,51.007z"/>
		<path fill-rule="evenodd" clip-rule="evenodd" d="M62.12,37.265c-0.016,1.671-1.33,2.939-3.03,2.924
			c-1.592-0.015-2.896-1.363-2.883-2.983c0.013-1.672,1.336-2.966,3.013-2.945C60.86,34.281,62.135,35.603,62.12,37.265z"/>
		<path fill-rule="evenodd" clip-rule="evenodd" d="M24.11,114.299c-1.643,0.023-2.936-1.252-2.967-2.932
			c-0.031-1.623,1.248-2.955,2.864-2.982c1.683-0.029,3.026,1.25,3.06,2.91C27.099,112.958,25.802,114.275,24.11,114.299z"/>
		<path fill-rule="evenodd" clip-rule="evenodd" d="M102.386,79.34c1.688-0.027,3.022,1.251,3.047,2.921
			c0.024,1.647-1.255,2.956-2.918,2.985c-1.655,0.029-2.952-1.243-3.015-2.896C99.449,81.012,100.613,79.271,102.386,79.34z"/>
		<path fill-rule="evenodd" clip-rule="evenodd" d="M9.753,48.438c0.327-0.108,0.663-0.165,1.001-0.224
			c0.764-0.134,1.339,0.232,1.763,0.762c0.463,0.58,0.547,1.302,0.262,2.011c-0.288,0.716-0.844,1.143-1.606,1.225
			c-1.206,0.127-1.956-0.533-2.269-1.56c-0.196-0.645,0.073-1.288,0.481-1.833c0.106-0.143,0.25-0.259,0.376-0.388L9.753,48.438z"/>
		<path fill-rule="evenodd" clip-rule="evenodd" d="M72.528,62.754c-0.003-1.12,0.875-2,2.012-2.017
			c1.089-0.016,2.017,0.912,2.022,2.018c0.004,1.088-0.895,2.008-1.969,2.018C73.443,64.784,72.531,63.891,72.528,62.754z"/>
		<path fill-rule="evenodd" clip-rule="evenodd" d="M30.049,27.917c-1.143,0.007-2.024-0.85-2.033-1.978
			c-0.009-1.155,0.873-2.032,2.04-2.028c1.088,0.003,1.979,0.888,1.993,1.98C32.062,27.012,31.176,27.91,30.049,27.917z"/>
		<path fill-rule="evenodd" clip-rule="evenodd" d="M3.6,83.029c-0.249-0.461-0.546-0.9-0.602-1.445
			c-0.099-0.956,0.406-1.812,1.264-2.123c0.912-0.33,1.9,0.006,2.427,0.814c0.431,0.66,0.401,1.342,0.069,2.014
			c-0.334,0.678-0.924,1.01-1.669,1.051c-0.296,0.018-0.593-0.006-0.889-0.01l0.008,0.006c-0.156-0.123-0.306-0.26-0.509-0.307
			l0.01,0.012c-0.039-0.039-0.077-0.041-0.116,0L3.6,83.029z"/>
		<path fill-rule="evenodd" clip-rule="evenodd" d="M6.297,56.048c-0.002,1.135-0.878,1.998-2.017,1.985
			c-1.109-0.013-1.969-0.876-1.976-1.984c-0.007-1.174,0.849-2.036,2.02-2.034C5.449,54.017,6.299,54.892,6.297,56.048z"/>
		<path fill-rule="evenodd" clip-rule="evenodd" d="M65.641,92.375c-1.135-0.002-2.027-0.879-2.027-1.994
			c0-1.096,0.89-2.011,1.96-2.015c1.186-0.005,2.075,0.874,2.082,2.054C67.663,91.488,66.748,92.375,65.641,92.375z"/>
		<path fill-rule="evenodd" clip-rule="evenodd" d="M54.201,21.152c0-1.131,0.878-1.993,2.021-1.983c1.12,0.01,2.02,0.921,2,2.027
			c-0.019,1.124-0.91,1.991-2.041,1.985C55.053,23.175,54.201,22.302,54.201,21.152z"/>
		<path fill-rule="evenodd" clip-rule="evenodd" d="M119.462,90.375c-1.162-0.005-2.026-0.914-2.013-2.119
			c0.011-0.98,0.938-1.904,1.919-1.913c1.188-0.011,2.114,0.876,2.118,2.026C121.49,89.473,120.575,90.379,119.462,90.375z"/>
		<path fill-rule="evenodd" clip-rule="evenodd" d="M59.632,70.965c0.003-1.133,0.891-2.01,2.015-1.996
			c1.121,0.016,2.013,0.92,2.005,2.033c-0.008,1.109-0.924,2.004-2.039,1.992C60.482,72.982,59.628,72.105,59.632,70.965z"/>
		<path fill-rule="evenodd" clip-rule="evenodd" d="M96.455,87.983c1.133,0,2.019,0.876,2.024,1.999
			c0.007,1.114-0.88,2.008-2.004,2.02c-1.104,0.013-2.016-0.893-2.024-2.008C94.441,88.869,95.324,87.983,96.455,87.983z"/>
		<path fill-rule="evenodd" clip-rule="evenodd" d="M37.655,41.219c-1.141,0-2.011-0.892-2.009-2.063
			c0.002-1.07,0.914-1.952,2.017-1.949c1.126,0.003,2.014,0.888,2.015,2.01C39.679,40.326,38.778,41.218,37.655,41.219z"/>
		<path fill-rule="evenodd" clip-rule="evenodd" d="M79.191,109.875c-0.002,1.119-0.893,2.002-2.021,2.002
			c-1.137,0.001-2.006-0.903-1.993-2.075c0.011-1.087,0.917-1.968,2.013-1.958C78.295,107.852,79.191,108.763,79.191,109.875z"/>
		<path fill-rule="evenodd" clip-rule="evenodd" d="M91.146,46.035c1.123,0.005,2,0.9,1.987,2.028
			c-0.013,1.119-0.905,1.976-2.052,1.971c-1.111-0.004-1.982-0.898-1.98-2.037C89.103,46.887,89.996,46.029,91.146,46.035z"/>
		<path fill-rule="evenodd" clip-rule="evenodd" d="M97.431,56.829c-0.005,1.198-0.872,1.97-1.955,2.013
			c-1.164,0.046-2.063-0.893-2.063-2.071c0.002-1.071,0.92-1.964,2.016-1.964C96.557,54.809,97.43,55.69,97.431,56.829z"/>
		<path fill-rule="evenodd" clip-rule="evenodd" d="M44.019,111.88c-1.168-0.026-2.02-0.938-1.997-2.138
			c0.02-1.023,0.968-1.91,2.035-1.901c1.105,0.009,2.005,0.931,1.989,2.044C46.027,111.16,45.003,111.881,44.019,111.88z"/>
		<path fill-rule="evenodd" clip-rule="evenodd" d="M13.504,86.922c0.004-1.128,0.901-2.019,2.017-2.002
			c1.122,0.018,1.987,0.904,1.985,2.037c-0.002,1.127-0.891,2.002-2.022,1.991S13.5,88.064,13.504,86.922z"/>
		<path fill-rule="evenodd" clip-rule="evenodd" d="M116.526,23c1.112,0.006,2.001,0.913,1.989,2.033
			c-0.01,1.094-0.906,1.987-1.99,1.984c-1.155-0.004-2.047-0.894-2.041-2.038C114.49,23.864,115.388,22.994,116.526,23z"/>
		<path fill-rule="evenodd" clip-rule="evenodd" d="M61.633,117.73c-1.096-0.004-1.989-0.893-1.988-1.98
			c0.001-1.158,0.904-2.073,2.028-2.055c1.101,0.018,2.004,0.939,2.003,2.046C63.674,116.846,62.762,117.733,61.633,117.73z"/>
		<path fill-rule="evenodd" clip-rule="evenodd" d="M31.044,117.172c0.003-1.078,0.875-1.975,1.933-1.984
			c1.204-0.012,2.083,0.875,2.08,2.099c-0.002,1.034-0.917,1.922-1.991,1.931C31.918,119.225,31.041,118.338,31.044,117.172z"/>
		<path fill-rule="evenodd" clip-rule="evenodd" d="M83.776,114.451c1.129-0.004,2.013,0.869,2.019,1.994
			c0.006,1.132-0.867,2.014-1.996,2.017c-1.152,0.002-2.023-0.885-2.016-2.048C81.791,115.307,82.654,114.457,83.776,114.451z"/>
		<path fill-rule="evenodd" clip-rule="evenodd" d="M74.21,7.519c-0.039,1.12-0.958,1.972-2.083,1.934
			c-1.141-0.04-1.969-0.96-1.921-2.137c0.044-1.081,0.991-1.95,2.069-1.9C73.376,5.466,74.248,6.415,74.21,7.519z"/>
		<path fill-rule="evenodd" clip-rule="evenodd" d="M43.079,59.83c-0.007,1.117-0.911,1.988-2.046,1.973
			c-1.11-0.015-1.99-0.928-1.975-2.049c0.015-1.106,0.952-2.011,2.052-1.983C42.23,57.798,43.086,58.695,43.079,59.83z"/>
		<path fill-rule="evenodd" clip-rule="evenodd" d="M113.512,104.658c-1.15-0.012-1.993-0.898-1.98-2.082
			c0.01-1.062,0.943-1.953,2.036-1.943c1.091,0.01,2,0.949,1.985,2.053C115.537,103.809,114.645,104.67,113.512,104.658z"/>
		<path fill-rule="evenodd" clip-rule="evenodd" d="M111.58,42.284c1.131-0.006,2.024,0.865,2.033,1.984
			c0.009,1.143-0.851,2.032-1.973,2.041c-1.121,0.009-2.022-0.871-2.037-1.987C109.588,43.195,110.465,42.29,111.58,42.284z"/>
		<path fill-rule="evenodd" clip-rule="evenodd" d="M10.407,99.908"/>
		<path fill-rule="evenodd" clip-rule="evenodd" d="M55.995,55.967c-1.153-0.002-2.02-0.887-2.012-2.055
			c0.006-1.094,0.881-1.941,2.009-1.945c1.133-0.003,2.023,0.876,2.016,1.993C58,55.089,57.116,55.97,55.995,55.967z"/>
		<path fill-rule="evenodd" clip-rule="evenodd" d="M92.67,65.273c-0.008,1.125-0.895,2-2.021,1.992
			c-1.118-0.008-1.984-0.902-1.974-2.039c0.011-1.111,0.886-1.999,1.967-1.996C91.791,63.235,92.678,64.127,92.67,65.273z"/>
		<path fill-rule="evenodd" clip-rule="evenodd" d="M81.312,79.347c0.015-1.195,0.868-2.046,2.03-2.024
			c1.126,0.021,1.996,0.924,1.977,2.047c-0.021,1.127-0.932,2.006-2.047,1.977C82.15,81.316,81.299,80.446,81.312,79.347z"/>
		<path fill-rule="evenodd" clip-rule="evenodd" d="M19.947,77.348c-0.009,1.096-0.899,1.989-1.985,1.993
			c-1.13,0.005-2.051-0.919-2.043-2.046c0.008-1.098,0.941-2.009,2.042-1.994C19.067,75.314,19.957,76.232,19.947,77.348z"/>
		<path fill-rule="evenodd" clip-rule="evenodd" d="M48.781,36.257c-1.13-0.001-2.008-0.871-2.019-1.999
			c-0.012-1.104,0.892-2.008,2.012-2.012c1.114-0.004,2.01,0.888,2.018,2.008C50.799,35.376,49.914,36.258,48.781,36.257z"/>
		<path fill-rule="evenodd" clip-rule="evenodd" d="M12.922,38.178c0.006,1.097-0.87,1.997-1.961,2.012
			c-1.137,0.017-2.064-0.887-2.071-2.02c-0.006-1.099,0.923-2.023,2.026-2.016C12.042,36.163,12.916,37.044,12.922,38.178z"/>
		<path fill-rule="evenodd" clip-rule="evenodd" d="M88.672,11.21c0.004-1.143,0.865-2.007,2.004-2.008
			c1.145-0.001,1.994,0.878,2.001,2.07c0.007,1.067-0.909,1.956-2.015,1.956C89.539,13.229,88.67,12.347,88.672,11.21z"/>
		<path fill-rule="evenodd" clip-rule="evenodd" d="M87.319,100.666c-0.005,1.113-0.88,2.001-1.97,1.996
			c-1.164-0.005-2.031-0.877-2.029-2.039c0.004-1.132,0.888-2.006,2.018-1.994C86.463,98.641,87.324,99.527,87.319,100.666z"/>
		<path fill-rule="evenodd" clip-rule="evenodd" d="M85.244,25.247c-1.131,0.005-2.014-0.867-2.02-1.997
			c-0.007-1.124,0.867-2.004,2.003-2.017c1.118-0.012,2.011,0.877,2.014,2.004C87.244,24.378,86.385,25.242,85.244,25.247z"/>
		<path fill-rule="evenodd" clip-rule="evenodd" d="M34.535,9.747c1.131,0.035,1.974,0.933,1.939,2.066
			c-0.034,1.131-0.929,1.966-2.073,1.933c-1.146-0.033-1.977-0.943-1.932-2.122C32.51,10.528,33.408,9.711,34.535,9.747z"/>
		<path fill-rule="evenodd" clip-rule="evenodd" d="M51.293,77.016c-0.016-1.145,0.834-2.012,1.981-2.021
			c1.134-0.008,2.004,0.849,2.023,1.99c0.017,1.115-0.859,2.041-1.991,2.033C52.114,79.007,51.278,78.106,51.293,77.016z"/>
		<path fill-rule="evenodd" clip-rule="evenodd" d="M59.629,101.168c0.027-1.211,0.887-2.027,2.104-2
			c1.058,0.024,1.934,0.965,1.919,2.062c-0.015,1.096-0.954,1.979-2.077,1.951C60.469,103.154,59.605,102.261,59.629,101.168z"/>
		<path fill-rule="evenodd" clip-rule="evenodd" d="M111.547,82.68c0-1.128,0.873-1.99,2.017-1.994
			c1.082-0.002,1.997,0.939,1.991,2.047c-0.006,1.09-0.895,1.978-1.989,1.985C112.407,84.727,111.547,83.857,111.547,82.68z"/>
		<path fill-rule="evenodd" clip-rule="evenodd" d="M23.133,36.321c-0.018,1.097-0.93,2.013-2.004,1.969
			c-1.17-0.048-2.018-0.885-1.995-2.074c0.021-1.136,0.904-1.98,2.049-1.956C22.31,34.283,23.151,35.174,23.133,36.321z"/>
		<path fill-rule="evenodd" clip-rule="evenodd" d="M21.1,27.919c-1.14-0.017-1.985-0.893-1.966-2.036
			c0.02-1.144,0.892-1.991,2.032-1.973c1.126,0.018,1.978,0.902,1.968,2.043C23.125,27.083,22.242,27.936,21.1,27.919z"/>
		<path fill-rule="evenodd" clip-rule="evenodd" d="M73.289,27.933c0.008-1.219,0.832-2.029,2.063-2.027
			c1.074,0.002,1.94,0.909,1.935,2.024c-0.006,1.13-0.879,1.98-2.028,1.976C74.137,29.9,73.281,29.043,73.289,27.933z"/>
		<path fill-rule="evenodd" clip-rule="evenodd" d="M103.738,13.377c0.008-1.219,0.832-2.029,2.063-2.027
			c1.074,0.002,1.94,0.909,1.935,2.024c-0.006,1.13-0.879,1.98-2.028,1.976C104.586,15.345,103.73,14.488,103.738,13.377z"/>
		<path fill-rule="evenodd" clip-rule="evenodd" d="M83.295,41.662c1.133-0.014,2.02,0.856,2.024,1.985
			c0.005,1.137-0.856,2.009-1.993,2.017c-1.117,0.008-1.994-0.836-2.016-1.941C81.287,42.542,82.121,41.676,83.295,41.662z"/>
		<path fill-rule="evenodd" clip-rule="evenodd" d="M17.953,52.996c0-1.126,0.845-1.986,1.958-1.99
			c1.169-0.006,2.048,0.857,2.05,2.013c0.002,1.129-0.88,1.99-2.022,1.991C18.852,55.011,17.907,54.149,17.953,52.996z"/>
		<path fill-rule="evenodd" clip-rule="evenodd" d="M37.048,70.104c1.153-0.004,2.046,0.884,2.042,2.033
			c-0.003,1.092-0.931,1.99-2.048,1.983c-1.088-0.006-1.974-0.896-1.982-1.991C35.052,70.996,35.924,70.108,37.048,70.104z"/>
		<path fill-rule="evenodd" clip-rule="evenodd" d="M31.044,85.832c-0.031-1.021,0.931-1.995,2.06-1.946
			c1.137,0.049,1.984,0.96,1.942,2.128c-0.039,1.119-0.952,1.936-2.111,1.887C31.844,87.855,31.007,86.939,31.044,85.832z"/>
		<path fill-rule="evenodd" clip-rule="evenodd" d="M69.242,41.217c-1.152,0.001-2.009-0.871-2.012-2.052
			c-0.004-1.089,0.887-1.961,2-1.961c1.141-0.001,1.998,0.854,2.007,2.003C71.246,40.344,70.381,41.215,69.242,41.217z"/>
		<path fill-rule="evenodd" clip-rule="evenodd" d="M53.886,90.406c-0.006,1.141-0.87,1.98-2.024,1.969
			c-1.135-0.014-1.991-0.895-1.975-2.031c0.017-1.141,0.883-1.979,2.034-1.968C53.055,88.386,53.892,89.252,53.886,90.406z"/>
		<path fill-rule="evenodd" clip-rule="evenodd" d="M39.568,20.279c0.049-0.963,0.785-1.756,1.573-1.695
			c0.841,0.064,1.47,0.8,1.414,1.654c-0.054,0.812-0.77,1.445-1.565,1.395C40.42,21.597,39.422,20.931,39.568,20.279z"/>
		<path fill-rule="evenodd" clip-rule="evenodd" d="M49.777,102.873c-0.83-0.006-1.458-0.645-1.459-1.484
			c-0.001-0.824,0.65-1.48,1.47-1.479c0.835,0.001,1.514,0.688,1.5,1.518C51.275,102.24,50.608,102.878,49.777,102.873z"/>
		<path fill-rule="evenodd" clip-rule="evenodd" d="M78.629,37.217c-0.816-0.009-1.457-0.672-1.448-1.502
			c0.009-0.826,0.661-1.461,1.494-1.455c0.834,0.006,1.482,0.683,1.472,1.537C80.137,36.613,79.481,37.227,78.629,37.217z"/>
		<path fill-rule="evenodd" clip-rule="evenodd" d="M61.618,105.85c0.833-0.002,1.482,0.633,1.49,1.457
			c0.009,0.854-0.641,1.506-1.493,1.499c-0.826-0.007-1.476-0.661-1.468-1.48C60.154,106.488,60.787,105.854,61.618,105.85z"/>
		<path fill-rule="evenodd" clip-rule="evenodd" d="M13.145,28.872c0.793,0.002,1.468,0.701,1.459,1.51
			c-0.009,0.812-0.682,1.477-1.492,1.475c-0.808-0.002-1.48-0.673-1.486-1.483C11.62,29.548,12.307,28.87,13.145,28.872z"/>
		<path fill-rule="evenodd" clip-rule="evenodd" d="M48.313,42.183c0.841-0.001,1.502,0.669,1.492,1.515
			c-0.009,0.77-0.7,1.45-1.467,1.446c-0.867-0.005-1.504-0.639-1.501-1.497C46.84,42.816,47.478,42.184,48.313,42.183z"/>
		<path fill-rule="evenodd" clip-rule="evenodd" d="M5.777,45.191c0.001,0.836-0.63,1.467-1.468,1.468
			c-0.843,0-1.478-0.623-1.482-1.455c-0.004-0.858,0.647-1.513,1.495-1.501C5.157,43.715,5.775,44.348,5.777,45.191z"/>
		<path fill-rule="evenodd" clip-rule="evenodd" d="M75.802,49.537c-0.008,0.83-0.655,1.47-1.483,1.469
			c-0.824-0.001-1.482-0.69-1.474-1.54c0.009-0.819,0.679-1.453,1.513-1.433C75.187,48.053,75.811,48.702,75.802,49.537z"/>
		<path fill-rule="evenodd" clip-rule="evenodd" d="M87.773,108.807c-0.83,0.01-1.479-0.623-1.488-1.453
			c-0.01-0.844,0.601-1.486,1.434-1.506c0.844-0.018,1.537,0.65,1.529,1.48C89.241,108.157,88.604,108.797,87.773,108.807z"/>
		<path fill-rule="evenodd" clip-rule="evenodd" d="M110.588,36.227c0.004-0.847,0.618-1.457,1.472-1.459
			c0.831-0.004,1.499,0.683,1.479,1.523c-0.018,0.806-0.653,1.427-1.463,1.432C111.209,37.726,110.584,37.098,110.588,36.227z"/>
		<path fill-rule="evenodd" clip-rule="evenodd" d="M109.1,108.426c0.008-0.832,0.651-1.457,1.491-1.449
			c0.804,0.009,1.493,0.699,1.482,1.486c-0.011,0.82-0.724,1.506-1.541,1.482C109.711,109.923,109.094,109.267,109.1,108.426z"/>
		<path fill-rule="evenodd" clip-rule="evenodd" d="M95.21,19.273c0.345,0.622,0.28,1.374-0.161,1.884
			c-0.373,0.428-1.129,0.587-1.683,0.345c-0.569-0.249-0.872-0.699-0.895-1.31c-0.021-0.564,0.199-1.042,0.702-1.325
			c0.525-0.295,1.073-0.298,1.592,0.037c0.164,0.106,0.302,0.251,0.452,0.379L95.21,19.273z"/>
		<path fill-rule="evenodd" clip-rule="evenodd" d="M118.596,40.699c0.854-0.003,1.518,0.656,1.51,1.498
			c-0.008,0.806-0.684,1.466-1.498,1.461c-0.833-0.005-1.468-0.642-1.471-1.475C117.135,41.35,117.771,40.702,118.596,40.699z"/>
		<path fill-rule="evenodd" clip-rule="evenodd" d="M41.038,119.424c-0.816-0.02-1.455-0.691-1.442-1.516
			c0.013-0.828,0.676-1.473,1.498-1.453c0.841,0.02,1.502,0.717,1.466,1.545C42.523,118.84,41.877,119.444,41.038,119.424z"/>
		<path fill-rule="evenodd" clip-rule="evenodd" d="M49.795,26.209c-0.861-0.013-1.492-0.666-1.475-1.523
			c0.017-0.831,0.667-1.454,1.504-1.44c0.817,0.013,1.471,0.684,1.462,1.498C51.277,25.559,50.603,26.223,49.795,26.209z"/>
		<path fill-rule="evenodd" clip-rule="evenodd" d="M51.97,13.327c-0.861-0.013-1.492-0.666-1.475-1.523
			c0.017-0.831,0.667-1.454,1.504-1.44c0.817,0.013,1.471,0.684,1.462,1.498C53.452,12.677,52.777,13.341,51.97,13.327z"/>
		<path fill-rule="evenodd" clip-rule="evenodd" d="M27.063,71.718c0.004,0.819-0.638,1.469-1.469,1.486
			c-0.827,0.019-1.505-0.666-1.498-1.509c0.008-0.825,0.665-1.471,1.491-1.463C26.401,70.238,27.059,70.9,27.063,71.718z"/>
		<path fill-rule="evenodd" clip-rule="evenodd" d="M93.168,98.207c-0.807,0.004-1.489-0.673-1.482-1.469
			c0.008-0.828,0.647-1.482,1.464-1.497c0.827-0.015,1.513,0.669,1.509,1.503C94.653,97.57,94.011,98.201,93.168,98.207z"/>
		<path fill-rule="evenodd" clip-rule="evenodd" d="M101.701,117.447c-0.807,0.004-1.49-0.673-1.482-1.469
			c0.007-0.828,0.646-1.482,1.463-1.497c0.828-0.015,1.514,0.669,1.51,1.503C103.186,116.811,102.543,117.441,101.701,117.447z"/>
		<path fill-rule="evenodd" clip-rule="evenodd" d="M107.59,93.77c0.005,0.842-0.663,1.506-1.51,1.501
			c-0.809-0.005-1.444-0.63-1.461-1.437c-0.018-0.854,0.629-1.527,1.47-1.532C106.884,92.297,107.586,92.984,107.59,93.77z"/>
		<path fill-rule="evenodd" clip-rule="evenodd" d="M11.631,77.856c0.842-0.001,1.521,0.671,1.483,1.513
			c-0.042,0.951-0.683,1.428-1.5,1.452c-0.809,0.024-1.471-0.692-1.46-1.497C10.164,78.486,10.797,77.857,11.631,77.856z"/>
		<path fill-rule="evenodd" clip-rule="evenodd" d="M56.02,68.75c-0.841,0.01-1.524-0.661-1.52-1.492
			c0.005-0.818,0.656-1.461,1.488-1.47c0.814-0.009,1.468,0.64,1.479,1.468C57.479,68.09,56.85,68.74,56.02,68.75z"/>
		<path fill-rule="evenodd" clip-rule="evenodd" d="M16.395,42.847c-0.007-0.858,0.636-1.522,1.48-1.528
			c0.805-0.005,1.459,0.651,1.476,1.483c0.017,0.819-0.624,1.475-1.456,1.492C17.071,44.31,16.401,43.665,16.395,42.847z"/>
		<path fill-rule="evenodd" clip-rule="evenodd" d="M18.467,102.871c0.012,0.812-0.631,1.471-1.459,1.493
			c-0.832,0.021-1.501-0.647-1.502-1.499c0-0.795,0.635-1.449,1.43-1.473C17.768,101.369,18.454,102.033,18.467,102.871z"/>
		<path fill-rule="evenodd" clip-rule="evenodd" d="M62.123,81.25c-0.005,0.824-0.667,1.479-1.482,1.467
			c-0.798-0.01-1.47-0.686-1.482-1.488c-0.013-0.826,0.678-1.498,1.524-1.479C61.515,79.768,62.129,80.406,62.123,81.25z"/>
		<path fill-rule="evenodd" clip-rule="evenodd" d="M119.883,30.372c0.85-0.01,1.52,0.646,1.514,1.488
			c-0.004,0.806-0.679,1.479-1.481,1.478c-0.817,0-1.475-0.654-1.483-1.474C118.424,31.025,119.049,30.382,119.883,30.372z"/>
		<path fill-rule="evenodd" clip-rule="evenodd" d="M37.042,104.361c0.88,0.008,1.51,0.625,1.499,1.5
			c-0.012,0.969-0.585,1.438-1.506,1.458c-0.821,0.019-1.458-0.677-1.441-1.505C35.608,105.006,36.258,104.355,37.042,104.361z"/>
		<path fill-rule="evenodd" clip-rule="evenodd" d="M83.803,52.474c-0.001-0.838,0.619-1.462,1.459-1.467
			c0.858-0.006,1.492,0.637,1.486,1.504c-0.008,0.816-0.666,1.458-1.496,1.458C84.441,53.967,83.803,53.31,83.803,52.474z"/>
		<path fill-rule="evenodd" clip-rule="evenodd" d="M32.555,93.336c0.005-0.848,0.621-1.469,1.462-1.475
			c0.839-0.006,1.505,0.666,1.496,1.509c-0.01,0.808-0.696,1.476-1.5,1.46C33.19,94.812,32.549,94.156,32.555,93.336z"/>
		<path fill-rule="evenodd" clip-rule="evenodd" d="M102.467,48.733c-0.861-0.004-1.501-0.656-1.484-1.512
			c0.018-0.811,0.701-1.468,1.508-1.449c0.813,0.019,1.465,0.688,1.462,1.502C103.949,48.096,103.297,48.737,102.467,48.733z"/>
		<path fill-rule="evenodd" clip-rule="evenodd" d="M107.649,21.528c-0.009,0.834-0.646,1.458-1.487,1.457
			c-0.819,0-1.48-0.658-1.482-1.475c-0.001-0.83,0.69-1.503,1.522-1.485C107.032,20.045,107.659,20.696,107.649,21.528z"/>
		<path fill-rule="evenodd" clip-rule="evenodd" d="M77.131,88.414c-0.828-0.021-1.449-0.678-1.432-1.512
			c0.02-0.834,0.722-1.493,1.553-1.457c0.775,0.034,1.436,0.738,1.408,1.502C78.628,87.83,77.996,88.436,77.131,88.414z"/>
		<path fill-rule="evenodd" clip-rule="evenodd" d="M82.318,66.52c0.006-0.848,0.623-1.459,1.469-1.455
			c0.856,0.002,1.497,0.659,1.477,1.514c-0.021,0.815-0.697,1.467-1.506,1.448C82.938,68.008,82.312,67.354,82.318,66.52z"/>
		<path fill-rule="evenodd" clip-rule="evenodd" d="M13.124,56.029c0.822,0.005,1.484,0.667,1.478,1.478
			c-0.007,0.848-0.66,1.494-1.518,1.503c-0.779,0.008-1.446-0.694-1.445-1.523C11.639,56.656,12.283,56.024,13.124,56.029z"/>
		<path fill-rule="evenodd" clip-rule="evenodd" d="M66.057,59.791c-0.877-0.031-1.498-0.708-1.46-1.592
			c0.034-0.784,0.72-1.399,1.524-1.368c0.86,0.033,1.473,0.701,1.432,1.562C67.516,59.199,66.852,59.819,66.057,59.791z"/>
		<path fill-rule="evenodd" clip-rule="evenodd" d="M27.068,61.253c0.018,0.812-0.624,1.473-1.457,1.501
			c-0.81,0.028-1.483-0.612-1.513-1.436c-0.03-0.827,0.601-1.5,1.424-1.518C26.393,59.781,27.05,60.398,27.068,61.253z"/>
		<path fill-rule="evenodd" clip-rule="evenodd" d="M63.742,125.99c-0.853,0.005-1.513-0.65-1.505-1.494
			c0.009-0.809,0.683-1.467,1.498-1.463c0.817,0.004,1.464,0.656,1.472,1.482C65.215,125.348,64.582,125.985,63.742,125.99z"/>
		<path fill-rule="evenodd" clip-rule="evenodd" d="M89.63,79.372c0.854,0,1.487,0.649,1.478,1.513
			c-0.011,0.797-0.651,1.438-1.447,1.445c-0.855,0.01-1.492-0.627-1.494-1.494C88.164,79.99,88.783,79.371,89.63,79.372z"/>
		<path fill-rule="evenodd" clip-rule="evenodd" d="M47.066,85.264c-0.816,0.014-1.494-0.633-1.513-1.445
			c-0.02-0.828,0.616-1.498,1.434-1.511c0.865-0.015,1.524,0.613,1.536,1.464C48.536,84.592,47.894,85.25,47.066,85.264z"/>
		<path fill-rule="evenodd" clip-rule="evenodd" d="M58.29,7.883c-0.836-0.002-1.468-0.633-1.472-1.471
			c-0.004-0.829,0.643-1.494,1.457-1.499C59.099,4.91,59.792,5.6,59.79,6.427C59.789,7.241,59.125,7.885,58.29,7.883z"/>
		<path fill-rule="evenodd" clip-rule="evenodd" d="M79.654,59.788c-0.807-0.005-1.439-0.674-1.43-1.515
			c0.012-0.832,0.65-1.453,1.493-1.448c0.813,0.004,1.462,0.668,1.458,1.492C81.172,59.173,80.53,59.793,79.654,59.788z"/>
		<path fill-rule="evenodd" clip-rule="evenodd" d="M115.012,95.459c-0.846-0.002-1.462-0.621-1.463-1.469
			c0-0.863,0.637-1.486,1.51-1.477c0.818,0.012,1.466,0.678,1.453,1.499C116.5,94.84,115.855,95.463,115.012,95.459z"/>
		<path fill-rule="evenodd" clip-rule="evenodd" d="M59.183,92.523c0.842,0.006,1.464,0.631,1.464,1.471
			c-0.001,0.855-0.652,1.482-1.521,1.465c-0.832-0.017-1.447-0.658-1.442-1.502C57.688,93.125,58.326,92.516,59.183,92.523z"/>
		<path fill-rule="evenodd" clip-rule="evenodd" d="M119.465,78.479c-0.828-0.004-1.468-0.644-1.471-1.472
			c-0.004-0.856,0.652-1.509,1.501-1.493c0.808,0.016,1.465,0.693,1.46,1.502C120.951,77.83,120.287,78.481,119.465,78.479z"/>
		<path fill-rule="evenodd" clip-rule="evenodd" d="M26.223,85.489c-0.007,0.831-0.654,1.456-1.493,1.443
			c-0.847-0.013-1.485-0.685-1.462-1.539c0.021-0.784,0.689-1.433,1.479-1.433C25.585,83.961,26.23,84.629,26.223,85.489z"/>
		<path fill-rule="evenodd" clip-rule="evenodd" d="M52.283,124.504c-0.842-0.02-1.424-0.639-1.415-1.508
			c0.008-0.838,0.642-1.442,1.497-1.428c0.866,0.016,1.465,0.652,1.439,1.533C53.78,123.941,53.15,124.521,52.283,124.504z"/>
		<path fill-rule="evenodd" clip-rule="evenodd" d="M107.639,68.033c0.797,0.006,1.408,0.646,1.409,1.473
			c0.001,0.833-0.634,1.48-1.462,1.49c-0.766,0.009-1.496-0.684-1.499-1.422C106.084,68.645,106.705,68.027,107.639,68.033z"/>
		<path fill-rule="evenodd" clip-rule="evenodd" d="M45.359,69.51c-0.006-0.863,0.624-1.488,1.499-1.485
			c0.811,0.005,1.454,0.663,1.456,1.491c0.002,0.811-0.665,1.471-1.48,1.465C46.002,70.976,45.365,70.342,45.359,69.51z"/>
		<path fill-rule="evenodd" clip-rule="evenodd" d="M118.623,61.241c0.014-0.836,0.666-1.466,1.492-1.441
			c0.865,0.025,1.49,0.675,1.471,1.528c-0.018,0.806-0.699,1.438-1.529,1.42C119.229,62.73,118.611,62.081,118.623,61.241z"/>
		<path fill-rule="evenodd" clip-rule="evenodd" d="M123.141,66.93c0.013-0.837,0.665-1.467,1.492-1.441
			c0.865,0.024,1.49,0.674,1.471,1.527c-0.019,0.807-0.699,1.439-1.53,1.421C123.745,68.418,123.129,67.77,123.141,66.93z"/>
		<path fill-rule="evenodd" clip-rule="evenodd" d="M25.565,17.067c0.825-0.009,1.48,0.625,1.5,1.451
			c0.02,0.844-0.636,1.503-1.494,1.5c-0.84-0.003-1.458-0.622-1.469-1.472C24.092,17.721,24.729,17.076,25.565,17.067z"/>
		<path fill-rule="evenodd" clip-rule="evenodd" d="M102.456,59.797c0.853-0.003,1.502,0.649,1.495,1.503
			c-0.006,0.818-0.662,1.451-1.498,1.445c-0.83-0.007-1.474-0.655-1.467-1.478C100.993,60.429,101.621,59.8,102.456,59.797z"/>
		<path fill-rule="evenodd" clip-rule="evenodd" d="M18.479,95.459c-0.84,0.006-1.471-0.609-1.484-1.45
			c-0.013-0.845,0.596-1.477,1.438-1.489c0.868-0.014,1.512,0.611,1.515,1.471C19.951,94.816,19.313,95.453,18.479,95.459z"/>
		<path fill-rule="evenodd" clip-rule="evenodd" d="M30.007,34.8c-0.006,0.833-0.646,1.453-1.486,1.44
			c-0.833-0.012-1.445-0.643-1.447-1.489c-0.002-0.817,0.655-1.481,1.467-1.481C29.38,33.269,30.014,33.93,30.007,34.8z"/>
		<path fill-rule="evenodd" clip-rule="evenodd" d="M38.042,77.643c0.636,0.039,1.199,0.576,1.17,1.12
			c-0.026,0.523-0.675,1.044-1.27,1.019c-0.507-0.021-0.903-0.523-0.882-1.117C37.082,78.072,37.526,77.611,38.042,77.643z"/>
		<path fill-rule="evenodd" clip-rule="evenodd" d="M99.622,15.678c-0.673,0.005-1.233-0.441-1.22-0.971
			c0.018-0.617,0.514-1.118,1.104-1.114c0.588,0.005,1.035,0.45,1.041,1.037C100.553,15.263,100.19,15.673,99.622,15.678z"/>
		<path fill-rule="evenodd" clip-rule="evenodd" d="M69.244,109.723c0.342,0.193,0.662,0.403,0.806,0.803
			c0.149,0.416,0.067,0.844-0.245,1.133c-0.34,0.313-0.738,0.342-1.152,0.193c-0.357-0.129-0.593-0.523-0.596-0.944
			c-0.005-0.644,0.33-1.017,1.021-1.132c0.062-0.011,0.132,0.014,0.17-0.059L69.244,109.723z"/>
		<path fill-rule="evenodd" clip-rule="evenodd" d="M74.766,119.258c0.342,0.193,0.662,0.404,0.805,0.803
			c0.15,0.416,0.068,0.846-0.244,1.134c-0.341,0.313-0.739,0.342-1.153,0.193c-0.357-0.13-0.593-0.522-0.595-0.944
			c-0.006-0.643,0.33-1.018,1.021-1.132c0.062-0.011,0.131,0.015,0.17-0.06L74.766,119.258z"/>
		<path fill-rule="evenodd" clip-rule="evenodd" d="M100.479,74.602c-0.07,0.086-0.08,0.191-0.097,0.295l0.009-0.009
			c-0.623,0.441-1.219,0.339-1.799-0.089l0.009,0.01c-0.159-0.316-0.247-0.625-0.103-0.99c0.217-0.544,0.687-0.829,1.253-0.701
			c0.54,0.121,0.855,0.611,0.771,1.201c-0.015,0.097-0.034,0.193-0.051,0.291L100.479,74.602z"/>
		<path fill-rule="evenodd" clip-rule="evenodd" d="M48.525,56.925c-0.012,0.613-0.476,1.062-1.078,1.04
			c-0.576-0.021-1.018-0.496-0.998-1.071c0.021-0.608,0.468-1.012,1.109-1.001C48.104,55.901,48.536,56.362,48.525,56.925z"/>
		<path fill-rule="evenodd" clip-rule="evenodd" d="M103.213,104.737c-0.557-0.001-1.078-0.491-1.078-1.017
			c0-0.592,0.518-1.082,1.146-1.086c0.489-0.006,0.951,0.507,0.963,1.064C104.256,104.268,103.789,104.738,103.213,104.737z"/>
		<path fill-rule="evenodd" clip-rule="evenodd" d="M53.476,46.725c0.006-0.592,0.446-1.032,1.028-1.029
			c0.601,0.005,1.058,0.473,1.043,1.068c-0.015,0.584-0.467,1.011-1.058,1.001C53.904,47.756,53.47,47.31,53.476,46.725z"/>
		<path fill-rule="evenodd" clip-rule="evenodd" d="M17.864,69.062c-0.563,0.009-1.024-0.453-1.029-1.033
			c-0.005-0.59,0.434-1.043,1.011-1.045c0.596-0.002,1.04,0.422,1.049,1C18.904,68.612,18.482,69.053,17.864,69.062z"/>
		<path fill-rule="evenodd" clip-rule="evenodd" d="M2.807,74.583c-0.563,0.009-1.024-0.453-1.029-1.033
			c-0.005-0.59,0.434-1.043,1.011-1.045c0.596-0.001,1.04,0.422,1.049,1.001C3.847,74.133,3.425,74.574,2.807,74.583z"/>
		<path fill-rule="evenodd" clip-rule="evenodd" d="M47.747,2.255c0.005-0.589,0.454-1.031,1.033-1.018
			c0.588,0.014,1.03,0.452,1.037,1.029c0.008,0.598-0.461,1.059-1.065,1.046C48.18,3.301,47.742,2.84,47.747,2.255z"/>
		<path fill-rule="evenodd" clip-rule="evenodd" d="M65.639,26.931c0.016,0.555-0.457,1.062-1.002,1.075
			c-0.576,0.013-1.068-0.459-1.092-1.049c-0.023-0.555,0.45-1.03,1.031-1.034C65.15,25.918,65.623,26.366,65.639,26.931z"/>
		<path fill-rule="evenodd" clip-rule="evenodd" d="M87.724,4.68c0.016,0.555-0.458,1.062-1.003,1.075
			c-0.576,0.013-1.067-0.459-1.092-1.049c-0.023-0.555,0.45-1.03,1.031-1.034C87.234,3.667,87.707,4.115,87.724,4.68z"/>
		<path fill-rule="evenodd" clip-rule="evenodd" d="M78.678,21.171c-0.577,0.006-1.055-0.453-1.059-1.02
			c-0.004-0.571,0.463-1.056,1.025-1.065c0.556-0.009,1.037,0.464,1.053,1.035C79.712,20.705,79.266,21.165,78.678,21.171z"/>
		<path fill-rule="evenodd" clip-rule="evenodd" d="M42.102,31.866c-0.007,0.587-0.443,1.014-1.04,1.017
			c-0.566,0.002-1.055-0.477-1.049-1.029c0.006-0.575,0.521-1.072,1.088-1.053C41.684,30.822,42.108,31.273,42.102,31.866z"/>
		<path fill-rule="evenodd" clip-rule="evenodd" d="M70.268,82.319c-0.01,0.587-0.455,1.022-1.041,1.017
			c-0.588-0.006-1.057-0.496-1.035-1.086c0.02-0.545,0.479-0.987,1.027-0.99C69.834,81.258,70.277,81.705,70.268,82.319z"/>
		<path fill-rule="evenodd" clip-rule="evenodd" d="M75.807,1.238C76.4,1.244,76.84,1.68,76.848,2.271
			c0.006,0.574-0.459,1.043-1.033,1.043c-0.587,0-1.036-0.451-1.035-1.039C74.781,1.672,75.215,1.234,75.807,1.238z"/>
		<path fill-rule="evenodd" clip-rule="evenodd" d="M86.283,92.887c-0.586,0.006-1.049-0.439-1.056-1.018
			c-0.007-0.574,0.464-1.055,1.028-1.049c0.598,0.006,1.032,0.432,1.049,1.029C87.32,92.438,86.883,92.881,86.283,92.887z"/>
		<path fill-rule="evenodd" clip-rule="evenodd" d="M33.072,56.931c0.003,0.589-0.446,1.037-1.035,1.034
			c-0.577-0.003-1.042-0.473-1.036-1.044c0.007-0.57,0.439-1.022,0.99-1.035C32.605,55.871,33.068,56.318,33.072,56.931z"/>
		<path fill-rule="evenodd" clip-rule="evenodd" d="M82.238,9.367c-0.577-0.01-1.01-0.466-1.001-1.053
			c0.009-0.569,0.474-1.026,1.042-1.023c0.551,0.003,1.041,0.492,1.041,1.039C83.32,8.925,82.847,9.379,82.238,9.367z"/>
		<path fill-rule="evenodd" clip-rule="evenodd" d="M94.398,71.067c0.004-0.596,0.451-1.044,1.033-1.034
			c0.578,0.01,1.033,0.465,1.038,1.041c0.005,0.574-0.46,1.035-1.042,1.033C94.84,72.104,94.393,71.654,94.398,71.067z"/>
		<path fill-rule="evenodd" clip-rule="evenodd" d="M26.226,91.857c0.606,0.004,1.057,0.475,1.042,1.086
			c-0.014,0.559-0.462,0.988-1.029,0.99c-0.587,0.002-1.041-0.447-1.042-1.031C25.196,92.311,25.646,91.854,26.226,91.857z"/>
		<path fill-rule="evenodd" clip-rule="evenodd" d="M28.484,78.032c-0.588-0.039-1.011-0.51-0.979-1.091
			c0.032-0.588,0.499-1,1.096-0.969c0.592,0.033,1.003,0.491,0.976,1.088C29.55,77.643,29.068,78.07,28.484,78.032z"/>
		<path fill-rule="evenodd" clip-rule="evenodd" d="M63.732,46.222c0.004,0.58-0.45,1.03-1.04,1.033
			c-0.589,0.002-1.04-0.444-1.039-1.031c0-0.589,0.451-1.043,1.033-1.042C63.26,45.182,63.729,45.649,63.732,46.222z"/>
		<path fill-rule="evenodd" clip-rule="evenodd" d="M43.584,50.228c0.009,0.582-0.438,1.046-1.011,1.051
			c-0.556,0.003-1.042-0.463-1.064-1.023c-0.023-0.576,0.414-1.035,1-1.051C43.136,49.188,43.575,49.605,43.584,50.228z"/>
		<path fill-rule="evenodd" clip-rule="evenodd" d="M120.941,49.204c0.625,0,1.064,0.447,1.05,1.068
			c-0.013,0.534-0.496,1.004-1.033,1.004c-0.568,0-1.036-0.467-1.045-1.043C119.904,49.643,120.344,49.204,120.941,49.204z"/>
		<path fill-rule="evenodd" clip-rule="evenodd" d="M40.095,5.195c0.006-0.586,0.472-1.043,1.046-1.028
			c0.565,0.015,1.038,0.51,1.022,1.071c-0.016,0.574-0.488,1.027-1.064,1.018C40.514,6.248,40.088,5.798,40.095,5.195z"/>
		<path fill-rule="evenodd" clip-rule="evenodd" d="M111.605,63.775c0.003,0.625-0.387,1.021-1.008,1.026
			c-0.607,0.005-1.074-0.458-1.062-1.054c0.014-0.577,0.48-1.035,1.05-1.026C111.158,62.729,111.602,63.188,111.605,63.775z"/>
		<path fill-rule="evenodd" clip-rule="evenodd" d="M25.201,100.723c0-0.586,0.456-1.038,1.04-1.031
			c0.58,0.008,1.036,0.473,1.027,1.047c-0.009,0.595-0.45,1.032-1.041,1.031C25.648,101.77,25.202,101.312,25.201,100.723z"/>
		<path fill-rule="evenodd" clip-rule="evenodd" d="M39.08,100.697c-0.591-0.011-1.051-0.469-1.039-1.037
			c0.012-0.583,0.479-1.045,1.048-1.035c0.596,0.008,1.05,0.496,1.028,1.104C40.095,100.301,39.66,100.707,39.08,100.697z"/>
		<path fill-rule="evenodd" clip-rule="evenodd" d="M8.38,85.907c0.593-0.001,1.038,0.43,1.054,1.021
			c0.017,0.564-0.458,1.051-1.027,1.057c-0.59,0.006-1.057-0.479-1.046-1.086C7.372,86.334,7.811,85.908,8.38,85.907z"/>
		<path fill-rule="evenodd" clip-rule="evenodd" d="M26.21,49.064c-0.585-0.017-1.025-0.478-1.01-1.06
			c0.015-0.594,0.465-1.024,1.058-1.011c0.578,0.013,1.019,0.475,1.012,1.064C27.263,48.636,26.795,49.08,26.21,49.064z"/>
		<path fill-rule="evenodd" clip-rule="evenodd" d="M113.085,71.703c0.011,0.6-0.415,1.041-1.011,1.049
			c-0.586,0.008-1.041-0.432-1.057-1.019c-0.015-0.571,0.447-1.052,1.021-1.062C112.613,70.662,113.075,71.117,113.085,71.703z"/>
		<path fill-rule="evenodd" clip-rule="evenodd" d="M124.963,81.406c0.011,0.602-0.414,1.043-1.01,1.051
			c-0.587,0.007-1.041-0.432-1.057-1.02c-0.016-0.571,0.446-1.053,1.02-1.061C124.491,80.366,124.953,80.82,124.963,81.406z"/>
		<path fill-rule="evenodd" clip-rule="evenodd" d="M117.399,69.503c0.005-0.601,0.45-1.052,1.026-1.036
			c0.598,0.014,1.037,0.451,1.043,1.037c0.007,0.57-0.457,1.033-1.037,1.035C117.846,70.541,117.395,70.087,117.399,69.503z"/>
		<path fill-rule="evenodd" clip-rule="evenodd" d="M58.615,62.296c-0.009-0.59,0.433-1.048,1.014-1.052
			c0.574-0.004,1.035,0.453,1.044,1.035c0.01,0.585-0.436,1.04-1.023,1.043C59.06,63.327,58.624,62.894,58.615,62.296z"/>
		<path fill-rule="evenodd" clip-rule="evenodd" d="M50.836,114.295c-0.586-0.01-1.028-0.468-1.015-1.053
			c0.013-0.575,0.483-1.034,1.054-1.027c0.554,0.006,1.02,0.496,1.017,1.07C51.889,113.867,51.433,114.305,50.836,114.295z"/>
		<path fill-rule="evenodd" clip-rule="evenodd" d="M101.713,30.805c0.574,0.001,1.039,0.458,1.054,1.034
			c0.015,0.565-0.451,1.04-1.028,1.047c-0.577,0.008-1.045-0.448-1.053-1.026C100.678,31.289,101.15,30.804,101.713,30.805z"/>
		<path fill-rule="evenodd" clip-rule="evenodd" d="M89.618,32.885c-0.583-0.012-1.036-0.476-1.025-1.052
			c0.012-0.582,0.464-1.02,1.054-1.021c0.568-0.001,1.025,0.468,1.021,1.052C90.664,32.443,90.197,32.897,89.618,32.885z"/>
		<path fill-rule="evenodd" clip-rule="evenodd" d="M78.204,94.848c-0.005,0.592-0.456,1.029-1.046,1.014
			c-0.593-0.016-1.011-0.455-1.004-1.057c0.008-0.604,0.441-1.025,1.044-1.011S78.209,94.236,78.204,94.848z"/>
		<path fill-rule="evenodd" clip-rule="evenodd" d="M34.705,65.494c0.002-0.609,0.424-1.03,1.032-1.029
			c0.597,0.002,1.018,0.428,1.025,1.039c0.007,0.58-0.449,1.036-1.036,1.035C35.14,66.539,34.703,66.091,34.705,65.494z"/>
		<path fill-rule="evenodd" clip-rule="evenodd" d="M44.051,43.271c0.006,0.012,0.012,0.025,0.019,0.038
			c-0.013,0.003-0.033,0.014-0.037,0.01C44.001,43.286,44.008,43.268,44.051,43.271z"/>
		<path fill-rule="evenodd" clip-rule="evenodd" d="M6.941,78.984c-0.003-0.012-0.012-0.028-0.008-0.033
			c0.029-0.029,0.046-0.021,0.041,0.016C6.973,78.975,6.953,78.98,6.941,78.984z"/>
		<path fill-rule="evenodd" clip-rule="evenodd" d="M66.469,78.967c-0.011,0.006-0.021,0.012-0.033,0.016
			c-0.004-0.01-0.013-0.027-0.008-0.031C66.456,78.92,66.471,78.928,66.469,78.967z"/>
		<path fill-rule="evenodd" clip-rule="evenodd" d="M10.931,73.025c-0.013,0.038-0.025,0.077-0.038,0.115
			c0.014-0.039,0.028-0.078,0.042-0.117L10.931,73.025z"/>
		<path fill-rule="evenodd" clip-rule="evenodd" d="M103.508,43.303c0.006-0.012,0.012-0.035,0.016-0.035
			c0.041,0.007,0.049,0.027,0.02,0.053C103.54,43.325,103.52,43.31,103.508,43.303z"/>
		<polygon fill-rule="evenodd" clip-rule="evenodd" points="96.48,48.894 96.443,48.899 96.449,48.878 		"/>
		<path fill-rule="evenodd" clip-rule="evenodd" d="M44.07,102.802c-0.012,0.005-0.031,0.015-0.036,0.01
			c-0.031-0.031-0.023-0.05,0.018-0.044C44.06,102.768,44.064,102.789,44.07,102.802z"/>
		<path fill-rule="evenodd" clip-rule="evenodd" d="M38.401,47.298c0.003,0.013,0.013,0.029,0.009,0.036
			c-0.006,0.01-0.023,0.011-0.036,0.017c-0.003-0.013-0.013-0.029-0.009-0.037C38.37,47.305,38.388,47.303,38.401,47.298z"/>
		<polygon fill-rule="evenodd" clip-rule="evenodd" points="36.987,108.388 36.95,108.393 36.957,108.371 		"/>
		<path fill-rule="evenodd" clip-rule="evenodd" d="M97.905,106.828c-0.013,0.006-0.024,0.012-0.036,0.018
			c-0.004-0.014-0.015-0.031-0.011-0.036C97.889,106.778,97.906,106.785,97.905,106.828z"/>
		<path fill-rule="evenodd" clip-rule="evenodd" d="M97.895,47.298c0.004,0.013,0.014,0.029,0.008,0.036
			c-0.006,0.01-0.023,0.011-0.035,0.017c-0.004-0.013-0.014-0.029-0.009-0.037C97.863,47.305,97.881,47.303,97.895,47.298z"/>
		<path fill-rule="evenodd" clip-rule="evenodd" d="M66.469,19.474c-0.011,0.006-0.021,0.011-0.033,0.017
			c-0.004-0.011-0.013-0.029-0.008-0.033C66.455,19.428,66.471,19.434,66.469,19.474z"/>
		<path fill-rule="evenodd" clip-rule="evenodd" d="M63.295,23.631c-0.038-0.021-0.076-0.043-0.114-0.064
			c0.013,0,0.031-0.003,0.039,0.003c0.025,0.02,0.047,0.045,0.07,0.068L63.295,23.631z"/>
		<path fill-rule="evenodd" clip-rule="evenodd" d="M33.813,112.945c-0.013,0-0.026,0.001-0.038-0.002c-0.002,0-0.003-0.025,0-0.027
			C33.812,112.903,33.825,112.914,33.813,112.945z"/>
		<path fill-rule="evenodd" clip-rule="evenodd" d="M93.322,53.438c-0.012,0.005-0.021,0.017-0.033,0.017
			c-0.011,0-0.021-0.012-0.032-0.018c0.011-0.007,0.022-0.018,0.032-0.018C93.301,53.419,93.311,53.431,93.322,53.438z"/>
		<path fill-rule="evenodd" clip-rule="evenodd" d="M33.791,53.456c-0.009-0.008-0.019-0.015-0.028-0.022
			c0.011-0.006,0.024-0.016,0.034-0.014c0.01,0.001,0.019,0.013,0.028,0.021C33.814,53.446,33.802,53.451,33.791,53.456z"/>
		<path fill-rule="evenodd" clip-rule="evenodd" d="M70.424,13.532c-0.012,0.039-0.024,0.077-0.037,0.117
			c0.014-0.04,0.028-0.08,0.043-0.12L70.424,13.532z"/>
		<path fill-rule="evenodd" clip-rule="evenodd" d="M100.469,15.417c-0.02,0.041-0.039,0.082-0.057,0.123
			c-0.062-0.085,0.039-0.077,0.064-0.114L100.469,15.417z"/>
		<path fill-rule="evenodd" clip-rule="evenodd" d="M75.008,72.102c-0.006,0.012-0.01,0.027-0.02,0.033
			c-0.007,0.004-0.031-0.008-0.031-0.011C74.962,72.086,74.979,72.078,75.008,72.102z"/>
		<path fill-rule="evenodd" clip-rule="evenodd" d="M74.986,12.644c-0.011-0.005-0.021-0.009-0.031-0.015
			c0.006-0.01,0.01-0.026,0.02-0.03c0.007-0.003,0.021,0.008,0.031,0.013C75,12.623,74.992,12.634,74.986,12.644z"/>
		<path fill-rule="evenodd" clip-rule="evenodd" d="M15.475,72.139c-0.003-0.012-0.012-0.025-0.008-0.033
			c0.006-0.009,0.021-0.012,0.033-0.016c0.003,0.01,0.012,0.025,0.008,0.031C15.502,72.131,15.486,72.133,15.475,72.139z"/>
		<path fill-rule="evenodd" clip-rule="evenodd" d="M63.295,83.124c-0.038-0.021-0.076-0.042-0.114-0.063
			c0.013,0,0.031-0.004,0.039,0.003c0.025,0.021,0.047,0.046,0.07,0.069L63.295,83.124z"/>
		<path fill-rule="evenodd" clip-rule="evenodd" d="M122.788,83.125c-0.038-0.021-0.075-0.043-0.114-0.064
			c0.014,0,0.031-0.004,0.039,0.003c0.025,0.021,0.047,0.046,0.07,0.069L122.788,83.125z"/>
		<path fill-rule="evenodd" clip-rule="evenodd" d="M102.269,102.669c0.01-0.023,0.02-0.046,0.03-0.069
			c-0.002,0.011-0.002,0.023-0.008,0.031c-0.008,0.012-0.02,0.02-0.031,0.029L102.269,102.669z"/>
		<path fill-rule="evenodd" clip-rule="evenodd" d="M102.956,102.285c0.021,0.008,0.042,0.016,0.063,0.022
			c-0.009-0.003-0.02-0.003-0.027-0.007c-0.011-0.006-0.02-0.016-0.03-0.023L102.956,102.285z"/>
		<path fill-rule="evenodd" clip-rule="evenodd" d="M43.463,102.285c0.021,0.008,0.042,0.016,0.063,0.022
			c-0.009-0.003-0.019-0.003-0.027-0.007c-0.011-0.006-0.02-0.016-0.03-0.023L43.463,102.285z"/>
		<path fill-rule="evenodd" clip-rule="evenodd" d="M100.768,15.417c-0.01,0.025-0.021,0.05-0.032,0.076
			c0.001-0.012,0.001-0.025,0.007-0.034c0.008-0.013,0.021-0.023,0.031-0.034L100.768,15.417z"/>
		<path fill-rule="evenodd" clip-rule="evenodd" d="M66.264,19.97c-0.037-0.055,0.008,0.023-0.007,0.004L66.264,19.97z"/>
		<path fill-rule="evenodd" clip-rule="evenodd" d="M100.492,75.404c0.008-0.023,0.016-0.047,0.023-0.07
			c-0.002,0.012-0.002,0.023-0.007,0.033c-0.007,0.013-0.017,0.023-0.024,0.035L100.492,75.404z"/>
		<path fill-rule="evenodd" clip-rule="evenodd" d="M100.382,74.896c0.014,0.022,0.028,0.045,0.042,0.067
			c-0.057-0.005-0.018-0.054-0.033-0.076L100.382,74.896z"/>
		<path fill-rule="evenodd" clip-rule="evenodd" d="M43.463,42.792c0.021,0.008,0.042,0.015,0.063,0.023
			c-0.009-0.002-0.019-0.003-0.027-0.008c-0.011-0.006-0.02-0.015-0.03-0.022L43.463,42.792z"/>
		<path fill-rule="evenodd" clip-rule="evenodd" d="M102.956,42.792c0.021,0.008,0.042,0.015,0.063,0.023
			c-0.009-0.002-0.02-0.003-0.027-0.008c-0.011-0.006-0.02-0.015-0.03-0.022L102.956,42.792z"/>
		<path fill-rule="evenodd" clip-rule="evenodd" d="M37.312,49.139c0.021,0.008,0.043,0.016,0.065,0.024
			c-0.009-0.003-0.018-0.004-0.025-0.009c-0.011-0.007-0.021-0.016-0.03-0.024L37.312,49.139z"/>
		<path fill-rule="evenodd" clip-rule="evenodd" d="M11.651,47.925c0.013,0.008,0.026,0.018,0.039,0.026
			c-0.009-0.01-0.019-0.022-0.028-0.033L11.651,47.925z"/>
		<path fill-rule="evenodd" clip-rule="evenodd" d="M11.662,47.917c-0.029-0.003-0.057-0.006-0.085-0.01
			c0.025,0.006,0.05,0.011,0.075,0.017L11.662,47.917z"/>
		<path fill-rule="evenodd" clip-rule="evenodd" d="M6.77,79.465c-0.006-0.016-0.011-0.029-0.017-0.044
			c0.03,0.06-0.056,0.048,0.01,0.048L6.77,79.465z"/>
		<path fill-rule="evenodd" clip-rule="evenodd" d="M66.264,79.464c-0.041-0.06,0.01,0.026-0.007,0.003L66.264,79.464z"/>
		<path fill-rule="evenodd" clip-rule="evenodd" d="M38.312,79.962c0.02-0.009,0.039-0.017,0.058-0.026
			c-0.01,0.004-0.019,0.01-0.029,0.013c-0.013,0.003-0.025,0.003-0.039,0.005L38.312,79.962z"/>
		<path fill-rule="evenodd" clip-rule="evenodd" d="M39.604,78.095c-0.013,0.019-0.026,0.038-0.039,0.058
			c0.005-0.009,0.008-0.019,0.015-0.025c0.009-0.009,0.021-0.015,0.033-0.023L39.604,78.095z"/>
		<path fill-rule="evenodd" clip-rule="evenodd" d="M39.613,78.104c0-0.014-0.002-0.031,0.001-0.045
			c0.013-0.048,0.017-0.05,0.007-0.006c-0.004,0.014-0.011,0.028-0.017,0.042L39.613,78.104z"/>
		<polygon fill-rule="evenodd" clip-rule="evenodd" points="42.863,44.459 42.883,44.447 42.867,44.451 		"/>
		<polygon fill-rule="evenodd" clip-rule="evenodd" points="102.357,44.459 102.377,44.447 102.359,44.451 		"/>
		<polygon fill-rule="evenodd" clip-rule="evenodd" points="42.867,44.451 42.856,44.477 42.863,44.459 		"/>
		<polygon fill-rule="evenodd" clip-rule="evenodd" points="102.359,44.451 102.35,44.477 102.357,44.459 		"/>
		<path fill-rule="evenodd" clip-rule="evenodd" d="M64.085,23.042l-0.007,0.007L64.085,23.042z"/>
		<path fill-rule="evenodd" clip-rule="evenodd" d="M64.078,23.048l0.007-0.007L64.078,23.048z"/>
		<path fill-rule="evenodd" clip-rule="evenodd" d="M63.29,23.639l0.005-0.007L63.29,23.639z"/>
		<path fill-rule="evenodd" clip-rule="evenodd" d="M43.469,42.785l-0.006,0.007L43.469,42.785z"/>
		<path fill-rule="evenodd" clip-rule="evenodd" d="M102.962,42.785l-0.006,0.007L102.962,42.785z"/>
		<polygon fill-rule="evenodd" clip-rule="evenodd" points="42.27,43.866 42.289,43.853 42.273,43.858 		"/>
		<polygon fill-rule="evenodd" clip-rule="evenodd" points="101.763,43.866 101.781,43.853 101.766,43.858 		"/>
		<polygon fill-rule="evenodd" clip-rule="evenodd" points="42.273,43.858 42.263,43.883 42.27,43.866 		"/>
		<polygon fill-rule="evenodd" clip-rule="evenodd" points="101.766,43.858 101.756,43.883 101.763,43.866 		"/>
		<path fill-rule="evenodd" clip-rule="evenodd" d="M9.762,48.432l-0.008,0.007L9.762,48.432z"/>
		<polygon fill-rule="evenodd" clip-rule="evenodd" points="37.322,49.129 37.306,49.119 37.312,49.139 		"/>
		<path fill-rule="evenodd" clip-rule="evenodd" d="M72.715,14.811l-0.01,0.01L72.715,14.811z"/>
		<polygon fill-rule="evenodd" clip-rule="evenodd" points="72.705,14.821 72.725,14.831 72.715,14.811 		"/>
		<path fill-rule="evenodd" clip-rule="evenodd" d="M100.586,15.312l-0.009-0.009L100.586,15.312z"/>
		<path fill-rule="evenodd" clip-rule="evenodd" d="M100.577,15.303c-0.036,0.038-0.072,0.076-0.108,0.114l0.008,0.009
			c0.036-0.038,0.072-0.076,0.109-0.113L100.577,15.303z"/>
		<path fill-rule="evenodd" clip-rule="evenodd" d="M100.773,15.424l-0.006-0.007L100.773,15.424z"/>
		<path fill-rule="evenodd" clip-rule="evenodd" d="M69.947,17.695l-0.006-0.007L69.947,17.695z"/>
		<path fill-rule="evenodd" clip-rule="evenodd" d="M69.941,17.688l0.006,0.007L69.941,17.688z"/>
		<polygon fill-rule="evenodd" clip-rule="evenodd" points="70.43,13.529 70.445,13.516 70.424,13.532 		"/>
		<path fill-rule="evenodd" clip-rule="evenodd" d="M66.465,20.265l-0.006,0.006L66.465,20.265z"/>
		<path fill-rule="evenodd" clip-rule="evenodd" d="M66.459,20.271l0.006-0.006L66.459,20.271z"/>
		<path fill-rule="evenodd" clip-rule="evenodd" d="M39.298,20.758l-0.007,0.008L39.298,20.758z"/>
		<path fill-rule="evenodd" clip-rule="evenodd" d="M39.292,20.766l0.007-0.008L39.292,20.766z"/>
		<path fill-rule="evenodd" clip-rule="evenodd" d="M66.38,21.265l-0.009-0.008L66.38,21.265z"/>
		<path fill-rule="evenodd" clip-rule="evenodd" d="M66.273,21.36c0.035-0.032,0.071-0.064,0.106-0.096l-0.009-0.008
			c-0.034,0.032-0.068,0.064-0.104,0.097L66.273,21.36z"/>
		<path fill-rule="evenodd" clip-rule="evenodd" d="M66.268,21.353l0.006,0.007L66.268,21.353z"/>
		<path fill-rule="evenodd" clip-rule="evenodd" d="M68.747,18.674l-0.005,0.007L68.747,18.674z"/>
		<polygon fill-rule="evenodd" clip-rule="evenodd" points="68.742,18.681 68.756,18.693 68.747,18.674 		"/>
		<polygon fill-rule="evenodd" clip-rule="evenodd" points="95.218,19.283 95.232,19.273 95.21,19.273 		"/>
		<polygon fill-rule="evenodd" clip-rule="evenodd" points="66.257,19.975 66.275,19.983 66.264,19.97 		"/>
		<polygon fill-rule="evenodd" clip-rule="evenodd" points="42.867,103.965 42.853,103.978 42.866,103.971 		"/>
		<polygon fill-rule="evenodd" clip-rule="evenodd" points="69.248,109.717 69.234,109.705 69.244,109.723 		"/>
		<path fill-rule="evenodd" clip-rule="evenodd" d="M92.947,112.782l-0.008-0.009L92.947,112.782z"/>
		<path fill-rule="evenodd" clip-rule="evenodd" d="M92.939,112.773l0.008,0.009L92.939,112.773z"/>
		<path fill-rule="evenodd" clip-rule="evenodd" d="M69.949,77.19l-0.008-0.007L69.949,77.19z"/>
		<path fill-rule="evenodd" clip-rule="evenodd" d="M10.444,77.196l0.005,0.009L10.444,77.196z"/>
		<path fill-rule="evenodd" clip-rule="evenodd" d="M69.941,77.184l0.008,0.007L69.941,77.184z"/>
		<path fill-rule="evenodd" clip-rule="evenodd" d="M9.254,78.168L9.25,78.176L9.254,78.168z"/>
		<path fill-rule="evenodd" clip-rule="evenodd" d="M68.747,78.168l-0.005,0.006L68.747,78.168z"/>
		<polygon fill-rule="evenodd" clip-rule="evenodd" points="9.25,78.176 9.262,78.186 9.254,78.168 		"/>
		<polygon fill-rule="evenodd" clip-rule="evenodd" points="68.742,78.174 68.756,78.186 68.747,78.168 		"/>
		<polygon fill-rule="evenodd" clip-rule="evenodd" points="6.762,79.469 6.782,79.477 6.77,79.465 		"/>
		<polygon fill-rule="evenodd" clip-rule="evenodd" points="10.936,73.023 10.952,73.009 10.931,73.025 		"/>
		<path fill-rule="evenodd" clip-rule="evenodd" d="M13.221,74.305l-0.01,0.01L13.221,74.305z"/>
		<polygon fill-rule="evenodd" clip-rule="evenodd" points="13.211,74.314 13.231,74.324 13.221,74.305 		"/>
		<path fill-rule="evenodd" clip-rule="evenodd" d="M100.471,74.609c0.029,0.035,0.061,0.07,0.09,0.105l0.01-0.008
			c-0.031-0.035-0.062-0.07-0.092-0.105L100.471,74.609z"/>
		<path fill-rule="evenodd" clip-rule="evenodd" d="M100.561,74.715l0.01-0.008L100.561,74.715z"/>
		<path fill-rule="evenodd" clip-rule="evenodd" d="M98.592,74.799l0.009,0.01L98.592,74.799z"/>
		<polygon fill-rule="evenodd" clip-rule="evenodd" points="100.484,75.402 100.471,75.412 100.492,75.404 		"/>
		<polygon fill-rule="evenodd" clip-rule="evenodd" points="10.449,77.205 10.452,77.184 10.444,77.196 		"/>
		<polygon fill-rule="evenodd" clip-rule="evenodd" points="3.679,83.164 3.699,83.168 3.687,83.155 		"/>
		<path fill-rule="evenodd" clip-rule="evenodd" d="M63.29,83.133l0.005-0.009L63.29,83.133z"/>
		<path fill-rule="evenodd" clip-rule="evenodd" d="M122.783,83.133l0.005-0.008L122.783,83.133z"/>
		<path fill-rule="evenodd" clip-rule="evenodd" d="M4.2,83.33l0.008,0.006L4.2,83.33z"/>
		<path fill-rule="evenodd" clip-rule="evenodd" d="M43.469,102.277l-0.006,0.008L43.469,102.277z"/>
		<path fill-rule="evenodd" clip-rule="evenodd" d="M102.962,102.277l-0.006,0.008L102.962,102.277z"/>
		<path fill-rule="evenodd" clip-rule="evenodd" d="M102.26,102.66l0.009,0.009L102.26,102.66z"/>
		<polygon fill-rule="evenodd" clip-rule="evenodd" points="42.27,103.359 42.289,103.346 42.273,103.352 		"/>
		<polygon fill-rule="evenodd" clip-rule="evenodd" points="42.273,103.352 42.263,103.377 42.27,103.359 		"/>
		<polygon fill-rule="evenodd" clip-rule="evenodd" points="42.866,103.971 42.878,103.949 42.867,103.965 		"/>
		<polygon fill-rule="evenodd" clip-rule="evenodd" points="66.257,79.467 66.275,79.477 66.264,79.464 		"/>
		<path fill-rule="evenodd" clip-rule="evenodd" d="M66.465,79.758l-0.006,0.007L66.465,79.758z"/>
		<path fill-rule="evenodd" clip-rule="evenodd" d="M66.459,79.765l0.006-0.007L66.459,79.765z"/>
		<polygon fill-rule="evenodd" clip-rule="evenodd" points="38.303,79.953 38.296,79.973 38.312,79.962 		"/>
		<path fill-rule="evenodd" clip-rule="evenodd" d="M66.38,80.758l-0.009-0.008L66.38,80.758z"/>
		<path fill-rule="evenodd" clip-rule="evenodd" d="M66.273,80.854c0.035-0.032,0.071-0.063,0.106-0.096l-0.009-0.008
			c-0.034,0.031-0.068,0.064-0.104,0.096L66.273,80.854z"/>
		<path fill-rule="evenodd" clip-rule="evenodd" d="M66.268,80.846l0.006,0.008L66.268,80.846z"/>
		<path fill-rule="evenodd" clip-rule="evenodd" d="M64.085,82.535l-0.007,0.006L64.085,82.535z"/>
		<path fill-rule="evenodd" clip-rule="evenodd" d="M64.078,82.541l0.007-0.006L64.078,82.541z"/>
		<path fill-rule="evenodd" clip-rule="evenodd" d="M3.699,83.029c-0.007,0.045-0.013,0.09-0.021,0.135l0.008-0.009
			c-0.029-0.042-0.058-0.083-0.087-0.126l-0.006,0.012c0.039,0,0.077,0,0.116,0L3.699,83.029z"/>
		<path fill-rule="evenodd" clip-rule="evenodd" d="M3.709,83.041c-0.039,0-0.077,0-0.116,0C3.632,83,3.671,83.002,3.709,83.041z"/>
	</g>
</g>
</svg>
