<?xml version="1.0" encoding="utf-8"?>
<!-- Generator: Adobe Illustrator 16.0.4, SVG Export Plug-In . SVG Version: 6.00 Build 0)  -->
<!DOCTYPE svg PUBLIC "-//W3C//DTD SVG 1.1//EN" "http://www.w3.org/Graphics/SVG/1.1/DTD/svg11.dtd">
<svg version="1.1" id="Layer_3915" xmlns="http://www.w3.org/2000/svg" xmlns:xlink="http://www.w3.org/1999/xlink" x="0px" y="0px"
	 width="128px" height="128px" viewBox="0 0 128 128" enable-background="new 0 0 128 128" xml:space="preserve">
<g>
	<g id="cIj45y.tif_5_">
		<g>
			<path fill-rule="evenodd" clip-rule="evenodd" d="M11.978,111.274c0-4.494,0.002-8.99-0.001-13.483
				c0-0.939-0.113-1.97,0.905-2.467c1.123-0.55,2.34-0.541,3.46,0.02c0.498,0.248,0.961,0.358,1.494,0.358
				c3.765-0.008,7.53-0.008,11.294-0.01c0.976,0,0.968-0.001,0.876,0.931c-0.038,0.377-0.029,0.758-0.049,1.137
				c-0.049,0.922-0.061,0.937-1.047,0.938c-3.211,0.004-6.421,0.001-9.631,0.001c-0.292,0-0.584-0.001-0.875,0.001
				c-1.175,0.005-1.188,0.016-1.186,1.156c0.001,1.054,0.031,1.096,1.068,1.097c3.531,0.004,7.062,0,10.594-0.001
				c1,0,1.038-0.004,1.083,0.997c0.053,1.166,0.032,2.334,0.032,3.501c0,3.618-0.008,7.237-0.008,10.855
				c0,2.652-0.012,5.304,0.021,7.956c0.009,0.773-0.279,1.565,0.121,2.327c0.113,0.217-0.061,0.314-0.262,0.322
				c-0.263,0.011-0.526,0.014-0.788,0.014c-3.823,0.001-7.646,0.004-11.47-0.002c-0.445,0-0.836,0.098-1.252,0.288
				c-1.11,0.511-2.267,0.484-3.405,0.05c-0.5-0.191-0.806-0.581-0.89-1.109c-0.059-0.371-0.081-0.753-0.081-1.131
				C11.977,120.439,11.978,115.856,11.978,111.274z"/>
			<path fill-rule="evenodd" clip-rule="evenodd" d="M31.048,111.251c0-4.699,0-9.397,0-14.098c0-1.423,0.623-2.101,2.05-2.155
				c0.9-0.034,1.817-0.094,2.6,0.521c0.323,0.254,0.728,0.173,1.103,0.173c3.561,0.005,7.122,0,10.683,0.002
				c0.928,0.002,0.912,0.004,0.81,0.938c-0.047,0.433-0.06,0.878-0.013,1.311c0.065,0.603-0.209,0.771-0.753,0.763
				c-1.227-0.019-2.453-0.008-3.678-0.007c-2.218,0.002-4.437-0.007-6.655,0.021c-0.339,0.003-0.871-0.168-0.97,0.331
				c-0.111,0.56-0.183,1.177,0.088,1.715c0.147,0.289,0.53,0.177,0.812,0.178c3.21,0.008,6.42,0.008,9.632,0.01
				c0.175,0,0.35-0.003,0.525-0.001c0.935,0.015,0.975,0.048,0.975,1.006c0.003,7.472,0,14.944,0.004,22.417
				c0,0.669-0.065,1.344,0.162,1.995c0.132,0.382-0.028,0.548-0.413,0.547c-0.526-0.002-1.051,0.004-1.576,0.004
				c-3.24,0-6.48,0.002-9.72-0.002c-0.473-0.001-0.91,0.058-1.347,0.286c-1.015,0.528-2.091,0.483-3.151,0.147
				c-0.822-0.261-1.16-0.819-1.161-1.83c-0.004-4.757-0.002-9.516-0.002-14.272C31.051,111.251,31.049,111.251,31.048,111.251z"/>
			<path fill-rule="evenodd" clip-rule="evenodd" d="M55.93,125.144c-0.677,0.669-1.49,1.211-1.928,2.1l0.006-0.005
				c-0.967,0.198-1.917,0.493-2.933,0.25c-1.206-0.287-1.644-0.771-1.644-1.99c-0.003-9.455-0.004-18.911-0.001-28.365
				c0.001-1.451,0.603-2.07,2.054-2.133c0.437-0.02,0.878-0.027,1.312,0.011c0.599,0.056,1.192,0.245,1.491,0.789
				c0.377,0.687,0.951,1.174,1.468,1.724c1.556,1.659,3.1,3.329,4.666,4.979c1.651,1.739,3.376,3.386,5.552,4.484
				c0.562,0.283,1.151,0.401,1.736,0.571c1.32,0.384,2.677,0.584,4.018,0.861c0.235,0.048,0.464,0.062,0.669-0.093l-0.003,0.002
				c1.339-0.702,2.77-0.555,4.19-0.439c0.526,0.043,0.838,0.376,0.916,0.904c0.258,1.711,0.264,3.422-0.019,5.13
				c-0.088,0.527-0.407,0.877-0.941,0.86c-1.403-0.047-2.865,0.368-4.177-0.493c-0.241-0.158-0.506-0.068-0.764-0.021
				c-1.518,0.285-3.031,0.591-4.516,1.018c-1.11,0.318-2.063,0.943-2.971,1.629c-1.164,0.876-2.239,1.859-3.259,2.899
				c-0.222,0.227-0.479,0.434-0.545,0.772l0.005-0.005c-0.95,0.642-1.55,1.623-2.333,2.426c-0.688,0.703-1.363,1.419-2.044,2.128
				L55.93,125.144z M62.41,107.449c1.232,1.152,2.659,1.968,4.33,2.219c1.143,0.171,2.315,0.155,3.475,0.23
				c0.463,0.029,0.924,0.081,1.387,0.105c0.137,0.008,0.326-0.013,0.34-0.189c0.016-0.188-0.169-0.211-0.31-0.227
				c-0.175-0.02-0.351-0.009-0.523-0.025c-2.54-0.242-5.122-0.322-7.296-1.939l0.008,0.009c-2.306-1.696-4.456-3.569-6.457-5.617
				c-0.751-0.77-1.562-1.482-2.355-2.208c-0.101-0.094-0.227-0.336-0.408-0.08c-0.146,0.209-0.037,1.763,0.166,1.95
				c0.874,0.807,1.694,1.679,2.744,2.274l-0.005-0.005c0.209,0.342,0.472,0.618,0.885,0.707l-0.006-0.004
				c0.931,1.117,2.237,1.749,3.371,2.605c0.189,0.142,0.423,0.189,0.661,0.201L62.41,107.449z M74.968,109.6
				c0,0.008,0,0.015,0,0.021c-0.432,0-0.864-0.006-1.298,0.005c-0.113,0.004-0.238,0.076-0.202,0.219
				c0.014,0.057,0.127,0.115,0.2,0.125c0.834,0.12,1.672,0.068,2.509,0.048c0.139-0.004,0.302-0.048,0.272-0.247
				c-0.021-0.139-0.157-0.165-0.269-0.167C75.777,109.594,75.371,109.6,74.968,109.6z"/>
			<path fill-rule="evenodd" clip-rule="evenodd" d="M10.95,113.846c0,3.614-0.003,7.229,0.003,10.844
				c0.001,0.464,0.02,0.933,0.083,1.392c0.076,0.565-0.133,0.585-0.588,0.419c-1.344-0.488-2.243-1.427-2.831-2.696
				c-0.624-1.345-0.893-2.782-0.908-4.242c-0.041-3.731-0.043-7.464,0.001-11.192c0.018-1.49,0.297-2.954,0.927-4.331
				c0.491-1.074,1.262-1.878,2.309-2.413c0.971-0.497,1.008-0.471,1.008,0.59c0.001,3.615,0,7.229,0,10.843c0,0.263,0,0.526,0,0.788
				C10.953,113.846,10.951,113.846,10.95,113.846z"/>
			<path fill-rule="evenodd" clip-rule="evenodd" d="M7.95,101.49c-0.714,0.916-0.786,2.036-0.999,3.111
				c-0.028,0.143-0.02,0.291-0.043,0.435c-0.019,0.108-0.062,0.212-0.094,0.317c-0.165-0.08-0.118-0.238-0.122-0.366
				c-0.069-2.02,0.042-4.019,0.814-5.918c0.512-1.259,1.352-2.231,2.626-2.774c0.788-0.336,0.858-0.276,0.83,0.602
				c-0.006,0.175-0.031,0.354-0.003,0.523c0.165,1.05-0.138,1.761-1.246,2.112c-0.567,0.181-1.036,0.64-1.244,1.265l0.006-0.006
				c-0.292,0.15-0.453,0.396-0.532,0.705L7.95,101.49z"/>
			<path fill-rule="evenodd" clip-rule="evenodd" d="M7.943,101.496c0.059,0.118,0.116,0.235,0.174,0.353l0.005-0.005
				c-0.057-0.117-0.115-0.235-0.172-0.354L7.943,101.496z"/>
			<path fill-rule="evenodd" clip-rule="evenodd" d="M8.469,100.797c0.019,0.037,0.039,0.074,0.058,0.111
				c-0.017-0.039-0.035-0.078-0.052-0.117L8.469,100.797z"/>
			<path fill-rule="evenodd" clip-rule="evenodd" d="M72.396,108.326l-0.003,0.002L72.396,108.326z"/>
			<path fill-rule="evenodd" clip-rule="evenodd" d="M8.117,101.849l0.005-0.005L8.117,101.849z"/>
			<path fill-rule="evenodd" clip-rule="evenodd" d="M7.594,103.077l0.006-0.006L7.594,103.077z"/>
			<path fill-rule="evenodd" clip-rule="evenodd" d="M7.6,103.071l-0.006,0.006L7.6,103.071z"/>
			<path fill-rule="evenodd" clip-rule="evenodd" d="M58.208,99.749l0.005-0.005L58.208,99.749z"/>
			<path fill-rule="evenodd" clip-rule="evenodd" d="M58.213,99.744l-0.005,0.005L58.213,99.744z"/>
			<path fill-rule="evenodd" clip-rule="evenodd" d="M60.308,120.588l0.005-0.005L60.308,120.588z"/>
			<path fill-rule="evenodd" clip-rule="evenodd" d="M55.937,125.137l-0.006,0.007L55.937,125.137z"/>
			<path fill-rule="evenodd" clip-rule="evenodd" d="M55.406,126.194l0.005-0.006L55.406,126.194z"/>
			<path fill-rule="evenodd" clip-rule="evenodd" d="M55.411,126.188l-0.005,0.006L55.411,126.188z"/>
			<path fill-rule="evenodd" clip-rule="evenodd" d="M54.002,127.243l0.006-0.005L54.002,127.243z"/>
			<path fill-rule="evenodd" clip-rule="evenodd" d="M57.51,103.951c0.036-0.021,0.073-0.04,0.109-0.059
				c-0.039,0.018-0.077,0.034-0.115,0.054L57.51,103.951z"/>
			<path fill-rule="evenodd" clip-rule="evenodd" d="M63.812,107.623c-0.036,0.02-0.072,0.039-0.107,0.06
				c0.015-0.013,0.028-0.027,0.045-0.034c0.021-0.009,0.047-0.012,0.07-0.017L63.812,107.623z"/>
			<path fill-rule="evenodd" clip-rule="evenodd" d="M62.415,107.456l-0.005-0.007L62.415,107.456z"/>
			<path fill-rule="evenodd" clip-rule="evenodd" d="M58.39,104.653c0-0.06-0.001-0.12-0.001-0.181l-0.005,0.005
				c0,0.057,0,0.114,0,0.172L58.39,104.653z"/>
			<path fill-rule="evenodd" clip-rule="evenodd" d="M58.389,104.473c-0.059-0.059-0.117-0.117-0.175-0.175l-0.005,0.005
				c0.059,0.059,0.117,0.116,0.176,0.175L58.389,104.473z"/>
			<path fill-rule="evenodd" clip-rule="evenodd" d="M58.213,104.298l-0.005,0.005L58.213,104.298z"/>
			<path fill-rule="evenodd" clip-rule="evenodd" d="M54.88,100.101l0.006-0.007L54.88,100.101z"/>
			<path fill-rule="evenodd" clip-rule="evenodd" d="M54.886,100.094l-0.006,0.007L54.886,100.094z"/>
		</g>
	</g>
	<g id="cIj45y.tif_6_">
		<g>
			<path fill-rule="evenodd" clip-rule="evenodd" d="M94.645,122.41c-4.493,0-8.988-0.002-13.481,0.001
				c-0.94,0.001-1.971,0.114-2.469-0.905c-0.548-1.122-0.54-2.339,0.021-3.46c0.248-0.496,0.358-0.962,0.358-1.493
				c-0.008-3.765-0.007-7.529-0.009-11.294c0-0.976-0.002-0.969,0.93-0.877c0.377,0.037,0.758,0.029,1.137,0.049
				c0.922,0.05,0.937,0.062,0.938,1.048c0.002,3.21,0,6.421,0,9.632c0,0.291,0,0.583,0,0.875c0.006,1.176,0.018,1.187,1.158,1.186
				c1.054-0.001,1.093-0.031,1.095-1.068c0.004-3.531,0-7.062-0.002-10.594c0-1-0.002-1.038,1-1.084
				c1.165-0.052,2.333-0.031,3.5-0.031c3.619,0,7.238,0.008,10.854,0.008c2.651,0,5.305,0.012,7.958-0.021
				c0.772-0.01,1.563,0.279,2.327-0.121c0.216-0.113,0.313,0.061,0.321,0.263c0.011,0.263,0.013,0.524,0.013,0.788
				c0.002,3.822,0.004,7.646,0,11.47c0,0.445,0.097,0.837,0.288,1.252c0.511,1.11,0.482,2.267,0.047,3.404
				c-0.19,0.5-0.58,0.806-1.106,0.89c-0.372,0.059-0.753,0.08-1.131,0.08C103.809,122.412,99.228,122.41,94.645,122.41z"/>
			<path fill-rule="evenodd" clip-rule="evenodd" d="M94.621,103.341c-4.698,0-9.398,0-14.099,0
				c-1.421,0.001-2.099-0.622-2.154-2.05c-0.033-0.9-0.093-1.816,0.523-2.601c0.252-0.323,0.173-0.728,0.173-1.103
				c0.004-3.561,0-7.122,0.002-10.683c0.001-0.928,0.004-0.913,0.938-0.81c0.433,0.048,0.879,0.06,1.31,0.014
				c0.604-0.065,0.771,0.209,0.764,0.753c-0.019,1.227-0.008,2.452-0.008,3.677c0.002,2.219-0.006,4.438,0.021,6.656
				c0.004,0.339-0.167,0.87,0.332,0.97c0.559,0.111,1.177,0.183,1.713-0.089c0.29-0.146,0.179-0.529,0.179-0.812
				c0.008-3.211,0.008-6.421,0.01-9.633c0-0.175-0.004-0.35,0-0.524c0.015-0.937,0.048-0.977,1.006-0.977
				c7.473-0.002,14.945,0,22.418-0.003c0.668,0,1.343,0.065,1.995-0.161c0.38-0.134,0.546,0.027,0.546,0.412
				c-0.002,0.525,0.005,1.051,0.005,1.577c0,3.239,0.002,6.479-0.002,9.719c-0.003,0.473,0.058,0.909,0.286,1.347
				c0.528,1.016,0.482,2.091,0.146,3.151c-0.26,0.821-0.82,1.16-1.83,1.161c-4.756,0.004-9.516,0.002-14.273,0.002
				C94.621,103.338,94.621,103.34,94.621,103.341z"/>
			<path fill-rule="evenodd" clip-rule="evenodd" d="M108.515,78.458c0.668,0.677,1.211,1.49,2.099,1.928l-0.004-0.006
				c0.199,0.968,0.493,1.918,0.251,2.934c-0.288,1.206-0.771,1.644-1.991,1.644c-9.454,0.004-18.91,0.004-28.366,0.002
				c-1.45-0.002-2.071-0.604-2.132-2.056c-0.019-0.436-0.027-0.877,0.012-1.312c0.054-0.598,0.244-1.192,0.789-1.491
				c0.686-0.377,1.172-0.951,1.723-1.468c1.657-1.556,3.329-3.101,4.979-4.666c1.738-1.65,3.385-3.376,4.485-5.553
				c0.282-0.561,0.401-1.15,0.57-1.736c0.384-1.318,0.584-2.676,0.86-4.018c0.05-0.236,0.062-0.464-0.091-0.67l0.002,0.004
				c-0.704-1.338-0.555-2.769-0.439-4.191c0.042-0.526,0.376-0.836,0.904-0.915c1.709-0.257,3.42-0.263,5.129,0.02
				c0.527,0.087,0.877,0.407,0.86,0.941c-0.047,1.403,0.368,2.866-0.492,4.175c-0.159,0.243-0.07,0.507-0.022,0.766
				c0.286,1.517,0.593,3.029,1.018,4.514c0.32,1.112,0.944,2.065,1.63,2.974c0.877,1.163,1.858,2.239,2.899,3.259
				c0.227,0.222,0.434,0.479,0.773,0.545l-0.006-0.004c0.642,0.949,1.623,1.549,2.427,2.333c0.703,0.687,1.419,1.361,2.128,2.043
				L108.515,78.458z M90.821,71.979c1.15-1.233,1.968-2.661,2.218-4.332c0.171-1.144,0.155-2.315,0.229-3.474
				c0.03-0.463,0.084-0.924,0.107-1.387c0.008-0.136-0.012-0.325-0.188-0.34c-0.188-0.016-0.211,0.169-0.227,0.311
				c-0.022,0.173-0.01,0.349-0.026,0.522c-0.242,2.539-0.323,5.123-1.939,7.297l0.008-0.008c-1.695,2.305-3.569,4.455-5.616,6.457
				c-0.769,0.751-1.482,1.561-2.208,2.354c-0.093,0.102-0.338,0.228-0.079,0.409c0.208,0.146,1.763,0.036,1.949-0.166
				c0.808-0.873,1.68-1.693,2.273-2.744l-0.006,0.005c0.344-0.209,0.62-0.472,0.71-0.884l-0.004,0.006
				c1.116-0.932,1.748-2.238,2.604-3.371c0.143-0.189,0.19-0.423,0.202-0.66L90.821,71.979z M92.97,59.419c0.008,0,0.016,0,0.021,0
				c0,0.433-0.006,0.866,0.007,1.298c0.004,0.113,0.075,0.238,0.218,0.203c0.056-0.014,0.113-0.126,0.126-0.201
				c0.119-0.833,0.067-1.671,0.047-2.507c-0.004-0.139-0.049-0.303-0.246-0.274c-0.139,0.021-0.167,0.158-0.169,0.269
				C92.966,58.612,92.97,59.016,92.97,59.419z"/>
			<path fill-rule="evenodd" clip-rule="evenodd" d="M97.217,123.439c3.615,0,7.23,0.003,10.843-0.004
				c0.465-0.002,0.935-0.021,1.394-0.083c0.564-0.076,0.584,0.133,0.417,0.588c-0.487,1.344-1.425,2.242-2.694,2.831
				c-1.346,0.623-2.783,0.893-4.243,0.907c-3.73,0.042-7.463,0.044-11.193-0.001c-1.488-0.018-2.953-0.297-4.33-0.927
				c-1.073-0.49-1.878-1.262-2.413-2.308c-0.496-0.972-0.471-1.008,0.591-1.01c3.614,0,7.228,0,10.843,0c0.263,0,0.524,0,0.787,0
				C97.217,123.436,97.217,123.438,97.217,123.439z"/>
			<path fill-rule="evenodd" clip-rule="evenodd" d="M84.861,126.438c0.916,0.715,2.037,0.786,3.112,0.999
				c0.141,0.029,0.29,0.02,0.433,0.044c0.109,0.018,0.213,0.062,0.318,0.094c-0.079,0.164-0.238,0.118-0.365,0.123
				c-2.02,0.069-4.019-0.043-5.919-0.815c-1.258-0.512-2.231-1.352-2.774-2.625c-0.336-0.789-0.275-0.858,0.602-0.831
				c0.175,0.006,0.353,0.031,0.523,0.004c1.05-0.166,1.761,0.138,2.112,1.246c0.18,0.566,0.641,1.036,1.265,1.244l-0.006-0.006
				c0.15,0.29,0.397,0.452,0.705,0.532L84.861,126.438z"/>
			<path fill-rule="evenodd" clip-rule="evenodd" d="M84.867,126.446c0.117-0.059,0.234-0.116,0.352-0.175l-0.004-0.006
				c-0.117,0.058-0.234,0.115-0.354,0.172L84.867,126.446z"/>
			<path fill-rule="evenodd" clip-rule="evenodd" d="M84.168,125.92c0.035-0.02,0.073-0.039,0.111-0.059
				c-0.04,0.018-0.078,0.035-0.117,0.053L84.168,125.92z"/>
			<path fill-rule="evenodd" clip-rule="evenodd" d="M91.698,61.99l0.002,0.004L91.698,61.99z"/>
			<path fill-rule="evenodd" clip-rule="evenodd" d="M85.219,126.271l-0.004-0.006L85.219,126.271z"/>
			<path fill-rule="evenodd" clip-rule="evenodd" d="M86.447,126.795l-0.006-0.006L86.447,126.795z"/>
			<path fill-rule="evenodd" clip-rule="evenodd" d="M86.441,126.789l0.006,0.006L86.441,126.789z"/>
			<path fill-rule="evenodd" clip-rule="evenodd" d="M83.12,76.181l-0.006-0.006L83.12,76.181z"/>
			<path fill-rule="evenodd" clip-rule="evenodd" d="M83.114,76.175l0.006,0.006L83.114,76.175z"/>
			<path fill-rule="evenodd" clip-rule="evenodd" d="M103.96,74.08l-0.006-0.004L103.96,74.08z"/>
			<path fill-rule="evenodd" clip-rule="evenodd" d="M108.509,78.452l0.006,0.006L108.509,78.452z"/>
			<path fill-rule="evenodd" clip-rule="evenodd" d="M109.566,78.982l-0.006-0.005L109.566,78.982z"/>
			<path fill-rule="evenodd" clip-rule="evenodd" d="M109.561,78.978l0.006,0.005L109.561,78.978z"/>
			<path fill-rule="evenodd" clip-rule="evenodd" d="M110.613,80.386l-0.004-0.006L110.613,80.386z"/>
			<path fill-rule="evenodd" clip-rule="evenodd" d="M87.321,76.879c-0.02-0.036-0.039-0.072-0.058-0.109
				c0.017,0.039,0.034,0.077,0.052,0.114L87.321,76.879z"/>
			<path fill-rule="evenodd" clip-rule="evenodd" d="M90.994,70.576c0.02,0.036,0.04,0.071,0.06,0.108
				c-0.012-0.015-0.027-0.029-0.033-0.047c-0.011-0.021-0.013-0.046-0.019-0.069L90.994,70.576z"/>
			<path fill-rule="evenodd" clip-rule="evenodd" d="M90.827,71.975l-0.006,0.005L90.827,71.975z"/>
			<path fill-rule="evenodd" clip-rule="evenodd" d="M88.025,76c-0.062,0-0.121,0-0.181,0l0.004,0.006c0.058,0,0.113,0,0.173,0
				L88.025,76z"/>
			<path fill-rule="evenodd" clip-rule="evenodd" d="M87.845,76c-0.06,0.059-0.118,0.117-0.175,0.175l0.004,0.006
				c0.06-0.058,0.117-0.117,0.175-0.175L87.845,76z"/>
			<path fill-rule="evenodd" clip-rule="evenodd" d="M87.67,76.175l0.004,0.006L87.67,76.175z"/>
			<path fill-rule="evenodd" clip-rule="evenodd" d="M83.473,79.51l-0.009-0.008L83.473,79.51z"/>
			<path fill-rule="evenodd" clip-rule="evenodd" d="M83.464,79.502l0.009,0.008L83.464,79.502z"/>
		</g>
	</g>
	<g id="cIj45y.tif_7_">
		<g>
			<path fill-rule="evenodd" clip-rule="evenodd" d="M56.261,54.516c-1.837-4.102-3.672-8.204-5.512-12.305
				c-0.383-0.857-0.908-1.752-0.182-2.622c0.799-0.96,1.915-1.449,3.166-1.396c0.555,0.023,1.024-0.065,1.51-0.283
				c3.434-1.546,6.87-3.083,10.304-4.624c0.892-0.399,0.885-0.397,1.181,0.491c0.118,0.358,0.283,0.703,0.419,1.056
				c0.333,0.861,0.328,0.88-0.572,1.284c-2.928,1.314-5.859,2.625-8.789,3.937c-0.267,0.12-0.534,0.237-0.799,0.358
				c-1.07,0.484-1.078,0.5-0.609,1.541c0.431,0.962,0.476,0.986,1.423,0.565c3.224-1.442,6.446-2.888,9.668-4.332
				c0.912-0.409,0.946-0.428,1.397,0.468c0.522,1.043,0.981,2.117,1.459,3.182c1.479,3.301,2.951,6.609,4.428,9.91
				c1.083,2.421,2.157,4.847,3.27,7.254c0.325,0.702,0.385,1.543,1.062,2.074c0.191,0.151,0.071,0.312-0.107,0.401
				c-0.235,0.117-0.475,0.227-0.715,0.334c-3.488,1.564-6.977,3.129-10.468,4.687c-0.407,0.182-0.724,0.431-1.025,0.775
				c-0.805,0.918-1.872,1.367-3.086,1.435c-0.535,0.03-0.974-0.2-1.266-0.647c-0.205-0.316-0.38-0.654-0.534-0.998
				C60.004,62.881,58.133,58.699,56.261,54.516z"/>
			<path fill-rule="evenodd" clip-rule="evenodd" d="M73.654,46.703c-1.92-4.29-3.84-8.579-5.761-12.868
				c-0.581-1.298-0.29-2.171,0.991-2.804c0.807-0.398,1.62-0.827,2.586-0.588c0.398,0.1,0.736-0.139,1.077-0.292
				c3.252-1.45,6.5-2.909,9.75-4.363c0.849-0.378,0.837-0.37,1.122,0.524c0.136,0.415,0.307,0.827,0.525,1.202
				c0.304,0.525,0.123,0.79-0.378,1.005c-1.125,0.484-2.237,0.994-3.358,1.496c-2.023,0.909-4.053,1.807-6.065,2.739
				c-0.308,0.142-0.862,0.202-0.748,0.699c0.127,0.557,0.312,1.149,0.78,1.528c0.252,0.204,0.556-0.054,0.814-0.17
				c2.932-1.304,5.862-2.615,8.794-3.926c0.161-0.072,0.318-0.146,0.481-0.215c0.858-0.37,0.91-0.354,1.299,0.519
				c3.057,6.819,6.107,13.641,9.164,20.459c0.274,0.61,0.489,1.253,0.964,1.756c0.278,0.293,0.198,0.511-0.153,0.667
				c-0.48,0.214-0.957,0.433-1.438,0.649c-2.955,1.323-5.912,2.648-8.87,3.969c-0.433,0.192-0.809,0.425-1.112,0.811
				c-0.712,0.897-1.711,1.296-2.816,1.423c-0.856,0.099-1.393-0.274-1.809-1.195c-1.947-4.339-3.889-8.684-5.833-13.025
				C73.659,46.7,73.656,46.701,73.654,46.703z"/>
			<path fill-rule="evenodd" clip-rule="evenodd" d="M102.042,49.214c-0.344,0.887-0.864,1.715-0.9,2.704l0.002-0.008
				c-0.801,0.578-1.546,1.234-2.573,1.428c-1.219,0.231-1.814-0.031-2.313-1.145c-3.867-8.628-7.732-17.258-11.593-25.89
				c-0.592-1.324-0.298-2.135,1.002-2.784c0.392-0.195,0.791-0.385,1.204-0.526c0.566-0.195,1.187-0.264,1.684,0.109
				c0.624,0.473,1.346,0.683,2.043,0.975c2.097,0.877,4.189,1.771,6.292,2.636c2.218,0.913,4.466,1.711,6.902,1.824
				c0.628,0.029,1.214-0.104,1.816-0.188c1.361-0.189,2.683-0.561,4.021-0.856c0.234-0.053,0.449-0.133,0.572-0.358l-0.004,0.004
				c0.934-1.188,2.302-1.637,3.646-2.114c0.499-0.176,0.918,0.001,1.206,0.451c0.933,1.457,1.638,3.016,2.077,4.69
				c0.138,0.517-0.012,0.967-0.507,1.169c-1.302,0.531-2.464,1.508-4.013,1.258c-0.286-0.045-0.49,0.145-0.707,0.293
				c-1.268,0.879-2.522,1.777-3.704,2.773c-0.885,0.744-1.497,1.705-2.047,2.702c-0.704,1.274-1.284,2.611-1.789,3.978
				c-0.111,0.297-0.263,0.593-0.183,0.928l0.002-0.006c-0.604,0.973-0.751,2.115-1.137,3.167c-0.34,0.923-0.664,1.85-0.996,2.776
				L102.042,49.214z M100.725,30.417c1.598,0.547,3.233,0.708,4.861,0.254c1.112-0.311,2.178-0.805,3.265-1.21
				c0.436-0.161,0.877-0.301,1.308-0.469c0.127-0.049,0.294-0.144,0.234-0.311c-0.063-0.18-0.24-0.124-0.377-0.081
				c-0.167,0.053-0.322,0.134-0.487,0.191c-2.415,0.814-4.808,1.798-7.452,1.212l0.012,0.003c-2.799-0.606-5.525-1.437-8.188-2.489
				c-0.999-0.395-2.03-0.713-3.052-1.052c-0.13-0.044-0.344-0.214-0.406,0.094c-0.047,0.25,0.688,1.623,0.948,1.712
				c1.127,0.381,2.233,0.84,3.435,0.955l-0.008-0.002c0.331,0.227,0.686,0.371,1.099,0.284l-0.008-0.001
				c1.306,0.638,2.757,0.682,4.142,1c0.229,0.053,0.461,0.002,0.684-0.086L100.725,30.417z M113.068,27.247
				c0.002,0.006,0.006,0.012,0.008,0.019c-0.396,0.178-0.793,0.348-1.183,0.537c-0.104,0.048-0.187,0.166-0.096,0.28
				c0.036,0.047,0.161,0.054,0.234,0.034c0.81-0.232,1.553-0.621,2.308-0.981c0.125-0.061,0.256-0.168,0.149-0.337
				c-0.076-0.118-0.213-0.087-0.314-0.042C113.801,26.912,113.436,27.083,113.068,27.247z"/>
			<path fill-rule="evenodd" clip-rule="evenodd" d="M56.374,57.284c1.477,3.298,2.95,6.598,4.434,9.895
				c0.19,0.425,0.399,0.845,0.644,1.238c0.301,0.484,0.118,0.587-0.365,0.621c-1.426,0.104-2.63-0.385-3.685-1.304
				c-1.119-0.972-1.952-2.174-2.562-3.502c-1.563-3.387-3.09-6.793-4.574-10.215c-0.592-1.367-0.935-2.818-0.923-4.331
				c0.008-1.181,0.384-2.23,1.12-3.146c0.683-0.849,0.728-0.841,1.161,0.127c1.478,3.297,2.955,6.596,4.432,9.896
				c0.106,0.238,0.215,0.479,0.321,0.718C56.375,57.283,56.375,57.283,56.374,57.284z"/>
			<path fill-rule="evenodd" clip-rule="evenodd" d="M48.586,47.231c-0.277,1.129,0.115,2.181,0.359,3.25
				c0.033,0.14,0.103,0.273,0.139,0.414c0.027,0.106,0.029,0.218,0.042,0.328c-0.182-0.005-0.203-0.169-0.26-0.284
				c-0.888-1.813-1.603-3.685-1.675-5.734c-0.048-1.356,0.322-2.588,1.263-3.604c0.582-0.629,0.67-0.603,1.003,0.209
				c0.066,0.162,0.116,0.336,0.21,0.479c0.581,0.892,0.593,1.665-0.273,2.438c-0.444,0.397-0.685,1.007-0.619,1.663l0.003-0.008
				c-0.203,0.257-0.251,0.548-0.196,0.862L48.586,47.231z"/>
			<path fill-rule="evenodd" clip-rule="evenodd" d="M48.583,47.242c0.101,0.083,0.202,0.166,0.303,0.25l0.002-0.007
				c-0.1-0.083-0.201-0.167-0.302-0.253L48.583,47.242z"/>
			<path fill-rule="evenodd" clip-rule="evenodd" d="M48.776,46.388c0.033,0.025,0.065,0.052,0.098,0.078
				c-0.032-0.03-0.063-0.057-0.095-0.086L48.776,46.388z"/>
			<path fill-rule="evenodd" clip-rule="evenodd" d="M110.2,27.135l-0.004,0.004L110.2,27.135z"/>
			<path fill-rule="evenodd" clip-rule="evenodd" d="M48.886,47.491l0.002-0.007L48.886,47.491z"/>
			<path fill-rule="evenodd" clip-rule="evenodd" d="M48.91,48.827l0.002-0.007L48.91,48.827z"/>
			<path fill-rule="evenodd" clip-rule="evenodd" d="M48.912,48.819l-0.002,0.007L48.912,48.819z"/>
			<path fill-rule="evenodd" clip-rule="evenodd" d="M93.743,25.105l0.004-0.007L93.743,25.105z"/>
			<path fill-rule="evenodd" clip-rule="evenodd" d="M93.747,25.098l-0.004,0.007L93.747,25.098z"/>
			<path fill-rule="evenodd" clip-rule="evenodd" d="M104.177,43.268l0.002-0.006L104.177,43.268z"/>
			<path fill-rule="evenodd" clip-rule="evenodd" d="M102.046,49.205l-0.004,0.009L102.046,49.205z"/>
			<path fill-rule="evenodd" clip-rule="evenodd" d="M101.992,50.387l0.004-0.006L101.992,50.387z"/>
			<path fill-rule="evenodd" clip-rule="evenodd" d="M101.996,50.38l-0.004,0.006L101.996,50.38z"/>
			<path fill-rule="evenodd" clip-rule="evenodd" d="M101.142,51.918l0.002-0.008L101.142,51.918z"/>
			<path fill-rule="evenodd" clip-rule="evenodd" d="M94.824,29.226c0.023-0.032,0.05-0.065,0.075-0.099
				c-0.028,0.032-0.056,0.064-0.083,0.096L94.824,29.226z"/>
			<path fill-rule="evenodd" clip-rule="evenodd" d="M102.076,30.003c-0.022,0.032-0.048,0.064-0.074,0.097
				c0.01-0.017,0.017-0.037,0.028-0.05c0.018-0.017,0.04-0.029,0.058-0.043L102.076,30.003z"/>
			<path fill-rule="evenodd" clip-rule="evenodd" d="M100.732,30.42l-0.008-0.002L100.732,30.42z"/>
			<path fill-rule="evenodd" clip-rule="evenodd" d="M95.915,29.508c-0.026-0.055-0.052-0.109-0.075-0.164l-0.002,0.005
				c0.021,0.053,0.045,0.104,0.069,0.157L95.915,29.508z"/>
			<path fill-rule="evenodd" clip-rule="evenodd" d="M95.84,29.344c-0.078-0.031-0.155-0.061-0.23-0.089l-0.004,0.007
				c0.077,0.027,0.152,0.058,0.232,0.087L95.84,29.344z"/>
			<path fill-rule="evenodd" clip-rule="evenodd" d="M95.609,29.255l-0.004,0.007L95.609,29.255z"/>
			<path fill-rule="evenodd" clip-rule="evenodd" d="M90.85,26.786l0.004-0.009L90.85,26.786z"/>
			<path fill-rule="evenodd" clip-rule="evenodd" d="M90.854,26.777l-0.004,0.009L90.854,26.777z"/>
		</g>
	</g>
	<g id="cIj45y.tif_8_">
		<g>
			<path fill-rule="evenodd" clip-rule="evenodd" d="M14.453,9.75c4.022-2.005,8.046-4.008,12.067-6.014
				c0.84-0.418,1.713-0.98,2.613-0.291c0.993,0.76,1.527,1.854,1.524,3.106c0,0.556,0.107,1.021,0.346,1.497
				c1.686,3.367,3.364,6.737,5.045,10.105c0.435,0.874,0.434,0.867-0.442,1.2c-0.353,0.133-0.691,0.312-1.039,0.462
				c-0.847,0.368-0.865,0.364-1.307-0.519c-1.434-2.873-2.864-5.747-4.295-8.621c-0.132-0.261-0.259-0.523-0.391-0.783
				c-0.529-1.05-0.544-1.056-1.565-0.546c-0.943,0.471-0.965,0.517-0.506,1.446c1.572,3.161,3.15,6.321,4.727,9.48
				c0.446,0.895,0.466,0.929-0.41,1.415c-1.02,0.567-2.075,1.07-3.119,1.591c-3.237,1.613-6.481,3.22-9.719,4.833
				c-2.374,1.182-4.753,2.354-7.113,3.566c-0.688,0.354-1.526,0.448-2.028,1.146c-0.144,0.198-0.308,0.085-0.406-0.091
				c-0.126-0.23-0.246-0.465-0.363-0.7c-1.707-3.421-3.414-6.841-5.115-10.266c-0.198-0.399-0.459-0.706-0.816-0.993
				C1.189,20.01,0.698,18.962,0.58,17.75c-0.052-0.533,0.161-0.98,0.595-1.291c0.307-0.218,0.639-0.408,0.976-0.575
				C6.25,13.835,10.352,11.793,14.453,9.75z"/>
			<path fill-rule="evenodd" clip-rule="evenodd" d="M22.978,26.808c4.207-2.096,8.413-4.191,12.619-6.287
				c1.273-0.634,2.157-0.379,2.842,0.874c0.431,0.791,0.893,1.585,0.694,2.559c-0.084,0.403,0.169,0.73,0.336,1.064
				c1.583,3.189,3.175,6.375,4.762,9.562c0.413,0.832,0.405,0.82-0.478,1.143c-0.409,0.151-0.813,0.338-1.179,0.574
				c-0.512,0.326-0.784,0.156-1.02-0.335c-0.53-1.106-1.086-2.197-1.634-3.295c-0.991-1.983-1.972-3.974-2.987-5.947
				c-0.155-0.301-0.236-0.854-0.729-0.719c-0.55,0.15-1.134,0.36-1.494,0.842c-0.194,0.261,0.077,0.553,0.203,0.807
				c1.424,2.876,2.855,5.75,4.286,8.625c0.079,0.156,0.16,0.312,0.235,0.472c0.405,0.842,0.392,0.893-0.465,1.32
				c-6.686,3.335-13.377,6.665-20.063,10c-0.598,0.298-1.232,0.541-1.715,1.036c-0.282,0.289-0.502,0.219-0.672-0.126
				c-0.234-0.471-0.472-0.939-0.708-1.41c-1.445-2.899-2.89-5.799-4.332-8.7c-0.21-0.423-0.457-0.789-0.856-1.078
				c-0.926-0.673-1.365-1.655-1.538-2.754c-0.134-0.852,0.216-1.403,1.12-1.855c4.255-2.125,8.516-4.244,12.774-6.366
				C22.981,26.812,22.98,26.809,22.978,26.808z"/>
			<path fill-rule="evenodd" clip-rule="evenodd" d="M21.639,55.275c-0.9-0.308-1.749-0.794-2.739-0.79l0.008,0.003
				c-0.61-0.777-1.297-1.495-1.532-2.513c-0.281-1.208-0.044-1.815,1.047-2.36c8.461-4.22,16.925-8.437,25.39-12.65
				c1.298-0.646,2.121-0.384,2.823,0.888c0.212,0.383,0.417,0.773,0.575,1.18c0.219,0.559,0.314,1.176-0.04,1.687
				c-0.446,0.644-0.626,1.373-0.889,2.083c-0.79,2.131-1.597,4.258-2.375,6.396c-0.82,2.252-1.525,4.531-1.537,6.97
				c-0.003,0.628,0.154,1.208,0.262,1.808c0.246,1.352,0.671,2.657,1.022,3.98c0.062,0.232,0.152,0.443,0.382,0.557l-0.005-0.002
				c1.226,0.885,1.73,2.231,2.263,3.557c0.196,0.49,0.037,0.917-0.4,1.223c-1.417,0.992-2.946,1.761-4.601,2.27
				c-0.511,0.157-0.967,0.027-1.189-0.459c-0.584-1.278-1.608-2.399-1.421-3.957c0.033-0.287-0.165-0.484-0.323-0.694
				c-0.932-1.231-1.88-2.448-2.924-3.588c-0.781-0.853-1.766-1.426-2.785-1.934c-1.303-0.651-2.662-1.175-4.047-1.623
				c-0.303-0.099-0.604-0.238-0.935-0.144l0.006,0.001c-0.997-0.563-2.144-0.663-3.211-1.005c-0.936-0.3-1.876-0.587-2.814-0.88
				L21.639,55.275z M40.365,53.183c-0.481,1.617-0.574,3.258-0.053,4.866c0.357,1.1,0.895,2.143,1.343,3.212
				c0.18,0.428,0.338,0.864,0.523,1.289c0.054,0.125,0.156,0.287,0.32,0.221c0.177-0.071,0.113-0.245,0.065-0.38
				c-0.06-0.164-0.147-0.316-0.211-0.479c-0.914-2.38-1.995-4.729-1.518-7.396l-0.004,0.01c0.49-2.819,1.208-5.58,2.149-8.284
				c0.354-1.015,0.629-2.058,0.926-3.092c0.038-0.132,0.199-0.354-0.111-0.401c-0.252-0.038-1.593,0.753-1.671,1.018
				c-0.334,1.142-0.747,2.266-0.812,3.47l0.002-0.007c-0.212,0.341-0.342,0.699-0.239,1.109l0.001-0.008
				c-0.583,1.331-0.568,2.781-0.828,4.179c-0.043,0.232,0.017,0.462,0.115,0.681L40.365,53.183z M44.042,65.384
				c-0.007,0.003-0.012,0.007-0.019,0.01c-0.194-0.387-0.38-0.777-0.585-1.16c-0.052-0.1-0.173-0.179-0.284-0.084
				c-0.046,0.038-0.047,0.164-0.025,0.235c0.266,0.8,0.685,1.527,1.076,2.267c0.066,0.123,0.179,0.249,0.343,0.135
				c0.115-0.079,0.078-0.216,0.03-0.315C44.408,66.104,44.221,65.746,44.042,65.384z"/>
			<path fill-rule="evenodd" clip-rule="evenodd" d="M11.692,9.977c-3.234,1.611-6.471,3.219-9.703,4.838
				c-0.416,0.207-0.828,0.433-1.211,0.693c-0.472,0.321-0.581,0.142-0.635-0.339c-0.163-1.421,0.275-2.644,1.15-3.736
				c0.924-1.158,2.091-2.04,3.393-2.704c3.32-1.701,6.66-3.368,10.018-4.991c1.341-0.648,2.777-1.05,4.289-1.101
				c1.18-0.041,2.245,0.292,3.19,0.99c0.876,0.646,0.871,0.691-0.08,1.165c-3.233,1.612-6.469,3.224-9.705,4.835
				c-0.234,0.117-0.47,0.234-0.705,0.351C11.693,9.979,11.693,9.978,11.692,9.977z"/>
			<path fill-rule="evenodd" clip-rule="evenodd" d="M21.415,1.782c-1.139-0.23-2.174,0.205-3.232,0.493
				c-0.139,0.039-0.269,0.114-0.407,0.156c-0.105,0.031-0.217,0.038-0.327,0.056c-0.002-0.183,0.161-0.21,0.273-0.272
				c1.776-0.962,3.615-1.754,5.661-1.91c1.353-0.104,2.599,0.215,3.653,1.113c0.652,0.556,0.629,0.645-0.168,1.011
				c-0.159,0.073-0.331,0.13-0.47,0.23c-0.867,0.617-1.639,0.661-2.446-0.172c-0.416-0.428-1.036-0.643-1.687-0.55l0.008,0.002
				c-0.265-0.192-0.558-0.228-0.869-0.16L21.415,1.782z"/>
			<path fill-rule="evenodd" clip-rule="evenodd" d="M21.405,1.778c-0.079,0.104-0.157,0.208-0.236,0.313l0.007,0.002
				c0.079-0.104,0.159-0.208,0.24-0.312L21.405,1.778z"/>
			<path fill-rule="evenodd" clip-rule="evenodd" d="M22.266,1.936c-0.023,0.034-0.049,0.068-0.074,0.102
				c0.029-0.033,0.055-0.066,0.082-0.099L22.266,1.936z"/>
			<path fill-rule="evenodd" clip-rule="evenodd" d="M44.036,62.514l-0.005-0.002L44.036,62.514z"/>
			<path fill-rule="evenodd" clip-rule="evenodd" d="M21.168,2.091l0.007,0.002L21.168,2.091z"/>
			<path fill-rule="evenodd" clip-rule="evenodd" d="M19.835,2.171l0.007,0.002L19.835,2.171z"/>
			<path fill-rule="evenodd" clip-rule="evenodd" d="M19.842,2.173l-0.007-0.002L19.842,2.173z"/>
			<path fill-rule="evenodd" clip-rule="evenodd" d="M45.385,45.988l0.007,0.003L45.385,45.988z"/>
			<path fill-rule="evenodd" clip-rule="evenodd" d="M45.393,45.992l-0.007-0.003L45.393,45.992z"/>
			<path fill-rule="evenodd" clip-rule="evenodd" d="M27.669,57.162l0.006,0.001L27.669,57.162z"/>
			<path fill-rule="evenodd" clip-rule="evenodd" d="M21.649,55.278l-0.01-0.003L21.649,55.278z"/>
			<path fill-rule="evenodd" clip-rule="evenodd" d="M20.465,55.273l0.006,0.002L20.465,55.273z"/>
			<path fill-rule="evenodd" clip-rule="evenodd" d="M20.472,55.275l-0.006-0.002L20.472,55.275z"/>
			<path fill-rule="evenodd" clip-rule="evenodd" d="M18.9,54.485l0.008,0.003L18.9,54.485z"/>
			<path fill-rule="evenodd" clip-rule="evenodd" d="M41.312,47.237c0.034,0.023,0.068,0.048,0.102,0.072
				c-0.033-0.026-0.066-0.053-0.1-0.08L41.312,47.237z"/>
			<path fill-rule="evenodd" clip-rule="evenodd" d="M40.836,54.517c-0.033-0.022-0.066-0.047-0.101-0.069
				c0.017,0.007,0.037,0.013,0.051,0.025c0.018,0.015,0.03,0.037,0.046,0.054L40.836,54.517z"/>
			<path fill-rule="evenodd" clip-rule="evenodd" d="M40.363,53.191l0.002-0.008L40.363,53.191z"/>
			<path fill-rule="evenodd" clip-rule="evenodd" d="M41.076,48.339c0.054-0.027,0.107-0.055,0.161-0.083l-0.006-0.002
				c-0.052,0.025-0.102,0.05-0.154,0.077L41.076,48.339z"/>
			<path fill-rule="evenodd" clip-rule="evenodd" d="M41.236,48.257c0.027-0.078,0.054-0.157,0.08-0.235l-0.008-0.002
				c-0.024,0.078-0.051,0.156-0.078,0.235L41.236,48.257z"/>
			<path fill-rule="evenodd" clip-rule="evenodd" d="M41.316,48.022l-0.008-0.002L41.316,48.022z"/>
			<path fill-rule="evenodd" clip-rule="evenodd" d="M43.586,43.167l0.009,0.002L43.586,43.167z"/>
			<path fill-rule="evenodd" clip-rule="evenodd" d="M43.596,43.169l-0.009-0.002L43.596,43.169z"/>
		</g>
	</g>
	<path fill-rule="evenodd" clip-rule="evenodd" d="M76.112,70.077c-0.1,0.265-0.071,0.564-0.311,0.795
		c-0.103,0.101,0.057,0.272,0.145,0.4c2.309,3.334,2.846,6.865,1.802,10.588c-0.363,1.3-0.637,2.621-0.963,3.929
		c-0.387,1.545-0.701,3.103-0.915,4.679c-0.268,1.995-0.386,4.008-0.575,6.012c-0.192,2.027-0.591,4.02-1.255,5.956
		c-0.326,0.949-0.688,1.878-1.244,2.731c-0.133,0.206-0.298,0.386-0.468,0.565c-0.412,0.436-0.921,0.561-1.527,0.38
		c-1.425-0.427-2.896-0.617-4.36-0.85c-0.34-0.055-0.682-0.091-1.027-0.101c-1.187-0.035-1.679-0.429-1.96-1.494
		c-0.28-1.063-0.327-2.137-0.296-3.21c0.046-1.537,0.201-3.062,0.498-4.571c0.288-1.469,0.751-2.896,1.073-4.356
		c0.477-2.161,1.146-4.286,1.204-6.526c0.02-0.795,0.205-1.573,0.287-2.364c0.174-1.672,0.143-3.373,0.563-5.009
		c0.68-2.646,2.059-4.913,4.329-6.673c0.183-0.142,0.362-0.286,0.546-0.426c0.096-0.071,0.23-0.168,0.192-0.261
		c-0.176-0.425,0.167-0.803,0.021-1.248c-0.199-0.603,0.044-1.209,0.179-1.801c0.052-0.223,0.254-0.325,0.493-0.339
		c0.222-0.014,0.448-0.029,0.667,0.006c0.863,0.134,1.727,0.267,2.582,0.44c0.791,0.16,0.944,0.394,0.843,1.105
		c-0.071,0.495-0.161,0.986-0.371,1.447l0.005-0.004c-0.054,0.067-0.107,0.134-0.16,0.2L76.112,70.077z M72.029,71.526
		c-0.368,0.019-0.551,0.288-0.757,0.493c-1.843,1.847-3.01,4.02-3.492,6.506c-0.044,0.229-0.292,0.622,0.173,0.695
		c0.445,0.068,0.344-0.372,0.389-0.61c0.354-1.892,1.044-3.648,2.198-5.242c0.464-0.64,1.044-1.194,1.487-1.844
		c0.039-0.036,0.171-0.015,0.095-0.126C72.092,71.441,72.061,71.484,72.029,71.526z M68.09,81.645
		c0.006-0.162,0.025-0.309,0.012-0.455c-0.014-0.163-0.156-0.223-0.306-0.207c-0.242,0.023-0.244,0.223-0.255,0.38
		c-0.013,0.229-0.115,0.488,0.133,0.67c0.102,0.074,0.245,0.019,0.307-0.088C68.036,81.85,68.057,81.737,68.09,81.645z
		 M73.098,68.127c-0.055-0.25,0.237-0.634-0.067-0.688c-0.29-0.051-0.216,0.396-0.264,0.628c-0.046,0.215-0.205,0.609,0.019,0.638
		C73.16,68.752,72.943,68.309,73.098,68.127z"/>
	<path fill-rule="evenodd" clip-rule="evenodd" d="M45.629,16.339c0.277-0.057,0.515-0.239,0.839-0.159
		c0.139,0.035,0.201-0.191,0.263-0.335c1.602-3.725,4.312-6.052,8.021-7.141c1.294-0.38,2.56-0.849,3.842-1.266
		c1.515-0.491,3.002-1.051,4.451-1.706c1.835-0.83,3.603-1.796,5.401-2.699c1.82-0.911,3.723-1.631,5.716-2.094
		c0.978-0.226,1.957-0.412,2.976-0.394c0.245,0.004,0.485,0.047,0.727,0.098c0.589,0.119,0.965,0.483,1.131,1.093
		c0.396,1.434,1.014,2.782,1.593,4.146c0.135,0.318,0.286,0.626,0.461,0.926c0.6,1.024,0.526,1.651-0.229,2.455
		c-0.754,0.801-1.638,1.409-2.563,1.953c-1.328,0.775-2.704,1.452-4.141,2.001c-1.398,0.535-2.854,0.899-4.264,1.4
		c-2.086,0.742-4.243,1.299-6.17,2.439c-0.686,0.403-1.443,0.661-2.158,1.01c-1.509,0.738-2.935,1.667-4.545,2.178
		c-2.604,0.826-5.257,0.86-7.953-0.133c-0.217-0.079-0.436-0.154-0.65-0.237c-0.111-0.042-0.265-0.106-0.323-0.024
		c-0.267,0.375-0.77,0.283-1.07,0.644c-0.404,0.487-1.046,0.604-1.621,0.803c-0.215,0.075-0.411-0.042-0.549-0.237
		c-0.13-0.181-0.262-0.366-0.349-0.568c-0.343-0.804-0.689-1.606-0.997-2.424c-0.282-0.755-0.166-1.008,0.492-1.3
		c0.458-0.202,0.92-0.387,1.422-0.453l-0.004-0.003c0.085,0.01,0.17,0.02,0.255,0.03L45.629,16.339z M49.023,19.032
		c0.209,0.303,0.535,0.316,0.818,0.38c2.543,0.584,5.004,0.421,7.368-0.488c0.218-0.084,0.683-0.082,0.497-0.515
		c-0.178-0.414-0.497-0.094-0.723-0.006c-1.791,0.703-3.646,1.048-5.61,0.915c-0.788-0.053-1.565-0.251-2.352-0.283
		c-0.052-0.015-0.102-0.137-0.158-0.015C48.918,19.025,48.97,19.028,49.023,19.032z M59.69,17.008
		c-0.14,0.081-0.275,0.142-0.393,0.231c-0.13,0.098-0.105,0.25-0.012,0.37c0.148,0.192,0.317,0.089,0.456,0.014
		c0.202-0.11,0.476-0.16,0.499-0.468c0.01-0.125-0.114-0.217-0.238-0.213C59.893,16.945,59.787,16.986,59.69,17.008z M45.574,19.928
		c-0.182,0.181-0.664,0.136-0.547,0.423c0.11,0.273,0.449-0.028,0.671-0.109c0.207-0.075,0.627-0.149,0.533-0.354
		C46.071,19.545,45.81,19.964,45.574,19.928z"/>
	<path fill-rule="evenodd" clip-rule="evenodd" d="M82.162,18.512c-0.273,0.068-0.504,0.262-0.83,0.196
		c-0.142-0.027-0.193,0.2-0.249,0.346c-1.435,3.793-4.037,6.239-7.694,7.494c-1.276,0.437-2.52,0.962-3.782,1.435
		c-1.491,0.56-2.951,1.185-4.37,1.904c-1.796,0.911-3.519,1.956-5.276,2.938c-1.778,0.992-3.645,1.794-5.616,2.347
		c-0.967,0.27-1.937,0.5-2.956,0.526c-0.245,0.007-0.486-0.027-0.731-0.064c-0.593-0.094-0.984-0.441-1.179-1.043
		c-0.458-1.415-1.136-2.733-1.774-4.071c-0.148-0.312-0.313-0.613-0.501-0.904c-0.645-0.996-0.6-1.626,0.118-2.462
		c0.716-0.834,1.574-1.481,2.476-2.065c1.291-0.834,2.635-1.572,4.045-2.185c1.373-0.597,2.812-1.025,4.197-1.589
		c2.049-0.834,4.18-1.489,6.055-2.713c0.666-0.434,1.413-0.724,2.111-1.105c1.475-0.805,2.857-1.796,4.442-2.379
		c2.564-0.941,5.214-1.093,7.953-0.223c0.218,0.07,0.44,0.136,0.659,0.208c0.112,0.037,0.269,0.094,0.324,0.01
		c0.249-0.386,0.755-0.316,1.039-0.691c0.384-0.506,1.02-0.65,1.584-0.875c0.213-0.084,0.413,0.025,0.561,0.213
		c0.135,0.175,0.276,0.354,0.374,0.553c0.377,0.787,0.759,1.573,1.101,2.376c0.318,0.741,0.213,1-0.434,1.321
		c-0.446,0.222-0.899,0.427-1.398,0.516l0.004,0.002c-0.086-0.006-0.171-0.012-0.257-0.018L82.162,18.512z M78.65,15.974
		c-0.223-0.292-0.55-0.291-0.836-0.344c-2.566-0.47-5.017-0.197-7.338,0.818c-0.215,0.093-0.679,0.111-0.473,0.536
		c0.194,0.404,0.5,0.072,0.723-0.026c1.758-0.782,3.595-1.21,5.562-1.166c0.79,0.019,1.574,0.182,2.362,0.178
		c0.053,0.013,0.108,0.132,0.158,0.008C78.756,15.977,78.703,15.975,78.65,15.974z M68.084,18.472
		c0.137-0.086,0.269-0.154,0.383-0.248c0.126-0.105,0.094-0.255-0.004-0.371c-0.156-0.186-0.321-0.075-0.456,0.007
		c-0.197,0.119-0.469,0.182-0.478,0.488c-0.005,0.127,0.123,0.212,0.246,0.204C67.885,18.544,67.988,18.498,68.084,18.472z
		 M82.057,14.925c0.174-0.189,0.656-0.166,0.529-0.447c-0.123-0.268-0.449,0.047-0.666,0.139c-0.205,0.084-0.62,0.177-0.517,0.377
		C81.576,15.33,81.818,14.898,82.057,14.925z"/>
	<path fill-rule="evenodd" clip-rule="evenodd" d="M17.472,57.001c-0.045,0.28,0.041,0.567-0.15,0.841
		c-0.082,0.118,0.107,0.256,0.219,0.364c2.909,2.826,4.117,6.187,3.812,10.042c-0.106,1.345-0.12,2.693-0.188,4.041
		c-0.081,1.59-0.088,3.179,0.007,4.766c0.121,2.011,0.395,4.008,0.596,6.01c0.202,2.026,0.196,4.059-0.083,6.088
		c-0.137,0.993-0.312,1.976-0.692,2.919c-0.092,0.229-0.218,0.437-0.35,0.646c-0.321,0.507-0.796,0.727-1.425,0.666
		c-1.48-0.143-2.961-0.045-4.442,0.009c-0.345,0.012-0.686,0.042-1.028,0.1c-1.171,0.195-1.73-0.097-2.211-1.088
		c-0.481-0.988-0.733-2.032-0.91-3.091c-0.252-1.518-0.395-3.044-0.395-4.581c-0.001-1.499,0.178-2.988,0.212-4.483
		c0.051-2.212,0.298-4.427-0.079-6.635c-0.133-0.784-0.103-1.584-0.174-2.376c-0.152-1.674-0.511-3.337-0.414-5.022
		c0.157-2.729,1.071-5.22,2.959-7.385c0.152-0.173,0.3-0.351,0.454-0.523c0.08-0.088,0.194-0.208,0.138-0.293
		c-0.254-0.382,0.01-0.819-0.221-1.229c-0.311-0.552-0.19-1.194-0.172-1.801c0.007-0.228,0.188-0.368,0.419-0.428
		c0.214-0.056,0.434-0.114,0.655-0.124c0.873-0.034,1.747-0.07,2.619-0.065c0.807,0.004,1.002,0.204,1.04,0.923
		c0.026,0.499,0.033,0.998-0.083,1.49l0.004-0.004c-0.04,0.077-0.079,0.152-0.12,0.228L17.472,57.001z M13.746,59.212
		c-0.357,0.089-0.485,0.389-0.647,0.63c-1.452,2.168-2.177,4.525-2.17,7.059c0,0.233-0.168,0.667,0.303,0.648
		c0.449-0.02,0.264-0.432,0.263-0.674c-0.018-1.924,0.321-3.781,1.146-5.568c0.331-0.717,0.793-1.373,1.104-2.097
		c0.032-0.043,0.165-0.047,0.069-0.142C13.791,59.117,13.768,59.164,13.746,59.212z M11.833,69.9
		c-0.025-0.159-0.034-0.308-0.075-0.449c-0.046-0.157-0.197-0.188-0.342-0.144c-0.232,0.07-0.196,0.265-0.175,0.422
		c0.031,0.228-0.02,0.501,0.259,0.632c0.114,0.054,0.243-0.028,0.284-0.146C11.821,70.112,11.82,69.998,11.833,69.9z M14.139,55.669
		c-0.104-0.234,0.109-0.667-0.2-0.662c-0.294,0.006-0.134,0.431-0.137,0.666c-0.003,0.221-0.084,0.639,0.141,0.624
		C14.319,56.271,14.021,55.877,14.139,55.669z"/>
	<path fill-rule="evenodd" clip-rule="evenodd" d="M115.083,37.806c-0.098,0.265-0.069,0.564-0.308,0.796
		c-0.104,0.1,0.056,0.271,0.143,0.4c2.31,3.334,2.846,6.865,1.803,10.588c-0.363,1.298-0.638,2.62-0.964,3.929
		c-0.388,1.544-0.699,3.102-0.914,4.678c-0.269,1.996-0.386,4.008-0.574,6.012c-0.195,2.026-0.593,4.021-1.256,5.957
		c-0.326,0.948-0.688,1.878-1.244,2.731c-0.134,0.206-0.299,0.386-0.468,0.565c-0.413,0.436-0.922,0.561-1.528,0.38
		c-1.425-0.427-2.896-0.617-4.36-0.85c-0.34-0.055-0.682-0.091-1.027-0.101c-1.186-0.035-1.679-0.43-1.959-1.495
		c-0.282-1.062-0.328-2.136-0.296-3.209c0.045-1.537,0.2-3.062,0.496-4.572c0.288-1.469,0.752-2.896,1.073-4.357
		c0.478-2.162,1.146-4.286,1.205-6.525c0.02-0.796,0.204-1.574,0.286-2.366c0.175-1.671,0.143-3.372,0.563-5.008
		c0.68-2.646,2.06-4.914,4.329-6.674c0.183-0.141,0.361-0.286,0.546-0.425c0.096-0.071,0.231-0.167,0.193-0.261
		c-0.177-0.424,0.167-0.803,0.02-1.248c-0.198-0.603,0.044-1.208,0.18-1.801c0.051-0.222,0.254-0.325,0.492-0.339
		c0.223-0.014,0.449-0.028,0.668,0.005c0.862,0.135,1.727,0.268,2.582,0.441c0.79,0.159,0.943,0.394,0.842,1.106
		c-0.071,0.495-0.16,0.986-0.369,1.446l0.004-0.003c-0.054,0.067-0.107,0.133-0.161,0.201L115.083,37.806z M111.001,39.255
		c-0.367,0.018-0.551,0.288-0.757,0.493c-1.843,1.846-3.009,4.02-3.492,6.506c-0.044,0.229-0.292,0.622,0.173,0.694
		c0.445,0.068,0.344-0.372,0.388-0.61c0.354-1.891,1.045-3.647,2.2-5.242c0.463-0.64,1.043-1.194,1.486-1.844
		c0.04-0.036,0.171-0.014,0.096-0.126C111.062,39.17,111.033,39.212,111.001,39.255z M107.062,49.374
		c0.006-0.162,0.025-0.309,0.012-0.456c-0.014-0.163-0.157-0.222-0.307-0.207c-0.242,0.023-0.244,0.222-0.254,0.38
		c-0.012,0.229-0.115,0.488,0.133,0.67c0.102,0.075,0.245,0.019,0.307-0.088C107.009,49.578,107.028,49.466,107.062,49.374z
		 M112.07,35.855c-0.056-0.25,0.236-0.634-0.067-0.688c-0.29-0.051-0.217,0.396-0.265,0.627c-0.046,0.216-0.205,0.61,0.018,0.639
		C112.132,36.481,111.915,36.037,112.07,35.855z"/>
	<path fill-rule="evenodd" clip-rule="evenodd" d="M117.309,89.967c0.01,0.282,0.151,0.547,0.021,0.853
		c-0.058,0.131,0.155,0.229,0.286,0.314c3.414,2.188,5.269,5.24,5.737,9.08c0.163,1.339,0.419,2.665,0.62,3.997
		c0.238,1.575,0.547,3.133,0.958,4.67c0.517,1.945,1.185,3.848,1.78,5.77c0.603,1.945,1,3.938,1.131,5.981
		c0.065,1.002,0.09,1.997-0.096,2.999c-0.045,0.242-0.127,0.471-0.214,0.703c-0.215,0.56-0.636,0.871-1.265,0.937
		c-1.479,0.155-2.911,0.546-4.35,0.893c-0.336,0.082-0.666,0.181-0.99,0.304c-1.106,0.426-1.715,0.25-2.383-0.624
		s-1.123-1.848-1.508-2.85c-0.549-1.436-0.992-2.904-1.298-4.41c-0.301-1.468-0.422-2.964-0.686-4.436
		c-0.392-2.179-0.591-4.398-1.401-6.486c-0.286-0.742-0.416-1.532-0.645-2.294c-0.482-1.609-1.164-3.168-1.406-4.84
		c-0.39-2.702,0.012-5.327,1.431-7.826c0.113-0.198,0.223-0.403,0.34-0.602c0.06-0.103,0.149-0.243,0.075-0.314
		c-0.324-0.324-0.152-0.805-0.459-1.16c-0.415-0.479-0.425-1.131-0.528-1.731c-0.04-0.225,0.109-0.397,0.323-0.503
		c0.199-0.097,0.404-0.198,0.619-0.25c0.848-0.208,1.696-0.418,2.553-0.586c0.791-0.157,1.021-0.002,1.203,0.695
		c0.125,0.484,0.23,0.972,0.215,1.479l0.004-0.006c-0.024,0.083-0.048,0.165-0.072,0.248L117.309,89.967z M114.098,92.874
		c-0.332,0.158-0.397,0.478-0.509,0.748c-0.992,2.412-1.232,4.866-0.72,7.349c0.046,0.229-0.031,0.686,0.426,0.573
		c0.437-0.108,0.173-0.476,0.123-0.712c-0.401-1.882-0.439-3.769,0.014-5.685c0.181-0.769,0.505-1.503,0.664-2.274
		c0.021-0.049,0.15-0.078,0.037-0.152C114.121,92.772,114.109,92.823,114.098,92.874z M114.352,103.729
		c-0.056-0.151-0.094-0.294-0.163-0.426c-0.075-0.143-0.229-0.145-0.361-0.073c-0.215,0.115-0.142,0.3-0.088,0.449
		c0.076,0.217,0.08,0.495,0.378,0.567c0.123,0.03,0.234-0.076,0.25-0.2C114.382,103.94,114.357,103.829,114.352,103.729z
		 M113.775,89.325c-0.146-0.209-0.025-0.676-0.328-0.608c-0.286,0.063-0.045,0.448,0,0.68c0.04,0.217,0.044,0.642,0.263,0.582
		C114.073,89.879,113.702,89.553,113.775,89.325z"/>
	<path fill-rule="evenodd" clip-rule="evenodd" d="M119.232,87.134c0.058-0.277-0.016-0.568,0.188-0.832
		c0.087-0.115-0.096-0.26-0.203-0.374c-2.78-2.952-3.838-6.362-3.36-10.201c0.165-1.339,0.238-2.688,0.367-4.029
		c0.151-1.584,0.229-3.171,0.205-4.762c-0.032-2.013-0.217-4.021-0.328-6.03c-0.111-2.035-0.016-4.064,0.354-6.078
		c0.179-0.986,0.399-1.959,0.823-2.887c0.102-0.223,0.236-0.426,0.375-0.629c0.344-0.491,0.829-0.69,1.455-0.602
		c1.473,0.208,2.957,0.177,4.438,0.19c0.346,0.001,0.689-0.014,1.032-0.055c1.178-0.144,1.725,0.172,2.162,1.184
		c0.435,1.01,0.642,2.063,0.771,3.129c0.186,1.526,0.259,3.058,0.191,4.594c-0.068,1.497-0.312,2.978-0.414,4.47
		c-0.148,2.209-0.494,4.409-0.214,6.632c0.097,0.789,0.031,1.587,0.067,2.382c0.077,1.677,0.361,3.356,0.19,5.036
		c-0.278,2.717-1.304,5.165-3.287,7.244c-0.159,0.166-0.313,0.338-0.475,0.503c-0.084,0.085-0.205,0.199-0.151,0.286
		c0.236,0.393-0.046,0.818,0.165,1.237c0.286,0.564,0.138,1.2,0.092,1.807c-0.017,0.229-0.203,0.36-0.436,0.41
		c-0.219,0.047-0.439,0.095-0.662,0.093c-0.872-0.004-1.747-0.006-2.619-0.05c-0.805-0.04-0.991-0.248-0.997-0.968
		c-0.002-0.501,0.012-1,0.15-1.486l-0.004,0.004c0.044-0.073,0.086-0.147,0.129-0.223L119.232,87.134z M123.053,85.093
		c0.361-0.073,0.503-0.367,0.676-0.603c1.546-2.1,2.375-4.423,2.481-6.954c0.011-0.232,0.197-0.658-0.273-0.66
		c-0.451-0.001-0.284,0.419-0.295,0.661c-0.067,1.923-0.486,3.763-1.393,5.512c-0.36,0.701-0.853,1.336-1.192,2.045
		c-0.036,0.042-0.167,0.04-0.076,0.14C123.005,85.186,123.028,85.14,123.053,85.093z M125.439,74.499
		c0.018,0.161,0.02,0.31,0.056,0.452c0.038,0.158,0.187,0.197,0.334,0.16c0.234-0.061,0.208-0.258,0.192-0.414
		c-0.02-0.229,0.044-0.5-0.229-0.643c-0.113-0.06-0.244,0.018-0.29,0.133C125.461,74.289,125.457,74.402,125.439,74.499z
		 M122.502,88.613c0.094,0.238-0.139,0.662,0.171,0.67c0.294,0.008,0.155-0.424,0.167-0.659c0.012-0.22,0.113-0.635-0.113-0.629
		C122.349,88.003,122.629,88.411,122.502,88.613z"/>
	<path fill-rule="evenodd" clip-rule="evenodd" d="M28.039,74.871c0.28,0.043,0.567-0.045,0.842,0.143
		c0.119,0.08,0.254-0.11,0.363-0.223c2.796-2.937,6.145-4.177,10.002-3.911c1.346,0.093,2.695,0.093,4.043,0.148
		c1.59,0.065,3.179,0.057,4.765-0.055c2.008-0.142,4.003-0.436,6.003-0.653c2.024-0.223,4.056-0.237,6.088,0.021
		c0.995,0.125,1.978,0.292,2.927,0.663c0.228,0.09,0.438,0.213,0.648,0.345c0.51,0.315,0.734,0.788,0.681,1.418
		c-0.128,1.481-0.017,2.961,0.052,4.441c0.016,0.345,0.049,0.686,0.11,1.026c0.208,1.17-0.079,1.732-1.065,2.223
		c-0.984,0.49-2.025,0.755-3.083,0.94c-1.513,0.268-3.038,0.424-4.576,0.44c-1.497,0.016-2.989-0.149-4.485-0.169
		c-2.212-0.028-4.43-0.254-6.634,0.145c-0.782,0.142-1.583,0.118-2.375,0.198c-1.671,0.17-3.332,0.544-5.018,0.464
		c-2.729-0.129-5.229-1.02-7.414-2.887c-0.175-0.15-0.354-0.296-0.527-0.448c-0.089-0.078-0.21-0.192-0.294-0.135
		c-0.38,0.257-0.82-0.002-1.227,0.231c-0.549,0.317-1.192,0.203-1.8,0.19c-0.229-0.005-0.37-0.184-0.432-0.413
		c-0.058-0.215-0.118-0.435-0.128-0.655c-0.043-0.872-0.088-1.744-0.093-2.617c-0.004-0.807,0.194-1.006,0.913-1.049
		c0.499-0.032,0.997-0.043,1.491,0.069l-0.004-0.004c0.076,0.037,0.152,0.077,0.229,0.117L28.039,74.871z M30.286,78.575
		c0.093,0.356,0.394,0.481,0.638,0.642c2.181,1.432,4.545,2.132,7.078,2.1c0.233-0.002,0.668,0.162,0.645-0.309
		c-0.023-0.449-0.434-0.262-0.676-0.256c-1.923,0.035-3.783-0.285-5.578-1.092c-0.722-0.323-1.381-0.779-2.108-1.082
		c-0.044-0.031-0.048-0.164-0.143-0.067C30.189,78.532,30.239,78.554,30.286,78.575z M40.993,80.383
		c-0.159,0.026-0.309,0.037-0.449,0.079c-0.156,0.047-0.186,0.198-0.141,0.343c0.073,0.232,0.267,0.194,0.424,0.171
		c0.227-0.033,0.501,0.016,0.629-0.264c0.053-0.115-0.031-0.243-0.149-0.284C41.205,80.394,41.091,80.396,40.993,80.383z
		 M26.74,78.218c-0.233,0.106-0.668-0.103-0.66,0.206c0.009,0.295,0.432,0.132,0.667,0.132c0.221,0,0.64,0.077,0.622-0.147
		C27.34,78.031,26.949,78.333,26.74,78.218z"/>
	<path fill-rule="evenodd" clip-rule="evenodd" d="M26.915,86.664c0.279,0.044,0.566-0.044,0.841,0.144
		c0.118,0.081,0.254-0.109,0.363-0.222c2.803-2.931,6.154-4.165,10.011-3.89c1.346,0.097,2.695,0.099,4.043,0.157
		c1.59,0.068,3.179,0.063,4.766-0.045c2.008-0.136,4.003-0.426,6.004-0.641c2.024-0.218,4.057-0.229,6.088,0.034
		c0.994,0.129,1.977,0.297,2.925,0.671c0.229,0.09,0.438,0.214,0.648,0.345c0.508,0.318,0.733,0.791,0.677,1.42
		c-0.131,1.481-0.023,2.961,0.042,4.441c0.015,0.345,0.049,0.687,0.108,1.026c0.204,1.171-0.083,1.732-1.071,2.222
		c-0.985,0.487-2.026,0.749-3.085,0.933c-1.514,0.265-3.039,0.418-4.577,0.431c-1.498,0.013-2.989-0.154-4.485-0.178
		c-2.213-0.033-4.429-0.264-6.634,0.131c-0.783,0.139-1.583,0.113-2.375,0.191c-1.671,0.166-3.333,0.538-5.019,0.454
		c-2.729-0.135-5.227-1.031-7.407-2.903c-0.174-0.15-0.353-0.296-0.526-0.449c-0.089-0.078-0.21-0.192-0.294-0.135
		c-0.38,0.256-0.82-0.004-1.227,0.229c-0.55,0.315-1.192,0.2-1.801,0.187c-0.228-0.005-0.369-0.184-0.431-0.414
		c-0.058-0.215-0.117-0.435-0.127-0.655c-0.042-0.872-0.085-1.745-0.087-2.618c-0.002-0.806,0.196-1.005,0.915-1.046
		c0.499-0.03,0.997-0.042,1.491,0.072l-0.004-0.004c0.077,0.038,0.153,0.077,0.229,0.116L26.915,86.664z M29.154,90.373
		c0.091,0.357,0.392,0.482,0.635,0.643c2.179,1.436,4.541,2.141,7.075,2.115c0.233-0.002,0.667,0.163,0.645-0.309
		c-0.022-0.449-0.433-0.262-0.675-0.258c-1.923,0.033-3.783-0.29-5.576-1.103c-0.72-0.324-1.379-0.782-2.105-1.087
		c-0.044-0.031-0.048-0.165-0.143-0.067C29.058,90.328,29.106,90.351,29.154,90.373z M39.857,92.203
		c-0.16,0.025-0.308,0.036-0.449,0.079c-0.156,0.046-0.185,0.196-0.141,0.342c0.071,0.232,0.267,0.194,0.424,0.171
		c0.227-0.032,0.501,0.017,0.629-0.263c0.053-0.115-0.03-0.243-0.148-0.282C40.068,92.215,39.954,92.217,39.857,92.203z
		 M25.608,90.007c-0.233,0.106-0.668-0.104-0.66,0.205c0.008,0.296,0.432,0.132,0.667,0.133c0.22,0.001,0.639,0.079,0.622-0.146
		C26.209,89.822,25.818,90.123,25.608,90.007z"/>
</g>
</svg>
