<?xml version="1.0" encoding="utf-8"?>
<!-- Generator: Adobe Illustrator 16.0.4, SVG Export Plug-In . SVG Version: 6.00 Build 0)  -->
<!DOCTYPE svg PUBLIC "-//W3C//DTD SVG 1.1//EN" "http://www.w3.org/Graphics/SVG/1.1/DTD/svg11.dtd">
<svg version="1.1" id="Layer_3916" xmlns="http://www.w3.org/2000/svg" xmlns:xlink="http://www.w3.org/1999/xlink" x="0px" y="0px"
	 width="128px" height="128px" viewBox="0 0 128 128" enable-background="new 0 0 128 128" xml:space="preserve">
<g id="gRgpRw.tif">
	<g>
		<g>
			<path d="M124.902,104.203c-0.191-0.181-0.388-0.354-0.586-0.524c0.068,0.149,0.127,0.34,0.178,0.577
				c0.375,1.737-0.475,3.02-1.689,4.084c-1.471,1.288-3.166,2.238-4.967,2.99c-5.766,2.409-11.822,3.734-17.956,4.732
				c-12.174,1.98-24.441,2.752-37.461,2.697c-8.464,0.09-17.599-0.379-26.691-1.426c-8.701-1.002-17.356-2.318-25.629-5.397
				c-2.139-0.796-4.171-1.802-5.998-3.187c-0.99-0.75-1.803-1.634-2.146-2.877c-0.136-0.492-0.193-0.96-0.058-1.468
				c0.001-0.003,0.001-0.006,0.002-0.009c-0.221,0.226-0.436,0.459-0.644,0.699c-1.819,2.105-1.853,4.73-0.092,6.882
				c0.77,0.94,1.677,1.738,2.682,2.429c3.498,2.404,7.43,3.828,11.448,5.041c8.272,2.496,16.773,3.844,25.343,4.662
				c9.684,0.924,19.396,1.361,29.138,1.006c6.98-0.254,13.941-0.637,20.873-1.492c6.841-0.845,13.621-2.01,20.25-3.928
				c3.896-1.127,7.706-2.486,11.197-4.601c0.994-0.602,1.932-1.276,2.776-2.097C127.896,110.061,127.975,107.099,124.902,104.203z"
				/>
			<path d="M123.853,103.293c0.157,0.125,0.312,0.255,0.464,0.386C124.196,103.414,124.046,103.286,123.853,103.293z"/>
			<path d="M1.901,104.396c0.33-0.337,0.681-0.65,1.044-0.951C2.396,103.081,2.178,103.364,1.901,104.396z"/>
			<path d="M1.956,105.873c0.343,1.243,1.156,2.127,2.146,2.877c1.827,1.385,3.859,2.391,5.998,3.187
				c8.273,3.079,16.929,4.396,25.629,5.397c9.092,1.047,18.228,1.516,26.691,1.426c13.02,0.055,25.288-0.717,37.461-2.697
				c6.134-0.998,12.19-2.323,17.956-4.732c1.801-0.752,3.496-1.702,4.967-2.99c1.215-1.064,2.064-2.347,1.689-4.084
				c-0.051-0.237-0.109-0.428-0.178-0.577c-0.152-0.131-0.307-0.261-0.464-0.386c-0.214,0.009-0.48,0.18-0.819,0.515
				c-0.838,0.828-1.797,1.474-2.819,2.038c-2.535,1.398-5.226,2.405-8.001,3.213c-6.617,1.927-13.39,3.043-20.214,3.881
				c-5.502,0.676-11.029,1.17-16.563,1.341c-14.305,0.441-28.597,0.308-42.824-1.578c-7.041-0.933-14.022-2.144-20.772-4.392
				c-2.99-0.996-5.956-2.144-8.318-4.383c-0.228-0.217-0.416-0.375-0.576-0.482c-0.363,0.301-0.714,0.614-1.044,0.951
				c-0.001,0.003-0.001,0.006-0.002,0.009C1.763,104.913,1.82,105.381,1.956,105.873z"/>
		</g>
		<path fill-rule="evenodd" clip-rule="evenodd" d="M64.641,70.193c-11.806,0.079-22.534-0.563-33.204-2.024
			c-7.201-0.986-14.333-2.311-21.165-4.91c-2.345-0.893-4.587-1.979-6.431-3.724c-1.48-1.4-1.893-2.947-1.28-4.321
			c0.267-0.599,0.543-0.765,1.075-0.234c2.807,2.804,6.433,4.065,10.088,5.207c7.329,2.288,14.884,3.442,22.49,4.328
			c13.197,1.537,26.445,1.758,39.691,1.188c12.022-0.518,23.996-1.675,35.663-4.89c3.369-0.929,6.694-2.001,9.696-3.857
			c0.849-0.524,1.65-1.113,2.365-1.824c0.688-0.685,1.047-0.576,1.299,0.38c0.373,1.414-0.082,2.618-1.041,3.667
			c-1.338,1.466-3.034,2.395-4.805,3.211c-5.437,2.504-11.228,3.768-17.07,4.817c-8.743,1.568-17.57,2.322-26.438,2.754
			C71.582,70.153,67.594,70.12,64.641,70.193z"/>
		<path fill-rule="evenodd" clip-rule="evenodd" d="M63.806,91.318c-13.436-0.062-26.816-0.857-40.047-3.319
			c-5.394-1.003-10.731-2.308-15.736-4.666c-1.866-0.879-3.643-1.89-4.914-3.597C2.28,78.623,2.03,77.448,2.62,76.155
			c0.224-0.49,0.447-0.681,0.96-0.189c3.705,3.548,8.45,4.946,13.218,6.243c2.296,0.625,4.632,1.116,6.967,1.585
			c4.24,0.852,8.535,1.368,12.828,1.832c11.372,1.227,22.784,1.698,34.218,1.342c11.589-0.361,23.135-1.238,34.521-3.588
			c4.504-0.93,8.967-2.017,13.196-3.885c1.937-0.854,3.776-1.892,5.257-3.41c0.751-0.771,0.904-0.263,1.088,0.303
			c0.498,1.539-0.005,2.838-1.082,3.949c-1.904,1.962-4.318,3.075-6.822,4.012c-7.048,2.638-14.393,4.016-21.816,5.01
			C84.752,90.751,74.293,91.272,63.806,91.318z"/>
		<path fill-rule="evenodd" clip-rule="evenodd" d="M65.044,84.284c-10.242-0.018-19.051-0.355-27.819-1.336
			c-7.479-0.836-14.926-1.975-22.169-4.057c-3.065-0.881-6.174-1.808-8.929-3.557c-1.087-0.689-2.104-1.453-2.922-2.439
			c-0.915-1.102-1.203-2.354-0.59-3.718c0.208-0.463,0.418-0.755,0.947-0.232c3.149,3.11,7.214,4.392,11.296,5.686
			c4.561,1.447,9.269,2.212,13.954,3.019c5.015,0.863,10.104,1.27,15.185,1.658c8.743,0.668,17.502,0.877,26.263,0.635
			c13.37-0.369,26.682-1.378,39.715-4.65c3.875-0.975,7.692-2.131,11.16-4.209c0.96-0.574,1.834-1.246,2.627-2.023
			c0.561-0.551,0.848-0.294,1.078,0.287c0.405,1.021,0.102,1.98-0.327,2.887c-0.59,1.245-1.638,2.074-2.791,2.771
			c-3.789,2.293-7.948,3.629-12.213,4.677c-9.45,2.323-19.077,3.403-28.765,4.054C75.043,84.119,69.334,84.229,65.044,84.284z"/>
		<path fill-rule="evenodd" clip-rule="evenodd" d="M65.102,98.349c-13.131-0.119-25.084-0.697-36.938-2.6
			c-6.297-1.012-12.544-2.254-18.492-4.666c-1.753-0.711-3.426-1.576-4.942-2.717c-1.034-0.777-1.896-1.685-2.298-2.972
			c-0.25-0.804-0.116-1.528,0.231-2.25c0.197-0.409,0.433-0.663,0.863-0.231c3.703,3.711,8.584,4.93,13.393,6.242
			c7.024,1.917,14.214,2.889,21.446,3.639c10.442,1.082,20.908,1.404,31.395,1.18c10.487-0.225,20.925-1.04,31.281-2.763
			c5.307-0.882,10.532-2.079,15.576-3.972c2.604-0.977,5.145-2.098,7.102-4.182c0.637-0.678,0.929-0.308,1.139,0.342
			c0.384,1.191,0.219,2.293-0.549,3.299c-1.175,1.541-2.751,2.559-4.452,3.402c-4.306,2.136-8.91,3.37-13.583,4.342
			c-11.375,2.367-22.895,3.432-34.5,3.689C69.168,98.19,66.565,98.394,65.102,98.349z"/>
		<path fill-rule="evenodd" clip-rule="evenodd" d="M65.828,63.138c-12.17,0.132-22.347-0.442-32.476-1.723
			c-7.262-0.918-14.467-2.161-21.418-4.562c-2.576-0.889-5.072-1.948-7.261-3.615c-1.029-0.784-1.918-1.668-2.247-2.995
			c-0.11-0.443-0.188-0.865-0.064-1.304c0.133-0.473,0.135-1.108,0.664-1.261c0.471-0.136,0.707,0.434,1.022,0.724
			c2.13,1.961,4.75,3.031,7.407,4.001c6.017,2.196,12.278,3.369,18.588,4.298c15.577,2.293,31.244,2.673,46.938,1.939
			c10.354-0.483,20.662-1.517,30.79-3.876c3.835-0.893,7.632-1.922,11.215-3.603c1.663-0.779,3.243-1.676,4.567-2.986
			c0.788-0.779,1.107-0.67,1.387,0.409c0.352,1.358-0.09,2.519-0.996,3.521c-1.326,1.469-3.001,2.452-4.775,3.254
			c-5.395,2.437-11.113,3.755-16.904,4.783c-8.468,1.504-17.007,2.319-25.597,2.749C72.4,63.104,68.136,63.069,65.828,63.138z"/>
		<path fill-rule="evenodd" clip-rule="evenodd" d="M65.828,56.116c-12.17,0.131-22.347-0.442-32.476-1.723
			c-7.262-0.918-14.467-2.161-21.418-4.561c-2.576-0.889-5.072-1.948-7.261-3.616c-1.029-0.784-1.918-1.668-2.247-2.995
			c-0.11-0.444-0.188-0.865-0.064-1.305c0.133-0.472,0.135-1.107,0.664-1.261c0.471-0.136,0.707,0.435,1.022,0.725
			c2.13,1.96,4.75,3.031,7.407,4.001c6.017,2.196,12.278,3.369,18.588,4.298c15.577,2.293,31.244,2.672,46.938,1.939
			c10.354-0.483,20.662-1.517,30.79-3.876c3.835-0.893,7.632-1.922,11.215-3.603c1.663-0.78,3.243-1.676,4.567-2.986
			c0.788-0.779,1.107-0.67,1.387,0.409c0.352,1.358-0.09,2.519-0.996,3.521c-1.326,1.468-3.001,2.452-4.775,3.254
			c-5.395,2.437-11.113,3.754-16.904,4.783c-8.468,1.503-17.007,2.319-25.597,2.749C72.4,56.083,68.136,56.047,65.828,56.116z"/>
		<path fill-rule="evenodd" clip-rule="evenodd" d="M65.828,49.093c-12.17,0.131-22.347-0.442-32.476-1.723
			c-7.262-0.918-14.467-2.161-21.418-4.561c-2.576-0.889-5.072-1.948-7.261-3.616c-1.029-0.784-1.918-1.668-2.247-2.995
			c-0.11-0.444-0.188-0.865-0.064-1.305c0.133-0.472,0.135-1.107,0.664-1.261c0.471-0.136,0.707,0.435,1.022,0.725
			c2.13,1.96,4.75,3.031,7.407,4.001c6.017,2.196,12.278,3.369,18.588,4.298c15.577,2.293,31.244,2.672,46.938,1.939
			c10.354-0.483,20.662-1.517,30.79-3.876c3.835-0.893,7.632-1.922,11.215-3.603c1.663-0.78,3.243-1.676,4.567-2.986
			c0.788-0.779,1.107-0.67,1.387,0.409c0.352,1.358-0.09,2.519-0.996,3.521c-1.326,1.468-3.001,2.452-4.775,3.254
			c-5.395,2.437-11.113,3.754-16.904,4.783c-8.468,1.503-17.007,2.319-25.597,2.749C72.4,49.06,68.136,49.024,65.828,49.093z"/>
		<path fill-rule="evenodd" clip-rule="evenodd" d="M65.828,42.07c-12.17,0.131-22.347-0.442-32.476-1.723
			c-7.262-0.918-14.467-2.161-21.418-4.561c-2.576-0.889-5.072-1.948-7.261-3.616c-1.029-0.784-1.918-1.668-2.247-2.995
			c-0.11-0.444-0.188-0.865-0.064-1.305c0.133-0.472,0.135-1.107,0.664-1.261c0.471-0.136,0.707,0.435,1.022,0.725
			c2.13,1.96,4.75,3.031,7.407,4.001c6.017,2.196,12.278,3.369,18.588,4.298c15.577,2.293,31.244,2.672,46.938,1.939
			c10.354-0.483,20.662-1.517,30.79-3.876c3.835-0.893,7.632-1.922,11.215-3.603c1.663-0.78,3.243-1.676,4.567-2.986
			c0.788-0.779,1.107-0.67,1.387,0.409c0.352,1.358-0.09,2.519-0.996,3.521c-1.326,1.468-3.001,2.452-4.775,3.254
			c-5.395,2.437-11.113,3.754-16.904,4.783c-8.468,1.503-17.007,2.319-25.597,2.749C72.4,42.037,68.136,42.001,65.828,42.07z"/>
		<path fill-rule="evenodd" clip-rule="evenodd" d="M65.828,36.307c-12.17,0.131-22.347-0.442-32.476-1.723
			c-7.262-0.918-14.467-2.161-21.418-4.561c-2.576-0.889-5.072-1.948-7.261-3.616c-1.029-0.784-1.918-1.668-2.247-2.995
			c-0.11-0.443-0.188-0.865-0.064-1.304C2.496,21.636,2.497,21,3.026,20.848c0.471-0.136,0.707,0.434,1.022,0.725
			c2.13,1.96,4.75,3.03,7.407,4c6.017,2.196,12.278,3.369,18.588,4.297c15.577,2.293,31.244,2.673,46.938,1.939
			c10.354-0.483,20.662-1.517,30.79-3.875c3.835-0.893,7.632-1.922,11.215-3.603c1.663-0.779,3.243-1.676,4.567-2.986
			c0.788-0.779,1.107-0.67,1.387,0.409c0.352,1.358-0.09,2.519-0.996,3.521c-1.326,1.468-3.001,2.452-4.775,3.253
			c-5.395,2.437-11.113,3.755-16.904,4.783c-8.468,1.504-17.007,2.319-25.597,2.749C72.4,36.274,68.136,36.238,65.828,36.307z"/>
		<path fill-rule="evenodd" clip-rule="evenodd" d="M64.27,105.362c-13.168-0.15-25.618-0.771-37.943-2.89
			c-6.339-1.09-12.636-2.405-18.501-5.205c-1.709-0.815-3.332-1.777-4.554-3.272c-1.027-1.258-1.243-2.759-0.617-3.857
			c0.233-0.409,0.44-0.585,0.87-0.188c4.83,4.47,11.039,5.701,17.118,7.124c7.185,1.682,14.51,2.493,21.861,3.119
			c11.624,0.99,23.256,1.132,34.895,0.519c10.854-0.572,21.657-1.632,32.236-4.297c3.281-0.827,6.516-1.812,9.589-3.258
			c1.614-0.76,3.112-1.688,4.412-2.929c0.714-0.682,1.024-0.583,1.288,0.389c0.289,1.074,0.119,2.075-0.543,2.998
			c-0.999,1.392-2.355,2.331-3.83,3.129c-3.99,2.157-8.314,3.363-12.697,4.359c-8.177,1.858-16.475,2.85-24.831,3.492
			C76.549,105.095,70.066,105.168,64.27,105.362z"/>
		<path fill-rule="evenodd" clip-rule="evenodd" d="M67.333,77.216c-9.216,0.13-18.413-0.242-27.585-1.082
			c-6.123-0.561-12.188-1.562-18.225-2.754c-3.872-0.764-7.639-1.864-11.337-3.192c-2.512-0.903-4.924-2.064-6.739-4.134
			c-0.966-1.102-1.508-2.334-0.868-3.811c0.233-0.538,0.491-0.848,1.072-0.257c2.661,2.707,6.139,3.896,9.618,5.049
			c7.458,2.471,15.167,3.633,22.953,4.481c12.212,1.333,24.457,1.7,36.716,1.275c12.924-0.447,25.784-1.567,38.349-4.911
			c2.47-0.657,4.889-1.457,7.224-2.492c1.883-0.835,3.703-1.793,5.144-3.31c0.704-0.742,0.985-0.392,1.228,0.347
			c0.374,1.147,0.143,2.189-0.535,3.15c-0.951,1.35-2.268,2.258-3.699,3.024c-3.898,2.087-8.104,3.286-12.371,4.31
			c-6.752,1.618-13.619,2.532-20.514,3.216C80.971,76.799,74.151,77.032,67.333,77.216z"/>
		<path fill-rule="evenodd" clip-rule="evenodd" d="M60.885,112.347c-10.771-0.041-21.499-0.734-32.144-2.395
			c-7.126-1.111-14.209-2.463-20.816-5.557c-1.721-0.807-3.34-1.763-4.589-3.229c-0.963-1.129-1.37-2.402-0.734-3.847
			c0.152-0.346,0.356-0.802,0.832-0.354c4.849,4.563,11.121,5.784,17.253,7.222c6.21,1.455,12.538,2.241,18.891,2.842
			c9.396,0.887,18.809,1.305,28.24,1.121c10.536-0.207,21.047-0.858,31.466-2.553c6.354-1.033,12.657-2.287,18.637-4.772
			c2.1-0.872,4.167-1.856,5.74-3.583c0.7-0.77,0.988-0.379,1.219,0.344c0.385,1.201,0.168,2.299-0.595,3.292
			c-0.823,1.073-1.878,1.868-3.038,2.549c-4.268,2.505-8.981,3.761-13.74,4.846c-8.18,1.864-16.486,2.825-24.846,3.442
			C75.407,112.253,68.15,112.392,60.885,112.347z"/>
	</g>
	<g>
		<path fill="none" d="M94.6,17.741c-1.334-0.736-2.778-1.197-4.302-1.431c-7.737-1.192-15.542-1.432-19.653-1.596
			c-12.895-0.248-22.071,0.155-31.217,1.193c-2.336,0.265-4.676,0.591-6.798,1.69c-0.773,0.4-1.712,0.811-1.726,1.88
			c-0.013,1.061,0.876,1.524,1.658,1.943c1.603,0.858,3.366,1.238,5.152,1.467c13.063,1.673,26.173,1.973,39.308,1.177
			c4.064-0.246,8.137-0.498,12.168-1.155c1.846-0.301,3.686-0.628,5.339-1.559C96.629,20.167,96.665,18.883,94.6,17.741z"/>
		<path fill="none" d="M15.761,31.588c0.519,0.292,1.052,0.559,1.601,0.8c3.639,1.601,7.463,2.587,11.341,3.375
			c10.894,2.215,21.936,2.854,33.964,3.077c9.249-0.034,19.419-0.477,29.517-1.984c5.34-0.797,10.629-1.851,15.711-3.746
			c1.077-0.402,2.136-0.846,3.139-1.396l-1.908-0.591c-0.281,0.076-0.562,0.152-0.846,0.224
			c-12.469,3.142-25.186,4.355-37.995,4.698c-7.626,0.204-15.253,0.122-22.874-0.442c-5.8-0.429-11.578-1.003-17.319-1.927
			c-4.812-0.773-9.581-1.737-14.252-3.129C15.955,30.799,15.908,31.166,15.761,31.588z"/>
		<path d="M125.895,16.262c-1.377-1.781-3.203-2.964-5.141-3.992C115.566,9.517,109.952,8,104.262,6.768
			c-12.975-2.807-26.146-3.709-39.38-3.879C58.739,2.81,52.605,3.14,46.475,3.552c-8.743,0.588-17.4,1.72-25.932,3.727
			c-5.309,1.25-10.522,2.8-15.293,5.545c-1.623,0.933-3.13,2.018-4.254,3.553c-1.447,1.977-1.509,4.063-0.152,6.103
			c0.677,1.018,1.57,1.83,2.552,2.551c2.12,1.555,4.464,2.672,6.891,3.62l0.106-0.106c1.522,0.676,3.382,1.184,5.074,1.691
			c0.188,0.057,0.307,0.166,0.374,0.312c4.671,1.392,9.44,2.355,14.252,3.129c5.741,0.923,11.519,1.498,17.319,1.927
			c7.621,0.564,15.248,0.646,22.874,0.442c12.81-0.343,25.526-1.556,37.995-4.698c0.283-0.071,0.564-0.147,0.846-0.224l-0.138-0.042
			c0,0,3.663-0.942,6.132-1.755c0.145-0.11,0.34-0.191,0.577-0.273c1.762-0.609,3.462-1.372,5.099-2.262
			c1.929-1.05,3.763-2.239,5.136-4.005C127.588,20.653,127.543,18.395,125.895,16.262z M94.528,21.35
			c-1.653,0.93-3.493,1.258-5.339,1.559c-4.031,0.657-8.104,0.909-12.168,1.155c-13.135,0.796-26.244,0.496-39.308-1.177
			c-1.786-0.229-3.549-0.608-5.152-1.467c-0.781-0.419-1.67-0.883-1.658-1.943c0.014-1.069,0.953-1.479,1.726-1.88
			c2.122-1.099,4.462-1.425,6.798-1.69c9.146-1.038,18.322-1.441,31.217-1.193c4.111,0.164,11.916,0.404,19.653,1.596
			c1.523,0.234,2.968,0.695,4.302,1.431C96.665,18.883,96.629,20.167,94.528,21.35z"/>
	</g>
</g>
</svg>
