<?xml version="1.0" encoding="utf-8"?>
<!-- Generator: Adobe Illustrator 16.0.4, SVG Export Plug-In . SVG Version: 6.00 Build 0)  -->
<!DOCTYPE svg PUBLIC "-//W3C//DTD SVG 1.1//EN" "http://www.w3.org/Graphics/SVG/1.1/DTD/svg11.dtd">
<svg version="1.1" id="Layer_3917" xmlns="http://www.w3.org/2000/svg" xmlns:xlink="http://www.w3.org/1999/xlink" x="0px" y="0px"
	 width="128px" height="128px" viewBox="0 0 128 128" enable-background="new 0 0 128 128" xml:space="preserve">
<g id="xqMYkb.tif">
	<g>
		<path fill-rule="evenodd" clip-rule="evenodd" d="M87.705,70.27c0.069,0.278,0.126,0.556,0.247,0.821
			c5.792,12.722-1.703,27.548-15.483,30.559c-15.223,3.324-31.104-6.802-33.897-22.87c-0.427-2.458-0.487-4.921-0.33-7.417
			c0.126-2.007,0.679-3.889,1.187-5.799c0.167-0.626,0.299-1.259,0.448-1.889l0.016,0.031l-0.028-0.02
			c0.29-0.37,0.534-0.769,0.732-1.195c4.077-8.753,10.848-14.304,20.242-16.328c12.659-2.727,26.171,2.138,34.436,12.596
			c1.054,1.333,2.021,2.725,2.85,4.21c0.114,0.203,0.277,0.377,0.417,0.565l-0.013-0.013c0.73,1.243,1.176,2.615,1.761,3.923
			c0.329,0.736,0.663,1.48,0.881,2.255c1.259,4.486,1.802,9.041,1.361,13.709c-1.189,12.612-9.532,23.777-21.431,28.694
			c-3.527,1.457-7.192,2.329-11.002,2.606c-10.077,0.735-19.301-1.728-27.518-7.596c-9.094-6.495-14.664-15.311-16.645-26.329
			c-0.706-3.932-0.721-7.891-0.271-11.869c0.183-1.613,0.396-3.212,0.825-4.766c1.606-5.833,4.161-11.2,8.041-15.882
			c6.745-8.141,15.355-13.083,25.769-14.835c4.327-0.729,8.686-0.749,13.045-0.23c9.635,1.146,18.186,4.831,25.552,11.125
			c8.779,7.499,14.295,16.959,15.96,28.406c2.453,16.865-2.881,31.083-15.405,42.544c-6.779,6.202-14.873,9.892-23.919,11.444
			c-4.867,0.836-9.774,0.945-14.684,0.382c-14.079-1.616-25.86-7.714-35.228-18.336c-6.566-7.443-10.628-16.132-12.3-25.927
			c-0.827-4.849-1-9.718-0.421-14.602c0.948-7.974,3.699-15.293,8.112-21.995c4.474-6.795,10.197-12.356,16.873-16.957
			c6.744-4.648,14.082-8.057,21.932-10.374c0.781-0.231,0.788-0.228,1.008,0.535c0.448,1.555,0.892,3.112,1.332,4.669
			c0.22,0.778,0.215,0.782-0.547,1.01c-3.533,1.055-6.979,2.342-10.313,3.916c-8.333,3.932-15.663,9.199-21.59,16.314
			c-3.994,4.794-7.011,10.143-8.791,16.129c-0.583,1.961-1.159,3.95-1.407,6c-1.963,16.219,3.011,29.955,14.954,41.064
			c6.975,6.488,15.327,10.363,24.729,11.828c8.563,1.334,16.978,0.685,24.947-2.921c13.134-5.942,21.287-16.004,24.211-30.163
			c1.113-5.394,0.853-10.812-0.306-16.185c-0.104-0.482-0.33-0.936-0.443-1.416c-3.105-13.012-13.881-24.221-27.193-28.41
			c-5.174-1.628-10.475-2.34-15.856-1.835c-13.535,1.27-23.463,7.96-29.538,20.178c-1.507,3.03-2.374,6.265-2.833,9.646
			c-1.118,8.239,0.473,15.89,4.924,22.861c5.405,8.467,13.157,13.653,23.008,15.602c5.956,1.181,11.884,0.982,17.587-1.257
			c9.236-3.628,15.229-10.267,17.739-19.889c1.357-5.206,1.063-10.431-0.7-15.514c-0.63-1.813-1.386-3.617-2.409-5.257
			c-4.54-7.275-10.997-11.819-19.447-13.421c-4.353-0.825-8.689-0.729-12.934,0.656c-4.946,1.616-8.883,4.618-11.743,8.947
			c-1.247,1.889-2.252,3.936-2.834,6.156c-2.871,10.944,2.652,21.283,12.071,25.587c4.555,2.081,9.34,2.797,14.209,1.439
			c6.395-1.783,10.373-6.059,11.562-12.59c0.963-5.299-0.734-9.906-4.577-13.688c-0.567-0.559-1.101-1.195-1.902-1.467l0.012,0.012
			c-0.108-0.058-0.216-0.114-0.323-0.171l0.011,0.011c-0.853-0.646-1.755-1.178-2.773-1.549c-1.4-0.51-2.78-1.031-4.28-1.189
			c-0.684-0.071-1.359-0.054-2.032-0.005c-1.266,0.094-2.548,0.045-3.766,0.555c-0.512,0.215-0.974,0.488-1.438,0.773l0.009-0.009
			c0,0.06,0,0.119,0,0.18l-0.014-0.014c-0.1,0.052-0.2,0.102-0.3,0.151l0.007,0.012c-0.059-0.061-0.118-0.039-0.178,0l0.007-0.008
			c-0.054,0.106-0.108,0.213-0.163,0.32l0.011-0.012c-0.323-0.107-0.465,0.139-0.638,0.324l0.011-0.011
			c-1.285,0.67-1.942,1.812-2.35,3.14l0.006,0.011c-0.059-0.057-0.118-0.039-0.178-0.001l0.006-0.008
			c-2.478,4.318-0.354,11.334,6.231,12.989c1.143,0.286,2.308,0.41,3.49,0.174c1.348-0.268,2.362-1.271,2.511-2.642
			c0.057-0.52,0.256-0.713,0.752-0.753c1.743-0.142,3.486-0.301,5.226-0.478c0.554-0.056,0.511,0.297,0.513,0.639
			c0.016,3.953-1.789,6.83-5.208,8.729c-1.574,0.875-3.309,1.131-5.075,1.077c-5.82-0.178-10.416-2.646-13.547-7.582
			c-2.256-3.556-2.769-7.452-1.994-11.594c0.281-1.497,1.04-2.766,1.475-4.176l-0.009,0.013c0.053-0.105,0.107-0.211,0.16-0.315
			l-0.011,0.011c0.629-0.842,1.259-1.682,1.889-2.523l-0.007,0.009c0.794-0.959,1.804-1.672,2.78-2.418
			c0.412-0.314,0.81-0.631,1.144-1.026l-0.01-0.01c0.311,0.163,0.55-0.04,0.794-0.17c3.144-1.677,6.506-2.08,10.009-1.797
			c2.068,0.167,4.088,0.597,6.011,1.31c2.829,1.051,5.339,2.689,7.535,4.772c0.342,0.323,0.726,0.591,1.067,0.91l-0.007-0.011
			c0.057,0.058,0.114,0.115,0.171,0.172l-0.009-0.007c1.224,1.626,2.461,3.243,3.457,5.026L87.705,70.27z"/>
		<path fill-rule="evenodd" clip-rule="evenodd" d="M107.274,6.15c0.028,0.343-0.308,0.355-0.516,0.452
			c-2.058,0.96-4.121,1.907-6.182,2.857c-7.89,3.639-15.778,7.282-23.67,10.915c-1.016,0.467-0.844,0.52-1.229-0.482
			c-0.845-2.191-1.67-4.389-2.498-6.586c-0.254-0.672-0.248-0.682,0.443-0.912C84.064,8.919,94.51,5.451,104.948,1.962
			c0.514-0.172,0.735-0.106,0.917,0.418c0.392,1.134,0.848,2.245,1.275,3.366C107.187,5.868,107.223,5.994,107.274,6.15z"/>
		<path fill-rule="evenodd" clip-rule="evenodd" d="M74.094,21.457c0.025,0.292-0.156,0.354-0.324,0.429
			c-1.595,0.714-3.195,1.417-4.783,2.149c-0.457,0.211-0.525-0.075-0.643-0.383c-0.764-2.026-1.533-4.05-2.302-6.076
			c-0.24-0.634-0.464-1.275-0.727-1.9c-0.162-0.387-0.124-0.607,0.315-0.755c1.606-0.54,3.207-1.1,4.803-1.672
			c0.342-0.121,0.53-0.075,0.662,0.276c0.968,2.563,1.944,5.124,2.917,7.685C74.049,21.307,74.078,21.408,74.094,21.457z"/>
		<path fill-rule="evenodd" clip-rule="evenodd" d="M108.168,5.942c-0.212,0.023-0.259-0.145-0.313-0.285
			c-0.474-1.24-0.94-2.484-1.419-3.722c-0.104-0.267-0.003-0.396,0.237-0.459c1.131-0.303,2.264-0.599,3.395-0.907
			c0.267-0.073,0.381,0.047,0.466,0.271c0.388,1.023,0.781,2.043,1.171,3.064c0.086,0.227,0.041,0.405-0.197,0.514
			c-1.065,0.488-2.128,0.979-3.193,1.468C108.266,5.907,108.217,5.923,108.168,5.942z"/>
		<path fill-rule="evenodd" clip-rule="evenodd" d="M54.779,63.522c-0.069-0.009-0.142-0.007-0.206-0.031
			c-0.054-0.019-0.038-0.073,0.021-0.061c0.063,0.013,0.119,0.064,0.177,0.101L54.779,63.522z"/>
		<path fill-rule="evenodd" clip-rule="evenodd" d="M61.362,69.652c0.037,0.017,0.073,0.032,0.11,0.048
			c-0.017-0.004-0.037-0.003-0.05-0.011c-0.019-0.013-0.033-0.031-0.05-0.047L61.362,69.652z"/>
		<polygon fill-rule="evenodd" clip-rule="evenodd" points="76.73,67.439 76.716,67.466 76.742,67.451 		"/>
		<path fill-rule="evenodd" clip-rule="evenodd" d="M60.882,67.447l0.011,0.011L60.882,67.447z"/>
		<path fill-rule="evenodd" clip-rule="evenodd" d="M76.419,67.28l0.011,0.011L76.419,67.28z"/>
		<path fill-rule="evenodd" clip-rule="evenodd" d="M60.893,67.458l-0.011-0.011L60.893,67.458z"/>
		<path fill-rule="evenodd" clip-rule="evenodd" d="M60.88,66.821l0.011-0.011L60.88,66.821z"/>
		<path fill-rule="evenodd" clip-rule="evenodd" d="M61.508,66.509l0.011-0.012L61.508,66.509z"/>
		<path fill-rule="evenodd" clip-rule="evenodd" d="M52.559,66.335l0.01,0.013L52.559,66.335z"/>
		<path fill-rule="evenodd" clip-rule="evenodd" d="M61.835,66.185c-0.055,0.042-0.109,0.051-0.165,0.004l-0.007,0.008
			c0.06,0,0.119,0,0.178,0L61.835,66.185z"/>
		<path fill-rule="evenodd" clip-rule="evenodd" d="M52.569,66.348c0.057,0,0.114,0.001,0.172,0.002l0.009-0.013
			c-0.063,0-0.127-0.001-0.191-0.002L52.569,66.348z"/>
		<path fill-rule="evenodd" clip-rule="evenodd" d="M62.311,66.035l0.01-0.013L62.311,66.035z"/>
		<path fill-rule="evenodd" clip-rule="evenodd" d="M58.696,60.086l-0.01-0.01L58.696,60.086z"/>
		<path fill-rule="evenodd" clip-rule="evenodd" d="M61.373,69.643l-0.01,0.01L61.373,69.643z"/>
		<path fill-rule="evenodd" clip-rule="evenodd" d="M58.542,69.95c-0.055,0-0.11,0.002-0.165,0.002l-0.006,0.008
			c0.06,0,0.119,0,0.178,0.001L58.542,69.95z"/>
		<path fill-rule="evenodd" clip-rule="evenodd" d="M87.715,70.281l-0.01-0.012L87.715,70.281z"/>
		<polygon fill-rule="evenodd" clip-rule="evenodd" points="98.541,63.535 98.559,63.505 98.528,63.522 		"/>
		<path fill-rule="evenodd" clip-rule="evenodd" d="M89.752,62.909l0.012-0.011L89.752,62.909z"/>
		<path fill-rule="evenodd" clip-rule="evenodd" d="M48.506,62.901l0.009-0.007L48.506,62.901z"/>
		<path fill-rule="evenodd" clip-rule="evenodd" d="M89.764,62.898l-0.012,0.011L89.764,62.898z"/>
		<path fill-rule="evenodd" clip-rule="evenodd" d="M48.515,62.894l-0.009,0.007L48.515,62.894z"/>
		<path fill-rule="evenodd" clip-rule="evenodd" d="M57.91,60.4l0.011-0.01L57.91,60.4z"/>
		<path fill-rule="evenodd" clip-rule="evenodd" d="M57.921,60.39L57.91,60.4L57.921,60.39z"/>
		<path fill-rule="evenodd" clip-rule="evenodd" d="M62.321,66.022c-0.062,0.004-0.123,0.008-0.185,0.011l0.014,0.014
			c0-0.061,0-0.12,0-0.18l-0.009,0.009c0.057,0.053,0.113,0.105,0.171,0.159L62.321,66.022z"/>
		<path fill-rule="evenodd" clip-rule="evenodd" d="M52.901,66.034l-0.011,0.011L52.901,66.034z"/>
		<path fill-rule="evenodd" clip-rule="evenodd" d="M52.098,65.88l0.01,0.011L52.098,65.88z"/>
		<path fill-rule="evenodd" clip-rule="evenodd" d="M52.108,65.891l-0.01-0.011L52.108,65.891z"/>
		<path fill-rule="evenodd" clip-rule="evenodd" d="M84.258,65.103c0.01,0.035,0.026,0.069,0.03,0.105
			c0.003,0.013-0.021,0.03-0.03,0.047l0.009,0.007c0.001-0.059,0.001-0.116,0.003-0.174L84.258,65.103z"/>
		<path fill-rule="evenodd" clip-rule="evenodd" d="M84.103,65.101c0.054-0.051,0.107-0.102,0.161-0.152l-0.011-0.011
			c0,0.055,0.003,0.109,0.005,0.165l0.012-0.015c-0.059,0.002-0.117,0.002-0.174,0.002L84.103,65.101z"/>
		<path fill-rule="evenodd" clip-rule="evenodd" d="M84.264,64.948l-0.011-0.011L84.264,64.948z"/>
		<path fill-rule="evenodd" clip-rule="evenodd" d="M52.884,64.783l0.01,0.011L52.884,64.783z"/>
		<path fill-rule="evenodd" clip-rule="evenodd" d="M52.894,64.794l-0.01-0.011L52.894,64.794z"/>
		<path fill-rule="evenodd" clip-rule="evenodd" d="M58.548,69.961c-0.059-0.001-0.118-0.001-0.178-0.001
			C58.43,69.922,58.49,69.904,58.548,69.961z"/>
		<polygon fill-rule="evenodd" clip-rule="evenodd" points="39.864,63.686 39.892,63.706 39.876,63.675 		"/>
		<path fill-rule="evenodd" clip-rule="evenodd" d="M61.842,66.196c-0.059,0-0.119,0-0.178,0
			C61.724,66.157,61.783,66.136,61.842,66.196z"/>
		<path fill-rule="evenodd" clip-rule="evenodd" d="M62.149,65.867c0,0.06,0,0.119,0,0.18
			C62.149,65.986,62.149,65.927,62.149,65.867z"/>
		<path fill-rule="evenodd" clip-rule="evenodd" d="M84.096,65.09c0.057,0,0.115,0,0.174-0.002
			c-0.002,0.058-0.002,0.115-0.003,0.174C84.21,65.205,84.152,65.147,84.096,65.09z"/>
	</g>
</g>
</svg>
