<?xml version="1.0" encoding="utf-8"?>
<!-- Generator: Adobe Illustrator 16.0.4, SVG Export Plug-In . SVG Version: 6.00 Build 0)  -->
<!DOCTYPE svg PUBLIC "-//W3C//DTD SVG 1.1//EN" "http://www.w3.org/Graphics/SVG/1.1/DTD/svg11.dtd">
<svg version="1.1" id="Layer_3922" xmlns="http://www.w3.org/2000/svg" xmlns:xlink="http://www.w3.org/1999/xlink" x="0px" y="0px"
	 width="128px" height="128px" viewBox="0 0 128 128" enable-background="new 0 0 128 128" xml:space="preserve">
<path fill-rule="evenodd" clip-rule="evenodd" d="M67.15,116.855c-9.532,0.37-19.829-0.354-30.018-2.363
	c-4.336-0.855-8.308-2.626-11.869-5.272c-2.71-2.014-4.001-4.757-4.341-8.082c-0.191-1.865-0.671-3.704-1.028-5.554
	c-0.52-2.696-1.08-5.384-1.559-8.087c-0.369-2.081-0.804-4.143-1.303-6.193c-0.351-1.439-0.561-2.917-0.822-4.367
	c-0.616-3.42-1.447-6.79-2.068-10.201c-0.523-2.861-1.149-5.704-1.622-8.579c-0.708-4.283-1.649-8.528-2.432-12.8
	c-0.742-4.049-1.397-8.112-2.116-12.165c-0.341-1.915-0.751-3.816-1.117-5.728c-0.129-0.676-0.46-1.215-1.136-1.371
	c-0.854-0.198-1.198-0.778-1.469-1.519c-0.517-1.416-1.284-2.687-2.311-3.803c-0.665-0.724-1.157-1.567-1.491-2.502
	c-0.633-1.774-0.133-2.548,1.767-2.823c1.606-0.231,3.028,0.083,4.405,0.987c2.062,1.356,3.986,2.895,5.981,4.335
	c0.723,0.521,1.405,0.659,2.243,0.532c16.853-2.553,33.839-3.193,50.849-3.528c8.621-0.169,17.238-0.082,25.854,0.261
	c3.33,0.133,6.662,0.286,9.975,0.618c2.59,0.263,4.742-0.498,6.699-2.09c3.207-2.609,6.725-4.591,10.861-5.313
	c1.551-0.272,3.082-0.263,4.621,0.029c3.234,0.616,4.648,2.627,3.922,5.847c-0.43,1.899-1.1,3.745-1.678,5.608
	c-0.352,1.14-0.537,2.347-1.582,3.168c-0.533,0.42-0.5,1.158-0.561,1.767c-0.412,4.054-1.154,8.055-1.875,12.059
	c-0.764,4.223-1.537,8.443-2.275,12.669c-0.535,3.043-0.996,6.1-1.537,9.141c-0.48,2.704-1.047,5.391-1.535,8.094
	c-0.574,3.154-1.127,6.315-1.664,9.478c-0.465,2.756-1.057,5.497-1.551,8.254c-0.557,3.1-1.092,6.202-1.691,9.29
	c-0.453,2.359-0.738,4.751-1.428,7.063c-0.73,2.435-2.287,4.229-4.371,5.574c-3.852,2.492-8.057,4.133-12.545,5.073
	C84.977,116.119,76.514,116.775,67.15,116.855z M45.077,88.926c-0.249-0.026-0.505-0.024-0.745,0.007
	c-0.228,0.03-0.365,0.107-0.587,0.152c-0.208,0.042-0.401,0.057-0.605,0.148c-0.279,0.127-0.681,0.16-0.856,0.475
	c-0.039,0.072-0.132,0.388-0.145,0.45c-0.208,1.04,1.55,1.123,2.26,1.211c0.964,0.12,1.906,0.092,2.872,0.126
	c0.256,0.008,0.55,0.181,0.794,0.075c0.331-0.141,0.327-0.558,0.286-0.854c-0.028-0.202-0.083-0.399-0.148-0.588
	c-0.062-0.181-0.1-0.361-0.26-0.493c-0.37-0.303-0.665-0.143-1.088-0.245c-0.135-0.033-0.147-0.134-0.282-0.165
	c-0.102,0.006-0.204,0.012-0.305,0.018c-0.191-0.031-0.406-0.134-0.594-0.194C45.488,88.988,45.285,88.947,45.077,88.926z
	 M45.033,93.096c-0.169-0.02-0.309-0.022-0.4-0.007c-0.267,0.048-0.449,0.22-0.743,0.163c-0.458-0.086-0.88-0.308-1.305,0.026
	c-0.164,0.13-0.317,0.368-0.374,0.565c-0.095,0.327-0.066,0.262,0.192,0.441c0.883,0.613,2.215,0.732,3.26,0.867
	c0.477,0.062,1.932,0.352,2.227-0.235C48.356,93.991,46.093,93.217,45.033,93.096z M124.805,16.67
	c-0.074-2.776-1.068-3.764-3.219-3.707c-2.154,0.06-4.197,0.671-6.076,1.693c-1.484,0.806-2.281,2.219-2.709,3.824
	c-0.229,0.863,0.012,1.442,1,1.601c2.885,0.463,5.787,0.854,8.553,1.859c0.602,0.217,1.096-0.023,1.242-0.579
	C124.057,19.598,124.744,17.878,124.805,16.67z M6.596,23.356c0.917-0.306,1.727-0.591,2.546-0.844
	c0.759-0.232,0.772-0.607,0.205-1.049c-1.454-1.132-3.092-1.965-4.694-2.857c-0.138-0.078-0.375-0.16-0.47-0.098
	c-0.21,0.142-0.191,0.425-0.099,0.629c0.543,1.196,1.087,2.396,1.68,3.57C5.939,23.052,6.238,23.366,6.596,23.356z M45.031,101.388
	c0.739,0-2.081-0.285-2.108,0.222c-0.018,0.358,6.39,1.087,6.464,0.491C49.458,101.563,45.394,101.373,45.031,101.388
	C44.318,101.388,46.208,101.342,45.031,101.388z M46.404,98.638c0.741,0.096,1.467,0.05,2.179-0.138
	c-0.239-0.767-5.272-1.049-5.669-0.408C44.065,98.496,45.208,98.485,46.404,98.638C46.914,98.638,45.445,98.516,46.404,98.638z
	 M47.182,109.271c0.567,0.059,1.127,0.031,1.68-0.084c-0.302-0.828-3.875-0.576-4.567-0.456
	C44.523,109.281,48.004,109.297,47.182,109.271C47.576,109.271,46.447,109.246,47.182,109.271z M46.538,105.596
	c0.022,0.003,1.728,0.332,1.729,0.012c0.001-0.729-3.282-0.476-3.627-0.355C45.244,105.527,45.876,105.643,46.538,105.596
	C46.883,105.643,46.002,105.394,46.538,105.596z"/>
</svg>
