<?xml version="1.0" encoding="utf-8"?>
<!-- Generator: Adobe Illustrator 16.0.4, SVG Export Plug-In . SVG Version: 6.00 Build 0)  -->
<!DOCTYPE svg PUBLIC "-//W3C//DTD SVG 1.1//EN" "http://www.w3.org/Graphics/SVG/1.1/DTD/svg11.dtd">
<svg version="1.1" id="Layer_4001" xmlns="http://www.w3.org/2000/svg" xmlns:xlink="http://www.w3.org/1999/xlink" x="0px" y="0px"
	 width="128px" height="128px" viewBox="0 0 128 128" enable-background="new 0 0 128 128" xml:space="preserve">
<path fill-rule="evenodd" clip-rule="evenodd" d="M108.821,32.683c-0.701-0.427-1.005-0.348-1.11,0.587
	c-0.193,1.714-0.988,3.076-2.512,4.072c-4.264,2.787-8.502,5.625-13.238,7.56c-3.842,1.568-7.578,3.319-11.111,5.495
	c-2.225,1.37-4.25,3.008-6.261,4.671c-1.177,0.973-2.354,1.968-3.876,2.406c-1.506,0.434-2.875,0.37-3.944-0.956
	c-0.307-0.38-0.571-0.361-0.913-0.01c-1.097,1.127-2.209,2.24-3.336,3.338c-0.368,0.358-0.616,0.795-0.813,1.236
	c-0.379,0.849-0.061,1.298,0.849,1.51c1.176,0.273,2.296,0.732,3.308,1.389c1.227,0.795,1.191,1.866-0.082,2.618
	c-0.781,0.462-1.611,0.873-2.534,0.96c-0.596,0.056-0.782,0.282-0.659,0.886c0.389,1.904,0.485,3.914,1.165,5.704
	c0.731,1.924,0.833,3.845,0.878,5.812c0.021,0.926,0.575,0.936,1.226,0.98c3.737,0.254,7.429,0.842,10.912,2.225
	c2.488,0.988,4.98,2.107,6.643,4.396c1.002,1.382,1.48,2.886,1.32,4.649c-0.143,1.566-0.342,3.135-0.402,4.699
	c-0.061,1.565-0.609,2.889-1.66,3.895c-1.277,1.223-1.725,2.785-2.22,4.338c-1.675,5.243-3.288,10.506-4.93,15.761
	c-0.099,0.315-0.302,0.61-0.341,0.929c-0.23,1.843-1.566,2.707-2.998,3.529c-3.857,2.215-7.901,2.909-12.182,1.469
	c-2.066-0.695-3.821-1.962-5.518-3.296c-0.44-0.347-0.52-0.928-0.669-1.443c-1.244-4.29-2.432-8.599-3.753-12.866
	c-0.611-1.973-1.25-3.939-1.824-5.926c-0.118-0.406-0.305-0.746-0.6-1.062c-0.537-0.574-1.06-1.171-1.521-1.807
	c-1.054-1.456-1.896-2.997-1.934-4.878c-0.026-1.324-0.127-2.65-0.28-3.965c-0.107-0.926,0.151-1.708,0.603-2.477
	c1.075-1.826,2.549-3.252,4.339-4.363c3.155-1.959,6.629-2.955,10.288-3.356c0.856-0.094,1.701-0.354,2.589-0.185
	c0.438,0.082,0.559-0.234,0.48-0.639c-0.708-3.656-1.427-7.311-2.106-10.973c-0.112-0.604-0.446-0.895-0.923-1.211
	c-1.431-0.949-3.073-1.189-4.691-1.519c-3.74-0.759-7.416-1.741-10.971-3.136c-1.47-0.577-2.889-1.294-3.994-2.447
	c-0.59-0.616-1.074-0.64-1.701-0.148c-0.184,0.144-0.425,0.362-0.669,0.214c-0.333-0.201-0.168-0.537-0.046-0.777
	c0.407-0.801,0.187-1.396-0.473-1.954c-0.868-0.735-1.436-1.703-1.933-2.716c-1.304-2.658-0.235-5.927,2.388-7.297
	c0.307-0.16,0.628-0.195,0.961-0.203c0.58-0.013,1.16-0.021,1.739-0.052c0.276-0.015,0.682,0.143,0.795-0.124
	c0.129-0.304-0.268-0.481-0.495-0.614c-1.088-0.635-1.943-1.542-2.855-2.382c-0.213-0.196-0.471-0.369-0.62-0.608
	c-1.104-1.773-2.866-2.84-4.409-4.141c-0.313-0.264-0.663-0.511-1.036-0.673c-2.157-0.932-3.566-2.631-4.789-4.546
	c-4.008-6.278-5.911-13.281-6.949-20.548c-0.344-2.406-0.396-4.874,0.262-7.283c0.232-0.853,0.58-1.637,1.161-2.31
	c0.798-0.924,0.734-1.484-0.227-2.187c-0.289-0.211-0.998-0.202-0.671-0.776c0.289-0.508,0.908-0.291,1.184,0.045
	c0.932,1.134,1.893,0.826,3,0.305c2.298-1.083,4.427-0.917,6.671,0.514c2.864,1.827,5.809,3.494,8.313,5.839
	c0.901,0.843,1.857,1.646,2.807,2.441c0.895,0.75,1.44,1.631,1.79,2.748c1.099,3.512,2.282,6.997,3.463,10.481
	c0.148,0.438,0.194,1.207,0.707,1.156c0.379-0.037,0.152-0.791,0.153-1.214c0.009-2.615,0.111-5.218,0.864-7.745
	c0.182-0.608-0.029-1.147-0.117-1.71c-0.435-2.787-0.705-5.569-0.459-8.405c0.21-2.428,1.817-5.037,4.751-5.699
	c1.663-0.375,3.347-0.591,5.055-0.458c0.49,0.039,1.018,0.044,1.418,0.386c0.313,0.267,0.927,0.625-0.066,0.812
	c-0.239,0.045-0.452,0.223-0.188,0.373c1.002,0.57,1.107,1.716,1.718,2.529c0.125,0.165,0.208,0.368,0.352,0.512
	c1.756,1.756,1.819,4,1.788,6.257c-0.03,2.199-0.326,4.372-0.635,6.549c-0.244,1.723,0.047,3.471,0.148,5.202
	c0.119,2.029,0.117,4.058,0.2,6.086c0.052,1.271,0.401,2.548-0.071,3.817c-0.102,0.275,0.079,0.562,0.197,0.829
	c0.27,0.605,0.567,1.2,0.79,1.822c0.215,0.601,0.966,1.181,0.543,1.803c-0.54,0.795-1.17,1.601-2.213,1.893
	c-1.276,0.358-2.551,0.73-3.504,1.758c-0.591,0.637-0.954,1.292-0.801,2.227c0.644,3.922,1.194,7.86,1.879,11.775
	c0.203,1.16,0.611,2.319,1.64,3.117c0.376,0.292,0.64,0.331,0.933-0.048c1.087-1.41,2.099-2.879,3.326-4.179
	c0.355-0.375,0.202-0.865,0.229-1.311c0.322-5.473,1.363-10.766,4.028-15.628c1.651-3.012,3.845-5.577,6.538-7.723
	c2.548-2.031,5.553-2.974,8.669-3.491c6.251-1.036,12.384-0.433,18.334,1.789c1.966,0.734,3.396,2.169,4.718,3.729
	c0.239,0.282,0.396,0.635,0.72,0.844C108.821,32.351,108.821,32.517,108.821,32.683z M45.525,49.536
	c-0.371-0.023-0.742-0.056-1.114-0.066c-0.198-0.006-0.468-0.057-0.535,0.186c-0.066,0.239,0.199,0.344,0.364,0.42
	c1.268,0.585,2.207,1.588,3.203,2.511c2.207,2.043,3.914,4.465,5.298,7.124c0.152,0.292,0.295,0.599,0.506,0.845
	c0.2,0.232,0.549,0.316,0.781,0.104c0.257-0.235-0.068-0.434-0.195-0.61c-0.612-0.844-1.056-1.775-1.442-2.735
	c-0.725-1.803-0.752-3.808-1.628-5.575c-0.275-0.555,0.103-0.625,0.568-0.495c0.676,0.188,1.353,0.379,2.039,0.525
	c0.337,0.071,0.796,0.367,1.01,0.024c0.162-0.261-0.288-0.543-0.501-0.772c-0.619-0.666-1.295-1.279-1.91-1.949
	c-0.422-0.459-0.855-0.484-1.444-0.363C48.872,49.049,47.247,49.594,45.525,49.536z M55.908,45.541c0-0.412,0.021-0.826-0.004-1.236
	c-0.06-0.955-0.855-0.698-1.406-0.813c-0.588-0.123-0.676,0.271-0.708,0.733c-0.06,0.878-0.392,1.693-0.739,2.477
	c-0.266,0.601-0.174,0.997,0.276,1.417c0.994,0.928,1.966,1.879,2.95,2.817c0.116,0.11,0.344,0.304,0.362,0.287
	c0.192-0.176,0.02-0.368-0.03-0.548C56.15,48.993,55.976,47.274,55.908,45.541z"/>
</svg>
