<?xml version="1.0" encoding="utf-8"?>
<!-- Generator: Adobe Illustrator 16.0.4, SVG Export Plug-In . SVG Version: 6.00 Build 0)  -->
<!DOCTYPE svg PUBLIC "-//W3C//DTD SVG 1.1//EN" "http://www.w3.org/Graphics/SVG/1.1/DTD/svg11.dtd">
<svg version="1.1" id="Layer_4008" xmlns="http://www.w3.org/2000/svg" xmlns:xlink="http://www.w3.org/1999/xlink" x="0px" y="0px"
	 width="128px" height="128px" viewBox="0 0 128 128" enable-background="new 0 0 128 128" xml:space="preserve">
<g id="gECCMx.tif">
	<g>
		<path fill-rule="evenodd" clip-rule="evenodd" d="M29.842,66.562c0-18.054,0-36.108,0-54.163c0-2.366,0.012-2.396,2.129-1.575
			c3.272,1.268,6.713,1.803,10.155,2.209c4.67,0.551,9.379,0.885,14.079,0.75c6.625-0.191,13.262-0.467,19.719-2.217
			c0.989-0.269,1.955-0.634,2.92-0.988c1.403-0.515,1.399-0.527,1.426,1.049c0.008,0.387,0.002,0.774,0.002,1.161
			c-0.003,14.575-0.008,29.149-0.008,43.724c0.001,21.653,0.005,43.306,0.007,64.959c0.001,2.495-0.058,2.593-2.454,3.431
			c-3.175,1.11-6.473,1.711-9.793,2.085c-4.931,0.56-9.885,0.928-14.852,0.763c-6.374-0.209-12.737-0.597-18.935-2.278
			c-0.991-0.27-1.955-0.642-2.92-0.994c-1.012-0.37-1.594-1.039-1.482-2.196c0.049-0.511,0.007-1.031,0.007-1.546
			C29.842,102.676,29.842,84.619,29.842,66.562z"/>
		<path fill-rule="evenodd" clip-rule="evenodd" d="M98.432,63.222c0,18.126,0,36.254,0,54.381c0,0.26,0.004,0.517,0,0.774
			c-0.022,1.684-0.024,1.688-1.493,0.971c-3.513-1.721-7.304-2.443-11.106-3.14c-3.473-0.634-2.833-0.105-2.841-3.249
			c-0.033-14.13,0.023-28.26-0.044-42.388c-0.014-2.835,0.23-5.654,0.178-8.483c-0.324-17.854-0.067-35.708-0.144-53.562
			c-0.009-2.417-0.254-2.817-2.515-3.749c-2.951-1.215-6.081-1.634-9.218-1.975c-4.891-0.532-9.789-0.521-14.677,0.008
			c-2.62,0.284-5.244,0.605-7.748,1.518c-0.853,0.312-1.695,0.652-2.395,1.233c-1.061,0.881-0.97,1.964,0.222,2.655
			c1.077,0.625,2.293,0.827,3.504,1.006c4.061,0.6,8.102,0.494,12.094-0.471c0.863-0.209,1.028,0.093,1.01,0.809
			c-0.01,0.387-0.016,0.774-0.018,1.161c-0.002,0.54-0.263,0.848-0.806,0.885c-0.515,0.034-1.03,0.067-1.545,0.068
			c-3.936,0.005-7.875,0.117-11.806-0.028c-5.218-0.193-10.4-0.793-15.443-2.258c-1.175-0.342-2.361-0.687-3.372-1.406
			c-0.919-0.655-0.97-1.264-0.213-2.079c0.581-0.626,1.34-0.991,2.109-1.336c3.08-1.384,6.359-2.07,9.653-2.66
			c10.28-1.836,20.663-1.921,31.04-1.462c6.687,0.295,13.349,1.079,19.814,2.989c1.298,0.383,2.545,0.888,3.769,1.473
			c1.448,0.691,2.031,1.68,2.025,3.351c-0.059,16.065-0.036,32.13-0.036,48.195C98.432,58.71,98.432,60.966,98.432,63.222z"/>
		<path fill-rule="evenodd" clip-rule="evenodd" d="M64.45,3.785C68.4,3.693,72.692,4.018,76.918,4.99
			c1.001,0.229,1.999,0.522,2.944,0.916c1.194,0.499,1.236,1.123,0.206,1.962c-0.656,0.535-1.436,0.843-2.229,1.121
			c-2.805,0.982-5.708,1.534-8.643,1.904c-1.21,0.152-2.401,0.465-3.642,0.42c-0.653-0.023-0.938-0.268-0.928-0.918
			c0.013-0.837-0.024-1.676-0.008-2.514c0.015-0.723-0.402-0.9-0.992-0.795c-0.566,0.102-1.115,0.296-1.676,0.431
			c-4.394,1.06-8.81,0.956-13.22,0.149c-0.574-0.105-1.559-0.046-1.622-0.776c-0.072-0.821,0.896-0.946,1.523-1.195
			c2.049-0.812,4.222-1.112,6.38-1.451C58.013,3.772,61.044,3.772,64.45,3.785z"/>
	</g>
</g>
</svg>
