<?xml version="1.0" encoding="utf-8"?>
<!-- Generator: Adobe Illustrator 16.0.4, SVG Export Plug-In . SVG Version: 6.00 Build 0)  -->
<!DOCTYPE svg PUBLIC "-//W3C//DTD SVG 1.1//EN" "http://www.w3.org/Graphics/SVG/1.1/DTD/svg11.dtd">
<svg version="1.1" id="Layer_4013" xmlns="http://www.w3.org/2000/svg" xmlns:xlink="http://www.w3.org/1999/xlink" x="0px" y="0px"
	 width="128px" height="128px" viewBox="0 0 128 128" enable-background="new 0 0 128 128" xml:space="preserve">
<path d="M101.541,13.771c-0.474-0.341-0.961-0.646-1.439-0.973c-8.205-5.772-17.848-9.625-28.29-10.921
	c-0.037-0.026-0.078-0.04-0.113-0.071c-0.148,0-0.297,0-0.446,0c-2.381-0.274-4.798-0.43-7.252-0.43
	c-10.993,0-21.321,2.831-30.31,7.791C12.249,20.657-1.193,44.271,0.91,68.856C1.756,78.75,4.912,88.015,9.874,96.1
	c10.931,18.51,31.073,30.934,54.126,30.934c23.182,0,43.417-12.564,54.306-31.245c2.489-4.106,4.558-8.562,6.092-13.355
	C132.526,57.03,123.21,29.36,101.541,13.771z M51.949,29.035c10.398-2.773,20.543-1.712,29.605,4.107
	c10.42,6.692,16.615,16.422,17.087,29.031c0.353,9.413-2.611,17.821-8.936,25.083c-4.439,5.098-9.926,8.312-16.08,10.659
	c-1.705,0.649-3.469,1.029-5.504,0.669c-0.925-2.434,0.017-4.95-0.907-7.087c-1.479-0.009-1.205,1.032-1.525,1.646
	c-0.256-0.584,0.034-1.389-1.101-1.931c-1.897,2.277-0.059,5.377-1.437,7.684c-0.845,0.896-1.947,0.719-2.98,0.734
	c-4.09,0.061-7.881-1.042-11.671-2.562c-7.75-3.109-13.922-8.051-18.119-15.227c-4.435-7.584-6.376-15.766-4.64-24.563
	c0.979-4.959,3.049-9.549,5.877-13.642C36.612,36.414,43.379,31.32,51.949,29.035z"/>
</svg>
