<?xml version="1.0" encoding="utf-8"?>
<!-- Generator: Adobe Illustrator 16.0.4, SVG Export Plug-In . SVG Version: 6.00 Build 0)  -->
<!DOCTYPE svg PUBLIC "-//W3C//DTD SVG 1.1//EN" "http://www.w3.org/Graphics/SVG/1.1/DTD/svg11.dtd">
<svg version="1.1" id="Layer_4014" xmlns="http://www.w3.org/2000/svg" xmlns:xlink="http://www.w3.org/1999/xlink" x="0px" y="0px"
	 width="128px" height="128px" viewBox="0 0 128 128" enable-background="new 0 0 128 128" xml:space="preserve">
<g>
	<g id="_x38_1yZFw.tif">
		<g>
			<path fill-rule="evenodd" clip-rule="evenodd" d="M32.36,30.138c0.092,2.474,0.194,4.945,0.326,7.415
				c0.04,0.744,0.587,1.264,1.166,1.688c0.218,0.159,0.388,0.05,0.416-0.239c0.069-0.723,0.221-1.42,0.466-2.107
				c0.099-0.275,0.055-0.603,0.061-0.908c0.044-2.342,0.082-4.685,0.13-7.028c0.009-0.452,0.167-0.881,0.242-1.324
				c0.031-0.177,0.092-0.365-0.021-0.513c-0.553-0.723-0.513-1.552-0.485-2.395c0.069-2.199,0.215-4.39,0.623-6.557
				c0.033-0.174,0.069-0.347,0.1-0.52c0.285-1.589,1.301-2.492,2.787-2.929c0.591-0.173,1.174-0.101,1.728,0.191
				c0.807,0.424,1.428,1.022,1.829,1.85c0.618,1.278,1.038,2.625,1.376,3.996c0.475,1.918,0.769,3.872,1.076,5.821
				c0.14,0.888,0.26,1.779,0.398,2.667c0.164,1.056,0.14,2.114,0.119,3.172c-0.021,1.091-0.086,2.181-0.116,3.271
				c-0.009,0.287,0.008,0.582,0.065,0.863c0.209,1.021,0.068,2.013-0.209,2.996c-0.076,0.271-0.108,0.535-0.023,0.805
				c0.178,0.576,0.118,1.148-0.061,1.706c-0.111,0.349-0.122,0.69-0.061,1.043c0.066,0.38,0.125,0.76,0.185,1.141
				c0.08,0.508,0.176,1.003,0.508,1.429c0.268,0.345,0.221,0.734,0.017,1.088c-0.154,0.268-0.195,0.529-0.14,0.827
				c0.358,1.974,0.676,3.956,1.171,5.9c0.331,1.305,1.019,2.42,1.998,3.346c0.518,0.489,0.635,0.466,0.978-0.178
				c0.418-0.783,0.692-1.62,0.883-2.487c0.278-1.253,0.493-2.519,0.711-3.783c0.32-1.852,0.915-3.604,1.88-5.225
				c0.265-0.443,0.571-0.858,0.899-1.251c0.917-1.096,1.844-2.185,2.886-3.167c1.31-1.235,2.865-1.854,4.666-1.869
				c0.64-0.005,1.154,0.235,1.553,0.729c0.355,0.439,0.621,0.934,0.854,1.446c0.222,0.486,0.177,0.965-0.035,1.444
				c-0.469,1.056-0.928,2.116-1.396,3.173c-0.113,0.253-0.189,0.502-0.15,0.789c0.056,0.413-0.084,0.766-0.436,1.005
				c-0.192,0.131-0.262,0.291-0.264,0.521c-0.004,0.439-0.07,0.868-0.42,1.189c-0.078,0.071-0.094,0.164-0.099,0.262
				c-0.005,0.096,0.003,0.199-0.028,0.286c-0.187,0.517-0.404,1.022-0.283,1.598c0.024,0.116-0.065,0.249-0.16,0.34
				c-0.294,0.285-0.347,0.636-0.303,1.021c0.028,0.245,0.038,0.49-0.222,0.636c-0.132,0.075-0.116,0.189-0.066,0.292
				c0.155,0.323,0.051,0.586-0.16,0.84c-0.227,0.273-0.202,0.607-0.158,0.923c0.069,0.486,0.028,0.955-0.083,1.43
				c-0.603,2.584-0.963,5.206-1.112,7.853c-0.065,1.156-0.501,2.161-1.179,3.053c-2.464,3.241-4.543,6.73-6.645,10.207
				c-0.667,1.105-1.396,2.16-2.483,2.91c-0.217,0.148-0.37,0.365-0.444,0.615c-0.194,0.666-0.629,1.147-1.162,1.554
				c-0.281,0.213-0.479,0.458-0.521,0.82c-0.025,0.234-0.136,0.439-0.348,0.552c-0.611,0.325-0.683,0.882-0.658,1.483
				c0.024,0.597,0.117,1.191,0.269,1.76c0.302,1.143,0.178,2.219-0.292,3.284c-0.215,0.482-0.384,0.987-0.574,1.48
				c-0.097,0.248-0.116,0.494-0.022,0.751c0.706,1.923,0.924,3.89,0.578,5.917c-0.11,0.648-0.151,1.309-0.254,1.957
				c-0.04,0.247,0.023,0.426,0.161,0.621c0.654,0.935,1.275,1.89,1.947,2.81c0.447,0.612,0.516,1.253,0.354,1.962
				c-0.102,0.455-0.218,0.905-0.39,1.338c-0.082,0.208-0.064,0.285,0.19,0.344c0.487,0.112,0.612,0.341,0.5,0.865
				c-0.167,0.778-0.494,1.487-1.011,2.105c-1.09,1.301-2.432,2.201-4.06,2.72c-2.312,0.737-4.65,1.339-7.046,1.742
				c-2.267,0.382-4.553,0.586-6.825,0.912c-1.081,0.156-2.158,0.336-3.233,0.521c-1.386,0.239-2.781,0.225-4.179,0.205
				c-0.594-0.01-1.19-0.008-1.78-0.069c-1.583-0.161-3.068-0.658-4.473-1.398c-0.478-0.252-0.763-0.628-0.748-1.192
				c0.009-0.303,0.136-0.523,0.431-0.628c0.045-0.016,0.089-0.045,0.135-0.049c0.991-0.107,1.275-0.966,1.737-1.633
				c0.082-0.115,0.06-0.246,0.053-0.374c-0.057-0.961-0.157-1.907-0.429-2.846c-0.526-1.814-0.813-3.665-0.501-5.562
				c0.146-0.895,0.025-1.796,0.06-2.693c0.03-0.789,0.148-1.564,0.284-2.338c0.133-0.761,0.215-1.515,0.025-2.289
				c-0.331-1.351-0.151-2.715-0.025-4.073c0.062-0.689,0.098-1.376,0.019-2.067c-0.043-0.386-0.122-0.753-0.269-1.116
				c-0.145-0.36-0.346-0.754,0.052-1.102c-0.049-0.481,0.35-0.946-0.041-1.458c-0.265-0.348-0.406-0.805-0.297-1.278
				c0.038-0.164-0.063-0.274-0.144-0.392c-0.208-0.301-0.319-0.631-0.306-0.995c0.01-0.282-0.058-0.537-0.215-0.773
				c-0.216-0.324-0.335-0.687-0.422-1.066c-0.308-1.314-0.824-2.563-1.21-3.854c-0.772-2.573-1.333-5.185-1.653-7.855
				c-0.281-2.344-0.667-4.672-0.983-7.011c-0.189-1.4-0.464-2.786-0.677-4.18c-0.11-0.726-0.212-1.455-0.335-2.18
				c-0.062-0.353-0.194-0.678-0.312-1.009c-0.109-0.304-0.203-0.608-0.203-0.935c-0.001-0.111-0.002-0.24-0.055-0.33
				c-0.279-0.47-0.332-0.999-0.42-1.52c-0.169-0.999-0.679-1.864-1.099-2.763c-0.78-1.672-1.579-3.335-2.369-5.003
				c-0.455-0.96-0.798-1.96-1.067-2.987C3.27,41.597,3.18,41.054,2.77,40.642c-0.141-0.142-0.178-0.351-0.128-0.544
				c0.115-0.45-0.019-0.854-0.182-1.261c-0.522-1.296-0.98-2.613-1.291-3.979c-0.46-2.018-0.663-4.053-0.449-6.119
				c0.053-0.515,0.185-1.011,0.421-1.473c0.484-0.946,1.437-1.49,2.349-1.333c0.614,0.106,1.081,0.472,1.495,0.912
				c0.803,0.856,1.325,1.889,1.792,2.948c0.831,1.88,1.536,3.807,2.068,5.795c0.08,0.296,0.162,0.604,0.379,0.824
				c0.59,0.59,0.782,1.35,0.94,2.123c0.4,1.942,1.183,3.725,2.222,5.403c0.186,0.299,0.38,0.595,0.649,0.832
				c0.331,0.292,0.71,0.423,1.152,0.385c0.617-0.054,0.88-0.517,0.605-1.082c-0.035-0.072-0.073-0.143-0.116-0.211
				c-0.659-1.051-1.032-2.208-1.202-3.426c-0.305-2.198-0.851-4.344-1.336-6.504c-0.33-1.47-0.551-2.964-0.843-4.445
				c-0.356-1.812-0.699-3.626-0.882-5.464c-0.191-1.901-0.399-3.808-0.226-5.719c0.12-1.33,0.829-2.389,1.845-3.215
				c1.013-0.823,2.406-0.736,3.561,0.148c0.695,0.532,1.156,1.241,1.509,2.026c0.732,1.63,1.258,3.329,1.674,5.064
				c0.592,2.466,1.012,4.967,1.467,7.461c0.47,2.573,0.99,5.136,1.519,7.697c0.116,0.566,0.222,1.134,0.32,1.703
				c0.062,0.359,0.217,0.671,0.436,0.953c0.187,0.239,0.428,0.438,0.537,0.735c0.031,0.078,0.094,0.15,0.174,0.146
				c0.114-0.005,0.136-0.119,0.167-0.208c0.011-0.029,0.017-0.064,0.012-0.095c-0.119-0.761,0.196-1.452,0.354-2.167
				c0.048-0.215,0.055-0.403-0.077-0.59c-0.442-0.629-0.564-1.317-0.351-2.06c0.05-0.175,0.026-0.35,0.016-0.526
				c-0.08-1.443-0.161-2.886-0.238-4.33c-0.025-0.468-0.117-0.928-0.246-1.373c-0.379-1.315-0.396-2.666-0.376-4.013
				c0.021-1.432,0.011-2.852-0.29-4.263c-0.165-0.771-0.114-1.564-0.085-2.353c0.062-1.652,0.086-3.305,0.15-4.958
				c0.03-0.794,0.25-1.546,0.631-2.251c1.287-2.382,4.361-2.131,5.664-0.647c0.551,0.627,0.912,1.354,1.224,2.115
				c0.544,1.33,0.836,2.729,1.11,4.13c0.395,2.016,0.787,4.033,1.035,6.074c0.19,1.564,0.278,3.135,0.311,4.709
				C32.253,28.856,32.318,29.498,32.36,30.138z"/>
		</g>
	</g>
	<g id="_x38_1yZFw.tif_1_">
		<g>
			<path fill-rule="evenodd" clip-rule="evenodd" d="M95.938,28.393c0.137-1.569,0.326-3.131,0.619-4.679
				c0.381-2.02,0.905-4.008,1.431-5.993c0.366-1.379,0.749-2.757,1.379-4.048c0.361-0.739,0.769-1.44,1.359-2.03
				c1.398-1.396,4.481-1.444,5.609,1.018c0.335,0.729,0.505,1.494,0.483,2.288c-0.046,1.653-0.131,3.304-0.177,4.957
				c-0.022,0.789-0.024,1.583-0.239,2.342c-0.393,1.389-0.495,2.805-0.568,4.235c-0.068,1.346-0.174,2.692-0.639,3.98
				c-0.158,0.437-0.28,0.888-0.335,1.354c-0.174,1.436-0.35,2.87-0.524,4.305c-0.021,0.176-0.057,0.348-0.018,0.526
				c0.163,0.755-0.003,1.433-0.485,2.031c-0.146,0.179-0.149,0.367-0.115,0.584c0.111,0.724,0.38,1.434,0.211,2.185
				c-0.007,0.03-0.003,0.065,0.006,0.095c0.024,0.092,0.039,0.207,0.152,0.22c0.082,0.009,0.148-0.059,0.183-0.135
				c0.13-0.289,0.384-0.471,0.585-0.698c0.237-0.267,0.412-0.567,0.498-0.921c0.135-0.562,0.277-1.122,0.432-1.678
				c0.695-2.522,1.382-5.045,2.021-7.582c0.617-2.458,1.201-4.926,1.953-7.349c0.529-1.705,1.165-3.365,2.004-4.943
				c0.404-0.76,0.91-1.437,1.638-1.923c1.211-0.807,2.607-0.802,3.562,0.085c0.961,0.892,1.598,1.995,1.631,3.33
				c0.048,1.919-0.285,3.808-0.601,5.692c-0.305,1.822-0.765,3.61-1.24,5.395c-0.388,1.458-0.708,2.934-1.133,4.379
				c-0.627,2.124-1.312,4.229-1.761,6.402c-0.249,1.205-0.697,2.334-1.425,3.341c-0.047,0.065-0.09,0.133-0.129,0.202
				c-0.312,0.546-0.08,1.026,0.533,1.12c0.438,0.067,0.825-0.04,1.174-0.309c0.284-0.219,0.498-0.5,0.703-0.788
				c1.147-1.606,2.044-3.333,2.572-5.245c0.209-0.761,0.449-1.507,1.077-2.057c0.232-0.204,0.333-0.507,0.432-0.797
				c0.662-1.949,1.493-3.825,2.444-5.647c0.536-1.025,1.125-2.021,1.983-2.823c0.441-0.413,0.931-0.746,1.55-0.812
				c0.922-0.097,1.836,0.509,2.258,1.484c0.205,0.477,0.304,0.981,0.323,1.498c0.078,2.076-0.259,4.093-0.851,6.076
				c-0.399,1.342-0.942,2.626-1.549,3.886c-0.189,0.395-0.35,0.791-0.264,1.247c0.037,0.196-0.014,0.403-0.164,0.535
				c-0.436,0.384-0.561,0.92-0.732,1.434c-0.337,1.006-0.744,1.982-1.261,2.91c-0.898,1.612-1.804,3.219-2.692,4.836
				c-0.477,0.87-1.043,1.7-1.278,2.686c-0.122,0.513-0.209,1.037-0.519,1.488c-0.059,0.085-0.068,0.214-0.075,0.325
				c-0.022,0.328-0.135,0.624-0.265,0.92c-0.14,0.323-0.294,0.639-0.377,0.987c-0.17,0.715-0.32,1.436-0.479,2.152
				c-0.305,1.378-0.67,2.743-0.949,4.127c-0.469,2.313-1.009,4.612-1.441,6.932c-0.493,2.645-1.226,5.213-2.164,7.73
				c-0.472,1.263-1.068,2.474-1.461,3.766c-0.114,0.373-0.256,0.727-0.492,1.036c-0.172,0.226-0.258,0.475-0.266,0.758
				c-0.012,0.364-0.145,0.686-0.371,0.972c-0.088,0.112-0.194,0.217-0.169,0.382c0.077,0.48-0.094,0.927-0.38,1.257
				c-0.423,0.485-0.056,0.976-0.137,1.452c0.375,0.373,0.148,0.752-0.021,1.103c-0.169,0.353-0.272,0.714-0.342,1.096
				c-0.124,0.686-0.134,1.372-0.116,2.063c0.036,1.364,0.127,2.738-0.293,4.064c-0.24,0.76-0.207,1.518-0.125,2.284
				c0.084,0.782,0.15,1.562,0.13,2.353c-0.024,0.897-0.205,1.79-0.117,2.691c0.187,1.913-0.223,3.742-0.866,5.518
				c-0.331,0.918-0.494,1.856-0.613,2.812c-0.016,0.126-0.045,0.255,0.027,0.375c0.418,0.697,0.645,1.571,1.627,1.743
				c0.046,0.009,0.087,0.039,0.133,0.059c0.287,0.124,0.399,0.352,0.388,0.654c-0.021,0.563-0.331,0.921-0.823,1.141
				c-1.452,0.646-2.965,1.045-4.557,1.103c-0.592,0.023-1.188-0.02-1.779-0.049c-1.396-0.071-2.79-0.148-4.157-0.479
				c-1.062-0.255-2.123-0.506-3.19-0.73c-2.246-0.477-4.515-0.83-6.752-1.359c-2.364-0.56-4.657-1.314-6.916-2.202
				c-1.592-0.625-2.87-1.61-3.873-2.98c-0.476-0.649-0.754-1.379-0.87-2.167c-0.077-0.53,0.062-0.75,0.558-0.831
				c0.256-0.04,0.279-0.117,0.211-0.33c-0.143-0.443-0.229-0.899-0.302-1.36c-0.114-0.719-0.004-1.353,0.482-1.934
				c0.73-0.875,1.414-1.788,2.128-2.677c0.149-0.186,0.224-0.359,0.201-0.608c-0.06-0.655-0.058-1.316-0.125-1.97
				c-0.213-2.047,0.136-3.995,0.965-5.866c0.11-0.25,0.107-0.497,0.028-0.752c-0.158-0.505-0.294-1.018-0.476-1.516
				c-0.399-1.093-0.453-2.175-0.076-3.295c0.189-0.559,0.319-1.145,0.384-1.737c0.065-0.6,0.029-1.16-0.56-1.524
				c-0.203-0.126-0.301-0.338-0.311-0.573c-0.018-0.364-0.199-0.622-0.465-0.854c-0.506-0.438-0.908-0.948-1.061-1.626
				c-0.055-0.255-0.194-0.481-0.401-0.644c-1.036-0.819-1.693-1.921-2.287-3.065c-1.867-3.607-3.713-7.227-5.96-10.623
				c-0.616-0.933-0.987-1.964-0.976-3.123c0.026-2.652-0.162-5.291-0.594-7.909c-0.079-0.481-0.089-0.952,0.011-1.432
				c0.065-0.313,0.112-0.645-0.096-0.932c-0.193-0.268-0.28-0.537-0.104-0.849c0.056-0.1,0.079-0.213-0.049-0.295
				c-0.248-0.164-0.221-0.407-0.177-0.649c0.067-0.381,0.039-0.735-0.236-1.038c-0.089-0.098-0.17-0.236-0.138-0.35
				c0.159-0.566-0.024-1.085-0.178-1.613c-0.025-0.09-0.01-0.192-0.01-0.288c0.002-0.099-0.007-0.192-0.08-0.268
				c-0.329-0.344-0.367-0.775-0.342-1.214c0.013-0.23-0.045-0.395-0.23-0.538c-0.333-0.263-0.451-0.624-0.368-1.032
				c0.06-0.283-0.002-0.537-0.097-0.797c-0.397-1.085-0.787-2.173-1.185-3.258c-0.18-0.491-0.194-0.972,0.059-1.443
				c0.268-0.496,0.564-0.973,0.949-1.388c0.429-0.466,0.959-0.671,1.597-0.624c1.797,0.132,3.308,0.853,4.534,2.171
				c0.975,1.048,1.828,2.195,2.672,3.35c0.301,0.414,0.579,0.847,0.813,1.306c0.857,1.681,1.335,3.469,1.534,5.338
				c0.135,1.276,0.266,2.552,0.461,3.821c0.134,0.877,0.353,1.729,0.718,2.54c0.301,0.665,0.416,0.695,0.965,0.241
				c1.038-0.859,1.798-1.927,2.213-3.207c0.622-1.909,1.07-3.866,1.557-5.812c0.075-0.293,0.051-0.557-0.085-0.834
				c-0.181-0.367-0.202-0.759,0.087-1.085c0.36-0.402,0.489-0.892,0.602-1.393c0.086-0.376,0.17-0.751,0.26-1.125
				c0.084-0.349,0.096-0.689,0.008-1.045c-0.143-0.568-0.164-1.144,0.051-1.707c0.103-0.264,0.088-0.528,0.029-0.804
				c-0.211-0.999-0.286-1.998-0.012-3.003c0.076-0.276,0.111-0.569,0.122-0.856c0.04-1.091,0.048-2.182,0.099-3.272
				c0.047-1.058,0.095-2.114,0.327-3.158c0.194-0.877,0.374-1.758,0.572-2.635c0.435-1.926,0.855-3.856,1.454-5.738
				c0.429-1.346,0.936-2.663,1.637-3.897c0.454-0.799,1.113-1.355,1.946-1.726c0.572-0.254,1.158-0.289,1.737-0.077
				c1.454,0.533,2.409,1.5,2.588,3.105c0.021,0.176,0.045,0.35,0.065,0.526c0.266,2.189,0.267,4.385,0.193,6.584
				c-0.03,0.842-0.044,1.672-0.644,2.357c-0.123,0.141-0.073,0.333-0.056,0.511c0.047,0.447,0.176,0.886,0.155,1.337
				c-0.106,2.34-0.223,4.682-0.331,7.022c-0.015,0.305-0.079,0.629,0,0.91c0.199,0.702,0.306,1.408,0.327,2.134
				c0.009,0.29,0.172,0.41,0.4,0.265c0.604-0.384,1.185-0.867,1.271-1.606c0.296-2.457,0.561-4.915,0.814-7.377
				C95.773,29.667,95.882,29.032,95.938,28.393z"/>
		</g>
	</g>
</g>
</svg>
