<?xml version="1.0" encoding="utf-8"?>
<!-- Generator: Adobe Illustrator 16.0.4, SVG Export Plug-In . SVG Version: 6.00 Build 0)  -->
<!DOCTYPE svg PUBLIC "-//W3C//DTD SVG 1.1//EN" "http://www.w3.org/Graphics/SVG/1.1/DTD/svg11.dtd">
<svg version="1.1" id="Layer_4015" xmlns="http://www.w3.org/2000/svg" xmlns:xlink="http://www.w3.org/1999/xlink" x="0px" y="0px"
	 width="128px" height="128px" viewBox="0 0 128 128" enable-background="new 0 0 128 128" xml:space="preserve">
<g>
	<path fill-rule="evenodd" clip-rule="evenodd" d="M22.686,35.114c-1.211-4.527-2.445-9.046-3.622-13.583
		c-0.776-2.987-1.41-6.012,1.134-8.545c1.954-1.944,5.624-3.074,8.137,0.278c1.063,1.417,2.015,2.882,2.711,4.512
		c0.149,0.35,0.286,0.858,0.717,0.789c0.495-0.08,0.304-0.615,0.279-0.949c-0.113-1.56-0.315-3.116-0.395-4.678
		c-0.151-2.992,0.516-5.662,3.271-7.363c2.731-1.687,5.66-0.845,7.188,1.976c0.807,1.486,1.143,3.108,1.583,4.708
		c0.084,0.304,0.071,0.815,0.589,0.751c0.078-0.009,0.113-0.533,0.134-0.822c0.089-1.267,0.055-2.555,0.271-3.799
		c0.513-2.96,2.165-4.372,4.942-4.4c3.104-0.031,5.615,1.728,5.96,4.55c0.644,5.258,1.854,10.397,2.976,15.559
		c0.092,0.427-0.063,0.929,0.355,1.265c0.173-0.448,0.451-0.886,0.5-1.349c0.396-3.693,0.512-7.421,1.43-11.047
		c0.338-1.337,0.695-2.629,1.981-3.458c2.686-1.73,5.692-0.884,7.093,2.012c0.838,1.734,0.92,3.591,0.955,5.447
		c0.048,2.545,0.008,5.093,0.017,7.64c0.001,0.287,0.018,0.786,0.137,0.823c0.474,0.145,0.658-0.312,0.781-0.641
		c1.304-3.485,2.28-7.065,3.215-10.666c0.882-3.393,1.55-6.866,3.365-9.965c1.466-2.508,3.729-4.015,5.823-3.675
		c2.537,0.411,4.378,2.506,4.784,5.618c0.52,3.991-0.669,7.751-1.662,11.54c-0.867,3.307-1.633,6.639-2.414,9.967
		c-0.062,0.269-0.444,0.742,0.172,0.86c0.104,0.02,0.339-0.417,0.445-0.671c2.495-5.957,5.766-11.532,8.532-17.355
		c0.582-1.227,1.374-2.374,2.19-3.466c1.472-1.966,3.478-2.746,5.927-2.451c2.986,0.359,4.544,2.014,4.582,5.059
		c0.034,2.79-0.812,5.392-1.816,7.954c-0.128,0.331-0.511,0.815-0.11,1.042c0.372,0.211,0.594-0.323,0.809-0.625
		c0.625-0.873,1.206-1.785,1.896-2.604c1.462-1.734,3.352-2.383,5.533-1.734c2.352,0.698,3.414,2.518,3.653,4.834
		c0.203,1.978-0.217,3.89-0.829,5.772c-2.12,6.519-5.186,12.665-7.528,19.088c-2.623,7.203-6.369,13.813-10.053,20.486
		c-2.555,4.625-4.219,9.661-5.772,14.706c-0.806,2.615-1.384,5.305-2.271,7.888c-0.443,1.288-0.2,2.153,0.529,3.212
		c2.61,3.78,5.053,7.678,7.687,11.439c1.117,1.595,0.943,2.793-0.318,4.143c-2.741,2.934-6.348,4.54-9.776,6.374
		c-1.492,0.8-2.111,1.634-2.223,3.319c-0.219,3.314-0.723,6.609-1.122,9.912c-0.314,2.591-0.891,3.156-3.43,2.553
		c-3.991-0.95-7.935-2.118-11.878-3.257c-5.634-1.631-11.382-2.8-17.059-4.245c-7.278-1.856-14.613-3.635-21.34-7.173
		c-0.519-0.273-1.054-0.53-1.531-0.865c-1.924-1.359-2.083-2.359-0.885-4.415c2.361-4.056,4.635-8.164,7.047-12.187
		c0.787-1.312,0.765-2.421,0.319-3.858c-2.694-8.668-7.1-16.484-11.803-24.159c-3.751-6.123-6.249-12.806-8.731-19.49
		c-1.495-4.024-3.053-8.027-4.105-12.207c-0.543-2.158-0.864-4.203,0.682-6.127c2.442-3.038,6.133-2.688,7.738,0.861
		c0.764,1.69,1.514,3.363,2.629,4.853c0.044,0.074,0.089,0.148,0.127,0.225c0.002,0.004-0.059,0.039-0.091,0.059
		C22.726,35.275,22.706,35.194,22.686,35.114z M97.383,59.905c-2.477,0.691-3.291,0.504-4.501-1.803
		c-2.398-4.576-3.713-9.444-3.259-14.68c0.205-2.347,0.349-4.679-0.472-6.969c-0.417-1.171-1.062-2.01-2.213-2.57
		c-3.906-1.897-7.222-0.422-8.172,3.958c-0.723,3.334-1.162,6.729-1.3,10.172c-0.148,3.71,0.751,7.387,0.031,11.119
		c-1.253,6.519-2.846,13.01-2.306,19.747c0.069,0.877-0.228,1.725-0.668,2.522c-1.008,1.829-2.455,2.425-4.402,1.79
		c-0.701-0.229-1.326-0.534-1.284-1.364c0.045-0.909,0.726-1.099,1.473-0.948c1.751,0.356,2.261-0.713,2.476-2.106
		c0.116-0.768,0.319-1.575,0.199-2.318c-0.53-3.261-0.054-6.466,0.582-9.619c1.199-5.956,2.146-11.875,1.641-18.018
		c-0.336-4.089,0.432-8.173,1.435-12.192c0.614-2.458,1.996-4.854,3.567-6.168c1.856-1.55,2.117-3.245,2.723-5.087
		c1.038-3.161,1.525-6.457,2.429-9.66c0.919-3.266,1.579-6.676,0.858-10.142c-0.255-1.224-0.717-2.272-2.073-2.557
		c-1.339-0.28-2.19,0.468-2.96,1.459c-1.281,1.652-2.157,3.467-2.613,5.512c-1.636,7.359-3.931,14.51-6.563,21.576
		c-0.819,2.197-2.265,2.936-4.235,3.388c-0.65,0.149-1.181,0.145-1.492-0.475c-0.293-0.585-0.18-1.301,0.369-1.559
		c1.551-0.729,1.647-2.115,1.672-3.472c0.085-4.699,0.108-9.398,0.107-14.097c0-0.665-0.213-1.346-0.418-1.99
		c-0.371-1.167-0.945-2.249-2.377-2.21c-1.505,0.04-2.211,0.999-2.449,2.431c-0.4,2.409-0.918,4.793-1.11,7.241
		c-0.464,5.944-0.795,11.89-2.303,17.724c-1.516,5.861-2.856,11.786-3.891,17.749c-1.013,5.844-2.857,11.358-5.408,16.663
		c-5.635,11.713-11.986,23.043-18.532,34.265c-1.288,2.208-1.319,2.387,0.952,3.506c5.638,2.781,11.654,4.486,17.708,6.081
		c5.574,1.469,11.264,2.445,16.798,4.082c4.213,1.244,8.438,2.458,12.701,3.511c2.471,0.61,2.497,0.451,2.868-2.068
		c1.053-7.163,1.617-14.381,2.492-21.565c1.106-9.071,2.865-17.925,5.957-26.549c1.752-4.887,3.738-9.651,5.908-14.353
		c1.192-0.822,1.542-2.212,2.26-3.354c3.406-5.417,5.36-11.486,7.773-17.348c1.86-4.519,3.766-9.018,5.564-13.561
		c0.796-2.008,1.184-4.148,1.215-6.312c0.021-1.41-0.271-2.828-1.838-3.353c-1.449-0.485-2.426,0.452-3.242,1.467
		c-0.98,1.218-1.891,2.486-2.531,3.939c-1.539,3.49-3.076,6.981-4.715,10.425c-1.816,3.822-3.648,7.68-8.467,8.565
		c-0.645,0.118-1.043,0.566-1.062,1.229c-0.197,6.144-0.783,12.398,4.684,16.987C97.379,58.89,97.354,59.418,97.383,59.905z
		 M37.489,41.603c0.023,0.194,0.056,0.388,0.068,0.583c0.062,0.927,0.579,2.161-0.86,2.375c-1.512,0.224-1.301-1.188-1.433-2.054
		c-0.367-2.415-0.544-4.859-0.932-7.271c-1.162-7.242-3.897-13.917-7.661-20.159c-1.216-2.019-3.271-1.948-4.898-0.223
		c-1.528,1.62-1.117,3.452-0.618,5.253c1.514,5.461,3.114,10.9,4.636,16.36c0.919,3.295,1.784,6.607,2.621,9.924
		c0.483,1.918,0.031,3.705-1.141,5.266c-0.429,0.572-1.15,0.836-1.828,0.389c-0.614-0.405-0.43-1.022-0.142-1.563
		c0.608-1.142,1.286-2.324,0.399-3.565c-3.276-4.584-4.959-9.943-7.336-14.964c-0.617-1.302-1.188-2.704-2.96-2
		c-1.503,0.597-2.296,1.804-1.771,3.538c2.58,8.52,5.062,17.104,8.99,25.109c4.942,10.074,11.627,19.256,15.438,29.923
		c0.536,1.501,1.11,0.989,1.644,0.006c2.887-5.326,5.632-10.723,8.277-16.173c2.45-5.048,4.35-10.255,5.467-15.746
		c1.423-6.993,2.671-14.022,4.475-20.934c0.345-1.323,0.566-2.609,0.096-4.024c-1.447-4.369-2.455-8.845-3.189-13.4
		c-0.388-2.409-0.995-4.784-1.195-7.23c-0.055-0.678-0.217-1.359-0.417-2.012c-0.561-1.84-1.886-2.748-3.725-2.614
		c-2.056,0.151-2.507,1.624-2.609,3.28c-0.378,6.087,0.41,12.125,0.828,18.178c0.276,4.006,0.518,8.014,0.753,12.022
		c0.047,0.797,0.016,1.672-1.048,1.779c-1.093,0.11-1.233-0.718-1.291-1.546c-0.014-0.195-0.026-0.392-0.027-0.587
		c-0.01-7.193-1.258-14.209-3.171-21.109c-0.834-3.009-1.385-6.112-2.658-8.989c-0.522-1.179-1.216-2.394-2.72-2.311
		c-1.508,0.083-2.429,1.183-3.04,2.469c-0.75,1.582-0.512,3.267-0.312,4.919C35.285,23.538,36.39,32.57,37.489,41.603z
		 M104.344,10.535c0.083-1.297,0.188-2.677-1.261-3.303c-1.54-0.667-3.085-0.579-4.351,0.695c-0.548,0.554-1.14,1.131-1.484,1.812
		c-3.343,6.625-6.631,13.277-9.956,19.912c-0.396,0.792-0.643,1.462,0.394,1.914c2.326,1.016,3.645,2.875,4.335,5.239
		c0.211,0.725,0.516,1.422,1.386,1.021c1.29-0.596,2.703-0.993,3.173-2.734c1.844-6.797,4.287-13.401,6.7-20.012
		C103.819,13.6,104.346,12.131,104.344,10.535z M86.902,107.731c-0.13,1.396,0.226,1.681,1.763,0.958
		c2.565-1.202,4.905-2.778,7.127-4.529c0.812-0.64,1.08-1.366,0.352-2.241c-2.187-2.627-3.729-5.69-5.729-8.443
		c-0.225-0.31-0.379-0.773-0.809-0.741c-0.693,0.053-0.516,0.723-0.582,1.13C88.312,98.382,87.635,102.907,86.902,107.731z"/>
</g>
</svg>
