<?xml version="1.0" encoding="utf-8"?>
<!-- Generator: Adobe Illustrator 16.0.4, SVG Export Plug-In . SVG Version: 6.00 Build 0)  -->
<!DOCTYPE svg PUBLIC "-//W3C//DTD SVG 1.1//EN" "http://www.w3.org/Graphics/SVG/1.1/DTD/svg11.dtd">
<svg version="1.1" id="Layer_4106" xmlns="http://www.w3.org/2000/svg" xmlns:xlink="http://www.w3.org/1999/xlink" x="0px" y="0px"
	 width="128px" height="128px" viewBox="0 0 128 128" enable-background="new 0 0 128 128" xml:space="preserve">
<g id="LwbeRt.tif">
	<g>
		<path fill-rule="evenodd" clip-rule="evenodd" d="M25.591,82.284c-0.175-0.1-0.129-0.328-0.255-0.447
			c-0.162-0.154-0.314-0.283-0.594-0.162c-0.326,0.141-0.391,0.062-0.292-0.273c0.129-0.434,0.296-0.857,0.412-1.295
			c0.087-0.331,0.35-0.701-0.122-0.98c-0.09-0.054-0.043-0.188,0.001-0.279c0.273-0.553,0.329-1.143,0.327-1.748
			c-0.001-0.264,0.148-0.487,0.297-0.682c1.115-1.469,1.807-3.131,2.271-4.897c0.421-1.604,0.659-3.241,0.837-4.889
			c0.1-0.922,0.288-1.832,0.297-2.766c0.005-0.489-0.057-0.97-0.25-1.399c-0.25-0.556-0.414-1.142-0.571-1.714
			c-0.286-1.037-0.137-2.115,0.569-2.92c0.869-0.991,1.304-2.128,1.605-3.359c0.12-0.488,0.229-0.979,0.354-1.465
			c0.143-0.558,0.255-1.098,0.221-1.698c-0.037-0.663,0.179-1.338,0.254-2.011c0.109-0.972,0.332-1.924,0.41-2.903
			c0.048-0.6,0.127-1.195,0.119-1.8c-0.015-0.934-0.191-1.848-0.322-2.765c-0.188-1.321-0.302-2.644-0.277-3.979
			c0.053-2.829-0.869-5.329-2.571-7.562c-0.38-0.498-0.765-0.996-1.177-1.468c-0.788-0.902-1.792-1.533-2.785-2.177
			c-0.821-0.531-1.643-1.063-2.458-1.604c-0.231-0.153-0.436-0.339-0.561-0.6c-0.229-0.477-0.166-0.749,0.26-1.094
			c0.394-0.32,0.771-0.645,0.827-1.208c0.036-0.358,0.39-0.509,0.585-0.765c0.508-0.67,0.991-0.893,1.882-0.441
			c1.953,0.989,4.123,1.411,6.204,2.063c0.487,0.153,1,0.206,1.48,0.228c1.199,0.054,2.421,0.191,3.601-0.192
			c0.272-0.089,0.548-0.069,0.824-0.076c0.277-0.008,0.551-0.009,0.816-0.12c0.667-0.281,1.311-0.62,2.02-0.804
			c0.21-0.055,0.425-0.157,0.312-0.485c-0.077-0.224,0.062-0.331,0.304-0.412c1.256-0.416,2.6-0.47,3.84-0.98
			c0.59-0.243,1.273-0.259,1.914-0.383c0.32-0.062,0.642-0.121,0.957-0.206c0.141-0.038,0.313-0.103,0.392-0.213
			c0.635-0.884,1.651-1.504,1.854-2.69c0.059-0.342,0.262-0.656,0.353-0.979c0.178-0.635,0.401-1.275,0.469-1.925
			c0.101-0.966,0.122-1.939-0.061-2.916c-0.054-0.288-0.369-0.229-0.345-0.46c0.023-0.224,0.107-0.442,0.114-0.665
			c0.006-0.197,0.108-0.485-0.279-0.487c-0.184-0.001-0.147-0.173-0.151-0.287c-0.012-0.378-0.012-0.756-0.021-1.134
			c-0.001-0.07-0.008-0.168-0.101-0.154c-0.057,0.009-0.117,0.085-0.148,0.146c-0.033,0.064-0.027,0.147-0.048,0.22
			c-0.014,0.043-0.048,0.08-0.072,0.12c-0.019-0.045-0.055-0.092-0.052-0.136c0.008-0.149,0.006-0.306,0.051-0.445
			c0.162-0.503,0.31-1.015,0.524-1.495c0.188-0.421,0.371-0.825,0.311-1.3c-0.04-0.313,0.158-0.463,0.42-0.537
			c0.266-0.074,0.536-0.16,0.809-0.179c1.529-0.1,3.044-0.333,4.57-0.442c1.305-0.094,2.598-0.251,3.884-0.476
			c1.211-0.211,2.429-0.394,3.631-0.651c1.522-0.326,3.059-0.587,4.557-1.021c0.725-0.209,1.449-0.419,2.17-0.642
			c0.241-0.074,0.37-0.054,0.419,0.232c0.133,0.776,0.616,1.378,1.132,1.912c0.363,0.376,0.351,0.815,0.451,1.239
			c0.039,0.167-0.189,0.409-0.314,0.34c-0.488-0.27-0.504,0.233-0.475,0.356c0.168,0.708-0.299,1.319-0.232,2.017
			c0.072,0.773,0.227,1.54,0.198,2.327c-0.013,0.324,0.22,0.61,0.397,0.885c0.578,0.888,1.037,1.83,1.422,2.818
			c0.477,1.225,1.33,2.18,2.328,3.017c1.458,1.224,3.174,1.924,4.979,2.427c0.517,0.145,0.866,0.61,1.417,0.657
			c0.062,0.005,0.048,0.052,0.032,0.114c-0.18,0.703,0.393,0.809,0.825,1.018c0.155,0.076,0.173,0.068,0.097,0.231
			c-0.025,0.052-0.062,0.085,0.012,0.104c0.34,0.087,0.451,0.277,0.322,0.615c-0.038,0.101,0.06,0.187,0.144,0.244
			c0.177,0.119,0.45,0.185,0.178,0.484c-0.066,0.073,0.069,0.158,0.14,0.229c0.757,0.757,1.491,1.521,2.388,2.144
			c0.567,0.393,1.177,0.758,1.685,1.251c0.365,0.354,0.854,0.568,1.324,0.707c0.956,0.282,1.88,0.689,2.908,0.727
			c0.548,0.02,1.093,0.146,1.649,0.127c2.087-0.074,4.068-0.565,5.935-1.501c0.162-0.081,0.31-0.167,0.492-0.158
			c0.717,0.032,1.396-0.182,2.069-0.361c0.391-0.104,0.662-0.035,0.978,0.177c0.668,0.447,1.027,1.163,1.568,1.719
			c0.436,0.449,0.639,1.082,1.186,1.45c0.205,0.138,0.289,0.798,0.188,0.976c-0.216,0.38-0.632,0.658-0.977,0.536
			c-0.32-0.114-0.545,0.001-0.772,0.145c-1.126,0.712-2.287,1.367-3.364,2.159c-0.646,0.477-1.36,0.86-2.028,1.31
			c-0.98,0.66-1.77,1.471-2.143,2.642c-0.133,0.414-0.202,0.844-0.234,1.251c-0.062,0.775-0.234,1.54-0.207,2.326
			c0.035,1.008-0.045,2.021,0.025,3.025c0.239,3.448,0.056,6.901,0.154,10.351c0.025,0.89,0.104,1.794,0.521,2.639
			c0.384,0.778,0.673,1.604,0.773,2.481c0.013,0.112,0.128,0.212,0.195,0.318l0.005-0.006c-0.199,0.144-0.191,0.367-0.145,0.552
			c0.142,0.548,0.072,1.155,0.469,1.636c0.119,0.145,0.179,0.263-0.154,0.295c-0.552,0.053-0.586,0.114-0.461,0.663
			c0.14,0.607-0.085,1.192-0.024,1.791c0.036,0.35-0.001,0.703,0.181,1.029c0.059,0.105,0.1,0.236,0.101,0.355
			c0.007,0.996,0.332,2.549,0.729,3.404c0.127,0.271,0.32,0.53-0.01,0.804c-0.106,0.089-0.089,0.293,0.011,0.337
			c0.38,0.169,0.012,0.467,0.142,0.672c0.037,0.058,0.027,0.187-0.049,0.159c-0.685-0.241-0.309,0.312-0.283,0.438
			c0.074,0.364,0.191,0.738,0.379,1.057c0.131,0.223-0.006,0.44,0.11,0.648c0.073,0.132-0.064,0.134-0.171,0.135
			c-0.182,0.002-0.191,0.117-0.14,0.255c0.116,0.306,0.215,0.62,0.356,0.913c0.528,1.093,0.812,2.319,1.742,3.196
			c0.062,0.059,0.06,0.186,0.088,0.281l0.004-0.005c-0.116-0.029-0.238-0.158-0.348-0.072c-0.141,0.11-0.023,0.252,0.068,0.311
			c0.571,0.357,0.52,1.132,1.033,1.523c0.031,0.023,0.055,0.103,0.038,0.131c-0.044,0.077-0.13,0.065-0.202,0.045
			s-0.138-0.062-0.209-0.083c-0.137-0.039-0.298-0.229-0.396-0.104c-0.101,0.132,0.122,0.23,0.208,0.337
			c0.236,0.294,0.479,0.575,0.231,0.99c-0.079,0.132,0.092,0.207,0.152,0.308c0.177,0.29-0.022,0.187-0.167,0.163
			c-0.264-0.043-0.256,0.116-0.141,0.254c0.194,0.234,0.378,0.471,0.489,0.754c0.041,0.105,0.185,0.217,0.049,0.327
			c-0.032,0.026-0.163-0.093-0.256-0.114c-0.242-0.057-0.254,0.119-0.208,0.266c0.094,0.306,0.218,0.601,0.333,0.898
			c0.03,0.076,0.046,0.162-0.032,0.195c-0.055,0.021-0.156,0.004-0.2-0.036c-0.258-0.234-0.445-0.544-0.767-0.712
			c-0.116-0.06-0.241-0.1-0.35-0.004c-0.115,0.103-0.219,0.25-0.117,0.395c0.435,0.62,0.243,1.29,0.18,1.951l0.006-0.005
			c-0.189,0.083-0.268,0.195-0.176,0.415c0.144,0.348,0.261,0.707,0.383,1.064c0.022,0.064,0.049,0.165,0.018,0.203
			c-0.059,0.069-0.122-0.011-0.179-0.049c-0.175-0.118-0.235-0.521-0.491-0.361c-0.306,0.191,0.07,0.425,0.103,0.648
			c0.011,0.074,0.04,0.146,0.06,0.219c0.039,0.141,0.193,0.334,0.075,0.411c-0.146,0.095-0.164-0.179-0.287-0.24
			c-0.062-0.031-0.118-0.116-0.186-0.067c-0.071,0.051-0.027,0.135,0.009,0.199c0.061,0.11,0.108,0.234,0.191,0.324
			c0.201,0.217,0.149,0.439-0.025,0.603c-0.217,0.204-0.209,0.388-0.163,0.667c0.054,0.318,0.177,0.703-0.201,0.979
			c-0.07,0.051-0.026,0.288-0.003,0.434c0.256,1.623,0.906,3.134,1.383,4.692c0.146,0.483,0.419,0.963,0.654,1.434
			c0.28,0.562,0.439,1.17,0.636,1.762c0.118,0.358,0.229,0.711,0.448,1.03c0.273,0.399,0.192,0.917,0.436,1.353
			c0.222,0.398,0.164,0.936,0.563,1.275c0.039,0.034,0.024,0.142,0.021,0.214c-0.033,0.55,0.221,1.019,0.473,1.466
			c0.167,0.296,0.195,0.617,0.312,0.92c0.271,0.701,0.768,1.313,0.949,2.023c0.334,1.312,1.188,2.378,1.576,3.652
			c0.075,0.248,0.307,0.4,0.431,0.613c0.718,1.238,1.757,2.193,2.754,3.188c0.481,0.48,0.971,0.956,1.442,1.447
			c0.594,0.619,1.242,1.18,1.93,1.688c0.309,0.229,0.369,0.436,0.196,0.76c-0.144,0.268-0.254,0.556-0.525,0.725
			c-0.713,0.443-1.144,1.114-1.52,1.838c-0.404,0.781-0.716,1.611-1.288,2.303c-0.436,0.525-0.633,0.595-1.203,0.231
			c-1.807-1.15-3.737-2.063-5.677-2.954c-0.653-0.299-1.333-0.543-2.079-0.631c-0.791-0.093-1.535-0.462-2.324-0.633
			c-0.346-0.076-0.668-0.147-1.031-0.1c-0.541,0.071-1.091-0.151-1.639,0.006c-0.047,0.014-0.107-0.01-0.149,0.01
			c-0.775,0.353-1.617,0.359-2.431,0.352c-0.562-0.006-0.963,0.203-1.342,0.521c-0.174,0.146-0.258,0.304-0.379-0.015
			c-0.005-0.011-0.047-0.018-0.067-0.011c-0.873,0.291-1.88,0.052-2.671,0.674c-0.058,0.046-0.129,0.094-0.199,0.103
			c-1.014,0.129-1.747,0.714-2.41,1.438c-0.238,0.261-0.521,0.444-0.936,0.348c-0.387-0.091-0.735,0.108-1.05,0.32
			c-0.179,0.12-0.333,0.235-0.532,0.052c-0.164-0.15-0.354-0.058-0.499,0.001c-0.612,0.248-1.255,0.461-1.808,0.811
			c-0.932,0.592-1.768,1.323-2.568,2.087c-0.108,0.104-0.238,0.148-0.379,0.204c-0.506,0.203-1.043,0.371-1.409,0.823
			c-0.057,0.069-0.169,0.167-0.247,0.069c-0.065-0.082,0.068-0.164,0.104-0.25c0.104-0.253,0.383-0.416,0.373-0.727
			c0.072-0.024,0.084-0.047,0.036-0.057c-0.007-0.001-0.021,0.039-0.032,0.061c-0.363-0.122-0.702-0.213-1.016,0.149
			c-0.139,0.161-0.179-0.034-0.198-0.152c0.051-0.051,0.101-0.103,0.151-0.153c0.012-0.018,0.024-0.036,0.036-0.054
			c-0.011,0.02-0.021,0.039-0.032,0.059c-0.051,0.05-0.102,0.101-0.152,0.151c-0.561,0.037-0.959,0.404-1.381,0.704
			c-0.639,0.452-1.334,0.788-2.057,1.069c-0.162,0.062-0.299,0.045-0.186-0.207c0.147-0.328-0.051-0.466-0.343-0.498
			c-0.379-0.042-0.747,0.025-1.116,0.124c-0.179,0.048-0.44,0.105-0.369-0.257c-0.244-0.062-0.221-0.138-0.021-0.25
			c0.172-0.096,0.521-0.231,0.48-0.292c-0.139-0.203-0.346,0.053-0.535,0.042c-0.467-0.025-0.881,0.183-1.317,0.287
			c-0.056,0.014-0.155-0.031-0.187-0.081c-0.045-0.069,0.016-0.147,0.085-0.18c0.34-0.161,0.684-0.313,1.024-0.474
			c0.065-0.03,0.123-0.088,0.078-0.166c-0.013-0.023-0.09-0.021-0.134-0.012c-0.244,0.057-0.485,0.131-0.731,0.174
			c-0.125,0.021-0.298,0.179-0.384-0.041c-0.06-0.15-0.173-0.325,0.012-0.481c0.055-0.047,0.151-0.127,0.141-0.152
			c-0.034-0.076-0.129-0.065-0.199-0.039c-0.306,0.114-0.607,0.237-0.912,0.353c-0.071,0.027-0.166,0.043-0.194-0.041
			c-0.021-0.058,0.001-0.156,0.041-0.203c0.165-0.189,0.348-0.363,0.517-0.549c0.241-0.266,0.218-0.325-0.155-0.398
			c-0.07-0.014-0.146,0.002-0.221-0.001c-0.047-0.001-0.117,0.006-0.134-0.02c-0.051-0.075,0.016-0.133,0.062-0.186
			c0.302-0.35,0.733-0.523,1.085-0.805c0.067-0.053,0.184-0.11,0.106-0.226c-0.012-0.019-0.133,0.016-0.19,0.049
			c-0.152,0.088-0.295,0.191-0.445,0.283c-0.118,0.072-0.239,0.243-0.38,0.064c-0.099-0.125-0.06-0.29,0.016-0.428
			c0.154-0.28,0.513-0.426,0.525-0.8c0.07-0.024,0.083-0.047,0.037-0.055c-0.008-0.001-0.021,0.038-0.032,0.06
			c-0.378-0.041-0.134-0.207-0.073-0.342c0.018-0.039,0.007-0.091,0.009-0.137c-0.044,0.001-0.102-0.016-0.128,0.007
			c-0.117,0.095-0.222,0.205-0.337,0.302c-0.095,0.079-0.205,0.181-0.325,0.056c-0.084-0.089-0.169-0.212-0.109-0.34
			c0.138-0.294,0.184-0.628,0.398-0.89c0.125-0.152,0.13-0.325-0.008-0.48c-0.166-0.188-0.311-0.075-0.456,0.037
			c-0.06,0.047-0.12,0.094-0.188,0.123c-0.201,0.084-0.42,0.413-0.572,0.248c-0.187-0.201,0.174-0.332,0.299-0.486
			c0.133-0.164,0.248-0.285,0.132-0.524c-0.147-0.306-0.359-0.183-0.575-0.151c-0.152,0.021-0.287,0.07-0.417,0.157
			c-0.175,0.116-0.246-0.002-0.201-0.146c0.114-0.367-0.083-0.462-0.378-0.456c-1.259,0.021-2.483-0.287-3.73-0.373
			c-0.368-0.025-0.747,0.002-1.054,0.275c-0.149,0.132-0.339,0.221-0.479,0.359c-0.232,0.23-0.456,0.369-0.797,0.206
			c-0.123-0.059-0.297-0.017-0.447-0.007c-0.132,0.008-0.151,0.089-0.125,0.21c0.025,0.109,0.183,0.245,0.03,0.326
			c-0.112,0.06-0.212-0.097-0.311-0.171c-0.099-0.073-0.2-0.17-0.313-0.195c-0.197-0.041-0.377-0.077-0.371,0.271
			c0.009,0.563-0.191,0.649-0.671,0.355c-0.063-0.039-0.117-0.096-0.173-0.146c-0.131-0.121-0.292-0.283-0.455-0.145
			c-0.208,0.177-0.13,0.41,0.03,0.603c0.112,0.136,0.249,0.253,0.349,0.396c0.096,0.137,0.285,0.329,0.169,0.454
			c-0.142,0.152-0.31-0.057-0.437-0.158c-0.157-0.125-0.29-0.279-0.437-0.417c-0.05-0.047-0.12-0.119-0.182-0.052
			c-0.056,0.06,0.001,0.138,0.05,0.192c0.169,0.186,0.347,0.365,0.51,0.556c0.041,0.048,0.073,0.157,0.047,0.192
			c-0.053,0.072-0.125-0.001-0.187-0.031c-0.066-0.032-0.166-0.1-0.198-0.076c-0.138,0.098,0.019,0.16,0.056,0.234
			c0.032,0.067,0.083,0.126,0.129,0.186c0.166,0.209,0.538,0.279,0.511,0.604c-0.022,0.271-0.406,0.351-0.453,0.657
			c-0.021,0.138-0.166,0.185-0.302,0.127c-0.228-0.097-0.268,0.056-0.37,0.21c-0.084,0.127-0.296,0.243-0.454,0.063
			c-0.265-0.302-0.607-0.312-0.964-0.327c-0.348-0.016-0.35-0.026-0.209,0.308c0.03,0.069,0.084,0.149-0.001,0.188
			c-0.04,0.018-0.129-0.05-0.183-0.095c-0.282-0.235-0.485-0.603-0.962-0.561c-0.008-0.004,0.009,0.004,0.026,0.011
			c-0.008-0.017-0.012-0.037-0.023-0.05c-0.008-0.009-0.026-0.009-0.04-0.012c0.004,0.013,0.008,0.026,0.037,0.051
			c0.17,0.313,0.458,0.488,0.666,0.734c0.072,0.085,0.245,0.163,0.134,0.295c-0.11,0.131-0.283,0.222-0.464,0.104
			c-0.104-0.066-0.184-0.168-0.281-0.246c-0.309-0.246-0.554-0.574-0.938-0.724c-0.025-0.069-0.047-0.082-0.056-0.035
			c-0.001,0.007,0.038,0.021,0.059,0.032c-0.035,0.252,0.312,0.58,0.153,0.654c-0.256,0.121-0.397-0.278-0.609-0.43
			c-0.159-0.113-0.304-0.248-0.455-0.373c-0.051-0.05-0.102-0.1-0.152-0.15c-0.024-0.068-0.046-0.082-0.053-0.037
			c-0.001,0.008,0.038,0.021,0.058,0.032c0.05,0.051,0.1,0.102,0.15,0.152c0.033,0.121,0.062,0.242,0.098,0.362
			c0.028,0.096,0.088,0.215-0.016,0.273c-0.098,0.056-0.183-0.05-0.243-0.122c-0.112-0.136-0.262-0.108-0.407-0.138
			c-0.238-0.049-0.343,0.027-0.332,0.256c0.007,0.149,0.042,0.298,0.075,0.443c0.027,0.117,0.114,0.275-0.034,0.318
			c-0.135,0.04-0.183-0.143-0.238-0.25c-0.295-0.584-0.585-1.17-0.879-1.753c-0.045-0.089-0.096-0.199-0.213-0.176
			c-0.039,0.008-0.075,0.122-0.081,0.19c-0.016,0.189-0.108,0.33-0.247,0.45c-0.103,0.089-0.226,0.149-0.338,0.055
			c-0.18-0.152-0.458-0.152-0.596-0.305c-0.455-0.501-1.07-0.703-1.634-1.017c-0.541-0.301-0.99-0.766-1.478-1.162
			c-0.057-0.047-0.098-0.164-0.146-0.164c-0.817,0.006-1.225-0.682-1.814-1.06c-0.322-0.207-0.564-0.498-0.812-0.785
			c-0.212-0.246-0.256-0.678-0.802-0.546c-0.216,0.052-0.34-0.386-0.45-0.639c-0.035-0.081-0.091-0.256-0.175-0.146
			c-0.438,0.57-0.553-0.002-0.735-0.208c-0.209-0.239-0.148,0.048-0.194,0.087c-0.098,0.085-0.22,0.086-0.241-0.014
			c-0.102-0.478-0.572-0.467-0.857-0.695c-0.211-0.17-0.291-0.084-0.419,0.062c-0.072,0.083-0.09,0.274-0.262,0.2
			c-0.128-0.055-0.139-0.198-0.145-0.325c-0.004-0.075-0.001-0.151-0.003-0.228c-0.004-0.096,0.015-0.225-0.091-0.258
			c-0.118-0.036-0.161,0.092-0.213,0.174c-0.052,0.085-0.094,0.209-0.208,0.187c-0.116-0.022-0.102-0.152-0.101-0.246
			c0.003-0.261-0.103-0.495-0.193-0.726c-0.089-0.23-0.25-0.32-0.438-0.059c-0.116,0.162-0.194,0.196-0.279-0.047
			c-0.237-0.681-0.458-1.362-0.525-2.086c-0.008-0.085-0.093-0.213-0.164-0.23c-0.106-0.025-0.158,0.1-0.186,0.198
			c-0.099,0.343-0.255,0.659-0.468,0.942c-0.18,0.24-0.319,0.231-0.441-0.028c-0.25-0.532-0.564-0.959-1.173-1.159
			c-0.265-0.088-0.408-0.533-0.799-0.201c-0.101,0.086-0.18-0.046-0.174-0.148c0.023-0.396-0.148-0.485-0.5-0.353
			c-0.049,0.019-0.179-0.035-0.19-0.077c-0.123-0.451-0.419-0.248-0.657-0.168c-0.293,0.099-0.588,0.129-0.893,0.121
			c-0.341-0.008-0.341-0.008-0.152-0.341c0.022-0.04,0.034-0.086,0.05-0.13c-0.046-0.007-0.101-0.033-0.136-0.018
			c-0.417,0.192-0.808-0.007-1.208-0.03c-0.438-0.024-0.886-0.057-1.33-0.078c-0.896-0.042-1.793-0.085-2.69-0.094
			c-0.327-0.003-0.627,0.169-0.923,0.309c-0.174,0.082-0.354,0.126-0.439-0.103c-0.09-0.241-0.273-0.274-0.483-0.27
			c-0.527,0.016-1.051-0.017-1.58,0.09c-0.744,0.149-1.508,0.077-2.263,0.062c-1.036-0.02-2.055,0.104-3.072,0.273
			c-0.463,0.077-0.975-0.19-1.183-0.618c-0.074-0.152-0.066-0.304,0.025-0.431c0.279-0.385,0.182-0.771-0.002-1.141
			c-0.263-0.527-0.35-1.103-0.487-1.662c-0.153-0.621-0.07-1.109,0.552-1.555c1.059-0.758,2.07-1.606,2.991-2.526
			c0.759-0.759,1.356-1.679,1.838-2.654c0.033-0.067,0.034-0.155,0.079-0.211c0.854-1.052,1.066-2.367,1.484-3.598
			c0.128-0.376,0.199-0.769,0.505-1.073c0.115-0.115,0.29-0.314,0.092-0.531c-0.112-0.122,0-0.17,0.083-0.207
			c0.228-0.104,0.28-0.277,0.336-0.52c0.073-0.315,0.235-0.616,0.408-0.914c0.4-0.686,0.579-1.473,0.749-2.248
			c0.087-0.397,0.289-0.746,0.465-1.089c0.968-1.877,1.54-3.87,1.86-5.944c0.038-0.248,0.108-0.492,0.134-0.741
			c0.025-0.243,0.057-0.473-0.24-0.646c-0.305-0.177-0.243-0.573-0.339-0.875c0.017-0.008,0.037-0.012,0.051-0.023
			c0.009-0.006,0.009-0.023,0.013-0.037C25.631,82.241,25.611,82.263,25.591,82.284z M71.593,126.167
			c0.051-0.037,0.198,0.052,0.149-0.102c-0.007-0.025-0.114,0.041-0.146,0.107c-0.068,0.002-0.139-0.001-0.207,0.008
			c-0.043,0.007-0.084,0.032-0.125,0.049c0.033,0.082,0.106,0.078,0.165,0.055C71.489,126.26,71.538,126.207,71.593,126.167z"/>
		<path fill-rule="evenodd" clip-rule="evenodd" d="M100.044,84.856c0.064,0.033,0.137,0.138,0.109,0.146
			c-0.163,0.056-0.066-0.098-0.104-0.151L100.044,84.856z"/>
		<path fill-rule="evenodd" clip-rule="evenodd" d="M100.421,87.027c-0.009-0.019-0.027-0.038-0.025-0.056
			c0.001-0.018,0.023-0.033,0.037-0.049C100.474,86.964,100.471,86.999,100.421,87.027z"/>
		<path fill-rule="evenodd" clip-rule="evenodd" d="M97.773,58.524c0.021,0.011,0.06,0.024,0.059,0.032
			c-0.007,0.046-0.029,0.032-0.054-0.038L97.773,58.524z"/>
		<path fill-rule="evenodd" clip-rule="evenodd" d="M100.649,77.139c0.02,0.011,0.059,0.024,0.058,0.032
			c-0.007,0.045-0.029,0.031-0.054-0.037L100.649,77.139z"/>
	</g>
</g>
</svg>
