<?xml version="1.0" encoding="utf-8"?>
<!-- Generator: Adobe Illustrator 16.0.4, SVG Export Plug-In . SVG Version: 6.00 Build 0)  -->
<!DOCTYPE svg PUBLIC "-//W3C//DTD SVG 1.1//EN" "http://www.w3.org/Graphics/SVG/1.1/DTD/svg11.dtd">
<svg version="1.1" id="Layer_4109" xmlns="http://www.w3.org/2000/svg" xmlns:xlink="http://www.w3.org/1999/xlink" x="0px" y="0px"
	 width="128px" height="128px" viewBox="0 0 128 128" enable-background="new 0 0 128 128" xml:space="preserve">
<g>
	<path fill-rule="evenodd" clip-rule="evenodd" d="M71.287-0.2c1.527,3.388,3.225,6.354,5.605,8.916
		c3.078,3.313,6.885,5.026,11.336,5.368c4.506,0.347,8.99,0.127,13.439-0.697c0.41-0.076,0.834-0.091,1.447-0.155
		c3.217,4.152,6.473,8.357,9.781,12.626c-2.486,2.79-4.781,5.522-6.793,8.487c-3.701,5.454-6.619,11.267-8.27,17.667
		c-2.041,7.92-1.439,15.738,0.994,23.479c2.762,8.793,7.6,16.243,14.426,22.412c-0.516,1.504-7.271,11.855-9.625,14.752
		c-0.635,0.193-1.236-0.031-1.857-0.145c-4.889-0.89-9.791-0.966-14.689-0.125c-5.135,0.882-9.465,3.42-13.432,6.681
		c-2.945,2.422-5.551,5.175-7.986,8.097c-0.352,0.42-0.586,0.968-1.037,1.119c-1.621-1.529-3.223-2.98-4.755-4.502
		c-2.857-2.838-6.031-5.264-9.44-7.389c-4.021-2.506-8.43-3.837-13.142-4.087c-4.077-0.217-8.151-0.156-12.25,0.997
		c-3.433-5.314-6.82-10.557-10.293-15.934c1.956-1.908,3.983-3.73,5.694-5.868c7.709-9.635,11.347-20.607,10.662-32.909
		c-0.32-5.744-2.228-11.129-4.712-16.3c-2.669-5.556-6.191-10.529-10.278-15.121c-0.326-0.366-0.637-0.744-1.117-1.307
		c3.588-4.029,7.169-8.051,10.868-12.204c2.231,0.201,4.527,0.382,6.818,0.62c3.386,0.353,6.741,0.145,10.069-0.519
		c6.076-1.211,9.827-5.101,12.126-10.625c0.377-0.907,0.675-1.847,1.019-2.769c0.048-0.129,0.144-0.24,0.343-0.562
		C61.141-0.418,66.172-0.141,71.287-0.2z M37.795,48.611c8.726,8.81,17.554,17.725,26.537,26.795
		c8.875-8.846,17.797-17.738,26.52-26.433c-9.055-9.14-17.885-18.052-26.652-26.903C55.349,30.968,46.498,39.864,37.795,48.611z"/>
	<path fill-rule="evenodd" clip-rule="evenodd" d="M64.235,26.99c7.138,7.136,14.378,14.374,21.552,21.544
		c-7.234,7.198-14.488,14.418-21.701,21.595c-6.983-7.086-14.201-14.41-21.351-21.665C49.68,41.528,56.963,34.253,64.235,26.99z"/>
</g>
</svg>
