<?xml version="1.0" encoding="utf-8"?>
<!-- Generator: Adobe Illustrator 16.0.4, SVG Export Plug-In . SVG Version: 6.00 Build 0)  -->
<!DOCTYPE svg PUBLIC "-//W3C//DTD SVG 1.1//EN" "http://www.w3.org/Graphics/SVG/1.1/DTD/svg11.dtd">
<svg version="1.1" id="Layer_4202" xmlns="http://www.w3.org/2000/svg" xmlns:xlink="http://www.w3.org/1999/xlink" x="0px" y="0px"
	 width="128px" height="128px" viewBox="0 0 128 128" enable-background="new 0 0 128 128" xml:space="preserve">
<path d="M116.488,35.682c0.005,0.005,0.01,0.01,0.016,0.015c0,0,0.002,0.001,0.002,0.001L116.488,35.682z"/>
<path d="M15.235,102.273c0.549,0.326,1.003,0.773,1.337,1.298c0.535,0.837,0.761,1.868,0.573,2.898
	C17.451,104.795,16.662,103.121,15.235,102.273z"/>
<path d="M101.984,50.851c0.002,0.036,0.002,0.071,0.002,0.107c0-0.037,0-0.073-0.002-0.109
	C101.984,50.85,101.984,50.85,101.984,50.851z"/>
<path d="M91.506,107.498c-0.21-0.074-0.216-0.264-0.223-0.762c-0.003-0.178-0.004-0.355-0.002-0.533
	c-0.002,0.178-0.001,0.355,0.002,0.534c0.011,0.792,0.019,0.806,0.848,0.812c0.857,0.005,1.713,0.006,2.57,0.006
	c-0.855,0-1.711-0.001-2.566-0.006C91.823,107.547,91.629,107.543,91.506,107.498z"/>
<path d="M27.191,52.327c-0.117-0.462-0.137-0.925-0.131-1.389C27.054,51.402,27.074,51.864,27.191,52.327z"/>
<path d="M102,50.958c0-0.036,0.012-0.071,0.012-0.107c0-0.001,0-0.001,0-0.002c0-0.002,0-0.003,0-0.005
	c0-0.145,0.038-0.227,0.102-0.264c-0.084,0.026-0.135,0.108-0.129,0.269c0.002,0.036,0.002,0.073,0.002,0.109
	c0.001,0.183-0.013,0.368-0.015,0.551C101.974,51.326,102,51.141,102,50.958z"/>
<path d="M103.5,55.308c0,0.107,0,0.21,0,0.31c0,0.398,0.295,0.745,0.295,1.085c0,0.254,0.141,0.505,0.133,0.772
	c-0.026,0.869-0.311,1.602-0.911,2.12c0.604-0.514,0.993-1.244,1.021-2.12c0.008-0.267,0.027-0.518,0.027-0.772
	c0.001-0.34-0.283-0.687-0.285-1.085C103.779,55.519,103.5,55.415,103.5,55.308z"/>
<path d="M100.154,107.528L100.154,107.528L100.154,107.528c-0.481,0-0.962,0.003-1.443,0.004c-0.48,0.001-0.962,0.013-1.443,0.013
	c-0.855,0-1.711,0.006-2.566,0.006c-0.857,0-1.713,0.001-2.57-0.004c-0.308-0.002-0.502-0.006-0.625-0.049
	c0.123,0.045,0.317,0.049,0.629,0.051c0.855,0.005,1.711,0.006,2.566,0.006c0.854,0,1.71-0.002,2.564-0.002
	c0.482,0,0.964-0.004,1.445-0.004c0.481-0.002,0.962,0,1.443,0.011c0.406,0.009,0.61-0.132,0.627-0.479
	C100.759,107.411,100.555,107.528,100.154,107.528z"/>
<path d="M28.017,52.954c-0.001,0-0.001,0-0.002,0c-0.246,0-0.426-0.047-0.56-0.155c0.133,0.114,0.313,0.164,0.562,0.158
	c0.148-0.003,0.297-0.004,0.445-0.006c-0.148,0.001-0.296,0.003-0.444,0.003H28.017z"/>
<path d="M29.306,52.946c0.103,0,0.206-0.001,0.309,0c0.267,0.001,0.534,0.002,0.801,0.002c-0.267,0-0.534-0.003-0.801-0.003
	C29.512,52.944,29.409,52.945,29.306,52.946z"/>
<path d="M35.386,53.5c-0.041,0-0.08,0-0.117,0C35.306,53.5,35.345,53.5,35.386,53.5z"/>
<path d="M92.084,29.829c0.016,0.113,0.08,0.19,0.188,0.218c0.024,0.006,0.048,0.006,0.07,0.004
	c-0.009-0.001-0.018-0.001-0.026-0.003C92.207,30.02,92.1,29.943,92.084,29.829z"/>
<path d="M93.321,29.071c0.06,0,0.119,0.002,0.18,0.005C93.44,29.073,93.381,29.071,93.321,29.071z"/>
<path d="M34.814,53.513c0.448-0.117,0.928-0.112,1.377,0.007c0.312,0.083,0.2,0.413,0.24,0.645c0.032,0.184,0.082,0.372,0.306,0.349
	c0.156-0.015,0.201-0.178,0.215-0.326c0.015-0.142,0.026-0.284,0.042-0.426c0.012-0.108,0.046-0.224,0.164-0.241
	c0.177-0.025,0.258,0.104,0.267,0.255c0.001,0.017,0.001,0.034,0.002,0.051c-0.001-0.023-0.001-0.045-0.002-0.069
	c-0.009-0.151-0.09-0.271-0.267-0.246c-0.118,0.017-0.151,0.137-0.164,0.245c-0.016,0.142-0.028,0.286-0.042,0.428
	c-0.015,0.148-0.06,0.312-0.215,0.327c-0.224,0.022-0.274-0.165-0.306-0.349c-0.04-0.232,0.072-0.561-0.24-0.644
	C35.742,53.401,35.262,53.396,34.814,53.513c-0.383,0.101-0.297,0.53-0.397,0.812c-0.227,0.637-0.367,1.304-0.599,1.938
	c0.231-0.634,0.372-1.301,0.599-1.937C34.518,54.044,34.431,53.614,34.814,53.513z"/>
<path d="M102.614,57.406c-0.005-0.659-0.007-1.316-0.007-1.975C102.607,56.09,102.609,56.748,102.614,57.406L102.614,57.406z"/>
<path d="M102.613,53.457c-0.003,0.658-0.005,1.316-0.006,1.975C102.608,54.773,102.61,54.115,102.613,53.457L102.613,53.457z"/>
<path d="M102.181,50.57c0.065-0.005,0.147,0.019,0.241,0.064c0.924,0.452,1.569,1.083,1.644,2.141
	c-0.074-1.059-0.72-1.705-1.644-2.157c-0.09-0.044-0.17-0.067-0.234-0.063c-0.027,0.002-0.051,0.011-0.072,0.023
	C102.135,50.573,102.157,50.57,102.181,50.57z"/>
<path d="M102.115,50.579c-0.064,0.037-0.104,0.119-0.104,0.264c0,0.002,0,0.003,0,0.005c0-0.189,0.064-0.271,0.169-0.278
	C102.157,50.57,102.135,50.573,102.115,50.579z"/>
<path d="M104.065,52.776c-0.074-1.059-0.716-1.705-1.641-2.157c-0.091-0.044-0.171-0.068-0.237-0.063
	c0.064-0.004,0.145,0.019,0.234,0.063C103.346,51.071,103.991,51.717,104.065,52.776z"/>
<path d="M102.123,60.151c-0.111,0.041-0.077,0.059-0.146,0.059c-0.212,0.009-0.152-0.146-0.152-0.419c0,0.001,0,0.002,0,0.003
	c0,0.363-0.02,0.529,0.4,0.373c0.302-0.112,0.514-0.259,0.752-0.437C102.742,59.9,102.417,60.042,102.123,60.151z"/>
<path d="M102.123,60.151c0.294-0.109,0.559-0.251,0.793-0.421c0.699-0.521,1.11-1.308,1.14-2.255
	c-0.04,1.271-0.765,2.236-1.95,2.676c-0.102,0.037-0.183,0.056-0.249,0.059C101.926,60.21,102.012,60.192,102.123,60.151z"/>
<polygon points="101.972,51.509 101.972,51.51 101.972,51.514 "/>
<path d="M101.986,50.958c0,0.183-0.014,0.368-0.015,0.552v0C101.974,51.326,101.987,51.141,101.986,50.958z"/>
<path d="M94.701,107.555c0.855,0,1.711-0.002,2.566-0.002c0.481,0,0.963-0.004,1.443-0.004c-0.481,0-0.963,0.004-1.445,0.004
	C96.411,107.553,95.556,107.555,94.701,107.555z"/>
<path d="M100.753,106.918c-0.01-0.129,0.011-0.244,0.013-0.373c-0.002,0.062,0.003,0.127,0.002,0.189
	c0,0.061-0.023,0.12-0.019,0.184c0.005,0.057-0.021,0.109-0.021,0.158c0,0.001,0,0.002,0,0.004
	C100.728,107.03,100.758,106.977,100.753,106.918z"/>
<path d="M100.774,106.734c0.001-0.062,0.003-0.127,0.004-0.189C100.777,106.61,100.775,106.673,100.774,106.734z"/>
<path d="M100.154,107.528L100.154,107.528c0.4,0,0.573-0.117,0.573-0.448c0-0.002,0-0.003,0-0.004
	C100.728,107.41,100.556,107.528,100.154,107.528z"/>
<path d="M99.16,73.976c-0.204-0.021-0.443,0.151-0.676,0.269c-0.67,0.332-1.369,0.45-2.09,0.466
	c0.721-0.016,1.421-0.133,2.092-0.466C98.719,74.128,98.957,73.957,99.16,73.976z"/>
<path d="M99.93,74.389c0.063-0.158,0.063-0.346,0.068-0.521c0.015-0.562,0.011-0.562,0.646-1.054l0,0
	c-0.636,0.491-0.631,0.491-0.646,1.054C99.992,74.043,99.992,74.23,99.93,74.389c-0.041,0.102-0.152,0.21-0.245,0.217
	C99.777,74.6,99.889,74.491,99.93,74.389z"/>
<path d="M37.71,52.343c-0.109,0.399-0.294,0.624-0.731,0.609l0,0C37.416,52.967,37.601,52.742,37.71,52.343
	c0.153-0.564,0.126-1.114,0.037-1.662C37.836,51.229,37.863,51.779,37.71,52.343z"/>
<path d="M35.386,52.954c0.094-0.001,0.198-0.003,0.313-0.003c0.213-0.001,0.427-0.004,0.64-0.006
	c-0.213,0.001-0.427,0.005-0.641,0.006C35.583,52.951,35.479,52.953,35.386,52.954z"/>
<path d="M32.111,51.989c0.044,0.943,0.044,0.95-0.896,0.958c-0.266,0.002-0.532,0.002-0.799,0.001
	c0.267,0.001,0.534,0.001,0.801-0.001C32.157,52.939,32.156,52.933,32.111,51.989c-0.039-0.836,0.157-1.061,0.973-1.116
	c0.059-0.004,0.115-0.006,0.171-0.007c-0.056,0.001-0.113,0.003-0.171,0.007C32.267,50.929,32.071,51.153,32.111,51.989z"/>
<path d="M29.097,52.954C29.096,52.954,29.096,52.954,29.097,52.954c-0.188,0-0.374,0-0.562,0c0,0,0,0-0.001,0
	C28.722,52.954,28.909,52.954,29.097,52.954z"/>
<path d="M28.534,52.954C28.535,52.954,28.535,52.954,28.534,52.954c-0.171,0-0.345,0-0.518,0h0.001
	C28.19,52.954,28.362,52.954,28.534,52.954z"/>
<path d="M29.615,52.951c-0.173,0-0.346,0.003-0.519,0.003c0,0,0,0,0.001,0C29.27,52.954,29.442,52.951,29.615,52.951z"/>
<path d="M91.314,29.333c-0.016,0.05-0.023,0.108-0.025,0.172c-0.004,0.249-0.004,0.508-0.004,0.757c0-0.249,0.002-0.516,0.007-0.766
	C91.293,29.436,91.301,29.381,91.314,29.333z"/>
<path d="M91.34,29.271c0.001-0.001,0.001-0.002,0.002-0.003C91.341,29.269,91.341,29.271,91.34,29.271z"/>
<path d="M91.314,29.333c0.008-0.021,0.016-0.042,0.025-0.061C91.33,29.291,91.322,29.311,91.314,29.333z"/>
<path d="M92.595,29.896L92.595,29.896c0,0.079-0.132,0.167-0.251,0.155c-0.001,0-0.002,0-0.002,0
	C92.462,30.064,92.595,29.975,92.595,29.896z"/>
<path d="M91.342,29.313c0.057-0.105,0.162-0.115,0.332-0.115c0.001,0,0.002,0,0.002,0c0.002,0,0.002,0,0.004,0
	c0.074,0,0.141-0.032,0.196-0.007c-0.056-0.027-0.122-0.04-0.2-0.042C91.504,29.146,91.397,29.206,91.342,29.313z"/>
<path d="M92.036,29.401c-0.015-0.133-0.072-0.167-0.16-0.21c-0.056-0.025-0.122,0.007-0.196,0.007c-0.002,0-0.002,0-0.004,0
	c0.201,0,0.336,0.035,0.36,0.25c0.016,0.141,0.03,0.259,0.047,0.4c0,0.001,0.001-0.009,0.001-0.008c0-0.002-0.001-0.009-0.001-0.01
	C92.066,29.69,92.052,29.543,92.036,29.401z"/>
<path d="M92.047,29.404c0.016,0.141,0.041,0.281,0.059,0.422c0.014,0.115,0.101,0.193,0.21,0.222
	c0.009,0.002,0.018,0.002,0.026,0.003c0,0,0.001,0,0.002,0c-0.01-0.001-0.02-0.001-0.028-0.004c-0.109-0.028-0.196-0.106-0.21-0.222
	c-0.018-0.141-0.043-0.235-0.059-0.376c-0.024-0.217-0.165-0.251-0.367-0.251c-0.002,0-0.002,0-0.004,0
	c0.078,0,0.145-0.032,0.2-0.005C91.971,29.235,92.031,29.267,92.047,29.404z"/>
<path d="M92.315,30.048c-0.109-0.028-0.196-0.106-0.21-0.222c-0.018-0.141-0.043-0.281-0.059-0.422
	c-0.016-0.137-0.076-0.216-0.171-0.258c0.088,0.043,0.146,0.123,0.16,0.256c0.016,0.142,0.03,0.283,0.047,0.424
	c0,0.001,0.001,0.003,0.001,0.004C92.1,29.943,92.207,30.02,92.315,30.048z"/>
<path d="M93.318,28.984c0.001,0,0.002,0,0.003,0c-0.417,0-0.791,0.056-0.815,0.654C92.53,29.042,92.902,28.984,93.318,28.984z"/>
<path d="M98.332,29.081c0.249,0,0.499,0.007,0.747,0.023C98.831,29.088,98.581,29.081,98.332,29.081
	c-1.531-0.002-3.063-0.001-4.596,0c-0.077,0-0.156-0.003-0.235-0.006c0.079,0.003,0.157,0.006,0.235,0.006
	C95.269,29.08,96.801,29.079,98.332,29.081z"/>
<path d="M93.736,29.082c-0.078,0-0.156-0.003-0.235-0.006c-0.061-0.002-0.12-0.004-0.18-0.005c-0.001,0-0.002,0-0.003,0
	C93.456,29.072,93.6,29.082,93.736,29.082z"/>
<path d="M116.238,30.809c0.079,0.235,0.188,0.465,0.23,0.706c0.063,0.361,0.05,0.743-0.303,0.957
	c-0.346,0.21-0.704,0.031-1.001-0.143c-0.582-0.34-0.71-1.066-0.351-1.735l-0.059-0.073c-0.569,0.147-0.764,0.583-0.81,1.101
	c-0.057,0.637,0.303,1.186,0.888,1.414c0.615,0.24,1.326,0.032,1.69-0.496c0.357-0.517,0.282-1.155-0.212-1.808L116.238,30.809z"/>
<path d="M116.229,104.226c0.079,0.198,0.19,0.389,0.23,0.594c0.085,0.438,0.08,0.937-0.394,1.098
	c-0.397,0.136-0.837-0.034-1.142-0.392c-0.381-0.444-0.42-0.941-0.114-1.529l-0.062-0.076c-0.125,0.062-0.281,0.097-0.37,0.193
	c-0.575,0.621-0.583,1.465-0.035,2.013c0.516,0.516,1.403,0.552,1.947,0.077c0.595-0.518,0.603-1.295,0.021-2.062
	C116.283,104.169,116.256,104.197,116.229,104.226z"/>
<path d="M122.227,43.821c-0.431-0.38-0.499-1.089-0.164-1.703l-0.01-0.014c-0.758,0.348-0.962,0.696-0.851,1.455
	c0.085,0.583,0.527,1.032,1.11,1.127c0.711,0.117,1.096-0.105,1.476-0.85l-0.036-0.027
	C123.157,44.168,122.625,44.172,122.227,43.821z"/>
<path d="M122.229,93.693c-0.438-0.387-0.505-1.089-0.164-1.707l-0.015-0.02c-0.771,0.381-0.955,0.699-0.848,1.464
	c0.084,0.595,0.509,1.028,1.104,1.127c0.688,0.114,1.08-0.106,1.499-0.843l-0.065-0.051
	C123.152,94.062,122.655,94.071,122.229,93.693z"/>
<path d="M112.693,33.123c-0.111,0.02-0.188,0.095-0.191,0.214c-0.011,0.313,0.638,0.918,0.927,0.863
	c0.112-0.021,0.179-0.098,0.194-0.214C113.637,33.68,112.984,33.07,112.693,33.123z"/>
<path d="M120.038,95.707c-0.36-0.095-0.36,0.242-0.417,0.463c-0.068,0.259-0.252,0.527-0.008,0.788
	c0.044,0.046,0.139,0.099,0.183,0.081c0.358-0.145,0.351-0.486,0.405-0.793C120.221,96.041,120.301,95.775,120.038,95.707z"/>
<path d="M119.738,39.059c-0.096-0.255-0.15-0.555-0.461-0.656c-0.075,0.02-0.162,0.016-0.202,0.057
	c-0.183,0.189-0.085,0.412-0.005,0.592c0.109,0.246,0.13,0.573,0.458,0.666c0.053,0.015,0.143-0.02,0.183-0.062
	C119.889,39.47,119.811,39.253,119.738,39.059z"/>
<path d="M112.486,103.169c-0.293-0.011-0.864,0.7-0.795,1.004c0.033,0.146,0.143,0.246,0.314,0.194
	c0.257-0.076,0.729-0.756,0.696-0.994C112.662,103.271,112.606,103.174,112.486,103.169z"/>
<path d="M118.297,99.924c-0.375-0.036-0.504,0.315-0.721,0.523c-0.072,0.068-0.133,0.166-0.16,0.262
	c-0.067,0.23,0.091,0.299,0.3,0.342c0.345-0.162,0.607-0.424,0.737-0.803C118.5,100.109,118.449,99.938,118.297,99.924z"/>
<path d="M122.051,91.967l0.015,0.02c1.336,0.075,1.635,0.375,1.675,1.678l0.065,0.051c0.382-0.582,0.185-1.107-0.237-1.534
	S122.623,91.564,122.051,91.967z"/>
<path d="M118.01,37.174c0.008,0.001,0.053,0.006,0.053,0.006c0,0.008,0,0.015,0,0.022c0,0.018,0.009,0.039,0.021,0.062
	c0.047,0.044,0.077,0.097,0.095,0.157c0.03,0.057,0.055,0.12,0.05,0.187c0.004,0.002-0.008,0.005-0.003,0.008
	c0.001,0.002-0.003,0.004-0.004,0.007c0.659-0.081,0.722-0.161,0.478-0.598c-0.068-0.122-0.151-0.241-0.245-0.345
	c-0.351-0.392-0.457-0.349-0.679,0.282c0.002,0.002,0.004,0.003,0.006,0.005c0.002,0.007,0.006,0.013,0.008,0.021
	C117.891,37.009,117.976,37.081,118.01,37.174z"/>
<path d="M118.179,37.42c-0.018-0.06-0.048-0.112-0.095-0.157C118.107,37.308,118.146,37.36,118.179,37.42z"/>
<path d="M118.222,37.621C118.222,37.621,118.221,37.622,118.222,37.621c0.667-0.08,0.723-0.159,0.478-0.598
	C118.943,37.46,118.881,37.541,118.222,37.621z"/>
<path d="M117.979,37.174c0.003,0.006,0.006,0.012,0.008,0.019c0.006,0.002,0.01,0.006,0.016,0.009c0-0.007,0-0.014,0-0.021
	C117.993,37.18,117.987,37.175,117.979,37.174z"/>
<path d="M117.775,36.96c-0.002,0.007-0.004,0.012-0.006,0.02c0.008,0.001,0.013,0.005,0.02,0.006
	c-0.002-0.007-0.006-0.013-0.008-0.021C117.779,36.964,117.777,36.962,117.775,36.96z"/>
<path d="M118.197,37.606c0,0.006,0,0.012,0,0.018c0.006-0.001,0.011-0.001,0.017-0.002c-0.001-0.003-0.002-0.005-0.003-0.008
	C118.205,37.612,118.202,37.609,118.197,37.606z"/>
<path d="M111.707,105.305c-0.086-0.074-0.201-0.029-0.275,0.052c-0.045,0.05-0.076,0.121-0.09,0.188
	c-0.021,0.103-0.021,0.21-0.026,0.276c0.017,0.25-0.024,0.477,0.122,0.651c0.059,0.069,0.184,0.134,0.265,0.12
	c0.21-0.035,0.276-0.215,0.259-0.402C111.931,105.881,111.977,105.541,111.707,105.305z"/>
<path d="M117.307,35.746c0.152-0.245-0.135-0.44-0.326-0.578c-0.211-0.15-0.444-0.491-0.71-0.247
	c-0.349,0.321,0.145,0.501,0.23,0.76C116.778,35.683,117.055,36.151,117.307,35.746z"/>
<path d="M116.501,35.682c-0.005,0-0.009-0.001-0.013,0l0.018,0.016C116.505,35.692,116.502,35.688,116.501,35.682z"/>
<path d="M120.363,93.441c-0.366-0.067-0.348,0.271-0.412,0.488c-0.038,0.134-0.037,0.282-0.036,0.423
	c0.002,0.187,0.054,0.372,0.273,0.383c0.214,0.011,0.283-0.183,0.337-0.347c0.043-0.133,0.05-0.278,0.073-0.422
	C120.561,93.771,120.646,93.493,120.363,93.441z"/>
<path d="M122.053,42.104l0.01,0.014c1.322,0.065,1.629,0.373,1.689,1.691l0.036,0.027c0.414-0.578,0.198-1.095-0.222-1.523
	C123.142,41.88,122.623,41.696,122.053,42.104z"/>
<path d="M114.52,33.933c-0.197-0.003-0.35,0.015-0.406,0.158c-0.032,0.081-0.02,0.22,0.033,0.285
	c0.182,0.229,0.978,0.396,1.156,0.255c0.049-0.038,0.107-0.127,0.093-0.169C115.242,34.019,114.815,34.041,114.52,33.933z"/>
<path d="M111.521,31.224c-0.275,0.172-0.199,0.437-0.118,0.66c0.09,0.248,0.12,0.582,0.501,0.591
	c0.123,0.003,0.174-0.099,0.248-0.279c-0.1-0.263-0.212-0.592-0.354-0.91C111.76,31.201,111.623,31.161,111.521,31.224z"/>
<path d="M119.465,97.931c-0.072-0.038-0.244-0.026-0.28,0.027c-0.229,0.338-0.514,0.67-0.37,1.128
	c0.016,0.051,0.118,0.123,0.158,0.11c0.442-0.132,0.488-0.542,0.605-0.899c0.011-0.033,0.01-0.069,0.021-0.145
	C119.566,98.094,119.539,97.969,119.465,97.931z"/>
<path d="M115.731,102.277c0.366-0.084,0.708-0.184,0.946-0.468c0.051-0.062,0.061-0.233,0.014-0.287
	c-0.271-0.312-0.52-0.011-0.76,0.073c-0.219,0.076-0.505,0.164-0.429,0.5C115.52,102.17,115.654,102.219,115.731,102.277z"/>
<path d="M119.705,41.087c0.015,0.14,0.054,0.28,0.098,0.415c0.065,0.199,0.118,0.455,0.407,0.373
	c0.204-0.059,0.178-0.275,0.175-0.51c-0.016-0.083-0.021-0.231-0.072-0.36c-0.075-0.188-0.135-0.443-0.426-0.36
	C119.672,40.705,119.686,40.912,119.705,41.087z"/>
<path d="M114.545,102.457c0.025-0.053,0.024-0.15-0.008-0.197c-0.22-0.311-0.512-0.125-0.774-0.087
	c-0.195,0.028-0.478,0.019-0.456,0.313c0.021,0.286,0.294,0.229,0.528,0.255C114.06,102.675,114.385,102.775,114.545,102.457z"/>
<path d="M120.393,77.372c-0.424-0.03-0.3,0.372-0.324,0.617c-0.016,0.167,0.018,0.346,0.063,0.509
	c0.024,0.084,0.091,0.18,0.228,0.166c0.125-0.012,0.19-0.092,0.213-0.183c0.043-0.165,0.053-0.339,0.072-0.483
	C120.593,77.75,120.71,77.395,120.393,77.372z"/>
<path d="M120.072,43.578c-0.008,0.167,0.041,0.339,0.087,0.502c0.014,0.048,0.097,0.089,0.155,0.108
	c0.119,0.039,0.216-0.042,0.244-0.131c0.052-0.162,0.062-0.337,0.086-0.476c-0.08-0.271,0.099-0.698-0.314-0.678
	C119.951,42.923,120.082,43.326,120.072,43.578z"/>
<path d="M120.561,72.903c-0.028-0.09-0.13-0.178-0.243-0.13c-0.339,0.141-0.236,0.457-0.246,0.712
	c-0.009,0.226-0.062,0.504,0.266,0.588c0.126,0.032,0.206-0.06,0.231-0.151c0.047-0.164,0.057-0.338,0.08-0.5
	C120.62,73.24,120.611,73.065,120.561,72.903z"/>
<path d="M120.617,89.195c-0.032-0.163-0.041-0.375-0.284-0.352c-0.222,0.021-0.231,0.221-0.256,0.389
	c-0.015,0.104-0.021,0.21-0.011,0.312c0.023,0.229-0.061,0.584,0.25,0.598c0.428,0.019,0.253-0.396,0.318-0.634
	C120.63,89.403,120.638,89.297,120.617,89.195z"/>
<path d="M120.404,86.556c-0.43-0.042-0.31,0.365-0.335,0.611c-0.018,0.168,0.018,0.347,0.06,0.512
	c0.023,0.091,0.09,0.174,0.223,0.177c0.133,0.002,0.195-0.084,0.219-0.174c0.045-0.165,0.054-0.34,0.081-0.537
	C120.576,86.951,120.718,86.586,120.404,86.556z"/>
<path d="M120.623,91.779c0.014-0.166-0.035-0.34-0.078-0.504c-0.013-0.049-0.094-0.095-0.152-0.111
	c-0.113-0.033-0.218,0.033-0.248,0.127c-0.053,0.162-0.064,0.336-0.09,0.479c0.068,0.271-0.104,0.689,0.308,0.676
	C120.756,92.434,120.604,92.026,120.623,91.779z"/>
<path d="M120.387,81.988c-0.471-0.016-0.264,0.453-0.318,0.724c-0.02,0.098,0,0.208,0.025,0.308c0.033,0.136,0.093,0.266,0.271,0.25
	c0.166-0.016,0.223-0.142,0.249-0.279c0.02-0.102,0.017-0.207,0.026-0.375C120.556,82.439,120.748,82.002,120.387,81.988z"/>
<path d="M120.566,79.817c-0.023-0.091-0.091-0.177-0.225-0.169c-0.125,0.009-0.191,0.086-0.215,0.182
	c-0.041,0.166-0.051,0.34-0.07,0.477c0.041,0.262-0.05,0.616,0.253,0.639c0.427,0.032,0.291-0.375,0.318-0.618
	C120.646,80.161,120.608,79.982,120.566,79.817z"/>
<path d="M120.338,52.092c-0.371,0.018-0.255,0.421-0.266,0.675c-0.008,0.167,0.041,0.339,0.086,0.502
	c0.014,0.048,0.098,0.089,0.156,0.108c0.119,0.039,0.215-0.042,0.243-0.132c0.051-0.163,0.062-0.338,0.087-0.485
	C120.57,52.497,120.75,52.073,120.338,52.092z"/>
<path d="M120.307,63.59c-0.297,0.024-0.227,0.377-0.238,0.606c-0.008,0.17,0.019,0.345,0.053,0.513
	c0.021,0.101,0.1,0.169,0.221,0.176c0.127,0.006,0.203-0.07,0.229-0.166c0.043-0.166,0.055-0.34,0.077-0.489
	C120.574,63.969,120.735,63.555,120.307,63.59z"/>
<path d="M120.339,54.404c-0.39,0.011-0.251,0.483-0.268,0.771c-0.008,0.133,0.034,0.274,0.079,0.403c0.017,0.05,0.1,0.09,0.16,0.109
	c0.117,0.037,0.213-0.039,0.25-0.13c0.051-0.125,0.061-0.269,0.082-0.378C120.578,54.875,120.764,54.392,120.339,54.404z"/>
<path d="M120.339,69.439c0.401,0.014,0.251-0.401,0.292-0.646c0.018-0.1,0.001-0.208-0.014-0.311
	c-0.023-0.178-0.072-0.351-0.305-0.323c-0.164,0.019-0.211,0.157-0.229,0.298c-0.013,0.104-0.015,0.207-0.021,0.322
	C120.112,69.017,119.962,69.426,120.339,69.439z"/>
<path d="M120.34,45.197c-0.311-0.007-0.273,0.347-0.27,0.573c0.005,0.256-0.102,0.575,0.244,0.715
	c0.113,0.046,0.216-0.038,0.245-0.128c0.052-0.162,0.064-0.337,0.097-0.527C120.562,45.614,120.737,45.206,120.34,45.197z"/>
<path d="M120.626,61.677c-0.021-0.171-0.027-0.386-0.235-0.409c-0.299-0.033-0.289,0.229-0.318,0.428
	c-0.011,0.068-0.002,0.14-0.002,0.244c0.054,0.209-0.108,0.634,0.291,0.623c0.378-0.012,0.231-0.424,0.271-0.676
	C120.644,61.818,120.635,61.746,120.626,61.677z"/>
<path d="M120.082,71.436c0.028,0.175,0.075,0.358,0.306,0.329c0.156-0.021,0.202-0.169,0.226-0.307
	c0.017-0.103,0.016-0.208,0.023-0.317c-0.055-0.24,0.106-0.653-0.275-0.666c-0.398-0.013-0.256,0.402-0.293,0.65
	C120.053,71.226,120.066,71.334,120.082,71.436z"/>
<path d="M120.306,58.963c-0.348,0.146-0.224,0.464-0.231,0.719c-0.006,0.224-0.051,0.499,0.273,0.579
	c0.136,0.034,0.199-0.076,0.223-0.162c0.045-0.165,0.051-0.339,0.075-0.529c-0.025-0.154-0.034-0.33-0.087-0.489
	C120.528,58.992,120.417,58.916,120.306,58.963z"/>
<path d="M120.389,47.504c-0.307-0.027-0.283,0.243-0.316,0.444c-0.01,0.069-0.007,0.142-0.011,0.225
	c0.034,0.219-0.062,0.584,0.261,0.598c0.438,0.019,0.258-0.398,0.31-0.643c0.015-0.067,0-0.142-0.009-0.212
	C120.604,47.744,120.605,47.523,120.389,47.504z"/>
<path d="M120.118,76.139c0.023,0.098,0.083,0.181,0.209,0.197c0.135,0.018,0.208-0.064,0.241-0.154
	c0.049-0.13,0.055-0.275,0.074-0.393c-0.076-0.266,0.111-0.688-0.322-0.675c-0.318,0.01-0.234,0.374-0.249,0.604
	C120.062,75.857,120.085,76.002,120.118,76.139z"/>
<path d="M120.316,67.124c0.314,0.028,0.279-0.243,0.308-0.442c0.01-0.07,0.001-0.143,0.001-0.289
	c-0.068-0.131,0.08-0.506-0.289-0.485c-0.332,0.02-0.242,0.363-0.266,0.595c-0.008,0.07-0.004,0.143,0.005,0.213
	C120.096,66.887,120.094,67.104,120.316,67.124z"/>
<path d="M120.342,56.713c-0.332,0.009-0.248,0.357-0.271,0.586c-0.01,0.104,0.001,0.213,0.018,0.317
	c0.021,0.138,0.052,0.29,0.221,0.312c0.244,0.034,0.278-0.157,0.307-0.332c0.018-0.104,0.012-0.212,0.016-0.318
	C120.604,57.05,120.679,56.704,120.342,56.713z"/>
<path d="M120.36,84.303c-0.337-0.01-0.279,0.334-0.291,0.567c-0.007,0.14,0.015,0.283,0.038,0.423
	c0.025,0.156,0.125,0.266,0.286,0.224c0.078-0.021,0.161-0.126,0.188-0.21c0.045-0.133,0.044-0.279,0.056-0.371
	C120.604,84.657,120.691,84.312,120.36,84.303z"/>
<path d="M120.34,51.051c0.341,0.01,0.272-0.337,0.288-0.567c0.009-0.14-0.011-0.283-0.032-0.423
	c-0.025-0.155-0.112-0.256-0.285-0.231c-0.116,0.017-0.178,0.105-0.198,0.21c-0.028,0.138-0.04,0.28-0.062,0.454
	C120.129,50.677,119.998,51.041,120.34,51.051z"/>
<path d="M116.238,30.809l0.074-0.077c-0.457-0.53-0.985-0.533-1.557-0.211l0.059,0.073
	C115.316,30.483,115.781,30.623,116.238,30.809z"/>
<path d="M116.229,104.226c0.027-0.028,0.055-0.057,0.082-0.085c-0.456-0.527-0.986-0.535-1.562-0.221l0.062,0.076
	C115.31,103.908,115.779,104.002,116.229,104.226z"/>
<path d="M111.709,30.242c0.139-0.059,0.255-0.148,0.181-0.307c-0.036-0.079-0.15-0.162-0.233-0.167
	c-0.152-0.01-0.268,0.098-0.245,0.257C111.432,30.174,111.553,30.248,111.709,30.242z"/>
<path d="M12.386,103.737c-0.828,0.001-1.402,0.576-1.395,1.399c0.007,0.811,0.602,1.395,1.423,1.398
	c0.82,0.004,1.376-0.571,1.37-1.42C13.779,104.266,13.243,103.737,12.386,103.737z M12.93,105.955
	c-0.678,0.035-1.325-0.646-1.338-1.379c-0.007-0.377,0.316-0.615,0.815-0.604c0.614,0.016,1.144,0.553,1.142,1.19
	C13.511,105.532,13.442,105.929,12.93,105.955z"/>
<path d="M13.234,32.865c0.68-0.471,0.73-1.278,0.132-2.127l-0.073,0.077c0.079,0.229,0.18,0.455,0.23,0.69
	c0.077,0.361,0.028,0.738-0.293,0.943c-0.358,0.229-0.754,0.063-1.073-0.138c-0.531-0.337-0.639-1.093-0.294-1.727l-0.05-0.065
	c-0.84,0.52-1.065,1.315-0.572,2.02C11.681,33.167,12.583,33.316,13.234,32.865z"/>
<path d="M4.391,92.229c-0.031-0.03-0.062-0.061-0.093-0.092c-0.685,0.84-0.72,1.389-0.128,2.006c0.53,0.555,1.169,0.563,1.94,0.028
	c-0.022-0.028-0.045-0.056-0.067-0.084C4.609,93.729,4.573,93.688,4.391,92.229z"/>
<path d="M6.109,44.306c-0.022-0.028-0.045-0.056-0.067-0.084c-1.445-0.384-1.47-0.412-1.649-1.856
	c-0.031-0.03-0.062-0.061-0.093-0.092c-0.681,0.828-0.721,1.333-0.158,1.949C4.694,44.826,5.294,44.852,6.109,44.306z"/>
<path d="M8.309,96.105c-0.009-0.034-0.021-0.068-0.033-0.102c-0.065-0.172-0.148-0.354-0.368-0.288
	c-0.208,0.062-0.184,0.271-0.188,0.444c0.037,0.318,0.035,0.653,0.357,0.846c0.048,0.028,0.159,0.026,0.196-0.009
	C8.571,96.717,8.384,96.407,8.309,96.105z"/>
<path d="M12.616,34.27c-0.082,0.056-0.122,0.177-0.059,0.28c0.143,0.232,0.362,0.172,0.556,0.109
	c0.284-0.093,0.628-0.108,0.729-0.415c0.03-0.194-0.063-0.26-0.161-0.282C13.273,33.869,12.934,34.05,12.616,34.27z"/>
<path d="M8.605,97.885c-0.063,0.02-0.147,0.021-0.188,0.064c-0.179,0.191-0.088,0.412-0.002,0.596
	c0.116,0.246,0.159,0.572,0.487,0.649c0.068,0.017,0.208-0.076,0.244-0.151C9.279,98.763,8.881,97.938,8.605,97.885z"/>
<path d="M8.012,94.223c-0.009-0.107-0.013-0.215-0.028-0.32c-0.031-0.216-0.079-0.482-0.33-0.48
	c-0.344,0.004-0.33,0.306-0.315,0.561c0.006,0.105,0.011,0.217,0.044,0.315c0.065,0.19,0.085,0.462,0.37,0.431
	C8.048,94.695,7.982,94.422,8.012,94.223z"/>
<path d="M11.665,34.906c-0.128-0.096-0.267-0.061-0.39,0.025c-0.145,0.102-0.295,0.198-0.426,0.315
	c-0.155,0.139-0.36,0.292-0.227,0.531c0.122,0.219,0.359,0.135,0.559,0.136c0.003-0.004,0.006-0.007,0.009-0.011
	c0.008-0.009,0.017-0.017,0.025-0.026c0.024-0.083,0.081-0.133,0.159-0.163c0.01-0.011,0.021-0.021,0.031-0.031
	c0.012-0.006,0.024-0.012,0.036-0.017c0.076-0.102,0.151-0.203,0.229-0.304C11.787,35.207,11.854,35.047,11.665,34.906z"/>
<path d="M11.375,35.712c0.014-0.005,0.027-0.012,0.042-0.017c0.008-0.011,0.017-0.021,0.024-0.032
	c-0.012,0.005-0.024,0.011-0.036,0.017C11.396,35.69,11.385,35.701,11.375,35.712z"/>
<path d="M11.181,35.912c0.007,0,0.015,0,0.023,0c0.002-0.014,0.008-0.024,0.012-0.037c-0.009,0.009-0.017,0.017-0.025,0.026
	C11.188,35.905,11.184,35.908,11.181,35.912z"/>
<path d="M14.594,34.212c0.282-0.034,0.83-0.601,0.834-0.863c0.002-0.126-0.081-0.196-0.184-0.221
	c-0.235-0.058-0.845,0.429-0.922,0.746C14.271,34.082,14.373,34.204,14.594,34.212z"/>
<path d="M16.267,104.115c0.001-0.271-0.537-0.904-0.8-0.937c-0.155-0.001-0.229,0.132-0.229,0.271
	c-0.002,0.275,0.544,0.938,0.764,0.937C16.155,104.384,16.266,104.272,16.267,104.115z"/>
<path d="M9.802,36.443c-0.259,0.002-0.754,0.691-0.697,0.968c0.072,0.349,0.362,0.213,0.585,0.212
	c0.001-0.003,0.003-0.007,0.004-0.01c0.005-0.003,0.01-0.006,0.015-0.009c0.02-0.282,0.162-0.482,0.407-0.614
	c0.002-0.009,0.004-0.017,0.006-0.025c0.005-0.003,0.009-0.007,0.014-0.011C10.137,36.71,10.141,36.44,9.802,36.443z"/>
<path d="M9.69,37.624c0.005,0,0.011,0,0.017,0c0-0.006,0.001-0.012,0.002-0.019C9.704,37.607,9.7,37.61,9.694,37.613
	C9.693,37.617,9.691,37.62,9.69,37.624z"/>
<path d="M10.116,36.99c0.007-0.003,0.013-0.007,0.02-0.011c0-0.008,0-0.017,0-0.025c-0.005,0.003-0.009,0.007-0.014,0.011
	C10.12,36.974,10.118,36.981,10.116,36.99z"/>
<path d="M9.747,99.915c-0.081-0.011-0.231,0.058-0.252,0.122c-0.124,0.375,0.185,0.564,0.388,0.789
	c0.089,0.098,0.221,0.189,0.346,0.213c0.136,0.026,0.264-0.062,0.304-0.221C10.551,100.607,9.996,99.946,9.747,99.915z"/>
<path d="M14.242,102.176c-0.174-0.031-0.347-0.075-0.522-0.088c-0.197-0.014-0.356,0.076-0.364,0.287
	c-0.006,0.15,0.111,0.257,0.258,0.29c0.171,0.039,0.348,0.056,0.499,0.078c0.225-0.021,0.497,0.07,0.547-0.218
	C14.711,102.233,14.45,102.213,14.242,102.176z"/>
<path d="M8.495,39.686c0.194-0.109,0.275-0.379,0.36-0.632c0.062-0.187,0.176-0.403-0.009-0.58
	c-0.056-0.053-0.232-0.075-0.274-0.033c-0.303,0.304-0.489,0.665-0.393,1.11C8.199,39.646,8.284,39.727,8.495,39.686z"/>
<path d="M7.898,41.868c0.255-0.174,0.274-0.462,0.325-0.723c-0.003-0.208,0.054-0.458-0.218-0.51
	c-0.274-0.052-0.333,0.209-0.393,0.392c-0.085,0.259-0.171,0.539,0.015,0.795C7.692,41.912,7.811,41.928,7.898,41.868z"/>
<path d="M16.124,32.46c0.404-0.203,0.442-0.589,0.443-0.979c0-0.147-0.077-0.262-0.25-0.279c-0.061,0.021-0.156,0.025-0.182,0.069
	c-0.189,0.333-0.387,0.67-0.266,1.078C15.906,32.469,16.034,32.505,16.124,32.46z"/>
<path d="M12.274,102.232c0.104-0.018,0.2-0.116,0.168-0.23c-0.113-0.414-0.533-0.416-0.826-0.588
	c-0.029-0.018-0.068-0.02-0.135-0.037c-0.068,0.033-0.192,0.054-0.244,0.126c-0.091,0.127-0.053,0.28,0.072,0.372
	C11.596,102.084,11.888,102.301,12.274,102.232z"/>
<path d="M16.382,105.304c-0.438-0.054-0.287,0.382-0.366,0.612c-0.043,0.126-0.039,0.278-0.021,0.414
	c0.019,0.148,0.123,0.27,0.276,0.267c0.144-0.003,0.261-0.093,0.286-0.256c0.021-0.139,0.036-0.278,0.061-0.474
	C16.531,105.71,16.712,105.344,16.382,105.304z"/>
<path d="M7.312,48.562c0.024,0.155,0.118,0.267,0.276,0.255c0.154-0.012,0.236-0.131,0.252-0.287
	c0.011-0.105,0.022-0.211,0.034-0.323c-0.057-0.251,0.071-0.694-0.271-0.702c-0.464-0.01-0.271,0.463-0.319,0.742
	C7.268,48.348,7.296,48.458,7.312,48.562z"/>
<path d="M7.541,54.384c-0.313,0.008-0.245,0.37-0.256,0.602c-0.008,0.175,0.015,0.354,0.049,0.526c0.02,0.1,0.082,0.198,0.214,0.197
	c0.114,0,0.215-0.04,0.243-0.155c0.042-0.17,0.062-0.346,0.089-0.498C7.802,54.789,7.952,54.373,7.541,54.384z"/>
<path d="M7.615,78.638c0.296-0.027,0.22-0.38,0.234-0.606c0.01-0.169-0.022-0.344-0.058-0.512c-0.021-0.102-0.103-0.166-0.222-0.173
	c-0.125-0.007-0.203,0.067-0.227,0.164c-0.042,0.166-0.05,0.339-0.079,0.55C7.366,78.248,7.178,78.677,7.615,78.638z"/>
<path d="M7.568,44.195c0.129-0.006,0.193-0.086,0.217-0.178c0.044-0.165,0.057-0.339,0.087-0.541
	c-0.068-0.187,0.075-0.55-0.238-0.578c-0.407-0.036-0.324,0.361-0.346,0.615c-0.014,0.168,0.017,0.345,0.059,0.51
	C7.369,44.112,7.432,44.202,7.568,44.195z"/>
<path d="M7.295,73.738c0.027,0.175,0.078,0.35,0.305,0.334c0.167-0.011,0.209-0.156,0.234-0.291
	c0.019-0.102,0.015-0.207,0.021-0.311c-0.063-0.244,0.101-0.656-0.266-0.68c-0.404-0.025-0.262,0.393-0.304,0.637
	C7.269,73.527,7.279,73.636,7.295,73.738z"/>
<path d="M7.609,90.161c0.158-0.022,0.202-0.173,0.226-0.31c0.018-0.104,0.015-0.209,0.022-0.316
	c-0.058-0.246,0.098-0.664-0.285-0.672c-0.4-0.008-0.244,0.411-0.285,0.658C7.27,89.623,7.282,89.732,7.3,89.835
	C7.329,90.01,7.376,90.195,7.609,90.161z"/>
<path d="M7.459,87.82c0.05,0.033,0.139,0.047,0.194,0.025c0.056-0.021,0.116-0.09,0.13-0.148c0.039-0.166,0.056-0.34,0.075-0.469
	c-0.008-0.146-0.01-0.25-0.021-0.354c-0.015-0.142-0.062-0.287-0.204-0.326c-0.076-0.021-0.216,0.031-0.264,0.098
	C7.198,86.884,7.267,87.69,7.459,87.82z"/>
<path d="M7.359,92.336c0.022,0.064,0.16,0.106,0.251,0.121c0.049,0.008,0.146-0.053,0.16-0.102c0.047-0.163,0.067-0.336,0.103-0.538
	c-0.102-0.204,0.088-0.628-0.298-0.638c-0.403-0.011-0.253,0.407-0.284,0.65C7.271,91.995,7.306,92.178,7.359,92.336z"/>
<path d="M7.554,83.271c0.124,0.03,0.205-0.061,0.232-0.153c0.046-0.163,0.058-0.337,0.083-0.505
	c-0.03-0.176-0.042-0.352-0.095-0.512c-0.029-0.09-0.134-0.178-0.245-0.131c-0.339,0.143-0.231,0.459-0.238,0.713
	C7.285,82.906,7.22,83.191,7.554,83.271z"/>
<path d="M7.549,79.652c-0.222,0.021-0.231,0.221-0.254,0.39c-0.014,0.104-0.021,0.21-0.011,0.312
	c0.023,0.229-0.056,0.583,0.255,0.595c0.426,0.016,0.244-0.4,0.318-0.636c-0.006-0.104-0.001-0.212-0.023-0.312
	C7.8,79.839,7.792,79.627,7.549,79.652z"/>
<path d="M7.796,63.777c-0.027-0.081-0.117-0.179-0.195-0.197c-0.162-0.037-0.25,0.082-0.278,0.23
	c-0.025,0.136-0.033,0.275-0.039,0.333c-0.005,0.584,0.088,0.799,0.3,0.74c0.376-0.105,0.239-0.443,0.262-0.697
	C7.858,64.051,7.839,63.905,7.796,63.777z"/>
<path d="M7.535,69.454c0.115,0.047,0.213-0.046,0.241-0.134c0.053-0.161,0.064-0.336,0.09-0.485
	c-0.026-0.194-0.033-0.368-0.079-0.532c-0.026-0.09-0.111-0.18-0.237-0.147c-0.333,0.086-0.262,0.367-0.256,0.591
	C7.3,68.999,7.19,69.314,7.535,69.454z"/>
<path d="M7.458,46.47c0.051,0.032,0.141,0.04,0.195,0.017c0.056-0.023,0.116-0.091,0.129-0.15c0.04-0.168,0.057-0.34,0.074-0.458
	c-0.009-0.158-0.009-0.263-0.021-0.366c-0.016-0.139-0.056-0.29-0.2-0.327c-0.074-0.019-0.21,0.043-0.257,0.111
	C7.2,45.557,7.261,46.347,7.458,46.47z"/>
<path d="M7.299,71.451c0.021,0.139,0.063,0.287,0.221,0.312c0.236,0.038,0.278-0.15,0.311-0.322c0.02-0.102,0.019-0.207,0.031-0.365
	c-0.086-0.182,0.101-0.612-0.297-0.607c-0.386,0.006-0.241,0.42-0.279,0.67C7.271,71.24,7.284,71.349,7.299,71.451z"/>
<path d="M7.604,62.58c0.34-0.146,0.239-0.463,0.24-0.721c0.002-0.224,0.068-0.508-0.261-0.596c-0.128-0.035-0.208,0.065-0.233,0.156
	c-0.047,0.165-0.055,0.341-0.081,0.52c0.027,0.167,0.037,0.343,0.09,0.506C7.387,62.533,7.49,62.628,7.604,62.58z"/>
<path d="M7.35,53.224c0.023,0.086,0.091,0.183,0.228,0.167C7.7,53.377,7.767,53.3,7.79,53.205c0.041-0.167,0.052-0.341,0.071-0.481
	c-0.04-0.258,0.053-0.614-0.252-0.634c-0.422-0.028-0.298,0.375-0.32,0.622C7.274,52.881,7.306,53.059,7.35,53.224z"/>
<path d="M7.833,59.274c-0.021-0.143-0.062-0.28-0.235-0.299c-0.178-0.02-0.251,0.105-0.286,0.249
	c-0.024,0.102-0.038,0.213-0.025,0.316c0.032,0.259-0.111,0.674,0.259,0.701c0.42,0.03,0.241-0.407,0.309-0.647
	C7.849,59.486,7.848,59.379,7.833,59.274z"/>
<path d="M7.837,50.072c-0.019-0.144-0.063-0.289-0.235-0.3c-0.236-0.015-0.283,0.163-0.304,0.348
	c-0.008,0.071-0.02,0.144-0.009,0.213c0.04,0.258-0.117,0.676,0.252,0.708c0.431,0.036,0.237-0.411,0.314-0.648
	C7.85,50.285,7.852,50.178,7.837,50.072z"/>
<path d="M7.572,76.316c0.33-0.007,0.256-0.35,0.281-0.59c-0.041-0.22,0.067-0.588-0.241-0.611C7.178,75.084,7.31,75.5,7.294,75.75
	C7.28,75.977,7.231,76.324,7.572,76.316z"/>
<path d="M7.577,65.91c-0.342-0.01-0.276,0.336-0.29,0.567c-0.008,0.14,0.011,0.284,0.036,0.423c0.027,0.154,0.129,0.266,0.29,0.225
	c0.078-0.02,0.161-0.126,0.189-0.211c0.044-0.132,0.043-0.278,0.056-0.371C7.82,66.266,7.914,65.918,7.577,65.91z"/>
<path d="M7.802,56.902c-0.038-0.156-0.164-0.258-0.307-0.195c-0.232,0.103-0.209,0.345-0.204,0.551
	c0.006,0.237-0.067,0.522,0.198,0.665c0.136,0.073,0.271-0.025,0.311-0.183c0.034-0.136,0.043-0.278,0.064-0.428
	C7.844,57.18,7.834,57.038,7.802,56.902z"/>
<path d="M7.641,85.527c0.234-0.104,0.206-0.35,0.204-0.558c-0.003-0.24,0.063-0.525-0.198-0.67
	c-0.129-0.071-0.275,0.024-0.314,0.187C7.3,84.623,7.29,84.766,7.271,84.898c0.02,0.151,0.026,0.295,0.06,0.432
	C7.368,85.487,7.5,85.589,7.641,85.527z"/>
<path d="M6.227,43.996c0.03,0.026,0.061,0.053,0.09,0.08c0.477-0.897,0.465-0.996-0.215-1.796c-0.028,0.029-0.056,0.059-0.084,0.089
	C6.316,42.882,6.36,43.428,6.227,43.996z"/>
<path d="M6.019,42.369c0.028-0.03,0.056-0.06,0.084-0.089c-0.809-0.542-0.99-0.542-1.803-0.007c0.031,0.031,0.062,0.062,0.093,0.092
	C4.936,42.057,5.478,42.094,6.019,42.369z"/>
<path d="M6.025,92.231c0.025-0.027,0.05-0.054,0.075-0.081c-0.597-0.574-1.198-0.535-1.803-0.014
	c0.031,0.031,0.062,0.062,0.093,0.092C4.936,91.957,5.481,91.953,6.025,92.231z"/>
<path d="M6.229,92.443c0.084,0.474,0.105,0.947,0.002,1.422c0.029,0.025,0.059,0.051,0.088,0.078
	c0.446-0.527,0.461-1.049-0.015-1.566L6.229,92.443z"/>
<path d="M13.293,30.814l0.073-0.077c-0.456-0.515-0.979-0.554-1.554-0.22l0.05,0.065C12.365,30.5,12.836,30.614,13.293,30.814z"/>
<path d="M16.312,30.259c0.149-0.035,0.234-0.133,0.211-0.293c-0.016-0.111-0.093-0.19-0.211-0.197
	c-0.161-0.009-0.276,0.08-0.276,0.236C16.037,30.155,16.142,30.252,16.312,30.259z"/>
<path d="M6.042,94.087c0.022,0.028,0.044,0.056,0.067,0.084c0.07-0.076,0.14-0.152,0.209-0.228C6.29,93.916,6.26,93.891,6.23,93.865
	C6.168,93.939,6.105,94.013,6.042,94.087z"/>
<path d="M6.229,92.443l0.075-0.066c-0.067-0.076-0.135-0.151-0.203-0.227c-0.025,0.027-0.05,0.054-0.075,0.081
	C6.093,92.303,6.161,92.373,6.229,92.443z"/>
<path d="M6.042,44.221c0.022,0.029,0.045,0.057,0.067,0.084c0.069-0.077,0.139-0.153,0.208-0.229c-0.03-0.027-0.06-0.054-0.09-0.08
	C6.166,44.071,6.104,44.146,6.042,44.221z"/>
<path d="M99.667,78.275c0.234-0.018,0.298-0.186,0.31-0.36c0.021-0.273,0.078-0.601-0.295-0.681
	c-0.135-0.027-0.219,0.158-0.234,0.303C99.418,77.813,99.361,78.104,99.667,78.275z"/>
<path d="M99.73,97.778c-0.293-0.036-0.27,0.253-0.308,0.454c0.028,0.233-0.034,0.567,0.306,0.568c0.253,0,0.26-0.297,0.264-0.507
	C99.995,98.081,99.98,97.809,99.73,97.778z"/>
<path d="M99.68,82.84c-0.24,0.015-0.221,0.312-0.256,0.522c0.029,0.221-0.033,0.548,0.32,0.523c0.252-0.019,0.255-0.299,0.25-0.507
	C99.988,83.145,100.02,82.82,99.68,82.84z"/>
<path d="M99.71,92.154c-0.253-0.017-0.288,0.263-0.279,0.477c0.009,0.236-0.022,0.562,0.286,0.586
	c0.252,0.021,0.264-0.271,0.283-0.48C99.988,92.496,100.031,92.177,99.71,92.154z"/>
<path d="M99.691,103.373c-0.232-0.001-0.26,0.296-0.259,0.5c0.001,0.229-0.043,0.554,0.299,0.55c0.26-0.003,0.242-0.29,0.268-0.501
	C99.99,103.688,100.003,103.373,99.691,103.373z"/>
<path d="M99.712,76.434c0.222,0.009,0.285-0.265,0.28-0.483c-0.004-0.244-0.014-0.562-0.296-0.579
	c-0.218-0.015-0.241,0.289-0.27,0.496C99.435,76.104,99.398,76.42,99.712,76.434z"/>
<path d="M99.771,94.043c-0.189-0.024-0.273,0.085-0.303,0.221c-0.065,0.305-0.124,0.635,0.201,0.824
	c0.125,0.072,0.246-0.09,0.275-0.222C100.014,94.564,100.074,94.254,99.771,94.043z"/>
<path d="M99.664,96.945c0.341,0.027,0.322-0.289,0.325-0.521c0.003-0.205-0.019-0.493-0.245-0.513
	c-0.341-0.029-0.273,0.31-0.336,0.573C99.462,96.63,99.407,96.924,99.664,96.945z"/>
<path d="M99.714,89.498c0.226,0.01,0.269-0.272,0.276-0.488c-0.008-0.241,0.011-0.558-0.294-0.57c-0.225-0.01-0.27,0.279-0.272,0.49
	C99.42,89.169,99.412,89.484,99.714,89.498z"/>
<path d="M99.703,90.302c-0.119-0.04-0.219,0.147-0.24,0.289c-0.041,0.272-0.115,0.559,0.18,0.731
	c0.192,0.021,0.286-0.09,0.309-0.227C100.002,90.793,100.108,90.44,99.703,90.302z"/>
<path d="M99.706,87.625c0.222,0.021,0.286-0.269,0.286-0.479c0.001-0.235,0.031-0.556-0.281-0.58
	c-0.246-0.019-0.271,0.261-0.287,0.485C99.443,87.273,99.416,87.596,99.706,87.625z"/>
<path d="M99.677,84.725c-0.2-0.004-0.241,0.227-0.243,0.4c-0.001,0.24-0.027,0.563,0.262,0.607c0.244,0.037,0.281-0.248,0.3-0.473
	C99.974,85.036,100.014,84.733,99.677,84.725z"/>
<path d="M99.698,105.259c-0.255,0.003-0.263,0.274-0.265,0.523c0.048,0.157-0.005,0.464,0.24,0.482
	c0.34,0.025,0.312-0.3,0.318-0.532C99.998,105.518,99.938,105.255,99.698,105.259z"/>
<path d="M99.735,82.014c0.231-0.016,0.26-0.294,0.256-0.504c-0.004-0.237-0.011-0.549-0.319-0.539
	c-0.23,0.008-0.237,0.298-0.258,0.577C99.496,81.678,99.384,82.036,99.735,82.014z"/>
<path d="M99.739,102.55c0.231-0.017,0.258-0.3,0.251-0.509c-0.007-0.235-0.003-0.555-0.32-0.537
	c-0.227,0.012-0.232,0.305-0.252,0.527C99.458,102.241,99.398,102.574,99.739,102.55z"/>
<path d="M99.426,100.151c0.051,0.214-0.035,0.555,0.315,0.525c0.23-0.02,0.249-0.298,0.247-0.507
	c-0.003-0.236,0.021-0.548-0.319-0.523C99.412,99.666,99.447,99.951,99.426,100.151z"/>
<path d="M99.702,79.135c-0.248,0.002-0.273,0.268-0.275,0.492c0.034,0.191-0.001,0.494,0.236,0.515
	c0.337,0.03,0.308-0.3,0.322-0.528C99.999,79.396,99.945,79.133,99.702,79.135z"/>
<path d="M92.063,96.711c0,0.195-0.05,0.498,0.215,0.51c0.367,0.016,0.251-0.33,0.286-0.549c-0.015-0.203,0.022-0.479-0.272-0.46
	C92.004,96.23,92.062,96.516,92.063,96.711z"/>
<path d="M92.303,90.616c-0.289,0.013-0.236,0.294-0.24,0.489c-0.003,0.199-0.049,0.498,0.207,0.519
	c0.374,0.03,0.258-0.319,0.303-0.569C92.514,90.906,92.613,90.604,92.303,90.616z"/>
<path d="M92.301,103.673c-0.285,0.018-0.238,0.299-0.239,0.495c-0.001,0.198-0.05,0.498,0.213,0.516
	c0.374,0.023,0.252-0.325,0.294-0.582C92.505,103.965,92.619,103.654,92.301,103.673z"/>
<path d="M92.352,98.088c-0.294-0.07-0.266,0.232-0.293,0.435c0.047,0.208-0.119,0.538,0.252,0.577
	c0.229,0.024,0.246-0.213,0.246-0.381C92.556,98.487,92.651,98.16,92.352,98.088z"/>
<path d="M92.271,85.021c-0.256,0.02-0.212,0.322-0.209,0.521c0.002,0.194-0.055,0.48,0.238,0.49
	c0.297,0.009,0.246-0.272,0.266-0.473C92.531,85.342,92.641,84.994,92.271,85.021z"/>
<path d="M92.336,84.152c0.283-0.006,0.195-0.312,0.229-0.506c-0.033-0.191,0.066-0.482-0.223-0.509
	c-0.298-0.028-0.286,0.258-0.278,0.457C92.072,83.814,91.969,84.16,92.336,84.152z"/>
<path d="M92.064,78.146c-0.011,0.167-0.007,0.415,0.199,0.422c0.377,0.013,0.271-0.317,0.301-0.533
	c-0.018-0.207,0.019-0.503-0.261-0.479C91.951,77.584,92.08,77.925,92.064,78.146z"/>
<path d="M92.274,76.684c0.366,0.023,0.253-0.322,0.293-0.539c-0.016-0.197,0.033-0.472-0.261-0.459
	c-0.286,0.012-0.243,0.291-0.243,0.487C92.062,76.369,92.015,76.667,92.274,76.684z"/>
<path d="M92.355,105.547c-0.309-0.059-0.263,0.236-0.297,0.428c0.023,0.197-0.055,0.478,0.205,0.524
	c0.304,0.055,0.283-0.232,0.292-0.427C92.566,105.872,92.605,105.596,92.355,105.547z"/>
<path d="M92.565,87.391c-0.042-0.16,0.052-0.45-0.222-0.484c-0.305-0.039-0.273,0.252-0.278,0.445
	c-0.005,0.197-0.05,0.479,0.216,0.514C92.593,87.907,92.525,87.609,92.565,87.391z"/>
<path d="M92.273,82.273c0.301,0.045,0.283-0.242,0.286-0.438c0.004-0.197,0.044-0.477-0.212-0.518
	c-0.315-0.052-0.255,0.246-0.29,0.436C92.084,81.951,92.007,82.233,92.273,82.273z"/>
<path d="M92.296,92.49c-0.271,0.021-0.24,0.297-0.229,0.492c0.009,0.185-0.053,0.475,0.254,0.457
	c0.291-0.017,0.205-0.301,0.248-0.52C92.5,92.777,92.606,92.467,92.296,92.49z"/>
<path d="M92.274,80.388c0.319,0.048,0.249-0.252,0.286-0.446c-0.025-0.19,0.054-0.475-0.215-0.512
	c-0.303-0.041-0.276,0.248-0.28,0.442C92.062,80.068,92.01,80.348,92.274,80.388z"/>
<path d="M92.326,95.338c0.278-0.017,0.215-0.297,0.24-0.533c-0.063-0.137,0.043-0.447-0.271-0.427
	c-0.28,0.019-0.232,0.304-0.229,0.496C92.07,95.064,92.021,95.357,92.326,95.338z"/>
<path d="M92.324,74.799c0.292-0.016,0.201-0.301,0.244-0.52c-0.068-0.144,0.038-0.454-0.273-0.432
	c-0.275,0.019-0.234,0.298-0.229,0.49C92.072,74.525,92.02,74.814,92.324,74.799z"/>
<path d="M92.278,99.965c-0.272,0.034-0.193,0.318-0.22,0.51c0.036,0.195-0.03,0.494,0.285,0.449
	c0.268-0.037,0.217-0.318,0.211-0.514C92.549,100.219,92.586,99.924,92.278,99.965z"/>
<path d="M92.27,101.858c-0.26,0.046-0.208,0.324-0.203,0.521c0.006,0.195-0.018,0.485,0.286,0.434
	c0.259-0.043,0.198-0.321,0.216-0.556C92.512,102.111,92.585,101.802,92.27,101.858z"/>
<path d="M92.319,89.751c0.288-0.014,0.208-0.3,0.249-0.52c-0.062-0.147,0.037-0.452-0.273-0.433
	c-0.281,0.018-0.232,0.299-0.229,0.489C92.07,89.475,92.016,89.766,92.319,89.751z"/>
<path d="M28.707,73.809c-0.216-0.078-0.29,0.14-0.314,0.308c-0.038,0.271-0.083,0.559,0.208,0.731
	c0.235,0.009,0.322-0.146,0.337-0.32C28.962,74.262,29.049,73.934,28.707,73.809z"/>
<path d="M28.637,99.113c0.249,0.045,0.283-0.242,0.315-0.449c-0.012-0.236,0.056-0.554-0.255-0.605
	c-0.271-0.046-0.284,0.25-0.301,0.443C28.375,98.739,28.34,99.061,28.637,99.113z"/>
<path d="M28.715,79.416c-0.307-0.079-0.253,0.242-0.317,0.415c0.005,0.241-0.06,0.546,0.269,0.589
	c0.179,0.023,0.27-0.195,0.275-0.38C28.949,79.803,29.005,79.492,28.715,79.416z"/>
<path d="M28.653,78.59c0.225,0.027,0.288-0.257,0.294-0.471c0.006-0.242,0.007-0.492-0.274-0.611
	c-0.258,0.068-0.274,0.288-0.284,0.488C28.376,78.236,28.362,78.557,28.653,78.59z"/>
<path d="M28.631,95.354c0.339,0.021,0.312-0.3,0.313-0.537c0.001-0.213-0.033-0.479-0.287-0.474c-0.26,0.007-0.25,0.285-0.271,0.492
	C28.425,95.034,28.386,95.338,28.631,95.354z"/>
<path d="M28.68,88.723c-0.39-0.006-0.244,0.354-0.27,0.566c-0.024,0.197-0.022,0.495,0.245,0.492
	c0.337-0.006,0.274-0.334,0.303-0.585C28.934,89.008,28.935,88.727,28.68,88.723z"/>
<path d="M28.665,86.86c-0.267-0.005-0.255,0.277-0.279,0.486c0.059,0.21-0.032,0.56,0.331,0.521
	c0.256-0.027,0.224-0.317,0.229-0.521C28.95,87.133,28.911,86.865,28.665,86.86z"/>
<path d="M28.714,83.145c-0.358-0.034-0.298,0.308-0.313,0.524c-0.013,0.198-0.018,0.491,0.229,0.513
	c0.351,0.033,0.292-0.296,0.324-0.515C28.933,83.455,28.964,83.169,28.714,83.145z"/>
<path d="M28.618,100.943c0.282,0.047,0.312-0.217,0.323-0.422c0.014-0.24,0.042-0.562-0.274-0.584
	c-0.257-0.018-0.234,0.289-0.279,0.514C28.423,100.62,28.351,100.898,28.618,100.943z"/>
<path d="M28.67,105.52c-0.299,0.037-0.263,0.379-0.258,0.619c0.003,0.167,0.011,0.428,0.223,0.429
	c0.362,0.003,0.285-0.325,0.319-0.538C28.947,105.79,28.911,105.49,28.67,105.52z"/>
<path d="M28.634,85.002c-0.257,0.025-0.175,0.328-0.209,0.514c0.023,0.201-0.076,0.5,0.187,0.532
	c0.343,0.041,0.332-0.286,0.333-0.519C28.947,85.302,28.984,84.97,28.634,85.002z"/>
<path d="M28.636,76.72c0.346,0.023,0.308-0.304,0.314-0.537c0.006-0.205,0.012-0.495-0.235-0.511
	c-0.364-0.023-0.276,0.307-0.291,0.533C28.451,76.4,28.367,76.701,28.636,76.72z"/>
<path d="M28.642,92.469c-0.267,0.031-0.218,0.309-0.238,0.539c0.075,0.146-0.057,0.468,0.245,0.465
	c0.347-0.002,0.296-0.328,0.295-0.561C28.944,92.709,28.922,92.436,28.642,92.469z"/>
<path d="M28.633,96.2c-0.253,0.022-0.204,0.318-0.215,0.521c0.037,0.221-0.069,0.57,0.3,0.536c0.221-0.02,0.249-0.309,0.232-0.523
	C28.933,96.505,28.988,96.168,28.633,96.2z"/>
<path d="M28.62,102.838c0.35,0.043,0.323-0.285,0.328-0.518c0.004-0.207-0.006-0.477-0.269-0.48
	c-0.281-0.004-0.249,0.269-0.253,0.508C28.453,102.506,28.361,102.807,28.62,102.838z"/>
<path d="M28.683,90.599c-0.312,0.018-0.29,0.358-0.274,0.592c0.013,0.185-0.002,0.495,0.299,0.445
	c0.251-0.041,0.23-0.319,0.242-0.532C28.941,90.887,28.925,90.584,28.683,90.599z"/>
<path d="M36.077,101.514c-0.334,0.003-0.286,0.336-0.287,0.569c0,0.202-0.006,0.484,0.289,0.448
	c0.277-0.033,0.184-0.324,0.226-0.551C36.254,101.828,36.356,101.512,36.077,101.514z"/>
<path d="M36.098,95.066c0.244-0.025,0.182-0.328,0.2-0.532c-0.04-0.181,0.061-0.476-0.246-0.479
	c-0.29-0.002-0.265,0.275-0.261,0.475C35.794,94.761,35.74,95.101,36.098,95.066z"/>
<path d="M28.702,104.693c0.243-0.009,0.243-0.309,0.243-0.52c0-0.213-0.004-0.494-0.255-0.514c-0.284-0.023-0.24,0.279-0.286,0.475
	C28.456,104.352,28.346,104.707,28.702,104.693z"/>
<path d="M36.085,88.465c-0.364-0.027-0.289,0.312-0.293,0.539c-0.004,0.2-0.021,0.479,0.268,0.469
	c0.297-0.01,0.203-0.301,0.241-0.486C36.275,88.785,36.343,88.484,36.085,88.465z"/>
<path d="M36.014,83.885c0.301,0.033,0.271-0.244,0.285-0.447c-0.041-0.217,0.097-0.565-0.268-0.566
	c-0.27-0.001-0.238,0.301-0.239,0.501C35.79,83.57,35.733,83.854,36.014,83.885z"/>
<path d="M28.704,81.301c-0.354-0.008-0.255,0.33-0.284,0.561c0.025,0.19-0.029,0.48,0.275,0.447
	c0.248-0.025,0.254-0.293,0.253-0.504C28.947,81.598,28.947,81.306,28.704,81.301z"/>
<path d="M36.065,76.418c0.296-0.018,0.2-0.312,0.234-0.504c-0.03-0.197,0.053-0.508-0.212-0.521
	c-0.354-0.019-0.295,0.323-0.298,0.555C35.787,76.15,35.771,76.436,36.065,76.418z"/>
<path d="M36.065,82.008c0.289-0.016,0.199-0.309,0.235-0.498c-0.026-0.198,0.051-0.505-0.211-0.521c-0.352-0.021-0.3,0.317-0.3,0.55
	C35.79,81.739,35.778,82.023,36.065,82.008z"/>
<path d="M36.052,86.584c-0.278,0.006-0.263,0.282-0.262,0.486c0,0.203-0.038,0.5,0.216,0.523c0.379,0.032,0.253-0.322,0.296-0.537
	C36.278,86.864,36.347,86.578,36.052,86.584z"/>
<path d="M36.108,96.93c0.259-0.05,0.171-0.337,0.199-0.573c-0.069-0.136,0.044-0.462-0.252-0.44
	c-0.334,0.024-0.261,0.355-0.264,0.586C35.789,96.715,35.829,96.982,36.108,96.93z"/>
<path d="M36.038,99.655c-0.282,0.023-0.245,0.297-0.246,0.498c-0.001,0.2-0.032,0.495,0.23,0.507
	c0.374,0.018,0.24-0.332,0.288-0.583C36.244,99.94,36.367,99.629,36.038,99.655z"/>
<path d="M36.036,105.289c-0.272,0.016-0.244,0.296-0.242,0.494c0.002,0.199-0.014,0.484,0.275,0.462
	c0.27-0.021,0.207-0.302,0.227-0.497C36.267,105.559,36.328,105.271,36.036,105.289z"/>
<path d="M36.088,90.338c-0.287-0.041-0.289,0.24-0.295,0.441c-0.006,0.201-0.032,0.475,0.227,0.512
	c0.313,0.045,0.236-0.253,0.275-0.441C36.266,90.662,36.354,90.375,36.088,90.338z"/>
<path d="M36.071,85.71c0.274-0.022,0.205-0.304,0.223-0.499c-0.023-0.192,0.04-0.479-0.255-0.461
	c-0.27,0.018-0.249,0.297-0.245,0.498C35.797,85.447,35.781,85.733,36.071,85.71z"/>
<path d="M36.015,92.234c-0.262,0.04-0.223,0.312-0.22,0.514c0.003,0.207,0.022,0.484,0.3,0.441c0.255-0.039,0.179-0.327,0.202-0.523
	C36.258,92.482,36.332,92.184,36.015,92.234z"/>
<path d="M36.023,80.121c0.299,0.037,0.244-0.25,0.276-0.469c-0.036-0.16,0.057-0.447-0.212-0.482
	c-0.287-0.037-0.29,0.238-0.292,0.443C35.791,79.814,35.764,80.09,36.023,80.121z"/>
<path d="M36.09,78.238c0.27-0.037,0.179-0.325,0.207-0.515c-0.037-0.188,0.035-0.486-0.275-0.444
	c-0.261,0.035-0.229,0.312-0.227,0.514C35.798,77.998,35.803,78.277,36.09,78.238z"/>
<path d="M36.093,97.809c-0.285-0.044-0.298,0.235-0.3,0.443c-0.001,0.201-0.042,0.479,0.221,0.518
	c0.313,0.049,0.246-0.248,0.288-0.461C36.263,98.142,36.354,97.849,36.093,97.809z"/>
<path d="M36.028,103.399c-0.262,0.025-0.24,0.302-0.232,0.503c0.008,0.197-0.013,0.48,0.283,0.449
	c0.281-0.028,0.185-0.315,0.219-0.498C36.267,103.658,36.318,103.371,36.028,103.399z"/>
<path d="M95.842,47.474c0.682,0.059,1.388-0.521,1.415-1.161c0.026-0.606-0.568-1.192-1.238-1.22
	c-0.671-0.028-1.372,0.595-1.372,1.22C94.646,46.856,95.227,47.421,95.842,47.474z M95.973,45.559
	c0.532,0.003,0.828,0.271,0.818,0.739c-0.01,0.454-0.321,0.712-0.855,0.709c-0.531-0.003-0.827-0.27-0.818-0.737
	C95.127,45.816,95.439,45.556,95.973,45.559z"/>
<path d="M99.71,32.434c-0.248-0.02-0.28,0.266-0.278,0.476c0.003,0.239-0.014,0.562,0.281,0.591c0.239,0.023,0.27-0.267,0.287-0.523
	C99.976,32.784,100.023,32.458,99.71,32.434z"/>
<path d="M99.989,38.563c-0.003-0.214-0.017-0.486-0.271-0.499c-0.267-0.013-0.278,0.257-0.293,0.482
	c0.041,0.21-0.05,0.554,0.312,0.53C99.98,39.059,99.992,38.777,99.989,38.563z"/>
<path d="M99.689,42.832c0.238,0.032,0.293-0.242,0.3-0.452c0.007-0.24,0.022-0.552-0.267-0.595c-0.252-0.038-0.258,0.256-0.306,0.49
	C99.453,42.467,99.385,42.791,99.689,42.832z"/>
<path d="M99.652,31.596c0.288,0.064,0.314-0.202,0.331-0.402c0.02-0.241,0.046-0.56-0.261-0.596
	c-0.259-0.03-0.244,0.275-0.301,0.524C99.464,31.266,99.396,31.539,99.652,31.596z"/>
<path d="M99.425,34.849c0.019,0.209,0.007,0.51,0.242,0.523c0.321,0.019,0.315-0.302,0.323-0.542c0.007-0.215-0.018-0.5-0.25-0.517
	C99.389,34.286,99.457,34.622,99.425,34.849z"/>
<path d="M99.666,37.229c0.275,0.064,0.286-0.219,0.324-0.422c-0.012-0.234,0.039-0.546-0.245-0.614
	c-0.279-0.066-0.284,0.239-0.306,0.422C99.412,36.848,99.372,37.16,99.666,37.229z"/>
<path d="M99.723,40.963c0.225,0.002,0.257-0.285,0.266-0.496c0.011-0.25-0.011-0.55-0.306-0.557
	c-0.237-0.005-0.249,0.284-0.261,0.509C99.461,40.63,99.406,40.96,99.723,40.963z"/>
<path d="M99.722,47.378c-0.318,0.005-0.276,0.325-0.3,0.546c0.021,0.221,0.045,0.514,0.27,0.508
	c0.301-0.008,0.297-0.324,0.299-0.564C99.992,47.654,99.954,47.375,99.722,47.378z"/>
<path d="M99.666,44.64c0.286,0.065,0.308-0.203,0.322-0.401c0.018-0.241,0.022-0.494-0.266-0.609
	c-0.262,0.066-0.274,0.284-0.278,0.487C99.439,44.32,99.424,44.585,99.666,44.64z"/>
<path d="M99.739,45.562c-0.265-0.024-0.29,0.244-0.292,0.444c-0.002,0.229-0.039,0.55,0.289,0.548
	c0.243-0.002,0.243-0.288,0.26-0.494C99.973,45.858,99.993,45.584,99.739,45.562z"/>
<path d="M92.062,38.891c0.003,0.197-0.05,0.483,0.242,0.49c0.299,0.007,0.24-0.277,0.259-0.481
	c-0.042-0.209,0.087-0.566-0.295-0.533C92.014,38.39,92.06,38.691,92.062,38.891z"/>
<path d="M92.326,44.968c0.292,0.005,0.204-0.302,0.238-0.492c-0.029-0.195,0.062-0.482-0.216-0.519
	c-0.302-0.041-0.29,0.247-0.284,0.443C92.07,44.62,91.965,44.962,92.326,44.968z"/>
<path d="M92.298,31.904c0.293,0.014,0.253-0.264,0.267-0.465c-0.031-0.221,0.081-0.565-0.288-0.544
	c-0.263,0.016-0.218,0.316-0.214,0.515C92.066,31.604,92.009,31.891,92.298,31.904z"/>
<path d="M92.275,37.494c0.367,0.021,0.256-0.323,0.291-0.534c-0.015-0.209,0.02-0.484-0.271-0.469
	c-0.29,0.014-0.229,0.298-0.231,0.492C92.063,37.179,92.012,37.479,92.275,37.494z"/>
<path d="M92.275,43.093c0.366,0.022,0.255-0.324,0.289-0.537c-0.021-0.2,0.043-0.483-0.259-0.469
	c-0.288,0.014-0.243,0.295-0.243,0.493C92.062,42.777,92.014,43.078,92.275,43.093z"/>
<path d="M92.285,40.244c-0.266,0.034-0.228,0.312-0.221,0.509c0.006,0.192-0.031,0.483,0.275,0.448
	c0.277-0.032,0.194-0.316,0.229-0.543C92.508,40.515,92.604,40.203,92.285,40.244z"/>
<path d="M92.32,35.616c0.29-0.016,0.212-0.299,0.242-0.483c-0.024-0.203,0.021-0.484-0.267-0.47c-0.28,0.014-0.234,0.298-0.229,0.49
	C92.072,35.339,92.014,35.632,92.32,35.616z"/>
<path d="M92.301,32.77c-0.288,0.009-0.236,0.296-0.233,0.486c0.003,0.189-0.051,0.482,0.249,0.473c0.28-0.009,0.221-0.29,0.25-0.521
	C92.507,33.065,92.604,32.76,92.301,32.77z"/>
<path d="M92.296,45.829c-0.273,0.021-0.237,0.299-0.229,0.494c0.008,0.188-0.048,0.48,0.258,0.459
	c0.275-0.019,0.213-0.297,0.241-0.529C92.503,46.116,92.606,45.807,92.296,45.829z"/>
<path d="M32.114,47.469c0.652,0.105,1.403-0.432,1.495-1.069c0.086-0.594-0.461-1.223-1.134-1.302
	c-0.684-0.081-1.378,0.465-1.426,1.121C31.005,46.808,31.481,47.366,32.114,47.469z M32.304,45.56
	c0.514-0.001,0.887,0.301,0.884,0.717c-0.002,0.417-0.372,0.726-0.877,0.733c-0.483,0.007-0.91-0.329-0.901-0.711
	C31.418,45.909,31.839,45.562,32.304,45.56z"/>
<path d="M28.713,38.345c-0.358-0.032-0.3,0.308-0.325,0.526c-0.023,0.206-0.015,0.492,0.23,0.514
	c0.342,0.029,0.304-0.295,0.344-0.577C28.916,38.663,28.976,38.369,28.713,38.345z"/>
<path d="M28.682,36.476c-0.265-0.038-0.287,0.249-0.294,0.45c-0.008,0.238-0.031,0.557,0.264,0.603
	c0.256,0.039,0.284-0.241,0.306-0.494C28.927,36.842,28.99,36.519,28.682,36.476z"/>
<path d="M28.4,42.467c0.026,0.245-0.061,0.618,0.306,0.636c0.25,0.013,0.222-0.296,0.246-0.503c-0.027-0.224,0.027-0.53-0.319-0.532
	C28.423,42.066,28.383,42.301,28.4,42.467z"/>
<path d="M28.643,31.926c0.31-0.003,0.304-0.316,0.301-0.558c-0.003-0.21-0.034-0.495-0.264-0.496c-0.326,0-0.262,0.329-0.301,0.584
	C28.423,31.625,28.4,31.928,28.643,31.926z"/>
<path d="M28.636,32.754c-0.247,0.019-0.208,0.336-0.219,0.537c-0.012,0.208-0.013,0.5,0.25,0.508
	c0.259,0.008,0.281-0.27,0.288-0.565C28.89,33.094,28.998,32.727,28.636,32.754z"/>
<path d="M28.718,45.828c-0.387-0.04-0.276,0.328-0.301,0.537c-0.024,0.201-0.011,0.492,0.261,0.489
	c0.268-0.002,0.264-0.281,0.275-0.571C28.911,46.16,28.98,45.854,28.718,45.828z"/>
<path d="M28.645,44.982c0.25,0.05,0.282-0.251,0.307-0.473c-0.019-0.235,0.025-0.548-0.308-0.574
	c-0.198-0.016-0.252,0.228-0.249,0.408C28.398,44.587,28.364,44.926,28.645,44.982z"/>
<path d="M28.701,47.689c-0.409-0.031-0.206,0.357-0.294,0.55c0.008,0.217,0.005,0.499,0.28,0.48c0.248-0.016,0.26-0.299,0.261-0.513
	C28.949,47.996,28.951,47.708,28.701,47.689z"/>
<path d="M28.686,41.226c0.18,0.018,0.259-0.204,0.259-0.386c-0.001-0.233,0.065-0.544-0.239-0.608
	c-0.298-0.062-0.251,0.245-0.308,0.425C28.415,40.891,28.365,41.193,28.686,41.226z"/>
<path d="M36.087,41.801c-0.352-0.019-0.296,0.317-0.294,0.55c0.002,0.199-0.033,0.486,0.268,0.47
	c0.292-0.016,0.207-0.307,0.246-0.525C36.255,42.131,36.351,41.814,36.087,41.801z"/>
<path d="M36.089,47.387c-0.291-0.047-0.301,0.236-0.297,0.441c0.004,0.228-0.083,0.566,0.268,0.578
	c0.292,0.011,0.2-0.303,0.241-0.488C36.278,47.715,36.348,47.428,36.089,47.387z"/>
<path d="M36.08,35.347c0.27-0.011,0.19-0.321,0.223-0.518c-0.03-0.195,0.052-0.487-0.233-0.508
	c-0.297-0.023-0.279,0.266-0.277,0.467C35.795,35.017,35.719,35.361,36.08,35.347z"/>
<path d="M28.688,35.651c0.249-0.019,0.262-0.29,0.262-0.499c0-0.207,0.004-0.5-0.239-0.512c-0.367-0.018-0.264,0.319-0.287,0.589
	C28.466,35.373,28.383,35.674,28.688,35.651z"/>
<path d="M36.208,33.402c0.054-0.162,0.076-0.335,0.095-0.427c-0.012-0.253,0.004-0.441-0.188-0.527
	c-0.047-0.021-0.145,0.014-0.188,0.055c-0.208,0.196-0.197,0.814,0.021,0.958C36.027,33.512,36.164,33.532,36.208,33.402z"/>
<path d="M36.065,40.938c0.276,0.008,0.202-0.295,0.233-0.522c-0.041-0.151,0.071-0.439-0.201-0.48
	c-0.277-0.042-0.306,0.227-0.306,0.435C35.792,40.6,35.735,40.928,36.065,40.938z"/>
<path d="M36.089,36.201c-0.289-0.065-0.271,0.239-0.305,0.439c0.035,0.225-0.069,0.546,0.287,0.576
	c0.239,0.02,0.227-0.227,0.222-0.388C36.287,36.6,36.392,36.269,36.089,36.201z"/>
<path d="M36.07,44.637c0.274-0.021,0.197-0.309,0.23-0.499c-0.036-0.189,0.02-0.479-0.267-0.461
	c-0.268,0.017-0.245,0.297-0.241,0.499C35.798,44.374,35.777,44.659,36.07,44.637z"/>
<path d="M36.073,45.574c-0.293-0.022-0.276,0.261-0.28,0.46c-0.003,0.2-0.031,0.482,0.238,0.501c0.287,0.021,0.236-0.27,0.278-0.493
	C36.242,45.897,36.36,45.596,36.073,45.574z"/>
<path d="M36.018,39.049c0.311,0.045,0.242-0.252,0.281-0.438c-0.025-0.196,0.057-0.483-0.208-0.522
	c-0.288-0.042-0.295,0.235-0.299,0.443C35.787,38.737,35.759,39.011,36.018,39.049z"/>
<path d="M36.082,31.58c0.278-0.032,0.183-0.32,0.213-0.505c-0.028-0.196,0.029-0.485-0.269-0.453
	c-0.262,0.028-0.237,0.306-0.234,0.508C35.796,31.333,35.792,31.612,36.082,31.58z"/>
<path d="M33.956,64.708c0.002-0.665-0.538-1.2-1.224-1.212c-0.707-0.012-1.331,0.578-1.327,1.256c0.004,0.609,0.63,1.16,1.304,1.147
	C33.399,65.887,33.954,65.357,33.956,64.708z M32.74,65.402c-0.494,0.021-0.899-0.273-0.927-0.674
	c-0.028-0.392,0.358-0.739,0.848-0.76c0.497-0.021,0.906,0.273,0.933,0.672C33.62,65.029,33.224,65.383,32.74,65.402z"/>
<path d="M32.52,61.446c0.732-0.022,1.259-0.521,1.249-1.183c-0.011-0.657-0.562-1.119-1.311-1.099
	c-0.717,0.019-1.275,0.543-1.259,1.182C31.216,60.993,31.787,61.469,32.52,61.446z M31.603,60.24
	c0.046-0.356,0.534-0.73,0.934-0.715c0.431,0.016,0.854,0.416,0.842,0.794c-0.013,0.372-0.461,0.765-0.876,0.768
	C32.023,61.091,31.551,60.646,31.603,60.24z"/>
<path d="M29.147,63.225c0.266-0.03,0.218-0.312,0.248-0.517c-0.006-0.099-0.003-0.204-0.019-0.307
	c-0.026-0.18-0.102-0.374-0.294-0.374c-0.196-0.001-0.268,0.193-0.29,0.374c-0.012,0.103-0.021,0.212,0,0.312
	C28.84,62.931,28.793,63.265,29.147,63.225z"/>
<path d="M29.062,61.508c0.27,0.019,0.301-0.333,0.296-0.581c-0.005-0.239,0.024-0.561-0.269-0.609
	c-0.354-0.058-0.309,0.28-0.351,0.529C28.772,61.096,28.722,61.483,29.062,61.508z"/>
<path d="M36.623,68.686c-0.324-0.012-0.305,0.327-0.322,0.561c-0.018,0.25-0.002,0.582,0.289,0.596
	c0.318,0.016,0.298-0.324,0.314-0.576C36.877,69.041,36.957,68.698,36.623,68.686z"/>
<path d="M36.617,67.016c-0.318,0-0.278,0.327-0.289,0.564c0.043,0.221-0.08,0.572,0.233,0.604c0.424,0.042,0.324-0.354,0.337-0.603
	C36.913,67.35,36.935,67.017,36.617,67.016z"/>
<path d="M35.318,71.518c-0.285,0.153-0.624,0.332-0.747,0.732c-0.036,0.117,0.076,0.199,0.18,0.218
	c0.317,0.058,0.893-0.468,0.848-0.769C35.583,71.59,35.512,71.512,35.318,71.518z"/>
<path d="M36.368,70.197c-0.298,0.031-0.73,0.748-0.608,1.006c0.026,0.056,0.105,0.084,0.161,0.126
	c0.186,0.017,0.388-0.174,0.583-0.56c0.078-0.153,0.2-0.312,0.047-0.484C36.508,70.238,36.427,70.191,36.368,70.197z"/>
<path d="M34.146,72.513c-0.23-0.13-0.924,0.088-1.022,0.322c-0.022,0.052-0.012,0.151,0.024,0.189
	c0.208,0.218,0.447,0.124,0.671,0.032c0.185-0.077,0.412-0.121,0.431-0.386C34.216,72.615,34.195,72.539,34.146,72.513z"/>
<path d="M28.95,56.278c0.359,0.003,0.244-0.346,0.263-0.566c0.012-0.137-0.008-0.279-0.031-0.416
	c-0.026-0.152-0.126-0.265-0.283-0.229c-0.074,0.017-0.151,0.132-0.177,0.217c-0.039,0.131-0.035,0.275-0.054,0.453
	C28.756,55.905,28.587,56.275,28.95,56.278z"/>
<path d="M29.53,69.349c-0.116-0.167,0.104-0.594-0.273-0.646c-0.347-0.049-0.3,0.309-0.309,0.542
	c-0.009,0.255,0.033,0.557,0.304,0.606C29.512,69.9,29.575,69.65,29.53,69.349z"/>
<path d="M29.46,70.296c-0.171,0.126-0.129,0.319-0.048,0.474c0.125,0.234,0.169,0.557,0.515,0.591
	c0.121,0.012,0.166-0.106,0.199-0.228c-0.024-0.311-0.185-0.578-0.393-0.813C29.688,70.267,29.519,70.253,29.46,70.296z"/>
<path d="M28.787,57.914c0.017,0.049,0.102,0.083,0.163,0.104c0.125,0.044,0.203-0.046,0.234-0.139
	c0.043-0.128,0.05-0.269,0.069-0.381c-0.087-0.259,0.108-0.697-0.304-0.67c-0.359,0.023-0.218,0.432-0.236,0.684
	C28.703,57.645,28.743,57.786,28.787,57.914z"/>
<path d="M29.09,64.956c0.068,0.048,0.215-0.007,0.253-0.123c0.042-0.133,0.059-0.273,0.088-0.417
	c-0.031-0.173-0.052-0.348-0.097-0.517c-0.03-0.115-0.14-0.157-0.248-0.143c-0.183,0.023-0.217,0.189-0.208,0.319
	C28.896,64.38,28.773,64.734,29.09,64.956z"/>
<path d="M36.703,55.141c-0.357-0.009-0.24,0.357-0.286,0.578c0.041,0.229-0.082,0.592,0.266,0.598
	c0.359,0.005,0.25-0.364,0.256-0.583C36.946,55.513,37.062,55.15,36.703,55.141z"/>
<path d="M36.729,56.861c-0.438,0.003-0.287,0.405-0.306,0.657c-0.015,0.197-0.049,0.521,0.214,0.517
	c0.428-0.006,0.24-0.417,0.312-0.658C36.917,57.182,37.011,56.859,36.729,56.861z"/>
<path d="M29.006,59.746c0.347-0.001,0.21-0.369,0.273-0.646c-0.129-0.133,0.108-0.534-0.281-0.53
	c-0.354,0.003-0.267,0.36-0.269,0.588C28.728,59.39,28.677,59.748,29.006,59.746z"/>
<path d="M32.485,72.688c-0.204-0.062-0.407-0.121-0.565-0.168c-0.199-0.016-0.329,0.015-0.376,0.181
	c-0.051,0.18,0.084,0.251,0.206,0.322c0.188,0.109,0.395,0.158,0.612,0.141c0.148-0.013,0.279-0.068,0.291-0.242
	C32.66,72.807,32.601,72.723,32.485,72.688z"/>
<path d="M30.349,71.646c-0.052,0.021-0.104,0.098-0.114,0.156c-0.053,0.314,0.537,0.85,0.82,0.745
	c0.054-0.021,0.088-0.095,0.131-0.144C31.232,72.141,30.589,71.553,30.349,71.646z"/>
<path d="M29.193,68.167c0.352,0.012,0.23-0.335,0.269-0.614c-0.119-0.113,0.091-0.506-0.313-0.467
	c-0.271,0.025-0.228,0.307-0.218,0.504C28.943,67.814,28.874,68.156,29.193,68.167z"/>
<path d="M29.154,66.598c0.354,0.016,0.256-0.336,0.283-0.563c-0.032-0.228,0.054-0.569-0.312-0.544
	c-0.263,0.018-0.236,0.314-0.223,0.514C28.917,66.227,28.81,66.584,29.154,66.598z"/>
<path d="M36.669,63.785c-0.405-0.007-0.236,0.398-0.283,0.633c-0.02,0.096,0.011,0.205,0.033,0.306
	c0.021,0.1,0.073,0.21,0.185,0.197c0.087-0.011,0.204-0.073,0.239-0.146c0.058-0.119,0.06-0.265,0.078-0.357
	C36.879,64.151,36.981,63.791,36.669,63.785z"/>
<path d="M36.604,62.045c-0.28,0.125-0.203,0.4-0.208,0.627c-0.004,0.197-0.032,0.433,0.206,0.526c0.06,0.024,0.21-0.054,0.244-0.122
	c0.059-0.118,0.06-0.266,0.085-0.404c-0.026-0.171-0.03-0.348-0.087-0.505C36.821,62.103,36.658,62.021,36.604,62.045z"/>
<path d="M36.688,60.344c-0.35-0.027-0.265,0.321-0.285,0.539c-0.012,0.134,0.012,0.274,0.035,0.409
	c0.018,0.104,0.077,0.181,0.193,0.201c0.127,0.021,0.201-0.062,0.232-0.154c0.045-0.127,0.051-0.268,0.079-0.438
	C36.847,60.73,37.026,60.37,36.688,60.344z"/>
<path d="M36.622,59.75c0.424,0.008,0.253-0.387,0.316-0.615c-0.034-0.198,0.033-0.508-0.217-0.512
	c-0.417-0.007-0.291,0.376-0.306,0.621C36.402,59.437,36.375,59.745,36.622,59.75z"/>
<path d="M36.687,65.484c-0.307-0.074-0.291,0.221-0.295,0.416c-0.005,0.23-0.107,0.557,0.185,0.637
	c0.263,0.072,0.308-0.207,0.334-0.482C36.842,65.897,37.005,65.562,36.687,65.484z"/>
<path d="M97.651,64.674c-0.019-0.605-0.655-1.18-1.302-1.175c-0.652,0.005-1.271,0.568-1.291,1.177
	c-0.021,0.627,0.554,1.203,1.225,1.224C96.968,65.92,97.671,65.291,97.651,64.674z M96.311,65.406c-0.493,0-0.863-0.32-0.851-0.734
	c0.013-0.405,0.397-0.707,0.898-0.704c0.53,0.004,0.855,0.29,0.833,0.733C97.169,65.138,96.834,65.407,96.311,65.406z"/>
<path d="M96.097,61.444c0.698,0.009,1.324-0.502,1.353-1.106c0.027-0.604-0.583-1.166-1.273-1.174
	c-0.727-0.008-1.299,0.47-1.329,1.111C94.815,60.923,95.362,61.435,96.097,61.444z M96.178,59.529
	c0.449,0.009,0.821,0.384,0.8,0.807c-0.021,0.402-0.429,0.752-0.871,0.749c-0.46-0.004-0.819-0.367-0.798-0.804
	C95.329,59.871,95.733,59.521,96.178,59.529z"/>
<path d="M100.347,58.557c-0.396-0.014-0.331,0.367-0.334,0.627c-0.003,0.232-0.038,0.587,0.263,0.593
	c0.362,0.007,0.318-0.367,0.351-0.629C100.601,58.912,100.652,58.567,100.347,58.557z"/>
<path d="M92.685,59.787c0.058,0.015,0.187-0.098,0.22-0.177c0.053-0.124,0.051-0.27,0.072-0.407
	c-0.029-0.174-0.036-0.352-0.096-0.511c-0.029-0.078-0.17-0.182-0.234-0.166c-0.309,0.075-0.306,0.349-0.293,0.588
	C92.367,59.378,92.332,59.695,92.685,59.787z"/>
<path d="M100.376,56.841c-0.352-0.052-0.343,0.287-0.351,0.524c-0.008,0.277-0.047,0.668,0.311,0.69
	c0.288,0.019,0.288-0.344,0.305-0.601C100.618,57.223,100.689,56.888,100.376,56.841z"/>
<path d="M92.623,58.046c0.078,0,0.185-0.101,0.227-0.183c0.061-0.119,0.074-0.262,0.093-0.338c-0.036-0.33,0.015-0.732-0.325-0.732
	c-0.352,0-0.299,0.398-0.298,0.668c0.001,0.135,0.024,0.28,0.079,0.401C92.437,57.945,92.546,58.045,92.623,58.046z"/>
<path d="M100.35,55.113c-0.311-0.003-0.297,0.333-0.318,0.578c0.021,0.242-0.028,0.598,0.26,0.624
	c0.396,0.036,0.346-0.354,0.355-0.616C100.654,55.456,100.665,55.115,100.35,55.113z"/>
<path d="M100.332,60.34c-0.41-0.021-0.309,0.38-0.328,0.643c-0.008,0.103,0.016,0.212,0.044,0.313
	c0.029,0.102,0.084,0.2,0.207,0.213c0.175,0.019,0.247-0.104,0.292-0.239c0.033-0.099,0.043-0.207,0.061-0.293
	C100.576,60.718,100.618,60.354,100.332,60.34z"/>
<path d="M92.826,68.213c0.329,0.027,0.322-0.295,0.339-0.582c-0.021-0.205-0.003-0.533-0.302-0.559
	c-0.324-0.025-0.332,0.297-0.334,0.544C92.527,67.864,92.524,68.188,92.826,68.213z"/>
<path d="M93.342,70.281c-0.133-0.117-0.283-0.031-0.345,0.098c-0.135,0.287,0.268,0.977,0.562,0.994
	c0.128,0.003,0.216-0.086,0.216-0.184C93.773,70.824,93.612,70.517,93.342,70.281z"/>
<path d="M100.313,62.046c-0.339-0.034-0.294,0.312-0.322,0.543c0.028,0.236-0.06,0.579,0.257,0.612
	c0.348,0.036,0.302-0.326,0.325-0.547C100.598,62.417,100.611,62.076,100.313,62.046z"/>
<path d="M93.191,69.31c-0.044-0.236,0.061-0.623-0.359-0.605c-0.245,0.01-0.269,0.313-0.241,0.517
	c0.034,0.258-0.007,0.643,0.387,0.626C93.241,69.836,93.183,69.533,93.191,69.31z"/>
<path d="M92.803,66.639c0.242,0.023,0.294-0.244,0.303-0.484c-0.065-0.23,0.037-0.631-0.305-0.664
	c-0.322-0.031-0.277,0.33-0.284,0.562C92.51,66.296,92.498,66.609,92.803,66.639z"/>
<path d="M92.557,56.307c0.115,0.018,0.211-0.054,0.24-0.161c0.038-0.134,0.045-0.277,0.07-0.446
	c-0.099-0.215,0.098-0.667-0.323-0.636c-0.36,0.027-0.241,0.45-0.246,0.719c-0.002,0.135,0.045,0.276,0.095,0.405
	C92.414,56.242,92.496,56.297,92.557,56.307z"/>
<path d="M95.567,72.538c-0.155-0.078-0.396-0.038-0.401,0.18c-0.01,0.383,0.35,0.355,0.594,0.442
	c0.203-0.004,0.514,0.072,0.52-0.189C96.287,72.526,95.819,72.663,95.567,72.538z"/>
<path d="M100.066,70.237c-0.393,0.023-0.445,0.398-0.632,0.634c-0.041,0.053-0.05,0.131-0.073,0.197
	c0.032,0.061,0.05,0.135,0.098,0.177c0.085,0.075,0.204,0.095,0.287,0.013c0.25-0.246,0.517-0.492,0.459-0.895
	C100.197,70.314,100.111,70.234,100.066,70.237z"/>
<path d="M99.162,71.572c-0.376-0.131-0.528,0.219-0.765,0.382c-0.147,0.102-0.245,0.255-0.104,0.437
	c0.037,0.048,0.125,0.104,0.168,0.09c0.377-0.119,0.661-0.348,0.803-0.721C99.226,71.686,99.208,71.588,99.162,71.572z"/>
<path d="M97.511,72.473c-0.291,0.062-0.662,0.046-0.743,0.437c-0.032,0.157,0.132,0.224,0.32,0.23
	c0.261-0.083,0.634-0.069,0.753-0.414C97.922,72.494,97.684,72.436,97.511,72.473z"/>
<path d="M94.098,71.639c-0.127-0.044-0.307,0.068-0.256,0.243c0.108,0.364,0.363,0.599,0.749,0.656
	c0.116,0.017,0.188-0.066,0.242-0.252C94.662,72.033,94.443,71.756,94.098,71.639z"/>
<path d="M100.199,68.719c-0.306,0.039-0.22,0.377-0.221,0.602c-0.002,0.191-0.047,0.483,0.234,0.477
	c0.344-0.008,0.248-0.336,0.28-0.557C100.455,69.026,100.561,68.672,100.199,68.719z"/>
<path d="M100.228,67.041c-0.273,0-0.256,0.292-0.247,0.492c0.011,0.228-0.082,0.577,0.238,0.609c0.364,0.036,0.262-0.32,0.294-0.542
	C100.479,67.379,100.586,67.041,100.228,67.041z"/>
<path d="M100.207,65.479c-0.307,0.049-0.223,0.386-0.227,0.615c-0.004,0.2-0.023,0.484,0.264,0.472
	c0.358-0.017,0.235-0.351,0.277-0.567C100.478,65.781,100.583,65.42,100.207,65.479z"/>
<path d="M100.262,63.787c-0.262-0.037-0.25,0.273-0.275,0.486c0.029,0.222-0.078,0.548,0.229,0.622
	c0.307,0.074,0.299-0.24,0.296-0.425C100.508,64.22,100.645,63.841,100.262,63.787z"/>
<path d="M92.81,64.94c0.255-0.001,0.186-0.315,0.216-0.51c-0.07-0.233,0.119-0.633-0.306-0.634
	c-0.253-0.001-0.235,0.306-0.222,0.504C92.518,64.551,92.392,64.941,92.81,64.94z"/>
<path d="M92.679,63.222c0.094,0.056,0.214-0.015,0.252-0.114c0.048-0.127,0.058-0.27,0.083-0.404
	c-0.025-0.179-0.034-0.355-0.082-0.521c-0.027-0.096-0.134-0.169-0.246-0.136c-0.209,0.062-0.22,0.252-0.211,0.419
	C92.488,62.731,92.379,63.043,92.679,63.222z"/>
<path d="M92.734,61.479c0.265,0.016,0.249-0.29,0.236-0.483c-0.017-0.248,0.117-0.629-0.293-0.65
	c-0.276-0.013-0.2,0.295-0.231,0.483C92.514,61.065,92.324,61.455,92.734,61.479z"/>
<path d="M125.078,90.475c-0.014-7.419-0.007-14.838-0.007-22.256c0.001-7.489-0.004-14.979,0.005-22.468
	c0.001-1.355,0.053-2.71,0.086-4.064c0.057-2.357-0.018-4.708-0.551-7.013c-0.925-3.994-2.967-5.792-7.029-6.349
	c-2.213-0.303-4.412-0.08-6.615,0.061c-0.317,0.021-0.571,0.139-0.65,0.452c-0.105,0.417-0.405,0.44-0.739,0.44
	c-2.532-0.001-5.064-0.001-7.597-0.004c-0.211,0-0.521,0.036-0.58-0.172c-0.199-0.702-0.748-0.542-1.218-0.543
	c-2.71-0.009-5.421-0.01-8.132,0.004c-0.524,0.002-1.164-0.229-1.4,0.567c-0.051,0.174-0.31,0.143-0.484,0.143
	c-1.926,0.003-3.852,0.002-5.777-0.002c-0.21,0-0.486,0.012-0.541-0.235c-0.191-0.854-0.855-0.717-1.446-0.722
	c-1.319-0.011-2.639,0.001-3.958-0.01c-0.229-0.002-0.604,0.117-0.627-0.217c-0.045-0.614-0.221-1.244,0.256-1.831
	c1.02-1.26,0.789-2.383-0.617-3.155c-1.47-0.806-2.983-1.524-4.545-2.138c-3.186-1.251-6.488-1.979-9.909-1.908
	c-4.613,0.096-8.802,1.593-12.613,4.171c-1.441,0.974-1.576,1.876-0.495,3.271c0.064,0.084,0.168,0.155,0.193,0.249
	c0.124,0.454,0.185,0.946,0.001,1.365c-0.178,0.408-0.645,0.184-0.973,0.19c-1.247,0.024-2.496,0-3.744-0.006
	c-0.547-0.002-1.094-0.014-1.266,0.688c-0.08,0.329-0.372,0.289-0.612,0.29c-1.747,0.006-3.495,0.007-5.243,0.002
	c-0.239-0.001-0.566,0.049-0.608-0.283c-0.06-0.479-0.379-0.434-0.701-0.434c-3.031,0-6.062-0.001-9.094,0.003
	c-0.277,0-0.61-0.059-0.73,0.291c-0.178,0.517-0.601,0.423-0.978,0.424c-2.532,0.006-5.064,0.003-7.596,0.004
	c-0.432,0-0.861,0.048-0.986-0.547c-0.058-0.276-0.343-0.326-0.604-0.346c-2.418-0.184-4.835-0.39-7.253,0.009
	c-3.106,0.513-5.177,2.211-6.093,5.268c-0.474,1.582-0.718,3.195-0.788,4.838c-0.098,2.318,0.021,4.636,0.022,6.954
	c0.004,15.157,0.005,30.315,0,45.473c-0.001,2.39-0.133,4.779-0.014,7.168c0.093,1.857,0.375,3.685,1.063,5.429
	c0.954,2.42,2.729,3.824,5.266,4.362c2.59,0.549,5.182,0.277,7.776,0.142c0.299-0.016,0.59-0.111,0.668-0.433
	c0.104-0.426,0.404-0.436,0.737-0.436c2.639,0.002,5.278,0.003,7.918,0c0.413,0,0.78,0.02,0.859,0.561
	c0.056,0.385,0.4,0.344,0.681,0.346c0.999,0.006,1.998,0.003,2.996,0.003c1.962,0.001,3.923,0.007,5.885-0.006
	c0.3-0.002,0.775,0.146,0.85-0.228c0.171-0.862,0.786-0.672,1.326-0.672c16.87-0.004,33.74-0.004,50.609-0.003
	c0.25,0,0.499-0.001,0.749,0.004c0.262,0.005,0.525,0.044,0.545,0.374c0.034,0.598,0.468,0.527,0.853,0.527
	c1.854,0.005,3.709,0.003,5.563,0.004c1.105,0,2.212,0.005,3.317-0.004c0.306-0.003,0.726,0.088,0.791-0.342
	c0.095-0.632,0.529-0.566,0.953-0.566c2.354-0.001,4.708-0.001,7.062,0.004c0.454,0,0.932-0.087,1.106,0.557
	c0.083,0.305,0.45,0.311,0.736,0.321c2.099,0.074,4.185,0.284,6.298,0.065c3.734-0.385,5.961-2.131,7.001-5.721
	c0.683-2.357,0.729-4.785,0.759-7.207C125.212,93.611,125.08,92.042,125.078,90.475z M17.146,106.47
	c0.188-1.03-0.038-2.062-0.573-2.898C17.107,104.408,17.333,105.439,17.146,106.47c-0.025,0.138-0.058,0.275-0.097,0.412
	c-0.093,0.317-0.246,0.479-0.582,0.51c-2.74,0.253-5.479,0.431-8.164-0.39c-1.954-0.596-3.168-1.975-3.894-3.832
	c-0.47-1.203-0.735-2.463-0.845-3.739c-0.187-2.165-0.355-4.334-0.103-6.511c0.069-0.6,0.047-1.211,0.047-1.816
	C3.511,75.806,3.512,60.508,3.506,45.21c0-0.783-0.067-1.566-0.105-2.349c-0.131-2.715-0.027-5.413,0.537-8.082
	c0.171-0.808,0.468-1.565,0.822-2.308c0.788-1.649,2.095-2.666,3.825-3.172c1.067-0.312,2.159-0.462,3.271-0.447
	c1.39,0.019,2.782,0.017,4.17,0.08c0.897,0.041,0.991,0.196,1.096,1.102c0.188,1.619-0.347,2.938-1.592,3.984
	c-0.223,0.187-0.445,0.355-0.736,0.41c-1.187,0.223-2.274,0.715-3.352,1.235c-0.008,0.01-0.016,0.021-0.024,0.032
	c-0.015,0.005-0.028,0.011-0.042,0.017c-0.053,0.054-0.106,0.403-0.159,0.458c-0.004,0.012-0.01,0.331-0.012,0.331
	c-0.008,0,0.017,0,0.009,0c-0.311,0-0.713,0.167-1.713,0.454c0,0.008,0,0.017,0,0.025c0,0.004,0.305,0.008,0.298,0.011
	c-0.054,0.259-0.008,0.917-0.249,1.052c0,0.007,0.166,0.458,0.166,0.458c-0.005,0-0.016,0-0.021,0c-0.477,1-0.977,2.146-1.169,3.532
	c-0.094,0.674-0.164,1.124-0.164,1.802c0,16.403,0.001,32.697-0.004,49.1c0,1.479,0.284,2.85,0.716,4.25
	c0.785,2.539,2.521,4.036,5.078,4.672c0.391,0.098,0.754,0.236,1.083,0.432C16.662,103.135,17.451,104.795,17.146,106.47z
	 M38.196,52.867c0.255,0.499,0.164,0.961,0.235,1.388c0.17,1.023,0.108,2.06,0.169,3.09c0.022,0.389,0.042,0.807-0.515,0.876
	C37.896,56.888,37.944,53.713,38.196,52.867z M27.7,29.416c0.017-0.211,0.142-0.309,0.35-0.313c0.213-0.005,0.329,0.08,0.33,0.31
	c0,0.141,0.015,0.288,0.059,0.419c0.03,0.089,0.11,0.202,0.19,0.224c0.167,0.045,0.284-0.093,0.283-0.231
	c-0.004-0.698,0.414-0.762,0.98-0.753c1.674,0.026,3.35,0.008,5.024,0.011c0.213,0,0.432-0.004,0.639,0.039
	c0.328,0.068,0.125,0.596,0.474,0.625c0.425,0.035,0.14-0.522,0.441-0.603c0.246-0.066,0.525-0.11,0.577,0.25
	c0.04,0.28,0.034,0.568,0.034,0.853c0.002,2.922,0.001,5.844,0.001,8.767c0,2.958,0.004,5.916-0.001,8.874
	c-0.002,0.992-0.013,1-1.007,1.002c-2.459,0.004-4.918,0.001-7.376-0.004c-1.006-0.003-1.023-0.01-1.024-0.974
	c-0.005-5.987-0.002-11.974,0-17.961C27.674,29.771,27.686,29.594,27.7,29.416z M26.815,57.767
	c-0.162-1.672-0.499-3.321-0.334-5.078C27.02,53.337,27.242,56.242,26.815,57.767z M19.403,31.389
	c-0.272-0.012-0.663,0.015-0.659-0.341c0.005-0.381,0.411-0.273,0.617-0.312c0.332,0.018,0.729-0.028,0.721,0.331
	C20.075,31.399,19.688,31.402,19.403,31.389z M21.074,105.709c-0.321-0.037-0.713,0.076-0.749-0.295
	c-0.036-0.377,0.341-0.361,0.614-0.363c0.275-0.001,0.657-0.042,0.696,0.301C21.684,105.777,21.258,105.635,21.074,105.709z
	 M21.714,31.395c-0.258-0.033-0.65,0.031-0.637-0.351c0.013-0.391,0.415-0.291,0.674-0.298c0.268-0.008,0.667-0.062,0.652,0.325
	C22.39,31.43,21.998,31.373,21.714,31.395z M23.395,105.708c-0.185-0.011-0.327-0.009-0.465-0.031
	c-0.141-0.022-0.278-0.078-0.298-0.247c-0.019-0.163,0.086-0.27,0.225-0.307c0.167-0.045,0.344-0.07,0.517-0.07
	c0.246,0,0.577,0.006,0.599,0.298C24.004,105.784,23.595,105.639,23.395,105.708z M23.412,31.066
	c-0.005-0.368,0.387-0.329,0.659-0.321c0.262,0.007,0.659-0.079,0.663,0.31c0.004,0.373-0.386,0.311-0.649,0.341
	C23.806,31.376,23.416,31.419,23.412,31.066z M26.323,105.452c-0.032,0.169-0.179,0.209-0.318,0.229
	c-0.14,0.021-0.284,0.025-0.425,0.017c-0.238-0.014-0.585,0.05-0.602-0.275c-0.021-0.397,0.371-0.328,0.605-0.395
	c0.167,0.022,0.312,0.024,0.447,0.062C26.204,105.141,26.367,105.224,26.323,105.452z M27.089,60.125
	c-0.311,0.319-0.715-0.08-1.034-0.262c-0.748-0.427-1.217-1.069-1.364-1.935c-0.273-1.619-0.21-3.263-0.327-4.893
	c-0.073-1.021,0.536-1.815,1.467-2.3c0.617-0.32,0.688-0.274,0.723,0.447c0.003,0.071,0,0.143,0,0.213
	c0.011,0.283,0.055,0.572-0.226,0.775c-0.431,0.312-0.458,0.767-0.43,1.246c0.081,1.312,0.156,2.625,0.226,3.938
	c0.024,0.454,0.196,0.822,0.554,1.105c0.165,0.131,0.414,0.209,0.452,0.431C27.202,59.309,27.37,59.836,27.089,60.125z
	 M37.083,73.336c0.002,10.983-0.001,21.966-0.003,32.949c0,1.466,0.047,1.258-1.263,1.265c-2.247,0.011-4.493,0.013-6.74,0
	c-1.554-0.009-1.4,0.201-1.404-1.457c-0.012-4.636-0.007-9.271-0.005-13.906c0.002-6.668,0.007-13.336,0.018-20.004
	c0-0.304-0.074-0.62,0.067-0.923c0.191,0.09,0.197,0.297,0.307,0.425c0.331,0.386,0.106,1.034,0.578,1.322
	c1.072,0.655,1.997,1.599,3.366,1.688c1.055,0.068,2.061-0.06,3.014-0.527c0.128-0.062,0.252-0.133,0.378-0.201
	c0.196-0.105,0.328-0.08,0.374,0.166c0.038,0.208,0.077,0.479,0.367,0.393c0.173-0.051,0.137-0.299,0.155-0.473
	c0.079-0.783,0.08-0.783,0.688-1.299C37.176,72.92,37.083,73.144,37.083,73.336z M36.965,71.727
	c-0.693,0.945-1.549,1.669-2.642,2.097c-2.886,1.13-6.08-0.983-6.185-4.071c-0.152-4.488-0.321-8.977-0.488-13.465
	c-0.028-0.748-0.091-1.494-0.125-2.241c-0.012-0.248-0.025-0.527,0.329-0.563c0.331-0.033,0.658-0.039,0.738,0.403
	c0.025,0.14,0.049,0.284,0.105,0.413c0.038,0.086,0.124,0.202,0.199,0.21c0.152,0.016,0.29-0.095,0.274-0.253
	c-0.083-0.822,0.451-0.825,1.023-0.797c0.249,0.012,0.5-0.001,0.749,0c1.245,0.003,1.304,0.083,0.879,1.243
	c-0.073,0.2-0.184,0.385-0.281,0.575c-0.43,0.841-0.271,1.481,0.442,1.784c0.746,0.317,1.547-0.009,1.835-0.798
	c0.231-0.634,0.372-1.301,0.599-1.938c0.101-0.282,0.014-0.711,0.397-0.812c0.448-0.118,0.928-0.112,1.377,0.007
	c0.312,0.083,0.2,0.412,0.24,0.644c0.032,0.184,0.082,0.371,0.306,0.349c0.156-0.015,0.201-0.179,0.215-0.327
	c0.015-0.142,0.026-0.286,0.042-0.428c0.012-0.108,0.046-0.229,0.164-0.245c0.177-0.025,0.258,0.094,0.267,0.246
	c0.001,0.024-0.469,0.046-0.467,0.069c0.005,0.111-0.458,0.221-0.458,0.33c0,0.013,0,0.026,0,0.04c0,0.13,0,0.397,0,0.536
	c0,2.532,0,5.767,0,7.767c0,0,0.953,0,0.958,0c0,3-0.014,5.142,0.011,7.78C37.475,70.885,37.319,71.243,36.965,71.727z
	 M32.618,52.181c-0.026-0.389-0.096-0.799,0.515-0.823c0.67-0.026,0.902,0.137,0.971,0.795c0.021,0.209,0.003,0.423,0.003,0.42
	c0.018,1.074-0.168,1.894-0.468,2.696c-0.147,0.395-0.36,0.666-0.814,0.718c-0.736,0.083-0.902-0.09-0.668-0.791
	C32.484,54.216,32.688,53.222,32.618,52.181z M32.985,56.514c-0.482,0.293-0.492,0.297-0.993-0.054
	c-0.013,0-0.025-0.001-0.039-0.002c-0.003-0.009-0.006-0.013-0.01-0.021c-0.031-0.008-0.067-0.016-0.066-0.02
	c0.006-0.067,0.032-0.058,0.066,0.02c0.009,0.002,0.018,0.004,0.024,0.006c0.009,0.006,0.016,0.011,0.024,0.017
	C32.322,56.478,32.651,56.496,32.985,56.514z M37.71,52.343c-0.109,0.399-0.294,0.624-0.731,0.609l0,0
	c-0.213-0.007-0.426-0.008-0.64-0.007c-0.213,0.001-0.427,0.277-0.64,0.279c-0.116,0-0.22,0.276-0.313,0.276
	c-0.041,0-0.08,0-0.117,0c-0.556,0-0.686-0.385-0.702-1.301c-0.013-0.731-0.482-1.209-1.313-1.197
	c-0.056,0.001-0.112-0.065-0.171-0.061c-0.816,0.056-1.011,0.246-0.972,1.082c0.045,0.943,0.046,0.933-0.895,0.94
	c-0.267,0.002-0.534,0.271-0.801,0.27c-0.267,0-0.534,0.267-0.801,0.267c-0.103,0-0.206,0-0.309,0c-0.281,0-0.562-0.274-0.844-0.272
	c-0.148,0.001-0.297-0.136-0.445-0.132c-0.249,0.005-0.429-0.114-0.562-0.228c-0.124-0.101-0.208-0.287-0.263-0.507
	c-0.117-0.462-0.137-0.942-0.131-1.407c0.003-0.278,0.016-0.566,0.023-0.845c0.013-0.555,0.36-0.723,0.881-0.716
	c1.494,0.021,2.536,0.003,4.536,0.003c0,0.001,0,0.002,0,0.003c1,0,2.792,0.024,4.213-0.012c0.574-0.015,0.826,0.22,0.938,0.744
	c0.04,0.183,0.071,0.366,0.101,0.549C37.842,51.229,37.863,51.779,37.71,52.343z M39.696,105.711
	c-0.181-0.014-0.322-0.016-0.459-0.037c-0.148-0.023-0.265-0.109-0.277-0.267c-0.012-0.156,0.091-0.263,0.231-0.303
	c0.131-0.038,0.273-0.061,0.41-0.058c0.273,0.006,0.657-0.043,0.685,0.311C40.319,105.771,39.901,105.641,39.696,105.711z
	 M38.97,60.101c-0.303,0.132-0.67,0.391-0.938-0.044c-0.186-0.303-0.012-1.062,0.246-1.251c0.114-0.084,0.253-0.132,0.371-0.213
	c0.382-0.263,0.569-0.63,0.544-1.094c-0.066-1.21-0.118-2.421-0.218-3.628c-0.047-0.557-0.138-1.089-0.521-1.589
	c-0.341-0.445,0.012-1.087-0.24-1.727c1.359,0.422,2.064,1.272,2.199,2.488c0.168,1.521,0.226,3.056,0.266,4.587
	C40.709,58.834,40.044,59.634,38.97,60.101z M40.847,31.326c-0.133,0.04-0.279,0.071-0.417,0.062
	c-0.273-0.015-0.673,0.037-0.701-0.312c-0.033-0.416,0.392-0.283,0.617-0.348c0.169,0.013,0.311,0.015,0.45,0.036
	c0.151,0.021,0.273,0.106,0.291,0.262C41.105,31.188,40.985,31.284,40.847,31.326z M42.452,105.639
	c-0.164,0.055-0.346,0.053-0.513,0.073c-0.15-0.017-0.292-0.024-0.43-0.052c-0.16-0.03-0.26-0.157-0.222-0.301
	c0.082-0.302,0.357-0.311,0.604-0.309c0.271,0.002,0.588-0.071,0.736,0.26C42.699,105.467,42.582,105.596,42.452,105.639z
	 M43.284,31.271c-0.188,0.13-0.403,0.109-0.678,0.134c-0.109-0.032-0.28-0.068-0.439-0.135c-0.101-0.043-0.15-0.159-0.107-0.264
	c0.144-0.347,0.464-0.26,0.731-0.26c0.234,0,0.521-0.062,0.619,0.263C43.442,31.116,43.378,31.205,43.284,31.271z M102.799,30.859
	c0.182-0.145,0.398-0.107,0.686-0.125c0.092,0.02,0.27,0.036,0.424,0.104c0.069,0.03,0.15,0.183,0.129,0.249
	c-0.094,0.292-0.363,0.292-0.607,0.298c-0.274,0.005-0.58,0.054-0.736-0.264C102.645,31.021,102.713,30.927,102.799,30.859z
	 M101.734,52.728c0.473,0.957,0.465,4.559,0.002,5.312C101.613,56.333,101.475,54.629,101.734,52.728z M91.281,39.5
	c0.001,0-0.781,0-0.781,0c0-3,0-6.317,0-9.238c0-0.249,0.393-0.318,0.396-0.567c0.006-0.249,0.505-0.194,0.777-0.194
	c0.001,0,0.002,0,0.002,0c0.002,0,0.002,0,0.004,0c0.202,0,0.343-0.116,0.367,0.1c0.016,0.142,0.041,0.184,0.059,0.325
	c0.014,0.115,0.101,0.144,0.21,0.172c0.009,0.002,0.019-0.022,0.028-0.021c0.095-0.011,0.168-0.099,0.164-0.167
	c-0.003-0.062-0.004-0.125-0.002-0.178c0.024-0.597,0.398-0.663,0.815-0.657c0.06,0.001,0.119,0.001,0.18,0.004
	c0.079,0.002,0.158,0.005,0.235,0.005c1.532-0.002,3.064-0.003,4.596-0.001c0.249,0,0.499,0.006,0.747,0.023
	c0.419,0.029,0.259,0.628,0.593,0.665c0.412,0.045,0.224-0.573,0.581-0.646c0.237-0.048,0.437,0.016,0.483,0.279
	c0.037,0.209,0.04,0.425,0.04,0.638c0.003,5.95,0.005,11.9,0,17.849c-0.001,0.979-0.015,0.987-1.029,0.991
	c-2.066,0.006-4.132,0.006-6.199,0.003c-0.798-0.001-0.797-0.008-1-0.878c-0.03-0.131-0.036-0.293-0.237-0.292
	c-0.191,0.002-0.223,0.154-0.237,0.288c-0.02,0.175-0.022,0.357-0.001,0.532c0.025,0.206,0.008,0.353-0.246,0.344
	c-0.209-0.007-0.465,0.036-0.509-0.251c-0.042-0.28-0.034-0.322-0.035-0.606C91.28,45.097,91.281,42.5,91.281,39.5z M90.324,52.786
	c0.041,0.057,0.11,0.109,0.119,0.171c0.219,1.616,0.273,3.243,0.297,4.872c0.002,0.093-0.005,0.24-0.156,0.226
	c-0.094-0.009-0.219-0.054-0.266-0.125c-0.094-0.144-0.19-0.313-0.203-0.479c-0.115-1.548-0.076-3.096-0.029-4.642
	C90.165,52.801,90.244,52.793,90.324,52.786z M89.131,30.748c0.104-0.011,0.21-0.014,0.314-0.008
	c0.24,0.013,0.574-0.018,0.593,0.287c0.024,0.407-0.37,0.307-0.567,0.373c-0.156-0.012-0.262-0.013-0.365-0.03
	c-0.176-0.03-0.376-0.085-0.395-0.28C88.684,30.812,88.917,30.771,89.131,30.748z M77.186,27.063
	C77.186,27.063,77.186,27.063,77.186,27.063c0,0.258,0,0.515,0,0.772c0,0.013,0,0.026,0,0.039c0-0.013,0-0.026,0-0.039
	C77.186,27.578,77.186,27.321,77.186,27.063C77.186,27.064,77.186,27.063,77.186,27.063z M51.09,29.05
	c-0.682,0.284-5.198,0.345-6.553,0.042C45.63,28.758,50.297,28.773,51.09,29.05z M44.297,105.704
	c-0.266-0.036-0.673,0.072-0.664-0.319c0.007-0.344,0.391-0.342,0.672-0.334c0.275,0.007,0.66-0.008,0.656,0.348
	C44.957,105.794,44.547,105.654,44.297,105.704z M45.058,31.399c-0.101-0.011-0.241-0.019-0.379-0.042
	c-0.148-0.025-0.275-0.112-0.292-0.261c-0.023-0.214,0.136-0.304,0.321-0.333c0.138-0.021,0.28-0.027,0.42-0.021
	c0.24,0.01,0.579-0.033,0.592,0.284C45.735,31.412,45.367,31.369,45.058,31.399z M47.307,105.434
	c-0.028,0.215-0.232,0.238-0.408,0.26c-0.105,0.013-0.212,0.013-0.318,0.006c-0.239-0.014-0.583,0.051-0.608-0.268
	c-0.03-0.389,0.338-0.357,0.615-0.39c0.101,0.007,0.209-0.001,0.312,0.021C47.102,105.109,47.344,105.148,47.307,105.434z
	 M47.4,31.399c-0.278-0.046-0.674,0.033-0.652-0.361c0.022-0.387,0.419-0.287,0.678-0.292c0.265-0.005,0.666-0.058,0.643,0.331
	C48.048,31.429,47.653,31.366,47.4,31.399z M48.97,105.709c-0.147-0.018-0.329-0.018-0.494-0.069
	c-0.08-0.024-0.171-0.146-0.179-0.229c-0.007-0.08,0.071-0.212,0.146-0.244c0.157-0.067,0.336-0.11,0.507-0.116
	c0.281-0.01,0.672-0.026,0.695,0.314C49.673,105.766,49.263,105.669,48.97,105.709z M49.86,31.401
	c-0.173-0.01-0.279-0.004-0.381-0.024c-0.208-0.04-0.429-0.095-0.394-0.373c0.028-0.216,0.226-0.235,0.399-0.255
	c0.104-0.011,0.21-0.018,0.313-0.007c0.229,0.023,0.562-0.063,0.594,0.269C50.435,31.441,50.027,31.314,49.86,31.401z
	 M51.473,105.697c-0.07,0.007-0.141,0.008-0.211,0.004c-0.238-0.014-0.575,0.045-0.607-0.261c-0.042-0.395,0.331-0.356,0.541-0.388
	c0.127,0,0.199-0.01,0.268,0.001c0.235,0.04,0.546,0.033,0.513,0.379C51.95,105.701,51.678,105.678,51.473,105.697z M52.091,31.396
	c-0.104-0.006-0.21-0.002-0.313-0.02c-0.211-0.036-0.438-0.087-0.398-0.37c0.029-0.21,0.224-0.242,0.403-0.257
	c0.104-0.009,0.211-0.019,0.314-0.009c0.232,0.023,0.572-0.054,0.599,0.271C52.729,31.415,52.354,31.354,52.091,31.396z
	 M53.658,105.704c-0.291-0.023-0.688,0.061-0.68-0.323c0.008-0.344,0.394-0.33,0.671-0.332c0.277-0.002,0.662-0.02,0.657,0.338
	C54.302,105.762,53.9,105.67,53.658,105.704z M54.852,31.319c-0.163,0.053-0.341,0.062-0.513,0.091
	c-0.142-0.027-0.284-0.039-0.413-0.084c-0.137-0.049-0.248-0.155-0.205-0.315c0.087-0.328,0.375-0.271,0.606-0.266
	c0.261,0.007,0.588-0.096,0.72,0.258C55.104,31.16,54.983,31.276,54.852,31.319z M56.31,105.683
	c-0.104,0.013-0.212,0.026-0.315,0.015c-0.26-0.028-0.658,0.094-0.679-0.296c-0.021-0.388,0.373-0.323,0.637-0.362
	c0.106,0.008,0.212,0.011,0.316,0.022c0.188,0.021,0.365,0.104,0.38,0.298C56.664,105.559,56.502,105.659,56.31,105.683z
	 M56.627,31.401c-0.107-0.028-0.283-0.051-0.437-0.123c-0.074-0.034-0.151-0.165-0.143-0.243c0.009-0.084,0.101-0.203,0.182-0.229
	c0.163-0.051,0.344-0.073,0.516-0.063c0.259,0.014,0.667-0.079,0.637,0.326C57.356,31.404,56.969,31.372,56.627,31.401z
	 M58.435,105.691c-0.178,0-0.284,0.008-0.388-0.002c-0.176-0.018-0.372-0.049-0.397-0.262c-0.032-0.276,0.191-0.332,0.399-0.369
	c0.102-0.018,0.209-0.02,0.313-0.012c0.271,0.019,0.631-0.017,0.596,0.383C58.93,105.754,58.592,105.669,58.435,105.691z
	 M59.496,31.324c-0.167,0.042-0.344,0.062-0.518,0.062c-0.248,0-0.576-0.016-0.587-0.309c-0.018-0.421,0.377-0.298,0.649-0.347
	c0.122,0.01,0.262,0.015,0.4,0.035c0.15,0.022,0.266,0.107,0.288,0.261C59.75,31.189,59.634,31.289,59.496,31.324z M59.83,28.952
	c0.017-0.4,0.295-0.437,0.596-0.437c2.277-0.005,4.553-0.008,6.83-0.012c0.354,0,0.652,0.078,0.641,0.517
	c-0.013,0.493-0.394,0.417-0.701,0.419c-1.103,0.007-2.205,0.003-3.308,0.003c-1.139,0.001-2.277,0.001-3.415,0.001
	C60.134,29.444,59.811,29.428,59.83,28.952z M61.316,105.428c-0.027,0.086-0.111,0.184-0.192,0.215
	c-0.125,0.049-0.275,0.071-0.409,0.056c-0.285-0.033-0.751,0.131-0.752-0.317c-0.001-0.437,0.468-0.283,0.747-0.359
	c0.144,0.03,0.284,0.043,0.412,0.09C61.257,105.162,61.365,105.271,61.316,105.428z M61.364,31.393
	c-0.264-0.033-0.664,0.013-0.648-0.355c0.016-0.375,0.421-0.299,0.689-0.292c0.262,0.006,0.677-0.085,0.658,0.315
	C62.047,31.399,61.654,31.374,61.364,31.393z M62.976,105.707c-0.129-0.01-0.271-0.01-0.408-0.031
	c-0.146-0.023-0.267-0.104-0.278-0.264c-0.012-0.158,0.087-0.264,0.229-0.304c0.133-0.038,0.274-0.062,0.411-0.061
	c0.274,0.003,0.657-0.043,0.685,0.31C63.647,105.764,63.242,105.66,62.976,105.707z M63.685,31.397
	c-0.091-0.014-0.231-0.027-0.367-0.06c-0.144-0.034-0.278-0.127-0.282-0.272c-0.003-0.141,0.104-0.261,0.26-0.287
	c0.137-0.023,0.279-0.04,0.418-0.037c0.272,0.006,0.669-0.064,0.678,0.305C64.4,31.399,64.011,31.374,63.685,31.397z
	 M65.959,105.435c-0.029,0.219-0.233,0.231-0.406,0.253c-0.104,0.014-0.211,0.021-0.314,0.012c-0.234-0.021-0.576,0.047-0.599-0.275
	c-0.026-0.391,0.339-0.355,0.616-0.385c0.099,0.006,0.206,0,0.309,0.021C65.771,105.102,65.998,105.152,65.959,105.435z
	 M66.104,31.397c-0.106-0.006-0.214-0.002-0.317-0.019c-0.213-0.037-0.438-0.089-0.4-0.374c0.028-0.221,0.23-0.236,0.406-0.255
	c0.104-0.011,0.212-0.014,0.317-0.009c0.24,0.011,0.578-0.045,0.604,0.274C66.746,31.417,66.367,31.356,66.104,31.397z
	 M67.644,105.695c-0.263-0.004-0.659,0.1-0.682-0.285c-0.022-0.376,0.366-0.336,0.635-0.369c0.275,0.027,0.669-0.02,0.688,0.324
	C68.31,105.754,67.91,105.697,67.644,105.695z M68.422,31.398c-0.276-0.026-0.666,0.046-0.694-0.311
	c-0.032-0.398,0.364-0.346,0.629-0.342c0.262,0.004,0.656-0.099,0.687,0.285C69.075,31.429,68.678,31.354,68.422,31.398z
	 M69.995,105.71c-0.32-0.042-0.732,0.066-0.71-0.337c0.02-0.344,0.41-0.326,0.693-0.321c0.279,0.004,0.664-0.013,0.648,0.358
	C70.61,105.823,70.181,105.618,69.995,105.71z M70.813,31.401c-0.156-0.01-0.263-0.009-0.366-0.023
	c-0.179-0.025-0.372-0.086-0.391-0.285c-0.024-0.277,0.205-0.322,0.421-0.345c0.104-0.011,0.21-0.017,0.314-0.007
	c0.233,0.021,0.571-0.048,0.59,0.281C71.404,31.434,71.014,31.338,70.813,31.401z M72.324,105.707c-0.13-0.01-0.271-0.01-0.41-0.03
	c-0.146-0.021-0.278-0.097-0.297-0.254c-0.026-0.224,0.154-0.298,0.322-0.341c0.134-0.035,0.279-0.036,0.42-0.033
	c0.248,0.006,0.584,0.014,0.602,0.299C72.986,105.756,72.6,105.674,72.324,105.707z M73.047,31.385
	c-0.266-0.006-0.654,0.035-0.629-0.352c0.026-0.381,0.422-0.255,0.676-0.296c0.264,0.037,0.662-0.054,0.633,0.347
	C73.701,31.444,73.315,31.391,73.047,31.385z M75.126,105.643c-0.165,0.053-0.346,0.053-0.496,0.072
	c-0.167-0.021-0.31-0.027-0.446-0.059c-0.15-0.033-0.27-0.15-0.229-0.296c0.083-0.301,0.362-0.302,0.606-0.31
	c0.279-0.01,0.588-0.049,0.741,0.27C75.375,105.474,75.26,105.602,75.126,105.643z M75.834,31.32
	c-0.163,0.052-0.341,0.06-0.521,0.088c-0.132-0.025-0.273-0.036-0.402-0.082c-0.139-0.049-0.242-0.158-0.196-0.317
	c0.093-0.323,0.377-0.269,0.608-0.262c0.26,0.007,0.588-0.098,0.713,0.261C76.091,31.163,75.965,31.277,75.834,31.32z
	 M75.357,29.253c-0.121,0.015-0.635,0.023-0.776,0.023c-0.892,0.003-2.081,0-3.081,0c0,0,0,0.001,0,0.001
	c-1,0-1.59-0.001-2.589,0.001c-0.373,0.001-0.487-0.006-0.548-0.521c-0.077-0.645-0.415-0.842-1.045-0.836
	c-1.157,0.011-2.268,0.017-3.425,0.017c-1.159,0-2.293-0.006-3.453-0.018c-0.143-0.001-0.265,0.003-0.39,0.018
	c-0.441,0.062-0.754,0.265-0.851,0.818c-0.052,0.298-0.192,0.426-0.376,0.479c-0.11,0.032-0.234,0.038-0.363,0.039
	c0.129-0.001,0.255-0.007,0.365-0.039c0.184-0.054,0.327-0.181,0.378-0.478c0.097-0.553,0.413-0.756,0.852-0.819
	c-0.438,0.051-0.754,0.382-0.85,0.934c-0.083,0.476-0.399,0.626-0.744,0.626c-0.024,0-0.049,0-0.073,0c-0.025,0-0.05,0-0.075,0
	c-0.037,0-0.074-0.013-0.111-0.013c-0.889,0.002-1.763,0.013-2.652,0.013c-0.013,0-0.025,0-0.038,0
	c-0.921,0-1.842-0.094-2.762-0.065c0.927-0.028,1.729-0.102,2.655-0.1c-0.927-0.002-1.905-0.069-2.905-0.04V29.5h0.396
	c-0.214,0-0.306-0.108-0.407-0.126c-0.045-0.007-0.125-0.066-0.166-0.076c-0.002,0-0.022-0.026-0.023-0.026
	c-0.271-0.071-0.437-0.231-0.556-0.438c-0.081-0.124-0.154-0.271-0.216-0.432c-0.34-0.883-0.141-1.411,0.655-1.936
	c1.854-1.224,3.793-2.275,5.931-2.904c0.939-0.276,1.875-0.478,2.809-0.606c0.933-0.128,1.863-0.186,2.791-0.176
	c2.385,0.026,4.75,0.497,7.099,1.337c1.337,0.479,2.618,1.074,3.89,1.698c0.424,0.209,0.846,0.42,1.268,0.631
	c0.568,0.284,0.657,0.632,0.636,1.172C76.565,28.652,76.208,29.144,75.357,29.253z M76.992,105.695
	c-0.262,0.002-0.661,0.096-0.682-0.288c-0.021-0.376,0.374-0.323,0.625-0.363c0.291,0.018,0.676-0.03,0.697,0.325
	C77.657,105.773,77.251,105.693,76.992,105.695z M77.7,31.402c-0.113-0.014-0.254-0.025-0.392-0.052
	c-0.148-0.029-0.278-0.129-0.287-0.27c-0.01-0.139,0.095-0.264,0.25-0.295c0.137-0.027,0.279-0.051,0.417-0.043
	c0.267,0.015,0.663-0.081,0.683,0.3C78.391,31.427,77.993,31.359,77.7,31.402z M79.292,105.705c-0.263-0.033-0.66,0.057-0.657-0.328
	c0.004-0.367,0.392-0.328,0.663-0.33c0.273-0.002,0.66-0.032,0.66,0.334C79.957,105.767,79.559,105.672,79.292,105.705z
	 M80.473,31.322c-0.133,0.039-0.275,0.069-0.413,0.064c-0.272-0.01-0.665,0.046-0.689-0.311c-0.028-0.406,0.377-0.304,0.654-0.341
	c0.124,0.01,0.265,0.017,0.403,0.034c0.152,0.019,0.27,0.1,0.284,0.258C80.728,31.188,80.611,31.281,80.473,31.322z M81.691,105.703
	c-0.256-0.05-0.649,0.1-0.698-0.275c-0.051-0.395,0.335-0.369,0.599-0.377c0.269-0.008,0.648-0.074,0.697,0.284
	C82.347,105.757,81.947,105.664,81.691,105.703z M82.356,31.393c-0.273-0.019-0.663,0.002-0.653-0.351
	c0.012-0.371,0.415-0.303,0.684-0.299c0.264,0.005,0.674-0.08,0.659,0.316C83.033,31.398,82.643,31.376,82.356,31.393z
	 M76.683,29.108c0.761-0.442,1.491-0.215,2.179-0.253c0.707-0.039,1.418-0.025,2.126-0.004c0.731,0.022,1.475-0.103,2.196,0.171
	C82.408,29.331,77.827,29.361,76.683,29.108z M83.925,105.706c-0.116-0.01-0.257-0.014-0.394-0.036
	c-0.154-0.024-0.258-0.128-0.261-0.279s0.101-0.258,0.247-0.293c0.135-0.031,0.275-0.05,0.414-0.049
	c0.277,0.002,0.662-0.022,0.672,0.325C84.613,105.752,84.213,105.672,83.925,105.706z M84.683,31.397
	c-0.096-0.015-0.236-0.027-0.372-0.06c-0.146-0.035-0.277-0.13-0.284-0.276c-0.009-0.214,0.163-0.29,0.35-0.312
	c0.104-0.013,0.212-0.019,0.317-0.01c0.268,0.022,0.67-0.08,0.686,0.298C85.396,31.407,85,31.362,84.683,31.397z M86.317,105.706
	c-0.137-0.009-0.279-0.006-0.417-0.03c-0.142-0.025-0.276-0.094-0.295-0.257c-0.024-0.221,0.141-0.306,0.314-0.347
	c0.135-0.032,0.279-0.031,0.42-0.027c0.244,0.008,0.572-0.008,0.596,0.295C86.969,105.764,86.578,105.66,86.317,105.706z
	 M87.567,31.284c-0.158,0.063-0.337,0.098-0.508,0.101c-0.279,0.006-0.67,0.02-0.681-0.323c-0.013-0.388,0.394-0.292,0.701-0.329
	c0.132,0.017,0.312,0.017,0.476,0.071c0.077,0.025,0.164,0.153,0.167,0.238C87.725,31.124,87.644,31.253,87.567,31.284z
	 M88.582,105.709c-0.126-0.019-0.307-0.021-0.467-0.078c-0.076-0.027-0.159-0.157-0.161-0.242c-0.001-0.084,0.077-0.214,0.153-0.244
	c0.158-0.062,0.336-0.094,0.507-0.098c0.278-0.006,0.663-0.022,0.673,0.327C89.297,105.76,88.896,105.672,88.582,105.709z
	 M90.795,59.651c-0.016,0.594-0.148,0.706-0.692,0.577c-1.062-0.251-1.985-1.253-2.019-2.348c-0.051-1.632-0.078-3.27,0.007-4.898
	c0.063-1.208,0.819-1.98,2.006-2.397c0.051,0.725,0.221,1.382-0.345,1.956c-0.251,0.255-0.236,0.653-0.234,1.015
	c0.009,1.171,0.017,2.344-0.001,3.515c-0.01,0.656,0.167,1.227,0.766,1.526C90.768,58.84,90.807,59.211,90.795,59.651z
	 M100.154,107.56c-0.481-0.011-0.962-0.013-1.443-0.011c-0.48,0-0.962,0.004-1.443,0.004c-0.855,0-1.711,0.002-2.566,0.002
	c-0.857,0-1.713-0.001-2.57-0.006c-0.829-0.006-0.837-0.02-0.848-0.812c-0.003-0.179-0.004-0.356-0.002-0.534
	c0.002-0.535-0.389-1.07-0.389-1.605C90.891,93.687,90.5,82.776,90.5,71.865c0-0.266,0-0.531,0-1.033
	c1,0.473,0.693,0.756,0.863,0.967c0.295,0.367,0.298,0.961,0.731,1.215c1.087,0.637,2.103,1.608,3.478,1.683
	c0.242,0.013,0.533,0.019,0.771,0.014c0.721-0.016,1.445-0.134,2.114-0.466c0.234-0.117,0.485-0.289,0.689-0.269
	c0.159,0.015,0.304,0.146,0.401,0.509c0.023,0.092,0.077,0.125,0.133,0.121c0.093-0.007,0.205-0.115,0.246-0.217
	c0.063-0.158,0.064-0.346,0.068-0.521c0.016-0.562,0.012-0.562,0.647-1.054l0,0l0,0c0.049,0.978-0.008,1.877-0.007,2.778
	c0.008,10.305-0.137,20.609-0.137,30.914c0,0.013,0,0.025,0,0.039c0,0.129,0.131,0.244,0.141,0.373
	c0.005,0.059,0.074,0.112,0.071,0.162C100.695,107.428,100.561,107.568,100.154,107.56z M100.479,71.917
	c-1.372,1.64-3.03,2.603-5.237,2.079c-1.896-0.449-3.379-2.295-3.481-4.256c-0.101-1.92-0.114-3.843-0.214-5.765
	c-0.169-3.271-0.231-6.549-0.336-9.824c-0.01-0.301-0.145-0.667,0.393-0.682c0.418-0.012,0.702,0.065,0.672,0.568
	c-0.008,0.137,0.035,0.283,0.081,0.415c0.018,0.049,0.108,0.083,0.172,0.104c0.133,0.045,0.238-0.062,0.229-0.149
	c-0.117-1.101,0.65-0.94,1.313-0.938c1.312,0.005,1.354,0.054,1.09,1.328c-0.058,0.278-0.13,0.555-0.186,0.833
	c-0.146,0.739,0.176,1.312,0.828,1.486c0.763,0.203,1.502-0.181,1.652-0.936c0.124-0.625,0.266-1.249,0.287-1.896
	c0.026-0.791,0.058-0.791,0.879-0.812c0.249-0.007,0.499,0.01,0.748-0.002c0.424-0.022,0.686,0.111,0.672,0.593
	c-0.006,0.215,0.043,0.495,0.292,0.498c0.339,0.003,0.304-0.319,0.335-0.562c0.02-0.159-0.039-0.365,0.275-0.445
	c0.164,0.274,0.105,0.592,0.105,0.889c0.007,5.272-0.001,10.545,0.021,15.818C101.072,70.909,100.885,71.434,100.479,71.917z
	 M95.564,51.932c-0.062-0.275,0.009-0.522,0.334-0.542c0.424-0.027,0.87-0.037,1.088,0.45c0.27,0.604,0.213,1.252,0.247,1.807
	c-0.028,0.613,0,1.149-0.167,1.665c-0.185,0.573-0.453,0.734-1.027,0.667c-0.356-0.043-0.533-0.233-0.452-0.568
	C95.87,54.246,95.829,53.09,95.564,51.932z M96.787,56.458c0.002-0.003,0.005-0.006,0.008-0.009l0.035-0.022l-0.027,0.03
	C96.797,56.457,96.792,56.457,96.787,56.458c-0.416,0.485-0.831,0.415-1.247,0.001c-0.007,0-0.013,0-0.02-0.001l-0.024-0.032
	l0.033,0.023c0.004,0.003,0.008,0.007,0.011,0.01C95.956,56.508,96.371,56.525,96.787,56.458z M99.893,52.944
	c-0.249,0.001-0.498-0.001-0.748-0.002c-1.236-0.002-1.236-0.002-1.625-1.19c-0.28-0.857-1.856-1.249-2.495-0.619
	c-0.139,0.138-0.164,0.301-0.114,0.488c0.064,0.24,0.104,0.487,0.178,0.724c0.158,0.508-0.08,0.627-0.535,0.604
	c-0.462-0.023-0.926-0.005-1.389-0.005s-0.928-0.031-1.388,0.007c-0.637,0.054-0.879-0.237-0.968-0.84
	c-0.105-0.71-0.182-1.401-0.041-2.118c0.086-0.437,0.28-0.594,0.712-0.587c1.067,0.017,2.136,0.002,3.204,0.002
	c1.852,0,3.703,0.023,5.554-0.012c0.619-0.012,0.929,0.22,1.027,0.804c0.059,0.349,0.168,0.695,0.189,1.046
	C101.538,52.638,101.25,52.94,99.893,52.944z M103.294,105.426c-0.093,0.326-0.38,0.274-0.611,0.268
	c-0.259-0.01-0.587,0.106-0.725-0.253c-0.041-0.105,0.021-0.198,0.107-0.268c0.18-0.144,0.396-0.12,0.68-0.135
	c0.099,0.028,0.269,0.064,0.429,0.128C103.279,105.207,103.324,105.32,103.294,105.426z M104.072,57.475
	c-0.026,0.875-0.379,1.606-0.983,2.12c-0.278,0.239-0.651,0.434-1.026,0.572c-0.42,0.156-0.562-0.009-0.562-0.373
	c0-0.001,0-0.002,0-0.003c0-0.001,0-0.003,0-0.005c0-0.029,0.06-0.058,0.06-0.087c0-0.09,0.026-0.181,0.026-0.27
	c-0.001-0.358,0.055-0.695,0.509-0.919c0.405-0.201,0.516-0.646,0.513-1.104c-0.006-0.658-0.004-1.316-0.004-1.975
	c0.001-0.658,0.005-1.316,0.008-1.975c0.002-0.331-0.264-0.678-0.498-0.899c-0.33-0.312-0.613-0.674-0.613-1.043
	c0-0.001,0-0.003,0-0.004c0-0.184,0.009-0.369,0.009-0.552c-0.001-0.036-0.009-0.071-0.009-0.107c0-0.001,0-0.001,0-0.002
	c0-0.161,0.287-0.243,0.37-0.269c0.022-0.013,0.168-0.022,0.196-0.024c0.066-0.005,0.207,0.019,0.298,0.063
	c0.925,0.453,1.597,1.098,1.671,2.157c0.002,0.036,0.018,0.072,0.019,0.11c0.013,0.408,0.02,0.8,0.018,1.197
	c-0.001,0.198,0.001,0.493-0.001,0.697c-0.002,0.203,0,0.72,0,0.72c0.002,0-0.57,0-0.57,0s0,0.092,0,0.192
	c0,0.399,0.295,0.708,0.295,1.048C103.795,56.994,104.081,57.208,104.072,57.475z M104.965,105.707
	c-0.113-0.012-0.253-0.021-0.391-0.04c-0.152-0.021-0.262-0.11-0.283-0.262c-0.021-0.159,0.089-0.266,0.228-0.3
	c0.167-0.041,0.344-0.058,0.517-0.057c0.244,0.002,0.572,0,0.583,0.303C105.633,105.759,105.251,105.668,104.965,105.707z
	 M105.684,31.391c-0.267-0.025-0.66,0.012-0.654-0.347c0.006-0.385,0.41-0.3,0.676-0.298c0.266,0.001,0.674-0.079,0.665,0.31
	C106.363,31.404,105.972,31.375,105.684,31.391z M107.272,105.703c-0.26-0.037-0.653,0.084-0.664-0.309
	c-0.011-0.373,0.366-0.354,0.636-0.348c0.291,0.006,0.724-0.07,0.707,0.367C107.937,105.783,107.53,105.67,107.272,105.703z
	 M108.013,31.393c-0.267-0.034-0.665,0.015-0.646-0.356c0.019-0.374,0.421-0.293,0.688-0.292c0.264,0.001,0.671-0.08,0.649,0.32
	C108.686,31.405,108.296,31.376,108.013,31.393z M124.581,95.914c-0.05,1.783-0.13,3.564-0.505,5.312
	c-0.889,4.147-2.748,5.861-6.956,6.277c-1.806,0.178-3.631,0.13-5.445-0.082c-0.513-0.061-0.723-0.241-0.812-0.76
	c-0.279-1.646,0.129-3.025,1.396-4.146c0.33-0.291,0.671-0.533,1.103-0.611c3.599-0.653,5.277-3.056,5.938-6.434
	c0.276-1.416,0.27-2.836,0.27-4.26c0.002-15.689-0.01-31.378,0.01-47.067c0.002-2.284-0.797-4.445-1.713-6.522
	c-0.006,0-0.365,0.001-0.365,0.002c0-0.006,0-0.012,0-0.018c0-0.086,0.15-0.237,0.152-0.405c-0.005-0.002,0.165-0.006,0.16-0.009
	c-0.003-0.007,0.082-0.013,0.079-0.019c-0.103-0.023-0.113-0.094-0.146-0.188c-0.008-0.001,0.009-0.005,0.002-0.006
	c0.002-0.007,0.015-0.013,0.017-0.02c-0.424-0.421-0.843-0.842-1.267-1.264c-1.043-0.544-2.125-0.956-3.268-1.264
	c-1.156-0.311-1.786-1.257-2.21-2.301c-0.312-0.771-0.28-1.596-0.161-2.425c0.078-0.538,0.355-0.745,0.84-0.764
	c2.349-0.094,4.708-0.301,7.034,0.189c2.333,0.492,3.958,1.858,4.802,4.122c0.758,2.035,0.912,4.165,1.025,6.301
	c0.106,1.998-0.146,3.989-0.147,5.983c-0.015,15.119-0.011,30.238-0.004,45.357C124.41,92.568,124.627,94.236,124.581,95.914z"/>
</svg>
