<?xml version="1.0" encoding="utf-8"?>
<!-- Generator: Adobe Illustrator 16.0.4, SVG Export Plug-In . SVG Version: 6.00 Build 0)  -->
<!DOCTYPE svg PUBLIC "-//W3C//DTD SVG 1.1//EN" "http://www.w3.org/Graphics/SVG/1.1/DTD/svg11.dtd">
<svg version="1.1" id="Layer_4203" xmlns="http://www.w3.org/2000/svg" xmlns:xlink="http://www.w3.org/1999/xlink" x="0px" y="0px"
	 width="128px" height="128px" viewBox="0 0 128 128" enable-background="new 0 0 128 128" xml:space="preserve">
<g>
	<g id="Jt0Uyq.tif">
		<g>
			<path fill-rule="evenodd" clip-rule="evenodd" d="M84.029,13.582c2.289,4.025,6.755,4.013,10.378,5.516
				c2.434,1.009,4.757,2.105,6.777,3.919c-2.256,3.783-4.052,7.711-5.092,11.949c-1.669,6.804-2.757,13.707-3.425,20.676
				c-0.801,8.359-1.541,16.725-2.318,25.085c-0.616,6.614-0.232,13.203,0.458,19.785c0.08,0.753-0.114,1.273-0.715,1.642
				c-3.888,2.382-8.147,3.616-12.673,3.362c-1.238-0.068-2.472-0.201-3.721-0.099c-0.604,0.049-1.268-0.073-1.453,0.638
				c-1.409,0.054-2.646,0.3-3.825-0.589c-0.795-0.601-1.648-0.342-2.02,0.737c-0.358,0-0.677,0-1.075,0
				c-0.481-0.855-1.255-1.37-2.392-1.383c-2.209-17.882-5.406-35.537-7.215-53.182c0.783-0.491,0.976,0.072,1.39,0.025
				c0.025-0.343,0.05-0.683,0.082-1.126c0.409,0.129,0.763,0.241,1.188,0.375c0.054-0.362,0.107-0.715,0.16-1.069l0.01,0.018
				c0.482-0.248,0.73,0.327,1.201,0.357c0.061-0.375,0.121-0.734,0.198-1.207c0.401,0.179,0.729,0.325,1.046,0.467
				c0.377-0.343-0.144-0.829,0.436-1.147c0.188,0.089,0.519,0.246,0.923,0.437c0.041-0.374,0.079-0.725,0.13-1.191
				c0.429,0.17,0.772,0.306,1.197,0.475c0.063-0.325,0.125-0.64,0.18-0.923c0.476-0.265,0.755,0.178,1.153,0.246
				c0.068-0.381,0.128-0.717,0.187-1.036c0.483-0.157,0.764,0.158,1.127,0.448c0.093-0.5,0.167-0.892,0.24-1.284l-0.016,0.015
				c0.375,0.169,0.75,0.338,1.203,0.542c0.035-0.39,0.065-0.72,0.107-1.164c0.418,0.119,0.771,0.219,1.137,0.323
				c0.052-0.33,0.104-0.66,0.171-1.087c0.42,0.167,0.767,0.306,1.176,0.47c0.083-0.353,0.163-0.701,0.224-0.965
				c0.523-0.292,0.716,0.214,1.14,0.254c0.053-0.36,0.104-0.713,0.149-1.023c0.478-0.265,0.684,0.234,1.122,0.257
				c0.05-0.324,0.102-0.65,0.15-0.966c0.448-0.273,0.738,0.104,1.15,0.258c0.046-0.366,0.086-0.699,0.126-1.011
				c0.501-0.351,0.776,0.298,1.249,0.203c0.024-0.29,0.051-0.586,0.072-0.843c0.469-0.411,0.76-0.004,1.173,0.176
				c0.048-0.357,0.09-0.68,0.146-1.111c0.427,0.115,0.784,0.21,1.163,0.313c0.199-0.322-0.168-0.82,0.288-1.022
				c0.458-0.26,0.604,0.325,0.953,0.32c0.49-0.201-0.177-0.844,0.588-0.996c0.143,0.058,0.446,0.183,0.801,0.328
				c0.066-0.505,0.124-0.947,0.175-1.335c0.086-0.077,0.114-0.098,0.138-0.125c0.8-0.933,3.055-0.815,2.39-2.715
				c-0.428-1.224-1.583-2.188-2.386-3.288c-1.729-2.368-3.356-4.798-4.701-7.613c2.258,0.095,4.064,1.035,5.893,1.899
				c1.257,0.595,2.392,1.472,3.841,1.606c1.716,0.159,2.276-0.566,1.816-2.283c-0.984-3.68-2.457-7.186-3.803-10.737
				c-0.075-0.198-0.104-0.414-0.154-0.62L84.029,13.582z"/>
			<path fill-rule="evenodd" clip-rule="evenodd" d="M60.498,97.055c-1.211,0.915-0.213,1.84-0.011,2.762
				c0.001,0.001-0.016-0.016-0.016-0.016c-0.207,1.584,0.135,3.098,0.552,4.685c-0.559,0.676-1.592-0.049-2.324,0.74
				c-0.061,0.156-0.186,0.479-0.357,0.917c-2.565-0.269-5.173-0.252-7.628-1.189c-4.682-0.256-9.187-1.123-13.367-3.543
				c-0.289-2.78,0.253-5.476,0.43-8.179c0.517-7.898-0.439-15.709-1.21-23.536c-0.577-5.857-0.9-11.748-1.702-17.574
				c-1.225-8.918-2.72-17.806-6.667-26.043c-0.479-0.998-0.998-1.976-1.523-3.011c2.387-2.341,5.372-3.483,8.453-4.498
				c2.175-0.716,4.286-1.629,6.443-2.402c1.269-0.456,1.531-1.672,2.319-2.546c-1.542,3.252-3.081,6.504-4.622,9.756
				c-0.368,0.776-0.73,1.556-1.123,2.32c-0.337,0.655-0.293,1.268,0.208,1.788c0.491,0.508,1.071,0.422,1.689,0.163
				c2.706-1.135,5.291-2.571,8.15-3.329c0.398-0.106,0.806-0.173,1.413-0.3c-2.023,3.649-4.081,6.986-6.743,9.92
				c-1.807,1.99-1.69,2.602,0.699,3.774c2.495,1.225,5.194,2.086,7.25,4.09c-0.591,0.404-0.028,0.838-0.019,0.802
				c0,0.031,0-0.395,0-0.82c0.125,0.29,0.249,0.579,0.363,0.842c0.372,0.204,0.527-0.081,0.71-0.406
				c1.654,1.292,3.226,2.52,4.812,3.759c-0.981,1.989-1.907,3.867-2.843,5.766c-1.329,0.135-1.709,1.024-1.447,2.215
				c0.504,2.295,1.228,4.515,0.316,6.932c-0.4,1.059,0.431,1.801,1.614,1.865c0.416,0.022,0.857-0.147,1.204,0.229
				c0.001,0,0.019-0.018,0.019-0.018c-0.701-0.153-0.549,0.271-0.49,0.686c0.362,2.561,0.71,5.123,1.079,7.793
				c0.175,0.096,0.433,0.238,0.692,0.378l0.017-0.017c-0.196,0-0.394,0-0.599,0c-0.122,0.766,0.077,1.287,0.799,1.524l0.017-0.018
				c-0.292-0.052-0.583-0.11-0.62,0.325c-0.05,0.619,0.299,0.967,0.811,1.21l0.018-0.02c-0.196,0.021-0.391,0.041-0.594,0.063
				c0.289,2.121,0.585,4.165,0.836,6.215c0.069,0.559,0.338,0.872,0.831,1.053l0.017-0.014c-0.917-0.017-0.626,0.586-0.553,1.151
				c0.229,0.119,0.488,0.254,0.748,0.387l0.018-0.018c-0.317-0.05-0.661-0.16-0.668,0.369c-0.009,0.614,0.306,0.975,0.862,1.163
				l0.015-0.017c-1.637,0.339,0.227,1.378-0.371,1.969c-0.073,0.073,0.235,0.529,0.367,0.81c0.001,0.001-0.016-0.017-0.016-0.017
				c-0.235,0.558-0.252,1.082,0.241,1.524l-0.014,0.012c-0.446,1.476,0.335,2.825,0.457,4.244c0.056,0.65-0.201,1.572,0.836,1.823
				l0.019-0.02c-0.292-0.047-0.57-0.082-0.609,0.34c-0.057,0.618,0.342,0.927,0.795,1.2L60.498,97.055z M52.552,50.906
				c0.25,0.166,0.094,0.691,0.607,0.649c0.259-0.273,0.534-0.561,0.844-0.889c-0.441-0.173-0.815-0.321-1.267-0.499
				c-0.067,0.3-0.118,0.53-0.169,0.76c-0.125-0.054-0.251-0.108,0.222,0.096C52.267,51.044,52.351,51.466,52.552,50.906z
				 M52.584,48.702c-0.332,0.478-0.152,0.914,0.096,1.403c0.475-0.219,0.838-0.474,1.012-0.973
				c-0.411-0.152-0.769-0.285-1.127-0.417c0.261-0.321,0.523-0.64,0.796-0.974c-0.326-0.185-0.779-0.151-0.797-0.752
				c-0.135-0.375,0.589-0.3,0.542-0.788c-0.369-0.107-0.757-0.221-1.298-0.379C51.97,46.907,51.847,47.904,52.584,48.702z
				 M52.816,44.711c-0.471-0.052-0.823-0.48-1.313-0.196c-0.032,0.449-0.003,0.85,0.549,1.353
				C52.288,45.512,52.514,45.168,52.816,44.711z M51.301,42.841c-0.092,0.562-0.035,0.996,0.351,1.486
				c0.337-0.379,0.615-0.691,0.924-1.039C52.105,43.123,51.748,42.997,51.301,42.841z M52.215,50.721
				c0.126-0.551,0.173-0.756-0.248-0.72C52.027,50.174,52.075,50.314,52.215,50.721z M56.233,75.092
				C55.954,74.92,56.02,74.96,56.233,75.092C56.082,74.886,56.035,74.823,56.233,75.092z M56.342,76.449
				c-0.08,0.027-0.161,0.055-0.241,0.08c0.061,0.128,0.123,0.254,0.454,0.935C56.399,76.724,56.371,76.586,56.342,76.449z
				 M56.459,77.335c-0.049-0.001-0.099-0.003-0.149-0.005c0,0.143,0,0.282,0,0.425c0.05,0,0.1,0,0.149,0
				C56.459,77.615,56.459,77.475,56.459,77.335z M54.561,65.848c0.08,0.189,0.129,0.309,0.198,0.474
				C54.938,66.064,54.899,65.942,54.561,65.848z M55.099,68.858c0.06-0.021,0.12-0.043,0.18-0.065
				c-0.047-0.123-0.095-0.246-0.143-0.37c-0.057,0.021-0.114,0.042-0.172,0.063C55.008,68.611,55.053,68.735,55.099,68.858z
				 M60.382,104.297c0.155-0.188,0.111-0.301-0.126-0.355C60.087,104.136,60.165,104.236,60.382,104.297z M56.852,79.598
				c-0.225,0.524-0.333,0.712,0.052,0.817C56.892,80.235,56.883,80.094,56.852,79.598z M57.327,84.184
				c0.17-0.411,0.18-0.575-0.197-0.49C57.176,83.811,57.22,83.92,57.327,84.184z M57.979,88.364c0.194-0.211,0.06-0.297-0.134-0.371
				C57.701,88.186,57.722,88.311,57.979,88.364z M58.36,91.165c0.196-0.323,0.089-0.42-0.232-0.51
				C58.221,90.858,58.276,90.979,58.36,91.165z M57.976,89.438c0.306-0.356,0.272-0.517,0-0.706
				C57.976,88.952,57.976,89.118,57.976,89.438z M57.463,84.334c-0.122,0.204-0.368,0.442,0.126,0.562
				C57.538,84.666,57.5,84.5,57.463,84.334z M57.601,86.551c0.045-0.008,0.09-0.016,0.135-0.025c-0.024-0.109-0.048-0.22-0.072-0.33
				c-0.037,0.006-0.075,0.015-0.113,0.021C57.567,86.328,57.583,86.439,57.601,86.551z M59.118,96.442
				c0.235-0.177,0.196-0.348,0.007-0.528C58.892,96.09,58.932,96.261,59.118,96.442z M59.001,95.093
				c-0.062-0.006-0.121-0.014-0.183-0.021c0.017,0.127,0.035,0.255,0.053,0.382c0.043-0.005,0.086-0.01,0.129-0.014
				C59.001,95.324,59.001,95.209,59.001,95.093z M58.722,92.405c-0.058,0.012-0.115,0.021-0.174,0.033
				c0.028,0.138,0.057,0.276,0.085,0.414c0.053-0.011,0.106-0.02,0.159-0.029C58.769,92.684,58.746,92.544,58.722,92.405z
				 M55.671,73.379c0.259-0.356,0.198-0.445-0.081-0.452C55.611,73.039,55.627,73.131,55.671,73.379z M55.517,72.452
				c0.086,0.008,0.172,0.016,0.258,0.024c-0.014-0.137-0.027-0.274-0.04-0.411c-0.056-0.001-0.112-0.003-0.168-0.004
				C55.55,72.191,55.534,72.322,55.517,72.452z M56.803,81.616C57.098,82.002,57.045,81.932,56.803,81.616
				C56.944,81.989,56.973,82.064,56.803,81.616z M56.606,79.532c0.072-0.011,0.145-0.021,0.216-0.03
				c-0.029-0.095-0.057-0.188-0.216-0.702C56.606,79.34,56.606,79.436,56.606,79.532z M59.674,99.405
				c-0.169,0.308-0.109,0.406,0.226,0.396C59.816,99.655,59.759,99.555,59.674,99.405z M59.906,101.086
				C60.026,101.453,60,101.374,59.906,101.086C59.906,101.393,59.906,101.477,59.906,101.086z M51.242,46.172
				C51.513,46.648,51.464,46.564,51.242,46.172C51.348,46.607,51.369,46.693,51.242,46.172z M50.979,43.775
				c-0.036-0.001-0.071-0.002-0.106-0.003c0,0.143,0,0.284,0,0.427c0.035,0.001,0.07,0.002,0.106,0.002
				C50.979,44.059,50.979,43.917,50.979,43.775z M51.206,44.628c-0.082,0.025-0.164,0.048-0.246,0.072
				c0.055,0.125,0.111,0.252,0.422,0.957C51.251,44.896,51.229,44.763,51.206,44.628z M58.663,93.65
				c0.064-0.104,0.132-0.174,0.118-0.201c-0.025-0.048-0.1-0.071-0.154-0.105C58.637,93.43,58.646,93.514,58.663,93.65z
				 M52.497,52.245C52.381,51.882,52.405,51.959,52.497,52.245C52.497,51.938,52.497,51.852,52.497,52.245z M58.857,94.588
				c0.03,0.001,0.059,0.001,0.088,0.001c0-0.103,0-0.201,0-0.303c-0.029,0-0.058,0-0.088,0
				C58.857,94.387,58.857,94.486,58.857,94.588z M58.3,89.841c-0.04,0.001-0.081,0.002-0.124,0.004
				c0.006,0.11,0.012,0.221,0.019,0.332c0.035-0.002,0.07-0.003,0.105-0.004C58.3,90.062,58.3,89.952,58.3,89.841z M58.562,91.504
				c-0.071,0.007-0.143,0.015-0.214,0.022c0.034,0.138,0.066,0.276,0.214,0.891C58.562,91.784,58.562,91.645,58.562,91.504z
				 M51.299,45.956c0.032,0.001,0.065,0.001,0.097,0.001c0-0.111,0-0.221,0-0.331c-0.032,0-0.065-0.001-0.097-0.001
				C51.299,45.735,51.299,45.845,51.299,45.956z M52.067,49.113c-0.054,0-0.109-0.002-0.163-0.002
				c0.024,0.098,0.049,0.195,0.205,0.821C52.076,49.292,52.072,49.202,52.067,49.113z M51.631,47.292
				c-0.045,0.004-0.09,0.009-0.134,0.013c0.012,0.116,0.024,0.231,0.036,0.347c0.044-0.005,0.088-0.009,0.133-0.014
				C51.654,47.522,51.644,47.407,51.631,47.292z M59.804,100.38c-0.034,0.008-0.068,0.018-0.103,0.024
				c0.017,0.095,0.033,0.187,0.05,0.279c0.036-0.007,0.073-0.014,0.11-0.02C59.841,100.569,59.822,100.474,59.804,100.38z
				 M51.857,48.736c0-0.238,0-0.414,0-0.694C51.59,48.324,51.586,48.5,51.857,48.736z M60.255,103.021
				c-0.05,0.006-0.1,0.012-0.15,0.017c0.012,0.136,0.025,0.271,0.038,0.409c0.055-0.005,0.111-0.011,0.166-0.016
				C60.291,103.295,60.273,103.159,60.255,103.021z M60.024,102.162c-0.043,0.009-0.085,0.017-0.128,0.025
				c0.023,0.109,0.046,0.22,0.068,0.329c0.04-0.007,0.08-0.016,0.119-0.023C60.064,102.383,60.045,102.273,60.024,102.162z
				 M59.246,96.804c-0.032,0.143-0.046,0.202-0.059,0.261c0.071,0.01,0.142,0.019,0.213,0.027
				C59.36,97.016,59.319,96.94,59.246,96.804z M59.622,98.632c-0.069,0.015-0.138,0.03-0.208,0.046
				c0.03,0.13,0.061,0.259,0.208,0.891C59.622,98.911,59.622,98.771,59.622,98.632z M56.498,78.606
				c0.036-0.008,0.073-0.016,0.109-0.023c-0.019-0.096-0.037-0.19-0.056-0.284c-0.04,0.01-0.078,0.019-0.117,0.026
				C56.455,78.419,56.477,78.512,56.498,78.606z M57.145,83.019c0.045-0.012,0.089-0.021,0.133-0.033
				c-0.026-0.097-0.053-0.192-0.079-0.289c-0.04,0.01-0.079,0.02-0.118,0.028C57.102,82.823,57.124,82.921,57.145,83.019z
				 M55.405,71.512c0.034,0,0.068,0,0.102,0c0-0.115,0-0.231,0-0.347c-0.034,0-0.068,0-0.102,0
				C55.405,71.279,55.405,71.396,55.405,71.512z M55.345,70.351C55.382,70.479,55.397,70.531,55.345,70.351
				C55.449,70.513,55.418,70.465,55.345,70.351z M55.29,69.413c-0.033,0-0.066,0-0.098,0c0,0.114,0,0.228,0,0.342
				c0.032,0,0.065,0,0.098,0C55.29,69.641,55.29,69.527,55.29,69.413z M55.108,67.67c-0.075,0.019-0.15,0.034-0.225,0.052
				c0.03,0.131,0.06,0.26,0.09,0.389c0.052-0.006,0.103-0.013,0.155-0.02C55.123,67.95,55.115,67.811,55.108,67.67z M54.847,66.724
				c-0.037,0.008-0.073,0.016-0.109,0.023c0.019,0.096,0.038,0.192,0.057,0.288c0.038-0.01,0.078-0.018,0.117-0.025
				C54.89,66.913,54.868,66.818,54.847,66.724z M56.04,76.014c0.043-0.003,0.085-0.007,0.127-0.011
				c-0.01-0.115-0.019-0.23-0.029-0.344c-0.042,0.002-0.083,0.006-0.125,0.009C56.022,75.783,56.031,75.898,56.04,76.014z
				 M54.334,64.4c0.041-0.002,0.083-0.005,0.125-0.007c-0.006-0.101-0.011-0.201-0.016-0.301c-0.043,0.002-0.087,0.005-0.13,0.007
				C54.32,64.2,54.327,64.3,54.334,64.4z M55.822,74.176c0.044-0.003,0.089-0.006,0.133-0.01c-0.008-0.106-0.017-0.213-0.025-0.318
				c-0.042,0.002-0.083,0.006-0.125,0.008C55.811,73.961,55.816,74.068,55.822,74.176z M54.643,64.876
				c-0.223,0.226-0.308,0.378,0.071,0.51C54.689,65.209,54.67,65.072,54.643,64.876z M57.871,87.15
				c-0.033-0.001-0.067-0.004-0.102-0.004c-0.007,0.114-0.013,0.229-0.02,0.342c0.04,0.002,0.082,0.004,0.122,0.007
				C57.871,87.38,57.871,87.265,57.871,87.15z M57.684,85.398c-0.056,0-0.111-0.002-0.166-0.002c0.024,0.101,0.048,0.2,0.166,0.688
				C57.684,85.583,57.684,85.491,57.684,85.398z M56.939,80.449c0,0.58,0,0.666,0,0.752c0.029-0.002,0.059-0.005,0.089-0.007
				C57.018,81.108,57.008,81.024,56.939,80.449z M54.336,63.541c0.023,0,0.044,0,0.066,0c0-0.078,0-0.158,0-0.236
				c-0.022,0-0.043,0-0.066,0C54.336,63.383,54.336,63.463,54.336,63.541z M59.368,98.424
				C59.368,97.947,59.368,97.868,59.368,98.424C59.294,97.874,59.304,97.951,59.368,98.424z"/>
			<path fill-rule="evenodd" clip-rule="evenodd" d="M94.13,62.482c-0.06-0.203-0.12-0.404-0.181-0.607
				c0.125,0.009,0.25,0.019,0.537,0.04c-0.202-0.224-0.286-0.316-0.454-0.503c-0.032,0.238-0.049,0.359-0.066,0.481
				c-1.358-2.24-0.769-4.678-0.534-7.002c0.765-7.607,1.778-15.191,4.102-22.512c1.169-3.688,2.944-7.12,5.389-10.798
				c7.776,34.01,14.625,67.704,17.141,102.379c-3.958-1.146-7.823-1.72-11.7-0.429c-2.142-10.019-4.227-20.047-6.444-30.044
				c-1.793-8.082-3.681-16.144-5.916-24.119c-0.154-0.549-0.224-1.122-0.332-1.685c0.122,0.073,0.244,0.146,0.612,0.367
				c-0.274-0.469-0.301-0.868-0.599-0.347c-0.426-0.73-0.595-1.531-0.646-2.364c0.396-0.086,0.335-0.222-0.01-0.438
				c0.013,0.19,0.021,0.322,0.028,0.457c-0.5-0.904-0.778-1.879-0.938-2.892c0.132,0.067,0.265,0.135,0.438,0.223
				C94.504,62.255,94.299,62.429,94.13,62.482z M100.22,84.09c0.017,0.014,0.034,0.027,0.05,0.04
				c-0.023-0.007-0.046-0.014-0.069-0.021c-0.021-0.031-0.043-0.063-0.039-0.058C100.155,84.048,100.188,84.07,100.22,84.09z
				 M108.614,122.506l-0.036-0.059l0.057,0.041c0.017,0.05,0.033,0.098,0.015,0.043C108.707,122.57,108.66,122.538,108.614,122.506z
				 M101.463,89.761c0-0.177,0-0.354,0-0.059c-0.095-0.288-0.041-0.122,0.015,0.044c0.024,0.192,0.047,0.384,0.081,0.655
				C101.885,90.039,101.707,89.892,101.463,89.761z M93.672,60.436c0.061-0.231,0.342-0.486-0.188-0.743
				c0.087,0.312,0.143,0.521,0.2,0.731c0.064,0.14,0.127,0.28,0.019,0.041C93.899,60.636,93.784,60.537,93.672,60.436z
				 M97.084,72.337c0.246-0.453,0.217-0.602-0.119-0.694C96.996,71.827,97.021,71.967,97.084,72.337z M103.162,96.755
				c-0.108,0.445-0.101,0.618,0.286,0.628C103.365,97.199,103.304,97.064,103.162,96.755z M103.585,98.7
				c-0.119,0.338-0.061,0.456,0.318,0.398C103.782,98.946,103.702,98.847,103.585,98.7z M106.305,111.369
				c0.17-0.262,0.169-0.393-0.192-0.465C106.187,111.082,106.234,111.198,106.305,111.369z M105.117,105.566
				c-0.222,0.313-0.132,0.41,0.238,0.434C105.264,105.831,105.201,105.72,105.117,105.566z M99.026,78.635
				c-0.06,0.017-0.118,0.032-0.178,0.049c0.038,0.13,0.077,0.26,0.116,0.389c0.053-0.015,0.105-0.028,0.157-0.043
				C99.091,78.898,99.059,78.766,99.026,78.635z M99.819,82.575c0.059-0.051,0.118-0.103,0.177-0.154
				c-0.095-0.087-0.189-0.172-0.285-0.258c-0.037,0.035-0.076,0.069-0.114,0.104C99.671,82.37,99.745,82.473,99.819,82.575z
				 M100.297,85.046c0.158,0.707,0.044,0.918,0.479,0.863C100.693,85.762,100.634,85.651,100.297,85.046z M100.969,87.231
				c-0.173,0.327-0.109,0.435,0.266,0.403C101.134,87.484,101.066,87.38,100.969,87.231z M100.379,84.688
				c-0.226,0.214-0.224,0.328,0.085,0.435C100.432,84.959,100.409,84.849,100.379,84.688z M102.777,94.11
				c-0.323,0.401-0.294,0.562,0,0.713C102.777,94.637,102.777,94.483,102.777,94.11z M102.153,93.323
				c0.259-0.46,0.331-0.643-0.039-0.784C102.123,92.732,102.131,92.881,102.153,93.323z M98.686,77.624
				C98.482,77.128,98.52,77.217,98.686,77.624C98.629,77.186,98.616,77.08,98.686,77.624z M98.109,75.197
				c-0.057,0.02-0.114,0.037-0.17,0.057c0.052,0.143,0.104,0.285,0.154,0.427c0.052-0.018,0.105-0.036,0.158-0.054
				C98.204,75.483,98.156,75.341,98.109,75.197z M97.717,73.993c-0.08,0.509-0.061,0.682,0.314,0.692
				C97.943,74.491,97.875,74.342,97.717,73.993z M97.712,73.905c-0.059-0.202-0.097-0.334-0.155-0.534
				C97.377,73.635,97.36,73.779,97.712,73.905z M97.308,72.95c0.048-0.016,0.098-0.032,0.146-0.048
				c-0.04-0.112-0.081-0.223-0.122-0.333c-0.041,0.013-0.081,0.026-0.122,0.04C97.242,72.724,97.275,72.836,97.308,72.95z
				 M96.138,68.691c0.062,0.004,0.124,0.01,0.187,0.015c-0.018-0.127-0.036-0.253-0.055-0.378c-0.045,0.005-0.088,0.009-0.132,0.014
				C96.138,68.458,96.138,68.575,96.138,68.691z M100.031,82.985c-0.045,0.029-0.09,0.06-0.134,0.089
				c0.062,0.09,0.124,0.179,0.186,0.271c0.042-0.028,0.083-0.057,0.125-0.085C100.149,83.169,100.089,83.077,100.031,82.985z
				 M99.114,79.998c0.111-0.031,0.168-0.048,0.286-0.081c-0.053-0.135-0.101-0.257-0.286-0.729
				C99.114,79.707,99.114,79.844,99.114,79.998z M98.664,77.872c-0.124,0.244-0.076,0.371,0.218,0.373
				C98.945,78.026,98.938,77.874,98.664,77.872z M106.183,110.121c-0.058,0.011-0.114,0.021-0.171,0.032
				c0.024,0.126,0.049,0.251,0.073,0.376c0.056-0.012,0.109-0.022,0.165-0.033C106.228,110.37,106.204,110.246,106.183,110.121z
				 M105.418,107.97c0.328-0.364,0.312-0.511,0-0.63C105.418,107.506,105.418,107.644,105.418,107.97z M107.922,118.451
				c-0.2,0.49-0.291,0.684,0.118,0.78C108.01,119.037,107.988,118.887,107.922,118.451z M107.651,118.453
				c0.087-0.209,0.145-0.276,0.13-0.322c-0.028-0.093-0.004-0.35-0.208-0.137C107.527,118.042,107.605,118.207,107.651,118.453z
				 M107.556,117.365c0.065-0.048,0.131-0.094,0.197-0.14c-0.061-0.06-0.121-0.118-0.59-0.574
				C107.479,117.228,107.518,117.296,107.556,117.365z M107.461,116.12c-0.054,0.013-0.107,0.024-0.164,0.037
				c0.029,0.126,0.059,0.251,0.087,0.376c0.05-0.012,0.101-0.022,0.151-0.034C107.512,116.373,107.486,116.247,107.461,116.12z
				 M104.051,100.485c-0.05,0.013-0.1,0.024-0.149,0.036c0.03,0.08,0.061,0.162,0.309,0.837
				C104.081,100.647,104.065,100.565,104.051,100.485z M103.838,99.913c0.054-0.031,0.108-0.062,0.164-0.092
				c-0.071-0.116-0.142-0.232-0.214-0.349c-0.047,0.028-0.095,0.057-0.143,0.084C103.709,99.676,103.773,99.794,103.838,99.913z
				 M103.382,97.657c-0.176,0.305-0.124,0.431,0.243,0.472C103.533,97.949,103.471,97.828,103.382,97.657z M103.074,96.458
				c0.033-0.008,0.067-0.016,0.102-0.023c-0.017-0.103-0.035-0.203-0.052-0.305c-0.044,0.01-0.088,0.02-0.132,0.03
				C103.019,96.258,103.046,96.358,103.074,96.458z M95.646,66.663c-0.031,0.042-0.062,0.084-0.092,0.126
				c0.069,0.051,0.142,0.103,0.213,0.153c0.022-0.033,0.044-0.067,0.067-0.099C95.771,66.783,95.708,66.724,95.646,66.663z
				 M95.388,65.603c-0.197,0.304-0.113,0.415,0.26,0.45C95.545,65.875,95.476,65.755,95.388,65.603z M102.412,93.863
				c0.045-0.004,0.089-0.007,0.135-0.012c-0.012-0.116-0.023-0.233-0.033-0.351c-0.045,0.003-0.088,0.007-0.133,0.011
				C102.392,93.63,102.402,93.746,102.412,93.863z M102.976,95.275c-0.056-0.002-0.112-0.005-0.167-0.008
				c0.024,0.105,0.047,0.212,0.167,0.744C102.976,95.47,102.976,95.371,102.976,95.275z M101.993,92.078c0.032,0,0.065,0,0.1,0
				c0-0.11,0-0.222,0-0.334c-0.034,0-0.067,0-0.1,0.001C101.993,91.856,101.993,91.968,101.993,92.078z M101.879,90.855
				c-0.043,0.009-0.086,0.018-0.13,0.025c0.02,0.101,0.04,0.201,0.059,0.303c0.041-0.008,0.081-0.015,0.122-0.021
				C101.913,91.06,101.896,90.958,101.879,90.855z M104.245,101.299c-0.046,0.009-0.091,0.016-0.136,0.023
				c0.022,0.112,0.043,0.225,0.065,0.334c0.04-0.006,0.08-0.014,0.12-0.021C104.279,101.523,104.261,101.411,104.245,101.299z
				 M105.538,107.199c-0.192-0.446-0.216-0.499-0.238-0.553c-0.02,0.021-0.059,0.049-0.054,0.061
				C105.266,106.755,105.298,106.799,105.538,107.199z M104.938,105.266c0.062-0.068,0.125-0.136,0.186-0.204
				c-0.083-0.056-0.166-0.111-0.249-0.167c-0.045,0.056-0.09,0.111-0.135,0.166C104.806,105.13,104.871,105.197,104.938,105.266z
				 M104.578,103.452c0.034,0,0.068,0,0.102,0c0-0.115,0-0.23,0-0.345c-0.033,0-0.067,0-0.102,0
				C104.578,103.222,104.578,103.337,104.578,103.452z M104.463,102.132c-0.214,0.235-0.271,0.382,0.108,0.528
				C104.529,102.452,104.502,102.321,104.463,102.132z M106.945,114.757c0.042-0.003,0.084-0.007,0.126-0.011
				c-0.008-0.114-0.019-0.229-0.028-0.343c-0.042,0.003-0.085,0.007-0.128,0.01C106.925,114.527,106.936,114.643,106.945,114.757z
				 M107.327,115.35c-0.08-0.004-0.161-0.008-0.242-0.012c0.019,0.143,0.035,0.284,0.054,0.427c0.05,0,0.1,0,0.149-0.002
				C107.302,115.625,107.315,115.488,107.327,115.35z M106.668,113.946c0.083,0.006,0.165,0.012,0.247,0.018
				c-0.014-0.148-0.028-0.296-0.097-1.054C106.709,113.661,106.688,113.803,106.668,113.946z M99.591,81.607
				c0.028,0.002,0.054,0.004,0.081,0.006c0-0.071,0-0.145,0-0.218c-0.021-0.002-0.043-0.003-0.065-0.004
				C99.602,81.464,99.597,81.536,99.591,81.607z M108.36,120.452c-0.246,0.214-0.301,0.355,0.058,0.54
				C108.396,120.781,108.38,120.645,108.36,120.452z M96.912,70.851c-0.044,0.008-0.088,0.017-0.132,0.024
				c0.023,0.115,0.045,0.229,0.068,0.343c0.04-0.007,0.08-0.015,0.122-0.021C96.951,71.081,96.932,70.965,96.912,70.851z
				 M96.687,70.024c-0.034,0.008-0.07,0.016-0.105,0.023c0.021,0.087,0.04,0.175,0.062,0.263c0.036-0.01,0.074-0.02,0.109-0.029
				C96.731,70.196,96.708,70.11,96.687,70.024z M108.56,121.489c-0.034,0-0.068,0-0.104,0c0,0.116,0,0.23,0,0.346
				c0.035,0,0.069,0,0.104,0C108.56,121.72,108.56,121.605,108.56,121.489z M96.395,69.595c0.21-0.229,0.298-0.385-0.091-0.51
				C96.336,69.266,96.36,69.402,96.395,69.595z M98.422,76.161c-0.047,0.004-0.094,0.008-0.143,0.012
				c0.013,0.111,0.024,0.223,0.035,0.333c0.045-0.004,0.091-0.009,0.136-0.013C98.441,76.383,98.432,76.271,98.422,76.161z
				 M94.733,63.811c0.157-0.466,0.162-0.611-0.171-0.557C94.603,63.381,94.635,63.489,94.733,63.811z M94.881,64.328
				c0.034,0,0.066,0,0.098,0c0-0.099,0-0.197,0-0.295c-0.031,0-0.063,0-0.098-0.001C94.881,64.131,94.881,64.229,94.881,64.328z
				 M108.004,120.024c0.057,0.001,0.115,0.002,0.172,0.004c-0.021-0.103-0.044-0.202-0.172-0.777
				C108.004,119.838,108.004,119.931,108.004,120.024z M100.8,86.5c-0.043,0.014-0.086,0.028-0.129,0.042
				c0.026,0.098,0.053,0.196,0.08,0.293c0.051-0.015,0.101-0.032,0.151-0.047C100.868,86.692,100.834,86.596,100.8,86.5z
				 M106.418,112.031c0.022-0.01,0.045-0.019,0.066-0.028c-0.025-0.063-0.054-0.128-0.08-0.191c-0.02,0.008-0.039,0.016-0.058,0.021
				C106.371,111.9,106.395,111.965,106.418,112.031z M93.455,58.971c-0.045,0.008-0.09,0.017-0.134,0.025
				c0.022,0.104,0.045,0.207,0.067,0.311c0.04-0.008,0.081-0.017,0.121-0.025C93.49,59.177,93.473,59.075,93.455,58.971z
				 M105.734,108.34c-0.024,0.006-0.049,0.013-0.073,0.019c0.011,0.069,0.021,0.138,0.033,0.208c0.029-0.006,0.058-0.01,0.088-0.016
				C105.766,108.48,105.75,108.409,105.734,108.34z M105.938,109.283c-0.004,0-0.009-0.002-0.013-0.002
				c-0.006,0.056-0.013,0.113-0.019,0.17c0.003,0,0.008,0,0.011,0C105.925,109.396,105.932,109.339,105.938,109.283z
				 M106.557,112.521C106.557,112.818,106.557,112.87,106.557,112.521C106.599,112.869,106.593,112.817,106.557,112.521z
				 M99.425,80.143C99.425,80.603,99.425,80.681,99.425,80.143C99.499,80.674,99.488,80.597,99.425,80.143z M101.158,88.474
				c0.021,0,0.043-0.002,0.064-0.002c0-0.074,0-0.15,0-0.227c-0.026,0.001-0.052,0.002-0.076,0.002
				C101.15,88.323,101.155,88.398,101.158,88.474z M104.806,104.293c0.022,0,0.046,0,0.069,0c0-0.078,0-0.157,0-0.234
				c-0.023,0-0.047,0-0.069,0C104.806,104.136,104.806,104.215,104.806,104.293z"/>
			<path fill-rule="evenodd" clip-rule="evenodd" d="M33.366,64.229c-0.58,2.018-1.16,4.035-1.739,6.053
				c-0.104-0.07-0.206-0.142-0.309-0.213c-0.04,0.133-0.08,0.265-0.164,0.546c0.263-0.19,0.375-0.273,0.487-0.355
				c-1.068,4.384-2.196,8.754-3.188,13.154c-2.036,9.019-4.013,18.049-5.988,27.079c-0.948,4.337-1.836,8.687-2.761,13.07
				c-3.914-1.319-7.794-0.775-11.737,0.41c2.492-34.588,9.351-68.26,17.13-102.341c6.782,11.83,8.531,24.356,9.766,37.02
				c-0.226,0.137-0.481,0.259-0.337,0.613c0.395-0.084,0.379-0.345,0.317-0.63c0.343,0.811-0.076,1.476-0.41,2.158
				c-0.07-0.129-0.139-0.258-0.209-0.389c0.058-0.151,0.117-0.302,0.018-0.047c0.012-0.27,0.004-0.103-0.003,0.065
				c-0.226,0.144-0.376,0.315-0.185,0.641c0.136-0.101,0.264-0.196,0.393-0.291c-0.364,1.159-0.729,2.318-1.093,3.477
				c-0.234-0.248-0.378-0.233-0.431,0.251C33.113,64.385,33.239,64.307,33.366,64.229z M20.564,115.796
				C20.83,115.446,20.777,115.515,20.564,115.796C20.848,115.597,20.912,115.553,20.564,115.796z M30.329,74.159
				c-0.317,0.211-0.436,0.358-0.074,0.645C30.282,74.568,30.301,74.408,30.329,74.159z M29.47,77.288
				c0.292-0.082,0.249-0.258,0.145-0.464C29.361,76.918,29.32,77.066,29.47,77.288z M19.326,123.172
				c0.228-0.599,0.401-0.767,0-0.992C19.326,122.411,19.326,122.576,19.326,123.172z M25.365,93.756
				c0.058,0.047,0.115,0.094,0.172,0.141c0.069-0.131,0.138-0.261,0.207-0.391c-0.047-0.03-0.095-0.059-0.142-0.088
				C25.523,93.531,25.444,93.644,25.365,93.756z M22.301,109.27c-0.07-0.036-0.14-0.072-0.21-0.108
				c-0.03,0.12-0.061,0.241-0.207,0.83C22.186,109.469,22.244,109.369,22.301,109.27z M23.448,103.984
				c-0.073-0.037-0.145-0.074-0.218-0.112c-0.048,0.127-0.096,0.253-0.143,0.379c0.055,0.025,0.11,0.053,0.166,0.079
				C23.318,104.215,23.383,104.101,23.448,103.984z M26.377,90.953c-0.077-0.025-0.155-0.05-0.232-0.074
				c-0.024,0.141-0.047,0.28-0.071,0.42c0.049,0.013,0.098,0.027,0.146,0.041C26.272,91.21,26.325,91.082,26.377,90.953z
				 M26.014,92.553c-0.444,0.185-0.542,0.307-0.229,0.511C25.84,92.942,25.891,92.827,26.014,92.553z M26.703,89.096
				c0.19-0.586,0.401-0.717,0-0.912C26.703,88.365,26.703,88.506,26.703,89.096z M27.318,86.004c0.051,0,0.102,0,0.153,0
				c0-0.137,0-0.272,0-0.409c-0.051,0-0.102,0-0.153,0C27.318,85.731,27.318,85.867,27.318,86.004z M25.131,95.582
				c0.074-0.011,0.148-0.021,0.223-0.03c-0.019-0.12-0.039-0.242-0.161-1.001C25.146,95.329,25.139,95.455,25.131,95.582z
				 M25.662,94.087C25.429,94.572,25.472,94.482,25.662,94.087C25.38,94.416,25.323,94.483,25.662,94.087z M29.654,76.445
				c0.065,0.009,0.129,0.019,0.194,0.026c0-0.115,0-0.232,0-0.825C29.709,76.222,29.682,76.332,29.654,76.445z M30.778,72.56
				c-0.059-0.006-0.118-0.01-0.176-0.014c-0.013,0.161-0.025,0.322-0.037,0.482c0.06,0.004,0.12,0.008,0.18,0.015
				C30.756,72.881,30.767,72.719,30.778,72.56z M31.447,69.388c0.028,0.025,0.056,0.053,0.084,0.079
				c0.054-0.067,0.109-0.134,0.163-0.199c-0.026-0.023-0.054-0.046-0.081-0.069C31.558,69.262,31.501,69.323,31.447,69.388z
				 M32.072,68.263c-0.441,0.124-0.492,0.245-0.292,0.486C31.86,68.617,31.921,68.513,32.072,68.263z M32.272,67.558
				c-0.054-0.044-0.109-0.09-0.163-0.134c-0.058,0.128-0.117,0.254-0.175,0.383c0.052,0.023,0.103,0.049,0.155,0.073
				C32.15,67.772,32.211,67.665,32.272,67.558z M28.343,81.72c0.313-0.207,0.394-0.339,0.024-0.504
				C28.36,81.376,28.353,81.509,28.343,81.72z M28.584,80.743c0.058,0.003,0.117,0.006,0.175,0.01c0-0.111,0-0.22,0-0.906
				C28.627,80.521,28.605,80.633,28.584,80.743z M28.992,79.596c-0.039-0.013-0.077-0.027-0.115-0.042
				c-0.036,0.087-0.071,0.172-0.106,0.258c0.044,0.017,0.089,0.033,0.133,0.05C28.933,79.773,28.961,79.686,28.992,79.596z
				 M28.885,78.945c0.079,0.017,0.158,0.033,0.237,0.05c0.017-0.14,0.034-0.28,0.051-0.42c-0.048-0.01-0.097-0.021-0.146-0.03
				C28.98,78.678,28.934,78.812,28.885,78.945z M28.96,78.295c0.466-0.132,0.558-0.242,0.361-0.49
				C29.233,77.925,29.155,78.031,28.96,78.295z M22.43,108.292c-0.357,0.144-0.375,0.265-0.095,0.498
				C22.37,108.604,22.393,108.482,22.43,108.292z M19.932,120.545c-0.067,0.007-0.134,0.014-0.202,0.02
				c0.028,0.095,0.057,0.19,0.202,0.681C19.932,120.73,19.932,120.637,19.932,120.545z M20.136,119.779
				c-0.036-0.018-0.073-0.034-0.109-0.054c-0.044,0.086-0.089,0.171-0.133,0.257c0.04,0.02,0.081,0.04,0.122,0.06
				C20.056,119.954,20.096,119.866,20.136,119.779z M20.41,117.478c0.191-0.152,0.395-0.306,0-0.5
				C20.41,117.168,20.41,117.324,20.41,117.478z M20.85,114.73c0.05,0.013,0.1,0.027,0.15,0.04c0.044-0.121,0.087-0.241,0.13-0.361
				c-0.06-0.02-0.12-0.04-0.179-0.058C20.917,114.478,20.883,114.604,20.85,114.73z M21.158,114.022
				c0.225-0.152,0.252-0.304,0.034-0.485C20.962,113.688,20.961,113.841,21.158,114.022z M23.764,101.061
				c0.393-0.307,0.47-0.445,0.153-0.645C23.878,100.582,23.846,100.714,23.764,101.061z M25.073,95.993
				c-0.263,0.102-0.264,0.259-0.11,0.463C25.238,96.355,25.205,96.191,25.073,95.993z M22.847,106.065
				c0.201-0.149,0.319-0.285-0.025-0.409C22.69,105.793,22.604,105.93,22.847,106.065z M22.963,105.134
				c0.063,0.006,0.125,0.01,0.188,0.016c0-0.11,0-0.218,0-0.79C23.017,104.917,22.99,105.025,22.963,105.134z M23.279,103.402
				c0.358,0.063,0.385-0.07,0.251-0.373C23.437,103.169,23.367,103.271,23.279,103.402z M32.219,66.995
				c0.063,0.015,0.125,0.028,0.187,0.042c0.03-0.158,0.06-0.315,0.09-0.474c-0.057-0.012-0.114-0.023-0.171-0.035
				C32.29,66.684,32.254,66.84,32.219,66.995z M26.416,89.807C26.416,90.206,26.416,90.13,26.416,89.807
				C26.322,90.117,26.301,90.189,26.416,89.807z M26.607,89.152c-0.047,0.008-0.093,0.016-0.14,0.023
				c0.02,0.104,0.039,0.209,0.059,0.312c0.042-0.006,0.084-0.013,0.126-0.021C26.638,89.362,26.622,89.257,26.607,89.152z
				 M26.283,91.849c-0.085-0.068-0.169-0.135-0.253-0.201c-0.054,0.092-0.107,0.185-0.451,0.777
				C26.115,91.986,26.199,91.916,26.283,91.849z M23.831,101.352c-0.046-0.003-0.091-0.005-0.137-0.008
				c-0.006,0.117-0.01,0.234-0.016,0.352c0.043,0.003,0.085,0.006,0.128,0.009C23.814,101.587,23.822,101.469,23.831,101.352z
				 M23.594,102.212C23.594,102.491,23.594,102.423,23.594,102.212C23.526,102.41,23.507,102.467,23.594,102.212z M24.676,97.863
				c-0.043,0.002-0.086,0.004-0.129,0.008c0.008,0.111,0.016,0.224,0.025,0.337c0.04-0.003,0.08-0.006,0.12-0.009
				C24.687,98.088,24.682,97.975,24.676,97.863z M24.902,96.937c-0.055-0.002-0.11-0.004-0.166-0.006
				c0.022,0.099,0.044,0.198,0.166,0.747C24.902,97.117,24.902,97.026,24.902,96.937z M22.414,107.804c0.031,0,0.062,0,0.094,0
				c0-0.104,0-0.208,0-0.312c-0.032,0-0.063,0-0.094,0C22.414,107.596,22.414,107.699,22.414,107.804z M24.258,99.631
				c-0.044-0.008-0.088-0.016-0.133-0.025c-0.009,0.09-0.024,0.178-0.023,0.267c0,0.009,0.089,0.016,0.136,0.025
				C24.245,99.808,24.251,99.72,24.258,99.631z M24.281,99.227c0.31-0.191,0.353-0.326,0.033-0.533
				C24.302,98.885,24.293,99.021,24.281,99.227z M33.795,61.808c0.06-0.009,0.121-0.019,0.181-0.029
				c-0.019-0.088-0.037-0.177-0.181-0.873C33.795,61.628,33.795,61.719,33.795,61.808z M33.404,62.521
				c0.03,0.042,0.059,0.083,0.089,0.125c0.088-0.064,0.176-0.129,0.264-0.193c-0.032-0.042-0.063-0.085-0.094-0.127
				C33.577,62.39,33.49,62.455,33.404,62.521z M20.643,116.448c0.045,0.004,0.091,0.007,0.136,0.01
				c0.007-0.114,0.014-0.228,0.021-0.341c-0.043-0.004-0.085-0.008-0.128-0.011C20.662,116.221,20.651,116.335,20.643,116.448z
				 M33.231,63.545C33.217,63.391,33.225,63.468,33.231,63.545C33.279,63.484,33.327,63.423,33.231,63.545z M28.348,82.154
				c-0.042-0.002-0.085-0.006-0.127-0.008c-0.006,0.1-0.012,0.201-0.019,0.301c0.042,0.002,0.083,0.005,0.125,0.008
				C28.334,82.354,28.341,82.254,28.348,82.154z M32.551,66.135c0.03,0,0.062,0,0.093,0c0-0.108,0-0.214,0-0.32
				c-0.031,0-0.063-0.001-0.093-0.001C32.551,65.921,32.551,66.026,32.551,66.135z M30.918,71.83c-0.032,0-0.064,0-0.097,0
				c0,0.111,0,0.224,0,0.336c0.033,0,0.065,0,0.097,0C30.918,72.054,30.918,71.941,30.918,71.83z M31.153,70.938
				c-0.046,0.004-0.093,0.007-0.139,0.009c0.008,0.116,0.015,0.233,0.022,0.35c0.045-0.002,0.09-0.005,0.134-0.008
				C31.166,71.173,31.159,71.057,31.153,70.938z M20.245,118.295c0.041-0.004,0.082-0.008,0.123-0.011
				c-0.009-0.11-0.019-0.221-0.029-0.332c-0.04,0.004-0.08,0.007-0.12,0.01C20.228,118.073,20.237,118.185,20.245,118.295z
				 M29.949,75.479c0.031,0,0.061,0,0.092,0c0-0.102,0-0.206,0-0.31c-0.031,0-0.061,0-0.092,0
				C29.949,75.272,29.949,75.377,29.949,75.479z M30.35,73.81c0.044,0.009,0.088,0.018,0.132,0.026
				c0.013-0.09,0.029-0.179,0.032-0.268c0-0.008-0.092-0.018-0.141-0.025C30.365,73.632,30.357,73.721,30.35,73.81z M32.888,64.958
				c-0.046-0.008-0.091-0.015-0.137-0.022c-0.01,0.09-0.02,0.179-0.031,0.269c0.051,0.006,0.101,0.012,0.151,0.018
				C32.877,65.134,32.882,65.046,32.888,64.958z M27.248,86.478c-0.033,0-0.066,0-0.099,0c0,0.114,0,0.229,0,0.345
				c0.033,0,0.066,0,0.099-0.002C27.248,86.706,27.248,86.592,27.248,86.478z M21.671,111.807c-0.068,0.007-0.136,0.013-0.204,0.018
				c0.027,0.143,0.054,0.285,0.204,1.074C21.671,112.096,21.671,111.951,21.671,111.807z M21.78,111.346
				c0.151-0.213,0.224-0.338-0.088-0.383C21.72,111.087,21.743,111.183,21.78,111.346z M21.436,112.659
				c-0.044,0.003-0.088,0.008-0.132,0.011c0.01,0.11,0.02,0.219,0.03,0.328c0.042-0.004,0.084-0.006,0.125-0.01
				C21.452,112.878,21.444,112.769,21.436,112.659z M27.71,84.79c-0.045-0.008-0.09-0.015-0.136-0.021
				c-0.009,0.087-0.021,0.175-0.021,0.264c0,0.007,0.091,0.013,0.139,0.02C27.698,84.965,27.706,84.877,27.71,84.79z M27.681,84.432
				c0.324-0.296,0.403-0.436,0.085-0.594C27.744,83.988,27.728,84.104,27.681,84.432z M28.107,83.035
				c-0.045,0.01-0.091,0.019-0.137,0.027c0.022,0.104,0.045,0.207,0.067,0.311c0.042-0.009,0.084-0.018,0.126-0.025
				C28.144,83.243,28.126,83.139,28.107,83.035z M19.605,121.738c0.022-0.001,0.042-0.002,0.063-0.003c0-0.078,0-0.154,0-0.232
				c-0.027,0.002-0.055,0.002-0.083,0.005C19.593,121.584,19.6,121.661,19.605,121.738z M22.644,106.118c0,0.565,0,0.644,0,0.723
				c0.027-0.002,0.055-0.004,0.082-0.006C22.717,106.757,22.708,106.679,22.644,106.118z M20.053,119.043l0.035,0.078l0.034-0.079
				L20.053,119.043z M26.992,87.435c-0.029,0.068-0.053,0.126-0.078,0.185c0.048,0.002,0.097,0.004,0.146,0.006
				C27.039,87.564,27.018,87.505,26.992,87.435z"/>
			<path fill-rule="evenodd" clip-rule="evenodd" d="M55.562,50.23c0.095-1.645,1.159-2.854,2.009-4.096
				c5.33-7.774,9.833-15.989,13.432-24.698c0.68-1.643,1.229-3.339,1.922-5.234c0.73,2.134,1.389,4.055,2.048,5.978
				c-0.542,0.216-0.694,0.521-0.251,0.986c0.081-0.348,0.156-0.677,0.232-1.005c1.79,4.255,4.538,7.924,7.134,11.688l0.015-0.013
				c-0.601-0.198-1.171-0.209-1.578,0.365c-0.479,0.68-0.098,1.251,0.282,1.809c-0.091,0.025-0.181,0.051-0.041,0.011
				c-0.082,0.12-0.029,0.044,0.022-0.031c0.365,0.008,0.729,0.014,1.095,0.021l-0.022-0.014c-5.228,3.301-10.68,6.201-16.166,9.038
				c-2.946,1.524-5.895,3.043-8.842,4.565c-0.014-0.13-0.028-0.259-0.065-0.593c-0.186,0.22-0.269,0.319-0.415,0.494
				c0.241,0.039,0.37,0.059,0.499,0.081c-0.219,0.141-0.44,0.283-0.66,0.423l0.012,0.02c-0.098-0.077-0.196-0.153-0.306-0.238
				c-0.151,0.188-0.261,0.323-0.37,0.459L55.562,50.23z M57.309,48.965c0.098,0.007,0.196,0.014-0.096-0.006
				c0.129-0.141,0.085-0.094,0.043-0.045c-0.03,0.045-0.06,0.09-0.116,0.173C57.22,49.028,57.264,48.997,57.309,48.965z
				 M67.868,43.349c-0.022,0.019-0.045,0.039-0.068,0.058c0.017-0.025,0.032-0.05,0.048-0.076c0.034-0.031,0.069-0.062,0.059-0.052
				C67.912,43.266,67.891,43.307,67.868,43.349z M78.92,30.328c-0.07-0.032-0.143-0.063-0.301-0.132
				c0.09,0.16,0.123,0.219,0.156,0.278c0.092,0.128,0.182,0.254,0.274,0.382c0.231,0.193,0.466,0.387,0.698,0.581
				c0.05,0.168,0.103,0.337,0.152,0.506c0.088,0.057,0.176,0.115,0.264,0.171c0.062,0.148,0.125,0.298,0.032,0.077
				c0.162,0.184,0.057,0.062-0.052-0.058c-0.051-0.094-0.102-0.187-0.154-0.281c-0.088-0.134-0.174-0.267-0.261-0.399
				c-0.113-0.338-0.232-0.667-0.697-0.582C78.996,30.69,78.957,30.508,78.92,30.328z M79.065,37.069
				c0.111-0.01,0.223-0.021,0.406-0.039c-0.246-0.193-0.35-0.16-0.386,0.061L79.065,37.069z M76.196,26.157
				c0.073,0.024,0.146,0.049,0.279,0.095c-0.07-0.134-0.1-0.19-0.129-0.248c-0.089-0.13-0.178-0.26-0.266-0.39
				c-0.072-0.136-0.146-0.272-0.03-0.055c-0.188-0.164-0.07-0.062,0.045,0.042C76.129,25.786,76.163,25.972,76.196,26.157z
				 M60.311,47.229c-0.15,0.066-0.301,0.132-0.451,0.199c-0.177,0.079-0.354,0.158-0.688,0.308c0.516,0.11,0.625-0.066,0.672-0.326
				c0.15-0.067,0.3-0.134,0.45-0.201l0.057-0.024L60.311,47.229z M64.043,45.345c0.128-0.091,0.256-0.184,0.384-0.275
				c0.194-0.055,0.52,0.106,0.514-0.394c-0.202,0.167-0.35,0.289-0.498,0.411c-0.18,0.04-0.358,0.081-0.538,0.122
				c-0.036,0.065-0.072,0.13-0.174,0.313C63.914,45.419,63.979,45.382,64.043,45.345z M74.119,39.893
				c-0.092,0.017-0.184,0.035-0.314,0.058c0.203,0.174,0.281,0.125,0.301-0.073L74.119,39.893z M58.356,48.3
				c-0.197,0.076-0.604-0.173-0.517,0.405c0.187-0.16,0.342-0.292,0.498-0.424c0.212-0.035,0.479,0.001,0.478-0.508
				C58.602,48.02,58.479,48.16,58.356,48.3z M71.27,41.364c-0.189,0.166-0.38,0.331-0.57,0.495c-0.217-0.007-0.521-0.19-0.527,0.368
				c0.211-0.16,0.362-0.273,0.511-0.386c0.242-0.103,0.56-0.12,0.571-0.49c0.226-0.021,0.588,0.239,0.58-0.351
				C71.617,41.14,71.443,41.252,71.27,41.364z M62.939,45.954c0.18-0.078,0.469-0.052,0.372-0.546
				c-0.164,0.259-0.259,0.409-0.356,0.558c-0.156,0.007-0.312,0.015-0.047,0.001C62.659,46.079,62.799,46.016,62.939,45.954z
				 M78.243,29.269c0.046,0.188-0.171,0.517,0.348,0.504c-0.142-0.192-0.252-0.34-0.362-0.489c-0.142-0.135-0.067-0.516-0.559-0.347
				C77.908,29.074,78.077,29.17,78.243,29.269z M61.344,46.533c-0.199,0.126-0.397,0.254-0.698,0.447
				c0.609,0.145,0.559-0.249,0.684-0.459c0.201-0.037,0.55,0.324,0.582-0.289C61.693,46.347,61.518,46.439,61.344,46.533z
				 M78.195,37.83c-0.473-0.209-0.627-0.185-0.643,0.211C77.729,37.984,77.863,37.938,78.195,37.83z M75.118,23.55
				c-0.056,0.013-0.113,0.025-0.17,0.037c0.028,0.121,0.056,0.242,0.084,0.361c0.053-0.011,0.106-0.023,0.16-0.035
				C75.167,23.792,75.144,23.67,75.118,23.55z M77.154,27.789c0.053-0.048,0.105-0.096,0.158-0.144
				c-0.095-0.103-0.188-0.205-0.282-0.307c-0.044,0.039-0.089,0.078-0.133,0.117C76.984,27.566,77.069,27.677,77.154,27.789z
				 M72.304,40.758c0.054,0.061,0.109,0.121,0.163,0.182c0.09-0.095,0.181-0.19,0.714-0.757
				C72.528,40.612,72.416,40.686,72.304,40.758z M66.772,43.736c0.324,0.116,0.511,0.167,0.409-0.261
				C67.052,43.557,66.945,43.625,66.772,43.736z M68.779,42.907c-0.082-0.089-0.164-0.179-0.248-0.268
				c-0.095,0.099-0.188,0.198-0.285,0.296c0.06,0.066,0.117,0.133,0.176,0.198C68.541,43.058,68.661,42.983,68.779,42.907z
				 M69.176,42.524c0.044,0.06,0.088,0.12,0.132,0.181c0.126-0.094,0.25-0.188,0.376-0.282c-0.029-0.042-0.058-0.085-0.086-0.128
				C69.457,42.372,69.316,42.447,69.176,42.524z M65.88,44.397c0.438-0.178,0.563-0.229,0.713-0.29
				C66.38,43.83,66.259,43.937,65.88,44.397z M80.838,32.898c-0.037,0.203-0.049,0.266-0.06,0.329
				c0.095,0.017,0.19,0.033,0.287,0.05C81.007,33.182,80.951,33.087,80.838,32.898z M75.067,39.057
				c0.388,0.26,0.52,0.25,0.612-0.072C75.514,39.005,75.389,39.02,75.067,39.057z M74.285,39.899
				c0.469-0.225,0.591-0.283,0.738-0.353C74.785,39.259,74.677,39.405,74.285,39.899z M78.282,37.636
				c0.165-0.1,0.263-0.159,0.405-0.245C78.405,37.222,78.314,37.294,78.282,37.636z M79.773,36.548
				c0.024,0.045,0.049,0.092,0.074,0.138c0.083-0.05,0.166-0.099,0.249-0.148c-0.022-0.039-0.044-0.077-0.065-0.117
				C79.945,36.463,79.859,36.505,79.773,36.548z M75.494,24.796c0.043-0.027,0.086-0.054,0.129-0.082
				c-0.061-0.087-0.12-0.174-0.182-0.263c-0.04,0.028-0.081,0.054-0.121,0.081C75.379,24.621,75.437,24.708,75.494,24.796z
				 M76.541,26.328c-0.061,0.437-0.048,0.577,0.257,0.466C76.737,26.686,76.687,26.593,76.541,26.328z M72.946,40.451
				c0.386,0.047,0.519,0.022,0.404-0.275C73.247,40.247,73.156,40.308,72.946,40.451z M77.302,27.88
				C77.549,28.197,77.5,28.135,77.302,27.88C77.418,28.188,77.448,28.265,77.302,27.88z M65.319,44.49
				c0.002,0.027,0.005,0.052,0.007,0.079c0.082-0.006,0.163-0.011,0.244-0.016c-0.003-0.033-0.006-0.066-0.01-0.099
				C65.48,44.467,65.399,44.479,65.319,44.49z M77.1,38.299c0-0.024,0-0.048,0-0.072c-0.07,0-0.142,0-0.214,0
				c0,0.024,0,0.048,0,0.072C76.958,38.299,77.029,38.299,77.1,38.299z M76.121,38.692c0.073,0.031,0.132,0.056,0.192,0.082
				c0.004-0.051,0.007-0.104,0.01-0.154C76.262,38.642,76.198,38.664,76.121,38.692z"/>
			<path fill-rule="evenodd" clip-rule="evenodd" d="M57.291,45.066c-0.172,0.546-0.445,0.193-0.625,0.039
				c-4.146-3.532-8.724-6.357-13.746-8.466c-0.216-0.091-0.383-0.297-0.532-0.417c-0.096-0.518,0.087-0.84,0.429-1.095l-0.015-0.019
				c0.007,1.341,0.982,1.648,1.945,1.859c0.797-1.012,0.942-2.008-0.174-2.899c0.067-0.079,0.134-0.158,0.201-0.237
				c0.285-0.114,0.489-0.282,0.418-0.633c0.093-0.056,0.185-0.111,0.278-0.167c0.128-0.163,0.256-0.325,0.385-0.488
				c0.183-0.114,0.458-0.166,0.276-0.669c-0.12,0.321-0.189,0.504-0.258,0.688c-0.25,0.017-0.462,0.082-0.498,0.378
				c-0.056,0.091-0.112,0.183-0.168,0.274c-0.138,0.212-0.277,0.424-0.415,0.636c-0.08,0.065-0.16,0.132-0.24,0.198
				c-0.354,0.067-0.71,0.135-1.066,0.202l0.013,0.014c3.153-3.547,5.455-7.684,7.94-12.138c0.075-1.559,1.498-3.228,1.76-5.288
				c1.997,7.148,6.108,13.173,9.656,19.52c-1.544,3.104-3.428,6-5.583,8.724c-0.002-0.206,0.007-0.42-0.43-0.427
				C57.043,44.838,57.167,44.953,57.291,45.066z M54.321,42.42c-0.058-0.049-0.115-0.098-0.479-0.406
				c0.285,0.384,0.331,0.446,0.376,0.507c0.059,0.032,0.118,0.063,0.298,0.161C54.392,42.514,54.356,42.467,54.321,42.42z
				 M47.996,29.295c-0.059,0.162-0.118,0.323-0.177,0.484c-0.322-0.023-0.414,0.132-0.323,0.58c0.144-0.277,0.227-0.436,0.309-0.596
				c0.08-0.139,0.161-0.279,0.241-0.418c0.03-0.045,0.06-0.09,0.122-0.182C48.081,29.23,48.038,29.262,47.996,29.295z M54.99,42.826
				c-0.073-0.023-0.146-0.047-0.287-0.094c0.084,0.127,0.118,0.178,0.152,0.23c0.125,0.099,0.251,0.197,0.376,0.294
				c0.034-0.045,0.067-0.089,0.101-0.134C55.219,43.023,55.104,42.924,54.99,42.826z M52.537,41.176
				c0.103,0.347,0.346,0.459,0.685,0.412c0.146,0.187,0.125,0.61,0.686,0.355c-0.294-0.14-0.498-0.238-0.706-0.335
				c-0.148-0.27-0.346-0.456-0.682-0.413c-0.104-0.189-0.076-0.524-0.617-0.375C52.178,40.975,52.357,41.076,52.537,41.176z
				 M49.758,39.227c-0.151-0.119-0.301-0.234-0.544-0.424c0.075,0.542,0.342,0.42,0.562,0.404c0.076,0.24,0.066,0.601,0.578,0.312
				C50.119,39.403,49.939,39.313,49.758,39.227z M49.931,26.035c0.208-0.103,0.445-0.188,0.241-0.656
				c-0.104,0.312-0.165,0.493-0.224,0.675c-0.108,0.159-0.217,0.317-0.039,0.057C49.822,26.408,49.877,26.222,49.931,26.035z
				 M50.868,24.635c-0.231,0.08-0.458,0.167-0.374,0.686c0.171-0.333,0.267-0.518,0.36-0.705c0.052-0.158,0.104-0.315,0.013-0.042
				C50.868,24.29,50.868,24.463,50.868,24.635z M48.625,28.186c0.175-0.114,0.55-0.067,0.358-0.535
				c-0.131,0.212-0.237,0.382-0.341,0.554c-0.07,0.217-0.5,0.304-0.156,0.763C48.544,28.637,48.584,28.411,48.625,28.186z
				 M51.136,23.54c0.35-0.067,0.358-0.199,0.199-0.464C51.261,23.247,51.211,23.364,51.136,23.54z M48.341,38.399
				c0.138,0.424,0.266,0.471,0.51,0.258C48.71,38.586,48.601,38.531,48.341,38.399z M46.708,31.303
				c-0.241,0.004-0.299,0.113-0.215,0.327C46.735,31.627,46.804,31.524,46.708,31.303z M46.942,37.723
				c-0.043,0.063-0.086,0.125-0.129,0.188c0.122,0.064,0.244,0.129,0.365,0.194c0.027-0.042,0.053-0.084,0.08-0.127
				C47.153,37.894,47.048,37.808,46.942,37.723z M55.752,43.409c-0.06,0.054-0.121,0.108-0.181,0.162
				c0.099,0.087,0.197,0.174,0.296,0.26c0.04-0.037,0.081-0.074,0.121-0.111C55.909,43.615,55.831,43.512,55.752,43.409z
				 M46.313,37.68c0.041-0.047,0.083-0.094,0.125-0.142c-0.082-0.064-0.164-0.127-0.246-0.19c-0.03,0.035-0.061,0.069-0.092,0.105
				C46.171,37.529,46.242,37.604,46.313,37.68z M45.695,37.241c0-0.036,0-0.073,0-0.109c-0.107,0-0.215,0-0.322,0
				c0,0.036,0,0.073,0,0.109C45.481,37.241,45.588,37.241,45.695,37.241z M51.334,40.331c-0.007,0.034-0.014,0.068-0.02,0.104
				c0.079,0.015,0.159,0.032,0.239,0.047c0.007-0.034,0.013-0.069,0.02-0.104C51.493,40.363,51.414,40.347,51.334,40.331z
				 M47.027,30.884C47.009,30.729,47.018,30.806,47.027,30.884C47.124,30.869,47.22,30.854,47.027,30.884z M49.543,27.054
				c-0.319-0.118-0.366,0.006-0.35,0.316C49.335,27.241,49.423,27.163,49.543,27.054z M50.458,39.932
				C50.872,39.912,50.796,39.916,50.458,39.932C50.792,40.014,50.869,40.033,50.458,39.932z M56.242,43.929
				c-0.024,0.343,0.054,0.444,0.369,0.352C56.483,44.16,56.394,44.074,56.242,43.929z M47.976,38.27
				C47.834,38.309,47.905,38.29,47.976,38.27C47.914,38.236,47.853,38.204,47.976,38.27z"/>
			<path fill-rule="evenodd" clip-rule="evenodd" d="M107.584,124.086c-0.738,0.484-1.445,0.951-2.303,1.515
				c-0.699-2.872-1.393-5.602-2.025-8.345c-3.022-13.103-6.093-26.194-9.004-39.321c-1.109-5.005-2.8-9.999-1.541-15.265
				c0.088-0.373,0.102-0.762,0.167-1.281C95.026,65.691,107.151,117.462,107.584,124.086z"/>
			<path fill-rule="evenodd" clip-rule="evenodd" d="M35.03,61.729c1.725,6.477-0.534,12.634-1.89,18.878
				c-1.674,7.703-3.422,15.393-5.188,23.078c-1.573,6.847-3.211,13.681-4.829,20.518c-0.097,0.413-0.263,0.809-0.446,1.357
				c-0.827-0.53-1.562-1.003-2.244-1.441C20.361,119.676,33.14,65.277,35.03,61.729z"/>
			<path fill-rule="evenodd" clip-rule="evenodd" d="M85.574,26.312c-1.629-0.274-2.895-1.357-4.367-1.988
				c-1.633-0.702-3.301-1.167-5.224-1.423c-0.89-2.523-1.997-5.069-2.625-7.728c-0.263-1.119,0.541-2.467,0.765-3.728
				c0.413-2.316,0.756-4.646,1.166-7.209c1.791,2.718,3.976,4.842,6.114,7.035c3.402,3.487,3.932,8.394,5.661,12.706
				c0.12,0.299,0.242,0.603,0.313,0.915c0.123,0.548,0.403,1.173-0.169,1.597c-0.559,0.416-1.147,0.238-1.659-0.196
				c0.616,0.085,1.152-0.026,1.46-0.635c0.361-0.71-0.063-1.221-0.439-1.721c-1.183-0.174-1.572,0.607-1.872,1.496
				c-0.123-0.095-0.245-0.189-0.048-0.036c-0.236-0.067-0.085-0.024,0.066,0.019C85.003,25.715,85.288,26.013,85.574,26.312z
				 M82.076,24.158c0.038,0.026,0.076,0.053,0.138,0.096c-0.038-0.066-0.06-0.107-0.084-0.149c-0.082-0.056-0.162-0.111,0.262,0.177
				C81.905,24.09,81.99,24.125,82.076,24.158z M85.973,22.424l-0.028-0.037l0.045,0.019c0.02,0.064,0.037,0.129,0.011,0.038
				C86.079,22.499,86.025,22.462,85.973,22.424z M79.662,23.119c0.061,0.042,0.122,0.084,0.381,0.264
				c-0.182-0.257-0.225-0.317-0.267-0.377c-0.072-0.041-0.146-0.082-0.454-0.256C79.557,23.005,79.61,23.062,79.662,23.119z
				 M82.551,13.322c0.014,0.165,0.026,0.331,0.051,0.618c0.206-0.342,0.161-0.499-0.071-0.601c-0.051-0.187,0.137-0.525-0.41-0.479
				C82.299,13.053,82.426,13.187,82.551,13.322z M85.083,19.978c-0.048,0.02-0.097,0.041-0.145,0.061
				c0.143,0.333,0.282,0.666,0.425,0.999c0.054-0.023,0.108-0.046,0.164-0.07C85.379,20.638,85.23,20.308,85.083,19.978z
				 M76.466,22.439c-0.007-0.046-0.012-0.094-0.018-0.141c-0.089,0.011-0.18,0.021-0.269,0.031c0.005,0.047,0.01,0.094,0.016,0.141
				C76.285,22.46,76.375,22.45,76.466,22.439z M84.462,18.308c-0.058,0.051-0.115,0.102-0.172,0.153
				c0.066,0.13,0.132,0.262,0.198,0.393c0.073-0.066,0.146-0.133,0.219-0.2C84.625,18.539,84.544,18.424,84.462,18.308z
				 M85.698,21.92c0.147-0.3,0.196-0.467-0.211-0.405C85.555,21.645,85.61,21.751,85.698,21.92z M83.506,24.603
				c-0.046,0.07-0.091,0.141-0.136,0.211c0.12,0.064,0.241,0.128,0.361,0.191c0.03-0.045,0.062-0.091,0.091-0.136
				C83.717,24.781,83.611,24.691,83.506,24.603z M83.041,14.721c0.166-0.246,0.132-0.363-0.197-0.394
				C82.919,14.477,82.973,14.583,83.041,14.721z M83.515,15.693c-0.175,0.394-0.141,0.526,0.221,0.467
				C83.674,16.029,83.623,15.925,83.515,15.693z M83.943,16.48c-0.231,0.459-0.234,0.618,0.134,0.68
				C84.041,16.978,84.014,16.838,83.943,16.48z M81.932,12.237c0.045-0.004,0.089-0.008,0.132-0.012
				c-0.01-0.105-0.02-0.21-0.028-0.316c-0.045,0.004-0.089,0.008-0.133,0.012C81.912,12.027,81.922,12.132,81.932,12.237z
				 M84.826,19.071c-0.042,0.009-0.083,0.018-0.125,0.027c0.023,0.099,0.045,0.198,0.067,0.296c0.039-0.009,0.078-0.018,0.118-0.025
				C84.866,19.27,84.847,19.17,84.826,19.071z M84.146,17.767c0.034-0.011,0.067-0.023,0.101-0.035
				c-0.026-0.08-0.052-0.16-0.078-0.24c-0.036,0.013-0.072,0.026-0.107,0.038C84.089,17.61,84.118,17.688,84.146,17.767z
				 M77.801,22.464c0.004,0.045,0.008,0.091,0.012,0.136c0.11-0.011,0.219-0.023,0.329-0.035c-0.004-0.042-0.008-0.083-0.012-0.125
				C78.021,22.448,77.91,22.456,77.801,22.464z M78.707,22.613c-0.008,0.071-0.017,0.141-0.025,0.211c0.115,0,0.229,0,0.973,0
				C78.929,22.663,78.817,22.638,78.707,22.613z M81.319,23.875c0.117-0.248,0.028-0.325-0.198-0.305
				c-0.014,0.002-0.025,0.047-0.046,0.088C81.148,23.723,81.226,23.791,81.319,23.875z M80.564,23.441c0-0.03,0-0.059,0-0.088
				c-0.085,0-0.17,0-0.255,0c0,0.03,0,0.059,0,0.088C80.395,23.441,80.479,23.441,80.564,23.441z M86.33,23.101
				c-0.07,0.037-0.141,0.073-0.212,0.11c0.065,0.087,0.13,0.175,0.472,0.644C86.399,23.303,86.363,23.203,86.33,23.101z
				 M82.652,24.438C82.805,24.41,82.729,24.425,82.652,24.438C82.717,24.474,82.781,24.509,82.652,24.438z M83.251,14.743
				c0,0.513,0,0.595,0,0.677c0.03-0.002,0.06-0.004,0.089-0.006C83.329,15.332,83.318,15.251,83.251,14.743z"/>
			<path fill-rule="evenodd" clip-rule="evenodd" d="M53.145,11.415c3.375-0.607,6.481-1.483,9.87-1.445c0,8.351,0,16.649,0,25.22
				C58.651,27.627,53.925,20.458,53.145,11.415z"/>
			<path fill-rule="evenodd" clip-rule="evenodd" d="M63.642,34.949c0-8.475,0-16.662,0-24.943c3.354-0.246,6.501,0.391,9.671,1.538
				C71.551,19.925,67.817,27.392,63.642,34.949z"/>
			<path fill-rule="evenodd" clip-rule="evenodd" d="M39.377,24.991c1.731-3.598,3.462-7.196,5.192-10.793
				c0.019,0.134,0.037,0.268,0.072,0.524c0.135-0.192,0.21-0.299,0.307-0.438c-0.192-0.033-0.295-0.05-0.398-0.068
				c0.063-0.804,0.225-1.566,0.916-2.095l0.003-0.019c1.901-2.202,4.413-3.823,5.994-6.328c0.143-0.227,0.32-0.434,0.653-0.878
				c0.192,3.371,0.44,6.464,0.524,9.561c0.086,3.131-1.225,5.89-2.723,8.717c-3.83,0.438-7.146,2.767-10.802,3.927
				c-0.555-0.595-0.264-1.001-0.032-1.489c0.922,1.449,1.708,0.759,2.499-0.14c-0.461-0.362-0.921-0.722-1.395-1.094
				c-0.291,0.219-0.545,0.412-0.802,0.604L39.377,24.991z M42.041,20.756c0.038-0.067,0.077-0.134,0.2-0.346
				c-0.206,0.131-0.27,0.172-0.334,0.213c-0.028,0.072-0.054,0.144-0.112,0.297C41.935,20.826,41.987,20.791,42.041,20.756z
				 M42.917,24.866c0.075-0.062,0.15-0.124,0.61-0.503c-0.561,0.253-0.664,0.3-0.766,0.347c-0.042,0.071-0.084,0.143-0.207,0.349
				C42.768,24.945,42.843,24.905,42.917,24.866z M41.154,22.691c-0.217,0.091-0.487,0.14-0.368,0.638
				c0.157-0.289,0.256-0.473,0.354-0.658c0.008-0.197,0.417-0.31,0.053-0.633C41.178,22.292,41.166,22.491,41.154,22.691z
				 M43.777,17.294c-0.15,0.111-0.299,0.222-0.052,0.038c-0.178,0.254-0.071,0.102,0.033-0.052c0.05-0.202,0.366-0.383,0.034-0.64
				C43.52,16.867,43.645,17.081,43.777,17.294z M44.97,23.807c0.306,0.169,0.46,0.185,0.465-0.234
				C45.264,23.658,45.145,23.718,44.97,23.807z M40.431,23.941c0.068,0.01,0.135,0.02,0.202,0.029
				c0.006-0.111,0.013-0.222,0.047-0.839C40.498,23.725,40.464,23.833,40.431,23.941z M42.857,18.45
				c0.41,0.12,0.428-0.059,0.35-0.444C43.056,18.197,42.965,18.312,42.857,18.45z M44.707,24.064
				c-0.056-0.047-0.111-0.095-0.166-0.143c-0.08,0.092-0.16,0.185-0.24,0.278c0.036,0.033,0.071,0.067,0.106,0.102
				C44.506,24.222,44.606,24.143,44.707,24.064z M44.054,16.22c0.364-0.15,0.381-0.28,0.099-0.525
				C44.116,15.894,44.091,16.022,44.054,16.22z M42.519,19.19c0.057,0.044,0.115,0.088,0.173,0.132
				c0.053-0.095,0.106-0.19,0.462-0.83C42.664,19.031,42.591,19.111,42.519,19.19z M48.991,22.829
				c-0.404-0.271-0.564-0.307-0.715,0.042C48.48,22.859,48.627,22.85,48.991,22.829z M49.183,22.464
				c0.004,0.042,0.008,0.085,0.012,0.127c0.114-0.011,0.229-0.022,0.342-0.033c-0.004-0.042-0.007-0.084-0.012-0.125
				C49.411,22.443,49.296,22.454,49.183,22.464z M45.158,13.443c-0.043,0.003-0.085,0.008-0.127,0.011
				c0.008,0.109,0.017,0.219,0.026,0.328c0.043-0.004,0.086-0.007,0.129-0.012C45.177,13.662,45.167,13.553,45.158,13.443z
				 M46.788,23.255c0.035,0.037,0.071,0.074,0.106,0.111c0.073-0.067,0.146-0.135,0.218-0.203c-0.033-0.038-0.067-0.073-0.101-0.11
				C46.936,23.122,46.861,23.188,46.788,23.255z M47.614,22.908c-0.002,0.035-0.003,0.069-0.005,0.103
				c0.112,0.007,0.224,0.013,0.337,0.021c0.001-0.041,0.002-0.083,0.004-0.124C47.838,22.908,47.726,22.908,47.614,22.908z
				 M45.941,23.562c0.008,0.019,0.017,0.039,0.025,0.058c0.073-0.029,0.146-0.058,0.219-0.087c-0.011-0.024-0.022-0.048-0.032-0.073
				C46.082,23.493,46.012,23.528,45.941,23.562z M45.273,13.105c0.027,0.001,0.053,0.002,0.079,0.004c0-0.07,0-0.139,0-0.208
				c-0.021,0-0.042-0.001-0.062-0.002C45.285,12.968,45.279,13.037,45.273,13.105z M42.317,19.886
				c-0.03,0.062-0.054,0.112-0.078,0.161c0.043,0.003,0.086,0.007,0.128,0.01C42.352,20.004,42.337,19.953,42.317,19.886z
				 M41.676,22.223c0-0.64,0-0.724,0-0.808c-0.031,0.002-0.061,0.003-0.092,0.005C41.594,21.504,41.603,21.588,41.676,22.223z
				 M42.341,25.152c0-0.025,0-0.051,0-0.077c-0.083,0-0.165,0-0.247,0c0,0.025,0,0.051,0,0.077
				C42.176,25.152,42.259,25.152,42.341,25.152z M43.826,24.468C43.681,24.502,43.753,24.485,43.826,24.468
				C43.764,24.437,43.703,24.407,43.826,24.468z M44.504,15.211c-0.025-0.002-0.049-0.003-0.073-0.006
				c-0.009,0.083-0.017,0.167-0.026,0.25c0.029,0.002,0.057,0.005,0.086,0.006C44.496,15.378,44.5,15.295,44.504,15.211z"/>
			<path fill-rule="evenodd" clip-rule="evenodd" d="M53.243,10.686c-0.085-1.309-0.164-2.514-0.25-3.855
				c7.054-1.629,14.013-2.09,21.029-0.014c0.092,1.354-0.07,2.604-0.561,3.958C66.762,8.35,60.066,9.017,53.243,10.686z"/>
			<path fill-rule="evenodd" clip-rule="evenodd" d="M67.646,117.061c0.495-0.041,0.991-0.084,1.486-0.127
				c0.495-0.044,0.989-0.089,1.484-0.136c0.493-0.047,0.987-0.095,1.48-0.146c0.493-0.05,0.985-0.102,1.479-0.156
				c0.491-0.054,0.983-0.109,1.475-0.168s0.981-0.12,1.472-0.184s0.979-0.13,1.469-0.199c0.488-0.068,0.977-0.141,1.465-0.216
				s0.976-0.153,1.462-0.235c0.487-0.081,0.973-0.166,1.459-0.255c0.485-0.089,0.971-0.181,1.454-0.277
				c0.485-0.096,0.969-0.196,1.452-0.301c0.483-0.104,0.966-0.212,1.447-0.325c0.482-0.112,0.964-0.23,1.444-0.352
				c0.481-0.122,0.962-0.249,1.44-0.38c0.48-0.132,0.96-0.268,1.437-0.409c0.479-0.142,0.957-0.288,1.434-0.44
				c0.02-0.006,0.229-0.069,0.229-0.073c-0.235-1.179-0.448-2.252-0.684-3.435c-4.583,2.293-9.535,2.805-14.41,4.068
				c-0.099,0.154-0.265,0.407-0.34,0.521c-2.487,0.834-4.864-0.142-7.233,0.201c-1.236,1.22-1.919,1.224-3.12,0.112
				c-0.551,0-1.087,0-1.654,0c-0.147,0.184-0.294,0.368-0.441,0.553c-0.074,0.093-0.148,0.187-0.223,0.279
				c-0.04,0.052-0.095,0.14-0.154,0.17c-0.015,0.008-0.03,0.015-0.044,0.023c-0.027,0.018-0.051,0.031-0.082,0.043
				c-0.035,0.013-0.072,0.042-0.109,0.048c-0.029,0.005-0.048,0.002-0.074,0.019c-0.028,0.017-0.053,0.03-0.083,0.043
				c-0.024,0.011-0.053,0.02-0.078,0.031c-0.031,0.016-0.061,0.045-0.093,0.06c-0.07,0.031-0.145,0.057-0.22,0.081
				c-0.037,0.012-0.073,0.021-0.108,0.035c-0.022,0.01-0.036,0.007-0.059,0.012c-0.026,0.005-0.042,0.019-0.066,0.027
				c-0.062,0.023-0.125,0.022-0.188,0.039c-0.032,0.008-0.062,0.016-0.094,0.023c-0.035,0.01-0.071,0-0.106,0.008
				c-0.002,0-0.031,0.011-0.035,0.012c-0.013,0.005-0.022,0.006-0.035,0.012c-0.008,0.004-0.024,0.014-0.031,0.016
				c-0.016,0.005-0.029,0-0.044,0.003c-0.021,0.005-0.042,0.025-0.061,0.036c-0.037,0.021-0.076,0.035-0.111,0.059
				c-0.032,0.021-0.038,0.031-0.078,0.031c-0.029,0-0.065-0.006-0.094-0.001c-0.035,0.006-0.057,0.017-0.094,0.017
				c-0.015,0-0.033-0.002-0.047,0c-0.021,0.003-0.026,0.012-0.045,0.017c-0.015,0.003-0.033-0.003-0.048-0.001
				c-0.008,0.001-0.012,0.004-0.017,0.006c-1.323-0.478-3.443,0.719-3.931-1.738c-3.969-0.806-8.037-0.579-11.978-0.872
				c-0.439-0.764-9.573-3.726-10.609-3.446c-0.159,0.896-0.33,1.862-0.519,2.928c13.534,4.227,28.211,4.255,27.583,4.376
				c-0.087,0.018,0.181,0.011,0.268-0.007c0.078-0.015,0.155-0.012,0.235-0.012c0.114,0,0.229,0,0.343,0
				c0.063,0,0.115,0.015,0.177,0.027c0.063,0.014,0.118,0.02,0.183,0.02L67.646,117.061z"/>
			<path fill-rule="evenodd" clip-rule="evenodd" d="M46.689,105.386c-0.211,2.115-0.416,4.159-0.623,6.224
				c-3.454-0.646-6.771-1.568-9.977-3.023c0.069-2.226,0.12-4.342,1.096-6.427C40.193,103.782,43.384,104.541,46.689,105.386z
				 M43.492,105.014c0.025,0.016,0.05,0.032,0.076,0.05c-0.032-0.011-0.064-0.021-0.096-0.032c-0.025-0.018-0.05-0.034-0.075-0.05
				C43.428,104.991,43.459,105.001,43.492,105.014z M40.037,109.545c0.018,0.008,0.036,0.017,0.054,0.024
				c-0.024-0.002-0.048-0.004-0.072-0.004c-0.035-0.062-0.07-0.124-0.02-0.036C39.901,109.491,39.969,109.518,40.037,109.545z
				 M40.708,103.986c-0.028,0.106-0.044,0.164-0.06,0.222c0.138,0.198,0.296,0.265,0.575,0.053
				C41.033,104.159,40.877,104.075,40.708,103.986z M43.117,110.426c0.196,0.274,0.335,0.372,0.498,0
				C43.451,110.426,43.312,110.426,43.117,110.426z M41.223,110.069c-0.255-0.39-0.377-0.566-0.548-0.166
				C40.796,109.941,40.913,109.976,41.223,110.069z M36.995,108.43c-0.295-0.439-0.427-0.548-0.649-0.22
				C36.513,108.267,36.646,108.311,36.995,108.43z M42.806,105.135c-0.134-0.481-0.206-0.636-0.478-0.4
				C42.433,104.822,42.527,104.899,42.806,105.135z M39.587,103.641c-0.333-0.131-0.458-0.181-0.618-0.242
				C38.964,103.75,39.107,103.771,39.587,103.641z M41.508,110.033c0,0.035,0,0.071,0,0.107c0.112,0,0.225,0,0.337,0
				c0-0.036,0-0.072,0-0.107C41.733,110.033,41.62,110.033,41.508,110.033z M42.719,110.39c0.009-0.045,0.018-0.089,0.028-0.133
				c-0.086-0.013-0.171-0.032-0.258-0.034c-0.008-0.001-0.019,0.094-0.028,0.146C42.547,110.376,42.633,110.382,42.719,110.39z
				 M37.549,102.861c0.026-0.043,0.052-0.085,0.078-0.127c-0.074-0.041-0.146-0.087-0.224-0.115c-0.01-0.004-0.055,0.091-0.083,0.14
				C37.396,102.792,37.473,102.826,37.549,102.861z M39.406,109.285c-0.173-0.164-0.293-0.297-0.417,0.061
				C39.146,109.323,39.253,109.307,39.406,109.285z M39.694,103.824C39.846,103.793,39.77,103.809,39.694,103.824
				C39.759,103.856,39.824,103.889,39.694,103.824z M41.05,104.513c0.632,0,0.709,0,0.788,0c-0.002-0.028-0.004-0.056-0.006-0.085
				C41.754,104.437,41.678,104.445,41.05,104.513z"/>
			<path fill-rule="evenodd" clip-rule="evenodd" d="M80.347,106.724c-0.126-0.104-0.252-0.21-0.568-0.475
				c4.073-0.63,7.837-1.54,11.201-3.886c0.989,1.846,1.009,3.853,1.113,5.958c-3.435,2.194-7.499,2.64-11.546,3.638
				c0.765-1.106,1.409-2.039,2.102-3.043c-0.772-0.732-1.516-1.437-2.259-2.141c0.133-0.034,0.268-0.068,0.4-0.103
				c-0.021-0.053-0.039-0.107-0.06-0.16C80.603,106.583,80.475,106.652,80.347,106.724z M90.64,103.002
				c-0.034,0.068-0.068,0.138-0.147,0.296c0.164-0.071,0.237-0.103,0.31-0.134c0.042-0.074,0.083-0.148,0.197-0.353
				C90.791,102.922,90.716,102.962,90.64,103.002z M84.928,110.447c0.194-0.023,0.389-0.047,0.644-0.077
				c-0.342-0.332-0.473-0.07-0.629,0.095c-0.196-0.015-0.393-0.031-0.766-0.058C84.581,110.765,84.754,110.604,84.928,110.447z
				 M90.205,108.718c0.339,0.179,0.382,0.041,0.37-0.273C90.432,108.551,90.337,108.62,90.205,108.718z M91.524,108.147
				c-0.343-0.184-0.405-0.05-0.403,0.289C91.28,108.322,91.385,108.246,91.524,108.147z M83.805,110.82
				c0.008-0.046,0.017-0.092,0.025-0.136c-0.095-0.011-0.188-0.025-0.281-0.026c-0.008,0-0.016,0.093-0.021,0.143
				C83.619,110.808,83.713,110.814,83.805,110.82z M82.479,110.896c0.233,0.26,0.379,0.26,0.572-0.076
				C82.822,110.85,82.679,110.868,82.479,110.896z M82.046,111.215c-0.009-0.047-0.018-0.094-0.028-0.141
				c-0.102,0.024-0.203,0.046-0.305,0.068c0.009,0.043,0.017,0.086,0.027,0.128C81.842,111.252,81.944,111.232,82.046,111.215z"/>
			<path fill-rule="evenodd" clip-rule="evenodd" d="M55.768,5.375c-0.765,0.181-1.529,0.363-2.287,0.542
				c-0.554-0.587-0.683-1.274-0.513-2.221c7.05-2.748,14.188-2.778,21.512-0.277c-0.067,0.587-0.134,1.139-0.206,1.759
				c-0.236,0.067-0.46,0.13-0.807,0.229c0.24,0.151,0.41,0.257,0.58,0.363c-6.074-1.548-12.18-1.255-18.297-0.384
				c0.043-0.144,0.162-0.372,0.116-0.413c-0.161-0.144-0.362-0.152-0.502,0.168C55.499,5.221,55.634,5.299,55.768,5.375z
				 M56.735,5.112c0.943-0.215,1.36-0.311,1.778-0.407C58.002,4.424,57.559,4.436,56.735,5.112z M71.542,5.119
				c0.62,0.125,1.024,0.207,1.427,0.289C72.601,5.15,72.268,4.704,71.542,5.119z M63.03,4.226c0.431,0.243,0.595,0.277,0.506-0.126
				C63.423,4.128,63.312,4.155,63.03,4.226z M62.329,4.289c0.148,0.252,0.272,0.255,0.393-0.021
				C62.577,4.077,62.453,4.077,62.329,4.289z M66.247,4.394c-0.182-0.322-0.307-0.333-0.465,0
				C65.948,4.394,66.072,4.394,66.247,4.394z M70.064,4.639c0.105,0.247,0.231,0.386,0.536,0.162
				C70.499,4.54,70.364,4.423,70.064,4.639z M64.605,4.089c-0.312,0.063-0.433,0.086-0.583,0.116
				C64.179,4.483,64.3,4.495,64.605,4.089z M65.342,4.35c0-0.049,0-0.099-0.001-0.148c-0.121,0-0.242,0-0.363,0
				c0.001,0.05,0.002,0.099,0.002,0.148C65.102,4.35,65.222,4.35,65.342,4.35z M56.887,4.748c-0.339,0.011-0.583-0.164-0.65,0.227
				C56.438,5.193,56.582,5.053,56.887,4.748z M61.492,4.289c-0.002,0.069-0.003,0.137-0.005,0.205c0.135-0.021,0.27-0.04,0.404-0.06
				c-0.002-0.049-0.004-0.097-0.006-0.145C61.753,4.289,61.622,4.289,61.492,4.289z M59.405,4.33
				c-0.351,0.093-0.479,0.126-0.64,0.169C58.955,4.805,59.084,4.743,59.405,4.33z M69.718,4.446
				c-0.343,0.227-0.07,0.518-0.021,0.002C69.506,4.471,69.344,4.489,69.718,4.446z M69.457,4.658
				c-0.723-0.32-0.858-0.506-1.084-0.129C68.56,4.551,68.711,4.568,69.457,4.658z M71.305,4.923
				c-0.006-0.068-0.012-0.137-0.019-0.206c-0.116,0.028-0.232,0.056-0.864,0.206C71.073,4.923,71.189,4.923,71.305,4.923z
				 M53.723,5.413c-0.001,0.037-0.001,0.073-0.001,0.109c0.134,0,0.266,0,0.4,0c0-0.036,0-0.073,0-0.109
				C53.989,5.413,53.856,5.413,53.723,5.413z M54.584,5.196c0.017,0.068,0.033,0.135,0.05,0.203
				c0.139-0.027,0.277-0.055,1.014-0.203C54.885,5.196,54.735,5.196,54.584,5.196z M66.734,4.311
				c-0.001,0.045-0.003,0.089-0.003,0.135c0.13,0,0.26,0,0.392,0c0-0.039,0.003-0.078,0.004-0.117
				C66.995,4.323,66.865,4.316,66.734,4.311z M60.946,4.479c-0.006-0.066-0.011-0.133-0.017-0.2c-0.114,0.027-0.229,0.055-0.846,0.2
				C60.718,4.479,60.832,4.479,60.946,4.479z M59.75,4.33c0.005,0.05,0.008,0.099,0.012,0.149c0.138-0.011,0.276-0.022,0.415-0.034
				c-0.003-0.05-0.007-0.102-0.011-0.152C60.027,4.305,59.889,4.318,59.75,4.33z M67.935,4.468
				c-0.003-0.047-0.007-0.096-0.011-0.144c-0.137,0.009-0.273,0.018-0.41,0.027c0.003,0.052,0.006,0.104,0.01,0.156
				C67.66,4.495,67.798,4.481,67.935,4.468z"/>
			<path fill-rule="evenodd" clip-rule="evenodd" d="M58.398,112.522c-0.655,0-1.31,0-1.964,0c-0.006,0.069-0.012,0.138-0.018,0.205
				c0.628,0.064,1.257,0.129,1.886,0.192c-2.481,0.157-4.923,0.08-7.352-0.414c-0.049-0.473,0.551,0.04,0.404-0.511
				c-0.104-0.046-0.324-0.146-0.524-0.238c0-0.455,0-0.847,0-1.255c0.997-0.782,1.351-1.605,0.216-2.378
				c-0.45-0.742,0.437-1.233,0.07-1.979c2.416,0.25,4.782,0.496,7.282,0.756C58.398,108.695,58.398,110.568,58.398,112.522z
				 M56.678,109.647c-0.142-0.559-0.466-1.033-1.127-1.017c-0.701,0.018-1.135,0.492-1.097,1.183
				c0.036,0.638,0.498,1.048,1.148,1.011C56.241,110.789,56.599,110.355,56.678,109.647z M54.847,106.895
				c0,0.065-0.001,0.131-0.001,0.196c0.354,0,0.707,0,1.06,0c-0.001-0.049-0.001-0.098-0.002-0.146
				C55.552,106.927,55.2,106.911,54.847,106.895z M56.911,107.193c-0.073-0.294-0.243-0.254-0.446-0.143
				C56.543,107.315,56.681,107.37,56.911,107.193z M52.61,112.336c-0.414-0.32-0.56-0.356-0.686-0.033
				C52.095,112.311,52.234,112.317,52.61,112.336z M55.974,112.712c-0.135-0.382-0.245-0.44-0.411-0.05
				C55.695,112.678,55.808,112.691,55.974,112.712z M52.116,106.615c0.002,0.028,0.004,0.06,0.007,0.089
				c0.08-0.005,0.161-0.009,0.242-0.014c-0.003-0.031-0.005-0.063-0.008-0.098C52.277,106.601,52.197,106.606,52.116,106.615z
				 M53.286,106.842C53.142,106.896,53.214,106.869,53.286,106.842C53.21,106.821,53.134,106.798,53.286,106.842z M53.856,106.779
				c-0.007,0.046-0.015,0.092-0.024,0.138c0.09,0.01,0.179,0.023,0.267,0.022c0.008,0,0.015-0.093,0.022-0.143
				C54.034,106.791,53.945,106.785,53.856,106.779z M57.404,107.226c0,0.029,0,0.06,0,0.089c0.101,0,0.203,0,0.306,0
				c0-0.029,0-0.06,0-0.089C57.607,107.226,57.506,107.226,57.404,107.226z M54.626,112.424c0.007,0.042,0.013,0.086,0.02,0.13
				c0.115-0.019,0.229-0.039,0.344-0.059c-0.006-0.039-0.012-0.079-0.019-0.119C54.856,112.392,54.741,112.407,54.626,112.424z
				 M54.154,112.506c-0.006-0.041-0.013-0.082-0.019-0.124c-0.105,0.018-0.209,0.036-0.312,0.055
				c0.005,0.037,0.012,0.074,0.018,0.111C53.944,112.534,54.05,112.52,54.154,112.506z M53.029,112.279
				c0-0.004,0.001-0.008,0.002-0.012c-0.054-0.006-0.108-0.014-0.162-0.021c-0.001,0.005-0.001,0.009-0.001,0.013
				C52.921,112.266,52.975,112.272,53.029,112.279z"/>
			<path fill-rule="evenodd" clip-rule="evenodd" d="M60.394,111.327c0.949-0.07,1.663-0.302,1.672-1.209
				c0.01-0.987-0.768-1.165-1.654-1.163c0.037-0.712,0.07-1.343,0.106-2.034c2.193,0,4.332,0,6.587,0
				c1.181,2,0.732,4.204,0.713,6.468c-2.521,0-4.84,0-7.28,0C60.491,112.722,60.446,112.073,60.394,111.327z M65.597,111.167
				c0.703-0.055,1.147-0.461,1.15-1.149c0.004-0.643-0.441-1.076-1.094-1.089c-0.667-0.013-1.077,0.438-1.096,1.075
				C64.538,110.636,64.903,111.071,65.597,111.167z M61.425,107.357c-0.208-0.204-0.34-0.273-0.417,0.068
				C61.146,107.402,61.262,107.384,61.425,107.357z M63.115,112.954c0-0.036,0-0.074,0-0.112c-0.149,0-0.298,0-0.446,0
				c0,0.038,0,0.076,0,0.112C62.818,112.954,62.966,112.954,63.115,112.954z M63.142,107.336c-0.105-0.065-0.155-0.097-0.205-0.129
				c-0.032,0.055-0.065,0.11-0.098,0.164C62.922,107.361,63.005,107.353,63.142,107.336z M63.698,107.258
				c0,0.029-0.001,0.06-0.001,0.091c0.117,0,0.233,0,0.35,0c0.001-0.031,0.001-0.062,0.001-0.091
				C63.931,107.258,63.814,107.258,63.698,107.258z M64.569,107.241c0.004,0.04,0.007,0.082,0.01,0.123
				c0.11-0.009,0.223-0.018,0.333-0.026c-0.002-0.041-0.006-0.08-0.009-0.118C64.793,107.226,64.682,107.233,64.569,107.241z
				 M65.416,107.244c0.002,0.039,0.004,0.079,0.007,0.12c0.121-0.007,0.241-0.015,0.362-0.021c-0.003-0.041-0.005-0.082-0.008-0.123
				C65.657,107.228,65.536,107.235,65.416,107.244z M66.711,107.336c-0.01-0.039-0.018-0.075-0.027-0.113
				c-0.091,0.018-0.181,0.037-0.272,0.055c0.009,0.038,0.018,0.078,0.026,0.116C66.528,107.375,66.619,107.355,66.711,107.336z
				 M61.272,112.957c-0.015-0.055-0.03-0.109-0.045-0.165c-0.106,0.025-0.214,0.05-0.716,0.165
				C61.042,112.957,61.156,112.957,61.272,112.957z M62.165,112.944c-0.007-0.045-0.015-0.089-0.022-0.132
				c-0.107,0.02-0.215,0.039-0.322,0.06c0.006,0.038,0.013,0.077,0.019,0.115C61.947,112.972,62.056,112.958,62.165,112.944z
				 M63.974,112.963c-0.003-0.047-0.007-0.094-0.01-0.141c-0.116,0.008-0.232,0.018-0.348,0.026
				c0.003,0.047,0.006,0.092,0.009,0.137C63.741,112.979,63.857,112.97,63.974,112.963z M66.322,112.802
				c-0.016,0.054-0.029,0.104-0.045,0.157c0.121,0,0.242,0,0.984,0C66.543,112.84,66.433,112.821,66.322,112.802z M65.4,112.827
				c0.004,0.057,0.008,0.113,0.013,0.168c0.116-0.022,0.233-0.044,0.884-0.168C65.633,112.827,65.517,112.827,65.4,112.827z
				 M64.845,112.934c-0.009-0.044-0.017-0.089-0.026-0.134c-0.111,0.023-0.222,0.046-0.333,0.068
				c0.008,0.043,0.016,0.084,0.024,0.126C64.621,112.975,64.732,112.954,64.845,112.934z M67.481,112.972
				c0.003-0.056,0.005-0.109,0.008-0.166c-0.107,0.023-0.215,0.046-0.787,0.166C67.286,112.972,67.384,112.972,67.481,112.972z
				 M61.894,107.265c0,0.024,0,0.048,0,0.071c0.083,0,0.167,0,0.251,0c0-0.023,0-0.047,0-0.071
				C62.062,107.265,61.978,107.265,61.894,107.265z"/>
			<path fill-rule="evenodd" clip-rule="evenodd" d="M86.189,15.303c0.557,0.08,1.104,0.074,1.427-0.482
				c0.267-0.461,0.068-0.877-0.416-1.296c6.982,1.849,13.692,5.175,15.163,7.529c-0.244,0.38-0.511,0.793-0.866,1.344
				c-4.356-4.069-10.346-4.44-15.294-7.11L86.189,15.303z"/>
			<path fill-rule="evenodd" clip-rule="evenodd" d="M42.21,14.894c-1.671,1.277-3.696,1.762-5.617,2.457
				c-3.557,1.288-7.262,2.247-10.172,5.036c-0.373-0.52-0.655-0.911-1.098-1.527c4.302-4.122,10.062-5.018,15.132-7.291
				l-0.013-0.017c-0.152,0.514-0.552,1.008,0.045,1.532c0.671,0.588,1.172-0.001,1.738-0.175L42.21,14.894z"/>
			<path fill-rule="evenodd" clip-rule="evenodd" d="M76.812,113.324c-1.165,0.107-2.151,0.197-3.307,0.305
				c-0.151-2.51-0.298-4.95-0.445-7.387c1.06-0.472,2.051-0.304,3.107-0.371C76.385,108.38,76.593,110.788,76.812,113.324z"/>
			<path fill-rule="evenodd" clip-rule="evenodd" d="M47.289,105.102c1.101,0.088,2.016,0.162,3.109,0.248
				c-0.134,2.532-0.265,5.003-0.402,7.568c-1.18-0.113-2.158-0.206-3.234-0.31C46.942,110.037,47.114,107.601,47.289,105.102z"/>
			<path fill-rule="evenodd" clip-rule="evenodd" d="M81.821,108.988c-0.846,1.119-1.64,2.174-2.485,3.293
				c-0.556,0.08-1.182,0.168-1.863,0.267c-0.354-2.09-0.536-4.099-0.435-6.169c0.466-0.074,0.921-0.146,1.488-0.234
				C79.59,107.062,80.689,108.011,81.821,108.988z M80.084,108.33c0.067,0.036,0.136,0.07,0.314,0.16
				c-0.098-0.173-0.136-0.238-0.173-0.304c-0.068-0.037-0.137-0.075-0.337-0.184C80.004,108.198,80.045,108.264,80.084,108.33z
				 M80.164,110.023c-0.172,0.124-0.468,0.182-0.25,0.635c0.104-0.287,0.17-0.469,0.236-0.652c0.16-0.085,0.322-0.168,0.032-0.019
				C80.322,109.707,80.244,109.865,80.164,110.023z M78.025,106.591c-0.005,0.042-0.009,0.084-0.013,0.125
				c0.107,0.013,0.214,0.025,0.32,0.037c0.005-0.047,0.009-0.095,0.014-0.144C78.24,106.603,78.133,106.597,78.025,106.591z
				 M80.813,108.681c-0.046,0.037-0.092,0.074-0.138,0.111c0.073,0.085,0.146,0.169,0.22,0.253c0.042-0.035,0.085-0.07,0.128-0.106
				C80.953,108.853,80.883,108.767,80.813,108.681z M78.461,106.698c0.28,0.551,0.338,0.744,0.6,0.556
				C78.957,107.159,78.863,107.071,78.461,106.698z M78.181,111.86c-0.002-0.031-0.006-0.063-0.009-0.095
				c-0.089,0.007-0.177,0.014-0.268,0.021c0.004,0.034,0.006,0.068,0.011,0.103C78.004,111.879,78.092,111.87,78.181,111.86z"/>
			<path fill-rule="evenodd" clip-rule="evenodd" d="M59.116,105.574c1.811-0.44,3.496-0.256,5.169,0.622c-1.416,0-2.833,0-4.15,0
				c-0.625,1.753-0.413,3.569,0.206,3.902c-1.004,1.205-0.371,2.547-0.454,3.969c1.516,0,7.172,0.167,8.551,0.167
				c-8.547,3.422-9.203,2.266-9.322,0.558C59.116,111.713,59.116,108.717,59.116,105.574z"/>
			<path fill-rule="evenodd" clip-rule="evenodd" d="M69.932,107.06c0.162,0.09,0.029,0.016-0.366-0.201c1.072,0,1.843,0,2.757,0
				c0.31,2.015,0.518,4.06,0.375,6.228c-0.759,0.064-1.53,0.133-2.366,0.202C70.201,111.257,70.075,109.289,69.932,107.06z
				 M72.086,112.752c-0.204-0.438-0.356-0.312-0.591,0.04C71.741,112.776,71.897,112.766,72.086,112.752z M71.652,107.22
				c0.009,0.05,0.018,0.102,0.027,0.152c0.137-0.017,0.275-0.034,0.412-0.052c-0.01-0.061-0.02-0.123-0.03-0.184
				C71.926,107.163,71.789,107.191,71.652,107.22z M70.858,107.195c-0.014,0.05-0.028,0.102-0.044,0.153c0.12,0,0.24,0,0.999,0
				C71.077,107.229,70.968,107.212,70.858,107.195z M70.723,112.601c0.004,0.069,0.009,0.14,0.014,0.207
				c0.143-0.026,0.284-0.056,1.041-0.207C71.009,112.601,70.865,112.601,70.723,112.601z"/>
			<path fill-rule="evenodd" clip-rule="evenodd" d="M67.422,105.954c1.724,0.009,2.335,1.972,2.131,6.715
				c-0.041,0.979-0.283,1.749-1.488,1.666C68.92,111.432,68.803,108.687,67.422,105.954z"/>
			<path fill-rule="evenodd" clip-rule="evenodd" d="M54.805,57.826c-2.079-1.245-1.507-3.212-2.239-4.572
				c1.152-1.307,2.166-1.165,3.213-0.026C55.478,54.652,55.186,56.03,54.805,57.826z M53.706,53.322
				c-0.125,0.016-0.249,0.033-0.374,0.049c0.098,1.022,0.195,2.044,0.301,3.144c0.475-0.028,0.812-0.048,1.222-0.073
				c0.125-1.076,0.239-2.063,0.353-3.05c-0.757,0.754-0.323,1.839-1.134,2.834C53.934,55.11,53.819,54.217,53.706,53.322z"/>
			<path fill-rule="evenodd" clip-rule="evenodd" d="M92.659,109.167c0.362-2.943-0.486-5.653-0.904-8.423
				c1.524,2.216,1.517,4.77,1.74,7.256C93.538,108.484,93.451,109.089,92.659,109.167z"/>
			<path fill-rule="evenodd" clip-rule="evenodd" d="M35.556,109.318c-1.344-0.705-0.651-7.39,1.133-8.793
				C36.11,103.656,35.035,106.375,35.556,109.318z"/>
			<path fill-rule="evenodd" clip-rule="evenodd" d="M44.105,34.539c0.636,0.182,1.037,0.5,0.908,1.154
				c-0.083,0.413-0.384,0.664-0.829,0.705c-0.434,0.04-0.691-0.234-0.8-0.574C43.188,35.212,43.493,34.806,44.105,34.539z"/>
			<path fill-rule="evenodd" clip-rule="evenodd" d="M54.296,59.873c-0.341,0.163-0.626,0.3-1.095,0.524
				c0.195-0.6,0.349-1.069,0.509-1.562c0.367,0,0.678,0,1.047,0c0.174,0.471,0.342,0.922,0.563,1.521
				C54.915,60.165,54.645,60.037,54.296,59.873z"/>
			<path fill-rule="evenodd" clip-rule="evenodd" d="M53.701,61.256c-0.056-0.757,0.279-0.966,0.929-0.764
				c0.297,0.322,0.336,0.629,0.075,0.939C54.341,61.718,54.044,61.609,53.701,61.256z"/>
			<path fill-rule="evenodd" clip-rule="evenodd" d="M85.771,14.851c-0.292-0.501-0.584-1.002-0.884-1.516
				c0.546-0.341,0.984-0.247,1.586-0.128c-0.697,0.432-0.89,0.985-0.72,1.659L85.771,14.851z"/>
			<path fill-rule="evenodd" clip-rule="evenodd" d="M39.674,25.912c-0.079-0.981,0.359-1.007,1.027-0.765
				C40.668,26.118,40.668,26.118,39.674,25.912z"/>
			<path fill-rule="evenodd" clip-rule="evenodd" d="M42.226,14.91c0.116-0.722-0.073-1.312-1.151-1.749c0.861,0,1.304,0,1.864,0
				c-0.271,0.643-0.5,1.187-0.729,1.732C42.21,14.894,42.226,14.91,42.226,14.91z"/>
			<path fill-rule="evenodd" clip-rule="evenodd" d="M86.018,14.209c0.719-0.656,0.995-0.266,1.34,0.36
				C86.626,14.991,86.242,14.891,86.018,14.209z"/>
			<path fill-rule="evenodd" clip-rule="evenodd" d="M40.724,14.718c-0.126-0.72,0.171-0.931,0.977-0.767
				C41.78,14.734,41.511,14.976,40.724,14.718z"/>
			<path fill-rule="evenodd" clip-rule="evenodd" d="M82.305,34.069c0.388,0.273,0.729,0.581,0.788,1.23
				c-0.382,0.216-0.808,0.457-1.232,0.698l0.022,0.014c0.229-0.339,0.461-0.678,0.675-0.994c-0.091-0.367-0.165-0.667-0.24-0.966
				L82.305,34.069z"/>
			<path fill-rule="evenodd" clip-rule="evenodd" d="M55.35,61.472c-0.088,0.67-0.561,0.834-1.135,0.846
				c-0.569,0.011-0.934-0.252-1.053-0.824l-0.009,0.017c0.745,0.655,1.484,0.779,2.212-0.025L55.35,61.472z"/>
			<path fill-rule="evenodd" clip-rule="evenodd" d="M54.774,58.404c-0.373-0.019-0.746-0.04-1.396-0.074
				C54.092,57.715,54.468,57.953,54.774,58.404z"/>
			<path fill-rule="evenodd" clip-rule="evenodd" d="M50.975,108.634c0.406,0.405,0.388,0.695,0.092,1.016
				C50.717,109.375,50.867,109.064,50.975,108.634z"/>
			<path fill-rule="evenodd" clip-rule="evenodd" d="M59.46,90.941c0.264,0.112,0.443,0.188,0.714,0.303
				C59.739,91.434,59.653,91.184,59.46,90.941z"/>
			<path fill-rule="evenodd" clip-rule="evenodd" d="M61.12,102.921c0.22,0.028,0.439,0.059,0.775,0.104
				c-0.447,0.362-0.541-0.091-0.76-0.12C61.136,102.904,61.12,102.921,61.12,102.921z"/>
			<path fill-rule="evenodd" clip-rule="evenodd" d="M57.07,69.229c-0.149-0.061-0.299-0.12-0.465-0.186
				c0.327-0.31,0.372-0.009,0.467,0.176L57.07,69.229z"/>
			<path fill-rule="evenodd" clip-rule="evenodd" d="M58.798,81.09c-0.175-0.056-0.351-0.11-0.574-0.181
				c0.38-0.309,0.459-0.021,0.577,0.174L58.798,81.09z"/>
			<path fill-rule="evenodd" clip-rule="evenodd" d="M60.384,92.763c-0.159,0.048-0.259,0.076-0.403,0.12
				C60.021,92.553,60.127,92.537,60.384,92.763z"/>
			<path fill-rule="evenodd" clip-rule="evenodd" d="M56.312,67.412c0.107-0.005,0.215-0.013,0.323-0.019
				c0.009,0.053,0.019,0.104,0.029,0.154c-0.111,0.03-0.224,0.061-0.334,0.091C56.324,67.564,56.318,67.488,56.312,67.412z"/>
			<path fill-rule="evenodd" clip-rule="evenodd" d="M61.468,110.361c0-0.18,0-0.359,0-0.54c0.028,0.001,0.056,0.002,0.084,0.004
				c0,0.18,0,0.358,0,0.539C61.524,110.364,61.496,110.362,61.468,110.361z"/>
			<path fill-rule="evenodd" clip-rule="evenodd" d="M61.629,104.565c0.155-0.036,0.26-0.059,0.427-0.097
				C61.956,104.789,61.85,104.805,61.629,104.565z"/>
			<path fill-rule="evenodd" clip-rule="evenodd" d="M57.929,79.387c0.14-0.057,0.281-0.112,0.574-0.229
				c-0.233,0.392-0.378,0.44-0.563,0.216L57.929,79.387z"/>
			<path fill-rule="evenodd" clip-rule="evenodd" d="M59.094,84.438C58.988,84.505,59.041,84.473,59.094,84.438
				C59.086,84.494,59.078,84.55,59.094,84.438z"/>
			<path fill-rule="evenodd" clip-rule="evenodd" d="M59.454,85.854c-0.097,0.102-0.194,0.204-0.034,0.036
				c-0.215,0.081-0.083,0.03,0.048-0.021L59.454,85.854z"/>
			<path fill-rule="evenodd" clip-rule="evenodd" d="M57.964,75.517c-0.104,0.096-0.209,0.191-0.038,0.035
				c-0.22,0.063-0.085,0.025,0.048-0.017L57.964,75.517z"/>
			<path fill-rule="evenodd" clip-rule="evenodd" d="M57.555,74.159c-0.063,0.034-0.127,0.07-0.583,0.321
				c0.336-0.399,0.387-0.459,0.437-0.52C57.458,74.027,57.505,74.094,57.555,74.159z"/>
			<path fill-rule="evenodd" clip-rule="evenodd" d="M58.389,78.022c-0.136-0.021-0.272-0.041-0.094-0.014
				c-0.169-0.068-0.046-0.019,0.077,0.032L58.389,78.022z"/>
			<path fill-rule="evenodd" clip-rule="evenodd" d="M61.18,97.717c-0.11,0.101-0.219,0.203-0.039,0.034
				c-0.227,0.07-0.086,0.026,0.055-0.018C61.194,97.733,61.18,97.717,61.18,97.717z"/>
			<path fill-rule="evenodd" clip-rule="evenodd" d="M61.532,101.674c-0.102,0-0.186,0-0.349,0c0.122-0.108,0.185-0.163,0.259-0.23
				C61.475,101.528,61.497,101.584,61.532,101.674z"/>
			<path fill-rule="evenodd" clip-rule="evenodd" d="M60.116,89.887c-0.087-0.021-0.174-0.042-0.189-0.046
				c0.011,0.004,0.092,0.034,0.173,0.062L60.116,89.887z"/>
			<path fill-rule="evenodd" clip-rule="evenodd" d="M85.753,14.866c0.146,0.146,0.29,0.291,0.437,0.437l0.014-0.016
				c-0.279-0.01-0.457-0.123-0.433-0.436C85.771,14.851,85.753,14.866,85.753,14.866z"/>
			<path fill-rule="evenodd" clip-rule="evenodd" d="M60.957,100.089c0.13,0,0.26,0,0.047,0c0.194,0.083,0.08,0.034-0.034-0.014
				L60.957,100.089z"/>
			<path fill-rule="evenodd" clip-rule="evenodd" d="M60.481,97.072c0.23,0.057,0.462,0.112,0.694,0.169l0.013-0.012
				c-0.229-0.059-0.459-0.116-0.688-0.175C60.498,97.055,60.481,97.072,60.481,97.072z"/>
			<path fill-rule="evenodd" clip-rule="evenodd" d="M60.866,96.288c-0.026,0.07-0.052,0.138-0.079,0.207
				c-0.035-0.013-0.069-0.026-0.104-0.041c0.031-0.068,0.061-0.136,0.092-0.203C60.806,96.263,60.836,96.276,60.866,96.288z"/>
			<path fill-rule="evenodd" clip-rule="evenodd" d="M60.276,95.552c0.135,0.016,0.27,0.035,0.45,0.058
				c-0.247,0.229-0.351,0.116-0.43-0.077L60.276,95.552z"/>
			<path fill-rule="evenodd" clip-rule="evenodd" d="M61.387,98.772c-0.127-0.026-0.254-0.053,0.021,0.006
				c-0.249-0.118-0.133-0.064-0.017-0.009L61.387,98.772z"/>
			<path fill-rule="evenodd" clip-rule="evenodd" d="M56.026,62.106C55.958,62.208,55.892,62.312,56.026,62.106
				c-0.191,0.155-0.104,0.084-0.015,0.012L56.026,62.106z"/>
			<path fill-rule="evenodd" clip-rule="evenodd" d="M56.225,63.152c-0.229-0.06-0.457-0.122-0.685-0.182
				c0,0-0.018,0.018-0.019,0.018c0.229,0.059,0.459,0.119,0.688,0.178L56.225,63.152z"/>
			<path fill-rule="evenodd" clip-rule="evenodd" d="M58.338,82.164c0.087,0.042,0.174,0.084,0.027,0.014
				c0.058,0.167,0.024,0.069-0.01-0.027C58.354,82.15,58.338,82.164,58.338,82.164z"/>
			<path fill-rule="evenodd" clip-rule="evenodd" d="M53.162,61.494c-0.02-0.079-0.039-0.157-0.026-0.108
				c-0.008-0.044,0.005,0.039,0.018,0.124C53.153,61.511,53.162,61.494,53.162,61.494z"/>
			<path fill-rule="evenodd" clip-rule="evenodd" d="M55.365,61.486c0.02-0.092,0.04-0.185,0.016-0.071
				c0.057-0.104,0.013-0.023-0.031,0.057L55.365,61.486z"/>
			<path fill-rule="evenodd" clip-rule="evenodd" d="M56.822,71.827c0.133,0.011,0.265,0.021,0.064,0.007
				c0.183,0.091,0.068,0.031-0.046-0.023L56.822,71.827z"/>
			<path fill-rule="evenodd" clip-rule="evenodd" d="M56.666,66.156c-0.226-0.058-0.45-0.115-0.675-0.173l0.005-0.005
				c0.218,0.064,0.436,0.13,0.654,0.194L56.666,66.156z"/>
			<path fill-rule="evenodd" clip-rule="evenodd" d="M58.15,76.557c-0.219-0.071-0.437-0.146-0.656-0.217l0.009-0.003
				c0.218,0.071,0.436,0.143,0.653,0.215L58.15,76.557z"/>
			<path fill-rule="evenodd" clip-rule="evenodd" d="M57.947,75.02c-0.227-0.062-0.453-0.124-0.681-0.187l-0.019,0.02
				c0.229,0.06,0.457,0.12,0.686,0.18L57.947,75.02z"/>
			<path fill-rule="evenodd" clip-rule="evenodd" d="M57.039,73.335c0.117,0.021,0.234,0.042,0.054,0.01
				c0.146,0.105,0.055,0.038-0.037-0.027L57.039,73.335z"/>
			<path fill-rule="evenodd" clip-rule="evenodd" d="M56.25,64.606c-0.089,0-0.178,0-0.267,0c0-0.027,0-0.053,0-0.079
				c0.089,0,0.178,0,0.267,0C56.25,64.554,56.25,64.579,56.25,64.606z"/>
			<path fill-rule="evenodd" clip-rule="evenodd" d="M57.245,72.709c0.035-0.064,0.063-0.115,0.091-0.167
				c0.031,0.044,0.062,0.086,0.094,0.13C57.375,72.685,57.317,72.694,57.245,72.709z"/>
			<path fill-rule="evenodd" clip-rule="evenodd" d="M59.187,86.766c0.084-0.006,0.167-0.011,0.251-0.017
				c0.001,0.023,0.002,0.045,0.003,0.067c-0.084,0-0.168,0-0.251,0C59.189,86.8,59.188,86.782,59.187,86.766z"/>
			<path fill-rule="evenodd" clip-rule="evenodd" d="M59.229,88.231c0.132-0.008,0.265-0.015,0.041-0.002
				c0.209,0.081,0.09,0.035-0.029-0.013C59.24,88.217,59.229,88.231,59.229,88.231z"/>
			<path fill-rule="evenodd" clip-rule="evenodd" d="M58.549,83.688c0.134,0.017,0.268,0.034,0.44,0.056
				c-0.234,0.229-0.336,0.108-0.421-0.074C58.567,83.671,58.549,83.688,58.549,83.688z"/>
			<path fill-rule="evenodd" clip-rule="evenodd" d="M58.761,85.203c0.229,0.058,0.458,0.116,0.688,0.174l0.017-0.015
				c-0.229-0.06-0.459-0.117-0.688-0.176C58.775,85.187,58.761,85.203,58.761,85.203z"/>
			<path fill-rule="evenodd" clip-rule="evenodd" d="M59.813,93.481C60.284,93.443,60.341,93.438,59.813,93.481
				C60.342,93.481,60.285,93.481,59.813,93.481z"/>
			<path fill-rule="evenodd" clip-rule="evenodd" d="M55.03,52.088c0.07-0.011,0.112-0.019,0.154-0.026
				c-0.011,0.023-0.022,0.066-0.032,0.066C55.123,52.127,55.091,52.11,55.03,52.088z"/>
			<path fill-rule="evenodd" clip-rule="evenodd" d="M59.967,91.963C60.065,91.95,60.116,91.946,59.967,91.963
				C60.114,91.986,60.064,91.979,59.967,91.963z"/>
			<path fill-rule="evenodd" clip-rule="evenodd" d="M58.184,80.229c0.05-0.059,0.1-0.118,0.024-0.028
				c0.112-0.042,0.037-0.014-0.039,0.016C58.168,80.215,58.184,80.229,58.184,80.229z"/>
			<path fill-rule="evenodd" clip-rule="evenodd" d="M58.055,77.092C57.913,77.076,57.971,77.082,58.055,77.092
				C57.979,77.117,57.928,77.134,58.055,77.092z"/>
			<path fill-rule="evenodd" clip-rule="evenodd" d="M58.408,78.516c-0.006-0.165-0.013-0.328-0.019-0.493l-0.017,0.019
				c0.006,0.152,0.013,0.306,0.018,0.459L58.408,78.516z"/>
			<path fill-rule="evenodd" clip-rule="evenodd" d="M58.39,78.5c-0.053,0.041-0.106,0.083-0.039,0.031
				c-0.077,0.02-0.01,0.002,0.056-0.016C58.408,78.516,58.39,78.5,58.39,78.5z"/>
			<path fill-rule="evenodd" clip-rule="evenodd" d="M56.011,62.118c0.018-0.037,0.036-0.076,0.054-0.114
				c-0.048,0-0.096,0-0.145-0.001c0.034,0.035,0.068,0.07,0.104,0.104C56.026,62.106,56.011,62.118,56.011,62.118z"/>
			<path fill-rule="evenodd" clip-rule="evenodd" d="M59.246,87.543c0.024-0.002,0.047-0.005,0.071-0.008
				c-0.028-0.001-0.055-0.004-0.083-0.006L59.246,87.543z"/>
			<path fill-rule="evenodd" clip-rule="evenodd" d="M59.448,85.377c0.002,0.158,0.003,0.317,0.005,0.477
				c0.001,0,0.015,0.016,0.015,0.016c-0.001-0.168-0.002-0.337-0.003-0.507L59.448,85.377z"/>
			<path fill-rule="evenodd" clip-rule="evenodd" d="M60.126,90.403c-0.059,0.031-0.117,0.062-0.042,0.022
				c-0.08,0.006-0.014,0.001,0.051-0.005C60.135,90.42,60.126,90.403,60.126,90.403z"/>
			<path fill-rule="evenodd" clip-rule="evenodd" d="M60.1,89.902c0.008,0.167,0.016,0.333,0.025,0.5
				c0.001,0.001,0.01,0.018,0.01,0.019c-0.006-0.177-0.013-0.355-0.019-0.534L60.1,89.902z"/>
			<path fill-rule="evenodd" clip-rule="evenodd" d="M58.706,81.592C58.561,81.577,58.619,81.584,58.706,81.592
				C58.627,81.619,58.574,81.637,58.706,81.592z"/>
			<path fill-rule="evenodd" clip-rule="evenodd" d="M59.547,88.977C59.686,88.993,59.629,88.987,59.547,88.977
				C59.621,88.952,59.671,88.935,59.547,88.977z"/>
			<polygon fill-rule="evenodd" clip-rule="evenodd" points="59.144,82.789 59.065,82.791 59.103,82.703 			"/>
			<polygon fill-rule="evenodd" clip-rule="evenodd" points="55.583,59.307 55.61,59.235 55.566,59.289 			"/>
			<path fill-rule="evenodd" clip-rule="evenodd" d="M55.747,65.256C56.179,65.218,56.237,65.213,55.747,65.256
				C56.237,65.256,56.181,65.256,55.747,65.256z"/>
			<path fill-rule="evenodd" clip-rule="evenodd" d="M61.681,103.824C61.783,103.812,61.835,103.807,61.681,103.824
				C61.833,103.848,61.782,103.841,61.681,103.824z"/>
			<path fill-rule="evenodd" clip-rule="evenodd" d="M57.537,71.237C57.11,71.277,57.05,71.282,57.537,71.237
				C57.049,71.237,57.108,71.237,57.537,71.237z"/>
			<path fill-rule="evenodd" clip-rule="evenodd" d="M60.976,100.848C61.359,100.81,61.416,100.805,60.976,100.848
				C61.417,100.848,61.362,100.848,60.976,100.848z"/>
			<path fill-rule="evenodd" clip-rule="evenodd" d="M57.301,69.726C56.887,69.764,56.828,69.769,57.301,69.726
				C56.827,69.726,56.884,69.726,57.301,69.726z"/>
			<path fill-rule="evenodd" clip-rule="evenodd" d="M40.455,13.569c0.026-0.023,0.052-0.045,0.079-0.069
				c-0.031,0.018-0.062,0.035-0.092,0.052L40.455,13.569z"/>
			<path fill-rule="evenodd" clip-rule="evenodd" d="M61.854,102.242c0.014-0.036,0.028-0.071,0.042-0.107
				c-0.03,0.004-0.058,0.006-0.087,0.008c0.01,0.028,0.02,0.057,0.029,0.084C61.838,102.225,61.854,102.242,61.854,102.242z"/>
			<path fill-rule="evenodd" clip-rule="evenodd" d="M61.407,102.43c0.149-0.062,0.297-0.126,0.446-0.188
				c0.001,0-0.015-0.018-0.015-0.016c-0.147,0.062-0.295,0.127-0.444,0.19L61.407,102.43z"/>
			<path fill-rule="evenodd" clip-rule="evenodd" d="M56.65,66.173c-0.008,0.144-0.016,0.286-0.024,0.431l0.018,0.019
				c0.008-0.155,0.015-0.311,0.022-0.465C56.666,66.156,56.65,66.173,56.65,66.173z"/>
			<path fill-rule="evenodd" clip-rule="evenodd" d="M55.978,50.236c-0.14,0.132-0.281,0.251-0.416-0.006l-0.014,0.016
				c0.15,0,0.301,0.001,0.452,0.002L55.978,50.236z"/>
			<path fill-rule="evenodd" clip-rule="evenodd" d="M56.626,66.604c-0.065,0.076-0.129,0.151-0.034,0.04
				c-0.134,0.05-0.041,0.015,0.052-0.021L56.626,66.604z"/>
			<path fill-rule="evenodd" clip-rule="evenodd" d="M61.175,97.241c0.001,0.158,0.002,0.316,0.004,0.474
				c0.001,0.002,0.016,0.019,0.017,0.019c-0.003-0.168-0.005-0.336-0.008-0.504L61.175,97.241z"/>
			<path fill-rule="evenodd" clip-rule="evenodd" d="M56.209,63.166c0.153,0.141,0.226,0.279-0.006,0.415l0.018,0.018
				c0.001-0.148,0.002-0.297,0.004-0.445C56.225,63.152,56.209,63.166,56.209,63.166z"/>
			<path fill-rule="evenodd" clip-rule="evenodd" d="M56.445,68.351c0.015-0.087,0.03-0.175,0.004-0.018
				c0.127-0.037,0.055-0.017-0.017,0.005L56.445,68.351z"/>
			<polygon fill-rule="evenodd" clip-rule="evenodd" points="60.982,99.415 61.049,99.372 60.969,99.402 			"/>
			<path fill-rule="evenodd" clip-rule="evenodd" d="M57.933,75.032c0.009,0.16,0.02,0.32,0.029,0.483
				c0.002,0.001,0.012,0.02,0.012,0.02c-0.008-0.171-0.018-0.343-0.027-0.515C57.947,75.02,57.933,75.032,57.933,75.032z"/>
			<path fill-rule="evenodd" clip-rule="evenodd" d="M55.566,59.289c-0.016,0.03-0.033,0.059-0.049,0.087
				c0.022-0.023,0.043-0.046,0.066-0.069L55.566,59.289z"/>
			<polygon fill-rule="evenodd" clip-rule="evenodd" points="56.19,68.579 56.146,68.621 56.203,68.593 			"/>
			<path fill-rule="evenodd" clip-rule="evenodd" d="M56.203,68.593c0.081-0.08,0.162-0.16,0.242-0.24
				c0-0.002-0.013-0.015-0.013-0.015c-0.081,0.08-0.161,0.161-0.241,0.241L56.203,68.593z"/>
			<path fill-rule="evenodd" clip-rule="evenodd" d="M82.088,33.849c0.072,0.073,0.145,0.146,0.217,0.221l0.013-0.018
				c-0.072-0.072-0.144-0.144-0.215-0.216L82.088,33.849z"/>
			<path fill-rule="evenodd" clip-rule="evenodd" d="M57.917,80.429c0.089-0.066,0.178-0.133,0.267-0.2c0,0-0.016-0.014-0.015-0.013
				c-0.08,0.069-0.16,0.141-0.24,0.21C57.93,80.426,57.917,80.429,57.917,80.429z"/>
			<polygon fill-rule="evenodd" clip-rule="evenodd" points="39.386,24.982 39.357,25.027 39.378,24.991 			"/>
			<path fill-rule="evenodd" clip-rule="evenodd" d="M57.939,79.374c-0.068-0.08-0.137-0.158-0.206-0.236l-0.008-0.014
				c0.067,0.088,0.135,0.175,0.203,0.263L57.939,79.374z"/>
			<polygon fill-rule="evenodd" clip-rule="evenodd" points="55.765,64.043 55.735,64.104 55.783,64.061 			"/>
			<polygon fill-rule="evenodd" clip-rule="evenodd" points="57.733,79.138 57.695,79.111 57.726,79.125 			"/>
			<path fill-rule="evenodd" clip-rule="evenodd" d="M55.783,64.061c0.069-0.08,0.138-0.159,0.207-0.239l0.009,0.009
				c-0.078,0.071-0.156,0.143-0.234,0.213L55.783,64.061z"/>
			<path fill-rule="evenodd" clip-rule="evenodd" d="M55.99,63.821c0.077-0.074,0.153-0.148,0.23-0.223c0,0-0.018-0.018-0.018-0.018
				c-0.068,0.082-0.136,0.165-0.204,0.25L55.99,63.821z"/>
			<path fill-rule="evenodd" clip-rule="evenodd" d="M57.494,76.34c-0.004-0.018-0.009-0.034-0.013-0.053
				c0.008,0.017,0.016,0.034,0.023,0.05L57.494,76.34z"/>
			<path fill-rule="evenodd" clip-rule="evenodd" d="M58.155,76.552c0.005,0.023,0.009,0.047,0.014,0.071
				c-0.007-0.022-0.013-0.045-0.019-0.066L58.155,76.552z"/>
			<path fill-rule="evenodd" clip-rule="evenodd" d="M55.991,65.983c-0.006-0.022-0.011-0.045-0.017-0.066
				c0.008,0.021,0.015,0.042,0.022,0.062L55.991,65.983z"/>
			<path fill-rule="evenodd" clip-rule="evenodd" d="M57.072,69.22c0.003,0.02,0.006,0.04,0.01,0.06
				c-0.004-0.017-0.008-0.034-0.012-0.05L57.072,69.22z"/>
			<path fill-rule="evenodd" clip-rule="evenodd" d="M58.801,81.083c0.005,0.022,0.009,0.044,0.013,0.066
				c-0.006-0.021-0.011-0.04-0.016-0.06L58.801,81.083z"/>
			<polygon fill-rule="evenodd" clip-rule="evenodd" points="57.364,70.836 57.417,70.814 57.411,70.869 			"/>
			<polygon fill-rule="evenodd" clip-rule="evenodd" points="57.93,80.426 57.884,80.465 57.917,80.429 			"/>
			<path fill-rule="evenodd" clip-rule="evenodd" d="M60.731,99.609c0.083-0.066,0.167-0.131,0.251-0.194l-0.013-0.013
				c-0.084,0.064-0.169,0.129-0.253,0.192L60.731,99.609z"/>
			<path fill-rule="evenodd" clip-rule="evenodd" d="M61.391,98.77c-0.003,0.023-0.006,0.047-0.008,0.069
				c0.025-0.022,0.049-0.047,0.074-0.07c-0.024,0.002-0.047,0.003-0.07,0.004L61.391,98.77z"/>
			<polygon fill-rule="evenodd" clip-rule="evenodd" points="58.538,49.846 58.548,49.811 58.548,49.864 			"/>
			<path fill-rule="evenodd" clip-rule="evenodd" d="M56.211,50.006c-0.078,0.077-0.155,0.154-0.232,0.23L56,50.248
				c0.074-0.075,0.148-0.148,0.224-0.223L56.211,50.006z"/>
			<path fill-rule="evenodd" clip-rule="evenodd" d="M61.149,102.655c-0.009,0.088-0.018,0.176-0.028,0.265
				c-0.002,0.001,0.014-0.016,0.013-0.015c0.008-0.078,0.017-0.157,0.027-0.235L61.149,102.655z"/>
			<path fill-rule="evenodd" clip-rule="evenodd" d="M61.162,102.67c0.081-0.082,0.163-0.16,0.245-0.24l-0.013-0.013
				c-0.081,0.079-0.162,0.158-0.244,0.238L61.162,102.67z"/>
			<polygon fill-rule="evenodd" clip-rule="evenodd" points="84.047,13.565 84.004,13.538 84.029,13.582 			"/>
			<path fill-rule="evenodd" clip-rule="evenodd" d="M60.969,100.075c-0.068-0.082-0.136-0.164-0.205-0.246
				c0,0.001-0.02,0.021-0.02,0.021c0.071,0.079,0.142,0.159,0.212,0.239L60.969,100.075z"/>
			<path fill-rule="evenodd" clip-rule="evenodd" d="M60.716,99.595c0.009,0.084,0.019,0.17,0.028,0.255c0,0,0.02-0.02,0.02-0.021
				c-0.097-0.009-0.194-0.018-0.292-0.028c-0.001,0,0.017,0.017,0.015,0.016c0.08-0.07,0.163-0.139,0.245-0.207L60.716,99.595z"/>
			<path fill-rule="evenodd" clip-rule="evenodd" d="M43.248,34.482c0.084-0.073,0.168-0.146,0.252-0.218l-0.013-0.014
				c-0.075,0.074-0.15,0.148-0.226,0.221L43.248,34.482z"/>
			<path fill-rule="evenodd" clip-rule="evenodd" d="M59.013,87.989c0.072,0.08,0.144,0.161,0.216,0.241
				c0,0,0.011-0.014,0.012-0.014c-0.07-0.082-0.14-0.165-0.208-0.247L59.013,87.989z"/>
			<path fill-rule="evenodd" clip-rule="evenodd" d="M59.033,87.97c-0.092-0.007-0.184-0.015-0.276-0.021
				c0,0,0.016,0.018,0.015,0.017c0.079-0.058,0.159-0.116,0.238-0.173L59,87.779c0,0.069,0.005,0.14,0.013,0.21L59.033,87.97z"/>
			<path fill-rule="evenodd" clip-rule="evenodd" d="M59.01,87.792c0.079-0.084,0.157-0.167,0.236-0.249l-0.012-0.014
				c-0.078,0.084-0.156,0.166-0.234,0.25L59.01,87.792z"/>
			<polygon fill-rule="evenodd" clip-rule="evenodd" points="45.466,12.122 45.457,12.063 45.467,12.103 			"/>
			<polygon fill-rule="evenodd" clip-rule="evenodd" points="42.817,35.128 42.887,35.109 42.803,35.111 			"/>
			<polygon fill-rule="evenodd" clip-rule="evenodd" points="43.261,34.472 43.228,34.521 43.249,34.482 			"/>
			<path fill-rule="evenodd" clip-rule="evenodd" d="M66.565,45.506l-0.015,0.015C66.55,45.521,66.565,45.506,66.565,45.506z"/>
			<polygon fill-rule="evenodd" clip-rule="evenodd" points="58.997,89.473 59.026,89.466 58.983,89.484 			"/>
			<path fill-rule="evenodd" clip-rule="evenodd" d="M82.055,34.444c-0.015,0.298-0.029,0.6-0.043,0.886
				c-0.77,0.393-1.209,0.234-1.4-0.571C80.932,34.209,81.325,33.989,82.055,34.444z"/>
			<path fill-rule="evenodd" clip-rule="evenodd" d="M86.445,25.728c-0.812,0.229-1.02-0.176-1.069-0.738
				c0.203-0.463,0.516-0.567,0.87-0.559C86.786,24.796,86.724,25.214,86.445,25.728z"/>
			<path fill-rule="evenodd" clip-rule="evenodd" d="M54.977,110.06c-0.125-0.711,0.169-0.977,0.778-0.944
				c0.421,0.282,0.582,0.633,0.284,1.015C55.734,110.522,55.356,110.414,54.977,110.06z"/>
			<path fill-rule="evenodd" clip-rule="evenodd" d="M65.198,109.553c0.406-0.238,0.759-0.233,0.967,0.133
				c0.098,0.174,0.09,0.487,0,0.675c-0.196,0.404-0.564,0.334-0.918,0.198C64.977,110.255,64.949,109.936,65.198,109.553z"/>
		</g>
	</g>
	<path d="M109.362,127.707c-0.981,0-1.959-0.046-2.905-0.135c-0.44-0.041-0.845-0.174-1.237-0.302
		c-0.162-0.053-0.321-0.104-0.48-0.148l-0.288-0.08l-0.072-0.288c-2.854-11.266-5.432-22.797-7.925-33.949
		c-1.392-6.229-2.826-12.645-4.312-19.035c-1.148,9.993-1.221,18.026-0.252,25.693c2.184,0.847,2.271,2.749,2.342,4.291
		c0.026,0.564,0.05,1.1,0.16,1.572l0.114,0.46c0.345,1.369,0.812,3.217-1.005,4.438l0.538,3.281l-0.427,0.132
		c-9.901,3.051-19.895,4.598-29.699,4.598c-9.815,0-19.771-1.549-29.591-4.606l-0.432-0.136l0.575-3.206
		c-1.124-1.558-1.089-4.806-0.458-7.188c0.272-1.024,0.883-2.746,2.023-3.371c0.992-7.834,0.927-16.034-0.215-25.581
		c-1.556,6.631-3.053,13.327-4.507,19.831c-2.405,10.751-4.892,21.868-7.658,32.778l-0.083,0.327l-0.334,0.053
		c-3.123,0.487-6.14,0.604-9.001,0.348c-1.751-0.158-3.78-0.387-5.717-1.113c-1.369-0.514-1.915-1.377-1.767-2.796
		c0.466-4.506,0.917-9.014,1.368-13.521c0.317-3.171,0.634-6.343,0.958-9.513c0.715-7.027,1.931-14.091,3.107-20.921
		c0.333-1.936,0.667-3.873,0.989-5.811c1.886-11.326,4.157-22.793,6.941-35.059l0.518-2.268c0.9-3.925,1.831-7.984,2.515-12.006
		c0.944-5.541,4.974-7.599,8.381-8.772c2.509-0.866,5.122-1.88,7.986-3.101c1.389-0.592,2.824-0.784,4.319-0.567
		c0.893-1.227,1.972-2.182,3.018-3.107c0.764-0.676,1.484-1.314,2.125-2.041c0.101-0.115,0.215-0.226,0.33-0.335
		c0.183-0.175,0.356-0.341,0.419-0.495c1.567-3.812,4.843-4.416,8.012-4.999c0.489-0.09,0.979-0.18,1.46-0.283
		c1.503-0.319,3.082-0.481,4.693-0.481c3.924,0,7.686,0.953,10.525,1.784c1.148,0.336,1.71,1.224,2.206,2.007
		c0.11,0.176,0.221,0.351,0.337,0.516c1.763,2.519,3.473,4.335,5.384,5.716c0.667,0.482,1.121,1.122,1.496,1.772
		c1.535-0.324,3.036-0.128,4.866,0.64l1.313,0.555c2.289,0.969,4.655,1.972,7.045,2.72c4.602,1.442,7.128,4.561,8.193,10.111
		c0.959,4.997,2.078,10.053,3.162,14.943c0.755,3.406,1.535,6.928,2.255,10.403c1.758,8.482,3.264,17.156,4.722,25.543l0.233,1.352
		c1.766,10.16,3.179,20.249,4.2,29.983c0.324,3.081,0.602,6.217,0.87,9.249c0.181,2.032,0.36,4.064,0.555,6.096
		c0.141,1.459-0.475,2.363-1.826,2.689C115.713,127.271,112.421,127.707,109.362,127.707z M105.301,126.219
		c0.079,0.026,0.157,0.052,0.237,0.077c0.354,0.115,0.688,0.226,1.014,0.256c3.791,0.359,7.842-0.017,12.635-1.174
		c0.854-0.208,1.138-0.64,1.047-1.597c-0.195-2.034-0.376-4.068-0.556-6.104c-0.269-3.028-0.547-6.159-0.869-9.231
		c-1.019-9.712-2.429-19.777-4.19-29.916l-0.235-1.352c-1.455-8.38-2.96-17.044-4.714-25.51c-0.718-3.468-1.498-6.987-2.251-10.389
		c-1.086-4.897-2.207-9.961-3.169-14.972c-0.985-5.134-3.297-8.01-7.493-9.326c-2.437-0.764-4.826-1.775-7.138-2.754l-1.312-0.554
		c-1.777-0.746-3.159-0.892-4.592-0.501l-0.394,0.107l-0.192-0.358c-0.41-0.759-0.803-1.352-1.387-1.774
		c-2.007-1.45-3.794-3.344-5.624-5.959c-0.125-0.179-0.244-0.366-0.363-0.555c-0.438-0.691-0.851-1.344-1.628-1.572
		C71.354,2.25,67.683,1.318,63.89,1.318c-1.54,0-3.047,0.154-4.479,0.459c-0.49,0.104-0.989,0.195-1.488,0.288
		c-3.032,0.559-5.894,1.086-7.249,4.381c-0.146,0.355-0.418,0.616-0.66,0.846c-0.093,0.088-0.186,0.177-0.268,0.27
		c-0.683,0.776-1.462,1.465-2.216,2.132c-1.074,0.95-2.184,1.933-3.04,3.186l-0.188,0.275l-0.327-0.06
		c-1.423-0.258-2.74-0.114-4.06,0.449c-2.886,1.23-5.521,2.253-8.055,3.127c-4.725,1.629-7.029,4.014-7.704,7.976
		c-0.69,4.051-1.624,8.124-2.527,12.063l-0.518,2.267c-2.779,12.245-5.046,23.693-6.93,34.999c-0.323,1.939-0.657,3.879-0.99,5.816
		c-1.173,6.813-2.385,13.858-3.098,20.851c-0.322,3.17-0.64,6.341-0.957,9.511c-0.451,4.509-0.901,9.018-1.369,13.525
		c-0.099,0.957,0.17,1.378,1.108,1.729c1.817,0.683,3.764,0.901,5.448,1.054c2.677,0.239,5.496,0.142,8.418-0.289
		c2.729-10.791,5.188-21.785,7.566-32.421c1.656-7.404,3.369-15.06,5.158-22.585l0.633-2.664l0.373,2.713
		c1.507,10.97,1.679,20.161,0.539,28.927l-0.041,0.315l-0.301,0.104c-0.629,0.216-1.269,1.288-1.67,2.8
		c-0.674,2.541-0.497,5.435,0.396,6.448l0.163,0.187l-0.5,2.786c9.581,2.938,19.286,4.428,28.854,4.428
		c9.562,0,19.307-1.487,28.971-4.422l-0.508-3.093l0.314-0.176c1.388-0.771,1.227-1.88,0.821-3.481l-0.118-0.48
		c-0.131-0.564-0.159-1.171-0.186-1.757c-0.084-1.8-0.221-2.931-1.94-3.471l-0.312-0.098l-0.043-0.325
		c-1.116-8.567-0.943-17.551,0.562-29.129l0.361-2.788l0.645,2.737c1.724,7.319,3.375,14.708,4.973,21.854
		C99.925,103.633,102.479,115.058,105.301,126.219z"/>
</g>
</svg>
