<?xml version="1.0" encoding="utf-8"?>
<!-- Generator: Adobe Illustrator 16.0.4, SVG Export Plug-In . SVG Version: 6.00 Build 0)  -->
<!DOCTYPE svg PUBLIC "-//W3C//DTD SVG 1.1//EN" "http://www.w3.org/Graphics/SVG/1.1/DTD/svg11.dtd">
<svg version="1.1" id="Layer_4204" xmlns="http://www.w3.org/2000/svg" xmlns:xlink="http://www.w3.org/1999/xlink" x="0px" y="0px"
	 width="128px" height="128px" viewBox="0 0 128 128" enable-background="new 0 0 128 128" xml:space="preserve">
<g>
	<path d="M127.085,52.064l-1.953,31.023c0,14.82-33.784,26.836-61.509,26.836c-27.726,0-60.09-12.016-60.09-26.836l-2.618-28.18
		c0,0,6.361,30.12,58.232,30.12C124.745,85.027,127.085,52.064,127.085,52.064z"/>
	<g>
		<ellipse cx="62.857" cy="46.742" rx="25.834" ry="14.279"/>
	</g>
	<path d="M124.633,49.953c0-17.813-27.012-32.253-60.331-32.253C30.979,17.7,3.969,32.14,3.969,49.953
		c0,17.811,27.01,32.25,60.333,32.25C97.621,82.203,124.633,67.764,124.633,49.953z M7.798,49.953
		c0-16.683,25.296-30.206,56.504-30.206c31.204,0,56.502,13.523,56.502,30.206c0,16.682-25.299,30.205-56.502,30.205
		C33.094,80.158,7.798,66.635,7.798,49.953z"/>
	<path d="M117.537,48.747c0-15.719-23.835-28.459-53.235-28.459c-29.403,0-53.237,12.74-53.237,28.459
		c0,15.716,23.834,28.458,53.237,28.458C93.702,77.205,117.537,64.463,117.537,48.747z M15.497,48.747
		c0-14.41,21.85-26.091,48.806-26.091c26.952,0,48.805,11.681,48.805,26.091c0,14.408-21.854,26.089-48.805,26.089
		C37.346,74.836,15.497,63.155,15.497,48.747z"/>
	<path d="M110.688,47.818c0-13.696-20.769-24.798-46.385-24.798c-25.62,0-46.387,11.102-46.387,24.798
		c0,13.693,20.767,24.795,46.387,24.795C89.919,72.613,110.688,61.511,110.688,47.818z M20.858,47.818
		c0-12.827,19.449-23.224,43.444-23.224c23.991,0,43.442,10.397,43.442,23.224c0,12.824-19.451,23.223-43.442,23.223
		C40.308,71.041,20.858,60.643,20.858,47.818z"/>
	<path d="M105.23,46.89c0-12.086-18.324-21.881-40.928-21.881c-22.606,0-40.93,9.795-40.93,21.881
		c0,12.082,18.324,21.878,40.93,21.878C86.906,68.768,105.23,58.972,105.23,46.89z M26.777,46.89
		c0-11.079,16.799-20.061,37.525-20.061c20.723,0,37.522,8.981,37.522,20.061c0,11.077-16.799,20.058-37.522,20.058
		C43.577,66.947,26.777,57.966,26.777,46.89z"/>
	<path d="M98.941,45.694c0-10.229-15.508-18.519-34.639-18.519c-19.133,0-34.641,8.29-34.641,18.519
		c0,10.226,15.508,18.517,34.641,18.517C83.434,64.211,98.941,55.92,98.941,45.694z M32.544,45.694
		c0-9.376,14.217-16.978,31.758-16.978c17.539,0,31.756,7.602,31.756,16.978c0,9.375-14.218,16.976-31.756,16.976
		C46.761,62.67,32.544,55.069,32.544,45.694z"/>
</g>
</svg>
