<?xml version="1.0" encoding="utf-8"?>
<!-- Generator: Adobe Illustrator 16.0.4, SVG Export Plug-In . SVG Version: 6.00 Build 0)  -->
<!DOCTYPE svg PUBLIC "-//W3C//DTD SVG 1.1//EN" "http://www.w3.org/Graphics/SVG/1.1/DTD/svg11.dtd">
<svg version="1.1" id="Layer_4403" xmlns="http://www.w3.org/2000/svg" xmlns:xlink="http://www.w3.org/1999/xlink" x="0px" y="0px"
	 width="128px" height="128px" viewBox="0 0 128 128" enable-background="new 0 0 128 128" xml:space="preserve">
<g id="PPexcE.tif">
	<g>
		<path fill-rule="evenodd" clip-rule="evenodd" d="M18.606,90.371c-3.178,0.216-6.354,0.571-9.533,0.614
			c-6.082,0.084-6.559-0.324-8.038-6.082c-1.645-6.402-1.759-12.875,0.114-19.197c1.655-5.586,4.745-10.402,9.408-14.076
			c0.887-0.699,1.763-1.42,2.578-2.199c1.395-1.334,3.065-2.053,4.938-2.312c10.477-1.451,20.952-2.917,31.439-4.281
			c1.314-0.171,2.309-0.636,3.287-1.438c2.068-1.692,4.128-3.407,6.305-4.953c7.576-5.384,13.091-12.406,16.844-20.863
			c0.333-0.751,0.601-1.537,1.001-2.25c0.33-0.589,0.229-1.645,1.15-1.638c0.668,0.005,0.701,0.907,0.961,1.412
			c1.746,3.386,4.73,4.329,8.24,4.307c3.446-0.022,3.468-0.007,1.943,3.068c-1.141,2.302-2.384,4.553-3.518,6.858
			c-1.407,2.863-2.704,5.772-2.747,9.058c-0.008,0.625-0.079,1.215-0.713,1.589c-3.594,2.115-6.791,5.124-11.368,5.011
			c-0.307-0.008-0.615,0.042-0.922,0.065c0.276,0.096,0.548,0.213,0.83,0.282c1.4,0.348,2.772,0.569,4.258,0.334
			c3.049-0.484,5.672-1.75,7.961-3.772c0.768-0.679,1.484-1.36,2.551-1.646c5.477-1.464,10.976-2.756,16.704-2.293
			c3.599,0.291,6.666,1.979,9.546,4.005c5.079,3.569,9.019,8.196,11.498,13.846c6.539,14.898,6.61,29.921-0.24,44.714
			c-4.124,8.906-11.469,14.318-20.764,17.151c-2.084,0.635-4.242,0.726-6.418,0.528c-11.464-1.045-22.816-2.91-34.202-4.543
			c-8.54-1.225-17.117-2.186-25.673-3.297c-6.211-0.807-12.394-1.745-18.531-3.047c-4.746-1.008-8.166-3.579-10.813-7.514
			c-2.964-4.407-3.024-4.392,2.062-5.381c2.819-0.548,5.656-1.012,8.487-1.498c0.507-0.088,1.028-0.094,1.319-0.62
			c0.987-0.055,1.976-0.108,2.963-0.163c-0.019-0.048-0.03-0.135-0.058-0.139C20.472,89.837,19.496,89.769,18.606,90.371z
			 M84.747,42.881c-0.367,0.021-0.549,0.244-0.623,0.58c-2.878,2.12-4.762,5.079-6.547,8.063c-0.873,1.46-1.912,2.282-3.555,2.562
			c-4.129,0.701-8.248,1.457-12.365,2.225c-1.618,0.302-3.324,0.264-4.8,1.159c1.65,0.274,3.278,0.002,4.879-0.318
			c3.22-0.646,6.358-0.068,9.452,0.641c2.024,0.463,2.56,1.583,2.043,3.641c-2.09,8.328-2.086,16.664-0.115,24.998
			c1.138,4.814,2.811,9.444,5.342,13.717c0.752,1.271,0.55,2.051-0.746,2.693c-1.396,0.691-2.812,1.232-4.402,1.225
			c-0.506-0.002-1.012,0.11-1.518,0.17c0.478,0.422,1.095,0.251,1.641,0.385c1.711,0.42,3.463,0.598,5.205,0.478
			c1.993-0.138,3.463,0.409,4.777,2.048c1.736,2.167,3.875,3.973,6.569,4.951c0.333,0.121,0.694,0.576,1.004,0.057
			c0.058-0.096-0.309-0.494-0.53-0.697c-3.897-3.555-7.323-7.507-10.014-12.055c-5.545-9.374-7.451-19.476-5.785-30.224
			c1.058-6.816,2.672-13.45,6.168-19.54c1.156-2.016,2.605-3.93,3.238-6.236c0.383,0.006,0.568-0.221,0.659-0.559l0.106-0.109
			L84.747,42.881z M16.15,69.956c1.34,0.171,2.675,0.033,3.988-0.188c6.489-1.095,13.044-1.624,19.591-2.175
			c2.755-0.231,5.547-0.304,8.31,0.145c1.082,0.175,2.143,0.757,3.267,0.182c-0.962-0.627-2.137-0.499-3.17-0.887
			c-0.28-0.105-0.612-0.062-0.915-0.121c-6.019-1.164-12.105-0.883-18.147-0.532c-4.484,0.26-8.898,1.303-12.873,3.634
			c-0.169,0.182-0.754-0.213-0.569,0.377C15.66,70.484,16.111,70.29,16.15,69.956z M79.011,77.255
			c0.039,2.838,0.33,7.242,1.495,11.545c1.888,6.978,4.854,13.336,10.546,18.084c6.072,5.066,13.795,5.347,20.226,0.756
			c2.196-1.568,4.035-3.504,5.593-5.707c4.648-6.578,6.733-14.025,7.324-21.942c0.58-7.79-0.356-15.404-3.299-22.676
			c-2.314-5.718-5.555-10.798-11.036-14.03c-5.668-3.342-11.362-3.154-16.911,0.29c-3.478,2.159-6.068,5.216-8.111,8.733
			C80.643,59.526,79.004,67.393,79.011,77.255z M53.874,85.994c2.198,0.162,4.846-0.151,7.48-0.603
			c0.39-0.067,0.77-0.193,1.154-0.293c-0.285-0.349-0.687-0.268-1.057-0.271c-7.814-0.076-15.539-1.064-23.242-2.273
			c-0.377-0.059-0.778,0.044-1.169,0.072c0.333,0.229,0.636,0.541,1.003,0.676C42.994,85.128,48.092,86.147,53.874,85.994z
			 M53.228,58.141c0.149-0.059,0.3-0.117,0.449-0.176c-0.172-0.063-0.341-0.167-0.518-0.181c-0.173-0.015-0.511,0.083-0.509,0.098
			C52.699,58.259,52.991,58.138,53.228,58.141z M65.854,84.368c-0.535,0-0.916-0.019-1.295,0.006
			c-0.348,0.022-0.38,0.198-0.05,0.295c0.272,0.079,0.587,0.043,0.878,0.014C65.503,84.671,65.607,84.54,65.854,84.368z
			 M50.038,58.599c-0.014-0.028-0.03-0.105-0.057-0.109c-0.095-0.014-0.195-0.017-0.288,0.002c-0.072,0.016-0.138,0.07-0.206,0.107
			C49.674,58.599,49.859,58.599,50.038,58.599z M24.795,89.5c-0.061-0.04-0.117-0.1-0.184-0.115
			c-0.088-0.021-0.197-0.036-0.275-0.002c-0.177,0.077-0.109,0.152,0.185,0.163C24.611,89.549,24.704,89.517,24.795,89.5z"/>
		<path fill-rule="evenodd" clip-rule="evenodd" d="M121.917,76.31c-0.036,7.309-1.555,14.568-5.215,21.304
			c-1.637,3.011-3.757,5.64-6.483,7.743c-5.238,4.041-11.479,4.131-16.815,0.219c-4.2-3.079-6.96-7.272-8.729-12.062
			c-4.98-13.484-4.478-26.781,2.05-39.649c1.721-3.393,4.37-6.226,7.66-8.288c4.82-3.023,9.718-2.979,14.516,0.017
			c4.709,2.941,7.584,7.349,9.668,12.397C120.953,63.772,121.866,69.797,121.917,76.31z M118.145,75.507
			c-0.185-7.354-1.706-14.154-7.396-19.5c-4.026-3.781-10.291-4.324-14.544-0.76c-2.536,2.125-4.52,4.794-5.717,7.888
			c-2.221,5.738-3.01,11.685-1.94,17.8c0.9,5.15,2.671,9.919,6.478,13.675c4.854,4.792,11.277,4.788,16.19,0.068
			c1.798-1.728,3.209-3.736,4.235-6.006C117.338,84.495,118.285,80.12,118.145,75.507z"/>
		<path fill-rule="evenodd" clip-rule="evenodd" d="M115.734,75.624c0.097,4.612-0.924,8.962-3.064,13.049
			c-0.964,1.839-2.171,3.496-3.78,4.82c-3.73,3.072-8.166,3.014-11.727-0.266c-3.984-3.668-5.65-8.475-6.317-13.689
			c-0.594-4.648-0.259-9.272,1.181-13.716c1.18-3.642,3.107-6.916,6.41-9.132c3.207-2.15,6.516-2.074,9.709,0.201
			c2.506,1.785,4.18,4.22,5.306,7.036c0.762,1.903,1.412,3.838,1.821,5.87C115.663,71.738,115.702,73.673,115.734,75.624z
			 M110.046,75.83c0.174-2.72-0.391-5.302-1.814-7.652c-2.152-3.557-6.398-3.696-8.476-0.093c-2.88,4.994-2.947,10.246-0.057,15.255
			c2.222,3.851,6.302,3.694,8.599-0.106C109.669,80.964,110.185,78.481,110.046,75.83z"/>
		<path fill-rule="evenodd" clip-rule="evenodd" d="M107.668,75.946c-0.011,2.155-0.413,4.458-1.885,6.43
			c-1.243,1.664-2.4,1.644-3.712,0.027c-2.41-2.97-2.479-9.981-0.127-13.111c1.279-1.704,2.748-1.746,3.963-0.002
			C107.239,71.2,107.669,73.401,107.668,75.946z"/>
	</g>
</g>
</svg>
