<?xml version="1.0" encoding="utf-8"?>
<!-- Generator: Adobe Illustrator 16.0.4, SVG Export Plug-In . SVG Version: 6.00 Build 0)  -->
<!DOCTYPE svg PUBLIC "-//W3C//DTD SVG 1.1//EN" "http://www.w3.org/Graphics/SVG/1.1/DTD/svg11.dtd">
<svg version="1.1" id="Layer_4407" xmlns="http://www.w3.org/2000/svg" xmlns:xlink="http://www.w3.org/1999/xlink" x="0px" y="0px"
	 width="128px" height="128px" viewBox="0 0 128 128" enable-background="new 0 0 128 128" xml:space="preserve">
<g>
	<path fill-rule="evenodd" clip-rule="evenodd" d="M99.168,105.94c-8.262,0-16.522,0-24.785,0.002c-0.239,0-0.48,0.008-0.721,0.008
		c-2.608,0.002-2.58-0.002-2.974-2.515c-1.107-7.039-2.272-14.069-3.326-21.118c-0.173-1.16-0.607-1.419-1.687-1.413
		c-6.817,0.042-13.633,0.025-20.449,0.023c-5.053,0-10.103,0.006-15.154-0.016c-1.698-0.008-1.721-0.046-1.742-1.761
		c-0.024-1.845,0.028-3.689-0.004-5.533c-0.018-1.032,0.429-1.436,1.441-1.418c2.164,0.04,4.33,0.032,6.496,0.028
		c0.641,0,1.281-0.038,1.92-0.08c0.251-0.016,0.437-0.164,0.479-0.438c0.054-0.367-0.118-0.688-0.433-0.75
		c-0.545-0.105-1.114-0.114-1.673-0.114c-2.246-0.01-4.492,0.022-6.737-0.01c-1.392-0.02-1.418-0.082-1.479-1.535
		c-0.02-0.48,0.002-0.962-0.006-1.443c-0.059-3.109,0.413-2.748-2.88-2.755c-7.46-0.018-14.92-0.004-22.38-0.012
		c-2.194-0.004-2.197-0.018-2.212-2.272c-0.006-0.962-0.006-1.925,0.01-2.888c0.032-2.073,0.036-2.085,2.204-2.11
		c1.523-0.02,3.048,0.005,4.571-0.005c0.48-0.004,0.962-0.042,1.438-0.107c0.112-0.015,0.251-0.193,0.288-0.321
		c0.08-0.276-0.12-0.484-0.35-0.51c-0.555-0.062-1.118-0.069-1.679-0.072c-1.765-0.01-3.529-0.021-5.294-0.006
		c-0.783,0.006-1.16-0.292-1.192-1.121c-0.074-1.953,0.214-3.581,1.611-5.267c7.264-8.755,14.353-17.657,21.435-26.562
		c1.05-1.319,2.14-1.842,3.832-1.8c4.568,0.116,9.142,0.02,13.713,0.033c1.805,0.006,1.898,0.041,1.838,1.777
		c-0.044,1.252,0.641,1.232,1.506,1.23c4.411-0.007,8.82,0.001,13.232,0.014c2.286,0.008,2.286,0.017,2.974,2.161
		c0.494,1.537,0.493,1.568,2.11,1.575c5.135,0.016,10.269,0.07,15.401-0.034c1.61-0.032,2.654,0.481,3.65,1.726
		c8.115,10.138,16.285,20.233,24.446,30.335c6.445,7.98,12.896,15.96,19.367,23.921c0.676,0.832,1.186,1.622,1.176,2.778
		c-0.047,5.533-0.006,11.069-0.026,16.604c-0.006,1.751-0.048,1.774-1.968,1.776c-8.663,0.011-17.325,0.004-25.989,0.004
		C99.168,105.948,99.168,105.944,99.168,105.94z M98.994,101.438v0.008c0.963,0,1.925,0,2.887,0c6.418,0,12.836,0.01,19.252-0.004
		c1.439-0.002,1.485-0.04,1.493-1.474c0.024-4.09-0.01-8.181,0.02-12.271c0.007-1.044-0.359-1.363-1.429-1.323
		c-4.701,0.173-9.406-0.055-14.113,0.073c-4.309,0.116-8.626-0.114-12.938-0.113c-4.648,0.002-9.297,0.109-13.944,0.142
		c-1.198,0.008-2.398-0.162-3.594-0.132c-0.849,0.02-1.231,0.702-1.013,1.491c0.221,0.794,0.877,0.577,1.384,0.581
		c3.527,0.025,7.057,0.035,10.584,0.004c1.019-0.01,1.451,0.359,1.432,1.396c-0.045,2.325-0.084,4.653-0.024,6.977
		c0.068,2.615,0.04,2.472-2.487,2.476c-3.207,0.004-6.418-0.019-9.625,0.008c-1.12,0.01-1.626,0.748-1.22,1.669
		c0.361,0.818,1.102,0.479,1.684,0.48C84.558,101.445,91.776,101.438,98.994,101.438z M99.64,78.912v-0.015
		c2.403,0,4.807,0.004,7.21-0.004c0.234-0.002,0.648-0.023,0.673-0.115c0.09-0.348-0.234-0.531-0.476-0.721
		c-0.314-0.248-0.645-0.476-0.96-0.721c-4.427-3.464-8.581-7.219-12.107-11.614c-2.614-3.259-5.036-6.65-6.1-10.78
		c-0.673-2.609-1.021-5.382,0.487-7.696c1.167-1.792,0.994-2.962-0.348-4.331c-0.44-0.45-0.711-1.063-1.13-1.536
		c-0.633-0.717-0.98-1.871-1.895-2.098c-0.952-0.237-1.667,0.785-2.465,1.261c-2.969,1.771-4.823,4.5-5.466,7.804
		c-0.727,3.737-0.222,7.455,1.275,11.013c2.928,6.957,7.366,12.901,12.278,18.536c0.693,0.799,1.487,1.07,2.533,1.036
		C95.312,78.861,97.478,78.912,99.64,78.912z M81.087,78.916c0-0.002,0-0.004,0-0.004c0.882-0.002,1.765,0.01,2.646-0.006
		c0.554-0.011,1.338,0.241,1.599-0.194c0.294-0.493-0.43-0.934-0.714-1.394c-0.212-0.337-0.491-0.631-0.733-0.952
		c-4.904-6.509-9.203-13.313-10.588-21.559c-0.615-3.662-0.417-7.271,1.42-10.505c1.523-2.683,3.944-4.601,6.779-5.915
		c2.348-1.086,2.352-1.082,0.767-3.286c-0.282-0.389-0.591-0.758-0.859-1.156c-0.415-0.612-0.966-0.806-1.666-0.611
		c-4.445,1.246-8.55,3.07-12.029,6.257c-1.898,1.738-2.31,3.338-1.487,5.848c2.216,6.763,4.084,13.638,6.102,20.468
		c1.156,3.917,2.351,7.821,3.485,11.744c0.261,0.9,0.69,1.333,1.67,1.279C78.677,78.866,79.883,78.916,81.087,78.916z
		 M49.897,77.423v-0.004c4.971,0,9.941,0.037,14.912-0.013c3.964-0.037,3.359,0.695,3.357-3.417
		c-0.002-1.621-0.527-3.15-0.862-4.713c-0.042-0.19-0.168-0.363-0.256-0.543c-0.039,0.153-0.098,0.305-0.113,0.461
		c-0.026,0.237,0.004,0.485-0.034,0.721c-0.052,0.306-0.146,0.604-0.221,0.908c-0.181-0.252-0.4-0.485-0.536-0.759
		c-0.357-0.717-0.685-1.447-1.008-2.18c-0.126-0.285-0.304-0.609,0.076-0.841c0.293-0.178,0.591-0.073,0.907,0.024
		c0.242,0.076,0.261,0.713,0.642,0.293c0.116-0.125,0.035-0.457,0.002-0.688c-0.062-0.441-0.323-0.742-0.771-0.786
		c-1.033-0.106-2.094-0.361-3.1-0.228c-3.833,0.501-7.669,0.06-11.501,0.157C45.3,65.975,39.2,65.851,33.104,65.86
		c-0.533,0.002-1.231-0.073-1.222,0.765c0.012,0.854,0.72,0.681,1.248,0.709c0.479,0.023,0.962,0,1.443,0.002
		c2.085,0.002,4.171,0.038,6.256-0.006c0.994-0.021,1.491,0.281,1.449,1.359c-0.054,1.359,0.002,2.727-0.012,4.09
		c-0.032,3.042,0.608,3.162-3.096,3.134c-2.086-0.014-4.172-0.002-6.256,0.009c-0.493,0.002-0.98,0.056-1.024,0.718
		c-0.047,0.691,0.423,0.761,0.934,0.769c0.642,0.013,1.282,0.015,1.925,0.015C39.799,77.423,44.848,77.423,49.897,77.423z
		 M48.65,53.729c1.603,0,3.208,0.059,4.807-0.016c1.754-0.083,3.531-0.154,5.25-0.485c1.541-0.295,3.221,0.002,4.619-0.968
		c0.04-1.767-0.378-3.462-0.776-5.165c-0.16-0.691-0.553-0.919-1.202-0.846c-0.397,0.044-0.794,0.094-1.192,0.144
		c-4.372,0.548-8.75,0.974-13.167,0.848c-2.405-0.068-4.799-0.235-7.183-0.531c-1.057-0.131-1.655,0.118-1.814,1.287
		c-0.163,1.184-0.527,2.34-0.769,3.516c-0.305,1.483-0.202,1.698,1.355,1.759C41.94,53.401,45.276,53.952,48.65,53.729z
		 M18.24,52.525c0,0,0-0.009,0-0.014c-3.927,0-7.853,0-11.782,0.001c-0.561,0-1.122-0.003-1.683,0.011
		c-0.405,0.01-0.845,0.045-0.873,0.579c-0.038,0.708,0.509,0.682,0.986,0.698c0.401,0.013,0.803,0.006,1.203,0.006
		c1.522,0.003,3.046-0.013,4.568,0.01c1.789,0.027,1.796,0.04,1.824,1.91c0.016,1.122,0.02,2.244,0.002,3.366
		c-0.026,1.754-0.115,1.854-1.934,1.888c-1.603,0.03-3.206-0.009-4.809,0.002c-0.478,0.003-0.962,0.038-1.43,0.125
		c-0.219,0.04-0.422,0.246-0.322,0.529c0.048,0.136,0.158,0.328,0.268,0.349c0.389,0.077,0.791,0.123,1.188,0.124
		c7.454,0.007,14.906,0.019,22.359-0.002c1.781-0.005,2.181-0.515,1.755-2.188c-0.498-1.958-1.33-3.771-2.601-5.363
		c-0.229-0.286-0.665-0.616-0.16-0.979c0.357-0.255,0.792-0.144,1.082,0.18c0.317,0.356,0.609,0.748,0.844,1.162
		c0.473,0.834,0.893,1.699,1.355,2.542c0.108,0.195,0.298,0.344,0.449,0.514c0.089-0.221,0.194-0.438,0.266-0.663
		c0.354-1.133,0.695-2.227,0.681-3.474c-0.014-1.287,0.188-1.306-0.976-1.308C26.414,52.521,22.328,52.525,18.24,52.525z
		 M27.118,49.161c1.363,0,2.726-0.055,4.083,0.017c1.019,0.054,1.385-0.455,1.629-1.333c0.868-3.141-0.701-6.732-3.825-8.568
		c-2.458-1.444-5.167-1.948-7.957-2.436c-2.649-0.463-4.375,0.054-5.769,2.426c-1.204,2.046-1.377,1.945,1.074,2.337
		c0.315,0.05,0.635,0.082,0.949,0.141c3.714,0.69,5.211,2.674,4.701,6.411c-0.109,0.8,0.081,1.008,0.79,1.006
		C24.234,49.157,25.676,49.161,27.118,49.161z M50.195,61.055v0.003c0.723,0,1.443,0,2.165,0c3.846,0,7.69,0.015,11.535-0.007
		c1.497-0.008,1.675-0.234,1.421-1.684c-0.139-0.786-0.354-1.56-0.561-2.331c-0.416-1.544-0.485-1.595-2.18-1.365
		c-7.644,1.036-15.299,1.497-23,0.713c-1.086-0.111-2.545-0.785-3.184-0.112c-0.708,0.75-0.668,2.225-0.914,3.393
		c-0.275,1.322-0.255,1.374,1.01,1.38C41.057,61.066,45.626,61.055,50.195,61.055z M91.445,51.654
		c-0.133,2.014,0.271,3.548,0.923,5.037c0.775,1.77,1.752,3.427,2.894,4.98c4.577,6.221,10.539,10.936,16.775,15.346
		c0.131,0.094,0.26,0.205,0.407,0.251c0.129,0.042,0.334,0.059,0.414-0.016c0.079-0.072,0.098-0.296,0.046-0.407
		c-0.1-0.214-0.268-0.397-0.409-0.591c-6.408-8.716-12.812-17.434-19.233-26.139c-0.351-0.476-0.583-1.399-1.211-1.236
		c-0.627,0.163-0.538,1.078-0.596,1.707C91.409,51.063,91.445,51.546,91.445,51.654z M48.963,45.091
		c3.144,0.162,6.167-0.201,9.163-0.65c1.113-0.167,2.673,0.326,3.296-0.832c0.565-1.048-0.332-2.297-0.499-3.473
		c-0.198-1.377-0.297-1.397-1.697-1.155c-5.22,0.902-10.443,1.17-15.741,0.64c-4.307-0.431-3.299-1.003-4.429,3.503
		c-0.301,1.206-0.125,1.407,1.158,1.469C43.165,44.736,46.091,45.289,48.963,45.091z M22.595,31.686
		c-1.673-0.549-2.611,1.036-3.595,2.531c-0.421,0.642-0.071,0.794,0.525,0.853c1.511,0.146,3.026,0.29,4.529,0.495
		c3.477,0.475,6.649,1.71,9.383,3.945c0.702,0.574,1.311,1.258,1.963,1.891c0.303-0.907,0.625-1.81,0.906-2.724
		c0.259-0.84,0.411-1.721,0.733-2.532c0.363-0.917-0.005-1.194-0.815-1.56C32.063,32.706,27.64,32.147,22.595,31.686z M47.82,38.042
		c4.146,0.081,7.252-0.111,10.337-0.637c1.987-0.338,2.041-0.395,1.566-2.475c-0.018-0.079-0.032-0.157-0.05-0.235
		c-0.377-1.624-0.388-1.667-1.984-1.26c-4.641,1.184-9.342,1.122-14.045,0.613c-2.675-0.291-2.644-0.381-3.09,2.228
		c-0.134,0.79,0.044,1.108,0.884,1.29C43.889,38.096,46.37,37.963,47.82,38.042z M74.033,30.367
		c-3.279-0.552-6.643,0.948-9.994,2.52c-0.86,0.403-1.19,0.941-0.867,1.892c0.359,1.057,0.611,2.15,0.939,3.218
		c0.287,0.93,0.468,0.99,1.292,0.291c3.803-3.226,8.164-5.27,13.044-6.244c0.233-0.046,0.456-0.142,0.678-0.228
		c0.607-0.231,0.334-0.558,0.097-0.889c-0.374-0.523-0.911-0.576-1.492-0.565C76.691,30.379,75.65,30.367,74.033,30.367z
		 M50.159,33.126c1.611-0.208,3.224-0.309,4.78-0.654c1.306-0.292,3.147-0.154,3.736-1.253c0.628-1.168-0.421-2.733-0.624-4.148
		c-0.099-0.687-0.674-0.716-0.985-0.181c-0.852,1.47-2.277,1.981-3.763,2.345c-3.11,0.758-6.198,0.639-9.232-0.451
		c-1.756-0.631-1.761-0.624-2.126,1.226c-0.062,0.313-0.07,0.639-0.138,0.952c-0.174,0.811,0.179,1.084,0.962,1.267
		C45.21,32.794,47.726,32.619,50.159,33.126z M26.771,27.867c-0.366,0-1.247-0.03-2.123,0.008c-0.87,0.038-2.545,1.612-2.665,2.412
		c-0.062,0.408,0.238,0.361,0.431,0.376c0.477,0.037,0.957,0.029,1.436,0.025c4.024-0.04,7.943,0.629,11.782,1.799
		c2.329,0.708,2.27,0.703,2.995-1.625c0.314-1.009,0.129-1.394-0.911-1.653C34.283,28.355,30.79,28.099,26.771,27.867z M13,49.148
		c0-0.016,0-0.032,0-0.047c1.196,0,2.392,0.023,3.587-0.006c1.761-0.043,2.202-0.562,2.162-2.315
		c-0.024-1.084-0.584-1.795-1.447-2.314c-1.263-0.759-2.679-0.956-4.12-1.061c-0.747-0.053-1.174,0.354-1.565,0.895
		c-0.98,1.356-1.974,2.704-2.957,4.056c-0.504,0.694-0.018,0.782,0.513,0.787C10.448,49.157,11.724,49.148,13,49.148z
		 M77.315,94.766c0,0,0-0.006,0-0.01c2.007,0,4.011-0.01,6.015,0.006c0.814,0.008,1.2-0.379,1.156-1.164
		c-0.05-0.864-0.715-0.673-1.255-0.673c-3.287,0-6.574,0.009-9.862,0c-2.359-0.006-2.342-0.018-2.671-2.281
		c-0.369-2.537-0.769-5.068-1.17-7.602c-0.086-0.553-0.212-1.102-0.352-1.645c-0.062-0.242-0.257-0.42-0.522-0.319
		c-0.115,0.043-0.242,0.231-0.246,0.356c-0.016,0.397-0.016,0.805,0.049,1.196c0.578,3.555,1.161,7.108,1.766,10.66
		c0.248,1.44,0.274,1.453,1.801,1.471C73.788,94.781,75.553,94.766,77.315,94.766z M28.041,26.833
		c3.456,0.003,6.852,0.567,10.219,1.248c1.292,0.262,1.277-0.513,1.504-1.246c0.239-0.771-0.007-1.167-0.855-1.312
		c-3.876-0.662-7.808-0.524-11.704-0.868c-0.804-0.072-1.403,0.196-1.805,0.896c-0.193,0.341-0.593,0.729-0.529,1.015
		c0.094,0.42,0.655,0.237,1.011,0.254C26.6,26.859,27.321,26.833,28.041,26.833z M49.766,26.463c0-0.006,0-0.011,0-0.011
		c-1.511-0.006-3.022-0.019-4.534,0.008c-0.241,0.004-0.694-0.189-0.688,0.307c0.002,0.184,0.233,0.4,0.411,0.541
		c1.998,1.578,7.146,1.491,9.271-0.165c0.151-0.118,0.197-0.371,0.293-0.562c-0.154-0.038-0.306-0.111-0.458-0.112
		C52.63,26.459,51.198,26.463,49.766,26.463z M33.874,23.156c0-0.015,0-0.03,0-0.043c-1.042,0-2.084-0.005-3.126,0
		c-1.042,0.005-2.084,0.011-3.126,0.032c-0.226,0.005-0.531,0.003-0.543,0.325c-0.012,0.333,0.279,0.274,0.499,0.292
		c0.477,0.039,0.958,0.137,1.433,0.119c3.298-0.124,6.558,0.304,9.823,0.634c0.317,0.032,0.631,0.123,0.948,0.145
		c0.645,0.048,0.812-0.478,0.895-0.92c0.108-0.582-0.402-0.577-0.791-0.579C37.882,23.15,35.878,23.156,33.874,23.156z"/>
	<path fill-rule="evenodd" clip-rule="evenodd" d="M92.675,90.81c5.807,0.147,10.057,3.977,11.552,7.679
		c0.14,0.352,0.46,0.759,0.012,1.062c-0.534,0.361-1.077,0.254-1.462-0.281c-0.231-0.321-0.384-0.701-0.59-1.042
		c-2.206-3.646-5.501-5.45-9.697-5.712c-0.399-0.025-0.805,0.036-1.2-0.012c-0.443-0.054-0.711-0.348-0.719-0.806
		c-0.006-0.46,0.258-0.759,0.704-0.812C91.828,90.823,92.392,90.823,92.675,90.81z"/>
	<path fill-rule="evenodd" clip-rule="evenodd" d="M102.328,87.944c0.629-0.081,1.271,0.106,1.872,0.6
		c3.223,2.643,5.636,5.822,6.705,9.917c0.114,0.443,0.43,0.958-0.251,1.186c-0.562,0.189-1.115,0.151-1.375-0.533
		c-0.084-0.222-0.14-0.455-0.216-0.683c-1.373-4.08-3.868-7.276-7.524-9.562c-0.261-0.162-0.699-0.302-0.624-0.633
		c0.067-0.304,0.505-0.281,0.816-0.292C101.892,87.942,102.05,87.944,102.328,87.944z"/>
	<path fill-rule="evenodd" clip-rule="evenodd" d="M117.733,98.882c0.058,0.394-0.03,0.665-0.405,0.772
		c-0.401,0.118-0.862,0.138-1.096-0.201c-0.258-0.376-0.382-0.858-0.495-1.312c-0.825-3.288-2.199-6.307-4.295-8.985
		c-0.225-0.287-0.667-0.577-0.377-0.992c0.256-0.367,0.739-0.182,1.123-0.195c0.429-0.014,0.756,0.199,1.005,0.539
		C115.499,91.636,117.009,95.113,117.733,98.882z"/>
	<path fill-rule="evenodd" clip-rule="evenodd" d="M95.004,99.721c-1.228-0.059-2.344-0.122-3.459-0.158
		c-0.539-0.018-0.942-0.157-0.979-0.778c-0.041-0.681,0.282-1.008,0.966-1.094c1.672-0.208,3.174,0.195,4.513,1.197
		c0.176,0.13,0.272,0.363,0.405,0.549c-0.199,0.097-0.393,0.24-0.603,0.271C95.535,99.754,95.21,99.721,95.004,99.721z"/>
	<path fill-rule="evenodd" clip-rule="evenodd" d="M120.91,91.07c0,0.32,0.035,0.646-0.013,0.959
		c-0.03,0.199-0.186,0.383-0.284,0.572c-0.146-0.176-0.333-0.331-0.433-0.528c-0.539-1.072-1.058-2.152-1.581-3.23
		c-0.315-0.654,0.044-0.84,0.619-0.89c0.762-0.066,1.184,0.354,1.471,0.987C121.001,89.623,120.909,90.354,120.91,91.07z"/>
	<path fill-rule="evenodd" clip-rule="evenodd" d="M45.017,69.206c4.393,0.05,7.666,3.188,8.929,6.141
		c0.084,0.195,0.278,0.441-0.03,0.623c-0.293,0.173-0.637,0.222-0.878-0.024c-0.271-0.277-0.467-0.633-0.685-0.962
		c-1.792-2.691-4.154-4.38-7.53-4.29c-0.239,0.006-0.481,0-0.717-0.036c-0.309-0.05-0.643-0.096-0.682-0.517
		c-0.041-0.466,0.163-0.783,0.614-0.864C44.428,69.204,44.831,69.218,45.017,69.206z"/>
	<path fill-rule="evenodd" clip-rule="evenodd" d="M52.201,66.904c0.495-0.021,0.915,0.15,1.337,0.415
		c2.913,1.839,4.521,4.607,5.594,7.766c0.134,0.397,0.116,0.814-0.37,0.966c-0.439,0.141-0.778-0.081-0.954-0.486
		c-0.281-0.657-0.543-1.324-0.791-1.994c-0.89-2.408-2.423-4.263-4.681-5.504c-0.14-0.076-0.284-0.146-0.415-0.235
		c-0.261-0.176-0.659-0.367-0.557-0.689C51.461,66.837,51.896,66.914,52.201,66.904z"/>
	<path fill-rule="evenodd" clip-rule="evenodd" d="M59.659,66.96c0.573-0.092,0.986,0.134,1.287,0.537
		c1.742,2.342,2.763,5.005,3.438,7.815c0.076,0.319-0.058,0.619-0.425,0.732c-0.343,0.108-0.659,0.022-0.833-0.271
		c-0.156-0.268-0.22-0.591-0.305-0.896c-0.689-2.475-1.651-4.816-3.266-6.854C59.276,67.671,58.883,67.204,59.659,66.96z"/>
	<path fill-rule="evenodd" clip-rule="evenodd" d="M44.64,74.528c0.649,0,1.26,0.174,1.834,0.455
		c0.479,0.235,1.375,0.349,1.253,0.864c-0.122,0.521-0.966,0.241-1.5,0.212c-0.62-0.036-1.202-0.376-1.864-0.116
		c-0.534,0.208-0.957,0.002-0.949-0.639c0.006-0.621,0.483-0.738,0.988-0.776C44.48,74.522,44.56,74.528,44.64,74.528z"/>
	<path fill-rule="evenodd" clip-rule="evenodd" d="M14.916,55.294c3.172,0.29,5.737,1.78,7.316,4.801
		c0.17,0.327,0.469,0.744-0.09,0.975c-0.408,0.167-0.772-0.016-1.002-0.41c-0.08-0.138-0.154-0.278-0.233-0.417
		c-1.39-2.432-3.571-3.542-6.286-3.722c-0.449-0.03-1.069,0.267-1.097-0.462C13.493,55.242,14.211,55.363,14.916,55.294z"/>
	<path fill-rule="evenodd" clip-rule="evenodd" d="M26.608,60.498c-0.008,0.453-0.166,0.607-0.433,0.613
		c-0.15,0.003-0.355-0.014-0.441-0.108c-0.154-0.167-0.268-0.389-0.343-0.607c-0.854-2.497-2.337-4.518-4.521-6.014
		c-0.271-0.185-0.642-0.463-0.494-0.723c0.218-0.378,0.704-0.27,1.076-0.124c1.236,0.485,2.104,1.44,2.911,2.43
		C25.484,57.341,26.234,58.919,26.608,60.498z"/>
	<path fill-rule="evenodd" clip-rule="evenodd" d="M15.984,61.173c-0.659-0.067-0.974-0.097-1.29-0.131
		c-0.431-0.047-1.001,0.206-1.154-0.471c-0.116-0.515,0.585-0.974,1.405-0.842c0.536,0.088,1.054,0.317,1.567,0.514
		c0.307,0.117,0.565,0.368,0.471,0.701c-0.036,0.125-0.407,0.186-0.635,0.222C16.119,61.202,15.876,61.173,15.984,61.173z"/>
</g>
</svg>
