<?xml version="1.0" encoding="utf-8"?>
<!-- Generator: Adobe Illustrator 16.0.4, SVG Export Plug-In . SVG Version: 6.00 Build 0)  -->
<!DOCTYPE svg PUBLIC "-//W3C//DTD SVG 1.1//EN" "http://www.w3.org/Graphics/SVG/1.1/DTD/svg11.dtd">
<svg version="1.1" id="Layer_4410" xmlns="http://www.w3.org/2000/svg" xmlns:xlink="http://www.w3.org/1999/xlink" x="0px" y="0px"
	 width="128px" height="128px" viewBox="0 0 128 128" enable-background="new 0 0 128 128" xml:space="preserve">
<g>
	<polygon points="97.5,5.5 97.5,108.5 107.5,108.5 107.5,0.5 53.5,0.5 53.5,5.5 	"/>
	<rect x="85.5" y="109.5" width="11" height="6"/>
	<rect x="42.5" y="6.5" width="10" height="5"/>
	<polygon points="53.5,6.5 53.5,11.5 85.5,11.5 85.5,108.5 96.5,108.5 96.5,6.5 	"/>
	<rect x="52.5" y="6.5" width="1" height="5"/>
	<rect x="85.5" y="108.5" width="11" height="1"/>
	<rect x="74.5" y="116.5" width="10" height="5"/>
	<rect x="30.5" y="12.5" width="11" height="6"/>
	<rect x="42.5" y="12.5" width="10" height="6"/>
	<rect x="74.5" y="109.5" width="10" height="6"/>
	<polygon points="74.5,18.5 74.5,108.5 84.5,108.5 84.5,12.5 53.5,12.5 53.5,18.5 	"/>
	<rect x="74.5" y="108.5" width="10" height="1"/>
	<rect x="52.5" y="12.5" width="1" height="6"/>
	<rect x="74.5" y="115.5" width="10" height="1"/>
	<rect x="41.5" y="12.5" width="1" height="6"/>
	<polygon points="54.512,19.5 53.455,19.5 42.881,19.5 41.824,19.5 31.25,19.5 30.193,19.5 19.5,19.5 19.5,127.5 73.5,127.5 
		73.5,122.155 73.5,121.098 73.5,115.811 73.5,114.753 73.5,109.467 73.5,108.409 73.5,19.5 	"/>
</g>
</svg>
