<?xml version="1.0" encoding="utf-8"?>
<!-- Generator: Adobe Illustrator 16.0.4, SVG Export Plug-In . SVG Version: 6.00 Build 0)  -->
<!DOCTYPE svg PUBLIC "-//W3C//DTD SVG 1.1//EN" "http://www.w3.org/Graphics/SVG/1.1/DTD/svg11.dtd">
<svg version="1.1" id="Layer_4415" xmlns="http://www.w3.org/2000/svg" xmlns:xlink="http://www.w3.org/1999/xlink" x="0px" y="0px"
	 width="128px" height="128px" viewBox="0 0 128 128" enable-background="new 0 0 128 128" xml:space="preserve">
<g id="VySe3t.tif">
	<g>
		<path d="M125.229,63.997c0,20.086-0.006,40.173,0.02,60.259c0.001,0.778-0.101,1.001-0.958,1.001
			c-40.173-0.029-80.345-0.025-120.518-0.025c-1.005,0-1.005-0.001-1.005-1.027c0-40.133,0.003-80.266-0.019-120.398
			c-0.001-0.81,0.101-1.062,1.016-1.062C43.938,2.775,84.11,2.774,124.284,2.746c0.841,0,0.967,0.197,0.966,0.992
			C125.224,23.825,125.229,43.91,125.229,63.997z M63.873,119.237c16.896,0,33.794,0,50.69,0c0.319,0,0.639,0.004,0.957-0.005
			c0.115-0.003,0.285-0.003,0.33-0.07c0.109-0.163-0.041-0.285-0.151-0.397c-0.168-0.17-0.336-0.34-0.505-0.509
			c-5.636-5.636-11.279-11.265-16.897-16.918c-0.517-0.52-1.024-0.743-1.767-0.743c-21.679,0.02-43.358,0.02-65.037,0.001
			c-0.735,0-1.251,0.203-1.773,0.729c-5.617,5.655-11.263,11.281-16.891,16.925c-0.265,0.265-0.799,0.49-0.647,0.886
			c0.1,0.26,0.651,0.072,1,0.099c0.198,0.017,0.398,0.004,0.598,0.004C30.478,119.237,47.175,119.237,63.873,119.237z M64.077,8.766
			c-16.857,0-33.715,0-50.572,0c-0.319,0-0.638-0.006-0.956,0.003c-0.146,0.005-0.34-0.058-0.414,0.119
			c-0.075,0.18,0.104,0.277,0.208,0.388c0.163,0.174,0.336,0.34,0.505,0.509c5.608,5.607,11.223,11.208,16.812,16.833
			c0.545,0.548,1.083,0.791,1.868,0.79c21.639-0.021,43.277-0.02,64.918-0.002c0.771,0,1.324-0.207,1.877-0.764
			c5.588-5.628,11.205-11.227,16.809-16.839c0.272-0.272,0.828-0.585,0.701-0.866c-0.188-0.41-0.777-0.16-1.186-0.161
			C97.791,8.764,80.934,8.766,64.077,8.766z M8.763,63.99c0,16.857,0,33.715,0,50.572c0,0.318-0.005,0.638,0.005,0.956
			c0.003,0.114,0.003,0.285,0.07,0.33c0.164,0.108,0.285-0.043,0.397-0.153c0.17-0.168,0.34-0.336,0.509-0.505
			c5.636-5.637,11.265-11.279,16.918-16.897c0.52-0.518,0.743-1.024,0.743-1.767c-0.02-21.68-0.02-43.358-0.001-65.038
			c0-0.736-0.206-1.249-0.731-1.771c-5.684-5.646-11.338-11.318-17.01-16.975c-0.236-0.237-0.434-0.721-0.801-0.572
			c-0.241,0.099-0.073,0.58-0.097,0.89c-0.015,0.197-0.003,0.398-0.003,0.598C8.763,30.436,8.763,47.213,8.763,63.99z
			 M119.234,64.073c0-16.856,0-33.713,0-50.569c0-0.279,0.011-0.559-0.005-0.837c-0.01-0.183,0.098-0.437-0.123-0.525
			c-0.223-0.091-0.327,0.168-0.471,0.289c-0.15,0.128-0.282,0.28-0.424,0.421c-5.606,5.608-11.207,11.223-16.831,16.812
			c-0.548,0.545-0.79,1.084-0.789,1.867c0.021,21.639,0.021,43.277,0.002,64.915c-0.001,0.773,0.214,1.325,0.769,1.877
			c5.571,5.531,11.111,11.092,16.67,16.637c0.329,0.327,0.664,0.992,1.033,0.855c0.402-0.147,0.16-0.843,0.16-1.292
			C119.235,97.706,119.234,80.89,119.234,64.073z M31.724,90.013c0,1.713-0.003,3.428,0.002,5.142
			c0.002,1.11,0.007,1.118,1.077,1.12c3.428,0.004,6.855-0.016,10.283,0.016c0.658,0.006,1.104-0.216,1.558-0.668
			c16.985-17.005,33.98-34,50.985-50.985c0.456-0.455,0.663-0.91,0.657-1.562c-0.029-3.428-0.037-6.856,0.004-10.283
			c0.01-0.806-0.168-1.097-1.034-1.084c-3.467,0.048-6.935,0.035-10.402,0.005c-0.618-0.005-1.032,0.209-1.454,0.631
			C66.384,49.374,49.361,66.396,32.328,83.411c-0.425,0.426-0.632,0.846-0.617,1.459C31.75,86.584,31.724,88.298,31.724,90.013z
			 M31.724,54.788c0,7.329,0,14.659,0.004,21.988c0,0.273-0.04,0.732,0.08,0.785c0.356,0.156,0.518-0.265,0.724-0.47
			c3.783-3.767,7.546-7.552,11.338-11.31c0.493-0.488,0.694-0.983,0.689-1.676c-0.073-10.437-0.122-20.873-0.18-31.31
			c-0.006-1.062-0.013-1.068-1.131-1.069c-3.426-0.003-6.852-0.006-10.277,0.001c-1.395,0.003-1.243-0.145-1.244,1.31
			C31.722,40.288,31.724,47.537,31.724,54.788z M96.272,73.195c0-7.333,0.002-14.665-0.005-21.997c0-0.265,0.142-0.646-0.107-0.769
			c-0.294-0.146-0.451,0.244-0.634,0.427c-3.783,3.77-7.549,7.555-11.344,11.311c-0.445,0.44-0.567,0.892-0.567,1.479
			c0.013,10.521,0.008,21.041,0.011,31.562c0,1.06,0.01,1.065,1.131,1.066c3.427,0.004,6.854,0.005,10.281,0
			c1.344-0.002,1.232,0.133,1.233-1.202C96.274,87.78,96.272,80.488,96.272,73.195z M79.288,81.696
			c0-4.498,0.002-8.998-0.004-13.496c0-0.269,0.131-0.652-0.096-0.779c-0.295-0.165-0.455,0.23-0.637,0.411
			c-3.948,3.935-7.881,7.885-11.841,11.807c-0.448,0.443-0.554,0.899-0.552,1.482c0.014,4.698,0.025,9.396-0.012,14.094
			c-0.006,0.807,0.175,1.092,1.036,1.081c3.663-0.047,7.325-0.018,10.988-0.021c1.105-0.001,1.114-0.008,1.114-1.082
			C79.29,90.694,79.288,86.194,79.288,81.696z M61.831,39.856c0-2.388-0.034-4.776,0.019-7.164c0.018-0.807-0.253-0.989-1.012-0.981
			c-3.702,0.035-7.404,0.013-11.106,0.018c-1.005,0.002-1.017,0.014-1.012,1.066c0.049,8.916,0.101,17.832,0.162,26.749
			c0.002,0.289-0.174,0.708,0.177,0.848c0.276,0.108,0.446-0.271,0.633-0.457c3.862-3.852,7.709-7.717,11.584-11.554
			c0.444-0.439,0.57-0.891,0.564-1.478C61.817,44.554,61.831,42.205,61.831,39.856z M66.167,37.452c0,1.672-0.003,3.344,0.002,5.016
			c0,0.231-0.103,0.574,0.09,0.666c0.312,0.149,0.459-0.228,0.641-0.409c3.439-3.429,6.873-6.864,10.305-10.302
			c0.161-0.161,0.464-0.3,0.389-0.547c-0.086-0.281-0.408-0.143-0.62-0.143c-3.305-0.01-6.61,0.019-9.914-0.025
			c-0.779-0.01-0.925,0.271-0.906,0.966C66.196,34.265,66.167,35.859,66.167,37.452z M61.831,90.474
			c0-1.671,0.006-3.342-0.008-5.014c-0.002-0.208,0.146-0.519-0.155-0.612c-0.197-0.062-0.325,0.186-0.46,0.32
			c-3.491,3.486-6.98,6.976-10.465,10.469c-0.155,0.156-0.458,0.295-0.311,0.56c0.055,0.1,0.364,0.076,0.558,0.076
			c3.343,0.004,6.686-0.018,10.028,0.02c0.74,0.007,0.835-0.308,0.822-0.924C61.81,93.737,61.831,92.105,61.831,90.474z"/>
		<path fill-rule="evenodd" clip-rule="evenodd" d="M106.126,115.67c-1.041,0.019-1.916-0.813-1.95-1.856
			c-0.036-1.093,0.851-1.997,1.944-1.982c1.044,0.015,1.891,0.871,1.893,1.915C108.016,114.787,107.167,115.651,106.126,115.67z"/>
		<path fill-rule="evenodd" clip-rule="evenodd" d="M100.36,106.436c-0.02,1.047-0.867,1.864-1.93,1.86
			c-1.064-0.003-1.9-0.824-1.91-1.878c-0.012-1.077,0.928-1.999,1.987-1.953C99.53,104.508,100.38,105.412,100.36,106.436z"/>
		<path fill-rule="evenodd" clip-rule="evenodd" d="M31.477,106.271c-0.023,1.033-0.897,1.881-1.933,1.874
			c-1.083-0.006-1.962-0.938-1.906-2.017c0.055-1.043,0.93-1.834,1.989-1.799C30.677,104.364,31.499,105.228,31.477,106.271z"/>
		<path fill-rule="evenodd" clip-rule="evenodd" d="M23.822,114.394c-0.017,1.031-0.887,1.886-1.921,1.886
			c-1.082,0-1.968-0.927-1.918-2.006c0.049-1.044,0.917-1.839,1.979-1.809C23.017,112.494,23.84,113.348,23.822,114.394z"/>
		<path fill-rule="evenodd" clip-rule="evenodd" d="M29.578,19.985c1.044,0.013,1.893,0.867,1.897,1.911
			c0.004,1.04-0.843,1.906-1.883,1.928c-1.089,0.021-1.985-0.883-1.955-1.973C27.667,20.806,28.531,19.974,29.578,19.985z"/>
		<path fill-rule="evenodd" clip-rule="evenodd" d="M21.927,16.17c-1.047,0.02-1.914-0.807-1.949-1.854
			c-0.035-1.1,0.842-1.997,1.939-1.983c1.04,0.014,1.896,0.876,1.898,1.913C23.819,15.278,22.964,16.15,21.927,16.17z"/>
		<path fill-rule="evenodd" clip-rule="evenodd" d="M106.087,16.375c-1.021-0.004-1.897-0.88-1.912-1.909
			c-0.015-1.101,0.869-1.958,1.984-1.925c1.058,0.032,1.875,0.885,1.854,1.937C107.992,15.502,107.103,16.379,106.087,16.375z"/>
		<path fill-rule="evenodd" clip-rule="evenodd" d="M98.338,23.827c-1.03,0.016-1.911-0.826-1.946-1.862
			c-0.036-1.081,0.861-1.997,1.943-1.981c1.041,0.015,1.871,0.865,1.871,1.919C100.207,22.955,99.377,23.81,98.338,23.827z"/>
		<path fill-rule="evenodd" clip-rule="evenodd" d="M16.168,22.168c-0.009,1.045-0.856,1.893-1.904,1.9
			c-1.098,0.009-1.976-0.895-1.934-1.988c0.04-1.04,0.925-1.873,1.962-1.849S16.176,21.13,16.168,22.168z"/>
		<path fill-rule="evenodd" clip-rule="evenodd" d="M23.339,98.437c0.004,1.034-0.85,1.906-1.886,1.926
			c-1.047,0.02-1.917-0.807-1.951-1.854c-0.037-1.098,0.842-1.998,1.938-1.985C22.48,96.536,23.334,97.396,23.339,98.437z"/>
		<path fill-rule="evenodd" clip-rule="evenodd" d="M14.249,104.141c1.065,0.001,1.905,0.819,1.92,1.87
			c0.016,1.069-0.927,2.001-1.982,1.961c-1.024-0.038-1.874-0.937-1.858-1.964C12.345,104.953,13.181,104.141,14.249,104.141z"/>
		<path fill-rule="evenodd" clip-rule="evenodd" d="M21.734,27.639c1.051-0.013,1.895,0.81,1.918,1.869
			c0.024,1.062-0.774,1.928-1.818,1.971c-1.072,0.044-2.009-0.858-2.004-1.931C19.837,28.521,20.704,27.65,21.734,27.639z"/>
		<path fill-rule="evenodd" clip-rule="evenodd" d="M115.667,107.628c-0.053,1.038-0.947,1.86-1.985,1.823
			c-1.089-0.037-1.937-0.988-1.849-2.074c0.085-1.039,1-1.829,2.039-1.762C114.911,105.684,115.72,106.591,115.667,107.628z"/>
		<path fill-rule="evenodd" clip-rule="evenodd" d="M115.408,21.865c0.022,1.023-0.829,1.92-1.861,1.958
			c-1.047,0.039-1.925-0.771-1.974-1.821c-0.052-1.108,0.799-2.012,1.896-2.017C114.499,19.981,115.386,20.841,115.408,21.865z"/>
		<path fill-rule="evenodd" clip-rule="evenodd" d="M108.013,29.567c0.021,1.051-0.798,1.907-1.854,1.939
			c-1.064,0.032-1.932-0.759-1.983-1.809c-0.054-1.073,0.843-2.022,1.911-2.026C107.106,27.667,107.993,28.54,108.013,29.567z"/>
		<path fill-rule="evenodd" clip-rule="evenodd" d="M106.125,100.53c-1.019,0.02-1.915-0.84-1.95-1.867
			c-0.034-1.052,0.771-1.915,1.827-1.959c1.116-0.045,2.013,0.8,2.013,1.896C108.015,99.623,107.145,100.512,106.125,100.53z"/>
	</g>
</g>
</svg>
