<?xml version="1.0" encoding="utf-8"?>
<!-- Generator: Adobe Illustrator 16.0.4, SVG Export Plug-In . SVG Version: 6.00 Build 0)  -->
<!DOCTYPE svg PUBLIC "-//W3C//DTD SVG 1.1//EN" "http://www.w3.org/Graphics/SVG/1.1/DTD/svg11.dtd">
<svg version="1.1" id="Layer_4419" xmlns="http://www.w3.org/2000/svg" xmlns:xlink="http://www.w3.org/1999/xlink" x="0px" y="0px"
	 width="128px" height="128px" viewBox="0 0 128 128" enable-background="new 0 0 128 128" xml:space="preserve">
<g id="tObmZy.tif">
	<g>
		<path fill-rule="evenodd" clip-rule="evenodd" d="M27.763,82.329c0-12.572,0.03-25.143-0.019-37.714
			c-0.015-3.618,2.223-6.213,4.668-7.196c1.052-0.423,2.149-0.529,3.262-0.562c2.533-0.077,4.852-0.828,6.982-2.19
			c0.232-0.149,0.474-0.475,0.738-0.348c0.33,0.156,0.183,0.564,0.183,0.863c0.007,6.841,0.006,13.682,0.006,20.523
			c0,0.681-0.005,1.361,0.003,2.042c0.003,0.249,0.001,0.508,0.072,0.742c0.114,0.376,0.399,0.605,0.802,0.588
			c0.401-0.016,0.676-0.256,0.744-0.65c0.055-0.314,0.045-0.642,0.045-0.964c0.002-7.772,0.046-15.544-0.045-23.315
			c-0.014-1.223,0.368-1.936,1.214-2.69c2.572-2.296,3.167-5.013,1.93-8.262c-2.946-7.736-0.262-16.083,6.58-20.453
			c0.181-0.116,0.361-0.234,0.548-0.338c0.74-0.413,0.806-0.382,0.812,0.497c0.013,1.719,0,3.438,0.006,5.157
			c0.004,1.069,0.24,1.459,0.851,1.456c0.604-0.003,0.805-0.352,0.81-1.471c0.009-1.969,0.045-3.941-0.015-5.909
			c-0.023-0.767,0.264-1.085,0.957-1.266c1.145-0.299,2.283-0.592,3.469-0.69c0.546-0.045,0.782,0.072,0.776,0.668
			c-0.022,2.436-0.03,4.872,0.005,7.306c0.01,0.659-0.389,0.739-0.85,0.86c-1.943,0.508-3.39,1.66-4.327,3.431
			c-1.297,2.451-0.921,5.539,0.956,7.612c0.408,0.451,0.58,0.847,0.575,1.487c-0.044,6.196-0.027,12.392-0.026,18.588
			c0,0.179-0.002,0.364,0.044,0.533c0.104,0.377,0.343,0.626,0.763,0.631c0.464,0.005,0.747-0.248,0.823-0.685
			c0.054-0.314,0.036-0.643,0.036-0.964c0.001-5.48,0-10.96,0-16.439c0-0.287,0.008-0.573,0.003-0.86
			c-0.006-0.372,0.139-0.545,0.522-0.41c1.507,0.531,3.016,0.542,4.527,0.024c0.402-0.138,0.619-0.036,0.595,0.427
			c-0.013,0.25,0,0.501,0,0.751c0,9.67,0,19.341,0.002,29.011c0.001,0.393-0.016,0.795,0.062,1.175
			c0.088,0.434,0.414,0.672,0.869,0.625c0.401-0.041,0.646-0.294,0.708-0.692c0.032-0.21,0.026-0.429,0.026-0.643
			c0-10.386,0.004-20.773-0.015-31.16c-0.001-0.496,0.094-0.856,0.436-1.24c3.533-3.98,1.896-9.69-3.218-11.178
			c-0.691-0.202-0.883-0.508-0.871-1.189c0.04-2.256,0.033-4.513,0.006-6.769c-0.01-0.665,0.105-0.978,0.89-0.896
			c3.69,0.387,6.881,1.854,9.636,4.313c0.211,0.189,0.362,0.363,0.343,0.719c-0.245,4.758-0.055,9.52-0.113,14.279
			c-0.006,0.572,0.056,1.11,0.784,1.178c0.575,0.053,0.875-0.336,0.878-1.195c0.01-3.367,0.004-6.733,0.005-10.1
			c0-0.573-0.01-1.146,0.004-1.719c0.007-0.237-0.119-0.589,0.129-0.68c0.266-0.098,0.378,0.259,0.51,0.45
			c1.643,2.377,2.611,5.007,2.87,7.881c0.252,2.791-0.148,5.487-1.193,8.103c-1.177,2.937-0.501,5.772,1.829,7.925
			c1.972,1.822,3.886,3.731,6.51,4.64c0.395,0.136,0.576,0.394,0.534,0.811c-0.012,0.106,0,0.215,0,0.322
			c-0.012,7.951-0.023,15.901-0.034,23.853c-0.001,0.573-0.002,1.146,0.013,1.719c0.008,0.283,0.004,0.616,0.434,0.587
			c0.353-0.023,0.482-0.271,0.501-0.587c0.02-0.286,0.016-0.572,0.026-0.859c0.01-0.25-0.029-0.56,0.188-0.703
			c0.714-0.468,0.552-1.16,0.552-1.833c-0.009-7.271-0.006-14.542-0.022-21.812c-0.002-0.586,0.104-0.848,0.773-0.737
			c0.739,0.123,1.498,0.12,2.247,0.177c4.188,0.321,7.097,3.331,7.133,7.542c0.048,5.944-0.085,11.891,0.028,17.834
			c0.057,3.004-0.079,6-0.053,9.002c0.043,4.898,0.038,9.799,0.04,14.697c0.004,11.282-0.004,22.563,0.005,33.846
			c0.002,2.372-0.7,4.436-2.491,6.061c-1.571,1.425-3.434,1.994-5.532,1.92c-0.474-0.017-0.643-0.202-0.621-0.645
			c0.013-0.25,0.002-0.501,0.002-0.752c-0.001-8.774,0-17.55-0.004-26.324c0-0.393,0.011-0.794-0.071-1.173
			c-0.093-0.428-0.406-0.672-0.871-0.621c-0.407,0.045-0.65,0.294-0.69,0.698c-0.034,0.355-0.03,0.716-0.03,1.072
			c-0.002,8.812,0,17.622-0.002,26.434c0,1.353-0.004,1.334-1.369,1.327c-3.294-0.02-6.589-0.012-9.883-0.031
			c-1.594-0.01-1.458,0.275-1.459-1.51c-0.002-15.079,0-30.156-0.002-45.235c0-0.357,0.017-0.721-0.031-1.072
			c-0.06-0.434-0.33-0.741-0.781-0.743c-0.494-0.004-0.8,0.283-0.834,0.793c-0.024,0.356-0.02,0.717-0.02,1.074
			c0,15.079,0,30.157,0,45.234c0,0.251-0.015,0.503,0.002,0.753c0.034,0.485-0.14,0.751-0.668,0.711
			c-0.249-0.02-0.501-0.002-0.751-0.002c-7.2,0.002-14.399,0.002-21.598,0.002c-1.126,0-1.128,0-1.129-1.188
			c0-11.175,0-22.35-0.003-33.524c0-0.393,0.011-0.794-0.062-1.175c-0.082-0.425-0.38-0.712-0.839-0.676
			c-0.443,0.037-0.716,0.313-0.742,0.774c-0.022,0.393-0.023,0.787-0.023,1.181c-0.001,10.996-0.001,21.992-0.001,32.987
			c0,0.25-0.02,0.503,0.004,0.751c0.062,0.651-0.218,0.886-0.868,0.876c-1.898-0.028-3.796-0.005-5.694-0.01
			c-0.961-0.003-0.972-0.012-0.972-1.036c-0.003-7.772-0.002-15.544-0.003-23.315c0-0.323,0.002-0.646-0.008-0.967
			c-0.017-0.532-0.253-0.927-0.818-0.937c-0.563-0.009-0.821,0.362-0.834,0.907c-0.007,0.322-0.007,0.644-0.007,0.967
			c0,7.735,0,15.473-0.001,23.208c0,1.182-0.004,1.183-1.148,1.184c-1.29,0.001-2.58-0.042-3.868,0.005
			c-4.488,0.164-7.805-3.538-7.782-7.668C27.809,107.543,27.763,94.936,27.763,82.329z M63.071,87.947c0-3.688,0-7.373-0.001-11.061
			c0-0.287,0.014-0.576-0.028-0.856c-0.067-0.444-0.349-0.711-0.802-0.713c-0.458-0.002-0.72,0.277-0.806,0.712
			c-0.035,0.173-0.027,0.356-0.027,0.535c-0.002,7.518-0.005,15.034,0,22.551c0,0.812,0.354,1.28,0.888,1.202
			c0.688-0.101,0.8-0.616,0.777-1.202c-0.01-0.25-0.001-0.5-0.001-0.751C63.072,94.892,63.072,91.42,63.071,87.947z M88.41,73.017
			c0,2.074-0.002,4.147,0.002,6.222c0,0.321-0.004,0.646,0.046,0.962c0.065,0.399,0.327,0.628,0.743,0.636
			c0.407,0.008,0.704-0.197,0.789-0.587c0.075-0.345,0.077-0.708,0.085-1.062c0.089-4.286-0.295-8.566-0.178-12.854
			c0.04-1.429,0.013-2.86,0.002-4.29c-0.002-0.178,0.107-0.396-0.105-0.54c-0.022,0.173-0.064,0.347-0.064,0.521
			c-0.002,3.361,0,6.722-0.002,10.083c0,0.21,0.019,0.61-0.062,0.596c-0.292-0.05-0.255-0.376-0.28-0.61
			c-0.035-0.319-0.037-0.643-0.038-0.964c-0.004-1.431,0.001-2.86-0.004-4.29c-0.002-0.354,0.069-0.756-0.216-1.021
			c-0.415-0.387-0.474-0.854-0.457-1.368c0.006-0.136,0.035-0.289-0.094-0.398c-0.028,0.131-0.072,0.26-0.081,0.392
			C88.312,67.299,88.391,70.158,88.41,73.017z"/>
	</g>
</g>
</svg>
