<?xml version="1.0" encoding="utf-8"?>
<!-- Generator: Adobe Illustrator 16.0.4, SVG Export Plug-In . SVG Version: 6.00 Build 0)  -->
<!DOCTYPE svg PUBLIC "-//W3C//DTD SVG 1.1//EN" "http://www.w3.org/Graphics/SVG/1.1/DTD/svg11.dtd">
<svg version="1.1" id="Layer_4421" xmlns="http://www.w3.org/2000/svg" xmlns:xlink="http://www.w3.org/1999/xlink" x="0px" y="0px"
	 width="128px" height="128px" viewBox="0 0 128 128" enable-background="new 0 0 128 128" xml:space="preserve">
<g id="KbT6Eg.tif">
	<g>
		<path fill-rule="evenodd" clip-rule="evenodd" d="M108.942,46.838c0.101,1.651,0.011,3.265-0.076,4.875
			c-0.089,1.627-0.255,3.25-0.497,4.862c-0.578,3.843-1.449,7.62-2.543,11.347c-0.021,0.065-0.051,0.129-0.065,0.197
			c-0.015,0.064-0.047,0.146,0.017,0.194c0.061,0.047,0.123-0.002,0.186-0.034c0.418-0.215,0.857-0.363,1.318-0.461
			c1.654-0.351,2.895,0.262,3.619,1.793c0.619,1.309,0.723,2.709,0.672,4.118c-0.129,3.566-1.162,6.91-2.524,10.178
			c-0.891,2.13-2.117,4.049-3.473,5.9c-0.718,0.979-1.396,1.994-1.621,3.224c-0.174,0.946-0.069,1.854,0.341,2.739
			c0.569,1.232,1.324,2.354,2.026,3.507c1.032,1.693,2.01,3.413,2.299,5.414c0.188,1.301,0.097,2.598-0.212,3.874
			c-0.639,2.65-1.995,4.877-4.133,6.565c-3.231,2.555-6.91,3.3-10.833,2.139c-4.131-1.225-6.827-4.027-8.091-8.169
			c-0.055-0.177-0.055-0.466-0.196-0.49c-0.172-0.03-0.253,0.243-0.36,0.392c-2.127,2.872-4.352,5.666-6.735,8.327
			c-1.898,2.12-3.887,4.153-6.056,5.999c-1.493,1.271-3.053,2.459-4.812,3.35c-0.789,0.398-1.607,0.726-2.491,0.873
			c-0.867,0.146-1.69,0.007-2.501-0.283c-2.092-0.748-3.856-2.03-5.553-3.417c-2.488-2.037-4.723-4.332-6.862-6.729
			c-2.347-2.628-4.535-5.379-6.629-8.207c-0.021-0.028-0.038-0.062-0.061-0.084c-0.083-0.083-0.117-0.262-0.248-0.234
			c-0.119,0.023-0.113,0.197-0.14,0.304c-0.446,1.765-1.275,3.331-2.463,4.701c-1.99,2.293-4.484,3.671-7.507,4.055
			c-2.668,0.339-5.179-0.143-7.509-1.495c-2.081-1.209-3.658-2.899-4.718-5.061c-0.789-1.609-1.191-3.312-1.209-5.113
			c-0.016-1.496,0.397-2.871,1.009-4.208c0.754-1.645,1.807-3.117,2.711-4.673c0.357-0.615,0.699-1.239,0.915-1.921
			c0.47-1.483,0.093-2.838-0.671-4.123c-0.639-1.074-1.415-2.056-2.118-3.087c-1.062-1.556-1.866-3.24-2.561-4.983
			c-0.875-2.195-1.562-4.445-1.919-6.784c-0.281-1.844-0.397-3.692,0.057-5.528c0.181-0.729,0.481-1.404,0.979-1.985
			c0.774-0.903,1.775-1.083,2.879-0.91c0.515,0.08,1.005,0.264,1.476,0.487c0.061,0.03,0.149,0.092,0.184,0.07
			c0.1-0.06,0.013-0.155-0.007-0.226c-0.379-1.386-0.782-2.767-1.125-4.163c-0.563-2.288-1.016-4.596-1.386-6.924
			c-0.473-2.971-0.712-5.96-0.678-8.963c0.021-1.89,0.013-3.783,0.089-5.671c0.169-4.201,0.963-8.285,2.348-12.256
			c1.048-3.008,2.412-5.863,4.087-8.567c1.261-2.037,2.689-3.952,4.268-5.758c1.373-1.57,2.844-3.038,4.418-4.402
			c1.56-1.353,3.211-2.589,4.946-3.713c2.7-1.749,5.552-3.201,8.559-4.338c2.14-0.809,4.33-1.457,6.571-1.934
			c3.475-0.739,6.985-1.092,10.535-1.027c3.761,0.066,7.459,0.601,11.091,1.567c2.565,0.683,5.054,1.597,7.457,2.728
			c3.118,1.466,6.044,3.255,8.744,5.392c3.309,2.619,6.213,5.629,8.664,9.074c2.265,3.181,4.082,6.589,5.441,10.254
			c1.018,2.741,1.731,5.555,2.187,8.433c0.351,2.229,0.492,4.481,0.454,6.741C108.891,45.35,108.875,46.114,108.942,46.838z
			 M60.367,86.601c-0.071,2.151-0.122,4.302-0.032,6.453c0.048,1.161,0.033,2.325,0.134,3.484c0.022,0.248-0.016,0.416-0.315,0.49
			c-1.138,0.287-2.074,0.946-2.947,1.695c-0.634,0.546-1.192,1.159-1.569,1.922c-0.489,0.989-0.252,1.658,0.756,2.092
			c0.336,0.146,0.682,0.245,1.042,0.311c1.117,0.199,2.245,0.238,3.37,0.182c0.552-0.029,0.937,0.061,1.117,0.628
			c0.04,0.126,0.14,0.237,0.221,0.35c0.849,1.168,2.33,1.314,3.404,0.348c0.304-0.273,0.506-0.613,0.679-0.971
			c0.129-0.266,0.288-0.365,0.602-0.354c1.248,0.038,2.498,0.032,3.735-0.182c0.38-0.065,0.738-0.178,1.089-0.331
			c0.951-0.416,1.226-1.106,0.732-2.018c-0.972-1.787-2.491-2.948-4.38-3.625c-0.554-0.199-0.495-0.199-0.459-0.687
			c0.11-1.472,0.12-2.947,0.153-4.421c0.057-2.444,0.031-4.893-0.021-7.338c-0.058-2.637,0.017-5.274-0.134-7.91
			c-0.134-2.355-0.35-4.702-0.671-7.038c-0.331-2.42-0.77-4.821-1.305-7.206c-0.414-1.842-0.863-3.674-1.449-5.471
			c-0.025-0.075-0.008-0.201-0.115-0.205c-0.111-0.003-0.095,0.124-0.121,0.199c-0.404,1.163-0.711,2.354-1,3.549
			c-0.766,3.184-1.388,6.393-1.816,9.645c-0.395,2.996-0.647,5.999-0.695,9.018C60.337,81.672,60.367,84.137,60.367,86.601z
			 M42.953,57.271c-1.667,0.036-3.566,0.152-5.447,0.505c-2.727,0.51-5.345,1.306-7.711,2.803c-1.154,0.73-2.184,1.596-2.928,2.759
			c-1.145,1.793-1.174,3.612-0.07,5.434c0.89,1.466,2.214,2.468,3.677,3.289c2.291,1.286,4.777,2.015,7.353,2.449
			c2.593,0.437,5.202,0.516,7.825,0.33c2.995-0.212,5.894-0.823,8.657-2.015c1.57-0.677,3.019-1.548,4.227-2.779
			c1.042-1.062,1.755-2.298,1.792-3.811c0.043-1.767-0.82-3.152-2.062-4.32c-1.636-1.539-3.613-2.491-5.715-3.195
			C49.517,57.702,46.383,57.294,42.953,57.271z M84.599,57.271c-1.449,0.045-3.162,0.121-4.861,0.406
			c-2.508,0.422-4.938,1.088-7.197,2.283c-1.611,0.853-3.075,1.896-4.055,3.482c-1.099,1.772-1.078,3.598,0.003,5.351
			c0.842,1.365,2.065,2.326,3.424,3.125c2.348,1.38,4.918,2.132,7.579,2.587c2.575,0.442,5.169,0.521,7.776,0.339
			c3.067-0.214,6.037-0.826,8.854-2.082c1.841-0.821,3.524-1.87,4.765-3.507c0.662-0.875,1.073-1.85,1.111-2.967
			c0.059-1.727-0.732-3.066-1.903-4.226c-1.652-1.638-3.698-2.613-5.865-3.342C91.195,57.699,88.06,57.293,84.599,57.271z
			 M103.188,105.853c-0.012-3.542-2.866-6.394-6.386-6.38c-3.537,0.015-6.374,2.863-6.368,6.397
			c0.005,3.558,2.837,6.345,6.381,6.367C100.305,112.26,103.229,109.332,103.188,105.853z M37.574,105.865
			c0.002-3.533-2.852-6.4-6.374-6.391c-3.57,0.01-6.388,2.904-6.384,6.385c0.005,3.54,2.828,6.368,6.381,6.37
			C34.754,112.23,37.572,109.418,37.574,105.865z M64.008,113.652c1.941,0,3.884,0.001,5.826,0c0.589,0,1.179-0.004,1.768,0
			c0.189,0.001,0.263-0.04,0.142-0.234c-1.229-1.992-2.645-3.82-4.615-5.141c-0.95-0.636-1.986-1.059-3.159-1.041
			c-1.597,0.021-2.889,0.776-4.06,1.764c-1.429,1.206-2.576,2.657-3.535,4.26c-0.068,0.112-0.244,0.228-0.148,0.351
			c0.057,0.073,0.259,0.04,0.395,0.04C59.084,113.652,61.545,113.652,64.008,113.652z M64.051,116.978c-2.393,0-4.788,0-7.182,0.001
			c-0.139,0-0.278,0-0.417,0.004c-0.217,0.007-0.288,0.088-0.154,0.288c0.289,0.432,0.559,0.878,0.86,1.301
			c1.128,1.576,2.4,3.01,4.091,4.011c1.855,1.1,3.704,1.08,5.556-0.03c1.193-0.714,2.173-1.66,3.062-2.708
			c0.664-0.779,1.261-1.61,1.786-2.49c0.193-0.322,0.172-0.356-0.213-0.375c-0.086-0.005-0.174-0.002-0.26-0.002
			C68.804,116.977,66.428,116.977,64.051,116.978z M103.785,41.152c0.028-1.775-1.349-3.235-3.077-3.265
			c-1.815-0.031-3.276,1.367-3.298,3.156c-0.02,1.773,1.387,3.22,3.161,3.251C102.298,44.325,103.757,42.898,103.785,41.152z
			 M24.221,41.087c0.004,1.772,1.446,3.218,3.202,3.208c1.759-0.01,3.181-1.461,3.174-3.239c-0.007-1.761-1.45-3.178-3.231-3.171
			C25.627,37.894,24.217,39.329,24.221,41.087z M50.98,37.844c-0.005-1.754-1.418-3.168-3.173-3.176
			c-1.759-0.007-3.261,1.455-3.222,3.193c0.041,1.808,1.361,3.146,3.113,3.203C49.555,41.124,50.985,39.678,50.98,37.844z
			 M77.025,37.88c0.003,1.763,1.465,3.208,3.22,3.186c1.737-0.022,3.179-1.468,3.183-3.193c0.003-1.756-1.451-3.207-3.215-3.206
			C78.44,34.668,77.023,36.098,77.025,37.88z M71.319,49.221c1.804-0.006,3.2-1.4,3.196-3.187c-0.006-1.782-1.413-3.163-3.222-3.161
			c-1.758,0.002-3.158,1.395-3.18,3.16C68.093,47.783,69.544,49.228,71.319,49.221z M56.627,49.222
			c1.794,0.03,3.216-1.333,3.265-3.127c0.047-1.723-1.382-3.172-3.116-3.229c-1.804-0.059-3.253,1.38-3.283,3.105
			C53.462,47.773,54.839,49.193,56.627,49.222z M63.993,26.193c1.798,0.05,3.221-1.515,3.217-3.188
			c-0.005-1.773-1.435-3.184-3.222-3.178c-1.785,0.006-3.193,1.41-3.188,3.208C60.804,24.661,62.153,26.208,63.993,26.193z
			 M64.024,32.058c-1.777-0.005-3.223,1.42-3.229,3.181c-0.006,1.768,1.419,3.183,3.213,3.19c1.75,0.007,3.186-1.405,3.203-3.148
			C67.227,33.521,65.784,32.063,64.024,32.058z M92.352,35.065c1.85,0.069,3.213-1.551,3.207-3.119
			c-0.008-1.811-1.365-3.222-3.153-3.233c-1.807-0.011-3.214,1.361-3.229,3.15C89.16,33.655,90.553,35.06,92.352,35.065z
			 M35.658,28.712c-1.769-0.012-3.171,1.37-3.21,3.124c-0.039,1.767,1.443,3.253,3.151,3.235c1.819-0.019,3.212-1.351,3.231-3.152
			C38.85,30.134,37.456,28.725,35.658,28.712z M76.965,96.968c0-0.688-0.56-1.265-1.244-1.276c-0.674-0.011-1.274,0.564-1.289,1.233
			c-0.014,0.687,0.595,1.313,1.274,1.313C76.37,98.238,76.963,97.64,76.965,96.968z M51.052,96.935
			c-0.031,0.669,0.536,1.276,1.214,1.303c0.652,0.025,1.276-0.558,1.309-1.225c0.033-0.688-0.554-1.306-1.254-1.321
			C51.639,95.676,51.085,96.22,51.052,96.935z M47.805,95.236c0.717-0.01,1.262-0.552,1.256-1.25
			c-0.006-0.684-0.581-1.255-1.263-1.256c-0.715-0.001-1.281,0.574-1.271,1.289C46.537,94.724,47.085,95.246,47.805,95.236z
			 M35.503,85.069c-0.007-0.689-0.577-1.261-1.254-1.259c-0.695,0.001-1.272,0.604-1.259,1.313c0.013,0.679,0.606,1.25,1.283,1.233
			C34.962,86.339,35.51,85.765,35.503,85.069z M85.973,91.011c-0.006-0.705-0.551-1.256-1.245-1.261
			c-0.708-0.006-1.261,0.578-1.245,1.312c0.016,0.691,0.594,1.252,1.271,1.235C85.449,92.278,85.979,91.719,85.973,91.011z
			 M95.019,85.089c-0.002-0.687-0.566-1.268-1.243-1.278c-0.7-0.012-1.281,0.58-1.271,1.294c0.011,0.694,0.58,1.259,1.264,1.253
			C94.449,86.351,95.021,85.771,95.019,85.089z M42.032,91.043c0.008,0.7,0.569,1.261,1.256,1.257
			c0.676-0.002,1.235-0.579,1.237-1.274c0.001-0.71-0.535-1.267-1.229-1.276C42.583,89.738,42.023,90.312,42.032,91.043z
			 M78.963,93.947c-0.024,0.726,0.477,1.263,1.199,1.289c0.722,0.023,1.288-0.481,1.316-1.175c0.029-0.726-0.517-1.312-1.229-1.325
			C79.538,92.722,78.986,93.241,78.963,93.947z M89.246,86.813c-0.714-0.002-1.266,0.526-1.275,1.221
			c-0.01,0.709,0.562,1.27,1.291,1.266c0.698-0.005,1.255-0.564,1.248-1.254C90.504,87.342,89.965,86.815,89.246,86.813z
			 M38.778,86.812c-0.712-0.008-1.271,0.521-1.283,1.212c-0.011,0.69,0.538,1.262,1.229,1.276c0.721,0.016,1.313-0.546,1.313-1.247
			C40.038,87.363,39.487,86.818,38.778,86.812z"/>
		<path fill-rule="evenodd" clip-rule="evenodd" d="M42.923,61.228c3.873,0.012,7.217,0.896,10.436,2.323
			c1.062,0.471,2.094,1.003,3.082,1.618c0.474,0.295,0.486,0.336-0.006,0.632c-1.055,0.635-2.146,1.198-3.274,1.695
			c-2.2,0.968-4.477,1.674-6.857,2.012c-2.882,0.408-5.735,0.24-8.562-0.478c-2.553-0.647-4.966-1.626-7.247-2.938
			c-0.24-0.138-0.468-0.294-0.707-0.438c-0.218-0.128-0.211-0.222,0.004-0.362c0.61-0.397,1.247-0.753,1.894-1.083
			c2.514-1.285,5.161-2.192,7.941-2.689C40.823,61.304,42.038,61.247,42.923,61.228z"/>
		<path fill-rule="evenodd" clip-rule="evenodd" d="M84.593,61.226c3.362,0.018,6.35,0.703,9.239,1.864
			c1.482,0.596,2.916,1.285,4.268,2.139c0.381,0.238,0.388,0.249,0.01,0.489c-1.641,1.05-3.402,1.855-5.231,2.519
			c-1.898,0.686-3.844,1.162-5.852,1.376c-2.03,0.219-4.055,0.137-6.062-0.226c-3.29-0.594-6.356-1.793-9.232-3.49
			c-0.682-0.401-0.679-0.4-0.003-0.812c2.676-1.625,5.551-2.733,8.611-3.39C81.824,61.377,83.322,61.264,84.593,61.226z"/>
	</g>
</g>
</svg>
