<?xml version="1.0" encoding="utf-8"?>
<!-- Generator: Adobe Illustrator 16.0.4, SVG Export Plug-In . SVG Version: 6.00 Build 0)  -->
<!DOCTYPE svg PUBLIC "-//W3C//DTD SVG 1.1//EN" "http://www.w3.org/Graphics/SVG/1.1/DTD/svg11.dtd">
<svg version="1.1" id="Layer_4504" xmlns="http://www.w3.org/2000/svg" xmlns:xlink="http://www.w3.org/1999/xlink" x="0px" y="0px"
	 width="128px" height="128px" viewBox="0 0 128 128" enable-background="new 0 0 128 128" xml:space="preserve">
<g>
	<g>
		<rect x="0.5" y="73.5" fill-rule="evenodd" clip-rule="evenodd" width="127" height="5"/>
	</g>
	<g id="a38COw.tif">
		<g>
			<path fill-rule="evenodd" clip-rule="evenodd" d="M126.494,71.834c0,0.16,0,0.322,0,0.48c-0.119,0.176-0.08,0.371-0.08,0.561
				c-0.004,0.961,0,1.924-0.003,2.883c-0.002,0.814,0.071,0.713-0.725,0.713c-12.961,0.004-25.919,0.004-38.879,0
				c-8.682,0-17.364-0.008-26.048-0.006c-9.482,0-18.966,0.006-28.45,0.008c-10.075,0.002-20.152-0.002-30.228-0.002
				c-0.192,0-0.384-0.014-0.576-0.021c0-4.807,0-9.614,0-14.421c0-0.032,0-0.065,0-0.096c0-0.738,0-1.475,0-2.211
				c0.129-0.175,0.124-0.392,0.152-0.589c0.105-0.75,0.366-1.44,0.722-2.1c0.064-0.12,0.097-0.284,0.293-0.256l0.01-0.009
				c-0.221,0.236-0.246,0.547-0.322,0.839c-0.233,0.892-0.263,1.801-0.241,2.715c0.001,0.052-0.036,0.141,0.064,0.142
				c0.021,0,0.055-0.075,0.062-0.118c0.024-0.157,0.062-0.306,0.188-0.417c0.064,0.139,0.009,0.284,0.021,0.426
				c0.007,0.085-0.047,0.228,0.058,0.238c0.072,0.007,0.083-0.154,0.104-0.243c0.122-0.529,0.229-1.064,0.458-1.562
				c0.167-0.363,0.371-0.7,0.758-0.875l-0.011-0.007c-0.031,0.17-0.192,0.285-0.197,0.466c-0.294,0.41-0.384,0.862-0.283,1.354
				c-0.204,0.417-0.131,0.867-0.156,1.306c-0.017,0.294,0.076,0.534,0.312,0.708c0.086,0.063,0.142,0.232,0.252,0.18
				c0.102-0.049,0.151-0.207,0.144-0.331c-0.039-0.586,0.098-1.225-0.471-1.666c-0.06-0.045-0.103-0.121-0.094-0.209
				c0.087-0.004,0.153,0.039,0.209,0.097c0.203,0.206,0.225,0.113,0.303-0.119c0.169-0.5-0.097-0.895-0.224-1.326
				c0.181,0.103,0.238,0.353,0.487,0.385c0.049,0.006-0.046,0.181,0.08,0.228c0.017-0.092,0.049-0.185,0.049-0.278
				c-0.001-1.374,0.017-2.749-0.517-4.055C3.66,54.515,3.587,54.38,3.658,54.23l-0.014-0.001c0.266,0.418,0.487,0.847,0.599,1.342
				c0.104,0.463,0.239,0.94,0.472,1.348c0.479,0.844,1.034,1.645,1.232,2.619c0.029,0.142,0.098,0.146,0.181,0.032
				c0.141-0.192,0.271-0.393,0.461-0.544l-0.008-0.013c-0.029,0.337-0.252,0.607-0.312,0.938c-0.031,0.164-0.051,0.31,0.032,0.459
				c0.021,0.038,0.052,0.088,0.09,0.024c0.021-0.036,0.014-0.091,0.019-0.138c0.1-0.066,0.1-0.132-0.005-0.194
				c0.285-0.243,0.378-0.611,0.59-0.903c0.137-0.187,0.219-0.431,0.469-0.518l-0.007-0.008c0.017,0.107-0.063,0.172-0.104,0.257
				c-0.566,1.147-0.762,2.312-0.125,3.5c0.112,0.21,0.166,0.488,0.43,0.581c0.068,0.023,0.315-0.765,0.28-0.929
				c-0.019-0.091-0.11-0.16-0.081-0.267l-0.001,0.013c0.239,0.053,0.257-0.112,0.275-0.278c0.005-0.047,0.01-0.109,0.068-0.104
				c0.022,0.002,0.053,0.074,0.055,0.115c0.013,0.175,0.005,0.352,0.027,0.526c0.01,0.074,0.079,0.145,0.164,0.155
				c0.031,0.004,0.078-0.042,0.104-0.074c0.271-0.353,0.29-0.83,0.051-1.182c-0.034-0.05-0.11-0.108-0.062-0.16
				c0.06-0.065,0.109,0.027,0.151,0.06c0.231,0.181,0.256-0.044,0.25-0.157c-0.014-0.224-0.135-0.422-0.254-0.612
				c-0.187-0.297-0.377-0.594-0.556-0.896c-0.044-0.072-0.169-0.168-0.071-0.236c0.068-0.047,0.149,0.087,0.208,0.16
				c0.202,0.248,0.401,0.498,0.603,0.747c0.151,0.188,0.253,0.167,0.309-0.071c0.067-0.281,0.16-0.555,0.203-0.839
				c0.085-0.555,0.435-0.989,0.649-1.485c0.018-0.039,0.046-0.1,0.102-0.077c0.052,0.021,0.039,0.083,0.024,0.129
				c-0.018,0.061-0.046,0.119-0.067,0.179c-0.346,0.924-0.497,1.884-0.523,2.866c-0.003,0.11-0.049,0.287,0.044,0.308
				c0.157,0.034,0.171-0.162,0.217-0.267c0.119-0.278,0.213-0.568,0.323-0.851c0.018-0.044-0.029-0.206,0.12-0.09
				c0.146,0.114,0.15,0.113,0.214-0.019c0.174-0.361,0.294-0.742,0.407-1.125c0.016-0.054,0.027-0.135,0.109-0.113
				c0.022,0.006,0.038,0.085,0.034,0.13c-0.034,0.529-0.131,1.045-0.347,1.534c-0.214,0.483-0.426,0.967-0.691,1.424
				c-0.075,0.127-0.091,0.25,0.028,0.341c0.137,0.103,0.203-0.055,0.267-0.121c0.459-0.47,0.861-0.986,1.228-1.534
				c0.147-0.222,0.173-0.397,0.083-0.659c-0.597-1.743-0.74-3.526-0.406-5.343c0.028-0.156,0.072-0.31,0.121-0.463
				c0.021-0.069,0.061-0.167,0.148-0.14c0.062,0.02,0.023,0.113,0.014,0.174c-0.047,0.317-0.111,0.632-0.135,0.95
				c-0.111,1.516,0.354,2.904,0.967,4.257c0.024,0.055,0.071,0.149,0.119,0.121c0.147-0.088,0.174-0.258,0.211-0.412
				c0.041-0.164-0.078-0.132-0.17-0.128l-0.018-0.016c0.182-0.249,0.01-0.506,0.019-0.759l-0.009,0.008
				c0.036,0.026,0.083,0.047,0.108,0.082c0.296,0.408,0.304,0.408,0.626,0.003c0.319-0.403,0.664-0.781,1.066-1.102
				c0.096-0.078,0.219-0.259,0.298-0.181c0.108,0.105-0.084,0.2-0.158,0.282c-0.438,0.493-0.789,1.047-1.136,1.604
				c-0.267,0.427-0.226,0.774,0.083,1.182c0.097,0.127,0.179,0.247,0.373,0.189c0.19-0.057,0.382-0.019,0.568,0.036
				c0.028,0.009,0.076,0.026,0.077,0.043c0.008,0.068-0.055,0.05-0.093,0.059c-0.178,0.045-0.449-0.078-0.52,0.104
				c-0.06,0.154,0.187,0.309,0.265,0.482c0.045,0.103,0.117,0.194,0.153,0.299c0.062,0.185,0.12,0.217,0.207,0.017
				c0.019-0.042,0.043-0.102,0.096-0.069c0.025,0.016,0.027,0.087,0.022,0.131c-0.014,0.143-0.04,0.286-0.055,0.429
				c-0.03,0.271-0.044,0.544,0.021,0.812c0.022,0.092,0.078,0.198,0.182,0.203c0.136,0.007,0.102-0.133,0.132-0.213
				c0.227-0.617,0.488-1.221,0.835-1.778c0.195-0.313,0.284-0.634,0.292-0.994c0.013-0.64,0.034-1.28,0.059-1.92
				c0.004-0.101-0.069-0.276,0.081-0.279c0.119-0.002,0.075,0.182,0.097,0.286c0.033,0.156,0.058,0.313,0.085,0.472
				c0.042,0.234,0.083,0.47,0.125,0.706c0.147-0.245,0.254-0.503,0.255-0.795c0-0.064,0.008-0.128,0.004-0.193
				c-0.013-0.217,0.211-0.048,0.276-0.166c0.017-0.03,0.098,0.009,0.028,0.193c-0.141,0.371,0,0.723,0.037,1.082
				c0.023,0.219,0.052,0.442,0.333,0.141c0.082-0.088,0.268-0.084,0.408-0.111c0.047-0.008,0.122-0.077,0.149,0.021
				c0.004,0.017-0.065,0.069-0.106,0.078c-0.387,0.088-0.448,0.333-0.379,0.686c0.072,0.361,0.096,0.729,0.145,1.095
				c0.064,0.478,0.196,0.928,0.485,1.33c0.089,0.124,0.184,0.085,0.27,0.083c0.104-0.004,0.088-0.121,0.066-0.184
				c-0.135-0.408-0.121-0.858-0.363-1.235c-0.038-0.059-0.131-0.15-0.052-0.202c0.064-0.041,0.134,0.063,0.172,0.131
				c0.202,0.362,0.398,0.728,0.599,1.091c0.029,0.053,0.087,0.146,0.105,0.141c0.104-0.035,0.049-0.13,0.046-0.199
				c-0.013-0.32-0.067-0.642-0.04-0.958c0.023-0.275-0.083-0.447-0.27-0.604l0.015-0.021c0.14-0.005,0.25-0.038,0.245-0.215
				c-0.005-0.207-0.01-0.415,0.005-0.62c0.041-0.549,0.056-1.083-0.465-1.453c-0.071-0.051-0.163-0.196-0.109-0.24
				c0.126-0.101,0.171,0.082,0.252,0.137c0.077,0.052,0.137,0.132,0.21,0.193c0.121,0.102,0.247,0.198,0.371,0.297
				c0.014-0.174-0.173-0.236-0.21-0.383c-0.008-0.031-0.024-0.06-0.036-0.088l-0.009,0.008c0.089-0.02,0.146,0.032,0.209,0.084
				c0.546,0.46,1.104,0.907,1.637,1.381c0.207,0.184,0.304,0.146,0.488-0.039c0.369-0.366,0.522-0.825,0.693-1.29
				c0.18-0.487,0.623-0.926,0.233-1.5c-0.013-0.018,0.004-0.056,0.008-0.084c0.027,0.008,0.08,0.016,0.08,0.024
				c0.004,0.27,0.616,0.15,0.371,0.581c-0.014,0.023,0.034,0.084,0.055,0.127c0.323,0.671,0.604,1.364,0.982,2.009
				c-0.018,0.145-0.062,0.293,0.075,0.41c0.016,0.043,0.026,0.047,0.032,0.013c-0.013-0.001-0.026-0.003-0.04-0.004
				c0.022-0.145,0.003-0.282-0.077-0.409c-0.084-0.785-0.358-1.521-0.58-2.271c-0.049-0.165-0.235-0.302-0.134-0.506
				c0.155,0.12,0.238,0.291,0.337,0.455c0.339,0.564,0.415,1.242,0.776,1.798c0.12,0.186,0.127,0.548,0.294,0.568
				c0.23,0.029,0.292-0.321,0.441-0.495c0.093-0.108,0.217-0.326,0.291-0.273c0.121,0.09-0.087,0.214-0.114,0.341
				c-0.02,0.09-0.089,0.169-0.126,0.257c-0.017,0.039-0.009,0.088-0.012,0.134c0.04-0.016,0.087-0.023,0.119-0.049
				c0.342-0.266,0.634-0.579,0.878-0.936c0.026-0.039,0.04-0.086,0.06-0.129c0.021,0.018,0.057,0.031,0.062,0.052
				c0.06,0.253,0.18,0.101,0.262,0.03c0.133-0.112,0.275-0.217,0.358-0.381c0.028-0.058,0.018-0.182,0.134-0.133
				c0.031,0.014,0.033,0.116,0.033,0.178c0,0.687-0.005,1.375-0.003,2.063c0,0.157-0.044,0.348,0.099,0.451
				c0.241,0.174,0.37,0.44,0.578,0.636c0.077,0.072,0.129,0.223,0.251,0.184c0.134-0.041,0.16-0.193,0.176-0.319
				c0.091-0.738,0.073-1.444-0.629-1.924l-0.009,0.009c0.176-0.041,0.303,0.063,0.442,0.14c0.122,0.068,0.219,0.281,0.343,0.213
				c0.154-0.083,0.083-0.317,0.133-0.48c0.02-0.064-0.032-0.15-0.05-0.228c-0.062-0.277-0.127-0.553-0.184-0.831
				c-0.009-0.041,0.021-0.088,0.033-0.132c0.033,0.032,0.08,0.058,0.1,0.097c0.124,0.254,0.242,0.512,0.361,0.769
				c0.034,0.074,0.069,0.152,0.165,0.137c0.077-0.012,0.071-0.093,0.084-0.153c0.109-0.485,0.195-0.971,0.021-1.461
				c-0.019-0.053-0.026-0.131,0.05-0.151c0.021-0.006,0.073,0.056,0.093,0.095c0.034,0.071,0.06,0.147,0.077,0.225
				c0.233,0.996,0.753,1.896,0.969,2.899c0.015,0.066,0.035,0.169,0.128,0.16c0.039-0.004,0.082-0.092,0.101-0.15
				c0.152-0.49,0.374-0.946,0.678-1.362c0.013,0.012,0.024,0.023,0.037,0.035c-0.063,0.279-0.134,0.556-0.188,0.836
				c-0.02,0.1-0.081,0.269,0.064,0.285c0.216,0.025,0.457,0.072,0.657-0.029c0.222-0.113,0.402-0.997,0.271-1.229
				c-0.371-0.647-0.761-1.286-1.195-1.894l-0.008,0.005c0.105-0.041,0.177,0.017,0.259,0.074c0.473,0.328,0.919,0.685,1.299,1.121
				c0.095,0.108,0.186,0.177,0.29-0.005c0.051-0.087,0.051-0.229,0.199-0.236c-0.012,0.107-0.018,0.217-0.037,0.323
				c-0.012,0.062-0.049,0.118-0.064,0.179c-0.016,0.062-0.02,0.142,0.042,0.172c0.079,0.041,0.103-0.043,0.132-0.095
				c0.532-0.956,0.983-1.936,0.943-3.07c-0.015-0.414,0.014-0.83-0.083-1.24c-0.023-0.102-0.069-0.293,0.008-0.309
				c0.136-0.026,0.115,0.161,0.142,0.251c0.201,0.691,0.354,1.388,0.348,2.118c-0.007,0.773-0.152,1.522-0.302,2.275
				c-0.018,0.087-0.115,0.231-0.028,0.256c0.124,0.036,0.144-0.132,0.183-0.228c0.04-0.104,0.065-0.213,0.102-0.32
				c0.389-1.162,0.348-2.359,0.29-3.557l-0.007,0.011c0.038,0.05,0.094,0.094,0.11,0.149c0.383,1.302,0.389,2.611,0.076,3.928
				c-0.059,0.246-0.081,0.503-0.106,0.756c-0.005,0.052,0.054,0.11,0.082,0.164c0.036-0.026,0.073-0.052,0.107-0.08
				c0.051-0.042,0.001-0.182,0.123-0.141c0.027,0.009,0.039,0.119,0.03,0.178c-0.045,0.319,0.089,0.561,0.328,0.751
				c0.084,0.067,0.173,0.209,0.268,0.172c0.144-0.058,0.055-0.224,0.055-0.339c-0.002-0.206-0.04-0.413-0.055-0.619
				c-0.046-0.645-0.304-1.238-0.437-1.86c0.017-0.016,0.034-0.03,0.051-0.045c0.392,0.643,0.695,1.322,0.892,2.052
				c0.033,0.12,0.015,0.369,0.174,0.34c0.176-0.033,0.131-0.258,0.108-0.417c-0.005-0.032-0.014-0.062-0.017-0.095
				c-0.059-0.673-0.25-1.314-0.453-1.954c-0.019-0.056-0.076-0.137-0.001-0.169c0.054-0.023,0.105,0.056,0.132,0.112
				c0.13,0.274,0.262,0.547,0.379,0.826c0.078,0.185,0.052,0.454,0.395,0.366c0.078-0.02,0.195,0.069,0.199,0.174
				c0.013,0.341,0.148,0.162,0.268,0.07c0.228-0.173,0.455-0.346,0.682-0.519l0.018,0.017c0.001,0.125-0.101,0.188-0.161,0.277
				c-0.265,0.387-0.561,0.76-0.614,1.251c-0.234,0.118-0.213,0.33-0.192,0.539c0.035,0.364,0.084,0.729,0.105,1.094
				c0.011,0.208,0.101,0.272,0.296,0.276c0.208,0.004,0.226-0.121,0.239-0.275c0.016-0.182-0.061-0.392,0.142-0.523
				c0.023,0.04-0.03,0.101,0.034,0.13c-0.013-0.04-0.025-0.08-0.039-0.119c-0.021-0.416-0.368-0.674-0.501-1.036
				c0.613,0.371,0.999,0.877,0.985,1.628c-0.002,0.044,0.02,0.091,0.03,0.136c0.023-0.039,0.058-0.076,0.068-0.118
				c0.073-0.284,0.238-0.521,0.396-0.758c0.149-0.224,0.176-0.425,0.061-0.672c-0.127-0.272-0.233-0.557-0.309-0.846
				c-0.019-0.076-0.125-0.243,0.016-0.289c0.093-0.032,0.112,0.132,0.155,0.212c0.09,0.17,0.172,0.343,0.259,0.515
				c0.035,0.071,0.072,0.158,0.157,0.163c0.103,0.006,0.104-0.106,0.138-0.171c0.215-0.404,0.261-0.812,0.021-1.227
				c-0.032-0.054-0.063-0.119,0-0.17c0.007-0.005,0.067,0.052,0.1,0.084c0.265,0.264,0.373,0.261,0.467-0.1
				c0.121-0.458,0.347-0.859,0.573-1.26c0.109-0.192,0.253-0.366,0.301-0.586c0.248-1.148,0.95-2.084,1.455-3.111
				c0.048-0.097,0.143-0.169,0.216-0.253l-0.009-0.011c0.012,0.249-0.114,0.462-0.192,0.684c-0.448,1.29-0.521,2.62-0.463,3.966
				c0.003,0.086-0.042,0.221,0.078,0.244c0.104,0.021,0.131-0.118,0.187-0.188c0.127-0.162,0.217-0.354,0.384-0.484
				c0.014,0.011,0.025,0.022,0.039,0.033c-0.111,0.382-0.318,0.724-0.484,1.082c-0.08,0.175-0.118,0.32-0.094,0.531
				c0.07,0.62,0.247,1.21,0.405,1.807c0.136,0.512,0.18,0.537,0.669,0.453l-0.006-0.01c-0.255,0.195-0.312,0.423-0.121,0.699
				c0.045,0.064,0.061,0.148,0.097,0.219c0.05,0.102-0.007,0.309,0.14,0.286c0.073-0.01-0.048-0.221-0.055-0.345
				c-0.005-0.085-0.107-0.247-0.029-0.238c0.486,0.064,0.215-0.313,0.278-0.473c0.087-0.22-0.081-0.468,0.004-0.705
				c0.241,0.189,0.194,0.481,0.266,0.732c0.016,0.054-0.015,0.152,0.08,0.139c0.048-0.006,0.104-0.072,0.129-0.124
				c0.312-0.629,0.189-1.106-0.387-1.526c-0.05-0.037-0.097-0.077-0.146-0.116l0.018-0.021c0.172-0.038,0.294,0.07,0.435,0.139
				c0.193,0.094,0.357,0.267,0.598,0.248l-0.011,0.004c0.125,0.05,0.297,0.386,0.353,0.041c0.029-0.179,0.057-0.25,0.174-0.372
				c0.144-0.146,0.194-0.357,0.044-0.567c-0.159-0.221-0.305-0.462-0.525-0.616c-0.469-0.33-0.785-0.784-1.103-1.243
				c0.02-0.018,0.039-0.037,0.059-0.055c0.098,0.03,0.168,0.097,0.223,0.176c0.282,0.403,0.691,0.667,1.085,0.934
				c0.561,0.38,0.637,0.332,0.66-0.344c0.018-0.512,0.013-1.024,0.021-1.536c0-0.046,0.018-0.131,0.03-0.132
				c0.094-0.006,0.061,0.079,0.071,0.126c0.162,0.754,0.241,1.515,0.219,2.288c-0.002,0.056-0.034,0.145,0.037,0.158
				c0.071,0.013,0.089-0.073,0.1-0.137c0.037-0.22,0.075-0.439,0.112-0.661c0.098-0.603,0.105-1.21,0.096-1.82
				c-0.002-0.149-0.037-0.31,0.06-0.449c0.049,0.148,0.109,0.295,0.146,0.447c0.209,0.847,0.215,1.709,0.197,2.576
				c-0.006,0.298-0.225,0.647-0.01,0.877c0.191,0.204,0.53,0.272,0.809,0.39c0.222,0.094,0.479,0.194,0.68,0.034
				c0.2-0.161,0.175-0.441,0.129-0.677c-0.071-0.361-0.172-0.713-0.285-1.064c-0.216-0.669-0.407-1.347-0.606-2.021
				c-0.021-0.074-0.076-0.189-0.009-0.22c0.069-0.032,0.097,0.093,0.136,0.153c0.254,0.388,0.465,0.8,0.654,1.223
				c0.023,0.057,0.071,0.156,0.094,0.152c0.096-0.016,0.099-0.113,0.104-0.19c0.029-0.372,0.147-0.719,0.287-1.06
				c0.033-0.083,0.052-0.22,0.163-0.185c0.078,0.025,0.003,0.142-0.014,0.215c-0.154,0.694-0.187,1.394-0.109,2.1
				c0.015,0.132,0,0.383,0.156,0.349c0.377-0.084,0.123,0.109,0.098,0.185c-0.027,0.082-0.055,0.167,0.023,0.216
				c0.101,0.063,0.149-0.042,0.164-0.105c0.121-0.532,0.576-0.834,0.854-1.258c0.032-0.048,0.072-0.135,0.14-0.091
				c0.061,0.042,0.005,0.117-0.023,0.169c-0.257,0.46-0.521,0.915-0.73,1.402c-0.152,0.355-0.194,0.702-0.08,1.068
				c0.094,0.306,0.185,0.613,0.291,0.914c0.032,0.092,0.032,0.267,0.183,0.229c0.094-0.024,0.139-0.168,0.153-0.281
				c0.016-0.131-0.027-0.252-0.072-0.374c-0.061-0.165-0.111-0.334-0.166-0.5c-0.014-0.044-0.034-0.094,0.02-0.123
				c0.011-0.005,0.052,0.033,0.069,0.058c0.037,0.053,0.062,0.113,0.102,0.163c0.083,0.108,0.107,0.303,0.29,0.277
				c0.192-0.027,0.213-0.208,0.249-0.367c0.2-0.89,0.384-1.781,0.478-2.689c0.007-0.06,0.032-0.12,0.049-0.179
				c0.057,0.045,0.05,0.112,0.051,0.171c0.007,0.496,0.007,0.992,0.017,1.488c0.004,0.172-0.083,0.429,0.045,0.496
				c0.156,0.081,0.265-0.175,0.406-0.267c0.132-0.086,0.219-0.238,0.391-0.265l0.03,0.033c-0.109,0.237-0.302,0.419-0.486,0.583
				c-0.394,0.351-0.431,0.785-0.396,1.254c0.005,0.071-0.04,0.173,0.062,0.202c0.066,0.018,0.1-0.062,0.134-0.113
				c0.559-0.813,1.151-1.612,1.316-2.618c0.032-0.194,0.078-0.234,0.22-0.109c0.201,0.175,0.43,0.324,0.581,0.553
				c0.006,0.059,0.013,0.118,0.021,0.177c0,0,0.017-0.002,0.024-0.003c-0.019-0.055-0.036-0.109-0.055-0.164
				c-0.036-0.542-0.241-1.051-0.314-1.586c-0.019-0.134-0.166-0.338-0.03-0.386c0.131-0.047,0.158,0.196,0.21,0.319
				c0.239,0.588,0.469,1.18,0.706,1.768c0.028,0.071,0.002,0.226,0.156,0.167c0.144-0.056,0.242-0.523,0.162-0.715
				c-0.02-0.019-0.038-0.038-0.058-0.057c0.073-0.105,0.168-0.243,0.291-0.205c0.167,0.05,0.12,0.238,0.123,0.374
				c0.009,0.453-0.152,0.869-0.302,1.286c-0.085,0.059-0.035,0.088,0.026,0.114c-0.033,0.394,0.162,0.746,0.195,1.126
				c0.02,0.215,0.095,0.328,0.327,0.294c0.209-0.03,0.422-0.032,0.413-0.34c-0.013-0.408,0.094-0.841-0.305-1.148
				c-0.032-0.024-0.055-0.078-0.06-0.121c-0.003-0.037,0.05-0.056,0.072-0.027c0.172,0.229,0.553,0.223,0.648,0.483
				c0.126,0.341,0.317,0.666,0.344,1.042c0.004,0.055-0.015,0.121,0.045,0.162c0.03-0.054,0.078-0.106,0.086-0.164
				c0.073-0.522,0.126-1.047,0.211-1.566c0.048-0.288,0.005-0.464-0.331-0.461c-0.066,0.001-0.177,0.02-0.159-0.102
				c0.003-0.025,0.111-0.057,0.166-0.049c0.297,0.042,0.487-0.071,0.569-0.358c0.072-0.252,0.283-0.485,0.132-0.771
				c-0.318-0.6-0.479-1.296-1.06-1.736c-0.062-0.047-0.112-0.113-0.163-0.175c-0.028-0.035-0.074-0.098-0.063-0.118
				c0.056-0.09,0.116-0.008,0.149,0.024c0.294,0.287,0.674,0.479,0.887,0.857c0.116,0.206,0.296,0.375,0.439,0.568
				c0.13,0.177,0.212,0.133,0.303-0.037c0.118-0.222,0.193-0.475,0.403-0.639l-0.006-0.008c0.011,0.315-0.168,0.578-0.24,0.87
				c-0.041,0.165-0.139,0.333-0.014,0.505c0.056,0.078,0.098,0.19,0.199,0.191c0.109,0.001,0.124-0.122,0.165-0.205
				c0.229-0.448,0.276-0.949,0.425-1.421c0.354-1.129,0.528-2.272,0.329-3.453c-0.007-0.047-0.01-0.095-0.02-0.143
				c-0.008-0.045-0.041-0.101,0.011-0.126c0.019-0.01,0.085,0.038,0.104,0.073c0.045,0.084,0.084,0.174,0.108,0.266
				c0.296,1.113,0.376,2.231,0.154,3.374c-0.129,0.665-0.403,1.327-0.168,2.025c0.018,0.056,0,0.125,0.06,0.165
				c0.025-0.056,0.045-0.112,0.073-0.164c0.03-0.055,0.07-0.152,0.1-0.15c0.115,0.008,0.067,0.118,0.076,0.184
				c0.062,0.459,0.117,0.919,0.181,1.378c0.007,0.05-0.01,0.144,0.083,0.136c0.035-0.002,0.07-0.057,0.098-0.094
				c0.175-0.231,0.288-0.498,0.418-0.753c0.032-0.064,0.091-0.115,0.137-0.172c0.04,0.08,0.001,0.155-0.01,0.232
				c-0.033,0.258-0.155,0.486-0.235,0.728c-0.045,0.135,0.178,0.59,0.293,0.581c0.175-0.013,0.183-0.197,0.239-0.313
				c0.249-0.505,0.12-1.037,0.08-1.557c-0.05-0.641-0.249-1.254-0.377-1.881c-0.014-0.066-0.067-0.142,0.016-0.205
				c0.037,0.051,0.086,0.096,0.112,0.152c0.273,0.579,0.512,1.171,0.722,1.777c0.053,0.153,0.017,0.418,0.201,0.429
				c0.153,0.01,0.227-0.243,0.343-0.373c0.127-0.143,0.015-0.232-0.078-0.317c-0.128-0.12-0.277-0.218-0.39-0.351
				c-0.1-0.118-0.219-0.232-0.261-0.395c0.204-0.036,0.244,0.167,0.364,0.252c0.104,0.074,0.185,0.18,0.29,0.25
				c0.168,0.11,0.346,0.257,0.534,0.016c0.024-0.03,0.106-0.063,0.118-0.052c0.069,0.069-0.014,0.113-0.05,0.146
				c-0.216,0.205-0.078,0.329,0.089,0.458c0.304,0.236,0.607,0.471,0.874,0.751s0.376,0.26,0.51-0.099
				c0.072-0.194,0.126-0.397,0.056-0.61c-0.051-0.154-0.05-0.315-0.035-0.476l-0.009,0.008c0.19,0.178,0.187,0.469,0.381,0.644
				c0.014,0.015,0.029,0.029,0.044,0.043c0.12,0.026,0.118-0.069,0.148-0.14c0.209-0.483,0.4-0.976,0.637-1.445
				c0.184-0.363,0.275-0.702,0.04-1.071c-0.03-0.048-0.047-0.167-0.033-0.173c0.101-0.044,0.115,0.058,0.16,0.114
				c0.237,0.284,0.305,0.28,0.468-0.061c0.075-0.156,0.123-0.328,0.165-0.498c0.188-0.784,0.564-1.49,0.914-2.206
				c0.026-0.053,0.05-0.18,0.15-0.135c0.052,0.023,0.005,0.114-0.015,0.174c-0.122,0.379-0.257,0.755-0.364,1.139
				c-0.304,1.086-0.406,2.196-0.354,3.319c0.003,0.078-0.013,0.181,0.073,0.212c0.111,0.042,0.16-0.067,0.215-0.139
				c0.031-0.038,0.048-0.085,0.081-0.119c0.128-0.138,0.178-0.339,0.358-0.431c0.071,0.229-0.088,0.401-0.196,0.545
				c-0.365,0.484-0.321,0.954-0.052,1.452c0.084,0.154,0.147,0.204,0.256,0.033c0.189-0.297,0.37-0.598,0.461-0.942
				c0.038-0.146-0.041-0.161-0.156-0.128l-0.03-0.03c0.105-0.167,0.137-0.514,0.451-0.177c0.024,0.025,0.161-0.054,0.246-0.084
				l-0.009-0.01c-0.166,0.477-0.398,0.931-0.478,1.439c-0.021,0.133-0.121,0.26-0.207,0.372c-0.161,0.211-0.198,0.42-0.078,0.667
				c0.076,0.155,0.101,0.335,0.165,0.498c0.037,0.096,0.05,0.282,0.177,0.244c0.192-0.056,0.518,0.035,0.562-0.156
				c0.097-0.416,0.346-0.838,0.119-1.288c0.021-0.023,0.043-0.046,0.066-0.07c0.145,0.002,0.125-0.115,0.141-0.203
				c0.113-0.612,0.217-1.227,0.34-1.838c0.034-0.169,0.008-0.352,0.107-0.507c0.128,0.162,0.077,0.354,0.078,0.531
				c0.008,0.704-0.004,1.407,0.001,2.111c0.001,0.154-0.027,0.448,0.028,0.44c0.21-0.03,0.12-0.28,0.195-0.428
				c0.069-0.139,0.081-0.308,0.123-0.462c0.021-0.074,0.053-0.176,0.144-0.145c0.071,0.023,0.005,0.11-0.006,0.167
				c-0.046,0.267-0.138,0.527-0.105,0.804c0.01,0.09-0.041,0.229,0.058,0.258c0.143,0.041,0.159-0.119,0.203-0.211
				c0.414-0.875,0.62-1.808,0.771-2.756c0.113-0.699,0.094-1.403,0.09-2.107c0-0.06-0.011-0.155,0.052-0.162
				c0.078-0.009,0.069,0.091,0.087,0.148c0.126,0.396,0.117,0.82,0.267,1.21c0.028,0.789-0.105,1.594,0.217,2.355
				c0.031,0.077,0.036,0.216,0.167,0.171c0.08-0.027,0.062-0.135,0.048-0.214c-0.016-0.079-0.04-0.155-0.054-0.233
				c-0.125-0.69-0.336-1.367-0.295-2.081c0.188,0.261,0.21,0.591,0.364,0.867c0.022,0.042,0.035,0.118,0.062,0.123
				c0.057,0.009,0.045-0.058,0.056-0.097c0.013-0.057-0.017-0.149,0.07-0.147c0.031,0,0.073,0.1,0.084,0.159
				c0.084,0.438,0.162,0.877,0.243,1.315c0.013,0.078,0.018,0.193,0.092,0.207c0.12,0.021,0.059-0.108,0.086-0.166
				c0.035-0.071,0.072-0.112,0.109-0.011c0.024,0.073,0.02,0.157,0.03,0.235c0.062,0.458,0.103,0.92,0.188,1.373
				c0.056,0.286,0.274,0.493,0.467,0.705c0.14-0.263,0.009-0.505-0.059-0.752c-0.012-0.045-0.036-0.088-0.055-0.132l-0.004,0.009
				c0.137-0.164,0.104-0.361,0.111-0.551c0.016-0.416,0.031-0.832,0.114-1.24c0.011-0.058,0.068-0.153,0.095-0.151
				c0.115,0.012,0.069,0.118,0.064,0.181c-0.034,0.417-0.039,0.837,0.049,1.244c0.041,0.192,0.006,0.42,0.176,0.577
				c0.081-0.193,0.023-0.396,0.048-0.593c0.024-0.199-0.13-0.391-0.016-0.591c0.19,0.137,0.168,0.369,0.237,0.558
				c0.055,0.15,0.113,0.25,0.295,0.254c0.197,0.004,0.294-0.086,0.341-0.264c0.061-0.232,0.104-0.471,0.196-0.691
				c0.159-0.384,0.077-0.668-0.264-0.909c-0.219-0.156-0.421-0.348-0.479-0.636l-0.011,0.009l0.039-0.01l0.04,0.004
				c0.043,0.035,0.086,0.07,0.127,0.106c0.028,0.03,0.058,0.061,0.086,0.092c0.035-0.007,0.039,0.001,0.007,0.025
				c-0.001-0.011-0.002-0.022-0.003-0.032c-0.032-0.025-0.066-0.05-0.1-0.075c-0.043-0.036-0.085-0.072-0.129-0.107
				c0.003-0.295-0.272-0.409-0.403-0.616c-0.024-0.038-0.064-0.106-0.052-0.121c0.062-0.072,0.11,0.003,0.154,0.038
				c0.373,0.297,0.715,0.631,1.007,1.008c0.188,0.244,0.255,0.236,0.394-0.043c0.163-0.329,0.228-0.728,0.577-0.945l-0.011-0.009
				c0.022,0.246-0.135,0.444-0.187,0.671c-0.04,0.167-0.128,0.325,0.005,0.486c-0.207,0.031-0.224,0.212-0.26,0.358
				c-0.062,0.24,0.137,0.336,0.292,0.439c0.161,0.108,0.224-0.055,0.305-0.139c0.185-0.188-0.036-0.271-0.11-0.39
				c-0.041-0.065-0.13-0.092-0.146-0.18c0.062,0.009,0.129,0.007,0.187,0.03c0.378,0.153,0.377,0.155,0.513-0.228
				c0.021-0.06,0.042-0.12,0.061-0.182c0.33-1.121,0.337-2.266,0.264-3.419c-0.004-0.062-0.071-0.147,0.025-0.187
				c0.014-0.006,0.086,0.09,0.104,0.148c0.212,0.658,0.322,1.331,0.319,2.023c-0.002,0.837-0.145,1.651-0.364,2.456
				c-0.028,0.104-0.074,0.232,0.032,0.312c0.129,0.094,0.185-0.081,0.285-0.106c0.02,0.018,0.038,0.036,0.056,0.056
				c-0.106,0.177-0.112,0.317,0.034,0.507c0.25,0.325,0.604,0.449,0.947,0.617c0.23,0.115,0.321,0.037,0.357-0.181
				c0.018-0.108,0.026-0.221,0.022-0.331c-0.027-0.847-0.105-1.683-0.418-2.482c-0.029-0.079-0.112-0.204-0.02-0.252
				c0.097-0.051,0.101,0.143,0.203,0.16c0.006,0.026,0.002,0.06,0.019,0.08c0.02,0.023,0.048,0.005,0.036-0.031
				c-0.005-0.018-0.042-0.028-0.063-0.041c0.017-0.215-0.086-0.402-0.143-0.6c-0.033-0.117-0.191-0.265-0.085-0.333
				c0.086-0.055,0.17,0.146,0.237,0.243c0.111,0.156,0.189,0.333,0.239,0.52c0.116,0.434,0.326,0.83,0.521,1.229
				c0.247,0.505,0.259,0.499,0.651,0.12c0.092-0.088,0.194-0.166,0.289-0.25c0.036-0.033,0.077-0.079,0.122-0.051
				c0.086,0.052,0.021,0.121-0.017,0.157c-0.257,0.249-0.406,0.569-0.58,0.872c-0.04,0.069-0.076,0.158,0.037,0.194
				c0.055,0.017,0.169-0.226,0.177,0.046c0.003,0.129-0.104,0.335,0.062,0.372c0.115,0.026,0.172-0.201,0.257-0.312
				c0.097-0.13,0.133-0.293,0.212-0.426c0.163-0.274,0.251-0.628,0.636-0.711l-0.013-0.006c-0.153,0.313-0.302,0.63-0.461,0.941
				c-0.182,0.355-0.226,0.761-0.418,1.113c-0.062,0.113-0.044,0.29,0.077,0.338c0.139,0.054,0.15-0.126,0.201-0.212
				c0.09-0.153,0.196-0.288,0.313-0.418c0.337-0.372,0.529-0.83,0.73-1.279c0.061-0.132,0.061-0.26-0.154-0.206l0.006,0.008
				c0.059-0.395,0.603-0.531,0.531-0.995c-0.002-0.009,0.071-0.041,0.074-0.036c0.026,0.034,0.06,0.075,0.06,0.114
				c0.007,0.304,0.005,0.609,0.01,0.914c0.001,0.057-0.019,0.144,0.064,0.154c0.084,0.009,0.075-0.079,0.1-0.133
				c0.353-0.768,0.574-1.596,1.07-2.299c0.25-0.352,0.428-0.732,0.522-1.17c0.153-0.701,0.354-1.396,0.753-2.01
				c0.041-0.063,0.107-0.109,0.163-0.164c0.039,0.086-0.029,0.148-0.051,0.221c-0.358,1.132-0.662,2.273-0.617,3.479
				c0.011,0.269,0.083,0.498,0.2,0.729c0.067,0.128,0.131,0.118,0.208,0.025c0.053-0.06,0.095-0.13,0.148-0.189
				c0.043-0.044,0.122-0.12,0.141-0.108c0.076,0.045,0.021,0.12-0.012,0.163c-0.319,0.425-0.281,0.844-0.02,1.284
				c0.097,0.162,0.124,0.362,0.185,0.544c0.04,0.12,0.08,0.351,0.133,0.333c0.134-0.046,0.047-0.238,0.108-0.357
				c0.088-0.175-0.015-0.424,0.211-0.546c0.084,0.175-0.043,0.342-0.018,0.516c0.005,0.032-0.008,0.066,0.001,0.095
				c0.025,0.08-0.068,0.217,0.078,0.228c0.074,0.006,0.118-0.105,0.135-0.181c0.023-0.108,0.027-0.222,0.03-0.333
				c0.006-0.352,0.008-0.705,0.014-1.058c0.002-0.058-0.015-0.154,0.05-0.158c0.066-0.003,0.071,0.095,0.078,0.154
				c0.062,0.525,0.121,1.049,0.182,1.574c0.008,0.057-0.017,0.151,0.064,0.151c0.076,0,0.063-0.093,0.071-0.153
				c0.01-0.079,0.011-0.161,0.028-0.238c0.007-0.043,0.039-0.081,0.06-0.121c0.021,0.041,0.054,0.08,0.062,0.123
				c0.018,0.077,0.024,0.158,0.031,0.238c0.049,0.69,0.217,1.357,0.414,2.017c0.016,0.053-0.005,0.131,0.077,0.153
				c0.006-0.032,0.017-0.062,0.017-0.093c0.007-0.289,0.002-0.577,0.022-0.863c0.011-0.151-0.267-0.207-0.161-0.279
				c0.267-0.183-0.069-0.259-0.031-0.385l-0.009,0.008c0.242,0.098,0.428,0.106,0.501-0.222c0.038-0.174,0.107-0.36,0.277-0.471
				c-0.005,0.096-0.009,0.193-0.013,0.291c-0.021,0.04-0.109,0.071-0.019,0.128c0.004-0.046,0.007-0.091,0.009-0.137
				c0.148-0.085,0.097-0.18,0.013-0.275c0.254-0.313,0.179-0.616-0.023-0.918c-0.285-0.424-0.571-0.843-0.921-1.216
				c-0.04-0.042-0.119-0.099-0.069-0.153c0.051-0.054,0.111,0.02,0.155,0.058c0.384,0.333,0.768,0.67,1.043,1.106
				c0.043,0.066,0.076,0.153,0.17,0.136c0.092-0.016,0.119-0.104,0.123-0.183c0.005-0.077-0.013-0.157-0.022-0.235
				c0.019-0.018,0.036-0.037,0.055-0.055c0.289-0.356,0.422-0.76,0.381-1.223c-0.02-0.238-0.02-0.479-0.021-0.72
				c-0.002-0.062,0.02-0.176,0.032-0.177c0.103-0.003,0.117,0.094,0.132,0.164c0.145,0.689,0.271,1.381,0.254,2.091
				c-0.002,0.142,0.007,0.287,0.029,0.428c0.013,0.081,0.086,0.15,0.165,0.153c0.04,0.002,0.099-0.076,0.122-0.128
				c0.152-0.337,0.268-0.686,0.309-1.054c0.105-0.937,0.293-1.871,0.103-2.819c-0.013-0.063-0.046-0.167,0.063-0.186
				c0.021-0.003,0.068,0.096,0.088,0.152c0.276,0.814,0.386,1.65,0.308,2.507c-0.056,0.606-0.13,1.208-0.31,1.794
				c-0.051,0.17-0.084,0.343,0.098,0.478c0.122,0.092,0.209,0.167,0.236-0.07c0.022-0.206,0.067-0.41,0.106-0.615
				c0.013-0.064,0.052-0.142,0.118-0.126c0.074,0.017,0.049,0.105,0.046,0.167c-0.009,0.175-0.022,0.351-0.025,0.525
				c-0.001,0.075-0.02,0.177,0.08,0.195c0.034,0.006,0.089-0.076,0.126-0.123c0.124-0.159,0.194-0.372,0.428-0.42l-0.012-0.008
				c-0.045,0.273-0.287,0.471-0.29,0.76c-0.009,0.009-0.022,0.017-0.028,0.029c-0.005,0.006,0.002,0.019,0.002,0.028
				c0.007-0.022,0.012-0.043,0.018-0.065c0.224-0.051,0.284-0.297,0.471-0.394c0.02,0.02,0.039,0.041,0.061,0.061
				c-0.159,0.258-0.32,0.515-0.474,0.776c-0.021,0.035-0.026,0.097-0.01,0.133c0.028,0.065,0.079,0.014,0.12,0
				c0.075-0.023,0.154-0.072,0.227-0.063c0.346,0.048,0.41-0.129,0.364-0.418c-0.124-0.771-0.097-1.566-0.38-2.312
				c-0.027-0.069-0.099-0.185-0.032-0.215c0.116-0.055,0.146,0.082,0.175,0.16c0.219,0.582,0.441,1.163,0.639,1.753
				c0.079,0.234,0.143,0.27,0.292,0.064c0.075-0.103,0.143-0.216,0.231-0.306c0.223-0.228,0.278-0.462,0.16-0.778
				c-0.19-0.507-0.293-1.046-0.521-1.541c-0.071-0.152-0.027-0.206,0.134-0.174c-0.005,0.079,0.012,0.146,0.088,0.185l-0.009,0.009
				c0.004-0.077,0.016-0.158-0.079-0.194c0.014-0.173,0.046-0.254,0.183-0.057c0.382,0.551,0.538,1.201,0.8,1.804L90.448,58
				c0.023,0.424,0.029,0.436,0.355,0.262c0.201-0.105,0.261-0.003,0.294,0.157c0.041,0.19,0.004,0.377-0.04,0.565
				c-0.031,0.139-0.072,0.281-0.012,0.42c0.047,0.112,0.131,0.219,0.236,0.071c0.193-0.269,0.419-0.519,0.494-0.858
				c0.035-0.166-0.137-0.364-0.049-0.447c0.117-0.113,0.166,0.244,0.357,0.155c0.027-0.013,0.058-0.022,0.089-0.034l-0.012-0.011
				c-0.095,0.359-0.026,0.687,0.172,0.999c0.102,0.161,0.19,0.159,0.27,0.001c0.1-0.198,0.183-0.407,0.218-0.629
				c0.049-0.314,0.092-0.629,0.146-0.943c0.015-0.087,0.018-0.221,0.12-0.23c0.053-0.004,0.044,0.136,0.054,0.213
				c0.004,0.033,0,0.065,0.004,0.096c0.008,0.057-0.021,0.144,0.053,0.157c0.07,0.013,0.092-0.07,0.122-0.124
				c0.143-0.249,0.276-0.494,0.328-0.786c0.089-0.517,0.188-1.035,0.328-1.539c0.183-0.653,0.42-1.29,0.91-1.793l-0.002-0.01
				c-0.172,0.597-0.423,1.17-0.54,1.786c-0.155,0.819-0.273,1.64-0.235,2.476c0.002,0.059-0.023,0.143,0.047,0.164
				c0.072,0.022,0.103-0.057,0.138-0.107c0.153-0.224,0.307-0.447,0.463-0.67c0.036-0.051,0.104-0.125,0.146-0.067
				c0.028,0.042-0.025,0.145-0.043,0.221c-0.14,0.281-0.463,0.506-0.27,0.887c-0.165-0.018-0.255,0.048-0.313,0.214
				c-0.134,0.382-0.066,0.753,0.028,1.122c0.045,0.182,0.123,0.07,0.184-0.001c0.433-0.528,0.449-0.784,0.087-1.345
				c0.159-0.004,0.302-0.004,0.277-0.242c-0.022-0.214-0.006-0.432-0.006-0.647c0.165,0.146,0.183,0.363,0.261,0.55
				c0.166,0.396,0.188,0.419,0.604,0.572c0.066,0.023,0.092,0.085,0.097,0.15c0.015,0.126,0.008,0.255,0.033,0.378
				c0.035,0.166,0.118-0.025,0.177,0.013l-0.008-0.011c0.05,0.184-0.062,0.336-0.097,0.502c-0.024,0.107-0.083,0.219-0.066,0.319
				c0.038,0.233,0.116,0.459,0.329,0.603c0.034,0.023,0.089,0.052,0.106-0.023c0.058-0.233-0.023-0.43-0.162-0.612l-0.007,0.009
				c0.062,0.016,0.118,0.044,0.18,0.047c0.181,0.009,0.237,0.377,0.453,0.19c0.138-0.117,0.209-0.317,0.284-0.492
				c0.073-0.167,0.01-0.344-0.021-0.517c-0.22-1.214-0.157-2.41,0.246-3.582c0.025-0.068,0.022-0.167,0.133-0.149
				c0.013,0.001,0.002,0.115,0.006,0.177c0.035,0.41-0.192,0.812-0.028,1.225c-0.163,0.377-0.021,0.747,0.03,1.119
				c0.005,0.033,0.064,0.06,0.098,0.088c0.013-0.028,0.035-0.055,0.039-0.084c0.008-0.063,0.005-0.127,0.012-0.19
				c0.007-0.061-0.005-0.159,0.061-0.159c0.061-0.001,0.052,0.103,0.075,0.16c0.079,0.189,0.028,0.42,0.171,0.586
				c0.049,0.057,0.126,0.118,0.194,0.123c0.1,0.009,0.086-0.109,0.117-0.174c0.101-0.208-0.027-0.356-0.124-0.524
				c-0.17-0.3-0.51-0.485-0.583-0.851c0.216,0.117,0.363,0.311,0.541,0.469c0.06,0.053,0.115,0.152,0.191,0.125
				c0.099-0.033,0.104-0.149,0.105-0.245c0.007-0.352,0.005-0.704,0.021-1.056c0.009-0.195-0.072-0.401,0.052-0.587
				c0.105,0.182,0.127,0.386,0.165,0.585c0.112,0.566,0.187,1.136,0.19,1.714c0.001,0.106-0.035,0.256,0.099,0.294
				c0.18,0.051,0.184-0.142,0.237-0.239c0.067-0.125,0.108-0.266,0.146-0.403c0.063-0.219,0.164-0.416,0.292-0.602
				c0.035-0.052,0.062-0.135,0.13-0.125c0.066,0.009,0.073,0.094,0.084,0.154c0.031,0.141,0.062,0.281,0.081,0.423
				c0.017,0.129,0.038,0.255,0.129,0.354c0.052,0.058,0.12,0.133,0.187,0.138c0.085,0.006,0.109-0.096,0.13-0.175
				c0.028-0.107,0.063-0.214,0.092-0.322c0.265-1.032,0.39-2.074,0.174-3.134c-0.011-0.059-0.059-0.146,0.01-0.172
				c0.063-0.022,0.098,0.063,0.117,0.125c0.153,0.471,0.309,0.943,0.319,1.445c0.005,0.21,0.005,0.433,0.113,0.607
				c0.374,0.6,0.644,1.25,0.938,1.887c0.023,0.052,0.043,0.12,0.121,0.102c0.008-0.002,0.004-0.087-0.009-0.129
				c-0.098-0.337-0.146-0.688-0.32-1c-0.036-0.064-0.097-0.156,0.003-0.204c0.075-0.037,0.092,0.062,0.127,0.111
				c0.309,0.413,0.704,0.741,1.078,1.086c0.225,0.206,0.495,0.314,0.754,0.018c0.049-0.055,0.123-0.156,0.185-0.106
				c0.095,0.077,0.006,0.185-0.05,0.249c-0.19,0.22-0.144,0.392,0.066,0.563c0.098,0.081,0.17,0.191,0.253,0.289
				c0.142,0.169,0.216,0.089,0.237-0.075c0.036-0.254,0.031-0.504-0.068-0.755c-0.252-0.638-0.367-1.324-0.662-1.949
				c-0.022-0.049-0.059-0.142,0.016-0.166c0.064-0.021,0.086,0.077,0.124,0.124c0.245,0.303,0.367,0.672,0.55,1.007
				c0.041,0.074,0.074,0.25,0.147,0.193c0.246-0.19,0.2,0.057,0.193,0.131c-0.055,0.688,0.34,1.245,0.542,1.857
				c0.026,0.083,0.022,0.271,0.18,0.215c0.119-0.042,0.172-0.185,0.122-0.328c-0.067-0.197-0.155-0.389-0.195-0.591
				c-0.05-0.237-0.236-0.438-0.179-0.699c0.215,0.161,0.283,0.419,0.417,0.633c0.075,0.12,0.095,0.338,0.232,0.337
				c0.158-0.001,0.219-0.21,0.302-0.344c0.067-0.11,0.096-0.238,0.026-0.366l-0.009,0.011c0.092-0.059,0.181-0.096,0.148-0.25
				c-0.123-0.573-0.199-1.155-0.443-1.696c-0.085-0.188-0.174-0.375-0.152-0.59l-0.009,0.01c0.094,0.044,0.132,0.136,0.186,0.213
				c0.32,0.465,0.43,1.024,0.684,1.521c0.038,0.075,0.049,0.216,0.171,0.172c0.107-0.039,0.074-0.156,0.054-0.252
				c-0.056-0.249-0.104-0.498-0.151-0.748c-0.009-0.044-0.016-0.105,0.037-0.121c0.06-0.019,0.072,0.042,0.09,0.084
				c0.025,0.059,0.052,0.117,0.08,0.173c0.047,0.09,0.034,0.24,0.171,0.236c0.034,0,0.074-0.163,0.089-0.255
				c0.168-0.999,0.582-1.917,0.925-2.859c0.049-0.137,0.101-0.308,0.28-0.362l-0.014-0.007c-0.16,0.614-0.339,1.222-0.437,1.853
				c-0.171,1.102-0.36,2.2-0.122,3.316c0.012,0.055-0.043,0.145,0.042,0.156c0.057,0.008,0.082-0.076,0.103-0.14
				c0.13-0.372,0.397-0.632,0.703-0.862l-0.01-0.009c-0.146,0.453-0.354,0.88-0.493,1.335c-0.171,0.56-0.094,1.101,0.034,1.648
				c0.061,0.252,0.271,0.323,0.469,0.342c0.243,0.022,0.18-0.227,0.208-0.359c0.129-0.576,0.22-1.161,0.354-1.736
				c0.083-0.354,0.016-0.625-0.295-0.824l-0.007,0.011c0.362,0.032,0.461-0.119,0.523-0.492c0.074-0.424-0.103-0.687-0.305-0.981
				l-0.008,0.008c0.172-0.027,0.24,0.17,0.395,0.179l-0.01,0.008c-0.005-0.08-0.015-0.159-0.011-0.239
				c0.002-0.075-0.058-0.191,0.028-0.215c0.104-0.029,0.087,0.105,0.12,0.169c0.21,0.405,0.234,0.892,0.609,1.227
				c0.272,0.242,0.28,0.262,0.452-0.079c0.151-0.3,0.301-0.601,0.456-0.897c0.026-0.048,0.072-0.132,0.13-0.099
				s0.01,0.114-0.01,0.173c-0.086,0.258-0.159,0.521-0.259,0.772c-0.118,0.292-0.107,0.519,0.23,0.641
				c0.094,0.035,0.153,0.196,0.282,0.102c0.097-0.072,0.093-0.205,0.084-0.312c-0.021-0.271-0.063-0.541-0.088-0.811
				c-0.007-0.066-0.052-0.157,0.063-0.198c0.196-0.067,0.197-0.071,0.198-0.125c0.005-0.303,0.008-0.606,0.018-0.909
				c0.008-0.221-0.05-0.446,0.032-0.663c0.171,0.185,0.162,0.424,0.196,0.65c0.01,0.063,0.018,0.149,0.091,0.145
				c0.076-0.003,0.053-0.094,0.061-0.15c0.088-0.671,0.09-1.34-0.057-2.005c-0.012-0.059,0-0.176,0.01-0.177
				c0.099-0.011,0.115,0.082,0.138,0.146c0.276,0.811,0.413,1.643,0.359,2.501c-0.014,0.207-0.035,0.416-0.038,0.623
				c-0.002,0.144,0.515,0.853,0.602,0.817c0.243-0.098,0.222-0.387,0.347-0.578c0.097-0.146-0.025-0.304-0.077-0.453
				c-0.019-0.057-0.036-0.167-0.017-0.177c0.116-0.06,0.099,0.079,0.146,0.123c0.086,0.084,0.15,0.106,0.221-0.012
				c0.039-0.063,0.066-0.142,0.164-0.137c-0.014,0.077-0.006,0.164-0.04,0.229c-0.229,0.429,0.02,0.771,0.207,1.115
				c0.091,0.169,0.238,0.223,0.336-0.021c0.225-0.554,0.388-1.098-0.173-1.566c-0.084-0.071-0.15-0.165-0.225-0.248
				c0.018-0.019,0.034-0.039,0.051-0.059c0.2,0.042,0.345,0.167,0.473,0.312c0.208,0.237,0.262,0.117,0.298-0.112
				c0.114-0.733,0.08-1.466,0.034-2.201c-0.007-0.1-0.104-0.201,0.002-0.3c0.035,0.087,0.085,0.171,0.104,0.262
				c0.199,0.892,0.347,1.79,0.249,2.711c-0.02,0.174-0.014,0.351-0.001,0.526c0.005,0.076,0.065,0.152,0.145,0.176
				c0.105,0.031,0.128-0.074,0.165-0.136c0.065-0.109,0.112-0.231,0.179-0.339c0.048-0.078,0.083-0.234,0.176-0.197
				c0.11,0.042,0.007,0.166-0.015,0.246c-0.055,0.2-0.112,0.402-0.196,0.592c-0.086,0.191-0.022,0.327,0.089,0.479
				c0.099,0.132,0.144,0.142,0.227-0.013c0.21-0.398,0.445-0.787,0.181-1.254c-0.02-0.036-0.02-0.107,0.002-0.133
				c0.046-0.051,0.075,0.005,0.099,0.042c0.174,0.267,0.218,0.103,0.271-0.077c0.317-1.038,0.41-2.098,0.32-3.177
				c-0.014-0.156-0.076-0.313-0.001-0.47c0.144,0.1,0.136,0.265,0.176,0.41c0.378,1.35,0.281,2.698-0.068,4.031
				c-0.105,0.402,0.071,0.669,0.238,0.972c0.053,0.096,0.113,0.105,0.171,0.01c0.049-0.082,0.082-0.173,0.124-0.259
				c0.372-0.793,0.638-1.636,1.066-2.403c0.04-0.071,0.064-0.215,0.176-0.172c0.062,0.025,0.001,0.144-0.033,0.213
				c-0.15,0.304-0.226,0.633-0.292,0.96c-0.023,0.123,0.011,0.33,0.151,0.354c0.093,0.016,0.07-0.183,0.085-0.287
				c0.176-1.184,0.568-2.292,1.153-3.333c0.029-0.052,0.103-0.14,0.119-0.132c0.109,0.05,0.024,0.13,0.006,0.191
				c-0.144,0.474-0.331,0.932-0.436,1.419c-0.172,0.8-0.308,1.602-0.272,2.423c0.004,0.102-0.063,0.251,0.079,0.291
				c0.107,0.03,0.13-0.117,0.193-0.182c0.145-0.146,0.211-0.361,0.4-0.47l0.035,0.032c-0.012,0.218-0.16,0.379-0.244,0.565
				c-0.126,0.279,0.089,0.457,0.23,0.564c0.131,0.101,0.241-0.137,0.319-0.261c0.067-0.105,0.096-0.236,0.143-0.354
				c0.196-0.487,0.327-1.021,0.647-1.433c0.562-0.718,0.725-1.578,1.006-2.401c0.135-0.396,0.193-0.843,0.568-1.122l-0.009-0.008
				c0.043,0.135-0.027,0.252-0.073,0.368c-0.53,1.378-0.512,2.817-0.487,4.257c0.002,0.059-0.02,0.143,0.044,0.164
				c0.027,0.008,0.091-0.072,0.127-0.121c0.121-0.168,0.237-0.341,0.358-0.508c0.025-0.035,0.083-0.089,0.105-0.08
				c0.088,0.036,0.033,0.104,0.01,0.155c-0.039,0.087-0.093,0.168-0.134,0.254c-0.222,0.456-0.509,0.893-0.408,1.441
				c0.011,0.056-0.024,0.145,0.05,0.156c0.069,0.011,0.088-0.073,0.107-0.134c0.193-0.577,0.471-1.12,0.757-1.653
				c0.252-0.473,0.498-0.927,0.372-1.488c-0.013-0.055-0.028-0.145,0.059-0.146c0.074-0.002,0.077,0.085,0.09,0.146
				c0.098,0.517,0.228,1.029,0.216,1.563c-0.008,0.431,0,0.863,0.012,1.295c0,0.068,0.031,0.276,0.105,0.152
				c0.193-0.334,0.629-0.527,0.601-0.991l0.03-0.031c0.119,0,0.211,0.02,0.244,0.166c0.018,0.079,0.069,0.207,0.185,0.165
				c0.068-0.026,0.038-0.143,0.04-0.22c0.015-0.448,0.025-0.895,0.046-1.342c0.002-0.072-0.006-0.168,0.1-0.195
				c0.018,0.06,0.046,0.121,0.046,0.182c0.002,0.447,0.04,0.9-0.016,1.341c-0.05,0.384,0,0.727,0.161,1.065
				c0.082,0.173,0.087,0.379,0.224,0.528c0.072-0.22,0.046-0.443,0.002-0.664c-0.022-0.107-0.066-0.212-0.101-0.318
				c0.013-0.014,0.024-0.028,0.036-0.041c0.19,0.107,0.273,0.293,0.346,0.481c0.05,0.127,0.055,0.281,0.218,0.332l-0.006-0.01
				c-0.053,0.459-0.105,0.919-0.155,1.378c-0.006,0.059-0.018,0.153,0.053,0.163c0.09,0.013,0.073-0.083,0.077-0.141
				c0.011-0.127,0.01-0.256,0.02-0.384c0.003-0.044,0.023-0.124,0.044-0.126c0.078-0.01,0.092,0.064,0.103,0.123
				c0.052,0.286,0.058,0.575,0.001,0.86c-0.156,0.776,0.021,1.513,0.245,2.247c0,0.672,0,1.346,0,2.019
				c-0.112,0.139-0.08,0.305-0.08,0.462c-0.003,1.808,0,3.616-0.005,5.423C126.409,71.471,126.432,71.654,126.494,71.834z
				 M30.926,57.1c0.04,0.042,0.081,0.083,0.121,0.125c0.021,0.024,0.043,0.05,0.063,0.075c0.034,0.039,0.068,0.077,0.103,0.115
				c0.042-0.002,0.044,0.009,0.007,0.031c-0.002-0.01-0.004-0.021-0.006-0.033c-0.037-0.035-0.074-0.07-0.11-0.105
				c-0.021-0.026-0.043-0.051-0.065-0.077c-0.065-0.016-0.118-0.043-0.118-0.122c-0.032,0.009-0.037,0-0.015-0.024
				C30.906,57.084,30.918,57.095,30.926,57.1z M100.549,60.292c-0.027-0.057-0.048,0.042-0.027-0.019
				c0.01-0.032,0.021-0.034,0.043-0.01c0.044,0.047-0.015-0.034-0.018,0.03c-0.005,0.061,0.025,0.092,0.083,0.101
				c0.008,0.092,0.064,0.127,0.149,0.124c0.008,0,0.023-0.023,0.022-0.034c-0.018-0.101-0.094-0.094-0.169-0.092
				C100.636,60.333,100.585,60.318,100.549,60.292z M89.443,59.871c0.103-0.007,0.118-0.085,0.13-0.165
				c0.043-0.047,0.084-0.095,0.127-0.142c0.024-0.081,0.048-0.16,0.073-0.24c0.059-0.047,0.08-0.114,0.093-0.186
				c0.076-0.044,0.101-0.111,0.088-0.195c0.096,0,0.129-0.069,0.155-0.145c0.001-0.006-0.022-0.029-0.032-0.027
				c-0.097,0.021-0.106,0.1-0.114,0.18c-0.09,0.037-0.097,0.112-0.086,0.194c-0.1,0.03-0.089,0.113-0.091,0.189
				c-0.115,0.047-0.09,0.145-0.084,0.234c-0.095,0.004-0.118,0.066-0.118,0.146c-0.049,0.054-0.096,0.109-0.144,0.163l0.019,0.024
				L89.443,59.871z M93.209,59.316c-0.047,0.027-0.073,0.086-0.034,0.109c0.052,0.03,0.057-0.038,0.066-0.077
				c0.038-0.011,0.055-0.037,0.032-0.06C93.25,59.265,93.223,59.281,93.209,59.316z M34,59.817c0.002,0,0.005,0,0.007,0
				c-0.037-0.11-0.072-0.009-0.108,0c-0.124,0.167-0.21,0.353-0.267,0.55c-0.023,0.084-0.081,0.2,0.043,0.245
				c0.099,0.035,0.113-0.082,0.154-0.141c0.146-0.208,0.169-0.429,0.063-0.66C33.928,59.813,33.964,59.815,34,59.817z
				 M61.527,61.187c0.013-0.026,0.035-0.052,0.032-0.077c-0.002-0.033-0.035-0.034-0.044,0.001c-0.006,0.023,0.014,0.053,0.021,0.08
				l-0.027-0.012L61.527,61.187z M100.448,60.002l-0.011,0.008c-0.003-0.071-0.007-0.143-0.009-0.214
				c0.342,0.14,0.521,0.51,0.885,0.623c0.129,0.04,0.238,0.181,0.374,0.007c0.126-0.158,0.089-0.282-0.024-0.426
				c-0.269-0.337-0.522-0.684-0.788-1.021c-0.149-0.191-0.22-0.102-0.266,0.082c-0.065,0.247-0.154,0.487-0.177,0.742
				C100.446,59.868,100.299,59.946,100.448,60.002z M61.288,61.81c-0.011,0.036-0.066,0.065-0.021,0.11
				c0.004,0.003,0.032-0.011,0.032-0.015c-0.004-0.03-0.012-0.058-0.019-0.086l0.025-0.015L61.288,61.81z M117.651,60.685
				c-0.009-0.027-0.009-0.062-0.027-0.078c-0.022-0.02-0.048,0.004-0.033,0.038c0.006,0.018,0.045,0.021,0.069,0.031
				c-0.014,0.038-0.004,0.06,0.028,0.068c0-0.011,0.005-0.027-0.001-0.034C117.679,60.699,117.663,60.692,117.651,60.685z
				 M74.576,60.008c-0.032-0.021-0.032-0.042,0.001-0.055c0.008-0.004,0.029,0.007,0.033,0.017c0.014,0.036,0,0.05-0.036,0.038
				c-0.025,0.059,0.069,0.018,0.007,0.034c-0.033,0.009-0.043,0-0.04-0.035C74.548,59.944,74.523,60.045,74.576,60.008z
				 M83.127,59.913c-0.044,0.025-0.064,0.065-0.056,0.113c0.008,0.036,0.045,0.042,0.055,0.008c0.01-0.039-0.006-0.085-0.01-0.128
				L83.127,59.913z M26.511,62.783c0.102-0.06,0.086-0.167,0.105-0.26c0.037-0.01,0.053-0.037,0.027-0.061
				c-0.022-0.024-0.049-0.007-0.059,0.03c-0.078,0.086-0.076,0.191-0.069,0.297l-0.012,0.018L26.511,62.783z M103.809,60.88
				c-0.076,0.015-0.085,0.069-0.073,0.132c0.004,0.009,0.033,0.022,0.034,0.021c0.044-0.046,0.054-0.101,0.03-0.162
				c0.021-0.012,0.057-0.022,0.061-0.04c0.01-0.034-0.017-0.05-0.035-0.027C103.809,60.821,103.813,60.854,103.809,60.88z
				 M75.052,62.119c0.158-0.115,0.089-0.271,0.075-0.417c0.131,0.012,0.166-0.057,0.135-0.169c-0.005-0.02-0.045-0.029-0.069-0.043
				c-0.02,0.074-0.04,0.148-0.06,0.222c-0.063,0.131-0.099,0.268-0.073,0.415c-0.019,0.018-0.087,0.018-0.021,0.065
				C75.042,62.167,75.047,62.143,75.052,62.119z M80.088,60.746c-0.009,0.032-0.052,0.068,0.016,0.086
				c-0.009-0.026-0.018-0.051-0.026-0.077c-0.037-0.06-0.027-0.148-0.109-0.178c-0.006-0.002-0.041,0.039-0.036,0.051
				C79.955,60.701,79.994,60.764,80.088,60.746z M123.793,61.915c0.042-0.045,0.083-0.092,0.071-0.16
				c-0.001-0.005-0.02-0.008-0.031-0.012c-0.009,0.062-0.02,0.122-0.028,0.181c-0.015,0.021-0.092,0.019-0.027,0.07
				C123.783,61.967,123.789,61.941,123.793,61.915z M120.403,61.013c0.011-0.058,0.047-0.117-0.004-0.173
				c-0.009,0.009-0.025,0.02-0.024,0.027c0.009,0.046,0.022,0.091,0.035,0.137c0.023,0.053,0.043,0.109,0.074,0.156
				c0.014,0.02,0.04-0.007,0.036-0.047C120.516,61.039,120.473,61.011,120.403,61.013z M36.892,62.151
				c-0.094-0.003-0.134,0.061-0.16,0.135c-0.002,0.008,0.041,0.048,0.052,0.044c0.088-0.032,0.099-0.111,0.104-0.189l0.008-0.015
				L36.892,62.151z M93.307,58.446c0.149-0.024,0.195-0.122,0.188-0.258c-0.001-0.021-0.024-0.041-0.036-0.062
				c-0.044,0.096-0.089,0.19-0.134,0.286c-0.006,0.013-0.007,0.03-0.009,0.044c-0.075,0.075-0.02,0.149-0.002,0.224
				c-0.029,0.037-0.065,0.071-0.09,0.112c-0.036,0.061-0.112,0.158,0.009,0.178c0.101,0.016,0.229-0.033,0.246-0.174
				c0.016-0.142-0.053-0.169-0.171-0.108C93.308,58.606,93.308,58.526,93.307,58.446z M87.27,59.995
				c0.035-0.014,0.044-0.005,0.026,0.026c-0.01-0.009-0.017-0.017-0.023-0.025c-0.046-0.061-0.088-0.126-0.138-0.182
				c-0.037-0.039-0.07-0.126-0.133-0.074c-0.033,0.028-0.02,0.114-0.028,0.172c-0.098,0.2-0.021,0.51,0.146,0.573
				c0.024,0.009,0.066,0.005,0.084-0.011c0.043-0.038,0.015-0.08-0.002-0.125c-0.056-0.163-0.244-0.254-0.24-0.449
				C87.078,59.887,87.146,60.029,87.27,59.995z M111.97,60.788c-0.005-0.029,0.027-0.084-0.046-0.059
				c0.018,0.017,0.037,0.034,0.055,0.051c-0.022,0.165,0.098,0.291,0.126,0.444c0.004,0.026,0.039,0.012,0.033-0.034
				C112.116,61.042,112.142,60.873,111.97,60.788z M69.598,59.949c-0.146,0.163-0.06,0.362-0.084,0.544
				c-0.005,0.045,0.008,0.092,0.015,0.139c0.006-0.043,0.014-0.086,0.018-0.13c0.018-0.187,0.034-0.375,0.05-0.562
				C69.597,59.942,69.598,59.946,69.598,59.949z M8.596,63.827c-0.061,0.156-0.237,0.268-0.178,0.468
				c0.004,0.012,0.069,0.023,0.079,0.012c0.123-0.143,0.174-0.302,0.088-0.483l0.03,0.018L8.596,63.827z M108.353,61.517
				l-0.021,0.002l0.029,0.009c-0.069,0.104-0.034,0.215-0.021,0.324c0.016,0.125,0.038,0.25,0.154,0.326
				c0.014,0.008,0.068-0.017,0.073-0.034c0.038-0.147,0.139-0.3,0.002-0.444C108.505,61.63,108.427,61.578,108.353,61.517z
				 M63.235,60.003c-0.125,0.187,0.01,0.317,0.1,0.456c0.035,0.054,0.099,0.106,0.143,0.026c0.081-0.149,0.157-0.304,0.204-0.464
				c0.032-0.106-0.081-0.153-0.16-0.2c-0.096-0.09-0.193-0.243-0.332-0.133C63.135,59.731,62.997,59.932,63.235,60.003z
				 M71.984,61.45c0.21-0.23,0.211-0.531,0.274-0.811c0.024-0.113,0.006-0.226-0.157-0.23c-0.194-0.006-0.214,0.133-0.172,0.254
				c0.091,0.264-0.016,0.538,0.062,0.799L71.984,61.45z M103.802,59.815c-0.071-0.136-0.211-0.182-0.333-0.249
				c-0.097-0.053-0.19-0.031-0.233,0.078c-0.062,0.154-0.243,0.314-0.138,0.464c0.064,0.089,0.233-0.104,0.375-0.1
				c0.017,0,0.032-0.004,0.048-0.006c-0.063,0.088-0.139,0.172-0.183,0.269c-0.026,0.058,0.043,0.162,0.091,0.11
				C103.58,60.214,103.86,60.123,103.802,59.815z M102.386,57.879l-0.019-0.001l0.03-0.003c-0.059,0.342,0.246,0.572,0.272,0.889
				c0.007,0.094,0.024,0.229,0.123,0.233c0.123,0.006,0.241-0.077,0.31-0.19c0.075-0.125-0.008-0.223-0.095-0.285
				C102.761,58.345,102.596,58.091,102.386,57.879z M118.327,58.12v-0.011c-0.126,0.185-0.273,0.364-0.277,0.597
				c-0.003,0.148-0.205,0.34,0.028,0.438c0.147,0.062,0.49-0.245,0.506-0.419c0.01-0.109-0.003-0.222-0.018-0.333
				c-0.02-0.157-0.052-0.313-0.071-0.473c-0.016-0.109-0.026-0.297-0.11-0.287c-0.127,0.016-0.132,0.193-0.133,0.316
				C118.252,58.005,118.3,58.062,118.327,58.12z M22.645,61.362c0.01-0.012,0.029-0.024,0.027-0.035
				c-0.004-0.025-0.017-0.05-0.025-0.074c-0.117-0.252-0.253-0.275-0.456-0.07c-0.344,0.346-0.35,1.065,0.008,1.383
				c0.128,0.113,0.156-0.017,0.194-0.092c0.097-0.199,0.199-0.398,0.275-0.606C22.729,61.703,22.545,61.537,22.645,61.362z
				 M112.457,59.357l0.007-0.009c-0.069,0.196,0.003,0.376,0.07,0.555c0.02,0.056,0.038,0.13,0.113,0.132
				c0.083,0.004,0.09-0.077,0.106-0.132c0.095-0.321,0.187-0.642,0.275-0.963c0.031-0.112,0.01-0.224-0.044-0.324
				c-0.12-0.221-0.26-0.432-0.454-0.598c-0.137,0.179-0.151,0.402-0.204,0.609C112.263,58.884,112.158,59.16,112.457,59.357z
				 M22.66,60.021l-0.011-0.012c-0.135,0.14-0.422,0.255-0.304,0.464c0.137,0.241,0.364-0.012,0.554-0.04
				c0.031-0.004,0.06-0.023,0.089-0.036c0.252-0.111,0.295-0.262,0.1-0.456c-0.216-0.213-0.482-0.36-0.758-0.489
				c-0.449-0.21-0.485-0.195-0.621,0.271c-0.019,0.061-0.028,0.125-0.052,0.184c-0.06,0.153-0.053,0.279,0.115,0.357
				c0.134,0.063,0.254,0.112,0.38-0.035C22.28,60.078,22.451,59.993,22.66,60.021z M21.99,59.054l-0.009-0.008
				c0.227,0.186,0.524,0.205,0.779,0.33c0.227,0.112,0.227-0.008,0.185-0.195c-0.125-0.558-0.347-1.086-0.501-1.635
				c-0.012-0.042-0.039-0.099-0.073-0.111c-0.097-0.034-0.09,0.065-0.106,0.113c-0.147,0.435-0.285,0.873-0.434,1.308
				C21.775,59.02,21.878,59.037,21.99,59.054z M124.583,59.15l-0.011-0.006c-0.006,0.296-0.13,0.564-0.258,0.812
				c-0.193,0.377-0.153,0.737-0.044,1.111c0.014,0.049-0.01,0.138,0.076,0.131c0.029-0.001,0.062-0.068,0.077-0.111
				c0.242-0.661,0.468-1.325,0.584-2.021c0.044-0.263-0.062-0.502-0.18-0.73c-0.087-0.171-0.178-0.145-0.268,0.006
				c-0.259,0.441-0.421,0.925-0.609,1.397c-0.024,0.057-0.058,0.152,0.002,0.175c0.09,0.036,0.115-0.074,0.163-0.13
				C124.284,59.581,124.312,59.275,124.583,59.15z M59.968,60.493c0,0.047-0.001,0.096,0.001,0.143
				c0.012,0.291,0.381,0.707,0.654,0.753c0.09,0.016,0.112-0.044,0.143-0.089c0.219-0.313,0.43-0.632,0.649-0.944
				c0.081-0.115,0.047-0.2-0.025-0.299c-0.245-0.334-0.503-0.656-0.794-0.953c-0.153-0.157-0.237-0.113-0.309,0.053
				C60.102,59.582,59.98,60.025,59.968,60.493z M51.871,59.644c0.015-0.26-0.034-0.509-0.101-0.756
				c-0.017-0.064-0.043-0.145-0.104-0.143c-0.079,0.003-0.047,0.094-0.054,0.146c-0.073,0.557-0.241,1.085-0.492,1.587
				c-0.142,0.285-0.28,0.571-0.42,0.857c-0.058,0.12-0.118,0.234,0.07,0.305c0.139,0.052,0.255,0.11,0.366-0.062
				C51.521,60.984,51.847,60.372,51.871,59.644z M19.119,58.583c-0.099-0.02-0.103,0.054-0.094,0.112
				c0.079,0.535,0.112,1.081,0.287,1.596c0.073,0.216,0.294,0.382,0.492,0.413c0.187,0.028,0.17-0.265,0.273-0.397
				c0.1-0.126,0.073-0.257,0.03-0.405c-0.155-0.533-0.545-0.888-0.912-1.263C19.174,58.617,19.146,58.601,19.119,58.583z
				 M100.802,58.303c-0.038,0.084-0.017,0.166,0.052,0.25c0.245,0.302,0.567,0.514,0.86,0.762c0.032,0.027,0.088,0.06,0.119,0.018
				c0.022-0.032,0.023-0.095,0.011-0.136c-0.239-0.778-0.481-1.555-0.726-2.332c-0.017-0.052-0.014-0.149-0.1-0.125
				c-0.064,0.019-0.058,0.106-0.058,0.168C100.961,57.375,100.908,57.834,100.802,58.303z M80.358,58.894
				c-0.02,0.252-0.017,0.259,0.1,0.248c0.337-0.031,0.576-0.292,0.549-0.627c-0.056-0.659,0.095-1.306,0.11-1.961
				c0.002-0.077,0.084-0.206,0.025-0.216c-0.107-0.019-0.127,0.124-0.159,0.205C80.688,57.322,80.545,58.145,80.358,58.894z
				 M121.455,56.41c0.005,0.053,0.015-0.027-0.02-0.013c-0.05,0.019-0.093,0.086-0.115,0.142c-0.307,0.792-0.466,1.625-0.66,2.448
				c-0.013,0.061-0.054,0.163,0.084,0.166c0.229,0.005,0.606-0.292,0.597-0.5C121.31,57.931,121.368,57.216,121.455,56.41z
				 M30.696,59.903c-0.243-0.057-0.348,0.072-0.366,0.33c-0.011,0.146-0.02,0.29,0.04,0.423c0.157,0.354,0.185,0.738,0.255,1.113
				c0.018,0.093-0.045,0.264,0.082,0.262c0.095-0.001,0.097-0.178,0.113-0.288c0.069-0.47,0.127-0.942,0.218-1.409
				C31.116,59.922,31.126,59.916,30.696,59.903z M46.883,60.988c0.019-0.256-0.162-0.402-0.316-0.558
				c-0.124-0.125-0.183-0.085-0.256,0.081c-0.226,0.508,0.006,1.005-0.002,1.506c0,0.016,0.007,0.031,0.009,0.046
				c0.025,0.111,0.064,0.084,0.1,0.008C46.578,61.713,46.849,61.401,46.883,60.988z M25.544,59.113
				c-0.022-0.106,0.124-0.252-0.028-0.291c-0.099-0.025-0.149,0.138-0.192,0.24c-0.123,0.294-0.244,0.589-0.375,0.879
				c-0.065,0.144-0.196,0.268-0.188,0.433c0.012,0.199,0.017,0.482,0.225,0.515c0.154,0.025,0.29-0.214,0.325-0.418
				C25.387,60.016,25.467,59.561,25.544,59.113z M5.529,59.766c-0.122-0.731-0.344-1.446-0.602-2.15
				c-0.014-0.039-0.053-0.091-0.096-0.057c-0.022,0.018-0.014,0.089-0.004,0.132c0.126,0.581,0.186,1.169,0.163,1.761
				c-0.011,0.295,0.159,0.381,0.381,0.461C5.521,59.966,5.534,59.888,5.529,59.766z M26.36,58.29
				c0.011-0.062,0.038-0.138-0.018-0.18c-0.062-0.045-0.109,0.022-0.157,0.059c-0.222,0.17-0.371,0.354-0.339,0.674
				c0.039,0.378,0.009,0.763,0.014,1.146c0.001,0.068-0.042,0.18,0.078,0.183c0.062,0.002,0.076-0.09,0.088-0.151
				C26.138,59.444,26.249,58.867,26.36,58.29z M122.909,59.311c0.133-0.036,0.229-0.118,0.263-0.251
				c0.154-0.602,0.233-1.218,0.3-1.835c0.004-0.036,0.031-0.099-0.045-0.091c-0.024,0.003-0.054,0.04-0.063,0.065
				c-0.188,0.657-0.439,1.297-0.534,1.978C122.819,59.242,122.812,59.308,122.909,59.311z M79.016,60.262
				c0,0,0.05-0.085-0.015-0.114c-0.082-0.038-0.091,0.062-0.119,0.112c-0.206,0.357-0.412,0.715-0.61,1.075
				c-0.061,0.109-0.126,0.221-0.119,0.356c0.002,0.083,0.016,0.168,0.087,0.209c0.101,0.058,0.135-0.056,0.171-0.107
				C78.734,61.354,78.995,60.887,79.016,60.262z M63.881,58.303c-0.01-0.219,0.049-0.447-0.056-0.66
				c-0.02-0.042-0.044-0.081-0.066-0.121c-0.032,0.034-0.082,0.062-0.094,0.1c-0.116,0.415-0.26,0.822-0.33,1.25
				c-0.025,0.158,0.019,0.19,0.18,0.152C63.93,58.926,63.892,58.611,63.881,58.303z M118.577,59.485
				c0.011-0.192-0.033-0.267-0.142-0.219c-0.237,0.105-0.421,0.287-0.565,0.5c-0.054,0.08,0.225,0.59,0.313,0.599
				c0.054,0.005,0.085-0.031,0.105-0.076C118.41,60.03,118.551,59.778,118.577,59.485z M99.562,58.243
				c0-0.274,0.002-0.481-0.005-0.688c-0.001-0.051,0.042-0.144-0.062-0.141c-0.029,0.001-0.066,0.065-0.081,0.107
				c-0.125,0.362-0.174,0.74-0.218,1.119c-0.017,0.147,0.065,0.276,0.111,0.412c0.013,0.045,0.042,0.099,0.097,0.078
				c0.037-0.015,0.078-0.062,0.083-0.1C99.519,58.746,99.541,58.46,99.562,58.243z M80.53,60.291
				c0.026-0.023,0.059-0.04,0.071-0.064c0.136-0.29,0.27-0.579,0.397-0.872c0.016-0.036,0.007-0.102-0.018-0.133
				c-0.053-0.07-0.115-0.009-0.162,0.018c-0.21,0.121-0.392,0.278-0.561,0.449c-0.121,0.123-0.072,0.23,0.028,0.33
				C80.374,60.104,80.389,60.255,80.53,60.291z M120.826,60.295c0.065,0.024,0.072-0.035,0.093-0.073
				c0.061-0.113,0.138-0.22,0.173-0.341c0.071-0.233,0.375-0.579,0.209-0.655c-0.235-0.109-0.468,0.245-0.681,0.429
				c-0.023,0.021-0.045,0.048-0.058,0.076C120.509,59.839,120.711,60.272,120.826,60.295z M26.525,61.794
				c0-0.061-0.005-0.014,0.001,0.033c0.011,0.099-0.054,0.222,0.112,0.268c0.146,0.041,0.198-0.04,0.252-0.145
				c0.056-0.112,0.116-0.223,0.18-0.332c0.059-0.098,0.123-0.189-0.002-0.286c-0.113-0.087-0.23-0.181-0.383-0.15
				c-0.139,0.028-0.128,0.162-0.143,0.267C26.533,61.528,26.534,61.607,26.525,61.794z M5.738,60.704
				c-0.002-0.111,0-0.227-0.08-0.314c-0.114-0.122-0.22-0.347-0.4-0.269c-0.195,0.085-0.007,0.269,0.012,0.409
				c0.015,0.108,0.054,0.213,0.09,0.318c0.049,0.14,0.053,0.401,0.176,0.385c0.175-0.021,0.159-0.27,0.191-0.435
				C5.732,60.766,5.733,60.734,5.738,60.704z M53.752,61.671c-0.126,0.013-0.218,0.07-0.206,0.207
				c0.021,0.251,0.052,0.501,0.085,0.75c0.012,0.078,0.066,0.096,0.135,0.051c0.123-0.081,0.312-0.776,0.232-0.883
				C53.939,61.717,53.85,61.682,53.752,61.671z M59.984,61.679c0.005,0.181-0.044,0.364,0.107,0.501
				c0.055,0.049,0.118,0.13,0.191,0.034c0.115-0.152,0.218-0.334,0.19-0.519c-0.028-0.196-0.2-0.375-0.386-0.366
				C59.905,61.338,60.027,61.566,59.984,61.679z M66.262,61.907c0.056-0.213-0.062-0.249-0.231-0.232
				c-0.362,0.034-0.203,0.295-0.183,0.466c0.024,0.208,0.036,0.435,0.228,0.585c0.112-0.165,0.104-0.358,0.133-0.543
				C66.223,62.089,66.243,61.997,66.262,61.907z M74.615,60.488c0.102,0.325,0.094,0.645,0.086,0.966
				c-0.001,0.053-0.042,0.144,0.061,0.147c0.03,0.001,0.065-0.06,0.093-0.095c0.269-0.354,0.23-0.786-0.092-1.103
				c-0.034-0.034-0.076-0.074-0.114-0.033C74.62,60.397,74.621,60.456,74.615,60.488z M109.577,58.294
				c-0.106,0.579,0.324,1.058,0.299,1.622c-0.004,0.033-0.01,0.1,0.048,0.084c0.021-0.005,0.034-0.086,0.029-0.13
				c-0.064-0.518-0.132-1.036-0.201-1.555c-0.024-0.186-0.037-0.375-0.148-0.537C109.535,57.947,109.599,58.124,109.577,58.294z
				 M69.087,59.791c0-0.122,0.003-0.233-0.002-0.345c-0.002-0.039-0.025-0.078-0.038-0.117c-0.018,0.042-0.042,0.083-0.051,0.126
				c-0.084,0.504-0.244,0.989-0.374,1.481c-0.015,0.057-0.049,0.126,0.028,0.157c0.019,0.007,0.082-0.047,0.095-0.085
				C68.896,60.609,69.146,60.238,69.087,59.791z M34.03,61.018c0.029,0.145,0.081,0.324,0.243,0.447
				c0.066,0.049,0.113-0.013,0.159-0.054c0.189-0.171,0.081-0.343,0-0.514c-0.007-0.014-0.015-0.027-0.022-0.041
				c-0.075-0.113-0.097-0.333-0.237-0.309c-0.108,0.019-0.066,0.25-0.122,0.376C34.044,60.937,34.044,60.954,34.03,61.018z
				 M88.164,60.493c0.134,0.127,0.042,0.516,0.135,0.504c0.214-0.027,0.266-0.305,0.322-0.517c0.027-0.104,0.095-0.21-0.017-0.305
				c-0.078-0.067-0.173-0.089-0.263-0.04C88.223,60.201,88.163,60.309,88.164,60.493z M52.655,61.211
				c-0.013-0.067-0.008-0.167-0.041-0.184c-0.096-0.044-0.126,0.059-0.166,0.121c-0.234,0.36-0.241,0.787-0.344,1.186
				c-0.006,0.025,0.017,0.057,0.027,0.086c0.024-0.018,0.064-0.032,0.072-0.054C52.336,61.974,52.559,61.616,52.655,61.211z
				 M92.133,59.73c-0.035-0.205-0.06-0.363-0.095-0.518c-0.009-0.042-0.044-0.099-0.079-0.111c-0.059-0.021-0.061,0.046-0.072,0.085
				c-0.054,0.2-0.103,0.402-0.158,0.602c-0.039,0.136,0.024,0.223,0.143,0.26c0.15,0.048,0.186-0.086,0.232-0.181
				C92.131,59.813,92.131,59.746,92.133,59.73z M113.899,59.023c-0.039-0.196-0.081-0.431-0.137-0.662
				c-0.012-0.054-0.048-0.129-0.128-0.102c-0.037,0.014-0.067,0.062-0.087,0.102c-0.154,0.287-0.004,0.515,0.151,0.741
				c0.043,0.063,0.067,0.181,0.146,0.164C113.932,59.248,113.874,59.134,113.899,59.023z M3.256,62.615
				c0.004,0.063,0.003,0.11,0.011,0.157c0.031,0.215-0.025,0.451,0.144,0.634c0.133-0.228,0.137-0.475,0.109-0.727
				c-0.002-0.016-0.004-0.032-0.01-0.046c-0.066-0.152-0.047-0.394-0.224-0.423C3.216,62.199,3.279,62.483,3.256,62.615z
				 M111.376,59.216c-0.046-0.227-0.164-0.425-0.36-0.576c-0.054-0.041-0.113-0.074-0.171-0.032
				c-0.06,0.044-0.044,0.116-0.012,0.173c0.096,0.182,0.199,0.36,0.296,0.541c0.031,0.057,0.072,0.13,0.131,0.107
				C111.332,59.401,111.361,59.314,111.376,59.216z M90.218,59.669c-0.04-0.122,0.077-0.323-0.096-0.366
				c-0.074-0.018-0.116,0.2-0.146,0.322c-0.022,0.093-0.039,0.188-0.061,0.282c-0.019,0.092-0.076,0.24-0.003,0.266
				c0.103,0.038,0.171-0.104,0.245-0.179C90.248,59.901,90.216,59.784,90.218,59.669z M29.095,60.095
				c-0.065-0.365-0.129-0.724-0.195-1.082c-0.008-0.042-0.037-0.115-0.053-0.114c-0.089,0.006-0.071,0.086-0.068,0.141
				c0.025,0.411,0.178,0.807,0.153,1.225c-0.002,0.036-0.006,0.109,0.072,0.079c0.025-0.01,0.054-0.041,0.062-0.066
				C29.081,60.217,29.086,60.153,29.095,60.095z M67.989,62.641c0.013-0.007,0.026-0.014,0.04-0.021
				c0.132-0.072,0.491-0.77,0.47-0.919c-0.011-0.078-0.062-0.13-0.119-0.054c-0.205,0.268-0.313,0.586-0.445,0.892
				C67.918,62.58,67.929,62.63,67.989,62.641z M119.36,59.015c0.028,0.097,0,0.208,0.083,0.229c0.083,0.021,0.127-0.081,0.177-0.14
				c0.06-0.073,0.137-0.146,0.127-0.248c-0.014-0.154-0.02-0.385-0.153-0.411c-0.136-0.027-0.17,0.176-0.166,0.325
				C119.43,58.863,119.329,58.937,119.36,59.015z M26.605,60.628c-0.067,0.339,0.165,0.358,0.358,0.411
				c0.06,0.016,0.119,0.023,0.113-0.081c-0.009-0.147-0.286-0.584-0.382-0.565C26.538,60.428,26.627,60.574,26.605,60.628z
				 M106.655,59.814c-0.02-0.15,0.031-0.32-0.084-0.336c-0.119-0.018-0.102,0.16-0.131,0.254c-0.04,0.134-0.071,0.274-0.085,0.414
				c-0.009,0.078,0.038,0.167,0.116,0.188c0.121,0.035,0.104-0.081,0.116-0.146C106.618,60.05,106.639,59.91,106.655,59.814z
				 M50.452,62.327c0.191-0.027,0.248-0.195,0.317-0.325c0.092-0.176-0.096-0.165-0.18-0.196c-0.186-0.071-0.272,0.07-0.301,0.208
				C50.266,62.134,50.326,62.257,50.452,62.327z M81.828,58.829c0.05,0.267,0.117,0.642,0.191,1.014
				c0.011,0.059,0.055,0.112,0.085,0.167c0.078-0.064,0.018-0.136,0.005-0.201c-0.07-0.372-0.104-0.751-0.232-1.11
				c-0.018-0.053,0.01-0.159-0.049-0.148C81.773,58.56,81.814,58.661,81.828,58.829z M45.948,60.532
				c0.147-0.042,0.229-0.16,0.229-0.277c0-0.228-0.243-0.192-0.376-0.273c-0.076-0.046-0.095,0.048-0.077,0.11
				C45.771,60.253,45.784,60.433,45.948,60.532z M81.102,61.177c-0.007,0.116-0.059,0.268,0.097,0.277
				c0.095,0.006,0.103-0.147,0.103-0.24c0-0.162,0.078-0.41-0.096-0.449C81.106,60.744,81.154,61.041,81.102,61.177z
				 M125.158,60.679c-0.006-0.092-0.012-0.282-0.026-0.472c-0.005-0.051,0.024-0.113-0.034-0.153
				c-0.005,0.047-0.013,0.093-0.014,0.14c-0.004,0.38-0.01,0.76-0.012,1.141c0,0.045,0.019,0.091,0.028,0.137
				c0.019-0.042,0.053-0.083,0.055-0.125C125.16,61.157,125.158,60.968,125.158,60.679z M119.935,59.422
				c-0.01-0.025-0.025-0.066-0.041-0.107c-0.026,0.013-0.067,0.018-0.079,0.039c-0.112,0.186-0.248,0.364-0.271,0.588
				c-0.006,0.046,0.062,0.087,0.101,0.065c0.201-0.112,0.192-0.343,0.281-0.52C119.932,59.475,119.931,59.456,119.935,59.422z
				 M122.973,59.788c0.019-0.081-0.012-0.132-0.059-0.114c-0.158,0.06-0.253,0.178-0.267,0.351
				c-0.007,0.077-0.018,0.189,0.068,0.196c0.142,0.011,0.133-0.15,0.188-0.235C122.945,59.92,122.956,59.837,122.973,59.788z
				 M63.883,59.365c-0.015-0.089,0.022-0.219-0.136-0.188c-0.109,0.021-0.241,0.089-0.242,0.195c-0.001,0.12,0.15,0.146,0.254,0.171
				C63.938,59.588,63.854,59.434,63.883,59.365z M62.321,59.582c-0.065,0.144-0.136,0.291-0.199,0.443
				c-0.023,0.057,0.033,0.105,0.071,0.083c0.137-0.083,0.234-0.201,0.247-0.37C62.444,59.673,62.426,59.614,62.321,59.582z
				 M52.734,62.941c0,0.006,0.003-0.025-0.002-0.057c-0.008-0.058-0.021-0.114-0.03-0.171c-0.019,0.058-0.04,0.115-0.057,0.173
				c-0.018,0.061-0.036,0.122-0.043,0.184c-0.011,0.09-0.061,0.253,0.016,0.257c0.159,0.007,0.076-0.164,0.106-0.255
				C52.735,63.044,52.73,63.011,52.734,62.941z M86.703,60.527c-0.096,0.042-0.11,0.125-0.098,0.199
				c0.027,0.131,0.135,0.215,0.251,0.249c0.074,0.022,0.104-0.066,0.073-0.13C86.873,60.725,86.874,60.56,86.703,60.527z
				 M62.884,60.885c-0.087,0.011-0.1,0.077-0.114,0.137c-0.032,0.139,0.008,0.258,0.127,0.329c0.062,0.037,0.121-0.019,0.127-0.089
				C63.036,61.114,62.978,60.99,62.884,60.885z M120.185,61.49c-0.013-0.063,0.016-0.172-0.075-0.183
				c-0.084-0.009-0.11,0.096-0.128,0.169c-0.015,0.059-0.017,0.123-0.016,0.184c0.001,0.063,0.021,0.131,0.09,0.145
				c0.093,0.018,0.077-0.074,0.093-0.125C120.167,61.623,120.171,61.56,120.185,61.49z M79.755,61.958
				c-0.004-0.078,0.03-0.205-0.045-0.216c-0.14-0.019-0.108,0.122-0.112,0.207c-0.005,0.077,0.018,0.155,0.028,0.232
				C79.759,62.159,79.738,62.047,79.755,61.958z M58.692,60.956c-0.072-0.096-0.09-0.252-0.229-0.324
				c-0.047-0.024-0.097,0.036-0.086,0.083c0.033,0.142,0.125,0.256,0.241,0.338C58.687,61.102,58.68,61.022,58.692,60.956z
				 M116.68,60.174c-0.021-0.066-0.071-0.146-0.168-0.171c-0.103-0.026-0.093,0.065-0.077,0.118
				c0.022,0.088,0.046,0.211,0.108,0.244C116.604,60.397,116.648,60.283,116.68,60.174z M73.061,60.024
				c-0.016-0.056-0.037-0.131-0.057-0.205c-0.108,0.074-0.063,0.201-0.101,0.299c-0.019,0.048-0.043,0.148,0.056,0.128
				C73.041,60.231,73.026,60.119,73.061,60.024z M91.668,60.513c0.088-0.041,0.105-0.114,0.096-0.194
				c-0.009-0.077-0.038-0.166-0.13-0.15c-0.083,0.015-0.116,0.102-0.097,0.184C91.556,60.423,91.583,60.497,91.668,60.513z
				 M115.511,59.471c-0.012-0.078-0.02-0.159-0.113-0.186c-0.017,0.058-0.044,0.115-0.047,0.175
				c-0.004,0.07-0.025,0.177,0.094,0.165C115.517,59.617,115.512,59.532,115.511,59.471z M30.33,61.46
				c-0.009-0.096-0.016-0.174-0.022-0.253c-0.057,0.062-0.027,0.138-0.027,0.208c0,0.071-0.029,0.149,0.023,0.214
				C30.314,61.569,30.323,61.507,30.33,61.46z M33.202,59.123c0.031-0.084,0.068-0.169,0.096-0.259
				c0.011-0.038-0.021-0.063-0.049-0.045c-0.09,0.061-0.096,0.159-0.102,0.255C33.146,59.115,33.162,59.133,33.202,59.123z
				 M57.041,59.922c-0.072,0.02-0.075,0.086-0.07,0.145c0.004,0.045,0.023,0.119,0.049,0.125c0.085,0.021,0.103-0.055,0.11-0.118
				C57.138,60.008,57.122,59.949,57.041,59.922z M113.364,60.361c0.057,0.007,0.103-0.014,0.104-0.062
				c0.006-0.107-0.022-0.207-0.11-0.281c-0.021,0.036-0.058,0.071-0.063,0.109C113.277,60.217,113.256,60.314,113.364,60.361z
				 M52.457,59.798c-0.039-0.046,0.03-0.138-0.062-0.184c-0.013,0.06-0.037,0.12-0.035,0.179c0.002,0.06,0.03,0.119,0.047,0.178
				C52.483,59.937,52.448,59.869,52.457,59.798z M36.729,61.78c-0.081-0.01-0.11,0.034-0.108,0.105
				c0.002,0.047,0.013,0.097,0.063,0.109c0.072,0.017,0.124-0.03,0.142-0.091C36.849,61.831,36.793,61.797,36.729,61.78z
				 M99.909,58.21c0.02,0.057,0.024,0.125,0.097,0.138c0.007,0.001,0.044-0.079,0.039-0.117c-0.007-0.039-0.042-0.09-0.076-0.102
				C99.91,58.111,99.903,58.163,99.909,58.21z M96.189,60.937c-0.056,0.045-0.019,0.084-0.003,0.122
				c0.023,0.051,0.05,0.099,0.077,0.149c0.042-0.055,0.029-0.118,0.008-0.173C96.257,60.998,96.217,60.969,96.189,60.937z
				 M2.335,62.869c-0.015,0.039-0.033,0.065-0.033,0.091c0.001,0.062,0.011,0.124,0.017,0.185c0.013-0.042,0.031-0.084,0.033-0.127
				C2.354,62.972,2.343,62.925,2.335,62.869z M14.56,62.79c-0.044,0.048-0.014,0.089,0.007,0.122
				c0.022,0.038-0.011,0.125,0.077,0.104c0.009-0.002,0.01-0.085-0.004-0.125C14.625,62.854,14.588,62.824,14.56,62.79z
				 M90.804,58.617c-0.007-0.041,0.005-0.108-0.072-0.074c-0.061,0.026-0.11,0.071-0.11,0.144c0,0.053,0.033,0.098,0.088,0.083
				C90.778,58.75,90.793,58.681,90.804,58.617z M55.862,59.221c0.01,0.048,0.038,0.083,0.088,0.069
				c0.02-0.006,0.036-0.046,0.038-0.071c0.005-0.045-0.012-0.091-0.063-0.089C55.873,59.13,55.86,59.175,55.862,59.221z
				 M116.654,59.632c0.055-0.02,0.06-0.067,0.052-0.11c-0.008-0.05,0.013-0.133-0.077-0.121c-0.019,0.003-0.033,0.081-0.039,0.126
				C116.586,59.573,116.6,59.617,116.654,59.632z M93.695,61.386c-0.011-0.035-0.015-0.102-0.043-0.117
				c-0.048-0.026-0.092,0.019-0.089,0.072c0.004,0.043,0.022,0.102,0.056,0.123C93.691,61.511,93.678,61.434,93.695,61.386z
				 M45.188,61.136c0.012,0.049,0.038,0.087,0.091,0.076c0.017-0.003,0.033-0.048,0.035-0.076c0.004-0.047-0.019-0.096-0.069-0.096
				C45.19,61.04,45.186,61.091,45.188,61.136z M97.928,58.857c-0.063,0.023-0.047,0.073-0.039,0.114
				c0.009,0.046,0.037,0.096,0.085,0.08c0.022-0.007,0.035-0.074,0.036-0.115C98.011,58.886,97.971,58.86,97.928,58.857z
				 M60.101,62.594c-0.02-0.059-0.051-0.108-0.097-0.087c-0.024,0.011-0.029,0.081-0.029,0.125c0.001,0.038,0,0.108,0.069,0.066
				C60.076,62.679,60.086,62.624,60.101,62.594z M97.36,60.687c-0.014-0.047-0.027-0.09-0.04-0.133
				c-0.065,0.039-0.034,0.103-0.036,0.155c-0.003,0.039-0.009,0.087,0.042,0.106C97.337,60.772,97.349,60.729,97.36,60.687z
				 M23.311,60.645c-0.006-0.043-0.008-0.103-0.065-0.092c-0.056,0.012-0.104,0.055-0.156,0.084c0.031,0.03,0.058,0.073,0.096,0.088
				C23.253,60.752,23.3,60.721,23.311,60.645z M114.747,60.099c0-0.03,0.009-0.078-0.002-0.083c-0.066-0.032-0.056,0.031-0.06,0.062
				c-0.004,0.026,0.011,0.055,0.018,0.082C114.717,60.138,114.733,60.118,114.747,60.099z M43.615,60.628
				c-0.013-0.029-0.026-0.1-0.046-0.102c-0.055-0.004-0.068,0.054-0.07,0.1c-0.002,0.028,0.01,0.072,0.029,0.082
				C43.595,60.746,43.597,60.683,43.615,60.628z M40.504,56.701c-0.002-0.013-0.005-0.026-0.008-0.038
				c-0.006,0.008-0.017,0.017-0.015,0.023c0.004,0.019,0.011,0.035,0.019,0.054C40.501,56.727,40.503,56.714,40.504,56.701z
				 M8.331,62.671c-0.015-0.037-0.024-0.086-0.036-0.086c-0.057-0.002-0.061,0.051-0.073,0.09c-0.014,0.04-0.025,0.094,0.038,0.084
				C8.288,62.758,8.31,62.701,8.331,62.671z M86.34,58.922c-0.019-0.035-0.027-0.08-0.047-0.084
				c-0.073-0.018-0.065,0.046-0.067,0.087c-0.002,0.04-0.017,0.104,0.042,0.1C86.295,59.023,86.317,58.957,86.34,58.922z
				 M94.76,60.042c-0.015-0.039-0.024-0.066-0.033-0.094c-0.023,0.035-0.055,0.068-0.065,0.106
				c-0.011,0.042-0.002,0.102,0.055,0.096C94.735,60.148,94.749,60.075,94.76,60.042z M31.816,59.645
				c-0.019,0.049-0.04,0.088-0.045,0.129c-0.002,0.022,0.026,0.071,0.035,0.07c0.09-0.012,0.058-0.084,0.058-0.137
				C31.864,59.688,31.838,59.671,31.816,59.645z M100.614,61.459c-0.019,0.017-0.052,0.034-0.052,0.051
				c0,0.023,0.021,0.064,0.038,0.068c0.046,0.009,0.087-0.017,0.078-0.069C100.676,61.489,100.636,61.477,100.614,61.459z
				 M103.522,59.164c-0.037-0.008-0.066,0.006-0.071,0.043c-0.007,0.054,0.015,0.091,0.071,0.103
				c0.038,0.007,0.072-0.004,0.074-0.041C103.598,59.221,103.578,59.178,103.522,59.164z M12.897,59.921
				c0.014-0.026,0.034-0.049,0.034-0.073c0.001-0.029-0.016-0.057-0.025-0.085c-0.012,0.023-0.033,0.047-0.035,0.07
				C12.87,59.862,12.887,59.89,12.897,59.921z M120.124,58.798c-0.009,0.009-0.025,0.017-0.025,0.025
				c-0.002,0.041,0.017,0.046,0.045,0.015c0.008-0.009,0.011-0.022,0.018-0.033C120.148,58.803,120.137,58.801,120.124,58.798z
				 M17.07,59.567l-0.014,0.032l0.038-0.01L17.07,59.567z M16.575,59.412c-0.006-0.014-0.012-0.027-0.019-0.042
				c-0.01,0.026-0.022,0.053-0.027,0.08c-0.003,0.013,0.011,0.027,0.017,0.041C16.556,59.465,16.566,59.438,16.575,59.412z
				 M21.156,59.461c-0.027,0.003-0.053,0.002-0.076,0.01c-0.009,0.003-0.019,0.023-0.019,0.037c0,0.04,0.022,0.053,0.048,0.03
				C21.13,59.519,21.14,59.489,21.156,59.461z M76.08,60.764c-0.016-0.022-0.026-0.054-0.05-0.067
				c-0.03-0.021-0.066-0.006-0.064,0.026c0.001,0.025,0.026,0.053,0.048,0.07C76.044,60.815,76.07,60.802,76.08,60.764z
				 M11.753,62.095c0.004-0.026,0.014-0.054,0.01-0.08c-0.006-0.045-0.027-0.048-0.039-0.008c-0.007,0.025,0,0.055,0.003,0.082
				C11.727,62.091,11.743,62.092,11.753,62.095z M97.51,58.471c-0.014,0.023-0.029,0.042-0.038,0.064
				c-0.004,0.011,0,0.031,0.009,0.041c0.022,0.026,0.046,0.017,0.047-0.024C97.528,58.526,97.517,58.5,97.51,58.471z M29.176,60.673
				c-0.014-0.024-0.026-0.046-0.039-0.07c-0.014,0.024-0.039,0.046-0.041,0.072c-0.004,0.037-0.005,0.091,0.059,0.075
				C29.168,60.747,29.17,60.7,29.176,60.673z M40.771,55.251l0.017,0.017l0.001-0.035L40.771,55.251z M57.155,59.385
				c-0.007-0.011-0.014-0.022-0.021-0.033c-0.011,0.018-0.024,0.036-0.031,0.056c-0.002,0.008,0.013,0.021,0.019,0.033
				C57.134,59.422,57.145,59.403,57.155,59.385z M106.189,61.609c-0.01-0.025-0.02-0.051-0.03-0.076
				c-0.011,0.023-0.025,0.045-0.031,0.068c-0.004,0.011,0.005,0.029,0.015,0.039C106.165,61.662,106.183,61.65,106.189,61.609z
				 M123.933,61.207l0.02,0.017v-0.034L123.933,61.207z M100.618,61.103c-0.004,0.01-0.008,0.02-0.011,0.03
				c0.013,0.004,0.025,0.011,0.038,0.011c0.004,0,0.008-0.02,0.013-0.031C100.645,61.109,100.632,61.106,100.618,61.103z
				 M20.104,61.264c0.01-0.007,0.029-0.014,0.028-0.02c-0.002-0.027-0.009-0.055-0.015-0.083c-0.01,0.006-0.029,0.013-0.028,0.019
				C20.091,61.208,20.098,61.236,20.104,61.264z M63.968,56.802l-0.009-0.036l-0.017,0.028L63.968,56.802z M49.92,62.825
				l-0.017,0.029l0.021,0.007L49.92,62.825z M75.405,62.769c0.002-0.012,0.005-0.023,0.003-0.035c0-0.003-0.017-0.004-0.024-0.004
				c-0.001,0.011-0.004,0.024-0.001,0.035C75.383,62.767,75.397,62.767,75.405,62.769z M18.205,62.655
				c-0.005-0.012-0.009-0.023-0.013-0.035c-0.008,0.009-0.021,0.018-0.021,0.027c-0.002,0.012,0.008,0.024,0.012,0.036
				C18.189,62.674,18.197,62.664,18.205,62.655z M106.941,58.25c0-0.028,0-0.056,0-0.083c-0.011,0-0.031,0-0.031,0
				c-0.002,0.028-0.002,0.055-0.002,0.083C106.919,58.25,106.931,58.25,106.941,58.25z M75.493,62.326l-0.02,0.037l0.027,0.007
				L75.493,62.326z M39.639,59.76c-0.021,0.033-0.035,0.05-0.043,0.069c-0.005,0.011-0.003,0.03,0.003,0.04
				c0.018,0.033,0.043,0.033,0.054-0.005C39.659,59.841,39.647,59.814,39.639,59.76z M21.754,60.559
				c-0.002-0.012,0.001-0.028-0.006-0.036c-0.009-0.008-0.028-0.016-0.037-0.01c-0.034,0.018-0.032,0.039,0.005,0.053
				C21.726,60.57,21.74,60.561,21.754,60.559z M25.903,60.62c-0.007-0.014-0.013-0.027-0.02-0.04
				c-0.01,0.011-0.024,0.021-0.027,0.035c-0.01,0.043,0.006,0.062,0.036,0.048C25.9,60.658,25.9,60.634,25.903,60.62z
				 M95.593,59.041c0.004-0.013,0.008-0.025,0.012-0.037c-0.01-0.003-0.02-0.006-0.029-0.009c-0.004,0.012-0.009,0.023-0.007,0.034
				C95.568,59.034,95.584,59.037,95.593,59.041z M100.467,60.888l0.017,0.035l0.016-0.035H100.467z M21.76,60.779l-0.017-0.036
				l-0.014,0.037L21.76,60.779z M60.765,62.886l0.016,0.034l0.014-0.036L60.765,62.886z M111.835,62.326
				c0.003-0.01,0.01-0.022,0.01-0.033c0-0.003-0.018-0.006-0.025-0.01c-0.005,0.011-0.01,0.021-0.009,0.033
				C111.811,62.319,111.826,62.322,111.835,62.326z M62.62,61.733c-0.007-0.01-0.013-0.021-0.02-0.032
				c-0.009,0.01-0.023,0.018-0.025,0.028c-0.007,0.034,0.008,0.049,0.032,0.038C62.615,61.762,62.616,61.744,62.62,61.733z
				 M101.752,61.445c-0.002-0.013-0.004-0.025-0.009-0.038c-0.01,0.003-0.028,0.006-0.028,0.009c0,0.013,0.006,0.026,0.009,0.039
				C101.733,61.452,101.743,61.448,101.752,61.445z M79.755,61.393c-0.006-0.011-0.012-0.022-0.019-0.034
				c-0.009,0.008-0.024,0.015-0.028,0.024c-0.002,0.01,0.011,0.022,0.018,0.033C79.734,61.409,79.746,61.401,79.755,61.393z"/>
		</g>
	</g>
</g>
</svg>
