<?xml version="1.0" encoding="utf-8"?>
<!-- Generator: Adobe Illustrator 16.0.4, SVG Export Plug-In . SVG Version: 6.00 Build 0)  -->
<!DOCTYPE svg PUBLIC "-//W3C//DTD SVG 1.1//EN" "http://www.w3.org/Graphics/SVG/1.1/DTD/svg11.dtd">
<svg version="1.1" id="Layer_4601" xmlns="http://www.w3.org/2000/svg" xmlns:xlink="http://www.w3.org/1999/xlink" x="0px" y="0px"
	 width="128px" height="128px" viewBox="0 0 128 128" enable-background="new 0 0 128 128" xml:space="preserve">
<path fill-rule="evenodd" clip-rule="evenodd" d="M21.982,29.233c3.711,0,6.463,0.004,9.215-0.001
	c4.013-0.005,8.025-0.051,12.038-0.007c1.473,0.017,2.943,0.251,4.425,0.217c0.429-0.01,0.901,0.021,1.08-0.469
	c0.165-0.452,0.206-0.948-0.147-1.354c-0.456-0.524-0.936-0.93-1.729-0.968c-4.906-0.229-9.801-0.125-14.701,0.221
	c-2.535,0.18-5.064-0.179-7.578-0.544c-0.141-0.021-0.306-0.001-0.375-0.178c0.139-0.052,0.274-0.121,0.418-0.15
	c1.529-0.313,3.065-0.019,4.592,0.022c2.696,0.073,5.389-0.03,8.08-0.078c4.923-0.089,9.836,0.002,14.756,0.213
	c2.948,0.126,5.915,0.154,8.878,0.107c2.948-0.045,5.91-0.042,8.868,0.059c3.383,0.114,6.778-0.091,10.161-0.047
	c5.13,0.066,10.263,0.07,15.395,0.264c3.644,0.138,7.308-0.263,10.952-0.134c5.029,0.178,10.047-0.137,15.069-0.076
	c1.489,0.019,2.901,0.526,4.403,0.501c0.918-0.016,1.346,0.68,1.302,1.646c-0.11,2.375,0.34,4.732,0.335,7.093
	c-0.004,2.056-0.163,4.117-0.156,6.182c0.019,6.032,0.164,12.071-0.039,18.097c-0.172,5.082,0.24,10.162-0.039,15.217
	c-0.188,3.435-0.165,6.857-0.052,10.266c0.151,4.559,0.058,9.111,0.12,13.666c0.033,2.405-1.429,3.83-3.805,3.258
	c-2.541-0.612-5.055-0.34-7.577-0.341c-2.423-0.001-4.848,0.378-7.267,0.337c-4.213-0.074-8.433,0.102-12.641-0.306
	c-1.518-0.147-3.051,0.054-4.577,0.124c-2.376,0.111-4.755-0.105-7.13-0.156c-3.32-0.07-6.647,0.283-9.972,0.298
	c-1.033,0.005-2.103,0.025-3.129-0.118c-4.688-0.657-9.399,0.068-14.09-0.311c-1.258-0.102-2.511-0.18-3.769-0.324
	c-2.545-0.296-5.125-0.432-7.667,0.121c-0.525,0.115-0.869-0.268-1.366-0.256c-3.274,0.074-6.56,0.251-9.824,0.07
	c-3.375-0.188-6.757-0.137-10.13-0.402c-1.674-0.131-3.407,0.021-5.05-0.157c-3.229-0.352-6.455-0.124-9.674-0.341
	c-1.215-0.082-2.43,0.013-3.647,0.053c-1.452,0.048-2.921-0.162-4.374-0.287c-0.831-0.072-1.062-1.12-0.96-1.8
	c0.789-5.328,0.088-10.66,0.095-15.986c0.008-5.241,0.233-10.473,0.396-15.708c0.059-1.897,0.017-3.803-0.283-5.695
	c-0.157-0.99-0.06-1.973,0.147-2.985c0.37-1.815,0.045-3.677-0.012-5.516c-0.086-2.752-0.143-5.499,0.074-8.25
	c0.091-1.16,0.075-2.332,0.048-3.497c-0.094-3.962,0.255-7.91,0.31-11.867c0.009-0.686-0.05-1.372-0.088-2.057
	c-0.044-0.783,0.338-1.204,1.102-1.24c0.741-0.036,1.488-0.065,2.227-0.009c4.264,0.327,8.533,0.163,12.801,0.176
	c0.685,0.002,5.799,0.033,6.482,0.074c0.244,0.015,0.647-0.056,0.663,0.247c0.019,0.357-0.392,0.229-0.614,0.249
	c-1.846,0.17-8.124,0.069-9.972,0.046c-1.903-0.023-3.807,0.114-5.711-0.095c-0.783-0.087-1.44,0.697-1.393,1.562
	c0.043,0.788,0.412,1.256,1.31,1.223C13.103,28.949,18.022,29.509,21.982,29.233z M111.91,39.699c0.4-0.324,0.282-0.786,0.26-1.183
	c-0.104-1.829-0.158-3.657-0.173-5.489c-0.011-1.266,0.071-2.517,0.16-3.775c0.054-0.745,0.245-1.675-1.021-1.719
	c-1.255-0.044-1.116,0.812-1.115,1.613c0.003,1.428-0.015,2.854-0.015,4.281c0,2.838,0.016,5.676,0.002,8.514
	c-0.004,0.729,0.32,1.086,1.025,1.095c0.75,0.009,1.017-0.417,0.972-1.125c-0.046-0.738-0.06-1.478-0.087-2.217L111.91,39.699z
	 M114.829,87.703c0.478,0.014,0.872,0.323,1.376,0.311c3.058-0.078,6.122,0.146,9.17-0.344c0.751-0.12,0.826-0.502,0.81-1.076
	c-0.019-0.619,0.107-1.455-0.758-1.482c-3.585-0.112-7.173-0.133-10.76-0.181c-1.048-0.014-0.985,0.87-1.009,1.476
	c-0.025,0.635-0.157,1.588,1.044,1.426C114.745,87.789,114.787,87.746,114.829,87.703z M2.07,79.819l-0.007-0.009
	c-0.368,0.58-0.253,1.229-0.264,1.857c-0.092,5.287,0.178,10.578-0.214,15.86c-0.033,0.442,0.105,0.847,0.283,1.224
	c0.286,0.607,1.871,1.264,2.489,1.041c0.846-0.307,0.585-1.074,0.539-1.641c-0.183-2.266-0.01-4.529-0.044-6.789
	c-0.066-4.367-0.067-8.734-0.074-13.102c-0.001-0.742,0.039-1.485-0.25-2.192c-0.374-0.911-1.176-0.741-1.902-0.742
	c-0.492-0.001-0.849,0.229-0.813,0.753C1.898,77.326,1.498,78.607,2.07,79.819z M99.178,95.74l-0.017-0.017
	c0.246,0.589-0.243,1.608,1.007,1.606c2.641-0.004,5.281,0.04,7.922,0.036c0.63-0.001,1.053-0.187,1.046-1.028
	c-0.018-1.984-0.251-3.964,0.355-5.951c0.394-1.29,0.03-1.465-1.311-1.684c-2.055-0.333-4.115-0.238-6.175-0.23
	c-3.124,0.012-3.177,0.027-3.107,3.226C98.928,93.043,98.554,94.432,99.178,95.74z M18.319,51.504c0-1.324-0.028-2.648,0.011-3.97
	c0.024-0.841-0.317-1.361-1.146-1.393c-3.421-0.13-6.801-0.837-10.244-0.667c-1.024,0.051-1.524,0.424-1.598,1.51
	c-0.175,2.54-0.06,5.079-0.074,7.618c-0.012,1.89-0.002,1.854,1.918,1.917c3.221,0.104,6.45-0.268,9.667,0.242
	c1.153,0.182,1.604-0.27,1.486-1.453C18.211,54.037,18.281,52.771,18.319,51.504z M53.402,34.834
	c-0.008,1.952-0.061,3.907,0.224,5.851c0.069,0.47,0.01,1.091,0.625,1.122c1.725,0.091,3.465,0.461,5.146,0.373
	c1.453-0.075,2.922-0.249,4.395-0.276c1.371-0.024,1.608-0.212,1.557-1.565c-0.107-2.905-0.285-5.809-0.21-8.717
	c0.02-0.752-0.26-0.935-1.009-0.993c-0.841-0.065-1.718,0.034-2.521-0.184c-2.272-0.615-4.61-0.14-6.894-0.512
	c-0.909-0.147-1.374,0.251-1.326,1.252C53.447,32.398,53.402,33.617,53.402,34.834z M5.848,35.65
	c-0.027,0.987,0.109,2.301,0.074,3.623c-0.044,1.639,0.142,1.715,1.868,1.672c2.886-0.072,5.771-0.127,8.657-0.188
	c1.583-0.033,1.822-0.223,1.76-1.857c-0.092-2.418,0.311-4.826-0.18-7.262c-0.331-1.645-0.123-1.638-1.856-1.721
	c-3.155-0.151-6.319,0.112-9.469-0.218c-0.488-0.052-0.575,0.029-0.579,0.575C6.111,31.957,5.962,33.639,5.848,35.65z
	 M59.387,57.721c0,0.009,0,0.017,0,0.025c1.638,0,3.277-0.055,4.912,0.021c0.896,0.041,1.152-0.33,1.055-1.109
	c-0.328-2.583-0.243-5.162-0.071-7.756c0.135-2.044-0.258-2.316-2.383-2.154c-0.316,0.025-0.635,0.017-0.953,0.012
	c-2.324-0.04-4.647-0.087-6.972-0.122c-1.662-0.025-1.751,0.008-1.778,1.595c-0.045,2.688-0.036,5.378,0.007,8.066
	c0.023,1.44,0.101,1.445,1.59,1.426C56.325,57.705,57.856,57.721,59.387,57.721z M28.739,41.189c0-0.002,0-0.004,0-0.006
	c1.321,0,2.644,0.016,3.965-0.006c1.352-0.021,1.441-0.105,1.436-1.453c-0.013-2.887-0.054-5.772-0.077-8.658
	c-0.004-0.613-0.183-0.887-0.898-0.99c-1.276-0.186-2.546,0.127-3.774-0.022c-1.804-0.22-3.594-0.065-5.387-0.137
	c-1.142-0.045-1.5,0.367-1.173,1.455c0.334,1.104,0.203,2.2,0.285,3.3c0.123,1.648-0.262,3.252-0.36,4.879
	c-0.08,1.316,0.214,1.59,1.539,1.629C25.774,41.224,27.257,41.189,28.739,41.189z M60.749,100.747c1.425,0,2.852-0.019,4.276,0.007
	c0.71,0.014,0.913-0.358,0.938-0.982c0.048-1.279-0.424-1.815-1.729-1.847c-1.427-0.034-2.863,0.066-4.28-0.06
	c-2.724-0.242-5.464-0.441-8.178-0.298c-5.678,0.297-11.351-0.097-17.027,0.052c-1.97,0.051-3.997,0.052-5.991-0.258
	c-1.351-0.209-2.736-0.218-4.108-0.253c-1.084-0.026-1.312,0.831-1.314,1.634c-0.002,0.709,0.092,1.548,1.196,1.482
	c1.428-0.084,2.833,0.219,4.272,0.193c2.265-0.041,4.529-0.071,6.795-0.109c2.371-0.038,4.746,0.123,7.119,0.131
	c2.536,0.008,5.113-0.287,7.598-0.062C53.798,100.691,57.281,100.489,60.749,100.747z M108.967,36.979c0,0,0.002,0,0.003,0
	c0-1.536,0.012-3.072-0.004-4.608c-0.012-1.252-0.378-1.626-1.616-1.505c-0.79,0.077-1.554,0.101-2.354,0.05
	c-1.741-0.111-3.494-0.039-5.242-0.039c-0.667,0-1.125,0.211-1.122,0.999c0.014,3.18-0.01,6.36,0.025,9.54
	c0.009,0.75,0.37,1.322,1.256,1.334c2.644,0.035,5.288,0.062,7.932,0.121c0.931,0.021,1.155-0.448,1.133-1.281
	C108.937,40.055,108.967,38.517,108.967,36.979z M22.515,51.301c0,1.321-0.011,2.645,0.003,3.966
	c0.016,1.534,0.033,1.575,1.622,1.587c2.894,0.021,5.789-0.043,8.682,0.018c1.105,0.024,1.356-0.426,1.311-1.417
	c-0.119-2.558-0.15-5.12-0.254-7.678c-0.062-1.524-0.16-1.586-1.663-1.577c-2.947,0.018-5.901,0.167-8.832-0.263
	c-0.836-0.124-0.865,0.352-0.867,0.922C22.513,48.339,22.515,49.82,22.515,51.301z M30.624,42.026c0-0.008,0-0.016,0-0.023
	c-1.906,0-3.813,0-5.721,0c-0.591,0-1.126,0.017-1.467,0.678c-0.734,1.427-0.295,2.402,1.316,2.485
	c1.311,0.066,2.634-0.143,3.95-0.126c2.381,0.03,4.76,0.204,7.14,0.199c4.96-0.011,9.905,0.097,14.862,0.433
	c4.411,0.298,8.858,0.08,13.289,0.049c1.191-0.009,1.324-0.326,1.386-1.61c0.055-1.125-0.575-1.174-1.393-1.144
	c-3.481,0.126-6.972,0.332-10.439-0.098c-5.822-0.721-11.712,0.311-17.53-0.792C34.278,41.748,32.424,42.026,30.624,42.026z
	 M83.318,84.301c-4.095-0.174-7.662,0.564-11.264,0.348c-0.37-0.021-0.744,0.018-1.112-0.016c-0.908-0.078-1.06,0.464-1.039,1.193
	c0.02,0.68,0.04,1.303,1.014,1.196c2.01-0.22,3.983,0.047,5.979,0.327c1.072,0.15,2.195,0.404,3.303,0.232
	c1.993-0.307,4.005-0.201,6.007-0.316c2.688-0.153,5.379-0.037,8.072,0.111c4.592,0.254,9.199-0.221,13.791,0.247
	c0.465,0.047,1.026,0.113,1.312-0.358c0.557-0.922-0.339-1.699-0.351-2.586c-0.008-0.665-0.601-0.614-1.074-0.65
	c-2.855-0.217-5.731-0.155-8.556,0.109c-3.852,0.363-7.726-0.344-11.546,0.432C86.211,83.887,84.492,84.504,83.318,84.301z
	 M89.58,30.85c-1.43-0.104-2.854-0.15-4.284-0.086c-0.885,0.041-1.108,0.469-0.983,1.223c0.13,0.782,0.129,1.542,0.063,2.347
	c-0.193,2.365-0.215,4.744-0.284,7.118c-0.022,0.776,0.352,1.1,1.174,1.106c2.583,0.021,5.168-0.22,7.754,0.118
	c0.76,0.1,1.385-0.275,1.35-1.306c-0.104-3.062,0.063-6.122,0.195-9.182c0.061-1.412-0.09-1.528-1.5-1.509
	C91.902,30.696,90.741,30.789,89.58,30.85z M5.347,64.561c0.011,0,0.021,0,0.032,0c0,0.847-0.008,1.693,0.001,2.539
	c0.027,2.582,0.583,3.136,3.16,3.162c0.265,0.002,0.529,0.022,0.793,0.014c2.643-0.092,5.274,0.148,7.91,0.247
	c0.77,0.028,1.019-0.218,1.142-1.063c0.291-2.016-0.254-3.975-0.165-5.978c0.095-2.126-0.262-2.172-2.388-2.254
	c-1.943-0.076-3.883,0.14-5.832-0.087c-1.147-0.135-2.246-0.551-3.436-0.479c-0.958,0.057-1.321,0.398-1.233,1.363
	C5.408,62.864,5.347,63.715,5.347,64.561z M38.092,35.434c-0.013,0-0.025,0-0.039,0c0,1.579-0.055,3.16,0.017,4.736
	c0.062,1.355,0.188,1.357,1.548,1.242c2.146-0.18,4.296,0.057,6.442,0.085c2.267,0.03,2.017,0.193,2.42-2.011
	c0.028-0.154-0.003-0.317,0.01-0.476c0.2-2.353-0.016-4.704-0.012-7.056c0.003-1.315-0.695-1.99-1.931-1.67
	c-0.72,0.186-1.322,0.041-1.997-0.025c-1.78-0.177-3.573-0.224-5.359-0.343c-0.957-0.064-1.143,0.44-1.114,1.272
	C38.128,32.603,38.092,34.019,38.092,35.434z M69.904,36.431c0.005,0,0.011,0,0.016,0c0,1.431-0.009,2.862,0.003,4.294
	c0.012,1.524,0.104,1.671,1.623,1.579c2.164-0.132,4.312-0.124,6.466,0.145c0.887,0.11,1.562-0.628,1.602-1.585
	c0.056-1.375,0.076-2.752,0.152-4.125c0.093-1.682-0.237-3.377,0.271-5.051c0.195-0.641-0.15-1.139-0.912-1.172
	c-0.424-0.02-0.856-0.09-1.27-0.029c-1.998,0.295-3.945,0.304-5.931-0.277c-1.424-0.416-1.962,0.111-2.01,1.609
	C69.866,33.355,69.904,34.893,69.904,36.431z M61.324,71.717c0.738,0,1.477,0.018,2.214-0.004c1.341-0.04,1.586-0.268,1.592-1.59
	c0.009-2.162,0.011-4.321,0.211-6.477c0.146-1.562,0.026-1.661-1.643-1.668c-3.219-0.013-6.441,0.199-9.654-0.154
	c-0.564-0.062-0.874,0.234-0.79,0.708c0.457,2.581-0.119,5.151-0.05,7.727c0.018,0.683,0.195,0.956,0.866,0.991
	C56.489,71.374,58.892,71.765,61.324,71.717z M43.819,87.028c1.536,0,3.073-0.037,4.608,0.014c0.916,0.03,1.074-0.38,0.961-1.17
	c-0.127-0.886-0.528-1.29-1.468-1.252c-1.375,0.057-2.796,0.224-4.123-0.036c-2.509-0.492-5.032-0.383-7.547-0.508
	c-2.905-0.144-5.827-0.012-8.728-0.201c-3.633-0.238-7.257-0.549-10.901-0.564c-1.208-0.006-2.384,0.244-3.627,0.088
	c-1.822-0.23-3.671-0.418-5.529-0.343c-0.814,0.032-1.138,0.397-1.233,1.13c-0.155,1.205,0.18,1.635,1.451,1.639
	c2.22,0.006,4.439-0.076,6.659-0.068c3.106,0.011,6.204,0.072,9.302,0.467c2.121,0.271,4.313,0.131,6.432,0.312
	C34.657,86.928,39.242,86.816,43.819,87.028z M48.258,48.57c0.056-0.374,0.098-0.634,0.132-0.895
	c0.119-0.897-0.162-1.283-1.177-1.246c-2.583,0.097-5.165-0.059-7.746-0.201c-1.368-0.075-1.452,0.02-1.386,1.406
	c0.133,2.797,0.085,5.584-0.214,8.367c-0.065,0.605,0.071,1.072,0.792,1.088c2.945,0.062,5.9-0.139,8.828,0.372
	c0.624,0.108,1.038-0.163,0.965-0.878c-0.139-1.343,0.405-2.64,0.089-4.033C48.242,51.232,48.333,49.826,48.258,48.57z
	 M108.942,54.296c0.259-1.706-0.305-3.677-0.357-5.679c-0.032-1.219-0.396-1.705-1.522-1.512c-1.249,0.216-2.523,0.189-3.738,0.176
	c-1.068-0.011-2.1,0.309-3.143,0.181c-1.227-0.15-1.75,0.147-1.63,1.344c0.244,2.437-0.138,4.856-0.04,7.284
	c0.068,1.691,0.307,2.039,2.017,2.096c2.423,0.079,4.854-0.152,7.272,0.207c0.768,0.113,1.188-0.239,1.15-1.086
	C108.912,56.41,108.942,55.51,108.942,54.296z M11.345,86.906c-1.015,0-2.758,0.025-4.5-0.011c-0.81-0.017-1.296,0.41-1.177,1.103
	c0.39,2.26,0.29,4.518,0.194,6.78c-0.036,0.854,0.282,1.252,1.195,1.231c3.427-0.075,6.855,0.1,10.284-0.09
	c0.787-0.045,0.842-0.336,0.812-0.964c-0.104-2.189-0.405-4.373,0.003-6.573c0.223-1.205-0.293-1.73-1.496-1.596
	C15.13,86.958,13.603,86.869,11.345,86.906z M118.123,42.845c0-0.015,0-0.028,0-0.043c1.162,0,2.328-0.047,3.487,0.017
	c0.856,0.046,1.114-0.277,1.072-1.101c-0.149-2.946-0.225-5.888,0.242-8.828c0.232-1.464-0.127-1.807-1.632-1.788
	c-2.369,0.029-4.735,0.33-7.105,0.034c-1.017-0.126-1.137,0.562-1.123,1.296c0.057,3.115,0.148,6.229,0.201,9.346
	c0.014,0.849,0.456,1.086,1.21,1.072C115.691,42.83,116.907,42.845,118.123,42.845z M117.697,46.544
	c1.378,0,2.756-0.005,4.134,0.003c0.323,0.002,0.628,0.025,0.812-0.332c0.583-1.133-0.125-2.367-1.405-2.377
	c-2.9-0.023-5.802-0.004-8.702-0.029c-2.966-0.026-5.933,0.047-8.899-0.109c-2.835-0.149-5.679-0.308-8.515-0.257
	c-2.965,0.053-5.926,0.196-8.89-0.009c-1.082-0.075-1.571,0.373-1.652,1.438c-0.085,1.115,0.39,1.642,1.543,1.697
	c0.317,0.016,0.637,0.007,0.955,0.003c6.347-0.094,12.695,0.139,19.041-0.221C109.978,46.133,113.836,46.563,117.697,46.544z
	 M122.729,53.227c-0.002,0-0.004,0-0.006-0.001c0-1.323-0.003-2.646,0.001-3.968c0.005-1.66-0.051-1.645-1.667-1.686
	c-2.256-0.055-4.517,0.342-6.774-0.298c-1.363-0.387-2.008,0.417-1.505,1.797c0.333,0.913,0.233,1.669,0.012,2.587
	c-0.331,1.373-0.388,2.86,0.034,4.236c0.235,0.766-0.021,1.71,0.532,2.27c0.591,0.597,1.52,0.126,2.275,0.151
	c1.993,0.067,3.975,0.343,5.991,0.245c1.104-0.053,1.099-0.484,1.104-1.202C122.736,55.98,122.729,54.604,122.729,53.227z
	 M21.665,52.363c-0.008,0-0.016,0-0.023,0c0-1.111-0.021-2.224,0.004-3.336c0.121-5.232,0.268-10.466,0.375-15.699
	c0.036-1.731-0.373-2.071-2.084-2.285c-0.802-0.102-1.016,0.258-0.879,0.865c0.44,1.953,0.077,3.891-0.022,5.832
	c-0.117,2.278,0.126,4.542,0.244,6.811c0.152,2.914-0.353,5.805-0.261,8.72c0.079,2.481,0.656,5.011,0.186,7.434
	c-0.586,3.021,0.739,5.94,0.088,8.905c-0.022,0.1-0.004,0.213,0.015,0.316c0.151,0.875,0.843,0.802,1.474,0.838
	c0.623,0.035,0.895-0.16,0.992-0.876c0.263-1.942,0.013-3.851-0.062-5.781C21.558,60.197,21.665,56.278,21.665,52.363z
	 M22.515,91.521c-0.002,0-0.003,0-0.004,0c0,0.688,0.001,1.377,0,2.065c-0.007,2.459-0.005,2.441,2.435,2.735
	c2.688,0.324,5.382,0.315,8.081,0.296c0.89-0.007,1.239-0.299,1.208-1.199c-0.069-1.956-0.078-3.914-0.109-5.873
	c-0.026-1.609-0.213-1.84-1.753-2.02c-2.884-0.336-5.803,0.128-8.685-0.385c-0.879-0.156-1.223,0.324-1.183,1.201
	C22.551,89.399,22.515,90.461,22.515,91.521z M77.406,61.158c0.475,0.039,1.003,0.072,1.529,0.129
	c0.934,0.102,1.201-0.373,1.176-1.227c-0.021-0.747-0.304-1.155-1.057-1.34c-0.734-0.18-1.466-0.224-2.205-0.199
	c-3.168,0.104-6.331,0.354-9.505,0.277c-4.096-0.098-8.194-0.146-12.291-0.244c-2.374-0.057-4.745-0.184-7.119-0.25
	c-2.273-0.064-4.548-0.096-6.822-0.132c-0.528-0.009-1.05,0.004-1.568,0.179c-0.604,0.202-0.812,0.624-0.828,1.203
	c-0.016,0.535,0.192,0.844,0.736,1.061c0.559,0.225,1.099,0.335,1.685,0.33c1.217-0.012,2.436-0.045,3.652-0.011
	c3.751,0.104,7.5-0.053,11.257,0.142c2.45,0.126,4.937,0.049,7.406,0.049c1.899,0,3.805,0.277,5.689,0.263
	C71.875,61.365,74.613,61.174,77.406,61.158z M33.87,64.443c0-0.636-0.017-1.273,0.005-1.908c0.02-0.583-0.23-0.945-0.815-0.92
	c-3.071,0.131-6.125-0.137-9.185-0.344c-1.199-0.081-1.391,0.242-1.377,1.447c0.011,0.901-0.111,1.84,0.256,2.67
	c0.588,1.329,0.228,2.715,0.108,3.988c-0.121,1.295,0.399,1.35,1.252,1.371c2.893,0.076,5.802-0.274,8.673,0.365
	c1.078,0.241,1.421-0.271,1.352-1.301C34.016,68.025,33.958,66.234,33.87,64.443z M65.615,93.054c0-1.328,0.013-2.279-0.003-3.229
	c-0.023-1.375-0.129-1.475-1.577-1.509c-2.938-0.07-5.876-0.134-8.815-0.196c-1.852-0.039-1.998,0.129-1.879,1.951
	c0.111,1.684,0.211,3.368,0.28,5.055c0.06,1.454,0.065,1.588,1.497,1.627c3.213,0.084,6.425,0.363,9.644,0.068
	c0.62-0.057,0.805-0.213,0.852-0.818C65.7,94.893,65.465,93.779,65.615,93.054z M79.737,50.93c0-1.184,0.009-2.085-0.002-2.986
	c-0.01-0.785-0.319-1.056-1.193-1.007c-2.27,0.125-4.553,0.245-6.821,0.017c-1.64-0.166-1.715-0.162-1.652,1.498
	c0.104,2.75-0.077,5.491-0.374,8.221c-0.087,0.798,0.211,1.092,0.904,1.137c0.474,0.03,0.955,0.021,1.427-0.024
	c2.149-0.208,4.282-0.524,6.456-0.098c1.132,0.223,1.569-0.3,1.634-1.523C80.212,54.309,79.4,52.518,79.737,50.93z M94.323,53.465
	c0.245-1.657-0.359-3.258-0.239-4.903c0.041-0.561-0.257-0.875-0.837-0.938c-0.476-0.052-0.948,0.006-1.418-0.009
	c-1.79-0.055-3.608,0.304-5.364-0.15c-1.824-0.471-2.447-0.096-2.533,1.753c-0.116,2.537,0.244,5.062,0.19,7.598
	c-0.015,0.649,0.234,1.022,0.914,0.996c2.741-0.105,5.479-0.116,8.208,0.234c0.539,0.068,1.163-0.025,1.033-0.809
	C94.067,55.963,94.553,54.719,94.323,53.465z M73.79,74.928c1.75-0.057,3.495,0.042,5.238,0.154
	c4.751,0.305,9.509-0.613,14.261,0.096c0.983,0.146,1.045-0.59,1.05-1.355c0.006-0.837-0.429-1.046-1.108-0.859
	c-0.799,0.218-1.564,0.003-2.344-0.006c-1.489-0.018-2.936-0.463-4.406-0.406c-5.117,0.197-10.227-0.223-15.348-0.08
	c-2.607,0.072-5.248-0.124-7.872-0.095c-1.884,0.021-3.766,0.075-5.652,0.052c-0.854-0.012-1.661-0.35-2.521-0.239
	c-1.154,0.149-1.628,1.222-1.025,2.217c0.489,0.806,1.29,0.763,1.977,0.71c2.434-0.19,4.851-0.059,7.283,0.012
	C66.806,75.23,70.304,75.186,73.79,74.928z M43.202,61.654c-1.323,0-2.647,0.018-3.971-0.006c-0.869-0.016-1.26,0.319-1.177,1.232
	c0.198,2.165,0.136,4.334,0.044,6.504c-0.069,1.634,0.049,1.718,1.666,1.729c2.69,0.018,5.385-0.051,8.07,0.064
	c1.102,0.047,1.421-0.312,1.393-1.314c-0.064-2.222-0.142-4.444-0.108-6.666c0.014-0.908-0.37-1.191-1.159-1.316
	C46.375,61.627,44.786,61.846,43.202,61.654z M123.775,63.877c0,2.279-0.023,4.561,0.01,6.84c0.017,1.156,0.66,1.684,1.584,1.309
	c0.758-0.307,0.804-1.005,0.711-1.729c-0.216-1.683-0.218-3.374-0.132-5.063c0.157-3.062,0.507-6.125,0.461-9.184
	c-0.04-2.682-0.466-5.348-0.253-8.058c0.248-3.165-0.119-6.344,0.027-9.521c0.08-1.729,0.437-3.445,0.055-5.208
	c-0.186-0.858-0.46-1.4-1.319-1.485c-1.025-0.102-0.815,0.72-0.903,1.312c-0.367,2.471-0.26,4.955-0.25,7.44
	C123.797,48.312,123.777,56.096,123.775,63.877z M74.792,71.707c0-0.004,0-0.007,0-0.01c1.373,0,2.746-0.021,4.118,0.01
	c0.526,0.013,0.734-0.154,0.834-0.686c0.453-2.41,0.37-4.842,0.35-7.27c-0.012-1.248-0.445-1.65-1.666-1.514
	c-1.062,0.119-2.104,0.076-3.162-0.02c-1.579-0.143-3.162-0.02-4.742,0.054c-0.617,0.028-0.971,0.224-0.8,0.998
	c0.334,1.509,0.311,3.017-0.095,4.542c-0.334,1.258,0.026,2.592,0.528,3.674c0.287,0.621,1.574,0.045,2.415,0.193
	C73.292,71.807,74.051,71.707,74.792,71.707z M18.206,77.908c0.017-0.263,0.032-0.525,0.051-0.787
	c0.162-2.273,0.103-2.211-2.156-2.306c-3.167-0.134-6.34,0.24-9.495-0.147c-0.884-0.109-1.197,0.111-1.254,1.062
	c-0.092,1.529,0.445,2.965,0.45,4.482c0.005,1.775,0.214,2.024,1.592,1.997c3.327-0.067,6.648,0.298,9.977,0.064
	c0.657-0.047,0.897-0.261,1.005-0.908C18.569,80.192,18.178,79.064,18.206,77.908z M83.171,41.135
	c0.229-1.957-0.042-3.795,0.23-5.653c0.144-0.985,0.118-2.141-0.179-3.214c-0.202-0.734-0.556-1.095-1.29-1.135
	c-0.727-0.039-0.794,0.449-0.946,1.002c-0.331,1.205-0.196,2.414-0.202,3.625c-0.018,4.076-0.156,8.149-0.02,12.229
	c0.159,4.775,0.146,9.556,0.233,14.333c0.052,2.778-0.147,5.558,0.05,8.335c0.044,0.626,0.073,1.177,0.918,1.171
	c0.889-0.007,1.009-0.555,1.017-1.269c0.012-1.004,0.018-2,0.144-3.008c0.312-2.512,0.139-5.055,0.209-7.577
	c0.052-1.846-0.057-3.774-0.321-5.662C82.391,49.88,83.449,45.452,83.171,41.135z M116.364,100.814c1.535,0,3.071,0.013,4.606-0.004
	c1.291-0.014,1.639-0.611,1.066-1.77c-0.325-0.658-0.975-0.6-1.522-0.621c-2.11-0.08-4.224-0.138-6.336-0.133
	c-2.479,0.008-4.958,0.057-7.436,0.145c-3.798,0.137-7.595-0.096-11.395,0.066c-2.267,0.098-4.547-0.046-6.816-0.171
	c-0.855-0.048-1.661-0.245-2.562-0.062c-1.06,0.215-1.075,0.847-1.031,1.617c0.048,0.859,0.534,1.257,1.373,1.114
	c1.947-0.33,3.907-0.126,5.861-0.187c1.318-0.042,2.661-0.228,3.951-0.048c2.833,0.395,5.678,0.441,8.516,0.408
	C108.548,101.125,112.45,100.76,116.364,100.814z M38.682,92.182c-0.004,0-0.009,0-0.013,0c0,1.006-0.015,2.014,0.003,3.02
	c0.025,1.405,0.409,1.76,1.807,1.65c0.63-0.051,1.244-0.261,1.89-0.177c2.04,0.265,4.093,0.097,6.139,0.184
	c0.734,0.031,1.109-0.234,1.163-1.106c0.13-2.125-0.402-4.213-0.228-6.332c0.047-0.568-0.276-0.891-0.855-0.916
	c-0.476-0.02-0.957,0.014-1.427-0.041c-2.454-0.285-4.949-0.129-7.378-0.656c-0.792-0.173-1.093,0.145-1.098,0.877
	C38.677,89.85,38.682,91.016,38.682,92.182z M95.18,77.431c0,1.642-0.021,3.282,0.008,4.923c0.017,0.971,0.717,1.058,1.463,0.979
	c0.448-0.048,1.1,0.024,1.027-0.677c-0.235-2.268,0.052-4.516,0.111-6.775c0.231-8.735-0.139-17.471-0.208-26.205
	c-0.001-0.159-0.02-0.318-0.025-0.477c-0.03-0.811-0.606-0.916-1.222-0.902c-0.596,0.014-1.21,0.078-1.258,0.887
	c-0.024,0.423-0.056,0.851-0.021,1.271c0.376,4.439-0.07,8.882,0.051,13.327C95.23,68.323,95.318,72.882,95.18,77.431z
	 M94.352,67.516c0-1.104-0.041-2.209,0.014-3.311c0.044-0.883-0.298-1.285-1.179-1.249c-2.636,0.11-5.253-0.387-7.895-0.233
	c-0.729,0.043-1.168,0.314-1.071,1.025c0.316,2.32-0.102,4.623-0.109,6.934c-0.004,0.953,0.356,1.172,1.212,1.151
	c1.69-0.042,3.382-0.007,5.072,0.001c1.046,0.004,2.079,0.271,3.144,0.026c0.613-0.143,1.006-0.35,0.906-1.019
	C94.281,69.734,94.377,68.624,94.352,67.516z M77.065,97.211c0.853,0.193,1.688,0.01,2.533-0.031
	c0.693-0.034,0.92-0.426,0.904-1.033c-0.054-2.149-0.149-4.299-0.163-6.447c-0.006-0.871-0.302-1.241-1.197-1.25
	c-2.626-0.027-5.251,0.365-7.877,0.028c-0.835-0.108-1.127,0.297-1.145,1.089c-0.042,1.953-0.155,3.904-0.188,5.858
	c-0.023,1.478,0.203,1.725,1.743,1.773C73.472,97.255,75.269,97.211,77.065,97.211z M27.724,75.145
	c-0.832-0.098-2.411,0.205-3.993-0.002c-0.89-0.115-1.232,0.435-1.22,1.257c0.026,1.794-0.067,3.585,0.167,5.381
	c0.098,0.747,0.367,0.845,0.98,0.842c1.108-0.007,2.238-0.083,3.321,0.099c2.036,0.34,4.089,0.322,6.13,0.502
	c0.946,0.082,1.069-0.463,0.996-1.175c-0.058-0.573-0.341-1.128-0.183-1.716c0.361-1.348,0.226-2.733,0.358-4.096
	c0.09-0.924-0.312-1.137-1.075-1.049C31.627,75.37,30.049,75.268,27.724,75.145z M94.645,29.661c0,0.053,0,0.104,0,0.157
	c4.347,0,8.693,0.011,13.041-0.008c1.188-0.005,1.46-0.428,1.257-1.59c-0.165-0.942-0.862-0.769-1.471-0.77
	c-5.703-0.009-11.406,0.016-17.109-0.018c-5.709-0.033-11.418-0.108-17.127-0.202c-0.59-0.01-1.177-0.017-1.729,0.135
	c-0.636,0.174-0.935,0.737-0.889,1.349c0.043,0.587,0.633,0.731,1.085,0.709c1.172-0.058,2.317,0.332,3.458,0.256
	c2.376-0.159,4.733-0.158,7.116-0.063C86.393,29.78,90.521,29.661,94.645,29.661z M103.481,71.83c1.214,0,2.429,0.008,3.643-0.003
	c1.47-0.011,1.812-0.283,1.691-1.765c-0.15-1.85-0.054-3.693-0.111-5.539c-0.038-1.256-0.227-1.514-1.506-1.396
	c-2.526,0.229-5.03-0.362-7.564-0.087c-0.795,0.087-1.013,0.272-1.009,0.979c0.011,2.216,0.035,4.433-0.008,6.647
	c-0.018,0.92,0.374,1.2,1.228,1.173C101.056,71.801,102.269,71.83,103.481,71.83z M117.729,63.299
	c-0.001-0.07-0.001-0.141-0.002-0.209c-1.263,0-2.526,0.011-3.79-0.004c-1.218-0.014-1.39,0.157-1.358,1.32
	c0.039,1.479,0.062,2.961,0.066,4.442c0.009,3.485-0.427,2.934,2.887,2.991c1.958,0.035,3.917-0.018,5.876-0.03
	c0.856-0.006,1.366-0.261,1.33-1.296c-0.068-2.01-0.028-4.024-0.004-6.036c0.011-0.847-0.253-1.257-1.2-1.198
	C120.27,63.357,118.997,63.299,117.729,63.299z M58.197,83.194c2.11,0.212,4.215,0.106,6.323,0.021
	c0.994-0.041,1.144-0.5,1.052-1.311c-0.155-1.359-0.32-2.719-0.414-4.083c-0.107-1.565-0.076-1.532-1.63-1.58
	c-1.884-0.058-3.762-0.496-5.649-0.028c-1.186,0.294-2.244-0.453-3.401-0.43c-0.562,0.013-1.112,0-1.086,0.779
	c0.061,1.845,0.005,3.686-0.213,5.519c-0.116,0.974,0.405,1.155,1.236,1.125C55.674,83.162,56.936,83.194,58.197,83.194z
	 M42.641,75.418c-1.275,0-2.233,0.072-3.175-0.02c-1.016-0.1-1.286,0.332-1.266,1.252c0.04,1.792,0.067,3.588-0.004,5.377
	c-0.036,0.905,0.316,1.328,1.151,1.297c2.907-0.109,5.794,0.365,8.702,0.254c0.732-0.027,1.061-0.257,1.065-1.004
	c0.013-1.948,0.044-3.897,0.095-5.846c0.022-0.863-0.482-1.084-1.2-1.096C46.11,75.604,44.223,75.234,42.641,75.418z M89.115,97.202
	c1.424,0.1,2.854,0.229,4.274,0.016c0.782-0.118,1.196-0.354,1.085-1.333c-0.237-2.096-0.234-4.213,0.035-6.315
	c0.089-0.69-0.113-1.194-0.873-1.198c-2.581-0.018-5.162,0.01-7.743,0.007c-0.742-0.001-1.014,0.354-1.008,1.075
	c0.02,2.267,0.011,4.533-0.003,6.799c-0.004,0.635,0.188,0.986,0.908,0.961C86.898,97.174,88.007,97.202,89.115,97.202z
	 M66.455,52.511c0,1.376,0.027,2.754-0.01,4.129c-0.023,0.879,0.312,1.235,1.21,1.2c0.882-0.035,1.222-0.408,1.189-1.275
	c-0.076-2.062,0.014-4.124,0.126-6.184c0.065-1.209,0.193-2.426,0.116-3.627c-0.371-5.763-0.407-11.521,0.043-17.277
	c0.042-0.551-0.019-1.069-0.181-1.56c-0.269-0.812-0.925-1.129-1.742-0.975c-0.732,0.138-1.456,0.301-1.366,1.367
	c0.123,1.457,0.053,2.94,0.146,4.384c0.177,2.728-0.119,5.474,0.417,8.193c0.382,1.936-0.68,3.887-0.282,5.811
	C66.524,48.641,66.367,50.572,66.455,52.511z M4.967,36.551c-0.178-1.382-0.176-2.752-0.078-4.129
	c0.116-1.623,0.083-3.255,0.113-4.884c0.024-1.25-0.813-1.266-1.714-1.2c-0.902,0.066-1.53,0.421-1.463,1.445
	c0.282,4.334,0.131,8.674,0.207,13.01c0.031,1.734,0.782,3.512-0.364,5.167c-0.078,0.114-0.067,0.307-0.061,0.462
	c0.136,2.85,0.279,5.699,0.418,8.549c0.059,1.212,0.329,1.492,1.334,1.51c1.267,0.023,0.916-0.891,0.925-1.566
	c0.037-3.016-0.016-6.035,0.097-9.048C4.498,42.758,4.766,39.656,4.967,36.551z M52.575,77.651c0.243-2.759-0.433-5.485-0.255-8.243
	c0.105-1.633-0.093-3.27,0.211-4.906c0.193-1.037-0.536-1.728-1.565-1.734c-1.108-0.008-1.094,0.744-1.043,1.537
	c0.047,0.737,0.262,1.446,0.255,2.2c-0.033,3.763-0.031,7.527-0.02,11.291c0.008,2.688-0.22,5.372-0.008,8.065
	c0.058,0.742,0.665,1.367,0.421,2.113c-0.897,2.748,0.334,5.407,0.294,8.117c-0.001,0.051,0.021,0.104,0.028,0.156
	c0.064,0.455,0.36,0.604,0.782,0.611c0.421,0.007,0.718-0.176,0.869-0.561c0.159-0.405,0.125-0.833,0.081-1.256
	c-0.166-1.578-0.302-3.207-0.194-4.74C52.728,86.079,52.28,81.862,52.575,77.651z M117.727,88.833c0-0.018,0-0.035,0-0.053
	c-1.162,0-2.327,0.054-3.484-0.019c-0.818-0.053-1.188,0.174-1.153,1.034c0.087,2.158,0.124,4.319,0.208,6.478
	c0.024,0.624,0.404,0.93,1.041,0.94c2.27,0.038,4.539,0.083,6.809,0.136c0.842,0.021,1.238-0.281,1.205-1.208
	c-0.074-2.097-0.177-4.197,0.211-6.286c0.131-0.712-0.282-1.05-1.031-1.031C120.264,88.856,118.994,88.833,117.727,88.833z
	 M25.766,74.205c2.579,0,4.795,0.023,7.011-0.015c0.647-0.011,1.458,0.075,1.453-1.001c-0.005-0.964-0.469-1.229-1.394-1.266
	c-4.223-0.17-8.45-0.061-12.673-0.329c-3.687-0.235-7.387-0.269-11.081-0.356c-2.065-0.049-4.132-0.014-6.198-0.045
	c-1.095-0.018-1.13,0.677-1.126,1.485c0.003,0.849,0.403,1.079,1.201,1.027c1.108-0.073,2.226-0.079,3.337-0.05
	C12.907,73.832,19.516,74.027,25.766,74.205z M74.611,83.57c0-0.004,0-0.008,0-0.012c1.324,0,2.648-0.004,3.973,0.002
	c0.497,0.002,0.948-0.021,1.135-0.618c0.622-1.997,0.769-4.037,0.448-6.089c-0.094-0.604-0.407-1.017-1.339-0.797
	c-2.331,0.549-4.737-0.607-7.102,0.133c-0.123,0.039-0.295-0.084-0.444-0.129c-1.259-0.383-1.332-0.33-1.373,0.955
	c-0.06,1.844,0.201,3.697-0.302,5.527c-0.212,0.771,0.358,1.021,1.031,1.024C71.963,83.574,73.287,83.57,74.611,83.57z
	 M37.102,57.623c-0.091-2.056-0.12-4.494,0.121-6.915c0.124-1.247,0.321-2.377-0.95-3.194c-0.319-0.205-0.423-0.789-0.972-0.564
	c-0.586,0.24-0.484,0.757-0.398,1.229c0.223,1.232,0.26,2.477,0.303,3.725c0.118,3.379-0.548,6.709-0.444,10.109
	c0.108,3.543,0.512,7.065,0.534,10.605c0.016,2.332,0.269,4.689-0.178,6.981c-0.192,0.986-0.146,1.833,0.045,2.772
	c0.123,0.604,0.356,0.801,0.911,0.832c0.608,0.036,1.06-0.115,1.143-0.791c0.064-0.523,0.134-1.053,0.126-1.578
	c-0.047-3.326-0.014-6.65-0.187-9.981C36.934,66.579,37.102,62.285,37.102,57.623z M112.148,86.791
	c0.134-4.079,0.02-7.994-0.216-11.904c-0.192-3.176-0.061-6.35-0.081-9.524c-0.005-0.8-0.053-1.552-1.061-1.618
	c-1.166-0.077-1.035,0.848-1.04,1.554c-0.019,2.538-0.026,5.077,0.023,7.614c0.117,5.974,0.28,11.946,0.4,17.92
	c0.034,1.746-0.054,3.494-0.007,5.239c0.016,0.628,0.19,1.3,1.121,1.188c0.881-0.104,1.226-0.671,1.109-1.436
	C111.931,92.766,112.357,89.691,112.148,86.791z M89.466,83.35c0-0.004,0-0.009,0-0.014c1.318,0,2.637,0.008,3.955-0.004
	c0.512-0.005,0.905-0.105,0.878-0.805c-0.05-1.262,0.123-2.549-0.058-3.787c-0.106-0.73,0.317-1.521-0.146-2.145
	c-0.569-0.766-1.516-0.187-2.216-0.432c-2.159-0.76-4.367-0.203-6.543-0.376c-0.583-0.046-1.025,0.286-0.947,0.802
	c0.293,1.943-0.02,3.904,0.238,5.848c0.09,0.675,0.424,0.912,1.036,0.912C86.931,83.35,88.198,83.35,89.466,83.35z M104.029,83.169
	c1.324,0,2.747-0.011,4.17,0.005c0.57,0.008,0.901-0.152,0.878-0.801c-0.056-1.582-0.087-3.163-0.117-4.744
	c-0.012-0.645-0.312-0.973-0.963-0.991c-2.79-0.08-5.589,0.087-8.371-0.234c-0.866-0.1-1.116,0.347-1.104,1.113
	c0.025,1.579,0.018,3.151,0.345,4.72c0.188,0.902,0.649,1.166,1.427,1.05C101.506,83.104,102.721,83.287,104.029,83.169z
	 M102.744,58.918c-0.816,0-1.508-0.045-2.191,0.011c-0.833,0.067-1.562,0.949-1.474,1.692c0.167,1.425,0.237,1.447,1.632,1.476
	c0.744,0.015,1.451-0.191,2.205-0.147c5.676,0.327,11.359,0.057,17.039,0.174c0.633,0.014,1.266,0.135,1.895,0.107
	c0.923-0.041,0.859-0.779,0.859-1.412c0-0.51,0.111-1.211-0.656-1.205c-2.681,0.019-5.334-0.404-8.024-0.354
	c-2.134,0.04-4.262,0.275-6.409,0.146C105.94,59.305,104.324,58.635,102.744,58.918z M117.588,76.768c-1.4,0-2.512,0.028-3.62-0.011
	c-0.807-0.028-1.031,0.351-0.899,1.065c0.242,1.307,0.205,2.627,0.196,3.945c-0.012,1.831,0.12,2.121,1.912,1.996
	c2.164-0.152,4.323-0.158,6.485-0.184c0.737-0.009,1.051-0.355,1.045-1.07c-0.014-1.48-0.01-2.961-0.019-4.441
	c-0.005-0.656-0.257-0.941-0.982-1.139C120.226,76.523,118.754,76.99,117.588,76.768z M68.972,88.584
	c-0.168-3.119-0.347-6.063-0.139-9.016c0.03-0.422,0.018-0.849-0.014-1.271c-0.076-1.016-0.718-1.573-1.642-1.452
	c-0.894,0.117-1.328,0.752-0.978,1.763c0.237,0.684,0.234,1.344,0.247,2.023c0.027,1.52,0.141,3.031,0.062,4.564
	c-0.127,2.516,0.018,5.041,0.152,7.562c0.127,2.373,0.083,4.754,0.128,7.132c0.012,0.619,0.121,1.24,0.969,1.087
	c0.643-0.117,1.218-0.131,1.295-1.191c0.16-2.174-0.471-4.303-0.202-6.455C69.057,91.689,68.916,90.049,68.972,88.584z
	 M52.574,29.633c0-0.477-0.037-0.957,0.009-1.429c0.079-0.817-0.156-1.342-1.066-1.395c-1.135-0.064-1.63,0.286-1.864,1.223
	c-0.178,0.711,0.254,1.372,0.123,2.041c-0.538,2.729,0.105,5.479-0.19,8.208c-0.087,0.802,0.144,1.578,0.221,2.366
	c0.125,1.271,1.083,0.85,1.811,0.927c0.839,0.09,0.904-0.433,0.962-1.071c0.085-0.958-0.218-1.87-0.226-2.828
	C52.328,34.988,52.401,32.311,52.574,29.633z M3.446,57.199c-0.105,0-0.212,0.01-0.316-0.002c-1.036-0.115-1.358,0.342-1.363,1.373
	c-0.005,1.135,0.572,1.055,1.403,1.082c4.628,0.151,9.255,0.369,13.881,0.588c0.594,0.028,1.23,0.246,1.245-0.678
	c0.011-0.703,0.266-1.546-0.911-1.639c-1.359-0.107-2.714-0.447-4.075-0.301c-1.417,0.152-2.816,0.002-4.223-0.03
	C7.201,57.549,5.292,57.805,3.446,57.199z M9.529,41.689c-0.734,0-1.476-0.06-2.202,0.016c-0.882,0.093-1.345,1.107-1.187,2.392
	c0.113,0.915,0.819,0.667,1.344,0.656c3.325-0.069,6.644,0.043,9.958,0.307c0.498,0.04,0.936,0.16,1.084-0.534
	c0.438-2.049-0.45-3.211-2.526-3.043C13.843,41.656,11.69,41.735,9.529,41.689z M57.428,87.001c2.269-0.054,4.53,0.39,6.799,0.122
	c0.502-0.059,1.119,0.058,1.321-0.619c0.388-1.295-0.398-2.394-1.761-2.465c-0.421-0.021-0.857-0.047-1.266,0.031
	c-1.732,0.326-3.479,0.182-5.219,0.176c-0.786-0.004-1.561-0.266-2.362-0.197c-1.026,0.09-1.536,0.615-1.47,1.653
	c0.053,0.843,0.451,1.369,1.419,1.31C55.734,86.96,56.583,87.001,57.428,87.001z M125.938,29.395
	c0.014-1.453-0.204-1.644-1.617-1.808c-1.627-0.188-3.253-0.232-4.887-0.2c-1.576,0.032-3.154,0.025-4.73-0.01
	c-0.736-0.016-1.102,0.281-1.097,1.006c0.004,0.607-0.214,1.537,0.595,1.576c1.266,0.062,2.472,0.686,3.735,0.438
	c2.286-0.448,4.556-0.451,6.84-0.021C125.551,30.521,126.016,30.217,125.938,29.395z M114.07,74.592
	c-0.032,1.314,0.547,1.944,1.842,1.475c1.246-0.451,2.471,0.058,3.678-0.357c0.565-0.194,1.405-0.26,1.863,0.027
	c1.364,0.854,2.559-0.16,3.828-0.141c0.764,0.011,0.652-0.703,0.662-1.209c0.012-0.521,0.064-1.116-0.691-1.207
	c-0.784-0.095-1.583-0.304-2.354-0.232c-2.359,0.219-4.706,0.046-7.058-0.057C114.356,72.826,114.108,73.061,114.07,74.592z
	 M21.806,94.266c-0.029,0-0.059,0-0.088,0c0-1.688,0.005-3.373-0.002-5.061c-0.004-0.801-0.776-1.474-1.67-1.492
	c-0.984-0.022-1.038,0.582-1.024,1.359c0.059,3.158-0.093,6.318,0.224,9.475c0.153,1.523,0.063,1.488,1.63,1.564
	c0.767,0.037,1.001-0.122,0.957-0.944C21.744,97.537,21.806,95.9,21.806,94.266z M126.184,94.213c0-1.571-0.014-2.738,0.004-3.904
	c0.012-0.684-0.23-1.128-0.96-1.195c-0.68-0.062-1.274,0.053-1.568,0.774c-0.141,0.346-0.24,0.696-0.222,1.079
	c0.139,2.984-0.368,5.968-0.008,8.953c0.06,0.494-0.136,1.121,0.721,1.124c1.066,0.003,1.859-0.461,1.838-1.212
	C125.93,97.818,126.432,95.824,126.184,94.213z M83.954,93.868c0-1.2-0.005-2.099,0.001-2.997c0.009-1.23-0.536-2.001-1.438-2.023
	c-1.007-0.025-1.412,0.615-1.319,2.018c0.082,1.258,0.108,2.52,0.198,3.777c0.113,1.586-0.408,3.142-0.21,4.73
	c0.152,1.219,0.439,1.479,1.591,1.449c1.182-0.031,1.39-0.221,1.375-1.574C84.132,97.353,83.773,95.469,83.954,93.868z
	 M8.934,96.982c-0.264,0-0.533-0.029-0.792,0.006c-0.711,0.093-1.739-0.299-1.727,1.001c0.013,1.182,0.43,1.576,1.873,1.48
	c1.69-0.111,3.37,0.079,5.051,0.024c1.299-0.043,2.585,0.203,3.897,0.023c0.817-0.112,1.055-0.439,1.094-1.204
	c0.059-1.132-0.607-1.302-1.493-1.335C14.202,96.877,11.568,97.22,8.934,96.982z M49.553,54.129c0.045,0.735,0.125,1.363,0.114,1.99
	c-0.023,1.308,0.195,1.492,1.605,1.601c1.209,0.093,1.076-0.665,1.047-1.424c-0.02-0.526-0.034-1.058,0.006-1.581
	c0.157-2.021-0.271-4.037-0.035-6.062c0.092-0.798-0.89-1.605-1.778-1.592c-1.012,0.018-1.156,0.697-1.196,1.506
	C49.222,50.466,49.804,52.332,49.553,54.129z M75.154,101.025c1.371,0,2.744,0.051,4.111-0.018c1.096-0.055,1.365-0.471,1.316-1.524
	c-0.046-0.999-0.619-1.231-1.484-1.16c-1.311,0.107-2.62,0.05-3.935,0.015c-1.168-0.031-2.223-0.634-3.411-0.477
	c-1.093,0.146-1.24,0.324-1.249,1.701c-0.005,0.85-0.037,1.6,1.193,1.502C72.844,100.975,74.001,101.262,75.154,101.025z
	 M45.008,74.732c0.661,0,1.926-0.002,3.191,0.001c0.301,0.001,0.651,0.2,0.871-0.147c0.431-0.68,0.199-1.447,0.146-2.152
	c-0.034-0.451-0.612-0.464-1.053-0.477c-2.841-0.082-5.685,0.175-8.525-0.072c-0.509-0.045-0.755,0.24-0.875,0.719
	c-0.266,1.063,0.26,1.855,1.371,1.99C41.556,74.765,42.981,74.425,45.008,74.732z M92.05,61.889c0.371,0,0.745-0.027,1.112,0.006
	c0.935,0.084,1.205-0.391,1.172-1.242c-0.032-0.805,0.102-1.73-1.061-1.758c-2.424-0.059-4.845-0.268-7.271-0.1
	c-1.033,0.071-1.349,0.727-1.34,1.615c0.011,0.896,0.611,1.568,1.541,1.405C88.175,61.47,90.104,61.812,92.05,61.889z
	 M28.456,57.933c0-0.012,0-0.023,0-0.035c-1.374,0-2.749,0.044-4.12-0.016c-0.937-0.04-1.205,0.411-1.228,1.232
	c-0.021,0.758,0.213,1.202,1.061,1.224c2.834,0.068,5.67,0.113,8.499,0.279c1.216,0.072,1.245-0.705,1.345-1.477
	c0.122-0.937-0.504-1.193-1.275-1.203C31.31,57.92,29.882,57.933,28.456,57.933z M95.191,38.149c0,1.547-0.055,2.606,0.015,3.656
	c0.079,1.196,1.145,0.653,1.745,0.808c0.604,0.154,0.938-0.331,0.852-0.994c-0.121-0.938-0.274-1.867-0.222-2.828
	c0.109-1.997-0.12-4.004,0.229-5.998c0.153-0.879-0.273-1.396-1.238-1.402c-0.891-0.007-1.199,0.402-1.163,1.27
	C95.493,34.658,94.989,36.637,95.191,38.149z M78.495,45.754c1.218,0.591,1.222-0.193,1.257-1.026
	c0.041-0.952-0.158-1.466-1.319-1.343c-0.812,0.086-1.686-0.08-2.509-0.097c-1.463-0.032-2.907-0.492-4.404-0.128
	c-0.759,0.185-1.306,0.273-1.233,1.227c0.092,1.194,0.368,1.547,1.449,1.591C73.999,46.069,76.265,46.25,78.495,45.754z
	 M103.969,72.885c0-0.006,0-0.013,0-0.02c-1.061,0-2.122,0.031-3.182-0.008c-1.066-0.041-1.327,0.16-1.275,1.139
	c0.058,1.075,0.467,1.52,1.581,1.537c2.12,0.033,4.241,0.004,6.361,0.013c0.733,0.003,1.502-0.03,1.462-1
	c-0.045-1.108-0.436-1.712-1.451-1.671C106.301,72.922,105.134,72.885,103.969,72.885z M1.982,65.654c-0.003,0-0.006,0-0.008,0
	c0,1.106,0.059,2.217-0.02,3.318c-0.06,0.844,0.069,1.26,1.062,1.228c1.663-0.054,1.799-0.025,1.692-1.279
	c-0.143-1.678-0.025-3.352-0.104-5.024c-0.029-0.623,0.017-1.26-0.238-1.872c-0.351-0.84-1.096-0.759-1.745-0.729
	c-0.742,0.033-0.661,0.648-0.648,1.195C2,63.545,1.982,64.6,1.982,65.654z M56.288,26.873c-0.939-0.007-1.688-0.117-1.717,1.048
	c-0.029,1.112,0.501,1.339,1.46,1.303c2.75-0.103,5.487,0.146,8.224,0.382c0.706,0.061,0.987-0.225,0.921-0.9
	c-0.082-0.835-0.246-1.469-1.372-1.48C61.234,27.198,58.632,27.674,56.288,26.873z M68.836,65.792c0-0.579,0.015-0.896-0.002-1.212
	c-0.053-0.96-0.953-1.814-1.871-1.684c-1.06,0.15-1.008,1.082-0.835,1.734c0.505,1.897,0.136,3.817,0.312,5.718
	c0.066,0.713-0.021,1.438,1.024,1.362c0.912-0.065,1.398-0.432,1.4-1.479C68.868,68.664,68.489,67.097,68.836,65.792z
	 M97.988,93.768c-0.021,0-0.041,0-0.062,0c0-1.057,0.038-2.115-0.015-3.169c-0.031-0.608-1.357-1.564-2-1.457
	c-1.073,0.18-0.718,1.061-0.626,1.645c0.209,1.32,0.091,2.633,0.083,3.946c-0.004,0.576-0.179,1.15-0.182,1.727
	c-0.004,1.044,0.757,1.191,1.542,1.092c0.676-0.086,1.546-0.02,1.29-1.255C97.852,95.485,97.988,94.612,97.988,93.768z
	 M111.842,52.978c-0.092-1.169,0.065-2.33,0.097-3.494c0.026-0.969-0.611-1.558-1.446-1.466c-0.98,0.106-0.804,0.811-0.713,1.438
	c0.308,2.104,0.32,4.223,0.199,6.337c-0.036,0.64,0.003,1.254,0.048,1.882c0.048,0.658,0.447,0.76,0.979,0.738
	c1.036-0.039,1.053-0.873,0.963-1.5C111.78,55.596,111.957,54.284,111.842,52.978z M35.201,36.107c0.004,0,0.008,0,0.012,0
	c0,1.426,0.003,2.852-0.002,4.278c-0.002,0.683,0.368,0.948,1.002,0.906c0.583-0.039,0.833-0.362,0.785-0.948
	c-0.072-0.89-0.253-1.795-0.159-2.668c0.22-2.049,0.158-4.099,0.251-6.145c0.034-0.752-0.32-0.821-0.804-0.807
	c-0.778,0.022-1.095,0.508-1.089,1.262C35.209,33.359,35.201,34.733,35.201,36.107z M35.243,92.271
	c0.047,0.001,0.094,0.002,0.14,0.002c0,1.213-0.055,2.43,0.021,3.638c0.044,0.714,0.532,0.854,1.251,0.753
	c0.701-0.098,1.011-0.236,0.981-1.037c-0.077-2.042-0.515-4.068-0.115-6.14c0.158-0.819-0.733-0.936-1.343-1.009
	c-0.786-0.095-0.967,0.42-0.942,1.108C35.267,90.48,35.243,91.377,35.243,92.271z M81.066,80.381c0.01,0,0.019,0.001,0.027,0.002
	c-0.043,0.735-0.056,1.475-0.142,2.204c-0.039,0.329-0.125,0.618,0.202,0.837c0.949,0.635,2.281-0.039,2.423-1.203
	c0.167-1.359-0.086-2.719,0.11-4.094c0.141-0.987-0.914-0.986-1.59-1.113c-0.706-0.131-1.068,0.24-1.038,0.996
	C81.091,78.799,81.066,79.59,81.066,80.381z M21.675,79.127c-0.003,0-0.006,0-0.008,0c0-0.74-0.048-1.484,0.011-2.219
	c0.08-1.005-0.413-1.296-1.319-1.297c-1.031-0.002-1.173,0.531-1.148,1.43c0.037,1.413,0.417,2.835,0.242,4.207
	c-0.134,1.047,0.32,1.058,0.985,1.106c0.712,0.052,1.418,0.13,1.257-1.009C21.591,80.619,21.675,79.867,21.675,79.127z
	 M125.958,80.83c-0.034,0-0.068,0-0.103,0c0-0.209,0.02-0.42-0.004-0.627c-0.07-0.62,0.135-1.279-0.188-1.859
	c-0.292-0.524-0.737-0.971-1.37-0.898c-0.729,0.084-0.616,0.751-0.615,1.251c0.004,1.206,0.07,2.412,0.074,3.618
	c0.002,0.613-0.266,1.35,0.7,1.445c0.902,0.088,1.459-0.438,1.502-1.356C125.979,81.881,125.958,81.354,125.958,80.83z"/>
</svg>
