<?xml version="1.0" encoding="utf-8"?>
<!-- Generator: Adobe Illustrator 16.0.4, SVG Export Plug-In . SVG Version: 6.00 Build 0)  -->
<!DOCTYPE svg PUBLIC "-//W3C//DTD SVG 1.1//EN" "http://www.w3.org/Graphics/SVG/1.1/DTD/svg11.dtd">
<svg version="1.1" id="Layer_4602" xmlns="http://www.w3.org/2000/svg" xmlns:xlink="http://www.w3.org/1999/xlink" x="0px" y="0px"
	 width="128px" height="128px" viewBox="0 0 128 128" enable-background="new 0 0 128 128" xml:space="preserve">
<g>
	<path fill-rule="evenodd" clip-rule="evenodd" d="M64.26,70.854c7.25,0,14.501-0.002,21.751,0.003c0.847,0,1.697,0.004,2.54,0.072
		c1.146,0.092,1.963,0.658,2.203,1.835c0.219,1.068,0.207,2.268-0.872,2.743c-1.42,0.626-1.707,1.78-2.101,3.033
		c-1.914,6.094-3.83,12.189-5.853,18.248c-0.727,2.176-0.532,4.173,0.171,6.308c1.735,5.265,3.312,10.58,4.949,15.876
		c0.165,0.534,0.336,1.072,0.431,1.621c0.069,0.395-0.126,0.721-0.529,0.881c-0.424,0.167-0.825-0.028-0.987-0.329
		c-0.348-0.658-0.613-1.368-0.834-2.082c-1.371-4.398-2.698-8.812-4.094-13.2c-0.217-0.685-0.29-1.829-1.019-1.862
		c-0.768-0.032-0.641,1.122-0.854,1.747c-0.849,2.489-1.499,5.053-2.422,7.513c-0.668,1.774-0.867,3.429-0.04,5.175
		c0.278,0.587,0.444,1.239,0.58,1.878c0.1,0.47,0.003,0.951-0.491,1.208c-0.549,0.286-0.968-0.046-1.153-0.461
		c-0.492-1.087-0.865-1.54-1.395-0.023c-0.157,0.451-0.608,0.766-1.133,0.554c-0.604-0.242-0.934-0.788-0.58-1.359
		c2.4-3.887,0.238-7.41-0.827-11.017c-0.479-1.621-1.017-3.224-1.554-4.827c-0.103-0.305-0.14-0.78-0.57-0.764
		c-0.156,0.007-0.351,0.422-0.435,0.68c-1.259,3.934-2.53,7.866-3.737,11.816c-0.417,1.37,0.499,2.54,0.797,3.805
		c0.312,1.325-0.04,2.3-1.462,1.337c-0.972-0.66-2.06,1.318-2.609-0.312c-0.349-1.033,0.36-2.012,0.657-2.971
		c0.372-1.2,0.031-2.253-0.291-3.309c-1.014-3.326-2.103-6.629-3.191-9.933c-0.125-0.381,0.026-1.074-0.615-1.041
		c-0.544,0.027-0.617,0.65-0.751,1.081c-1.095,3.496-2.239,6.98-3.223,10.509c-0.453,1.624,0.672,3.07,0.959,4.624
		c0.104,0.562,0.217,1.188-0.358,1.529c-0.612,0.365-1.045-0.011-1.36-0.556c-0.449-0.778-0.782-0.545-1.152,0.1
		c-0.242,0.421-0.68,0.728-1.185,0.489c-0.635-0.301-0.656-0.947-0.42-1.462c2.602-5.68-1.441-10.283-2.47-15.37
		c-0.049-0.242-0.359-0.635-0.504-0.616c-0.415,0.054-0.394,0.53-0.497,0.845c-1.588,4.821-3.163,9.646-4.735,14.47
		c-0.146,0.446-0.211,0.924-0.398,1.349c-0.225,0.512-0.525,1.098-1.224,0.864c-0.639-0.213-0.765-0.813-0.586-1.399
		c0.824-2.697,1.665-5.388,2.526-8.072c0.918-2.863,1.75-5.764,2.839-8.563c1.09-2.801,0.752-5.444-0.177-8.17
		c-1.972-5.78-3.948-11.562-5.562-17.456c-0.265-0.968-0.668-1.633-1.716-1.985c-1.201-0.405-1.721-1.432-1.519-2.707
		c0.223-1.41,1.17-2.182,2.517-2.251c2.251-0.117,4.511-0.095,6.767-0.099c5.933-0.011,11.865-0.004,17.798-0.004
		C64.26,70.849,64.26,70.852,64.26,70.854z M59.712,99.503c1.324,4.188,2.649,8.387,3.985,12.581
		c0.051,0.158,0.243,0.417,0.312,0.399c0.397-0.101,0.577-0.439,0.696-0.806c1.188-3.656,2.351-7.322,3.582-10.965
		c0.327-0.967,0.187-1.872-0.091-2.756c-1.125-3.578-2.308-7.14-3.462-10.708c-0.115-0.354-0.162-0.855-0.565-0.881
		c-0.624-0.036-0.568,0.638-0.693,1.009c-0.717,2.132-1.382,4.28-2.045,6.431C60.849,95.687,60.293,97.574,59.712,99.503z
		 M82.311,76.206c-1.033,0-2.067-0.013-3.102,0.006c-0.459,0.008-1.131-0.054-1.238,0.434c-0.608,2.78-2.645,5.287-1.634,8.384
		c0.991,3.032,1.939,6.077,2.958,9.1c0.153,0.456-0.014,1.306,0.724,1.275c0.661-0.028,0.678-0.832,0.835-1.334
		c1.465-4.654,2.918-9.312,4.33-13.983C86.357,76.196,86.33,76.188,82.311,76.206z M46.513,76.198c-0.658,0-1.317-0.012-1.976,0.002
		c-2.543,0.048-2.644,0.082-1.889,2.54c1.598,5.202,3.31,10.371,4.984,15.551c0.114,0.352,0.287,0.947,0.471,0.962
		c0.523,0.045,0.676-0.501,0.816-0.921c0.83-2.494,1.546-5.031,2.493-7.479c0.927-2.398,0.998-4.652,0.059-7.093
		C50.112,76.229,50.223,76.187,46.513,76.198z M78.947,100.04c-0.043-0.422-0.031-0.618-0.086-0.794
		c-1.164-3.771-2.33-7.54-3.52-11.302c-0.078-0.244-0.343-0.605-0.523-0.607c-0.46-0.006-0.41,0.488-0.51,0.8
		c-1.104,3.398-2.176,6.81-3.307,10.198c-0.252,0.756-0.271,1.418-0.017,2.178c1.161,3.479,2.267,6.977,3.401,10.465
		c0.101,0.308,0.014,0.846,0.578,0.74c0.421-0.078,0.483-0.505,0.591-0.868c0.769-2.614,1.532-5.229,2.333-7.834
		C78.22,101.942,78.641,100.897,78.947,100.04z M57.488,99.702c-0.482-3.103-1.745-5.756-2.502-8.557
		c-0.32-1.185-0.475-3.263-1.544-3.228c-1.024,0.034-0.875,2.202-1.441,3.338c-2.824,5.662-2.83,11.292,0.012,16.945
		c0.56,1.112,0.215,3.014,1.468,3.271c0.636,0.131,0.912-1.995,1.291-3.109C55.762,105.441,56.626,102.479,57.488,99.702z
		 M59.009,76.214c-0.824,0.181-2.103-0.547-2.483,0.602c-0.731,2.212-2.09,4.535-1.698,6.74c0.668,3.759,2.142,7.375,3.298,11.046
		c0.075,0.237,0.3,0.542,0.513,0.6c0.577,0.154,0.494-0.41,0.589-0.708c0.941-2.951,1.7-5.973,2.836-8.846
		c1.005-2.538,0.867-4.857-0.052-7.351C61.449,76.767,60.797,75.818,59.009,76.214z M65.29,81.912
		c0.015,0.183,0.003,0.281,0.031,0.368c1.305,4.192,2.608,8.384,3.926,12.571c0.068,0.215,0.18,0.591,0.488,0.429
		c0.204-0.107,0.323-0.444,0.409-0.701c1.143-3.463,2.264-6.935,3.417-10.395c0.185-0.553,0.28-1.066,0.087-1.632
		c-0.602-1.772-1.226-3.537-1.762-5.329c-0.333-1.117-1.2-1.112-2.015-1.016c-1.036,0.124-2.451-0.622-3.024,0.713
		C66.153,78.539,65.779,80.296,65.29,81.912z M74.964,76.242c-0.521-0.034-0.99,0.098-0.959,0.708
		c0.037,0.752,0.148,1.877,0.697,2.024c0.64,0.173,0.769-0.858,0.909-1.497C75.745,76.873,75.79,76.335,74.964,76.242z
		 M53.466,76.21c-0.672,0.018-1.108,0.335-0.825,1.016c0.214,0.519,0.137,1.534,0.994,1.342c0.608-0.135,0.614-1.062,0.736-1.655
		C54.492,76.326,53.951,76.222,53.466,76.21z M64.133,77.871c0.349-0.213,0.506-0.544,0.532-0.921
		c0.03-0.424-0.174-0.709-0.627-0.678c-0.514,0.036-0.572,0.387-0.427,0.786C63.722,77.361,63.68,77.785,64.133,77.871z"/>
	<path fill-rule="evenodd" clip-rule="evenodd" d="M76.735,22.411c1.425,0.877,2.073-0.216,1.928-1.179
		c-0.305-2.016,0.834-1.932,2.138-1.917c2.447,0.028,4.896,0.015,7.345,0.061c1.219,0.021,2.271,0.452,2.579,1.761
		c0.3,1.269,0.18,2.513-1.203,3.121c-0.982,0.432-1.273,1.188-1.567,2.129c-2.011,6.461-4.034,12.918-6.177,19.337
		c-0.613,1.829-0.406,3.497,0.136,5.227c1.688,5.378,3.371,10.757,5.059,16.136c0.14,0.448,0.329,0.884,0.437,1.339
		c0.133,0.559,0.219,1.182-0.521,1.373c-0.671,0.174-1.059-0.281-1.244-0.855c-0.812-2.503-1.6-5.014-2.393-7.523
		c-0.876-2.781-1.746-5.563-2.629-8.344c-0.111-0.352-0.226-0.824-0.676-0.778c-0.427,0.044-0.396,0.544-0.503,0.876
		c-1.04,3.219-2.05,6.449-3.131,9.654c-0.602,1.785,0.164,3.313,0.71,4.906c0.235,0.686,0.682,1.521-0.188,2.013
		c-0.776,0.44-1.083-0.27-1.47-0.847c-0.597-0.89-0.8-0.142-1.054,0.344c-0.299,0.57-0.764,0.832-1.39,0.54
		c-0.511-0.238-0.678-0.754-0.417-1.179c2.786-4.546-0.409-8.478-1.288-12.636c-0.252-1.188-0.75-2.325-1.161-3.476
		c-0.086-0.239-0.287-0.437-0.437-0.652c-0.141,0.238-0.332,0.46-0.414,0.717c-1.292,4.025-2.593,8.048-3.836,12.088
		c-0.359,1.169,0.369,2.199,0.712,3.256c0.538,1.65,0.376,2.521-1.61,1.663c-0.519-0.224-0.873,0.204-1.314,0.266
		c-0.904,0.123-1.385-0.492-1.039-1.161c2.142-4.145-0.768-7.627-1.414-11.392c-0.268-1.562-0.9-3.061-1.361-4.589
		c-0.106-0.353-0.127-0.838-0.516-0.919c-0.417-0.087-0.644,0.322-0.754,0.691c-1.155,3.872-2.391,7.724-3.397,11.634
		c-0.354,1.376,0.693,2.691,0.966,4.069c0.111,0.561,0.269,1.183-0.282,1.547c-0.555,0.366-1.041,0.156-1.368-0.463
		c-0.654-1.235-0.883-0.209-1.261,0.237c-0.324,0.381-0.759,0.567-1.249,0.284c-0.5-0.287-0.557-0.781-0.34-1.222
		c2.736-5.546-1.402-10.115-2.153-15.163c-0.048-0.322-0.361-0.804-0.622-0.856c-0.657-0.13-0.592,0.577-0.724,0.938
		c-1.742,4.762-2.803,9.752-4.819,14.425c-0.111,0.257-0.127,0.552-0.228,0.814c-0.232,0.605-0.421,1.415-1.277,1.185
		c-0.945-0.254-0.56-1.016-0.367-1.636c0.695-2.247,1.402-4.491,2.09-6.74c1.237-4.041,2.421-8.099,3.723-12.118
		c0.306-0.943,0.408-1.744,0.1-2.704c-2.208-6.89-4.386-13.792-6.517-20.706c-0.294-0.957-0.937-1.282-1.729-1.637
		c-1.32-0.591-1.648-1.731-1.409-3.062c0.242-1.35,1.25-1.803,2.459-1.904c0.843-0.071,1.694-0.061,2.541-0.062
		c10.265-0.016,20.53,0.017,30.793-0.083c1.807-0.017,2.897,0.272,2.869,2.318c-0.008,0.487,0.393,0.83,0.923,0.91L76.735,22.411z
		 M68.584,47.926c-0.141-0.626-0.212-1.095-0.353-1.541c-1.13-3.579-2.272-7.153-3.407-10.73c-0.142-0.444-0.209-1.066-0.749-1.055
		c-0.509,0.011-0.625,0.649-0.71,1.066c-0.755,3.698-2.376,7.123-3.354,10.75c-0.256,0.951-0.198,1.818,0.102,2.755
		c1.061,3.31,2.04,6.646,3.079,9.963c0.194,0.619,0.586,1.727,0.776,1.704c0.936-0.115,0.764-1.132,1.027-1.79
		c0.455-1.133,0.866-2.287,1.234-3.452C67.049,53.002,67.829,50.395,68.584,47.926z M46.333,24.671
		c-0.657,0-1.313-0.015-1.969,0.003c-2.337,0.065-2.411,0.09-1.724,2.448c0.862,2.965,1.798,5.912,2.819,8.825
		c0.836,2.386,1.284,4.899,2.384,7.195c0.12,0.25,0.235,0.738,0.322,0.73c0.413-0.032,0.556-0.405,0.675-0.77
		c0.929-2.845,1.8-5.711,2.82-8.523c0.742-2.045,0.66-3.98-0.025-6.017C50.331,24.69,50.381,24.674,46.333,24.671z M82.105,24.681
		c-0.941,0-1.88-0.018-2.819,0.007c-0.542,0.014-1.252-0.105-1.425,0.589c-0.729,2.923-2.675,5.609-1.253,8.933
		c1.065,2.488,1.659,5.174,2.532,7.749c0.227,0.667,0.067,1.831,0.798,1.899c0.903,0.083,0.841-1.12,1.047-1.758
		c1.436-4.464,2.813-8.947,4.142-13.444C86.296,24.687,86.255,24.675,82.105,24.681z M70.719,47.858
		c0.159,0.547,0.28,1.002,0.424,1.449c1.062,3.311,2.119,6.623,3.207,9.925c0.118,0.356-0.114,1.084,0.644,0.95
		c0.386-0.068,0.446-0.54,0.56-0.901c1.064-3.41,2.15-6.813,3.201-10.227c0.135-0.436,0.247-0.968,0.122-1.381
		c-1.11-3.688-2.265-7.363-3.44-11.031c-0.104-0.325-0.444-0.575-0.675-0.86c-0.206,0.284-0.505,0.538-0.606,0.855
		c-0.793,2.5-1.553,5.01-2.318,7.519C71.453,45.411,71.078,46.668,70.719,47.858z M49.487,48.128
		c0.532,4.081,2.655,7.738,3.496,11.772c0.029,0.141,0.232,0.353,0.35,0.35c0.463-0.008,0.58-0.408,0.691-0.763
		c1.067-3.386,2.147-6.768,3.17-10.167c0.184-0.61,0.315-1.348,0.148-1.935c-0.975-3.417-1.657-6.927-3.133-10.187
		c-0.173-0.381-0.142-1.075-0.786-0.962c-0.493,0.088-0.591,0.689-0.715,1.112c-0.632,2.156-1.183,4.337-2.16,6.378
		C49.891,45.102,49.717,46.598,49.487,48.128z M58.886,24.701c-0.772,0.1-2.009-0.387-2.301,0.417
		c-0.823,2.266-2.165,4.654-1.746,6.985c0.67,3.741,2.091,7.348,3.201,11.01c0.108,0.359,0.258,0.775,0.702,0.755
		c0.466-0.021,0.461-0.485,0.542-0.827c0.775-3.28,1.887-6.455,3.043-9.612c0.818-2.232,0.489-4.33-0.256-6.527
		C61.509,25.241,60.825,24.216,58.886,24.701z M69.26,24.589c-0.788,0.118-2.017-0.355-2.326,0.489
		c-0.697,1.908-2.215,3.88-1.579,5.863c1.263,3.939,2.438,7.899,3.58,11.872c0.117,0.408,0.279,1.046,0.796,0.973
		c0.485-0.07,0.574-0.715,0.653-1.161c0.362-2.055,1.168-3.973,1.854-5.919c1.18-3.336,1.879-6.516,0.039-9.972
		C71.506,25.287,71.007,24.32,69.26,24.589z M74.062,24.762c-0.193,0.017-0.195,0.599,0.039,1.125
		c0.248,0.558,0.082,1.642,0.669,1.61c0.875-0.048,0.761-1.086,0.863-1.801C75.736,24.966,75.407,24.67,74.062,24.762z
		 M53.621,27.148c0.499-0.438,0.549-1.111,0.695-1.7c0.17-0.683-0.357-0.727-0.841-0.738c-0.507-0.014-1.028,0.097-0.863,0.733
		C52.766,26.032,52.779,26.763,53.621,27.148z M64.641,25.232c-0.022-0.31-0.176-0.5-0.496-0.49
		c-0.472,0.014-0.633,0.296-0.485,0.71c0.082,0.23,0.31,0.612,0.418,0.594C64.477,25.98,64.603,25.61,64.641,25.232z"/>
	<path fill-rule="evenodd" clip-rule="evenodd" d="M63.786,127.728c-7.335,0-14.67,0.007-22.005-0.009
		c-0.935-0.001-1.904,0.018-2.797-0.209c-1.366-0.346-1.949-1.38-1.836-2.779c0.104-1.297,0.804-2.089,2.099-2.258
		c0.743-0.097,1.5-0.106,2.25-0.106c15.044-0.006,30.087-0.004,45.132-0.004c0.188,0,0.376,0.007,0.563,0.011
		c2.622,0.05,3.56,0.69,3.648,2.488c0.093,1.893-1.012,2.852-3.641,2.865c-7.806,0.045-15.61,0.016-23.414,0.016
		C63.786,127.738,63.786,127.732,63.786,127.728z"/>
	<path fill-rule="evenodd" clip-rule="evenodd" d="M76.794,22.466c-0.944-3.529-1.071-7.226-2.386-10.693
		c-0.777-2.053-1.735-3.986-3.041-5.693c-4.229-5.529-12.384-5.504-17.419,0.041c-2.106,2.319-3.681,4.98-4.308,8.116
		c-0.203,1.013-0.444,2.019-0.659,3.028c-0.104,0.491-0.309,0.96-0.868,0.91c-0.791-0.072-0.74-0.716-0.654-1.28
		c0.864-5.67,2.787-10.901,7.898-14.017c7.669-4.676,14.96-3.192,19.085,5.083c1.86,3.733,3.036,7.67,3.398,11.841
		c0.095,1.095,0.031,2.064-1.105,2.609L76.794,22.466z"/>
</g>
</svg>
