<?xml version="1.0" encoding="utf-8"?>
<!-- Generator: Adobe Illustrator 16.0.4, SVG Export Plug-In . SVG Version: 6.00 Build 0)  -->
<!DOCTYPE svg PUBLIC "-//W3C//DTD SVG 1.1//EN" "http://www.w3.org/Graphics/SVG/1.1/DTD/svg11.dtd">
<svg version="1.1" id="Layer_4707" xmlns="http://www.w3.org/2000/svg" xmlns:xlink="http://www.w3.org/1999/xlink" x="0px" y="0px"
	 width="128px" height="128px" viewBox="0 0 128 128" enable-background="new 0 0 128 128" xml:space="preserve">
<g>
	<g>
		<path fill="none" d="M65.945,74.918c0.09-0.007,0.182-0.013,0.273-0.02c0-0.004-0.001-0.009-0.001-0.015c-0.097,0-0.194,0-0.292,0
			C65.932,74.896,65.938,74.907,65.945,74.918z"/>
		<path fill="none" d="M64.029,73.023c-2.489,0.007-4.979-0.083-7.465,0.1c-2.22,0.164-4.44,0.251-6.662,0.094
			c-0.817-0.059-1.626-0.048-2.442,0.018c-1.292,0.104-2.467,0.513-3.542,1.223c-0.665,0.439-1.282,0.94-1.874,1.475
			c-0.788,0.71-1.77,0.937-2.774,1.101c-0.084-0.114-0.181-0.222-0.251-0.343c-1.273-2.198-3.115-3.849-5.155-5.296
			c-2.257-1.602-4.583-3.102-6.891-4.63c-0.703-0.463-1.362-1-2.141-1.344c0.035,0.115,0.13,0.178,0.218,0.25
			c1.663,1.383,3.472,2.562,5.271,3.754c1.697,1.125,3.364,2.293,4.796,3.761c0.854,0.875,1.719,1.737,2.604,2.581
			c0.482,0.458,0.942,0.953,1.541,1.277c0.178,0.289,0.475,0.416,0.737,0.6c1.102-0.731,2.228-1.345,3.425-1.823
			c2.757-1.101,5.648-1.58,8.591-1.715c3.707-0.17,7.423-0.181,11.122-0.53c1.525-0.145,3.051-0.289,4.565-0.534
			C66.475,73.105,65.252,73.021,64.029,73.023z"/>
		<path fill="none" d="M64.902,75.026c0-0.011,0-0.022,0.001-0.034c-0.078,0.006-0.155,0.012-0.234,0.017
			c0.001,0.006,0.001,0.012,0.001,0.018C64.748,75.026,64.825,75.026,64.902,75.026z"/>
		<path fill="none" d="M63.095,75.151c0.158,0,0.316,0,0.474,0c0-0.008,0-0.015,0-0.021c-0.157,0-0.316,0-0.474,0
			C63.095,75.137,63.095,75.144,63.095,75.151z"/>
		<path fill="none" d="M24.797,65.393c0.003,0.006,0.009,0.008,0.013,0.017c0.007,0.003,0.013,0.007,0.021,0.011
			c-0.002-0.008-0.01-0.012-0.012-0.021C24.811,65.398,24.806,65.393,24.797,65.393z"/>
		<path fill="none" d="M24.461,65.171c0.072,0.133,0.185,0.206,0.336,0.222C24.732,65.248,24.618,65.177,24.461,65.171z"/>
		<path fill="none" d="M23.349,64.419c-0.648-0.591-1.415-1.012-2.155-1.464c-2.415-1.474-5.015-2.584-7.545-3.833
			c-0.1-0.048-0.221-0.054-0.333-0.077c0.091,0.185,0.26,0.292,0.411,0.419c0.579,0.486,1.236,0.855,1.89,1.224
			c1.666,0.941,3.44,1.655,5.161,2.481c0.858,0.412,1.708,0.84,2.562,1.261c0.078,0.143,0.205,0.206,0.358,0.228
			C23.633,64.504,23.507,64.438,23.349,64.419z"/>
		<path fill="none" d="M23.697,64.658c0.003,0.007,0.01,0.008,0.012,0.016c0.014,0.002,0.023,0.012,0.037,0.016
			c-0.008-0.011-0.019-0.016-0.027-0.025C23.709,64.663,23.705,64.659,23.697,64.658z"/>
		<path fill="none" d="M24.414,65.138c0.008,0.011,0.019,0.016,0.026,0.026c0.008,0,0.013,0.007,0.021,0.007
			c-0.004-0.007-0.01-0.009-0.013-0.016C24.436,65.15,24.426,65.143,24.414,65.138z"/>
		<path fill="none" d="M101.807,67.396c0.086,0.084,0.121,0.039,0.148-0.025C101.91,67.378,101.863,67.387,101.807,67.396z"/>
		<path fill="none" d="M108.352,65.023c-0.011,0-0.023,0.001-0.033,0.002c-0.018,0.007-0.037,0.014-0.055,0.021
			c0.021-0.004,0.042-0.009,0.063-0.012C108.334,65.03,108.344,65.027,108.352,65.023z"/>
		<path fill="none" d="M99.197,68.097c-0.014,0.001-0.027,0.003-0.041,0.004c-0.012,0.006-0.019,0.009-0.027,0.013
			c0.013-0.001,0.02-0.002,0.034-0.003C99.175,68.105,99.187,68.102,99.197,68.097z"/>
		<path fill="none" d="M61.762,75.5c-0.112,0-0.192,0-0.286,0C61.571,75.5,61.651,75.5,61.762,75.5z"/>
		<path fill="none" d="M99.127,67.5c0,0,0,0,0.002,0C99.067,67.5,99.091,67.5,99.127,67.5z"/>
		<path fill="none" d="M108.352,65.023c0.094-0.009,0.188-0.016,0.313-0.025C108.523,64.918,108.437,64.968,108.352,65.023z"/>
		<path fill="none" d="M5.473,56.121c-0.198,0.178-0.483-0.01-0.818,0.084c0.493,0.296,0.952,0.458,1.413,0.611
			c1.542,0.509,2.965,1.248,4.266,2.219c2.621,1.957,5.408,3.647,8.277,5.207c2.097,1.139,4.176,2.305,6.139,3.671
			c4.162,2.897,7.919,6.284,11.693,9.653c0.881,0.786,1.764,1.568,2.642,2.351c0.883-0.06,1.701-0.287,2.496-0.617
			c0.734-0.306,1.468-0.608,2.231-0.833c2.134-0.624,4.303-1.077,6.489-1.476c3.507-0.637,7.013-1.275,10.565-1.645
			c-0.357,0-0.716-0.027-1.07,0.007c-1.833,0.174-3.669,0.117-5.505,0.101c-0.986-0.009-1.953,0.101-2.91,0.317
			c-1.095,0.248-2.191,0.467-3.325,0.433c-1.45-0.043-2.827,0.293-4.173,0.808c-1.377,0.526-2.67,1.215-3.941,1.968
			c-0.385-0.18-0.651-0.5-0.966-0.753c-1.54-1.242-3.094-2.468-4.466-3.903c-1.248-1.306-2.674-2.383-4.224-3.31
			c-1.558-0.931-3.066-1.939-4.485-3.078c-0.955-0.766-1.952-1.474-2.974-2.149c-1.879-1.245-3.942-2.126-5.974-3.07
			c-1.185-0.552-2.332-1.168-3.377-1.963c-0.844-0.642-1.689-1.282-2.549-1.902C9.276,57.655,7.375,56.956,5.473,56.121z"/>
		<path fill="none" d="M93.888,70.372c0.03-0.003,0.088,0.068,0.083-0.026C93.944,70.355,93.915,70.363,93.888,70.372z"/>
		<path fill="none" d="M13.291,59.025c0.001,0.007,0.006,0.009,0.006,0.017c0.006,0.001,0.013,0.002,0.019,0.003
			c-0.003-0.005-0.007-0.007-0.009-0.012C13.3,59.031,13.297,59.027,13.291,59.025z"/>
		<polygon fill="none" points="99.129,68.113 99.129,68.113 99.127,68.114 		"/>
		<path fill="none" d="M99.197,68.097c0.456-0.034,0.898-0.107,1.296-0.354C100.031,67.751,99.608,67.9,99.197,68.097z"/>
		<path fill="none" d="M93.165,70.534c0.099-0.013,0.21,0.026,0.292-0.073C93.346,70.438,93.251,70.469,93.165,70.534z"/>
		<path fill="none" d="M93.165,70.534c-0.009,0.001-0.021,0.001-0.031,0.003c-0.006,0.006-0.012,0.007-0.019,0.012
			c0.009-0.001,0.019-0.001,0.026-0.002C93.149,70.541,93.159,70.539,93.165,70.534z"/>
		<path fill="none" d="M92.076,70.793c-0.007,0.001-0.016,0.001-0.023,0.003c-0.005,0.004-0.011,0.004-0.016,0.009
			c0.009,0,0.016,0,0.023,0C92.065,70.799,92.071,70.798,92.076,70.793z"/>
		<path fill="none" d="M91.577,70.904c-0.011,0.001-0.022,0-0.033,0.002c-0.018,0.005-0.035,0.01-0.053,0.015
			c0.021-0.002,0.041-0.004,0.061-0.006C91.561,70.908,91.569,70.909,91.577,70.904z"/>
		<path fill="none" d="M92.571,70.67c0.182-0.037,0.387,0.022,0.544-0.121C92.93,70.571,92.729,70.525,92.571,70.67z"/>
		<path fill="none" d="M91.577,70.904c0.158-0.017,0.321,0.007,0.46-0.1C91.875,70.801,91.715,70.799,91.577,70.904z"/>
		<path fill="none" d="M123.325,66.637c-0.914,0.278-1.849,0.499-2.773,0.749c-1.654,0.45-3.327,0.819-5.039,0.956
			c-2.075,0.167-4.132,0.479-6.183,0.807c-2.232,0.357-4.451,0.801-6.679,1.187c-2.329,0.403-4.664,0.765-6.99,1.178
			c-2.572,0.457-5.078,1.179-7.578,1.914c-2.192,0.645-4.409,1.17-6.685,1.419c-2.147,0.235-4.294,0.48-6.449,0.652
			c-3.049,0.244-6.092,0.545-9.139,0.817c-1.929,0.173-3.855,0.38-5.773,0.649c-3.006,0.42-6.01,0.861-9.007,1.338
			c-1.83,0.291-3.66,0.604-5.423,1.201c-1.254,0.425-2.486,0.918-3.766,1.262c-1.066,0.286-2.142,0.51-3.256,0.133
			c-0.138-0.318-0.39-0.521-0.66-0.71c-1-0.707-1.939-1.489-2.88-2.271c-2.714-2.254-5.343-4.612-8.117-6.796
			c-2.359-1.855-4.807-3.574-7.46-4.996c-3.202-1.715-6.317-3.578-9.257-5.716c-1.533-1.113-3.226-1.899-4.976-2.585
			c-0.259-0.1-0.5-0.188-0.758,0.054c0.326,0.28,0.67,0.528,1.038,0.743c1.737,1.027,3.498,2.011,5.091,3.269
			c1.299,1.026,2.707,1.904,4.255,2.512c2.012,0.788,3.82,1.918,5.562,3.174c3.359,2.423,6.649,4.936,9.867,7.543
			c2.233,1.811,4.492,3.591,6.605,5.546c0.223,0.206,0.446,0.421,0.726,0.558c0.736,0.358,1.422,0.794,2.032,1.381
			c0.322-0.042,0.647-0.071,0.966-0.131c1.422-0.268,2.815-0.654,4.214-1.022c2.56-0.675,5.129-1.322,7.698-1.968
			c1.996-0.502,4.003-0.962,6.024-1.353c2.89-0.557,5.82-0.755,8.746-0.983c1.605-0.125,3.207-0.287,4.793-0.582
			c2.103-0.395,4.205-0.787,6.315-1.142c2.35-0.394,4.711-0.706,7.076-0.999c1.657-0.203,3.301-0.513,4.944-0.812
			c3.347-0.608,6.658-1.379,9.988-2.074c2.453-0.513,4.904-1.031,7.385-1.39c2.401-0.348,4.807-0.652,7.209-0.986
			c3.276-0.455,6.474-1.263,9.632-2.23c0.075-0.022,0.194-0.012,0.213-0.13C124.362,66.48,123.87,66.472,123.325,66.637z"/>
		<path fill="none" d="M71.704,74.411c1.543-0.118,3.08-0.315,4.624-0.44c1.442-0.115,2.879-0.279,4.314-0.452
			c2.312-0.277,4.571-0.81,6.809-1.433c1.35-0.378,2.694-0.775,4.04-1.165c-0.768,0.063-1.523,0.245-2.305,0.213
			c-0.69-0.028-1.382,0.026-2.072,0.1c-1.77,0.187-3.485,0.624-5.191,1.097c-2.792,0.773-5.624,1.312-8.493,1.693
			c-1.674,0.224-3.349,0.429-5.03,0.587c-0.116,0.012-0.229,0.029-0.322,0.104C69.295,74.712,70.495,74.505,71.704,74.411z"/>
		<path fill="none" d="M92.076,70.793c0.151-0.02,0.308-0.019,0.439-0.108C92.364,70.7,92.2,70.666,92.076,70.793z"/>
		<path fill="none" d="M69.914,72.609c0.07-0.013,0.142-0.024,0.203-0.034C70.049,72.547,69.982,72.583,69.914,72.609z"/>
		<path fill="none" d="M69.914,72.609c-0.018,0.003-0.033,0.006-0.053,0.009c-0.01,0.007-0.022,0.007-0.03,0.014
			c0.012-0.002,0.026-0.004,0.04-0.007C69.886,72.621,69.899,72.615,69.914,72.609z"/>
		<path fill="none" d="M79.544,71.549c1.452-0.383,2.906-0.765,4.358-1.146c-0.936-0.035-1.844-0.074-2.75,0.156
			c-1.601,0.407-3.269,0.408-4.891,0.721c-1.084,0.209-2.192,0.28-3.119,0.948C75.308,72.361,77.442,72.103,79.544,71.549z"/>
		<path fill="none" d="M13.169,58.901l0.018,0.009c0.005,0.002,0.008,0.006,0.012,0.009c0-0.005-0.004-0.007-0.004-0.013
			L13.169,58.901z"/>
		<path fill="none" d="M24.414,65.138c-0.171-0.227-0.388-0.385-0.668-0.448C23.93,64.896,24.151,65.049,24.414,65.138z"/>
		<path fill="none" d="M68.02,74.5c-0.344,0-0.688,0-1.032,0C67.335,74.5,67.684,74.5,68.02,74.5z"/>
		<path fill="none" d="M69.831,72.632c-0.119,0.018-0.244,0.036-0.449,0.068C69.599,72.714,69.725,72.709,69.831,72.632z"/>
		<path fill="none" d="M68.212,72.955c0.024-0.007,0.048-0.013,0.046-0.012C68.26,72.941,68.216,72.882,68.212,72.955z"/>
		<path fill="none" d="M68.02,74.724c0.014,0,0.026,0,0.039,0c0.006-0.004,0.013-0.004,0.019-0.009
			c-0.008,0-0.018,0.001-0.026,0.001C68.04,74.72,68.029,74.72,68.02,74.724z"/>
		<path fill="none" d="M68.854,72.814c0.096,0.038,0.144,0.044,0.182,0.001C68.994,72.76,68.944,72.778,68.854,72.814z"/>
		<path fill="none" d="M92.571,70.67c-0.009,0.001-0.02,0.001-0.026,0.003c-0.01,0.007-0.021,0.006-0.029,0.012
			c0.013-0.001,0.025-0.001,0.036-0.003C92.559,70.676,92.565,70.675,92.571,70.67z"/>
		<path fill="none" d="M7.944,54.383c3.114,1.784,6.303,3.426,9.531,4.994c2.073,1.007,4.143,2.029,6.067,3.303
			c3.808,2.522,7.617,5.047,11.389,7.622c1.963,1.342,3.723,2.922,4.98,4.987c0.064,0.104,0.138,0.203,0.304,0.247
			c0.688-0.256,1.167-0.822,1.683-1.335c1.354-1.348,3.007-2.07,4.876-2.327c1.64-0.225,3.29-0.251,4.943-0.271
			c3.814-0.047,7.629-0.123,11.445-0.186c0.504-0.01,1.008-0.002,1.512-0.002c-0.867-0.154-1.707-0.429-2.599-0.35
			c-1.998,0.169-3.991,0.064-5.986-0.111c-2.245-0.198-4.426-0.681-6.585-1.288c-2.039-0.574-4.057-1.222-6.111-1.745
			c-1.74-0.442-3.462-0.94-5.06-1.789c-1.099-0.584-2.138-1.271-3.203-1.912c-2.745-1.652-5.637-3.031-8.446-4.562
			c-2.758-1.503-5.299-3.283-7.506-5.53c-0.986-1.004-1.914-2.055-2.743-3.135c-0.429-0.112-0.778,0.056-1.139,0.095
			c-1.853,0.196-3.709,0.149-5.565,0.102c-1.41-0.035-2.817-0.035-4.215,0.151c-0.667,0.088-1.355,0.132-1.984,0.482
			c0.236,0.303,0.52,0.466,0.792,0.643C5.473,53.213,6.758,53.703,7.944,54.383z"/>
		<path fill="none" d="M122.549,68.999c-0.93,0.301-1.84,0.664-2.806,0.84c-3.169,0.579-6.369,0.955-9.554,1.435
			c-3.749,0.567-7.465,1.316-11.177,2.081c-3.232,0.665-6.467,1.325-9.72,1.892c-2.49,0.434-5.004,0.688-7.501,1.076
			c-2.759,0.429-5.511,0.894-8.248,1.443c-1.76,0.353-3.53,0.637-5.323,0.757c-1.952,0.132-3.909,0.19-5.862,0.35
			c-1.895,0.156-3.769,0.44-5.622,0.837c-5.18,1.106-10.31,2.426-15.443,3.728c-0.688,0.175-1.369,0.378-2.069,0.571
			c-0.342-0.352-0.672-0.714-1.093-0.971c-0.625-0.386-1.237-0.792-1.874-1.155c-0.825-0.47-1.526-1.081-2.182-1.758
			c-0.879-0.91-1.708-1.868-2.697-2.667c-3.317-2.679-6.672-5.308-10.109-7.834c-2.225-1.635-4.512-3.164-7.083-4.201
			c-1.513-0.61-2.87-1.454-4.131-2.467c-1.389-1.117-2.911-2.013-4.496-2.814c-0.398,0.18-0.824,0.172-1.315,0.29
			c0.547,0.368,1.037,0.617,1.557,0.787c1.862,0.606,3.529,1.54,5.068,2.761c1.517,1.204,3.11,2.312,4.765,3.325
			c2.782,1.709,5.506,3.506,8.11,5.478c1.774,1.344,3.452,2.802,5.124,4.268c2.319,2.032,4.758,3.915,7.198,5.795
			c0.982,0.759,2.041,1.414,2.927,2.138c0.259,0.033,0.394-0.012,0.532-0.05c2.004-0.541,4.008-1.083,6.013-1.62
			c3.09-0.829,6.183-1.645,9.314-2.31c2.513-0.533,5.04-0.979,7.591-1.281c1.538-0.182,3.076-0.362,4.616-0.532
			c1.195-0.133,2.396-0.231,3.59-0.378c2.491-0.306,4.992-0.462,7.501-0.558c1.646-0.063,3.3-0.144,4.939-0.316
			c2.07-0.219,4.079-0.758,6.071-1.364c2.008-0.61,4.002-1.273,6.053-1.729c3.044-0.675,6.122-1.167,9.2-1.662
			c3.081-0.496,6.18-0.837,9.279-1.173c3.223-0.35,6.44-0.727,9.618-1.38c0.647-0.134,1.309-0.244,1.942-0.498
			c-0.57-0.66-1.497-0.682-2.146-1.316C122.934,68.872,122.742,68.937,122.549,68.999z"/>
		<path fill="none" d="M7.021,55.591c-1.08-0.662-2.161-1.323-3.228-1.974c-0.207-0.021-0.388-0.025-0.594,0.1
			c0.792,0.52,1.592,0.919,2.398,1.301C6.059,55.235,6.498,55.52,7.021,55.591z"/>
		<path fill="none" d="M7.333,55.753c-0.009-0.012-0.017-0.025-0.025-0.037c-0.008-0.001-0.016-0.002-0.025-0.002
			c0.005,0.005,0.011,0.005,0.015,0.012C7.309,55.735,7.321,55.745,7.333,55.753z"/>
		<path fill="none" d="M7.074,55.614c0.042,0.092,0.125,0.097,0.208,0.101C7.228,55.651,7.152,55.629,7.074,55.614z"/>
		<path fill="none" d="M7.074,55.614c-0.004-0.009-0.012-0.006-0.015-0.015c-0.013-0.002-0.025-0.006-0.039-0.008
			c0.01,0.005,0.02,0.012,0.03,0.017C7.059,55.61,7.066,55.612,7.074,55.614z"/>
		<path fill="none" d="M101.979,67.357c-0.006,0-0.012,0.002-0.018,0.002c-0.001,0.004-0.005,0.005-0.007,0.012
			c0.004-0.002,0.011-0.002,0.016-0.004C101.973,67.363,101.978,67.361,101.979,67.357z"/>
		<path fill="none" d="M118.61,62.983c-0.66,0.208-1.338,0.354-2.011,0.515c-0.933,0.222-1.895,0.282-2.812,0.557
			c0.41,0.008,0.811-0.069,1.216-0.118c2.335-0.278,4.67-0.541,7.076-0.818c-0.653-0.172-1.271-0.159-1.858-0.289
			C119.648,62.702,119.139,62.818,118.61,62.983z"/>
		<path fill="none" d="M109.078,63.387c2.39-0.426,4.797-0.699,7.165-1.202c1.681-0.357,3.31-0.871,4.834-1.678
			c0.132-0.07,0.303-0.1,0.35-0.315c-1.518-0.034-2.999-0.188-4.488-0.176c-0.731,0.005-1.472-0.063-2.122-0.613
			C112.978,60.875,111.023,62.119,109.078,63.387z"/>
		<path fill="none" d="M113.703,64.067c0.011,0,0.023,0,0.033,0c0.016-0.005,0.033-0.007,0.051-0.013
			c-0.02,0-0.039,0.004-0.06,0.003C113.72,64.062,113.712,64.062,113.703,64.067z"/>
		<path fill="none" d="M73.131,44.96c-0.513,0.722-0.67,1.8-0.847,2.646c-0.126,0.606-0.23,1.216-0.312,1.831
			c-0.018,0.132-0.067,0.302-0.052,0.436c0.016,0.126,0.321,0.246,0.343,0.375c0.057,0.328,0.236,0.665,0.236,0.994
			c0,0.434,0,0.869,0,1.303c0,0.356-0.178,0.751-0.225,1.103c-0.023,0.193-0.218,0.287-0.215,0.499
			c0.003,0.189-0.095,0.415-0.062,0.6c0.033,0.188,0.083,0.298,0.077,0.5c-0.005,0.224,0.078,0.385,0.088,0.6
			c0.008,0.207,0.068,0.308,0.094,0.499c0.013,0.099-0.022,0.206-0.009,0.305c0.012,0.093,0.063,0.155,0.077,0.221
			c0.073,0.357,0.156,0.719,0.245,1.077c0.043,0.178,0.075,0.371,0.148,0.523c0.093,0.192,0.231,0.375,0.306,0.578
			c0.137,0.375,0.228,0.735,0.447,1.079c0.215,0.336,0.378,0.75,0.552,1.125c0.149,0.319,0.377,0.581,0.552,0.897
			c0.197,0.361,0.398,0.692,0.645,1.023c0.295,0.396,0.688,0.709,1.009,1.083c0.219,0.255,0.46,0.479,0.717,0.69
			c0.183,0.148,0.317,0.345,0.509,0.485c0.157,0.113,0.312,0.158,0.497,0.223c0.176,0.061,0.321,0.096,0.499,0.194
			c0.245,0.138,0.447,0.274,0.703,0.389c0.343,0.154,0.678,0.323,1.027,0.463c0.686,0.277,1.395,0.499,2.113,0.673
			c0.958,0.23,1.936,0.378,2.917,0.47c0.462,0.042,0.974,0.132,1.436,0.094c0.142-0.013,0.269-0.07,0.408-0.086
			c0.223-0.024,0.389,0.07,0.598,0.106c0.252,0.044,0.526-0.026,0.778,0.018c0.026,0.05,0.066,0.079,0.123,0.088
			c0.056-0.009,0.097-0.038,0.122-0.086c0.013-0.003,0.023-0.006,0.034-0.011c0.587-0.167,1.091-0.093,1.69-0.013
			c0.723,0.1,1.514-0.015,2.237-0.069c1.582-0.119,3.158-0.343,4.703-0.712c0.575-0.138,1.146-0.297,1.709-0.476
			c0.833-0.264,1.698-0.473,2.43-0.979c0.694-0.481,1.454-0.817,2.25-1.081c0.58-0.191,1.166-0.353,1.713-0.645
			c2.321-1.245,4.568-2.61,6.721-4.126c1.871-1.318,3.644-2.757,5.179-4.467c0.158-0.177,0.306-0.364,0.503-0.602
			c-1.098-0.084-2.103-0.229-3.103-0.404c-1.927-0.336-3.865-0.665-5.717-1.3c-1.673-0.576-3.292-1.311-4.941-1.959
			c-1.646-0.646-3.045-1.633-4.227-2.944c-0.835-0.927-1.592-1.901-2.027-3.109c-0.298,0.055-0.534,0.157-0.769,0.283
			c-0.574,0.311-1.143,0.637-1.736,0.902c-4.729,2.117-9.668,3.146-14.862,2.85c-1.866-0.106-3.603-0.601-5.206-1.578
			c-0.9-0.549-1.604-1.243-1.961-2.255C73.258,45.168,73.24,45.039,73.131,44.96z"/>
		<path fill="none" d="M115.305,65.412c-2.036,0.151-4.041,0.444-5.993,1.07c-2.223,0.711-4.377,1.611-6.591,2.34
			c1.215-0.088,2.396-0.372,3.59-0.587c2.104-0.377,4.205-0.764,6.327-1.033c1.191-0.153,2.396-0.217,3.582-0.395
			c2.667-0.402,5.231-1.251,7.944-1.863c-0.401-0.216-0.696-0.463-1.089-0.383c-1.181,0.245-2.379,0.33-3.575,0.442
			C118.101,65.136,116.706,65.309,115.305,65.412z"/>
		<path fill="none" d="M105.102,66.264c1.056-0.401,2.107-0.812,3.162-1.217c-1.69,0.256-3.328,0.697-4.883,1.411
			c-0.502,0.231-1.032,0.449-1.401,0.899c0.139,0.012,0.268-0.023,0.396-0.072C103.284,66.944,104.194,66.609,105.102,66.264z"/>
		<path fill="none" d="M102.683,68.849l0.017-0.02c0.008-0.003,0.015-0.005,0.021-0.007c-0.007,0-0.015,0.002-0.021,0.002
			L102.683,68.849z"/>
		<path fill="none" d="M65.291,35.85c0.731,0.705,1.56,1.299,2.418,1.795c0.023,0.507-0.141,0.896-0.377,1.262
			c-0.289,0.446-0.621,0.858-0.98,1.25c-0.882,0.958-1.85,1.839-2.493,3.002c-0.562,1.016-1.058,2.072-1.459,3.163
			c-0.204,0.551-0.383,1.112-0.535,1.68c-0.072,0.267-0.165,0.548-0.203,0.822c-0.029,0.208,0.026,0.425,0.002,0.637
			c-0.004,0.029-0.008,0.058-0.015,0.087c-0.022,0.09-0.089,0.099-0.11,0.189c-0.02,0.084,0.004,0.217,0.005,0.305
			c0.002,0.237-0.067,0.379-0.105,0.601c-0.034,0.192,0.044,0.408,0.01,0.6c-0.039,0.221-0.106,0.363-0.104,0.6
			c0.001,0.199-0.014,0.402-0.002,0.601c0.011,0.215,0.101,0.379,0.103,0.6c0.001,0.24,0.103,0.361,0.099,0.601
			c-0.006,0.465,0.052,0.865,0.176,1.301c0.135,0.472,0.148,0.938,0.325,1.4c0.284,0.744,0.308,1.603,0.72,2.299
			c0.49,0.825,0.857,1.717,1.559,2.406c0.438,0.43,0.78,0.964,1.223,1.397c0.343,0.336,0.637,0.69,0.975,1.026
			c0.303,0.3,0.625,0.569,0.926,0.875c0.402,0.408,0.919,0.601,1.378,0.928c0.279,0.199,0.564,0.348,0.845,0.546
			c0.508,0.359,1.066,0.416,1.624,0.644c0.698,0.283,1.377,0.602,2.089,0.855c1.403,0.499,2.854,0.861,4.326,1.085
			c1.404,0.212,2.826,0.298,4.245,0.268c-0.161-0.088-0.333-0.133-0.504-0.18c-1.286-0.344-2.521-0.813-3.667-1.502
			c-2.371-1.423-4.006-3.514-5.22-5.938c-2.08-4.152-2.638-8.538-1.723-13.086c0.736-3.671,2.371-6.923,4.78-9.784
			c1.873-2.222,4.096-4.025,6.608-5.477c0.163-0.093,0.352-0.17,0.442-0.327c-0.075-0.128-0.159-0.126-0.24-0.136
			c-2.901-0.331-5.756-0.9-8.532-1.815c-3.958-1.304-7.767-2.955-11.419-4.966c-0.658-0.361-1.312-0.734-2.05-1.001
			c-1.84,1.385-3.062,3.166-3.684,5.391c1.088,0.825,2.155,1.573,3.256,2.271C61.825,33.279,63.719,34.333,65.291,35.85z"/>
		<path fill="none" d="M113.703,64.5c-0.136,0-0.276,0-0.518,0C113.44,64.5,113.578,64.5,113.703,64.5z"/>
		<path fill="none" d="M27.666,37.352c2.672,1.885,5.442,3.59,8.45,4.897c1.477,0.643,2.913,1.378,4.215,2.345
			c0.315,0.234,0.625,0.465,0.656,0.885c-0.122,0.576-0.515,0.765-1.006,0.756c-0.627,0.854-0.981,1.927-1.251,2.939
			c-0.149,0.56-0.269,1.129-0.348,1.704c-0.069,0.497,0.173,1.083,0.278,1.567c0.123,0.565,0.285,1.081,0.546,1.601
			c0.284,0.558,0.523,1.137,0.801,1.7c0.103,0.207,0.242,0.395,0.328,0.6c0.071,0.172,0.143,0.332,0.22,0.498
			c0.094,0.203,0.196,0.409,0.303,0.605c0.104,0.193,0.184,0.392,0.3,0.576c0.214,0.34,0.436,0.684,0.65,1.028
			c0.1,0.161,0.203,0.347,0.32,0.495c0.174,0.223,0.416,0.379,0.583,0.598c0.251,0.325,0.615,0.565,0.847,0.9
			c0.249,0.359,0.459,0.774,0.75,1.109c0.292,0.335,0.596,0.708,0.948,0.994c0.37,0.301,0.846,0.507,1.278,0.725
			c0.207,0.105,0.414,0.179,0.622,0.273c0.207,0.092,0.452,0.273,0.678,0.308c0.21,0.031,0.391,0.04,0.6,0.118
			c0.204,0.074,0.414,0.183,0.601,0.276c0.28,0.144,0.522,0.309,0.797,0.474c0.15,0.089,0.281,0.183,0.429,0.255
			c0.056,0.029,0.113,0.054,0.176,0.074c0.193,0.065,0.385,0.103,0.576,0.223c0.625,0.397,1.347,0.598,2.038,0.845
			c0.349,0.125,0.697,0.212,1.028,0.379c0.26,0.132,0.53,0.251,0.803,0.354c1.015,0.382,2.118,0.615,3.17,0.874
			c2.346,0.577,4.729,1.059,7.127,1.354c0.888,0.11,1.958,0.318,2.846,0.096c-0.107-0.031-0.184-0.055-0.262-0.076
			c-3.201-0.957-6.114-2.466-8.744-4.527c-1.661-1.304-3.131-2.792-4.516-4.379c-1.703-1.951-3.479-3.837-5.006-5.938
			c-2.192-3.013-3.265-6.312-2.671-10.062c0.261-1.646,0.674-3.236,1.638-4.626c0.321-0.464,0.698-0.889,1.041-1.322
			c-0.087-0.151-0.224-0.155-0.33-0.194c-4.529-1.714-8.534-4.289-11.992-7.641c-2.29-2.218-4.815-4.14-7.255-6.229
			c-0.322,0.299-0.513,0.726-0.709,1.147c-0.917,1.971-1.466,4.062-1.938,6.17c-0.355,1.587-0.535,3.186,0.269,4.721
			C27.634,36.974,27.63,37.172,27.666,37.352z"/>
		<path fill="none" d="M38.881,55.097c-0.009-0.08-0.015-0.16-0.096-0.207C38.784,54.974,38.823,55.041,38.881,55.097z"/>
		<path fill="none" d="M38.884,55.124c0.014,0.003,0.028,0.006,0.041,0.011c-0.01-0.007-0.021-0.014-0.032-0.02
			c-0.005-0.006-0.008-0.012-0.013-0.018C38.882,55.105,38.883,55.114,38.884,55.124z"/>
		<path fill="none" d="M38.769,54.857c0.001,0.005,0,0.012,0.001,0.017c0.009,0.004,0.007,0.011,0.015,0.016
			c0-0.009-0.006-0.016-0.005-0.024C38.775,54.864,38.773,54.859,38.769,54.857z"/>
		<path fill="none" d="M51.907,38.345c-0.143,0.144-0.291,0.286-0.445,0.418c-0.475,0.407-0.922,0.867-1.303,1.364
			c-0.148,0.195-0.209,0.427-0.332,0.638c-0.151,0.26-0.354,0.496-0.471,0.776c-0.169,0.412-0.319,0.864-0.422,1.298
			c-0.094,0.399-0.194,0.805-0.322,1.201c-0.065,0.202-0.099,0.396-0.153,0.601c-0.045,0.171-0.031,0.354-0.021,0.535
			c0.005,0.088,0.008,0.178,0.002,0.266c-0.016,0.223-0.105,0.389-0.102,0.622c0.002,0.197,0.051,0.491,0.004,0.684
			c-0.045,0.189-0.138,0.283-0.11,0.517c0.018,0.146,0.089,0.258,0.11,0.404c0.026,0.167-0.003,0.376-0.004,0.547
			c-0.002,0.291,0.045,0.547,0.122,0.828c0.069,0.255,0.15,0.563,0.25,0.806c0.203,0.492,0.464,0.943,0.706,1.417
			c0.405,0.794,0.762,1.649,1.348,2.357c0.147,0.177,0.328,0.337,0.454,0.544c0.135,0.226,0.248,0.463,0.417,0.68
			c0.096,0.121,0.201,0.183,0.283,0.321c0.081,0.136,0.133,0.25,0.226,0.381c0.165,0.234,0.297,0.489,0.495,0.698
			c0.354,0.375,0.62,0.779,0.903,1.2c0.095,0.142,0.214,0.261,0.322,0.399c0.149,0.192,0.317,0.421,0.5,0.577
			c0.341,0.289,0.713,0.58,1.081,0.825c0.28,0.188,0.479,0.464,0.734,0.679c0.251,0.21,0.583,0.314,0.801,0.563
			c0.146,0.167,0.196,0.363,0.271,0.566c0.104,0.276,0.256,0.483,0.465,0.69c1.049,1.04,2.206,1.982,3.413,2.833
			c0.72,0.506,1.463,0.979,2.225,1.418c3.166,1.826,7.812,2.952,9.195,2.802c-1.06-0.424-2.123-0.838-3.113-1.407
			c-3.74-2.156-6.48-5.235-8.312-9.125c-1.073-2.281-1.51-4.702-1.261-7.207c0.247-2.471,0.943-4.84,1.959-7.104
			c0.944-2.105,2.176-4.016,3.988-5.498c0.062-0.05,0.126-0.104,0.093-0.293c-3.014-2.494-6.571-4.348-9.651-6.828
			c-0.242-0.032-0.489,0.09-0.688-0.201c-0.004-0.395-0.341-0.635-0.65-0.904c-1.765-1.537-3.376-3.201-4.412-5.341
			c-0.026-0.054-0.075-0.091-0.134-0.079c-1.791,3.297-3.278,6.752-5.398,9.914c2.358,1.143,4.809,2.036,7.042,3.371
			C51.953,38.237,51.945,38.306,51.907,38.345z"/>
		<path fill="none" d="M28.207,58.639c2.814,1.393,5.604,2.827,8.292,4.455c1.675,1.016,3.447,1.842,5.287,2.522
			c1.475,0.548,2.999,0.913,4.508,1.339c2.038,0.574,4.031,1.304,6.098,1.783c0.544,0.126,1.083,0.288,1.65,0.288
			c-1.341-0.425-2.671-0.872-3.974-1.396c-3.05-1.23-5.888-2.802-8.278-5.103c-2.059-1.979-3.679-4.244-4.563-6.992
			c-0.566-1.762-0.707-3.556-0.362-5.373c0.273-1.432,0.811-2.77,1.609-3.998c0.116-0.178,0.317-0.33,0.267-0.609
			c-0.683-0.507-1.449-0.886-2.217-1.262c-1.445-0.708-2.953-1.288-4.359-2.075c-4.308-2.41-8.239-5.35-11.911-8.632
			c-1.842-1.648-3.829-3.109-5.743-4.664c-0.108-0.087-0.237-0.151-0.419-0.266c-0.491,1.223-0.817,2.419-1.087,3.631
			c-0.533,2.392-0.645,4.794-0.228,7.222c0.608,3.533,2.176,6.643,4.199,9.546C19.882,53.227,23.655,56.386,28.207,58.639z"/>
		<path fill="none" d="M38.573,54.542c-0.021,0.163,0.059,0.257,0.195,0.315C38.743,54.731,38.828,54.538,38.573,54.542z"/>
		<rect x="99.128" y="68.113" width="0" height="0.002"/>
		<path d="M127.372,69.684c-0.978-0.263-1.713-0.94-2.629-1.478c0.949-0.441,1.924-0.3,2.774-0.75
			c-0.096-0.73-0.806-0.899-1.159-1.343c0.032-0.064,0.041-0.106,0.066-0.136c0.603-0.654,0.542-0.971-0.259-1.369
			c-0.4-0.199-0.797-0.404-1.198-0.609c0.14-0.203,0.375-0.167,0.552-0.258c0.405-0.209,0.615-0.515,0.549-0.854
			c-0.063-0.322-0.309-0.509-0.773-0.57c-0.647-0.084-1.302-0.127-1.941-0.252c-0.545-0.106-1.117-0.047-1.679-0.248
			c0.984-0.695,2.124-1.119,2.748-2.123c-0.277-0.701-0.396-0.784-1.018-0.8c-0.713-0.018-1.428-0.056-2.141-0.059
			c-1.694-0.009-3.371-0.296-5.066-0.315c-0.074-0.001-0.165,0.016-0.179-0.108c0.153-0.217,0.38-0.36,0.583-0.526
			c0.887-0.724,1.732-1.493,2.49-2.351c0.436-0.495,0.834-1.027,0.989-1.732c-0.373-0.041-0.679-0.055-0.976-0.108
			c-1.485-0.266-2.973-0.519-4.45-0.818c-1.816-0.366-3.646-0.681-5.429-1.197c-2.001-0.579-3.9-1.437-5.767-2.341
			c-2.407-1.164-4.146-2.996-5.037-5.564c-0.025-0.075-0.079-0.139-0.112-0.196c-0.66-0.104-0.989-0.057-1.588,0.458
			c-1.05,0.904-2.295,1.373-3.589,1.77c-2.68,0.821-5.41,1.374-8.192,1.678c-2.321,0.254-4.629,0.323-6.924-0.3
			c-2.024-0.549-3.44-1.761-4.333-3.656c1.41-3.014,3.504-5.479,6.103-7.531c1.688-1.335,3.513-2.444,5.456-3.364
			c0.324-0.153,0.697-0.247,0.912-0.564c0.038-0.629-0.066-0.799-0.604-0.96c-0.194-0.058-0.394-0.109-0.594-0.127
			c-1.604-0.142-3.201-0.328-4.791-0.599c-4.673-0.797-9.114-2.3-13.406-4.284c-1.074-0.497-2.146-0.999-3.165-1.597
			c-1.021-0.599-2.205-0.836-3.196-1.492c-0.097-0.065-0.23-0.074-0.451-0.141c-2.056,1.528-3.554,3.511-4.359,6.02
			c-0.364-0.222-0.593-0.487-0.826-0.739c-0.611-0.659-1.164-1.367-1.658-2.119c-0.604-0.92-1.197-1.85-1.863-2.726
			c-0.302-0.398-0.582-0.832-1.145-1.062c-0.394,0.631-0.837,1.22-1.154,1.87c-1.438,2.953-2.978,5.851-4.546,8.735
			c-0.212,0.389-0.447,0.764-0.808,1.078c-0.578-0.386-1.144-0.749-1.692-1.135c-2.023-1.424-3.874-3.054-5.672-4.748
			c-0.978-0.922-1.871-1.945-3.037-2.649c-0.746-0.451-1.352-1.052-1.889-1.721c-0.369-0.461-0.825-0.711-1.387-0.771
			c-0.257,0.061-0.463,0.176-0.649,0.35c-0.497,0.463-0.918,0.979-1.232,1.585c-0.823,1.586-1.267,3.307-1.772,5.004
			c-0.532,1.789-0.875,3.607-0.718,5.487c0.004,0.055-0.019,0.109-0.04,0.222c-0.985-0.888-2.14-1.477-3.114-2.312
			c-2.401-2.058-4.939-3.945-7.416-5.909c-0.159-0.126-0.326-0.247-0.501-0.349c-0.496-0.287-0.872-0.215-1.237,0.231
			c-0.248,0.303-0.427,0.648-0.546,1.019c-0.86,2.668-1.453,5.39-1.602,8.197c-0.057,1.083,0.008,2.163,0.195,3.229
			c0.561,3.195,1.818,6.121,3.48,8.887c0.185,0.308,0.375,0.614,0.607,0.993c-0.787,0.064-1.493,0.16-2.2,0.169
			c-1.774,0.023-3.551,0.01-5.326,0.005c-1.5-0.004-2.968,0.209-4.4,0.655c-0.424,0.133-0.839,0.293-1.271,0.258
			c-0.517,0.445-0.451,0.992-0.396,1.438c0.12,0.339,0.386,0.418,0.538,0.623c-0.216,0.113-0.44,0.001-0.613,0.144
			c-0.507,0.728-0.345,1.342,0.45,1.721c0.365,0.175,0.79,0.219,1.12,0.521c-0.193-0.029-0.367-0.073-0.542-0.077
			c-0.311-0.007-0.569,0.104-0.667,0.427c-0.104,0.343,0.056,0.591,0.333,0.776c0.084,0.056,0.177,0.105,0.272,0.138
			c0.261,0.091,0.444,0.253,0.544,0.492c-0.169,0.243-0.47,0.21-0.653,0.425c-0.189,0.284-0.125,0.55,0.13,0.795
			c0.324,0.311,0.654,0.613,1.014,0.884c0.132,0.099,0.317,0.166,0.381,0.379c-0.552,0.123-1.062,0.237-1.533,0.343
			c-0.269,0.583-0.262,0.731,0.092,1.087c0.2,0.2,0.424,0.381,0.655,0.548c0.883,0.643,1.885,1.056,2.903,1.417
			c1.438,0.51,2.765,1.207,3.91,2.222c1.443,1.277,3.039,2.333,4.696,3.306c4.555,2.67,8.763,5.822,12.765,9.252
			c3.022,2.59,6.166,5.02,9.414,7.318c0.649,0.46,1.396,0.756,2.021,1.303c0.338,0.089,0.641,0.028,0.94-0.031
			c1.519-0.298,3.045-0.564,4.553-0.91c3.058-0.699,6.109-1.432,9.159-2.17c3.49-0.846,7.024-1.442,10.584-1.885
			c1.901-0.236,3.807-0.431,5.708-0.659c2.451-0.295,4.906-0.513,7.375-0.604c1.669-0.061,3.339-0.144,5.006-0.25
			c2.392-0.155,4.721-0.644,7.005-1.364c2.136-0.675,4.26-1.401,6.449-1.892c4.219-0.945,8.497-1.538,12.781-2.093
			c3.174-0.411,6.364-0.679,9.535-1.108c3.012-0.407,5.989-0.975,8.917-1.79c0.216-0.06,0.434-0.114,0.622-0.247
			c0.307-0.219,0.368-0.527,0.305-0.868C127.89,69.924,127.685,69.769,127.372,69.684z M124.642,66.931
			c-3.158,0.968-6.355,1.775-9.632,2.23c-2.402,0.334-4.808,0.639-7.209,0.986c-2.48,0.358-4.932,0.877-7.385,1.39
			c-3.33,0.695-6.642,1.466-9.988,2.074c-1.644,0.3-3.287,0.609-4.944,0.812c-2.365,0.293-4.727,0.605-7.076,0.999
			c-2.11,0.354-4.213,0.747-6.315,1.142c-1.586,0.295-3.188,0.457-4.793,0.582c-2.926,0.229-5.856,0.427-8.746,0.983
			c-2.021,0.391-4.028,0.851-6.024,1.353c-2.568,0.646-5.138,1.293-7.698,1.968c-1.398,0.368-2.792,0.755-4.214,1.022
			c-0.319,0.06-0.644,0.089-0.966,0.131c-0.61-0.587-1.295-1.022-2.032-1.381c-0.279-0.137-0.502-0.352-0.726-0.558
			c-2.113-1.955-4.372-3.735-6.605-5.546c-3.217-2.607-6.508-5.12-9.867-7.543c-1.742-1.256-3.55-2.386-5.562-3.174
			c-1.548-0.608-2.956-1.486-4.255-2.512c-1.593-1.258-3.354-2.242-5.091-3.269c-0.367-0.215-0.711-0.463-1.038-0.743
			c0.259-0.241,0.5-0.154,0.758-0.054c1.75,0.686,3.443,1.472,4.976,2.585c2.94,2.138,6.056,4.001,9.257,5.716
			c2.654,1.422,5.102,3.141,7.46,4.996c2.774,2.184,5.403,4.542,8.117,6.796c0.941,0.782,1.881,1.564,2.88,2.271
			c0.27,0.189,0.522,0.392,0.66,0.71c1.114,0.377,2.19,0.153,3.256-0.133c1.28-0.344,2.511-0.837,3.766-1.262
			c1.763-0.597,3.593-0.91,5.423-1.201c2.998-0.477,6.001-0.918,9.007-1.338c1.917-0.27,3.844-0.477,5.773-0.649
			c3.047-0.272,6.09-0.573,9.139-0.817c2.155-0.172,4.302-0.417,6.449-0.652c2.275-0.249,4.492-0.774,6.685-1.419
			c2.5-0.735,5.006-1.457,7.578-1.914c2.326-0.413,4.661-0.774,6.99-1.178c2.228-0.386,4.446-0.829,6.679-1.187
			c2.051-0.328,4.107-0.64,6.183-0.807c1.712-0.137,3.385-0.506,5.039-0.956c0.925-0.25,1.859-0.471,2.773-0.749
			c0.545-0.165,1.037-0.156,1.529,0.164C124.836,66.919,124.717,66.908,124.642,66.931z M68.399,74.506
			c1.682-0.16,3.356-0.312,5.03-0.536c2.869-0.383,5.701-0.892,8.493-1.666c1.706-0.473,3.422-0.896,5.191-1.083
			c0.69-0.073,1.382-0.123,2.072-0.095c0.781,0.032,1.537-0.145,2.305-0.208c0.018-0.006,0.035-0.009,0.053-0.013
			c0.011-0.002,0.022-0.001,0.033-0.002c0.138-0.105,0.298-0.104,0.46-0.099c0.005-0.005,0.011-0.005,0.016-0.009
			c0.008-0.002,0.017-0.002,0.023-0.003c0.124-0.127,0.288-0.093,0.439-0.108c0.009-0.006,0.02-0.005,0.029-0.012
			c0.007-0.002,0.018-0.002,0.026-0.003c0.157-0.145,0.358-0.099,0.544-0.121c0.007-0.005,0.013-0.006,0.019-0.012
			c0.01-0.002,0.022-0.002,0.031-0.003c0.086-0.065,0.181-0.097,0.292-0.073c-0.082,0.1-0.193,0.061-0.292,0.073
			c-0.006,0.005-0.016,0.007-0.023,0.013c-0.008,0.001-0.018,0.001-0.026,0.002c-0.157,0.144-0.362,0.084-0.544,0.121
			c-0.006,0.005-0.013,0.006-0.02,0.012c-0.011,0.002-0.023,0.002-0.036,0.003c-0.132,0.09-0.288,0.438-0.439,0.457
			c-0.005,0.004-0.011,0.358-0.016,0.358c-0.008,0-0.015,0-0.023,0c-0.139,0-0.302-0.266-0.46-0.249
			c-0.008,0.006-0.017-0.171-0.025-0.163c-0.02,0.002-0.04-0.081-0.061-0.079c-1.346,0.389-2.69,0.743-4.04,1.121
			c-2.237,0.623-4.497,1.134-6.809,1.41c-1.436,0.172-2.872,0.327-4.314,0.443c-1.544,0.124-3.081,0.315-4.624,0.435
			c-1.209,0.091-2.409,0.185-3.627,0.188c-0.006,0.005-0.013-0.105-0.019-0.105c-0.013,0-0.025,0-0.039,0c-0.336,0-0.685,0-1.032,0
			c0.345,0,0.688,0,1.032,0c0.01,0,0.021,0,0.031,0c0.009,0,0.019,0,0.026,0C68.171,74.5,68.283,74.516,68.399,74.506z
			 M68.212,72.955c0.004-0.073,0.048-0.014,0.046-0.012C68.26,72.942,68.236,72.948,68.212,72.955z M68.854,72.814
			c0.091-0.036,0.141-0.055,0.182,0.001C68.997,72.858,68.949,72.853,68.854,72.814z M69.382,72.7
			c0.205-0.032,0.33-0.051,0.449-0.068c0.008-0.007,0.021-0.007,0.03-0.014c0.02-0.003,0.035-0.006,0.053-0.009
			c0.068-0.026,0.135-0.062,0.203-0.034c-0.062,0.01-0.133,0.021-0.203,0.034c-0.015,0.006-0.028,0.012-0.043,0.016
			c-0.014,0.003-0.028,0.005-0.04,0.007C69.725,72.709,69.599,72.714,69.382,72.7z M73.143,72.228
			c0.927-0.668,2.035-0.739,3.119-0.948c1.622-0.312,3.29-0.313,4.891-0.721c0.906-0.23,1.814-0.191,2.75-0.156
			c-1.452,0.382-2.906,0.764-4.358,1.146C77.442,72.103,75.308,72.361,73.143,72.228z M63.134,73.574
			c-3.699,0.35-7.415,0.36-11.122,0.53c-2.943,0.135-5.833,0.614-8.591,1.715c-1.197,0.479-2.323,1.092-3.425,1.823
			c-0.262-0.184-0.559-0.311-0.737-0.6c-0.599-0.324-1.058-0.819-1.541-1.277c-0.885-0.844-1.75-1.706-2.604-2.581
			c-1.432-1.468-3.099-2.636-4.796-3.761c-1.799-1.192-3.607-2.371-5.271-3.754c-0.087-0.072-0.183-0.135-0.218-0.25
			c-0.007-0.004-0.014-0.008-0.021-0.011c-0.003-0.009-0.01-0.011-0.013-0.017c-0.152-0.016-0.264-0.089-0.336-0.222
			c-0.008,0-0.013-0.007-0.021-0.007c-0.008-0.011-0.019-0.016-0.026-0.026c-0.263-0.089-0.484-0.241-0.668-0.448
			c-0.013-0.004-0.022-0.014-0.037-0.016c-0.002-0.008-0.009-0.009-0.012-0.016c-0.153-0.022-0.28-0.085-0.358-0.228
			c-0.854-0.42-1.703-0.849-2.562-1.261c-1.721-0.826-3.496-1.54-5.161-2.481c-0.654-0.369-1.311-0.738-1.89-1.224
			c-0.151-0.126-0.32-0.234-0.411-0.419c-0.006-0.001-0.012-0.002-0.019-0.003c0-0.008-0.005-0.01-0.006-0.017
			c-0.052-0.017-0.087-0.048-0.091-0.106c-0.004-0.002-0.007-0.006-0.012-0.009l-0.018-0.009l0.026,0.005
			c0,0.005,0.004,0.007,0.004,0.013c0.004,0.058,0.039,0.089,0.091,0.106c0.006,0.002,0.009,0.006,0.016,0.008
			c0.002,0.004,0.006,0.006,0.009,0.012c0.113,0.023,0.234,0.028,0.333,0.077c2.53,1.249,5.13,2.36,7.545,3.833
			c0.74,0.453,1.506,0.874,2.155,1.464c0.159,0.018,0.284,0.084,0.348,0.239c0.008,0.001,0.013,0.005,0.021,0.006
			c0.008,0.01,0.019,0.015,0.027,0.025c0.281,0.063,0.498,0.222,0.668,0.448c0.012,0.005,0.022,0.013,0.035,0.018
			c0.003,0.007,0.009,0.009,0.013,0.016c0.157,0.006,0.271,0.077,0.336,0.222c0.008,0,0.013,0.006,0.021,0.006
			c0.002,0.01,0.01,0.014,0.012,0.021c0.779,0.344,1.438,0.881,2.141,1.344c2.308,1.528,4.633,3.028,6.891,4.63
			c2.04,1.447,3.882,3.098,5.155,5.296c0.07,0.121,0.167,0.229,0.251,0.343c1.005-0.164,1.986-0.391,2.774-1.101
			c0.592-0.534,1.209-1.035,1.874-1.475c1.075-0.71,2.25-1.119,3.542-1.223c0.816-0.065,1.625-0.076,2.442-0.018
			c2.222,0.157,4.442,0.07,6.662-0.094c2.486-0.183,4.976-0.093,7.465-0.1c1.223-0.002,2.445,0.082,3.67,0.017
			C66.185,73.285,64.659,73.43,63.134,73.574z M66.219,74.898c-0.092,0.007-0.184,0.013-0.273,0.02
			c-0.007-0.011-0.014-0.022-0.02-0.034c0.098,0,0.195,0,0.292,0C66.218,74.89,66.219,74.895,66.219,74.898z M64.903,74.992
			c-0.001,0.012-0.001,0.023-0.001,0.034c-0.077,0-0.154,0-0.232,0c0-0.006,0-0.012-0.001-0.018
			C64.748,75.004,64.825,74.998,64.903,74.992z M63.568,75.131c0,0.006,0,0.013,0,0.021c-0.157,0-0.316,0-0.474,0
			c0-0.008,0-0.015,0-0.021C63.252,75.131,63.411,75.131,63.568,75.131z M61.762,75.5c-0.111,0-0.191,0-0.286,0
			C61.57,75.5,61.65,75.5,61.762,75.5z M13.477,60.752c1.045,0.795,2.192,1.412,3.377,1.963c2.032,0.944,4.095,1.825,5.974,3.07
			c1.021,0.676,2.019,1.384,2.974,2.149c1.419,1.139,2.927,2.147,4.485,3.078c1.55,0.927,2.976,2.004,4.224,3.31
			c1.372,1.436,2.926,2.661,4.466,3.903c0.315,0.253,0.581,0.573,0.966,0.753c1.271-0.753,2.564-1.441,3.941-1.968
			c1.347-0.515,2.724-0.851,4.173-0.808c1.133,0.034,2.23-0.185,3.325-0.433c0.958-0.217,1.924-0.326,2.91-0.317
			c1.835,0.017,3.672,0.073,5.505-0.101c0.354-0.034,0.713-0.007,1.07-0.007c-3.552,0.369-7.058,1.008-10.565,1.645
			c-2.186,0.398-4.355,0.852-6.489,1.476c-0.764,0.225-1.498,0.527-2.231,0.833c-0.795,0.33-1.613,0.558-2.496,0.617
			c-0.878-0.782-1.761-1.564-2.642-2.351c-3.774-3.369-7.531-6.756-11.693-9.653c-1.962-1.366-4.042-2.532-6.139-3.671
			c-2.869-1.56-5.656-3.25-8.277-5.207c-1.3-0.972-2.723-1.71-4.266-2.219c-0.461-0.153-0.92-0.315-1.413-0.611
			c0.334-0.094,0.62,0.094,0.818-0.084c1.902,0.835,3.804,1.534,5.455,2.729C11.788,59.47,12.632,60.111,13.477,60.752z
			 M93.888,70.372c0.027-0.009,0.057-0.017,0.083-0.026C93.976,70.44,93.918,70.369,93.888,70.372z M99.129,68.113
			c-0.002,0.001,0,0-0.002,0.001c-0.057,0.025-0.035,0.017,0,0C99.091,68.118,99.067,68.121,99.129,68.113L99.129,68.113
			c0.009-0.004,0.016-0.007,0.027-0.013c0.014-0.001,0.027-0.003,0.041-0.004c0.411-0.196,0.834-0.346,1.296-0.354
			c-0.397,0.247-0.84,0.32-1.296,0.354c-0.011,0.005-0.022,0.009-0.034,0.014C99.148,68.111,99.142,68.112,99.129,68.113
			L99.129,68.113L99.129,68.113z M101.807,67.396c0.057-0.01,0.104,0.051,0.148,0.045c0.002-0.006,0.006,0.059,0.007,0.059
			c0.006,0,0.012,0,0.018,0c0.369-1,0.899-0.737,1.401-0.972c1.555-0.713,3.192-1.188,4.883-1.446
			c0.018-0.007,0.037-0.031,0.055-0.039c0.01,0,0.022-0.01,0.033-0.011c0.085-0.056,0.172-0.11,0.313-0.031
			c-0.126,0.011-0.22,0.016-0.313,0.024c-0.008,0.004-0.018,0.006-0.024,0.012c-0.021,0.002-0.042,0.008-0.063,0.01
			c-1.055,0.407-2.106,0.814-3.162,1.217c-0.907,0.346-1.817,0.682-2.726,1.022c-0.129,0.048-0.258,0.083-0.396,0.072
			c-0.002,0.003-0.007,0.005-0.009,0.009c-0.005,0.002-0.012,0.002-0.016,0.004C101.928,67.436,101.893,67.48,101.807,67.396z
			 M124.164,64.944c-2.713,0.612-5.277,1.461-7.944,1.863c-1.187,0.178-2.391,0.241-3.582,0.395
			c-2.122,0.27-4.223,0.656-6.327,1.033c-1.193,0.215-2.375,0.499-3.59,0.587c-0.007,0.002-0.014,0.004-0.021,0.007l-0.017,0.02
			l0.017-0.024c0.007,0,0.015-0.002,0.021-0.002c2.214-0.729,4.368-1.629,6.591-2.34c1.952-0.626,3.957-0.919,5.993-1.07
			c1.401-0.104,2.796-0.276,4.195-0.408c1.196-0.112,2.395-0.197,3.575-0.442C123.468,64.481,123.763,64.729,124.164,64.944z
			 M122.079,63.119c-2.406,0.277-4.741,0.54-7.076,0.818c-0.405,0.049-0.806,0.344-1.216,0.335
			c-0.018,0.004-0.035,0.229-0.051,0.229c-0.01,0-0.022,0-0.033,0c-0.125,0-0.263,0-0.518,0c0.241,0,0.382,0,0.518,0
			c0.009,0,0.017-0.22,0.024-0.227c0.021,0.002,0.04-0.111,0.06-0.111c0.918-0.275,1.88-0.388,2.812-0.61
			c0.673-0.161,1.351-0.334,2.011-0.541c0.528-0.166,1.038-0.295,1.61-0.168C120.809,62.973,121.426,62.946,122.079,63.119z
			 M116.938,60.016c1.489-0.011,2.971,0.143,4.488,0.176c-0.047,0.215-0.218,0.245-0.35,0.315c-1.524,0.808-3.153,1.321-4.834,1.678
			c-2.368,0.503-4.775,0.776-7.165,1.202c1.945-1.268,3.899-2.512,5.738-3.985C115.467,59.952,116.207,60.021,116.938,60.016z
			 M75.258,47.535c1.604,0.978,3.34,1.472,5.206,1.578c5.194,0.297,10.134-0.733,14.862-2.85c0.594-0.265,1.162-0.591,1.736-0.902
			c0.234-0.126,0.471-0.229,0.769-0.283c0.436,1.208,1.192,2.183,2.027,3.109c1.182,1.312,2.581,2.298,4.227,2.944
			c1.649,0.648,3.269,1.383,4.941,1.959c1.852,0.635,3.79,0.964,5.717,1.3c1,0.175,2.005,0.319,3.103,0.404
			c-0.197,0.237-0.345,0.425-0.503,0.602c-1.535,1.71-3.308,3.149-5.179,4.467c-2.152,1.517-4.399,2.882-6.721,4.126
			c-0.547,0.292-1.133,0.453-1.713,0.645c-0.796,0.264-1.556,0.6-2.25,1.081c-0.731,0.507-1.597,0.716-2.43,0.979
			c-0.563,0.179-1.134,0.338-1.709,0.476c-1.545,0.369-3.121,0.593-4.703,0.712c-0.724,0.055-1.515,0.169-2.237,0.069
			c-0.6-0.08-1.104-0.154-1.69,0.013c-0.011,0.005-0.021,0.008-0.034,0.011c-0.025,0.048-0.066,0.077-0.122,0.086
			c-0.057-0.009-0.097-0.038-0.123-0.088C88.18,67.93,87.905,68,87.653,67.956c-0.209-0.036-0.375-0.131-0.598-0.106
			c-0.14,0.016-0.267,0.073-0.408,0.086c-0.462,0.038-0.974-0.052-1.436-0.094c-0.981-0.092-1.959-0.239-2.917-0.47
			c-0.719-0.174-1.428-0.396-2.113-0.673c-0.35-0.14-0.685-0.309-1.027-0.463c-0.256-0.114-0.458-0.251-0.703-0.389
			c-0.178-0.099-0.323-0.134-0.499-0.194c-0.186-0.064-0.34-0.109-0.497-0.223c-0.191-0.141-0.326-0.337-0.509-0.485
			c-0.257-0.211-0.498-0.436-0.717-0.69c-0.321-0.374-0.714-0.688-1.009-1.083c-0.246-0.331-0.447-0.662-0.645-1.023
			c-0.175-0.316-0.402-0.579-0.552-0.897c-0.174-0.375-0.337-0.789-0.552-1.125c-0.22-0.344-0.312-0.705-0.447-1.079
			c-0.075-0.202-0.213-0.385-0.306-0.578c-0.073-0.152-0.106-0.345-0.15-0.523c-0.089-0.358-0.171-0.72-0.244-1.077
			c-0.014-0.065-0.067-0.128-0.081-0.221c-0.013-0.099,0.019-0.206,0.006-0.305c-0.026-0.19-0.091-0.292-0.101-0.499
			c-0.008-0.215-0.107-0.375-0.103-0.6c0.005-0.202-0.072-0.312-0.104-0.5c-0.033-0.185,0.007-0.41,0.005-0.6
			c-0.003-0.211,0.305-0.305,0.328-0.499c0.047-0.351,0.225-0.747,0.225-1.103c0-0.434,0-0.869,0-1.303
			c0-0.329-0.18-0.666-0.236-0.994c-0.021-0.129-0.213-0.249-0.229-0.375c-0.019-0.134-0.023-0.303-0.007-0.436
			c0.083-0.615,0.159-1.225,0.285-1.831c0.177-0.845,0.317-1.923,0.831-2.646c0.107,0.079,0.121,0.208,0.16,0.32
			C73.661,46.292,74.357,46.985,75.258,47.535z M60.428,24.462c0.738,0.268,1.392,0.64,2.05,1.001
			c3.653,2.012,7.461,3.663,11.419,4.966c2.776,0.915,5.631,1.484,8.532,1.815c0.081,0.01,0.165,0.008,0.24,0.136
			c-0.091,0.157-0.279,0.234-0.442,0.327c-2.513,1.452-4.735,3.255-6.608,5.477c-2.409,2.86-4.044,6.113-4.78,9.784
			c-0.915,4.548-0.357,8.934,1.723,13.086c1.214,2.425,2.849,4.516,5.22,5.938c1.146,0.688,2.381,1.158,3.667,1.502
			c0.171,0.047,0.343,0.092,0.504,0.18c-1.419,0.03-2.841-0.056-4.245-0.268c-1.473-0.224-2.923-0.586-4.326-1.085
			c-0.712-0.254-1.391-0.572-2.089-0.855c-0.558-0.228-1.116-0.284-1.624-0.644c-0.28-0.198-0.565-0.347-0.845-0.546
			c-0.459-0.327-0.976-0.52-1.378-0.928c-0.301-0.306-0.623-0.575-0.926-0.875c-0.338-0.336-0.632-0.69-0.975-1.026
			c-0.443-0.433-0.785-0.967-1.223-1.397c-0.702-0.689-1.069-1.581-1.559-2.406c-0.413-0.697-0.436-1.555-0.72-2.299
			c-0.176-0.462-0.189-0.928-0.325-1.4c-0.124-0.436-0.182-0.836-0.176-1.301c0.003-0.24-0.098-0.361-0.099-0.601
			c-0.002-0.221-0.091-0.385-0.103-0.6c-0.011-0.198,0.003-0.401,0.002-0.601c-0.002-0.236,0.066-0.378,0.104-0.6
			c0.034-0.192-0.044-0.408-0.01-0.6c0.039-0.222,0.108-0.364,0.105-0.601c-0.001-0.088-0.025-0.221-0.005-0.305
			c0.021-0.09,0.088-0.099,0.11-0.189c0.007-0.029,0.011-0.058,0.015-0.087c0.024-0.211-0.031-0.429-0.002-0.637
			c0.038-0.274,0.131-0.555,0.203-0.822c0.152-0.568,0.331-1.129,0.535-1.68c0.402-1.091,0.897-2.147,1.459-3.163
			c0.644-1.164,1.611-2.045,2.493-3.002c0.359-0.392,0.691-0.804,0.98-1.25c0.236-0.366,0.4-0.754,0.377-1.262
			c-0.858-0.496-1.687-1.09-2.418-1.795c-1.572-1.518-3.466-2.571-5.29-3.726c-1.101-0.698-2.168-1.446-3.256-2.271
			C57.366,27.628,58.588,25.848,60.428,24.462z M50.366,24.81c0.059-0.012,0.108,0.024,0.134,0.079
			c1.035,2.14,2.647,3.804,4.412,5.341c0.309,0.269,0.646,0.509,0.65,0.904c0.198,0.291,0.445,0.168,0.688,0.201
			c3.081,2.48,6.637,4.334,9.651,6.828c0.033,0.19-0.03,0.243-0.093,0.293c-1.812,1.482-3.044,3.392-3.988,5.498
			c-1.016,2.264-1.712,4.633-1.959,7.104c-0.249,2.505,0.188,4.926,1.261,7.207c1.832,3.891,4.572,6.969,8.312,9.125
			c0.99,0.569,2.054,0.983,3.113,1.407c-1.383,0.15-6.029-0.976-9.195-2.802c-0.762-0.438-1.505-0.912-2.225-1.418
			c-1.207-0.85-2.364-1.792-3.413-2.833c-0.209-0.207-0.361-0.414-0.465-0.69c-0.075-0.203-0.125-0.399-0.271-0.566
			c-0.219-0.249-0.55-0.353-0.801-0.563c-0.256-0.214-0.455-0.491-0.734-0.679c-0.367-0.245-0.739-0.536-1.081-0.825
			c-0.183-0.156-0.351-0.385-0.5-0.577c-0.108-0.138-0.228-0.257-0.322-0.399c-0.283-0.42-0.549-0.824-0.903-1.2
			c-0.198-0.209-0.33-0.463-0.495-0.698c-0.093-0.131-0.145-0.245-0.226-0.381c-0.082-0.138-0.188-0.2-0.283-0.321
			c-0.168-0.216-0.281-0.454-0.417-0.68c-0.125-0.207-0.306-0.367-0.454-0.544c-0.586-0.708-0.943-1.563-1.348-2.357
			c-0.241-0.474-0.502-0.925-0.706-1.417c-0.1-0.242-0.181-0.55-0.25-0.806c-0.076-0.281-0.124-0.537-0.122-0.828
			c0.001-0.171,0.03-0.379,0.004-0.547c-0.021-0.146-0.093-0.257-0.11-0.404c-0.028-0.234,0.065-0.328,0.11-0.517
			c0.046-0.192-0.002-0.486-0.004-0.684c-0.003-0.232,0.086-0.399,0.102-0.622c0.006-0.087,0.003-0.177-0.002-0.266
			c-0.01-0.181-0.023-0.364,0.021-0.535c0.054-0.205,0.088-0.399,0.153-0.601c0.127-0.396,0.228-0.801,0.322-1.201
			c0.104-0.434,0.253-0.887,0.422-1.298c0.116-0.281,0.32-0.516,0.471-0.776c0.123-0.211,0.184-0.443,0.332-0.638
			c0.38-0.497,0.828-0.957,1.303-1.364c0.155-0.132,0.302-0.274,0.445-0.418c0.038-0.039,0.046-0.108,0.103-0.25
			c-2.233-1.334-4.684-2.228-7.042-3.371C47.088,31.562,48.576,28.107,50.366,24.81z M27.284,32.098
			c0.472-2.109,1.021-4.199,1.938-6.17c0.196-0.421,0.387-0.848,0.709-1.147c2.44,2.089,4.965,4.01,7.255,6.229
			c3.458,3.352,7.463,5.927,11.992,7.641c0.106,0.04,0.243,0.043,0.33,0.194c-0.343,0.433-0.72,0.858-1.041,1.322
			c-0.964,1.391-1.377,2.98-1.638,4.626c-0.594,3.751,0.479,7.049,2.671,10.062c1.527,2.101,3.303,3.988,5.006,5.938
			c1.385,1.587,2.855,3.076,4.516,4.379c2.63,2.062,5.543,3.57,8.744,4.527c0.078,0.021,0.154,0.045,0.262,0.076
			c-0.888,0.223-1.958,0.015-2.846-0.096c-2.399-0.296-4.782-0.777-7.127-1.354c-1.052-0.259-2.155-0.492-3.17-0.874
			c-0.273-0.103-0.542-0.222-0.803-0.354c-0.331-0.167-0.679-0.254-1.028-0.379c-0.691-0.247-1.413-0.447-2.038-0.845
			c-0.19-0.12-0.383-0.157-0.576-0.223c-0.062-0.021-0.12-0.045-0.176-0.074c-0.148-0.072-0.279-0.166-0.429-0.255
			c-0.275-0.165-0.518-0.33-0.797-0.474c-0.188-0.094-0.397-0.202-0.601-0.276c-0.209-0.078-0.39-0.087-0.6-0.118
			c-0.226-0.035-0.472-0.216-0.678-0.308c-0.208-0.094-0.415-0.167-0.622-0.273c-0.432-0.218-0.908-0.424-1.278-0.725
			c-0.352-0.286-0.655-0.659-0.948-0.994c-0.291-0.334-0.502-0.75-0.75-1.109c-0.232-0.335-0.596-0.575-0.847-0.9
			c-0.167-0.218-0.41-0.375-0.583-0.598c-0.117-0.148-0.22-0.334-0.32-0.495c-0.214-0.344-0.436-0.688-0.65-1.028
			c-0.117-0.185-0.196-0.383-0.3-0.576c-0.106-0.196-0.209-0.402-0.303-0.605c-0.077-0.166-0.149-0.326-0.22-0.498
			c-0.085-0.205-0.225-0.393-0.328-0.6c-0.277-0.563-0.517-1.142-0.801-1.7c-0.262-0.52-0.423-1.036-0.546-1.601
			c-0.105-0.484-0.347-1.07-0.278-1.567c0.08-0.575,0.199-1.144,0.348-1.704c0.27-1.013,0.624-2.085,1.251-2.939
			c0.492,0.008,0.885-0.181,1.006-0.756c-0.031-0.42-0.341-0.651-0.656-0.885c-1.302-0.966-2.739-1.702-4.215-2.345
			c-3.008-1.307-5.778-3.012-8.45-4.897c-0.036-0.18-0.032-0.378-0.113-0.533C26.749,35.284,26.928,33.686,27.284,32.098z
			 M38.925,55.134c-0.013-0.004-0.027-0.007-0.041-0.011c-0.001-0.009-0.002-0.019-0.003-0.027
			c-0.058-0.056-0.097-0.123-0.096-0.207c-0.008-0.004-0.006-0.012-0.015-0.016c-0.001-0.005,0-0.012-0.001-0.017
			c-0.136-0.059-0.217-0.152-0.195-0.315c0.254-0.004,0.169,0.189,0.195,0.315c0.005,0.002,0.006,0.006,0.011,0.008
			c-0.001,0.008,0.005,0.015,0.005,0.024c0.081,0.047,0.087,0.127,0.096,0.207c0.005,0.005,0.007,0.012,0.013,0.018
			C38.904,55.121,38.915,55.127,38.925,55.134z M12.777,39.51c-0.417-2.428-0.305-4.831,0.228-7.222
			c0.27-1.211,0.596-2.408,1.087-3.631c0.183,0.115,0.312,0.178,0.419,0.266c1.914,1.555,3.901,3.016,5.743,4.664
			c3.672,3.283,7.603,6.222,11.911,8.632c1.407,0.788,2.914,1.367,4.359,2.075c0.768,0.375,1.534,0.755,2.217,1.262
			c0.05,0.279-0.151,0.431-0.267,0.609c-0.798,1.229-1.336,2.566-1.609,3.998c-0.345,1.816-0.204,3.61,0.362,5.373
			c0.884,2.748,2.504,5.012,4.563,6.992c2.39,2.301,5.228,3.872,8.278,5.103c1.303,0.524,2.633,0.972,3.974,1.396
			c-0.567,0-1.106-0.162-1.65-0.288c-2.066-0.479-4.06-1.209-6.098-1.783c-1.509-0.426-3.033-0.791-4.508-1.339
			c-1.84-0.681-3.612-1.507-5.287-2.522c-2.688-1.628-5.479-3.062-8.292-4.455c-4.552-2.252-8.325-5.412-11.23-9.583
			C14.954,46.152,13.386,43.043,12.777,39.51z M5.515,51.341c1.398-0.186,2.806-0.186,4.215-0.151
			c1.856,0.047,3.712,0.094,5.565-0.102c0.361-0.039,0.71-0.207,1.139-0.095c0.829,1.081,1.757,2.131,2.743,3.135
			c2.208,2.247,4.749,4.027,7.506,5.53c2.809,1.532,5.701,2.91,8.446,4.562c1.064,0.641,2.104,1.328,3.203,1.912
			c1.597,0.849,3.32,1.347,5.06,1.789c2.054,0.523,4.072,1.171,6.111,1.745c2.159,0.607,4.341,1.09,6.585,1.288
			c1.995,0.176,3.988,0.28,5.986,0.111c0.893-0.079,1.732,0.195,2.599,0.35c-0.504,0-1.008-0.008-1.512,0.002
			c-3.815,0.062-7.63,0.139-11.445,0.186c-1.653,0.02-3.304,0.046-4.943,0.271c-1.869,0.257-3.522,0.979-4.876,2.327
			c-0.516,0.513-0.995,1.079-1.683,1.335c-0.166-0.044-0.24-0.144-0.304-0.247c-1.257-2.065-3.017-3.646-4.98-4.987
			c-3.772-2.575-7.581-5.1-11.389-7.622c-1.924-1.274-3.994-2.296-6.067-3.303c-3.228-1.567-6.417-3.21-9.531-4.994
			c-1.186-0.68-2.471-1.169-3.621-1.917c-0.272-0.176-0.556-0.34-0.792-0.643C4.159,51.474,4.848,51.43,5.515,51.341z M3.199,53.717
			c0.206-0.125,0.387-0.121,0.594-0.1c1.067,0.651,2.147,1.312,3.228,1.974c0.013,0.002,0.025,0.006,0.039,0.008
			c0.003,0.009,0.011,0.006,0.015,0.015c0.078,0.015,0.153,0.037,0.208,0.101c0.009,0,0.017,0.001,0.025,0.002
			c0.008,0.012,0.017,0.024,0.025,0.037c-0.012-0.008-0.024-0.019-0.035-0.027c-0.004-0.006-0.01-0.006-0.015-0.012
			c-0.083-0.004-0.167-0.009-0.208-0.101c-0.008-0.002-0.016-0.004-0.023-0.006c-0.011-0.005-0.02-0.012-0.03-0.017
			c-0.522-0.071-0.962-0.355-1.423-0.573C4.791,54.636,3.991,54.237,3.199,53.717z M123.312,70.628
			c-3.178,0.653-6.396,1.03-9.618,1.38c-3.1,0.336-6.198,0.677-9.279,1.173c-3.078,0.495-6.156,0.987-9.2,1.662
			c-2.051,0.455-4.045,1.118-6.053,1.729c-1.992,0.606-4.001,1.146-6.071,1.364c-1.64,0.173-3.293,0.253-4.939,0.316
			c-2.509,0.096-5.01,0.252-7.501,0.558c-1.193,0.146-2.395,0.245-3.59,0.378c-1.54,0.17-3.078,0.351-4.616,0.532
			c-2.551,0.302-5.078,0.748-7.591,1.281c-3.131,0.665-6.224,1.48-9.314,2.31c-2.005,0.537-4.009,1.079-6.013,1.62
			c-0.138,0.038-0.273,0.083-0.532,0.05c-0.886-0.724-1.945-1.379-2.927-2.138c-2.439-1.88-4.878-3.763-7.198-5.795
			c-1.672-1.466-3.349-2.924-5.124-4.268c-2.604-1.972-5.328-3.769-8.11-5.478c-1.654-1.014-3.248-2.121-4.765-3.325
			c-1.539-1.221-3.206-2.155-5.068-2.761c-0.52-0.17-1.01-0.419-1.557-0.787c0.491-0.118,0.917-0.109,1.315-0.29
			c1.584,0.802,3.107,1.698,4.496,2.814c1.261,1.013,2.618,1.856,4.131,2.467c2.571,1.037,4.859,2.566,7.083,4.201
			c3.437,2.526,6.792,5.155,10.109,7.834c0.989,0.799,1.818,1.757,2.697,2.667c0.656,0.677,1.357,1.288,2.182,1.758
			c0.637,0.363,1.249,0.77,1.874,1.155c0.42,0.257,0.75,0.619,1.093,0.971c0.7-0.193,1.38-0.396,2.069-0.571
			c5.133-1.302,10.263-2.621,15.443-3.728c1.853-0.396,3.728-0.681,5.622-0.837c1.953-0.159,3.91-0.218,5.862-0.35
			c1.793-0.12,3.563-0.404,5.323-0.757c2.737-0.55,5.489-1.015,8.248-1.443c2.497-0.388,5.011-0.643,7.501-1.076
			c3.253-0.566,6.487-1.227,9.72-1.892c3.712-0.765,7.428-1.514,11.177-2.081c3.185-0.479,6.385-0.855,9.554-1.435
			c0.966-0.176,1.876-0.539,2.806-0.84c0.193-0.062,0.385-0.127,0.559-0.186c0.649,0.635,1.576,0.656,2.146,1.316
			C124.62,70.384,123.959,70.494,123.312,70.628z"/>
		<polygon points="99.129,68.113 99.129,68.113 99.129,68.113 		"/>
		<path d="M99.127,68.114L99.127,68.114C99.092,68.131,99.07,68.14,99.127,68.114z"/>
	</g>
	<g>
		<path fill="none" d="M22.839,75.609c1.663,1.384,3.471,2.562,5.271,3.755c1.697,1.125,3.365,2.291,4.796,3.761
			c0.853,0.875,1.719,1.737,2.604,2.58c0.482,0.459,0.941,0.954,1.54,1.278c0.178,0.289,0.475,0.416,0.737,0.6
			c1.102-0.731,2.229-1.345,3.425-1.823c2.757-1.101,5.647-1.581,8.59-1.717c3.708-0.168,7.423-0.18,11.123-0.528
			c1.525-0.146,3.05-0.289,4.565-0.535c-1.224,0.065-2.447-0.018-3.67-0.016c-2.489,0.005-4.979-0.084-7.465,0.1
			c-2.219,0.164-4.44,0.251-6.662,0.093c-0.817-0.058-1.626-0.048-2.443,0.019c-1.292,0.104-2.466,0.513-3.542,1.223
			c-0.666,0.439-1.283,0.94-1.874,1.475c-0.788,0.709-1.77,0.937-2.775,1.101c-0.084-0.114-0.181-0.222-0.251-0.344
			c-1.273-2.198-3.115-3.849-5.155-5.296c-2.257-1.602-4.583-3.102-6.891-4.629c-0.702-0.464-1.362-1.001-2.141-1.346
			C22.657,75.475,22.752,75.537,22.839,75.609z"/>
		<path fill="none" d="M22.622,75.358c-0.002-0.007-0.01-0.012-0.012-0.02c-0.008,0-0.013-0.006-0.021-0.007
			c0.003,0.007,0.01,0.009,0.012,0.016C22.608,75.353,22.614,75.356,22.622,75.358z"/>
		<path fill="none" d="M22.589,75.332c-0.065-0.144-0.18-0.216-0.337-0.223C22.324,75.244,22.438,75.317,22.589,75.332z"/>
		<path fill="none" d="M21.537,74.629c0.185,0.207,0.406,0.359,0.669,0.449C22.034,74.852,21.818,74.693,21.537,74.629z"/>
		<path fill="none" d="M8.396,71.83c1.299,1.026,2.707,1.903,4.255,2.513c2.011,0.788,3.82,1.917,5.562,3.174
			c3.358,2.423,6.649,4.936,9.866,7.542c2.234,1.812,4.492,3.592,6.605,5.546c0.223,0.207,0.447,0.421,0.726,0.558
			c0.736,0.359,1.421,0.795,2.032,1.382c0.322-0.044,0.646-0.071,0.965-0.132c1.422-0.268,2.815-0.653,4.214-1.022
			c2.561-0.676,5.129-1.322,7.698-1.967c1.997-0.502,4.003-0.962,6.024-1.353c2.89-0.557,5.819-0.756,8.746-0.983
			c1.605-0.126,3.207-0.287,4.793-0.583c2.103-0.394,4.206-0.787,6.315-1.141c2.35-0.395,4.711-0.707,7.077-0.999
			c1.655-0.204,3.3-0.513,4.943-0.812c3.347-0.609,6.658-1.379,9.988-2.075c2.453-0.512,4.904-1.031,7.385-1.389
			c2.401-0.348,4.808-0.653,7.209-0.986c3.276-0.456,6.474-1.263,9.632-2.231c0.075-0.022,0.194-0.012,0.213-0.129
			c-0.491-0.322-0.984-0.329-1.529-0.164c-0.914,0.278-1.848,0.499-2.772,0.749c-1.655,0.45-3.328,0.817-5.04,0.955
			c-2.075,0.166-4.131,0.479-6.183,0.808c-2.232,0.356-4.451,0.801-6.679,1.187c-2.329,0.403-4.663,0.765-6.991,1.178
			c-2.571,0.457-5.077,1.178-7.577,1.913c-2.193,0.646-4.409,1.171-6.685,1.42c-2.147,0.235-4.294,0.479-6.448,0.652
			c-3.049,0.243-6.094,0.545-9.139,0.816c-1.929,0.173-3.856,0.381-5.773,0.649c-3.006,0.421-6.01,0.861-9.008,1.338
			c-1.829,0.292-3.66,0.605-5.422,1.202c-1.254,0.425-2.486,0.918-3.766,1.262c-1.066,0.285-2.142,0.509-3.257,0.132
			c-0.137-0.317-0.389-0.521-0.659-0.71c-1-0.706-1.94-1.489-2.88-2.272c-2.715-2.253-5.343-4.611-8.117-6.794
			c-2.358-1.856-4.806-3.574-7.461-4.997c-3.201-1.715-6.316-3.578-9.257-5.715c-1.532-1.113-3.226-1.899-4.975-2.586
			c-0.259-0.101-0.5-0.188-0.759,0.055c0.327,0.279,0.671,0.527,1.038,0.742C5.043,69.588,6.803,70.571,8.396,71.83z"/>
		<path fill="none" d="M8.125,68.975c2.62,1.957,5.407,3.647,8.277,5.207c2.096,1.139,4.176,2.305,6.138,3.672
			c4.162,2.897,7.919,6.284,11.692,9.652c0.881,0.786,1.764,1.569,2.643,2.352c0.883-0.06,1.701-0.287,2.497-0.618
			c0.733-0.305,1.467-0.608,2.231-0.832c2.133-0.624,4.303-1.078,6.489-1.477c3.507-0.636,7.012-1.276,10.565-1.644
			c-0.357,0-0.717-0.027-1.07,0.005c-1.833,0.174-3.67,0.118-5.505,0.102c-0.986-0.008-1.952,0.101-2.91,0.317
			c-1.095,0.249-2.191,0.467-3.325,0.433c-1.449-0.042-2.826,0.294-4.173,0.808c-1.376,0.526-2.669,1.215-3.941,1.969
			c-0.385-0.181-0.651-0.5-0.966-0.754c-1.54-1.241-3.094-2.467-4.465-3.902c-1.248-1.307-2.674-2.384-4.224-3.31
			c-1.559-0.931-3.066-1.939-4.485-3.078c-0.955-0.767-1.953-1.474-2.974-2.149c-1.879-1.245-3.942-2.127-5.974-3.071
			c-1.185-0.551-2.332-1.168-3.377-1.963c-0.844-0.642-1.689-1.282-2.548-1.903c-1.652-1.194-3.554-1.893-5.455-2.728
			c-0.199,0.178-0.484-0.011-0.818,0.084c0.493,0.295,0.951,0.457,1.413,0.61C5.401,67.265,6.825,68.004,8.125,68.975z"/>
		<path fill="none" d="M120.34,78.939c-0.93,0.301-1.84,0.664-2.806,0.84c-3.169,0.578-6.369,0.954-9.554,1.435
			c-3.75,0.565-7.464,1.315-11.176,2.08c-3.234,0.666-6.468,1.325-9.72,1.893c-2.491,0.433-5.005,0.688-7.502,1.076
			c-2.758,0.428-5.511,0.893-8.248,1.442c-1.76,0.354-3.529,0.637-5.323,0.758c-1.952,0.132-3.91,0.189-5.861,0.35
			c-1.895,0.155-3.77,0.439-5.622,0.837c-5.18,1.106-10.31,2.425-15.443,3.727c-0.688,0.175-1.368,0.378-2.068,0.572
			c-0.343-0.352-0.673-0.714-1.093-0.973c-0.625-0.385-1.237-0.79-1.874-1.153c-0.825-0.471-1.526-1.082-2.182-1.76
			c-0.878-0.909-1.708-1.866-2.697-2.665c-3.317-2.68-6.673-5.308-10.109-7.834c-2.226-1.635-4.513-3.165-7.083-4.202
			c-1.514-0.61-2.87-1.454-4.132-2.467c-1.388-1.115-2.911-2.012-4.495-2.813c-0.398,0.18-0.824,0.172-1.315,0.289
			c0.548,0.367,1.037,0.616,1.557,0.786c1.863,0.605,3.529,1.54,5.068,2.761c1.516,1.204,3.11,2.312,4.764,3.326
			c2.783,1.709,5.506,3.506,8.111,5.477c1.774,1.345,3.451,2.803,5.124,4.269c2.319,2.032,4.758,3.914,7.197,5.795
			c0.982,0.759,2.041,1.414,2.928,2.138c0.258,0.033,0.394-0.012,0.532-0.05c2.003-0.541,4.008-1.084,6.013-1.621
			c3.09-0.828,6.183-1.645,9.314-2.31c2.513-0.532,5.04-0.979,7.591-1.28c1.538-0.183,3.077-0.362,4.616-0.533
			c1.195-0.132,2.396-0.23,3.59-0.377c2.491-0.306,4.992-0.462,7.501-0.559c1.647-0.063,3.3-0.143,4.938-0.315
			c2.071-0.219,4.081-0.759,6.072-1.364c2.008-0.61,4.001-1.273,6.054-1.729c3.043-0.675,6.121-1.167,9.199-1.662
			c3.081-0.495,6.181-0.837,9.28-1.172c3.223-0.35,6.439-0.728,9.617-1.381c0.647-0.134,1.309-0.243,1.942-0.498
			c-0.57-0.66-1.497-0.681-2.146-1.315C120.725,78.812,120.533,78.877,120.34,78.939z"/>
		<path fill="none" d="M22.252,75.109c-0.003-0.006-0.009-0.008-0.013-0.015c-0.013-0.004-0.022-0.013-0.034-0.017
			c0.007,0.011,0.018,0.016,0.026,0.025C22.239,75.104,22.244,75.108,22.252,75.109z"/>
		<path fill="none" d="M21.537,74.629c-0.008-0.009-0.019-0.015-0.028-0.024c-0.008-0.001-0.014-0.006-0.021-0.007
			c0.003,0.008,0.01,0.009,0.013,0.017C21.514,74.616,21.523,74.626,21.537,74.629z"/>
		<path fill="none" d="M11.518,69.404c0.579,0.486,1.236,0.854,1.889,1.224c1.666,0.941,3.44,1.655,5.161,2.481
			c0.858,0.412,1.708,0.84,2.562,1.261c0.078,0.142,0.206,0.204,0.357,0.228c-0.064-0.154-0.188-0.22-0.348-0.238
			c-0.648-0.591-1.415-1.012-2.155-1.465c-2.414-1.473-5.015-2.584-7.544-3.833c-0.099-0.049-0.22-0.054-0.333-0.076
			C11.198,69.17,11.367,69.277,11.518,69.404z"/>
		<path fill="none" d="M10.99,68.859c0-0.006-0.004-0.009-0.004-0.014l-0.026-0.005l0.018,0.009
			C10.983,68.852,10.986,68.857,10.99,68.859z"/>
		<path fill="none" d="M11.106,68.985c-0.002-0.005-0.007-0.009-0.009-0.013c-0.007-0.002-0.01-0.006-0.016-0.009
			c0.001,0.008,0.006,0.01,0.006,0.019C11.094,68.983,11.101,68.984,11.106,68.985z"/>
		<path d="M125.992,79.348c-0.979-0.264-1.713-0.941-2.63-1.479c0.949-0.44,1.924-0.3,2.774-0.75
			c-0.095-0.729-0.805-0.899-1.158-1.341c0.03-0.064,0.04-0.108,0.066-0.137c0.602-0.655,0.541-0.972-0.26-1.37
			c-0.4-0.199-0.797-0.403-1.199-0.609c0.141-0.202,0.376-0.166,0.553-0.257c0.283-0.147,0.465-0.341,0.529-0.561
			c-6.85,1.044-17.329,2.51-17.886,2.325c-0.828-0.276-22.364,4.33-22.364,4.33H67.023l-20.435,2.023l-8.285,2.255l-2.213-2.453
			l-7.187-5.771l-8.577-4.93L7.039,63.793c0,0-1.387-2.002-2.996-4.223c-0.667,0.108-1.328,0.257-1.98,0.46
			c-0.423,0.132-0.838,0.293-1.27,0.257c-0.517,0.447-0.452,0.993-0.396,1.439c0.12,0.339,0.386,0.419,0.538,0.623
			c-0.215,0.113-0.44,0.001-0.613,0.144c-0.507,0.729-0.345,1.342,0.45,1.722c0.365,0.174,0.79,0.219,1.12,0.521
			c-0.193-0.028-0.367-0.073-0.542-0.076c-0.31-0.008-0.569,0.104-0.667,0.427c-0.104,0.343,0.056,0.591,0.333,0.776
			c0.084,0.057,0.178,0.105,0.272,0.139c0.261,0.09,0.444,0.254,0.544,0.492c-0.169,0.242-0.47,0.209-0.653,0.425
			c-0.188,0.283-0.125,0.55,0.131,0.794c0.324,0.312,0.654,0.613,1.014,0.884c0.132,0.1,0.317,0.166,0.381,0.379
			c-0.552,0.124-1.062,0.237-1.534,0.344c-0.268,0.582-0.261,0.73,0.092,1.088c0.2,0.2,0.425,0.381,0.655,0.549
			c0.884,0.643,1.885,1.055,2.904,1.416c1.438,0.511,2.765,1.208,3.91,2.223c1.443,1.276,3.039,2.333,4.696,3.306
			c4.555,2.669,8.763,5.822,12.765,9.252c3.023,2.589,6.166,5.02,9.415,7.319c0.649,0.459,1.396,0.754,2.02,1.301
			c0.339,0.089,0.642,0.028,0.941-0.03c1.519-0.298,3.044-0.565,4.553-0.909c3.058-0.7,6.109-1.433,9.158-2.172
			c3.49-0.846,7.024-1.441,10.585-1.885c1.9-0.236,3.808-0.43,5.709-0.659c2.45-0.294,4.906-0.513,7.374-0.604
			c1.67-0.061,3.339-0.143,5.007-0.25c2.391-0.153,4.721-0.643,7.005-1.363c2.135-0.675,4.259-1.4,6.448-1.892
			c4.219-0.944,8.498-1.538,12.782-2.094c3.173-0.411,6.363-0.678,9.535-1.107c3.012-0.407,5.988-0.976,8.917-1.79
			c0.215-0.06,0.433-0.113,0.62-0.247c0.308-0.219,0.37-0.527,0.306-0.868C126.508,79.589,126.305,79.432,125.992,79.348z
			 M11.814,68.57c0,0.005,0.004,0.007,0.004,0.013c0.047,0.021,0.083,0.052,0.091,0.105c0.006,0.003,0.009,0.007,0.015,0.009
			c0.002,0.004,0.007,0.007,0.01,0.012c0.113,0.022,0.234,0.027,0.333,0.076c2.53,1.249,5.13,2.36,7.544,3.834
			c0.74,0.452,1.507,0.873,2.155,1.464c0.159,0.02,0.283,0.085,0.347,0.238c0.008,0.001,0.014,0.006,0.022,0.007
			c0.008,0.01,0.02,0.017,0.027,0.025c0.281,0.063,0.498,0.221,0.668,0.448c0.012,0.004,0.022,0.013,0.034,0.018
			c0.003,0.007,0.009,0.009,0.013,0.015c0.157,0.006,0.271,0.077,0.336,0.223c0.008,0.001,0.013,0.007,0.021,0.007
			c0.001,0.008,0.009,0.011,0.012,0.019c0.779,0.346,1.439,0.883,2.141,1.347c2.308,1.526,4.634,3.026,6.891,4.628
			c2.04,1.448,3.882,3.098,5.155,5.296c0.07,0.122,0.167,0.229,0.251,0.344c1.005-0.165,1.987-0.392,2.774-1.101
			c0.592-0.533,1.209-1.035,1.874-1.474c1.075-0.711,2.25-1.12,3.542-1.224c0.817-0.066,1.626-0.076,2.442-0.019
			c2.223,0.159,4.442,0.071,6.663-0.093c2.485-0.184,4.976-0.094,7.465-0.099c1.223-0.002,2.445,0.08,3.67,0.015
			c-1.517,0.246-3.041,0.391-4.566,0.535c-3.699,0.35-7.415,0.36-11.122,0.529c-2.943,0.135-5.833,0.614-8.59,1.717
			c-1.197,0.479-2.323,1.091-3.425,1.821c-0.261-0.183-0.559-0.31-0.736-0.6c-0.599-0.322-1.059-0.818-1.541-1.276
			c-0.886-0.843-1.751-1.706-2.604-2.581c-1.432-1.469-3.099-2.636-4.796-3.761c-1.799-1.193-3.607-2.371-5.27-3.755
			c-0.087-0.072-0.183-0.135-0.218-0.251c-0.007-0.002-0.013-0.006-0.02-0.01c-0.003-0.007-0.01-0.009-0.013-0.016
			c-0.151-0.016-0.265-0.089-0.336-0.223c-0.008-0.001-0.013-0.006-0.021-0.006c-0.007-0.01-0.018-0.016-0.026-0.026
			c-0.262-0.09-0.483-0.242-0.668-0.448c-0.013-0.004-0.022-0.013-0.037-0.016c-0.002-0.008-0.01-0.009-0.013-0.017
			c-0.152-0.022-0.279-0.085-0.357-0.228c-0.854-0.421-1.704-0.849-2.562-1.261c-1.721-0.826-3.496-1.54-5.161-2.481
			c-0.654-0.369-1.311-0.738-1.889-1.225c-0.151-0.126-0.321-0.233-0.412-0.418c-0.006-0.001-0.013-0.002-0.019-0.003
			c0-0.008-0.005-0.01-0.006-0.018c-0.008-0.054-0.044-0.084-0.091-0.105c-0.005-0.002-0.007-0.007-0.013-0.009l-0.018-0.01
			L11.814,68.57z M4.092,65.785c1.902,0.835,3.804,1.534,5.456,2.729c0.859,0.62,1.704,1.261,2.548,1.903
			c1.045,0.794,2.192,1.411,3.376,1.963c2.032,0.944,4.095,1.825,5.974,3.07c1.021,0.677,2.02,1.383,2.974,2.149
			c1.419,1.139,2.927,2.146,4.485,3.078c1.55,0.926,2.976,2.004,4.223,3.311c1.372,1.436,2.926,2.66,4.466,3.901
			c0.315,0.253,0.582,0.574,0.967,0.755c1.271-0.755,2.564-1.443,3.941-1.969c1.346-0.515,2.724-0.851,4.173-0.809
			c1.133,0.035,2.23-0.184,3.325-0.432c0.958-0.218,1.923-0.326,2.91-0.318c1.835,0.018,3.672,0.073,5.504-0.101
			c0.354-0.033,0.713-0.005,1.07-0.005c-3.552,0.367-7.058,1.007-10.564,1.643c-2.187,0.398-4.356,0.854-6.489,1.476
			c-0.764,0.225-1.498,0.528-2.231,0.833c-0.795,0.332-1.613,0.559-2.496,0.618c-0.878-0.782-1.761-1.565-2.643-2.352
			c-3.773-3.368-7.531-6.754-11.692-9.652c-1.962-1.367-4.042-2.533-6.139-3.672c-2.869-1.56-5.656-3.249-8.276-5.206
			c-1.3-0.973-2.724-1.711-4.266-2.219c-0.461-0.154-0.92-0.316-1.413-0.611C3.609,65.775,3.894,65.963,4.092,65.785z M3.854,67.488
			c1.75,0.686,3.443,1.472,4.976,2.585c2.94,2.138,6.056,4,9.257,5.716c2.654,1.422,5.103,3.141,7.461,4.997
			c2.774,2.182,5.402,4.54,8.116,6.794c0.941,0.782,1.881,1.565,2.881,2.271c0.27,0.189,0.522,0.394,0.659,0.71
			c1.115,0.377,2.19,0.153,3.257-0.132c1.28-0.344,2.511-0.837,3.766-1.262c1.762-0.596,3.593-0.91,5.422-1.202
			c2.998-0.477,6.002-0.917,9.008-1.338c1.917-0.269,3.844-0.477,5.773-0.649c3.045-0.272,6.089-0.573,9.139-0.816
			c2.154-0.173,4.301-0.418,6.448-0.652c2.275-0.249,4.492-0.774,6.685-1.42c2.5-0.735,5.007-1.457,7.578-1.913
			c2.326-0.413,4.662-0.774,6.99-1.177c2.228-0.387,4.446-0.83,6.68-1.187c2.051-0.33,4.106-0.642,6.183-0.809
			c1.71-0.137,3.383-0.504,5.039-0.955c0.925-0.251,1.859-0.471,2.773-0.749c0.544-0.165,1.037-0.157,1.527,0.164
			c-0.017,0.117-0.137,0.106-0.212,0.129c-3.158,0.97-6.354,1.775-9.632,2.231c-2.401,0.333-4.809,0.64-7.209,0.986
			c-2.479,0.357-4.933,0.877-7.385,1.39c-3.329,0.694-6.641,1.465-9.988,2.075c-1.644,0.3-3.287,0.608-4.943,0.812
			c-2.365,0.292-4.727,0.604-7.076,0.999c-2.11,0.354-4.214,0.748-6.316,1.141c-1.586,0.296-3.188,0.458-4.792,0.583
			c-2.927,0.229-5.856,0.427-8.746,0.982c-2.022,0.392-4.028,0.853-6.024,1.354c-2.569,0.645-5.138,1.292-7.698,1.967
			c-1.398,0.369-2.792,0.756-4.214,1.022c-0.318,0.061-0.643,0.089-0.965,0.133c-0.61-0.587-1.296-1.023-2.032-1.383
			c-0.279-0.137-0.502-0.351-0.726-0.558c-2.113-1.954-4.372-3.735-6.605-5.546c-3.217-2.606-6.508-5.119-9.867-7.542
			c-1.742-1.257-3.55-2.386-5.562-3.174c-1.548-0.608-2.957-1.486-4.255-2.512c-1.594-1.259-3.354-2.243-5.091-3.27
			c-0.368-0.216-0.711-0.464-1.038-0.743C3.355,67.3,3.596,67.388,3.854,67.488z M121.932,80.291
			c-3.179,0.653-6.396,1.032-9.618,1.382c-3.1,0.334-6.198,0.676-9.28,1.171c-3.077,0.496-6.156,0.987-9.199,1.662
			c-2.052,0.456-4.046,1.119-6.054,1.729c-1.991,0.605-4.001,1.146-6.072,1.364c-1.639,0.173-3.291,0.252-4.939,0.316
			c-2.508,0.096-5.009,0.252-7.5,0.558c-1.194,0.146-2.395,0.244-3.59,0.377c-1.539,0.171-3.078,0.351-4.616,0.533
			c-2.551,0.302-5.078,0.749-7.59,1.281c-3.131,0.664-6.224,1.481-9.314,2.309c-2.005,0.537-4.009,1.081-6.013,1.622
			c-0.139,0.037-0.274,0.081-0.532,0.049c-0.887-0.724-1.945-1.38-2.928-2.137c-2.439-1.882-4.878-3.764-7.197-5.796
			c-1.672-1.465-3.35-2.924-5.124-4.268c-2.605-1.972-5.328-3.769-8.11-5.477c-1.654-1.014-3.249-2.123-4.765-3.326
			c-1.539-1.222-3.206-2.155-5.068-2.762c-0.52-0.169-1.01-0.419-1.557-0.786c0.491-0.118,0.917-0.109,1.315-0.289
			c1.585,0.802,3.107,1.698,4.496,2.814c1.262,1.013,2.618,1.855,4.131,2.466c2.571,1.038,4.858,2.567,7.083,4.203
			c3.436,2.525,6.792,5.153,10.108,7.833c0.99,0.8,1.818,1.757,2.698,2.666c0.656,0.677,1.356,1.289,2.182,1.759
			c0.637,0.364,1.25,0.769,1.874,1.154c0.419,0.258,0.75,0.62,1.093,0.972c0.7-0.194,1.38-0.397,2.068-0.572
			c5.134-1.301,10.263-2.621,15.443-3.727c1.853-0.397,3.728-0.682,5.622-0.837c1.952-0.16,3.909-0.219,5.861-0.35
			c1.794-0.121,3.564-0.404,5.323-0.758c2.738-0.55,5.49-1.015,8.249-1.442c2.495-0.387,5.011-0.644,7.5-1.076
			c3.253-0.566,6.486-1.227,9.721-1.893c3.712-0.765,7.426-1.514,11.176-2.08c3.185-0.48,6.385-0.856,9.554-1.435
			c0.966-0.176,1.876-0.539,2.807-0.84c0.192-0.062,0.384-0.128,0.558-0.186c0.649,0.636,1.576,0.655,2.146,1.315
			C123.239,80.048,122.578,80.157,121.932,80.291z"/>
	</g>
	<g>
		<path fill="none" d="M22.839,85.55c1.663,1.384,3.471,2.562,5.271,3.754c1.697,1.125,3.365,2.292,4.796,3.761
			c0.853,0.875,1.719,1.737,2.604,2.581c0.482,0.459,0.941,0.953,1.54,1.277c0.178,0.289,0.475,0.416,0.737,0.6
			c1.102-0.731,2.229-1.344,3.425-1.823c2.757-1.101,5.647-1.58,8.59-1.716c3.708-0.169,7.423-0.181,11.123-0.529
			c1.525-0.145,3.05-0.289,4.565-0.534c-1.224,0.065-2.447-0.019-3.67-0.017c-2.489,0.006-4.979-0.083-7.465,0.1
			c-2.219,0.165-4.44,0.252-6.662,0.093c-0.817-0.059-1.626-0.047-2.443,0.019c-1.292,0.104-2.466,0.512-3.542,1.223
			c-0.666,0.439-1.283,0.94-1.874,1.475c-0.788,0.71-1.77,0.937-2.775,1.101c-0.084-0.114-0.181-0.221-0.251-0.343
			c-1.273-2.198-3.115-3.849-5.155-5.296c-2.257-1.602-4.583-3.102-6.891-4.63c-0.702-0.464-1.362-1.001-2.141-1.345
			C22.657,85.414,22.752,85.477,22.839,85.55z"/>
		<path fill="none" d="M22.622,85.299c-0.002-0.009-0.01-0.012-0.012-0.021c-0.008,0-0.013-0.005-0.021-0.006
			c0.003,0.006,0.01,0.008,0.012,0.016C22.608,85.291,22.614,85.297,22.622,85.299z"/>
		<path fill="none" d="M22.589,85.272c-0.065-0.145-0.18-0.218-0.337-0.223C22.324,85.185,22.438,85.257,22.589,85.272z"/>
		<path fill="none" d="M21.537,84.568c0.185,0.208,0.406,0.359,0.669,0.449C22.034,84.791,21.818,84.632,21.537,84.568z"/>
		<path fill="none" d="M8.396,81.77c1.299,1.025,2.707,1.904,4.255,2.512c2.011,0.79,3.82,1.919,5.562,3.175
			c3.358,2.422,6.649,4.936,9.866,7.542c2.234,1.812,4.492,3.593,6.605,5.547c0.223,0.207,0.447,0.421,0.726,0.558
			c0.736,0.358,1.421,0.794,2.032,1.381c0.322-0.043,0.646-0.07,0.965-0.131c1.422-0.269,2.815-0.654,4.214-1.022
			c2.561-0.676,5.129-1.322,7.698-1.968c1.997-0.502,4.003-0.962,6.024-1.353c2.89-0.556,5.819-0.755,8.746-0.984
			c1.605-0.125,3.207-0.286,4.793-0.581c2.103-0.395,4.206-0.788,6.315-1.142c2.35-0.394,4.711-0.706,7.077-0.998
			c1.655-0.205,3.3-0.513,4.943-0.812c3.347-0.609,6.658-1.38,9.988-2.076c2.453-0.512,4.904-1.03,7.385-1.389
			c2.401-0.348,4.808-0.652,7.209-0.987c3.276-0.454,6.474-1.262,9.632-2.229c0.075-0.022,0.194-0.012,0.213-0.13
			c-0.491-0.321-0.984-0.329-1.529-0.164c-0.914,0.279-1.848,0.498-2.772,0.749c-1.655,0.45-3.328,0.818-5.04,0.956
			c-2.075,0.166-4.131,0.479-6.183,0.807c-2.232,0.357-4.451,0.801-6.679,1.187c-2.329,0.404-4.663,0.765-6.991,1.179
			c-2.571,0.456-5.077,1.178-7.577,1.913c-2.193,0.645-4.409,1.17-6.685,1.419c-2.147,0.235-4.294,0.48-6.448,0.653
			c-3.049,0.243-6.094,0.544-9.139,0.816c-1.929,0.172-3.856,0.38-5.773,0.648c-3.006,0.421-6.01,0.862-9.008,1.339
			c-1.829,0.291-3.66,0.604-5.422,1.201c-1.254,0.425-2.486,0.918-3.766,1.262c-1.066,0.286-2.142,0.51-3.257,0.132
			c-0.137-0.317-0.389-0.52-0.659-0.709c-1-0.707-1.94-1.49-2.88-2.272c-2.715-2.253-5.343-4.611-8.117-6.795
			c-2.358-1.855-4.806-3.574-7.461-4.997c-3.201-1.714-6.316-3.577-9.257-5.715c-1.532-1.112-3.226-1.898-4.975-2.585
			c-0.259-0.101-0.5-0.188-0.759,0.054c0.327,0.28,0.671,0.527,1.038,0.743C5.043,79.528,6.803,80.512,8.396,81.77z"/>
		<path fill="none" d="M8.125,78.915c2.62,1.956,5.407,3.647,8.277,5.207c2.096,1.139,4.176,2.304,6.138,3.67
			c4.162,2.898,7.919,6.285,11.692,9.653c0.881,0.787,1.764,1.57,2.643,2.352c0.883-0.06,1.701-0.287,2.497-0.617
			c0.733-0.307,1.467-0.609,2.231-0.833c2.133-0.624,4.303-1.077,6.489-1.476c3.507-0.637,7.012-1.276,10.565-1.645
			c-0.357,0-0.717-0.027-1.07,0.006c-1.833,0.174-3.67,0.117-5.505,0.102c-0.986-0.009-1.952,0.101-2.91,0.316
			c-1.095,0.248-2.191,0.468-3.325,0.434c-1.449-0.042-2.826,0.293-4.173,0.808c-1.376,0.526-2.669,1.215-3.941,1.968
			c-0.385-0.18-0.651-0.5-0.966-0.753c-1.54-1.242-3.094-2.468-4.465-3.902c-1.248-1.307-2.674-2.384-4.224-3.31
			c-1.559-0.932-3.066-1.94-4.485-3.079c-0.955-0.766-1.953-1.474-2.974-2.149c-1.879-1.244-3.942-2.126-5.974-3.071
			c-1.185-0.551-2.332-1.167-3.377-1.963c-0.844-0.642-1.689-1.281-2.548-1.902c-1.652-1.195-3.554-1.895-5.455-2.729
			c-0.199,0.178-0.484-0.01-0.818,0.084c0.493,0.296,0.951,0.458,1.413,0.61C5.401,77.205,6.825,77.943,8.125,78.915z"/>
		<path fill="none" d="M120.34,88.879c-0.93,0.301-1.84,0.665-2.806,0.841c-3.169,0.577-6.369,0.954-9.554,1.434
			c-3.75,0.566-7.464,1.316-11.176,2.081c-3.234,0.665-6.468,1.325-9.72,1.891c-2.491,0.435-5.005,0.689-7.502,1.077
			c-2.758,0.429-5.511,0.894-8.248,1.443c-1.76,0.353-3.529,0.636-5.323,0.758c-1.952,0.131-3.91,0.189-5.861,0.349
			c-1.895,0.156-3.77,0.44-5.622,0.837c-5.18,1.106-10.31,2.426-15.443,3.728c-0.688,0.175-1.368,0.377-2.068,0.572
			c-0.343-0.353-0.673-0.715-1.093-0.973c-0.625-0.385-1.237-0.79-1.874-1.154c-0.825-0.47-1.526-1.081-2.182-1.759
			c-0.878-0.909-1.708-1.867-2.697-2.666c-3.317-2.679-6.673-5.308-10.109-7.834c-2.226-1.635-4.513-3.164-7.083-4.201
			c-1.514-0.611-2.87-1.454-4.132-2.467c-1.388-1.117-2.911-2.014-4.495-2.814c-0.398,0.181-0.824,0.172-1.315,0.289
			c0.548,0.368,1.037,0.617,1.557,0.786c1.863,0.606,3.529,1.541,5.068,2.761c1.516,1.205,3.11,2.312,4.764,3.327
			c2.783,1.708,5.506,3.505,8.111,5.477c1.774,1.345,3.451,2.802,5.124,4.269c2.319,2.031,4.758,3.913,7.197,5.794
			c0.982,0.759,2.041,1.415,2.928,2.138c0.258,0.032,0.394-0.011,0.532-0.049c2.003-0.542,4.008-1.084,6.013-1.621
			c3.09-0.829,6.183-1.646,9.314-2.31c2.513-0.533,5.04-0.979,7.591-1.281c1.538-0.182,3.077-0.362,4.616-0.532
			c1.195-0.134,2.396-0.231,3.59-0.378c2.491-0.306,4.992-0.461,7.501-0.558c1.647-0.063,3.3-0.144,4.938-0.315
			c2.071-0.22,4.081-0.759,6.072-1.365c2.008-0.609,4.001-1.274,6.054-1.729c3.043-0.676,6.121-1.167,9.199-1.662
			c3.081-0.496,6.181-0.837,9.28-1.173c3.223-0.35,6.439-0.727,9.617-1.38c0.647-0.134,1.309-0.244,1.942-0.498
			c-0.57-0.66-1.497-0.682-2.146-1.316C120.725,88.752,120.533,88.816,120.34,88.879z"/>
		<path fill="none" d="M22.252,85.05c-0.003-0.007-0.009-0.009-0.013-0.015c-0.013-0.005-0.022-0.013-0.034-0.018
			c0.007,0.011,0.018,0.017,0.026,0.025C22.239,85.043,22.244,85.049,22.252,85.05z"/>
		<path fill="none" d="M21.537,84.568c-0.008-0.008-0.019-0.015-0.028-0.024c-0.008-0.001-0.014-0.005-0.021-0.006
			c0.003,0.007,0.01,0.009,0.013,0.016C21.514,84.556,21.523,84.565,21.537,84.568z"/>
		<path fill="none" d="M11.518,79.344c0.579,0.486,1.236,0.855,1.889,1.224c1.666,0.941,3.44,1.656,5.161,2.482
			c0.858,0.412,1.708,0.84,2.562,1.261c0.078,0.142,0.206,0.204,0.357,0.228c-0.064-0.154-0.188-0.221-0.348-0.238
			c-0.648-0.592-1.415-1.012-2.155-1.465c-2.414-1.474-5.015-2.584-7.544-3.833c-0.099-0.049-0.22-0.055-0.333-0.076
			C11.198,79.109,11.367,79.217,11.518,79.344z"/>
		<path fill="none" d="M10.99,78.799c0-0.006-0.004-0.008-0.004-0.013L10.96,78.78l0.018,0.01
			C10.983,78.792,10.986,78.796,10.99,78.799z"/>
		<path fill="none" d="M11.106,78.926c-0.002-0.007-0.007-0.009-0.009-0.013c-0.007-0.002-0.01-0.007-0.016-0.009
			c0.001,0.008,0.006,0.01,0.006,0.017C11.094,78.922,11.101,78.924,11.106,78.926z"/>
		<path d="M125.992,89.287c-0.979-0.263-1.713-0.94-2.63-1.478c0.949-0.441,1.924-0.3,2.774-0.75
			c-0.095-0.73-0.805-0.899-1.158-1.342c0.03-0.065,0.04-0.107,0.066-0.137c0.602-0.654,0.541-0.971-0.26-1.369
			c-0.4-0.199-0.797-0.405-1.199-0.609c0.141-0.202,0.376-0.166,0.553-0.258c0.283-0.146,0.465-0.341,0.529-0.56
			c-6.85,1.043-17.329,2.539-17.886,2.354c-0.828-0.275-22.364,4.361-22.364,4.361H67.023l-20.435,1.994l-8.285,2.24l-2.213-2.462
			l-7.187-5.774l-8.577-4.933l-13.288-6.83c0,0-1.387-2.003-2.996-4.225c-0.667,0.107-1.328,0.257-1.98,0.459
			c-0.423,0.133-0.838,0.293-1.27,0.258c-0.517,0.446-0.452,0.993-0.396,1.44c0.12,0.338,0.386,0.418,0.538,0.622
			c-0.215,0.113-0.44,0.001-0.613,0.144c-0.507,0.728-0.345,1.341,0.45,1.721c0.365,0.175,0.79,0.219,1.12,0.521
			c-0.193-0.029-0.367-0.073-0.542-0.077c-0.31-0.007-0.569,0.105-0.667,0.428c-0.104,0.343,0.056,0.591,0.333,0.776
			c0.084,0.056,0.178,0.104,0.272,0.138c0.261,0.091,0.444,0.254,0.544,0.492c-0.169,0.243-0.47,0.21-0.653,0.425
			c-0.188,0.284-0.125,0.55,0.131,0.795c0.324,0.311,0.654,0.612,1.014,0.883c0.132,0.1,0.317,0.167,0.381,0.38
			c-0.552,0.123-1.062,0.237-1.534,0.343c-0.268,0.583-0.261,0.731,0.092,1.087c0.2,0.201,0.425,0.383,0.655,0.55
			c0.884,0.643,1.885,1.056,2.904,1.417c1.438,0.511,2.765,1.207,3.91,2.223c1.443,1.276,3.039,2.332,4.696,3.305
			c4.555,2.67,8.763,5.822,12.765,9.253c3.023,2.589,6.166,5.019,9.415,7.317c0.649,0.46,1.396,0.756,2.02,1.303
			c0.339,0.089,0.642,0.028,0.941-0.031c1.519-0.298,3.044-0.564,4.553-0.91c3.058-0.699,6.109-1.432,9.158-2.17
			c3.49-0.846,7.024-1.442,10.585-1.885c1.9-0.236,3.808-0.431,5.709-0.659c2.45-0.295,4.906-0.513,7.374-0.604
			c1.67-0.061,3.339-0.144,5.007-0.25c2.391-0.155,4.721-0.644,7.005-1.363c2.135-0.676,4.259-1.401,6.448-1.893
			c4.219-0.945,8.498-1.537,12.782-2.093c3.173-0.411,6.363-0.679,9.535-1.107c3.012-0.408,5.988-0.976,8.917-1.79
			c0.215-0.061,0.433-0.113,0.62-0.248c0.308-0.219,0.37-0.527,0.306-0.868C126.508,89.528,126.305,89.372,125.992,89.287z
			 M11.814,78.51c0,0.006,0.004,0.008,0.004,0.013c0.047,0.021,0.083,0.053,0.091,0.106c0.006,0.002,0.009,0.006,0.015,0.009
			c0.002,0.004,0.007,0.006,0.01,0.012c0.113,0.021,0.234,0.027,0.333,0.076c2.53,1.249,5.13,2.36,7.544,3.833
			c0.74,0.453,1.507,0.873,2.155,1.465c0.159,0.018,0.283,0.084,0.347,0.238c0.008,0.001,0.014,0.005,0.022,0.006
			c0.008,0.01,0.02,0.018,0.027,0.025c0.281,0.063,0.498,0.222,0.668,0.448c0.012,0.005,0.022,0.013,0.034,0.019
			c0.003,0.006,0.009,0.008,0.013,0.015c0.157,0.005,0.271,0.077,0.336,0.222c0.008,0.002,0.013,0.007,0.021,0.007
			c0.001,0.009,0.009,0.012,0.012,0.02c0.779,0.345,1.439,0.882,2.141,1.345c2.308,1.528,4.634,3.028,6.891,4.63
			c2.04,1.448,3.882,3.098,5.155,5.296c0.07,0.121,0.167,0.229,0.251,0.343c1.005-0.164,1.987-0.391,2.774-1.101
			c0.592-0.534,1.209-1.035,1.874-1.474c1.075-0.711,2.25-1.119,3.542-1.224c0.817-0.065,1.626-0.076,2.442-0.018
			c2.223,0.157,4.442,0.07,6.663-0.094c2.485-0.183,4.976-0.093,7.465-0.099c1.223-0.002,2.445,0.081,3.67,0.016
			c-1.517,0.245-3.041,0.39-4.566,0.534c-3.699,0.35-7.415,0.36-11.122,0.53c-2.943,0.135-5.833,0.614-8.59,1.716
			c-1.197,0.479-2.323,1.092-3.425,1.822c-0.261-0.184-0.559-0.311-0.736-0.6c-0.599-0.323-1.059-0.818-1.541-1.276
			c-0.886-0.845-1.751-1.707-2.604-2.582c-1.432-1.468-3.099-2.636-4.796-3.761c-1.799-1.192-3.607-2.37-5.27-3.754
			c-0.087-0.072-0.183-0.135-0.218-0.251c-0.007-0.003-0.013-0.007-0.02-0.01c-0.003-0.008-0.01-0.01-0.013-0.017
			c-0.151-0.016-0.265-0.089-0.336-0.222c-0.008-0.001-0.013-0.007-0.021-0.007c-0.007-0.011-0.018-0.016-0.026-0.026
			c-0.262-0.089-0.483-0.241-0.668-0.448c-0.013-0.003-0.022-0.014-0.037-0.016c-0.002-0.008-0.01-0.009-0.013-0.016
			c-0.152-0.022-0.279-0.085-0.357-0.228c-0.854-0.421-1.704-0.849-2.562-1.261c-1.721-0.826-3.496-1.541-5.161-2.482
			c-0.654-0.369-1.311-0.737-1.889-1.224c-0.151-0.126-0.321-0.234-0.412-0.418c-0.006-0.002-0.013-0.003-0.019-0.004
			c0-0.007-0.005-0.009-0.006-0.017c-0.008-0.054-0.044-0.085-0.091-0.106c-0.005-0.002-0.007-0.006-0.013-0.008l-0.018-0.011
			L11.814,78.51z M4.092,75.726c1.902,0.834,3.804,1.533,5.456,2.729c0.859,0.62,1.704,1.261,2.548,1.902
			c1.045,0.795,2.192,1.411,3.376,1.962c2.032,0.945,4.095,1.826,5.974,3.071c1.021,0.676,2.02,1.384,2.974,2.149
			c1.419,1.139,2.927,2.147,4.485,3.078c1.55,0.927,2.976,2.004,4.223,3.31c1.372,1.437,2.926,2.661,4.466,3.903
			c0.315,0.253,0.582,0.574,0.967,0.754c1.271-0.754,2.564-1.442,3.941-1.968c1.346-0.516,2.724-0.851,4.173-0.809
			c1.133,0.035,2.23-0.185,3.325-0.433c0.958-0.217,1.923-0.326,2.91-0.317c1.835,0.017,3.672,0.073,5.504-0.101
			c0.354-0.034,0.713-0.006,1.07-0.006c-3.552,0.368-7.058,1.008-10.564,1.644c-2.187,0.398-4.356,0.853-6.489,1.476
			c-0.764,0.225-1.498,0.527-2.231,0.833c-0.795,0.331-1.613,0.558-2.496,0.617c-0.878-0.781-1.761-1.564-2.643-2.351
			c-3.773-3.369-7.531-6.756-11.692-9.653c-1.962-1.366-4.042-2.532-6.139-3.672c-2.869-1.559-5.656-3.249-8.276-5.205
			c-1.3-0.973-2.724-1.711-4.266-2.221c-0.461-0.152-0.92-0.314-1.413-0.61C3.609,75.716,3.894,75.903,4.092,75.726z M3.854,77.428
			c1.75,0.687,3.443,1.473,4.976,2.586c2.94,2.138,6.056,4,9.257,5.715c2.654,1.423,5.103,3.141,7.461,4.997
			c2.774,2.183,5.402,4.541,8.116,6.795c0.941,0.782,1.881,1.564,2.881,2.271c0.27,0.189,0.522,0.392,0.659,0.71
			c1.115,0.377,2.19,0.153,3.257-0.132c1.28-0.344,2.511-0.837,3.766-1.263c1.762-0.597,3.593-0.91,5.422-1.201
			c2.998-0.477,6.002-0.918,9.008-1.338c1.917-0.27,3.844-0.477,5.773-0.649c3.045-0.272,6.089-0.573,9.139-0.817
			c2.154-0.172,4.301-0.417,6.448-0.652c2.275-0.249,4.492-0.774,6.685-1.419c2.5-0.735,5.007-1.457,7.578-1.914
			c2.326-0.413,4.662-0.774,6.99-1.178c2.228-0.386,4.446-0.829,6.68-1.187c2.051-0.328,4.106-0.64,6.183-0.807
			c1.71-0.137,3.383-0.506,5.039-0.956c0.925-0.25,1.859-0.471,2.773-0.749c0.544-0.164,1.037-0.156,1.527,0.164
			c-0.017,0.118-0.137,0.107-0.212,0.13c-3.158,0.969-6.354,1.775-9.632,2.23c-2.401,0.334-4.809,0.639-7.209,0.986
			c-2.479,0.358-4.933,0.877-7.385,1.39c-3.329,0.695-6.641,1.466-9.988,2.074c-1.644,0.301-3.287,0.609-4.943,0.812
			c-2.365,0.293-4.727,0.605-7.076,0.999c-2.11,0.354-4.214,0.747-6.316,1.142c-1.586,0.295-3.188,0.457-4.792,0.582
			c-2.927,0.229-5.856,0.428-8.746,0.983c-2.022,0.391-4.028,0.852-6.024,1.353c-2.569,0.646-5.138,1.293-7.698,1.968
			c-1.398,0.368-2.792,0.755-4.214,1.022c-0.318,0.06-0.643,0.089-0.965,0.131c-0.61-0.586-1.296-1.022-2.032-1.381
			c-0.279-0.137-0.502-0.352-0.726-0.558c-2.113-1.954-4.372-3.735-6.605-5.546c-3.217-2.607-6.508-5.12-9.867-7.543
			c-1.742-1.256-3.55-2.386-5.562-3.174c-1.548-0.607-2.957-1.486-4.255-2.512c-1.594-1.258-3.354-2.242-5.091-3.269
			c-0.368-0.217-0.711-0.465-1.038-0.744C3.355,77.24,3.596,77.328,3.854,77.428z M121.932,90.231
			c-3.179,0.653-6.396,1.031-9.618,1.38c-3.1,0.336-6.198,0.677-9.28,1.173c-3.077,0.496-6.156,0.987-9.199,1.662
			c-2.052,0.455-4.046,1.118-6.054,1.729c-1.991,0.606-4.001,1.146-6.072,1.365c-1.639,0.172-3.291,0.252-4.939,0.315
			c-2.508,0.096-5.009,0.253-7.5,0.558c-1.194,0.146-2.395,0.245-3.59,0.378c-1.539,0.17-3.078,0.351-4.616,0.532
			c-2.551,0.302-5.078,0.749-7.59,1.282c-3.131,0.664-6.224,1.479-9.314,2.309c-2.005,0.537-4.009,1.079-6.013,1.621
			c-0.139,0.037-0.274,0.082-0.532,0.049c-0.887-0.724-1.945-1.379-2.928-2.138c-2.439-1.88-4.878-3.763-7.197-5.795
			c-1.672-1.465-3.35-2.924-5.124-4.267c-2.605-1.973-5.328-3.77-8.11-5.477c-1.654-1.016-3.249-2.123-4.765-3.327
			c-1.539-1.221-3.206-2.155-5.068-2.762c-0.52-0.169-1.01-0.418-1.557-0.786c0.491-0.117,0.917-0.108,1.315-0.289
			c1.585,0.802,3.107,1.698,4.496,2.814c1.262,1.014,2.618,1.856,4.131,2.467c2.571,1.037,4.858,2.566,7.083,4.201
			c3.436,2.526,6.792,5.155,10.108,7.834c0.99,0.799,1.818,1.758,2.698,2.667c0.656,0.677,1.356,1.288,2.182,1.758
			c0.637,0.363,1.25,0.77,1.874,1.155c0.419,0.257,0.75,0.619,1.093,0.972c0.7-0.194,1.38-0.397,2.068-0.572
			c5.134-1.301,10.263-2.621,15.443-3.728c1.853-0.396,3.728-0.681,5.622-0.837c1.952-0.159,3.909-0.218,5.861-0.35
			c1.794-0.12,3.564-0.404,5.323-0.757c2.738-0.55,5.49-1.015,8.249-1.443c2.495-0.388,5.011-0.643,7.5-1.076
			c3.253-0.566,6.486-1.227,9.721-1.892c3.712-0.765,7.426-1.514,11.176-2.081c3.185-0.479,6.385-0.855,9.554-1.435
			c0.966-0.176,1.876-0.539,2.807-0.84c0.192-0.062,0.384-0.127,0.558-0.186c0.649,0.636,1.576,0.656,2.146,1.316
			C123.239,89.987,122.578,90.098,121.932,90.231z"/>
	</g>
</g>
</svg>
