<?xml version="1.0" encoding="utf-8"?>
<!-- Generator: Adobe Illustrator 16.0.4, SVG Export Plug-In . SVG Version: 6.00 Build 0)  -->
<!DOCTYPE svg PUBLIC "-//W3C//DTD SVG 1.1//EN" "http://www.w3.org/Graphics/SVG/1.1/DTD/svg11.dtd">
<svg version="1.1" id="Layer_4813" xmlns="http://www.w3.org/2000/svg" xmlns:xlink="http://www.w3.org/1999/xlink" x="0px" y="0px"
	 width="128px" height="128px" viewBox="0 0 128 128" enable-background="new 0 0 128 128" xml:space="preserve">
<g>
	<path fill-rule="evenodd" clip-rule="evenodd" d="M35.224,108.164c3.227-6.586,5.911-13.348,7.15-20.634
		c0.948-5.575,1.386-11.167,0.943-16.805c-0.134-1.698,0.283-2.899,1.541-4.153c13.96-13.911,27.876-27.867,41.722-41.891
		c2.019-2.044,4.133-1.937,6.476-1.216c4.51,1.389,7.192,4.869,9.535,8.637c3.706,5.962,3.665,5.988-1.188,10.844
		c-21.251,21.271-42.502,42.544-63.759,63.808c-0.63,0.633-1.332,1.191-2,1.784C35.503,108.415,35.364,108.289,35.224,108.164z"/>
	<path fill-rule="evenodd" clip-rule="evenodd" d="M42.326,76.756c-0.158,12.193-3.66,23.333-9.929,33.816
		c-3.377,5.649-8.495,9.474-12.738,14.201c-0.94,1.048-1.353,0.786-1.689-0.519c-1.929-7.5-6.758-12.27-14.128-14.347
		c-1.981-0.56-1.11-1.128-0.405-1.872c1.316-1.387,2.686-2.721,4.036-4.071c10.805-10.803,21.608-21.606,32.424-32.396
		c0.532-0.528,0.99-1.503,1.838-1.243c0.935,0.285,0.542,1.325,0.572,2.046C42.368,73.83,42.326,75.293,42.326,76.756z"/>
	<path fill-rule="evenodd" clip-rule="evenodd" d="M113.258,0.039c1.746,0.128,3.328,0.649,4.808,1.512
		c3.589,2.092,6.462,4.954,8.353,8.61c2.236,4.327,1.927,6.512-1.139,8.975c-1.83,1.471-3.41,3.262-5.029,4.979
		c-1.014,1.074-1.592,0.876-2.172-0.382c-1.366-2.969-2.959-5.8-5.092-8.311c-2.465-2.9-5.253-5.238-9.22-5.657
		c-1.13-0.12-1.479-0.621-0.663-1.462c2.504-2.583,5.06-5.116,7.62-7.642C111.428-0.033,112.401,0.129,113.258,0.039z"/>
	<path fill-rule="evenodd" clip-rule="evenodd" d="M3.495,110.936c0.916,0.004,1.797,0.201,2.605,0.615
		c4.433,2.255,7.969,5.434,10.05,10.029c0.409,0.904,0.666,1.93,0.744,2.92c0.196,2.503-1.294,3.792-3.756,3.389
		c-5.004-0.82-11.983-7.697-12.9-12.71C-0.261,112.458,0.938,110.896,3.495,110.936z"/>
	<path fill-rule="evenodd" clip-rule="evenodd" d="M102.77,10.804c2.342,0.015,4.373,0.864,6.223,2.253
		c4.104,3.083,6.47,7.402,8.491,11.951c0.493,1.109-2.118,4.867-3.266,4.768c-0.781-0.068-0.935-0.843-1.2-1.457
		c-1.292-3.007-2.909-5.824-4.938-8.402c-2.059-2.619-4.543-4.626-7.717-5.78c-0.606-0.221-1.821,0.072-1.712-1.099
		c0.076-0.801,0.945-1.213,1.528-1.721C100.924,10.668,101.897,10.951,102.77,10.804z"/>
	<path fill-rule="evenodd" clip-rule="evenodd" d="M98.256,14.931c4.029,0.345,6.711,2.922,9.109,5.775
		c2.322,2.759,3.849,6.044,5.43,9.267c0.97,1.978-0.976,2.644-1.92,3.297c-1.159,0.802-1.268-0.88-1.582-1.528
		c-1.729-3.557-3.726-6.91-6.524-9.742c-1.851-1.872-3.987-3.245-6.544-3.958c-0.576-0.161-1.509,0.065-1.608-0.805
		c-0.082-0.721,0.684-1.095,1.138-1.573C96.442,14.939,97.322,14.869,98.256,14.931z"/>
	<path fill-rule="evenodd" clip-rule="evenodd" d="M94.588,18.976c3.233,0.198,5.656,1.978,7.791,4.175
		c2.848,2.927,4.74,6.485,6.488,10.141c0.61,1.276,0.245,2.049-0.629,2.944c-1.079,1.104-1.844,1.07-2.492-0.366
		c-1.531-3.391-3.503-6.486-5.993-9.27c-2.012-2.246-4.479-3.66-7.301-4.578c-0.651-0.211-1.834,0.332-1.862-0.776
		c-0.022-0.908,0.929-1.465,1.702-1.926C92.996,18.899,93.788,18.904,94.588,18.976z"/>
	<path fill-rule="evenodd" clip-rule="evenodd" d="M35.644,108.539c-0.194,0.189-0.534,0.559-0.559,0.537
		c-0.441-0.355-0.212-0.651,0.139-0.912C35.364,108.289,35.503,108.415,35.644,108.539z"/>
</g>
</svg>
