<?xml version="1.0" encoding="utf-8"?>
<!-- Generator: Adobe Illustrator 16.0.4, SVG Export Plug-In . SVG Version: 6.00 Build 0)  -->
<!DOCTYPE svg PUBLIC "-//W3C//DTD SVG 1.1//EN" "http://www.w3.org/Graphics/SVG/1.1/DTD/svg11.dtd">
<svg version="1.1" id="Layer_4814" xmlns="http://www.w3.org/2000/svg" xmlns:xlink="http://www.w3.org/1999/xlink" x="0px" y="0px"
	 width="128px" height="128px" viewBox="0 0 128 128" enable-background="new 0 0 128 128" xml:space="preserve">
<path d="M96.918,9.781c-0.725-2.19-2.057-3.841-3.939-5.1c-2.413-1.612-5.096-2.595-7.903-3.201
	c-9.532-2.059-19.019-1.693-28.451,0.667c-3.108,0.778-6.124,1.807-8.826,3.585c-3.881,2.555-6.073,6.441-6.021,11.194
	c0.015,1.396,0.002,3.572,0.002,4.572c-0.003,0-0.006,0-0.009,0c0,2,0.004,3.606-0.004,5.601c-0.001,0.323,0.061,0.545-0.233,0.728
	c-0.43,0.266-0.74-0.241-1.027-0.479c-3.122-2.587-5.253-5.83-5.987-9.877c-0.118-0.65-0.217-1.344-0.459-1.952
	c-0.301-0.755-0.976-1.09-1.774-1.042c-0.882,0.053-1.498,0.515-1.755,1.375c-0.175,0.585-0.097,1.188-0.008,1.779
	c0.812,5.456,1.623,10.912,2.453,16.365c3.523,23.126,6.975,46.263,11.071,69.297c0.919,5.167,1.833,10.34,3.155,15.427
	c0.319,1.228,0.697,2.396,1.742,3.275c3.705,3.117,7.884,5.139,12.727,5.709c6.535,0.77,12.285-1.324,17.773-4.653
	c2.061-1.249,3.058-2.793,3.395-5.19l3.831-24.824c2.445-15.694,4.885-31.389,7.331-47.083c1.188-7.617,2.171-15.275,3.652-22.836
	C98.556,18.519,98.37,14.173,96.918,9.781z M37.033,34.396c-0.197-1.39-0.392-2.78-0.587-4.17c-0.035-0.25-0.052-0.596,0.086-0.758
	c0.215-0.251,0.475,0.014,0.66,0.175c6.37,5.553,14.104,7.194,22.208,7.587c7.946,0.386,15.812-0.297,23.495-2.502
	c2.759-0.792,5.394-1.888,7.82-3.449c0.432-0.277,0.924-0.877,1.386-0.591c0.458,0.283,0.154,0.983,0.075,1.491
	c-0.286,1.857-0.58,3.714-0.872,5.571l-1.217-1.11l-0.764,2.558l-3.728-1.28l-3.116,2.461l-3.855-1.604l-3.317,2.278l-3.719-1.814
	l-3.491,2.099l-3.581-1.998l-3.632,1.931l-3.382-2.16l-3.726,1.723l-3.127-2.38l-3.91,1.379l-2.71-2.679l-4.098,0.868l-2.09-3.013
	l-0.717,0.034c-0.013-0.09-0.025-0.179-0.038-0.269 M74.667,111.697l-3.37,2.188l-3.608-1.91l-3.525,2.016l-3.474-2.081
	l-0.343,0.177l-3.259,1.666l-3.235-2.26l-3.767,1.571l-0.195-0.169c-0.286-1.343-0.562-2.688-0.824-4.036l1.174-0.418l3.161,2.435
	l3.751-1.754l3.387,2.188l3.636-1.957l3.583,2.021l3.494-2.126l3.726,1.84l3.326-2.311l1.775,0.749
	c-0.156,0.997-0.313,1.996-0.47,2.993l-1.199,0.893L74.667,111.697z M77.709,114.241l-2.851,1.98l-2.947-1.456l2.871-1.862
	L77.709,114.241z M70.642,114.734l-2.91,1.771l-2.932-1.654l2.915-1.668L70.642,114.734z M63.539,114.859l-2.937,1.579l-2.854-1.841
	l2.888-1.477L63.539,114.859z M56.478,114.645l-2.902,1.358l-2.751-2.119l2.858-1.191L56.478,114.645z M46.268,47.424l3.972-1.417
	l3.161,2.435l3.751-1.755l3.387,2.188l3.637-1.957l3.583,2.021l3.493-2.126l3.727,1.838l3.324-2.309l3.867,1.628l3.126-2.5
	l4.257,1.479l0.547-1.853l0.047,0.043c-0.002,0.013-0.004,0.026-0.006,0.039c-0.166,1.063-0.332,2.126-0.499,3.189l-1.018-0.986
	l-3.152,2.713l-3.877-1.489l-3.185,2.369l-3.742-1.712l-3.37,2.188l-3.608-1.911l-3.525,2.015l-3.474-2.08l-0.344,0.177l-3.26,1.665
	l-3.233-2.258l-3.769,1.57l-2.909-2.522l-3.961,1.146l-2.399-2.845l-1.93,0.256c-0.113-0.732-0.226-1.465-0.339-2.198l0.75,1.093
	l4.204-0.901L46.268,47.424z M44.112,43.694l2.727-0.789l2.629,2.279L46.621,46.2L44.112,43.694z M50.823,45.082l2.86-1.192
	l2.795,1.954l-2.903,1.358L50.823,45.082z M57.749,45.795l2.888-1.477l2.903,1.739l-2.937,1.581L57.749,45.795z M64.798,46.05
	l2.915-1.666l2.929,1.55l-2.909,1.772L64.798,46.05z M71.91,45.965l2.872-1.865l2.928,1.34l-2.852,1.979L71.91,45.965z
	 M79.016,45.513l2.793-2.078l2.894,1.112l-2.754,2.201L79.016,45.513z M86.085,44.653l2.484-2.14l0.812,0.788l-0.669,2.265
	L86.085,44.653z M86.171,69.636l0.17-0.146c-0.011,0.065-0.021,0.13-0.031,0.195L86.171,69.636z M85.471,68.786l-3.877-1.489
	l-3.183,2.369l-3.743-1.715l-3.371,2.188l-3.608-1.91l-3.525,2.016l-3.473-2.081l-0.344,0.176l-3.261,1.666l-3.233-2.259
	l-3.768,1.57l-2.91-2.521l-3.96,1.146l-1.266-1.501c-0.14-0.891-0.276-1.782-0.415-2.672l1.965-0.422l2.77,2.767l3.972-1.416
	l3.161,2.435l3.751-1.756l3.387,2.188l3.636-1.957l3.583,2.021l3.495-2.127l3.724,1.841l3.325-2.31l3.867,1.628l3.125-2.5
	l1.783,0.62c-0.159,1.011-0.316,2.02-0.475,3.03L85.471,68.786z M84.613,69.569L81.948,71.7l-2.843-1.196l2.703-2.013L84.613,69.569
	z M77.619,70.455l-2.762,1.917l-2.855-1.409l2.78-1.806L77.619,70.455z M70.551,70.941l-2.819,1.716l-2.84-1.603l2.823-1.614
	L70.551,70.941z M63.447,71.06l-2.844,1.53l-2.764-1.784l2.798-1.43L63.447,71.06z M56.389,70.838l-2.814,1.316l-2.665-2.052
	l2.772-1.155L56.389,70.838z M49.382,70.167l-2.762,0.986l-2.427-2.426l2.644-0.766L49.382,70.167z M41.09,60.916l1.362,1.614
	l-1.076,0.229C41.28,62.145,41.186,61.529,41.09,60.916z M44.193,62.462l2.646-0.765l2.544,2.205l-2.762,0.985L44.193,62.462z
	 M50.91,63.837l2.773-1.155l2.706,1.892l-2.814,1.318L50.91,63.837z M57.838,64.541l2.799-1.429l2.811,1.685l-2.846,1.53
	L57.838,64.541z M64.891,64.79l2.824-1.615l2.836,1.502l-2.818,1.717L64.891,64.79z M72.002,64.699l2.78-1.806l2.837,1.297
	l-2.763,1.917L72.002,64.699z M79.105,64.239l2.703-2.012l2.805,1.077l-2.665,2.131L79.105,64.239z M86.171,63.372l1.301-1.121
	c-0.077,0.498-0.155,0.995-0.233,1.493L86.171,63.372z M85.47,62.522l-3.876-1.489l-3.185,2.369l-3.742-1.712l-3.37,2.186
	l-3.608-1.91l-3.525,2.016L60.688,61.9l-0.343,0.176l-3.26,1.665l-3.233-2.259l-3.769,1.57l-2.909-2.521l-3.96,1.145l-2.401-2.845
	l-0.046,0.006c-0.058-0.377-0.118-0.755-0.176-1.132l2.908-0.622l2.77,2.766l3.971-1.417l3.161,2.435l3.751-1.754l3.387,2.187
	l3.637-1.957l3.583,2.021l3.495-2.126l3.724,1.839l3.325-2.31l3.867,1.628l3.126-2.499l2.71,0.941
	c-0.089,0.578-0.18,1.155-0.271,1.733L85.47,62.522z M40.001,53.906l0.255-0.035l2.046,2.425l-1.868,0.4
	C40.291,55.766,40.145,54.836,40.001,53.906z M44.354,56.359l2.484-0.719l2.375,2.059l-2.591,0.925L44.354,56.359z M51.086,57.709
	l2.597-1.083l2.527,1.767l-2.635,1.233L51.086,57.709z M58.019,58.394l2.617-1.337l2.628,1.573l-2.662,1.434L58.019,58.394z
	 M65.073,58.628l2.642-1.508l2.653,1.403l-2.636,1.606L65.073,58.628z M72.184,58.524l2.599-1.688l2.655,1.215l-2.581,1.792
	L72.184,58.524z M79.285,58.05l2.523-1.878l2.63,1.01l-2.49,1.99L79.285,58.05z M86.343,57.168l2.224-1.916
	c-0.133,0.85-0.267,1.7-0.398,2.549L86.343,57.168z M89.381,49.667l-0.669,2.267l-2.628-0.913l2.485-2.14L89.381,49.667z
	 M84.702,50.915l-2.754,2.201l-2.932-1.235l2.792-2.078L84.702,50.915z M77.71,51.808l-2.853,1.98l-2.946-1.455l2.871-1.864
	L77.71,51.808z M70.642,52.301l-2.91,1.772l-2.933-1.655l2.916-1.667L70.642,52.301z M63.539,52.427l-2.937,1.58l-2.853-1.844
	l2.887-1.475L63.539,52.427z M56.478,52.212l-2.902,1.357l-2.752-2.12l2.859-1.191L56.478,52.212z M49.467,51.552l-2.846,1.015
	l-2.509-2.506l2.727-0.788L49.467,51.552z M39.039,47.666l1.217-0.162l2.269,2.689l-2.635,0.565l-0.483-0.705
	C39.284,49.257,39.162,48.462,39.039,47.666z M39.891,44.389l-1.75-2.549c-0.021-0.138-0.042-0.276-0.064-0.414l2.179-0.29
	l2.269,2.689L39.891,44.389z M37.261,35.972l1.421,0.602l-0.046-0.009l-1.375-0.589C37.262,35.974,37.261,35.973,37.261,35.972z
	 M37.208,35.613c0-0.001,0-0.002,0-0.003l0.141-0.046l-0.148-0.003c0-0.001,0-0.001,0-0.001l0.159,0.004L37.208,35.613z
	 M39.683,51.844l3.816-0.817l2.769,2.765l3.972-1.417l3.161,2.435l3.75-1.754l3.387,2.187l3.636-1.957l3.583,2.021l3.494-2.126
	l3.726,1.838l3.326-2.31l3.866,1.629l3.125-2.499l3.609,1.254c-0.042,0.268-0.085,0.537-0.126,0.806l-0.154-0.149l-3.153,2.714
	l-3.876-1.489l-3.183,2.369l-3.744-1.713l-3.371,2.188l-3.607-1.909l-3.525,2.014l-3.474-2.08l-0.344,0.177l-3.26,1.666l-3.233-2.26
	l-3.768,1.57l-2.909-2.522l-3.961,1.146l-2.4-2.845l-0.967,0.128C39.792,52.551,39.737,52.197,39.683,51.844z M42.451,68.793
	l-0.127,0.028c-0.011-0.073-0.023-0.146-0.035-0.219L42.451,68.793z M43.498,69.611l2.769,2.766l3.973-1.417l3.161,2.435
	l3.751-1.755l3.387,2.188l3.637-1.957l3.583,2.021l3.495-2.125l3.724,1.839l3.325-2.31l3.867,1.628l3.125-2.498l0.854,0.296
	c-0.226,1.442-0.451,2.886-0.678,4.328v0.001l-3.877-1.49l-3.185,2.368l-3.742-1.714l-3.371,2.188l-3.607-1.909l-3.525,2.016
	l-3.474-2.081l-0.344,0.177l-3.26,1.665l-3.233-2.259l-3.769,1.57l-2.909-2.521l-3.961,1.144l-0.04-0.048
	c-0.229-1.442-0.461-2.886-0.689-4.329L43.498,69.611z M80.245,108.464l-1.229-0.518l1.483-1.104
	C80.414,107.382,80.329,107.923,80.245,108.464z M81.182,102.49l-2.165-0.912l2.612-1.944c-0.025,0.171-0.054,0.343-0.08,0.516
	C81.427,100.93,81.304,101.709,81.182,102.49z M81.594,98.306l-3.185,2.369l-3.742-1.715l-3.37,2.188l-3.608-1.909l-3.525,2.015
	l-3.473-2.081l-0.344,0.177l-3.261,1.665l-3.233-2.259l-3.769,1.57l-2.909-2.521l-0.101,0.03c-0.054-0.316-0.107-0.629-0.161-0.945
	l3.326-1.186l3.161,2.435l3.75-1.755l3.387,2.188l3.636-1.956l3.583,2.021l3.495-2.125l3.724,1.838l3.325-2.31l3.648,1.538
	c-0.042,0.272-0.085,0.544-0.127,0.816L81.594,98.306z M77.709,101.505l-2.851,1.979l-2.947-1.455l2.871-1.863L77.709,101.505z
	 M70.642,101.998l-2.91,1.771l-2.933-1.654l2.916-1.666L70.642,101.998z M63.539,102.122l-2.936,1.581l-2.854-1.842l2.889-1.477
	L63.539,102.122z M56.479,101.909l-2.903,1.357l-2.751-2.119l2.859-1.191L56.479,101.909z M47.343,99.408l2.124,1.841l-1.695,0.605
	C47.629,101.039,47.483,100.224,47.343,99.408z M50.823,94.778l2.859-1.191l2.796,1.954l-2.903,1.358L50.823,94.778z M57.748,95.492
	l2.889-1.476l2.903,1.739l-2.938,1.58L57.748,95.492z M64.798,95.748l2.917-1.667l2.928,1.549l-2.91,1.771L64.798,95.748z
	 M71.91,95.663l2.872-1.865l2.927,1.34l-2.852,1.979L71.91,95.663z M74.667,86.745l-3.37,2.187l-3.607-1.909l-3.526,2.015
	l-3.474-2.08l-0.344,0.177l-3.259,1.665l-3.234-2.259l-3.768,1.57l-2.909-2.521l-2.05,0.592c-0.16-0.966-0.324-1.933-0.482-2.898
	l1.624,1.623l3.973-1.418l3.161,2.435l3.75-1.754l3.387,2.187l3.636-1.956l3.583,2.021l3.495-2.125l3.725,1.838l3.324-2.31
	l3.867,1.628l1.916-1.531c-0.153,0.982-0.308,1.966-0.461,2.948l-2.03-0.78l-3.185,2.368L74.667,86.745z M77.258,89.082
	l-2.401,1.667l-2.491-1.23l2.417-1.568L77.258,89.082z M70.187,89.541l-2.455,1.494l-2.476-1.397l2.459-1.406L70.187,89.541z
	 M63.082,89.634l-2.479,1.334l-2.405-1.554l2.438-1.245L63.082,89.634z M56.033,89.382l-2.458,1.148l-2.313-1.782l2.421-1.009
	L56.033,89.382z M44.301,81.224l2.537-0.733l2.544,2.206l-2.762,0.985l-2.292-2.29C44.32,81.336,44.311,81.279,44.301,81.224z
	 M50.91,82.631l2.773-1.156l2.706,1.892l-2.814,1.316L50.91,82.631z M57.837,83.335l2.799-1.432l2.812,1.685l-2.847,1.531
	L57.837,83.335z M64.89,83.583l2.825-1.614l2.838,1.501l-2.821,1.716L64.89,83.583z M72,83.49l2.782-1.805l2.837,1.298l-2.761,1.918
	L72,83.49z M84.336,82.321l-2.388,1.907l-2.843-1.196l2.703-2.013l2.575,0.989C84.367,82.112,84.352,82.217,84.336,82.321z
	 M81.809,87.283l1.651,0.635c-0.056,0.362-0.112,0.724-0.169,1.087l-1.343,1.072l-2.486-1.047L81.809,87.283z M82.153,96.282
	l-0.205,0.163l-2.932-1.235l2.792-2.077l0.789,0.304C82.45,94.385,82.301,95.333,82.153,96.282z M84.549,80.959l-2.955-1.135
	l-3.185,2.37l-3.741-1.715l-3.372,2.188l-3.607-1.909l-3.525,2.015l-3.474-2.08l-0.343,0.176l-3.261,1.666l-3.233-2.26l-3.769,1.57
	l-2.909-2.521l-3.038,0.879c-0.233-1.438-0.458-2.879-0.688-4.317l0.05-0.01l2.768,2.766l3.972-1.417l3.162,2.436l3.75-1.755
	l3.387,2.188l3.637-1.958l3.583,2.022l3.495-2.126l3.723,1.839l3.326-2.31l3.867,1.629l3.035-2.427
	C84.986,78.16,84.768,79.561,84.549,80.959z M44.194,74.99l2.645-0.764l2.544,2.205l-2.762,0.984L44.194,74.99z M50.911,76.366
	l2.772-1.155l2.705,1.892l-2.813,1.316L50.911,76.366z M57.838,77.07l2.798-1.431l2.811,1.684l-2.845,1.532L57.838,77.07z
	 M64.892,77.317l2.823-1.614l2.836,1.502l-2.818,1.718L64.892,77.317z M72,77.226l2.782-1.806l2.837,1.299l-2.763,1.918L72,77.226z
	 M79.105,76.767l2.703-2.012l2.805,1.078l-2.665,2.132L79.105,76.767z M45.294,87.2l1.544-0.445l2.204,1.91l-2.422,0.863
	l-1.126-1.125C45.427,88.003,45.36,87.602,45.294,87.2z M46.268,90.754l3.972-1.417l3.161,2.435l3.751-1.755l3.387,2.188
	l3.601-1.938l0.008,0.005l0.035-0.021l3.576,2.019l3.494-2.128l3.725,1.841l3.326-2.31l3.867,1.628l0.871-0.697
	c-0.093,0.594-0.185,1.188-0.277,1.784l-1.169-0.45l-3.183,2.369l-3.744-1.714l-3.371,2.188l-3.607-1.909l-3.525,2.015l-3.474-2.08
	l-0.344,0.175l-3.26,1.666l-3.233-2.259l-3.768,1.571l-2.909-2.522l-1.124,0.324c-0.083-0.488-0.162-0.979-0.244-1.466
	L46.268,90.754z M46.838,92.603l2.629,2.278l-2.731,0.975c-0.068-0.403-0.138-0.807-0.206-1.209
	c-0.106-0.621-0.205-1.244-0.31-1.866L46.838,92.603z M47.955,102.888l2.285-0.814l3.161,2.434l3.751-1.754l3.387,2.188l3.637-1.959
	l3.583,2.022l3.495-2.127l3.725,1.841l3.323-2.31l2.715,1.144c-0.093,0.585-0.184,1.171-0.276,1.757l-2.33,1.733l-3.742-1.714
	l-3.371,2.188l-3.607-1.91l-3.525,2.017l-3.474-2.081l-0.344,0.176l-3.26,1.665l-3.233-2.259l-3.767,1.57l-1.718-1.488
	C48.226,104.434,48.092,103.66,47.955,102.888z M77.71,107.873l-2.854,1.981l-2.947-1.456l2.873-1.865L77.71,107.873z
	 M70.643,108.366l-2.911,1.771l-2.933-1.653l2.916-1.668L70.643,108.366z M63.539,108.492l-2.937,1.579l-2.853-1.843l2.888-1.476
	L63.539,108.492z M56.478,108.277l-2.903,1.358l-2.751-2.121l2.858-1.191L56.478,108.277z M49.468,107.618l-0.601,0.213
	c-0.057-0.293-0.117-0.588-0.172-0.883L49.468,107.618z M79.367,114.053c-0.02,0.128-0.039,0.256-0.059,0.384l-0.292-0.123
	L79.367,114.053z M37.44,37.188c-0.036-0.248-0.074-0.496-0.11-0.743l0.067-0.023l0.128,0.521L37.366,37.5h-0.045
	c-0.002,0-0.005-0.598-0.008-0.615l0.019-0.278l0.012-0.139l0.033-0.023l0.162-0.031l-0.129,0.025l1.919,2.758l4.253-0.904
	l2.8,2.764l4.02-1.418l3.197,2.433l3.795-1.754l3.426,2.188l3.679-1.957l3.624,2.021l3.537-2.125l3.768,1.838l3.365-2.309
	l3.91,1.628l3.163-2.499l4.308,1.479l0.554-1.853l0.371,0.338c-0.074,0.466-0.146,0.932-0.219,1.398l-0.269-0.234l-0.569,2.156
	l-1.42-1.375l-3.15,2.715l-3.877-1.489l-3.185,2.369l-3.741-1.714l-3.371,2.188l-3.608-1.909l-3.525,2.015l-3.474-2.081
	l-0.344,0.177l-3.26,1.666l-3.233-2.259l-3.769,1.57l-2.909-2.521l-3.961,1.146l-2.4-2.846l-2.891,0.384
	c-0.037-0.242-0.074-0.483-0.112-0.724c-0.125-0.808-0.239-1.617-0.357-2.425 M51.783,119.205l3.367,2.155l3.997-1.872l-0.357-0.196
	l0.387-0.408l0.346,0.43l-0.375,0.175l3.831,2.104l3.894-2.038l3.986,1.932l3.728-2.215l1.126,0.473
	c0.414-0.205,0.825-0.414,1.233-0.635l-2.485-1.042l-3.679,2.187l-3.938-1.91l-3.848,2.016l-2.09-1.147l-0.242-0.327l-0.114,0.132
	l-1.344-0.738l-0.375,0.177l-3.561,1.665l-3.527-2.259l-0.61,0.232c-0.165-0.418-0.281-0.859-0.388-1.314
	c-0.149-0.633-0.276-1.27-0.418-1.904l3.076,2.369l3.75-1.755l3.388,2.188l3.636-1.956l3.583,2.021l3.496-2.127l3.725,1.84
	l3.325-2.31l0.838,0.353c-0.093,0.597-0.188,1.192-0.279,1.788c-0.028,0.177-0.057,0.351-0.091,0.518
	c-0.135,0.188-0.296,0.365-0.532,0.517c-0.428,0.275-0.86,0.533-1.294,0.789c-0.374,0.221-0.752,0.43-1.13,0.635l0.791,0.362
	c-3.77,2.295-7.764,3.783-11.783,3.878c-5.061-0.02-9.009-1.533-12.537-4.29C52.09,119.542,51.929,119.376,51.783,119.205z
	 M88.048,28.308c-4.099,2.394-8.606,3.473-13.223,4.186c-3.354,0.518-6.736,0.767-8.939,0.842
	c-6.734,0.159-12.222-0.208-17.542-1.937c-2.625-0.854-2.643-0.869-2.608-3.562c0.01-0.829-0.408-2.004,0.303-2.397
	c0.65-0.359,1.263,0.734,1.893,1.18c3.802,2.693,8.095,4.048,12.677,4.32c6.946,0.414,13.819-0.161,20.505-2.25
	c1.979-0.618,3.843-1.495,5.494-2.768c3.693-2.849,4.542-6.769,2.121-10.755c-2.9-4.775-7.134-7.834-12.639-8.969
	c-5.945-1.225-11.646-0.457-16.993,2.477c-3.553,1.948-5.584,4.782-5.241,9.062c0.164,2.048,0.01,4.12,0.018,6.182
	c0.004,1.021-0.411,1.357-1.352,0.877c-2.544-1.296-4.713-3.012-5.979-5.646c-1.422-2.959-0.951-5.882,1.281-8.299
	c1.667-1.807,3.769-2.925,6.051-3.732c6.8-2.406,13.836-3.174,21.006-2.963c3.801,0.111,7.576,0.491,11.2,1.691
	c6.656,2.204,7.337,3.709,8.151,10.064C94.918,21.27,92.828,25.515,88.048,28.308z M57.772,23.768
	c-0.042-1.121,0.28-1.468,1.377-0.821c1.613,0.95,3.379,1.504,5.239,1.801c3.923,0.625,7.65-0.1,11.323-1.449
	c0.521-0.192,1.392-1.403,1.826,0.146c0.444,1.583,0.158,2.122-1.28,2.442c-3.25,0.721-6.548,1.069-9.872,1.167
	c-0.465,0.013-0.93,0.001-1.394,0.001c-1.795,0.076-3.583,0.008-5.372-0.152c-1.349-0.119-2.104-0.661-1.855-2.14
	C57.818,24.439,57.785,24.099,57.772,23.768z M58.932,13.724c1.639-1.648,3.715-2.521,5.897-3.179
	c2.048-0.617,4.149-0.879,5.801-0.946c6.062,0.044,10.703,2.042,14.082,6.608c2.26,3.053,1.648,5.56-1.704,7.345
	c-0.912,0.485-1.46,0.571-1.503-0.726c-0.044-1.259-0.203-2.513-0.292-3.771c-0.065-0.915-0.325-1.704-1.255-2.081
	c-0.92-0.374-1.645-0.008-2.365,0.575c-3.495,2.823-7.562,3.744-11.946,3.389c-2.59-0.21-4.88-1.22-6.724-3.108
	C57.458,16.331,57.449,15.214,58.932,13.724z"/>
</svg>
