<?xml version="1.0" encoding="utf-8"?>
<!-- Generator: Adobe Illustrator 16.0.4, SVG Export Plug-In . SVG Version: 6.00 Build 0)  -->
<!DOCTYPE svg PUBLIC "-//W3C//DTD SVG 1.1//EN" "http://www.w3.org/Graphics/SVG/1.1/DTD/svg11.dtd">
<svg version="1.1" id="Layer_4817" xmlns="http://www.w3.org/2000/svg" xmlns:xlink="http://www.w3.org/1999/xlink" x="0px" y="0px"
	 width="128px" height="128px" viewBox="0 0 128 128" enable-background="new 0 0 128 128" xml:space="preserve">
<g id="qZmejd.tif">
	<g>
		<path fill-rule="evenodd" clip-rule="evenodd" d="M0.323,123.654c0-20.165,0-40.234,0-60.528
			c6.189-5.719,12.502-11.554,18.859-17.429c0-7.161,0-14.292,0-21.546c7.856,0,15.607,0,23.349,0
			C49.69,17.546,56.784,11,63.997,4.346c7.152,6.598,14.269,13.16,21.44,19.773c7.708,0,15.424,0,23.239,0
			c0,7.189,0,14.274,0,21.449c6.356,5.874,12.701,11.739,19,17.559c0,20.222,0,40.331,0,60.528
			C85.228,123.654,42.858,123.654,0.323,123.654z M43.08,80.068l0.047,0.051l-0.066-0.03c-0.07-0.064-0.141-0.13-0.03-0.029
			C42.875,80.032,42.977,80.051,43.08,80.068z M46.665,81.576c0.389,0.177,0.759,0.364,1.144,0.518
			c5.071,2.006,10.151,3.989,15.209,6.022c0.783,0.316,1.434,0.208,2.165-0.084c12.647-5.076,25.299-10.137,37.951-15.203
			c0.422-0.169,0.834-0.361,1.259-0.546c0-14.623,0-29.178,0-43.797c-26.957,0-53.825,0-80.785,0c0,14.607,0,29.161,0,43.771
			c0.347,0.16,0.679,0.329,1.021,0.469c4.664,1.896,9.32,3.812,13.999,5.671c1.462,0.581,2.984,1.011,4.48,1.509
			c0.037-0.082,0.075-0.164,0.112-0.247c0.229,0.29,0.459,0.578,0.644,0.811c0.828,0.312,1.574,0.597,2.39,0.904
			c0.087-0.584,0.146-0.976,0.203-1.368c0.028,0.005,0.056,0.01,0.084,0.015C46.581,80.52,46.619,81.016,46.665,81.576z
			 M49.116,23.972c10.032,0,19.775,0,29.769,0c-5.074-4.683-9.965-9.196-14.889-13.74C59.029,14.819,54.164,19.312,49.116,23.972z
			 M123.158,64.829c-4.82-4.443-9.509-8.765-14.338-13.216c0,6.457,0,12.605,0,18.927C113.624,68.628,118.282,66.771,123.158,64.829
			z M4.857,64.818c4.795,1.917,9.441,3.774,14.197,5.676c0-6.261,0-12.38,0-18.778C14.232,56.167,9.603,60.438,4.857,64.818z"/>
		<path fill-rule="evenodd" clip-rule="evenodd" d="M35.533,47.212c0-1.379,0-2.702,0-4.121c18.96,0,37.865,0,56.976,0
			c0,0.69,0,1.344,0,1.999c0,0.667,0,1.333,0,2.122C73.5,47.212,54.597,47.212,35.533,47.212z"/>
		<path fill-rule="evenodd" clip-rule="evenodd" d="M35.517,66.155c0-1.362,0-2.653,0-4.188c12.643-0.033,25.25-0.008,37.974-0.012
			c0,1.455,0,2.77,0,4.199C60.89,66.155,48.275,66.155,35.517,66.155z"/>
	</g>
</g>
</svg>
