<?xml version="1.0" encoding="utf-8"?>
<!-- Generator: Adobe Illustrator 16.0.4, SVG Export Plug-In . SVG Version: 6.00 Build 0)  -->
<!DOCTYPE svg PUBLIC "-//W3C//DTD SVG 1.1//EN" "http://www.w3.org/Graphics/SVG/1.1/DTD/svg11.dtd">
<svg version="1.1" id="Layer_4823" xmlns="http://www.w3.org/2000/svg" xmlns:xlink="http://www.w3.org/1999/xlink" x="0px" y="0px"
	 width="128px" height="128px" viewBox="0 0 128 128" enable-background="new 0 0 128 128" xml:space="preserve">
<g id="_x33_W3LDG.tif">
	<g>
		<path fill-rule="evenodd" clip-rule="evenodd" d="M63.992,64.825c19.096,0.001,38.19,0.002,57.285-0.001
			c1.219,0,2.427-0.004,3.589,0.488c1.95,0.823,3.088,2.53,2.882,4.425c-0.207,1.906-1.864,3.73-3.948,3.735
			c-3.029,0.007-4.668,1.693-6.022,4.052c-2.102,3.658-3.383,7.661-4.97,11.536c-1.512,3.69-2.918,7.43-5.114,10.794
			c-0.405,0.621-0.83,1.237-1.305,1.807c-1.767,2.107-3.755,3.352-6.795,3.192c-5.471-0.284-10.966-0.112-16.451-0.047
			c-1.382,0.016-2.484-0.399-3.524-1.245c-1.719-1.398-2.901-3.201-3.941-5.106c-1.853-3.395-3.14-7.032-4.46-10.653
			c-0.834-2.289-1.763-4.534-2.823-6.729c-0.624-1.292-1.431-2.457-2.363-3.53c-1.511-1.738-2.562-1.743-4.123-0.009
			c-0.768,0.854-1.419,1.8-1.966,2.823c-1.665,3.113-2.805,6.443-4.062,9.725c-1.015,2.65-2.036,5.296-3.312,7.836
			c-0.669,1.335-1.476,2.588-2.395,3.761c-1.622,2.071-3.522,3.261-6.405,3.142c-5.475-0.227-10.969-0.136-16.451-0.006
			c-2.04,0.049-3.504-0.744-4.808-2.116c-1.55-1.631-2.767-3.496-3.791-5.494c-2.346-4.583-4.019-9.45-5.964-14.203
			c-0.873-2.13-1.773-4.238-3.01-6.193c-1.224-1.935-2.716-3.371-5.212-3.254c-0.617,0.029-1.197-0.17-1.76-0.426
			c-2.966-1.345-3.439-5.134-0.885-7.144c1.179-0.927,2.548-1.173,4.009-1.168c4.74,0.016,9.48,0.008,14.22,0.008
			c10.428,0.001,20.854,0.001,31.283,0.001C55.597,64.825,59.794,64.825,63.992,64.825z"/>
		<path fill-rule="evenodd" clip-rule="evenodd" d="M63.84,60.513c-17.944-0.001-35.887-0.001-53.83-0.001
			c-0.474,0-0.957,0.049-1.419-0.029c-1.097-0.184-1.607-0.95-1.264-2.047c0.505-1.61,1.097-3.194,1.693-4.773
			c2.817-7.462,5.589-14.943,9.052-22.139c0.819-1.701,1.632-3.405,2.748-4.959c1.626-2.266,3.776-3.392,6.545-3.391
			c7.787,0,15.574-0.018,23.361,0.012c2.155,0.009,4.313,0.29,6.463,0.214c2.083-0.074,4.184,0.134,6.224-0.04
			c3.035-0.259,6.063,0.366,9.077-0.171c0.585-0.104,1.231-0.054,1.813,0.08c0.81,0.185,1.616,0.198,2.423,0.16
			c6.605-0.312,13.216-0.252,19.826-0.25c1.419,0.001,2.839,0.132,4.256,0.091c2.951-0.086,5.038,1.391,6.562,3.7
			c2.131,3.229,3.619,6.801,5.119,10.351c2.683,6.352,5.133,12.796,7.564,19.248c0.191,0.505,0.346,1.024,0.499,1.543
			c0.452,1.545-0.065,2.361-1.664,2.392c-2.775,0.054-5.552,0.01-8.327,0.01C94.988,60.514,79.414,60.514,63.84,60.513z
			 M14.018,53.36c-0.095,1.064,0.358,1.881,1.084,2.133c0.798,0.276,1.772-0.114,2.192-1.01c0.458-0.976,0.786-2.011,1.187-3.013
			c2.706-6.774,5.037-13.714,8.86-19.991c0.347-0.571,0.456-1.089,0.097-1.699c-0.708-1.2-2.104-1.339-3.003-0.181
			c-1.078,1.392-1.896,2.954-2.645,4.546c-2.705,5.757-4.919,11.715-7.23,17.633C14.337,52.343,14.165,52.926,14.018,53.36z"/>
	</g>
</g>
</svg>
