<?xml version="1.0" encoding="utf-8"?>
<!-- Generator: Adobe Illustrator 16.0.4, SVG Export Plug-In . SVG Version: 6.00 Build 0)  -->
<!DOCTYPE svg PUBLIC "-//W3C//DTD SVG 1.1//EN" "http://www.w3.org/Graphics/SVG/1.1/DTD/svg11.dtd">
<svg version="1.1" id="Layer_1_1" xmlns="http://www.w3.org/2000/svg" xmlns:xlink="http://www.w3.org/1999/xlink" x="0px" y="0px"
	 width="128px" height="128px" viewBox="0 0 128 128" enable-background="new 0 0 128 128" xml:space="preserve">
<path d="M120.273,30.693c0.909-1.579-0.457-3.036-0.156-4.616c-1.288-1.021-2.468-1.953-3.556-2.816
	c-0.035-1.313,0.953-2.182,0.818-3.516c-0.917-0.5-1.949-0.749-3.035-0.7c-1.734,1.184-3.053,2.827-4.99,3.486
	c-7.658,0.417-7.658,0.417-16.439,2.94c-1.318,1.668-3.445,2.048-5.113,3.183c-1.744,1.187-3.715,2.048-5.641,3.081
	c-0.354,0.663-0.732,1.375-1.139,2.136c-1.615,0.64-3.041,1.601-4.302,2.79c-1.108,1.045-2.149,2.159-3.235,3.227
	c-1.592,1.562-3.115,3.218-5.588,4.229c-2.811,0-5.957-0.088-9.099,0.024c-3.712,0.132-7.267-0.508-10.763-1.68
	c-1.923-0.644-3.877-1.198-5.811-1.808c-4.158-1.31-8.191-1.089-12.131,0.849c-1.834,0.901-4.3,1.382-6.022,2.599
	c-1.329-0.12-3.277-0.27-3.636-0.302c-1.391-0.127-2.648,0.183-3.832,0.935c-1.92,1.217-3.23,2.942-4.204,4.943
	c-1.948,4.002-2.799,8.296-3.209,12.682c-0.273,2.885-0.497,5.769-0.947,8.64c-0.579,3.677-2.032,6.893-4.528,9.643
	c-1.063,1.168-1.962,2.419-2.187,4.039c-0.326,0.303-0.644,0.58-0.94,0.88c-0.27,0.273-0.375,0.587-0.09,0.956
	c0.64,0.331,1.213-0.003,1.77-0.273c2.114-1.025,3.755-2.728,5.693-4.006c0.282-0.184,0.502-0.512,0.661-0.82
	c0.595-1.162,1.502-2.043,2.549-2.857c0.292-0.771,0.59-1.562,0.951-2.517c0.909-0.626,1.516-1.625,1.83-2.839
	c0.14-0.547,0.51-0.994,0.995-1.334c0.344-0.242,0.65-0.535,0.909-0.748c0.624-1.205,0.5-2.623,1.527-3.566
	c0.359-0.18,0.732-0.365,1.134-0.564c0.002-0.314,0.025-0.595,0.002-0.87c-0.23-2.822-0.266-5.648-0.097-8.472
	c0.119-1.985,0.471-3.943,1.009-5.848c0.257-0.908,0.695-1.652,1.312-2.233c-0.114,0.3-0.228,0.598-0.346,0.891
	c-1.418,3.525-1.873,6.909-1.57,10.707c0.226,2.837,0.519,5.717,1.953,8.232c1.306,2.295,1.093,4.436,0.012,6.672
	c-0.936,1.941-2.137,3.722-3.629,5.238c-1.559,1.58-2.15,3.379-2.004,5.52c0.049,0.709-0.037,1.436,0.083,2.129
	c0.521,2.998-0.155,5.846-0.969,8.688c-0.503,1.755-0.987,3.516-1.433,5.287c-0.172,0.681-0.296,1.401,0.217,2.087
	c0.55,0.109,1.132,0.228,1.716,0.347c0.064,0.841-0.54,1.587-0.124,2.448c0.224,0.395,0.529,0.791,1.302,1.108
	c1.725-0.042,3.732,0.175,5.628-0.13c0.643-1.248,0.316-2.17-0.293-3.032c-1.951-2.764-2.118-5.852-1.634-9.045
	c0.366-2.407,0.702-4.835,1.701-7.085c0.438-0.986,0.738-2.145,2.057-2.553c1.199,2.496,2.272,5.014,2.997,7.656
	c0.428,1.566,0.67,3.176,0.057,4.791c-0.761,2.006-0.124,3.75,0.994,5.338c0.503,0,0.898,0,1.302,0
	c0.614,1.289,0.344,2.916,1.734,3.91c1.844,0.291,3.758,0.072,5.667-0.154c0.429-0.051,0.743-0.295,0.965-0.815
	c-0.671-2.039-1.451-4.086-3.304-5.563c-1.769-1.412-2.54-3.357-2.749-5.578c-0.085-0.904-0.177-1.848-0.513-2.673
	c-0.9-2.222-0.722-4.417,0.131-6.532c1.902-4.715,4.191-9.246,6.996-13.498c0.605-0.914,1.208-1.888,2.288-2.213
	c1.458,0.067,1.987,1.937,3.491,1.612c0.939-0.502,0.658-1.752,1.591-2.28c1.161-0.27,2.321-0.012,3.496,0.39
	c1.935,0.659,3.727,1.599,5.513,2.567c5.279,2.859,10.845,3.87,16.777,2.634c1.389-0.291,2.804-0.466,4.215-0.63
	c1.732-0.199,3.441-0.133,5.356,1.016c-0.081,1.175-0.124,2.283-0.237,3.385c-0.147,1.411-0.353,2.819-0.529,4.228
	c-0.708,5.646-1.293,11.319-4.238,16.305c0.131,1.177-0.272,2.298,0.319,3.22c0.888,0.279,1.683-0.798,2.364,0.152
	c0.055,1.09-0.672,2.162-0.043,3.314c1.137,0,2.236,0.062,3.329-0.018c1.065-0.078,2.2,0.398,3.363-0.357
	c-0.852-2.77-2.771-4.992-3.698-7.918c0.01-2.814,1.006-5.548,2.538-8.109c0.337-0.562,0.683-1.284,1.751-1.115
	c0.543,0.878,1.051,1.854,1.035,3.008c-0.041,3.24,0.332,6.494-0.457,9.66c0.338,0.808,0.769,1.476,1.466,1.875
	c0.623,0.129,1.229-0.42,1.808,0.127c0.396,0.871,0.355,1.984,1.408,2.812c1.713,0.077,3.604,0.373,5.439-0.242
	c0.053-0.313,0.16-0.533,0.107-0.707c-0.145-0.479-0.274-0.994-0.557-1.394c-0.875-1.243-1.727-2.524-2.754-3.639
	c-2.516-2.726-2.859-5.983-2.337-9.389c0.216-1.406,0.556-2.794,0.453-4.216c-0.3-4.135,0.624-8.059,1.95-12.131
	c0.979-0.533,1.762-1.432,2.123-2.666c0.574-1.957,1.479-3.768,2.57-5.455c0-2.096-0.069-4.129,0.018-6.154
	c0.112-2.655,0.504-5.265,2.045-7.541c2.395-3.535,4.586-7.185,6.25-11.128c0.359-0.851,0.811-1.634,1.438-2.316
	c0.503-0.542,1.073-0.928,1.85-0.899c0.868,0.14,1.409,0.771,1.974,1.345c1.022,1.042,2.145,1.827,3.674,1.95
	c1.047,0.084,1.854,0.736,2.673,1.362c1.311,1.005,2.126,2.415,3.03,3.707c1.49,0.417,2.885,0.323,4.213,0.104
	c2.139-1.918,2.454-2.521,2.916-5.543C125.245,38.742,122.798,34.781,120.273,30.693z"/>
</svg>
