<?xml version="1.0" encoding="utf-8"?>
<!-- Generator: Adobe Illustrator 16.0.4, SVG Export Plug-In . SVG Version: 6.00 Build 0)  -->
<!DOCTYPE svg PUBLIC "-//W3C//DTD SVG 1.1//EN" "http://www.w3.org/Graphics/SVG/1.1/DTD/svg11.dtd">
<svg version="1.1" id="Layer_1_2" xmlns="http://www.w3.org/2000/svg" xmlns:xlink="http://www.w3.org/1999/xlink" x="0px" y="0px"
	 width="128px" height="128px" viewBox="0 0 128 128" enable-background="new 0 0 128 128" xml:space="preserve">
<path fill-rule="evenodd" clip-rule="evenodd" d="M127.436,46.87c-0.262-0.349-0.565-0.666-0.922-0.929
	c-0.748-0.55-1.484-1.116-2.234-1.664c-0.354-0.259-0.684-0.543-0.977-0.871c-0.233-0.26-0.485-0.503-0.817-0.64
	c-0.276-0.112-0.522-0.29-0.701-0.509c-0.841-1.02-1.981-1.697-2.942-2.583c-1.02-0.938-2.07-1.865-3.07-2.82
	c-1.197-1.147-2.391-2.297-3.639-3.39c-0.349-0.306-0.49-0.399-0.707-0.337c0.224-0.338,0.439-0.681,0.698-0.998
	c0.483-0.592,1.317-0.817,1.706-1.458c0.32-0.531,0.759-0.957,1.212-1.366c0.109-0.099,0.233-0.195,0.299-0.319
	c0.579-1.113,1.477-2.017,2.044-3.139c0.133-0.263,0.279-0.513,0.229-0.814c-0.311,0.449-0.847,0.602-1.232,0.952
	c-0.451,0.407-0.875,0.864-1.383,1.188c-1.047,0.673-2.088,1.415-3.232,1.867c-1.392,0.551-2.842,1.039-4.384,1.048
	c-1.596,0.009-2.966,1.498-3.122,3.041c-0.266-0.2-0.324,0.287-0.791,0.597c-0.926,0.616-2.084-0.93-2.997-1.488
	c-0.479-0.293-0.978-0.48-1.522-0.607c-2.341-0.542-3.507,1.469-2.869,3.3c0.143,0.41,0.317,0.812,0.512,1.2
	c0.268,0.535,0.928,0.754,1.059,1.358c-0.783-0.016-1.562-0.443-2.42-0.422c-2.235,0.056-4.477-0.167-6.703-0.464
	c-2.279-0.305-4.57-0.501-6.857-0.744c-1.97-0.209-3.937-0.442-5.908-0.616c-0.599-0.053-1.215,0.079-1.826,0.089
	c-1.926,0.027-3.854-0.019-5.777,0.062c-4.928,0.206-9.86,0.143-14.788,0.082c-4.663-0.058-9.332-0.034-13.996-0.161
	c-2.389-0.063-4.775-0.188-7.159-0.358c-1.625-0.114-3.24-0.362-4.862-0.531c-1.62-0.167-3.245-0.366-4.872-0.441
	c-1.572-0.072-3.138-0.223-4.717-0.223c-2.306,0.002-4.612,0.08-6.87,0.557c-1.807,0.382-3.658,0.704-5.229,1.849
	c-1.084,0.791-1.95,1.739-2.597,2.905c-0.204,0.367-0.245,0.781-0.311,1.176C2.209,43.476,2,46.727,2.029,49.999
	c0.02,2.363-0.046,4.729,0.061,7.089c0.092,2.071,0.07,4.14,0.083,6.208c0.01,1.342-0.114,2.677-0.293,4.007
	c-0.054,0.404-0.103,0.82-0.243,1.197c-0.587,1.564-0.815,3.209-1.138,4.834c-0.226,1.145-0.419,2.299-0.378,3.469
	c0.085,2.41,0.806,4.629,2.093,6.666c0.046,0.076,0.104,0.162,0.199,0.131c0.092-0.029,0.095-0.123,0.085-0.213
	c-0.073-0.664-0.219-1.316-0.257-1.99c-0.104-1.912,0.185-3.775,0.599-5.631c0.218-0.965,0.415-1.934,0.604-2.906
	c0.252-1.297,0.252-2.607,0.23-3.92c-0.017-0.992-0.124-1.979-0.174-2.965c-0.141-2.8-0.124-5.602,0.01-8.402
	c0.087-1.948,0.3-3.888,0.449-5.833c0.034-0.466,0.015-0.934,0.041-1.399c0.01-0.211-0.078-0.59,0.092-0.59
	c0.221,0,0.184,0.375,0.252,0.59c0.194,0.611,0.272,1.249,0.364,1.882c0.162,1.13,0.516,2.214,0.844,3.298
	c0.619,2.037,1.086,4.103,1.385,6.208c0.104,0.719,0.291,1.423,0.32,2.155c0.042,1.085-0.085,2.149-0.289,3.211
	c-0.203,1.059-0.333,2.131-0.545,3.184c-0.18,0.883-0.374,1.771-0.671,2.619c-0.866,2.459-0.932,4.941-0.49,7.494
	c0.482,2.785,0.822,5.592,0.781,8.428c-0.024,1.721-0.245,3.426-0.429,5.135c-0.109,1.004-0.327,2.01-0.128,3.039
	c0.092,0.48,0.298,0.795,0.786,0.93C6.86,98.086,7.19,98.49,7.299,99.1c0.071,0.4,0.211,0.785,0.282,1.188
	c0.141,0.783,0.669,1.121,1.385,1.256c0.313,0.059,0.633,0.102,0.951,0.131c0.899,0.078,1.8,0.158,2.702,0.209
	c0.374,0.021,0.446-0.092,0.262-0.406c-0.273-0.473-0.458-0.98-0.679-1.5c-0.011-0.012-0.021-0.021-0.032-0.031
	c0.015,0.006,0.024,0.016,0.041,0.02c0.003,0.01,0.007,0.018,0.011,0.027c0.413,0.264,0.719,0.648,1.081,0.973
	c0.097,0.084,0.204,0.281,0.342,0.135c0.099-0.105-0.042-0.264-0.119-0.375c-0.166-0.24-0.344-0.471-0.517-0.707
	c-0.087-0.115-0.208-0.221-0.254-0.35c-0.356-1.039-1.06-1.879-1.678-2.746c-1.009-1.41-1.266-2.982-1.28-4.631
	c-0.01-1.189,0.15-2.379,0.354-3.557c0.172-1.002,0.371-1.998,0.538-3.002c0.141-0.854,0.454-1.684,0.74-2.508
	c0.412-1.18,0.88-2.336,1.239-3.539c0.264-0.881,0.901-1.662,1.267-2.504c0.25-0.576,0.306-1.119,0.404-1.713
	c0.971,0.164-0.084,1.738-0.002,2.34c0.136,0.988,0.921,1.814,1.314,2.705c0.562,1.273,1.011,2.596,1.581,3.865
	c0.529,1.176,0.752,2.445,1.206,3.639c0.383,1.006,0.779,2.006,1.137,3.02c0.446,1.264,0.781,2.561,0.844,3.904
	c0.041,0.918,0.323,1.639,1.206,2.047c0.807,0.371,1.181,1.082,1.406,1.896c0.374,1.352,0.789,1.67,2.188,1.826
	c0.953,0.104,1.896,0.279,2.845,0.428c0.116,0.02,0.245,0.053,0.317-0.061c0.07-0.109-0.005-0.219-0.068-0.318
	c-0.152-0.246-0.308-0.492-0.448-0.746c-0.034-0.064-0.043-0.195-0.002-0.238c0.073-0.074,0.141,0.027,0.196,0.074
	c0.364,0.287,0.728,0.574,1.091,0.863c0.02-0.023,0.044-0.045,0.066-0.066c-0.153-0.543-0.617-0.904-0.827-1.42
	c-0.233-0.559-0.534-1.096-0.795-1.646c-0.653-1.352-1.547-2.51-2.746-3.422c-0.356-0.271-0.652-0.602-0.817-1.006
	c-0.754-1.867-1.251-3.799-1.295-5.828c-0.032-1.486-0.033-2.973-0.013-4.46c0.011-0.788-0.165-1.587-0.061-2.376
	c0.13-0.981,0.976-1.275,1.008-2.244c0.024-0.668,0.095-1.34,0.127-2.01c0.019-0.438,0.265-0.668,0.713-0.752
	c0.633-0.113,1.277-0.189,1.919-0.219c0.337-0.014,0.552,0.113,0.646,0.451c0.194,0.672,0.417,1.334,0.609,2.008
	c0.082,0.279,0.137,0.568,0.343,0.791c0.124,0.135,0.274,0.227,0.466,0.146c0.153-0.066,0.214-0.211,0.21-0.355
	c-0.02-0.406-0.046-0.814-0.097-1.217c-0.073-0.578-0.17-1.152-0.265-1.727c-0.053-0.336,0.054-0.561,0.386-0.68
	c0.945-0.334,1.688-1.023,2.548-1.51c0.584-0.332,1.033-0.924,1.497-1.441c0.41-0.459,0.781-0.617,1.421-0.371
	c2.26,0.877,4.62,1.396,7.009,1.781c0.688,0.109,1.387,0.207,2.081,0.215c1.206,0.014,2.365,0.318,3.553,0.432
	c1.244,0.117,2.481,0.314,3.723,0.461c1.938,0.229,3.873,0.459,5.814,0.654c1.503,0.154,3.014,0.301,4.524,0.367
	c1.368,0.059,2.728,0.203,4.091,0.32c1.157,0.098,2.334,0.107,3.493,0.066c0.073-0.002,0.154-0.012,0.239-0.023
	c-0.129,0.75-0.098,1.715-0.129,2.201c-0.088,1.393,0.027,2.805-0.053,4.205c-0.104,1.828-0.322,3.65-0.574,5.467
	c-0.09,0.635-0.211,1.268-0.238,1.906c-0.065,1.611-0.471,3.162-0.812,4.723c-0.189,0.865-0.237,1.654,0.515,2.326
	c0.427,0.383,0.363,0.963,0.325,1.477c-0.037,0.465-0.08,0.93-0.032,1.396c0.041,0.395,0.206,0.684,0.614,0.871
	c1.341,0.615,2.752,0.926,4.217,1.035c0.459,0.035,0.49-0.037,0.371-0.494c-0.115-0.445-0.451-0.807-0.494-1.291
	c-0.006-0.014-0.011-0.029-0.016-0.043c-0.023-0.029-0.047-0.059-0.067-0.092c-0.007-0.01,0.01-0.037,0.017-0.059
	c0.018,0.051,0.034,0.1,0.051,0.15c0.009,0.012,0.018,0.023,0.029,0.053c0.369,0.186,0.545,0.582,0.879,0.809
	c0.102,0.068,0.131,0.318,0.285,0.209c0.117-0.084,0.006-0.273-0.055-0.4c-0.634-1.344-1.182-2.736-1.662-4.127
	c-0.74-2.148-1.159-4.393-0.393-6.678c0.215-0.643,0.281-1.309,0.465-1.945c0.138-0.479,0.693-0.998,0.779-1.393
	c0.01-0.045,0.024-0.096,0.039-0.145c0.004,0.061,0.007,0.119,0.012,0.18c0.338,1.119,0.521,2.289,0.664,3.465
	c0.291,2.379,0.248,4.766,0.153,7.152c-0.011,0.234,0,0.467,0.005,0.701c0.007,0.404,0.162,0.715,0.521,0.945
	c0.842,0.535,1.319,1.271,1.273,2.32c-0.037,0.781,0.361,1.285,1.123,1.574c0.846,0.318,1.686,0.651,2.602,0.702
	c0.116,0.006,0.226,0.165,0.305,0.165c0.583,0,1.17,0,1.752,0c0.072,0-0.17-0.743-0.407-1.04c-0.212-0.27-0.437-0.546-0.458-0.922
	c0.414,0.229,0.666,0.624,0.996,0.937c0.078,0.076,0.235,0.186,0.279,0.158c0.141-0.092-0.013-0.191-0.047-0.291
	c-0.478-1.354-1.279-2.516-2.047-3.715c-0.977-1.531-1.504-3.262-1.795-5.064c-0.281-1.768-0.2-3.543-0.147-5.314
	c0.02-0.688,0.196-1.381,0.371-2.055c0.451-1.725,0.657-3.486,0.796-5.248c0.102-1.354,0.351-4.152,1.232-5.188
	c0.582,1.215,2.951,0.801,4.043,0.85c0.949,0.045,1.92-0.146,2.805-0.557c0.578-0.266,1.232-0.412,1.682-0.906
	c0.834-0.918,1.784-1.742,2.322-2.904c0.235-0.498,0.523-0.977,0.84-1.426c0.754-1.076,1.142-2.35,1.867-3.439
	c0.852-1.279,1.588-2.625,2.572-3.827c1.065-1.296,2.305-2.345,3.75-3.167c0.482-0.276,0.868-0.677,1.324-0.994
	c1.099-0.761,2.352-1.288,3.342-2.212c0.104-0.096,0.24-0.167,0.373-0.225c1.164-0.495,2.098-1.351,3.168-1.994
	c0.948-0.572,1.926-1.029,3.087-1.086c1.481-0.073,2.949-0.335,4.429-0.436c1.688-0.112,3.381-0.066,5.073-0.03
	c0.237,0.005,0.448,0.084,0.655,0.208c0.998,0.59,1.967,0.435,2.855-0.219c0.365-0.267,0.727-0.469,1.17-0.536
	c0.945-0.143,1.475-0.772,1.779-1.614c0.248-0.682,0.438-1.387,0.678-2.072C128.015,47.994,127.84,47.406,127.436,46.87z"/>
</svg>
